<?xml version="1.0" encoding="utf-8" standalone="no"?>
<!DOCTYPE svg PUBLIC "-//W3C//DTD SVG 1.1//EN"
  "http://www.w3.org/Graphics/SVG/1.1/DTD/svg11.dtd">
<svg height="310.86825pt" version="1.1" viewBox="0 0 408.10125 310.86825" width="408.10125pt" xmlns="http://www.w3.org/2000/svg" xmlns:xlink="http://www.w3.org/1999/xlink">
 <metadata>
  <rdf:RDF xmlns:cc="http://creativecommons.org/ns#" xmlns:dc="http://purl.org/dc/elements/1.1/" xmlns:rdf="http://www.w3.org/1999/02/22-rdf-syntax-ns#">
   <cc:Work>
    <dc:type rdf:resource="http://purl.org/dc/dcmitype/StillImage"/>
    <dc:date>2021-07-08T06:11:06.254385</dc:date>
    <dc:format>image/svg+xml</dc:format>
    <dc:creator>
     <cc:Agent>
      <dc:title>Matplotlib v3.4.2, https://matplotlib.org/</dc:title>
     </cc:Agent>
    </dc:creator>
   </cc:Work>
  </rdf:RDF>
 </metadata>
 <defs>
  <style type="text/css">*{stroke-linecap:butt;stroke-linejoin:round;}</style>
 </defs>
 <g id="figure_1">
  <g id="patch_1">
   <path d="M 0 310.86825 
L 408.10125 310.86825 
L 408.10125 0 
L 0 0 
z
" style="fill:#ffffff;"/>
  </g>
  <g id="axes_1">
   <g id="patch_2">
    <path d="M 43.78125 273.312 
L 400.90125 273.312 
L 400.90125 7.2 
L 43.78125 7.2 
z
" style="fill:#ffffff;"/>
   </g>
   <g id="patch_3">
    <path clip-path="url(#pd23036bf09)" d="M 61.341201 273.312 
L 62.956237 273.312 
L 62.956237 270.472336 
L 61.341201 270.472336 
z
" style="fill:#1f77b4;"/>
   </g>
   <g id="patch_4">
    <path clip-path="url(#pd23036bf09)" d="M 62.956237 273.312 
L 64.571274 273.312 
L 64.571274 266.922756 
L 62.956237 266.922756 
z
" style="fill:#1f77b4;"/>
   </g>
   <g id="patch_5">
    <path clip-path="url(#pd23036bf09)" d="M 64.571274 273.312 
L 66.186311 273.312 
L 66.186311 261.953345 
L 64.571274 261.953345 
z
" style="fill:#1f77b4;"/>
   </g>
   <g id="patch_6">
    <path clip-path="url(#pd23036bf09)" d="M 66.186311 273.312 
L 67.801347 273.312 
L 67.801347 262.663261 
L 66.186311 262.663261 
z
" style="fill:#1f77b4;"/>
   </g>
   <g id="patch_7">
    <path clip-path="url(#pd23036bf09)" d="M 67.801347 273.312 
L 69.416384 273.312 
L 69.416384 249.884773 
L 67.801347 249.884773 
z
" style="fill:#1f77b4;"/>
   </g>
   <g id="patch_8">
    <path clip-path="url(#pd23036bf09)" d="M 69.416384 273.312 
L 71.031421 273.312 
L 71.031421 255.564101 
L 69.416384 255.564101 
z
" style="fill:#1f77b4;"/>
   </g>
   <g id="patch_9">
    <path clip-path="url(#pd23036bf09)" d="M 71.031421 273.312 
L 72.646457 273.312 
L 72.646457 246.335193 
L 71.031421 246.335193 
z
" style="fill:#1f77b4;"/>
   </g>
   <g id="patch_10">
    <path clip-path="url(#pd23036bf09)" d="M 72.646457 273.312 
L 74.261494 273.312 
L 74.261494 242.785613 
L 72.646457 242.785613 
z
" style="fill:#1f77b4;"/>
   </g>
   <g id="patch_11">
    <path clip-path="url(#pd23036bf09)" d="M 74.261494 273.312 
L 75.876531 273.312 
L 75.876531 238.526118 
L 74.261494 238.526118 
z
" style="fill:#1f77b4;"/>
   </g>
   <g id="patch_12">
    <path clip-path="url(#pd23036bf09)" d="M 75.876531 273.312 
L 77.491567 273.312 
L 77.491567 244.915361 
L 75.876531 244.915361 
z
" style="fill:#1f77b4;"/>
   </g>
   <g id="patch_13">
    <path clip-path="url(#pd23036bf09)" d="M 77.491567 273.312 
L 79.106604 273.312 
L 79.106604 240.655866 
L 77.491567 240.655866 
z
" style="fill:#1f77b4;"/>
   </g>
   <g id="patch_14">
    <path clip-path="url(#pd23036bf09)" d="M 79.106604 273.312 
L 80.721641 273.312 
L 80.721641 242.075697 
L 79.106604 242.075697 
z
" style="fill:#1f77b4;"/>
   </g>
   <g id="patch_15">
    <path clip-path="url(#pd23036bf09)" d="M 80.721641 273.312 
L 82.336677 273.312 
L 82.336677 224.327798 
L 80.721641 224.327798 
z
" style="fill:#1f77b4;"/>
   </g>
   <g id="patch_16">
    <path clip-path="url(#pd23036bf09)" d="M 82.336677 273.312 
L 83.951714 273.312 
L 83.951714 224.327798 
L 82.336677 224.327798 
z
" style="fill:#1f77b4;"/>
   </g>
   <g id="patch_17">
    <path clip-path="url(#pd23036bf09)" d="M 83.951714 273.312 
L 85.56675 273.312 
L 85.56675 212.969143 
L 83.951714 212.969143 
z
" style="fill:#1f77b4;"/>
   </g>
   <g id="patch_18">
    <path clip-path="url(#pd23036bf09)" d="M 85.56675 273.312 
L 87.181787 273.312 
L 87.181787 213.679059 
L 85.56675 213.679059 
z
" style="fill:#1f77b4;"/>
   </g>
   <g id="patch_19">
    <path clip-path="url(#pd23036bf09)" d="M 87.181787 273.312 
L 88.796824 273.312 
L 88.796824 207.999731 
L 87.181787 207.999731 
z
" style="fill:#1f77b4;"/>
   </g>
   <g id="patch_20">
    <path clip-path="url(#pd23036bf09)" d="M 88.796824 273.312 
L 90.41186 273.312 
L 90.41186 212.969143 
L 88.796824 212.969143 
z
" style="fill:#1f77b4;"/>
   </g>
   <g id="patch_21">
    <path clip-path="url(#pd23036bf09)" d="M 90.41186 273.312 
L 92.026897 273.312 
L 92.026897 210.839395 
L 90.41186 210.839395 
z
" style="fill:#1f77b4;"/>
   </g>
   <g id="patch_22">
    <path clip-path="url(#pd23036bf09)" d="M 92.026897 273.312 
L 93.641934 273.312 
L 93.641934 200.190655 
L 92.026897 200.190655 
z
" style="fill:#1f77b4;"/>
   </g>
   <g id="patch_23">
    <path clip-path="url(#pd23036bf09)" d="M 93.641934 273.312 
L 95.25697 273.312 
L 95.25697 198.060908 
L 93.641934 198.060908 
z
" style="fill:#1f77b4;"/>
   </g>
   <g id="patch_24">
    <path clip-path="url(#pd23036bf09)" d="M 95.25697 273.312 
L 96.872007 273.312 
L 96.872007 212.259227 
L 95.25697 212.259227 
z
" style="fill:#1f77b4;"/>
   </g>
   <g id="patch_25">
    <path clip-path="url(#pd23036bf09)" d="M 96.872007 273.312 
L 98.487044 273.312 
L 98.487044 188.122084 
L 96.872007 188.122084 
z
" style="fill:#1f77b4;"/>
   </g>
   <g id="patch_26">
    <path clip-path="url(#pd23036bf09)" d="M 98.487044 273.312 
L 100.10208 273.312 
L 100.10208 188.122084 
L 98.487044 188.122084 
z
" style="fill:#1f77b4;"/>
   </g>
   <g id="patch_27">
    <path clip-path="url(#pd23036bf09)" d="M 100.10208 273.312 
L 101.717117 273.312 
L 101.717117 178.183261 
L 100.10208 178.183261 
z
" style="fill:#1f77b4;"/>
   </g>
   <g id="patch_28">
    <path clip-path="url(#pd23036bf09)" d="M 101.717117 273.312 
L 103.332153 273.312 
L 103.332153 189.541916 
L 101.717117 189.541916 
z
" style="fill:#1f77b4;"/>
   </g>
   <g id="patch_29">
    <path clip-path="url(#pd23036bf09)" d="M 103.332153 273.312 
L 104.94719 273.312 
L 104.94719 183.152672 
L 103.332153 183.152672 
z
" style="fill:#1f77b4;"/>
   </g>
   <g id="patch_30">
    <path clip-path="url(#pd23036bf09)" d="M 104.94719 273.312 
L 106.562227 273.312 
L 106.562227 177.473345 
L 104.94719 177.473345 
z
" style="fill:#1f77b4;"/>
   </g>
   <g id="patch_31">
    <path clip-path="url(#pd23036bf09)" d="M 106.562227 273.312 
L 108.177263 273.312 
L 108.177263 169.664269 
L 106.562227 169.664269 
z
" style="fill:#1f77b4;"/>
   </g>
   <g id="patch_32">
    <path clip-path="url(#pd23036bf09)" d="M 108.177263 273.312 
L 109.7923 273.312 
L 109.7923 176.763429 
L 108.177263 176.763429 
z
" style="fill:#1f77b4;"/>
   </g>
   <g id="patch_33">
    <path clip-path="url(#pd23036bf09)" d="M 109.7923 273.312 
L 111.407337 273.312 
L 111.407337 163.984941 
L 109.7923 163.984941 
z
" style="fill:#1f77b4;"/>
   </g>
   <g id="patch_34">
    <path clip-path="url(#pd23036bf09)" d="M 111.407337 273.312 
L 113.022373 273.312 
L 113.022373 157.595697 
L 111.407337 157.595697 
z
" style="fill:#1f77b4;"/>
   </g>
   <g id="patch_35">
    <path clip-path="url(#pd23036bf09)" d="M 113.022373 273.312 
L 114.63741 273.312 
L 114.63741 158.305613 
L 113.022373 158.305613 
z
" style="fill:#1f77b4;"/>
   </g>
   <g id="patch_36">
    <path clip-path="url(#pd23036bf09)" d="M 114.63741 273.312 
L 116.252447 273.312 
L 116.252447 156.885782 
L 114.63741 156.885782 
z
" style="fill:#1f77b4;"/>
   </g>
   <g id="patch_37">
    <path clip-path="url(#pd23036bf09)" d="M 116.252447 273.312 
L 117.867483 273.312 
L 117.867483 176.763429 
L 116.252447 176.763429 
z
" style="fill:#1f77b4;"/>
   </g>
   <g id="patch_38">
    <path clip-path="url(#pd23036bf09)" d="M 117.867483 273.312 
L 119.48252 273.312 
L 119.48252 153.336202 
L 117.867483 153.336202 
z
" style="fill:#1f77b4;"/>
   </g>
   <g id="patch_39">
    <path clip-path="url(#pd23036bf09)" d="M 119.48252 273.312 
L 121.097556 273.312 
L 121.097556 165.404773 
L 119.48252 165.404773 
z
" style="fill:#1f77b4;"/>
   </g>
   <g id="patch_40">
    <path clip-path="url(#pd23036bf09)" d="M 121.097556 273.312 
L 122.712593 273.312 
L 122.712593 148.36679 
L 121.097556 148.36679 
z
" style="fill:#1f77b4;"/>
   </g>
   <g id="patch_41">
    <path clip-path="url(#pd23036bf09)" d="M 122.712593 273.312 
L 124.32763 273.312 
L 124.32763 137.71805 
L 122.712593 137.71805 
z
" style="fill:#1f77b4;"/>
   </g>
   <g id="patch_42">
    <path clip-path="url(#pd23036bf09)" d="M 124.32763 273.312 
L 125.942666 273.312 
L 125.942666 151.91637 
L 124.32763 151.91637 
z
" style="fill:#1f77b4;"/>
   </g>
   <g id="patch_43">
    <path clip-path="url(#pd23036bf09)" d="M 125.942666 273.312 
L 127.557703 273.312 
L 127.557703 133.458555 
L 125.942666 133.458555 
z
" style="fill:#1f77b4;"/>
   </g>
   <g id="patch_44">
    <path clip-path="url(#pd23036bf09)" d="M 127.557703 273.312 
L 129.17274 273.312 
L 129.17274 144.107294 
L 127.557703 144.107294 
z
" style="fill:#1f77b4;"/>
   </g>
   <g id="patch_45">
    <path clip-path="url(#pd23036bf09)" d="M 129.17274 273.312 
L 130.787776 273.312 
L 130.787776 149.076706 
L 129.17274 149.076706 
z
" style="fill:#1f77b4;"/>
   </g>
   <g id="patch_46">
    <path clip-path="url(#pd23036bf09)" d="M 130.787776 273.312 
L 132.402813 273.312 
L 132.402813 138.427966 
L 130.787776 138.427966 
z
" style="fill:#1f77b4;"/>
   </g>
   <g id="patch_47">
    <path clip-path="url(#pd23036bf09)" d="M 132.402813 273.312 
L 134.01785 273.312 
L 134.01785 120.680067 
L 132.402813 120.680067 
z
" style="fill:#1f77b4;"/>
   </g>
   <g id="patch_48">
    <path clip-path="url(#pd23036bf09)" d="M 134.01785 273.312 
L 135.632886 273.312 
L 135.632886 124.229647 
L 134.01785 124.229647 
z
" style="fill:#1f77b4;"/>
   </g>
   <g id="patch_49">
    <path clip-path="url(#pd23036bf09)" d="M 135.632886 273.312 
L 137.247923 273.312 
L 137.247923 112.870992 
L 135.632886 112.870992 
z
" style="fill:#1f77b4;"/>
   </g>
   <g id="patch_50">
    <path clip-path="url(#pd23036bf09)" d="M 137.247923 273.312 
L 138.86296 273.312 
L 138.86296 128.489143 
L 137.247923 128.489143 
z
" style="fill:#1f77b4;"/>
   </g>
   <g id="patch_51">
    <path clip-path="url(#pd23036bf09)" d="M 138.86296 273.312 
L 140.477996 273.312 
L 140.477996 117.840403 
L 138.86296 117.840403 
z
" style="fill:#1f77b4;"/>
   </g>
   <g id="patch_52">
    <path clip-path="url(#pd23036bf09)" d="M 140.477996 273.312 
L 142.093033 273.312 
L 142.093033 125.649479 
L 140.477996 125.649479 
z
" style="fill:#1f77b4;"/>
   </g>
   <g id="patch_53">
    <path clip-path="url(#pd23036bf09)" d="M 142.093033 273.312 
L 143.708069 273.312 
L 143.708069 111.45116 
L 142.093033 111.45116 
z
" style="fill:#1f77b4;"/>
   </g>
   <g id="patch_54">
    <path clip-path="url(#pd23036bf09)" d="M 143.708069 273.312 
L 145.323106 273.312 
L 145.323106 110.741244 
L 143.708069 110.741244 
z
" style="fill:#1f77b4;"/>
   </g>
   <g id="patch_55">
    <path clip-path="url(#pd23036bf09)" d="M 145.323106 273.312 
L 146.938143 273.312 
L 146.938143 83.054521 
L 145.323106 83.054521 
z
" style="fill:#1f77b4;"/>
   </g>
   <g id="patch_56">
    <path clip-path="url(#pd23036bf09)" d="M 146.938143 273.312 
L 148.553179 273.312 
L 148.553179 94.413176 
L 146.938143 94.413176 
z
" style="fill:#1f77b4;"/>
   </g>
   <g id="patch_57">
    <path clip-path="url(#pd23036bf09)" d="M 148.553179 273.312 
L 150.168216 273.312 
L 150.168216 103.642084 
L 148.553179 103.642084 
z
" style="fill:#1f77b4;"/>
   </g>
   <g id="patch_58">
    <path clip-path="url(#pd23036bf09)" d="M 150.168216 273.312 
L 151.783253 273.312 
L 151.783253 97.962756 
L 150.168216 97.962756 
z
" style="fill:#1f77b4;"/>
   </g>
   <g id="patch_59">
    <path clip-path="url(#pd23036bf09)" d="M 151.783253 273.312 
L 153.398289 273.312 
L 153.398289 99.382588 
L 151.783253 99.382588 
z
" style="fill:#1f77b4;"/>
   </g>
   <g id="patch_60">
    <path clip-path="url(#pd23036bf09)" d="M 153.398289 273.312 
L 155.013326 273.312 
L 155.013326 88.733849 
L 153.398289 88.733849 
z
" style="fill:#1f77b4;"/>
   </g>
   <g id="patch_61">
    <path clip-path="url(#pd23036bf09)" d="M 155.013326 273.312 
L 156.628363 273.312 
L 156.628363 100.092504 
L 155.013326 100.092504 
z
" style="fill:#1f77b4;"/>
   </g>
   <g id="patch_62">
    <path clip-path="url(#pd23036bf09)" d="M 156.628363 273.312 
L 158.243399 273.312 
L 158.243399 83.054521 
L 156.628363 83.054521 
z
" style="fill:#1f77b4;"/>
   </g>
   <g id="patch_63">
    <path clip-path="url(#pd23036bf09)" d="M 158.243399 273.312 
L 159.858436 273.312 
L 159.858436 102.222252 
L 158.243399 102.222252 
z
" style="fill:#1f77b4;"/>
   </g>
   <g id="patch_64">
    <path clip-path="url(#pd23036bf09)" d="M 159.858436 273.312 
L 161.473472 273.312 
L 161.473472 91.573513 
L 159.858436 91.573513 
z
" style="fill:#1f77b4;"/>
   </g>
   <g id="patch_65">
    <path clip-path="url(#pd23036bf09)" d="M 161.473472 273.312 
L 163.088509 273.312 
L 163.088509 91.573513 
L 161.473472 91.573513 
z
" style="fill:#1f77b4;"/>
   </g>
   <g id="patch_66">
    <path clip-path="url(#pd23036bf09)" d="M 163.088509 273.312 
L 164.703546 273.312 
L 164.703546 94.413176 
L 163.088509 94.413176 
z
" style="fill:#1f77b4;"/>
   </g>
   <g id="patch_67">
    <path clip-path="url(#pd23036bf09)" d="M 164.703546 273.312 
L 166.318582 273.312 
L 166.318582 105.771832 
L 164.703546 105.771832 
z
" style="fill:#1f77b4;"/>
   </g>
   <g id="patch_68">
    <path clip-path="url(#pd23036bf09)" d="M 166.318582 273.312 
L 167.933619 273.312 
L 167.933619 51.818218 
L 166.318582 51.818218 
z
" style="fill:#1f77b4;"/>
   </g>
   <g id="patch_69">
    <path clip-path="url(#pd23036bf09)" d="M 167.933619 273.312 
L 169.548656 273.312 
L 169.548656 88.733849 
L 167.933619 88.733849 
z
" style="fill:#1f77b4;"/>
   </g>
   <g id="patch_70">
    <path clip-path="url(#pd23036bf09)" d="M 169.548656 273.312 
L 171.163692 273.312 
L 171.163692 68.146286 
L 169.548656 68.146286 
z
" style="fill:#1f77b4;"/>
   </g>
   <g id="patch_71">
    <path clip-path="url(#pd23036bf09)" d="M 171.163692 273.312 
L 172.778729 273.312 
L 172.778729 72.405782 
L 171.163692 72.405782 
z
" style="fill:#1f77b4;"/>
   </g>
   <g id="patch_72">
    <path clip-path="url(#pd23036bf09)" d="M 172.778729 273.312 
L 174.393766 273.312 
L 174.393766 67.43637 
L 172.778729 67.43637 
z
" style="fill:#1f77b4;"/>
   </g>
   <g id="patch_73">
    <path clip-path="url(#pd23036bf09)" d="M 174.393766 273.312 
L 176.008802 273.312 
L 176.008802 66.016538 
L 174.393766 66.016538 
z
" style="fill:#1f77b4;"/>
   </g>
   <g id="patch_74">
    <path clip-path="url(#pd23036bf09)" d="M 176.008802 273.312 
L 177.623839 273.312 
L 177.623839 78.795025 
L 176.008802 78.795025 
z
" style="fill:#1f77b4;"/>
   </g>
   <g id="patch_75">
    <path clip-path="url(#pd23036bf09)" d="M 177.623839 273.312 
L 179.238875 273.312 
L 179.238875 73.825613 
L 177.623839 73.825613 
z
" style="fill:#1f77b4;"/>
   </g>
   <g id="patch_76">
    <path clip-path="url(#pd23036bf09)" d="M 179.238875 273.312 
L 180.853912 273.312 
L 180.853912 41.879395 
L 179.238875 41.879395 
z
" style="fill:#1f77b4;"/>
   </g>
   <g id="patch_77">
    <path clip-path="url(#pd23036bf09)" d="M 180.853912 273.312 
L 182.468949 273.312 
L 182.468949 68.856202 
L 180.853912 68.856202 
z
" style="fill:#1f77b4;"/>
   </g>
   <g id="patch_78">
    <path clip-path="url(#pd23036bf09)" d="M 182.468949 273.312 
L 184.083985 273.312 
L 184.083985 72.405782 
L 182.468949 72.405782 
z
" style="fill:#1f77b4;"/>
   </g>
   <g id="patch_79">
    <path clip-path="url(#pd23036bf09)" d="M 184.083985 273.312 
L 185.699022 273.312 
L 185.699022 101.512336 
L 184.083985 101.512336 
z
" style="fill:#1f77b4;"/>
   </g>
   <g id="patch_80">
    <path clip-path="url(#pd23036bf09)" d="M 185.699022 273.312 
L 187.314059 273.312 
L 187.314059 79.504941 
L 185.699022 79.504941 
z
" style="fill:#1f77b4;"/>
   </g>
   <g id="patch_81">
    <path clip-path="url(#pd23036bf09)" d="M 187.314059 273.312 
L 188.929095 273.312 
L 188.929095 71.695866 
L 187.314059 71.695866 
z
" style="fill:#1f77b4;"/>
   </g>
   <g id="patch_82">
    <path clip-path="url(#pd23036bf09)" d="M 188.929095 273.312 
L 190.544132 273.312 
L 190.544132 58.207462 
L 188.929095 58.207462 
z
" style="fill:#1f77b4;"/>
   </g>
   <g id="patch_83">
    <path clip-path="url(#pd23036bf09)" d="M 190.544132 273.312 
L 192.159169 273.312 
L 192.159169 36.909983 
L 190.544132 36.909983 
z
" style="fill:#1f77b4;"/>
   </g>
   <g id="patch_84">
    <path clip-path="url(#pd23036bf09)" d="M 192.159169 273.312 
L 193.774205 273.312 
L 193.774205 48.978555 
L 192.159169 48.978555 
z
" style="fill:#1f77b4;"/>
   </g>
   <g id="patch_85">
    <path clip-path="url(#pd23036bf09)" d="M 193.774205 273.312 
L 195.389242 273.312 
L 195.389242 67.43637 
L 193.774205 67.43637 
z
" style="fill:#1f77b4;"/>
   </g>
   <g id="patch_86">
    <path clip-path="url(#pd23036bf09)" d="M 195.389242 273.312 
L 197.004279 273.312 
L 197.004279 52.528134 
L 195.389242 52.528134 
z
" style="fill:#1f77b4;"/>
   </g>
   <g id="patch_87">
    <path clip-path="url(#pd23036bf09)" d="M 197.004279 273.312 
L 198.619315 273.312 
L 198.619315 44.009143 
L 197.004279 44.009143 
z
" style="fill:#1f77b4;"/>
   </g>
   <g id="patch_88">
    <path clip-path="url(#pd23036bf09)" d="M 198.619315 273.312 
L 200.234352 273.312 
L 200.234352 53.947966 
L 198.619315 53.947966 
z
" style="fill:#1f77b4;"/>
   </g>
   <g id="patch_89">
    <path clip-path="url(#pd23036bf09)" d="M 200.234352 273.312 
L 201.849388 273.312 
L 201.849388 71.695866 
L 200.234352 71.695866 
z
" style="fill:#1f77b4;"/>
   </g>
   <g id="patch_90">
    <path clip-path="url(#pd23036bf09)" d="M 201.849388 273.312 
L 203.464425 273.312 
L 203.464425 64.596706 
L 201.849388 64.596706 
z
" style="fill:#1f77b4;"/>
   </g>
   <g id="patch_91">
    <path clip-path="url(#pd23036bf09)" d="M 203.464425 273.312 
L 205.079462 273.312 
L 205.079462 51.108303 
L 203.464425 51.108303 
z
" style="fill:#1f77b4;"/>
   </g>
   <g id="patch_92">
    <path clip-path="url(#pd23036bf09)" d="M 205.079462 273.312 
L 206.694498 273.312 
L 206.694498 52.528134 
L 205.079462 52.528134 
z
" style="fill:#1f77b4;"/>
   </g>
   <g id="patch_93">
    <path clip-path="url(#pd23036bf09)" d="M 206.694498 273.312 
L 208.309535 273.312 
L 208.309535 58.917378 
L 206.694498 58.917378 
z
" style="fill:#1f77b4;"/>
   </g>
   <g id="patch_94">
    <path clip-path="url(#pd23036bf09)" d="M 208.309535 273.312 
L 209.924572 273.312 
L 209.924572 49.688471 
L 208.309535 49.688471 
z
" style="fill:#1f77b4;"/>
   </g>
   <g id="patch_95">
    <path clip-path="url(#pd23036bf09)" d="M 209.924572 273.312 
L 211.539608 273.312 
L 211.539608 68.856202 
L 209.924572 68.856202 
z
" style="fill:#1f77b4;"/>
   </g>
   <g id="patch_96">
    <path clip-path="url(#pd23036bf09)" d="M 211.539608 273.312 
L 213.154645 273.312 
L 213.154645 36.909983 
L 211.539608 36.909983 
z
" style="fill:#1f77b4;"/>
   </g>
   <g id="patch_97">
    <path clip-path="url(#pd23036bf09)" d="M 213.154645 273.312 
L 214.769682 273.312 
L 214.769682 41.169479 
L 213.154645 41.169479 
z
" style="fill:#1f77b4;"/>
   </g>
   <g id="patch_98">
    <path clip-path="url(#pd23036bf09)" d="M 214.769682 273.312 
L 216.384718 273.312 
L 216.384718 65.306622 
L 214.769682 65.306622 
z
" style="fill:#1f77b4;"/>
   </g>
   <g id="patch_99">
    <path clip-path="url(#pd23036bf09)" d="M 216.384718 273.312 
L 217.999755 273.312 
L 217.999755 52.528134 
L 216.384718 52.528134 
z
" style="fill:#1f77b4;"/>
   </g>
   <g id="patch_100">
    <path clip-path="url(#pd23036bf09)" d="M 217.999755 273.312 
L 219.614791 273.312 
L 219.614791 62.466958 
L 217.999755 62.466958 
z
" style="fill:#1f77b4;"/>
   </g>
   <g id="patch_101">
    <path clip-path="url(#pd23036bf09)" d="M 219.614791 273.312 
L 221.229828 273.312 
L 221.229828 64.596706 
L 219.614791 64.596706 
z
" style="fill:#1f77b4;"/>
   </g>
   <g id="patch_102">
    <path clip-path="url(#pd23036bf09)" d="M 221.229828 273.312 
L 222.844865 273.312 
L 222.844865 56.78763 
L 221.229828 56.78763 
z
" style="fill:#1f77b4;"/>
   </g>
   <g id="patch_103">
    <path clip-path="url(#pd23036bf09)" d="M 222.844865 273.312 
L 224.459901 273.312 
L 224.459901 48.268639 
L 222.844865 48.268639 
z
" style="fill:#1f77b4;"/>
   </g>
   <g id="patch_104">
    <path clip-path="url(#pd23036bf09)" d="M 224.459901 273.312 
L 226.074938 273.312 
L 226.074938 19.872 
L 224.459901 19.872 
z
" style="fill:#1f77b4;"/>
   </g>
   <g id="patch_105">
    <path clip-path="url(#pd23036bf09)" d="M 226.074938 273.312 
L 227.689975 273.312 
L 227.689975 61.757042 
L 226.074938 61.757042 
z
" style="fill:#1f77b4;"/>
   </g>
   <g id="patch_106">
    <path clip-path="url(#pd23036bf09)" d="M 227.689975 273.312 
L 229.305011 273.312 
L 229.305011 68.856202 
L 227.689975 68.856202 
z
" style="fill:#1f77b4;"/>
   </g>
   <g id="patch_107">
    <path clip-path="url(#pd23036bf09)" d="M 229.305011 273.312 
L 230.920048 273.312 
L 230.920048 41.169479 
L 229.305011 41.169479 
z
" style="fill:#1f77b4;"/>
   </g>
   <g id="patch_108">
    <path clip-path="url(#pd23036bf09)" d="M 230.920048 273.312 
L 232.535085 273.312 
L 232.535085 51.818218 
L 230.920048 51.818218 
z
" style="fill:#1f77b4;"/>
   </g>
   <g id="patch_109">
    <path clip-path="url(#pd23036bf09)" d="M 232.535085 273.312 
L 234.150121 273.312 
L 234.150121 77.375193 
L 232.535085 77.375193 
z
" style="fill:#1f77b4;"/>
   </g>
   <g id="patch_110">
    <path clip-path="url(#pd23036bf09)" d="M 234.150121 273.312 
L 235.765158 273.312 
L 235.765158 59.627294 
L 234.150121 59.627294 
z
" style="fill:#1f77b4;"/>
   </g>
   <g id="patch_111">
    <path clip-path="url(#pd23036bf09)" d="M 235.765158 273.312 
L 237.380195 273.312 
L 237.380195 66.726454 
L 235.765158 66.726454 
z
" style="fill:#1f77b4;"/>
   </g>
   <g id="patch_112">
    <path clip-path="url(#pd23036bf09)" d="M 237.380195 273.312 
L 238.995231 273.312 
L 238.995231 45.428975 
L 237.380195 45.428975 
z
" style="fill:#1f77b4;"/>
   </g>
   <g id="patch_113">
    <path clip-path="url(#pd23036bf09)" d="M 238.995231 273.312 
L 240.610268 273.312 
L 240.610268 66.016538 
L 238.995231 66.016538 
z
" style="fill:#1f77b4;"/>
   </g>
   <g id="patch_114">
    <path clip-path="url(#pd23036bf09)" d="M 240.610268 273.312 
L 242.225304 273.312 
L 242.225304 42.589311 
L 240.610268 42.589311 
z
" style="fill:#1f77b4;"/>
   </g>
   <g id="patch_115">
    <path clip-path="url(#pd23036bf09)" d="M 242.225304 273.312 
L 243.840341 273.312 
L 243.840341 40.459563 
L 242.225304 40.459563 
z
" style="fill:#1f77b4;"/>
   </g>
   <g id="patch_116">
    <path clip-path="url(#pd23036bf09)" d="M 243.840341 273.312 
L 245.455378 273.312 
L 245.455378 45.428975 
L 243.840341 45.428975 
z
" style="fill:#1f77b4;"/>
   </g>
   <g id="patch_117">
    <path clip-path="url(#pd23036bf09)" d="M 245.455378 273.312 
L 247.070414 273.312 
L 247.070414 49.688471 
L 245.455378 49.688471 
z
" style="fill:#1f77b4;"/>
   </g>
   <g id="patch_118">
    <path clip-path="url(#pd23036bf09)" d="M 247.070414 273.312 
L 248.685451 273.312 
L 248.685451 51.818218 
L 247.070414 51.818218 
z
" style="fill:#1f77b4;"/>
   </g>
   <g id="patch_119">
    <path clip-path="url(#pd23036bf09)" d="M 248.685451 273.312 
L 250.300488 273.312 
L 250.300488 36.909983 
L 248.685451 36.909983 
z
" style="fill:#1f77b4;"/>
   </g>
   <g id="patch_120">
    <path clip-path="url(#pd23036bf09)" d="M 250.300488 273.312 
L 251.915524 273.312 
L 251.915524 59.627294 
L 250.300488 59.627294 
z
" style="fill:#1f77b4;"/>
   </g>
   <g id="patch_121">
    <path clip-path="url(#pd23036bf09)" d="M 251.915524 273.312 
L 253.530561 273.312 
L 253.530561 41.879395 
L 251.915524 41.879395 
z
" style="fill:#1f77b4;"/>
   </g>
   <g id="patch_122">
    <path clip-path="url(#pd23036bf09)" d="M 253.530561 273.312 
L 255.145598 273.312 
L 255.145598 61.047126 
L 253.530561 61.047126 
z
" style="fill:#1f77b4;"/>
   </g>
   <g id="patch_123">
    <path clip-path="url(#pd23036bf09)" d="M 255.145598 273.312 
L 256.760634 273.312 
L 256.760634 66.726454 
L 255.145598 66.726454 
z
" style="fill:#1f77b4;"/>
   </g>
   <g id="patch_124">
    <path clip-path="url(#pd23036bf09)" d="M 256.760634 273.312 
L 258.375671 273.312 
L 258.375671 55.367798 
L 256.760634 55.367798 
z
" style="fill:#1f77b4;"/>
   </g>
   <g id="patch_125">
    <path clip-path="url(#pd23036bf09)" d="M 258.375671 273.312 
L 259.990707 273.312 
L 259.990707 82.344605 
L 258.375671 82.344605 
z
" style="fill:#1f77b4;"/>
   </g>
   <g id="patch_126">
    <path clip-path="url(#pd23036bf09)" d="M 259.990707 273.312 
L 261.605744 273.312 
L 261.605744 67.43637 
L 259.990707 67.43637 
z
" style="fill:#1f77b4;"/>
   </g>
   <g id="patch_127">
    <path clip-path="url(#pd23036bf09)" d="M 261.605744 273.312 
L 263.220781 273.312 
L 263.220781 58.917378 
L 261.605744 58.917378 
z
" style="fill:#1f77b4;"/>
   </g>
   <g id="patch_128">
    <path clip-path="url(#pd23036bf09)" d="M 263.220781 273.312 
L 264.835817 273.312 
L 264.835817 72.405782 
L 263.220781 72.405782 
z
" style="fill:#1f77b4;"/>
   </g>
   <g id="patch_129">
    <path clip-path="url(#pd23036bf09)" d="M 264.835817 273.312 
L 266.450854 273.312 
L 266.450854 64.596706 
L 264.835817 64.596706 
z
" style="fill:#1f77b4;"/>
   </g>
   <g id="patch_130">
    <path clip-path="url(#pd23036bf09)" d="M 266.450854 273.312 
L 268.065891 273.312 
L 268.065891 61.757042 
L 266.450854 61.757042 
z
" style="fill:#1f77b4;"/>
   </g>
   <g id="patch_131">
    <path clip-path="url(#pd23036bf09)" d="M 268.065891 273.312 
L 269.680927 273.312 
L 269.680927 65.306622 
L 268.065891 65.306622 
z
" style="fill:#1f77b4;"/>
   </g>
   <g id="patch_132">
    <path clip-path="url(#pd23036bf09)" d="M 269.680927 273.312 
L 271.295964 273.312 
L 271.295964 80.214857 
L 269.680927 80.214857 
z
" style="fill:#1f77b4;"/>
   </g>
   <g id="patch_133">
    <path clip-path="url(#pd23036bf09)" d="M 271.295964 273.312 
L 272.911001 273.312 
L 272.911001 80.924773 
L 271.295964 80.924773 
z
" style="fill:#1f77b4;"/>
   </g>
   <g id="patch_134">
    <path clip-path="url(#pd23036bf09)" d="M 272.911001 273.312 
L 274.526037 273.312 
L 274.526037 102.222252 
L 272.911001 102.222252 
z
" style="fill:#1f77b4;"/>
   </g>
   <g id="patch_135">
    <path clip-path="url(#pd23036bf09)" d="M 274.526037 273.312 
L 276.141074 273.312 
L 276.141074 68.146286 
L 274.526037 68.146286 
z
" style="fill:#1f77b4;"/>
   </g>
   <g id="patch_136">
    <path clip-path="url(#pd23036bf09)" d="M 276.141074 273.312 
L 277.75611 273.312 
L 277.75611 84.474353 
L 276.141074 84.474353 
z
" style="fill:#1f77b4;"/>
   </g>
   <g id="patch_137">
    <path clip-path="url(#pd23036bf09)" d="M 277.75611 273.312 
L 279.371147 273.312 
L 279.371147 78.085109 
L 277.75611 78.085109 
z
" style="fill:#1f77b4;"/>
   </g>
   <g id="patch_138">
    <path clip-path="url(#pd23036bf09)" d="M 279.371147 273.312 
L 280.986184 273.312 
L 280.986184 85.894185 
L 279.371147 85.894185 
z
" style="fill:#1f77b4;"/>
   </g>
   <g id="patch_139">
    <path clip-path="url(#pd23036bf09)" d="M 280.986184 273.312 
L 282.60122 273.312 
L 282.60122 90.153681 
L 280.986184 90.153681 
z
" style="fill:#1f77b4;"/>
   </g>
   <g id="patch_140">
    <path clip-path="url(#pd23036bf09)" d="M 282.60122 273.312 
L 284.216257 273.312 
L 284.216257 83.764437 
L 282.60122 83.764437 
z
" style="fill:#1f77b4;"/>
   </g>
   <g id="patch_141">
    <path clip-path="url(#pd23036bf09)" d="M 284.216257 273.312 
L 285.831294 273.312 
L 285.831294 90.863597 
L 284.216257 90.863597 
z
" style="fill:#1f77b4;"/>
   </g>
   <g id="patch_142">
    <path clip-path="url(#pd23036bf09)" d="M 285.831294 273.312 
L 287.44633 273.312 
L 287.44633 88.733849 
L 285.831294 88.733849 
z
" style="fill:#1f77b4;"/>
   </g>
   <g id="patch_143">
    <path clip-path="url(#pd23036bf09)" d="M 287.44633 273.312 
L 289.061367 273.312 
L 289.061367 104.352 
L 287.44633 104.352 
z
" style="fill:#1f77b4;"/>
   </g>
   <g id="patch_144">
    <path clip-path="url(#pd23036bf09)" d="M 289.061367 273.312 
L 290.676404 273.312 
L 290.676404 106.481748 
L 289.061367 106.481748 
z
" style="fill:#1f77b4;"/>
   </g>
   <g id="patch_145">
    <path clip-path="url(#pd23036bf09)" d="M 290.676404 273.312 
L 292.29144 273.312 
L 292.29144 95.833008 
L 290.676404 95.833008 
z
" style="fill:#1f77b4;"/>
   </g>
   <g id="patch_146">
    <path clip-path="url(#pd23036bf09)" d="M 292.29144 273.312 
L 293.906477 273.312 
L 293.906477 88.733849 
L 292.29144 88.733849 
z
" style="fill:#1f77b4;"/>
   </g>
   <g id="patch_147">
    <path clip-path="url(#pd23036bf09)" d="M 293.906477 273.312 
L 295.521514 273.312 
L 295.521514 129.199059 
L 293.906477 129.199059 
z
" style="fill:#1f77b4;"/>
   </g>
   <g id="patch_148">
    <path clip-path="url(#pd23036bf09)" d="M 295.521514 273.312 
L 297.13655 273.312 
L 297.13655 101.512336 
L 295.521514 101.512336 
z
" style="fill:#1f77b4;"/>
   </g>
   <g id="patch_149">
    <path clip-path="url(#pd23036bf09)" d="M 297.13655 273.312 
L 298.751587 273.312 
L 298.751587 107.191664 
L 297.13655 107.191664 
z
" style="fill:#1f77b4;"/>
   </g>
   <g id="patch_150">
    <path clip-path="url(#pd23036bf09)" d="M 298.751587 273.312 
L 300.366623 273.312 
L 300.366623 100.80242 
L 298.751587 100.80242 
z
" style="fill:#1f77b4;"/>
   </g>
   <g id="patch_151">
    <path clip-path="url(#pd23036bf09)" d="M 300.366623 273.312 
L 301.98166 273.312 
L 301.98166 125.649479 
L 300.366623 125.649479 
z
" style="fill:#1f77b4;"/>
   </g>
   <g id="patch_152">
    <path clip-path="url(#pd23036bf09)" d="M 301.98166 273.312 
L 303.596697 273.312 
L 303.596697 102.222252 
L 301.98166 102.222252 
z
" style="fill:#1f77b4;"/>
   </g>
   <g id="patch_153">
    <path clip-path="url(#pd23036bf09)" d="M 303.596697 273.312 
L 305.211733 273.312 
L 305.211733 118.550319 
L 303.596697 118.550319 
z
" style="fill:#1f77b4;"/>
   </g>
   <g id="patch_154">
    <path clip-path="url(#pd23036bf09)" d="M 305.211733 273.312 
L 306.82677 273.312 
L 306.82677 117.840403 
L 305.211733 117.840403 
z
" style="fill:#1f77b4;"/>
   </g>
   <g id="patch_155">
    <path clip-path="url(#pd23036bf09)" d="M 306.82677 273.312 
L 308.441807 273.312 
L 308.441807 116.420571 
L 306.82677 116.420571 
z
" style="fill:#1f77b4;"/>
   </g>
   <g id="patch_156">
    <path clip-path="url(#pd23036bf09)" d="M 308.441807 273.312 
L 310.056843 273.312 
L 310.056843 119.260235 
L 308.441807 119.260235 
z
" style="fill:#1f77b4;"/>
   </g>
   <g id="patch_157">
    <path clip-path="url(#pd23036bf09)" d="M 310.056843 273.312 
L 311.67188 273.312 
L 311.67188 127.779227 
L 310.056843 127.779227 
z
" style="fill:#1f77b4;"/>
   </g>
   <g id="patch_158">
    <path clip-path="url(#pd23036bf09)" d="M 311.67188 273.312 
L 313.286917 273.312 
L 313.286917 119.260235 
L 311.67188 119.260235 
z
" style="fill:#1f77b4;"/>
   </g>
   <g id="patch_159">
    <path clip-path="url(#pd23036bf09)" d="M 313.286917 273.312 
L 314.901953 273.312 
L 314.901953 123.519731 
L 313.286917 123.519731 
z
" style="fill:#1f77b4;"/>
   </g>
   <g id="patch_160">
    <path clip-path="url(#pd23036bf09)" d="M 314.901953 273.312 
L 316.51699 273.312 
L 316.51699 138.427966 
L 314.901953 138.427966 
z
" style="fill:#1f77b4;"/>
   </g>
   <g id="patch_161">
    <path clip-path="url(#pd23036bf09)" d="M 316.51699 273.312 
L 318.132026 273.312 
L 318.132026 135.588303 
L 316.51699 135.588303 
z
" style="fill:#1f77b4;"/>
   </g>
   <g id="patch_162">
    <path clip-path="url(#pd23036bf09)" d="M 318.132026 273.312 
L 319.747063 273.312 
L 319.747063 134.168471 
L 318.132026 134.168471 
z
" style="fill:#1f77b4;"/>
   </g>
   <g id="patch_163">
    <path clip-path="url(#pd23036bf09)" d="M 319.747063 273.312 
L 321.3621 273.312 
L 321.3621 158.305613 
L 319.747063 158.305613 
z
" style="fill:#1f77b4;"/>
   </g>
   <g id="patch_164">
    <path clip-path="url(#pd23036bf09)" d="M 321.3621 273.312 
L 322.977136 273.312 
L 322.977136 139.137882 
L 321.3621 139.137882 
z
" style="fill:#1f77b4;"/>
   </g>
   <g id="patch_165">
    <path clip-path="url(#pd23036bf09)" d="M 322.977136 273.312 
L 324.592173 273.312 
L 324.592173 150.496538 
L 322.977136 150.496538 
z
" style="fill:#1f77b4;"/>
   </g>
   <g id="patch_166">
    <path clip-path="url(#pd23036bf09)" d="M 324.592173 273.312 
L 326.20721 273.312 
L 326.20721 153.336202 
L 324.592173 153.336202 
z
" style="fill:#1f77b4;"/>
   </g>
   <g id="patch_167">
    <path clip-path="url(#pd23036bf09)" d="M 326.20721 273.312 
L 327.822246 273.312 
L 327.822246 176.053513 
L 326.20721 176.053513 
z
" style="fill:#1f77b4;"/>
   </g>
   <g id="patch_168">
    <path clip-path="url(#pd23036bf09)" d="M 327.822246 273.312 
L 329.437283 273.312 
L 329.437283 166.824605 
L 327.822246 166.824605 
z
" style="fill:#1f77b4;"/>
   </g>
   <g id="patch_169">
    <path clip-path="url(#pd23036bf09)" d="M 329.437283 273.312 
L 331.05232 273.312 
L 331.05232 170.374185 
L 329.437283 170.374185 
z
" style="fill:#1f77b4;"/>
   </g>
   <g id="patch_170">
    <path clip-path="url(#pd23036bf09)" d="M 331.05232 273.312 
L 332.667356 273.312 
L 332.667356 161.145277 
L 331.05232 161.145277 
z
" style="fill:#1f77b4;"/>
   </g>
   <g id="patch_171">
    <path clip-path="url(#pd23036bf09)" d="M 332.667356 273.312 
L 334.282393 273.312 
L 334.282393 167.534521 
L 332.667356 167.534521 
z
" style="fill:#1f77b4;"/>
   </g>
   <g id="patch_172">
    <path clip-path="url(#pd23036bf09)" d="M 334.282393 273.312 
L 335.89743 273.312 
L 335.89743 172.503933 
L 334.282393 172.503933 
z
" style="fill:#1f77b4;"/>
   </g>
   <g id="patch_173">
    <path clip-path="url(#pd23036bf09)" d="M 335.89743 273.312 
L 337.512466 273.312 
L 337.512466 183.152672 
L 335.89743 183.152672 
z
" style="fill:#1f77b4;"/>
   </g>
   <g id="patch_174">
    <path clip-path="url(#pd23036bf09)" d="M 337.512466 273.312 
L 339.127503 273.312 
L 339.127503 186.702252 
L 337.512466 186.702252 
z
" style="fill:#1f77b4;"/>
   </g>
   <g id="patch_175">
    <path clip-path="url(#pd23036bf09)" d="M 339.127503 273.312 
L 340.742539 273.312 
L 340.742539 177.473345 
L 339.127503 177.473345 
z
" style="fill:#1f77b4;"/>
   </g>
   <g id="patch_176">
    <path clip-path="url(#pd23036bf09)" d="M 340.742539 273.312 
L 342.357576 273.312 
L 342.357576 188.832 
L 340.742539 188.832 
z
" style="fill:#1f77b4;"/>
   </g>
   <g id="patch_177">
    <path clip-path="url(#pd23036bf09)" d="M 342.357576 273.312 
L 343.972613 273.312 
L 343.972613 195.221244 
L 342.357576 195.221244 
z
" style="fill:#1f77b4;"/>
   </g>
   <g id="patch_178">
    <path clip-path="url(#pd23036bf09)" d="M 343.972613 273.312 
L 345.587649 273.312 
L 345.587649 195.93116 
L 343.972613 195.93116 
z
" style="fill:#1f77b4;"/>
   </g>
   <g id="patch_179">
    <path clip-path="url(#pd23036bf09)" d="M 345.587649 273.312 
L 347.202686 273.312 
L 347.202686 198.770824 
L 345.587649 198.770824 
z
" style="fill:#1f77b4;"/>
   </g>
   <g id="patch_180">
    <path clip-path="url(#pd23036bf09)" d="M 347.202686 273.312 
L 348.817723 273.312 
L 348.817723 202.320403 
L 347.202686 202.320403 
z
" style="fill:#1f77b4;"/>
   </g>
   <g id="patch_181">
    <path clip-path="url(#pd23036bf09)" d="M 348.817723 273.312 
L 350.432759 273.312 
L 350.432759 201.610487 
L 348.817723 201.610487 
z
" style="fill:#1f77b4;"/>
   </g>
   <g id="patch_182">
    <path clip-path="url(#pd23036bf09)" d="M 350.432759 273.312 
L 352.047796 273.312 
L 352.047796 210.839395 
L 350.432759 210.839395 
z
" style="fill:#1f77b4;"/>
   </g>
   <g id="patch_183">
    <path clip-path="url(#pd23036bf09)" d="M 352.047796 273.312 
L 353.662833 273.312 
L 353.662833 200.190655 
L 352.047796 200.190655 
z
" style="fill:#1f77b4;"/>
   </g>
   <g id="patch_184">
    <path clip-path="url(#pd23036bf09)" d="M 353.662833 273.312 
L 355.277869 273.312 
L 355.277869 202.320403 
L 353.662833 202.320403 
z
" style="fill:#1f77b4;"/>
   </g>
   <g id="patch_185">
    <path clip-path="url(#pd23036bf09)" d="M 355.277869 273.312 
L 356.892906 273.312 
L 356.892906 199.480739 
L 355.277869 199.480739 
z
" style="fill:#1f77b4;"/>
   </g>
   <g id="patch_186">
    <path clip-path="url(#pd23036bf09)" d="M 356.892906 273.312 
L 358.507942 273.312 
L 358.507942 221.488134 
L 356.892906 221.488134 
z
" style="fill:#1f77b4;"/>
   </g>
   <g id="patch_187">
    <path clip-path="url(#pd23036bf09)" d="M 358.507942 273.312 
L 360.122979 273.312 
L 360.122979 217.228639 
L 358.507942 217.228639 
z
" style="fill:#1f77b4;"/>
   </g>
   <g id="patch_188">
    <path clip-path="url(#pd23036bf09)" d="M 360.122979 273.312 
L 361.738016 273.312 
L 361.738016 232.136874 
L 360.122979 232.136874 
z
" style="fill:#1f77b4;"/>
   </g>
   <g id="patch_189">
    <path clip-path="url(#pd23036bf09)" d="M 361.738016 273.312 
L 363.353052 273.312 
L 363.353052 217.228639 
L 361.738016 217.228639 
z
" style="fill:#1f77b4;"/>
   </g>
   <g id="patch_190">
    <path clip-path="url(#pd23036bf09)" d="M 363.353052 273.312 
L 364.968089 273.312 
L 364.968089 231.426958 
L 363.353052 231.426958 
z
" style="fill:#1f77b4;"/>
   </g>
   <g id="patch_191">
    <path clip-path="url(#pd23036bf09)" d="M 364.968089 273.312 
L 366.583126 273.312 
L 366.583126 232.84679 
L 364.968089 232.84679 
z
" style="fill:#1f77b4;"/>
   </g>
   <g id="patch_192">
    <path clip-path="url(#pd23036bf09)" d="M 366.583126 273.312 
L 368.198162 273.312 
L 368.198162 237.816202 
L 366.583126 237.816202 
z
" style="fill:#1f77b4;"/>
   </g>
   <g id="patch_193">
    <path clip-path="url(#pd23036bf09)" d="M 368.198162 273.312 
L 369.813199 273.312 
L 369.813199 233.556706 
L 368.198162 233.556706 
z
" style="fill:#1f77b4;"/>
   </g>
   <g id="patch_194">
    <path clip-path="url(#pd23036bf09)" d="M 369.813199 273.312 
L 371.428236 273.312 
L 371.428236 249.174857 
L 369.813199 249.174857 
z
" style="fill:#1f77b4;"/>
   </g>
   <g id="patch_195">
    <path clip-path="url(#pd23036bf09)" d="M 371.428236 273.312 
L 373.043272 273.312 
L 373.043272 250.594689 
L 371.428236 250.594689 
z
" style="fill:#1f77b4;"/>
   </g>
   <g id="patch_196">
    <path clip-path="url(#pd23036bf09)" d="M 373.043272 273.312 
L 374.658309 273.312 
L 374.658309 250.594689 
L 373.043272 250.594689 
z
" style="fill:#1f77b4;"/>
   </g>
   <g id="patch_197">
    <path clip-path="url(#pd23036bf09)" d="M 374.658309 273.312 
L 376.273345 273.312 
L 376.273345 259.113681 
L 374.658309 259.113681 
z
" style="fill:#1f77b4;"/>
   </g>
   <g id="patch_198">
    <path clip-path="url(#pd23036bf09)" d="M 376.273345 273.312 
L 377.888382 273.312 
L 377.888382 256.983933 
L 376.273345 256.983933 
z
" style="fill:#1f77b4;"/>
   </g>
   <g id="patch_199">
    <path clip-path="url(#pd23036bf09)" d="M 377.888382 273.312 
L 379.503419 273.312 
L 379.503419 261.953345 
L 377.888382 261.953345 
z
" style="fill:#1f77b4;"/>
   </g>
   <g id="patch_200">
    <path clip-path="url(#pd23036bf09)" d="M 379.503419 273.312 
L 381.118455 273.312 
L 381.118455 262.663261 
L 379.503419 262.663261 
z
" style="fill:#1f77b4;"/>
   </g>
   <g id="patch_201">
    <path clip-path="url(#pd23036bf09)" d="M 381.118455 273.312 
L 382.733492 273.312 
L 382.733492 266.922756 
L 381.118455 266.922756 
z
" style="fill:#1f77b4;"/>
   </g>
   <g id="patch_202">
    <path clip-path="url(#pd23036bf09)" d="M 382.733492 273.312 
L 384.348529 273.312 
L 384.348529 271.182252 
L 382.733492 271.182252 
z
" style="fill:#1f77b4;"/>
   </g>
   <g id="matplotlib.axis_1">
    <g id="xtick_1">
     <g id="line2d_1">
      <defs>
       <path d="M 0 0 
L 0 3.5 
" id="maa2ea69e7e" style="stroke:#000000;stroke-width:0.8;"/>
      </defs>
      <g>
       <use style="stroke:#000000;stroke-width:0.8;" x="60.013977" xlink:href="#maa2ea69e7e" y="273.312"/>
      </g>
     </g>
     <g id="text_1">
      <!-- 0.0 -->
      <g transform="translate(52.062415 287.910437)scale(0.1 -0.1)">
       <defs>
        <path d="M 2034 4250 
Q 1547 4250 1301 3770 
Q 1056 3291 1056 2328 
Q 1056 1369 1301 889 
Q 1547 409 2034 409 
Q 2525 409 2770 889 
Q 3016 1369 3016 2328 
Q 3016 3291 2770 3770 
Q 2525 4250 2034 4250 
z
M 2034 4750 
Q 2819 4750 3233 4129 
Q 3647 3509 3647 2328 
Q 3647 1150 3233 529 
Q 2819 -91 2034 -91 
Q 1250 -91 836 529 
Q 422 1150 422 2328 
Q 422 3509 836 4129 
Q 1250 4750 2034 4750 
z
" id="DejaVuSans-30" transform="scale(0.015625)"/>
        <path d="M 684 794 
L 1344 794 
L 1344 0 
L 684 0 
L 684 794 
z
" id="DejaVuSans-2e" transform="scale(0.015625)"/>
       </defs>
       <use xlink:href="#DejaVuSans-30"/>
       <use x="63.623047" xlink:href="#DejaVuSans-2e"/>
       <use x="95.410156" xlink:href="#DejaVuSans-30"/>
      </g>
     </g>
    </g>
    <g id="xtick_2">
     <g id="line2d_2">
      <g>
       <use style="stroke:#000000;stroke-width:0.8;" x="101.350278" xlink:href="#maa2ea69e7e" y="273.312"/>
      </g>
     </g>
     <g id="text_2">
      <!-- 0.2 -->
      <g transform="translate(93.398715 287.910437)scale(0.1 -0.1)">
       <defs>
        <path d="M 1228 531 
L 3431 531 
L 3431 0 
L 469 0 
L 469 531 
Q 828 903 1448 1529 
Q 2069 2156 2228 2338 
Q 2531 2678 2651 2914 
Q 2772 3150 2772 3378 
Q 2772 3750 2511 3984 
Q 2250 4219 1831 4219 
Q 1534 4219 1204 4116 
Q 875 4013 500 3803 
L 500 4441 
Q 881 4594 1212 4672 
Q 1544 4750 1819 4750 
Q 2544 4750 2975 4387 
Q 3406 4025 3406 3419 
Q 3406 3131 3298 2873 
Q 3191 2616 2906 2266 
Q 2828 2175 2409 1742 
Q 1991 1309 1228 531 
z
" id="DejaVuSans-32" transform="scale(0.015625)"/>
       </defs>
       <use xlink:href="#DejaVuSans-30"/>
       <use x="63.623047" xlink:href="#DejaVuSans-2e"/>
       <use x="95.410156" xlink:href="#DejaVuSans-32"/>
      </g>
     </g>
    </g>
    <g id="xtick_3">
     <g id="line2d_3">
      <g>
       <use style="stroke:#000000;stroke-width:0.8;" x="142.686578" xlink:href="#maa2ea69e7e" y="273.312"/>
      </g>
     </g>
     <g id="text_3">
      <!-- 0.4 -->
      <g transform="translate(134.735016 287.910437)scale(0.1 -0.1)">
       <defs>
        <path d="M 2419 4116 
L 825 1625 
L 2419 1625 
L 2419 4116 
z
M 2253 4666 
L 3047 4666 
L 3047 1625 
L 3713 1625 
L 3713 1100 
L 3047 1100 
L 3047 0 
L 2419 0 
L 2419 1100 
L 313 1100 
L 313 1709 
L 2253 4666 
z
" id="DejaVuSans-34" transform="scale(0.015625)"/>
       </defs>
       <use xlink:href="#DejaVuSans-30"/>
       <use x="63.623047" xlink:href="#DejaVuSans-2e"/>
       <use x="95.410156" xlink:href="#DejaVuSans-34"/>
      </g>
     </g>
    </g>
    <g id="xtick_4">
     <g id="line2d_4">
      <g>
       <use style="stroke:#000000;stroke-width:0.8;" x="184.022879" xlink:href="#maa2ea69e7e" y="273.312"/>
      </g>
     </g>
     <g id="text_4">
      <!-- 0.6 -->
      <g transform="translate(176.071316 287.910437)scale(0.1 -0.1)">
       <defs>
        <path d="M 2113 2584 
Q 1688 2584 1439 2293 
Q 1191 2003 1191 1497 
Q 1191 994 1439 701 
Q 1688 409 2113 409 
Q 2538 409 2786 701 
Q 3034 994 3034 1497 
Q 3034 2003 2786 2293 
Q 2538 2584 2113 2584 
z
M 3366 4563 
L 3366 3988 
Q 3128 4100 2886 4159 
Q 2644 4219 2406 4219 
Q 1781 4219 1451 3797 
Q 1122 3375 1075 2522 
Q 1259 2794 1537 2939 
Q 1816 3084 2150 3084 
Q 2853 3084 3261 2657 
Q 3669 2231 3669 1497 
Q 3669 778 3244 343 
Q 2819 -91 2113 -91 
Q 1303 -91 875 529 
Q 447 1150 447 2328 
Q 447 3434 972 4092 
Q 1497 4750 2381 4750 
Q 2619 4750 2861 4703 
Q 3103 4656 3366 4563 
z
" id="DejaVuSans-36" transform="scale(0.015625)"/>
       </defs>
       <use xlink:href="#DejaVuSans-30"/>
       <use x="63.623047" xlink:href="#DejaVuSans-2e"/>
       <use x="95.410156" xlink:href="#DejaVuSans-36"/>
      </g>
     </g>
    </g>
    <g id="xtick_5">
     <g id="line2d_5">
      <g>
       <use style="stroke:#000000;stroke-width:0.8;" x="225.35918" xlink:href="#maa2ea69e7e" y="273.312"/>
      </g>
     </g>
     <g id="text_5">
      <!-- 0.8 -->
      <g transform="translate(217.407617 287.910437)scale(0.1 -0.1)">
       <defs>
        <path d="M 2034 2216 
Q 1584 2216 1326 1975 
Q 1069 1734 1069 1313 
Q 1069 891 1326 650 
Q 1584 409 2034 409 
Q 2484 409 2743 651 
Q 3003 894 3003 1313 
Q 3003 1734 2745 1975 
Q 2488 2216 2034 2216 
z
M 1403 2484 
Q 997 2584 770 2862 
Q 544 3141 544 3541 
Q 544 4100 942 4425 
Q 1341 4750 2034 4750 
Q 2731 4750 3128 4425 
Q 3525 4100 3525 3541 
Q 3525 3141 3298 2862 
Q 3072 2584 2669 2484 
Q 3125 2378 3379 2068 
Q 3634 1759 3634 1313 
Q 3634 634 3220 271 
Q 2806 -91 2034 -91 
Q 1263 -91 848 271 
Q 434 634 434 1313 
Q 434 1759 690 2068 
Q 947 2378 1403 2484 
z
M 1172 3481 
Q 1172 3119 1398 2916 
Q 1625 2713 2034 2713 
Q 2441 2713 2670 2916 
Q 2900 3119 2900 3481 
Q 2900 3844 2670 4047 
Q 2441 4250 2034 4250 
Q 1625 4250 1398 4047 
Q 1172 3844 1172 3481 
z
" id="DejaVuSans-38" transform="scale(0.015625)"/>
       </defs>
       <use xlink:href="#DejaVuSans-30"/>
       <use x="63.623047" xlink:href="#DejaVuSans-2e"/>
       <use x="95.410156" xlink:href="#DejaVuSans-38"/>
      </g>
     </g>
    </g>
    <g id="xtick_6">
     <g id="line2d_6">
      <g>
       <use style="stroke:#000000;stroke-width:0.8;" x="266.69548" xlink:href="#maa2ea69e7e" y="273.312"/>
      </g>
     </g>
     <g id="text_6">
      <!-- 1.0 -->
      <g transform="translate(258.743918 287.910437)scale(0.1 -0.1)">
       <defs>
        <path d="M 794 531 
L 1825 531 
L 1825 4091 
L 703 3866 
L 703 4441 
L 1819 4666 
L 2450 4666 
L 2450 531 
L 3481 531 
L 3481 0 
L 794 0 
L 794 531 
z
" id="DejaVuSans-31" transform="scale(0.015625)"/>
       </defs>
       <use xlink:href="#DejaVuSans-31"/>
       <use x="63.623047" xlink:href="#DejaVuSans-2e"/>
       <use x="95.410156" xlink:href="#DejaVuSans-30"/>
      </g>
     </g>
    </g>
    <g id="xtick_7">
     <g id="line2d_7">
      <g>
       <use style="stroke:#000000;stroke-width:0.8;" x="308.031781" xlink:href="#maa2ea69e7e" y="273.312"/>
      </g>
     </g>
     <g id="text_7">
      <!-- 1.2 -->
      <g transform="translate(300.080218 287.910437)scale(0.1 -0.1)">
       <use xlink:href="#DejaVuSans-31"/>
       <use x="63.623047" xlink:href="#DejaVuSans-2e"/>
       <use x="95.410156" xlink:href="#DejaVuSans-32"/>
      </g>
     </g>
    </g>
    <g id="xtick_8">
     <g id="line2d_8">
      <g>
       <use style="stroke:#000000;stroke-width:0.8;" x="349.368081" xlink:href="#maa2ea69e7e" y="273.312"/>
      </g>
     </g>
     <g id="text_8">
      <!-- 1.4 -->
      <g transform="translate(341.416519 287.910437)scale(0.1 -0.1)">
       <use xlink:href="#DejaVuSans-31"/>
       <use x="63.623047" xlink:href="#DejaVuSans-2e"/>
       <use x="95.410156" xlink:href="#DejaVuSans-34"/>
      </g>
     </g>
    </g>
    <g id="xtick_9">
     <g id="line2d_9">
      <g>
       <use style="stroke:#000000;stroke-width:0.8;" x="390.704382" xlink:href="#maa2ea69e7e" y="273.312"/>
      </g>
     </g>
     <g id="text_9">
      <!-- 1.6 -->
      <g transform="translate(382.752819 287.910437)scale(0.1 -0.1)">
       <use xlink:href="#DejaVuSans-31"/>
       <use x="63.623047" xlink:href="#DejaVuSans-2e"/>
       <use x="95.410156" xlink:href="#DejaVuSans-36"/>
      </g>
     </g>
    </g>
    <g id="text_10">
     <!-- Angle with normal (rad) -->
     <g transform="translate(163.023281 301.588562)scale(0.1 -0.1)">
      <defs>
       <path d="M 2188 4044 
L 1331 1722 
L 3047 1722 
L 2188 4044 
z
M 1831 4666 
L 2547 4666 
L 4325 0 
L 3669 0 
L 3244 1197 
L 1141 1197 
L 716 0 
L 50 0 
L 1831 4666 
z
" id="DejaVuSans-41" transform="scale(0.015625)"/>
       <path d="M 3513 2113 
L 3513 0 
L 2938 0 
L 2938 2094 
Q 2938 2591 2744 2837 
Q 2550 3084 2163 3084 
Q 1697 3084 1428 2787 
Q 1159 2491 1159 1978 
L 1159 0 
L 581 0 
L 581 3500 
L 1159 3500 
L 1159 2956 
Q 1366 3272 1645 3428 
Q 1925 3584 2291 3584 
Q 2894 3584 3203 3211 
Q 3513 2838 3513 2113 
z
" id="DejaVuSans-6e" transform="scale(0.015625)"/>
       <path d="M 2906 1791 
Q 2906 2416 2648 2759 
Q 2391 3103 1925 3103 
Q 1463 3103 1205 2759 
Q 947 2416 947 1791 
Q 947 1169 1205 825 
Q 1463 481 1925 481 
Q 2391 481 2648 825 
Q 2906 1169 2906 1791 
z
M 3481 434 
Q 3481 -459 3084 -895 
Q 2688 -1331 1869 -1331 
Q 1566 -1331 1297 -1286 
Q 1028 -1241 775 -1147 
L 775 -588 
Q 1028 -725 1275 -790 
Q 1522 -856 1778 -856 
Q 2344 -856 2625 -561 
Q 2906 -266 2906 331 
L 2906 616 
Q 2728 306 2450 153 
Q 2172 0 1784 0 
Q 1141 0 747 490 
Q 353 981 353 1791 
Q 353 2603 747 3093 
Q 1141 3584 1784 3584 
Q 2172 3584 2450 3431 
Q 2728 3278 2906 2969 
L 2906 3500 
L 3481 3500 
L 3481 434 
z
" id="DejaVuSans-67" transform="scale(0.015625)"/>
       <path d="M 603 4863 
L 1178 4863 
L 1178 0 
L 603 0 
L 603 4863 
z
" id="DejaVuSans-6c" transform="scale(0.015625)"/>
       <path d="M 3597 1894 
L 3597 1613 
L 953 1613 
Q 991 1019 1311 708 
Q 1631 397 2203 397 
Q 2534 397 2845 478 
Q 3156 559 3463 722 
L 3463 178 
Q 3153 47 2828 -22 
Q 2503 -91 2169 -91 
Q 1331 -91 842 396 
Q 353 884 353 1716 
Q 353 2575 817 3079 
Q 1281 3584 2069 3584 
Q 2775 3584 3186 3129 
Q 3597 2675 3597 1894 
z
M 3022 2063 
Q 3016 2534 2758 2815 
Q 2500 3097 2075 3097 
Q 1594 3097 1305 2825 
Q 1016 2553 972 2059 
L 3022 2063 
z
" id="DejaVuSans-65" transform="scale(0.015625)"/>
       <path id="DejaVuSans-20" transform="scale(0.015625)"/>
       <path d="M 269 3500 
L 844 3500 
L 1563 769 
L 2278 3500 
L 2956 3500 
L 3675 769 
L 4391 3500 
L 4966 3500 
L 4050 0 
L 3372 0 
L 2619 2869 
L 1863 0 
L 1184 0 
L 269 3500 
z
" id="DejaVuSans-77" transform="scale(0.015625)"/>
       <path d="M 603 3500 
L 1178 3500 
L 1178 0 
L 603 0 
L 603 3500 
z
M 603 4863 
L 1178 4863 
L 1178 4134 
L 603 4134 
L 603 4863 
z
" id="DejaVuSans-69" transform="scale(0.015625)"/>
       <path d="M 1172 4494 
L 1172 3500 
L 2356 3500 
L 2356 3053 
L 1172 3053 
L 1172 1153 
Q 1172 725 1289 603 
Q 1406 481 1766 481 
L 2356 481 
L 2356 0 
L 1766 0 
Q 1100 0 847 248 
Q 594 497 594 1153 
L 594 3053 
L 172 3053 
L 172 3500 
L 594 3500 
L 594 4494 
L 1172 4494 
z
" id="DejaVuSans-74" transform="scale(0.015625)"/>
       <path d="M 3513 2113 
L 3513 0 
L 2938 0 
L 2938 2094 
Q 2938 2591 2744 2837 
Q 2550 3084 2163 3084 
Q 1697 3084 1428 2787 
Q 1159 2491 1159 1978 
L 1159 0 
L 581 0 
L 581 4863 
L 1159 4863 
L 1159 2956 
Q 1366 3272 1645 3428 
Q 1925 3584 2291 3584 
Q 2894 3584 3203 3211 
Q 3513 2838 3513 2113 
z
" id="DejaVuSans-68" transform="scale(0.015625)"/>
       <path d="M 1959 3097 
Q 1497 3097 1228 2736 
Q 959 2375 959 1747 
Q 959 1119 1226 758 
Q 1494 397 1959 397 
Q 2419 397 2687 759 
Q 2956 1122 2956 1747 
Q 2956 2369 2687 2733 
Q 2419 3097 1959 3097 
z
M 1959 3584 
Q 2709 3584 3137 3096 
Q 3566 2609 3566 1747 
Q 3566 888 3137 398 
Q 2709 -91 1959 -91 
Q 1206 -91 779 398 
Q 353 888 353 1747 
Q 353 2609 779 3096 
Q 1206 3584 1959 3584 
z
" id="DejaVuSans-6f" transform="scale(0.015625)"/>
       <path d="M 2631 2963 
Q 2534 3019 2420 3045 
Q 2306 3072 2169 3072 
Q 1681 3072 1420 2755 
Q 1159 2438 1159 1844 
L 1159 0 
L 581 0 
L 581 3500 
L 1159 3500 
L 1159 2956 
Q 1341 3275 1631 3429 
Q 1922 3584 2338 3584 
Q 2397 3584 2469 3576 
Q 2541 3569 2628 3553 
L 2631 2963 
z
" id="DejaVuSans-72" transform="scale(0.015625)"/>
       <path d="M 3328 2828 
Q 3544 3216 3844 3400 
Q 4144 3584 4550 3584 
Q 5097 3584 5394 3201 
Q 5691 2819 5691 2113 
L 5691 0 
L 5113 0 
L 5113 2094 
Q 5113 2597 4934 2840 
Q 4756 3084 4391 3084 
Q 3944 3084 3684 2787 
Q 3425 2491 3425 1978 
L 3425 0 
L 2847 0 
L 2847 2094 
Q 2847 2600 2669 2842 
Q 2491 3084 2119 3084 
Q 1678 3084 1418 2786 
Q 1159 2488 1159 1978 
L 1159 0 
L 581 0 
L 581 3500 
L 1159 3500 
L 1159 2956 
Q 1356 3278 1631 3431 
Q 1906 3584 2284 3584 
Q 2666 3584 2933 3390 
Q 3200 3197 3328 2828 
z
" id="DejaVuSans-6d" transform="scale(0.015625)"/>
       <path d="M 2194 1759 
Q 1497 1759 1228 1600 
Q 959 1441 959 1056 
Q 959 750 1161 570 
Q 1363 391 1709 391 
Q 2188 391 2477 730 
Q 2766 1069 2766 1631 
L 2766 1759 
L 2194 1759 
z
M 3341 1997 
L 3341 0 
L 2766 0 
L 2766 531 
Q 2569 213 2275 61 
Q 1981 -91 1556 -91 
Q 1019 -91 701 211 
Q 384 513 384 1019 
Q 384 1609 779 1909 
Q 1175 2209 1959 2209 
L 2766 2209 
L 2766 2266 
Q 2766 2663 2505 2880 
Q 2244 3097 1772 3097 
Q 1472 3097 1187 3025 
Q 903 2953 641 2809 
L 641 3341 
Q 956 3463 1253 3523 
Q 1550 3584 1831 3584 
Q 2591 3584 2966 3190 
Q 3341 2797 3341 1997 
z
" id="DejaVuSans-61" transform="scale(0.015625)"/>
       <path d="M 1984 4856 
Q 1566 4138 1362 3434 
Q 1159 2731 1159 2009 
Q 1159 1288 1364 580 
Q 1569 -128 1984 -844 
L 1484 -844 
Q 1016 -109 783 600 
Q 550 1309 550 2009 
Q 550 2706 781 3412 
Q 1013 4119 1484 4856 
L 1984 4856 
z
" id="DejaVuSans-28" transform="scale(0.015625)"/>
       <path d="M 2906 2969 
L 2906 4863 
L 3481 4863 
L 3481 0 
L 2906 0 
L 2906 525 
Q 2725 213 2448 61 
Q 2172 -91 1784 -91 
Q 1150 -91 751 415 
Q 353 922 353 1747 
Q 353 2572 751 3078 
Q 1150 3584 1784 3584 
Q 2172 3584 2448 3432 
Q 2725 3281 2906 2969 
z
M 947 1747 
Q 947 1113 1208 752 
Q 1469 391 1925 391 
Q 2381 391 2643 752 
Q 2906 1113 2906 1747 
Q 2906 2381 2643 2742 
Q 2381 3103 1925 3103 
Q 1469 3103 1208 2742 
Q 947 2381 947 1747 
z
" id="DejaVuSans-64" transform="scale(0.015625)"/>
       <path d="M 513 4856 
L 1013 4856 
Q 1481 4119 1714 3412 
Q 1947 2706 1947 2009 
Q 1947 1309 1714 600 
Q 1481 -109 1013 -844 
L 513 -844 
Q 928 -128 1133 580 
Q 1338 1288 1338 2009 
Q 1338 2731 1133 3434 
Q 928 4138 513 4856 
z
" id="DejaVuSans-29" transform="scale(0.015625)"/>
      </defs>
      <use xlink:href="#DejaVuSans-41"/>
      <use x="68.408203" xlink:href="#DejaVuSans-6e"/>
      <use x="131.787109" xlink:href="#DejaVuSans-67"/>
      <use x="195.263672" xlink:href="#DejaVuSans-6c"/>
      <use x="223.046875" xlink:href="#DejaVuSans-65"/>
      <use x="284.570312" xlink:href="#DejaVuSans-20"/>
      <use x="316.357422" xlink:href="#DejaVuSans-77"/>
      <use x="398.144531" xlink:href="#DejaVuSans-69"/>
      <use x="425.927734" xlink:href="#DejaVuSans-74"/>
      <use x="465.136719" xlink:href="#DejaVuSans-68"/>
      <use x="528.515625" xlink:href="#DejaVuSans-20"/>
      <use x="560.302734" xlink:href="#DejaVuSans-6e"/>
      <use x="623.681641" xlink:href="#DejaVuSans-6f"/>
      <use x="684.863281" xlink:href="#DejaVuSans-72"/>
      <use x="724.226562" xlink:href="#DejaVuSans-6d"/>
      <use x="821.638672" xlink:href="#DejaVuSans-61"/>
      <use x="882.917969" xlink:href="#DejaVuSans-6c"/>
      <use x="910.701172" xlink:href="#DejaVuSans-20"/>
      <use x="942.488281" xlink:href="#DejaVuSans-28"/>
      <use x="981.501953" xlink:href="#DejaVuSans-72"/>
      <use x="1022.615234" xlink:href="#DejaVuSans-61"/>
      <use x="1083.894531" xlink:href="#DejaVuSans-64"/>
      <use x="1147.371094" xlink:href="#DejaVuSans-29"/>
     </g>
    </g>
   </g>
   <g id="matplotlib.axis_2">
    <g id="ytick_1">
     <g id="line2d_10">
      <defs>
       <path d="M 0 0 
L -3.5 0 
" id="m7128fdef72" style="stroke:#000000;stroke-width:0.8;"/>
      </defs>
      <g>
       <use style="stroke:#000000;stroke-width:0.8;" x="43.78125" xlink:href="#m7128fdef72" y="273.312"/>
      </g>
     </g>
     <g id="text_11">
      <!-- 0.0 -->
      <g transform="translate(20.878125 277.111219)scale(0.1 -0.1)">
       <use xlink:href="#DejaVuSans-30"/>
       <use x="63.623047" xlink:href="#DejaVuSans-2e"/>
       <use x="95.410156" xlink:href="#DejaVuSans-30"/>
      </g>
     </g>
    </g>
    <g id="ytick_2">
     <g id="line2d_11">
      <g>
       <use style="stroke:#000000;stroke-width:0.8;" x="43.78125" xlink:href="#m7128fdef72" y="228.932981"/>
      </g>
     </g>
     <g id="text_12">
      <!-- 0.2 -->
      <g transform="translate(20.878125 232.7322)scale(0.1 -0.1)">
       <use xlink:href="#DejaVuSans-30"/>
       <use x="63.623047" xlink:href="#DejaVuSans-2e"/>
       <use x="95.410156" xlink:href="#DejaVuSans-32"/>
      </g>
     </g>
    </g>
    <g id="ytick_3">
     <g id="line2d_12">
      <g>
       <use style="stroke:#000000;stroke-width:0.8;" x="43.78125" xlink:href="#m7128fdef72" y="184.553962"/>
      </g>
     </g>
     <g id="text_13">
      <!-- 0.4 -->
      <g transform="translate(20.878125 188.35318)scale(0.1 -0.1)">
       <use xlink:href="#DejaVuSans-30"/>
       <use x="63.623047" xlink:href="#DejaVuSans-2e"/>
       <use x="95.410156" xlink:href="#DejaVuSans-34"/>
      </g>
     </g>
    </g>
    <g id="ytick_4">
     <g id="line2d_13">
      <g>
       <use style="stroke:#000000;stroke-width:0.8;" x="43.78125" xlink:href="#m7128fdef72" y="140.174943"/>
      </g>
     </g>
     <g id="text_14">
      <!-- 0.6 -->
      <g transform="translate(20.878125 143.974161)scale(0.1 -0.1)">
       <use xlink:href="#DejaVuSans-30"/>
       <use x="63.623047" xlink:href="#DejaVuSans-2e"/>
       <use x="95.410156" xlink:href="#DejaVuSans-36"/>
      </g>
     </g>
    </g>
    <g id="ytick_5">
     <g id="line2d_14">
      <g>
       <use style="stroke:#000000;stroke-width:0.8;" x="43.78125" xlink:href="#m7128fdef72" y="95.795923"/>
      </g>
     </g>
     <g id="text_15">
      <!-- 0.8 -->
      <g transform="translate(20.878125 99.595142)scale(0.1 -0.1)">
       <use xlink:href="#DejaVuSans-30"/>
       <use x="63.623047" xlink:href="#DejaVuSans-2e"/>
       <use x="95.410156" xlink:href="#DejaVuSans-38"/>
      </g>
     </g>
    </g>
    <g id="ytick_6">
     <g id="line2d_15">
      <g>
       <use style="stroke:#000000;stroke-width:0.8;" x="43.78125" xlink:href="#m7128fdef72" y="51.416904"/>
      </g>
     </g>
     <g id="text_16">
      <!-- 1.0 -->
      <g transform="translate(20.878125 55.216123)scale(0.1 -0.1)">
       <use xlink:href="#DejaVuSans-31"/>
       <use x="63.623047" xlink:href="#DejaVuSans-2e"/>
       <use x="95.410156" xlink:href="#DejaVuSans-30"/>
      </g>
     </g>
    </g>
    <g id="text_17">
     <!-- Probability density -->
     <g transform="translate(14.798438 186.606781)rotate(-90)scale(0.1 -0.1)">
      <defs>
       <path d="M 1259 4147 
L 1259 2394 
L 2053 2394 
Q 2494 2394 2734 2622 
Q 2975 2850 2975 3272 
Q 2975 3691 2734 3919 
Q 2494 4147 2053 4147 
L 1259 4147 
z
M 628 4666 
L 2053 4666 
Q 2838 4666 3239 4311 
Q 3641 3956 3641 3272 
Q 3641 2581 3239 2228 
Q 2838 1875 2053 1875 
L 1259 1875 
L 1259 0 
L 628 0 
L 628 4666 
z
" id="DejaVuSans-50" transform="scale(0.015625)"/>
       <path d="M 3116 1747 
Q 3116 2381 2855 2742 
Q 2594 3103 2138 3103 
Q 1681 3103 1420 2742 
Q 1159 2381 1159 1747 
Q 1159 1113 1420 752 
Q 1681 391 2138 391 
Q 2594 391 2855 752 
Q 3116 1113 3116 1747 
z
M 1159 2969 
Q 1341 3281 1617 3432 
Q 1894 3584 2278 3584 
Q 2916 3584 3314 3078 
Q 3713 2572 3713 1747 
Q 3713 922 3314 415 
Q 2916 -91 2278 -91 
Q 1894 -91 1617 61 
Q 1341 213 1159 525 
L 1159 0 
L 581 0 
L 581 4863 
L 1159 4863 
L 1159 2969 
z
" id="DejaVuSans-62" transform="scale(0.015625)"/>
       <path d="M 2059 -325 
Q 1816 -950 1584 -1140 
Q 1353 -1331 966 -1331 
L 506 -1331 
L 506 -850 
L 844 -850 
Q 1081 -850 1212 -737 
Q 1344 -625 1503 -206 
L 1606 56 
L 191 3500 
L 800 3500 
L 1894 763 
L 2988 3500 
L 3597 3500 
L 2059 -325 
z
" id="DejaVuSans-79" transform="scale(0.015625)"/>
       <path d="M 2834 3397 
L 2834 2853 
Q 2591 2978 2328 3040 
Q 2066 3103 1784 3103 
Q 1356 3103 1142 2972 
Q 928 2841 928 2578 
Q 928 2378 1081 2264 
Q 1234 2150 1697 2047 
L 1894 2003 
Q 2506 1872 2764 1633 
Q 3022 1394 3022 966 
Q 3022 478 2636 193 
Q 2250 -91 1575 -91 
Q 1294 -91 989 -36 
Q 684 19 347 128 
L 347 722 
Q 666 556 975 473 
Q 1284 391 1588 391 
Q 1994 391 2212 530 
Q 2431 669 2431 922 
Q 2431 1156 2273 1281 
Q 2116 1406 1581 1522 
L 1381 1569 
Q 847 1681 609 1914 
Q 372 2147 372 2553 
Q 372 3047 722 3315 
Q 1072 3584 1716 3584 
Q 2034 3584 2315 3537 
Q 2597 3491 2834 3397 
z
" id="DejaVuSans-73" transform="scale(0.015625)"/>
      </defs>
      <use xlink:href="#DejaVuSans-50"/>
      <use x="58.552734" xlink:href="#DejaVuSans-72"/>
      <use x="97.416016" xlink:href="#DejaVuSans-6f"/>
      <use x="158.597656" xlink:href="#DejaVuSans-62"/>
      <use x="222.074219" xlink:href="#DejaVuSans-61"/>
      <use x="283.353516" xlink:href="#DejaVuSans-62"/>
      <use x="346.830078" xlink:href="#DejaVuSans-69"/>
      <use x="374.613281" xlink:href="#DejaVuSans-6c"/>
      <use x="402.396484" xlink:href="#DejaVuSans-69"/>
      <use x="430.179688" xlink:href="#DejaVuSans-74"/>
      <use x="469.388672" xlink:href="#DejaVuSans-79"/>
      <use x="528.568359" xlink:href="#DejaVuSans-20"/>
      <use x="560.355469" xlink:href="#DejaVuSans-64"/>
      <use x="623.832031" xlink:href="#DejaVuSans-65"/>
      <use x="685.355469" xlink:href="#DejaVuSans-6e"/>
      <use x="748.734375" xlink:href="#DejaVuSans-73"/>
      <use x="800.833984" xlink:href="#DejaVuSans-69"/>
      <use x="828.617188" xlink:href="#DejaVuSans-74"/>
      <use x="867.826172" xlink:href="#DejaVuSans-79"/>
     </g>
    </g>
   </g>
   <g id="line2d_16">
    <path clip-path="url(#pd23036bf09)" d="M 60.013977 273.312 
L 79.837728 231.006669 
L 90.237073 209.337605 
L 99.01152 191.549117 
L 106.811029 176.22779 
L 113.960578 162.666746 
L 120.460169 150.796252 
L 126.63478 139.96733 
L 132.484411 130.146741 
L 138.009063 121.292316 
L 143.208736 113.355099 
L 148.408408 105.822758 
L 153.283101 99.145864 
L 158.157794 92.856438 
L 162.707507 87.348244 
L 167.257221 82.200449 
L 171.481954 77.751789 
L 175.706688 73.629923 
L 179.606442 70.121146 
L 183.506197 66.901691 
L 187.405951 63.976145 
L 190.980726 61.556149 
L 194.555501 59.389518 
L 198.130275 57.478844 
L 201.70505 55.826414 
L 205.279825 54.434203 
L 208.52962 53.395777 
L 211.779415 52.574815 
L 215.029211 51.972131 
L 218.279006 51.58832 
L 221.528801 51.423762 
L 224.778596 51.478619 
L 228.028392 51.752837 
L 231.278187 52.246146 
L 234.527982 52.958057 
L 237.777777 53.887866 
L 241.027573 55.034654 
L 244.602347 56.545371 
L 248.177122 58.315449 
L 251.751897 60.342769 
L 255.326672 62.624905 
L 258.901447 65.159128 
L 262.801201 68.207666 
L 266.700955 71.548253 
L 270.600709 75.176131 
L 274.825443 79.424532 
L 279.050177 83.996933 
L 283.274911 88.885692 
L 287.824624 94.494927 
L 292.374338 100.450709 
L 297.249031 107.20334 
L 302.123723 114.325512 
L 307.323396 122.311945 
L 312.848048 131.215833 
L 318.697679 141.085462 
L 324.87229 151.96226 
L 331.371881 163.878651 
L 338.196451 176.855737 
L 345.67098 191.549117 
L 354.120447 208.669751 
L 363.869833 228.953576 
L 376.544035 255.88492 
L 384.668523 273.312 
L 384.668523 273.312 
" style="fill:none;stroke:#ff7f0e;stroke-linecap:square;stroke-width:1.5;"/>
   </g>
   <g id="patch_203">
    <path d="M 43.78125 273.312 
L 43.78125 7.2 
" style="fill:none;stroke:#000000;stroke-linecap:square;stroke-linejoin:miter;stroke-width:0.8;"/>
   </g>
   <g id="patch_204">
    <path d="M 400.90125 273.312 
L 400.90125 7.2 
" style="fill:none;stroke:#000000;stroke-linecap:square;stroke-linejoin:miter;stroke-width:0.8;"/>
   </g>
   <g id="patch_205">
    <path d="M 43.78125 273.312 
L 400.90125 273.312 
" style="fill:none;stroke:#000000;stroke-linecap:square;stroke-linejoin:miter;stroke-width:0.8;"/>
   </g>
   <g id="patch_206">
    <path d="M 43.78125 7.2 
L 400.90125 7.2 
" style="fill:none;stroke:#000000;stroke-linecap:square;stroke-linejoin:miter;stroke-width:0.8;"/>
   </g>
  </g>
 </g>
 <defs>
  <clipPath id="pd23036bf09">
   <rect height="266.112" width="357.12" x="43.78125" y="7.2"/>
  </clipPath>
 </defs>
</svg>
