<?xml version="1.0" encoding="utf-8" standalone="no"?>
<!DOCTYPE svg PUBLIC "-//W3C//DTD SVG 1.1//EN"
  "http://www.w3.org/Graphics/SVG/1.1/DTD/svg11.dtd">
<svg height="310.86825pt" version="1.1" viewBox="0 0 414.46375 310.86825" width="414.46375pt" xmlns="http://www.w3.org/2000/svg" xmlns:xlink="http://www.w3.org/1999/xlink">
 <metadata>
  <rdf:RDF xmlns:cc="http://creativecommons.org/ns#" xmlns:dc="http://purl.org/dc/elements/1.1/" xmlns:rdf="http://www.w3.org/1999/02/22-rdf-syntax-ns#">
   <cc:Work>
    <dc:type rdf:resource="http://purl.org/dc/dcmitype/StillImage"/>
    <dc:date>2021-07-08T07:43:35.435672</dc:date>
    <dc:format>image/svg+xml</dc:format>
    <dc:creator>
     <cc:Agent>
      <dc:title>Matplotlib v3.4.2, https://matplotlib.org/</dc:title>
     </cc:Agent>
    </dc:creator>
   </cc:Work>
  </rdf:RDF>
 </metadata>
 <defs>
  <style type="text/css">*{stroke-linecap:butt;stroke-linejoin:round;}</style>
 </defs>
 <g id="figure_1">
  <g id="patch_1">
   <path d="M 0 310.86825 
L 414.46375 310.86825 
L 414.46375 0 
L 0 0 
z
" style="fill:#ffffff;"/>
  </g>
  <g id="axes_1">
   <g id="patch_2">
    <path d="M 50.14375 273.312 
L 407.26375 273.312 
L 407.26375 7.2 
L 50.14375 7.2 
z
" style="fill:#ffffff;"/>
   </g>
   <g id="patch_3">
    <path clip-path="url(#p840b3a96be)" d="M 67.931377 273.312 
L 69.546836 273.312 
L 69.546836 270.25113 
L 67.931377 270.25113 
z
" style="fill:#1f77b4;"/>
   </g>
   <g id="patch_4">
    <path clip-path="url(#p840b3a96be)" d="M 69.546836 273.312 
L 71.162296 273.312 
L 71.162296 269.638957 
L 69.546836 269.638957 
z
" style="fill:#1f77b4;"/>
   </g>
   <g id="patch_5">
    <path clip-path="url(#p840b3a96be)" d="M 71.162296 273.312 
L 72.777755 273.312 
L 72.777755 269.026783 
L 71.162296 269.026783 
z
" style="fill:#1f77b4;"/>
   </g>
   <g id="patch_6">
    <path clip-path="url(#p840b3a96be)" d="M 72.777755 273.312 
L 74.393215 273.312 
L 74.393215 270.25113 
L 72.777755 270.25113 
z
" style="fill:#1f77b4;"/>
   </g>
   <g id="patch_7">
    <path clip-path="url(#p840b3a96be)" d="M 74.393215 273.312 
L 76.008674 273.312 
L 76.008674 265.965913 
L 74.393215 265.965913 
z
" style="fill:#1f77b4;"/>
   </g>
   <g id="patch_8">
    <path clip-path="url(#p840b3a96be)" d="M 76.008674 273.312 
L 77.624134 273.312 
L 77.624134 261.680696 
L 76.008674 261.680696 
z
" style="fill:#1f77b4;"/>
   </g>
   <g id="patch_9">
    <path clip-path="url(#p840b3a96be)" d="M 77.624134 273.312 
L 79.239593 273.312 
L 79.239593 262.905043 
L 77.624134 262.905043 
z
" style="fill:#1f77b4;"/>
   </g>
   <g id="patch_10">
    <path clip-path="url(#p840b3a96be)" d="M 79.239593 273.312 
L 80.855053 273.312 
L 80.855053 260.456348 
L 79.239593 260.456348 
z
" style="fill:#1f77b4;"/>
   </g>
   <g id="patch_11">
    <path clip-path="url(#p840b3a96be)" d="M 80.855053 273.312 
L 82.470512 273.312 
L 82.470512 263.517217 
L 80.855053 263.517217 
z
" style="fill:#1f77b4;"/>
   </g>
   <g id="patch_12">
    <path clip-path="url(#p840b3a96be)" d="M 82.470512 273.312 
L 84.085972 273.312 
L 84.085972 259.844174 
L 82.470512 259.844174 
z
" style="fill:#1f77b4;"/>
   </g>
   <g id="patch_13">
    <path clip-path="url(#p840b3a96be)" d="M 84.085972 273.312 
L 85.701431 273.312 
L 85.701431 257.395478 
L 84.085972 257.395478 
z
" style="fill:#1f77b4;"/>
   </g>
   <g id="patch_14">
    <path clip-path="url(#p840b3a96be)" d="M 85.701431 273.312 
L 87.316891 273.312 
L 87.316891 253.722435 
L 85.701431 253.722435 
z
" style="fill:#1f77b4;"/>
   </g>
   <g id="patch_15">
    <path clip-path="url(#p840b3a96be)" d="M 87.316891 273.312 
L 88.93235 273.312 
L 88.93235 253.110261 
L 87.316891 253.110261 
z
" style="fill:#1f77b4;"/>
   </g>
   <g id="patch_16">
    <path clip-path="url(#p840b3a96be)" d="M 88.93235 273.312 
L 90.54781 273.312 
L 90.54781 256.17113 
L 88.93235 256.17113 
z
" style="fill:#1f77b4;"/>
   </g>
   <g id="patch_17">
    <path clip-path="url(#p840b3a96be)" d="M 90.54781 273.312 
L 92.163269 273.312 
L 92.163269 246.376348 
L 90.54781 246.376348 
z
" style="fill:#1f77b4;"/>
   </g>
   <g id="patch_18">
    <path clip-path="url(#p840b3a96be)" d="M 92.163269 273.312 
L 93.778729 273.312 
L 93.778729 250.049391 
L 92.163269 250.049391 
z
" style="fill:#1f77b4;"/>
   </g>
   <g id="patch_19">
    <path clip-path="url(#p840b3a96be)" d="M 93.778729 273.312 
L 95.394188 273.312 
L 95.394188 252.498087 
L 93.778729 252.498087 
z
" style="fill:#1f77b4;"/>
   </g>
   <g id="patch_20">
    <path clip-path="url(#p840b3a96be)" d="M 95.394188 273.312 
L 97.009648 273.312 
L 97.009648 250.049391 
L 95.394188 250.049391 
z
" style="fill:#1f77b4;"/>
   </g>
   <g id="patch_21">
    <path clip-path="url(#p840b3a96be)" d="M 97.009648 273.312 
L 98.625107 273.312 
L 98.625107 255.558957 
L 97.009648 255.558957 
z
" style="fill:#1f77b4;"/>
   </g>
   <g id="patch_22">
    <path clip-path="url(#p840b3a96be)" d="M 98.625107 273.312 
L 100.240567 273.312 
L 100.240567 243.315478 
L 98.625107 243.315478 
z
" style="fill:#1f77b4;"/>
   </g>
   <g id="patch_23">
    <path clip-path="url(#p840b3a96be)" d="M 100.240567 273.312 
L 101.856026 273.312 
L 101.856026 240.866783 
L 100.240567 240.866783 
z
" style="fill:#1f77b4;"/>
   </g>
   <g id="patch_24">
    <path clip-path="url(#p840b3a96be)" d="M 101.856026 273.312 
L 103.471486 273.312 
L 103.471486 241.478957 
L 101.856026 241.478957 
z
" style="fill:#1f77b4;"/>
   </g>
   <g id="patch_25">
    <path clip-path="url(#p840b3a96be)" d="M 103.471486 273.312 
L 105.086945 273.312 
L 105.086945 248.21287 
L 103.471486 248.21287 
z
" style="fill:#1f77b4;"/>
   </g>
   <g id="patch_26">
    <path clip-path="url(#p840b3a96be)" d="M 105.086945 273.312 
L 106.702405 273.312 
L 106.702405 243.927652 
L 105.086945 243.927652 
z
" style="fill:#1f77b4;"/>
   </g>
   <g id="patch_27">
    <path clip-path="url(#p840b3a96be)" d="M 106.702405 273.312 
L 108.317864 273.312 
L 108.317864 243.927652 
L 106.702405 243.927652 
z
" style="fill:#1f77b4;"/>
   </g>
   <g id="patch_28">
    <path clip-path="url(#p840b3a96be)" d="M 108.317864 273.312 
L 109.933324 273.312 
L 109.933324 250.049391 
L 108.317864 250.049391 
z
" style="fill:#1f77b4;"/>
   </g>
   <g id="patch_29">
    <path clip-path="url(#p840b3a96be)" d="M 109.933324 273.312 
L 111.548783 273.312 
L 111.548783 245.764174 
L 109.933324 245.764174 
z
" style="fill:#1f77b4;"/>
   </g>
   <g id="patch_30">
    <path clip-path="url(#p840b3a96be)" d="M 111.548783 273.312 
L 113.164243 273.312 
L 113.164243 239.030261 
L 111.548783 239.030261 
z
" style="fill:#1f77b4;"/>
   </g>
   <g id="patch_31">
    <path clip-path="url(#p840b3a96be)" d="M 113.164243 273.312 
L 114.779702 273.312 
L 114.779702 243.315478 
L 113.164243 243.315478 
z
" style="fill:#1f77b4;"/>
   </g>
   <g id="patch_32">
    <path clip-path="url(#p840b3a96be)" d="M 114.779702 273.312 
L 116.395162 273.312 
L 116.395162 241.478957 
L 114.779702 241.478957 
z
" style="fill:#1f77b4;"/>
   </g>
   <g id="patch_33">
    <path clip-path="url(#p840b3a96be)" d="M 116.395162 273.312 
L 118.010621 273.312 
L 118.010621 227.398957 
L 116.395162 227.398957 
z
" style="fill:#1f77b4;"/>
   </g>
   <g id="patch_34">
    <path clip-path="url(#p840b3a96be)" d="M 118.010621 273.312 
L 119.626081 273.312 
L 119.626081 229.847652 
L 118.010621 229.847652 
z
" style="fill:#1f77b4;"/>
   </g>
   <g id="patch_35">
    <path clip-path="url(#p840b3a96be)" d="M 119.626081 273.312 
L 121.24154 273.312 
L 121.24154 228.623304 
L 119.626081 228.623304 
z
" style="fill:#1f77b4;"/>
   </g>
   <g id="patch_36">
    <path clip-path="url(#p840b3a96be)" d="M 121.24154 273.312 
L 122.857 273.312 
L 122.857 239.030261 
L 121.24154 239.030261 
z
" style="fill:#1f77b4;"/>
   </g>
   <g id="patch_37">
    <path clip-path="url(#p840b3a96be)" d="M 122.857 273.312 
L 124.472459 273.312 
L 124.472459 231.684174 
L 122.857 231.684174 
z
" style="fill:#1f77b4;"/>
   </g>
   <g id="patch_38">
    <path clip-path="url(#p840b3a96be)" d="M 124.472459 273.312 
L 126.087919 273.312 
L 126.087919 228.01113 
L 124.472459 228.01113 
z
" style="fill:#1f77b4;"/>
   </g>
   <g id="patch_39">
    <path clip-path="url(#p840b3a96be)" d="M 126.087919 273.312 
L 127.703379 273.312 
L 127.703379 231.072 
L 126.087919 231.072 
z
" style="fill:#1f77b4;"/>
   </g>
   <g id="patch_40">
    <path clip-path="url(#p840b3a96be)" d="M 127.703379 273.312 
L 129.318838 273.312 
L 129.318838 231.684174 
L 127.703379 231.684174 
z
" style="fill:#1f77b4;"/>
   </g>
   <g id="patch_41">
    <path clip-path="url(#p840b3a96be)" d="M 129.318838 273.312 
L 130.934298 273.312 
L 130.934298 231.072 
L 129.318838 231.072 
z
" style="fill:#1f77b4;"/>
   </g>
   <g id="patch_42">
    <path clip-path="url(#p840b3a96be)" d="M 130.934298 273.312 
L 132.549757 273.312 
L 132.549757 225.562435 
L 130.934298 225.562435 
z
" style="fill:#1f77b4;"/>
   </g>
   <g id="patch_43">
    <path clip-path="url(#p840b3a96be)" d="M 132.549757 273.312 
L 134.165217 273.312 
L 134.165217 218.216348 
L 132.549757 218.216348 
z
" style="fill:#1f77b4;"/>
   </g>
   <g id="patch_44">
    <path clip-path="url(#p840b3a96be)" d="M 134.165217 273.312 
L 135.780676 273.312 
L 135.780676 209.645913 
L 134.165217 209.645913 
z
" style="fill:#1f77b4;"/>
   </g>
   <g id="patch_45">
    <path clip-path="url(#p840b3a96be)" d="M 135.780676 273.312 
L 137.396136 273.312 
L 137.396136 224.338087 
L 135.780676 224.338087 
z
" style="fill:#1f77b4;"/>
   </g>
   <g id="patch_46">
    <path clip-path="url(#p840b3a96be)" d="M 137.396136 273.312 
L 139.011595 273.312 
L 139.011595 223.113739 
L 137.396136 223.113739 
z
" style="fill:#1f77b4;"/>
   </g>
   <g id="patch_47">
    <path clip-path="url(#p840b3a96be)" d="M 139.011595 273.312 
L 140.627055 273.312 
L 140.627055 220.05287 
L 139.011595 220.05287 
z
" style="fill:#1f77b4;"/>
   </g>
   <g id="patch_48">
    <path clip-path="url(#p840b3a96be)" d="M 140.627055 273.312 
L 142.242514 273.312 
L 142.242514 224.338087 
L 140.627055 224.338087 
z
" style="fill:#1f77b4;"/>
   </g>
   <g id="patch_49">
    <path clip-path="url(#p840b3a96be)" d="M 142.242514 273.312 
L 143.857974 273.312 
L 143.857974 213.318957 
L 142.242514 213.318957 
z
" style="fill:#1f77b4;"/>
   </g>
   <g id="patch_50">
    <path clip-path="url(#p840b3a96be)" d="M 143.857974 273.312 
L 145.473433 273.312 
L 145.473433 225.562435 
L 143.857974 225.562435 
z
" style="fill:#1f77b4;"/>
   </g>
   <g id="patch_51">
    <path clip-path="url(#p840b3a96be)" d="M 145.473433 273.312 
L 147.088893 273.312 
L 147.088893 213.93113 
L 145.473433 213.93113 
z
" style="fill:#1f77b4;"/>
   </g>
   <g id="patch_52">
    <path clip-path="url(#p840b3a96be)" d="M 147.088893 273.312 
L 148.704352 273.312 
L 148.704352 220.665043 
L 147.088893 220.665043 
z
" style="fill:#1f77b4;"/>
   </g>
   <g id="patch_53">
    <path clip-path="url(#p840b3a96be)" d="M 148.704352 273.312 
L 150.319812 273.312 
L 150.319812 210.870261 
L 148.704352 210.870261 
z
" style="fill:#1f77b4;"/>
   </g>
   <g id="patch_54">
    <path clip-path="url(#p840b3a96be)" d="M 150.319812 273.312 
L 151.935271 273.312 
L 151.935271 209.645913 
L 150.319812 209.645913 
z
" style="fill:#1f77b4;"/>
   </g>
   <g id="patch_55">
    <path clip-path="url(#p840b3a96be)" d="M 151.935271 273.312 
L 153.550731 273.312 
L 153.550731 205.360696 
L 151.935271 205.360696 
z
" style="fill:#1f77b4;"/>
   </g>
   <g id="patch_56">
    <path clip-path="url(#p840b3a96be)" d="M 153.550731 273.312 
L 155.16619 273.312 
L 155.16619 195.565913 
L 153.550731 195.565913 
z
" style="fill:#1f77b4;"/>
   </g>
   <g id="patch_57">
    <path clip-path="url(#p840b3a96be)" d="M 155.16619 273.312 
L 156.78165 273.312 
L 156.78165 213.318957 
L 155.16619 213.318957 
z
" style="fill:#1f77b4;"/>
   </g>
   <g id="patch_58">
    <path clip-path="url(#p840b3a96be)" d="M 156.78165 273.312 
L 158.397109 273.312 
L 158.397109 208.421565 
L 156.78165 208.421565 
z
" style="fill:#1f77b4;"/>
   </g>
   <g id="patch_59">
    <path clip-path="url(#p840b3a96be)" d="M 158.397109 273.312 
L 160.012569 273.312 
L 160.012569 205.97287 
L 158.397109 205.97287 
z
" style="fill:#1f77b4;"/>
   </g>
   <g id="patch_60">
    <path clip-path="url(#p840b3a96be)" d="M 160.012569 273.312 
L 161.628028 273.312 
L 161.628028 200.463304 
L 160.012569 200.463304 
z
" style="fill:#1f77b4;"/>
   </g>
   <g id="patch_61">
    <path clip-path="url(#p840b3a96be)" d="M 161.628028 273.312 
L 163.243488 273.312 
L 163.243488 213.93113 
L 161.628028 213.93113 
z
" style="fill:#1f77b4;"/>
   </g>
   <g id="patch_62">
    <path clip-path="url(#p840b3a96be)" d="M 163.243488 273.312 
L 164.858947 273.312 
L 164.858947 196.790261 
L 163.243488 196.790261 
z
" style="fill:#1f77b4;"/>
   </g>
   <g id="patch_63">
    <path clip-path="url(#p840b3a96be)" d="M 164.858947 273.312 
L 166.474407 273.312 
L 166.474407 209.033739 
L 164.858947 209.033739 
z
" style="fill:#1f77b4;"/>
   </g>
   <g id="patch_64">
    <path clip-path="url(#p840b3a96be)" d="M 166.474407 273.312 
L 168.089866 273.312 
L 168.089866 196.790261 
L 166.474407 196.790261 
z
" style="fill:#1f77b4;"/>
   </g>
   <g id="patch_65">
    <path clip-path="url(#p840b3a96be)" d="M 168.089866 273.312 
L 169.705326 273.312 
L 169.705326 203.524174 
L 168.089866 203.524174 
z
" style="fill:#1f77b4;"/>
   </g>
   <g id="patch_66">
    <path clip-path="url(#p840b3a96be)" d="M 169.705326 273.312 
L 171.320785 273.312 
L 171.320785 202.299826 
L 169.705326 202.299826 
z
" style="fill:#1f77b4;"/>
   </g>
   <g id="patch_67">
    <path clip-path="url(#p840b3a96be)" d="M 171.320785 273.312 
L 172.936245 273.312 
L 172.936245 200.463304 
L 171.320785 200.463304 
z
" style="fill:#1f77b4;"/>
   </g>
   <g id="patch_68">
    <path clip-path="url(#p840b3a96be)" d="M 172.936245 273.312 
L 174.551704 273.312 
L 174.551704 196.178087 
L 172.936245 196.178087 
z
" style="fill:#1f77b4;"/>
   </g>
   <g id="patch_69">
    <path clip-path="url(#p840b3a96be)" d="M 174.551704 273.312 
L 176.167164 273.312 
L 176.167164 184.546783 
L 174.551704 184.546783 
z
" style="fill:#1f77b4;"/>
   </g>
   <g id="patch_70">
    <path clip-path="url(#p840b3a96be)" d="M 176.167164 273.312 
L 177.782623 273.312 
L 177.782623 191.280696 
L 176.167164 191.280696 
z
" style="fill:#1f77b4;"/>
   </g>
   <g id="patch_71">
    <path clip-path="url(#p840b3a96be)" d="M 177.782623 273.312 
L 179.398083 273.312 
L 179.398083 192.505043 
L 177.782623 192.505043 
z
" style="fill:#1f77b4;"/>
   </g>
   <g id="patch_72">
    <path clip-path="url(#p840b3a96be)" d="M 179.398083 273.312 
L 181.013542 273.312 
L 181.013542 178.425043 
L 179.398083 178.425043 
z
" style="fill:#1f77b4;"/>
   </g>
   <g id="patch_73">
    <path clip-path="url(#p840b3a96be)" d="M 181.013542 273.312 
L 182.629002 273.312 
L 182.629002 183.934609 
L 181.013542 183.934609 
z
" style="fill:#1f77b4;"/>
   </g>
   <g id="patch_74">
    <path clip-path="url(#p840b3a96be)" d="M 182.629002 273.312 
L 184.244461 273.312 
L 184.244461 183.934609 
L 182.629002 183.934609 
z
" style="fill:#1f77b4;"/>
   </g>
   <g id="patch_75">
    <path clip-path="url(#p840b3a96be)" d="M 184.244461 273.312 
L 185.859921 273.312 
L 185.859921 169.242435 
L 184.244461 169.242435 
z
" style="fill:#1f77b4;"/>
   </g>
   <g id="patch_76">
    <path clip-path="url(#p840b3a96be)" d="M 185.859921 273.312 
L 187.47538 273.312 
L 187.47538 177.200696 
L 185.859921 177.200696 
z
" style="fill:#1f77b4;"/>
   </g>
   <g id="patch_77">
    <path clip-path="url(#p840b3a96be)" d="M 187.47538 273.312 
L 189.09084 273.312 
L 189.09084 199.85113 
L 187.47538 199.85113 
z
" style="fill:#1f77b4;"/>
   </g>
   <g id="patch_78">
    <path clip-path="url(#p840b3a96be)" d="M 189.09084 273.312 
L 190.706299 273.312 
L 190.706299 177.81287 
L 189.09084 177.81287 
z
" style="fill:#1f77b4;"/>
   </g>
   <g id="patch_79">
    <path clip-path="url(#p840b3a96be)" d="M 190.706299 273.312 
L 192.321759 273.312 
L 192.321759 177.81287 
L 190.706299 177.81287 
z
" style="fill:#1f77b4;"/>
   </g>
   <g id="patch_80">
    <path clip-path="url(#p840b3a96be)" d="M 192.321759 273.312 
L 193.937218 273.312 
L 193.937218 180.261565 
L 192.321759 180.261565 
z
" style="fill:#1f77b4;"/>
   </g>
   <g id="patch_81">
    <path clip-path="url(#p840b3a96be)" d="M 193.937218 273.312 
L 195.552678 273.312 
L 195.552678 175.364174 
L 193.937218 175.364174 
z
" style="fill:#1f77b4;"/>
   </g>
   <g id="patch_82">
    <path clip-path="url(#p840b3a96be)" d="M 195.552678 273.312 
L 197.168137 273.312 
L 197.168137 168.018087 
L 195.552678 168.018087 
z
" style="fill:#1f77b4;"/>
   </g>
   <g id="patch_83">
    <path clip-path="url(#p840b3a96be)" d="M 197.168137 273.312 
L 198.783597 273.312 
L 198.783597 164.957217 
L 197.168137 164.957217 
z
" style="fill:#1f77b4;"/>
   </g>
   <g id="patch_84">
    <path clip-path="url(#p840b3a96be)" d="M 198.783597 273.312 
L 200.399056 273.312 
L 200.399056 172.303304 
L 198.783597 172.303304 
z
" style="fill:#1f77b4;"/>
   </g>
   <g id="patch_85">
    <path clip-path="url(#p840b3a96be)" d="M 200.399056 273.312 
L 202.014516 273.312 
L 202.014516 167.405913 
L 200.399056 167.405913 
z
" style="fill:#1f77b4;"/>
   </g>
   <g id="patch_86">
    <path clip-path="url(#p840b3a96be)" d="M 202.014516 273.312 
L 203.629975 273.312 
L 203.629975 178.425043 
L 202.014516 178.425043 
z
" style="fill:#1f77b4;"/>
   </g>
   <g id="patch_87">
    <path clip-path="url(#p840b3a96be)" d="M 203.629975 273.312 
L 205.245435 273.312 
L 205.245435 164.957217 
L 203.629975 164.957217 
z
" style="fill:#1f77b4;"/>
   </g>
   <g id="patch_88">
    <path clip-path="url(#p840b3a96be)" d="M 205.245435 273.312 
L 206.860894 273.312 
L 206.860894 167.405913 
L 205.245435 167.405913 
z
" style="fill:#1f77b4;"/>
   </g>
   <g id="patch_89">
    <path clip-path="url(#p840b3a96be)" d="M 206.860894 273.312 
L 208.476354 273.312 
L 208.476354 166.793739 
L 206.860894 166.793739 
z
" style="fill:#1f77b4;"/>
   </g>
   <g id="patch_90">
    <path clip-path="url(#p840b3a96be)" d="M 208.476354 273.312 
L 210.091813 273.312 
L 210.091813 171.69113 
L 208.476354 171.69113 
z
" style="fill:#1f77b4;"/>
   </g>
   <g id="patch_91">
    <path clip-path="url(#p840b3a96be)" d="M 210.091813 273.312 
L 211.707273 273.312 
L 211.707273 171.69113 
L 210.091813 171.69113 
z
" style="fill:#1f77b4;"/>
   </g>
   <g id="patch_92">
    <path clip-path="url(#p840b3a96be)" d="M 211.707273 273.312 
L 213.322733 273.312 
L 213.322733 163.120696 
L 211.707273 163.120696 
z
" style="fill:#1f77b4;"/>
   </g>
   <g id="patch_93">
    <path clip-path="url(#p840b3a96be)" d="M 213.322733 273.312 
L 214.938192 273.312 
L 214.938192 157.61113 
L 213.322733 157.61113 
z
" style="fill:#1f77b4;"/>
   </g>
   <g id="patch_94">
    <path clip-path="url(#p840b3a96be)" d="M 214.938192 273.312 
L 216.553652 273.312 
L 216.553652 149.65287 
L 214.938192 149.65287 
z
" style="fill:#1f77b4;"/>
   </g>
   <g id="patch_95">
    <path clip-path="url(#p840b3a96be)" d="M 216.553652 273.312 
L 218.169111 273.312 
L 218.169111 172.303304 
L 216.553652 172.303304 
z
" style="fill:#1f77b4;"/>
   </g>
   <g id="patch_96">
    <path clip-path="url(#p840b3a96be)" d="M 218.169111 273.312 
L 219.784571 273.312 
L 219.784571 148.428522 
L 218.169111 148.428522 
z
" style="fill:#1f77b4;"/>
   </g>
   <g id="patch_97">
    <path clip-path="url(#p840b3a96be)" d="M 219.784571 273.312 
L 221.40003 273.312 
L 221.40003 155.162435 
L 219.784571 155.162435 
z
" style="fill:#1f77b4;"/>
   </g>
   <g id="patch_98">
    <path clip-path="url(#p840b3a96be)" d="M 221.40003 273.312 
L 223.01549 273.312 
L 223.01549 167.405913 
L 221.40003 167.405913 
z
" style="fill:#1f77b4;"/>
   </g>
   <g id="patch_99">
    <path clip-path="url(#p840b3a96be)" d="M 223.01549 273.312 
L 224.630949 273.312 
L 224.630949 155.162435 
L 223.01549 155.162435 
z
" style="fill:#1f77b4;"/>
   </g>
   <g id="patch_100">
    <path clip-path="url(#p840b3a96be)" d="M 224.630949 273.312 
L 226.246409 273.312 
L 226.246409 172.303304 
L 224.630949 172.303304 
z
" style="fill:#1f77b4;"/>
   </g>
   <g id="patch_101">
    <path clip-path="url(#p840b3a96be)" d="M 226.246409 273.312 
L 227.861868 273.312 
L 227.861868 160.059826 
L 226.246409 160.059826 
z
" style="fill:#1f77b4;"/>
   </g>
   <g id="patch_102">
    <path clip-path="url(#p840b3a96be)" d="M 227.861868 273.312 
L 229.477328 273.312 
L 229.477328 127.614609 
L 227.861868 127.614609 
z
" style="fill:#1f77b4;"/>
   </g>
   <g id="patch_103">
    <path clip-path="url(#p840b3a96be)" d="M 229.477328 273.312 
L 231.092787 273.312 
L 231.092787 138.633739 
L 229.477328 138.633739 
z
" style="fill:#1f77b4;"/>
   </g>
   <g id="patch_104">
    <path clip-path="url(#p840b3a96be)" d="M 231.092787 273.312 
L 232.708247 273.312 
L 232.708247 130.675478 
L 231.092787 130.675478 
z
" style="fill:#1f77b4;"/>
   </g>
   <g id="patch_105">
    <path clip-path="url(#p840b3a96be)" d="M 232.708247 273.312 
L 234.323706 273.312 
L 234.323706 152.713739 
L 232.708247 152.713739 
z
" style="fill:#1f77b4;"/>
   </g>
   <g id="patch_106">
    <path clip-path="url(#p840b3a96be)" d="M 234.323706 273.312 
L 235.939166 273.312 
L 235.939166 130.063304 
L 234.323706 130.063304 
z
" style="fill:#1f77b4;"/>
   </g>
   <g id="patch_107">
    <path clip-path="url(#p840b3a96be)" d="M 235.939166 273.312 
L 237.554625 273.312 
L 237.554625 154.550261 
L 235.939166 154.550261 
z
" style="fill:#1f77b4;"/>
   </g>
   <g id="patch_108">
    <path clip-path="url(#p840b3a96be)" d="M 237.554625 273.312 
L 239.170085 273.312 
L 239.170085 142.306783 
L 237.554625 142.306783 
z
" style="fill:#1f77b4;"/>
   </g>
   <g id="patch_109">
    <path clip-path="url(#p840b3a96be)" d="M 239.170085 273.312 
L 240.785544 273.312 
L 240.785544 143.53113 
L 239.170085 143.53113 
z
" style="fill:#1f77b4;"/>
   </g>
   <g id="patch_110">
    <path clip-path="url(#p840b3a96be)" d="M 240.785544 273.312 
L 242.401004 273.312 
L 242.401004 149.65287 
L 240.785544 149.65287 
z
" style="fill:#1f77b4;"/>
   </g>
   <g id="patch_111">
    <path clip-path="url(#p840b3a96be)" d="M 242.401004 273.312 
L 244.016463 273.312 
L 244.016463 142.918957 
L 242.401004 142.918957 
z
" style="fill:#1f77b4;"/>
   </g>
   <g id="patch_112">
    <path clip-path="url(#p840b3a96be)" d="M 244.016463 273.312 
L 245.631923 273.312 
L 245.631923 147.816348 
L 244.016463 147.816348 
z
" style="fill:#1f77b4;"/>
   </g>
   <g id="patch_113">
    <path clip-path="url(#p840b3a96be)" d="M 245.631923 273.312 
L 247.247382 273.312 
L 247.247382 144.143304 
L 245.631923 144.143304 
z
" style="fill:#1f77b4;"/>
   </g>
   <g id="patch_114">
    <path clip-path="url(#p840b3a96be)" d="M 247.247382 273.312 
L 248.862842 273.312 
L 248.862842 134.960696 
L 247.247382 134.960696 
z
" style="fill:#1f77b4;"/>
   </g>
   <g id="patch_115">
    <path clip-path="url(#p840b3a96be)" d="M 248.862842 273.312 
L 250.478301 273.312 
L 250.478301 142.918957 
L 248.862842 142.918957 
z
" style="fill:#1f77b4;"/>
   </g>
   <g id="patch_116">
    <path clip-path="url(#p840b3a96be)" d="M 250.478301 273.312 
L 252.093761 273.312 
L 252.093761 145.979826 
L 250.478301 145.979826 
z
" style="fill:#1f77b4;"/>
   </g>
   <g id="patch_117">
    <path clip-path="url(#p840b3a96be)" d="M 252.093761 273.312 
L 253.70922 273.312 
L 253.70922 135.57287 
L 252.093761 135.57287 
z
" style="fill:#1f77b4;"/>
   </g>
   <g id="patch_118">
    <path clip-path="url(#p840b3a96be)" d="M 253.70922 273.312 
L 255.32468 273.312 
L 255.32468 137.409391 
L 253.70922 137.409391 
z
" style="fill:#1f77b4;"/>
   </g>
   <g id="patch_119">
    <path clip-path="url(#p840b3a96be)" d="M 255.32468 273.312 
L 256.940139 273.312 
L 256.940139 121.49287 
L 255.32468 121.49287 
z
" style="fill:#1f77b4;"/>
   </g>
   <g id="patch_120">
    <path clip-path="url(#p840b3a96be)" d="M 256.940139 273.312 
L 258.555599 273.312 
L 258.555599 137.409391 
L 256.940139 137.409391 
z
" style="fill:#1f77b4;"/>
   </g>
   <g id="patch_121">
    <path clip-path="url(#p840b3a96be)" d="M 258.555599 273.312 
L 260.171058 273.312 
L 260.171058 125.165913 
L 258.555599 125.165913 
z
" style="fill:#1f77b4;"/>
   </g>
   <g id="patch_122">
    <path clip-path="url(#p840b3a96be)" d="M 260.171058 273.312 
L 261.786518 273.312 
L 261.786518 139.245913 
L 260.171058 139.245913 
z
" style="fill:#1f77b4;"/>
   </g>
   <g id="patch_123">
    <path clip-path="url(#p840b3a96be)" d="M 261.786518 273.312 
L 263.401977 273.312 
L 263.401977 130.063304 
L 261.786518 130.063304 
z
" style="fill:#1f77b4;"/>
   </g>
   <g id="patch_124">
    <path clip-path="url(#p840b3a96be)" d="M 263.401977 273.312 
L 265.017437 273.312 
L 265.017437 136.797217 
L 263.401977 136.797217 
z
" style="fill:#1f77b4;"/>
   </g>
   <g id="patch_125">
    <path clip-path="url(#p840b3a96be)" d="M 265.017437 273.312 
L 266.632896 273.312 
L 266.632896 118.432 
L 265.017437 118.432 
z
" style="fill:#1f77b4;"/>
   </g>
   <g id="patch_126">
    <path clip-path="url(#p840b3a96be)" d="M 266.632896 273.312 
L 268.248356 273.312 
L 268.248356 129.45113 
L 266.632896 129.45113 
z
" style="fill:#1f77b4;"/>
   </g>
   <g id="patch_127">
    <path clip-path="url(#p840b3a96be)" d="M 268.248356 273.312 
L 269.863815 273.312 
L 269.863815 109.249391 
L 268.248356 109.249391 
z
" style="fill:#1f77b4;"/>
   </g>
   <g id="patch_128">
    <path clip-path="url(#p840b3a96be)" d="M 269.863815 273.312 
L 271.479275 273.312 
L 271.479275 138.633739 
L 269.863815 138.633739 
z
" style="fill:#1f77b4;"/>
   </g>
   <g id="patch_129">
    <path clip-path="url(#p840b3a96be)" d="M 271.479275 273.312 
L 273.094734 273.312 
L 273.094734 97.618087 
L 271.479275 97.618087 
z
" style="fill:#1f77b4;"/>
   </g>
   <g id="patch_130">
    <path clip-path="url(#p840b3a96be)" d="M 273.094734 273.312 
L 274.710194 273.312 
L 274.710194 117.819826 
L 273.094734 117.819826 
z
" style="fill:#1f77b4;"/>
   </g>
   <g id="patch_131">
    <path clip-path="url(#p840b3a96be)" d="M 274.710194 273.312 
L 276.325653 273.312 
L 276.325653 104.352 
L 274.710194 104.352 
z
" style="fill:#1f77b4;"/>
   </g>
   <g id="patch_132">
    <path clip-path="url(#p840b3a96be)" d="M 276.325653 273.312 
L 277.941113 273.312 
L 277.941113 117.207652 
L 276.325653 117.207652 
z
" style="fill:#1f77b4;"/>
   </g>
   <g id="patch_133">
    <path clip-path="url(#p840b3a96be)" d="M 277.941113 273.312 
L 279.556572 273.312 
L 279.556572 104.964174 
L 277.941113 104.964174 
z
" style="fill:#1f77b4;"/>
   </g>
   <g id="patch_134">
    <path clip-path="url(#p840b3a96be)" d="M 279.556572 273.312 
L 281.172032 273.312 
L 281.172032 116.595478 
L 279.556572 116.595478 
z
" style="fill:#1f77b4;"/>
   </g>
   <g id="patch_135">
    <path clip-path="url(#p840b3a96be)" d="M 281.172032 273.312 
L 282.787491 273.312 
L 282.787491 127.002435 
L 281.172032 127.002435 
z
" style="fill:#1f77b4;"/>
   </g>
   <g id="patch_136">
    <path clip-path="url(#p840b3a96be)" d="M 282.787491 273.312 
L 284.402951 273.312 
L 284.402951 101.29113 
L 282.787491 101.29113 
z
" style="fill:#1f77b4;"/>
   </g>
   <g id="patch_137">
    <path clip-path="url(#p840b3a96be)" d="M 284.402951 273.312 
L 286.01841 273.312 
L 286.01841 108.025043 
L 284.402951 108.025043 
z
" style="fill:#1f77b4;"/>
   </g>
   <g id="patch_138">
    <path clip-path="url(#p840b3a96be)" d="M 286.01841 273.312 
L 287.63387 273.312 
L 287.63387 111.085913 
L 286.01841 111.085913 
z
" style="fill:#1f77b4;"/>
   </g>
   <g id="patch_139">
    <path clip-path="url(#p840b3a96be)" d="M 287.63387 273.312 
L 289.249329 273.312 
L 289.249329 123.941565 
L 287.63387 123.941565 
z
" style="fill:#1f77b4;"/>
   </g>
   <g id="patch_140">
    <path clip-path="url(#p840b3a96be)" d="M 289.249329 273.312 
L 290.864789 273.312 
L 290.864789 96.393739 
L 289.249329 96.393739 
z
" style="fill:#1f77b4;"/>
   </g>
   <g id="patch_141">
    <path clip-path="url(#p840b3a96be)" d="M 290.864789 273.312 
L 292.480248 273.312 
L 292.480248 103.739826 
L 290.864789 103.739826 
z
" style="fill:#1f77b4;"/>
   </g>
   <g id="patch_142">
    <path clip-path="url(#p840b3a96be)" d="M 292.480248 273.312 
L 294.095708 273.312 
L 294.095708 111.085913 
L 292.480248 111.085913 
z
" style="fill:#1f77b4;"/>
   </g>
   <g id="patch_143">
    <path clip-path="url(#p840b3a96be)" d="M 294.095708 273.312 
L 295.711167 273.312 
L 295.711167 94.557217 
L 294.095708 94.557217 
z
" style="fill:#1f77b4;"/>
   </g>
   <g id="patch_144">
    <path clip-path="url(#p840b3a96be)" d="M 295.711167 273.312 
L 297.326627 273.312 
L 297.326627 112.922435 
L 295.711167 112.922435 
z
" style="fill:#1f77b4;"/>
   </g>
   <g id="patch_145">
    <path clip-path="url(#p840b3a96be)" d="M 297.326627 273.312 
L 298.942087 273.312 
L 298.942087 92.108522 
L 297.326627 92.108522 
z
" style="fill:#1f77b4;"/>
   </g>
   <g id="patch_146">
    <path clip-path="url(#p840b3a96be)" d="M 298.942087 273.312 
L 300.557546 273.312 
L 300.557546 99.454609 
L 298.942087 99.454609 
z
" style="fill:#1f77b4;"/>
   </g>
   <g id="patch_147">
    <path clip-path="url(#p840b3a96be)" d="M 300.557546 273.312 
L 302.173006 273.312 
L 302.173006 93.945043 
L 300.557546 93.945043 
z
" style="fill:#1f77b4;"/>
   </g>
   <g id="patch_148">
    <path clip-path="url(#p840b3a96be)" d="M 302.173006 273.312 
L 303.788465 273.312 
L 303.788465 82.925913 
L 302.173006 82.925913 
z
" style="fill:#1f77b4;"/>
   </g>
   <g id="patch_149">
    <path clip-path="url(#p840b3a96be)" d="M 303.788465 273.312 
L 305.403925 273.312 
L 305.403925 100.678957 
L 303.788465 100.678957 
z
" style="fill:#1f77b4;"/>
   </g>
   <g id="patch_150">
    <path clip-path="url(#p840b3a96be)" d="M 305.403925 273.312 
L 307.019384 273.312 
L 307.019384 88.435478 
L 305.403925 88.435478 
z
" style="fill:#1f77b4;"/>
   </g>
   <g id="patch_151">
    <path clip-path="url(#p840b3a96be)" d="M 307.019384 273.312 
L 308.634844 273.312 
L 308.634844 100.066783 
L 307.019384 100.066783 
z
" style="fill:#1f77b4;"/>
   </g>
   <g id="patch_152">
    <path clip-path="url(#p840b3a96be)" d="M 308.634844 273.312 
L 310.250303 273.312 
L 310.250303 100.066783 
L 308.634844 100.066783 
z
" style="fill:#1f77b4;"/>
   </g>
   <g id="patch_153">
    <path clip-path="url(#p840b3a96be)" d="M 310.250303 273.312 
L 311.865763 273.312 
L 311.865763 76.192 
L 310.250303 76.192 
z
" style="fill:#1f77b4;"/>
   </g>
   <g id="patch_154">
    <path clip-path="url(#p840b3a96be)" d="M 311.865763 273.312 
L 313.481222 273.312 
L 313.481222 78.028522 
L 311.865763 78.028522 
z
" style="fill:#1f77b4;"/>
   </g>
   <g id="patch_155">
    <path clip-path="url(#p840b3a96be)" d="M 313.481222 273.312 
L 315.096682 273.312 
L 315.096682 81.701565 
L 313.481222 81.701565 
z
" style="fill:#1f77b4;"/>
   </g>
   <g id="patch_156">
    <path clip-path="url(#p840b3a96be)" d="M 315.096682 273.312 
L 316.712141 273.312 
L 316.712141 78.028522 
L 315.096682 78.028522 
z
" style="fill:#1f77b4;"/>
   </g>
   <g id="patch_157">
    <path clip-path="url(#p840b3a96be)" d="M 316.712141 273.312 
L 318.327601 273.312 
L 318.327601 83.538087 
L 316.712141 83.538087 
z
" style="fill:#1f77b4;"/>
   </g>
   <g id="patch_158">
    <path clip-path="url(#p840b3a96be)" d="M 318.327601 273.312 
L 319.94306 273.312 
L 319.94306 82.313739 
L 318.327601 82.313739 
z
" style="fill:#1f77b4;"/>
   </g>
   <g id="patch_159">
    <path clip-path="url(#p840b3a96be)" d="M 319.94306 273.312 
L 321.55852 273.312 
L 321.55852 78.028522 
L 319.94306 78.028522 
z
" style="fill:#1f77b4;"/>
   </g>
   <g id="patch_160">
    <path clip-path="url(#p840b3a96be)" d="M 321.55852 273.312 
L 323.173979 273.312 
L 323.173979 61.499826 
L 321.55852 61.499826 
z
" style="fill:#1f77b4;"/>
   </g>
   <g id="patch_161">
    <path clip-path="url(#p840b3a96be)" d="M 323.173979 273.312 
L 324.789439 273.312 
L 324.789439 65.785043 
L 323.173979 65.785043 
z
" style="fill:#1f77b4;"/>
   </g>
   <g id="patch_162">
    <path clip-path="url(#p840b3a96be)" d="M 324.789439 273.312 
L 326.404898 273.312 
L 326.404898 74.355478 
L 324.789439 74.355478 
z
" style="fill:#1f77b4;"/>
   </g>
   <g id="patch_163">
    <path clip-path="url(#p840b3a96be)" d="M 326.404898 273.312 
L 328.020358 273.312 
L 328.020358 82.313739 
L 326.404898 82.313739 
z
" style="fill:#1f77b4;"/>
   </g>
   <g id="patch_164">
    <path clip-path="url(#p840b3a96be)" d="M 328.020358 273.312 
L 329.635817 273.312 
L 329.635817 61.499826 
L 328.020358 61.499826 
z
" style="fill:#1f77b4;"/>
   </g>
   <g id="patch_165">
    <path clip-path="url(#p840b3a96be)" d="M 329.635817 273.312 
L 331.251277 273.312 
L 331.251277 90.884174 
L 329.635817 90.884174 
z
" style="fill:#1f77b4;"/>
   </g>
   <g id="patch_166">
    <path clip-path="url(#p840b3a96be)" d="M 331.251277 273.312 
L 332.866736 273.312 
L 332.866736 79.25287 
L 331.251277 79.25287 
z
" style="fill:#1f77b4;"/>
   </g>
   <g id="patch_167">
    <path clip-path="url(#p840b3a96be)" d="M 332.866736 273.312 
L 334.482196 273.312 
L 334.482196 75.579826 
L 332.866736 75.579826 
z
" style="fill:#1f77b4;"/>
   </g>
   <g id="patch_168">
    <path clip-path="url(#p840b3a96be)" d="M 334.482196 273.312 
L 336.097655 273.312 
L 336.097655 79.865043 
L 334.482196 79.865043 
z
" style="fill:#1f77b4;"/>
   </g>
   <g id="patch_169">
    <path clip-path="url(#p840b3a96be)" d="M 336.097655 273.312 
L 337.713115 273.312 
L 337.713115 78.640696 
L 336.097655 78.640696 
z
" style="fill:#1f77b4;"/>
   </g>
   <g id="patch_170">
    <path clip-path="url(#p840b3a96be)" d="M 337.713115 273.312 
L 339.328574 273.312 
L 339.328574 76.804174 
L 337.713115 76.804174 
z
" style="fill:#1f77b4;"/>
   </g>
   <g id="patch_171">
    <path clip-path="url(#p840b3a96be)" d="M 339.328574 273.312 
L 340.944034 273.312 
L 340.944034 74.355478 
L 339.328574 74.355478 
z
" style="fill:#1f77b4;"/>
   </g>
   <g id="patch_172">
    <path clip-path="url(#p840b3a96be)" d="M 340.944034 273.312 
L 342.559493 273.312 
L 342.559493 55.378087 
L 340.944034 55.378087 
z
" style="fill:#1f77b4;"/>
   </g>
   <g id="patch_173">
    <path clip-path="url(#p840b3a96be)" d="M 342.559493 273.312 
L 344.174953 273.312 
L 344.174953 71.906783 
L 342.559493 71.906783 
z
" style="fill:#1f77b4;"/>
   </g>
   <g id="patch_174">
    <path clip-path="url(#p840b3a96be)" d="M 344.174953 273.312 
L 345.790412 273.312 
L 345.790412 68.233739 
L 344.174953 68.233739 
z
" style="fill:#1f77b4;"/>
   </g>
   <g id="patch_175">
    <path clip-path="url(#p840b3a96be)" d="M 345.790412 273.312 
L 347.405872 273.312 
L 347.405872 90.272 
L 345.790412 90.272 
z
" style="fill:#1f77b4;"/>
   </g>
   <g id="patch_176">
    <path clip-path="url(#p840b3a96be)" d="M 347.405872 273.312 
L 349.021331 273.312 
L 349.021331 56.602435 
L 347.405872 56.602435 
z
" style="fill:#1f77b4;"/>
   </g>
   <g id="patch_177">
    <path clip-path="url(#p840b3a96be)" d="M 349.021331 273.312 
L 350.636791 273.312 
L 350.636791 59.05113 
L 349.021331 59.05113 
z
" style="fill:#1f77b4;"/>
   </g>
   <g id="patch_178">
    <path clip-path="url(#p840b3a96be)" d="M 350.636791 273.312 
L 352.25225 273.312 
L 352.25225 46.195478 
L 350.636791 46.195478 
z
" style="fill:#1f77b4;"/>
   </g>
   <g id="patch_179">
    <path clip-path="url(#p840b3a96be)" d="M 352.25225 273.312 
L 353.86771 273.312 
L 353.86771 44.358957 
L 352.25225 44.358957 
z
" style="fill:#1f77b4;"/>
   </g>
   <g id="patch_180">
    <path clip-path="url(#p840b3a96be)" d="M 353.86771 273.312 
L 355.483169 273.312 
L 355.483169 52.317217 
L 353.86771 52.317217 
z
" style="fill:#1f77b4;"/>
   </g>
   <g id="patch_181">
    <path clip-path="url(#p840b3a96be)" d="M 355.483169 273.312 
L 357.098629 273.312 
L 357.098629 49.256348 
L 355.483169 49.256348 
z
" style="fill:#1f77b4;"/>
   </g>
   <g id="patch_182">
    <path clip-path="url(#p840b3a96be)" d="M 357.098629 273.312 
L 358.714088 273.312 
L 358.714088 55.990261 
L 357.098629 55.990261 
z
" style="fill:#1f77b4;"/>
   </g>
   <g id="patch_183">
    <path clip-path="url(#p840b3a96be)" d="M 358.714088 273.312 
L 360.329548 273.312 
L 360.329548 34.564174 
L 358.714088 34.564174 
z
" style="fill:#1f77b4;"/>
   </g>
   <g id="patch_184">
    <path clip-path="url(#p840b3a96be)" d="M 360.329548 273.312 
L 361.945007 273.312 
L 361.945007 42.522435 
L 360.329548 42.522435 
z
" style="fill:#1f77b4;"/>
   </g>
   <g id="patch_185">
    <path clip-path="url(#p840b3a96be)" d="M 361.945007 273.312 
L 363.560467 273.312 
L 363.560467 51.09287 
L 361.945007 51.09287 
z
" style="fill:#1f77b4;"/>
   </g>
   <g id="patch_186">
    <path clip-path="url(#p840b3a96be)" d="M 363.560467 273.312 
L 365.175926 273.312 
L 365.175926 49.256348 
L 363.560467 49.256348 
z
" style="fill:#1f77b4;"/>
   </g>
   <g id="patch_187">
    <path clip-path="url(#p840b3a96be)" d="M 365.175926 273.312 
L 366.791386 273.312 
L 366.791386 37.01287 
L 365.175926 37.01287 
z
" style="fill:#1f77b4;"/>
   </g>
   <g id="patch_188">
    <path clip-path="url(#p840b3a96be)" d="M 366.791386 273.312 
L 368.406845 273.312 
L 368.406845 57.214609 
L 366.791386 57.214609 
z
" style="fill:#1f77b4;"/>
   </g>
   <g id="patch_189">
    <path clip-path="url(#p840b3a96be)" d="M 368.406845 273.312 
L 370.022305 273.312 
L 370.022305 31.503304 
L 368.406845 31.503304 
z
" style="fill:#1f77b4;"/>
   </g>
   <g id="patch_190">
    <path clip-path="url(#p840b3a96be)" d="M 370.022305 273.312 
L 371.637764 273.312 
L 371.637764 50.480696 
L 370.022305 50.480696 
z
" style="fill:#1f77b4;"/>
   </g>
   <g id="patch_191">
    <path clip-path="url(#p840b3a96be)" d="M 371.637764 273.312 
L 373.253224 273.312 
L 373.253224 36.400696 
L 371.637764 36.400696 
z
" style="fill:#1f77b4;"/>
   </g>
   <g id="patch_192">
    <path clip-path="url(#p840b3a96be)" d="M 373.253224 273.312 
L 374.868683 273.312 
L 374.868683 68.233739 
L 373.253224 68.233739 
z
" style="fill:#1f77b4;"/>
   </g>
   <g id="patch_193">
    <path clip-path="url(#p840b3a96be)" d="M 374.868683 273.312 
L 376.484143 273.312 
L 376.484143 44.97113 
L 374.868683 44.97113 
z
" style="fill:#1f77b4;"/>
   </g>
   <g id="patch_194">
    <path clip-path="url(#p840b3a96be)" d="M 376.484143 273.312 
L 378.099602 273.312 
L 378.099602 37.625043 
L 376.484143 37.625043 
z
" style="fill:#1f77b4;"/>
   </g>
   <g id="patch_195">
    <path clip-path="url(#p840b3a96be)" d="M 378.099602 273.312 
L 379.715062 273.312 
L 379.715062 38.849391 
L 378.099602 38.849391 
z
" style="fill:#1f77b4;"/>
   </g>
   <g id="patch_196">
    <path clip-path="url(#p840b3a96be)" d="M 379.715062 273.312 
L 381.330521 273.312 
L 381.330521 38.849391 
L 379.715062 38.849391 
z
" style="fill:#1f77b4;"/>
   </g>
   <g id="patch_197">
    <path clip-path="url(#p840b3a96be)" d="M 381.330521 273.312 
L 382.945981 273.312 
L 382.945981 19.872 
L 381.330521 19.872 
z
" style="fill:#1f77b4;"/>
   </g>
   <g id="patch_198">
    <path clip-path="url(#p840b3a96be)" d="M 382.945981 273.312 
L 384.56144 273.312 
L 384.56144 35.176348 
L 382.945981 35.176348 
z
" style="fill:#1f77b4;"/>
   </g>
   <g id="patch_199">
    <path clip-path="url(#p840b3a96be)" d="M 384.56144 273.312 
L 386.1769 273.312 
L 386.1769 47.419826 
L 384.56144 47.419826 
z
" style="fill:#1f77b4;"/>
   </g>
   <g id="patch_200">
    <path clip-path="url(#p840b3a96be)" d="M 386.1769 273.312 
L 387.79236 273.312 
L 387.79236 38.849391 
L 386.1769 38.849391 
z
" style="fill:#1f77b4;"/>
   </g>
   <g id="patch_201">
    <path clip-path="url(#p840b3a96be)" d="M 387.79236 273.312 
L 389.407819 273.312 
L 389.407819 40.685913 
L 387.79236 40.685913 
z
" style="fill:#1f77b4;"/>
   </g>
   <g id="patch_202">
    <path clip-path="url(#p840b3a96be)" d="M 389.407819 273.312 
L 391.023279 273.312 
L 391.023279 30.278957 
L 389.407819 30.278957 
z
" style="fill:#1f77b4;"/>
   </g>
   <g id="matplotlib.axis_1">
    <g id="xtick_1">
     <g id="line2d_1">
      <defs>
       <path d="M 0 0 
L 0 3.5 
" id="m3e9685dd70" style="stroke:#000000;stroke-width:0.8;"/>
      </defs>
      <g>
       <use style="stroke:#000000;stroke-width:0.8;" x="66.376477" xlink:href="#m3e9685dd70" y="273.312"/>
      </g>
     </g>
     <g id="text_1">
      <!-- 0.0 -->
      <g transform="translate(58.424915 287.910437)scale(0.1 -0.1)">
       <defs>
        <path d="M 2034 4250 
Q 1547 4250 1301 3770 
Q 1056 3291 1056 2328 
Q 1056 1369 1301 889 
Q 1547 409 2034 409 
Q 2525 409 2770 889 
Q 3016 1369 3016 2328 
Q 3016 3291 2770 3770 
Q 2525 4250 2034 4250 
z
M 2034 4750 
Q 2819 4750 3233 4129 
Q 3647 3509 3647 2328 
Q 3647 1150 3233 529 
Q 2819 -91 2034 -91 
Q 1250 -91 836 529 
Q 422 1150 422 2328 
Q 422 3509 836 4129 
Q 1250 4750 2034 4750 
z
" id="DejaVuSans-30" transform="scale(0.015625)"/>
        <path d="M 684 794 
L 1344 794 
L 1344 0 
L 684 0 
L 684 794 
z
" id="DejaVuSans-2e" transform="scale(0.015625)"/>
       </defs>
       <use xlink:href="#DejaVuSans-30"/>
       <use x="63.623047" xlink:href="#DejaVuSans-2e"/>
       <use x="95.410156" xlink:href="#DejaVuSans-30"/>
      </g>
     </g>
    </g>
    <g id="xtick_2">
     <g id="line2d_2">
      <g>
       <use style="stroke:#000000;stroke-width:0.8;" x="131.307386" xlink:href="#m3e9685dd70" y="273.312"/>
      </g>
     </g>
     <g id="text_2">
      <!-- 0.2 -->
      <g transform="translate(123.355824 287.910437)scale(0.1 -0.1)">
       <defs>
        <path d="M 1228 531 
L 3431 531 
L 3431 0 
L 469 0 
L 469 531 
Q 828 903 1448 1529 
Q 2069 2156 2228 2338 
Q 2531 2678 2651 2914 
Q 2772 3150 2772 3378 
Q 2772 3750 2511 3984 
Q 2250 4219 1831 4219 
Q 1534 4219 1204 4116 
Q 875 4013 500 3803 
L 500 4441 
Q 881 4594 1212 4672 
Q 1544 4750 1819 4750 
Q 2544 4750 2975 4387 
Q 3406 4025 3406 3419 
Q 3406 3131 3298 2873 
Q 3191 2616 2906 2266 
Q 2828 2175 2409 1742 
Q 1991 1309 1228 531 
z
" id="DejaVuSans-32" transform="scale(0.015625)"/>
       </defs>
       <use xlink:href="#DejaVuSans-30"/>
       <use x="63.623047" xlink:href="#DejaVuSans-2e"/>
       <use x="95.410156" xlink:href="#DejaVuSans-32"/>
      </g>
     </g>
    </g>
    <g id="xtick_3">
     <g id="line2d_3">
      <g>
       <use style="stroke:#000000;stroke-width:0.8;" x="196.238295" xlink:href="#m3e9685dd70" y="273.312"/>
      </g>
     </g>
     <g id="text_3">
      <!-- 0.4 -->
      <g transform="translate(188.286733 287.910437)scale(0.1 -0.1)">
       <defs>
        <path d="M 2419 4116 
L 825 1625 
L 2419 1625 
L 2419 4116 
z
M 2253 4666 
L 3047 4666 
L 3047 1625 
L 3713 1625 
L 3713 1100 
L 3047 1100 
L 3047 0 
L 2419 0 
L 2419 1100 
L 313 1100 
L 313 1709 
L 2253 4666 
z
" id="DejaVuSans-34" transform="scale(0.015625)"/>
       </defs>
       <use xlink:href="#DejaVuSans-30"/>
       <use x="63.623047" xlink:href="#DejaVuSans-2e"/>
       <use x="95.410156" xlink:href="#DejaVuSans-34"/>
      </g>
     </g>
    </g>
    <g id="xtick_4">
     <g id="line2d_4">
      <g>
       <use style="stroke:#000000;stroke-width:0.8;" x="261.169205" xlink:href="#m3e9685dd70" y="273.312"/>
      </g>
     </g>
     <g id="text_4">
      <!-- 0.6 -->
      <g transform="translate(253.217642 287.910437)scale(0.1 -0.1)">
       <defs>
        <path d="M 2113 2584 
Q 1688 2584 1439 2293 
Q 1191 2003 1191 1497 
Q 1191 994 1439 701 
Q 1688 409 2113 409 
Q 2538 409 2786 701 
Q 3034 994 3034 1497 
Q 3034 2003 2786 2293 
Q 2538 2584 2113 2584 
z
M 3366 4563 
L 3366 3988 
Q 3128 4100 2886 4159 
Q 2644 4219 2406 4219 
Q 1781 4219 1451 3797 
Q 1122 3375 1075 2522 
Q 1259 2794 1537 2939 
Q 1816 3084 2150 3084 
Q 2853 3084 3261 2657 
Q 3669 2231 3669 1497 
Q 3669 778 3244 343 
Q 2819 -91 2113 -91 
Q 1303 -91 875 529 
Q 447 1150 447 2328 
Q 447 3434 972 4092 
Q 1497 4750 2381 4750 
Q 2619 4750 2861 4703 
Q 3103 4656 3366 4563 
z
" id="DejaVuSans-36" transform="scale(0.015625)"/>
       </defs>
       <use xlink:href="#DejaVuSans-30"/>
       <use x="63.623047" xlink:href="#DejaVuSans-2e"/>
       <use x="95.410156" xlink:href="#DejaVuSans-36"/>
      </g>
     </g>
    </g>
    <g id="xtick_5">
     <g id="line2d_5">
      <g>
       <use style="stroke:#000000;stroke-width:0.8;" x="326.100114" xlink:href="#m3e9685dd70" y="273.312"/>
      </g>
     </g>
     <g id="text_5">
      <!-- 0.8 -->
      <g transform="translate(318.148551 287.910437)scale(0.1 -0.1)">
       <defs>
        <path d="M 2034 2216 
Q 1584 2216 1326 1975 
Q 1069 1734 1069 1313 
Q 1069 891 1326 650 
Q 1584 409 2034 409 
Q 2484 409 2743 651 
Q 3003 894 3003 1313 
Q 3003 1734 2745 1975 
Q 2488 2216 2034 2216 
z
M 1403 2484 
Q 997 2584 770 2862 
Q 544 3141 544 3541 
Q 544 4100 942 4425 
Q 1341 4750 2034 4750 
Q 2731 4750 3128 4425 
Q 3525 4100 3525 3541 
Q 3525 3141 3298 2862 
Q 3072 2584 2669 2484 
Q 3125 2378 3379 2068 
Q 3634 1759 3634 1313 
Q 3634 634 3220 271 
Q 2806 -91 2034 -91 
Q 1263 -91 848 271 
Q 434 634 434 1313 
Q 434 1759 690 2068 
Q 947 2378 1403 2484 
z
M 1172 3481 
Q 1172 3119 1398 2916 
Q 1625 2713 2034 2713 
Q 2441 2713 2670 2916 
Q 2900 3119 2900 3481 
Q 2900 3844 2670 4047 
Q 2441 4250 2034 4250 
Q 1625 4250 1398 4047 
Q 1172 3844 1172 3481 
z
" id="DejaVuSans-38" transform="scale(0.015625)"/>
       </defs>
       <use xlink:href="#DejaVuSans-30"/>
       <use x="63.623047" xlink:href="#DejaVuSans-2e"/>
       <use x="95.410156" xlink:href="#DejaVuSans-38"/>
      </g>
     </g>
    </g>
    <g id="xtick_6">
     <g id="line2d_6">
      <g>
       <use style="stroke:#000000;stroke-width:0.8;" x="391.031023" xlink:href="#m3e9685dd70" y="273.312"/>
      </g>
     </g>
     <g id="text_6">
      <!-- 1.0 -->
      <g transform="translate(383.07946 287.910437)scale(0.1 -0.1)">
       <defs>
        <path d="M 794 531 
L 1825 531 
L 1825 4091 
L 703 3866 
L 703 4441 
L 1819 4666 
L 2450 4666 
L 2450 531 
L 3481 531 
L 3481 0 
L 794 0 
L 794 531 
z
" id="DejaVuSans-31" transform="scale(0.015625)"/>
       </defs>
       <use xlink:href="#DejaVuSans-31"/>
       <use x="63.623047" xlink:href="#DejaVuSans-2e"/>
       <use x="95.410156" xlink:href="#DejaVuSans-30"/>
      </g>
     </g>
    </g>
    <g id="text_7">
     <!-- Propagation direction -->
     <g transform="translate(175.221719 301.588562)scale(0.1 -0.1)">
      <defs>
       <path d="M 1259 4147 
L 1259 2394 
L 2053 2394 
Q 2494 2394 2734 2622 
Q 2975 2850 2975 3272 
Q 2975 3691 2734 3919 
Q 2494 4147 2053 4147 
L 1259 4147 
z
M 628 4666 
L 2053 4666 
Q 2838 4666 3239 4311 
Q 3641 3956 3641 3272 
Q 3641 2581 3239 2228 
Q 2838 1875 2053 1875 
L 1259 1875 
L 1259 0 
L 628 0 
L 628 4666 
z
" id="DejaVuSans-50" transform="scale(0.015625)"/>
       <path d="M 2631 2963 
Q 2534 3019 2420 3045 
Q 2306 3072 2169 3072 
Q 1681 3072 1420 2755 
Q 1159 2438 1159 1844 
L 1159 0 
L 581 0 
L 581 3500 
L 1159 3500 
L 1159 2956 
Q 1341 3275 1631 3429 
Q 1922 3584 2338 3584 
Q 2397 3584 2469 3576 
Q 2541 3569 2628 3553 
L 2631 2963 
z
" id="DejaVuSans-72" transform="scale(0.015625)"/>
       <path d="M 1959 3097 
Q 1497 3097 1228 2736 
Q 959 2375 959 1747 
Q 959 1119 1226 758 
Q 1494 397 1959 397 
Q 2419 397 2687 759 
Q 2956 1122 2956 1747 
Q 2956 2369 2687 2733 
Q 2419 3097 1959 3097 
z
M 1959 3584 
Q 2709 3584 3137 3096 
Q 3566 2609 3566 1747 
Q 3566 888 3137 398 
Q 2709 -91 1959 -91 
Q 1206 -91 779 398 
Q 353 888 353 1747 
Q 353 2609 779 3096 
Q 1206 3584 1959 3584 
z
" id="DejaVuSans-6f" transform="scale(0.015625)"/>
       <path d="M 1159 525 
L 1159 -1331 
L 581 -1331 
L 581 3500 
L 1159 3500 
L 1159 2969 
Q 1341 3281 1617 3432 
Q 1894 3584 2278 3584 
Q 2916 3584 3314 3078 
Q 3713 2572 3713 1747 
Q 3713 922 3314 415 
Q 2916 -91 2278 -91 
Q 1894 -91 1617 61 
Q 1341 213 1159 525 
z
M 3116 1747 
Q 3116 2381 2855 2742 
Q 2594 3103 2138 3103 
Q 1681 3103 1420 2742 
Q 1159 2381 1159 1747 
Q 1159 1113 1420 752 
Q 1681 391 2138 391 
Q 2594 391 2855 752 
Q 3116 1113 3116 1747 
z
" id="DejaVuSans-70" transform="scale(0.015625)"/>
       <path d="M 2194 1759 
Q 1497 1759 1228 1600 
Q 959 1441 959 1056 
Q 959 750 1161 570 
Q 1363 391 1709 391 
Q 2188 391 2477 730 
Q 2766 1069 2766 1631 
L 2766 1759 
L 2194 1759 
z
M 3341 1997 
L 3341 0 
L 2766 0 
L 2766 531 
Q 2569 213 2275 61 
Q 1981 -91 1556 -91 
Q 1019 -91 701 211 
Q 384 513 384 1019 
Q 384 1609 779 1909 
Q 1175 2209 1959 2209 
L 2766 2209 
L 2766 2266 
Q 2766 2663 2505 2880 
Q 2244 3097 1772 3097 
Q 1472 3097 1187 3025 
Q 903 2953 641 2809 
L 641 3341 
Q 956 3463 1253 3523 
Q 1550 3584 1831 3584 
Q 2591 3584 2966 3190 
Q 3341 2797 3341 1997 
z
" id="DejaVuSans-61" transform="scale(0.015625)"/>
       <path d="M 2906 1791 
Q 2906 2416 2648 2759 
Q 2391 3103 1925 3103 
Q 1463 3103 1205 2759 
Q 947 2416 947 1791 
Q 947 1169 1205 825 
Q 1463 481 1925 481 
Q 2391 481 2648 825 
Q 2906 1169 2906 1791 
z
M 3481 434 
Q 3481 -459 3084 -895 
Q 2688 -1331 1869 -1331 
Q 1566 -1331 1297 -1286 
Q 1028 -1241 775 -1147 
L 775 -588 
Q 1028 -725 1275 -790 
Q 1522 -856 1778 -856 
Q 2344 -856 2625 -561 
Q 2906 -266 2906 331 
L 2906 616 
Q 2728 306 2450 153 
Q 2172 0 1784 0 
Q 1141 0 747 490 
Q 353 981 353 1791 
Q 353 2603 747 3093 
Q 1141 3584 1784 3584 
Q 2172 3584 2450 3431 
Q 2728 3278 2906 2969 
L 2906 3500 
L 3481 3500 
L 3481 434 
z
" id="DejaVuSans-67" transform="scale(0.015625)"/>
       <path d="M 1172 4494 
L 1172 3500 
L 2356 3500 
L 2356 3053 
L 1172 3053 
L 1172 1153 
Q 1172 725 1289 603 
Q 1406 481 1766 481 
L 2356 481 
L 2356 0 
L 1766 0 
Q 1100 0 847 248 
Q 594 497 594 1153 
L 594 3053 
L 172 3053 
L 172 3500 
L 594 3500 
L 594 4494 
L 1172 4494 
z
" id="DejaVuSans-74" transform="scale(0.015625)"/>
       <path d="M 603 3500 
L 1178 3500 
L 1178 0 
L 603 0 
L 603 3500 
z
M 603 4863 
L 1178 4863 
L 1178 4134 
L 603 4134 
L 603 4863 
z
" id="DejaVuSans-69" transform="scale(0.015625)"/>
       <path d="M 3513 2113 
L 3513 0 
L 2938 0 
L 2938 2094 
Q 2938 2591 2744 2837 
Q 2550 3084 2163 3084 
Q 1697 3084 1428 2787 
Q 1159 2491 1159 1978 
L 1159 0 
L 581 0 
L 581 3500 
L 1159 3500 
L 1159 2956 
Q 1366 3272 1645 3428 
Q 1925 3584 2291 3584 
Q 2894 3584 3203 3211 
Q 3513 2838 3513 2113 
z
" id="DejaVuSans-6e" transform="scale(0.015625)"/>
       <path id="DejaVuSans-20" transform="scale(0.015625)"/>
       <path d="M 2906 2969 
L 2906 4863 
L 3481 4863 
L 3481 0 
L 2906 0 
L 2906 525 
Q 2725 213 2448 61 
Q 2172 -91 1784 -91 
Q 1150 -91 751 415 
Q 353 922 353 1747 
Q 353 2572 751 3078 
Q 1150 3584 1784 3584 
Q 2172 3584 2448 3432 
Q 2725 3281 2906 2969 
z
M 947 1747 
Q 947 1113 1208 752 
Q 1469 391 1925 391 
Q 2381 391 2643 752 
Q 2906 1113 2906 1747 
Q 2906 2381 2643 2742 
Q 2381 3103 1925 3103 
Q 1469 3103 1208 2742 
Q 947 2381 947 1747 
z
" id="DejaVuSans-64" transform="scale(0.015625)"/>
       <path d="M 3597 1894 
L 3597 1613 
L 953 1613 
Q 991 1019 1311 708 
Q 1631 397 2203 397 
Q 2534 397 2845 478 
Q 3156 559 3463 722 
L 3463 178 
Q 3153 47 2828 -22 
Q 2503 -91 2169 -91 
Q 1331 -91 842 396 
Q 353 884 353 1716 
Q 353 2575 817 3079 
Q 1281 3584 2069 3584 
Q 2775 3584 3186 3129 
Q 3597 2675 3597 1894 
z
M 3022 2063 
Q 3016 2534 2758 2815 
Q 2500 3097 2075 3097 
Q 1594 3097 1305 2825 
Q 1016 2553 972 2059 
L 3022 2063 
z
" id="DejaVuSans-65" transform="scale(0.015625)"/>
       <path d="M 3122 3366 
L 3122 2828 
Q 2878 2963 2633 3030 
Q 2388 3097 2138 3097 
Q 1578 3097 1268 2742 
Q 959 2388 959 1747 
Q 959 1106 1268 751 
Q 1578 397 2138 397 
Q 2388 397 2633 464 
Q 2878 531 3122 666 
L 3122 134 
Q 2881 22 2623 -34 
Q 2366 -91 2075 -91 
Q 1284 -91 818 406 
Q 353 903 353 1747 
Q 353 2603 823 3093 
Q 1294 3584 2113 3584 
Q 2378 3584 2631 3529 
Q 2884 3475 3122 3366 
z
" id="DejaVuSans-63" transform="scale(0.015625)"/>
      </defs>
      <use xlink:href="#DejaVuSans-50"/>
      <use x="58.552734" xlink:href="#DejaVuSans-72"/>
      <use x="97.416016" xlink:href="#DejaVuSans-6f"/>
      <use x="158.597656" xlink:href="#DejaVuSans-70"/>
      <use x="222.074219" xlink:href="#DejaVuSans-61"/>
      <use x="283.353516" xlink:href="#DejaVuSans-67"/>
      <use x="346.830078" xlink:href="#DejaVuSans-61"/>
      <use x="408.109375" xlink:href="#DejaVuSans-74"/>
      <use x="447.318359" xlink:href="#DejaVuSans-69"/>
      <use x="475.101562" xlink:href="#DejaVuSans-6f"/>
      <use x="536.283203" xlink:href="#DejaVuSans-6e"/>
      <use x="599.662109" xlink:href="#DejaVuSans-20"/>
      <use x="631.449219" xlink:href="#DejaVuSans-64"/>
      <use x="694.925781" xlink:href="#DejaVuSans-69"/>
      <use x="722.708984" xlink:href="#DejaVuSans-72"/>
      <use x="761.572266" xlink:href="#DejaVuSans-65"/>
      <use x="823.095703" xlink:href="#DejaVuSans-63"/>
      <use x="878.076172" xlink:href="#DejaVuSans-74"/>
      <use x="917.285156" xlink:href="#DejaVuSans-69"/>
      <use x="945.068359" xlink:href="#DejaVuSans-6f"/>
      <use x="1006.25" xlink:href="#DejaVuSans-6e"/>
     </g>
    </g>
   </g>
   <g id="matplotlib.axis_2">
    <g id="ytick_1">
     <g id="line2d_7">
      <defs>
       <path d="M 0 0 
L -3.5 0 
" id="m3fad2322ed" style="stroke:#000000;stroke-width:0.8;"/>
      </defs>
      <g>
       <use style="stroke:#000000;stroke-width:0.8;" x="50.14375" xlink:href="#m3fad2322ed" y="273.312"/>
      </g>
     </g>
     <g id="text_8">
      <!-- 0.00 -->
      <g transform="translate(20.878125 277.111219)scale(0.1 -0.1)">
       <use xlink:href="#DejaVuSans-30"/>
       <use x="63.623047" xlink:href="#DejaVuSans-2e"/>
       <use x="95.410156" xlink:href="#DejaVuSans-30"/>
       <use x="159.033203" xlink:href="#DejaVuSans-30"/>
      </g>
     </g>
    </g>
    <g id="ytick_2">
     <g id="line2d_8">
      <g>
       <use style="stroke:#000000;stroke-width:0.8;" x="50.14375" xlink:href="#m3fad2322ed" y="242.850632"/>
      </g>
     </g>
     <g id="text_9">
      <!-- 0.25 -->
      <g transform="translate(20.878125 246.64985)scale(0.1 -0.1)">
       <defs>
        <path d="M 691 4666 
L 3169 4666 
L 3169 4134 
L 1269 4134 
L 1269 2991 
Q 1406 3038 1543 3061 
Q 1681 3084 1819 3084 
Q 2600 3084 3056 2656 
Q 3513 2228 3513 1497 
Q 3513 744 3044 326 
Q 2575 -91 1722 -91 
Q 1428 -91 1123 -41 
Q 819 9 494 109 
L 494 744 
Q 775 591 1075 516 
Q 1375 441 1709 441 
Q 2250 441 2565 725 
Q 2881 1009 2881 1497 
Q 2881 1984 2565 2268 
Q 2250 2553 1709 2553 
Q 1456 2553 1204 2497 
Q 953 2441 691 2322 
L 691 4666 
z
" id="DejaVuSans-35" transform="scale(0.015625)"/>
       </defs>
       <use xlink:href="#DejaVuSans-30"/>
       <use x="63.623047" xlink:href="#DejaVuSans-2e"/>
       <use x="95.410156" xlink:href="#DejaVuSans-32"/>
       <use x="159.033203" xlink:href="#DejaVuSans-35"/>
      </g>
     </g>
    </g>
    <g id="ytick_3">
     <g id="line2d_9">
      <g>
       <use style="stroke:#000000;stroke-width:0.8;" x="50.14375" xlink:href="#m3fad2322ed" y="212.389263"/>
      </g>
     </g>
     <g id="text_10">
      <!-- 0.50 -->
      <g transform="translate(20.878125 216.188482)scale(0.1 -0.1)">
       <use xlink:href="#DejaVuSans-30"/>
       <use x="63.623047" xlink:href="#DejaVuSans-2e"/>
       <use x="95.410156" xlink:href="#DejaVuSans-35"/>
       <use x="159.033203" xlink:href="#DejaVuSans-30"/>
      </g>
     </g>
    </g>
    <g id="ytick_4">
     <g id="line2d_10">
      <g>
       <use style="stroke:#000000;stroke-width:0.8;" x="50.14375" xlink:href="#m3fad2322ed" y="181.927895"/>
      </g>
     </g>
     <g id="text_11">
      <!-- 0.75 -->
      <g transform="translate(20.878125 185.727114)scale(0.1 -0.1)">
       <defs>
        <path d="M 525 4666 
L 3525 4666 
L 3525 4397 
L 1831 0 
L 1172 0 
L 2766 4134 
L 525 4134 
L 525 4666 
z
" id="DejaVuSans-37" transform="scale(0.015625)"/>
       </defs>
       <use xlink:href="#DejaVuSans-30"/>
       <use x="63.623047" xlink:href="#DejaVuSans-2e"/>
       <use x="95.410156" xlink:href="#DejaVuSans-37"/>
       <use x="159.033203" xlink:href="#DejaVuSans-35"/>
      </g>
     </g>
    </g>
    <g id="ytick_5">
     <g id="line2d_11">
      <g>
       <use style="stroke:#000000;stroke-width:0.8;" x="50.14375" xlink:href="#m3fad2322ed" y="151.466527"/>
      </g>
     </g>
     <g id="text_12">
      <!-- 1.00 -->
      <g transform="translate(20.878125 155.265745)scale(0.1 -0.1)">
       <use xlink:href="#DejaVuSans-31"/>
       <use x="63.623047" xlink:href="#DejaVuSans-2e"/>
       <use x="95.410156" xlink:href="#DejaVuSans-30"/>
       <use x="159.033203" xlink:href="#DejaVuSans-30"/>
      </g>
     </g>
    </g>
    <g id="ytick_6">
     <g id="line2d_12">
      <g>
       <use style="stroke:#000000;stroke-width:0.8;" x="50.14375" xlink:href="#m3fad2322ed" y="121.005158"/>
      </g>
     </g>
     <g id="text_13">
      <!-- 1.25 -->
      <g transform="translate(20.878125 124.804377)scale(0.1 -0.1)">
       <use xlink:href="#DejaVuSans-31"/>
       <use x="63.623047" xlink:href="#DejaVuSans-2e"/>
       <use x="95.410156" xlink:href="#DejaVuSans-32"/>
       <use x="159.033203" xlink:href="#DejaVuSans-35"/>
      </g>
     </g>
    </g>
    <g id="ytick_7">
     <g id="line2d_13">
      <g>
       <use style="stroke:#000000;stroke-width:0.8;" x="50.14375" xlink:href="#m3fad2322ed" y="90.54379"/>
      </g>
     </g>
     <g id="text_14">
      <!-- 1.50 -->
      <g transform="translate(20.878125 94.343009)scale(0.1 -0.1)">
       <use xlink:href="#DejaVuSans-31"/>
       <use x="63.623047" xlink:href="#DejaVuSans-2e"/>
       <use x="95.410156" xlink:href="#DejaVuSans-35"/>
       <use x="159.033203" xlink:href="#DejaVuSans-30"/>
      </g>
     </g>
    </g>
    <g id="ytick_8">
     <g id="line2d_14">
      <g>
       <use style="stroke:#000000;stroke-width:0.8;" x="50.14375" xlink:href="#m3fad2322ed" y="60.082422"/>
      </g>
     </g>
     <g id="text_15">
      <!-- 1.75 -->
      <g transform="translate(20.878125 63.88164)scale(0.1 -0.1)">
       <use xlink:href="#DejaVuSans-31"/>
       <use x="63.623047" xlink:href="#DejaVuSans-2e"/>
       <use x="95.410156" xlink:href="#DejaVuSans-37"/>
       <use x="159.033203" xlink:href="#DejaVuSans-35"/>
      </g>
     </g>
    </g>
    <g id="ytick_9">
     <g id="line2d_15">
      <g>
       <use style="stroke:#000000;stroke-width:0.8;" x="50.14375" xlink:href="#m3fad2322ed" y="29.621053"/>
      </g>
     </g>
     <g id="text_16">
      <!-- 2.00 -->
      <g transform="translate(20.878125 33.420272)scale(0.1 -0.1)">
       <use xlink:href="#DejaVuSans-32"/>
       <use x="63.623047" xlink:href="#DejaVuSans-2e"/>
       <use x="95.410156" xlink:href="#DejaVuSans-30"/>
       <use x="159.033203" xlink:href="#DejaVuSans-30"/>
      </g>
     </g>
    </g>
    <g id="text_17">
     <!-- Probability density -->
     <g transform="translate(14.798438 186.606781)rotate(-90)scale(0.1 -0.1)">
      <defs>
       <path d="M 3116 1747 
Q 3116 2381 2855 2742 
Q 2594 3103 2138 3103 
Q 1681 3103 1420 2742 
Q 1159 2381 1159 1747 
Q 1159 1113 1420 752 
Q 1681 391 2138 391 
Q 2594 391 2855 752 
Q 3116 1113 3116 1747 
z
M 1159 2969 
Q 1341 3281 1617 3432 
Q 1894 3584 2278 3584 
Q 2916 3584 3314 3078 
Q 3713 2572 3713 1747 
Q 3713 922 3314 415 
Q 2916 -91 2278 -91 
Q 1894 -91 1617 61 
Q 1341 213 1159 525 
L 1159 0 
L 581 0 
L 581 4863 
L 1159 4863 
L 1159 2969 
z
" id="DejaVuSans-62" transform="scale(0.015625)"/>
       <path d="M 603 4863 
L 1178 4863 
L 1178 0 
L 603 0 
L 603 4863 
z
" id="DejaVuSans-6c" transform="scale(0.015625)"/>
       <path d="M 2059 -325 
Q 1816 -950 1584 -1140 
Q 1353 -1331 966 -1331 
L 506 -1331 
L 506 -850 
L 844 -850 
Q 1081 -850 1212 -737 
Q 1344 -625 1503 -206 
L 1606 56 
L 191 3500 
L 800 3500 
L 1894 763 
L 2988 3500 
L 3597 3500 
L 2059 -325 
z
" id="DejaVuSans-79" transform="scale(0.015625)"/>
       <path d="M 2834 3397 
L 2834 2853 
Q 2591 2978 2328 3040 
Q 2066 3103 1784 3103 
Q 1356 3103 1142 2972 
Q 928 2841 928 2578 
Q 928 2378 1081 2264 
Q 1234 2150 1697 2047 
L 1894 2003 
Q 2506 1872 2764 1633 
Q 3022 1394 3022 966 
Q 3022 478 2636 193 
Q 2250 -91 1575 -91 
Q 1294 -91 989 -36 
Q 684 19 347 128 
L 347 722 
Q 666 556 975 473 
Q 1284 391 1588 391 
Q 1994 391 2212 530 
Q 2431 669 2431 922 
Q 2431 1156 2273 1281 
Q 2116 1406 1581 1522 
L 1381 1569 
Q 847 1681 609 1914 
Q 372 2147 372 2553 
Q 372 3047 722 3315 
Q 1072 3584 1716 3584 
Q 2034 3584 2315 3537 
Q 2597 3491 2834 3397 
z
" id="DejaVuSans-73" transform="scale(0.015625)"/>
      </defs>
      <use xlink:href="#DejaVuSans-50"/>
      <use x="58.552734" xlink:href="#DejaVuSans-72"/>
      <use x="97.416016" xlink:href="#DejaVuSans-6f"/>
      <use x="158.597656" xlink:href="#DejaVuSans-62"/>
      <use x="222.074219" xlink:href="#DejaVuSans-61"/>
      <use x="283.353516" xlink:href="#DejaVuSans-62"/>
      <use x="346.830078" xlink:href="#DejaVuSans-69"/>
      <use x="374.613281" xlink:href="#DejaVuSans-6c"/>
      <use x="402.396484" xlink:href="#DejaVuSans-69"/>
      <use x="430.179688" xlink:href="#DejaVuSans-74"/>
      <use x="469.388672" xlink:href="#DejaVuSans-79"/>
      <use x="528.568359" xlink:href="#DejaVuSans-20"/>
      <use x="560.355469" xlink:href="#DejaVuSans-64"/>
      <use x="623.832031" xlink:href="#DejaVuSans-65"/>
      <use x="685.355469" xlink:href="#DejaVuSans-6e"/>
      <use x="748.734375" xlink:href="#DejaVuSans-73"/>
      <use x="800.833984" xlink:href="#DejaVuSans-69"/>
      <use x="828.617188" xlink:href="#DejaVuSans-74"/>
      <use x="867.826172" xlink:href="#DejaVuSans-79"/>
     </g>
    </g>
   </g>
   <g id="line2d_16">
    <path clip-path="url(#p840b3a96be)" d="M 66.376477 273.312 
L 391.031023 29.621053 
L 391.031023 29.621053 
" style="fill:none;stroke:#ff7f0e;stroke-linecap:square;stroke-width:1.5;"/>
   </g>
   <g id="patch_203">
    <path d="M 50.14375 273.312 
L 50.14375 7.2 
" style="fill:none;stroke:#000000;stroke-linecap:square;stroke-linejoin:miter;stroke-width:0.8;"/>
   </g>
   <g id="patch_204">
    <path d="M 407.26375 273.312 
L 407.26375 7.2 
" style="fill:none;stroke:#000000;stroke-linecap:square;stroke-linejoin:miter;stroke-width:0.8;"/>
   </g>
   <g id="patch_205">
    <path d="M 50.14375 273.312 
L 407.26375 273.312 
" style="fill:none;stroke:#000000;stroke-linecap:square;stroke-linejoin:miter;stroke-width:0.8;"/>
   </g>
   <g id="patch_206">
    <path d="M 50.14375 7.2 
L 407.26375 7.2 
" style="fill:none;stroke:#000000;stroke-linecap:square;stroke-linejoin:miter;stroke-width:0.8;"/>
   </g>
  </g>
 </g>
 <defs>
  <clipPath id="p840b3a96be">
   <rect height="266.112" width="357.12" x="50.14375" y="7.2"/>
  </clipPath>
 </defs>
</svg>
