<?xml version="1.0" encoding="utf-8" standalone="no"?>
<!DOCTYPE svg PUBLIC "-//W3C//DTD SVG 1.1//EN"
  "http://www.w3.org/Graphics/SVG/1.1/DTD/svg11.dtd">
<svg height="310.86825pt" version="1.1" viewBox="0 0 408.10125 310.86825" width="408.10125pt" xmlns="http://www.w3.org/2000/svg" xmlns:xlink="http://www.w3.org/1999/xlink">
 <metadata>
  <rdf:RDF xmlns:cc="http://creativecommons.org/ns#" xmlns:dc="http://purl.org/dc/elements/1.1/" xmlns:rdf="http://www.w3.org/1999/02/22-rdf-syntax-ns#">
   <cc:Work>
    <dc:type rdf:resource="http://purl.org/dc/dcmitype/StillImage"/>
    <dc:date>2021-07-07T04:36:17.187727</dc:date>
    <dc:format>image/svg+xml</dc:format>
    <dc:creator>
     <cc:Agent>
      <dc:title>Matplotlib v3.4.2, https://matplotlib.org/</dc:title>
     </cc:Agent>
    </dc:creator>
   </cc:Work>
  </rdf:RDF>
 </metadata>
 <defs>
  <style type="text/css">*{stroke-linecap:butt;stroke-linejoin:round;}</style>
 </defs>
 <g id="figure_1">
  <g id="patch_1">
   <path d="M 0 310.86825 
L 408.10125 310.86825 
L 408.10125 0 
L 0 0 
z
" style="fill:#ffffff;"/>
  </g>
  <g id="axes_1">
   <g id="patch_2">
    <path d="M 43.78125 273.312 
L 400.90125 273.312 
L 400.90125 7.2 
L 43.78125 7.2 
z
" style="fill:#ffffff;"/>
   </g>
   <g id="patch_3">
    <path clip-path="url(#p81f3bfe9cd)" d="M 61.801347 273.312 
L 63.415598 273.312 
L 63.415598 269.767385 
L 61.801347 269.767385 
z
" style="fill:#1f77b4;"/>
   </g>
   <g id="patch_4">
    <path clip-path="url(#p81f3bfe9cd)" d="M 63.415598 273.312 
L 65.029848 273.312 
L 65.029848 267.995077 
L 63.415598 267.995077 
z
" style="fill:#1f77b4;"/>
   </g>
   <g id="patch_5">
    <path clip-path="url(#p81f3bfe9cd)" d="M 65.029848 273.312 
L 66.644099 273.312 
L 66.644099 269.176615 
L 65.029848 269.176615 
z
" style="fill:#1f77b4;"/>
   </g>
   <g id="patch_6">
    <path clip-path="url(#p81f3bfe9cd)" d="M 66.644099 273.312 
L 68.25835 273.312 
L 68.25835 267.995077 
L 66.644099 267.995077 
z
" style="fill:#1f77b4;"/>
   </g>
   <g id="patch_7">
    <path clip-path="url(#p81f3bfe9cd)" d="M 68.25835 273.312 
L 69.872601 273.312 
L 69.872601 269.176615 
L 68.25835 269.176615 
z
" style="fill:#1f77b4;"/>
   </g>
   <g id="patch_8">
    <path clip-path="url(#p81f3bfe9cd)" d="M 69.872601 273.312 
L 71.486852 273.312 
L 71.486852 265.041231 
L 69.872601 265.041231 
z
" style="fill:#1f77b4;"/>
   </g>
   <g id="patch_9">
    <path clip-path="url(#p81f3bfe9cd)" d="M 71.486852 273.312 
L 73.101103 273.312 
L 73.101103 267.995077 
L 71.486852 267.995077 
z
" style="fill:#1f77b4;"/>
   </g>
   <g id="patch_10">
    <path clip-path="url(#p81f3bfe9cd)" d="M 73.101103 273.312 
L 74.715354 273.312 
L 74.715354 266.222769 
L 73.101103 266.222769 
z
" style="fill:#1f77b4;"/>
   </g>
   <g id="patch_11">
    <path clip-path="url(#p81f3bfe9cd)" d="M 74.715354 273.312 
L 76.329605 273.312 
L 76.329605 262.678154 
L 74.715354 262.678154 
z
" style="fill:#1f77b4;"/>
   </g>
   <g id="patch_12">
    <path clip-path="url(#p81f3bfe9cd)" d="M 76.329605 273.312 
L 77.943856 273.312 
L 77.943856 262.678154 
L 76.329605 262.678154 
z
" style="fill:#1f77b4;"/>
   </g>
   <g id="patch_13">
    <path clip-path="url(#p81f3bfe9cd)" d="M 77.943856 273.312 
L 79.558107 273.312 
L 79.558107 262.678154 
L 77.943856 262.678154 
z
" style="fill:#1f77b4;"/>
   </g>
   <g id="patch_14">
    <path clip-path="url(#p81f3bfe9cd)" d="M 79.558107 273.312 
L 81.172358 273.312 
L 81.172358 257.952 
L 79.558107 257.952 
z
" style="fill:#1f77b4;"/>
   </g>
   <g id="patch_15">
    <path clip-path="url(#p81f3bfe9cd)" d="M 81.172358 273.312 
L 82.786609 273.312 
L 82.786609 259.133538 
L 81.172358 259.133538 
z
" style="fill:#1f77b4;"/>
   </g>
   <g id="patch_16">
    <path clip-path="url(#p81f3bfe9cd)" d="M 82.786609 273.312 
L 84.40086 273.312 
L 84.40086 259.133538 
L 82.786609 259.133538 
z
" style="fill:#1f77b4;"/>
   </g>
   <g id="patch_17">
    <path clip-path="url(#p81f3bfe9cd)" d="M 84.40086 273.312 
L 86.01511 273.312 
L 86.01511 253.225846 
L 84.40086 253.225846 
z
" style="fill:#1f77b4;"/>
   </g>
   <g id="patch_18">
    <path clip-path="url(#p81f3bfe9cd)" d="M 86.01511 273.312 
L 87.629361 273.312 
L 87.629361 254.998154 
L 86.01511 254.998154 
z
" style="fill:#1f77b4;"/>
   </g>
   <g id="patch_19">
    <path clip-path="url(#p81f3bfe9cd)" d="M 87.629361 273.312 
L 89.243612 273.312 
L 89.243612 251.453538 
L 87.629361 251.453538 
z
" style="fill:#1f77b4;"/>
   </g>
   <g id="patch_20">
    <path clip-path="url(#p81f3bfe9cd)" d="M 89.243612 273.312 
L 90.857863 273.312 
L 90.857863 252.044308 
L 89.243612 252.044308 
z
" style="fill:#1f77b4;"/>
   </g>
   <g id="patch_21">
    <path clip-path="url(#p81f3bfe9cd)" d="M 90.857863 273.312 
L 92.472114 273.312 
L 92.472114 250.272 
L 90.857863 250.272 
z
" style="fill:#1f77b4;"/>
   </g>
   <g id="patch_22">
    <path clip-path="url(#p81f3bfe9cd)" d="M 92.472114 273.312 
L 94.086365 273.312 
L 94.086365 243.182769 
L 92.472114 243.182769 
z
" style="fill:#1f77b4;"/>
   </g>
   <g id="patch_23">
    <path clip-path="url(#p81f3bfe9cd)" d="M 94.086365 273.312 
L 95.700616 273.312 
L 95.700616 247.318154 
L 94.086365 247.318154 
z
" style="fill:#1f77b4;"/>
   </g>
   <g id="patch_24">
    <path clip-path="url(#p81f3bfe9cd)" d="M 95.700616 273.312 
L 97.314867 273.312 
L 97.314867 246.727385 
L 95.700616 246.727385 
z
" style="fill:#1f77b4;"/>
   </g>
   <g id="patch_25">
    <path clip-path="url(#p81f3bfe9cd)" d="M 97.314867 273.312 
L 98.929118 273.312 
L 98.929118 239.638154 
L 97.314867 239.638154 
z
" style="fill:#1f77b4;"/>
   </g>
   <g id="patch_26">
    <path clip-path="url(#p81f3bfe9cd)" d="M 98.929118 273.312 
L 100.543369 273.312 
L 100.543369 243.182769 
L 98.929118 243.182769 
z
" style="fill:#1f77b4;"/>
   </g>
   <g id="patch_27">
    <path clip-path="url(#p81f3bfe9cd)" d="M 100.543369 273.312 
L 102.15762 273.312 
L 102.15762 247.318154 
L 100.543369 247.318154 
z
" style="fill:#1f77b4;"/>
   </g>
   <g id="patch_28">
    <path clip-path="url(#p81f3bfe9cd)" d="M 102.15762 273.312 
L 103.771871 273.312 
L 103.771871 238.456615 
L 102.15762 238.456615 
z
" style="fill:#1f77b4;"/>
   </g>
   <g id="patch_29">
    <path clip-path="url(#p81f3bfe9cd)" d="M 103.771871 273.312 
L 105.386121 273.312 
L 105.386121 240.819692 
L 103.771871 240.819692 
z
" style="fill:#1f77b4;"/>
   </g>
   <g id="patch_30">
    <path clip-path="url(#p81f3bfe9cd)" d="M 105.386121 273.312 
L 107.000372 273.312 
L 107.000372 244.955077 
L 105.386121 244.955077 
z
" style="fill:#1f77b4;"/>
   </g>
   <g id="patch_31">
    <path clip-path="url(#p81f3bfe9cd)" d="M 107.000372 273.312 
L 108.614623 273.312 
L 108.614623 239.047385 
L 107.000372 239.047385 
z
" style="fill:#1f77b4;"/>
   </g>
   <g id="patch_32">
    <path clip-path="url(#p81f3bfe9cd)" d="M 108.614623 273.312 
L 110.228874 273.312 
L 110.228874 229.004308 
L 108.614623 229.004308 
z
" style="fill:#1f77b4;"/>
   </g>
   <g id="patch_33">
    <path clip-path="url(#p81f3bfe9cd)" d="M 110.228874 273.312 
L 111.843125 273.312 
L 111.843125 234.321231 
L 110.228874 234.321231 
z
" style="fill:#1f77b4;"/>
   </g>
   <g id="patch_34">
    <path clip-path="url(#p81f3bfe9cd)" d="M 111.843125 273.312 
L 113.457376 273.312 
L 113.457376 235.502769 
L 111.843125 235.502769 
z
" style="fill:#1f77b4;"/>
   </g>
   <g id="patch_35">
    <path clip-path="url(#p81f3bfe9cd)" d="M 113.457376 273.312 
L 115.071627 273.312 
L 115.071627 231.958154 
L 113.457376 231.958154 
z
" style="fill:#1f77b4;"/>
   </g>
   <g id="patch_36">
    <path clip-path="url(#p81f3bfe9cd)" d="M 115.071627 273.312 
L 116.685878 273.312 
L 116.685878 227.232 
L 115.071627 227.232 
z
" style="fill:#1f77b4;"/>
   </g>
   <g id="patch_37">
    <path clip-path="url(#p81f3bfe9cd)" d="M 116.685878 273.312 
L 118.300129 273.312 
L 118.300129 234.912 
L 116.685878 234.912 
z
" style="fill:#1f77b4;"/>
   </g>
   <g id="patch_38">
    <path clip-path="url(#p81f3bfe9cd)" d="M 118.300129 273.312 
L 119.91438 273.312 
L 119.91438 241.410462 
L 118.300129 241.410462 
z
" style="fill:#1f77b4;"/>
   </g>
   <g id="patch_39">
    <path clip-path="url(#p81f3bfe9cd)" d="M 119.91438 273.312 
L 121.528631 273.312 
L 121.528631 230.776615 
L 119.91438 230.776615 
z
" style="fill:#1f77b4;"/>
   </g>
   <g id="patch_40">
    <path clip-path="url(#p81f3bfe9cd)" d="M 121.528631 273.312 
L 123.142882 273.312 
L 123.142882 231.367385 
L 121.528631 231.367385 
z
" style="fill:#1f77b4;"/>
   </g>
   <g id="patch_41">
    <path clip-path="url(#p81f3bfe9cd)" d="M 123.142882 273.312 
L 124.757133 273.312 
L 124.757133 223.096615 
L 123.142882 223.096615 
z
" style="fill:#1f77b4;"/>
   </g>
   <g id="patch_42">
    <path clip-path="url(#p81f3bfe9cd)" d="M 124.757133 273.312 
L 126.371383 273.312 
L 126.371383 230.776615 
L 124.757133 230.776615 
z
" style="fill:#1f77b4;"/>
   </g>
   <g id="patch_43">
    <path clip-path="url(#p81f3bfe9cd)" d="M 126.371383 273.312 
L 127.985634 273.312 
L 127.985634 226.050462 
L 126.371383 226.050462 
z
" style="fill:#1f77b4;"/>
   </g>
   <g id="patch_44">
    <path clip-path="url(#p81f3bfe9cd)" d="M 127.985634 273.312 
L 129.599885 273.312 
L 129.599885 227.822769 
L 127.985634 227.822769 
z
" style="fill:#1f77b4;"/>
   </g>
   <g id="patch_45">
    <path clip-path="url(#p81f3bfe9cd)" d="M 129.599885 273.312 
L 131.214136 273.312 
L 131.214136 231.367385 
L 129.599885 231.367385 
z
" style="fill:#1f77b4;"/>
   </g>
   <g id="patch_46">
    <path clip-path="url(#p81f3bfe9cd)" d="M 131.214136 273.312 
L 132.828387 273.312 
L 132.828387 212.462769 
L 131.214136 212.462769 
z
" style="fill:#1f77b4;"/>
   </g>
   <g id="patch_47">
    <path clip-path="url(#p81f3bfe9cd)" d="M 132.828387 273.312 
L 134.442638 273.312 
L 134.442638 211.281231 
L 132.828387 211.281231 
z
" style="fill:#1f77b4;"/>
   </g>
   <g id="patch_48">
    <path clip-path="url(#p81f3bfe9cd)" d="M 134.442638 273.312 
L 136.056889 273.312 
L 136.056889 224.868923 
L 134.442638 224.868923 
z
" style="fill:#1f77b4;"/>
   </g>
   <g id="patch_49">
    <path clip-path="url(#p81f3bfe9cd)" d="M 136.056889 273.312 
L 137.67114 273.312 
L 137.67114 230.776615 
L 136.056889 230.776615 
z
" style="fill:#1f77b4;"/>
   </g>
   <g id="patch_50">
    <path clip-path="url(#p81f3bfe9cd)" d="M 137.67114 273.312 
L 139.285391 273.312 
L 139.285391 212.462769 
L 137.67114 212.462769 
z
" style="fill:#1f77b4;"/>
   </g>
   <g id="patch_51">
    <path clip-path="url(#p81f3bfe9cd)" d="M 139.285391 273.312 
L 140.899642 273.312 
L 140.899642 219.552 
L 139.285391 219.552 
z
" style="fill:#1f77b4;"/>
   </g>
   <g id="patch_52">
    <path clip-path="url(#p81f3bfe9cd)" d="M 140.899642 273.312 
L 142.513893 273.312 
L 142.513893 217.188923 
L 140.899642 217.188923 
z
" style="fill:#1f77b4;"/>
   </g>
   <g id="patch_53">
    <path clip-path="url(#p81f3bfe9cd)" d="M 142.513893 273.312 
L 144.128144 273.312 
L 144.128144 209.508923 
L 142.513893 209.508923 
z
" style="fill:#1f77b4;"/>
   </g>
   <g id="patch_54">
    <path clip-path="url(#p81f3bfe9cd)" d="M 144.128144 273.312 
L 145.742395 273.312 
L 145.742395 206.555077 
L 144.128144 206.555077 
z
" style="fill:#1f77b4;"/>
   </g>
   <g id="patch_55">
    <path clip-path="url(#p81f3bfe9cd)" d="M 145.742395 273.312 
L 147.356645 273.312 
L 147.356645 208.918154 
L 145.742395 208.918154 
z
" style="fill:#1f77b4;"/>
   </g>
   <g id="patch_56">
    <path clip-path="url(#p81f3bfe9cd)" d="M 147.356645 273.312 
L 148.970896 273.312 
L 148.970896 207.145846 
L 147.356645 207.145846 
z
" style="fill:#1f77b4;"/>
   </g>
   <g id="patch_57">
    <path clip-path="url(#p81f3bfe9cd)" d="M 148.970896 273.312 
L 150.585147 273.312 
L 150.585147 200.647385 
L 148.970896 200.647385 
z
" style="fill:#1f77b4;"/>
   </g>
   <g id="patch_58">
    <path clip-path="url(#p81f3bfe9cd)" d="M 150.585147 273.312 
L 152.199398 273.312 
L 152.199398 211.281231 
L 150.585147 211.281231 
z
" style="fill:#1f77b4;"/>
   </g>
   <g id="patch_59">
    <path clip-path="url(#p81f3bfe9cd)" d="M 152.199398 273.312 
L 153.813649 273.312 
L 153.813649 204.782769 
L 152.199398 204.782769 
z
" style="fill:#1f77b4;"/>
   </g>
   <g id="patch_60">
    <path clip-path="url(#p81f3bfe9cd)" d="M 153.813649 273.312 
L 155.4279 273.312 
L 155.4279 202.419692 
L 153.813649 202.419692 
z
" style="fill:#1f77b4;"/>
   </g>
   <g id="patch_61">
    <path clip-path="url(#p81f3bfe9cd)" d="M 155.4279 273.312 
L 157.042151 273.312 
L 157.042151 216.007385 
L 155.4279 216.007385 
z
" style="fill:#1f77b4;"/>
   </g>
   <g id="patch_62">
    <path clip-path="url(#p81f3bfe9cd)" d="M 157.042151 273.312 
L 158.656402 273.312 
L 158.656402 201.828923 
L 157.042151 201.828923 
z
" style="fill:#1f77b4;"/>
   </g>
   <g id="patch_63">
    <path clip-path="url(#p81f3bfe9cd)" d="M 158.656402 273.312 
L 160.270653 273.312 
L 160.270653 202.419692 
L 158.656402 202.419692 
z
" style="fill:#1f77b4;"/>
   </g>
   <g id="patch_64">
    <path clip-path="url(#p81f3bfe9cd)" d="M 160.270653 273.312 
L 161.884904 273.312 
L 161.884904 200.056615 
L 160.270653 200.056615 
z
" style="fill:#1f77b4;"/>
   </g>
   <g id="patch_65">
    <path clip-path="url(#p81f3bfe9cd)" d="M 161.884904 273.312 
L 163.499155 273.312 
L 163.499155 203.601231 
L 161.884904 203.601231 
z
" style="fill:#1f77b4;"/>
   </g>
   <g id="patch_66">
    <path clip-path="url(#p81f3bfe9cd)" d="M 163.499155 273.312 
L 165.113406 273.312 
L 165.113406 203.601231 
L 163.499155 203.601231 
z
" style="fill:#1f77b4;"/>
   </g>
   <g id="patch_67">
    <path clip-path="url(#p81f3bfe9cd)" d="M 165.113406 273.312 
L 166.727657 273.312 
L 166.727657 192.967385 
L 165.113406 192.967385 
z
" style="fill:#1f77b4;"/>
   </g>
   <g id="patch_68">
    <path clip-path="url(#p81f3bfe9cd)" d="M 166.727657 273.312 
L 168.341907 273.312 
L 168.341907 185.878154 
L 166.727657 185.878154 
z
" style="fill:#1f77b4;"/>
   </g>
   <g id="patch_69">
    <path clip-path="url(#p81f3bfe9cd)" d="M 168.341907 273.312 
L 169.956158 273.312 
L 169.956158 202.419692 
L 168.341907 202.419692 
z
" style="fill:#1f77b4;"/>
   </g>
   <g id="patch_70">
    <path clip-path="url(#p81f3bfe9cd)" d="M 169.956158 273.312 
L 171.570409 273.312 
L 171.570409 185.287385 
L 169.956158 185.287385 
z
" style="fill:#1f77b4;"/>
   </g>
   <g id="patch_71">
    <path clip-path="url(#p81f3bfe9cd)" d="M 171.570409 273.312 
L 173.18466 273.312 
L 173.18466 194.739692 
L 171.570409 194.739692 
z
" style="fill:#1f77b4;"/>
   </g>
   <g id="patch_72">
    <path clip-path="url(#p81f3bfe9cd)" d="M 173.18466 273.312 
L 174.798911 273.312 
L 174.798911 181.742769 
L 173.18466 181.742769 
z
" style="fill:#1f77b4;"/>
   </g>
   <g id="patch_73">
    <path clip-path="url(#p81f3bfe9cd)" d="M 174.798911 273.312 
L 176.413162 273.312 
L 176.413162 175.244308 
L 174.798911 175.244308 
z
" style="fill:#1f77b4;"/>
   </g>
   <g id="patch_74">
    <path clip-path="url(#p81f3bfe9cd)" d="M 176.413162 273.312 
L 178.027413 273.312 
L 178.027413 191.195077 
L 176.413162 191.195077 
z
" style="fill:#1f77b4;"/>
   </g>
   <g id="patch_75">
    <path clip-path="url(#p81f3bfe9cd)" d="M 178.027413 273.312 
L 179.641664 273.312 
L 179.641664 181.152 
L 178.027413 181.152 
z
" style="fill:#1f77b4;"/>
   </g>
   <g id="patch_76">
    <path clip-path="url(#p81f3bfe9cd)" d="M 179.641664 273.312 
L 181.255915 273.312 
L 181.255915 186.468923 
L 179.641664 186.468923 
z
" style="fill:#1f77b4;"/>
   </g>
   <g id="patch_77">
    <path clip-path="url(#p81f3bfe9cd)" d="M 181.255915 273.312 
L 182.870166 273.312 
L 182.870166 185.287385 
L 181.255915 185.287385 
z
" style="fill:#1f77b4;"/>
   </g>
   <g id="patch_78">
    <path clip-path="url(#p81f3bfe9cd)" d="M 182.870166 273.312 
L 184.484417 273.312 
L 184.484417 178.788923 
L 182.870166 178.788923 
z
" style="fill:#1f77b4;"/>
   </g>
   <g id="patch_79">
    <path clip-path="url(#p81f3bfe9cd)" d="M 184.484417 273.312 
L 186.098668 273.312 
L 186.098668 203.010462 
L 184.484417 203.010462 
z
" style="fill:#1f77b4;"/>
   </g>
   <g id="patch_80">
    <path clip-path="url(#p81f3bfe9cd)" d="M 186.098668 273.312 
L 187.712919 273.312 
L 187.712919 185.878154 
L 186.098668 185.878154 
z
" style="fill:#1f77b4;"/>
   </g>
   <g id="patch_81">
    <path clip-path="url(#p81f3bfe9cd)" d="M 187.712919 273.312 
L 189.327169 273.312 
L 189.327169 187.650462 
L 187.712919 187.650462 
z
" style="fill:#1f77b4;"/>
   </g>
   <g id="patch_82">
    <path clip-path="url(#p81f3bfe9cd)" d="M 189.327169 273.312 
L 190.94142 273.312 
L 190.94142 181.152 
L 189.327169 181.152 
z
" style="fill:#1f77b4;"/>
   </g>
   <g id="patch_83">
    <path clip-path="url(#p81f3bfe9cd)" d="M 190.94142 273.312 
L 192.555671 273.312 
L 192.555671 174.062769 
L 190.94142 174.062769 
z
" style="fill:#1f77b4;"/>
   </g>
   <g id="patch_84">
    <path clip-path="url(#p81f3bfe9cd)" d="M 192.555671 273.312 
L 194.169922 273.312 
L 194.169922 193.558154 
L 192.555671 193.558154 
z
" style="fill:#1f77b4;"/>
   </g>
   <g id="patch_85">
    <path clip-path="url(#p81f3bfe9cd)" d="M 194.169922 273.312 
L 195.784173 273.312 
L 195.784173 181.742769 
L 194.169922 181.742769 
z
" style="fill:#1f77b4;"/>
   </g>
   <g id="patch_86">
    <path clip-path="url(#p81f3bfe9cd)" d="M 195.784173 273.312 
L 197.398424 273.312 
L 197.398424 177.607385 
L 195.784173 177.607385 
z
" style="fill:#1f77b4;"/>
   </g>
   <g id="patch_87">
    <path clip-path="url(#p81f3bfe9cd)" d="M 197.398424 273.312 
L 199.012675 273.312 
L 199.012675 182.333538 
L 197.398424 182.333538 
z
" style="fill:#1f77b4;"/>
   </g>
   <g id="patch_88">
    <path clip-path="url(#p81f3bfe9cd)" d="M 199.012675 273.312 
L 200.626926 273.312 
L 200.626926 178.788923 
L 199.012675 178.788923 
z
" style="fill:#1f77b4;"/>
   </g>
   <g id="patch_89">
    <path clip-path="url(#p81f3bfe9cd)" d="M 200.626926 273.312 
L 202.241177 273.312 
L 202.241177 161.065846 
L 200.626926 161.065846 
z
" style="fill:#1f77b4;"/>
   </g>
   <g id="patch_90">
    <path clip-path="url(#p81f3bfe9cd)" d="M 202.241177 273.312 
L 203.855428 273.312 
L 203.855428 188.832 
L 202.241177 188.832 
z
" style="fill:#1f77b4;"/>
   </g>
   <g id="patch_91">
    <path clip-path="url(#p81f3bfe9cd)" d="M 203.855428 273.312 
L 205.469679 273.312 
L 205.469679 158.702769 
L 203.855428 158.702769 
z
" style="fill:#1f77b4;"/>
   </g>
   <g id="patch_92">
    <path clip-path="url(#p81f3bfe9cd)" d="M 205.469679 273.312 
L 207.08393 273.312 
L 207.08393 171.699692 
L 205.469679 171.699692 
z
" style="fill:#1f77b4;"/>
   </g>
   <g id="patch_93">
    <path clip-path="url(#p81f3bfe9cd)" d="M 207.08393 273.312 
L 208.698181 273.312 
L 208.698181 171.108923 
L 207.08393 171.108923 
z
" style="fill:#1f77b4;"/>
   </g>
   <g id="patch_94">
    <path clip-path="url(#p81f3bfe9cd)" d="M 208.698181 273.312 
L 210.312431 273.312 
L 210.312431 156.339692 
L 208.698181 156.339692 
z
" style="fill:#1f77b4;"/>
   </g>
   <g id="patch_95">
    <path clip-path="url(#p81f3bfe9cd)" d="M 210.312431 273.312 
L 211.926682 273.312 
L 211.926682 163.428923 
L 210.312431 163.428923 
z
" style="fill:#1f77b4;"/>
   </g>
   <g id="patch_96">
    <path clip-path="url(#p81f3bfe9cd)" d="M 211.926682 273.312 
L 213.540933 273.312 
L 213.540933 160.475077 
L 211.926682 160.475077 
z
" style="fill:#1f77b4;"/>
   </g>
   <g id="patch_97">
    <path clip-path="url(#p81f3bfe9cd)" d="M 213.540933 273.312 
L 215.155184 273.312 
L 215.155184 170.518154 
L 213.540933 170.518154 
z
" style="fill:#1f77b4;"/>
   </g>
   <g id="patch_98">
    <path clip-path="url(#p81f3bfe9cd)" d="M 215.155184 273.312 
L 216.769435 273.312 
L 216.769435 155.158154 
L 215.155184 155.158154 
z
" style="fill:#1f77b4;"/>
   </g>
   <g id="patch_99">
    <path clip-path="url(#p81f3bfe9cd)" d="M 216.769435 273.312 
L 218.383686 273.312 
L 218.383686 158.112 
L 216.769435 158.112 
z
" style="fill:#1f77b4;"/>
   </g>
   <g id="patch_100">
    <path clip-path="url(#p81f3bfe9cd)" d="M 218.383686 273.312 
L 219.997937 273.312 
L 219.997937 168.155077 
L 218.383686 168.155077 
z
" style="fill:#1f77b4;"/>
   </g>
   <g id="patch_101">
    <path clip-path="url(#p81f3bfe9cd)" d="M 219.997937 273.312 
L 221.612188 273.312 
L 221.612188 152.204308 
L 219.997937 152.204308 
z
" style="fill:#1f77b4;"/>
   </g>
   <g id="patch_102">
    <path clip-path="url(#p81f3bfe9cd)" d="M 221.612188 273.312 
L 223.226439 273.312 
L 223.226439 161.065846 
L 221.612188 161.065846 
z
" style="fill:#1f77b4;"/>
   </g>
   <g id="patch_103">
    <path clip-path="url(#p81f3bfe9cd)" d="M 223.226439 273.312 
L 224.84069 273.312 
L 224.84069 147.478154 
L 223.226439 147.478154 
z
" style="fill:#1f77b4;"/>
   </g>
   <g id="patch_104">
    <path clip-path="url(#p81f3bfe9cd)" d="M 224.84069 273.312 
L 226.454941 273.312 
L 226.454941 135.662769 
L 224.84069 135.662769 
z
" style="fill:#1f77b4;"/>
   </g>
   <g id="patch_105">
    <path clip-path="url(#p81f3bfe9cd)" d="M 226.454941 273.312 
L 228.069192 273.312 
L 228.069192 145.115077 
L 226.454941 145.115077 
z
" style="fill:#1f77b4;"/>
   </g>
   <g id="patch_106">
    <path clip-path="url(#p81f3bfe9cd)" d="M 228.069192 273.312 
L 229.683443 273.312 
L 229.683443 144.524308 
L 228.069192 144.524308 
z
" style="fill:#1f77b4;"/>
   </g>
   <g id="patch_107">
    <path clip-path="url(#p81f3bfe9cd)" d="M 229.683443 273.312 
L 231.297693 273.312 
L 231.297693 149.250462 
L 229.683443 149.250462 
z
" style="fill:#1f77b4;"/>
   </g>
   <g id="patch_108">
    <path clip-path="url(#p81f3bfe9cd)" d="M 231.297693 273.312 
L 232.911944 273.312 
L 232.911944 151.613538 
L 231.297693 151.613538 
z
" style="fill:#1f77b4;"/>
   </g>
   <g id="patch_109">
    <path clip-path="url(#p81f3bfe9cd)" d="M 232.911944 273.312 
L 234.526195 273.312 
L 234.526195 136.253538 
L 232.911944 136.253538 
z
" style="fill:#1f77b4;"/>
   </g>
   <g id="patch_110">
    <path clip-path="url(#p81f3bfe9cd)" d="M 234.526195 273.312 
L 236.140446 273.312 
L 236.140446 155.158154 
L 234.526195 155.158154 
z
" style="fill:#1f77b4;"/>
   </g>
   <g id="patch_111">
    <path clip-path="url(#p81f3bfe9cd)" d="M 236.140446 273.312 
L 237.754697 273.312 
L 237.754697 146.296615 
L 236.140446 146.296615 
z
" style="fill:#1f77b4;"/>
   </g>
   <g id="patch_112">
    <path clip-path="url(#p81f3bfe9cd)" d="M 237.754697 273.312 
L 239.368948 273.312 
L 239.368948 147.478154 
L 237.754697 147.478154 
z
" style="fill:#1f77b4;"/>
   </g>
   <g id="patch_113">
    <path clip-path="url(#p81f3bfe9cd)" d="M 239.368948 273.312 
L 240.983199 273.312 
L 240.983199 159.293538 
L 239.368948 159.293538 
z
" style="fill:#1f77b4;"/>
   </g>
   <g id="patch_114">
    <path clip-path="url(#p81f3bfe9cd)" d="M 240.983199 273.312 
L 242.59745 273.312 
L 242.59745 144.524308 
L 240.983199 144.524308 
z
" style="fill:#1f77b4;"/>
   </g>
   <g id="patch_115">
    <path clip-path="url(#p81f3bfe9cd)" d="M 242.59745 273.312 
L 244.211701 273.312 
L 244.211701 136.844308 
L 242.59745 136.844308 
z
" style="fill:#1f77b4;"/>
   </g>
   <g id="patch_116">
    <path clip-path="url(#p81f3bfe9cd)" d="M 244.211701 273.312 
L 245.825952 273.312 
L 245.825952 138.025846 
L 244.211701 138.025846 
z
" style="fill:#1f77b4;"/>
   </g>
   <g id="patch_117">
    <path clip-path="url(#p81f3bfe9cd)" d="M 245.825952 273.312 
L 247.440203 273.312 
L 247.440203 145.705846 
L 245.825952 145.705846 
z
" style="fill:#1f77b4;"/>
   </g>
   <g id="patch_118">
    <path clip-path="url(#p81f3bfe9cd)" d="M 247.440203 273.312 
L 249.054454 273.312 
L 249.054454 137.435077 
L 247.440203 137.435077 
z
" style="fill:#1f77b4;"/>
   </g>
   <g id="patch_119">
    <path clip-path="url(#p81f3bfe9cd)" d="M 249.054454 273.312 
L 250.668704 273.312 
L 250.668704 146.296615 
L 249.054454 146.296615 
z
" style="fill:#1f77b4;"/>
   </g>
   <g id="patch_120">
    <path clip-path="url(#p81f3bfe9cd)" d="M 250.668704 273.312 
L 252.282955 273.312 
L 252.282955 130.936615 
L 250.668704 130.936615 
z
" style="fill:#1f77b4;"/>
   </g>
   <g id="patch_121">
    <path clip-path="url(#p81f3bfe9cd)" d="M 252.282955 273.312 
L 253.897206 273.312 
L 253.897206 133.890462 
L 252.282955 133.890462 
z
" style="fill:#1f77b4;"/>
   </g>
   <g id="patch_122">
    <path clip-path="url(#p81f3bfe9cd)" d="M 253.897206 273.312 
L 255.511457 273.312 
L 255.511457 125.028923 
L 253.897206 125.028923 
z
" style="fill:#1f77b4;"/>
   </g>
   <g id="patch_123">
    <path clip-path="url(#p81f3bfe9cd)" d="M 255.511457 273.312 
L 257.125708 273.312 
L 257.125708 124.438154 
L 255.511457 124.438154 
z
" style="fill:#1f77b4;"/>
   </g>
   <g id="patch_124">
    <path clip-path="url(#p81f3bfe9cd)" d="M 257.125708 273.312 
L 258.739959 273.312 
L 258.739959 123.256615 
L 257.125708 123.256615 
z
" style="fill:#1f77b4;"/>
   </g>
   <g id="patch_125">
    <path clip-path="url(#p81f3bfe9cd)" d="M 258.739959 273.312 
L 260.35421 273.312 
L 260.35421 119.121231 
L 258.739959 119.121231 
z
" style="fill:#1f77b4;"/>
   </g>
   <g id="patch_126">
    <path clip-path="url(#p81f3bfe9cd)" d="M 260.35421 273.312 
L 261.968461 273.312 
L 261.968461 139.207385 
L 260.35421 139.207385 
z
" style="fill:#1f77b4;"/>
   </g>
   <g id="patch_127">
    <path clip-path="url(#p81f3bfe9cd)" d="M 261.968461 273.312 
L 263.582712 273.312 
L 263.582712 110.259692 
L 261.968461 110.259692 
z
" style="fill:#1f77b4;"/>
   </g>
   <g id="patch_128">
    <path clip-path="url(#p81f3bfe9cd)" d="M 263.582712 273.312 
L 265.196963 273.312 
L 265.196963 125.028923 
L 263.582712 125.028923 
z
" style="fill:#1f77b4;"/>
   </g>
   <g id="patch_129">
    <path clip-path="url(#p81f3bfe9cd)" d="M 265.196963 273.312 
L 266.811214 273.312 
L 266.811214 134.481231 
L 265.196963 134.481231 
z
" style="fill:#1f77b4;"/>
   </g>
   <g id="patch_130">
    <path clip-path="url(#p81f3bfe9cd)" d="M 266.811214 273.312 
L 268.425465 273.312 
L 268.425465 119.121231 
L 266.811214 119.121231 
z
" style="fill:#1f77b4;"/>
   </g>
   <g id="patch_131">
    <path clip-path="url(#p81f3bfe9cd)" d="M 268.425465 273.312 
L 270.039716 273.312 
L 270.039716 117.939692 
L 268.425465 117.939692 
z
" style="fill:#1f77b4;"/>
   </g>
   <g id="patch_132">
    <path clip-path="url(#p81f3bfe9cd)" d="M 270.039716 273.312 
L 271.653966 273.312 
L 271.653966 143.342769 
L 270.039716 143.342769 
z
" style="fill:#1f77b4;"/>
   </g>
   <g id="patch_133">
    <path clip-path="url(#p81f3bfe9cd)" d="M 271.653966 273.312 
L 273.268217 273.312 
L 273.268217 96.081231 
L 271.653966 96.081231 
z
" style="fill:#1f77b4;"/>
   </g>
   <g id="patch_134">
    <path clip-path="url(#p81f3bfe9cd)" d="M 273.268217 273.312 
L 274.882468 273.312 
L 274.882468 125.028923 
L 273.268217 125.028923 
z
" style="fill:#1f77b4;"/>
   </g>
   <g id="patch_135">
    <path clip-path="url(#p81f3bfe9cd)" d="M 274.882468 273.312 
L 276.496719 273.312 
L 276.496719 114.985846 
L 274.882468 114.985846 
z
" style="fill:#1f77b4;"/>
   </g>
   <g id="patch_136">
    <path clip-path="url(#p81f3bfe9cd)" d="M 276.496719 273.312 
L 278.11097 273.312 
L 278.11097 99.035077 
L 276.496719 99.035077 
z
" style="fill:#1f77b4;"/>
   </g>
   <g id="patch_137">
    <path clip-path="url(#p81f3bfe9cd)" d="M 278.11097 273.312 
L 279.725221 273.312 
L 279.725221 117.939692 
L 278.11097 117.939692 
z
" style="fill:#1f77b4;"/>
   </g>
   <g id="patch_138">
    <path clip-path="url(#p81f3bfe9cd)" d="M 279.725221 273.312 
L 281.339472 273.312 
L 281.339472 125.028923 
L 279.725221 125.028923 
z
" style="fill:#1f77b4;"/>
   </g>
   <g id="patch_139">
    <path clip-path="url(#p81f3bfe9cd)" d="M 281.339472 273.312 
L 282.953723 273.312 
L 282.953723 110.259692 
L 281.339472 110.259692 
z
" style="fill:#1f77b4;"/>
   </g>
   <g id="patch_140">
    <path clip-path="url(#p81f3bfe9cd)" d="M 282.953723 273.312 
L 284.567974 273.312 
L 284.567974 112.622769 
L 282.953723 112.622769 
z
" style="fill:#1f77b4;"/>
   </g>
   <g id="patch_141">
    <path clip-path="url(#p81f3bfe9cd)" d="M 284.567974 273.312 
L 286.182225 273.312 
L 286.182225 119.121231 
L 284.567974 119.121231 
z
" style="fill:#1f77b4;"/>
   </g>
   <g id="patch_142">
    <path clip-path="url(#p81f3bfe9cd)" d="M 286.182225 273.312 
L 287.796476 273.312 
L 287.796476 109.668923 
L 286.182225 109.668923 
z
" style="fill:#1f77b4;"/>
   </g>
   <g id="patch_143">
    <path clip-path="url(#p81f3bfe9cd)" d="M 287.796476 273.312 
L 289.410727 273.312 
L 289.410727 101.988923 
L 287.796476 101.988923 
z
" style="fill:#1f77b4;"/>
   </g>
   <g id="patch_144">
    <path clip-path="url(#p81f3bfe9cd)" d="M 289.410727 273.312 
L 291.024978 273.312 
L 291.024978 114.985846 
L 289.410727 114.985846 
z
" style="fill:#1f77b4;"/>
   </g>
   <g id="patch_145">
    <path clip-path="url(#p81f3bfe9cd)" d="M 291.024978 273.312 
L 292.639228 273.312 
L 292.639228 114.395077 
L 291.024978 114.395077 
z
" style="fill:#1f77b4;"/>
   </g>
   <g id="patch_146">
    <path clip-path="url(#p81f3bfe9cd)" d="M 292.639228 273.312 
L 294.253479 273.312 
L 294.253479 87.219692 
L 292.639228 87.219692 
z
" style="fill:#1f77b4;"/>
   </g>
   <g id="patch_147">
    <path clip-path="url(#p81f3bfe9cd)" d="M 294.253479 273.312 
L 295.86773 273.312 
L 295.86773 117.939692 
L 294.253479 117.939692 
z
" style="fill:#1f77b4;"/>
   </g>
   <g id="patch_148">
    <path clip-path="url(#p81f3bfe9cd)" d="M 295.86773 273.312 
L 297.481981 273.312 
L 297.481981 95.490462 
L 295.86773 95.490462 
z
" style="fill:#1f77b4;"/>
   </g>
   <g id="patch_149">
    <path clip-path="url(#p81f3bfe9cd)" d="M 297.481981 273.312 
L 299.096232 273.312 
L 299.096232 103.170462 
L 297.481981 103.170462 
z
" style="fill:#1f77b4;"/>
   </g>
   <g id="patch_150">
    <path clip-path="url(#p81f3bfe9cd)" d="M 299.096232 273.312 
L 300.710483 273.312 
L 300.710483 112.622769 
L 299.096232 112.622769 
z
" style="fill:#1f77b4;"/>
   </g>
   <g id="patch_151">
    <path clip-path="url(#p81f3bfe9cd)" d="M 300.710483 273.312 
L 302.324734 273.312 
L 302.324734 93.718154 
L 300.710483 93.718154 
z
" style="fill:#1f77b4;"/>
   </g>
   <g id="patch_152">
    <path clip-path="url(#p81f3bfe9cd)" d="M 302.324734 273.312 
L 303.938985 273.312 
L 303.938985 106.715077 
L 302.324734 106.715077 
z
" style="fill:#1f77b4;"/>
   </g>
   <g id="patch_153">
    <path clip-path="url(#p81f3bfe9cd)" d="M 303.938985 273.312 
L 305.553236 273.312 
L 305.553236 93.127385 
L 303.938985 93.127385 
z
" style="fill:#1f77b4;"/>
   </g>
   <g id="patch_154">
    <path clip-path="url(#p81f3bfe9cd)" d="M 305.553236 273.312 
L 307.167487 273.312 
L 307.167487 94.899692 
L 305.553236 94.899692 
z
" style="fill:#1f77b4;"/>
   </g>
   <g id="patch_155">
    <path clip-path="url(#p81f3bfe9cd)" d="M 307.167487 273.312 
L 308.781738 273.312 
L 308.781738 87.810462 
L 307.167487 87.810462 
z
" style="fill:#1f77b4;"/>
   </g>
   <g id="patch_156">
    <path clip-path="url(#p81f3bfe9cd)" d="M 308.781738 273.312 
L 310.395989 273.312 
L 310.395989 84.856615 
L 308.781738 84.856615 
z
" style="fill:#1f77b4;"/>
   </g>
   <g id="patch_157">
    <path clip-path="url(#p81f3bfe9cd)" d="M 310.395989 273.312 
L 312.01024 273.312 
L 312.01024 102.579692 
L 310.395989 102.579692 
z
" style="fill:#1f77b4;"/>
   </g>
   <g id="patch_158">
    <path clip-path="url(#p81f3bfe9cd)" d="M 312.01024 273.312 
L 313.62449 273.312 
L 313.62449 90.764308 
L 312.01024 90.764308 
z
" style="fill:#1f77b4;"/>
   </g>
   <g id="patch_159">
    <path clip-path="url(#p81f3bfe9cd)" d="M 313.62449 273.312 
L 315.238741 273.312 
L 315.238741 75.995077 
L 313.62449 75.995077 
z
" style="fill:#1f77b4;"/>
   </g>
   <g id="patch_160">
    <path clip-path="url(#p81f3bfe9cd)" d="M 315.238741 273.312 
L 316.852992 273.312 
L 316.852992 92.536615 
L 315.238741 92.536615 
z
" style="fill:#1f77b4;"/>
   </g>
   <g id="patch_161">
    <path clip-path="url(#p81f3bfe9cd)" d="M 316.852992 273.312 
L 318.467243 273.312 
L 318.467243 105.533538 
L 316.852992 105.533538 
z
" style="fill:#1f77b4;"/>
   </g>
   <g id="patch_162">
    <path clip-path="url(#p81f3bfe9cd)" d="M 318.467243 273.312 
L 320.081494 273.312 
L 320.081494 83.675077 
L 318.467243 83.675077 
z
" style="fill:#1f77b4;"/>
   </g>
   <g id="patch_163">
    <path clip-path="url(#p81f3bfe9cd)" d="M 320.081494 273.312 
L 321.695745 273.312 
L 321.695745 76.585846 
L 320.081494 76.585846 
z
" style="fill:#1f77b4;"/>
   </g>
   <g id="patch_164">
    <path clip-path="url(#p81f3bfe9cd)" d="M 321.695745 273.312 
L 323.309996 273.312 
L 323.309996 82.493538 
L 321.695745 82.493538 
z
" style="fill:#1f77b4;"/>
   </g>
   <g id="patch_165">
    <path clip-path="url(#p81f3bfe9cd)" d="M 323.309996 273.312 
L 324.924247 273.312 
L 324.924247 74.813538 
L 323.309996 74.813538 
z
" style="fill:#1f77b4;"/>
   </g>
   <g id="patch_166">
    <path clip-path="url(#p81f3bfe9cd)" d="M 324.924247 273.312 
L 326.538498 273.312 
L 326.538498 69.496615 
L 324.924247 69.496615 
z
" style="fill:#1f77b4;"/>
   </g>
   <g id="patch_167">
    <path clip-path="url(#p81f3bfe9cd)" d="M 326.538498 273.312 
L 328.152749 273.312 
L 328.152749 79.539692 
L 326.538498 79.539692 
z
" style="fill:#1f77b4;"/>
   </g>
   <g id="patch_168">
    <path clip-path="url(#p81f3bfe9cd)" d="M 328.152749 273.312 
L 329.767 273.312 
L 329.767 54.727385 
L 328.152749 54.727385 
z
" style="fill:#1f77b4;"/>
   </g>
   <g id="patch_169">
    <path clip-path="url(#p81f3bfe9cd)" d="M 329.767 273.312 
L 331.381251 273.312 
L 331.381251 77.767385 
L 329.767 77.767385 
z
" style="fill:#1f77b4;"/>
   </g>
   <g id="patch_170">
    <path clip-path="url(#p81f3bfe9cd)" d="M 331.381251 273.312 
L 332.995502 273.312 
L 332.995502 85.447385 
L 331.381251 85.447385 
z
" style="fill:#1f77b4;"/>
   </g>
   <g id="patch_171">
    <path clip-path="url(#p81f3bfe9cd)" d="M 332.995502 273.312 
L 334.609752 273.312 
L 334.609752 68.905846 
L 332.995502 68.905846 
z
" style="fill:#1f77b4;"/>
   </g>
   <g id="patch_172">
    <path clip-path="url(#p81f3bfe9cd)" d="M 334.609752 273.312 
L 336.224003 273.312 
L 336.224003 79.539692 
L 334.609752 79.539692 
z
" style="fill:#1f77b4;"/>
   </g>
   <g id="patch_173">
    <path clip-path="url(#p81f3bfe9cd)" d="M 336.224003 273.312 
L 337.838254 273.312 
L 337.838254 71.859692 
L 336.224003 71.859692 
z
" style="fill:#1f77b4;"/>
   </g>
   <g id="patch_174">
    <path clip-path="url(#p81f3bfe9cd)" d="M 337.838254 273.312 
L 339.452505 273.312 
L 339.452505 52.364308 
L 337.838254 52.364308 
z
" style="fill:#1f77b4;"/>
   </g>
   <g id="patch_175">
    <path clip-path="url(#p81f3bfe9cd)" d="M 339.452505 273.312 
L 341.066756 273.312 
L 341.066756 78.358154 
L 339.452505 78.358154 
z
" style="fill:#1f77b4;"/>
   </g>
   <g id="patch_176">
    <path clip-path="url(#p81f3bfe9cd)" d="M 341.066756 273.312 
L 342.681007 273.312 
L 342.681007 94.308923 
L 341.066756 94.308923 
z
" style="fill:#1f77b4;"/>
   </g>
   <g id="patch_177">
    <path clip-path="url(#p81f3bfe9cd)" d="M 342.681007 273.312 
L 344.295258 273.312 
L 344.295258 78.948923 
L 342.681007 78.948923 
z
" style="fill:#1f77b4;"/>
   </g>
   <g id="patch_178">
    <path clip-path="url(#p81f3bfe9cd)" d="M 344.295258 273.312 
L 345.909509 273.312 
L 345.909509 87.810462 
L 344.295258 87.810462 
z
" style="fill:#1f77b4;"/>
   </g>
   <g id="patch_179">
    <path clip-path="url(#p81f3bfe9cd)" d="M 345.909509 273.312 
L 347.52376 273.312 
L 347.52376 68.315077 
L 345.909509 68.315077 
z
" style="fill:#1f77b4;"/>
   </g>
   <g id="patch_180">
    <path clip-path="url(#p81f3bfe9cd)" d="M 347.52376 273.312 
L 349.138011 273.312 
L 349.138011 65.952 
L 347.52376 65.952 
z
" style="fill:#1f77b4;"/>
   </g>
   <g id="patch_181">
    <path clip-path="url(#p81f3bfe9cd)" d="M 349.138011 273.312 
L 350.752262 273.312 
L 350.752262 54.727385 
L 349.138011 54.727385 
z
" style="fill:#1f77b4;"/>
   </g>
   <g id="patch_182">
    <path clip-path="url(#p81f3bfe9cd)" d="M 350.752262 273.312 
L 352.366513 273.312 
L 352.366513 61.816615 
L 350.752262 61.816615 
z
" style="fill:#1f77b4;"/>
   </g>
   <g id="patch_183">
    <path clip-path="url(#p81f3bfe9cd)" d="M 352.366513 273.312 
L 353.980764 273.312 
L 353.980764 55.908923 
L 352.366513 55.908923 
z
" style="fill:#1f77b4;"/>
   </g>
   <g id="patch_184">
    <path clip-path="url(#p81f3bfe9cd)" d="M 353.980764 273.312 
L 355.595014 273.312 
L 355.595014 42.321231 
L 353.980764 42.321231 
z
" style="fill:#1f77b4;"/>
   </g>
   <g id="patch_185">
    <path clip-path="url(#p81f3bfe9cd)" d="M 355.595014 273.312 
L 357.209265 273.312 
L 357.209265 67.133538 
L 355.595014 67.133538 
z
" style="fill:#1f77b4;"/>
   </g>
   <g id="patch_186">
    <path clip-path="url(#p81f3bfe9cd)" d="M 357.209265 273.312 
L 358.823516 273.312 
L 358.823516 39.367385 
L 357.209265 39.367385 
z
" style="fill:#1f77b4;"/>
   </g>
   <g id="patch_187">
    <path clip-path="url(#p81f3bfe9cd)" d="M 358.823516 273.312 
L 360.437767 273.312 
L 360.437767 56.499692 
L 358.823516 56.499692 
z
" style="fill:#1f77b4;"/>
   </g>
   <g id="patch_188">
    <path clip-path="url(#p81f3bfe9cd)" d="M 360.437767 273.312 
L 362.052018 273.312 
L 362.052018 53.545846 
L 360.437767 53.545846 
z
" style="fill:#1f77b4;"/>
   </g>
   <g id="patch_189">
    <path clip-path="url(#p81f3bfe9cd)" d="M 362.052018 273.312 
L 363.666269 273.312 
L 363.666269 55.908923 
L 362.052018 55.908923 
z
" style="fill:#1f77b4;"/>
   </g>
   <g id="patch_190">
    <path clip-path="url(#p81f3bfe9cd)" d="M 363.666269 273.312 
L 365.28052 273.312 
L 365.28052 55.908923 
L 363.666269 55.908923 
z
" style="fill:#1f77b4;"/>
   </g>
   <g id="patch_191">
    <path clip-path="url(#p81f3bfe9cd)" d="M 365.28052 273.312 
L 366.894771 273.312 
L 366.894771 68.315077 
L 365.28052 68.315077 
z
" style="fill:#1f77b4;"/>
   </g>
   <g id="patch_192">
    <path clip-path="url(#p81f3bfe9cd)" d="M 366.894771 273.312 
L 368.509022 273.312 
L 368.509022 44.093538 
L 366.894771 44.093538 
z
" style="fill:#1f77b4;"/>
   </g>
   <g id="patch_193">
    <path clip-path="url(#p81f3bfe9cd)" d="M 368.509022 273.312 
L 370.123273 273.312 
L 370.123273 57.681231 
L 368.509022 57.681231 
z
" style="fill:#1f77b4;"/>
   </g>
   <g id="patch_194">
    <path clip-path="url(#p81f3bfe9cd)" d="M 370.123273 273.312 
L 371.737524 273.312 
L 371.737524 52.955077 
L 370.123273 52.955077 
z
" style="fill:#1f77b4;"/>
   </g>
   <g id="patch_195">
    <path clip-path="url(#p81f3bfe9cd)" d="M 371.737524 273.312 
L 373.351775 273.312 
L 373.351775 51.182769 
L 371.737524 51.182769 
z
" style="fill:#1f77b4;"/>
   </g>
   <g id="patch_196">
    <path clip-path="url(#p81f3bfe9cd)" d="M 373.351775 273.312 
L 374.966025 273.312 
L 374.966025 19.872 
L 373.351775 19.872 
z
" style="fill:#1f77b4;"/>
   </g>
   <g id="patch_197">
    <path clip-path="url(#p81f3bfe9cd)" d="M 374.966025 273.312 
L 376.580276 273.312 
L 376.580276 25.779692 
L 374.966025 25.779692 
z
" style="fill:#1f77b4;"/>
   </g>
   <g id="patch_198">
    <path clip-path="url(#p81f3bfe9cd)" d="M 376.580276 273.312 
L 378.194527 273.312 
L 378.194527 50.001231 
L 376.580276 50.001231 
z
" style="fill:#1f77b4;"/>
   </g>
   <g id="patch_199">
    <path clip-path="url(#p81f3bfe9cd)" d="M 378.194527 273.312 
L 379.808778 273.312 
L 379.808778 39.367385 
L 378.194527 39.367385 
z
" style="fill:#1f77b4;"/>
   </g>
   <g id="patch_200">
    <path clip-path="url(#p81f3bfe9cd)" d="M 379.808778 273.312 
L 381.423029 273.312 
L 381.423029 33.459692 
L 379.808778 33.459692 
z
" style="fill:#1f77b4;"/>
   </g>
   <g id="patch_201">
    <path clip-path="url(#p81f3bfe9cd)" d="M 381.423029 273.312 
L 383.03728 273.312 
L 383.03728 22.235077 
L 381.423029 22.235077 
z
" style="fill:#1f77b4;"/>
   </g>
   <g id="patch_202">
    <path clip-path="url(#p81f3bfe9cd)" d="M 383.03728 273.312 
L 384.651531 273.312 
L 384.651531 46.456615 
L 383.03728 46.456615 
z
" style="fill:#1f77b4;"/>
   </g>
   <g id="matplotlib.axis_1">
    <g id="xtick_1">
     <g id="line2d_1">
      <defs>
       <path d="M 0 0 
L 0 3.5 
" id="m49ad91a6ac" style="stroke:#000000;stroke-width:0.8;"/>
      </defs>
      <g>
       <use style="stroke:#000000;stroke-width:0.8;" x="60.013977" xlink:href="#m49ad91a6ac" y="273.312"/>
      </g>
     </g>
     <g id="text_1">
      <!-- 0.0 -->
      <g transform="translate(52.062415 287.910437)scale(0.1 -0.1)">
       <defs>
        <path d="M 2034 4250 
Q 1547 4250 1301 3770 
Q 1056 3291 1056 2328 
Q 1056 1369 1301 889 
Q 1547 409 2034 409 
Q 2525 409 2770 889 
Q 3016 1369 3016 2328 
Q 3016 3291 2770 3770 
Q 2525 4250 2034 4250 
z
M 2034 4750 
Q 2819 4750 3233 4129 
Q 3647 3509 3647 2328 
Q 3647 1150 3233 529 
Q 2819 -91 2034 -91 
Q 1250 -91 836 529 
Q 422 1150 422 2328 
Q 422 3509 836 4129 
Q 1250 4750 2034 4750 
z
" id="DejaVuSans-30" transform="scale(0.015625)"/>
        <path d="M 684 794 
L 1344 794 
L 1344 0 
L 684 0 
L 684 794 
z
" id="DejaVuSans-2e" transform="scale(0.015625)"/>
       </defs>
       <use xlink:href="#DejaVuSans-30"/>
       <use x="63.623047" xlink:href="#DejaVuSans-2e"/>
       <use x="95.410156" xlink:href="#DejaVuSans-30"/>
      </g>
     </g>
    </g>
    <g id="xtick_2">
     <g id="line2d_2">
      <g>
       <use style="stroke:#000000;stroke-width:0.8;" x="124.944886" xlink:href="#m49ad91a6ac" y="273.312"/>
      </g>
     </g>
     <g id="text_2">
      <!-- 0.2 -->
      <g transform="translate(116.993324 287.910437)scale(0.1 -0.1)">
       <defs>
        <path d="M 1228 531 
L 3431 531 
L 3431 0 
L 469 0 
L 469 531 
Q 828 903 1448 1529 
Q 2069 2156 2228 2338 
Q 2531 2678 2651 2914 
Q 2772 3150 2772 3378 
Q 2772 3750 2511 3984 
Q 2250 4219 1831 4219 
Q 1534 4219 1204 4116 
Q 875 4013 500 3803 
L 500 4441 
Q 881 4594 1212 4672 
Q 1544 4750 1819 4750 
Q 2544 4750 2975 4387 
Q 3406 4025 3406 3419 
Q 3406 3131 3298 2873 
Q 3191 2616 2906 2266 
Q 2828 2175 2409 1742 
Q 1991 1309 1228 531 
z
" id="DejaVuSans-32" transform="scale(0.015625)"/>
       </defs>
       <use xlink:href="#DejaVuSans-30"/>
       <use x="63.623047" xlink:href="#DejaVuSans-2e"/>
       <use x="95.410156" xlink:href="#DejaVuSans-32"/>
      </g>
     </g>
    </g>
    <g id="xtick_3">
     <g id="line2d_3">
      <g>
       <use style="stroke:#000000;stroke-width:0.8;" x="189.875795" xlink:href="#m49ad91a6ac" y="273.312"/>
      </g>
     </g>
     <g id="text_3">
      <!-- 0.4 -->
      <g transform="translate(181.924233 287.910437)scale(0.1 -0.1)">
       <defs>
        <path d="M 2419 4116 
L 825 1625 
L 2419 1625 
L 2419 4116 
z
M 2253 4666 
L 3047 4666 
L 3047 1625 
L 3713 1625 
L 3713 1100 
L 3047 1100 
L 3047 0 
L 2419 0 
L 2419 1100 
L 313 1100 
L 313 1709 
L 2253 4666 
z
" id="DejaVuSans-34" transform="scale(0.015625)"/>
       </defs>
       <use xlink:href="#DejaVuSans-30"/>
       <use x="63.623047" xlink:href="#DejaVuSans-2e"/>
       <use x="95.410156" xlink:href="#DejaVuSans-34"/>
      </g>
     </g>
    </g>
    <g id="xtick_4">
     <g id="line2d_4">
      <g>
       <use style="stroke:#000000;stroke-width:0.8;" x="254.806705" xlink:href="#m49ad91a6ac" y="273.312"/>
      </g>
     </g>
     <g id="text_4">
      <!-- 0.6 -->
      <g transform="translate(246.855142 287.910437)scale(0.1 -0.1)">
       <defs>
        <path d="M 2113 2584 
Q 1688 2584 1439 2293 
Q 1191 2003 1191 1497 
Q 1191 994 1439 701 
Q 1688 409 2113 409 
Q 2538 409 2786 701 
Q 3034 994 3034 1497 
Q 3034 2003 2786 2293 
Q 2538 2584 2113 2584 
z
M 3366 4563 
L 3366 3988 
Q 3128 4100 2886 4159 
Q 2644 4219 2406 4219 
Q 1781 4219 1451 3797 
Q 1122 3375 1075 2522 
Q 1259 2794 1537 2939 
Q 1816 3084 2150 3084 
Q 2853 3084 3261 2657 
Q 3669 2231 3669 1497 
Q 3669 778 3244 343 
Q 2819 -91 2113 -91 
Q 1303 -91 875 529 
Q 447 1150 447 2328 
Q 447 3434 972 4092 
Q 1497 4750 2381 4750 
Q 2619 4750 2861 4703 
Q 3103 4656 3366 4563 
z
" id="DejaVuSans-36" transform="scale(0.015625)"/>
       </defs>
       <use xlink:href="#DejaVuSans-30"/>
       <use x="63.623047" xlink:href="#DejaVuSans-2e"/>
       <use x="95.410156" xlink:href="#DejaVuSans-36"/>
      </g>
     </g>
    </g>
    <g id="xtick_5">
     <g id="line2d_5">
      <g>
       <use style="stroke:#000000;stroke-width:0.8;" x="319.737614" xlink:href="#m49ad91a6ac" y="273.312"/>
      </g>
     </g>
     <g id="text_5">
      <!-- 0.8 -->
      <g transform="translate(311.786051 287.910437)scale(0.1 -0.1)">
       <defs>
        <path d="M 2034 2216 
Q 1584 2216 1326 1975 
Q 1069 1734 1069 1313 
Q 1069 891 1326 650 
Q 1584 409 2034 409 
Q 2484 409 2743 651 
Q 3003 894 3003 1313 
Q 3003 1734 2745 1975 
Q 2488 2216 2034 2216 
z
M 1403 2484 
Q 997 2584 770 2862 
Q 544 3141 544 3541 
Q 544 4100 942 4425 
Q 1341 4750 2034 4750 
Q 2731 4750 3128 4425 
Q 3525 4100 3525 3541 
Q 3525 3141 3298 2862 
Q 3072 2584 2669 2484 
Q 3125 2378 3379 2068 
Q 3634 1759 3634 1313 
Q 3634 634 3220 271 
Q 2806 -91 2034 -91 
Q 1263 -91 848 271 
Q 434 634 434 1313 
Q 434 1759 690 2068 
Q 947 2378 1403 2484 
z
M 1172 3481 
Q 1172 3119 1398 2916 
Q 1625 2713 2034 2713 
Q 2441 2713 2670 2916 
Q 2900 3119 2900 3481 
Q 2900 3844 2670 4047 
Q 2441 4250 2034 4250 
Q 1625 4250 1398 4047 
Q 1172 3844 1172 3481 
z
" id="DejaVuSans-38" transform="scale(0.015625)"/>
       </defs>
       <use xlink:href="#DejaVuSans-30"/>
       <use x="63.623047" xlink:href="#DejaVuSans-2e"/>
       <use x="95.410156" xlink:href="#DejaVuSans-38"/>
      </g>
     </g>
    </g>
    <g id="xtick_6">
     <g id="line2d_6">
      <g>
       <use style="stroke:#000000;stroke-width:0.8;" x="384.668523" xlink:href="#m49ad91a6ac" y="273.312"/>
      </g>
     </g>
     <g id="text_6">
      <!-- 1.0 -->
      <g transform="translate(376.71696 287.910437)scale(0.1 -0.1)">
       <defs>
        <path d="M 794 531 
L 1825 531 
L 1825 4091 
L 703 3866 
L 703 4441 
L 1819 4666 
L 2450 4666 
L 2450 531 
L 3481 531 
L 3481 0 
L 794 0 
L 794 531 
z
" id="DejaVuSans-31" transform="scale(0.015625)"/>
       </defs>
       <use xlink:href="#DejaVuSans-31"/>
       <use x="63.623047" xlink:href="#DejaVuSans-2e"/>
       <use x="95.410156" xlink:href="#DejaVuSans-30"/>
      </g>
     </g>
    </g>
    <g id="text_7">
     <!-- Propagation direction -->
     <g transform="translate(168.859219 301.588562)scale(0.1 -0.1)">
      <defs>
       <path d="M 1259 4147 
L 1259 2394 
L 2053 2394 
Q 2494 2394 2734 2622 
Q 2975 2850 2975 3272 
Q 2975 3691 2734 3919 
Q 2494 4147 2053 4147 
L 1259 4147 
z
M 628 4666 
L 2053 4666 
Q 2838 4666 3239 4311 
Q 3641 3956 3641 3272 
Q 3641 2581 3239 2228 
Q 2838 1875 2053 1875 
L 1259 1875 
L 1259 0 
L 628 0 
L 628 4666 
z
" id="DejaVuSans-50" transform="scale(0.015625)"/>
       <path d="M 2631 2963 
Q 2534 3019 2420 3045 
Q 2306 3072 2169 3072 
Q 1681 3072 1420 2755 
Q 1159 2438 1159 1844 
L 1159 0 
L 581 0 
L 581 3500 
L 1159 3500 
L 1159 2956 
Q 1341 3275 1631 3429 
Q 1922 3584 2338 3584 
Q 2397 3584 2469 3576 
Q 2541 3569 2628 3553 
L 2631 2963 
z
" id="DejaVuSans-72" transform="scale(0.015625)"/>
       <path d="M 1959 3097 
Q 1497 3097 1228 2736 
Q 959 2375 959 1747 
Q 959 1119 1226 758 
Q 1494 397 1959 397 
Q 2419 397 2687 759 
Q 2956 1122 2956 1747 
Q 2956 2369 2687 2733 
Q 2419 3097 1959 3097 
z
M 1959 3584 
Q 2709 3584 3137 3096 
Q 3566 2609 3566 1747 
Q 3566 888 3137 398 
Q 2709 -91 1959 -91 
Q 1206 -91 779 398 
Q 353 888 353 1747 
Q 353 2609 779 3096 
Q 1206 3584 1959 3584 
z
" id="DejaVuSans-6f" transform="scale(0.015625)"/>
       <path d="M 1159 525 
L 1159 -1331 
L 581 -1331 
L 581 3500 
L 1159 3500 
L 1159 2969 
Q 1341 3281 1617 3432 
Q 1894 3584 2278 3584 
Q 2916 3584 3314 3078 
Q 3713 2572 3713 1747 
Q 3713 922 3314 415 
Q 2916 -91 2278 -91 
Q 1894 -91 1617 61 
Q 1341 213 1159 525 
z
M 3116 1747 
Q 3116 2381 2855 2742 
Q 2594 3103 2138 3103 
Q 1681 3103 1420 2742 
Q 1159 2381 1159 1747 
Q 1159 1113 1420 752 
Q 1681 391 2138 391 
Q 2594 391 2855 752 
Q 3116 1113 3116 1747 
z
" id="DejaVuSans-70" transform="scale(0.015625)"/>
       <path d="M 2194 1759 
Q 1497 1759 1228 1600 
Q 959 1441 959 1056 
Q 959 750 1161 570 
Q 1363 391 1709 391 
Q 2188 391 2477 730 
Q 2766 1069 2766 1631 
L 2766 1759 
L 2194 1759 
z
M 3341 1997 
L 3341 0 
L 2766 0 
L 2766 531 
Q 2569 213 2275 61 
Q 1981 -91 1556 -91 
Q 1019 -91 701 211 
Q 384 513 384 1019 
Q 384 1609 779 1909 
Q 1175 2209 1959 2209 
L 2766 2209 
L 2766 2266 
Q 2766 2663 2505 2880 
Q 2244 3097 1772 3097 
Q 1472 3097 1187 3025 
Q 903 2953 641 2809 
L 641 3341 
Q 956 3463 1253 3523 
Q 1550 3584 1831 3584 
Q 2591 3584 2966 3190 
Q 3341 2797 3341 1997 
z
" id="DejaVuSans-61" transform="scale(0.015625)"/>
       <path d="M 2906 1791 
Q 2906 2416 2648 2759 
Q 2391 3103 1925 3103 
Q 1463 3103 1205 2759 
Q 947 2416 947 1791 
Q 947 1169 1205 825 
Q 1463 481 1925 481 
Q 2391 481 2648 825 
Q 2906 1169 2906 1791 
z
M 3481 434 
Q 3481 -459 3084 -895 
Q 2688 -1331 1869 -1331 
Q 1566 -1331 1297 -1286 
Q 1028 -1241 775 -1147 
L 775 -588 
Q 1028 -725 1275 -790 
Q 1522 -856 1778 -856 
Q 2344 -856 2625 -561 
Q 2906 -266 2906 331 
L 2906 616 
Q 2728 306 2450 153 
Q 2172 0 1784 0 
Q 1141 0 747 490 
Q 353 981 353 1791 
Q 353 2603 747 3093 
Q 1141 3584 1784 3584 
Q 2172 3584 2450 3431 
Q 2728 3278 2906 2969 
L 2906 3500 
L 3481 3500 
L 3481 434 
z
" id="DejaVuSans-67" transform="scale(0.015625)"/>
       <path d="M 1172 4494 
L 1172 3500 
L 2356 3500 
L 2356 3053 
L 1172 3053 
L 1172 1153 
Q 1172 725 1289 603 
Q 1406 481 1766 481 
L 2356 481 
L 2356 0 
L 1766 0 
Q 1100 0 847 248 
Q 594 497 594 1153 
L 594 3053 
L 172 3053 
L 172 3500 
L 594 3500 
L 594 4494 
L 1172 4494 
z
" id="DejaVuSans-74" transform="scale(0.015625)"/>
       <path d="M 603 3500 
L 1178 3500 
L 1178 0 
L 603 0 
L 603 3500 
z
M 603 4863 
L 1178 4863 
L 1178 4134 
L 603 4134 
L 603 4863 
z
" id="DejaVuSans-69" transform="scale(0.015625)"/>
       <path d="M 3513 2113 
L 3513 0 
L 2938 0 
L 2938 2094 
Q 2938 2591 2744 2837 
Q 2550 3084 2163 3084 
Q 1697 3084 1428 2787 
Q 1159 2491 1159 1978 
L 1159 0 
L 581 0 
L 581 3500 
L 1159 3500 
L 1159 2956 
Q 1366 3272 1645 3428 
Q 1925 3584 2291 3584 
Q 2894 3584 3203 3211 
Q 3513 2838 3513 2113 
z
" id="DejaVuSans-6e" transform="scale(0.015625)"/>
       <path id="DejaVuSans-20" transform="scale(0.015625)"/>
       <path d="M 2906 2969 
L 2906 4863 
L 3481 4863 
L 3481 0 
L 2906 0 
L 2906 525 
Q 2725 213 2448 61 
Q 2172 -91 1784 -91 
Q 1150 -91 751 415 
Q 353 922 353 1747 
Q 353 2572 751 3078 
Q 1150 3584 1784 3584 
Q 2172 3584 2448 3432 
Q 2725 3281 2906 2969 
z
M 947 1747 
Q 947 1113 1208 752 
Q 1469 391 1925 391 
Q 2381 391 2643 752 
Q 2906 1113 2906 1747 
Q 2906 2381 2643 2742 
Q 2381 3103 1925 3103 
Q 1469 3103 1208 2742 
Q 947 2381 947 1747 
z
" id="DejaVuSans-64" transform="scale(0.015625)"/>
       <path d="M 3597 1894 
L 3597 1613 
L 953 1613 
Q 991 1019 1311 708 
Q 1631 397 2203 397 
Q 2534 397 2845 478 
Q 3156 559 3463 722 
L 3463 178 
Q 3153 47 2828 -22 
Q 2503 -91 2169 -91 
Q 1331 -91 842 396 
Q 353 884 353 1716 
Q 353 2575 817 3079 
Q 1281 3584 2069 3584 
Q 2775 3584 3186 3129 
Q 3597 2675 3597 1894 
z
M 3022 2063 
Q 3016 2534 2758 2815 
Q 2500 3097 2075 3097 
Q 1594 3097 1305 2825 
Q 1016 2553 972 2059 
L 3022 2063 
z
" id="DejaVuSans-65" transform="scale(0.015625)"/>
       <path d="M 3122 3366 
L 3122 2828 
Q 2878 2963 2633 3030 
Q 2388 3097 2138 3097 
Q 1578 3097 1268 2742 
Q 959 2388 959 1747 
Q 959 1106 1268 751 
Q 1578 397 2138 397 
Q 2388 397 2633 464 
Q 2878 531 3122 666 
L 3122 134 
Q 2881 22 2623 -34 
Q 2366 -91 2075 -91 
Q 1284 -91 818 406 
Q 353 903 353 1747 
Q 353 2603 823 3093 
Q 1294 3584 2113 3584 
Q 2378 3584 2631 3529 
Q 2884 3475 3122 3366 
z
" id="DejaVuSans-63" transform="scale(0.015625)"/>
      </defs>
      <use xlink:href="#DejaVuSans-50"/>
      <use x="58.552734" xlink:href="#DejaVuSans-72"/>
      <use x="97.416016" xlink:href="#DejaVuSans-6f"/>
      <use x="158.597656" xlink:href="#DejaVuSans-70"/>
      <use x="222.074219" xlink:href="#DejaVuSans-61"/>
      <use x="283.353516" xlink:href="#DejaVuSans-67"/>
      <use x="346.830078" xlink:href="#DejaVuSans-61"/>
      <use x="408.109375" xlink:href="#DejaVuSans-74"/>
      <use x="447.318359" xlink:href="#DejaVuSans-69"/>
      <use x="475.101562" xlink:href="#DejaVuSans-6f"/>
      <use x="536.283203" xlink:href="#DejaVuSans-6e"/>
      <use x="599.662109" xlink:href="#DejaVuSans-20"/>
      <use x="631.449219" xlink:href="#DejaVuSans-64"/>
      <use x="694.925781" xlink:href="#DejaVuSans-69"/>
      <use x="722.708984" xlink:href="#DejaVuSans-72"/>
      <use x="761.572266" xlink:href="#DejaVuSans-65"/>
      <use x="823.095703" xlink:href="#DejaVuSans-63"/>
      <use x="878.076172" xlink:href="#DejaVuSans-74"/>
      <use x="917.285156" xlink:href="#DejaVuSans-69"/>
      <use x="945.068359" xlink:href="#DejaVuSans-6f"/>
      <use x="1006.25" xlink:href="#DejaVuSans-6e"/>
     </g>
    </g>
   </g>
   <g id="matplotlib.axis_2">
    <g id="ytick_1">
     <g id="line2d_7">
      <defs>
       <path d="M 0 0 
L -3.5 0 
" id="m8356deb38b" style="stroke:#000000;stroke-width:0.8;"/>
      </defs>
      <g>
       <use style="stroke:#000000;stroke-width:0.8;" x="43.78125" xlink:href="#m8356deb38b" y="273.312"/>
      </g>
     </g>
     <g id="text_8">
      <!-- 0.0 -->
      <g transform="translate(20.878125 277.111219)scale(0.1 -0.1)">
       <use xlink:href="#DejaVuSans-30"/>
       <use x="63.623047" xlink:href="#DejaVuSans-2e"/>
       <use x="95.410156" xlink:href="#DejaVuSans-30"/>
      </g>
     </g>
    </g>
    <g id="ytick_2">
     <g id="line2d_8">
      <g>
       <use style="stroke:#000000;stroke-width:0.8;" x="43.78125" xlink:href="#m8356deb38b" y="214.563414"/>
      </g>
     </g>
     <g id="text_9">
      <!-- 0.5 -->
      <g transform="translate(20.878125 218.362633)scale(0.1 -0.1)">
       <defs>
        <path d="M 691 4666 
L 3169 4666 
L 3169 4134 
L 1269 4134 
L 1269 2991 
Q 1406 3038 1543 3061 
Q 1681 3084 1819 3084 
Q 2600 3084 3056 2656 
Q 3513 2228 3513 1497 
Q 3513 744 3044 326 
Q 2575 -91 1722 -91 
Q 1428 -91 1123 -41 
Q 819 9 494 109 
L 494 744 
Q 775 591 1075 516 
Q 1375 441 1709 441 
Q 2250 441 2565 725 
Q 2881 1009 2881 1497 
Q 2881 1984 2565 2268 
Q 2250 2553 1709 2553 
Q 1456 2553 1204 2497 
Q 953 2441 691 2322 
L 691 4666 
z
" id="DejaVuSans-35" transform="scale(0.015625)"/>
       </defs>
       <use xlink:href="#DejaVuSans-30"/>
       <use x="63.623047" xlink:href="#DejaVuSans-2e"/>
       <use x="95.410156" xlink:href="#DejaVuSans-35"/>
      </g>
     </g>
    </g>
    <g id="ytick_3">
     <g id="line2d_9">
      <g>
       <use style="stroke:#000000;stroke-width:0.8;" x="43.78125" xlink:href="#m8356deb38b" y="155.814828"/>
      </g>
     </g>
     <g id="text_10">
      <!-- 1.0 -->
      <g transform="translate(20.878125 159.614047)scale(0.1 -0.1)">
       <use xlink:href="#DejaVuSans-31"/>
       <use x="63.623047" xlink:href="#DejaVuSans-2e"/>
       <use x="95.410156" xlink:href="#DejaVuSans-30"/>
      </g>
     </g>
    </g>
    <g id="ytick_4">
     <g id="line2d_10">
      <g>
       <use style="stroke:#000000;stroke-width:0.8;" x="43.78125" xlink:href="#m8356deb38b" y="97.066242"/>
      </g>
     </g>
     <g id="text_11">
      <!-- 1.5 -->
      <g transform="translate(20.878125 100.86546)scale(0.1 -0.1)">
       <use xlink:href="#DejaVuSans-31"/>
       <use x="63.623047" xlink:href="#DejaVuSans-2e"/>
       <use x="95.410156" xlink:href="#DejaVuSans-35"/>
      </g>
     </g>
    </g>
    <g id="ytick_5">
     <g id="line2d_11">
      <g>
       <use style="stroke:#000000;stroke-width:0.8;" x="43.78125" xlink:href="#m8356deb38b" y="38.317656"/>
      </g>
     </g>
     <g id="text_12">
      <!-- 2.0 -->
      <g transform="translate(20.878125 42.116874)scale(0.1 -0.1)">
       <use xlink:href="#DejaVuSans-32"/>
       <use x="63.623047" xlink:href="#DejaVuSans-2e"/>
       <use x="95.410156" xlink:href="#DejaVuSans-30"/>
      </g>
     </g>
    </g>
    <g id="text_13">
     <!-- Probability density -->
     <g transform="translate(14.798438 186.606781)rotate(-90)scale(0.1 -0.1)">
      <defs>
       <path d="M 3116 1747 
Q 3116 2381 2855 2742 
Q 2594 3103 2138 3103 
Q 1681 3103 1420 2742 
Q 1159 2381 1159 1747 
Q 1159 1113 1420 752 
Q 1681 391 2138 391 
Q 2594 391 2855 752 
Q 3116 1113 3116 1747 
z
M 1159 2969 
Q 1341 3281 1617 3432 
Q 1894 3584 2278 3584 
Q 2916 3584 3314 3078 
Q 3713 2572 3713 1747 
Q 3713 922 3314 415 
Q 2916 -91 2278 -91 
Q 1894 -91 1617 61 
Q 1341 213 1159 525 
L 1159 0 
L 581 0 
L 581 4863 
L 1159 4863 
L 1159 2969 
z
" id="DejaVuSans-62" transform="scale(0.015625)"/>
       <path d="M 603 4863 
L 1178 4863 
L 1178 0 
L 603 0 
L 603 4863 
z
" id="DejaVuSans-6c" transform="scale(0.015625)"/>
       <path d="M 2059 -325 
Q 1816 -950 1584 -1140 
Q 1353 -1331 966 -1331 
L 506 -1331 
L 506 -850 
L 844 -850 
Q 1081 -850 1212 -737 
Q 1344 -625 1503 -206 
L 1606 56 
L 191 3500 
L 800 3500 
L 1894 763 
L 2988 3500 
L 3597 3500 
L 2059 -325 
z
" id="DejaVuSans-79" transform="scale(0.015625)"/>
       <path d="M 2834 3397 
L 2834 2853 
Q 2591 2978 2328 3040 
Q 2066 3103 1784 3103 
Q 1356 3103 1142 2972 
Q 928 2841 928 2578 
Q 928 2378 1081 2264 
Q 1234 2150 1697 2047 
L 1894 2003 
Q 2506 1872 2764 1633 
Q 3022 1394 3022 966 
Q 3022 478 2636 193 
Q 2250 -91 1575 -91 
Q 1294 -91 989 -36 
Q 684 19 347 128 
L 347 722 
Q 666 556 975 473 
Q 1284 391 1588 391 
Q 1994 391 2212 530 
Q 2431 669 2431 922 
Q 2431 1156 2273 1281 
Q 2116 1406 1581 1522 
L 1381 1569 
Q 847 1681 609 1914 
Q 372 2147 372 2553 
Q 372 3047 722 3315 
Q 1072 3584 1716 3584 
Q 2034 3584 2315 3537 
Q 2597 3491 2834 3397 
z
" id="DejaVuSans-73" transform="scale(0.015625)"/>
      </defs>
      <use xlink:href="#DejaVuSans-50"/>
      <use x="58.552734" xlink:href="#DejaVuSans-72"/>
      <use x="97.416016" xlink:href="#DejaVuSans-6f"/>
      <use x="158.597656" xlink:href="#DejaVuSans-62"/>
      <use x="222.074219" xlink:href="#DejaVuSans-61"/>
      <use x="283.353516" xlink:href="#DejaVuSans-62"/>
      <use x="346.830078" xlink:href="#DejaVuSans-69"/>
      <use x="374.613281" xlink:href="#DejaVuSans-6c"/>
      <use x="402.396484" xlink:href="#DejaVuSans-69"/>
      <use x="430.179688" xlink:href="#DejaVuSans-74"/>
      <use x="469.388672" xlink:href="#DejaVuSans-79"/>
      <use x="528.568359" xlink:href="#DejaVuSans-20"/>
      <use x="560.355469" xlink:href="#DejaVuSans-64"/>
      <use x="623.832031" xlink:href="#DejaVuSans-65"/>
      <use x="685.355469" xlink:href="#DejaVuSans-6e"/>
      <use x="748.734375" xlink:href="#DejaVuSans-73"/>
      <use x="800.833984" xlink:href="#DejaVuSans-69"/>
      <use x="828.617188" xlink:href="#DejaVuSans-74"/>
      <use x="867.826172" xlink:href="#DejaVuSans-79"/>
     </g>
    </g>
   </g>
   <g id="line2d_12">
    <path clip-path="url(#p81f3bfe9cd)" d="M 60.013977 273.312 
L 384.668523 38.317656 
L 384.668523 38.317656 
" style="fill:none;stroke:#ff7f0e;stroke-linecap:square;stroke-width:1.5;"/>
   </g>
   <g id="patch_203">
    <path d="M 43.78125 273.312 
L 43.78125 7.2 
" style="fill:none;stroke:#000000;stroke-linecap:square;stroke-linejoin:miter;stroke-width:0.8;"/>
   </g>
   <g id="patch_204">
    <path d="M 400.90125 273.312 
L 400.90125 7.2 
" style="fill:none;stroke:#000000;stroke-linecap:square;stroke-linejoin:miter;stroke-width:0.8;"/>
   </g>
   <g id="patch_205">
    <path d="M 43.78125 273.312 
L 400.90125 273.312 
" style="fill:none;stroke:#000000;stroke-linecap:square;stroke-linejoin:miter;stroke-width:0.8;"/>
   </g>
   <g id="patch_206">
    <path d="M 43.78125 7.2 
L 400.90125 7.2 
" style="fill:none;stroke:#000000;stroke-linecap:square;stroke-linejoin:miter;stroke-width:0.8;"/>
   </g>
  </g>
 </g>
 <defs>
  <clipPath id="p81f3bfe9cd">
   <rect height="266.112" width="357.12" x="43.78125" y="7.2"/>
  </clipPath>
 </defs>
</svg>
