<?xml version="1.0" encoding="utf-8" standalone="no"?>
<!DOCTYPE svg PUBLIC "-//W3C//DTD SVG 1.1//EN"
  "http://www.w3.org/Graphics/SVG/1.1/DTD/svg11.dtd">
<svg height="310.86825pt" version="1.1" viewBox="0 0 408.10125 310.86825" width="408.10125pt" xmlns="http://www.w3.org/2000/svg" xmlns:xlink="http://www.w3.org/1999/xlink">
 <metadata>
  <rdf:RDF xmlns:cc="http://creativecommons.org/ns#" xmlns:dc="http://purl.org/dc/elements/1.1/" xmlns:rdf="http://www.w3.org/1999/02/22-rdf-syntax-ns#">
   <cc:Work>
    <dc:type rdf:resource="http://purl.org/dc/dcmitype/StillImage"/>
    <dc:date>2021-07-08T07:43:36.576358</dc:date>
    <dc:format>image/svg+xml</dc:format>
    <dc:creator>
     <cc:Agent>
      <dc:title>Matplotlib v3.4.2, https://matplotlib.org/</dc:title>
     </cc:Agent>
    </dc:creator>
   </cc:Work>
  </rdf:RDF>
 </metadata>
 <defs>
  <style type="text/css">*{stroke-linecap:butt;stroke-linejoin:round;}</style>
 </defs>
 <g id="figure_1">
  <g id="patch_1">
   <path d="M 0 310.86825 
L 408.10125 310.86825 
L 408.10125 0 
L 0 0 
z
" style="fill:#ffffff;"/>
  </g>
  <g id="axes_1">
   <g id="patch_2">
    <path d="M 43.78125 273.312 
L 400.90125 273.312 
L 400.90125 7.2 
L 43.78125 7.2 
z
" style="fill:#ffffff;"/>
   </g>
   <g id="patch_3">
    <path clip-path="url(#p8acc39aaba)" d="M 61.441539 273.312 
L 63.052724 273.312 
L 63.052724 270.373565 
L 61.441539 270.373565 
z
" style="fill:#1f77b4;"/>
   </g>
   <g id="patch_4">
    <path clip-path="url(#p8acc39aaba)" d="M 63.052724 273.312 
L 64.66391 273.312 
L 64.66391 266.700522 
L 63.052724 266.700522 
z
" style="fill:#1f77b4;"/>
   </g>
   <g id="patch_5">
    <path clip-path="url(#p8acc39aaba)" d="M 64.66391 273.312 
L 66.275095 273.312 
L 66.275095 263.762087 
L 64.66391 263.762087 
z
" style="fill:#1f77b4;"/>
   </g>
   <g id="patch_6">
    <path clip-path="url(#p8acc39aaba)" d="M 66.275095 273.312 
L 67.886281 273.312 
L 67.886281 254.946783 
L 66.275095 254.946783 
z
" style="fill:#1f77b4;"/>
   </g>
   <g id="patch_7">
    <path clip-path="url(#p8acc39aaba)" d="M 67.886281 273.312 
L 69.497466 273.312 
L 69.497466 253.477565 
L 67.886281 253.477565 
z
" style="fill:#1f77b4;"/>
   </g>
   <g id="patch_8">
    <path clip-path="url(#p8acc39aaba)" d="M 69.497466 273.312 
L 71.108652 273.312 
L 71.108652 252.008348 
L 69.497466 252.008348 
z
" style="fill:#1f77b4;"/>
   </g>
   <g id="patch_9">
    <path clip-path="url(#p8acc39aaba)" d="M 71.108652 273.312 
L 72.719837 273.312 
L 72.719837 245.39687 
L 71.108652 245.39687 
z
" style="fill:#1f77b4;"/>
   </g>
   <g id="patch_10">
    <path clip-path="url(#p8acc39aaba)" d="M 72.719837 273.312 
L 74.331023 273.312 
L 74.331023 247.600696 
L 72.719837 247.600696 
z
" style="fill:#1f77b4;"/>
   </g>
   <g id="patch_11">
    <path clip-path="url(#p8acc39aaba)" d="M 74.331023 273.312 
L 75.942208 273.312 
L 75.942208 242.458435 
L 74.331023 242.458435 
z
" style="fill:#1f77b4;"/>
   </g>
   <g id="patch_12">
    <path clip-path="url(#p8acc39aaba)" d="M 75.942208 273.312 
L 77.553394 273.312 
L 77.553394 232.173913 
L 75.942208 232.173913 
z
" style="fill:#1f77b4;"/>
   </g>
   <g id="patch_13">
    <path clip-path="url(#p8acc39aaba)" d="M 77.553394 273.312 
L 79.164579 273.312 
L 79.164579 232.173913 
L 77.553394 232.173913 
z
" style="fill:#1f77b4;"/>
   </g>
   <g id="patch_14">
    <path clip-path="url(#p8acc39aaba)" d="M 79.164579 273.312 
L 80.775765 273.312 
L 80.775765 224.093217 
L 79.164579 224.093217 
z
" style="fill:#1f77b4;"/>
   </g>
   <g id="patch_15">
    <path clip-path="url(#p8acc39aaba)" d="M 80.775765 273.312 
L 82.38695 273.312 
L 82.38695 228.50087 
L 80.775765 228.50087 
z
" style="fill:#1f77b4;"/>
   </g>
   <g id="patch_16">
    <path clip-path="url(#p8acc39aaba)" d="M 82.38695 273.312 
L 83.998136 273.312 
L 83.998136 226.297043 
L 82.38695 226.297043 
z
" style="fill:#1f77b4;"/>
   </g>
   <g id="patch_17">
    <path clip-path="url(#p8acc39aaba)" d="M 83.998136 273.312 
L 85.609321 273.312 
L 85.609321 218.216348 
L 83.998136 218.216348 
z
" style="fill:#1f77b4;"/>
   </g>
   <g id="patch_18">
    <path clip-path="url(#p8acc39aaba)" d="M 85.609321 273.312 
L 87.220507 273.312 
L 87.220507 213.074087 
L 85.609321 213.074087 
z
" style="fill:#1f77b4;"/>
   </g>
   <g id="patch_19">
    <path clip-path="url(#p8acc39aaba)" d="M 87.220507 273.312 
L 88.831692 273.312 
L 88.831692 221.889391 
L 87.220507 221.889391 
z
" style="fill:#1f77b4;"/>
   </g>
   <g id="patch_20">
    <path clip-path="url(#p8acc39aaba)" d="M 88.831692 273.312 
L 90.442878 273.312 
L 90.442878 203.524174 
L 88.831692 203.524174 
z
" style="fill:#1f77b4;"/>
   </g>
   <g id="patch_21">
    <path clip-path="url(#p8acc39aaba)" d="M 90.442878 273.312 
L 92.054063 273.312 
L 92.054063 207.197217 
L 90.442878 207.197217 
z
" style="fill:#1f77b4;"/>
   </g>
   <g id="patch_22">
    <path clip-path="url(#p8acc39aaba)" d="M 92.054063 273.312 
L 93.665249 273.312 
L 93.665249 199.116522 
L 92.054063 199.116522 
z
" style="fill:#1f77b4;"/>
   </g>
   <g id="patch_23">
    <path clip-path="url(#p8acc39aaba)" d="M 93.665249 273.312 
L 95.276434 273.312 
L 95.276434 201.320348 
L 93.665249 201.320348 
z
" style="fill:#1f77b4;"/>
   </g>
   <g id="patch_24">
    <path clip-path="url(#p8acc39aaba)" d="M 95.276434 273.312 
L 96.88762 273.312 
L 96.88762 205.728 
L 95.276434 205.728 
z
" style="fill:#1f77b4;"/>
   </g>
   <g id="patch_25">
    <path clip-path="url(#p8acc39aaba)" d="M 96.88762 273.312 
L 98.498805 273.312 
L 98.498805 192.505043 
L 96.88762 192.505043 
z
" style="fill:#1f77b4;"/>
   </g>
   <g id="patch_26">
    <path clip-path="url(#p8acc39aaba)" d="M 98.498805 273.312 
L 100.109991 273.312 
L 100.109991 205.728 
L 98.498805 205.728 
z
" style="fill:#1f77b4;"/>
   </g>
   <g id="patch_27">
    <path clip-path="url(#p8acc39aaba)" d="M 100.109991 273.312 
L 101.721176 273.312 
L 101.721176 173.405217 
L 100.109991 173.405217 
z
" style="fill:#1f77b4;"/>
   </g>
   <g id="patch_28">
    <path clip-path="url(#p8acc39aaba)" d="M 101.721176 273.312 
L 103.332362 273.312 
L 103.332362 187.362783 
L 101.721176 187.362783 
z
" style="fill:#1f77b4;"/>
   </g>
   <g id="patch_29">
    <path clip-path="url(#p8acc39aaba)" d="M 103.332362 273.312 
L 104.943547 273.312 
L 104.943547 166.793739 
L 103.332362 166.793739 
z
" style="fill:#1f77b4;"/>
   </g>
   <g id="patch_30">
    <path clip-path="url(#p8acc39aaba)" d="M 104.943547 273.312 
L 106.554733 273.312 
L 106.554733 191.035826 
L 104.943547 191.035826 
z
" style="fill:#1f77b4;"/>
   </g>
   <g id="patch_31">
    <path clip-path="url(#p8acc39aaba)" d="M 106.554733 273.312 
L 108.165918 273.312 
L 108.165918 176.343652 
L 106.554733 176.343652 
z
" style="fill:#1f77b4;"/>
   </g>
   <g id="patch_32">
    <path clip-path="url(#p8acc39aaba)" d="M 108.165918 273.312 
L 109.777104 273.312 
L 109.777104 146.959304 
L 108.165918 146.959304 
z
" style="fill:#1f77b4;"/>
   </g>
   <g id="patch_33">
    <path clip-path="url(#p8acc39aaba)" d="M 109.777104 273.312 
L 111.388289 273.312 
L 111.388289 166.05913 
L 109.777104 166.05913 
z
" style="fill:#1f77b4;"/>
   </g>
   <g id="patch_34">
    <path clip-path="url(#p8acc39aaba)" d="M 111.388289 273.312 
L 112.999475 273.312 
L 112.999475 160.91687 
L 111.388289 160.91687 
z
" style="fill:#1f77b4;"/>
   </g>
   <g id="patch_35">
    <path clip-path="url(#p8acc39aaba)" d="M 112.999475 273.312 
L 114.61066 273.312 
L 114.61066 155.774609 
L 112.999475 155.774609 
z
" style="fill:#1f77b4;"/>
   </g>
   <g id="patch_36">
    <path clip-path="url(#p8acc39aaba)" d="M 114.61066 273.312 
L 116.221846 273.312 
L 116.221846 157.978435 
L 114.61066 157.978435 
z
" style="fill:#1f77b4;"/>
   </g>
   <g id="patch_37">
    <path clip-path="url(#p8acc39aaba)" d="M 116.221846 273.312 
L 117.833031 273.312 
L 117.833031 152.101565 
L 116.221846 152.101565 
z
" style="fill:#1f77b4;"/>
   </g>
   <g id="patch_38">
    <path clip-path="url(#p8acc39aaba)" d="M 117.833031 273.312 
L 119.444217 273.312 
L 119.444217 154.305391 
L 117.833031 154.305391 
z
" style="fill:#1f77b4;"/>
   </g>
   <g id="patch_39">
    <path clip-path="url(#p8acc39aaba)" d="M 119.444217 273.312 
L 121.055402 273.312 
L 121.055402 154.305391 
L 119.444217 154.305391 
z
" style="fill:#1f77b4;"/>
   </g>
   <g id="patch_40">
    <path clip-path="url(#p8acc39aaba)" d="M 121.055402 273.312 
L 122.666588 273.312 
L 122.666588 127.12487 
L 121.055402 127.12487 
z
" style="fill:#1f77b4;"/>
   </g>
   <g id="patch_41">
    <path clip-path="url(#p8acc39aaba)" d="M 122.666588 273.312 
L 124.277773 273.312 
L 124.277773 141.817043 
L 122.666588 141.817043 
z
" style="fill:#1f77b4;"/>
   </g>
   <g id="patch_42">
    <path clip-path="url(#p8acc39aaba)" d="M 124.277773 273.312 
L 125.888959 273.312 
L 125.888959 154.305391 
L 124.277773 154.305391 
z
" style="fill:#1f77b4;"/>
   </g>
   <g id="patch_43">
    <path clip-path="url(#p8acc39aaba)" d="M 125.888959 273.312 
L 127.500144 273.312 
L 127.500144 161.651478 
L 125.888959 161.651478 
z
" style="fill:#1f77b4;"/>
   </g>
   <g id="patch_44">
    <path clip-path="url(#p8acc39aaba)" d="M 127.500144 273.312 
L 129.11133 273.312 
L 129.11133 133.001739 
L 127.500144 133.001739 
z
" style="fill:#1f77b4;"/>
   </g>
   <g id="patch_45">
    <path clip-path="url(#p8acc39aaba)" d="M 129.11133 273.312 
L 130.722515 273.312 
L 130.722515 119.044174 
L 129.11133 119.044174 
z
" style="fill:#1f77b4;"/>
   </g>
   <g id="patch_46">
    <path clip-path="url(#p8acc39aaba)" d="M 130.722515 273.312 
L 132.333701 273.312 
L 132.333701 129.328696 
L 130.722515 129.328696 
z
" style="fill:#1f77b4;"/>
   </g>
   <g id="patch_47">
    <path clip-path="url(#p8acc39aaba)" d="M 132.333701 273.312 
L 133.944886 273.312 
L 133.944886 141.817043 
L 132.333701 141.817043 
z
" style="fill:#1f77b4;"/>
   </g>
   <g id="patch_48">
    <path clip-path="url(#p8acc39aaba)" d="M 133.944886 273.312 
L 135.556072 273.312 
L 135.556072 95.536696 
L 133.944886 95.536696 
z
" style="fill:#1f77b4;"/>
   </g>
   <g id="patch_49">
    <path clip-path="url(#p8acc39aaba)" d="M 135.556072 273.312 
L 137.167257 273.312 
L 137.167257 113.901913 
L 135.556072 113.901913 
z
" style="fill:#1f77b4;"/>
   </g>
   <g id="patch_50">
    <path clip-path="url(#p8acc39aaba)" d="M 137.167257 273.312 
L 138.778443 273.312 
L 138.778443 121.982609 
L 137.167257 121.982609 
z
" style="fill:#1f77b4;"/>
   </g>
   <g id="patch_51">
    <path clip-path="url(#p8acc39aaba)" d="M 138.778443 273.312 
L 140.389628 273.312 
L 140.389628 121.248 
L 138.778443 121.248 
z
" style="fill:#1f77b4;"/>
   </g>
   <g id="patch_52">
    <path clip-path="url(#p8acc39aaba)" d="M 140.389628 273.312 
L 142.000814 273.312 
L 142.000814 102.148174 
L 140.389628 102.148174 
z
" style="fill:#1f77b4;"/>
   </g>
   <g id="patch_53">
    <path clip-path="url(#p8acc39aaba)" d="M 142.000814 273.312 
L 143.611999 273.312 
L 143.611999 104.352 
L 142.000814 104.352 
z
" style="fill:#1f77b4;"/>
   </g>
   <g id="patch_54">
    <path clip-path="url(#p8acc39aaba)" d="M 143.611999 273.312 
L 145.223185 273.312 
L 145.223185 97.005913 
L 143.611999 97.005913 
z
" style="fill:#1f77b4;"/>
   </g>
   <g id="patch_55">
    <path clip-path="url(#p8acc39aaba)" d="M 145.223185 273.312 
L 146.83437 273.312 
L 146.83437 108.025043 
L 145.223185 108.025043 
z
" style="fill:#1f77b4;"/>
   </g>
   <g id="patch_56">
    <path clip-path="url(#p8acc39aaba)" d="M 146.83437 273.312 
L 148.445556 273.312 
L 148.445556 113.901913 
L 146.83437 113.901913 
z
" style="fill:#1f77b4;"/>
   </g>
   <g id="patch_57">
    <path clip-path="url(#p8acc39aaba)" d="M 148.445556 273.312 
L 150.056741 273.312 
L 150.056741 74.967652 
L 148.445556 74.967652 
z
" style="fill:#1f77b4;"/>
   </g>
   <g id="patch_58">
    <path clip-path="url(#p8acc39aaba)" d="M 150.056741 273.312 
L 151.667927 273.312 
L 151.667927 83.048348 
L 150.056741 83.048348 
z
" style="fill:#1f77b4;"/>
   </g>
   <g id="patch_59">
    <path clip-path="url(#p8acc39aaba)" d="M 151.667927 273.312 
L 153.279112 273.312 
L 153.279112 92.598261 
L 151.667927 92.598261 
z
" style="fill:#1f77b4;"/>
   </g>
   <g id="patch_60">
    <path clip-path="url(#p8acc39aaba)" d="M 153.279112 273.312 
L 154.890298 273.312 
L 154.890298 99.209739 
L 153.279112 99.209739 
z
" style="fill:#1f77b4;"/>
   </g>
   <g id="patch_61">
    <path clip-path="url(#p8acc39aaba)" d="M 154.890298 273.312 
L 156.501483 273.312 
L 156.501483 78.640696 
L 154.890298 78.640696 
z
" style="fill:#1f77b4;"/>
   </g>
   <g id="patch_62">
    <path clip-path="url(#p8acc39aaba)" d="M 156.501483 273.312 
L 158.112669 273.312 
L 158.112669 77.171478 
L 156.501483 77.171478 
z
" style="fill:#1f77b4;"/>
   </g>
   <g id="patch_63">
    <path clip-path="url(#p8acc39aaba)" d="M 158.112669 273.312 
L 159.723854 273.312 
L 159.723854 90.394435 
L 158.112669 90.394435 
z
" style="fill:#1f77b4;"/>
   </g>
   <g id="patch_64">
    <path clip-path="url(#p8acc39aaba)" d="M 159.723854 273.312 
L 161.33504 273.312 
L 161.33504 56.602435 
L 159.723854 56.602435 
z
" style="fill:#1f77b4;"/>
   </g>
   <g id="patch_65">
    <path clip-path="url(#p8acc39aaba)" d="M 161.33504 273.312 
L 162.946225 273.312 
L 162.946225 91.863652 
L 161.33504 91.863652 
z
" style="fill:#1f77b4;"/>
   </g>
   <g id="patch_66">
    <path clip-path="url(#p8acc39aaba)" d="M 162.946225 273.312 
L 164.557411 273.312 
L 164.557411 61.010087 
L 162.946225 61.010087 
z
" style="fill:#1f77b4;"/>
   </g>
   <g id="patch_67">
    <path clip-path="url(#p8acc39aaba)" d="M 164.557411 273.312 
L 166.168596 273.312 
L 166.168596 77.906087 
L 164.557411 77.906087 
z
" style="fill:#1f77b4;"/>
   </g>
   <g id="patch_68">
    <path clip-path="url(#p8acc39aaba)" d="M 166.168596 273.312 
L 167.779782 273.312 
L 167.779782 72.029217 
L 166.168596 72.029217 
z
" style="fill:#1f77b4;"/>
   </g>
   <g id="patch_69">
    <path clip-path="url(#p8acc39aaba)" d="M 167.779782 273.312 
L 169.390967 273.312 
L 169.390967 83.048348 
L 167.779782 83.048348 
z
" style="fill:#1f77b4;"/>
   </g>
   <g id="patch_70">
    <path clip-path="url(#p8acc39aaba)" d="M 169.390967 273.312 
L 171.002153 273.312 
L 171.002153 108.759652 
L 169.390967 108.759652 
z
" style="fill:#1f77b4;"/>
   </g>
   <g id="patch_71">
    <path clip-path="url(#p8acc39aaba)" d="M 171.002153 273.312 
L 172.613338 273.312 
L 172.613338 58.806261 
L 171.002153 58.806261 
z
" style="fill:#1f77b4;"/>
   </g>
   <g id="patch_72">
    <path clip-path="url(#p8acc39aaba)" d="M 172.613338 273.312 
L 174.224524 273.312 
L 174.224524 77.906087 
L 172.613338 77.906087 
z
" style="fill:#1f77b4;"/>
   </g>
   <g id="patch_73">
    <path clip-path="url(#p8acc39aaba)" d="M 174.224524 273.312 
L 175.835709 273.312 
L 175.835709 58.071652 
L 174.224524 58.071652 
z
" style="fill:#1f77b4;"/>
   </g>
   <g id="patch_74">
    <path clip-path="url(#p8acc39aaba)" d="M 175.835709 273.312 
L 177.446895 273.312 
L 177.446895 77.171478 
L 175.835709 77.171478 
z
" style="fill:#1f77b4;"/>
   </g>
   <g id="patch_75">
    <path clip-path="url(#p8acc39aaba)" d="M 177.446895 273.312 
L 179.05808 273.312 
L 179.05808 74.233043 
L 177.446895 74.233043 
z
" style="fill:#1f77b4;"/>
   </g>
   <g id="patch_76">
    <path clip-path="url(#p8acc39aaba)" d="M 179.05808 273.312 
L 180.669266 273.312 
L 180.669266 67.621565 
L 179.05808 67.621565 
z
" style="fill:#1f77b4;"/>
   </g>
   <g id="patch_77">
    <path clip-path="url(#p8acc39aaba)" d="M 180.669266 273.312 
L 182.280451 273.312 
L 182.280451 65.417739 
L 180.669266 65.417739 
z
" style="fill:#1f77b4;"/>
   </g>
   <g id="patch_78">
    <path clip-path="url(#p8acc39aaba)" d="M 182.280451 273.312 
L 183.891637 273.312 
L 183.891637 72.763826 
L 182.280451 72.763826 
z
" style="fill:#1f77b4;"/>
   </g>
   <g id="patch_79">
    <path clip-path="url(#p8acc39aaba)" d="M 183.891637 273.312 
L 185.502822 273.312 
L 185.502822 58.071652 
L 183.891637 58.071652 
z
" style="fill:#1f77b4;"/>
   </g>
   <g id="patch_80">
    <path clip-path="url(#p8acc39aaba)" d="M 185.502822 273.312 
L 187.114008 273.312 
L 187.114008 55.867826 
L 185.502822 55.867826 
z
" style="fill:#1f77b4;"/>
   </g>
   <g id="patch_81">
    <path clip-path="url(#p8acc39aaba)" d="M 187.114008 273.312 
L 188.725193 273.312 
L 188.725193 84.517565 
L 187.114008 84.517565 
z
" style="fill:#1f77b4;"/>
   </g>
   <g id="patch_82">
    <path clip-path="url(#p8acc39aaba)" d="M 188.725193 273.312 
L 190.336379 273.312 
L 190.336379 40.441043 
L 188.725193 40.441043 
z
" style="fill:#1f77b4;"/>
   </g>
   <g id="patch_83">
    <path clip-path="url(#p8acc39aaba)" d="M 190.336379 273.312 
L 191.947564 273.312 
L 191.947564 62.479304 
L 190.336379 62.479304 
z
" style="fill:#1f77b4;"/>
   </g>
   <g id="patch_84">
    <path clip-path="url(#p8acc39aaba)" d="M 191.947564 273.312 
L 193.55875 273.312 
L 193.55875 50.725565 
L 191.947564 50.725565 
z
" style="fill:#1f77b4;"/>
   </g>
   <g id="patch_85">
    <path clip-path="url(#p8acc39aaba)" d="M 193.55875 273.312 
L 195.169935 273.312 
L 195.169935 42.64487 
L 193.55875 42.64487 
z
" style="fill:#1f77b4;"/>
   </g>
   <g id="patch_86">
    <path clip-path="url(#p8acc39aaba)" d="M 195.169935 273.312 
L 196.781121 273.312 
L 196.781121 25.74887 
L 195.169935 25.74887 
z
" style="fill:#1f77b4;"/>
   </g>
   <g id="patch_87">
    <path clip-path="url(#p8acc39aaba)" d="M 196.781121 273.312 
L 198.392306 273.312 
L 198.392306 34.564174 
L 196.781121 34.564174 
z
" style="fill:#1f77b4;"/>
   </g>
   <g id="patch_88">
    <path clip-path="url(#p8acc39aaba)" d="M 198.392306 273.312 
L 200.003492 273.312 
L 200.003492 52.929391 
L 198.392306 52.929391 
z
" style="fill:#1f77b4;"/>
   </g>
   <g id="patch_89">
    <path clip-path="url(#p8acc39aaba)" d="M 200.003492 273.312 
L 201.614677 273.312 
L 201.614677 42.64487 
L 200.003492 42.64487 
z
" style="fill:#1f77b4;"/>
   </g>
   <g id="patch_90">
    <path clip-path="url(#p8acc39aaba)" d="M 201.614677 273.312 
L 203.225863 273.312 
L 203.225863 55.867826 
L 201.614677 55.867826 
z
" style="fill:#1f77b4;"/>
   </g>
   <g id="patch_91">
    <path clip-path="url(#p8acc39aaba)" d="M 203.225863 273.312 
L 204.837048 273.312 
L 204.837048 30.156522 
L 203.225863 30.156522 
z
" style="fill:#1f77b4;"/>
   </g>
   <g id="patch_92">
    <path clip-path="url(#p8acc39aaba)" d="M 204.837048 273.312 
L 206.448234 273.312 
L 206.448234 49.256348 
L 204.837048 49.256348 
z
" style="fill:#1f77b4;"/>
   </g>
   <g id="patch_93">
    <path clip-path="url(#p8acc39aaba)" d="M 206.448234 273.312 
L 208.059419 273.312 
L 208.059419 19.872 
L 206.448234 19.872 
z
" style="fill:#1f77b4;"/>
   </g>
   <g id="patch_94">
    <path clip-path="url(#p8acc39aaba)" d="M 208.059419 273.312 
L 209.670605 273.312 
L 209.670605 39.706435 
L 208.059419 39.706435 
z
" style="fill:#1f77b4;"/>
   </g>
   <g id="patch_95">
    <path clip-path="url(#p8acc39aaba)" d="M 209.670605 273.312 
L 211.28179 273.312 
L 211.28179 62.479304 
L 209.670605 62.479304 
z
" style="fill:#1f77b4;"/>
   </g>
   <g id="patch_96">
    <path clip-path="url(#p8acc39aaba)" d="M 211.28179 273.312 
L 212.892976 273.312 
L 212.892976 47.052522 
L 211.28179 47.052522 
z
" style="fill:#1f77b4;"/>
   </g>
   <g id="patch_97">
    <path clip-path="url(#p8acc39aaba)" d="M 212.892976 273.312 
L 214.504161 273.312 
L 214.504161 40.441043 
L 212.892976 40.441043 
z
" style="fill:#1f77b4;"/>
   </g>
   <g id="patch_98">
    <path clip-path="url(#p8acc39aaba)" d="M 214.504161 273.312 
L 216.115347 273.312 
L 216.115347 49.256348 
L 214.504161 49.256348 
z
" style="fill:#1f77b4;"/>
   </g>
   <g id="patch_99">
    <path clip-path="url(#p8acc39aaba)" d="M 216.115347 273.312 
L 217.726532 273.312 
L 217.726532 33.829565 
L 216.115347 33.829565 
z
" style="fill:#1f77b4;"/>
   </g>
   <g id="patch_100">
    <path clip-path="url(#p8acc39aaba)" d="M 217.726532 273.312 
L 219.337718 273.312 
L 219.337718 43.379478 
L 217.726532 43.379478 
z
" style="fill:#1f77b4;"/>
   </g>
   <g id="patch_101">
    <path clip-path="url(#p8acc39aaba)" d="M 219.337718 273.312 
L 220.948903 273.312 
L 220.948903 24.279652 
L 219.337718 24.279652 
z
" style="fill:#1f77b4;"/>
   </g>
   <g id="patch_102">
    <path clip-path="url(#p8acc39aaba)" d="M 220.948903 273.312 
L 222.560089 273.312 
L 222.560089 68.356174 
L 220.948903 68.356174 
z
" style="fill:#1f77b4;"/>
   </g>
   <g id="patch_103">
    <path clip-path="url(#p8acc39aaba)" d="M 222.560089 273.312 
L 224.171274 273.312 
L 224.171274 36.033391 
L 222.560089 36.033391 
z
" style="fill:#1f77b4;"/>
   </g>
   <g id="patch_104">
    <path clip-path="url(#p8acc39aaba)" d="M 224.171274 273.312 
L 225.78246 273.312 
L 225.78246 56.602435 
L 224.171274 56.602435 
z
" style="fill:#1f77b4;"/>
   </g>
   <g id="patch_105">
    <path clip-path="url(#p8acc39aaba)" d="M 225.78246 273.312 
L 227.393645 273.312 
L 227.393645 31.625739 
L 225.78246 31.625739 
z
" style="fill:#1f77b4;"/>
   </g>
   <g id="patch_106">
    <path clip-path="url(#p8acc39aaba)" d="M 227.393645 273.312 
L 229.004831 273.312 
L 229.004831 58.071652 
L 227.393645 58.071652 
z
" style="fill:#1f77b4;"/>
   </g>
   <g id="patch_107">
    <path clip-path="url(#p8acc39aaba)" d="M 229.004831 273.312 
L 230.616016 273.312 
L 230.616016 55.867826 
L 229.004831 55.867826 
z
" style="fill:#1f77b4;"/>
   </g>
   <g id="patch_108">
    <path clip-path="url(#p8acc39aaba)" d="M 230.616016 273.312 
L 232.227202 273.312 
L 232.227202 39.706435 
L 230.616016 39.706435 
z
" style="fill:#1f77b4;"/>
   </g>
   <g id="patch_109">
    <path clip-path="url(#p8acc39aaba)" d="M 232.227202 273.312 
L 233.838387 273.312 
L 233.838387 36.033391 
L 232.227202 36.033391 
z
" style="fill:#1f77b4;"/>
   </g>
   <g id="patch_110">
    <path clip-path="url(#p8acc39aaba)" d="M 233.838387 273.312 
L 235.449573 273.312 
L 235.449573 69.090783 
L 233.838387 69.090783 
z
" style="fill:#1f77b4;"/>
   </g>
   <g id="patch_111">
    <path clip-path="url(#p8acc39aaba)" d="M 235.449573 273.312 
L 237.060758 273.312 
L 237.060758 40.441043 
L 235.449573 40.441043 
z
" style="fill:#1f77b4;"/>
   </g>
   <g id="patch_112">
    <path clip-path="url(#p8acc39aaba)" d="M 237.060758 273.312 
L 238.671944 273.312 
L 238.671944 37.502609 
L 237.060758 37.502609 
z
" style="fill:#1f77b4;"/>
   </g>
   <g id="patch_113">
    <path clip-path="url(#p8acc39aaba)" d="M 238.671944 273.312 
L 240.283129 273.312 
L 240.283129 26.483478 
L 238.671944 26.483478 
z
" style="fill:#1f77b4;"/>
   </g>
   <g id="patch_114">
    <path clip-path="url(#p8acc39aaba)" d="M 240.283129 273.312 
L 241.894315 273.312 
L 241.894315 62.479304 
L 240.283129 62.479304 
z
" style="fill:#1f77b4;"/>
   </g>
   <g id="patch_115">
    <path clip-path="url(#p8acc39aaba)" d="M 241.894315 273.312 
L 243.5055 273.312 
L 243.5055 25.74887 
L 241.894315 25.74887 
z
" style="fill:#1f77b4;"/>
   </g>
   <g id="patch_116">
    <path clip-path="url(#p8acc39aaba)" d="M 243.5055 273.312 
L 245.116686 273.312 
L 245.116686 48.521739 
L 243.5055 48.521739 
z
" style="fill:#1f77b4;"/>
   </g>
   <g id="patch_117">
    <path clip-path="url(#p8acc39aaba)" d="M 245.116686 273.312 
L 246.727871 273.312 
L 246.727871 58.071652 
L 245.116686 58.071652 
z
" style="fill:#1f77b4;"/>
   </g>
   <g id="patch_118">
    <path clip-path="url(#p8acc39aaba)" d="M 246.727871 273.312 
L 248.339057 273.312 
L 248.339057 55.867826 
L 246.727871 55.867826 
z
" style="fill:#1f77b4;"/>
   </g>
   <g id="patch_119">
    <path clip-path="url(#p8acc39aaba)" d="M 248.339057 273.312 
L 249.950242 273.312 
L 249.950242 63.213913 
L 248.339057 63.213913 
z
" style="fill:#1f77b4;"/>
   </g>
   <g id="patch_120">
    <path clip-path="url(#p8acc39aaba)" d="M 249.950242 273.312 
L 251.561428 273.312 
L 251.561428 67.621565 
L 249.950242 67.621565 
z
" style="fill:#1f77b4;"/>
   </g>
   <g id="patch_121">
    <path clip-path="url(#p8acc39aaba)" d="M 251.561428 273.312 
L 253.172613 273.312 
L 253.172613 49.990957 
L 251.561428 49.990957 
z
" style="fill:#1f77b4;"/>
   </g>
   <g id="patch_122">
    <path clip-path="url(#p8acc39aaba)" d="M 253.172613 273.312 
L 254.783799 273.312 
L 254.783799 61.010087 
L 253.172613 61.010087 
z
" style="fill:#1f77b4;"/>
   </g>
   <g id="patch_123">
    <path clip-path="url(#p8acc39aaba)" d="M 254.783799 273.312 
L 256.394984 273.312 
L 256.394984 52.929391 
L 254.783799 52.929391 
z
" style="fill:#1f77b4;"/>
   </g>
   <g id="patch_124">
    <path clip-path="url(#p8acc39aaba)" d="M 256.394984 273.312 
L 258.00617 273.312 
L 258.00617 53.664 
L 256.394984 53.664 
z
" style="fill:#1f77b4;"/>
   </g>
   <g id="patch_125">
    <path clip-path="url(#p8acc39aaba)" d="M 258.00617 273.312 
L 259.617355 273.312 
L 259.617355 77.906087 
L 258.00617 77.906087 
z
" style="fill:#1f77b4;"/>
   </g>
   <g id="patch_126">
    <path clip-path="url(#p8acc39aaba)" d="M 259.617355 273.312 
L 261.228541 273.312 
L 261.228541 76.43687 
L 259.617355 76.43687 
z
" style="fill:#1f77b4;"/>
   </g>
   <g id="patch_127">
    <path clip-path="url(#p8acc39aaba)" d="M 261.228541 273.312 
L 262.839726 273.312 
L 262.839726 55.133217 
L 261.228541 55.133217 
z
" style="fill:#1f77b4;"/>
   </g>
   <g id="patch_128">
    <path clip-path="url(#p8acc39aaba)" d="M 262.839726 273.312 
L 264.450912 273.312 
L 264.450912 75.702261 
L 262.839726 75.702261 
z
" style="fill:#1f77b4;"/>
   </g>
   <g id="patch_129">
    <path clip-path="url(#p8acc39aaba)" d="M 264.450912 273.312 
L 266.062097 273.312 
L 266.062097 69.090783 
L 264.450912 69.090783 
z
" style="fill:#1f77b4;"/>
   </g>
   <g id="patch_130">
    <path clip-path="url(#p8acc39aaba)" d="M 266.062097 273.312 
L 267.673283 273.312 
L 267.673283 76.43687 
L 266.062097 76.43687 
z
" style="fill:#1f77b4;"/>
   </g>
   <g id="patch_131">
    <path clip-path="url(#p8acc39aaba)" d="M 267.673283 273.312 
L 269.284468 273.312 
L 269.284468 61.010087 
L 267.673283 61.010087 
z
" style="fill:#1f77b4;"/>
   </g>
   <g id="patch_132">
    <path clip-path="url(#p8acc39aaba)" d="M 269.284468 273.312 
L 270.895654 273.312 
L 270.895654 80.844522 
L 269.284468 80.844522 
z
" style="fill:#1f77b4;"/>
   </g>
   <g id="patch_133">
    <path clip-path="url(#p8acc39aaba)" d="M 270.895654 273.312 
L 272.50684 273.312 
L 272.50684 52.929391 
L 270.895654 52.929391 
z
" style="fill:#1f77b4;"/>
   </g>
   <g id="patch_134">
    <path clip-path="url(#p8acc39aaba)" d="M 272.50684 273.312 
L 274.118025 273.312 
L 274.118025 52.194783 
L 272.50684 52.194783 
z
" style="fill:#1f77b4;"/>
   </g>
   <g id="patch_135">
    <path clip-path="url(#p8acc39aaba)" d="M 274.118025 273.312 
L 275.729211 273.312 
L 275.729211 61.010087 
L 274.118025 61.010087 
z
" style="fill:#1f77b4;"/>
   </g>
   <g id="patch_136">
    <path clip-path="url(#p8acc39aaba)" d="M 275.729211 273.312 
L 277.340396 273.312 
L 277.340396 49.990957 
L 275.729211 49.990957 
z
" style="fill:#1f77b4;"/>
   </g>
   <g id="patch_137">
    <path clip-path="url(#p8acc39aaba)" d="M 277.340396 273.312 
L 278.951582 273.312 
L 278.951582 93.33287 
L 277.340396 93.33287 
z
" style="fill:#1f77b4;"/>
   </g>
   <g id="patch_138">
    <path clip-path="url(#p8acc39aaba)" d="M 278.951582 273.312 
L 280.562767 273.312 
L 280.562767 91.129043 
L 278.951582 91.129043 
z
" style="fill:#1f77b4;"/>
   </g>
   <g id="patch_139">
    <path clip-path="url(#p8acc39aaba)" d="M 280.562767 273.312 
L 282.173953 273.312 
L 282.173953 93.33287 
L 280.562767 93.33287 
z
" style="fill:#1f77b4;"/>
   </g>
   <g id="patch_140">
    <path clip-path="url(#p8acc39aaba)" d="M 282.173953 273.312 
L 283.785138 273.312 
L 283.785138 74.967652 
L 282.173953 74.967652 
z
" style="fill:#1f77b4;"/>
   </g>
   <g id="patch_141">
    <path clip-path="url(#p8acc39aaba)" d="M 283.785138 273.312 
L 285.396324 273.312 
L 285.396324 92.598261 
L 283.785138 92.598261 
z
" style="fill:#1f77b4;"/>
   </g>
   <g id="patch_142">
    <path clip-path="url(#p8acc39aaba)" d="M 285.396324 273.312 
L 287.007509 273.312 
L 287.007509 68.356174 
L 285.396324 68.356174 
z
" style="fill:#1f77b4;"/>
   </g>
   <g id="patch_143">
    <path clip-path="url(#p8acc39aaba)" d="M 287.007509 273.312 
L 288.618695 273.312 
L 288.618695 86.721391 
L 287.007509 86.721391 
z
" style="fill:#1f77b4;"/>
   </g>
   <g id="patch_144">
    <path clip-path="url(#p8acc39aaba)" d="M 288.618695 273.312 
L 290.22988 273.312 
L 290.22988 95.536696 
L 288.618695 95.536696 
z
" style="fill:#1f77b4;"/>
   </g>
   <g id="patch_145">
    <path clip-path="url(#p8acc39aaba)" d="M 290.22988 273.312 
L 291.841066 273.312 
L 291.841066 113.901913 
L 290.22988 113.901913 
z
" style="fill:#1f77b4;"/>
   </g>
   <g id="patch_146">
    <path clip-path="url(#p8acc39aaba)" d="M 291.841066 273.312 
L 293.452251 273.312 
L 293.452251 86.721391 
L 291.841066 86.721391 
z
" style="fill:#1f77b4;"/>
   </g>
   <g id="patch_147">
    <path clip-path="url(#p8acc39aaba)" d="M 293.452251 273.312 
L 295.063437 273.312 
L 295.063437 94.067478 
L 293.452251 94.067478 
z
" style="fill:#1f77b4;"/>
   </g>
   <g id="patch_148">
    <path clip-path="url(#p8acc39aaba)" d="M 295.063437 273.312 
L 296.674622 273.312 
L 296.674622 97.005913 
L 295.063437 97.005913 
z
" style="fill:#1f77b4;"/>
   </g>
   <g id="patch_149">
    <path clip-path="url(#p8acc39aaba)" d="M 296.674622 273.312 
L 298.285808 273.312 
L 298.285808 97.005913 
L 296.674622 97.005913 
z
" style="fill:#1f77b4;"/>
   </g>
   <g id="patch_150">
    <path clip-path="url(#p8acc39aaba)" d="M 298.285808 273.312 
L 299.896993 273.312 
L 299.896993 87.456 
L 298.285808 87.456 
z
" style="fill:#1f77b4;"/>
   </g>
   <g id="patch_151">
    <path clip-path="url(#p8acc39aaba)" d="M 299.896993 273.312 
L 301.508179 273.312 
L 301.508179 108.759652 
L 299.896993 108.759652 
z
" style="fill:#1f77b4;"/>
   </g>
   <g id="patch_152">
    <path clip-path="url(#p8acc39aaba)" d="M 301.508179 273.312 
L 303.119364 273.312 
L 303.119364 100.678957 
L 301.508179 100.678957 
z
" style="fill:#1f77b4;"/>
   </g>
   <g id="patch_153">
    <path clip-path="url(#p8acc39aaba)" d="M 303.119364 273.312 
L 304.73055 273.312 
L 304.73055 116.840348 
L 303.119364 116.840348 
z
" style="fill:#1f77b4;"/>
   </g>
   <g id="patch_154">
    <path clip-path="url(#p8acc39aaba)" d="M 304.73055 273.312 
L 306.341735 273.312 
L 306.341735 122.717217 
L 304.73055 122.717217 
z
" style="fill:#1f77b4;"/>
   </g>
   <g id="patch_155">
    <path clip-path="url(#p8acc39aaba)" d="M 306.341735 273.312 
L 307.952921 273.312 
L 307.952921 106.555826 
L 306.341735 106.555826 
z
" style="fill:#1f77b4;"/>
   </g>
   <g id="patch_156">
    <path clip-path="url(#p8acc39aaba)" d="M 307.952921 273.312 
L 309.564106 273.312 
L 309.564106 116.840348 
L 307.952921 116.840348 
z
" style="fill:#1f77b4;"/>
   </g>
   <g id="patch_157">
    <path clip-path="url(#p8acc39aaba)" d="M 309.564106 273.312 
L 311.175292 273.312 
L 311.175292 105.086609 
L 309.564106 105.086609 
z
" style="fill:#1f77b4;"/>
   </g>
   <g id="patch_158">
    <path clip-path="url(#p8acc39aaba)" d="M 311.175292 273.312 
L 312.786477 273.312 
L 312.786477 135.940174 
L 311.175292 135.940174 
z
" style="fill:#1f77b4;"/>
   </g>
   <g id="patch_159">
    <path clip-path="url(#p8acc39aaba)" d="M 312.786477 273.312 
L 314.397663 273.312 
L 314.397663 116.105739 
L 312.786477 116.105739 
z
" style="fill:#1f77b4;"/>
   </g>
   <g id="patch_160">
    <path clip-path="url(#p8acc39aaba)" d="M 314.397663 273.312 
L 316.008848 273.312 
L 316.008848 139.613217 
L 314.397663 139.613217 
z
" style="fill:#1f77b4;"/>
   </g>
   <g id="patch_161">
    <path clip-path="url(#p8acc39aaba)" d="M 316.008848 273.312 
L 317.620034 273.312 
L 317.620034 144.02087 
L 316.008848 144.02087 
z
" style="fill:#1f77b4;"/>
   </g>
   <g id="patch_162">
    <path clip-path="url(#p8acc39aaba)" d="M 317.620034 273.312 
L 319.231219 273.312 
L 319.231219 145.490087 
L 317.620034 145.490087 
z
" style="fill:#1f77b4;"/>
   </g>
   <g id="patch_163">
    <path clip-path="url(#p8acc39aaba)" d="M 319.231219 273.312 
L 320.842405 273.312 
L 320.842405 145.490087 
L 319.231219 145.490087 
z
" style="fill:#1f77b4;"/>
   </g>
   <g id="patch_164">
    <path clip-path="url(#p8acc39aaba)" d="M 320.842405 273.312 
L 322.45359 273.312 
L 322.45359 146.224696 
L 320.842405 146.224696 
z
" style="fill:#1f77b4;"/>
   </g>
   <g id="patch_165">
    <path clip-path="url(#p8acc39aaba)" d="M 322.45359 273.312 
L 324.064776 273.312 
L 324.064776 157.243826 
L 322.45359 157.243826 
z
" style="fill:#1f77b4;"/>
   </g>
   <g id="patch_166">
    <path clip-path="url(#p8acc39aaba)" d="M 324.064776 273.312 
L 325.675961 273.312 
L 325.675961 155.04 
L 324.064776 155.04 
z
" style="fill:#1f77b4;"/>
   </g>
   <g id="patch_167">
    <path clip-path="url(#p8acc39aaba)" d="M 325.675961 273.312 
L 327.287147 273.312 
L 327.287147 157.243826 
L 325.675961 157.243826 
z
" style="fill:#1f77b4;"/>
   </g>
   <g id="patch_168">
    <path clip-path="url(#p8acc39aaba)" d="M 327.287147 273.312 
L 328.898332 273.312 
L 328.898332 141.082435 
L 327.287147 141.082435 
z
" style="fill:#1f77b4;"/>
   </g>
   <g id="patch_169">
    <path clip-path="url(#p8acc39aaba)" d="M 328.898332 273.312 
L 330.509518 273.312 
L 330.509518 152.101565 
L 328.898332 152.101565 
z
" style="fill:#1f77b4;"/>
   </g>
   <g id="patch_170">
    <path clip-path="url(#p8acc39aaba)" d="M 330.509518 273.312 
L 332.120703 273.312 
L 332.120703 162.386087 
L 330.509518 162.386087 
z
" style="fill:#1f77b4;"/>
   </g>
   <g id="patch_171">
    <path clip-path="url(#p8acc39aaba)" d="M 332.120703 273.312 
L 333.731889 273.312 
L 333.731889 171.936 
L 332.120703 171.936 
z
" style="fill:#1f77b4;"/>
   </g>
   <g id="patch_172">
    <path clip-path="url(#p8acc39aaba)" d="M 333.731889 273.312 
L 335.343074 273.312 
L 335.343074 182.95513 
L 333.731889 182.95513 
z
" style="fill:#1f77b4;"/>
   </g>
   <g id="patch_173">
    <path clip-path="url(#p8acc39aaba)" d="M 335.343074 273.312 
L 336.95426 273.312 
L 336.95426 171.201391 
L 335.343074 171.201391 
z
" style="fill:#1f77b4;"/>
   </g>
   <g id="patch_174">
    <path clip-path="url(#p8acc39aaba)" d="M 336.95426 273.312 
L 338.565445 273.312 
L 338.565445 177.078261 
L 336.95426 177.078261 
z
" style="fill:#1f77b4;"/>
   </g>
   <g id="patch_175">
    <path clip-path="url(#p8acc39aaba)" d="M 338.565445 273.312 
L 340.176631 273.312 
L 340.176631 184.424348 
L 338.565445 184.424348 
z
" style="fill:#1f77b4;"/>
   </g>
   <g id="patch_176">
    <path clip-path="url(#p8acc39aaba)" d="M 340.176631 273.312 
L 341.787816 273.312 
L 341.787816 158.713043 
L 340.176631 158.713043 
z
" style="fill:#1f77b4;"/>
   </g>
   <g id="patch_177">
    <path clip-path="url(#p8acc39aaba)" d="M 341.787816 273.312 
L 343.399002 273.312 
L 343.399002 182.95513 
L 341.787816 182.95513 
z
" style="fill:#1f77b4;"/>
   </g>
   <g id="patch_178">
    <path clip-path="url(#p8acc39aaba)" d="M 343.399002 273.312 
L 345.010187 273.312 
L 345.010187 196.178087 
L 343.399002 196.178087 
z
" style="fill:#1f77b4;"/>
   </g>
   <g id="patch_179">
    <path clip-path="url(#p8acc39aaba)" d="M 345.010187 273.312 
L 346.621373 273.312 
L 346.621373 195.443478 
L 345.010187 195.443478 
z
" style="fill:#1f77b4;"/>
   </g>
   <g id="patch_180">
    <path clip-path="url(#p8acc39aaba)" d="M 346.621373 273.312 
L 348.232558 273.312 
L 348.232558 194.70887 
L 346.621373 194.70887 
z
" style="fill:#1f77b4;"/>
   </g>
   <g id="patch_181">
    <path clip-path="url(#p8acc39aaba)" d="M 348.232558 273.312 
L 349.843744 273.312 
L 349.843744 199.85113 
L 348.232558 199.85113 
z
" style="fill:#1f77b4;"/>
   </g>
   <g id="patch_182">
    <path clip-path="url(#p8acc39aaba)" d="M 349.843744 273.312 
L 351.454929 273.312 
L 351.454929 193.239652 
L 349.843744 193.239652 
z
" style="fill:#1f77b4;"/>
   </g>
   <g id="patch_183">
    <path clip-path="url(#p8acc39aaba)" d="M 351.454929 273.312 
L 353.066115 273.312 
L 353.066115 191.035826 
L 351.454929 191.035826 
z
" style="fill:#1f77b4;"/>
   </g>
   <g id="patch_184">
    <path clip-path="url(#p8acc39aaba)" d="M 353.066115 273.312 
L 354.6773 273.312 
L 354.6773 220.420174 
L 353.066115 220.420174 
z
" style="fill:#1f77b4;"/>
   </g>
   <g id="patch_185">
    <path clip-path="url(#p8acc39aaba)" d="M 354.6773 273.312 
L 356.288486 273.312 
L 356.288486 215.277913 
L 354.6773 215.277913 
z
" style="fill:#1f77b4;"/>
   </g>
   <g id="patch_186">
    <path clip-path="url(#p8acc39aaba)" d="M 356.288486 273.312 
L 357.899671 273.312 
L 357.899671 226.297043 
L 356.288486 226.297043 
z
" style="fill:#1f77b4;"/>
   </g>
   <g id="patch_187">
    <path clip-path="url(#p8acc39aaba)" d="M 357.899671 273.312 
L 359.510857 273.312 
L 359.510857 215.277913 
L 357.899671 215.277913 
z
" style="fill:#1f77b4;"/>
   </g>
   <g id="patch_188">
    <path clip-path="url(#p8acc39aaba)" d="M 359.510857 273.312 
L 361.122042 273.312 
L 361.122042 228.50087 
L 359.510857 228.50087 
z
" style="fill:#1f77b4;"/>
   </g>
   <g id="patch_189">
    <path clip-path="url(#p8acc39aaba)" d="M 361.122042 273.312 
L 362.733228 273.312 
L 362.733228 214.543304 
L 361.122042 214.543304 
z
" style="fill:#1f77b4;"/>
   </g>
   <g id="patch_190">
    <path clip-path="url(#p8acc39aaba)" d="M 362.733228 273.312 
L 364.344413 273.312 
L 364.344413 216.74713 
L 362.733228 216.74713 
z
" style="fill:#1f77b4;"/>
   </g>
   <g id="patch_191">
    <path clip-path="url(#p8acc39aaba)" d="M 364.344413 273.312 
L 365.955599 273.312 
L 365.955599 233.64313 
L 364.344413 233.64313 
z
" style="fill:#1f77b4;"/>
   </g>
   <g id="patch_192">
    <path clip-path="url(#p8acc39aaba)" d="M 365.955599 273.312 
L 367.566784 273.312 
L 367.566784 233.64313 
L 365.955599 233.64313 
z
" style="fill:#1f77b4;"/>
   </g>
   <g id="patch_193">
    <path clip-path="url(#p8acc39aaba)" d="M 367.566784 273.312 
L 369.17797 273.312 
L 369.17797 227.031652 
L 367.566784 227.031652 
z
" style="fill:#1f77b4;"/>
   </g>
   <g id="patch_194">
    <path clip-path="url(#p8acc39aaba)" d="M 369.17797 273.312 
L 370.789155 273.312 
L 370.789155 235.846957 
L 369.17797 235.846957 
z
" style="fill:#1f77b4;"/>
   </g>
   <g id="patch_195">
    <path clip-path="url(#p8acc39aaba)" d="M 370.789155 273.312 
L 372.400341 273.312 
L 372.400341 238.050783 
L 370.789155 238.050783 
z
" style="fill:#1f77b4;"/>
   </g>
   <g id="patch_196">
    <path clip-path="url(#p8acc39aaba)" d="M 372.400341 273.312 
L 374.011526 273.312 
L 374.011526 241.723826 
L 372.400341 241.723826 
z
" style="fill:#1f77b4;"/>
   </g>
   <g id="patch_197">
    <path clip-path="url(#p8acc39aaba)" d="M 374.011526 273.312 
L 375.622712 273.312 
L 375.622712 253.477565 
L 374.011526 253.477565 
z
" style="fill:#1f77b4;"/>
   </g>
   <g id="patch_198">
    <path clip-path="url(#p8acc39aaba)" d="M 375.622712 273.312 
L 377.233897 273.312 
L 377.233897 252.742957 
L 375.622712 252.742957 
z
" style="fill:#1f77b4;"/>
   </g>
   <g id="patch_199">
    <path clip-path="url(#p8acc39aaba)" d="M 377.233897 273.312 
L 378.845083 273.312 
L 378.845083 254.212174 
L 377.233897 254.212174 
z
" style="fill:#1f77b4;"/>
   </g>
   <g id="patch_200">
    <path clip-path="url(#p8acc39aaba)" d="M 378.845083 273.312 
L 380.456268 273.312 
L 380.456268 263.027478 
L 378.845083 263.027478 
z
" style="fill:#1f77b4;"/>
   </g>
   <g id="patch_201">
    <path clip-path="url(#p8acc39aaba)" d="M 380.456268 273.312 
L 382.067454 273.312 
L 382.067454 264.496696 
L 380.456268 264.496696 
z
" style="fill:#1f77b4;"/>
   </g>
   <g id="patch_202">
    <path clip-path="url(#p8acc39aaba)" d="M 382.067454 273.312 
L 383.678639 273.312 
L 383.678639 268.904348 
L 382.067454 268.904348 
z
" style="fill:#1f77b4;"/>
   </g>
   <g id="matplotlib.axis_1">
    <g id="xtick_1">
     <g id="line2d_1">
      <defs>
       <path d="M 0 0 
L 0 3.5 
" id="meee5339312" style="stroke:#000000;stroke-width:0.8;"/>
      </defs>
      <g>
       <use style="stroke:#000000;stroke-width:0.8;" x="60.013977" xlink:href="#meee5339312" y="273.312"/>
      </g>
     </g>
     <g id="text_1">
      <!-- 0.0 -->
      <g transform="translate(52.062415 287.910437)scale(0.1 -0.1)">
       <defs>
        <path d="M 2034 4250 
Q 1547 4250 1301 3770 
Q 1056 3291 1056 2328 
Q 1056 1369 1301 889 
Q 1547 409 2034 409 
Q 2525 409 2770 889 
Q 3016 1369 3016 2328 
Q 3016 3291 2770 3770 
Q 2525 4250 2034 4250 
z
M 2034 4750 
Q 2819 4750 3233 4129 
Q 3647 3509 3647 2328 
Q 3647 1150 3233 529 
Q 2819 -91 2034 -91 
Q 1250 -91 836 529 
Q 422 1150 422 2328 
Q 422 3509 836 4129 
Q 1250 4750 2034 4750 
z
" id="DejaVuSans-30" transform="scale(0.015625)"/>
        <path d="M 684 794 
L 1344 794 
L 1344 0 
L 684 0 
L 684 794 
z
" id="DejaVuSans-2e" transform="scale(0.015625)"/>
       </defs>
       <use xlink:href="#DejaVuSans-30"/>
       <use x="63.623047" xlink:href="#DejaVuSans-2e"/>
       <use x="95.410156" xlink:href="#DejaVuSans-30"/>
      </g>
     </g>
    </g>
    <g id="xtick_2">
     <g id="line2d_2">
      <g>
       <use style="stroke:#000000;stroke-width:0.8;" x="101.350278" xlink:href="#meee5339312" y="273.312"/>
      </g>
     </g>
     <g id="text_2">
      <!-- 0.2 -->
      <g transform="translate(93.398715 287.910437)scale(0.1 -0.1)">
       <defs>
        <path d="M 1228 531 
L 3431 531 
L 3431 0 
L 469 0 
L 469 531 
Q 828 903 1448 1529 
Q 2069 2156 2228 2338 
Q 2531 2678 2651 2914 
Q 2772 3150 2772 3378 
Q 2772 3750 2511 3984 
Q 2250 4219 1831 4219 
Q 1534 4219 1204 4116 
Q 875 4013 500 3803 
L 500 4441 
Q 881 4594 1212 4672 
Q 1544 4750 1819 4750 
Q 2544 4750 2975 4387 
Q 3406 4025 3406 3419 
Q 3406 3131 3298 2873 
Q 3191 2616 2906 2266 
Q 2828 2175 2409 1742 
Q 1991 1309 1228 531 
z
" id="DejaVuSans-32" transform="scale(0.015625)"/>
       </defs>
       <use xlink:href="#DejaVuSans-30"/>
       <use x="63.623047" xlink:href="#DejaVuSans-2e"/>
       <use x="95.410156" xlink:href="#DejaVuSans-32"/>
      </g>
     </g>
    </g>
    <g id="xtick_3">
     <g id="line2d_3">
      <g>
       <use style="stroke:#000000;stroke-width:0.8;" x="142.686578" xlink:href="#meee5339312" y="273.312"/>
      </g>
     </g>
     <g id="text_3">
      <!-- 0.4 -->
      <g transform="translate(134.735016 287.910437)scale(0.1 -0.1)">
       <defs>
        <path d="M 2419 4116 
L 825 1625 
L 2419 1625 
L 2419 4116 
z
M 2253 4666 
L 3047 4666 
L 3047 1625 
L 3713 1625 
L 3713 1100 
L 3047 1100 
L 3047 0 
L 2419 0 
L 2419 1100 
L 313 1100 
L 313 1709 
L 2253 4666 
z
" id="DejaVuSans-34" transform="scale(0.015625)"/>
       </defs>
       <use xlink:href="#DejaVuSans-30"/>
       <use x="63.623047" xlink:href="#DejaVuSans-2e"/>
       <use x="95.410156" xlink:href="#DejaVuSans-34"/>
      </g>
     </g>
    </g>
    <g id="xtick_4">
     <g id="line2d_4">
      <g>
       <use style="stroke:#000000;stroke-width:0.8;" x="184.022879" xlink:href="#meee5339312" y="273.312"/>
      </g>
     </g>
     <g id="text_4">
      <!-- 0.6 -->
      <g transform="translate(176.071316 287.910437)scale(0.1 -0.1)">
       <defs>
        <path d="M 2113 2584 
Q 1688 2584 1439 2293 
Q 1191 2003 1191 1497 
Q 1191 994 1439 701 
Q 1688 409 2113 409 
Q 2538 409 2786 701 
Q 3034 994 3034 1497 
Q 3034 2003 2786 2293 
Q 2538 2584 2113 2584 
z
M 3366 4563 
L 3366 3988 
Q 3128 4100 2886 4159 
Q 2644 4219 2406 4219 
Q 1781 4219 1451 3797 
Q 1122 3375 1075 2522 
Q 1259 2794 1537 2939 
Q 1816 3084 2150 3084 
Q 2853 3084 3261 2657 
Q 3669 2231 3669 1497 
Q 3669 778 3244 343 
Q 2819 -91 2113 -91 
Q 1303 -91 875 529 
Q 447 1150 447 2328 
Q 447 3434 972 4092 
Q 1497 4750 2381 4750 
Q 2619 4750 2861 4703 
Q 3103 4656 3366 4563 
z
" id="DejaVuSans-36" transform="scale(0.015625)"/>
       </defs>
       <use xlink:href="#DejaVuSans-30"/>
       <use x="63.623047" xlink:href="#DejaVuSans-2e"/>
       <use x="95.410156" xlink:href="#DejaVuSans-36"/>
      </g>
     </g>
    </g>
    <g id="xtick_5">
     <g id="line2d_5">
      <g>
       <use style="stroke:#000000;stroke-width:0.8;" x="225.35918" xlink:href="#meee5339312" y="273.312"/>
      </g>
     </g>
     <g id="text_5">
      <!-- 0.8 -->
      <g transform="translate(217.407617 287.910437)scale(0.1 -0.1)">
       <defs>
        <path d="M 2034 2216 
Q 1584 2216 1326 1975 
Q 1069 1734 1069 1313 
Q 1069 891 1326 650 
Q 1584 409 2034 409 
Q 2484 409 2743 651 
Q 3003 894 3003 1313 
Q 3003 1734 2745 1975 
Q 2488 2216 2034 2216 
z
M 1403 2484 
Q 997 2584 770 2862 
Q 544 3141 544 3541 
Q 544 4100 942 4425 
Q 1341 4750 2034 4750 
Q 2731 4750 3128 4425 
Q 3525 4100 3525 3541 
Q 3525 3141 3298 2862 
Q 3072 2584 2669 2484 
Q 3125 2378 3379 2068 
Q 3634 1759 3634 1313 
Q 3634 634 3220 271 
Q 2806 -91 2034 -91 
Q 1263 -91 848 271 
Q 434 634 434 1313 
Q 434 1759 690 2068 
Q 947 2378 1403 2484 
z
M 1172 3481 
Q 1172 3119 1398 2916 
Q 1625 2713 2034 2713 
Q 2441 2713 2670 2916 
Q 2900 3119 2900 3481 
Q 2900 3844 2670 4047 
Q 2441 4250 2034 4250 
Q 1625 4250 1398 4047 
Q 1172 3844 1172 3481 
z
" id="DejaVuSans-38" transform="scale(0.015625)"/>
       </defs>
       <use xlink:href="#DejaVuSans-30"/>
       <use x="63.623047" xlink:href="#DejaVuSans-2e"/>
       <use x="95.410156" xlink:href="#DejaVuSans-38"/>
      </g>
     </g>
    </g>
    <g id="xtick_6">
     <g id="line2d_6">
      <g>
       <use style="stroke:#000000;stroke-width:0.8;" x="266.69548" xlink:href="#meee5339312" y="273.312"/>
      </g>
     </g>
     <g id="text_6">
      <!-- 1.0 -->
      <g transform="translate(258.743918 287.910437)scale(0.1 -0.1)">
       <defs>
        <path d="M 794 531 
L 1825 531 
L 1825 4091 
L 703 3866 
L 703 4441 
L 1819 4666 
L 2450 4666 
L 2450 531 
L 3481 531 
L 3481 0 
L 794 0 
L 794 531 
z
" id="DejaVuSans-31" transform="scale(0.015625)"/>
       </defs>
       <use xlink:href="#DejaVuSans-31"/>
       <use x="63.623047" xlink:href="#DejaVuSans-2e"/>
       <use x="95.410156" xlink:href="#DejaVuSans-30"/>
      </g>
     </g>
    </g>
    <g id="xtick_7">
     <g id="line2d_7">
      <g>
       <use style="stroke:#000000;stroke-width:0.8;" x="308.031781" xlink:href="#meee5339312" y="273.312"/>
      </g>
     </g>
     <g id="text_7">
      <!-- 1.2 -->
      <g transform="translate(300.080218 287.910437)scale(0.1 -0.1)">
       <use xlink:href="#DejaVuSans-31"/>
       <use x="63.623047" xlink:href="#DejaVuSans-2e"/>
       <use x="95.410156" xlink:href="#DejaVuSans-32"/>
      </g>
     </g>
    </g>
    <g id="xtick_8">
     <g id="line2d_8">
      <g>
       <use style="stroke:#000000;stroke-width:0.8;" x="349.368081" xlink:href="#meee5339312" y="273.312"/>
      </g>
     </g>
     <g id="text_8">
      <!-- 1.4 -->
      <g transform="translate(341.416519 287.910437)scale(0.1 -0.1)">
       <use xlink:href="#DejaVuSans-31"/>
       <use x="63.623047" xlink:href="#DejaVuSans-2e"/>
       <use x="95.410156" xlink:href="#DejaVuSans-34"/>
      </g>
     </g>
    </g>
    <g id="xtick_9">
     <g id="line2d_9">
      <g>
       <use style="stroke:#000000;stroke-width:0.8;" x="390.704382" xlink:href="#meee5339312" y="273.312"/>
      </g>
     </g>
     <g id="text_9">
      <!-- 1.6 -->
      <g transform="translate(382.752819 287.910437)scale(0.1 -0.1)">
       <use xlink:href="#DejaVuSans-31"/>
       <use x="63.623047" xlink:href="#DejaVuSans-2e"/>
       <use x="95.410156" xlink:href="#DejaVuSans-36"/>
      </g>
     </g>
    </g>
    <g id="text_10">
     <!-- Angle with normal (rad) -->
     <g transform="translate(163.023281 301.588562)scale(0.1 -0.1)">
      <defs>
       <path d="M 2188 4044 
L 1331 1722 
L 3047 1722 
L 2188 4044 
z
M 1831 4666 
L 2547 4666 
L 4325 0 
L 3669 0 
L 3244 1197 
L 1141 1197 
L 716 0 
L 50 0 
L 1831 4666 
z
" id="DejaVuSans-41" transform="scale(0.015625)"/>
       <path d="M 3513 2113 
L 3513 0 
L 2938 0 
L 2938 2094 
Q 2938 2591 2744 2837 
Q 2550 3084 2163 3084 
Q 1697 3084 1428 2787 
Q 1159 2491 1159 1978 
L 1159 0 
L 581 0 
L 581 3500 
L 1159 3500 
L 1159 2956 
Q 1366 3272 1645 3428 
Q 1925 3584 2291 3584 
Q 2894 3584 3203 3211 
Q 3513 2838 3513 2113 
z
" id="DejaVuSans-6e" transform="scale(0.015625)"/>
       <path d="M 2906 1791 
Q 2906 2416 2648 2759 
Q 2391 3103 1925 3103 
Q 1463 3103 1205 2759 
Q 947 2416 947 1791 
Q 947 1169 1205 825 
Q 1463 481 1925 481 
Q 2391 481 2648 825 
Q 2906 1169 2906 1791 
z
M 3481 434 
Q 3481 -459 3084 -895 
Q 2688 -1331 1869 -1331 
Q 1566 -1331 1297 -1286 
Q 1028 -1241 775 -1147 
L 775 -588 
Q 1028 -725 1275 -790 
Q 1522 -856 1778 -856 
Q 2344 -856 2625 -561 
Q 2906 -266 2906 331 
L 2906 616 
Q 2728 306 2450 153 
Q 2172 0 1784 0 
Q 1141 0 747 490 
Q 353 981 353 1791 
Q 353 2603 747 3093 
Q 1141 3584 1784 3584 
Q 2172 3584 2450 3431 
Q 2728 3278 2906 2969 
L 2906 3500 
L 3481 3500 
L 3481 434 
z
" id="DejaVuSans-67" transform="scale(0.015625)"/>
       <path d="M 603 4863 
L 1178 4863 
L 1178 0 
L 603 0 
L 603 4863 
z
" id="DejaVuSans-6c" transform="scale(0.015625)"/>
       <path d="M 3597 1894 
L 3597 1613 
L 953 1613 
Q 991 1019 1311 708 
Q 1631 397 2203 397 
Q 2534 397 2845 478 
Q 3156 559 3463 722 
L 3463 178 
Q 3153 47 2828 -22 
Q 2503 -91 2169 -91 
Q 1331 -91 842 396 
Q 353 884 353 1716 
Q 353 2575 817 3079 
Q 1281 3584 2069 3584 
Q 2775 3584 3186 3129 
Q 3597 2675 3597 1894 
z
M 3022 2063 
Q 3016 2534 2758 2815 
Q 2500 3097 2075 3097 
Q 1594 3097 1305 2825 
Q 1016 2553 972 2059 
L 3022 2063 
z
" id="DejaVuSans-65" transform="scale(0.015625)"/>
       <path id="DejaVuSans-20" transform="scale(0.015625)"/>
       <path d="M 269 3500 
L 844 3500 
L 1563 769 
L 2278 3500 
L 2956 3500 
L 3675 769 
L 4391 3500 
L 4966 3500 
L 4050 0 
L 3372 0 
L 2619 2869 
L 1863 0 
L 1184 0 
L 269 3500 
z
" id="DejaVuSans-77" transform="scale(0.015625)"/>
       <path d="M 603 3500 
L 1178 3500 
L 1178 0 
L 603 0 
L 603 3500 
z
M 603 4863 
L 1178 4863 
L 1178 4134 
L 603 4134 
L 603 4863 
z
" id="DejaVuSans-69" transform="scale(0.015625)"/>
       <path d="M 1172 4494 
L 1172 3500 
L 2356 3500 
L 2356 3053 
L 1172 3053 
L 1172 1153 
Q 1172 725 1289 603 
Q 1406 481 1766 481 
L 2356 481 
L 2356 0 
L 1766 0 
Q 1100 0 847 248 
Q 594 497 594 1153 
L 594 3053 
L 172 3053 
L 172 3500 
L 594 3500 
L 594 4494 
L 1172 4494 
z
" id="DejaVuSans-74" transform="scale(0.015625)"/>
       <path d="M 3513 2113 
L 3513 0 
L 2938 0 
L 2938 2094 
Q 2938 2591 2744 2837 
Q 2550 3084 2163 3084 
Q 1697 3084 1428 2787 
Q 1159 2491 1159 1978 
L 1159 0 
L 581 0 
L 581 4863 
L 1159 4863 
L 1159 2956 
Q 1366 3272 1645 3428 
Q 1925 3584 2291 3584 
Q 2894 3584 3203 3211 
Q 3513 2838 3513 2113 
z
" id="DejaVuSans-68" transform="scale(0.015625)"/>
       <path d="M 1959 3097 
Q 1497 3097 1228 2736 
Q 959 2375 959 1747 
Q 959 1119 1226 758 
Q 1494 397 1959 397 
Q 2419 397 2687 759 
Q 2956 1122 2956 1747 
Q 2956 2369 2687 2733 
Q 2419 3097 1959 3097 
z
M 1959 3584 
Q 2709 3584 3137 3096 
Q 3566 2609 3566 1747 
Q 3566 888 3137 398 
Q 2709 -91 1959 -91 
Q 1206 -91 779 398 
Q 353 888 353 1747 
Q 353 2609 779 3096 
Q 1206 3584 1959 3584 
z
" id="DejaVuSans-6f" transform="scale(0.015625)"/>
       <path d="M 2631 2963 
Q 2534 3019 2420 3045 
Q 2306 3072 2169 3072 
Q 1681 3072 1420 2755 
Q 1159 2438 1159 1844 
L 1159 0 
L 581 0 
L 581 3500 
L 1159 3500 
L 1159 2956 
Q 1341 3275 1631 3429 
Q 1922 3584 2338 3584 
Q 2397 3584 2469 3576 
Q 2541 3569 2628 3553 
L 2631 2963 
z
" id="DejaVuSans-72" transform="scale(0.015625)"/>
       <path d="M 3328 2828 
Q 3544 3216 3844 3400 
Q 4144 3584 4550 3584 
Q 5097 3584 5394 3201 
Q 5691 2819 5691 2113 
L 5691 0 
L 5113 0 
L 5113 2094 
Q 5113 2597 4934 2840 
Q 4756 3084 4391 3084 
Q 3944 3084 3684 2787 
Q 3425 2491 3425 1978 
L 3425 0 
L 2847 0 
L 2847 2094 
Q 2847 2600 2669 2842 
Q 2491 3084 2119 3084 
Q 1678 3084 1418 2786 
Q 1159 2488 1159 1978 
L 1159 0 
L 581 0 
L 581 3500 
L 1159 3500 
L 1159 2956 
Q 1356 3278 1631 3431 
Q 1906 3584 2284 3584 
Q 2666 3584 2933 3390 
Q 3200 3197 3328 2828 
z
" id="DejaVuSans-6d" transform="scale(0.015625)"/>
       <path d="M 2194 1759 
Q 1497 1759 1228 1600 
Q 959 1441 959 1056 
Q 959 750 1161 570 
Q 1363 391 1709 391 
Q 2188 391 2477 730 
Q 2766 1069 2766 1631 
L 2766 1759 
L 2194 1759 
z
M 3341 1997 
L 3341 0 
L 2766 0 
L 2766 531 
Q 2569 213 2275 61 
Q 1981 -91 1556 -91 
Q 1019 -91 701 211 
Q 384 513 384 1019 
Q 384 1609 779 1909 
Q 1175 2209 1959 2209 
L 2766 2209 
L 2766 2266 
Q 2766 2663 2505 2880 
Q 2244 3097 1772 3097 
Q 1472 3097 1187 3025 
Q 903 2953 641 2809 
L 641 3341 
Q 956 3463 1253 3523 
Q 1550 3584 1831 3584 
Q 2591 3584 2966 3190 
Q 3341 2797 3341 1997 
z
" id="DejaVuSans-61" transform="scale(0.015625)"/>
       <path d="M 1984 4856 
Q 1566 4138 1362 3434 
Q 1159 2731 1159 2009 
Q 1159 1288 1364 580 
Q 1569 -128 1984 -844 
L 1484 -844 
Q 1016 -109 783 600 
Q 550 1309 550 2009 
Q 550 2706 781 3412 
Q 1013 4119 1484 4856 
L 1984 4856 
z
" id="DejaVuSans-28" transform="scale(0.015625)"/>
       <path d="M 2906 2969 
L 2906 4863 
L 3481 4863 
L 3481 0 
L 2906 0 
L 2906 525 
Q 2725 213 2448 61 
Q 2172 -91 1784 -91 
Q 1150 -91 751 415 
Q 353 922 353 1747 
Q 353 2572 751 3078 
Q 1150 3584 1784 3584 
Q 2172 3584 2448 3432 
Q 2725 3281 2906 2969 
z
M 947 1747 
Q 947 1113 1208 752 
Q 1469 391 1925 391 
Q 2381 391 2643 752 
Q 2906 1113 2906 1747 
Q 2906 2381 2643 2742 
Q 2381 3103 1925 3103 
Q 1469 3103 1208 2742 
Q 947 2381 947 1747 
z
" id="DejaVuSans-64" transform="scale(0.015625)"/>
       <path d="M 513 4856 
L 1013 4856 
Q 1481 4119 1714 3412 
Q 1947 2706 1947 2009 
Q 1947 1309 1714 600 
Q 1481 -109 1013 -844 
L 513 -844 
Q 928 -128 1133 580 
Q 1338 1288 1338 2009 
Q 1338 2731 1133 3434 
Q 928 4138 513 4856 
z
" id="DejaVuSans-29" transform="scale(0.015625)"/>
      </defs>
      <use xlink:href="#DejaVuSans-41"/>
      <use x="68.408203" xlink:href="#DejaVuSans-6e"/>
      <use x="131.787109" xlink:href="#DejaVuSans-67"/>
      <use x="195.263672" xlink:href="#DejaVuSans-6c"/>
      <use x="223.046875" xlink:href="#DejaVuSans-65"/>
      <use x="284.570312" xlink:href="#DejaVuSans-20"/>
      <use x="316.357422" xlink:href="#DejaVuSans-77"/>
      <use x="398.144531" xlink:href="#DejaVuSans-69"/>
      <use x="425.927734" xlink:href="#DejaVuSans-74"/>
      <use x="465.136719" xlink:href="#DejaVuSans-68"/>
      <use x="528.515625" xlink:href="#DejaVuSans-20"/>
      <use x="560.302734" xlink:href="#DejaVuSans-6e"/>
      <use x="623.681641" xlink:href="#DejaVuSans-6f"/>
      <use x="684.863281" xlink:href="#DejaVuSans-72"/>
      <use x="724.226562" xlink:href="#DejaVuSans-6d"/>
      <use x="821.638672" xlink:href="#DejaVuSans-61"/>
      <use x="882.917969" xlink:href="#DejaVuSans-6c"/>
      <use x="910.701172" xlink:href="#DejaVuSans-20"/>
      <use x="942.488281" xlink:href="#DejaVuSans-28"/>
      <use x="981.501953" xlink:href="#DejaVuSans-72"/>
      <use x="1022.615234" xlink:href="#DejaVuSans-61"/>
      <use x="1083.894531" xlink:href="#DejaVuSans-64"/>
      <use x="1147.371094" xlink:href="#DejaVuSans-29"/>
     </g>
    </g>
   </g>
   <g id="matplotlib.axis_2">
    <g id="ytick_1">
     <g id="line2d_10">
      <defs>
       <path d="M 0 0 
L -3.5 0 
" id="m7313c161d2" style="stroke:#000000;stroke-width:0.8;"/>
      </defs>
      <g>
       <use style="stroke:#000000;stroke-width:0.8;" x="43.78125" xlink:href="#m7313c161d2" y="273.312"/>
      </g>
     </g>
     <g id="text_11">
      <!-- 0.0 -->
      <g transform="translate(20.878125 277.111219)scale(0.1 -0.1)">
       <use xlink:href="#DejaVuSans-30"/>
       <use x="63.623047" xlink:href="#DejaVuSans-2e"/>
       <use x="95.410156" xlink:href="#DejaVuSans-30"/>
      </g>
     </g>
    </g>
    <g id="ytick_2">
     <g id="line2d_11">
      <g>
       <use style="stroke:#000000;stroke-width:0.8;" x="43.78125" xlink:href="#m7313c161d2" y="227.498868"/>
      </g>
     </g>
     <g id="text_12">
      <!-- 0.2 -->
      <g transform="translate(20.878125 231.298086)scale(0.1 -0.1)">
       <use xlink:href="#DejaVuSans-30"/>
       <use x="63.623047" xlink:href="#DejaVuSans-2e"/>
       <use x="95.410156" xlink:href="#DejaVuSans-32"/>
      </g>
     </g>
    </g>
    <g id="ytick_3">
     <g id="line2d_12">
      <g>
       <use style="stroke:#000000;stroke-width:0.8;" x="43.78125" xlink:href="#m7313c161d2" y="181.685735"/>
      </g>
     </g>
     <g id="text_13">
      <!-- 0.4 -->
      <g transform="translate(20.878125 185.484954)scale(0.1 -0.1)">
       <use xlink:href="#DejaVuSans-30"/>
       <use x="63.623047" xlink:href="#DejaVuSans-2e"/>
       <use x="95.410156" xlink:href="#DejaVuSans-34"/>
      </g>
     </g>
    </g>
    <g id="ytick_4">
     <g id="line2d_13">
      <g>
       <use style="stroke:#000000;stroke-width:0.8;" x="43.78125" xlink:href="#m7313c161d2" y="135.872603"/>
      </g>
     </g>
     <g id="text_14">
      <!-- 0.6 -->
      <g transform="translate(20.878125 139.671822)scale(0.1 -0.1)">
       <use xlink:href="#DejaVuSans-30"/>
       <use x="63.623047" xlink:href="#DejaVuSans-2e"/>
       <use x="95.410156" xlink:href="#DejaVuSans-36"/>
      </g>
     </g>
    </g>
    <g id="ytick_5">
     <g id="line2d_14">
      <g>
       <use style="stroke:#000000;stroke-width:0.8;" x="43.78125" xlink:href="#m7313c161d2" y="90.05947"/>
      </g>
     </g>
     <g id="text_15">
      <!-- 0.8 -->
      <g transform="translate(20.878125 93.858689)scale(0.1 -0.1)">
       <use xlink:href="#DejaVuSans-30"/>
       <use x="63.623047" xlink:href="#DejaVuSans-2e"/>
       <use x="95.410156" xlink:href="#DejaVuSans-38"/>
      </g>
     </g>
    </g>
    <g id="ytick_6">
     <g id="line2d_15">
      <g>
       <use style="stroke:#000000;stroke-width:0.8;" x="43.78125" xlink:href="#m7313c161d2" y="44.246338"/>
      </g>
     </g>
     <g id="text_16">
      <!-- 1.0 -->
      <g transform="translate(20.878125 48.045557)scale(0.1 -0.1)">
       <use xlink:href="#DejaVuSans-31"/>
       <use x="63.623047" xlink:href="#DejaVuSans-2e"/>
       <use x="95.410156" xlink:href="#DejaVuSans-30"/>
      </g>
     </g>
    </g>
    <g id="text_17">
     <!-- Probability density -->
     <g transform="translate(14.798438 186.606781)rotate(-90)scale(0.1 -0.1)">
      <defs>
       <path d="M 1259 4147 
L 1259 2394 
L 2053 2394 
Q 2494 2394 2734 2622 
Q 2975 2850 2975 3272 
Q 2975 3691 2734 3919 
Q 2494 4147 2053 4147 
L 1259 4147 
z
M 628 4666 
L 2053 4666 
Q 2838 4666 3239 4311 
Q 3641 3956 3641 3272 
Q 3641 2581 3239 2228 
Q 2838 1875 2053 1875 
L 1259 1875 
L 1259 0 
L 628 0 
L 628 4666 
z
" id="DejaVuSans-50" transform="scale(0.015625)"/>
       <path d="M 3116 1747 
Q 3116 2381 2855 2742 
Q 2594 3103 2138 3103 
Q 1681 3103 1420 2742 
Q 1159 2381 1159 1747 
Q 1159 1113 1420 752 
Q 1681 391 2138 391 
Q 2594 391 2855 752 
Q 3116 1113 3116 1747 
z
M 1159 2969 
Q 1341 3281 1617 3432 
Q 1894 3584 2278 3584 
Q 2916 3584 3314 3078 
Q 3713 2572 3713 1747 
Q 3713 922 3314 415 
Q 2916 -91 2278 -91 
Q 1894 -91 1617 61 
Q 1341 213 1159 525 
L 1159 0 
L 581 0 
L 581 4863 
L 1159 4863 
L 1159 2969 
z
" id="DejaVuSans-62" transform="scale(0.015625)"/>
       <path d="M 2059 -325 
Q 1816 -950 1584 -1140 
Q 1353 -1331 966 -1331 
L 506 -1331 
L 506 -850 
L 844 -850 
Q 1081 -850 1212 -737 
Q 1344 -625 1503 -206 
L 1606 56 
L 191 3500 
L 800 3500 
L 1894 763 
L 2988 3500 
L 3597 3500 
L 2059 -325 
z
" id="DejaVuSans-79" transform="scale(0.015625)"/>
       <path d="M 2834 3397 
L 2834 2853 
Q 2591 2978 2328 3040 
Q 2066 3103 1784 3103 
Q 1356 3103 1142 2972 
Q 928 2841 928 2578 
Q 928 2378 1081 2264 
Q 1234 2150 1697 2047 
L 1894 2003 
Q 2506 1872 2764 1633 
Q 3022 1394 3022 966 
Q 3022 478 2636 193 
Q 2250 -91 1575 -91 
Q 1294 -91 989 -36 
Q 684 19 347 128 
L 347 722 
Q 666 556 975 473 
Q 1284 391 1588 391 
Q 1994 391 2212 530 
Q 2431 669 2431 922 
Q 2431 1156 2273 1281 
Q 2116 1406 1581 1522 
L 1381 1569 
Q 847 1681 609 1914 
Q 372 2147 372 2553 
Q 372 3047 722 3315 
Q 1072 3584 1716 3584 
Q 2034 3584 2315 3537 
Q 2597 3491 2834 3397 
z
" id="DejaVuSans-73" transform="scale(0.015625)"/>
      </defs>
      <use xlink:href="#DejaVuSans-50"/>
      <use x="58.552734" xlink:href="#DejaVuSans-72"/>
      <use x="97.416016" xlink:href="#DejaVuSans-6f"/>
      <use x="158.597656" xlink:href="#DejaVuSans-62"/>
      <use x="222.074219" xlink:href="#DejaVuSans-61"/>
      <use x="283.353516" xlink:href="#DejaVuSans-62"/>
      <use x="346.830078" xlink:href="#DejaVuSans-69"/>
      <use x="374.613281" xlink:href="#DejaVuSans-6c"/>
      <use x="402.396484" xlink:href="#DejaVuSans-69"/>
      <use x="430.179688" xlink:href="#DejaVuSans-74"/>
      <use x="469.388672" xlink:href="#DejaVuSans-79"/>
      <use x="528.568359" xlink:href="#DejaVuSans-20"/>
      <use x="560.355469" xlink:href="#DejaVuSans-64"/>
      <use x="623.832031" xlink:href="#DejaVuSans-65"/>
      <use x="685.355469" xlink:href="#DejaVuSans-6e"/>
      <use x="748.734375" xlink:href="#DejaVuSans-73"/>
      <use x="800.833984" xlink:href="#DejaVuSans-69"/>
      <use x="828.617188" xlink:href="#DejaVuSans-74"/>
      <use x="867.826172" xlink:href="#DejaVuSans-79"/>
     </g>
    </g>
   </g>
   <g id="line2d_16">
    <path clip-path="url(#p8acc39aaba)" d="M 60.013977 273.312 
L 79.837728 229.639568 
L 90.237073 207.270264 
L 99.01152 188.90694 
L 106.811029 173.090502 
L 113.960578 159.091232 
L 120.460169 146.837141 
L 126.63478 135.658281 
L 132.484411 125.520339 
L 138.009063 116.379781 
L 143.208736 108.186073 
L 148.408408 100.410323 
L 153.283101 93.517665 
L 157.832814 87.445101 
L 162.382528 81.732748 
L 166.932241 76.391677 
L 171.156975 71.773618 
L 175.381709 67.492344 
L 179.281463 63.845517 
L 183.181217 60.49695 
L 187.080972 57.45141 
L 190.655746 54.929577 
L 194.230521 52.669039 
L 197.805296 50.672498 
L 201.380071 48.942345 
L 204.629866 47.602388 
L 207.879661 46.485626 
L 211.129456 45.593162 
L 214.379252 44.92588 
L 217.629047 44.484438 
L 220.878842 44.269274 
L 224.128637 44.2806 
L 227.378433 44.518405 
L 230.628228 44.982454 
L 233.878023 45.672288 
L 237.127818 46.587225 
L 240.377614 47.72636 
L 243.627409 49.088567 
L 247.202184 50.843028 
L 250.776958 52.863672 
L 254.351733 55.148081 
L 257.926508 57.693522 
L 261.501283 60.49695 
L 265.401037 63.845517 
L 269.300791 67.492344 
L 273.200546 71.432237 
L 277.425279 76.024657 
L 281.650013 80.946757 
L 286.199727 86.606731 
L 290.74944 92.628541 
L 295.624133 99.468734 
L 300.498826 106.695675 
L 305.698498 114.812565 
L 311.22315 123.875853 
L 316.747802 133.366132 
L 322.597433 143.849914 
L 328.772044 155.365337 
L 335.596614 168.580934 
L 342.746164 182.914557 
L 350.870652 199.72389 
L 359.970079 219.085009 
L 371.019383 243.145131 
L 384.668523 273.312 
L 384.668523 273.312 
" style="fill:none;stroke:#ff7f0e;stroke-linecap:square;stroke-width:1.5;"/>
   </g>
   <g id="patch_203">
    <path d="M 43.78125 273.312 
L 43.78125 7.2 
" style="fill:none;stroke:#000000;stroke-linecap:square;stroke-linejoin:miter;stroke-width:0.8;"/>
   </g>
   <g id="patch_204">
    <path d="M 400.90125 273.312 
L 400.90125 7.2 
" style="fill:none;stroke:#000000;stroke-linecap:square;stroke-linejoin:miter;stroke-width:0.8;"/>
   </g>
   <g id="patch_205">
    <path d="M 43.78125 273.312 
L 400.90125 273.312 
" style="fill:none;stroke:#000000;stroke-linecap:square;stroke-linejoin:miter;stroke-width:0.8;"/>
   </g>
   <g id="patch_206">
    <path d="M 43.78125 7.2 
L 400.90125 7.2 
" style="fill:none;stroke:#000000;stroke-linecap:square;stroke-linejoin:miter;stroke-width:0.8;"/>
   </g>
  </g>
 </g>
 <defs>
  <clipPath id="p8acc39aaba">
   <rect height="266.112" width="357.12" x="43.78125" y="7.2"/>
  </clipPath>
 </defs>
</svg>
