<?xml version="1.0" encoding="utf-8" standalone="no"?>
<!DOCTYPE svg PUBLIC "-//W3C//DTD SVG 1.1//EN"
  "http://www.w3.org/Graphics/SVG/1.1/DTD/svg11.dtd">
<svg height="310.86825pt" version="1.1" viewBox="0 0 414.46375 310.86825" width="414.46375pt" xmlns="http://www.w3.org/2000/svg" xmlns:xlink="http://www.w3.org/1999/xlink">
 <metadata>
  <rdf:RDF xmlns:cc="http://creativecommons.org/ns#" xmlns:dc="http://purl.org/dc/elements/1.1/" xmlns:rdf="http://www.w3.org/1999/02/22-rdf-syntax-ns#">
   <cc:Work>
    <dc:type rdf:resource="http://purl.org/dc/dcmitype/StillImage"/>
    <dc:date>2021-07-08T07:55:25.962850</dc:date>
    <dc:format>image/svg+xml</dc:format>
    <dc:creator>
     <cc:Agent>
      <dc:title>Matplotlib v3.4.2, https://matplotlib.org/</dc:title>
     </cc:Agent>
    </dc:creator>
   </cc:Work>
  </rdf:RDF>
 </metadata>
 <defs>
  <style type="text/css">*{stroke-linecap:butt;stroke-linejoin:round;}</style>
 </defs>
 <g id="figure_1">
  <g id="patch_1">
   <path d="M 0 310.86825 
L 414.46375 310.86825 
L 414.46375 0 
L 0 0 
z
" style="fill:#ffffff;"/>
  </g>
  <g id="axes_1">
   <g id="patch_2">
    <path d="M 50.14375 273.312 
L 407.26375 273.312 
L 407.26375 7.2 
L 50.14375 7.2 
z
" style="fill:#ffffff;"/>
   </g>
   <g id="patch_3">
    <path clip-path="url(#p81276cf667)" d="M 67.112508 273.312 
L 68.732096 273.312 
L 68.732096 272.090602 
L 67.112508 272.090602 
z
" style="fill:#1f77b4;"/>
   </g>
   <g id="patch_4">
    <path clip-path="url(#p81276cf667)" d="M 68.732096 273.312 
L 70.351685 273.312 
L 70.351685 272.701301 
L 68.732096 272.701301 
z
" style="fill:#1f77b4;"/>
   </g>
   <g id="patch_5">
    <path clip-path="url(#p81276cf667)" d="M 70.351685 273.312 
L 71.971274 273.312 
L 71.971274 270.258506 
L 70.351685 270.258506 
z
" style="fill:#1f77b4;"/>
   </g>
   <g id="patch_6">
    <path clip-path="url(#p81276cf667)" d="M 71.971274 273.312 
L 73.590863 273.312 
L 73.590863 271.479904 
L 71.971274 271.479904 
z
" style="fill:#1f77b4;"/>
   </g>
   <g id="patch_7">
    <path clip-path="url(#p81276cf667)" d="M 73.590863 273.312 
L 75.210452 273.312 
L 75.210452 270.869205 
L 73.590863 270.869205 
z
" style="fill:#1f77b4;"/>
   </g>
   <g id="patch_8">
    <path clip-path="url(#p81276cf667)" d="M 75.210452 273.312 
L 76.830041 273.312 
L 76.830041 268.42641 
L 75.210452 268.42641 
z
" style="fill:#1f77b4;"/>
   </g>
   <g id="patch_9">
    <path clip-path="url(#p81276cf667)" d="M 76.830041 273.312 
L 78.44963 273.312 
L 78.44963 268.42641 
L 76.830041 268.42641 
z
" style="fill:#1f77b4;"/>
   </g>
   <g id="patch_10">
    <path clip-path="url(#p81276cf667)" d="M 78.44963 273.312 
L 80.069219 273.312 
L 80.069219 265.983614 
L 78.44963 265.983614 
z
" style="fill:#1f77b4;"/>
   </g>
   <g id="patch_11">
    <path clip-path="url(#p81276cf667)" d="M 80.069219 273.312 
L 81.688808 273.312 
L 81.688808 263.540819 
L 80.069219 263.540819 
z
" style="fill:#1f77b4;"/>
   </g>
   <g id="patch_12">
    <path clip-path="url(#p81276cf667)" d="M 81.688808 273.312 
L 83.308396 273.312 
L 83.308396 265.983614 
L 81.688808 265.983614 
z
" style="fill:#1f77b4;"/>
   </g>
   <g id="patch_13">
    <path clip-path="url(#p81276cf667)" d="M 83.308396 273.312 
L 84.927985 273.312 
L 84.927985 259.876627 
L 83.308396 259.876627 
z
" style="fill:#1f77b4;"/>
   </g>
   <g id="patch_14">
    <path clip-path="url(#p81276cf667)" d="M 84.927985 273.312 
L 86.547574 273.312 
L 86.547574 265.983614 
L 84.927985 265.983614 
z
" style="fill:#1f77b4;"/>
   </g>
   <g id="patch_15">
    <path clip-path="url(#p81276cf667)" d="M 86.547574 273.312 
L 88.167163 273.312 
L 88.167163 250.716145 
L 86.547574 250.716145 
z
" style="fill:#1f77b4;"/>
   </g>
   <g id="patch_16">
    <path clip-path="url(#p81276cf667)" d="M 88.167163 273.312 
L 89.786752 273.312 
L 89.786752 253.769639 
L 88.167163 253.769639 
z
" style="fill:#1f77b4;"/>
   </g>
   <g id="patch_17">
    <path clip-path="url(#p81276cf667)" d="M 89.786752 273.312 
L 91.406341 273.312 
L 91.406341 257.433831 
L 89.786752 257.433831 
z
" style="fill:#1f77b4;"/>
   </g>
   <g id="patch_18">
    <path clip-path="url(#p81276cf667)" d="M 91.406341 273.312 
L 93.02593 273.312 
L 93.02593 256.823133 
L 91.406341 256.823133 
z
" style="fill:#1f77b4;"/>
   </g>
   <g id="patch_19">
    <path clip-path="url(#p81276cf667)" d="M 93.02593 273.312 
L 94.645519 273.312 
L 94.645519 247.662651 
L 93.02593 247.662651 
z
" style="fill:#1f77b4;"/>
   </g>
   <g id="patch_20">
    <path clip-path="url(#p81276cf667)" d="M 94.645519 273.312 
L 96.265107 273.312 
L 96.265107 249.494747 
L 94.645519 249.494747 
z
" style="fill:#1f77b4;"/>
   </g>
   <g id="patch_21">
    <path clip-path="url(#p81276cf667)" d="M 96.265107 273.312 
L 97.884696 273.312 
L 97.884696 252.548241 
L 96.265107 252.548241 
z
" style="fill:#1f77b4;"/>
   </g>
   <g id="patch_22">
    <path clip-path="url(#p81276cf667)" d="M 97.884696 273.312 
L 99.504285 273.312 
L 99.504285 253.15894 
L 97.884696 253.15894 
z
" style="fill:#1f77b4;"/>
   </g>
   <g id="patch_23">
    <path clip-path="url(#p81276cf667)" d="M 99.504285 273.312 
L 101.123874 273.312 
L 101.123874 244.609157 
L 99.504285 244.609157 
z
" style="fill:#1f77b4;"/>
   </g>
   <g id="patch_24">
    <path clip-path="url(#p81276cf667)" d="M 101.123874 273.312 
L 102.743463 273.312 
L 102.743463 237.89147 
L 101.123874 237.89147 
z
" style="fill:#1f77b4;"/>
   </g>
   <g id="patch_25">
    <path clip-path="url(#p81276cf667)" d="M 102.743463 273.312 
L 104.363052 273.312 
L 104.363052 248.273349 
L 102.743463 248.273349 
z
" style="fill:#1f77b4;"/>
   </g>
   <g id="patch_26">
    <path clip-path="url(#p81276cf667)" d="M 104.363052 273.312 
L 105.982641 273.312 
L 105.982641 251.326843 
L 104.363052 251.326843 
z
" style="fill:#1f77b4;"/>
   </g>
   <g id="patch_27">
    <path clip-path="url(#p81276cf667)" d="M 105.982641 273.312 
L 107.60223 273.312 
L 107.60223 239.723566 
L 105.982641 239.723566 
z
" style="fill:#1f77b4;"/>
   </g>
   <g id="patch_28">
    <path clip-path="url(#p81276cf667)" d="M 107.60223 273.312 
L 109.221819 273.312 
L 109.221819 237.280771 
L 107.60223 237.280771 
z
" style="fill:#1f77b4;"/>
   </g>
   <g id="patch_29">
    <path clip-path="url(#p81276cf667)" d="M 109.221819 273.312 
L 110.841407 273.312 
L 110.841407 236.670072 
L 109.221819 236.670072 
z
" style="fill:#1f77b4;"/>
   </g>
   <g id="patch_30">
    <path clip-path="url(#p81276cf667)" d="M 110.841407 273.312 
L 112.460996 273.312 
L 112.460996 236.059373 
L 110.841407 236.059373 
z
" style="fill:#1f77b4;"/>
   </g>
   <g id="patch_31">
    <path clip-path="url(#p81276cf667)" d="M 112.460996 273.312 
L 114.080585 273.312 
L 114.080585 233.00588 
L 112.460996 233.00588 
z
" style="fill:#1f77b4;"/>
   </g>
   <g id="patch_32">
    <path clip-path="url(#p81276cf667)" d="M 114.080585 273.312 
L 115.700174 273.312 
L 115.700174 236.670072 
L 114.080585 236.670072 
z
" style="fill:#1f77b4;"/>
   </g>
   <g id="patch_33">
    <path clip-path="url(#p81276cf667)" d="M 115.700174 273.312 
L 117.319763 273.312 
L 117.319763 240.944964 
L 115.700174 240.944964 
z
" style="fill:#1f77b4;"/>
   </g>
   <g id="patch_34">
    <path clip-path="url(#p81276cf667)" d="M 117.319763 273.312 
L 118.939352 273.312 
L 118.939352 229.952386 
L 117.319763 229.952386 
z
" style="fill:#1f77b4;"/>
   </g>
   <g id="patch_35">
    <path clip-path="url(#p81276cf667)" d="M 118.939352 273.312 
L 120.558941 273.312 
L 120.558941 226.898892 
L 118.939352 226.898892 
z
" style="fill:#1f77b4;"/>
   </g>
   <g id="patch_36">
    <path clip-path="url(#p81276cf667)" d="M 120.558941 273.312 
L 122.17853 273.312 
L 122.17853 234.227277 
L 120.558941 234.227277 
z
" style="fill:#1f77b4;"/>
   </g>
   <g id="patch_37">
    <path clip-path="url(#p81276cf667)" d="M 122.17853 273.312 
L 123.798119 273.312 
L 123.798119 225.066795 
L 122.17853 225.066795 
z
" style="fill:#1f77b4;"/>
   </g>
   <g id="patch_38">
    <path clip-path="url(#p81276cf667)" d="M 123.798119 273.312 
L 125.417707 273.312 
L 125.417707 223.845398 
L 123.798119 223.845398 
z
" style="fill:#1f77b4;"/>
   </g>
   <g id="patch_39">
    <path clip-path="url(#p81276cf667)" d="M 125.417707 273.312 
L 127.037296 273.312 
L 127.037296 233.616578 
L 125.417707 233.616578 
z
" style="fill:#1f77b4;"/>
   </g>
   <g id="patch_40">
    <path clip-path="url(#p81276cf667)" d="M 127.037296 273.312 
L 128.656885 273.312 
L 128.656885 223.845398 
L 127.037296 223.845398 
z
" style="fill:#1f77b4;"/>
   </g>
   <g id="patch_41">
    <path clip-path="url(#p81276cf667)" d="M 128.656885 273.312 
L 130.276474 273.312 
L 130.276474 225.677494 
L 128.656885 225.677494 
z
" style="fill:#1f77b4;"/>
   </g>
   <g id="patch_42">
    <path clip-path="url(#p81276cf667)" d="M 130.276474 273.312 
L 131.896063 273.312 
L 131.896063 226.288193 
L 130.276474 226.288193 
z
" style="fill:#1f77b4;"/>
   </g>
   <g id="patch_43">
    <path clip-path="url(#p81276cf667)" d="M 131.896063 273.312 
L 133.515652 273.312 
L 133.515652 224.456096 
L 131.896063 224.456096 
z
" style="fill:#1f77b4;"/>
   </g>
   <g id="patch_44">
    <path clip-path="url(#p81276cf667)" d="M 133.515652 273.312 
L 135.135241 273.312 
L 135.135241 225.677494 
L 133.515652 225.677494 
z
" style="fill:#1f77b4;"/>
   </g>
   <g id="patch_45">
    <path clip-path="url(#p81276cf667)" d="M 135.135241 273.312 
L 136.75483 273.312 
L 136.75483 228.120289 
L 135.135241 228.120289 
z
" style="fill:#1f77b4;"/>
   </g>
   <g id="patch_46">
    <path clip-path="url(#p81276cf667)" d="M 136.75483 273.312 
L 138.374419 273.312 
L 138.374419 216.517012 
L 136.75483 216.517012 
z
" style="fill:#1f77b4;"/>
   </g>
   <g id="patch_47">
    <path clip-path="url(#p81276cf667)" d="M 138.374419 273.312 
L 139.994007 273.312 
L 139.994007 218.349108 
L 138.374419 218.349108 
z
" style="fill:#1f77b4;"/>
   </g>
   <g id="patch_48">
    <path clip-path="url(#p81276cf667)" d="M 139.994007 273.312 
L 141.613596 273.312 
L 141.613596 222.013301 
L 139.994007 222.013301 
z
" style="fill:#1f77b4;"/>
   </g>
   <g id="patch_49">
    <path clip-path="url(#p81276cf667)" d="M 141.613596 273.312 
L 143.233185 273.312 
L 143.233185 211.020723 
L 141.613596 211.020723 
z
" style="fill:#1f77b4;"/>
   </g>
   <g id="patch_50">
    <path clip-path="url(#p81276cf667)" d="M 143.233185 273.312 
L 144.852774 273.312 
L 144.852774 217.73841 
L 143.233185 217.73841 
z
" style="fill:#1f77b4;"/>
   </g>
   <g id="patch_51">
    <path clip-path="url(#p81276cf667)" d="M 144.852774 273.312 
L 146.472363 273.312 
L 146.472363 216.517012 
L 144.852774 216.517012 
z
" style="fill:#1f77b4;"/>
   </g>
   <g id="patch_52">
    <path clip-path="url(#p81276cf667)" d="M 146.472363 273.312 
L 148.091952 273.312 
L 148.091952 196.974651 
L 146.472363 196.974651 
z
" style="fill:#1f77b4;"/>
   </g>
   <g id="patch_53">
    <path clip-path="url(#p81276cf667)" d="M 148.091952 273.312 
L 149.711541 273.312 
L 149.711541 203.692337 
L 148.091952 203.692337 
z
" style="fill:#1f77b4;"/>
   </g>
   <g id="patch_54">
    <path clip-path="url(#p81276cf667)" d="M 149.711541 273.312 
L 151.33113 273.312 
L 151.33113 199.417446 
L 149.711541 199.417446 
z
" style="fill:#1f77b4;"/>
   </g>
   <g id="patch_55">
    <path clip-path="url(#p81276cf667)" d="M 151.33113 273.312 
L 152.950718 273.312 
L 152.950718 216.517012 
L 151.33113 216.517012 
z
" style="fill:#1f77b4;"/>
   </g>
   <g id="patch_56">
    <path clip-path="url(#p81276cf667)" d="M 152.950718 273.312 
L 154.570307 273.312 
L 154.570307 204.913735 
L 152.950718 204.913735 
z
" style="fill:#1f77b4;"/>
   </g>
   <g id="patch_57">
    <path clip-path="url(#p81276cf667)" d="M 154.570307 273.312 
L 156.189896 273.312 
L 156.189896 208.577928 
L 154.570307 208.577928 
z
" style="fill:#1f77b4;"/>
   </g>
   <g id="patch_58">
    <path clip-path="url(#p81276cf667)" d="M 156.189896 273.312 
L 157.809485 273.312 
L 157.809485 203.081639 
L 156.189896 203.081639 
z
" style="fill:#1f77b4;"/>
   </g>
   <g id="patch_59">
    <path clip-path="url(#p81276cf667)" d="M 157.809485 273.312 
L 159.429074 273.312 
L 159.429074 201.249542 
L 157.809485 201.249542 
z
" style="fill:#1f77b4;"/>
   </g>
   <g id="patch_60">
    <path clip-path="url(#p81276cf667)" d="M 159.429074 273.312 
L 161.048663 273.312 
L 161.048663 192.08906 
L 159.429074 192.08906 
z
" style="fill:#1f77b4;"/>
   </g>
   <g id="patch_61">
    <path clip-path="url(#p81276cf667)" d="M 161.048663 273.312 
L 162.668252 273.312 
L 162.668252 192.699759 
L 161.048663 192.699759 
z
" style="fill:#1f77b4;"/>
   </g>
   <g id="patch_62">
    <path clip-path="url(#p81276cf667)" d="M 162.668252 273.312 
L 164.287841 273.312 
L 164.287841 200.028145 
L 162.668252 200.028145 
z
" style="fill:#1f77b4;"/>
   </g>
   <g id="patch_63">
    <path clip-path="url(#p81276cf667)" d="M 164.287841 273.312 
L 165.90743 273.312 
L 165.90743 209.188627 
L 164.287841 209.188627 
z
" style="fill:#1f77b4;"/>
   </g>
   <g id="patch_64">
    <path clip-path="url(#p81276cf667)" d="M 165.90743 273.312 
L 167.527018 273.312 
L 167.527018 196.363952 
L 165.90743 196.363952 
z
" style="fill:#1f77b4;"/>
   </g>
   <g id="patch_65">
    <path clip-path="url(#p81276cf667)" d="M 167.527018 273.312 
L 169.146607 273.312 
L 169.146607 196.363952 
L 167.527018 196.363952 
z
" style="fill:#1f77b4;"/>
   </g>
   <g id="patch_66">
    <path clip-path="url(#p81276cf667)" d="M 169.146607 273.312 
L 170.766196 273.312 
L 170.766196 185.982072 
L 169.146607 185.982072 
z
" style="fill:#1f77b4;"/>
   </g>
   <g id="patch_67">
    <path clip-path="url(#p81276cf667)" d="M 170.766196 273.312 
L 172.385785 273.312 
L 172.385785 188.424867 
L 170.766196 188.424867 
z
" style="fill:#1f77b4;"/>
   </g>
   <g id="patch_68">
    <path clip-path="url(#p81276cf667)" d="M 172.385785 273.312 
L 174.005374 273.312 
L 174.005374 197.585349 
L 172.385785 197.585349 
z
" style="fill:#1f77b4;"/>
   </g>
   <g id="patch_69">
    <path clip-path="url(#p81276cf667)" d="M 174.005374 273.312 
L 175.624963 273.312 
L 175.624963 187.20347 
L 174.005374 187.20347 
z
" style="fill:#1f77b4;"/>
   </g>
   <g id="patch_70">
    <path clip-path="url(#p81276cf667)" d="M 175.624963 273.312 
L 177.244552 273.312 
L 177.244552 204.913735 
L 175.624963 204.913735 
z
" style="fill:#1f77b4;"/>
   </g>
   <g id="patch_71">
    <path clip-path="url(#p81276cf667)" d="M 177.244552 273.312 
L 178.864141 273.312 
L 178.864141 181.707181 
L 177.244552 181.707181 
z
" style="fill:#1f77b4;"/>
   </g>
   <g id="patch_72">
    <path clip-path="url(#p81276cf667)" d="M 178.864141 273.312 
L 180.48373 273.312 
L 180.48373 193.310458 
L 178.864141 193.310458 
z
" style="fill:#1f77b4;"/>
   </g>
   <g id="patch_73">
    <path clip-path="url(#p81276cf667)" d="M 180.48373 273.312 
L 182.103318 273.312 
L 182.103318 195.753253 
L 180.48373 195.753253 
z
" style="fill:#1f77b4;"/>
   </g>
   <g id="patch_74">
    <path clip-path="url(#p81276cf667)" d="M 182.103318 273.312 
L 183.722907 273.312 
L 183.722907 185.982072 
L 182.103318 185.982072 
z
" style="fill:#1f77b4;"/>
   </g>
   <g id="patch_75">
    <path clip-path="url(#p81276cf667)" d="M 183.722907 273.312 
L 185.342496 273.312 
L 185.342496 190.867663 
L 183.722907 190.867663 
z
" style="fill:#1f77b4;"/>
   </g>
   <g id="patch_76">
    <path clip-path="url(#p81276cf667)" d="M 185.342496 273.312 
L 186.962085 273.312 
L 186.962085 174.378795 
L 185.342496 174.378795 
z
" style="fill:#1f77b4;"/>
   </g>
   <g id="patch_77">
    <path clip-path="url(#p81276cf667)" d="M 186.962085 273.312 
L 188.581674 273.312 
L 188.581674 178.042988 
L 186.962085 178.042988 
z
" style="fill:#1f77b4;"/>
   </g>
   <g id="patch_78">
    <path clip-path="url(#p81276cf667)" d="M 188.581674 273.312 
L 190.201263 273.312 
L 190.201263 195.142554 
L 188.581674 195.142554 
z
" style="fill:#1f77b4;"/>
   </g>
   <g id="patch_79">
    <path clip-path="url(#p81276cf667)" d="M 190.201263 273.312 
L 191.820852 273.312 
L 191.820852 176.82159 
L 190.201263 176.82159 
z
" style="fill:#1f77b4;"/>
   </g>
   <g id="patch_80">
    <path clip-path="url(#p81276cf667)" d="M 191.820852 273.312 
L 193.440441 273.312 
L 193.440441 170.714602 
L 191.820852 170.714602 
z
" style="fill:#1f77b4;"/>
   </g>
   <g id="patch_81">
    <path clip-path="url(#p81276cf667)" d="M 193.440441 273.312 
L 195.06003 273.312 
L 195.06003 179.264386 
L 193.440441 179.264386 
z
" style="fill:#1f77b4;"/>
   </g>
   <g id="patch_82">
    <path clip-path="url(#p81276cf667)" d="M 195.06003 273.312 
L 196.679618 273.312 
L 196.679618 170.714602 
L 195.06003 170.714602 
z
" style="fill:#1f77b4;"/>
   </g>
   <g id="patch_83">
    <path clip-path="url(#p81276cf667)" d="M 196.679618 273.312 
L 198.299207 273.312 
L 198.299207 164.607614 
L 196.679618 164.607614 
z
" style="fill:#1f77b4;"/>
   </g>
   <g id="patch_84">
    <path clip-path="url(#p81276cf667)" d="M 198.299207 273.312 
L 199.918796 273.312 
L 199.918796 181.096482 
L 198.299207 181.096482 
z
" style="fill:#1f77b4;"/>
   </g>
   <g id="patch_85">
    <path clip-path="url(#p81276cf667)" d="M 199.918796 273.312 
L 201.538385 273.312 
L 201.538385 166.439711 
L 199.918796 166.439711 
z
" style="fill:#1f77b4;"/>
   </g>
   <g id="patch_86">
    <path clip-path="url(#p81276cf667)" d="M 201.538385 273.312 
L 203.157974 273.312 
L 203.157974 168.271807 
L 201.538385 168.271807 
z
" style="fill:#1f77b4;"/>
   </g>
   <g id="patch_87">
    <path clip-path="url(#p81276cf667)" d="M 203.157974 273.312 
L 204.777563 273.312 
L 204.777563 173.768096 
L 203.157974 173.768096 
z
" style="fill:#1f77b4;"/>
   </g>
   <g id="patch_88">
    <path clip-path="url(#p81276cf667)" d="M 204.777563 273.312 
L 206.397152 273.312 
L 206.397152 159.722024 
L 204.777563 159.722024 
z
" style="fill:#1f77b4;"/>
   </g>
   <g id="patch_89">
    <path clip-path="url(#p81276cf667)" d="M 206.397152 273.312 
L 208.016741 273.312 
L 208.016741 174.378795 
L 206.397152 174.378795 
z
" style="fill:#1f77b4;"/>
   </g>
   <g id="patch_90">
    <path clip-path="url(#p81276cf667)" d="M 208.016741 273.312 
L 209.636329 273.312 
L 209.636329 163.386217 
L 208.016741 163.386217 
z
" style="fill:#1f77b4;"/>
   </g>
   <g id="patch_91">
    <path clip-path="url(#p81276cf667)" d="M 209.636329 273.312 
L 211.255918 273.312 
L 211.255918 173.768096 
L 209.636329 173.768096 
z
" style="fill:#1f77b4;"/>
   </g>
   <g id="patch_92">
    <path clip-path="url(#p81276cf667)" d="M 211.255918 273.312 
L 212.875507 273.312 
L 212.875507 154.225735 
L 211.255918 154.225735 
z
" style="fill:#1f77b4;"/>
   </g>
   <g id="patch_93">
    <path clip-path="url(#p81276cf667)" d="M 212.875507 273.312 
L 214.495096 273.312 
L 214.495096 172.546699 
L 212.875507 172.546699 
z
" style="fill:#1f77b4;"/>
   </g>
   <g id="patch_94">
    <path clip-path="url(#p81276cf667)" d="M 214.495096 273.312 
L 216.114685 273.312 
L 216.114685 149.340145 
L 214.495096 149.340145 
z
" style="fill:#1f77b4;"/>
   </g>
   <g id="patch_95">
    <path clip-path="url(#p81276cf667)" d="M 216.114685 273.312 
L 217.734274 273.312 
L 217.734274 167.05041 
L 216.114685 167.05041 
z
" style="fill:#1f77b4;"/>
   </g>
   <g id="patch_96">
    <path clip-path="url(#p81276cf667)" d="M 217.734274 273.312 
L 219.353863 273.312 
L 219.353863 169.493205 
L 217.734274 169.493205 
z
" style="fill:#1f77b4;"/>
   </g>
   <g id="patch_97">
    <path clip-path="url(#p81276cf667)" d="M 219.353863 273.312 
L 220.973452 273.312 
L 220.973452 148.118747 
L 219.353863 148.118747 
z
" style="fill:#1f77b4;"/>
   </g>
   <g id="patch_98">
    <path clip-path="url(#p81276cf667)" d="M 220.973452 273.312 
L 222.593041 273.312 
L 222.593041 163.996916 
L 220.973452 163.996916 
z
" style="fill:#1f77b4;"/>
   </g>
   <g id="patch_99">
    <path clip-path="url(#p81276cf667)" d="M 222.593041 273.312 
L 224.212629 273.312 
L 224.212629 145.675952 
L 222.593041 145.675952 
z
" style="fill:#1f77b4;"/>
   </g>
   <g id="patch_100">
    <path clip-path="url(#p81276cf667)" d="M 224.212629 273.312 
L 225.832218 273.312 
L 225.832218 156.66853 
L 224.212629 156.66853 
z
" style="fill:#1f77b4;"/>
   </g>
   <g id="patch_101">
    <path clip-path="url(#p81276cf667)" d="M 225.832218 273.312 
L 227.451807 273.312 
L 227.451807 164.607614 
L 225.832218 164.607614 
z
" style="fill:#1f77b4;"/>
   </g>
   <g id="patch_102">
    <path clip-path="url(#p81276cf667)" d="M 227.451807 273.312 
L 229.071396 273.312 
L 229.071396 153.615036 
L 227.451807 153.615036 
z
" style="fill:#1f77b4;"/>
   </g>
   <g id="patch_103">
    <path clip-path="url(#p81276cf667)" d="M 229.071396 273.312 
L 230.690985 273.312 
L 230.690985 149.340145 
L 229.071396 149.340145 
z
" style="fill:#1f77b4;"/>
   </g>
   <g id="patch_104">
    <path clip-path="url(#p81276cf667)" d="M 230.690985 273.312 
L 232.310574 273.312 
L 232.310574 151.172241 
L 230.690985 151.172241 
z
" style="fill:#1f77b4;"/>
   </g>
   <g id="patch_105">
    <path clip-path="url(#p81276cf667)" d="M 232.310574 273.312 
L 233.930163 273.312 
L 233.930163 160.332723 
L 232.310574 160.332723 
z
" style="fill:#1f77b4;"/>
   </g>
   <g id="patch_106">
    <path clip-path="url(#p81276cf667)" d="M 233.930163 273.312 
L 235.549752 273.312 
L 235.549752 161.55412 
L 233.930163 161.55412 
z
" style="fill:#1f77b4;"/>
   </g>
   <g id="patch_107">
    <path clip-path="url(#p81276cf667)" d="M 235.549752 273.312 
L 237.169341 273.312 
L 237.169341 138.958265 
L 235.549752 138.958265 
z
" style="fill:#1f77b4;"/>
   </g>
   <g id="patch_108">
    <path clip-path="url(#p81276cf667)" d="M 237.169341 273.312 
L 238.788929 273.312 
L 238.788929 156.057831 
L 237.169341 156.057831 
z
" style="fill:#1f77b4;"/>
   </g>
   <g id="patch_109">
    <path clip-path="url(#p81276cf667)" d="M 238.788929 273.312 
L 240.408518 273.312 
L 240.408518 148.729446 
L 238.788929 148.729446 
z
" style="fill:#1f77b4;"/>
   </g>
   <g id="patch_110">
    <path clip-path="url(#p81276cf667)" d="M 240.408518 273.312 
L 242.028107 273.312 
L 242.028107 134.072675 
L 240.408518 134.072675 
z
" style="fill:#1f77b4;"/>
   </g>
   <g id="patch_111">
    <path clip-path="url(#p81276cf667)" d="M 242.028107 273.312 
L 243.647696 273.312 
L 243.647696 132.240578 
L 242.028107 132.240578 
z
" style="fill:#1f77b4;"/>
   </g>
   <g id="patch_112">
    <path clip-path="url(#p81276cf667)" d="M 243.647696 273.312 
L 245.267285 273.312 
L 245.267285 138.347566 
L 243.647696 138.347566 
z
" style="fill:#1f77b4;"/>
   </g>
   <g id="patch_113">
    <path clip-path="url(#p81276cf667)" d="M 245.267285 273.312 
L 246.886874 273.312 
L 246.886874 129.187084 
L 245.267285 129.187084 
z
" style="fill:#1f77b4;"/>
   </g>
   <g id="patch_114">
    <path clip-path="url(#p81276cf667)" d="M 246.886874 273.312 
L 248.506463 273.312 
L 248.506463 137.126169 
L 246.886874 137.126169 
z
" style="fill:#1f77b4;"/>
   </g>
   <g id="patch_115">
    <path clip-path="url(#p81276cf667)" d="M 248.506463 273.312 
L 250.126052 273.312 
L 250.126052 129.797783 
L 248.506463 129.797783 
z
" style="fill:#1f77b4;"/>
   </g>
   <g id="patch_116">
    <path clip-path="url(#p81276cf667)" d="M 250.126052 273.312 
L 251.74564 273.312 
L 251.74564 128.576386 
L 250.126052 128.576386 
z
" style="fill:#1f77b4;"/>
   </g>
   <g id="patch_117">
    <path clip-path="url(#p81276cf667)" d="M 251.74564 273.312 
L 253.365229 273.312 
L 253.365229 133.461976 
L 251.74564 133.461976 
z
" style="fill:#1f77b4;"/>
   </g>
   <g id="patch_118">
    <path clip-path="url(#p81276cf667)" d="M 253.365229 273.312 
L 254.984818 273.312 
L 254.984818 113.308916 
L 253.365229 113.308916 
z
" style="fill:#1f77b4;"/>
   </g>
   <g id="patch_119">
    <path clip-path="url(#p81276cf667)" d="M 254.984818 273.312 
L 256.604407 273.312 
L 256.604407 120.026602 
L 254.984818 120.026602 
z
" style="fill:#1f77b4;"/>
   </g>
   <g id="patch_120">
    <path clip-path="url(#p81276cf667)" d="M 256.604407 273.312 
L 258.223996 273.312 
L 258.223996 116.36241 
L 256.604407 116.36241 
z
" style="fill:#1f77b4;"/>
   </g>
   <g id="patch_121">
    <path clip-path="url(#p81276cf667)" d="M 258.223996 273.312 
L 259.843585 273.312 
L 259.843585 115.751711 
L 258.223996 115.751711 
z
" style="fill:#1f77b4;"/>
   </g>
   <g id="patch_122">
    <path clip-path="url(#p81276cf667)" d="M 259.843585 273.312 
L 261.463174 273.312 
L 261.463174 134.683373 
L 259.843585 134.683373 
z
" style="fill:#1f77b4;"/>
   </g>
   <g id="patch_123">
    <path clip-path="url(#p81276cf667)" d="M 261.463174 273.312 
L 263.082763 273.312 
L 263.082763 104.148434 
L 261.463174 104.148434 
z
" style="fill:#1f77b4;"/>
   </g>
   <g id="patch_124">
    <path clip-path="url(#p81276cf667)" d="M 263.082763 273.312 
L 264.702352 273.312 
L 264.702352 105.98053 
L 263.082763 105.98053 
z
" style="fill:#1f77b4;"/>
   </g>
   <g id="patch_125">
    <path clip-path="url(#p81276cf667)" d="M 264.702352 273.312 
L 266.32194 273.312 
L 266.32194 131.62988 
L 264.702352 131.62988 
z
" style="fill:#1f77b4;"/>
   </g>
   <g id="patch_126">
    <path clip-path="url(#p81276cf667)" d="M 266.32194 273.312 
L 267.941529 273.312 
L 267.941529 123.080096 
L 266.32194 123.080096 
z
" style="fill:#1f77b4;"/>
   </g>
   <g id="patch_127">
    <path clip-path="url(#p81276cf667)" d="M 267.941529 273.312 
L 269.561118 273.312 
L 269.561118 127.354988 
L 267.941529 127.354988 
z
" style="fill:#1f77b4;"/>
   </g>
   <g id="patch_128">
    <path clip-path="url(#p81276cf667)" d="M 269.561118 273.312 
L 271.180707 273.312 
L 271.180707 112.698217 
L 269.561118 112.698217 
z
" style="fill:#1f77b4;"/>
   </g>
   <g id="patch_129">
    <path clip-path="url(#p81276cf667)" d="M 271.180707 273.312 
L 272.800296 273.312 
L 272.800296 114.530313 
L 271.180707 114.530313 
z
" style="fill:#1f77b4;"/>
   </g>
   <g id="patch_130">
    <path clip-path="url(#p81276cf667)" d="M 272.800296 273.312 
L 274.419885 273.312 
L 274.419885 110.86612 
L 272.800296 110.86612 
z
" style="fill:#1f77b4;"/>
   </g>
   <g id="patch_131">
    <path clip-path="url(#p81276cf667)" d="M 274.419885 273.312 
L 276.039474 273.312 
L 276.039474 105.98053 
L 274.419885 105.98053 
z
" style="fill:#1f77b4;"/>
   </g>
   <g id="patch_132">
    <path clip-path="url(#p81276cf667)" d="M 276.039474 273.312 
L 277.659063 273.312 
L 277.659063 120.026602 
L 276.039474 120.026602 
z
" style="fill:#1f77b4;"/>
   </g>
   <g id="patch_133">
    <path clip-path="url(#p81276cf667)" d="M 277.659063 273.312 
L 279.278652 273.312 
L 279.278652 109.034024 
L 277.659063 109.034024 
z
" style="fill:#1f77b4;"/>
   </g>
   <g id="patch_134">
    <path clip-path="url(#p81276cf667)" d="M 279.278652 273.312 
L 280.89824 273.312 
L 280.89824 105.369831 
L 279.278652 105.369831 
z
" style="fill:#1f77b4;"/>
   </g>
   <g id="patch_135">
    <path clip-path="url(#p81276cf667)" d="M 280.89824 273.312 
L 282.517829 273.312 
L 282.517829 118.194506 
L 280.89824 118.194506 
z
" style="fill:#1f77b4;"/>
   </g>
   <g id="patch_136">
    <path clip-path="url(#p81276cf667)" d="M 282.517829 273.312 
L 284.137418 273.312 
L 284.137418 110.86612 
L 282.517829 110.86612 
z
" style="fill:#1f77b4;"/>
   </g>
   <g id="patch_137">
    <path clip-path="url(#p81276cf667)" d="M 284.137418 273.312 
L 285.757007 273.312 
L 285.757007 111.476819 
L 284.137418 111.476819 
z
" style="fill:#1f77b4;"/>
   </g>
   <g id="patch_138">
    <path clip-path="url(#p81276cf667)" d="M 285.757007 273.312 
L 287.376596 273.312 
L 287.376596 121.248 
L 285.757007 121.248 
z
" style="fill:#1f77b4;"/>
   </g>
   <g id="patch_139">
    <path clip-path="url(#p81276cf667)" d="M 287.376596 273.312 
L 288.996185 273.312 
L 288.996185 114.530313 
L 287.376596 114.530313 
z
" style="fill:#1f77b4;"/>
   </g>
   <g id="patch_140">
    <path clip-path="url(#p81276cf667)" d="M 288.996185 273.312 
L 290.615774 273.312 
L 290.615774 109.644723 
L 288.996185 109.644723 
z
" style="fill:#1f77b4;"/>
   </g>
   <g id="patch_141">
    <path clip-path="url(#p81276cf667)" d="M 290.615774 273.312 
L 292.235363 273.312 
L 292.235363 95.598651 
L 290.615774 95.598651 
z
" style="fill:#1f77b4;"/>
   </g>
   <g id="patch_142">
    <path clip-path="url(#p81276cf667)" d="M 292.235363 273.312 
L 293.854952 273.312 
L 293.854952 110.86612 
L 292.235363 110.86612 
z
" style="fill:#1f77b4;"/>
   </g>
   <g id="patch_143">
    <path clip-path="url(#p81276cf667)" d="M 293.854952 273.312 
L 295.47454 273.312 
L 295.47454 102.927036 
L 293.854952 102.927036 
z
" style="fill:#1f77b4;"/>
   </g>
   <g id="patch_144">
    <path clip-path="url(#p81276cf667)" d="M 295.47454 273.312 
L 297.094129 273.312 
L 297.094129 110.255422 
L 295.47454 110.255422 
z
" style="fill:#1f77b4;"/>
   </g>
   <g id="patch_145">
    <path clip-path="url(#p81276cf667)" d="M 297.094129 273.312 
L 298.713718 273.312 
L 298.713718 103.537735 
L 297.094129 103.537735 
z
" style="fill:#1f77b4;"/>
   </g>
   <g id="patch_146">
    <path clip-path="url(#p81276cf667)" d="M 298.713718 273.312 
L 300.333307 273.312 
L 300.333307 101.705639 
L 298.713718 101.705639 
z
" style="fill:#1f77b4;"/>
   </g>
   <g id="patch_147">
    <path clip-path="url(#p81276cf667)" d="M 300.333307 273.312 
L 301.952896 273.312 
L 301.952896 88.880964 
L 300.333307 88.880964 
z
" style="fill:#1f77b4;"/>
   </g>
   <g id="patch_148">
    <path clip-path="url(#p81276cf667)" d="M 301.952896 273.312 
L 303.572485 273.312 
L 303.572485 117.583807 
L 301.952896 117.583807 
z
" style="fill:#1f77b4;"/>
   </g>
   <g id="patch_149">
    <path clip-path="url(#p81276cf667)" d="M 303.572485 273.312 
L 305.192074 273.312 
L 305.192074 102.316337 
L 303.572485 102.316337 
z
" style="fill:#1f77b4;"/>
   </g>
   <g id="patch_150">
    <path clip-path="url(#p81276cf667)" d="M 305.192074 273.312 
L 306.811663 273.312 
L 306.811663 108.423325 
L 305.192074 108.423325 
z
" style="fill:#1f77b4;"/>
   </g>
   <g id="patch_151">
    <path clip-path="url(#p81276cf667)" d="M 306.811663 273.312 
L 308.431251 273.312 
L 308.431251 95.598651 
L 306.811663 95.598651 
z
" style="fill:#1f77b4;"/>
   </g>
   <g id="patch_152">
    <path clip-path="url(#p81276cf667)" d="M 308.431251 273.312 
L 310.05084 273.312 
L 310.05084 105.98053 
L 308.431251 105.98053 
z
" style="fill:#1f77b4;"/>
   </g>
   <g id="patch_153">
    <path clip-path="url(#p81276cf667)" d="M 310.05084 273.312 
L 311.670429 273.312 
L 311.670429 99.873542 
L 310.05084 99.873542 
z
" style="fill:#1f77b4;"/>
   </g>
   <g id="patch_154">
    <path clip-path="url(#p81276cf667)" d="M 311.670429 273.312 
L 313.290018 273.312 
L 313.290018 84.606072 
L 311.670429 84.606072 
z
" style="fill:#1f77b4;"/>
   </g>
   <g id="patch_155">
    <path clip-path="url(#p81276cf667)" d="M 313.290018 273.312 
L 314.909607 273.312 
L 314.909607 88.270265 
L 313.290018 88.270265 
z
" style="fill:#1f77b4;"/>
   </g>
   <g id="patch_156">
    <path clip-path="url(#p81276cf667)" d="M 314.909607 273.312 
L 316.529196 273.312 
L 316.529196 87.659566 
L 314.909607 87.659566 
z
" style="fill:#1f77b4;"/>
   </g>
   <g id="patch_157">
    <path clip-path="url(#p81276cf667)" d="M 316.529196 273.312 
L 318.148785 273.312 
L 318.148785 87.048867 
L 316.529196 87.048867 
z
" style="fill:#1f77b4;"/>
   </g>
   <g id="patch_158">
    <path clip-path="url(#p81276cf667)" d="M 318.148785 273.312 
L 319.768374 273.312 
L 319.768374 74.834892 
L 318.148785 74.834892 
z
" style="fill:#1f77b4;"/>
   </g>
   <g id="patch_159">
    <path clip-path="url(#p81276cf667)" d="M 319.768374 273.312 
L 321.387963 273.312 
L 321.387963 63.842313 
L 319.768374 63.842313 
z
" style="fill:#1f77b4;"/>
   </g>
   <g id="patch_160">
    <path clip-path="url(#p81276cf667)" d="M 321.387963 273.312 
L 323.007551 273.312 
L 323.007551 94.987952 
L 321.387963 94.987952 
z
" style="fill:#1f77b4;"/>
   </g>
   <g id="patch_161">
    <path clip-path="url(#p81276cf667)" d="M 323.007551 273.312 
L 324.62714 273.312 
L 324.62714 83.995373 
L 323.007551 83.995373 
z
" style="fill:#1f77b4;"/>
   </g>
   <g id="patch_162">
    <path clip-path="url(#p81276cf667)" d="M 324.62714 273.312 
L 326.246729 273.312 
L 326.246729 103.537735 
L 324.62714 103.537735 
z
" style="fill:#1f77b4;"/>
   </g>
   <g id="patch_163">
    <path clip-path="url(#p81276cf667)" d="M 326.246729 273.312 
L 327.866318 273.312 
L 327.866318 93.155855 
L 326.246729 93.155855 
z
" style="fill:#1f77b4;"/>
   </g>
   <g id="patch_164">
    <path clip-path="url(#p81276cf667)" d="M 327.866318 273.312 
L 329.485907 273.312 
L 329.485907 63.842313 
L 327.866318 63.842313 
z
" style="fill:#1f77b4;"/>
   </g>
   <g id="patch_165">
    <path clip-path="url(#p81276cf667)" d="M 329.485907 273.312 
L 331.105496 273.312 
L 331.105496 58.956723 
L 329.485907 58.956723 
z
" style="fill:#1f77b4;"/>
   </g>
   <g id="patch_166">
    <path clip-path="url(#p81276cf667)" d="M 331.105496 273.312 
L 332.725085 273.312 
L 332.725085 76.666988 
L 331.105496 76.666988 
z
" style="fill:#1f77b4;"/>
   </g>
   <g id="patch_167">
    <path clip-path="url(#p81276cf667)" d="M 332.725085 273.312 
L 334.344674 273.312 
L 334.344674 66.895807 
L 332.725085 66.895807 
z
" style="fill:#1f77b4;"/>
   </g>
   <g id="patch_168">
    <path clip-path="url(#p81276cf667)" d="M 334.344674 273.312 
L 335.964263 273.312 
L 335.964263 65.063711 
L 334.344674 65.063711 
z
" style="fill:#1f77b4;"/>
   </g>
   <g id="patch_169">
    <path clip-path="url(#p81276cf667)" d="M 335.964263 273.312 
L 337.583851 273.312 
L 337.583851 83.995373 
L 335.964263 83.995373 
z
" style="fill:#1f77b4;"/>
   </g>
   <g id="patch_170">
    <path clip-path="url(#p81276cf667)" d="M 337.583851 273.312 
L 339.20344 273.312 
L 339.20344 65.67441 
L 337.583851 65.67441 
z
" style="fill:#1f77b4;"/>
   </g>
   <g id="patch_171">
    <path clip-path="url(#p81276cf667)" d="M 339.20344 273.312 
L 340.823029 273.312 
L 340.823029 77.888386 
L 339.20344 77.888386 
z
" style="fill:#1f77b4;"/>
   </g>
   <g id="patch_172">
    <path clip-path="url(#p81276cf667)" d="M 340.823029 273.312 
L 342.442618 273.312 
L 342.442618 87.048867 
L 340.823029 87.048867 
z
" style="fill:#1f77b4;"/>
   </g>
   <g id="patch_173">
    <path clip-path="url(#p81276cf667)" d="M 342.442618 273.312 
L 344.062207 273.312 
L 344.062207 67.506506 
L 342.442618 67.506506 
z
" style="fill:#1f77b4;"/>
   </g>
   <g id="patch_174">
    <path clip-path="url(#p81276cf667)" d="M 344.062207 273.312 
L 345.681796 273.312 
L 345.681796 77.888386 
L 344.062207 77.888386 
z
" style="fill:#1f77b4;"/>
   </g>
   <g id="patch_175">
    <path clip-path="url(#p81276cf667)" d="M 345.681796 273.312 
L 347.301385 273.312 
L 347.301385 62.620916 
L 345.681796 62.620916 
z
" style="fill:#1f77b4;"/>
   </g>
   <g id="patch_176">
    <path clip-path="url(#p81276cf667)" d="M 347.301385 273.312 
L 348.920974 273.312 
L 348.920974 74.224193 
L 347.301385 74.224193 
z
" style="fill:#1f77b4;"/>
   </g>
   <g id="patch_177">
    <path clip-path="url(#p81276cf667)" d="M 348.920974 273.312 
L 350.540563 273.312 
L 350.540563 60.17812 
L 348.920974 60.17812 
z
" style="fill:#1f77b4;"/>
   </g>
   <g id="patch_178">
    <path clip-path="url(#p81276cf667)" d="M 350.540563 273.312 
L 352.160151 273.312 
L 352.160151 54.681831 
L 350.540563 54.681831 
z
" style="fill:#1f77b4;"/>
   </g>
   <g id="patch_179">
    <path clip-path="url(#p81276cf667)" d="M 352.160151 273.312 
L 353.77974 273.312 
L 353.77974 61.399518 
L 352.160151 61.399518 
z
" style="fill:#1f77b4;"/>
   </g>
   <g id="patch_180">
    <path clip-path="url(#p81276cf667)" d="M 353.77974 273.312 
L 355.399329 273.312 
L 355.399329 40.02506 
L 353.77974 40.02506 
z
" style="fill:#1f77b4;"/>
   </g>
   <g id="patch_181">
    <path clip-path="url(#p81276cf667)" d="M 355.399329 273.312 
L 357.018918 273.312 
L 357.018918 54.681831 
L 355.399329 54.681831 
z
" style="fill:#1f77b4;"/>
   </g>
   <g id="patch_182">
    <path clip-path="url(#p81276cf667)" d="M 357.018918 273.312 
L 358.638507 273.312 
L 358.638507 63.231614 
L 357.018918 63.231614 
z
" style="fill:#1f77b4;"/>
   </g>
   <g id="patch_183">
    <path clip-path="url(#p81276cf667)" d="M 358.638507 273.312 
L 360.258096 273.312 
L 360.258096 62.010217 
L 358.638507 62.010217 
z
" style="fill:#1f77b4;"/>
   </g>
   <g id="patch_184">
    <path clip-path="url(#p81276cf667)" d="M 360.258096 273.312 
L 361.877685 273.312 
L 361.877685 52.239036 
L 360.258096 52.239036 
z
" style="fill:#1f77b4;"/>
   </g>
   <g id="patch_185">
    <path clip-path="url(#p81276cf667)" d="M 361.877685 273.312 
L 363.497274 273.312 
L 363.497274 55.903229 
L 361.877685 55.903229 
z
" style="fill:#1f77b4;"/>
   </g>
   <g id="patch_186">
    <path clip-path="url(#p81276cf667)" d="M 363.497274 273.312 
L 365.116862 273.312 
L 365.116862 57.735325 
L 363.497274 57.735325 
z
" style="fill:#1f77b4;"/>
   </g>
   <g id="patch_187">
    <path clip-path="url(#p81276cf667)" d="M 365.116862 273.312 
L 366.736451 273.312 
L 366.736451 38.192964 
L 365.116862 38.192964 
z
" style="fill:#1f77b4;"/>
   </g>
   <g id="patch_188">
    <path clip-path="url(#p81276cf667)" d="M 366.736451 273.312 
L 368.35604 273.312 
L 368.35604 55.903229 
L 366.736451 55.903229 
z
" style="fill:#1f77b4;"/>
   </g>
   <g id="patch_189">
    <path clip-path="url(#p81276cf667)" d="M 368.35604 273.312 
L 369.975629 273.312 
L 369.975629 37.582265 
L 368.35604 37.582265 
z
" style="fill:#1f77b4;"/>
   </g>
   <g id="patch_190">
    <path clip-path="url(#p81276cf667)" d="M 369.975629 273.312 
L 371.595218 273.312 
L 371.595218 43.078554 
L 369.975629 43.078554 
z
" style="fill:#1f77b4;"/>
   </g>
   <g id="patch_191">
    <path clip-path="url(#p81276cf667)" d="M 371.595218 273.312 
L 373.214807 273.312 
L 373.214807 32.085976 
L 371.595218 32.085976 
z
" style="fill:#1f77b4;"/>
   </g>
   <g id="patch_192">
    <path clip-path="url(#p81276cf667)" d="M 373.214807 273.312 
L 374.834396 273.312 
L 374.834396 45.521349 
L 373.214807 45.521349 
z
" style="fill:#1f77b4;"/>
   </g>
   <g id="patch_193">
    <path clip-path="url(#p81276cf667)" d="M 374.834396 273.312 
L 376.453985 273.312 
L 376.453985 20.482699 
L 374.834396 20.482699 
z
" style="fill:#1f77b4;"/>
   </g>
   <g id="patch_194">
    <path clip-path="url(#p81276cf667)" d="M 376.453985 273.312 
L 378.073574 273.312 
L 378.073574 19.872 
L 376.453985 19.872 
z
" style="fill:#1f77b4;"/>
   </g>
   <g id="patch_195">
    <path clip-path="url(#p81276cf667)" d="M 378.073574 273.312 
L 379.693162 273.312 
L 379.693162 36.971566 
L 378.073574 36.971566 
z
" style="fill:#1f77b4;"/>
   </g>
   <g id="patch_196">
    <path clip-path="url(#p81276cf667)" d="M 379.693162 273.312 
L 381.312751 273.312 
L 381.312751 23.536193 
L 379.693162 23.536193 
z
" style="fill:#1f77b4;"/>
   </g>
   <g id="patch_197">
    <path clip-path="url(#p81276cf667)" d="M 381.312751 273.312 
L 382.93234 273.312 
L 382.93234 29.643181 
L 381.312751 29.643181 
z
" style="fill:#1f77b4;"/>
   </g>
   <g id="patch_198">
    <path clip-path="url(#p81276cf667)" d="M 382.93234 273.312 
L 384.551929 273.312 
L 384.551929 40.635759 
L 382.93234 40.635759 
z
" style="fill:#1f77b4;"/>
   </g>
   <g id="patch_199">
    <path clip-path="url(#p81276cf667)" d="M 384.551929 273.312 
L 386.171518 273.312 
L 386.171518 48.574843 
L 384.551929 48.574843 
z
" style="fill:#1f77b4;"/>
   </g>
   <g id="patch_200">
    <path clip-path="url(#p81276cf667)" d="M 386.171518 273.312 
L 387.791107 273.312 
L 387.791107 49.796241 
L 386.171518 49.796241 
z
" style="fill:#1f77b4;"/>
   </g>
   <g id="patch_201">
    <path clip-path="url(#p81276cf667)" d="M 387.791107 273.312 
L 389.410696 273.312 
L 389.410696 36.360867 
L 387.791107 36.360867 
z
" style="fill:#1f77b4;"/>
   </g>
   <g id="patch_202">
    <path clip-path="url(#p81276cf667)" d="M 389.410696 273.312 
L 391.030285 273.312 
L 391.030285 36.360867 
L 389.410696 36.360867 
z
" style="fill:#1f77b4;"/>
   </g>
   <g id="matplotlib.axis_1">
    <g id="xtick_1">
     <g id="line2d_1">
      <defs>
       <path d="M 0 0 
L 0 3.5 
" id="md1378bb170" style="stroke:#000000;stroke-width:0.8;"/>
      </defs>
      <g>
       <use style="stroke:#000000;stroke-width:0.8;" x="66.376477" xlink:href="#md1378bb170" y="273.312"/>
      </g>
     </g>
     <g id="text_1">
      <!-- 0.0 -->
      <g transform="translate(58.424915 287.910437)scale(0.1 -0.1)">
       <defs>
        <path d="M 2034 4250 
Q 1547 4250 1301 3770 
Q 1056 3291 1056 2328 
Q 1056 1369 1301 889 
Q 1547 409 2034 409 
Q 2525 409 2770 889 
Q 3016 1369 3016 2328 
Q 3016 3291 2770 3770 
Q 2525 4250 2034 4250 
z
M 2034 4750 
Q 2819 4750 3233 4129 
Q 3647 3509 3647 2328 
Q 3647 1150 3233 529 
Q 2819 -91 2034 -91 
Q 1250 -91 836 529 
Q 422 1150 422 2328 
Q 422 3509 836 4129 
Q 1250 4750 2034 4750 
z
" id="DejaVuSans-30" transform="scale(0.015625)"/>
        <path d="M 684 794 
L 1344 794 
L 1344 0 
L 684 0 
L 684 794 
z
" id="DejaVuSans-2e" transform="scale(0.015625)"/>
       </defs>
       <use xlink:href="#DejaVuSans-30"/>
       <use x="63.623047" xlink:href="#DejaVuSans-2e"/>
       <use x="95.410156" xlink:href="#DejaVuSans-30"/>
      </g>
     </g>
    </g>
    <g id="xtick_2">
     <g id="line2d_2">
      <g>
       <use style="stroke:#000000;stroke-width:0.8;" x="131.307386" xlink:href="#md1378bb170" y="273.312"/>
      </g>
     </g>
     <g id="text_2">
      <!-- 0.2 -->
      <g transform="translate(123.355824 287.910437)scale(0.1 -0.1)">
       <defs>
        <path d="M 1228 531 
L 3431 531 
L 3431 0 
L 469 0 
L 469 531 
Q 828 903 1448 1529 
Q 2069 2156 2228 2338 
Q 2531 2678 2651 2914 
Q 2772 3150 2772 3378 
Q 2772 3750 2511 3984 
Q 2250 4219 1831 4219 
Q 1534 4219 1204 4116 
Q 875 4013 500 3803 
L 500 4441 
Q 881 4594 1212 4672 
Q 1544 4750 1819 4750 
Q 2544 4750 2975 4387 
Q 3406 4025 3406 3419 
Q 3406 3131 3298 2873 
Q 3191 2616 2906 2266 
Q 2828 2175 2409 1742 
Q 1991 1309 1228 531 
z
" id="DejaVuSans-32" transform="scale(0.015625)"/>
       </defs>
       <use xlink:href="#DejaVuSans-30"/>
       <use x="63.623047" xlink:href="#DejaVuSans-2e"/>
       <use x="95.410156" xlink:href="#DejaVuSans-32"/>
      </g>
     </g>
    </g>
    <g id="xtick_3">
     <g id="line2d_3">
      <g>
       <use style="stroke:#000000;stroke-width:0.8;" x="196.238295" xlink:href="#md1378bb170" y="273.312"/>
      </g>
     </g>
     <g id="text_3">
      <!-- 0.4 -->
      <g transform="translate(188.286733 287.910437)scale(0.1 -0.1)">
       <defs>
        <path d="M 2419 4116 
L 825 1625 
L 2419 1625 
L 2419 4116 
z
M 2253 4666 
L 3047 4666 
L 3047 1625 
L 3713 1625 
L 3713 1100 
L 3047 1100 
L 3047 0 
L 2419 0 
L 2419 1100 
L 313 1100 
L 313 1709 
L 2253 4666 
z
" id="DejaVuSans-34" transform="scale(0.015625)"/>
       </defs>
       <use xlink:href="#DejaVuSans-30"/>
       <use x="63.623047" xlink:href="#DejaVuSans-2e"/>
       <use x="95.410156" xlink:href="#DejaVuSans-34"/>
      </g>
     </g>
    </g>
    <g id="xtick_4">
     <g id="line2d_4">
      <g>
       <use style="stroke:#000000;stroke-width:0.8;" x="261.169205" xlink:href="#md1378bb170" y="273.312"/>
      </g>
     </g>
     <g id="text_4">
      <!-- 0.6 -->
      <g transform="translate(253.217642 287.910437)scale(0.1 -0.1)">
       <defs>
        <path d="M 2113 2584 
Q 1688 2584 1439 2293 
Q 1191 2003 1191 1497 
Q 1191 994 1439 701 
Q 1688 409 2113 409 
Q 2538 409 2786 701 
Q 3034 994 3034 1497 
Q 3034 2003 2786 2293 
Q 2538 2584 2113 2584 
z
M 3366 4563 
L 3366 3988 
Q 3128 4100 2886 4159 
Q 2644 4219 2406 4219 
Q 1781 4219 1451 3797 
Q 1122 3375 1075 2522 
Q 1259 2794 1537 2939 
Q 1816 3084 2150 3084 
Q 2853 3084 3261 2657 
Q 3669 2231 3669 1497 
Q 3669 778 3244 343 
Q 2819 -91 2113 -91 
Q 1303 -91 875 529 
Q 447 1150 447 2328 
Q 447 3434 972 4092 
Q 1497 4750 2381 4750 
Q 2619 4750 2861 4703 
Q 3103 4656 3366 4563 
z
" id="DejaVuSans-36" transform="scale(0.015625)"/>
       </defs>
       <use xlink:href="#DejaVuSans-30"/>
       <use x="63.623047" xlink:href="#DejaVuSans-2e"/>
       <use x="95.410156" xlink:href="#DejaVuSans-36"/>
      </g>
     </g>
    </g>
    <g id="xtick_5">
     <g id="line2d_5">
      <g>
       <use style="stroke:#000000;stroke-width:0.8;" x="326.100114" xlink:href="#md1378bb170" y="273.312"/>
      </g>
     </g>
     <g id="text_5">
      <!-- 0.8 -->
      <g transform="translate(318.148551 287.910437)scale(0.1 -0.1)">
       <defs>
        <path d="M 2034 2216 
Q 1584 2216 1326 1975 
Q 1069 1734 1069 1313 
Q 1069 891 1326 650 
Q 1584 409 2034 409 
Q 2484 409 2743 651 
Q 3003 894 3003 1313 
Q 3003 1734 2745 1975 
Q 2488 2216 2034 2216 
z
M 1403 2484 
Q 997 2584 770 2862 
Q 544 3141 544 3541 
Q 544 4100 942 4425 
Q 1341 4750 2034 4750 
Q 2731 4750 3128 4425 
Q 3525 4100 3525 3541 
Q 3525 3141 3298 2862 
Q 3072 2584 2669 2484 
Q 3125 2378 3379 2068 
Q 3634 1759 3634 1313 
Q 3634 634 3220 271 
Q 2806 -91 2034 -91 
Q 1263 -91 848 271 
Q 434 634 434 1313 
Q 434 1759 690 2068 
Q 947 2378 1403 2484 
z
M 1172 3481 
Q 1172 3119 1398 2916 
Q 1625 2713 2034 2713 
Q 2441 2713 2670 2916 
Q 2900 3119 2900 3481 
Q 2900 3844 2670 4047 
Q 2441 4250 2034 4250 
Q 1625 4250 1398 4047 
Q 1172 3844 1172 3481 
z
" id="DejaVuSans-38" transform="scale(0.015625)"/>
       </defs>
       <use xlink:href="#DejaVuSans-30"/>
       <use x="63.623047" xlink:href="#DejaVuSans-2e"/>
       <use x="95.410156" xlink:href="#DejaVuSans-38"/>
      </g>
     </g>
    </g>
    <g id="xtick_6">
     <g id="line2d_6">
      <g>
       <use style="stroke:#000000;stroke-width:0.8;" x="391.031023" xlink:href="#md1378bb170" y="273.312"/>
      </g>
     </g>
     <g id="text_6">
      <!-- 1.0 -->
      <g transform="translate(383.07946 287.910437)scale(0.1 -0.1)">
       <defs>
        <path d="M 794 531 
L 1825 531 
L 1825 4091 
L 703 3866 
L 703 4441 
L 1819 4666 
L 2450 4666 
L 2450 531 
L 3481 531 
L 3481 0 
L 794 0 
L 794 531 
z
" id="DejaVuSans-31" transform="scale(0.015625)"/>
       </defs>
       <use xlink:href="#DejaVuSans-31"/>
       <use x="63.623047" xlink:href="#DejaVuSans-2e"/>
       <use x="95.410156" xlink:href="#DejaVuSans-30"/>
      </g>
     </g>
    </g>
    <g id="text_7">
     <!-- Propagation direction -->
     <g transform="translate(175.221719 301.588562)scale(0.1 -0.1)">
      <defs>
       <path d="M 1259 4147 
L 1259 2394 
L 2053 2394 
Q 2494 2394 2734 2622 
Q 2975 2850 2975 3272 
Q 2975 3691 2734 3919 
Q 2494 4147 2053 4147 
L 1259 4147 
z
M 628 4666 
L 2053 4666 
Q 2838 4666 3239 4311 
Q 3641 3956 3641 3272 
Q 3641 2581 3239 2228 
Q 2838 1875 2053 1875 
L 1259 1875 
L 1259 0 
L 628 0 
L 628 4666 
z
" id="DejaVuSans-50" transform="scale(0.015625)"/>
       <path d="M 2631 2963 
Q 2534 3019 2420 3045 
Q 2306 3072 2169 3072 
Q 1681 3072 1420 2755 
Q 1159 2438 1159 1844 
L 1159 0 
L 581 0 
L 581 3500 
L 1159 3500 
L 1159 2956 
Q 1341 3275 1631 3429 
Q 1922 3584 2338 3584 
Q 2397 3584 2469 3576 
Q 2541 3569 2628 3553 
L 2631 2963 
z
" id="DejaVuSans-72" transform="scale(0.015625)"/>
       <path d="M 1959 3097 
Q 1497 3097 1228 2736 
Q 959 2375 959 1747 
Q 959 1119 1226 758 
Q 1494 397 1959 397 
Q 2419 397 2687 759 
Q 2956 1122 2956 1747 
Q 2956 2369 2687 2733 
Q 2419 3097 1959 3097 
z
M 1959 3584 
Q 2709 3584 3137 3096 
Q 3566 2609 3566 1747 
Q 3566 888 3137 398 
Q 2709 -91 1959 -91 
Q 1206 -91 779 398 
Q 353 888 353 1747 
Q 353 2609 779 3096 
Q 1206 3584 1959 3584 
z
" id="DejaVuSans-6f" transform="scale(0.015625)"/>
       <path d="M 1159 525 
L 1159 -1331 
L 581 -1331 
L 581 3500 
L 1159 3500 
L 1159 2969 
Q 1341 3281 1617 3432 
Q 1894 3584 2278 3584 
Q 2916 3584 3314 3078 
Q 3713 2572 3713 1747 
Q 3713 922 3314 415 
Q 2916 -91 2278 -91 
Q 1894 -91 1617 61 
Q 1341 213 1159 525 
z
M 3116 1747 
Q 3116 2381 2855 2742 
Q 2594 3103 2138 3103 
Q 1681 3103 1420 2742 
Q 1159 2381 1159 1747 
Q 1159 1113 1420 752 
Q 1681 391 2138 391 
Q 2594 391 2855 752 
Q 3116 1113 3116 1747 
z
" id="DejaVuSans-70" transform="scale(0.015625)"/>
       <path d="M 2194 1759 
Q 1497 1759 1228 1600 
Q 959 1441 959 1056 
Q 959 750 1161 570 
Q 1363 391 1709 391 
Q 2188 391 2477 730 
Q 2766 1069 2766 1631 
L 2766 1759 
L 2194 1759 
z
M 3341 1997 
L 3341 0 
L 2766 0 
L 2766 531 
Q 2569 213 2275 61 
Q 1981 -91 1556 -91 
Q 1019 -91 701 211 
Q 384 513 384 1019 
Q 384 1609 779 1909 
Q 1175 2209 1959 2209 
L 2766 2209 
L 2766 2266 
Q 2766 2663 2505 2880 
Q 2244 3097 1772 3097 
Q 1472 3097 1187 3025 
Q 903 2953 641 2809 
L 641 3341 
Q 956 3463 1253 3523 
Q 1550 3584 1831 3584 
Q 2591 3584 2966 3190 
Q 3341 2797 3341 1997 
z
" id="DejaVuSans-61" transform="scale(0.015625)"/>
       <path d="M 2906 1791 
Q 2906 2416 2648 2759 
Q 2391 3103 1925 3103 
Q 1463 3103 1205 2759 
Q 947 2416 947 1791 
Q 947 1169 1205 825 
Q 1463 481 1925 481 
Q 2391 481 2648 825 
Q 2906 1169 2906 1791 
z
M 3481 434 
Q 3481 -459 3084 -895 
Q 2688 -1331 1869 -1331 
Q 1566 -1331 1297 -1286 
Q 1028 -1241 775 -1147 
L 775 -588 
Q 1028 -725 1275 -790 
Q 1522 -856 1778 -856 
Q 2344 -856 2625 -561 
Q 2906 -266 2906 331 
L 2906 616 
Q 2728 306 2450 153 
Q 2172 0 1784 0 
Q 1141 0 747 490 
Q 353 981 353 1791 
Q 353 2603 747 3093 
Q 1141 3584 1784 3584 
Q 2172 3584 2450 3431 
Q 2728 3278 2906 2969 
L 2906 3500 
L 3481 3500 
L 3481 434 
z
" id="DejaVuSans-67" transform="scale(0.015625)"/>
       <path d="M 1172 4494 
L 1172 3500 
L 2356 3500 
L 2356 3053 
L 1172 3053 
L 1172 1153 
Q 1172 725 1289 603 
Q 1406 481 1766 481 
L 2356 481 
L 2356 0 
L 1766 0 
Q 1100 0 847 248 
Q 594 497 594 1153 
L 594 3053 
L 172 3053 
L 172 3500 
L 594 3500 
L 594 4494 
L 1172 4494 
z
" id="DejaVuSans-74" transform="scale(0.015625)"/>
       <path d="M 603 3500 
L 1178 3500 
L 1178 0 
L 603 0 
L 603 3500 
z
M 603 4863 
L 1178 4863 
L 1178 4134 
L 603 4134 
L 603 4863 
z
" id="DejaVuSans-69" transform="scale(0.015625)"/>
       <path d="M 3513 2113 
L 3513 0 
L 2938 0 
L 2938 2094 
Q 2938 2591 2744 2837 
Q 2550 3084 2163 3084 
Q 1697 3084 1428 2787 
Q 1159 2491 1159 1978 
L 1159 0 
L 581 0 
L 581 3500 
L 1159 3500 
L 1159 2956 
Q 1366 3272 1645 3428 
Q 1925 3584 2291 3584 
Q 2894 3584 3203 3211 
Q 3513 2838 3513 2113 
z
" id="DejaVuSans-6e" transform="scale(0.015625)"/>
       <path id="DejaVuSans-20" transform="scale(0.015625)"/>
       <path d="M 2906 2969 
L 2906 4863 
L 3481 4863 
L 3481 0 
L 2906 0 
L 2906 525 
Q 2725 213 2448 61 
Q 2172 -91 1784 -91 
Q 1150 -91 751 415 
Q 353 922 353 1747 
Q 353 2572 751 3078 
Q 1150 3584 1784 3584 
Q 2172 3584 2448 3432 
Q 2725 3281 2906 2969 
z
M 947 1747 
Q 947 1113 1208 752 
Q 1469 391 1925 391 
Q 2381 391 2643 752 
Q 2906 1113 2906 1747 
Q 2906 2381 2643 2742 
Q 2381 3103 1925 3103 
Q 1469 3103 1208 2742 
Q 947 2381 947 1747 
z
" id="DejaVuSans-64" transform="scale(0.015625)"/>
       <path d="M 3597 1894 
L 3597 1613 
L 953 1613 
Q 991 1019 1311 708 
Q 1631 397 2203 397 
Q 2534 397 2845 478 
Q 3156 559 3463 722 
L 3463 178 
Q 3153 47 2828 -22 
Q 2503 -91 2169 -91 
Q 1331 -91 842 396 
Q 353 884 353 1716 
Q 353 2575 817 3079 
Q 1281 3584 2069 3584 
Q 2775 3584 3186 3129 
Q 3597 2675 3597 1894 
z
M 3022 2063 
Q 3016 2534 2758 2815 
Q 2500 3097 2075 3097 
Q 1594 3097 1305 2825 
Q 1016 2553 972 2059 
L 3022 2063 
z
" id="DejaVuSans-65" transform="scale(0.015625)"/>
       <path d="M 3122 3366 
L 3122 2828 
Q 2878 2963 2633 3030 
Q 2388 3097 2138 3097 
Q 1578 3097 1268 2742 
Q 959 2388 959 1747 
Q 959 1106 1268 751 
Q 1578 397 2138 397 
Q 2388 397 2633 464 
Q 2878 531 3122 666 
L 3122 134 
Q 2881 22 2623 -34 
Q 2366 -91 2075 -91 
Q 1284 -91 818 406 
Q 353 903 353 1747 
Q 353 2603 823 3093 
Q 1294 3584 2113 3584 
Q 2378 3584 2631 3529 
Q 2884 3475 3122 3366 
z
" id="DejaVuSans-63" transform="scale(0.015625)"/>
      </defs>
      <use xlink:href="#DejaVuSans-50"/>
      <use x="58.552734" xlink:href="#DejaVuSans-72"/>
      <use x="97.416016" xlink:href="#DejaVuSans-6f"/>
      <use x="158.597656" xlink:href="#DejaVuSans-70"/>
      <use x="222.074219" xlink:href="#DejaVuSans-61"/>
      <use x="283.353516" xlink:href="#DejaVuSans-67"/>
      <use x="346.830078" xlink:href="#DejaVuSans-61"/>
      <use x="408.109375" xlink:href="#DejaVuSans-74"/>
      <use x="447.318359" xlink:href="#DejaVuSans-69"/>
      <use x="475.101562" xlink:href="#DejaVuSans-6f"/>
      <use x="536.283203" xlink:href="#DejaVuSans-6e"/>
      <use x="599.662109" xlink:href="#DejaVuSans-20"/>
      <use x="631.449219" xlink:href="#DejaVuSans-64"/>
      <use x="694.925781" xlink:href="#DejaVuSans-69"/>
      <use x="722.708984" xlink:href="#DejaVuSans-72"/>
      <use x="761.572266" xlink:href="#DejaVuSans-65"/>
      <use x="823.095703" xlink:href="#DejaVuSans-63"/>
      <use x="878.076172" xlink:href="#DejaVuSans-74"/>
      <use x="917.285156" xlink:href="#DejaVuSans-69"/>
      <use x="945.068359" xlink:href="#DejaVuSans-6f"/>
      <use x="1006.25" xlink:href="#DejaVuSans-6e"/>
     </g>
    </g>
   </g>
   <g id="matplotlib.axis_2">
    <g id="ytick_1">
     <g id="line2d_7">
      <defs>
       <path d="M 0 0 
L -3.5 0 
" id="m8d7366152d" style="stroke:#000000;stroke-width:0.8;"/>
      </defs>
      <g>
       <use style="stroke:#000000;stroke-width:0.8;" x="50.14375" xlink:href="#m8d7366152d" y="273.312"/>
      </g>
     </g>
     <g id="text_8">
      <!-- 0.00 -->
      <g transform="translate(20.878125 277.111219)scale(0.1 -0.1)">
       <use xlink:href="#DejaVuSans-30"/>
       <use x="63.623047" xlink:href="#DejaVuSans-2e"/>
       <use x="95.410156" xlink:href="#DejaVuSans-30"/>
       <use x="159.033203" xlink:href="#DejaVuSans-30"/>
      </g>
     </g>
    </g>
    <g id="ytick_2">
     <g id="line2d_8">
      <g>
       <use style="stroke:#000000;stroke-width:0.8;" x="50.14375" xlink:href="#m8d7366152d" y="242.846356"/>
      </g>
     </g>
     <g id="text_9">
      <!-- 0.25 -->
      <g transform="translate(20.878125 246.645575)scale(0.1 -0.1)">
       <defs>
        <path d="M 691 4666 
L 3169 4666 
L 3169 4134 
L 1269 4134 
L 1269 2991 
Q 1406 3038 1543 3061 
Q 1681 3084 1819 3084 
Q 2600 3084 3056 2656 
Q 3513 2228 3513 1497 
Q 3513 744 3044 326 
Q 2575 -91 1722 -91 
Q 1428 -91 1123 -41 
Q 819 9 494 109 
L 494 744 
Q 775 591 1075 516 
Q 1375 441 1709 441 
Q 2250 441 2565 725 
Q 2881 1009 2881 1497 
Q 2881 1984 2565 2268 
Q 2250 2553 1709 2553 
Q 1456 2553 1204 2497 
Q 953 2441 691 2322 
L 691 4666 
z
" id="DejaVuSans-35" transform="scale(0.015625)"/>
       </defs>
       <use xlink:href="#DejaVuSans-30"/>
       <use x="63.623047" xlink:href="#DejaVuSans-2e"/>
       <use x="95.410156" xlink:href="#DejaVuSans-32"/>
       <use x="159.033203" xlink:href="#DejaVuSans-35"/>
      </g>
     </g>
    </g>
    <g id="ytick_3">
     <g id="line2d_9">
      <g>
       <use style="stroke:#000000;stroke-width:0.8;" x="50.14375" xlink:href="#m8d7366152d" y="212.380712"/>
      </g>
     </g>
     <g id="text_10">
      <!-- 0.50 -->
      <g transform="translate(20.878125 216.179931)scale(0.1 -0.1)">
       <use xlink:href="#DejaVuSans-30"/>
       <use x="63.623047" xlink:href="#DejaVuSans-2e"/>
       <use x="95.410156" xlink:href="#DejaVuSans-35"/>
       <use x="159.033203" xlink:href="#DejaVuSans-30"/>
      </g>
     </g>
    </g>
    <g id="ytick_4">
     <g id="line2d_10">
      <g>
       <use style="stroke:#000000;stroke-width:0.8;" x="50.14375" xlink:href="#m8d7366152d" y="181.915068"/>
      </g>
     </g>
     <g id="text_11">
      <!-- 0.75 -->
      <g transform="translate(20.878125 185.714287)scale(0.1 -0.1)">
       <defs>
        <path d="M 525 4666 
L 3525 4666 
L 3525 4397 
L 1831 0 
L 1172 0 
L 2766 4134 
L 525 4134 
L 525 4666 
z
" id="DejaVuSans-37" transform="scale(0.015625)"/>
       </defs>
       <use xlink:href="#DejaVuSans-30"/>
       <use x="63.623047" xlink:href="#DejaVuSans-2e"/>
       <use x="95.410156" xlink:href="#DejaVuSans-37"/>
       <use x="159.033203" xlink:href="#DejaVuSans-35"/>
      </g>
     </g>
    </g>
    <g id="ytick_5">
     <g id="line2d_11">
      <g>
       <use style="stroke:#000000;stroke-width:0.8;" x="50.14375" xlink:href="#m8d7366152d" y="151.449424"/>
      </g>
     </g>
     <g id="text_12">
      <!-- 1.00 -->
      <g transform="translate(20.878125 155.248643)scale(0.1 -0.1)">
       <use xlink:href="#DejaVuSans-31"/>
       <use x="63.623047" xlink:href="#DejaVuSans-2e"/>
       <use x="95.410156" xlink:href="#DejaVuSans-30"/>
       <use x="159.033203" xlink:href="#DejaVuSans-30"/>
      </g>
     </g>
    </g>
    <g id="ytick_6">
     <g id="line2d_12">
      <g>
       <use style="stroke:#000000;stroke-width:0.8;" x="50.14375" xlink:href="#m8d7366152d" y="120.98378"/>
      </g>
     </g>
     <g id="text_13">
      <!-- 1.25 -->
      <g transform="translate(20.878125 124.782999)scale(0.1 -0.1)">
       <use xlink:href="#DejaVuSans-31"/>
       <use x="63.623047" xlink:href="#DejaVuSans-2e"/>
       <use x="95.410156" xlink:href="#DejaVuSans-32"/>
       <use x="159.033203" xlink:href="#DejaVuSans-35"/>
      </g>
     </g>
    </g>
    <g id="ytick_7">
     <g id="line2d_13">
      <g>
       <use style="stroke:#000000;stroke-width:0.8;" x="50.14375" xlink:href="#m8d7366152d" y="90.518136"/>
      </g>
     </g>
     <g id="text_14">
      <!-- 1.50 -->
      <g transform="translate(20.878125 94.317355)scale(0.1 -0.1)">
       <use xlink:href="#DejaVuSans-31"/>
       <use x="63.623047" xlink:href="#DejaVuSans-2e"/>
       <use x="95.410156" xlink:href="#DejaVuSans-35"/>
       <use x="159.033203" xlink:href="#DejaVuSans-30"/>
      </g>
     </g>
    </g>
    <g id="ytick_8">
     <g id="line2d_14">
      <g>
       <use style="stroke:#000000;stroke-width:0.8;" x="50.14375" xlink:href="#m8d7366152d" y="60.052492"/>
      </g>
     </g>
     <g id="text_15">
      <!-- 1.75 -->
      <g transform="translate(20.878125 63.851711)scale(0.1 -0.1)">
       <use xlink:href="#DejaVuSans-31"/>
       <use x="63.623047" xlink:href="#DejaVuSans-2e"/>
       <use x="95.410156" xlink:href="#DejaVuSans-37"/>
       <use x="159.033203" xlink:href="#DejaVuSans-35"/>
      </g>
     </g>
    </g>
    <g id="ytick_9">
     <g id="line2d_15">
      <g>
       <use style="stroke:#000000;stroke-width:0.8;" x="50.14375" xlink:href="#m8d7366152d" y="29.586848"/>
      </g>
     </g>
     <g id="text_16">
      <!-- 2.00 -->
      <g transform="translate(20.878125 33.386067)scale(0.1 -0.1)">
       <use xlink:href="#DejaVuSans-32"/>
       <use x="63.623047" xlink:href="#DejaVuSans-2e"/>
       <use x="95.410156" xlink:href="#DejaVuSans-30"/>
       <use x="159.033203" xlink:href="#DejaVuSans-30"/>
      </g>
     </g>
    </g>
    <g id="text_17">
     <!-- Probability density -->
     <g transform="translate(14.798438 186.606781)rotate(-90)scale(0.1 -0.1)">
      <defs>
       <path d="M 3116 1747 
Q 3116 2381 2855 2742 
Q 2594 3103 2138 3103 
Q 1681 3103 1420 2742 
Q 1159 2381 1159 1747 
Q 1159 1113 1420 752 
Q 1681 391 2138 391 
Q 2594 391 2855 752 
Q 3116 1113 3116 1747 
z
M 1159 2969 
Q 1341 3281 1617 3432 
Q 1894 3584 2278 3584 
Q 2916 3584 3314 3078 
Q 3713 2572 3713 1747 
Q 3713 922 3314 415 
Q 2916 -91 2278 -91 
Q 1894 -91 1617 61 
Q 1341 213 1159 525 
L 1159 0 
L 581 0 
L 581 4863 
L 1159 4863 
L 1159 2969 
z
" id="DejaVuSans-62" transform="scale(0.015625)"/>
       <path d="M 603 4863 
L 1178 4863 
L 1178 0 
L 603 0 
L 603 4863 
z
" id="DejaVuSans-6c" transform="scale(0.015625)"/>
       <path d="M 2059 -325 
Q 1816 -950 1584 -1140 
Q 1353 -1331 966 -1331 
L 506 -1331 
L 506 -850 
L 844 -850 
Q 1081 -850 1212 -737 
Q 1344 -625 1503 -206 
L 1606 56 
L 191 3500 
L 800 3500 
L 1894 763 
L 2988 3500 
L 3597 3500 
L 2059 -325 
z
" id="DejaVuSans-79" transform="scale(0.015625)"/>
       <path d="M 2834 3397 
L 2834 2853 
Q 2591 2978 2328 3040 
Q 2066 3103 1784 3103 
Q 1356 3103 1142 2972 
Q 928 2841 928 2578 
Q 928 2378 1081 2264 
Q 1234 2150 1697 2047 
L 1894 2003 
Q 2506 1872 2764 1633 
Q 3022 1394 3022 966 
Q 3022 478 2636 193 
Q 2250 -91 1575 -91 
Q 1294 -91 989 -36 
Q 684 19 347 128 
L 347 722 
Q 666 556 975 473 
Q 1284 391 1588 391 
Q 1994 391 2212 530 
Q 2431 669 2431 922 
Q 2431 1156 2273 1281 
Q 2116 1406 1581 1522 
L 1381 1569 
Q 847 1681 609 1914 
Q 372 2147 372 2553 
Q 372 3047 722 3315 
Q 1072 3584 1716 3584 
Q 2034 3584 2315 3537 
Q 2597 3491 2834 3397 
z
" id="DejaVuSans-73" transform="scale(0.015625)"/>
      </defs>
      <use xlink:href="#DejaVuSans-50"/>
      <use x="58.552734" xlink:href="#DejaVuSans-72"/>
      <use x="97.416016" xlink:href="#DejaVuSans-6f"/>
      <use x="158.597656" xlink:href="#DejaVuSans-62"/>
      <use x="222.074219" xlink:href="#DejaVuSans-61"/>
      <use x="283.353516" xlink:href="#DejaVuSans-62"/>
      <use x="346.830078" xlink:href="#DejaVuSans-69"/>
      <use x="374.613281" xlink:href="#DejaVuSans-6c"/>
      <use x="402.396484" xlink:href="#DejaVuSans-69"/>
      <use x="430.179688" xlink:href="#DejaVuSans-74"/>
      <use x="469.388672" xlink:href="#DejaVuSans-79"/>
      <use x="528.568359" xlink:href="#DejaVuSans-20"/>
      <use x="560.355469" xlink:href="#DejaVuSans-64"/>
      <use x="623.832031" xlink:href="#DejaVuSans-65"/>
      <use x="685.355469" xlink:href="#DejaVuSans-6e"/>
      <use x="748.734375" xlink:href="#DejaVuSans-73"/>
      <use x="800.833984" xlink:href="#DejaVuSans-69"/>
      <use x="828.617188" xlink:href="#DejaVuSans-74"/>
      <use x="867.826172" xlink:href="#DejaVuSans-79"/>
     </g>
    </g>
   </g>
   <g id="line2d_16">
    <path clip-path="url(#p81276cf667)" d="M 66.376477 273.312 
L 391.031023 29.586848 
L 391.031023 29.586848 
" style="fill:none;stroke:#ff7f0e;stroke-linecap:square;stroke-width:1.5;"/>
   </g>
   <g id="patch_203">
    <path d="M 50.14375 273.312 
L 50.14375 7.2 
" style="fill:none;stroke:#000000;stroke-linecap:square;stroke-linejoin:miter;stroke-width:0.8;"/>
   </g>
   <g id="patch_204">
    <path d="M 407.26375 273.312 
L 407.26375 7.2 
" style="fill:none;stroke:#000000;stroke-linecap:square;stroke-linejoin:miter;stroke-width:0.8;"/>
   </g>
   <g id="patch_205">
    <path d="M 50.14375 273.312 
L 407.26375 273.312 
" style="fill:none;stroke:#000000;stroke-linecap:square;stroke-linejoin:miter;stroke-width:0.8;"/>
   </g>
   <g id="patch_206">
    <path d="M 50.14375 7.2 
L 407.26375 7.2 
" style="fill:none;stroke:#000000;stroke-linecap:square;stroke-linejoin:miter;stroke-width:0.8;"/>
   </g>
  </g>
 </g>
 <defs>
  <clipPath id="p81276cf667">
   <rect height="266.112" width="357.12" x="50.14375" y="7.2"/>
  </clipPath>
 </defs>
</svg>
