<?xml version="1.0" encoding="utf-8" standalone="no"?>
<!DOCTYPE svg PUBLIC "-//W3C//DTD SVG 1.1//EN"
  "http://www.w3.org/Graphics/SVG/1.1/DTD/svg11.dtd">
<svg height="310.86825pt" version="1.1" viewBox="0 0 414.46375 310.86825" width="414.46375pt" xmlns="http://www.w3.org/2000/svg" xmlns:xlink="http://www.w3.org/1999/xlink">
 <metadata>
  <rdf:RDF xmlns:cc="http://creativecommons.org/ns#" xmlns:dc="http://purl.org/dc/elements/1.1/" xmlns:rdf="http://www.w3.org/1999/02/22-rdf-syntax-ns#">
   <cc:Work>
    <dc:type rdf:resource="http://purl.org/dc/dcmitype/StillImage"/>
    <dc:date>2021-07-08T08:17:29.942459</dc:date>
    <dc:format>image/svg+xml</dc:format>
    <dc:creator>
     <cc:Agent>
      <dc:title>Matplotlib v3.4.2, https://matplotlib.org/</dc:title>
     </cc:Agent>
    </dc:creator>
   </cc:Work>
  </rdf:RDF>
 </metadata>
 <defs>
  <style type="text/css">*{stroke-linecap:butt;stroke-linejoin:round;}</style>
 </defs>
 <g id="figure_1">
  <g id="patch_1">
   <path d="M 0 310.86825 
L 414.46375 310.86825 
L 414.46375 0 
L 0 0 
z
" style="fill:#ffffff;"/>
  </g>
  <g id="axes_1">
   <g id="patch_2">
    <path d="M 50.14375 273.312 
L 407.26375 273.312 
L 407.26375 7.2 
L 50.14375 7.2 
z
" style="fill:#ffffff;"/>
   </g>
   <g id="patch_3">
    <path clip-path="url(#p0e1b5350c5)" d="M 66.975174 273.312 
L 68.595453 273.312 
L 68.595453 271.466563 
L 66.975174 271.466563 
z
" style="fill:#1f77b4;"/>
   </g>
   <g id="patch_4">
    <path clip-path="url(#p0e1b5350c5)" d="M 68.595453 273.312 
L 70.215732 273.312 
L 70.215732 270.851417 
L 68.595453 270.851417 
z
" style="fill:#1f77b4;"/>
   </g>
   <g id="patch_5">
    <path clip-path="url(#p0e1b5350c5)" d="M 70.215732 273.312 
L 71.836011 273.312 
L 71.836011 270.236272 
L 70.215732 270.236272 
z
" style="fill:#1f77b4;"/>
   </g>
   <g id="patch_6">
    <path clip-path="url(#p0e1b5350c5)" d="M 71.836011 273.312 
L 73.45629 273.312 
L 73.45629 268.390835 
L 71.836011 268.390835 
z
" style="fill:#1f77b4;"/>
   </g>
   <g id="patch_7">
    <path clip-path="url(#p0e1b5350c5)" d="M 73.45629 273.312 
L 75.07657 273.312 
L 75.07657 266.545398 
L 73.45629 266.545398 
z
" style="fill:#1f77b4;"/>
   </g>
   <g id="patch_8">
    <path clip-path="url(#p0e1b5350c5)" d="M 75.07657 273.312 
L 76.696849 273.312 
L 76.696849 266.545398 
L 75.07657 266.545398 
z
" style="fill:#1f77b4;"/>
   </g>
   <g id="patch_9">
    <path clip-path="url(#p0e1b5350c5)" d="M 76.696849 273.312 
L 78.317128 273.312 
L 78.317128 263.46967 
L 76.696849 263.46967 
z
" style="fill:#1f77b4;"/>
   </g>
   <g id="patch_10">
    <path clip-path="url(#p0e1b5350c5)" d="M 78.317128 273.312 
L 79.937407 273.312 
L 79.937407 262.854524 
L 78.317128 262.854524 
z
" style="fill:#1f77b4;"/>
   </g>
   <g id="patch_11">
    <path clip-path="url(#p0e1b5350c5)" d="M 79.937407 273.312 
L 81.557686 273.312 
L 81.557686 259.778796 
L 79.937407 259.778796 
z
" style="fill:#1f77b4;"/>
   </g>
   <g id="patch_12">
    <path clip-path="url(#p0e1b5350c5)" d="M 81.557686 273.312 
L 83.177966 273.312 
L 83.177966 261.009087 
L 81.557686 261.009087 
z
" style="fill:#1f77b4;"/>
   </g>
   <g id="patch_13">
    <path clip-path="url(#p0e1b5350c5)" d="M 83.177966 273.312 
L 84.798245 273.312 
L 84.798245 261.624233 
L 83.177966 261.624233 
z
" style="fill:#1f77b4;"/>
   </g>
   <g id="patch_14">
    <path clip-path="url(#p0e1b5350c5)" d="M 84.798245 273.312 
L 86.418524 273.312 
L 86.418524 262.239379 
L 84.798245 262.239379 
z
" style="fill:#1f77b4;"/>
   </g>
   <g id="patch_15">
    <path clip-path="url(#p0e1b5350c5)" d="M 86.418524 273.312 
L 88.038803 273.312 
L 88.038803 259.778796 
L 86.418524 259.778796 
z
" style="fill:#1f77b4;"/>
   </g>
   <g id="patch_16">
    <path clip-path="url(#p0e1b5350c5)" d="M 88.038803 273.312 
L 89.659082 273.312 
L 89.659082 257.318214 
L 88.038803 257.318214 
z
" style="fill:#1f77b4;"/>
   </g>
   <g id="patch_17">
    <path clip-path="url(#p0e1b5350c5)" d="M 89.659082 273.312 
L 91.279362 273.312 
L 91.279362 256.703068 
L 89.659082 256.703068 
z
" style="fill:#1f77b4;"/>
   </g>
   <g id="patch_18">
    <path clip-path="url(#p0e1b5350c5)" d="M 91.279362 273.312 
L 92.899641 273.312 
L 92.899641 251.166757 
L 91.279362 251.166757 
z
" style="fill:#1f77b4;"/>
   </g>
   <g id="patch_19">
    <path clip-path="url(#p0e1b5350c5)" d="M 92.899641 273.312 
L 94.51992 273.312 
L 94.51992 250.551612 
L 92.899641 250.551612 
z
" style="fill:#1f77b4;"/>
   </g>
   <g id="patch_20">
    <path clip-path="url(#p0e1b5350c5)" d="M 94.51992 273.312 
L 96.140199 273.312 
L 96.140199 248.091029 
L 94.51992 248.091029 
z
" style="fill:#1f77b4;"/>
   </g>
   <g id="patch_21">
    <path clip-path="url(#p0e1b5350c5)" d="M 96.140199 273.312 
L 97.760478 273.312 
L 97.760478 257.318214 
L 96.140199 257.318214 
z
" style="fill:#1f77b4;"/>
   </g>
   <g id="patch_22">
    <path clip-path="url(#p0e1b5350c5)" d="M 97.760478 273.312 
L 99.380758 273.312 
L 99.380758 254.857631 
L 97.760478 254.857631 
z
" style="fill:#1f77b4;"/>
   </g>
   <g id="patch_23">
    <path clip-path="url(#p0e1b5350c5)" d="M 99.380758 273.312 
L 101.001037 273.312 
L 101.001037 244.400155 
L 99.380758 244.400155 
z
" style="fill:#1f77b4;"/>
   </g>
   <g id="patch_24">
    <path clip-path="url(#p0e1b5350c5)" d="M 101.001037 273.312 
L 102.621316 273.312 
L 102.621316 246.245592 
L 101.001037 246.245592 
z
" style="fill:#1f77b4;"/>
   </g>
   <g id="patch_25">
    <path clip-path="url(#p0e1b5350c5)" d="M 102.621316 273.312 
L 104.241595 273.312 
L 104.241595 249.32132 
L 102.621316 249.32132 
z
" style="fill:#1f77b4;"/>
   </g>
   <g id="patch_26">
    <path clip-path="url(#p0e1b5350c5)" d="M 104.241595 273.312 
L 105.861874 273.312 
L 105.861874 243.78501 
L 104.241595 243.78501 
z
" style="fill:#1f77b4;"/>
   </g>
   <g id="patch_27">
    <path clip-path="url(#p0e1b5350c5)" d="M 105.861874 273.312 
L 107.482154 273.312 
L 107.482154 240.709282 
L 105.861874 240.709282 
z
" style="fill:#1f77b4;"/>
   </g>
   <g id="patch_28">
    <path clip-path="url(#p0e1b5350c5)" d="M 107.482154 273.312 
L 109.102433 273.312 
L 109.102433 237.633553 
L 107.482154 237.633553 
z
" style="fill:#1f77b4;"/>
   </g>
   <g id="patch_29">
    <path clip-path="url(#p0e1b5350c5)" d="M 109.102433 273.312 
L 110.722712 273.312 
L 110.722712 243.169864 
L 109.102433 243.169864 
z
" style="fill:#1f77b4;"/>
   </g>
   <g id="patch_30">
    <path clip-path="url(#p0e1b5350c5)" d="M 110.722712 273.312 
L 112.342991 273.312 
L 112.342991 225.330641 
L 110.722712 225.330641 
z
" style="fill:#1f77b4;"/>
   </g>
   <g id="patch_31">
    <path clip-path="url(#p0e1b5350c5)" d="M 112.342991 273.312 
L 113.96327 273.312 
L 113.96327 243.78501 
L 112.342991 243.78501 
z
" style="fill:#1f77b4;"/>
   </g>
   <g id="patch_32">
    <path clip-path="url(#p0e1b5350c5)" d="M 113.96327 273.312 
L 115.58355 273.312 
L 115.58355 235.788117 
L 113.96327 235.788117 
z
" style="fill:#1f77b4;"/>
   </g>
   <g id="patch_33">
    <path clip-path="url(#p0e1b5350c5)" d="M 115.58355 273.312 
L 117.203829 273.312 
L 117.203829 241.324427 
L 115.58355 241.324427 
z
" style="fill:#1f77b4;"/>
   </g>
   <g id="patch_34">
    <path clip-path="url(#p0e1b5350c5)" d="M 117.203829 273.312 
L 118.824108 273.312 
L 118.824108 233.327534 
L 117.203829 233.327534 
z
" style="fill:#1f77b4;"/>
   </g>
   <g id="patch_35">
    <path clip-path="url(#p0e1b5350c5)" d="M 118.824108 273.312 
L 120.444387 273.312 
L 120.444387 223.485204 
L 118.824108 223.485204 
z
" style="fill:#1f77b4;"/>
   </g>
   <g id="patch_36">
    <path clip-path="url(#p0e1b5350c5)" d="M 120.444387 273.312 
L 122.064666 273.312 
L 122.064666 232.097243 
L 120.444387 232.097243 
z
" style="fill:#1f77b4;"/>
   </g>
   <g id="patch_37">
    <path clip-path="url(#p0e1b5350c5)" d="M 122.064666 273.312 
L 123.684946 273.312 
L 123.684946 236.403262 
L 122.064666 236.403262 
z
" style="fill:#1f77b4;"/>
   </g>
   <g id="patch_38">
    <path clip-path="url(#p0e1b5350c5)" d="M 123.684946 273.312 
L 125.305225 273.312 
L 125.305225 236.403262 
L 123.684946 236.403262 
z
" style="fill:#1f77b4;"/>
   </g>
   <g id="patch_39">
    <path clip-path="url(#p0e1b5350c5)" d="M 125.305225 273.312 
L 126.925504 273.312 
L 126.925504 219.79433 
L 125.305225 219.79433 
z
" style="fill:#1f77b4;"/>
   </g>
   <g id="patch_40">
    <path clip-path="url(#p0e1b5350c5)" d="M 126.925504 273.312 
L 128.545783 273.312 
L 128.545783 217.333748 
L 126.925504 217.333748 
z
" style="fill:#1f77b4;"/>
   </g>
   <g id="patch_41">
    <path clip-path="url(#p0e1b5350c5)" d="M 128.545783 273.312 
L 130.166062 273.312 
L 130.166062 225.330641 
L 128.545783 225.330641 
z
" style="fill:#1f77b4;"/>
   </g>
   <g id="patch_42">
    <path clip-path="url(#p0e1b5350c5)" d="M 130.166062 273.312 
L 131.786342 273.312 
L 131.786342 225.330641 
L 130.166062 225.330641 
z
" style="fill:#1f77b4;"/>
   </g>
   <g id="patch_43">
    <path clip-path="url(#p0e1b5350c5)" d="M 131.786342 273.312 
L 133.406621 273.312 
L 133.406621 219.179184 
L 131.786342 219.179184 
z
" style="fill:#1f77b4;"/>
   </g>
   <g id="patch_44">
    <path clip-path="url(#p0e1b5350c5)" d="M 133.406621 273.312 
L 135.0269 273.312 
L 135.0269 212.412583 
L 133.406621 212.412583 
z
" style="fill:#1f77b4;"/>
   </g>
   <g id="patch_45">
    <path clip-path="url(#p0e1b5350c5)" d="M 135.0269 273.312 
L 136.647179 273.312 
L 136.647179 214.258019 
L 135.0269 214.258019 
z
" style="fill:#1f77b4;"/>
   </g>
   <g id="patch_46">
    <path clip-path="url(#p0e1b5350c5)" d="M 136.647179 273.312 
L 138.267458 273.312 
L 138.267458 221.639767 
L 136.647179 221.639767 
z
" style="fill:#1f77b4;"/>
   </g>
   <g id="patch_47">
    <path clip-path="url(#p0e1b5350c5)" d="M 138.267458 273.312 
L 139.887738 273.312 
L 139.887738 206.876272 
L 138.267458 206.876272 
z
" style="fill:#1f77b4;"/>
   </g>
   <g id="patch_48">
    <path clip-path="url(#p0e1b5350c5)" d="M 139.887738 273.312 
L 141.508017 273.312 
L 141.508017 211.182291 
L 139.887738 211.182291 
z
" style="fill:#1f77b4;"/>
   </g>
   <g id="patch_49">
    <path clip-path="url(#p0e1b5350c5)" d="M 141.508017 273.312 
L 143.128296 273.312 
L 143.128296 212.412583 
L 141.508017 212.412583 
z
" style="fill:#1f77b4;"/>
   </g>
   <g id="patch_50">
    <path clip-path="url(#p0e1b5350c5)" d="M 143.128296 273.312 
L 144.748575 273.312 
L 144.748575 214.873165 
L 143.128296 214.873165 
z
" style="fill:#1f77b4;"/>
   </g>
   <g id="patch_51">
    <path clip-path="url(#p0e1b5350c5)" d="M 144.748575 273.312 
L 146.368854 273.312 
L 146.368854 209.952 
L 144.748575 209.952 
z
" style="fill:#1f77b4;"/>
   </g>
   <g id="patch_52">
    <path clip-path="url(#p0e1b5350c5)" d="M 146.368854 273.312 
L 147.989134 273.312 
L 147.989134 205.645981 
L 146.368854 205.645981 
z
" style="fill:#1f77b4;"/>
   </g>
   <g id="patch_53">
    <path clip-path="url(#p0e1b5350c5)" d="M 147.989134 273.312 
L 149.609413 273.312 
L 149.609413 215.488311 
L 147.989134 215.488311 
z
" style="fill:#1f77b4;"/>
   </g>
   <g id="patch_54">
    <path clip-path="url(#p0e1b5350c5)" d="M 149.609413 273.312 
L 151.229692 273.312 
L 151.229692 209.952 
L 149.609413 209.952 
z
" style="fill:#1f77b4;"/>
   </g>
   <g id="patch_55">
    <path clip-path="url(#p0e1b5350c5)" d="M 151.229692 273.312 
L 152.849971 273.312 
L 152.849971 211.797437 
L 151.229692 211.797437 
z
" style="fill:#1f77b4;"/>
   </g>
   <g id="patch_56">
    <path clip-path="url(#p0e1b5350c5)" d="M 152.849971 273.312 
L 154.47025 273.312 
L 154.47025 208.106563 
L 152.849971 208.106563 
z
" style="fill:#1f77b4;"/>
   </g>
   <g id="patch_57">
    <path clip-path="url(#p0e1b5350c5)" d="M 154.47025 273.312 
L 156.09053 273.312 
L 156.09053 198.264233 
L 154.47025 198.264233 
z
" style="fill:#1f77b4;"/>
   </g>
   <g id="patch_58">
    <path clip-path="url(#p0e1b5350c5)" d="M 156.09053 273.312 
L 157.710809 273.312 
L 157.710809 203.185398 
L 156.09053 203.185398 
z
" style="fill:#1f77b4;"/>
   </g>
   <g id="patch_59">
    <path clip-path="url(#p0e1b5350c5)" d="M 157.710809 273.312 
L 159.331088 273.312 
L 159.331088 191.497631 
L 157.710809 191.497631 
z
" style="fill:#1f77b4;"/>
   </g>
   <g id="patch_60">
    <path clip-path="url(#p0e1b5350c5)" d="M 159.331088 273.312 
L 160.951367 273.312 
L 160.951367 195.80365 
L 159.331088 195.80365 
z
" style="fill:#1f77b4;"/>
   </g>
   <g id="patch_61">
    <path clip-path="url(#p0e1b5350c5)" d="M 160.951367 273.312 
L 162.571646 273.312 
L 162.571646 197.033942 
L 160.951367 197.033942 
z
" style="fill:#1f77b4;"/>
   </g>
   <g id="patch_62">
    <path clip-path="url(#p0e1b5350c5)" d="M 162.571646 273.312 
L 164.191926 273.312 
L 164.191926 200.10967 
L 162.571646 200.10967 
z
" style="fill:#1f77b4;"/>
   </g>
   <g id="patch_63">
    <path clip-path="url(#p0e1b5350c5)" d="M 164.191926 273.312 
L 165.812205 273.312 
L 165.812205 213.027728 
L 164.191926 213.027728 
z
" style="fill:#1f77b4;"/>
   </g>
   <g id="patch_64">
    <path clip-path="url(#p0e1b5350c5)" d="M 165.812205 273.312 
L 167.432484 273.312 
L 167.432484 188.421903 
L 165.812205 188.421903 
z
" style="fill:#1f77b4;"/>
   </g>
   <g id="patch_65">
    <path clip-path="url(#p0e1b5350c5)" d="M 167.432484 273.312 
L 169.052763 273.312 
L 169.052763 201.339961 
L 167.432484 201.339961 
z
" style="fill:#1f77b4;"/>
   </g>
   <g id="patch_66">
    <path clip-path="url(#p0e1b5350c5)" d="M 169.052763 273.312 
L 170.673042 273.312 
L 170.673042 197.033942 
L 169.052763 197.033942 
z
" style="fill:#1f77b4;"/>
   </g>
   <g id="patch_67">
    <path clip-path="url(#p0e1b5350c5)" d="M 170.673042 273.312 
L 172.293322 273.312 
L 172.293322 200.10967 
L 170.673042 200.10967 
z
" style="fill:#1f77b4;"/>
   </g>
   <g id="patch_68">
    <path clip-path="url(#p0e1b5350c5)" d="M 172.293322 273.312 
L 173.913601 273.312 
L 173.913601 190.882485 
L 172.293322 190.882485 
z
" style="fill:#1f77b4;"/>
   </g>
   <g id="patch_69">
    <path clip-path="url(#p0e1b5350c5)" d="M 173.913601 273.312 
L 175.53388 273.312 
L 175.53388 201.955107 
L 173.913601 201.955107 
z
" style="fill:#1f77b4;"/>
   </g>
   <g id="patch_70">
    <path clip-path="url(#p0e1b5350c5)" d="M 175.53388 273.312 
L 177.154159 273.312 
L 177.154159 187.806757 
L 175.53388 187.806757 
z
" style="fill:#1f77b4;"/>
   </g>
   <g id="patch_71">
    <path clip-path="url(#p0e1b5350c5)" d="M 177.154159 273.312 
L 178.774438 273.312 
L 178.774438 197.649087 
L 177.154159 197.649087 
z
" style="fill:#1f77b4;"/>
   </g>
   <g id="patch_72">
    <path clip-path="url(#p0e1b5350c5)" d="M 178.774438 273.312 
L 180.394718 273.312 
L 180.394718 184.731029 
L 178.774438 184.731029 
z
" style="fill:#1f77b4;"/>
   </g>
   <g id="patch_73">
    <path clip-path="url(#p0e1b5350c5)" d="M 180.394718 273.312 
L 182.014997 273.312 
L 182.014997 194.573359 
L 180.394718 194.573359 
z
" style="fill:#1f77b4;"/>
   </g>
   <g id="patch_74">
    <path clip-path="url(#p0e1b5350c5)" d="M 182.014997 273.312 
L 183.635276 273.312 
L 183.635276 191.497631 
L 182.014997 191.497631 
z
" style="fill:#1f77b4;"/>
   </g>
   <g id="patch_75">
    <path clip-path="url(#p0e1b5350c5)" d="M 183.635276 273.312 
L 185.255555 273.312 
L 185.255555 174.273553 
L 183.635276 174.273553 
z
" style="fill:#1f77b4;"/>
   </g>
   <g id="patch_76">
    <path clip-path="url(#p0e1b5350c5)" d="M 185.255555 273.312 
L 186.875834 273.312 
L 186.875834 193.958214 
L 185.255555 193.958214 
z
" style="fill:#1f77b4;"/>
   </g>
   <g id="patch_77">
    <path clip-path="url(#p0e1b5350c5)" d="M 186.875834 273.312 
L 188.496114 273.312 
L 188.496114 189.037049 
L 186.875834 189.037049 
z
" style="fill:#1f77b4;"/>
   </g>
   <g id="patch_78">
    <path clip-path="url(#p0e1b5350c5)" d="M 188.496114 273.312 
L 190.116393 273.312 
L 190.116393 186.576466 
L 188.496114 186.576466 
z
" style="fill:#1f77b4;"/>
   </g>
   <g id="patch_79">
    <path clip-path="url(#p0e1b5350c5)" d="M 190.116393 273.312 
L 191.736672 273.312 
L 191.736672 173.658408 
L 190.116393 173.658408 
z
" style="fill:#1f77b4;"/>
   </g>
   <g id="patch_80">
    <path clip-path="url(#p0e1b5350c5)" d="M 191.736672 273.312 
L 193.356951 273.312 
L 193.356951 182.270447 
L 191.736672 182.270447 
z
" style="fill:#1f77b4;"/>
   </g>
   <g id="patch_81">
    <path clip-path="url(#p0e1b5350c5)" d="M 193.356951 273.312 
L 194.97723 273.312 
L 194.97723 180.42501 
L 193.356951 180.42501 
z
" style="fill:#1f77b4;"/>
   </g>
   <g id="patch_82">
    <path clip-path="url(#p0e1b5350c5)" d="M 194.97723 273.312 
L 196.59751 273.312 
L 196.59751 183.500738 
L 194.97723 183.500738 
z
" style="fill:#1f77b4;"/>
   </g>
   <g id="patch_83">
    <path clip-path="url(#p0e1b5350c5)" d="M 196.59751 273.312 
L 198.217789 273.312 
L 198.217789 169.352388 
L 196.59751 169.352388 
z
" style="fill:#1f77b4;"/>
   </g>
   <g id="patch_84">
    <path clip-path="url(#p0e1b5350c5)" d="M 198.217789 273.312 
L 199.838068 273.312 
L 199.838068 170.58268 
L 198.217789 170.58268 
z
" style="fill:#1f77b4;"/>
   </g>
   <g id="patch_85">
    <path clip-path="url(#p0e1b5350c5)" d="M 199.838068 273.312 
L 201.458347 273.312 
L 201.458347 176.11899 
L 199.838068 176.11899 
z
" style="fill:#1f77b4;"/>
   </g>
   <g id="patch_86">
    <path clip-path="url(#p0e1b5350c5)" d="M 201.458347 273.312 
L 203.078626 273.312 
L 203.078626 169.352388 
L 201.458347 169.352388 
z
" style="fill:#1f77b4;"/>
   </g>
   <g id="patch_87">
    <path clip-path="url(#p0e1b5350c5)" d="M 203.078626 273.312 
L 204.698906 273.312 
L 204.698906 181.040155 
L 203.078626 181.040155 
z
" style="fill:#1f77b4;"/>
   </g>
   <g id="patch_88">
    <path clip-path="url(#p0e1b5350c5)" d="M 204.698906 273.312 
L 206.319185 273.312 
L 206.319185 181.040155 
L 204.698906 181.040155 
z
" style="fill:#1f77b4;"/>
   </g>
   <g id="patch_89">
    <path clip-path="url(#p0e1b5350c5)" d="M 206.319185 273.312 
L 207.939464 273.312 
L 207.939464 171.197825 
L 206.319185 171.197825 
z
" style="fill:#1f77b4;"/>
   </g>
   <g id="patch_90">
    <path clip-path="url(#p0e1b5350c5)" d="M 207.939464 273.312 
L 209.559743 273.312 
L 209.559743 169.352388 
L 207.939464 169.352388 
z
" style="fill:#1f77b4;"/>
   </g>
   <g id="patch_91">
    <path clip-path="url(#p0e1b5350c5)" d="M 209.559743 273.312 
L 211.180022 273.312 
L 211.180022 163.816078 
L 209.559743 163.816078 
z
" style="fill:#1f77b4;"/>
   </g>
   <g id="patch_92">
    <path clip-path="url(#p0e1b5350c5)" d="M 211.180022 273.312 
L 212.800302 273.312 
L 212.800302 168.122097 
L 211.180022 168.122097 
z
" style="fill:#1f77b4;"/>
   </g>
   <g id="patch_93">
    <path clip-path="url(#p0e1b5350c5)" d="M 212.800302 273.312 
L 214.420581 273.312 
L 214.420581 163.816078 
L 212.800302 163.816078 
z
" style="fill:#1f77b4;"/>
   </g>
   <g id="patch_94">
    <path clip-path="url(#p0e1b5350c5)" d="M 214.420581 273.312 
L 216.04086 273.312 
L 216.04086 165.046369 
L 214.420581 165.046369 
z
" style="fill:#1f77b4;"/>
   </g>
   <g id="patch_95">
    <path clip-path="url(#p0e1b5350c5)" d="M 216.04086 273.312 
L 217.661139 273.312 
L 217.661139 151.513165 
L 216.04086 151.513165 
z
" style="fill:#1f77b4;"/>
   </g>
   <g id="patch_96">
    <path clip-path="url(#p0e1b5350c5)" d="M 217.661139 273.312 
L 219.281418 273.312 
L 219.281418 156.43433 
L 217.661139 156.43433 
z
" style="fill:#1f77b4;"/>
   </g>
   <g id="patch_97">
    <path clip-path="url(#p0e1b5350c5)" d="M 219.281418 273.312 
L 220.901698 273.312 
L 220.901698 152.743456 
L 219.281418 152.743456 
z
" style="fill:#1f77b4;"/>
   </g>
   <g id="patch_98">
    <path clip-path="url(#p0e1b5350c5)" d="M 220.901698 273.312 
L 222.521977 273.312 
L 222.521977 156.43433 
L 220.901698 156.43433 
z
" style="fill:#1f77b4;"/>
   </g>
   <g id="patch_99">
    <path clip-path="url(#p0e1b5350c5)" d="M 222.521977 273.312 
L 224.142256 273.312 
L 224.142256 142.901126 
L 222.521977 142.901126 
z
" style="fill:#1f77b4;"/>
   </g>
   <g id="patch_100">
    <path clip-path="url(#p0e1b5350c5)" d="M 224.142256 273.312 
L 225.762535 273.312 
L 225.762535 164.431223 
L 224.142256 164.431223 
z
" style="fill:#1f77b4;"/>
   </g>
   <g id="patch_101">
    <path clip-path="url(#p0e1b5350c5)" d="M 225.762535 273.312 
L 227.382814 273.312 
L 227.382814 142.901126 
L 225.762535 142.901126 
z
" style="fill:#1f77b4;"/>
   </g>
   <g id="patch_102">
    <path clip-path="url(#p0e1b5350c5)" d="M 227.382814 273.312 
L 229.003094 273.312 
L 229.003094 134.904233 
L 227.382814 134.904233 
z
" style="fill:#1f77b4;"/>
   </g>
   <g id="patch_103">
    <path clip-path="url(#p0e1b5350c5)" d="M 229.003094 273.312 
L 230.623373 273.312 
L 230.623373 144.131417 
L 229.003094 144.131417 
z
" style="fill:#1f77b4;"/>
   </g>
   <g id="patch_104">
    <path clip-path="url(#p0e1b5350c5)" d="M 230.623373 273.312 
L 232.243652 273.312 
L 232.243652 164.431223 
L 230.623373 164.431223 
z
" style="fill:#1f77b4;"/>
   </g>
   <g id="patch_105">
    <path clip-path="url(#p0e1b5350c5)" d="M 232.243652 273.312 
L 233.863931 273.312 
L 233.863931 141.055689 
L 232.243652 141.055689 
z
" style="fill:#1f77b4;"/>
   </g>
   <g id="patch_106">
    <path clip-path="url(#p0e1b5350c5)" d="M 233.863931 273.312 
L 235.48421 273.312 
L 235.48421 153.973748 
L 233.863931 153.973748 
z
" style="fill:#1f77b4;"/>
   </g>
   <g id="patch_107">
    <path clip-path="url(#p0e1b5350c5)" d="M 235.48421 273.312 
L 237.10449 273.312 
L 237.10449 140.440544 
L 235.48421 140.440544 
z
" style="fill:#1f77b4;"/>
   </g>
   <g id="patch_108">
    <path clip-path="url(#p0e1b5350c5)" d="M 237.10449 273.312 
L 238.724769 273.312 
L 238.724769 145.976854 
L 237.10449 145.976854 
z
" style="fill:#1f77b4;"/>
   </g>
   <g id="patch_109">
    <path clip-path="url(#p0e1b5350c5)" d="M 238.724769 273.312 
L 240.345048 273.312 
L 240.345048 136.134524 
L 238.724769 136.134524 
z
" style="fill:#1f77b4;"/>
   </g>
   <g id="patch_110">
    <path clip-path="url(#p0e1b5350c5)" d="M 240.345048 273.312 
L 241.965327 273.312 
L 241.965327 140.440544 
L 240.345048 140.440544 
z
" style="fill:#1f77b4;"/>
   </g>
   <g id="patch_111">
    <path clip-path="url(#p0e1b5350c5)" d="M 241.965327 273.312 
L 243.585606 273.312 
L 243.585606 152.743456 
L 241.965327 152.743456 
z
" style="fill:#1f77b4;"/>
   </g>
   <g id="patch_112">
    <path clip-path="url(#p0e1b5350c5)" d="M 243.585606 273.312 
L 245.205886 273.312 
L 245.205886 161.970641 
L 243.585606 161.970641 
z
" style="fill:#1f77b4;"/>
   </g>
   <g id="patch_113">
    <path clip-path="url(#p0e1b5350c5)" d="M 245.205886 273.312 
L 246.826165 273.312 
L 246.826165 136.134524 
L 245.205886 136.134524 
z
" style="fill:#1f77b4;"/>
   </g>
   <g id="patch_114">
    <path clip-path="url(#p0e1b5350c5)" d="M 246.826165 273.312 
L 248.446444 273.312 
L 248.446444 145.976854 
L 246.826165 145.976854 
z
" style="fill:#1f77b4;"/>
   </g>
   <g id="patch_115">
    <path clip-path="url(#p0e1b5350c5)" d="M 248.446444 273.312 
L 250.066723 273.312 
L 250.066723 131.828505 
L 248.446444 131.828505 
z
" style="fill:#1f77b4;"/>
   </g>
   <g id="patch_116">
    <path clip-path="url(#p0e1b5350c5)" d="M 250.066723 273.312 
L 251.687002 273.312 
L 251.687002 127.522485 
L 250.066723 127.522485 
z
" style="fill:#1f77b4;"/>
   </g>
   <g id="patch_117">
    <path clip-path="url(#p0e1b5350c5)" d="M 251.687002 273.312 
L 253.307282 273.312 
L 253.307282 109.683262 
L 251.687002 109.683262 
z
" style="fill:#1f77b4;"/>
   </g>
   <g id="patch_118">
    <path clip-path="url(#p0e1b5350c5)" d="M 253.307282 273.312 
L 254.927561 273.312 
L 254.927561 115.219573 
L 253.307282 115.219573 
z
" style="fill:#1f77b4;"/>
   </g>
   <g id="patch_119">
    <path clip-path="url(#p0e1b5350c5)" d="M 254.927561 273.312 
L 256.54784 273.312 
L 256.54784 126.90734 
L 254.927561 126.90734 
z
" style="fill:#1f77b4;"/>
   </g>
   <g id="patch_120">
    <path clip-path="url(#p0e1b5350c5)" d="M 256.54784 273.312 
L 258.168119 273.312 
L 258.168119 113.374136 
L 256.54784 113.374136 
z
" style="fill:#1f77b4;"/>
   </g>
   <g id="patch_121">
    <path clip-path="url(#p0e1b5350c5)" d="M 258.168119 273.312 
L 259.788398 273.312 
L 259.788398 135.519379 
L 258.168119 135.519379 
z
" style="fill:#1f77b4;"/>
   </g>
   <g id="patch_122">
    <path clip-path="url(#p0e1b5350c5)" d="M 259.788398 273.312 
L 261.408678 273.312 
L 261.408678 131.213359 
L 259.788398 131.213359 
z
" style="fill:#1f77b4;"/>
   </g>
   <g id="patch_123">
    <path clip-path="url(#p0e1b5350c5)" d="M 261.408678 273.312 
L 263.028957 273.312 
L 263.028957 141.670835 
L 261.408678 141.670835 
z
" style="fill:#1f77b4;"/>
   </g>
   <g id="patch_124">
    <path clip-path="url(#p0e1b5350c5)" d="M 263.028957 273.312 
L 264.649236 273.312 
L 264.649236 115.219573 
L 263.028957 115.219573 
z
" style="fill:#1f77b4;"/>
   </g>
   <g id="patch_125">
    <path clip-path="url(#p0e1b5350c5)" d="M 264.649236 273.312 
L 266.269515 273.312 
L 266.269515 131.828505 
L 264.649236 131.828505 
z
" style="fill:#1f77b4;"/>
   </g>
   <g id="patch_126">
    <path clip-path="url(#p0e1b5350c5)" d="M 266.269515 273.312 
L 267.889794 273.312 
L 267.889794 111.528699 
L 266.269515 111.528699 
z
" style="fill:#1f77b4;"/>
   </g>
   <g id="patch_127">
    <path clip-path="url(#p0e1b5350c5)" d="M 267.889794 273.312 
L 269.510074 273.312 
L 269.510074 123.831612 
L 267.889794 123.831612 
z
" style="fill:#1f77b4;"/>
   </g>
   <g id="patch_128">
    <path clip-path="url(#p0e1b5350c5)" d="M 269.510074 273.312 
L 271.130353 273.312 
L 271.130353 128.752777 
L 269.510074 128.752777 
z
" style="fill:#1f77b4;"/>
   </g>
   <g id="patch_129">
    <path clip-path="url(#p0e1b5350c5)" d="M 271.130353 273.312 
L 272.750632 273.312 
L 272.750632 111.528699 
L 271.130353 111.528699 
z
" style="fill:#1f77b4;"/>
   </g>
   <g id="patch_130">
    <path clip-path="url(#p0e1b5350c5)" d="M 272.750632 273.312 
L 274.370911 273.312 
L 274.370911 128.137631 
L 272.750632 128.137631 
z
" style="fill:#1f77b4;"/>
   </g>
   <g id="patch_131">
    <path clip-path="url(#p0e1b5350c5)" d="M 274.370911 273.312 
L 275.99119 273.312 
L 275.99119 115.834718 
L 274.370911 115.834718 
z
" style="fill:#1f77b4;"/>
   </g>
   <g id="patch_132">
    <path clip-path="url(#p0e1b5350c5)" d="M 275.99119 273.312 
L 277.61147 273.312 
L 277.61147 110.298408 
L 275.99119 110.298408 
z
" style="fill:#1f77b4;"/>
   </g>
   <g id="patch_133">
    <path clip-path="url(#p0e1b5350c5)" d="M 277.61147 273.312 
L 279.231749 273.312 
L 279.231749 121.986175 
L 277.61147 121.986175 
z
" style="fill:#1f77b4;"/>
   </g>
   <g id="patch_134">
    <path clip-path="url(#p0e1b5350c5)" d="M 279.231749 273.312 
L 280.852028 273.312 
L 280.852028 113.989282 
L 279.231749 113.989282 
z
" style="fill:#1f77b4;"/>
   </g>
   <g id="patch_135">
    <path clip-path="url(#p0e1b5350c5)" d="M 280.852028 273.312 
L 282.472307 273.312 
L 282.472307 102.91666 
L 280.852028 102.91666 
z
" style="fill:#1f77b4;"/>
   </g>
   <g id="patch_136">
    <path clip-path="url(#p0e1b5350c5)" d="M 282.472307 273.312 
L 284.092586 273.312 
L 284.092586 100.456078 
L 282.472307 100.456078 
z
" style="fill:#1f77b4;"/>
   </g>
   <g id="patch_137">
    <path clip-path="url(#p0e1b5350c5)" d="M 284.092586 273.312 
L 285.712866 273.312 
L 285.712866 93.689476 
L 284.092586 93.689476 
z
" style="fill:#1f77b4;"/>
   </g>
   <g id="patch_138">
    <path clip-path="url(#p0e1b5350c5)" d="M 285.712866 273.312 
L 287.333145 273.312 
L 287.333145 105.377243 
L 285.712866 105.377243 
z
" style="fill:#1f77b4;"/>
   </g>
   <g id="patch_139">
    <path clip-path="url(#p0e1b5350c5)" d="M 287.333145 273.312 
L 288.953424 273.312 
L 288.953424 99.225786 
L 287.333145 99.225786 
z
" style="fill:#1f77b4;"/>
   </g>
   <g id="patch_140">
    <path clip-path="url(#p0e1b5350c5)" d="M 288.953424 273.312 
L 290.573703 273.312 
L 290.573703 99.225786 
L 288.953424 99.225786 
z
" style="fill:#1f77b4;"/>
   </g>
   <g id="patch_141">
    <path clip-path="url(#p0e1b5350c5)" d="M 290.573703 273.312 
L 292.193982 273.312 
L 292.193982 107.837825 
L 290.573703 107.837825 
z
" style="fill:#1f77b4;"/>
   </g>
   <g id="patch_142">
    <path clip-path="url(#p0e1b5350c5)" d="M 292.193982 273.312 
L 293.814262 273.312 
L 293.814262 93.689476 
L 292.193982 93.689476 
z
" style="fill:#1f77b4;"/>
   </g>
   <g id="patch_143">
    <path clip-path="url(#p0e1b5350c5)" d="M 293.814262 273.312 
L 295.434541 273.312 
L 295.434541 113.989282 
L 293.814262 113.989282 
z
" style="fill:#1f77b4;"/>
   </g>
   <g id="patch_144">
    <path clip-path="url(#p0e1b5350c5)" d="M 295.434541 273.312 
L 297.05482 273.312 
L 297.05482 88.768311 
L 295.434541 88.768311 
z
" style="fill:#1f77b4;"/>
   </g>
   <g id="patch_145">
    <path clip-path="url(#p0e1b5350c5)" d="M 297.05482 273.312 
L 298.675099 273.312 
L 298.675099 96.150058 
L 297.05482 96.150058 
z
" style="fill:#1f77b4;"/>
   </g>
   <g id="patch_146">
    <path clip-path="url(#p0e1b5350c5)" d="M 298.675099 273.312 
L 300.295378 273.312 
L 300.295378 78.925981 
L 298.675099 78.925981 
z
" style="fill:#1f77b4;"/>
   </g>
   <g id="patch_147">
    <path clip-path="url(#p0e1b5350c5)" d="M 300.295378 273.312 
L 301.915658 273.312 
L 301.915658 89.383456 
L 300.295378 89.383456 
z
" style="fill:#1f77b4;"/>
   </g>
   <g id="patch_148">
    <path clip-path="url(#p0e1b5350c5)" d="M 301.915658 273.312 
L 303.535937 273.312 
L 303.535937 83.847146 
L 301.915658 83.847146 
z
" style="fill:#1f77b4;"/>
   </g>
   <g id="patch_149">
    <path clip-path="url(#p0e1b5350c5)" d="M 303.535937 273.312 
L 305.156216 273.312 
L 305.156216 88.768311 
L 303.535937 88.768311 
z
" style="fill:#1f77b4;"/>
   </g>
   <g id="patch_150">
    <path clip-path="url(#p0e1b5350c5)" d="M 305.156216 273.312 
L 306.776495 273.312 
L 306.776495 80.771417 
L 305.156216 80.771417 
z
" style="fill:#1f77b4;"/>
   </g>
   <g id="patch_151">
    <path clip-path="url(#p0e1b5350c5)" d="M 306.776495 273.312 
L 308.396774 273.312 
L 308.396774 97.995495 
L 306.776495 97.995495 
z
" style="fill:#1f77b4;"/>
   </g>
   <g id="patch_152">
    <path clip-path="url(#p0e1b5350c5)" d="M 308.396774 273.312 
L 310.017054 273.312 
L 310.017054 111.528699 
L 308.396774 111.528699 
z
" style="fill:#1f77b4;"/>
   </g>
   <g id="patch_153">
    <path clip-path="url(#p0e1b5350c5)" d="M 310.017054 273.312 
L 311.637333 273.312 
L 311.637333 85.077437 
L 310.017054 85.077437 
z
" style="fill:#1f77b4;"/>
   </g>
   <g id="patch_154">
    <path clip-path="url(#p0e1b5350c5)" d="M 311.637333 273.312 
L 313.257612 273.312 
L 313.257612 88.153165 
L 311.637333 88.153165 
z
" style="fill:#1f77b4;"/>
   </g>
   <g id="patch_155">
    <path clip-path="url(#p0e1b5350c5)" d="M 313.257612 273.312 
L 314.877891 273.312 
L 314.877891 97.38035 
L 313.257612 97.38035 
z
" style="fill:#1f77b4;"/>
   </g>
   <g id="patch_156">
    <path clip-path="url(#p0e1b5350c5)" d="M 314.877891 273.312 
L 316.49817 273.312 
L 316.49817 80.156272 
L 314.877891 80.156272 
z
" style="fill:#1f77b4;"/>
   </g>
   <g id="patch_157">
    <path clip-path="url(#p0e1b5350c5)" d="M 316.49817 273.312 
L 318.11845 273.312 
L 318.11845 50.014136 
L 316.49817 50.014136 
z
" style="fill:#1f77b4;"/>
   </g>
   <g id="patch_158">
    <path clip-path="url(#p0e1b5350c5)" d="M 318.11845 273.312 
L 319.738729 273.312 
L 319.738729 83.232 
L 318.11845 83.232 
z
" style="fill:#1f77b4;"/>
   </g>
   <g id="patch_159">
    <path clip-path="url(#p0e1b5350c5)" d="M 319.738729 273.312 
L 321.359008 273.312 
L 321.359008 84.462291 
L 319.738729 84.462291 
z
" style="fill:#1f77b4;"/>
   </g>
   <g id="patch_160">
    <path clip-path="url(#p0e1b5350c5)" d="M 321.359008 273.312 
L 322.979287 273.312 
L 322.979287 64.162485 
L 321.359008 64.162485 
z
" style="fill:#1f77b4;"/>
   </g>
   <g id="patch_161">
    <path clip-path="url(#p0e1b5350c5)" d="M 322.979287 273.312 
L 324.599566 273.312 
L 324.599566 75.235107 
L 322.979287 75.235107 
z
" style="fill:#1f77b4;"/>
   </g>
   <g id="patch_162">
    <path clip-path="url(#p0e1b5350c5)" d="M 324.599566 273.312 
L 326.219846 273.312 
L 326.219846 59.24132 
L 324.599566 59.24132 
z
" style="fill:#1f77b4;"/>
   </g>
   <g id="patch_163">
    <path clip-path="url(#p0e1b5350c5)" d="M 326.219846 273.312 
L 327.840125 273.312 
L 327.840125 72.159379 
L 326.219846 72.159379 
z
" style="fill:#1f77b4;"/>
   </g>
   <g id="patch_164">
    <path clip-path="url(#p0e1b5350c5)" d="M 327.840125 273.312 
L 329.460404 273.312 
L 329.460404 75.850252 
L 327.840125 75.850252 
z
" style="fill:#1f77b4;"/>
   </g>
   <g id="patch_165">
    <path clip-path="url(#p0e1b5350c5)" d="M 329.460404 273.312 
L 331.080683 273.312 
L 331.080683 79.541126 
L 329.460404 79.541126 
z
" style="fill:#1f77b4;"/>
   </g>
   <g id="patch_166">
    <path clip-path="url(#p0e1b5350c5)" d="M 331.080683 273.312 
L 332.700962 273.312 
L 332.700962 49.39899 
L 331.080683 49.39899 
z
" style="fill:#1f77b4;"/>
   </g>
   <g id="patch_167">
    <path clip-path="url(#p0e1b5350c5)" d="M 332.700962 273.312 
L 334.321242 273.312 
L 334.321242 88.768311 
L 332.700962 88.768311 
z
" style="fill:#1f77b4;"/>
   </g>
   <g id="patch_168">
    <path clip-path="url(#p0e1b5350c5)" d="M 334.321242 273.312 
L 335.941521 273.312 
L 335.941521 80.156272 
L 334.321242 80.156272 
z
" style="fill:#1f77b4;"/>
   </g>
   <g id="patch_169">
    <path clip-path="url(#p0e1b5350c5)" d="M 335.941521 273.312 
L 337.5618 273.312 
L 337.5618 78.925981 
L 335.941521 78.925981 
z
" style="fill:#1f77b4;"/>
   </g>
   <g id="patch_170">
    <path clip-path="url(#p0e1b5350c5)" d="M 337.5618 273.312 
L 339.182079 273.312 
L 339.182079 72.159379 
L 337.5618 72.159379 
z
" style="fill:#1f77b4;"/>
   </g>
   <g id="patch_171">
    <path clip-path="url(#p0e1b5350c5)" d="M 339.182079 273.312 
L 340.802358 273.312 
L 340.802358 46.938408 
L 339.182079 46.938408 
z
" style="fill:#1f77b4;"/>
   </g>
   <g id="patch_172">
    <path clip-path="url(#p0e1b5350c5)" d="M 340.802358 273.312 
L 342.422638 273.312 
L 342.422638 51.244427 
L 340.802358 51.244427 
z
" style="fill:#1f77b4;"/>
   </g>
   <g id="patch_173">
    <path clip-path="url(#p0e1b5350c5)" d="M 342.422638 273.312 
L 344.042917 273.312 
L 344.042917 59.856466 
L 342.422638 59.856466 
z
" style="fill:#1f77b4;"/>
   </g>
   <g id="patch_174">
    <path clip-path="url(#p0e1b5350c5)" d="M 344.042917 273.312 
L 345.663196 273.312 
L 345.663196 90.613748 
L 344.042917 90.613748 
z
" style="fill:#1f77b4;"/>
   </g>
   <g id="patch_175">
    <path clip-path="url(#p0e1b5350c5)" d="M 345.663196 273.312 
L 347.283475 273.312 
L 347.283475 77.695689 
L 345.663196 77.695689 
z
" style="fill:#1f77b4;"/>
   </g>
   <g id="patch_176">
    <path clip-path="url(#p0e1b5350c5)" d="M 347.283475 273.312 
L 348.903754 273.312 
L 348.903754 53.089864 
L 347.283475 53.089864 
z
" style="fill:#1f77b4;"/>
   </g>
   <g id="patch_177">
    <path clip-path="url(#p0e1b5350c5)" d="M 348.903754 273.312 
L 350.524034 273.312 
L 350.524034 73.38967 
L 348.903754 73.38967 
z
" style="fill:#1f77b4;"/>
   </g>
   <g id="patch_178">
    <path clip-path="url(#p0e1b5350c5)" d="M 350.524034 273.312 
L 352.144313 273.312 
L 352.144313 69.698796 
L 350.524034 69.698796 
z
" style="fill:#1f77b4;"/>
   </g>
   <g id="patch_179">
    <path clip-path="url(#p0e1b5350c5)" d="M 352.144313 273.312 
L 353.764592 273.312 
L 353.764592 74.004816 
L 352.144313 74.004816 
z
" style="fill:#1f77b4;"/>
   </g>
   <g id="patch_180">
    <path clip-path="url(#p0e1b5350c5)" d="M 353.764592 273.312 
L 355.384871 273.312 
L 355.384871 41.402097 
L 353.764592 41.402097 
z
" style="fill:#1f77b4;"/>
   </g>
   <g id="patch_181">
    <path clip-path="url(#p0e1b5350c5)" d="M 355.384871 273.312 
L 357.00515 273.312 
L 357.00515 54.935301 
L 355.384871 54.935301 
z
" style="fill:#1f77b4;"/>
   </g>
   <g id="patch_182">
    <path clip-path="url(#p0e1b5350c5)" d="M 357.00515 273.312 
L 358.62543 273.312 
L 358.62543 45.708117 
L 357.00515 45.708117 
z
" style="fill:#1f77b4;"/>
   </g>
   <g id="patch_183">
    <path clip-path="url(#p0e1b5350c5)" d="M 358.62543 273.312 
L 360.245709 273.312 
L 360.245709 43.86268 
L 358.62543 43.86268 
z
" style="fill:#1f77b4;"/>
   </g>
   <g id="patch_184">
    <path clip-path="url(#p0e1b5350c5)" d="M 360.245709 273.312 
L 361.865988 273.312 
L 361.865988 42.632388 
L 360.245709 42.632388 
z
" style="fill:#1f77b4;"/>
   </g>
   <g id="patch_185">
    <path clip-path="url(#p0e1b5350c5)" d="M 361.865988 273.312 
L 363.486267 273.312 
L 363.486267 66.007922 
L 361.865988 66.007922 
z
" style="fill:#1f77b4;"/>
   </g>
   <g id="patch_186">
    <path clip-path="url(#p0e1b5350c5)" d="M 363.486267 273.312 
L 365.106546 273.312 
L 365.106546 58.011029 
L 363.486267 58.011029 
z
" style="fill:#1f77b4;"/>
   </g>
   <g id="patch_187">
    <path clip-path="url(#p0e1b5350c5)" d="M 365.106546 273.312 
L 366.726826 273.312 
L 366.726826 44.477825 
L 365.106546 44.477825 
z
" style="fill:#1f77b4;"/>
   </g>
   <g id="patch_188">
    <path clip-path="url(#p0e1b5350c5)" d="M 366.726826 273.312 
L 368.347105 273.312 
L 368.347105 55.550447 
L 366.726826 55.550447 
z
" style="fill:#1f77b4;"/>
   </g>
   <g id="patch_189">
    <path clip-path="url(#p0e1b5350c5)" d="M 368.347105 273.312 
L 369.967384 273.312 
L 369.967384 60.471612 
L 368.347105 60.471612 
z
" style="fill:#1f77b4;"/>
   </g>
   <g id="patch_190">
    <path clip-path="url(#p0e1b5350c5)" d="M 369.967384 273.312 
L 371.587663 273.312 
L 371.587663 30.944621 
L 369.967384 30.944621 
z
" style="fill:#1f77b4;"/>
   </g>
   <g id="patch_191">
    <path clip-path="url(#p0e1b5350c5)" d="M 371.587663 273.312 
L 373.207942 273.312 
L 373.207942 52.474718 
L 371.587663 52.474718 
z
" style="fill:#1f77b4;"/>
   </g>
   <g id="patch_192">
    <path clip-path="url(#p0e1b5350c5)" d="M 373.207942 273.312 
L 374.828222 273.312 
L 374.828222 48.168699 
L 373.207942 48.168699 
z
" style="fill:#1f77b4;"/>
   </g>
   <g id="patch_193">
    <path clip-path="url(#p0e1b5350c5)" d="M 374.828222 273.312 
L 376.448501 273.312 
L 376.448501 36.480932 
L 374.828222 36.480932 
z
" style="fill:#1f77b4;"/>
   </g>
   <g id="patch_194">
    <path clip-path="url(#p0e1b5350c5)" d="M 376.448501 273.312 
L 378.06878 273.312 
L 378.06878 61.086757 
L 376.448501 61.086757 
z
" style="fill:#1f77b4;"/>
   </g>
   <g id="patch_195">
    <path clip-path="url(#p0e1b5350c5)" d="M 378.06878 273.312 
L 379.689059 273.312 
L 379.689059 29.71433 
L 378.06878 29.71433 
z
" style="fill:#1f77b4;"/>
   </g>
   <g id="patch_196">
    <path clip-path="url(#p0e1b5350c5)" d="M 379.689059 273.312 
L 381.309338 273.312 
L 381.309338 28.484039 
L 379.689059 28.484039 
z
" style="fill:#1f77b4;"/>
   </g>
   <g id="patch_197">
    <path clip-path="url(#p0e1b5350c5)" d="M 381.309338 273.312 
L 382.929618 273.312 
L 382.929618 34.02035 
L 381.309338 34.02035 
z
" style="fill:#1f77b4;"/>
   </g>
   <g id="patch_198">
    <path clip-path="url(#p0e1b5350c5)" d="M 382.929618 273.312 
L 384.549897 273.312 
L 384.549897 51.244427 
L 382.929618 51.244427 
z
" style="fill:#1f77b4;"/>
   </g>
   <g id="patch_199">
    <path clip-path="url(#p0e1b5350c5)" d="M 384.549897 273.312 
L 386.170176 273.312 
L 386.170176 22.332583 
L 384.549897 22.332583 
z
" style="fill:#1f77b4;"/>
   </g>
   <g id="patch_200">
    <path clip-path="url(#p0e1b5350c5)" d="M 386.170176 273.312 
L 387.790455 273.312 
L 387.790455 46.323262 
L 386.170176 46.323262 
z
" style="fill:#1f77b4;"/>
   </g>
   <g id="patch_201">
    <path clip-path="url(#p0e1b5350c5)" d="M 387.790455 273.312 
L 389.410734 273.312 
L 389.410734 34.635495 
L 387.790455 34.635495 
z
" style="fill:#1f77b4;"/>
   </g>
   <g id="patch_202">
    <path clip-path="url(#p0e1b5350c5)" d="M 389.410734 273.312 
L 391.031014 273.312 
L 391.031014 19.872 
L 389.410734 19.872 
z
" style="fill:#1f77b4;"/>
   </g>
   <g id="matplotlib.axis_1">
    <g id="xtick_1">
     <g id="line2d_1">
      <defs>
       <path d="M 0 0 
L 0 3.5 
" id="m519992cb44" style="stroke:#000000;stroke-width:0.8;"/>
      </defs>
      <g>
       <use style="stroke:#000000;stroke-width:0.8;" x="66.376477" xlink:href="#m519992cb44" y="273.312"/>
      </g>
     </g>
     <g id="text_1">
      <!-- 0.0 -->
      <g transform="translate(58.424915 287.910437)scale(0.1 -0.1)">
       <defs>
        <path d="M 2034 4250 
Q 1547 4250 1301 3770 
Q 1056 3291 1056 2328 
Q 1056 1369 1301 889 
Q 1547 409 2034 409 
Q 2525 409 2770 889 
Q 3016 1369 3016 2328 
Q 3016 3291 2770 3770 
Q 2525 4250 2034 4250 
z
M 2034 4750 
Q 2819 4750 3233 4129 
Q 3647 3509 3647 2328 
Q 3647 1150 3233 529 
Q 2819 -91 2034 -91 
Q 1250 -91 836 529 
Q 422 1150 422 2328 
Q 422 3509 836 4129 
Q 1250 4750 2034 4750 
z
" id="DejaVuSans-30" transform="scale(0.015625)"/>
        <path d="M 684 794 
L 1344 794 
L 1344 0 
L 684 0 
L 684 794 
z
" id="DejaVuSans-2e" transform="scale(0.015625)"/>
       </defs>
       <use xlink:href="#DejaVuSans-30"/>
       <use x="63.623047" xlink:href="#DejaVuSans-2e"/>
       <use x="95.410156" xlink:href="#DejaVuSans-30"/>
      </g>
     </g>
    </g>
    <g id="xtick_2">
     <g id="line2d_2">
      <g>
       <use style="stroke:#000000;stroke-width:0.8;" x="131.307386" xlink:href="#m519992cb44" y="273.312"/>
      </g>
     </g>
     <g id="text_2">
      <!-- 0.2 -->
      <g transform="translate(123.355824 287.910437)scale(0.1 -0.1)">
       <defs>
        <path d="M 1228 531 
L 3431 531 
L 3431 0 
L 469 0 
L 469 531 
Q 828 903 1448 1529 
Q 2069 2156 2228 2338 
Q 2531 2678 2651 2914 
Q 2772 3150 2772 3378 
Q 2772 3750 2511 3984 
Q 2250 4219 1831 4219 
Q 1534 4219 1204 4116 
Q 875 4013 500 3803 
L 500 4441 
Q 881 4594 1212 4672 
Q 1544 4750 1819 4750 
Q 2544 4750 2975 4387 
Q 3406 4025 3406 3419 
Q 3406 3131 3298 2873 
Q 3191 2616 2906 2266 
Q 2828 2175 2409 1742 
Q 1991 1309 1228 531 
z
" id="DejaVuSans-32" transform="scale(0.015625)"/>
       </defs>
       <use xlink:href="#DejaVuSans-30"/>
       <use x="63.623047" xlink:href="#DejaVuSans-2e"/>
       <use x="95.410156" xlink:href="#DejaVuSans-32"/>
      </g>
     </g>
    </g>
    <g id="xtick_3">
     <g id="line2d_3">
      <g>
       <use style="stroke:#000000;stroke-width:0.8;" x="196.238295" xlink:href="#m519992cb44" y="273.312"/>
      </g>
     </g>
     <g id="text_3">
      <!-- 0.4 -->
      <g transform="translate(188.286733 287.910437)scale(0.1 -0.1)">
       <defs>
        <path d="M 2419 4116 
L 825 1625 
L 2419 1625 
L 2419 4116 
z
M 2253 4666 
L 3047 4666 
L 3047 1625 
L 3713 1625 
L 3713 1100 
L 3047 1100 
L 3047 0 
L 2419 0 
L 2419 1100 
L 313 1100 
L 313 1709 
L 2253 4666 
z
" id="DejaVuSans-34" transform="scale(0.015625)"/>
       </defs>
       <use xlink:href="#DejaVuSans-30"/>
       <use x="63.623047" xlink:href="#DejaVuSans-2e"/>
       <use x="95.410156" xlink:href="#DejaVuSans-34"/>
      </g>
     </g>
    </g>
    <g id="xtick_4">
     <g id="line2d_4">
      <g>
       <use style="stroke:#000000;stroke-width:0.8;" x="261.169205" xlink:href="#m519992cb44" y="273.312"/>
      </g>
     </g>
     <g id="text_4">
      <!-- 0.6 -->
      <g transform="translate(253.217642 287.910437)scale(0.1 -0.1)">
       <defs>
        <path d="M 2113 2584 
Q 1688 2584 1439 2293 
Q 1191 2003 1191 1497 
Q 1191 994 1439 701 
Q 1688 409 2113 409 
Q 2538 409 2786 701 
Q 3034 994 3034 1497 
Q 3034 2003 2786 2293 
Q 2538 2584 2113 2584 
z
M 3366 4563 
L 3366 3988 
Q 3128 4100 2886 4159 
Q 2644 4219 2406 4219 
Q 1781 4219 1451 3797 
Q 1122 3375 1075 2522 
Q 1259 2794 1537 2939 
Q 1816 3084 2150 3084 
Q 2853 3084 3261 2657 
Q 3669 2231 3669 1497 
Q 3669 778 3244 343 
Q 2819 -91 2113 -91 
Q 1303 -91 875 529 
Q 447 1150 447 2328 
Q 447 3434 972 4092 
Q 1497 4750 2381 4750 
Q 2619 4750 2861 4703 
Q 3103 4656 3366 4563 
z
" id="DejaVuSans-36" transform="scale(0.015625)"/>
       </defs>
       <use xlink:href="#DejaVuSans-30"/>
       <use x="63.623047" xlink:href="#DejaVuSans-2e"/>
       <use x="95.410156" xlink:href="#DejaVuSans-36"/>
      </g>
     </g>
    </g>
    <g id="xtick_5">
     <g id="line2d_5">
      <g>
       <use style="stroke:#000000;stroke-width:0.8;" x="326.100114" xlink:href="#m519992cb44" y="273.312"/>
      </g>
     </g>
     <g id="text_5">
      <!-- 0.8 -->
      <g transform="translate(318.148551 287.910437)scale(0.1 -0.1)">
       <defs>
        <path d="M 2034 2216 
Q 1584 2216 1326 1975 
Q 1069 1734 1069 1313 
Q 1069 891 1326 650 
Q 1584 409 2034 409 
Q 2484 409 2743 651 
Q 3003 894 3003 1313 
Q 3003 1734 2745 1975 
Q 2488 2216 2034 2216 
z
M 1403 2484 
Q 997 2584 770 2862 
Q 544 3141 544 3541 
Q 544 4100 942 4425 
Q 1341 4750 2034 4750 
Q 2731 4750 3128 4425 
Q 3525 4100 3525 3541 
Q 3525 3141 3298 2862 
Q 3072 2584 2669 2484 
Q 3125 2378 3379 2068 
Q 3634 1759 3634 1313 
Q 3634 634 3220 271 
Q 2806 -91 2034 -91 
Q 1263 -91 848 271 
Q 434 634 434 1313 
Q 434 1759 690 2068 
Q 947 2378 1403 2484 
z
M 1172 3481 
Q 1172 3119 1398 2916 
Q 1625 2713 2034 2713 
Q 2441 2713 2670 2916 
Q 2900 3119 2900 3481 
Q 2900 3844 2670 4047 
Q 2441 4250 2034 4250 
Q 1625 4250 1398 4047 
Q 1172 3844 1172 3481 
z
" id="DejaVuSans-38" transform="scale(0.015625)"/>
       </defs>
       <use xlink:href="#DejaVuSans-30"/>
       <use x="63.623047" xlink:href="#DejaVuSans-2e"/>
       <use x="95.410156" xlink:href="#DejaVuSans-38"/>
      </g>
     </g>
    </g>
    <g id="xtick_6">
     <g id="line2d_6">
      <g>
       <use style="stroke:#000000;stroke-width:0.8;" x="391.031023" xlink:href="#m519992cb44" y="273.312"/>
      </g>
     </g>
     <g id="text_6">
      <!-- 1.0 -->
      <g transform="translate(383.07946 287.910437)scale(0.1 -0.1)">
       <defs>
        <path d="M 794 531 
L 1825 531 
L 1825 4091 
L 703 3866 
L 703 4441 
L 1819 4666 
L 2450 4666 
L 2450 531 
L 3481 531 
L 3481 0 
L 794 0 
L 794 531 
z
" id="DejaVuSans-31" transform="scale(0.015625)"/>
       </defs>
       <use xlink:href="#DejaVuSans-31"/>
       <use x="63.623047" xlink:href="#DejaVuSans-2e"/>
       <use x="95.410156" xlink:href="#DejaVuSans-30"/>
      </g>
     </g>
    </g>
    <g id="text_7">
     <!-- Propagation direction -->
     <g transform="translate(175.221719 301.588562)scale(0.1 -0.1)">
      <defs>
       <path d="M 1259 4147 
L 1259 2394 
L 2053 2394 
Q 2494 2394 2734 2622 
Q 2975 2850 2975 3272 
Q 2975 3691 2734 3919 
Q 2494 4147 2053 4147 
L 1259 4147 
z
M 628 4666 
L 2053 4666 
Q 2838 4666 3239 4311 
Q 3641 3956 3641 3272 
Q 3641 2581 3239 2228 
Q 2838 1875 2053 1875 
L 1259 1875 
L 1259 0 
L 628 0 
L 628 4666 
z
" id="DejaVuSans-50" transform="scale(0.015625)"/>
       <path d="M 2631 2963 
Q 2534 3019 2420 3045 
Q 2306 3072 2169 3072 
Q 1681 3072 1420 2755 
Q 1159 2438 1159 1844 
L 1159 0 
L 581 0 
L 581 3500 
L 1159 3500 
L 1159 2956 
Q 1341 3275 1631 3429 
Q 1922 3584 2338 3584 
Q 2397 3584 2469 3576 
Q 2541 3569 2628 3553 
L 2631 2963 
z
" id="DejaVuSans-72" transform="scale(0.015625)"/>
       <path d="M 1959 3097 
Q 1497 3097 1228 2736 
Q 959 2375 959 1747 
Q 959 1119 1226 758 
Q 1494 397 1959 397 
Q 2419 397 2687 759 
Q 2956 1122 2956 1747 
Q 2956 2369 2687 2733 
Q 2419 3097 1959 3097 
z
M 1959 3584 
Q 2709 3584 3137 3096 
Q 3566 2609 3566 1747 
Q 3566 888 3137 398 
Q 2709 -91 1959 -91 
Q 1206 -91 779 398 
Q 353 888 353 1747 
Q 353 2609 779 3096 
Q 1206 3584 1959 3584 
z
" id="DejaVuSans-6f" transform="scale(0.015625)"/>
       <path d="M 1159 525 
L 1159 -1331 
L 581 -1331 
L 581 3500 
L 1159 3500 
L 1159 2969 
Q 1341 3281 1617 3432 
Q 1894 3584 2278 3584 
Q 2916 3584 3314 3078 
Q 3713 2572 3713 1747 
Q 3713 922 3314 415 
Q 2916 -91 2278 -91 
Q 1894 -91 1617 61 
Q 1341 213 1159 525 
z
M 3116 1747 
Q 3116 2381 2855 2742 
Q 2594 3103 2138 3103 
Q 1681 3103 1420 2742 
Q 1159 2381 1159 1747 
Q 1159 1113 1420 752 
Q 1681 391 2138 391 
Q 2594 391 2855 752 
Q 3116 1113 3116 1747 
z
" id="DejaVuSans-70" transform="scale(0.015625)"/>
       <path d="M 2194 1759 
Q 1497 1759 1228 1600 
Q 959 1441 959 1056 
Q 959 750 1161 570 
Q 1363 391 1709 391 
Q 2188 391 2477 730 
Q 2766 1069 2766 1631 
L 2766 1759 
L 2194 1759 
z
M 3341 1997 
L 3341 0 
L 2766 0 
L 2766 531 
Q 2569 213 2275 61 
Q 1981 -91 1556 -91 
Q 1019 -91 701 211 
Q 384 513 384 1019 
Q 384 1609 779 1909 
Q 1175 2209 1959 2209 
L 2766 2209 
L 2766 2266 
Q 2766 2663 2505 2880 
Q 2244 3097 1772 3097 
Q 1472 3097 1187 3025 
Q 903 2953 641 2809 
L 641 3341 
Q 956 3463 1253 3523 
Q 1550 3584 1831 3584 
Q 2591 3584 2966 3190 
Q 3341 2797 3341 1997 
z
" id="DejaVuSans-61" transform="scale(0.015625)"/>
       <path d="M 2906 1791 
Q 2906 2416 2648 2759 
Q 2391 3103 1925 3103 
Q 1463 3103 1205 2759 
Q 947 2416 947 1791 
Q 947 1169 1205 825 
Q 1463 481 1925 481 
Q 2391 481 2648 825 
Q 2906 1169 2906 1791 
z
M 3481 434 
Q 3481 -459 3084 -895 
Q 2688 -1331 1869 -1331 
Q 1566 -1331 1297 -1286 
Q 1028 -1241 775 -1147 
L 775 -588 
Q 1028 -725 1275 -790 
Q 1522 -856 1778 -856 
Q 2344 -856 2625 -561 
Q 2906 -266 2906 331 
L 2906 616 
Q 2728 306 2450 153 
Q 2172 0 1784 0 
Q 1141 0 747 490 
Q 353 981 353 1791 
Q 353 2603 747 3093 
Q 1141 3584 1784 3584 
Q 2172 3584 2450 3431 
Q 2728 3278 2906 2969 
L 2906 3500 
L 3481 3500 
L 3481 434 
z
" id="DejaVuSans-67" transform="scale(0.015625)"/>
       <path d="M 1172 4494 
L 1172 3500 
L 2356 3500 
L 2356 3053 
L 1172 3053 
L 1172 1153 
Q 1172 725 1289 603 
Q 1406 481 1766 481 
L 2356 481 
L 2356 0 
L 1766 0 
Q 1100 0 847 248 
Q 594 497 594 1153 
L 594 3053 
L 172 3053 
L 172 3500 
L 594 3500 
L 594 4494 
L 1172 4494 
z
" id="DejaVuSans-74" transform="scale(0.015625)"/>
       <path d="M 603 3500 
L 1178 3500 
L 1178 0 
L 603 0 
L 603 3500 
z
M 603 4863 
L 1178 4863 
L 1178 4134 
L 603 4134 
L 603 4863 
z
" id="DejaVuSans-69" transform="scale(0.015625)"/>
       <path d="M 3513 2113 
L 3513 0 
L 2938 0 
L 2938 2094 
Q 2938 2591 2744 2837 
Q 2550 3084 2163 3084 
Q 1697 3084 1428 2787 
Q 1159 2491 1159 1978 
L 1159 0 
L 581 0 
L 581 3500 
L 1159 3500 
L 1159 2956 
Q 1366 3272 1645 3428 
Q 1925 3584 2291 3584 
Q 2894 3584 3203 3211 
Q 3513 2838 3513 2113 
z
" id="DejaVuSans-6e" transform="scale(0.015625)"/>
       <path id="DejaVuSans-20" transform="scale(0.015625)"/>
       <path d="M 2906 2969 
L 2906 4863 
L 3481 4863 
L 3481 0 
L 2906 0 
L 2906 525 
Q 2725 213 2448 61 
Q 2172 -91 1784 -91 
Q 1150 -91 751 415 
Q 353 922 353 1747 
Q 353 2572 751 3078 
Q 1150 3584 1784 3584 
Q 2172 3584 2448 3432 
Q 2725 3281 2906 2969 
z
M 947 1747 
Q 947 1113 1208 752 
Q 1469 391 1925 391 
Q 2381 391 2643 752 
Q 2906 1113 2906 1747 
Q 2906 2381 2643 2742 
Q 2381 3103 1925 3103 
Q 1469 3103 1208 2742 
Q 947 2381 947 1747 
z
" id="DejaVuSans-64" transform="scale(0.015625)"/>
       <path d="M 3597 1894 
L 3597 1613 
L 953 1613 
Q 991 1019 1311 708 
Q 1631 397 2203 397 
Q 2534 397 2845 478 
Q 3156 559 3463 722 
L 3463 178 
Q 3153 47 2828 -22 
Q 2503 -91 2169 -91 
Q 1331 -91 842 396 
Q 353 884 353 1716 
Q 353 2575 817 3079 
Q 1281 3584 2069 3584 
Q 2775 3584 3186 3129 
Q 3597 2675 3597 1894 
z
M 3022 2063 
Q 3016 2534 2758 2815 
Q 2500 3097 2075 3097 
Q 1594 3097 1305 2825 
Q 1016 2553 972 2059 
L 3022 2063 
z
" id="DejaVuSans-65" transform="scale(0.015625)"/>
       <path d="M 3122 3366 
L 3122 2828 
Q 2878 2963 2633 3030 
Q 2388 3097 2138 3097 
Q 1578 3097 1268 2742 
Q 959 2388 959 1747 
Q 959 1106 1268 751 
Q 1578 397 2138 397 
Q 2388 397 2633 464 
Q 2878 531 3122 666 
L 3122 134 
Q 2881 22 2623 -34 
Q 2366 -91 2075 -91 
Q 1284 -91 818 406 
Q 353 903 353 1747 
Q 353 2603 823 3093 
Q 1294 3584 2113 3584 
Q 2378 3584 2631 3529 
Q 2884 3475 3122 3366 
z
" id="DejaVuSans-63" transform="scale(0.015625)"/>
      </defs>
      <use xlink:href="#DejaVuSans-50"/>
      <use x="58.552734" xlink:href="#DejaVuSans-72"/>
      <use x="97.416016" xlink:href="#DejaVuSans-6f"/>
      <use x="158.597656" xlink:href="#DejaVuSans-70"/>
      <use x="222.074219" xlink:href="#DejaVuSans-61"/>
      <use x="283.353516" xlink:href="#DejaVuSans-67"/>
      <use x="346.830078" xlink:href="#DejaVuSans-61"/>
      <use x="408.109375" xlink:href="#DejaVuSans-74"/>
      <use x="447.318359" xlink:href="#DejaVuSans-69"/>
      <use x="475.101562" xlink:href="#DejaVuSans-6f"/>
      <use x="536.283203" xlink:href="#DejaVuSans-6e"/>
      <use x="599.662109" xlink:href="#DejaVuSans-20"/>
      <use x="631.449219" xlink:href="#DejaVuSans-64"/>
      <use x="694.925781" xlink:href="#DejaVuSans-69"/>
      <use x="722.708984" xlink:href="#DejaVuSans-72"/>
      <use x="761.572266" xlink:href="#DejaVuSans-65"/>
      <use x="823.095703" xlink:href="#DejaVuSans-63"/>
      <use x="878.076172" xlink:href="#DejaVuSans-74"/>
      <use x="917.285156" xlink:href="#DejaVuSans-69"/>
      <use x="945.068359" xlink:href="#DejaVuSans-6f"/>
      <use x="1006.25" xlink:href="#DejaVuSans-6e"/>
     </g>
    </g>
   </g>
   <g id="matplotlib.axis_2">
    <g id="ytick_1">
     <g id="line2d_7">
      <defs>
       <path d="M 0 0 
L -3.5 0 
" id="m8438e384f3" style="stroke:#000000;stroke-width:0.8;"/>
      </defs>
      <g>
       <use style="stroke:#000000;stroke-width:0.8;" x="50.14375" xlink:href="#m8438e384f3" y="273.312"/>
      </g>
     </g>
     <g id="text_8">
      <!-- 0.00 -->
      <g transform="translate(20.878125 277.111219)scale(0.1 -0.1)">
       <use xlink:href="#DejaVuSans-30"/>
       <use x="63.623047" xlink:href="#DejaVuSans-2e"/>
       <use x="95.410156" xlink:href="#DejaVuSans-30"/>
       <use x="159.033203" xlink:href="#DejaVuSans-30"/>
      </g>
     </g>
    </g>
    <g id="ytick_2">
     <g id="line2d_8">
      <g>
       <use style="stroke:#000000;stroke-width:0.8;" x="50.14375" xlink:href="#m8438e384f3" y="242.611439"/>
      </g>
     </g>
     <g id="text_9">
      <!-- 0.25 -->
      <g transform="translate(20.878125 246.410658)scale(0.1 -0.1)">
       <defs>
        <path d="M 691 4666 
L 3169 4666 
L 3169 4134 
L 1269 4134 
L 1269 2991 
Q 1406 3038 1543 3061 
Q 1681 3084 1819 3084 
Q 2600 3084 3056 2656 
Q 3513 2228 3513 1497 
Q 3513 744 3044 326 
Q 2575 -91 1722 -91 
Q 1428 -91 1123 -41 
Q 819 9 494 109 
L 494 744 
Q 775 591 1075 516 
Q 1375 441 1709 441 
Q 2250 441 2565 725 
Q 2881 1009 2881 1497 
Q 2881 1984 2565 2268 
Q 2250 2553 1709 2553 
Q 1456 2553 1204 2497 
Q 953 2441 691 2322 
L 691 4666 
z
" id="DejaVuSans-35" transform="scale(0.015625)"/>
       </defs>
       <use xlink:href="#DejaVuSans-30"/>
       <use x="63.623047" xlink:href="#DejaVuSans-2e"/>
       <use x="95.410156" xlink:href="#DejaVuSans-32"/>
       <use x="159.033203" xlink:href="#DejaVuSans-35"/>
      </g>
     </g>
    </g>
    <g id="ytick_3">
     <g id="line2d_9">
      <g>
       <use style="stroke:#000000;stroke-width:0.8;" x="50.14375" xlink:href="#m8438e384f3" y="211.910878"/>
      </g>
     </g>
     <g id="text_10">
      <!-- 0.50 -->
      <g transform="translate(20.878125 215.710097)scale(0.1 -0.1)">
       <use xlink:href="#DejaVuSans-30"/>
       <use x="63.623047" xlink:href="#DejaVuSans-2e"/>
       <use x="95.410156" xlink:href="#DejaVuSans-35"/>
       <use x="159.033203" xlink:href="#DejaVuSans-30"/>
      </g>
     </g>
    </g>
    <g id="ytick_4">
     <g id="line2d_10">
      <g>
       <use style="stroke:#000000;stroke-width:0.8;" x="50.14375" xlink:href="#m8438e384f3" y="181.210317"/>
      </g>
     </g>
     <g id="text_11">
      <!-- 0.75 -->
      <g transform="translate(20.878125 185.009535)scale(0.1 -0.1)">
       <defs>
        <path d="M 525 4666 
L 3525 4666 
L 3525 4397 
L 1831 0 
L 1172 0 
L 2766 4134 
L 525 4134 
L 525 4666 
z
" id="DejaVuSans-37" transform="scale(0.015625)"/>
       </defs>
       <use xlink:href="#DejaVuSans-30"/>
       <use x="63.623047" xlink:href="#DejaVuSans-2e"/>
       <use x="95.410156" xlink:href="#DejaVuSans-37"/>
       <use x="159.033203" xlink:href="#DejaVuSans-35"/>
      </g>
     </g>
    </g>
    <g id="ytick_5">
     <g id="line2d_11">
      <g>
       <use style="stroke:#000000;stroke-width:0.8;" x="50.14375" xlink:href="#m8438e384f3" y="150.509756"/>
      </g>
     </g>
     <g id="text_12">
      <!-- 1.00 -->
      <g transform="translate(20.878125 154.308974)scale(0.1 -0.1)">
       <use xlink:href="#DejaVuSans-31"/>
       <use x="63.623047" xlink:href="#DejaVuSans-2e"/>
       <use x="95.410156" xlink:href="#DejaVuSans-30"/>
       <use x="159.033203" xlink:href="#DejaVuSans-30"/>
      </g>
     </g>
    </g>
    <g id="ytick_6">
     <g id="line2d_12">
      <g>
       <use style="stroke:#000000;stroke-width:0.8;" x="50.14375" xlink:href="#m8438e384f3" y="119.809194"/>
      </g>
     </g>
     <g id="text_13">
      <!-- 1.25 -->
      <g transform="translate(20.878125 123.608413)scale(0.1 -0.1)">
       <use xlink:href="#DejaVuSans-31"/>
       <use x="63.623047" xlink:href="#DejaVuSans-2e"/>
       <use x="95.410156" xlink:href="#DejaVuSans-32"/>
       <use x="159.033203" xlink:href="#DejaVuSans-35"/>
      </g>
     </g>
    </g>
    <g id="ytick_7">
     <g id="line2d_13">
      <g>
       <use style="stroke:#000000;stroke-width:0.8;" x="50.14375" xlink:href="#m8438e384f3" y="89.108633"/>
      </g>
     </g>
     <g id="text_14">
      <!-- 1.50 -->
      <g transform="translate(20.878125 92.907852)scale(0.1 -0.1)">
       <use xlink:href="#DejaVuSans-31"/>
       <use x="63.623047" xlink:href="#DejaVuSans-2e"/>
       <use x="95.410156" xlink:href="#DejaVuSans-35"/>
       <use x="159.033203" xlink:href="#DejaVuSans-30"/>
      </g>
     </g>
    </g>
    <g id="ytick_8">
     <g id="line2d_14">
      <g>
       <use style="stroke:#000000;stroke-width:0.8;" x="50.14375" xlink:href="#m8438e384f3" y="58.408072"/>
      </g>
     </g>
     <g id="text_15">
      <!-- 1.75 -->
      <g transform="translate(20.878125 62.207291)scale(0.1 -0.1)">
       <use xlink:href="#DejaVuSans-31"/>
       <use x="63.623047" xlink:href="#DejaVuSans-2e"/>
       <use x="95.410156" xlink:href="#DejaVuSans-37"/>
       <use x="159.033203" xlink:href="#DejaVuSans-35"/>
      </g>
     </g>
    </g>
    <g id="ytick_9">
     <g id="line2d_15">
      <g>
       <use style="stroke:#000000;stroke-width:0.8;" x="50.14375" xlink:href="#m8438e384f3" y="27.707511"/>
      </g>
     </g>
     <g id="text_16">
      <!-- 2.00 -->
      <g transform="translate(20.878125 31.50673)scale(0.1 -0.1)">
       <use xlink:href="#DejaVuSans-32"/>
       <use x="63.623047" xlink:href="#DejaVuSans-2e"/>
       <use x="95.410156" xlink:href="#DejaVuSans-30"/>
       <use x="159.033203" xlink:href="#DejaVuSans-30"/>
      </g>
     </g>
    </g>
    <g id="text_17">
     <!-- Probability density -->
     <g transform="translate(14.798438 186.606781)rotate(-90)scale(0.1 -0.1)">
      <defs>
       <path d="M 3116 1747 
Q 3116 2381 2855 2742 
Q 2594 3103 2138 3103 
Q 1681 3103 1420 2742 
Q 1159 2381 1159 1747 
Q 1159 1113 1420 752 
Q 1681 391 2138 391 
Q 2594 391 2855 752 
Q 3116 1113 3116 1747 
z
M 1159 2969 
Q 1341 3281 1617 3432 
Q 1894 3584 2278 3584 
Q 2916 3584 3314 3078 
Q 3713 2572 3713 1747 
Q 3713 922 3314 415 
Q 2916 -91 2278 -91 
Q 1894 -91 1617 61 
Q 1341 213 1159 525 
L 1159 0 
L 581 0 
L 581 4863 
L 1159 4863 
L 1159 2969 
z
" id="DejaVuSans-62" transform="scale(0.015625)"/>
       <path d="M 603 4863 
L 1178 4863 
L 1178 0 
L 603 0 
L 603 4863 
z
" id="DejaVuSans-6c" transform="scale(0.015625)"/>
       <path d="M 2059 -325 
Q 1816 -950 1584 -1140 
Q 1353 -1331 966 -1331 
L 506 -1331 
L 506 -850 
L 844 -850 
Q 1081 -850 1212 -737 
Q 1344 -625 1503 -206 
L 1606 56 
L 191 3500 
L 800 3500 
L 1894 763 
L 2988 3500 
L 3597 3500 
L 2059 -325 
z
" id="DejaVuSans-79" transform="scale(0.015625)"/>
       <path d="M 2834 3397 
L 2834 2853 
Q 2591 2978 2328 3040 
Q 2066 3103 1784 3103 
Q 1356 3103 1142 2972 
Q 928 2841 928 2578 
Q 928 2378 1081 2264 
Q 1234 2150 1697 2047 
L 1894 2003 
Q 2506 1872 2764 1633 
Q 3022 1394 3022 966 
Q 3022 478 2636 193 
Q 2250 -91 1575 -91 
Q 1294 -91 989 -36 
Q 684 19 347 128 
L 347 722 
Q 666 556 975 473 
Q 1284 391 1588 391 
Q 1994 391 2212 530 
Q 2431 669 2431 922 
Q 2431 1156 2273 1281 
Q 2116 1406 1581 1522 
L 1381 1569 
Q 847 1681 609 1914 
Q 372 2147 372 2553 
Q 372 3047 722 3315 
Q 1072 3584 1716 3584 
Q 2034 3584 2315 3537 
Q 2597 3491 2834 3397 
z
" id="DejaVuSans-73" transform="scale(0.015625)"/>
      </defs>
      <use xlink:href="#DejaVuSans-50"/>
      <use x="58.552734" xlink:href="#DejaVuSans-72"/>
      <use x="97.416016" xlink:href="#DejaVuSans-6f"/>
      <use x="158.597656" xlink:href="#DejaVuSans-62"/>
      <use x="222.074219" xlink:href="#DejaVuSans-61"/>
      <use x="283.353516" xlink:href="#DejaVuSans-62"/>
      <use x="346.830078" xlink:href="#DejaVuSans-69"/>
      <use x="374.613281" xlink:href="#DejaVuSans-6c"/>
      <use x="402.396484" xlink:href="#DejaVuSans-69"/>
      <use x="430.179688" xlink:href="#DejaVuSans-74"/>
      <use x="469.388672" xlink:href="#DejaVuSans-79"/>
      <use x="528.568359" xlink:href="#DejaVuSans-20"/>
      <use x="560.355469" xlink:href="#DejaVuSans-64"/>
      <use x="623.832031" xlink:href="#DejaVuSans-65"/>
      <use x="685.355469" xlink:href="#DejaVuSans-6e"/>
      <use x="748.734375" xlink:href="#DejaVuSans-73"/>
      <use x="800.833984" xlink:href="#DejaVuSans-69"/>
      <use x="828.617188" xlink:href="#DejaVuSans-74"/>
      <use x="867.826172" xlink:href="#DejaVuSans-79"/>
     </g>
    </g>
   </g>
   <g id="line2d_16">
    <path clip-path="url(#p0e1b5350c5)" d="M 66.376477 273.312 
L 391.031023 27.707511 
L 391.031023 27.707511 
" style="fill:none;stroke:#ff7f0e;stroke-linecap:square;stroke-width:1.5;"/>
   </g>
   <g id="patch_203">
    <path d="M 50.14375 273.312 
L 50.14375 7.2 
" style="fill:none;stroke:#000000;stroke-linecap:square;stroke-linejoin:miter;stroke-width:0.8;"/>
   </g>
   <g id="patch_204">
    <path d="M 407.26375 273.312 
L 407.26375 7.2 
" style="fill:none;stroke:#000000;stroke-linecap:square;stroke-linejoin:miter;stroke-width:0.8;"/>
   </g>
   <g id="patch_205">
    <path d="M 50.14375 273.312 
L 407.26375 273.312 
" style="fill:none;stroke:#000000;stroke-linecap:square;stroke-linejoin:miter;stroke-width:0.8;"/>
   </g>
   <g id="patch_206">
    <path d="M 50.14375 7.2 
L 407.26375 7.2 
" style="fill:none;stroke:#000000;stroke-linecap:square;stroke-linejoin:miter;stroke-width:0.8;"/>
   </g>
  </g>
 </g>
 <defs>
  <clipPath id="p0e1b5350c5">
   <rect height="266.112" width="357.12" x="50.14375" y="7.2"/>
  </clipPath>
 </defs>
</svg>
