<?xml version="1.0" encoding="utf-8" standalone="no"?>
<!DOCTYPE svg PUBLIC "-//W3C//DTD SVG 1.1//EN"
  "http://www.w3.org/Graphics/SVG/1.1/DTD/svg11.dtd">
<svg height="310.86825pt" version="1.1" viewBox="0 0 408.10125 310.86825" width="408.10125pt" xmlns="http://www.w3.org/2000/svg" xmlns:xlink="http://www.w3.org/1999/xlink">
 <metadata>
  <rdf:RDF xmlns:cc="http://creativecommons.org/ns#" xmlns:dc="http://purl.org/dc/elements/1.1/" xmlns:rdf="http://www.w3.org/1999/02/22-rdf-syntax-ns#">
   <cc:Work>
    <dc:type rdf:resource="http://purl.org/dc/dcmitype/StillImage"/>
    <dc:date>2021-07-08T08:17:31.350311</dc:date>
    <dc:format>image/svg+xml</dc:format>
    <dc:creator>
     <cc:Agent>
      <dc:title>Matplotlib v3.4.2, https://matplotlib.org/</dc:title>
     </cc:Agent>
    </dc:creator>
   </cc:Work>
  </rdf:RDF>
 </metadata>
 <defs>
  <style type="text/css">*{stroke-linecap:butt;stroke-linejoin:round;}</style>
 </defs>
 <g id="figure_1">
  <g id="patch_1">
   <path d="M 0 310.86825 
L 408.10125 310.86825 
L 408.10125 0 
L 0 0 
z
" style="fill:#ffffff;"/>
  </g>
  <g id="axes_1">
   <g id="patch_2">
    <path d="M 43.78125 273.312 
L 400.90125 273.312 
L 400.90125 7.2 
L 43.78125 7.2 
z
" style="fill:#ffffff;"/>
   </g>
   <g id="patch_3">
    <path clip-path="url(#p0261ff1d88)" d="M 60.062992 273.312 
L 61.684114 273.312 
L 61.684114 271.152 
L 60.062992 271.152 
z
" style="fill:#1f77b4;"/>
   </g>
   <g id="patch_4">
    <path clip-path="url(#p0261ff1d88)" d="M 61.684114 273.312 
L 63.305236 273.312 
L 63.305236 270.432 
L 61.684114 270.432 
z
" style="fill:#1f77b4;"/>
   </g>
   <g id="patch_5">
    <path clip-path="url(#p0261ff1d88)" d="M 63.305236 273.312 
L 64.926358 273.312 
L 64.926358 266.112 
L 63.305236 266.112 
z
" style="fill:#1f77b4;"/>
   </g>
   <g id="patch_6">
    <path clip-path="url(#p0261ff1d88)" d="M 64.926358 273.312 
L 66.54748 273.312 
L 66.54748 259.632 
L 64.926358 259.632 
z
" style="fill:#1f77b4;"/>
   </g>
   <g id="patch_7">
    <path clip-path="url(#p0261ff1d88)" d="M 66.54748 273.312 
L 68.168601 273.312 
L 68.168601 261.072 
L 66.54748 261.072 
z
" style="fill:#1f77b4;"/>
   </g>
   <g id="patch_8">
    <path clip-path="url(#p0261ff1d88)" d="M 68.168601 273.312 
L 69.789723 273.312 
L 69.789723 250.272 
L 68.168601 250.272 
z
" style="fill:#1f77b4;"/>
   </g>
   <g id="patch_9">
    <path clip-path="url(#p0261ff1d88)" d="M 69.789723 273.312 
L 71.410845 273.312 
L 71.410845 238.032 
L 69.789723 238.032 
z
" style="fill:#1f77b4;"/>
   </g>
   <g id="patch_10">
    <path clip-path="url(#p0261ff1d88)" d="M 71.410845 273.312 
L 73.031967 273.312 
L 73.031967 245.952 
L 71.410845 245.952 
z
" style="fill:#1f77b4;"/>
   </g>
   <g id="patch_11">
    <path clip-path="url(#p0261ff1d88)" d="M 73.031967 273.312 
L 74.653089 273.312 
L 74.653089 243.072 
L 73.031967 243.072 
z
" style="fill:#1f77b4;"/>
   </g>
   <g id="patch_12">
    <path clip-path="url(#p0261ff1d88)" d="M 74.653089 273.312 
L 76.274211 273.312 
L 76.274211 231.552 
L 74.653089 231.552 
z
" style="fill:#1f77b4;"/>
   </g>
   <g id="patch_13">
    <path clip-path="url(#p0261ff1d88)" d="M 76.274211 273.312 
L 77.895333 273.312 
L 77.895333 241.632 
L 76.274211 241.632 
z
" style="fill:#1f77b4;"/>
   </g>
   <g id="patch_14">
    <path clip-path="url(#p0261ff1d88)" d="M 77.895333 273.312 
L 79.516455 273.312 
L 79.516455 231.552 
L 77.895333 231.552 
z
" style="fill:#1f77b4;"/>
   </g>
   <g id="patch_15">
    <path clip-path="url(#p0261ff1d88)" d="M 79.516455 273.312 
L 81.137577 273.312 
L 81.137577 229.392 
L 79.516455 229.392 
z
" style="fill:#1f77b4;"/>
   </g>
   <g id="patch_16">
    <path clip-path="url(#p0261ff1d88)" d="M 81.137577 273.312 
L 82.758699 273.312 
L 82.758699 225.792 
L 81.137577 225.792 
z
" style="fill:#1f77b4;"/>
   </g>
   <g id="patch_17">
    <path clip-path="url(#p0261ff1d88)" d="M 82.758699 273.312 
L 84.379821 273.312 
L 84.379821 227.952 
L 82.758699 227.952 
z
" style="fill:#1f77b4;"/>
   </g>
   <g id="patch_18">
    <path clip-path="url(#p0261ff1d88)" d="M 84.379821 273.312 
L 86.000943 273.312 
L 86.000943 217.152 
L 84.379821 217.152 
z
" style="fill:#1f77b4;"/>
   </g>
   <g id="patch_19">
    <path clip-path="url(#p0261ff1d88)" d="M 86.000943 273.312 
L 87.622065 273.312 
L 87.622065 213.552 
L 86.000943 213.552 
z
" style="fill:#1f77b4;"/>
   </g>
   <g id="patch_20">
    <path clip-path="url(#p0261ff1d88)" d="M 87.622065 273.312 
L 89.243187 273.312 
L 89.243187 219.312 
L 87.622065 219.312 
z
" style="fill:#1f77b4;"/>
   </g>
   <g id="patch_21">
    <path clip-path="url(#p0261ff1d88)" d="M 89.243187 273.312 
L 90.864309 273.312 
L 90.864309 212.832 
L 89.243187 212.832 
z
" style="fill:#1f77b4;"/>
   </g>
   <g id="patch_22">
    <path clip-path="url(#p0261ff1d88)" d="M 90.864309 273.312 
L 92.485431 273.312 
L 92.485431 201.312 
L 90.864309 201.312 
z
" style="fill:#1f77b4;"/>
   </g>
   <g id="patch_23">
    <path clip-path="url(#p0261ff1d88)" d="M 92.485431 273.312 
L 94.106553 273.312 
L 94.106553 207.792 
L 92.485431 207.792 
z
" style="fill:#1f77b4;"/>
   </g>
   <g id="patch_24">
    <path clip-path="url(#p0261ff1d88)" d="M 94.106553 273.312 
L 95.727675 273.312 
L 95.727675 209.232 
L 94.106553 209.232 
z
" style="fill:#1f77b4;"/>
   </g>
   <g id="patch_25">
    <path clip-path="url(#p0261ff1d88)" d="M 95.727675 273.312 
L 97.348796 273.312 
L 97.348796 179.712 
L 95.727675 179.712 
z
" style="fill:#1f77b4;"/>
   </g>
   <g id="patch_26">
    <path clip-path="url(#p0261ff1d88)" d="M 97.348796 273.312 
L 98.969918 273.312 
L 98.969918 185.472 
L 97.348796 185.472 
z
" style="fill:#1f77b4;"/>
   </g>
   <g id="patch_27">
    <path clip-path="url(#p0261ff1d88)" d="M 98.969918 273.312 
L 100.59104 273.312 
L 100.59104 198.432 
L 98.969918 198.432 
z
" style="fill:#1f77b4;"/>
   </g>
   <g id="patch_28">
    <path clip-path="url(#p0261ff1d88)" d="M 100.59104 273.312 
L 102.212162 273.312 
L 102.212162 192.672 
L 100.59104 192.672 
z
" style="fill:#1f77b4;"/>
   </g>
   <g id="patch_29">
    <path clip-path="url(#p0261ff1d88)" d="M 102.212162 273.312 
L 103.833284 273.312 
L 103.833284 186.192 
L 102.212162 186.192 
z
" style="fill:#1f77b4;"/>
   </g>
   <g id="patch_30">
    <path clip-path="url(#p0261ff1d88)" d="M 103.833284 273.312 
L 105.454406 273.312 
L 105.454406 184.752 
L 103.833284 184.752 
z
" style="fill:#1f77b4;"/>
   </g>
   <g id="patch_31">
    <path clip-path="url(#p0261ff1d88)" d="M 105.454406 273.312 
L 107.075528 273.312 
L 107.075528 177.552 
L 105.454406 177.552 
z
" style="fill:#1f77b4;"/>
   </g>
   <g id="patch_32">
    <path clip-path="url(#p0261ff1d88)" d="M 107.075528 273.312 
L 108.69665 273.312 
L 108.69665 176.112 
L 107.075528 176.112 
z
" style="fill:#1f77b4;"/>
   </g>
   <g id="patch_33">
    <path clip-path="url(#p0261ff1d88)" d="M 108.69665 273.312 
L 110.317772 273.312 
L 110.317772 168.192 
L 108.69665 168.192 
z
" style="fill:#1f77b4;"/>
   </g>
   <g id="patch_34">
    <path clip-path="url(#p0261ff1d88)" d="M 110.317772 273.312 
L 111.938894 273.312 
L 111.938894 154.512 
L 110.317772 154.512 
z
" style="fill:#1f77b4;"/>
   </g>
   <g id="patch_35">
    <path clip-path="url(#p0261ff1d88)" d="M 111.938894 273.312 
L 113.560016 273.312 
L 113.560016 166.752 
L 111.938894 166.752 
z
" style="fill:#1f77b4;"/>
   </g>
   <g id="patch_36">
    <path clip-path="url(#p0261ff1d88)" d="M 113.560016 273.312 
L 115.181138 273.312 
L 115.181138 148.032 
L 113.560016 148.032 
z
" style="fill:#1f77b4;"/>
   </g>
   <g id="patch_37">
    <path clip-path="url(#p0261ff1d88)" d="M 115.181138 273.312 
L 116.80226 273.312 
L 116.80226 148.752 
L 115.181138 148.752 
z
" style="fill:#1f77b4;"/>
   </g>
   <g id="patch_38">
    <path clip-path="url(#p0261ff1d88)" d="M 116.80226 273.312 
L 118.423382 273.312 
L 118.423382 156.672 
L 116.80226 156.672 
z
" style="fill:#1f77b4;"/>
   </g>
   <g id="patch_39">
    <path clip-path="url(#p0261ff1d88)" d="M 118.423382 273.312 
L 120.044504 273.312 
L 120.044504 160.992 
L 118.423382 160.992 
z
" style="fill:#1f77b4;"/>
   </g>
   <g id="patch_40">
    <path clip-path="url(#p0261ff1d88)" d="M 120.044504 273.312 
L 121.665626 273.312 
L 121.665626 163.872 
L 120.044504 163.872 
z
" style="fill:#1f77b4;"/>
   </g>
   <g id="patch_41">
    <path clip-path="url(#p0261ff1d88)" d="M 121.665626 273.312 
L 123.286748 273.312 
L 123.286748 153.072 
L 121.665626 153.072 
z
" style="fill:#1f77b4;"/>
   </g>
   <g id="patch_42">
    <path clip-path="url(#p0261ff1d88)" d="M 123.286748 273.312 
L 124.90787 273.312 
L 124.90787 137.232 
L 123.286748 137.232 
z
" style="fill:#1f77b4;"/>
   </g>
   <g id="patch_43">
    <path clip-path="url(#p0261ff1d88)" d="M 124.90787 273.312 
L 126.528991 273.312 
L 126.528991 135.792 
L 124.90787 135.792 
z
" style="fill:#1f77b4;"/>
   </g>
   <g id="patch_44">
    <path clip-path="url(#p0261ff1d88)" d="M 126.528991 273.312 
L 128.150113 273.312 
L 128.150113 134.352 
L 126.528991 134.352 
z
" style="fill:#1f77b4;"/>
   </g>
   <g id="patch_45">
    <path clip-path="url(#p0261ff1d88)" d="M 128.150113 273.312 
L 129.771235 273.312 
L 129.771235 158.832 
L 128.150113 158.832 
z
" style="fill:#1f77b4;"/>
   </g>
   <g id="patch_46">
    <path clip-path="url(#p0261ff1d88)" d="M 129.771235 273.312 
L 131.392357 273.312 
L 131.392357 135.072 
L 129.771235 135.072 
z
" style="fill:#1f77b4;"/>
   </g>
   <g id="patch_47">
    <path clip-path="url(#p0261ff1d88)" d="M 131.392357 273.312 
L 133.013479 273.312 
L 133.013479 109.152 
L 131.392357 109.152 
z
" style="fill:#1f77b4;"/>
   </g>
   <g id="patch_48">
    <path clip-path="url(#p0261ff1d88)" d="M 133.013479 273.312 
L 134.634601 273.312 
L 134.634601 127.872 
L 133.013479 127.872 
z
" style="fill:#1f77b4;"/>
   </g>
   <g id="patch_49">
    <path clip-path="url(#p0261ff1d88)" d="M 134.634601 273.312 
L 136.255723 273.312 
L 136.255723 131.472 
L 134.634601 131.472 
z
" style="fill:#1f77b4;"/>
   </g>
   <g id="patch_50">
    <path clip-path="url(#p0261ff1d88)" d="M 136.255723 273.312 
L 137.876845 273.312 
L 137.876845 131.472 
L 136.255723 131.472 
z
" style="fill:#1f77b4;"/>
   </g>
   <g id="patch_51">
    <path clip-path="url(#p0261ff1d88)" d="M 137.876845 273.312 
L 139.497967 273.312 
L 139.497967 126.432 
L 137.876845 126.432 
z
" style="fill:#1f77b4;"/>
   </g>
   <g id="patch_52">
    <path clip-path="url(#p0261ff1d88)" d="M 139.497967 273.312 
L 141.119089 273.312 
L 141.119089 118.512 
L 139.497967 118.512 
z
" style="fill:#1f77b4;"/>
   </g>
   <g id="patch_53">
    <path clip-path="url(#p0261ff1d88)" d="M 141.119089 273.312 
L 142.740211 273.312 
L 142.740211 116.352 
L 141.119089 116.352 
z
" style="fill:#1f77b4;"/>
   </g>
   <g id="patch_54">
    <path clip-path="url(#p0261ff1d88)" d="M 142.740211 273.312 
L 144.361333 273.312 
L 144.361333 103.392 
L 142.740211 103.392 
z
" style="fill:#1f77b4;"/>
   </g>
   <g id="patch_55">
    <path clip-path="url(#p0261ff1d88)" d="M 144.361333 273.312 
L 145.982455 273.312 
L 145.982455 116.352 
L 144.361333 116.352 
z
" style="fill:#1f77b4;"/>
   </g>
   <g id="patch_56">
    <path clip-path="url(#p0261ff1d88)" d="M 145.982455 273.312 
L 147.603577 273.312 
L 147.603577 124.272 
L 145.982455 124.272 
z
" style="fill:#1f77b4;"/>
   </g>
   <g id="patch_57">
    <path clip-path="url(#p0261ff1d88)" d="M 147.603577 273.312 
L 149.224699 273.312 
L 149.224699 101.232 
L 147.603577 101.232 
z
" style="fill:#1f77b4;"/>
   </g>
   <g id="patch_58">
    <path clip-path="url(#p0261ff1d88)" d="M 149.224699 273.312 
L 150.845821 273.312 
L 150.845821 94.032 
L 149.224699 94.032 
z
" style="fill:#1f77b4;"/>
   </g>
   <g id="patch_59">
    <path clip-path="url(#p0261ff1d88)" d="M 150.845821 273.312 
L 152.466943 273.312 
L 152.466943 89.712 
L 150.845821 89.712 
z
" style="fill:#1f77b4;"/>
   </g>
   <g id="patch_60">
    <path clip-path="url(#p0261ff1d88)" d="M 152.466943 273.312 
L 154.088065 273.312 
L 154.088065 97.632 
L 152.466943 97.632 
z
" style="fill:#1f77b4;"/>
   </g>
   <g id="patch_61">
    <path clip-path="url(#p0261ff1d88)" d="M 154.088065 273.312 
L 155.709186 273.312 
L 155.709186 88.992 
L 154.088065 88.992 
z
" style="fill:#1f77b4;"/>
   </g>
   <g id="patch_62">
    <path clip-path="url(#p0261ff1d88)" d="M 155.709186 273.312 
L 157.330308 273.312 
L 157.330308 81.072 
L 155.709186 81.072 
z
" style="fill:#1f77b4;"/>
   </g>
   <g id="patch_63">
    <path clip-path="url(#p0261ff1d88)" d="M 157.330308 273.312 
L 158.95143 273.312 
L 158.95143 96.192 
L 157.330308 96.192 
z
" style="fill:#1f77b4;"/>
   </g>
   <g id="patch_64">
    <path clip-path="url(#p0261ff1d88)" d="M 158.95143 273.312 
L 160.572552 273.312 
L 160.572552 78.192 
L 158.95143 78.192 
z
" style="fill:#1f77b4;"/>
   </g>
   <g id="patch_65">
    <path clip-path="url(#p0261ff1d88)" d="M 160.572552 273.312 
L 162.193674 273.312 
L 162.193674 100.512 
L 160.572552 100.512 
z
" style="fill:#1f77b4;"/>
   </g>
   <g id="patch_66">
    <path clip-path="url(#p0261ff1d88)" d="M 162.193674 273.312 
L 163.814796 273.312 
L 163.814796 97.632 
L 162.193674 97.632 
z
" style="fill:#1f77b4;"/>
   </g>
   <g id="patch_67">
    <path clip-path="url(#p0261ff1d88)" d="M 163.814796 273.312 
L 165.435918 273.312 
L 165.435918 86.832 
L 163.814796 86.832 
z
" style="fill:#1f77b4;"/>
   </g>
   <g id="patch_68">
    <path clip-path="url(#p0261ff1d88)" d="M 165.435918 273.312 
L 167.05704 273.312 
L 167.05704 91.872 
L 165.435918 91.872 
z
" style="fill:#1f77b4;"/>
   </g>
   <g id="patch_69">
    <path clip-path="url(#p0261ff1d88)" d="M 167.05704 273.312 
L 168.678162 273.312 
L 168.678162 75.312 
L 167.05704 75.312 
z
" style="fill:#1f77b4;"/>
   </g>
   <g id="patch_70">
    <path clip-path="url(#p0261ff1d88)" d="M 168.678162 273.312 
L 170.299284 273.312 
L 170.299284 88.272 
L 168.678162 88.272 
z
" style="fill:#1f77b4;"/>
   </g>
   <g id="patch_71">
    <path clip-path="url(#p0261ff1d88)" d="M 170.299284 273.312 
L 171.920406 273.312 
L 171.920406 92.592 
L 170.299284 92.592 
z
" style="fill:#1f77b4;"/>
   </g>
   <g id="patch_72">
    <path clip-path="url(#p0261ff1d88)" d="M 171.920406 273.312 
L 173.541528 273.312 
L 173.541528 86.832 
L 171.920406 86.832 
z
" style="fill:#1f77b4;"/>
   </g>
   <g id="patch_73">
    <path clip-path="url(#p0261ff1d88)" d="M 173.541528 273.312 
L 175.16265 273.312 
L 175.16265 63.792 
L 173.541528 63.792 
z
" style="fill:#1f77b4;"/>
   </g>
   <g id="patch_74">
    <path clip-path="url(#p0261ff1d88)" d="M 175.16265 273.312 
L 176.783772 273.312 
L 176.783772 55.152 
L 175.16265 55.152 
z
" style="fill:#1f77b4;"/>
   </g>
   <g id="patch_75">
    <path clip-path="url(#p0261ff1d88)" d="M 176.783772 273.312 
L 178.404894 273.312 
L 178.404894 47.232 
L 176.783772 47.232 
z
" style="fill:#1f77b4;"/>
   </g>
   <g id="patch_76">
    <path clip-path="url(#p0261ff1d88)" d="M 178.404894 273.312 
L 180.026016 273.312 
L 180.026016 80.352 
L 178.404894 80.352 
z
" style="fill:#1f77b4;"/>
   </g>
   <g id="patch_77">
    <path clip-path="url(#p0261ff1d88)" d="M 180.026016 273.312 
L 181.647138 273.312 
L 181.647138 68.112 
L 180.026016 68.112 
z
" style="fill:#1f77b4;"/>
   </g>
   <g id="patch_78">
    <path clip-path="url(#p0261ff1d88)" d="M 181.647138 273.312 
L 183.26826 273.312 
L 183.26826 81.792 
L 181.647138 81.792 
z
" style="fill:#1f77b4;"/>
   </g>
   <g id="patch_79">
    <path clip-path="url(#p0261ff1d88)" d="M 183.26826 273.312 
L 184.889381 273.312 
L 184.889381 78.192 
L 183.26826 78.192 
z
" style="fill:#1f77b4;"/>
   </g>
   <g id="patch_80">
    <path clip-path="url(#p0261ff1d88)" d="M 184.889381 273.312 
L 186.510503 273.312 
L 186.510503 60.192 
L 184.889381 60.192 
z
" style="fill:#1f77b4;"/>
   </g>
   <g id="patch_81">
    <path clip-path="url(#p0261ff1d88)" d="M 186.510503 273.312 
L 188.131625 273.312 
L 188.131625 44.352 
L 186.510503 44.352 
z
" style="fill:#1f77b4;"/>
   </g>
   <g id="patch_82">
    <path clip-path="url(#p0261ff1d88)" d="M 188.131625 273.312 
L 189.752747 273.312 
L 189.752747 60.912 
L 188.131625 60.912 
z
" style="fill:#1f77b4;"/>
   </g>
   <g id="patch_83">
    <path clip-path="url(#p0261ff1d88)" d="M 189.752747 273.312 
L 191.373869 273.312 
L 191.373869 59.472 
L 189.752747 59.472 
z
" style="fill:#1f77b4;"/>
   </g>
   <g id="patch_84">
    <path clip-path="url(#p0261ff1d88)" d="M 191.373869 273.312 
L 192.994991 273.312 
L 192.994991 50.832 
L 191.373869 50.832 
z
" style="fill:#1f77b4;"/>
   </g>
   <g id="patch_85">
    <path clip-path="url(#p0261ff1d88)" d="M 192.994991 273.312 
L 194.616113 273.312 
L 194.616113 33.552 
L 192.994991 33.552 
z
" style="fill:#1f77b4;"/>
   </g>
   <g id="patch_86">
    <path clip-path="url(#p0261ff1d88)" d="M 194.616113 273.312 
L 196.237235 273.312 
L 196.237235 50.112 
L 194.616113 50.112 
z
" style="fill:#1f77b4;"/>
   </g>
   <g id="patch_87">
    <path clip-path="url(#p0261ff1d88)" d="M 196.237235 273.312 
L 197.858357 273.312 
L 197.858357 33.552 
L 196.237235 33.552 
z
" style="fill:#1f77b4;"/>
   </g>
   <g id="patch_88">
    <path clip-path="url(#p0261ff1d88)" d="M 197.858357 273.312 
L 199.479479 273.312 
L 199.479479 58.032 
L 197.858357 58.032 
z
" style="fill:#1f77b4;"/>
   </g>
   <g id="patch_89">
    <path clip-path="url(#p0261ff1d88)" d="M 199.479479 273.312 
L 201.100601 273.312 
L 201.100601 55.152 
L 199.479479 55.152 
z
" style="fill:#1f77b4;"/>
   </g>
   <g id="patch_90">
    <path clip-path="url(#p0261ff1d88)" d="M 201.100601 273.312 
L 202.721723 273.312 
L 202.721723 27.072 
L 201.100601 27.072 
z
" style="fill:#1f77b4;"/>
   </g>
   <g id="patch_91">
    <path clip-path="url(#p0261ff1d88)" d="M 202.721723 273.312 
L 204.342845 273.312 
L 204.342845 29.952 
L 202.721723 29.952 
z
" style="fill:#1f77b4;"/>
   </g>
   <g id="patch_92">
    <path clip-path="url(#p0261ff1d88)" d="M 204.342845 273.312 
L 205.963967 273.312 
L 205.963967 58.032 
L 204.342845 58.032 
z
" style="fill:#1f77b4;"/>
   </g>
   <g id="patch_93">
    <path clip-path="url(#p0261ff1d88)" d="M 205.963967 273.312 
L 207.585089 273.312 
L 207.585089 59.472 
L 205.963967 59.472 
z
" style="fill:#1f77b4;"/>
   </g>
   <g id="patch_94">
    <path clip-path="url(#p0261ff1d88)" d="M 207.585089 273.312 
L 209.206211 273.312 
L 209.206211 45.792 
L 207.585089 45.792 
z
" style="fill:#1f77b4;"/>
   </g>
   <g id="patch_95">
    <path clip-path="url(#p0261ff1d88)" d="M 209.206211 273.312 
L 210.827333 273.312 
L 210.827333 74.592 
L 209.206211 74.592 
z
" style="fill:#1f77b4;"/>
   </g>
   <g id="patch_96">
    <path clip-path="url(#p0261ff1d88)" d="M 210.827333 273.312 
L 212.448455 273.312 
L 212.448455 52.272 
L 210.827333 52.272 
z
" style="fill:#1f77b4;"/>
   </g>
   <g id="patch_97">
    <path clip-path="url(#p0261ff1d88)" d="M 212.448455 273.312 
L 214.069576 273.312 
L 214.069576 39.312 
L 212.448455 39.312 
z
" style="fill:#1f77b4;"/>
   </g>
   <g id="patch_98">
    <path clip-path="url(#p0261ff1d88)" d="M 214.069576 273.312 
L 215.690698 273.312 
L 215.690698 50.112 
L 214.069576 50.112 
z
" style="fill:#1f77b4;"/>
   </g>
   <g id="patch_99">
    <path clip-path="url(#p0261ff1d88)" d="M 215.690698 273.312 
L 217.31182 273.312 
L 217.31182 19.872 
L 215.690698 19.872 
z
" style="fill:#1f77b4;"/>
   </g>
   <g id="patch_100">
    <path clip-path="url(#p0261ff1d88)" d="M 217.31182 273.312 
L 218.932942 273.312 
L 218.932942 32.832 
L 217.31182 32.832 
z
" style="fill:#1f77b4;"/>
   </g>
   <g id="patch_101">
    <path clip-path="url(#p0261ff1d88)" d="M 218.932942 273.312 
L 220.554064 273.312 
L 220.554064 36.432 
L 218.932942 36.432 
z
" style="fill:#1f77b4;"/>
   </g>
   <g id="patch_102">
    <path clip-path="url(#p0261ff1d88)" d="M 220.554064 273.312 
L 222.175186 273.312 
L 222.175186 34.992 
L 220.554064 34.992 
z
" style="fill:#1f77b4;"/>
   </g>
   <g id="patch_103">
    <path clip-path="url(#p0261ff1d88)" d="M 222.175186 273.312 
L 223.796308 273.312 
L 223.796308 68.112 
L 222.175186 68.112 
z
" style="fill:#1f77b4;"/>
   </g>
   <g id="patch_104">
    <path clip-path="url(#p0261ff1d88)" d="M 223.796308 273.312 
L 225.41743 273.312 
L 225.41743 44.352 
L 223.796308 44.352 
z
" style="fill:#1f77b4;"/>
   </g>
   <g id="patch_105">
    <path clip-path="url(#p0261ff1d88)" d="M 225.41743 273.312 
L 227.038552 273.312 
L 227.038552 46.512 
L 225.41743 46.512 
z
" style="fill:#1f77b4;"/>
   </g>
   <g id="patch_106">
    <path clip-path="url(#p0261ff1d88)" d="M 227.038552 273.312 
L 228.659674 273.312 
L 228.659674 35.712 
L 227.038552 35.712 
z
" style="fill:#1f77b4;"/>
   </g>
   <g id="patch_107">
    <path clip-path="url(#p0261ff1d88)" d="M 228.659674 273.312 
L 230.280796 273.312 
L 230.280796 42.912 
L 228.659674 42.912 
z
" style="fill:#1f77b4;"/>
   </g>
   <g id="patch_108">
    <path clip-path="url(#p0261ff1d88)" d="M 230.280796 273.312 
L 231.901918 273.312 
L 231.901918 40.752 
L 230.280796 40.752 
z
" style="fill:#1f77b4;"/>
   </g>
   <g id="patch_109">
    <path clip-path="url(#p0261ff1d88)" d="M 231.901918 273.312 
L 233.52304 273.312 
L 233.52304 31.392 
L 231.901918 31.392 
z
" style="fill:#1f77b4;"/>
   </g>
   <g id="patch_110">
    <path clip-path="url(#p0261ff1d88)" d="M 233.52304 273.312 
L 235.144162 273.312 
L 235.144162 34.992 
L 233.52304 34.992 
z
" style="fill:#1f77b4;"/>
   </g>
   <g id="patch_111">
    <path clip-path="url(#p0261ff1d88)" d="M 235.144162 273.312 
L 236.765284 273.312 
L 236.765284 57.312 
L 235.144162 57.312 
z
" style="fill:#1f77b4;"/>
   </g>
   <g id="patch_112">
    <path clip-path="url(#p0261ff1d88)" d="M 236.765284 273.312 
L 238.386406 273.312 
L 238.386406 56.592 
L 236.765284 56.592 
z
" style="fill:#1f77b4;"/>
   </g>
   <g id="patch_113">
    <path clip-path="url(#p0261ff1d88)" d="M 238.386406 273.312 
L 240.007528 273.312 
L 240.007528 44.352 
L 238.386406 44.352 
z
" style="fill:#1f77b4;"/>
   </g>
   <g id="patch_114">
    <path clip-path="url(#p0261ff1d88)" d="M 240.007528 273.312 
L 241.62865 273.312 
L 241.62865 58.032 
L 240.007528 58.032 
z
" style="fill:#1f77b4;"/>
   </g>
   <g id="patch_115">
    <path clip-path="url(#p0261ff1d88)" d="M 241.62865 273.312 
L 243.249771 273.312 
L 243.249771 50.832 
L 241.62865 50.832 
z
" style="fill:#1f77b4;"/>
   </g>
   <g id="patch_116">
    <path clip-path="url(#p0261ff1d88)" d="M 243.249771 273.312 
L 244.870893 273.312 
L 244.870893 69.552 
L 243.249771 69.552 
z
" style="fill:#1f77b4;"/>
   </g>
   <g id="patch_117">
    <path clip-path="url(#p0261ff1d88)" d="M 244.870893 273.312 
L 246.492015 273.312 
L 246.492015 52.992 
L 244.870893 52.992 
z
" style="fill:#1f77b4;"/>
   </g>
   <g id="patch_118">
    <path clip-path="url(#p0261ff1d88)" d="M 246.492015 273.312 
L 248.113137 273.312 
L 248.113137 48.672 
L 246.492015 48.672 
z
" style="fill:#1f77b4;"/>
   </g>
   <g id="patch_119">
    <path clip-path="url(#p0261ff1d88)" d="M 248.113137 273.312 
L 249.734259 273.312 
L 249.734259 64.512 
L 248.113137 64.512 
z
" style="fill:#1f77b4;"/>
   </g>
   <g id="patch_120">
    <path clip-path="url(#p0261ff1d88)" d="M 249.734259 273.312 
L 251.355381 273.312 
L 251.355381 63.072 
L 249.734259 63.072 
z
" style="fill:#1f77b4;"/>
   </g>
   <g id="patch_121">
    <path clip-path="url(#p0261ff1d88)" d="M 251.355381 273.312 
L 252.976503 273.312 
L 252.976503 61.632 
L 251.355381 61.632 
z
" style="fill:#1f77b4;"/>
   </g>
   <g id="patch_122">
    <path clip-path="url(#p0261ff1d88)" d="M 252.976503 273.312 
L 254.597625 273.312 
L 254.597625 63.072 
L 252.976503 63.072 
z
" style="fill:#1f77b4;"/>
   </g>
   <g id="patch_123">
    <path clip-path="url(#p0261ff1d88)" d="M 254.597625 273.312 
L 256.218747 273.312 
L 256.218747 46.512 
L 254.597625 46.512 
z
" style="fill:#1f77b4;"/>
   </g>
   <g id="patch_124">
    <path clip-path="url(#p0261ff1d88)" d="M 256.218747 273.312 
L 257.839869 273.312 
L 257.839869 37.872 
L 256.218747 37.872 
z
" style="fill:#1f77b4;"/>
   </g>
   <g id="patch_125">
    <path clip-path="url(#p0261ff1d88)" d="M 257.839869 273.312 
L 259.460991 273.312 
L 259.460991 35.712 
L 257.839869 35.712 
z
" style="fill:#1f77b4;"/>
   </g>
   <g id="patch_126">
    <path clip-path="url(#p0261ff1d88)" d="M 259.460991 273.312 
L 261.082113 273.312 
L 261.082113 53.712 
L 259.460991 53.712 
z
" style="fill:#1f77b4;"/>
   </g>
   <g id="patch_127">
    <path clip-path="url(#p0261ff1d88)" d="M 261.082113 273.312 
L 262.703235 273.312 
L 262.703235 68.112 
L 261.082113 68.112 
z
" style="fill:#1f77b4;"/>
   </g>
   <g id="patch_128">
    <path clip-path="url(#p0261ff1d88)" d="M 262.703235 273.312 
L 264.324357 273.312 
L 264.324357 76.032 
L 262.703235 76.032 
z
" style="fill:#1f77b4;"/>
   </g>
   <g id="patch_129">
    <path clip-path="url(#p0261ff1d88)" d="M 264.324357 273.312 
L 265.945479 273.312 
L 265.945479 88.272 
L 264.324357 88.272 
z
" style="fill:#1f77b4;"/>
   </g>
   <g id="patch_130">
    <path clip-path="url(#p0261ff1d88)" d="M 265.945479 273.312 
L 267.566601 273.312 
L 267.566601 78.912 
L 265.945479 78.912 
z
" style="fill:#1f77b4;"/>
   </g>
   <g id="patch_131">
    <path clip-path="url(#p0261ff1d88)" d="M 267.566601 273.312 
L 269.187723 273.312 
L 269.187723 58.032 
L 267.566601 58.032 
z
" style="fill:#1f77b4;"/>
   </g>
   <g id="patch_132">
    <path clip-path="url(#p0261ff1d88)" d="M 269.187723 273.312 
L 270.808845 273.312 
L 270.808845 78.192 
L 269.187723 78.192 
z
" style="fill:#1f77b4;"/>
   </g>
   <g id="patch_133">
    <path clip-path="url(#p0261ff1d88)" d="M 270.808845 273.312 
L 272.429966 273.312 
L 272.429966 65.952 
L 270.808845 65.952 
z
" style="fill:#1f77b4;"/>
   </g>
   <g id="patch_134">
    <path clip-path="url(#p0261ff1d88)" d="M 272.429966 273.312 
L 274.051088 273.312 
L 274.051088 76.032 
L 272.429966 76.032 
z
" style="fill:#1f77b4;"/>
   </g>
   <g id="patch_135">
    <path clip-path="url(#p0261ff1d88)" d="M 274.051088 273.312 
L 275.67221 273.312 
L 275.67221 99.072 
L 274.051088 99.072 
z
" style="fill:#1f77b4;"/>
   </g>
   <g id="patch_136">
    <path clip-path="url(#p0261ff1d88)" d="M 275.67221 273.312 
L 277.293332 273.312 
L 277.293332 42.192 
L 275.67221 42.192 
z
" style="fill:#1f77b4;"/>
   </g>
   <g id="patch_137">
    <path clip-path="url(#p0261ff1d88)" d="M 277.293332 273.312 
L 278.914454 273.312 
L 278.914454 70.272 
L 277.293332 70.272 
z
" style="fill:#1f77b4;"/>
   </g>
   <g id="patch_138">
    <path clip-path="url(#p0261ff1d88)" d="M 278.914454 273.312 
L 280.535576 273.312 
L 280.535576 95.472 
L 278.914454 95.472 
z
" style="fill:#1f77b4;"/>
   </g>
   <g id="patch_139">
    <path clip-path="url(#p0261ff1d88)" d="M 280.535576 273.312 
L 282.156698 273.312 
L 282.156698 70.272 
L 280.535576 70.272 
z
" style="fill:#1f77b4;"/>
   </g>
   <g id="patch_140">
    <path clip-path="url(#p0261ff1d88)" d="M 282.156698 273.312 
L 283.77782 273.312 
L 283.77782 83.232 
L 282.156698 83.232 
z
" style="fill:#1f77b4;"/>
   </g>
   <g id="patch_141">
    <path clip-path="url(#p0261ff1d88)" d="M 283.77782 273.312 
L 285.398942 273.312 
L 285.398942 78.912 
L 283.77782 78.912 
z
" style="fill:#1f77b4;"/>
   </g>
   <g id="patch_142">
    <path clip-path="url(#p0261ff1d88)" d="M 285.398942 273.312 
L 287.020064 273.312 
L 287.020064 98.352 
L 285.398942 98.352 
z
" style="fill:#1f77b4;"/>
   </g>
   <g id="patch_143">
    <path clip-path="url(#p0261ff1d88)" d="M 287.020064 273.312 
L 288.641186 273.312 
L 288.641186 101.952 
L 287.020064 101.952 
z
" style="fill:#1f77b4;"/>
   </g>
   <g id="patch_144">
    <path clip-path="url(#p0261ff1d88)" d="M 288.641186 273.312 
L 290.262308 273.312 
L 290.262308 83.232 
L 288.641186 83.232 
z
" style="fill:#1f77b4;"/>
   </g>
   <g id="patch_145">
    <path clip-path="url(#p0261ff1d88)" d="M 290.262308 273.312 
L 291.88343 273.312 
L 291.88343 105.552 
L 290.262308 105.552 
z
" style="fill:#1f77b4;"/>
   </g>
   <g id="patch_146">
    <path clip-path="url(#p0261ff1d88)" d="M 291.88343 273.312 
L 293.504552 273.312 
L 293.504552 106.992 
L 291.88343 106.992 
z
" style="fill:#1f77b4;"/>
   </g>
   <g id="patch_147">
    <path clip-path="url(#p0261ff1d88)" d="M 293.504552 273.312 
L 295.125674 273.312 
L 295.125674 122.832 
L 293.504552 122.832 
z
" style="fill:#1f77b4;"/>
   </g>
   <g id="patch_148">
    <path clip-path="url(#p0261ff1d88)" d="M 295.125674 273.312 
L 296.746796 273.312 
L 296.746796 100.512 
L 295.125674 100.512 
z
" style="fill:#1f77b4;"/>
   </g>
   <g id="patch_149">
    <path clip-path="url(#p0261ff1d88)" d="M 296.746796 273.312 
L 298.367918 273.312 
L 298.367918 103.392 
L 296.746796 103.392 
z
" style="fill:#1f77b4;"/>
   </g>
   <g id="patch_150">
    <path clip-path="url(#p0261ff1d88)" d="M 298.367918 273.312 
L 299.98904 273.312 
L 299.98904 99.072 
L 298.367918 99.072 
z
" style="fill:#1f77b4;"/>
   </g>
   <g id="patch_151">
    <path clip-path="url(#p0261ff1d88)" d="M 299.98904 273.312 
L 301.610161 273.312 
L 301.610161 125.712 
L 299.98904 125.712 
z
" style="fill:#1f77b4;"/>
   </g>
   <g id="patch_152">
    <path clip-path="url(#p0261ff1d88)" d="M 301.610161 273.312 
L 303.231283 273.312 
L 303.231283 112.032 
L 301.610161 112.032 
z
" style="fill:#1f77b4;"/>
   </g>
   <g id="patch_153">
    <path clip-path="url(#p0261ff1d88)" d="M 303.231283 273.312 
L 304.852405 273.312 
L 304.852405 119.232 
L 303.231283 119.232 
z
" style="fill:#1f77b4;"/>
   </g>
   <g id="patch_154">
    <path clip-path="url(#p0261ff1d88)" d="M 304.852405 273.312 
L 306.473527 273.312 
L 306.473527 137.952 
L 304.852405 137.952 
z
" style="fill:#1f77b4;"/>
   </g>
   <g id="patch_155">
    <path clip-path="url(#p0261ff1d88)" d="M 306.473527 273.312 
L 308.094649 273.312 
L 308.094649 110.592 
L 306.473527 110.592 
z
" style="fill:#1f77b4;"/>
   </g>
   <g id="patch_156">
    <path clip-path="url(#p0261ff1d88)" d="M 308.094649 273.312 
L 309.715771 273.312 
L 309.715771 131.472 
L 308.094649 131.472 
z
" style="fill:#1f77b4;"/>
   </g>
   <g id="patch_157">
    <path clip-path="url(#p0261ff1d88)" d="M 309.715771 273.312 
L 311.336893 273.312 
L 311.336893 132.912 
L 309.715771 132.912 
z
" style="fill:#1f77b4;"/>
   </g>
   <g id="patch_158">
    <path clip-path="url(#p0261ff1d88)" d="M 311.336893 273.312 
L 312.958015 273.312 
L 312.958015 135.792 
L 311.336893 135.792 
z
" style="fill:#1f77b4;"/>
   </g>
   <g id="patch_159">
    <path clip-path="url(#p0261ff1d88)" d="M 312.958015 273.312 
L 314.579137 273.312 
L 314.579137 129.312 
L 312.958015 129.312 
z
" style="fill:#1f77b4;"/>
   </g>
   <g id="patch_160">
    <path clip-path="url(#p0261ff1d88)" d="M 314.579137 273.312 
L 316.200259 273.312 
L 316.200259 139.392 
L 314.579137 139.392 
z
" style="fill:#1f77b4;"/>
   </g>
   <g id="patch_161">
    <path clip-path="url(#p0261ff1d88)" d="M 316.200259 273.312 
L 317.821381 273.312 
L 317.821381 145.152 
L 316.200259 145.152 
z
" style="fill:#1f77b4;"/>
   </g>
   <g id="patch_162">
    <path clip-path="url(#p0261ff1d88)" d="M 317.821381 273.312 
L 319.442503 273.312 
L 319.442503 141.552 
L 317.821381 141.552 
z
" style="fill:#1f77b4;"/>
   </g>
   <g id="patch_163">
    <path clip-path="url(#p0261ff1d88)" d="M 319.442503 273.312 
L 321.063625 273.312 
L 321.063625 144.432 
L 319.442503 144.432 
z
" style="fill:#1f77b4;"/>
   </g>
   <g id="patch_164">
    <path clip-path="url(#p0261ff1d88)" d="M 321.063625 273.312 
L 322.684747 273.312 
L 322.684747 152.352 
L 321.063625 152.352 
z
" style="fill:#1f77b4;"/>
   </g>
   <g id="patch_165">
    <path clip-path="url(#p0261ff1d88)" d="M 322.684747 273.312 
L 324.305869 273.312 
L 324.305869 137.232 
L 322.684747 137.232 
z
" style="fill:#1f77b4;"/>
   </g>
   <g id="patch_166">
    <path clip-path="url(#p0261ff1d88)" d="M 324.305869 273.312 
L 325.926991 273.312 
L 325.926991 128.592 
L 324.305869 128.592 
z
" style="fill:#1f77b4;"/>
   </g>
   <g id="patch_167">
    <path clip-path="url(#p0261ff1d88)" d="M 325.926991 273.312 
L 327.548113 273.312 
L 327.548113 150.192 
L 325.926991 150.192 
z
" style="fill:#1f77b4;"/>
   </g>
   <g id="patch_168">
    <path clip-path="url(#p0261ff1d88)" d="M 327.548113 273.312 
L 329.169234 273.312 
L 329.169234 153.792 
L 327.548113 153.792 
z
" style="fill:#1f77b4;"/>
   </g>
   <g id="patch_169">
    <path clip-path="url(#p0261ff1d88)" d="M 329.169234 273.312 
L 330.790356 273.312 
L 330.790356 164.592 
L 329.169234 164.592 
z
" style="fill:#1f77b4;"/>
   </g>
   <g id="patch_170">
    <path clip-path="url(#p0261ff1d88)" d="M 330.790356 273.312 
L 332.411478 273.312 
L 332.411478 165.312 
L 330.790356 165.312 
z
" style="fill:#1f77b4;"/>
   </g>
   <g id="patch_171">
    <path clip-path="url(#p0261ff1d88)" d="M 332.411478 273.312 
L 334.0326 273.312 
L 334.0326 154.512 
L 332.411478 154.512 
z
" style="fill:#1f77b4;"/>
   </g>
   <g id="patch_172">
    <path clip-path="url(#p0261ff1d88)" d="M 334.0326 273.312 
L 335.653722 273.312 
L 335.653722 172.512 
L 334.0326 172.512 
z
" style="fill:#1f77b4;"/>
   </g>
   <g id="patch_173">
    <path clip-path="url(#p0261ff1d88)" d="M 335.653722 273.312 
L 337.274844 273.312 
L 337.274844 155.232 
L 335.653722 155.232 
z
" style="fill:#1f77b4;"/>
   </g>
   <g id="patch_174">
    <path clip-path="url(#p0261ff1d88)" d="M 337.274844 273.312 
L 338.895966 273.312 
L 338.895966 158.832 
L 337.274844 158.832 
z
" style="fill:#1f77b4;"/>
   </g>
   <g id="patch_175">
    <path clip-path="url(#p0261ff1d88)" d="M 338.895966 273.312 
L 340.517088 273.312 
L 340.517088 178.272 
L 338.895966 178.272 
z
" style="fill:#1f77b4;"/>
   </g>
   <g id="patch_176">
    <path clip-path="url(#p0261ff1d88)" d="M 340.517088 273.312 
L 342.13821 273.312 
L 342.13821 169.632 
L 340.517088 169.632 
z
" style="fill:#1f77b4;"/>
   </g>
   <g id="patch_177">
    <path clip-path="url(#p0261ff1d88)" d="M 342.13821 273.312 
L 343.759332 273.312 
L 343.759332 181.152 
L 342.13821 181.152 
z
" style="fill:#1f77b4;"/>
   </g>
   <g id="patch_178">
    <path clip-path="url(#p0261ff1d88)" d="M 343.759332 273.312 
L 345.380454 273.312 
L 345.380454 180.432 
L 343.759332 180.432 
z
" style="fill:#1f77b4;"/>
   </g>
   <g id="patch_179">
    <path clip-path="url(#p0261ff1d88)" d="M 345.380454 273.312 
L 347.001576 273.312 
L 347.001576 176.112 
L 345.380454 176.112 
z
" style="fill:#1f77b4;"/>
   </g>
   <g id="patch_180">
    <path clip-path="url(#p0261ff1d88)" d="M 347.001576 273.312 
L 348.622698 273.312 
L 348.622698 203.472 
L 347.001576 203.472 
z
" style="fill:#1f77b4;"/>
   </g>
   <g id="patch_181">
    <path clip-path="url(#p0261ff1d88)" d="M 348.622698 273.312 
L 350.24382 273.312 
L 350.24382 204.912 
L 348.622698 204.912 
z
" style="fill:#1f77b4;"/>
   </g>
   <g id="patch_182">
    <path clip-path="url(#p0261ff1d88)" d="M 350.24382 273.312 
L 351.864942 273.312 
L 351.864942 189.072 
L 350.24382 189.072 
z
" style="fill:#1f77b4;"/>
   </g>
   <g id="patch_183">
    <path clip-path="url(#p0261ff1d88)" d="M 351.864942 273.312 
L 353.486064 273.312 
L 353.486064 208.512 
L 351.864942 208.512 
z
" style="fill:#1f77b4;"/>
   </g>
   <g id="patch_184">
    <path clip-path="url(#p0261ff1d88)" d="M 353.486064 273.312 
L 355.107186 273.312 
L 355.107186 214.992 
L 353.486064 214.992 
z
" style="fill:#1f77b4;"/>
   </g>
   <g id="patch_185">
    <path clip-path="url(#p0261ff1d88)" d="M 355.107186 273.312 
L 356.728308 273.312 
L 356.728308 199.152 
L 355.107186 199.152 
z
" style="fill:#1f77b4;"/>
   </g>
   <g id="patch_186">
    <path clip-path="url(#p0261ff1d88)" d="M 356.728308 273.312 
L 358.349429 273.312 
L 358.349429 208.512 
L 356.728308 208.512 
z
" style="fill:#1f77b4;"/>
   </g>
   <g id="patch_187">
    <path clip-path="url(#p0261ff1d88)" d="M 358.349429 273.312 
L 359.970551 273.312 
L 359.970551 215.712 
L 358.349429 215.712 
z
" style="fill:#1f77b4;"/>
   </g>
   <g id="patch_188">
    <path clip-path="url(#p0261ff1d88)" d="M 359.970551 273.312 
L 361.591673 273.312 
L 361.591673 227.232 
L 359.970551 227.232 
z
" style="fill:#1f77b4;"/>
   </g>
   <g id="patch_189">
    <path clip-path="url(#p0261ff1d88)" d="M 361.591673 273.312 
L 363.212795 273.312 
L 363.212795 222.912 
L 361.591673 222.912 
z
" style="fill:#1f77b4;"/>
   </g>
   <g id="patch_190">
    <path clip-path="url(#p0261ff1d88)" d="M 363.212795 273.312 
L 364.833917 273.312 
L 364.833917 233.712 
L 363.212795 233.712 
z
" style="fill:#1f77b4;"/>
   </g>
   <g id="patch_191">
    <path clip-path="url(#p0261ff1d88)" d="M 364.833917 273.312 
L 366.455039 273.312 
L 366.455039 237.312 
L 364.833917 237.312 
z
" style="fill:#1f77b4;"/>
   </g>
   <g id="patch_192">
    <path clip-path="url(#p0261ff1d88)" d="M 366.455039 273.312 
L 368.076161 273.312 
L 368.076161 227.952 
L 366.455039 227.952 
z
" style="fill:#1f77b4;"/>
   </g>
   <g id="patch_193">
    <path clip-path="url(#p0261ff1d88)" d="M 368.076161 273.312 
L 369.697283 273.312 
L 369.697283 241.632 
L 368.076161 241.632 
z
" style="fill:#1f77b4;"/>
   </g>
   <g id="patch_194">
    <path clip-path="url(#p0261ff1d88)" d="M 369.697283 273.312 
L 371.318405 273.312 
L 371.318405 245.232 
L 369.697283 245.232 
z
" style="fill:#1f77b4;"/>
   </g>
   <g id="patch_195">
    <path clip-path="url(#p0261ff1d88)" d="M 371.318405 273.312 
L 372.939527 273.312 
L 372.939527 250.992 
L 371.318405 250.992 
z
" style="fill:#1f77b4;"/>
   </g>
   <g id="patch_196">
    <path clip-path="url(#p0261ff1d88)" d="M 372.939527 273.312 
L 374.560649 273.312 
L 374.560649 253.152 
L 372.939527 253.152 
z
" style="fill:#1f77b4;"/>
   </g>
   <g id="patch_197">
    <path clip-path="url(#p0261ff1d88)" d="M 374.560649 273.312 
L 376.181771 273.312 
L 376.181771 245.952 
L 374.560649 245.952 
z
" style="fill:#1f77b4;"/>
   </g>
   <g id="patch_198">
    <path clip-path="url(#p0261ff1d88)" d="M 376.181771 273.312 
L 377.802893 273.312 
L 377.802893 258.192 
L 376.181771 258.192 
z
" style="fill:#1f77b4;"/>
   </g>
   <g id="patch_199">
    <path clip-path="url(#p0261ff1d88)" d="M 377.802893 273.312 
L 379.424015 273.312 
L 379.424015 258.192 
L 377.802893 258.192 
z
" style="fill:#1f77b4;"/>
   </g>
   <g id="patch_200">
    <path clip-path="url(#p0261ff1d88)" d="M 379.424015 273.312 
L 381.045137 273.312 
L 381.045137 261.792 
L 379.424015 261.792 
z
" style="fill:#1f77b4;"/>
   </g>
   <g id="patch_201">
    <path clip-path="url(#p0261ff1d88)" d="M 381.045137 273.312 
L 382.666259 273.312 
L 382.666259 267.552 
L 381.045137 267.552 
z
" style="fill:#1f77b4;"/>
   </g>
   <g id="patch_202">
    <path clip-path="url(#p0261ff1d88)" d="M 382.666259 273.312 
L 384.287381 273.312 
L 384.287381 270.432 
L 382.666259 270.432 
z
" style="fill:#1f77b4;"/>
   </g>
   <g id="matplotlib.axis_1">
    <g id="xtick_1">
     <g id="line2d_1">
      <defs>
       <path d="M 0 0 
L 0 3.5 
" id="mb1a5fb8e4d" style="stroke:#000000;stroke-width:0.8;"/>
      </defs>
      <g>
       <use style="stroke:#000000;stroke-width:0.8;" x="60.013977" xlink:href="#mb1a5fb8e4d" y="273.312"/>
      </g>
     </g>
     <g id="text_1">
      <!-- 0.0 -->
      <g transform="translate(52.062415 287.910437)scale(0.1 -0.1)">
       <defs>
        <path d="M 2034 4250 
Q 1547 4250 1301 3770 
Q 1056 3291 1056 2328 
Q 1056 1369 1301 889 
Q 1547 409 2034 409 
Q 2525 409 2770 889 
Q 3016 1369 3016 2328 
Q 3016 3291 2770 3770 
Q 2525 4250 2034 4250 
z
M 2034 4750 
Q 2819 4750 3233 4129 
Q 3647 3509 3647 2328 
Q 3647 1150 3233 529 
Q 2819 -91 2034 -91 
Q 1250 -91 836 529 
Q 422 1150 422 2328 
Q 422 3509 836 4129 
Q 1250 4750 2034 4750 
z
" id="DejaVuSans-30" transform="scale(0.015625)"/>
        <path d="M 684 794 
L 1344 794 
L 1344 0 
L 684 0 
L 684 794 
z
" id="DejaVuSans-2e" transform="scale(0.015625)"/>
       </defs>
       <use xlink:href="#DejaVuSans-30"/>
       <use x="63.623047" xlink:href="#DejaVuSans-2e"/>
       <use x="95.410156" xlink:href="#DejaVuSans-30"/>
      </g>
     </g>
    </g>
    <g id="xtick_2">
     <g id="line2d_2">
      <g>
       <use style="stroke:#000000;stroke-width:0.8;" x="101.350278" xlink:href="#mb1a5fb8e4d" y="273.312"/>
      </g>
     </g>
     <g id="text_2">
      <!-- 0.2 -->
      <g transform="translate(93.398715 287.910437)scale(0.1 -0.1)">
       <defs>
        <path d="M 1228 531 
L 3431 531 
L 3431 0 
L 469 0 
L 469 531 
Q 828 903 1448 1529 
Q 2069 2156 2228 2338 
Q 2531 2678 2651 2914 
Q 2772 3150 2772 3378 
Q 2772 3750 2511 3984 
Q 2250 4219 1831 4219 
Q 1534 4219 1204 4116 
Q 875 4013 500 3803 
L 500 4441 
Q 881 4594 1212 4672 
Q 1544 4750 1819 4750 
Q 2544 4750 2975 4387 
Q 3406 4025 3406 3419 
Q 3406 3131 3298 2873 
Q 3191 2616 2906 2266 
Q 2828 2175 2409 1742 
Q 1991 1309 1228 531 
z
" id="DejaVuSans-32" transform="scale(0.015625)"/>
       </defs>
       <use xlink:href="#DejaVuSans-30"/>
       <use x="63.623047" xlink:href="#DejaVuSans-2e"/>
       <use x="95.410156" xlink:href="#DejaVuSans-32"/>
      </g>
     </g>
    </g>
    <g id="xtick_3">
     <g id="line2d_3">
      <g>
       <use style="stroke:#000000;stroke-width:0.8;" x="142.686578" xlink:href="#mb1a5fb8e4d" y="273.312"/>
      </g>
     </g>
     <g id="text_3">
      <!-- 0.4 -->
      <g transform="translate(134.735016 287.910437)scale(0.1 -0.1)">
       <defs>
        <path d="M 2419 4116 
L 825 1625 
L 2419 1625 
L 2419 4116 
z
M 2253 4666 
L 3047 4666 
L 3047 1625 
L 3713 1625 
L 3713 1100 
L 3047 1100 
L 3047 0 
L 2419 0 
L 2419 1100 
L 313 1100 
L 313 1709 
L 2253 4666 
z
" id="DejaVuSans-34" transform="scale(0.015625)"/>
       </defs>
       <use xlink:href="#DejaVuSans-30"/>
       <use x="63.623047" xlink:href="#DejaVuSans-2e"/>
       <use x="95.410156" xlink:href="#DejaVuSans-34"/>
      </g>
     </g>
    </g>
    <g id="xtick_4">
     <g id="line2d_4">
      <g>
       <use style="stroke:#000000;stroke-width:0.8;" x="184.022879" xlink:href="#mb1a5fb8e4d" y="273.312"/>
      </g>
     </g>
     <g id="text_4">
      <!-- 0.6 -->
      <g transform="translate(176.071316 287.910437)scale(0.1 -0.1)">
       <defs>
        <path d="M 2113 2584 
Q 1688 2584 1439 2293 
Q 1191 2003 1191 1497 
Q 1191 994 1439 701 
Q 1688 409 2113 409 
Q 2538 409 2786 701 
Q 3034 994 3034 1497 
Q 3034 2003 2786 2293 
Q 2538 2584 2113 2584 
z
M 3366 4563 
L 3366 3988 
Q 3128 4100 2886 4159 
Q 2644 4219 2406 4219 
Q 1781 4219 1451 3797 
Q 1122 3375 1075 2522 
Q 1259 2794 1537 2939 
Q 1816 3084 2150 3084 
Q 2853 3084 3261 2657 
Q 3669 2231 3669 1497 
Q 3669 778 3244 343 
Q 2819 -91 2113 -91 
Q 1303 -91 875 529 
Q 447 1150 447 2328 
Q 447 3434 972 4092 
Q 1497 4750 2381 4750 
Q 2619 4750 2861 4703 
Q 3103 4656 3366 4563 
z
" id="DejaVuSans-36" transform="scale(0.015625)"/>
       </defs>
       <use xlink:href="#DejaVuSans-30"/>
       <use x="63.623047" xlink:href="#DejaVuSans-2e"/>
       <use x="95.410156" xlink:href="#DejaVuSans-36"/>
      </g>
     </g>
    </g>
    <g id="xtick_5">
     <g id="line2d_5">
      <g>
       <use style="stroke:#000000;stroke-width:0.8;" x="225.35918" xlink:href="#mb1a5fb8e4d" y="273.312"/>
      </g>
     </g>
     <g id="text_5">
      <!-- 0.8 -->
      <g transform="translate(217.407617 287.910437)scale(0.1 -0.1)">
       <defs>
        <path d="M 2034 2216 
Q 1584 2216 1326 1975 
Q 1069 1734 1069 1313 
Q 1069 891 1326 650 
Q 1584 409 2034 409 
Q 2484 409 2743 651 
Q 3003 894 3003 1313 
Q 3003 1734 2745 1975 
Q 2488 2216 2034 2216 
z
M 1403 2484 
Q 997 2584 770 2862 
Q 544 3141 544 3541 
Q 544 4100 942 4425 
Q 1341 4750 2034 4750 
Q 2731 4750 3128 4425 
Q 3525 4100 3525 3541 
Q 3525 3141 3298 2862 
Q 3072 2584 2669 2484 
Q 3125 2378 3379 2068 
Q 3634 1759 3634 1313 
Q 3634 634 3220 271 
Q 2806 -91 2034 -91 
Q 1263 -91 848 271 
Q 434 634 434 1313 
Q 434 1759 690 2068 
Q 947 2378 1403 2484 
z
M 1172 3481 
Q 1172 3119 1398 2916 
Q 1625 2713 2034 2713 
Q 2441 2713 2670 2916 
Q 2900 3119 2900 3481 
Q 2900 3844 2670 4047 
Q 2441 4250 2034 4250 
Q 1625 4250 1398 4047 
Q 1172 3844 1172 3481 
z
" id="DejaVuSans-38" transform="scale(0.015625)"/>
       </defs>
       <use xlink:href="#DejaVuSans-30"/>
       <use x="63.623047" xlink:href="#DejaVuSans-2e"/>
       <use x="95.410156" xlink:href="#DejaVuSans-38"/>
      </g>
     </g>
    </g>
    <g id="xtick_6">
     <g id="line2d_6">
      <g>
       <use style="stroke:#000000;stroke-width:0.8;" x="266.69548" xlink:href="#mb1a5fb8e4d" y="273.312"/>
      </g>
     </g>
     <g id="text_6">
      <!-- 1.0 -->
      <g transform="translate(258.743918 287.910437)scale(0.1 -0.1)">
       <defs>
        <path d="M 794 531 
L 1825 531 
L 1825 4091 
L 703 3866 
L 703 4441 
L 1819 4666 
L 2450 4666 
L 2450 531 
L 3481 531 
L 3481 0 
L 794 0 
L 794 531 
z
" id="DejaVuSans-31" transform="scale(0.015625)"/>
       </defs>
       <use xlink:href="#DejaVuSans-31"/>
       <use x="63.623047" xlink:href="#DejaVuSans-2e"/>
       <use x="95.410156" xlink:href="#DejaVuSans-30"/>
      </g>
     </g>
    </g>
    <g id="xtick_7">
     <g id="line2d_7">
      <g>
       <use style="stroke:#000000;stroke-width:0.8;" x="308.031781" xlink:href="#mb1a5fb8e4d" y="273.312"/>
      </g>
     </g>
     <g id="text_7">
      <!-- 1.2 -->
      <g transform="translate(300.080218 287.910437)scale(0.1 -0.1)">
       <use xlink:href="#DejaVuSans-31"/>
       <use x="63.623047" xlink:href="#DejaVuSans-2e"/>
       <use x="95.410156" xlink:href="#DejaVuSans-32"/>
      </g>
     </g>
    </g>
    <g id="xtick_8">
     <g id="line2d_8">
      <g>
       <use style="stroke:#000000;stroke-width:0.8;" x="349.368081" xlink:href="#mb1a5fb8e4d" y="273.312"/>
      </g>
     </g>
     <g id="text_8">
      <!-- 1.4 -->
      <g transform="translate(341.416519 287.910437)scale(0.1 -0.1)">
       <use xlink:href="#DejaVuSans-31"/>
       <use x="63.623047" xlink:href="#DejaVuSans-2e"/>
       <use x="95.410156" xlink:href="#DejaVuSans-34"/>
      </g>
     </g>
    </g>
    <g id="xtick_9">
     <g id="line2d_9">
      <g>
       <use style="stroke:#000000;stroke-width:0.8;" x="390.704382" xlink:href="#mb1a5fb8e4d" y="273.312"/>
      </g>
     </g>
     <g id="text_9">
      <!-- 1.6 -->
      <g transform="translate(382.752819 287.910437)scale(0.1 -0.1)">
       <use xlink:href="#DejaVuSans-31"/>
       <use x="63.623047" xlink:href="#DejaVuSans-2e"/>
       <use x="95.410156" xlink:href="#DejaVuSans-36"/>
      </g>
     </g>
    </g>
    <g id="text_10">
     <!-- Angle with normal (rad) -->
     <g transform="translate(163.023281 301.588562)scale(0.1 -0.1)">
      <defs>
       <path d="M 2188 4044 
L 1331 1722 
L 3047 1722 
L 2188 4044 
z
M 1831 4666 
L 2547 4666 
L 4325 0 
L 3669 0 
L 3244 1197 
L 1141 1197 
L 716 0 
L 50 0 
L 1831 4666 
z
" id="DejaVuSans-41" transform="scale(0.015625)"/>
       <path d="M 3513 2113 
L 3513 0 
L 2938 0 
L 2938 2094 
Q 2938 2591 2744 2837 
Q 2550 3084 2163 3084 
Q 1697 3084 1428 2787 
Q 1159 2491 1159 1978 
L 1159 0 
L 581 0 
L 581 3500 
L 1159 3500 
L 1159 2956 
Q 1366 3272 1645 3428 
Q 1925 3584 2291 3584 
Q 2894 3584 3203 3211 
Q 3513 2838 3513 2113 
z
" id="DejaVuSans-6e" transform="scale(0.015625)"/>
       <path d="M 2906 1791 
Q 2906 2416 2648 2759 
Q 2391 3103 1925 3103 
Q 1463 3103 1205 2759 
Q 947 2416 947 1791 
Q 947 1169 1205 825 
Q 1463 481 1925 481 
Q 2391 481 2648 825 
Q 2906 1169 2906 1791 
z
M 3481 434 
Q 3481 -459 3084 -895 
Q 2688 -1331 1869 -1331 
Q 1566 -1331 1297 -1286 
Q 1028 -1241 775 -1147 
L 775 -588 
Q 1028 -725 1275 -790 
Q 1522 -856 1778 -856 
Q 2344 -856 2625 -561 
Q 2906 -266 2906 331 
L 2906 616 
Q 2728 306 2450 153 
Q 2172 0 1784 0 
Q 1141 0 747 490 
Q 353 981 353 1791 
Q 353 2603 747 3093 
Q 1141 3584 1784 3584 
Q 2172 3584 2450 3431 
Q 2728 3278 2906 2969 
L 2906 3500 
L 3481 3500 
L 3481 434 
z
" id="DejaVuSans-67" transform="scale(0.015625)"/>
       <path d="M 603 4863 
L 1178 4863 
L 1178 0 
L 603 0 
L 603 4863 
z
" id="DejaVuSans-6c" transform="scale(0.015625)"/>
       <path d="M 3597 1894 
L 3597 1613 
L 953 1613 
Q 991 1019 1311 708 
Q 1631 397 2203 397 
Q 2534 397 2845 478 
Q 3156 559 3463 722 
L 3463 178 
Q 3153 47 2828 -22 
Q 2503 -91 2169 -91 
Q 1331 -91 842 396 
Q 353 884 353 1716 
Q 353 2575 817 3079 
Q 1281 3584 2069 3584 
Q 2775 3584 3186 3129 
Q 3597 2675 3597 1894 
z
M 3022 2063 
Q 3016 2534 2758 2815 
Q 2500 3097 2075 3097 
Q 1594 3097 1305 2825 
Q 1016 2553 972 2059 
L 3022 2063 
z
" id="DejaVuSans-65" transform="scale(0.015625)"/>
       <path id="DejaVuSans-20" transform="scale(0.015625)"/>
       <path d="M 269 3500 
L 844 3500 
L 1563 769 
L 2278 3500 
L 2956 3500 
L 3675 769 
L 4391 3500 
L 4966 3500 
L 4050 0 
L 3372 0 
L 2619 2869 
L 1863 0 
L 1184 0 
L 269 3500 
z
" id="DejaVuSans-77" transform="scale(0.015625)"/>
       <path d="M 603 3500 
L 1178 3500 
L 1178 0 
L 603 0 
L 603 3500 
z
M 603 4863 
L 1178 4863 
L 1178 4134 
L 603 4134 
L 603 4863 
z
" id="DejaVuSans-69" transform="scale(0.015625)"/>
       <path d="M 1172 4494 
L 1172 3500 
L 2356 3500 
L 2356 3053 
L 1172 3053 
L 1172 1153 
Q 1172 725 1289 603 
Q 1406 481 1766 481 
L 2356 481 
L 2356 0 
L 1766 0 
Q 1100 0 847 248 
Q 594 497 594 1153 
L 594 3053 
L 172 3053 
L 172 3500 
L 594 3500 
L 594 4494 
L 1172 4494 
z
" id="DejaVuSans-74" transform="scale(0.015625)"/>
       <path d="M 3513 2113 
L 3513 0 
L 2938 0 
L 2938 2094 
Q 2938 2591 2744 2837 
Q 2550 3084 2163 3084 
Q 1697 3084 1428 2787 
Q 1159 2491 1159 1978 
L 1159 0 
L 581 0 
L 581 4863 
L 1159 4863 
L 1159 2956 
Q 1366 3272 1645 3428 
Q 1925 3584 2291 3584 
Q 2894 3584 3203 3211 
Q 3513 2838 3513 2113 
z
" id="DejaVuSans-68" transform="scale(0.015625)"/>
       <path d="M 1959 3097 
Q 1497 3097 1228 2736 
Q 959 2375 959 1747 
Q 959 1119 1226 758 
Q 1494 397 1959 397 
Q 2419 397 2687 759 
Q 2956 1122 2956 1747 
Q 2956 2369 2687 2733 
Q 2419 3097 1959 3097 
z
M 1959 3584 
Q 2709 3584 3137 3096 
Q 3566 2609 3566 1747 
Q 3566 888 3137 398 
Q 2709 -91 1959 -91 
Q 1206 -91 779 398 
Q 353 888 353 1747 
Q 353 2609 779 3096 
Q 1206 3584 1959 3584 
z
" id="DejaVuSans-6f" transform="scale(0.015625)"/>
       <path d="M 2631 2963 
Q 2534 3019 2420 3045 
Q 2306 3072 2169 3072 
Q 1681 3072 1420 2755 
Q 1159 2438 1159 1844 
L 1159 0 
L 581 0 
L 581 3500 
L 1159 3500 
L 1159 2956 
Q 1341 3275 1631 3429 
Q 1922 3584 2338 3584 
Q 2397 3584 2469 3576 
Q 2541 3569 2628 3553 
L 2631 2963 
z
" id="DejaVuSans-72" transform="scale(0.015625)"/>
       <path d="M 3328 2828 
Q 3544 3216 3844 3400 
Q 4144 3584 4550 3584 
Q 5097 3584 5394 3201 
Q 5691 2819 5691 2113 
L 5691 0 
L 5113 0 
L 5113 2094 
Q 5113 2597 4934 2840 
Q 4756 3084 4391 3084 
Q 3944 3084 3684 2787 
Q 3425 2491 3425 1978 
L 3425 0 
L 2847 0 
L 2847 2094 
Q 2847 2600 2669 2842 
Q 2491 3084 2119 3084 
Q 1678 3084 1418 2786 
Q 1159 2488 1159 1978 
L 1159 0 
L 581 0 
L 581 3500 
L 1159 3500 
L 1159 2956 
Q 1356 3278 1631 3431 
Q 1906 3584 2284 3584 
Q 2666 3584 2933 3390 
Q 3200 3197 3328 2828 
z
" id="DejaVuSans-6d" transform="scale(0.015625)"/>
       <path d="M 2194 1759 
Q 1497 1759 1228 1600 
Q 959 1441 959 1056 
Q 959 750 1161 570 
Q 1363 391 1709 391 
Q 2188 391 2477 730 
Q 2766 1069 2766 1631 
L 2766 1759 
L 2194 1759 
z
M 3341 1997 
L 3341 0 
L 2766 0 
L 2766 531 
Q 2569 213 2275 61 
Q 1981 -91 1556 -91 
Q 1019 -91 701 211 
Q 384 513 384 1019 
Q 384 1609 779 1909 
Q 1175 2209 1959 2209 
L 2766 2209 
L 2766 2266 
Q 2766 2663 2505 2880 
Q 2244 3097 1772 3097 
Q 1472 3097 1187 3025 
Q 903 2953 641 2809 
L 641 3341 
Q 956 3463 1253 3523 
Q 1550 3584 1831 3584 
Q 2591 3584 2966 3190 
Q 3341 2797 3341 1997 
z
" id="DejaVuSans-61" transform="scale(0.015625)"/>
       <path d="M 1984 4856 
Q 1566 4138 1362 3434 
Q 1159 2731 1159 2009 
Q 1159 1288 1364 580 
Q 1569 -128 1984 -844 
L 1484 -844 
Q 1016 -109 783 600 
Q 550 1309 550 2009 
Q 550 2706 781 3412 
Q 1013 4119 1484 4856 
L 1984 4856 
z
" id="DejaVuSans-28" transform="scale(0.015625)"/>
       <path d="M 2906 2969 
L 2906 4863 
L 3481 4863 
L 3481 0 
L 2906 0 
L 2906 525 
Q 2725 213 2448 61 
Q 2172 -91 1784 -91 
Q 1150 -91 751 415 
Q 353 922 353 1747 
Q 353 2572 751 3078 
Q 1150 3584 1784 3584 
Q 2172 3584 2448 3432 
Q 2725 3281 2906 2969 
z
M 947 1747 
Q 947 1113 1208 752 
Q 1469 391 1925 391 
Q 2381 391 2643 752 
Q 2906 1113 2906 1747 
Q 2906 2381 2643 2742 
Q 2381 3103 1925 3103 
Q 1469 3103 1208 2742 
Q 947 2381 947 1747 
z
" id="DejaVuSans-64" transform="scale(0.015625)"/>
       <path d="M 513 4856 
L 1013 4856 
Q 1481 4119 1714 3412 
Q 1947 2706 1947 2009 
Q 1947 1309 1714 600 
Q 1481 -109 1013 -844 
L 513 -844 
Q 928 -128 1133 580 
Q 1338 1288 1338 2009 
Q 1338 2731 1133 3434 
Q 928 4138 513 4856 
z
" id="DejaVuSans-29" transform="scale(0.015625)"/>
      </defs>
      <use xlink:href="#DejaVuSans-41"/>
      <use x="68.408203" xlink:href="#DejaVuSans-6e"/>
      <use x="131.787109" xlink:href="#DejaVuSans-67"/>
      <use x="195.263672" xlink:href="#DejaVuSans-6c"/>
      <use x="223.046875" xlink:href="#DejaVuSans-65"/>
      <use x="284.570312" xlink:href="#DejaVuSans-20"/>
      <use x="316.357422" xlink:href="#DejaVuSans-77"/>
      <use x="398.144531" xlink:href="#DejaVuSans-69"/>
      <use x="425.927734" xlink:href="#DejaVuSans-74"/>
      <use x="465.136719" xlink:href="#DejaVuSans-68"/>
      <use x="528.515625" xlink:href="#DejaVuSans-20"/>
      <use x="560.302734" xlink:href="#DejaVuSans-6e"/>
      <use x="623.681641" xlink:href="#DejaVuSans-6f"/>
      <use x="684.863281" xlink:href="#DejaVuSans-72"/>
      <use x="724.226562" xlink:href="#DejaVuSans-6d"/>
      <use x="821.638672" xlink:href="#DejaVuSans-61"/>
      <use x="882.917969" xlink:href="#DejaVuSans-6c"/>
      <use x="910.701172" xlink:href="#DejaVuSans-20"/>
      <use x="942.488281" xlink:href="#DejaVuSans-28"/>
      <use x="981.501953" xlink:href="#DejaVuSans-72"/>
      <use x="1022.615234" xlink:href="#DejaVuSans-61"/>
      <use x="1083.894531" xlink:href="#DejaVuSans-64"/>
      <use x="1147.371094" xlink:href="#DejaVuSans-29"/>
     </g>
    </g>
   </g>
   <g id="matplotlib.axis_2">
    <g id="ytick_1">
     <g id="line2d_10">
      <defs>
       <path d="M 0 0 
L -3.5 0 
" id="m056726a900" style="stroke:#000000;stroke-width:0.8;"/>
      </defs>
      <g>
       <use style="stroke:#000000;stroke-width:0.8;" x="43.78125" xlink:href="#m056726a900" y="273.312"/>
      </g>
     </g>
     <g id="text_11">
      <!-- 0.0 -->
      <g transform="translate(20.878125 277.111219)scale(0.1 -0.1)">
       <use xlink:href="#DejaVuSans-30"/>
       <use x="63.623047" xlink:href="#DejaVuSans-2e"/>
       <use x="95.410156" xlink:href="#DejaVuSans-30"/>
      </g>
     </g>
    </g>
    <g id="ytick_2">
     <g id="line2d_11">
      <g>
       <use style="stroke:#000000;stroke-width:0.8;" x="43.78125" xlink:href="#m056726a900" y="228.133006"/>
      </g>
     </g>
     <g id="text_12">
      <!-- 0.2 -->
      <g transform="translate(20.878125 231.932225)scale(0.1 -0.1)">
       <use xlink:href="#DejaVuSans-30"/>
       <use x="63.623047" xlink:href="#DejaVuSans-2e"/>
       <use x="95.410156" xlink:href="#DejaVuSans-32"/>
      </g>
     </g>
    </g>
    <g id="ytick_3">
     <g id="line2d_12">
      <g>
       <use style="stroke:#000000;stroke-width:0.8;" x="43.78125" xlink:href="#m056726a900" y="182.954012"/>
      </g>
     </g>
     <g id="text_13">
      <!-- 0.4 -->
      <g transform="translate(20.878125 186.753231)scale(0.1 -0.1)">
       <use xlink:href="#DejaVuSans-30"/>
       <use x="63.623047" xlink:href="#DejaVuSans-2e"/>
       <use x="95.410156" xlink:href="#DejaVuSans-34"/>
      </g>
     </g>
    </g>
    <g id="ytick_4">
     <g id="line2d_13">
      <g>
       <use style="stroke:#000000;stroke-width:0.8;" x="43.78125" xlink:href="#m056726a900" y="137.775018"/>
      </g>
     </g>
     <g id="text_14">
      <!-- 0.6 -->
      <g transform="translate(20.878125 141.574236)scale(0.1 -0.1)">
       <use xlink:href="#DejaVuSans-30"/>
       <use x="63.623047" xlink:href="#DejaVuSans-2e"/>
       <use x="95.410156" xlink:href="#DejaVuSans-36"/>
      </g>
     </g>
    </g>
    <g id="ytick_5">
     <g id="line2d_14">
      <g>
       <use style="stroke:#000000;stroke-width:0.8;" x="43.78125" xlink:href="#m056726a900" y="92.596024"/>
      </g>
     </g>
     <g id="text_15">
      <!-- 0.8 -->
      <g transform="translate(20.878125 96.395242)scale(0.1 -0.1)">
       <use xlink:href="#DejaVuSans-30"/>
       <use x="63.623047" xlink:href="#DejaVuSans-2e"/>
       <use x="95.410156" xlink:href="#DejaVuSans-38"/>
      </g>
     </g>
    </g>
    <g id="ytick_6">
     <g id="line2d_15">
      <g>
       <use style="stroke:#000000;stroke-width:0.8;" x="43.78125" xlink:href="#m056726a900" y="47.417029"/>
      </g>
     </g>
     <g id="text_16">
      <!-- 1.0 -->
      <g transform="translate(20.878125 51.216248)scale(0.1 -0.1)">
       <use xlink:href="#DejaVuSans-31"/>
       <use x="63.623047" xlink:href="#DejaVuSans-2e"/>
       <use x="95.410156" xlink:href="#DejaVuSans-30"/>
      </g>
     </g>
    </g>
    <g id="text_17">
     <!-- Probability density -->
     <g transform="translate(14.798438 186.606781)rotate(-90)scale(0.1 -0.1)">
      <defs>
       <path d="M 1259 4147 
L 1259 2394 
L 2053 2394 
Q 2494 2394 2734 2622 
Q 2975 2850 2975 3272 
Q 2975 3691 2734 3919 
Q 2494 4147 2053 4147 
L 1259 4147 
z
M 628 4666 
L 2053 4666 
Q 2838 4666 3239 4311 
Q 3641 3956 3641 3272 
Q 3641 2581 3239 2228 
Q 2838 1875 2053 1875 
L 1259 1875 
L 1259 0 
L 628 0 
L 628 4666 
z
" id="DejaVuSans-50" transform="scale(0.015625)"/>
       <path d="M 3116 1747 
Q 3116 2381 2855 2742 
Q 2594 3103 2138 3103 
Q 1681 3103 1420 2742 
Q 1159 2381 1159 1747 
Q 1159 1113 1420 752 
Q 1681 391 2138 391 
Q 2594 391 2855 752 
Q 3116 1113 3116 1747 
z
M 1159 2969 
Q 1341 3281 1617 3432 
Q 1894 3584 2278 3584 
Q 2916 3584 3314 3078 
Q 3713 2572 3713 1747 
Q 3713 922 3314 415 
Q 2916 -91 2278 -91 
Q 1894 -91 1617 61 
Q 1341 213 1159 525 
L 1159 0 
L 581 0 
L 581 4863 
L 1159 4863 
L 1159 2969 
z
" id="DejaVuSans-62" transform="scale(0.015625)"/>
       <path d="M 2059 -325 
Q 1816 -950 1584 -1140 
Q 1353 -1331 966 -1331 
L 506 -1331 
L 506 -850 
L 844 -850 
Q 1081 -850 1212 -737 
Q 1344 -625 1503 -206 
L 1606 56 
L 191 3500 
L 800 3500 
L 1894 763 
L 2988 3500 
L 3597 3500 
L 2059 -325 
z
" id="DejaVuSans-79" transform="scale(0.015625)"/>
       <path d="M 2834 3397 
L 2834 2853 
Q 2591 2978 2328 3040 
Q 2066 3103 1784 3103 
Q 1356 3103 1142 2972 
Q 928 2841 928 2578 
Q 928 2378 1081 2264 
Q 1234 2150 1697 2047 
L 1894 2003 
Q 2506 1872 2764 1633 
Q 3022 1394 3022 966 
Q 3022 478 2636 193 
Q 2250 -91 1575 -91 
Q 1294 -91 989 -36 
Q 684 19 347 128 
L 347 722 
Q 666 556 975 473 
Q 1284 391 1588 391 
Q 1994 391 2212 530 
Q 2431 669 2431 922 
Q 2431 1156 2273 1281 
Q 2116 1406 1581 1522 
L 1381 1569 
Q 847 1681 609 1914 
Q 372 2147 372 2553 
Q 372 3047 722 3315 
Q 1072 3584 1716 3584 
Q 2034 3584 2315 3537 
Q 2597 3491 2834 3397 
z
" id="DejaVuSans-73" transform="scale(0.015625)"/>
      </defs>
      <use xlink:href="#DejaVuSans-50"/>
      <use x="58.552734" xlink:href="#DejaVuSans-72"/>
      <use x="97.416016" xlink:href="#DejaVuSans-6f"/>
      <use x="158.597656" xlink:href="#DejaVuSans-62"/>
      <use x="222.074219" xlink:href="#DejaVuSans-61"/>
      <use x="283.353516" xlink:href="#DejaVuSans-62"/>
      <use x="346.830078" xlink:href="#DejaVuSans-69"/>
      <use x="374.613281" xlink:href="#DejaVuSans-6c"/>
      <use x="402.396484" xlink:href="#DejaVuSans-69"/>
      <use x="430.179688" xlink:href="#DejaVuSans-74"/>
      <use x="469.388672" xlink:href="#DejaVuSans-79"/>
      <use x="528.568359" xlink:href="#DejaVuSans-20"/>
      <use x="560.355469" xlink:href="#DejaVuSans-64"/>
      <use x="623.832031" xlink:href="#DejaVuSans-65"/>
      <use x="685.355469" xlink:href="#DejaVuSans-6e"/>
      <use x="748.734375" xlink:href="#DejaVuSans-73"/>
      <use x="800.833984" xlink:href="#DejaVuSans-69"/>
      <use x="828.617188" xlink:href="#DejaVuSans-74"/>
      <use x="867.826172" xlink:href="#DejaVuSans-79"/>
     </g>
    </g>
   </g>
   <g id="line2d_16">
    <path clip-path="url(#p0261ff1d88)" d="M 60.013977 273.312 
L 79.837728 230.244075 
L 90.237073 208.184404 
L 99.01152 190.075262 
L 106.811029 174.477752 
L 113.960578 160.672258 
L 120.460169 148.587786 
L 126.63478 137.563663 
L 132.484411 127.566048 
L 138.009063 118.552013 
L 143.208736 110.471721 
L 148.408408 102.803601 
L 153.283101 96.00635 
L 158.157794 89.603551 
L 162.707507 83.996067 
L 167.257221 78.755478 
L 171.481954 74.226626 
L 175.706688 70.03046 
L 179.606442 66.458433 
L 183.506197 63.180945 
L 187.405951 60.202663 
L 190.980726 57.739044 
L 194.555501 55.533357 
L 198.130275 53.588242 
L 201.70505 51.906025 
L 205.279825 50.488718 
L 208.52962 49.431573 
L 211.779415 48.595813 
L 215.029211 47.982265 
L 218.279006 47.591535 
L 221.528801 47.424011 
L 224.778596 47.479857 
L 228.028392 47.759018 
L 231.278187 48.261219 
L 234.527982 48.985963 
L 237.777777 49.932533 
L 241.027573 51.099993 
L 244.277368 52.487188 
L 247.852143 54.265254 
L 251.426917 56.305409 
L 255.001692 58.60521 
L 258.576467 61.161908 
L 262.476221 64.240418 
L 266.375976 67.616625 
L 270.27573 71.285722 
L 274.500464 75.585025 
L 278.725198 80.214745 
L 282.949931 85.167144 
L 287.499645 90.851858 
L 292.049358 96.890181 
L 296.924051 103.738902 
L 301.798744 110.964871 
L 306.998416 119.070255 
L 312.523068 128.109512 
L 318.3727 138.132138 
L 324.547311 149.180686 
L 331.046901 161.288579 
L 337.871471 174.477752 
L 345.346 189.415278 
L 353.795468 206.82527 
L 363.544854 227.458155 
L 375.894076 254.154768 
L 384.668523 273.312 
L 384.668523 273.312 
" style="fill:none;stroke:#ff7f0e;stroke-linecap:square;stroke-width:1.5;"/>
   </g>
   <g id="patch_203">
    <path d="M 43.78125 273.312 
L 43.78125 7.2 
" style="fill:none;stroke:#000000;stroke-linecap:square;stroke-linejoin:miter;stroke-width:0.8;"/>
   </g>
   <g id="patch_204">
    <path d="M 400.90125 273.312 
L 400.90125 7.2 
" style="fill:none;stroke:#000000;stroke-linecap:square;stroke-linejoin:miter;stroke-width:0.8;"/>
   </g>
   <g id="patch_205">
    <path d="M 43.78125 273.312 
L 400.90125 273.312 
" style="fill:none;stroke:#000000;stroke-linecap:square;stroke-linejoin:miter;stroke-width:0.8;"/>
   </g>
   <g id="patch_206">
    <path d="M 43.78125 7.2 
L 400.90125 7.2 
" style="fill:none;stroke:#000000;stroke-linecap:square;stroke-linejoin:miter;stroke-width:0.8;"/>
   </g>
  </g>
 </g>
 <defs>
  <clipPath id="p0261ff1d88">
   <rect height="266.112" width="357.12" x="43.78125" y="7.2"/>
  </clipPath>
 </defs>
</svg>
