<?xml version="1.0" encoding="utf-8" standalone="no"?>
<!DOCTYPE svg PUBLIC "-//W3C//DTD SVG 1.1//EN"
  "http://www.w3.org/Graphics/SVG/1.1/DTD/svg11.dtd">
<svg height="310.86825pt" version="1.1" viewBox="0 0 408.10125 310.86825" width="408.10125pt" xmlns="http://www.w3.org/2000/svg" xmlns:xlink="http://www.w3.org/1999/xlink">
 <metadata>
  <rdf:RDF xmlns:cc="http://creativecommons.org/ns#" xmlns:dc="http://purl.org/dc/elements/1.1/" xmlns:rdf="http://www.w3.org/1999/02/22-rdf-syntax-ns#">
   <cc:Work>
    <dc:type rdf:resource="http://purl.org/dc/dcmitype/StillImage"/>
    <dc:date>2021-11-23T16:07:08.329109</dc:date>
    <dc:format>image/svg+xml</dc:format>
    <dc:creator>
     <cc:Agent>
      <dc:title>Matplotlib v3.4.3, https://matplotlib.org/</dc:title>
     </cc:Agent>
    </dc:creator>
   </cc:Work>
  </rdf:RDF>
 </metadata>
 <defs>
  <style type="text/css">*{stroke-linecap:butt;stroke-linejoin:round;}</style>
 </defs>
 <g id="figure_1">
  <g id="patch_1">
   <path d="M 0 310.86825 
L 408.10125 310.86825 
L 408.10125 0 
L 0 0 
z
" style="fill:#ffffff;"/>
  </g>
  <g id="axes_1">
   <g id="patch_2">
    <path d="M 43.78125 273.312 
L 400.90125 273.312 
L 400.90125 7.2 
L 43.78125 7.2 
z
" style="fill:#ffffff;"/>
   </g>
   <g id="patch_3">
    <path clip-path="url(#p09a471a6fb)" d="M 61.451859 273.312 
L 63.064293 273.312 
L 63.064293 263.621647 
L 61.451859 263.621647 
z
" style="fill:#1f77b4;"/>
   </g>
   <g id="patch_4">
    <path clip-path="url(#p09a471a6fb)" d="M 63.064293 273.312 
L 64.676727 273.312 
L 64.676727 263.621647 
L 63.064293 263.621647 
z
" style="fill:#1f77b4;"/>
   </g>
   <g id="patch_5">
    <path clip-path="url(#p09a471a6fb)" d="M 64.676727 273.312 
L 66.289162 273.312 
L 66.289162 260.64 
L 64.676727 260.64 
z
" style="fill:#1f77b4;"/>
   </g>
   <g id="patch_6">
    <path clip-path="url(#p09a471a6fb)" d="M 66.289162 273.312 
L 67.901596 273.312 
L 67.901596 256.167529 
L 66.289162 256.167529 
z
" style="fill:#1f77b4;"/>
   </g>
   <g id="patch_7">
    <path clip-path="url(#p09a471a6fb)" d="M 67.901596 273.312 
L 69.51403 273.312 
L 69.51403 252.440471 
L 67.901596 252.440471 
z
" style="fill:#1f77b4;"/>
   </g>
   <g id="patch_8">
    <path clip-path="url(#p09a471a6fb)" d="M 69.51403 273.312 
L 71.126464 273.312 
L 71.126464 246.477176 
L 69.51403 246.477176 
z
" style="fill:#1f77b4;"/>
   </g>
   <g id="patch_9">
    <path clip-path="url(#p09a471a6fb)" d="M 71.126464 273.312 
L 72.738898 273.312 
L 72.738898 243.495529 
L 71.126464 243.495529 
z
" style="fill:#1f77b4;"/>
   </g>
   <g id="patch_10">
    <path clip-path="url(#p09a471a6fb)" d="M 72.738898 273.312 
L 74.351332 273.312 
L 74.351332 248.713412 
L 72.738898 248.713412 
z
" style="fill:#1f77b4;"/>
   </g>
   <g id="patch_11">
    <path clip-path="url(#p09a471a6fb)" d="M 74.351332 273.312 
L 75.963767 273.312 
L 75.963767 236.041412 
L 74.351332 236.041412 
z
" style="fill:#1f77b4;"/>
   </g>
   <g id="patch_12">
    <path clip-path="url(#p09a471a6fb)" d="M 75.963767 273.312 
L 77.576201 273.312 
L 77.576201 233.805176 
L 75.963767 233.805176 
z
" style="fill:#1f77b4;"/>
   </g>
   <g id="patch_13">
    <path clip-path="url(#p09a471a6fb)" d="M 77.576201 273.312 
L 79.188635 273.312 
L 79.188635 228.587294 
L 77.576201 228.587294 
z
" style="fill:#1f77b4;"/>
   </g>
   <g id="patch_14">
    <path clip-path="url(#p09a471a6fb)" d="M 79.188635 273.312 
L 80.801069 273.312 
L 80.801069 233.805176 
L 79.188635 233.805176 
z
" style="fill:#1f77b4;"/>
   </g>
   <g id="patch_15">
    <path clip-path="url(#p09a471a6fb)" d="M 80.801069 273.312 
L 82.413503 273.312 
L 82.413503 217.406118 
L 80.801069 217.406118 
z
" style="fill:#1f77b4;"/>
   </g>
   <g id="patch_16">
    <path clip-path="url(#p09a471a6fb)" d="M 82.413503 273.312 
L 84.025938 273.312 
L 84.025938 219.642353 
L 82.413503 219.642353 
z
" style="fill:#1f77b4;"/>
   </g>
   <g id="patch_17">
    <path clip-path="url(#p09a471a6fb)" d="M 84.025938 273.312 
L 85.638372 273.312 
L 85.638372 221.133176 
L 84.025938 221.133176 
z
" style="fill:#1f77b4;"/>
   </g>
   <g id="patch_18">
    <path clip-path="url(#p09a471a6fb)" d="M 85.638372 273.312 
L 87.250806 273.312 
L 87.250806 191.316706 
L 85.638372 191.316706 
z
" style="fill:#1f77b4;"/>
   </g>
   <g id="patch_19">
    <path clip-path="url(#p09a471a6fb)" d="M 87.250806 273.312 
L 88.86324 273.312 
L 88.86324 205.479529 
L 87.250806 205.479529 
z
" style="fill:#1f77b4;"/>
   </g>
   <g id="patch_20">
    <path clip-path="url(#p09a471a6fb)" d="M 88.86324 273.312 
L 90.475674 273.312 
L 90.475674 202.497882 
L 88.86324 202.497882 
z
" style="fill:#1f77b4;"/>
   </g>
   <g id="patch_21">
    <path clip-path="url(#p09a471a6fb)" d="M 90.475674 273.312 
L 92.088108 273.312 
L 92.088108 203.988706 
L 90.475674 203.988706 
z
" style="fill:#1f77b4;"/>
   </g>
   <g id="patch_22">
    <path clip-path="url(#p09a471a6fb)" d="M 92.088108 273.312 
L 93.700543 273.312 
L 93.700543 206.224941 
L 92.088108 206.224941 
z
" style="fill:#1f77b4;"/>
   </g>
   <g id="patch_23">
    <path clip-path="url(#p09a471a6fb)" d="M 93.700543 273.312 
L 95.312977 273.312 
L 95.312977 198.025412 
L 93.700543 198.025412 
z
" style="fill:#1f77b4;"/>
   </g>
   <g id="patch_24">
    <path clip-path="url(#p09a471a6fb)" d="M 95.312977 273.312 
L 96.925411 273.312 
L 96.925411 192.807529 
L 95.312977 192.807529 
z
" style="fill:#1f77b4;"/>
   </g>
   <g id="patch_25">
    <path clip-path="url(#p09a471a6fb)" d="M 96.925411 273.312 
L 98.537845 273.312 
L 98.537845 188.335059 
L 96.925411 188.335059 
z
" style="fill:#1f77b4;"/>
   </g>
   <g id="patch_26">
    <path clip-path="url(#p09a471a6fb)" d="M 98.537845 273.312 
L 100.150279 273.312 
L 100.150279 174.917647 
L 98.537845 174.917647 
z
" style="fill:#1f77b4;"/>
   </g>
   <g id="patch_27">
    <path clip-path="url(#p09a471a6fb)" d="M 100.150279 273.312 
L 101.762714 273.312 
L 101.762714 174.172235 
L 100.150279 174.172235 
z
" style="fill:#1f77b4;"/>
   </g>
   <g id="patch_28">
    <path clip-path="url(#p09a471a6fb)" d="M 101.762714 273.312 
L 103.375148 273.312 
L 103.375148 193.552941 
L 101.762714 193.552941 
z
" style="fill:#1f77b4;"/>
   </g>
   <g id="patch_29">
    <path clip-path="url(#p09a471a6fb)" d="M 103.375148 273.312 
L 104.987582 273.312 
L 104.987582 185.353412 
L 103.375148 185.353412 
z
" style="fill:#1f77b4;"/>
   </g>
   <g id="patch_30">
    <path clip-path="url(#p09a471a6fb)" d="M 104.987582 273.312 
L 106.600016 273.312 
L 106.600016 169.699765 
L 104.987582 169.699765 
z
" style="fill:#1f77b4;"/>
   </g>
   <g id="patch_31">
    <path clip-path="url(#p09a471a6fb)" d="M 106.600016 273.312 
L 108.21245 273.312 
L 108.21245 149.573647 
L 106.600016 149.573647 
z
" style="fill:#1f77b4;"/>
   </g>
   <g id="patch_32">
    <path clip-path="url(#p09a471a6fb)" d="M 108.21245 273.312 
L 109.824884 273.312 
L 109.824884 174.172235 
L 108.21245 174.172235 
z
" style="fill:#1f77b4;"/>
   </g>
   <g id="patch_33">
    <path clip-path="url(#p09a471a6fb)" d="M 109.824884 273.312 
L 111.437319 273.312 
L 111.437319 168.954353 
L 109.824884 168.954353 
z
" style="fill:#1f77b4;"/>
   </g>
   <g id="patch_34">
    <path clip-path="url(#p09a471a6fb)" d="M 111.437319 273.312 
L 113.049753 273.312 
L 113.049753 176.408471 
L 111.437319 176.408471 
z
" style="fill:#1f77b4;"/>
   </g>
   <g id="patch_35">
    <path clip-path="url(#p09a471a6fb)" d="M 113.049753 273.312 
L 114.662187 273.312 
L 114.662187 140.628706 
L 113.049753 140.628706 
z
" style="fill:#1f77b4;"/>
   </g>
   <g id="patch_36">
    <path clip-path="url(#p09a471a6fb)" d="M 114.662187 273.312 
L 116.274621 273.312 
L 116.274621 148.828235 
L 114.662187 148.828235 
z
" style="fill:#1f77b4;"/>
   </g>
   <g id="patch_37">
    <path clip-path="url(#p09a471a6fb)" d="M 116.274621 273.312 
L 117.887055 273.312 
L 117.887055 155.536941 
L 116.274621 155.536941 
z
" style="fill:#1f77b4;"/>
   </g>
   <g id="patch_38">
    <path clip-path="url(#p09a471a6fb)" d="M 117.887055 273.312 
L 119.49949 273.312 
L 119.49949 136.156235 
L 117.887055 136.156235 
z
" style="fill:#1f77b4;"/>
   </g>
   <g id="patch_39">
    <path clip-path="url(#p09a471a6fb)" d="M 119.49949 273.312 
L 121.111924 273.312 
L 121.111924 142.119529 
L 119.49949 142.119529 
z
" style="fill:#1f77b4;"/>
   </g>
   <g id="patch_40">
    <path clip-path="url(#p09a471a6fb)" d="M 121.111924 273.312 
L 122.724358 273.312 
L 122.724358 156.282353 
L 121.111924 156.282353 
z
" style="fill:#1f77b4;"/>
   </g>
   <g id="patch_41">
    <path clip-path="url(#p09a471a6fb)" d="M 122.724358 273.312 
L 124.336792 273.312 
L 124.336792 136.901647 
L 122.724358 136.901647 
z
" style="fill:#1f77b4;"/>
   </g>
   <g id="patch_42">
    <path clip-path="url(#p09a471a6fb)" d="M 124.336792 273.312 
L 125.949226 273.312 
L 125.949226 141.374118 
L 124.336792 141.374118 
z
" style="fill:#1f77b4;"/>
   </g>
   <g id="patch_43">
    <path clip-path="url(#p09a471a6fb)" d="M 125.949226 273.312 
L 127.56166 273.312 
L 127.56166 119.757176 
L 125.949226 119.757176 
z
" style="fill:#1f77b4;"/>
   </g>
   <g id="patch_44">
    <path clip-path="url(#p09a471a6fb)" d="M 127.56166 273.312 
L 129.174095 273.312 
L 129.174095 113.793882 
L 127.56166 113.793882 
z
" style="fill:#1f77b4;"/>
   </g>
   <g id="patch_45">
    <path clip-path="url(#p09a471a6fb)" d="M 129.174095 273.312 
L 130.786529 273.312 
L 130.786529 119.757176 
L 129.174095 119.757176 
z
" style="fill:#1f77b4;"/>
   </g>
   <g id="patch_46">
    <path clip-path="url(#p09a471a6fb)" d="M 130.786529 273.312 
L 132.398963 273.312 
L 132.398963 118.266353 
L 130.786529 118.266353 
z
" style="fill:#1f77b4;"/>
   </g>
   <g id="patch_47">
    <path clip-path="url(#p09a471a6fb)" d="M 132.398963 273.312 
L 134.011397 273.312 
L 134.011397 122.738824 
L 132.398963 122.738824 
z
" style="fill:#1f77b4;"/>
   </g>
   <g id="patch_48">
    <path clip-path="url(#p09a471a6fb)" d="M 134.011397 273.312 
L 135.623831 273.312 
L 135.623831 122.738824 
L 134.011397 122.738824 
z
" style="fill:#1f77b4;"/>
   </g>
   <g id="patch_49">
    <path clip-path="url(#p09a471a6fb)" d="M 135.623831 273.312 
L 137.236266 273.312 
L 137.236266 110.812235 
L 135.623831 110.812235 
z
" style="fill:#1f77b4;"/>
   </g>
   <g id="patch_50">
    <path clip-path="url(#p09a471a6fb)" d="M 137.236266 273.312 
L 138.8487 273.312 
L 138.8487 128.702118 
L 137.236266 128.702118 
z
" style="fill:#1f77b4;"/>
   </g>
   <g id="patch_51">
    <path clip-path="url(#p09a471a6fb)" d="M 138.8487 273.312 
L 140.461134 273.312 
L 140.461134 94.413176 
L 138.8487 94.413176 
z
" style="fill:#1f77b4;"/>
   </g>
   <g id="patch_52">
    <path clip-path="url(#p09a471a6fb)" d="M 140.461134 273.312 
L 142.073568 273.312 
L 142.073568 97.394824 
L 140.461134 97.394824 
z
" style="fill:#1f77b4;"/>
   </g>
   <g id="patch_53">
    <path clip-path="url(#p09a471a6fb)" d="M 142.073568 273.312 
L 143.686002 273.312 
L 143.686002 113.793882 
L 142.073568 113.793882 
z
" style="fill:#1f77b4;"/>
   </g>
   <g id="patch_54">
    <path clip-path="url(#p09a471a6fb)" d="M 143.686002 273.312 
L 145.298436 273.312 
L 145.298436 103.358118 
L 143.686002 103.358118 
z
" style="fill:#1f77b4;"/>
   </g>
   <g id="patch_55">
    <path clip-path="url(#p09a471a6fb)" d="M 145.298436 273.312 
L 146.910871 273.312 
L 146.910871 103.358118 
L 145.298436 103.358118 
z
" style="fill:#1f77b4;"/>
   </g>
   <g id="patch_56">
    <path clip-path="url(#p09a471a6fb)" d="M 146.910871 273.312 
L 148.523305 273.312 
L 148.523305 110.066824 
L 146.910871 110.066824 
z
" style="fill:#1f77b4;"/>
   </g>
   <g id="patch_57">
    <path clip-path="url(#p09a471a6fb)" d="M 148.523305 273.312 
L 150.135739 273.312 
L 150.135739 69.814588 
L 148.523305 69.814588 
z
" style="fill:#1f77b4;"/>
   </g>
   <g id="patch_58">
    <path clip-path="url(#p09a471a6fb)" d="M 150.135739 273.312 
L 151.748173 273.312 
L 151.748173 86.959059 
L 150.135739 86.959059 
z
" style="fill:#1f77b4;"/>
   </g>
   <g id="patch_59">
    <path clip-path="url(#p09a471a6fb)" d="M 151.748173 273.312 
L 153.360607 273.312 
L 153.360607 101.121882 
L 151.748173 101.121882 
z
" style="fill:#1f77b4;"/>
   </g>
   <g id="patch_60">
    <path clip-path="url(#p09a471a6fb)" d="M 153.360607 273.312 
L 154.973042 273.312 
L 154.973042 73.541647 
L 153.360607 73.541647 
z
" style="fill:#1f77b4;"/>
   </g>
   <g id="patch_61">
    <path clip-path="url(#p09a471a6fb)" d="M 154.973042 273.312 
L 156.585476 273.312 
L 156.585476 81.741176 
L 154.973042 81.741176 
z
" style="fill:#1f77b4;"/>
   </g>
   <g id="patch_62">
    <path clip-path="url(#p09a471a6fb)" d="M 156.585476 273.312 
L 158.19791 273.312 
L 158.19791 86.959059 
L 156.585476 86.959059 
z
" style="fill:#1f77b4;"/>
   </g>
   <g id="patch_63">
    <path clip-path="url(#p09a471a6fb)" d="M 158.19791 273.312 
L 159.810344 273.312 
L 159.810344 84.722824 
L 158.19791 84.722824 
z
" style="fill:#1f77b4;"/>
   </g>
   <g id="patch_64">
    <path clip-path="url(#p09a471a6fb)" d="M 159.810344 273.312 
L 161.422778 273.312 
L 161.422778 63.105882 
L 159.810344 63.105882 
z
" style="fill:#1f77b4;"/>
   </g>
   <g id="patch_65">
    <path clip-path="url(#p09a471a6fb)" d="M 161.422778 273.312 
L 163.035212 273.312 
L 163.035212 78.759529 
L 161.422778 78.759529 
z
" style="fill:#1f77b4;"/>
   </g>
   <g id="patch_66">
    <path clip-path="url(#p09a471a6fb)" d="M 163.035212 273.312 
L 164.647647 273.312 
L 164.647647 95.158588 
L 163.035212 95.158588 
z
" style="fill:#1f77b4;"/>
   </g>
   <g id="patch_67">
    <path clip-path="url(#p09a471a6fb)" d="M 164.647647 273.312 
L 166.260081 273.312 
L 166.260081 63.851294 
L 164.647647 63.851294 
z
" style="fill:#1f77b4;"/>
   </g>
   <g id="patch_68">
    <path clip-path="url(#p09a471a6fb)" d="M 166.260081 273.312 
L 167.872515 273.312 
L 167.872515 76.523294 
L 166.260081 76.523294 
z
" style="fill:#1f77b4;"/>
   </g>
   <g id="patch_69">
    <path clip-path="url(#p09a471a6fb)" d="M 167.872515 273.312 
L 169.484949 273.312 
L 169.484949 96.649412 
L 167.872515 96.649412 
z
" style="fill:#1f77b4;"/>
   </g>
   <g id="patch_70">
    <path clip-path="url(#p09a471a6fb)" d="M 169.484949 273.312 
L 171.097383 273.312 
L 171.097383 74.287059 
L 169.484949 74.287059 
z
" style="fill:#1f77b4;"/>
   </g>
   <g id="patch_71">
    <path clip-path="url(#p09a471a6fb)" d="M 171.097383 273.312 
L 172.709817 273.312 
L 172.709817 58.633412 
L 171.097383 58.633412 
z
" style="fill:#1f77b4;"/>
   </g>
   <g id="patch_72">
    <path clip-path="url(#p09a471a6fb)" d="M 172.709817 273.312 
L 174.322252 273.312 
L 174.322252 69.069176 
L 172.709817 69.069176 
z
" style="fill:#1f77b4;"/>
   </g>
   <g id="patch_73">
    <path clip-path="url(#p09a471a6fb)" d="M 174.322252 273.312 
L 175.934686 273.312 
L 175.934686 78.759529 
L 174.322252 78.759529 
z
" style="fill:#1f77b4;"/>
   </g>
   <g id="patch_74">
    <path clip-path="url(#p09a471a6fb)" d="M 175.934686 273.312 
L 177.54712 273.312 
L 177.54712 35.525647 
L 175.934686 35.525647 
z
" style="fill:#1f77b4;"/>
   </g>
   <g id="patch_75">
    <path clip-path="url(#p09a471a6fb)" d="M 177.54712 273.312 
L 179.159554 273.312 
L 179.159554 74.287059 
L 177.54712 74.287059 
z
" style="fill:#1f77b4;"/>
   </g>
   <g id="patch_76">
    <path clip-path="url(#p09a471a6fb)" d="M 179.159554 273.312 
L 180.771988 273.312 
L 180.771988 60.869647 
L 179.159554 60.869647 
z
" style="fill:#1f77b4;"/>
   </g>
   <g id="patch_77">
    <path clip-path="url(#p09a471a6fb)" d="M 180.771988 273.312 
L 182.384423 273.312 
L 182.384423 83.232 
L 180.771988 83.232 
z
" style="fill:#1f77b4;"/>
   </g>
   <g id="patch_78">
    <path clip-path="url(#p09a471a6fb)" d="M 182.384423 273.312 
L 183.996857 273.312 
L 183.996857 62.360471 
L 182.384423 62.360471 
z
" style="fill:#1f77b4;"/>
   </g>
   <g id="patch_79">
    <path clip-path="url(#p09a471a6fb)" d="M 183.996857 273.312 
L 185.609291 273.312 
L 185.609291 59.378824 
L 183.996857 59.378824 
z
" style="fill:#1f77b4;"/>
   </g>
   <g id="patch_80">
    <path clip-path="url(#p09a471a6fb)" d="M 185.609291 273.312 
L 187.221725 273.312 
L 187.221725 60.124235 
L 185.609291 60.124235 
z
" style="fill:#1f77b4;"/>
   </g>
   <g id="patch_81">
    <path clip-path="url(#p09a471a6fb)" d="M 187.221725 273.312 
L 188.834159 273.312 
L 188.834159 48.943059 
L 187.221725 48.943059 
z
" style="fill:#1f77b4;"/>
   </g>
   <g id="patch_82">
    <path clip-path="url(#p09a471a6fb)" d="M 188.834159 273.312 
L 190.446593 273.312 
L 190.446593 57.142588 
L 188.834159 57.142588 
z
" style="fill:#1f77b4;"/>
   </g>
   <g id="patch_83">
    <path clip-path="url(#p09a471a6fb)" d="M 190.446593 273.312 
L 192.059028 273.312 
L 192.059028 28.816941 
L 190.446593 28.816941 
z
" style="fill:#1f77b4;"/>
   </g>
   <g id="patch_84">
    <path clip-path="url(#p09a471a6fb)" d="M 192.059028 273.312 
L 193.671462 273.312 
L 193.671462 43.725176 
L 192.059028 43.725176 
z
" style="fill:#1f77b4;"/>
   </g>
   <g id="patch_85">
    <path clip-path="url(#p09a471a6fb)" d="M 193.671462 273.312 
L 195.283896 273.312 
L 195.283896 56.397176 
L 193.671462 56.397176 
z
" style="fill:#1f77b4;"/>
   </g>
   <g id="patch_86">
    <path clip-path="url(#p09a471a6fb)" d="M 195.283896 273.312 
L 196.89633 273.312 
L 196.89633 26.580706 
L 195.283896 26.580706 
z
" style="fill:#1f77b4;"/>
   </g>
   <g id="patch_87">
    <path clip-path="url(#p09a471a6fb)" d="M 196.89633 273.312 
L 198.508764 273.312 
L 198.508764 34.780235 
L 196.89633 34.780235 
z
" style="fill:#1f77b4;"/>
   </g>
   <g id="patch_88">
    <path clip-path="url(#p09a471a6fb)" d="M 198.508764 273.312 
L 200.121199 273.312 
L 200.121199 29.562353 
L 198.508764 29.562353 
z
" style="fill:#1f77b4;"/>
   </g>
   <g id="patch_89">
    <path clip-path="url(#p09a471a6fb)" d="M 200.121199 273.312 
L 201.733633 273.312 
L 201.733633 19.872 
L 200.121199 19.872 
z
" style="fill:#1f77b4;"/>
   </g>
   <g id="patch_90">
    <path clip-path="url(#p09a471a6fb)" d="M 201.733633 273.312 
L 203.346067 273.312 
L 203.346067 29.562353 
L 201.733633 29.562353 
z
" style="fill:#1f77b4;"/>
   </g>
   <g id="patch_91">
    <path clip-path="url(#p09a471a6fb)" d="M 203.346067 273.312 
L 204.958501 273.312 
L 204.958501 27.326118 
L 203.346067 27.326118 
z
" style="fill:#1f77b4;"/>
   </g>
   <g id="patch_92">
    <path clip-path="url(#p09a471a6fb)" d="M 204.958501 273.312 
L 206.570935 273.312 
L 206.570935 69.069176 
L 204.958501 69.069176 
z
" style="fill:#1f77b4;"/>
   </g>
   <g id="patch_93">
    <path clip-path="url(#p09a471a6fb)" d="M 206.570935 273.312 
L 208.183369 273.312 
L 208.183369 37.761882 
L 206.570935 37.761882 
z
" style="fill:#1f77b4;"/>
   </g>
   <g id="patch_94">
    <path clip-path="url(#p09a471a6fb)" d="M 208.183369 273.312 
L 209.795804 273.312 
L 209.795804 26.580706 
L 208.183369 26.580706 
z
" style="fill:#1f77b4;"/>
   </g>
   <g id="patch_95">
    <path clip-path="url(#p09a471a6fb)" d="M 209.795804 273.312 
L 211.408238 273.312 
L 211.408238 57.142588 
L 209.795804 57.142588 
z
" style="fill:#1f77b4;"/>
   </g>
   <g id="patch_96">
    <path clip-path="url(#p09a471a6fb)" d="M 211.408238 273.312 
L 213.020672 273.312 
L 213.020672 51.924706 
L 211.408238 51.924706 
z
" style="fill:#1f77b4;"/>
   </g>
   <g id="patch_97">
    <path clip-path="url(#p09a471a6fb)" d="M 213.020672 273.312 
L 214.633106 273.312 
L 214.633106 56.397176 
L 213.020672 56.397176 
z
" style="fill:#1f77b4;"/>
   </g>
   <g id="patch_98">
    <path clip-path="url(#p09a471a6fb)" d="M 214.633106 273.312 
L 216.24554 273.312 
L 216.24554 60.869647 
L 214.633106 60.869647 
z
" style="fill:#1f77b4;"/>
   </g>
   <g id="patch_99">
    <path clip-path="url(#p09a471a6fb)" d="M 216.24554 273.312 
L 217.857975 273.312 
L 217.857975 51.924706 
L 216.24554 51.924706 
z
" style="fill:#1f77b4;"/>
   </g>
   <g id="patch_100">
    <path clip-path="url(#p09a471a6fb)" d="M 217.857975 273.312 
L 219.470409 273.312 
L 219.470409 57.142588 
L 217.857975 57.142588 
z
" style="fill:#1f77b4;"/>
   </g>
   <g id="patch_101">
    <path clip-path="url(#p09a471a6fb)" d="M 219.470409 273.312 
L 221.082843 273.312 
L 221.082843 57.888 
L 219.470409 57.888 
z
" style="fill:#1f77b4;"/>
   </g>
   <g id="patch_102">
    <path clip-path="url(#p09a471a6fb)" d="M 221.082843 273.312 
L 222.695277 273.312 
L 222.695277 37.761882 
L 221.082843 37.761882 
z
" style="fill:#1f77b4;"/>
   </g>
   <g id="patch_103">
    <path clip-path="url(#p09a471a6fb)" d="M 222.695277 273.312 
L 224.307711 273.312 
L 224.307711 48.197647 
L 222.695277 48.197647 
z
" style="fill:#1f77b4;"/>
   </g>
   <g id="patch_104">
    <path clip-path="url(#p09a471a6fb)" d="M 224.307711 273.312 
L 225.920145 273.312 
L 225.920145 46.706824 
L 224.307711 46.706824 
z
" style="fill:#1f77b4;"/>
   </g>
   <g id="patch_105">
    <path clip-path="url(#p09a471a6fb)" d="M 225.920145 273.312 
L 227.53258 273.312 
L 227.53258 30.307765 
L 225.920145 30.307765 
z
" style="fill:#1f77b4;"/>
   </g>
   <g id="patch_106">
    <path clip-path="url(#p09a471a6fb)" d="M 227.53258 273.312 
L 229.145014 273.312 
L 229.145014 48.943059 
L 227.53258 48.943059 
z
" style="fill:#1f77b4;"/>
   </g>
   <g id="patch_107">
    <path clip-path="url(#p09a471a6fb)" d="M 229.145014 273.312 
L 230.757448 273.312 
L 230.757448 25.089882 
L 229.145014 25.089882 
z
" style="fill:#1f77b4;"/>
   </g>
   <g id="patch_108">
    <path clip-path="url(#p09a471a6fb)" d="M 230.757448 273.312 
L 232.369882 273.312 
L 232.369882 49.688471 
L 230.757448 49.688471 
z
" style="fill:#1f77b4;"/>
   </g>
   <g id="patch_109">
    <path clip-path="url(#p09a471a6fb)" d="M 232.369882 273.312 
L 233.982316 273.312 
L 233.982316 29.562353 
L 232.369882 29.562353 
z
" style="fill:#1f77b4;"/>
   </g>
   <g id="patch_110">
    <path clip-path="url(#p09a471a6fb)" d="M 233.982316 273.312 
L 235.594751 273.312 
L 235.594751 34.034824 
L 233.982316 34.034824 
z
" style="fill:#1f77b4;"/>
   </g>
   <g id="patch_111">
    <path clip-path="url(#p09a471a6fb)" d="M 235.594751 273.312 
L 237.207185 273.312 
L 237.207185 56.397176 
L 235.594751 56.397176 
z
" style="fill:#1f77b4;"/>
   </g>
   <g id="patch_112">
    <path clip-path="url(#p09a471a6fb)" d="M 237.207185 273.312 
L 238.819619 273.312 
L 238.819619 45.961412 
L 237.207185 45.961412 
z
" style="fill:#1f77b4;"/>
   </g>
   <g id="patch_113">
    <path clip-path="url(#p09a471a6fb)" d="M 238.819619 273.312 
L 240.432053 273.312 
L 240.432053 22.108235 
L 238.819619 22.108235 
z
" style="fill:#1f77b4;"/>
   </g>
   <g id="patch_114">
    <path clip-path="url(#p09a471a6fb)" d="M 240.432053 273.312 
L 242.044487 273.312 
L 242.044487 42.234353 
L 240.432053 42.234353 
z
" style="fill:#1f77b4;"/>
   </g>
   <g id="patch_115">
    <path clip-path="url(#p09a471a6fb)" d="M 242.044487 273.312 
L 243.656921 273.312 
L 243.656921 42.234353 
L 242.044487 42.234353 
z
" style="fill:#1f77b4;"/>
   </g>
   <g id="patch_116">
    <path clip-path="url(#p09a471a6fb)" d="M 243.656921 273.312 
L 245.269356 273.312 
L 245.269356 54.906353 
L 243.656921 54.906353 
z
" style="fill:#1f77b4;"/>
   </g>
   <g id="patch_117">
    <path clip-path="url(#p09a471a6fb)" d="M 245.269356 273.312 
L 246.88179 273.312 
L 246.88179 60.124235 
L 245.269356 60.124235 
z
" style="fill:#1f77b4;"/>
   </g>
   <g id="patch_118">
    <path clip-path="url(#p09a471a6fb)" d="M 246.88179 273.312 
L 248.494224 273.312 
L 248.494224 42.234353 
L 246.88179 42.234353 
z
" style="fill:#1f77b4;"/>
   </g>
   <g id="patch_119">
    <path clip-path="url(#p09a471a6fb)" d="M 248.494224 273.312 
L 250.106658 273.312 
L 250.106658 66.832941 
L 248.494224 66.832941 
z
" style="fill:#1f77b4;"/>
   </g>
   <g id="patch_120">
    <path clip-path="url(#p09a471a6fb)" d="M 250.106658 273.312 
L 251.719092 273.312 
L 251.719092 42.979765 
L 250.106658 42.979765 
z
" style="fill:#1f77b4;"/>
   </g>
   <g id="patch_121">
    <path clip-path="url(#p09a471a6fb)" d="M 251.719092 273.312 
L 253.331527 273.312 
L 253.331527 39.252706 
L 251.719092 39.252706 
z
" style="fill:#1f77b4;"/>
   </g>
   <g id="patch_122">
    <path clip-path="url(#p09a471a6fb)" d="M 253.331527 273.312 
L 254.943961 273.312 
L 254.943961 59.378824 
L 253.331527 59.378824 
z
" style="fill:#1f77b4;"/>
   </g>
   <g id="patch_123">
    <path clip-path="url(#p09a471a6fb)" d="M 254.943961 273.312 
L 256.556395 273.312 
L 256.556395 36.271059 
L 254.943961 36.271059 
z
" style="fill:#1f77b4;"/>
   </g>
   <g id="patch_124">
    <path clip-path="url(#p09a471a6fb)" d="M 256.556395 273.312 
L 258.168829 273.312 
L 258.168829 83.977412 
L 256.556395 83.977412 
z
" style="fill:#1f77b4;"/>
   </g>
   <g id="patch_125">
    <path clip-path="url(#p09a471a6fb)" d="M 258.168829 273.312 
L 259.781263 273.312 
L 259.781263 55.651765 
L 258.168829 55.651765 
z
" style="fill:#1f77b4;"/>
   </g>
   <g id="patch_126">
    <path clip-path="url(#p09a471a6fb)" d="M 259.781263 273.312 
L 261.393697 273.312 
L 261.393697 52.670118 
L 259.781263 52.670118 
z
" style="fill:#1f77b4;"/>
   </g>
   <g id="patch_127">
    <path clip-path="url(#p09a471a6fb)" d="M 261.393697 273.312 
L 263.006132 273.312 
L 263.006132 49.688471 
L 261.393697 49.688471 
z
" style="fill:#1f77b4;"/>
   </g>
   <g id="patch_128">
    <path clip-path="url(#p09a471a6fb)" d="M 263.006132 273.312 
L 264.618566 273.312 
L 264.618566 42.234353 
L 263.006132 42.234353 
z
" style="fill:#1f77b4;"/>
   </g>
   <g id="patch_129">
    <path clip-path="url(#p09a471a6fb)" d="M 264.618566 273.312 
L 266.231 273.312 
L 266.231 57.888 
L 264.618566 57.888 
z
" style="fill:#1f77b4;"/>
   </g>
   <g id="patch_130">
    <path clip-path="url(#p09a471a6fb)" d="M 266.231 273.312 
L 267.843434 273.312 
L 267.843434 60.124235 
L 266.231 60.124235 
z
" style="fill:#1f77b4;"/>
   </g>
   <g id="patch_131">
    <path clip-path="url(#p09a471a6fb)" d="M 267.843434 273.312 
L 269.455868 273.312 
L 269.455868 63.105882 
L 267.843434 63.105882 
z
" style="fill:#1f77b4;"/>
   </g>
   <g id="patch_132">
    <path clip-path="url(#p09a471a6fb)" d="M 269.455868 273.312 
L 271.068302 273.312 
L 271.068302 56.397176 
L 269.455868 56.397176 
z
" style="fill:#1f77b4;"/>
   </g>
   <g id="patch_133">
    <path clip-path="url(#p09a471a6fb)" d="M 271.068302 273.312 
L 272.680737 273.312 
L 272.680737 77.268706 
L 271.068302 77.268706 
z
" style="fill:#1f77b4;"/>
   </g>
   <g id="patch_134">
    <path clip-path="url(#p09a471a6fb)" d="M 272.680737 273.312 
L 274.293171 273.312 
L 274.293171 44.470588 
L 272.680737 44.470588 
z
" style="fill:#1f77b4;"/>
   </g>
   <g id="patch_135">
    <path clip-path="url(#p09a471a6fb)" d="M 274.293171 273.312 
L 275.905605 273.312 
L 275.905605 83.232 
L 274.293171 83.232 
z
" style="fill:#1f77b4;"/>
   </g>
   <g id="patch_136">
    <path clip-path="url(#p09a471a6fb)" d="M 275.905605 273.312 
L 277.518039 273.312 
L 277.518039 55.651765 
L 275.905605 55.651765 
z
" style="fill:#1f77b4;"/>
   </g>
   <g id="patch_137">
    <path clip-path="url(#p09a471a6fb)" d="M 277.518039 273.312 
L 279.130473 273.312 
L 279.130473 82.486588 
L 277.518039 82.486588 
z
" style="fill:#1f77b4;"/>
   </g>
   <g id="patch_138">
    <path clip-path="url(#p09a471a6fb)" d="M 279.130473 273.312 
L 280.742908 273.312 
L 280.742908 88.449882 
L 279.130473 88.449882 
z
" style="fill:#1f77b4;"/>
   </g>
   <g id="patch_139">
    <path clip-path="url(#p09a471a6fb)" d="M 280.742908 273.312 
L 282.355342 273.312 
L 282.355342 80.995765 
L 280.742908 80.995765 
z
" style="fill:#1f77b4;"/>
   </g>
   <g id="patch_140">
    <path clip-path="url(#p09a471a6fb)" d="M 282.355342 273.312 
L 283.967776 273.312 
L 283.967776 69.814588 
L 282.355342 69.814588 
z
" style="fill:#1f77b4;"/>
   </g>
   <g id="patch_141">
    <path clip-path="url(#p09a471a6fb)" d="M 283.967776 273.312 
L 285.58021 273.312 
L 285.58021 79.504941 
L 283.967776 79.504941 
z
" style="fill:#1f77b4;"/>
   </g>
   <g id="patch_142">
    <path clip-path="url(#p09a471a6fb)" d="M 285.58021 273.312 
L 287.192644 273.312 
L 287.192644 80.995765 
L 285.58021 80.995765 
z
" style="fill:#1f77b4;"/>
   </g>
   <g id="patch_143">
    <path clip-path="url(#p09a471a6fb)" d="M 287.192644 273.312 
L 288.805078 273.312 
L 288.805078 92.176941 
L 287.192644 92.176941 
z
" style="fill:#1f77b4;"/>
   </g>
   <g id="patch_144">
    <path clip-path="url(#p09a471a6fb)" d="M 288.805078 273.312 
L 290.417513 273.312 
L 290.417513 118.266353 
L 288.805078 118.266353 
z
" style="fill:#1f77b4;"/>
   </g>
   <g id="patch_145">
    <path clip-path="url(#p09a471a6fb)" d="M 290.417513 273.312 
L 292.029947 273.312 
L 292.029947 95.904 
L 290.417513 95.904 
z
" style="fill:#1f77b4;"/>
   </g>
   <g id="patch_146">
    <path clip-path="url(#p09a471a6fb)" d="M 292.029947 273.312 
L 293.642381 273.312 
L 293.642381 106.339765 
L 292.029947 106.339765 
z
" style="fill:#1f77b4;"/>
   </g>
   <g id="patch_147">
    <path clip-path="url(#p09a471a6fb)" d="M 293.642381 273.312 
L 295.254815 273.312 
L 295.254815 109.321412 
L 293.642381 109.321412 
z
" style="fill:#1f77b4;"/>
   </g>
   <g id="patch_148">
    <path clip-path="url(#p09a471a6fb)" d="M 295.254815 273.312 
L 296.867249 273.312 
L 296.867249 95.904 
L 295.254815 95.904 
z
" style="fill:#1f77b4;"/>
   </g>
   <g id="patch_149">
    <path clip-path="url(#p09a471a6fb)" d="M 296.867249 273.312 
L 298.479684 273.312 
L 298.479684 108.576 
L 296.867249 108.576 
z
" style="fill:#1f77b4;"/>
   </g>
   <g id="patch_150">
    <path clip-path="url(#p09a471a6fb)" d="M 298.479684 273.312 
L 300.092118 273.312 
L 300.092118 108.576 
L 298.479684 108.576 
z
" style="fill:#1f77b4;"/>
   </g>
   <g id="patch_151">
    <path clip-path="url(#p09a471a6fb)" d="M 300.092118 273.312 
L 301.704552 273.312 
L 301.704552 113.793882 
L 300.092118 113.793882 
z
" style="fill:#1f77b4;"/>
   </g>
   <g id="patch_152">
    <path clip-path="url(#p09a471a6fb)" d="M 301.704552 273.312 
L 303.316986 273.312 
L 303.316986 98.140235 
L 301.704552 98.140235 
z
" style="fill:#1f77b4;"/>
   </g>
   <g id="patch_153">
    <path clip-path="url(#p09a471a6fb)" d="M 303.316986 273.312 
L 304.92942 273.312 
L 304.92942 124.975059 
L 303.316986 124.975059 
z
" style="fill:#1f77b4;"/>
   </g>
   <g id="patch_154">
    <path clip-path="url(#p09a471a6fb)" d="M 304.92942 273.312 
L 306.541854 273.312 
L 306.541854 90.686118 
L 304.92942 90.686118 
z
" style="fill:#1f77b4;"/>
   </g>
   <g id="patch_155">
    <path clip-path="url(#p09a471a6fb)" d="M 306.541854 273.312 
L 308.154289 273.312 
L 308.154289 131.683765 
L 306.541854 131.683765 
z
" style="fill:#1f77b4;"/>
   </g>
   <g id="patch_156">
    <path clip-path="url(#p09a471a6fb)" d="M 308.154289 273.312 
L 309.766723 273.312 
L 309.766723 113.793882 
L 308.154289 113.793882 
z
" style="fill:#1f77b4;"/>
   </g>
   <g id="patch_157">
    <path clip-path="url(#p09a471a6fb)" d="M 309.766723 273.312 
L 311.379157 273.312 
L 311.379157 120.502588 
L 309.766723 120.502588 
z
" style="fill:#1f77b4;"/>
   </g>
   <g id="patch_158">
    <path clip-path="url(#p09a471a6fb)" d="M 311.379157 273.312 
L 312.991591 273.312 
L 312.991591 132.429176 
L 311.379157 132.429176 
z
" style="fill:#1f77b4;"/>
   </g>
   <g id="patch_159">
    <path clip-path="url(#p09a471a6fb)" d="M 312.991591 273.312 
L 314.604025 273.312 
L 314.604025 135.410824 
L 312.991591 135.410824 
z
" style="fill:#1f77b4;"/>
   </g>
   <g id="patch_160">
    <path clip-path="url(#p09a471a6fb)" d="M 314.604025 273.312 
L 316.21646 273.312 
L 316.21646 152.555294 
L 314.604025 152.555294 
z
" style="fill:#1f77b4;"/>
   </g>
   <g id="patch_161">
    <path clip-path="url(#p09a471a6fb)" d="M 316.21646 273.312 
L 317.828894 273.312 
L 317.828894 130.192941 
L 316.21646 130.192941 
z
" style="fill:#1f77b4;"/>
   </g>
   <g id="patch_162">
    <path clip-path="url(#p09a471a6fb)" d="M 317.828894 273.312 
L 319.441328 273.312 
L 319.441328 128.702118 
L 317.828894 128.702118 
z
" style="fill:#1f77b4;"/>
   </g>
   <g id="patch_163">
    <path clip-path="url(#p09a471a6fb)" d="M 319.441328 273.312 
L 321.053762 273.312 
L 321.053762 144.355765 
L 319.441328 144.355765 
z
" style="fill:#1f77b4;"/>
   </g>
   <g id="patch_164">
    <path clip-path="url(#p09a471a6fb)" d="M 321.053762 273.312 
L 322.666196 273.312 
L 322.666196 142.864941 
L 321.053762 142.864941 
z
" style="fill:#1f77b4;"/>
   </g>
   <g id="patch_165">
    <path clip-path="url(#p09a471a6fb)" d="M 322.666196 273.312 
L 324.27863 273.312 
L 324.27863 143.610353 
L 322.666196 143.610353 
z
" style="fill:#1f77b4;"/>
   </g>
   <g id="patch_166">
    <path clip-path="url(#p09a471a6fb)" d="M 324.27863 273.312 
L 325.891065 273.312 
L 325.891065 149.573647 
L 324.27863 149.573647 
z
" style="fill:#1f77b4;"/>
   </g>
   <g id="patch_167">
    <path clip-path="url(#p09a471a6fb)" d="M 325.891065 273.312 
L 327.503499 273.312 
L 327.503499 160.009412 
L 325.891065 160.009412 
z
" style="fill:#1f77b4;"/>
   </g>
   <g id="patch_168">
    <path clip-path="url(#p09a471a6fb)" d="M 327.503499 273.312 
L 329.115933 273.312 
L 329.115933 154.791529 
L 327.503499 154.791529 
z
" style="fill:#1f77b4;"/>
   </g>
   <g id="patch_169">
    <path clip-path="url(#p09a471a6fb)" d="M 329.115933 273.312 
L 330.728367 273.312 
L 330.728367 157.027765 
L 329.115933 157.027765 
z
" style="fill:#1f77b4;"/>
   </g>
   <g id="patch_170">
    <path clip-path="url(#p09a471a6fb)" d="M 330.728367 273.312 
L 332.340801 273.312 
L 332.340801 157.027765 
L 330.728367 157.027765 
z
" style="fill:#1f77b4;"/>
   </g>
   <g id="patch_171">
    <path clip-path="url(#p09a471a6fb)" d="M 332.340801 273.312 
L 333.953236 273.312 
L 333.953236 174.917647 
L 332.340801 174.917647 
z
" style="fill:#1f77b4;"/>
   </g>
   <g id="patch_172">
    <path clip-path="url(#p09a471a6fb)" d="M 333.953236 273.312 
L 335.56567 273.312 
L 335.56567 149.573647 
L 333.953236 149.573647 
z
" style="fill:#1f77b4;"/>
   </g>
   <g id="patch_173">
    <path clip-path="url(#p09a471a6fb)" d="M 335.56567 273.312 
L 337.178104 273.312 
L 337.178104 183.117176 
L 335.56567 183.117176 
z
" style="fill:#1f77b4;"/>
   </g>
   <g id="patch_174">
    <path clip-path="url(#p09a471a6fb)" d="M 337.178104 273.312 
L 338.790538 273.312 
L 338.790538 179.390118 
L 337.178104 179.390118 
z
" style="fill:#1f77b4;"/>
   </g>
   <g id="patch_175">
    <path clip-path="url(#p09a471a6fb)" d="M 338.790538 273.312 
L 340.402972 273.312 
L 340.402972 172.681412 
L 338.790538 172.681412 
z
" style="fill:#1f77b4;"/>
   </g>
   <g id="patch_176">
    <path clip-path="url(#p09a471a6fb)" d="M 340.402972 273.312 
L 342.015406 273.312 
L 342.015406 172.681412 
L 340.402972 172.681412 
z
" style="fill:#1f77b4;"/>
   </g>
   <g id="patch_177">
    <path clip-path="url(#p09a471a6fb)" d="M 342.015406 273.312 
L 343.627841 273.312 
L 343.627841 183.862588 
L 342.015406 183.862588 
z
" style="fill:#1f77b4;"/>
   </g>
   <g id="patch_178">
    <path clip-path="url(#p09a471a6fb)" d="M 343.627841 273.312 
L 345.240275 273.312 
L 345.240275 190.571294 
L 343.627841 190.571294 
z
" style="fill:#1f77b4;"/>
   </g>
   <g id="patch_179">
    <path clip-path="url(#p09a471a6fb)" d="M 345.240275 273.312 
L 346.852709 273.312 
L 346.852709 176.408471 
L 345.240275 176.408471 
z
" style="fill:#1f77b4;"/>
   </g>
   <g id="patch_180">
    <path clip-path="url(#p09a471a6fb)" d="M 346.852709 273.312 
L 348.465143 273.312 
L 348.465143 195.043765 
L 346.852709 195.043765 
z
" style="fill:#1f77b4;"/>
   </g>
   <g id="patch_181">
    <path clip-path="url(#p09a471a6fb)" d="M 348.465143 273.312 
L 350.077577 273.312 
L 350.077577 198.770824 
L 348.465143 198.770824 
z
" style="fill:#1f77b4;"/>
   </g>
   <g id="patch_182">
    <path clip-path="url(#p09a471a6fb)" d="M 350.077577 273.312 
L 351.690012 273.312 
L 351.690012 199.516235 
L 350.077577 199.516235 
z
" style="fill:#1f77b4;"/>
   </g>
   <g id="patch_183">
    <path clip-path="url(#p09a471a6fb)" d="M 351.690012 273.312 
L 353.302446 273.312 
L 353.302446 201.007059 
L 351.690012 201.007059 
z
" style="fill:#1f77b4;"/>
   </g>
   <g id="patch_184">
    <path clip-path="url(#p09a471a6fb)" d="M 353.302446 273.312 
L 354.91488 273.312 
L 354.91488 198.770824 
L 353.302446 198.770824 
z
" style="fill:#1f77b4;"/>
   </g>
   <g id="patch_185">
    <path clip-path="url(#p09a471a6fb)" d="M 354.91488 273.312 
L 356.527314 273.312 
L 356.527314 198.770824 
L 354.91488 198.770824 
z
" style="fill:#1f77b4;"/>
   </g>
   <g id="patch_186">
    <path clip-path="url(#p09a471a6fb)" d="M 356.527314 273.312 
L 358.139748 273.312 
L 358.139748 218.151529 
L 356.527314 218.151529 
z
" style="fill:#1f77b4;"/>
   </g>
   <g id="patch_187">
    <path clip-path="url(#p09a471a6fb)" d="M 358.139748 273.312 
L 359.752182 273.312 
L 359.752182 213.679059 
L 358.139748 213.679059 
z
" style="fill:#1f77b4;"/>
   </g>
   <g id="patch_188">
    <path clip-path="url(#p09a471a6fb)" d="M 359.752182 273.312 
L 361.364617 273.312 
L 361.364617 221.878588 
L 359.752182 221.878588 
z
" style="fill:#1f77b4;"/>
   </g>
   <g id="patch_189">
    <path clip-path="url(#p09a471a6fb)" d="M 361.364617 273.312 
L 362.977051 273.312 
L 362.977051 230.078118 
L 361.364617 230.078118 
z
" style="fill:#1f77b4;"/>
   </g>
   <g id="patch_190">
    <path clip-path="url(#p09a471a6fb)" d="M 362.977051 273.312 
L 364.589485 273.312 
L 364.589485 218.896941 
L 362.977051 218.896941 
z
" style="fill:#1f77b4;"/>
   </g>
   <g id="patch_191">
    <path clip-path="url(#p09a471a6fb)" d="M 364.589485 273.312 
L 366.201919 273.312 
L 366.201919 221.133176 
L 364.589485 221.133176 
z
" style="fill:#1f77b4;"/>
   </g>
   <g id="patch_192">
    <path clip-path="url(#p09a471a6fb)" d="M 366.201919 273.312 
L 367.814353 273.312 
L 367.814353 228.587294 
L 366.201919 228.587294 
z
" style="fill:#1f77b4;"/>
   </g>
   <g id="patch_193">
    <path clip-path="url(#p09a471a6fb)" d="M 367.814353 273.312 
L 369.426787 273.312 
L 369.426787 242.750118 
L 367.814353 242.750118 
z
" style="fill:#1f77b4;"/>
   </g>
   <g id="patch_194">
    <path clip-path="url(#p09a471a6fb)" d="M 369.426787 273.312 
L 371.039222 273.312 
L 371.039222 244.986353 
L 369.426787 244.986353 
z
" style="fill:#1f77b4;"/>
   </g>
   <g id="patch_195">
    <path clip-path="url(#p09a471a6fb)" d="M 371.039222 273.312 
L 372.651656 273.312 
L 372.651656 247.968 
L 371.039222 247.968 
z
" style="fill:#1f77b4;"/>
   </g>
   <g id="patch_196">
    <path clip-path="url(#p09a471a6fb)" d="M 372.651656 273.312 
L 374.26409 273.312 
L 374.26409 255.422118 
L 372.651656 255.422118 
z
" style="fill:#1f77b4;"/>
   </g>
   <g id="patch_197">
    <path clip-path="url(#p09a471a6fb)" d="M 374.26409 273.312 
L 375.876524 273.312 
L 375.876524 249.458824 
L 374.26409 249.458824 
z
" style="fill:#1f77b4;"/>
   </g>
   <g id="patch_198">
    <path clip-path="url(#p09a471a6fb)" d="M 375.876524 273.312 
L 377.488958 273.312 
L 377.488958 257.658353 
L 375.876524 257.658353 
z
" style="fill:#1f77b4;"/>
   </g>
   <g id="patch_199">
    <path clip-path="url(#p09a471a6fb)" d="M 377.488958 273.312 
L 379.101393 273.312 
L 379.101393 258.403765 
L 377.488958 258.403765 
z
" style="fill:#1f77b4;"/>
   </g>
   <g id="patch_200">
    <path clip-path="url(#p09a471a6fb)" d="M 379.101393 273.312 
L 380.713827 273.312 
L 380.713827 261.385412 
L 379.101393 261.385412 
z
" style="fill:#1f77b4;"/>
   </g>
   <g id="patch_201">
    <path clip-path="url(#p09a471a6fb)" d="M 380.713827 273.312 
L 382.326261 273.312 
L 382.326261 267.348706 
L 380.713827 267.348706 
z
" style="fill:#1f77b4;"/>
   </g>
   <g id="patch_202">
    <path clip-path="url(#p09a471a6fb)" d="M 382.326261 273.312 
L 383.938695 273.312 
L 383.938695 267.348706 
L 382.326261 267.348706 
z
" style="fill:#1f77b4;"/>
   </g>
   <g id="matplotlib.axis_1">
    <g id="xtick_1">
     <g id="line2d_1">
      <defs>
       <path d="M 0 0 
L 0 3.5 
" id="mac62951d62" style="stroke:#000000;stroke-width:0.8;"/>
      </defs>
      <g>
       <use style="stroke:#000000;stroke-width:0.8;" x="60.013977" xlink:href="#mac62951d62" y="273.312"/>
      </g>
     </g>
     <g id="text_1">
      <!-- 0.0 -->
      <g transform="translate(52.062415 287.910437)scale(0.1 -0.1)">
       <defs>
        <path d="M 2034 4250 
Q 1547 4250 1301 3770 
Q 1056 3291 1056 2328 
Q 1056 1369 1301 889 
Q 1547 409 2034 409 
Q 2525 409 2770 889 
Q 3016 1369 3016 2328 
Q 3016 3291 2770 3770 
Q 2525 4250 2034 4250 
z
M 2034 4750 
Q 2819 4750 3233 4129 
Q 3647 3509 3647 2328 
Q 3647 1150 3233 529 
Q 2819 -91 2034 -91 
Q 1250 -91 836 529 
Q 422 1150 422 2328 
Q 422 3509 836 4129 
Q 1250 4750 2034 4750 
z
" id="DejaVuSans-30" transform="scale(0.015625)"/>
        <path d="M 684 794 
L 1344 794 
L 1344 0 
L 684 0 
L 684 794 
z
" id="DejaVuSans-2e" transform="scale(0.015625)"/>
       </defs>
       <use xlink:href="#DejaVuSans-30"/>
       <use x="63.623047" xlink:href="#DejaVuSans-2e"/>
       <use x="95.410156" xlink:href="#DejaVuSans-30"/>
      </g>
     </g>
    </g>
    <g id="xtick_2">
     <g id="line2d_2">
      <g>
       <use style="stroke:#000000;stroke-width:0.8;" x="101.350278" xlink:href="#mac62951d62" y="273.312"/>
      </g>
     </g>
     <g id="text_2">
      <!-- 0.2 -->
      <g transform="translate(93.398715 287.910437)scale(0.1 -0.1)">
       <defs>
        <path d="M 1228 531 
L 3431 531 
L 3431 0 
L 469 0 
L 469 531 
Q 828 903 1448 1529 
Q 2069 2156 2228 2338 
Q 2531 2678 2651 2914 
Q 2772 3150 2772 3378 
Q 2772 3750 2511 3984 
Q 2250 4219 1831 4219 
Q 1534 4219 1204 4116 
Q 875 4013 500 3803 
L 500 4441 
Q 881 4594 1212 4672 
Q 1544 4750 1819 4750 
Q 2544 4750 2975 4387 
Q 3406 4025 3406 3419 
Q 3406 3131 3298 2873 
Q 3191 2616 2906 2266 
Q 2828 2175 2409 1742 
Q 1991 1309 1228 531 
z
" id="DejaVuSans-32" transform="scale(0.015625)"/>
       </defs>
       <use xlink:href="#DejaVuSans-30"/>
       <use x="63.623047" xlink:href="#DejaVuSans-2e"/>
       <use x="95.410156" xlink:href="#DejaVuSans-32"/>
      </g>
     </g>
    </g>
    <g id="xtick_3">
     <g id="line2d_3">
      <g>
       <use style="stroke:#000000;stroke-width:0.8;" x="142.686578" xlink:href="#mac62951d62" y="273.312"/>
      </g>
     </g>
     <g id="text_3">
      <!-- 0.4 -->
      <g transform="translate(134.735016 287.910437)scale(0.1 -0.1)">
       <defs>
        <path d="M 2419 4116 
L 825 1625 
L 2419 1625 
L 2419 4116 
z
M 2253 4666 
L 3047 4666 
L 3047 1625 
L 3713 1625 
L 3713 1100 
L 3047 1100 
L 3047 0 
L 2419 0 
L 2419 1100 
L 313 1100 
L 313 1709 
L 2253 4666 
z
" id="DejaVuSans-34" transform="scale(0.015625)"/>
       </defs>
       <use xlink:href="#DejaVuSans-30"/>
       <use x="63.623047" xlink:href="#DejaVuSans-2e"/>
       <use x="95.410156" xlink:href="#DejaVuSans-34"/>
      </g>
     </g>
    </g>
    <g id="xtick_4">
     <g id="line2d_4">
      <g>
       <use style="stroke:#000000;stroke-width:0.8;" x="184.022879" xlink:href="#mac62951d62" y="273.312"/>
      </g>
     </g>
     <g id="text_4">
      <!-- 0.6 -->
      <g transform="translate(176.071316 287.910437)scale(0.1 -0.1)">
       <defs>
        <path d="M 2113 2584 
Q 1688 2584 1439 2293 
Q 1191 2003 1191 1497 
Q 1191 994 1439 701 
Q 1688 409 2113 409 
Q 2538 409 2786 701 
Q 3034 994 3034 1497 
Q 3034 2003 2786 2293 
Q 2538 2584 2113 2584 
z
M 3366 4563 
L 3366 3988 
Q 3128 4100 2886 4159 
Q 2644 4219 2406 4219 
Q 1781 4219 1451 3797 
Q 1122 3375 1075 2522 
Q 1259 2794 1537 2939 
Q 1816 3084 2150 3084 
Q 2853 3084 3261 2657 
Q 3669 2231 3669 1497 
Q 3669 778 3244 343 
Q 2819 -91 2113 -91 
Q 1303 -91 875 529 
Q 447 1150 447 2328 
Q 447 3434 972 4092 
Q 1497 4750 2381 4750 
Q 2619 4750 2861 4703 
Q 3103 4656 3366 4563 
z
" id="DejaVuSans-36" transform="scale(0.015625)"/>
       </defs>
       <use xlink:href="#DejaVuSans-30"/>
       <use x="63.623047" xlink:href="#DejaVuSans-2e"/>
       <use x="95.410156" xlink:href="#DejaVuSans-36"/>
      </g>
     </g>
    </g>
    <g id="xtick_5">
     <g id="line2d_5">
      <g>
       <use style="stroke:#000000;stroke-width:0.8;" x="225.35918" xlink:href="#mac62951d62" y="273.312"/>
      </g>
     </g>
     <g id="text_5">
      <!-- 0.8 -->
      <g transform="translate(217.407617 287.910437)scale(0.1 -0.1)">
       <defs>
        <path d="M 2034 2216 
Q 1584 2216 1326 1975 
Q 1069 1734 1069 1313 
Q 1069 891 1326 650 
Q 1584 409 2034 409 
Q 2484 409 2743 651 
Q 3003 894 3003 1313 
Q 3003 1734 2745 1975 
Q 2488 2216 2034 2216 
z
M 1403 2484 
Q 997 2584 770 2862 
Q 544 3141 544 3541 
Q 544 4100 942 4425 
Q 1341 4750 2034 4750 
Q 2731 4750 3128 4425 
Q 3525 4100 3525 3541 
Q 3525 3141 3298 2862 
Q 3072 2584 2669 2484 
Q 3125 2378 3379 2068 
Q 3634 1759 3634 1313 
Q 3634 634 3220 271 
Q 2806 -91 2034 -91 
Q 1263 -91 848 271 
Q 434 634 434 1313 
Q 434 1759 690 2068 
Q 947 2378 1403 2484 
z
M 1172 3481 
Q 1172 3119 1398 2916 
Q 1625 2713 2034 2713 
Q 2441 2713 2670 2916 
Q 2900 3119 2900 3481 
Q 2900 3844 2670 4047 
Q 2441 4250 2034 4250 
Q 1625 4250 1398 4047 
Q 1172 3844 1172 3481 
z
" id="DejaVuSans-38" transform="scale(0.015625)"/>
       </defs>
       <use xlink:href="#DejaVuSans-30"/>
       <use x="63.623047" xlink:href="#DejaVuSans-2e"/>
       <use x="95.410156" xlink:href="#DejaVuSans-38"/>
      </g>
     </g>
    </g>
    <g id="xtick_6">
     <g id="line2d_6">
      <g>
       <use style="stroke:#000000;stroke-width:0.8;" x="266.69548" xlink:href="#mac62951d62" y="273.312"/>
      </g>
     </g>
     <g id="text_6">
      <!-- 1.0 -->
      <g transform="translate(258.743918 287.910437)scale(0.1 -0.1)">
       <defs>
        <path d="M 794 531 
L 1825 531 
L 1825 4091 
L 703 3866 
L 703 4441 
L 1819 4666 
L 2450 4666 
L 2450 531 
L 3481 531 
L 3481 0 
L 794 0 
L 794 531 
z
" id="DejaVuSans-31" transform="scale(0.015625)"/>
       </defs>
       <use xlink:href="#DejaVuSans-31"/>
       <use x="63.623047" xlink:href="#DejaVuSans-2e"/>
       <use x="95.410156" xlink:href="#DejaVuSans-30"/>
      </g>
     </g>
    </g>
    <g id="xtick_7">
     <g id="line2d_7">
      <g>
       <use style="stroke:#000000;stroke-width:0.8;" x="308.031781" xlink:href="#mac62951d62" y="273.312"/>
      </g>
     </g>
     <g id="text_7">
      <!-- 1.2 -->
      <g transform="translate(300.080218 287.910437)scale(0.1 -0.1)">
       <use xlink:href="#DejaVuSans-31"/>
       <use x="63.623047" xlink:href="#DejaVuSans-2e"/>
       <use x="95.410156" xlink:href="#DejaVuSans-32"/>
      </g>
     </g>
    </g>
    <g id="xtick_8">
     <g id="line2d_8">
      <g>
       <use style="stroke:#000000;stroke-width:0.8;" x="349.368081" xlink:href="#mac62951d62" y="273.312"/>
      </g>
     </g>
     <g id="text_8">
      <!-- 1.4 -->
      <g transform="translate(341.416519 287.910437)scale(0.1 -0.1)">
       <use xlink:href="#DejaVuSans-31"/>
       <use x="63.623047" xlink:href="#DejaVuSans-2e"/>
       <use x="95.410156" xlink:href="#DejaVuSans-34"/>
      </g>
     </g>
    </g>
    <g id="xtick_9">
     <g id="line2d_9">
      <g>
       <use style="stroke:#000000;stroke-width:0.8;" x="390.704382" xlink:href="#mac62951d62" y="273.312"/>
      </g>
     </g>
     <g id="text_9">
      <!-- 1.6 -->
      <g transform="translate(382.752819 287.910437)scale(0.1 -0.1)">
       <use xlink:href="#DejaVuSans-31"/>
       <use x="63.623047" xlink:href="#DejaVuSans-2e"/>
       <use x="95.410156" xlink:href="#DejaVuSans-36"/>
      </g>
     </g>
    </g>
    <g id="text_10">
     <!-- Angle with normal (rad) -->
     <g transform="translate(163.023281 301.588562)scale(0.1 -0.1)">
      <defs>
       <path d="M 2188 4044 
L 1331 1722 
L 3047 1722 
L 2188 4044 
z
M 1831 4666 
L 2547 4666 
L 4325 0 
L 3669 0 
L 3244 1197 
L 1141 1197 
L 716 0 
L 50 0 
L 1831 4666 
z
" id="DejaVuSans-41" transform="scale(0.015625)"/>
       <path d="M 3513 2113 
L 3513 0 
L 2938 0 
L 2938 2094 
Q 2938 2591 2744 2837 
Q 2550 3084 2163 3084 
Q 1697 3084 1428 2787 
Q 1159 2491 1159 1978 
L 1159 0 
L 581 0 
L 581 3500 
L 1159 3500 
L 1159 2956 
Q 1366 3272 1645 3428 
Q 1925 3584 2291 3584 
Q 2894 3584 3203 3211 
Q 3513 2838 3513 2113 
z
" id="DejaVuSans-6e" transform="scale(0.015625)"/>
       <path d="M 2906 1791 
Q 2906 2416 2648 2759 
Q 2391 3103 1925 3103 
Q 1463 3103 1205 2759 
Q 947 2416 947 1791 
Q 947 1169 1205 825 
Q 1463 481 1925 481 
Q 2391 481 2648 825 
Q 2906 1169 2906 1791 
z
M 3481 434 
Q 3481 -459 3084 -895 
Q 2688 -1331 1869 -1331 
Q 1566 -1331 1297 -1286 
Q 1028 -1241 775 -1147 
L 775 -588 
Q 1028 -725 1275 -790 
Q 1522 -856 1778 -856 
Q 2344 -856 2625 -561 
Q 2906 -266 2906 331 
L 2906 616 
Q 2728 306 2450 153 
Q 2172 0 1784 0 
Q 1141 0 747 490 
Q 353 981 353 1791 
Q 353 2603 747 3093 
Q 1141 3584 1784 3584 
Q 2172 3584 2450 3431 
Q 2728 3278 2906 2969 
L 2906 3500 
L 3481 3500 
L 3481 434 
z
" id="DejaVuSans-67" transform="scale(0.015625)"/>
       <path d="M 603 4863 
L 1178 4863 
L 1178 0 
L 603 0 
L 603 4863 
z
" id="DejaVuSans-6c" transform="scale(0.015625)"/>
       <path d="M 3597 1894 
L 3597 1613 
L 953 1613 
Q 991 1019 1311 708 
Q 1631 397 2203 397 
Q 2534 397 2845 478 
Q 3156 559 3463 722 
L 3463 178 
Q 3153 47 2828 -22 
Q 2503 -91 2169 -91 
Q 1331 -91 842 396 
Q 353 884 353 1716 
Q 353 2575 817 3079 
Q 1281 3584 2069 3584 
Q 2775 3584 3186 3129 
Q 3597 2675 3597 1894 
z
M 3022 2063 
Q 3016 2534 2758 2815 
Q 2500 3097 2075 3097 
Q 1594 3097 1305 2825 
Q 1016 2553 972 2059 
L 3022 2063 
z
" id="DejaVuSans-65" transform="scale(0.015625)"/>
       <path id="DejaVuSans-20" transform="scale(0.015625)"/>
       <path d="M 269 3500 
L 844 3500 
L 1563 769 
L 2278 3500 
L 2956 3500 
L 3675 769 
L 4391 3500 
L 4966 3500 
L 4050 0 
L 3372 0 
L 2619 2869 
L 1863 0 
L 1184 0 
L 269 3500 
z
" id="DejaVuSans-77" transform="scale(0.015625)"/>
       <path d="M 603 3500 
L 1178 3500 
L 1178 0 
L 603 0 
L 603 3500 
z
M 603 4863 
L 1178 4863 
L 1178 4134 
L 603 4134 
L 603 4863 
z
" id="DejaVuSans-69" transform="scale(0.015625)"/>
       <path d="M 1172 4494 
L 1172 3500 
L 2356 3500 
L 2356 3053 
L 1172 3053 
L 1172 1153 
Q 1172 725 1289 603 
Q 1406 481 1766 481 
L 2356 481 
L 2356 0 
L 1766 0 
Q 1100 0 847 248 
Q 594 497 594 1153 
L 594 3053 
L 172 3053 
L 172 3500 
L 594 3500 
L 594 4494 
L 1172 4494 
z
" id="DejaVuSans-74" transform="scale(0.015625)"/>
       <path d="M 3513 2113 
L 3513 0 
L 2938 0 
L 2938 2094 
Q 2938 2591 2744 2837 
Q 2550 3084 2163 3084 
Q 1697 3084 1428 2787 
Q 1159 2491 1159 1978 
L 1159 0 
L 581 0 
L 581 4863 
L 1159 4863 
L 1159 2956 
Q 1366 3272 1645 3428 
Q 1925 3584 2291 3584 
Q 2894 3584 3203 3211 
Q 3513 2838 3513 2113 
z
" id="DejaVuSans-68" transform="scale(0.015625)"/>
       <path d="M 1959 3097 
Q 1497 3097 1228 2736 
Q 959 2375 959 1747 
Q 959 1119 1226 758 
Q 1494 397 1959 397 
Q 2419 397 2687 759 
Q 2956 1122 2956 1747 
Q 2956 2369 2687 2733 
Q 2419 3097 1959 3097 
z
M 1959 3584 
Q 2709 3584 3137 3096 
Q 3566 2609 3566 1747 
Q 3566 888 3137 398 
Q 2709 -91 1959 -91 
Q 1206 -91 779 398 
Q 353 888 353 1747 
Q 353 2609 779 3096 
Q 1206 3584 1959 3584 
z
" id="DejaVuSans-6f" transform="scale(0.015625)"/>
       <path d="M 2631 2963 
Q 2534 3019 2420 3045 
Q 2306 3072 2169 3072 
Q 1681 3072 1420 2755 
Q 1159 2438 1159 1844 
L 1159 0 
L 581 0 
L 581 3500 
L 1159 3500 
L 1159 2956 
Q 1341 3275 1631 3429 
Q 1922 3584 2338 3584 
Q 2397 3584 2469 3576 
Q 2541 3569 2628 3553 
L 2631 2963 
z
" id="DejaVuSans-72" transform="scale(0.015625)"/>
       <path d="M 3328 2828 
Q 3544 3216 3844 3400 
Q 4144 3584 4550 3584 
Q 5097 3584 5394 3201 
Q 5691 2819 5691 2113 
L 5691 0 
L 5113 0 
L 5113 2094 
Q 5113 2597 4934 2840 
Q 4756 3084 4391 3084 
Q 3944 3084 3684 2787 
Q 3425 2491 3425 1978 
L 3425 0 
L 2847 0 
L 2847 2094 
Q 2847 2600 2669 2842 
Q 2491 3084 2119 3084 
Q 1678 3084 1418 2786 
Q 1159 2488 1159 1978 
L 1159 0 
L 581 0 
L 581 3500 
L 1159 3500 
L 1159 2956 
Q 1356 3278 1631 3431 
Q 1906 3584 2284 3584 
Q 2666 3584 2933 3390 
Q 3200 3197 3328 2828 
z
" id="DejaVuSans-6d" transform="scale(0.015625)"/>
       <path d="M 2194 1759 
Q 1497 1759 1228 1600 
Q 959 1441 959 1056 
Q 959 750 1161 570 
Q 1363 391 1709 391 
Q 2188 391 2477 730 
Q 2766 1069 2766 1631 
L 2766 1759 
L 2194 1759 
z
M 3341 1997 
L 3341 0 
L 2766 0 
L 2766 531 
Q 2569 213 2275 61 
Q 1981 -91 1556 -91 
Q 1019 -91 701 211 
Q 384 513 384 1019 
Q 384 1609 779 1909 
Q 1175 2209 1959 2209 
L 2766 2209 
L 2766 2266 
Q 2766 2663 2505 2880 
Q 2244 3097 1772 3097 
Q 1472 3097 1187 3025 
Q 903 2953 641 2809 
L 641 3341 
Q 956 3463 1253 3523 
Q 1550 3584 1831 3584 
Q 2591 3584 2966 3190 
Q 3341 2797 3341 1997 
z
" id="DejaVuSans-61" transform="scale(0.015625)"/>
       <path d="M 1984 4856 
Q 1566 4138 1362 3434 
Q 1159 2731 1159 2009 
Q 1159 1288 1364 580 
Q 1569 -128 1984 -844 
L 1484 -844 
Q 1016 -109 783 600 
Q 550 1309 550 2009 
Q 550 2706 781 3412 
Q 1013 4119 1484 4856 
L 1984 4856 
z
" id="DejaVuSans-28" transform="scale(0.015625)"/>
       <path d="M 2906 2969 
L 2906 4863 
L 3481 4863 
L 3481 0 
L 2906 0 
L 2906 525 
Q 2725 213 2448 61 
Q 2172 -91 1784 -91 
Q 1150 -91 751 415 
Q 353 922 353 1747 
Q 353 2572 751 3078 
Q 1150 3584 1784 3584 
Q 2172 3584 2448 3432 
Q 2725 3281 2906 2969 
z
M 947 1747 
Q 947 1113 1208 752 
Q 1469 391 1925 391 
Q 2381 391 2643 752 
Q 2906 1113 2906 1747 
Q 2906 2381 2643 2742 
Q 2381 3103 1925 3103 
Q 1469 3103 1208 2742 
Q 947 2381 947 1747 
z
" id="DejaVuSans-64" transform="scale(0.015625)"/>
       <path d="M 513 4856 
L 1013 4856 
Q 1481 4119 1714 3412 
Q 1947 2706 1947 2009 
Q 1947 1309 1714 600 
Q 1481 -109 1013 -844 
L 513 -844 
Q 928 -128 1133 580 
Q 1338 1288 1338 2009 
Q 1338 2731 1133 3434 
Q 928 4138 513 4856 
z
" id="DejaVuSans-29" transform="scale(0.015625)"/>
      </defs>
      <use xlink:href="#DejaVuSans-41"/>
      <use x="68.408203" xlink:href="#DejaVuSans-6e"/>
      <use x="131.787109" xlink:href="#DejaVuSans-67"/>
      <use x="195.263672" xlink:href="#DejaVuSans-6c"/>
      <use x="223.046875" xlink:href="#DejaVuSans-65"/>
      <use x="284.570312" xlink:href="#DejaVuSans-20"/>
      <use x="316.357422" xlink:href="#DejaVuSans-77"/>
      <use x="398.144531" xlink:href="#DejaVuSans-69"/>
      <use x="425.927734" xlink:href="#DejaVuSans-74"/>
      <use x="465.136719" xlink:href="#DejaVuSans-68"/>
      <use x="528.515625" xlink:href="#DejaVuSans-20"/>
      <use x="560.302734" xlink:href="#DejaVuSans-6e"/>
      <use x="623.681641" xlink:href="#DejaVuSans-6f"/>
      <use x="684.863281" xlink:href="#DejaVuSans-72"/>
      <use x="724.226562" xlink:href="#DejaVuSans-6d"/>
      <use x="821.638672" xlink:href="#DejaVuSans-61"/>
      <use x="882.917969" xlink:href="#DejaVuSans-6c"/>
      <use x="910.701172" xlink:href="#DejaVuSans-20"/>
      <use x="942.488281" xlink:href="#DejaVuSans-28"/>
      <use x="981.501953" xlink:href="#DejaVuSans-72"/>
      <use x="1022.615234" xlink:href="#DejaVuSans-61"/>
      <use x="1083.894531" xlink:href="#DejaVuSans-64"/>
      <use x="1147.371094" xlink:href="#DejaVuSans-29"/>
     </g>
    </g>
   </g>
   <g id="matplotlib.axis_2">
    <g id="ytick_1">
     <g id="line2d_10">
      <defs>
       <path d="M 0 0 
L -3.5 0 
" id="m289c5abc8f" style="stroke:#000000;stroke-width:0.8;"/>
      </defs>
      <g>
       <use style="stroke:#000000;stroke-width:0.8;" x="43.78125" xlink:href="#m289c5abc8f" y="273.312"/>
      </g>
     </g>
     <g id="text_11">
      <!-- 0.0 -->
      <g transform="translate(20.878125 277.111219)scale(0.1 -0.1)">
       <use xlink:href="#DejaVuSans-30"/>
       <use x="63.623047" xlink:href="#DejaVuSans-2e"/>
       <use x="95.410156" xlink:href="#DejaVuSans-30"/>
      </g>
     </g>
    </g>
    <g id="ytick_2">
     <g id="line2d_11">
      <g>
       <use style="stroke:#000000;stroke-width:0.8;" x="43.78125" xlink:href="#m289c5abc8f" y="226.789118"/>
      </g>
     </g>
     <g id="text_12">
      <!-- 0.2 -->
      <g transform="translate(20.878125 230.588336)scale(0.1 -0.1)">
       <use xlink:href="#DejaVuSans-30"/>
       <use x="63.623047" xlink:href="#DejaVuSans-2e"/>
       <use x="95.410156" xlink:href="#DejaVuSans-32"/>
      </g>
     </g>
    </g>
    <g id="ytick_3">
     <g id="line2d_12">
      <g>
       <use style="stroke:#000000;stroke-width:0.8;" x="43.78125" xlink:href="#m289c5abc8f" y="180.266235"/>
      </g>
     </g>
     <g id="text_13">
      <!-- 0.4 -->
      <g transform="translate(20.878125 184.065454)scale(0.1 -0.1)">
       <use xlink:href="#DejaVuSans-30"/>
       <use x="63.623047" xlink:href="#DejaVuSans-2e"/>
       <use x="95.410156" xlink:href="#DejaVuSans-34"/>
      </g>
     </g>
    </g>
    <g id="ytick_4">
     <g id="line2d_13">
      <g>
       <use style="stroke:#000000;stroke-width:0.8;" x="43.78125" xlink:href="#m289c5abc8f" y="133.743353"/>
      </g>
     </g>
     <g id="text_14">
      <!-- 0.6 -->
      <g transform="translate(20.878125 137.542571)scale(0.1 -0.1)">
       <use xlink:href="#DejaVuSans-30"/>
       <use x="63.623047" xlink:href="#DejaVuSans-2e"/>
       <use x="95.410156" xlink:href="#DejaVuSans-36"/>
      </g>
     </g>
    </g>
    <g id="ytick_5">
     <g id="line2d_14">
      <g>
       <use style="stroke:#000000;stroke-width:0.8;" x="43.78125" xlink:href="#m289c5abc8f" y="87.22047"/>
      </g>
     </g>
     <g id="text_15">
      <!-- 0.8 -->
      <g transform="translate(20.878125 91.019689)scale(0.1 -0.1)">
       <use xlink:href="#DejaVuSans-30"/>
       <use x="63.623047" xlink:href="#DejaVuSans-2e"/>
       <use x="95.410156" xlink:href="#DejaVuSans-38"/>
      </g>
     </g>
    </g>
    <g id="ytick_6">
     <g id="line2d_15">
      <g>
       <use style="stroke:#000000;stroke-width:0.8;" x="43.78125" xlink:href="#m289c5abc8f" y="40.697588"/>
      </g>
     </g>
     <g id="text_16">
      <!-- 1.0 -->
      <g transform="translate(20.878125 44.496806)scale(0.1 -0.1)">
       <use xlink:href="#DejaVuSans-31"/>
       <use x="63.623047" xlink:href="#DejaVuSans-2e"/>
       <use x="95.410156" xlink:href="#DejaVuSans-30"/>
      </g>
     </g>
    </g>
    <g id="text_17">
     <!-- Probability density -->
     <g transform="translate(14.798438 186.606781)rotate(-90)scale(0.1 -0.1)">
      <defs>
       <path d="M 1259 4147 
L 1259 2394 
L 2053 2394 
Q 2494 2394 2734 2622 
Q 2975 2850 2975 3272 
Q 2975 3691 2734 3919 
Q 2494 4147 2053 4147 
L 1259 4147 
z
M 628 4666 
L 2053 4666 
Q 2838 4666 3239 4311 
Q 3641 3956 3641 3272 
Q 3641 2581 3239 2228 
Q 2838 1875 2053 1875 
L 1259 1875 
L 1259 0 
L 628 0 
L 628 4666 
z
" id="DejaVuSans-50" transform="scale(0.015625)"/>
       <path d="M 3116 1747 
Q 3116 2381 2855 2742 
Q 2594 3103 2138 3103 
Q 1681 3103 1420 2742 
Q 1159 2381 1159 1747 
Q 1159 1113 1420 752 
Q 1681 391 2138 391 
Q 2594 391 2855 752 
Q 3116 1113 3116 1747 
z
M 1159 2969 
Q 1341 3281 1617 3432 
Q 1894 3584 2278 3584 
Q 2916 3584 3314 3078 
Q 3713 2572 3713 1747 
Q 3713 922 3314 415 
Q 2916 -91 2278 -91 
Q 1894 -91 1617 61 
Q 1341 213 1159 525 
L 1159 0 
L 581 0 
L 581 4863 
L 1159 4863 
L 1159 2969 
z
" id="DejaVuSans-62" transform="scale(0.015625)"/>
       <path d="M 2059 -325 
Q 1816 -950 1584 -1140 
Q 1353 -1331 966 -1331 
L 506 -1331 
L 506 -850 
L 844 -850 
Q 1081 -850 1212 -737 
Q 1344 -625 1503 -206 
L 1606 56 
L 191 3500 
L 800 3500 
L 1894 763 
L 2988 3500 
L 3597 3500 
L 2059 -325 
z
" id="DejaVuSans-79" transform="scale(0.015625)"/>
       <path d="M 2834 3397 
L 2834 2853 
Q 2591 2978 2328 3040 
Q 2066 3103 1784 3103 
Q 1356 3103 1142 2972 
Q 928 2841 928 2578 
Q 928 2378 1081 2264 
Q 1234 2150 1697 2047 
L 1894 2003 
Q 2506 1872 2764 1633 
Q 3022 1394 3022 966 
Q 3022 478 2636 193 
Q 2250 -91 1575 -91 
Q 1294 -91 989 -36 
Q 684 19 347 128 
L 347 722 
Q 666 556 975 473 
Q 1284 391 1588 391 
Q 1994 391 2212 530 
Q 2431 669 2431 922 
Q 2431 1156 2273 1281 
Q 2116 1406 1581 1522 
L 1381 1569 
Q 847 1681 609 1914 
Q 372 2147 372 2553 
Q 372 3047 722 3315 
Q 1072 3584 1716 3584 
Q 2034 3584 2315 3537 
Q 2597 3491 2834 3397 
z
" id="DejaVuSans-73" transform="scale(0.015625)"/>
      </defs>
      <use xlink:href="#DejaVuSans-50"/>
      <use x="58.552734" xlink:href="#DejaVuSans-72"/>
      <use x="97.416016" xlink:href="#DejaVuSans-6f"/>
      <use x="158.597656" xlink:href="#DejaVuSans-62"/>
      <use x="222.074219" xlink:href="#DejaVuSans-61"/>
      <use x="283.353516" xlink:href="#DejaVuSans-62"/>
      <use x="346.830078" xlink:href="#DejaVuSans-69"/>
      <use x="374.613281" xlink:href="#DejaVuSans-6c"/>
      <use x="402.396484" xlink:href="#DejaVuSans-69"/>
      <use x="430.179688" xlink:href="#DejaVuSans-74"/>
      <use x="469.388672" xlink:href="#DejaVuSans-79"/>
      <use x="528.568359" xlink:href="#DejaVuSans-20"/>
      <use x="560.355469" xlink:href="#DejaVuSans-64"/>
      <use x="623.832031" xlink:href="#DejaVuSans-65"/>
      <use x="685.355469" xlink:href="#DejaVuSans-6e"/>
      <use x="748.734375" xlink:href="#DejaVuSans-73"/>
      <use x="800.833984" xlink:href="#DejaVuSans-69"/>
      <use x="828.617188" xlink:href="#DejaVuSans-74"/>
      <use x="867.826172" xlink:href="#DejaVuSans-79"/>
     </g>
    </g>
   </g>
   <g id="line2d_16">
    <path clip-path="url(#p09a471a6fb)" d="M 60.013977 273.312 
L 79.837728 228.962982 
L 90.237073 206.247127 
L 99.01152 187.599313 
L 106.811029 171.537842 
L 113.960578 157.321691 
L 120.460169 144.877756 
L 126.63478 133.525711 
L 132.484411 123.230708 
L 138.009063 113.948543 
L 143.208736 105.627896 
L 148.408408 97.731681 
L 153.283101 90.73224 
L 157.832814 84.565598 
L 162.382528 78.764748 
L 166.607261 73.715615 
L 170.831995 69.000021 
L 175.056729 64.625847 
L 178.956483 60.897515 
L 182.856238 57.471639 
L 186.755992 54.353099 
L 190.330767 51.768223 
L 193.905542 49.448423 
L 197.480316 47.396475 
L 201.055091 45.614834 
L 204.304886 44.231523 
L 207.554682 43.074741 
L 210.804477 42.145629 
L 214.054272 41.445108 
L 217.304067 40.97387 
L 220.553863 40.732381 
L 223.803658 40.720879 
L 227.053453 40.939376 
L 230.303248 41.387657 
L 233.553044 42.065277 
L 236.802839 42.971567 
L 240.052634 44.105631 
L 243.302429 45.466346 
L 246.552225 47.052368 
L 250.126999 49.055343 
L 253.701774 51.32664 
L 257.276549 53.863541 
L 260.851324 56.663011 
L 264.751078 60.012492 
L 268.650832 63.665692 
L 272.550587 67.617406 
L 276.77532 72.228761 
L 281.000054 77.17614 
L 285.224788 82.451276 
L 289.774501 88.488613 
L 294.324215 94.884139 
L 299.198908 102.119873 
L 304.39858 110.25736 
L 309.598252 118.807563 
L 315.122904 128.320141 
L 320.972536 138.843247 
L 327.147147 150.417575 
L 333.646737 163.074117 
L 340.796287 177.497833 
L 348.595795 193.753185 
L 357.370243 212.577189 
L 367.769587 235.44272 
L 382.393666 268.191835 
L 384.668523 273.312 
L 384.668523 273.312 
" style="fill:none;stroke:#ff7f0e;stroke-linecap:square;stroke-width:1.5;"/>
   </g>
   <g id="patch_203">
    <path d="M 43.78125 273.312 
L 43.78125 7.2 
" style="fill:none;stroke:#000000;stroke-linecap:square;stroke-linejoin:miter;stroke-width:0.8;"/>
   </g>
   <g id="patch_204">
    <path d="M 400.90125 273.312 
L 400.90125 7.2 
" style="fill:none;stroke:#000000;stroke-linecap:square;stroke-linejoin:miter;stroke-width:0.8;"/>
   </g>
   <g id="patch_205">
    <path d="M 43.78125 273.312 
L 400.90125 273.312 
" style="fill:none;stroke:#000000;stroke-linecap:square;stroke-linejoin:miter;stroke-width:0.8;"/>
   </g>
   <g id="patch_206">
    <path d="M 43.78125 7.2 
L 400.90125 7.2 
" style="fill:none;stroke:#000000;stroke-linecap:square;stroke-linejoin:miter;stroke-width:0.8;"/>
   </g>
  </g>
 </g>
 <defs>
  <clipPath id="p09a471a6fb">
   <rect height="266.112" width="357.12" x="43.78125" y="7.2"/>
  </clipPath>
 </defs>
</svg>
