<?xml version="1.0" encoding="utf-8" standalone="no"?>
<!DOCTYPE svg PUBLIC "-//W3C//DTD SVG 1.1//EN"
  "http://www.w3.org/Graphics/SVG/1.1/DTD/svg11.dtd">
<svg height="310.86825pt" version="1.1" viewBox="0 0 408.10125 310.86825" width="408.10125pt" xmlns="http://www.w3.org/2000/svg" xmlns:xlink="http://www.w3.org/1999/xlink">
 <metadata>
  <rdf:RDF xmlns:cc="http://creativecommons.org/ns#" xmlns:dc="http://purl.org/dc/elements/1.1/" xmlns:rdf="http://www.w3.org/1999/02/22-rdf-syntax-ns#">
   <cc:Work>
    <dc:type rdf:resource="http://purl.org/dc/dcmitype/StillImage"/>
    <dc:date>2021-11-23T16:07:06.832079</dc:date>
    <dc:format>image/svg+xml</dc:format>
    <dc:creator>
     <cc:Agent>
      <dc:title>Matplotlib v3.4.3, https://matplotlib.org/</dc:title>
     </cc:Agent>
    </dc:creator>
   </cc:Work>
  </rdf:RDF>
 </metadata>
 <defs>
  <style type="text/css">*{stroke-linecap:butt;stroke-linejoin:round;}</style>
 </defs>
 <g id="figure_1">
  <g id="patch_1">
   <path d="M 0 310.86825 
L 408.10125 310.86825 
L 408.10125 0 
L 0 0 
z
" style="fill:#ffffff;"/>
  </g>
  <g id="axes_1">
   <g id="patch_2">
    <path d="M 43.78125 273.312 
L 400.90125 273.312 
L 400.90125 7.2 
L 43.78125 7.2 
z
" style="fill:#ffffff;"/>
   </g>
   <g id="patch_3">
    <path clip-path="url(#p516d6391b2)" d="M 61.160385 273.312 
L 62.777887 273.312 
L 62.777887 269.910121 
L 61.160385 269.910121 
z
" style="fill:#1f77b4;"/>
   </g>
   <g id="patch_4">
    <path clip-path="url(#p516d6391b2)" d="M 62.777887 273.312 
L 64.395388 273.312 
L 64.395388 270.477101 
L 62.777887 270.477101 
z
" style="fill:#1f77b4;"/>
   </g>
   <g id="patch_5">
    <path clip-path="url(#p516d6391b2)" d="M 64.395388 273.312 
L 66.01289 273.312 
L 66.01289 271.044081 
L 64.395388 271.044081 
z
" style="fill:#1f77b4;"/>
   </g>
   <g id="patch_6">
    <path clip-path="url(#p516d6391b2)" d="M 66.01289 273.312 
L 67.630391 273.312 
L 67.630391 268.209181 
L 66.01289 268.209181 
z
" style="fill:#1f77b4;"/>
   </g>
   <g id="patch_7">
    <path clip-path="url(#p516d6391b2)" d="M 67.630391 273.312 
L 69.247892 273.312 
L 69.247892 264.807302 
L 67.630391 264.807302 
z
" style="fill:#1f77b4;"/>
   </g>
   <g id="patch_8">
    <path clip-path="url(#p516d6391b2)" d="M 69.247892 273.312 
L 70.865394 273.312 
L 70.865394 267.075221 
L 69.247892 267.075221 
z
" style="fill:#1f77b4;"/>
   </g>
   <g id="patch_9">
    <path clip-path="url(#p516d6391b2)" d="M 70.865394 273.312 
L 72.482895 273.312 
L 72.482895 269.343141 
L 70.865394 269.343141 
z
" style="fill:#1f77b4;"/>
   </g>
   <g id="patch_10">
    <path clip-path="url(#p516d6391b2)" d="M 72.482895 273.312 
L 74.100397 273.312 
L 74.100397 259.704483 
L 72.482895 259.704483 
z
" style="fill:#1f77b4;"/>
   </g>
   <g id="patch_11">
    <path clip-path="url(#p516d6391b2)" d="M 74.100397 273.312 
L 75.717898 273.312 
L 75.717898 264.240322 
L 74.100397 264.240322 
z
" style="fill:#1f77b4;"/>
   </g>
   <g id="patch_12">
    <path clip-path="url(#p516d6391b2)" d="M 75.717898 273.312 
L 77.335399 273.312 
L 77.335399 264.240322 
L 75.717898 264.240322 
z
" style="fill:#1f77b4;"/>
   </g>
   <g id="patch_13">
    <path clip-path="url(#p516d6391b2)" d="M 77.335399 273.312 
L 78.952901 273.312 
L 78.952901 263.106362 
L 77.335399 263.106362 
z
" style="fill:#1f77b4;"/>
   </g>
   <g id="patch_14">
    <path clip-path="url(#p516d6391b2)" d="M 78.952901 273.312 
L 80.570402 273.312 
L 80.570402 263.673342 
L 78.952901 263.673342 
z
" style="fill:#1f77b4;"/>
   </g>
   <g id="patch_15">
    <path clip-path="url(#p516d6391b2)" d="M 80.570402 273.312 
L 82.187904 273.312 
L 82.187904 256.869584 
L 80.570402 256.869584 
z
" style="fill:#1f77b4;"/>
   </g>
   <g id="patch_16">
    <path clip-path="url(#p516d6391b2)" d="M 82.187904 273.312 
L 83.805405 273.312 
L 83.805405 260.271463 
L 82.187904 260.271463 
z
" style="fill:#1f77b4;"/>
   </g>
   <g id="patch_17">
    <path clip-path="url(#p516d6391b2)" d="M 83.805405 273.312 
L 85.422906 273.312 
L 85.422906 258.570523 
L 83.805405 258.570523 
z
" style="fill:#1f77b4;"/>
   </g>
   <g id="patch_18">
    <path clip-path="url(#p516d6391b2)" d="M 85.422906 273.312 
L 87.040408 273.312 
L 87.040408 254.601664 
L 85.422906 254.601664 
z
" style="fill:#1f77b4;"/>
   </g>
   <g id="patch_19">
    <path clip-path="url(#p516d6391b2)" d="M 87.040408 273.312 
L 88.657909 273.312 
L 88.657909 253.467705 
L 87.040408 253.467705 
z
" style="fill:#1f77b4;"/>
   </g>
   <g id="patch_20">
    <path clip-path="url(#p516d6391b2)" d="M 88.657909 273.312 
L 90.275411 273.312 
L 90.275411 253.467705 
L 88.657909 253.467705 
z
" style="fill:#1f77b4;"/>
   </g>
   <g id="patch_21">
    <path clip-path="url(#p516d6391b2)" d="M 90.275411 273.312 
L 91.892912 273.312 
L 91.892912 242.695087 
L 90.275411 242.695087 
z
" style="fill:#1f77b4;"/>
   </g>
   <g id="patch_22">
    <path clip-path="url(#p516d6391b2)" d="M 91.892912 273.312 
L 93.510413 273.312 
L 93.510413 251.766765 
L 91.892912 251.766765 
z
" style="fill:#1f77b4;"/>
   </g>
   <g id="patch_23">
    <path clip-path="url(#p516d6391b2)" d="M 93.510413 273.312 
L 95.127915 273.312 
L 95.127915 251.199785 
L 93.510413 251.199785 
z
" style="fill:#1f77b4;"/>
   </g>
   <g id="patch_24">
    <path clip-path="url(#p516d6391b2)" d="M 95.127915 273.312 
L 96.745416 273.312 
L 96.745416 246.096966 
L 95.127915 246.096966 
z
" style="fill:#1f77b4;"/>
   </g>
   <g id="patch_25">
    <path clip-path="url(#p516d6391b2)" d="M 96.745416 273.312 
L 98.362918 273.312 
L 98.362918 249.498846 
L 96.745416 249.498846 
z
" style="fill:#1f77b4;"/>
   </g>
   <g id="patch_26">
    <path clip-path="url(#p516d6391b2)" d="M 98.362918 273.312 
L 99.980419 273.312 
L 99.980419 245.529987 
L 98.362918 245.529987 
z
" style="fill:#1f77b4;"/>
   </g>
   <g id="patch_27">
    <path clip-path="url(#p516d6391b2)" d="M 99.980419 273.312 
L 101.597921 273.312 
L 101.597921 243.262067 
L 99.980419 243.262067 
z
" style="fill:#1f77b4;"/>
   </g>
   <g id="patch_28">
    <path clip-path="url(#p516d6391b2)" d="M 101.597921 273.312 
L 103.215422 273.312 
L 103.215422 244.963007 
L 101.597921 244.963007 
z
" style="fill:#1f77b4;"/>
   </g>
   <g id="patch_29">
    <path clip-path="url(#p516d6391b2)" d="M 103.215422 273.312 
L 104.832923 273.312 
L 104.832923 246.663946 
L 103.215422 246.663946 
z
" style="fill:#1f77b4;"/>
   </g>
   <g id="patch_30">
    <path clip-path="url(#p516d6391b2)" d="M 104.832923 273.312 
L 106.450425 273.312 
L 106.450425 233.623409 
L 104.832923 233.623409 
z
" style="fill:#1f77b4;"/>
   </g>
   <g id="patch_31">
    <path clip-path="url(#p516d6391b2)" d="M 106.450425 273.312 
L 108.067926 273.312 
L 108.067926 233.623409 
L 106.450425 233.623409 
z
" style="fill:#1f77b4;"/>
   </g>
   <g id="patch_32">
    <path clip-path="url(#p516d6391b2)" d="M 108.067926 273.312 
L 109.685428 273.312 
L 109.685428 239.860188 
L 108.067926 239.860188 
z
" style="fill:#1f77b4;"/>
   </g>
   <g id="patch_33">
    <path clip-path="url(#p516d6391b2)" d="M 109.685428 273.312 
L 111.302929 273.312 
L 111.302929 240.994148 
L 109.685428 240.994148 
z
" style="fill:#1f77b4;"/>
   </g>
   <g id="patch_34">
    <path clip-path="url(#p516d6391b2)" d="M 111.302929 273.312 
L 112.92043 273.312 
L 112.92043 235.324349 
L 111.302929 235.324349 
z
" style="fill:#1f77b4;"/>
   </g>
   <g id="patch_35">
    <path clip-path="url(#p516d6391b2)" d="M 112.92043 273.312 
L 114.537932 273.312 
L 114.537932 234.757369 
L 112.92043 234.757369 
z
" style="fill:#1f77b4;"/>
   </g>
   <g id="patch_36">
    <path clip-path="url(#p516d6391b2)" d="M 114.537932 273.312 
L 116.155433 273.312 
L 116.155433 240.427168 
L 114.537932 240.427168 
z
" style="fill:#1f77b4;"/>
   </g>
   <g id="patch_37">
    <path clip-path="url(#p516d6391b2)" d="M 116.155433 273.312 
L 117.772935 273.312 
L 117.772935 233.623409 
L 116.155433 233.623409 
z
" style="fill:#1f77b4;"/>
   </g>
   <g id="patch_38">
    <path clip-path="url(#p516d6391b2)" d="M 117.772935 273.312 
L 119.390436 273.312 
L 119.390436 228.520591 
L 117.772935 228.520591 
z
" style="fill:#1f77b4;"/>
   </g>
   <g id="patch_39">
    <path clip-path="url(#p516d6391b2)" d="M 119.390436 273.312 
L 121.007937 273.312 
L 121.007937 230.22153 
L 119.390436 230.22153 
z
" style="fill:#1f77b4;"/>
   </g>
   <g id="patch_40">
    <path clip-path="url(#p516d6391b2)" d="M 121.007937 273.312 
L 122.625439 273.312 
L 122.625439 223.417772 
L 121.007937 223.417772 
z
" style="fill:#1f77b4;"/>
   </g>
   <g id="patch_41">
    <path clip-path="url(#p516d6391b2)" d="M 122.625439 273.312 
L 124.24294 273.312 
L 124.24294 235.891329 
L 122.625439 235.891329 
z
" style="fill:#1f77b4;"/>
   </g>
   <g id="patch_42">
    <path clip-path="url(#p516d6391b2)" d="M 124.24294 273.312 
L 125.860442 273.312 
L 125.860442 229.08757 
L 124.24294 229.08757 
z
" style="fill:#1f77b4;"/>
   </g>
   <g id="patch_43">
    <path clip-path="url(#p516d6391b2)" d="M 125.860442 273.312 
L 127.477943 273.312 
L 127.477943 216.614013 
L 125.860442 216.614013 
z
" style="fill:#1f77b4;"/>
   </g>
   <g id="patch_44">
    <path clip-path="url(#p516d6391b2)" d="M 127.477943 273.312 
L 129.095444 273.312 
L 129.095444 232.48945 
L 127.477943 232.48945 
z
" style="fill:#1f77b4;"/>
   </g>
   <g id="patch_45">
    <path clip-path="url(#p516d6391b2)" d="M 129.095444 273.312 
L 130.712946 273.312 
L 130.712946 221.149852 
L 129.095444 221.149852 
z
" style="fill:#1f77b4;"/>
   </g>
   <g id="patch_46">
    <path clip-path="url(#p516d6391b2)" d="M 130.712946 273.312 
L 132.330447 273.312 
L 132.330447 232.48945 
L 130.712946 232.48945 
z
" style="fill:#1f77b4;"/>
   </g>
   <g id="patch_47">
    <path clip-path="url(#p516d6391b2)" d="M 132.330447 273.312 
L 133.947949 273.312 
L 133.947949 221.149852 
L 132.330447 221.149852 
z
" style="fill:#1f77b4;"/>
   </g>
   <g id="patch_48">
    <path clip-path="url(#p516d6391b2)" d="M 133.947949 273.312 
L 135.56545 273.312 
L 135.56545 227.953611 
L 133.947949 227.953611 
z
" style="fill:#1f77b4;"/>
   </g>
   <g id="patch_49">
    <path clip-path="url(#p516d6391b2)" d="M 135.56545 273.312 
L 137.182951 273.312 
L 137.182951 221.716832 
L 135.56545 221.716832 
z
" style="fill:#1f77b4;"/>
   </g>
   <g id="patch_50">
    <path clip-path="url(#p516d6391b2)" d="M 137.182951 273.312 
L 138.800453 273.312 
L 138.800453 210.944215 
L 137.182951 210.944215 
z
" style="fill:#1f77b4;"/>
   </g>
   <g id="patch_51">
    <path clip-path="url(#p516d6391b2)" d="M 138.800453 273.312 
L 140.417954 273.312 
L 140.417954 225.118711 
L 138.800453 225.118711 
z
" style="fill:#1f77b4;"/>
   </g>
   <g id="patch_52">
    <path clip-path="url(#p516d6391b2)" d="M 140.417954 273.312 
L 142.035456 273.312 
L 142.035456 213.779114 
L 140.417954 213.779114 
z
" style="fill:#1f77b4;"/>
   </g>
   <g id="patch_53">
    <path clip-path="url(#p516d6391b2)" d="M 142.035456 273.312 
L 143.652957 273.312 
L 143.652957 219.448913 
L 142.035456 219.448913 
z
" style="fill:#1f77b4;"/>
   </g>
   <g id="patch_54">
    <path clip-path="url(#p516d6391b2)" d="M 143.652957 273.312 
L 145.270458 273.312 
L 145.270458 206.975356 
L 143.652957 206.975356 
z
" style="fill:#1f77b4;"/>
   </g>
   <g id="patch_55">
    <path clip-path="url(#p516d6391b2)" d="M 145.270458 273.312 
L 146.88796 273.312 
L 146.88796 221.149852 
L 145.270458 221.149852 
z
" style="fill:#1f77b4;"/>
   </g>
   <g id="patch_56">
    <path clip-path="url(#p516d6391b2)" d="M 146.88796 273.312 
L 148.505461 273.312 
L 148.505461 211.511195 
L 146.88796 211.511195 
z
" style="fill:#1f77b4;"/>
   </g>
   <g id="patch_57">
    <path clip-path="url(#p516d6391b2)" d="M 148.505461 273.312 
L 150.122963 273.312 
L 150.122963 219.448913 
L 148.505461 219.448913 
z
" style="fill:#1f77b4;"/>
   </g>
   <g id="patch_58">
    <path clip-path="url(#p516d6391b2)" d="M 150.122963 273.312 
L 151.740464 273.312 
L 151.740464 209.810255 
L 150.122963 209.810255 
z
" style="fill:#1f77b4;"/>
   </g>
   <g id="patch_59">
    <path clip-path="url(#p516d6391b2)" d="M 151.740464 273.312 
L 153.357965 273.312 
L 153.357965 213.779114 
L 151.740464 213.779114 
z
" style="fill:#1f77b4;"/>
   </g>
   <g id="patch_60">
    <path clip-path="url(#p516d6391b2)" d="M 153.357965 273.312 
L 154.975467 273.312 
L 154.975467 211.511195 
L 153.357965 211.511195 
z
" style="fill:#1f77b4;"/>
   </g>
   <g id="patch_61">
    <path clip-path="url(#p516d6391b2)" d="M 154.975467 273.312 
L 156.592968 273.312 
L 156.592968 200.171597 
L 154.975467 200.171597 
z
" style="fill:#1f77b4;"/>
   </g>
   <g id="patch_62">
    <path clip-path="url(#p516d6391b2)" d="M 156.592968 273.312 
L 158.21047 273.312 
L 158.21047 210.377235 
L 156.592968 210.377235 
z
" style="fill:#1f77b4;"/>
   </g>
   <g id="patch_63">
    <path clip-path="url(#p516d6391b2)" d="M 158.21047 273.312 
L 159.827971 273.312 
L 159.827971 203.006497 
L 158.21047 203.006497 
z
" style="fill:#1f77b4;"/>
   </g>
   <g id="patch_64">
    <path clip-path="url(#p516d6391b2)" d="M 159.827971 273.312 
L 161.445472 273.312 
L 161.445472 204.140456 
L 159.827971 204.140456 
z
" style="fill:#1f77b4;"/>
   </g>
   <g id="patch_65">
    <path clip-path="url(#p516d6391b2)" d="M 161.445472 273.312 
L 163.062974 273.312 
L 163.062974 205.274416 
L 161.445472 205.274416 
z
" style="fill:#1f77b4;"/>
   </g>
   <g id="patch_66">
    <path clip-path="url(#p516d6391b2)" d="M 163.062974 273.312 
L 164.680475 273.312 
L 164.680475 197.336698 
L 163.062974 197.336698 
z
" style="fill:#1f77b4;"/>
   </g>
   <g id="patch_67">
    <path clip-path="url(#p516d6391b2)" d="M 164.680475 273.312 
L 166.297977 273.312 
L 166.297977 201.872537 
L 164.680475 201.872537 
z
" style="fill:#1f77b4;"/>
   </g>
   <g id="patch_68">
    <path clip-path="url(#p516d6391b2)" d="M 166.297977 273.312 
L 167.915478 273.312 
L 167.915478 214.913074 
L 166.297977 214.913074 
z
" style="fill:#1f77b4;"/>
   </g>
   <g id="patch_69">
    <path clip-path="url(#p516d6391b2)" d="M 167.915478 273.312 
L 169.532979 273.312 
L 169.532979 203.006497 
L 167.915478 203.006497 
z
" style="fill:#1f77b4;"/>
   </g>
   <g id="patch_70">
    <path clip-path="url(#p516d6391b2)" d="M 169.532979 273.312 
L 171.150481 273.312 
L 171.150481 201.872537 
L 169.532979 201.872537 
z
" style="fill:#1f77b4;"/>
   </g>
   <g id="patch_71">
    <path clip-path="url(#p516d6391b2)" d="M 171.150481 273.312 
L 172.767982 273.312 
L 172.767982 197.903678 
L 171.150481 197.903678 
z
" style="fill:#1f77b4;"/>
   </g>
   <g id="patch_72">
    <path clip-path="url(#p516d6391b2)" d="M 172.767982 273.312 
L 174.385484 273.312 
L 174.385484 195.068779 
L 172.767982 195.068779 
z
" style="fill:#1f77b4;"/>
   </g>
   <g id="patch_73">
    <path clip-path="url(#p516d6391b2)" d="M 174.385484 273.312 
L 176.002985 273.312 
L 176.002985 187.69804 
L 174.385484 187.69804 
z
" style="fill:#1f77b4;"/>
   </g>
   <g id="patch_74">
    <path clip-path="url(#p516d6391b2)" d="M 176.002985 273.312 
L 177.620486 273.312 
L 177.620486 197.903678 
L 176.002985 197.903678 
z
" style="fill:#1f77b4;"/>
   </g>
   <g id="patch_75">
    <path clip-path="url(#p516d6391b2)" d="M 177.620486 273.312 
L 179.237988 273.312 
L 179.237988 196.769718 
L 177.620486 196.769718 
z
" style="fill:#1f77b4;"/>
   </g>
   <g id="patch_76">
    <path clip-path="url(#p516d6391b2)" d="M 179.237988 273.312 
L 180.855489 273.312 
L 180.855489 183.729181 
L 179.237988 183.729181 
z
" style="fill:#1f77b4;"/>
   </g>
   <g id="patch_77">
    <path clip-path="url(#p516d6391b2)" d="M 180.855489 273.312 
L 182.472991 273.312 
L 182.472991 180.894282 
L 180.855489 180.894282 
z
" style="fill:#1f77b4;"/>
   </g>
   <g id="patch_78">
    <path clip-path="url(#p516d6391b2)" d="M 182.472991 273.312 
L 184.090492 273.312 
L 184.090492 198.470658 
L 182.472991 198.470658 
z
" style="fill:#1f77b4;"/>
   </g>
   <g id="patch_79">
    <path clip-path="url(#p516d6391b2)" d="M 184.090492 273.312 
L 185.707994 273.312 
L 185.707994 178.626362 
L 184.090492 178.626362 
z
" style="fill:#1f77b4;"/>
   </g>
   <g id="patch_80">
    <path clip-path="url(#p516d6391b2)" d="M 185.707994 273.312 
L 187.325495 273.312 
L 187.325495 182.028242 
L 185.707994 182.028242 
z
" style="fill:#1f77b4;"/>
   </g>
   <g id="patch_81">
    <path clip-path="url(#p516d6391b2)" d="M 187.325495 273.312 
L 188.942996 273.312 
L 188.942996 195.635758 
L 187.325495 195.635758 
z
" style="fill:#1f77b4;"/>
   </g>
   <g id="patch_82">
    <path clip-path="url(#p516d6391b2)" d="M 188.942996 273.312 
L 190.560498 273.312 
L 190.560498 185.430121 
L 188.942996 185.430121 
z
" style="fill:#1f77b4;"/>
   </g>
   <g id="patch_83">
    <path clip-path="url(#p516d6391b2)" d="M 190.560498 273.312 
L 192.177999 273.312 
L 192.177999 192.233879 
L 190.560498 192.233879 
z
" style="fill:#1f77b4;"/>
   </g>
   <g id="patch_84">
    <path clip-path="url(#p516d6391b2)" d="M 192.177999 273.312 
L 193.795501 273.312 
L 193.795501 179.193342 
L 192.177999 179.193342 
z
" style="fill:#1f77b4;"/>
   </g>
   <g id="patch_85">
    <path clip-path="url(#p516d6391b2)" d="M 193.795501 273.312 
L 195.413002 273.312 
L 195.413002 181.461262 
L 193.795501 181.461262 
z
" style="fill:#1f77b4;"/>
   </g>
   <g id="patch_86">
    <path clip-path="url(#p516d6391b2)" d="M 195.413002 273.312 
L 197.030503 273.312 
L 197.030503 174.657503 
L 195.413002 174.657503 
z
" style="fill:#1f77b4;"/>
   </g>
   <g id="patch_87">
    <path clip-path="url(#p516d6391b2)" d="M 197.030503 273.312 
L 198.648005 273.312 
L 198.648005 193.934819 
L 197.030503 193.934819 
z
" style="fill:#1f77b4;"/>
   </g>
   <g id="patch_88">
    <path clip-path="url(#p516d6391b2)" d="M 198.648005 273.312 
L 200.265506 273.312 
L 200.265506 181.461262 
L 198.648005 181.461262 
z
" style="fill:#1f77b4;"/>
   </g>
   <g id="patch_89">
    <path clip-path="url(#p516d6391b2)" d="M 200.265506 273.312 
L 201.883008 273.312 
L 201.883008 176.925423 
L 200.265506 176.925423 
z
" style="fill:#1f77b4;"/>
   </g>
   <g id="patch_90">
    <path clip-path="url(#p516d6391b2)" d="M 201.883008 273.312 
L 203.500509 273.312 
L 203.500509 185.997101 
L 201.883008 185.997101 
z
" style="fill:#1f77b4;"/>
   </g>
   <g id="patch_91">
    <path clip-path="url(#p516d6391b2)" d="M 203.500509 273.312 
L 205.11801 273.312 
L 205.11801 187.69804 
L 203.500509 187.69804 
z
" style="fill:#1f77b4;"/>
   </g>
   <g id="patch_92">
    <path clip-path="url(#p516d6391b2)" d="M 205.11801 273.312 
L 206.735512 273.312 
L 206.735512 176.925423 
L 205.11801 176.925423 
z
" style="fill:#1f77b4;"/>
   </g>
   <g id="patch_93">
    <path clip-path="url(#p516d6391b2)" d="M 206.735512 273.312 
L 208.353013 273.312 
L 208.353013 158.782067 
L 206.735512 158.782067 
z
" style="fill:#1f77b4;"/>
   </g>
   <g id="patch_94">
    <path clip-path="url(#p516d6391b2)" d="M 208.353013 273.312 
L 209.970515 273.312 
L 209.970515 176.358443 
L 208.353013 176.358443 
z
" style="fill:#1f77b4;"/>
   </g>
   <g id="patch_95">
    <path clip-path="url(#p516d6391b2)" d="M 209.970515 273.312 
L 211.588016 273.312 
L 211.588016 167.286765 
L 209.970515 167.286765 
z
" style="fill:#1f77b4;"/>
   </g>
   <g id="patch_96">
    <path clip-path="url(#p516d6391b2)" d="M 211.588016 273.312 
L 213.205517 273.312 
L 213.205517 166.719785 
L 211.588016 166.719785 
z
" style="fill:#1f77b4;"/>
   </g>
   <g id="patch_97">
    <path clip-path="url(#p516d6391b2)" d="M 213.205517 273.312 
L 214.823019 273.312 
L 214.823019 155.380188 
L 213.205517 155.380188 
z
" style="fill:#1f77b4;"/>
   </g>
   <g id="patch_98">
    <path clip-path="url(#p516d6391b2)" d="M 214.823019 273.312 
L 216.44052 273.312 
L 216.44052 171.255624 
L 214.823019 171.255624 
z
" style="fill:#1f77b4;"/>
   </g>
   <g id="patch_99">
    <path clip-path="url(#p516d6391b2)" d="M 216.44052 273.312 
L 218.058022 273.312 
L 218.058022 167.853745 
L 216.44052 167.853745 
z
" style="fill:#1f77b4;"/>
   </g>
   <g id="patch_100">
    <path clip-path="url(#p516d6391b2)" d="M 218.058022 273.312 
L 219.675523 273.312 
L 219.675523 173.523544 
L 218.058022 173.523544 
z
" style="fill:#1f77b4;"/>
   </g>
   <g id="patch_101">
    <path clip-path="url(#p516d6391b2)" d="M 219.675523 273.312 
L 221.293024 273.312 
L 221.293024 154.813208 
L 219.675523 154.813208 
z
" style="fill:#1f77b4;"/>
   </g>
   <g id="patch_102">
    <path clip-path="url(#p516d6391b2)" d="M 221.293024 273.312 
L 222.910526 273.312 
L 222.910526 155.380188 
L 221.293024 155.380188 
z
" style="fill:#1f77b4;"/>
   </g>
   <g id="patch_103">
    <path clip-path="url(#p516d6391b2)" d="M 222.910526 273.312 
L 224.528027 273.312 
L 224.528027 170.121664 
L 222.910526 170.121664 
z
" style="fill:#1f77b4;"/>
   </g>
   <g id="patch_104">
    <path clip-path="url(#p516d6391b2)" d="M 224.528027 273.312 
L 226.145529 273.312 
L 226.145529 153.112268 
L 224.528027 153.112268 
z
" style="fill:#1f77b4;"/>
   </g>
   <g id="patch_105">
    <path clip-path="url(#p516d6391b2)" d="M 226.145529 273.312 
L 227.76303 273.312 
L 227.76303 153.679248 
L 226.145529 153.679248 
z
" style="fill:#1f77b4;"/>
   </g>
   <g id="patch_106">
    <path clip-path="url(#p516d6391b2)" d="M 227.76303 273.312 
L 229.380531 273.312 
L 229.380531 155.380188 
L 227.76303 155.380188 
z
" style="fill:#1f77b4;"/>
   </g>
   <g id="patch_107">
    <path clip-path="url(#p516d6391b2)" d="M 229.380531 273.312 
L 230.998033 273.312 
L 230.998033 157.081128 
L 229.380531 157.081128 
z
" style="fill:#1f77b4;"/>
   </g>
   <g id="patch_108">
    <path clip-path="url(#p516d6391b2)" d="M 230.998033 273.312 
L 232.615534 273.312 
L 232.615534 142.339651 
L 230.998033 142.339651 
z
" style="fill:#1f77b4;"/>
   </g>
   <g id="patch_109">
    <path clip-path="url(#p516d6391b2)" d="M 232.615534 273.312 
L 234.233036 273.312 
L 234.233036 159.349047 
L 232.615534 159.349047 
z
" style="fill:#1f77b4;"/>
   </g>
   <g id="patch_110">
    <path clip-path="url(#p516d6391b2)" d="M 234.233036 273.312 
L 235.850537 273.312 
L 235.850537 145.17455 
L 234.233036 145.17455 
z
" style="fill:#1f77b4;"/>
   </g>
   <g id="patch_111">
    <path clip-path="url(#p516d6391b2)" d="M 235.850537 273.312 
L 237.468038 273.312 
L 237.468038 149.710389 
L 235.850537 149.710389 
z
" style="fill:#1f77b4;"/>
   </g>
   <g id="patch_112">
    <path clip-path="url(#p516d6391b2)" d="M 237.468038 273.312 
L 239.08554 273.312 
L 239.08554 149.710389 
L 237.468038 149.710389 
z
" style="fill:#1f77b4;"/>
   </g>
   <g id="patch_113">
    <path clip-path="url(#p516d6391b2)" d="M 239.08554 273.312 
L 240.703041 273.312 
L 240.703041 123.062336 
L 239.08554 123.062336 
z
" style="fill:#1f77b4;"/>
   </g>
   <g id="patch_114">
    <path clip-path="url(#p516d6391b2)" d="M 240.703041 273.312 
L 242.320543 273.312 
L 242.320543 150.277369 
L 240.703041 150.277369 
z
" style="fill:#1f77b4;"/>
   </g>
   <g id="patch_115">
    <path clip-path="url(#p516d6391b2)" d="M 242.320543 273.312 
L 243.938044 273.312 
L 243.938044 144.60757 
L 242.320543 144.60757 
z
" style="fill:#1f77b4;"/>
   </g>
   <g id="patch_116">
    <path clip-path="url(#p516d6391b2)" d="M 243.938044 273.312 
L 245.555545 273.312 
L 245.555545 140.071732 
L 243.938044 140.071732 
z
" style="fill:#1f77b4;"/>
   </g>
   <g id="patch_117">
    <path clip-path="url(#p516d6391b2)" d="M 245.555545 273.312 
L 247.173047 273.312 
L 247.173047 157.081128 
L 245.555545 157.081128 
z
" style="fill:#1f77b4;"/>
   </g>
   <g id="patch_118">
    <path clip-path="url(#p516d6391b2)" d="M 247.173047 273.312 
L 248.790548 273.312 
L 248.790548 154.246228 
L 247.173047 154.246228 
z
" style="fill:#1f77b4;"/>
   </g>
   <g id="patch_119">
    <path clip-path="url(#p516d6391b2)" d="M 248.790548 273.312 
L 250.40805 273.312 
L 250.40805 123.062336 
L 248.790548 123.062336 
z
" style="fill:#1f77b4;"/>
   </g>
   <g id="patch_120">
    <path clip-path="url(#p516d6391b2)" d="M 250.40805 273.312 
L 252.025551 273.312 
L 252.025551 143.473611 
L 250.40805 143.473611 
z
" style="fill:#1f77b4;"/>
   </g>
   <g id="patch_121">
    <path clip-path="url(#p516d6391b2)" d="M 252.025551 273.312 
L 253.643052 273.312 
L 253.643052 145.17455 
L 252.025551 145.17455 
z
" style="fill:#1f77b4;"/>
   </g>
   <g id="patch_122">
    <path clip-path="url(#p516d6391b2)" d="M 253.643052 273.312 
L 255.260554 273.312 
L 255.260554 138.937772 
L 253.643052 138.937772 
z
" style="fill:#1f77b4;"/>
   </g>
   <g id="patch_123">
    <path clip-path="url(#p516d6391b2)" d="M 255.260554 273.312 
L 256.878055 273.312 
L 256.878055 124.763275 
L 255.260554 124.763275 
z
" style="fill:#1f77b4;"/>
   </g>
   <g id="patch_124">
    <path clip-path="url(#p516d6391b2)" d="M 256.878055 273.312 
L 258.495557 273.312 
L 258.495557 145.17455 
L 256.878055 145.17455 
z
" style="fill:#1f77b4;"/>
   </g>
   <g id="patch_125">
    <path clip-path="url(#p516d6391b2)" d="M 258.495557 273.312 
L 260.113058 273.312 
L 260.113058 136.102872 
L 258.495557 136.102872 
z
" style="fill:#1f77b4;"/>
   </g>
   <g id="patch_126">
    <path clip-path="url(#p516d6391b2)" d="M 260.113058 273.312 
L 261.730559 273.312 
L 261.730559 137.236832 
L 260.113058 137.236832 
z
" style="fill:#1f77b4;"/>
   </g>
   <g id="patch_127">
    <path clip-path="url(#p516d6391b2)" d="M 261.730559 273.312 
L 263.348061 273.312 
L 263.348061 143.473611 
L 261.730559 143.473611 
z
" style="fill:#1f77b4;"/>
   </g>
   <g id="patch_128">
    <path clip-path="url(#p516d6391b2)" d="M 263.348061 273.312 
L 264.965562 273.312 
L 264.965562 128.165154 
L 263.348061 128.165154 
z
" style="fill:#1f77b4;"/>
   </g>
   <g id="patch_129">
    <path clip-path="url(#p516d6391b2)" d="M 264.965562 273.312 
L 266.583064 273.312 
L 266.583064 133.267973 
L 264.965562 133.267973 
z
" style="fill:#1f77b4;"/>
   </g>
   <g id="patch_130">
    <path clip-path="url(#p516d6391b2)" d="M 266.583064 273.312 
L 268.200565 273.312 
L 268.200565 128.165154 
L 266.583064 128.165154 
z
" style="fill:#1f77b4;"/>
   </g>
   <g id="patch_131">
    <path clip-path="url(#p516d6391b2)" d="M 268.200565 273.312 
L 269.818066 273.312 
L 269.818066 110.588779 
L 268.200565 110.588779 
z
" style="fill:#1f77b4;"/>
   </g>
   <g id="patch_132">
    <path clip-path="url(#p516d6391b2)" d="M 269.818066 273.312 
L 271.435568 273.312 
L 271.435568 127.598174 
L 269.818066 127.598174 
z
" style="fill:#1f77b4;"/>
   </g>
   <g id="patch_133">
    <path clip-path="url(#p516d6391b2)" d="M 271.435568 273.312 
L 273.053069 273.312 
L 273.053069 131.567034 
L 271.435568 131.567034 
z
" style="fill:#1f77b4;"/>
   </g>
   <g id="patch_134">
    <path clip-path="url(#p516d6391b2)" d="M 273.053069 273.312 
L 274.670571 273.312 
L 274.670571 129.299114 
L 273.053069 129.299114 
z
" style="fill:#1f77b4;"/>
   </g>
   <g id="patch_135">
    <path clip-path="url(#p516d6391b2)" d="M 274.670571 273.312 
L 276.288072 273.312 
L 276.288072 115.691597 
L 274.670571 115.691597 
z
" style="fill:#1f77b4;"/>
   </g>
   <g id="patch_136">
    <path clip-path="url(#p516d6391b2)" d="M 276.288072 273.312 
L 277.905574 273.312 
L 277.905574 122.495356 
L 276.288072 122.495356 
z
" style="fill:#1f77b4;"/>
   </g>
   <g id="patch_137">
    <path clip-path="url(#p516d6391b2)" d="M 277.905574 273.312 
L 279.523075 273.312 
L 279.523075 120.794416 
L 277.905574 120.794416 
z
" style="fill:#1f77b4;"/>
   </g>
   <g id="patch_138">
    <path clip-path="url(#p516d6391b2)" d="M 279.523075 273.312 
L 281.140576 273.312 
L 281.140576 117.392537 
L 279.523075 117.392537 
z
" style="fill:#1f77b4;"/>
   </g>
   <g id="patch_139">
    <path clip-path="url(#p516d6391b2)" d="M 281.140576 273.312 
L 282.758078 273.312 
L 282.758078 111.722738 
L 281.140576 111.722738 
z
" style="fill:#1f77b4;"/>
   </g>
   <g id="patch_140">
    <path clip-path="url(#p516d6391b2)" d="M 282.758078 273.312 
L 284.375579 273.312 
L 284.375579 119.660456 
L 282.758078 119.660456 
z
" style="fill:#1f77b4;"/>
   </g>
   <g id="patch_141">
    <path clip-path="url(#p516d6391b2)" d="M 284.375579 273.312 
L 285.993081 273.312 
L 285.993081 106.05294 
L 284.375579 106.05294 
z
" style="fill:#1f77b4;"/>
   </g>
   <g id="patch_142">
    <path clip-path="url(#p516d6391b2)" d="M 285.993081 273.312 
L 287.610582 273.312 
L 287.610582 121.361396 
L 285.993081 121.361396 
z
" style="fill:#1f77b4;"/>
   </g>
   <g id="patch_143">
    <path clip-path="url(#p516d6391b2)" d="M 287.610582 273.312 
L 289.228083 273.312 
L 289.228083 121.928376 
L 287.610582 121.928376 
z
" style="fill:#1f77b4;"/>
   </g>
   <g id="patch_144">
    <path clip-path="url(#p516d6391b2)" d="M 289.228083 273.312 
L 290.845585 273.312 
L 290.845585 109.454819 
L 289.228083 109.454819 
z
" style="fill:#1f77b4;"/>
   </g>
   <g id="patch_145">
    <path clip-path="url(#p516d6391b2)" d="M 290.845585 273.312 
L 292.463086 273.312 
L 292.463086 128.732134 
L 290.845585 128.732134 
z
" style="fill:#1f77b4;"/>
   </g>
   <g id="patch_146">
    <path clip-path="url(#p516d6391b2)" d="M 292.463086 273.312 
L 294.080588 273.312 
L 294.080588 116.825557 
L 292.463086 116.825557 
z
" style="fill:#1f77b4;"/>
   </g>
   <g id="patch_147">
    <path clip-path="url(#p516d6391b2)" d="M 294.080588 273.312 
L 295.698089 273.312 
L 295.698089 118.526497 
L 294.080588 118.526497 
z
" style="fill:#1f77b4;"/>
   </g>
   <g id="patch_148">
    <path clip-path="url(#p516d6391b2)" d="M 295.698089 273.312 
L 297.31559 273.312 
L 297.31559 115.124617 
L 295.698089 115.124617 
z
" style="fill:#1f77b4;"/>
   </g>
   <g id="patch_149">
    <path clip-path="url(#p516d6391b2)" d="M 297.31559 273.312 
L 298.933092 273.312 
L 298.933092 121.928376 
L 297.31559 121.928376 
z
" style="fill:#1f77b4;"/>
   </g>
   <g id="patch_150">
    <path clip-path="url(#p516d6391b2)" d="M 298.933092 273.312 
L 300.550593 273.312 
L 300.550593 116.258577 
L 298.933092 116.258577 
z
" style="fill:#1f77b4;"/>
   </g>
   <g id="patch_151">
    <path clip-path="url(#p516d6391b2)" d="M 300.550593 273.312 
L 302.168095 273.312 
L 302.168095 119.660456 
L 300.550593 119.660456 
z
" style="fill:#1f77b4;"/>
   </g>
   <g id="patch_152">
    <path clip-path="url(#p516d6391b2)" d="M 302.168095 273.312 
L 303.785596 273.312 
L 303.785596 109.454819 
L 302.168095 109.454819 
z
" style="fill:#1f77b4;"/>
   </g>
   <g id="patch_153">
    <path clip-path="url(#p516d6391b2)" d="M 303.785596 273.312 
L 305.403097 273.312 
L 305.403097 86.208644 
L 303.785596 86.208644 
z
" style="fill:#1f77b4;"/>
   </g>
   <g id="patch_154">
    <path clip-path="url(#p516d6391b2)" d="M 305.403097 273.312 
L 307.020599 273.312 
L 307.020599 102.65106 
L 305.403097 102.65106 
z
" style="fill:#1f77b4;"/>
   </g>
   <g id="patch_155">
    <path clip-path="url(#p516d6391b2)" d="M 307.020599 273.312 
L 308.6381 273.312 
L 308.6381 113.990658 
L 307.020599 113.990658 
z
" style="fill:#1f77b4;"/>
   </g>
   <g id="patch_156">
    <path clip-path="url(#p516d6391b2)" d="M 308.6381 273.312 
L 310.255602 273.312 
L 310.255602 76.003007 
L 308.6381 76.003007 
z
" style="fill:#1f77b4;"/>
   </g>
   <g id="patch_157">
    <path clip-path="url(#p516d6391b2)" d="M 310.255602 273.312 
L 311.873103 273.312 
L 311.873103 90.744483 
L 310.255602 90.744483 
z
" style="fill:#1f77b4;"/>
   </g>
   <g id="patch_158">
    <path clip-path="url(#p516d6391b2)" d="M 311.873103 273.312 
L 313.490604 273.312 
L 313.490604 75.436027 
L 311.873103 75.436027 
z
" style="fill:#1f77b4;"/>
   </g>
   <g id="patch_159">
    <path clip-path="url(#p516d6391b2)" d="M 313.490604 273.312 
L 315.108106 273.312 
L 315.108106 101.517101 
L 313.490604 101.517101 
z
" style="fill:#1f77b4;"/>
   </g>
   <g id="patch_160">
    <path clip-path="url(#p516d6391b2)" d="M 315.108106 273.312 
L 316.725607 273.312 
L 316.725607 73.735087 
L 315.108106 73.735087 
z
" style="fill:#1f77b4;"/>
   </g>
   <g id="patch_161">
    <path clip-path="url(#p516d6391b2)" d="M 316.725607 273.312 
L 318.343109 273.312 
L 318.343109 88.476564 
L 316.725607 88.476564 
z
" style="fill:#1f77b4;"/>
   </g>
   <g id="patch_162">
    <path clip-path="url(#p516d6391b2)" d="M 318.343109 273.312 
L 319.96061 273.312 
L 319.96061 92.445423 
L 318.343109 92.445423 
z
" style="fill:#1f77b4;"/>
   </g>
   <g id="patch_163">
    <path clip-path="url(#p516d6391b2)" d="M 319.96061 273.312 
L 321.578111 273.312 
L 321.578111 77.703946 
L 319.96061 77.703946 
z
" style="fill:#1f77b4;"/>
   </g>
   <g id="patch_164">
    <path clip-path="url(#p516d6391b2)" d="M 321.578111 273.312 
L 323.195613 273.312 
L 323.195613 84.507705 
L 321.578111 84.507705 
z
" style="fill:#1f77b4;"/>
   </g>
   <g id="patch_165">
    <path clip-path="url(#p516d6391b2)" d="M 323.195613 273.312 
L 324.813114 273.312 
L 324.813114 96.414282 
L 323.195613 96.414282 
z
" style="fill:#1f77b4;"/>
   </g>
   <g id="patch_166">
    <path clip-path="url(#p516d6391b2)" d="M 324.813114 273.312 
L 326.430616 273.312 
L 326.430616 84.507705 
L 324.813114 84.507705 
z
" style="fill:#1f77b4;"/>
   </g>
   <g id="patch_167">
    <path clip-path="url(#p516d6391b2)" d="M 326.430616 273.312 
L 328.048117 273.312 
L 328.048117 90.177503 
L 326.430616 90.177503 
z
" style="fill:#1f77b4;"/>
   </g>
   <g id="patch_168">
    <path clip-path="url(#p516d6391b2)" d="M 328.048117 273.312 
L 329.665618 273.312 
L 329.665618 93.579383 
L 328.048117 93.579383 
z
" style="fill:#1f77b4;"/>
   </g>
   <g id="patch_169">
    <path clip-path="url(#p516d6391b2)" d="M 329.665618 273.312 
L 331.28312 273.312 
L 331.28312 100.950121 
L 329.665618 100.950121 
z
" style="fill:#1f77b4;"/>
   </g>
   <g id="patch_170">
    <path clip-path="url(#p516d6391b2)" d="M 331.28312 273.312 
L 332.900621 273.312 
L 332.900621 82.806765 
L 331.28312 82.806765 
z
" style="fill:#1f77b4;"/>
   </g>
   <g id="patch_171">
    <path clip-path="url(#p516d6391b2)" d="M 332.900621 273.312 
L 334.518123 273.312 
L 334.518123 81.105826 
L 332.900621 81.105826 
z
" style="fill:#1f77b4;"/>
   </g>
   <g id="patch_172">
    <path clip-path="url(#p516d6391b2)" d="M 334.518123 273.312 
L 336.135624 273.312 
L 336.135624 84.507705 
L 334.518123 84.507705 
z
" style="fill:#1f77b4;"/>
   </g>
   <g id="patch_173">
    <path clip-path="url(#p516d6391b2)" d="M 336.135624 273.312 
L 337.753125 273.312 
L 337.753125 85.641664 
L 336.135624 85.641664 
z
" style="fill:#1f77b4;"/>
   </g>
   <g id="patch_174">
    <path clip-path="url(#p516d6391b2)" d="M 337.753125 273.312 
L 339.370627 273.312 
L 339.370627 69.766228 
L 337.753125 69.766228 
z
" style="fill:#1f77b4;"/>
   </g>
   <g id="patch_175">
    <path clip-path="url(#p516d6391b2)" d="M 339.370627 273.312 
L 340.988128 273.312 
L 340.988128 93.579383 
L 339.370627 93.579383 
z
" style="fill:#1f77b4;"/>
   </g>
   <g id="patch_176">
    <path clip-path="url(#p516d6391b2)" d="M 340.988128 273.312 
L 342.60563 273.312 
L 342.60563 86.775624 
L 340.988128 86.775624 
z
" style="fill:#1f77b4;"/>
   </g>
   <g id="patch_177">
    <path clip-path="url(#p516d6391b2)" d="M 342.60563 273.312 
L 344.223131 273.312 
L 344.223131 76.003007 
L 342.60563 76.003007 
z
" style="fill:#1f77b4;"/>
   </g>
   <g id="patch_178">
    <path clip-path="url(#p516d6391b2)" d="M 344.223131 273.312 
L 345.840632 273.312 
L 345.840632 81.105826 
L 344.223131 81.105826 
z
" style="fill:#1f77b4;"/>
   </g>
   <g id="patch_179">
    <path clip-path="url(#p516d6391b2)" d="M 345.840632 273.312 
L 347.458134 273.312 
L 347.458134 56.158711 
L 345.840632 56.158711 
z
" style="fill:#1f77b4;"/>
   </g>
   <g id="patch_180">
    <path clip-path="url(#p516d6391b2)" d="M 347.458134 273.312 
L 349.075635 273.312 
L 349.075635 79.404886 
L 347.458134 79.404886 
z
" style="fill:#1f77b4;"/>
   </g>
   <g id="patch_181">
    <path clip-path="url(#p516d6391b2)" d="M 349.075635 273.312 
L 350.693137 273.312 
L 350.693137 60.69455 
L 349.075635 60.69455 
z
" style="fill:#1f77b4;"/>
   </g>
   <g id="patch_182">
    <path clip-path="url(#p516d6391b2)" d="M 350.693137 273.312 
L 352.310638 273.312 
L 352.310638 63.52945 
L 350.693137 63.52945 
z
" style="fill:#1f77b4;"/>
   </g>
   <g id="patch_183">
    <path clip-path="url(#p516d6391b2)" d="M 352.310638 273.312 
L 353.928139 273.312 
L 353.928139 73.735087 
L 352.310638 73.735087 
z
" style="fill:#1f77b4;"/>
   </g>
   <g id="patch_184">
    <path clip-path="url(#p516d6391b2)" d="M 353.928139 273.312 
L 355.545641 273.312 
L 355.545641 51.055893 
L 353.928139 51.055893 
z
" style="fill:#1f77b4;"/>
   </g>
   <g id="patch_185">
    <path clip-path="url(#p516d6391b2)" d="M 355.545641 273.312 
L 357.163142 273.312 
L 357.163142 73.168107 
L 355.545641 73.168107 
z
" style="fill:#1f77b4;"/>
   </g>
   <g id="patch_186">
    <path clip-path="url(#p516d6391b2)" d="M 357.163142 273.312 
L 358.780644 273.312 
L 358.780644 67.498309 
L 357.163142 67.498309 
z
" style="fill:#1f77b4;"/>
   </g>
   <g id="patch_187">
    <path clip-path="url(#p516d6391b2)" d="M 358.780644 273.312 
L 360.398145 273.312 
L 360.398145 61.26153 
L 358.780644 61.26153 
z
" style="fill:#1f77b4;"/>
   </g>
   <g id="patch_188">
    <path clip-path="url(#p516d6391b2)" d="M 360.398145 273.312 
L 362.015647 273.312 
L 362.015647 55.591732 
L 360.398145 55.591732 
z
" style="fill:#1f77b4;"/>
   </g>
   <g id="patch_189">
    <path clip-path="url(#p516d6391b2)" d="M 362.015647 273.312 
L 363.633148 273.312 
L 363.633148 67.498309 
L 362.015647 67.498309 
z
" style="fill:#1f77b4;"/>
   </g>
   <g id="patch_190">
    <path clip-path="url(#p516d6391b2)" d="M 363.633148 273.312 
L 365.250649 273.312 
L 365.250649 61.82851 
L 363.633148 61.82851 
z
" style="fill:#1f77b4;"/>
   </g>
   <g id="patch_191">
    <path clip-path="url(#p516d6391b2)" d="M 365.250649 273.312 
L 366.868151 273.312 
L 366.868151 47.087034 
L 365.250649 47.087034 
z
" style="fill:#1f77b4;"/>
   </g>
   <g id="patch_192">
    <path clip-path="url(#p516d6391b2)" d="M 366.868151 273.312 
L 368.485652 273.312 
L 368.485652 34.613477 
L 366.868151 34.613477 
z
" style="fill:#1f77b4;"/>
   </g>
   <g id="patch_193">
    <path clip-path="url(#p516d6391b2)" d="M 368.485652 273.312 
L 370.103154 273.312 
L 370.103154 60.69455 
L 368.485652 60.69455 
z
" style="fill:#1f77b4;"/>
   </g>
   <g id="patch_194">
    <path clip-path="url(#p516d6391b2)" d="M 370.103154 273.312 
L 371.720655 273.312 
L 371.720655 64.663409 
L 370.103154 64.663409 
z
" style="fill:#1f77b4;"/>
   </g>
   <g id="patch_195">
    <path clip-path="url(#p516d6391b2)" d="M 371.720655 273.312 
L 373.338156 273.312 
L 373.338156 49.921933 
L 371.720655 49.921933 
z
" style="fill:#1f77b4;"/>
   </g>
   <g id="patch_196">
    <path clip-path="url(#p516d6391b2)" d="M 373.338156 273.312 
L 374.955658 273.312 
L 374.955658 47.654013 
L 373.338156 47.654013 
z
" style="fill:#1f77b4;"/>
   </g>
   <g id="patch_197">
    <path clip-path="url(#p516d6391b2)" d="M 374.955658 273.312 
L 376.573159 273.312 
L 376.573159 53.890792 
L 374.955658 53.890792 
z
" style="fill:#1f77b4;"/>
   </g>
   <g id="patch_198">
    <path clip-path="url(#p516d6391b2)" d="M 376.573159 273.312 
L 378.190661 273.312 
L 378.190661 61.26153 
L 376.573159 61.26153 
z
" style="fill:#1f77b4;"/>
   </g>
   <g id="patch_199">
    <path clip-path="url(#p516d6391b2)" d="M 378.190661 273.312 
L 379.808162 273.312 
L 379.808162 35.180456 
L 378.190661 35.180456 
z
" style="fill:#1f77b4;"/>
   </g>
   <g id="patch_200">
    <path clip-path="url(#p516d6391b2)" d="M 379.808162 273.312 
L 381.425663 273.312 
L 381.425663 52.756832 
L 379.808162 52.756832 
z
" style="fill:#1f77b4;"/>
   </g>
   <g id="patch_201">
    <path clip-path="url(#p516d6391b2)" d="M 381.425663 273.312 
L 383.043165 273.312 
L 383.043165 19.872 
L 381.425663 19.872 
z
" style="fill:#1f77b4;"/>
   </g>
   <g id="patch_202">
    <path clip-path="url(#p516d6391b2)" d="M 383.043165 273.312 
L 384.660666 273.312 
L 384.660666 38.582336 
L 383.043165 38.582336 
z
" style="fill:#1f77b4;"/>
   </g>
   <g id="matplotlib.axis_1">
    <g id="xtick_1">
     <g id="line2d_1">
      <defs>
       <path d="M 0 0 
L 0 3.5 
" id="m23531e7cd5" style="stroke:#000000;stroke-width:0.8;"/>
      </defs>
      <g>
       <use style="stroke:#000000;stroke-width:0.8;" x="60.013977" xlink:href="#m23531e7cd5" y="273.312"/>
      </g>
     </g>
     <g id="text_1">
      <!-- 0.0 -->
      <g transform="translate(52.062415 287.910437)scale(0.1 -0.1)">
       <defs>
        <path d="M 2034 4250 
Q 1547 4250 1301 3770 
Q 1056 3291 1056 2328 
Q 1056 1369 1301 889 
Q 1547 409 2034 409 
Q 2525 409 2770 889 
Q 3016 1369 3016 2328 
Q 3016 3291 2770 3770 
Q 2525 4250 2034 4250 
z
M 2034 4750 
Q 2819 4750 3233 4129 
Q 3647 3509 3647 2328 
Q 3647 1150 3233 529 
Q 2819 -91 2034 -91 
Q 1250 -91 836 529 
Q 422 1150 422 2328 
Q 422 3509 836 4129 
Q 1250 4750 2034 4750 
z
" id="DejaVuSans-30" transform="scale(0.015625)"/>
        <path d="M 684 794 
L 1344 794 
L 1344 0 
L 684 0 
L 684 794 
z
" id="DejaVuSans-2e" transform="scale(0.015625)"/>
       </defs>
       <use xlink:href="#DejaVuSans-30"/>
       <use x="63.623047" xlink:href="#DejaVuSans-2e"/>
       <use x="95.410156" xlink:href="#DejaVuSans-30"/>
      </g>
     </g>
    </g>
    <g id="xtick_2">
     <g id="line2d_2">
      <g>
       <use style="stroke:#000000;stroke-width:0.8;" x="124.944886" xlink:href="#m23531e7cd5" y="273.312"/>
      </g>
     </g>
     <g id="text_2">
      <!-- 0.2 -->
      <g transform="translate(116.993324 287.910437)scale(0.1 -0.1)">
       <defs>
        <path d="M 1228 531 
L 3431 531 
L 3431 0 
L 469 0 
L 469 531 
Q 828 903 1448 1529 
Q 2069 2156 2228 2338 
Q 2531 2678 2651 2914 
Q 2772 3150 2772 3378 
Q 2772 3750 2511 3984 
Q 2250 4219 1831 4219 
Q 1534 4219 1204 4116 
Q 875 4013 500 3803 
L 500 4441 
Q 881 4594 1212 4672 
Q 1544 4750 1819 4750 
Q 2544 4750 2975 4387 
Q 3406 4025 3406 3419 
Q 3406 3131 3298 2873 
Q 3191 2616 2906 2266 
Q 2828 2175 2409 1742 
Q 1991 1309 1228 531 
z
" id="DejaVuSans-32" transform="scale(0.015625)"/>
       </defs>
       <use xlink:href="#DejaVuSans-30"/>
       <use x="63.623047" xlink:href="#DejaVuSans-2e"/>
       <use x="95.410156" xlink:href="#DejaVuSans-32"/>
      </g>
     </g>
    </g>
    <g id="xtick_3">
     <g id="line2d_3">
      <g>
       <use style="stroke:#000000;stroke-width:0.8;" x="189.875795" xlink:href="#m23531e7cd5" y="273.312"/>
      </g>
     </g>
     <g id="text_3">
      <!-- 0.4 -->
      <g transform="translate(181.924233 287.910437)scale(0.1 -0.1)">
       <defs>
        <path d="M 2419 4116 
L 825 1625 
L 2419 1625 
L 2419 4116 
z
M 2253 4666 
L 3047 4666 
L 3047 1625 
L 3713 1625 
L 3713 1100 
L 3047 1100 
L 3047 0 
L 2419 0 
L 2419 1100 
L 313 1100 
L 313 1709 
L 2253 4666 
z
" id="DejaVuSans-34" transform="scale(0.015625)"/>
       </defs>
       <use xlink:href="#DejaVuSans-30"/>
       <use x="63.623047" xlink:href="#DejaVuSans-2e"/>
       <use x="95.410156" xlink:href="#DejaVuSans-34"/>
      </g>
     </g>
    </g>
    <g id="xtick_4">
     <g id="line2d_4">
      <g>
       <use style="stroke:#000000;stroke-width:0.8;" x="254.806705" xlink:href="#m23531e7cd5" y="273.312"/>
      </g>
     </g>
     <g id="text_4">
      <!-- 0.6 -->
      <g transform="translate(246.855142 287.910437)scale(0.1 -0.1)">
       <defs>
        <path d="M 2113 2584 
Q 1688 2584 1439 2293 
Q 1191 2003 1191 1497 
Q 1191 994 1439 701 
Q 1688 409 2113 409 
Q 2538 409 2786 701 
Q 3034 994 3034 1497 
Q 3034 2003 2786 2293 
Q 2538 2584 2113 2584 
z
M 3366 4563 
L 3366 3988 
Q 3128 4100 2886 4159 
Q 2644 4219 2406 4219 
Q 1781 4219 1451 3797 
Q 1122 3375 1075 2522 
Q 1259 2794 1537 2939 
Q 1816 3084 2150 3084 
Q 2853 3084 3261 2657 
Q 3669 2231 3669 1497 
Q 3669 778 3244 343 
Q 2819 -91 2113 -91 
Q 1303 -91 875 529 
Q 447 1150 447 2328 
Q 447 3434 972 4092 
Q 1497 4750 2381 4750 
Q 2619 4750 2861 4703 
Q 3103 4656 3366 4563 
z
" id="DejaVuSans-36" transform="scale(0.015625)"/>
       </defs>
       <use xlink:href="#DejaVuSans-30"/>
       <use x="63.623047" xlink:href="#DejaVuSans-2e"/>
       <use x="95.410156" xlink:href="#DejaVuSans-36"/>
      </g>
     </g>
    </g>
    <g id="xtick_5">
     <g id="line2d_5">
      <g>
       <use style="stroke:#000000;stroke-width:0.8;" x="319.737614" xlink:href="#m23531e7cd5" y="273.312"/>
      </g>
     </g>
     <g id="text_5">
      <!-- 0.8 -->
      <g transform="translate(311.786051 287.910437)scale(0.1 -0.1)">
       <defs>
        <path d="M 2034 2216 
Q 1584 2216 1326 1975 
Q 1069 1734 1069 1313 
Q 1069 891 1326 650 
Q 1584 409 2034 409 
Q 2484 409 2743 651 
Q 3003 894 3003 1313 
Q 3003 1734 2745 1975 
Q 2488 2216 2034 2216 
z
M 1403 2484 
Q 997 2584 770 2862 
Q 544 3141 544 3541 
Q 544 4100 942 4425 
Q 1341 4750 2034 4750 
Q 2731 4750 3128 4425 
Q 3525 4100 3525 3541 
Q 3525 3141 3298 2862 
Q 3072 2584 2669 2484 
Q 3125 2378 3379 2068 
Q 3634 1759 3634 1313 
Q 3634 634 3220 271 
Q 2806 -91 2034 -91 
Q 1263 -91 848 271 
Q 434 634 434 1313 
Q 434 1759 690 2068 
Q 947 2378 1403 2484 
z
M 1172 3481 
Q 1172 3119 1398 2916 
Q 1625 2713 2034 2713 
Q 2441 2713 2670 2916 
Q 2900 3119 2900 3481 
Q 2900 3844 2670 4047 
Q 2441 4250 2034 4250 
Q 1625 4250 1398 4047 
Q 1172 3844 1172 3481 
z
" id="DejaVuSans-38" transform="scale(0.015625)"/>
       </defs>
       <use xlink:href="#DejaVuSans-30"/>
       <use x="63.623047" xlink:href="#DejaVuSans-2e"/>
       <use x="95.410156" xlink:href="#DejaVuSans-38"/>
      </g>
     </g>
    </g>
    <g id="xtick_6">
     <g id="line2d_6">
      <g>
       <use style="stroke:#000000;stroke-width:0.8;" x="384.668523" xlink:href="#m23531e7cd5" y="273.312"/>
      </g>
     </g>
     <g id="text_6">
      <!-- 1.0 -->
      <g transform="translate(376.71696 287.910437)scale(0.1 -0.1)">
       <defs>
        <path d="M 794 531 
L 1825 531 
L 1825 4091 
L 703 3866 
L 703 4441 
L 1819 4666 
L 2450 4666 
L 2450 531 
L 3481 531 
L 3481 0 
L 794 0 
L 794 531 
z
" id="DejaVuSans-31" transform="scale(0.015625)"/>
       </defs>
       <use xlink:href="#DejaVuSans-31"/>
       <use x="63.623047" xlink:href="#DejaVuSans-2e"/>
       <use x="95.410156" xlink:href="#DejaVuSans-30"/>
      </g>
     </g>
    </g>
    <g id="text_7">
     <!-- Propagation direction -->
     <g transform="translate(168.859219 301.588562)scale(0.1 -0.1)">
      <defs>
       <path d="M 1259 4147 
L 1259 2394 
L 2053 2394 
Q 2494 2394 2734 2622 
Q 2975 2850 2975 3272 
Q 2975 3691 2734 3919 
Q 2494 4147 2053 4147 
L 1259 4147 
z
M 628 4666 
L 2053 4666 
Q 2838 4666 3239 4311 
Q 3641 3956 3641 3272 
Q 3641 2581 3239 2228 
Q 2838 1875 2053 1875 
L 1259 1875 
L 1259 0 
L 628 0 
L 628 4666 
z
" id="DejaVuSans-50" transform="scale(0.015625)"/>
       <path d="M 2631 2963 
Q 2534 3019 2420 3045 
Q 2306 3072 2169 3072 
Q 1681 3072 1420 2755 
Q 1159 2438 1159 1844 
L 1159 0 
L 581 0 
L 581 3500 
L 1159 3500 
L 1159 2956 
Q 1341 3275 1631 3429 
Q 1922 3584 2338 3584 
Q 2397 3584 2469 3576 
Q 2541 3569 2628 3553 
L 2631 2963 
z
" id="DejaVuSans-72" transform="scale(0.015625)"/>
       <path d="M 1959 3097 
Q 1497 3097 1228 2736 
Q 959 2375 959 1747 
Q 959 1119 1226 758 
Q 1494 397 1959 397 
Q 2419 397 2687 759 
Q 2956 1122 2956 1747 
Q 2956 2369 2687 2733 
Q 2419 3097 1959 3097 
z
M 1959 3584 
Q 2709 3584 3137 3096 
Q 3566 2609 3566 1747 
Q 3566 888 3137 398 
Q 2709 -91 1959 -91 
Q 1206 -91 779 398 
Q 353 888 353 1747 
Q 353 2609 779 3096 
Q 1206 3584 1959 3584 
z
" id="DejaVuSans-6f" transform="scale(0.015625)"/>
       <path d="M 1159 525 
L 1159 -1331 
L 581 -1331 
L 581 3500 
L 1159 3500 
L 1159 2969 
Q 1341 3281 1617 3432 
Q 1894 3584 2278 3584 
Q 2916 3584 3314 3078 
Q 3713 2572 3713 1747 
Q 3713 922 3314 415 
Q 2916 -91 2278 -91 
Q 1894 -91 1617 61 
Q 1341 213 1159 525 
z
M 3116 1747 
Q 3116 2381 2855 2742 
Q 2594 3103 2138 3103 
Q 1681 3103 1420 2742 
Q 1159 2381 1159 1747 
Q 1159 1113 1420 752 
Q 1681 391 2138 391 
Q 2594 391 2855 752 
Q 3116 1113 3116 1747 
z
" id="DejaVuSans-70" transform="scale(0.015625)"/>
       <path d="M 2194 1759 
Q 1497 1759 1228 1600 
Q 959 1441 959 1056 
Q 959 750 1161 570 
Q 1363 391 1709 391 
Q 2188 391 2477 730 
Q 2766 1069 2766 1631 
L 2766 1759 
L 2194 1759 
z
M 3341 1997 
L 3341 0 
L 2766 0 
L 2766 531 
Q 2569 213 2275 61 
Q 1981 -91 1556 -91 
Q 1019 -91 701 211 
Q 384 513 384 1019 
Q 384 1609 779 1909 
Q 1175 2209 1959 2209 
L 2766 2209 
L 2766 2266 
Q 2766 2663 2505 2880 
Q 2244 3097 1772 3097 
Q 1472 3097 1187 3025 
Q 903 2953 641 2809 
L 641 3341 
Q 956 3463 1253 3523 
Q 1550 3584 1831 3584 
Q 2591 3584 2966 3190 
Q 3341 2797 3341 1997 
z
" id="DejaVuSans-61" transform="scale(0.015625)"/>
       <path d="M 2906 1791 
Q 2906 2416 2648 2759 
Q 2391 3103 1925 3103 
Q 1463 3103 1205 2759 
Q 947 2416 947 1791 
Q 947 1169 1205 825 
Q 1463 481 1925 481 
Q 2391 481 2648 825 
Q 2906 1169 2906 1791 
z
M 3481 434 
Q 3481 -459 3084 -895 
Q 2688 -1331 1869 -1331 
Q 1566 -1331 1297 -1286 
Q 1028 -1241 775 -1147 
L 775 -588 
Q 1028 -725 1275 -790 
Q 1522 -856 1778 -856 
Q 2344 -856 2625 -561 
Q 2906 -266 2906 331 
L 2906 616 
Q 2728 306 2450 153 
Q 2172 0 1784 0 
Q 1141 0 747 490 
Q 353 981 353 1791 
Q 353 2603 747 3093 
Q 1141 3584 1784 3584 
Q 2172 3584 2450 3431 
Q 2728 3278 2906 2969 
L 2906 3500 
L 3481 3500 
L 3481 434 
z
" id="DejaVuSans-67" transform="scale(0.015625)"/>
       <path d="M 1172 4494 
L 1172 3500 
L 2356 3500 
L 2356 3053 
L 1172 3053 
L 1172 1153 
Q 1172 725 1289 603 
Q 1406 481 1766 481 
L 2356 481 
L 2356 0 
L 1766 0 
Q 1100 0 847 248 
Q 594 497 594 1153 
L 594 3053 
L 172 3053 
L 172 3500 
L 594 3500 
L 594 4494 
L 1172 4494 
z
" id="DejaVuSans-74" transform="scale(0.015625)"/>
       <path d="M 603 3500 
L 1178 3500 
L 1178 0 
L 603 0 
L 603 3500 
z
M 603 4863 
L 1178 4863 
L 1178 4134 
L 603 4134 
L 603 4863 
z
" id="DejaVuSans-69" transform="scale(0.015625)"/>
       <path d="M 3513 2113 
L 3513 0 
L 2938 0 
L 2938 2094 
Q 2938 2591 2744 2837 
Q 2550 3084 2163 3084 
Q 1697 3084 1428 2787 
Q 1159 2491 1159 1978 
L 1159 0 
L 581 0 
L 581 3500 
L 1159 3500 
L 1159 2956 
Q 1366 3272 1645 3428 
Q 1925 3584 2291 3584 
Q 2894 3584 3203 3211 
Q 3513 2838 3513 2113 
z
" id="DejaVuSans-6e" transform="scale(0.015625)"/>
       <path id="DejaVuSans-20" transform="scale(0.015625)"/>
       <path d="M 2906 2969 
L 2906 4863 
L 3481 4863 
L 3481 0 
L 2906 0 
L 2906 525 
Q 2725 213 2448 61 
Q 2172 -91 1784 -91 
Q 1150 -91 751 415 
Q 353 922 353 1747 
Q 353 2572 751 3078 
Q 1150 3584 1784 3584 
Q 2172 3584 2448 3432 
Q 2725 3281 2906 2969 
z
M 947 1747 
Q 947 1113 1208 752 
Q 1469 391 1925 391 
Q 2381 391 2643 752 
Q 2906 1113 2906 1747 
Q 2906 2381 2643 2742 
Q 2381 3103 1925 3103 
Q 1469 3103 1208 2742 
Q 947 2381 947 1747 
z
" id="DejaVuSans-64" transform="scale(0.015625)"/>
       <path d="M 3597 1894 
L 3597 1613 
L 953 1613 
Q 991 1019 1311 708 
Q 1631 397 2203 397 
Q 2534 397 2845 478 
Q 3156 559 3463 722 
L 3463 178 
Q 3153 47 2828 -22 
Q 2503 -91 2169 -91 
Q 1331 -91 842 396 
Q 353 884 353 1716 
Q 353 2575 817 3079 
Q 1281 3584 2069 3584 
Q 2775 3584 3186 3129 
Q 3597 2675 3597 1894 
z
M 3022 2063 
Q 3016 2534 2758 2815 
Q 2500 3097 2075 3097 
Q 1594 3097 1305 2825 
Q 1016 2553 972 2059 
L 3022 2063 
z
" id="DejaVuSans-65" transform="scale(0.015625)"/>
       <path d="M 3122 3366 
L 3122 2828 
Q 2878 2963 2633 3030 
Q 2388 3097 2138 3097 
Q 1578 3097 1268 2742 
Q 959 2388 959 1747 
Q 959 1106 1268 751 
Q 1578 397 2138 397 
Q 2388 397 2633 464 
Q 2878 531 3122 666 
L 3122 134 
Q 2881 22 2623 -34 
Q 2366 -91 2075 -91 
Q 1284 -91 818 406 
Q 353 903 353 1747 
Q 353 2603 823 3093 
Q 1294 3584 2113 3584 
Q 2378 3584 2631 3529 
Q 2884 3475 3122 3366 
z
" id="DejaVuSans-63" transform="scale(0.015625)"/>
      </defs>
      <use xlink:href="#DejaVuSans-50"/>
      <use x="58.552734" xlink:href="#DejaVuSans-72"/>
      <use x="97.416016" xlink:href="#DejaVuSans-6f"/>
      <use x="158.597656" xlink:href="#DejaVuSans-70"/>
      <use x="222.074219" xlink:href="#DejaVuSans-61"/>
      <use x="283.353516" xlink:href="#DejaVuSans-67"/>
      <use x="346.830078" xlink:href="#DejaVuSans-61"/>
      <use x="408.109375" xlink:href="#DejaVuSans-74"/>
      <use x="447.318359" xlink:href="#DejaVuSans-69"/>
      <use x="475.101562" xlink:href="#DejaVuSans-6f"/>
      <use x="536.283203" xlink:href="#DejaVuSans-6e"/>
      <use x="599.662109" xlink:href="#DejaVuSans-20"/>
      <use x="631.449219" xlink:href="#DejaVuSans-64"/>
      <use x="694.925781" xlink:href="#DejaVuSans-69"/>
      <use x="722.708984" xlink:href="#DejaVuSans-72"/>
      <use x="761.572266" xlink:href="#DejaVuSans-65"/>
      <use x="823.095703" xlink:href="#DejaVuSans-63"/>
      <use x="878.076172" xlink:href="#DejaVuSans-74"/>
      <use x="917.285156" xlink:href="#DejaVuSans-69"/>
      <use x="945.068359" xlink:href="#DejaVuSans-6f"/>
      <use x="1006.25" xlink:href="#DejaVuSans-6e"/>
     </g>
    </g>
   </g>
   <g id="matplotlib.axis_2">
    <g id="ytick_1">
     <g id="line2d_7">
      <defs>
       <path d="M 0 0 
L -3.5 0 
" id="m0e2a3bf35d" style="stroke:#000000;stroke-width:0.8;"/>
      </defs>
      <g>
       <use style="stroke:#000000;stroke-width:0.8;" x="43.78125" xlink:href="#m0e2a3bf35d" y="273.312"/>
      </g>
     </g>
     <g id="text_8">
      <!-- 0.0 -->
      <g transform="translate(20.878125 277.111219)scale(0.1 -0.1)">
       <use xlink:href="#DejaVuSans-30"/>
       <use x="63.623047" xlink:href="#DejaVuSans-2e"/>
       <use x="95.410156" xlink:href="#DejaVuSans-30"/>
      </g>
     </g>
    </g>
    <g id="ytick_2">
     <g id="line2d_8">
      <g>
       <use style="stroke:#000000;stroke-width:0.8;" x="43.78125" xlink:href="#m0e2a3bf35d" y="216.815595"/>
      </g>
     </g>
     <g id="text_9">
      <!-- 0.5 -->
      <g transform="translate(20.878125 220.614814)scale(0.1 -0.1)">
       <defs>
        <path d="M 691 4666 
L 3169 4666 
L 3169 4134 
L 1269 4134 
L 1269 2991 
Q 1406 3038 1543 3061 
Q 1681 3084 1819 3084 
Q 2600 3084 3056 2656 
Q 3513 2228 3513 1497 
Q 3513 744 3044 326 
Q 2575 -91 1722 -91 
Q 1428 -91 1123 -41 
Q 819 9 494 109 
L 494 744 
Q 775 591 1075 516 
Q 1375 441 1709 441 
Q 2250 441 2565 725 
Q 2881 1009 2881 1497 
Q 2881 1984 2565 2268 
Q 2250 2553 1709 2553 
Q 1456 2553 1204 2497 
Q 953 2441 691 2322 
L 691 4666 
z
" id="DejaVuSans-35" transform="scale(0.015625)"/>
       </defs>
       <use xlink:href="#DejaVuSans-30"/>
       <use x="63.623047" xlink:href="#DejaVuSans-2e"/>
       <use x="95.410156" xlink:href="#DejaVuSans-35"/>
      </g>
     </g>
    </g>
    <g id="ytick_3">
     <g id="line2d_9">
      <g>
       <use style="stroke:#000000;stroke-width:0.8;" x="43.78125" xlink:href="#m0e2a3bf35d" y="160.319191"/>
      </g>
     </g>
     <g id="text_10">
      <!-- 1.0 -->
      <g transform="translate(20.878125 164.118409)scale(0.1 -0.1)">
       <use xlink:href="#DejaVuSans-31"/>
       <use x="63.623047" xlink:href="#DejaVuSans-2e"/>
       <use x="95.410156" xlink:href="#DejaVuSans-30"/>
      </g>
     </g>
    </g>
    <g id="ytick_4">
     <g id="line2d_10">
      <g>
       <use style="stroke:#000000;stroke-width:0.8;" x="43.78125" xlink:href="#m0e2a3bf35d" y="103.822786"/>
      </g>
     </g>
     <g id="text_11">
      <!-- 1.5 -->
      <g transform="translate(20.878125 107.622005)scale(0.1 -0.1)">
       <use xlink:href="#DejaVuSans-31"/>
       <use x="63.623047" xlink:href="#DejaVuSans-2e"/>
       <use x="95.410156" xlink:href="#DejaVuSans-35"/>
      </g>
     </g>
    </g>
    <g id="ytick_5">
     <g id="line2d_11">
      <g>
       <use style="stroke:#000000;stroke-width:0.8;" x="43.78125" xlink:href="#m0e2a3bf35d" y="47.326381"/>
      </g>
     </g>
     <g id="text_12">
      <!-- 2.0 -->
      <g transform="translate(20.878125 51.1256)scale(0.1 -0.1)">
       <use xlink:href="#DejaVuSans-32"/>
       <use x="63.623047" xlink:href="#DejaVuSans-2e"/>
       <use x="95.410156" xlink:href="#DejaVuSans-30"/>
      </g>
     </g>
    </g>
    <g id="text_13">
     <!-- Probability density -->
     <g transform="translate(14.798438 186.606781)rotate(-90)scale(0.1 -0.1)">
      <defs>
       <path d="M 3116 1747 
Q 3116 2381 2855 2742 
Q 2594 3103 2138 3103 
Q 1681 3103 1420 2742 
Q 1159 2381 1159 1747 
Q 1159 1113 1420 752 
Q 1681 391 2138 391 
Q 2594 391 2855 752 
Q 3116 1113 3116 1747 
z
M 1159 2969 
Q 1341 3281 1617 3432 
Q 1894 3584 2278 3584 
Q 2916 3584 3314 3078 
Q 3713 2572 3713 1747 
Q 3713 922 3314 415 
Q 2916 -91 2278 -91 
Q 1894 -91 1617 61 
Q 1341 213 1159 525 
L 1159 0 
L 581 0 
L 581 4863 
L 1159 4863 
L 1159 2969 
z
" id="DejaVuSans-62" transform="scale(0.015625)"/>
       <path d="M 603 4863 
L 1178 4863 
L 1178 0 
L 603 0 
L 603 4863 
z
" id="DejaVuSans-6c" transform="scale(0.015625)"/>
       <path d="M 2059 -325 
Q 1816 -950 1584 -1140 
Q 1353 -1331 966 -1331 
L 506 -1331 
L 506 -850 
L 844 -850 
Q 1081 -850 1212 -737 
Q 1344 -625 1503 -206 
L 1606 56 
L 191 3500 
L 800 3500 
L 1894 763 
L 2988 3500 
L 3597 3500 
L 2059 -325 
z
" id="DejaVuSans-79" transform="scale(0.015625)"/>
       <path d="M 2834 3397 
L 2834 2853 
Q 2591 2978 2328 3040 
Q 2066 3103 1784 3103 
Q 1356 3103 1142 2972 
Q 928 2841 928 2578 
Q 928 2378 1081 2264 
Q 1234 2150 1697 2047 
L 1894 2003 
Q 2506 1872 2764 1633 
Q 3022 1394 3022 966 
Q 3022 478 2636 193 
Q 2250 -91 1575 -91 
Q 1294 -91 989 -36 
Q 684 19 347 128 
L 347 722 
Q 666 556 975 473 
Q 1284 391 1588 391 
Q 1994 391 2212 530 
Q 2431 669 2431 922 
Q 2431 1156 2273 1281 
Q 2116 1406 1581 1522 
L 1381 1569 
Q 847 1681 609 1914 
Q 372 2147 372 2553 
Q 372 3047 722 3315 
Q 1072 3584 1716 3584 
Q 2034 3584 2315 3537 
Q 2597 3491 2834 3397 
z
" id="DejaVuSans-73" transform="scale(0.015625)"/>
      </defs>
      <use xlink:href="#DejaVuSans-50"/>
      <use x="58.552734" xlink:href="#DejaVuSans-72"/>
      <use x="97.416016" xlink:href="#DejaVuSans-6f"/>
      <use x="158.597656" xlink:href="#DejaVuSans-62"/>
      <use x="222.074219" xlink:href="#DejaVuSans-61"/>
      <use x="283.353516" xlink:href="#DejaVuSans-62"/>
      <use x="346.830078" xlink:href="#DejaVuSans-69"/>
      <use x="374.613281" xlink:href="#DejaVuSans-6c"/>
      <use x="402.396484" xlink:href="#DejaVuSans-69"/>
      <use x="430.179688" xlink:href="#DejaVuSans-74"/>
      <use x="469.388672" xlink:href="#DejaVuSans-79"/>
      <use x="528.568359" xlink:href="#DejaVuSans-20"/>
      <use x="560.355469" xlink:href="#DejaVuSans-64"/>
      <use x="623.832031" xlink:href="#DejaVuSans-65"/>
      <use x="685.355469" xlink:href="#DejaVuSans-6e"/>
      <use x="748.734375" xlink:href="#DejaVuSans-73"/>
      <use x="800.833984" xlink:href="#DejaVuSans-69"/>
      <use x="828.617188" xlink:href="#DejaVuSans-74"/>
      <use x="867.826172" xlink:href="#DejaVuSans-79"/>
     </g>
    </g>
   </g>
   <g id="line2d_12">
    <path clip-path="url(#p516d6391b2)" d="M 60.013977 273.312 
L 384.668523 47.326381 
L 384.668523 47.326381 
" style="fill:none;stroke:#ff7f0e;stroke-linecap:square;stroke-width:1.5;"/>
   </g>
   <g id="patch_203">
    <path d="M 43.78125 273.312 
L 43.78125 7.2 
" style="fill:none;stroke:#000000;stroke-linecap:square;stroke-linejoin:miter;stroke-width:0.8;"/>
   </g>
   <g id="patch_204">
    <path d="M 400.90125 273.312 
L 400.90125 7.2 
" style="fill:none;stroke:#000000;stroke-linecap:square;stroke-linejoin:miter;stroke-width:0.8;"/>
   </g>
   <g id="patch_205">
    <path d="M 43.78125 273.312 
L 400.90125 273.312 
" style="fill:none;stroke:#000000;stroke-linecap:square;stroke-linejoin:miter;stroke-width:0.8;"/>
   </g>
   <g id="patch_206">
    <path d="M 43.78125 7.2 
L 400.90125 7.2 
" style="fill:none;stroke:#000000;stroke-linecap:square;stroke-linejoin:miter;stroke-width:0.8;"/>
   </g>
  </g>
 </g>
 <defs>
  <clipPath id="p516d6391b2">
   <rect height="266.112" width="357.12" x="43.78125" y="7.2"/>
  </clipPath>
 </defs>
</svg>
