<?xml version="1.0" encoding="utf-8" standalone="no"?>
<!DOCTYPE svg PUBLIC "-//W3C//DTD SVG 1.1//EN"
  "http://www.w3.org/Graphics/SVG/1.1/DTD/svg11.dtd">
<svg height="310.86825pt" version="1.1" viewBox="0 0 408.10125 310.86825" width="408.10125pt" xmlns="http://www.w3.org/2000/svg" xmlns:xlink="http://www.w3.org/1999/xlink">
 <metadata>
  <rdf:RDF xmlns:cc="http://creativecommons.org/ns#" xmlns:dc="http://purl.org/dc/elements/1.1/" xmlns:rdf="http://www.w3.org/1999/02/22-rdf-syntax-ns#">
   <cc:Work>
    <dc:type rdf:resource="http://purl.org/dc/dcmitype/StillImage"/>
    <dc:date>2021-11-23T16:03:49.122273</dc:date>
    <dc:format>image/svg+xml</dc:format>
    <dc:creator>
     <cc:Agent>
      <dc:title>Matplotlib v3.4.3, https://matplotlib.org/</dc:title>
     </cc:Agent>
    </dc:creator>
   </cc:Work>
  </rdf:RDF>
 </metadata>
 <defs>
  <style type="text/css">*{stroke-linecap:butt;stroke-linejoin:round;}</style>
 </defs>
 <g id="figure_1">
  <g id="patch_1">
   <path d="M 0 310.86825 
L 408.10125 310.86825 
L 408.10125 0 
L 0 0 
z
" style="fill:#ffffff;"/>
  </g>
  <g id="axes_1">
   <g id="patch_2">
    <path d="M 43.78125 273.312 
L 400.90125 273.312 
L 400.90125 7.2 
L 43.78125 7.2 
z
" style="fill:#ffffff;"/>
   </g>
   <g id="patch_3">
    <path clip-path="url(#p5ba7453cd0)" d="M 61.16093 273.312 
L 62.778457 273.312 
L 62.778457 269.824294 
L 61.16093 269.824294 
z
" style="fill:#1f77b4;"/>
   </g>
   <g id="patch_4">
    <path clip-path="url(#p5ba7453cd0)" d="M 62.778457 273.312 
L 64.395983 273.312 
L 64.395983 270.986862 
L 62.778457 270.986862 
z
" style="fill:#1f77b4;"/>
   </g>
   <g id="patch_5">
    <path clip-path="url(#p5ba7453cd0)" d="M 64.395983 273.312 
L 66.013509 273.312 
L 66.013509 268.08044 
L 64.395983 268.08044 
z
" style="fill:#1f77b4;"/>
   </g>
   <g id="patch_6">
    <path clip-path="url(#p5ba7453cd0)" d="M 66.013509 273.312 
L 67.631035 273.312 
L 67.631035 268.08044 
L 66.013509 268.08044 
z
" style="fill:#1f77b4;"/>
   </g>
   <g id="patch_7">
    <path clip-path="url(#p5ba7453cd0)" d="M 67.631035 273.312 
L 69.248561 273.312 
L 69.248561 266.917872 
L 67.631035 266.917872 
z
" style="fill:#1f77b4;"/>
   </g>
   <g id="patch_8">
    <path clip-path="url(#p5ba7453cd0)" d="M 69.248561 273.312 
L 70.866088 273.312 
L 70.866088 265.174018 
L 69.248561 265.174018 
z
" style="fill:#1f77b4;"/>
   </g>
   <g id="patch_9">
    <path clip-path="url(#p5ba7453cd0)" d="M 70.866088 273.312 
L 72.483614 273.312 
L 72.483614 268.661725 
L 70.866088 268.661725 
z
" style="fill:#1f77b4;"/>
   </g>
   <g id="patch_10">
    <path clip-path="url(#p5ba7453cd0)" d="M 72.483614 273.312 
L 74.10114 273.312 
L 74.10114 267.499156 
L 72.483614 267.499156 
z
" style="fill:#1f77b4;"/>
   </g>
   <g id="patch_11">
    <path clip-path="url(#p5ba7453cd0)" d="M 74.10114 273.312 
L 75.718666 273.312 
L 75.718666 266.336587 
L 74.10114 266.336587 
z
" style="fill:#1f77b4;"/>
   </g>
   <g id="patch_12">
    <path clip-path="url(#p5ba7453cd0)" d="M 75.718666 273.312 
L 77.336193 273.312 
L 77.336193 261.105028 
L 75.718666 261.105028 
z
" style="fill:#1f77b4;"/>
   </g>
   <g id="patch_13">
    <path clip-path="url(#p5ba7453cd0)" d="M 77.336193 273.312 
L 78.953719 273.312 
L 78.953719 262.848881 
L 77.336193 262.848881 
z
" style="fill:#1f77b4;"/>
   </g>
   <g id="patch_14">
    <path clip-path="url(#p5ba7453cd0)" d="M 78.953719 273.312 
L 80.571245 273.312 
L 80.571245 262.267596 
L 78.953719 262.267596 
z
" style="fill:#1f77b4;"/>
   </g>
   <g id="patch_15">
    <path clip-path="url(#p5ba7453cd0)" d="M 80.571245 273.312 
L 82.188771 273.312 
L 82.188771 257.036037 
L 80.571245 257.036037 
z
" style="fill:#1f77b4;"/>
   </g>
   <g id="patch_16">
    <path clip-path="url(#p5ba7453cd0)" d="M 82.188771 273.312 
L 83.806297 273.312 
L 83.806297 258.77989 
L 82.188771 258.77989 
z
" style="fill:#1f77b4;"/>
   </g>
   <g id="patch_17">
    <path clip-path="url(#p5ba7453cd0)" d="M 83.806297 273.312 
L 85.423824 273.312 
L 85.423824 258.198606 
L 83.806297 258.198606 
z
" style="fill:#1f77b4;"/>
   </g>
   <g id="patch_18">
    <path clip-path="url(#p5ba7453cd0)" d="M 85.423824 273.312 
L 87.04135 273.312 
L 87.04135 256.454752 
L 85.423824 256.454752 
z
" style="fill:#1f77b4;"/>
   </g>
   <g id="patch_19">
    <path clip-path="url(#p5ba7453cd0)" d="M 87.04135 273.312 
L 88.658876 273.312 
L 88.658876 253.54833 
L 87.04135 253.54833 
z
" style="fill:#1f77b4;"/>
   </g>
   <g id="patch_20">
    <path clip-path="url(#p5ba7453cd0)" d="M 88.658876 273.312 
L 90.276402 273.312 
L 90.276402 252.967046 
L 88.658876 252.967046 
z
" style="fill:#1f77b4;"/>
   </g>
   <g id="patch_21">
    <path clip-path="url(#p5ba7453cd0)" d="M 90.276402 273.312 
L 91.893928 273.312 
L 91.893928 250.641908 
L 90.276402 250.641908 
z
" style="fill:#1f77b4;"/>
   </g>
   <g id="patch_22">
    <path clip-path="url(#p5ba7453cd0)" d="M 91.893928 273.312 
L 93.511455 273.312 
L 93.511455 251.223193 
L 91.893928 251.223193 
z
" style="fill:#1f77b4;"/>
   </g>
   <g id="patch_23">
    <path clip-path="url(#p5ba7453cd0)" d="M 93.511455 273.312 
L 95.128981 273.312 
L 95.128981 251.804477 
L 93.511455 251.804477 
z
" style="fill:#1f77b4;"/>
   </g>
   <g id="patch_24">
    <path clip-path="url(#p5ba7453cd0)" d="M 95.128981 273.312 
L 96.746507 273.312 
L 96.746507 250.641908 
L 95.128981 250.641908 
z
" style="fill:#1f77b4;"/>
   </g>
   <g id="patch_25">
    <path clip-path="url(#p5ba7453cd0)" d="M 96.746507 273.312 
L 98.364033 273.312 
L 98.364033 247.735486 
L 96.746507 247.735486 
z
" style="fill:#1f77b4;"/>
   </g>
   <g id="patch_26">
    <path clip-path="url(#p5ba7453cd0)" d="M 98.364033 273.312 
L 99.98156 273.312 
L 99.98156 252.385761 
L 98.364033 252.385761 
z
" style="fill:#1f77b4;"/>
   </g>
   <g id="patch_27">
    <path clip-path="url(#p5ba7453cd0)" d="M 99.98156 273.312 
L 101.599086 273.312 
L 101.599086 236.691083 
L 99.98156 236.691083 
z
" style="fill:#1f77b4;"/>
   </g>
   <g id="patch_28">
    <path clip-path="url(#p5ba7453cd0)" d="M 101.599086 273.312 
L 103.216612 273.312 
L 103.216612 244.24778 
L 101.599086 244.24778 
z
" style="fill:#1f77b4;"/>
   </g>
   <g id="patch_29">
    <path clip-path="url(#p5ba7453cd0)" d="M 103.216612 273.312 
L 104.834138 273.312 
L 104.834138 241.341358 
L 103.216612 241.341358 
z
" style="fill:#1f77b4;"/>
   </g>
   <g id="patch_30">
    <path clip-path="url(#p5ba7453cd0)" d="M 104.834138 273.312 
L 106.451664 273.312 
L 106.451664 240.760073 
L 104.834138 240.760073 
z
" style="fill:#1f77b4;"/>
   </g>
   <g id="patch_31">
    <path clip-path="url(#p5ba7453cd0)" d="M 106.451664 273.312 
L 108.069191 273.312 
L 108.069191 245.991633 
L 106.451664 245.991633 
z
" style="fill:#1f77b4;"/>
   </g>
   <g id="patch_32">
    <path clip-path="url(#p5ba7453cd0)" d="M 108.069191 273.312 
L 109.686717 273.312 
L 109.686717 232.622092 
L 108.069191 232.622092 
z
" style="fill:#1f77b4;"/>
   </g>
   <g id="patch_33">
    <path clip-path="url(#p5ba7453cd0)" d="M 109.686717 273.312 
L 111.304243 273.312 
L 111.304243 230.878239 
L 109.686717 230.878239 
z
" style="fill:#1f77b4;"/>
   </g>
   <g id="patch_34">
    <path clip-path="url(#p5ba7453cd0)" d="M 111.304243 273.312 
L 112.921769 273.312 
L 112.921769 232.622092 
L 111.304243 232.622092 
z
" style="fill:#1f77b4;"/>
   </g>
   <g id="patch_35">
    <path clip-path="url(#p5ba7453cd0)" d="M 112.921769 273.312 
L 114.539295 273.312 
L 114.539295 227.971817 
L 112.921769 227.971817 
z
" style="fill:#1f77b4;"/>
   </g>
   <g id="patch_36">
    <path clip-path="url(#p5ba7453cd0)" d="M 114.539295 273.312 
L 116.156822 273.312 
L 116.156822 236.691083 
L 114.539295 236.691083 
z
" style="fill:#1f77b4;"/>
   </g>
   <g id="patch_37">
    <path clip-path="url(#p5ba7453cd0)" d="M 116.156822 273.312 
L 117.774348 273.312 
L 117.774348 227.971817 
L 116.156822 227.971817 
z
" style="fill:#1f77b4;"/>
   </g>
   <g id="patch_38">
    <path clip-path="url(#p5ba7453cd0)" d="M 117.774348 273.312 
L 119.391874 273.312 
L 119.391874 231.459523 
L 117.774348 231.459523 
z
" style="fill:#1f77b4;"/>
   </g>
   <g id="patch_39">
    <path clip-path="url(#p5ba7453cd0)" d="M 119.391874 273.312 
L 121.0094 273.312 
L 121.0094 230.878239 
L 119.391874 230.878239 
z
" style="fill:#1f77b4;"/>
   </g>
   <g id="patch_40">
    <path clip-path="url(#p5ba7453cd0)" d="M 121.0094 273.312 
L 122.626927 273.312 
L 122.626927 223.321541 
L 121.0094 223.321541 
z
" style="fill:#1f77b4;"/>
   </g>
   <g id="patch_41">
    <path clip-path="url(#p5ba7453cd0)" d="M 122.626927 273.312 
L 124.244453 273.312 
L 124.244453 230.878239 
L 122.626927 230.878239 
z
" style="fill:#1f77b4;"/>
   </g>
   <g id="patch_42">
    <path clip-path="url(#p5ba7453cd0)" d="M 124.244453 273.312 
L 125.861979 273.312 
L 125.861979 230.878239 
L 124.244453 230.878239 
z
" style="fill:#1f77b4;"/>
   </g>
   <g id="patch_43">
    <path clip-path="url(#p5ba7453cd0)" d="M 125.861979 273.312 
L 127.479505 273.312 
L 127.479505 225.646679 
L 125.861979 225.646679 
z
" style="fill:#1f77b4;"/>
   </g>
   <g id="patch_44">
    <path clip-path="url(#p5ba7453cd0)" d="M 127.479505 273.312 
L 129.097031 273.312 
L 129.097031 219.833835 
L 127.479505 219.833835 
z
" style="fill:#1f77b4;"/>
   </g>
   <g id="patch_45">
    <path clip-path="url(#p5ba7453cd0)" d="M 129.097031 273.312 
L 130.714558 273.312 
L 130.714558 215.18356 
L 129.097031 215.18356 
z
" style="fill:#1f77b4;"/>
   </g>
   <g id="patch_46">
    <path clip-path="url(#p5ba7453cd0)" d="M 130.714558 273.312 
L 132.332084 273.312 
L 132.332084 218.671266 
L 130.714558 218.671266 
z
" style="fill:#1f77b4;"/>
   </g>
   <g id="patch_47">
    <path clip-path="url(#p5ba7453cd0)" d="M 132.332084 273.312 
L 133.94961 273.312 
L 133.94961 216.927413 
L 132.332084 216.927413 
z
" style="fill:#1f77b4;"/>
   </g>
   <g id="patch_48">
    <path clip-path="url(#p5ba7453cd0)" d="M 133.94961 273.312 
L 135.567136 273.312 
L 135.567136 220.996404 
L 133.94961 220.996404 
z
" style="fill:#1f77b4;"/>
   </g>
   <g id="patch_49">
    <path clip-path="url(#p5ba7453cd0)" d="M 135.567136 273.312 
L 137.184662 273.312 
L 137.184662 217.508697 
L 135.567136 217.508697 
z
" style="fill:#1f77b4;"/>
   </g>
   <g id="patch_50">
    <path clip-path="url(#p5ba7453cd0)" d="M 137.184662 273.312 
L 138.802189 273.312 
L 138.802189 226.809248 
L 137.184662 226.809248 
z
" style="fill:#1f77b4;"/>
   </g>
   <g id="patch_51">
    <path clip-path="url(#p5ba7453cd0)" d="M 138.802189 273.312 
L 140.419715 273.312 
L 140.419715 211.695853 
L 138.802189 211.695853 
z
" style="fill:#1f77b4;"/>
   </g>
   <g id="patch_52">
    <path clip-path="url(#p5ba7453cd0)" d="M 140.419715 273.312 
L 142.037241 273.312 
L 142.037241 214.020991 
L 140.419715 214.020991 
z
" style="fill:#1f77b4;"/>
   </g>
   <g id="patch_53">
    <path clip-path="url(#p5ba7453cd0)" d="M 142.037241 273.312 
L 143.654767 273.312 
L 143.654767 209.370716 
L 142.037241 209.370716 
z
" style="fill:#1f77b4;"/>
   </g>
   <g id="patch_54">
    <path clip-path="url(#p5ba7453cd0)" d="M 143.654767 273.312 
L 145.272294 273.312 
L 145.272294 209.952 
L 143.654767 209.952 
z
" style="fill:#1f77b4;"/>
   </g>
   <g id="patch_55">
    <path clip-path="url(#p5ba7453cd0)" d="M 145.272294 273.312 
L 146.88982 273.312 
L 146.88982 216.927413 
L 145.272294 216.927413 
z
" style="fill:#1f77b4;"/>
   </g>
   <g id="patch_56">
    <path clip-path="url(#p5ba7453cd0)" d="M 146.88982 273.312 
L 148.507346 273.312 
L 148.507346 206.464294 
L 146.88982 206.464294 
z
" style="fill:#1f77b4;"/>
   </g>
   <g id="patch_57">
    <path clip-path="url(#p5ba7453cd0)" d="M 148.507346 273.312 
L 150.124872 273.312 
L 150.124872 209.952 
L 148.507346 209.952 
z
" style="fill:#1f77b4;"/>
   </g>
   <g id="patch_58">
    <path clip-path="url(#p5ba7453cd0)" d="M 150.124872 273.312 
L 151.742398 273.312 
L 151.742398 202.976587 
L 150.124872 202.976587 
z
" style="fill:#1f77b4;"/>
   </g>
   <g id="patch_59">
    <path clip-path="url(#p5ba7453cd0)" d="M 151.742398 273.312 
L 153.359925 273.312 
L 153.359925 193.676037 
L 151.742398 193.676037 
z
" style="fill:#1f77b4;"/>
   </g>
   <g id="patch_60">
    <path clip-path="url(#p5ba7453cd0)" d="M 153.359925 273.312 
L 154.977451 273.312 
L 154.977451 202.395303 
L 153.359925 202.395303 
z
" style="fill:#1f77b4;"/>
   </g>
   <g id="patch_61">
    <path clip-path="url(#p5ba7453cd0)" d="M 154.977451 273.312 
L 156.594977 273.312 
L 156.594977 205.883009 
L 154.977451 205.883009 
z
" style="fill:#1f77b4;"/>
   </g>
   <g id="patch_62">
    <path clip-path="url(#p5ba7453cd0)" d="M 156.594977 273.312 
L 158.212503 273.312 
L 158.212503 194.838606 
L 156.594977 194.838606 
z
" style="fill:#1f77b4;"/>
   </g>
   <g id="patch_63">
    <path clip-path="url(#p5ba7453cd0)" d="M 158.212503 273.312 
L 159.830029 273.312 
L 159.830029 200.65145 
L 158.212503 200.65145 
z
" style="fill:#1f77b4;"/>
   </g>
   <g id="patch_64">
    <path clip-path="url(#p5ba7453cd0)" d="M 159.830029 273.312 
L 161.447556 273.312 
L 161.447556 218.671266 
L 159.830029 218.671266 
z
" style="fill:#1f77b4;"/>
   </g>
   <g id="patch_65">
    <path clip-path="url(#p5ba7453cd0)" d="M 161.447556 273.312 
L 163.065082 273.312 
L 163.065082 190.769615 
L 161.447556 190.769615 
z
" style="fill:#1f77b4;"/>
   </g>
   <g id="patch_66">
    <path clip-path="url(#p5ba7453cd0)" d="M 163.065082 273.312 
L 164.682608 273.312 
L 164.682608 205.301725 
L 163.065082 205.301725 
z
" style="fill:#1f77b4;"/>
   </g>
   <g id="patch_67">
    <path clip-path="url(#p5ba7453cd0)" d="M 164.682608 273.312 
L 166.300134 273.312 
L 166.300134 202.976587 
L 164.682608 202.976587 
z
" style="fill:#1f77b4;"/>
   </g>
   <g id="patch_68">
    <path clip-path="url(#p5ba7453cd0)" d="M 166.300134 273.312 
L 167.917661 273.312 
L 167.917661 192.513468 
L 166.300134 192.513468 
z
" style="fill:#1f77b4;"/>
   </g>
   <g id="patch_69">
    <path clip-path="url(#p5ba7453cd0)" d="M 167.917661 273.312 
L 169.535187 273.312 
L 169.535187 198.907596 
L 167.917661 198.907596 
z
" style="fill:#1f77b4;"/>
   </g>
   <g id="patch_70">
    <path clip-path="url(#p5ba7453cd0)" d="M 169.535187 273.312 
L 171.152713 273.312 
L 171.152713 198.907596 
L 169.535187 198.907596 
z
" style="fill:#1f77b4;"/>
   </g>
   <g id="patch_71">
    <path clip-path="url(#p5ba7453cd0)" d="M 171.152713 273.312 
L 172.770239 273.312 
L 172.770239 185.538055 
L 171.152713 185.538055 
z
" style="fill:#1f77b4;"/>
   </g>
   <g id="patch_72">
    <path clip-path="url(#p5ba7453cd0)" d="M 172.770239 273.312 
L 174.387765 273.312 
L 174.387765 194.838606 
L 172.770239 194.838606 
z
" style="fill:#1f77b4;"/>
   </g>
   <g id="patch_73">
    <path clip-path="url(#p5ba7453cd0)" d="M 174.387765 273.312 
L 176.005292 273.312 
L 176.005292 189.025761 
L 174.387765 189.025761 
z
" style="fill:#1f77b4;"/>
   </g>
   <g id="patch_74">
    <path clip-path="url(#p5ba7453cd0)" d="M 176.005292 273.312 
L 177.622818 273.312 
L 177.622818 198.907596 
L 176.005292 198.907596 
z
" style="fill:#1f77b4;"/>
   </g>
   <g id="patch_75">
    <path clip-path="url(#p5ba7453cd0)" d="M 177.622818 273.312 
L 179.240344 273.312 
L 179.240344 191.932183 
L 177.622818 191.932183 
z
" style="fill:#1f77b4;"/>
   </g>
   <g id="patch_76">
    <path clip-path="url(#p5ba7453cd0)" d="M 179.240344 273.312 
L 180.85787 273.312 
L 180.85787 191.932183 
L 179.240344 191.932183 
z
" style="fill:#1f77b4;"/>
   </g>
   <g id="patch_77">
    <path clip-path="url(#p5ba7453cd0)" d="M 180.85787 273.312 
L 182.475396 273.312 
L 182.475396 174.493651 
L 180.85787 174.493651 
z
" style="fill:#1f77b4;"/>
   </g>
   <g id="patch_78">
    <path clip-path="url(#p5ba7453cd0)" d="M 182.475396 273.312 
L 184.092923 273.312 
L 184.092923 176.818789 
L 182.475396 176.818789 
z
" style="fill:#1f77b4;"/>
   </g>
   <g id="patch_79">
    <path clip-path="url(#p5ba7453cd0)" d="M 184.092923 273.312 
L 185.710449 273.312 
L 185.710449 183.794202 
L 184.092923 183.794202 
z
" style="fill:#1f77b4;"/>
   </g>
   <g id="patch_80">
    <path clip-path="url(#p5ba7453cd0)" d="M 185.710449 273.312 
L 187.327975 273.312 
L 187.327975 182.050349 
L 185.710449 182.050349 
z
" style="fill:#1f77b4;"/>
   </g>
   <g id="patch_81">
    <path clip-path="url(#p5ba7453cd0)" d="M 187.327975 273.312 
L 188.945501 273.312 
L 188.945501 175.65622 
L 187.327975 175.65622 
z
" style="fill:#1f77b4;"/>
   </g>
   <g id="patch_82">
    <path clip-path="url(#p5ba7453cd0)" d="M 188.945501 273.312 
L 190.563028 273.312 
L 190.563028 175.074936 
L 188.945501 175.074936 
z
" style="fill:#1f77b4;"/>
   </g>
   <g id="patch_83">
    <path clip-path="url(#p5ba7453cd0)" d="M 190.563028 273.312 
L 192.180554 273.312 
L 192.180554 177.981358 
L 190.563028 177.981358 
z
" style="fill:#1f77b4;"/>
   </g>
   <g id="patch_84">
    <path clip-path="url(#p5ba7453cd0)" d="M 192.180554 273.312 
L 193.79808 273.312 
L 193.79808 164.030532 
L 192.180554 164.030532 
z
" style="fill:#1f77b4;"/>
   </g>
   <g id="patch_85">
    <path clip-path="url(#p5ba7453cd0)" d="M 193.79808 273.312 
L 195.415606 273.312 
L 195.415606 194.838606 
L 193.79808 194.838606 
z
" style="fill:#1f77b4;"/>
   </g>
   <g id="patch_86">
    <path clip-path="url(#p5ba7453cd0)" d="M 195.415606 273.312 
L 197.033132 273.312 
L 197.033132 191.350899 
L 195.415606 191.350899 
z
" style="fill:#1f77b4;"/>
   </g>
   <g id="patch_87">
    <path clip-path="url(#p5ba7453cd0)" d="M 197.033132 273.312 
L 198.650659 273.312 
L 198.650659 161.705394 
L 197.033132 161.705394 
z
" style="fill:#1f77b4;"/>
   </g>
   <g id="patch_88">
    <path clip-path="url(#p5ba7453cd0)" d="M 198.650659 273.312 
L 200.268185 273.312 
L 200.268185 179.725211 
L 198.650659 179.725211 
z
" style="fill:#1f77b4;"/>
   </g>
   <g id="patch_89">
    <path clip-path="url(#p5ba7453cd0)" d="M 200.268185 273.312 
L 201.885711 273.312 
L 201.885711 166.35567 
L 200.268185 166.35567 
z
" style="fill:#1f77b4;"/>
   </g>
   <g id="patch_90">
    <path clip-path="url(#p5ba7453cd0)" d="M 201.885711 273.312 
L 203.503237 273.312 
L 203.503237 171.587229 
L 201.885711 171.587229 
z
" style="fill:#1f77b4;"/>
   </g>
   <g id="patch_91">
    <path clip-path="url(#p5ba7453cd0)" d="M 203.503237 273.312 
L 205.120763 273.312 
L 205.120763 164.030532 
L 203.503237 164.030532 
z
" style="fill:#1f77b4;"/>
   </g>
   <g id="patch_92">
    <path clip-path="url(#p5ba7453cd0)" d="M 205.120763 273.312 
L 206.73829 273.312 
L 206.73829 164.611817 
L 205.120763 164.611817 
z
" style="fill:#1f77b4;"/>
   </g>
   <g id="patch_93">
    <path clip-path="url(#p5ba7453cd0)" d="M 206.73829 273.312 
L 208.355816 273.312 
L 208.355816 173.912367 
L 206.73829 173.912367 
z
" style="fill:#1f77b4;"/>
   </g>
   <g id="patch_94">
    <path clip-path="url(#p5ba7453cd0)" d="M 208.355816 273.312 
L 209.973342 273.312 
L 209.973342 170.424661 
L 208.355816 170.424661 
z
" style="fill:#1f77b4;"/>
   </g>
   <g id="patch_95">
    <path clip-path="url(#p5ba7453cd0)" d="M 209.973342 273.312 
L 211.590868 273.312 
L 211.590868 189.025761 
L 209.973342 189.025761 
z
" style="fill:#1f77b4;"/>
   </g>
   <g id="patch_96">
    <path clip-path="url(#p5ba7453cd0)" d="M 211.590868 273.312 
L 213.208395 273.312 
L 213.208395 164.611817 
L 211.590868 164.611817 
z
" style="fill:#1f77b4;"/>
   </g>
   <g id="patch_97">
    <path clip-path="url(#p5ba7453cd0)" d="M 213.208395 273.312 
L 214.825921 273.312 
L 214.825921 169.262092 
L 213.208395 169.262092 
z
" style="fill:#1f77b4;"/>
   </g>
   <g id="patch_98">
    <path clip-path="url(#p5ba7453cd0)" d="M 214.825921 273.312 
L 216.443447 273.312 
L 216.443447 177.400073 
L 214.825921 177.400073 
z
" style="fill:#1f77b4;"/>
   </g>
   <g id="patch_99">
    <path clip-path="url(#p5ba7453cd0)" d="M 216.443447 273.312 
L 218.060973 273.312 
L 218.060973 148.335853 
L 216.443447 148.335853 
z
" style="fill:#1f77b4;"/>
   </g>
   <g id="patch_100">
    <path clip-path="url(#p5ba7453cd0)" d="M 218.060973 273.312 
L 219.678499 273.312 
L 219.678499 166.35567 
L 218.060973 166.35567 
z
" style="fill:#1f77b4;"/>
   </g>
   <g id="patch_101">
    <path clip-path="url(#p5ba7453cd0)" d="M 219.678499 273.312 
L 221.296026 273.312 
L 221.296026 153.567413 
L 219.678499 153.567413 
z
" style="fill:#1f77b4;"/>
   </g>
   <g id="patch_102">
    <path clip-path="url(#p5ba7453cd0)" d="M 221.296026 273.312 
L 222.913552 273.312 
L 222.913552 161.12411 
L 221.296026 161.12411 
z
" style="fill:#1f77b4;"/>
   </g>
   <g id="patch_103">
    <path clip-path="url(#p5ba7453cd0)" d="M 222.913552 273.312 
L 224.531078 273.312 
L 224.531078 164.611817 
L 222.913552 164.611817 
z
" style="fill:#1f77b4;"/>
   </g>
   <g id="patch_104">
    <path clip-path="url(#p5ba7453cd0)" d="M 224.531078 273.312 
L 226.148604 273.312 
L 226.148604 159.961541 
L 224.531078 159.961541 
z
" style="fill:#1f77b4;"/>
   </g>
   <g id="patch_105">
    <path clip-path="url(#p5ba7453cd0)" d="M 226.148604 273.312 
L 227.76613 273.312 
L 227.76613 152.404844 
L 226.148604 152.404844 
z
" style="fill:#1f77b4;"/>
   </g>
   <g id="patch_106">
    <path clip-path="url(#p5ba7453cd0)" d="M 227.76613 273.312 
L 229.383657 273.312 
L 229.383657 155.311266 
L 227.76613 155.311266 
z
" style="fill:#1f77b4;"/>
   </g>
   <g id="patch_107">
    <path clip-path="url(#p5ba7453cd0)" d="M 229.383657 273.312 
L 231.001183 273.312 
L 231.001183 164.611817 
L 229.383657 164.611817 
z
" style="fill:#1f77b4;"/>
   </g>
   <g id="patch_108">
    <path clip-path="url(#p5ba7453cd0)" d="M 231.001183 273.312 
L 232.618709 273.312 
L 232.618709 139.616587 
L 231.001183 139.616587 
z
" style="fill:#1f77b4;"/>
   </g>
   <g id="patch_109">
    <path clip-path="url(#p5ba7453cd0)" d="M 232.618709 273.312 
L 234.236235 273.312 
L 234.236235 158.798972 
L 232.618709 158.798972 
z
" style="fill:#1f77b4;"/>
   </g>
   <g id="patch_110">
    <path clip-path="url(#p5ba7453cd0)" d="M 234.236235 273.312 
L 235.853762 273.312 
L 235.853762 143.685578 
L 234.236235 143.685578 
z
" style="fill:#1f77b4;"/>
   </g>
   <g id="patch_111">
    <path clip-path="url(#p5ba7453cd0)" d="M 235.853762 273.312 
L 237.471288 273.312 
L 237.471288 146.592 
L 235.853762 146.592 
z
" style="fill:#1f77b4;"/>
   </g>
   <g id="patch_112">
    <path clip-path="url(#p5ba7453cd0)" d="M 237.471288 273.312 
L 239.088814 273.312 
L 239.088814 142.523009 
L 237.471288 142.523009 
z
" style="fill:#1f77b4;"/>
   </g>
   <g id="patch_113">
    <path clip-path="url(#p5ba7453cd0)" d="M 239.088814 273.312 
L 240.70634 273.312 
L 240.70634 146.592 
L 239.088814 146.592 
z
" style="fill:#1f77b4;"/>
   </g>
   <g id="patch_114">
    <path clip-path="url(#p5ba7453cd0)" d="M 240.70634 273.312 
L 242.323866 273.312 
L 242.323866 141.941725 
L 240.70634 141.941725 
z
" style="fill:#1f77b4;"/>
   </g>
   <g id="patch_115">
    <path clip-path="url(#p5ba7453cd0)" d="M 242.323866 273.312 
L 243.941393 273.312 
L 243.941393 146.592 
L 242.323866 146.592 
z
" style="fill:#1f77b4;"/>
   </g>
   <g id="patch_116">
    <path clip-path="url(#p5ba7453cd0)" d="M 243.941393 273.312 
L 245.558919 273.312 
L 245.558919 152.986128 
L 243.941393 152.986128 
z
" style="fill:#1f77b4;"/>
   </g>
   <g id="patch_117">
    <path clip-path="url(#p5ba7453cd0)" d="M 245.558919 273.312 
L 247.176445 273.312 
L 247.176445 136.128881 
L 245.558919 136.128881 
z
" style="fill:#1f77b4;"/>
   </g>
   <g id="patch_118">
    <path clip-path="url(#p5ba7453cd0)" d="M 247.176445 273.312 
L 248.793971 273.312 
L 248.793971 154.148697 
L 247.176445 154.148697 
z
" style="fill:#1f77b4;"/>
   </g>
   <g id="patch_119">
    <path clip-path="url(#p5ba7453cd0)" d="M 248.793971 273.312 
L 250.411497 273.312 
L 250.411497 127.409615 
L 248.793971 127.409615 
z
" style="fill:#1f77b4;"/>
   </g>
   <g id="patch_120">
    <path clip-path="url(#p5ba7453cd0)" d="M 250.411497 273.312 
L 252.029024 273.312 
L 252.029024 143.685578 
L 250.411497 143.685578 
z
" style="fill:#1f77b4;"/>
   </g>
   <g id="patch_121">
    <path clip-path="url(#p5ba7453cd0)" d="M 252.029024 273.312 
L 253.64655 273.312 
L 253.64655 140.779156 
L 252.029024 140.779156 
z
" style="fill:#1f77b4;"/>
   </g>
   <g id="patch_122">
    <path clip-path="url(#p5ba7453cd0)" d="M 253.64655 273.312 
L 255.264076 273.312 
L 255.264076 133.222459 
L 253.64655 133.222459 
z
" style="fill:#1f77b4;"/>
   </g>
   <g id="patch_123">
    <path clip-path="url(#p5ba7453cd0)" d="M 255.264076 273.312 
L 256.881602 273.312 
L 256.881602 134.966312 
L 255.264076 134.966312 
z
" style="fill:#1f77b4;"/>
   </g>
   <g id="patch_124">
    <path clip-path="url(#p5ba7453cd0)" d="M 256.881602 273.312 
L 258.499129 273.312 
L 258.499129 132.05989 
L 256.881602 132.05989 
z
" style="fill:#1f77b4;"/>
   </g>
   <g id="patch_125">
    <path clip-path="url(#p5ba7453cd0)" d="M 258.499129 273.312 
L 260.116655 273.312 
L 260.116655 140.197872 
L 258.499129 140.197872 
z
" style="fill:#1f77b4;"/>
   </g>
   <g id="patch_126">
    <path clip-path="url(#p5ba7453cd0)" d="M 260.116655 273.312 
L 261.734181 273.312 
L 261.734181 136.128881 
L 260.116655 136.128881 
z
" style="fill:#1f77b4;"/>
   </g>
   <g id="patch_127">
    <path clip-path="url(#p5ba7453cd0)" d="M 261.734181 273.312 
L 263.351707 273.312 
L 263.351707 118.690349 
L 261.734181 118.690349 
z
" style="fill:#1f77b4;"/>
   </g>
   <g id="patch_128">
    <path clip-path="url(#p5ba7453cd0)" d="M 263.351707 273.312 
L 264.969233 273.312 
L 264.969233 118.690349 
L 263.351707 118.690349 
z
" style="fill:#1f77b4;"/>
   </g>
   <g id="patch_129">
    <path clip-path="url(#p5ba7453cd0)" d="M 264.969233 273.312 
L 266.58676 273.312 
L 266.58676 123.921908 
L 264.969233 123.921908 
z
" style="fill:#1f77b4;"/>
   </g>
   <g id="patch_130">
    <path clip-path="url(#p5ba7453cd0)" d="M 266.58676 273.312 
L 268.204286 273.312 
L 268.204286 126.82833 
L 266.58676 126.82833 
z
" style="fill:#1f77b4;"/>
   </g>
   <g id="patch_131">
    <path clip-path="url(#p5ba7453cd0)" d="M 268.204286 273.312 
L 269.821812 273.312 
L 269.821812 126.82833 
L 268.204286 126.82833 
z
" style="fill:#1f77b4;"/>
   </g>
   <g id="patch_132">
    <path clip-path="url(#p5ba7453cd0)" d="M 269.821812 273.312 
L 271.439338 273.312 
L 271.439338 107.645945 
L 269.821812 107.645945 
z
" style="fill:#1f77b4;"/>
   </g>
   <g id="patch_133">
    <path clip-path="url(#p5ba7453cd0)" d="M 271.439338 273.312 
L 273.056864 273.312 
L 273.056864 101.833101 
L 271.439338 101.833101 
z
" style="fill:#1f77b4;"/>
   </g>
   <g id="patch_134">
    <path clip-path="url(#p5ba7453cd0)" d="M 273.056864 273.312 
L 274.674391 273.312 
L 274.674391 112.29622 
L 273.056864 112.29622 
z
" style="fill:#1f77b4;"/>
   </g>
   <g id="patch_135">
    <path clip-path="url(#p5ba7453cd0)" d="M 274.674391 273.312 
L 276.291917 273.312 
L 276.291917 129.734752 
L 274.674391 129.734752 
z
" style="fill:#1f77b4;"/>
   </g>
   <g id="patch_136">
    <path clip-path="url(#p5ba7453cd0)" d="M 276.291917 273.312 
L 277.909443 273.312 
L 277.909443 129.153468 
L 276.291917 129.153468 
z
" style="fill:#1f77b4;"/>
   </g>
   <g id="patch_137">
    <path clip-path="url(#p5ba7453cd0)" d="M 277.909443 273.312 
L 279.526969 273.312 
L 279.526969 126.82833 
L 277.909443 126.82833 
z
" style="fill:#1f77b4;"/>
   </g>
   <g id="patch_138">
    <path clip-path="url(#p5ba7453cd0)" d="M 279.526969 273.312 
L 281.144496 273.312 
L 281.144496 111.133651 
L 279.526969 111.133651 
z
" style="fill:#1f77b4;"/>
   </g>
   <g id="patch_139">
    <path clip-path="url(#p5ba7453cd0)" d="M 281.144496 273.312 
L 282.762022 273.312 
L 282.762022 111.133651 
L 281.144496 111.133651 
z
" style="fill:#1f77b4;"/>
   </g>
   <g id="patch_140">
    <path clip-path="url(#p5ba7453cd0)" d="M 282.762022 273.312 
L 284.379548 273.312 
L 284.379548 115.202642 
L 282.762022 115.202642 
z
" style="fill:#1f77b4;"/>
   </g>
   <g id="patch_141">
    <path clip-path="url(#p5ba7453cd0)" d="M 284.379548 273.312 
L 285.997074 273.312 
L 285.997074 128.572183 
L 284.379548 128.572183 
z
" style="fill:#1f77b4;"/>
   </g>
   <g id="patch_142">
    <path clip-path="url(#p5ba7453cd0)" d="M 285.997074 273.312 
L 287.6146 273.312 
L 287.6146 105.320807 
L 285.997074 105.320807 
z
" style="fill:#1f77b4;"/>
   </g>
   <g id="patch_143">
    <path clip-path="url(#p5ba7453cd0)" d="M 287.6146 273.312 
L 289.232127 273.312 
L 289.232127 105.902092 
L 287.6146 105.902092 
z
" style="fill:#1f77b4;"/>
   </g>
   <g id="patch_144">
    <path clip-path="url(#p5ba7453cd0)" d="M 289.232127 273.312 
L 290.849653 273.312 
L 290.849653 109.971083 
L 289.232127 109.971083 
z
" style="fill:#1f77b4;"/>
   </g>
   <g id="patch_145">
    <path clip-path="url(#p5ba7453cd0)" d="M 290.849653 273.312 
L 292.467179 273.312 
L 292.467179 97.76411 
L 290.849653 97.76411 
z
" style="fill:#1f77b4;"/>
   </g>
   <g id="patch_146">
    <path clip-path="url(#p5ba7453cd0)" d="M 292.467179 273.312 
L 294.084705 273.312 
L 294.084705 109.389798 
L 292.467179 109.389798 
z
" style="fill:#1f77b4;"/>
   </g>
   <g id="patch_147">
    <path clip-path="url(#p5ba7453cd0)" d="M 294.084705 273.312 
L 295.702231 273.312 
L 295.702231 89.044844 
L 294.084705 89.044844 
z
" style="fill:#1f77b4;"/>
   </g>
   <g id="patch_148">
    <path clip-path="url(#p5ba7453cd0)" d="M 295.702231 273.312 
L 297.319758 273.312 
L 297.319758 112.877505 
L 295.702231 112.877505 
z
" style="fill:#1f77b4;"/>
   </g>
   <g id="patch_149">
    <path clip-path="url(#p5ba7453cd0)" d="M 297.319758 273.312 
L 298.937284 273.312 
L 298.937284 102.99567 
L 297.319758 102.99567 
z
" style="fill:#1f77b4;"/>
   </g>
   <g id="patch_150">
    <path clip-path="url(#p5ba7453cd0)" d="M 298.937284 273.312 
L 300.55481 273.312 
L 300.55481 104.158239 
L 298.937284 104.158239 
z
" style="fill:#1f77b4;"/>
   </g>
   <g id="patch_151">
    <path clip-path="url(#p5ba7453cd0)" d="M 300.55481 273.312 
L 302.172336 273.312 
L 302.172336 106.483376 
L 300.55481 106.483376 
z
" style="fill:#1f77b4;"/>
   </g>
   <g id="patch_152">
    <path clip-path="url(#p5ba7453cd0)" d="M 302.172336 273.312 
L 303.789863 273.312 
L 303.789863 114.621358 
L 302.172336 114.621358 
z
" style="fill:#1f77b4;"/>
   </g>
   <g id="patch_153">
    <path clip-path="url(#p5ba7453cd0)" d="M 303.789863 273.312 
L 305.407389 273.312 
L 305.407389 111.133651 
L 303.789863 111.133651 
z
" style="fill:#1f77b4;"/>
   </g>
   <g id="patch_154">
    <path clip-path="url(#p5ba7453cd0)" d="M 305.407389 273.312 
L 307.024915 273.312 
L 307.024915 100.089248 
L 305.407389 100.089248 
z
" style="fill:#1f77b4;"/>
   </g>
   <g id="patch_155">
    <path clip-path="url(#p5ba7453cd0)" d="M 307.024915 273.312 
L 308.642441 273.312 
L 308.642441 104.158239 
L 307.024915 104.158239 
z
" style="fill:#1f77b4;"/>
   </g>
   <g id="patch_156">
    <path clip-path="url(#p5ba7453cd0)" d="M 308.642441 273.312 
L 310.259967 273.312 
L 310.259967 88.46356 
L 308.642441 88.46356 
z
" style="fill:#1f77b4;"/>
   </g>
   <g id="patch_157">
    <path clip-path="url(#p5ba7453cd0)" d="M 310.259967 273.312 
L 311.877494 273.312 
L 311.877494 91.951266 
L 310.259967 91.951266 
z
" style="fill:#1f77b4;"/>
   </g>
   <g id="patch_158">
    <path clip-path="url(#p5ba7453cd0)" d="M 311.877494 273.312 
L 313.49502 273.312 
L 313.49502 97.76411 
L 311.877494 97.76411 
z
" style="fill:#1f77b4;"/>
   </g>
   <g id="patch_159">
    <path clip-path="url(#p5ba7453cd0)" d="M 313.49502 273.312 
L 315.112546 273.312 
L 315.112546 77.419156 
L 313.49502 77.419156 
z
" style="fill:#1f77b4;"/>
   </g>
   <g id="patch_160">
    <path clip-path="url(#p5ba7453cd0)" d="M 315.112546 273.312 
L 316.730072 273.312 
L 316.730072 93.695119 
L 315.112546 93.695119 
z
" style="fill:#1f77b4;"/>
   </g>
   <g id="patch_161">
    <path clip-path="url(#p5ba7453cd0)" d="M 316.730072 273.312 
L 318.347598 273.312 
L 318.347598 81.488147 
L 316.730072 81.488147 
z
" style="fill:#1f77b4;"/>
   </g>
   <g id="patch_162">
    <path clip-path="url(#p5ba7453cd0)" d="M 318.347598 273.312 
L 319.965125 273.312 
L 319.965125 87.300991 
L 318.347598 87.300991 
z
" style="fill:#1f77b4;"/>
   </g>
   <g id="patch_163">
    <path clip-path="url(#p5ba7453cd0)" d="M 319.965125 273.312 
L 321.582651 273.312 
L 321.582651 94.857688 
L 319.965125 94.857688 
z
" style="fill:#1f77b4;"/>
   </g>
   <g id="patch_164">
    <path clip-path="url(#p5ba7453cd0)" d="M 321.582651 273.312 
L 323.200177 273.312 
L 323.200177 77.419156 
L 321.582651 77.419156 
z
" style="fill:#1f77b4;"/>
   </g>
   <g id="patch_165">
    <path clip-path="url(#p5ba7453cd0)" d="M 323.200177 273.312 
L 324.817703 273.312 
L 324.817703 94.276404 
L 323.200177 94.276404 
z
" style="fill:#1f77b4;"/>
   </g>
   <g id="patch_166">
    <path clip-path="url(#p5ba7453cd0)" d="M 324.817703 273.312 
L 326.43523 273.312 
L 326.43523 85.557138 
L 324.817703 85.557138 
z
" style="fill:#1f77b4;"/>
   </g>
   <g id="patch_167">
    <path clip-path="url(#p5ba7453cd0)" d="M 326.43523 273.312 
L 328.052756 273.312 
L 328.052756 62.305761 
L 326.43523 62.305761 
z
" style="fill:#1f77b4;"/>
   </g>
   <g id="patch_168">
    <path clip-path="url(#p5ba7453cd0)" d="M 328.052756 273.312 
L 329.670282 273.312 
L 329.670282 79.744294 
L 328.052756 79.744294 
z
" style="fill:#1f77b4;"/>
   </g>
   <g id="patch_169">
    <path clip-path="url(#p5ba7453cd0)" d="M 329.670282 273.312 
L 331.287808 273.312 
L 331.287808 83.813284 
L 329.670282 83.813284 
z
" style="fill:#1f77b4;"/>
   </g>
   <g id="patch_170">
    <path clip-path="url(#p5ba7453cd0)" d="M 331.287808 273.312 
L 332.905334 273.312 
L 332.905334 82.069431 
L 331.287808 82.069431 
z
" style="fill:#1f77b4;"/>
   </g>
   <g id="patch_171">
    <path clip-path="url(#p5ba7453cd0)" d="M 332.905334 273.312 
L 334.522861 273.312 
L 334.522861 76.256587 
L 332.905334 76.256587 
z
" style="fill:#1f77b4;"/>
   </g>
   <g id="patch_172">
    <path clip-path="url(#p5ba7453cd0)" d="M 334.522861 273.312 
L 336.140387 273.312 
L 336.140387 75.675303 
L 334.522861 75.675303 
z
" style="fill:#1f77b4;"/>
   </g>
   <g id="patch_173">
    <path clip-path="url(#p5ba7453cd0)" d="M 336.140387 273.312 
L 337.757913 273.312 
L 337.757913 78.581725 
L 336.140387 78.581725 
z
" style="fill:#1f77b4;"/>
   </g>
   <g id="patch_174">
    <path clip-path="url(#p5ba7453cd0)" d="M 337.757913 273.312 
L 339.375439 273.312 
L 339.375439 52.423927 
L 337.757913 52.423927 
z
" style="fill:#1f77b4;"/>
   </g>
   <g id="patch_175">
    <path clip-path="url(#p5ba7453cd0)" d="M 339.375439 273.312 
L 340.992965 273.312 
L 340.992965 68.118606 
L 339.375439 68.118606 
z
" style="fill:#1f77b4;"/>
   </g>
   <g id="patch_176">
    <path clip-path="url(#p5ba7453cd0)" d="M 340.992965 273.312 
L 342.610492 273.312 
L 342.610492 74.512734 
L 340.992965 74.512734 
z
" style="fill:#1f77b4;"/>
   </g>
   <g id="patch_177">
    <path clip-path="url(#p5ba7453cd0)" d="M 342.610492 273.312 
L 344.228018 273.312 
L 344.228018 84.394569 
L 342.610492 84.394569 
z
" style="fill:#1f77b4;"/>
   </g>
   <g id="patch_178">
    <path clip-path="url(#p5ba7453cd0)" d="M 344.228018 273.312 
L 345.845544 273.312 
L 345.845544 70.443743 
L 344.228018 70.443743 
z
" style="fill:#1f77b4;"/>
   </g>
   <g id="patch_179">
    <path clip-path="url(#p5ba7453cd0)" d="M 345.845544 273.312 
L 347.46307 273.312 
L 347.46307 61.143193 
L 345.845544 61.143193 
z
" style="fill:#1f77b4;"/>
   </g>
   <g id="patch_180">
    <path clip-path="url(#p5ba7453cd0)" d="M 347.46307 273.312 
L 349.080597 273.312 
L 349.080597 65.212183 
L 347.46307 65.212183 
z
" style="fill:#1f77b4;"/>
   </g>
   <g id="patch_181">
    <path clip-path="url(#p5ba7453cd0)" d="M 349.080597 273.312 
L 350.698123 273.312 
L 350.698123 61.143193 
L 349.080597 61.143193 
z
" style="fill:#1f77b4;"/>
   </g>
   <g id="patch_182">
    <path clip-path="url(#p5ba7453cd0)" d="M 350.698123 273.312 
L 352.315649 273.312 
L 352.315649 64.630899 
L 350.698123 64.630899 
z
" style="fill:#1f77b4;"/>
   </g>
   <g id="patch_183">
    <path clip-path="url(#p5ba7453cd0)" d="M 352.315649 273.312 
L 353.933175 273.312 
L 353.933175 68.118606 
L 352.315649 68.118606 
z
" style="fill:#1f77b4;"/>
   </g>
   <g id="patch_184">
    <path clip-path="url(#p5ba7453cd0)" d="M 353.933175 273.312 
L 355.550701 273.312 
L 355.550701 55.330349 
L 353.933175 55.330349 
z
" style="fill:#1f77b4;"/>
   </g>
   <g id="patch_185">
    <path clip-path="url(#p5ba7453cd0)" d="M 355.550701 273.312 
L 357.168228 273.312 
L 357.168228 65.793468 
L 355.550701 65.793468 
z
" style="fill:#1f77b4;"/>
   </g>
   <g id="patch_186">
    <path clip-path="url(#p5ba7453cd0)" d="M 357.168228 273.312 
L 358.785754 273.312 
L 358.785754 46.029798 
L 357.168228 46.029798 
z
" style="fill:#1f77b4;"/>
   </g>
   <g id="patch_187">
    <path clip-path="url(#p5ba7453cd0)" d="M 358.785754 273.312 
L 360.40328 273.312 
L 360.40328 58.818055 
L 358.785754 58.818055 
z
" style="fill:#1f77b4;"/>
   </g>
   <g id="patch_188">
    <path clip-path="url(#p5ba7453cd0)" d="M 360.40328 273.312 
L 362.020806 273.312 
L 362.020806 62.887046 
L 360.40328 62.887046 
z
" style="fill:#1f77b4;"/>
   </g>
   <g id="patch_189">
    <path clip-path="url(#p5ba7453cd0)" d="M 362.020806 273.312 
L 363.638332 273.312 
L 363.638332 74.512734 
L 362.020806 74.512734 
z
" style="fill:#1f77b4;"/>
   </g>
   <g id="patch_190">
    <path clip-path="url(#p5ba7453cd0)" d="M 363.638332 273.312 
L 365.255859 273.312 
L 365.255859 44.867229 
L 363.638332 44.867229 
z
" style="fill:#1f77b4;"/>
   </g>
   <g id="patch_191">
    <path clip-path="url(#p5ba7453cd0)" d="M 365.255859 273.312 
L 366.873385 273.312 
L 366.873385 61.143193 
L 365.255859 61.143193 
z
" style="fill:#1f77b4;"/>
   </g>
   <g id="patch_192">
    <path clip-path="url(#p5ba7453cd0)" d="M 366.873385 273.312 
L 368.490911 273.312 
L 368.490911 51.842642 
L 366.873385 51.842642 
z
" style="fill:#1f77b4;"/>
   </g>
   <g id="patch_193">
    <path clip-path="url(#p5ba7453cd0)" d="M 368.490911 273.312 
L 370.108437 273.312 
L 370.108437 68.69989 
L 368.490911 68.69989 
z
" style="fill:#1f77b4;"/>
   </g>
   <g id="patch_194">
    <path clip-path="url(#p5ba7453cd0)" d="M 370.108437 273.312 
L 371.725964 273.312 
L 371.725964 64.630899 
L 370.108437 64.630899 
z
" style="fill:#1f77b4;"/>
   </g>
   <g id="patch_195">
    <path clip-path="url(#p5ba7453cd0)" d="M 371.725964 273.312 
L 373.34349 273.312 
L 373.34349 65.793468 
L 371.725964 65.793468 
z
" style="fill:#1f77b4;"/>
   </g>
   <g id="patch_196">
    <path clip-path="url(#p5ba7453cd0)" d="M 373.34349 273.312 
L 374.961016 273.312 
L 374.961016 57.655486 
L 373.34349 57.655486 
z
" style="fill:#1f77b4;"/>
   </g>
   <g id="patch_197">
    <path clip-path="url(#p5ba7453cd0)" d="M 374.961016 273.312 
L 376.578542 273.312 
L 376.578542 56.492917 
L 374.961016 56.492917 
z
" style="fill:#1f77b4;"/>
   </g>
   <g id="patch_198">
    <path clip-path="url(#p5ba7453cd0)" d="M 376.578542 273.312 
L 378.196068 273.312 
L 378.196068 53.586495 
L 376.578542 53.586495 
z
" style="fill:#1f77b4;"/>
   </g>
   <g id="patch_199">
    <path clip-path="url(#p5ba7453cd0)" d="M 378.196068 273.312 
L 379.813595 273.312 
L 379.813595 50.098789 
L 378.196068 50.098789 
z
" style="fill:#1f77b4;"/>
   </g>
   <g id="patch_200">
    <path clip-path="url(#p5ba7453cd0)" d="M 379.813595 273.312 
L 381.431121 273.312 
L 381.431121 19.872 
L 379.813595 19.872 
z
" style="fill:#1f77b4;"/>
   </g>
   <g id="patch_201">
    <path clip-path="url(#p5ba7453cd0)" d="M 381.431121 273.312 
L 383.048647 273.312 
L 383.048647 23.940991 
L 381.431121 23.940991 
z
" style="fill:#1f77b4;"/>
   </g>
   <g id="patch_202">
    <path clip-path="url(#p5ba7453cd0)" d="M 383.048647 273.312 
L 384.666173 273.312 
L 384.666173 29.753835 
L 383.048647 29.753835 
z
" style="fill:#1f77b4;"/>
   </g>
   <g id="matplotlib.axis_1">
    <g id="xtick_1">
     <g id="line2d_1">
      <defs>
       <path d="M 0 0 
L 0 3.5 
" id="m8428dc4c94" style="stroke:#000000;stroke-width:0.8;"/>
      </defs>
      <g>
       <use style="stroke:#000000;stroke-width:0.8;" x="60.013977" xlink:href="#m8428dc4c94" y="273.312"/>
      </g>
     </g>
     <g id="text_1">
      <!-- 0.0 -->
      <g transform="translate(52.062415 287.910437)scale(0.1 -0.1)">
       <defs>
        <path d="M 2034 4250 
Q 1547 4250 1301 3770 
Q 1056 3291 1056 2328 
Q 1056 1369 1301 889 
Q 1547 409 2034 409 
Q 2525 409 2770 889 
Q 3016 1369 3016 2328 
Q 3016 3291 2770 3770 
Q 2525 4250 2034 4250 
z
M 2034 4750 
Q 2819 4750 3233 4129 
Q 3647 3509 3647 2328 
Q 3647 1150 3233 529 
Q 2819 -91 2034 -91 
Q 1250 -91 836 529 
Q 422 1150 422 2328 
Q 422 3509 836 4129 
Q 1250 4750 2034 4750 
z
" id="DejaVuSans-30" transform="scale(0.015625)"/>
        <path d="M 684 794 
L 1344 794 
L 1344 0 
L 684 0 
L 684 794 
z
" id="DejaVuSans-2e" transform="scale(0.015625)"/>
       </defs>
       <use xlink:href="#DejaVuSans-30"/>
       <use x="63.623047" xlink:href="#DejaVuSans-2e"/>
       <use x="95.410156" xlink:href="#DejaVuSans-30"/>
      </g>
     </g>
    </g>
    <g id="xtick_2">
     <g id="line2d_2">
      <g>
       <use style="stroke:#000000;stroke-width:0.8;" x="124.944886" xlink:href="#m8428dc4c94" y="273.312"/>
      </g>
     </g>
     <g id="text_2">
      <!-- 0.2 -->
      <g transform="translate(116.993324 287.910437)scale(0.1 -0.1)">
       <defs>
        <path d="M 1228 531 
L 3431 531 
L 3431 0 
L 469 0 
L 469 531 
Q 828 903 1448 1529 
Q 2069 2156 2228 2338 
Q 2531 2678 2651 2914 
Q 2772 3150 2772 3378 
Q 2772 3750 2511 3984 
Q 2250 4219 1831 4219 
Q 1534 4219 1204 4116 
Q 875 4013 500 3803 
L 500 4441 
Q 881 4594 1212 4672 
Q 1544 4750 1819 4750 
Q 2544 4750 2975 4387 
Q 3406 4025 3406 3419 
Q 3406 3131 3298 2873 
Q 3191 2616 2906 2266 
Q 2828 2175 2409 1742 
Q 1991 1309 1228 531 
z
" id="DejaVuSans-32" transform="scale(0.015625)"/>
       </defs>
       <use xlink:href="#DejaVuSans-30"/>
       <use x="63.623047" xlink:href="#DejaVuSans-2e"/>
       <use x="95.410156" xlink:href="#DejaVuSans-32"/>
      </g>
     </g>
    </g>
    <g id="xtick_3">
     <g id="line2d_3">
      <g>
       <use style="stroke:#000000;stroke-width:0.8;" x="189.875795" xlink:href="#m8428dc4c94" y="273.312"/>
      </g>
     </g>
     <g id="text_3">
      <!-- 0.4 -->
      <g transform="translate(181.924233 287.910437)scale(0.1 -0.1)">
       <defs>
        <path d="M 2419 4116 
L 825 1625 
L 2419 1625 
L 2419 4116 
z
M 2253 4666 
L 3047 4666 
L 3047 1625 
L 3713 1625 
L 3713 1100 
L 3047 1100 
L 3047 0 
L 2419 0 
L 2419 1100 
L 313 1100 
L 313 1709 
L 2253 4666 
z
" id="DejaVuSans-34" transform="scale(0.015625)"/>
       </defs>
       <use xlink:href="#DejaVuSans-30"/>
       <use x="63.623047" xlink:href="#DejaVuSans-2e"/>
       <use x="95.410156" xlink:href="#DejaVuSans-34"/>
      </g>
     </g>
    </g>
    <g id="xtick_4">
     <g id="line2d_4">
      <g>
       <use style="stroke:#000000;stroke-width:0.8;" x="254.806705" xlink:href="#m8428dc4c94" y="273.312"/>
      </g>
     </g>
     <g id="text_4">
      <!-- 0.6 -->
      <g transform="translate(246.855142 287.910437)scale(0.1 -0.1)">
       <defs>
        <path d="M 2113 2584 
Q 1688 2584 1439 2293 
Q 1191 2003 1191 1497 
Q 1191 994 1439 701 
Q 1688 409 2113 409 
Q 2538 409 2786 701 
Q 3034 994 3034 1497 
Q 3034 2003 2786 2293 
Q 2538 2584 2113 2584 
z
M 3366 4563 
L 3366 3988 
Q 3128 4100 2886 4159 
Q 2644 4219 2406 4219 
Q 1781 4219 1451 3797 
Q 1122 3375 1075 2522 
Q 1259 2794 1537 2939 
Q 1816 3084 2150 3084 
Q 2853 3084 3261 2657 
Q 3669 2231 3669 1497 
Q 3669 778 3244 343 
Q 2819 -91 2113 -91 
Q 1303 -91 875 529 
Q 447 1150 447 2328 
Q 447 3434 972 4092 
Q 1497 4750 2381 4750 
Q 2619 4750 2861 4703 
Q 3103 4656 3366 4563 
z
" id="DejaVuSans-36" transform="scale(0.015625)"/>
       </defs>
       <use xlink:href="#DejaVuSans-30"/>
       <use x="63.623047" xlink:href="#DejaVuSans-2e"/>
       <use x="95.410156" xlink:href="#DejaVuSans-36"/>
      </g>
     </g>
    </g>
    <g id="xtick_5">
     <g id="line2d_5">
      <g>
       <use style="stroke:#000000;stroke-width:0.8;" x="319.737614" xlink:href="#m8428dc4c94" y="273.312"/>
      </g>
     </g>
     <g id="text_5">
      <!-- 0.8 -->
      <g transform="translate(311.786051 287.910437)scale(0.1 -0.1)">
       <defs>
        <path d="M 2034 2216 
Q 1584 2216 1326 1975 
Q 1069 1734 1069 1313 
Q 1069 891 1326 650 
Q 1584 409 2034 409 
Q 2484 409 2743 651 
Q 3003 894 3003 1313 
Q 3003 1734 2745 1975 
Q 2488 2216 2034 2216 
z
M 1403 2484 
Q 997 2584 770 2862 
Q 544 3141 544 3541 
Q 544 4100 942 4425 
Q 1341 4750 2034 4750 
Q 2731 4750 3128 4425 
Q 3525 4100 3525 3541 
Q 3525 3141 3298 2862 
Q 3072 2584 2669 2484 
Q 3125 2378 3379 2068 
Q 3634 1759 3634 1313 
Q 3634 634 3220 271 
Q 2806 -91 2034 -91 
Q 1263 -91 848 271 
Q 434 634 434 1313 
Q 434 1759 690 2068 
Q 947 2378 1403 2484 
z
M 1172 3481 
Q 1172 3119 1398 2916 
Q 1625 2713 2034 2713 
Q 2441 2713 2670 2916 
Q 2900 3119 2900 3481 
Q 2900 3844 2670 4047 
Q 2441 4250 2034 4250 
Q 1625 4250 1398 4047 
Q 1172 3844 1172 3481 
z
" id="DejaVuSans-38" transform="scale(0.015625)"/>
       </defs>
       <use xlink:href="#DejaVuSans-30"/>
       <use x="63.623047" xlink:href="#DejaVuSans-2e"/>
       <use x="95.410156" xlink:href="#DejaVuSans-38"/>
      </g>
     </g>
    </g>
    <g id="xtick_6">
     <g id="line2d_6">
      <g>
       <use style="stroke:#000000;stroke-width:0.8;" x="384.668523" xlink:href="#m8428dc4c94" y="273.312"/>
      </g>
     </g>
     <g id="text_6">
      <!-- 1.0 -->
      <g transform="translate(376.71696 287.910437)scale(0.1 -0.1)">
       <defs>
        <path d="M 794 531 
L 1825 531 
L 1825 4091 
L 703 3866 
L 703 4441 
L 1819 4666 
L 2450 4666 
L 2450 531 
L 3481 531 
L 3481 0 
L 794 0 
L 794 531 
z
" id="DejaVuSans-31" transform="scale(0.015625)"/>
       </defs>
       <use xlink:href="#DejaVuSans-31"/>
       <use x="63.623047" xlink:href="#DejaVuSans-2e"/>
       <use x="95.410156" xlink:href="#DejaVuSans-30"/>
      </g>
     </g>
    </g>
    <g id="text_7">
     <!-- Propagation direction -->
     <g transform="translate(168.859219 301.588562)scale(0.1 -0.1)">
      <defs>
       <path d="M 1259 4147 
L 1259 2394 
L 2053 2394 
Q 2494 2394 2734 2622 
Q 2975 2850 2975 3272 
Q 2975 3691 2734 3919 
Q 2494 4147 2053 4147 
L 1259 4147 
z
M 628 4666 
L 2053 4666 
Q 2838 4666 3239 4311 
Q 3641 3956 3641 3272 
Q 3641 2581 3239 2228 
Q 2838 1875 2053 1875 
L 1259 1875 
L 1259 0 
L 628 0 
L 628 4666 
z
" id="DejaVuSans-50" transform="scale(0.015625)"/>
       <path d="M 2631 2963 
Q 2534 3019 2420 3045 
Q 2306 3072 2169 3072 
Q 1681 3072 1420 2755 
Q 1159 2438 1159 1844 
L 1159 0 
L 581 0 
L 581 3500 
L 1159 3500 
L 1159 2956 
Q 1341 3275 1631 3429 
Q 1922 3584 2338 3584 
Q 2397 3584 2469 3576 
Q 2541 3569 2628 3553 
L 2631 2963 
z
" id="DejaVuSans-72" transform="scale(0.015625)"/>
       <path d="M 1959 3097 
Q 1497 3097 1228 2736 
Q 959 2375 959 1747 
Q 959 1119 1226 758 
Q 1494 397 1959 397 
Q 2419 397 2687 759 
Q 2956 1122 2956 1747 
Q 2956 2369 2687 2733 
Q 2419 3097 1959 3097 
z
M 1959 3584 
Q 2709 3584 3137 3096 
Q 3566 2609 3566 1747 
Q 3566 888 3137 398 
Q 2709 -91 1959 -91 
Q 1206 -91 779 398 
Q 353 888 353 1747 
Q 353 2609 779 3096 
Q 1206 3584 1959 3584 
z
" id="DejaVuSans-6f" transform="scale(0.015625)"/>
       <path d="M 1159 525 
L 1159 -1331 
L 581 -1331 
L 581 3500 
L 1159 3500 
L 1159 2969 
Q 1341 3281 1617 3432 
Q 1894 3584 2278 3584 
Q 2916 3584 3314 3078 
Q 3713 2572 3713 1747 
Q 3713 922 3314 415 
Q 2916 -91 2278 -91 
Q 1894 -91 1617 61 
Q 1341 213 1159 525 
z
M 3116 1747 
Q 3116 2381 2855 2742 
Q 2594 3103 2138 3103 
Q 1681 3103 1420 2742 
Q 1159 2381 1159 1747 
Q 1159 1113 1420 752 
Q 1681 391 2138 391 
Q 2594 391 2855 752 
Q 3116 1113 3116 1747 
z
" id="DejaVuSans-70" transform="scale(0.015625)"/>
       <path d="M 2194 1759 
Q 1497 1759 1228 1600 
Q 959 1441 959 1056 
Q 959 750 1161 570 
Q 1363 391 1709 391 
Q 2188 391 2477 730 
Q 2766 1069 2766 1631 
L 2766 1759 
L 2194 1759 
z
M 3341 1997 
L 3341 0 
L 2766 0 
L 2766 531 
Q 2569 213 2275 61 
Q 1981 -91 1556 -91 
Q 1019 -91 701 211 
Q 384 513 384 1019 
Q 384 1609 779 1909 
Q 1175 2209 1959 2209 
L 2766 2209 
L 2766 2266 
Q 2766 2663 2505 2880 
Q 2244 3097 1772 3097 
Q 1472 3097 1187 3025 
Q 903 2953 641 2809 
L 641 3341 
Q 956 3463 1253 3523 
Q 1550 3584 1831 3584 
Q 2591 3584 2966 3190 
Q 3341 2797 3341 1997 
z
" id="DejaVuSans-61" transform="scale(0.015625)"/>
       <path d="M 2906 1791 
Q 2906 2416 2648 2759 
Q 2391 3103 1925 3103 
Q 1463 3103 1205 2759 
Q 947 2416 947 1791 
Q 947 1169 1205 825 
Q 1463 481 1925 481 
Q 2391 481 2648 825 
Q 2906 1169 2906 1791 
z
M 3481 434 
Q 3481 -459 3084 -895 
Q 2688 -1331 1869 -1331 
Q 1566 -1331 1297 -1286 
Q 1028 -1241 775 -1147 
L 775 -588 
Q 1028 -725 1275 -790 
Q 1522 -856 1778 -856 
Q 2344 -856 2625 -561 
Q 2906 -266 2906 331 
L 2906 616 
Q 2728 306 2450 153 
Q 2172 0 1784 0 
Q 1141 0 747 490 
Q 353 981 353 1791 
Q 353 2603 747 3093 
Q 1141 3584 1784 3584 
Q 2172 3584 2450 3431 
Q 2728 3278 2906 2969 
L 2906 3500 
L 3481 3500 
L 3481 434 
z
" id="DejaVuSans-67" transform="scale(0.015625)"/>
       <path d="M 1172 4494 
L 1172 3500 
L 2356 3500 
L 2356 3053 
L 1172 3053 
L 1172 1153 
Q 1172 725 1289 603 
Q 1406 481 1766 481 
L 2356 481 
L 2356 0 
L 1766 0 
Q 1100 0 847 248 
Q 594 497 594 1153 
L 594 3053 
L 172 3053 
L 172 3500 
L 594 3500 
L 594 4494 
L 1172 4494 
z
" id="DejaVuSans-74" transform="scale(0.015625)"/>
       <path d="M 603 3500 
L 1178 3500 
L 1178 0 
L 603 0 
L 603 3500 
z
M 603 4863 
L 1178 4863 
L 1178 4134 
L 603 4134 
L 603 4863 
z
" id="DejaVuSans-69" transform="scale(0.015625)"/>
       <path d="M 3513 2113 
L 3513 0 
L 2938 0 
L 2938 2094 
Q 2938 2591 2744 2837 
Q 2550 3084 2163 3084 
Q 1697 3084 1428 2787 
Q 1159 2491 1159 1978 
L 1159 0 
L 581 0 
L 581 3500 
L 1159 3500 
L 1159 2956 
Q 1366 3272 1645 3428 
Q 1925 3584 2291 3584 
Q 2894 3584 3203 3211 
Q 3513 2838 3513 2113 
z
" id="DejaVuSans-6e" transform="scale(0.015625)"/>
       <path id="DejaVuSans-20" transform="scale(0.015625)"/>
       <path d="M 2906 2969 
L 2906 4863 
L 3481 4863 
L 3481 0 
L 2906 0 
L 2906 525 
Q 2725 213 2448 61 
Q 2172 -91 1784 -91 
Q 1150 -91 751 415 
Q 353 922 353 1747 
Q 353 2572 751 3078 
Q 1150 3584 1784 3584 
Q 2172 3584 2448 3432 
Q 2725 3281 2906 2969 
z
M 947 1747 
Q 947 1113 1208 752 
Q 1469 391 1925 391 
Q 2381 391 2643 752 
Q 2906 1113 2906 1747 
Q 2906 2381 2643 2742 
Q 2381 3103 1925 3103 
Q 1469 3103 1208 2742 
Q 947 2381 947 1747 
z
" id="DejaVuSans-64" transform="scale(0.015625)"/>
       <path d="M 3597 1894 
L 3597 1613 
L 953 1613 
Q 991 1019 1311 708 
Q 1631 397 2203 397 
Q 2534 397 2845 478 
Q 3156 559 3463 722 
L 3463 178 
Q 3153 47 2828 -22 
Q 2503 -91 2169 -91 
Q 1331 -91 842 396 
Q 353 884 353 1716 
Q 353 2575 817 3079 
Q 1281 3584 2069 3584 
Q 2775 3584 3186 3129 
Q 3597 2675 3597 1894 
z
M 3022 2063 
Q 3016 2534 2758 2815 
Q 2500 3097 2075 3097 
Q 1594 3097 1305 2825 
Q 1016 2553 972 2059 
L 3022 2063 
z
" id="DejaVuSans-65" transform="scale(0.015625)"/>
       <path d="M 3122 3366 
L 3122 2828 
Q 2878 2963 2633 3030 
Q 2388 3097 2138 3097 
Q 1578 3097 1268 2742 
Q 959 2388 959 1747 
Q 959 1106 1268 751 
Q 1578 397 2138 397 
Q 2388 397 2633 464 
Q 2878 531 3122 666 
L 3122 134 
Q 2881 22 2623 -34 
Q 2366 -91 2075 -91 
Q 1284 -91 818 406 
Q 353 903 353 1747 
Q 353 2603 823 3093 
Q 1294 3584 2113 3584 
Q 2378 3584 2631 3529 
Q 2884 3475 3122 3366 
z
" id="DejaVuSans-63" transform="scale(0.015625)"/>
      </defs>
      <use xlink:href="#DejaVuSans-50"/>
      <use x="58.552734" xlink:href="#DejaVuSans-72"/>
      <use x="97.416016" xlink:href="#DejaVuSans-6f"/>
      <use x="158.597656" xlink:href="#DejaVuSans-70"/>
      <use x="222.074219" xlink:href="#DejaVuSans-61"/>
      <use x="283.353516" xlink:href="#DejaVuSans-67"/>
      <use x="346.830078" xlink:href="#DejaVuSans-61"/>
      <use x="408.109375" xlink:href="#DejaVuSans-74"/>
      <use x="447.318359" xlink:href="#DejaVuSans-69"/>
      <use x="475.101562" xlink:href="#DejaVuSans-6f"/>
      <use x="536.283203" xlink:href="#DejaVuSans-6e"/>
      <use x="599.662109" xlink:href="#DejaVuSans-20"/>
      <use x="631.449219" xlink:href="#DejaVuSans-64"/>
      <use x="694.925781" xlink:href="#DejaVuSans-69"/>
      <use x="722.708984" xlink:href="#DejaVuSans-72"/>
      <use x="761.572266" xlink:href="#DejaVuSans-65"/>
      <use x="823.095703" xlink:href="#DejaVuSans-63"/>
      <use x="878.076172" xlink:href="#DejaVuSans-74"/>
      <use x="917.285156" xlink:href="#DejaVuSans-69"/>
      <use x="945.068359" xlink:href="#DejaVuSans-6f"/>
      <use x="1006.25" xlink:href="#DejaVuSans-6e"/>
     </g>
    </g>
   </g>
   <g id="matplotlib.axis_2">
    <g id="ytick_1">
     <g id="line2d_7">
      <defs>
       <path d="M 0 0 
L -3.5 0 
" id="m5e46255526" style="stroke:#000000;stroke-width:0.8;"/>
      </defs>
      <g>
       <use style="stroke:#000000;stroke-width:0.8;" x="43.78125" xlink:href="#m5e46255526" y="273.312"/>
      </g>
     </g>
     <g id="text_8">
      <!-- 0.0 -->
      <g transform="translate(20.878125 277.111219)scale(0.1 -0.1)">
       <use xlink:href="#DejaVuSans-30"/>
       <use x="63.623047" xlink:href="#DejaVuSans-2e"/>
       <use x="95.410156" xlink:href="#DejaVuSans-30"/>
      </g>
     </g>
    </g>
    <g id="ytick_2">
     <g id="line2d_8">
      <g>
       <use style="stroke:#000000;stroke-width:0.8;" x="43.78125" xlink:href="#m5e46255526" y="215.389339"/>
      </g>
     </g>
     <g id="text_9">
      <!-- 0.5 -->
      <g transform="translate(20.878125 219.188558)scale(0.1 -0.1)">
       <defs>
        <path d="M 691 4666 
L 3169 4666 
L 3169 4134 
L 1269 4134 
L 1269 2991 
Q 1406 3038 1543 3061 
Q 1681 3084 1819 3084 
Q 2600 3084 3056 2656 
Q 3513 2228 3513 1497 
Q 3513 744 3044 326 
Q 2575 -91 1722 -91 
Q 1428 -91 1123 -41 
Q 819 9 494 109 
L 494 744 
Q 775 591 1075 516 
Q 1375 441 1709 441 
Q 2250 441 2565 725 
Q 2881 1009 2881 1497 
Q 2881 1984 2565 2268 
Q 2250 2553 1709 2553 
Q 1456 2553 1204 2497 
Q 953 2441 691 2322 
L 691 4666 
z
" id="DejaVuSans-35" transform="scale(0.015625)"/>
       </defs>
       <use xlink:href="#DejaVuSans-30"/>
       <use x="63.623047" xlink:href="#DejaVuSans-2e"/>
       <use x="95.410156" xlink:href="#DejaVuSans-35"/>
      </g>
     </g>
    </g>
    <g id="ytick_3">
     <g id="line2d_9">
      <g>
       <use style="stroke:#000000;stroke-width:0.8;" x="43.78125" xlink:href="#m5e46255526" y="157.466678"/>
      </g>
     </g>
     <g id="text_10">
      <!-- 1.0 -->
      <g transform="translate(20.878125 161.265897)scale(0.1 -0.1)">
       <use xlink:href="#DejaVuSans-31"/>
       <use x="63.623047" xlink:href="#DejaVuSans-2e"/>
       <use x="95.410156" xlink:href="#DejaVuSans-30"/>
      </g>
     </g>
    </g>
    <g id="ytick_4">
     <g id="line2d_10">
      <g>
       <use style="stroke:#000000;stroke-width:0.8;" x="43.78125" xlink:href="#m5e46255526" y="99.544017"/>
      </g>
     </g>
     <g id="text_11">
      <!-- 1.5 -->
      <g transform="translate(20.878125 103.343235)scale(0.1 -0.1)">
       <use xlink:href="#DejaVuSans-31"/>
       <use x="63.623047" xlink:href="#DejaVuSans-2e"/>
       <use x="95.410156" xlink:href="#DejaVuSans-35"/>
      </g>
     </g>
    </g>
    <g id="ytick_5">
     <g id="line2d_11">
      <g>
       <use style="stroke:#000000;stroke-width:0.8;" x="43.78125" xlink:href="#m5e46255526" y="41.621356"/>
      </g>
     </g>
     <g id="text_12">
      <!-- 2.0 -->
      <g transform="translate(20.878125 45.420574)scale(0.1 -0.1)">
       <use xlink:href="#DejaVuSans-32"/>
       <use x="63.623047" xlink:href="#DejaVuSans-2e"/>
       <use x="95.410156" xlink:href="#DejaVuSans-30"/>
      </g>
     </g>
    </g>
    <g id="text_13">
     <!-- Probability density -->
     <g transform="translate(14.798438 186.606781)rotate(-90)scale(0.1 -0.1)">
      <defs>
       <path d="M 3116 1747 
Q 3116 2381 2855 2742 
Q 2594 3103 2138 3103 
Q 1681 3103 1420 2742 
Q 1159 2381 1159 1747 
Q 1159 1113 1420 752 
Q 1681 391 2138 391 
Q 2594 391 2855 752 
Q 3116 1113 3116 1747 
z
M 1159 2969 
Q 1341 3281 1617 3432 
Q 1894 3584 2278 3584 
Q 2916 3584 3314 3078 
Q 3713 2572 3713 1747 
Q 3713 922 3314 415 
Q 2916 -91 2278 -91 
Q 1894 -91 1617 61 
Q 1341 213 1159 525 
L 1159 0 
L 581 0 
L 581 4863 
L 1159 4863 
L 1159 2969 
z
" id="DejaVuSans-62" transform="scale(0.015625)"/>
       <path d="M 603 4863 
L 1178 4863 
L 1178 0 
L 603 0 
L 603 4863 
z
" id="DejaVuSans-6c" transform="scale(0.015625)"/>
       <path d="M 2059 -325 
Q 1816 -950 1584 -1140 
Q 1353 -1331 966 -1331 
L 506 -1331 
L 506 -850 
L 844 -850 
Q 1081 -850 1212 -737 
Q 1344 -625 1503 -206 
L 1606 56 
L 191 3500 
L 800 3500 
L 1894 763 
L 2988 3500 
L 3597 3500 
L 2059 -325 
z
" id="DejaVuSans-79" transform="scale(0.015625)"/>
       <path d="M 2834 3397 
L 2834 2853 
Q 2591 2978 2328 3040 
Q 2066 3103 1784 3103 
Q 1356 3103 1142 2972 
Q 928 2841 928 2578 
Q 928 2378 1081 2264 
Q 1234 2150 1697 2047 
L 1894 2003 
Q 2506 1872 2764 1633 
Q 3022 1394 3022 966 
Q 3022 478 2636 193 
Q 2250 -91 1575 -91 
Q 1294 -91 989 -36 
Q 684 19 347 128 
L 347 722 
Q 666 556 975 473 
Q 1284 391 1588 391 
Q 1994 391 2212 530 
Q 2431 669 2431 922 
Q 2431 1156 2273 1281 
Q 2116 1406 1581 1522 
L 1381 1569 
Q 847 1681 609 1914 
Q 372 2147 372 2553 
Q 372 3047 722 3315 
Q 1072 3584 1716 3584 
Q 2034 3584 2315 3537 
Q 2597 3491 2834 3397 
z
" id="DejaVuSans-73" transform="scale(0.015625)"/>
      </defs>
      <use xlink:href="#DejaVuSans-50"/>
      <use x="58.552734" xlink:href="#DejaVuSans-72"/>
      <use x="97.416016" xlink:href="#DejaVuSans-6f"/>
      <use x="158.597656" xlink:href="#DejaVuSans-62"/>
      <use x="222.074219" xlink:href="#DejaVuSans-61"/>
      <use x="283.353516" xlink:href="#DejaVuSans-62"/>
      <use x="346.830078" xlink:href="#DejaVuSans-69"/>
      <use x="374.613281" xlink:href="#DejaVuSans-6c"/>
      <use x="402.396484" xlink:href="#DejaVuSans-69"/>
      <use x="430.179688" xlink:href="#DejaVuSans-74"/>
      <use x="469.388672" xlink:href="#DejaVuSans-79"/>
      <use x="528.568359" xlink:href="#DejaVuSans-20"/>
      <use x="560.355469" xlink:href="#DejaVuSans-64"/>
      <use x="623.832031" xlink:href="#DejaVuSans-65"/>
      <use x="685.355469" xlink:href="#DejaVuSans-6e"/>
      <use x="748.734375" xlink:href="#DejaVuSans-73"/>
      <use x="800.833984" xlink:href="#DejaVuSans-69"/>
      <use x="828.617188" xlink:href="#DejaVuSans-74"/>
      <use x="867.826172" xlink:href="#DejaVuSans-79"/>
     </g>
    </g>
   </g>
   <g id="line2d_12">
    <path clip-path="url(#p5ba7453cd0)" d="M 60.013977 273.312 
L 384.668523 41.621356 
L 384.668523 41.621356 
" style="fill:none;stroke:#ff7f0e;stroke-linecap:square;stroke-width:1.5;"/>
   </g>
   <g id="patch_203">
    <path d="M 43.78125 273.312 
L 43.78125 7.2 
" style="fill:none;stroke:#000000;stroke-linecap:square;stroke-linejoin:miter;stroke-width:0.8;"/>
   </g>
   <g id="patch_204">
    <path d="M 400.90125 273.312 
L 400.90125 7.2 
" style="fill:none;stroke:#000000;stroke-linecap:square;stroke-linejoin:miter;stroke-width:0.8;"/>
   </g>
   <g id="patch_205">
    <path d="M 43.78125 273.312 
L 400.90125 273.312 
" style="fill:none;stroke:#000000;stroke-linecap:square;stroke-linejoin:miter;stroke-width:0.8;"/>
   </g>
   <g id="patch_206">
    <path d="M 43.78125 7.2 
L 400.90125 7.2 
" style="fill:none;stroke:#000000;stroke-linecap:square;stroke-linejoin:miter;stroke-width:0.8;"/>
   </g>
  </g>
 </g>
 <defs>
  <clipPath id="p5ba7453cd0">
   <rect height="266.112" width="357.12" x="43.78125" y="7.2"/>
  </clipPath>
 </defs>
</svg>
