<?xml version="1.0" encoding="utf-8" standalone="no"?>
<!DOCTYPE svg PUBLIC "-//W3C//DTD SVG 1.1//EN"
  "http://www.w3.org/Graphics/SVG/1.1/DTD/svg11.dtd">
<svg height="310.86825pt" version="1.1" viewBox="0 0 408.10125 310.86825" width="408.10125pt" xmlns="http://www.w3.org/2000/svg" xmlns:xlink="http://www.w3.org/1999/xlink">
 <metadata>
  <rdf:RDF xmlns:cc="http://creativecommons.org/ns#" xmlns:dc="http://purl.org/dc/elements/1.1/" xmlns:rdf="http://www.w3.org/1999/02/22-rdf-syntax-ns#">
   <cc:Work>
    <dc:type rdf:resource="http://purl.org/dc/dcmitype/StillImage"/>
    <dc:date>2021-11-23T16:03:50.599211</dc:date>
    <dc:format>image/svg+xml</dc:format>
    <dc:creator>
     <cc:Agent>
      <dc:title>Matplotlib v3.4.3, https://matplotlib.org/</dc:title>
     </cc:Agent>
    </dc:creator>
   </cc:Work>
  </rdf:RDF>
 </metadata>
 <defs>
  <style type="text/css">*{stroke-linecap:butt;stroke-linejoin:round;}</style>
 </defs>
 <g id="figure_1">
  <g id="patch_1">
   <path d="M 0 310.86825 
L 408.10125 310.86825 
L 408.10125 0 
L 0 0 
z
" style="fill:#ffffff;"/>
  </g>
  <g id="axes_1">
   <g id="patch_2">
    <path d="M 43.78125 273.312 
L 400.90125 273.312 
L 400.90125 7.2 
L 43.78125 7.2 
z
" style="fill:#ffffff;"/>
   </g>
   <g id="patch_3">
    <path clip-path="url(#p218f9004f9)" d="M 60.800281 273.312 
L 62.415972 273.312 
L 62.415972 270.440159 
L 60.800281 270.440159 
z
" style="fill:#1f77b4;"/>
   </g>
   <g id="patch_4">
    <path clip-path="url(#p218f9004f9)" d="M 62.415972 273.312 
L 64.031662 273.312 
L 64.031662 267.568317 
L 62.415972 267.568317 
z
" style="fill:#1f77b4;"/>
   </g>
   <g id="patch_5">
    <path clip-path="url(#p218f9004f9)" d="M 64.031662 273.312 
L 65.647352 273.312 
L 65.647352 261.106674 
L 64.031662 261.106674 
z
" style="fill:#1f77b4;"/>
   </g>
   <g id="patch_6">
    <path clip-path="url(#p218f9004f9)" d="M 65.647352 273.312 
L 67.263043 273.312 
L 67.263043 259.670754 
L 65.647352 259.670754 
z
" style="fill:#1f77b4;"/>
   </g>
   <g id="patch_7">
    <path clip-path="url(#p218f9004f9)" d="M 67.263043 273.312 
L 68.878733 273.312 
L 68.878733 258.234833 
L 67.263043 258.234833 
z
" style="fill:#1f77b4;"/>
   </g>
   <g id="patch_8">
    <path clip-path="url(#p218f9004f9)" d="M 68.878733 273.312 
L 70.494423 273.312 
L 70.494423 246.029507 
L 68.878733 246.029507 
z
" style="fill:#1f77b4;"/>
   </g>
   <g id="patch_9">
    <path clip-path="url(#p218f9004f9)" d="M 70.494423 273.312 
L 72.110114 273.312 
L 72.110114 248.183388 
L 70.494423 248.183388 
z
" style="fill:#1f77b4;"/>
   </g>
   <g id="patch_10">
    <path clip-path="url(#p218f9004f9)" d="M 72.110114 273.312 
L 73.725804 273.312 
L 73.725804 241.721745 
L 72.110114 241.721745 
z
" style="fill:#1f77b4;"/>
   </g>
   <g id="patch_11">
    <path clip-path="url(#p218f9004f9)" d="M 73.725804 273.312 
L 75.341494 273.312 
L 75.341494 242.439705 
L 73.725804 242.439705 
z
" style="fill:#1f77b4;"/>
   </g>
   <g id="patch_12">
    <path clip-path="url(#p218f9004f9)" d="M 75.341494 273.312 
L 76.957185 273.312 
L 76.957185 235.978062 
L 75.341494 235.978062 
z
" style="fill:#1f77b4;"/>
   </g>
   <g id="patch_13">
    <path clip-path="url(#p218f9004f9)" d="M 76.957185 273.312 
L 78.572875 273.312 
L 78.572875 231.6703 
L 76.957185 231.6703 
z
" style="fill:#1f77b4;"/>
   </g>
   <g id="patch_14">
    <path clip-path="url(#p218f9004f9)" d="M 78.572875 273.312 
L 80.188565 273.312 
L 80.188565 230.23438 
L 78.572875 230.23438 
z
" style="fill:#1f77b4;"/>
   </g>
   <g id="patch_15">
    <path clip-path="url(#p218f9004f9)" d="M 80.188565 273.312 
L 81.804256 273.312 
L 81.804256 228.080499 
L 80.188565 228.080499 
z
" style="fill:#1f77b4;"/>
   </g>
   <g id="patch_16">
    <path clip-path="url(#p218f9004f9)" d="M 81.804256 273.312 
L 83.419946 273.312 
L 83.419946 217.311093 
L 81.804256 217.311093 
z
" style="fill:#1f77b4;"/>
   </g>
   <g id="patch_17">
    <path clip-path="url(#p218f9004f9)" d="M 83.419946 273.312 
L 85.035636 273.312 
L 85.035636 225.208657 
L 83.419946 225.208657 
z
" style="fill:#1f77b4;"/>
   </g>
   <g id="patch_18">
    <path clip-path="url(#p218f9004f9)" d="M 85.035636 273.312 
L 86.651327 273.312 
L 86.651327 199.362085 
L 85.035636 199.362085 
z
" style="fill:#1f77b4;"/>
   </g>
   <g id="patch_19">
    <path clip-path="url(#p218f9004f9)" d="M 86.651327 273.312 
L 88.267017 273.312 
L 88.267017 208.695569 
L 86.651327 208.695569 
z
" style="fill:#1f77b4;"/>
   </g>
   <g id="patch_20">
    <path clip-path="url(#p218f9004f9)" d="M 88.267017 273.312 
L 89.882707 273.312 
L 89.882707 213.003331 
L 88.267017 213.003331 
z
" style="fill:#1f77b4;"/>
   </g>
   <g id="patch_21">
    <path clip-path="url(#p218f9004f9)" d="M 89.882707 273.312 
L 91.498398 273.312 
L 91.498398 190.028601 
L 89.882707 190.028601 
z
" style="fill:#1f77b4;"/>
   </g>
   <g id="patch_22">
    <path clip-path="url(#p218f9004f9)" d="M 91.498398 273.312 
L 93.114088 273.312 
L 93.114088 195.772283 
L 91.498398 195.772283 
z
" style="fill:#1f77b4;"/>
   </g>
   <g id="patch_23">
    <path clip-path="url(#p218f9004f9)" d="M 93.114088 273.312 
L 94.729778 273.312 
L 94.729778 200.798006 
L 93.114088 200.798006 
z
" style="fill:#1f77b4;"/>
   </g>
   <g id="patch_24">
    <path clip-path="url(#p218f9004f9)" d="M 94.729778 273.312 
L 96.345469 273.312 
L 96.345469 199.362085 
L 94.729778 199.362085 
z
" style="fill:#1f77b4;"/>
   </g>
   <g id="patch_25">
    <path clip-path="url(#p218f9004f9)" d="M 96.345469 273.312 
L 97.961159 273.312 
L 97.961159 202.233926 
L 96.345469 202.233926 
z
" style="fill:#1f77b4;"/>
   </g>
   <g id="patch_26">
    <path clip-path="url(#p218f9004f9)" d="M 97.961159 273.312 
L 99.576849 273.312 
L 99.576849 186.438799 
L 97.961159 186.438799 
z
" style="fill:#1f77b4;"/>
   </g>
   <g id="patch_27">
    <path clip-path="url(#p218f9004f9)" d="M 99.576849 273.312 
L 101.19254 273.312 
L 101.19254 189.31064 
L 99.576849 189.31064 
z
" style="fill:#1f77b4;"/>
   </g>
   <g id="patch_28">
    <path clip-path="url(#p218f9004f9)" d="M 101.19254 273.312 
L 102.80823 273.312 
L 102.80823 187.87472 
L 101.19254 187.87472 
z
" style="fill:#1f77b4;"/>
   </g>
   <g id="patch_29">
    <path clip-path="url(#p218f9004f9)" d="M 102.80823 273.312 
L 104.42392 273.312 
L 104.42392 185.002878 
L 102.80823 185.002878 
z
" style="fill:#1f77b4;"/>
   </g>
   <g id="patch_30">
    <path clip-path="url(#p218f9004f9)" d="M 104.42392 273.312 
L 106.039611 273.312 
L 106.039611 172.797552 
L 104.42392 172.797552 
z
" style="fill:#1f77b4;"/>
   </g>
   <g id="patch_31">
    <path clip-path="url(#p218f9004f9)" d="M 106.039611 273.312 
L 107.655301 273.312 
L 107.655301 180.695116 
L 106.039611 180.695116 
z
" style="fill:#1f77b4;"/>
   </g>
   <g id="patch_32">
    <path clip-path="url(#p218f9004f9)" d="M 107.655301 273.312 
L 109.270991 273.312 
L 109.270991 177.105314 
L 107.655301 177.105314 
z
" style="fill:#1f77b4;"/>
   </g>
   <g id="patch_33">
    <path clip-path="url(#p218f9004f9)" d="M 109.270991 273.312 
L 110.886682 273.312 
L 110.886682 167.05387 
L 109.270991 167.05387 
z
" style="fill:#1f77b4;"/>
   </g>
   <g id="patch_34">
    <path clip-path="url(#p218f9004f9)" d="M 110.886682 273.312 
L 112.502372 273.312 
L 112.502372 171.361632 
L 110.886682 171.361632 
z
" style="fill:#1f77b4;"/>
   </g>
   <g id="patch_35">
    <path clip-path="url(#p218f9004f9)" d="M 112.502372 273.312 
L 114.118062 273.312 
L 114.118062 161.310187 
L 112.502372 161.310187 
z
" style="fill:#1f77b4;"/>
   </g>
   <g id="patch_36">
    <path clip-path="url(#p218f9004f9)" d="M 114.118062 273.312 
L 115.733753 273.312 
L 115.733753 180.695116 
L 114.118062 180.695116 
z
" style="fill:#1f77b4;"/>
   </g>
   <g id="patch_37">
    <path clip-path="url(#p218f9004f9)" d="M 115.733753 273.312 
L 117.349443 273.312 
L 117.349443 154.130584 
L 115.733753 154.130584 
z
" style="fill:#1f77b4;"/>
   </g>
   <g id="patch_38">
    <path clip-path="url(#p218f9004f9)" d="M 117.349443 273.312 
L 118.965133 273.312 
L 118.965133 162.028147 
L 117.349443 162.028147 
z
" style="fill:#1f77b4;"/>
   </g>
   <g id="patch_39">
    <path clip-path="url(#p218f9004f9)" d="M 118.965133 273.312 
L 120.580824 273.312 
L 120.580824 155.566504 
L 118.965133 155.566504 
z
" style="fill:#1f77b4;"/>
   </g>
   <g id="patch_40">
    <path clip-path="url(#p218f9004f9)" d="M 120.580824 273.312 
L 122.196514 273.312 
L 122.196514 160.592227 
L 120.580824 160.592227 
z
" style="fill:#1f77b4;"/>
   </g>
   <g id="patch_41">
    <path clip-path="url(#p218f9004f9)" d="M 122.196514 273.312 
L 123.812204 273.312 
L 123.812204 159.156306 
L 122.196514 159.156306 
z
" style="fill:#1f77b4;"/>
   </g>
   <g id="patch_42">
    <path clip-path="url(#p218f9004f9)" d="M 123.812204 273.312 
L 125.427895 273.312 
L 125.427895 151.258742 
L 123.812204 151.258742 
z
" style="fill:#1f77b4;"/>
   </g>
   <g id="patch_43">
    <path clip-path="url(#p218f9004f9)" d="M 125.427895 273.312 
L 127.043585 273.312 
L 127.043585 131.873813 
L 125.427895 131.873813 
z
" style="fill:#1f77b4;"/>
   </g>
   <g id="patch_44">
    <path clip-path="url(#p218f9004f9)" d="M 127.043585 273.312 
L 128.659275 273.312 
L 128.659275 134.027694 
L 127.043585 134.027694 
z
" style="fill:#1f77b4;"/>
   </g>
   <g id="patch_45">
    <path clip-path="url(#p218f9004f9)" d="M 128.659275 273.312 
L 130.274966 273.312 
L 130.274966 149.822822 
L 128.659275 149.822822 
z
" style="fill:#1f77b4;"/>
   </g>
   <g id="patch_46">
    <path clip-path="url(#p218f9004f9)" d="M 130.274966 273.312 
L 131.890656 273.312 
L 131.890656 124.69421 
L 130.274966 124.69421 
z
" style="fill:#1f77b4;"/>
   </g>
   <g id="patch_47">
    <path clip-path="url(#p218f9004f9)" d="M 131.890656 273.312 
L 133.506346 273.312 
L 133.506346 121.104408 
L 131.890656 121.104408 
z
" style="fill:#1f77b4;"/>
   </g>
   <g id="patch_48">
    <path clip-path="url(#p218f9004f9)" d="M 133.506346 273.312 
L 135.122037 273.312 
L 135.122037 121.104408 
L 133.506346 121.104408 
z
" style="fill:#1f77b4;"/>
   </g>
   <g id="patch_49">
    <path clip-path="url(#p218f9004f9)" d="M 135.122037 273.312 
L 136.737727 273.312 
L 136.737727 136.181575 
L 135.122037 136.181575 
z
" style="fill:#1f77b4;"/>
   </g>
   <g id="patch_50">
    <path clip-path="url(#p218f9004f9)" d="M 136.737727 273.312 
L 138.353417 273.312 
L 138.353417 130.437892 
L 136.737727 130.437892 
z
" style="fill:#1f77b4;"/>
   </g>
   <g id="patch_51">
    <path clip-path="url(#p218f9004f9)" d="M 138.353417 273.312 
L 139.969108 273.312 
L 139.969108 123.258289 
L 138.353417 123.258289 
z
" style="fill:#1f77b4;"/>
   </g>
   <g id="patch_52">
    <path clip-path="url(#p218f9004f9)" d="M 139.969108 273.312 
L 141.584798 273.312 
L 141.584798 108.181122 
L 139.969108 108.181122 
z
" style="fill:#1f77b4;"/>
   </g>
   <g id="patch_53">
    <path clip-path="url(#p218f9004f9)" d="M 141.584798 273.312 
L 143.200488 273.312 
L 143.200488 110.335003 
L 141.584798 110.335003 
z
" style="fill:#1f77b4;"/>
   </g>
   <g id="patch_54">
    <path clip-path="url(#p218f9004f9)" d="M 143.200488 273.312 
L 144.816179 273.312 
L 144.816179 99.565598 
L 143.200488 99.565598 
z
" style="fill:#1f77b4;"/>
   </g>
   <g id="patch_55">
    <path clip-path="url(#p218f9004f9)" d="M 144.816179 273.312 
L 146.431869 273.312 
L 146.431869 109.617042 
L 144.816179 109.617042 
z
" style="fill:#1f77b4;"/>
   </g>
   <g id="patch_56">
    <path clip-path="url(#p218f9004f9)" d="M 146.431869 273.312 
L 148.047559 273.312 
L 148.047559 104.59132 
L 146.431869 104.59132 
z
" style="fill:#1f77b4;"/>
   </g>
   <g id="patch_57">
    <path clip-path="url(#p218f9004f9)" d="M 148.047559 273.312 
L 149.66325 273.312 
L 149.66325 106.745201 
L 148.047559 106.745201 
z
" style="fill:#1f77b4;"/>
   </g>
   <g id="patch_58">
    <path clip-path="url(#p218f9004f9)" d="M 149.66325 273.312 
L 151.27894 273.312 
L 151.27894 80.898629 
L 149.66325 80.898629 
z
" style="fill:#1f77b4;"/>
   </g>
   <g id="patch_59">
    <path clip-path="url(#p218f9004f9)" d="M 151.27894 273.312 
L 152.89463 273.312 
L 152.89463 114.642765 
L 151.27894 114.642765 
z
" style="fill:#1f77b4;"/>
   </g>
   <g id="patch_60">
    <path clip-path="url(#p218f9004f9)" d="M 152.89463 273.312 
L 154.510321 273.312 
L 154.510321 90.232113 
L 152.89463 90.232113 
z
" style="fill:#1f77b4;"/>
   </g>
   <g id="patch_61">
    <path clip-path="url(#p218f9004f9)" d="M 154.510321 273.312 
L 156.126011 273.312 
L 156.126011 107.463161 
L 154.510321 107.463161 
z
" style="fill:#1f77b4;"/>
   </g>
   <g id="patch_62">
    <path clip-path="url(#p218f9004f9)" d="M 156.126011 273.312 
L 157.741701 273.312 
L 157.741701 75.872907 
L 156.126011 75.872907 
z
" style="fill:#1f77b4;"/>
   </g>
   <g id="patch_63">
    <path clip-path="url(#p218f9004f9)" d="M 157.741701 273.312 
L 159.357392 273.312 
L 159.357392 95.257836 
L 157.741701 95.257836 
z
" style="fill:#1f77b4;"/>
   </g>
   <g id="patch_64">
    <path clip-path="url(#p218f9004f9)" d="M 159.357392 273.312 
L 160.973082 273.312 
L 160.973082 75.872907 
L 159.357392 75.872907 
z
" style="fill:#1f77b4;"/>
   </g>
   <g id="patch_65">
    <path clip-path="url(#p218f9004f9)" d="M 160.973082 273.312 
L 162.588772 273.312 
L 162.588772 78.744748 
L 160.973082 78.744748 
z
" style="fill:#1f77b4;"/>
   </g>
   <g id="patch_66">
    <path clip-path="url(#p218f9004f9)" d="M 162.588772 273.312 
L 164.204463 273.312 
L 164.204463 87.360272 
L 162.588772 87.360272 
z
" style="fill:#1f77b4;"/>
   </g>
   <g id="patch_67">
    <path clip-path="url(#p218f9004f9)" d="M 164.204463 273.312 
L 165.820153 273.312 
L 165.820153 101.001518 
L 164.204463 101.001518 
z
" style="fill:#1f77b4;"/>
   </g>
   <g id="patch_68">
    <path clip-path="url(#p218f9004f9)" d="M 165.820153 273.312 
L 167.435843 273.312 
L 167.435843 89.514153 
L 165.820153 89.514153 
z
" style="fill:#1f77b4;"/>
   </g>
   <g id="patch_69">
    <path clip-path="url(#p218f9004f9)" d="M 167.435843 273.312 
L 169.051534 273.312 
L 169.051534 60.795739 
L 167.435843 60.795739 
z
" style="fill:#1f77b4;"/>
   </g>
   <g id="patch_70">
    <path clip-path="url(#p218f9004f9)" d="M 169.051534 273.312 
L 170.667224 273.312 
L 170.667224 72.283105 
L 169.051534 72.283105 
z
" style="fill:#1f77b4;"/>
   </g>
   <g id="patch_71">
    <path clip-path="url(#p218f9004f9)" d="M 170.667224 273.312 
L 172.282914 273.312 
L 172.282914 60.795739 
L 170.667224 60.795739 
z
" style="fill:#1f77b4;"/>
   </g>
   <g id="patch_72">
    <path clip-path="url(#p218f9004f9)" d="M 172.282914 273.312 
L 173.898605 273.312 
L 173.898605 65.103501 
L 172.282914 65.103501 
z
" style="fill:#1f77b4;"/>
   </g>
   <g id="patch_73">
    <path clip-path="url(#p218f9004f9)" d="M 173.898605 273.312 
L 175.514295 273.312 
L 175.514295 78.026788 
L 173.898605 78.026788 
z
" style="fill:#1f77b4;"/>
   </g>
   <g id="patch_74">
    <path clip-path="url(#p218f9004f9)" d="M 175.514295 273.312 
L 177.129985 273.312 
L 177.129985 78.744748 
L 175.514295 78.744748 
z
" style="fill:#1f77b4;"/>
   </g>
   <g id="patch_75">
    <path clip-path="url(#p218f9004f9)" d="M 177.129985 273.312 
L 178.745676 273.312 
L 178.745676 56.487977 
L 177.129985 56.487977 
z
" style="fill:#1f77b4;"/>
   </g>
   <g id="patch_76">
    <path clip-path="url(#p218f9004f9)" d="M 178.745676 273.312 
L 180.361366 273.312 
L 180.361366 77.308827 
L 178.745676 77.308827 
z
" style="fill:#1f77b4;"/>
   </g>
   <g id="patch_77">
    <path clip-path="url(#p218f9004f9)" d="M 180.361366 273.312 
L 181.977056 273.312 
L 181.977056 65.103501 
L 180.361366 65.103501 
z
" style="fill:#1f77b4;"/>
   </g>
   <g id="patch_78">
    <path clip-path="url(#p218f9004f9)" d="M 181.977056 273.312 
L 183.592747 273.312 
L 183.592747 62.94962 
L 181.977056 62.94962 
z
" style="fill:#1f77b4;"/>
   </g>
   <g id="patch_79">
    <path clip-path="url(#p218f9004f9)" d="M 183.592747 273.312 
L 185.208437 273.312 
L 185.208437 50.026334 
L 183.592747 50.026334 
z
" style="fill:#1f77b4;"/>
   </g>
   <g id="patch_80">
    <path clip-path="url(#p218f9004f9)" d="M 185.208437 273.312 
L 186.824127 273.312 
L 186.824127 42.846731 
L 185.208437 42.846731 
z
" style="fill:#1f77b4;"/>
   </g>
   <g id="patch_81">
    <path clip-path="url(#p218f9004f9)" d="M 186.824127 273.312 
L 188.439818 273.312 
L 188.439818 81.616589 
L 186.824127 81.616589 
z
" style="fill:#1f77b4;"/>
   </g>
   <g id="patch_82">
    <path clip-path="url(#p218f9004f9)" d="M 188.439818 273.312 
L 190.055508 273.312 
L 190.055508 57.923898 
L 188.439818 57.923898 
z
" style="fill:#1f77b4;"/>
   </g>
   <g id="patch_83">
    <path clip-path="url(#p218f9004f9)" d="M 190.055508 273.312 
L 191.671198 273.312 
L 191.671198 64.385541 
L 190.055508 64.385541 
z
" style="fill:#1f77b4;"/>
   </g>
   <g id="patch_84">
    <path clip-path="url(#p218f9004f9)" d="M 191.671198 273.312 
L 193.286889 273.312 
L 193.286889 62.94962 
L 191.671198 62.94962 
z
" style="fill:#1f77b4;"/>
   </g>
   <g id="patch_85">
    <path clip-path="url(#p218f9004f9)" d="M 193.286889 273.312 
L 194.902579 273.312 
L 194.902579 50.026334 
L 193.286889 50.026334 
z
" style="fill:#1f77b4;"/>
   </g>
   <g id="patch_86">
    <path clip-path="url(#p218f9004f9)" d="M 194.902579 273.312 
L 196.518269 273.312 
L 196.518269 45.000612 
L 194.902579 45.000612 
z
" style="fill:#1f77b4;"/>
   </g>
   <g id="patch_87">
    <path clip-path="url(#p218f9004f9)" d="M 196.518269 273.312 
L 198.13396 273.312 
L 198.13396 60.077779 
L 196.518269 60.077779 
z
" style="fill:#1f77b4;"/>
   </g>
   <g id="patch_88">
    <path clip-path="url(#p218f9004f9)" d="M 198.13396 273.312 
L 199.74965 273.312 
L 199.74965 44.282652 
L 198.13396 44.282652 
z
" style="fill:#1f77b4;"/>
   </g>
   <g id="patch_89">
    <path clip-path="url(#p218f9004f9)" d="M 199.74965 273.312 
L 201.36534 273.312 
L 201.36534 57.205938 
L 199.74965 57.205938 
z
" style="fill:#1f77b4;"/>
   </g>
   <g id="patch_90">
    <path clip-path="url(#p218f9004f9)" d="M 201.36534 273.312 
L 202.981031 273.312 
L 202.981031 42.128771 
L 201.36534 42.128771 
z
" style="fill:#1f77b4;"/>
   </g>
   <g id="patch_91">
    <path clip-path="url(#p218f9004f9)" d="M 202.981031 273.312 
L 204.596721 273.312 
L 204.596721 58.641858 
L 202.981031 58.641858 
z
" style="fill:#1f77b4;"/>
   </g>
   <g id="patch_92">
    <path clip-path="url(#p218f9004f9)" d="M 204.596721 273.312 
L 206.212411 273.312 
L 206.212411 55.052057 
L 204.596721 55.052057 
z
" style="fill:#1f77b4;"/>
   </g>
   <g id="patch_93">
    <path clip-path="url(#p218f9004f9)" d="M 206.212411 273.312 
L 207.828102 273.312 
L 207.828102 45.718572 
L 206.212411 45.718572 
z
" style="fill:#1f77b4;"/>
   </g>
   <g id="patch_94">
    <path clip-path="url(#p218f9004f9)" d="M 207.828102 273.312 
L 209.443792 273.312 
L 209.443792 75.872907 
L 207.828102 75.872907 
z
" style="fill:#1f77b4;"/>
   </g>
   <g id="patch_95">
    <path clip-path="url(#p218f9004f9)" d="M 209.443792 273.312 
L 211.059482 273.312 
L 211.059482 70.847184 
L 209.443792 70.847184 
z
" style="fill:#1f77b4;"/>
   </g>
   <g id="patch_96">
    <path clip-path="url(#p218f9004f9)" d="M 211.059482 273.312 
L 212.675173 273.312 
L 212.675173 45.718572 
L 211.059482 45.718572 
z
" style="fill:#1f77b4;"/>
   </g>
   <g id="patch_97">
    <path clip-path="url(#p218f9004f9)" d="M 212.675173 273.312 
L 214.290863 273.312 
L 214.290863 52.898176 
L 212.675173 52.898176 
z
" style="fill:#1f77b4;"/>
   </g>
   <g id="patch_98">
    <path clip-path="url(#p218f9004f9)" d="M 214.290863 273.312 
L 215.906553 273.312 
L 215.906553 52.898176 
L 214.290863 52.898176 
z
" style="fill:#1f77b4;"/>
   </g>
   <g id="patch_99">
    <path clip-path="url(#p218f9004f9)" d="M 215.906553 273.312 
L 217.522244 273.312 
L 217.522244 50.026334 
L 215.906553 50.026334 
z
" style="fill:#1f77b4;"/>
   </g>
   <g id="patch_100">
    <path clip-path="url(#p218f9004f9)" d="M 217.522244 273.312 
L 219.137934 273.312 
L 219.137934 40.69285 
L 217.522244 40.69285 
z
" style="fill:#1f77b4;"/>
   </g>
   <g id="patch_101">
    <path clip-path="url(#p218f9004f9)" d="M 219.137934 273.312 
L 220.753624 273.312 
L 220.753624 41.41081 
L 219.137934 41.41081 
z
" style="fill:#1f77b4;"/>
   </g>
   <g id="patch_102">
    <path clip-path="url(#p218f9004f9)" d="M 220.753624 273.312 
L 222.369315 273.312 
L 222.369315 37.821008 
L 220.753624 37.821008 
z
" style="fill:#1f77b4;"/>
   </g>
   <g id="patch_103">
    <path clip-path="url(#p218f9004f9)" d="M 222.369315 273.312 
L 223.985005 273.312 
L 223.985005 47.872453 
L 222.369315 47.872453 
z
" style="fill:#1f77b4;"/>
   </g>
   <g id="patch_104">
    <path clip-path="url(#p218f9004f9)" d="M 223.985005 273.312 
L 225.600695 273.312 
L 225.600695 45.718572 
L 223.985005 45.718572 
z
" style="fill:#1f77b4;"/>
   </g>
   <g id="patch_105">
    <path clip-path="url(#p218f9004f9)" d="M 225.600695 273.312 
L 227.216386 273.312 
L 227.216386 70.129224 
L 225.600695 70.129224 
z
" style="fill:#1f77b4;"/>
   </g>
   <g id="patch_106">
    <path clip-path="url(#p218f9004f9)" d="M 227.216386 273.312 
L 228.832076 273.312 
L 228.832076 34.231207 
L 227.216386 34.231207 
z
" style="fill:#1f77b4;"/>
   </g>
   <g id="patch_107">
    <path clip-path="url(#p218f9004f9)" d="M 228.832076 273.312 
L 230.447766 273.312 
L 230.447766 58.641858 
L 228.832076 58.641858 
z
" style="fill:#1f77b4;"/>
   </g>
   <g id="patch_108">
    <path clip-path="url(#p218f9004f9)" d="M 230.447766 273.312 
L 232.063457 273.312 
L 232.063457 47.154493 
L 230.447766 47.154493 
z
" style="fill:#1f77b4;"/>
   </g>
   <g id="patch_109">
    <path clip-path="url(#p218f9004f9)" d="M 232.063457 273.312 
L 233.679147 273.312 
L 233.679147 67.257382 
L 232.063457 67.257382 
z
" style="fill:#1f77b4;"/>
   </g>
   <g id="patch_110">
    <path clip-path="url(#p218f9004f9)" d="M 233.679147 273.312 
L 235.294837 273.312 
L 235.294837 65.103501 
L 233.679147 65.103501 
z
" style="fill:#1f77b4;"/>
   </g>
   <g id="patch_111">
    <path clip-path="url(#p218f9004f9)" d="M 235.294837 273.312 
L 236.910528 273.312 
L 236.910528 37.821008 
L 235.294837 37.821008 
z
" style="fill:#1f77b4;"/>
   </g>
   <g id="patch_112">
    <path clip-path="url(#p218f9004f9)" d="M 236.910528 273.312 
L 238.526218 273.312 
L 238.526218 19.872 
L 236.910528 19.872 
z
" style="fill:#1f77b4;"/>
   </g>
   <g id="patch_113">
    <path clip-path="url(#p218f9004f9)" d="M 238.526218 273.312 
L 240.141908 273.312 
L 240.141908 35.667127 
L 238.526218 35.667127 
z
" style="fill:#1f77b4;"/>
   </g>
   <g id="patch_114">
    <path clip-path="url(#p218f9004f9)" d="M 240.141908 273.312 
L 241.757599 273.312 
L 241.757599 57.923898 
L 240.141908 57.923898 
z
" style="fill:#1f77b4;"/>
   </g>
   <g id="patch_115">
    <path clip-path="url(#p218f9004f9)" d="M 241.757599 273.312 
L 243.373289 273.312 
L 243.373289 57.205938 
L 241.757599 57.205938 
z
" style="fill:#1f77b4;"/>
   </g>
   <g id="patch_116">
    <path clip-path="url(#p218f9004f9)" d="M 243.373289 273.312 
L 244.988979 273.312 
L 244.988979 37.821008 
L 243.373289 37.821008 
z
" style="fill:#1f77b4;"/>
   </g>
   <g id="patch_117">
    <path clip-path="url(#p218f9004f9)" d="M 244.988979 273.312 
L 246.60467 273.312 
L 246.60467 57.205938 
L 244.988979 57.205938 
z
" style="fill:#1f77b4;"/>
   </g>
   <g id="patch_118">
    <path clip-path="url(#p218f9004f9)" d="M 246.60467 273.312 
L 248.22036 273.312 
L 248.22036 60.077779 
L 246.60467 60.077779 
z
" style="fill:#1f77b4;"/>
   </g>
   <g id="patch_119">
    <path clip-path="url(#p218f9004f9)" d="M 248.22036 273.312 
L 249.83605 273.312 
L 249.83605 61.5137 
L 248.22036 61.5137 
z
" style="fill:#1f77b4;"/>
   </g>
   <g id="patch_120">
    <path clip-path="url(#p218f9004f9)" d="M 249.83605 273.312 
L 251.451741 273.312 
L 251.451741 58.641858 
L 249.83605 58.641858 
z
" style="fill:#1f77b4;"/>
   </g>
   <g id="patch_121">
    <path clip-path="url(#p218f9004f9)" d="M 251.451741 273.312 
L 253.067431 273.312 
L 253.067431 51.462255 
L 251.451741 51.462255 
z
" style="fill:#1f77b4;"/>
   </g>
   <g id="patch_122">
    <path clip-path="url(#p218f9004f9)" d="M 253.067431 273.312 
L 254.683121 273.312 
L 254.683121 73.001065 
L 253.067431 73.001065 
z
" style="fill:#1f77b4;"/>
   </g>
   <g id="patch_123">
    <path clip-path="url(#p218f9004f9)" d="M 254.683121 273.312 
L 256.298812 273.312 
L 256.298812 57.205938 
L 254.683121 57.205938 
z
" style="fill:#1f77b4;"/>
   </g>
   <g id="patch_124">
    <path clip-path="url(#p218f9004f9)" d="M 256.298812 273.312 
L 257.914502 273.312 
L 257.914502 74.436986 
L 256.298812 74.436986 
z
" style="fill:#1f77b4;"/>
   </g>
   <g id="patch_125">
    <path clip-path="url(#p218f9004f9)" d="M 257.914502 273.312 
L 259.530192 273.312 
L 259.530192 75.872907 
L 257.914502 75.872907 
z
" style="fill:#1f77b4;"/>
   </g>
   <g id="patch_126">
    <path clip-path="url(#p218f9004f9)" d="M 259.530192 273.312 
L 261.145883 273.312 
L 261.145883 71.565144 
L 259.530192 71.565144 
z
" style="fill:#1f77b4;"/>
   </g>
   <g id="patch_127">
    <path clip-path="url(#p218f9004f9)" d="M 261.145883 273.312 
L 262.761573 273.312 
L 262.761573 52.180215 
L 261.145883 52.180215 
z
" style="fill:#1f77b4;"/>
   </g>
   <g id="patch_128">
    <path clip-path="url(#p218f9004f9)" d="M 262.761573 273.312 
L 264.377263 273.312 
L 264.377263 70.129224 
L 262.761573 70.129224 
z
" style="fill:#1f77b4;"/>
   </g>
   <g id="patch_129">
    <path clip-path="url(#p218f9004f9)" d="M 264.377263 273.312 
L 265.992954 273.312 
L 265.992954 66.539422 
L 264.377263 66.539422 
z
" style="fill:#1f77b4;"/>
   </g>
   <g id="patch_130">
    <path clip-path="url(#p218f9004f9)" d="M 265.992954 273.312 
L 267.608644 273.312 
L 267.608644 60.077779 
L 265.992954 60.077779 
z
" style="fill:#1f77b4;"/>
   </g>
   <g id="patch_131">
    <path clip-path="url(#p218f9004f9)" d="M 267.608644 273.312 
L 269.224334 273.312 
L 269.224334 80.180669 
L 267.608644 80.180669 
z
" style="fill:#1f77b4;"/>
   </g>
   <g id="patch_132">
    <path clip-path="url(#p218f9004f9)" d="M 269.224334 273.312 
L 270.840025 273.312 
L 270.840025 78.026788 
L 269.224334 78.026788 
z
" style="fill:#1f77b4;"/>
   </g>
   <g id="patch_133">
    <path clip-path="url(#p218f9004f9)" d="M 270.840025 273.312 
L 272.455715 273.312 
L 272.455715 76.590867 
L 270.840025 76.590867 
z
" style="fill:#1f77b4;"/>
   </g>
   <g id="patch_134">
    <path clip-path="url(#p218f9004f9)" d="M 272.455715 273.312 
L 274.071405 273.312 
L 274.071405 70.847184 
L 272.455715 70.847184 
z
" style="fill:#1f77b4;"/>
   </g>
   <g id="patch_135">
    <path clip-path="url(#p218f9004f9)" d="M 274.071405 273.312 
L 275.687096 273.312 
L 275.687096 87.360272 
L 274.071405 87.360272 
z
" style="fill:#1f77b4;"/>
   </g>
   <g id="patch_136">
    <path clip-path="url(#p218f9004f9)" d="M 275.687096 273.312 
L 277.302786 273.312 
L 277.302786 88.796193 
L 275.687096 88.796193 
z
" style="fill:#1f77b4;"/>
   </g>
   <g id="patch_137">
    <path clip-path="url(#p218f9004f9)" d="M 277.302786 273.312 
L 278.918476 273.312 
L 278.918476 88.078232 
L 277.302786 88.078232 
z
" style="fill:#1f77b4;"/>
   </g>
   <g id="patch_138">
    <path clip-path="url(#p218f9004f9)" d="M 278.918476 273.312 
L 280.534167 273.312 
L 280.534167 65.103501 
L 278.918476 65.103501 
z
" style="fill:#1f77b4;"/>
   </g>
   <g id="patch_139">
    <path clip-path="url(#p218f9004f9)" d="M 280.534167 273.312 
L 282.149857 273.312 
L 282.149857 102.437439 
L 280.534167 102.437439 
z
" style="fill:#1f77b4;"/>
   </g>
   <g id="patch_140">
    <path clip-path="url(#p218f9004f9)" d="M 282.149857 273.312 
L 283.765547 273.312 
L 283.765547 90.950074 
L 282.149857 90.950074 
z
" style="fill:#1f77b4;"/>
   </g>
   <g id="patch_141">
    <path clip-path="url(#p218f9004f9)" d="M 283.765547 273.312 
L 285.381238 273.312 
L 285.381238 118.232567 
L 283.765547 118.232567 
z
" style="fill:#1f77b4;"/>
   </g>
   <g id="patch_142">
    <path clip-path="url(#p218f9004f9)" d="M 285.381238 273.312 
L 286.996928 273.312 
L 286.996928 98.129677 
L 285.381238 98.129677 
z
" style="fill:#1f77b4;"/>
   </g>
   <g id="patch_143">
    <path clip-path="url(#p218f9004f9)" d="M 286.996928 273.312 
L 288.612618 273.312 
L 288.612618 93.103955 
L 286.996928 93.103955 
z
" style="fill:#1f77b4;"/>
   </g>
   <g id="patch_144">
    <path clip-path="url(#p218f9004f9)" d="M 288.612618 273.312 
L 290.228309 273.312 
L 290.228309 83.05251 
L 288.612618 83.05251 
z
" style="fill:#1f77b4;"/>
   </g>
   <g id="patch_145">
    <path clip-path="url(#p218f9004f9)" d="M 290.228309 273.312 
L 291.843999 273.312 
L 291.843999 91.668034 
L 290.228309 91.668034 
z
" style="fill:#1f77b4;"/>
   </g>
   <g id="patch_146">
    <path clip-path="url(#p218f9004f9)" d="M 291.843999 273.312 
L 293.459689 273.312 
L 293.459689 106.745201 
L 291.843999 106.745201 
z
" style="fill:#1f77b4;"/>
   </g>
   <g id="patch_147">
    <path clip-path="url(#p218f9004f9)" d="M 293.459689 273.312 
L 295.07538 273.312 
L 295.07538 93.103955 
L 293.459689 93.103955 
z
" style="fill:#1f77b4;"/>
   </g>
   <g id="patch_148">
    <path clip-path="url(#p218f9004f9)" d="M 295.07538 273.312 
L 296.69107 273.312 
L 296.69107 131.873813 
L 295.07538 131.873813 
z
" style="fill:#1f77b4;"/>
   </g>
   <g id="patch_149">
    <path clip-path="url(#p218f9004f9)" d="M 296.69107 273.312 
L 298.30676 273.312 
L 298.30676 93.103955 
L 296.69107 93.103955 
z
" style="fill:#1f77b4;"/>
   </g>
   <g id="patch_150">
    <path clip-path="url(#p218f9004f9)" d="M 298.30676 273.312 
L 299.922451 273.312 
L 299.922451 96.693756 
L 298.30676 96.693756 
z
" style="fill:#1f77b4;"/>
   </g>
   <g id="patch_151">
    <path clip-path="url(#p218f9004f9)" d="M 299.922451 273.312 
L 301.538141 273.312 
L 301.538141 108.899082 
L 299.922451 108.899082 
z
" style="fill:#1f77b4;"/>
   </g>
   <g id="patch_152">
    <path clip-path="url(#p218f9004f9)" d="M 301.538141 273.312 
L 303.153831 273.312 
L 303.153831 108.181122 
L 301.538141 108.181122 
z
" style="fill:#1f77b4;"/>
   </g>
   <g id="patch_153">
    <path clip-path="url(#p218f9004f9)" d="M 303.153831 273.312 
L 304.769522 273.312 
L 304.769522 97.411717 
L 303.153831 97.411717 
z
" style="fill:#1f77b4;"/>
   </g>
   <g id="patch_154">
    <path clip-path="url(#p218f9004f9)" d="M 304.769522 273.312 
L 306.385212 273.312 
L 306.385212 108.181122 
L 304.769522 108.181122 
z
" style="fill:#1f77b4;"/>
   </g>
   <g id="patch_155">
    <path clip-path="url(#p218f9004f9)" d="M 306.385212 273.312 
L 308.000902 273.312 
L 308.000902 124.69421 
L 306.385212 124.69421 
z
" style="fill:#1f77b4;"/>
   </g>
   <g id="patch_156">
    <path clip-path="url(#p218f9004f9)" d="M 308.000902 273.312 
L 309.616593 273.312 
L 309.616593 125.41217 
L 308.000902 125.41217 
z
" style="fill:#1f77b4;"/>
   </g>
   <g id="patch_157">
    <path clip-path="url(#p218f9004f9)" d="M 309.616593 273.312 
L 311.232283 273.312 
L 311.232283 141.925258 
L 309.616593 141.925258 
z
" style="fill:#1f77b4;"/>
   </g>
   <g id="patch_158">
    <path clip-path="url(#p218f9004f9)" d="M 311.232283 273.312 
L 312.847973 273.312 
L 312.847973 116.796646 
L 311.232283 116.796646 
z
" style="fill:#1f77b4;"/>
   </g>
   <g id="patch_159">
    <path clip-path="url(#p218f9004f9)" d="M 312.847973 273.312 
L 314.463664 273.312 
L 314.463664 134.745654 
L 312.847973 134.745654 
z
" style="fill:#1f77b4;"/>
   </g>
   <g id="patch_160">
    <path clip-path="url(#p218f9004f9)" d="M 314.463664 273.312 
L 316.079354 273.312 
L 316.079354 126.848091 
L 314.463664 126.848091 
z
" style="fill:#1f77b4;"/>
   </g>
   <g id="patch_161">
    <path clip-path="url(#p218f9004f9)" d="M 316.079354 273.312 
L 317.695044 273.312 
L 317.695044 151.976703 
L 316.079354 151.976703 
z
" style="fill:#1f77b4;"/>
   </g>
   <g id="patch_162">
    <path clip-path="url(#p218f9004f9)" d="M 317.695044 273.312 
L 319.310735 273.312 
L 319.310735 141.207297 
L 317.695044 141.207297 
z
" style="fill:#1f77b4;"/>
   </g>
   <g id="patch_163">
    <path clip-path="url(#p218f9004f9)" d="M 319.310735 273.312 
L 320.926425 273.312 
L 320.926425 148.386901 
L 319.310735 148.386901 
z
" style="fill:#1f77b4;"/>
   </g>
   <g id="patch_164">
    <path clip-path="url(#p218f9004f9)" d="M 320.926425 273.312 
L 322.542115 273.312 
L 322.542115 132.591773 
L 320.926425 132.591773 
z
" style="fill:#1f77b4;"/>
   </g>
   <g id="patch_165">
    <path clip-path="url(#p218f9004f9)" d="M 322.542115 273.312 
L 324.157806 273.312 
L 324.157806 144.079139 
L 322.542115 144.079139 
z
" style="fill:#1f77b4;"/>
   </g>
   <g id="patch_166">
    <path clip-path="url(#p218f9004f9)" d="M 324.157806 273.312 
L 325.773496 273.312 
L 325.773496 136.181575 
L 324.157806 136.181575 
z
" style="fill:#1f77b4;"/>
   </g>
   <g id="patch_167">
    <path clip-path="url(#p218f9004f9)" d="M 325.773496 273.312 
L 327.389186 273.312 
L 327.389186 146.23302 
L 325.773496 146.23302 
z
" style="fill:#1f77b4;"/>
   </g>
   <g id="patch_168">
    <path clip-path="url(#p218f9004f9)" d="M 327.389186 273.312 
L 329.004877 273.312 
L 329.004877 156.284465 
L 327.389186 156.284465 
z
" style="fill:#1f77b4;"/>
   </g>
   <g id="patch_169">
    <path clip-path="url(#p218f9004f9)" d="M 329.004877 273.312 
L 330.620567 273.312 
L 330.620567 159.874266 
L 329.004877 159.874266 
z
" style="fill:#1f77b4;"/>
   </g>
   <g id="patch_170">
    <path clip-path="url(#p218f9004f9)" d="M 330.620567 273.312 
L 332.236257 273.312 
L 332.236257 151.258742 
L 330.620567 151.258742 
z
" style="fill:#1f77b4;"/>
   </g>
   <g id="patch_171">
    <path clip-path="url(#p218f9004f9)" d="M 332.236257 273.312 
L 333.851948 273.312 
L 333.851948 164.182028 
L 332.236257 164.182028 
z
" style="fill:#1f77b4;"/>
   </g>
   <g id="patch_172">
    <path clip-path="url(#p218f9004f9)" d="M 333.851948 273.312 
L 335.467638 273.312 
L 335.467638 176.387354 
L 333.851948 176.387354 
z
" style="fill:#1f77b4;"/>
   </g>
   <g id="patch_173">
    <path clip-path="url(#p218f9004f9)" d="M 335.467638 273.312 
L 337.083328 273.312 
L 337.083328 175.669394 
L 335.467638 175.669394 
z
" style="fill:#1f77b4;"/>
   </g>
   <g id="patch_174">
    <path clip-path="url(#p218f9004f9)" d="M 337.083328 273.312 
L 338.699019 273.312 
L 338.699019 169.207751 
L 337.083328 169.207751 
z
" style="fill:#1f77b4;"/>
   </g>
   <g id="patch_175">
    <path clip-path="url(#p218f9004f9)" d="M 338.699019 273.312 
L 340.314709 273.312 
L 340.314709 163.464068 
L 338.699019 163.464068 
z
" style="fill:#1f77b4;"/>
   </g>
   <g id="patch_176">
    <path clip-path="url(#p218f9004f9)" d="M 340.314709 273.312 
L 341.930399 273.312 
L 341.930399 177.105314 
L 340.314709 177.105314 
z
" style="fill:#1f77b4;"/>
   </g>
   <g id="patch_177">
    <path clip-path="url(#p218f9004f9)" d="M 341.930399 273.312 
L 343.54609 273.312 
L 343.54609 185.720839 
L 341.930399 185.720839 
z
" style="fill:#1f77b4;"/>
   </g>
   <g id="patch_178">
    <path clip-path="url(#p218f9004f9)" d="M 343.54609 273.312 
L 345.16178 273.312 
L 345.16178 182.848997 
L 343.54609 182.848997 
z
" style="fill:#1f77b4;"/>
   </g>
   <g id="patch_179">
    <path clip-path="url(#p218f9004f9)" d="M 345.16178 273.312 
L 346.77747 273.312 
L 346.77747 193.618402 
L 345.16178 193.618402 
z
" style="fill:#1f77b4;"/>
   </g>
   <g id="patch_180">
    <path clip-path="url(#p218f9004f9)" d="M 346.77747 273.312 
L 348.393161 273.312 
L 348.393161 187.87472 
L 346.77747 187.87472 
z
" style="fill:#1f77b4;"/>
   </g>
   <g id="patch_181">
    <path clip-path="url(#p218f9004f9)" d="M 348.393161 273.312 
L 350.008851 273.312 
L 350.008851 199.362085 
L 348.393161 199.362085 
z
" style="fill:#1f77b4;"/>
   </g>
   <g id="patch_182">
    <path clip-path="url(#p218f9004f9)" d="M 350.008851 273.312 
L 351.624541 273.312 
L 351.624541 196.490244 
L 350.008851 196.490244 
z
" style="fill:#1f77b4;"/>
   </g>
   <g id="patch_183">
    <path clip-path="url(#p218f9004f9)" d="M 351.624541 273.312 
L 353.240232 273.312 
L 353.240232 187.156759 
L 351.624541 187.156759 
z
" style="fill:#1f77b4;"/>
   </g>
   <g id="patch_184">
    <path clip-path="url(#p218f9004f9)" d="M 353.240232 273.312 
L 354.855922 273.312 
L 354.855922 210.84945 
L 353.240232 210.84945 
z
" style="fill:#1f77b4;"/>
   </g>
   <g id="patch_185">
    <path clip-path="url(#p218f9004f9)" d="M 354.855922 273.312 
L 356.471612 273.312 
L 356.471612 213.003331 
L 354.855922 213.003331 
z
" style="fill:#1f77b4;"/>
   </g>
   <g id="patch_186">
    <path clip-path="url(#p218f9004f9)" d="M 356.471612 273.312 
L 358.087303 273.312 
L 358.087303 213.721292 
L 356.471612 213.721292 
z
" style="fill:#1f77b4;"/>
   </g>
   <g id="patch_187">
    <path clip-path="url(#p218f9004f9)" d="M 358.087303 273.312 
L 359.702993 273.312 
L 359.702993 216.593133 
L 358.087303 216.593133 
z
" style="fill:#1f77b4;"/>
   </g>
   <g id="patch_188">
    <path clip-path="url(#p218f9004f9)" d="M 359.702993 273.312 
L 361.318683 273.312 
L 361.318683 225.926618 
L 359.702993 225.926618 
z
" style="fill:#1f77b4;"/>
   </g>
   <g id="patch_189">
    <path clip-path="url(#p218f9004f9)" d="M 361.318683 273.312 
L 362.934374 273.312 
L 362.934374 228.798459 
L 361.318683 228.798459 
z
" style="fill:#1f77b4;"/>
   </g>
   <g id="patch_190">
    <path clip-path="url(#p218f9004f9)" d="M 362.934374 273.312 
L 364.550064 273.312 
L 364.550064 231.6703 
L 362.934374 231.6703 
z
" style="fill:#1f77b4;"/>
   </g>
   <g id="patch_191">
    <path clip-path="url(#p218f9004f9)" d="M 364.550064 273.312 
L 366.165754 273.312 
L 366.165754 232.388261 
L 364.550064 232.388261 
z
" style="fill:#1f77b4;"/>
   </g>
   <g id="patch_192">
    <path clip-path="url(#p218f9004f9)" d="M 366.165754 273.312 
L 367.781445 273.312 
L 367.781445 236.696023 
L 366.165754 236.696023 
z
" style="fill:#1f77b4;"/>
   </g>
   <g id="patch_193">
    <path clip-path="url(#p218f9004f9)" d="M 367.781445 273.312 
L 369.397135 273.312 
L 369.397135 242.439705 
L 367.781445 242.439705 
z
" style="fill:#1f77b4;"/>
   </g>
   <g id="patch_194">
    <path clip-path="url(#p218f9004f9)" d="M 369.397135 273.312 
L 371.012825 273.312 
L 371.012825 242.439705 
L 369.397135 242.439705 
z
" style="fill:#1f77b4;"/>
   </g>
   <g id="patch_195">
    <path clip-path="url(#p218f9004f9)" d="M 371.012825 273.312 
L 372.628516 273.312 
L 372.628516 248.901348 
L 371.012825 248.901348 
z
" style="fill:#1f77b4;"/>
   </g>
   <g id="patch_196">
    <path clip-path="url(#p218f9004f9)" d="M 372.628516 273.312 
L 374.244206 273.312 
L 374.244206 251.77319 
L 372.628516 251.77319 
z
" style="fill:#1f77b4;"/>
   </g>
   <g id="patch_197">
    <path clip-path="url(#p218f9004f9)" d="M 374.244206 273.312 
L 375.859896 273.312 
L 375.859896 258.234833 
L 374.244206 258.234833 
z
" style="fill:#1f77b4;"/>
   </g>
   <g id="patch_198">
    <path clip-path="url(#p218f9004f9)" d="M 375.859896 273.312 
L 377.475587 273.312 
L 377.475587 263.978516 
L 375.859896 263.978516 
z
" style="fill:#1f77b4;"/>
   </g>
   <g id="patch_199">
    <path clip-path="url(#p218f9004f9)" d="M 377.475587 273.312 
L 379.091277 273.312 
L 379.091277 256.798912 
L 377.475587 256.798912 
z
" style="fill:#1f77b4;"/>
   </g>
   <g id="patch_200">
    <path clip-path="url(#p218f9004f9)" d="M 379.091277 273.312 
L 380.706967 273.312 
L 380.706967 263.260555 
L 379.091277 263.260555 
z
" style="fill:#1f77b4;"/>
   </g>
   <g id="patch_201">
    <path clip-path="url(#p218f9004f9)" d="M 380.706967 273.312 
L 382.322658 273.312 
L 382.322658 264.696476 
L 380.706967 264.696476 
z
" style="fill:#1f77b4;"/>
   </g>
   <g id="patch_202">
    <path clip-path="url(#p218f9004f9)" d="M 382.322658 273.312 
L 383.938348 273.312 
L 383.938348 267.568317 
L 382.322658 267.568317 
z
" style="fill:#1f77b4;"/>
   </g>
   <g id="matplotlib.axis_1">
    <g id="xtick_1">
     <g id="line2d_1">
      <defs>
       <path d="M 0 0 
L 0 3.5 
" id="meba3af724a" style="stroke:#000000;stroke-width:0.8;"/>
      </defs>
      <g>
       <use style="stroke:#000000;stroke-width:0.8;" x="60.013977" xlink:href="#meba3af724a" y="273.312"/>
      </g>
     </g>
     <g id="text_1">
      <!-- 0.0 -->
      <g transform="translate(52.062415 287.910437)scale(0.1 -0.1)">
       <defs>
        <path d="M 2034 4250 
Q 1547 4250 1301 3770 
Q 1056 3291 1056 2328 
Q 1056 1369 1301 889 
Q 1547 409 2034 409 
Q 2525 409 2770 889 
Q 3016 1369 3016 2328 
Q 3016 3291 2770 3770 
Q 2525 4250 2034 4250 
z
M 2034 4750 
Q 2819 4750 3233 4129 
Q 3647 3509 3647 2328 
Q 3647 1150 3233 529 
Q 2819 -91 2034 -91 
Q 1250 -91 836 529 
Q 422 1150 422 2328 
Q 422 3509 836 4129 
Q 1250 4750 2034 4750 
z
" id="DejaVuSans-30" transform="scale(0.015625)"/>
        <path d="M 684 794 
L 1344 794 
L 1344 0 
L 684 0 
L 684 794 
z
" id="DejaVuSans-2e" transform="scale(0.015625)"/>
       </defs>
       <use xlink:href="#DejaVuSans-30"/>
       <use x="63.623047" xlink:href="#DejaVuSans-2e"/>
       <use x="95.410156" xlink:href="#DejaVuSans-30"/>
      </g>
     </g>
    </g>
    <g id="xtick_2">
     <g id="line2d_2">
      <g>
       <use style="stroke:#000000;stroke-width:0.8;" x="101.350278" xlink:href="#meba3af724a" y="273.312"/>
      </g>
     </g>
     <g id="text_2">
      <!-- 0.2 -->
      <g transform="translate(93.398715 287.910437)scale(0.1 -0.1)">
       <defs>
        <path d="M 1228 531 
L 3431 531 
L 3431 0 
L 469 0 
L 469 531 
Q 828 903 1448 1529 
Q 2069 2156 2228 2338 
Q 2531 2678 2651 2914 
Q 2772 3150 2772 3378 
Q 2772 3750 2511 3984 
Q 2250 4219 1831 4219 
Q 1534 4219 1204 4116 
Q 875 4013 500 3803 
L 500 4441 
Q 881 4594 1212 4672 
Q 1544 4750 1819 4750 
Q 2544 4750 2975 4387 
Q 3406 4025 3406 3419 
Q 3406 3131 3298 2873 
Q 3191 2616 2906 2266 
Q 2828 2175 2409 1742 
Q 1991 1309 1228 531 
z
" id="DejaVuSans-32" transform="scale(0.015625)"/>
       </defs>
       <use xlink:href="#DejaVuSans-30"/>
       <use x="63.623047" xlink:href="#DejaVuSans-2e"/>
       <use x="95.410156" xlink:href="#DejaVuSans-32"/>
      </g>
     </g>
    </g>
    <g id="xtick_3">
     <g id="line2d_3">
      <g>
       <use style="stroke:#000000;stroke-width:0.8;" x="142.686578" xlink:href="#meba3af724a" y="273.312"/>
      </g>
     </g>
     <g id="text_3">
      <!-- 0.4 -->
      <g transform="translate(134.735016 287.910437)scale(0.1 -0.1)">
       <defs>
        <path d="M 2419 4116 
L 825 1625 
L 2419 1625 
L 2419 4116 
z
M 2253 4666 
L 3047 4666 
L 3047 1625 
L 3713 1625 
L 3713 1100 
L 3047 1100 
L 3047 0 
L 2419 0 
L 2419 1100 
L 313 1100 
L 313 1709 
L 2253 4666 
z
" id="DejaVuSans-34" transform="scale(0.015625)"/>
       </defs>
       <use xlink:href="#DejaVuSans-30"/>
       <use x="63.623047" xlink:href="#DejaVuSans-2e"/>
       <use x="95.410156" xlink:href="#DejaVuSans-34"/>
      </g>
     </g>
    </g>
    <g id="xtick_4">
     <g id="line2d_4">
      <g>
       <use style="stroke:#000000;stroke-width:0.8;" x="184.022879" xlink:href="#meba3af724a" y="273.312"/>
      </g>
     </g>
     <g id="text_4">
      <!-- 0.6 -->
      <g transform="translate(176.071316 287.910437)scale(0.1 -0.1)">
       <defs>
        <path d="M 2113 2584 
Q 1688 2584 1439 2293 
Q 1191 2003 1191 1497 
Q 1191 994 1439 701 
Q 1688 409 2113 409 
Q 2538 409 2786 701 
Q 3034 994 3034 1497 
Q 3034 2003 2786 2293 
Q 2538 2584 2113 2584 
z
M 3366 4563 
L 3366 3988 
Q 3128 4100 2886 4159 
Q 2644 4219 2406 4219 
Q 1781 4219 1451 3797 
Q 1122 3375 1075 2522 
Q 1259 2794 1537 2939 
Q 1816 3084 2150 3084 
Q 2853 3084 3261 2657 
Q 3669 2231 3669 1497 
Q 3669 778 3244 343 
Q 2819 -91 2113 -91 
Q 1303 -91 875 529 
Q 447 1150 447 2328 
Q 447 3434 972 4092 
Q 1497 4750 2381 4750 
Q 2619 4750 2861 4703 
Q 3103 4656 3366 4563 
z
" id="DejaVuSans-36" transform="scale(0.015625)"/>
       </defs>
       <use xlink:href="#DejaVuSans-30"/>
       <use x="63.623047" xlink:href="#DejaVuSans-2e"/>
       <use x="95.410156" xlink:href="#DejaVuSans-36"/>
      </g>
     </g>
    </g>
    <g id="xtick_5">
     <g id="line2d_5">
      <g>
       <use style="stroke:#000000;stroke-width:0.8;" x="225.35918" xlink:href="#meba3af724a" y="273.312"/>
      </g>
     </g>
     <g id="text_5">
      <!-- 0.8 -->
      <g transform="translate(217.407617 287.910437)scale(0.1 -0.1)">
       <defs>
        <path d="M 2034 2216 
Q 1584 2216 1326 1975 
Q 1069 1734 1069 1313 
Q 1069 891 1326 650 
Q 1584 409 2034 409 
Q 2484 409 2743 651 
Q 3003 894 3003 1313 
Q 3003 1734 2745 1975 
Q 2488 2216 2034 2216 
z
M 1403 2484 
Q 997 2584 770 2862 
Q 544 3141 544 3541 
Q 544 4100 942 4425 
Q 1341 4750 2034 4750 
Q 2731 4750 3128 4425 
Q 3525 4100 3525 3541 
Q 3525 3141 3298 2862 
Q 3072 2584 2669 2484 
Q 3125 2378 3379 2068 
Q 3634 1759 3634 1313 
Q 3634 634 3220 271 
Q 2806 -91 2034 -91 
Q 1263 -91 848 271 
Q 434 634 434 1313 
Q 434 1759 690 2068 
Q 947 2378 1403 2484 
z
M 1172 3481 
Q 1172 3119 1398 2916 
Q 1625 2713 2034 2713 
Q 2441 2713 2670 2916 
Q 2900 3119 2900 3481 
Q 2900 3844 2670 4047 
Q 2441 4250 2034 4250 
Q 1625 4250 1398 4047 
Q 1172 3844 1172 3481 
z
" id="DejaVuSans-38" transform="scale(0.015625)"/>
       </defs>
       <use xlink:href="#DejaVuSans-30"/>
       <use x="63.623047" xlink:href="#DejaVuSans-2e"/>
       <use x="95.410156" xlink:href="#DejaVuSans-38"/>
      </g>
     </g>
    </g>
    <g id="xtick_6">
     <g id="line2d_6">
      <g>
       <use style="stroke:#000000;stroke-width:0.8;" x="266.69548" xlink:href="#meba3af724a" y="273.312"/>
      </g>
     </g>
     <g id="text_6">
      <!-- 1.0 -->
      <g transform="translate(258.743918 287.910437)scale(0.1 -0.1)">
       <defs>
        <path d="M 794 531 
L 1825 531 
L 1825 4091 
L 703 3866 
L 703 4441 
L 1819 4666 
L 2450 4666 
L 2450 531 
L 3481 531 
L 3481 0 
L 794 0 
L 794 531 
z
" id="DejaVuSans-31" transform="scale(0.015625)"/>
       </defs>
       <use xlink:href="#DejaVuSans-31"/>
       <use x="63.623047" xlink:href="#DejaVuSans-2e"/>
       <use x="95.410156" xlink:href="#DejaVuSans-30"/>
      </g>
     </g>
    </g>
    <g id="xtick_7">
     <g id="line2d_7">
      <g>
       <use style="stroke:#000000;stroke-width:0.8;" x="308.031781" xlink:href="#meba3af724a" y="273.312"/>
      </g>
     </g>
     <g id="text_7">
      <!-- 1.2 -->
      <g transform="translate(300.080218 287.910437)scale(0.1 -0.1)">
       <use xlink:href="#DejaVuSans-31"/>
       <use x="63.623047" xlink:href="#DejaVuSans-2e"/>
       <use x="95.410156" xlink:href="#DejaVuSans-32"/>
      </g>
     </g>
    </g>
    <g id="xtick_8">
     <g id="line2d_8">
      <g>
       <use style="stroke:#000000;stroke-width:0.8;" x="349.368081" xlink:href="#meba3af724a" y="273.312"/>
      </g>
     </g>
     <g id="text_8">
      <!-- 1.4 -->
      <g transform="translate(341.416519 287.910437)scale(0.1 -0.1)">
       <use xlink:href="#DejaVuSans-31"/>
       <use x="63.623047" xlink:href="#DejaVuSans-2e"/>
       <use x="95.410156" xlink:href="#DejaVuSans-34"/>
      </g>
     </g>
    </g>
    <g id="xtick_9">
     <g id="line2d_9">
      <g>
       <use style="stroke:#000000;stroke-width:0.8;" x="390.704382" xlink:href="#meba3af724a" y="273.312"/>
      </g>
     </g>
     <g id="text_9">
      <!-- 1.6 -->
      <g transform="translate(382.752819 287.910437)scale(0.1 -0.1)">
       <use xlink:href="#DejaVuSans-31"/>
       <use x="63.623047" xlink:href="#DejaVuSans-2e"/>
       <use x="95.410156" xlink:href="#DejaVuSans-36"/>
      </g>
     </g>
    </g>
    <g id="text_10">
     <!-- Angle with normal (rad) -->
     <g transform="translate(163.023281 301.588562)scale(0.1 -0.1)">
      <defs>
       <path d="M 2188 4044 
L 1331 1722 
L 3047 1722 
L 2188 4044 
z
M 1831 4666 
L 2547 4666 
L 4325 0 
L 3669 0 
L 3244 1197 
L 1141 1197 
L 716 0 
L 50 0 
L 1831 4666 
z
" id="DejaVuSans-41" transform="scale(0.015625)"/>
       <path d="M 3513 2113 
L 3513 0 
L 2938 0 
L 2938 2094 
Q 2938 2591 2744 2837 
Q 2550 3084 2163 3084 
Q 1697 3084 1428 2787 
Q 1159 2491 1159 1978 
L 1159 0 
L 581 0 
L 581 3500 
L 1159 3500 
L 1159 2956 
Q 1366 3272 1645 3428 
Q 1925 3584 2291 3584 
Q 2894 3584 3203 3211 
Q 3513 2838 3513 2113 
z
" id="DejaVuSans-6e" transform="scale(0.015625)"/>
       <path d="M 2906 1791 
Q 2906 2416 2648 2759 
Q 2391 3103 1925 3103 
Q 1463 3103 1205 2759 
Q 947 2416 947 1791 
Q 947 1169 1205 825 
Q 1463 481 1925 481 
Q 2391 481 2648 825 
Q 2906 1169 2906 1791 
z
M 3481 434 
Q 3481 -459 3084 -895 
Q 2688 -1331 1869 -1331 
Q 1566 -1331 1297 -1286 
Q 1028 -1241 775 -1147 
L 775 -588 
Q 1028 -725 1275 -790 
Q 1522 -856 1778 -856 
Q 2344 -856 2625 -561 
Q 2906 -266 2906 331 
L 2906 616 
Q 2728 306 2450 153 
Q 2172 0 1784 0 
Q 1141 0 747 490 
Q 353 981 353 1791 
Q 353 2603 747 3093 
Q 1141 3584 1784 3584 
Q 2172 3584 2450 3431 
Q 2728 3278 2906 2969 
L 2906 3500 
L 3481 3500 
L 3481 434 
z
" id="DejaVuSans-67" transform="scale(0.015625)"/>
       <path d="M 603 4863 
L 1178 4863 
L 1178 0 
L 603 0 
L 603 4863 
z
" id="DejaVuSans-6c" transform="scale(0.015625)"/>
       <path d="M 3597 1894 
L 3597 1613 
L 953 1613 
Q 991 1019 1311 708 
Q 1631 397 2203 397 
Q 2534 397 2845 478 
Q 3156 559 3463 722 
L 3463 178 
Q 3153 47 2828 -22 
Q 2503 -91 2169 -91 
Q 1331 -91 842 396 
Q 353 884 353 1716 
Q 353 2575 817 3079 
Q 1281 3584 2069 3584 
Q 2775 3584 3186 3129 
Q 3597 2675 3597 1894 
z
M 3022 2063 
Q 3016 2534 2758 2815 
Q 2500 3097 2075 3097 
Q 1594 3097 1305 2825 
Q 1016 2553 972 2059 
L 3022 2063 
z
" id="DejaVuSans-65" transform="scale(0.015625)"/>
       <path id="DejaVuSans-20" transform="scale(0.015625)"/>
       <path d="M 269 3500 
L 844 3500 
L 1563 769 
L 2278 3500 
L 2956 3500 
L 3675 769 
L 4391 3500 
L 4966 3500 
L 4050 0 
L 3372 0 
L 2619 2869 
L 1863 0 
L 1184 0 
L 269 3500 
z
" id="DejaVuSans-77" transform="scale(0.015625)"/>
       <path d="M 603 3500 
L 1178 3500 
L 1178 0 
L 603 0 
L 603 3500 
z
M 603 4863 
L 1178 4863 
L 1178 4134 
L 603 4134 
L 603 4863 
z
" id="DejaVuSans-69" transform="scale(0.015625)"/>
       <path d="M 1172 4494 
L 1172 3500 
L 2356 3500 
L 2356 3053 
L 1172 3053 
L 1172 1153 
Q 1172 725 1289 603 
Q 1406 481 1766 481 
L 2356 481 
L 2356 0 
L 1766 0 
Q 1100 0 847 248 
Q 594 497 594 1153 
L 594 3053 
L 172 3053 
L 172 3500 
L 594 3500 
L 594 4494 
L 1172 4494 
z
" id="DejaVuSans-74" transform="scale(0.015625)"/>
       <path d="M 3513 2113 
L 3513 0 
L 2938 0 
L 2938 2094 
Q 2938 2591 2744 2837 
Q 2550 3084 2163 3084 
Q 1697 3084 1428 2787 
Q 1159 2491 1159 1978 
L 1159 0 
L 581 0 
L 581 4863 
L 1159 4863 
L 1159 2956 
Q 1366 3272 1645 3428 
Q 1925 3584 2291 3584 
Q 2894 3584 3203 3211 
Q 3513 2838 3513 2113 
z
" id="DejaVuSans-68" transform="scale(0.015625)"/>
       <path d="M 1959 3097 
Q 1497 3097 1228 2736 
Q 959 2375 959 1747 
Q 959 1119 1226 758 
Q 1494 397 1959 397 
Q 2419 397 2687 759 
Q 2956 1122 2956 1747 
Q 2956 2369 2687 2733 
Q 2419 3097 1959 3097 
z
M 1959 3584 
Q 2709 3584 3137 3096 
Q 3566 2609 3566 1747 
Q 3566 888 3137 398 
Q 2709 -91 1959 -91 
Q 1206 -91 779 398 
Q 353 888 353 1747 
Q 353 2609 779 3096 
Q 1206 3584 1959 3584 
z
" id="DejaVuSans-6f" transform="scale(0.015625)"/>
       <path d="M 2631 2963 
Q 2534 3019 2420 3045 
Q 2306 3072 2169 3072 
Q 1681 3072 1420 2755 
Q 1159 2438 1159 1844 
L 1159 0 
L 581 0 
L 581 3500 
L 1159 3500 
L 1159 2956 
Q 1341 3275 1631 3429 
Q 1922 3584 2338 3584 
Q 2397 3584 2469 3576 
Q 2541 3569 2628 3553 
L 2631 2963 
z
" id="DejaVuSans-72" transform="scale(0.015625)"/>
       <path d="M 3328 2828 
Q 3544 3216 3844 3400 
Q 4144 3584 4550 3584 
Q 5097 3584 5394 3201 
Q 5691 2819 5691 2113 
L 5691 0 
L 5113 0 
L 5113 2094 
Q 5113 2597 4934 2840 
Q 4756 3084 4391 3084 
Q 3944 3084 3684 2787 
Q 3425 2491 3425 1978 
L 3425 0 
L 2847 0 
L 2847 2094 
Q 2847 2600 2669 2842 
Q 2491 3084 2119 3084 
Q 1678 3084 1418 2786 
Q 1159 2488 1159 1978 
L 1159 0 
L 581 0 
L 581 3500 
L 1159 3500 
L 1159 2956 
Q 1356 3278 1631 3431 
Q 1906 3584 2284 3584 
Q 2666 3584 2933 3390 
Q 3200 3197 3328 2828 
z
" id="DejaVuSans-6d" transform="scale(0.015625)"/>
       <path d="M 2194 1759 
Q 1497 1759 1228 1600 
Q 959 1441 959 1056 
Q 959 750 1161 570 
Q 1363 391 1709 391 
Q 2188 391 2477 730 
Q 2766 1069 2766 1631 
L 2766 1759 
L 2194 1759 
z
M 3341 1997 
L 3341 0 
L 2766 0 
L 2766 531 
Q 2569 213 2275 61 
Q 1981 -91 1556 -91 
Q 1019 -91 701 211 
Q 384 513 384 1019 
Q 384 1609 779 1909 
Q 1175 2209 1959 2209 
L 2766 2209 
L 2766 2266 
Q 2766 2663 2505 2880 
Q 2244 3097 1772 3097 
Q 1472 3097 1187 3025 
Q 903 2953 641 2809 
L 641 3341 
Q 956 3463 1253 3523 
Q 1550 3584 1831 3584 
Q 2591 3584 2966 3190 
Q 3341 2797 3341 1997 
z
" id="DejaVuSans-61" transform="scale(0.015625)"/>
       <path d="M 1984 4856 
Q 1566 4138 1362 3434 
Q 1159 2731 1159 2009 
Q 1159 1288 1364 580 
Q 1569 -128 1984 -844 
L 1484 -844 
Q 1016 -109 783 600 
Q 550 1309 550 2009 
Q 550 2706 781 3412 
Q 1013 4119 1484 4856 
L 1984 4856 
z
" id="DejaVuSans-28" transform="scale(0.015625)"/>
       <path d="M 2906 2969 
L 2906 4863 
L 3481 4863 
L 3481 0 
L 2906 0 
L 2906 525 
Q 2725 213 2448 61 
Q 2172 -91 1784 -91 
Q 1150 -91 751 415 
Q 353 922 353 1747 
Q 353 2572 751 3078 
Q 1150 3584 1784 3584 
Q 2172 3584 2448 3432 
Q 2725 3281 2906 2969 
z
M 947 1747 
Q 947 1113 1208 752 
Q 1469 391 1925 391 
Q 2381 391 2643 752 
Q 2906 1113 2906 1747 
Q 2906 2381 2643 2742 
Q 2381 3103 1925 3103 
Q 1469 3103 1208 2742 
Q 947 2381 947 1747 
z
" id="DejaVuSans-64" transform="scale(0.015625)"/>
       <path d="M 513 4856 
L 1013 4856 
Q 1481 4119 1714 3412 
Q 1947 2706 1947 2009 
Q 1947 1309 1714 600 
Q 1481 -109 1013 -844 
L 513 -844 
Q 928 -128 1133 580 
Q 1338 1288 1338 2009 
Q 1338 2731 1133 3434 
Q 928 4138 513 4856 
z
" id="DejaVuSans-29" transform="scale(0.015625)"/>
      </defs>
      <use xlink:href="#DejaVuSans-41"/>
      <use x="68.408203" xlink:href="#DejaVuSans-6e"/>
      <use x="131.787109" xlink:href="#DejaVuSans-67"/>
      <use x="195.263672" xlink:href="#DejaVuSans-6c"/>
      <use x="223.046875" xlink:href="#DejaVuSans-65"/>
      <use x="284.570312" xlink:href="#DejaVuSans-20"/>
      <use x="316.357422" xlink:href="#DejaVuSans-77"/>
      <use x="398.144531" xlink:href="#DejaVuSans-69"/>
      <use x="425.927734" xlink:href="#DejaVuSans-74"/>
      <use x="465.136719" xlink:href="#DejaVuSans-68"/>
      <use x="528.515625" xlink:href="#DejaVuSans-20"/>
      <use x="560.302734" xlink:href="#DejaVuSans-6e"/>
      <use x="623.681641" xlink:href="#DejaVuSans-6f"/>
      <use x="684.863281" xlink:href="#DejaVuSans-72"/>
      <use x="724.226562" xlink:href="#DejaVuSans-6d"/>
      <use x="821.638672" xlink:href="#DejaVuSans-61"/>
      <use x="882.917969" xlink:href="#DejaVuSans-6c"/>
      <use x="910.701172" xlink:href="#DejaVuSans-20"/>
      <use x="942.488281" xlink:href="#DejaVuSans-28"/>
      <use x="981.501953" xlink:href="#DejaVuSans-72"/>
      <use x="1022.615234" xlink:href="#DejaVuSans-61"/>
      <use x="1083.894531" xlink:href="#DejaVuSans-64"/>
      <use x="1147.371094" xlink:href="#DejaVuSans-29"/>
     </g>
    </g>
   </g>
   <g id="matplotlib.axis_2">
    <g id="ytick_1">
     <g id="line2d_10">
      <defs>
       <path d="M 0 0 
L -3.5 0 
" id="m21915c2ab1" style="stroke:#000000;stroke-width:0.8;"/>
      </defs>
      <g>
       <use style="stroke:#000000;stroke-width:0.8;" x="43.78125" xlink:href="#m21915c2ab1" y="273.312"/>
      </g>
     </g>
     <g id="text_11">
      <!-- 0.0 -->
      <g transform="translate(20.878125 277.111219)scale(0.1 -0.1)">
       <use xlink:href="#DejaVuSans-30"/>
       <use x="63.623047" xlink:href="#DejaVuSans-2e"/>
       <use x="95.410156" xlink:href="#DejaVuSans-30"/>
      </g>
     </g>
    </g>
    <g id="ytick_2">
     <g id="line2d_11">
      <g>
       <use style="stroke:#000000;stroke-width:0.8;" x="43.78125" xlink:href="#m21915c2ab1" y="228.411936"/>
      </g>
     </g>
     <g id="text_12">
      <!-- 0.2 -->
      <g transform="translate(20.878125 232.211155)scale(0.1 -0.1)">
       <use xlink:href="#DejaVuSans-30"/>
       <use x="63.623047" xlink:href="#DejaVuSans-2e"/>
       <use x="95.410156" xlink:href="#DejaVuSans-32"/>
      </g>
     </g>
    </g>
    <g id="ytick_3">
     <g id="line2d_12">
      <g>
       <use style="stroke:#000000;stroke-width:0.8;" x="43.78125" xlink:href="#m21915c2ab1" y="183.511872"/>
      </g>
     </g>
     <g id="text_13">
      <!-- 0.4 -->
      <g transform="translate(20.878125 187.311091)scale(0.1 -0.1)">
       <use xlink:href="#DejaVuSans-30"/>
       <use x="63.623047" xlink:href="#DejaVuSans-2e"/>
       <use x="95.410156" xlink:href="#DejaVuSans-34"/>
      </g>
     </g>
    </g>
    <g id="ytick_4">
     <g id="line2d_13">
      <g>
       <use style="stroke:#000000;stroke-width:0.8;" x="43.78125" xlink:href="#m21915c2ab1" y="138.611809"/>
      </g>
     </g>
     <g id="text_14">
      <!-- 0.6 -->
      <g transform="translate(20.878125 142.411027)scale(0.1 -0.1)">
       <use xlink:href="#DejaVuSans-30"/>
       <use x="63.623047" xlink:href="#DejaVuSans-2e"/>
       <use x="95.410156" xlink:href="#DejaVuSans-36"/>
      </g>
     </g>
    </g>
    <g id="ytick_5">
     <g id="line2d_14">
      <g>
       <use style="stroke:#000000;stroke-width:0.8;" x="43.78125" xlink:href="#m21915c2ab1" y="93.711745"/>
      </g>
     </g>
     <g id="text_15">
      <!-- 0.8 -->
      <g transform="translate(20.878125 97.510964)scale(0.1 -0.1)">
       <use xlink:href="#DejaVuSans-30"/>
       <use x="63.623047" xlink:href="#DejaVuSans-2e"/>
       <use x="95.410156" xlink:href="#DejaVuSans-38"/>
      </g>
     </g>
    </g>
    <g id="ytick_6">
     <g id="line2d_15">
      <g>
       <use style="stroke:#000000;stroke-width:0.8;" x="43.78125" xlink:href="#m21915c2ab1" y="48.811681"/>
      </g>
     </g>
     <g id="text_16">
      <!-- 1.0 -->
      <g transform="translate(20.878125 52.6109)scale(0.1 -0.1)">
       <use xlink:href="#DejaVuSans-31"/>
       <use x="63.623047" xlink:href="#DejaVuSans-2e"/>
       <use x="95.410156" xlink:href="#DejaVuSans-30"/>
      </g>
     </g>
    </g>
    <g id="text_17">
     <!-- Probability density -->
     <g transform="translate(14.798438 186.606781)rotate(-90)scale(0.1 -0.1)">
      <defs>
       <path d="M 1259 4147 
L 1259 2394 
L 2053 2394 
Q 2494 2394 2734 2622 
Q 2975 2850 2975 3272 
Q 2975 3691 2734 3919 
Q 2494 4147 2053 4147 
L 1259 4147 
z
M 628 4666 
L 2053 4666 
Q 2838 4666 3239 4311 
Q 3641 3956 3641 3272 
Q 3641 2581 3239 2228 
Q 2838 1875 2053 1875 
L 1259 1875 
L 1259 0 
L 628 0 
L 628 4666 
z
" id="DejaVuSans-50" transform="scale(0.015625)"/>
       <path d="M 3116 1747 
Q 3116 2381 2855 2742 
Q 2594 3103 2138 3103 
Q 1681 3103 1420 2742 
Q 1159 2381 1159 1747 
Q 1159 1113 1420 752 
Q 1681 391 2138 391 
Q 2594 391 2855 752 
Q 3116 1113 3116 1747 
z
M 1159 2969 
Q 1341 3281 1617 3432 
Q 1894 3584 2278 3584 
Q 2916 3584 3314 3078 
Q 3713 2572 3713 1747 
Q 3713 922 3314 415 
Q 2916 -91 2278 -91 
Q 1894 -91 1617 61 
Q 1341 213 1159 525 
L 1159 0 
L 581 0 
L 581 4863 
L 1159 4863 
L 1159 2969 
z
" id="DejaVuSans-62" transform="scale(0.015625)"/>
       <path d="M 2059 -325 
Q 1816 -950 1584 -1140 
Q 1353 -1331 966 -1331 
L 506 -1331 
L 506 -850 
L 844 -850 
Q 1081 -850 1212 -737 
Q 1344 -625 1503 -206 
L 1606 56 
L 191 3500 
L 800 3500 
L 1894 763 
L 2988 3500 
L 3597 3500 
L 2059 -325 
z
" id="DejaVuSans-79" transform="scale(0.015625)"/>
       <path d="M 2834 3397 
L 2834 2853 
Q 2591 2978 2328 3040 
Q 2066 3103 1784 3103 
Q 1356 3103 1142 2972 
Q 928 2841 928 2578 
Q 928 2378 1081 2264 
Q 1234 2150 1697 2047 
L 1894 2003 
Q 2506 1872 2764 1633 
Q 3022 1394 3022 966 
Q 3022 478 2636 193 
Q 2250 -91 1575 -91 
Q 1294 -91 989 -36 
Q 684 19 347 128 
L 347 722 
Q 666 556 975 473 
Q 1284 391 1588 391 
Q 1994 391 2212 530 
Q 2431 669 2431 922 
Q 2431 1156 2273 1281 
Q 2116 1406 1581 1522 
L 1381 1569 
Q 847 1681 609 1914 
Q 372 2147 372 2553 
Q 372 3047 722 3315 
Q 1072 3584 1716 3584 
Q 2034 3584 2315 3537 
Q 2597 3491 2834 3397 
z
" id="DejaVuSans-73" transform="scale(0.015625)"/>
      </defs>
      <use xlink:href="#DejaVuSans-50"/>
      <use x="58.552734" xlink:href="#DejaVuSans-72"/>
      <use x="97.416016" xlink:href="#DejaVuSans-6f"/>
      <use x="158.597656" xlink:href="#DejaVuSans-62"/>
      <use x="222.074219" xlink:href="#DejaVuSans-61"/>
      <use x="283.353516" xlink:href="#DejaVuSans-62"/>
      <use x="346.830078" xlink:href="#DejaVuSans-69"/>
      <use x="374.613281" xlink:href="#DejaVuSans-6c"/>
      <use x="402.396484" xlink:href="#DejaVuSans-69"/>
      <use x="430.179688" xlink:href="#DejaVuSans-74"/>
      <use x="469.388672" xlink:href="#DejaVuSans-79"/>
      <use x="528.568359" xlink:href="#DejaVuSans-20"/>
      <use x="560.355469" xlink:href="#DejaVuSans-64"/>
      <use x="623.832031" xlink:href="#DejaVuSans-65"/>
      <use x="685.355469" xlink:href="#DejaVuSans-6e"/>
      <use x="748.734375" xlink:href="#DejaVuSans-73"/>
      <use x="800.833984" xlink:href="#DejaVuSans-69"/>
      <use x="828.617188" xlink:href="#DejaVuSans-74"/>
      <use x="867.826172" xlink:href="#DejaVuSans-79"/>
     </g>
    </g>
   </g>
   <g id="line2d_16">
    <path clip-path="url(#p218f9004f9)" d="M 60.013977 273.312 
L 79.837728 230.509971 
L 90.237073 208.586495 
L 99.01152 190.589156 
L 106.811029 175.087945 
L 113.960578 161.367684 
L 120.460169 149.35782 
L 126.63478 138.401759 
L 132.484411 128.465868 
L 138.009063 119.507485 
L 143.208736 111.47708 
L 148.408408 103.856302 
L 153.283101 97.101017 
L 158.157794 90.737748 
L 162.707507 85.164883 
L 167.257221 79.956649 
L 171.481954 75.455758 
L 175.706688 71.285499 
L 179.606442 67.735525 
L 183.506197 64.478272 
L 187.405951 61.518377 
L 190.980726 59.069969 
L 194.555501 56.8779 
L 198.130275 54.944793 
L 201.70505 53.272962 
L 205.279825 51.864406 
L 208.52962 50.813787 
L 211.779415 49.983187 
L 215.029211 49.373427 
L 218.279006 48.985109 
L 221.528801 48.818619 
L 224.778596 48.874121 
L 228.028392 49.151559 
L 231.278187 49.650659 
L 234.527982 50.370928 
L 237.777777 51.311654 
L 241.027573 52.471906 
L 244.277368 53.850537 
L 247.852143 55.617626 
L 251.426917 57.645184 
L 255.001692 59.930787 
L 258.576467 62.4717 
L 262.476221 65.531203 
L 266.375976 68.886566 
L 270.27573 72.533011 
L 274.500464 76.805771 
L 278.725198 81.406907 
L 282.949931 86.32873 
L 287.499645 91.978348 
L 292.049358 97.979391 
L 296.924051 104.785828 
L 301.798744 111.967185 
L 306.998416 120.022527 
L 312.523068 129.005977 
L 318.3727 138.966724 
L 324.547311 149.947059 
L 331.046901 161.9802 
L 337.871471 175.087945 
L 345.346 189.933248 
L 353.795468 207.235752 
L 363.544854 227.741252 
L 375.894076 254.273043 
L 384.668523 273.312 
L 384.668523 273.312 
" style="fill:none;stroke:#ff7f0e;stroke-linecap:square;stroke-width:1.5;"/>
   </g>
   <g id="patch_203">
    <path d="M 43.78125 273.312 
L 43.78125 7.2 
" style="fill:none;stroke:#000000;stroke-linecap:square;stroke-linejoin:miter;stroke-width:0.8;"/>
   </g>
   <g id="patch_204">
    <path d="M 400.90125 273.312 
L 400.90125 7.2 
" style="fill:none;stroke:#000000;stroke-linecap:square;stroke-linejoin:miter;stroke-width:0.8;"/>
   </g>
   <g id="patch_205">
    <path d="M 43.78125 273.312 
L 400.90125 273.312 
" style="fill:none;stroke:#000000;stroke-linecap:square;stroke-linejoin:miter;stroke-width:0.8;"/>
   </g>
   <g id="patch_206">
    <path d="M 43.78125 7.2 
L 400.90125 7.2 
" style="fill:none;stroke:#000000;stroke-linecap:square;stroke-linejoin:miter;stroke-width:0.8;"/>
   </g>
  </g>
 </g>
 <defs>
  <clipPath id="p218f9004f9">
   <rect height="266.112" width="357.12" x="43.78125" y="7.2"/>
  </clipPath>
 </defs>
</svg>
