<?xml version="1.0" encoding="utf-8" standalone="no"?>
<!DOCTYPE svg PUBLIC "-//W3C//DTD SVG 1.1//EN"
  "http://www.w3.org/Graphics/SVG/1.1/DTD/svg11.dtd">
<svg height="310.86825pt" version="1.1" viewBox="0 0 408.10125 310.86825" width="408.10125pt" xmlns="http://www.w3.org/2000/svg" xmlns:xlink="http://www.w3.org/1999/xlink">
 <metadata>
  <rdf:RDF xmlns:cc="http://creativecommons.org/ns#" xmlns:dc="http://purl.org/dc/elements/1.1/" xmlns:rdf="http://www.w3.org/1999/02/22-rdf-syntax-ns#">
   <cc:Work>
    <dc:type rdf:resource="http://purl.org/dc/dcmitype/StillImage"/>
    <dc:date>2021-07-08T08:50:40.063103</dc:date>
    <dc:format>image/svg+xml</dc:format>
    <dc:creator>
     <cc:Agent>
      <dc:title>Matplotlib v3.4.2, https://matplotlib.org/</dc:title>
     </cc:Agent>
    </dc:creator>
   </cc:Work>
  </rdf:RDF>
 </metadata>
 <defs>
  <style type="text/css">*{stroke-linecap:butt;stroke-linejoin:round;}</style>
 </defs>
 <g id="figure_1">
  <g id="patch_1">
   <path d="M 0 310.86825 
L 408.10125 310.86825 
L 408.10125 0 
L 0 0 
z
" style="fill:#ffffff;"/>
  </g>
  <g id="axes_1">
   <g id="patch_2">
    <path d="M 43.78125 273.312 
L 400.90125 273.312 
L 400.90125 7.2 
L 43.78125 7.2 
z
" style="fill:#ffffff;"/>
   </g>
   <g id="patch_3">
    <path clip-path="url(#pa6e418cdbf)" d="M 60.325674 273.312 
L 61.942679 273.312 
L 61.942679 270.373565 
L 60.325674 270.373565 
z
" style="fill:#1f77b4;"/>
   </g>
   <g id="patch_4">
    <path clip-path="url(#pa6e418cdbf)" d="M 61.942679 273.312 
L 63.559684 273.312 
L 63.559684 266.700522 
L 61.942679 266.700522 
z
" style="fill:#1f77b4;"/>
   </g>
   <g id="patch_5">
    <path clip-path="url(#pa6e418cdbf)" d="M 63.559684 273.312 
L 65.176689 273.312 
L 65.176689 263.027478 
L 63.559684 263.027478 
z
" style="fill:#1f77b4;"/>
   </g>
   <g id="patch_6">
    <path clip-path="url(#pa6e418cdbf)" d="M 65.176689 273.312 
L 66.793694 273.312 
L 66.793694 255.681391 
L 65.176689 255.681391 
z
" style="fill:#1f77b4;"/>
   </g>
   <g id="patch_7">
    <path clip-path="url(#pa6e418cdbf)" d="M 66.793694 273.312 
L 68.410699 273.312 
L 68.410699 259.354435 
L 66.793694 259.354435 
z
" style="fill:#1f77b4;"/>
   </g>
   <g id="patch_8">
    <path clip-path="url(#pa6e418cdbf)" d="M 68.410699 273.312 
L 70.027704 273.312 
L 70.027704 254.212174 
L 68.410699 254.212174 
z
" style="fill:#1f77b4;"/>
   </g>
   <g id="patch_9">
    <path clip-path="url(#pa6e418cdbf)" d="M 70.027704 273.312 
L 71.64471 273.312 
L 71.64471 246.131478 
L 70.027704 246.131478 
z
" style="fill:#1f77b4;"/>
   </g>
   <g id="patch_10">
    <path clip-path="url(#pa6e418cdbf)" d="M 71.64471 273.312 
L 73.261715 273.312 
L 73.261715 238.785391 
L 71.64471 238.785391 
z
" style="fill:#1f77b4;"/>
   </g>
   <g id="patch_11">
    <path clip-path="url(#pa6e418cdbf)" d="M 73.261715 273.312 
L 74.87872 273.312 
L 74.87872 236.581565 
L 73.261715 236.581565 
z
" style="fill:#1f77b4;"/>
   </g>
   <g id="patch_12">
    <path clip-path="url(#pa6e418cdbf)" d="M 74.87872 273.312 
L 76.495725 273.312 
L 76.495725 236.581565 
L 74.87872 236.581565 
z
" style="fill:#1f77b4;"/>
   </g>
   <g id="patch_13">
    <path clip-path="url(#pa6e418cdbf)" d="M 76.495725 273.312 
L 78.11273 273.312 
L 78.11273 232.173913 
L 76.495725 232.173913 
z
" style="fill:#1f77b4;"/>
   </g>
   <g id="patch_14">
    <path clip-path="url(#pa6e418cdbf)" d="M 78.11273 273.312 
L 79.729735 273.312 
L 79.729735 222.624 
L 78.11273 222.624 
z
" style="fill:#1f77b4;"/>
   </g>
   <g id="patch_15">
    <path clip-path="url(#pa6e418cdbf)" d="M 79.729735 273.312 
L 81.34674 273.312 
L 81.34674 223.358609 
L 79.729735 223.358609 
z
" style="fill:#1f77b4;"/>
   </g>
   <g id="patch_16">
    <path clip-path="url(#pa6e418cdbf)" d="M 81.34674 273.312 
L 82.963745 273.312 
L 82.963745 210.135652 
L 81.34674 210.135652 
z
" style="fill:#1f77b4;"/>
   </g>
   <g id="patch_17">
    <path clip-path="url(#pa6e418cdbf)" d="M 82.963745 273.312 
L 84.580751 273.312 
L 84.580751 222.624 
L 82.963745 222.624 
z
" style="fill:#1f77b4;"/>
   </g>
   <g id="patch_18">
    <path clip-path="url(#pa6e418cdbf)" d="M 84.580751 273.312 
L 86.197756 273.312 
L 86.197756 217.481739 
L 84.580751 217.481739 
z
" style="fill:#1f77b4;"/>
   </g>
   <g id="patch_19">
    <path clip-path="url(#pa6e418cdbf)" d="M 86.197756 273.312 
L 87.814761 273.312 
L 87.814761 202.054957 
L 86.197756 202.054957 
z
" style="fill:#1f77b4;"/>
   </g>
   <g id="patch_20">
    <path clip-path="url(#pa6e418cdbf)" d="M 87.814761 273.312 
L 89.431766 273.312 
L 89.431766 203.524174 
L 87.814761 203.524174 
z
" style="fill:#1f77b4;"/>
   </g>
   <g id="patch_21">
    <path clip-path="url(#pa6e418cdbf)" d="M 89.431766 273.312 
L 91.048771 273.312 
L 91.048771 211.60487 
L 89.431766 211.60487 
z
" style="fill:#1f77b4;"/>
   </g>
   <g id="patch_22">
    <path clip-path="url(#pa6e418cdbf)" d="M 91.048771 273.312 
L 92.665776 273.312 
L 92.665776 193.974261 
L 91.048771 193.974261 
z
" style="fill:#1f77b4;"/>
   </g>
   <g id="patch_23">
    <path clip-path="url(#pa6e418cdbf)" d="M 92.665776 273.312 
L 94.282781 273.312 
L 94.282781 203.524174 
L 92.665776 203.524174 
z
" style="fill:#1f77b4;"/>
   </g>
   <g id="patch_24">
    <path clip-path="url(#pa6e418cdbf)" d="M 94.282781 273.312 
L 95.899786 273.312 
L 95.899786 190.301217 
L 94.282781 190.301217 
z
" style="fill:#1f77b4;"/>
   </g>
   <g id="patch_25">
    <path clip-path="url(#pa6e418cdbf)" d="M 95.899786 273.312 
L 97.516792 273.312 
L 97.516792 195.443478 
L 95.899786 195.443478 
z
" style="fill:#1f77b4;"/>
   </g>
   <g id="patch_26">
    <path clip-path="url(#pa6e418cdbf)" d="M 97.516792 273.312 
L 99.133797 273.312 
L 99.133797 193.239652 
L 97.516792 193.239652 
z
" style="fill:#1f77b4;"/>
   </g>
   <g id="patch_27">
    <path clip-path="url(#pa6e418cdbf)" d="M 99.133797 273.312 
L 100.750802 273.312 
L 100.750802 191.770435 
L 99.133797 191.770435 
z
" style="fill:#1f77b4;"/>
   </g>
   <g id="patch_28">
    <path clip-path="url(#pa6e418cdbf)" d="M 100.750802 273.312 
L 102.367807 273.312 
L 102.367807 177.81287 
L 100.750802 177.81287 
z
" style="fill:#1f77b4;"/>
   </g>
   <g id="patch_29">
    <path clip-path="url(#pa6e418cdbf)" d="M 102.367807 273.312 
L 103.984812 273.312 
L 103.984812 172.670609 
L 102.367807 172.670609 
z
" style="fill:#1f77b4;"/>
   </g>
   <g id="patch_30">
    <path clip-path="url(#pa6e418cdbf)" d="M 103.984812 273.312 
L 105.601817 273.312 
L 105.601817 171.936 
L 103.984812 171.936 
z
" style="fill:#1f77b4;"/>
   </g>
   <g id="patch_31">
    <path clip-path="url(#pa6e418cdbf)" d="M 105.601817 273.312 
L 107.218822 273.312 
L 107.218822 178.547478 
L 105.601817 178.547478 
z
" style="fill:#1f77b4;"/>
   </g>
   <g id="patch_32">
    <path clip-path="url(#pa6e418cdbf)" d="M 107.218822 273.312 
L 108.835827 273.312 
L 108.835827 182.95513 
L 107.218822 182.95513 
z
" style="fill:#1f77b4;"/>
   </g>
   <g id="patch_33">
    <path clip-path="url(#pa6e418cdbf)" d="M 108.835827 273.312 
L 110.452832 273.312 
L 110.452832 178.547478 
L 108.835827 178.547478 
z
" style="fill:#1f77b4;"/>
   </g>
   <g id="patch_34">
    <path clip-path="url(#pa6e418cdbf)" d="M 110.452832 273.312 
L 112.069838 273.312 
L 112.069838 180.016696 
L 110.452832 180.016696 
z
" style="fill:#1f77b4;"/>
   </g>
   <g id="patch_35">
    <path clip-path="url(#pa6e418cdbf)" d="M 112.069838 273.312 
L 113.686843 273.312 
L 113.686843 154.305391 
L 112.069838 154.305391 
z
" style="fill:#1f77b4;"/>
   </g>
   <g id="patch_36">
    <path clip-path="url(#pa6e418cdbf)" d="M 113.686843 273.312 
L 115.303848 273.312 
L 115.303848 144.02087 
L 113.686843 144.02087 
z
" style="fill:#1f77b4;"/>
   </g>
   <g id="patch_37">
    <path clip-path="url(#pa6e418cdbf)" d="M 115.303848 273.312 
L 116.920853 273.312 
L 116.920853 151.366957 
L 115.303848 151.366957 
z
" style="fill:#1f77b4;"/>
   </g>
   <g id="patch_38">
    <path clip-path="url(#pa6e418cdbf)" d="M 116.920853 273.312 
L 118.537858 273.312 
L 118.537858 158.713043 
L 116.920853 158.713043 
z
" style="fill:#1f77b4;"/>
   </g>
   <g id="patch_39">
    <path clip-path="url(#pa6e418cdbf)" d="M 118.537858 273.312 
L 120.154863 273.312 
L 120.154863 155.04 
L 118.537858 155.04 
z
" style="fill:#1f77b4;"/>
   </g>
   <g id="patch_40">
    <path clip-path="url(#pa6e418cdbf)" d="M 120.154863 273.312 
L 121.771868 273.312 
L 121.771868 161.651478 
L 120.154863 161.651478 
z
" style="fill:#1f77b4;"/>
   </g>
   <g id="patch_41">
    <path clip-path="url(#pa6e418cdbf)" d="M 121.771868 273.312 
L 123.388873 273.312 
L 123.388873 139.613217 
L 121.771868 139.613217 
z
" style="fill:#1f77b4;"/>
   </g>
   <g id="patch_42">
    <path clip-path="url(#pa6e418cdbf)" d="M 123.388873 273.312 
L 125.005879 273.312 
L 125.005879 125.655652 
L 123.388873 125.655652 
z
" style="fill:#1f77b4;"/>
   </g>
   <g id="patch_43">
    <path clip-path="url(#pa6e418cdbf)" d="M 125.005879 273.312 
L 126.622884 273.312 
L 126.622884 138.878609 
L 125.005879 138.878609 
z
" style="fill:#1f77b4;"/>
   </g>
   <g id="patch_44">
    <path clip-path="url(#pa6e418cdbf)" d="M 126.622884 273.312 
L 128.239889 273.312 
L 128.239889 132.26713 
L 126.622884 132.26713 
z
" style="fill:#1f77b4;"/>
   </g>
   <g id="patch_45">
    <path clip-path="url(#pa6e418cdbf)" d="M 128.239889 273.312 
L 129.856894 273.312 
L 129.856894 135.205565 
L 128.239889 135.205565 
z
" style="fill:#1f77b4;"/>
   </g>
   <g id="patch_46">
    <path clip-path="url(#pa6e418cdbf)" d="M 129.856894 273.312 
L 131.473899 273.312 
L 131.473899 130.797913 
L 129.856894 130.797913 
z
" style="fill:#1f77b4;"/>
   </g>
   <g id="patch_47">
    <path clip-path="url(#pa6e418cdbf)" d="M 131.473899 273.312 
L 133.090904 273.312 
L 133.090904 125.655652 
L 131.473899 125.655652 
z
" style="fill:#1f77b4;"/>
   </g>
   <g id="patch_48">
    <path clip-path="url(#pa6e418cdbf)" d="M 133.090904 273.312 
L 134.707909 273.312 
L 134.707909 131.532522 
L 133.090904 131.532522 
z
" style="fill:#1f77b4;"/>
   </g>
   <g id="patch_49">
    <path clip-path="url(#pa6e418cdbf)" d="M 134.707909 273.312 
L 136.324914 273.312 
L 136.324914 128.594087 
L 134.707909 128.594087 
z
" style="fill:#1f77b4;"/>
   </g>
   <g id="patch_50">
    <path clip-path="url(#pa6e418cdbf)" d="M 136.324914 273.312 
L 137.94192 273.312 
L 137.94192 131.532522 
L 136.324914 131.532522 
z
" style="fill:#1f77b4;"/>
   </g>
   <g id="patch_51">
    <path clip-path="url(#pa6e418cdbf)" d="M 137.94192 273.312 
L 139.558925 273.312 
L 139.558925 116.840348 
L 137.94192 116.840348 
z
" style="fill:#1f77b4;"/>
   </g>
   <g id="patch_52">
    <path clip-path="url(#pa6e418cdbf)" d="M 139.558925 273.312 
L 141.17593 273.312 
L 141.17593 128.594087 
L 139.558925 128.594087 
z
" style="fill:#1f77b4;"/>
   </g>
   <g id="patch_53">
    <path clip-path="url(#pa6e418cdbf)" d="M 141.17593 273.312 
L 142.792935 273.312 
L 142.792935 95.536696 
L 141.17593 95.536696 
z
" style="fill:#1f77b4;"/>
   </g>
   <g id="patch_54">
    <path clip-path="url(#pa6e418cdbf)" d="M 142.792935 273.312 
L 144.40994 273.312 
L 144.40994 95.536696 
L 142.792935 95.536696 
z
" style="fill:#1f77b4;"/>
   </g>
   <g id="patch_55">
    <path clip-path="url(#pa6e418cdbf)" d="M 144.40994 273.312 
L 146.026945 273.312 
L 146.026945 94.067478 
L 144.40994 94.067478 
z
" style="fill:#1f77b4;"/>
   </g>
   <g id="patch_56">
    <path clip-path="url(#pa6e418cdbf)" d="M 146.026945 273.312 
L 147.64395 273.312 
L 147.64395 90.394435 
L 146.026945 90.394435 
z
" style="fill:#1f77b4;"/>
   </g>
   <g id="patch_57">
    <path clip-path="url(#pa6e418cdbf)" d="M 147.64395 273.312 
L 149.260955 273.312 
L 149.260955 116.840348 
L 147.64395 116.840348 
z
" style="fill:#1f77b4;"/>
   </g>
   <g id="patch_58">
    <path clip-path="url(#pa6e418cdbf)" d="M 149.260955 273.312 
L 150.877961 273.312 
L 150.877961 103.617391 
L 149.260955 103.617391 
z
" style="fill:#1f77b4;"/>
   </g>
   <g id="patch_59">
    <path clip-path="url(#pa6e418cdbf)" d="M 150.877961 273.312 
L 152.494966 273.312 
L 152.494966 99.944348 
L 150.877961 99.944348 
z
" style="fill:#1f77b4;"/>
   </g>
   <g id="patch_60">
    <path clip-path="url(#pa6e418cdbf)" d="M 152.494966 273.312 
L 154.111971 273.312 
L 154.111971 121.982609 
L 152.494966 121.982609 
z
" style="fill:#1f77b4;"/>
   </g>
   <g id="patch_61">
    <path clip-path="url(#pa6e418cdbf)" d="M 154.111971 273.312 
L 155.728976 273.312 
L 155.728976 77.171478 
L 154.111971 77.171478 
z
" style="fill:#1f77b4;"/>
   </g>
   <g id="patch_62">
    <path clip-path="url(#pa6e418cdbf)" d="M 155.728976 273.312 
L 157.345981 273.312 
L 157.345981 79.375304 
L 155.728976 79.375304 
z
" style="fill:#1f77b4;"/>
   </g>
   <g id="patch_63">
    <path clip-path="url(#pa6e418cdbf)" d="M 157.345981 273.312 
L 158.962986 273.312 
L 158.962986 100.678957 
L 157.345981 100.678957 
z
" style="fill:#1f77b4;"/>
   </g>
   <g id="patch_64">
    <path clip-path="url(#pa6e418cdbf)" d="M 158.962986 273.312 
L 160.579991 273.312 
L 160.579991 49.990957 
L 158.962986 49.990957 
z
" style="fill:#1f77b4;"/>
   </g>
   <g id="patch_65">
    <path clip-path="url(#pa6e418cdbf)" d="M 160.579991 273.312 
L 162.196996 273.312 
L 162.196996 95.536696 
L 160.579991 95.536696 
z
" style="fill:#1f77b4;"/>
   </g>
   <g id="patch_66">
    <path clip-path="url(#pa6e418cdbf)" d="M 162.196996 273.312 
L 163.814001 273.312 
L 163.814001 83.782957 
L 162.196996 83.782957 
z
" style="fill:#1f77b4;"/>
   </g>
   <g id="patch_67">
    <path clip-path="url(#pa6e418cdbf)" d="M 163.814001 273.312 
L 165.431007 273.312 
L 165.431007 67.621565 
L 163.814001 67.621565 
z
" style="fill:#1f77b4;"/>
   </g>
   <g id="patch_68">
    <path clip-path="url(#pa6e418cdbf)" d="M 165.431007 273.312 
L 167.048012 273.312 
L 167.048012 75.702261 
L 165.431007 75.702261 
z
" style="fill:#1f77b4;"/>
   </g>
   <g id="patch_69">
    <path clip-path="url(#pa6e418cdbf)" d="M 167.048012 273.312 
L 168.665017 273.312 
L 168.665017 44.114087 
L 167.048012 44.114087 
z
" style="fill:#1f77b4;"/>
   </g>
   <g id="patch_70">
    <path clip-path="url(#pa6e418cdbf)" d="M 168.665017 273.312 
L 170.282022 273.312 
L 170.282022 80.109913 
L 168.665017 80.109913 
z
" style="fill:#1f77b4;"/>
   </g>
   <g id="patch_71">
    <path clip-path="url(#pa6e418cdbf)" d="M 170.282022 273.312 
L 171.899027 273.312 
L 171.899027 77.906087 
L 170.282022 77.906087 
z
" style="fill:#1f77b4;"/>
   </g>
   <g id="patch_72">
    <path clip-path="url(#pa6e418cdbf)" d="M 171.899027 273.312 
L 173.516032 273.312 
L 173.516032 53.664 
L 171.899027 53.664 
z
" style="fill:#1f77b4;"/>
   </g>
   <g id="patch_73">
    <path clip-path="url(#pa6e418cdbf)" d="M 173.516032 273.312 
L 175.133037 273.312 
L 175.133037 78.640696 
L 173.516032 78.640696 
z
" style="fill:#1f77b4;"/>
   </g>
   <g id="patch_74">
    <path clip-path="url(#pa6e418cdbf)" d="M 175.133037 273.312 
L 176.750042 273.312 
L 176.750042 75.702261 
L 175.133037 75.702261 
z
" style="fill:#1f77b4;"/>
   </g>
   <g id="patch_75">
    <path clip-path="url(#pa6e418cdbf)" d="M 176.750042 273.312 
L 178.367048 273.312 
L 178.367048 57.337043 
L 176.750042 57.337043 
z
" style="fill:#1f77b4;"/>
   </g>
   <g id="patch_76">
    <path clip-path="url(#pa6e418cdbf)" d="M 178.367048 273.312 
L 179.984053 273.312 
L 179.984053 68.356174 
L 178.367048 68.356174 
z
" style="fill:#1f77b4;"/>
   </g>
   <g id="patch_77">
    <path clip-path="url(#pa6e418cdbf)" d="M 179.984053 273.312 
L 181.601058 273.312 
L 181.601058 41.175652 
L 179.984053 41.175652 
z
" style="fill:#1f77b4;"/>
   </g>
   <g id="patch_78">
    <path clip-path="url(#pa6e418cdbf)" d="M 181.601058 273.312 
L 183.218063 273.312 
L 183.218063 52.929391 
L 181.601058 52.929391 
z
" style="fill:#1f77b4;"/>
   </g>
   <g id="patch_79">
    <path clip-path="url(#pa6e418cdbf)" d="M 183.218063 273.312 
L 184.835068 273.312 
L 184.835068 72.763826 
L 183.218063 72.763826 
z
" style="fill:#1f77b4;"/>
   </g>
   <g id="patch_80">
    <path clip-path="url(#pa6e418cdbf)" d="M 184.835068 273.312 
L 186.452073 273.312 
L 186.452073 64.68313 
L 184.835068 64.68313 
z
" style="fill:#1f77b4;"/>
   </g>
   <g id="patch_81">
    <path clip-path="url(#pa6e418cdbf)" d="M 186.452073 273.312 
L 188.069078 273.312 
L 188.069078 52.929391 
L 186.452073 52.929391 
z
" style="fill:#1f77b4;"/>
   </g>
   <g id="patch_82">
    <path clip-path="url(#pa6e418cdbf)" d="M 188.069078 273.312 
L 189.686083 273.312 
L 189.686083 70.56 
L 188.069078 70.56 
z
" style="fill:#1f77b4;"/>
   </g>
   <g id="patch_83">
    <path clip-path="url(#pa6e418cdbf)" d="M 189.686083 273.312 
L 191.303089 273.312 
L 191.303089 52.194783 
L 189.686083 52.194783 
z
" style="fill:#1f77b4;"/>
   </g>
   <g id="patch_84">
    <path clip-path="url(#pa6e418cdbf)" d="M 191.303089 273.312 
L 192.920094 273.312 
L 192.920094 47.052522 
L 191.303089 47.052522 
z
" style="fill:#1f77b4;"/>
   </g>
   <g id="patch_85">
    <path clip-path="url(#pa6e418cdbf)" d="M 192.920094 273.312 
L 194.537099 273.312 
L 194.537099 36.768 
L 192.920094 36.768 
z
" style="fill:#1f77b4;"/>
   </g>
   <g id="patch_86">
    <path clip-path="url(#pa6e418cdbf)" d="M 194.537099 273.312 
L 196.154104 273.312 
L 196.154104 19.872 
L 194.537099 19.872 
z
" style="fill:#1f77b4;"/>
   </g>
   <g id="patch_87">
    <path clip-path="url(#pa6e418cdbf)" d="M 196.154104 273.312 
L 197.771109 273.312 
L 197.771109 66.886957 
L 196.154104 66.886957 
z
" style="fill:#1f77b4;"/>
   </g>
   <g id="patch_88">
    <path clip-path="url(#pa6e418cdbf)" d="M 197.771109 273.312 
L 199.388114 273.312 
L 199.388114 22.075826 
L 197.771109 22.075826 
z
" style="fill:#1f77b4;"/>
   </g>
   <g id="patch_89">
    <path clip-path="url(#pa6e418cdbf)" d="M 199.388114 273.312 
L 201.005119 273.312 
L 201.005119 41.910261 
L 199.388114 41.910261 
z
" style="fill:#1f77b4;"/>
   </g>
   <g id="patch_90">
    <path clip-path="url(#pa6e418cdbf)" d="M 201.005119 273.312 
L 202.622124 273.312 
L 202.622124 41.175652 
L 201.005119 41.175652 
z
" style="fill:#1f77b4;"/>
   </g>
   <g id="patch_91">
    <path clip-path="url(#pa6e418cdbf)" d="M 202.622124 273.312 
L 204.23913 273.312 
L 204.23913 38.237217 
L 202.622124 38.237217 
z
" style="fill:#1f77b4;"/>
   </g>
   <g id="patch_92">
    <path clip-path="url(#pa6e418cdbf)" d="M 204.23913 273.312 
L 205.856135 273.312 
L 205.856135 70.56 
L 204.23913 70.56 
z
" style="fill:#1f77b4;"/>
   </g>
   <g id="patch_93">
    <path clip-path="url(#pa6e418cdbf)" d="M 205.856135 273.312 
L 207.47314 273.312 
L 207.47314 71.294609 
L 205.856135 71.294609 
z
" style="fill:#1f77b4;"/>
   </g>
   <g id="patch_94">
    <path clip-path="url(#pa6e418cdbf)" d="M 207.47314 273.312 
L 209.090145 273.312 
L 209.090145 61.744696 
L 207.47314 61.744696 
z
" style="fill:#1f77b4;"/>
   </g>
   <g id="patch_95">
    <path clip-path="url(#pa6e418cdbf)" d="M 209.090145 273.312 
L 210.70715 273.312 
L 210.70715 41.910261 
L 209.090145 41.910261 
z
" style="fill:#1f77b4;"/>
   </g>
   <g id="patch_96">
    <path clip-path="url(#pa6e418cdbf)" d="M 210.70715 273.312 
L 212.324155 273.312 
L 212.324155 55.867826 
L 210.70715 55.867826 
z
" style="fill:#1f77b4;"/>
   </g>
   <g id="patch_97">
    <path clip-path="url(#pa6e418cdbf)" d="M 212.324155 273.312 
L 213.94116 273.312 
L 213.94116 33.094957 
L 212.324155 33.094957 
z
" style="fill:#1f77b4;"/>
   </g>
   <g id="patch_98">
    <path clip-path="url(#pa6e418cdbf)" d="M 213.94116 273.312 
L 215.558165 273.312 
L 215.558165 74.233043 
L 213.94116 74.233043 
z
" style="fill:#1f77b4;"/>
   </g>
   <g id="patch_99">
    <path clip-path="url(#pa6e418cdbf)" d="M 215.558165 273.312 
L 217.17517 273.312 
L 217.17517 41.910261 
L 215.558165 41.910261 
z
" style="fill:#1f77b4;"/>
   </g>
   <g id="patch_100">
    <path clip-path="url(#pa6e418cdbf)" d="M 217.17517 273.312 
L 218.792176 273.312 
L 218.792176 30.156522 
L 217.17517 30.156522 
z
" style="fill:#1f77b4;"/>
   </g>
   <g id="patch_101">
    <path clip-path="url(#pa6e418cdbf)" d="M 218.792176 273.312 
L 220.409181 273.312 
L 220.409181 48.521739 
L 218.792176 48.521739 
z
" style="fill:#1f77b4;"/>
   </g>
   <g id="patch_102">
    <path clip-path="url(#pa6e418cdbf)" d="M 220.409181 273.312 
L 222.026186 273.312 
L 222.026186 30.89113 
L 220.409181 30.89113 
z
" style="fill:#1f77b4;"/>
   </g>
   <g id="patch_103">
    <path clip-path="url(#pa6e418cdbf)" d="M 222.026186 273.312 
L 223.643191 273.312 
L 223.643191 49.990957 
L 222.026186 49.990957 
z
" style="fill:#1f77b4;"/>
   </g>
   <g id="patch_104">
    <path clip-path="url(#pa6e418cdbf)" d="M 223.643191 273.312 
L 225.260196 273.312 
L 225.260196 46.317913 
L 223.643191 46.317913 
z
" style="fill:#1f77b4;"/>
   </g>
   <g id="patch_105">
    <path clip-path="url(#pa6e418cdbf)" d="M 225.260196 273.312 
L 226.877201 273.312 
L 226.877201 41.175652 
L 225.260196 41.175652 
z
" style="fill:#1f77b4;"/>
   </g>
   <g id="patch_106">
    <path clip-path="url(#pa6e418cdbf)" d="M 226.877201 273.312 
L 228.494206 273.312 
L 228.494206 36.033391 
L 226.877201 36.033391 
z
" style="fill:#1f77b4;"/>
   </g>
   <g id="patch_107">
    <path clip-path="url(#pa6e418cdbf)" d="M 228.494206 273.312 
L 230.111211 273.312 
L 230.111211 23.545043 
L 228.494206 23.545043 
z
" style="fill:#1f77b4;"/>
   </g>
   <g id="patch_108">
    <path clip-path="url(#pa6e418cdbf)" d="M 230.111211 273.312 
L 231.728217 273.312 
L 231.728217 40.441043 
L 230.111211 40.441043 
z
" style="fill:#1f77b4;"/>
   </g>
   <g id="patch_109">
    <path clip-path="url(#pa6e418cdbf)" d="M 231.728217 273.312 
L 233.345222 273.312 
L 233.345222 30.89113 
L 231.728217 30.89113 
z
" style="fill:#1f77b4;"/>
   </g>
   <g id="patch_110">
    <path clip-path="url(#pa6e418cdbf)" d="M 233.345222 273.312 
L 234.962227 273.312 
L 234.962227 19.872 
L 233.345222 19.872 
z
" style="fill:#1f77b4;"/>
   </g>
   <g id="patch_111">
    <path clip-path="url(#pa6e418cdbf)" d="M 234.962227 273.312 
L 236.579232 273.312 
L 236.579232 47.78713 
L 234.962227 47.78713 
z
" style="fill:#1f77b4;"/>
   </g>
   <g id="patch_112">
    <path clip-path="url(#pa6e418cdbf)" d="M 236.579232 273.312 
L 238.196237 273.312 
L 238.196237 38.971826 
L 236.579232 38.971826 
z
" style="fill:#1f77b4;"/>
   </g>
   <g id="patch_113">
    <path clip-path="url(#pa6e418cdbf)" d="M 238.196237 273.312 
L 239.813242 273.312 
L 239.813242 56.602435 
L 238.196237 56.602435 
z
" style="fill:#1f77b4;"/>
   </g>
   <g id="patch_114">
    <path clip-path="url(#pa6e418cdbf)" d="M 239.813242 273.312 
L 241.430247 273.312 
L 241.430247 72.763826 
L 239.813242 72.763826 
z
" style="fill:#1f77b4;"/>
   </g>
   <g id="patch_115">
    <path clip-path="url(#pa6e418cdbf)" d="M 241.430247 273.312 
L 243.047252 273.312 
L 243.047252 63.948522 
L 241.430247 63.948522 
z
" style="fill:#1f77b4;"/>
   </g>
   <g id="patch_116">
    <path clip-path="url(#pa6e418cdbf)" d="M 243.047252 273.312 
L 244.664258 273.312 
L 244.664258 52.929391 
L 243.047252 52.929391 
z
" style="fill:#1f77b4;"/>
   </g>
   <g id="patch_117">
    <path clip-path="url(#pa6e418cdbf)" d="M 244.664258 273.312 
L 246.281263 273.312 
L 246.281263 35.298783 
L 244.664258 35.298783 
z
" style="fill:#1f77b4;"/>
   </g>
   <g id="patch_118">
    <path clip-path="url(#pa6e418cdbf)" d="M 246.281263 273.312 
L 247.898268 273.312 
L 247.898268 44.848696 
L 246.281263 44.848696 
z
" style="fill:#1f77b4;"/>
   </g>
   <g id="patch_119">
    <path clip-path="url(#pa6e418cdbf)" d="M 247.898268 273.312 
L 249.515273 273.312 
L 249.515273 53.664 
L 247.898268 53.664 
z
" style="fill:#1f77b4;"/>
   </g>
   <g id="patch_120">
    <path clip-path="url(#pa6e418cdbf)" d="M 249.515273 273.312 
L 251.132278 273.312 
L 251.132278 41.175652 
L 249.515273 41.175652 
z
" style="fill:#1f77b4;"/>
   </g>
   <g id="patch_121">
    <path clip-path="url(#pa6e418cdbf)" d="M 251.132278 273.312 
L 252.749283 273.312 
L 252.749283 72.029217 
L 251.132278 72.029217 
z
" style="fill:#1f77b4;"/>
   </g>
   <g id="patch_122">
    <path clip-path="url(#pa6e418cdbf)" d="M 252.749283 273.312 
L 254.366288 273.312 
L 254.366288 47.052522 
L 252.749283 47.052522 
z
" style="fill:#1f77b4;"/>
   </g>
   <g id="patch_123">
    <path clip-path="url(#pa6e418cdbf)" d="M 254.366288 273.312 
L 255.983293 273.312 
L 255.983293 72.763826 
L 254.366288 72.763826 
z
" style="fill:#1f77b4;"/>
   </g>
   <g id="patch_124">
    <path clip-path="url(#pa6e418cdbf)" d="M 255.983293 273.312 
L 257.600299 273.312 
L 257.600299 54.398609 
L 255.983293 54.398609 
z
" style="fill:#1f77b4;"/>
   </g>
   <g id="patch_125">
    <path clip-path="url(#pa6e418cdbf)" d="M 257.600299 273.312 
L 259.217304 273.312 
L 259.217304 66.886957 
L 257.600299 66.886957 
z
" style="fill:#1f77b4;"/>
   </g>
   <g id="patch_126">
    <path clip-path="url(#pa6e418cdbf)" d="M 259.217304 273.312 
L 260.834309 273.312 
L 260.834309 73.498435 
L 259.217304 73.498435 
z
" style="fill:#1f77b4;"/>
   </g>
   <g id="patch_127">
    <path clip-path="url(#pa6e418cdbf)" d="M 260.834309 273.312 
L 262.451314 273.312 
L 262.451314 71.294609 
L 260.834309 71.294609 
z
" style="fill:#1f77b4;"/>
   </g>
   <g id="patch_128">
    <path clip-path="url(#pa6e418cdbf)" d="M 262.451314 273.312 
L 264.068319 273.312 
L 264.068319 62.479304 
L 262.451314 62.479304 
z
" style="fill:#1f77b4;"/>
   </g>
   <g id="patch_129">
    <path clip-path="url(#pa6e418cdbf)" d="M 264.068319 273.312 
L 265.685324 273.312 
L 265.685324 74.967652 
L 264.068319 74.967652 
z
" style="fill:#1f77b4;"/>
   </g>
   <g id="patch_130">
    <path clip-path="url(#pa6e418cdbf)" d="M 265.685324 273.312 
L 267.302329 273.312 
L 267.302329 49.990957 
L 265.685324 49.990957 
z
" style="fill:#1f77b4;"/>
   </g>
   <g id="patch_131">
    <path clip-path="url(#pa6e418cdbf)" d="M 267.302329 273.312 
L 268.919334 273.312 
L 268.919334 58.806261 
L 267.302329 58.806261 
z
" style="fill:#1f77b4;"/>
   </g>
   <g id="patch_132">
    <path clip-path="url(#pa6e418cdbf)" d="M 268.919334 273.312 
L 270.536339 273.312 
L 270.536339 88.190609 
L 268.919334 88.190609 
z
" style="fill:#1f77b4;"/>
   </g>
   <g id="patch_133">
    <path clip-path="url(#pa6e418cdbf)" d="M 270.536339 273.312 
L 272.153345 273.312 
L 272.153345 78.640696 
L 270.536339 78.640696 
z
" style="fill:#1f77b4;"/>
   </g>
   <g id="patch_134">
    <path clip-path="url(#pa6e418cdbf)" d="M 272.153345 273.312 
L 273.77035 273.312 
L 273.77035 63.948522 
L 272.153345 63.948522 
z
" style="fill:#1f77b4;"/>
   </g>
   <g id="patch_135">
    <path clip-path="url(#pa6e418cdbf)" d="M 273.77035 273.312 
L 275.387355 273.312 
L 275.387355 80.109913 
L 273.77035 80.109913 
z
" style="fill:#1f77b4;"/>
   </g>
   <g id="patch_136">
    <path clip-path="url(#pa6e418cdbf)" d="M 275.387355 273.312 
L 277.00436 273.312 
L 277.00436 48.521739 
L 275.387355 48.521739 
z
" style="fill:#1f77b4;"/>
   </g>
   <g id="patch_137">
    <path clip-path="url(#pa6e418cdbf)" d="M 277.00436 273.312 
L 278.621365 273.312 
L 278.621365 75.702261 
L 277.00436 75.702261 
z
" style="fill:#1f77b4;"/>
   </g>
   <g id="patch_138">
    <path clip-path="url(#pa6e418cdbf)" d="M 278.621365 273.312 
L 280.23837 273.312 
L 280.23837 77.171478 
L 278.621365 77.171478 
z
" style="fill:#1f77b4;"/>
   </g>
   <g id="patch_139">
    <path clip-path="url(#pa6e418cdbf)" d="M 280.23837 273.312 
L 281.855375 273.312 
L 281.855375 77.906087 
L 280.23837 77.906087 
z
" style="fill:#1f77b4;"/>
   </g>
   <g id="patch_140">
    <path clip-path="url(#pa6e418cdbf)" d="M 281.855375 273.312 
L 283.47238 273.312 
L 283.47238 88.925217 
L 281.855375 88.925217 
z
" style="fill:#1f77b4;"/>
   </g>
   <g id="patch_141">
    <path clip-path="url(#pa6e418cdbf)" d="M 283.47238 273.312 
L 285.089386 273.312 
L 285.089386 71.294609 
L 283.47238 71.294609 
z
" style="fill:#1f77b4;"/>
   </g>
   <g id="patch_142">
    <path clip-path="url(#pa6e418cdbf)" d="M 285.089386 273.312 
L 286.706391 273.312 
L 286.706391 83.782957 
L 285.089386 83.782957 
z
" style="fill:#1f77b4;"/>
   </g>
   <g id="patch_143">
    <path clip-path="url(#pa6e418cdbf)" d="M 286.706391 273.312 
L 288.323396 273.312 
L 288.323396 84.517565 
L 286.706391 84.517565 
z
" style="fill:#1f77b4;"/>
   </g>
   <g id="patch_144">
    <path clip-path="url(#pa6e418cdbf)" d="M 288.323396 273.312 
L 289.940401 273.312 
L 289.940401 96.271304 
L 288.323396 96.271304 
z
" style="fill:#1f77b4;"/>
   </g>
   <g id="patch_145">
    <path clip-path="url(#pa6e418cdbf)" d="M 289.940401 273.312 
L 291.557406 273.312 
L 291.557406 98.47513 
L 289.940401 98.47513 
z
" style="fill:#1f77b4;"/>
   </g>
   <g id="patch_146">
    <path clip-path="url(#pa6e418cdbf)" d="M 291.557406 273.312 
L 293.174411 273.312 
L 293.174411 88.925217 
L 291.557406 88.925217 
z
" style="fill:#1f77b4;"/>
   </g>
   <g id="patch_147">
    <path clip-path="url(#pa6e418cdbf)" d="M 293.174411 273.312 
L 294.791416 273.312 
L 294.791416 116.840348 
L 293.174411 116.840348 
z
" style="fill:#1f77b4;"/>
   </g>
   <g id="patch_148">
    <path clip-path="url(#pa6e418cdbf)" d="M 294.791416 273.312 
L 296.408421 273.312 
L 296.408421 113.901913 
L 294.791416 113.901913 
z
" style="fill:#1f77b4;"/>
   </g>
   <g id="patch_149">
    <path clip-path="url(#pa6e418cdbf)" d="M 296.408421 273.312 
L 298.025427 273.312 
L 298.025427 93.33287 
L 296.408421 93.33287 
z
" style="fill:#1f77b4;"/>
   </g>
   <g id="patch_150">
    <path clip-path="url(#pa6e418cdbf)" d="M 298.025427 273.312 
L 299.642432 273.312 
L 299.642432 83.782957 
L 298.025427 83.782957 
z
" style="fill:#1f77b4;"/>
   </g>
   <g id="patch_151">
    <path clip-path="url(#pa6e418cdbf)" d="M 299.642432 273.312 
L 301.259437 273.312 
L 301.259437 110.963478 
L 299.642432 110.963478 
z
" style="fill:#1f77b4;"/>
   </g>
   <g id="patch_152">
    <path clip-path="url(#pa6e418cdbf)" d="M 301.259437 273.312 
L 302.876442 273.312 
L 302.876442 108.025043 
L 301.259437 108.025043 
z
" style="fill:#1f77b4;"/>
   </g>
   <g id="patch_153">
    <path clip-path="url(#pa6e418cdbf)" d="M 302.876442 273.312 
L 304.493447 273.312 
L 304.493447 122.717217 
L 302.876442 122.717217 
z
" style="fill:#1f77b4;"/>
   </g>
   <g id="patch_154">
    <path clip-path="url(#pa6e418cdbf)" d="M 304.493447 273.312 
L 306.110452 273.312 
L 306.110452 116.105739 
L 304.493447 116.105739 
z
" style="fill:#1f77b4;"/>
   </g>
   <g id="patch_155">
    <path clip-path="url(#pa6e418cdbf)" d="M 306.110452 273.312 
L 307.727457 273.312 
L 307.727457 119.778783 
L 306.110452 119.778783 
z
" style="fill:#1f77b4;"/>
   </g>
   <g id="patch_156">
    <path clip-path="url(#pa6e418cdbf)" d="M 307.727457 273.312 
L 309.344462 273.312 
L 309.344462 119.044174 
L 307.727457 119.044174 
z
" style="fill:#1f77b4;"/>
   </g>
   <g id="patch_157">
    <path clip-path="url(#pa6e418cdbf)" d="M 309.344462 273.312 
L 310.961468 273.312 
L 310.961468 127.859478 
L 309.344462 127.859478 
z
" style="fill:#1f77b4;"/>
   </g>
   <g id="patch_158">
    <path clip-path="url(#pa6e418cdbf)" d="M 310.961468 273.312 
L 312.578473 273.312 
L 312.578473 99.944348 
L 310.961468 99.944348 
z
" style="fill:#1f77b4;"/>
   </g>
   <g id="patch_159">
    <path clip-path="url(#pa6e418cdbf)" d="M 312.578473 273.312 
L 314.195478 273.312 
L 314.195478 141.082435 
L 312.578473 141.082435 
z
" style="fill:#1f77b4;"/>
   </g>
   <g id="patch_160">
    <path clip-path="url(#pa6e418cdbf)" d="M 314.195478 273.312 
L 315.812483 273.312 
L 315.812483 126.390261 
L 314.195478 126.390261 
z
" style="fill:#1f77b4;"/>
   </g>
   <g id="patch_161">
    <path clip-path="url(#pa6e418cdbf)" d="M 315.812483 273.312 
L 317.429488 273.312 
L 317.429488 140.347826 
L 315.812483 140.347826 
z
" style="fill:#1f77b4;"/>
   </g>
   <g id="patch_162">
    <path clip-path="url(#pa6e418cdbf)" d="M 317.429488 273.312 
L 319.046493 273.312 
L 319.046493 121.982609 
L 317.429488 121.982609 
z
" style="fill:#1f77b4;"/>
   </g>
   <g id="patch_163">
    <path clip-path="url(#pa6e418cdbf)" d="M 319.046493 273.312 
L 320.663498 273.312 
L 320.663498 128.594087 
L 319.046493 128.594087 
z
" style="fill:#1f77b4;"/>
   </g>
   <g id="patch_164">
    <path clip-path="url(#pa6e418cdbf)" d="M 320.663498 273.312 
L 322.280503 273.312 
L 322.280503 148.428522 
L 320.663498 148.428522 
z
" style="fill:#1f77b4;"/>
   </g>
   <g id="patch_165">
    <path clip-path="url(#pa6e418cdbf)" d="M 322.280503 273.312 
L 323.897508 273.312 
L 323.897508 127.12487 
L 322.280503 127.12487 
z
" style="fill:#1f77b4;"/>
   </g>
   <g id="patch_166">
    <path clip-path="url(#pa6e418cdbf)" d="M 323.897508 273.312 
L 325.514514 273.312 
L 325.514514 152.101565 
L 323.897508 152.101565 
z
" style="fill:#1f77b4;"/>
   </g>
   <g id="patch_167">
    <path clip-path="url(#pa6e418cdbf)" d="M 325.514514 273.312 
L 327.131519 273.312 
L 327.131519 150.632348 
L 325.514514 150.632348 
z
" style="fill:#1f77b4;"/>
   </g>
   <g id="patch_168">
    <path clip-path="url(#pa6e418cdbf)" d="M 327.131519 273.312 
L 328.748524 273.312 
L 328.748524 157.243826 
L 327.131519 157.243826 
z
" style="fill:#1f77b4;"/>
   </g>
   <g id="patch_169">
    <path clip-path="url(#pa6e418cdbf)" d="M 328.748524 273.312 
L 330.365529 273.312 
L 330.365529 151.366957 
L 328.748524 151.366957 
z
" style="fill:#1f77b4;"/>
   </g>
   <g id="patch_170">
    <path clip-path="url(#pa6e418cdbf)" d="M 330.365529 273.312 
L 331.982534 273.312 
L 331.982534 155.774609 
L 330.365529 155.774609 
z
" style="fill:#1f77b4;"/>
   </g>
   <g id="patch_171">
    <path clip-path="url(#pa6e418cdbf)" d="M 331.982534 273.312 
L 333.599539 273.312 
L 333.599539 168.262957 
L 331.982534 168.262957 
z
" style="fill:#1f77b4;"/>
   </g>
   <g id="patch_172">
    <path clip-path="url(#pa6e418cdbf)" d="M 333.599539 273.312 
L 335.216544 273.312 
L 335.216544 168.262957 
L 333.599539 168.262957 
z
" style="fill:#1f77b4;"/>
   </g>
   <g id="patch_173">
    <path clip-path="url(#pa6e418cdbf)" d="M 335.216544 273.312 
L 336.833549 273.312 
L 336.833549 160.182261 
L 335.216544 160.182261 
z
" style="fill:#1f77b4;"/>
   </g>
   <g id="patch_174">
    <path clip-path="url(#pa6e418cdbf)" d="M 336.833549 273.312 
L 338.450555 273.312 
L 338.450555 185.158957 
L 336.833549 185.158957 
z
" style="fill:#1f77b4;"/>
   </g>
   <g id="patch_175">
    <path clip-path="url(#pa6e418cdbf)" d="M 338.450555 273.312 
L 340.06756 273.312 
L 340.06756 186.628174 
L 338.450555 186.628174 
z
" style="fill:#1f77b4;"/>
   </g>
   <g id="patch_176">
    <path clip-path="url(#pa6e418cdbf)" d="M 340.06756 273.312 
L 341.684565 273.312 
L 341.684565 183.689739 
L 340.06756 183.689739 
z
" style="fill:#1f77b4;"/>
   </g>
   <g id="patch_177">
    <path clip-path="url(#pa6e418cdbf)" d="M 341.684565 273.312 
L 343.30157 273.312 
L 343.30157 175.609043 
L 341.684565 175.609043 
z
" style="fill:#1f77b4;"/>
   </g>
   <g id="patch_178">
    <path clip-path="url(#pa6e418cdbf)" d="M 343.30157 273.312 
L 344.918575 273.312 
L 344.918575 187.362783 
L 343.30157 187.362783 
z
" style="fill:#1f77b4;"/>
   </g>
   <g id="patch_179">
    <path clip-path="url(#pa6e418cdbf)" d="M 344.918575 273.312 
L 346.53558 273.312 
L 346.53558 196.178087 
L 344.918575 196.178087 
z
" style="fill:#1f77b4;"/>
   </g>
   <g id="patch_180">
    <path clip-path="url(#pa6e418cdbf)" d="M 346.53558 273.312 
L 348.152585 273.312 
L 348.152585 211.60487 
L 346.53558 211.60487 
z
" style="fill:#1f77b4;"/>
   </g>
   <g id="patch_181">
    <path clip-path="url(#pa6e418cdbf)" d="M 348.152585 273.312 
L 349.76959 273.312 
L 349.76959 183.689739 
L 348.152585 183.689739 
z
" style="fill:#1f77b4;"/>
   </g>
   <g id="patch_182">
    <path clip-path="url(#pa6e418cdbf)" d="M 349.76959 273.312 
L 351.386596 273.312 
L 351.386596 187.362783 
L 349.76959 187.362783 
z
" style="fill:#1f77b4;"/>
   </g>
   <g id="patch_183">
    <path clip-path="url(#pa6e418cdbf)" d="M 351.386596 273.312 
L 353.003601 273.312 
L 353.003601 198.381913 
L 351.386596 198.381913 
z
" style="fill:#1f77b4;"/>
   </g>
   <g id="patch_184">
    <path clip-path="url(#pa6e418cdbf)" d="M 353.003601 273.312 
L 354.620606 273.312 
L 354.620606 193.239652 
L 353.003601 193.239652 
z
" style="fill:#1f77b4;"/>
   </g>
   <g id="patch_185">
    <path clip-path="url(#pa6e418cdbf)" d="M 354.620606 273.312 
L 356.237611 273.312 
L 356.237611 210.135652 
L 354.620606 210.135652 
z
" style="fill:#1f77b4;"/>
   </g>
   <g id="patch_186">
    <path clip-path="url(#pa6e418cdbf)" d="M 356.237611 273.312 
L 357.854616 273.312 
L 357.854616 207.931826 
L 356.237611 207.931826 
z
" style="fill:#1f77b4;"/>
   </g>
   <g id="patch_187">
    <path clip-path="url(#pa6e418cdbf)" d="M 357.854616 273.312 
L 359.471621 273.312 
L 359.471621 209.401043 
L 357.854616 209.401043 
z
" style="fill:#1f77b4;"/>
   </g>
   <g id="patch_188">
    <path clip-path="url(#pa6e418cdbf)" d="M 359.471621 273.312 
L 361.088626 273.312 
L 361.088626 228.50087 
L 359.471621 228.50087 
z
" style="fill:#1f77b4;"/>
   </g>
   <g id="patch_189">
    <path clip-path="url(#pa6e418cdbf)" d="M 361.088626 273.312 
L 362.705631 273.312 
L 362.705631 230.704696 
L 361.088626 230.704696 
z
" style="fill:#1f77b4;"/>
   </g>
   <g id="patch_190">
    <path clip-path="url(#pa6e418cdbf)" d="M 362.705631 273.312 
L 364.322637 273.312 
L 364.322637 234.377739 
L 362.705631 234.377739 
z
" style="fill:#1f77b4;"/>
   </g>
   <g id="patch_191">
    <path clip-path="url(#pa6e418cdbf)" d="M 364.322637 273.312 
L 365.939642 273.312 
L 365.939642 224.827826 
L 364.322637 224.827826 
z
" style="fill:#1f77b4;"/>
   </g>
   <g id="patch_192">
    <path clip-path="url(#pa6e418cdbf)" d="M 365.939642 273.312 
L 367.556647 273.312 
L 367.556647 235.112348 
L 365.939642 235.112348 
z
" style="fill:#1f77b4;"/>
   </g>
   <g id="patch_193">
    <path clip-path="url(#pa6e418cdbf)" d="M 367.556647 273.312 
L 369.173652 273.312 
L 369.173652 224.827826 
L 367.556647 224.827826 
z
" style="fill:#1f77b4;"/>
   </g>
   <g id="patch_194">
    <path clip-path="url(#pa6e418cdbf)" d="M 369.173652 273.312 
L 370.790657 273.312 
L 370.790657 239.52 
L 369.173652 239.52 
z
" style="fill:#1f77b4;"/>
   </g>
   <g id="patch_195">
    <path clip-path="url(#pa6e418cdbf)" d="M 370.790657 273.312 
L 372.407662 273.312 
L 372.407662 249.069913 
L 370.790657 249.069913 
z
" style="fill:#1f77b4;"/>
   </g>
   <g id="patch_196">
    <path clip-path="url(#pa6e418cdbf)" d="M 372.407662 273.312 
L 374.024667 273.312 
L 374.024667 249.069913 
L 372.407662 249.069913 
z
" style="fill:#1f77b4;"/>
   </g>
   <g id="patch_197">
    <path clip-path="url(#pa6e418cdbf)" d="M 374.024667 273.312 
L 375.641672 273.312 
L 375.641672 249.069913 
L 374.024667 249.069913 
z
" style="fill:#1f77b4;"/>
   </g>
   <g id="patch_198">
    <path clip-path="url(#pa6e418cdbf)" d="M 375.641672 273.312 
L 377.258677 273.312 
L 377.258677 260.089043 
L 375.641672 260.089043 
z
" style="fill:#1f77b4;"/>
   </g>
   <g id="patch_199">
    <path clip-path="url(#pa6e418cdbf)" d="M 377.258677 273.312 
L 378.875683 273.312 
L 378.875683 267.43513 
L 377.258677 267.43513 
z
" style="fill:#1f77b4;"/>
   </g>
   <g id="patch_200">
    <path clip-path="url(#pa6e418cdbf)" d="M 378.875683 273.312 
L 380.492688 273.312 
L 380.492688 260.089043 
L 378.875683 260.089043 
z
" style="fill:#1f77b4;"/>
   </g>
   <g id="patch_201">
    <path clip-path="url(#pa6e418cdbf)" d="M 380.492688 273.312 
L 382.109693 273.312 
L 382.109693 267.43513 
L 380.492688 267.43513 
z
" style="fill:#1f77b4;"/>
   </g>
   <g id="patch_202">
    <path clip-path="url(#pa6e418cdbf)" d="M 382.109693 273.312 
L 383.726698 273.312 
L 383.726698 269.638957 
L 382.109693 269.638957 
z
" style="fill:#1f77b4;"/>
   </g>
   <g id="matplotlib.axis_1">
    <g id="xtick_1">
     <g id="line2d_1">
      <defs>
       <path d="M 0 0 
L 0 3.5 
" id="m2e12accc16" style="stroke:#000000;stroke-width:0.8;"/>
      </defs>
      <g>
       <use style="stroke:#000000;stroke-width:0.8;" x="60.013977" xlink:href="#m2e12accc16" y="273.312"/>
      </g>
     </g>
     <g id="text_1">
      <!-- 0.0 -->
      <g transform="translate(52.062415 287.910437)scale(0.1 -0.1)">
       <defs>
        <path d="M 2034 4250 
Q 1547 4250 1301 3770 
Q 1056 3291 1056 2328 
Q 1056 1369 1301 889 
Q 1547 409 2034 409 
Q 2525 409 2770 889 
Q 3016 1369 3016 2328 
Q 3016 3291 2770 3770 
Q 2525 4250 2034 4250 
z
M 2034 4750 
Q 2819 4750 3233 4129 
Q 3647 3509 3647 2328 
Q 3647 1150 3233 529 
Q 2819 -91 2034 -91 
Q 1250 -91 836 529 
Q 422 1150 422 2328 
Q 422 3509 836 4129 
Q 1250 4750 2034 4750 
z
" id="DejaVuSans-30" transform="scale(0.015625)"/>
        <path d="M 684 794 
L 1344 794 
L 1344 0 
L 684 0 
L 684 794 
z
" id="DejaVuSans-2e" transform="scale(0.015625)"/>
       </defs>
       <use xlink:href="#DejaVuSans-30"/>
       <use x="63.623047" xlink:href="#DejaVuSans-2e"/>
       <use x="95.410156" xlink:href="#DejaVuSans-30"/>
      </g>
     </g>
    </g>
    <g id="xtick_2">
     <g id="line2d_2">
      <g>
       <use style="stroke:#000000;stroke-width:0.8;" x="101.350278" xlink:href="#m2e12accc16" y="273.312"/>
      </g>
     </g>
     <g id="text_2">
      <!-- 0.2 -->
      <g transform="translate(93.398715 287.910437)scale(0.1 -0.1)">
       <defs>
        <path d="M 1228 531 
L 3431 531 
L 3431 0 
L 469 0 
L 469 531 
Q 828 903 1448 1529 
Q 2069 2156 2228 2338 
Q 2531 2678 2651 2914 
Q 2772 3150 2772 3378 
Q 2772 3750 2511 3984 
Q 2250 4219 1831 4219 
Q 1534 4219 1204 4116 
Q 875 4013 500 3803 
L 500 4441 
Q 881 4594 1212 4672 
Q 1544 4750 1819 4750 
Q 2544 4750 2975 4387 
Q 3406 4025 3406 3419 
Q 3406 3131 3298 2873 
Q 3191 2616 2906 2266 
Q 2828 2175 2409 1742 
Q 1991 1309 1228 531 
z
" id="DejaVuSans-32" transform="scale(0.015625)"/>
       </defs>
       <use xlink:href="#DejaVuSans-30"/>
       <use x="63.623047" xlink:href="#DejaVuSans-2e"/>
       <use x="95.410156" xlink:href="#DejaVuSans-32"/>
      </g>
     </g>
    </g>
    <g id="xtick_3">
     <g id="line2d_3">
      <g>
       <use style="stroke:#000000;stroke-width:0.8;" x="142.686578" xlink:href="#m2e12accc16" y="273.312"/>
      </g>
     </g>
     <g id="text_3">
      <!-- 0.4 -->
      <g transform="translate(134.735016 287.910437)scale(0.1 -0.1)">
       <defs>
        <path d="M 2419 4116 
L 825 1625 
L 2419 1625 
L 2419 4116 
z
M 2253 4666 
L 3047 4666 
L 3047 1625 
L 3713 1625 
L 3713 1100 
L 3047 1100 
L 3047 0 
L 2419 0 
L 2419 1100 
L 313 1100 
L 313 1709 
L 2253 4666 
z
" id="DejaVuSans-34" transform="scale(0.015625)"/>
       </defs>
       <use xlink:href="#DejaVuSans-30"/>
       <use x="63.623047" xlink:href="#DejaVuSans-2e"/>
       <use x="95.410156" xlink:href="#DejaVuSans-34"/>
      </g>
     </g>
    </g>
    <g id="xtick_4">
     <g id="line2d_4">
      <g>
       <use style="stroke:#000000;stroke-width:0.8;" x="184.022879" xlink:href="#m2e12accc16" y="273.312"/>
      </g>
     </g>
     <g id="text_4">
      <!-- 0.6 -->
      <g transform="translate(176.071316 287.910437)scale(0.1 -0.1)">
       <defs>
        <path d="M 2113 2584 
Q 1688 2584 1439 2293 
Q 1191 2003 1191 1497 
Q 1191 994 1439 701 
Q 1688 409 2113 409 
Q 2538 409 2786 701 
Q 3034 994 3034 1497 
Q 3034 2003 2786 2293 
Q 2538 2584 2113 2584 
z
M 3366 4563 
L 3366 3988 
Q 3128 4100 2886 4159 
Q 2644 4219 2406 4219 
Q 1781 4219 1451 3797 
Q 1122 3375 1075 2522 
Q 1259 2794 1537 2939 
Q 1816 3084 2150 3084 
Q 2853 3084 3261 2657 
Q 3669 2231 3669 1497 
Q 3669 778 3244 343 
Q 2819 -91 2113 -91 
Q 1303 -91 875 529 
Q 447 1150 447 2328 
Q 447 3434 972 4092 
Q 1497 4750 2381 4750 
Q 2619 4750 2861 4703 
Q 3103 4656 3366 4563 
z
" id="DejaVuSans-36" transform="scale(0.015625)"/>
       </defs>
       <use xlink:href="#DejaVuSans-30"/>
       <use x="63.623047" xlink:href="#DejaVuSans-2e"/>
       <use x="95.410156" xlink:href="#DejaVuSans-36"/>
      </g>
     </g>
    </g>
    <g id="xtick_5">
     <g id="line2d_5">
      <g>
       <use style="stroke:#000000;stroke-width:0.8;" x="225.35918" xlink:href="#m2e12accc16" y="273.312"/>
      </g>
     </g>
     <g id="text_5">
      <!-- 0.8 -->
      <g transform="translate(217.407617 287.910437)scale(0.1 -0.1)">
       <defs>
        <path d="M 2034 2216 
Q 1584 2216 1326 1975 
Q 1069 1734 1069 1313 
Q 1069 891 1326 650 
Q 1584 409 2034 409 
Q 2484 409 2743 651 
Q 3003 894 3003 1313 
Q 3003 1734 2745 1975 
Q 2488 2216 2034 2216 
z
M 1403 2484 
Q 997 2584 770 2862 
Q 544 3141 544 3541 
Q 544 4100 942 4425 
Q 1341 4750 2034 4750 
Q 2731 4750 3128 4425 
Q 3525 4100 3525 3541 
Q 3525 3141 3298 2862 
Q 3072 2584 2669 2484 
Q 3125 2378 3379 2068 
Q 3634 1759 3634 1313 
Q 3634 634 3220 271 
Q 2806 -91 2034 -91 
Q 1263 -91 848 271 
Q 434 634 434 1313 
Q 434 1759 690 2068 
Q 947 2378 1403 2484 
z
M 1172 3481 
Q 1172 3119 1398 2916 
Q 1625 2713 2034 2713 
Q 2441 2713 2670 2916 
Q 2900 3119 2900 3481 
Q 2900 3844 2670 4047 
Q 2441 4250 2034 4250 
Q 1625 4250 1398 4047 
Q 1172 3844 1172 3481 
z
" id="DejaVuSans-38" transform="scale(0.015625)"/>
       </defs>
       <use xlink:href="#DejaVuSans-30"/>
       <use x="63.623047" xlink:href="#DejaVuSans-2e"/>
       <use x="95.410156" xlink:href="#DejaVuSans-38"/>
      </g>
     </g>
    </g>
    <g id="xtick_6">
     <g id="line2d_6">
      <g>
       <use style="stroke:#000000;stroke-width:0.8;" x="266.69548" xlink:href="#m2e12accc16" y="273.312"/>
      </g>
     </g>
     <g id="text_6">
      <!-- 1.0 -->
      <g transform="translate(258.743918 287.910437)scale(0.1 -0.1)">
       <defs>
        <path d="M 794 531 
L 1825 531 
L 1825 4091 
L 703 3866 
L 703 4441 
L 1819 4666 
L 2450 4666 
L 2450 531 
L 3481 531 
L 3481 0 
L 794 0 
L 794 531 
z
" id="DejaVuSans-31" transform="scale(0.015625)"/>
       </defs>
       <use xlink:href="#DejaVuSans-31"/>
       <use x="63.623047" xlink:href="#DejaVuSans-2e"/>
       <use x="95.410156" xlink:href="#DejaVuSans-30"/>
      </g>
     </g>
    </g>
    <g id="xtick_7">
     <g id="line2d_7">
      <g>
       <use style="stroke:#000000;stroke-width:0.8;" x="308.031781" xlink:href="#m2e12accc16" y="273.312"/>
      </g>
     </g>
     <g id="text_7">
      <!-- 1.2 -->
      <g transform="translate(300.080218 287.910437)scale(0.1 -0.1)">
       <use xlink:href="#DejaVuSans-31"/>
       <use x="63.623047" xlink:href="#DejaVuSans-2e"/>
       <use x="95.410156" xlink:href="#DejaVuSans-32"/>
      </g>
     </g>
    </g>
    <g id="xtick_8">
     <g id="line2d_8">
      <g>
       <use style="stroke:#000000;stroke-width:0.8;" x="349.368081" xlink:href="#m2e12accc16" y="273.312"/>
      </g>
     </g>
     <g id="text_8">
      <!-- 1.4 -->
      <g transform="translate(341.416519 287.910437)scale(0.1 -0.1)">
       <use xlink:href="#DejaVuSans-31"/>
       <use x="63.623047" xlink:href="#DejaVuSans-2e"/>
       <use x="95.410156" xlink:href="#DejaVuSans-34"/>
      </g>
     </g>
    </g>
    <g id="xtick_9">
     <g id="line2d_9">
      <g>
       <use style="stroke:#000000;stroke-width:0.8;" x="390.704382" xlink:href="#m2e12accc16" y="273.312"/>
      </g>
     </g>
     <g id="text_9">
      <!-- 1.6 -->
      <g transform="translate(382.752819 287.910437)scale(0.1 -0.1)">
       <use xlink:href="#DejaVuSans-31"/>
       <use x="63.623047" xlink:href="#DejaVuSans-2e"/>
       <use x="95.410156" xlink:href="#DejaVuSans-36"/>
      </g>
     </g>
    </g>
    <g id="text_10">
     <!-- Angle with normal (rad) -->
     <g transform="translate(163.023281 301.588562)scale(0.1 -0.1)">
      <defs>
       <path d="M 2188 4044 
L 1331 1722 
L 3047 1722 
L 2188 4044 
z
M 1831 4666 
L 2547 4666 
L 4325 0 
L 3669 0 
L 3244 1197 
L 1141 1197 
L 716 0 
L 50 0 
L 1831 4666 
z
" id="DejaVuSans-41" transform="scale(0.015625)"/>
       <path d="M 3513 2113 
L 3513 0 
L 2938 0 
L 2938 2094 
Q 2938 2591 2744 2837 
Q 2550 3084 2163 3084 
Q 1697 3084 1428 2787 
Q 1159 2491 1159 1978 
L 1159 0 
L 581 0 
L 581 3500 
L 1159 3500 
L 1159 2956 
Q 1366 3272 1645 3428 
Q 1925 3584 2291 3584 
Q 2894 3584 3203 3211 
Q 3513 2838 3513 2113 
z
" id="DejaVuSans-6e" transform="scale(0.015625)"/>
       <path d="M 2906 1791 
Q 2906 2416 2648 2759 
Q 2391 3103 1925 3103 
Q 1463 3103 1205 2759 
Q 947 2416 947 1791 
Q 947 1169 1205 825 
Q 1463 481 1925 481 
Q 2391 481 2648 825 
Q 2906 1169 2906 1791 
z
M 3481 434 
Q 3481 -459 3084 -895 
Q 2688 -1331 1869 -1331 
Q 1566 -1331 1297 -1286 
Q 1028 -1241 775 -1147 
L 775 -588 
Q 1028 -725 1275 -790 
Q 1522 -856 1778 -856 
Q 2344 -856 2625 -561 
Q 2906 -266 2906 331 
L 2906 616 
Q 2728 306 2450 153 
Q 2172 0 1784 0 
Q 1141 0 747 490 
Q 353 981 353 1791 
Q 353 2603 747 3093 
Q 1141 3584 1784 3584 
Q 2172 3584 2450 3431 
Q 2728 3278 2906 2969 
L 2906 3500 
L 3481 3500 
L 3481 434 
z
" id="DejaVuSans-67" transform="scale(0.015625)"/>
       <path d="M 603 4863 
L 1178 4863 
L 1178 0 
L 603 0 
L 603 4863 
z
" id="DejaVuSans-6c" transform="scale(0.015625)"/>
       <path d="M 3597 1894 
L 3597 1613 
L 953 1613 
Q 991 1019 1311 708 
Q 1631 397 2203 397 
Q 2534 397 2845 478 
Q 3156 559 3463 722 
L 3463 178 
Q 3153 47 2828 -22 
Q 2503 -91 2169 -91 
Q 1331 -91 842 396 
Q 353 884 353 1716 
Q 353 2575 817 3079 
Q 1281 3584 2069 3584 
Q 2775 3584 3186 3129 
Q 3597 2675 3597 1894 
z
M 3022 2063 
Q 3016 2534 2758 2815 
Q 2500 3097 2075 3097 
Q 1594 3097 1305 2825 
Q 1016 2553 972 2059 
L 3022 2063 
z
" id="DejaVuSans-65" transform="scale(0.015625)"/>
       <path id="DejaVuSans-20" transform="scale(0.015625)"/>
       <path d="M 269 3500 
L 844 3500 
L 1563 769 
L 2278 3500 
L 2956 3500 
L 3675 769 
L 4391 3500 
L 4966 3500 
L 4050 0 
L 3372 0 
L 2619 2869 
L 1863 0 
L 1184 0 
L 269 3500 
z
" id="DejaVuSans-77" transform="scale(0.015625)"/>
       <path d="M 603 3500 
L 1178 3500 
L 1178 0 
L 603 0 
L 603 3500 
z
M 603 4863 
L 1178 4863 
L 1178 4134 
L 603 4134 
L 603 4863 
z
" id="DejaVuSans-69" transform="scale(0.015625)"/>
       <path d="M 1172 4494 
L 1172 3500 
L 2356 3500 
L 2356 3053 
L 1172 3053 
L 1172 1153 
Q 1172 725 1289 603 
Q 1406 481 1766 481 
L 2356 481 
L 2356 0 
L 1766 0 
Q 1100 0 847 248 
Q 594 497 594 1153 
L 594 3053 
L 172 3053 
L 172 3500 
L 594 3500 
L 594 4494 
L 1172 4494 
z
" id="DejaVuSans-74" transform="scale(0.015625)"/>
       <path d="M 3513 2113 
L 3513 0 
L 2938 0 
L 2938 2094 
Q 2938 2591 2744 2837 
Q 2550 3084 2163 3084 
Q 1697 3084 1428 2787 
Q 1159 2491 1159 1978 
L 1159 0 
L 581 0 
L 581 4863 
L 1159 4863 
L 1159 2956 
Q 1366 3272 1645 3428 
Q 1925 3584 2291 3584 
Q 2894 3584 3203 3211 
Q 3513 2838 3513 2113 
z
" id="DejaVuSans-68" transform="scale(0.015625)"/>
       <path d="M 1959 3097 
Q 1497 3097 1228 2736 
Q 959 2375 959 1747 
Q 959 1119 1226 758 
Q 1494 397 1959 397 
Q 2419 397 2687 759 
Q 2956 1122 2956 1747 
Q 2956 2369 2687 2733 
Q 2419 3097 1959 3097 
z
M 1959 3584 
Q 2709 3584 3137 3096 
Q 3566 2609 3566 1747 
Q 3566 888 3137 398 
Q 2709 -91 1959 -91 
Q 1206 -91 779 398 
Q 353 888 353 1747 
Q 353 2609 779 3096 
Q 1206 3584 1959 3584 
z
" id="DejaVuSans-6f" transform="scale(0.015625)"/>
       <path d="M 2631 2963 
Q 2534 3019 2420 3045 
Q 2306 3072 2169 3072 
Q 1681 3072 1420 2755 
Q 1159 2438 1159 1844 
L 1159 0 
L 581 0 
L 581 3500 
L 1159 3500 
L 1159 2956 
Q 1341 3275 1631 3429 
Q 1922 3584 2338 3584 
Q 2397 3584 2469 3576 
Q 2541 3569 2628 3553 
L 2631 2963 
z
" id="DejaVuSans-72" transform="scale(0.015625)"/>
       <path d="M 3328 2828 
Q 3544 3216 3844 3400 
Q 4144 3584 4550 3584 
Q 5097 3584 5394 3201 
Q 5691 2819 5691 2113 
L 5691 0 
L 5113 0 
L 5113 2094 
Q 5113 2597 4934 2840 
Q 4756 3084 4391 3084 
Q 3944 3084 3684 2787 
Q 3425 2491 3425 1978 
L 3425 0 
L 2847 0 
L 2847 2094 
Q 2847 2600 2669 2842 
Q 2491 3084 2119 3084 
Q 1678 3084 1418 2786 
Q 1159 2488 1159 1978 
L 1159 0 
L 581 0 
L 581 3500 
L 1159 3500 
L 1159 2956 
Q 1356 3278 1631 3431 
Q 1906 3584 2284 3584 
Q 2666 3584 2933 3390 
Q 3200 3197 3328 2828 
z
" id="DejaVuSans-6d" transform="scale(0.015625)"/>
       <path d="M 2194 1759 
Q 1497 1759 1228 1600 
Q 959 1441 959 1056 
Q 959 750 1161 570 
Q 1363 391 1709 391 
Q 2188 391 2477 730 
Q 2766 1069 2766 1631 
L 2766 1759 
L 2194 1759 
z
M 3341 1997 
L 3341 0 
L 2766 0 
L 2766 531 
Q 2569 213 2275 61 
Q 1981 -91 1556 -91 
Q 1019 -91 701 211 
Q 384 513 384 1019 
Q 384 1609 779 1909 
Q 1175 2209 1959 2209 
L 2766 2209 
L 2766 2266 
Q 2766 2663 2505 2880 
Q 2244 3097 1772 3097 
Q 1472 3097 1187 3025 
Q 903 2953 641 2809 
L 641 3341 
Q 956 3463 1253 3523 
Q 1550 3584 1831 3584 
Q 2591 3584 2966 3190 
Q 3341 2797 3341 1997 
z
" id="DejaVuSans-61" transform="scale(0.015625)"/>
       <path d="M 1984 4856 
Q 1566 4138 1362 3434 
Q 1159 2731 1159 2009 
Q 1159 1288 1364 580 
Q 1569 -128 1984 -844 
L 1484 -844 
Q 1016 -109 783 600 
Q 550 1309 550 2009 
Q 550 2706 781 3412 
Q 1013 4119 1484 4856 
L 1984 4856 
z
" id="DejaVuSans-28" transform="scale(0.015625)"/>
       <path d="M 2906 2969 
L 2906 4863 
L 3481 4863 
L 3481 0 
L 2906 0 
L 2906 525 
Q 2725 213 2448 61 
Q 2172 -91 1784 -91 
Q 1150 -91 751 415 
Q 353 922 353 1747 
Q 353 2572 751 3078 
Q 1150 3584 1784 3584 
Q 2172 3584 2448 3432 
Q 2725 3281 2906 2969 
z
M 947 1747 
Q 947 1113 1208 752 
Q 1469 391 1925 391 
Q 2381 391 2643 752 
Q 2906 1113 2906 1747 
Q 2906 2381 2643 2742 
Q 2381 3103 1925 3103 
Q 1469 3103 1208 2742 
Q 947 2381 947 1747 
z
" id="DejaVuSans-64" transform="scale(0.015625)"/>
       <path d="M 513 4856 
L 1013 4856 
Q 1481 4119 1714 3412 
Q 1947 2706 1947 2009 
Q 1947 1309 1714 600 
Q 1481 -109 1013 -844 
L 513 -844 
Q 928 -128 1133 580 
Q 1338 1288 1338 2009 
Q 1338 2731 1133 3434 
Q 928 4138 513 4856 
z
" id="DejaVuSans-29" transform="scale(0.015625)"/>
      </defs>
      <use xlink:href="#DejaVuSans-41"/>
      <use x="68.408203" xlink:href="#DejaVuSans-6e"/>
      <use x="131.787109" xlink:href="#DejaVuSans-67"/>
      <use x="195.263672" xlink:href="#DejaVuSans-6c"/>
      <use x="223.046875" xlink:href="#DejaVuSans-65"/>
      <use x="284.570312" xlink:href="#DejaVuSans-20"/>
      <use x="316.357422" xlink:href="#DejaVuSans-77"/>
      <use x="398.144531" xlink:href="#DejaVuSans-69"/>
      <use x="425.927734" xlink:href="#DejaVuSans-74"/>
      <use x="465.136719" xlink:href="#DejaVuSans-68"/>
      <use x="528.515625" xlink:href="#DejaVuSans-20"/>
      <use x="560.302734" xlink:href="#DejaVuSans-6e"/>
      <use x="623.681641" xlink:href="#DejaVuSans-6f"/>
      <use x="684.863281" xlink:href="#DejaVuSans-72"/>
      <use x="724.226562" xlink:href="#DejaVuSans-6d"/>
      <use x="821.638672" xlink:href="#DejaVuSans-61"/>
      <use x="882.917969" xlink:href="#DejaVuSans-6c"/>
      <use x="910.701172" xlink:href="#DejaVuSans-20"/>
      <use x="942.488281" xlink:href="#DejaVuSans-28"/>
      <use x="981.501953" xlink:href="#DejaVuSans-72"/>
      <use x="1022.615234" xlink:href="#DejaVuSans-61"/>
      <use x="1083.894531" xlink:href="#DejaVuSans-64"/>
      <use x="1147.371094" xlink:href="#DejaVuSans-29"/>
     </g>
    </g>
   </g>
   <g id="matplotlib.axis_2">
    <g id="ytick_1">
     <g id="line2d_10">
      <defs>
       <path d="M 0 0 
L -3.5 0 
" id="m674a41efe8" style="stroke:#000000;stroke-width:0.8;"/>
      </defs>
      <g>
       <use style="stroke:#000000;stroke-width:0.8;" x="43.78125" xlink:href="#m674a41efe8" y="273.312"/>
      </g>
     </g>
     <g id="text_11">
      <!-- 0.0 -->
      <g transform="translate(20.878125 277.111219)scale(0.1 -0.1)">
       <use xlink:href="#DejaVuSans-30"/>
       <use x="63.623047" xlink:href="#DejaVuSans-2e"/>
       <use x="95.410156" xlink:href="#DejaVuSans-30"/>
      </g>
     </g>
    </g>
    <g id="ytick_2">
     <g id="line2d_11">
      <g>
       <use style="stroke:#000000;stroke-width:0.8;" x="43.78125" xlink:href="#m674a41efe8" y="227.33339"/>
      </g>
     </g>
     <g id="text_12">
      <!-- 0.2 -->
      <g transform="translate(20.878125 231.132609)scale(0.1 -0.1)">
       <use xlink:href="#DejaVuSans-30"/>
       <use x="63.623047" xlink:href="#DejaVuSans-2e"/>
       <use x="95.410156" xlink:href="#DejaVuSans-32"/>
      </g>
     </g>
    </g>
    <g id="ytick_3">
     <g id="line2d_12">
      <g>
       <use style="stroke:#000000;stroke-width:0.8;" x="43.78125" xlink:href="#m674a41efe8" y="181.35478"/>
      </g>
     </g>
     <g id="text_13">
      <!-- 0.4 -->
      <g transform="translate(20.878125 185.153999)scale(0.1 -0.1)">
       <use xlink:href="#DejaVuSans-30"/>
       <use x="63.623047" xlink:href="#DejaVuSans-2e"/>
       <use x="95.410156" xlink:href="#DejaVuSans-34"/>
      </g>
     </g>
    </g>
    <g id="ytick_4">
     <g id="line2d_13">
      <g>
       <use style="stroke:#000000;stroke-width:0.8;" x="43.78125" xlink:href="#m674a41efe8" y="135.37617"/>
      </g>
     </g>
     <g id="text_14">
      <!-- 0.6 -->
      <g transform="translate(20.878125 139.175389)scale(0.1 -0.1)">
       <use xlink:href="#DejaVuSans-30"/>
       <use x="63.623047" xlink:href="#DejaVuSans-2e"/>
       <use x="95.410156" xlink:href="#DejaVuSans-36"/>
      </g>
     </g>
    </g>
    <g id="ytick_5">
     <g id="line2d_14">
      <g>
       <use style="stroke:#000000;stroke-width:0.8;" x="43.78125" xlink:href="#m674a41efe8" y="89.397561"/>
      </g>
     </g>
     <g id="text_15">
      <!-- 0.8 -->
      <g transform="translate(20.878125 93.196779)scale(0.1 -0.1)">
       <use xlink:href="#DejaVuSans-30"/>
       <use x="63.623047" xlink:href="#DejaVuSans-2e"/>
       <use x="95.410156" xlink:href="#DejaVuSans-38"/>
      </g>
     </g>
    </g>
    <g id="ytick_6">
     <g id="line2d_15">
      <g>
       <use style="stroke:#000000;stroke-width:0.8;" x="43.78125" xlink:href="#m674a41efe8" y="43.418951"/>
      </g>
     </g>
     <g id="text_16">
      <!-- 1.0 -->
      <g transform="translate(20.878125 47.218169)scale(0.1 -0.1)">
       <use xlink:href="#DejaVuSans-31"/>
       <use x="63.623047" xlink:href="#DejaVuSans-2e"/>
       <use x="95.410156" xlink:href="#DejaVuSans-30"/>
      </g>
     </g>
    </g>
    <g id="text_17">
     <!-- Probability density -->
     <g transform="translate(14.798438 186.606781)rotate(-90)scale(0.1 -0.1)">
      <defs>
       <path d="M 1259 4147 
L 1259 2394 
L 2053 2394 
Q 2494 2394 2734 2622 
Q 2975 2850 2975 3272 
Q 2975 3691 2734 3919 
Q 2494 4147 2053 4147 
L 1259 4147 
z
M 628 4666 
L 2053 4666 
Q 2838 4666 3239 4311 
Q 3641 3956 3641 3272 
Q 3641 2581 3239 2228 
Q 2838 1875 2053 1875 
L 1259 1875 
L 1259 0 
L 628 0 
L 628 4666 
z
" id="DejaVuSans-50" transform="scale(0.015625)"/>
       <path d="M 3116 1747 
Q 3116 2381 2855 2742 
Q 2594 3103 2138 3103 
Q 1681 3103 1420 2742 
Q 1159 2381 1159 1747 
Q 1159 1113 1420 752 
Q 1681 391 2138 391 
Q 2594 391 2855 752 
Q 3116 1113 3116 1747 
z
M 1159 2969 
Q 1341 3281 1617 3432 
Q 1894 3584 2278 3584 
Q 2916 3584 3314 3078 
Q 3713 2572 3713 1747 
Q 3713 922 3314 415 
Q 2916 -91 2278 -91 
Q 1894 -91 1617 61 
Q 1341 213 1159 525 
L 1159 0 
L 581 0 
L 581 4863 
L 1159 4863 
L 1159 2969 
z
" id="DejaVuSans-62" transform="scale(0.015625)"/>
       <path d="M 2059 -325 
Q 1816 -950 1584 -1140 
Q 1353 -1331 966 -1331 
L 506 -1331 
L 506 -850 
L 844 -850 
Q 1081 -850 1212 -737 
Q 1344 -625 1503 -206 
L 1606 56 
L 191 3500 
L 800 3500 
L 1894 763 
L 2988 3500 
L 3597 3500 
L 2059 -325 
z
" id="DejaVuSans-79" transform="scale(0.015625)"/>
       <path d="M 2834 3397 
L 2834 2853 
Q 2591 2978 2328 3040 
Q 2066 3103 1784 3103 
Q 1356 3103 1142 2972 
Q 928 2841 928 2578 
Q 928 2378 1081 2264 
Q 1234 2150 1697 2047 
L 1894 2003 
Q 2506 1872 2764 1633 
Q 3022 1394 3022 966 
Q 3022 478 2636 193 
Q 2250 -91 1575 -91 
Q 1294 -91 989 -36 
Q 684 19 347 128 
L 347 722 
Q 666 556 975 473 
Q 1284 391 1588 391 
Q 1994 391 2212 530 
Q 2431 669 2431 922 
Q 2431 1156 2273 1281 
Q 2116 1406 1581 1522 
L 1381 1569 
Q 847 1681 609 1914 
Q 372 2147 372 2553 
Q 372 3047 722 3315 
Q 1072 3584 1716 3584 
Q 2034 3584 2315 3537 
Q 2597 3491 2834 3397 
z
" id="DejaVuSans-73" transform="scale(0.015625)"/>
      </defs>
      <use xlink:href="#DejaVuSans-50"/>
      <use x="58.552734" xlink:href="#DejaVuSans-72"/>
      <use x="97.416016" xlink:href="#DejaVuSans-6f"/>
      <use x="158.597656" xlink:href="#DejaVuSans-62"/>
      <use x="222.074219" xlink:href="#DejaVuSans-61"/>
      <use x="283.353516" xlink:href="#DejaVuSans-62"/>
      <use x="346.830078" xlink:href="#DejaVuSans-69"/>
      <use x="374.613281" xlink:href="#DejaVuSans-6c"/>
      <use x="402.396484" xlink:href="#DejaVuSans-69"/>
      <use x="430.179688" xlink:href="#DejaVuSans-74"/>
      <use x="469.388672" xlink:href="#DejaVuSans-79"/>
      <use x="528.568359" xlink:href="#DejaVuSans-20"/>
      <use x="560.355469" xlink:href="#DejaVuSans-64"/>
      <use x="623.832031" xlink:href="#DejaVuSans-65"/>
      <use x="685.355469" xlink:href="#DejaVuSans-6e"/>
      <use x="748.734375" xlink:href="#DejaVuSans-73"/>
      <use x="800.833984" xlink:href="#DejaVuSans-69"/>
      <use x="828.617188" xlink:href="#DejaVuSans-74"/>
      <use x="867.826172" xlink:href="#DejaVuSans-79"/>
     </g>
    </g>
   </g>
   <g id="line2d_16">
    <path clip-path="url(#pa6e418cdbf)" d="M 60.013977 273.312 
L 79.837728 229.481822 
L 90.237073 207.031721 
L 99.01152 188.602068 
L 106.811029 172.728501 
L 113.960578 158.678665 
L 120.460169 146.380312 
L 126.63478 135.161075 
L 132.484411 124.986514 
L 138.009063 115.812941 
L 143.208736 107.589637 
L 148.408408 99.7858 
L 153.283101 92.868246 
L 157.832814 86.773748 
L 162.382528 81.040762 
L 166.932241 75.680399 
L 171.156975 71.045659 
L 175.381709 66.748921 
L 179.281463 63.088922 
L 183.181217 59.72826 
L 187.080972 56.671719 
L 190.655746 54.140778 
L 194.230521 51.872074 
L 197.805296 49.868322 
L 201.380071 48.131919 
L 204.629866 46.787123 
L 207.879661 45.666327 
L 211.129456 44.77064 
L 214.379252 44.100947 
L 217.629047 43.657911 
L 220.878842 43.441969 
L 224.128637 43.453336 
L 227.378433 43.692001 
L 230.628228 44.157726 
L 233.878023 44.850051 
L 237.127818 45.768293 
L 240.377614 46.911543 
L 243.627409 48.27867 
L 247.202184 50.039468 
L 250.776958 52.06741 
L 254.351733 54.360071 
L 257.926508 56.914706 
L 261.501283 59.72826 
L 265.401037 63.088922 
L 269.300791 66.748921 
L 273.200546 70.703046 
L 277.425279 75.312053 
L 281.650013 80.251932 
L 286.199727 85.93235 
L 290.74944 91.975911 
L 295.624133 98.84081 
L 300.498826 106.093856 
L 305.698498 114.240063 
L 311.22315 123.336088 
L 316.747802 132.860647 
L 322.597433 143.382295 
L 328.772044 154.939313 
L 335.596614 168.202644 
L 342.746164 182.588041 
L 350.870652 199.458089 
L 359.970079 218.88914 
L 371.019383 243.036168 
L 384.668523 273.312 
L 384.668523 273.312 
" style="fill:none;stroke:#ff7f0e;stroke-linecap:square;stroke-width:1.5;"/>
   </g>
   <g id="patch_203">
    <path d="M 43.78125 273.312 
L 43.78125 7.2 
" style="fill:none;stroke:#000000;stroke-linecap:square;stroke-linejoin:miter;stroke-width:0.8;"/>
   </g>
   <g id="patch_204">
    <path d="M 400.90125 273.312 
L 400.90125 7.2 
" style="fill:none;stroke:#000000;stroke-linecap:square;stroke-linejoin:miter;stroke-width:0.8;"/>
   </g>
   <g id="patch_205">
    <path d="M 43.78125 273.312 
L 400.90125 273.312 
" style="fill:none;stroke:#000000;stroke-linecap:square;stroke-linejoin:miter;stroke-width:0.8;"/>
   </g>
   <g id="patch_206">
    <path d="M 43.78125 7.2 
L 400.90125 7.2 
" style="fill:none;stroke:#000000;stroke-linecap:square;stroke-linejoin:miter;stroke-width:0.8;"/>
   </g>
  </g>
 </g>
 <defs>
  <clipPath id="pa6e418cdbf">
   <rect height="266.112" width="357.12" x="43.78125" y="7.2"/>
  </clipPath>
 </defs>
</svg>
