<?xml version="1.0" encoding="utf-8" standalone="no"?>
<!DOCTYPE svg PUBLIC "-//W3C//DTD SVG 1.1//EN"
  "http://www.w3.org/Graphics/SVG/1.1/DTD/svg11.dtd">
<svg height="310.86825pt" version="1.1" viewBox="0 0 408.10125 310.86825" width="408.10125pt" xmlns="http://www.w3.org/2000/svg" xmlns:xlink="http://www.w3.org/1999/xlink">
 <metadata>
  <rdf:RDF xmlns:cc="http://creativecommons.org/ns#" xmlns:dc="http://purl.org/dc/elements/1.1/" xmlns:rdf="http://www.w3.org/1999/02/22-rdf-syntax-ns#">
   <cc:Work>
    <dc:type rdf:resource="http://purl.org/dc/dcmitype/StillImage"/>
    <dc:date>2021-07-08T08:50:39.095143</dc:date>
    <dc:format>image/svg+xml</dc:format>
    <dc:creator>
     <cc:Agent>
      <dc:title>Matplotlib v3.4.2, https://matplotlib.org/</dc:title>
     </cc:Agent>
    </dc:creator>
   </cc:Work>
  </rdf:RDF>
 </metadata>
 <defs>
  <style type="text/css">*{stroke-linecap:butt;stroke-linejoin:round;}</style>
 </defs>
 <g id="figure_1">
  <g id="patch_1">
   <path d="M 0 310.86825 
L 408.10125 310.86825 
L 408.10125 0 
L 0 0 
z
" style="fill:#ffffff;"/>
  </g>
  <g id="axes_1">
   <g id="patch_2">
    <path d="M 43.78125 273.312 
L 400.90125 273.312 
L 400.90125 7.2 
L 43.78125 7.2 
z
" style="fill:#ffffff;"/>
   </g>
   <g id="patch_3">
    <path clip-path="url(#p9f6acbf71e)" d="M 61.493387 273.312 
L 63.109261 273.312 
L 63.109261 270.445032 
L 61.493387 270.445032 
z
" style="fill:#1f77b4;"/>
   </g>
   <g id="patch_4">
    <path clip-path="url(#p9f6acbf71e)" d="M 63.109261 273.312 
L 64.725135 273.312 
L 64.725135 272.738606 
L 63.109261 272.738606 
z
" style="fill:#1f77b4;"/>
   </g>
   <g id="patch_5">
    <path clip-path="url(#p9f6acbf71e)" d="M 64.725135 273.312 
L 66.341008 273.312 
L 66.341008 269.298244 
L 64.725135 269.298244 
z
" style="fill:#1f77b4;"/>
   </g>
   <g id="patch_6">
    <path clip-path="url(#p9f6acbf71e)" d="M 66.341008 273.312 
L 67.956882 273.312 
L 67.956882 268.151457 
L 66.341008 268.151457 
z
" style="fill:#1f77b4;"/>
   </g>
   <g id="patch_7">
    <path clip-path="url(#p9f6acbf71e)" d="M 67.956882 273.312 
L 69.572756 273.312 
L 69.572756 266.431276 
L 67.956882 266.431276 
z
" style="fill:#1f77b4;"/>
   </g>
   <g id="patch_8">
    <path clip-path="url(#p9f6acbf71e)" d="M 69.572756 273.312 
L 71.18863 273.312 
L 71.18863 271.591819 
L 69.572756 271.591819 
z
" style="fill:#1f77b4;"/>
   </g>
   <g id="patch_9">
    <path clip-path="url(#p9f6acbf71e)" d="M 71.18863 273.312 
L 72.804504 273.312 
L 72.804504 269.871638 
L 71.18863 269.871638 
z
" style="fill:#1f77b4;"/>
   </g>
   <g id="patch_10">
    <path clip-path="url(#p9f6acbf71e)" d="M 72.804504 273.312 
L 74.420378 273.312 
L 74.420378 262.41752 
L 72.804504 262.41752 
z
" style="fill:#1f77b4;"/>
   </g>
   <g id="patch_11">
    <path clip-path="url(#p9f6acbf71e)" d="M 74.420378 273.312 
L 76.036251 273.312 
L 76.036251 264.711095 
L 74.420378 264.711095 
z
" style="fill:#1f77b4;"/>
   </g>
   <g id="patch_12">
    <path clip-path="url(#p9f6acbf71e)" d="M 76.036251 273.312 
L 77.652125 273.312 
L 77.652125 258.977158 
L 76.036251 258.977158 
z
" style="fill:#1f77b4;"/>
   </g>
   <g id="patch_13">
    <path clip-path="url(#p9f6acbf71e)" d="M 77.652125 273.312 
L 79.267999 273.312 
L 79.267999 261.270733 
L 77.652125 261.270733 
z
" style="fill:#1f77b4;"/>
   </g>
   <g id="patch_14">
    <path clip-path="url(#p9f6acbf71e)" d="M 79.267999 273.312 
L 80.883873 273.312 
L 80.883873 260.123946 
L 79.267999 260.123946 
z
" style="fill:#1f77b4;"/>
   </g>
   <g id="patch_15">
    <path clip-path="url(#p9f6acbf71e)" d="M 80.883873 273.312 
L 82.499747 273.312 
L 82.499747 255.536796 
L 80.883873 255.536796 
z
" style="fill:#1f77b4;"/>
   </g>
   <g id="patch_16">
    <path clip-path="url(#p9f6acbf71e)" d="M 82.499747 273.312 
L 84.115621 273.312 
L 84.115621 258.977158 
L 82.499747 258.977158 
z
" style="fill:#1f77b4;"/>
   </g>
   <g id="patch_17">
    <path clip-path="url(#p9f6acbf71e)" d="M 84.115621 273.312 
L 85.731494 273.312 
L 85.731494 254.390009 
L 84.115621 254.390009 
z
" style="fill:#1f77b4;"/>
   </g>
   <g id="patch_18">
    <path clip-path="url(#p9f6acbf71e)" d="M 85.731494 273.312 
L 87.347368 273.312 
L 87.347368 250.376253 
L 85.731494 250.376253 
z
" style="fill:#1f77b4;"/>
   </g>
   <g id="patch_19">
    <path clip-path="url(#p9f6acbf71e)" d="M 87.347368 273.312 
L 88.963242 273.312 
L 88.963242 250.949647 
L 87.347368 250.949647 
z
" style="fill:#1f77b4;"/>
   </g>
   <g id="patch_20">
    <path clip-path="url(#p9f6acbf71e)" d="M 88.963242 273.312 
L 90.579116 273.312 
L 90.579116 253.243222 
L 88.963242 253.243222 
z
" style="fill:#1f77b4;"/>
   </g>
   <g id="patch_21">
    <path clip-path="url(#p9f6acbf71e)" d="M 90.579116 273.312 
L 92.19499 273.312 
L 92.19499 248.656072 
L 90.579116 248.656072 
z
" style="fill:#1f77b4;"/>
   </g>
   <g id="patch_22">
    <path clip-path="url(#p9f6acbf71e)" d="M 92.19499 273.312 
L 93.810864 273.312 
L 93.810864 254.963403 
L 92.19499 254.963403 
z
" style="fill:#1f77b4;"/>
   </g>
   <g id="patch_23">
    <path clip-path="url(#p9f6acbf71e)" d="M 93.810864 273.312 
L 95.426737 273.312 
L 95.426737 251.523041 
L 93.810864 251.523041 
z
" style="fill:#1f77b4;"/>
   </g>
   <g id="patch_24">
    <path clip-path="url(#p9f6acbf71e)" d="M 95.426737 273.312 
L 97.042611 273.312 
L 97.042611 252.669828 
L 95.426737 252.669828 
z
" style="fill:#1f77b4;"/>
   </g>
   <g id="patch_25">
    <path clip-path="url(#p9f6acbf71e)" d="M 97.042611 273.312 
L 98.658485 273.312 
L 98.658485 248.082679 
L 97.042611 248.082679 
z
" style="fill:#1f77b4;"/>
   </g>
   <g id="patch_26">
    <path clip-path="url(#p9f6acbf71e)" d="M 98.658485 273.312 
L 100.274359 273.312 
L 100.274359 246.362498 
L 98.658485 246.362498 
z
" style="fill:#1f77b4;"/>
   </g>
   <g id="patch_27">
    <path clip-path="url(#p9f6acbf71e)" d="M 100.274359 273.312 
L 101.890233 273.312 
L 101.890233 244.642317 
L 100.274359 244.642317 
z
" style="fill:#1f77b4;"/>
   </g>
   <g id="patch_28">
    <path clip-path="url(#p9f6acbf71e)" d="M 101.890233 273.312 
L 103.506107 273.312 
L 103.506107 240.628561 
L 101.890233 240.628561 
z
" style="fill:#1f77b4;"/>
   </g>
   <g id="patch_29">
    <path clip-path="url(#p9f6acbf71e)" d="M 103.506107 273.312 
L 105.12198 273.312 
L 105.12198 238.334986 
L 103.506107 238.334986 
z
" style="fill:#1f77b4;"/>
   </g>
   <g id="patch_30">
    <path clip-path="url(#p9f6acbf71e)" d="M 105.12198 273.312 
L 106.737854 273.312 
L 106.737854 244.068923 
L 105.12198 244.068923 
z
" style="fill:#1f77b4;"/>
   </g>
   <g id="patch_31">
    <path clip-path="url(#p9f6acbf71e)" d="M 106.737854 273.312 
L 108.353728 273.312 
L 108.353728 236.614805 
L 106.737854 236.614805 
z
" style="fill:#1f77b4;"/>
   </g>
   <g id="patch_32">
    <path clip-path="url(#p9f6acbf71e)" d="M 108.353728 273.312 
L 109.969602 273.312 
L 109.969602 228.587294 
L 108.353728 228.587294 
z
" style="fill:#1f77b4;"/>
   </g>
   <g id="patch_33">
    <path clip-path="url(#p9f6acbf71e)" d="M 109.969602 273.312 
L 111.585476 273.312 
L 111.585476 237.188199 
L 109.969602 237.188199 
z
" style="fill:#1f77b4;"/>
   </g>
   <g id="patch_34">
    <path clip-path="url(#p9f6acbf71e)" d="M 111.585476 273.312 
L 113.20135 273.312 
L 113.20135 230.307475 
L 111.585476 230.307475 
z
" style="fill:#1f77b4;"/>
   </g>
   <g id="patch_35">
    <path clip-path="url(#p9f6acbf71e)" d="M 113.20135 273.312 
L 114.817223 273.312 
L 114.817223 234.321231 
L 113.20135 234.321231 
z
" style="fill:#1f77b4;"/>
   </g>
   <g id="patch_36">
    <path clip-path="url(#p9f6acbf71e)" d="M 114.817223 273.312 
L 116.433097 273.312 
L 116.433097 222.853357 
L 114.817223 222.853357 
z
" style="fill:#1f77b4;"/>
   </g>
   <g id="patch_37">
    <path clip-path="url(#p9f6acbf71e)" d="M 116.433097 273.312 
L 118.048971 273.312 
L 118.048971 241.775348 
L 116.433097 241.775348 
z
" style="fill:#1f77b4;"/>
   </g>
   <g id="patch_38">
    <path clip-path="url(#p9f6acbf71e)" d="M 118.048971 273.312 
L 119.664845 273.312 
L 119.664845 237.761593 
L 118.048971 237.761593 
z
" style="fill:#1f77b4;"/>
   </g>
   <g id="patch_39">
    <path clip-path="url(#p9f6acbf71e)" d="M 119.664845 273.312 
L 121.280719 273.312 
L 121.280719 238.334986 
L 119.664845 238.334986 
z
" style="fill:#1f77b4;"/>
   </g>
   <g id="patch_40">
    <path clip-path="url(#p9f6acbf71e)" d="M 121.280719 273.312 
L 122.896593 273.312 
L 122.896593 225.146932 
L 121.280719 225.146932 
z
" style="fill:#1f77b4;"/>
   </g>
   <g id="patch_41">
    <path clip-path="url(#p9f6acbf71e)" d="M 122.896593 273.312 
L 124.512466 273.312 
L 124.512466 233.174443 
L 122.896593 233.174443 
z
" style="fill:#1f77b4;"/>
   </g>
   <g id="patch_42">
    <path clip-path="url(#p9f6acbf71e)" d="M 124.512466 273.312 
L 126.12834 273.312 
L 126.12834 224.573538 
L 124.512466 224.573538 
z
" style="fill:#1f77b4;"/>
   </g>
   <g id="patch_43">
    <path clip-path="url(#p9f6acbf71e)" d="M 126.12834 273.312 
L 127.744214 273.312 
L 127.744214 226.293719 
L 126.12834 226.293719 
z
" style="fill:#1f77b4;"/>
   </g>
   <g id="patch_44">
    <path clip-path="url(#p9f6acbf71e)" d="M 127.744214 273.312 
L 129.360088 273.312 
L 129.360088 228.0139 
L 127.744214 228.0139 
z
" style="fill:#1f77b4;"/>
   </g>
   <g id="patch_45">
    <path clip-path="url(#p9f6acbf71e)" d="M 129.360088 273.312 
L 130.975962 273.312 
L 130.975962 232.60105 
L 129.360088 232.60105 
z
" style="fill:#1f77b4;"/>
   </g>
   <g id="patch_46">
    <path clip-path="url(#p9f6acbf71e)" d="M 130.975962 273.312 
L 132.591836 273.312 
L 132.591836 224.000145 
L 130.975962 224.000145 
z
" style="fill:#1f77b4;"/>
   </g>
   <g id="patch_47">
    <path clip-path="url(#p9f6acbf71e)" d="M 132.591836 273.312 
L 134.207709 273.312 
L 134.207709 232.60105 
L 132.591836 232.60105 
z
" style="fill:#1f77b4;"/>
   </g>
   <g id="patch_48">
    <path clip-path="url(#p9f6acbf71e)" d="M 134.207709 273.312 
L 135.823583 273.312 
L 135.823583 213.105665 
L 134.207709 213.105665 
z
" style="fill:#1f77b4;"/>
   </g>
   <g id="patch_49">
    <path clip-path="url(#p9f6acbf71e)" d="M 135.823583 273.312 
L 137.439457 273.312 
L 137.439457 219.986389 
L 135.823583 219.986389 
z
" style="fill:#1f77b4;"/>
   </g>
   <g id="patch_50">
    <path clip-path="url(#p9f6acbf71e)" d="M 137.439457 273.312 
L 139.055331 273.312 
L 139.055331 214.825846 
L 137.439457 214.825846 
z
" style="fill:#1f77b4;"/>
   </g>
   <g id="patch_51">
    <path clip-path="url(#p9f6acbf71e)" d="M 139.055331 273.312 
L 140.671205 273.312 
L 140.671205 220.559783 
L 139.055331 220.559783 
z
" style="fill:#1f77b4;"/>
   </g>
   <g id="patch_52">
    <path clip-path="url(#p9f6acbf71e)" d="M 140.671205 273.312 
L 142.287079 273.312 
L 142.287079 221.133176 
L 140.671205 221.133176 
z
" style="fill:#1f77b4;"/>
   </g>
   <g id="patch_53">
    <path clip-path="url(#p9f6acbf71e)" d="M 142.287079 273.312 
L 143.902952 273.312 
L 143.902952 210.81209 
L 142.287079 210.81209 
z
" style="fill:#1f77b4;"/>
   </g>
   <g id="patch_54">
    <path clip-path="url(#p9f6acbf71e)" d="M 143.902952 273.312 
L 145.518826 273.312 
L 145.518826 215.39924 
L 143.902952 215.39924 
z
" style="fill:#1f77b4;"/>
   </g>
   <g id="patch_55">
    <path clip-path="url(#p9f6acbf71e)" d="M 145.518826 273.312 
L 147.1347 273.312 
L 147.1347 206.798335 
L 145.518826 206.798335 
z
" style="fill:#1f77b4;"/>
   </g>
   <g id="patch_56">
    <path clip-path="url(#p9f6acbf71e)" d="M 147.1347 273.312 
L 148.750574 273.312 
L 148.750574 218.839602 
L 147.1347 218.839602 
z
" style="fill:#1f77b4;"/>
   </g>
   <g id="patch_57">
    <path clip-path="url(#p9f6acbf71e)" d="M 148.750574 273.312 
L 150.366448 273.312 
L 150.366448 213.105665 
L 148.750574 213.105665 
z
" style="fill:#1f77b4;"/>
   </g>
   <g id="patch_58">
    <path clip-path="url(#p9f6acbf71e)" d="M 150.366448 273.312 
L 151.982322 273.312 
L 151.982322 203.931367 
L 150.366448 203.931367 
z
" style="fill:#1f77b4;"/>
   </g>
   <g id="patch_59">
    <path clip-path="url(#p9f6acbf71e)" d="M 151.982322 273.312 
L 153.598195 273.312 
L 153.598195 212.532271 
L 151.982322 212.532271 
z
" style="fill:#1f77b4;"/>
   </g>
   <g id="patch_60">
    <path clip-path="url(#p9f6acbf71e)" d="M 153.598195 273.312 
L 155.214069 273.312 
L 155.214069 205.078154 
L 153.598195 205.078154 
z
" style="fill:#1f77b4;"/>
   </g>
   <g id="patch_61">
    <path clip-path="url(#p9f6acbf71e)" d="M 155.214069 273.312 
L 156.829943 273.312 
L 156.829943 194.183674 
L 155.214069 194.183674 
z
" style="fill:#1f77b4;"/>
   </g>
   <g id="patch_62">
    <path clip-path="url(#p9f6acbf71e)" d="M 156.829943 273.312 
L 158.445817 273.312 
L 158.445817 209.665303 
L 156.829943 209.665303 
z
" style="fill:#1f77b4;"/>
   </g>
   <g id="patch_63">
    <path clip-path="url(#p9f6acbf71e)" d="M 158.445817 273.312 
L 160.061691 273.312 
L 160.061691 198.770824 
L 158.445817 198.770824 
z
" style="fill:#1f77b4;"/>
   </g>
   <g id="patch_64">
    <path clip-path="url(#p9f6acbf71e)" d="M 160.061691 273.312 
L 161.677565 273.312 
L 161.677565 194.757068 
L 160.061691 194.757068 
z
" style="fill:#1f77b4;"/>
   </g>
   <g id="patch_65">
    <path clip-path="url(#p9f6acbf71e)" d="M 161.677565 273.312 
L 163.293438 273.312 
L 163.293438 189.023131 
L 161.677565 189.023131 
z
" style="fill:#1f77b4;"/>
   </g>
   <g id="patch_66">
    <path clip-path="url(#p9f6acbf71e)" d="M 163.293438 273.312 
L 164.909312 273.312 
L 164.909312 210.238697 
L 163.293438 210.238697 
z
" style="fill:#1f77b4;"/>
   </g>
   <g id="patch_67">
    <path clip-path="url(#p9f6acbf71e)" d="M 164.909312 273.312 
L 166.525186 273.312 
L 166.525186 201.064398 
L 164.909312 201.064398 
z
" style="fill:#1f77b4;"/>
   </g>
   <g id="patch_68">
    <path clip-path="url(#p9f6acbf71e)" d="M 166.525186 273.312 
L 168.14106 273.312 
L 168.14106 191.8901 
L 166.525186 191.8901 
z
" style="fill:#1f77b4;"/>
   </g>
   <g id="patch_69">
    <path clip-path="url(#p9f6acbf71e)" d="M 168.14106 273.312 
L 169.756934 273.312 
L 169.756934 205.651548 
L 168.14106 205.651548 
z
" style="fill:#1f77b4;"/>
   </g>
   <g id="patch_70">
    <path clip-path="url(#p9f6acbf71e)" d="M 169.756934 273.312 
L 171.372808 273.312 
L 171.372808 192.463493 
L 169.756934 192.463493 
z
" style="fill:#1f77b4;"/>
   </g>
   <g id="patch_71">
    <path clip-path="url(#p9f6acbf71e)" d="M 171.372808 273.312 
L 172.988681 273.312 
L 172.988681 184.435982 
L 171.372808 184.435982 
z
" style="fill:#1f77b4;"/>
   </g>
   <g id="patch_72">
    <path clip-path="url(#p9f6acbf71e)" d="M 172.988681 273.312 
L 174.604555 273.312 
L 174.604555 194.757068 
L 172.988681 194.757068 
z
" style="fill:#1f77b4;"/>
   </g>
   <g id="patch_73">
    <path clip-path="url(#p9f6acbf71e)" d="M 174.604555 273.312 
L 176.220429 273.312 
L 176.220429 190.743312 
L 174.604555 190.743312 
z
" style="fill:#1f77b4;"/>
   </g>
   <g id="patch_74">
    <path clip-path="url(#p9f6acbf71e)" d="M 176.220429 273.312 
L 177.836303 273.312 
L 177.836303 191.8901 
L 176.220429 191.8901 
z
" style="fill:#1f77b4;"/>
   </g>
   <g id="patch_75">
    <path clip-path="url(#p9f6acbf71e)" d="M 177.836303 273.312 
L 179.452177 273.312 
L 179.452177 189.596525 
L 177.836303 189.596525 
z
" style="fill:#1f77b4;"/>
   </g>
   <g id="patch_76">
    <path clip-path="url(#p9f6acbf71e)" d="M 179.452177 273.312 
L 181.068051 273.312 
L 181.068051 193.036887 
L 179.452177 193.036887 
z
" style="fill:#1f77b4;"/>
   </g>
   <g id="patch_77">
    <path clip-path="url(#p9f6acbf71e)" d="M 181.068051 273.312 
L 182.683924 273.312 
L 182.683924 188.449738 
L 181.068051 188.449738 
z
" style="fill:#1f77b4;"/>
   </g>
   <g id="patch_78">
    <path clip-path="url(#p9f6acbf71e)" d="M 182.683924 273.312 
L 184.299798 273.312 
L 184.299798 200.491005 
L 182.683924 200.491005 
z
" style="fill:#1f77b4;"/>
   </g>
   <g id="patch_79">
    <path clip-path="url(#p9f6acbf71e)" d="M 184.299798 273.312 
L 185.915672 273.312 
L 185.915672 188.449738 
L 184.299798 188.449738 
z
" style="fill:#1f77b4;"/>
   </g>
   <g id="patch_80">
    <path clip-path="url(#p9f6acbf71e)" d="M 185.915672 273.312 
L 187.531546 273.312 
L 187.531546 178.128652 
L 185.915672 178.128652 
z
" style="fill:#1f77b4;"/>
   </g>
   <g id="patch_81">
    <path clip-path="url(#p9f6acbf71e)" d="M 187.531546 273.312 
L 189.14742 273.312 
L 189.14742 179.275439 
L 187.531546 179.275439 
z
" style="fill:#1f77b4;"/>
   </g>
   <g id="patch_82">
    <path clip-path="url(#p9f6acbf71e)" d="M 189.14742 273.312 
L 190.763294 273.312 
L 190.763294 175.261683 
L 189.14742 175.261683 
z
" style="fill:#1f77b4;"/>
   </g>
   <g id="patch_83">
    <path clip-path="url(#p9f6acbf71e)" d="M 190.763294 273.312 
L 192.379167 273.312 
L 192.379167 178.702045 
L 190.763294 178.702045 
z
" style="fill:#1f77b4;"/>
   </g>
   <g id="patch_84">
    <path clip-path="url(#p9f6acbf71e)" d="M 192.379167 273.312 
L 193.995041 273.312 
L 193.995041 179.848833 
L 192.379167 179.848833 
z
" style="fill:#1f77b4;"/>
   </g>
   <g id="patch_85">
    <path clip-path="url(#p9f6acbf71e)" d="M 193.995041 273.312 
L 195.610915 273.312 
L 195.610915 183.862588 
L 193.995041 183.862588 
z
" style="fill:#1f77b4;"/>
   </g>
   <g id="patch_86">
    <path clip-path="url(#p9f6acbf71e)" d="M 195.610915 273.312 
L 197.226789 273.312 
L 197.226789 185.009376 
L 195.610915 185.009376 
z
" style="fill:#1f77b4;"/>
   </g>
   <g id="patch_87">
    <path clip-path="url(#p9f6acbf71e)" d="M 197.226789 273.312 
L 198.842663 273.312 
L 198.842663 185.009376 
L 197.226789 185.009376 
z
" style="fill:#1f77b4;"/>
   </g>
   <g id="patch_88">
    <path clip-path="url(#p9f6acbf71e)" d="M 198.842663 273.312 
L 200.458537 273.312 
L 200.458537 169.527747 
L 198.842663 169.527747 
z
" style="fill:#1f77b4;"/>
   </g>
   <g id="patch_89">
    <path clip-path="url(#p9f6acbf71e)" d="M 200.458537 273.312 
L 202.07441 273.312 
L 202.07441 177.555258 
L 200.458537 177.555258 
z
" style="fill:#1f77b4;"/>
   </g>
   <g id="patch_90">
    <path clip-path="url(#p9f6acbf71e)" d="M 202.07441 273.312 
L 203.690284 273.312 
L 203.690284 178.702045 
L 202.07441 178.702045 
z
" style="fill:#1f77b4;"/>
   </g>
   <g id="patch_91">
    <path clip-path="url(#p9f6acbf71e)" d="M 203.690284 273.312 
L 205.306158 273.312 
L 205.306158 175.835077 
L 203.690284 175.835077 
z
" style="fill:#1f77b4;"/>
   </g>
   <g id="patch_92">
    <path clip-path="url(#p9f6acbf71e)" d="M 205.306158 273.312 
L 206.922032 273.312 
L 206.922032 172.968109 
L 205.306158 172.968109 
z
" style="fill:#1f77b4;"/>
   </g>
   <g id="patch_93">
    <path clip-path="url(#p9f6acbf71e)" d="M 206.922032 273.312 
L 208.537906 273.312 
L 208.537906 162.073629 
L 206.922032 162.073629 
z
" style="fill:#1f77b4;"/>
   </g>
   <g id="patch_94">
    <path clip-path="url(#p9f6acbf71e)" d="M 208.537906 273.312 
L 210.15378 273.312 
L 210.15378 166.660778 
L 208.537906 166.660778 
z
" style="fill:#1f77b4;"/>
   </g>
   <g id="patch_95">
    <path clip-path="url(#p9f6acbf71e)" d="M 210.15378 273.312 
L 211.769653 273.312 
L 211.769653 162.647023 
L 210.15378 162.647023 
z
" style="fill:#1f77b4;"/>
   </g>
   <g id="patch_96">
    <path clip-path="url(#p9f6acbf71e)" d="M 211.769653 273.312 
L 213.385527 273.312 
L 213.385527 162.073629 
L 211.769653 162.073629 
z
" style="fill:#1f77b4;"/>
   </g>
   <g id="patch_97">
    <path clip-path="url(#p9f6acbf71e)" d="M 213.385527 273.312 
L 215.001401 273.312 
L 215.001401 171.247928 
L 213.385527 171.247928 
z
" style="fill:#1f77b4;"/>
   </g>
   <g id="patch_98">
    <path clip-path="url(#p9f6acbf71e)" d="M 215.001401 273.312 
L 216.617275 273.312 
L 216.617275 162.647023 
L 215.001401 162.647023 
z
" style="fill:#1f77b4;"/>
   </g>
   <g id="patch_99">
    <path clip-path="url(#p9f6acbf71e)" d="M 216.617275 273.312 
L 218.233149 273.312 
L 218.233149 158.059873 
L 216.617275 158.059873 
z
" style="fill:#1f77b4;"/>
   </g>
   <g id="patch_100">
    <path clip-path="url(#p9f6acbf71e)" d="M 218.233149 273.312 
L 219.849023 273.312 
L 219.849023 169.527747 
L 218.233149 169.527747 
z
" style="fill:#1f77b4;"/>
   </g>
   <g id="patch_101">
    <path clip-path="url(#p9f6acbf71e)" d="M 219.849023 273.312 
L 221.464896 273.312 
L 221.464896 154.619511 
L 219.849023 154.619511 
z
" style="fill:#1f77b4;"/>
   </g>
   <g id="patch_102">
    <path clip-path="url(#p9f6acbf71e)" d="M 221.464896 273.312 
L 223.08077 273.312 
L 223.08077 144.298425 
L 221.464896 144.298425 
z
" style="fill:#1f77b4;"/>
   </g>
   <g id="patch_103">
    <path clip-path="url(#p9f6acbf71e)" d="M 223.08077 273.312 
L 224.696644 273.312 
L 224.696644 156.339692 
L 223.08077 156.339692 
z
" style="fill:#1f77b4;"/>
   </g>
   <g id="patch_104">
    <path clip-path="url(#p9f6acbf71e)" d="M 224.696644 273.312 
L 226.312518 273.312 
L 226.312518 163.220416 
L 224.696644 163.220416 
z
" style="fill:#1f77b4;"/>
   </g>
   <g id="patch_105">
    <path clip-path="url(#p9f6acbf71e)" d="M 226.312518 273.312 
L 227.928392 273.312 
L 227.928392 146.592 
L 226.312518 146.592 
z
" style="fill:#1f77b4;"/>
   </g>
   <g id="patch_106">
    <path clip-path="url(#p9f6acbf71e)" d="M 227.928392 273.312 
L 229.544266 273.312 
L 229.544266 156.913086 
L 227.928392 156.913086 
z
" style="fill:#1f77b4;"/>
   </g>
   <g id="patch_107">
    <path clip-path="url(#p9f6acbf71e)" d="M 229.544266 273.312 
L 231.160139 273.312 
L 231.160139 172.394715 
L 229.544266 172.394715 
z
" style="fill:#1f77b4;"/>
   </g>
   <g id="patch_108">
    <path clip-path="url(#p9f6acbf71e)" d="M 231.160139 273.312 
L 232.776013 273.312 
L 232.776013 153.472724 
L 231.160139 153.472724 
z
" style="fill:#1f77b4;"/>
   </g>
   <g id="patch_109">
    <path clip-path="url(#p9f6acbf71e)" d="M 232.776013 273.312 
L 234.391887 273.312 
L 234.391887 148.312181 
L 232.776013 148.312181 
z
" style="fill:#1f77b4;"/>
   </g>
   <g id="patch_110">
    <path clip-path="url(#p9f6acbf71e)" d="M 234.391887 273.312 
L 236.007761 273.312 
L 236.007761 147.738787 
L 234.391887 147.738787 
z
" style="fill:#1f77b4;"/>
   </g>
   <g id="patch_111">
    <path clip-path="url(#p9f6acbf71e)" d="M 236.007761 273.312 
L 237.623635 273.312 
L 237.623635 148.312181 
L 236.007761 148.312181 
z
" style="fill:#1f77b4;"/>
   </g>
   <g id="patch_112">
    <path clip-path="url(#p9f6acbf71e)" d="M 237.623635 273.312 
L 239.239509 273.312 
L 239.239509 146.018606 
L 237.623635 146.018606 
z
" style="fill:#1f77b4;"/>
   </g>
   <g id="patch_113">
    <path clip-path="url(#p9f6acbf71e)" d="M 239.239509 273.312 
L 240.855382 273.312 
L 240.855382 156.339692 
L 239.239509 156.339692 
z
" style="fill:#1f77b4;"/>
   </g>
   <g id="patch_114">
    <path clip-path="url(#p9f6acbf71e)" d="M 240.855382 273.312 
L 242.471256 273.312 
L 242.471256 148.885575 
L 240.855382 148.885575 
z
" style="fill:#1f77b4;"/>
   </g>
   <g id="patch_115">
    <path clip-path="url(#p9f6acbf71e)" d="M 242.471256 273.312 
L 244.08713 273.312 
L 244.08713 152.325937 
L 242.471256 152.325937 
z
" style="fill:#1f77b4;"/>
   </g>
   <g id="patch_116">
    <path clip-path="url(#p9f6acbf71e)" d="M 244.08713 273.312 
L 245.703004 273.312 
L 245.703004 157.48648 
L 244.08713 157.48648 
z
" style="fill:#1f77b4;"/>
   </g>
   <g id="patch_117">
    <path clip-path="url(#p9f6acbf71e)" d="M 245.703004 273.312 
L 247.318878 273.312 
L 247.318878 141.431457 
L 245.703004 141.431457 
z
" style="fill:#1f77b4;"/>
   </g>
   <g id="patch_118">
    <path clip-path="url(#p9f6acbf71e)" d="M 247.318878 273.312 
L 248.934752 273.312 
L 248.934752 140.858063 
L 247.318878 140.858063 
z
" style="fill:#1f77b4;"/>
   </g>
   <g id="patch_119">
    <path clip-path="url(#p9f6acbf71e)" d="M 248.934752 273.312 
L 250.550625 273.312 
L 250.550625 151.179149 
L 248.934752 151.179149 
z
" style="fill:#1f77b4;"/>
   </g>
   <g id="patch_120">
    <path clip-path="url(#p9f6acbf71e)" d="M 250.550625 273.312 
L 252.166499 273.312 
L 252.166499 138.564489 
L 250.550625 138.564489 
z
" style="fill:#1f77b4;"/>
   </g>
   <g id="patch_121">
    <path clip-path="url(#p9f6acbf71e)" d="M 252.166499 273.312 
L 253.782373 273.312 
L 253.782373 140.28467 
L 252.166499 140.28467 
z
" style="fill:#1f77b4;"/>
   </g>
   <g id="patch_122">
    <path clip-path="url(#p9f6acbf71e)" d="M 253.782373 273.312 
L 255.398247 273.312 
L 255.398247 143.725032 
L 253.782373 143.725032 
z
" style="fill:#1f77b4;"/>
   </g>
   <g id="patch_123">
    <path clip-path="url(#p9f6acbf71e)" d="M 255.398247 273.312 
L 257.014121 273.312 
L 257.014121 139.137882 
L 255.398247 139.137882 
z
" style="fill:#1f77b4;"/>
   </g>
   <g id="patch_124">
    <path clip-path="url(#p9f6acbf71e)" d="M 257.014121 273.312 
L 258.629995 273.312 
L 258.629995 131.683765 
L 257.014121 131.683765 
z
" style="fill:#1f77b4;"/>
   </g>
   <g id="patch_125">
    <path clip-path="url(#p9f6acbf71e)" d="M 258.629995 273.312 
L 260.245868 273.312 
L 260.245868 121.936072 
L 258.629995 121.936072 
z
" style="fill:#1f77b4;"/>
   </g>
   <g id="patch_126">
    <path clip-path="url(#p9f6acbf71e)" d="M 260.245868 273.312 
L 261.861742 273.312 
L 261.861742 130.536977 
L 260.245868 130.536977 
z
" style="fill:#1f77b4;"/>
   </g>
   <g id="patch_127">
    <path clip-path="url(#p9f6acbf71e)" d="M 261.861742 273.312 
L 263.477616 273.312 
L 263.477616 123.656253 
L 261.861742 123.656253 
z
" style="fill:#1f77b4;"/>
   </g>
   <g id="patch_128">
    <path clip-path="url(#p9f6acbf71e)" d="M 263.477616 273.312 
L 265.09349 273.312 
L 265.09349 128.816796 
L 263.477616 128.816796 
z
" style="fill:#1f77b4;"/>
   </g>
   <g id="patch_129">
    <path clip-path="url(#p9f6acbf71e)" d="M 265.09349 273.312 
L 266.709364 273.312 
L 266.709364 138.564489 
L 265.09349 138.564489 
z
" style="fill:#1f77b4;"/>
   </g>
   <g id="patch_130">
    <path clip-path="url(#p9f6acbf71e)" d="M 266.709364 273.312 
L 268.325238 273.312 
L 268.325238 147.165394 
L 266.709364 147.165394 
z
" style="fill:#1f77b4;"/>
   </g>
   <g id="patch_131">
    <path clip-path="url(#p9f6acbf71e)" d="M 268.325238 273.312 
L 269.941111 273.312 
L 269.941111 144.298425 
L 268.325238 144.298425 
z
" style="fill:#1f77b4;"/>
   </g>
   <g id="patch_132">
    <path clip-path="url(#p9f6acbf71e)" d="M 269.941111 273.312 
L 271.556985 273.312 
L 271.556985 124.803041 
L 269.941111 124.803041 
z
" style="fill:#1f77b4;"/>
   </g>
   <g id="patch_133">
    <path clip-path="url(#p9f6acbf71e)" d="M 271.556985 273.312 
L 273.172859 273.312 
L 273.172859 113.908561 
L 271.556985 113.908561 
z
" style="fill:#1f77b4;"/>
   </g>
   <g id="patch_134">
    <path clip-path="url(#p9f6acbf71e)" d="M 273.172859 273.312 
L 274.788733 273.312 
L 274.788733 133.977339 
L 273.172859 133.977339 
z
" style="fill:#1f77b4;"/>
   </g>
   <g id="patch_135">
    <path clip-path="url(#p9f6acbf71e)" d="M 274.788733 273.312 
L 276.404607 273.312 
L 276.404607 102.440688 
L 274.788733 102.440688 
z
" style="fill:#1f77b4;"/>
   </g>
   <g id="patch_136">
    <path clip-path="url(#p9f6acbf71e)" d="M 276.404607 273.312 
L 278.020481 273.312 
L 278.020481 102.440688 
L 276.404607 102.440688 
z
" style="fill:#1f77b4;"/>
   </g>
   <g id="patch_137">
    <path clip-path="url(#p9f6acbf71e)" d="M 278.020481 273.312 
L 279.636354 273.312 
L 279.636354 124.229647 
L 278.020481 124.229647 
z
" style="fill:#1f77b4;"/>
   </g>
   <g id="patch_138">
    <path clip-path="url(#p9f6acbf71e)" d="M 279.636354 273.312 
L 281.252228 273.312 
L 281.252228 98.426932 
L 279.636354 98.426932 
z
" style="fill:#1f77b4;"/>
   </g>
   <g id="patch_139">
    <path clip-path="url(#p9f6acbf71e)" d="M 281.252228 273.312 
L 282.868102 273.312 
L 282.868102 106.454443 
L 281.252228 106.454443 
z
" style="fill:#1f77b4;"/>
   </g>
   <g id="patch_140">
    <path clip-path="url(#p9f6acbf71e)" d="M 282.868102 273.312 
L 284.483976 273.312 
L 284.483976 116.202136 
L 282.868102 116.202136 
z
" style="fill:#1f77b4;"/>
   </g>
   <g id="patch_141">
    <path clip-path="url(#p9f6acbf71e)" d="M 284.483976 273.312 
L 286.09985 273.312 
L 286.09985 115.628742 
L 284.483976 115.628742 
z
" style="fill:#1f77b4;"/>
   </g>
   <g id="patch_142">
    <path clip-path="url(#p9f6acbf71e)" d="M 286.09985 273.312 
L 287.715724 273.312 
L 287.715724 115.628742 
L 286.09985 115.628742 
z
" style="fill:#1f77b4;"/>
   </g>
   <g id="patch_143">
    <path clip-path="url(#p9f6acbf71e)" d="M 287.715724 273.312 
L 289.331597 273.312 
L 289.331597 116.202136 
L 287.715724 116.202136 
z
" style="fill:#1f77b4;"/>
   </g>
   <g id="patch_144">
    <path clip-path="url(#p9f6acbf71e)" d="M 289.331597 273.312 
L 290.947471 273.312 
L 290.947471 108.748018 
L 289.331597 108.748018 
z
" style="fill:#1f77b4;"/>
   </g>
   <g id="patch_145">
    <path clip-path="url(#p9f6acbf71e)" d="M 290.947471 273.312 
L 292.563345 273.312 
L 292.563345 114.481955 
L 290.947471 114.481955 
z
" style="fill:#1f77b4;"/>
   </g>
   <g id="patch_146">
    <path clip-path="url(#p9f6acbf71e)" d="M 292.563345 273.312 
L 294.179219 273.312 
L 294.179219 100.147113 
L 292.563345 100.147113 
z
" style="fill:#1f77b4;"/>
   </g>
   <g id="patch_147">
    <path clip-path="url(#p9f6acbf71e)" d="M 294.179219 273.312 
L 295.795093 273.312 
L 295.795093 105.88105 
L 294.179219 105.88105 
z
" style="fill:#1f77b4;"/>
   </g>
   <g id="patch_148">
    <path clip-path="url(#p9f6acbf71e)" d="M 295.795093 273.312 
L 297.410967 273.312 
L 297.410967 99.573719 
L 295.795093 99.573719 
z
" style="fill:#1f77b4;"/>
   </g>
   <g id="patch_149">
    <path clip-path="url(#p9f6acbf71e)" d="M 297.410967 273.312 
L 299.02684 273.312 
L 299.02684 125.376434 
L 297.410967 125.376434 
z
" style="fill:#1f77b4;"/>
   </g>
   <g id="patch_150">
    <path clip-path="url(#p9f6acbf71e)" d="M 299.02684 273.312 
L 300.642714 273.312 
L 300.642714 104.160869 
L 299.02684 104.160869 
z
" style="fill:#1f77b4;"/>
   </g>
   <g id="patch_151">
    <path clip-path="url(#p9f6acbf71e)" d="M 300.642714 273.312 
L 302.258588 273.312 
L 302.258588 108.748018 
L 300.642714 108.748018 
z
" style="fill:#1f77b4;"/>
   </g>
   <g id="patch_152">
    <path clip-path="url(#p9f6acbf71e)" d="M 302.258588 273.312 
L 303.874462 273.312 
L 303.874462 99.573719 
L 302.258588 99.573719 
z
" style="fill:#1f77b4;"/>
   </g>
   <g id="patch_153">
    <path clip-path="url(#p9f6acbf71e)" d="M 303.874462 273.312 
L 305.490336 273.312 
L 305.490336 112.761774 
L 303.874462 112.761774 
z
" style="fill:#1f77b4;"/>
   </g>
   <g id="patch_154">
    <path clip-path="url(#p9f6acbf71e)" d="M 305.490336 273.312 
L 307.10621 273.312 
L 307.10621 118.49571 
L 305.490336 118.49571 
z
" style="fill:#1f77b4;"/>
   </g>
   <g id="patch_155">
    <path clip-path="url(#p9f6acbf71e)" d="M 307.10621 273.312 
L 308.722083 273.312 
L 308.722083 116.775529 
L 307.10621 116.775529 
z
" style="fill:#1f77b4;"/>
   </g>
   <g id="patch_156">
    <path clip-path="url(#p9f6acbf71e)" d="M 308.722083 273.312 
L 310.337957 273.312 
L 310.337957 93.839783 
L 308.722083 93.839783 
z
" style="fill:#1f77b4;"/>
   </g>
   <g id="patch_157">
    <path clip-path="url(#p9f6acbf71e)" d="M 310.337957 273.312 
L 311.953831 273.312 
L 311.953831 91.546208 
L 310.337957 91.546208 
z
" style="fill:#1f77b4;"/>
   </g>
   <g id="patch_158">
    <path clip-path="url(#p9f6acbf71e)" d="M 311.953831 273.312 
L 313.569705 273.312 
L 313.569705 91.546208 
L 311.953831 91.546208 
z
" style="fill:#1f77b4;"/>
   </g>
   <g id="patch_159">
    <path clip-path="url(#p9f6acbf71e)" d="M 313.569705 273.312 
L 315.185579 273.312 
L 315.185579 70.330643 
L 313.569705 70.330643 
z
" style="fill:#1f77b4;"/>
   </g>
   <g id="patch_160">
    <path clip-path="url(#p9f6acbf71e)" d="M 315.185579 273.312 
L 316.801453 273.312 
L 316.801453 103.587475 
L 315.185579 103.587475 
z
" style="fill:#1f77b4;"/>
   </g>
   <g id="patch_161">
    <path clip-path="url(#p9f6acbf71e)" d="M 316.801453 273.312 
L 318.417326 273.312 
L 318.417326 73.771005 
L 316.801453 73.771005 
z
" style="fill:#1f77b4;"/>
   </g>
   <g id="patch_162">
    <path clip-path="url(#p9f6acbf71e)" d="M 318.417326 273.312 
L 320.0332 273.312 
L 320.0332 68.610462 
L 318.417326 68.610462 
z
" style="fill:#1f77b4;"/>
   </g>
   <g id="patch_163">
    <path clip-path="url(#p9f6acbf71e)" d="M 320.0332 273.312 
L 321.649074 273.312 
L 321.649074 96.706751 
L 320.0332 96.706751 
z
" style="fill:#1f77b4;"/>
   </g>
   <g id="patch_164">
    <path clip-path="url(#p9f6acbf71e)" d="M 321.649074 273.312 
L 323.264948 273.312 
L 323.264948 90.399421 
L 321.649074 90.399421 
z
" style="fill:#1f77b4;"/>
   </g>
   <g id="patch_165">
    <path clip-path="url(#p9f6acbf71e)" d="M 323.264948 273.312 
L 324.880822 273.312 
L 324.880822 90.399421 
L 323.264948 90.399421 
z
" style="fill:#1f77b4;"/>
   </g>
   <g id="patch_166">
    <path clip-path="url(#p9f6acbf71e)" d="M 324.880822 273.312 
L 326.496696 273.312 
L 326.496696 89.252633 
L 324.880822 89.252633 
z
" style="fill:#1f77b4;"/>
   </g>
   <g id="patch_167">
    <path clip-path="url(#p9f6acbf71e)" d="M 326.496696 273.312 
L 328.112569 273.312 
L 328.112569 94.98657 
L 326.496696 94.98657 
z
" style="fill:#1f77b4;"/>
   </g>
   <g id="patch_168">
    <path clip-path="url(#p9f6acbf71e)" d="M 328.112569 273.312 
L 329.728443 273.312 
L 329.728443 87.532452 
L 328.112569 87.532452 
z
" style="fill:#1f77b4;"/>
   </g>
   <g id="patch_169">
    <path clip-path="url(#p9f6acbf71e)" d="M 329.728443 273.312 
L 331.344317 273.312 
L 331.344317 63.449919 
L 329.728443 63.449919 
z
" style="fill:#1f77b4;"/>
   </g>
   <g id="patch_170">
    <path clip-path="url(#p9f6acbf71e)" d="M 331.344317 273.312 
L 332.960191 273.312 
L 332.960191 81.798516 
L 331.344317 81.798516 
z
" style="fill:#1f77b4;"/>
   </g>
   <g id="patch_171">
    <path clip-path="url(#p9f6acbf71e)" d="M 332.960191 273.312 
L 334.576065 273.312 
L 334.576065 78.358154 
L 332.960191 78.358154 
z
" style="fill:#1f77b4;"/>
   </g>
   <g id="patch_172">
    <path clip-path="url(#p9f6acbf71e)" d="M 334.576065 273.312 
L 336.191939 273.312 
L 336.191939 97.853538 
L 334.576065 97.853538 
z
" style="fill:#1f77b4;"/>
   </g>
   <g id="patch_173">
    <path clip-path="url(#p9f6acbf71e)" d="M 336.191939 273.312 
L 337.807812 273.312 
L 337.807812 66.890281 
L 336.191939 66.890281 
z
" style="fill:#1f77b4;"/>
   </g>
   <g id="patch_174">
    <path clip-path="url(#p9f6acbf71e)" d="M 337.807812 273.312 
L 339.423686 273.312 
L 339.423686 73.197611 
L 337.807812 73.197611 
z
" style="fill:#1f77b4;"/>
   </g>
   <g id="patch_175">
    <path clip-path="url(#p9f6acbf71e)" d="M 339.423686 273.312 
L 341.03956 273.312 
L 341.03956 78.931548 
L 339.423686 78.931548 
z
" style="fill:#1f77b4;"/>
   </g>
   <g id="patch_176">
    <path clip-path="url(#p9f6acbf71e)" d="M 341.03956 273.312 
L 342.655434 273.312 
L 342.655434 60.58295 
L 341.03956 60.58295 
z
" style="fill:#1f77b4;"/>
   </g>
   <g id="patch_177">
    <path clip-path="url(#p9f6acbf71e)" d="M 342.655434 273.312 
L 344.271308 273.312 
L 344.271308 58.862769 
L 342.655434 58.862769 
z
" style="fill:#1f77b4;"/>
   </g>
   <g id="patch_178">
    <path clip-path="url(#p9f6acbf71e)" d="M 344.271308 273.312 
L 345.887182 273.312 
L 345.887182 80.078335 
L 344.271308 80.078335 
z
" style="fill:#1f77b4;"/>
   </g>
   <g id="patch_179">
    <path clip-path="url(#p9f6acbf71e)" d="M 345.887182 273.312 
L 347.503055 273.312 
L 347.503055 69.183855 
L 345.887182 69.183855 
z
" style="fill:#1f77b4;"/>
   </g>
   <g id="patch_180">
    <path clip-path="url(#p9f6acbf71e)" d="M 347.503055 273.312 
L 349.118929 273.312 
L 349.118929 68.610462 
L 347.503055 68.610462 
z
" style="fill:#1f77b4;"/>
   </g>
   <g id="patch_181">
    <path clip-path="url(#p9f6acbf71e)" d="M 349.118929 273.312 
L 350.734803 273.312 
L 350.734803 55.995801 
L 349.118929 55.995801 
z
" style="fill:#1f77b4;"/>
   </g>
   <g id="patch_182">
    <path clip-path="url(#p9f6acbf71e)" d="M 350.734803 273.312 
L 352.350677 273.312 
L 352.350677 79.504941 
L 350.734803 79.504941 
z
" style="fill:#1f77b4;"/>
   </g>
   <g id="patch_183">
    <path clip-path="url(#p9f6acbf71e)" d="M 352.350677 273.312 
L 353.966551 273.312 
L 353.966551 75.491186 
L 352.350677 75.491186 
z
" style="fill:#1f77b4;"/>
   </g>
   <g id="patch_184">
    <path clip-path="url(#p9f6acbf71e)" d="M 353.966551 273.312 
L 355.582425 273.312 
L 355.582425 78.931548 
L 353.966551 78.931548 
z
" style="fill:#1f77b4;"/>
   </g>
   <g id="patch_185">
    <path clip-path="url(#p9f6acbf71e)" d="M 355.582425 273.312 
L 357.198298 273.312 
L 357.198298 54.849014 
L 355.582425 54.849014 
z
" style="fill:#1f77b4;"/>
   </g>
   <g id="patch_186">
    <path clip-path="url(#p9f6acbf71e)" d="M 357.198298 273.312 
L 358.814172 273.312 
L 358.814172 56.569195 
L 357.198298 56.569195 
z
" style="fill:#1f77b4;"/>
   </g>
   <g id="patch_187">
    <path clip-path="url(#p9f6acbf71e)" d="M 358.814172 273.312 
L 360.430046 273.312 
L 360.430046 57.142588 
L 358.814172 57.142588 
z
" style="fill:#1f77b4;"/>
   </g>
   <g id="patch_188">
    <path clip-path="url(#p9f6acbf71e)" d="M 360.430046 273.312 
L 362.04592 273.312 
L 362.04592 69.757249 
L 360.430046 69.757249 
z
" style="fill:#1f77b4;"/>
   </g>
   <g id="patch_189">
    <path clip-path="url(#p9f6acbf71e)" d="M 362.04592 273.312 
L 363.661794 273.312 
L 363.661794 77.78476 
L 362.04592 77.78476 
z
" style="fill:#1f77b4;"/>
   </g>
   <g id="patch_190">
    <path clip-path="url(#p9f6acbf71e)" d="M 363.661794 273.312 
L 365.277668 273.312 
L 365.277668 61.156344 
L 363.661794 61.156344 
z
" style="fill:#1f77b4;"/>
   </g>
   <g id="patch_191">
    <path clip-path="url(#p9f6acbf71e)" d="M 365.277668 273.312 
L 366.893541 273.312 
L 366.893541 68.037068 
L 365.277668 68.037068 
z
" style="fill:#1f77b4;"/>
   </g>
   <g id="patch_192">
    <path clip-path="url(#p9f6acbf71e)" d="M 366.893541 273.312 
L 368.509415 273.312 
L 368.509415 60.009557 
L 366.893541 60.009557 
z
" style="fill:#1f77b4;"/>
   </g>
   <g id="patch_193">
    <path clip-path="url(#p9f6acbf71e)" d="M 368.509415 273.312 
L 370.125289 273.312 
L 370.125289 37.647204 
L 368.509415 37.647204 
z
" style="fill:#1f77b4;"/>
   </g>
   <g id="patch_194">
    <path clip-path="url(#p9f6acbf71e)" d="M 370.125289 273.312 
L 371.741163 273.312 
L 371.741163 74.917792 
L 370.125289 74.917792 
z
" style="fill:#1f77b4;"/>
   </g>
   <g id="patch_195">
    <path clip-path="url(#p9f6acbf71e)" d="M 371.741163 273.312 
L 373.357037 273.312 
L 373.357037 50.835258 
L 371.741163 50.835258 
z
" style="fill:#1f77b4;"/>
   </g>
   <g id="patch_196">
    <path clip-path="url(#p9f6acbf71e)" d="M 373.357037 273.312 
L 374.972911 273.312 
L 374.972911 60.009557 
L 373.357037 60.009557 
z
" style="fill:#1f77b4;"/>
   </g>
   <g id="patch_197">
    <path clip-path="url(#p9f6acbf71e)" d="M 374.972911 273.312 
L 376.588784 273.312 
L 376.588784 69.757249 
L 374.972911 69.757249 
z
" style="fill:#1f77b4;"/>
   </g>
   <g id="patch_198">
    <path clip-path="url(#p9f6acbf71e)" d="M 376.588784 273.312 
L 378.204658 273.312 
L 378.204658 32.486661 
L 376.588784 32.486661 
z
" style="fill:#1f77b4;"/>
   </g>
   <g id="patch_199">
    <path clip-path="url(#p9f6acbf71e)" d="M 378.204658 273.312 
L 379.820532 273.312 
L 379.820532 60.009557 
L 378.204658 60.009557 
z
" style="fill:#1f77b4;"/>
   </g>
   <g id="patch_200">
    <path clip-path="url(#p9f6acbf71e)" d="M 379.820532 273.312 
L 381.436406 273.312 
L 381.436406 39.940778 
L 379.820532 39.940778 
z
" style="fill:#1f77b4;"/>
   </g>
   <g id="patch_201">
    <path clip-path="url(#p9f6acbf71e)" d="M 381.436406 273.312 
L 383.05228 273.312 
L 383.05228 21.592181 
L 381.436406 21.592181 
z
" style="fill:#1f77b4;"/>
   </g>
   <g id="patch_202">
    <path clip-path="url(#p9f6acbf71e)" d="M 383.05228 273.312 
L 384.668154 273.312 
L 384.668154 19.872 
L 383.05228 19.872 
z
" style="fill:#1f77b4;"/>
   </g>
   <g id="matplotlib.axis_1">
    <g id="xtick_1">
     <g id="line2d_1">
      <defs>
       <path d="M 0 0 
L 0 3.5 
" id="mef6e233eef" style="stroke:#000000;stroke-width:0.8;"/>
      </defs>
      <g>
       <use style="stroke:#000000;stroke-width:0.8;" x="60.013977" xlink:href="#mef6e233eef" y="273.312"/>
      </g>
     </g>
     <g id="text_1">
      <!-- 0.0 -->
      <g transform="translate(52.062415 287.910437)scale(0.1 -0.1)">
       <defs>
        <path d="M 2034 4250 
Q 1547 4250 1301 3770 
Q 1056 3291 1056 2328 
Q 1056 1369 1301 889 
Q 1547 409 2034 409 
Q 2525 409 2770 889 
Q 3016 1369 3016 2328 
Q 3016 3291 2770 3770 
Q 2525 4250 2034 4250 
z
M 2034 4750 
Q 2819 4750 3233 4129 
Q 3647 3509 3647 2328 
Q 3647 1150 3233 529 
Q 2819 -91 2034 -91 
Q 1250 -91 836 529 
Q 422 1150 422 2328 
Q 422 3509 836 4129 
Q 1250 4750 2034 4750 
z
" id="DejaVuSans-30" transform="scale(0.015625)"/>
        <path d="M 684 794 
L 1344 794 
L 1344 0 
L 684 0 
L 684 794 
z
" id="DejaVuSans-2e" transform="scale(0.015625)"/>
       </defs>
       <use xlink:href="#DejaVuSans-30"/>
       <use x="63.623047" xlink:href="#DejaVuSans-2e"/>
       <use x="95.410156" xlink:href="#DejaVuSans-30"/>
      </g>
     </g>
    </g>
    <g id="xtick_2">
     <g id="line2d_2">
      <g>
       <use style="stroke:#000000;stroke-width:0.8;" x="124.944886" xlink:href="#mef6e233eef" y="273.312"/>
      </g>
     </g>
     <g id="text_2">
      <!-- 0.2 -->
      <g transform="translate(116.993324 287.910437)scale(0.1 -0.1)">
       <defs>
        <path d="M 1228 531 
L 3431 531 
L 3431 0 
L 469 0 
L 469 531 
Q 828 903 1448 1529 
Q 2069 2156 2228 2338 
Q 2531 2678 2651 2914 
Q 2772 3150 2772 3378 
Q 2772 3750 2511 3984 
Q 2250 4219 1831 4219 
Q 1534 4219 1204 4116 
Q 875 4013 500 3803 
L 500 4441 
Q 881 4594 1212 4672 
Q 1544 4750 1819 4750 
Q 2544 4750 2975 4387 
Q 3406 4025 3406 3419 
Q 3406 3131 3298 2873 
Q 3191 2616 2906 2266 
Q 2828 2175 2409 1742 
Q 1991 1309 1228 531 
z
" id="DejaVuSans-32" transform="scale(0.015625)"/>
       </defs>
       <use xlink:href="#DejaVuSans-30"/>
       <use x="63.623047" xlink:href="#DejaVuSans-2e"/>
       <use x="95.410156" xlink:href="#DejaVuSans-32"/>
      </g>
     </g>
    </g>
    <g id="xtick_3">
     <g id="line2d_3">
      <g>
       <use style="stroke:#000000;stroke-width:0.8;" x="189.875795" xlink:href="#mef6e233eef" y="273.312"/>
      </g>
     </g>
     <g id="text_3">
      <!-- 0.4 -->
      <g transform="translate(181.924233 287.910437)scale(0.1 -0.1)">
       <defs>
        <path d="M 2419 4116 
L 825 1625 
L 2419 1625 
L 2419 4116 
z
M 2253 4666 
L 3047 4666 
L 3047 1625 
L 3713 1625 
L 3713 1100 
L 3047 1100 
L 3047 0 
L 2419 0 
L 2419 1100 
L 313 1100 
L 313 1709 
L 2253 4666 
z
" id="DejaVuSans-34" transform="scale(0.015625)"/>
       </defs>
       <use xlink:href="#DejaVuSans-30"/>
       <use x="63.623047" xlink:href="#DejaVuSans-2e"/>
       <use x="95.410156" xlink:href="#DejaVuSans-34"/>
      </g>
     </g>
    </g>
    <g id="xtick_4">
     <g id="line2d_4">
      <g>
       <use style="stroke:#000000;stroke-width:0.8;" x="254.806705" xlink:href="#mef6e233eef" y="273.312"/>
      </g>
     </g>
     <g id="text_4">
      <!-- 0.6 -->
      <g transform="translate(246.855142 287.910437)scale(0.1 -0.1)">
       <defs>
        <path d="M 2113 2584 
Q 1688 2584 1439 2293 
Q 1191 2003 1191 1497 
Q 1191 994 1439 701 
Q 1688 409 2113 409 
Q 2538 409 2786 701 
Q 3034 994 3034 1497 
Q 3034 2003 2786 2293 
Q 2538 2584 2113 2584 
z
M 3366 4563 
L 3366 3988 
Q 3128 4100 2886 4159 
Q 2644 4219 2406 4219 
Q 1781 4219 1451 3797 
Q 1122 3375 1075 2522 
Q 1259 2794 1537 2939 
Q 1816 3084 2150 3084 
Q 2853 3084 3261 2657 
Q 3669 2231 3669 1497 
Q 3669 778 3244 343 
Q 2819 -91 2113 -91 
Q 1303 -91 875 529 
Q 447 1150 447 2328 
Q 447 3434 972 4092 
Q 1497 4750 2381 4750 
Q 2619 4750 2861 4703 
Q 3103 4656 3366 4563 
z
" id="DejaVuSans-36" transform="scale(0.015625)"/>
       </defs>
       <use xlink:href="#DejaVuSans-30"/>
       <use x="63.623047" xlink:href="#DejaVuSans-2e"/>
       <use x="95.410156" xlink:href="#DejaVuSans-36"/>
      </g>
     </g>
    </g>
    <g id="xtick_5">
     <g id="line2d_5">
      <g>
       <use style="stroke:#000000;stroke-width:0.8;" x="319.737614" xlink:href="#mef6e233eef" y="273.312"/>
      </g>
     </g>
     <g id="text_5">
      <!-- 0.8 -->
      <g transform="translate(311.786051 287.910437)scale(0.1 -0.1)">
       <defs>
        <path d="M 2034 2216 
Q 1584 2216 1326 1975 
Q 1069 1734 1069 1313 
Q 1069 891 1326 650 
Q 1584 409 2034 409 
Q 2484 409 2743 651 
Q 3003 894 3003 1313 
Q 3003 1734 2745 1975 
Q 2488 2216 2034 2216 
z
M 1403 2484 
Q 997 2584 770 2862 
Q 544 3141 544 3541 
Q 544 4100 942 4425 
Q 1341 4750 2034 4750 
Q 2731 4750 3128 4425 
Q 3525 4100 3525 3541 
Q 3525 3141 3298 2862 
Q 3072 2584 2669 2484 
Q 3125 2378 3379 2068 
Q 3634 1759 3634 1313 
Q 3634 634 3220 271 
Q 2806 -91 2034 -91 
Q 1263 -91 848 271 
Q 434 634 434 1313 
Q 434 1759 690 2068 
Q 947 2378 1403 2484 
z
M 1172 3481 
Q 1172 3119 1398 2916 
Q 1625 2713 2034 2713 
Q 2441 2713 2670 2916 
Q 2900 3119 2900 3481 
Q 2900 3844 2670 4047 
Q 2441 4250 2034 4250 
Q 1625 4250 1398 4047 
Q 1172 3844 1172 3481 
z
" id="DejaVuSans-38" transform="scale(0.015625)"/>
       </defs>
       <use xlink:href="#DejaVuSans-30"/>
       <use x="63.623047" xlink:href="#DejaVuSans-2e"/>
       <use x="95.410156" xlink:href="#DejaVuSans-38"/>
      </g>
     </g>
    </g>
    <g id="xtick_6">
     <g id="line2d_6">
      <g>
       <use style="stroke:#000000;stroke-width:0.8;" x="384.668523" xlink:href="#mef6e233eef" y="273.312"/>
      </g>
     </g>
     <g id="text_6">
      <!-- 1.0 -->
      <g transform="translate(376.71696 287.910437)scale(0.1 -0.1)">
       <defs>
        <path d="M 794 531 
L 1825 531 
L 1825 4091 
L 703 3866 
L 703 4441 
L 1819 4666 
L 2450 4666 
L 2450 531 
L 3481 531 
L 3481 0 
L 794 0 
L 794 531 
z
" id="DejaVuSans-31" transform="scale(0.015625)"/>
       </defs>
       <use xlink:href="#DejaVuSans-31"/>
       <use x="63.623047" xlink:href="#DejaVuSans-2e"/>
       <use x="95.410156" xlink:href="#DejaVuSans-30"/>
      </g>
     </g>
    </g>
    <g id="text_7">
     <!-- Propagation direction -->
     <g transform="translate(168.859219 301.588562)scale(0.1 -0.1)">
      <defs>
       <path d="M 1259 4147 
L 1259 2394 
L 2053 2394 
Q 2494 2394 2734 2622 
Q 2975 2850 2975 3272 
Q 2975 3691 2734 3919 
Q 2494 4147 2053 4147 
L 1259 4147 
z
M 628 4666 
L 2053 4666 
Q 2838 4666 3239 4311 
Q 3641 3956 3641 3272 
Q 3641 2581 3239 2228 
Q 2838 1875 2053 1875 
L 1259 1875 
L 1259 0 
L 628 0 
L 628 4666 
z
" id="DejaVuSans-50" transform="scale(0.015625)"/>
       <path d="M 2631 2963 
Q 2534 3019 2420 3045 
Q 2306 3072 2169 3072 
Q 1681 3072 1420 2755 
Q 1159 2438 1159 1844 
L 1159 0 
L 581 0 
L 581 3500 
L 1159 3500 
L 1159 2956 
Q 1341 3275 1631 3429 
Q 1922 3584 2338 3584 
Q 2397 3584 2469 3576 
Q 2541 3569 2628 3553 
L 2631 2963 
z
" id="DejaVuSans-72" transform="scale(0.015625)"/>
       <path d="M 1959 3097 
Q 1497 3097 1228 2736 
Q 959 2375 959 1747 
Q 959 1119 1226 758 
Q 1494 397 1959 397 
Q 2419 397 2687 759 
Q 2956 1122 2956 1747 
Q 2956 2369 2687 2733 
Q 2419 3097 1959 3097 
z
M 1959 3584 
Q 2709 3584 3137 3096 
Q 3566 2609 3566 1747 
Q 3566 888 3137 398 
Q 2709 -91 1959 -91 
Q 1206 -91 779 398 
Q 353 888 353 1747 
Q 353 2609 779 3096 
Q 1206 3584 1959 3584 
z
" id="DejaVuSans-6f" transform="scale(0.015625)"/>
       <path d="M 1159 525 
L 1159 -1331 
L 581 -1331 
L 581 3500 
L 1159 3500 
L 1159 2969 
Q 1341 3281 1617 3432 
Q 1894 3584 2278 3584 
Q 2916 3584 3314 3078 
Q 3713 2572 3713 1747 
Q 3713 922 3314 415 
Q 2916 -91 2278 -91 
Q 1894 -91 1617 61 
Q 1341 213 1159 525 
z
M 3116 1747 
Q 3116 2381 2855 2742 
Q 2594 3103 2138 3103 
Q 1681 3103 1420 2742 
Q 1159 2381 1159 1747 
Q 1159 1113 1420 752 
Q 1681 391 2138 391 
Q 2594 391 2855 752 
Q 3116 1113 3116 1747 
z
" id="DejaVuSans-70" transform="scale(0.015625)"/>
       <path d="M 2194 1759 
Q 1497 1759 1228 1600 
Q 959 1441 959 1056 
Q 959 750 1161 570 
Q 1363 391 1709 391 
Q 2188 391 2477 730 
Q 2766 1069 2766 1631 
L 2766 1759 
L 2194 1759 
z
M 3341 1997 
L 3341 0 
L 2766 0 
L 2766 531 
Q 2569 213 2275 61 
Q 1981 -91 1556 -91 
Q 1019 -91 701 211 
Q 384 513 384 1019 
Q 384 1609 779 1909 
Q 1175 2209 1959 2209 
L 2766 2209 
L 2766 2266 
Q 2766 2663 2505 2880 
Q 2244 3097 1772 3097 
Q 1472 3097 1187 3025 
Q 903 2953 641 2809 
L 641 3341 
Q 956 3463 1253 3523 
Q 1550 3584 1831 3584 
Q 2591 3584 2966 3190 
Q 3341 2797 3341 1997 
z
" id="DejaVuSans-61" transform="scale(0.015625)"/>
       <path d="M 2906 1791 
Q 2906 2416 2648 2759 
Q 2391 3103 1925 3103 
Q 1463 3103 1205 2759 
Q 947 2416 947 1791 
Q 947 1169 1205 825 
Q 1463 481 1925 481 
Q 2391 481 2648 825 
Q 2906 1169 2906 1791 
z
M 3481 434 
Q 3481 -459 3084 -895 
Q 2688 -1331 1869 -1331 
Q 1566 -1331 1297 -1286 
Q 1028 -1241 775 -1147 
L 775 -588 
Q 1028 -725 1275 -790 
Q 1522 -856 1778 -856 
Q 2344 -856 2625 -561 
Q 2906 -266 2906 331 
L 2906 616 
Q 2728 306 2450 153 
Q 2172 0 1784 0 
Q 1141 0 747 490 
Q 353 981 353 1791 
Q 353 2603 747 3093 
Q 1141 3584 1784 3584 
Q 2172 3584 2450 3431 
Q 2728 3278 2906 2969 
L 2906 3500 
L 3481 3500 
L 3481 434 
z
" id="DejaVuSans-67" transform="scale(0.015625)"/>
       <path d="M 1172 4494 
L 1172 3500 
L 2356 3500 
L 2356 3053 
L 1172 3053 
L 1172 1153 
Q 1172 725 1289 603 
Q 1406 481 1766 481 
L 2356 481 
L 2356 0 
L 1766 0 
Q 1100 0 847 248 
Q 594 497 594 1153 
L 594 3053 
L 172 3053 
L 172 3500 
L 594 3500 
L 594 4494 
L 1172 4494 
z
" id="DejaVuSans-74" transform="scale(0.015625)"/>
       <path d="M 603 3500 
L 1178 3500 
L 1178 0 
L 603 0 
L 603 3500 
z
M 603 4863 
L 1178 4863 
L 1178 4134 
L 603 4134 
L 603 4863 
z
" id="DejaVuSans-69" transform="scale(0.015625)"/>
       <path d="M 3513 2113 
L 3513 0 
L 2938 0 
L 2938 2094 
Q 2938 2591 2744 2837 
Q 2550 3084 2163 3084 
Q 1697 3084 1428 2787 
Q 1159 2491 1159 1978 
L 1159 0 
L 581 0 
L 581 3500 
L 1159 3500 
L 1159 2956 
Q 1366 3272 1645 3428 
Q 1925 3584 2291 3584 
Q 2894 3584 3203 3211 
Q 3513 2838 3513 2113 
z
" id="DejaVuSans-6e" transform="scale(0.015625)"/>
       <path id="DejaVuSans-20" transform="scale(0.015625)"/>
       <path d="M 2906 2969 
L 2906 4863 
L 3481 4863 
L 3481 0 
L 2906 0 
L 2906 525 
Q 2725 213 2448 61 
Q 2172 -91 1784 -91 
Q 1150 -91 751 415 
Q 353 922 353 1747 
Q 353 2572 751 3078 
Q 1150 3584 1784 3584 
Q 2172 3584 2448 3432 
Q 2725 3281 2906 2969 
z
M 947 1747 
Q 947 1113 1208 752 
Q 1469 391 1925 391 
Q 2381 391 2643 752 
Q 2906 1113 2906 1747 
Q 2906 2381 2643 2742 
Q 2381 3103 1925 3103 
Q 1469 3103 1208 2742 
Q 947 2381 947 1747 
z
" id="DejaVuSans-64" transform="scale(0.015625)"/>
       <path d="M 3597 1894 
L 3597 1613 
L 953 1613 
Q 991 1019 1311 708 
Q 1631 397 2203 397 
Q 2534 397 2845 478 
Q 3156 559 3463 722 
L 3463 178 
Q 3153 47 2828 -22 
Q 2503 -91 2169 -91 
Q 1331 -91 842 396 
Q 353 884 353 1716 
Q 353 2575 817 3079 
Q 1281 3584 2069 3584 
Q 2775 3584 3186 3129 
Q 3597 2675 3597 1894 
z
M 3022 2063 
Q 3016 2534 2758 2815 
Q 2500 3097 2075 3097 
Q 1594 3097 1305 2825 
Q 1016 2553 972 2059 
L 3022 2063 
z
" id="DejaVuSans-65" transform="scale(0.015625)"/>
       <path d="M 3122 3366 
L 3122 2828 
Q 2878 2963 2633 3030 
Q 2388 3097 2138 3097 
Q 1578 3097 1268 2742 
Q 959 2388 959 1747 
Q 959 1106 1268 751 
Q 1578 397 2138 397 
Q 2388 397 2633 464 
Q 2878 531 3122 666 
L 3122 134 
Q 2881 22 2623 -34 
Q 2366 -91 2075 -91 
Q 1284 -91 818 406 
Q 353 903 353 1747 
Q 353 2603 823 3093 
Q 1294 3584 2113 3584 
Q 2378 3584 2631 3529 
Q 2884 3475 3122 3366 
z
" id="DejaVuSans-63" transform="scale(0.015625)"/>
      </defs>
      <use xlink:href="#DejaVuSans-50"/>
      <use x="58.552734" xlink:href="#DejaVuSans-72"/>
      <use x="97.416016" xlink:href="#DejaVuSans-6f"/>
      <use x="158.597656" xlink:href="#DejaVuSans-70"/>
      <use x="222.074219" xlink:href="#DejaVuSans-61"/>
      <use x="283.353516" xlink:href="#DejaVuSans-67"/>
      <use x="346.830078" xlink:href="#DejaVuSans-61"/>
      <use x="408.109375" xlink:href="#DejaVuSans-74"/>
      <use x="447.318359" xlink:href="#DejaVuSans-69"/>
      <use x="475.101562" xlink:href="#DejaVuSans-6f"/>
      <use x="536.283203" xlink:href="#DejaVuSans-6e"/>
      <use x="599.662109" xlink:href="#DejaVuSans-20"/>
      <use x="631.449219" xlink:href="#DejaVuSans-64"/>
      <use x="694.925781" xlink:href="#DejaVuSans-69"/>
      <use x="722.708984" xlink:href="#DejaVuSans-72"/>
      <use x="761.572266" xlink:href="#DejaVuSans-65"/>
      <use x="823.095703" xlink:href="#DejaVuSans-63"/>
      <use x="878.076172" xlink:href="#DejaVuSans-74"/>
      <use x="917.285156" xlink:href="#DejaVuSans-69"/>
      <use x="945.068359" xlink:href="#DejaVuSans-6f"/>
      <use x="1006.25" xlink:href="#DejaVuSans-6e"/>
     </g>
    </g>
   </g>
   <g id="matplotlib.axis_2">
    <g id="ytick_1">
     <g id="line2d_7">
      <defs>
       <path d="M 0 0 
L -3.5 0 
" id="meeb7370dcf" style="stroke:#000000;stroke-width:0.8;"/>
      </defs>
      <g>
       <use style="stroke:#000000;stroke-width:0.8;" x="43.78125" xlink:href="#meeb7370dcf" y="273.312"/>
      </g>
     </g>
     <g id="text_8">
      <!-- 0.0 -->
      <g transform="translate(20.878125 277.111219)scale(0.1 -0.1)">
       <use xlink:href="#DejaVuSans-30"/>
       <use x="63.623047" xlink:href="#DejaVuSans-2e"/>
       <use x="95.410156" xlink:href="#DejaVuSans-30"/>
      </g>
     </g>
    </g>
    <g id="ytick_2">
     <g id="line2d_8">
      <g>
       <use style="stroke:#000000;stroke-width:0.8;" x="43.78125" xlink:href="#meeb7370dcf" y="216.233987"/>
      </g>
     </g>
     <g id="text_9">
      <!-- 0.5 -->
      <g transform="translate(20.878125 220.033206)scale(0.1 -0.1)">
       <defs>
        <path d="M 691 4666 
L 3169 4666 
L 3169 4134 
L 1269 4134 
L 1269 2991 
Q 1406 3038 1543 3061 
Q 1681 3084 1819 3084 
Q 2600 3084 3056 2656 
Q 3513 2228 3513 1497 
Q 3513 744 3044 326 
Q 2575 -91 1722 -91 
Q 1428 -91 1123 -41 
Q 819 9 494 109 
L 494 744 
Q 775 591 1075 516 
Q 1375 441 1709 441 
Q 2250 441 2565 725 
Q 2881 1009 2881 1497 
Q 2881 1984 2565 2268 
Q 2250 2553 1709 2553 
Q 1456 2553 1204 2497 
Q 953 2441 691 2322 
L 691 4666 
z
" id="DejaVuSans-35" transform="scale(0.015625)"/>
       </defs>
       <use xlink:href="#DejaVuSans-30"/>
       <use x="63.623047" xlink:href="#DejaVuSans-2e"/>
       <use x="95.410156" xlink:href="#DejaVuSans-35"/>
      </g>
     </g>
    </g>
    <g id="ytick_3">
     <g id="line2d_9">
      <g>
       <use style="stroke:#000000;stroke-width:0.8;" x="43.78125" xlink:href="#meeb7370dcf" y="159.155974"/>
      </g>
     </g>
     <g id="text_10">
      <!-- 1.0 -->
      <g transform="translate(20.878125 162.955193)scale(0.1 -0.1)">
       <use xlink:href="#DejaVuSans-31"/>
       <use x="63.623047" xlink:href="#DejaVuSans-2e"/>
       <use x="95.410156" xlink:href="#DejaVuSans-30"/>
      </g>
     </g>
    </g>
    <g id="ytick_4">
     <g id="line2d_10">
      <g>
       <use style="stroke:#000000;stroke-width:0.8;" x="43.78125" xlink:href="#meeb7370dcf" y="102.077961"/>
      </g>
     </g>
     <g id="text_11">
      <!-- 1.5 -->
      <g transform="translate(20.878125 105.87718)scale(0.1 -0.1)">
       <use xlink:href="#DejaVuSans-31"/>
       <use x="63.623047" xlink:href="#DejaVuSans-2e"/>
       <use x="95.410156" xlink:href="#DejaVuSans-35"/>
      </g>
     </g>
    </g>
    <g id="ytick_5">
     <g id="line2d_11">
      <g>
       <use style="stroke:#000000;stroke-width:0.8;" x="43.78125" xlink:href="#meeb7370dcf" y="44.999948"/>
      </g>
     </g>
     <g id="text_12">
      <!-- 2.0 -->
      <g transform="translate(20.878125 48.799166)scale(0.1 -0.1)">
       <use xlink:href="#DejaVuSans-32"/>
       <use x="63.623047" xlink:href="#DejaVuSans-2e"/>
       <use x="95.410156" xlink:href="#DejaVuSans-30"/>
      </g>
     </g>
    </g>
    <g id="text_13">
     <!-- Probability density -->
     <g transform="translate(14.798438 186.606781)rotate(-90)scale(0.1 -0.1)">
      <defs>
       <path d="M 3116 1747 
Q 3116 2381 2855 2742 
Q 2594 3103 2138 3103 
Q 1681 3103 1420 2742 
Q 1159 2381 1159 1747 
Q 1159 1113 1420 752 
Q 1681 391 2138 391 
Q 2594 391 2855 752 
Q 3116 1113 3116 1747 
z
M 1159 2969 
Q 1341 3281 1617 3432 
Q 1894 3584 2278 3584 
Q 2916 3584 3314 3078 
Q 3713 2572 3713 1747 
Q 3713 922 3314 415 
Q 2916 -91 2278 -91 
Q 1894 -91 1617 61 
Q 1341 213 1159 525 
L 1159 0 
L 581 0 
L 581 4863 
L 1159 4863 
L 1159 2969 
z
" id="DejaVuSans-62" transform="scale(0.015625)"/>
       <path d="M 603 4863 
L 1178 4863 
L 1178 0 
L 603 0 
L 603 4863 
z
" id="DejaVuSans-6c" transform="scale(0.015625)"/>
       <path d="M 2059 -325 
Q 1816 -950 1584 -1140 
Q 1353 -1331 966 -1331 
L 506 -1331 
L 506 -850 
L 844 -850 
Q 1081 -850 1212 -737 
Q 1344 -625 1503 -206 
L 1606 56 
L 191 3500 
L 800 3500 
L 1894 763 
L 2988 3500 
L 3597 3500 
L 2059 -325 
z
" id="DejaVuSans-79" transform="scale(0.015625)"/>
       <path d="M 2834 3397 
L 2834 2853 
Q 2591 2978 2328 3040 
Q 2066 3103 1784 3103 
Q 1356 3103 1142 2972 
Q 928 2841 928 2578 
Q 928 2378 1081 2264 
Q 1234 2150 1697 2047 
L 1894 2003 
Q 2506 1872 2764 1633 
Q 3022 1394 3022 966 
Q 3022 478 2636 193 
Q 2250 -91 1575 -91 
Q 1294 -91 989 -36 
Q 684 19 347 128 
L 347 722 
Q 666 556 975 473 
Q 1284 391 1588 391 
Q 1994 391 2212 530 
Q 2431 669 2431 922 
Q 2431 1156 2273 1281 
Q 2116 1406 1581 1522 
L 1381 1569 
Q 847 1681 609 1914 
Q 372 2147 372 2553 
Q 372 3047 722 3315 
Q 1072 3584 1716 3584 
Q 2034 3584 2315 3537 
Q 2597 3491 2834 3397 
z
" id="DejaVuSans-73" transform="scale(0.015625)"/>
      </defs>
      <use xlink:href="#DejaVuSans-50"/>
      <use x="58.552734" xlink:href="#DejaVuSans-72"/>
      <use x="97.416016" xlink:href="#DejaVuSans-6f"/>
      <use x="158.597656" xlink:href="#DejaVuSans-62"/>
      <use x="222.074219" xlink:href="#DejaVuSans-61"/>
      <use x="283.353516" xlink:href="#DejaVuSans-62"/>
      <use x="346.830078" xlink:href="#DejaVuSans-69"/>
      <use x="374.613281" xlink:href="#DejaVuSans-6c"/>
      <use x="402.396484" xlink:href="#DejaVuSans-69"/>
      <use x="430.179688" xlink:href="#DejaVuSans-74"/>
      <use x="469.388672" xlink:href="#DejaVuSans-79"/>
      <use x="528.568359" xlink:href="#DejaVuSans-20"/>
      <use x="560.355469" xlink:href="#DejaVuSans-64"/>
      <use x="623.832031" xlink:href="#DejaVuSans-65"/>
      <use x="685.355469" xlink:href="#DejaVuSans-6e"/>
      <use x="748.734375" xlink:href="#DejaVuSans-73"/>
      <use x="800.833984" xlink:href="#DejaVuSans-69"/>
      <use x="828.617188" xlink:href="#DejaVuSans-74"/>
      <use x="867.826172" xlink:href="#DejaVuSans-79"/>
     </g>
    </g>
   </g>
   <g id="line2d_12">
    <path clip-path="url(#p9f6acbf71e)" d="M 60.013977 273.312 
L 384.668523 44.999948 
L 384.668523 44.999948 
" style="fill:none;stroke:#ff7f0e;stroke-linecap:square;stroke-width:1.5;"/>
   </g>
   <g id="patch_203">
    <path d="M 43.78125 273.312 
L 43.78125 7.2 
" style="fill:none;stroke:#000000;stroke-linecap:square;stroke-linejoin:miter;stroke-width:0.8;"/>
   </g>
   <g id="patch_204">
    <path d="M 400.90125 273.312 
L 400.90125 7.2 
" style="fill:none;stroke:#000000;stroke-linecap:square;stroke-linejoin:miter;stroke-width:0.8;"/>
   </g>
   <g id="patch_205">
    <path d="M 43.78125 273.312 
L 400.90125 273.312 
" style="fill:none;stroke:#000000;stroke-linecap:square;stroke-linejoin:miter;stroke-width:0.8;"/>
   </g>
   <g id="patch_206">
    <path d="M 43.78125 7.2 
L 400.90125 7.2 
" style="fill:none;stroke:#000000;stroke-linecap:square;stroke-linejoin:miter;stroke-width:0.8;"/>
   </g>
  </g>
 </g>
 <defs>
  <clipPath id="p9f6acbf71e">
   <rect height="266.112" width="357.12" x="43.78125" y="7.2"/>
  </clipPath>
 </defs>
</svg>
