<?xml version="1.0" encoding="utf-8" standalone="no"?>
<!DOCTYPE svg PUBLIC "-//W3C//DTD SVG 1.1//EN"
  "http://www.w3.org/Graphics/SVG/1.1/DTD/svg11.dtd">
<svg height="310.86825pt" version="1.1" viewBox="0 0 414.46375 310.86825" width="414.46375pt" xmlns="http://www.w3.org/2000/svg" xmlns:xlink="http://www.w3.org/1999/xlink">
 <metadata>
  <rdf:RDF xmlns:cc="http://creativecommons.org/ns#" xmlns:dc="http://purl.org/dc/elements/1.1/" xmlns:rdf="http://www.w3.org/1999/02/22-rdf-syntax-ns#">
   <cc:Work>
    <dc:type rdf:resource="http://purl.org/dc/dcmitype/StillImage"/>
    <dc:date>2021-07-08T06:11:04.849237</dc:date>
    <dc:format>image/svg+xml</dc:format>
    <dc:creator>
     <cc:Agent>
      <dc:title>Matplotlib v3.4.2, https://matplotlib.org/</dc:title>
     </cc:Agent>
    </dc:creator>
   </cc:Work>
  </rdf:RDF>
 </metadata>
 <defs>
  <style type="text/css">*{stroke-linecap:butt;stroke-linejoin:round;}</style>
 </defs>
 <g id="figure_1">
  <g id="patch_1">
   <path d="M 0 310.86825 
L 414.46375 310.86825 
L 414.46375 0 
L 0 0 
z
" style="fill:#ffffff;"/>
  </g>
  <g id="axes_1">
   <g id="patch_2">
    <path d="M 50.14375 273.312 
L 407.26375 273.312 
L 407.26375 7.2 
L 50.14375 7.2 
z
" style="fill:#ffffff;"/>
   </g>
   <g id="patch_3">
    <path clip-path="url(#p5cbdb6edf2)" d="M 66.879123 273.312 
L 68.499849 273.312 
L 68.499849 272.122141 
L 66.879123 272.122141 
z
" style="fill:#1f77b4;"/>
   </g>
   <g id="patch_4">
    <path clip-path="url(#p5cbdb6edf2)" d="M 68.499849 273.312 
L 70.120575 273.312 
L 70.120575 270.932282 
L 68.499849 270.932282 
z
" style="fill:#1f77b4;"/>
   </g>
   <g id="patch_5">
    <path clip-path="url(#p5cbdb6edf2)" d="M 70.120575 273.312 
L 71.741301 273.312 
L 71.741301 269.742423 
L 70.120575 269.742423 
z
" style="fill:#1f77b4;"/>
   </g>
   <g id="patch_6">
    <path clip-path="url(#p5cbdb6edf2)" d="M 71.741301 273.312 
L 73.362027 273.312 
L 73.362027 270.337352 
L 71.741301 270.337352 
z
" style="fill:#1f77b4;"/>
   </g>
   <g id="patch_7">
    <path clip-path="url(#p5cbdb6edf2)" d="M 73.362027 273.312 
L 74.982753 273.312 
L 74.982753 266.767775 
L 73.362027 266.767775 
z
" style="fill:#1f77b4;"/>
   </g>
   <g id="patch_8">
    <path clip-path="url(#p5cbdb6edf2)" d="M 74.982753 273.312 
L 76.603479 273.312 
L 76.603479 266.172845 
L 74.982753 266.172845 
z
" style="fill:#1f77b4;"/>
   </g>
   <g id="patch_9">
    <path clip-path="url(#p5cbdb6edf2)" d="M 76.603479 273.312 
L 78.224205 273.312 
L 78.224205 263.198197 
L 76.603479 263.198197 
z
" style="fill:#1f77b4;"/>
   </g>
   <g id="patch_10">
    <path clip-path="url(#p5cbdb6edf2)" d="M 78.224205 273.312 
L 79.844931 273.312 
L 79.844931 266.767775 
L 78.224205 266.767775 
z
" style="fill:#1f77b4;"/>
   </g>
   <g id="patch_11">
    <path clip-path="url(#p5cbdb6edf2)" d="M 79.844931 273.312 
L 81.465657 273.312 
L 81.465657 264.982986 
L 79.844931 264.982986 
z
" style="fill:#1f77b4;"/>
   </g>
   <g id="patch_12">
    <path clip-path="url(#p5cbdb6edf2)" d="M 81.465657 273.312 
L 83.086383 273.312 
L 83.086383 263.198197 
L 81.465657 263.198197 
z
" style="fill:#1f77b4;"/>
   </g>
   <g id="patch_13">
    <path clip-path="url(#p5cbdb6edf2)" d="M 83.086383 273.312 
L 84.707109 273.312 
L 84.707109 261.413408 
L 83.086383 261.413408 
z
" style="fill:#1f77b4;"/>
   </g>
   <g id="patch_14">
    <path clip-path="url(#p5cbdb6edf2)" d="M 84.707109 273.312 
L 86.327835 273.312 
L 86.327835 261.413408 
L 84.707109 261.413408 
z
" style="fill:#1f77b4;"/>
   </g>
   <g id="patch_15">
    <path clip-path="url(#p5cbdb6edf2)" d="M 86.327835 273.312 
L 87.948561 273.312 
L 87.948561 263.198197 
L 86.327835 263.198197 
z
" style="fill:#1f77b4;"/>
   </g>
   <g id="patch_16">
    <path clip-path="url(#p5cbdb6edf2)" d="M 87.948561 273.312 
L 89.569287 273.312 
L 89.569287 257.248901 
L 87.948561 257.248901 
z
" style="fill:#1f77b4;"/>
   </g>
   <g id="patch_17">
    <path clip-path="url(#p5cbdb6edf2)" d="M 89.569287 273.312 
L 91.190013 273.312 
L 91.190013 256.059042 
L 89.569287 256.059042 
z
" style="fill:#1f77b4;"/>
   </g>
   <g id="patch_18">
    <path clip-path="url(#p5cbdb6edf2)" d="M 91.190013 273.312 
L 92.810739 273.312 
L 92.810739 246.540169 
L 91.190013 246.540169 
z
" style="fill:#1f77b4;"/>
   </g>
   <g id="patch_19">
    <path clip-path="url(#p5cbdb6edf2)" d="M 92.810739 273.312 
L 94.431465 273.312 
L 94.431465 257.843831 
L 92.810739 257.843831 
z
" style="fill:#1f77b4;"/>
   </g>
   <g id="patch_20">
    <path clip-path="url(#p5cbdb6edf2)" d="M 94.431465 273.312 
L 96.052191 273.312 
L 96.052191 252.489465 
L 94.431465 252.489465 
z
" style="fill:#1f77b4;"/>
   </g>
   <g id="patch_21">
    <path clip-path="url(#p5cbdb6edf2)" d="M 96.052191 273.312 
L 97.672917 273.312 
L 97.672917 250.704676 
L 96.052191 250.704676 
z
" style="fill:#1f77b4;"/>
   </g>
   <g id="patch_22">
    <path clip-path="url(#p5cbdb6edf2)" d="M 97.672917 273.312 
L 99.293643 273.312 
L 99.293643 253.679324 
L 97.672917 253.679324 
z
" style="fill:#1f77b4;"/>
   </g>
   <g id="patch_23">
    <path clip-path="url(#p5cbdb6edf2)" d="M 99.293643 273.312 
L 100.914369 273.312 
L 100.914369 247.730028 
L 99.293643 247.730028 
z
" style="fill:#1f77b4;"/>
   </g>
   <g id="patch_24">
    <path clip-path="url(#p5cbdb6edf2)" d="M 100.914369 273.312 
L 102.535095 273.312 
L 102.535095 238.211155 
L 100.914369 238.211155 
z
" style="fill:#1f77b4;"/>
   </g>
   <g id="patch_25">
    <path clip-path="url(#p5cbdb6edf2)" d="M 102.535095 273.312 
L 104.155821 273.312 
L 104.155821 251.299606 
L 102.535095 251.299606 
z
" style="fill:#1f77b4;"/>
   </g>
   <g id="patch_26">
    <path clip-path="url(#p5cbdb6edf2)" d="M 104.155821 273.312 
L 105.776547 273.312 
L 105.776547 250.704676 
L 104.155821 250.704676 
z
" style="fill:#1f77b4;"/>
   </g>
   <g id="patch_27">
    <path clip-path="url(#p5cbdb6edf2)" d="M 105.776547 273.312 
L 107.397273 273.312 
L 107.397273 239.401014 
L 105.776547 239.401014 
z
" style="fill:#1f77b4;"/>
   </g>
   <g id="patch_28">
    <path clip-path="url(#p5cbdb6edf2)" d="M 107.397273 273.312 
L 109.017999 273.312 
L 109.017999 244.160451 
L 107.397273 244.160451 
z
" style="fill:#1f77b4;"/>
   </g>
   <g id="patch_29">
    <path clip-path="url(#p5cbdb6edf2)" d="M 109.017999 273.312 
L 110.638725 273.312 
L 110.638725 243.565521 
L 109.017999 243.565521 
z
" style="fill:#1f77b4;"/>
   </g>
   <g id="patch_30">
    <path clip-path="url(#p5cbdb6edf2)" d="M 110.638725 273.312 
L 112.259451 273.312 
L 112.259451 229.882141 
L 110.638725 229.882141 
z
" style="fill:#1f77b4;"/>
   </g>
   <g id="patch_31">
    <path clip-path="url(#p5cbdb6edf2)" d="M 112.259451 273.312 
L 113.880177 273.312 
L 113.880177 228.692282 
L 112.259451 228.692282 
z
" style="fill:#1f77b4;"/>
   </g>
   <g id="patch_32">
    <path clip-path="url(#p5cbdb6edf2)" d="M 113.880177 273.312 
L 115.500903 273.312 
L 115.500903 240.590873 
L 113.880177 240.590873 
z
" style="fill:#1f77b4;"/>
   </g>
   <g id="patch_33">
    <path clip-path="url(#p5cbdb6edf2)" d="M 115.500903 273.312 
L 117.12163 273.312 
L 117.12163 237.021296 
L 115.500903 237.021296 
z
" style="fill:#1f77b4;"/>
   </g>
   <g id="patch_34">
    <path clip-path="url(#p5cbdb6edf2)" d="M 117.12163 273.312 
L 118.742356 273.312 
L 118.742356 239.995944 
L 117.12163 239.995944 
z
" style="fill:#1f77b4;"/>
   </g>
   <g id="patch_35">
    <path clip-path="url(#p5cbdb6edf2)" d="M 118.742356 273.312 
L 120.363082 273.312 
L 120.363082 234.046648 
L 118.742356 234.046648 
z
" style="fill:#1f77b4;"/>
   </g>
   <g id="patch_36">
    <path clip-path="url(#p5cbdb6edf2)" d="M 120.363082 273.312 
L 121.983808 273.312 
L 121.983808 235.236507 
L 120.363082 235.236507 
z
" style="fill:#1f77b4;"/>
   </g>
   <g id="patch_37">
    <path clip-path="url(#p5cbdb6edf2)" d="M 121.983808 273.312 
L 123.604534 273.312 
L 123.604534 229.882141 
L 121.983808 229.882141 
z
" style="fill:#1f77b4;"/>
   </g>
   <g id="patch_38">
    <path clip-path="url(#p5cbdb6edf2)" d="M 123.604534 273.312 
L 125.22526 273.312 
L 125.22526 239.995944 
L 123.604534 239.995944 
z
" style="fill:#1f77b4;"/>
   </g>
   <g id="patch_39">
    <path clip-path="url(#p5cbdb6edf2)" d="M 125.22526 273.312 
L 126.845986 273.312 
L 126.845986 228.692282 
L 125.22526 228.692282 
z
" style="fill:#1f77b4;"/>
   </g>
   <g id="patch_40">
    <path clip-path="url(#p5cbdb6edf2)" d="M 126.845986 273.312 
L 128.466712 273.312 
L 128.466712 229.287211 
L 126.845986 229.287211 
z
" style="fill:#1f77b4;"/>
   </g>
   <g id="patch_41">
    <path clip-path="url(#p5cbdb6edf2)" d="M 128.466712 273.312 
L 130.087438 273.312 
L 130.087438 235.831437 
L 128.466712 235.831437 
z
" style="fill:#1f77b4;"/>
   </g>
   <g id="patch_42">
    <path clip-path="url(#p5cbdb6edf2)" d="M 130.087438 273.312 
L 131.708164 273.312 
L 131.708164 235.236507 
L 130.087438 235.236507 
z
" style="fill:#1f77b4;"/>
   </g>
   <g id="patch_43">
    <path clip-path="url(#p5cbdb6edf2)" d="M 131.708164 273.312 
L 133.32889 273.312 
L 133.32889 223.337915 
L 131.708164 223.337915 
z
" style="fill:#1f77b4;"/>
   </g>
   <g id="patch_44">
    <path clip-path="url(#p5cbdb6edf2)" d="M 133.32889 273.312 
L 134.949616 273.312 
L 134.949616 227.502423 
L 133.32889 227.502423 
z
" style="fill:#1f77b4;"/>
   </g>
   <g id="patch_45">
    <path clip-path="url(#p5cbdb6edf2)" d="M 134.949616 273.312 
L 136.570342 273.312 
L 136.570342 222.148056 
L 134.949616 222.148056 
z
" style="fill:#1f77b4;"/>
   </g>
   <g id="patch_46">
    <path clip-path="url(#p5cbdb6edf2)" d="M 136.570342 273.312 
L 138.191068 273.312 
L 138.191068 219.768338 
L 136.570342 219.768338 
z
" style="fill:#1f77b4;"/>
   </g>
   <g id="patch_47">
    <path clip-path="url(#p5cbdb6edf2)" d="M 138.191068 273.312 
L 139.811794 273.312 
L 139.811794 227.502423 
L 138.191068 227.502423 
z
" style="fill:#1f77b4;"/>
   </g>
   <g id="patch_48">
    <path clip-path="url(#p5cbdb6edf2)" d="M 139.811794 273.312 
L 141.43252 273.312 
L 141.43252 220.958197 
L 139.811794 220.958197 
z
" style="fill:#1f77b4;"/>
   </g>
   <g id="patch_49">
    <path clip-path="url(#p5cbdb6edf2)" d="M 141.43252 273.312 
L 143.053246 273.312 
L 143.053246 222.742986 
L 141.43252 222.742986 
z
" style="fill:#1f77b4;"/>
   </g>
   <g id="patch_50">
    <path clip-path="url(#p5cbdb6edf2)" d="M 143.053246 273.312 
L 144.673972 273.312 
L 144.673972 218.578479 
L 143.053246 218.578479 
z
" style="fill:#1f77b4;"/>
   </g>
   <g id="patch_51">
    <path clip-path="url(#p5cbdb6edf2)" d="M 144.673972 273.312 
L 146.294698 273.312 
L 146.294698 220.958197 
L 144.673972 220.958197 
z
" style="fill:#1f77b4;"/>
   </g>
   <g id="patch_52">
    <path clip-path="url(#p5cbdb6edf2)" d="M 146.294698 273.312 
L 147.915424 273.312 
L 147.915424 208.464676 
L 146.294698 208.464676 
z
" style="fill:#1f77b4;"/>
   </g>
   <g id="patch_53">
    <path clip-path="url(#p5cbdb6edf2)" d="M 147.915424 273.312 
L 149.53615 273.312 
L 149.53615 210.844394 
L 147.915424 210.844394 
z
" style="fill:#1f77b4;"/>
   </g>
   <g id="patch_54">
    <path clip-path="url(#p5cbdb6edf2)" d="M 149.53615 273.312 
L 151.156876 273.312 
L 151.156876 209.059606 
L 149.53615 209.059606 
z
" style="fill:#1f77b4;"/>
   </g>
   <g id="patch_55">
    <path clip-path="url(#p5cbdb6edf2)" d="M 151.156876 273.312 
L 152.777602 273.312 
L 152.777602 215.008901 
L 151.156876 215.008901 
z
" style="fill:#1f77b4;"/>
   </g>
   <g id="patch_56">
    <path clip-path="url(#p5cbdb6edf2)" d="M 152.777602 273.312 
L 154.398328 273.312 
L 154.398328 218.578479 
L 152.777602 218.578479 
z
" style="fill:#1f77b4;"/>
   </g>
   <g id="patch_57">
    <path clip-path="url(#p5cbdb6edf2)" d="M 154.398328 273.312 
L 156.019054 273.312 
L 156.019054 223.337915 
L 154.398328 223.337915 
z
" style="fill:#1f77b4;"/>
   </g>
   <g id="patch_58">
    <path clip-path="url(#p5cbdb6edf2)" d="M 156.019054 273.312 
L 157.63978 273.312 
L 157.63978 211.439324 
L 156.019054 211.439324 
z
" style="fill:#1f77b4;"/>
   </g>
   <g id="patch_59">
    <path clip-path="url(#p5cbdb6edf2)" d="M 157.63978 273.312 
L 159.260506 273.312 
L 159.260506 207.869746 
L 157.63978 207.869746 
z
" style="fill:#1f77b4;"/>
   </g>
   <g id="patch_60">
    <path clip-path="url(#p5cbdb6edf2)" d="M 159.260506 273.312 
L 160.881232 273.312 
L 160.881232 198.945803 
L 159.260506 198.945803 
z
" style="fill:#1f77b4;"/>
   </g>
   <g id="patch_61">
    <path clip-path="url(#p5cbdb6edf2)" d="M 160.881232 273.312 
L 162.501958 273.312 
L 162.501958 204.895099 
L 160.881232 204.895099 
z
" style="fill:#1f77b4;"/>
   </g>
   <g id="patch_62">
    <path clip-path="url(#p5cbdb6edf2)" d="M 162.501958 273.312 
L 164.122684 273.312 
L 164.122684 197.755944 
L 162.501958 197.755944 
z
" style="fill:#1f77b4;"/>
   </g>
   <g id="patch_63">
    <path clip-path="url(#p5cbdb6edf2)" d="M 164.122684 273.312 
L 165.74341 273.312 
L 165.74341 212.629183 
L 164.122684 212.629183 
z
" style="fill:#1f77b4;"/>
   </g>
   <g id="patch_64">
    <path clip-path="url(#p5cbdb6edf2)" d="M 165.74341 273.312 
L 167.364137 273.312 
L 167.364137 201.920451 
L 165.74341 201.920451 
z
" style="fill:#1f77b4;"/>
   </g>
   <g id="patch_65">
    <path clip-path="url(#p5cbdb6edf2)" d="M 167.364137 273.312 
L 168.984863 273.312 
L 168.984863 191.806648 
L 167.364137 191.806648 
z
" style="fill:#1f77b4;"/>
   </g>
   <g id="patch_66">
    <path clip-path="url(#p5cbdb6edf2)" d="M 168.984863 273.312 
L 170.605589 273.312 
L 170.605589 194.781296 
L 168.984863 194.781296 
z
" style="fill:#1f77b4;"/>
   </g>
   <g id="patch_67">
    <path clip-path="url(#p5cbdb6edf2)" d="M 170.605589 273.312 
L 172.226315 273.312 
L 172.226315 201.325521 
L 170.605589 201.325521 
z
" style="fill:#1f77b4;"/>
   </g>
   <g id="patch_68">
    <path clip-path="url(#p5cbdb6edf2)" d="M 172.226315 273.312 
L 173.847041 273.312 
L 173.847041 195.376225 
L 172.226315 195.376225 
z
" style="fill:#1f77b4;"/>
   </g>
   <g id="patch_69">
    <path clip-path="url(#p5cbdb6edf2)" d="M 173.847041 273.312 
L 175.467767 273.312 
L 175.467767 184.072563 
L 173.847041 184.072563 
z
" style="fill:#1f77b4;"/>
   </g>
   <g id="patch_70">
    <path clip-path="url(#p5cbdb6edf2)" d="M 175.467767 273.312 
L 177.088493 273.312 
L 177.088493 185.857352 
L 175.467767 185.857352 
z
" style="fill:#1f77b4;"/>
   </g>
   <g id="patch_71">
    <path clip-path="url(#p5cbdb6edf2)" d="M 177.088493 273.312 
L 178.709219 273.312 
L 178.709219 189.42693 
L 177.088493 189.42693 
z
" style="fill:#1f77b4;"/>
   </g>
   <g id="patch_72">
    <path clip-path="url(#p5cbdb6edf2)" d="M 178.709219 273.312 
L 180.329945 273.312 
L 180.329945 186.452282 
L 178.709219 186.452282 
z
" style="fill:#1f77b4;"/>
   </g>
   <g id="patch_73">
    <path clip-path="url(#p5cbdb6edf2)" d="M 180.329945 273.312 
L 181.950671 273.312 
L 181.950671 189.42693 
L 180.329945 189.42693 
z
" style="fill:#1f77b4;"/>
   </g>
   <g id="patch_74">
    <path clip-path="url(#p5cbdb6edf2)" d="M 181.950671 273.312 
L 183.571397 273.312 
L 183.571397 182.882704 
L 181.950671 182.882704 
z
" style="fill:#1f77b4;"/>
   </g>
   <g id="patch_75">
    <path clip-path="url(#p5cbdb6edf2)" d="M 183.571397 273.312 
L 185.192123 273.312 
L 185.192123 181.097915 
L 183.571397 181.097915 
z
" style="fill:#1f77b4;"/>
   </g>
   <g id="patch_76">
    <path clip-path="url(#p5cbdb6edf2)" d="M 185.192123 273.312 
L 186.812849 273.312 
L 186.812849 190.616789 
L 185.192123 190.616789 
z
" style="fill:#1f77b4;"/>
   </g>
   <g id="patch_77">
    <path clip-path="url(#p5cbdb6edf2)" d="M 186.812849 273.312 
L 188.433575 273.312 
L 188.433575 179.908056 
L 186.812849 179.908056 
z
" style="fill:#1f77b4;"/>
   </g>
   <g id="patch_78">
    <path clip-path="url(#p5cbdb6edf2)" d="M 188.433575 273.312 
L 190.054301 273.312 
L 190.054301 187.642141 
L 188.433575 187.642141 
z
" style="fill:#1f77b4;"/>
   </g>
   <g id="patch_79">
    <path clip-path="url(#p5cbdb6edf2)" d="M 190.054301 273.312 
L 191.675027 273.312 
L 191.675027 178.123268 
L 190.054301 178.123268 
z
" style="fill:#1f77b4;"/>
   </g>
   <g id="patch_80">
    <path clip-path="url(#p5cbdb6edf2)" d="M 191.675027 273.312 
L 193.295753 273.312 
L 193.295753 176.933408 
L 191.675027 176.933408 
z
" style="fill:#1f77b4;"/>
   </g>
   <g id="patch_81">
    <path clip-path="url(#p5cbdb6edf2)" d="M 193.295753 273.312 
L 194.916479 273.312 
L 194.916479 183.477634 
L 193.295753 183.477634 
z
" style="fill:#1f77b4;"/>
   </g>
   <g id="patch_82">
    <path clip-path="url(#p5cbdb6edf2)" d="M 194.916479 273.312 
L 196.537205 273.312 
L 196.537205 187.642141 
L 194.916479 187.642141 
z
" style="fill:#1f77b4;"/>
   </g>
   <g id="patch_83">
    <path clip-path="url(#p5cbdb6edf2)" d="M 196.537205 273.312 
L 198.157931 273.312 
L 198.157931 160.27538 
L 196.537205 160.27538 
z
" style="fill:#1f77b4;"/>
   </g>
   <g id="patch_84">
    <path clip-path="url(#p5cbdb6edf2)" d="M 198.157931 273.312 
L 199.778657 273.312 
L 199.778657 177.528338 
L 198.157931 177.528338 
z
" style="fill:#1f77b4;"/>
   </g>
   <g id="patch_85">
    <path clip-path="url(#p5cbdb6edf2)" d="M 199.778657 273.312 
L 201.399383 273.312 
L 201.399383 173.958761 
L 199.778657 173.958761 
z
" style="fill:#1f77b4;"/>
   </g>
   <g id="patch_86">
    <path clip-path="url(#p5cbdb6edf2)" d="M 201.399383 273.312 
L 203.020109 273.312 
L 203.020109 179.908056 
L 201.399383 179.908056 
z
" style="fill:#1f77b4;"/>
   </g>
   <g id="patch_87">
    <path clip-path="url(#p5cbdb6edf2)" d="M 203.020109 273.312 
L 204.640835 273.312 
L 204.640835 184.072563 
L 203.020109 184.072563 
z
" style="fill:#1f77b4;"/>
   </g>
   <g id="patch_88">
    <path clip-path="url(#p5cbdb6edf2)" d="M 204.640835 273.312 
L 206.261561 273.312 
L 206.261561 162.655099 
L 204.640835 162.655099 
z
" style="fill:#1f77b4;"/>
   </g>
   <g id="patch_89">
    <path clip-path="url(#p5cbdb6edf2)" d="M 206.261561 273.312 
L 207.882287 273.312 
L 207.882287 162.060169 
L 206.261561 162.060169 
z
" style="fill:#1f77b4;"/>
   </g>
   <g id="patch_90">
    <path clip-path="url(#p5cbdb6edf2)" d="M 207.882287 273.312 
L 209.503013 273.312 
L 209.503013 178.123268 
L 207.882287 178.123268 
z
" style="fill:#1f77b4;"/>
   </g>
   <g id="patch_91">
    <path clip-path="url(#p5cbdb6edf2)" d="M 209.503013 273.312 
L 211.123739 273.312 
L 211.123739 175.743549 
L 209.503013 175.743549 
z
" style="fill:#1f77b4;"/>
   </g>
   <g id="patch_92">
    <path clip-path="url(#p5cbdb6edf2)" d="M 211.123739 273.312 
L 212.744465 273.312 
L 212.744465 167.414535 
L 211.123739 167.414535 
z
" style="fill:#1f77b4;"/>
   </g>
   <g id="patch_93">
    <path clip-path="url(#p5cbdb6edf2)" d="M 212.744465 273.312 
L 214.365191 273.312 
L 214.365191 162.655099 
L 212.744465 162.655099 
z
" style="fill:#1f77b4;"/>
   </g>
   <g id="patch_94">
    <path clip-path="url(#p5cbdb6edf2)" d="M 214.365191 273.312 
L 215.985917 273.312 
L 215.985917 166.224676 
L 214.365191 166.224676 
z
" style="fill:#1f77b4;"/>
   </g>
   <g id="patch_95">
    <path clip-path="url(#p5cbdb6edf2)" d="M 215.985917 273.312 
L 217.606643 273.312 
L 217.606643 161.465239 
L 215.985917 161.465239 
z
" style="fill:#1f77b4;"/>
   </g>
   <g id="patch_96">
    <path clip-path="url(#p5cbdb6edf2)" d="M 217.606643 273.312 
L 219.22737 273.312 
L 219.22737 160.27538 
L 217.606643 160.27538 
z
" style="fill:#1f77b4;"/>
   </g>
   <g id="patch_97">
    <path clip-path="url(#p5cbdb6edf2)" d="M 219.22737 273.312 
L 220.848096 273.312 
L 220.848096 165.629746 
L 219.22737 165.629746 
z
" style="fill:#1f77b4;"/>
   </g>
   <g id="patch_98">
    <path clip-path="url(#p5cbdb6edf2)" d="M 220.848096 273.312 
L 222.468822 273.312 
L 222.468822 156.705803 
L 220.848096 156.705803 
z
" style="fill:#1f77b4;"/>
   </g>
   <g id="patch_99">
    <path clip-path="url(#p5cbdb6edf2)" d="M 222.468822 273.312 
L 224.089548 273.312 
L 224.089548 159.085521 
L 222.468822 159.085521 
z
" style="fill:#1f77b4;"/>
   </g>
   <g id="patch_100">
    <path clip-path="url(#p5cbdb6edf2)" d="M 224.089548 273.312 
L 225.710274 273.312 
L 225.710274 148.971718 
L 224.089548 148.971718 
z
" style="fill:#1f77b4;"/>
   </g>
   <g id="patch_101">
    <path clip-path="url(#p5cbdb6edf2)" d="M 225.710274 273.312 
L 227.331 273.312 
L 227.331 156.110873 
L 225.710274 156.110873 
z
" style="fill:#1f77b4;"/>
   </g>
   <g id="patch_102">
    <path clip-path="url(#p5cbdb6edf2)" d="M 227.331 273.312 
L 228.951726 273.312 
L 228.951726 162.655099 
L 227.331 162.655099 
z
" style="fill:#1f77b4;"/>
   </g>
   <g id="patch_103">
    <path clip-path="url(#p5cbdb6edf2)" d="M 228.951726 273.312 
L 230.572452 273.312 
L 230.572452 150.161577 
L 228.951726 150.161577 
z
" style="fill:#1f77b4;"/>
   </g>
   <g id="patch_104">
    <path clip-path="url(#p5cbdb6edf2)" d="M 230.572452 273.312 
L 232.193178 273.312 
L 232.193178 156.705803 
L 230.572452 156.705803 
z
" style="fill:#1f77b4;"/>
   </g>
   <g id="patch_105">
    <path clip-path="url(#p5cbdb6edf2)" d="M 232.193178 273.312 
L 233.813904 273.312 
L 233.813904 164.439887 
L 232.193178 164.439887 
z
" style="fill:#1f77b4;"/>
   </g>
   <g id="patch_106">
    <path clip-path="url(#p5cbdb6edf2)" d="M 233.813904 273.312 
L 235.43463 273.312 
L 235.43463 145.99707 
L 233.813904 145.99707 
z
" style="fill:#1f77b4;"/>
   </g>
   <g id="patch_107">
    <path clip-path="url(#p5cbdb6edf2)" d="M 235.43463 273.312 
L 237.055356 273.312 
L 237.055356 149.566648 
L 235.43463 149.566648 
z
" style="fill:#1f77b4;"/>
   </g>
   <g id="patch_108">
    <path clip-path="url(#p5cbdb6edf2)" d="M 237.055356 273.312 
L 238.676082 273.312 
L 238.676082 151.351437 
L 237.055356 151.351437 
z
" style="fill:#1f77b4;"/>
   </g>
   <g id="patch_109">
    <path clip-path="url(#p5cbdb6edf2)" d="M 238.676082 273.312 
L 240.296808 273.312 
L 240.296808 143.617352 
L 238.676082 143.617352 
z
" style="fill:#1f77b4;"/>
   </g>
   <g id="patch_110">
    <path clip-path="url(#p5cbdb6edf2)" d="M 240.296808 273.312 
L 241.917534 273.312 
L 241.917534 134.098479 
L 240.296808 134.098479 
z
" style="fill:#1f77b4;"/>
   </g>
   <g id="patch_111">
    <path clip-path="url(#p5cbdb6edf2)" d="M 241.917534 273.312 
L 243.53826 273.312 
L 243.53826 143.022423 
L 241.917534 143.022423 
z
" style="fill:#1f77b4;"/>
   </g>
   <g id="patch_112">
    <path clip-path="url(#p5cbdb6edf2)" d="M 243.53826 273.312 
L 245.158986 273.312 
L 245.158986 141.237634 
L 243.53826 141.237634 
z
" style="fill:#1f77b4;"/>
   </g>
   <g id="patch_113">
    <path clip-path="url(#p5cbdb6edf2)" d="M 245.158986 273.312 
L 246.779712 273.312 
L 246.779712 140.642704 
L 245.158986 140.642704 
z
" style="fill:#1f77b4;"/>
   </g>
   <g id="patch_114">
    <path clip-path="url(#p5cbdb6edf2)" d="M 246.779712 273.312 
L 248.400438 273.312 
L 248.400438 135.288338 
L 246.779712 135.288338 
z
" style="fill:#1f77b4;"/>
   </g>
   <g id="patch_115">
    <path clip-path="url(#p5cbdb6edf2)" d="M 248.400438 273.312 
L 250.021164 273.312 
L 250.021164 139.452845 
L 248.400438 139.452845 
z
" style="fill:#1f77b4;"/>
   </g>
   <g id="patch_116">
    <path clip-path="url(#p5cbdb6edf2)" d="M 250.021164 273.312 
L 251.64189 273.312 
L 251.64189 148.376789 
L 250.021164 148.376789 
z
" style="fill:#1f77b4;"/>
   </g>
   <g id="patch_117">
    <path clip-path="url(#p5cbdb6edf2)" d="M 251.64189 273.312 
L 253.262616 273.312 
L 253.262616 142.427493 
L 251.64189 142.427493 
z
" style="fill:#1f77b4;"/>
   </g>
   <g id="patch_118">
    <path clip-path="url(#p5cbdb6edf2)" d="M 253.262616 273.312 
L 254.883342 273.312 
L 254.883342 129.933972 
L 253.262616 129.933972 
z
" style="fill:#1f77b4;"/>
   </g>
   <g id="patch_119">
    <path clip-path="url(#p5cbdb6edf2)" d="M 254.883342 273.312 
L 256.504068 273.312 
L 256.504068 134.693408 
L 254.883342 134.693408 
z
" style="fill:#1f77b4;"/>
   </g>
   <g id="patch_120">
    <path clip-path="url(#p5cbdb6edf2)" d="M 256.504068 273.312 
L 258.124794 273.312 
L 258.124794 145.99707 
L 256.504068 145.99707 
z
" style="fill:#1f77b4;"/>
   </g>
   <g id="patch_121">
    <path clip-path="url(#p5cbdb6edf2)" d="M 258.124794 273.312 
L 259.74552 273.312 
L 259.74552 115.655662 
L 258.124794 115.655662 
z
" style="fill:#1f77b4;"/>
   </g>
   <g id="patch_122">
    <path clip-path="url(#p5cbdb6edf2)" d="M 259.74552 273.312 
L 261.366246 273.312 
L 261.366246 128.744113 
L 259.74552 128.744113 
z
" style="fill:#1f77b4;"/>
   </g>
   <g id="patch_123">
    <path clip-path="url(#p5cbdb6edf2)" d="M 261.366246 273.312 
L 262.986972 273.312 
L 262.986972 121.010028 
L 261.366246 121.010028 
z
" style="fill:#1f77b4;"/>
   </g>
   <g id="patch_124">
    <path clip-path="url(#p5cbdb6edf2)" d="M 262.986972 273.312 
L 264.607698 273.312 
L 264.607698 113.275944 
L 262.986972 113.275944 
z
" style="fill:#1f77b4;"/>
   </g>
   <g id="patch_125">
    <path clip-path="url(#p5cbdb6edf2)" d="M 264.607698 273.312 
L 266.228424 273.312 
L 266.228424 119.820169 
L 264.607698 119.820169 
z
" style="fill:#1f77b4;"/>
   </g>
   <g id="patch_126">
    <path clip-path="url(#p5cbdb6edf2)" d="M 266.228424 273.312 
L 267.84915 273.312 
L 267.84915 122.199887 
L 266.228424 122.199887 
z
" style="fill:#1f77b4;"/>
   </g>
   <g id="patch_127">
    <path clip-path="url(#p5cbdb6edf2)" d="M 267.84915 273.312 
L 269.469877 273.312 
L 269.469877 125.769465 
L 267.84915 125.769465 
z
" style="fill:#1f77b4;"/>
   </g>
   <g id="patch_128">
    <path clip-path="url(#p5cbdb6edf2)" d="M 269.469877 273.312 
L 271.090603 273.312 
L 271.090603 113.870873 
L 269.469877 113.870873 
z
" style="fill:#1f77b4;"/>
   </g>
   <g id="patch_129">
    <path clip-path="url(#p5cbdb6edf2)" d="M 271.090603 273.312 
L 272.711329 273.312 
L 272.711329 108.516507 
L 271.090603 108.516507 
z
" style="fill:#1f77b4;"/>
   </g>
   <g id="patch_130">
    <path clip-path="url(#p5cbdb6edf2)" d="M 272.711329 273.312 
L 274.332055 273.312 
L 274.332055 112.086085 
L 272.711329 112.086085 
z
" style="fill:#1f77b4;"/>
   </g>
   <g id="patch_131">
    <path clip-path="url(#p5cbdb6edf2)" d="M 274.332055 273.312 
L 275.952781 273.312 
L 275.952781 129.933972 
L 274.332055 129.933972 
z
" style="fill:#1f77b4;"/>
   </g>
   <g id="patch_132">
    <path clip-path="url(#p5cbdb6edf2)" d="M 275.952781 273.312 
L 277.573507 273.312 
L 277.573507 112.681014 
L 275.952781 112.681014 
z
" style="fill:#1f77b4;"/>
   </g>
   <g id="patch_133">
    <path clip-path="url(#p5cbdb6edf2)" d="M 277.573507 273.312 
L 279.194233 273.312 
L 279.194233 121.010028 
L 277.573507 121.010028 
z
" style="fill:#1f77b4;"/>
   </g>
   <g id="patch_134">
    <path clip-path="url(#p5cbdb6edf2)" d="M 279.194233 273.312 
L 280.814959 273.312 
L 280.814959 129.339042 
L 279.194233 129.339042 
z
" style="fill:#1f77b4;"/>
   </g>
   <g id="patch_135">
    <path clip-path="url(#p5cbdb6edf2)" d="M 280.814959 273.312 
L 282.435685 273.312 
L 282.435685 116.845521 
L 280.814959 116.845521 
z
" style="fill:#1f77b4;"/>
   </g>
   <g id="patch_136">
    <path clip-path="url(#p5cbdb6edf2)" d="M 282.435685 273.312 
L 284.056411 273.312 
L 284.056411 131.123831 
L 282.435685 131.123831 
z
" style="fill:#1f77b4;"/>
   </g>
   <g id="patch_137">
    <path clip-path="url(#p5cbdb6edf2)" d="M 284.056411 273.312 
L 285.677137 273.312 
L 285.677137 119.225239 
L 284.056411 119.225239 
z
" style="fill:#1f77b4;"/>
   </g>
   <g id="patch_138">
    <path clip-path="url(#p5cbdb6edf2)" d="M 285.677137 273.312 
L 287.297863 273.312 
L 287.297863 107.921577 
L 285.677137 107.921577 
z
" style="fill:#1f77b4;"/>
   </g>
   <g id="patch_139">
    <path clip-path="url(#p5cbdb6edf2)" d="M 287.297863 273.312 
L 288.918589 273.312 
L 288.918589 115.060732 
L 287.297863 115.060732 
z
" style="fill:#1f77b4;"/>
   </g>
   <g id="patch_140">
    <path clip-path="url(#p5cbdb6edf2)" d="M 288.918589 273.312 
L 290.539315 273.312 
L 290.539315 121.604958 
L 288.918589 121.604958 
z
" style="fill:#1f77b4;"/>
   </g>
   <g id="patch_141">
    <path clip-path="url(#p5cbdb6edf2)" d="M 290.539315 273.312 
L 292.160041 273.312 
L 292.160041 97.807775 
L 290.539315 97.807775 
z
" style="fill:#1f77b4;"/>
   </g>
   <g id="patch_142">
    <path clip-path="url(#p5cbdb6edf2)" d="M 292.160041 273.312 
L 293.780767 273.312 
L 293.780767 93.048338 
L 292.160041 93.048338 
z
" style="fill:#1f77b4;"/>
   </g>
   <g id="patch_143">
    <path clip-path="url(#p5cbdb6edf2)" d="M 293.780767 273.312 
L 295.401493 273.312 
L 295.401493 103.75707 
L 293.780767 103.75707 
z
" style="fill:#1f77b4;"/>
   </g>
   <g id="patch_144">
    <path clip-path="url(#p5cbdb6edf2)" d="M 295.401493 273.312 
L 297.022219 273.312 
L 297.022219 105.541859 
L 295.401493 105.541859 
z
" style="fill:#1f77b4;"/>
   </g>
   <g id="patch_145">
    <path clip-path="url(#p5cbdb6edf2)" d="M 297.022219 273.312 
L 298.642945 273.312 
L 298.642945 120.415099 
L 297.022219 120.415099 
z
" style="fill:#1f77b4;"/>
   </g>
   <g id="patch_146">
    <path clip-path="url(#p5cbdb6edf2)" d="M 298.642945 273.312 
L 300.263671 273.312 
L 300.263671 111.491155 
L 298.642945 111.491155 
z
" style="fill:#1f77b4;"/>
   </g>
   <g id="patch_147">
    <path clip-path="url(#p5cbdb6edf2)" d="M 300.263671 273.312 
L 301.884397 273.312 
L 301.884397 96.022986 
L 300.263671 96.022986 
z
" style="fill:#1f77b4;"/>
   </g>
   <g id="patch_148">
    <path clip-path="url(#p5cbdb6edf2)" d="M 301.884397 273.312 
L 303.505123 273.312 
L 303.505123 106.731718 
L 301.884397 106.731718 
z
" style="fill:#1f77b4;"/>
   </g>
   <g id="patch_149">
    <path clip-path="url(#p5cbdb6edf2)" d="M 303.505123 273.312 
L 305.125849 273.312 
L 305.125849 104.94693 
L 303.505123 104.94693 
z
" style="fill:#1f77b4;"/>
   </g>
   <g id="patch_150">
    <path clip-path="url(#p5cbdb6edf2)" d="M 305.125849 273.312 
L 306.746575 273.312 
L 306.746575 85.314254 
L 305.125849 85.314254 
z
" style="fill:#1f77b4;"/>
   </g>
   <g id="patch_151">
    <path clip-path="url(#p5cbdb6edf2)" d="M 306.746575 273.312 
L 308.367301 273.312 
L 308.367301 95.428056 
L 306.746575 95.428056 
z
" style="fill:#1f77b4;"/>
   </g>
   <g id="patch_152">
    <path clip-path="url(#p5cbdb6edf2)" d="M 308.367301 273.312 
L 309.988027 273.312 
L 309.988027 96.617915 
L 308.367301 96.617915 
z
" style="fill:#1f77b4;"/>
   </g>
   <g id="patch_153">
    <path clip-path="url(#p5cbdb6edf2)" d="M 309.988027 273.312 
L 311.608753 273.312 
L 311.608753 97.212845 
L 309.988027 97.212845 
z
" style="fill:#1f77b4;"/>
   </g>
   <g id="patch_154">
    <path clip-path="url(#p5cbdb6edf2)" d="M 311.608753 273.312 
L 313.229479 273.312 
L 313.229479 97.807775 
L 311.608753 97.807775 
z
" style="fill:#1f77b4;"/>
   </g>
   <g id="patch_155">
    <path clip-path="url(#p5cbdb6edf2)" d="M 313.229479 273.312 
L 314.850205 273.312 
L 314.850205 86.504113 
L 313.229479 86.504113 
z
" style="fill:#1f77b4;"/>
   </g>
   <g id="patch_156">
    <path clip-path="url(#p5cbdb6edf2)" d="M 314.850205 273.312 
L 316.470931 273.312 
L 316.470931 98.997634 
L 314.850205 98.997634 
z
" style="fill:#1f77b4;"/>
   </g>
   <g id="patch_157">
    <path clip-path="url(#p5cbdb6edf2)" d="M 316.470931 273.312 
L 318.091657 273.312 
L 318.091657 95.428056 
L 316.470931 95.428056 
z
" style="fill:#1f77b4;"/>
   </g>
   <g id="patch_158">
    <path clip-path="url(#p5cbdb6edf2)" d="M 318.091657 273.312 
L 319.712383 273.312 
L 319.712383 100.187493 
L 318.091657 100.187493 
z
" style="fill:#1f77b4;"/>
   </g>
   <g id="patch_159">
    <path clip-path="url(#p5cbdb6edf2)" d="M 319.712383 273.312 
L 321.33311 273.312 
L 321.33311 71.035944 
L 319.712383 71.035944 
z
" style="fill:#1f77b4;"/>
   </g>
   <g id="patch_160">
    <path clip-path="url(#p5cbdb6edf2)" d="M 321.33311 273.312 
L 322.953836 273.312 
L 322.953836 76.39031 
L 321.33311 76.39031 
z
" style="fill:#1f77b4;"/>
   </g>
   <g id="patch_161">
    <path clip-path="url(#p5cbdb6edf2)" d="M 322.953836 273.312 
L 324.574562 273.312 
L 324.574562 88.883831 
L 322.953836 88.883831 
z
" style="fill:#1f77b4;"/>
   </g>
   <g id="patch_162">
    <path clip-path="url(#p5cbdb6edf2)" d="M 324.574562 273.312 
L 326.195288 273.312 
L 326.195288 87.099042 
L 324.574562 87.099042 
z
" style="fill:#1f77b4;"/>
   </g>
   <g id="patch_163">
    <path clip-path="url(#p5cbdb6edf2)" d="M 326.195288 273.312 
L 327.816014 273.312 
L 327.816014 62.70693 
L 326.195288 62.70693 
z
" style="fill:#1f77b4;"/>
   </g>
   <g id="patch_164">
    <path clip-path="url(#p5cbdb6edf2)" d="M 327.816014 273.312 
L 329.43674 273.312 
L 329.43674 73.415662 
L 327.816014 73.415662 
z
" style="fill:#1f77b4;"/>
   </g>
   <g id="patch_165">
    <path clip-path="url(#p5cbdb6edf2)" d="M 329.43674 273.312 
L 331.057466 273.312 
L 331.057466 85.909183 
L 329.43674 85.909183 
z
" style="fill:#1f77b4;"/>
   </g>
   <g id="patch_166">
    <path clip-path="url(#p5cbdb6edf2)" d="M 331.057466 273.312 
L 332.678192 273.312 
L 332.678192 90.07369 
L 331.057466 90.07369 
z
" style="fill:#1f77b4;"/>
   </g>
   <g id="patch_167">
    <path clip-path="url(#p5cbdb6edf2)" d="M 332.678192 273.312 
L 334.298918 273.312 
L 334.298918 108.516507 
L 332.678192 108.516507 
z
" style="fill:#1f77b4;"/>
   </g>
   <g id="patch_168">
    <path clip-path="url(#p5cbdb6edf2)" d="M 334.298918 273.312 
L 335.919644 273.312 
L 335.919644 84.124394 
L 334.298918 84.124394 
z
" style="fill:#1f77b4;"/>
   </g>
   <g id="patch_169">
    <path clip-path="url(#p5cbdb6edf2)" d="M 335.919644 273.312 
L 337.54037 273.312 
L 337.54037 68.061296 
L 335.919644 68.061296 
z
" style="fill:#1f77b4;"/>
   </g>
   <g id="patch_170">
    <path clip-path="url(#p5cbdb6edf2)" d="M 337.54037 273.312 
L 339.161096 273.312 
L 339.161096 59.137352 
L 337.54037 59.137352 
z
" style="fill:#1f77b4;"/>
   </g>
   <g id="patch_171">
    <path clip-path="url(#p5cbdb6edf2)" d="M 339.161096 273.312 
L 340.781822 273.312 
L 340.781822 71.035944 
L 339.161096 71.035944 
z
" style="fill:#1f77b4;"/>
   </g>
   <g id="patch_172">
    <path clip-path="url(#p5cbdb6edf2)" d="M 340.781822 273.312 
L 342.402548 273.312 
L 342.402548 69.846085 
L 340.781822 69.846085 
z
" style="fill:#1f77b4;"/>
   </g>
   <g id="patch_173">
    <path clip-path="url(#p5cbdb6edf2)" d="M 342.402548 273.312 
L 344.023274 273.312 
L 344.023274 67.466366 
L 342.402548 67.466366 
z
" style="fill:#1f77b4;"/>
   </g>
   <g id="patch_174">
    <path clip-path="url(#p5cbdb6edf2)" d="M 344.023274 273.312 
L 345.644 273.312 
L 345.644 54.972845 
L 344.023274 54.972845 
z
" style="fill:#1f77b4;"/>
   </g>
   <g id="patch_175">
    <path clip-path="url(#p5cbdb6edf2)" d="M 345.644 273.312 
L 347.264726 273.312 
L 347.264726 67.466366 
L 345.644 67.466366 
z
" style="fill:#1f77b4;"/>
   </g>
   <g id="patch_176">
    <path clip-path="url(#p5cbdb6edf2)" d="M 347.264726 273.312 
L 348.885452 273.312 
L 348.885452 51.998197 
L 347.264726 51.998197 
z
" style="fill:#1f77b4;"/>
   </g>
   <g id="patch_177">
    <path clip-path="url(#p5cbdb6edf2)" d="M 348.885452 273.312 
L 350.506178 273.312 
L 350.506178 85.909183 
L 348.885452 85.909183 
z
" style="fill:#1f77b4;"/>
   </g>
   <g id="patch_178">
    <path clip-path="url(#p5cbdb6edf2)" d="M 350.506178 273.312 
L 352.126904 273.312 
L 352.126904 66.871437 
L 350.506178 66.871437 
z
" style="fill:#1f77b4;"/>
   </g>
   <g id="patch_179">
    <path clip-path="url(#p5cbdb6edf2)" d="M 352.126904 273.312 
L 353.74763 273.312 
L 353.74763 68.061296 
L 352.126904 68.061296 
z
" style="fill:#1f77b4;"/>
   </g>
   <g id="patch_180">
    <path clip-path="url(#p5cbdb6edf2)" d="M 353.74763 273.312 
L 355.368356 273.312 
L 355.368356 65.086648 
L 353.74763 65.086648 
z
" style="fill:#1f77b4;"/>
   </g>
   <g id="patch_181">
    <path clip-path="url(#p5cbdb6edf2)" d="M 355.368356 273.312 
L 356.989082 273.312 
L 356.989082 61.51707 
L 355.368356 61.51707 
z
" style="fill:#1f77b4;"/>
   </g>
   <g id="patch_182">
    <path clip-path="url(#p5cbdb6edf2)" d="M 356.989082 273.312 
L 358.609808 273.312 
L 358.609808 61.51707 
L 356.989082 61.51707 
z
" style="fill:#1f77b4;"/>
   </g>
   <g id="patch_183">
    <path clip-path="url(#p5cbdb6edf2)" d="M 358.609808 273.312 
L 360.230534 273.312 
L 360.230534 46.643831 
L 358.609808 46.643831 
z
" style="fill:#1f77b4;"/>
   </g>
   <g id="patch_184">
    <path clip-path="url(#p5cbdb6edf2)" d="M 360.230534 273.312 
L 361.85126 273.312 
L 361.85126 51.403268 
L 360.230534 51.403268 
z
" style="fill:#1f77b4;"/>
   </g>
   <g id="patch_185">
    <path clip-path="url(#p5cbdb6edf2)" d="M 361.85126 273.312 
L 363.471986 273.312 
L 363.471986 37.124958 
L 361.85126 37.124958 
z
" style="fill:#1f77b4;"/>
   </g>
   <g id="patch_186">
    <path clip-path="url(#p5cbdb6edf2)" d="M 363.471986 273.312 
L 365.092712 273.312 
L 365.092712 43.074254 
L 363.471986 43.074254 
z
" style="fill:#1f77b4;"/>
   </g>
   <g id="patch_187">
    <path clip-path="url(#p5cbdb6edf2)" d="M 365.092712 273.312 
L 366.713438 273.312 
L 366.713438 66.276507 
L 365.092712 66.276507 
z
" style="fill:#1f77b4;"/>
   </g>
   <g id="patch_188">
    <path clip-path="url(#p5cbdb6edf2)" d="M 366.713438 273.312 
L 368.334164 273.312 
L 368.334164 53.188056 
L 366.713438 53.188056 
z
" style="fill:#1f77b4;"/>
   </g>
   <g id="patch_189">
    <path clip-path="url(#p5cbdb6edf2)" d="M 368.334164 273.312 
L 369.95489 273.312 
L 369.95489 37.719887 
L 368.334164 37.719887 
z
" style="fill:#1f77b4;"/>
   </g>
   <g id="patch_190">
    <path clip-path="url(#p5cbdb6edf2)" d="M 369.95489 273.312 
L 371.575617 273.312 
L 371.575617 51.403268 
L 369.95489 51.403268 
z
" style="fill:#1f77b4;"/>
   </g>
   <g id="patch_191">
    <path clip-path="url(#p5cbdb6edf2)" d="M 371.575617 273.312 
L 373.196343 273.312 
L 373.196343 65.086648 
L 371.575617 65.086648 
z
" style="fill:#1f77b4;"/>
   </g>
   <g id="patch_192">
    <path clip-path="url(#p5cbdb6edf2)" d="M 373.196343 273.312 
L 374.817069 273.312 
L 374.817069 48.42862 
L 373.196343 48.42862 
z
" style="fill:#1f77b4;"/>
   </g>
   <g id="patch_193">
    <path clip-path="url(#p5cbdb6edf2)" d="M 374.817069 273.312 
L 376.437795 273.312 
L 376.437795 44.859042 
L 374.817069 44.859042 
z
" style="fill:#1f77b4;"/>
   </g>
   <g id="patch_194">
    <path clip-path="url(#p5cbdb6edf2)" d="M 376.437795 273.312 
L 378.058521 273.312 
L 378.058521 57.352563 
L 376.437795 57.352563 
z
" style="fill:#1f77b4;"/>
   </g>
   <g id="patch_195">
    <path clip-path="url(#p5cbdb6edf2)" d="M 378.058521 273.312 
L 379.679247 273.312 
L 379.679247 66.276507 
L 378.058521 66.276507 
z
" style="fill:#1f77b4;"/>
   </g>
   <g id="patch_196">
    <path clip-path="url(#p5cbdb6edf2)" d="M 379.679247 273.312 
L 381.299973 273.312 
L 381.299973 27.011155 
L 379.679247 27.011155 
z
" style="fill:#1f77b4;"/>
   </g>
   <g id="patch_197">
    <path clip-path="url(#p5cbdb6edf2)" d="M 381.299973 273.312 
L 382.920699 273.312 
L 382.920699 33.55538 
L 381.299973 33.55538 
z
" style="fill:#1f77b4;"/>
   </g>
   <g id="patch_198">
    <path clip-path="url(#p5cbdb6edf2)" d="M 382.920699 273.312 
L 384.541425 273.312 
L 384.541425 52.593127 
L 382.920699 52.593127 
z
" style="fill:#1f77b4;"/>
   </g>
   <g id="patch_199">
    <path clip-path="url(#p5cbdb6edf2)" d="M 384.541425 273.312 
L 386.162151 273.312 
L 386.162151 29.390873 
L 384.541425 29.390873 
z
" style="fill:#1f77b4;"/>
   </g>
   <g id="patch_200">
    <path clip-path="url(#p5cbdb6edf2)" d="M 386.162151 273.312 
L 387.782877 273.312 
L 387.782877 45.453972 
L 386.162151 45.453972 
z
" style="fill:#1f77b4;"/>
   </g>
   <g id="patch_201">
    <path clip-path="url(#p5cbdb6edf2)" d="M 387.782877 273.312 
L 389.403603 273.312 
L 389.403603 19.872 
L 387.782877 19.872 
z
" style="fill:#1f77b4;"/>
   </g>
   <g id="patch_202">
    <path clip-path="url(#p5cbdb6edf2)" d="M 389.403603 273.312 
L 391.024329 273.312 
L 391.024329 58.542423 
L 389.403603 58.542423 
z
" style="fill:#1f77b4;"/>
   </g>
   <g id="matplotlib.axis_1">
    <g id="xtick_1">
     <g id="line2d_1">
      <defs>
       <path d="M 0 0 
L 0 3.5 
" id="m81e695e055" style="stroke:#000000;stroke-width:0.8;"/>
      </defs>
      <g>
       <use style="stroke:#000000;stroke-width:0.8;" x="66.376477" xlink:href="#m81e695e055" y="273.312"/>
      </g>
     </g>
     <g id="text_1">
      <!-- 0.0 -->
      <g transform="translate(58.424915 287.910437)scale(0.1 -0.1)">
       <defs>
        <path d="M 2034 4250 
Q 1547 4250 1301 3770 
Q 1056 3291 1056 2328 
Q 1056 1369 1301 889 
Q 1547 409 2034 409 
Q 2525 409 2770 889 
Q 3016 1369 3016 2328 
Q 3016 3291 2770 3770 
Q 2525 4250 2034 4250 
z
M 2034 4750 
Q 2819 4750 3233 4129 
Q 3647 3509 3647 2328 
Q 3647 1150 3233 529 
Q 2819 -91 2034 -91 
Q 1250 -91 836 529 
Q 422 1150 422 2328 
Q 422 3509 836 4129 
Q 1250 4750 2034 4750 
z
" id="DejaVuSans-30" transform="scale(0.015625)"/>
        <path d="M 684 794 
L 1344 794 
L 1344 0 
L 684 0 
L 684 794 
z
" id="DejaVuSans-2e" transform="scale(0.015625)"/>
       </defs>
       <use xlink:href="#DejaVuSans-30"/>
       <use x="63.623047" xlink:href="#DejaVuSans-2e"/>
       <use x="95.410156" xlink:href="#DejaVuSans-30"/>
      </g>
     </g>
    </g>
    <g id="xtick_2">
     <g id="line2d_2">
      <g>
       <use style="stroke:#000000;stroke-width:0.8;" x="131.307386" xlink:href="#m81e695e055" y="273.312"/>
      </g>
     </g>
     <g id="text_2">
      <!-- 0.2 -->
      <g transform="translate(123.355824 287.910437)scale(0.1 -0.1)">
       <defs>
        <path d="M 1228 531 
L 3431 531 
L 3431 0 
L 469 0 
L 469 531 
Q 828 903 1448 1529 
Q 2069 2156 2228 2338 
Q 2531 2678 2651 2914 
Q 2772 3150 2772 3378 
Q 2772 3750 2511 3984 
Q 2250 4219 1831 4219 
Q 1534 4219 1204 4116 
Q 875 4013 500 3803 
L 500 4441 
Q 881 4594 1212 4672 
Q 1544 4750 1819 4750 
Q 2544 4750 2975 4387 
Q 3406 4025 3406 3419 
Q 3406 3131 3298 2873 
Q 3191 2616 2906 2266 
Q 2828 2175 2409 1742 
Q 1991 1309 1228 531 
z
" id="DejaVuSans-32" transform="scale(0.015625)"/>
       </defs>
       <use xlink:href="#DejaVuSans-30"/>
       <use x="63.623047" xlink:href="#DejaVuSans-2e"/>
       <use x="95.410156" xlink:href="#DejaVuSans-32"/>
      </g>
     </g>
    </g>
    <g id="xtick_3">
     <g id="line2d_3">
      <g>
       <use style="stroke:#000000;stroke-width:0.8;" x="196.238295" xlink:href="#m81e695e055" y="273.312"/>
      </g>
     </g>
     <g id="text_3">
      <!-- 0.4 -->
      <g transform="translate(188.286733 287.910437)scale(0.1 -0.1)">
       <defs>
        <path d="M 2419 4116 
L 825 1625 
L 2419 1625 
L 2419 4116 
z
M 2253 4666 
L 3047 4666 
L 3047 1625 
L 3713 1625 
L 3713 1100 
L 3047 1100 
L 3047 0 
L 2419 0 
L 2419 1100 
L 313 1100 
L 313 1709 
L 2253 4666 
z
" id="DejaVuSans-34" transform="scale(0.015625)"/>
       </defs>
       <use xlink:href="#DejaVuSans-30"/>
       <use x="63.623047" xlink:href="#DejaVuSans-2e"/>
       <use x="95.410156" xlink:href="#DejaVuSans-34"/>
      </g>
     </g>
    </g>
    <g id="xtick_4">
     <g id="line2d_4">
      <g>
       <use style="stroke:#000000;stroke-width:0.8;" x="261.169205" xlink:href="#m81e695e055" y="273.312"/>
      </g>
     </g>
     <g id="text_4">
      <!-- 0.6 -->
      <g transform="translate(253.217642 287.910437)scale(0.1 -0.1)">
       <defs>
        <path d="M 2113 2584 
Q 1688 2584 1439 2293 
Q 1191 2003 1191 1497 
Q 1191 994 1439 701 
Q 1688 409 2113 409 
Q 2538 409 2786 701 
Q 3034 994 3034 1497 
Q 3034 2003 2786 2293 
Q 2538 2584 2113 2584 
z
M 3366 4563 
L 3366 3988 
Q 3128 4100 2886 4159 
Q 2644 4219 2406 4219 
Q 1781 4219 1451 3797 
Q 1122 3375 1075 2522 
Q 1259 2794 1537 2939 
Q 1816 3084 2150 3084 
Q 2853 3084 3261 2657 
Q 3669 2231 3669 1497 
Q 3669 778 3244 343 
Q 2819 -91 2113 -91 
Q 1303 -91 875 529 
Q 447 1150 447 2328 
Q 447 3434 972 4092 
Q 1497 4750 2381 4750 
Q 2619 4750 2861 4703 
Q 3103 4656 3366 4563 
z
" id="DejaVuSans-36" transform="scale(0.015625)"/>
       </defs>
       <use xlink:href="#DejaVuSans-30"/>
       <use x="63.623047" xlink:href="#DejaVuSans-2e"/>
       <use x="95.410156" xlink:href="#DejaVuSans-36"/>
      </g>
     </g>
    </g>
    <g id="xtick_5">
     <g id="line2d_5">
      <g>
       <use style="stroke:#000000;stroke-width:0.8;" x="326.100114" xlink:href="#m81e695e055" y="273.312"/>
      </g>
     </g>
     <g id="text_5">
      <!-- 0.8 -->
      <g transform="translate(318.148551 287.910437)scale(0.1 -0.1)">
       <defs>
        <path d="M 2034 2216 
Q 1584 2216 1326 1975 
Q 1069 1734 1069 1313 
Q 1069 891 1326 650 
Q 1584 409 2034 409 
Q 2484 409 2743 651 
Q 3003 894 3003 1313 
Q 3003 1734 2745 1975 
Q 2488 2216 2034 2216 
z
M 1403 2484 
Q 997 2584 770 2862 
Q 544 3141 544 3541 
Q 544 4100 942 4425 
Q 1341 4750 2034 4750 
Q 2731 4750 3128 4425 
Q 3525 4100 3525 3541 
Q 3525 3141 3298 2862 
Q 3072 2584 2669 2484 
Q 3125 2378 3379 2068 
Q 3634 1759 3634 1313 
Q 3634 634 3220 271 
Q 2806 -91 2034 -91 
Q 1263 -91 848 271 
Q 434 634 434 1313 
Q 434 1759 690 2068 
Q 947 2378 1403 2484 
z
M 1172 3481 
Q 1172 3119 1398 2916 
Q 1625 2713 2034 2713 
Q 2441 2713 2670 2916 
Q 2900 3119 2900 3481 
Q 2900 3844 2670 4047 
Q 2441 4250 2034 4250 
Q 1625 4250 1398 4047 
Q 1172 3844 1172 3481 
z
" id="DejaVuSans-38" transform="scale(0.015625)"/>
       </defs>
       <use xlink:href="#DejaVuSans-30"/>
       <use x="63.623047" xlink:href="#DejaVuSans-2e"/>
       <use x="95.410156" xlink:href="#DejaVuSans-38"/>
      </g>
     </g>
    </g>
    <g id="xtick_6">
     <g id="line2d_6">
      <g>
       <use style="stroke:#000000;stroke-width:0.8;" x="391.031023" xlink:href="#m81e695e055" y="273.312"/>
      </g>
     </g>
     <g id="text_6">
      <!-- 1.0 -->
      <g transform="translate(383.07946 287.910437)scale(0.1 -0.1)">
       <defs>
        <path d="M 794 531 
L 1825 531 
L 1825 4091 
L 703 3866 
L 703 4441 
L 1819 4666 
L 2450 4666 
L 2450 531 
L 3481 531 
L 3481 0 
L 794 0 
L 794 531 
z
" id="DejaVuSans-31" transform="scale(0.015625)"/>
       </defs>
       <use xlink:href="#DejaVuSans-31"/>
       <use x="63.623047" xlink:href="#DejaVuSans-2e"/>
       <use x="95.410156" xlink:href="#DejaVuSans-30"/>
      </g>
     </g>
    </g>
    <g id="text_7">
     <!-- Propagation direction -->
     <g transform="translate(175.221719 301.588562)scale(0.1 -0.1)">
      <defs>
       <path d="M 1259 4147 
L 1259 2394 
L 2053 2394 
Q 2494 2394 2734 2622 
Q 2975 2850 2975 3272 
Q 2975 3691 2734 3919 
Q 2494 4147 2053 4147 
L 1259 4147 
z
M 628 4666 
L 2053 4666 
Q 2838 4666 3239 4311 
Q 3641 3956 3641 3272 
Q 3641 2581 3239 2228 
Q 2838 1875 2053 1875 
L 1259 1875 
L 1259 0 
L 628 0 
L 628 4666 
z
" id="DejaVuSans-50" transform="scale(0.015625)"/>
       <path d="M 2631 2963 
Q 2534 3019 2420 3045 
Q 2306 3072 2169 3072 
Q 1681 3072 1420 2755 
Q 1159 2438 1159 1844 
L 1159 0 
L 581 0 
L 581 3500 
L 1159 3500 
L 1159 2956 
Q 1341 3275 1631 3429 
Q 1922 3584 2338 3584 
Q 2397 3584 2469 3576 
Q 2541 3569 2628 3553 
L 2631 2963 
z
" id="DejaVuSans-72" transform="scale(0.015625)"/>
       <path d="M 1959 3097 
Q 1497 3097 1228 2736 
Q 959 2375 959 1747 
Q 959 1119 1226 758 
Q 1494 397 1959 397 
Q 2419 397 2687 759 
Q 2956 1122 2956 1747 
Q 2956 2369 2687 2733 
Q 2419 3097 1959 3097 
z
M 1959 3584 
Q 2709 3584 3137 3096 
Q 3566 2609 3566 1747 
Q 3566 888 3137 398 
Q 2709 -91 1959 -91 
Q 1206 -91 779 398 
Q 353 888 353 1747 
Q 353 2609 779 3096 
Q 1206 3584 1959 3584 
z
" id="DejaVuSans-6f" transform="scale(0.015625)"/>
       <path d="M 1159 525 
L 1159 -1331 
L 581 -1331 
L 581 3500 
L 1159 3500 
L 1159 2969 
Q 1341 3281 1617 3432 
Q 1894 3584 2278 3584 
Q 2916 3584 3314 3078 
Q 3713 2572 3713 1747 
Q 3713 922 3314 415 
Q 2916 -91 2278 -91 
Q 1894 -91 1617 61 
Q 1341 213 1159 525 
z
M 3116 1747 
Q 3116 2381 2855 2742 
Q 2594 3103 2138 3103 
Q 1681 3103 1420 2742 
Q 1159 2381 1159 1747 
Q 1159 1113 1420 752 
Q 1681 391 2138 391 
Q 2594 391 2855 752 
Q 3116 1113 3116 1747 
z
" id="DejaVuSans-70" transform="scale(0.015625)"/>
       <path d="M 2194 1759 
Q 1497 1759 1228 1600 
Q 959 1441 959 1056 
Q 959 750 1161 570 
Q 1363 391 1709 391 
Q 2188 391 2477 730 
Q 2766 1069 2766 1631 
L 2766 1759 
L 2194 1759 
z
M 3341 1997 
L 3341 0 
L 2766 0 
L 2766 531 
Q 2569 213 2275 61 
Q 1981 -91 1556 -91 
Q 1019 -91 701 211 
Q 384 513 384 1019 
Q 384 1609 779 1909 
Q 1175 2209 1959 2209 
L 2766 2209 
L 2766 2266 
Q 2766 2663 2505 2880 
Q 2244 3097 1772 3097 
Q 1472 3097 1187 3025 
Q 903 2953 641 2809 
L 641 3341 
Q 956 3463 1253 3523 
Q 1550 3584 1831 3584 
Q 2591 3584 2966 3190 
Q 3341 2797 3341 1997 
z
" id="DejaVuSans-61" transform="scale(0.015625)"/>
       <path d="M 2906 1791 
Q 2906 2416 2648 2759 
Q 2391 3103 1925 3103 
Q 1463 3103 1205 2759 
Q 947 2416 947 1791 
Q 947 1169 1205 825 
Q 1463 481 1925 481 
Q 2391 481 2648 825 
Q 2906 1169 2906 1791 
z
M 3481 434 
Q 3481 -459 3084 -895 
Q 2688 -1331 1869 -1331 
Q 1566 -1331 1297 -1286 
Q 1028 -1241 775 -1147 
L 775 -588 
Q 1028 -725 1275 -790 
Q 1522 -856 1778 -856 
Q 2344 -856 2625 -561 
Q 2906 -266 2906 331 
L 2906 616 
Q 2728 306 2450 153 
Q 2172 0 1784 0 
Q 1141 0 747 490 
Q 353 981 353 1791 
Q 353 2603 747 3093 
Q 1141 3584 1784 3584 
Q 2172 3584 2450 3431 
Q 2728 3278 2906 2969 
L 2906 3500 
L 3481 3500 
L 3481 434 
z
" id="DejaVuSans-67" transform="scale(0.015625)"/>
       <path d="M 1172 4494 
L 1172 3500 
L 2356 3500 
L 2356 3053 
L 1172 3053 
L 1172 1153 
Q 1172 725 1289 603 
Q 1406 481 1766 481 
L 2356 481 
L 2356 0 
L 1766 0 
Q 1100 0 847 248 
Q 594 497 594 1153 
L 594 3053 
L 172 3053 
L 172 3500 
L 594 3500 
L 594 4494 
L 1172 4494 
z
" id="DejaVuSans-74" transform="scale(0.015625)"/>
       <path d="M 603 3500 
L 1178 3500 
L 1178 0 
L 603 0 
L 603 3500 
z
M 603 4863 
L 1178 4863 
L 1178 4134 
L 603 4134 
L 603 4863 
z
" id="DejaVuSans-69" transform="scale(0.015625)"/>
       <path d="M 3513 2113 
L 3513 0 
L 2938 0 
L 2938 2094 
Q 2938 2591 2744 2837 
Q 2550 3084 2163 3084 
Q 1697 3084 1428 2787 
Q 1159 2491 1159 1978 
L 1159 0 
L 581 0 
L 581 3500 
L 1159 3500 
L 1159 2956 
Q 1366 3272 1645 3428 
Q 1925 3584 2291 3584 
Q 2894 3584 3203 3211 
Q 3513 2838 3513 2113 
z
" id="DejaVuSans-6e" transform="scale(0.015625)"/>
       <path id="DejaVuSans-20" transform="scale(0.015625)"/>
       <path d="M 2906 2969 
L 2906 4863 
L 3481 4863 
L 3481 0 
L 2906 0 
L 2906 525 
Q 2725 213 2448 61 
Q 2172 -91 1784 -91 
Q 1150 -91 751 415 
Q 353 922 353 1747 
Q 353 2572 751 3078 
Q 1150 3584 1784 3584 
Q 2172 3584 2448 3432 
Q 2725 3281 2906 2969 
z
M 947 1747 
Q 947 1113 1208 752 
Q 1469 391 1925 391 
Q 2381 391 2643 752 
Q 2906 1113 2906 1747 
Q 2906 2381 2643 2742 
Q 2381 3103 1925 3103 
Q 1469 3103 1208 2742 
Q 947 2381 947 1747 
z
" id="DejaVuSans-64" transform="scale(0.015625)"/>
       <path d="M 3597 1894 
L 3597 1613 
L 953 1613 
Q 991 1019 1311 708 
Q 1631 397 2203 397 
Q 2534 397 2845 478 
Q 3156 559 3463 722 
L 3463 178 
Q 3153 47 2828 -22 
Q 2503 -91 2169 -91 
Q 1331 -91 842 396 
Q 353 884 353 1716 
Q 353 2575 817 3079 
Q 1281 3584 2069 3584 
Q 2775 3584 3186 3129 
Q 3597 2675 3597 1894 
z
M 3022 2063 
Q 3016 2534 2758 2815 
Q 2500 3097 2075 3097 
Q 1594 3097 1305 2825 
Q 1016 2553 972 2059 
L 3022 2063 
z
" id="DejaVuSans-65" transform="scale(0.015625)"/>
       <path d="M 3122 3366 
L 3122 2828 
Q 2878 2963 2633 3030 
Q 2388 3097 2138 3097 
Q 1578 3097 1268 2742 
Q 959 2388 959 1747 
Q 959 1106 1268 751 
Q 1578 397 2138 397 
Q 2388 397 2633 464 
Q 2878 531 3122 666 
L 3122 134 
Q 2881 22 2623 -34 
Q 2366 -91 2075 -91 
Q 1284 -91 818 406 
Q 353 903 353 1747 
Q 353 2603 823 3093 
Q 1294 3584 2113 3584 
Q 2378 3584 2631 3529 
Q 2884 3475 3122 3366 
z
" id="DejaVuSans-63" transform="scale(0.015625)"/>
      </defs>
      <use xlink:href="#DejaVuSans-50"/>
      <use x="58.552734" xlink:href="#DejaVuSans-72"/>
      <use x="97.416016" xlink:href="#DejaVuSans-6f"/>
      <use x="158.597656" xlink:href="#DejaVuSans-70"/>
      <use x="222.074219" xlink:href="#DejaVuSans-61"/>
      <use x="283.353516" xlink:href="#DejaVuSans-67"/>
      <use x="346.830078" xlink:href="#DejaVuSans-61"/>
      <use x="408.109375" xlink:href="#DejaVuSans-74"/>
      <use x="447.318359" xlink:href="#DejaVuSans-69"/>
      <use x="475.101562" xlink:href="#DejaVuSans-6f"/>
      <use x="536.283203" xlink:href="#DejaVuSans-6e"/>
      <use x="599.662109" xlink:href="#DejaVuSans-20"/>
      <use x="631.449219" xlink:href="#DejaVuSans-64"/>
      <use x="694.925781" xlink:href="#DejaVuSans-69"/>
      <use x="722.708984" xlink:href="#DejaVuSans-72"/>
      <use x="761.572266" xlink:href="#DejaVuSans-65"/>
      <use x="823.095703" xlink:href="#DejaVuSans-63"/>
      <use x="878.076172" xlink:href="#DejaVuSans-74"/>
      <use x="917.285156" xlink:href="#DejaVuSans-69"/>
      <use x="945.068359" xlink:href="#DejaVuSans-6f"/>
      <use x="1006.25" xlink:href="#DejaVuSans-6e"/>
     </g>
    </g>
   </g>
   <g id="matplotlib.axis_2">
    <g id="ytick_1">
     <g id="line2d_7">
      <defs>
       <path d="M 0 0 
L -3.5 0 
" id="m249e6ca5c3" style="stroke:#000000;stroke-width:0.8;"/>
      </defs>
      <g>
       <use style="stroke:#000000;stroke-width:0.8;" x="50.14375" xlink:href="#m249e6ca5c3" y="273.312"/>
      </g>
     </g>
     <g id="text_8">
      <!-- 0.00 -->
      <g transform="translate(20.878125 277.111219)scale(0.1 -0.1)">
       <use xlink:href="#DejaVuSans-30"/>
       <use x="63.623047" xlink:href="#DejaVuSans-2e"/>
       <use x="95.410156" xlink:href="#DejaVuSans-30"/>
       <use x="159.033203" xlink:href="#DejaVuSans-30"/>
      </g>
     </g>
    </g>
    <g id="ytick_2">
     <g id="line2d_8">
      <g>
       <use style="stroke:#000000;stroke-width:0.8;" x="50.14375" xlink:href="#m249e6ca5c3" y="243.612189"/>
      </g>
     </g>
     <g id="text_9">
      <!-- 0.25 -->
      <g transform="translate(20.878125 247.411408)scale(0.1 -0.1)">
       <defs>
        <path d="M 691 4666 
L 3169 4666 
L 3169 4134 
L 1269 4134 
L 1269 2991 
Q 1406 3038 1543 3061 
Q 1681 3084 1819 3084 
Q 2600 3084 3056 2656 
Q 3513 2228 3513 1497 
Q 3513 744 3044 326 
Q 2575 -91 1722 -91 
Q 1428 -91 1123 -41 
Q 819 9 494 109 
L 494 744 
Q 775 591 1075 516 
Q 1375 441 1709 441 
Q 2250 441 2565 725 
Q 2881 1009 2881 1497 
Q 2881 1984 2565 2268 
Q 2250 2553 1709 2553 
Q 1456 2553 1204 2497 
Q 953 2441 691 2322 
L 691 4666 
z
" id="DejaVuSans-35" transform="scale(0.015625)"/>
       </defs>
       <use xlink:href="#DejaVuSans-30"/>
       <use x="63.623047" xlink:href="#DejaVuSans-2e"/>
       <use x="95.410156" xlink:href="#DejaVuSans-32"/>
       <use x="159.033203" xlink:href="#DejaVuSans-35"/>
      </g>
     </g>
    </g>
    <g id="ytick_3">
     <g id="line2d_9">
      <g>
       <use style="stroke:#000000;stroke-width:0.8;" x="50.14375" xlink:href="#m249e6ca5c3" y="213.912379"/>
      </g>
     </g>
     <g id="text_10">
      <!-- 0.50 -->
      <g transform="translate(20.878125 217.711597)scale(0.1 -0.1)">
       <use xlink:href="#DejaVuSans-30"/>
       <use x="63.623047" xlink:href="#DejaVuSans-2e"/>
       <use x="95.410156" xlink:href="#DejaVuSans-35"/>
       <use x="159.033203" xlink:href="#DejaVuSans-30"/>
      </g>
     </g>
    </g>
    <g id="ytick_4">
     <g id="line2d_10">
      <g>
       <use style="stroke:#000000;stroke-width:0.8;" x="50.14375" xlink:href="#m249e6ca5c3" y="184.212568"/>
      </g>
     </g>
     <g id="text_11">
      <!-- 0.75 -->
      <g transform="translate(20.878125 188.011787)scale(0.1 -0.1)">
       <defs>
        <path d="M 525 4666 
L 3525 4666 
L 3525 4397 
L 1831 0 
L 1172 0 
L 2766 4134 
L 525 4134 
L 525 4666 
z
" id="DejaVuSans-37" transform="scale(0.015625)"/>
       </defs>
       <use xlink:href="#DejaVuSans-30"/>
       <use x="63.623047" xlink:href="#DejaVuSans-2e"/>
       <use x="95.410156" xlink:href="#DejaVuSans-37"/>
       <use x="159.033203" xlink:href="#DejaVuSans-35"/>
      </g>
     </g>
    </g>
    <g id="ytick_5">
     <g id="line2d_11">
      <g>
       <use style="stroke:#000000;stroke-width:0.8;" x="50.14375" xlink:href="#m249e6ca5c3" y="154.512757"/>
      </g>
     </g>
     <g id="text_12">
      <!-- 1.00 -->
      <g transform="translate(20.878125 158.311976)scale(0.1 -0.1)">
       <use xlink:href="#DejaVuSans-31"/>
       <use x="63.623047" xlink:href="#DejaVuSans-2e"/>
       <use x="95.410156" xlink:href="#DejaVuSans-30"/>
       <use x="159.033203" xlink:href="#DejaVuSans-30"/>
      </g>
     </g>
    </g>
    <g id="ytick_6">
     <g id="line2d_12">
      <g>
       <use style="stroke:#000000;stroke-width:0.8;" x="50.14375" xlink:href="#m249e6ca5c3" y="124.812947"/>
      </g>
     </g>
     <g id="text_13">
      <!-- 1.25 -->
      <g transform="translate(20.878125 128.612165)scale(0.1 -0.1)">
       <use xlink:href="#DejaVuSans-31"/>
       <use x="63.623047" xlink:href="#DejaVuSans-2e"/>
       <use x="95.410156" xlink:href="#DejaVuSans-32"/>
       <use x="159.033203" xlink:href="#DejaVuSans-35"/>
      </g>
     </g>
    </g>
    <g id="ytick_7">
     <g id="line2d_13">
      <g>
       <use style="stroke:#000000;stroke-width:0.8;" x="50.14375" xlink:href="#m249e6ca5c3" y="95.113136"/>
      </g>
     </g>
     <g id="text_14">
      <!-- 1.50 -->
      <g transform="translate(20.878125 98.912355)scale(0.1 -0.1)">
       <use xlink:href="#DejaVuSans-31"/>
       <use x="63.623047" xlink:href="#DejaVuSans-2e"/>
       <use x="95.410156" xlink:href="#DejaVuSans-35"/>
       <use x="159.033203" xlink:href="#DejaVuSans-30"/>
      </g>
     </g>
    </g>
    <g id="ytick_8">
     <g id="line2d_14">
      <g>
       <use style="stroke:#000000;stroke-width:0.8;" x="50.14375" xlink:href="#m249e6ca5c3" y="65.413325"/>
      </g>
     </g>
     <g id="text_15">
      <!-- 1.75 -->
      <g transform="translate(20.878125 69.212544)scale(0.1 -0.1)">
       <use xlink:href="#DejaVuSans-31"/>
       <use x="63.623047" xlink:href="#DejaVuSans-2e"/>
       <use x="95.410156" xlink:href="#DejaVuSans-37"/>
       <use x="159.033203" xlink:href="#DejaVuSans-35"/>
      </g>
     </g>
    </g>
    <g id="ytick_9">
     <g id="line2d_15">
      <g>
       <use style="stroke:#000000;stroke-width:0.8;" x="50.14375" xlink:href="#m249e6ca5c3" y="35.713515"/>
      </g>
     </g>
     <g id="text_16">
      <!-- 2.00 -->
      <g transform="translate(20.878125 39.512733)scale(0.1 -0.1)">
       <use xlink:href="#DejaVuSans-32"/>
       <use x="63.623047" xlink:href="#DejaVuSans-2e"/>
       <use x="95.410156" xlink:href="#DejaVuSans-30"/>
       <use x="159.033203" xlink:href="#DejaVuSans-30"/>
      </g>
     </g>
    </g>
    <g id="text_17">
     <!-- Probability density -->
     <g transform="translate(14.798438 186.606781)rotate(-90)scale(0.1 -0.1)">
      <defs>
       <path d="M 3116 1747 
Q 3116 2381 2855 2742 
Q 2594 3103 2138 3103 
Q 1681 3103 1420 2742 
Q 1159 2381 1159 1747 
Q 1159 1113 1420 752 
Q 1681 391 2138 391 
Q 2594 391 2855 752 
Q 3116 1113 3116 1747 
z
M 1159 2969 
Q 1341 3281 1617 3432 
Q 1894 3584 2278 3584 
Q 2916 3584 3314 3078 
Q 3713 2572 3713 1747 
Q 3713 922 3314 415 
Q 2916 -91 2278 -91 
Q 1894 -91 1617 61 
Q 1341 213 1159 525 
L 1159 0 
L 581 0 
L 581 4863 
L 1159 4863 
L 1159 2969 
z
" id="DejaVuSans-62" transform="scale(0.015625)"/>
       <path d="M 603 4863 
L 1178 4863 
L 1178 0 
L 603 0 
L 603 4863 
z
" id="DejaVuSans-6c" transform="scale(0.015625)"/>
       <path d="M 2059 -325 
Q 1816 -950 1584 -1140 
Q 1353 -1331 966 -1331 
L 506 -1331 
L 506 -850 
L 844 -850 
Q 1081 -850 1212 -737 
Q 1344 -625 1503 -206 
L 1606 56 
L 191 3500 
L 800 3500 
L 1894 763 
L 2988 3500 
L 3597 3500 
L 2059 -325 
z
" id="DejaVuSans-79" transform="scale(0.015625)"/>
       <path d="M 2834 3397 
L 2834 2853 
Q 2591 2978 2328 3040 
Q 2066 3103 1784 3103 
Q 1356 3103 1142 2972 
Q 928 2841 928 2578 
Q 928 2378 1081 2264 
Q 1234 2150 1697 2047 
L 1894 2003 
Q 2506 1872 2764 1633 
Q 3022 1394 3022 966 
Q 3022 478 2636 193 
Q 2250 -91 1575 -91 
Q 1294 -91 989 -36 
Q 684 19 347 128 
L 347 722 
Q 666 556 975 473 
Q 1284 391 1588 391 
Q 1994 391 2212 530 
Q 2431 669 2431 922 
Q 2431 1156 2273 1281 
Q 2116 1406 1581 1522 
L 1381 1569 
Q 847 1681 609 1914 
Q 372 2147 372 2553 
Q 372 3047 722 3315 
Q 1072 3584 1716 3584 
Q 2034 3584 2315 3537 
Q 2597 3491 2834 3397 
z
" id="DejaVuSans-73" transform="scale(0.015625)"/>
      </defs>
      <use xlink:href="#DejaVuSans-50"/>
      <use x="58.552734" xlink:href="#DejaVuSans-72"/>
      <use x="97.416016" xlink:href="#DejaVuSans-6f"/>
      <use x="158.597656" xlink:href="#DejaVuSans-62"/>
      <use x="222.074219" xlink:href="#DejaVuSans-61"/>
      <use x="283.353516" xlink:href="#DejaVuSans-62"/>
      <use x="346.830078" xlink:href="#DejaVuSans-69"/>
      <use x="374.613281" xlink:href="#DejaVuSans-6c"/>
      <use x="402.396484" xlink:href="#DejaVuSans-69"/>
      <use x="430.179688" xlink:href="#DejaVuSans-74"/>
      <use x="469.388672" xlink:href="#DejaVuSans-79"/>
      <use x="528.568359" xlink:href="#DejaVuSans-20"/>
      <use x="560.355469" xlink:href="#DejaVuSans-64"/>
      <use x="623.832031" xlink:href="#DejaVuSans-65"/>
      <use x="685.355469" xlink:href="#DejaVuSans-6e"/>
      <use x="748.734375" xlink:href="#DejaVuSans-73"/>
      <use x="800.833984" xlink:href="#DejaVuSans-69"/>
      <use x="828.617188" xlink:href="#DejaVuSans-74"/>
      <use x="867.826172" xlink:href="#DejaVuSans-79"/>
     </g>
    </g>
   </g>
   <g id="line2d_16">
    <path clip-path="url(#p5cbdb6edf2)" d="M 66.376477 273.312 
L 391.031023 35.713515 
L 391.031023 35.713515 
" style="fill:none;stroke:#ff7f0e;stroke-linecap:square;stroke-width:1.5;"/>
   </g>
   <g id="patch_203">
    <path d="M 50.14375 273.312 
L 50.14375 7.2 
" style="fill:none;stroke:#000000;stroke-linecap:square;stroke-linejoin:miter;stroke-width:0.8;"/>
   </g>
   <g id="patch_204">
    <path d="M 407.26375 273.312 
L 407.26375 7.2 
" style="fill:none;stroke:#000000;stroke-linecap:square;stroke-linejoin:miter;stroke-width:0.8;"/>
   </g>
   <g id="patch_205">
    <path d="M 50.14375 273.312 
L 407.26375 273.312 
" style="fill:none;stroke:#000000;stroke-linecap:square;stroke-linejoin:miter;stroke-width:0.8;"/>
   </g>
   <g id="patch_206">
    <path d="M 50.14375 7.2 
L 407.26375 7.2 
" style="fill:none;stroke:#000000;stroke-linecap:square;stroke-linejoin:miter;stroke-width:0.8;"/>
   </g>
  </g>
 </g>
 <defs>
  <clipPath id="p5cbdb6edf2">
   <rect height="266.112" width="357.12" x="50.14375" y="7.2"/>
  </clipPath>
 </defs>
</svg>
