<?xml version="1.0" encoding="utf-8" standalone="no"?>
<!DOCTYPE svg PUBLIC "-//W3C//DTD SVG 1.1//EN"
  "http://www.w3.org/Graphics/SVG/1.1/DTD/svg11.dtd">
<svg height="310.86825pt" version="1.1" viewBox="0 0 408.10125 310.86825" width="408.10125pt" xmlns="http://www.w3.org/2000/svg" xmlns:xlink="http://www.w3.org/1999/xlink">
 <metadata>
  <rdf:RDF xmlns:cc="http://creativecommons.org/ns#" xmlns:dc="http://purl.org/dc/elements/1.1/" xmlns:rdf="http://www.w3.org/1999/02/22-rdf-syntax-ns#">
   <cc:Work>
    <dc:type rdf:resource="http://purl.org/dc/dcmitype/StillImage"/>
    <dc:date>2021-07-07T04:36:18.358270</dc:date>
    <dc:format>image/svg+xml</dc:format>
    <dc:creator>
     <cc:Agent>
      <dc:title>Matplotlib v3.4.2, https://matplotlib.org/</dc:title>
     </cc:Agent>
    </dc:creator>
   </cc:Work>
  </rdf:RDF>
 </metadata>
 <defs>
  <style type="text/css">*{stroke-linecap:butt;stroke-linejoin:round;}</style>
 </defs>
 <g id="figure_1">
  <g id="patch_1">
   <path d="M 0 310.86825 
L 408.10125 310.86825 
L 408.10125 0 
L 0 0 
z
" style="fill:#ffffff;"/>
  </g>
  <g id="axes_1">
   <g id="patch_2">
    <path d="M 43.78125 273.312 
L 400.90125 273.312 
L 400.90125 7.2 
L 43.78125 7.2 
z
" style="fill:#ffffff;"/>
   </g>
   <g id="patch_3">
    <path clip-path="url(#p15439704e8)" d="M 62.128567 273.312 
L 63.735577 273.312 
L 63.735577 266.050109 
L 62.128567 266.050109 
z
" style="fill:#1f77b4;"/>
   </g>
   <g id="patch_4">
    <path clip-path="url(#p15439704e8)" d="M 63.735577 273.312 
L 65.342588 273.312 
L 65.342588 262.419163 
L 63.735577 262.419163 
z
" style="fill:#1f77b4;"/>
   </g>
   <g id="patch_5">
    <path clip-path="url(#p15439704e8)" d="M 65.342588 273.312 
L 66.949598 273.312 
L 66.949598 260.966785 
L 65.342588 260.966785 
z
" style="fill:#1f77b4;"/>
   </g>
   <g id="patch_6">
    <path clip-path="url(#p15439704e8)" d="M 66.949598 273.312 
L 68.556609 273.312 
L 68.556609 253.704894 
L 66.949598 253.704894 
z
" style="fill:#1f77b4;"/>
   </g>
   <g id="patch_7">
    <path clip-path="url(#p15439704e8)" d="M 68.556609 273.312 
L 70.163619 273.312 
L 70.163619 252.978705 
L 68.556609 252.978705 
z
" style="fill:#1f77b4;"/>
   </g>
   <g id="patch_8">
    <path clip-path="url(#p15439704e8)" d="M 70.163619 273.312 
L 71.770629 273.312 
L 71.770629 257.33584 
L 70.163619 257.33584 
z
" style="fill:#1f77b4;"/>
   </g>
   <g id="patch_9">
    <path clip-path="url(#p15439704e8)" d="M 71.770629 273.312 
L 73.37764 273.312 
L 73.37764 249.347759 
L 71.770629 249.347759 
z
" style="fill:#1f77b4;"/>
   </g>
   <g id="patch_10">
    <path clip-path="url(#p15439704e8)" d="M 73.37764 273.312 
L 74.98465 273.312 
L 74.98465 235.550166 
L 73.37764 235.550166 
z
" style="fill:#1f77b4;"/>
   </g>
   <g id="patch_11">
    <path clip-path="url(#p15439704e8)" d="M 74.98465 273.312 
L 76.59166 273.312 
L 76.59166 242.812057 
L 74.98465 242.812057 
z
" style="fill:#1f77b4;"/>
   </g>
   <g id="patch_12">
    <path clip-path="url(#p15439704e8)" d="M 76.59166 273.312 
L 78.198671 273.312 
L 78.198671 237.728734 
L 76.59166 237.728734 
z
" style="fill:#1f77b4;"/>
   </g>
   <g id="patch_13">
    <path clip-path="url(#p15439704e8)" d="M 78.198671 273.312 
L 79.805681 273.312 
L 79.805681 233.371599 
L 78.198671 233.371599 
z
" style="fill:#1f77b4;"/>
   </g>
   <g id="patch_14">
    <path clip-path="url(#p15439704e8)" d="M 79.805681 273.312 
L 81.412692 273.312 
L 81.412692 234.097788 
L 79.805681 234.097788 
z
" style="fill:#1f77b4;"/>
   </g>
   <g id="patch_15">
    <path clip-path="url(#p15439704e8)" d="M 81.412692 273.312 
L 83.019702 273.312 
L 83.019702 217.395438 
L 81.412692 217.395438 
z
" style="fill:#1f77b4;"/>
   </g>
   <g id="patch_16">
    <path clip-path="url(#p15439704e8)" d="M 83.019702 273.312 
L 84.626712 273.312 
L 84.626712 213.764493 
L 83.019702 213.764493 
z
" style="fill:#1f77b4;"/>
   </g>
   <g id="patch_17">
    <path clip-path="url(#p15439704e8)" d="M 84.626712 273.312 
L 86.233723 273.312 
L 86.233723 211.585926 
L 84.626712 211.585926 
z
" style="fill:#1f77b4;"/>
   </g>
   <g id="patch_18">
    <path clip-path="url(#p15439704e8)" d="M 86.233723 273.312 
L 87.840733 273.312 
L 87.840733 215.216871 
L 86.233723 215.216871 
z
" style="fill:#1f77b4;"/>
   </g>
   <g id="patch_19">
    <path clip-path="url(#p15439704e8)" d="M 87.840733 273.312 
L 89.447743 273.312 
L 89.447743 207.228791 
L 87.840733 207.228791 
z
" style="fill:#1f77b4;"/>
   </g>
   <g id="patch_20">
    <path clip-path="url(#p15439704e8)" d="M 89.447743 273.312 
L 91.054754 273.312 
L 91.054754 203.597845 
L 89.447743 203.597845 
z
" style="fill:#1f77b4;"/>
   </g>
   <g id="patch_21">
    <path clip-path="url(#p15439704e8)" d="M 91.054754 273.312 
L 92.661764 273.312 
L 92.661764 205.050223 
L 91.054754 205.050223 
z
" style="fill:#1f77b4;"/>
   </g>
   <g id="patch_22">
    <path clip-path="url(#p15439704e8)" d="M 92.661764 273.312 
L 94.268775 273.312 
L 94.268775 194.883576 
L 92.661764 194.883576 
z
" style="fill:#1f77b4;"/>
   </g>
   <g id="patch_23">
    <path clip-path="url(#p15439704e8)" d="M 94.268775 273.312 
L 95.875785 273.312 
L 95.875785 197.062143 
L 94.268775 197.062143 
z
" style="fill:#1f77b4;"/>
   </g>
   <g id="patch_24">
    <path clip-path="url(#p15439704e8)" d="M 95.875785 273.312 
L 97.482795 273.312 
L 97.482795 197.062143 
L 95.875785 197.062143 
z
" style="fill:#1f77b4;"/>
   </g>
   <g id="patch_25">
    <path clip-path="url(#p15439704e8)" d="M 97.482795 273.312 
L 99.089806 273.312 
L 99.089806 186.169307 
L 97.482795 186.169307 
z
" style="fill:#1f77b4;"/>
   </g>
   <g id="patch_26">
    <path clip-path="url(#p15439704e8)" d="M 99.089806 273.312 
L 100.696816 273.312 
L 100.696816 194.157387 
L 99.089806 194.157387 
z
" style="fill:#1f77b4;"/>
   </g>
   <g id="patch_27">
    <path clip-path="url(#p15439704e8)" d="M 100.696816 273.312 
L 102.303826 273.312 
L 102.303826 174.550281 
L 100.696816 174.550281 
z
" style="fill:#1f77b4;"/>
   </g>
   <g id="patch_28">
    <path clip-path="url(#p15439704e8)" d="M 102.303826 273.312 
L 103.910837 273.312 
L 103.910837 190.526441 
L 102.303826 190.526441 
z
" style="fill:#1f77b4;"/>
   </g>
   <g id="patch_29">
    <path clip-path="url(#p15439704e8)" d="M 103.910837 273.312 
L 105.517847 273.312 
L 105.517847 183.26455 
L 103.910837 183.26455 
z
" style="fill:#1f77b4;"/>
   </g>
   <g id="patch_30">
    <path clip-path="url(#p15439704e8)" d="M 105.517847 273.312 
L 107.124858 273.312 
L 107.124858 178.907415 
L 105.517847 178.907415 
z
" style="fill:#1f77b4;"/>
   </g>
   <g id="patch_31">
    <path clip-path="url(#p15439704e8)" d="M 107.124858 273.312 
L 108.731868 273.312 
L 108.731868 165.836011 
L 107.124858 165.836011 
z
" style="fill:#1f77b4;"/>
   </g>
   <g id="patch_32">
    <path clip-path="url(#p15439704e8)" d="M 108.731868 273.312 
L 110.338878 273.312 
L 110.338878 150.58604 
L 108.731868 150.58604 
z
" style="fill:#1f77b4;"/>
   </g>
   <g id="patch_33">
    <path clip-path="url(#p15439704e8)" d="M 110.338878 273.312 
L 111.945889 273.312 
L 111.945889 142.59796 
L 110.338878 142.59796 
z
" style="fill:#1f77b4;"/>
   </g>
   <g id="patch_34">
    <path clip-path="url(#p15439704e8)" d="M 111.945889 273.312 
L 113.552899 273.312 
L 113.552899 159.300309 
L 111.945889 159.300309 
z
" style="fill:#1f77b4;"/>
   </g>
   <g id="patch_35">
    <path clip-path="url(#p15439704e8)" d="M 113.552899 273.312 
L 115.159909 273.312 
L 115.159909 147.681284 
L 113.552899 147.681284 
z
" style="fill:#1f77b4;"/>
   </g>
   <g id="patch_36">
    <path clip-path="url(#p15439704e8)" d="M 115.159909 273.312 
L 116.76692 273.312 
L 116.76692 168.014579 
L 115.159909 168.014579 
z
" style="fill:#1f77b4;"/>
   </g>
   <g id="patch_37">
    <path clip-path="url(#p15439704e8)" d="M 116.76692 273.312 
L 118.37393 273.312 
L 118.37393 156.395553 
L 116.76692 156.395553 
z
" style="fill:#1f77b4;"/>
   </g>
   <g id="patch_38">
    <path clip-path="url(#p15439704e8)" d="M 118.37393 273.312 
L 119.980941 273.312 
L 119.980941 154.943175 
L 118.37393 154.943175 
z
" style="fill:#1f77b4;"/>
   </g>
   <g id="patch_39">
    <path clip-path="url(#p15439704e8)" d="M 119.980941 273.312 
L 121.587951 273.312 
L 121.587951 146.228905 
L 119.980941 146.228905 
z
" style="fill:#1f77b4;"/>
   </g>
   <g id="patch_40">
    <path clip-path="url(#p15439704e8)" d="M 121.587951 273.312 
L 123.194961 273.312 
L 123.194961 144.776527 
L 121.587951 144.776527 
z
" style="fill:#1f77b4;"/>
   </g>
   <g id="patch_41">
    <path clip-path="url(#p15439704e8)" d="M 123.194961 273.312 
L 124.801972 273.312 
L 124.801972 148.407473 
L 123.194961 148.407473 
z
" style="fill:#1f77b4;"/>
   </g>
   <g id="patch_42">
    <path clip-path="url(#p15439704e8)" d="M 124.801972 273.312 
L 126.408982 273.312 
L 126.408982 141.145582 
L 124.801972 141.145582 
z
" style="fill:#1f77b4;"/>
   </g>
   <g id="patch_43">
    <path clip-path="url(#p15439704e8)" d="M 126.408982 273.312 
L 128.015992 273.312 
L 128.015992 129.526556 
L 126.408982 129.526556 
z
" style="fill:#1f77b4;"/>
   </g>
   <g id="patch_44">
    <path clip-path="url(#p15439704e8)" d="M 128.015992 273.312 
L 129.623003 273.312 
L 129.623003 149.133662 
L 128.015992 149.133662 
z
" style="fill:#1f77b4;"/>
   </g>
   <g id="patch_45">
    <path clip-path="url(#p15439704e8)" d="M 129.623003 273.312 
L 131.230013 273.312 
L 131.230013 138.240825 
L 129.623003 138.240825 
z
" style="fill:#1f77b4;"/>
   </g>
   <g id="patch_46">
    <path clip-path="url(#p15439704e8)" d="M 131.230013 273.312 
L 132.837024 273.312 
L 132.837024 134.60988 
L 131.230013 134.60988 
z
" style="fill:#1f77b4;"/>
   </g>
   <g id="patch_47">
    <path clip-path="url(#p15439704e8)" d="M 132.837024 273.312 
L 134.444034 273.312 
L 134.444034 121.538476 
L 132.837024 121.538476 
z
" style="fill:#1f77b4;"/>
   </g>
   <g id="patch_48">
    <path clip-path="url(#p15439704e8)" d="M 134.444034 273.312 
L 136.051044 273.312 
L 136.051044 131.705123 
L 134.444034 131.705123 
z
" style="fill:#1f77b4;"/>
   </g>
   <g id="patch_49">
    <path clip-path="url(#p15439704e8)" d="M 136.051044 273.312 
L 137.658055 273.312 
L 137.658055 116.455152 
L 136.051044 116.455152 
z
" style="fill:#1f77b4;"/>
   </g>
   <g id="patch_50">
    <path clip-path="url(#p15439704e8)" d="M 137.658055 273.312 
L 139.265065 273.312 
L 139.265065 109.193261 
L 137.658055 109.193261 
z
" style="fill:#1f77b4;"/>
   </g>
   <g id="patch_51">
    <path clip-path="url(#p15439704e8)" d="M 139.265065 273.312 
L 140.872076 273.312 
L 140.872076 113.550395 
L 139.265065 113.550395 
z
" style="fill:#1f77b4;"/>
   </g>
   <g id="patch_52">
    <path clip-path="url(#p15439704e8)" d="M 140.872076 273.312 
L 142.479086 273.312 
L 142.479086 117.90753 
L 140.872076 117.90753 
z
" style="fill:#1f77b4;"/>
   </g>
   <g id="patch_53">
    <path clip-path="url(#p15439704e8)" d="M 142.479086 273.312 
L 144.086096 273.312 
L 144.086096 104.109937 
L 142.479086 104.109937 
z
" style="fill:#1f77b4;"/>
   </g>
   <g id="patch_54">
    <path clip-path="url(#p15439704e8)" d="M 144.086096 273.312 
L 145.693107 273.312 
L 145.693107 95.395668 
L 144.086096 95.395668 
z
" style="fill:#1f77b4;"/>
   </g>
   <g id="patch_55">
    <path clip-path="url(#p15439704e8)" d="M 145.693107 273.312 
L 147.300117 273.312 
L 147.300117 108.467072 
L 145.693107 108.467072 
z
" style="fill:#1f77b4;"/>
   </g>
   <g id="patch_56">
    <path clip-path="url(#p15439704e8)" d="M 147.300117 273.312 
L 148.907127 273.312 
L 148.907127 101.93137 
L 147.300117 101.93137 
z
" style="fill:#1f77b4;"/>
   </g>
   <g id="patch_57">
    <path clip-path="url(#p15439704e8)" d="M 148.907127 273.312 
L 150.514138 273.312 
L 150.514138 88.133777 
L 148.907127 88.133777 
z
" style="fill:#1f77b4;"/>
   </g>
   <g id="patch_58">
    <path clip-path="url(#p15439704e8)" d="M 150.514138 273.312 
L 152.121148 273.312 
L 152.121148 88.859966 
L 150.514138 88.859966 
z
" style="fill:#1f77b4;"/>
   </g>
   <g id="patch_59">
    <path clip-path="url(#p15439704e8)" d="M 152.121148 273.312 
L 153.728159 273.312 
L 153.728159 93.2171 
L 152.121148 93.2171 
z
" style="fill:#1f77b4;"/>
   </g>
   <g id="patch_60">
    <path clip-path="url(#p15439704e8)" d="M 153.728159 273.312 
L 155.335169 273.312 
L 155.335169 101.205181 
L 153.728159 101.205181 
z
" style="fill:#1f77b4;"/>
   </g>
   <g id="patch_61">
    <path clip-path="url(#p15439704e8)" d="M 155.335169 273.312 
L 156.942179 273.312 
L 156.942179 85.955209 
L 155.335169 85.955209 
z
" style="fill:#1f77b4;"/>
   </g>
   <g id="patch_62">
    <path clip-path="url(#p15439704e8)" d="M 156.942179 273.312 
L 158.54919 273.312 
L 158.54919 84.502831 
L 156.942179 84.502831 
z
" style="fill:#1f77b4;"/>
   </g>
   <g id="patch_63">
    <path clip-path="url(#p15439704e8)" d="M 158.54919 273.312 
L 160.1562 273.312 
L 160.1562 90.312344 
L 158.54919 90.312344 
z
" style="fill:#1f77b4;"/>
   </g>
   <g id="patch_64">
    <path clip-path="url(#p15439704e8)" d="M 160.1562 273.312 
L 161.76321 273.312 
L 161.76321 89.586155 
L 160.1562 89.586155 
z
" style="fill:#1f77b4;"/>
   </g>
   <g id="patch_65">
    <path clip-path="url(#p15439704e8)" d="M 161.76321 273.312 
L 163.370221 273.312 
L 163.370221 93.943289 
L 161.76321 93.943289 
z
" style="fill:#1f77b4;"/>
   </g>
   <g id="patch_66">
    <path clip-path="url(#p15439704e8)" d="M 163.370221 273.312 
L 164.977231 273.312 
L 164.977231 99.752802 
L 163.370221 99.752802 
z
" style="fill:#1f77b4;"/>
   </g>
   <g id="patch_67">
    <path clip-path="url(#p15439704e8)" d="M 164.977231 273.312 
L 166.584242 273.312 
L 166.584242 96.848046 
L 164.977231 96.848046 
z
" style="fill:#1f77b4;"/>
   </g>
   <g id="patch_68">
    <path clip-path="url(#p15439704e8)" d="M 166.584242 273.312 
L 168.191252 273.312 
L 168.191252 104.836126 
L 166.584242 104.836126 
z
" style="fill:#1f77b4;"/>
   </g>
   <g id="patch_69">
    <path clip-path="url(#p15439704e8)" d="M 168.191252 273.312 
L 169.798262 273.312 
L 169.798262 83.050453 
L 168.191252 83.050453 
z
" style="fill:#1f77b4;"/>
   </g>
   <g id="patch_70">
    <path clip-path="url(#p15439704e8)" d="M 169.798262 273.312 
L 171.405273 273.312 
L 171.405273 71.431427 
L 169.798262 71.431427 
z
" style="fill:#1f77b4;"/>
   </g>
   <g id="patch_71">
    <path clip-path="url(#p15439704e8)" d="M 171.405273 273.312 
L 173.012283 273.312 
L 173.012283 53.276699 
L 171.405273 53.276699 
z
" style="fill:#1f77b4;"/>
   </g>
   <g id="patch_72">
    <path clip-path="url(#p15439704e8)" d="M 173.012283 273.312 
L 174.619293 273.312 
L 174.619293 72.883805 
L 173.012283 72.883805 
z
" style="fill:#1f77b4;"/>
   </g>
   <g id="patch_73">
    <path clip-path="url(#p15439704e8)" d="M 174.619293 273.312 
L 176.226304 273.312 
L 176.226304 76.514751 
L 174.619293 76.514751 
z
" style="fill:#1f77b4;"/>
   </g>
   <g id="patch_74">
    <path clip-path="url(#p15439704e8)" d="M 176.226304 273.312 
L 177.833314 273.312 
L 177.833314 68.52667 
L 176.226304 68.52667 
z
" style="fill:#1f77b4;"/>
   </g>
   <g id="patch_75">
    <path clip-path="url(#p15439704e8)" d="M 177.833314 273.312 
L 179.440325 273.312 
L 179.440325 56.181456 
L 177.833314 56.181456 
z
" style="fill:#1f77b4;"/>
   </g>
   <g id="patch_76">
    <path clip-path="url(#p15439704e8)" d="M 179.440325 273.312 
L 181.047335 273.312 
L 181.047335 86.681398 
L 179.440325 86.681398 
z
" style="fill:#1f77b4;"/>
   </g>
   <g id="patch_77">
    <path clip-path="url(#p15439704e8)" d="M 181.047335 273.312 
L 182.654345 273.312 
L 182.654345 63.443347 
L 181.047335 63.443347 
z
" style="fill:#1f77b4;"/>
   </g>
   <g id="patch_78">
    <path clip-path="url(#p15439704e8)" d="M 182.654345 273.312 
L 184.261356 273.312 
L 184.261356 26.407702 
L 182.654345 26.407702 
z
" style="fill:#1f77b4;"/>
   </g>
   <g id="patch_79">
    <path clip-path="url(#p15439704e8)" d="M 184.261356 273.312 
L 185.868366 273.312 
L 185.868366 60.53859 
L 184.261356 60.53859 
z
" style="fill:#1f77b4;"/>
   </g>
   <g id="patch_80">
    <path clip-path="url(#p15439704e8)" d="M 185.868366 273.312 
L 187.475376 273.312 
L 187.475376 51.098132 
L 185.868366 51.098132 
z
" style="fill:#1f77b4;"/>
   </g>
   <g id="patch_81">
    <path clip-path="url(#p15439704e8)" d="M 187.475376 273.312 
L 189.082387 273.312 
L 189.082387 50.371943 
L 187.475376 50.371943 
z
" style="fill:#1f77b4;"/>
   </g>
   <g id="patch_82">
    <path clip-path="url(#p15439704e8)" d="M 189.082387 273.312 
L 190.689397 273.312 
L 190.689397 68.52667 
L 189.082387 68.52667 
z
" style="fill:#1f77b4;"/>
   </g>
   <g id="patch_83">
    <path clip-path="url(#p15439704e8)" d="M 190.689397 273.312 
L 192.296408 273.312 
L 192.296408 37.300539 
L 190.689397 37.300539 
z
" style="fill:#1f77b4;"/>
   </g>
   <g id="patch_84">
    <path clip-path="url(#p15439704e8)" d="M 192.296408 273.312 
L 193.903418 273.312 
L 193.903418 56.907645 
L 192.296408 56.907645 
z
" style="fill:#1f77b4;"/>
   </g>
   <g id="patch_85">
    <path clip-path="url(#p15439704e8)" d="M 193.903418 273.312 
L 195.510428 273.312 
L 195.510428 66.348103 
L 193.903418 66.348103 
z
" style="fill:#1f77b4;"/>
   </g>
   <g id="patch_86">
    <path clip-path="url(#p15439704e8)" d="M 195.510428 273.312 
L 197.117439 273.312 
L 197.117439 75.062372 
L 195.510428 75.062372 
z
" style="fill:#1f77b4;"/>
   </g>
   <g id="patch_87">
    <path clip-path="url(#p15439704e8)" d="M 197.117439 273.312 
L 198.724449 273.312 
L 198.724449 38.752917 
L 197.117439 38.752917 
z
" style="fill:#1f77b4;"/>
   </g>
   <g id="patch_88">
    <path clip-path="url(#p15439704e8)" d="M 198.724449 273.312 
L 200.331459 273.312 
L 200.331459 52.55051 
L 198.724449 52.55051 
z
" style="fill:#1f77b4;"/>
   </g>
   <g id="patch_89">
    <path clip-path="url(#p15439704e8)" d="M 200.331459 273.312 
L 201.93847 273.312 
L 201.93847 54.729077 
L 200.331459 54.729077 
z
" style="fill:#1f77b4;"/>
   </g>
   <g id="patch_90">
    <path clip-path="url(#p15439704e8)" d="M 201.93847 273.312 
L 203.54548 273.312 
L 203.54548 46.740997 
L 201.93847 46.740997 
z
" style="fill:#1f77b4;"/>
   </g>
   <g id="patch_91">
    <path clip-path="url(#p15439704e8)" d="M 203.54548 273.312 
L 205.152491 273.312 
L 205.152491 51.824321 
L 203.54548 51.824321 
z
" style="fill:#1f77b4;"/>
   </g>
   <g id="patch_92">
    <path clip-path="url(#p15439704e8)" d="M 205.152491 273.312 
L 206.759501 273.312 
L 206.759501 49.645754 
L 205.152491 49.645754 
z
" style="fill:#1f77b4;"/>
   </g>
   <g id="patch_93">
    <path clip-path="url(#p15439704e8)" d="M 206.759501 273.312 
L 208.366511 273.312 
L 208.366511 51.824321 
L 206.759501 51.824321 
z
" style="fill:#1f77b4;"/>
   </g>
   <g id="patch_94">
    <path clip-path="url(#p15439704e8)" d="M 208.366511 273.312 
L 209.973522 273.312 
L 209.973522 47.467186 
L 208.366511 47.467186 
z
" style="fill:#1f77b4;"/>
   </g>
   <g id="patch_95">
    <path clip-path="url(#p15439704e8)" d="M 209.973522 273.312 
L 211.580532 273.312 
L 211.580532 46.014808 
L 209.973522 46.014808 
z
" style="fill:#1f77b4;"/>
   </g>
   <g id="patch_96">
    <path clip-path="url(#p15439704e8)" d="M 211.580532 273.312 
L 213.187542 273.312 
L 213.187542 63.443347 
L 211.580532 63.443347 
z
" style="fill:#1f77b4;"/>
   </g>
   <g id="patch_97">
    <path clip-path="url(#p15439704e8)" d="M 213.187542 273.312 
L 214.794553 273.312 
L 214.794553 56.907645 
L 213.187542 56.907645 
z
" style="fill:#1f77b4;"/>
   </g>
   <g id="patch_98">
    <path clip-path="url(#p15439704e8)" d="M 214.794553 273.312 
L 216.401563 273.312 
L 216.401563 32.217215 
L 214.794553 32.217215 
z
" style="fill:#1f77b4;"/>
   </g>
   <g id="patch_99">
    <path clip-path="url(#p15439704e8)" d="M 216.401563 273.312 
L 218.008574 273.312 
L 218.008574 70.705238 
L 216.401563 70.705238 
z
" style="fill:#1f77b4;"/>
   </g>
   <g id="patch_100">
    <path clip-path="url(#p15439704e8)" d="M 218.008574 273.312 
L 219.615584 273.312 
L 219.615584 19.872 
L 218.008574 19.872 
z
" style="fill:#1f77b4;"/>
   </g>
   <g id="patch_101">
    <path clip-path="url(#p15439704e8)" d="M 219.615584 273.312 
L 221.222594 273.312 
L 221.222594 61.264779 
L 219.615584 61.264779 
z
" style="fill:#1f77b4;"/>
   </g>
   <g id="patch_102">
    <path clip-path="url(#p15439704e8)" d="M 221.222594 273.312 
L 222.829605 273.312 
L 222.829605 61.990968 
L 221.222594 61.990968 
z
" style="fill:#1f77b4;"/>
   </g>
   <g id="patch_103">
    <path clip-path="url(#p15439704e8)" d="M 222.829605 273.312 
L 224.436615 273.312 
L 224.436615 35.84816 
L 222.829605 35.84816 
z
" style="fill:#1f77b4;"/>
   </g>
   <g id="patch_104">
    <path clip-path="url(#p15439704e8)" d="M 224.436615 273.312 
L 226.043625 273.312 
L 226.043625 56.181456 
L 224.436615 56.181456 
z
" style="fill:#1f77b4;"/>
   </g>
   <g id="patch_105">
    <path clip-path="url(#p15439704e8)" d="M 226.043625 273.312 
L 227.650636 273.312 
L 227.650636 58.360023 
L 226.043625 58.360023 
z
" style="fill:#1f77b4;"/>
   </g>
   <g id="patch_106">
    <path clip-path="url(#p15439704e8)" d="M 227.650636 273.312 
L 229.257646 273.312 
L 229.257646 31.491026 
L 227.650636 31.491026 
z
" style="fill:#1f77b4;"/>
   </g>
   <g id="patch_107">
    <path clip-path="url(#p15439704e8)" d="M 229.257646 273.312 
L 230.864657 273.312 
L 230.864657 64.895725 
L 229.257646 64.895725 
z
" style="fill:#1f77b4;"/>
   </g>
   <g id="patch_108">
    <path clip-path="url(#p15439704e8)" d="M 230.864657 273.312 
L 232.471667 273.312 
L 232.471667 58.360023 
L 230.864657 58.360023 
z
" style="fill:#1f77b4;"/>
   </g>
   <g id="patch_109">
    <path clip-path="url(#p15439704e8)" d="M 232.471667 273.312 
L 234.078677 273.312 
L 234.078677 24.229135 
L 232.471667 24.229135 
z
" style="fill:#1f77b4;"/>
   </g>
   <g id="patch_110">
    <path clip-path="url(#p15439704e8)" d="M 234.078677 273.312 
L 235.685688 273.312 
L 235.685688 53.276699 
L 234.078677 53.276699 
z
" style="fill:#1f77b4;"/>
   </g>
   <g id="patch_111">
    <path clip-path="url(#p15439704e8)" d="M 235.685688 273.312 
L 237.292698 273.312 
L 237.292698 38.752917 
L 235.685688 38.752917 
z
" style="fill:#1f77b4;"/>
   </g>
   <g id="patch_112">
    <path clip-path="url(#p15439704e8)" d="M 237.292698 273.312 
L 238.899708 273.312 
L 238.899708 47.467186 
L 237.292698 47.467186 
z
" style="fill:#1f77b4;"/>
   </g>
   <g id="patch_113">
    <path clip-path="url(#p15439704e8)" d="M 238.899708 273.312 
L 240.506719 273.312 
L 240.506719 65.621914 
L 238.899708 65.621914 
z
" style="fill:#1f77b4;"/>
   </g>
   <g id="patch_114">
    <path clip-path="url(#p15439704e8)" d="M 240.506719 273.312 
L 242.113729 273.312 
L 242.113729 51.824321 
L 240.506719 51.824321 
z
" style="fill:#1f77b4;"/>
   </g>
   <g id="patch_115">
    <path clip-path="url(#p15439704e8)" d="M 242.113729 273.312 
L 243.72074 273.312 
L 243.72074 63.443347 
L 242.113729 63.443347 
z
" style="fill:#1f77b4;"/>
   </g>
   <g id="patch_116">
    <path clip-path="url(#p15439704e8)" d="M 243.72074 273.312 
L 245.32775 273.312 
L 245.32775 40.931484 
L 243.72074 40.931484 
z
" style="fill:#1f77b4;"/>
   </g>
   <g id="patch_117">
    <path clip-path="url(#p15439704e8)" d="M 245.32775 273.312 
L 246.93476 273.312 
L 246.93476 49.645754 
L 245.32775 49.645754 
z
" style="fill:#1f77b4;"/>
   </g>
   <g id="patch_118">
    <path clip-path="url(#p15439704e8)" d="M 246.93476 273.312 
L 248.541771 273.312 
L 248.541771 43.110052 
L 246.93476 43.110052 
z
" style="fill:#1f77b4;"/>
   </g>
   <g id="patch_119">
    <path clip-path="url(#p15439704e8)" d="M 248.541771 273.312 
L 250.148781 273.312 
L 250.148781 51.098132 
L 248.541771 51.098132 
z
" style="fill:#1f77b4;"/>
   </g>
   <g id="patch_120">
    <path clip-path="url(#p15439704e8)" d="M 250.148781 273.312 
L 251.755791 273.312 
L 251.755791 56.181456 
L 250.148781 56.181456 
z
" style="fill:#1f77b4;"/>
   </g>
   <g id="patch_121">
    <path clip-path="url(#p15439704e8)" d="M 251.755791 273.312 
L 253.362802 273.312 
L 253.362802 36.57435 
L 251.755791 36.57435 
z
" style="fill:#1f77b4;"/>
   </g>
   <g id="patch_122">
    <path clip-path="url(#p15439704e8)" d="M 253.362802 273.312 
L 254.969812 273.312 
L 254.969812 53.276699 
L 253.362802 53.276699 
z
" style="fill:#1f77b4;"/>
   </g>
   <g id="patch_123">
    <path clip-path="url(#p15439704e8)" d="M 254.969812 273.312 
L 256.576823 273.312 
L 256.576823 78.693318 
L 254.969812 78.693318 
z
" style="fill:#1f77b4;"/>
   </g>
   <g id="patch_124">
    <path clip-path="url(#p15439704e8)" d="M 256.576823 273.312 
L 258.183833 273.312 
L 258.183833 67.074292 
L 256.576823 67.074292 
z
" style="fill:#1f77b4;"/>
   </g>
   <g id="patch_125">
    <path clip-path="url(#p15439704e8)" d="M 258.183833 273.312 
L 259.790843 273.312 
L 259.790843 53.276699 
L 258.183833 53.276699 
z
" style="fill:#1f77b4;"/>
   </g>
   <g id="patch_126">
    <path clip-path="url(#p15439704e8)" d="M 259.790843 273.312 
L 261.397854 273.312 
L 261.397854 59.086212 
L 259.790843 59.086212 
z
" style="fill:#1f77b4;"/>
   </g>
   <g id="patch_127">
    <path clip-path="url(#p15439704e8)" d="M 261.397854 273.312 
L 263.004864 273.312 
L 263.004864 75.788562 
L 261.397854 75.788562 
z
" style="fill:#1f77b4;"/>
   </g>
   <g id="patch_128">
    <path clip-path="url(#p15439704e8)" d="M 263.004864 273.312 
L 264.611874 273.312 
L 264.611874 89.586155 
L 263.004864 89.586155 
z
" style="fill:#1f77b4;"/>
   </g>
   <g id="patch_129">
    <path clip-path="url(#p15439704e8)" d="M 264.611874 273.312 
L 266.218885 273.312 
L 266.218885 64.895725 
L 264.611874 64.895725 
z
" style="fill:#1f77b4;"/>
   </g>
   <g id="patch_130">
    <path clip-path="url(#p15439704e8)" d="M 266.218885 273.312 
L 267.825895 273.312 
L 267.825895 67.074292 
L 266.218885 67.074292 
z
" style="fill:#1f77b4;"/>
   </g>
   <g id="patch_131">
    <path clip-path="url(#p15439704e8)" d="M 267.825895 273.312 
L 269.432906 273.312 
L 269.432906 71.431427 
L 267.825895 71.431427 
z
" style="fill:#1f77b4;"/>
   </g>
   <g id="patch_132">
    <path clip-path="url(#p15439704e8)" d="M 269.432906 273.312 
L 271.039916 273.312 
L 271.039916 67.800481 
L 269.432906 67.800481 
z
" style="fill:#1f77b4;"/>
   </g>
   <g id="patch_133">
    <path clip-path="url(#p15439704e8)" d="M 271.039916 273.312 
L 272.646926 273.312 
L 272.646926 59.086212 
L 271.039916 59.086212 
z
" style="fill:#1f77b4;"/>
   </g>
   <g id="patch_134">
    <path clip-path="url(#p15439704e8)" d="M 272.646926 273.312 
L 274.253937 273.312 
L 274.253937 54.729077 
L 272.646926 54.729077 
z
" style="fill:#1f77b4;"/>
   </g>
   <g id="patch_135">
    <path clip-path="url(#p15439704e8)" d="M 274.253937 273.312 
L 275.860947 273.312 
L 275.860947 62.717158 
L 274.253937 62.717158 
z
" style="fill:#1f77b4;"/>
   </g>
   <g id="patch_136">
    <path clip-path="url(#p15439704e8)" d="M 275.860947 273.312 
L 277.467957 273.312 
L 277.467957 83.050453 
L 275.860947 83.050453 
z
" style="fill:#1f77b4;"/>
   </g>
   <g id="patch_137">
    <path clip-path="url(#p15439704e8)" d="M 277.467957 273.312 
L 279.074968 273.312 
L 279.074968 82.324264 
L 277.467957 82.324264 
z
" style="fill:#1f77b4;"/>
   </g>
   <g id="patch_138">
    <path clip-path="url(#p15439704e8)" d="M 279.074968 273.312 
L 280.681978 273.312 
L 280.681978 82.324264 
L 279.074968 82.324264 
z
" style="fill:#1f77b4;"/>
   </g>
   <g id="patch_139">
    <path clip-path="url(#p15439704e8)" d="M 280.681978 273.312 
L 282.288989 273.312 
L 282.288989 79.419507 
L 280.681978 79.419507 
z
" style="fill:#1f77b4;"/>
   </g>
   <g id="patch_140">
    <path clip-path="url(#p15439704e8)" d="M 282.288989 273.312 
L 283.895999 273.312 
L 283.895999 85.22902 
L 282.288989 85.22902 
z
" style="fill:#1f77b4;"/>
   </g>
   <g id="patch_141">
    <path clip-path="url(#p15439704e8)" d="M 283.895999 273.312 
L 285.503009 273.312 
L 285.503009 91.764722 
L 283.895999 91.764722 
z
" style="fill:#1f77b4;"/>
   </g>
   <g id="patch_142">
    <path clip-path="url(#p15439704e8)" d="M 285.503009 273.312 
L 287.11002 273.312 
L 287.11002 75.062372 
L 285.503009 75.062372 
z
" style="fill:#1f77b4;"/>
   </g>
   <g id="patch_143">
    <path clip-path="url(#p15439704e8)" d="M 287.11002 273.312 
L 288.71703 273.312 
L 288.71703 112.098017 
L 287.11002 112.098017 
z
" style="fill:#1f77b4;"/>
   </g>
   <g id="patch_144">
    <path clip-path="url(#p15439704e8)" d="M 288.71703 273.312 
L 290.324041 273.312 
L 290.324041 86.681398 
L 288.71703 86.681398 
z
" style="fill:#1f77b4;"/>
   </g>
   <g id="patch_145">
    <path clip-path="url(#p15439704e8)" d="M 290.324041 273.312 
L 291.931051 273.312 
L 291.931051 101.205181 
L 290.324041 101.205181 
z
" style="fill:#1f77b4;"/>
   </g>
   <g id="patch_146">
    <path clip-path="url(#p15439704e8)" d="M 291.931051 273.312 
L 293.538061 273.312 
L 293.538061 93.943289 
L 291.931051 93.943289 
z
" style="fill:#1f77b4;"/>
   </g>
   <g id="patch_147">
    <path clip-path="url(#p15439704e8)" d="M 293.538061 273.312 
L 295.145072 273.312 
L 295.145072 123.717043 
L 293.538061 123.717043 
z
" style="fill:#1f77b4;"/>
   </g>
   <g id="patch_148">
    <path clip-path="url(#p15439704e8)" d="M 295.145072 273.312 
L 296.752082 273.312 
L 296.752082 113.550395 
L 295.145072 113.550395 
z
" style="fill:#1f77b4;"/>
   </g>
   <g id="patch_149">
    <path clip-path="url(#p15439704e8)" d="M 296.752082 273.312 
L 298.359092 273.312 
L 298.359092 120.812287 
L 296.752082 120.812287 
z
" style="fill:#1f77b4;"/>
   </g>
   <g id="patch_150">
    <path clip-path="url(#p15439704e8)" d="M 298.359092 273.312 
L 299.966103 273.312 
L 299.966103 105.562315 
L 298.359092 105.562315 
z
" style="fill:#1f77b4;"/>
   </g>
   <g id="patch_151">
    <path clip-path="url(#p15439704e8)" d="M 299.966103 273.312 
L 301.573113 273.312 
L 301.573113 128.074178 
L 299.966103 128.074178 
z
" style="fill:#1f77b4;"/>
   </g>
   <g id="patch_152">
    <path clip-path="url(#p15439704e8)" d="M 301.573113 273.312 
L 303.180124 273.312 
L 303.180124 130.252745 
L 301.573113 130.252745 
z
" style="fill:#1f77b4;"/>
   </g>
   <g id="patch_153">
    <path clip-path="url(#p15439704e8)" d="M 303.180124 273.312 
L 304.787134 273.312 
L 304.787134 112.824206 
L 303.180124 112.824206 
z
" style="fill:#1f77b4;"/>
   </g>
   <g id="patch_154">
    <path clip-path="url(#p15439704e8)" d="M 304.787134 273.312 
L 306.394144 273.312 
L 306.394144 115.002774 
L 304.787134 115.002774 
z
" style="fill:#1f77b4;"/>
   </g>
   <g id="patch_155">
    <path clip-path="url(#p15439704e8)" d="M 306.394144 273.312 
L 308.001155 273.312 
L 308.001155 115.728963 
L 306.394144 115.728963 
z
" style="fill:#1f77b4;"/>
   </g>
   <g id="patch_156">
    <path clip-path="url(#p15439704e8)" d="M 308.001155 273.312 
L 309.608165 273.312 
L 309.608165 111.371828 
L 308.001155 111.371828 
z
" style="fill:#1f77b4;"/>
   </g>
   <g id="patch_157">
    <path clip-path="url(#p15439704e8)" d="M 309.608165 273.312 
L 311.215175 273.312 
L 311.215175 108.467072 
L 309.608165 108.467072 
z
" style="fill:#1f77b4;"/>
   </g>
   <g id="patch_158">
    <path clip-path="url(#p15439704e8)" d="M 311.215175 273.312 
L 312.822186 273.312 
L 312.822186 119.359908 
L 311.215175 119.359908 
z
" style="fill:#1f77b4;"/>
   </g>
   <g id="patch_159">
    <path clip-path="url(#p15439704e8)" d="M 312.822186 273.312 
L 314.429196 273.312 
L 314.429196 141.145582 
L 312.822186 141.145582 
z
" style="fill:#1f77b4;"/>
   </g>
   <g id="patch_160">
    <path clip-path="url(#p15439704e8)" d="M 314.429196 273.312 
L 316.036207 273.312 
L 316.036207 119.359908 
L 314.429196 119.359908 
z
" style="fill:#1f77b4;"/>
   </g>
   <g id="patch_161">
    <path clip-path="url(#p15439704e8)" d="M 316.036207 273.312 
L 317.643217 273.312 
L 317.643217 139.693203 
L 316.036207 139.693203 
z
" style="fill:#1f77b4;"/>
   </g>
   <g id="patch_162">
    <path clip-path="url(#p15439704e8)" d="M 317.643217 273.312 
L 319.250227 273.312 
L 319.250227 141.145582 
L 317.643217 141.145582 
z
" style="fill:#1f77b4;"/>
   </g>
   <g id="patch_163">
    <path clip-path="url(#p15439704e8)" d="M 319.250227 273.312 
L 320.857238 273.312 
L 320.857238 144.050338 
L 319.250227 144.050338 
z
" style="fill:#1f77b4;"/>
   </g>
   <g id="patch_164">
    <path clip-path="url(#p15439704e8)" d="M 320.857238 273.312 
L 322.464248 273.312 
L 322.464248 152.764607 
L 320.857238 152.764607 
z
" style="fill:#1f77b4;"/>
   </g>
   <g id="patch_165">
    <path clip-path="url(#p15439704e8)" d="M 322.464248 273.312 
L 324.071258 273.312 
L 324.071258 148.407473 
L 322.464248 148.407473 
z
" style="fill:#1f77b4;"/>
   </g>
   <g id="patch_166">
    <path clip-path="url(#p15439704e8)" d="M 324.071258 273.312 
L 325.678269 273.312 
L 325.678269 154.943175 
L 324.071258 154.943175 
z
" style="fill:#1f77b4;"/>
   </g>
   <g id="patch_167">
    <path clip-path="url(#p15439704e8)" d="M 325.678269 273.312 
L 327.285279 273.312 
L 327.285279 142.59796 
L 325.678269 142.59796 
z
" style="fill:#1f77b4;"/>
   </g>
   <g id="patch_168">
    <path clip-path="url(#p15439704e8)" d="M 327.285279 273.312 
L 328.89229 273.312 
L 328.89229 156.395553 
L 327.285279 156.395553 
z
" style="fill:#1f77b4;"/>
   </g>
   <g id="patch_169">
    <path clip-path="url(#p15439704e8)" d="M 328.89229 273.312 
L 330.4993 273.312 
L 330.4993 147.681284 
L 328.89229 147.681284 
z
" style="fill:#1f77b4;"/>
   </g>
   <g id="patch_170">
    <path clip-path="url(#p15439704e8)" d="M 330.4993 273.312 
L 332.10631 273.312 
L 332.10631 154.943175 
L 330.4993 154.943175 
z
" style="fill:#1f77b4;"/>
   </g>
   <g id="patch_171">
    <path clip-path="url(#p15439704e8)" d="M 332.10631 273.312 
L 333.713321 273.312 
L 333.713321 176.728848 
L 332.10631 176.728848 
z
" style="fill:#1f77b4;"/>
   </g>
   <g id="patch_172">
    <path clip-path="url(#p15439704e8)" d="M 333.713321 273.312 
L 335.320331 273.312 
L 335.320331 173.097903 
L 333.713321 173.097903 
z
" style="fill:#1f77b4;"/>
   </g>
   <g id="patch_173">
    <path clip-path="url(#p15439704e8)" d="M 335.320331 273.312 
L 336.927341 273.312 
L 336.927341 181.085983 
L 335.320331 181.085983 
z
" style="fill:#1f77b4;"/>
   </g>
   <g id="patch_174">
    <path clip-path="url(#p15439704e8)" d="M 336.927341 273.312 
L 338.534352 273.312 
L 338.534352 165.109822 
L 336.927341 165.109822 
z
" style="fill:#1f77b4;"/>
   </g>
   <g id="patch_175">
    <path clip-path="url(#p15439704e8)" d="M 338.534352 273.312 
L 340.141362 273.312 
L 340.141362 182.538361 
L 338.534352 182.538361 
z
" style="fill:#1f77b4;"/>
   </g>
   <g id="patch_176">
    <path clip-path="url(#p15439704e8)" d="M 340.141362 273.312 
L 341.748373 273.312 
L 341.748373 181.085983 
L 340.141362 181.085983 
z
" style="fill:#1f77b4;"/>
   </g>
   <g id="patch_177">
    <path clip-path="url(#p15439704e8)" d="M 341.748373 273.312 
L 343.355383 273.312 
L 343.355383 194.883576 
L 341.748373 194.883576 
z
" style="fill:#1f77b4;"/>
   </g>
   <g id="patch_178">
    <path clip-path="url(#p15439704e8)" d="M 343.355383 273.312 
L 344.962393 273.312 
L 344.962393 181.812172 
L 343.355383 181.812172 
z
" style="fill:#1f77b4;"/>
   </g>
   <g id="patch_179">
    <path clip-path="url(#p15439704e8)" d="M 344.962393 273.312 
L 346.569404 273.312 
L 346.569404 194.883576 
L 344.962393 194.883576 
z
" style="fill:#1f77b4;"/>
   </g>
   <g id="patch_180">
    <path clip-path="url(#p15439704e8)" d="M 346.569404 273.312 
L 348.176414 273.312 
L 348.176414 208.681169 
L 346.569404 208.681169 
z
" style="fill:#1f77b4;"/>
   </g>
   <g id="patch_181">
    <path clip-path="url(#p15439704e8)" d="M 348.176414 273.312 
L 349.783424 273.312 
L 349.783424 192.705009 
L 348.176414 192.705009 
z
" style="fill:#1f77b4;"/>
   </g>
   <g id="patch_182">
    <path clip-path="url(#p15439704e8)" d="M 349.783424 273.312 
L 351.390435 273.312 
L 351.390435 194.883576 
L 349.783424 194.883576 
z
" style="fill:#1f77b4;"/>
   </g>
   <g id="patch_183">
    <path clip-path="url(#p15439704e8)" d="M 351.390435 273.312 
L 352.997445 273.312 
L 352.997445 197.788332 
L 351.390435 197.788332 
z
" style="fill:#1f77b4;"/>
   </g>
   <g id="patch_184">
    <path clip-path="url(#p15439704e8)" d="M 352.997445 273.312 
L 354.604456 273.312 
L 354.604456 202.145467 
L 352.997445 202.145467 
z
" style="fill:#1f77b4;"/>
   </g>
   <g id="patch_185">
    <path clip-path="url(#p15439704e8)" d="M 354.604456 273.312 
L 356.211466 273.312 
L 356.211466 212.312115 
L 354.604456 212.312115 
z
" style="fill:#1f77b4;"/>
   </g>
   <g id="patch_186">
    <path clip-path="url(#p15439704e8)" d="M 356.211466 273.312 
L 357.818476 273.312 
L 357.818476 213.038304 
L 356.211466 213.038304 
z
" style="fill:#1f77b4;"/>
   </g>
   <g id="patch_187">
    <path clip-path="url(#p15439704e8)" d="M 357.818476 273.312 
L 359.425487 273.312 
L 359.425487 220.300195 
L 357.818476 220.300195 
z
" style="fill:#1f77b4;"/>
   </g>
   <g id="patch_188">
    <path clip-path="url(#p15439704e8)" d="M 359.425487 273.312 
L 361.032497 273.312 
L 361.032497 213.038304 
L 359.425487 213.038304 
z
" style="fill:#1f77b4;"/>
   </g>
   <g id="patch_189">
    <path clip-path="url(#p15439704e8)" d="M 361.032497 273.312 
L 362.639507 273.312 
L 362.639507 220.300195 
L 361.032497 220.300195 
z
" style="fill:#1f77b4;"/>
   </g>
   <g id="patch_190">
    <path clip-path="url(#p15439704e8)" d="M 362.639507 273.312 
L 364.246518 273.312 
L 364.246518 221.026384 
L 362.639507 221.026384 
z
" style="fill:#1f77b4;"/>
   </g>
   <g id="patch_191">
    <path clip-path="url(#p15439704e8)" d="M 364.246518 273.312 
L 365.853528 273.312 
L 365.853528 230.466842 
L 364.246518 230.466842 
z
" style="fill:#1f77b4;"/>
   </g>
   <g id="patch_192">
    <path clip-path="url(#p15439704e8)" d="M 365.853528 273.312 
L 367.460539 273.312 
L 367.460539 238.454923 
L 365.853528 238.454923 
z
" style="fill:#1f77b4;"/>
   </g>
   <g id="patch_193">
    <path clip-path="url(#p15439704e8)" d="M 367.460539 273.312 
L 369.067549 273.312 
L 369.067549 232.64541 
L 367.460539 232.64541 
z
" style="fill:#1f77b4;"/>
   </g>
   <g id="patch_194">
    <path clip-path="url(#p15439704e8)" d="M 369.067549 273.312 
L 370.674559 273.312 
L 370.674559 243.538246 
L 369.067549 243.538246 
z
" style="fill:#1f77b4;"/>
   </g>
   <g id="patch_195">
    <path clip-path="url(#p15439704e8)" d="M 370.674559 273.312 
L 372.28157 273.312 
L 372.28157 245.716814 
L 370.674559 245.716814 
z
" style="fill:#1f77b4;"/>
   </g>
   <g id="patch_196">
    <path clip-path="url(#p15439704e8)" d="M 372.28157 273.312 
L 373.88858 273.312 
L 373.88858 250.073948 
L 372.28157 250.073948 
z
" style="fill:#1f77b4;"/>
   </g>
   <g id="patch_197">
    <path clip-path="url(#p15439704e8)" d="M 373.88858 273.312 
L 375.49559 273.312 
L 375.49559 258.062029 
L 373.88858 258.062029 
z
" style="fill:#1f77b4;"/>
   </g>
   <g id="patch_198">
    <path clip-path="url(#p15439704e8)" d="M 375.49559 273.312 
L 377.102601 273.312 
L 377.102601 259.514407 
L 375.49559 259.514407 
z
" style="fill:#1f77b4;"/>
   </g>
   <g id="patch_199">
    <path clip-path="url(#p15439704e8)" d="M 377.102601 273.312 
L 378.709611 273.312 
L 378.709611 259.514407 
L 377.102601 259.514407 
z
" style="fill:#1f77b4;"/>
   </g>
   <g id="patch_200">
    <path clip-path="url(#p15439704e8)" d="M 378.709611 273.312 
L 380.316622 273.312 
L 380.316622 266.050109 
L 378.709611 266.050109 
z
" style="fill:#1f77b4;"/>
   </g>
   <g id="patch_201">
    <path clip-path="url(#p15439704e8)" d="M 380.316622 273.312 
L 381.923632 273.312 
L 381.923632 263.145352 
L 380.316622 263.145352 
z
" style="fill:#1f77b4;"/>
   </g>
   <g id="patch_202">
    <path clip-path="url(#p15439704e8)" d="M 381.923632 273.312 
L 383.530642 273.312 
L 383.530642 265.32392 
L 381.923632 265.32392 
z
" style="fill:#1f77b4;"/>
   </g>
   <g id="matplotlib.axis_1">
    <g id="xtick_1">
     <g id="line2d_1">
      <defs>
       <path d="M 0 0 
L 0 3.5 
" id="m2be6cfa9c7" style="stroke:#000000;stroke-width:0.8;"/>
      </defs>
      <g>
       <use style="stroke:#000000;stroke-width:0.8;" x="60.013977" xlink:href="#m2be6cfa9c7" y="273.312"/>
      </g>
     </g>
     <g id="text_1">
      <!-- 0.0 -->
      <g transform="translate(52.062415 287.910437)scale(0.1 -0.1)">
       <defs>
        <path d="M 2034 4250 
Q 1547 4250 1301 3770 
Q 1056 3291 1056 2328 
Q 1056 1369 1301 889 
Q 1547 409 2034 409 
Q 2525 409 2770 889 
Q 3016 1369 3016 2328 
Q 3016 3291 2770 3770 
Q 2525 4250 2034 4250 
z
M 2034 4750 
Q 2819 4750 3233 4129 
Q 3647 3509 3647 2328 
Q 3647 1150 3233 529 
Q 2819 -91 2034 -91 
Q 1250 -91 836 529 
Q 422 1150 422 2328 
Q 422 3509 836 4129 
Q 1250 4750 2034 4750 
z
" id="DejaVuSans-30" transform="scale(0.015625)"/>
        <path d="M 684 794 
L 1344 794 
L 1344 0 
L 684 0 
L 684 794 
z
" id="DejaVuSans-2e" transform="scale(0.015625)"/>
       </defs>
       <use xlink:href="#DejaVuSans-30"/>
       <use x="63.623047" xlink:href="#DejaVuSans-2e"/>
       <use x="95.410156" xlink:href="#DejaVuSans-30"/>
      </g>
     </g>
    </g>
    <g id="xtick_2">
     <g id="line2d_2">
      <g>
       <use style="stroke:#000000;stroke-width:0.8;" x="101.350278" xlink:href="#m2be6cfa9c7" y="273.312"/>
      </g>
     </g>
     <g id="text_2">
      <!-- 0.2 -->
      <g transform="translate(93.398715 287.910437)scale(0.1 -0.1)">
       <defs>
        <path d="M 1228 531 
L 3431 531 
L 3431 0 
L 469 0 
L 469 531 
Q 828 903 1448 1529 
Q 2069 2156 2228 2338 
Q 2531 2678 2651 2914 
Q 2772 3150 2772 3378 
Q 2772 3750 2511 3984 
Q 2250 4219 1831 4219 
Q 1534 4219 1204 4116 
Q 875 4013 500 3803 
L 500 4441 
Q 881 4594 1212 4672 
Q 1544 4750 1819 4750 
Q 2544 4750 2975 4387 
Q 3406 4025 3406 3419 
Q 3406 3131 3298 2873 
Q 3191 2616 2906 2266 
Q 2828 2175 2409 1742 
Q 1991 1309 1228 531 
z
" id="DejaVuSans-32" transform="scale(0.015625)"/>
       </defs>
       <use xlink:href="#DejaVuSans-30"/>
       <use x="63.623047" xlink:href="#DejaVuSans-2e"/>
       <use x="95.410156" xlink:href="#DejaVuSans-32"/>
      </g>
     </g>
    </g>
    <g id="xtick_3">
     <g id="line2d_3">
      <g>
       <use style="stroke:#000000;stroke-width:0.8;" x="142.686578" xlink:href="#m2be6cfa9c7" y="273.312"/>
      </g>
     </g>
     <g id="text_3">
      <!-- 0.4 -->
      <g transform="translate(134.735016 287.910437)scale(0.1 -0.1)">
       <defs>
        <path d="M 2419 4116 
L 825 1625 
L 2419 1625 
L 2419 4116 
z
M 2253 4666 
L 3047 4666 
L 3047 1625 
L 3713 1625 
L 3713 1100 
L 3047 1100 
L 3047 0 
L 2419 0 
L 2419 1100 
L 313 1100 
L 313 1709 
L 2253 4666 
z
" id="DejaVuSans-34" transform="scale(0.015625)"/>
       </defs>
       <use xlink:href="#DejaVuSans-30"/>
       <use x="63.623047" xlink:href="#DejaVuSans-2e"/>
       <use x="95.410156" xlink:href="#DejaVuSans-34"/>
      </g>
     </g>
    </g>
    <g id="xtick_4">
     <g id="line2d_4">
      <g>
       <use style="stroke:#000000;stroke-width:0.8;" x="184.022879" xlink:href="#m2be6cfa9c7" y="273.312"/>
      </g>
     </g>
     <g id="text_4">
      <!-- 0.6 -->
      <g transform="translate(176.071316 287.910437)scale(0.1 -0.1)">
       <defs>
        <path d="M 2113 2584 
Q 1688 2584 1439 2293 
Q 1191 2003 1191 1497 
Q 1191 994 1439 701 
Q 1688 409 2113 409 
Q 2538 409 2786 701 
Q 3034 994 3034 1497 
Q 3034 2003 2786 2293 
Q 2538 2584 2113 2584 
z
M 3366 4563 
L 3366 3988 
Q 3128 4100 2886 4159 
Q 2644 4219 2406 4219 
Q 1781 4219 1451 3797 
Q 1122 3375 1075 2522 
Q 1259 2794 1537 2939 
Q 1816 3084 2150 3084 
Q 2853 3084 3261 2657 
Q 3669 2231 3669 1497 
Q 3669 778 3244 343 
Q 2819 -91 2113 -91 
Q 1303 -91 875 529 
Q 447 1150 447 2328 
Q 447 3434 972 4092 
Q 1497 4750 2381 4750 
Q 2619 4750 2861 4703 
Q 3103 4656 3366 4563 
z
" id="DejaVuSans-36" transform="scale(0.015625)"/>
       </defs>
       <use xlink:href="#DejaVuSans-30"/>
       <use x="63.623047" xlink:href="#DejaVuSans-2e"/>
       <use x="95.410156" xlink:href="#DejaVuSans-36"/>
      </g>
     </g>
    </g>
    <g id="xtick_5">
     <g id="line2d_5">
      <g>
       <use style="stroke:#000000;stroke-width:0.8;" x="225.35918" xlink:href="#m2be6cfa9c7" y="273.312"/>
      </g>
     </g>
     <g id="text_5">
      <!-- 0.8 -->
      <g transform="translate(217.407617 287.910437)scale(0.1 -0.1)">
       <defs>
        <path d="M 2034 2216 
Q 1584 2216 1326 1975 
Q 1069 1734 1069 1313 
Q 1069 891 1326 650 
Q 1584 409 2034 409 
Q 2484 409 2743 651 
Q 3003 894 3003 1313 
Q 3003 1734 2745 1975 
Q 2488 2216 2034 2216 
z
M 1403 2484 
Q 997 2584 770 2862 
Q 544 3141 544 3541 
Q 544 4100 942 4425 
Q 1341 4750 2034 4750 
Q 2731 4750 3128 4425 
Q 3525 4100 3525 3541 
Q 3525 3141 3298 2862 
Q 3072 2584 2669 2484 
Q 3125 2378 3379 2068 
Q 3634 1759 3634 1313 
Q 3634 634 3220 271 
Q 2806 -91 2034 -91 
Q 1263 -91 848 271 
Q 434 634 434 1313 
Q 434 1759 690 2068 
Q 947 2378 1403 2484 
z
M 1172 3481 
Q 1172 3119 1398 2916 
Q 1625 2713 2034 2713 
Q 2441 2713 2670 2916 
Q 2900 3119 2900 3481 
Q 2900 3844 2670 4047 
Q 2441 4250 2034 4250 
Q 1625 4250 1398 4047 
Q 1172 3844 1172 3481 
z
" id="DejaVuSans-38" transform="scale(0.015625)"/>
       </defs>
       <use xlink:href="#DejaVuSans-30"/>
       <use x="63.623047" xlink:href="#DejaVuSans-2e"/>
       <use x="95.410156" xlink:href="#DejaVuSans-38"/>
      </g>
     </g>
    </g>
    <g id="xtick_6">
     <g id="line2d_6">
      <g>
       <use style="stroke:#000000;stroke-width:0.8;" x="266.69548" xlink:href="#m2be6cfa9c7" y="273.312"/>
      </g>
     </g>
     <g id="text_6">
      <!-- 1.0 -->
      <g transform="translate(258.743918 287.910437)scale(0.1 -0.1)">
       <defs>
        <path d="M 794 531 
L 1825 531 
L 1825 4091 
L 703 3866 
L 703 4441 
L 1819 4666 
L 2450 4666 
L 2450 531 
L 3481 531 
L 3481 0 
L 794 0 
L 794 531 
z
" id="DejaVuSans-31" transform="scale(0.015625)"/>
       </defs>
       <use xlink:href="#DejaVuSans-31"/>
       <use x="63.623047" xlink:href="#DejaVuSans-2e"/>
       <use x="95.410156" xlink:href="#DejaVuSans-30"/>
      </g>
     </g>
    </g>
    <g id="xtick_7">
     <g id="line2d_7">
      <g>
       <use style="stroke:#000000;stroke-width:0.8;" x="308.031781" xlink:href="#m2be6cfa9c7" y="273.312"/>
      </g>
     </g>
     <g id="text_7">
      <!-- 1.2 -->
      <g transform="translate(300.080218 287.910437)scale(0.1 -0.1)">
       <use xlink:href="#DejaVuSans-31"/>
       <use x="63.623047" xlink:href="#DejaVuSans-2e"/>
       <use x="95.410156" xlink:href="#DejaVuSans-32"/>
      </g>
     </g>
    </g>
    <g id="xtick_8">
     <g id="line2d_8">
      <g>
       <use style="stroke:#000000;stroke-width:0.8;" x="349.368081" xlink:href="#m2be6cfa9c7" y="273.312"/>
      </g>
     </g>
     <g id="text_8">
      <!-- 1.4 -->
      <g transform="translate(341.416519 287.910437)scale(0.1 -0.1)">
       <use xlink:href="#DejaVuSans-31"/>
       <use x="63.623047" xlink:href="#DejaVuSans-2e"/>
       <use x="95.410156" xlink:href="#DejaVuSans-34"/>
      </g>
     </g>
    </g>
    <g id="xtick_9">
     <g id="line2d_9">
      <g>
       <use style="stroke:#000000;stroke-width:0.8;" x="390.704382" xlink:href="#m2be6cfa9c7" y="273.312"/>
      </g>
     </g>
     <g id="text_9">
      <!-- 1.6 -->
      <g transform="translate(382.752819 287.910437)scale(0.1 -0.1)">
       <use xlink:href="#DejaVuSans-31"/>
       <use x="63.623047" xlink:href="#DejaVuSans-2e"/>
       <use x="95.410156" xlink:href="#DejaVuSans-36"/>
      </g>
     </g>
    </g>
    <g id="text_10">
     <!-- Angle with normal (rad) -->
     <g transform="translate(163.023281 301.588562)scale(0.1 -0.1)">
      <defs>
       <path d="M 2188 4044 
L 1331 1722 
L 3047 1722 
L 2188 4044 
z
M 1831 4666 
L 2547 4666 
L 4325 0 
L 3669 0 
L 3244 1197 
L 1141 1197 
L 716 0 
L 50 0 
L 1831 4666 
z
" id="DejaVuSans-41" transform="scale(0.015625)"/>
       <path d="M 3513 2113 
L 3513 0 
L 2938 0 
L 2938 2094 
Q 2938 2591 2744 2837 
Q 2550 3084 2163 3084 
Q 1697 3084 1428 2787 
Q 1159 2491 1159 1978 
L 1159 0 
L 581 0 
L 581 3500 
L 1159 3500 
L 1159 2956 
Q 1366 3272 1645 3428 
Q 1925 3584 2291 3584 
Q 2894 3584 3203 3211 
Q 3513 2838 3513 2113 
z
" id="DejaVuSans-6e" transform="scale(0.015625)"/>
       <path d="M 2906 1791 
Q 2906 2416 2648 2759 
Q 2391 3103 1925 3103 
Q 1463 3103 1205 2759 
Q 947 2416 947 1791 
Q 947 1169 1205 825 
Q 1463 481 1925 481 
Q 2391 481 2648 825 
Q 2906 1169 2906 1791 
z
M 3481 434 
Q 3481 -459 3084 -895 
Q 2688 -1331 1869 -1331 
Q 1566 -1331 1297 -1286 
Q 1028 -1241 775 -1147 
L 775 -588 
Q 1028 -725 1275 -790 
Q 1522 -856 1778 -856 
Q 2344 -856 2625 -561 
Q 2906 -266 2906 331 
L 2906 616 
Q 2728 306 2450 153 
Q 2172 0 1784 0 
Q 1141 0 747 490 
Q 353 981 353 1791 
Q 353 2603 747 3093 
Q 1141 3584 1784 3584 
Q 2172 3584 2450 3431 
Q 2728 3278 2906 2969 
L 2906 3500 
L 3481 3500 
L 3481 434 
z
" id="DejaVuSans-67" transform="scale(0.015625)"/>
       <path d="M 603 4863 
L 1178 4863 
L 1178 0 
L 603 0 
L 603 4863 
z
" id="DejaVuSans-6c" transform="scale(0.015625)"/>
       <path d="M 3597 1894 
L 3597 1613 
L 953 1613 
Q 991 1019 1311 708 
Q 1631 397 2203 397 
Q 2534 397 2845 478 
Q 3156 559 3463 722 
L 3463 178 
Q 3153 47 2828 -22 
Q 2503 -91 2169 -91 
Q 1331 -91 842 396 
Q 353 884 353 1716 
Q 353 2575 817 3079 
Q 1281 3584 2069 3584 
Q 2775 3584 3186 3129 
Q 3597 2675 3597 1894 
z
M 3022 2063 
Q 3016 2534 2758 2815 
Q 2500 3097 2075 3097 
Q 1594 3097 1305 2825 
Q 1016 2553 972 2059 
L 3022 2063 
z
" id="DejaVuSans-65" transform="scale(0.015625)"/>
       <path id="DejaVuSans-20" transform="scale(0.015625)"/>
       <path d="M 269 3500 
L 844 3500 
L 1563 769 
L 2278 3500 
L 2956 3500 
L 3675 769 
L 4391 3500 
L 4966 3500 
L 4050 0 
L 3372 0 
L 2619 2869 
L 1863 0 
L 1184 0 
L 269 3500 
z
" id="DejaVuSans-77" transform="scale(0.015625)"/>
       <path d="M 603 3500 
L 1178 3500 
L 1178 0 
L 603 0 
L 603 3500 
z
M 603 4863 
L 1178 4863 
L 1178 4134 
L 603 4134 
L 603 4863 
z
" id="DejaVuSans-69" transform="scale(0.015625)"/>
       <path d="M 1172 4494 
L 1172 3500 
L 2356 3500 
L 2356 3053 
L 1172 3053 
L 1172 1153 
Q 1172 725 1289 603 
Q 1406 481 1766 481 
L 2356 481 
L 2356 0 
L 1766 0 
Q 1100 0 847 248 
Q 594 497 594 1153 
L 594 3053 
L 172 3053 
L 172 3500 
L 594 3500 
L 594 4494 
L 1172 4494 
z
" id="DejaVuSans-74" transform="scale(0.015625)"/>
       <path d="M 3513 2113 
L 3513 0 
L 2938 0 
L 2938 2094 
Q 2938 2591 2744 2837 
Q 2550 3084 2163 3084 
Q 1697 3084 1428 2787 
Q 1159 2491 1159 1978 
L 1159 0 
L 581 0 
L 581 4863 
L 1159 4863 
L 1159 2956 
Q 1366 3272 1645 3428 
Q 1925 3584 2291 3584 
Q 2894 3584 3203 3211 
Q 3513 2838 3513 2113 
z
" id="DejaVuSans-68" transform="scale(0.015625)"/>
       <path d="M 1959 3097 
Q 1497 3097 1228 2736 
Q 959 2375 959 1747 
Q 959 1119 1226 758 
Q 1494 397 1959 397 
Q 2419 397 2687 759 
Q 2956 1122 2956 1747 
Q 2956 2369 2687 2733 
Q 2419 3097 1959 3097 
z
M 1959 3584 
Q 2709 3584 3137 3096 
Q 3566 2609 3566 1747 
Q 3566 888 3137 398 
Q 2709 -91 1959 -91 
Q 1206 -91 779 398 
Q 353 888 353 1747 
Q 353 2609 779 3096 
Q 1206 3584 1959 3584 
z
" id="DejaVuSans-6f" transform="scale(0.015625)"/>
       <path d="M 2631 2963 
Q 2534 3019 2420 3045 
Q 2306 3072 2169 3072 
Q 1681 3072 1420 2755 
Q 1159 2438 1159 1844 
L 1159 0 
L 581 0 
L 581 3500 
L 1159 3500 
L 1159 2956 
Q 1341 3275 1631 3429 
Q 1922 3584 2338 3584 
Q 2397 3584 2469 3576 
Q 2541 3569 2628 3553 
L 2631 2963 
z
" id="DejaVuSans-72" transform="scale(0.015625)"/>
       <path d="M 3328 2828 
Q 3544 3216 3844 3400 
Q 4144 3584 4550 3584 
Q 5097 3584 5394 3201 
Q 5691 2819 5691 2113 
L 5691 0 
L 5113 0 
L 5113 2094 
Q 5113 2597 4934 2840 
Q 4756 3084 4391 3084 
Q 3944 3084 3684 2787 
Q 3425 2491 3425 1978 
L 3425 0 
L 2847 0 
L 2847 2094 
Q 2847 2600 2669 2842 
Q 2491 3084 2119 3084 
Q 1678 3084 1418 2786 
Q 1159 2488 1159 1978 
L 1159 0 
L 581 0 
L 581 3500 
L 1159 3500 
L 1159 2956 
Q 1356 3278 1631 3431 
Q 1906 3584 2284 3584 
Q 2666 3584 2933 3390 
Q 3200 3197 3328 2828 
z
" id="DejaVuSans-6d" transform="scale(0.015625)"/>
       <path d="M 2194 1759 
Q 1497 1759 1228 1600 
Q 959 1441 959 1056 
Q 959 750 1161 570 
Q 1363 391 1709 391 
Q 2188 391 2477 730 
Q 2766 1069 2766 1631 
L 2766 1759 
L 2194 1759 
z
M 3341 1997 
L 3341 0 
L 2766 0 
L 2766 531 
Q 2569 213 2275 61 
Q 1981 -91 1556 -91 
Q 1019 -91 701 211 
Q 384 513 384 1019 
Q 384 1609 779 1909 
Q 1175 2209 1959 2209 
L 2766 2209 
L 2766 2266 
Q 2766 2663 2505 2880 
Q 2244 3097 1772 3097 
Q 1472 3097 1187 3025 
Q 903 2953 641 2809 
L 641 3341 
Q 956 3463 1253 3523 
Q 1550 3584 1831 3584 
Q 2591 3584 2966 3190 
Q 3341 2797 3341 1997 
z
" id="DejaVuSans-61" transform="scale(0.015625)"/>
       <path d="M 1984 4856 
Q 1566 4138 1362 3434 
Q 1159 2731 1159 2009 
Q 1159 1288 1364 580 
Q 1569 -128 1984 -844 
L 1484 -844 
Q 1016 -109 783 600 
Q 550 1309 550 2009 
Q 550 2706 781 3412 
Q 1013 4119 1484 4856 
L 1984 4856 
z
" id="DejaVuSans-28" transform="scale(0.015625)"/>
       <path d="M 2906 2969 
L 2906 4863 
L 3481 4863 
L 3481 0 
L 2906 0 
L 2906 525 
Q 2725 213 2448 61 
Q 2172 -91 1784 -91 
Q 1150 -91 751 415 
Q 353 922 353 1747 
Q 353 2572 751 3078 
Q 1150 3584 1784 3584 
Q 2172 3584 2448 3432 
Q 2725 3281 2906 2969 
z
M 947 1747 
Q 947 1113 1208 752 
Q 1469 391 1925 391 
Q 2381 391 2643 752 
Q 2906 1113 2906 1747 
Q 2906 2381 2643 2742 
Q 2381 3103 1925 3103 
Q 1469 3103 1208 2742 
Q 947 2381 947 1747 
z
" id="DejaVuSans-64" transform="scale(0.015625)"/>
       <path d="M 513 4856 
L 1013 4856 
Q 1481 4119 1714 3412 
Q 1947 2706 1947 2009 
Q 1947 1309 1714 600 
Q 1481 -109 1013 -844 
L 513 -844 
Q 928 -128 1133 580 
Q 1338 1288 1338 2009 
Q 1338 2731 1133 3434 
Q 928 4138 513 4856 
z
" id="DejaVuSans-29" transform="scale(0.015625)"/>
      </defs>
      <use xlink:href="#DejaVuSans-41"/>
      <use x="68.408203" xlink:href="#DejaVuSans-6e"/>
      <use x="131.787109" xlink:href="#DejaVuSans-67"/>
      <use x="195.263672" xlink:href="#DejaVuSans-6c"/>
      <use x="223.046875" xlink:href="#DejaVuSans-65"/>
      <use x="284.570312" xlink:href="#DejaVuSans-20"/>
      <use x="316.357422" xlink:href="#DejaVuSans-77"/>
      <use x="398.144531" xlink:href="#DejaVuSans-69"/>
      <use x="425.927734" xlink:href="#DejaVuSans-74"/>
      <use x="465.136719" xlink:href="#DejaVuSans-68"/>
      <use x="528.515625" xlink:href="#DejaVuSans-20"/>
      <use x="560.302734" xlink:href="#DejaVuSans-6e"/>
      <use x="623.681641" xlink:href="#DejaVuSans-6f"/>
      <use x="684.863281" xlink:href="#DejaVuSans-72"/>
      <use x="724.226562" xlink:href="#DejaVuSans-6d"/>
      <use x="821.638672" xlink:href="#DejaVuSans-61"/>
      <use x="882.917969" xlink:href="#DejaVuSans-6c"/>
      <use x="910.701172" xlink:href="#DejaVuSans-20"/>
      <use x="942.488281" xlink:href="#DejaVuSans-28"/>
      <use x="981.501953" xlink:href="#DejaVuSans-72"/>
      <use x="1022.615234" xlink:href="#DejaVuSans-61"/>
      <use x="1083.894531" xlink:href="#DejaVuSans-64"/>
      <use x="1147.371094" xlink:href="#DejaVuSans-29"/>
     </g>
    </g>
   </g>
   <g id="matplotlib.axis_2">
    <g id="ytick_1">
     <g id="line2d_10">
      <defs>
       <path d="M 0 0 
L -3.5 0 
" id="m8cd932dd8a" style="stroke:#000000;stroke-width:0.8;"/>
      </defs>
      <g>
       <use style="stroke:#000000;stroke-width:0.8;" x="43.78125" xlink:href="#m8cd932dd8a" y="273.312"/>
      </g>
     </g>
     <g id="text_11">
      <!-- 0.0 -->
      <g transform="translate(20.878125 277.111219)scale(0.1 -0.1)">
       <use xlink:href="#DejaVuSans-30"/>
       <use x="63.623047" xlink:href="#DejaVuSans-2e"/>
       <use x="95.410156" xlink:href="#DejaVuSans-30"/>
      </g>
     </g>
    </g>
    <g id="ytick_2">
     <g id="line2d_11">
      <g>
       <use style="stroke:#000000;stroke-width:0.8;" x="43.78125" xlink:href="#m8cd932dd8a" y="228.141303"/>
      </g>
     </g>
     <g id="text_12">
      <!-- 0.2 -->
      <g transform="translate(20.878125 231.940522)scale(0.1 -0.1)">
       <use xlink:href="#DejaVuSans-30"/>
       <use x="63.623047" xlink:href="#DejaVuSans-2e"/>
       <use x="95.410156" xlink:href="#DejaVuSans-32"/>
      </g>
     </g>
    </g>
    <g id="ytick_3">
     <g id="line2d_12">
      <g>
       <use style="stroke:#000000;stroke-width:0.8;" x="43.78125" xlink:href="#m8cd932dd8a" y="182.970606"/>
      </g>
     </g>
     <g id="text_13">
      <!-- 0.4 -->
      <g transform="translate(20.878125 186.769825)scale(0.1 -0.1)">
       <use xlink:href="#DejaVuSans-30"/>
       <use x="63.623047" xlink:href="#DejaVuSans-2e"/>
       <use x="95.410156" xlink:href="#DejaVuSans-34"/>
      </g>
     </g>
    </g>
    <g id="ytick_4">
     <g id="line2d_13">
      <g>
       <use style="stroke:#000000;stroke-width:0.8;" x="43.78125" xlink:href="#m8cd932dd8a" y="137.79991"/>
      </g>
     </g>
     <g id="text_14">
      <!-- 0.6 -->
      <g transform="translate(20.878125 141.599128)scale(0.1 -0.1)">
       <use xlink:href="#DejaVuSans-30"/>
       <use x="63.623047" xlink:href="#DejaVuSans-2e"/>
       <use x="95.410156" xlink:href="#DejaVuSans-36"/>
      </g>
     </g>
    </g>
    <g id="ytick_5">
     <g id="line2d_14">
      <g>
       <use style="stroke:#000000;stroke-width:0.8;" x="43.78125" xlink:href="#m8cd932dd8a" y="92.629213"/>
      </g>
     </g>
     <g id="text_15">
      <!-- 0.8 -->
      <g transform="translate(20.878125 96.428431)scale(0.1 -0.1)">
       <use xlink:href="#DejaVuSans-30"/>
       <use x="63.623047" xlink:href="#DejaVuSans-2e"/>
       <use x="95.410156" xlink:href="#DejaVuSans-38"/>
      </g>
     </g>
    </g>
    <g id="ytick_6">
     <g id="line2d_15">
      <g>
       <use style="stroke:#000000;stroke-width:0.8;" x="43.78125" xlink:href="#m8cd932dd8a" y="47.458516"/>
      </g>
     </g>
     <g id="text_16">
      <!-- 1.0 -->
      <g transform="translate(20.878125 51.257735)scale(0.1 -0.1)">
       <use xlink:href="#DejaVuSans-31"/>
       <use x="63.623047" xlink:href="#DejaVuSans-2e"/>
       <use x="95.410156" xlink:href="#DejaVuSans-30"/>
      </g>
     </g>
    </g>
    <g id="text_17">
     <!-- Probability density -->
     <g transform="translate(14.798438 186.606781)rotate(-90)scale(0.1 -0.1)">
      <defs>
       <path d="M 1259 4147 
L 1259 2394 
L 2053 2394 
Q 2494 2394 2734 2622 
Q 2975 2850 2975 3272 
Q 2975 3691 2734 3919 
Q 2494 4147 2053 4147 
L 1259 4147 
z
M 628 4666 
L 2053 4666 
Q 2838 4666 3239 4311 
Q 3641 3956 3641 3272 
Q 3641 2581 3239 2228 
Q 2838 1875 2053 1875 
L 1259 1875 
L 1259 0 
L 628 0 
L 628 4666 
z
" id="DejaVuSans-50" transform="scale(0.015625)"/>
       <path d="M 3116 1747 
Q 3116 2381 2855 2742 
Q 2594 3103 2138 3103 
Q 1681 3103 1420 2742 
Q 1159 2381 1159 1747 
Q 1159 1113 1420 752 
Q 1681 391 2138 391 
Q 2594 391 2855 752 
Q 3116 1113 3116 1747 
z
M 1159 2969 
Q 1341 3281 1617 3432 
Q 1894 3584 2278 3584 
Q 2916 3584 3314 3078 
Q 3713 2572 3713 1747 
Q 3713 922 3314 415 
Q 2916 -91 2278 -91 
Q 1894 -91 1617 61 
Q 1341 213 1159 525 
L 1159 0 
L 581 0 
L 581 4863 
L 1159 4863 
L 1159 2969 
z
" id="DejaVuSans-62" transform="scale(0.015625)"/>
       <path d="M 2059 -325 
Q 1816 -950 1584 -1140 
Q 1353 -1331 966 -1331 
L 506 -1331 
L 506 -850 
L 844 -850 
Q 1081 -850 1212 -737 
Q 1344 -625 1503 -206 
L 1606 56 
L 191 3500 
L 800 3500 
L 1894 763 
L 2988 3500 
L 3597 3500 
L 2059 -325 
z
" id="DejaVuSans-79" transform="scale(0.015625)"/>
       <path d="M 2834 3397 
L 2834 2853 
Q 2591 2978 2328 3040 
Q 2066 3103 1784 3103 
Q 1356 3103 1142 2972 
Q 928 2841 928 2578 
Q 928 2378 1081 2264 
Q 1234 2150 1697 2047 
L 1894 2003 
Q 2506 1872 2764 1633 
Q 3022 1394 3022 966 
Q 3022 478 2636 193 
Q 2250 -91 1575 -91 
Q 1294 -91 989 -36 
Q 684 19 347 128 
L 347 722 
Q 666 556 975 473 
Q 1284 391 1588 391 
Q 1994 391 2212 530 
Q 2431 669 2431 922 
Q 2431 1156 2273 1281 
Q 2116 1406 1581 1522 
L 1381 1569 
Q 847 1681 609 1914 
Q 372 2147 372 2553 
Q 372 3047 722 3315 
Q 1072 3584 1716 3584 
Q 2034 3584 2315 3537 
Q 2597 3491 2834 3397 
z
" id="DejaVuSans-73" transform="scale(0.015625)"/>
      </defs>
      <use xlink:href="#DejaVuSans-50"/>
      <use x="58.552734" xlink:href="#DejaVuSans-72"/>
      <use x="97.416016" xlink:href="#DejaVuSans-6f"/>
      <use x="158.597656" xlink:href="#DejaVuSans-62"/>
      <use x="222.074219" xlink:href="#DejaVuSans-61"/>
      <use x="283.353516" xlink:href="#DejaVuSans-62"/>
      <use x="346.830078" xlink:href="#DejaVuSans-69"/>
      <use x="374.613281" xlink:href="#DejaVuSans-6c"/>
      <use x="402.396484" xlink:href="#DejaVuSans-69"/>
      <use x="430.179688" xlink:href="#DejaVuSans-74"/>
      <use x="469.388672" xlink:href="#DejaVuSans-79"/>
      <use x="528.568359" xlink:href="#DejaVuSans-20"/>
      <use x="560.355469" xlink:href="#DejaVuSans-64"/>
      <use x="623.832031" xlink:href="#DejaVuSans-65"/>
      <use x="685.355469" xlink:href="#DejaVuSans-6e"/>
      <use x="748.734375" xlink:href="#DejaVuSans-73"/>
      <use x="800.833984" xlink:href="#DejaVuSans-69"/>
      <use x="828.617188" xlink:href="#DejaVuSans-74"/>
      <use x="867.826172" xlink:href="#DejaVuSans-79"/>
     </g>
    </g>
   </g>
   <g id="line2d_16">
    <path clip-path="url(#p15439704e8)" d="M 60.013977 273.312 
L 79.837728 230.251984 
L 90.237073 208.196365 
L 99.01152 190.090548 
L 106.811029 174.495904 
L 113.960578 160.692945 
L 120.460169 148.610692 
L 126.63478 137.588593 
L 132.484411 127.592815 
L 138.009063 118.580435 
L 143.208736 110.501627 
L 148.408408 102.834916 
L 153.283101 96.038913 
L 158.157794 89.63729 
L 162.707507 84.030835 
L 167.257221 78.791209 
L 171.481954 74.263189 
L 175.706688 70.067793 
L 179.606442 66.496422 
L 183.506197 63.219536 
L 187.405951 60.241801 
L 190.980726 57.778635 
L 194.555501 55.573353 
L 198.130275 53.628595 
L 201.70505 51.946687 
L 205.279825 50.529641 
L 208.52962 49.472689 
L 211.779415 48.637083 
L 215.029211 48.023647 
L 218.279006 47.632989 
L 221.528801 47.465496 
L 224.778596 47.521332 
L 228.028392 47.800442 
L 231.278187 48.302551 
L 234.527982 49.027161 
L 237.777777 49.973557 
L 241.027573 51.140803 
L 244.277368 52.527743 
L 247.852143 54.305483 
L 251.426917 56.345263 
L 255.001692 58.644642 
L 258.576467 61.20087 
L 262.476221 64.278814 
L 266.375976 67.654401 
L 270.27573 71.322824 
L 274.500464 75.621339 
L 278.725198 80.250208 
L 282.949931 85.201697 
L 287.499645 90.885368 
L 292.049358 96.922582 
L 296.924051 103.770044 
L 301.798744 110.994686 
L 306.998416 119.098582 
L 312.523068 128.136179 
L 318.3727 138.156964 
L 324.547311 149.203483 
L 331.046901 161.309153 
L 337.871471 174.495904 
L 345.346 189.430686 
L 353.795468 206.83748 
L 363.544854 227.466577 
L 375.894076 254.158286 
L 384.668523 273.312 
L 384.668523 273.312 
" style="fill:none;stroke:#ff7f0e;stroke-linecap:square;stroke-width:1.5;"/>
   </g>
   <g id="patch_203">
    <path d="M 43.78125 273.312 
L 43.78125 7.2 
" style="fill:none;stroke:#000000;stroke-linecap:square;stroke-linejoin:miter;stroke-width:0.8;"/>
   </g>
   <g id="patch_204">
    <path d="M 400.90125 273.312 
L 400.90125 7.2 
" style="fill:none;stroke:#000000;stroke-linecap:square;stroke-linejoin:miter;stroke-width:0.8;"/>
   </g>
   <g id="patch_205">
    <path d="M 43.78125 273.312 
L 400.90125 273.312 
" style="fill:none;stroke:#000000;stroke-linecap:square;stroke-linejoin:miter;stroke-width:0.8;"/>
   </g>
   <g id="patch_206">
    <path d="M 43.78125 7.2 
L 400.90125 7.2 
" style="fill:none;stroke:#000000;stroke-linecap:square;stroke-linejoin:miter;stroke-width:0.8;"/>
   </g>
  </g>
 </g>
 <defs>
  <clipPath id="p15439704e8">
   <rect height="266.112" width="357.12" x="43.78125" y="7.2"/>
  </clipPath>
 </defs>
</svg>
