<?xml version="1.0" encoding="utf-8" standalone="no"?>
<!DOCTYPE svg PUBLIC "-//W3C//DTD SVG 1.1//EN"
  "http://www.w3.org/Graphics/SVG/1.1/DTD/svg11.dtd">
<svg height="314.62456pt" version="1.1" viewBox="0 0 408.10125 314.62456" width="408.10125pt" xmlns="http://www.w3.org/2000/svg" xmlns:xlink="http://www.w3.org/1999/xlink">
 <metadata>
  <rdf:RDF xmlns:cc="http://creativecommons.org/ns#" xmlns:dc="http://purl.org/dc/elements/1.1/" xmlns:rdf="http://www.w3.org/1999/02/22-rdf-syntax-ns#">
   <cc:Work>
    <dc:type rdf:resource="http://purl.org/dc/dcmitype/StillImage"/>
    <dc:date>2021-07-08T06:11:51.706766</dc:date>
    <dc:format>image/svg+xml</dc:format>
    <dc:creator>
     <cc:Agent>
      <dc:title>Matplotlib v3.4.2, https://matplotlib.org/</dc:title>
     </cc:Agent>
    </dc:creator>
   </cc:Work>
  </rdf:RDF>
 </metadata>
 <defs>
  <style type="text/css">*{stroke-linecap:butt;stroke-linejoin:round;}</style>
 </defs>
 <g id="figure_1">
  <g id="patch_1">
   <path d="M 0 314.62456 
L 408.10125 314.62456 
L 408.10125 0 
L 0 0 
z
" style="fill:#ffffff;"/>
  </g>
  <g id="axes_1">
   <g id="patch_2">
    <path d="M 43.78125 277.06831 
L 400.90125 277.06831 
L 400.90125 10.95631 
L 43.78125 10.95631 
z
" style="fill:#ffffff;"/>
   </g>
   <g id="patch_3">
    <path clip-path="url(#pb3ed87c208)" d="M 60.447076 277.06831 
L 62.06539 277.06831 
L 62.06539 271.404846 
L 60.447076 271.404846 
z
" style="fill:#1f77b4;"/>
   </g>
   <g id="patch_4">
    <path clip-path="url(#pb3ed87c208)" d="M 62.06539 277.06831 
L 63.683703 277.06831 
L 63.683703 272.112779 
L 62.06539 272.112779 
z
" style="fill:#1f77b4;"/>
   </g>
   <g id="patch_5">
    <path clip-path="url(#pb3ed87c208)" d="M 63.683703 277.06831 
L 65.302017 277.06831 
L 65.302017 269.281048 
L 63.683703 269.281048 
z
" style="fill:#1f77b4;"/>
   </g>
   <g id="patch_6">
    <path clip-path="url(#pb3ed87c208)" d="M 65.302017 277.06831 
L 66.92033 277.06831 
L 66.92033 265.741383 
L 65.302017 265.741383 
z
" style="fill:#1f77b4;"/>
   </g>
   <g id="patch_7">
    <path clip-path="url(#pb3ed87c208)" d="M 66.92033 277.06831 
L 68.538644 277.06831 
L 68.538644 255.830321 
L 66.92033 255.830321 
z
" style="fill:#1f77b4;"/>
   </g>
   <g id="patch_8">
    <path clip-path="url(#pb3ed87c208)" d="M 68.538644 277.06831 
L 70.156957 277.06831 
L 70.156957 252.290656 
L 68.538644 252.290656 
z
" style="fill:#1f77b4;"/>
   </g>
   <g id="patch_9">
    <path clip-path="url(#pb3ed87c208)" d="M 70.156957 277.06831 
L 71.775271 277.06831 
L 71.775271 250.166858 
L 70.156957 250.166858 
z
" style="fill:#1f77b4;"/>
   </g>
   <g id="patch_10">
    <path clip-path="url(#pb3ed87c208)" d="M 71.775271 277.06831 
L 73.393584 277.06831 
L 73.393584 246.627193 
L 71.775271 246.627193 
z
" style="fill:#1f77b4;"/>
   </g>
   <g id="patch_11">
    <path clip-path="url(#pb3ed87c208)" d="M 73.393584 277.06831 
L 75.011898 277.06831 
L 75.011898 253.706522 
L 73.393584 253.706522 
z
" style="fill:#1f77b4;"/>
   </g>
   <g id="patch_12">
    <path clip-path="url(#pb3ed87c208)" d="M 75.011898 277.06831 
L 76.630211 277.06831 
L 76.630211 243.795461 
L 75.011898 243.795461 
z
" style="fill:#1f77b4;"/>
   </g>
   <g id="patch_13">
    <path clip-path="url(#pb3ed87c208)" d="M 76.630211 277.06831 
L 78.248525 277.06831 
L 78.248525 240.255796 
L 76.630211 240.255796 
z
" style="fill:#1f77b4;"/>
   </g>
   <g id="patch_14">
    <path clip-path="url(#pb3ed87c208)" d="M 78.248525 277.06831 
L 79.866838 277.06831 
L 79.866838 223.973338 
L 78.248525 223.973338 
z
" style="fill:#1f77b4;"/>
   </g>
   <g id="patch_15">
    <path clip-path="url(#pb3ed87c208)" d="M 79.866838 277.06831 
L 81.485152 277.06831 
L 81.485152 238.131997 
L 79.866838 238.131997 
z
" style="fill:#1f77b4;"/>
   </g>
   <g id="patch_16">
    <path clip-path="url(#pb3ed87c208)" d="M 81.485152 277.06831 
L 83.103466 277.06831 
L 83.103466 228.928869 
L 81.485152 228.928869 
z
" style="fill:#1f77b4;"/>
   </g>
   <g id="patch_17">
    <path clip-path="url(#pb3ed87c208)" d="M 83.103466 277.06831 
L 84.721779 277.06831 
L 84.721779 231.760601 
L 83.103466 231.760601 
z
" style="fill:#1f77b4;"/>
   </g>
   <g id="patch_18">
    <path clip-path="url(#pb3ed87c208)" d="M 84.721779 277.06831 
L 86.340093 277.06831 
L 86.340093 222.557472 
L 84.721779 222.557472 
z
" style="fill:#1f77b4;"/>
   </g>
   <g id="patch_19">
    <path clip-path="url(#pb3ed87c208)" d="M 86.340093 277.06831 
L 87.958406 277.06831 
L 87.958406 214.77021 
L 86.340093 214.77021 
z
" style="fill:#1f77b4;"/>
   </g>
   <g id="patch_20">
    <path clip-path="url(#pb3ed87c208)" d="M 87.958406 277.06831 
L 89.57672 277.06831 
L 89.57672 214.062277 
L 87.958406 214.062277 
z
" style="fill:#1f77b4;"/>
   </g>
   <g id="patch_21">
    <path clip-path="url(#pb3ed87c208)" d="M 89.57672 277.06831 
L 91.195033 277.06831 
L 91.195033 216.894008 
L 89.57672 216.894008 
z
" style="fill:#1f77b4;"/>
   </g>
   <g id="patch_22">
    <path clip-path="url(#pb3ed87c208)" d="M 91.195033 277.06831 
L 92.813347 277.06831 
L 92.813347 212.646411 
L 91.195033 212.646411 
z
" style="fill:#1f77b4;"/>
   </g>
   <g id="patch_23">
    <path clip-path="url(#pb3ed87c208)" d="M 92.813347 277.06831 
L 94.43166 277.06831 
L 94.43166 204.151215 
L 92.813347 204.151215 
z
" style="fill:#1f77b4;"/>
   </g>
   <g id="patch_24">
    <path clip-path="url(#pb3ed87c208)" d="M 94.43166 277.06831 
L 96.049974 277.06831 
L 96.049974 199.195684 
L 94.43166 199.195684 
z
" style="fill:#1f77b4;"/>
   </g>
   <g id="patch_25">
    <path clip-path="url(#pb3ed87c208)" d="M 96.049974 277.06831 
L 97.668287 277.06831 
L 97.668287 195.65602 
L 96.049974 195.65602 
z
" style="fill:#1f77b4;"/>
   </g>
   <g id="patch_26">
    <path clip-path="url(#pb3ed87c208)" d="M 97.668287 277.06831 
L 99.286601 277.06831 
L 99.286601 190.700489 
L 97.668287 190.700489 
z
" style="fill:#1f77b4;"/>
   </g>
   <g id="patch_27">
    <path clip-path="url(#pb3ed87c208)" d="M 99.286601 277.06831 
L 100.904914 277.06831 
L 100.904914 212.646411 
L 99.286601 212.646411 
z
" style="fill:#1f77b4;"/>
   </g>
   <g id="patch_28">
    <path clip-path="url(#pb3ed87c208)" d="M 100.904914 277.06831 
L 102.523228 277.06831 
L 102.523228 179.373561 
L 100.904914 179.373561 
z
" style="fill:#1f77b4;"/>
   </g>
   <g id="patch_29">
    <path clip-path="url(#pb3ed87c208)" d="M 102.523228 277.06831 
L 104.141541 277.06831 
L 104.141541 186.452891 
L 102.523228 186.452891 
z
" style="fill:#1f77b4;"/>
   </g>
   <g id="patch_30">
    <path clip-path="url(#pb3ed87c208)" d="M 104.141541 277.06831 
L 105.759855 277.06831 
L 105.759855 178.665629 
L 104.141541 178.665629 
z
" style="fill:#1f77b4;"/>
   </g>
   <g id="patch_31">
    <path clip-path="url(#pb3ed87c208)" d="M 105.759855 277.06831 
L 107.378169 277.06831 
L 107.378169 179.373561 
L 105.759855 179.373561 
z
" style="fill:#1f77b4;"/>
   </g>
   <g id="patch_32">
    <path clip-path="url(#pb3ed87c208)" d="M 107.378169 277.06831 
L 108.996482 277.06831 
L 108.996482 185.037025 
L 107.378169 185.037025 
z
" style="fill:#1f77b4;"/>
   </g>
   <g id="patch_33">
    <path clip-path="url(#pb3ed87c208)" d="M 108.996482 277.06831 
L 110.614796 277.06831 
L 110.614796 187.160824 
L 108.996482 187.160824 
z
" style="fill:#1f77b4;"/>
   </g>
   <g id="patch_34">
    <path clip-path="url(#pb3ed87c208)" d="M 110.614796 277.06831 
L 112.233109 277.06831 
L 112.233109 177.249763 
L 110.614796 177.249763 
z
" style="fill:#1f77b4;"/>
   </g>
   <g id="patch_35">
    <path clip-path="url(#pb3ed87c208)" d="M 112.233109 277.06831 
L 113.851423 277.06831 
L 113.851423 173.002165 
L 112.233109 173.002165 
z
" style="fill:#1f77b4;"/>
   </g>
   <g id="patch_36">
    <path clip-path="url(#pb3ed87c208)" d="M 113.851423 277.06831 
L 115.469736 277.06831 
L 115.469736 160.967304 
L 113.851423 160.967304 
z
" style="fill:#1f77b4;"/>
   </g>
   <g id="patch_37">
    <path clip-path="url(#pb3ed87c208)" d="M 115.469736 277.06831 
L 117.08805 277.06831 
L 117.08805 147.516578 
L 115.469736 147.516578 
z
" style="fill:#1f77b4;"/>
   </g>
   <g id="patch_38">
    <path clip-path="url(#pb3ed87c208)" d="M 117.08805 277.06831 
L 118.706363 277.06831 
L 118.706363 156.011774 
L 117.08805 156.011774 
z
" style="fill:#1f77b4;"/>
   </g>
   <g id="patch_39">
    <path clip-path="url(#pb3ed87c208)" d="M 118.706363 277.06831 
L 120.324677 277.06831 
L 120.324677 151.764176 
L 118.706363 151.764176 
z
" style="fill:#1f77b4;"/>
   </g>
   <g id="patch_40">
    <path clip-path="url(#pb3ed87c208)" d="M 120.324677 277.06831 
L 121.94299 277.06831 
L 121.94299 153.180042 
L 120.324677 153.180042 
z
" style="fill:#1f77b4;"/>
   </g>
   <g id="patch_41">
    <path clip-path="url(#pb3ed87c208)" d="M 121.94299 277.06831 
L 123.561304 277.06831 
L 123.561304 150.34831 
L 121.94299 150.34831 
z
" style="fill:#1f77b4;"/>
   </g>
   <g id="patch_42">
    <path clip-path="url(#pb3ed87c208)" d="M 123.561304 277.06831 
L 125.179617 277.06831 
L 125.179617 157.42764 
L 123.561304 157.42764 
z
" style="fill:#1f77b4;"/>
   </g>
   <g id="patch_43">
    <path clip-path="url(#pb3ed87c208)" d="M 125.179617 277.06831 
L 126.797931 277.06831 
L 126.797931 158.843506 
L 125.179617 158.843506 
z
" style="fill:#1f77b4;"/>
   </g>
   <g id="patch_44">
    <path clip-path="url(#pb3ed87c208)" d="M 126.797931 277.06831 
L 128.416244 277.06831 
L 128.416244 142.561048 
L 126.797931 142.561048 
z
" style="fill:#1f77b4;"/>
   </g>
   <g id="patch_45">
    <path clip-path="url(#pb3ed87c208)" d="M 128.416244 277.06831 
L 130.034558 277.06831 
L 130.034558 150.34831 
L 128.416244 150.34831 
z
" style="fill:#1f77b4;"/>
   </g>
   <g id="patch_46">
    <path clip-path="url(#pb3ed87c208)" d="M 130.034558 277.06831 
L 131.652872 277.06831 
L 131.652872 148.932444 
L 130.034558 148.932444 
z
" style="fill:#1f77b4;"/>
   </g>
   <g id="patch_47">
    <path clip-path="url(#pb3ed87c208)" d="M 131.652872 277.06831 
L 133.271185 277.06831 
L 133.271185 132.649986 
L 131.652872 132.649986 
z
" style="fill:#1f77b4;"/>
   </g>
   <g id="patch_48">
    <path clip-path="url(#pb3ed87c208)" d="M 133.271185 277.06831 
L 134.889499 277.06831 
L 134.889499 131.942053 
L 133.271185 131.942053 
z
" style="fill:#1f77b4;"/>
   </g>
   <g id="patch_49">
    <path clip-path="url(#pb3ed87c208)" d="M 134.889499 277.06831 
L 136.507812 277.06831 
L 136.507812 151.056243 
L 134.889499 151.056243 
z
" style="fill:#1f77b4;"/>
   </g>
   <g id="patch_50">
    <path clip-path="url(#pb3ed87c208)" d="M 136.507812 277.06831 
L 138.126126 277.06831 
L 138.126126 131.23412 
L 136.507812 131.23412 
z
" style="fill:#1f77b4;"/>
   </g>
   <g id="patch_51">
    <path clip-path="url(#pb3ed87c208)" d="M 138.126126 277.06831 
L 139.744439 277.06831 
L 139.744439 128.402388 
L 138.126126 128.402388 
z
" style="fill:#1f77b4;"/>
   </g>
   <g id="patch_52">
    <path clip-path="url(#pb3ed87c208)" d="M 139.744439 277.06831 
L 141.362753 277.06831 
L 141.362753 129.110321 
L 139.744439 129.110321 
z
" style="fill:#1f77b4;"/>
   </g>
   <g id="patch_53">
    <path clip-path="url(#pb3ed87c208)" d="M 141.362753 277.06831 
L 142.981066 277.06831 
L 142.981066 133.357919 
L 141.362753 133.357919 
z
" style="fill:#1f77b4;"/>
   </g>
   <g id="patch_54">
    <path clip-path="url(#pb3ed87c208)" d="M 142.981066 277.06831 
L 144.59938 277.06831 
L 144.59938 119.907193 
L 142.981066 119.907193 
z
" style="fill:#1f77b4;"/>
   </g>
   <g id="patch_55">
    <path clip-path="url(#pb3ed87c208)" d="M 144.59938 277.06831 
L 146.217693 277.06831 
L 146.217693 105.040601 
L 144.59938 105.040601 
z
" style="fill:#1f77b4;"/>
   </g>
   <g id="patch_56">
    <path clip-path="url(#pb3ed87c208)" d="M 146.217693 277.06831 
L 147.836007 277.06831 
L 147.836007 108.580265 
L 146.217693 108.580265 
z
" style="fill:#1f77b4;"/>
   </g>
   <g id="patch_57">
    <path clip-path="url(#pb3ed87c208)" d="M 147.836007 277.06831 
L 149.45432 277.06831 
L 149.45432 84.510545 
L 147.836007 84.510545 
z
" style="fill:#1f77b4;"/>
   </g>
   <g id="patch_58">
    <path clip-path="url(#pb3ed87c208)" d="M 149.45432 277.06831 
L 151.072634 277.06831 
L 151.072634 122.030992 
L 149.45432 122.030992 
z
" style="fill:#1f77b4;"/>
   </g>
   <g id="patch_59">
    <path clip-path="url(#pb3ed87c208)" d="M 151.072634 277.06831 
L 152.690948 277.06831 
L 152.690948 103.624735 
L 151.072634 103.624735 
z
" style="fill:#1f77b4;"/>
   </g>
   <g id="patch_60">
    <path clip-path="url(#pb3ed87c208)" d="M 152.690948 277.06831 
L 154.309261 277.06831 
L 154.309261 88.758142 
L 152.690948 88.758142 
z
" style="fill:#1f77b4;"/>
   </g>
   <g id="patch_61">
    <path clip-path="url(#pb3ed87c208)" d="M 154.309261 277.06831 
L 155.927575 277.06831 
L 155.927575 120.615126 
L 154.309261 120.615126 
z
" style="fill:#1f77b4;"/>
   </g>
   <g id="patch_62">
    <path clip-path="url(#pb3ed87c208)" d="M 155.927575 277.06831 
L 157.545888 277.06831 
L 157.545888 89.466075 
L 155.927575 89.466075 
z
" style="fill:#1f77b4;"/>
   </g>
   <g id="patch_63">
    <path clip-path="url(#pb3ed87c208)" d="M 157.545888 277.06831 
L 159.164202 277.06831 
L 159.164202 93.713673 
L 157.545888 93.713673 
z
" style="fill:#1f77b4;"/>
   </g>
   <g id="patch_64">
    <path clip-path="url(#pb3ed87c208)" d="M 159.164202 277.06831 
L 160.782515 277.06831 
L 160.782515 88.758142 
L 159.164202 88.758142 
z
" style="fill:#1f77b4;"/>
   </g>
   <g id="patch_65">
    <path clip-path="url(#pb3ed87c208)" d="M 160.782515 277.06831 
L 162.400829 277.06831 
L 162.400829 112.827863 
L 160.782515 112.827863 
z
" style="fill:#1f77b4;"/>
   </g>
   <g id="patch_66">
    <path clip-path="url(#pb3ed87c208)" d="M 162.400829 277.06831 
L 164.019142 277.06831 
L 164.019142 93.713673 
L 162.400829 93.713673 
z
" style="fill:#1f77b4;"/>
   </g>
   <g id="patch_67">
    <path clip-path="url(#pb3ed87c208)" d="M 164.019142 277.06831 
L 165.637456 277.06831 
L 165.637456 82.386746 
L 164.019142 82.386746 
z
" style="fill:#1f77b4;"/>
   </g>
   <g id="patch_68">
    <path clip-path="url(#pb3ed87c208)" d="M 165.637456 277.06831 
L 167.255769 277.06831 
L 167.255769 60.440824 
L 165.637456 60.440824 
z
" style="fill:#1f77b4;"/>
   </g>
   <g id="patch_69">
    <path clip-path="url(#pb3ed87c208)" d="M 167.255769 277.06831 
L 168.874083 277.06831 
L 168.874083 91.589874 
L 167.255769 91.589874 
z
" style="fill:#1f77b4;"/>
   </g>
   <g id="patch_70">
    <path clip-path="url(#pb3ed87c208)" d="M 168.874083 277.06831 
L 170.492396 277.06831 
L 170.492396 93.00574 
L 168.874083 93.00574 
z
" style="fill:#1f77b4;"/>
   </g>
   <g id="patch_71">
    <path clip-path="url(#pb3ed87c208)" d="M 170.492396 277.06831 
L 172.11071 277.06831 
L 172.11071 81.678813 
L 170.492396 81.678813 
z
" style="fill:#1f77b4;"/>
   </g>
   <g id="patch_72">
    <path clip-path="url(#pb3ed87c208)" d="M 172.11071 277.06831 
L 173.729023 277.06831 
L 173.729023 74.599483 
L 172.11071 74.599483 
z
" style="fill:#1f77b4;"/>
   </g>
   <g id="patch_73">
    <path clip-path="url(#pb3ed87c208)" d="M 173.729023 277.06831 
L 175.347337 277.06831 
L 175.347337 90.174008 
L 173.729023 90.174008 
z
" style="fill:#1f77b4;"/>
   </g>
   <g id="patch_74">
    <path clip-path="url(#pb3ed87c208)" d="M 175.347337 277.06831 
L 176.965651 277.06831 
L 176.965651 58.317025 
L 175.347337 58.317025 
z
" style="fill:#1f77b4;"/>
   </g>
   <g id="patch_75">
    <path clip-path="url(#pb3ed87c208)" d="M 176.965651 277.06831 
L 178.583964 277.06831 
L 178.583964 66.104288 
L 176.965651 66.104288 
z
" style="fill:#1f77b4;"/>
   </g>
   <g id="patch_76">
    <path clip-path="url(#pb3ed87c208)" d="M 178.583964 277.06831 
L 180.202278 277.06831 
L 180.202278 73.183617 
L 178.583964 73.183617 
z
" style="fill:#1f77b4;"/>
   </g>
   <g id="patch_77">
    <path clip-path="url(#pb3ed87c208)" d="M 180.202278 277.06831 
L 181.820591 277.06831 
L 181.820591 67.520154 
L 180.202278 67.520154 
z
" style="fill:#1f77b4;"/>
   </g>
   <g id="patch_78">
    <path clip-path="url(#pb3ed87c208)" d="M 181.820591 277.06831 
L 183.438905 277.06831 
L 183.438905 112.11993 
L 181.820591 112.11993 
z
" style="fill:#1f77b4;"/>
   </g>
   <g id="patch_79">
    <path clip-path="url(#pb3ed87c208)" d="M 183.438905 277.06831 
L 185.057218 277.06831 
L 185.057218 76.015349 
L 183.438905 76.015349 
z
" style="fill:#1f77b4;"/>
   </g>
   <g id="patch_80">
    <path clip-path="url(#pb3ed87c208)" d="M 185.057218 277.06831 
L 186.675532 277.06831 
L 186.675532 46.282165 
L 185.057218 46.282165 
z
" style="fill:#1f77b4;"/>
   </g>
   <g id="patch_81">
    <path clip-path="url(#pb3ed87c208)" d="M 186.675532 277.06831 
L 188.293845 277.06831 
L 188.293845 23.62831 
L 186.675532 23.62831 
z
" style="fill:#1f77b4;"/>
   </g>
   <g id="patch_82">
    <path clip-path="url(#pb3ed87c208)" d="M 188.293845 277.06831 
L 189.912159 277.06831 
L 189.912159 75.307416 
L 188.293845 75.307416 
z
" style="fill:#1f77b4;"/>
   </g>
   <g id="patch_83">
    <path clip-path="url(#pb3ed87c208)" d="M 189.912159 277.06831 
L 191.530472 277.06831 
L 191.530472 66.812221 
L 189.912159 66.812221 
z
" style="fill:#1f77b4;"/>
   </g>
   <g id="patch_84">
    <path clip-path="url(#pb3ed87c208)" d="M 191.530472 277.06831 
L 193.148786 277.06831 
L 193.148786 59.024958 
L 191.530472 59.024958 
z
" style="fill:#1f77b4;"/>
   </g>
   <g id="patch_85">
    <path clip-path="url(#pb3ed87c208)" d="M 193.148786 277.06831 
L 194.767099 277.06831 
L 194.767099 78.847081 
L 193.148786 78.847081 
z
" style="fill:#1f77b4;"/>
   </g>
   <g id="patch_86">
    <path clip-path="url(#pb3ed87c208)" d="M 194.767099 277.06831 
L 196.385413 277.06831 
L 196.385413 41.326634 
L 194.767099 41.326634 
z
" style="fill:#1f77b4;"/>
   </g>
   <g id="patch_87">
    <path clip-path="url(#pb3ed87c208)" d="M 196.385413 277.06831 
L 198.003727 277.06831 
L 198.003727 78.139148 
L 196.385413 78.139148 
z
" style="fill:#1f77b4;"/>
   </g>
   <g id="patch_88">
    <path clip-path="url(#pb3ed87c208)" d="M 198.003727 277.06831 
L 199.62204 277.06831 
L 199.62204 65.396355 
L 198.003727 65.396355 
z
" style="fill:#1f77b4;"/>
   </g>
   <g id="patch_89">
    <path clip-path="url(#pb3ed87c208)" d="M 199.62204 277.06831 
L 201.240354 277.06831 
L 201.240354 56.193226 
L 199.62204 56.193226 
z
" style="fill:#1f77b4;"/>
   </g>
   <g id="patch_90">
    <path clip-path="url(#pb3ed87c208)" d="M 201.240354 277.06831 
L 202.858667 277.06831 
L 202.858667 54.069427 
L 201.240354 54.069427 
z
" style="fill:#1f77b4;"/>
   </g>
   <g id="patch_91">
    <path clip-path="url(#pb3ed87c208)" d="M 202.858667 277.06831 
L 204.476981 277.06831 
L 204.476981 68.93602 
L 202.858667 68.93602 
z
" style="fill:#1f77b4;"/>
   </g>
   <g id="patch_92">
    <path clip-path="url(#pb3ed87c208)" d="M 204.476981 277.06831 
L 206.095294 277.06831 
L 206.095294 59.024958 
L 204.476981 59.024958 
z
" style="fill:#1f77b4;"/>
   </g>
   <g id="patch_93">
    <path clip-path="url(#pb3ed87c208)" d="M 206.095294 277.06831 
L 207.713608 277.06831 
L 207.713608 54.77736 
L 206.095294 54.77736 
z
" style="fill:#1f77b4;"/>
   </g>
   <g id="patch_94">
    <path clip-path="url(#pb3ed87c208)" d="M 207.713608 277.06831 
L 209.331921 277.06831 
L 209.331921 48.405964 
L 207.713608 48.405964 
z
" style="fill:#1f77b4;"/>
   </g>
   <g id="patch_95">
    <path clip-path="url(#pb3ed87c208)" d="M 209.331921 277.06831 
L 210.950235 277.06831 
L 210.950235 52.653561 
L 209.331921 52.653561 
z
" style="fill:#1f77b4;"/>
   </g>
   <g id="patch_96">
    <path clip-path="url(#pb3ed87c208)" d="M 210.950235 277.06831 
L 212.568548 277.06831 
L 212.568548 37.786969 
L 210.950235 37.786969 
z
" style="fill:#1f77b4;"/>
   </g>
   <g id="patch_97">
    <path clip-path="url(#pb3ed87c208)" d="M 212.568548 277.06831 
L 214.186862 277.06831 
L 214.186862 58.317025 
L 212.568548 58.317025 
z
" style="fill:#1f77b4;"/>
   </g>
   <g id="patch_98">
    <path clip-path="url(#pb3ed87c208)" d="M 214.186862 277.06831 
L 215.805175 277.06831 
L 215.805175 70.351886 
L 214.186862 70.351886 
z
" style="fill:#1f77b4;"/>
   </g>
   <g id="patch_99">
    <path clip-path="url(#pb3ed87c208)" d="M 215.805175 277.06831 
L 217.423489 277.06831 
L 217.423489 44.866299 
L 215.805175 44.866299 
z
" style="fill:#1f77b4;"/>
   </g>
   <g id="patch_100">
    <path clip-path="url(#pb3ed87c208)" d="M 217.423489 277.06831 
L 219.041802 277.06831 
L 219.041802 51.237696 
L 217.423489 51.237696 
z
" style="fill:#1f77b4;"/>
   </g>
   <g id="patch_101">
    <path clip-path="url(#pb3ed87c208)" d="M 219.041802 277.06831 
L 220.660116 277.06831 
L 220.660116 76.015349 
L 219.041802 76.015349 
z
" style="fill:#1f77b4;"/>
   </g>
   <g id="patch_102">
    <path clip-path="url(#pb3ed87c208)" d="M 220.660116 277.06831 
L 222.27843 277.06831 
L 222.27843 54.069427 
L 220.660116 54.069427 
z
" style="fill:#1f77b4;"/>
   </g>
   <g id="patch_103">
    <path clip-path="url(#pb3ed87c208)" d="M 222.27843 277.06831 
L 223.896743 277.06831 
L 223.896743 56.193226 
L 222.27843 56.193226 
z
" style="fill:#1f77b4;"/>
   </g>
   <g id="patch_104">
    <path clip-path="url(#pb3ed87c208)" d="M 223.896743 277.06831 
L 225.515057 277.06831 
L 225.515057 76.015349 
L 223.896743 76.015349 
z
" style="fill:#1f77b4;"/>
   </g>
   <g id="patch_105">
    <path clip-path="url(#pb3ed87c208)" d="M 225.515057 277.06831 
L 227.13337 277.06831 
L 227.13337 59.024958 
L 225.515057 59.024958 
z
" style="fill:#1f77b4;"/>
   </g>
   <g id="patch_106">
    <path clip-path="url(#pb3ed87c208)" d="M 227.13337 277.06831 
L 228.751684 277.06831 
L 228.751684 43.450433 
L 227.13337 43.450433 
z
" style="fill:#1f77b4;"/>
   </g>
   <g id="patch_107">
    <path clip-path="url(#pb3ed87c208)" d="M 228.751684 277.06831 
L 230.369997 277.06831 
L 230.369997 54.77736 
L 228.751684 54.77736 
z
" style="fill:#1f77b4;"/>
   </g>
   <g id="patch_108">
    <path clip-path="url(#pb3ed87c208)" d="M 230.369997 277.06831 
L 231.988311 277.06831 
L 231.988311 48.405964 
L 230.369997 48.405964 
z
" style="fill:#1f77b4;"/>
   </g>
   <g id="patch_109">
    <path clip-path="url(#pb3ed87c208)" d="M 231.988311 277.06831 
L 233.606624 277.06831 
L 233.606624 75.307416 
L 231.988311 75.307416 
z
" style="fill:#1f77b4;"/>
   </g>
   <g id="patch_110">
    <path clip-path="url(#pb3ed87c208)" d="M 233.606624 277.06831 
L 235.224938 277.06831 
L 235.224938 71.767751 
L 233.606624 71.767751 
z
" style="fill:#1f77b4;"/>
   </g>
   <g id="patch_111">
    <path clip-path="url(#pb3ed87c208)" d="M 235.224938 277.06831 
L 236.843251 277.06831 
L 236.843251 56.901159 
L 235.224938 56.901159 
z
" style="fill:#1f77b4;"/>
   </g>
   <g id="patch_112">
    <path clip-path="url(#pb3ed87c208)" d="M 236.843251 277.06831 
L 238.461565 277.06831 
L 238.461565 76.723282 
L 236.843251 76.723282 
z
" style="fill:#1f77b4;"/>
   </g>
   <g id="patch_113">
    <path clip-path="url(#pb3ed87c208)" d="M 238.461565 277.06831 
L 240.079878 277.06831 
L 240.079878 66.104288 
L 238.461565 66.104288 
z
" style="fill:#1f77b4;"/>
   </g>
   <g id="patch_114">
    <path clip-path="url(#pb3ed87c208)" d="M 240.079878 277.06831 
L 241.698192 277.06831 
L 241.698192 50.529763 
L 240.079878 50.529763 
z
" style="fill:#1f77b4;"/>
   </g>
   <g id="patch_115">
    <path clip-path="url(#pb3ed87c208)" d="M 241.698192 277.06831 
L 243.316506 277.06831 
L 243.316506 62.564623 
L 241.698192 62.564623 
z
" style="fill:#1f77b4;"/>
   </g>
   <g id="patch_116">
    <path clip-path="url(#pb3ed87c208)" d="M 243.316506 277.06831 
L 244.934819 277.06831 
L 244.934819 38.494902 
L 243.316506 38.494902 
z
" style="fill:#1f77b4;"/>
   </g>
   <g id="patch_117">
    <path clip-path="url(#pb3ed87c208)" d="M 244.934819 277.06831 
L 246.553133 277.06831 
L 246.553133 63.980489 
L 244.934819 63.980489 
z
" style="fill:#1f77b4;"/>
   </g>
   <g id="patch_118">
    <path clip-path="url(#pb3ed87c208)" d="M 246.553133 277.06831 
L 248.171446 277.06831 
L 248.171446 82.386746 
L 246.553133 82.386746 
z
" style="fill:#1f77b4;"/>
   </g>
   <g id="patch_119">
    <path clip-path="url(#pb3ed87c208)" d="M 248.171446 277.06831 
L 249.78976 277.06831 
L 249.78976 75.307416 
L 248.171446 75.307416 
z
" style="fill:#1f77b4;"/>
   </g>
   <g id="patch_120">
    <path clip-path="url(#pb3ed87c208)" d="M 249.78976 277.06831 
L 251.408073 277.06831 
L 251.408073 71.059818 
L 249.78976 71.059818 
z
" style="fill:#1f77b4;"/>
   </g>
   <g id="patch_121">
    <path clip-path="url(#pb3ed87c208)" d="M 251.408073 277.06831 
L 253.026387 277.06831 
L 253.026387 63.272556 
L 251.408073 63.272556 
z
" style="fill:#1f77b4;"/>
   </g>
   <g id="patch_122">
    <path clip-path="url(#pb3ed87c208)" d="M 253.026387 277.06831 
L 254.6447 277.06831 
L 254.6447 60.440824 
L 253.026387 60.440824 
z
" style="fill:#1f77b4;"/>
   </g>
   <g id="patch_123">
    <path clip-path="url(#pb3ed87c208)" d="M 254.6447 277.06831 
L 256.263014 277.06831 
L 256.263014 58.317025 
L 254.6447 58.317025 
z
" style="fill:#1f77b4;"/>
   </g>
   <g id="patch_124">
    <path clip-path="url(#pb3ed87c208)" d="M 256.263014 277.06831 
L 257.881327 277.06831 
L 257.881327 53.361494 
L 256.263014 53.361494 
z
" style="fill:#1f77b4;"/>
   </g>
   <g id="patch_125">
    <path clip-path="url(#pb3ed87c208)" d="M 257.881327 277.06831 
L 259.499641 277.06831 
L 259.499641 60.440824 
L 257.881327 60.440824 
z
" style="fill:#1f77b4;"/>
   </g>
   <g id="patch_126">
    <path clip-path="url(#pb3ed87c208)" d="M 259.499641 277.06831 
L 261.117954 277.06831 
L 261.117954 68.228087 
L 259.499641 68.228087 
z
" style="fill:#1f77b4;"/>
   </g>
   <g id="patch_127">
    <path clip-path="url(#pb3ed87c208)" d="M 261.117954 277.06831 
L 262.736268 277.06831 
L 262.736268 76.723282 
L 261.117954 76.723282 
z
" style="fill:#1f77b4;"/>
   </g>
   <g id="patch_128">
    <path clip-path="url(#pb3ed87c208)" d="M 262.736268 277.06831 
L 264.354581 277.06831 
L 264.354581 73.89155 
L 262.736268 73.89155 
z
" style="fill:#1f77b4;"/>
   </g>
   <g id="patch_129">
    <path clip-path="url(#pb3ed87c208)" d="M 264.354581 277.06831 
L 265.972895 277.06831 
L 265.972895 76.723282 
L 264.354581 76.723282 
z
" style="fill:#1f77b4;"/>
   </g>
   <g id="patch_130">
    <path clip-path="url(#pb3ed87c208)" d="M 265.972895 277.06831 
L 267.591209 277.06831 
L 267.591209 54.069427 
L 265.972895 54.069427 
z
" style="fill:#1f77b4;"/>
   </g>
   <g id="patch_131">
    <path clip-path="url(#pb3ed87c208)" d="M 267.591209 277.06831 
L 269.209522 277.06831 
L 269.209522 74.599483 
L 267.591209 74.599483 
z
" style="fill:#1f77b4;"/>
   </g>
   <g id="patch_132">
    <path clip-path="url(#pb3ed87c208)" d="M 269.209522 277.06831 
L 270.827836 277.06831 
L 270.827836 78.847081 
L 269.209522 78.847081 
z
" style="fill:#1f77b4;"/>
   </g>
   <g id="patch_133">
    <path clip-path="url(#pb3ed87c208)" d="M 270.827836 277.06831 
L 272.446149 277.06831 
L 272.446149 54.069427 
L 270.827836 54.069427 
z
" style="fill:#1f77b4;"/>
   </g>
   <g id="patch_134">
    <path clip-path="url(#pb3ed87c208)" d="M 272.446149 277.06831 
L 274.064463 277.06831 
L 274.064463 76.723282 
L 272.446149 76.723282 
z
" style="fill:#1f77b4;"/>
   </g>
   <g id="patch_135">
    <path clip-path="url(#pb3ed87c208)" d="M 274.064463 277.06831 
L 275.682776 277.06831 
L 275.682776 110.704064 
L 274.064463 110.704064 
z
" style="fill:#1f77b4;"/>
   </g>
   <g id="patch_136">
    <path clip-path="url(#pb3ed87c208)" d="M 275.682776 277.06831 
L 277.30109 277.06831 
L 277.30109 80.97088 
L 275.682776 80.97088 
z
" style="fill:#1f77b4;"/>
   </g>
   <g id="patch_137">
    <path clip-path="url(#pb3ed87c208)" d="M 277.30109 277.06831 
L 278.919403 277.06831 
L 278.919403 101.500936 
L 277.30109 101.500936 
z
" style="fill:#1f77b4;"/>
   </g>
   <g id="patch_138">
    <path clip-path="url(#pb3ed87c208)" d="M 278.919403 277.06831 
L 280.537717 277.06831 
L 280.537717 100.08507 
L 278.919403 100.08507 
z
" style="fill:#1f77b4;"/>
   </g>
   <g id="patch_139">
    <path clip-path="url(#pb3ed87c208)" d="M 280.537717 277.06831 
L 282.15603 277.06831 
L 282.15603 85.926411 
L 280.537717 85.926411 
z
" style="fill:#1f77b4;"/>
   </g>
   <g id="patch_140">
    <path clip-path="url(#pb3ed87c208)" d="M 282.15603 277.06831 
L 283.774344 277.06831 
L 283.774344 86.634344 
L 282.15603 86.634344 
z
" style="fill:#1f77b4;"/>
   </g>
   <g id="patch_141">
    <path clip-path="url(#pb3ed87c208)" d="M 283.774344 277.06831 
L 285.392657 277.06831 
L 285.392657 94.421606 
L 283.774344 94.421606 
z
" style="fill:#1f77b4;"/>
   </g>
   <g id="patch_142">
    <path clip-path="url(#pb3ed87c208)" d="M 285.392657 277.06831 
L 287.010971 277.06831 
L 287.010971 103.624735 
L 285.392657 103.624735 
z
" style="fill:#1f77b4;"/>
   </g>
   <g id="patch_143">
    <path clip-path="url(#pb3ed87c208)" d="M 287.010971 277.06831 
L 288.629285 277.06831 
L 288.629285 94.421606 
L 287.010971 94.421606 
z
" style="fill:#1f77b4;"/>
   </g>
   <g id="patch_144">
    <path clip-path="url(#pb3ed87c208)" d="M 288.629285 277.06831 
L 290.247598 277.06831 
L 290.247598 90.174008 
L 288.629285 90.174008 
z
" style="fill:#1f77b4;"/>
   </g>
   <g id="patch_145">
    <path clip-path="url(#pb3ed87c208)" d="M 290.247598 277.06831 
L 291.865912 277.06831 
L 291.865912 98.669204 
L 290.247598 98.669204 
z
" style="fill:#1f77b4;"/>
   </g>
   <g id="patch_146">
    <path clip-path="url(#pb3ed87c208)" d="M 291.865912 277.06831 
L 293.484225 277.06831 
L 293.484225 104.332668 
L 291.865912 104.332668 
z
" style="fill:#1f77b4;"/>
   </g>
   <g id="patch_147">
    <path clip-path="url(#pb3ed87c208)" d="M 293.484225 277.06831 
L 295.102539 277.06831 
L 295.102539 91.589874 
L 293.484225 91.589874 
z
" style="fill:#1f77b4;"/>
   </g>
   <g id="patch_148">
    <path clip-path="url(#pb3ed87c208)" d="M 295.102539 277.06831 
L 296.720852 277.06831 
L 296.720852 109.996131 
L 295.102539 109.996131 
z
" style="fill:#1f77b4;"/>
   </g>
   <g id="patch_149">
    <path clip-path="url(#pb3ed87c208)" d="M 296.720852 277.06831 
L 298.339166 277.06831 
L 298.339166 109.996131 
L 296.720852 109.996131 
z
" style="fill:#1f77b4;"/>
   </g>
   <g id="patch_150">
    <path clip-path="url(#pb3ed87c208)" d="M 298.339166 277.06831 
L 299.957479 277.06831 
L 299.957479 117.783394 
L 298.339166 117.783394 
z
" style="fill:#1f77b4;"/>
   </g>
   <g id="patch_151">
    <path clip-path="url(#pb3ed87c208)" d="M 299.957479 277.06831 
L 301.575793 277.06831 
L 301.575793 122.738925 
L 299.957479 122.738925 
z
" style="fill:#1f77b4;"/>
   </g>
   <g id="patch_152">
    <path clip-path="url(#pb3ed87c208)" d="M 301.575793 277.06831 
L 303.194106 277.06831 
L 303.194106 117.075461 
L 301.575793 117.075461 
z
" style="fill:#1f77b4;"/>
   </g>
   <g id="patch_153">
    <path clip-path="url(#pb3ed87c208)" d="M 303.194106 277.06831 
L 304.81242 277.06831 
L 304.81242 124.862723 
L 303.194106 124.862723 
z
" style="fill:#1f77b4;"/>
   </g>
   <g id="patch_154">
    <path clip-path="url(#pb3ed87c208)" d="M 304.81242 277.06831 
L 306.430733 277.06831 
L 306.430733 119.907193 
L 304.81242 119.907193 
z
" style="fill:#1f77b4;"/>
   </g>
   <g id="patch_155">
    <path clip-path="url(#pb3ed87c208)" d="M 306.430733 277.06831 
L 308.049047 277.06831 
L 308.049047 134.773785 
L 306.430733 134.773785 
z
" style="fill:#1f77b4;"/>
   </g>
   <g id="patch_156">
    <path clip-path="url(#pb3ed87c208)" d="M 308.049047 277.06831 
L 309.66736 277.06831 
L 309.66736 125.570656 
L 308.049047 125.570656 
z
" style="fill:#1f77b4;"/>
   </g>
   <g id="patch_157">
    <path clip-path="url(#pb3ed87c208)" d="M 309.66736 277.06831 
L 311.285674 277.06831 
L 311.285674 126.278589 
L 309.66736 126.278589 
z
" style="fill:#1f77b4;"/>
   </g>
   <g id="patch_158">
    <path clip-path="url(#pb3ed87c208)" d="M 311.285674 277.06831 
L 312.903988 277.06831 
L 312.903988 117.783394 
L 311.285674 117.783394 
z
" style="fill:#1f77b4;"/>
   </g>
   <g id="patch_159">
    <path clip-path="url(#pb3ed87c208)" d="M 312.903988 277.06831 
L 314.522301 277.06831 
L 314.522301 122.738925 
L 312.903988 122.738925 
z
" style="fill:#1f77b4;"/>
   </g>
   <g id="patch_160">
    <path clip-path="url(#pb3ed87c208)" d="M 314.522301 277.06831 
L 316.140615 277.06831 
L 316.140615 131.23412 
L 314.522301 131.23412 
z
" style="fill:#1f77b4;"/>
   </g>
   <g id="patch_161">
    <path clip-path="url(#pb3ed87c208)" d="M 316.140615 277.06831 
L 317.758928 277.06831 
L 317.758928 132.649986 
L 316.140615 132.649986 
z
" style="fill:#1f77b4;"/>
   </g>
   <g id="patch_162">
    <path clip-path="url(#pb3ed87c208)" d="M 317.758928 277.06831 
L 319.377242 277.06831 
L 319.377242 124.862723 
L 317.758928 124.862723 
z
" style="fill:#1f77b4;"/>
   </g>
   <g id="patch_163">
    <path clip-path="url(#pb3ed87c208)" d="M 319.377242 277.06831 
L 320.995555 277.06831 
L 320.995555 160.967304 
L 319.377242 160.967304 
z
" style="fill:#1f77b4;"/>
   </g>
   <g id="patch_164">
    <path clip-path="url(#pb3ed87c208)" d="M 320.995555 277.06831 
L 322.613869 277.06831 
L 322.613869 151.056243 
L 320.995555 151.056243 
z
" style="fill:#1f77b4;"/>
   </g>
   <g id="patch_165">
    <path clip-path="url(#pb3ed87c208)" d="M 322.613869 277.06831 
L 324.232182 277.06831 
L 324.232182 151.764176 
L 322.613869 151.764176 
z
" style="fill:#1f77b4;"/>
   </g>
   <g id="patch_166">
    <path clip-path="url(#pb3ed87c208)" d="M 324.232182 277.06831 
L 325.850496 277.06831 
L 325.850496 150.34831 
L 324.232182 150.34831 
z
" style="fill:#1f77b4;"/>
   </g>
   <g id="patch_167">
    <path clip-path="url(#pb3ed87c208)" d="M 325.850496 277.06831 
L 327.468809 277.06831 
L 327.468809 165.214902 
L 325.850496 165.214902 
z
" style="fill:#1f77b4;"/>
   </g>
   <g id="patch_168">
    <path clip-path="url(#pb3ed87c208)" d="M 327.468809 277.06831 
L 329.087123 277.06831 
L 329.087123 169.4625 
L 327.468809 169.4625 
z
" style="fill:#1f77b4;"/>
   </g>
   <g id="patch_169">
    <path clip-path="url(#pb3ed87c208)" d="M 329.087123 277.06831 
L 330.705436 277.06831 
L 330.705436 165.214902 
L 329.087123 165.214902 
z
" style="fill:#1f77b4;"/>
   </g>
   <g id="patch_170">
    <path clip-path="url(#pb3ed87c208)" d="M 330.705436 277.06831 
L 332.32375 277.06831 
L 332.32375 173.710098 
L 330.705436 173.710098 
z
" style="fill:#1f77b4;"/>
   </g>
   <g id="patch_171">
    <path clip-path="url(#pb3ed87c208)" d="M 332.32375 277.06831 
L 333.942063 277.06831 
L 333.942063 180.789427 
L 332.32375 180.789427 
z
" style="fill:#1f77b4;"/>
   </g>
   <g id="patch_172">
    <path clip-path="url(#pb3ed87c208)" d="M 333.942063 277.06831 
L 335.560377 277.06831 
L 335.560377 158.135573 
L 333.942063 158.135573 
z
" style="fill:#1f77b4;"/>
   </g>
   <g id="patch_173">
    <path clip-path="url(#pb3ed87c208)" d="M 335.560377 277.06831 
L 337.178691 277.06831 
L 337.178691 171.586299 
L 335.560377 171.586299 
z
" style="fill:#1f77b4;"/>
   </g>
   <g id="patch_174">
    <path clip-path="url(#pb3ed87c208)" d="M 337.178691 277.06831 
L 338.797004 277.06831 
L 338.797004 177.249763 
L 337.178691 177.249763 
z
" style="fill:#1f77b4;"/>
   </g>
   <g id="patch_175">
    <path clip-path="url(#pb3ed87c208)" d="M 338.797004 277.06831 
L 340.415318 277.06831 
L 340.415318 172.294232 
L 338.797004 172.294232 
z
" style="fill:#1f77b4;"/>
   </g>
   <g id="patch_176">
    <path clip-path="url(#pb3ed87c208)" d="M 340.415318 277.06831 
L 342.033631 277.06831 
L 342.033631 187.868757 
L 340.415318 187.868757 
z
" style="fill:#1f77b4;"/>
   </g>
   <g id="patch_177">
    <path clip-path="url(#pb3ed87c208)" d="M 342.033631 277.06831 
L 343.651945 277.06831 
L 343.651945 200.61155 
L 342.033631 200.61155 
z
" style="fill:#1f77b4;"/>
   </g>
   <g id="patch_178">
    <path clip-path="url(#pb3ed87c208)" d="M 343.651945 277.06831 
L 345.270258 277.06831 
L 345.270258 188.57669 
L 343.651945 188.57669 
z
" style="fill:#1f77b4;"/>
   </g>
   <g id="patch_179">
    <path clip-path="url(#pb3ed87c208)" d="M 345.270258 277.06831 
L 346.888572 277.06831 
L 346.888572 190.700489 
L 345.270258 190.700489 
z
" style="fill:#1f77b4;"/>
   </g>
   <g id="patch_180">
    <path clip-path="url(#pb3ed87c208)" d="M 346.888572 277.06831 
L 348.506885 277.06831 
L 348.506885 216.894008 
L 346.888572 216.894008 
z
" style="fill:#1f77b4;"/>
   </g>
   <g id="patch_181">
    <path clip-path="url(#pb3ed87c208)" d="M 348.506885 277.06831 
L 350.125199 277.06831 
L 350.125199 209.814679 
L 348.506885 209.814679 
z
" style="fill:#1f77b4;"/>
   </g>
   <g id="patch_182">
    <path clip-path="url(#pb3ed87c208)" d="M 350.125199 277.06831 
L 351.743512 277.06831 
L 351.743512 209.106746 
L 350.125199 209.106746 
z
" style="fill:#1f77b4;"/>
   </g>
   <g id="patch_183">
    <path clip-path="url(#pb3ed87c208)" d="M 351.743512 277.06831 
L 353.361826 277.06831 
L 353.361826 209.814679 
L 351.743512 209.814679 
z
" style="fill:#1f77b4;"/>
   </g>
   <g id="patch_184">
    <path clip-path="url(#pb3ed87c208)" d="M 353.361826 277.06831 
L 354.980139 277.06831 
L 354.980139 203.443282 
L 353.361826 203.443282 
z
" style="fill:#1f77b4;"/>
   </g>
   <g id="patch_185">
    <path clip-path="url(#pb3ed87c208)" d="M 354.980139 277.06831 
L 356.598453 277.06831 
L 356.598453 219.017807 
L 354.980139 219.017807 
z
" style="fill:#1f77b4;"/>
   </g>
   <g id="patch_186">
    <path clip-path="url(#pb3ed87c208)" d="M 356.598453 277.06831 
L 358.216767 277.06831 
L 358.216767 222.557472 
L 356.598453 222.557472 
z
" style="fill:#1f77b4;"/>
   </g>
   <g id="patch_187">
    <path clip-path="url(#pb3ed87c208)" d="M 358.216767 277.06831 
L 359.83508 277.06831 
L 359.83508 223.265405 
L 358.216767 223.265405 
z
" style="fill:#1f77b4;"/>
   </g>
   <g id="patch_188">
    <path clip-path="url(#pb3ed87c208)" d="M 359.83508 277.06831 
L 361.453394 277.06831 
L 361.453394 235.300265 
L 359.83508 235.300265 
z
" style="fill:#1f77b4;"/>
   </g>
   <g id="patch_189">
    <path clip-path="url(#pb3ed87c208)" d="M 361.453394 277.06831 
L 363.071707 277.06831 
L 363.071707 235.300265 
L 361.453394 235.300265 
z
" style="fill:#1f77b4;"/>
   </g>
   <g id="patch_190">
    <path clip-path="url(#pb3ed87c208)" d="M 363.071707 277.06831 
L 364.690021 277.06831 
L 364.690021 235.300265 
L 363.071707 235.300265 
z
" style="fill:#1f77b4;"/>
   </g>
   <g id="patch_191">
    <path clip-path="url(#pb3ed87c208)" d="M 364.690021 277.06831 
L 366.308334 277.06831 
L 366.308334 232.468534 
L 364.690021 232.468534 
z
" style="fill:#1f77b4;"/>
   </g>
   <g id="patch_192">
    <path clip-path="url(#pb3ed87c208)" d="M 366.308334 277.06831 
L 367.926648 277.06831 
L 367.926648 235.300265 
L 366.308334 235.300265 
z
" style="fill:#1f77b4;"/>
   </g>
   <g id="patch_193">
    <path clip-path="url(#pb3ed87c208)" d="M 367.926648 277.06831 
L 369.544961 277.06831 
L 369.544961 238.83993 
L 367.926648 238.83993 
z
" style="fill:#1f77b4;"/>
   </g>
   <g id="patch_194">
    <path clip-path="url(#pb3ed87c208)" d="M 369.544961 277.06831 
L 371.163275 277.06831 
L 371.163275 243.795461 
L 369.544961 243.795461 
z
" style="fill:#1f77b4;"/>
   </g>
   <g id="patch_195">
    <path clip-path="url(#pb3ed87c208)" d="M 371.163275 277.06831 
L 372.781588 277.06831 
L 372.781588 248.750992 
L 371.163275 248.750992 
z
" style="fill:#1f77b4;"/>
   </g>
   <g id="patch_196">
    <path clip-path="url(#pb3ed87c208)" d="M 372.781588 277.06831 
L 374.399902 277.06831 
L 374.399902 256.538254 
L 372.781588 256.538254 
z
" style="fill:#1f77b4;"/>
   </g>
   <g id="patch_197">
    <path clip-path="url(#pb3ed87c208)" d="M 374.399902 277.06831 
L 376.018215 277.06831 
L 376.018215 265.03345 
L 374.399902 265.03345 
z
" style="fill:#1f77b4;"/>
   </g>
   <g id="patch_198">
    <path clip-path="url(#pb3ed87c208)" d="M 376.018215 277.06831 
L 377.636529 277.06831 
L 377.636529 259.369986 
L 376.018215 259.369986 
z
" style="fill:#1f77b4;"/>
   </g>
   <g id="patch_199">
    <path clip-path="url(#pb3ed87c208)" d="M 377.636529 277.06831 
L 379.254842 277.06831 
L 379.254842 258.662053 
L 377.636529 258.662053 
z
" style="fill:#1f77b4;"/>
   </g>
   <g id="patch_200">
    <path clip-path="url(#pb3ed87c208)" d="M 379.254842 277.06831 
L 380.873156 277.06831 
L 380.873156 267.157249 
L 379.254842 267.157249 
z
" style="fill:#1f77b4;"/>
   </g>
   <g id="patch_201">
    <path clip-path="url(#pb3ed87c208)" d="M 380.873156 277.06831 
L 382.49147 277.06831 
L 382.49147 272.112779 
L 380.873156 272.112779 
z
" style="fill:#1f77b4;"/>
   </g>
   <g id="patch_202">
    <path clip-path="url(#pb3ed87c208)" d="M 382.49147 277.06831 
L 384.109783 277.06831 
L 384.109783 273.528645 
L 382.49147 273.528645 
z
" style="fill:#1f77b4;"/>
   </g>
   <g id="matplotlib.axis_1">
    <g id="xtick_1">
     <g id="line2d_1">
      <defs>
       <path d="M 0 0 
L 0 3.5 
" id="mb08ee94d90" style="stroke:#000000;stroke-width:0.8;"/>
      </defs>
      <g>
       <use style="stroke:#000000;stroke-width:0.8;" x="60.013977" xlink:href="#mb08ee94d90" y="277.06831"/>
      </g>
     </g>
     <g id="text_1">
      <!-- 0.0 -->
      <g transform="translate(52.062415 291.666748)scale(0.1 -0.1)">
       <defs>
        <path d="M 2034 4250 
Q 1547 4250 1301 3770 
Q 1056 3291 1056 2328 
Q 1056 1369 1301 889 
Q 1547 409 2034 409 
Q 2525 409 2770 889 
Q 3016 1369 3016 2328 
Q 3016 3291 2770 3770 
Q 2525 4250 2034 4250 
z
M 2034 4750 
Q 2819 4750 3233 4129 
Q 3647 3509 3647 2328 
Q 3647 1150 3233 529 
Q 2819 -91 2034 -91 
Q 1250 -91 836 529 
Q 422 1150 422 2328 
Q 422 3509 836 4129 
Q 1250 4750 2034 4750 
z
" id="DejaVuSans-30" transform="scale(0.015625)"/>
        <path d="M 684 794 
L 1344 794 
L 1344 0 
L 684 0 
L 684 794 
z
" id="DejaVuSans-2e" transform="scale(0.015625)"/>
       </defs>
       <use xlink:href="#DejaVuSans-30"/>
       <use x="63.623047" xlink:href="#DejaVuSans-2e"/>
       <use x="95.410156" xlink:href="#DejaVuSans-30"/>
      </g>
     </g>
    </g>
    <g id="xtick_2">
     <g id="line2d_2">
      <g>
       <use style="stroke:#000000;stroke-width:0.8;" x="101.350278" xlink:href="#mb08ee94d90" y="277.06831"/>
      </g>
     </g>
     <g id="text_2">
      <!-- 0.2 -->
      <g transform="translate(93.398715 291.666748)scale(0.1 -0.1)">
       <defs>
        <path d="M 1228 531 
L 3431 531 
L 3431 0 
L 469 0 
L 469 531 
Q 828 903 1448 1529 
Q 2069 2156 2228 2338 
Q 2531 2678 2651 2914 
Q 2772 3150 2772 3378 
Q 2772 3750 2511 3984 
Q 2250 4219 1831 4219 
Q 1534 4219 1204 4116 
Q 875 4013 500 3803 
L 500 4441 
Q 881 4594 1212 4672 
Q 1544 4750 1819 4750 
Q 2544 4750 2975 4387 
Q 3406 4025 3406 3419 
Q 3406 3131 3298 2873 
Q 3191 2616 2906 2266 
Q 2828 2175 2409 1742 
Q 1991 1309 1228 531 
z
" id="DejaVuSans-32" transform="scale(0.015625)"/>
       </defs>
       <use xlink:href="#DejaVuSans-30"/>
       <use x="63.623047" xlink:href="#DejaVuSans-2e"/>
       <use x="95.410156" xlink:href="#DejaVuSans-32"/>
      </g>
     </g>
    </g>
    <g id="xtick_3">
     <g id="line2d_3">
      <g>
       <use style="stroke:#000000;stroke-width:0.8;" x="142.686578" xlink:href="#mb08ee94d90" y="277.06831"/>
      </g>
     </g>
     <g id="text_3">
      <!-- 0.4 -->
      <g transform="translate(134.735016 291.666748)scale(0.1 -0.1)">
       <defs>
        <path d="M 2419 4116 
L 825 1625 
L 2419 1625 
L 2419 4116 
z
M 2253 4666 
L 3047 4666 
L 3047 1625 
L 3713 1625 
L 3713 1100 
L 3047 1100 
L 3047 0 
L 2419 0 
L 2419 1100 
L 313 1100 
L 313 1709 
L 2253 4666 
z
" id="DejaVuSans-34" transform="scale(0.015625)"/>
       </defs>
       <use xlink:href="#DejaVuSans-30"/>
       <use x="63.623047" xlink:href="#DejaVuSans-2e"/>
       <use x="95.410156" xlink:href="#DejaVuSans-34"/>
      </g>
     </g>
    </g>
    <g id="xtick_4">
     <g id="line2d_4">
      <g>
       <use style="stroke:#000000;stroke-width:0.8;" x="184.022879" xlink:href="#mb08ee94d90" y="277.06831"/>
      </g>
     </g>
     <g id="text_4">
      <!-- 0.6 -->
      <g transform="translate(176.071316 291.666748)scale(0.1 -0.1)">
       <defs>
        <path d="M 2113 2584 
Q 1688 2584 1439 2293 
Q 1191 2003 1191 1497 
Q 1191 994 1439 701 
Q 1688 409 2113 409 
Q 2538 409 2786 701 
Q 3034 994 3034 1497 
Q 3034 2003 2786 2293 
Q 2538 2584 2113 2584 
z
M 3366 4563 
L 3366 3988 
Q 3128 4100 2886 4159 
Q 2644 4219 2406 4219 
Q 1781 4219 1451 3797 
Q 1122 3375 1075 2522 
Q 1259 2794 1537 2939 
Q 1816 3084 2150 3084 
Q 2853 3084 3261 2657 
Q 3669 2231 3669 1497 
Q 3669 778 3244 343 
Q 2819 -91 2113 -91 
Q 1303 -91 875 529 
Q 447 1150 447 2328 
Q 447 3434 972 4092 
Q 1497 4750 2381 4750 
Q 2619 4750 2861 4703 
Q 3103 4656 3366 4563 
z
" id="DejaVuSans-36" transform="scale(0.015625)"/>
       </defs>
       <use xlink:href="#DejaVuSans-30"/>
       <use x="63.623047" xlink:href="#DejaVuSans-2e"/>
       <use x="95.410156" xlink:href="#DejaVuSans-36"/>
      </g>
     </g>
    </g>
    <g id="xtick_5">
     <g id="line2d_5">
      <g>
       <use style="stroke:#000000;stroke-width:0.8;" x="225.35918" xlink:href="#mb08ee94d90" y="277.06831"/>
      </g>
     </g>
     <g id="text_5">
      <!-- 0.8 -->
      <g transform="translate(217.407617 291.666748)scale(0.1 -0.1)">
       <defs>
        <path d="M 2034 2216 
Q 1584 2216 1326 1975 
Q 1069 1734 1069 1313 
Q 1069 891 1326 650 
Q 1584 409 2034 409 
Q 2484 409 2743 651 
Q 3003 894 3003 1313 
Q 3003 1734 2745 1975 
Q 2488 2216 2034 2216 
z
M 1403 2484 
Q 997 2584 770 2862 
Q 544 3141 544 3541 
Q 544 4100 942 4425 
Q 1341 4750 2034 4750 
Q 2731 4750 3128 4425 
Q 3525 4100 3525 3541 
Q 3525 3141 3298 2862 
Q 3072 2584 2669 2484 
Q 3125 2378 3379 2068 
Q 3634 1759 3634 1313 
Q 3634 634 3220 271 
Q 2806 -91 2034 -91 
Q 1263 -91 848 271 
Q 434 634 434 1313 
Q 434 1759 690 2068 
Q 947 2378 1403 2484 
z
M 1172 3481 
Q 1172 3119 1398 2916 
Q 1625 2713 2034 2713 
Q 2441 2713 2670 2916 
Q 2900 3119 2900 3481 
Q 2900 3844 2670 4047 
Q 2441 4250 2034 4250 
Q 1625 4250 1398 4047 
Q 1172 3844 1172 3481 
z
" id="DejaVuSans-38" transform="scale(0.015625)"/>
       </defs>
       <use xlink:href="#DejaVuSans-30"/>
       <use x="63.623047" xlink:href="#DejaVuSans-2e"/>
       <use x="95.410156" xlink:href="#DejaVuSans-38"/>
      </g>
     </g>
    </g>
    <g id="xtick_6">
     <g id="line2d_6">
      <g>
       <use style="stroke:#000000;stroke-width:0.8;" x="266.69548" xlink:href="#mb08ee94d90" y="277.06831"/>
      </g>
     </g>
     <g id="text_6">
      <!-- 1.0 -->
      <g transform="translate(258.743918 291.666748)scale(0.1 -0.1)">
       <defs>
        <path d="M 794 531 
L 1825 531 
L 1825 4091 
L 703 3866 
L 703 4441 
L 1819 4666 
L 2450 4666 
L 2450 531 
L 3481 531 
L 3481 0 
L 794 0 
L 794 531 
z
" id="DejaVuSans-31" transform="scale(0.015625)"/>
       </defs>
       <use xlink:href="#DejaVuSans-31"/>
       <use x="63.623047" xlink:href="#DejaVuSans-2e"/>
       <use x="95.410156" xlink:href="#DejaVuSans-30"/>
      </g>
     </g>
    </g>
    <g id="xtick_7">
     <g id="line2d_7">
      <g>
       <use style="stroke:#000000;stroke-width:0.8;" x="308.031781" xlink:href="#mb08ee94d90" y="277.06831"/>
      </g>
     </g>
     <g id="text_7">
      <!-- 1.2 -->
      <g transform="translate(300.080218 291.666748)scale(0.1 -0.1)">
       <use xlink:href="#DejaVuSans-31"/>
       <use x="63.623047" xlink:href="#DejaVuSans-2e"/>
       <use x="95.410156" xlink:href="#DejaVuSans-32"/>
      </g>
     </g>
    </g>
    <g id="xtick_8">
     <g id="line2d_8">
      <g>
       <use style="stroke:#000000;stroke-width:0.8;" x="349.368081" xlink:href="#mb08ee94d90" y="277.06831"/>
      </g>
     </g>
     <g id="text_8">
      <!-- 1.4 -->
      <g transform="translate(341.416519 291.666748)scale(0.1 -0.1)">
       <use xlink:href="#DejaVuSans-31"/>
       <use x="63.623047" xlink:href="#DejaVuSans-2e"/>
       <use x="95.410156" xlink:href="#DejaVuSans-34"/>
      </g>
     </g>
    </g>
    <g id="xtick_9">
     <g id="line2d_9">
      <g>
       <use style="stroke:#000000;stroke-width:0.8;" x="390.704382" xlink:href="#mb08ee94d90" y="277.06831"/>
      </g>
     </g>
     <g id="text_9">
      <!-- 1.6 -->
      <g transform="translate(382.752819 291.666748)scale(0.1 -0.1)">
       <use xlink:href="#DejaVuSans-31"/>
       <use x="63.623047" xlink:href="#DejaVuSans-2e"/>
       <use x="95.410156" xlink:href="#DejaVuSans-36"/>
      </g>
     </g>
    </g>
    <g id="text_10">
     <!-- Angle with normal (rad) -->
     <g transform="translate(163.023281 305.344873)scale(0.1 -0.1)">
      <defs>
       <path d="M 2188 4044 
L 1331 1722 
L 3047 1722 
L 2188 4044 
z
M 1831 4666 
L 2547 4666 
L 4325 0 
L 3669 0 
L 3244 1197 
L 1141 1197 
L 716 0 
L 50 0 
L 1831 4666 
z
" id="DejaVuSans-41" transform="scale(0.015625)"/>
       <path d="M 3513 2113 
L 3513 0 
L 2938 0 
L 2938 2094 
Q 2938 2591 2744 2837 
Q 2550 3084 2163 3084 
Q 1697 3084 1428 2787 
Q 1159 2491 1159 1978 
L 1159 0 
L 581 0 
L 581 3500 
L 1159 3500 
L 1159 2956 
Q 1366 3272 1645 3428 
Q 1925 3584 2291 3584 
Q 2894 3584 3203 3211 
Q 3513 2838 3513 2113 
z
" id="DejaVuSans-6e" transform="scale(0.015625)"/>
       <path d="M 2906 1791 
Q 2906 2416 2648 2759 
Q 2391 3103 1925 3103 
Q 1463 3103 1205 2759 
Q 947 2416 947 1791 
Q 947 1169 1205 825 
Q 1463 481 1925 481 
Q 2391 481 2648 825 
Q 2906 1169 2906 1791 
z
M 3481 434 
Q 3481 -459 3084 -895 
Q 2688 -1331 1869 -1331 
Q 1566 -1331 1297 -1286 
Q 1028 -1241 775 -1147 
L 775 -588 
Q 1028 -725 1275 -790 
Q 1522 -856 1778 -856 
Q 2344 -856 2625 -561 
Q 2906 -266 2906 331 
L 2906 616 
Q 2728 306 2450 153 
Q 2172 0 1784 0 
Q 1141 0 747 490 
Q 353 981 353 1791 
Q 353 2603 747 3093 
Q 1141 3584 1784 3584 
Q 2172 3584 2450 3431 
Q 2728 3278 2906 2969 
L 2906 3500 
L 3481 3500 
L 3481 434 
z
" id="DejaVuSans-67" transform="scale(0.015625)"/>
       <path d="M 603 4863 
L 1178 4863 
L 1178 0 
L 603 0 
L 603 4863 
z
" id="DejaVuSans-6c" transform="scale(0.015625)"/>
       <path d="M 3597 1894 
L 3597 1613 
L 953 1613 
Q 991 1019 1311 708 
Q 1631 397 2203 397 
Q 2534 397 2845 478 
Q 3156 559 3463 722 
L 3463 178 
Q 3153 47 2828 -22 
Q 2503 -91 2169 -91 
Q 1331 -91 842 396 
Q 353 884 353 1716 
Q 353 2575 817 3079 
Q 1281 3584 2069 3584 
Q 2775 3584 3186 3129 
Q 3597 2675 3597 1894 
z
M 3022 2063 
Q 3016 2534 2758 2815 
Q 2500 3097 2075 3097 
Q 1594 3097 1305 2825 
Q 1016 2553 972 2059 
L 3022 2063 
z
" id="DejaVuSans-65" transform="scale(0.015625)"/>
       <path id="DejaVuSans-20" transform="scale(0.015625)"/>
       <path d="M 269 3500 
L 844 3500 
L 1563 769 
L 2278 3500 
L 2956 3500 
L 3675 769 
L 4391 3500 
L 4966 3500 
L 4050 0 
L 3372 0 
L 2619 2869 
L 1863 0 
L 1184 0 
L 269 3500 
z
" id="DejaVuSans-77" transform="scale(0.015625)"/>
       <path d="M 603 3500 
L 1178 3500 
L 1178 0 
L 603 0 
L 603 3500 
z
M 603 4863 
L 1178 4863 
L 1178 4134 
L 603 4134 
L 603 4863 
z
" id="DejaVuSans-69" transform="scale(0.015625)"/>
       <path d="M 1172 4494 
L 1172 3500 
L 2356 3500 
L 2356 3053 
L 1172 3053 
L 1172 1153 
Q 1172 725 1289 603 
Q 1406 481 1766 481 
L 2356 481 
L 2356 0 
L 1766 0 
Q 1100 0 847 248 
Q 594 497 594 1153 
L 594 3053 
L 172 3053 
L 172 3500 
L 594 3500 
L 594 4494 
L 1172 4494 
z
" id="DejaVuSans-74" transform="scale(0.015625)"/>
       <path d="M 3513 2113 
L 3513 0 
L 2938 0 
L 2938 2094 
Q 2938 2591 2744 2837 
Q 2550 3084 2163 3084 
Q 1697 3084 1428 2787 
Q 1159 2491 1159 1978 
L 1159 0 
L 581 0 
L 581 4863 
L 1159 4863 
L 1159 2956 
Q 1366 3272 1645 3428 
Q 1925 3584 2291 3584 
Q 2894 3584 3203 3211 
Q 3513 2838 3513 2113 
z
" id="DejaVuSans-68" transform="scale(0.015625)"/>
       <path d="M 1959 3097 
Q 1497 3097 1228 2736 
Q 959 2375 959 1747 
Q 959 1119 1226 758 
Q 1494 397 1959 397 
Q 2419 397 2687 759 
Q 2956 1122 2956 1747 
Q 2956 2369 2687 2733 
Q 2419 3097 1959 3097 
z
M 1959 3584 
Q 2709 3584 3137 3096 
Q 3566 2609 3566 1747 
Q 3566 888 3137 398 
Q 2709 -91 1959 -91 
Q 1206 -91 779 398 
Q 353 888 353 1747 
Q 353 2609 779 3096 
Q 1206 3584 1959 3584 
z
" id="DejaVuSans-6f" transform="scale(0.015625)"/>
       <path d="M 2631 2963 
Q 2534 3019 2420 3045 
Q 2306 3072 2169 3072 
Q 1681 3072 1420 2755 
Q 1159 2438 1159 1844 
L 1159 0 
L 581 0 
L 581 3500 
L 1159 3500 
L 1159 2956 
Q 1341 3275 1631 3429 
Q 1922 3584 2338 3584 
Q 2397 3584 2469 3576 
Q 2541 3569 2628 3553 
L 2631 2963 
z
" id="DejaVuSans-72" transform="scale(0.015625)"/>
       <path d="M 3328 2828 
Q 3544 3216 3844 3400 
Q 4144 3584 4550 3584 
Q 5097 3584 5394 3201 
Q 5691 2819 5691 2113 
L 5691 0 
L 5113 0 
L 5113 2094 
Q 5113 2597 4934 2840 
Q 4756 3084 4391 3084 
Q 3944 3084 3684 2787 
Q 3425 2491 3425 1978 
L 3425 0 
L 2847 0 
L 2847 2094 
Q 2847 2600 2669 2842 
Q 2491 3084 2119 3084 
Q 1678 3084 1418 2786 
Q 1159 2488 1159 1978 
L 1159 0 
L 581 0 
L 581 3500 
L 1159 3500 
L 1159 2956 
Q 1356 3278 1631 3431 
Q 1906 3584 2284 3584 
Q 2666 3584 2933 3390 
Q 3200 3197 3328 2828 
z
" id="DejaVuSans-6d" transform="scale(0.015625)"/>
       <path d="M 2194 1759 
Q 1497 1759 1228 1600 
Q 959 1441 959 1056 
Q 959 750 1161 570 
Q 1363 391 1709 391 
Q 2188 391 2477 730 
Q 2766 1069 2766 1631 
L 2766 1759 
L 2194 1759 
z
M 3341 1997 
L 3341 0 
L 2766 0 
L 2766 531 
Q 2569 213 2275 61 
Q 1981 -91 1556 -91 
Q 1019 -91 701 211 
Q 384 513 384 1019 
Q 384 1609 779 1909 
Q 1175 2209 1959 2209 
L 2766 2209 
L 2766 2266 
Q 2766 2663 2505 2880 
Q 2244 3097 1772 3097 
Q 1472 3097 1187 3025 
Q 903 2953 641 2809 
L 641 3341 
Q 956 3463 1253 3523 
Q 1550 3584 1831 3584 
Q 2591 3584 2966 3190 
Q 3341 2797 3341 1997 
z
" id="DejaVuSans-61" transform="scale(0.015625)"/>
       <path d="M 1984 4856 
Q 1566 4138 1362 3434 
Q 1159 2731 1159 2009 
Q 1159 1288 1364 580 
Q 1569 -128 1984 -844 
L 1484 -844 
Q 1016 -109 783 600 
Q 550 1309 550 2009 
Q 550 2706 781 3412 
Q 1013 4119 1484 4856 
L 1984 4856 
z
" id="DejaVuSans-28" transform="scale(0.015625)"/>
       <path d="M 2906 2969 
L 2906 4863 
L 3481 4863 
L 3481 0 
L 2906 0 
L 2906 525 
Q 2725 213 2448 61 
Q 2172 -91 1784 -91 
Q 1150 -91 751 415 
Q 353 922 353 1747 
Q 353 2572 751 3078 
Q 1150 3584 1784 3584 
Q 2172 3584 2448 3432 
Q 2725 3281 2906 2969 
z
M 947 1747 
Q 947 1113 1208 752 
Q 1469 391 1925 391 
Q 2381 391 2643 752 
Q 2906 1113 2906 1747 
Q 2906 2381 2643 2742 
Q 2381 3103 1925 3103 
Q 1469 3103 1208 2742 
Q 947 2381 947 1747 
z
" id="DejaVuSans-64" transform="scale(0.015625)"/>
       <path d="M 513 4856 
L 1013 4856 
Q 1481 4119 1714 3412 
Q 1947 2706 1947 2009 
Q 1947 1309 1714 600 
Q 1481 -109 1013 -844 
L 513 -844 
Q 928 -128 1133 580 
Q 1338 1288 1338 2009 
Q 1338 2731 1133 3434 
Q 928 4138 513 4856 
z
" id="DejaVuSans-29" transform="scale(0.015625)"/>
      </defs>
      <use xlink:href="#DejaVuSans-41"/>
      <use x="68.408203" xlink:href="#DejaVuSans-6e"/>
      <use x="131.787109" xlink:href="#DejaVuSans-67"/>
      <use x="195.263672" xlink:href="#DejaVuSans-6c"/>
      <use x="223.046875" xlink:href="#DejaVuSans-65"/>
      <use x="284.570312" xlink:href="#DejaVuSans-20"/>
      <use x="316.357422" xlink:href="#DejaVuSans-77"/>
      <use x="398.144531" xlink:href="#DejaVuSans-69"/>
      <use x="425.927734" xlink:href="#DejaVuSans-74"/>
      <use x="465.136719" xlink:href="#DejaVuSans-68"/>
      <use x="528.515625" xlink:href="#DejaVuSans-20"/>
      <use x="560.302734" xlink:href="#DejaVuSans-6e"/>
      <use x="623.681641" xlink:href="#DejaVuSans-6f"/>
      <use x="684.863281" xlink:href="#DejaVuSans-72"/>
      <use x="724.226562" xlink:href="#DejaVuSans-6d"/>
      <use x="821.638672" xlink:href="#DejaVuSans-61"/>
      <use x="882.917969" xlink:href="#DejaVuSans-6c"/>
      <use x="910.701172" xlink:href="#DejaVuSans-20"/>
      <use x="942.488281" xlink:href="#DejaVuSans-28"/>
      <use x="981.501953" xlink:href="#DejaVuSans-72"/>
      <use x="1022.615234" xlink:href="#DejaVuSans-61"/>
      <use x="1083.894531" xlink:href="#DejaVuSans-64"/>
      <use x="1147.371094" xlink:href="#DejaVuSans-29"/>
     </g>
    </g>
   </g>
   <g id="matplotlib.axis_2">
    <g id="ytick_1">
     <g id="line2d_10">
      <defs>
       <path d="M 0 0 
L -3.5 0 
" id="m9d9d50082d" style="stroke:#000000;stroke-width:0.8;"/>
      </defs>
      <g>
       <use style="stroke:#000000;stroke-width:0.8;" x="43.78125" xlink:href="#m9d9d50082d" y="277.06831"/>
      </g>
     </g>
     <g id="text_11">
      <!-- 0.0 -->
      <g transform="translate(20.878125 280.867529)scale(0.1 -0.1)">
       <use xlink:href="#DejaVuSans-30"/>
       <use x="63.623047" xlink:href="#DejaVuSans-2e"/>
       <use x="95.410156" xlink:href="#DejaVuSans-30"/>
      </g>
     </g>
    </g>
    <g id="ytick_2">
     <g id="line2d_11">
      <g>
       <use style="stroke:#000000;stroke-width:0.8;" x="43.78125" xlink:href="#m9d9d50082d" y="232.723462"/>
      </g>
     </g>
     <g id="text_12">
      <!-- 0.2 -->
      <g transform="translate(20.878125 236.52268)scale(0.1 -0.1)">
       <use xlink:href="#DejaVuSans-30"/>
       <use x="63.623047" xlink:href="#DejaVuSans-2e"/>
       <use x="95.410156" xlink:href="#DejaVuSans-32"/>
      </g>
     </g>
    </g>
    <g id="ytick_3">
     <g id="line2d_12">
      <g>
       <use style="stroke:#000000;stroke-width:0.8;" x="43.78125" xlink:href="#m9d9d50082d" y="188.378613"/>
      </g>
     </g>
     <g id="text_13">
      <!-- 0.4 -->
      <g transform="translate(20.878125 192.177832)scale(0.1 -0.1)">
       <use xlink:href="#DejaVuSans-30"/>
       <use x="63.623047" xlink:href="#DejaVuSans-2e"/>
       <use x="95.410156" xlink:href="#DejaVuSans-34"/>
      </g>
     </g>
    </g>
    <g id="ytick_4">
     <g id="line2d_13">
      <g>
       <use style="stroke:#000000;stroke-width:0.8;" x="43.78125" xlink:href="#m9d9d50082d" y="144.033764"/>
      </g>
     </g>
     <g id="text_14">
      <!-- 0.6 -->
      <g transform="translate(20.878125 147.832983)scale(0.1 -0.1)">
       <use xlink:href="#DejaVuSans-30"/>
       <use x="63.623047" xlink:href="#DejaVuSans-2e"/>
       <use x="95.410156" xlink:href="#DejaVuSans-36"/>
      </g>
     </g>
    </g>
    <g id="ytick_5">
     <g id="line2d_14">
      <g>
       <use style="stroke:#000000;stroke-width:0.8;" x="43.78125" xlink:href="#m9d9d50082d" y="99.688916"/>
      </g>
     </g>
     <g id="text_15">
      <!-- 0.8 -->
      <g transform="translate(20.878125 103.488135)scale(0.1 -0.1)">
       <use xlink:href="#DejaVuSans-30"/>
       <use x="63.623047" xlink:href="#DejaVuSans-2e"/>
       <use x="95.410156" xlink:href="#DejaVuSans-38"/>
      </g>
     </g>
    </g>
    <g id="ytick_6">
     <g id="line2d_15">
      <g>
       <use style="stroke:#000000;stroke-width:0.8;" x="43.78125" xlink:href="#m9d9d50082d" y="55.344067"/>
      </g>
     </g>
     <g id="text_16">
      <!-- 1.0 -->
      <g transform="translate(20.878125 59.143286)scale(0.1 -0.1)">
       <use xlink:href="#DejaVuSans-31"/>
       <use x="63.623047" xlink:href="#DejaVuSans-2e"/>
       <use x="95.410156" xlink:href="#DejaVuSans-30"/>
      </g>
     </g>
    </g>
    <g id="ytick_7">
     <g id="line2d_16">
      <g>
       <use style="stroke:#000000;stroke-width:0.8;" x="43.78125" xlink:href="#m9d9d50082d" y="10.999219"/>
      </g>
     </g>
     <g id="text_17">
      <!-- 1.2 -->
      <g transform="translate(20.878125 14.798438)scale(0.1 -0.1)">
       <use xlink:href="#DejaVuSans-31"/>
       <use x="63.623047" xlink:href="#DejaVuSans-2e"/>
       <use x="95.410156" xlink:href="#DejaVuSans-32"/>
      </g>
     </g>
    </g>
    <g id="text_18">
     <!-- Probability density -->
     <g transform="translate(14.798438 190.363091)rotate(-90)scale(0.1 -0.1)">
      <defs>
       <path d="M 1259 4147 
L 1259 2394 
L 2053 2394 
Q 2494 2394 2734 2622 
Q 2975 2850 2975 3272 
Q 2975 3691 2734 3919 
Q 2494 4147 2053 4147 
L 1259 4147 
z
M 628 4666 
L 2053 4666 
Q 2838 4666 3239 4311 
Q 3641 3956 3641 3272 
Q 3641 2581 3239 2228 
Q 2838 1875 2053 1875 
L 1259 1875 
L 1259 0 
L 628 0 
L 628 4666 
z
" id="DejaVuSans-50" transform="scale(0.015625)"/>
       <path d="M 3116 1747 
Q 3116 2381 2855 2742 
Q 2594 3103 2138 3103 
Q 1681 3103 1420 2742 
Q 1159 2381 1159 1747 
Q 1159 1113 1420 752 
Q 1681 391 2138 391 
Q 2594 391 2855 752 
Q 3116 1113 3116 1747 
z
M 1159 2969 
Q 1341 3281 1617 3432 
Q 1894 3584 2278 3584 
Q 2916 3584 3314 3078 
Q 3713 2572 3713 1747 
Q 3713 922 3314 415 
Q 2916 -91 2278 -91 
Q 1894 -91 1617 61 
Q 1341 213 1159 525 
L 1159 0 
L 581 0 
L 581 4863 
L 1159 4863 
L 1159 2969 
z
" id="DejaVuSans-62" transform="scale(0.015625)"/>
       <path d="M 2059 -325 
Q 1816 -950 1584 -1140 
Q 1353 -1331 966 -1331 
L 506 -1331 
L 506 -850 
L 844 -850 
Q 1081 -850 1212 -737 
Q 1344 -625 1503 -206 
L 1606 56 
L 191 3500 
L 800 3500 
L 1894 763 
L 2988 3500 
L 3597 3500 
L 2059 -325 
z
" id="DejaVuSans-79" transform="scale(0.015625)"/>
       <path d="M 2834 3397 
L 2834 2853 
Q 2591 2978 2328 3040 
Q 2066 3103 1784 3103 
Q 1356 3103 1142 2972 
Q 928 2841 928 2578 
Q 928 2378 1081 2264 
Q 1234 2150 1697 2047 
L 1894 2003 
Q 2506 1872 2764 1633 
Q 3022 1394 3022 966 
Q 3022 478 2636 193 
Q 2250 -91 1575 -91 
Q 1294 -91 989 -36 
Q 684 19 347 128 
L 347 722 
Q 666 556 975 473 
Q 1284 391 1588 391 
Q 1994 391 2212 530 
Q 2431 669 2431 922 
Q 2431 1156 2273 1281 
Q 2116 1406 1581 1522 
L 1381 1569 
Q 847 1681 609 1914 
Q 372 2147 372 2553 
Q 372 3047 722 3315 
Q 1072 3584 1716 3584 
Q 2034 3584 2315 3537 
Q 2597 3491 2834 3397 
z
" id="DejaVuSans-73" transform="scale(0.015625)"/>
      </defs>
      <use xlink:href="#DejaVuSans-50"/>
      <use x="58.552734" xlink:href="#DejaVuSans-72"/>
      <use x="97.416016" xlink:href="#DejaVuSans-6f"/>
      <use x="158.597656" xlink:href="#DejaVuSans-62"/>
      <use x="222.074219" xlink:href="#DejaVuSans-61"/>
      <use x="283.353516" xlink:href="#DejaVuSans-62"/>
      <use x="346.830078" xlink:href="#DejaVuSans-69"/>
      <use x="374.613281" xlink:href="#DejaVuSans-6c"/>
      <use x="402.396484" xlink:href="#DejaVuSans-69"/>
      <use x="430.179688" xlink:href="#DejaVuSans-74"/>
      <use x="469.388672" xlink:href="#DejaVuSans-79"/>
      <use x="528.568359" xlink:href="#DejaVuSans-20"/>
      <use x="560.355469" xlink:href="#DejaVuSans-64"/>
      <use x="623.832031" xlink:href="#DejaVuSans-65"/>
      <use x="685.355469" xlink:href="#DejaVuSans-6e"/>
      <use x="748.734375" xlink:href="#DejaVuSans-73"/>
      <use x="800.833984" xlink:href="#DejaVuSans-69"/>
      <use x="828.617188" xlink:href="#DejaVuSans-74"/>
      <use x="867.826172" xlink:href="#DejaVuSans-79"/>
     </g>
    </g>
   </g>
   <g id="line2d_17">
    <path clip-path="url(#pb3ed87c208)" d="M 60.013977 277.06831 
L 79.837728 234.795553 
L 90.237073 213.143173 
L 99.01152 195.368382 
L 106.811029 180.058852 
L 113.960578 166.50825 
L 120.460169 154.646895 
L 126.63478 143.826312 
L 132.484411 134.013284 
L 138.009063 125.165676 
L 143.208736 117.234572 
L 148.408408 109.70803 
L 153.283101 103.036277 
L 158.157794 96.751694 
L 162.707507 91.247741 
L 167.257221 86.10391 
L 171.481954 81.658675 
L 175.706688 77.539983 
L 179.606442 74.033907 
L 183.506197 70.816932 
L 187.405951 67.893638 
L 190.980726 65.475505 
L 194.555501 63.310542 
L 198.130275 61.40134 
L 201.70505 59.750181 
L 205.279825 58.359043 
L 208.52962 57.321416 
L 211.779415 56.501087 
L 215.029211 55.898866 
L 218.279006 55.515351 
L 221.528801 55.35092 
L 224.778596 55.405735 
L 228.028392 55.679742 
L 231.278187 56.172671 
L 234.527982 56.884033 
L 237.777777 57.813126 
L 241.027573 58.959031 
L 244.602347 60.468586 
L 248.177122 62.2373 
L 251.751897 64.263059 
L 255.326672 66.543439 
L 258.901447 69.07571 
L 262.801201 72.121901 
L 266.700955 75.459915 
L 270.600709 79.085 
L 274.825443 83.33013 
L 279.050177 87.89901 
L 283.274911 92.784006 
L 287.824624 98.388921 
L 292.374338 104.340117 
L 297.249031 111.087549 
L 302.123723 118.204237 
L 307.323396 126.184521 
L 312.848048 135.081554 
L 318.697679 144.943583 
L 324.87229 155.812006 
L 331.371881 167.719221 
L 338.196451 180.686316 
L 345.67098 195.368382 
L 354.120447 212.475834 
L 363.869833 232.744041 
L 376.544035 259.654649 
L 384.668523 277.06831 
L 384.668523 277.06831 
" style="fill:none;stroke:#ff7f0e;stroke-linecap:square;stroke-width:1.5;"/>
   </g>
   <g id="patch_203">
    <path d="M 43.78125 277.06831 
L 43.78125 10.95631 
" style="fill:none;stroke:#000000;stroke-linecap:square;stroke-linejoin:miter;stroke-width:0.8;"/>
   </g>
   <g id="patch_204">
    <path d="M 400.90125 277.06831 
L 400.90125 10.95631 
" style="fill:none;stroke:#000000;stroke-linecap:square;stroke-linejoin:miter;stroke-width:0.8;"/>
   </g>
   <g id="patch_205">
    <path d="M 43.78125 277.06831 
L 400.90125 277.06831 
" style="fill:none;stroke:#000000;stroke-linecap:square;stroke-linejoin:miter;stroke-width:0.8;"/>
   </g>
   <g id="patch_206">
    <path d="M 43.78125 10.95631 
L 400.90125 10.95631 
" style="fill:none;stroke:#000000;stroke-linecap:square;stroke-linejoin:miter;stroke-width:0.8;"/>
   </g>
  </g>
 </g>
 <defs>
  <clipPath id="pb3ed87c208">
   <rect height="266.112" width="357.12" x="43.78125" y="10.95631"/>
  </clipPath>
 </defs>
</svg>
