<?xml version="1.0" encoding="utf-8" standalone="no"?>
<!DOCTYPE svg PUBLIC "-//W3C//DTD SVG 1.1//EN"
  "http://www.w3.org/Graphics/SVG/1.1/DTD/svg11.dtd">
<svg height="310.86825pt" version="1.1" viewBox="0 0 408.10125 310.86825" width="408.10125pt" xmlns="http://www.w3.org/2000/svg" xmlns:xlink="http://www.w3.org/1999/xlink">
 <metadata>
  <rdf:RDF xmlns:cc="http://creativecommons.org/ns#" xmlns:dc="http://purl.org/dc/elements/1.1/" xmlns:rdf="http://www.w3.org/1999/02/22-rdf-syntax-ns#">
   <cc:Work>
    <dc:type rdf:resource="http://purl.org/dc/dcmitype/StillImage"/>
    <dc:date>2021-07-12T18:05:28.071980</dc:date>
    <dc:format>image/svg+xml</dc:format>
    <dc:creator>
     <cc:Agent>
      <dc:title>Matplotlib v3.4.2, https://matplotlib.org/</dc:title>
     </cc:Agent>
    </dc:creator>
   </cc:Work>
  </rdf:RDF>
 </metadata>
 <defs>
  <style type="text/css">*{stroke-linecap:butt;stroke-linejoin:round;}</style>
 </defs>
 <g id="figure_1">
  <g id="patch_1">
   <path d="M 0 310.86825 
L 408.10125 310.86825 
L 408.10125 0 
L 0 0 
z
" style="fill:#ffffff;"/>
  </g>
  <g id="axes_1">
   <g id="patch_2">
    <path d="M 43.78125 273.312 
L 400.90125 273.312 
L 400.90125 7.2 
L 43.78125 7.2 
z
" style="fill:#ffffff;"/>
   </g>
   <g id="patch_3">
    <path clip-path="url(#p79b0ce5876)" d="M 60.387479 273.312 
L 62.005249 273.312 
L 62.005249 269.638957 
L 60.387479 269.638957 
z
" style="fill:#1f77b4;"/>
   </g>
   <g id="patch_4">
    <path clip-path="url(#p79b0ce5876)" d="M 62.005249 273.312 
L 63.623019 273.312 
L 63.623019 266.700522 
L 62.005249 266.700522 
z
" style="fill:#1f77b4;"/>
   </g>
   <g id="patch_5">
    <path clip-path="url(#p79b0ce5876)" d="M 63.623019 273.312 
L 65.240789 273.312 
L 65.240789 260.823652 
L 63.623019 260.823652 
z
" style="fill:#1f77b4;"/>
   </g>
   <g id="patch_6">
    <path clip-path="url(#p79b0ce5876)" d="M 65.240789 273.312 
L 66.85856 273.312 
L 66.85856 254.946783 
L 65.240789 254.946783 
z
" style="fill:#1f77b4;"/>
   </g>
   <g id="patch_7">
    <path clip-path="url(#p79b0ce5876)" d="M 66.85856 273.312 
L 68.47633 273.312 
L 68.47633 258.619826 
L 66.85856 258.619826 
z
" style="fill:#1f77b4;"/>
   </g>
   <g id="patch_8">
    <path clip-path="url(#p79b0ce5876)" d="M 68.47633 273.312 
L 70.0941 273.312 
L 70.0941 252.008348 
L 68.47633 252.008348 
z
" style="fill:#1f77b4;"/>
   </g>
   <g id="patch_9">
    <path clip-path="url(#p79b0ce5876)" d="M 70.0941 273.312 
L 71.711871 273.312 
L 71.711871 254.946783 
L 70.0941 254.946783 
z
" style="fill:#1f77b4;"/>
   </g>
   <g id="patch_10">
    <path clip-path="url(#p79b0ce5876)" d="M 71.711871 273.312 
L 73.329641 273.312 
L 73.329641 244.662261 
L 71.711871 244.662261 
z
" style="fill:#1f77b4;"/>
   </g>
   <g id="patch_11">
    <path clip-path="url(#p79b0ce5876)" d="M 73.329641 273.312 
L 74.947411 273.312 
L 74.947411 232.908522 
L 73.329641 232.908522 
z
" style="fill:#1f77b4;"/>
   </g>
   <g id="patch_12">
    <path clip-path="url(#p79b0ce5876)" d="M 74.947411 273.312 
L 76.565181 273.312 
L 76.565181 238.050783 
L 74.947411 238.050783 
z
" style="fill:#1f77b4;"/>
   </g>
   <g id="patch_13">
    <path clip-path="url(#p79b0ce5876)" d="M 76.565181 273.312 
L 78.182952 273.312 
L 78.182952 230.704696 
L 76.565181 230.704696 
z
" style="fill:#1f77b4;"/>
   </g>
   <g id="patch_14">
    <path clip-path="url(#p79b0ce5876)" d="M 78.182952 273.312 
L 79.800722 273.312 
L 79.800722 224.827826 
L 78.182952 224.827826 
z
" style="fill:#1f77b4;"/>
   </g>
   <g id="patch_15">
    <path clip-path="url(#p79b0ce5876)" d="M 79.800722 273.312 
L 81.418492 273.312 
L 81.418492 230.704696 
L 79.800722 230.704696 
z
" style="fill:#1f77b4;"/>
   </g>
   <g id="patch_16">
    <path clip-path="url(#p79b0ce5876)" d="M 81.418492 273.312 
L 83.036263 273.312 
L 83.036263 225.562435 
L 81.418492 225.562435 
z
" style="fill:#1f77b4;"/>
   </g>
   <g id="patch_17">
    <path clip-path="url(#p79b0ce5876)" d="M 83.036263 273.312 
L 84.654033 273.312 
L 84.654033 210.135652 
L 83.036263 210.135652 
z
" style="fill:#1f77b4;"/>
   </g>
   <g id="patch_18">
    <path clip-path="url(#p79b0ce5876)" d="M 84.654033 273.312 
L 86.271803 273.312 
L 86.271803 211.60487 
L 84.654033 211.60487 
z
" style="fill:#1f77b4;"/>
   </g>
   <g id="patch_19">
    <path clip-path="url(#p79b0ce5876)" d="M 86.271803 273.312 
L 87.889573 273.312 
L 87.889573 210.135652 
L 86.271803 210.135652 
z
" style="fill:#1f77b4;"/>
   </g>
   <g id="patch_20">
    <path clip-path="url(#p79b0ce5876)" d="M 87.889573 273.312 
L 89.507344 273.312 
L 89.507344 204.993391 
L 87.889573 204.993391 
z
" style="fill:#1f77b4;"/>
   </g>
   <g id="patch_21">
    <path clip-path="url(#p79b0ce5876)" d="M 89.507344 273.312 
L 91.125114 273.312 
L 91.125114 201.320348 
L 89.507344 201.320348 
z
" style="fill:#1f77b4;"/>
   </g>
   <g id="patch_22">
    <path clip-path="url(#p79b0ce5876)" d="M 91.125114 273.312 
L 92.742884 273.312 
L 92.742884 201.320348 
L 91.125114 201.320348 
z
" style="fill:#1f77b4;"/>
   </g>
   <g id="patch_23">
    <path clip-path="url(#p79b0ce5876)" d="M 92.742884 273.312 
L 94.360654 273.312 
L 94.360654 196.912696 
L 92.742884 196.912696 
z
" style="fill:#1f77b4;"/>
   </g>
   <g id="patch_24">
    <path clip-path="url(#p79b0ce5876)" d="M 94.360654 273.312 
L 95.978425 273.312 
L 95.978425 202.789565 
L 94.360654 202.789565 
z
" style="fill:#1f77b4;"/>
   </g>
   <g id="patch_25">
    <path clip-path="url(#p79b0ce5876)" d="M 95.978425 273.312 
L 97.596195 273.312 
L 97.596195 189.566609 
L 95.978425 189.566609 
z
" style="fill:#1f77b4;"/>
   </g>
   <g id="patch_26">
    <path clip-path="url(#p79b0ce5876)" d="M 97.596195 273.312 
L 99.213965 273.312 
L 99.213965 205.728 
L 97.596195 205.728 
z
" style="fill:#1f77b4;"/>
   </g>
   <g id="patch_27">
    <path clip-path="url(#p79b0ce5876)" d="M 99.213965 273.312 
L 100.831736 273.312 
L 100.831736 177.81287 
L 99.213965 177.81287 
z
" style="fill:#1f77b4;"/>
   </g>
   <g id="patch_28">
    <path clip-path="url(#p79b0ce5876)" d="M 100.831736 273.312 
L 102.449506 273.312 
L 102.449506 182.220522 
L 100.831736 182.220522 
z
" style="fill:#1f77b4;"/>
   </g>
   <g id="patch_29">
    <path clip-path="url(#p79b0ce5876)" d="M 102.449506 273.312 
L 104.067276 273.312 
L 104.067276 173.405217 
L 102.449506 173.405217 
z
" style="fill:#1f77b4;"/>
   </g>
   <g id="patch_30">
    <path clip-path="url(#p79b0ce5876)" d="M 104.067276 273.312 
L 105.685046 273.312 
L 105.685046 142.551652 
L 104.067276 142.551652 
z
" style="fill:#1f77b4;"/>
   </g>
   <g id="patch_31">
    <path clip-path="url(#p79b0ce5876)" d="M 105.685046 273.312 
L 107.302817 273.312 
L 107.302817 157.978435 
L 105.685046 157.978435 
z
" style="fill:#1f77b4;"/>
   </g>
   <g id="patch_32">
    <path clip-path="url(#p79b0ce5876)" d="M 107.302817 273.312 
L 108.920587 273.312 
L 108.920587 180.751304 
L 107.302817 180.751304 
z
" style="fill:#1f77b4;"/>
   </g>
   <g id="patch_33">
    <path clip-path="url(#p79b0ce5876)" d="M 108.920587 273.312 
L 110.538357 273.312 
L 110.538357 168.997565 
L 108.920587 168.997565 
z
" style="fill:#1f77b4;"/>
   </g>
   <g id="patch_34">
    <path clip-path="url(#p79b0ce5876)" d="M 110.538357 273.312 
L 112.156128 273.312 
L 112.156128 157.978435 
L 110.538357 157.978435 
z
" style="fill:#1f77b4;"/>
   </g>
   <g id="patch_35">
    <path clip-path="url(#p79b0ce5876)" d="M 112.156128 273.312 
L 113.773898 273.312 
L 113.773898 149.16313 
L 112.156128 149.16313 
z
" style="fill:#1f77b4;"/>
   </g>
   <g id="patch_36">
    <path clip-path="url(#p79b0ce5876)" d="M 113.773898 273.312 
L 115.391668 273.312 
L 115.391668 180.016696 
L 113.773898 180.016696 
z
" style="fill:#1f77b4;"/>
   </g>
   <g id="patch_37">
    <path clip-path="url(#p79b0ce5876)" d="M 115.391668 273.312 
L 117.009438 273.312 
L 117.009438 164.589913 
L 115.391668 164.589913 
z
" style="fill:#1f77b4;"/>
   </g>
   <g id="patch_38">
    <path clip-path="url(#p79b0ce5876)" d="M 117.009438 273.312 
L 118.627209 273.312 
L 118.627209 160.182261 
L 117.009438 160.182261 
z
" style="fill:#1f77b4;"/>
   </g>
   <g id="patch_39">
    <path clip-path="url(#p79b0ce5876)" d="M 118.627209 273.312 
L 120.244979 273.312 
L 120.244979 148.428522 
L 118.627209 148.428522 
z
" style="fill:#1f77b4;"/>
   </g>
   <g id="patch_40">
    <path clip-path="url(#p79b0ce5876)" d="M 120.244979 273.312 
L 121.862749 273.312 
L 121.862749 141.082435 
L 120.244979 141.082435 
z
" style="fill:#1f77b4;"/>
   </g>
   <g id="patch_41">
    <path clip-path="url(#p79b0ce5876)" d="M 121.862749 273.312 
L 123.48052 273.312 
L 123.48052 140.347826 
L 121.862749 140.347826 
z
" style="fill:#1f77b4;"/>
   </g>
   <g id="patch_42">
    <path clip-path="url(#p79b0ce5876)" d="M 123.48052 273.312 
L 125.09829 273.312 
L 125.09829 127.859478 
L 123.48052 127.859478 
z
" style="fill:#1f77b4;"/>
   </g>
   <g id="patch_43">
    <path clip-path="url(#p79b0ce5876)" d="M 125.09829 273.312 
L 126.71606 273.312 
L 126.71606 144.755478 
L 125.09829 144.755478 
z
" style="fill:#1f77b4;"/>
   </g>
   <g id="patch_44">
    <path clip-path="url(#p79b0ce5876)" d="M 126.71606 273.312 
L 128.33383 273.312 
L 128.33383 145.490087 
L 126.71606 145.490087 
z
" style="fill:#1f77b4;"/>
   </g>
   <g id="patch_45">
    <path clip-path="url(#p79b0ce5876)" d="M 128.33383 273.312 
L 129.951601 273.312 
L 129.951601 135.205565 
L 128.33383 135.205565 
z
" style="fill:#1f77b4;"/>
   </g>
   <g id="patch_46">
    <path clip-path="url(#p79b0ce5876)" d="M 129.951601 273.312 
L 131.569371 273.312 
L 131.569371 127.859478 
L 129.951601 127.859478 
z
" style="fill:#1f77b4;"/>
   </g>
   <g id="patch_47">
    <path clip-path="url(#p79b0ce5876)" d="M 131.569371 273.312 
L 133.187141 273.312 
L 133.187141 106.555826 
L 131.569371 106.555826 
z
" style="fill:#1f77b4;"/>
   </g>
   <g id="patch_48">
    <path clip-path="url(#p79b0ce5876)" d="M 133.187141 273.312 
L 134.804911 273.312 
L 134.804911 130.797913 
L 133.187141 130.797913 
z
" style="fill:#1f77b4;"/>
   </g>
   <g id="patch_49">
    <path clip-path="url(#p79b0ce5876)" d="M 134.804911 273.312 
L 136.422682 273.312 
L 136.422682 129.328696 
L 134.804911 129.328696 
z
" style="fill:#1f77b4;"/>
   </g>
   <g id="patch_50">
    <path clip-path="url(#p79b0ce5876)" d="M 136.422682 273.312 
L 138.040452 273.312 
L 138.040452 128.594087 
L 136.422682 128.594087 
z
" style="fill:#1f77b4;"/>
   </g>
   <g id="patch_51">
    <path clip-path="url(#p79b0ce5876)" d="M 138.040452 273.312 
L 139.658222 273.312 
L 139.658222 135.205565 
L 138.040452 135.205565 
z
" style="fill:#1f77b4;"/>
   </g>
   <g id="patch_52">
    <path clip-path="url(#p79b0ce5876)" d="M 139.658222 273.312 
L 141.275993 273.312 
L 141.275993 96.271304 
L 139.658222 96.271304 
z
" style="fill:#1f77b4;"/>
   </g>
   <g id="patch_53">
    <path clip-path="url(#p79b0ce5876)" d="M 141.275993 273.312 
L 142.893763 273.312 
L 142.893763 110.22887 
L 141.275993 110.22887 
z
" style="fill:#1f77b4;"/>
   </g>
   <g id="patch_54">
    <path clip-path="url(#p79b0ce5876)" d="M 142.893763 273.312 
L 144.511533 273.312 
L 144.511533 110.22887 
L 142.893763 110.22887 
z
" style="fill:#1f77b4;"/>
   </g>
   <g id="patch_55">
    <path clip-path="url(#p79b0ce5876)" d="M 144.511533 273.312 
L 146.129303 273.312 
L 146.129303 123.451826 
L 144.511533 123.451826 
z
" style="fill:#1f77b4;"/>
   </g>
   <g id="patch_56">
    <path clip-path="url(#p79b0ce5876)" d="M 146.129303 273.312 
L 147.747074 273.312 
L 147.747074 122.717217 
L 146.129303 122.717217 
z
" style="fill:#1f77b4;"/>
   </g>
   <g id="patch_57">
    <path clip-path="url(#p79b0ce5876)" d="M 147.747074 273.312 
L 149.364844 273.312 
L 149.364844 116.840348 
L 147.747074 116.840348 
z
" style="fill:#1f77b4;"/>
   </g>
   <g id="patch_58">
    <path clip-path="url(#p79b0ce5876)" d="M 149.364844 273.312 
L 150.982614 273.312 
L 150.982614 74.233043 
L 149.364844 74.233043 
z
" style="fill:#1f77b4;"/>
   </g>
   <g id="patch_59">
    <path clip-path="url(#p79b0ce5876)" d="M 150.982614 273.312 
L 152.600385 273.312 
L 152.600385 93.33287 
L 150.982614 93.33287 
z
" style="fill:#1f77b4;"/>
   </g>
   <g id="patch_60">
    <path clip-path="url(#p79b0ce5876)" d="M 152.600385 273.312 
L 154.218155 273.312 
L 154.218155 104.352 
L 152.600385 104.352 
z
" style="fill:#1f77b4;"/>
   </g>
   <g id="patch_61">
    <path clip-path="url(#p79b0ce5876)" d="M 154.218155 273.312 
L 155.835925 273.312 
L 155.835925 92.598261 
L 154.218155 92.598261 
z
" style="fill:#1f77b4;"/>
   </g>
   <g id="patch_62">
    <path clip-path="url(#p79b0ce5876)" d="M 155.835925 273.312 
L 157.453695 273.312 
L 157.453695 97.740522 
L 155.835925 97.740522 
z
" style="fill:#1f77b4;"/>
   </g>
   <g id="patch_63">
    <path clip-path="url(#p79b0ce5876)" d="M 157.453695 273.312 
L 159.071466 273.312 
L 159.071466 80.109913 
L 157.453695 80.109913 
z
" style="fill:#1f77b4;"/>
   </g>
   <g id="patch_64">
    <path clip-path="url(#p79b0ce5876)" d="M 159.071466 273.312 
L 160.689236 273.312 
L 160.689236 83.782957 
L 159.071466 83.782957 
z
" style="fill:#1f77b4;"/>
   </g>
   <g id="patch_65">
    <path clip-path="url(#p79b0ce5876)" d="M 160.689236 273.312 
L 162.307006 273.312 
L 162.307006 85.252174 
L 160.689236 85.252174 
z
" style="fill:#1f77b4;"/>
   </g>
   <g id="patch_66">
    <path clip-path="url(#p79b0ce5876)" d="M 162.307006 273.312 
L 163.924777 273.312 
L 163.924777 95.536696 
L 162.307006 95.536696 
z
" style="fill:#1f77b4;"/>
   </g>
   <g id="patch_67">
    <path clip-path="url(#p79b0ce5876)" d="M 163.924777 273.312 
L 165.542547 273.312 
L 165.542547 64.68313 
L 163.924777 64.68313 
z
" style="fill:#1f77b4;"/>
   </g>
   <g id="patch_68">
    <path clip-path="url(#p79b0ce5876)" d="M 165.542547 273.312 
L 167.160317 273.312 
L 167.160317 67.621565 
L 165.542547 67.621565 
z
" style="fill:#1f77b4;"/>
   </g>
   <g id="patch_69">
    <path clip-path="url(#p79b0ce5876)" d="M 167.160317 273.312 
L 168.778087 273.312 
L 168.778087 80.109913 
L 167.160317 80.109913 
z
" style="fill:#1f77b4;"/>
   </g>
   <g id="patch_70">
    <path clip-path="url(#p79b0ce5876)" d="M 168.778087 273.312 
L 170.395858 273.312 
L 170.395858 67.621565 
L 168.778087 67.621565 
z
" style="fill:#1f77b4;"/>
   </g>
   <g id="patch_71">
    <path clip-path="url(#p79b0ce5876)" d="M 170.395858 273.312 
L 172.013628 273.312 
L 172.013628 68.356174 
L 170.395858 68.356174 
z
" style="fill:#1f77b4;"/>
   </g>
   <g id="patch_72">
    <path clip-path="url(#p79b0ce5876)" d="M 172.013628 273.312 
L 173.631398 273.312 
L 173.631398 79.375304 
L 172.013628 79.375304 
z
" style="fill:#1f77b4;"/>
   </g>
   <g id="patch_73">
    <path clip-path="url(#p79b0ce5876)" d="M 173.631398 273.312 
L 175.249168 273.312 
L 175.249168 52.929391 
L 173.631398 52.929391 
z
" style="fill:#1f77b4;"/>
   </g>
   <g id="patch_74">
    <path clip-path="url(#p79b0ce5876)" d="M 175.249168 273.312 
L 176.866939 273.312 
L 176.866939 61.744696 
L 175.249168 61.744696 
z
" style="fill:#1f77b4;"/>
   </g>
   <g id="patch_75">
    <path clip-path="url(#p79b0ce5876)" d="M 176.866939 273.312 
L 178.484709 273.312 
L 178.484709 57.337043 
L 176.866939 57.337043 
z
" style="fill:#1f77b4;"/>
   </g>
   <g id="patch_76">
    <path clip-path="url(#p79b0ce5876)" d="M 178.484709 273.312 
L 180.102479 273.312 
L 180.102479 89.659826 
L 178.484709 89.659826 
z
" style="fill:#1f77b4;"/>
   </g>
   <g id="patch_77">
    <path clip-path="url(#p79b0ce5876)" d="M 180.102479 273.312 
L 181.72025 273.312 
L 181.72025 72.029217 
L 180.102479 72.029217 
z
" style="fill:#1f77b4;"/>
   </g>
   <g id="patch_78">
    <path clip-path="url(#p79b0ce5876)" d="M 181.72025 273.312 
L 183.33802 273.312 
L 183.33802 44.114087 
L 181.72025 44.114087 
z
" style="fill:#1f77b4;"/>
   </g>
   <g id="patch_79">
    <path clip-path="url(#p79b0ce5876)" d="M 183.33802 273.312 
L 184.95579 273.312 
L 184.95579 63.948522 
L 183.33802 63.948522 
z
" style="fill:#1f77b4;"/>
   </g>
   <g id="patch_80">
    <path clip-path="url(#p79b0ce5876)" d="M 184.95579 273.312 
L 186.57356 273.312 
L 186.57356 72.763826 
L 184.95579 72.763826 
z
" style="fill:#1f77b4;"/>
   </g>
   <g id="patch_81">
    <path clip-path="url(#p79b0ce5876)" d="M 186.57356 273.312 
L 188.191331 273.312 
L 188.191331 52.194783 
L 186.57356 52.194783 
z
" style="fill:#1f77b4;"/>
   </g>
   <g id="patch_82">
    <path clip-path="url(#p79b0ce5876)" d="M 188.191331 273.312 
L 189.809101 273.312 
L 189.809101 52.929391 
L 188.191331 52.929391 
z
" style="fill:#1f77b4;"/>
   </g>
   <g id="patch_83">
    <path clip-path="url(#p79b0ce5876)" d="M 189.809101 273.312 
L 191.426871 273.312 
L 191.426871 63.948522 
L 189.809101 63.948522 
z
" style="fill:#1f77b4;"/>
   </g>
   <g id="patch_84">
    <path clip-path="url(#p79b0ce5876)" d="M 191.426871 273.312 
L 193.044642 273.312 
L 193.044642 60.275478 
L 191.426871 60.275478 
z
" style="fill:#1f77b4;"/>
   </g>
   <g id="patch_85">
    <path clip-path="url(#p79b0ce5876)" d="M 193.044642 273.312 
L 194.662412 273.312 
L 194.662412 38.971826 
L 193.044642 38.971826 
z
" style="fill:#1f77b4;"/>
   </g>
   <g id="patch_86">
    <path clip-path="url(#p79b0ce5876)" d="M 194.662412 273.312 
L 196.280182 273.312 
L 196.280182 52.194783 
L 194.662412 52.194783 
z
" style="fill:#1f77b4;"/>
   </g>
   <g id="patch_87">
    <path clip-path="url(#p79b0ce5876)" d="M 196.280182 273.312 
L 197.897952 273.312 
L 197.897952 46.317913 
L 196.280182 46.317913 
z
" style="fill:#1f77b4;"/>
   </g>
   <g id="patch_88">
    <path clip-path="url(#p79b0ce5876)" d="M 197.897952 273.312 
L 199.515723 273.312 
L 199.515723 63.948522 
L 197.897952 63.948522 
z
" style="fill:#1f77b4;"/>
   </g>
   <g id="patch_89">
    <path clip-path="url(#p79b0ce5876)" d="M 199.515723 273.312 
L 201.133493 273.312 
L 201.133493 59.54087 
L 199.515723 59.54087 
z
" style="fill:#1f77b4;"/>
   </g>
   <g id="patch_90">
    <path clip-path="url(#p79b0ce5876)" d="M 201.133493 273.312 
L 202.751263 273.312 
L 202.751263 44.848696 
L 201.133493 44.848696 
z
" style="fill:#1f77b4;"/>
   </g>
   <g id="patch_91">
    <path clip-path="url(#p79b0ce5876)" d="M 202.751263 273.312 
L 204.369034 273.312 
L 204.369034 52.194783 
L 202.751263 52.194783 
z
" style="fill:#1f77b4;"/>
   </g>
   <g id="patch_92">
    <path clip-path="url(#p79b0ce5876)" d="M 204.369034 273.312 
L 205.986804 273.312 
L 205.986804 52.929391 
L 204.369034 52.929391 
z
" style="fill:#1f77b4;"/>
   </g>
   <g id="patch_93">
    <path clip-path="url(#p79b0ce5876)" d="M 205.986804 273.312 
L 207.604574 273.312 
L 207.604574 54.398609 
L 205.986804 54.398609 
z
" style="fill:#1f77b4;"/>
   </g>
   <g id="patch_94">
    <path clip-path="url(#p79b0ce5876)" d="M 207.604574 273.312 
L 209.222344 273.312 
L 209.222344 28.687304 
L 207.604574 28.687304 
z
" style="fill:#1f77b4;"/>
   </g>
   <g id="patch_95">
    <path clip-path="url(#p79b0ce5876)" d="M 209.222344 273.312 
L 210.840115 273.312 
L 210.840115 48.521739 
L 209.222344 48.521739 
z
" style="fill:#1f77b4;"/>
   </g>
   <g id="patch_96">
    <path clip-path="url(#p79b0ce5876)" d="M 210.840115 273.312 
L 212.457885 273.312 
L 212.457885 42.64487 
L 210.840115 42.64487 
z
" style="fill:#1f77b4;"/>
   </g>
   <g id="patch_97">
    <path clip-path="url(#p79b0ce5876)" d="M 212.457885 273.312 
L 214.075655 273.312 
L 214.075655 51.460174 
L 212.457885 51.460174 
z
" style="fill:#1f77b4;"/>
   </g>
   <g id="patch_98">
    <path clip-path="url(#p79b0ce5876)" d="M 214.075655 273.312 
L 215.693426 273.312 
L 215.693426 26.483478 
L 214.075655 26.483478 
z
" style="fill:#1f77b4;"/>
   </g>
   <g id="patch_99">
    <path clip-path="url(#p79b0ce5876)" d="M 215.693426 273.312 
L 217.311196 273.312 
L 217.311196 36.768 
L 215.693426 36.768 
z
" style="fill:#1f77b4;"/>
   </g>
   <g id="patch_100">
    <path clip-path="url(#p79b0ce5876)" d="M 217.311196 273.312 
L 218.928966 273.312 
L 218.928966 36.768 
L 217.311196 36.768 
z
" style="fill:#1f77b4;"/>
   </g>
   <g id="patch_101">
    <path clip-path="url(#p79b0ce5876)" d="M 218.928966 273.312 
L 220.546736 273.312 
L 220.546736 49.990957 
L 218.928966 49.990957 
z
" style="fill:#1f77b4;"/>
   </g>
   <g id="patch_102">
    <path clip-path="url(#p79b0ce5876)" d="M 220.546736 273.312 
L 222.164507 273.312 
L 222.164507 41.175652 
L 220.546736 41.175652 
z
" style="fill:#1f77b4;"/>
   </g>
   <g id="patch_103">
    <path clip-path="url(#p79b0ce5876)" d="M 222.164507 273.312 
L 223.782277 273.312 
L 223.782277 35.298783 
L 222.164507 35.298783 
z
" style="fill:#1f77b4;"/>
   </g>
   <g id="patch_104">
    <path clip-path="url(#p79b0ce5876)" d="M 223.782277 273.312 
L 225.400047 273.312 
L 225.400047 41.910261 
L 223.782277 41.910261 
z
" style="fill:#1f77b4;"/>
   </g>
   <g id="patch_105">
    <path clip-path="url(#p79b0ce5876)" d="M 225.400047 273.312 
L 227.017817 273.312 
L 227.017817 46.317913 
L 225.400047 46.317913 
z
" style="fill:#1f77b4;"/>
   </g>
   <g id="patch_106">
    <path clip-path="url(#p79b0ce5876)" d="M 227.017817 273.312 
L 228.635588 273.312 
L 228.635588 38.971826 
L 227.017817 38.971826 
z
" style="fill:#1f77b4;"/>
   </g>
   <g id="patch_107">
    <path clip-path="url(#p79b0ce5876)" d="M 228.635588 273.312 
L 230.253358 273.312 
L 230.253358 19.872 
L 228.635588 19.872 
z
" style="fill:#1f77b4;"/>
   </g>
   <g id="patch_108">
    <path clip-path="url(#p79b0ce5876)" d="M 230.253358 273.312 
L 231.871128 273.312 
L 231.871128 50.725565 
L 230.253358 50.725565 
z
" style="fill:#1f77b4;"/>
   </g>
   <g id="patch_109">
    <path clip-path="url(#p79b0ce5876)" d="M 231.871128 273.312 
L 233.488899 273.312 
L 233.488899 49.990957 
L 231.871128 49.990957 
z
" style="fill:#1f77b4;"/>
   </g>
   <g id="patch_110">
    <path clip-path="url(#p79b0ce5876)" d="M 233.488899 273.312 
L 235.106669 273.312 
L 235.106669 33.829565 
L 233.488899 33.829565 
z
" style="fill:#1f77b4;"/>
   </g>
   <g id="patch_111">
    <path clip-path="url(#p79b0ce5876)" d="M 235.106669 273.312 
L 236.724439 273.312 
L 236.724439 32.360348 
L 235.106669 32.360348 
z
" style="fill:#1f77b4;"/>
   </g>
   <g id="patch_112">
    <path clip-path="url(#p79b0ce5876)" d="M 236.724439 273.312 
L 238.342209 273.312 
L 238.342209 64.68313 
L 236.724439 64.68313 
z
" style="fill:#1f77b4;"/>
   </g>
   <g id="patch_113">
    <path clip-path="url(#p79b0ce5876)" d="M 238.342209 273.312 
L 239.95998 273.312 
L 239.95998 34.564174 
L 238.342209 34.564174 
z
" style="fill:#1f77b4;"/>
   </g>
   <g id="patch_114">
    <path clip-path="url(#p79b0ce5876)" d="M 239.95998 273.312 
L 241.57775 273.312 
L 241.57775 32.360348 
L 239.95998 32.360348 
z
" style="fill:#1f77b4;"/>
   </g>
   <g id="patch_115">
    <path clip-path="url(#p79b0ce5876)" d="M 241.57775 273.312 
L 243.19552 273.312 
L 243.19552 53.664 
L 241.57775 53.664 
z
" style="fill:#1f77b4;"/>
   </g>
   <g id="patch_116">
    <path clip-path="url(#p79b0ce5876)" d="M 243.19552 273.312 
L 244.813291 273.312 
L 244.813291 47.052522 
L 243.19552 47.052522 
z
" style="fill:#1f77b4;"/>
   </g>
   <g id="patch_117">
    <path clip-path="url(#p79b0ce5876)" d="M 244.813291 273.312 
L 246.431061 273.312 
L 246.431061 60.275478 
L 244.813291 60.275478 
z
" style="fill:#1f77b4;"/>
   </g>
   <g id="patch_118">
    <path clip-path="url(#p79b0ce5876)" d="M 246.431061 273.312 
L 248.048831 273.312 
L 248.048831 36.033391 
L 246.431061 36.033391 
z
" style="fill:#1f77b4;"/>
   </g>
   <g id="patch_119">
    <path clip-path="url(#p79b0ce5876)" d="M 248.048831 273.312 
L 249.666601 273.312 
L 249.666601 42.64487 
L 248.048831 42.64487 
z
" style="fill:#1f77b4;"/>
   </g>
   <g id="patch_120">
    <path clip-path="url(#p79b0ce5876)" d="M 249.666601 273.312 
L 251.284372 273.312 
L 251.284372 46.317913 
L 249.666601 46.317913 
z
" style="fill:#1f77b4;"/>
   </g>
   <g id="patch_121">
    <path clip-path="url(#p79b0ce5876)" d="M 251.284372 273.312 
L 252.902142 273.312 
L 252.902142 75.702261 
L 251.284372 75.702261 
z
" style="fill:#1f77b4;"/>
   </g>
   <g id="patch_122">
    <path clip-path="url(#p79b0ce5876)" d="M 252.902142 273.312 
L 254.519912 273.312 
L 254.519912 50.725565 
L 252.902142 50.725565 
z
" style="fill:#1f77b4;"/>
   </g>
   <g id="patch_123">
    <path clip-path="url(#p79b0ce5876)" d="M 254.519912 273.312 
L 256.137683 273.312 
L 256.137683 55.867826 
L 254.519912 55.867826 
z
" style="fill:#1f77b4;"/>
   </g>
   <g id="patch_124">
    <path clip-path="url(#p79b0ce5876)" d="M 256.137683 273.312 
L 257.755453 273.312 
L 257.755453 50.725565 
L 256.137683 50.725565 
z
" style="fill:#1f77b4;"/>
   </g>
   <g id="patch_125">
    <path clip-path="url(#p79b0ce5876)" d="M 257.755453 273.312 
L 259.373223 273.312 
L 259.373223 54.398609 
L 257.755453 54.398609 
z
" style="fill:#1f77b4;"/>
   </g>
   <g id="patch_126">
    <path clip-path="url(#p79b0ce5876)" d="M 259.373223 273.312 
L 260.990993 273.312 
L 260.990993 49.990957 
L 259.373223 49.990957 
z
" style="fill:#1f77b4;"/>
   </g>
   <g id="patch_127">
    <path clip-path="url(#p79b0ce5876)" d="M 260.990993 273.312 
L 262.608764 273.312 
L 262.608764 76.43687 
L 260.990993 76.43687 
z
" style="fill:#1f77b4;"/>
   </g>
   <g id="patch_128">
    <path clip-path="url(#p79b0ce5876)" d="M 262.608764 273.312 
L 264.226534 273.312 
L 264.226534 63.213913 
L 262.608764 63.213913 
z
" style="fill:#1f77b4;"/>
   </g>
   <g id="patch_129">
    <path clip-path="url(#p79b0ce5876)" d="M 264.226534 273.312 
L 265.844304 273.312 
L 265.844304 53.664 
L 264.226534 53.664 
z
" style="fill:#1f77b4;"/>
   </g>
   <g id="patch_130">
    <path clip-path="url(#p79b0ce5876)" d="M 265.844304 273.312 
L 267.462074 273.312 
L 267.462074 60.275478 
L 265.844304 60.275478 
z
" style="fill:#1f77b4;"/>
   </g>
   <g id="patch_131">
    <path clip-path="url(#p79b0ce5876)" d="M 267.462074 273.312 
L 269.079845 273.312 
L 269.079845 81.57913 
L 267.462074 81.57913 
z
" style="fill:#1f77b4;"/>
   </g>
   <g id="patch_132">
    <path clip-path="url(#p79b0ce5876)" d="M 269.079845 273.312 
L 270.697615 273.312 
L 270.697615 61.010087 
L 269.079845 61.010087 
z
" style="fill:#1f77b4;"/>
   </g>
   <g id="patch_133">
    <path clip-path="url(#p79b0ce5876)" d="M 270.697615 273.312 
L 272.315385 273.312 
L 272.315385 58.071652 
L 270.697615 58.071652 
z
" style="fill:#1f77b4;"/>
   </g>
   <g id="patch_134">
    <path clip-path="url(#p79b0ce5876)" d="M 272.315385 273.312 
L 273.933156 273.312 
L 273.933156 72.029217 
L 272.315385 72.029217 
z
" style="fill:#1f77b4;"/>
   </g>
   <g id="patch_135">
    <path clip-path="url(#p79b0ce5876)" d="M 273.933156 273.312 
L 275.550926 273.312 
L 275.550926 76.43687 
L 273.933156 76.43687 
z
" style="fill:#1f77b4;"/>
   </g>
   <g id="patch_136">
    <path clip-path="url(#p79b0ce5876)" d="M 275.550926 273.312 
L 277.168696 273.312 
L 277.168696 61.010087 
L 275.550926 61.010087 
z
" style="fill:#1f77b4;"/>
   </g>
   <g id="patch_137">
    <path clip-path="url(#p79b0ce5876)" d="M 277.168696 273.312 
L 278.786466 273.312 
L 278.786466 108.025043 
L 277.168696 108.025043 
z
" style="fill:#1f77b4;"/>
   </g>
   <g id="patch_138">
    <path clip-path="url(#p79b0ce5876)" d="M 278.786466 273.312 
L 280.404237 273.312 
L 280.404237 73.498435 
L 278.786466 73.498435 
z
" style="fill:#1f77b4;"/>
   </g>
   <g id="patch_139">
    <path clip-path="url(#p79b0ce5876)" d="M 280.404237 273.312 
L 282.022007 273.312 
L 282.022007 64.68313 
L 280.404237 64.68313 
z
" style="fill:#1f77b4;"/>
   </g>
   <g id="patch_140">
    <path clip-path="url(#p79b0ce5876)" d="M 282.022007 273.312 
L 283.639777 273.312 
L 283.639777 72.763826 
L 282.022007 72.763826 
z
" style="fill:#1f77b4;"/>
   </g>
   <g id="patch_141">
    <path clip-path="url(#p79b0ce5876)" d="M 283.639777 273.312 
L 285.257548 273.312 
L 285.257548 86.721391 
L 283.639777 86.721391 
z
" style="fill:#1f77b4;"/>
   </g>
   <g id="patch_142">
    <path clip-path="url(#p79b0ce5876)" d="M 285.257548 273.312 
L 286.875318 273.312 
L 286.875318 91.863652 
L 285.257548 91.863652 
z
" style="fill:#1f77b4;"/>
   </g>
   <g id="patch_143">
    <path clip-path="url(#p79b0ce5876)" d="M 286.875318 273.312 
L 288.493088 273.312 
L 288.493088 47.052522 
L 286.875318 47.052522 
z
" style="fill:#1f77b4;"/>
   </g>
   <g id="patch_144">
    <path clip-path="url(#p79b0ce5876)" d="M 288.493088 273.312 
L 290.110858 273.312 
L 290.110858 92.598261 
L 288.493088 92.598261 
z
" style="fill:#1f77b4;"/>
   </g>
   <g id="patch_145">
    <path clip-path="url(#p79b0ce5876)" d="M 290.110858 273.312 
L 291.728629 273.312 
L 291.728629 72.029217 
L 290.110858 72.029217 
z
" style="fill:#1f77b4;"/>
   </g>
   <g id="patch_146">
    <path clip-path="url(#p79b0ce5876)" d="M 291.728629 273.312 
L 293.346399 273.312 
L 293.346399 106.555826 
L 291.728629 106.555826 
z
" style="fill:#1f77b4;"/>
   </g>
   <g id="patch_147">
    <path clip-path="url(#p79b0ce5876)" d="M 293.346399 273.312 
L 294.964169 273.312 
L 294.964169 90.394435 
L 293.346399 90.394435 
z
" style="fill:#1f77b4;"/>
   </g>
   <g id="patch_148">
    <path clip-path="url(#p79b0ce5876)" d="M 294.964169 273.312 
L 296.58194 273.312 
L 296.58194 96.271304 
L 294.964169 96.271304 
z
" style="fill:#1f77b4;"/>
   </g>
   <g id="patch_149">
    <path clip-path="url(#p79b0ce5876)" d="M 296.58194 273.312 
L 298.19971 273.312 
L 298.19971 93.33287 
L 296.58194 93.33287 
z
" style="fill:#1f77b4;"/>
   </g>
   <g id="patch_150">
    <path clip-path="url(#p79b0ce5876)" d="M 298.19971 273.312 
L 299.81748 273.312 
L 299.81748 91.863652 
L 298.19971 91.863652 
z
" style="fill:#1f77b4;"/>
   </g>
   <g id="patch_151">
    <path clip-path="url(#p79b0ce5876)" d="M 299.81748 273.312 
L 301.43525 273.312 
L 301.43525 100.678957 
L 299.81748 100.678957 
z
" style="fill:#1f77b4;"/>
   </g>
   <g id="patch_152">
    <path clip-path="url(#p79b0ce5876)" d="M 301.43525 273.312 
L 303.053021 273.312 
L 303.053021 106.555826 
L 301.43525 106.555826 
z
" style="fill:#1f77b4;"/>
   </g>
   <g id="patch_153">
    <path clip-path="url(#p79b0ce5876)" d="M 303.053021 273.312 
L 304.670791 273.312 
L 304.670791 145.490087 
L 303.053021 145.490087 
z
" style="fill:#1f77b4;"/>
   </g>
   <g id="patch_154">
    <path clip-path="url(#p79b0ce5876)" d="M 304.670791 273.312 
L 306.288561 273.312 
L 306.288561 121.248 
L 304.670791 121.248 
z
" style="fill:#1f77b4;"/>
   </g>
   <g id="patch_155">
    <path clip-path="url(#p79b0ce5876)" d="M 306.288561 273.312 
L 307.906331 273.312 
L 307.906331 113.901913 
L 306.288561 113.901913 
z
" style="fill:#1f77b4;"/>
   </g>
   <g id="patch_156">
    <path clip-path="url(#p79b0ce5876)" d="M 307.906331 273.312 
L 309.524102 273.312 
L 309.524102 112.432696 
L 307.906331 112.432696 
z
" style="fill:#1f77b4;"/>
   </g>
   <g id="patch_157">
    <path clip-path="url(#p79b0ce5876)" d="M 309.524102 273.312 
L 311.141872 273.312 
L 311.141872 127.859478 
L 309.524102 127.859478 
z
" style="fill:#1f77b4;"/>
   </g>
   <g id="patch_158">
    <path clip-path="url(#p79b0ce5876)" d="M 311.141872 273.312 
L 312.759642 273.312 
L 312.759642 118.309565 
L 311.141872 118.309565 
z
" style="fill:#1f77b4;"/>
   </g>
   <g id="patch_159">
    <path clip-path="url(#p79b0ce5876)" d="M 312.759642 273.312 
L 314.377413 273.312 
L 314.377413 129.328696 
L 312.759642 129.328696 
z
" style="fill:#1f77b4;"/>
   </g>
   <g id="patch_160">
    <path clip-path="url(#p79b0ce5876)" d="M 314.377413 273.312 
L 315.995183 273.312 
L 315.995183 121.982609 
L 314.377413 121.982609 
z
" style="fill:#1f77b4;"/>
   </g>
   <g id="patch_161">
    <path clip-path="url(#p79b0ce5876)" d="M 315.995183 273.312 
L 317.612953 273.312 
L 317.612953 138.144 
L 315.995183 138.144 
z
" style="fill:#1f77b4;"/>
   </g>
   <g id="patch_162">
    <path clip-path="url(#p79b0ce5876)" d="M 317.612953 273.312 
L 319.230723 273.312 
L 319.230723 123.451826 
L 317.612953 123.451826 
z
" style="fill:#1f77b4;"/>
   </g>
   <g id="patch_163">
    <path clip-path="url(#p79b0ce5876)" d="M 319.230723 273.312 
L 320.848494 273.312 
L 320.848494 152.836174 
L 319.230723 152.836174 
z
" style="fill:#1f77b4;"/>
   </g>
   <g id="patch_164">
    <path clip-path="url(#p79b0ce5876)" d="M 320.848494 273.312 
L 322.466264 273.312 
L 322.466264 151.366957 
L 320.848494 151.366957 
z
" style="fill:#1f77b4;"/>
   </g>
   <g id="patch_165">
    <path clip-path="url(#p79b0ce5876)" d="M 322.466264 273.312 
L 324.084034 273.312 
L 324.084034 153.570783 
L 322.466264 153.570783 
z
" style="fill:#1f77b4;"/>
   </g>
   <g id="patch_166">
    <path clip-path="url(#p79b0ce5876)" d="M 324.084034 273.312 
L 325.701805 273.312 
L 325.701805 150.632348 
L 324.084034 150.632348 
z
" style="fill:#1f77b4;"/>
   </g>
   <g id="patch_167">
    <path clip-path="url(#p79b0ce5876)" d="M 325.701805 273.312 
L 327.319575 273.312 
L 327.319575 149.16313 
L 325.701805 149.16313 
z
" style="fill:#1f77b4;"/>
   </g>
   <g id="patch_168">
    <path clip-path="url(#p79b0ce5876)" d="M 327.319575 273.312 
L 328.937345 273.312 
L 328.937345 141.082435 
L 327.319575 141.082435 
z
" style="fill:#1f77b4;"/>
   </g>
   <g id="patch_169">
    <path clip-path="url(#p79b0ce5876)" d="M 328.937345 273.312 
L 330.555115 273.312 
L 330.555115 162.386087 
L 328.937345 162.386087 
z
" style="fill:#1f77b4;"/>
   </g>
   <g id="patch_170">
    <path clip-path="url(#p79b0ce5876)" d="M 330.555115 273.312 
L 332.172886 273.312 
L 332.172886 163.120696 
L 330.555115 163.120696 
z
" style="fill:#1f77b4;"/>
   </g>
   <g id="patch_171">
    <path clip-path="url(#p79b0ce5876)" d="M 332.172886 273.312 
L 333.790656 273.312 
L 333.790656 144.755478 
L 332.172886 144.755478 
z
" style="fill:#1f77b4;"/>
   </g>
   <g id="patch_172">
    <path clip-path="url(#p79b0ce5876)" d="M 333.790656 273.312 
L 335.408426 273.312 
L 335.408426 178.547478 
L 333.790656 178.547478 
z
" style="fill:#1f77b4;"/>
   </g>
   <g id="patch_173">
    <path clip-path="url(#p79b0ce5876)" d="M 335.408426 273.312 
L 337.026197 273.312 
L 337.026197 164.589913 
L 335.408426 164.589913 
z
" style="fill:#1f77b4;"/>
   </g>
   <g id="patch_174">
    <path clip-path="url(#p79b0ce5876)" d="M 337.026197 273.312 
L 338.643967 273.312 
L 338.643967 180.751304 
L 337.026197 180.751304 
z
" style="fill:#1f77b4;"/>
   </g>
   <g id="patch_175">
    <path clip-path="url(#p79b0ce5876)" d="M 338.643967 273.312 
L 340.261737 273.312 
L 340.261737 185.893565 
L 338.643967 185.893565 
z
" style="fill:#1f77b4;"/>
   </g>
   <g id="patch_176">
    <path clip-path="url(#p79b0ce5876)" d="M 340.261737 273.312 
L 341.879507 273.312 
L 341.879507 185.158957 
L 340.261737 185.158957 
z
" style="fill:#1f77b4;"/>
   </g>
   <g id="patch_177">
    <path clip-path="url(#p79b0ce5876)" d="M 341.879507 273.312 
L 343.497278 273.312 
L 343.497278 189.566609 
L 341.879507 189.566609 
z
" style="fill:#1f77b4;"/>
   </g>
   <g id="patch_178">
    <path clip-path="url(#p79b0ce5876)" d="M 343.497278 273.312 
L 345.115048 273.312 
L 345.115048 175.609043 
L 343.497278 175.609043 
z
" style="fill:#1f77b4;"/>
   </g>
   <g id="patch_179">
    <path clip-path="url(#p79b0ce5876)" d="M 345.115048 273.312 
L 346.732818 273.312 
L 346.732818 186.628174 
L 345.115048 186.628174 
z
" style="fill:#1f77b4;"/>
   </g>
   <g id="patch_180">
    <path clip-path="url(#p79b0ce5876)" d="M 346.732818 273.312 
L 348.350588 273.312 
L 348.350588 197.647304 
L 346.732818 197.647304 
z
" style="fill:#1f77b4;"/>
   </g>
   <g id="patch_181">
    <path clip-path="url(#p79b0ce5876)" d="M 348.350588 273.312 
L 349.968359 273.312 
L 349.968359 192.505043 
L 348.350588 192.505043 
z
" style="fill:#1f77b4;"/>
   </g>
   <g id="patch_182">
    <path clip-path="url(#p79b0ce5876)" d="M 349.968359 273.312 
L 351.586129 273.312 
L 351.586129 203.524174 
L 349.968359 203.524174 
z
" style="fill:#1f77b4;"/>
   </g>
   <g id="patch_183">
    <path clip-path="url(#p79b0ce5876)" d="M 351.586129 273.312 
L 353.203899 273.312 
L 353.203899 204.258783 
L 351.586129 204.258783 
z
" style="fill:#1f77b4;"/>
   </g>
   <g id="patch_184">
    <path clip-path="url(#p79b0ce5876)" d="M 353.203899 273.312 
L 354.82167 273.312 
L 354.82167 215.277913 
L 353.203899 215.277913 
z
" style="fill:#1f77b4;"/>
   </g>
   <g id="patch_185">
    <path clip-path="url(#p79b0ce5876)" d="M 354.82167 273.312 
L 356.43944 273.312 
L 356.43944 207.197217 
L 354.82167 207.197217 
z
" style="fill:#1f77b4;"/>
   </g>
   <g id="patch_186">
    <path clip-path="url(#p79b0ce5876)" d="M 356.43944 273.312 
L 358.05721 273.312 
L 358.05721 216.012522 
L 356.43944 216.012522 
z
" style="fill:#1f77b4;"/>
   </g>
   <g id="patch_187">
    <path clip-path="url(#p79b0ce5876)" d="M 358.05721 273.312 
L 359.67498 273.312 
L 359.67498 218.950957 
L 358.05721 218.950957 
z
" style="fill:#1f77b4;"/>
   </g>
   <g id="patch_188">
    <path clip-path="url(#p79b0ce5876)" d="M 359.67498 273.312 
L 361.292751 273.312 
L 361.292751 221.889391 
L 359.67498 221.889391 
z
" style="fill:#1f77b4;"/>
   </g>
   <g id="patch_189">
    <path clip-path="url(#p79b0ce5876)" d="M 361.292751 273.312 
L 362.910521 273.312 
L 362.910521 232.908522 
L 361.292751 232.908522 
z
" style="fill:#1f77b4;"/>
   </g>
   <g id="patch_190">
    <path clip-path="url(#p79b0ce5876)" d="M 362.910521 273.312 
L 364.528291 273.312 
L 364.528291 233.64313 
L 362.910521 233.64313 
z
" style="fill:#1f77b4;"/>
   </g>
   <g id="patch_191">
    <path clip-path="url(#p79b0ce5876)" d="M 364.528291 273.312 
L 366.146062 273.312 
L 366.146062 238.050783 
L 364.528291 238.050783 
z
" style="fill:#1f77b4;"/>
   </g>
   <g id="patch_192">
    <path clip-path="url(#p79b0ce5876)" d="M 366.146062 273.312 
L 367.763832 273.312 
L 367.763832 232.908522 
L 366.146062 232.908522 
z
" style="fill:#1f77b4;"/>
   </g>
   <g id="patch_193">
    <path clip-path="url(#p79b0ce5876)" d="M 367.763832 273.312 
L 369.381602 273.312 
L 369.381602 233.64313 
L 367.763832 233.64313 
z
" style="fill:#1f77b4;"/>
   </g>
   <g id="patch_194">
    <path clip-path="url(#p79b0ce5876)" d="M 369.381602 273.312 
L 370.999372 273.312 
L 370.999372 241.723826 
L 369.381602 241.723826 
z
" style="fill:#1f77b4;"/>
   </g>
   <g id="patch_195">
    <path clip-path="url(#p79b0ce5876)" d="M 370.999372 273.312 
L 372.617143 273.312 
L 372.617143 249.069913 
L 370.999372 249.069913 
z
" style="fill:#1f77b4;"/>
   </g>
   <g id="patch_196">
    <path clip-path="url(#p79b0ce5876)" d="M 372.617143 273.312 
L 374.234913 273.312 
L 374.234913 249.069913 
L 372.617143 249.069913 
z
" style="fill:#1f77b4;"/>
   </g>
   <g id="patch_197">
    <path clip-path="url(#p79b0ce5876)" d="M 374.234913 273.312 
L 375.852683 273.312 
L 375.852683 244.662261 
L 374.234913 244.662261 
z
" style="fill:#1f77b4;"/>
   </g>
   <g id="patch_198">
    <path clip-path="url(#p79b0ce5876)" d="M 375.852683 273.312 
L 377.470454 273.312 
L 377.470454 250.53913 
L 375.852683 250.53913 
z
" style="fill:#1f77b4;"/>
   </g>
   <g id="patch_199">
    <path clip-path="url(#p79b0ce5876)" d="M 377.470454 273.312 
L 379.088224 273.312 
L 379.088224 260.823652 
L 377.470454 260.823652 
z
" style="fill:#1f77b4;"/>
   </g>
   <g id="patch_200">
    <path clip-path="url(#p79b0ce5876)" d="M 379.088224 273.312 
L 380.705994 273.312 
L 380.705994 263.762087 
L 379.088224 263.762087 
z
" style="fill:#1f77b4;"/>
   </g>
   <g id="patch_201">
    <path clip-path="url(#p79b0ce5876)" d="M 380.705994 273.312 
L 382.323764 273.312 
L 382.323764 265.231304 
L 380.705994 265.231304 
z
" style="fill:#1f77b4;"/>
   </g>
   <g id="patch_202">
    <path clip-path="url(#p79b0ce5876)" d="M 382.323764 273.312 
L 383.941535 273.312 
L 383.941535 271.108174 
L 382.323764 271.108174 
z
" style="fill:#1f77b4;"/>
   </g>
   <g id="matplotlib.axis_1">
    <g id="xtick_1">
     <g id="line2d_1">
      <defs>
       <path d="M 0 0 
L 0 3.5 
" id="m566c1ccd13" style="stroke:#000000;stroke-width:0.8;"/>
      </defs>
      <g>
       <use style="stroke:#000000;stroke-width:0.8;" x="60.013977" xlink:href="#m566c1ccd13" y="273.312"/>
      </g>
     </g>
     <g id="text_1">
      <!-- 0.0 -->
      <g transform="translate(52.062415 287.910437)scale(0.1 -0.1)">
       <defs>
        <path d="M 2034 4250 
Q 1547 4250 1301 3770 
Q 1056 3291 1056 2328 
Q 1056 1369 1301 889 
Q 1547 409 2034 409 
Q 2525 409 2770 889 
Q 3016 1369 3016 2328 
Q 3016 3291 2770 3770 
Q 2525 4250 2034 4250 
z
M 2034 4750 
Q 2819 4750 3233 4129 
Q 3647 3509 3647 2328 
Q 3647 1150 3233 529 
Q 2819 -91 2034 -91 
Q 1250 -91 836 529 
Q 422 1150 422 2328 
Q 422 3509 836 4129 
Q 1250 4750 2034 4750 
z
" id="DejaVuSans-30" transform="scale(0.015625)"/>
        <path d="M 684 794 
L 1344 794 
L 1344 0 
L 684 0 
L 684 794 
z
" id="DejaVuSans-2e" transform="scale(0.015625)"/>
       </defs>
       <use xlink:href="#DejaVuSans-30"/>
       <use x="63.623047" xlink:href="#DejaVuSans-2e"/>
       <use x="95.410156" xlink:href="#DejaVuSans-30"/>
      </g>
     </g>
    </g>
    <g id="xtick_2">
     <g id="line2d_2">
      <g>
       <use style="stroke:#000000;stroke-width:0.8;" x="101.350278" xlink:href="#m566c1ccd13" y="273.312"/>
      </g>
     </g>
     <g id="text_2">
      <!-- 0.2 -->
      <g transform="translate(93.398715 287.910437)scale(0.1 -0.1)">
       <defs>
        <path d="M 1228 531 
L 3431 531 
L 3431 0 
L 469 0 
L 469 531 
Q 828 903 1448 1529 
Q 2069 2156 2228 2338 
Q 2531 2678 2651 2914 
Q 2772 3150 2772 3378 
Q 2772 3750 2511 3984 
Q 2250 4219 1831 4219 
Q 1534 4219 1204 4116 
Q 875 4013 500 3803 
L 500 4441 
Q 881 4594 1212 4672 
Q 1544 4750 1819 4750 
Q 2544 4750 2975 4387 
Q 3406 4025 3406 3419 
Q 3406 3131 3298 2873 
Q 3191 2616 2906 2266 
Q 2828 2175 2409 1742 
Q 1991 1309 1228 531 
z
" id="DejaVuSans-32" transform="scale(0.015625)"/>
       </defs>
       <use xlink:href="#DejaVuSans-30"/>
       <use x="63.623047" xlink:href="#DejaVuSans-2e"/>
       <use x="95.410156" xlink:href="#DejaVuSans-32"/>
      </g>
     </g>
    </g>
    <g id="xtick_3">
     <g id="line2d_3">
      <g>
       <use style="stroke:#000000;stroke-width:0.8;" x="142.686578" xlink:href="#m566c1ccd13" y="273.312"/>
      </g>
     </g>
     <g id="text_3">
      <!-- 0.4 -->
      <g transform="translate(134.735016 287.910437)scale(0.1 -0.1)">
       <defs>
        <path d="M 2419 4116 
L 825 1625 
L 2419 1625 
L 2419 4116 
z
M 2253 4666 
L 3047 4666 
L 3047 1625 
L 3713 1625 
L 3713 1100 
L 3047 1100 
L 3047 0 
L 2419 0 
L 2419 1100 
L 313 1100 
L 313 1709 
L 2253 4666 
z
" id="DejaVuSans-34" transform="scale(0.015625)"/>
       </defs>
       <use xlink:href="#DejaVuSans-30"/>
       <use x="63.623047" xlink:href="#DejaVuSans-2e"/>
       <use x="95.410156" xlink:href="#DejaVuSans-34"/>
      </g>
     </g>
    </g>
    <g id="xtick_4">
     <g id="line2d_4">
      <g>
       <use style="stroke:#000000;stroke-width:0.8;" x="184.022879" xlink:href="#m566c1ccd13" y="273.312"/>
      </g>
     </g>
     <g id="text_4">
      <!-- 0.6 -->
      <g transform="translate(176.071316 287.910437)scale(0.1 -0.1)">
       <defs>
        <path d="M 2113 2584 
Q 1688 2584 1439 2293 
Q 1191 2003 1191 1497 
Q 1191 994 1439 701 
Q 1688 409 2113 409 
Q 2538 409 2786 701 
Q 3034 994 3034 1497 
Q 3034 2003 2786 2293 
Q 2538 2584 2113 2584 
z
M 3366 4563 
L 3366 3988 
Q 3128 4100 2886 4159 
Q 2644 4219 2406 4219 
Q 1781 4219 1451 3797 
Q 1122 3375 1075 2522 
Q 1259 2794 1537 2939 
Q 1816 3084 2150 3084 
Q 2853 3084 3261 2657 
Q 3669 2231 3669 1497 
Q 3669 778 3244 343 
Q 2819 -91 2113 -91 
Q 1303 -91 875 529 
Q 447 1150 447 2328 
Q 447 3434 972 4092 
Q 1497 4750 2381 4750 
Q 2619 4750 2861 4703 
Q 3103 4656 3366 4563 
z
" id="DejaVuSans-36" transform="scale(0.015625)"/>
       </defs>
       <use xlink:href="#DejaVuSans-30"/>
       <use x="63.623047" xlink:href="#DejaVuSans-2e"/>
       <use x="95.410156" xlink:href="#DejaVuSans-36"/>
      </g>
     </g>
    </g>
    <g id="xtick_5">
     <g id="line2d_5">
      <g>
       <use style="stroke:#000000;stroke-width:0.8;" x="225.35918" xlink:href="#m566c1ccd13" y="273.312"/>
      </g>
     </g>
     <g id="text_5">
      <!-- 0.8 -->
      <g transform="translate(217.407617 287.910437)scale(0.1 -0.1)">
       <defs>
        <path d="M 2034 2216 
Q 1584 2216 1326 1975 
Q 1069 1734 1069 1313 
Q 1069 891 1326 650 
Q 1584 409 2034 409 
Q 2484 409 2743 651 
Q 3003 894 3003 1313 
Q 3003 1734 2745 1975 
Q 2488 2216 2034 2216 
z
M 1403 2484 
Q 997 2584 770 2862 
Q 544 3141 544 3541 
Q 544 4100 942 4425 
Q 1341 4750 2034 4750 
Q 2731 4750 3128 4425 
Q 3525 4100 3525 3541 
Q 3525 3141 3298 2862 
Q 3072 2584 2669 2484 
Q 3125 2378 3379 2068 
Q 3634 1759 3634 1313 
Q 3634 634 3220 271 
Q 2806 -91 2034 -91 
Q 1263 -91 848 271 
Q 434 634 434 1313 
Q 434 1759 690 2068 
Q 947 2378 1403 2484 
z
M 1172 3481 
Q 1172 3119 1398 2916 
Q 1625 2713 2034 2713 
Q 2441 2713 2670 2916 
Q 2900 3119 2900 3481 
Q 2900 3844 2670 4047 
Q 2441 4250 2034 4250 
Q 1625 4250 1398 4047 
Q 1172 3844 1172 3481 
z
" id="DejaVuSans-38" transform="scale(0.015625)"/>
       </defs>
       <use xlink:href="#DejaVuSans-30"/>
       <use x="63.623047" xlink:href="#DejaVuSans-2e"/>
       <use x="95.410156" xlink:href="#DejaVuSans-38"/>
      </g>
     </g>
    </g>
    <g id="xtick_6">
     <g id="line2d_6">
      <g>
       <use style="stroke:#000000;stroke-width:0.8;" x="266.69548" xlink:href="#m566c1ccd13" y="273.312"/>
      </g>
     </g>
     <g id="text_6">
      <!-- 1.0 -->
      <g transform="translate(258.743918 287.910437)scale(0.1 -0.1)">
       <defs>
        <path d="M 794 531 
L 1825 531 
L 1825 4091 
L 703 3866 
L 703 4441 
L 1819 4666 
L 2450 4666 
L 2450 531 
L 3481 531 
L 3481 0 
L 794 0 
L 794 531 
z
" id="DejaVuSans-31" transform="scale(0.015625)"/>
       </defs>
       <use xlink:href="#DejaVuSans-31"/>
       <use x="63.623047" xlink:href="#DejaVuSans-2e"/>
       <use x="95.410156" xlink:href="#DejaVuSans-30"/>
      </g>
     </g>
    </g>
    <g id="xtick_7">
     <g id="line2d_7">
      <g>
       <use style="stroke:#000000;stroke-width:0.8;" x="308.031781" xlink:href="#m566c1ccd13" y="273.312"/>
      </g>
     </g>
     <g id="text_7">
      <!-- 1.2 -->
      <g transform="translate(300.080218 287.910437)scale(0.1 -0.1)">
       <use xlink:href="#DejaVuSans-31"/>
       <use x="63.623047" xlink:href="#DejaVuSans-2e"/>
       <use x="95.410156" xlink:href="#DejaVuSans-32"/>
      </g>
     </g>
    </g>
    <g id="xtick_8">
     <g id="line2d_8">
      <g>
       <use style="stroke:#000000;stroke-width:0.8;" x="349.368081" xlink:href="#m566c1ccd13" y="273.312"/>
      </g>
     </g>
     <g id="text_8">
      <!-- 1.4 -->
      <g transform="translate(341.416519 287.910437)scale(0.1 -0.1)">
       <use xlink:href="#DejaVuSans-31"/>
       <use x="63.623047" xlink:href="#DejaVuSans-2e"/>
       <use x="95.410156" xlink:href="#DejaVuSans-34"/>
      </g>
     </g>
    </g>
    <g id="xtick_9">
     <g id="line2d_9">
      <g>
       <use style="stroke:#000000;stroke-width:0.8;" x="390.704382" xlink:href="#m566c1ccd13" y="273.312"/>
      </g>
     </g>
     <g id="text_9">
      <!-- 1.6 -->
      <g transform="translate(382.752819 287.910437)scale(0.1 -0.1)">
       <use xlink:href="#DejaVuSans-31"/>
       <use x="63.623047" xlink:href="#DejaVuSans-2e"/>
       <use x="95.410156" xlink:href="#DejaVuSans-36"/>
      </g>
     </g>
    </g>
    <g id="text_10">
     <!-- Angle with normal (rad) -->
     <g transform="translate(163.023281 301.588562)scale(0.1 -0.1)">
      <defs>
       <path d="M 2188 4044 
L 1331 1722 
L 3047 1722 
L 2188 4044 
z
M 1831 4666 
L 2547 4666 
L 4325 0 
L 3669 0 
L 3244 1197 
L 1141 1197 
L 716 0 
L 50 0 
L 1831 4666 
z
" id="DejaVuSans-41" transform="scale(0.015625)"/>
       <path d="M 3513 2113 
L 3513 0 
L 2938 0 
L 2938 2094 
Q 2938 2591 2744 2837 
Q 2550 3084 2163 3084 
Q 1697 3084 1428 2787 
Q 1159 2491 1159 1978 
L 1159 0 
L 581 0 
L 581 3500 
L 1159 3500 
L 1159 2956 
Q 1366 3272 1645 3428 
Q 1925 3584 2291 3584 
Q 2894 3584 3203 3211 
Q 3513 2838 3513 2113 
z
" id="DejaVuSans-6e" transform="scale(0.015625)"/>
       <path d="M 2906 1791 
Q 2906 2416 2648 2759 
Q 2391 3103 1925 3103 
Q 1463 3103 1205 2759 
Q 947 2416 947 1791 
Q 947 1169 1205 825 
Q 1463 481 1925 481 
Q 2391 481 2648 825 
Q 2906 1169 2906 1791 
z
M 3481 434 
Q 3481 -459 3084 -895 
Q 2688 -1331 1869 -1331 
Q 1566 -1331 1297 -1286 
Q 1028 -1241 775 -1147 
L 775 -588 
Q 1028 -725 1275 -790 
Q 1522 -856 1778 -856 
Q 2344 -856 2625 -561 
Q 2906 -266 2906 331 
L 2906 616 
Q 2728 306 2450 153 
Q 2172 0 1784 0 
Q 1141 0 747 490 
Q 353 981 353 1791 
Q 353 2603 747 3093 
Q 1141 3584 1784 3584 
Q 2172 3584 2450 3431 
Q 2728 3278 2906 2969 
L 2906 3500 
L 3481 3500 
L 3481 434 
z
" id="DejaVuSans-67" transform="scale(0.015625)"/>
       <path d="M 603 4863 
L 1178 4863 
L 1178 0 
L 603 0 
L 603 4863 
z
" id="DejaVuSans-6c" transform="scale(0.015625)"/>
       <path d="M 3597 1894 
L 3597 1613 
L 953 1613 
Q 991 1019 1311 708 
Q 1631 397 2203 397 
Q 2534 397 2845 478 
Q 3156 559 3463 722 
L 3463 178 
Q 3153 47 2828 -22 
Q 2503 -91 2169 -91 
Q 1331 -91 842 396 
Q 353 884 353 1716 
Q 353 2575 817 3079 
Q 1281 3584 2069 3584 
Q 2775 3584 3186 3129 
Q 3597 2675 3597 1894 
z
M 3022 2063 
Q 3016 2534 2758 2815 
Q 2500 3097 2075 3097 
Q 1594 3097 1305 2825 
Q 1016 2553 972 2059 
L 3022 2063 
z
" id="DejaVuSans-65" transform="scale(0.015625)"/>
       <path id="DejaVuSans-20" transform="scale(0.015625)"/>
       <path d="M 269 3500 
L 844 3500 
L 1563 769 
L 2278 3500 
L 2956 3500 
L 3675 769 
L 4391 3500 
L 4966 3500 
L 4050 0 
L 3372 0 
L 2619 2869 
L 1863 0 
L 1184 0 
L 269 3500 
z
" id="DejaVuSans-77" transform="scale(0.015625)"/>
       <path d="M 603 3500 
L 1178 3500 
L 1178 0 
L 603 0 
L 603 3500 
z
M 603 4863 
L 1178 4863 
L 1178 4134 
L 603 4134 
L 603 4863 
z
" id="DejaVuSans-69" transform="scale(0.015625)"/>
       <path d="M 1172 4494 
L 1172 3500 
L 2356 3500 
L 2356 3053 
L 1172 3053 
L 1172 1153 
Q 1172 725 1289 603 
Q 1406 481 1766 481 
L 2356 481 
L 2356 0 
L 1766 0 
Q 1100 0 847 248 
Q 594 497 594 1153 
L 594 3053 
L 172 3053 
L 172 3500 
L 594 3500 
L 594 4494 
L 1172 4494 
z
" id="DejaVuSans-74" transform="scale(0.015625)"/>
       <path d="M 3513 2113 
L 3513 0 
L 2938 0 
L 2938 2094 
Q 2938 2591 2744 2837 
Q 2550 3084 2163 3084 
Q 1697 3084 1428 2787 
Q 1159 2491 1159 1978 
L 1159 0 
L 581 0 
L 581 4863 
L 1159 4863 
L 1159 2956 
Q 1366 3272 1645 3428 
Q 1925 3584 2291 3584 
Q 2894 3584 3203 3211 
Q 3513 2838 3513 2113 
z
" id="DejaVuSans-68" transform="scale(0.015625)"/>
       <path d="M 1959 3097 
Q 1497 3097 1228 2736 
Q 959 2375 959 1747 
Q 959 1119 1226 758 
Q 1494 397 1959 397 
Q 2419 397 2687 759 
Q 2956 1122 2956 1747 
Q 2956 2369 2687 2733 
Q 2419 3097 1959 3097 
z
M 1959 3584 
Q 2709 3584 3137 3096 
Q 3566 2609 3566 1747 
Q 3566 888 3137 398 
Q 2709 -91 1959 -91 
Q 1206 -91 779 398 
Q 353 888 353 1747 
Q 353 2609 779 3096 
Q 1206 3584 1959 3584 
z
" id="DejaVuSans-6f" transform="scale(0.015625)"/>
       <path d="M 2631 2963 
Q 2534 3019 2420 3045 
Q 2306 3072 2169 3072 
Q 1681 3072 1420 2755 
Q 1159 2438 1159 1844 
L 1159 0 
L 581 0 
L 581 3500 
L 1159 3500 
L 1159 2956 
Q 1341 3275 1631 3429 
Q 1922 3584 2338 3584 
Q 2397 3584 2469 3576 
Q 2541 3569 2628 3553 
L 2631 2963 
z
" id="DejaVuSans-72" transform="scale(0.015625)"/>
       <path d="M 3328 2828 
Q 3544 3216 3844 3400 
Q 4144 3584 4550 3584 
Q 5097 3584 5394 3201 
Q 5691 2819 5691 2113 
L 5691 0 
L 5113 0 
L 5113 2094 
Q 5113 2597 4934 2840 
Q 4756 3084 4391 3084 
Q 3944 3084 3684 2787 
Q 3425 2491 3425 1978 
L 3425 0 
L 2847 0 
L 2847 2094 
Q 2847 2600 2669 2842 
Q 2491 3084 2119 3084 
Q 1678 3084 1418 2786 
Q 1159 2488 1159 1978 
L 1159 0 
L 581 0 
L 581 3500 
L 1159 3500 
L 1159 2956 
Q 1356 3278 1631 3431 
Q 1906 3584 2284 3584 
Q 2666 3584 2933 3390 
Q 3200 3197 3328 2828 
z
" id="DejaVuSans-6d" transform="scale(0.015625)"/>
       <path d="M 2194 1759 
Q 1497 1759 1228 1600 
Q 959 1441 959 1056 
Q 959 750 1161 570 
Q 1363 391 1709 391 
Q 2188 391 2477 730 
Q 2766 1069 2766 1631 
L 2766 1759 
L 2194 1759 
z
M 3341 1997 
L 3341 0 
L 2766 0 
L 2766 531 
Q 2569 213 2275 61 
Q 1981 -91 1556 -91 
Q 1019 -91 701 211 
Q 384 513 384 1019 
Q 384 1609 779 1909 
Q 1175 2209 1959 2209 
L 2766 2209 
L 2766 2266 
Q 2766 2663 2505 2880 
Q 2244 3097 1772 3097 
Q 1472 3097 1187 3025 
Q 903 2953 641 2809 
L 641 3341 
Q 956 3463 1253 3523 
Q 1550 3584 1831 3584 
Q 2591 3584 2966 3190 
Q 3341 2797 3341 1997 
z
" id="DejaVuSans-61" transform="scale(0.015625)"/>
       <path d="M 1984 4856 
Q 1566 4138 1362 3434 
Q 1159 2731 1159 2009 
Q 1159 1288 1364 580 
Q 1569 -128 1984 -844 
L 1484 -844 
Q 1016 -109 783 600 
Q 550 1309 550 2009 
Q 550 2706 781 3412 
Q 1013 4119 1484 4856 
L 1984 4856 
z
" id="DejaVuSans-28" transform="scale(0.015625)"/>
       <path d="M 2906 2969 
L 2906 4863 
L 3481 4863 
L 3481 0 
L 2906 0 
L 2906 525 
Q 2725 213 2448 61 
Q 2172 -91 1784 -91 
Q 1150 -91 751 415 
Q 353 922 353 1747 
Q 353 2572 751 3078 
Q 1150 3584 1784 3584 
Q 2172 3584 2448 3432 
Q 2725 3281 2906 2969 
z
M 947 1747 
Q 947 1113 1208 752 
Q 1469 391 1925 391 
Q 2381 391 2643 752 
Q 2906 1113 2906 1747 
Q 2906 2381 2643 2742 
Q 2381 3103 1925 3103 
Q 1469 3103 1208 2742 
Q 947 2381 947 1747 
z
" id="DejaVuSans-64" transform="scale(0.015625)"/>
       <path d="M 513 4856 
L 1013 4856 
Q 1481 4119 1714 3412 
Q 1947 2706 1947 2009 
Q 1947 1309 1714 600 
Q 1481 -109 1013 -844 
L 513 -844 
Q 928 -128 1133 580 
Q 1338 1288 1338 2009 
Q 1338 2731 1133 3434 
Q 928 4138 513 4856 
z
" id="DejaVuSans-29" transform="scale(0.015625)"/>
      </defs>
      <use xlink:href="#DejaVuSans-41"/>
      <use x="68.408203" xlink:href="#DejaVuSans-6e"/>
      <use x="131.787109" xlink:href="#DejaVuSans-67"/>
      <use x="195.263672" xlink:href="#DejaVuSans-6c"/>
      <use x="223.046875" xlink:href="#DejaVuSans-65"/>
      <use x="284.570312" xlink:href="#DejaVuSans-20"/>
      <use x="316.357422" xlink:href="#DejaVuSans-77"/>
      <use x="398.144531" xlink:href="#DejaVuSans-69"/>
      <use x="425.927734" xlink:href="#DejaVuSans-74"/>
      <use x="465.136719" xlink:href="#DejaVuSans-68"/>
      <use x="528.515625" xlink:href="#DejaVuSans-20"/>
      <use x="560.302734" xlink:href="#DejaVuSans-6e"/>
      <use x="623.681641" xlink:href="#DejaVuSans-6f"/>
      <use x="684.863281" xlink:href="#DejaVuSans-72"/>
      <use x="724.226562" xlink:href="#DejaVuSans-6d"/>
      <use x="821.638672" xlink:href="#DejaVuSans-61"/>
      <use x="882.917969" xlink:href="#DejaVuSans-6c"/>
      <use x="910.701172" xlink:href="#DejaVuSans-20"/>
      <use x="942.488281" xlink:href="#DejaVuSans-28"/>
      <use x="981.501953" xlink:href="#DejaVuSans-72"/>
      <use x="1022.615234" xlink:href="#DejaVuSans-61"/>
      <use x="1083.894531" xlink:href="#DejaVuSans-64"/>
      <use x="1147.371094" xlink:href="#DejaVuSans-29"/>
     </g>
    </g>
   </g>
   <g id="matplotlib.axis_2">
    <g id="ytick_1">
     <g id="line2d_10">
      <defs>
       <path d="M 0 0 
L -3.5 0 
" id="m39e3261d6f" style="stroke:#000000;stroke-width:0.8;"/>
      </defs>
      <g>
       <use style="stroke:#000000;stroke-width:0.8;" x="43.78125" xlink:href="#m39e3261d6f" y="273.312"/>
      </g>
     </g>
     <g id="text_11">
      <!-- 0.0 -->
      <g transform="translate(20.878125 277.111219)scale(0.1 -0.1)">
       <use xlink:href="#DejaVuSans-30"/>
       <use x="63.623047" xlink:href="#DejaVuSans-2e"/>
       <use x="95.410156" xlink:href="#DejaVuSans-30"/>
      </g>
     </g>
    </g>
    <g id="ytick_2">
     <g id="line2d_11">
      <g>
       <use style="stroke:#000000;stroke-width:0.8;" x="43.78125" xlink:href="#m39e3261d6f" y="227.311633"/>
      </g>
     </g>
     <g id="text_12">
      <!-- 0.2 -->
      <g transform="translate(20.878125 231.110852)scale(0.1 -0.1)">
       <use xlink:href="#DejaVuSans-30"/>
       <use x="63.623047" xlink:href="#DejaVuSans-2e"/>
       <use x="95.410156" xlink:href="#DejaVuSans-32"/>
      </g>
     </g>
    </g>
    <g id="ytick_3">
     <g id="line2d_12">
      <g>
       <use style="stroke:#000000;stroke-width:0.8;" x="43.78125" xlink:href="#m39e3261d6f" y="181.311267"/>
      </g>
     </g>
     <g id="text_13">
      <!-- 0.4 -->
      <g transform="translate(20.878125 185.110485)scale(0.1 -0.1)">
       <use xlink:href="#DejaVuSans-30"/>
       <use x="63.623047" xlink:href="#DejaVuSans-2e"/>
       <use x="95.410156" xlink:href="#DejaVuSans-34"/>
      </g>
     </g>
    </g>
    <g id="ytick_4">
     <g id="line2d_13">
      <g>
       <use style="stroke:#000000;stroke-width:0.8;" x="43.78125" xlink:href="#m39e3261d6f" y="135.3109"/>
      </g>
     </g>
     <g id="text_14">
      <!-- 0.6 -->
      <g transform="translate(20.878125 139.110119)scale(0.1 -0.1)">
       <use xlink:href="#DejaVuSans-30"/>
       <use x="63.623047" xlink:href="#DejaVuSans-2e"/>
       <use x="95.410156" xlink:href="#DejaVuSans-36"/>
      </g>
     </g>
    </g>
    <g id="ytick_5">
     <g id="line2d_14">
      <g>
       <use style="stroke:#000000;stroke-width:0.8;" x="43.78125" xlink:href="#m39e3261d6f" y="89.310533"/>
      </g>
     </g>
     <g id="text_15">
      <!-- 0.8 -->
      <g transform="translate(20.878125 93.109752)scale(0.1 -0.1)">
       <use xlink:href="#DejaVuSans-30"/>
       <use x="63.623047" xlink:href="#DejaVuSans-2e"/>
       <use x="95.410156" xlink:href="#DejaVuSans-38"/>
      </g>
     </g>
    </g>
    <g id="ytick_6">
     <g id="line2d_15">
      <g>
       <use style="stroke:#000000;stroke-width:0.8;" x="43.78125" xlink:href="#m39e3261d6f" y="43.310166"/>
      </g>
     </g>
     <g id="text_16">
      <!-- 1.0 -->
      <g transform="translate(20.878125 47.109385)scale(0.1 -0.1)">
       <use xlink:href="#DejaVuSans-31"/>
       <use x="63.623047" xlink:href="#DejaVuSans-2e"/>
       <use x="95.410156" xlink:href="#DejaVuSans-30"/>
      </g>
     </g>
    </g>
    <g id="text_17">
     <!-- Probability density -->
     <g transform="translate(14.798438 186.606781)rotate(-90)scale(0.1 -0.1)">
      <defs>
       <path d="M 1259 4147 
L 1259 2394 
L 2053 2394 
Q 2494 2394 2734 2622 
Q 2975 2850 2975 3272 
Q 2975 3691 2734 3919 
Q 2494 4147 2053 4147 
L 1259 4147 
z
M 628 4666 
L 2053 4666 
Q 2838 4666 3239 4311 
Q 3641 3956 3641 3272 
Q 3641 2581 3239 2228 
Q 2838 1875 2053 1875 
L 1259 1875 
L 1259 0 
L 628 0 
L 628 4666 
z
" id="DejaVuSans-50" transform="scale(0.015625)"/>
       <path d="M 3116 1747 
Q 3116 2381 2855 2742 
Q 2594 3103 2138 3103 
Q 1681 3103 1420 2742 
Q 1159 2381 1159 1747 
Q 1159 1113 1420 752 
Q 1681 391 2138 391 
Q 2594 391 2855 752 
Q 3116 1113 3116 1747 
z
M 1159 2969 
Q 1341 3281 1617 3432 
Q 1894 3584 2278 3584 
Q 2916 3584 3314 3078 
Q 3713 2572 3713 1747 
Q 3713 922 3314 415 
Q 2916 -91 2278 -91 
Q 1894 -91 1617 61 
Q 1341 213 1159 525 
L 1159 0 
L 581 0 
L 581 4863 
L 1159 4863 
L 1159 2969 
z
" id="DejaVuSans-62" transform="scale(0.015625)"/>
       <path d="M 2059 -325 
Q 1816 -950 1584 -1140 
Q 1353 -1331 966 -1331 
L 506 -1331 
L 506 -850 
L 844 -850 
Q 1081 -850 1212 -737 
Q 1344 -625 1503 -206 
L 1606 56 
L 191 3500 
L 800 3500 
L 1894 763 
L 2988 3500 
L 3597 3500 
L 2059 -325 
z
" id="DejaVuSans-79" transform="scale(0.015625)"/>
       <path d="M 2834 3397 
L 2834 2853 
Q 2591 2978 2328 3040 
Q 2066 3103 1784 3103 
Q 1356 3103 1142 2972 
Q 928 2841 928 2578 
Q 928 2378 1081 2264 
Q 1234 2150 1697 2047 
L 1894 2003 
Q 2506 1872 2764 1633 
Q 3022 1394 3022 966 
Q 3022 478 2636 193 
Q 2250 -91 1575 -91 
Q 1294 -91 989 -36 
Q 684 19 347 128 
L 347 722 
Q 666 556 975 473 
Q 1284 391 1588 391 
Q 1994 391 2212 530 
Q 2431 669 2431 922 
Q 2431 1156 2273 1281 
Q 2116 1406 1581 1522 
L 1381 1569 
Q 847 1681 609 1914 
Q 372 2147 372 2553 
Q 372 3047 722 3315 
Q 1072 3584 1716 3584 
Q 2034 3584 2315 3537 
Q 2597 3491 2834 3397 
z
" id="DejaVuSans-73" transform="scale(0.015625)"/>
      </defs>
      <use xlink:href="#DejaVuSans-50"/>
      <use x="58.552734" xlink:href="#DejaVuSans-72"/>
      <use x="97.416016" xlink:href="#DejaVuSans-6f"/>
      <use x="158.597656" xlink:href="#DejaVuSans-62"/>
      <use x="222.074219" xlink:href="#DejaVuSans-61"/>
      <use x="283.353516" xlink:href="#DejaVuSans-62"/>
      <use x="346.830078" xlink:href="#DejaVuSans-69"/>
      <use x="374.613281" xlink:href="#DejaVuSans-6c"/>
      <use x="402.396484" xlink:href="#DejaVuSans-69"/>
      <use x="430.179688" xlink:href="#DejaVuSans-74"/>
      <use x="469.388672" xlink:href="#DejaVuSans-79"/>
      <use x="528.568359" xlink:href="#DejaVuSans-20"/>
      <use x="560.355469" xlink:href="#DejaVuSans-64"/>
      <use x="623.832031" xlink:href="#DejaVuSans-65"/>
      <use x="685.355469" xlink:href="#DejaVuSans-6e"/>
      <use x="748.734375" xlink:href="#DejaVuSans-73"/>
      <use x="800.833984" xlink:href="#DejaVuSans-69"/>
      <use x="828.617188" xlink:href="#DejaVuSans-74"/>
      <use x="867.826172" xlink:href="#DejaVuSans-79"/>
     </g>
    </g>
   </g>
   <g id="line2d_16">
    <path clip-path="url(#p79b0ce5876)" d="M 60.013977 273.312 
L 79.837728 229.461082 
L 90.237073 207.000358 
L 99.01152 188.561984 
L 106.811029 172.680905 
L 113.960578 158.624421 
L 120.460169 146.320249 
L 126.63478 135.095702 
L 132.484411 124.916327 
L 138.009063 115.738413 
L 143.208736 107.511218 
L 148.408408 99.703689 
L 153.283101 92.782861 
L 157.832814 86.685479 
L 162.382528 80.94978 
L 166.932241 75.58688 
L 171.156975 70.949948 
L 175.381709 66.651177 
L 179.281463 62.989445 
L 183.181217 59.627193 
L 187.080972 56.569206 
L 190.655746 54.037067 
L 194.230521 51.76729 
L 197.805296 49.76259 
L 201.380071 48.025365 
L 204.629866 46.679932 
L 207.879661 45.558606 
L 211.129456 44.662495 
L 214.379252 43.992485 
L 217.629047 43.54924 
L 220.878842 43.333196 
L 224.128637 43.344568 
L 227.378433 43.583346 
L 230.628228 44.049291 
L 233.878023 44.741944 
L 237.127818 45.660621 
L 240.377614 46.804411 
L 243.627409 48.172185 
L 247.202184 49.933816 
L 250.776958 51.962718 
L 254.351733 54.256464 
L 257.926508 56.812308 
L 261.501283 59.627193 
L 265.401037 62.989445 
L 269.300791 66.651177 
L 273.200546 70.607172 
L 277.425279 75.21836 
L 281.650013 80.160577 
L 286.199727 85.843683 
L 290.74944 91.890103 
L 295.624133 98.758251 
L 300.498826 106.014729 
L 305.698498 114.164791 
L 311.22315 123.26512 
L 316.747802 132.794186 
L 322.597433 143.320813 
L 328.772044 154.883299 
L 335.596614 168.152907 
L 342.746164 182.545111 
L 350.870652 199.423142 
L 359.970079 218.863388 
L 371.019383 243.021842 
L 384.668523 273.312 
L 384.668523 273.312 
" style="fill:none;stroke:#ff7f0e;stroke-linecap:square;stroke-width:1.5;"/>
   </g>
   <g id="patch_203">
    <path d="M 43.78125 273.312 
L 43.78125 7.2 
" style="fill:none;stroke:#000000;stroke-linecap:square;stroke-linejoin:miter;stroke-width:0.8;"/>
   </g>
   <g id="patch_204">
    <path d="M 400.90125 273.312 
L 400.90125 7.2 
" style="fill:none;stroke:#000000;stroke-linecap:square;stroke-linejoin:miter;stroke-width:0.8;"/>
   </g>
   <g id="patch_205">
    <path d="M 43.78125 273.312 
L 400.90125 273.312 
" style="fill:none;stroke:#000000;stroke-linecap:square;stroke-linejoin:miter;stroke-width:0.8;"/>
   </g>
   <g id="patch_206">
    <path d="M 43.78125 7.2 
L 400.90125 7.2 
" style="fill:none;stroke:#000000;stroke-linecap:square;stroke-linejoin:miter;stroke-width:0.8;"/>
   </g>
  </g>
 </g>
 <defs>
  <clipPath id="p79b0ce5876">
   <rect height="266.112" width="357.12" x="43.78125" y="7.2"/>
  </clipPath>
 </defs>
</svg>
