<?xml version="1.0" encoding="utf-8" standalone="no"?>
<!DOCTYPE svg PUBLIC "-//W3C//DTD SVG 1.1//EN"
  "http://www.w3.org/Graphics/SVG/1.1/DTD/svg11.dtd">
<svg height="310.86825pt" version="1.1" viewBox="0 0 408.10125 310.86825" width="408.10125pt" xmlns="http://www.w3.org/2000/svg" xmlns:xlink="http://www.w3.org/1999/xlink">
 <metadata>
  <rdf:RDF xmlns:cc="http://creativecommons.org/ns#" xmlns:dc="http://purl.org/dc/elements/1.1/" xmlns:rdf="http://www.w3.org/1999/02/22-rdf-syntax-ns#">
   <cc:Work>
    <dc:type rdf:resource="http://purl.org/dc/dcmitype/StillImage"/>
    <dc:date>2021-07-12T18:05:26.962041</dc:date>
    <dc:format>image/svg+xml</dc:format>
    <dc:creator>
     <cc:Agent>
      <dc:title>Matplotlib v3.4.2, https://matplotlib.org/</dc:title>
     </cc:Agent>
    </dc:creator>
   </cc:Work>
  </rdf:RDF>
 </metadata>
 <defs>
  <style type="text/css">*{stroke-linecap:butt;stroke-linejoin:round;}</style>
 </defs>
 <g id="figure_1">
  <g id="patch_1">
   <path d="M 0 310.86825 
L 408.10125 310.86825 
L 408.10125 0 
L 0 0 
z
" style="fill:#ffffff;"/>
  </g>
  <g id="axes_1">
   <g id="patch_2">
    <path d="M 43.78125 273.312 
L 400.90125 273.312 
L 400.90125 7.2 
L 43.78125 7.2 
z
" style="fill:#ffffff;"/>
   </g>
   <g id="patch_3">
    <path clip-path="url(#pb4ed84361d)" d="M 61.155925 273.312 
L 62.773485 273.312 
L 62.773485 272.19306 
L 61.155925 272.19306 
z
" style="fill:#1f77b4;"/>
   </g>
   <g id="patch_4">
    <path clip-path="url(#pb4ed84361d)" d="M 62.773485 273.312 
L 64.391046 273.312 
L 64.391046 272.19306 
L 62.773485 272.19306 
z
" style="fill:#1f77b4;"/>
   </g>
   <g id="patch_5">
    <path clip-path="url(#pb4ed84361d)" d="M 64.391046 273.312 
L 66.008606 273.312 
L 66.008606 268.276768 
L 64.391046 268.276768 
z
" style="fill:#1f77b4;"/>
   </g>
   <g id="patch_6">
    <path clip-path="url(#pb4ed84361d)" d="M 66.008606 273.312 
L 67.626166 273.312 
L 67.626166 268.836238 
L 66.008606 268.836238 
z
" style="fill:#1f77b4;"/>
   </g>
   <g id="patch_7">
    <path clip-path="url(#pb4ed84361d)" d="M 67.626166 273.312 
L 69.243727 273.312 
L 69.243727 268.836238 
L 67.626166 268.836238 
z
" style="fill:#1f77b4;"/>
   </g>
   <g id="patch_8">
    <path clip-path="url(#pb4ed84361d)" d="M 69.243727 273.312 
L 70.861287 273.312 
L 70.861287 268.836238 
L 69.243727 268.836238 
z
" style="fill:#1f77b4;"/>
   </g>
   <g id="patch_9">
    <path clip-path="url(#pb4ed84361d)" d="M 70.861287 273.312 
L 72.478847 273.312 
L 72.478847 263.241536 
L 70.861287 263.241536 
z
" style="fill:#1f77b4;"/>
   </g>
   <g id="patch_10">
    <path clip-path="url(#pb4ed84361d)" d="M 72.478847 273.312 
L 74.096408 273.312 
L 74.096408 257.087364 
L 72.478847 257.087364 
z
" style="fill:#1f77b4;"/>
   </g>
   <g id="patch_11">
    <path clip-path="url(#pb4ed84361d)" d="M 74.096408 273.312 
L 75.713968 273.312 
L 75.713968 262.122596 
L 74.096408 262.122596 
z
" style="fill:#1f77b4;"/>
   </g>
   <g id="patch_12">
    <path clip-path="url(#pb4ed84361d)" d="M 75.713968 273.312 
L 77.331528 273.312 
L 77.331528 261.003656 
L 75.713968 261.003656 
z
" style="fill:#1f77b4;"/>
   </g>
   <g id="patch_13">
    <path clip-path="url(#pb4ed84361d)" d="M 77.331528 273.312 
L 78.949089 273.312 
L 78.949089 261.563126 
L 77.331528 261.563126 
z
" style="fill:#1f77b4;"/>
   </g>
   <g id="patch_14">
    <path clip-path="url(#pb4ed84361d)" d="M 78.949089 273.312 
L 80.566649 273.312 
L 80.566649 261.563126 
L 78.949089 261.563126 
z
" style="fill:#1f77b4;"/>
   </g>
   <g id="patch_15">
    <path clip-path="url(#pb4ed84361d)" d="M 80.566649 273.312 
L 82.18421 273.312 
L 82.18421 260.444185 
L 80.566649 260.444185 
z
" style="fill:#1f77b4;"/>
   </g>
   <g id="patch_16">
    <path clip-path="url(#pb4ed84361d)" d="M 82.18421 273.312 
L 83.80177 273.312 
L 83.80177 258.765775 
L 82.18421 258.765775 
z
" style="fill:#1f77b4;"/>
   </g>
   <g id="patch_17">
    <path clip-path="url(#pb4ed84361d)" d="M 83.80177 273.312 
L 85.41933 273.312 
L 85.41933 255.408954 
L 83.80177 255.408954 
z
" style="fill:#1f77b4;"/>
   </g>
   <g id="patch_18">
    <path clip-path="url(#pb4ed84361d)" d="M 85.41933 273.312 
L 87.036891 273.312 
L 87.036891 254.290013 
L 85.41933 254.290013 
z
" style="fill:#1f77b4;"/>
   </g>
   <g id="patch_19">
    <path clip-path="url(#pb4ed84361d)" d="M 87.036891 273.312 
L 88.654451 273.312 
L 88.654451 252.052132 
L 87.036891 252.052132 
z
" style="fill:#1f77b4;"/>
   </g>
   <g id="patch_20">
    <path clip-path="url(#pb4ed84361d)" d="M 88.654451 273.312 
L 90.272011 273.312 
L 90.272011 250.933192 
L 88.654451 250.933192 
z
" style="fill:#1f77b4;"/>
   </g>
   <g id="patch_21">
    <path clip-path="url(#pb4ed84361d)" d="M 90.272011 273.312 
L 91.889572 273.312 
L 91.889572 257.646834 
L 90.272011 257.646834 
z
" style="fill:#1f77b4;"/>
   </g>
   <g id="patch_22">
    <path clip-path="url(#pb4ed84361d)" d="M 91.889572 273.312 
L 93.507132 273.312 
L 93.507132 256.527894 
L 91.889572 256.527894 
z
" style="fill:#1f77b4;"/>
   </g>
   <g id="patch_23">
    <path clip-path="url(#pb4ed84361d)" d="M 93.507132 273.312 
L 95.124692 273.312 
L 95.124692 249.814252 
L 93.507132 249.814252 
z
" style="fill:#1f77b4;"/>
   </g>
   <g id="patch_24">
    <path clip-path="url(#pb4ed84361d)" d="M 95.124692 273.312 
L 96.742253 273.312 
L 96.742253 257.087364 
L 95.124692 257.087364 
z
" style="fill:#1f77b4;"/>
   </g>
   <g id="patch_25">
    <path clip-path="url(#pb4ed84361d)" d="M 96.742253 273.312 
L 98.359813 273.312 
L 98.359813 250.373722 
L 96.742253 250.373722 
z
" style="fill:#1f77b4;"/>
   </g>
   <g id="patch_26">
    <path clip-path="url(#pb4ed84361d)" d="M 98.359813 273.312 
L 99.977373 273.312 
L 99.977373 245.89796 
L 98.359813 245.89796 
z
" style="fill:#1f77b4;"/>
   </g>
   <g id="patch_27">
    <path clip-path="url(#pb4ed84361d)" d="M 99.977373 273.312 
L 101.594934 273.312 
L 101.594934 244.21955 
L 99.977373 244.21955 
z
" style="fill:#1f77b4;"/>
   </g>
   <g id="patch_28">
    <path clip-path="url(#pb4ed84361d)" d="M 101.594934 273.312 
L 103.212494 273.312 
L 103.212494 241.422199 
L 101.594934 241.422199 
z
" style="fill:#1f77b4;"/>
   </g>
   <g id="patch_29">
    <path clip-path="url(#pb4ed84361d)" d="M 103.212494 273.312 
L 104.830054 273.312 
L 104.830054 246.45743 
L 103.212494 246.45743 
z
" style="fill:#1f77b4;"/>
   </g>
   <g id="patch_30">
    <path clip-path="url(#pb4ed84361d)" d="M 104.830054 273.312 
L 106.447615 273.312 
L 106.447615 244.77902 
L 104.830054 244.77902 
z
" style="fill:#1f77b4;"/>
   </g>
   <g id="patch_31">
    <path clip-path="url(#pb4ed84361d)" d="M 106.447615 273.312 
L 108.065175 273.312 
L 108.065175 241.981669 
L 106.447615 241.981669 
z
" style="fill:#1f77b4;"/>
   </g>
   <g id="patch_32">
    <path clip-path="url(#pb4ed84361d)" d="M 108.065175 273.312 
L 109.682735 273.312 
L 109.682735 244.77902 
L 108.065175 244.77902 
z
" style="fill:#1f77b4;"/>
   </g>
   <g id="patch_33">
    <path clip-path="url(#pb4ed84361d)" d="M 109.682735 273.312 
L 111.300296 273.312 
L 111.300296 240.303258 
L 109.682735 240.303258 
z
" style="fill:#1f77b4;"/>
   </g>
   <g id="patch_34">
    <path clip-path="url(#pb4ed84361d)" d="M 111.300296 273.312 
L 112.917856 273.312 
L 112.917856 239.743788 
L 111.300296 239.743788 
z
" style="fill:#1f77b4;"/>
   </g>
   <g id="patch_35">
    <path clip-path="url(#pb4ed84361d)" d="M 112.917856 273.312 
L 114.535416 273.312 
L 114.535416 237.505907 
L 112.917856 237.505907 
z
" style="fill:#1f77b4;"/>
   </g>
   <g id="patch_36">
    <path clip-path="url(#pb4ed84361d)" d="M 114.535416 273.312 
L 116.152977 273.312 
L 116.152977 236.386967 
L 114.535416 236.386967 
z
" style="fill:#1f77b4;"/>
   </g>
   <g id="patch_37">
    <path clip-path="url(#pb4ed84361d)" d="M 116.152977 273.312 
L 117.770537 273.312 
L 117.770537 233.030146 
L 116.152977 233.030146 
z
" style="fill:#1f77b4;"/>
   </g>
   <g id="patch_38">
    <path clip-path="url(#pb4ed84361d)" d="M 117.770537 273.312 
L 119.388097 273.312 
L 119.388097 233.589616 
L 117.770537 233.589616 
z
" style="fill:#1f77b4;"/>
   </g>
   <g id="patch_39">
    <path clip-path="url(#pb4ed84361d)" d="M 119.388097 273.312 
L 121.005658 273.312 
L 121.005658 230.232795 
L 119.388097 230.232795 
z
" style="fill:#1f77b4;"/>
   </g>
   <g id="patch_40">
    <path clip-path="url(#pb4ed84361d)" d="M 121.005658 273.312 
L 122.623218 273.312 
L 122.623218 227.435444 
L 121.005658 227.435444 
z
" style="fill:#1f77b4;"/>
   </g>
   <g id="patch_41">
    <path clip-path="url(#pb4ed84361d)" d="M 122.623218 273.312 
L 124.240778 273.312 
L 124.240778 224.638093 
L 122.623218 224.638093 
z
" style="fill:#1f77b4;"/>
   </g>
   <g id="patch_42">
    <path clip-path="url(#pb4ed84361d)" d="M 124.240778 273.312 
L 125.858339 273.312 
L 125.858339 235.268026 
L 124.240778 235.268026 
z
" style="fill:#1f77b4;"/>
   </g>
   <g id="patch_43">
    <path clip-path="url(#pb4ed84361d)" d="M 125.858339 273.312 
L 127.475899 273.312 
L 127.475899 232.470675 
L 125.858339 232.470675 
z
" style="fill:#1f77b4;"/>
   </g>
   <g id="patch_44">
    <path clip-path="url(#pb4ed84361d)" d="M 127.475899 273.312 
L 129.093459 273.312 
L 129.093459 225.757033 
L 127.475899 225.757033 
z
" style="fill:#1f77b4;"/>
   </g>
   <g id="patch_45">
    <path clip-path="url(#pb4ed84361d)" d="M 129.093459 273.312 
L 130.71102 273.312 
L 130.71102 230.232795 
L 129.093459 230.232795 
z
" style="fill:#1f77b4;"/>
   </g>
   <g id="patch_46">
    <path clip-path="url(#pb4ed84361d)" d="M 130.71102 273.312 
L 132.32858 273.312 
L 132.32858 229.673325 
L 130.71102 229.673325 
z
" style="fill:#1f77b4;"/>
   </g>
   <g id="patch_47">
    <path clip-path="url(#pb4ed84361d)" d="M 132.32858 273.312 
L 133.94614 273.312 
L 133.94614 224.638093 
L 132.32858 224.638093 
z
" style="fill:#1f77b4;"/>
   </g>
   <g id="patch_48">
    <path clip-path="url(#pb4ed84361d)" d="M 133.94614 273.312 
L 135.563701 273.312 
L 135.563701 214.567629 
L 133.94614 214.567629 
z
" style="fill:#1f77b4;"/>
   </g>
   <g id="patch_49">
    <path clip-path="url(#pb4ed84361d)" d="M 135.563701 273.312 
L 137.181261 273.312 
L 137.181261 226.875974 
L 135.563701 226.875974 
z
" style="fill:#1f77b4;"/>
   </g>
   <g id="patch_50">
    <path clip-path="url(#pb4ed84361d)" d="M 137.181261 273.312 
L 138.798821 273.312 
L 138.798821 227.435444 
L 137.181261 227.435444 
z
" style="fill:#1f77b4;"/>
   </g>
   <g id="patch_51">
    <path clip-path="url(#pb4ed84361d)" d="M 138.798821 273.312 
L 140.416382 273.312 
L 140.416382 210.651338 
L 138.798821 210.651338 
z
" style="fill:#1f77b4;"/>
   </g>
   <g id="patch_52">
    <path clip-path="url(#pb4ed84361d)" d="M 140.416382 273.312 
L 142.033942 273.312 
L 142.033942 218.483921 
L 140.416382 218.483921 
z
" style="fill:#1f77b4;"/>
   </g>
   <g id="patch_53">
    <path clip-path="url(#pb4ed84361d)" d="M 142.033942 273.312 
L 143.651502 273.312 
L 143.651502 212.329748 
L 142.033942 212.329748 
z
" style="fill:#1f77b4;"/>
   </g>
   <g id="patch_54">
    <path clip-path="url(#pb4ed84361d)" d="M 143.651502 273.312 
L 145.269063 273.312 
L 145.269063 220.721801 
L 143.651502 220.721801 
z
" style="fill:#1f77b4;"/>
   </g>
   <g id="patch_55">
    <path clip-path="url(#pb4ed84361d)" d="M 145.269063 273.312 
L 146.886623 273.312 
L 146.886623 212.889219 
L 145.269063 212.889219 
z
" style="fill:#1f77b4;"/>
   </g>
   <g id="patch_56">
    <path clip-path="url(#pb4ed84361d)" d="M 146.886623 273.312 
L 148.504183 273.312 
L 148.504183 206.735046 
L 146.886623 206.735046 
z
" style="fill:#1f77b4;"/>
   </g>
   <g id="patch_57">
    <path clip-path="url(#pb4ed84361d)" d="M 148.504183 273.312 
L 150.121744 273.312 
L 150.121744 206.735046 
L 148.504183 206.735046 
z
" style="fill:#1f77b4;"/>
   </g>
   <g id="patch_58">
    <path clip-path="url(#pb4ed84361d)" d="M 150.121744 273.312 
L 151.739304 273.312 
L 151.739304 208.413457 
L 150.121744 208.413457 
z
" style="fill:#1f77b4;"/>
   </g>
   <g id="patch_59">
    <path clip-path="url(#pb4ed84361d)" d="M 151.739304 273.312 
L 153.356864 273.312 
L 153.356864 212.889219 
L 151.739304 212.889219 
z
" style="fill:#1f77b4;"/>
   </g>
   <g id="patch_60">
    <path clip-path="url(#pb4ed84361d)" d="M 153.356864 273.312 
L 154.974425 273.312 
L 154.974425 210.651338 
L 153.356864 210.651338 
z
" style="fill:#1f77b4;"/>
   </g>
   <g id="patch_61">
    <path clip-path="url(#pb4ed84361d)" d="M 154.974425 273.312 
L 156.591985 273.312 
L 156.591985 213.448689 
L 154.974425 213.448689 
z
" style="fill:#1f77b4;"/>
   </g>
   <g id="patch_62">
    <path clip-path="url(#pb4ed84361d)" d="M 156.591985 273.312 
L 158.209545 273.312 
L 158.209545 212.329748 
L 156.591985 212.329748 
z
" style="fill:#1f77b4;"/>
   </g>
   <g id="patch_63">
    <path clip-path="url(#pb4ed84361d)" d="M 158.209545 273.312 
L 159.827106 273.312 
L 159.827106 214.008159 
L 158.209545 214.008159 
z
" style="fill:#1f77b4;"/>
   </g>
   <g id="patch_64">
    <path clip-path="url(#pb4ed84361d)" d="M 159.827106 273.312 
L 161.444666 273.312 
L 161.444666 206.735046 
L 159.827106 206.735046 
z
" style="fill:#1f77b4;"/>
   </g>
   <g id="patch_65">
    <path clip-path="url(#pb4ed84361d)" d="M 161.444666 273.312 
L 163.062226 273.312 
L 163.062226 197.224053 
L 161.444666 197.224053 
z
" style="fill:#1f77b4;"/>
   </g>
   <g id="patch_66">
    <path clip-path="url(#pb4ed84361d)" d="M 163.062226 273.312 
L 164.679787 273.312 
L 164.679787 205.056636 
L 163.062226 205.056636 
z
" style="fill:#1f77b4;"/>
   </g>
   <g id="patch_67">
    <path clip-path="url(#pb4ed84361d)" d="M 164.679787 273.312 
L 166.297347 273.312 
L 166.297347 200.580874 
L 164.679787 200.580874 
z
" style="fill:#1f77b4;"/>
   </g>
   <g id="patch_68">
    <path clip-path="url(#pb4ed84361d)" d="M 166.297347 273.312 
L 167.914907 273.312 
L 167.914907 197.783523 
L 166.297347 197.783523 
z
" style="fill:#1f77b4;"/>
   </g>
   <g id="patch_69">
    <path clip-path="url(#pb4ed84361d)" d="M 167.914907 273.312 
L 169.532468 273.312 
L 169.532468 192.748291 
L 167.914907 192.748291 
z
" style="fill:#1f77b4;"/>
   </g>
   <g id="patch_70">
    <path clip-path="url(#pb4ed84361d)" d="M 169.532468 273.312 
L 171.150028 273.312 
L 171.150028 200.021404 
L 169.532468 200.021404 
z
" style="fill:#1f77b4;"/>
   </g>
   <g id="patch_71">
    <path clip-path="url(#pb4ed84361d)" d="M 171.150028 273.312 
L 172.767588 273.312 
L 172.767588 193.867232 
L 171.150028 193.867232 
z
" style="fill:#1f77b4;"/>
   </g>
   <g id="patch_72">
    <path clip-path="url(#pb4ed84361d)" d="M 172.767588 273.312 
L 174.385149 273.312 
L 174.385149 194.986172 
L 172.767588 194.986172 
z
" style="fill:#1f77b4;"/>
   </g>
   <g id="patch_73">
    <path clip-path="url(#pb4ed84361d)" d="M 174.385149 273.312 
L 176.002709 273.312 
L 176.002709 197.783523 
L 174.385149 197.783523 
z
" style="fill:#1f77b4;"/>
   </g>
   <g id="patch_74">
    <path clip-path="url(#pb4ed84361d)" d="M 176.002709 273.312 
L 177.620269 273.312 
L 177.620269 187.153589 
L 176.002709 187.153589 
z
" style="fill:#1f77b4;"/>
   </g>
   <g id="patch_75">
    <path clip-path="url(#pb4ed84361d)" d="M 177.620269 273.312 
L 179.23783 273.312 
L 179.23783 193.867232 
L 177.620269 193.867232 
z
" style="fill:#1f77b4;"/>
   </g>
   <g id="patch_76">
    <path clip-path="url(#pb4ed84361d)" d="M 179.23783 273.312 
L 180.85539 273.312 
L 180.85539 193.307762 
L 179.23783 193.307762 
z
" style="fill:#1f77b4;"/>
   </g>
   <g id="patch_77">
    <path clip-path="url(#pb4ed84361d)" d="M 180.85539 273.312 
L 182.47295 273.312 
L 182.47295 189.95094 
L 180.85539 189.95094 
z
" style="fill:#1f77b4;"/>
   </g>
   <g id="patch_78">
    <path clip-path="url(#pb4ed84361d)" d="M 182.47295 273.312 
L 184.090511 273.312 
L 184.090511 206.175576 
L 182.47295 206.175576 
z
" style="fill:#1f77b4;"/>
   </g>
   <g id="patch_79">
    <path clip-path="url(#pb4ed84361d)" d="M 184.090511 273.312 
L 185.708071 273.312 
L 185.708071 196.105113 
L 184.090511 196.105113 
z
" style="fill:#1f77b4;"/>
   </g>
   <g id="patch_80">
    <path clip-path="url(#pb4ed84361d)" d="M 185.708071 273.312 
L 187.325631 273.312 
L 187.325631 185.475179 
L 185.708071 185.475179 
z
" style="fill:#1f77b4;"/>
   </g>
   <g id="patch_81">
    <path clip-path="url(#pb4ed84361d)" d="M 187.325631 273.312 
L 188.943192 273.312 
L 188.943192 184.915709 
L 187.325631 184.915709 
z
" style="fill:#1f77b4;"/>
   </g>
   <g id="patch_82">
    <path clip-path="url(#pb4ed84361d)" d="M 188.943192 273.312 
L 190.560752 273.312 
L 190.560752 175.964185 
L 188.943192 175.964185 
z
" style="fill:#1f77b4;"/>
   </g>
   <g id="patch_83">
    <path clip-path="url(#pb4ed84361d)" d="M 190.560752 273.312 
L 192.178312 273.312 
L 192.178312 177.642596 
L 190.560752 177.642596 
z
" style="fill:#1f77b4;"/>
   </g>
   <g id="patch_84">
    <path clip-path="url(#pb4ed84361d)" d="M 192.178312 273.312 
L 193.795873 273.312 
L 193.795873 178.761536 
L 192.178312 178.761536 
z
" style="fill:#1f77b4;"/>
   </g>
   <g id="patch_85">
    <path clip-path="url(#pb4ed84361d)" d="M 193.795873 273.312 
L 195.413433 273.312 
L 195.413433 174.285775 
L 193.795873 174.285775 
z
" style="fill:#1f77b4;"/>
   </g>
   <g id="patch_86">
    <path clip-path="url(#pb4ed84361d)" d="M 195.413433 273.312 
L 197.030993 273.312 
L 197.030993 180.999417 
L 195.413433 180.999417 
z
" style="fill:#1f77b4;"/>
   </g>
   <g id="patch_87">
    <path clip-path="url(#pb4ed84361d)" d="M 197.030993 273.312 
L 198.648554 273.312 
L 198.648554 172.607364 
L 197.030993 172.607364 
z
" style="fill:#1f77b4;"/>
   </g>
   <g id="patch_88">
    <path clip-path="url(#pb4ed84361d)" d="M 198.648554 273.312 
L 200.266114 273.312 
L 200.266114 184.915709 
L 198.648554 184.915709 
z
" style="fill:#1f77b4;"/>
   </g>
   <g id="patch_89">
    <path clip-path="url(#pb4ed84361d)" d="M 200.266114 273.312 
L 201.883674 273.312 
L 201.883674 175.404715 
L 200.266114 175.404715 
z
" style="fill:#1f77b4;"/>
   </g>
   <g id="patch_90">
    <path clip-path="url(#pb4ed84361d)" d="M 201.883674 273.312 
L 203.501235 273.312 
L 203.501235 165.334252 
L 201.883674 165.334252 
z
" style="fill:#1f77b4;"/>
   </g>
   <g id="patch_91">
    <path clip-path="url(#pb4ed84361d)" d="M 203.501235 273.312 
L 205.118795 273.312 
L 205.118795 177.083126 
L 203.501235 177.083126 
z
" style="fill:#1f77b4;"/>
   </g>
   <g id="patch_92">
    <path clip-path="url(#pb4ed84361d)" d="M 205.118795 273.312 
L 206.736355 273.312 
L 206.736355 168.131603 
L 205.118795 168.131603 
z
" style="fill:#1f77b4;"/>
   </g>
   <g id="patch_93">
    <path clip-path="url(#pb4ed84361d)" d="M 206.736355 273.312 
L 208.353916 273.312 
L 208.353916 142.395974 
L 206.736355 142.395974 
z
" style="fill:#1f77b4;"/>
   </g>
   <g id="patch_94">
    <path clip-path="url(#pb4ed84361d)" d="M 208.353916 273.312 
L 209.971476 273.312 
L 209.971476 176.523656 
L 208.353916 176.523656 
z
" style="fill:#1f77b4;"/>
   </g>
   <g id="patch_95">
    <path clip-path="url(#pb4ed84361d)" d="M 209.971476 273.312 
L 211.589037 273.312 
L 211.589037 165.334252 
L 209.971476 165.334252 
z
" style="fill:#1f77b4;"/>
   </g>
   <g id="patch_96">
    <path clip-path="url(#pb4ed84361d)" d="M 211.589037 273.312 
L 213.206597 273.312 
L 213.206597 186.594119 
L 211.589037 186.594119 
z
" style="fill:#1f77b4;"/>
   </g>
   <g id="patch_97">
    <path clip-path="url(#pb4ed84361d)" d="M 213.206597 273.312 
L 214.824157 273.312 
L 214.824157 149.669086 
L 213.206597 149.669086 
z
" style="fill:#1f77b4;"/>
   </g>
   <g id="patch_98">
    <path clip-path="url(#pb4ed84361d)" d="M 214.824157 273.312 
L 216.441718 273.312 
L 216.441718 161.41796 
L 214.824157 161.41796 
z
" style="fill:#1f77b4;"/>
   </g>
   <g id="patch_99">
    <path clip-path="url(#pb4ed84361d)" d="M 216.441718 273.312 
L 218.059278 273.312 
L 218.059278 154.704318 
L 216.441718 154.704318 
z
" style="fill:#1f77b4;"/>
   </g>
   <g id="patch_100">
    <path clip-path="url(#pb4ed84361d)" d="M 218.059278 273.312 
L 219.676838 273.312 
L 219.676838 175.404715 
L 218.059278 175.404715 
z
" style="fill:#1f77b4;"/>
   </g>
   <g id="patch_101">
    <path clip-path="url(#pb4ed84361d)" d="M 219.676838 273.312 
L 221.294399 273.312 
L 221.294399 179.880477 
L 219.676838 179.880477 
z
" style="fill:#1f77b4;"/>
   </g>
   <g id="patch_102">
    <path clip-path="url(#pb4ed84361d)" d="M 221.294399 273.312 
L 222.911959 273.312 
L 222.911959 159.180079 
L 221.294399 159.180079 
z
" style="fill:#1f77b4;"/>
   </g>
   <g id="patch_103">
    <path clip-path="url(#pb4ed84361d)" d="M 222.911959 273.312 
L 224.529519 273.312 
L 224.529519 151.347497 
L 222.911959 151.347497 
z
" style="fill:#1f77b4;"/>
   </g>
   <g id="patch_104">
    <path clip-path="url(#pb4ed84361d)" d="M 224.529519 273.312 
L 226.14708 273.312 
L 226.14708 161.97743 
L 224.529519 161.97743 
z
" style="fill:#1f77b4;"/>
   </g>
   <g id="patch_105">
    <path clip-path="url(#pb4ed84361d)" d="M 226.14708 273.312 
L 227.76464 273.312 
L 227.76464 163.655841 
L 226.14708 163.655841 
z
" style="fill:#1f77b4;"/>
   </g>
   <g id="patch_106">
    <path clip-path="url(#pb4ed84361d)" d="M 227.76464 273.312 
L 229.3822 273.312 
L 229.3822 151.347497 
L 227.76464 151.347497 
z
" style="fill:#1f77b4;"/>
   </g>
   <g id="patch_107">
    <path clip-path="url(#pb4ed84361d)" d="M 229.3822 273.312 
L 230.999761 273.312 
L 230.999761 152.466437 
L 229.3822 152.466437 
z
" style="fill:#1f77b4;"/>
   </g>
   <g id="patch_108">
    <path clip-path="url(#pb4ed84361d)" d="M 230.999761 273.312 
L 232.617321 273.312 
L 232.617321 156.382728 
L 230.999761 156.382728 
z
" style="fill:#1f77b4;"/>
   </g>
   <g id="patch_109">
    <path clip-path="url(#pb4ed84361d)" d="M 232.617321 273.312 
L 234.234881 273.312 
L 234.234881 162.536901 
L 232.617321 162.536901 
z
" style="fill:#1f77b4;"/>
   </g>
   <g id="patch_110">
    <path clip-path="url(#pb4ed84361d)" d="M 234.234881 273.312 
L 235.852442 273.312 
L 235.852442 153.585377 
L 234.234881 153.585377 
z
" style="fill:#1f77b4;"/>
   </g>
   <g id="patch_111">
    <path clip-path="url(#pb4ed84361d)" d="M 235.852442 273.312 
L 237.470002 273.312 
L 237.470002 151.906967 
L 235.852442 151.906967 
z
" style="fill:#1f77b4;"/>
   </g>
   <g id="patch_112">
    <path clip-path="url(#pb4ed84361d)" d="M 237.470002 273.312 
L 239.087562 273.312 
L 239.087562 129.528159 
L 237.470002 129.528159 
z
" style="fill:#1f77b4;"/>
   </g>
   <g id="patch_113">
    <path clip-path="url(#pb4ed84361d)" d="M 239.087562 273.312 
L 240.705123 273.312 
L 240.705123 163.096371 
L 239.087562 163.096371 
z
" style="fill:#1f77b4;"/>
   </g>
   <g id="patch_114">
    <path clip-path="url(#pb4ed84361d)" d="M 240.705123 273.312 
L 242.322683 273.312 
L 242.322683 158.620609 
L 240.705123 158.620609 
z
" style="fill:#1f77b4;"/>
   </g>
   <g id="patch_115">
    <path clip-path="url(#pb4ed84361d)" d="M 242.322683 273.312 
L 243.940243 273.312 
L 243.940243 144.074384 
L 242.322683 144.074384 
z
" style="fill:#1f77b4;"/>
   </g>
   <g id="patch_116">
    <path clip-path="url(#pb4ed84361d)" d="M 243.940243 273.312 
L 245.557804 273.312 
L 245.557804 136.241801 
L 243.940243 136.241801 
z
" style="fill:#1f77b4;"/>
   </g>
   <g id="patch_117">
    <path clip-path="url(#pb4ed84361d)" d="M 245.557804 273.312 
L 247.175364 273.312 
L 247.175364 149.669086 
L 245.557804 149.669086 
z
" style="fill:#1f77b4;"/>
   </g>
   <g id="patch_118">
    <path clip-path="url(#pb4ed84361d)" d="M 247.175364 273.312 
L 248.792924 273.312 
L 248.792924 142.955444 
L 247.175364 142.955444 
z
" style="fill:#1f77b4;"/>
   </g>
   <g id="patch_119">
    <path clip-path="url(#pb4ed84361d)" d="M 248.792924 273.312 
L 250.410485 273.312 
L 250.410485 150.228556 
L 248.792924 150.228556 
z
" style="fill:#1f77b4;"/>
   </g>
   <g id="patch_120">
    <path clip-path="url(#pb4ed84361d)" d="M 250.410485 273.312 
L 252.028045 273.312 
L 252.028045 135.122861 
L 250.410485 135.122861 
z
" style="fill:#1f77b4;"/>
   </g>
   <g id="patch_121">
    <path clip-path="url(#pb4ed84361d)" d="M 252.028045 273.312 
L 253.645605 273.312 
L 253.645605 139.598623 
L 252.028045 139.598623 
z
" style="fill:#1f77b4;"/>
   </g>
   <g id="patch_122">
    <path clip-path="url(#pb4ed84361d)" d="M 253.645605 273.312 
L 255.263166 273.312 
L 255.263166 154.704318 
L 253.645605 154.704318 
z
" style="fill:#1f77b4;"/>
   </g>
   <g id="patch_123">
    <path clip-path="url(#pb4ed84361d)" d="M 255.263166 273.312 
L 256.880726 273.312 
L 256.880726 132.88498 
L 255.263166 132.88498 
z
" style="fill:#1f77b4;"/>
   </g>
   <g id="patch_124">
    <path clip-path="url(#pb4ed84361d)" d="M 256.880726 273.312 
L 258.498286 273.312 
L 258.498286 133.44445 
L 256.880726 133.44445 
z
" style="fill:#1f77b4;"/>
   </g>
   <g id="patch_125">
    <path clip-path="url(#pb4ed84361d)" d="M 258.498286 273.312 
L 260.115847 273.312 
L 260.115847 129.528159 
L 258.498286 129.528159 
z
" style="fill:#1f77b4;"/>
   </g>
   <g id="patch_126">
    <path clip-path="url(#pb4ed84361d)" d="M 260.115847 273.312 
L 261.733407 273.312 
L 261.733407 139.598623 
L 260.115847 139.598623 
z
" style="fill:#1f77b4;"/>
   </g>
   <g id="patch_127">
    <path clip-path="url(#pb4ed84361d)" d="M 261.733407 273.312 
L 263.350967 273.312 
L 263.350967 134.563391 
L 261.733407 134.563391 
z
" style="fill:#1f77b4;"/>
   </g>
   <g id="patch_128">
    <path clip-path="url(#pb4ed84361d)" d="M 263.350967 273.312 
L 264.968528 273.312 
L 264.968528 138.479682 
L 263.350967 138.479682 
z
" style="fill:#1f77b4;"/>
   </g>
   <g id="patch_129">
    <path clip-path="url(#pb4ed84361d)" d="M 264.968528 273.312 
L 266.586088 273.312 
L 266.586088 127.849748 
L 264.968528 127.849748 
z
" style="fill:#1f77b4;"/>
   </g>
   <g id="patch_130">
    <path clip-path="url(#pb4ed84361d)" d="M 266.586088 273.312 
L 268.203648 273.312 
L 268.203648 128.968689 
L 266.586088 128.968689 
z
" style="fill:#1f77b4;"/>
   </g>
   <g id="patch_131">
    <path clip-path="url(#pb4ed84361d)" d="M 268.203648 273.312 
L 269.821209 273.312 
L 269.821209 115.541404 
L 268.203648 115.541404 
z
" style="fill:#1f77b4;"/>
   </g>
   <g id="patch_132">
    <path clip-path="url(#pb4ed84361d)" d="M 269.821209 273.312 
L 271.438769 273.312 
L 271.438769 131.76604 
L 269.821209 131.76604 
z
" style="fill:#1f77b4;"/>
   </g>
   <g id="patch_133">
    <path clip-path="url(#pb4ed84361d)" d="M 271.438769 273.312 
L 273.056329 273.312 
L 273.056329 137.360742 
L 271.438769 137.360742 
z
" style="fill:#1f77b4;"/>
   </g>
   <g id="patch_134">
    <path clip-path="url(#pb4ed84361d)" d="M 273.056329 273.312 
L 274.67389 273.312 
L 274.67389 114.422464 
L 273.056329 114.422464 
z
" style="fill:#1f77b4;"/>
   </g>
   <g id="patch_135">
    <path clip-path="url(#pb4ed84361d)" d="M 274.67389 273.312 
L 276.29145 273.312 
L 276.29145 122.814517 
L 274.67389 122.814517 
z
" style="fill:#1f77b4;"/>
   </g>
   <g id="patch_136">
    <path clip-path="url(#pb4ed84361d)" d="M 276.29145 273.312 
L 277.90901 273.312 
L 277.90901 136.801272 
L 276.29145 136.801272 
z
" style="fill:#1f77b4;"/>
   </g>
   <g id="patch_137">
    <path clip-path="url(#pb4ed84361d)" d="M 277.90901 273.312 
L 279.526571 273.312 
L 279.526571 103.23306 
L 277.90901 103.23306 
z
" style="fill:#1f77b4;"/>
   </g>
   <g id="patch_138">
    <path clip-path="url(#pb4ed84361d)" d="M 279.526571 273.312 
L 281.144131 273.312 
L 281.144131 134.563391 
L 279.526571 134.563391 
z
" style="fill:#1f77b4;"/>
   </g>
   <g id="patch_139">
    <path clip-path="url(#pb4ed84361d)" d="M 281.144131 273.312 
L 282.761691 273.312 
L 282.761691 101.554649 
L 281.144131 101.554649 
z
" style="fill:#1f77b4;"/>
   </g>
   <g id="patch_140">
    <path clip-path="url(#pb4ed84361d)" d="M 282.761691 273.312 
L 284.379252 273.312 
L 284.379252 116.100874 
L 282.761691 116.100874 
z
" style="fill:#1f77b4;"/>
   </g>
   <g id="patch_141">
    <path clip-path="url(#pb4ed84361d)" d="M 284.379252 273.312 
L 285.996812 273.312 
L 285.996812 123.933457 
L 284.379252 123.933457 
z
" style="fill:#1f77b4;"/>
   </g>
   <g id="patch_142">
    <path clip-path="url(#pb4ed84361d)" d="M 285.996812 273.312 
L 287.614372 273.312 
L 287.614372 112.744053 
L 285.996812 112.744053 
z
" style="fill:#1f77b4;"/>
   </g>
   <g id="patch_143">
    <path clip-path="url(#pb4ed84361d)" d="M 287.614372 273.312 
L 289.231933 273.312 
L 289.231933 113.303523 
L 287.614372 113.303523 
z
" style="fill:#1f77b4;"/>
   </g>
   <g id="patch_144">
    <path clip-path="url(#pb4ed84361d)" d="M 289.231933 273.312 
L 290.849493 273.312 
L 290.849493 117.219815 
L 289.231933 117.219815 
z
" style="fill:#1f77b4;"/>
   </g>
   <g id="patch_145">
    <path clip-path="url(#pb4ed84361d)" d="M 290.849493 273.312 
L 292.467053 273.312 
L 292.467053 118.338755 
L 290.849493 118.338755 
z
" style="fill:#1f77b4;"/>
   </g>
   <g id="patch_146">
    <path clip-path="url(#pb4ed84361d)" d="M 292.467053 273.312 
L 294.084614 273.312 
L 294.084614 112.184583 
L 292.467053 112.184583 
z
" style="fill:#1f77b4;"/>
   </g>
   <g id="patch_147">
    <path clip-path="url(#pb4ed84361d)" d="M 294.084614 273.312 
L 295.702174 273.312 
L 295.702174 102.673589 
L 294.084614 102.673589 
z
" style="fill:#1f77b4;"/>
   </g>
   <g id="patch_148">
    <path clip-path="url(#pb4ed84361d)" d="M 295.702174 273.312 
L 297.319734 273.312 
L 297.319734 100.435709 
L 295.702174 100.435709 
z
" style="fill:#1f77b4;"/>
   </g>
   <g id="patch_149">
    <path clip-path="url(#pb4ed84361d)" d="M 297.319734 273.312 
L 298.937295 273.312 
L 298.937295 108.827762 
L 297.319734 108.827762 
z
" style="fill:#1f77b4;"/>
   </g>
   <g id="patch_150">
    <path clip-path="url(#pb4ed84361d)" d="M 298.937295 273.312 
L 300.554855 273.312 
L 300.554855 108.827762 
L 298.937295 108.827762 
z
" style="fill:#1f77b4;"/>
   </g>
   <g id="patch_151">
    <path clip-path="url(#pb4ed84361d)" d="M 300.554855 273.312 
L 302.172415 273.312 
L 302.172415 110.506172 
L 300.554855 110.506172 
z
" style="fill:#1f77b4;"/>
   </g>
   <g id="patch_152">
    <path clip-path="url(#pb4ed84361d)" d="M 302.172415 273.312 
L 303.789976 273.312 
L 303.789976 106.030411 
L 302.172415 106.030411 
z
" style="fill:#1f77b4;"/>
   </g>
   <g id="patch_153">
    <path clip-path="url(#pb4ed84361d)" d="M 303.789976 273.312 
L 305.407536 273.312 
L 305.407536 92.043656 
L 303.789976 92.043656 
z
" style="fill:#1f77b4;"/>
   </g>
   <g id="patch_154">
    <path clip-path="url(#pb4ed84361d)" d="M 305.407536 273.312 
L 307.025096 273.312 
L 307.025096 109.387232 
L 305.407536 109.387232 
z
" style="fill:#1f77b4;"/>
   </g>
   <g id="patch_155">
    <path clip-path="url(#pb4ed84361d)" d="M 307.025096 273.312 
L 308.642657 273.312 
L 308.642657 107.708821 
L 307.025096 107.708821 
z
" style="fill:#1f77b4;"/>
   </g>
   <g id="patch_156">
    <path clip-path="url(#pb4ed84361d)" d="M 308.642657 273.312 
L 310.260217 273.312 
L 310.260217 106.030411 
L 308.642657 106.030411 
z
" style="fill:#1f77b4;"/>
   </g>
   <g id="patch_157">
    <path clip-path="url(#pb4ed84361d)" d="M 310.260217 273.312 
L 311.877777 273.312 
L 311.877777 99.316768 
L 310.260217 99.316768 
z
" style="fill:#1f77b4;"/>
   </g>
   <g id="patch_158">
    <path clip-path="url(#pb4ed84361d)" d="M 311.877777 273.312 
L 313.495338 273.312 
L 313.495338 108.268291 
L 311.877777 108.268291 
z
" style="fill:#1f77b4;"/>
   </g>
   <g id="patch_159">
    <path clip-path="url(#pb4ed84361d)" d="M 313.495338 273.312 
L 315.112898 273.312 
L 315.112898 108.827762 
L 313.495338 108.827762 
z
" style="fill:#1f77b4;"/>
   </g>
   <g id="patch_160">
    <path clip-path="url(#pb4ed84361d)" d="M 315.112898 273.312 
L 316.730458 273.312 
L 316.730458 94.841007 
L 315.112898 94.841007 
z
" style="fill:#1f77b4;"/>
   </g>
   <g id="patch_161">
    <path clip-path="url(#pb4ed84361d)" d="M 316.730458 273.312 
L 318.348019 273.312 
L 318.348019 93.162596 
L 316.730458 93.162596 
z
" style="fill:#1f77b4;"/>
   </g>
   <g id="patch_162">
    <path clip-path="url(#pb4ed84361d)" d="M 318.348019 273.312 
L 319.965579 273.312 
L 319.965579 93.722066 
L 318.348019 93.722066 
z
" style="fill:#1f77b4;"/>
   </g>
   <g id="patch_163">
    <path clip-path="url(#pb4ed84361d)" d="M 319.965579 273.312 
L 321.583139 273.312 
L 321.583139 98.757298 
L 319.965579 98.757298 
z
" style="fill:#1f77b4;"/>
   </g>
   <g id="patch_164">
    <path clip-path="url(#pb4ed84361d)" d="M 321.583139 273.312 
L 323.2007 273.312 
L 323.2007 95.400477 
L 321.583139 95.400477 
z
" style="fill:#1f77b4;"/>
   </g>
   <g id="patch_165">
    <path clip-path="url(#pb4ed84361d)" d="M 323.2007 273.312 
L 324.81826 273.312 
L 324.81826 93.722066 
L 323.2007 93.722066 
z
" style="fill:#1f77b4;"/>
   </g>
   <g id="patch_166">
    <path clip-path="url(#pb4ed84361d)" d="M 324.81826 273.312 
L 326.43582 273.312 
L 326.43582 96.519417 
L 324.81826 96.519417 
z
" style="fill:#1f77b4;"/>
   </g>
   <g id="patch_167">
    <path clip-path="url(#pb4ed84361d)" d="M 326.43582 273.312 
L 328.053381 273.312 
L 328.053381 95.959947 
L 326.43582 95.959947 
z
" style="fill:#1f77b4;"/>
   </g>
   <g id="patch_168">
    <path clip-path="url(#pb4ed84361d)" d="M 328.053381 273.312 
L 329.670941 273.312 
L 329.670941 83.092132 
L 328.053381 83.092132 
z
" style="fill:#1f77b4;"/>
   </g>
   <g id="patch_169">
    <path clip-path="url(#pb4ed84361d)" d="M 329.670941 273.312 
L 331.288501 273.312 
L 331.288501 89.246305 
L 329.670941 89.246305 
z
" style="fill:#1f77b4;"/>
   </g>
   <g id="patch_170">
    <path clip-path="url(#pb4ed84361d)" d="M 331.288501 273.312 
L 332.906062 273.312 
L 332.906062 103.79253 
L 331.288501 103.79253 
z
" style="fill:#1f77b4;"/>
   </g>
   <g id="patch_171">
    <path clip-path="url(#pb4ed84361d)" d="M 332.906062 273.312 
L 334.523622 273.312 
L 334.523622 78.056901 
L 332.906062 78.056901 
z
" style="fill:#1f77b4;"/>
   </g>
   <g id="patch_172">
    <path clip-path="url(#pb4ed84361d)" d="M 334.523622 273.312 
L 336.141182 273.312 
L 336.141182 81.973192 
L 334.523622 81.973192 
z
" style="fill:#1f77b4;"/>
   </g>
   <g id="patch_173">
    <path clip-path="url(#pb4ed84361d)" d="M 336.141182 273.312 
L 337.758743 273.312 
L 337.758743 80.854252 
L 336.141182 80.854252 
z
" style="fill:#1f77b4;"/>
   </g>
   <g id="patch_174">
    <path clip-path="url(#pb4ed84361d)" d="M 337.758743 273.312 
L 339.376303 273.312 
L 339.376303 81.973192 
L 337.758743 81.973192 
z
" style="fill:#1f77b4;"/>
   </g>
   <g id="patch_175">
    <path clip-path="url(#pb4ed84361d)" d="M 339.376303 273.312 
L 340.993863 273.312 
L 340.993863 74.140609 
L 339.376303 74.140609 
z
" style="fill:#1f77b4;"/>
   </g>
   <g id="patch_176">
    <path clip-path="url(#pb4ed84361d)" d="M 340.993863 273.312 
L 342.611424 273.312 
L 342.611424 86.448954 
L 340.993863 86.448954 
z
" style="fill:#1f77b4;"/>
   </g>
   <g id="patch_177">
    <path clip-path="url(#pb4ed84361d)" d="M 342.611424 273.312 
L 344.228984 273.312 
L 344.228984 61.832265 
L 342.611424 61.832265 
z
" style="fill:#1f77b4;"/>
   </g>
   <g id="patch_178">
    <path clip-path="url(#pb4ed84361d)" d="M 344.228984 273.312 
L 345.846545 273.312 
L 345.846545 90.924715 
L 344.228984 90.924715 
z
" style="fill:#1f77b4;"/>
   </g>
   <g id="patch_179">
    <path clip-path="url(#pb4ed84361d)" d="M 345.846545 273.312 
L 347.464105 273.312 
L 347.464105 71.902728 
L 345.846545 71.902728 
z
" style="fill:#1f77b4;"/>
   </g>
   <g id="patch_180">
    <path clip-path="url(#pb4ed84361d)" d="M 347.464105 273.312 
L 349.081665 273.312 
L 349.081665 76.37849 
L 347.464105 76.37849 
z
" style="fill:#1f77b4;"/>
   </g>
   <g id="patch_181">
    <path clip-path="url(#pb4ed84361d)" d="M 349.081665 273.312 
L 350.699226 273.312 
L 350.699226 83.651603 
L 349.081665 83.651603 
z
" style="fill:#1f77b4;"/>
   </g>
   <g id="patch_182">
    <path clip-path="url(#pb4ed84361d)" d="M 350.699226 273.312 
L 352.316786 273.312 
L 352.316786 73.021669 
L 350.699226 73.021669 
z
" style="fill:#1f77b4;"/>
   </g>
   <g id="patch_183">
    <path clip-path="url(#pb4ed84361d)" d="M 352.316786 273.312 
L 353.934346 273.312 
L 353.934346 74.140609 
L 352.316786 74.140609 
z
" style="fill:#1f77b4;"/>
   </g>
   <g id="patch_184">
    <path clip-path="url(#pb4ed84361d)" d="M 353.934346 273.312 
L 355.551907 273.312 
L 355.551907 71.343258 
L 353.934346 71.343258 
z
" style="fill:#1f77b4;"/>
   </g>
   <g id="patch_185">
    <path clip-path="url(#pb4ed84361d)" d="M 355.551907 273.312 
L 357.169467 273.312 
L 357.169467 88.686834 
L 355.551907 88.686834 
z
" style="fill:#1f77b4;"/>
   </g>
   <g id="patch_186">
    <path clip-path="url(#pb4ed84361d)" d="M 357.169467 273.312 
L 358.787027 273.312 
L 358.787027 83.092132 
L 357.169467 83.092132 
z
" style="fill:#1f77b4;"/>
   </g>
   <g id="patch_187">
    <path clip-path="url(#pb4ed84361d)" d="M 358.787027 273.312 
L 360.404588 273.312 
L 360.404588 59.034914 
L 358.787027 59.034914 
z
" style="fill:#1f77b4;"/>
   </g>
   <g id="patch_188">
    <path clip-path="url(#pb4ed84361d)" d="M 360.404588 273.312 
L 362.022148 273.312 
L 362.022148 85.889483 
L 360.404588 85.889483 
z
" style="fill:#1f77b4;"/>
   </g>
   <g id="patch_189">
    <path clip-path="url(#pb4ed84361d)" d="M 362.022148 273.312 
L 363.639708 273.312 
L 363.639708 74.140609 
L 362.022148 74.140609 
z
" style="fill:#1f77b4;"/>
   </g>
   <g id="patch_190">
    <path clip-path="url(#pb4ed84361d)" d="M 363.639708 273.312 
L 365.257269 273.312 
L 365.257269 58.475444 
L 363.639708 58.475444 
z
" style="fill:#1f77b4;"/>
   </g>
   <g id="patch_191">
    <path clip-path="url(#pb4ed84361d)" d="M 365.257269 273.312 
L 366.874829 273.312 
L 366.874829 65.748556 
L 365.257269 65.748556 
z
" style="fill:#1f77b4;"/>
   </g>
   <g id="patch_192">
    <path clip-path="url(#pb4ed84361d)" d="M 366.874829 273.312 
L 368.492389 273.312 
L 368.492389 72.462199 
L 366.874829 72.462199 
z
" style="fill:#1f77b4;"/>
   </g>
   <g id="patch_193">
    <path clip-path="url(#pb4ed84361d)" d="M 368.492389 273.312 
L 370.10995 273.312 
L 370.10995 56.237563 
L 368.492389 56.237563 
z
" style="fill:#1f77b4;"/>
   </g>
   <g id="patch_194">
    <path clip-path="url(#pb4ed84361d)" d="M 370.10995 273.312 
L 371.72751 273.312 
L 371.72751 55.678093 
L 370.10995 55.678093 
z
" style="fill:#1f77b4;"/>
   </g>
   <g id="patch_195">
    <path clip-path="url(#pb4ed84361d)" d="M 371.72751 273.312 
L 373.34507 273.312 
L 373.34507 74.700079 
L 371.72751 74.700079 
z
" style="fill:#1f77b4;"/>
   </g>
   <g id="patch_196">
    <path clip-path="url(#pb4ed84361d)" d="M 373.34507 273.312 
L 374.962631 273.312 
L 374.962631 56.237563 
L 373.34507 56.237563 
z
" style="fill:#1f77b4;"/>
   </g>
   <g id="patch_197">
    <path clip-path="url(#pb4ed84361d)" d="M 374.962631 273.312 
L 376.580191 273.312 
L 376.580191 62.391735 
L 374.962631 62.391735 
z
" style="fill:#1f77b4;"/>
   </g>
   <g id="patch_198">
    <path clip-path="url(#pb4ed84361d)" d="M 376.580191 273.312 
L 378.197751 273.312 
L 378.197751 19.872 
L 376.580191 19.872 
z
" style="fill:#1f77b4;"/>
   </g>
   <g id="patch_199">
    <path clip-path="url(#pb4ed84361d)" d="M 378.197751 273.312 
L 379.815312 273.312 
L 379.815312 55.118623 
L 378.197751 55.118623 
z
" style="fill:#1f77b4;"/>
   </g>
   <g id="patch_200">
    <path clip-path="url(#pb4ed84361d)" d="M 379.815312 273.312 
L 381.432872 273.312 
L 381.432872 52.880742 
L 379.815312 52.880742 
z
" style="fill:#1f77b4;"/>
   </g>
   <g id="patch_201">
    <path clip-path="url(#pb4ed84361d)" d="M 381.432872 273.312 
L 383.050432 273.312 
L 383.050432 34.418225 
L 381.432872 34.418225 
z
" style="fill:#1f77b4;"/>
   </g>
   <g id="patch_202">
    <path clip-path="url(#pb4ed84361d)" d="M 383.050432 273.312 
L 384.667993 273.312 
L 384.667993 33.858755 
L 383.050432 33.858755 
z
" style="fill:#1f77b4;"/>
   </g>
   <g id="matplotlib.axis_1">
    <g id="xtick_1">
     <g id="line2d_1">
      <defs>
       <path d="M 0 0 
L 0 3.5 
" id="m5a43bb7328" style="stroke:#000000;stroke-width:0.8;"/>
      </defs>
      <g>
       <use style="stroke:#000000;stroke-width:0.8;" x="60.013977" xlink:href="#m5a43bb7328" y="273.312"/>
      </g>
     </g>
     <g id="text_1">
      <!-- 0.0 -->
      <g transform="translate(52.062415 287.910437)scale(0.1 -0.1)">
       <defs>
        <path d="M 2034 4250 
Q 1547 4250 1301 3770 
Q 1056 3291 1056 2328 
Q 1056 1369 1301 889 
Q 1547 409 2034 409 
Q 2525 409 2770 889 
Q 3016 1369 3016 2328 
Q 3016 3291 2770 3770 
Q 2525 4250 2034 4250 
z
M 2034 4750 
Q 2819 4750 3233 4129 
Q 3647 3509 3647 2328 
Q 3647 1150 3233 529 
Q 2819 -91 2034 -91 
Q 1250 -91 836 529 
Q 422 1150 422 2328 
Q 422 3509 836 4129 
Q 1250 4750 2034 4750 
z
" id="DejaVuSans-30" transform="scale(0.015625)"/>
        <path d="M 684 794 
L 1344 794 
L 1344 0 
L 684 0 
L 684 794 
z
" id="DejaVuSans-2e" transform="scale(0.015625)"/>
       </defs>
       <use xlink:href="#DejaVuSans-30"/>
       <use x="63.623047" xlink:href="#DejaVuSans-2e"/>
       <use x="95.410156" xlink:href="#DejaVuSans-30"/>
      </g>
     </g>
    </g>
    <g id="xtick_2">
     <g id="line2d_2">
      <g>
       <use style="stroke:#000000;stroke-width:0.8;" x="124.944886" xlink:href="#m5a43bb7328" y="273.312"/>
      </g>
     </g>
     <g id="text_2">
      <!-- 0.2 -->
      <g transform="translate(116.993324 287.910437)scale(0.1 -0.1)">
       <defs>
        <path d="M 1228 531 
L 3431 531 
L 3431 0 
L 469 0 
L 469 531 
Q 828 903 1448 1529 
Q 2069 2156 2228 2338 
Q 2531 2678 2651 2914 
Q 2772 3150 2772 3378 
Q 2772 3750 2511 3984 
Q 2250 4219 1831 4219 
Q 1534 4219 1204 4116 
Q 875 4013 500 3803 
L 500 4441 
Q 881 4594 1212 4672 
Q 1544 4750 1819 4750 
Q 2544 4750 2975 4387 
Q 3406 4025 3406 3419 
Q 3406 3131 3298 2873 
Q 3191 2616 2906 2266 
Q 2828 2175 2409 1742 
Q 1991 1309 1228 531 
z
" id="DejaVuSans-32" transform="scale(0.015625)"/>
       </defs>
       <use xlink:href="#DejaVuSans-30"/>
       <use x="63.623047" xlink:href="#DejaVuSans-2e"/>
       <use x="95.410156" xlink:href="#DejaVuSans-32"/>
      </g>
     </g>
    </g>
    <g id="xtick_3">
     <g id="line2d_3">
      <g>
       <use style="stroke:#000000;stroke-width:0.8;" x="189.875795" xlink:href="#m5a43bb7328" y="273.312"/>
      </g>
     </g>
     <g id="text_3">
      <!-- 0.4 -->
      <g transform="translate(181.924233 287.910437)scale(0.1 -0.1)">
       <defs>
        <path d="M 2419 4116 
L 825 1625 
L 2419 1625 
L 2419 4116 
z
M 2253 4666 
L 3047 4666 
L 3047 1625 
L 3713 1625 
L 3713 1100 
L 3047 1100 
L 3047 0 
L 2419 0 
L 2419 1100 
L 313 1100 
L 313 1709 
L 2253 4666 
z
" id="DejaVuSans-34" transform="scale(0.015625)"/>
       </defs>
       <use xlink:href="#DejaVuSans-30"/>
       <use x="63.623047" xlink:href="#DejaVuSans-2e"/>
       <use x="95.410156" xlink:href="#DejaVuSans-34"/>
      </g>
     </g>
    </g>
    <g id="xtick_4">
     <g id="line2d_4">
      <g>
       <use style="stroke:#000000;stroke-width:0.8;" x="254.806705" xlink:href="#m5a43bb7328" y="273.312"/>
      </g>
     </g>
     <g id="text_4">
      <!-- 0.6 -->
      <g transform="translate(246.855142 287.910437)scale(0.1 -0.1)">
       <defs>
        <path d="M 2113 2584 
Q 1688 2584 1439 2293 
Q 1191 2003 1191 1497 
Q 1191 994 1439 701 
Q 1688 409 2113 409 
Q 2538 409 2786 701 
Q 3034 994 3034 1497 
Q 3034 2003 2786 2293 
Q 2538 2584 2113 2584 
z
M 3366 4563 
L 3366 3988 
Q 3128 4100 2886 4159 
Q 2644 4219 2406 4219 
Q 1781 4219 1451 3797 
Q 1122 3375 1075 2522 
Q 1259 2794 1537 2939 
Q 1816 3084 2150 3084 
Q 2853 3084 3261 2657 
Q 3669 2231 3669 1497 
Q 3669 778 3244 343 
Q 2819 -91 2113 -91 
Q 1303 -91 875 529 
Q 447 1150 447 2328 
Q 447 3434 972 4092 
Q 1497 4750 2381 4750 
Q 2619 4750 2861 4703 
Q 3103 4656 3366 4563 
z
" id="DejaVuSans-36" transform="scale(0.015625)"/>
       </defs>
       <use xlink:href="#DejaVuSans-30"/>
       <use x="63.623047" xlink:href="#DejaVuSans-2e"/>
       <use x="95.410156" xlink:href="#DejaVuSans-36"/>
      </g>
     </g>
    </g>
    <g id="xtick_5">
     <g id="line2d_5">
      <g>
       <use style="stroke:#000000;stroke-width:0.8;" x="319.737614" xlink:href="#m5a43bb7328" y="273.312"/>
      </g>
     </g>
     <g id="text_5">
      <!-- 0.8 -->
      <g transform="translate(311.786051 287.910437)scale(0.1 -0.1)">
       <defs>
        <path d="M 2034 2216 
Q 1584 2216 1326 1975 
Q 1069 1734 1069 1313 
Q 1069 891 1326 650 
Q 1584 409 2034 409 
Q 2484 409 2743 651 
Q 3003 894 3003 1313 
Q 3003 1734 2745 1975 
Q 2488 2216 2034 2216 
z
M 1403 2484 
Q 997 2584 770 2862 
Q 544 3141 544 3541 
Q 544 4100 942 4425 
Q 1341 4750 2034 4750 
Q 2731 4750 3128 4425 
Q 3525 4100 3525 3541 
Q 3525 3141 3298 2862 
Q 3072 2584 2669 2484 
Q 3125 2378 3379 2068 
Q 3634 1759 3634 1313 
Q 3634 634 3220 271 
Q 2806 -91 2034 -91 
Q 1263 -91 848 271 
Q 434 634 434 1313 
Q 434 1759 690 2068 
Q 947 2378 1403 2484 
z
M 1172 3481 
Q 1172 3119 1398 2916 
Q 1625 2713 2034 2713 
Q 2441 2713 2670 2916 
Q 2900 3119 2900 3481 
Q 2900 3844 2670 4047 
Q 2441 4250 2034 4250 
Q 1625 4250 1398 4047 
Q 1172 3844 1172 3481 
z
" id="DejaVuSans-38" transform="scale(0.015625)"/>
       </defs>
       <use xlink:href="#DejaVuSans-30"/>
       <use x="63.623047" xlink:href="#DejaVuSans-2e"/>
       <use x="95.410156" xlink:href="#DejaVuSans-38"/>
      </g>
     </g>
    </g>
    <g id="xtick_6">
     <g id="line2d_6">
      <g>
       <use style="stroke:#000000;stroke-width:0.8;" x="384.668523" xlink:href="#m5a43bb7328" y="273.312"/>
      </g>
     </g>
     <g id="text_6">
      <!-- 1.0 -->
      <g transform="translate(376.71696 287.910437)scale(0.1 -0.1)">
       <defs>
        <path d="M 794 531 
L 1825 531 
L 1825 4091 
L 703 3866 
L 703 4441 
L 1819 4666 
L 2450 4666 
L 2450 531 
L 3481 531 
L 3481 0 
L 794 0 
L 794 531 
z
" id="DejaVuSans-31" transform="scale(0.015625)"/>
       </defs>
       <use xlink:href="#DejaVuSans-31"/>
       <use x="63.623047" xlink:href="#DejaVuSans-2e"/>
       <use x="95.410156" xlink:href="#DejaVuSans-30"/>
      </g>
     </g>
    </g>
    <g id="text_7">
     <!-- Propagation direction -->
     <g transform="translate(168.859219 301.588562)scale(0.1 -0.1)">
      <defs>
       <path d="M 1259 4147 
L 1259 2394 
L 2053 2394 
Q 2494 2394 2734 2622 
Q 2975 2850 2975 3272 
Q 2975 3691 2734 3919 
Q 2494 4147 2053 4147 
L 1259 4147 
z
M 628 4666 
L 2053 4666 
Q 2838 4666 3239 4311 
Q 3641 3956 3641 3272 
Q 3641 2581 3239 2228 
Q 2838 1875 2053 1875 
L 1259 1875 
L 1259 0 
L 628 0 
L 628 4666 
z
" id="DejaVuSans-50" transform="scale(0.015625)"/>
       <path d="M 2631 2963 
Q 2534 3019 2420 3045 
Q 2306 3072 2169 3072 
Q 1681 3072 1420 2755 
Q 1159 2438 1159 1844 
L 1159 0 
L 581 0 
L 581 3500 
L 1159 3500 
L 1159 2956 
Q 1341 3275 1631 3429 
Q 1922 3584 2338 3584 
Q 2397 3584 2469 3576 
Q 2541 3569 2628 3553 
L 2631 2963 
z
" id="DejaVuSans-72" transform="scale(0.015625)"/>
       <path d="M 1959 3097 
Q 1497 3097 1228 2736 
Q 959 2375 959 1747 
Q 959 1119 1226 758 
Q 1494 397 1959 397 
Q 2419 397 2687 759 
Q 2956 1122 2956 1747 
Q 2956 2369 2687 2733 
Q 2419 3097 1959 3097 
z
M 1959 3584 
Q 2709 3584 3137 3096 
Q 3566 2609 3566 1747 
Q 3566 888 3137 398 
Q 2709 -91 1959 -91 
Q 1206 -91 779 398 
Q 353 888 353 1747 
Q 353 2609 779 3096 
Q 1206 3584 1959 3584 
z
" id="DejaVuSans-6f" transform="scale(0.015625)"/>
       <path d="M 1159 525 
L 1159 -1331 
L 581 -1331 
L 581 3500 
L 1159 3500 
L 1159 2969 
Q 1341 3281 1617 3432 
Q 1894 3584 2278 3584 
Q 2916 3584 3314 3078 
Q 3713 2572 3713 1747 
Q 3713 922 3314 415 
Q 2916 -91 2278 -91 
Q 1894 -91 1617 61 
Q 1341 213 1159 525 
z
M 3116 1747 
Q 3116 2381 2855 2742 
Q 2594 3103 2138 3103 
Q 1681 3103 1420 2742 
Q 1159 2381 1159 1747 
Q 1159 1113 1420 752 
Q 1681 391 2138 391 
Q 2594 391 2855 752 
Q 3116 1113 3116 1747 
z
" id="DejaVuSans-70" transform="scale(0.015625)"/>
       <path d="M 2194 1759 
Q 1497 1759 1228 1600 
Q 959 1441 959 1056 
Q 959 750 1161 570 
Q 1363 391 1709 391 
Q 2188 391 2477 730 
Q 2766 1069 2766 1631 
L 2766 1759 
L 2194 1759 
z
M 3341 1997 
L 3341 0 
L 2766 0 
L 2766 531 
Q 2569 213 2275 61 
Q 1981 -91 1556 -91 
Q 1019 -91 701 211 
Q 384 513 384 1019 
Q 384 1609 779 1909 
Q 1175 2209 1959 2209 
L 2766 2209 
L 2766 2266 
Q 2766 2663 2505 2880 
Q 2244 3097 1772 3097 
Q 1472 3097 1187 3025 
Q 903 2953 641 2809 
L 641 3341 
Q 956 3463 1253 3523 
Q 1550 3584 1831 3584 
Q 2591 3584 2966 3190 
Q 3341 2797 3341 1997 
z
" id="DejaVuSans-61" transform="scale(0.015625)"/>
       <path d="M 2906 1791 
Q 2906 2416 2648 2759 
Q 2391 3103 1925 3103 
Q 1463 3103 1205 2759 
Q 947 2416 947 1791 
Q 947 1169 1205 825 
Q 1463 481 1925 481 
Q 2391 481 2648 825 
Q 2906 1169 2906 1791 
z
M 3481 434 
Q 3481 -459 3084 -895 
Q 2688 -1331 1869 -1331 
Q 1566 -1331 1297 -1286 
Q 1028 -1241 775 -1147 
L 775 -588 
Q 1028 -725 1275 -790 
Q 1522 -856 1778 -856 
Q 2344 -856 2625 -561 
Q 2906 -266 2906 331 
L 2906 616 
Q 2728 306 2450 153 
Q 2172 0 1784 0 
Q 1141 0 747 490 
Q 353 981 353 1791 
Q 353 2603 747 3093 
Q 1141 3584 1784 3584 
Q 2172 3584 2450 3431 
Q 2728 3278 2906 2969 
L 2906 3500 
L 3481 3500 
L 3481 434 
z
" id="DejaVuSans-67" transform="scale(0.015625)"/>
       <path d="M 1172 4494 
L 1172 3500 
L 2356 3500 
L 2356 3053 
L 1172 3053 
L 1172 1153 
Q 1172 725 1289 603 
Q 1406 481 1766 481 
L 2356 481 
L 2356 0 
L 1766 0 
Q 1100 0 847 248 
Q 594 497 594 1153 
L 594 3053 
L 172 3053 
L 172 3500 
L 594 3500 
L 594 4494 
L 1172 4494 
z
" id="DejaVuSans-74" transform="scale(0.015625)"/>
       <path d="M 603 3500 
L 1178 3500 
L 1178 0 
L 603 0 
L 603 3500 
z
M 603 4863 
L 1178 4863 
L 1178 4134 
L 603 4134 
L 603 4863 
z
" id="DejaVuSans-69" transform="scale(0.015625)"/>
       <path d="M 3513 2113 
L 3513 0 
L 2938 0 
L 2938 2094 
Q 2938 2591 2744 2837 
Q 2550 3084 2163 3084 
Q 1697 3084 1428 2787 
Q 1159 2491 1159 1978 
L 1159 0 
L 581 0 
L 581 3500 
L 1159 3500 
L 1159 2956 
Q 1366 3272 1645 3428 
Q 1925 3584 2291 3584 
Q 2894 3584 3203 3211 
Q 3513 2838 3513 2113 
z
" id="DejaVuSans-6e" transform="scale(0.015625)"/>
       <path id="DejaVuSans-20" transform="scale(0.015625)"/>
       <path d="M 2906 2969 
L 2906 4863 
L 3481 4863 
L 3481 0 
L 2906 0 
L 2906 525 
Q 2725 213 2448 61 
Q 2172 -91 1784 -91 
Q 1150 -91 751 415 
Q 353 922 353 1747 
Q 353 2572 751 3078 
Q 1150 3584 1784 3584 
Q 2172 3584 2448 3432 
Q 2725 3281 2906 2969 
z
M 947 1747 
Q 947 1113 1208 752 
Q 1469 391 1925 391 
Q 2381 391 2643 752 
Q 2906 1113 2906 1747 
Q 2906 2381 2643 2742 
Q 2381 3103 1925 3103 
Q 1469 3103 1208 2742 
Q 947 2381 947 1747 
z
" id="DejaVuSans-64" transform="scale(0.015625)"/>
       <path d="M 3597 1894 
L 3597 1613 
L 953 1613 
Q 991 1019 1311 708 
Q 1631 397 2203 397 
Q 2534 397 2845 478 
Q 3156 559 3463 722 
L 3463 178 
Q 3153 47 2828 -22 
Q 2503 -91 2169 -91 
Q 1331 -91 842 396 
Q 353 884 353 1716 
Q 353 2575 817 3079 
Q 1281 3584 2069 3584 
Q 2775 3584 3186 3129 
Q 3597 2675 3597 1894 
z
M 3022 2063 
Q 3016 2534 2758 2815 
Q 2500 3097 2075 3097 
Q 1594 3097 1305 2825 
Q 1016 2553 972 2059 
L 3022 2063 
z
" id="DejaVuSans-65" transform="scale(0.015625)"/>
       <path d="M 3122 3366 
L 3122 2828 
Q 2878 2963 2633 3030 
Q 2388 3097 2138 3097 
Q 1578 3097 1268 2742 
Q 959 2388 959 1747 
Q 959 1106 1268 751 
Q 1578 397 2138 397 
Q 2388 397 2633 464 
Q 2878 531 3122 666 
L 3122 134 
Q 2881 22 2623 -34 
Q 2366 -91 2075 -91 
Q 1284 -91 818 406 
Q 353 903 353 1747 
Q 353 2603 823 3093 
Q 1294 3584 2113 3584 
Q 2378 3584 2631 3529 
Q 2884 3475 3122 3366 
z
" id="DejaVuSans-63" transform="scale(0.015625)"/>
      </defs>
      <use xlink:href="#DejaVuSans-50"/>
      <use x="58.552734" xlink:href="#DejaVuSans-72"/>
      <use x="97.416016" xlink:href="#DejaVuSans-6f"/>
      <use x="158.597656" xlink:href="#DejaVuSans-70"/>
      <use x="222.074219" xlink:href="#DejaVuSans-61"/>
      <use x="283.353516" xlink:href="#DejaVuSans-67"/>
      <use x="346.830078" xlink:href="#DejaVuSans-61"/>
      <use x="408.109375" xlink:href="#DejaVuSans-74"/>
      <use x="447.318359" xlink:href="#DejaVuSans-69"/>
      <use x="475.101562" xlink:href="#DejaVuSans-6f"/>
      <use x="536.283203" xlink:href="#DejaVuSans-6e"/>
      <use x="599.662109" xlink:href="#DejaVuSans-20"/>
      <use x="631.449219" xlink:href="#DejaVuSans-64"/>
      <use x="694.925781" xlink:href="#DejaVuSans-69"/>
      <use x="722.708984" xlink:href="#DejaVuSans-72"/>
      <use x="761.572266" xlink:href="#DejaVuSans-65"/>
      <use x="823.095703" xlink:href="#DejaVuSans-63"/>
      <use x="878.076172" xlink:href="#DejaVuSans-74"/>
      <use x="917.285156" xlink:href="#DejaVuSans-69"/>
      <use x="945.068359" xlink:href="#DejaVuSans-6f"/>
      <use x="1006.25" xlink:href="#DejaVuSans-6e"/>
     </g>
    </g>
   </g>
   <g id="matplotlib.axis_2">
    <g id="ytick_1">
     <g id="line2d_7">
      <defs>
       <path d="M 0 0 
L -3.5 0 
" id="m59629246ac" style="stroke:#000000;stroke-width:0.8;"/>
      </defs>
      <g>
       <use style="stroke:#000000;stroke-width:0.8;" x="43.78125" xlink:href="#m59629246ac" y="273.312"/>
      </g>
     </g>
     <g id="text_8">
      <!-- 0.0 -->
      <g transform="translate(20.878125 277.111219)scale(0.1 -0.1)">
       <use xlink:href="#DejaVuSans-30"/>
       <use x="63.623047" xlink:href="#DejaVuSans-2e"/>
       <use x="95.410156" xlink:href="#DejaVuSans-30"/>
      </g>
     </g>
    </g>
    <g id="ytick_2">
     <g id="line2d_8">
      <g>
       <use style="stroke:#000000;stroke-width:0.8;" x="43.78125" xlink:href="#m59629246ac" y="217.561861"/>
      </g>
     </g>
     <g id="text_9">
      <!-- 0.5 -->
      <g transform="translate(20.878125 221.36108)scale(0.1 -0.1)">
       <defs>
        <path d="M 691 4666 
L 3169 4666 
L 3169 4134 
L 1269 4134 
L 1269 2991 
Q 1406 3038 1543 3061 
Q 1681 3084 1819 3084 
Q 2600 3084 3056 2656 
Q 3513 2228 3513 1497 
Q 3513 744 3044 326 
Q 2575 -91 1722 -91 
Q 1428 -91 1123 -41 
Q 819 9 494 109 
L 494 744 
Q 775 591 1075 516 
Q 1375 441 1709 441 
Q 2250 441 2565 725 
Q 2881 1009 2881 1497 
Q 2881 1984 2565 2268 
Q 2250 2553 1709 2553 
Q 1456 2553 1204 2497 
Q 953 2441 691 2322 
L 691 4666 
z
" id="DejaVuSans-35" transform="scale(0.015625)"/>
       </defs>
       <use xlink:href="#DejaVuSans-30"/>
       <use x="63.623047" xlink:href="#DejaVuSans-2e"/>
       <use x="95.410156" xlink:href="#DejaVuSans-35"/>
      </g>
     </g>
    </g>
    <g id="ytick_3">
     <g id="line2d_9">
      <g>
       <use style="stroke:#000000;stroke-width:0.8;" x="43.78125" xlink:href="#m59629246ac" y="161.811722"/>
      </g>
     </g>
     <g id="text_10">
      <!-- 1.0 -->
      <g transform="translate(20.878125 165.610941)scale(0.1 -0.1)">
       <use xlink:href="#DejaVuSans-31"/>
       <use x="63.623047" xlink:href="#DejaVuSans-2e"/>
       <use x="95.410156" xlink:href="#DejaVuSans-30"/>
      </g>
     </g>
    </g>
    <g id="ytick_4">
     <g id="line2d_10">
      <g>
       <use style="stroke:#000000;stroke-width:0.8;" x="43.78125" xlink:href="#m59629246ac" y="106.061583"/>
      </g>
     </g>
     <g id="text_11">
      <!-- 1.5 -->
      <g transform="translate(20.878125 109.860801)scale(0.1 -0.1)">
       <use xlink:href="#DejaVuSans-31"/>
       <use x="63.623047" xlink:href="#DejaVuSans-2e"/>
       <use x="95.410156" xlink:href="#DejaVuSans-35"/>
      </g>
     </g>
    </g>
    <g id="ytick_5">
     <g id="line2d_11">
      <g>
       <use style="stroke:#000000;stroke-width:0.8;" x="43.78125" xlink:href="#m59629246ac" y="50.311444"/>
      </g>
     </g>
     <g id="text_12">
      <!-- 2.0 -->
      <g transform="translate(20.878125 54.110662)scale(0.1 -0.1)">
       <use xlink:href="#DejaVuSans-32"/>
       <use x="63.623047" xlink:href="#DejaVuSans-2e"/>
       <use x="95.410156" xlink:href="#DejaVuSans-30"/>
      </g>
     </g>
    </g>
    <g id="text_13">
     <!-- Probability density -->
     <g transform="translate(14.798438 186.606781)rotate(-90)scale(0.1 -0.1)">
      <defs>
       <path d="M 3116 1747 
Q 3116 2381 2855 2742 
Q 2594 3103 2138 3103 
Q 1681 3103 1420 2742 
Q 1159 2381 1159 1747 
Q 1159 1113 1420 752 
Q 1681 391 2138 391 
Q 2594 391 2855 752 
Q 3116 1113 3116 1747 
z
M 1159 2969 
Q 1341 3281 1617 3432 
Q 1894 3584 2278 3584 
Q 2916 3584 3314 3078 
Q 3713 2572 3713 1747 
Q 3713 922 3314 415 
Q 2916 -91 2278 -91 
Q 1894 -91 1617 61 
Q 1341 213 1159 525 
L 1159 0 
L 581 0 
L 581 4863 
L 1159 4863 
L 1159 2969 
z
" id="DejaVuSans-62" transform="scale(0.015625)"/>
       <path d="M 603 4863 
L 1178 4863 
L 1178 0 
L 603 0 
L 603 4863 
z
" id="DejaVuSans-6c" transform="scale(0.015625)"/>
       <path d="M 2059 -325 
Q 1816 -950 1584 -1140 
Q 1353 -1331 966 -1331 
L 506 -1331 
L 506 -850 
L 844 -850 
Q 1081 -850 1212 -737 
Q 1344 -625 1503 -206 
L 1606 56 
L 191 3500 
L 800 3500 
L 1894 763 
L 2988 3500 
L 3597 3500 
L 2059 -325 
z
" id="DejaVuSans-79" transform="scale(0.015625)"/>
       <path d="M 2834 3397 
L 2834 2853 
Q 2591 2978 2328 3040 
Q 2066 3103 1784 3103 
Q 1356 3103 1142 2972 
Q 928 2841 928 2578 
Q 928 2378 1081 2264 
Q 1234 2150 1697 2047 
L 1894 2003 
Q 2506 1872 2764 1633 
Q 3022 1394 3022 966 
Q 3022 478 2636 193 
Q 2250 -91 1575 -91 
Q 1294 -91 989 -36 
Q 684 19 347 128 
L 347 722 
Q 666 556 975 473 
Q 1284 391 1588 391 
Q 1994 391 2212 530 
Q 2431 669 2431 922 
Q 2431 1156 2273 1281 
Q 2116 1406 1581 1522 
L 1381 1569 
Q 847 1681 609 1914 
Q 372 2147 372 2553 
Q 372 3047 722 3315 
Q 1072 3584 1716 3584 
Q 2034 3584 2315 3537 
Q 2597 3491 2834 3397 
z
" id="DejaVuSans-73" transform="scale(0.015625)"/>
      </defs>
      <use xlink:href="#DejaVuSans-50"/>
      <use x="58.552734" xlink:href="#DejaVuSans-72"/>
      <use x="97.416016" xlink:href="#DejaVuSans-6f"/>
      <use x="158.597656" xlink:href="#DejaVuSans-62"/>
      <use x="222.074219" xlink:href="#DejaVuSans-61"/>
      <use x="283.353516" xlink:href="#DejaVuSans-62"/>
      <use x="346.830078" xlink:href="#DejaVuSans-69"/>
      <use x="374.613281" xlink:href="#DejaVuSans-6c"/>
      <use x="402.396484" xlink:href="#DejaVuSans-69"/>
      <use x="430.179688" xlink:href="#DejaVuSans-74"/>
      <use x="469.388672" xlink:href="#DejaVuSans-79"/>
      <use x="528.568359" xlink:href="#DejaVuSans-20"/>
      <use x="560.355469" xlink:href="#DejaVuSans-64"/>
      <use x="623.832031" xlink:href="#DejaVuSans-65"/>
      <use x="685.355469" xlink:href="#DejaVuSans-6e"/>
      <use x="748.734375" xlink:href="#DejaVuSans-73"/>
      <use x="800.833984" xlink:href="#DejaVuSans-69"/>
      <use x="828.617188" xlink:href="#DejaVuSans-74"/>
      <use x="867.826172" xlink:href="#DejaVuSans-79"/>
     </g>
    </g>
   </g>
   <g id="line2d_12">
    <path clip-path="url(#pb4ed84361d)" d="M 60.013977 273.312 
L 384.668523 50.311444 
L 384.668523 50.311444 
" style="fill:none;stroke:#ff7f0e;stroke-linecap:square;stroke-width:1.5;"/>
   </g>
   <g id="patch_203">
    <path d="M 43.78125 273.312 
L 43.78125 7.2 
" style="fill:none;stroke:#000000;stroke-linecap:square;stroke-linejoin:miter;stroke-width:0.8;"/>
   </g>
   <g id="patch_204">
    <path d="M 400.90125 273.312 
L 400.90125 7.2 
" style="fill:none;stroke:#000000;stroke-linecap:square;stroke-linejoin:miter;stroke-width:0.8;"/>
   </g>
   <g id="patch_205">
    <path d="M 43.78125 273.312 
L 400.90125 273.312 
" style="fill:none;stroke:#000000;stroke-linecap:square;stroke-linejoin:miter;stroke-width:0.8;"/>
   </g>
   <g id="patch_206">
    <path d="M 43.78125 7.2 
L 400.90125 7.2 
" style="fill:none;stroke:#000000;stroke-linecap:square;stroke-linejoin:miter;stroke-width:0.8;"/>
   </g>
  </g>
 </g>
 <defs>
  <clipPath id="pb4ed84361d">
   <rect height="266.112" width="357.12" x="43.78125" y="7.2"/>
  </clipPath>
 </defs>
</svg>
