<?xml version="1.0" encoding="utf-8" standalone="no"?>
<!DOCTYPE svg PUBLIC "-//W3C//DTD SVG 1.1//EN"
  "http://www.w3.org/Graphics/SVG/1.1/DTD/svg11.dtd">
<svg height="310.86825pt" version="1.1" viewBox="0 0 414.46375 310.86825" width="414.46375pt" xmlns="http://www.w3.org/2000/svg" xmlns:xlink="http://www.w3.org/1999/xlink">
 <metadata>
  <rdf:RDF xmlns:cc="http://creativecommons.org/ns#" xmlns:dc="http://purl.org/dc/elements/1.1/" xmlns:rdf="http://www.w3.org/1999/02/22-rdf-syntax-ns#">
   <cc:Work>
    <dc:type rdf:resource="http://purl.org/dc/dcmitype/StillImage"/>
    <dc:date>2021-07-08T06:11:50.188181</dc:date>
    <dc:format>image/svg+xml</dc:format>
    <dc:creator>
     <cc:Agent>
      <dc:title>Matplotlib v3.4.2, https://matplotlib.org/</dc:title>
     </cc:Agent>
    </dc:creator>
   </cc:Work>
  </rdf:RDF>
 </metadata>
 <defs>
  <style type="text/css">*{stroke-linecap:butt;stroke-linejoin:round;}</style>
 </defs>
 <g id="figure_1">
  <g id="patch_1">
   <path d="M 0 310.86825 
L 414.46375 310.86825 
L 414.46375 0 
L 0 0 
z
" style="fill:#ffffff;"/>
  </g>
  <g id="axes_1">
   <g id="patch_2">
    <path d="M 50.14375 273.312 
L 407.26375 273.312 
L 407.26375 7.2 
L 50.14375 7.2 
z
" style="fill:#ffffff;"/>
   </g>
   <g id="patch_3">
    <path clip-path="url(#p7937d9265a)" d="M 67.254142 273.312 
L 68.873023 273.312 
L 68.873023 272.116528 
L 67.254142 272.116528 
z
" style="fill:#1f77b4;"/>
   </g>
   <g id="patch_4">
    <path clip-path="url(#p7937d9265a)" d="M 68.873023 273.312 
L 70.491904 273.312 
L 70.491904 270.921057 
L 68.873023 270.921057 
z
" style="fill:#1f77b4;"/>
   </g>
   <g id="patch_5">
    <path clip-path="url(#p7937d9265a)" d="M 70.491904 273.312 
L 72.110785 273.312 
L 72.110785 269.725585 
L 70.491904 269.725585 
z
" style="fill:#1f77b4;"/>
   </g>
   <g id="patch_6">
    <path clip-path="url(#p7937d9265a)" d="M 72.110785 273.312 
L 73.729666 273.312 
L 73.729666 268.530113 
L 72.110785 268.530113 
z
" style="fill:#1f77b4;"/>
   </g>
   <g id="patch_7">
    <path clip-path="url(#p7937d9265a)" d="M 73.729666 273.312 
L 75.348547 273.312 
L 75.348547 267.334642 
L 73.729666 267.334642 
z
" style="fill:#1f77b4;"/>
   </g>
   <g id="patch_8">
    <path clip-path="url(#p7937d9265a)" d="M 75.348547 273.312 
L 76.967427 273.312 
L 76.967427 262.552755 
L 75.348547 262.552755 
z
" style="fill:#1f77b4;"/>
   </g>
   <g id="patch_9">
    <path clip-path="url(#p7937d9265a)" d="M 76.967427 273.312 
L 78.586308 273.312 
L 78.586308 263.748226 
L 76.967427 263.748226 
z
" style="fill:#1f77b4;"/>
   </g>
   <g id="patch_10">
    <path clip-path="url(#p7937d9265a)" d="M 78.586308 273.312 
L 80.205189 273.312 
L 80.205189 264.345962 
L 78.586308 264.345962 
z
" style="fill:#1f77b4;"/>
   </g>
   <g id="patch_11">
    <path clip-path="url(#p7937d9265a)" d="M 80.205189 273.312 
L 81.82407 273.312 
L 81.82407 269.725585 
L 80.205189 269.725585 
z
" style="fill:#1f77b4;"/>
   </g>
   <g id="patch_12">
    <path clip-path="url(#p7937d9265a)" d="M 81.82407 273.312 
L 83.442951 273.312 
L 83.442951 260.161811 
L 81.82407 260.161811 
z
" style="fill:#1f77b4;"/>
   </g>
   <g id="patch_13">
    <path clip-path="url(#p7937d9265a)" d="M 83.442951 273.312 
L 85.061832 273.312 
L 85.061832 262.552755 
L 83.442951 262.552755 
z
" style="fill:#1f77b4;"/>
   </g>
   <g id="patch_14">
    <path clip-path="url(#p7937d9265a)" d="M 85.061832 273.312 
L 86.680712 273.312 
L 86.680712 259.564075 
L 85.061832 259.564075 
z
" style="fill:#1f77b4;"/>
   </g>
   <g id="patch_15">
    <path clip-path="url(#p7937d9265a)" d="M 86.680712 273.312 
L 88.299593 273.312 
L 88.299593 257.173132 
L 86.680712 257.173132 
z
" style="fill:#1f77b4;"/>
   </g>
   <g id="patch_16">
    <path clip-path="url(#p7937d9265a)" d="M 88.299593 273.312 
L 89.918474 273.312 
L 89.918474 254.782189 
L 88.299593 254.782189 
z
" style="fill:#1f77b4;"/>
   </g>
   <g id="patch_17">
    <path clip-path="url(#p7937d9265a)" d="M 89.918474 273.312 
L 91.537355 273.312 
L 91.537355 251.195774 
L 89.918474 251.195774 
z
" style="fill:#1f77b4;"/>
   </g>
   <g id="patch_18">
    <path clip-path="url(#p7937d9265a)" d="M 91.537355 273.312 
L 93.156236 273.312 
L 93.156236 253.586717 
L 91.537355 253.586717 
z
" style="fill:#1f77b4;"/>
   </g>
   <g id="patch_19">
    <path clip-path="url(#p7937d9265a)" d="M 93.156236 273.312 
L 94.775117 273.312 
L 94.775117 252.988981 
L 93.156236 252.988981 
z
" style="fill:#1f77b4;"/>
   </g>
   <g id="patch_20">
    <path clip-path="url(#p7937d9265a)" d="M 94.775117 273.312 
L 96.393997 273.312 
L 96.393997 247.609358 
L 94.775117 247.609358 
z
" style="fill:#1f77b4;"/>
   </g>
   <g id="patch_21">
    <path clip-path="url(#p7937d9265a)" d="M 96.393997 273.312 
L 98.012878 273.312 
L 98.012878 248.80483 
L 96.393997 248.80483 
z
" style="fill:#1f77b4;"/>
   </g>
   <g id="patch_22">
    <path clip-path="url(#p7937d9265a)" d="M 98.012878 273.312 
L 99.631759 273.312 
L 99.631759 251.793509 
L 98.012878 251.793509 
z
" style="fill:#1f77b4;"/>
   </g>
   <g id="patch_23">
    <path clip-path="url(#p7937d9265a)" d="M 99.631759 273.312 
L 101.25064 273.312 
L 101.25064 247.011623 
L 99.631759 247.011623 
z
" style="fill:#1f77b4;"/>
   </g>
   <g id="patch_24">
    <path clip-path="url(#p7937d9265a)" d="M 101.25064 273.312 
L 102.869521 273.312 
L 102.869521 252.988981 
L 101.25064 252.988981 
z
" style="fill:#1f77b4;"/>
   </g>
   <g id="patch_25">
    <path clip-path="url(#p7937d9265a)" d="M 102.869521 273.312 
L 104.488402 273.312 
L 104.488402 254.782189 
L 102.869521 254.782189 
z
" style="fill:#1f77b4;"/>
   </g>
   <g id="patch_26">
    <path clip-path="url(#p7937d9265a)" d="M 104.488402 273.312 
L 106.107282 273.312 
L 106.107282 244.620679 
L 104.488402 244.620679 
z
" style="fill:#1f77b4;"/>
   </g>
   <g id="patch_27">
    <path clip-path="url(#p7937d9265a)" d="M 106.107282 273.312 
L 107.726163 273.312 
L 107.726163 243.425208 
L 106.107282 243.425208 
z
" style="fill:#1f77b4;"/>
   </g>
   <g id="patch_28">
    <path clip-path="url(#p7937d9265a)" d="M 107.726163 273.312 
L 109.345044 273.312 
L 109.345044 246.413887 
L 107.726163 246.413887 
z
" style="fill:#1f77b4;"/>
   </g>
   <g id="patch_29">
    <path clip-path="url(#p7937d9265a)" d="M 109.345044 273.312 
L 110.963925 273.312 
L 110.963925 237.447849 
L 109.345044 237.447849 
z
" style="fill:#1f77b4;"/>
   </g>
   <g id="patch_30">
    <path clip-path="url(#p7937d9265a)" d="M 110.963925 273.312 
L 112.582806 273.312 
L 112.582806 244.022943 
L 110.963925 244.022943 
z
" style="fill:#1f77b4;"/>
   </g>
   <g id="patch_31">
    <path clip-path="url(#p7937d9265a)" d="M 112.582806 273.312 
L 114.201687 273.312 
L 114.201687 238.045585 
L 112.582806 238.045585 
z
" style="fill:#1f77b4;"/>
   </g>
   <g id="patch_32">
    <path clip-path="url(#p7937d9265a)" d="M 114.201687 273.312 
L 115.820568 273.312 
L 115.820568 232.665962 
L 114.201687 232.665962 
z
" style="fill:#1f77b4;"/>
   </g>
   <g id="patch_33">
    <path clip-path="url(#p7937d9265a)" d="M 115.820568 273.312 
L 117.439448 273.312 
L 117.439448 238.643321 
L 115.820568 238.643321 
z
" style="fill:#1f77b4;"/>
   </g>
   <g id="patch_34">
    <path clip-path="url(#p7937d9265a)" d="M 117.439448 273.312 
L 119.058329 273.312 
L 119.058329 232.068226 
L 117.439448 232.068226 
z
" style="fill:#1f77b4;"/>
   </g>
   <g id="patch_35">
    <path clip-path="url(#p7937d9265a)" d="M 119.058329 273.312 
L 120.67721 273.312 
L 120.67721 234.45917 
L 119.058329 234.45917 
z
" style="fill:#1f77b4;"/>
   </g>
   <g id="patch_36">
    <path clip-path="url(#p7937d9265a)" d="M 120.67721 273.312 
L 122.296091 273.312 
L 122.296091 238.045585 
L 120.67721 238.045585 
z
" style="fill:#1f77b4;"/>
   </g>
   <g id="patch_37">
    <path clip-path="url(#p7937d9265a)" d="M 122.296091 273.312 
L 123.914972 273.312 
L 123.914972 238.643321 
L 122.296091 238.643321 
z
" style="fill:#1f77b4;"/>
   </g>
   <g id="patch_38">
    <path clip-path="url(#p7937d9265a)" d="M 123.914972 273.312 
L 125.533853 273.312 
L 125.533853 244.022943 
L 123.914972 244.022943 
z
" style="fill:#1f77b4;"/>
   </g>
   <g id="patch_39">
    <path clip-path="url(#p7937d9265a)" d="M 125.533853 273.312 
L 127.152733 273.312 
L 127.152733 224.895396 
L 125.533853 224.895396 
z
" style="fill:#1f77b4;"/>
   </g>
   <g id="patch_40">
    <path clip-path="url(#p7937d9265a)" d="M 127.152733 273.312 
L 128.771614 273.312 
L 128.771614 226.090868 
L 127.152733 226.090868 
z
" style="fill:#1f77b4;"/>
   </g>
   <g id="patch_41">
    <path clip-path="url(#p7937d9265a)" d="M 128.771614 273.312 
L 130.390495 273.312 
L 130.390495 223.102189 
L 128.771614 223.102189 
z
" style="fill:#1f77b4;"/>
   </g>
   <g id="patch_42">
    <path clip-path="url(#p7937d9265a)" d="M 130.390495 273.312 
L 132.009376 273.312 
L 132.009376 233.263698 
L 130.390495 233.263698 
z
" style="fill:#1f77b4;"/>
   </g>
   <g id="patch_43">
    <path clip-path="url(#p7937d9265a)" d="M 132.009376 273.312 
L 133.628257 273.312 
L 133.628257 227.28634 
L 132.009376 227.28634 
z
" style="fill:#1f77b4;"/>
   </g>
   <g id="patch_44">
    <path clip-path="url(#p7937d9265a)" d="M 133.628257 273.312 
L 135.247138 273.312 
L 135.247138 224.29766 
L 133.628257 224.29766 
z
" style="fill:#1f77b4;"/>
   </g>
   <g id="patch_45">
    <path clip-path="url(#p7937d9265a)" d="M 135.247138 273.312 
L 136.866018 273.312 
L 136.866018 214.136151 
L 135.247138 214.136151 
z
" style="fill:#1f77b4;"/>
   </g>
   <g id="patch_46">
    <path clip-path="url(#p7937d9265a)" d="M 136.866018 273.312 
L 138.484899 273.312 
L 138.484899 214.733887 
L 136.866018 214.733887 
z
" style="fill:#1f77b4;"/>
   </g>
   <g id="patch_47">
    <path clip-path="url(#p7937d9265a)" d="M 138.484899 273.312 
L 140.10378 273.312 
L 140.10378 221.308981 
L 138.484899 221.308981 
z
" style="fill:#1f77b4;"/>
   </g>
   <g id="patch_48">
    <path clip-path="url(#p7937d9265a)" d="M 140.10378 273.312 
L 141.722661 273.312 
L 141.722661 214.136151 
L 140.10378 214.136151 
z
" style="fill:#1f77b4;"/>
   </g>
   <g id="patch_49">
    <path clip-path="url(#p7937d9265a)" d="M 141.722661 273.312 
L 143.341542 273.312 
L 143.341542 205.170113 
L 141.722661 205.170113 
z
" style="fill:#1f77b4;"/>
   </g>
   <g id="patch_50">
    <path clip-path="url(#p7937d9265a)" d="M 143.341542 273.312 
L 144.960423 273.312 
L 144.960423 213.538415 
L 143.341542 213.538415 
z
" style="fill:#1f77b4;"/>
   </g>
   <g id="patch_51">
    <path clip-path="url(#p7937d9265a)" d="M 144.960423 273.312 
L 146.579303 273.312 
L 146.579303 217.12483 
L 144.960423 217.12483 
z
" style="fill:#1f77b4;"/>
   </g>
   <g id="patch_52">
    <path clip-path="url(#p7937d9265a)" d="M 146.579303 273.312 
L 148.198184 273.312 
L 148.198184 219.515774 
L 146.579303 219.515774 
z
" style="fill:#1f77b4;"/>
   </g>
   <g id="patch_53">
    <path clip-path="url(#p7937d9265a)" d="M 148.198184 273.312 
L 149.817065 273.312 
L 149.817065 215.331623 
L 148.198184 215.331623 
z
" style="fill:#1f77b4;"/>
   </g>
   <g id="patch_54">
    <path clip-path="url(#p7937d9265a)" d="M 149.817065 273.312 
L 151.435946 273.312 
L 151.435946 214.136151 
L 149.817065 214.136151 
z
" style="fill:#1f77b4;"/>
   </g>
   <g id="patch_55">
    <path clip-path="url(#p7937d9265a)" d="M 151.435946 273.312 
L 153.054827 273.312 
L 153.054827 212.342943 
L 151.435946 212.342943 
z
" style="fill:#1f77b4;"/>
   </g>
   <g id="patch_56">
    <path clip-path="url(#p7937d9265a)" d="M 153.054827 273.312 
L 154.673708 273.312 
L 154.673708 211.147472 
L 153.054827 211.147472 
z
" style="fill:#1f77b4;"/>
   </g>
   <g id="patch_57">
    <path clip-path="url(#p7937d9265a)" d="M 154.673708 273.312 
L 156.292588 273.312 
L 156.292588 209.952 
L 154.673708 209.952 
z
" style="fill:#1f77b4;"/>
   </g>
   <g id="patch_58">
    <path clip-path="url(#p7937d9265a)" d="M 156.292588 273.312 
L 157.911469 273.312 
L 157.911469 211.147472 
L 156.292588 211.147472 
z
" style="fill:#1f77b4;"/>
   </g>
   <g id="patch_59">
    <path clip-path="url(#p7937d9265a)" d="M 157.911469 273.312 
L 159.53035 273.312 
L 159.53035 198.595019 
L 157.911469 198.595019 
z
" style="fill:#1f77b4;"/>
   </g>
   <g id="patch_60">
    <path clip-path="url(#p7937d9265a)" d="M 159.53035 273.312 
L 161.149231 273.312 
L 161.149231 207.561057 
L 159.53035 207.561057 
z
" style="fill:#1f77b4;"/>
   </g>
   <g id="patch_61">
    <path clip-path="url(#p7937d9265a)" d="M 161.149231 273.312 
L 162.768112 273.312 
L 162.768112 202.181434 
L 161.149231 202.181434 
z
" style="fill:#1f77b4;"/>
   </g>
   <g id="patch_62">
    <path clip-path="url(#p7937d9265a)" d="M 162.768112 273.312 
L 164.386993 273.312 
L 164.386993 200.388226 
L 162.768112 200.388226 
z
" style="fill:#1f77b4;"/>
   </g>
   <g id="patch_63">
    <path clip-path="url(#p7937d9265a)" d="M 164.386993 273.312 
L 166.005873 273.312 
L 166.005873 205.767849 
L 164.386993 205.767849 
z
" style="fill:#1f77b4;"/>
   </g>
   <g id="patch_64">
    <path clip-path="url(#p7937d9265a)" d="M 166.005873 273.312 
L 167.624754 273.312 
L 167.624754 207.561057 
L 166.005873 207.561057 
z
" style="fill:#1f77b4;"/>
   </g>
   <g id="patch_65">
    <path clip-path="url(#p7937d9265a)" d="M 167.624754 273.312 
L 169.243635 273.312 
L 169.243635 185.44483 
L 167.624754 185.44483 
z
" style="fill:#1f77b4;"/>
   </g>
   <g id="patch_66">
    <path clip-path="url(#p7937d9265a)" d="M 169.243635 273.312 
L 170.862516 273.312 
L 170.862516 190.226717 
L 169.243635 190.226717 
z
" style="fill:#1f77b4;"/>
   </g>
   <g id="patch_67">
    <path clip-path="url(#p7937d9265a)" d="M 170.862516 273.312 
L 172.481397 273.312 
L 172.481397 190.824453 
L 170.862516 190.824453 
z
" style="fill:#1f77b4;"/>
   </g>
   <g id="patch_68">
    <path clip-path="url(#p7937d9265a)" d="M 172.481397 273.312 
L 174.100278 273.312 
L 174.100278 192.019925 
L 172.481397 192.019925 
z
" style="fill:#1f77b4;"/>
   </g>
   <g id="patch_69">
    <path clip-path="url(#p7937d9265a)" d="M 174.100278 273.312 
L 175.719159 273.312 
L 175.719159 178.869736 
L 174.100278 178.869736 
z
" style="fill:#1f77b4;"/>
   </g>
   <g id="patch_70">
    <path clip-path="url(#p7937d9265a)" d="M 175.719159 273.312 
L 177.338039 273.312 
L 177.338039 189.031245 
L 175.719159 189.031245 
z
" style="fill:#1f77b4;"/>
   </g>
   <g id="patch_71">
    <path clip-path="url(#p7937d9265a)" d="M 177.338039 273.312 
L 178.95692 273.312 
L 178.95692 182.456151 
L 177.338039 182.456151 
z
" style="fill:#1f77b4;"/>
   </g>
   <g id="patch_72">
    <path clip-path="url(#p7937d9265a)" d="M 178.95692 273.312 
L 180.575801 273.312 
L 180.575801 186.042566 
L 178.95692 186.042566 
z
" style="fill:#1f77b4;"/>
   </g>
   <g id="patch_73">
    <path clip-path="url(#p7937d9265a)" d="M 180.575801 273.312 
L 182.194682 273.312 
L 182.194682 180.065208 
L 180.575801 180.065208 
z
" style="fill:#1f77b4;"/>
   </g>
   <g id="patch_74">
    <path clip-path="url(#p7937d9265a)" d="M 182.194682 273.312 
L 183.813563 273.312 
L 183.813563 192.019925 
L 182.194682 192.019925 
z
" style="fill:#1f77b4;"/>
   </g>
   <g id="patch_75">
    <path clip-path="url(#p7937d9265a)" d="M 183.813563 273.312 
L 185.432444 273.312 
L 185.432444 191.422189 
L 183.813563 191.422189 
z
" style="fill:#1f77b4;"/>
   </g>
   <g id="patch_76">
    <path clip-path="url(#p7937d9265a)" d="M 185.432444 273.312 
L 187.051324 273.312 
L 187.051324 188.433509 
L 185.432444 188.433509 
z
" style="fill:#1f77b4;"/>
   </g>
   <g id="patch_77">
    <path clip-path="url(#p7937d9265a)" d="M 187.051324 273.312 
L 188.670205 273.312 
L 188.670205 181.260679 
L 187.051324 181.260679 
z
" style="fill:#1f77b4;"/>
   </g>
   <g id="patch_78">
    <path clip-path="url(#p7937d9265a)" d="M 188.670205 273.312 
L 190.289086 273.312 
L 190.289086 186.640302 
L 188.670205 186.640302 
z
" style="fill:#1f77b4;"/>
   </g>
   <g id="patch_79">
    <path clip-path="url(#p7937d9265a)" d="M 190.289086 273.312 
L 191.907967 273.312 
L 191.907967 172.892377 
L 190.289086 172.892377 
z
" style="fill:#1f77b4;"/>
   </g>
   <g id="patch_80">
    <path clip-path="url(#p7937d9265a)" d="M 191.907967 273.312 
L 193.526848 273.312 
L 193.526848 187.238038 
L 191.907967 187.238038 
z
" style="fill:#1f77b4;"/>
   </g>
   <g id="patch_81">
    <path clip-path="url(#p7937d9265a)" d="M 193.526848 273.312 
L 195.145729 273.312 
L 195.145729 177.674264 
L 193.526848 177.674264 
z
" style="fill:#1f77b4;"/>
   </g>
   <g id="patch_82">
    <path clip-path="url(#p7937d9265a)" d="M 195.145729 273.312 
L 196.764609 273.312 
L 196.764609 193.215396 
L 195.145729 193.215396 
z
" style="fill:#1f77b4;"/>
   </g>
   <g id="patch_83">
    <path clip-path="url(#p7937d9265a)" d="M 196.764609 273.312 
L 198.38349 273.312 
L 198.38349 169.305962 
L 196.764609 169.305962 
z
" style="fill:#1f77b4;"/>
   </g>
   <g id="patch_84">
    <path clip-path="url(#p7937d9265a)" d="M 198.38349 273.312 
L 200.002371 273.312 
L 200.002371 176.478792 
L 198.38349 176.478792 
z
" style="fill:#1f77b4;"/>
   </g>
   <g id="patch_85">
    <path clip-path="url(#p7937d9265a)" d="M 200.002371 273.312 
L 201.621252 273.312 
L 201.621252 172.294642 
L 200.002371 172.294642 
z
" style="fill:#1f77b4;"/>
   </g>
   <g id="patch_86">
    <path clip-path="url(#p7937d9265a)" d="M 201.621252 273.312 
L 203.240133 273.312 
L 203.240133 173.490113 
L 201.621252 173.490113 
z
" style="fill:#1f77b4;"/>
   </g>
   <g id="patch_87">
    <path clip-path="url(#p7937d9265a)" d="M 203.240133 273.312 
L 204.859014 273.312 
L 204.859014 168.110491 
L 203.240133 168.110491 
z
" style="fill:#1f77b4;"/>
   </g>
   <g id="patch_88">
    <path clip-path="url(#p7937d9265a)" d="M 204.859014 273.312 
L 206.477894 273.312 
L 206.477894 159.144453 
L 204.859014 159.144453 
z
" style="fill:#1f77b4;"/>
   </g>
   <g id="patch_89">
    <path clip-path="url(#p7937d9265a)" d="M 206.477894 273.312 
L 208.096775 273.312 
L 208.096775 169.305962 
L 206.477894 169.305962 
z
" style="fill:#1f77b4;"/>
   </g>
   <g id="patch_90">
    <path clip-path="url(#p7937d9265a)" d="M 208.096775 273.312 
L 209.715656 273.312 
L 209.715656 169.903698 
L 208.096775 169.903698 
z
" style="fill:#1f77b4;"/>
   </g>
   <g id="patch_91">
    <path clip-path="url(#p7937d9265a)" d="M 209.715656 273.312 
L 211.334537 273.312 
L 211.334537 160.93766 
L 209.715656 160.93766 
z
" style="fill:#1f77b4;"/>
   </g>
   <g id="patch_92">
    <path clip-path="url(#p7937d9265a)" d="M 211.334537 273.312 
L 212.953418 273.312 
L 212.953418 164.524075 
L 211.334537 164.524075 
z
" style="fill:#1f77b4;"/>
   </g>
   <g id="patch_93">
    <path clip-path="url(#p7937d9265a)" d="M 212.953418 273.312 
L 214.572299 273.312 
L 214.572299 164.524075 
L 212.953418 164.524075 
z
" style="fill:#1f77b4;"/>
   </g>
   <g id="patch_94">
    <path clip-path="url(#p7937d9265a)" d="M 214.572299 273.312 
L 216.191179 273.312 
L 216.191179 168.708226 
L 214.572299 168.708226 
z
" style="fill:#1f77b4;"/>
   </g>
   <g id="patch_95">
    <path clip-path="url(#p7937d9265a)" d="M 216.191179 273.312 
L 217.81006 273.312 
L 217.81006 163.92634 
L 216.191179 163.92634 
z
" style="fill:#1f77b4;"/>
   </g>
   <g id="patch_96">
    <path clip-path="url(#p7937d9265a)" d="M 217.81006 273.312 
L 219.428941 273.312 
L 219.428941 151.971623 
L 217.81006 151.971623 
z
" style="fill:#1f77b4;"/>
   </g>
   <g id="patch_97">
    <path clip-path="url(#p7937d9265a)" d="M 219.428941 273.312 
L 221.047822 273.312 
L 221.047822 156.753509 
L 219.428941 156.753509 
z
" style="fill:#1f77b4;"/>
   </g>
   <g id="patch_98">
    <path clip-path="url(#p7937d9265a)" d="M 221.047822 273.312 
L 222.666703 273.312 
L 222.666703 164.524075 
L 221.047822 164.524075 
z
" style="fill:#1f77b4;"/>
   </g>
   <g id="patch_99">
    <path clip-path="url(#p7937d9265a)" d="M 222.666703 273.312 
L 224.285584 273.312 
L 224.285584 154.960302 
L 222.666703 154.960302 
z
" style="fill:#1f77b4;"/>
   </g>
   <g id="patch_100">
    <path clip-path="url(#p7937d9265a)" d="M 224.285584 273.312 
L 225.904464 273.312 
L 225.904464 168.110491 
L 224.285584 168.110491 
z
" style="fill:#1f77b4;"/>
   </g>
   <g id="patch_101">
    <path clip-path="url(#p7937d9265a)" d="M 225.904464 273.312 
L 227.523345 273.312 
L 227.523345 168.110491 
L 225.904464 168.110491 
z
" style="fill:#1f77b4;"/>
   </g>
   <g id="patch_102">
    <path clip-path="url(#p7937d9265a)" d="M 227.523345 273.312 
L 229.142226 273.312 
L 229.142226 157.948981 
L 227.523345 157.948981 
z
" style="fill:#1f77b4;"/>
   </g>
   <g id="patch_103">
    <path clip-path="url(#p7937d9265a)" d="M 229.142226 273.312 
L 230.761107 273.312 
L 230.761107 158.546717 
L 229.142226 158.546717 
z
" style="fill:#1f77b4;"/>
   </g>
   <g id="patch_104">
    <path clip-path="url(#p7937d9265a)" d="M 230.761107 273.312 
L 232.379988 273.312 
L 232.379988 160.339925 
L 230.761107 160.339925 
z
" style="fill:#1f77b4;"/>
   </g>
   <g id="patch_105">
    <path clip-path="url(#p7937d9265a)" d="M 232.379988 273.312 
L 233.998869 273.312 
L 233.998869 144.798792 
L 232.379988 144.798792 
z
" style="fill:#1f77b4;"/>
   </g>
   <g id="patch_106">
    <path clip-path="url(#p7937d9265a)" d="M 233.998869 273.312 
L 235.61775 273.312 
L 235.61775 138.821434 
L 233.998869 138.821434 
z
" style="fill:#1f77b4;"/>
   </g>
   <g id="patch_107">
    <path clip-path="url(#p7937d9265a)" d="M 235.61775 273.312 
L 237.23663 273.312 
L 237.23663 147.787472 
L 235.61775 147.787472 
z
" style="fill:#1f77b4;"/>
   </g>
   <g id="patch_108">
    <path clip-path="url(#p7937d9265a)" d="M 237.23663 273.312 
L 238.855511 273.312 
L 238.855511 135.235019 
L 237.23663 135.235019 
z
" style="fill:#1f77b4;"/>
   </g>
   <g id="patch_109">
    <path clip-path="url(#p7937d9265a)" d="M 238.855511 273.312 
L 240.474392 273.312 
L 240.474392 146.592 
L 238.855511 146.592 
z
" style="fill:#1f77b4;"/>
   </g>
   <g id="patch_110">
    <path clip-path="url(#p7937d9265a)" d="M 240.474392 273.312 
L 242.093273 273.312 
L 242.093273 130.453132 
L 240.474392 130.453132 
z
" style="fill:#1f77b4;"/>
   </g>
   <g id="patch_111">
    <path clip-path="url(#p7937d9265a)" d="M 242.093273 273.312 
L 243.712154 273.312 
L 243.712154 131.050868 
L 242.093273 131.050868 
z
" style="fill:#1f77b4;"/>
   </g>
   <g id="patch_112">
    <path clip-path="url(#p7937d9265a)" d="M 243.712154 273.312 
L 245.331035 273.312 
L 245.331035 155.558038 
L 243.712154 155.558038 
z
" style="fill:#1f77b4;"/>
   </g>
   <g id="patch_113">
    <path clip-path="url(#p7937d9265a)" d="M 245.331035 273.312 
L 246.949915 273.312 
L 246.949915 141.212377 
L 245.331035 141.212377 
z
" style="fill:#1f77b4;"/>
   </g>
   <g id="patch_114">
    <path clip-path="url(#p7937d9265a)" d="M 246.949915 273.312 
L 248.568796 273.312 
L 248.568796 143.005585 
L 246.949915 143.005585 
z
" style="fill:#1f77b4;"/>
   </g>
   <g id="patch_115">
    <path clip-path="url(#p7937d9265a)" d="M 248.568796 273.312 
L 250.187677 273.312 
L 250.187677 150.776151 
L 248.568796 150.776151 
z
" style="fill:#1f77b4;"/>
   </g>
   <g id="patch_116">
    <path clip-path="url(#p7937d9265a)" d="M 250.187677 273.312 
L 251.806558 273.312 
L 251.806558 119.096151 
L 250.187677 119.096151 
z
" style="fill:#1f77b4;"/>
   </g>
   <g id="patch_117">
    <path clip-path="url(#p7937d9265a)" d="M 251.806558 273.312 
L 253.425439 273.312 
L 253.425439 132.844075 
L 251.806558 132.844075 
z
" style="fill:#1f77b4;"/>
   </g>
   <g id="patch_118">
    <path clip-path="url(#p7937d9265a)" d="M 253.425439 273.312 
L 255.04432 273.312 
L 255.04432 128.062189 
L 253.425439 128.062189 
z
" style="fill:#1f77b4;"/>
   </g>
   <g id="patch_119">
    <path clip-path="url(#p7937d9265a)" d="M 255.04432 273.312 
L 256.6632 273.312 
L 256.6632 128.062189 
L 255.04432 128.062189 
z
" style="fill:#1f77b4;"/>
   </g>
   <g id="patch_120">
    <path clip-path="url(#p7937d9265a)" d="M 256.6632 273.312 
L 258.282081 273.312 
L 258.282081 129.25766 
L 256.6632 129.25766 
z
" style="fill:#1f77b4;"/>
   </g>
   <g id="patch_121">
    <path clip-path="url(#p7937d9265a)" d="M 258.282081 273.312 
L 259.900962 273.312 
L 259.900962 134.637283 
L 258.282081 134.637283 
z
" style="fill:#1f77b4;"/>
   </g>
   <g id="patch_122">
    <path clip-path="url(#p7937d9265a)" d="M 259.900962 273.312 
L 261.519843 273.312 
L 261.519843 124.475774 
L 259.900962 124.475774 
z
" style="fill:#1f77b4;"/>
   </g>
   <g id="patch_123">
    <path clip-path="url(#p7937d9265a)" d="M 261.519843 273.312 
L 263.138724 273.312 
L 263.138724 133.441811 
L 261.519843 133.441811 
z
" style="fill:#1f77b4;"/>
   </g>
   <g id="patch_124">
    <path clip-path="url(#p7937d9265a)" d="M 263.138724 273.312 
L 264.757605 273.312 
L 264.757605 137.028226 
L 263.138724 137.028226 
z
" style="fill:#1f77b4;"/>
   </g>
   <g id="patch_125">
    <path clip-path="url(#p7937d9265a)" d="M 264.757605 273.312 
L 266.376485 273.312 
L 266.376485 130.453132 
L 264.757605 130.453132 
z
" style="fill:#1f77b4;"/>
   </g>
   <g id="patch_126">
    <path clip-path="url(#p7937d9265a)" d="M 266.376485 273.312 
L 267.995366 273.312 
L 267.995366 146.592 
L 266.376485 146.592 
z
" style="fill:#1f77b4;"/>
   </g>
   <g id="patch_127">
    <path clip-path="url(#p7937d9265a)" d="M 267.995366 273.312 
L 269.614247 273.312 
L 269.614247 122.08483 
L 267.995366 122.08483 
z
" style="fill:#1f77b4;"/>
   </g>
   <g id="patch_128">
    <path clip-path="url(#p7937d9265a)" d="M 269.614247 273.312 
L 271.233128 273.312 
L 271.233128 110.130113 
L 269.614247 110.130113 
z
" style="fill:#1f77b4;"/>
   </g>
   <g id="patch_129">
    <path clip-path="url(#p7937d9265a)" d="M 271.233128 273.312 
L 272.852009 273.312 
L 272.852009 122.08483 
L 271.233128 122.08483 
z
" style="fill:#1f77b4;"/>
   </g>
   <g id="patch_130">
    <path clip-path="url(#p7937d9265a)" d="M 272.852009 273.312 
L 274.47089 273.312 
L 274.47089 117.302943 
L 272.852009 117.302943 
z
" style="fill:#1f77b4;"/>
   </g>
   <g id="patch_131">
    <path clip-path="url(#p7937d9265a)" d="M 274.47089 273.312 
L 276.08977 273.312 
L 276.08977 111.923321 
L 274.47089 111.923321 
z
" style="fill:#1f77b4;"/>
   </g>
   <g id="patch_132">
    <path clip-path="url(#p7937d9265a)" d="M 276.08977 273.312 
L 277.708651 273.312 
L 277.708651 134.039547 
L 276.08977 134.039547 
z
" style="fill:#1f77b4;"/>
   </g>
   <g id="patch_133">
    <path clip-path="url(#p7937d9265a)" d="M 277.708651 273.312 
L 279.327532 273.312 
L 279.327532 127.464453 
L 277.708651 127.464453 
z
" style="fill:#1f77b4;"/>
   </g>
   <g id="patch_134">
    <path clip-path="url(#p7937d9265a)" d="M 279.327532 273.312 
L 280.946413 273.312 
L 280.946413 122.682566 
L 279.327532 122.682566 
z
" style="fill:#1f77b4;"/>
   </g>
   <g id="patch_135">
    <path clip-path="url(#p7937d9265a)" d="M 280.946413 273.312 
L 282.565294 273.312 
L 282.565294 126.268981 
L 280.946413 126.268981 
z
" style="fill:#1f77b4;"/>
   </g>
   <g id="patch_136">
    <path clip-path="url(#p7937d9265a)" d="M 282.565294 273.312 
L 284.184175 273.312 
L 284.184175 120.291623 
L 282.565294 120.291623 
z
" style="fill:#1f77b4;"/>
   </g>
   <g id="patch_137">
    <path clip-path="url(#p7937d9265a)" d="M 284.184175 273.312 
L 285.803055 273.312 
L 285.803055 115.509736 
L 284.184175 115.509736 
z
" style="fill:#1f77b4;"/>
   </g>
   <g id="patch_138">
    <path clip-path="url(#p7937d9265a)" d="M 285.803055 273.312 
L 287.421936 273.312 
L 287.421936 96.382189 
L 285.803055 96.382189 
z
" style="fill:#1f77b4;"/>
   </g>
   <g id="patch_139">
    <path clip-path="url(#p7937d9265a)" d="M 287.421936 273.312 
L 289.040817 273.312 
L 289.040817 116.107472 
L 287.421936 116.107472 
z
" style="fill:#1f77b4;"/>
   </g>
   <g id="patch_140">
    <path clip-path="url(#p7937d9265a)" d="M 289.040817 273.312 
L 290.659698 273.312 
L 290.659698 104.750491 
L 289.040817 104.750491 
z
" style="fill:#1f77b4;"/>
   </g>
   <g id="patch_141">
    <path clip-path="url(#p7937d9265a)" d="M 290.659698 273.312 
L 292.278579 273.312 
L 292.278579 113.118792 
L 290.659698 113.118792 
z
" style="fill:#1f77b4;"/>
   </g>
   <g id="patch_142">
    <path clip-path="url(#p7937d9265a)" d="M 292.278579 273.312 
L 293.89746 273.312 
L 293.89746 125.671245 
L 292.278579 125.671245 
z
" style="fill:#1f77b4;"/>
   </g>
   <g id="patch_143">
    <path clip-path="url(#p7937d9265a)" d="M 293.89746 273.312 
L 295.516341 273.312 
L 295.516341 95.186717 
L 293.89746 95.186717 
z
" style="fill:#1f77b4;"/>
   </g>
   <g id="patch_144">
    <path clip-path="url(#p7937d9265a)" d="M 295.516341 273.312 
L 297.135221 273.312 
L 297.135221 115.509736 
L 295.516341 115.509736 
z
" style="fill:#1f77b4;"/>
   </g>
   <g id="patch_145">
    <path clip-path="url(#p7937d9265a)" d="M 297.135221 273.312 
L 298.754102 273.312 
L 298.754102 100.56634 
L 297.135221 100.56634 
z
" style="fill:#1f77b4;"/>
   </g>
   <g id="patch_146">
    <path clip-path="url(#p7937d9265a)" d="M 298.754102 273.312 
L 300.372983 273.312 
L 300.372983 117.302943 
L 298.754102 117.302943 
z
" style="fill:#1f77b4;"/>
   </g>
   <g id="patch_147">
    <path clip-path="url(#p7937d9265a)" d="M 300.372983 273.312 
L 301.991864 273.312 
L 301.991864 96.979925 
L 300.372983 96.979925 
z
" style="fill:#1f77b4;"/>
   </g>
   <g id="patch_148">
    <path clip-path="url(#p7937d9265a)" d="M 301.991864 273.312 
L 303.610745 273.312 
L 303.610745 92.795774 
L 301.991864 92.795774 
z
" style="fill:#1f77b4;"/>
   </g>
   <g id="patch_149">
    <path clip-path="url(#p7937d9265a)" d="M 303.610745 273.312 
L 305.229626 273.312 
L 305.229626 105.945962 
L 303.610745 105.945962 
z
" style="fill:#1f77b4;"/>
   </g>
   <g id="patch_150">
    <path clip-path="url(#p7937d9265a)" d="M 305.229626 273.312 
L 306.848506 273.312 
L 306.848506 99.968604 
L 305.229626 99.968604 
z
" style="fill:#1f77b4;"/>
   </g>
   <g id="patch_151">
    <path clip-path="url(#p7937d9265a)" d="M 306.848506 273.312 
L 308.467387 273.312 
L 308.467387 83.829736 
L 306.848506 83.829736 
z
" style="fill:#1f77b4;"/>
   </g>
   <g id="patch_152">
    <path clip-path="url(#p7937d9265a)" d="M 308.467387 273.312 
L 310.086268 273.312 
L 310.086268 83.829736 
L 308.467387 83.829736 
z
" style="fill:#1f77b4;"/>
   </g>
   <g id="patch_153">
    <path clip-path="url(#p7937d9265a)" d="M 310.086268 273.312 
L 311.705149 273.312 
L 311.705149 93.393509 
L 310.086268 93.393509 
z
" style="fill:#1f77b4;"/>
   </g>
   <g id="patch_154">
    <path clip-path="url(#p7937d9265a)" d="M 311.705149 273.312 
L 313.32403 273.312 
L 313.32403 88.013887 
L 311.705149 88.013887 
z
" style="fill:#1f77b4;"/>
   </g>
   <g id="patch_155">
    <path clip-path="url(#p7937d9265a)" d="M 313.32403 273.312 
L 314.942911 273.312 
L 314.942911 91.002566 
L 313.32403 91.002566 
z
" style="fill:#1f77b4;"/>
   </g>
   <g id="patch_156">
    <path clip-path="url(#p7937d9265a)" d="M 314.942911 273.312 
L 316.561791 273.312 
L 316.561791 101.164075 
L 314.942911 101.164075 
z
" style="fill:#1f77b4;"/>
   </g>
   <g id="patch_157">
    <path clip-path="url(#p7937d9265a)" d="M 316.561791 273.312 
L 318.180672 273.312 
L 318.180672 83.232 
L 316.561791 83.232 
z
" style="fill:#1f77b4;"/>
   </g>
   <g id="patch_158">
    <path clip-path="url(#p7937d9265a)" d="M 318.180672 273.312 
L 319.799553 273.312 
L 319.799553 83.829736 
L 318.180672 83.829736 
z
" style="fill:#1f77b4;"/>
   </g>
   <g id="patch_159">
    <path clip-path="url(#p7937d9265a)" d="M 319.799553 273.312 
L 321.418434 273.312 
L 321.418434 88.013887 
L 319.799553 88.013887 
z
" style="fill:#1f77b4;"/>
   </g>
   <g id="patch_160">
    <path clip-path="url(#p7937d9265a)" d="M 321.418434 273.312 
L 323.037315 273.312 
L 323.037315 92.198038 
L 321.418434 92.198038 
z
" style="fill:#1f77b4;"/>
   </g>
   <g id="patch_161">
    <path clip-path="url(#p7937d9265a)" d="M 323.037315 273.312 
L 324.656196 273.312 
L 324.656196 77.254642 
L 323.037315 77.254642 
z
" style="fill:#1f77b4;"/>
   </g>
   <g id="patch_162">
    <path clip-path="url(#p7937d9265a)" d="M 324.656196 273.312 
L 326.275076 273.312 
L 326.275076 89.209358 
L 324.656196 89.209358 
z
" style="fill:#1f77b4;"/>
   </g>
   <g id="patch_163">
    <path clip-path="url(#p7937d9265a)" d="M 326.275076 273.312 
L 327.893957 273.312 
L 327.893957 80.243321 
L 326.275076 80.243321 
z
" style="fill:#1f77b4;"/>
   </g>
   <g id="patch_164">
    <path clip-path="url(#p7937d9265a)" d="M 327.893957 273.312 
L 329.512838 273.312 
L 329.512838 85.622943 
L 327.893957 85.622943 
z
" style="fill:#1f77b4;"/>
   </g>
   <g id="patch_165">
    <path clip-path="url(#p7937d9265a)" d="M 329.512838 273.312 
L 331.131719 273.312 
L 331.131719 71.875019 
L 329.512838 71.875019 
z
" style="fill:#1f77b4;"/>
   </g>
   <g id="patch_166">
    <path clip-path="url(#p7937d9265a)" d="M 331.131719 273.312 
L 332.7506 273.312 
L 332.7506 44.37917 
L 331.131719 44.37917 
z
" style="fill:#1f77b4;"/>
   </g>
   <g id="patch_167">
    <path clip-path="url(#p7937d9265a)" d="M 332.7506 273.312 
L 334.369481 273.312 
L 334.369481 61.713509 
L 332.7506 61.713509 
z
" style="fill:#1f77b4;"/>
   </g>
   <g id="patch_168">
    <path clip-path="url(#p7937d9265a)" d="M 334.369481 273.312 
L 335.988361 273.312 
L 335.988361 110.727849 
L 334.369481 110.727849 
z
" style="fill:#1f77b4;"/>
   </g>
   <g id="patch_169">
    <path clip-path="url(#p7937d9265a)" d="M 335.988361 273.312 
L 337.607242 273.312 
L 337.607242 79.047849 
L 335.988361 79.047849 
z
" style="fill:#1f77b4;"/>
   </g>
   <g id="patch_170">
    <path clip-path="url(#p7937d9265a)" d="M 337.607242 273.312 
L 339.226123 273.312 
L 339.226123 70.081811 
L 337.607242 70.081811 
z
" style="fill:#1f77b4;"/>
   </g>
   <g id="patch_171">
    <path clip-path="url(#p7937d9265a)" d="M 339.226123 273.312 
L 340.845004 273.312 
L 340.845004 71.277283 
L 339.226123 71.277283 
z
" style="fill:#1f77b4;"/>
   </g>
   <g id="patch_172">
    <path clip-path="url(#p7937d9265a)" d="M 340.845004 273.312 
L 342.463885 273.312 
L 342.463885 49.758792 
L 340.845004 49.758792 
z
" style="fill:#1f77b4;"/>
   </g>
   <g id="patch_173">
    <path clip-path="url(#p7937d9265a)" d="M 342.463885 273.312 
L 344.082766 273.312 
L 344.082766 73.668226 
L 342.463885 73.668226 
z
" style="fill:#1f77b4;"/>
   </g>
   <g id="patch_174">
    <path clip-path="url(#p7937d9265a)" d="M 344.082766 273.312 
L 345.701646 273.312 
L 345.701646 70.679547 
L 344.082766 70.679547 
z
" style="fill:#1f77b4;"/>
   </g>
   <g id="patch_175">
    <path clip-path="url(#p7937d9265a)" d="M 345.701646 273.312 
L 347.320527 273.312 
L 347.320527 76.656906 
L 345.701646 76.656906 
z
" style="fill:#1f77b4;"/>
   </g>
   <g id="patch_176">
    <path clip-path="url(#p7937d9265a)" d="M 347.320527 273.312 
L 348.939408 273.312 
L 348.939408 62.908981 
L 347.320527 62.908981 
z
" style="fill:#1f77b4;"/>
   </g>
   <g id="patch_177">
    <path clip-path="url(#p7937d9265a)" d="M 348.939408 273.312 
L 350.558289 273.312 
L 350.558289 46.172377 
L 348.939408 46.172377 
z
" style="fill:#1f77b4;"/>
   </g>
   <g id="patch_178">
    <path clip-path="url(#p7937d9265a)" d="M 350.558289 273.312 
L 352.17717 273.312 
L 352.17717 72.472755 
L 350.558289 72.472755 
z
" style="fill:#1f77b4;"/>
   </g>
   <g id="patch_179">
    <path clip-path="url(#p7937d9265a)" d="M 352.17717 273.312 
L 353.796051 273.312 
L 353.796051 77.254642 
L 352.17717 77.254642 
z
" style="fill:#1f77b4;"/>
   </g>
   <g id="patch_180">
    <path clip-path="url(#p7937d9265a)" d="M 353.796051 273.312 
L 355.414932 273.312 
L 355.414932 46.770113 
L 353.796051 46.770113 
z
" style="fill:#1f77b4;"/>
   </g>
   <g id="patch_181">
    <path clip-path="url(#p7937d9265a)" d="M 355.414932 273.312 
L 357.033812 273.312 
L 357.033812 59.920302 
L 355.414932 59.920302 
z
" style="fill:#1f77b4;"/>
   </g>
   <g id="patch_182">
    <path clip-path="url(#p7937d9265a)" d="M 357.033812 273.312 
L 358.652693 273.312 
L 358.652693 62.908981 
L 357.033812 62.908981 
z
" style="fill:#1f77b4;"/>
   </g>
   <g id="patch_183">
    <path clip-path="url(#p7937d9265a)" d="M 358.652693 273.312 
L 360.271574 273.312 
L 360.271574 62.908981 
L 358.652693 62.908981 
z
" style="fill:#1f77b4;"/>
   </g>
   <g id="patch_184">
    <path clip-path="url(#p7937d9265a)" d="M 360.271574 273.312 
L 361.890455 273.312 
L 361.890455 41.988226 
L 360.271574 41.988226 
z
" style="fill:#1f77b4;"/>
   </g>
   <g id="patch_185">
    <path clip-path="url(#p7937d9265a)" d="M 361.890455 273.312 
L 363.509336 273.312 
L 363.509336 54.540679 
L 361.890455 54.540679 
z
" style="fill:#1f77b4;"/>
   </g>
   <g id="patch_186">
    <path clip-path="url(#p7937d9265a)" d="M 363.509336 273.312 
L 365.128217 273.312 
L 365.128217 46.770113 
L 363.509336 46.770113 
z
" style="fill:#1f77b4;"/>
   </g>
   <g id="patch_187">
    <path clip-path="url(#p7937d9265a)" d="M 365.128217 273.312 
L 366.747097 273.312 
L 366.747097 64.104453 
L 365.128217 64.104453 
z
" style="fill:#1f77b4;"/>
   </g>
   <g id="patch_188">
    <path clip-path="url(#p7937d9265a)" d="M 366.747097 273.312 
L 368.365978 273.312 
L 368.365978 64.702189 
L 366.747097 64.702189 
z
" style="fill:#1f77b4;"/>
   </g>
   <g id="patch_189">
    <path clip-path="url(#p7937d9265a)" d="M 368.365978 273.312 
L 369.984859 273.312 
L 369.984859 74.863698 
L 368.365978 74.863698 
z
" style="fill:#1f77b4;"/>
   </g>
   <g id="patch_190">
    <path clip-path="url(#p7937d9265a)" d="M 369.984859 273.312 
L 371.60374 273.312 
L 371.60374 43.781434 
L 369.984859 43.781434 
z
" style="fill:#1f77b4;"/>
   </g>
   <g id="patch_191">
    <path clip-path="url(#p7937d9265a)" d="M 371.60374 273.312 
L 373.222621 273.312 
L 373.222621 66.495396 
L 371.60374 66.495396 
z
" style="fill:#1f77b4;"/>
   </g>
   <g id="patch_192">
    <path clip-path="url(#p7937d9265a)" d="M 373.222621 273.312 
L 374.841502 273.312 
L 374.841502 63.506717 
L 373.222621 63.506717 
z
" style="fill:#1f77b4;"/>
   </g>
   <g id="patch_193">
    <path clip-path="url(#p7937d9265a)" d="M 374.841502 273.312 
L 376.460382 273.312 
L 376.460382 55.138415 
L 374.841502 55.138415 
z
" style="fill:#1f77b4;"/>
   </g>
   <g id="patch_194">
    <path clip-path="url(#p7937d9265a)" d="M 376.460382 273.312 
L 378.079263 273.312 
L 378.079263 40.195019 
L 376.460382 40.195019 
z
" style="fill:#1f77b4;"/>
   </g>
   <g id="patch_195">
    <path clip-path="url(#p7937d9265a)" d="M 378.079263 273.312 
L 379.698144 273.312 
L 379.698144 31.228981 
L 378.079263 31.228981 
z
" style="fill:#1f77b4;"/>
   </g>
   <g id="patch_196">
    <path clip-path="url(#p7937d9265a)" d="M 379.698144 273.312 
L 381.317025 273.312 
L 381.317025 43.781434 
L 379.698144 43.781434 
z
" style="fill:#1f77b4;"/>
   </g>
   <g id="patch_197">
    <path clip-path="url(#p7937d9265a)" d="M 381.317025 273.312 
L 382.935906 273.312 
L 382.935906 59.920302 
L 381.317025 59.920302 
z
" style="fill:#1f77b4;"/>
   </g>
   <g id="patch_198">
    <path clip-path="url(#p7937d9265a)" d="M 382.935906 273.312 
L 384.554787 273.312 
L 384.554787 31.826717 
L 382.935906 31.826717 
z
" style="fill:#1f77b4;"/>
   </g>
   <g id="patch_199">
    <path clip-path="url(#p7937d9265a)" d="M 384.554787 273.312 
L 386.173667 273.312 
L 386.173667 43.781434 
L 384.554787 43.781434 
z
" style="fill:#1f77b4;"/>
   </g>
   <g id="patch_200">
    <path clip-path="url(#p7937d9265a)" d="M 386.173667 273.312 
L 387.792548 273.312 
L 387.792548 37.20634 
L 386.173667 37.20634 
z
" style="fill:#1f77b4;"/>
   </g>
   <g id="patch_201">
    <path clip-path="url(#p7937d9265a)" d="M 387.792548 273.312 
L 389.411429 273.312 
L 389.411429 38.999547 
L 387.792548 38.999547 
z
" style="fill:#1f77b4;"/>
   </g>
   <g id="patch_202">
    <path clip-path="url(#p7937d9265a)" d="M 389.411429 273.312 
L 391.03031 273.312 
L 391.03031 19.872 
L 389.411429 19.872 
z
" style="fill:#1f77b4;"/>
   </g>
   <g id="matplotlib.axis_1">
    <g id="xtick_1">
     <g id="line2d_1">
      <defs>
       <path d="M 0 0 
L 0 3.5 
" id="mb054703fc3" style="stroke:#000000;stroke-width:0.8;"/>
      </defs>
      <g>
       <use style="stroke:#000000;stroke-width:0.8;" x="66.376477" xlink:href="#mb054703fc3" y="273.312"/>
      </g>
     </g>
     <g id="text_1">
      <!-- 0.0 -->
      <g transform="translate(58.424915 287.910437)scale(0.1 -0.1)">
       <defs>
        <path d="M 2034 4250 
Q 1547 4250 1301 3770 
Q 1056 3291 1056 2328 
Q 1056 1369 1301 889 
Q 1547 409 2034 409 
Q 2525 409 2770 889 
Q 3016 1369 3016 2328 
Q 3016 3291 2770 3770 
Q 2525 4250 2034 4250 
z
M 2034 4750 
Q 2819 4750 3233 4129 
Q 3647 3509 3647 2328 
Q 3647 1150 3233 529 
Q 2819 -91 2034 -91 
Q 1250 -91 836 529 
Q 422 1150 422 2328 
Q 422 3509 836 4129 
Q 1250 4750 2034 4750 
z
" id="DejaVuSans-30" transform="scale(0.015625)"/>
        <path d="M 684 794 
L 1344 794 
L 1344 0 
L 684 0 
L 684 794 
z
" id="DejaVuSans-2e" transform="scale(0.015625)"/>
       </defs>
       <use xlink:href="#DejaVuSans-30"/>
       <use x="63.623047" xlink:href="#DejaVuSans-2e"/>
       <use x="95.410156" xlink:href="#DejaVuSans-30"/>
      </g>
     </g>
    </g>
    <g id="xtick_2">
     <g id="line2d_2">
      <g>
       <use style="stroke:#000000;stroke-width:0.8;" x="131.307386" xlink:href="#mb054703fc3" y="273.312"/>
      </g>
     </g>
     <g id="text_2">
      <!-- 0.2 -->
      <g transform="translate(123.355824 287.910437)scale(0.1 -0.1)">
       <defs>
        <path d="M 1228 531 
L 3431 531 
L 3431 0 
L 469 0 
L 469 531 
Q 828 903 1448 1529 
Q 2069 2156 2228 2338 
Q 2531 2678 2651 2914 
Q 2772 3150 2772 3378 
Q 2772 3750 2511 3984 
Q 2250 4219 1831 4219 
Q 1534 4219 1204 4116 
Q 875 4013 500 3803 
L 500 4441 
Q 881 4594 1212 4672 
Q 1544 4750 1819 4750 
Q 2544 4750 2975 4387 
Q 3406 4025 3406 3419 
Q 3406 3131 3298 2873 
Q 3191 2616 2906 2266 
Q 2828 2175 2409 1742 
Q 1991 1309 1228 531 
z
" id="DejaVuSans-32" transform="scale(0.015625)"/>
       </defs>
       <use xlink:href="#DejaVuSans-30"/>
       <use x="63.623047" xlink:href="#DejaVuSans-2e"/>
       <use x="95.410156" xlink:href="#DejaVuSans-32"/>
      </g>
     </g>
    </g>
    <g id="xtick_3">
     <g id="line2d_3">
      <g>
       <use style="stroke:#000000;stroke-width:0.8;" x="196.238295" xlink:href="#mb054703fc3" y="273.312"/>
      </g>
     </g>
     <g id="text_3">
      <!-- 0.4 -->
      <g transform="translate(188.286733 287.910437)scale(0.1 -0.1)">
       <defs>
        <path d="M 2419 4116 
L 825 1625 
L 2419 1625 
L 2419 4116 
z
M 2253 4666 
L 3047 4666 
L 3047 1625 
L 3713 1625 
L 3713 1100 
L 3047 1100 
L 3047 0 
L 2419 0 
L 2419 1100 
L 313 1100 
L 313 1709 
L 2253 4666 
z
" id="DejaVuSans-34" transform="scale(0.015625)"/>
       </defs>
       <use xlink:href="#DejaVuSans-30"/>
       <use x="63.623047" xlink:href="#DejaVuSans-2e"/>
       <use x="95.410156" xlink:href="#DejaVuSans-34"/>
      </g>
     </g>
    </g>
    <g id="xtick_4">
     <g id="line2d_4">
      <g>
       <use style="stroke:#000000;stroke-width:0.8;" x="261.169205" xlink:href="#mb054703fc3" y="273.312"/>
      </g>
     </g>
     <g id="text_4">
      <!-- 0.6 -->
      <g transform="translate(253.217642 287.910437)scale(0.1 -0.1)">
       <defs>
        <path d="M 2113 2584 
Q 1688 2584 1439 2293 
Q 1191 2003 1191 1497 
Q 1191 994 1439 701 
Q 1688 409 2113 409 
Q 2538 409 2786 701 
Q 3034 994 3034 1497 
Q 3034 2003 2786 2293 
Q 2538 2584 2113 2584 
z
M 3366 4563 
L 3366 3988 
Q 3128 4100 2886 4159 
Q 2644 4219 2406 4219 
Q 1781 4219 1451 3797 
Q 1122 3375 1075 2522 
Q 1259 2794 1537 2939 
Q 1816 3084 2150 3084 
Q 2853 3084 3261 2657 
Q 3669 2231 3669 1497 
Q 3669 778 3244 343 
Q 2819 -91 2113 -91 
Q 1303 -91 875 529 
Q 447 1150 447 2328 
Q 447 3434 972 4092 
Q 1497 4750 2381 4750 
Q 2619 4750 2861 4703 
Q 3103 4656 3366 4563 
z
" id="DejaVuSans-36" transform="scale(0.015625)"/>
       </defs>
       <use xlink:href="#DejaVuSans-30"/>
       <use x="63.623047" xlink:href="#DejaVuSans-2e"/>
       <use x="95.410156" xlink:href="#DejaVuSans-36"/>
      </g>
     </g>
    </g>
    <g id="xtick_5">
     <g id="line2d_5">
      <g>
       <use style="stroke:#000000;stroke-width:0.8;" x="326.100114" xlink:href="#mb054703fc3" y="273.312"/>
      </g>
     </g>
     <g id="text_5">
      <!-- 0.8 -->
      <g transform="translate(318.148551 287.910437)scale(0.1 -0.1)">
       <defs>
        <path d="M 2034 2216 
Q 1584 2216 1326 1975 
Q 1069 1734 1069 1313 
Q 1069 891 1326 650 
Q 1584 409 2034 409 
Q 2484 409 2743 651 
Q 3003 894 3003 1313 
Q 3003 1734 2745 1975 
Q 2488 2216 2034 2216 
z
M 1403 2484 
Q 997 2584 770 2862 
Q 544 3141 544 3541 
Q 544 4100 942 4425 
Q 1341 4750 2034 4750 
Q 2731 4750 3128 4425 
Q 3525 4100 3525 3541 
Q 3525 3141 3298 2862 
Q 3072 2584 2669 2484 
Q 3125 2378 3379 2068 
Q 3634 1759 3634 1313 
Q 3634 634 3220 271 
Q 2806 -91 2034 -91 
Q 1263 -91 848 271 
Q 434 634 434 1313 
Q 434 1759 690 2068 
Q 947 2378 1403 2484 
z
M 1172 3481 
Q 1172 3119 1398 2916 
Q 1625 2713 2034 2713 
Q 2441 2713 2670 2916 
Q 2900 3119 2900 3481 
Q 2900 3844 2670 4047 
Q 2441 4250 2034 4250 
Q 1625 4250 1398 4047 
Q 1172 3844 1172 3481 
z
" id="DejaVuSans-38" transform="scale(0.015625)"/>
       </defs>
       <use xlink:href="#DejaVuSans-30"/>
       <use x="63.623047" xlink:href="#DejaVuSans-2e"/>
       <use x="95.410156" xlink:href="#DejaVuSans-38"/>
      </g>
     </g>
    </g>
    <g id="xtick_6">
     <g id="line2d_6">
      <g>
       <use style="stroke:#000000;stroke-width:0.8;" x="391.031023" xlink:href="#mb054703fc3" y="273.312"/>
      </g>
     </g>
     <g id="text_6">
      <!-- 1.0 -->
      <g transform="translate(383.07946 287.910437)scale(0.1 -0.1)">
       <defs>
        <path d="M 794 531 
L 1825 531 
L 1825 4091 
L 703 3866 
L 703 4441 
L 1819 4666 
L 2450 4666 
L 2450 531 
L 3481 531 
L 3481 0 
L 794 0 
L 794 531 
z
" id="DejaVuSans-31" transform="scale(0.015625)"/>
       </defs>
       <use xlink:href="#DejaVuSans-31"/>
       <use x="63.623047" xlink:href="#DejaVuSans-2e"/>
       <use x="95.410156" xlink:href="#DejaVuSans-30"/>
      </g>
     </g>
    </g>
    <g id="text_7">
     <!-- Propagation direction -->
     <g transform="translate(175.221719 301.588562)scale(0.1 -0.1)">
      <defs>
       <path d="M 1259 4147 
L 1259 2394 
L 2053 2394 
Q 2494 2394 2734 2622 
Q 2975 2850 2975 3272 
Q 2975 3691 2734 3919 
Q 2494 4147 2053 4147 
L 1259 4147 
z
M 628 4666 
L 2053 4666 
Q 2838 4666 3239 4311 
Q 3641 3956 3641 3272 
Q 3641 2581 3239 2228 
Q 2838 1875 2053 1875 
L 1259 1875 
L 1259 0 
L 628 0 
L 628 4666 
z
" id="DejaVuSans-50" transform="scale(0.015625)"/>
       <path d="M 2631 2963 
Q 2534 3019 2420 3045 
Q 2306 3072 2169 3072 
Q 1681 3072 1420 2755 
Q 1159 2438 1159 1844 
L 1159 0 
L 581 0 
L 581 3500 
L 1159 3500 
L 1159 2956 
Q 1341 3275 1631 3429 
Q 1922 3584 2338 3584 
Q 2397 3584 2469 3576 
Q 2541 3569 2628 3553 
L 2631 2963 
z
" id="DejaVuSans-72" transform="scale(0.015625)"/>
       <path d="M 1959 3097 
Q 1497 3097 1228 2736 
Q 959 2375 959 1747 
Q 959 1119 1226 758 
Q 1494 397 1959 397 
Q 2419 397 2687 759 
Q 2956 1122 2956 1747 
Q 2956 2369 2687 2733 
Q 2419 3097 1959 3097 
z
M 1959 3584 
Q 2709 3584 3137 3096 
Q 3566 2609 3566 1747 
Q 3566 888 3137 398 
Q 2709 -91 1959 -91 
Q 1206 -91 779 398 
Q 353 888 353 1747 
Q 353 2609 779 3096 
Q 1206 3584 1959 3584 
z
" id="DejaVuSans-6f" transform="scale(0.015625)"/>
       <path d="M 1159 525 
L 1159 -1331 
L 581 -1331 
L 581 3500 
L 1159 3500 
L 1159 2969 
Q 1341 3281 1617 3432 
Q 1894 3584 2278 3584 
Q 2916 3584 3314 3078 
Q 3713 2572 3713 1747 
Q 3713 922 3314 415 
Q 2916 -91 2278 -91 
Q 1894 -91 1617 61 
Q 1341 213 1159 525 
z
M 3116 1747 
Q 3116 2381 2855 2742 
Q 2594 3103 2138 3103 
Q 1681 3103 1420 2742 
Q 1159 2381 1159 1747 
Q 1159 1113 1420 752 
Q 1681 391 2138 391 
Q 2594 391 2855 752 
Q 3116 1113 3116 1747 
z
" id="DejaVuSans-70" transform="scale(0.015625)"/>
       <path d="M 2194 1759 
Q 1497 1759 1228 1600 
Q 959 1441 959 1056 
Q 959 750 1161 570 
Q 1363 391 1709 391 
Q 2188 391 2477 730 
Q 2766 1069 2766 1631 
L 2766 1759 
L 2194 1759 
z
M 3341 1997 
L 3341 0 
L 2766 0 
L 2766 531 
Q 2569 213 2275 61 
Q 1981 -91 1556 -91 
Q 1019 -91 701 211 
Q 384 513 384 1019 
Q 384 1609 779 1909 
Q 1175 2209 1959 2209 
L 2766 2209 
L 2766 2266 
Q 2766 2663 2505 2880 
Q 2244 3097 1772 3097 
Q 1472 3097 1187 3025 
Q 903 2953 641 2809 
L 641 3341 
Q 956 3463 1253 3523 
Q 1550 3584 1831 3584 
Q 2591 3584 2966 3190 
Q 3341 2797 3341 1997 
z
" id="DejaVuSans-61" transform="scale(0.015625)"/>
       <path d="M 2906 1791 
Q 2906 2416 2648 2759 
Q 2391 3103 1925 3103 
Q 1463 3103 1205 2759 
Q 947 2416 947 1791 
Q 947 1169 1205 825 
Q 1463 481 1925 481 
Q 2391 481 2648 825 
Q 2906 1169 2906 1791 
z
M 3481 434 
Q 3481 -459 3084 -895 
Q 2688 -1331 1869 -1331 
Q 1566 -1331 1297 -1286 
Q 1028 -1241 775 -1147 
L 775 -588 
Q 1028 -725 1275 -790 
Q 1522 -856 1778 -856 
Q 2344 -856 2625 -561 
Q 2906 -266 2906 331 
L 2906 616 
Q 2728 306 2450 153 
Q 2172 0 1784 0 
Q 1141 0 747 490 
Q 353 981 353 1791 
Q 353 2603 747 3093 
Q 1141 3584 1784 3584 
Q 2172 3584 2450 3431 
Q 2728 3278 2906 2969 
L 2906 3500 
L 3481 3500 
L 3481 434 
z
" id="DejaVuSans-67" transform="scale(0.015625)"/>
       <path d="M 1172 4494 
L 1172 3500 
L 2356 3500 
L 2356 3053 
L 1172 3053 
L 1172 1153 
Q 1172 725 1289 603 
Q 1406 481 1766 481 
L 2356 481 
L 2356 0 
L 1766 0 
Q 1100 0 847 248 
Q 594 497 594 1153 
L 594 3053 
L 172 3053 
L 172 3500 
L 594 3500 
L 594 4494 
L 1172 4494 
z
" id="DejaVuSans-74" transform="scale(0.015625)"/>
       <path d="M 603 3500 
L 1178 3500 
L 1178 0 
L 603 0 
L 603 3500 
z
M 603 4863 
L 1178 4863 
L 1178 4134 
L 603 4134 
L 603 4863 
z
" id="DejaVuSans-69" transform="scale(0.015625)"/>
       <path d="M 3513 2113 
L 3513 0 
L 2938 0 
L 2938 2094 
Q 2938 2591 2744 2837 
Q 2550 3084 2163 3084 
Q 1697 3084 1428 2787 
Q 1159 2491 1159 1978 
L 1159 0 
L 581 0 
L 581 3500 
L 1159 3500 
L 1159 2956 
Q 1366 3272 1645 3428 
Q 1925 3584 2291 3584 
Q 2894 3584 3203 3211 
Q 3513 2838 3513 2113 
z
" id="DejaVuSans-6e" transform="scale(0.015625)"/>
       <path id="DejaVuSans-20" transform="scale(0.015625)"/>
       <path d="M 2906 2969 
L 2906 4863 
L 3481 4863 
L 3481 0 
L 2906 0 
L 2906 525 
Q 2725 213 2448 61 
Q 2172 -91 1784 -91 
Q 1150 -91 751 415 
Q 353 922 353 1747 
Q 353 2572 751 3078 
Q 1150 3584 1784 3584 
Q 2172 3584 2448 3432 
Q 2725 3281 2906 2969 
z
M 947 1747 
Q 947 1113 1208 752 
Q 1469 391 1925 391 
Q 2381 391 2643 752 
Q 2906 1113 2906 1747 
Q 2906 2381 2643 2742 
Q 2381 3103 1925 3103 
Q 1469 3103 1208 2742 
Q 947 2381 947 1747 
z
" id="DejaVuSans-64" transform="scale(0.015625)"/>
       <path d="M 3597 1894 
L 3597 1613 
L 953 1613 
Q 991 1019 1311 708 
Q 1631 397 2203 397 
Q 2534 397 2845 478 
Q 3156 559 3463 722 
L 3463 178 
Q 3153 47 2828 -22 
Q 2503 -91 2169 -91 
Q 1331 -91 842 396 
Q 353 884 353 1716 
Q 353 2575 817 3079 
Q 1281 3584 2069 3584 
Q 2775 3584 3186 3129 
Q 3597 2675 3597 1894 
z
M 3022 2063 
Q 3016 2534 2758 2815 
Q 2500 3097 2075 3097 
Q 1594 3097 1305 2825 
Q 1016 2553 972 2059 
L 3022 2063 
z
" id="DejaVuSans-65" transform="scale(0.015625)"/>
       <path d="M 3122 3366 
L 3122 2828 
Q 2878 2963 2633 3030 
Q 2388 3097 2138 3097 
Q 1578 3097 1268 2742 
Q 959 2388 959 1747 
Q 959 1106 1268 751 
Q 1578 397 2138 397 
Q 2388 397 2633 464 
Q 2878 531 3122 666 
L 3122 134 
Q 2881 22 2623 -34 
Q 2366 -91 2075 -91 
Q 1284 -91 818 406 
Q 353 903 353 1747 
Q 353 2603 823 3093 
Q 1294 3584 2113 3584 
Q 2378 3584 2631 3529 
Q 2884 3475 3122 3366 
z
" id="DejaVuSans-63" transform="scale(0.015625)"/>
      </defs>
      <use xlink:href="#DejaVuSans-50"/>
      <use x="58.552734" xlink:href="#DejaVuSans-72"/>
      <use x="97.416016" xlink:href="#DejaVuSans-6f"/>
      <use x="158.597656" xlink:href="#DejaVuSans-70"/>
      <use x="222.074219" xlink:href="#DejaVuSans-61"/>
      <use x="283.353516" xlink:href="#DejaVuSans-67"/>
      <use x="346.830078" xlink:href="#DejaVuSans-61"/>
      <use x="408.109375" xlink:href="#DejaVuSans-74"/>
      <use x="447.318359" xlink:href="#DejaVuSans-69"/>
      <use x="475.101562" xlink:href="#DejaVuSans-6f"/>
      <use x="536.283203" xlink:href="#DejaVuSans-6e"/>
      <use x="599.662109" xlink:href="#DejaVuSans-20"/>
      <use x="631.449219" xlink:href="#DejaVuSans-64"/>
      <use x="694.925781" xlink:href="#DejaVuSans-69"/>
      <use x="722.708984" xlink:href="#DejaVuSans-72"/>
      <use x="761.572266" xlink:href="#DejaVuSans-65"/>
      <use x="823.095703" xlink:href="#DejaVuSans-63"/>
      <use x="878.076172" xlink:href="#DejaVuSans-74"/>
      <use x="917.285156" xlink:href="#DejaVuSans-69"/>
      <use x="945.068359" xlink:href="#DejaVuSans-6f"/>
      <use x="1006.25" xlink:href="#DejaVuSans-6e"/>
     </g>
    </g>
   </g>
   <g id="matplotlib.axis_2">
    <g id="ytick_1">
     <g id="line2d_7">
      <defs>
       <path d="M 0 0 
L -3.5 0 
" id="m18390186aa" style="stroke:#000000;stroke-width:0.8;"/>
      </defs>
      <g>
       <use style="stroke:#000000;stroke-width:0.8;" x="50.14375" xlink:href="#m18390186aa" y="273.312"/>
      </g>
     </g>
     <g id="text_8">
      <!-- 0.00 -->
      <g transform="translate(20.878125 277.111219)scale(0.1 -0.1)">
       <use xlink:href="#DejaVuSans-30"/>
       <use x="63.623047" xlink:href="#DejaVuSans-2e"/>
       <use x="95.410156" xlink:href="#DejaVuSans-30"/>
       <use x="159.033203" xlink:href="#DejaVuSans-30"/>
      </g>
     </g>
    </g>
    <g id="ytick_2">
     <g id="line2d_8">
      <g>
       <use style="stroke:#000000;stroke-width:0.8;" x="50.14375" xlink:href="#m18390186aa" y="243.506069"/>
      </g>
     </g>
     <g id="text_9">
      <!-- 0.25 -->
      <g transform="translate(20.878125 247.305287)scale(0.1 -0.1)">
       <defs>
        <path d="M 691 4666 
L 3169 4666 
L 3169 4134 
L 1269 4134 
L 1269 2991 
Q 1406 3038 1543 3061 
Q 1681 3084 1819 3084 
Q 2600 3084 3056 2656 
Q 3513 2228 3513 1497 
Q 3513 744 3044 326 
Q 2575 -91 1722 -91 
Q 1428 -91 1123 -41 
Q 819 9 494 109 
L 494 744 
Q 775 591 1075 516 
Q 1375 441 1709 441 
Q 2250 441 2565 725 
Q 2881 1009 2881 1497 
Q 2881 1984 2565 2268 
Q 2250 2553 1709 2553 
Q 1456 2553 1204 2497 
Q 953 2441 691 2322 
L 691 4666 
z
" id="DejaVuSans-35" transform="scale(0.015625)"/>
       </defs>
       <use xlink:href="#DejaVuSans-30"/>
       <use x="63.623047" xlink:href="#DejaVuSans-2e"/>
       <use x="95.410156" xlink:href="#DejaVuSans-32"/>
       <use x="159.033203" xlink:href="#DejaVuSans-35"/>
      </g>
     </g>
    </g>
    <g id="ytick_3">
     <g id="line2d_9">
      <g>
       <use style="stroke:#000000;stroke-width:0.8;" x="50.14375" xlink:href="#m18390186aa" y="213.700137"/>
      </g>
     </g>
     <g id="text_10">
      <!-- 0.50 -->
      <g transform="translate(20.878125 217.499356)scale(0.1 -0.1)">
       <use xlink:href="#DejaVuSans-30"/>
       <use x="63.623047" xlink:href="#DejaVuSans-2e"/>
       <use x="95.410156" xlink:href="#DejaVuSans-35"/>
       <use x="159.033203" xlink:href="#DejaVuSans-30"/>
      </g>
     </g>
    </g>
    <g id="ytick_4">
     <g id="line2d_10">
      <g>
       <use style="stroke:#000000;stroke-width:0.8;" x="50.14375" xlink:href="#m18390186aa" y="183.894206"/>
      </g>
     </g>
     <g id="text_11">
      <!-- 0.75 -->
      <g transform="translate(20.878125 187.693424)scale(0.1 -0.1)">
       <defs>
        <path d="M 525 4666 
L 3525 4666 
L 3525 4397 
L 1831 0 
L 1172 0 
L 2766 4134 
L 525 4134 
L 525 4666 
z
" id="DejaVuSans-37" transform="scale(0.015625)"/>
       </defs>
       <use xlink:href="#DejaVuSans-30"/>
       <use x="63.623047" xlink:href="#DejaVuSans-2e"/>
       <use x="95.410156" xlink:href="#DejaVuSans-37"/>
       <use x="159.033203" xlink:href="#DejaVuSans-35"/>
      </g>
     </g>
    </g>
    <g id="ytick_5">
     <g id="line2d_11">
      <g>
       <use style="stroke:#000000;stroke-width:0.8;" x="50.14375" xlink:href="#m18390186aa" y="154.088274"/>
      </g>
     </g>
     <g id="text_12">
      <!-- 1.00 -->
      <g transform="translate(20.878125 157.887493)scale(0.1 -0.1)">
       <use xlink:href="#DejaVuSans-31"/>
       <use x="63.623047" xlink:href="#DejaVuSans-2e"/>
       <use x="95.410156" xlink:href="#DejaVuSans-30"/>
       <use x="159.033203" xlink:href="#DejaVuSans-30"/>
      </g>
     </g>
    </g>
    <g id="ytick_6">
     <g id="line2d_12">
      <g>
       <use style="stroke:#000000;stroke-width:0.8;" x="50.14375" xlink:href="#m18390186aa" y="124.282343"/>
      </g>
     </g>
     <g id="text_13">
      <!-- 1.25 -->
      <g transform="translate(20.878125 128.081562)scale(0.1 -0.1)">
       <use xlink:href="#DejaVuSans-31"/>
       <use x="63.623047" xlink:href="#DejaVuSans-2e"/>
       <use x="95.410156" xlink:href="#DejaVuSans-32"/>
       <use x="159.033203" xlink:href="#DejaVuSans-35"/>
      </g>
     </g>
    </g>
    <g id="ytick_7">
     <g id="line2d_13">
      <g>
       <use style="stroke:#000000;stroke-width:0.8;" x="50.14375" xlink:href="#m18390186aa" y="94.476411"/>
      </g>
     </g>
     <g id="text_14">
      <!-- 1.50 -->
      <g transform="translate(20.878125 98.27563)scale(0.1 -0.1)">
       <use xlink:href="#DejaVuSans-31"/>
       <use x="63.623047" xlink:href="#DejaVuSans-2e"/>
       <use x="95.410156" xlink:href="#DejaVuSans-35"/>
       <use x="159.033203" xlink:href="#DejaVuSans-30"/>
      </g>
     </g>
    </g>
    <g id="ytick_8">
     <g id="line2d_14">
      <g>
       <use style="stroke:#000000;stroke-width:0.8;" x="50.14375" xlink:href="#m18390186aa" y="64.67048"/>
      </g>
     </g>
     <g id="text_15">
      <!-- 1.75 -->
      <g transform="translate(20.878125 68.469699)scale(0.1 -0.1)">
       <use xlink:href="#DejaVuSans-31"/>
       <use x="63.623047" xlink:href="#DejaVuSans-2e"/>
       <use x="95.410156" xlink:href="#DejaVuSans-37"/>
       <use x="159.033203" xlink:href="#DejaVuSans-35"/>
      </g>
     </g>
    </g>
    <g id="ytick_9">
     <g id="line2d_15">
      <g>
       <use style="stroke:#000000;stroke-width:0.8;" x="50.14375" xlink:href="#m18390186aa" y="34.864549"/>
      </g>
     </g>
     <g id="text_16">
      <!-- 2.00 -->
      <g transform="translate(20.878125 38.663767)scale(0.1 -0.1)">
       <use xlink:href="#DejaVuSans-32"/>
       <use x="63.623047" xlink:href="#DejaVuSans-2e"/>
       <use x="95.410156" xlink:href="#DejaVuSans-30"/>
       <use x="159.033203" xlink:href="#DejaVuSans-30"/>
      </g>
     </g>
    </g>
    <g id="text_17">
     <!-- Probability density -->
     <g transform="translate(14.798438 186.606781)rotate(-90)scale(0.1 -0.1)">
      <defs>
       <path d="M 3116 1747 
Q 3116 2381 2855 2742 
Q 2594 3103 2138 3103 
Q 1681 3103 1420 2742 
Q 1159 2381 1159 1747 
Q 1159 1113 1420 752 
Q 1681 391 2138 391 
Q 2594 391 2855 752 
Q 3116 1113 3116 1747 
z
M 1159 2969 
Q 1341 3281 1617 3432 
Q 1894 3584 2278 3584 
Q 2916 3584 3314 3078 
Q 3713 2572 3713 1747 
Q 3713 922 3314 415 
Q 2916 -91 2278 -91 
Q 1894 -91 1617 61 
Q 1341 213 1159 525 
L 1159 0 
L 581 0 
L 581 4863 
L 1159 4863 
L 1159 2969 
z
" id="DejaVuSans-62" transform="scale(0.015625)"/>
       <path d="M 603 4863 
L 1178 4863 
L 1178 0 
L 603 0 
L 603 4863 
z
" id="DejaVuSans-6c" transform="scale(0.015625)"/>
       <path d="M 2059 -325 
Q 1816 -950 1584 -1140 
Q 1353 -1331 966 -1331 
L 506 -1331 
L 506 -850 
L 844 -850 
Q 1081 -850 1212 -737 
Q 1344 -625 1503 -206 
L 1606 56 
L 191 3500 
L 800 3500 
L 1894 763 
L 2988 3500 
L 3597 3500 
L 2059 -325 
z
" id="DejaVuSans-79" transform="scale(0.015625)"/>
       <path d="M 2834 3397 
L 2834 2853 
Q 2591 2978 2328 3040 
Q 2066 3103 1784 3103 
Q 1356 3103 1142 2972 
Q 928 2841 928 2578 
Q 928 2378 1081 2264 
Q 1234 2150 1697 2047 
L 1894 2003 
Q 2506 1872 2764 1633 
Q 3022 1394 3022 966 
Q 3022 478 2636 193 
Q 2250 -91 1575 -91 
Q 1294 -91 989 -36 
Q 684 19 347 128 
L 347 722 
Q 666 556 975 473 
Q 1284 391 1588 391 
Q 1994 391 2212 530 
Q 2431 669 2431 922 
Q 2431 1156 2273 1281 
Q 2116 1406 1581 1522 
L 1381 1569 
Q 847 1681 609 1914 
Q 372 2147 372 2553 
Q 372 3047 722 3315 
Q 1072 3584 1716 3584 
Q 2034 3584 2315 3537 
Q 2597 3491 2834 3397 
z
" id="DejaVuSans-73" transform="scale(0.015625)"/>
      </defs>
      <use xlink:href="#DejaVuSans-50"/>
      <use x="58.552734" xlink:href="#DejaVuSans-72"/>
      <use x="97.416016" xlink:href="#DejaVuSans-6f"/>
      <use x="158.597656" xlink:href="#DejaVuSans-62"/>
      <use x="222.074219" xlink:href="#DejaVuSans-61"/>
      <use x="283.353516" xlink:href="#DejaVuSans-62"/>
      <use x="346.830078" xlink:href="#DejaVuSans-69"/>
      <use x="374.613281" xlink:href="#DejaVuSans-6c"/>
      <use x="402.396484" xlink:href="#DejaVuSans-69"/>
      <use x="430.179688" xlink:href="#DejaVuSans-74"/>
      <use x="469.388672" xlink:href="#DejaVuSans-79"/>
      <use x="528.568359" xlink:href="#DejaVuSans-20"/>
      <use x="560.355469" xlink:href="#DejaVuSans-64"/>
      <use x="623.832031" xlink:href="#DejaVuSans-65"/>
      <use x="685.355469" xlink:href="#DejaVuSans-6e"/>
      <use x="748.734375" xlink:href="#DejaVuSans-73"/>
      <use x="800.833984" xlink:href="#DejaVuSans-69"/>
      <use x="828.617188" xlink:href="#DejaVuSans-74"/>
      <use x="867.826172" xlink:href="#DejaVuSans-79"/>
     </g>
    </g>
   </g>
   <g id="line2d_16">
    <path clip-path="url(#p7937d9265a)" d="M 66.376477 273.312 
L 391.031023 34.864549 
L 391.031023 34.864549 
" style="fill:none;stroke:#ff7f0e;stroke-linecap:square;stroke-width:1.5;"/>
   </g>
   <g id="patch_203">
    <path d="M 50.14375 273.312 
L 50.14375 7.2 
" style="fill:none;stroke:#000000;stroke-linecap:square;stroke-linejoin:miter;stroke-width:0.8;"/>
   </g>
   <g id="patch_204">
    <path d="M 407.26375 273.312 
L 407.26375 7.2 
" style="fill:none;stroke:#000000;stroke-linecap:square;stroke-linejoin:miter;stroke-width:0.8;"/>
   </g>
   <g id="patch_205">
    <path d="M 50.14375 273.312 
L 407.26375 273.312 
" style="fill:none;stroke:#000000;stroke-linecap:square;stroke-linejoin:miter;stroke-width:0.8;"/>
   </g>
   <g id="patch_206">
    <path d="M 50.14375 7.2 
L 407.26375 7.2 
" style="fill:none;stroke:#000000;stroke-linecap:square;stroke-linejoin:miter;stroke-width:0.8;"/>
   </g>
  </g>
 </g>
 <defs>
  <clipPath id="p7937d9265a">
   <rect height="266.112" width="357.12" x="50.14375" y="7.2"/>
  </clipPath>
 </defs>
</svg>
