<?xml version="1.0" encoding="utf-8" standalone="no"?>
<!DOCTYPE svg PUBLIC "-//W3C//DTD SVG 1.1//EN"
  "http://www.w3.org/Graphics/SVG/1.1/DTD/svg11.dtd">
<svg xmlns:xlink="http://www.w3.org/1999/xlink" width="408.10125pt" height="310.86825pt" viewBox="0 0 408.10125 310.86825" xmlns="http://www.w3.org/2000/svg" version="1.1">
 <metadata>
  <rdf:RDF xmlns:dc="http://purl.org/dc/elements/1.1/" xmlns:cc="http://creativecommons.org/ns#" xmlns:rdf="http://www.w3.org/1999/02/22-rdf-syntax-ns#">
   <cc:Work>
    <dc:type rdf:resource="http://purl.org/dc/dcmitype/StillImage"/>
    <dc:date>2021-12-01T07:14:59.808247</dc:date>
    <dc:format>image/svg+xml</dc:format>
    <dc:creator>
     <cc:Agent>
      <dc:title>Matplotlib v3.5.0, https://matplotlib.org/</dc:title>
     </cc:Agent>
    </dc:creator>
   </cc:Work>
  </rdf:RDF>
 </metadata>
 <defs>
  <style type="text/css">*{stroke-linejoin: round; stroke-linecap: butt}</style>
 </defs>
 <g id="figure_1">
  <g id="patch_1">
   <path d="M 0 310.86825 
L 408.10125 310.86825 
L 408.10125 0 
L 0 0 
z
" style="fill: #ffffff"/>
  </g>
  <g id="axes_1">
   <g id="patch_2">
    <path d="M 43.78125 273.312 
L 400.90125 273.312 
L 400.90125 7.2 
L 43.78125 7.2 
z
" style="fill: #ffffff"/>
   </g>
   <g id="patch_3">
    <path d="M 60.601977 273.312 
L 62.219228 273.312 
L 62.219228 265.87776 
L 60.601977 265.87776 
z
" clip-path="url(#pfea7f58810)" style="fill: #1f77b4"/>
   </g>
   <g id="patch_4">
    <path d="M 62.219228 273.312 
L 63.836479 273.312 
L 63.836479 265.87776 
L 62.219228 265.87776 
z
" clip-path="url(#pfea7f58810)" style="fill: #1f77b4"/>
   </g>
   <g id="patch_5">
    <path d="M 63.836479 273.312 
L 65.45373 273.312 
L 65.45373 264.52608 
L 63.836479 264.52608 
z
" clip-path="url(#pfea7f58810)" style="fill: #1f77b4"/>
   </g>
   <g id="patch_6">
    <path d="M 65.45373 273.312 
L 67.070981 273.312 
L 67.070981 259.7952 
L 65.45373 259.7952 
z
" clip-path="url(#pfea7f58810)" style="fill: #1f77b4"/>
   </g>
   <g id="patch_7">
    <path d="M 67.070981 273.312 
L 68.688231 273.312 
L 68.688231 251.00928 
L 67.070981 251.00928 
z
" clip-path="url(#pfea7f58810)" style="fill: #1f77b4"/>
   </g>
   <g id="patch_8">
    <path d="M 68.688231 273.312 
L 70.305482 273.312 
L 70.305482 244.25088 
L 68.688231 244.25088 
z
" clip-path="url(#pfea7f58810)" style="fill: #1f77b4"/>
   </g>
   <g id="patch_9">
    <path d="M 70.305482 273.312 
L 71.922733 273.312 
L 71.922733 248.98176 
L 70.305482 248.98176 
z
" clip-path="url(#pfea7f58810)" style="fill: #1f77b4"/>
   </g>
   <g id="patch_10">
    <path d="M 71.922733 273.312 
L 73.539984 273.312 
L 73.539984 248.98176 
L 71.922733 248.98176 
z
" clip-path="url(#pfea7f58810)" style="fill: #1f77b4"/>
   </g>
   <g id="patch_11">
    <path d="M 73.539984 273.312 
L 75.157235 273.312 
L 75.157235 244.92672 
L 73.539984 244.92672 
z
" clip-path="url(#pfea7f58810)" style="fill: #1f77b4"/>
   </g>
   <g id="patch_12">
    <path d="M 75.157235 273.312 
L 76.774485 273.312 
L 76.774485 244.25088 
L 75.157235 244.25088 
z
" clip-path="url(#pfea7f58810)" style="fill: #1f77b4"/>
   </g>
   <g id="patch_13">
    <path d="M 76.774485 273.312 
L 78.391736 273.312 
L 78.391736 230.73408 
L 76.774485 230.73408 
z
" clip-path="url(#pfea7f58810)" style="fill: #1f77b4"/>
   </g>
   <g id="patch_14">
    <path d="M 78.391736 273.312 
L 80.008987 273.312 
L 80.008987 234.11328 
L 78.391736 234.11328 
z
" clip-path="url(#pfea7f58810)" style="fill: #1f77b4"/>
   </g>
   <g id="patch_15">
    <path d="M 80.008987 273.312 
L 81.626238 273.312 
L 81.626238 224.65152 
L 80.008987 224.65152 
z
" clip-path="url(#pfea7f58810)" style="fill: #1f77b4"/>
   </g>
   <g id="patch_16">
    <path d="M 81.626238 273.312 
L 83.243489 273.312 
L 83.243489 223.97568 
L 81.626238 223.97568 
z
" clip-path="url(#pfea7f58810)" style="fill: #1f77b4"/>
   </g>
   <g id="patch_17">
    <path d="M 83.243489 273.312 
L 84.860739 273.312 
L 84.860739 228.70656 
L 83.243489 228.70656 
z
" clip-path="url(#pfea7f58810)" style="fill: #1f77b4"/>
   </g>
   <g id="patch_18">
    <path d="M 84.860739 273.312 
L 86.47799 273.312 
L 86.47799 225.32736 
L 84.860739 225.32736 
z
" clip-path="url(#pfea7f58810)" style="fill: #1f77b4"/>
   </g>
   <g id="patch_19">
    <path d="M 86.47799 273.312 
L 88.095241 273.312 
L 88.095241 215.18976 
L 86.47799 215.18976 
z
" clip-path="url(#pfea7f58810)" style="fill: #1f77b4"/>
   </g>
   <g id="patch_20">
    <path d="M 88.095241 273.312 
L 89.712492 273.312 
L 89.712492 221.27232 
L 88.095241 221.27232 
z
" clip-path="url(#pfea7f58810)" style="fill: #1f77b4"/>
   </g>
   <g id="patch_21">
    <path d="M 89.712492 273.312 
L 91.329743 273.312 
L 91.329743 213.16224 
L 89.712492 213.16224 
z
" clip-path="url(#pfea7f58810)" style="fill: #1f77b4"/>
   </g>
   <g id="patch_22">
    <path d="M 91.329743 273.312 
L 92.946993 273.312 
L 92.946993 209.1072 
L 91.329743 209.1072 
z
" clip-path="url(#pfea7f58810)" style="fill: #1f77b4"/>
   </g>
   <g id="patch_23">
    <path d="M 92.946993 273.312 
L 94.564244 273.312 
L 94.564244 198.9696 
L 92.946993 198.9696 
z
" clip-path="url(#pfea7f58810)" style="fill: #1f77b4"/>
   </g>
   <g id="patch_24">
    <path d="M 94.564244 273.312 
L 96.181495 273.312 
L 96.181495 211.81056 
L 94.564244 211.81056 
z
" clip-path="url(#pfea7f58810)" style="fill: #1f77b4"/>
   </g>
   <g id="patch_25">
    <path d="M 96.181495 273.312 
L 97.798746 273.312 
L 97.798746 194.91456 
L 96.181495 194.91456 
z
" clip-path="url(#pfea7f58810)" style="fill: #1f77b4"/>
   </g>
   <g id="patch_26">
    <path d="M 97.798746 273.312 
L 99.415997 273.312 
L 99.415997 203.02464 
L 97.798746 203.02464 
z
" clip-path="url(#pfea7f58810)" style="fill: #1f77b4"/>
   </g>
   <g id="patch_27">
    <path d="M 99.415997 273.312 
L 101.033247 273.312 
L 101.033247 188.832 
L 99.415997 188.832 
z
" clip-path="url(#pfea7f58810)" style="fill: #1f77b4"/>
   </g>
   <g id="patch_28">
    <path d="M 101.033247 273.312 
L 102.650498 273.312 
L 102.650498 192.2112 
L 101.033247 192.2112 
z
" clip-path="url(#pfea7f58810)" style="fill: #1f77b4"/>
   </g>
   <g id="patch_29">
    <path d="M 102.650498 273.312 
L 104.267749 273.312 
L 104.267749 194.23872 
L 102.650498 194.23872 
z
" clip-path="url(#pfea7f58810)" style="fill: #1f77b4"/>
   </g>
   <g id="patch_30">
    <path d="M 104.267749 273.312 
L 105.885 273.312 
L 105.885 192.88704 
L 104.267749 192.88704 
z
" clip-path="url(#pfea7f58810)" style="fill: #1f77b4"/>
   </g>
   <g id="patch_31">
    <path d="M 105.885 273.312 
L 107.50225 273.312 
L 107.50225 162.47424 
L 105.885 162.47424 
z
" clip-path="url(#pfea7f58810)" style="fill: #1f77b4"/>
   </g>
   <g id="patch_32">
    <path d="M 107.50225 273.312 
L 109.119501 273.312 
L 109.119501 175.99104 
L 107.50225 175.99104 
z
" clip-path="url(#pfea7f58810)" style="fill: #1f77b4"/>
   </g>
   <g id="patch_33">
    <path d="M 109.119501 273.312 
L 110.736752 273.312 
L 110.736752 169.23264 
L 109.119501 169.23264 
z
" clip-path="url(#pfea7f58810)" style="fill: #1f77b4"/>
   </g>
   <g id="patch_34">
    <path d="M 110.736752 273.312 
L 112.354003 273.312 
L 112.354003 169.23264 
L 110.736752 169.23264 
z
" clip-path="url(#pfea7f58810)" style="fill: #1f77b4"/>
   </g>
   <g id="patch_35">
    <path d="M 112.354003 273.312 
L 113.971254 273.312 
L 113.971254 162.47424 
L 112.354003 162.47424 
z
" clip-path="url(#pfea7f58810)" style="fill: #1f77b4"/>
   </g>
   <g id="patch_36">
    <path d="M 113.971254 273.312 
L 115.588504 273.312 
L 115.588504 162.47424 
L 113.971254 162.47424 
z
" clip-path="url(#pfea7f58810)" style="fill: #1f77b4"/>
   </g>
   <g id="patch_37">
    <path d="M 115.588504 273.312 
L 117.205755 273.312 
L 117.205755 162.47424 
L 115.588504 162.47424 
z
" clip-path="url(#pfea7f58810)" style="fill: #1f77b4"/>
   </g>
   <g id="patch_38">
    <path d="M 117.205755 273.312 
L 118.823006 273.312 
L 118.823006 150.30912 
L 117.205755 150.30912 
z
" clip-path="url(#pfea7f58810)" style="fill: #1f77b4"/>
   </g>
   <g id="patch_39">
    <path d="M 118.823006 273.312 
L 120.440257 273.312 
L 120.440257 155.71584 
L 118.823006 155.71584 
z
" clip-path="url(#pfea7f58810)" style="fill: #1f77b4"/>
   </g>
   <g id="patch_40">
    <path d="M 120.440257 273.312 
L 122.057508 273.312 
L 122.057508 151.6608 
L 120.440257 151.6608 
z
" clip-path="url(#pfea7f58810)" style="fill: #1f77b4"/>
   </g>
   <g id="patch_41">
    <path d="M 122.057508 273.312 
L 123.674758 273.312 
L 123.674758 150.30912 
L 122.057508 150.30912 
z
" clip-path="url(#pfea7f58810)" style="fill: #1f77b4"/>
   </g>
   <g id="patch_42">
    <path d="M 123.674758 273.312 
L 125.292009 273.312 
L 125.292009 157.06752 
L 123.674758 157.06752 
z
" clip-path="url(#pfea7f58810)" style="fill: #1f77b4"/>
   </g>
   <g id="patch_43">
    <path d="M 125.292009 273.312 
L 126.90926 273.312 
L 126.90926 156.39168 
L 125.292009 156.39168 
z
" clip-path="url(#pfea7f58810)" style="fill: #1f77b4"/>
   </g>
   <g id="patch_44">
    <path d="M 126.90926 273.312 
L 128.526511 273.312 
L 128.526511 144.9024 
L 126.90926 144.9024 
z
" clip-path="url(#pfea7f58810)" style="fill: #1f77b4"/>
   </g>
   <g id="patch_45">
    <path d="M 128.526511 273.312 
L 130.143762 273.312 
L 130.143762 134.7648 
L 128.526511 134.7648 
z
" clip-path="url(#pfea7f58810)" style="fill: #1f77b4"/>
   </g>
   <g id="patch_46">
    <path d="M 130.143762 273.312 
L 131.761012 273.312 
L 131.761012 138.81984 
L 130.143762 138.81984 
z
" clip-path="url(#pfea7f58810)" style="fill: #1f77b4"/>
   </g>
   <g id="patch_47">
    <path d="M 131.761012 273.312 
L 133.378263 273.312 
L 133.378263 140.17152 
L 131.761012 140.17152 
z
" clip-path="url(#pfea7f58810)" style="fill: #1f77b4"/>
   </g>
   <g id="patch_48">
    <path d="M 133.378263 273.312 
L 134.995514 273.312 
L 134.995514 151.6608 
L 133.378263 151.6608 
z
" clip-path="url(#pfea7f58810)" style="fill: #1f77b4"/>
   </g>
   <g id="patch_49">
    <path d="M 134.995514 273.312 
L 136.612765 273.312 
L 136.612765 149.63328 
L 134.995514 149.63328 
z
" clip-path="url(#pfea7f58810)" style="fill: #1f77b4"/>
   </g>
   <g id="patch_50">
    <path d="M 136.612765 273.312 
L 138.230016 273.312 
L 138.230016 129.35808 
L 136.612765 129.35808 
z
" clip-path="url(#pfea7f58810)" style="fill: #1f77b4"/>
   </g>
   <g id="patch_51">
    <path d="M 138.230016 273.312 
L 139.847266 273.312 
L 139.847266 142.19904 
L 138.230016 142.19904 
z
" clip-path="url(#pfea7f58810)" style="fill: #1f77b4"/>
   </g>
   <g id="patch_52">
    <path d="M 139.847266 273.312 
L 141.464517 273.312 
L 141.464517 134.08896 
L 139.847266 134.08896 
z
" clip-path="url(#pfea7f58810)" style="fill: #1f77b4"/>
   </g>
   <g id="patch_53">
    <path d="M 141.464517 273.312 
L 143.081768 273.312 
L 143.081768 125.30304 
L 141.464517 125.30304 
z
" clip-path="url(#pfea7f58810)" style="fill: #1f77b4"/>
   </g>
   <g id="patch_54">
    <path d="M 143.081768 273.312 
L 144.699019 273.312 
L 144.699019 113.13792 
L 143.081768 113.13792 
z
" clip-path="url(#pfea7f58810)" style="fill: #1f77b4"/>
   </g>
   <g id="patch_55">
    <path d="M 144.699019 273.312 
L 146.31627 273.312 
L 146.31627 105.02784 
L 144.699019 105.02784 
z
" clip-path="url(#pfea7f58810)" style="fill: #1f77b4"/>
   </g>
   <g id="patch_56">
    <path d="M 146.31627 273.312 
L 147.93352 273.312 
L 147.93352 121.248 
L 146.31627 121.248 
z
" clip-path="url(#pfea7f58810)" style="fill: #1f77b4"/>
   </g>
   <g id="patch_57">
    <path d="M 147.93352 273.312 
L 149.550771 273.312 
L 149.550771 98.94528 
L 147.93352 98.94528 
z
" clip-path="url(#pfea7f58810)" style="fill: #1f77b4"/>
   </g>
   <g id="patch_58">
    <path d="M 149.550771 273.312 
L 151.168022 273.312 
L 151.168022 118.54464 
L 149.550771 118.54464 
z
" clip-path="url(#pfea7f58810)" style="fill: #1f77b4"/>
   </g>
   <g id="patch_59">
    <path d="M 151.168022 273.312 
L 152.785273 273.312 
L 152.785273 113.13792 
L 151.168022 113.13792 
z
" clip-path="url(#pfea7f58810)" style="fill: #1f77b4"/>
   </g>
   <g id="patch_60">
    <path d="M 152.785273 273.312 
L 154.402523 273.312 
L 154.402523 118.54464 
L 152.785273 118.54464 
z
" clip-path="url(#pfea7f58810)" style="fill: #1f77b4"/>
   </g>
   <g id="patch_61">
    <path d="M 154.402523 273.312 
L 156.019774 273.312 
L 156.019774 102.32448 
L 154.402523 102.32448 
z
" clip-path="url(#pfea7f58810)" style="fill: #1f77b4"/>
   </g>
   <g id="patch_62">
    <path d="M 156.019774 273.312 
L 157.637025 273.312 
L 157.637025 105.70368 
L 156.019774 105.70368 
z
" clip-path="url(#pfea7f58810)" style="fill: #1f77b4"/>
   </g>
   <g id="patch_63">
    <path d="M 157.637025 273.312 
L 159.254276 273.312 
L 159.254276 87.456 
L 157.637025 87.456 
z
" clip-path="url(#pfea7f58810)" style="fill: #1f77b4"/>
   </g>
   <g id="patch_64">
    <path d="M 159.254276 273.312 
L 160.871527 273.312 
L 160.871527 79.34592 
L 159.254276 79.34592 
z
" clip-path="url(#pfea7f58810)" style="fill: #1f77b4"/>
   </g>
   <g id="patch_65">
    <path d="M 160.871527 273.312 
L 162.488777 273.312 
L 162.488777 92.86272 
L 160.871527 92.86272 
z
" clip-path="url(#pfea7f58810)" style="fill: #1f77b4"/>
   </g>
   <g id="patch_66">
    <path d="M 162.488777 273.312 
L 164.106028 273.312 
L 164.106028 98.94528 
L 162.488777 98.94528 
z
" clip-path="url(#pfea7f58810)" style="fill: #1f77b4"/>
   </g>
   <g id="patch_67">
    <path d="M 164.106028 273.312 
L 165.723279 273.312 
L 165.723279 110.43456 
L 164.106028 110.43456 
z
" clip-path="url(#pfea7f58810)" style="fill: #1f77b4"/>
   </g>
   <g id="patch_68">
    <path d="M 165.723279 273.312 
L 167.34053 273.312 
L 167.34053 95.56608 
L 165.723279 95.56608 
z
" clip-path="url(#pfea7f58810)" style="fill: #1f77b4"/>
   </g>
   <g id="patch_69">
    <path d="M 167.34053 273.312 
L 168.957781 273.312 
L 168.957781 103.00032 
L 167.34053 103.00032 
z
" clip-path="url(#pfea7f58810)" style="fill: #1f77b4"/>
   </g>
   <g id="patch_70">
    <path d="M 168.957781 273.312 
L 170.575031 273.312 
L 170.575031 63.8016 
L 168.957781 63.8016 
z
" clip-path="url(#pfea7f58810)" style="fill: #1f77b4"/>
   </g>
   <g id="patch_71">
    <path d="M 170.575031 273.312 
L 172.192282 273.312 
L 172.192282 80.6976 
L 170.575031 80.6976 
z
" clip-path="url(#pfea7f58810)" style="fill: #1f77b4"/>
   </g>
   <g id="patch_72">
    <path d="M 172.192282 273.312 
L 173.809533 273.312 
L 173.809533 72.58752 
L 172.192282 72.58752 
z
" clip-path="url(#pfea7f58810)" style="fill: #1f77b4"/>
   </g>
   <g id="patch_73">
    <path d="M 173.809533 273.312 
L 175.426784 273.312 
L 175.426784 94.89024 
L 173.809533 94.89024 
z
" clip-path="url(#pfea7f58810)" style="fill: #1f77b4"/>
   </g>
   <g id="patch_74">
    <path d="M 175.426784 273.312 
L 177.044035 273.312 
L 177.044035 91.51104 
L 175.426784 91.51104 
z
" clip-path="url(#pfea7f58810)" style="fill: #1f77b4"/>
   </g>
   <g id="patch_75">
    <path d="M 177.044035 273.312 
L 178.661285 273.312 
L 178.661285 71.91168 
L 177.044035 71.91168 
z
" clip-path="url(#pfea7f58810)" style="fill: #1f77b4"/>
   </g>
   <g id="patch_76">
    <path d="M 178.661285 273.312 
L 180.278536 273.312 
L 180.278536 75.29088 
L 178.661285 75.29088 
z
" clip-path="url(#pfea7f58810)" style="fill: #1f77b4"/>
   </g>
   <g id="patch_77">
    <path d="M 180.278536 273.312 
L 181.895787 273.312 
L 181.895787 84.75264 
L 180.278536 84.75264 
z
" clip-path="url(#pfea7f58810)" style="fill: #1f77b4"/>
   </g>
   <g id="patch_78">
    <path d="M 181.895787 273.312 
L 183.513038 273.312 
L 183.513038 79.34592 
L 181.895787 79.34592 
z
" clip-path="url(#pfea7f58810)" style="fill: #1f77b4"/>
   </g>
   <g id="patch_79">
    <path d="M 183.513038 273.312 
L 185.130289 273.312 
L 185.130289 82.04928 
L 183.513038 82.04928 
z
" clip-path="url(#pfea7f58810)" style="fill: #1f77b4"/>
   </g>
   <g id="patch_80">
    <path d="M 185.130289 273.312 
L 186.747539 273.312 
L 186.747539 80.02176 
L 185.130289 80.02176 
z
" clip-path="url(#pfea7f58810)" style="fill: #1f77b4"/>
   </g>
   <g id="patch_81">
    <path d="M 186.747539 273.312 
L 188.36479 273.312 
L 188.36479 71.23584 
L 186.747539 71.23584 
z
" clip-path="url(#pfea7f58810)" style="fill: #1f77b4"/>
   </g>
   <g id="patch_82">
    <path d="M 188.36479 273.312 
L 189.982041 273.312 
L 189.982041 63.8016 
L 188.36479 63.8016 
z
" clip-path="url(#pfea7f58810)" style="fill: #1f77b4"/>
   </g>
   <g id="patch_83">
    <path d="M 189.982041 273.312 
L 191.599292 273.312 
L 191.599292 92.86272 
L 189.982041 92.86272 
z
" clip-path="url(#pfea7f58810)" style="fill: #1f77b4"/>
   </g>
   <g id="patch_84">
    <path d="M 191.599292 273.312 
L 193.216543 273.312 
L 193.216543 71.23584 
L 191.599292 71.23584 
z
" clip-path="url(#pfea7f58810)" style="fill: #1f77b4"/>
   </g>
   <g id="patch_85">
    <path d="M 193.216543 273.312 
L 194.833793 273.312 
L 194.833793 58.39488 
L 193.216543 58.39488 
z
" clip-path="url(#pfea7f58810)" style="fill: #1f77b4"/>
   </g>
   <g id="patch_86">
    <path d="M 194.833793 273.312 
L 196.451044 273.312 
L 196.451044 75.96672 
L 194.833793 75.96672 
z
" clip-path="url(#pfea7f58810)" style="fill: #1f77b4"/>
   </g>
   <g id="patch_87">
    <path d="M 196.451044 273.312 
L 198.068295 273.312 
L 198.068295 79.34592 
L 196.451044 79.34592 
z
" clip-path="url(#pfea7f58810)" style="fill: #1f77b4"/>
   </g>
   <g id="patch_88">
    <path d="M 198.068295 273.312 
L 199.685546 273.312 
L 199.685546 62.44992 
L 198.068295 62.44992 
z
" clip-path="url(#pfea7f58810)" style="fill: #1f77b4"/>
   </g>
   <g id="patch_89">
    <path d="M 199.685546 273.312 
L 201.302796 273.312 
L 201.302796 80.02176 
L 199.685546 80.02176 
z
" clip-path="url(#pfea7f58810)" style="fill: #1f77b4"/>
   </g>
   <g id="patch_90">
    <path d="M 201.302796 273.312 
L 202.920047 273.312 
L 202.920047 78.67008 
L 201.302796 78.67008 
z
" clip-path="url(#pfea7f58810)" style="fill: #1f77b4"/>
   </g>
   <g id="patch_91">
    <path d="M 202.920047 273.312 
L 204.537298 273.312 
L 204.537298 48.93312 
L 202.920047 48.93312 
z
" clip-path="url(#pfea7f58810)" style="fill: #1f77b4"/>
   </g>
   <g id="patch_92">
    <path d="M 204.537298 273.312 
L 206.154549 273.312 
L 206.154549 75.29088 
L 204.537298 75.29088 
z
" clip-path="url(#pfea7f58810)" style="fill: #1f77b4"/>
   </g>
   <g id="patch_93">
    <path d="M 206.154549 273.312 
L 207.7718 273.312 
L 207.7718 87.456 
L 206.154549 87.456 
z
" clip-path="url(#pfea7f58810)" style="fill: #1f77b4"/>
   </g>
   <g id="patch_94">
    <path d="M 207.7718 273.312 
L 209.38905 273.312 
L 209.38905 69.20832 
L 207.7718 69.20832 
z
" clip-path="url(#pfea7f58810)" style="fill: #1f77b4"/>
   </g>
   <g id="patch_95">
    <path d="M 209.38905 273.312 
L 211.006301 273.312 
L 211.006301 63.8016 
L 209.38905 63.8016 
z
" clip-path="url(#pfea7f58810)" style="fill: #1f77b4"/>
   </g>
   <g id="patch_96">
    <path d="M 211.006301 273.312 
L 212.623552 273.312 
L 212.623552 74.61504 
L 211.006301 74.61504 
z
" clip-path="url(#pfea7f58810)" style="fill: #1f77b4"/>
   </g>
   <g id="patch_97">
    <path d="M 212.623552 273.312 
L 214.240803 273.312 
L 214.240803 59.74656 
L 212.623552 59.74656 
z
" clip-path="url(#pfea7f58810)" style="fill: #1f77b4"/>
   </g>
   <g id="patch_98">
    <path d="M 214.240803 273.312 
L 215.858054 273.312 
L 215.858054 51.63648 
L 214.240803 51.63648 
z
" clip-path="url(#pfea7f58810)" style="fill: #1f77b4"/>
   </g>
   <g id="patch_99">
    <path d="M 215.858054 273.312 
L 217.475304 273.312 
L 217.475304 33.3888 
L 215.858054 33.3888 
z
" clip-path="url(#pfea7f58810)" style="fill: #1f77b4"/>
   </g>
   <g id="patch_100">
    <path d="M 217.475304 273.312 
L 219.092555 273.312 
L 219.092555 62.44992 
L 217.475304 62.44992 
z
" clip-path="url(#pfea7f58810)" style="fill: #1f77b4"/>
   </g>
   <g id="patch_101">
    <path d="M 219.092555 273.312 
L 220.709806 273.312 
L 220.709806 77.3184 
L 219.092555 77.3184 
z
" clip-path="url(#pfea7f58810)" style="fill: #1f77b4"/>
   </g>
   <g id="patch_102">
    <path d="M 220.709806 273.312 
L 222.327057 273.312 
L 222.327057 59.07072 
L 220.709806 59.07072 
z
" clip-path="url(#pfea7f58810)" style="fill: #1f77b4"/>
   </g>
   <g id="patch_103">
    <path d="M 222.327057 273.312 
L 223.944308 273.312 
L 223.944308 57.71904 
L 222.327057 57.71904 
z
" clip-path="url(#pfea7f58810)" style="fill: #1f77b4"/>
   </g>
   <g id="patch_104">
    <path d="M 223.944308 273.312 
L 225.561558 273.312 
L 225.561558 19.872 
L 223.944308 19.872 
z
" clip-path="url(#pfea7f58810)" style="fill: #1f77b4"/>
   </g>
   <g id="patch_105">
    <path d="M 225.561558 273.312 
L 227.178809 273.312 
L 227.178809 21.22368 
L 225.561558 21.22368 
z
" clip-path="url(#pfea7f58810)" style="fill: #1f77b4"/>
   </g>
   <g id="patch_106">
    <path d="M 227.178809 273.312 
L 228.79606 273.312 
L 228.79606 59.74656 
L 227.178809 59.74656 
z
" clip-path="url(#pfea7f58810)" style="fill: #1f77b4"/>
   </g>
   <g id="patch_107">
    <path d="M 228.79606 273.312 
L 230.413311 273.312 
L 230.413311 62.44992 
L 228.79606 62.44992 
z
" clip-path="url(#pfea7f58810)" style="fill: #1f77b4"/>
   </g>
   <g id="patch_108">
    <path d="M 230.413311 273.312 
L 232.030562 273.312 
L 232.030562 38.79552 
L 230.413311 38.79552 
z
" clip-path="url(#pfea7f58810)" style="fill: #1f77b4"/>
   </g>
   <g id="patch_109">
    <path d="M 232.030562 273.312 
L 233.647812 273.312 
L 233.647812 71.91168 
L 232.030562 71.91168 
z
" clip-path="url(#pfea7f58810)" style="fill: #1f77b4"/>
   </g>
   <g id="patch_110">
    <path d="M 233.647812 273.312 
L 235.265063 273.312 
L 235.265063 58.39488 
L 233.647812 58.39488 
z
" clip-path="url(#pfea7f58810)" style="fill: #1f77b4"/>
   </g>
   <g id="patch_111">
    <path d="M 235.265063 273.312 
L 236.882314 273.312 
L 236.882314 67.1808 
L 235.265063 67.1808 
z
" clip-path="url(#pfea7f58810)" style="fill: #1f77b4"/>
   </g>
   <g id="patch_112">
    <path d="M 236.882314 273.312 
L 238.499565 273.312 
L 238.499565 70.56 
L 236.882314 70.56 
z
" clip-path="url(#pfea7f58810)" style="fill: #1f77b4"/>
   </g>
   <g id="patch_113">
    <path d="M 238.499565 273.312 
L 240.116816 273.312 
L 240.116816 67.1808 
L 238.499565 67.1808 
z
" clip-path="url(#pfea7f58810)" style="fill: #1f77b4"/>
   </g>
   <g id="patch_114">
    <path d="M 240.116816 273.312 
L 241.734066 273.312 
L 241.734066 63.8016 
L 240.116816 63.8016 
z
" clip-path="url(#pfea7f58810)" style="fill: #1f77b4"/>
   </g>
   <g id="patch_115">
    <path d="M 241.734066 273.312 
L 243.351317 273.312 
L 243.351317 70.56 
L 241.734066 70.56 
z
" clip-path="url(#pfea7f58810)" style="fill: #1f77b4"/>
   </g>
   <g id="patch_116">
    <path d="M 243.351317 273.312 
L 244.968568 273.312 
L 244.968568 64.47744 
L 243.351317 64.47744 
z
" clip-path="url(#pfea7f58810)" style="fill: #1f77b4"/>
   </g>
   <g id="patch_117">
    <path d="M 244.968568 273.312 
L 246.585819 273.312 
L 246.585819 77.99424 
L 244.968568 77.99424 
z
" clip-path="url(#pfea7f58810)" style="fill: #1f77b4"/>
   </g>
   <g id="patch_118">
    <path d="M 246.585819 273.312 
L 248.20307 273.312 
L 248.20307 81.37344 
L 246.585819 81.37344 
z
" clip-path="url(#pfea7f58810)" style="fill: #1f77b4"/>
   </g>
   <g id="patch_119">
    <path d="M 248.20307 273.312 
L 249.82032 273.312 
L 249.82032 68.53248 
L 248.20307 68.53248 
z
" clip-path="url(#pfea7f58810)" style="fill: #1f77b4"/>
   </g>
   <g id="patch_120">
    <path d="M 249.82032 273.312 
L 251.437571 273.312 
L 251.437571 80.6976 
L 249.82032 80.6976 
z
" clip-path="url(#pfea7f58810)" style="fill: #1f77b4"/>
   </g>
   <g id="patch_121">
    <path d="M 251.437571 273.312 
L 253.054822 273.312 
L 253.054822 66.50496 
L 251.437571 66.50496 
z
" clip-path="url(#pfea7f58810)" style="fill: #1f77b4"/>
   </g>
   <g id="patch_122">
    <path d="M 253.054822 273.312 
L 254.672073 273.312 
L 254.672073 61.09824 
L 253.054822 61.09824 
z
" clip-path="url(#pfea7f58810)" style="fill: #1f77b4"/>
   </g>
   <g id="patch_123">
    <path d="M 254.672073 273.312 
L 256.289323 273.312 
L 256.289323 86.10432 
L 254.672073 86.10432 
z
" clip-path="url(#pfea7f58810)" style="fill: #1f77b4"/>
   </g>
   <g id="patch_124">
    <path d="M 256.289323 273.312 
L 257.906574 273.312 
L 257.906574 69.88416 
L 256.289323 69.88416 
z
" clip-path="url(#pfea7f58810)" style="fill: #1f77b4"/>
   </g>
   <g id="patch_125">
    <path d="M 257.906574 273.312 
L 259.523825 273.312 
L 259.523825 69.88416 
L 257.906574 69.88416 
z
" clip-path="url(#pfea7f58810)" style="fill: #1f77b4"/>
   </g>
   <g id="patch_126">
    <path d="M 259.523825 273.312 
L 261.141076 273.312 
L 261.141076 72.58752 
L 259.523825 72.58752 
z
" clip-path="url(#pfea7f58810)" style="fill: #1f77b4"/>
   </g>
   <g id="patch_127">
    <path d="M 261.141076 273.312 
L 262.758327 273.312 
L 262.758327 90.15936 
L 261.141076 90.15936 
z
" clip-path="url(#pfea7f58810)" style="fill: #1f77b4"/>
   </g>
   <g id="patch_128">
    <path d="M 262.758327 273.312 
L 264.375577 273.312 
L 264.375577 92.86272 
L 262.758327 92.86272 
z
" clip-path="url(#pfea7f58810)" style="fill: #1f77b4"/>
   </g>
   <g id="patch_129">
    <path d="M 264.375577 273.312 
L 265.992828 273.312 
L 265.992828 71.91168 
L 264.375577 71.91168 
z
" clip-path="url(#pfea7f58810)" style="fill: #1f77b4"/>
   </g>
   <g id="patch_130">
    <path d="M 265.992828 273.312 
L 267.610079 273.312 
L 267.610079 84.0768 
L 265.992828 84.0768 
z
" clip-path="url(#pfea7f58810)" style="fill: #1f77b4"/>
   </g>
   <g id="patch_131">
    <path d="M 267.610079 273.312 
L 269.22733 273.312 
L 269.22733 84.0768 
L 267.610079 84.0768 
z
" clip-path="url(#pfea7f58810)" style="fill: #1f77b4"/>
   </g>
   <g id="patch_132">
    <path d="M 269.22733 273.312 
L 270.844581 273.312 
L 270.844581 88.80768 
L 269.22733 88.80768 
z
" clip-path="url(#pfea7f58810)" style="fill: #1f77b4"/>
   </g>
   <g id="patch_133">
    <path d="M 270.844581 273.312 
L 272.461831 273.312 
L 272.461831 80.6976 
L 270.844581 80.6976 
z
" clip-path="url(#pfea7f58810)" style="fill: #1f77b4"/>
   </g>
   <g id="patch_134">
    <path d="M 272.461831 273.312 
L 274.079082 273.312 
L 274.079082 93.53856 
L 272.461831 93.53856 
z
" clip-path="url(#pfea7f58810)" style="fill: #1f77b4"/>
   </g>
   <g id="patch_135">
    <path d="M 274.079082 273.312 
L 275.696333 273.312 
L 275.696333 73.26336 
L 274.079082 73.26336 
z
" clip-path="url(#pfea7f58810)" style="fill: #1f77b4"/>
   </g>
   <g id="patch_136">
    <path d="M 275.696333 273.312 
L 277.313584 273.312 
L 277.313584 88.80768 
L 275.696333 88.80768 
z
" clip-path="url(#pfea7f58810)" style="fill: #1f77b4"/>
   </g>
   <g id="patch_137">
    <path d="M 277.313584 273.312 
L 278.930835 273.312 
L 278.930835 101.64864 
L 277.313584 101.64864 
z
" clip-path="url(#pfea7f58810)" style="fill: #1f77b4"/>
   </g>
   <g id="patch_138">
    <path d="M 278.930835 273.312 
L 280.548085 273.312 
L 280.548085 102.32448 
L 278.930835 102.32448 
z
" clip-path="url(#pfea7f58810)" style="fill: #1f77b4"/>
   </g>
   <g id="patch_139">
    <path d="M 280.548085 273.312 
L 282.165336 273.312 
L 282.165336 101.64864 
L 280.548085 101.64864 
z
" clip-path="url(#pfea7f58810)" style="fill: #1f77b4"/>
   </g>
   <g id="patch_140">
    <path d="M 282.165336 273.312 
L 283.782587 273.312 
L 283.782587 79.34592 
L 282.165336 79.34592 
z
" clip-path="url(#pfea7f58810)" style="fill: #1f77b4"/>
   </g>
   <g id="patch_141">
    <path d="M 283.782587 273.312 
L 285.399838 273.312 
L 285.399838 97.5936 
L 283.782587 97.5936 
z
" clip-path="url(#pfea7f58810)" style="fill: #1f77b4"/>
   </g>
   <g id="patch_142">
    <path d="M 285.399838 273.312 
L 287.017089 273.312 
L 287.017089 123.95136 
L 285.399838 123.95136 
z
" clip-path="url(#pfea7f58810)" style="fill: #1f77b4"/>
   </g>
   <g id="patch_143">
    <path d="M 287.017089 273.312 
L 288.634339 273.312 
L 288.634339 83.40096 
L 287.017089 83.40096 
z
" clip-path="url(#pfea7f58810)" style="fill: #1f77b4"/>
   </g>
   <g id="patch_144">
    <path d="M 288.634339 273.312 
L 290.25159 273.312 
L 290.25159 110.43456 
L 288.634339 110.43456 
z
" clip-path="url(#pfea7f58810)" style="fill: #1f77b4"/>
   </g>
   <g id="patch_145">
    <path d="M 290.25159 273.312 
L 291.868841 273.312 
L 291.868841 116.51712 
L 290.25159 116.51712 
z
" clip-path="url(#pfea7f58810)" style="fill: #1f77b4"/>
   </g>
   <g id="patch_146">
    <path d="M 291.868841 273.312 
L 293.486092 273.312 
L 293.486092 105.70368 
L 291.868841 105.70368 
z
" clip-path="url(#pfea7f58810)" style="fill: #1f77b4"/>
   </g>
   <g id="patch_147">
    <path d="M 293.486092 273.312 
L 295.103343 273.312 
L 295.103343 94.89024 
L 293.486092 94.89024 
z
" clip-path="url(#pfea7f58810)" style="fill: #1f77b4"/>
   </g>
   <g id="patch_148">
    <path d="M 295.103343 273.312 
L 296.720593 273.312 
L 296.720593 109.08288 
L 295.103343 109.08288 
z
" clip-path="url(#pfea7f58810)" style="fill: #1f77b4"/>
   </g>
   <g id="patch_149">
    <path d="M 296.720593 273.312 
L 298.337844 273.312 
L 298.337844 109.08288 
L 296.720593 109.08288 
z
" clip-path="url(#pfea7f58810)" style="fill: #1f77b4"/>
   </g>
   <g id="patch_150">
    <path d="M 298.337844 273.312 
L 299.955095 273.312 
L 299.955095 121.92384 
L 298.337844 121.92384 
z
" clip-path="url(#pfea7f58810)" style="fill: #1f77b4"/>
   </g>
   <g id="patch_151">
    <path d="M 299.955095 273.312 
L 301.572346 273.312 
L 301.572346 105.02784 
L 299.955095 105.02784 
z
" clip-path="url(#pfea7f58810)" style="fill: #1f77b4"/>
   </g>
   <g id="patch_152">
    <path d="M 301.572346 273.312 
L 303.189596 273.312 
L 303.189596 125.97888 
L 301.572346 125.97888 
z
" clip-path="url(#pfea7f58810)" style="fill: #1f77b4"/>
   </g>
   <g id="patch_153">
    <path d="M 303.189596 273.312 
L 304.806847 273.312 
L 304.806847 123.27552 
L 303.189596 123.27552 
z
" clip-path="url(#pfea7f58810)" style="fill: #1f77b4"/>
   </g>
   <g id="patch_154">
    <path d="M 304.806847 273.312 
L 306.424098 273.312 
L 306.424098 127.33056 
L 304.806847 127.33056 
z
" clip-path="url(#pfea7f58810)" style="fill: #1f77b4"/>
   </g>
   <g id="patch_155">
    <path d="M 306.424098 273.312 
L 308.041349 273.312 
L 308.041349 131.3856 
L 306.424098 131.3856 
z
" clip-path="url(#pfea7f58810)" style="fill: #1f77b4"/>
   </g>
   <g id="patch_156">
    <path d="M 308.041349 273.312 
L 309.6586 273.312 
L 309.6586 129.35808 
L 308.041349 129.35808 
z
" clip-path="url(#pfea7f58810)" style="fill: #1f77b4"/>
   </g>
   <g id="patch_157">
    <path d="M 309.6586 273.312 
L 311.27585 273.312 
L 311.27585 121.248 
L 309.6586 121.248 
z
" clip-path="url(#pfea7f58810)" style="fill: #1f77b4"/>
   </g>
   <g id="patch_158">
    <path d="M 311.27585 273.312 
L 312.893101 273.312 
L 312.893101 138.81984 
L 311.27585 138.81984 
z
" clip-path="url(#pfea7f58810)" style="fill: #1f77b4"/>
   </g>
   <g id="patch_159">
    <path d="M 312.893101 273.312 
L 314.510352 273.312 
L 314.510352 136.11648 
L 312.893101 136.11648 
z
" clip-path="url(#pfea7f58810)" style="fill: #1f77b4"/>
   </g>
   <g id="patch_160">
    <path d="M 314.510352 273.312 
L 316.127603 273.312 
L 316.127603 124.6272 
L 314.510352 124.6272 
z
" clip-path="url(#pfea7f58810)" style="fill: #1f77b4"/>
   </g>
   <g id="patch_161">
    <path d="M 316.127603 273.312 
L 317.744854 273.312 
L 317.744854 139.49568 
L 316.127603 139.49568 
z
" clip-path="url(#pfea7f58810)" style="fill: #1f77b4"/>
   </g>
   <g id="patch_162">
    <path d="M 317.744854 273.312 
L 319.362104 273.312 
L 319.362104 163.82592 
L 317.744854 163.82592 
z
" clip-path="url(#pfea7f58810)" style="fill: #1f77b4"/>
   </g>
   <g id="patch_163">
    <path d="M 319.362104 273.312 
L 320.979355 273.312 
L 320.979355 147.60576 
L 319.362104 147.60576 
z
" clip-path="url(#pfea7f58810)" style="fill: #1f77b4"/>
   </g>
   <g id="patch_164">
    <path d="M 320.979355 273.312 
L 322.596606 273.312 
L 322.596606 157.74336 
L 320.979355 157.74336 
z
" clip-path="url(#pfea7f58810)" style="fill: #1f77b4"/>
   </g>
   <g id="patch_165">
    <path d="M 322.596606 273.312 
L 324.213857 273.312 
L 324.213857 153.01248 
L 322.596606 153.01248 
z
" clip-path="url(#pfea7f58810)" style="fill: #1f77b4"/>
   </g>
   <g id="patch_166">
    <path d="M 324.213857 273.312 
L 325.831108 273.312 
L 325.831108 168.5568 
L 324.213857 168.5568 
z
" clip-path="url(#pfea7f58810)" style="fill: #1f77b4"/>
   </g>
   <g id="patch_167">
    <path d="M 325.831108 273.312 
L 327.448358 273.312 
L 327.448358 163.82592 
L 325.831108 163.82592 
z
" clip-path="url(#pfea7f58810)" style="fill: #1f77b4"/>
   </g>
   <g id="patch_168">
    <path d="M 327.448358 273.312 
L 329.065609 273.312 
L 329.065609 169.90848 
L 327.448358 169.90848 
z
" clip-path="url(#pfea7f58810)" style="fill: #1f77b4"/>
   </g>
   <g id="patch_169">
    <path d="M 329.065609 273.312 
L 330.68286 273.312 
L 330.68286 164.50176 
L 329.065609 164.50176 
z
" clip-path="url(#pfea7f58810)" style="fill: #1f77b4"/>
   </g>
   <g id="patch_170">
    <path d="M 330.68286 273.312 
L 332.300111 273.312 
L 332.300111 167.88096 
L 330.68286 167.88096 
z
" clip-path="url(#pfea7f58810)" style="fill: #1f77b4"/>
   </g>
   <g id="patch_171">
    <path d="M 332.300111 273.312 
L 333.917362 273.312 
L 333.917362 171.26016 
L 332.300111 171.26016 
z
" clip-path="url(#pfea7f58810)" style="fill: #1f77b4"/>
   </g>
   <g id="patch_172">
    <path d="M 333.917362 273.312 
L 335.534612 273.312 
L 335.534612 161.7984 
L 333.917362 161.7984 
z
" clip-path="url(#pfea7f58810)" style="fill: #1f77b4"/>
   </g>
   <g id="patch_173">
    <path d="M 335.534612 273.312 
L 337.151863 273.312 
L 337.151863 179.37024 
L 335.534612 179.37024 
z
" clip-path="url(#pfea7f58810)" style="fill: #1f77b4"/>
   </g>
   <g id="patch_174">
    <path d="M 337.151863 273.312 
L 338.769114 273.312 
L 338.769114 182.0736 
L 337.151863 182.0736 
z
" clip-path="url(#pfea7f58810)" style="fill: #1f77b4"/>
   </g>
   <g id="patch_175">
    <path d="M 338.769114 273.312 
L 340.386365 273.312 
L 340.386365 192.2112 
L 338.769114 192.2112 
z
" clip-path="url(#pfea7f58810)" style="fill: #1f77b4"/>
   </g>
   <g id="patch_176">
    <path d="M 340.386365 273.312 
L 342.003616 273.312 
L 342.003616 184.10112 
L 340.386365 184.10112 
z
" clip-path="url(#pfea7f58810)" style="fill: #1f77b4"/>
   </g>
   <g id="patch_177">
    <path d="M 342.003616 273.312 
L 343.620866 273.312 
L 343.620866 197.61792 
L 342.003616 197.61792 
z
" clip-path="url(#pfea7f58810)" style="fill: #1f77b4"/>
   </g>
   <g id="patch_178">
    <path d="M 343.620866 273.312 
L 345.238117 273.312 
L 345.238117 194.91456 
L 343.620866 194.91456 
z
" clip-path="url(#pfea7f58810)" style="fill: #1f77b4"/>
   </g>
   <g id="patch_179">
    <path d="M 345.238117 273.312 
L 346.855368 273.312 
L 346.855368 205.728 
L 345.238117 205.728 
z
" clip-path="url(#pfea7f58810)" style="fill: #1f77b4"/>
   </g>
   <g id="patch_180">
    <path d="M 346.855368 273.312 
L 348.472619 273.312 
L 348.472619 198.9696 
L 346.855368 198.9696 
z
" clip-path="url(#pfea7f58810)" style="fill: #1f77b4"/>
   </g>
   <g id="patch_181">
    <path d="M 348.472619 273.312 
L 350.089869 273.312 
L 350.089869 201.67296 
L 348.472619 201.67296 
z
" clip-path="url(#pfea7f58810)" style="fill: #1f77b4"/>
   </g>
   <g id="patch_182">
    <path d="M 350.089869 273.312 
L 351.70712 273.312 
L 351.70712 215.8656 
L 350.089869 215.8656 
z
" clip-path="url(#pfea7f58810)" style="fill: #1f77b4"/>
   </g>
   <g id="patch_183">
    <path d="M 351.70712 273.312 
L 353.324371 273.312 
L 353.324371 220.59648 
L 351.70712 220.59648 
z
" clip-path="url(#pfea7f58810)" style="fill: #1f77b4"/>
   </g>
   <g id="patch_184">
    <path d="M 353.324371 273.312 
L 354.941622 273.312 
L 354.941622 207.75552 
L 353.324371 207.75552 
z
" clip-path="url(#pfea7f58810)" style="fill: #1f77b4"/>
   </g>
   <g id="patch_185">
    <path d="M 354.941622 273.312 
L 356.558873 273.312 
L 356.558873 211.13472 
L 354.941622 211.13472 
z
" clip-path="url(#pfea7f58810)" style="fill: #1f77b4"/>
   </g>
   <g id="patch_186">
    <path d="M 356.558873 273.312 
L 358.176123 273.312 
L 358.176123 215.8656 
L 356.558873 215.8656 
z
" clip-path="url(#pfea7f58810)" style="fill: #1f77b4"/>
   </g>
   <g id="patch_187">
    <path d="M 358.176123 273.312 
L 359.793374 273.312 
L 359.793374 222.624 
L 358.176123 222.624 
z
" clip-path="url(#pfea7f58810)" style="fill: #1f77b4"/>
   </g>
   <g id="patch_188">
    <path d="M 359.793374 273.312 
L 361.410625 273.312 
L 361.410625 240.87168 
L 359.793374 240.87168 
z
" clip-path="url(#pfea7f58810)" style="fill: #1f77b4"/>
   </g>
   <g id="patch_189">
    <path d="M 361.410625 273.312 
L 363.027876 273.312 
L 363.027876 231.40992 
L 361.410625 231.40992 
z
" clip-path="url(#pfea7f58810)" style="fill: #1f77b4"/>
   </g>
   <g id="patch_190">
    <path d="M 363.027876 273.312 
L 364.645127 273.312 
L 364.645127 232.7616 
L 363.027876 232.7616 
z
" clip-path="url(#pfea7f58810)" style="fill: #1f77b4"/>
   </g>
   <g id="patch_191">
    <path d="M 364.645127 273.312 
L 366.262377 273.312 
L 366.262377 223.97568 
L 364.645127 223.97568 
z
" clip-path="url(#pfea7f58810)" style="fill: #1f77b4"/>
   </g>
   <g id="patch_192">
    <path d="M 366.262377 273.312 
L 367.879628 273.312 
L 367.879628 236.81664 
L 366.262377 236.81664 
z
" clip-path="url(#pfea7f58810)" style="fill: #1f77b4"/>
   </g>
   <g id="patch_193">
    <path d="M 367.879628 273.312 
L 369.496879 273.312 
L 369.496879 240.19584 
L 367.879628 240.19584 
z
" clip-path="url(#pfea7f58810)" style="fill: #1f77b4"/>
   </g>
   <g id="patch_194">
    <path d="M 369.496879 273.312 
L 371.11413 273.312 
L 371.11413 238.16832 
L 369.496879 238.16832 
z
" clip-path="url(#pfea7f58810)" style="fill: #1f77b4"/>
   </g>
   <g id="patch_195">
    <path d="M 371.11413 273.312 
L 372.731381 273.312 
L 372.731381 251.00928 
L 371.11413 251.00928 
z
" clip-path="url(#pfea7f58810)" style="fill: #1f77b4"/>
   </g>
   <g id="patch_196">
    <path d="M 372.731381 273.312 
L 374.348631 273.312 
L 374.348631 248.98176 
L 372.731381 248.98176 
z
" clip-path="url(#pfea7f58810)" style="fill: #1f77b4"/>
   </g>
   <g id="patch_197">
    <path d="M 374.348631 273.312 
L 375.965882 273.312 
L 375.965882 253.71264 
L 374.348631 253.71264 
z
" clip-path="url(#pfea7f58810)" style="fill: #1f77b4"/>
   </g>
   <g id="patch_198">
    <path d="M 375.965882 273.312 
L 377.583133 273.312 
L 377.583133 257.09184 
L 375.965882 257.09184 
z
" clip-path="url(#pfea7f58810)" style="fill: #1f77b4"/>
   </g>
   <g id="patch_199">
    <path d="M 377.583133 273.312 
L 379.200384 273.312 
L 379.200384 261.14688 
L 377.583133 261.14688 
z
" clip-path="url(#pfea7f58810)" style="fill: #1f77b4"/>
   </g>
   <g id="patch_200">
    <path d="M 379.200384 273.312 
L 380.817635 273.312 
L 380.817635 263.1744 
L 379.200384 263.1744 
z
" clip-path="url(#pfea7f58810)" style="fill: #1f77b4"/>
   </g>
   <g id="patch_201">
    <path d="M 380.817635 273.312 
L 382.434885 273.312 
L 382.434885 267.22944 
L 380.817635 267.22944 
z
" clip-path="url(#pfea7f58810)" style="fill: #1f77b4"/>
   </g>
   <g id="patch_202">
    <path d="M 382.434885 273.312 
L 384.052136 273.312 
L 384.052136 268.58112 
L 382.434885 268.58112 
z
" clip-path="url(#pfea7f58810)" style="fill: #1f77b4"/>
   </g>
   <g id="matplotlib.axis_1">
    <g id="xtick_1">
     <g id="line2d_1">
      <defs>
       <path id="m9545636f06" d="M 0 0 
L 0 3.5 
" style="stroke: #000000; stroke-width: 0.8"/>
      </defs>
      <g>
       <use xlink:href="#m9545636f06" x="60.013977" y="273.312" style="stroke: #000000; stroke-width: 0.8"/>
      </g>
     </g>
     <g id="text_1">
      <!-- 0.0 -->
      <g transform="translate(52.062415 287.910437)scale(0.1 -0.1)">
       <defs>
        <path id="DejaVuSans-30" d="M 2034 4250 
Q 1547 4250 1301 3770 
Q 1056 3291 1056 2328 
Q 1056 1369 1301 889 
Q 1547 409 2034 409 
Q 2525 409 2770 889 
Q 3016 1369 3016 2328 
Q 3016 3291 2770 3770 
Q 2525 4250 2034 4250 
z
M 2034 4750 
Q 2819 4750 3233 4129 
Q 3647 3509 3647 2328 
Q 3647 1150 3233 529 
Q 2819 -91 2034 -91 
Q 1250 -91 836 529 
Q 422 1150 422 2328 
Q 422 3509 836 4129 
Q 1250 4750 2034 4750 
z
" transform="scale(0.015625)"/>
        <path id="DejaVuSans-2e" d="M 684 794 
L 1344 794 
L 1344 0 
L 684 0 
L 684 794 
z
" transform="scale(0.015625)"/>
       </defs>
       <use xlink:href="#DejaVuSans-30"/>
       <use xlink:href="#DejaVuSans-2e" x="63.623047"/>
       <use xlink:href="#DejaVuSans-30" x="95.410156"/>
      </g>
     </g>
    </g>
    <g id="xtick_2">
     <g id="line2d_2">
      <g>
       <use xlink:href="#m9545636f06" x="101.350278" y="273.312" style="stroke: #000000; stroke-width: 0.8"/>
      </g>
     </g>
     <g id="text_2">
      <!-- 0.2 -->
      <g transform="translate(93.398715 287.910437)scale(0.1 -0.1)">
       <defs>
        <path id="DejaVuSans-32" d="M 1228 531 
L 3431 531 
L 3431 0 
L 469 0 
L 469 531 
Q 828 903 1448 1529 
Q 2069 2156 2228 2338 
Q 2531 2678 2651 2914 
Q 2772 3150 2772 3378 
Q 2772 3750 2511 3984 
Q 2250 4219 1831 4219 
Q 1534 4219 1204 4116 
Q 875 4013 500 3803 
L 500 4441 
Q 881 4594 1212 4672 
Q 1544 4750 1819 4750 
Q 2544 4750 2975 4387 
Q 3406 4025 3406 3419 
Q 3406 3131 3298 2873 
Q 3191 2616 2906 2266 
Q 2828 2175 2409 1742 
Q 1991 1309 1228 531 
z
" transform="scale(0.015625)"/>
       </defs>
       <use xlink:href="#DejaVuSans-30"/>
       <use xlink:href="#DejaVuSans-2e" x="63.623047"/>
       <use xlink:href="#DejaVuSans-32" x="95.410156"/>
      </g>
     </g>
    </g>
    <g id="xtick_3">
     <g id="line2d_3">
      <g>
       <use xlink:href="#m9545636f06" x="142.686578" y="273.312" style="stroke: #000000; stroke-width: 0.8"/>
      </g>
     </g>
     <g id="text_3">
      <!-- 0.4 -->
      <g transform="translate(134.735016 287.910437)scale(0.1 -0.1)">
       <defs>
        <path id="DejaVuSans-34" d="M 2419 4116 
L 825 1625 
L 2419 1625 
L 2419 4116 
z
M 2253 4666 
L 3047 4666 
L 3047 1625 
L 3713 1625 
L 3713 1100 
L 3047 1100 
L 3047 0 
L 2419 0 
L 2419 1100 
L 313 1100 
L 313 1709 
L 2253 4666 
z
" transform="scale(0.015625)"/>
       </defs>
       <use xlink:href="#DejaVuSans-30"/>
       <use xlink:href="#DejaVuSans-2e" x="63.623047"/>
       <use xlink:href="#DejaVuSans-34" x="95.410156"/>
      </g>
     </g>
    </g>
    <g id="xtick_4">
     <g id="line2d_4">
      <g>
       <use xlink:href="#m9545636f06" x="184.022879" y="273.312" style="stroke: #000000; stroke-width: 0.8"/>
      </g>
     </g>
     <g id="text_4">
      <!-- 0.6 -->
      <g transform="translate(176.071316 287.910437)scale(0.1 -0.1)">
       <defs>
        <path id="DejaVuSans-36" d="M 2113 2584 
Q 1688 2584 1439 2293 
Q 1191 2003 1191 1497 
Q 1191 994 1439 701 
Q 1688 409 2113 409 
Q 2538 409 2786 701 
Q 3034 994 3034 1497 
Q 3034 2003 2786 2293 
Q 2538 2584 2113 2584 
z
M 3366 4563 
L 3366 3988 
Q 3128 4100 2886 4159 
Q 2644 4219 2406 4219 
Q 1781 4219 1451 3797 
Q 1122 3375 1075 2522 
Q 1259 2794 1537 2939 
Q 1816 3084 2150 3084 
Q 2853 3084 3261 2657 
Q 3669 2231 3669 1497 
Q 3669 778 3244 343 
Q 2819 -91 2113 -91 
Q 1303 -91 875 529 
Q 447 1150 447 2328 
Q 447 3434 972 4092 
Q 1497 4750 2381 4750 
Q 2619 4750 2861 4703 
Q 3103 4656 3366 4563 
z
" transform="scale(0.015625)"/>
       </defs>
       <use xlink:href="#DejaVuSans-30"/>
       <use xlink:href="#DejaVuSans-2e" x="63.623047"/>
       <use xlink:href="#DejaVuSans-36" x="95.410156"/>
      </g>
     </g>
    </g>
    <g id="xtick_5">
     <g id="line2d_5">
      <g>
       <use xlink:href="#m9545636f06" x="225.35918" y="273.312" style="stroke: #000000; stroke-width: 0.8"/>
      </g>
     </g>
     <g id="text_5">
      <!-- 0.8 -->
      <g transform="translate(217.407617 287.910437)scale(0.1 -0.1)">
       <defs>
        <path id="DejaVuSans-38" d="M 2034 2216 
Q 1584 2216 1326 1975 
Q 1069 1734 1069 1313 
Q 1069 891 1326 650 
Q 1584 409 2034 409 
Q 2484 409 2743 651 
Q 3003 894 3003 1313 
Q 3003 1734 2745 1975 
Q 2488 2216 2034 2216 
z
M 1403 2484 
Q 997 2584 770 2862 
Q 544 3141 544 3541 
Q 544 4100 942 4425 
Q 1341 4750 2034 4750 
Q 2731 4750 3128 4425 
Q 3525 4100 3525 3541 
Q 3525 3141 3298 2862 
Q 3072 2584 2669 2484 
Q 3125 2378 3379 2068 
Q 3634 1759 3634 1313 
Q 3634 634 3220 271 
Q 2806 -91 2034 -91 
Q 1263 -91 848 271 
Q 434 634 434 1313 
Q 434 1759 690 2068 
Q 947 2378 1403 2484 
z
M 1172 3481 
Q 1172 3119 1398 2916 
Q 1625 2713 2034 2713 
Q 2441 2713 2670 2916 
Q 2900 3119 2900 3481 
Q 2900 3844 2670 4047 
Q 2441 4250 2034 4250 
Q 1625 4250 1398 4047 
Q 1172 3844 1172 3481 
z
" transform="scale(0.015625)"/>
       </defs>
       <use xlink:href="#DejaVuSans-30"/>
       <use xlink:href="#DejaVuSans-2e" x="63.623047"/>
       <use xlink:href="#DejaVuSans-38" x="95.410156"/>
      </g>
     </g>
    </g>
    <g id="xtick_6">
     <g id="line2d_6">
      <g>
       <use xlink:href="#m9545636f06" x="266.69548" y="273.312" style="stroke: #000000; stroke-width: 0.8"/>
      </g>
     </g>
     <g id="text_6">
      <!-- 1.0 -->
      <g transform="translate(258.743918 287.910437)scale(0.1 -0.1)">
       <defs>
        <path id="DejaVuSans-31" d="M 794 531 
L 1825 531 
L 1825 4091 
L 703 3866 
L 703 4441 
L 1819 4666 
L 2450 4666 
L 2450 531 
L 3481 531 
L 3481 0 
L 794 0 
L 794 531 
z
" transform="scale(0.015625)"/>
       </defs>
       <use xlink:href="#DejaVuSans-31"/>
       <use xlink:href="#DejaVuSans-2e" x="63.623047"/>
       <use xlink:href="#DejaVuSans-30" x="95.410156"/>
      </g>
     </g>
    </g>
    <g id="xtick_7">
     <g id="line2d_7">
      <g>
       <use xlink:href="#m9545636f06" x="308.031781" y="273.312" style="stroke: #000000; stroke-width: 0.8"/>
      </g>
     </g>
     <g id="text_7">
      <!-- 1.2 -->
      <g transform="translate(300.080218 287.910437)scale(0.1 -0.1)">
       <use xlink:href="#DejaVuSans-31"/>
       <use xlink:href="#DejaVuSans-2e" x="63.623047"/>
       <use xlink:href="#DejaVuSans-32" x="95.410156"/>
      </g>
     </g>
    </g>
    <g id="xtick_8">
     <g id="line2d_8">
      <g>
       <use xlink:href="#m9545636f06" x="349.368081" y="273.312" style="stroke: #000000; stroke-width: 0.8"/>
      </g>
     </g>
     <g id="text_8">
      <!-- 1.4 -->
      <g transform="translate(341.416519 287.910437)scale(0.1 -0.1)">
       <use xlink:href="#DejaVuSans-31"/>
       <use xlink:href="#DejaVuSans-2e" x="63.623047"/>
       <use xlink:href="#DejaVuSans-34" x="95.410156"/>
      </g>
     </g>
    </g>
    <g id="xtick_9">
     <g id="line2d_9">
      <g>
       <use xlink:href="#m9545636f06" x="390.704382" y="273.312" style="stroke: #000000; stroke-width: 0.8"/>
      </g>
     </g>
     <g id="text_9">
      <!-- 1.6 -->
      <g transform="translate(382.752819 287.910437)scale(0.1 -0.1)">
       <use xlink:href="#DejaVuSans-31"/>
       <use xlink:href="#DejaVuSans-2e" x="63.623047"/>
       <use xlink:href="#DejaVuSans-36" x="95.410156"/>
      </g>
     </g>
    </g>
    <g id="text_10">
     <!-- Angle with normal (rad) -->
     <g transform="translate(163.023281 301.588562)scale(0.1 -0.1)">
      <defs>
       <path id="DejaVuSans-41" d="M 2188 4044 
L 1331 1722 
L 3047 1722 
L 2188 4044 
z
M 1831 4666 
L 2547 4666 
L 4325 0 
L 3669 0 
L 3244 1197 
L 1141 1197 
L 716 0 
L 50 0 
L 1831 4666 
z
" transform="scale(0.015625)"/>
       <path id="DejaVuSans-6e" d="M 3513 2113 
L 3513 0 
L 2938 0 
L 2938 2094 
Q 2938 2591 2744 2837 
Q 2550 3084 2163 3084 
Q 1697 3084 1428 2787 
Q 1159 2491 1159 1978 
L 1159 0 
L 581 0 
L 581 3500 
L 1159 3500 
L 1159 2956 
Q 1366 3272 1645 3428 
Q 1925 3584 2291 3584 
Q 2894 3584 3203 3211 
Q 3513 2838 3513 2113 
z
" transform="scale(0.015625)"/>
       <path id="DejaVuSans-67" d="M 2906 1791 
Q 2906 2416 2648 2759 
Q 2391 3103 1925 3103 
Q 1463 3103 1205 2759 
Q 947 2416 947 1791 
Q 947 1169 1205 825 
Q 1463 481 1925 481 
Q 2391 481 2648 825 
Q 2906 1169 2906 1791 
z
M 3481 434 
Q 3481 -459 3084 -895 
Q 2688 -1331 1869 -1331 
Q 1566 -1331 1297 -1286 
Q 1028 -1241 775 -1147 
L 775 -588 
Q 1028 -725 1275 -790 
Q 1522 -856 1778 -856 
Q 2344 -856 2625 -561 
Q 2906 -266 2906 331 
L 2906 616 
Q 2728 306 2450 153 
Q 2172 0 1784 0 
Q 1141 0 747 490 
Q 353 981 353 1791 
Q 353 2603 747 3093 
Q 1141 3584 1784 3584 
Q 2172 3584 2450 3431 
Q 2728 3278 2906 2969 
L 2906 3500 
L 3481 3500 
L 3481 434 
z
" transform="scale(0.015625)"/>
       <path id="DejaVuSans-6c" d="M 603 4863 
L 1178 4863 
L 1178 0 
L 603 0 
L 603 4863 
z
" transform="scale(0.015625)"/>
       <path id="DejaVuSans-65" d="M 3597 1894 
L 3597 1613 
L 953 1613 
Q 991 1019 1311 708 
Q 1631 397 2203 397 
Q 2534 397 2845 478 
Q 3156 559 3463 722 
L 3463 178 
Q 3153 47 2828 -22 
Q 2503 -91 2169 -91 
Q 1331 -91 842 396 
Q 353 884 353 1716 
Q 353 2575 817 3079 
Q 1281 3584 2069 3584 
Q 2775 3584 3186 3129 
Q 3597 2675 3597 1894 
z
M 3022 2063 
Q 3016 2534 2758 2815 
Q 2500 3097 2075 3097 
Q 1594 3097 1305 2825 
Q 1016 2553 972 2059 
L 3022 2063 
z
" transform="scale(0.015625)"/>
       <path id="DejaVuSans-20" transform="scale(0.015625)"/>
       <path id="DejaVuSans-77" d="M 269 3500 
L 844 3500 
L 1563 769 
L 2278 3500 
L 2956 3500 
L 3675 769 
L 4391 3500 
L 4966 3500 
L 4050 0 
L 3372 0 
L 2619 2869 
L 1863 0 
L 1184 0 
L 269 3500 
z
" transform="scale(0.015625)"/>
       <path id="DejaVuSans-69" d="M 603 3500 
L 1178 3500 
L 1178 0 
L 603 0 
L 603 3500 
z
M 603 4863 
L 1178 4863 
L 1178 4134 
L 603 4134 
L 603 4863 
z
" transform="scale(0.015625)"/>
       <path id="DejaVuSans-74" d="M 1172 4494 
L 1172 3500 
L 2356 3500 
L 2356 3053 
L 1172 3053 
L 1172 1153 
Q 1172 725 1289 603 
Q 1406 481 1766 481 
L 2356 481 
L 2356 0 
L 1766 0 
Q 1100 0 847 248 
Q 594 497 594 1153 
L 594 3053 
L 172 3053 
L 172 3500 
L 594 3500 
L 594 4494 
L 1172 4494 
z
" transform="scale(0.015625)"/>
       <path id="DejaVuSans-68" d="M 3513 2113 
L 3513 0 
L 2938 0 
L 2938 2094 
Q 2938 2591 2744 2837 
Q 2550 3084 2163 3084 
Q 1697 3084 1428 2787 
Q 1159 2491 1159 1978 
L 1159 0 
L 581 0 
L 581 4863 
L 1159 4863 
L 1159 2956 
Q 1366 3272 1645 3428 
Q 1925 3584 2291 3584 
Q 2894 3584 3203 3211 
Q 3513 2838 3513 2113 
z
" transform="scale(0.015625)"/>
       <path id="DejaVuSans-6f" d="M 1959 3097 
Q 1497 3097 1228 2736 
Q 959 2375 959 1747 
Q 959 1119 1226 758 
Q 1494 397 1959 397 
Q 2419 397 2687 759 
Q 2956 1122 2956 1747 
Q 2956 2369 2687 2733 
Q 2419 3097 1959 3097 
z
M 1959 3584 
Q 2709 3584 3137 3096 
Q 3566 2609 3566 1747 
Q 3566 888 3137 398 
Q 2709 -91 1959 -91 
Q 1206 -91 779 398 
Q 353 888 353 1747 
Q 353 2609 779 3096 
Q 1206 3584 1959 3584 
z
" transform="scale(0.015625)"/>
       <path id="DejaVuSans-72" d="M 2631 2963 
Q 2534 3019 2420 3045 
Q 2306 3072 2169 3072 
Q 1681 3072 1420 2755 
Q 1159 2438 1159 1844 
L 1159 0 
L 581 0 
L 581 3500 
L 1159 3500 
L 1159 2956 
Q 1341 3275 1631 3429 
Q 1922 3584 2338 3584 
Q 2397 3584 2469 3576 
Q 2541 3569 2628 3553 
L 2631 2963 
z
" transform="scale(0.015625)"/>
       <path id="DejaVuSans-6d" d="M 3328 2828 
Q 3544 3216 3844 3400 
Q 4144 3584 4550 3584 
Q 5097 3584 5394 3201 
Q 5691 2819 5691 2113 
L 5691 0 
L 5113 0 
L 5113 2094 
Q 5113 2597 4934 2840 
Q 4756 3084 4391 3084 
Q 3944 3084 3684 2787 
Q 3425 2491 3425 1978 
L 3425 0 
L 2847 0 
L 2847 2094 
Q 2847 2600 2669 2842 
Q 2491 3084 2119 3084 
Q 1678 3084 1418 2786 
Q 1159 2488 1159 1978 
L 1159 0 
L 581 0 
L 581 3500 
L 1159 3500 
L 1159 2956 
Q 1356 3278 1631 3431 
Q 1906 3584 2284 3584 
Q 2666 3584 2933 3390 
Q 3200 3197 3328 2828 
z
" transform="scale(0.015625)"/>
       <path id="DejaVuSans-61" d="M 2194 1759 
Q 1497 1759 1228 1600 
Q 959 1441 959 1056 
Q 959 750 1161 570 
Q 1363 391 1709 391 
Q 2188 391 2477 730 
Q 2766 1069 2766 1631 
L 2766 1759 
L 2194 1759 
z
M 3341 1997 
L 3341 0 
L 2766 0 
L 2766 531 
Q 2569 213 2275 61 
Q 1981 -91 1556 -91 
Q 1019 -91 701 211 
Q 384 513 384 1019 
Q 384 1609 779 1909 
Q 1175 2209 1959 2209 
L 2766 2209 
L 2766 2266 
Q 2766 2663 2505 2880 
Q 2244 3097 1772 3097 
Q 1472 3097 1187 3025 
Q 903 2953 641 2809 
L 641 3341 
Q 956 3463 1253 3523 
Q 1550 3584 1831 3584 
Q 2591 3584 2966 3190 
Q 3341 2797 3341 1997 
z
" transform="scale(0.015625)"/>
       <path id="DejaVuSans-28" d="M 1984 4856 
Q 1566 4138 1362 3434 
Q 1159 2731 1159 2009 
Q 1159 1288 1364 580 
Q 1569 -128 1984 -844 
L 1484 -844 
Q 1016 -109 783 600 
Q 550 1309 550 2009 
Q 550 2706 781 3412 
Q 1013 4119 1484 4856 
L 1984 4856 
z
" transform="scale(0.015625)"/>
       <path id="DejaVuSans-64" d="M 2906 2969 
L 2906 4863 
L 3481 4863 
L 3481 0 
L 2906 0 
L 2906 525 
Q 2725 213 2448 61 
Q 2172 -91 1784 -91 
Q 1150 -91 751 415 
Q 353 922 353 1747 
Q 353 2572 751 3078 
Q 1150 3584 1784 3584 
Q 2172 3584 2448 3432 
Q 2725 3281 2906 2969 
z
M 947 1747 
Q 947 1113 1208 752 
Q 1469 391 1925 391 
Q 2381 391 2643 752 
Q 2906 1113 2906 1747 
Q 2906 2381 2643 2742 
Q 2381 3103 1925 3103 
Q 1469 3103 1208 2742 
Q 947 2381 947 1747 
z
" transform="scale(0.015625)"/>
       <path id="DejaVuSans-29" d="M 513 4856 
L 1013 4856 
Q 1481 4119 1714 3412 
Q 1947 2706 1947 2009 
Q 1947 1309 1714 600 
Q 1481 -109 1013 -844 
L 513 -844 
Q 928 -128 1133 580 
Q 1338 1288 1338 2009 
Q 1338 2731 1133 3434 
Q 928 4138 513 4856 
z
" transform="scale(0.015625)"/>
      </defs>
      <use xlink:href="#DejaVuSans-41"/>
      <use xlink:href="#DejaVuSans-6e" x="68.408203"/>
      <use xlink:href="#DejaVuSans-67" x="131.787109"/>
      <use xlink:href="#DejaVuSans-6c" x="195.263672"/>
      <use xlink:href="#DejaVuSans-65" x="223.046875"/>
      <use xlink:href="#DejaVuSans-20" x="284.570312"/>
      <use xlink:href="#DejaVuSans-77" x="316.357422"/>
      <use xlink:href="#DejaVuSans-69" x="398.144531"/>
      <use xlink:href="#DejaVuSans-74" x="425.927734"/>
      <use xlink:href="#DejaVuSans-68" x="465.136719"/>
      <use xlink:href="#DejaVuSans-20" x="528.515625"/>
      <use xlink:href="#DejaVuSans-6e" x="560.302734"/>
      <use xlink:href="#DejaVuSans-6f" x="623.681641"/>
      <use xlink:href="#DejaVuSans-72" x="684.863281"/>
      <use xlink:href="#DejaVuSans-6d" x="724.226562"/>
      <use xlink:href="#DejaVuSans-61" x="821.638672"/>
      <use xlink:href="#DejaVuSans-6c" x="882.917969"/>
      <use xlink:href="#DejaVuSans-20" x="910.701172"/>
      <use xlink:href="#DejaVuSans-28" x="942.488281"/>
      <use xlink:href="#DejaVuSans-72" x="981.501953"/>
      <use xlink:href="#DejaVuSans-61" x="1022.615234"/>
      <use xlink:href="#DejaVuSans-64" x="1083.894531"/>
      <use xlink:href="#DejaVuSans-29" x="1147.371094"/>
     </g>
    </g>
   </g>
   <g id="matplotlib.axis_2">
    <g id="ytick_1">
     <g id="line2d_10">
      <defs>
       <path id="me9d2fe9e09" d="M 0 0 
L -3.5 0 
" style="stroke: #000000; stroke-width: 0.8"/>
      </defs>
      <g>
       <use xlink:href="#me9d2fe9e09" x="43.78125" y="273.312" style="stroke: #000000; stroke-width: 0.8"/>
      </g>
     </g>
     <g id="text_11">
      <!-- 0.0 -->
      <g transform="translate(20.878125 277.111219)scale(0.1 -0.1)">
       <use xlink:href="#DejaVuSans-30"/>
       <use xlink:href="#DejaVuSans-2e" x="63.623047"/>
       <use xlink:href="#DejaVuSans-30" x="95.410156"/>
      </g>
     </g>
    </g>
    <g id="ytick_2">
     <g id="line2d_11">
      <g>
       <use xlink:href="#me9d2fe9e09" x="43.78125" y="231.005252" style="stroke: #000000; stroke-width: 0.8"/>
      </g>
     </g>
     <g id="text_12">
      <!-- 0.2 -->
      <g transform="translate(20.878125 234.804471)scale(0.1 -0.1)">
       <use xlink:href="#DejaVuSans-30"/>
       <use xlink:href="#DejaVuSans-2e" x="63.623047"/>
       <use xlink:href="#DejaVuSans-32" x="95.410156"/>
      </g>
     </g>
    </g>
    <g id="ytick_3">
     <g id="line2d_12">
      <g>
       <use xlink:href="#me9d2fe9e09" x="43.78125" y="188.698504" style="stroke: #000000; stroke-width: 0.8"/>
      </g>
     </g>
     <g id="text_13">
      <!-- 0.4 -->
      <g transform="translate(20.878125 192.497723)scale(0.1 -0.1)">
       <use xlink:href="#DejaVuSans-30"/>
       <use xlink:href="#DejaVuSans-2e" x="63.623047"/>
       <use xlink:href="#DejaVuSans-34" x="95.410156"/>
      </g>
     </g>
    </g>
    <g id="ytick_4">
     <g id="line2d_13">
      <g>
       <use xlink:href="#me9d2fe9e09" x="43.78125" y="146.391757" style="stroke: #000000; stroke-width: 0.8"/>
      </g>
     </g>
     <g id="text_14">
      <!-- 0.6 -->
      <g transform="translate(20.878125 150.190975)scale(0.1 -0.1)">
       <use xlink:href="#DejaVuSans-30"/>
       <use xlink:href="#DejaVuSans-2e" x="63.623047"/>
       <use xlink:href="#DejaVuSans-36" x="95.410156"/>
      </g>
     </g>
    </g>
    <g id="ytick_5">
     <g id="line2d_14">
      <g>
       <use xlink:href="#me9d2fe9e09" x="43.78125" y="104.085009" style="stroke: #000000; stroke-width: 0.8"/>
      </g>
     </g>
     <g id="text_15">
      <!-- 0.8 -->
      <g transform="translate(20.878125 107.884228)scale(0.1 -0.1)">
       <use xlink:href="#DejaVuSans-30"/>
       <use xlink:href="#DejaVuSans-2e" x="63.623047"/>
       <use xlink:href="#DejaVuSans-38" x="95.410156"/>
      </g>
     </g>
    </g>
    <g id="ytick_6">
     <g id="line2d_15">
      <g>
       <use xlink:href="#me9d2fe9e09" x="43.78125" y="61.778261" style="stroke: #000000; stroke-width: 0.8"/>
      </g>
     </g>
     <g id="text_16">
      <!-- 1.0 -->
      <g transform="translate(20.878125 65.57748)scale(0.1 -0.1)">
       <use xlink:href="#DejaVuSans-31"/>
       <use xlink:href="#DejaVuSans-2e" x="63.623047"/>
       <use xlink:href="#DejaVuSans-30" x="95.410156"/>
      </g>
     </g>
    </g>
    <g id="ytick_7">
     <g id="line2d_16">
      <g>
       <use xlink:href="#me9d2fe9e09" x="43.78125" y="19.471513" style="stroke: #000000; stroke-width: 0.8"/>
      </g>
     </g>
     <g id="text_17">
      <!-- 1.2 -->
      <g transform="translate(20.878125 23.270732)scale(0.1 -0.1)">
       <use xlink:href="#DejaVuSans-31"/>
       <use xlink:href="#DejaVuSans-2e" x="63.623047"/>
       <use xlink:href="#DejaVuSans-32" x="95.410156"/>
      </g>
     </g>
    </g>
    <g id="text_18">
     <!-- Probability density -->
     <g transform="translate(14.798438 186.606781)rotate(-90)scale(0.1 -0.1)">
      <defs>
       <path id="DejaVuSans-50" d="M 1259 4147 
L 1259 2394 
L 2053 2394 
Q 2494 2394 2734 2622 
Q 2975 2850 2975 3272 
Q 2975 3691 2734 3919 
Q 2494 4147 2053 4147 
L 1259 4147 
z
M 628 4666 
L 2053 4666 
Q 2838 4666 3239 4311 
Q 3641 3956 3641 3272 
Q 3641 2581 3239 2228 
Q 2838 1875 2053 1875 
L 1259 1875 
L 1259 0 
L 628 0 
L 628 4666 
z
" transform="scale(0.015625)"/>
       <path id="DejaVuSans-62" d="M 3116 1747 
Q 3116 2381 2855 2742 
Q 2594 3103 2138 3103 
Q 1681 3103 1420 2742 
Q 1159 2381 1159 1747 
Q 1159 1113 1420 752 
Q 1681 391 2138 391 
Q 2594 391 2855 752 
Q 3116 1113 3116 1747 
z
M 1159 2969 
Q 1341 3281 1617 3432 
Q 1894 3584 2278 3584 
Q 2916 3584 3314 3078 
Q 3713 2572 3713 1747 
Q 3713 922 3314 415 
Q 2916 -91 2278 -91 
Q 1894 -91 1617 61 
Q 1341 213 1159 525 
L 1159 0 
L 581 0 
L 581 4863 
L 1159 4863 
L 1159 2969 
z
" transform="scale(0.015625)"/>
       <path id="DejaVuSans-79" d="M 2059 -325 
Q 1816 -950 1584 -1140 
Q 1353 -1331 966 -1331 
L 506 -1331 
L 506 -850 
L 844 -850 
Q 1081 -850 1212 -737 
Q 1344 -625 1503 -206 
L 1606 56 
L 191 3500 
L 800 3500 
L 1894 763 
L 2988 3500 
L 3597 3500 
L 2059 -325 
z
" transform="scale(0.015625)"/>
       <path id="DejaVuSans-73" d="M 2834 3397 
L 2834 2853 
Q 2591 2978 2328 3040 
Q 2066 3103 1784 3103 
Q 1356 3103 1142 2972 
Q 928 2841 928 2578 
Q 928 2378 1081 2264 
Q 1234 2150 1697 2047 
L 1894 2003 
Q 2506 1872 2764 1633 
Q 3022 1394 3022 966 
Q 3022 478 2636 193 
Q 2250 -91 1575 -91 
Q 1294 -91 989 -36 
Q 684 19 347 128 
L 347 722 
Q 666 556 975 473 
Q 1284 391 1588 391 
Q 1994 391 2212 530 
Q 2431 669 2431 922 
Q 2431 1156 2273 1281 
Q 2116 1406 1581 1522 
L 1381 1569 
Q 847 1681 609 1914 
Q 372 2147 372 2553 
Q 372 3047 722 3315 
Q 1072 3584 1716 3584 
Q 2034 3584 2315 3537 
Q 2597 3491 2834 3397 
z
" transform="scale(0.015625)"/>
      </defs>
      <use xlink:href="#DejaVuSans-50"/>
      <use xlink:href="#DejaVuSans-72" x="58.552734"/>
      <use xlink:href="#DejaVuSans-6f" x="97.416016"/>
      <use xlink:href="#DejaVuSans-62" x="158.597656"/>
      <use xlink:href="#DejaVuSans-61" x="222.074219"/>
      <use xlink:href="#DejaVuSans-62" x="283.353516"/>
      <use xlink:href="#DejaVuSans-69" x="346.830078"/>
      <use xlink:href="#DejaVuSans-6c" x="374.613281"/>
      <use xlink:href="#DejaVuSans-69" x="402.396484"/>
      <use xlink:href="#DejaVuSans-74" x="430.179688"/>
      <use xlink:href="#DejaVuSans-79" x="469.388672"/>
      <use xlink:href="#DejaVuSans-20" x="528.568359"/>
      <use xlink:href="#DejaVuSans-64" x="560.355469"/>
      <use xlink:href="#DejaVuSans-65" x="623.832031"/>
      <use xlink:href="#DejaVuSans-6e" x="685.355469"/>
      <use xlink:href="#DejaVuSans-73" x="748.734375"/>
      <use xlink:href="#DejaVuSans-69" x="800.833984"/>
      <use xlink:href="#DejaVuSans-74" x="828.617188"/>
      <use xlink:href="#DejaVuSans-79" x="867.826172"/>
     </g>
    </g>
   </g>
   <g id="line2d_17">
    <path d="M 60.013977 273.312 
L 79.837728 232.98211 
L 90.562053 211.68821 
L 99.3365 194.748997 
L 107.136008 180.163412 
L 114.285558 167.257214 
L 120.785148 155.963055 
L 126.959759 145.662761 
L 132.809391 136.324256 
L 138.334043 127.906989 
L 143.533715 120.363972 
L 148.733388 113.208088 
L 153.60808 106.867165 
L 158.482773 100.896531 
L 163.032487 95.669752 
L 167.5822 90.787245 
L 171.806934 86.570034 
L 176.031668 82.664881 
L 180.256402 79.078314 
L 184.156156 76.055596 
L 188.05591 73.313752 
L 191.955664 70.856685 
L 195.530439 68.857539 
L 199.105214 67.103021 
L 202.679989 65.595231 
L 206.254764 64.335973 
L 209.829538 63.326754 
L 213.079334 62.62728 
L 216.329129 62.136143 
L 219.578924 61.853828 
L 222.828719 61.780615 
L 226.078515 61.916575 
L 229.32831 62.261576 
L 232.578105 62.815275 
L 235.8279 63.577124 
L 239.402675 64.654668 
L 242.97745 65.981869 
L 246.552225 67.55714 
L 250.126999 69.378595 
L 253.701774 71.444056 
L 257.276549 73.75105 
L 261.176303 76.539989 
L 265.076058 79.609111 
L 268.975812 82.954047 
L 273.200546 86.883442 
L 277.425279 91.124373 
L 281.650013 95.669752 
L 286.199727 100.896531 
L 290.74944 106.457451 
L 295.624133 112.774119 
L 300.498826 119.447934 
L 305.698498 126.943584 
L 311.22315 135.313198 
L 317.072782 144.604398 
L 323.247393 154.85844 
L 329.746983 166.108175 
L 336.571553 178.375831 
L 344.046082 192.284726 
L 352.17057 207.881217 
L 361.594976 226.472966 
L 373.294239 250.076349 
L 384.668523 273.312 
L 384.668523 273.312 
" clip-path="url(#pfea7f58810)" style="fill: none; stroke: #ff7f0e; stroke-width: 1.5; stroke-linecap: square"/>
   </g>
   <g id="patch_203">
    <path d="M 43.78125 273.312 
L 43.78125 7.2 
" style="fill: none; stroke: #000000; stroke-width: 0.8; stroke-linejoin: miter; stroke-linecap: square"/>
   </g>
   <g id="patch_204">
    <path d="M 400.90125 273.312 
L 400.90125 7.2 
" style="fill: none; stroke: #000000; stroke-width: 0.8; stroke-linejoin: miter; stroke-linecap: square"/>
   </g>
   <g id="patch_205">
    <path d="M 43.78125 273.312 
L 400.90125 273.312 
" style="fill: none; stroke: #000000; stroke-width: 0.8; stroke-linejoin: miter; stroke-linecap: square"/>
   </g>
   <g id="patch_206">
    <path d="M 43.78125 7.2 
L 400.90125 7.2 
" style="fill: none; stroke: #000000; stroke-width: 0.8; stroke-linejoin: miter; stroke-linecap: square"/>
   </g>
  </g>
 </g>
 <defs>
  <clipPath id="pfea7f58810">
   <rect x="43.78125" y="7.2" width="357.12" height="266.112"/>
  </clipPath>
 </defs>
</svg>
