<?xml version="1.0" encoding="utf-8" standalone="no"?>
<!DOCTYPE svg PUBLIC "-//W3C//DTD SVG 1.1//EN"
  "http://www.w3.org/Graphics/SVG/1.1/DTD/svg11.dtd">
<svg xmlns:xlink="http://www.w3.org/1999/xlink" width="408.10125pt" height="310.86825pt" viewBox="0 0 408.10125 310.86825" xmlns="http://www.w3.org/2000/svg" version="1.1">
 <metadata>
  <rdf:RDF xmlns:dc="http://purl.org/dc/elements/1.1/" xmlns:cc="http://creativecommons.org/ns#" xmlns:rdf="http://www.w3.org/1999/02/22-rdf-syntax-ns#">
   <cc:Work>
    <dc:type rdf:resource="http://purl.org/dc/dcmitype/StillImage"/>
    <dc:date>2021-11-26T10:20:00.976577</dc:date>
    <dc:format>image/svg+xml</dc:format>
    <dc:creator>
     <cc:Agent>
      <dc:title>Matplotlib v3.5.0, https://matplotlib.org/</dc:title>
     </cc:Agent>
    </dc:creator>
   </cc:Work>
  </rdf:RDF>
 </metadata>
 <defs>
  <style type="text/css">*{stroke-linejoin: round; stroke-linecap: butt}</style>
 </defs>
 <g id="figure_1">
  <g id="patch_1">
   <path d="M 0 310.86825 
L 408.10125 310.86825 
L 408.10125 0 
L 0 0 
z
" style="fill: #ffffff"/>
  </g>
  <g id="axes_1">
   <g id="patch_2">
    <path d="M 43.78125 273.312 
L 400.90125 273.312 
L 400.90125 7.2 
L 43.78125 7.2 
z
" style="fill: #ffffff"/>
   </g>
   <g id="patch_3">
    <path d="M 60.506278 273.312 
L 62.124649 273.312 
L 62.124649 269.752449 
L 60.506278 269.752449 
z
" clip-path="url(#p6453ceeb49)" style="fill: #1f77b4"/>
   </g>
   <g id="patch_4">
    <path d="M 62.124649 273.312 
L 63.743021 273.312 
L 63.743021 266.192899 
L 62.124649 266.192899 
z
" clip-path="url(#p6453ceeb49)" style="fill: #1f77b4"/>
   </g>
   <g id="patch_5">
    <path d="M 63.743021 273.312 
L 65.361393 273.312 
L 65.361393 260.497618 
L 63.743021 260.497618 
z
" clip-path="url(#p6453ceeb49)" style="fill: #1f77b4"/>
   </g>
   <g id="patch_6">
    <path d="M 65.361393 273.312 
L 66.979765 273.312 
L 66.979765 256.226157 
L 65.361393 256.226157 
z
" clip-path="url(#p6453ceeb49)" style="fill: #1f77b4"/>
   </g>
   <g id="patch_7">
    <path d="M 66.979765 273.312 
L 68.598136 273.312 
L 68.598136 255.514247 
L 66.979765 255.514247 
z
" clip-path="url(#p6453ceeb49)" style="fill: #1f77b4"/>
   </g>
   <g id="patch_8">
    <path d="M 68.598136 273.312 
L 70.216508 273.312 
L 70.216508 259.073798 
L 68.598136 259.073798 
z
" clip-path="url(#p6453ceeb49)" style="fill: #1f77b4"/>
   </g>
   <g id="patch_9">
    <path d="M 70.216508 273.312 
L 71.83488 273.312 
L 71.83488 244.835596 
L 70.216508 244.835596 
z
" clip-path="url(#p6453ceeb49)" style="fill: #1f77b4"/>
   </g>
   <g id="patch_10">
    <path d="M 71.83488 273.312 
L 73.453252 273.312 
L 73.453252 244.123685 
L 71.83488 244.123685 
z
" clip-path="url(#p6453ceeb49)" style="fill: #1f77b4"/>
   </g>
   <g id="patch_11">
    <path d="M 73.453252 273.312 
L 75.071623 273.312 
L 75.071623 246.259416 
L 73.453252 246.259416 
z
" clip-path="url(#p6453ceeb49)" style="fill: #1f77b4"/>
   </g>
   <g id="patch_12">
    <path d="M 75.071623 273.312 
L 76.689995 273.312 
L 76.689995 240.564135 
L 75.071623 240.564135 
z
" clip-path="url(#p6453ceeb49)" style="fill: #1f77b4"/>
   </g>
   <g id="patch_13">
    <path d="M 76.689995 273.312 
L 78.308367 273.312 
L 78.308367 240.564135 
L 76.689995 240.564135 
z
" clip-path="url(#p6453ceeb49)" style="fill: #1f77b4"/>
   </g>
   <g id="patch_14">
    <path d="M 78.308367 273.312 
L 79.926739 273.312 
L 79.926739 229.173573 
L 78.308367 229.173573 
z
" clip-path="url(#p6453ceeb49)" style="fill: #1f77b4"/>
   </g>
   <g id="patch_15">
    <path d="M 79.926739 273.312 
L 81.54511 273.312 
L 81.54511 229.885483 
L 79.926739 229.885483 
z
" clip-path="url(#p6453ceeb49)" style="fill: #1f77b4"/>
   </g>
   <g id="patch_16">
    <path d="M 81.54511 273.312 
L 83.163482 273.312 
L 83.163482 226.325933 
L 81.54511 226.325933 
z
" clip-path="url(#p6453ceeb49)" style="fill: #1f77b4"/>
   </g>
   <g id="patch_17">
    <path d="M 83.163482 273.312 
L 84.781854 273.312 
L 84.781854 225.614022 
L 83.163482 225.614022 
z
" clip-path="url(#p6453ceeb49)" style="fill: #1f77b4"/>
   </g>
   <g id="patch_18">
    <path d="M 84.781854 273.312 
L 86.400226 273.312 
L 86.400226 209.952 
L 84.781854 209.952 
z
" clip-path="url(#p6453ceeb49)" style="fill: #1f77b4"/>
   </g>
   <g id="patch_19">
    <path d="M 86.400226 273.312 
L 88.018597 273.312 
L 88.018597 222.054472 
L 86.400226 222.054472 
z
" clip-path="url(#p6453ceeb49)" style="fill: #1f77b4"/>
   </g>
   <g id="patch_20">
    <path d="M 88.018597 273.312 
L 89.636969 273.312 
L 89.636969 209.952 
L 88.018597 209.952 
z
" clip-path="url(#p6453ceeb49)" style="fill: #1f77b4"/>
   </g>
   <g id="patch_21">
    <path d="M 89.636969 273.312 
L 91.255341 273.312 
L 91.255341 205.680539 
L 89.636969 205.680539 
z
" clip-path="url(#p6453ceeb49)" style="fill: #1f77b4"/>
   </g>
   <g id="patch_22">
    <path d="M 91.255341 273.312 
L 92.873713 273.312 
L 92.873713 196.425708 
L 91.255341 196.425708 
z
" clip-path="url(#p6453ceeb49)" style="fill: #1f77b4"/>
   </g>
   <g id="patch_23">
    <path d="M 92.873713 273.312 
L 94.492084 273.312 
L 94.492084 200.697169 
L 92.873713 200.697169 
z
" clip-path="url(#p6453ceeb49)" style="fill: #1f77b4"/>
   </g>
   <g id="patch_24">
    <path d="M 94.492084 273.312 
L 96.110456 273.312 
L 96.110456 200.697169 
L 94.492084 200.697169 
z
" clip-path="url(#p6453ceeb49)" style="fill: #1f77b4"/>
   </g>
   <g id="patch_25">
    <path d="M 96.110456 273.312 
L 97.728828 273.312 
L 97.728828 210.66391 
L 96.110456 210.66391 
z
" clip-path="url(#p6453ceeb49)" style="fill: #1f77b4"/>
   </g>
   <g id="patch_26">
    <path d="M 97.728828 273.312 
L 99.3472 273.312 
L 99.3472 184.323236 
L 97.728828 184.323236 
z
" clip-path="url(#p6453ceeb49)" style="fill: #1f77b4"/>
   </g>
   <g id="patch_27">
    <path d="M 99.3472 273.312 
L 100.965571 273.312 
L 100.965571 191.442337 
L 99.3472 191.442337 
z
" clip-path="url(#p6453ceeb49)" style="fill: #1f77b4"/>
   </g>
   <g id="patch_28">
    <path d="M 100.965571 273.312 
L 102.583943 273.312 
L 102.583943 195.713798 
L 100.965571 195.713798 
z
" clip-path="url(#p6453ceeb49)" style="fill: #1f77b4"/>
   </g>
   <g id="patch_29">
    <path d="M 102.583943 273.312 
L 104.202315 273.312 
L 104.202315 175.068404 
L 102.583943 175.068404 
z
" clip-path="url(#p6453ceeb49)" style="fill: #1f77b4"/>
   </g>
   <g id="patch_30">
    <path d="M 104.202315 273.312 
L 105.820687 273.312 
L 105.820687 172.932674 
L 104.202315 172.932674 
z
" clip-path="url(#p6453ceeb49)" style="fill: #1f77b4"/>
   </g>
   <g id="patch_31">
    <path d="M 105.820687 273.312 
L 107.439058 273.312 
L 107.439058 177.204135 
L 105.820687 177.204135 
z
" clip-path="url(#p6453ceeb49)" style="fill: #1f77b4"/>
   </g>
   <g id="patch_32">
    <path d="M 107.439058 273.312 
L 109.05743 273.312 
L 109.05743 177.204135 
L 107.439058 177.204135 
z
" clip-path="url(#p6453ceeb49)" style="fill: #1f77b4"/>
   </g>
   <g id="patch_33">
    <path d="M 109.05743 273.312 
L 110.675802 273.312 
L 110.675802 160.830202 
L 109.05743 160.830202 
z
" clip-path="url(#p6453ceeb49)" style="fill: #1f77b4"/>
   </g>
   <g id="patch_34">
    <path d="M 110.675802 273.312 
L 112.294174 273.312 
L 112.294174 157.270652 
L 110.675802 157.270652 
z
" clip-path="url(#p6453ceeb49)" style="fill: #1f77b4"/>
   </g>
   <g id="patch_35">
    <path d="M 112.294174 273.312 
L 113.912545 273.312 
L 113.912545 180.763685 
L 112.294174 180.763685 
z
" clip-path="url(#p6453ceeb49)" style="fill: #1f77b4"/>
   </g>
   <g id="patch_36">
    <path d="M 113.912545 273.312 
L 115.530917 273.312 
L 115.530917 162.965933 
L 113.912545 162.965933 
z
" clip-path="url(#p6453ceeb49)" style="fill: #1f77b4"/>
   </g>
   <g id="patch_37">
    <path d="M 115.530917 273.312 
L 117.149289 273.312 
L 117.149289 173.644584 
L 115.530917 173.644584 
z
" clip-path="url(#p6453ceeb49)" style="fill: #1f77b4"/>
   </g>
   <g id="patch_38">
    <path d="M 117.149289 273.312 
L 118.767661 273.312 
L 118.767661 161.542112 
L 117.149289 161.542112 
z
" clip-path="url(#p6453ceeb49)" style="fill: #1f77b4"/>
   </g>
   <g id="patch_39">
    <path d="M 118.767661 273.312 
L 120.386032 273.312 
L 120.386032 143.032449 
L 118.767661 143.032449 
z
" clip-path="url(#p6453ceeb49)" style="fill: #1f77b4"/>
   </g>
   <g id="patch_40">
    <path d="M 120.386032 273.312 
L 122.004404 273.312 
L 122.004404 147.30391 
L 120.386032 147.30391 
z
" clip-path="url(#p6453ceeb49)" style="fill: #1f77b4"/>
   </g>
   <g id="patch_41">
    <path d="M 122.004404 273.312 
L 123.622776 273.312 
L 123.622776 142.320539 
L 122.004404 142.320539 
z
" clip-path="url(#p6453ceeb49)" style="fill: #1f77b4"/>
   </g>
   <g id="patch_42">
    <path d="M 123.622776 273.312 
L 125.241148 273.312 
L 125.241148 132.353798 
L 123.622776 132.353798 
z
" clip-path="url(#p6453ceeb49)" style="fill: #1f77b4"/>
   </g>
   <g id="patch_43">
    <path d="M 125.241148 273.312 
L 126.859519 273.312 
L 126.859519 138.760989 
L 125.241148 138.760989 
z
" clip-path="url(#p6453ceeb49)" style="fill: #1f77b4"/>
   </g>
   <g id="patch_44">
    <path d="M 126.859519 273.312 
L 128.477891 273.312 
L 128.477891 134.489528 
L 126.859519 134.489528 
z
" clip-path="url(#p6453ceeb49)" style="fill: #1f77b4"/>
   </g>
   <g id="patch_45">
    <path d="M 128.477891 273.312 
L 130.096263 273.312 
L 130.096263 129.506157 
L 128.477891 129.506157 
z
" clip-path="url(#p6453ceeb49)" style="fill: #1f77b4"/>
   </g>
   <g id="patch_46">
    <path d="M 130.096263 273.312 
L 131.714635 273.312 
L 131.714635 140.896719 
L 130.096263 140.896719 
z
" clip-path="url(#p6453ceeb49)" style="fill: #1f77b4"/>
   </g>
   <g id="patch_47">
    <path d="M 131.714635 273.312 
L 133.333006 273.312 
L 133.333006 124.522787 
L 131.714635 124.522787 
z
" clip-path="url(#p6453ceeb49)" style="fill: #1f77b4"/>
   </g>
   <g id="patch_48">
    <path d="M 133.333006 273.312 
L 134.951378 273.312 
L 134.951378 132.353798 
L 133.333006 132.353798 
z
" clip-path="url(#p6453ceeb49)" style="fill: #1f77b4"/>
   </g>
   <g id="patch_49">
    <path d="M 134.951378 273.312 
L 136.56975 273.312 
L 136.56975 131.641888 
L 134.951378 131.641888 
z
" clip-path="url(#p6453ceeb49)" style="fill: #1f77b4"/>
   </g>
   <g id="patch_50">
    <path d="M 136.56975 273.312 
L 138.188122 273.312 
L 138.188122 127.370427 
L 136.56975 127.370427 
z
" clip-path="url(#p6453ceeb49)" style="fill: #1f77b4"/>
   </g>
   <g id="patch_51">
    <path d="M 138.188122 273.312 
L 139.806493 273.312 
L 139.806493 108.148854 
L 138.188122 108.148854 
z
" clip-path="url(#p6453ceeb49)" style="fill: #1f77b4"/>
   </g>
   <g id="patch_52">
    <path d="M 139.806493 273.312 
L 141.424865 273.312 
L 141.424865 120.251326 
L 139.806493 120.251326 
z
" clip-path="url(#p6453ceeb49)" style="fill: #1f77b4"/>
   </g>
   <g id="patch_53">
    <path d="M 141.424865 273.312 
L 143.043237 273.312 
L 143.043237 121.675146 
L 141.424865 121.675146 
z
" clip-path="url(#p6453ceeb49)" style="fill: #1f77b4"/>
   </g>
   <g id="patch_54">
    <path d="M 143.043237 273.312 
L 144.661609 273.312 
L 144.661609 103.877393 
L 143.043237 103.877393 
z
" clip-path="url(#p6453ceeb49)" style="fill: #1f77b4"/>
   </g>
   <g id="patch_55">
    <path d="M 144.661609 273.312 
L 146.27998 273.312 
L 146.27998 97.470202 
L 144.661609 97.470202 
z
" clip-path="url(#p6453ceeb49)" style="fill: #1f77b4"/>
   </g>
   <g id="patch_56">
    <path d="M 146.27998 273.312 
L 147.898352 273.312 
L 147.898352 101.029753 
L 146.27998 101.029753 
z
" clip-path="url(#p6453ceeb49)" style="fill: #1f77b4"/>
   </g>
   <g id="patch_57">
    <path d="M 147.898352 273.312 
L 149.516724 273.312 
L 149.516724 126.658517 
L 147.898352 126.658517 
z
" clip-path="url(#p6453ceeb49)" style="fill: #1f77b4"/>
   </g>
   <g id="patch_58">
    <path d="M 149.516724 273.312 
L 151.135096 273.312 
L 151.135096 101.741663 
L 149.516724 101.741663 
z
" clip-path="url(#p6453ceeb49)" style="fill: #1f77b4"/>
   </g>
   <g id="patch_59">
    <path d="M 151.135096 273.312 
L 152.753467 273.312 
L 152.753467 96.046382 
L 151.135096 96.046382 
z
" clip-path="url(#p6453ceeb49)" style="fill: #1f77b4"/>
   </g>
   <g id="patch_60">
    <path d="M 152.753467 273.312 
L 154.371839 273.312 
L 154.371839 116.691775 
L 152.753467 116.691775 
z
" clip-path="url(#p6453ceeb49)" style="fill: #1f77b4"/>
   </g>
   <g id="patch_61">
    <path d="M 154.371839 273.312 
L 155.990211 273.312 
L 155.990211 100.317843 
L 154.371839 100.317843 
z
" clip-path="url(#p6453ceeb49)" style="fill: #1f77b4"/>
   </g>
   <g id="patch_62">
    <path d="M 155.990211 273.312 
L 157.608583 273.312 
L 157.608583 86.791551 
L 155.990211 86.791551 
z
" clip-path="url(#p6453ceeb49)" style="fill: #1f77b4"/>
   </g>
   <g id="patch_63">
    <path d="M 157.608583 273.312 
L 159.226954 273.312 
L 159.226954 93.910652 
L 157.608583 93.910652 
z
" clip-path="url(#p6453ceeb49)" style="fill: #1f77b4"/>
   </g>
   <g id="patch_64">
    <path d="M 159.226954 273.312 
L 160.845326 273.312 
L 160.845326 88.215371 
L 159.226954 88.215371 
z
" clip-path="url(#p6453ceeb49)" style="fill: #1f77b4"/>
   </g>
   <g id="patch_65">
    <path d="M 160.845326 273.312 
L 162.463698 273.312 
L 162.463698 106.725034 
L 160.845326 106.725034 
z
" clip-path="url(#p6453ceeb49)" style="fill: #1f77b4"/>
   </g>
   <g id="patch_66">
    <path d="M 162.463698 273.312 
L 164.08207 273.312 
L 164.08207 73.265258 
L 162.463698 73.265258 
z
" clip-path="url(#p6453ceeb49)" style="fill: #1f77b4"/>
   </g>
   <g id="patch_67">
    <path d="M 164.08207 273.312 
L 165.700441 273.312 
L 165.700441 94.622562 
L 164.08207 94.622562 
z
" clip-path="url(#p6453ceeb49)" style="fill: #1f77b4"/>
   </g>
   <g id="patch_68">
    <path d="M 165.700441 273.312 
L 167.318813 273.312 
L 167.318813 87.503461 
L 165.700441 87.503461 
z
" clip-path="url(#p6453ceeb49)" style="fill: #1f77b4"/>
   </g>
   <g id="patch_69">
    <path d="M 167.318813 273.312 
L 168.937185 273.312 
L 168.937185 59.738966 
L 167.318813 59.738966 
z
" clip-path="url(#p6453ceeb49)" style="fill: #1f77b4"/>
   </g>
   <g id="patch_70">
    <path d="M 168.937185 273.312 
L 170.555557 273.312 
L 170.555557 68.993798 
L 168.937185 68.993798 
z
" clip-path="url(#p6453ceeb49)" style="fill: #1f77b4"/>
   </g>
   <g id="patch_71">
    <path d="M 170.555557 273.312 
L 172.173928 273.312 
L 172.173928 78.960539 
L 170.555557 78.960539 
z
" clip-path="url(#p6453ceeb49)" style="fill: #1f77b4"/>
   </g>
   <g id="patch_72">
    <path d="M 172.173928 273.312 
L 173.7923 273.312 
L 173.7923 96.046382 
L 172.173928 96.046382 
z
" clip-path="url(#p6453ceeb49)" style="fill: #1f77b4"/>
   </g>
   <g id="patch_73">
    <path d="M 173.7923 273.312 
L 175.410672 273.312 
L 175.410672 86.07964 
L 173.7923 86.07964 
z
" clip-path="url(#p6453ceeb49)" style="fill: #1f77b4"/>
   </g>
   <g id="patch_74">
    <path d="M 175.410672 273.312 
L 177.029044 273.312 
L 177.029044 88.927281 
L 175.410672 88.927281 
z
" clip-path="url(#p6453ceeb49)" style="fill: #1f77b4"/>
   </g>
   <g id="patch_75">
    <path d="M 177.029044 273.312 
L 178.647415 273.312 
L 178.647415 66.146157 
L 177.029044 66.146157 
z
" clip-path="url(#p6453ceeb49)" style="fill: #1f77b4"/>
   </g>
   <g id="patch_76">
    <path d="M 178.647415 273.312 
L 180.265787 273.312 
L 180.265787 78.248629 
L 178.647415 78.248629 
z
" clip-path="url(#p6453ceeb49)" style="fill: #1f77b4"/>
   </g>
   <g id="patch_77">
    <path d="M 180.265787 273.312 
L 181.884159 273.312 
L 181.884159 65.434247 
L 180.265787 65.434247 
z
" clip-path="url(#p6453ceeb49)" style="fill: #1f77b4"/>
   </g>
   <g id="patch_78">
    <path d="M 181.884159 273.312 
L 183.502531 273.312 
L 183.502531 58.315146 
L 181.884159 58.315146 
z
" clip-path="url(#p6453ceeb49)" style="fill: #1f77b4"/>
   </g>
   <g id="patch_79">
    <path d="M 183.502531 273.312 
L 185.120902 273.312 
L 185.120902 70.417618 
L 183.502531 70.417618 
z
" clip-path="url(#p6453ceeb49)" style="fill: #1f77b4"/>
   </g>
   <g id="patch_80">
    <path d="M 185.120902 273.312 
L 186.739274 273.312 
L 186.739274 60.450876 
L 185.120902 60.450876 
z
" clip-path="url(#p6453ceeb49)" style="fill: #1f77b4"/>
   </g>
   <g id="patch_81">
    <path d="M 186.739274 273.312 
L 188.357646 273.312 
L 188.357646 65.434247 
L 186.739274 65.434247 
z
" clip-path="url(#p6453ceeb49)" style="fill: #1f77b4"/>
   </g>
   <g id="patch_82">
    <path d="M 188.357646 273.312 
L 189.976018 273.312 
L 189.976018 73.977169 
L 188.357646 73.977169 
z
" clip-path="url(#p6453ceeb49)" style="fill: #1f77b4"/>
   </g>
   <g id="patch_83">
    <path d="M 189.976018 273.312 
L 191.594389 273.312 
L 191.594389 51.196045 
L 189.976018 51.196045 
z
" clip-path="url(#p6453ceeb49)" style="fill: #1f77b4"/>
   </g>
   <g id="patch_84">
    <path d="M 191.594389 273.312 
L 193.212761 273.312 
L 193.212761 49.060315 
L 191.594389 49.060315 
z
" clip-path="url(#p6453ceeb49)" style="fill: #1f77b4"/>
   </g>
   <g id="patch_85">
    <path d="M 193.212761 273.312 
L 194.831133 273.312 
L 194.831133 69.705708 
L 193.212761 69.705708 
z
" clip-path="url(#p6453ceeb49)" style="fill: #1f77b4"/>
   </g>
   <g id="patch_86">
    <path d="M 194.831133 273.312 
L 196.449505 273.312 
L 196.449505 51.907955 
L 194.831133 51.907955 
z
" clip-path="url(#p6453ceeb49)" style="fill: #1f77b4"/>
   </g>
   <g id="patch_87">
    <path d="M 196.449505 273.312 
L 198.067876 273.312 
L 198.067876 46.924584 
L 196.449505 46.924584 
z
" clip-path="url(#p6453ceeb49)" style="fill: #1f77b4"/>
   </g>
   <g id="patch_88">
    <path d="M 198.067876 273.312 
L 199.686248 273.312 
L 199.686248 68.993798 
L 198.067876 68.993798 
z
" clip-path="url(#p6453ceeb49)" style="fill: #1f77b4"/>
   </g>
   <g id="patch_89">
    <path d="M 199.686248 273.312 
L 201.30462 273.312 
L 201.30462 55.467506 
L 199.686248 55.467506 
z
" clip-path="url(#p6453ceeb49)" style="fill: #1f77b4"/>
   </g>
   <g id="patch_90">
    <path d="M 201.30462 273.312 
L 202.922992 273.312 
L 202.922992 48.348404 
L 201.30462 48.348404 
z
" clip-path="url(#p6453ceeb49)" style="fill: #1f77b4"/>
   </g>
   <g id="patch_91">
    <path d="M 202.922992 273.312 
L 204.541363 273.312 
L 204.541363 62.586607 
L 202.922992 62.586607 
z
" clip-path="url(#p6453ceeb49)" style="fill: #1f77b4"/>
   </g>
   <g id="patch_92">
    <path d="M 204.541363 273.312 
L 206.159735 273.312 
L 206.159735 24.143461 
L 204.541363 24.143461 
z
" clip-path="url(#p6453ceeb49)" style="fill: #1f77b4"/>
   </g>
   <g id="patch_93">
    <path d="M 206.159735 273.312 
L 207.778107 273.312 
L 207.778107 62.586607 
L 206.159735 62.586607 
z
" clip-path="url(#p6453ceeb49)" style="fill: #1f77b4"/>
   </g>
   <g id="patch_94">
    <path d="M 207.778107 273.312 
L 209.396479 273.312 
L 209.396479 53.331775 
L 207.778107 53.331775 
z
" clip-path="url(#p6453ceeb49)" style="fill: #1f77b4"/>
   </g>
   <g id="patch_95">
    <path d="M 209.396479 273.312 
L 211.01485 273.312 
L 211.01485 19.872 
L 209.396479 19.872 
z
" clip-path="url(#p6453ceeb49)" style="fill: #1f77b4"/>
   </g>
   <g id="patch_96">
    <path d="M 211.01485 273.312 
L 212.633222 273.312 
L 212.633222 45.500764 
L 211.01485 45.500764 
z
" clip-path="url(#p6453ceeb49)" style="fill: #1f77b4"/>
   </g>
   <g id="patch_97">
    <path d="M 212.633222 273.312 
L 214.251594 273.312 
L 214.251594 74.689079 
L 212.633222 74.689079 
z
" clip-path="url(#p6453ceeb49)" style="fill: #1f77b4"/>
   </g>
   <g id="patch_98">
    <path d="M 214.251594 273.312 
L 215.869966 273.312 
L 215.869966 64.010427 
L 214.251594 64.010427 
z
" clip-path="url(#p6453ceeb49)" style="fill: #1f77b4"/>
   </g>
   <g id="patch_99">
    <path d="M 215.869966 273.312 
L 217.488337 273.312 
L 217.488337 47.636494 
L 215.869966 47.636494 
z
" clip-path="url(#p6453ceeb49)" style="fill: #1f77b4"/>
   </g>
   <g id="patch_100">
    <path d="M 217.488337 273.312 
L 219.106709 273.312 
L 219.106709 44.788854 
L 217.488337 44.788854 
z
" clip-path="url(#p6453ceeb49)" style="fill: #1f77b4"/>
   </g>
   <g id="patch_101">
    <path d="M 219.106709 273.312 
L 220.725081 273.312 
L 220.725081 61.162787 
L 219.106709 61.162787 
z
" clip-path="url(#p6453ceeb49)" style="fill: #1f77b4"/>
   </g>
   <g id="patch_102">
    <path d="M 220.725081 273.312 
L 222.343453 273.312 
L 222.343453 42.653124 
L 220.725081 42.653124 
z
" clip-path="url(#p6453ceeb49)" style="fill: #1f77b4"/>
   </g>
   <g id="patch_103">
    <path d="M 222.343453 273.312 
L 223.961824 273.312 
L 223.961824 47.636494 
L 222.343453 47.636494 
z
" clip-path="url(#p6453ceeb49)" style="fill: #1f77b4"/>
   </g>
   <g id="patch_104">
    <path d="M 223.961824 273.312 
L 225.580196 273.312 
L 225.580196 46.924584 
L 223.961824 46.924584 
z
" clip-path="url(#p6453ceeb49)" style="fill: #1f77b4"/>
   </g>
   <g id="patch_105">
    <path d="M 225.580196 273.312 
L 227.198568 273.312 
L 227.198568 47.636494 
L 225.580196 47.636494 
z
" clip-path="url(#p6453ceeb49)" style="fill: #1f77b4"/>
   </g>
   <g id="patch_106">
    <path d="M 227.198568 273.312 
L 228.81694 273.312 
L 228.81694 22.00773 
L 227.198568 22.00773 
z
" clip-path="url(#p6453ceeb49)" style="fill: #1f77b4"/>
   </g>
   <g id="patch_107">
    <path d="M 228.81694 273.312 
L 230.435311 273.312 
L 230.435311 50.484135 
L 228.81694 50.484135 
z
" clip-path="url(#p6453ceeb49)" style="fill: #1f77b4"/>
   </g>
   <g id="patch_108">
    <path d="M 230.435311 273.312 
L 232.053683 273.312 
L 232.053683 71.841438 
L 230.435311 71.841438 
z
" clip-path="url(#p6453ceeb49)" style="fill: #1f77b4"/>
   </g>
   <g id="patch_109">
    <path d="M 232.053683 273.312 
L 233.672055 273.312 
L 233.672055 53.331775 
L 232.053683 53.331775 
z
" clip-path="url(#p6453ceeb49)" style="fill: #1f77b4"/>
   </g>
   <g id="patch_110">
    <path d="M 233.672055 273.312 
L 235.290427 273.312 
L 235.290427 72.553348 
L 233.672055 72.553348 
z
" clip-path="url(#p6453ceeb49)" style="fill: #1f77b4"/>
   </g>
   <g id="patch_111">
    <path d="M 235.290427 273.312 
L 236.908798 273.312 
L 236.908798 51.196045 
L 235.290427 51.196045 
z
" clip-path="url(#p6453ceeb49)" style="fill: #1f77b4"/>
   </g>
   <g id="patch_112">
    <path d="M 236.908798 273.312 
L 238.52717 273.312 
L 238.52717 31.974472 
L 236.908798 31.974472 
z
" clip-path="url(#p6453ceeb49)" style="fill: #1f77b4"/>
   </g>
   <g id="patch_113">
    <path d="M 238.52717 273.312 
L 240.145542 273.312 
L 240.145542 57.603236 
L 238.52717 57.603236 
z
" clip-path="url(#p6453ceeb49)" style="fill: #1f77b4"/>
   </g>
   <g id="patch_114">
    <path d="M 240.145542 273.312 
L 241.763914 273.312 
L 241.763914 39.805483 
L 240.145542 39.805483 
z
" clip-path="url(#p6453ceeb49)" style="fill: #1f77b4"/>
   </g>
   <g id="patch_115">
    <path d="M 241.763914 273.312 
L 243.382285 273.312 
L 243.382285 45.500764 
L 241.763914 45.500764 
z
" clip-path="url(#p6453ceeb49)" style="fill: #1f77b4"/>
   </g>
   <g id="patch_116">
    <path d="M 243.382285 273.312 
L 245.000657 273.312 
L 245.000657 47.636494 
L 243.382285 47.636494 
z
" clip-path="url(#p6453ceeb49)" style="fill: #1f77b4"/>
   </g>
   <g id="patch_117">
    <path d="M 245.000657 273.312 
L 246.619029 273.312 
L 246.619029 59.027056 
L 245.000657 59.027056 
z
" clip-path="url(#p6453ceeb49)" style="fill: #1f77b4"/>
   </g>
   <g id="patch_118">
    <path d="M 246.619029 273.312 
L 248.237401 273.312 
L 248.237401 65.434247 
L 246.619029 65.434247 
z
" clip-path="url(#p6453ceeb49)" style="fill: #1f77b4"/>
   </g>
   <g id="patch_119">
    <path d="M 248.237401 273.312 
L 249.855772 273.312 
L 249.855772 48.348404 
L 248.237401 48.348404 
z
" clip-path="url(#p6453ceeb49)" style="fill: #1f77b4"/>
   </g>
   <g id="patch_120">
    <path d="M 249.855772 273.312 
L 251.474144 273.312 
L 251.474144 43.365034 
L 249.855772 43.365034 
z
" clip-path="url(#p6453ceeb49)" style="fill: #1f77b4"/>
   </g>
   <g id="patch_121">
    <path d="M 251.474144 273.312 
L 253.092516 273.312 
L 253.092516 73.265258 
L 251.474144 73.265258 
z
" clip-path="url(#p6453ceeb49)" style="fill: #1f77b4"/>
   </g>
   <g id="patch_122">
    <path d="M 253.092516 273.312 
L 254.710888 273.312 
L 254.710888 65.434247 
L 253.092516 65.434247 
z
" clip-path="url(#p6453ceeb49)" style="fill: #1f77b4"/>
   </g>
   <g id="patch_123">
    <path d="M 254.710888 273.312 
L 256.329259 273.312 
L 256.329259 58.315146 
L 254.710888 58.315146 
z
" clip-path="url(#p6453ceeb49)" style="fill: #1f77b4"/>
   </g>
   <g id="patch_124">
    <path d="M 256.329259 273.312 
L 257.947631 273.312 
L 257.947631 64.010427 
L 256.329259 64.010427 
z
" clip-path="url(#p6453ceeb49)" style="fill: #1f77b4"/>
   </g>
   <g id="patch_125">
    <path d="M 257.947631 273.312 
L 259.566003 273.312 
L 259.566003 62.586607 
L 257.947631 62.586607 
z
" clip-path="url(#p6453ceeb49)" style="fill: #1f77b4"/>
   </g>
   <g id="patch_126">
    <path d="M 259.566003 273.312 
L 261.184375 273.312 
L 261.184375 57.603236 
L 259.566003 57.603236 
z
" clip-path="url(#p6453ceeb49)" style="fill: #1f77b4"/>
   </g>
   <g id="patch_127">
    <path d="M 261.184375 273.312 
L 262.802746 273.312 
L 262.802746 48.348404 
L 261.184375 48.348404 
z
" clip-path="url(#p6453ceeb49)" style="fill: #1f77b4"/>
   </g>
   <g id="patch_128">
    <path d="M 262.802746 273.312 
L 264.421118 273.312 
L 264.421118 81.09627 
L 262.802746 81.09627 
z
" clip-path="url(#p6453ceeb49)" style="fill: #1f77b4"/>
   </g>
   <g id="patch_129">
    <path d="M 264.421118 273.312 
L 266.03949 273.312 
L 266.03949 74.689079 
L 264.421118 74.689079 
z
" clip-path="url(#p6453ceeb49)" style="fill: #1f77b4"/>
   </g>
   <g id="patch_130">
    <path d="M 266.03949 273.312 
L 267.657862 273.312 
L 267.657862 60.450876 
L 266.03949 60.450876 
z
" clip-path="url(#p6453ceeb49)" style="fill: #1f77b4"/>
   </g>
   <g id="patch_131">
    <path d="M 267.657862 273.312 
L 269.276233 273.312 
L 269.276233 71.129528 
L 267.657862 71.129528 
z
" clip-path="url(#p6453ceeb49)" style="fill: #1f77b4"/>
   </g>
   <g id="patch_132">
    <path d="M 269.276233 273.312 
L 270.894605 273.312 
L 270.894605 75.400989 
L 269.276233 75.400989 
z
" clip-path="url(#p6453ceeb49)" style="fill: #1f77b4"/>
   </g>
   <g id="patch_133">
    <path d="M 270.894605 273.312 
L 272.512977 273.312 
L 272.512977 54.755596 
L 270.894605 54.755596 
z
" clip-path="url(#p6453ceeb49)" style="fill: #1f77b4"/>
   </g>
   <g id="patch_134">
    <path d="M 272.512977 273.312 
L 274.131349 273.312 
L 274.131349 95.334472 
L 272.512977 95.334472 
z
" clip-path="url(#p6453ceeb49)" style="fill: #1f77b4"/>
   </g>
   <g id="patch_135">
    <path d="M 274.131349 273.312 
L 275.74972 273.312 
L 275.74972 80.38436 
L 274.131349 80.38436 
z
" clip-path="url(#p6453ceeb49)" style="fill: #1f77b4"/>
   </g>
   <g id="patch_136">
    <path d="M 275.74972 273.312 
L 277.368092 273.312 
L 277.368092 86.791551 
L 275.74972 86.791551 
z
" clip-path="url(#p6453ceeb49)" style="fill: #1f77b4"/>
   </g>
   <g id="patch_137">
    <path d="M 277.368092 273.312 
L 278.986464 273.312 
L 278.986464 96.758292 
L 277.368092 96.758292 
z
" clip-path="url(#p6453ceeb49)" style="fill: #1f77b4"/>
   </g>
   <g id="patch_138">
    <path d="M 278.986464 273.312 
L 280.604836 273.312 
L 280.604836 85.36773 
L 278.986464 85.36773 
z
" clip-path="url(#p6453ceeb49)" style="fill: #1f77b4"/>
   </g>
   <g id="patch_139">
    <path d="M 280.604836 273.312 
L 282.223207 273.312 
L 282.223207 98.182112 
L 280.604836 98.182112 
z
" clip-path="url(#p6453ceeb49)" style="fill: #1f77b4"/>
   </g>
   <g id="patch_140">
    <path d="M 282.223207 273.312 
L 283.841579 273.312 
L 283.841579 83.232 
L 282.223207 83.232 
z
" clip-path="url(#p6453ceeb49)" style="fill: #1f77b4"/>
   </g>
   <g id="patch_141">
    <path d="M 283.841579 273.312 
L 285.459951 273.312 
L 285.459951 90.351101 
L 283.841579 90.351101 
z
" clip-path="url(#p6453ceeb49)" style="fill: #1f77b4"/>
   </g>
   <g id="patch_142">
    <path d="M 285.459951 273.312 
L 287.078323 273.312 
L 287.078323 88.927281 
L 285.459951 88.927281 
z
" clip-path="url(#p6453ceeb49)" style="fill: #1f77b4"/>
   </g>
   <g id="patch_143">
    <path d="M 287.078323 273.312 
L 288.696694 273.312 
L 288.696694 101.741663 
L 287.078323 101.741663 
z
" clip-path="url(#p6453ceeb49)" style="fill: #1f77b4"/>
   </g>
   <g id="patch_144">
    <path d="M 288.696694 273.312 
L 290.315066 273.312 
L 290.315066 97.470202 
L 288.696694 97.470202 
z
" clip-path="url(#p6453ceeb49)" style="fill: #1f77b4"/>
   </g>
   <g id="patch_145">
    <path d="M 290.315066 273.312 
L 291.933438 273.312 
L 291.933438 103.165483 
L 290.315066 103.165483 
z
" clip-path="url(#p6453ceeb49)" style="fill: #1f77b4"/>
   </g>
   <g id="patch_146">
    <path d="M 291.933438 273.312 
L 293.55181 273.312 
L 293.55181 89.639191 
L 291.933438 89.639191 
z
" clip-path="url(#p6453ceeb49)" style="fill: #1f77b4"/>
   </g>
   <g id="patch_147">
    <path d="M 293.55181 273.312 
L 295.170181 273.312 
L 295.170181 96.758292 
L 293.55181 96.758292 
z
" clip-path="url(#p6453ceeb49)" style="fill: #1f77b4"/>
   </g>
   <g id="patch_148">
    <path d="M 295.170181 273.312 
L 296.788553 273.312 
L 296.788553 106.013124 
L 295.170181 106.013124 
z
" clip-path="url(#p6453ceeb49)" style="fill: #1f77b4"/>
   </g>
   <g id="patch_149">
    <path d="M 296.788553 273.312 
L 298.406925 273.312 
L 298.406925 115.979865 
L 296.788553 115.979865 
z
" clip-path="url(#p6453ceeb49)" style="fill: #1f77b4"/>
   </g>
   <g id="patch_150">
    <path d="M 298.406925 273.312 
L 300.025297 273.312 
L 300.025297 108.860764 
L 298.406925 108.860764 
z
" clip-path="url(#p6453ceeb49)" style="fill: #1f77b4"/>
   </g>
   <g id="patch_151">
    <path d="M 300.025297 273.312 
L 301.643668 273.312 
L 301.643668 103.877393 
L 300.025297 103.877393 
z
" clip-path="url(#p6453ceeb49)" style="fill: #1f77b4"/>
   </g>
   <g id="patch_152">
    <path d="M 301.643668 273.312 
L 303.26204 273.312 
L 303.26204 118.827506 
L 301.643668 118.827506 
z
" clip-path="url(#p6453ceeb49)" style="fill: #1f77b4"/>
   </g>
   <g id="patch_153">
    <path d="M 303.26204 273.312 
L 304.880412 273.312 
L 304.880412 118.827506 
L 303.26204 118.827506 
z
" clip-path="url(#p6453ceeb49)" style="fill: #1f77b4"/>
   </g>
   <g id="patch_154">
    <path d="M 304.880412 273.312 
L 306.498784 273.312 
L 306.498784 123.098966 
L 304.880412 123.098966 
z
" clip-path="url(#p6453ceeb49)" style="fill: #1f77b4"/>
   </g>
   <g id="patch_155">
    <path d="M 306.498784 273.312 
L 308.117155 273.312 
L 308.117155 121.675146 
L 306.498784 121.675146 
z
" clip-path="url(#p6453ceeb49)" style="fill: #1f77b4"/>
   </g>
   <g id="patch_156">
    <path d="M 308.117155 273.312 
L 309.735527 273.312 
L 309.735527 130.218067 
L 308.117155 130.218067 
z
" clip-path="url(#p6453ceeb49)" style="fill: #1f77b4"/>
   </g>
   <g id="patch_157">
    <path d="M 309.735527 273.312 
L 311.353899 273.312 
L 311.353899 128.082337 
L 309.735527 128.082337 
z
" clip-path="url(#p6453ceeb49)" style="fill: #1f77b4"/>
   </g>
   <g id="patch_158">
    <path d="M 311.353899 273.312 
L 312.972271 273.312 
L 312.972271 156.558742 
L 311.353899 156.558742 
z
" clip-path="url(#p6453ceeb49)" style="fill: #1f77b4"/>
   </g>
   <g id="patch_159">
    <path d="M 312.972271 273.312 
L 314.590642 273.312 
L 314.590642 123.810876 
L 312.972271 123.810876 
z
" clip-path="url(#p6453ceeb49)" style="fill: #1f77b4"/>
   </g>
   <g id="patch_160">
    <path d="M 314.590642 273.312 
L 316.209014 273.312 
L 316.209014 141.608629 
L 314.590642 141.608629 
z
" clip-path="url(#p6453ceeb49)" style="fill: #1f77b4"/>
   </g>
   <g id="patch_161">
    <path d="M 316.209014 273.312 
L 317.827386 273.312 
L 317.827386 120.963236 
L 316.209014 120.963236 
z
" clip-path="url(#p6453ceeb49)" style="fill: #1f77b4"/>
   </g>
   <g id="patch_162">
    <path d="M 317.827386 273.312 
L 319.445758 273.312 
L 319.445758 130.218067 
L 317.827386 130.218067 
z
" clip-path="url(#p6453ceeb49)" style="fill: #1f77b4"/>
   </g>
   <g id="patch_163">
    <path d="M 319.445758 273.312 
L 321.064129 273.312 
L 321.064129 159.406382 
L 319.445758 159.406382 
z
" clip-path="url(#p6453ceeb49)" style="fill: #1f77b4"/>
   </g>
   <g id="patch_164">
    <path d="M 321.064129 273.312 
L 322.682501 273.312 
L 322.682501 155.134921 
L 321.064129 155.134921 
z
" clip-path="url(#p6453ceeb49)" style="fill: #1f77b4"/>
   </g>
   <g id="patch_165">
    <path d="M 322.682501 273.312 
L 324.300873 273.312 
L 324.300873 143.032449 
L 322.682501 143.032449 
z
" clip-path="url(#p6453ceeb49)" style="fill: #1f77b4"/>
   </g>
   <g id="patch_166">
    <path d="M 324.300873 273.312 
L 325.919245 273.312 
L 325.919245 154.423011 
L 324.300873 154.423011 
z
" clip-path="url(#p6453ceeb49)" style="fill: #1f77b4"/>
   </g>
   <g id="patch_167">
    <path d="M 325.919245 273.312 
L 327.537616 273.312 
L 327.537616 167.237393 
L 325.919245 167.237393 
z
" clip-path="url(#p6453ceeb49)" style="fill: #1f77b4"/>
   </g>
   <g id="patch_168">
    <path d="M 327.537616 273.312 
L 329.155988 273.312 
L 329.155988 143.74436 
L 327.537616 143.74436 
z
" clip-path="url(#p6453ceeb49)" style="fill: #1f77b4"/>
   </g>
   <g id="patch_169">
    <path d="M 329.155988 273.312 
L 330.77436 273.312 
L 330.77436 153.711101 
L 329.155988 153.711101 
z
" clip-path="url(#p6453ceeb49)" style="fill: #1f77b4"/>
   </g>
   <g id="patch_170">
    <path d="M 330.77436 273.312 
L 332.392732 273.312 
L 332.392732 165.101663 
L 330.77436 165.101663 
z
" clip-path="url(#p6453ceeb49)" style="fill: #1f77b4"/>
   </g>
   <g id="patch_171">
    <path d="M 332.392732 273.312 
L 334.011103 273.312 
L 334.011103 157.982562 
L 332.392732 157.982562 
z
" clip-path="url(#p6453ceeb49)" style="fill: #1f77b4"/>
   </g>
   <g id="patch_172">
    <path d="M 334.011103 273.312 
L 335.629475 273.312 
L 335.629475 175.780315 
L 334.011103 175.780315 
z
" clip-path="url(#p6453ceeb49)" style="fill: #1f77b4"/>
   </g>
   <g id="patch_173">
    <path d="M 335.629475 273.312 
L 337.247847 273.312 
L 337.247847 159.406382 
L 335.629475 159.406382 
z
" clip-path="url(#p6453ceeb49)" style="fill: #1f77b4"/>
   </g>
   <g id="patch_174">
    <path d="M 337.247847 273.312 
L 338.866219 273.312 
L 338.866219 183.611326 
L 337.247847 183.611326 
z
" clip-path="url(#p6453ceeb49)" style="fill: #1f77b4"/>
   </g>
   <g id="patch_175">
    <path d="M 338.866219 273.312 
L 340.48459 273.312 
L 340.48459 180.763685 
L 338.866219 180.763685 
z
" clip-path="url(#p6453ceeb49)" style="fill: #1f77b4"/>
   </g>
   <g id="patch_176">
    <path d="M 340.48459 273.312 
L 342.102962 273.312 
L 342.102962 188.594697 
L 340.48459 188.594697 
z
" clip-path="url(#p6453ceeb49)" style="fill: #1f77b4"/>
   </g>
   <g id="patch_177">
    <path d="M 342.102962 273.312 
L 343.721334 273.312 
L 343.721334 190.730427 
L 342.102962 190.730427 
z
" clip-path="url(#p6453ceeb49)" style="fill: #1f77b4"/>
   </g>
   <g id="patch_178">
    <path d="M 343.721334 273.312 
L 345.339706 273.312 
L 345.339706 183.611326 
L 343.721334 183.611326 
z
" clip-path="url(#p6453ceeb49)" style="fill: #1f77b4"/>
   </g>
   <g id="patch_179">
    <path d="M 345.339706 273.312 
L 346.958077 273.312 
L 346.958077 188.594697 
L 345.339706 188.594697 
z
" clip-path="url(#p6453ceeb49)" style="fill: #1f77b4"/>
   </g>
   <g id="patch_180">
    <path d="M 346.958077 273.312 
L 348.576449 273.312 
L 348.576449 195.001888 
L 346.958077 195.001888 
z
" clip-path="url(#p6453ceeb49)" style="fill: #1f77b4"/>
   </g>
   <g id="patch_181">
    <path d="M 348.576449 273.312 
L 350.194821 273.312 
L 350.194821 187.882787 
L 348.576449 187.882787 
z
" clip-path="url(#p6453ceeb49)" style="fill: #1f77b4"/>
   </g>
   <g id="patch_182">
    <path d="M 350.194821 273.312 
L 351.813193 273.312 
L 351.813193 201.409079 
L 350.194821 201.409079 
z
" clip-path="url(#p6453ceeb49)" style="fill: #1f77b4"/>
   </g>
   <g id="patch_183">
    <path d="M 351.813193 273.312 
L 353.431564 273.312 
L 353.431564 210.66391 
L 351.813193 210.66391 
z
" clip-path="url(#p6453ceeb49)" style="fill: #1f77b4"/>
   </g>
   <g id="patch_184">
    <path d="M 353.431564 273.312 
L 355.049936 273.312 
L 355.049936 203.544809 
L 353.431564 203.544809 
z
" clip-path="url(#p6453ceeb49)" style="fill: #1f77b4"/>
   </g>
   <g id="patch_185">
    <path d="M 355.049936 273.312 
L 356.668308 273.312 
L 356.668308 206.392449 
L 355.049936 206.392449 
z
" clip-path="url(#p6453ceeb49)" style="fill: #1f77b4"/>
   </g>
   <g id="patch_186">
    <path d="M 356.668308 273.312 
L 358.28668 273.312 
L 358.28668 202.120989 
L 356.668308 202.120989 
z
" clip-path="url(#p6453ceeb49)" style="fill: #1f77b4"/>
   </g>
   <g id="patch_187">
    <path d="M 358.28668 273.312 
L 359.905051 273.312 
L 359.905051 219.206831 
L 358.28668 219.206831 
z
" clip-path="url(#p6453ceeb49)" style="fill: #1f77b4"/>
   </g>
   <g id="patch_188">
    <path d="M 359.905051 273.312 
L 361.523423 273.312 
L 361.523423 224.902112 
L 359.905051 224.902112 
z
" clip-path="url(#p6453ceeb49)" style="fill: #1f77b4"/>
   </g>
   <g id="patch_189">
    <path d="M 361.523423 273.312 
L 363.141795 273.312 
L 363.141795 219.206831 
L 361.523423 219.206831 
z
" clip-path="url(#p6453ceeb49)" style="fill: #1f77b4"/>
   </g>
   <g id="patch_190">
    <path d="M 363.141795 273.312 
L 364.760167 273.312 
L 364.760167 229.173573 
L 363.141795 229.173573 
z
" clip-path="url(#p6453ceeb49)" style="fill: #1f77b4"/>
   </g>
   <g id="patch_191">
    <path d="M 364.760167 273.312 
L 366.378538 273.312 
L 366.378538 233.445034 
L 364.760167 233.445034 
z
" clip-path="url(#p6453ceeb49)" style="fill: #1f77b4"/>
   </g>
   <g id="patch_192">
    <path d="M 366.378538 273.312 
L 367.99691 273.312 
L 367.99691 234.156944 
L 366.378538 234.156944 
z
" clip-path="url(#p6453ceeb49)" style="fill: #1f77b4"/>
   </g>
   <g id="patch_193">
    <path d="M 367.99691 273.312 
L 369.615282 273.312 
L 369.615282 242.699865 
L 367.99691 242.699865 
z
" clip-path="url(#p6453ceeb49)" style="fill: #1f77b4"/>
   </g>
   <g id="patch_194">
    <path d="M 369.615282 273.312 
L 371.233654 273.312 
L 371.233654 241.276045 
L 369.615282 241.276045 
z
" clip-path="url(#p6453ceeb49)" style="fill: #1f77b4"/>
   </g>
   <g id="patch_195">
    <path d="M 371.233654 273.312 
L 372.852025 273.312 
L 372.852025 246.259416 
L 371.233654 246.259416 
z
" clip-path="url(#p6453ceeb49)" style="fill: #1f77b4"/>
   </g>
   <g id="patch_196">
    <path d="M 372.852025 273.312 
L 374.470397 273.312 
L 374.470397 241.276045 
L 372.852025 241.276045 
z
" clip-path="url(#p6453ceeb49)" style="fill: #1f77b4"/>
   </g>
   <g id="patch_197">
    <path d="M 374.470397 273.312 
L 376.088769 273.312 
L 376.088769 256.226157 
L 374.470397 256.226157 
z
" clip-path="url(#p6453ceeb49)" style="fill: #1f77b4"/>
   </g>
   <g id="patch_198">
    <path d="M 376.088769 273.312 
L 377.707141 273.312 
L 377.707141 259.073798 
L 376.088769 259.073798 
z
" clip-path="url(#p6453ceeb49)" style="fill: #1f77b4"/>
   </g>
   <g id="patch_199">
    <path d="M 377.707141 273.312 
L 379.325512 273.312 
L 379.325512 259.785708 
L 377.707141 259.785708 
z
" clip-path="url(#p6453ceeb49)" style="fill: #1f77b4"/>
   </g>
   <g id="patch_200">
    <path d="M 379.325512 273.312 
L 380.943884 273.312 
L 380.943884 264.057169 
L 379.325512 264.057169 
z
" clip-path="url(#p6453ceeb49)" style="fill: #1f77b4"/>
   </g>
   <g id="patch_201">
    <path d="M 380.943884 273.312 
L 382.562256 273.312 
L 382.562256 265.480989 
L 380.943884 265.480989 
z
" clip-path="url(#p6453ceeb49)" style="fill: #1f77b4"/>
   </g>
   <g id="patch_202">
    <path d="M 382.562256 273.312 
L 384.180628 273.312 
L 384.180628 266.904809 
L 382.562256 266.904809 
z
" clip-path="url(#p6453ceeb49)" style="fill: #1f77b4"/>
   </g>
   <g id="matplotlib.axis_1">
    <g id="xtick_1">
     <g id="line2d_1">
      <defs>
       <path id="m4d64e4c3de" d="M 0 0 
L 0 3.5 
" style="stroke: #000000; stroke-width: 0.8"/>
      </defs>
      <g>
       <use xlink:href="#m4d64e4c3de" x="60.013977" y="273.312" style="stroke: #000000; stroke-width: 0.8"/>
      </g>
     </g>
     <g id="text_1">
      <!-- 0.0 -->
      <g transform="translate(52.062415 287.910437)scale(0.1 -0.1)">
       <defs>
        <path id="DejaVuSans-30" d="M 2034 4250 
Q 1547 4250 1301 3770 
Q 1056 3291 1056 2328 
Q 1056 1369 1301 889 
Q 1547 409 2034 409 
Q 2525 409 2770 889 
Q 3016 1369 3016 2328 
Q 3016 3291 2770 3770 
Q 2525 4250 2034 4250 
z
M 2034 4750 
Q 2819 4750 3233 4129 
Q 3647 3509 3647 2328 
Q 3647 1150 3233 529 
Q 2819 -91 2034 -91 
Q 1250 -91 836 529 
Q 422 1150 422 2328 
Q 422 3509 836 4129 
Q 1250 4750 2034 4750 
z
" transform="scale(0.015625)"/>
        <path id="DejaVuSans-2e" d="M 684 794 
L 1344 794 
L 1344 0 
L 684 0 
L 684 794 
z
" transform="scale(0.015625)"/>
       </defs>
       <use xlink:href="#DejaVuSans-30"/>
       <use xlink:href="#DejaVuSans-2e" x="63.623047"/>
       <use xlink:href="#DejaVuSans-30" x="95.410156"/>
      </g>
     </g>
    </g>
    <g id="xtick_2">
     <g id="line2d_2">
      <g>
       <use xlink:href="#m4d64e4c3de" x="101.350278" y="273.312" style="stroke: #000000; stroke-width: 0.8"/>
      </g>
     </g>
     <g id="text_2">
      <!-- 0.2 -->
      <g transform="translate(93.398715 287.910437)scale(0.1 -0.1)">
       <defs>
        <path id="DejaVuSans-32" d="M 1228 531 
L 3431 531 
L 3431 0 
L 469 0 
L 469 531 
Q 828 903 1448 1529 
Q 2069 2156 2228 2338 
Q 2531 2678 2651 2914 
Q 2772 3150 2772 3378 
Q 2772 3750 2511 3984 
Q 2250 4219 1831 4219 
Q 1534 4219 1204 4116 
Q 875 4013 500 3803 
L 500 4441 
Q 881 4594 1212 4672 
Q 1544 4750 1819 4750 
Q 2544 4750 2975 4387 
Q 3406 4025 3406 3419 
Q 3406 3131 3298 2873 
Q 3191 2616 2906 2266 
Q 2828 2175 2409 1742 
Q 1991 1309 1228 531 
z
" transform="scale(0.015625)"/>
       </defs>
       <use xlink:href="#DejaVuSans-30"/>
       <use xlink:href="#DejaVuSans-2e" x="63.623047"/>
       <use xlink:href="#DejaVuSans-32" x="95.410156"/>
      </g>
     </g>
    </g>
    <g id="xtick_3">
     <g id="line2d_3">
      <g>
       <use xlink:href="#m4d64e4c3de" x="142.686578" y="273.312" style="stroke: #000000; stroke-width: 0.8"/>
      </g>
     </g>
     <g id="text_3">
      <!-- 0.4 -->
      <g transform="translate(134.735016 287.910437)scale(0.1 -0.1)">
       <defs>
        <path id="DejaVuSans-34" d="M 2419 4116 
L 825 1625 
L 2419 1625 
L 2419 4116 
z
M 2253 4666 
L 3047 4666 
L 3047 1625 
L 3713 1625 
L 3713 1100 
L 3047 1100 
L 3047 0 
L 2419 0 
L 2419 1100 
L 313 1100 
L 313 1709 
L 2253 4666 
z
" transform="scale(0.015625)"/>
       </defs>
       <use xlink:href="#DejaVuSans-30"/>
       <use xlink:href="#DejaVuSans-2e" x="63.623047"/>
       <use xlink:href="#DejaVuSans-34" x="95.410156"/>
      </g>
     </g>
    </g>
    <g id="xtick_4">
     <g id="line2d_4">
      <g>
       <use xlink:href="#m4d64e4c3de" x="184.022879" y="273.312" style="stroke: #000000; stroke-width: 0.8"/>
      </g>
     </g>
     <g id="text_4">
      <!-- 0.6 -->
      <g transform="translate(176.071316 287.910437)scale(0.1 -0.1)">
       <defs>
        <path id="DejaVuSans-36" d="M 2113 2584 
Q 1688 2584 1439 2293 
Q 1191 2003 1191 1497 
Q 1191 994 1439 701 
Q 1688 409 2113 409 
Q 2538 409 2786 701 
Q 3034 994 3034 1497 
Q 3034 2003 2786 2293 
Q 2538 2584 2113 2584 
z
M 3366 4563 
L 3366 3988 
Q 3128 4100 2886 4159 
Q 2644 4219 2406 4219 
Q 1781 4219 1451 3797 
Q 1122 3375 1075 2522 
Q 1259 2794 1537 2939 
Q 1816 3084 2150 3084 
Q 2853 3084 3261 2657 
Q 3669 2231 3669 1497 
Q 3669 778 3244 343 
Q 2819 -91 2113 -91 
Q 1303 -91 875 529 
Q 447 1150 447 2328 
Q 447 3434 972 4092 
Q 1497 4750 2381 4750 
Q 2619 4750 2861 4703 
Q 3103 4656 3366 4563 
z
" transform="scale(0.015625)"/>
       </defs>
       <use xlink:href="#DejaVuSans-30"/>
       <use xlink:href="#DejaVuSans-2e" x="63.623047"/>
       <use xlink:href="#DejaVuSans-36" x="95.410156"/>
      </g>
     </g>
    </g>
    <g id="xtick_5">
     <g id="line2d_5">
      <g>
       <use xlink:href="#m4d64e4c3de" x="225.35918" y="273.312" style="stroke: #000000; stroke-width: 0.8"/>
      </g>
     </g>
     <g id="text_5">
      <!-- 0.8 -->
      <g transform="translate(217.407617 287.910437)scale(0.1 -0.1)">
       <defs>
        <path id="DejaVuSans-38" d="M 2034 2216 
Q 1584 2216 1326 1975 
Q 1069 1734 1069 1313 
Q 1069 891 1326 650 
Q 1584 409 2034 409 
Q 2484 409 2743 651 
Q 3003 894 3003 1313 
Q 3003 1734 2745 1975 
Q 2488 2216 2034 2216 
z
M 1403 2484 
Q 997 2584 770 2862 
Q 544 3141 544 3541 
Q 544 4100 942 4425 
Q 1341 4750 2034 4750 
Q 2731 4750 3128 4425 
Q 3525 4100 3525 3541 
Q 3525 3141 3298 2862 
Q 3072 2584 2669 2484 
Q 3125 2378 3379 2068 
Q 3634 1759 3634 1313 
Q 3634 634 3220 271 
Q 2806 -91 2034 -91 
Q 1263 -91 848 271 
Q 434 634 434 1313 
Q 434 1759 690 2068 
Q 947 2378 1403 2484 
z
M 1172 3481 
Q 1172 3119 1398 2916 
Q 1625 2713 2034 2713 
Q 2441 2713 2670 2916 
Q 2900 3119 2900 3481 
Q 2900 3844 2670 4047 
Q 2441 4250 2034 4250 
Q 1625 4250 1398 4047 
Q 1172 3844 1172 3481 
z
" transform="scale(0.015625)"/>
       </defs>
       <use xlink:href="#DejaVuSans-30"/>
       <use xlink:href="#DejaVuSans-2e" x="63.623047"/>
       <use xlink:href="#DejaVuSans-38" x="95.410156"/>
      </g>
     </g>
    </g>
    <g id="xtick_6">
     <g id="line2d_6">
      <g>
       <use xlink:href="#m4d64e4c3de" x="266.69548" y="273.312" style="stroke: #000000; stroke-width: 0.8"/>
      </g>
     </g>
     <g id="text_6">
      <!-- 1.0 -->
      <g transform="translate(258.743918 287.910437)scale(0.1 -0.1)">
       <defs>
        <path id="DejaVuSans-31" d="M 794 531 
L 1825 531 
L 1825 4091 
L 703 3866 
L 703 4441 
L 1819 4666 
L 2450 4666 
L 2450 531 
L 3481 531 
L 3481 0 
L 794 0 
L 794 531 
z
" transform="scale(0.015625)"/>
       </defs>
       <use xlink:href="#DejaVuSans-31"/>
       <use xlink:href="#DejaVuSans-2e" x="63.623047"/>
       <use xlink:href="#DejaVuSans-30" x="95.410156"/>
      </g>
     </g>
    </g>
    <g id="xtick_7">
     <g id="line2d_7">
      <g>
       <use xlink:href="#m4d64e4c3de" x="308.031781" y="273.312" style="stroke: #000000; stroke-width: 0.8"/>
      </g>
     </g>
     <g id="text_7">
      <!-- 1.2 -->
      <g transform="translate(300.080218 287.910437)scale(0.1 -0.1)">
       <use xlink:href="#DejaVuSans-31"/>
       <use xlink:href="#DejaVuSans-2e" x="63.623047"/>
       <use xlink:href="#DejaVuSans-32" x="95.410156"/>
      </g>
     </g>
    </g>
    <g id="xtick_8">
     <g id="line2d_8">
      <g>
       <use xlink:href="#m4d64e4c3de" x="349.368081" y="273.312" style="stroke: #000000; stroke-width: 0.8"/>
      </g>
     </g>
     <g id="text_8">
      <!-- 1.4 -->
      <g transform="translate(341.416519 287.910437)scale(0.1 -0.1)">
       <use xlink:href="#DejaVuSans-31"/>
       <use xlink:href="#DejaVuSans-2e" x="63.623047"/>
       <use xlink:href="#DejaVuSans-34" x="95.410156"/>
      </g>
     </g>
    </g>
    <g id="xtick_9">
     <g id="line2d_9">
      <g>
       <use xlink:href="#m4d64e4c3de" x="390.704382" y="273.312" style="stroke: #000000; stroke-width: 0.8"/>
      </g>
     </g>
     <g id="text_9">
      <!-- 1.6 -->
      <g transform="translate(382.752819 287.910437)scale(0.1 -0.1)">
       <use xlink:href="#DejaVuSans-31"/>
       <use xlink:href="#DejaVuSans-2e" x="63.623047"/>
       <use xlink:href="#DejaVuSans-36" x="95.410156"/>
      </g>
     </g>
    </g>
    <g id="text_10">
     <!-- Angle with normal (rad) -->
     <g transform="translate(163.023281 301.588562)scale(0.1 -0.1)">
      <defs>
       <path id="DejaVuSans-41" d="M 2188 4044 
L 1331 1722 
L 3047 1722 
L 2188 4044 
z
M 1831 4666 
L 2547 4666 
L 4325 0 
L 3669 0 
L 3244 1197 
L 1141 1197 
L 716 0 
L 50 0 
L 1831 4666 
z
" transform="scale(0.015625)"/>
       <path id="DejaVuSans-6e" d="M 3513 2113 
L 3513 0 
L 2938 0 
L 2938 2094 
Q 2938 2591 2744 2837 
Q 2550 3084 2163 3084 
Q 1697 3084 1428 2787 
Q 1159 2491 1159 1978 
L 1159 0 
L 581 0 
L 581 3500 
L 1159 3500 
L 1159 2956 
Q 1366 3272 1645 3428 
Q 1925 3584 2291 3584 
Q 2894 3584 3203 3211 
Q 3513 2838 3513 2113 
z
" transform="scale(0.015625)"/>
       <path id="DejaVuSans-67" d="M 2906 1791 
Q 2906 2416 2648 2759 
Q 2391 3103 1925 3103 
Q 1463 3103 1205 2759 
Q 947 2416 947 1791 
Q 947 1169 1205 825 
Q 1463 481 1925 481 
Q 2391 481 2648 825 
Q 2906 1169 2906 1791 
z
M 3481 434 
Q 3481 -459 3084 -895 
Q 2688 -1331 1869 -1331 
Q 1566 -1331 1297 -1286 
Q 1028 -1241 775 -1147 
L 775 -588 
Q 1028 -725 1275 -790 
Q 1522 -856 1778 -856 
Q 2344 -856 2625 -561 
Q 2906 -266 2906 331 
L 2906 616 
Q 2728 306 2450 153 
Q 2172 0 1784 0 
Q 1141 0 747 490 
Q 353 981 353 1791 
Q 353 2603 747 3093 
Q 1141 3584 1784 3584 
Q 2172 3584 2450 3431 
Q 2728 3278 2906 2969 
L 2906 3500 
L 3481 3500 
L 3481 434 
z
" transform="scale(0.015625)"/>
       <path id="DejaVuSans-6c" d="M 603 4863 
L 1178 4863 
L 1178 0 
L 603 0 
L 603 4863 
z
" transform="scale(0.015625)"/>
       <path id="DejaVuSans-65" d="M 3597 1894 
L 3597 1613 
L 953 1613 
Q 991 1019 1311 708 
Q 1631 397 2203 397 
Q 2534 397 2845 478 
Q 3156 559 3463 722 
L 3463 178 
Q 3153 47 2828 -22 
Q 2503 -91 2169 -91 
Q 1331 -91 842 396 
Q 353 884 353 1716 
Q 353 2575 817 3079 
Q 1281 3584 2069 3584 
Q 2775 3584 3186 3129 
Q 3597 2675 3597 1894 
z
M 3022 2063 
Q 3016 2534 2758 2815 
Q 2500 3097 2075 3097 
Q 1594 3097 1305 2825 
Q 1016 2553 972 2059 
L 3022 2063 
z
" transform="scale(0.015625)"/>
       <path id="DejaVuSans-20" transform="scale(0.015625)"/>
       <path id="DejaVuSans-77" d="M 269 3500 
L 844 3500 
L 1563 769 
L 2278 3500 
L 2956 3500 
L 3675 769 
L 4391 3500 
L 4966 3500 
L 4050 0 
L 3372 0 
L 2619 2869 
L 1863 0 
L 1184 0 
L 269 3500 
z
" transform="scale(0.015625)"/>
       <path id="DejaVuSans-69" d="M 603 3500 
L 1178 3500 
L 1178 0 
L 603 0 
L 603 3500 
z
M 603 4863 
L 1178 4863 
L 1178 4134 
L 603 4134 
L 603 4863 
z
" transform="scale(0.015625)"/>
       <path id="DejaVuSans-74" d="M 1172 4494 
L 1172 3500 
L 2356 3500 
L 2356 3053 
L 1172 3053 
L 1172 1153 
Q 1172 725 1289 603 
Q 1406 481 1766 481 
L 2356 481 
L 2356 0 
L 1766 0 
Q 1100 0 847 248 
Q 594 497 594 1153 
L 594 3053 
L 172 3053 
L 172 3500 
L 594 3500 
L 594 4494 
L 1172 4494 
z
" transform="scale(0.015625)"/>
       <path id="DejaVuSans-68" d="M 3513 2113 
L 3513 0 
L 2938 0 
L 2938 2094 
Q 2938 2591 2744 2837 
Q 2550 3084 2163 3084 
Q 1697 3084 1428 2787 
Q 1159 2491 1159 1978 
L 1159 0 
L 581 0 
L 581 4863 
L 1159 4863 
L 1159 2956 
Q 1366 3272 1645 3428 
Q 1925 3584 2291 3584 
Q 2894 3584 3203 3211 
Q 3513 2838 3513 2113 
z
" transform="scale(0.015625)"/>
       <path id="DejaVuSans-6f" d="M 1959 3097 
Q 1497 3097 1228 2736 
Q 959 2375 959 1747 
Q 959 1119 1226 758 
Q 1494 397 1959 397 
Q 2419 397 2687 759 
Q 2956 1122 2956 1747 
Q 2956 2369 2687 2733 
Q 2419 3097 1959 3097 
z
M 1959 3584 
Q 2709 3584 3137 3096 
Q 3566 2609 3566 1747 
Q 3566 888 3137 398 
Q 2709 -91 1959 -91 
Q 1206 -91 779 398 
Q 353 888 353 1747 
Q 353 2609 779 3096 
Q 1206 3584 1959 3584 
z
" transform="scale(0.015625)"/>
       <path id="DejaVuSans-72" d="M 2631 2963 
Q 2534 3019 2420 3045 
Q 2306 3072 2169 3072 
Q 1681 3072 1420 2755 
Q 1159 2438 1159 1844 
L 1159 0 
L 581 0 
L 581 3500 
L 1159 3500 
L 1159 2956 
Q 1341 3275 1631 3429 
Q 1922 3584 2338 3584 
Q 2397 3584 2469 3576 
Q 2541 3569 2628 3553 
L 2631 2963 
z
" transform="scale(0.015625)"/>
       <path id="DejaVuSans-6d" d="M 3328 2828 
Q 3544 3216 3844 3400 
Q 4144 3584 4550 3584 
Q 5097 3584 5394 3201 
Q 5691 2819 5691 2113 
L 5691 0 
L 5113 0 
L 5113 2094 
Q 5113 2597 4934 2840 
Q 4756 3084 4391 3084 
Q 3944 3084 3684 2787 
Q 3425 2491 3425 1978 
L 3425 0 
L 2847 0 
L 2847 2094 
Q 2847 2600 2669 2842 
Q 2491 3084 2119 3084 
Q 1678 3084 1418 2786 
Q 1159 2488 1159 1978 
L 1159 0 
L 581 0 
L 581 3500 
L 1159 3500 
L 1159 2956 
Q 1356 3278 1631 3431 
Q 1906 3584 2284 3584 
Q 2666 3584 2933 3390 
Q 3200 3197 3328 2828 
z
" transform="scale(0.015625)"/>
       <path id="DejaVuSans-61" d="M 2194 1759 
Q 1497 1759 1228 1600 
Q 959 1441 959 1056 
Q 959 750 1161 570 
Q 1363 391 1709 391 
Q 2188 391 2477 730 
Q 2766 1069 2766 1631 
L 2766 1759 
L 2194 1759 
z
M 3341 1997 
L 3341 0 
L 2766 0 
L 2766 531 
Q 2569 213 2275 61 
Q 1981 -91 1556 -91 
Q 1019 -91 701 211 
Q 384 513 384 1019 
Q 384 1609 779 1909 
Q 1175 2209 1959 2209 
L 2766 2209 
L 2766 2266 
Q 2766 2663 2505 2880 
Q 2244 3097 1772 3097 
Q 1472 3097 1187 3025 
Q 903 2953 641 2809 
L 641 3341 
Q 956 3463 1253 3523 
Q 1550 3584 1831 3584 
Q 2591 3584 2966 3190 
Q 3341 2797 3341 1997 
z
" transform="scale(0.015625)"/>
       <path id="DejaVuSans-28" d="M 1984 4856 
Q 1566 4138 1362 3434 
Q 1159 2731 1159 2009 
Q 1159 1288 1364 580 
Q 1569 -128 1984 -844 
L 1484 -844 
Q 1016 -109 783 600 
Q 550 1309 550 2009 
Q 550 2706 781 3412 
Q 1013 4119 1484 4856 
L 1984 4856 
z
" transform="scale(0.015625)"/>
       <path id="DejaVuSans-64" d="M 2906 2969 
L 2906 4863 
L 3481 4863 
L 3481 0 
L 2906 0 
L 2906 525 
Q 2725 213 2448 61 
Q 2172 -91 1784 -91 
Q 1150 -91 751 415 
Q 353 922 353 1747 
Q 353 2572 751 3078 
Q 1150 3584 1784 3584 
Q 2172 3584 2448 3432 
Q 2725 3281 2906 2969 
z
M 947 1747 
Q 947 1113 1208 752 
Q 1469 391 1925 391 
Q 2381 391 2643 752 
Q 2906 1113 2906 1747 
Q 2906 2381 2643 2742 
Q 2381 3103 1925 3103 
Q 1469 3103 1208 2742 
Q 947 2381 947 1747 
z
" transform="scale(0.015625)"/>
       <path id="DejaVuSans-29" d="M 513 4856 
L 1013 4856 
Q 1481 4119 1714 3412 
Q 1947 2706 1947 2009 
Q 1947 1309 1714 600 
Q 1481 -109 1013 -844 
L 513 -844 
Q 928 -128 1133 580 
Q 1338 1288 1338 2009 
Q 1338 2731 1133 3434 
Q 928 4138 513 4856 
z
" transform="scale(0.015625)"/>
      </defs>
      <use xlink:href="#DejaVuSans-41"/>
      <use xlink:href="#DejaVuSans-6e" x="68.408203"/>
      <use xlink:href="#DejaVuSans-67" x="131.787109"/>
      <use xlink:href="#DejaVuSans-6c" x="195.263672"/>
      <use xlink:href="#DejaVuSans-65" x="223.046875"/>
      <use xlink:href="#DejaVuSans-20" x="284.570312"/>
      <use xlink:href="#DejaVuSans-77" x="316.357422"/>
      <use xlink:href="#DejaVuSans-69" x="398.144531"/>
      <use xlink:href="#DejaVuSans-74" x="425.927734"/>
      <use xlink:href="#DejaVuSans-68" x="465.136719"/>
      <use xlink:href="#DejaVuSans-20" x="528.515625"/>
      <use xlink:href="#DejaVuSans-6e" x="560.302734"/>
      <use xlink:href="#DejaVuSans-6f" x="623.681641"/>
      <use xlink:href="#DejaVuSans-72" x="684.863281"/>
      <use xlink:href="#DejaVuSans-6d" x="724.226562"/>
      <use xlink:href="#DejaVuSans-61" x="821.638672"/>
      <use xlink:href="#DejaVuSans-6c" x="882.917969"/>
      <use xlink:href="#DejaVuSans-20" x="910.701172"/>
      <use xlink:href="#DejaVuSans-28" x="942.488281"/>
      <use xlink:href="#DejaVuSans-72" x="981.501953"/>
      <use xlink:href="#DejaVuSans-61" x="1022.615234"/>
      <use xlink:href="#DejaVuSans-64" x="1083.894531"/>
      <use xlink:href="#DejaVuSans-29" x="1147.371094"/>
     </g>
    </g>
   </g>
   <g id="matplotlib.axis_2">
    <g id="ytick_1">
     <g id="line2d_10">
      <defs>
       <path id="m2eac26357d" d="M 0 0 
L -3.5 0 
" style="stroke: #000000; stroke-width: 0.8"/>
      </defs>
      <g>
       <use xlink:href="#m2eac26357d" x="43.78125" y="273.312" style="stroke: #000000; stroke-width: 0.8"/>
      </g>
     </g>
     <g id="text_11">
      <!-- 0.0 -->
      <g transform="translate(20.878125 277.111219)scale(0.1 -0.1)">
       <use xlink:href="#DejaVuSans-30"/>
       <use xlink:href="#DejaVuSans-2e" x="63.623047"/>
       <use xlink:href="#DejaVuSans-30" x="95.410156"/>
      </g>
     </g>
    </g>
    <g id="ytick_2">
     <g id="line2d_11">
      <g>
       <use xlink:href="#m2eac26357d" x="43.78125" y="228.716419" style="stroke: #000000; stroke-width: 0.8"/>
      </g>
     </g>
     <g id="text_12">
      <!-- 0.2 -->
      <g transform="translate(20.878125 232.515638)scale(0.1 -0.1)">
       <use xlink:href="#DejaVuSans-30"/>
       <use xlink:href="#DejaVuSans-2e" x="63.623047"/>
       <use xlink:href="#DejaVuSans-32" x="95.410156"/>
      </g>
     </g>
    </g>
    <g id="ytick_3">
     <g id="line2d_12">
      <g>
       <use xlink:href="#m2eac26357d" x="43.78125" y="184.120838" style="stroke: #000000; stroke-width: 0.8"/>
      </g>
     </g>
     <g id="text_13">
      <!-- 0.4 -->
      <g transform="translate(20.878125 187.920057)scale(0.1 -0.1)">
       <use xlink:href="#DejaVuSans-30"/>
       <use xlink:href="#DejaVuSans-2e" x="63.623047"/>
       <use xlink:href="#DejaVuSans-34" x="95.410156"/>
      </g>
     </g>
    </g>
    <g id="ytick_4">
     <g id="line2d_13">
      <g>
       <use xlink:href="#m2eac26357d" x="43.78125" y="139.525257" style="stroke: #000000; stroke-width: 0.8"/>
      </g>
     </g>
     <g id="text_14">
      <!-- 0.6 -->
      <g transform="translate(20.878125 143.324475)scale(0.1 -0.1)">
       <use xlink:href="#DejaVuSans-30"/>
       <use xlink:href="#DejaVuSans-2e" x="63.623047"/>
       <use xlink:href="#DejaVuSans-36" x="95.410156"/>
      </g>
     </g>
    </g>
    <g id="ytick_5">
     <g id="line2d_14">
      <g>
       <use xlink:href="#m2eac26357d" x="43.78125" y="94.929676" style="stroke: #000000; stroke-width: 0.8"/>
      </g>
     </g>
     <g id="text_15">
      <!-- 0.8 -->
      <g transform="translate(20.878125 98.728894)scale(0.1 -0.1)">
       <use xlink:href="#DejaVuSans-30"/>
       <use xlink:href="#DejaVuSans-2e" x="63.623047"/>
       <use xlink:href="#DejaVuSans-38" x="95.410156"/>
      </g>
     </g>
    </g>
    <g id="ytick_6">
     <g id="line2d_15">
      <g>
       <use xlink:href="#m2eac26357d" x="43.78125" y="50.334095" style="stroke: #000000; stroke-width: 0.8"/>
      </g>
     </g>
     <g id="text_16">
      <!-- 1.0 -->
      <g transform="translate(20.878125 54.133313)scale(0.1 -0.1)">
       <use xlink:href="#DejaVuSans-31"/>
       <use xlink:href="#DejaVuSans-2e" x="63.623047"/>
       <use xlink:href="#DejaVuSans-30" x="95.410156"/>
      </g>
     </g>
    </g>
    <g id="text_17">
     <!-- Probability density -->
     <g transform="translate(14.798438 186.606781)rotate(-90)scale(0.1 -0.1)">
      <defs>
       <path id="DejaVuSans-50" d="M 1259 4147 
L 1259 2394 
L 2053 2394 
Q 2494 2394 2734 2622 
Q 2975 2850 2975 3272 
Q 2975 3691 2734 3919 
Q 2494 4147 2053 4147 
L 1259 4147 
z
M 628 4666 
L 2053 4666 
Q 2838 4666 3239 4311 
Q 3641 3956 3641 3272 
Q 3641 2581 3239 2228 
Q 2838 1875 2053 1875 
L 1259 1875 
L 1259 0 
L 628 0 
L 628 4666 
z
" transform="scale(0.015625)"/>
       <path id="DejaVuSans-62" d="M 3116 1747 
Q 3116 2381 2855 2742 
Q 2594 3103 2138 3103 
Q 1681 3103 1420 2742 
Q 1159 2381 1159 1747 
Q 1159 1113 1420 752 
Q 1681 391 2138 391 
Q 2594 391 2855 752 
Q 3116 1113 3116 1747 
z
M 1159 2969 
Q 1341 3281 1617 3432 
Q 1894 3584 2278 3584 
Q 2916 3584 3314 3078 
Q 3713 2572 3713 1747 
Q 3713 922 3314 415 
Q 2916 -91 2278 -91 
Q 1894 -91 1617 61 
Q 1341 213 1159 525 
L 1159 0 
L 581 0 
L 581 4863 
L 1159 4863 
L 1159 2969 
z
" transform="scale(0.015625)"/>
       <path id="DejaVuSans-79" d="M 2059 -325 
Q 1816 -950 1584 -1140 
Q 1353 -1331 966 -1331 
L 506 -1331 
L 506 -850 
L 844 -850 
Q 1081 -850 1212 -737 
Q 1344 -625 1503 -206 
L 1606 56 
L 191 3500 
L 800 3500 
L 1894 763 
L 2988 3500 
L 3597 3500 
L 2059 -325 
z
" transform="scale(0.015625)"/>
       <path id="DejaVuSans-73" d="M 2834 3397 
L 2834 2853 
Q 2591 2978 2328 3040 
Q 2066 3103 1784 3103 
Q 1356 3103 1142 2972 
Q 928 2841 928 2578 
Q 928 2378 1081 2264 
Q 1234 2150 1697 2047 
L 1894 2003 
Q 2506 1872 2764 1633 
Q 3022 1394 3022 966 
Q 3022 478 2636 193 
Q 2250 -91 1575 -91 
Q 1294 -91 989 -36 
Q 684 19 347 128 
L 347 722 
Q 666 556 975 473 
Q 1284 391 1588 391 
Q 1994 391 2212 530 
Q 2431 669 2431 922 
Q 2431 1156 2273 1281 
Q 2116 1406 1581 1522 
L 1381 1569 
Q 847 1681 609 1914 
Q 372 2147 372 2553 
Q 372 3047 722 3315 
Q 1072 3584 1716 3584 
Q 2034 3584 2315 3537 
Q 2597 3491 2834 3397 
z
" transform="scale(0.015625)"/>
      </defs>
      <use xlink:href="#DejaVuSans-50"/>
      <use xlink:href="#DejaVuSans-72" x="58.552734"/>
      <use xlink:href="#DejaVuSans-6f" x="97.416016"/>
      <use xlink:href="#DejaVuSans-62" x="158.597656"/>
      <use xlink:href="#DejaVuSans-61" x="222.074219"/>
      <use xlink:href="#DejaVuSans-62" x="283.353516"/>
      <use xlink:href="#DejaVuSans-69" x="346.830078"/>
      <use xlink:href="#DejaVuSans-6c" x="374.613281"/>
      <use xlink:href="#DejaVuSans-69" x="402.396484"/>
      <use xlink:href="#DejaVuSans-74" x="430.179688"/>
      <use xlink:href="#DejaVuSans-79" x="469.388672"/>
      <use xlink:href="#DejaVuSans-20" x="528.568359"/>
      <use xlink:href="#DejaVuSans-64" x="560.355469"/>
      <use xlink:href="#DejaVuSans-65" x="623.832031"/>
      <use xlink:href="#DejaVuSans-6e" x="685.355469"/>
      <use xlink:href="#DejaVuSans-73" x="748.734375"/>
      <use xlink:href="#DejaVuSans-69" x="800.833984"/>
      <use xlink:href="#DejaVuSans-74" x="828.617188"/>
      <use xlink:href="#DejaVuSans-79" x="867.826172"/>
     </g>
    </g>
   </g>
   <g id="line2d_16">
    <path d="M 60.013977 273.312 
L 79.837728 230.800227 
L 90.237073 209.025421 
L 99.01152 191.150128 
L 106.811029 175.754036 
L 113.960578 162.126817 
L 120.460169 150.198396 
L 126.63478 139.316631 
L 132.484411 129.448119 
L 138.009063 120.550486 
L 143.208736 112.574537 
L 148.408408 105.005439 
L 153.283101 98.295964 
L 158.157794 91.975846 
L 162.707507 86.440773 
L 167.257221 81.267858 
L 171.481954 76.797489 
L 175.706688 72.65551 
L 179.606442 69.129609 
L 183.506197 65.894445 
L 187.405951 62.954622 
L 190.980726 60.522817 
L 194.555501 58.345613 
L 198.130275 56.425616 
L 201.70505 54.765122 
L 205.279825 53.366118 
L 208.52962 52.322623 
L 211.779415 51.497656 
L 215.029211 50.892031 
L 218.279006 50.506347 
L 221.528801 50.340986 
L 224.778596 50.39611 
L 228.028392 50.671667 
L 231.278187 51.167383 
L 234.527982 51.882768 
L 237.777777 52.817114 
L 241.027573 53.969498 
L 244.602347 55.487588 
L 248.177122 57.266303 
L 251.751897 59.303516 
L 255.326672 61.596789 
L 258.901447 64.143378 
L 262.801201 67.206793 
L 266.700955 70.563681 
L 270.600709 74.209262 
L 274.825443 78.478395 
L 279.050177 83.073108 
L 283.274911 87.985724 
L 287.824624 93.62233 
L 292.374338 99.607176 
L 297.249031 106.392758 
L 302.123723 113.549686 
L 307.323396 121.575091 
L 312.848048 130.522429 
L 318.697679 140.44022 
L 324.87229 151.370094 
L 331.371881 163.344635 
L 338.196451 176.385047 
L 345.67098 191.150128 
L 354.120447 208.354308 
L 363.869833 228.737115 
L 376.544035 255.799879 
L 384.668523 273.312 
L 384.668523 273.312 
" clip-path="url(#p6453ceeb49)" style="fill: none; stroke: #ff7f0e; stroke-width: 1.5; stroke-linecap: square"/>
   </g>
   <g id="patch_203">
    <path d="M 43.78125 273.312 
L 43.78125 7.2 
" style="fill: none; stroke: #000000; stroke-width: 0.8; stroke-linejoin: miter; stroke-linecap: square"/>
   </g>
   <g id="patch_204">
    <path d="M 400.90125 273.312 
L 400.90125 7.2 
" style="fill: none; stroke: #000000; stroke-width: 0.8; stroke-linejoin: miter; stroke-linecap: square"/>
   </g>
   <g id="patch_205">
    <path d="M 43.78125 273.312 
L 400.90125 273.312 
" style="fill: none; stroke: #000000; stroke-width: 0.8; stroke-linejoin: miter; stroke-linecap: square"/>
   </g>
   <g id="patch_206">
    <path d="M 43.78125 7.2 
L 400.90125 7.2 
" style="fill: none; stroke: #000000; stroke-width: 0.8; stroke-linejoin: miter; stroke-linecap: square"/>
   </g>
  </g>
 </g>
 <defs>
  <clipPath id="p6453ceeb49">
   <rect x="43.78125" y="7.2" width="357.12" height="266.112"/>
  </clipPath>
 </defs>
</svg>
