<?xml version="1.0" encoding="utf-8" standalone="no"?>
<!DOCTYPE svg PUBLIC "-//W3C//DTD SVG 1.1//EN"
  "http://www.w3.org/Graphics/SVG/1.1/DTD/svg11.dtd">
<svg xmlns:xlink="http://www.w3.org/1999/xlink" width="408.10125pt" height="310.86825pt" viewBox="0 0 408.10125 310.86825" xmlns="http://www.w3.org/2000/svg" version="1.1">
 <metadata>
  <rdf:RDF xmlns:dc="http://purl.org/dc/elements/1.1/" xmlns:cc="http://creativecommons.org/ns#" xmlns:rdf="http://www.w3.org/1999/02/22-rdf-syntax-ns#">
   <cc:Work>
    <dc:type rdf:resource="http://purl.org/dc/dcmitype/StillImage"/>
    <dc:date>2021-12-01T07:14:58.834784</dc:date>
    <dc:format>image/svg+xml</dc:format>
    <dc:creator>
     <cc:Agent>
      <dc:title>Matplotlib v3.5.0, https://matplotlib.org/</dc:title>
     </cc:Agent>
    </dc:creator>
   </cc:Work>
  </rdf:RDF>
 </metadata>
 <defs>
  <style type="text/css">*{stroke-linejoin: round; stroke-linecap: butt}</style>
 </defs>
 <g id="figure_1">
  <g id="patch_1">
   <path d="M 0 310.86825 
L 408.10125 310.86825 
L 408.10125 0 
L 0 0 
z
" style="fill: #ffffff"/>
  </g>
  <g id="axes_1">
   <g id="patch_2">
    <path d="M 43.78125 273.312 
L 400.90125 273.312 
L 400.90125 7.2 
L 43.78125 7.2 
z
" style="fill: #ffffff"/>
   </g>
   <g id="patch_3">
    <path d="M 60.982194 273.312 
L 62.600619 273.312 
L 62.600619 270.445032 
L 60.982194 270.445032 
z
" clip-path="url(#p7ad082d472)" style="fill: #1f77b4"/>
   </g>
   <g id="patch_4">
    <path d="M 62.600619 273.312 
L 64.219044 273.312 
L 64.219044 272.165213 
L 62.600619 272.165213 
z
" clip-path="url(#p7ad082d472)" style="fill: #1f77b4"/>
   </g>
   <g id="patch_5">
    <path d="M 64.219044 273.312 
L 65.837469 273.312 
L 65.837469 268.724851 
L 64.219044 268.724851 
z
" clip-path="url(#p7ad082d472)" style="fill: #1f77b4"/>
   </g>
   <g id="patch_6">
    <path d="M 65.837469 273.312 
L 67.455894 273.312 
L 67.455894 267.00467 
L 65.837469 267.00467 
z
" clip-path="url(#p7ad082d472)" style="fill: #1f77b4"/>
   </g>
   <g id="patch_7">
    <path d="M 67.455894 273.312 
L 69.074319 273.312 
L 69.074319 269.871638 
L 67.455894 269.871638 
z
" clip-path="url(#p7ad082d472)" style="fill: #1f77b4"/>
   </g>
   <g id="patch_8">
    <path d="M 69.074319 273.312 
L 70.692744 273.312 
L 70.692744 265.284489 
L 69.074319 265.284489 
z
" clip-path="url(#p7ad082d472)" style="fill: #1f77b4"/>
   </g>
   <g id="patch_9">
    <path d="M 70.692744 273.312 
L 72.311169 273.312 
L 72.311169 268.151457 
L 70.692744 268.151457 
z
" clip-path="url(#p7ad082d472)" style="fill: #1f77b4"/>
   </g>
   <g id="patch_10">
    <path d="M 72.311169 273.312 
L 73.929594 273.312 
L 73.929594 260.123946 
L 72.311169 260.123946 
z
" clip-path="url(#p7ad082d472)" style="fill: #1f77b4"/>
   </g>
   <g id="patch_11">
    <path d="M 73.929594 273.312 
L 75.548019 273.312 
L 75.548019 265.857882 
L 73.929594 265.857882 
z
" clip-path="url(#p7ad082d472)" style="fill: #1f77b4"/>
   </g>
   <g id="patch_12">
    <path d="M 75.548019 273.312 
L 77.166444 273.312 
L 77.166444 261.844127 
L 75.548019 261.844127 
z
" clip-path="url(#p7ad082d472)" style="fill: #1f77b4"/>
   </g>
   <g id="patch_13">
    <path d="M 77.166444 273.312 
L 78.784869 273.312 
L 78.784869 257.830371 
L 77.166444 257.830371 
z
" clip-path="url(#p7ad082d472)" style="fill: #1f77b4"/>
   </g>
   <g id="patch_14">
    <path d="M 78.784869 273.312 
L 80.403295 273.312 
L 80.403295 264.137701 
L 78.784869 264.137701 
z
" clip-path="url(#p7ad082d472)" style="fill: #1f77b4"/>
   </g>
   <g id="patch_15">
    <path d="M 80.403295 273.312 
L 82.02172 273.312 
L 82.02172 254.963403 
L 80.403295 254.963403 
z
" clip-path="url(#p7ad082d472)" style="fill: #1f77b4"/>
   </g>
   <g id="patch_16">
    <path d="M 82.02172 273.312 
L 83.640145 273.312 
L 83.640145 253.816615 
L 82.02172 253.816615 
z
" clip-path="url(#p7ad082d472)" style="fill: #1f77b4"/>
   </g>
   <g id="patch_17">
    <path d="M 83.640145 273.312 
L 85.25857 273.312 
L 85.25857 255.536796 
L 83.640145 255.536796 
z
" clip-path="url(#p7ad082d472)" style="fill: #1f77b4"/>
   </g>
   <g id="patch_18">
    <path d="M 85.25857 273.312 
L 86.876995 273.312 
L 86.876995 253.816615 
L 85.25857 253.816615 
z
" clip-path="url(#p7ad082d472)" style="fill: #1f77b4"/>
   </g>
   <g id="patch_19">
    <path d="M 86.876995 273.312 
L 88.49542 273.312 
L 88.49542 255.536796 
L 86.876995 255.536796 
z
" clip-path="url(#p7ad082d472)" style="fill: #1f77b4"/>
   </g>
   <g id="patch_20">
    <path d="M 88.49542 273.312 
L 90.113845 273.312 
L 90.113845 250.949647 
L 88.49542 250.949647 
z
" clip-path="url(#p7ad082d472)" style="fill: #1f77b4"/>
   </g>
   <g id="patch_21">
    <path d="M 90.113845 273.312 
L 91.73227 273.312 
L 91.73227 244.068923 
L 90.113845 244.068923 
z
" clip-path="url(#p7ad082d472)" style="fill: #1f77b4"/>
   </g>
   <g id="patch_22">
    <path d="M 91.73227 273.312 
L 93.350695 273.312 
L 93.350695 249.80286 
L 91.73227 249.80286 
z
" clip-path="url(#p7ad082d472)" style="fill: #1f77b4"/>
   </g>
   <g id="patch_23">
    <path d="M 93.350695 273.312 
L 94.96912 273.312 
L 94.96912 253.243222 
L 93.350695 253.243222 
z
" clip-path="url(#p7ad082d472)" style="fill: #1f77b4"/>
   </g>
   <g id="patch_24">
    <path d="M 94.96912 273.312 
L 96.587545 273.312 
L 96.587545 249.229466 
L 94.96912 249.229466 
z
" clip-path="url(#p7ad082d472)" style="fill: #1f77b4"/>
   </g>
   <g id="patch_25">
    <path d="M 96.587545 273.312 
L 98.20597 273.312 
L 98.20597 256.11019 
L 96.587545 256.11019 
z
" clip-path="url(#p7ad082d472)" style="fill: #1f77b4"/>
   </g>
   <g id="patch_26">
    <path d="M 98.20597 273.312 
L 99.824395 273.312 
L 99.824395 250.376253 
L 98.20597 250.376253 
z
" clip-path="url(#p7ad082d472)" style="fill: #1f77b4"/>
   </g>
   <g id="patch_27">
    <path d="M 99.824395 273.312 
L 101.442821 273.312 
L 101.442821 245.789104 
L 99.824395 245.789104 
z
" clip-path="url(#p7ad082d472)" style="fill: #1f77b4"/>
   </g>
   <g id="patch_28">
    <path d="M 101.442821 273.312 
L 103.061246 273.312 
L 103.061246 245.21571 
L 101.442821 245.21571 
z
" clip-path="url(#p7ad082d472)" style="fill: #1f77b4"/>
   </g>
   <g id="patch_29">
    <path d="M 103.061246 273.312 
L 104.679671 273.312 
L 104.679671 240.055167 
L 103.061246 240.055167 
z
" clip-path="url(#p7ad082d472)" style="fill: #1f77b4"/>
   </g>
   <g id="patch_30">
    <path d="M 104.679671 273.312 
L 106.298096 273.312 
L 106.298096 236.041412 
L 104.679671 236.041412 
z
" clip-path="url(#p7ad082d472)" style="fill: #1f77b4"/>
   </g>
   <g id="patch_31">
    <path d="M 106.298096 273.312 
L 107.916521 273.312 
L 107.916521 240.628561 
L 106.298096 240.628561 
z
" clip-path="url(#p7ad082d472)" style="fill: #1f77b4"/>
   </g>
   <g id="patch_32">
    <path d="M 107.916521 273.312 
L 109.534946 273.312 
L 109.534946 237.761593 
L 107.916521 237.761593 
z
" clip-path="url(#p7ad082d472)" style="fill: #1f77b4"/>
   </g>
   <g id="patch_33">
    <path d="M 109.534946 273.312 
L 111.153371 273.312 
L 111.153371 242.922136 
L 109.534946 242.922136 
z
" clip-path="url(#p7ad082d472)" style="fill: #1f77b4"/>
   </g>
   <g id="patch_34">
    <path d="M 111.153371 273.312 
L 112.771796 273.312 
L 112.771796 245.789104 
L 111.153371 245.789104 
z
" clip-path="url(#p7ad082d472)" style="fill: #1f77b4"/>
   </g>
   <g id="patch_35">
    <path d="M 112.771796 273.312 
L 114.390221 273.312 
L 114.390221 238.334986 
L 112.771796 238.334986 
z
" clip-path="url(#p7ad082d472)" style="fill: #1f77b4"/>
   </g>
   <g id="patch_36">
    <path d="M 114.390221 273.312 
L 116.008646 273.312 
L 116.008646 232.027656 
L 114.390221 232.027656 
z
" clip-path="url(#p7ad082d472)" style="fill: #1f77b4"/>
   </g>
   <g id="patch_37">
    <path d="M 116.008646 273.312 
L 117.627071 273.312 
L 117.627071 236.041412 
L 116.008646 236.041412 
z
" clip-path="url(#p7ad082d472)" style="fill: #1f77b4"/>
   </g>
   <g id="patch_38">
    <path d="M 117.627071 273.312 
L 119.245496 273.312 
L 119.245496 232.60105 
L 117.627071 232.60105 
z
" clip-path="url(#p7ad082d472)" style="fill: #1f77b4"/>
   </g>
   <g id="patch_39">
    <path d="M 119.245496 273.312 
L 120.863921 273.312 
L 120.863921 238.90838 
L 119.245496 238.90838 
z
" clip-path="url(#p7ad082d472)" style="fill: #1f77b4"/>
   </g>
   <g id="patch_40">
    <path d="M 120.863921 273.312 
L 122.482347 273.312 
L 122.482347 228.587294 
L 120.863921 228.587294 
z
" clip-path="url(#p7ad082d472)" style="fill: #1f77b4"/>
   </g>
   <g id="patch_41">
    <path d="M 122.482347 273.312 
L 124.100772 273.312 
L 124.100772 230.880869 
L 122.482347 230.880869 
z
" clip-path="url(#p7ad082d472)" style="fill: #1f77b4"/>
   </g>
   <g id="patch_42">
    <path d="M 124.100772 273.312 
L 125.719197 273.312 
L 125.719197 239.481774 
L 124.100772 239.481774 
z
" clip-path="url(#p7ad082d472)" style="fill: #1f77b4"/>
   </g>
   <g id="patch_43">
    <path d="M 125.719197 273.312 
L 127.337622 273.312 
L 127.337622 219.986389 
L 125.719197 219.986389 
z
" clip-path="url(#p7ad082d472)" style="fill: #1f77b4"/>
   </g>
   <g id="patch_44">
    <path d="M 127.337622 273.312 
L 128.956047 273.312 
L 128.956047 222.279964 
L 127.337622 222.279964 
z
" clip-path="url(#p7ad082d472)" style="fill: #1f77b4"/>
   </g>
   <g id="patch_45">
    <path d="M 128.956047 273.312 
L 130.574472 273.312 
L 130.574472 233.747837 
L 128.956047 233.747837 
z
" clip-path="url(#p7ad082d472)" style="fill: #1f77b4"/>
   </g>
   <g id="patch_46">
    <path d="M 130.574472 273.312 
L 132.192897 273.312 
L 132.192897 222.279964 
L 130.574472 222.279964 
z
" clip-path="url(#p7ad082d472)" style="fill: #1f77b4"/>
   </g>
   <g id="patch_47">
    <path d="M 132.192897 273.312 
L 133.811322 273.312 
L 133.811322 225.146932 
L 132.192897 225.146932 
z
" clip-path="url(#p7ad082d472)" style="fill: #1f77b4"/>
   </g>
   <g id="patch_48">
    <path d="M 133.811322 273.312 
L 135.429747 273.312 
L 135.429747 219.986389 
L 133.811322 219.986389 
z
" clip-path="url(#p7ad082d472)" style="fill: #1f77b4"/>
   </g>
   <g id="patch_49">
    <path d="M 135.429747 273.312 
L 137.048172 273.312 
L 137.048172 215.972633 
L 135.429747 215.972633 
z
" clip-path="url(#p7ad082d472)" style="fill: #1f77b4"/>
   </g>
   <g id="patch_50">
    <path d="M 137.048172 273.312 
L 138.666597 273.312 
L 138.666597 210.81209 
L 137.048172 210.81209 
z
" clip-path="url(#p7ad082d472)" style="fill: #1f77b4"/>
   </g>
   <g id="patch_51">
    <path d="M 138.666597 273.312 
L 140.285022 273.312 
L 140.285022 211.958878 
L 138.666597 211.958878 
z
" clip-path="url(#p7ad082d472)" style="fill: #1f77b4"/>
   </g>
   <g id="patch_52">
    <path d="M 140.285022 273.312 
L 141.903447 273.312 
L 141.903447 217.692814 
L 140.285022 217.692814 
z
" clip-path="url(#p7ad082d472)" style="fill: #1f77b4"/>
   </g>
   <g id="patch_53">
    <path d="M 141.903447 273.312 
L 143.521873 273.312 
L 143.521873 217.692814 
L 141.903447 217.692814 
z
" clip-path="url(#p7ad082d472)" style="fill: #1f77b4"/>
   </g>
   <g id="patch_54">
    <path d="M 143.521873 273.312 
L 145.140298 273.312 
L 145.140298 221.70657 
L 143.521873 221.70657 
z
" clip-path="url(#p7ad082d472)" style="fill: #1f77b4"/>
   </g>
   <g id="patch_55">
    <path d="M 145.140298 273.312 
L 146.758723 273.312 
L 146.758723 205.078154 
L 145.140298 205.078154 
z
" clip-path="url(#p7ad082d472)" style="fill: #1f77b4"/>
   </g>
   <g id="patch_56">
    <path d="M 146.758723 273.312 
L 148.377148 273.312 
L 148.377148 217.692814 
L 146.758723 217.692814 
z
" clip-path="url(#p7ad082d472)" style="fill: #1f77b4"/>
   </g>
   <g id="patch_57">
    <path d="M 148.377148 273.312 
L 149.995573 273.312 
L 149.995573 208.518516 
L 148.377148 208.518516 
z
" clip-path="url(#p7ad082d472)" style="fill: #1f77b4"/>
   </g>
   <g id="patch_58">
    <path d="M 149.995573 273.312 
L 151.613998 273.312 
L 151.613998 211.958878 
L 149.995573 211.958878 
z
" clip-path="url(#p7ad082d472)" style="fill: #1f77b4"/>
   </g>
   <g id="patch_59">
    <path d="M 151.613998 273.312 
L 153.232423 273.312 
L 153.232423 217.692814 
L 151.613998 217.692814 
z
" clip-path="url(#p7ad082d472)" style="fill: #1f77b4"/>
   </g>
   <g id="patch_60">
    <path d="M 153.232423 273.312 
L 154.850848 273.312 
L 154.850848 198.770824 
L 153.232423 198.770824 
z
" clip-path="url(#p7ad082d472)" style="fill: #1f77b4"/>
   </g>
   <g id="patch_61">
    <path d="M 154.850848 273.312 
L 156.469273 273.312 
L 156.469273 217.119421 
L 154.850848 217.119421 
z
" clip-path="url(#p7ad082d472)" style="fill: #1f77b4"/>
   </g>
   <g id="patch_62">
    <path d="M 156.469273 273.312 
L 158.087698 273.312 
L 158.087698 199.917611 
L 156.469273 199.917611 
z
" clip-path="url(#p7ad082d472)" style="fill: #1f77b4"/>
   </g>
   <g id="patch_63">
    <path d="M 158.087698 273.312 
L 159.706123 273.312 
L 159.706123 209.09191 
L 158.087698 209.09191 
z
" clip-path="url(#p7ad082d472)" style="fill: #1f77b4"/>
   </g>
   <g id="patch_64">
    <path d="M 159.706123 273.312 
L 161.324548 273.312 
L 161.324548 199.917611 
L 159.706123 199.917611 
z
" clip-path="url(#p7ad082d472)" style="fill: #1f77b4"/>
   </g>
   <g id="patch_65">
    <path d="M 161.324548 273.312 
L 162.942973 273.312 
L 162.942973 211.385484 
L 161.324548 211.385484 
z
" clip-path="url(#p7ad082d472)" style="fill: #1f77b4"/>
   </g>
   <g id="patch_66">
    <path d="M 162.942973 273.312 
L 164.561399 273.312 
L 164.561399 204.50476 
L 162.942973 204.50476 
z
" clip-path="url(#p7ad082d472)" style="fill: #1f77b4"/>
   </g>
   <g id="patch_67">
    <path d="M 164.561399 273.312 
L 166.179824 273.312 
L 166.179824 194.183674 
L 164.561399 194.183674 
z
" clip-path="url(#p7ad082d472)" style="fill: #1f77b4"/>
   </g>
   <g id="patch_68">
    <path d="M 166.179824 273.312 
L 167.798249 273.312 
L 167.798249 189.023131 
L 166.179824 189.023131 
z
" clip-path="url(#p7ad082d472)" style="fill: #1f77b4"/>
   </g>
   <g id="patch_69">
    <path d="M 167.798249 273.312 
L 169.416674 273.312 
L 169.416674 190.169919 
L 167.798249 190.169919 
z
" clip-path="url(#p7ad082d472)" style="fill: #1f77b4"/>
   </g>
   <g id="patch_70">
    <path d="M 169.416674 273.312 
L 171.035099 273.312 
L 171.035099 197.050643 
L 169.416674 197.050643 
z
" clip-path="url(#p7ad082d472)" style="fill: #1f77b4"/>
   </g>
   <g id="patch_71">
    <path d="M 171.035099 273.312 
L 172.653524 273.312 
L 172.653524 191.8901 
L 171.035099 191.8901 
z
" clip-path="url(#p7ad082d472)" style="fill: #1f77b4"/>
   </g>
   <g id="patch_72">
    <path d="M 172.653524 273.312 
L 174.271949 273.312 
L 174.271949 190.169919 
L 172.653524 190.169919 
z
" clip-path="url(#p7ad082d472)" style="fill: #1f77b4"/>
   </g>
   <g id="patch_73">
    <path d="M 174.271949 273.312 
L 175.890374 273.312 
L 175.890374 185.582769 
L 174.271949 185.582769 
z
" clip-path="url(#p7ad082d472)" style="fill: #1f77b4"/>
   </g>
   <g id="patch_74">
    <path d="M 175.890374 273.312 
L 177.508799 273.312 
L 177.508799 191.316706 
L 175.890374 191.316706 
z
" clip-path="url(#p7ad082d472)" style="fill: #1f77b4"/>
   </g>
   <g id="patch_75">
    <path d="M 177.508799 273.312 
L 179.127224 273.312 
L 179.127224 192.463493 
L 177.508799 192.463493 
z
" clip-path="url(#p7ad082d472)" style="fill: #1f77b4"/>
   </g>
   <g id="patch_76">
    <path d="M 179.127224 273.312 
L 180.745649 273.312 
L 180.745649 185.582769 
L 179.127224 185.582769 
z
" clip-path="url(#p7ad082d472)" style="fill: #1f77b4"/>
   </g>
   <g id="patch_77">
    <path d="M 180.745649 273.312 
L 182.364074 273.312 
L 182.364074 189.023131 
L 180.745649 189.023131 
z
" clip-path="url(#p7ad082d472)" style="fill: #1f77b4"/>
   </g>
   <g id="patch_78">
    <path d="M 182.364074 273.312 
L 183.982499 273.312 
L 183.982499 185.009376 
L 182.364074 185.009376 
z
" clip-path="url(#p7ad082d472)" style="fill: #1f77b4"/>
   </g>
   <g id="patch_79">
    <path d="M 183.982499 273.312 
L 185.600924 273.312 
L 185.600924 191.316706 
L 183.982499 191.316706 
z
" clip-path="url(#p7ad082d472)" style="fill: #1f77b4"/>
   </g>
   <g id="patch_80">
    <path d="M 185.600924 273.312 
L 187.21935 273.312 
L 187.21935 179.275439 
L 185.600924 179.275439 
z
" clip-path="url(#p7ad082d472)" style="fill: #1f77b4"/>
   </g>
   <g id="patch_81">
    <path d="M 187.21935 273.312 
L 188.837775 273.312 
L 188.837775 181.569014 
L 187.21935 181.569014 
z
" clip-path="url(#p7ad082d472)" style="fill: #1f77b4"/>
   </g>
   <g id="patch_82">
    <path d="M 188.837775 273.312 
L 190.4562 273.312 
L 190.4562 176.408471 
L 188.837775 176.408471 
z
" clip-path="url(#p7ad082d472)" style="fill: #1f77b4"/>
   </g>
   <g id="patch_83">
    <path d="M 190.4562 273.312 
L 192.074625 273.312 
L 192.074625 179.848833 
L 190.4562 179.848833 
z
" clip-path="url(#p7ad082d472)" style="fill: #1f77b4"/>
   </g>
   <g id="patch_84">
    <path d="M 192.074625 273.312 
L 193.69305 273.312 
L 193.69305 179.275439 
L 192.074625 179.275439 
z
" clip-path="url(#p7ad082d472)" style="fill: #1f77b4"/>
   </g>
   <g id="patch_85">
    <path d="M 193.69305 273.312 
L 195.311475 273.312 
L 195.311475 175.261683 
L 193.69305 175.261683 
z
" clip-path="url(#p7ad082d472)" style="fill: #1f77b4"/>
   </g>
   <g id="patch_86">
    <path d="M 195.311475 273.312 
L 196.9299 273.312 
L 196.9299 173.541502 
L 195.311475 173.541502 
z
" clip-path="url(#p7ad082d472)" style="fill: #1f77b4"/>
   </g>
   <g id="patch_87">
    <path d="M 196.9299 273.312 
L 198.548325 273.312 
L 198.548325 163.220416 
L 196.9299 163.220416 
z
" clip-path="url(#p7ad082d472)" style="fill: #1f77b4"/>
   </g>
   <g id="patch_88">
    <path d="M 198.548325 273.312 
L 200.16675 273.312 
L 200.16675 173.541502 
L 198.548325 173.541502 
z
" clip-path="url(#p7ad082d472)" style="fill: #1f77b4"/>
   </g>
   <g id="patch_89">
    <path d="M 200.16675 273.312 
L 201.785175 273.312 
L 201.785175 173.541502 
L 200.16675 173.541502 
z
" clip-path="url(#p7ad082d472)" style="fill: #1f77b4"/>
   </g>
   <g id="patch_90">
    <path d="M 201.785175 273.312 
L 203.4036 273.312 
L 203.4036 183.289195 
L 201.785175 183.289195 
z
" clip-path="url(#p7ad082d472)" style="fill: #1f77b4"/>
   </g>
   <g id="patch_91">
    <path d="M 203.4036 273.312 
L 205.022025 273.312 
L 205.022025 177.555258 
L 203.4036 177.555258 
z
" clip-path="url(#p7ad082d472)" style="fill: #1f77b4"/>
   </g>
   <g id="patch_92">
    <path d="M 205.022025 273.312 
L 206.64045 273.312 
L 206.64045 158.059873 
L 205.022025 158.059873 
z
" clip-path="url(#p7ad082d472)" style="fill: #1f77b4"/>
   </g>
   <g id="patch_93">
    <path d="M 206.64045 273.312 
L 208.258876 273.312 
L 208.258876 167.807566 
L 206.64045 167.807566 
z
" clip-path="url(#p7ad082d472)" style="fill: #1f77b4"/>
   </g>
   <g id="patch_94">
    <path d="M 208.258876 273.312 
L 209.877301 273.312 
L 209.877301 180.422226 
L 208.258876 180.422226 
z
" clip-path="url(#p7ad082d472)" style="fill: #1f77b4"/>
   </g>
   <g id="patch_95">
    <path d="M 209.877301 273.312 
L 211.495726 273.312 
L 211.495726 160.353448 
L 209.877301 160.353448 
z
" clip-path="url(#p7ad082d472)" style="fill: #1f77b4"/>
   </g>
   <g id="patch_96">
    <path d="M 211.495726 273.312 
L 213.114151 273.312 
L 213.114151 164.940597 
L 211.495726 164.940597 
z
" clip-path="url(#p7ad082d472)" style="fill: #1f77b4"/>
   </g>
   <g id="patch_97">
    <path d="M 213.114151 273.312 
L 214.732576 273.312 
L 214.732576 161.500235 
L 213.114151 161.500235 
z
" clip-path="url(#p7ad082d472)" style="fill: #1f77b4"/>
   </g>
   <g id="patch_98">
    <path d="M 214.732576 273.312 
L 216.351001 273.312 
L 216.351001 168.380959 
L 214.732576 168.380959 
z
" clip-path="url(#p7ad082d472)" style="fill: #1f77b4"/>
   </g>
   <g id="patch_99">
    <path d="M 216.351001 273.312 
L 217.969426 273.312 
L 217.969426 165.513991 
L 216.351001 165.513991 
z
" clip-path="url(#p7ad082d472)" style="fill: #1f77b4"/>
   </g>
   <g id="patch_100">
    <path d="M 217.969426 273.312 
L 219.587851 273.312 
L 219.587851 164.367204 
L 217.969426 164.367204 
z
" clip-path="url(#p7ad082d472)" style="fill: #1f77b4"/>
   </g>
   <g id="patch_101">
    <path d="M 219.587851 273.312 
L 221.206276 273.312 
L 221.206276 168.380959 
L 219.587851 168.380959 
z
" clip-path="url(#p7ad082d472)" style="fill: #1f77b4"/>
   </g>
   <g id="patch_102">
    <path d="M 221.206276 273.312 
L 222.824701 273.312 
L 222.824701 159.780054 
L 221.206276 159.780054 
z
" clip-path="url(#p7ad082d472)" style="fill: #1f77b4"/>
   </g>
   <g id="patch_103">
    <path d="M 222.824701 273.312 
L 224.443126 273.312 
L 224.443126 152.325937 
L 222.824701 152.325937 
z
" clip-path="url(#p7ad082d472)" style="fill: #1f77b4"/>
   </g>
   <g id="patch_104">
    <path d="M 224.443126 273.312 
L 226.061551 273.312 
L 226.061551 146.018606 
L 224.443126 146.018606 
z
" clip-path="url(#p7ad082d472)" style="fill: #1f77b4"/>
   </g>
   <g id="patch_105">
    <path d="M 226.061551 273.312 
L 227.679976 273.312 
L 227.679976 162.073629 
L 226.061551 162.073629 
z
" clip-path="url(#p7ad082d472)" style="fill: #1f77b4"/>
   </g>
   <g id="patch_106">
    <path d="M 227.679976 273.312 
L 229.298402 273.312 
L 229.298402 160.926842 
L 227.679976 160.926842 
z
" clip-path="url(#p7ad082d472)" style="fill: #1f77b4"/>
   </g>
   <g id="patch_107">
    <path d="M 229.298402 273.312 
L 230.916827 273.312 
L 230.916827 144.871819 
L 229.298402 144.871819 
z
" clip-path="url(#p7ad082d472)" style="fill: #1f77b4"/>
   </g>
   <g id="patch_108">
    <path d="M 230.916827 273.312 
L 232.535252 273.312 
L 232.535252 154.046118 
L 230.916827 154.046118 
z
" clip-path="url(#p7ad082d472)" style="fill: #1f77b4"/>
   </g>
   <g id="patch_109">
    <path d="M 232.535252 273.312 
L 234.153677 273.312 
L 234.153677 152.89933 
L 232.535252 152.89933 
z
" clip-path="url(#p7ad082d472)" style="fill: #1f77b4"/>
   </g>
   <g id="patch_110">
    <path d="M 234.153677 273.312 
L 235.772102 273.312 
L 235.772102 161.500235 
L 234.153677 161.500235 
z
" clip-path="url(#p7ad082d472)" style="fill: #1f77b4"/>
   </g>
   <g id="patch_111">
    <path d="M 235.772102 273.312 
L 237.390527 273.312 
L 237.390527 131.683765 
L 235.772102 131.683765 
z
" clip-path="url(#p7ad082d472)" style="fill: #1f77b4"/>
   </g>
   <g id="patch_112">
    <path d="M 237.390527 273.312 
L 239.008952 273.312 
L 239.008952 153.472724 
L 237.390527 153.472724 
z
" clip-path="url(#p7ad082d472)" style="fill: #1f77b4"/>
   </g>
   <g id="patch_113">
    <path d="M 239.008952 273.312 
L 240.627377 273.312 
L 240.627377 156.913086 
L 239.008952 156.913086 
z
" clip-path="url(#p7ad082d472)" style="fill: #1f77b4"/>
   </g>
   <g id="patch_114">
    <path d="M 240.627377 273.312 
L 242.245802 273.312 
L 242.245802 150.032362 
L 240.627377 150.032362 
z
" clip-path="url(#p7ad082d472)" style="fill: #1f77b4"/>
   </g>
   <g id="patch_115">
    <path d="M 242.245802 273.312 
L 243.864227 273.312 
L 243.864227 147.165394 
L 242.245802 147.165394 
z
" clip-path="url(#p7ad082d472)" style="fill: #1f77b4"/>
   </g>
   <g id="patch_116">
    <path d="M 243.864227 273.312 
L 245.482652 273.312 
L 245.482652 144.871819 
L 243.864227 144.871819 
z
" clip-path="url(#p7ad082d472)" style="fill: #1f77b4"/>
   </g>
   <g id="patch_117">
    <path d="M 245.482652 273.312 
L 247.101077 273.312 
L 247.101077 136.270914 
L 245.482652 136.270914 
z
" clip-path="url(#p7ad082d472)" style="fill: #1f77b4"/>
   </g>
   <g id="patch_118">
    <path d="M 247.101077 273.312 
L 248.719502 273.312 
L 248.719502 139.711276 
L 247.101077 139.711276 
z
" clip-path="url(#p7ad082d472)" style="fill: #1f77b4"/>
   </g>
   <g id="patch_119">
    <path d="M 248.719502 273.312 
L 250.337928 273.312 
L 250.337928 158.633267 
L 248.719502 158.633267 
z
" clip-path="url(#p7ad082d472)" style="fill: #1f77b4"/>
   </g>
   <g id="patch_120">
    <path d="M 250.337928 273.312 
L 251.956353 273.312 
L 251.956353 125.949828 
L 250.337928 125.949828 
z
" clip-path="url(#p7ad082d472)" style="fill: #1f77b4"/>
   </g>
   <g id="patch_121">
    <path d="M 251.956353 273.312 
L 253.574778 273.312 
L 253.574778 127.670009 
L 251.956353 127.670009 
z
" clip-path="url(#p7ad082d472)" style="fill: #1f77b4"/>
   </g>
   <g id="patch_122">
    <path d="M 253.574778 273.312 
L 255.193203 273.312 
L 255.193203 137.417701 
L 253.574778 137.417701 
z
" clip-path="url(#p7ad082d472)" style="fill: #1f77b4"/>
   </g>
   <g id="patch_123">
    <path d="M 255.193203 273.312 
L 256.811628 273.312 
L 256.811628 144.298425 
L 255.193203 144.298425 
z
" clip-path="url(#p7ad082d472)" style="fill: #1f77b4"/>
   </g>
   <g id="patch_124">
    <path d="M 256.811628 273.312 
L 258.430053 273.312 
L 258.430053 132.830552 
L 256.811628 132.830552 
z
" clip-path="url(#p7ad082d472)" style="fill: #1f77b4"/>
   </g>
   <g id="patch_125">
    <path d="M 258.430053 273.312 
L 260.048478 273.312 
L 260.048478 134.550733 
L 258.430053 134.550733 
z
" clip-path="url(#p7ad082d472)" style="fill: #1f77b4"/>
   </g>
   <g id="patch_126">
    <path d="M 260.048478 273.312 
L 261.666903 273.312 
L 261.666903 147.165394 
L 260.048478 147.165394 
z
" clip-path="url(#p7ad082d472)" style="fill: #1f77b4"/>
   </g>
   <g id="patch_127">
    <path d="M 261.666903 273.312 
L 263.285328 273.312 
L 263.285328 133.977339 
L 261.666903 133.977339 
z
" clip-path="url(#p7ad082d472)" style="fill: #1f77b4"/>
   </g>
   <g id="patch_128">
    <path d="M 263.285328 273.312 
L 264.903753 273.312 
L 264.903753 130.536977 
L 263.285328 130.536977 
z
" clip-path="url(#p7ad082d472)" style="fill: #1f77b4"/>
   </g>
   <g id="patch_129">
    <path d="M 264.903753 273.312 
L 266.522178 273.312 
L 266.522178 128.816796 
L 264.903753 128.816796 
z
" clip-path="url(#p7ad082d472)" style="fill: #1f77b4"/>
   </g>
   <g id="patch_130">
    <path d="M 266.522178 273.312 
L 268.140603 273.312 
L 268.140603 129.39019 
L 266.522178 129.39019 
z
" clip-path="url(#p7ad082d472)" style="fill: #1f77b4"/>
   </g>
   <g id="patch_131">
    <path d="M 268.140603 273.312 
L 269.759028 273.312 
L 269.759028 131.110371 
L 268.140603 131.110371 
z
" clip-path="url(#p7ad082d472)" style="fill: #1f77b4"/>
   </g>
   <g id="patch_132">
    <path d="M 269.759028 273.312 
L 271.377454 273.312 
L 271.377454 120.215891 
L 269.759028 120.215891 
z
" clip-path="url(#p7ad082d472)" style="fill: #1f77b4"/>
   </g>
   <g id="patch_133">
    <path d="M 271.377454 273.312 
L 272.995879 273.312 
L 272.995879 131.683765 
L 271.377454 131.683765 
z
" clip-path="url(#p7ad082d472)" style="fill: #1f77b4"/>
   </g>
   <g id="patch_134">
    <path d="M 272.995879 273.312 
L 274.614304 273.312 
L 274.614304 120.215891 
L 272.995879 120.215891 
z
" clip-path="url(#p7ad082d472)" style="fill: #1f77b4"/>
   </g>
   <g id="patch_135">
    <path d="M 274.614304 273.312 
L 276.232729 273.312 
L 276.232729 122.509466 
L 274.614304 122.509466 
z
" clip-path="url(#p7ad082d472)" style="fill: #1f77b4"/>
   </g>
   <g id="patch_136">
    <path d="M 276.232729 273.312 
L 277.851154 273.312 
L 277.851154 120.789285 
L 276.232729 120.789285 
z
" clip-path="url(#p7ad082d472)" style="fill: #1f77b4"/>
   </g>
   <g id="patch_137">
    <path d="M 277.851154 273.312 
L 279.469579 273.312 
L 279.469579 113.908561 
L 277.851154 113.908561 
z
" clip-path="url(#p7ad082d472)" style="fill: #1f77b4"/>
   </g>
   <g id="patch_138">
    <path d="M 279.469579 273.312 
L 281.088004 273.312 
L 281.088004 114.481955 
L 279.469579 114.481955 
z
" clip-path="url(#p7ad082d472)" style="fill: #1f77b4"/>
   </g>
   <g id="patch_139">
    <path d="M 281.088004 273.312 
L 282.706429 273.312 
L 282.706429 115.628742 
L 281.088004 115.628742 
z
" clip-path="url(#p7ad082d472)" style="fill: #1f77b4"/>
   </g>
   <g id="patch_140">
    <path d="M 282.706429 273.312 
L 284.324854 273.312 
L 284.324854 107.601231 
L 282.706429 107.601231 
z
" clip-path="url(#p7ad082d472)" style="fill: #1f77b4"/>
   </g>
   <g id="patch_141">
    <path d="M 284.324854 273.312 
L 285.943279 273.312 
L 285.943279 85.238878 
L 284.324854 85.238878 
z
" clip-path="url(#p7ad082d472)" style="fill: #1f77b4"/>
   </g>
   <g id="patch_142">
    <path d="M 285.943279 273.312 
L 287.561704 273.312 
L 287.561704 76.637973 
L 285.943279 76.637973 
z
" clip-path="url(#p7ad082d472)" style="fill: #1f77b4"/>
   </g>
   <g id="patch_143">
    <path d="M 287.561704 273.312 
L 289.180129 273.312 
L 289.180129 108.748018 
L 287.561704 108.748018 
z
" clip-path="url(#p7ad082d472)" style="fill: #1f77b4"/>
   </g>
   <g id="patch_144">
    <path d="M 289.180129 273.312 
L 290.798554 273.312 
L 290.798554 113.908561 
L 289.180129 113.908561 
z
" clip-path="url(#p7ad082d472)" style="fill: #1f77b4"/>
   </g>
   <g id="patch_145">
    <path d="M 290.798554 273.312 
L 292.41698 273.312 
L 292.41698 119.069104 
L 290.798554 119.069104 
z
" clip-path="url(#p7ad082d472)" style="fill: #1f77b4"/>
   </g>
   <g id="patch_146">
    <path d="M 292.41698 273.312 
L 294.035405 273.312 
L 294.035405 104.734262 
L 292.41698 104.734262 
z
" clip-path="url(#p7ad082d472)" style="fill: #1f77b4"/>
   </g>
   <g id="patch_147">
    <path d="M 294.035405 273.312 
L 295.65383 273.312 
L 295.65383 104.160869 
L 294.035405 104.160869 
z
" clip-path="url(#p7ad082d472)" style="fill: #1f77b4"/>
   </g>
   <g id="patch_148">
    <path d="M 295.65383 273.312 
L 297.272255 273.312 
L 297.272255 82.945303 
L 295.65383 82.945303 
z
" clip-path="url(#p7ad082d472)" style="fill: #1f77b4"/>
   </g>
   <g id="patch_149">
    <path d="M 297.272255 273.312 
L 298.89068 273.312 
L 298.89068 106.454443 
L 297.272255 106.454443 
z
" clip-path="url(#p7ad082d472)" style="fill: #1f77b4"/>
   </g>
   <g id="patch_150">
    <path d="M 298.89068 273.312 
L 300.509105 273.312 
L 300.509105 108.748018 
L 298.89068 108.748018 
z
" clip-path="url(#p7ad082d472)" style="fill: #1f77b4"/>
   </g>
   <g id="patch_151">
    <path d="M 300.509105 273.312 
L 302.12753 273.312 
L 302.12753 104.160869 
L 300.509105 104.160869 
z
" clip-path="url(#p7ad082d472)" style="fill: #1f77b4"/>
   </g>
   <g id="patch_152">
    <path d="M 302.12753 273.312 
L 303.745955 273.312 
L 303.745955 101.867294 
L 302.12753 101.867294 
z
" clip-path="url(#p7ad082d472)" style="fill: #1f77b4"/>
   </g>
   <g id="patch_153">
    <path d="M 303.745955 273.312 
L 305.36438 273.312 
L 305.36438 109.321412 
L 303.745955 109.321412 
z
" clip-path="url(#p7ad082d472)" style="fill: #1f77b4"/>
   </g>
   <g id="patch_154">
    <path d="M 305.36438 273.312 
L 306.982805 273.312 
L 306.982805 120.789285 
L 305.36438 120.789285 
z
" clip-path="url(#p7ad082d472)" style="fill: #1f77b4"/>
   </g>
   <g id="patch_155">
    <path d="M 306.982805 273.312 
L 308.60123 273.312 
L 308.60123 101.867294 
L 306.982805 101.867294 
z
" clip-path="url(#p7ad082d472)" style="fill: #1f77b4"/>
   </g>
   <g id="patch_156">
    <path d="M 308.60123 273.312 
L 310.219655 273.312 
L 310.219655 88.105846 
L 308.60123 88.105846 
z
" clip-path="url(#p7ad082d472)" style="fill: #1f77b4"/>
   </g>
   <g id="patch_157">
    <path d="M 310.219655 273.312 
L 311.83808 273.312 
L 311.83808 112.18838 
L 310.219655 112.18838 
z
" clip-path="url(#p7ad082d472)" style="fill: #1f77b4"/>
   </g>
   <g id="patch_158">
    <path d="M 311.83808 273.312 
L 313.456506 273.312 
L 313.456506 97.853538 
L 311.83808 97.853538 
z
" clip-path="url(#p7ad082d472)" style="fill: #1f77b4"/>
   </g>
   <g id="patch_159">
    <path d="M 313.456506 273.312 
L 315.074931 273.312 
L 315.074931 91.546208 
L 313.456506 91.546208 
z
" clip-path="url(#p7ad082d472)" style="fill: #1f77b4"/>
   </g>
   <g id="patch_160">
    <path d="M 315.074931 273.312 
L 316.693356 273.312 
L 316.693356 105.307656 
L 315.074931 105.307656 
z
" clip-path="url(#p7ad082d472)" style="fill: #1f77b4"/>
   </g>
   <g id="patch_161">
    <path d="M 316.693356 273.312 
L 318.311781 273.312 
L 318.311781 103.014081 
L 316.693356 103.014081 
z
" clip-path="url(#p7ad082d472)" style="fill: #1f77b4"/>
   </g>
   <g id="patch_162">
    <path d="M 318.311781 273.312 
L 319.930206 273.312 
L 319.930206 72.050824 
L 318.311781 72.050824 
z
" clip-path="url(#p7ad082d472)" style="fill: #1f77b4"/>
   </g>
   <g id="patch_163">
    <path d="M 319.930206 273.312 
L 321.548631 273.312 
L 321.548631 96.133357 
L 319.930206 96.133357 
z
" clip-path="url(#p7ad082d472)" style="fill: #1f77b4"/>
   </g>
   <g id="patch_164">
    <path d="M 321.548631 273.312 
L 323.167056 273.312 
L 323.167056 101.2939 
L 321.548631 101.2939 
z
" clip-path="url(#p7ad082d472)" style="fill: #1f77b4"/>
   </g>
   <g id="patch_165">
    <path d="M 323.167056 273.312 
L 324.785481 273.312 
L 324.785481 75.491186 
L 323.167056 75.491186 
z
" clip-path="url(#p7ad082d472)" style="fill: #1f77b4"/>
   </g>
   <g id="patch_166">
    <path d="M 324.785481 273.312 
L 326.403906 273.312 
L 326.403906 91.546208 
L 324.785481 91.546208 
z
" clip-path="url(#p7ad082d472)" style="fill: #1f77b4"/>
   </g>
   <g id="patch_167">
    <path d="M 326.403906 273.312 
L 328.022331 273.312 
L 328.022331 96.133357 
L 326.403906 96.133357 
z
" clip-path="url(#p7ad082d472)" style="fill: #1f77b4"/>
   </g>
   <g id="patch_168">
    <path d="M 328.022331 273.312 
L 329.640756 273.312 
L 329.640756 85.812271 
L 328.022331 85.812271 
z
" clip-path="url(#p7ad082d472)" style="fill: #1f77b4"/>
   </g>
   <g id="patch_169">
    <path d="M 329.640756 273.312 
L 331.259181 273.312 
L 331.259181 87.532452 
L 329.640756 87.532452 
z
" clip-path="url(#p7ad082d472)" style="fill: #1f77b4"/>
   </g>
   <g id="patch_170">
    <path d="M 331.259181 273.312 
L 332.877606 273.312 
L 332.877606 73.771005 
L 331.259181 73.771005 
z
" clip-path="url(#p7ad082d472)" style="fill: #1f77b4"/>
   </g>
   <g id="patch_171">
    <path d="M 332.877606 273.312 
L 334.496032 273.312 
L 334.496032 75.491186 
L 332.877606 75.491186 
z
" clip-path="url(#p7ad082d472)" style="fill: #1f77b4"/>
   </g>
   <g id="patch_172">
    <path d="M 334.496032 273.312 
L 336.114457 273.312 
L 336.114457 96.133357 
L 334.496032 96.133357 
z
" clip-path="url(#p7ad082d472)" style="fill: #1f77b4"/>
   </g>
   <g id="patch_173">
    <path d="M 336.114457 273.312 
L 337.732882 273.312 
L 337.732882 69.757249 
L 336.114457 69.757249 
z
" clip-path="url(#p7ad082d472)" style="fill: #1f77b4"/>
   </g>
   <g id="patch_174">
    <path d="M 337.732882 273.312 
L 339.351307 273.312 
L 339.351307 69.757249 
L 337.732882 69.757249 
z
" clip-path="url(#p7ad082d472)" style="fill: #1f77b4"/>
   </g>
   <g id="patch_175">
    <path d="M 339.351307 273.312 
L 340.969732 273.312 
L 340.969732 58.289376 
L 339.351307 58.289376 
z
" clip-path="url(#p7ad082d472)" style="fill: #1f77b4"/>
   </g>
   <g id="patch_176">
    <path d="M 340.969732 273.312 
L 342.588157 273.312 
L 342.588157 85.238878 
L 340.969732 85.238878 
z
" clip-path="url(#p7ad082d472)" style="fill: #1f77b4"/>
   </g>
   <g id="patch_177">
    <path d="M 342.588157 273.312 
L 344.206582 273.312 
L 344.206582 85.812271 
L 342.588157 85.812271 
z
" clip-path="url(#p7ad082d472)" style="fill: #1f77b4"/>
   </g>
   <g id="patch_178">
    <path d="M 344.206582 273.312 
L 345.825007 273.312 
L 345.825007 81.225122 
L 344.206582 81.225122 
z
" clip-path="url(#p7ad082d472)" style="fill: #1f77b4"/>
   </g>
   <g id="patch_179">
    <path d="M 345.825007 273.312 
L 347.443432 273.312 
L 347.443432 46.821502 
L 345.825007 46.821502 
z
" clip-path="url(#p7ad082d472)" style="fill: #1f77b4"/>
   </g>
   <g id="patch_180">
    <path d="M 347.443432 273.312 
L 349.061857 273.312 
L 349.061857 60.58295 
L 347.443432 60.58295 
z
" clip-path="url(#p7ad082d472)" style="fill: #1f77b4"/>
   </g>
   <g id="patch_181">
    <path d="M 349.061857 273.312 
L 350.680282 273.312 
L 350.680282 71.47743 
L 349.061857 71.47743 
z
" clip-path="url(#p7ad082d472)" style="fill: #1f77b4"/>
   </g>
   <g id="patch_182">
    <path d="M 350.680282 273.312 
L 352.298707 273.312 
L 352.298707 69.757249 
L 350.680282 69.757249 
z
" clip-path="url(#p7ad082d472)" style="fill: #1f77b4"/>
   </g>
   <g id="patch_183">
    <path d="M 352.298707 273.312 
L 353.917132 273.312 
L 353.917132 80.651729 
L 352.298707 80.651729 
z
" clip-path="url(#p7ad082d472)" style="fill: #1f77b4"/>
   </g>
   <g id="patch_184">
    <path d="M 353.917132 273.312 
L 355.535558 273.312 
L 355.535558 59.436163 
L 353.917132 59.436163 
z
" clip-path="url(#p7ad082d472)" style="fill: #1f77b4"/>
   </g>
   <g id="patch_185">
    <path d="M 355.535558 273.312 
L 357.153983 273.312 
L 357.153983 59.436163 
L 355.535558 59.436163 
z
" clip-path="url(#p7ad082d472)" style="fill: #1f77b4"/>
   </g>
   <g id="patch_186">
    <path d="M 357.153983 273.312 
L 358.772408 273.312 
L 358.772408 51.982045 
L 357.153983 51.982045 
z
" clip-path="url(#p7ad082d472)" style="fill: #1f77b4"/>
   </g>
   <g id="patch_187">
    <path d="M 358.772408 273.312 
L 360.390833 273.312 
L 360.390833 72.624217 
L 358.772408 72.624217 
z
" clip-path="url(#p7ad082d472)" style="fill: #1f77b4"/>
   </g>
   <g id="patch_188">
    <path d="M 360.390833 273.312 
L 362.009258 273.312 
L 362.009258 77.78476 
L 360.390833 77.78476 
z
" clip-path="url(#p7ad082d472)" style="fill: #1f77b4"/>
   </g>
   <g id="patch_189">
    <path d="M 362.009258 273.312 
L 363.627683 273.312 
L 363.627683 74.344398 
L 362.009258 74.344398 
z
" clip-path="url(#p7ad082d472)" style="fill: #1f77b4"/>
   </g>
   <g id="patch_190">
    <path d="M 363.627683 273.312 
L 365.246108 273.312 
L 365.246108 75.491186 
L 363.627683 75.491186 
z
" clip-path="url(#p7ad082d472)" style="fill: #1f77b4"/>
   </g>
   <g id="patch_191">
    <path d="M 365.246108 273.312 
L 366.864533 273.312 
L 366.864533 57.142588 
L 365.246108 57.142588 
z
" clip-path="url(#p7ad082d472)" style="fill: #1f77b4"/>
   </g>
   <g id="patch_192">
    <path d="M 366.864533 273.312 
L 368.482958 273.312 
L 368.482958 55.995801 
L 366.864533 55.995801 
z
" clip-path="url(#p7ad082d472)" style="fill: #1f77b4"/>
   </g>
   <g id="patch_193">
    <path d="M 368.482958 273.312 
L 370.101383 273.312 
L 370.101383 62.876525 
L 368.482958 62.876525 
z
" clip-path="url(#p7ad082d472)" style="fill: #1f77b4"/>
   </g>
   <g id="patch_194">
    <path d="M 370.101383 273.312 
L 371.719808 273.312 
L 371.719808 48.541683 
L 370.101383 48.541683 
z
" clip-path="url(#p7ad082d472)" style="fill: #1f77b4"/>
   </g>
   <g id="patch_195">
    <path d="M 371.719808 273.312 
L 373.338233 273.312 
L 373.338233 38.793991 
L 371.719808 38.793991 
z
" clip-path="url(#p7ad082d472)" style="fill: #1f77b4"/>
   </g>
   <g id="patch_196">
    <path d="M 373.338233 273.312 
L 374.956658 273.312 
L 374.956658 45.674715 
L 373.338233 45.674715 
z
" clip-path="url(#p7ad082d472)" style="fill: #1f77b4"/>
   </g>
   <g id="patch_197">
    <path d="M 374.956658 273.312 
L 376.575084 273.312 
L 376.575084 34.780235 
L 374.956658 34.780235 
z
" clip-path="url(#p7ad082d472)" style="fill: #1f77b4"/>
   </g>
   <g id="patch_198">
    <path d="M 376.575084 273.312 
L 378.193509 273.312 
L 378.193509 57.715982 
L 376.575084 57.715982 
z
" clip-path="url(#p7ad082d472)" style="fill: #1f77b4"/>
   </g>
   <g id="patch_199">
    <path d="M 378.193509 273.312 
L 379.811934 273.312 
L 379.811934 53.128833 
L 378.193509 53.128833 
z
" clip-path="url(#p7ad082d472)" style="fill: #1f77b4"/>
   </g>
   <g id="patch_200">
    <path d="M 379.811934 273.312 
L 381.430359 273.312 
L 381.430359 50.261864 
L 379.811934 50.261864 
z
" clip-path="url(#p7ad082d472)" style="fill: #1f77b4"/>
   </g>
   <g id="patch_201">
    <path d="M 381.430359 273.312 
L 383.048784 273.312 
L 383.048784 49.688471 
L 381.430359 49.688471 
z
" clip-path="url(#p7ad082d472)" style="fill: #1f77b4"/>
   </g>
   <g id="patch_202">
    <path d="M 383.048784 273.312 
L 384.667209 273.312 
L 384.667209 19.872 
L 383.048784 19.872 
z
" clip-path="url(#p7ad082d472)" style="fill: #1f77b4"/>
   </g>
   <g id="matplotlib.axis_1">
    <g id="xtick_1">
     <g id="line2d_1">
      <defs>
       <path id="mf7b122a926" d="M 0 0 
L 0 3.5 
" style="stroke: #000000; stroke-width: 0.8"/>
      </defs>
      <g>
       <use xlink:href="#mf7b122a926" x="60.013977" y="273.312" style="stroke: #000000; stroke-width: 0.8"/>
      </g>
     </g>
     <g id="text_1">
      <!-- 0.0 -->
      <g transform="translate(52.062415 287.910437)scale(0.1 -0.1)">
       <defs>
        <path id="DejaVuSans-30" d="M 2034 4250 
Q 1547 4250 1301 3770 
Q 1056 3291 1056 2328 
Q 1056 1369 1301 889 
Q 1547 409 2034 409 
Q 2525 409 2770 889 
Q 3016 1369 3016 2328 
Q 3016 3291 2770 3770 
Q 2525 4250 2034 4250 
z
M 2034 4750 
Q 2819 4750 3233 4129 
Q 3647 3509 3647 2328 
Q 3647 1150 3233 529 
Q 2819 -91 2034 -91 
Q 1250 -91 836 529 
Q 422 1150 422 2328 
Q 422 3509 836 4129 
Q 1250 4750 2034 4750 
z
" transform="scale(0.015625)"/>
        <path id="DejaVuSans-2e" d="M 684 794 
L 1344 794 
L 1344 0 
L 684 0 
L 684 794 
z
" transform="scale(0.015625)"/>
       </defs>
       <use xlink:href="#DejaVuSans-30"/>
       <use xlink:href="#DejaVuSans-2e" x="63.623047"/>
       <use xlink:href="#DejaVuSans-30" x="95.410156"/>
      </g>
     </g>
    </g>
    <g id="xtick_2">
     <g id="line2d_2">
      <g>
       <use xlink:href="#mf7b122a926" x="124.944886" y="273.312" style="stroke: #000000; stroke-width: 0.8"/>
      </g>
     </g>
     <g id="text_2">
      <!-- 0.2 -->
      <g transform="translate(116.993324 287.910437)scale(0.1 -0.1)">
       <defs>
        <path id="DejaVuSans-32" d="M 1228 531 
L 3431 531 
L 3431 0 
L 469 0 
L 469 531 
Q 828 903 1448 1529 
Q 2069 2156 2228 2338 
Q 2531 2678 2651 2914 
Q 2772 3150 2772 3378 
Q 2772 3750 2511 3984 
Q 2250 4219 1831 4219 
Q 1534 4219 1204 4116 
Q 875 4013 500 3803 
L 500 4441 
Q 881 4594 1212 4672 
Q 1544 4750 1819 4750 
Q 2544 4750 2975 4387 
Q 3406 4025 3406 3419 
Q 3406 3131 3298 2873 
Q 3191 2616 2906 2266 
Q 2828 2175 2409 1742 
Q 1991 1309 1228 531 
z
" transform="scale(0.015625)"/>
       </defs>
       <use xlink:href="#DejaVuSans-30"/>
       <use xlink:href="#DejaVuSans-2e" x="63.623047"/>
       <use xlink:href="#DejaVuSans-32" x="95.410156"/>
      </g>
     </g>
    </g>
    <g id="xtick_3">
     <g id="line2d_3">
      <g>
       <use xlink:href="#mf7b122a926" x="189.875795" y="273.312" style="stroke: #000000; stroke-width: 0.8"/>
      </g>
     </g>
     <g id="text_3">
      <!-- 0.4 -->
      <g transform="translate(181.924233 287.910437)scale(0.1 -0.1)">
       <defs>
        <path id="DejaVuSans-34" d="M 2419 4116 
L 825 1625 
L 2419 1625 
L 2419 4116 
z
M 2253 4666 
L 3047 4666 
L 3047 1625 
L 3713 1625 
L 3713 1100 
L 3047 1100 
L 3047 0 
L 2419 0 
L 2419 1100 
L 313 1100 
L 313 1709 
L 2253 4666 
z
" transform="scale(0.015625)"/>
       </defs>
       <use xlink:href="#DejaVuSans-30"/>
       <use xlink:href="#DejaVuSans-2e" x="63.623047"/>
       <use xlink:href="#DejaVuSans-34" x="95.410156"/>
      </g>
     </g>
    </g>
    <g id="xtick_4">
     <g id="line2d_4">
      <g>
       <use xlink:href="#mf7b122a926" x="254.806705" y="273.312" style="stroke: #000000; stroke-width: 0.8"/>
      </g>
     </g>
     <g id="text_4">
      <!-- 0.6 -->
      <g transform="translate(246.855142 287.910437)scale(0.1 -0.1)">
       <defs>
        <path id="DejaVuSans-36" d="M 2113 2584 
Q 1688 2584 1439 2293 
Q 1191 2003 1191 1497 
Q 1191 994 1439 701 
Q 1688 409 2113 409 
Q 2538 409 2786 701 
Q 3034 994 3034 1497 
Q 3034 2003 2786 2293 
Q 2538 2584 2113 2584 
z
M 3366 4563 
L 3366 3988 
Q 3128 4100 2886 4159 
Q 2644 4219 2406 4219 
Q 1781 4219 1451 3797 
Q 1122 3375 1075 2522 
Q 1259 2794 1537 2939 
Q 1816 3084 2150 3084 
Q 2853 3084 3261 2657 
Q 3669 2231 3669 1497 
Q 3669 778 3244 343 
Q 2819 -91 2113 -91 
Q 1303 -91 875 529 
Q 447 1150 447 2328 
Q 447 3434 972 4092 
Q 1497 4750 2381 4750 
Q 2619 4750 2861 4703 
Q 3103 4656 3366 4563 
z
" transform="scale(0.015625)"/>
       </defs>
       <use xlink:href="#DejaVuSans-30"/>
       <use xlink:href="#DejaVuSans-2e" x="63.623047"/>
       <use xlink:href="#DejaVuSans-36" x="95.410156"/>
      </g>
     </g>
    </g>
    <g id="xtick_5">
     <g id="line2d_5">
      <g>
       <use xlink:href="#mf7b122a926" x="319.737614" y="273.312" style="stroke: #000000; stroke-width: 0.8"/>
      </g>
     </g>
     <g id="text_5">
      <!-- 0.8 -->
      <g transform="translate(311.786051 287.910437)scale(0.1 -0.1)">
       <defs>
        <path id="DejaVuSans-38" d="M 2034 2216 
Q 1584 2216 1326 1975 
Q 1069 1734 1069 1313 
Q 1069 891 1326 650 
Q 1584 409 2034 409 
Q 2484 409 2743 651 
Q 3003 894 3003 1313 
Q 3003 1734 2745 1975 
Q 2488 2216 2034 2216 
z
M 1403 2484 
Q 997 2584 770 2862 
Q 544 3141 544 3541 
Q 544 4100 942 4425 
Q 1341 4750 2034 4750 
Q 2731 4750 3128 4425 
Q 3525 4100 3525 3541 
Q 3525 3141 3298 2862 
Q 3072 2584 2669 2484 
Q 3125 2378 3379 2068 
Q 3634 1759 3634 1313 
Q 3634 634 3220 271 
Q 2806 -91 2034 -91 
Q 1263 -91 848 271 
Q 434 634 434 1313 
Q 434 1759 690 2068 
Q 947 2378 1403 2484 
z
M 1172 3481 
Q 1172 3119 1398 2916 
Q 1625 2713 2034 2713 
Q 2441 2713 2670 2916 
Q 2900 3119 2900 3481 
Q 2900 3844 2670 4047 
Q 2441 4250 2034 4250 
Q 1625 4250 1398 4047 
Q 1172 3844 1172 3481 
z
" transform="scale(0.015625)"/>
       </defs>
       <use xlink:href="#DejaVuSans-30"/>
       <use xlink:href="#DejaVuSans-2e" x="63.623047"/>
       <use xlink:href="#DejaVuSans-38" x="95.410156"/>
      </g>
     </g>
    </g>
    <g id="xtick_6">
     <g id="line2d_6">
      <g>
       <use xlink:href="#mf7b122a926" x="384.668523" y="273.312" style="stroke: #000000; stroke-width: 0.8"/>
      </g>
     </g>
     <g id="text_6">
      <!-- 1.0 -->
      <g transform="translate(376.71696 287.910437)scale(0.1 -0.1)">
       <defs>
        <path id="DejaVuSans-31" d="M 794 531 
L 1825 531 
L 1825 4091 
L 703 3866 
L 703 4441 
L 1819 4666 
L 2450 4666 
L 2450 531 
L 3481 531 
L 3481 0 
L 794 0 
L 794 531 
z
" transform="scale(0.015625)"/>
       </defs>
       <use xlink:href="#DejaVuSans-31"/>
       <use xlink:href="#DejaVuSans-2e" x="63.623047"/>
       <use xlink:href="#DejaVuSans-30" x="95.410156"/>
      </g>
     </g>
    </g>
    <g id="text_7">
     <!-- Propagation direction -->
     <g transform="translate(168.859219 301.588562)scale(0.1 -0.1)">
      <defs>
       <path id="DejaVuSans-50" d="M 1259 4147 
L 1259 2394 
L 2053 2394 
Q 2494 2394 2734 2622 
Q 2975 2850 2975 3272 
Q 2975 3691 2734 3919 
Q 2494 4147 2053 4147 
L 1259 4147 
z
M 628 4666 
L 2053 4666 
Q 2838 4666 3239 4311 
Q 3641 3956 3641 3272 
Q 3641 2581 3239 2228 
Q 2838 1875 2053 1875 
L 1259 1875 
L 1259 0 
L 628 0 
L 628 4666 
z
" transform="scale(0.015625)"/>
       <path id="DejaVuSans-72" d="M 2631 2963 
Q 2534 3019 2420 3045 
Q 2306 3072 2169 3072 
Q 1681 3072 1420 2755 
Q 1159 2438 1159 1844 
L 1159 0 
L 581 0 
L 581 3500 
L 1159 3500 
L 1159 2956 
Q 1341 3275 1631 3429 
Q 1922 3584 2338 3584 
Q 2397 3584 2469 3576 
Q 2541 3569 2628 3553 
L 2631 2963 
z
" transform="scale(0.015625)"/>
       <path id="DejaVuSans-6f" d="M 1959 3097 
Q 1497 3097 1228 2736 
Q 959 2375 959 1747 
Q 959 1119 1226 758 
Q 1494 397 1959 397 
Q 2419 397 2687 759 
Q 2956 1122 2956 1747 
Q 2956 2369 2687 2733 
Q 2419 3097 1959 3097 
z
M 1959 3584 
Q 2709 3584 3137 3096 
Q 3566 2609 3566 1747 
Q 3566 888 3137 398 
Q 2709 -91 1959 -91 
Q 1206 -91 779 398 
Q 353 888 353 1747 
Q 353 2609 779 3096 
Q 1206 3584 1959 3584 
z
" transform="scale(0.015625)"/>
       <path id="DejaVuSans-70" d="M 1159 525 
L 1159 -1331 
L 581 -1331 
L 581 3500 
L 1159 3500 
L 1159 2969 
Q 1341 3281 1617 3432 
Q 1894 3584 2278 3584 
Q 2916 3584 3314 3078 
Q 3713 2572 3713 1747 
Q 3713 922 3314 415 
Q 2916 -91 2278 -91 
Q 1894 -91 1617 61 
Q 1341 213 1159 525 
z
M 3116 1747 
Q 3116 2381 2855 2742 
Q 2594 3103 2138 3103 
Q 1681 3103 1420 2742 
Q 1159 2381 1159 1747 
Q 1159 1113 1420 752 
Q 1681 391 2138 391 
Q 2594 391 2855 752 
Q 3116 1113 3116 1747 
z
" transform="scale(0.015625)"/>
       <path id="DejaVuSans-61" d="M 2194 1759 
Q 1497 1759 1228 1600 
Q 959 1441 959 1056 
Q 959 750 1161 570 
Q 1363 391 1709 391 
Q 2188 391 2477 730 
Q 2766 1069 2766 1631 
L 2766 1759 
L 2194 1759 
z
M 3341 1997 
L 3341 0 
L 2766 0 
L 2766 531 
Q 2569 213 2275 61 
Q 1981 -91 1556 -91 
Q 1019 -91 701 211 
Q 384 513 384 1019 
Q 384 1609 779 1909 
Q 1175 2209 1959 2209 
L 2766 2209 
L 2766 2266 
Q 2766 2663 2505 2880 
Q 2244 3097 1772 3097 
Q 1472 3097 1187 3025 
Q 903 2953 641 2809 
L 641 3341 
Q 956 3463 1253 3523 
Q 1550 3584 1831 3584 
Q 2591 3584 2966 3190 
Q 3341 2797 3341 1997 
z
" transform="scale(0.015625)"/>
       <path id="DejaVuSans-67" d="M 2906 1791 
Q 2906 2416 2648 2759 
Q 2391 3103 1925 3103 
Q 1463 3103 1205 2759 
Q 947 2416 947 1791 
Q 947 1169 1205 825 
Q 1463 481 1925 481 
Q 2391 481 2648 825 
Q 2906 1169 2906 1791 
z
M 3481 434 
Q 3481 -459 3084 -895 
Q 2688 -1331 1869 -1331 
Q 1566 -1331 1297 -1286 
Q 1028 -1241 775 -1147 
L 775 -588 
Q 1028 -725 1275 -790 
Q 1522 -856 1778 -856 
Q 2344 -856 2625 -561 
Q 2906 -266 2906 331 
L 2906 616 
Q 2728 306 2450 153 
Q 2172 0 1784 0 
Q 1141 0 747 490 
Q 353 981 353 1791 
Q 353 2603 747 3093 
Q 1141 3584 1784 3584 
Q 2172 3584 2450 3431 
Q 2728 3278 2906 2969 
L 2906 3500 
L 3481 3500 
L 3481 434 
z
" transform="scale(0.015625)"/>
       <path id="DejaVuSans-74" d="M 1172 4494 
L 1172 3500 
L 2356 3500 
L 2356 3053 
L 1172 3053 
L 1172 1153 
Q 1172 725 1289 603 
Q 1406 481 1766 481 
L 2356 481 
L 2356 0 
L 1766 0 
Q 1100 0 847 248 
Q 594 497 594 1153 
L 594 3053 
L 172 3053 
L 172 3500 
L 594 3500 
L 594 4494 
L 1172 4494 
z
" transform="scale(0.015625)"/>
       <path id="DejaVuSans-69" d="M 603 3500 
L 1178 3500 
L 1178 0 
L 603 0 
L 603 3500 
z
M 603 4863 
L 1178 4863 
L 1178 4134 
L 603 4134 
L 603 4863 
z
" transform="scale(0.015625)"/>
       <path id="DejaVuSans-6e" d="M 3513 2113 
L 3513 0 
L 2938 0 
L 2938 2094 
Q 2938 2591 2744 2837 
Q 2550 3084 2163 3084 
Q 1697 3084 1428 2787 
Q 1159 2491 1159 1978 
L 1159 0 
L 581 0 
L 581 3500 
L 1159 3500 
L 1159 2956 
Q 1366 3272 1645 3428 
Q 1925 3584 2291 3584 
Q 2894 3584 3203 3211 
Q 3513 2838 3513 2113 
z
" transform="scale(0.015625)"/>
       <path id="DejaVuSans-20" transform="scale(0.015625)"/>
       <path id="DejaVuSans-64" d="M 2906 2969 
L 2906 4863 
L 3481 4863 
L 3481 0 
L 2906 0 
L 2906 525 
Q 2725 213 2448 61 
Q 2172 -91 1784 -91 
Q 1150 -91 751 415 
Q 353 922 353 1747 
Q 353 2572 751 3078 
Q 1150 3584 1784 3584 
Q 2172 3584 2448 3432 
Q 2725 3281 2906 2969 
z
M 947 1747 
Q 947 1113 1208 752 
Q 1469 391 1925 391 
Q 2381 391 2643 752 
Q 2906 1113 2906 1747 
Q 2906 2381 2643 2742 
Q 2381 3103 1925 3103 
Q 1469 3103 1208 2742 
Q 947 2381 947 1747 
z
" transform="scale(0.015625)"/>
       <path id="DejaVuSans-65" d="M 3597 1894 
L 3597 1613 
L 953 1613 
Q 991 1019 1311 708 
Q 1631 397 2203 397 
Q 2534 397 2845 478 
Q 3156 559 3463 722 
L 3463 178 
Q 3153 47 2828 -22 
Q 2503 -91 2169 -91 
Q 1331 -91 842 396 
Q 353 884 353 1716 
Q 353 2575 817 3079 
Q 1281 3584 2069 3584 
Q 2775 3584 3186 3129 
Q 3597 2675 3597 1894 
z
M 3022 2063 
Q 3016 2534 2758 2815 
Q 2500 3097 2075 3097 
Q 1594 3097 1305 2825 
Q 1016 2553 972 2059 
L 3022 2063 
z
" transform="scale(0.015625)"/>
       <path id="DejaVuSans-63" d="M 3122 3366 
L 3122 2828 
Q 2878 2963 2633 3030 
Q 2388 3097 2138 3097 
Q 1578 3097 1268 2742 
Q 959 2388 959 1747 
Q 959 1106 1268 751 
Q 1578 397 2138 397 
Q 2388 397 2633 464 
Q 2878 531 3122 666 
L 3122 134 
Q 2881 22 2623 -34 
Q 2366 -91 2075 -91 
Q 1284 -91 818 406 
Q 353 903 353 1747 
Q 353 2603 823 3093 
Q 1294 3584 2113 3584 
Q 2378 3584 2631 3529 
Q 2884 3475 3122 3366 
z
" transform="scale(0.015625)"/>
      </defs>
      <use xlink:href="#DejaVuSans-50"/>
      <use xlink:href="#DejaVuSans-72" x="58.552734"/>
      <use xlink:href="#DejaVuSans-6f" x="97.416016"/>
      <use xlink:href="#DejaVuSans-70" x="158.597656"/>
      <use xlink:href="#DejaVuSans-61" x="222.074219"/>
      <use xlink:href="#DejaVuSans-67" x="283.353516"/>
      <use xlink:href="#DejaVuSans-61" x="346.830078"/>
      <use xlink:href="#DejaVuSans-74" x="408.109375"/>
      <use xlink:href="#DejaVuSans-69" x="447.318359"/>
      <use xlink:href="#DejaVuSans-6f" x="475.101562"/>
      <use xlink:href="#DejaVuSans-6e" x="536.283203"/>
      <use xlink:href="#DejaVuSans-20" x="599.662109"/>
      <use xlink:href="#DejaVuSans-64" x="631.449219"/>
      <use xlink:href="#DejaVuSans-69" x="694.925781"/>
      <use xlink:href="#DejaVuSans-72" x="722.708984"/>
      <use xlink:href="#DejaVuSans-65" x="761.572266"/>
      <use xlink:href="#DejaVuSans-63" x="823.095703"/>
      <use xlink:href="#DejaVuSans-74" x="878.076172"/>
      <use xlink:href="#DejaVuSans-69" x="917.285156"/>
      <use xlink:href="#DejaVuSans-6f" x="945.068359"/>
      <use xlink:href="#DejaVuSans-6e" x="1006.25"/>
     </g>
    </g>
   </g>
   <g id="matplotlib.axis_2">
    <g id="ytick_1">
     <g id="line2d_7">
      <defs>
       <path id="m39053cc2b5" d="M 0 0 
L -3.5 0 
" style="stroke: #000000; stroke-width: 0.8"/>
      </defs>
      <g>
       <use xlink:href="#m39053cc2b5" x="43.78125" y="273.312" style="stroke: #000000; stroke-width: 0.8"/>
      </g>
     </g>
     <g id="text_8">
      <!-- 0.0 -->
      <g transform="translate(20.878125 277.111219)scale(0.1 -0.1)">
       <use xlink:href="#DejaVuSans-30"/>
       <use xlink:href="#DejaVuSans-2e" x="63.623047"/>
       <use xlink:href="#DejaVuSans-30" x="95.410156"/>
      </g>
     </g>
    </g>
    <g id="ytick_2">
     <g id="line2d_8">
      <g>
       <use xlink:href="#m39053cc2b5" x="43.78125" y="216.143869" style="stroke: #000000; stroke-width: 0.8"/>
      </g>
     </g>
     <g id="text_9">
      <!-- 0.5 -->
      <g transform="translate(20.878125 219.943087)scale(0.1 -0.1)">
       <defs>
        <path id="DejaVuSans-35" d="M 691 4666 
L 3169 4666 
L 3169 4134 
L 1269 4134 
L 1269 2991 
Q 1406 3038 1543 3061 
Q 1681 3084 1819 3084 
Q 2600 3084 3056 2656 
Q 3513 2228 3513 1497 
Q 3513 744 3044 326 
Q 2575 -91 1722 -91 
Q 1428 -91 1123 -41 
Q 819 9 494 109 
L 494 744 
Q 775 591 1075 516 
Q 1375 441 1709 441 
Q 2250 441 2565 725 
Q 2881 1009 2881 1497 
Q 2881 1984 2565 2268 
Q 2250 2553 1709 2553 
Q 1456 2553 1204 2497 
Q 953 2441 691 2322 
L 691 4666 
z
" transform="scale(0.015625)"/>
       </defs>
       <use xlink:href="#DejaVuSans-30"/>
       <use xlink:href="#DejaVuSans-2e" x="63.623047"/>
       <use xlink:href="#DejaVuSans-35" x="95.410156"/>
      </g>
     </g>
    </g>
    <g id="ytick_3">
     <g id="line2d_9">
      <g>
       <use xlink:href="#m39053cc2b5" x="43.78125" y="158.975737" style="stroke: #000000; stroke-width: 0.8"/>
      </g>
     </g>
     <g id="text_10">
      <!-- 1.0 -->
      <g transform="translate(20.878125 162.774956)scale(0.1 -0.1)">
       <use xlink:href="#DejaVuSans-31"/>
       <use xlink:href="#DejaVuSans-2e" x="63.623047"/>
       <use xlink:href="#DejaVuSans-30" x="95.410156"/>
      </g>
     </g>
    </g>
    <g id="ytick_4">
     <g id="line2d_10">
      <g>
       <use xlink:href="#m39053cc2b5" x="43.78125" y="101.807606" style="stroke: #000000; stroke-width: 0.8"/>
      </g>
     </g>
     <g id="text_11">
      <!-- 1.5 -->
      <g transform="translate(20.878125 105.606824)scale(0.1 -0.1)">
       <use xlink:href="#DejaVuSans-31"/>
       <use xlink:href="#DejaVuSans-2e" x="63.623047"/>
       <use xlink:href="#DejaVuSans-35" x="95.410156"/>
      </g>
     </g>
    </g>
    <g id="ytick_5">
     <g id="line2d_11">
      <g>
       <use xlink:href="#m39053cc2b5" x="43.78125" y="44.639474" style="stroke: #000000; stroke-width: 0.8"/>
      </g>
     </g>
     <g id="text_12">
      <!-- 2.0 -->
      <g transform="translate(20.878125 48.438693)scale(0.1 -0.1)">
       <use xlink:href="#DejaVuSans-32"/>
       <use xlink:href="#DejaVuSans-2e" x="63.623047"/>
       <use xlink:href="#DejaVuSans-30" x="95.410156"/>
      </g>
     </g>
    </g>
    <g id="text_13">
     <!-- Probability density -->
     <g transform="translate(14.798438 186.606781)rotate(-90)scale(0.1 -0.1)">
      <defs>
       <path id="DejaVuSans-62" d="M 3116 1747 
Q 3116 2381 2855 2742 
Q 2594 3103 2138 3103 
Q 1681 3103 1420 2742 
Q 1159 2381 1159 1747 
Q 1159 1113 1420 752 
Q 1681 391 2138 391 
Q 2594 391 2855 752 
Q 3116 1113 3116 1747 
z
M 1159 2969 
Q 1341 3281 1617 3432 
Q 1894 3584 2278 3584 
Q 2916 3584 3314 3078 
Q 3713 2572 3713 1747 
Q 3713 922 3314 415 
Q 2916 -91 2278 -91 
Q 1894 -91 1617 61 
Q 1341 213 1159 525 
L 1159 0 
L 581 0 
L 581 4863 
L 1159 4863 
L 1159 2969 
z
" transform="scale(0.015625)"/>
       <path id="DejaVuSans-6c" d="M 603 4863 
L 1178 4863 
L 1178 0 
L 603 0 
L 603 4863 
z
" transform="scale(0.015625)"/>
       <path id="DejaVuSans-79" d="M 2059 -325 
Q 1816 -950 1584 -1140 
Q 1353 -1331 966 -1331 
L 506 -1331 
L 506 -850 
L 844 -850 
Q 1081 -850 1212 -737 
Q 1344 -625 1503 -206 
L 1606 56 
L 191 3500 
L 800 3500 
L 1894 763 
L 2988 3500 
L 3597 3500 
L 2059 -325 
z
" transform="scale(0.015625)"/>
       <path id="DejaVuSans-73" d="M 2834 3397 
L 2834 2853 
Q 2591 2978 2328 3040 
Q 2066 3103 1784 3103 
Q 1356 3103 1142 2972 
Q 928 2841 928 2578 
Q 928 2378 1081 2264 
Q 1234 2150 1697 2047 
L 1894 2003 
Q 2506 1872 2764 1633 
Q 3022 1394 3022 966 
Q 3022 478 2636 193 
Q 2250 -91 1575 -91 
Q 1294 -91 989 -36 
Q 684 19 347 128 
L 347 722 
Q 666 556 975 473 
Q 1284 391 1588 391 
Q 1994 391 2212 530 
Q 2431 669 2431 922 
Q 2431 1156 2273 1281 
Q 2116 1406 1581 1522 
L 1381 1569 
Q 847 1681 609 1914 
Q 372 2147 372 2553 
Q 372 3047 722 3315 
Q 1072 3584 1716 3584 
Q 2034 3584 2315 3537 
Q 2597 3491 2834 3397 
z
" transform="scale(0.015625)"/>
      </defs>
      <use xlink:href="#DejaVuSans-50"/>
      <use xlink:href="#DejaVuSans-72" x="58.552734"/>
      <use xlink:href="#DejaVuSans-6f" x="97.416016"/>
      <use xlink:href="#DejaVuSans-62" x="158.597656"/>
      <use xlink:href="#DejaVuSans-61" x="222.074219"/>
      <use xlink:href="#DejaVuSans-62" x="283.353516"/>
      <use xlink:href="#DejaVuSans-69" x="346.830078"/>
      <use xlink:href="#DejaVuSans-6c" x="374.613281"/>
      <use xlink:href="#DejaVuSans-69" x="402.396484"/>
      <use xlink:href="#DejaVuSans-74" x="430.179688"/>
      <use xlink:href="#DejaVuSans-79" x="469.388672"/>
      <use xlink:href="#DejaVuSans-20" x="528.568359"/>
      <use xlink:href="#DejaVuSans-64" x="560.355469"/>
      <use xlink:href="#DejaVuSans-65" x="623.832031"/>
      <use xlink:href="#DejaVuSans-6e" x="685.355469"/>
      <use xlink:href="#DejaVuSans-73" x="748.734375"/>
      <use xlink:href="#DejaVuSans-69" x="800.833984"/>
      <use xlink:href="#DejaVuSans-74" x="828.617188"/>
      <use xlink:href="#DejaVuSans-79" x="867.826172"/>
     </g>
    </g>
   </g>
   <g id="line2d_12">
    <path d="M 60.013977 273.312 
L 384.668523 44.639474 
L 384.668523 44.639474 
" clip-path="url(#p7ad082d472)" style="fill: none; stroke: #ff7f0e; stroke-width: 1.5; stroke-linecap: square"/>
   </g>
   <g id="patch_203">
    <path d="M 43.78125 273.312 
L 43.78125 7.2 
" style="fill: none; stroke: #000000; stroke-width: 0.8; stroke-linejoin: miter; stroke-linecap: square"/>
   </g>
   <g id="patch_204">
    <path d="M 400.90125 273.312 
L 400.90125 7.2 
" style="fill: none; stroke: #000000; stroke-width: 0.8; stroke-linejoin: miter; stroke-linecap: square"/>
   </g>
   <g id="patch_205">
    <path d="M 43.78125 273.312 
L 400.90125 273.312 
" style="fill: none; stroke: #000000; stroke-width: 0.8; stroke-linejoin: miter; stroke-linecap: square"/>
   </g>
   <g id="patch_206">
    <path d="M 43.78125 7.2 
L 400.90125 7.2 
" style="fill: none; stroke: #000000; stroke-width: 0.8; stroke-linejoin: miter; stroke-linecap: square"/>
   </g>
  </g>
 </g>
 <defs>
  <clipPath id="p7ad082d472">
   <rect x="43.78125" y="7.2" width="357.12" height="266.112"/>
  </clipPath>
 </defs>
</svg>
