<?xml version="1.0" encoding="utf-8" standalone="no"?>
<!DOCTYPE svg PUBLIC "-//W3C//DTD SVG 1.1//EN"
  "http://www.w3.org/Graphics/SVG/1.1/DTD/svg11.dtd">
<svg xmlns:xlink="http://www.w3.org/1999/xlink" width="408.10125pt" height="310.86825pt" viewBox="0 0 408.10125 310.86825" xmlns="http://www.w3.org/2000/svg" version="1.1">
 <metadata>
  <rdf:RDF xmlns:dc="http://purl.org/dc/elements/1.1/" xmlns:cc="http://creativecommons.org/ns#" xmlns:rdf="http://www.w3.org/1999/02/22-rdf-syntax-ns#">
   <cc:Work>
    <dc:type rdf:resource="http://purl.org/dc/dcmitype/StillImage"/>
    <dc:date>2021-11-26T10:37:45.332574</dc:date>
    <dc:format>image/svg+xml</dc:format>
    <dc:creator>
     <cc:Agent>
      <dc:title>Matplotlib v3.5.0, https://matplotlib.org/</dc:title>
     </cc:Agent>
    </dc:creator>
   </cc:Work>
  </rdf:RDF>
 </metadata>
 <defs>
  <style type="text/css">*{stroke-linejoin: round; stroke-linecap: butt}</style>
 </defs>
 <g id="figure_1">
  <g id="patch_1">
   <path d="M 0 310.86825 
L 408.10125 310.86825 
L 408.10125 0 
L 0 0 
z
" style="fill: #ffffff"/>
  </g>
  <g id="axes_1">
   <g id="patch_2">
    <path d="M 43.78125 273.312 
L 400.90125 273.312 
L 400.90125 7.2 
L 43.78125 7.2 
z
" style="fill: #ffffff"/>
   </g>
   <g id="patch_3">
    <path d="M 60.934382 273.312 
L 62.545831 273.312 
L 62.545831 268.063243 
L 60.934382 268.063243 
z
" clip-path="url(#pe7f2650111)" style="fill: #1f77b4"/>
   </g>
   <g id="patch_4">
    <path d="M 62.545831 273.312 
L 64.157279 273.312 
L 64.157279 265.063953 
L 62.545831 265.063953 
z
" clip-path="url(#pe7f2650111)" style="fill: #1f77b4"/>
   </g>
   <g id="patch_5">
    <path d="M 64.157279 273.312 
L 65.768728 273.312 
L 65.768728 262.064663 
L 64.157279 262.064663 
z
" clip-path="url(#pe7f2650111)" style="fill: #1f77b4"/>
   </g>
   <g id="patch_6">
    <path d="M 65.768728 273.312 
L 67.380176 273.312 
L 67.380176 262.064663 
L 65.768728 262.064663 
z
" clip-path="url(#pe7f2650111)" style="fill: #1f77b4"/>
   </g>
   <g id="patch_7">
    <path d="M 67.380176 273.312 
L 68.991625 273.312 
L 68.991625 256.066083 
L 67.380176 256.066083 
z
" clip-path="url(#pe7f2650111)" style="fill: #1f77b4"/>
   </g>
   <g id="patch_8">
    <path d="M 68.991625 273.312 
L 70.603073 273.312 
L 70.603073 255.31626 
L 68.991625 255.31626 
z
" clip-path="url(#pe7f2650111)" style="fill: #1f77b4"/>
   </g>
   <g id="patch_9">
    <path d="M 70.603073 273.312 
L 72.214522 273.312 
L 72.214522 246.318391 
L 70.603073 246.318391 
z
" clip-path="url(#pe7f2650111)" style="fill: #1f77b4"/>
   </g>
   <g id="patch_10">
    <path d="M 72.214522 273.312 
L 73.82597 273.312 
L 73.82597 242.569278 
L 72.214522 242.569278 
z
" clip-path="url(#pe7f2650111)" style="fill: #1f77b4"/>
   </g>
   <g id="patch_11">
    <path d="M 73.82597 273.312 
L 75.437418 273.312 
L 75.437418 236.570698 
L 73.82597 236.570698 
z
" clip-path="url(#pe7f2650111)" style="fill: #1f77b4"/>
   </g>
   <g id="patch_12">
    <path d="M 75.437418 273.312 
L 77.048867 273.312 
L 77.048867 240.319811 
L 75.437418 240.319811 
z
" clip-path="url(#pe7f2650111)" style="fill: #1f77b4"/>
   </g>
   <g id="patch_13">
    <path d="M 77.048867 273.312 
L 78.660315 273.312 
L 78.660315 229.072473 
L 77.048867 229.072473 
z
" clip-path="url(#pe7f2650111)" style="fill: #1f77b4"/>
   </g>
   <g id="patch_14">
    <path d="M 78.660315 273.312 
L 80.271764 273.312 
L 80.271764 237.320521 
L 78.660315 237.320521 
z
" clip-path="url(#pe7f2650111)" style="fill: #1f77b4"/>
   </g>
   <g id="patch_15">
    <path d="M 80.271764 273.312 
L 81.883212 273.312 
L 81.883212 229.822296 
L 80.271764 229.822296 
z
" clip-path="url(#pe7f2650111)" style="fill: #1f77b4"/>
   </g>
   <g id="patch_16">
    <path d="M 81.883212 273.312 
L 83.494661 273.312 
L 83.494661 232.071763 
L 81.883212 232.071763 
z
" clip-path="url(#pe7f2650111)" style="fill: #1f77b4"/>
   </g>
   <g id="patch_17">
    <path d="M 83.494661 273.312 
L 85.106109 273.312 
L 85.106109 222.324071 
L 83.494661 222.324071 
z
" clip-path="url(#pe7f2650111)" style="fill: #1f77b4"/>
   </g>
   <g id="patch_18">
    <path d="M 85.106109 273.312 
L 86.717558 273.312 
L 86.717558 222.324071 
L 85.106109 222.324071 
z
" clip-path="url(#pe7f2650111)" style="fill: #1f77b4"/>
   </g>
   <g id="patch_19">
    <path d="M 86.717558 273.312 
L 88.329006 273.312 
L 88.329006 218.574959 
L 86.717558 218.574959 
z
" clip-path="url(#pe7f2650111)" style="fill: #1f77b4"/>
   </g>
   <g id="patch_20">
    <path d="M 88.329006 273.312 
L 89.940455 273.312 
L 89.940455 208.077444 
L 88.329006 208.077444 
z
" clip-path="url(#pe7f2650111)" style="fill: #1f77b4"/>
   </g>
   <g id="patch_21">
    <path d="M 89.940455 273.312 
L 91.551903 273.312 
L 91.551903 198.329751 
L 89.940455 198.329751 
z
" clip-path="url(#pe7f2650111)" style="fill: #1f77b4"/>
   </g>
   <g id="patch_22">
    <path d="M 91.551903 273.312 
L 93.163352 273.312 
L 93.163352 199.079574 
L 91.551903 199.079574 
z
" clip-path="url(#pe7f2650111)" style="fill: #1f77b4"/>
   </g>
   <g id="patch_23">
    <path d="M 93.163352 273.312 
L 94.7748 273.312 
L 94.7748 209.577089 
L 93.163352 209.577089 
z
" clip-path="url(#pe7f2650111)" style="fill: #1f77b4"/>
   </g>
   <g id="patch_24">
    <path d="M 94.7748 273.312 
L 96.386249 273.312 
L 96.386249 199.079574 
L 94.7748 199.079574 
z
" clip-path="url(#pe7f2650111)" style="fill: #1f77b4"/>
   </g>
   <g id="patch_25">
    <path d="M 96.386249 273.312 
L 97.997697 273.312 
L 97.997697 197.579929 
L 96.386249 197.579929 
z
" clip-path="url(#pe7f2650111)" style="fill: #1f77b4"/>
   </g>
   <g id="patch_26">
    <path d="M 97.997697 273.312 
L 99.609146 273.312 
L 99.609146 187.832237 
L 97.997697 187.832237 
z
" clip-path="url(#pe7f2650111)" style="fill: #1f77b4"/>
   </g>
   <g id="patch_27">
    <path d="M 99.609146 273.312 
L 101.220594 273.312 
L 101.220594 177.334722 
L 99.609146 177.334722 
z
" clip-path="url(#pe7f2650111)" style="fill: #1f77b4"/>
   </g>
   <g id="patch_28">
    <path d="M 101.220594 273.312 
L 102.832043 273.312 
L 102.832043 193.080994 
L 101.220594 193.080994 
z
" clip-path="url(#pe7f2650111)" style="fill: #1f77b4"/>
   </g>
   <g id="patch_29">
    <path d="M 102.832043 273.312 
L 104.443491 273.312 
L 104.443491 181.083834 
L 102.832043 181.083834 
z
" clip-path="url(#pe7f2650111)" style="fill: #1f77b4"/>
   </g>
   <g id="patch_30">
    <path d="M 104.443491 273.312 
L 106.05494 273.312 
L 106.05494 167.58703 
L 104.443491 167.58703 
z
" clip-path="url(#pe7f2650111)" style="fill: #1f77b4"/>
   </g>
   <g id="patch_31">
    <path d="M 106.05494 273.312 
L 107.666388 273.312 
L 107.666388 167.58703 
L 106.05494 167.58703 
z
" clip-path="url(#pe7f2650111)" style="fill: #1f77b4"/>
   </g>
   <g id="patch_32">
    <path d="M 107.666388 273.312 
L 109.277837 273.312 
L 109.277837 174.335432 
L 107.666388 174.335432 
z
" clip-path="url(#pe7f2650111)" style="fill: #1f77b4"/>
   </g>
   <g id="patch_33">
    <path d="M 109.277837 273.312 
L 110.889285 273.312 
L 110.889285 169.836497 
L 109.277837 169.836497 
z
" clip-path="url(#pe7f2650111)" style="fill: #1f77b4"/>
   </g>
   <g id="patch_34">
    <path d="M 110.889285 273.312 
L 112.500734 273.312 
L 112.500734 166.837207 
L 110.889285 166.837207 
z
" clip-path="url(#pe7f2650111)" style="fill: #1f77b4"/>
   </g>
   <g id="patch_35">
    <path d="M 112.500734 273.312 
L 114.112182 273.312 
L 114.112182 157.089515 
L 112.500734 157.089515 
z
" clip-path="url(#pe7f2650111)" style="fill: #1f77b4"/>
   </g>
   <g id="patch_36">
    <path d="M 114.112182 273.312 
L 115.72363 273.312 
L 115.72363 137.59413 
L 114.112182 137.59413 
z
" clip-path="url(#pe7f2650111)" style="fill: #1f77b4"/>
   </g>
   <g id="patch_37">
    <path d="M 115.72363 273.312 
L 117.335079 273.312 
L 117.335079 148.841467 
L 115.72363 148.841467 
z
" clip-path="url(#pe7f2650111)" style="fill: #1f77b4"/>
   </g>
   <g id="patch_38">
    <path d="M 117.335079 273.312 
L 118.946527 273.312 
L 118.946527 155.58987 
L 117.335079 155.58987 
z
" clip-path="url(#pe7f2650111)" style="fill: #1f77b4"/>
   </g>
   <g id="patch_39">
    <path d="M 118.946527 273.312 
L 120.557976 273.312 
L 120.557976 148.091645 
L 118.946527 148.091645 
z
" clip-path="url(#pe7f2650111)" style="fill: #1f77b4"/>
   </g>
   <g id="patch_40">
    <path d="M 120.557976 273.312 
L 122.169424 273.312 
L 122.169424 142.093065 
L 120.557976 142.093065 
z
" clip-path="url(#pe7f2650111)" style="fill: #1f77b4"/>
   </g>
   <g id="patch_41">
    <path d="M 122.169424 273.312 
L 123.780873 273.312 
L 123.780873 122.59768 
L 122.169424 122.59768 
z
" clip-path="url(#pe7f2650111)" style="fill: #1f77b4"/>
   </g>
   <g id="patch_42">
    <path d="M 123.780873 273.312 
L 125.392321 273.312 
L 125.392321 131.59555 
L 123.780873 131.59555 
z
" clip-path="url(#pe7f2650111)" style="fill: #1f77b4"/>
   </g>
   <g id="patch_43">
    <path d="M 125.392321 273.312 
L 127.00377 273.312 
L 127.00377 133.095195 
L 125.392321 133.095195 
z
" clip-path="url(#pe7f2650111)" style="fill: #1f77b4"/>
   </g>
   <g id="patch_44">
    <path d="M 127.00377 273.312 
L 128.615218 273.312 
L 128.615218 149.59129 
L 127.00377 149.59129 
z
" clip-path="url(#pe7f2650111)" style="fill: #1f77b4"/>
   </g>
   <g id="patch_45">
    <path d="M 128.615218 273.312 
L 130.226667 273.312 
L 130.226667 127.846438 
L 128.615218 127.846438 
z
" clip-path="url(#pe7f2650111)" style="fill: #1f77b4"/>
   </g>
   <g id="patch_46">
    <path d="M 130.226667 273.312 
L 131.838115 273.312 
L 131.838115 132.345373 
L 130.226667 132.345373 
z
" clip-path="url(#pe7f2650111)" style="fill: #1f77b4"/>
   </g>
   <g id="patch_47">
    <path d="M 131.838115 273.312 
L 133.449564 273.312 
L 133.449564 124.847148 
L 131.838115 124.847148 
z
" clip-path="url(#pe7f2650111)" style="fill: #1f77b4"/>
   </g>
   <g id="patch_48">
    <path d="M 133.449564 273.312 
L 135.061012 273.312 
L 135.061012 121.098036 
L 133.449564 121.098036 
z
" clip-path="url(#pe7f2650111)" style="fill: #1f77b4"/>
   </g>
   <g id="patch_49">
    <path d="M 135.061012 273.312 
L 136.672461 273.312 
L 136.672461 125.59697 
L 135.061012 125.59697 
z
" clip-path="url(#pe7f2650111)" style="fill: #1f77b4"/>
   </g>
   <g id="patch_50">
    <path d="M 136.672461 273.312 
L 138.283909 273.312 
L 138.283909 121.098036 
L 136.672461 121.098036 
z
" clip-path="url(#pe7f2650111)" style="fill: #1f77b4"/>
   </g>
   <g id="patch_51">
    <path d="M 138.283909 273.312 
L 139.895358 273.312 
L 139.895358 111.350343 
L 138.283909 111.350343 
z
" clip-path="url(#pe7f2650111)" style="fill: #1f77b4"/>
   </g>
   <g id="patch_52">
    <path d="M 139.895358 273.312 
L 141.506806 273.312 
L 141.506806 106.851408 
L 139.895358 106.851408 
z
" clip-path="url(#pe7f2650111)" style="fill: #1f77b4"/>
   </g>
   <g id="patch_53">
    <path d="M 141.506806 273.312 
L 143.118255 273.312 
L 143.118255 110.600521 
L 141.506806 110.600521 
z
" clip-path="url(#pe7f2650111)" style="fill: #1f77b4"/>
   </g>
   <g id="patch_54">
    <path d="M 143.118255 273.312 
L 144.729703 273.312 
L 144.729703 121.098036 
L 143.118255 121.098036 
z
" clip-path="url(#pe7f2650111)" style="fill: #1f77b4"/>
   </g>
   <g id="patch_55">
    <path d="M 144.729703 273.312 
L 146.341152 273.312 
L 146.341152 116.599101 
L 144.729703 116.599101 
z
" clip-path="url(#pe7f2650111)" style="fill: #1f77b4"/>
   </g>
   <g id="patch_56">
    <path d="M 146.341152 273.312 
L 147.9526 273.312 
L 147.9526 115.099456 
L 146.341152 115.099456 
z
" clip-path="url(#pe7f2650111)" style="fill: #1f77b4"/>
   </g>
   <g id="patch_57">
    <path d="M 147.9526 273.312 
L 149.564049 273.312 
L 149.564049 97.103716 
L 147.9526 97.103716 
z
" clip-path="url(#pe7f2650111)" style="fill: #1f77b4"/>
   </g>
   <g id="patch_58">
    <path d="M 149.564049 273.312 
L 151.175497 273.312 
L 151.175497 99.353183 
L 149.564049 99.353183 
z
" clip-path="url(#pe7f2650111)" style="fill: #1f77b4"/>
   </g>
   <g id="patch_59">
    <path d="M 151.175497 273.312 
L 152.786946 273.312 
L 152.786946 97.103716 
L 151.175497 97.103716 
z
" clip-path="url(#pe7f2650111)" style="fill: #1f77b4"/>
   </g>
   <g id="patch_60">
    <path d="M 152.786946 273.312 
L 154.398394 273.312 
L 154.398394 106.101586 
L 152.786946 106.101586 
z
" clip-path="url(#pe7f2650111)" style="fill: #1f77b4"/>
   </g>
   <g id="patch_61">
    <path d="M 154.398394 273.312 
L 156.009843 273.312 
L 156.009843 80.607621 
L 154.398394 80.607621 
z
" clip-path="url(#pe7f2650111)" style="fill: #1f77b4"/>
   </g>
   <g id="patch_62">
    <path d="M 156.009843 273.312 
L 157.621291 273.312 
L 157.621291 100.103006 
L 156.009843 100.103006 
z
" clip-path="url(#pe7f2650111)" style="fill: #1f77b4"/>
   </g>
   <g id="patch_63">
    <path d="M 157.621291 273.312 
L 159.232739 273.312 
L 159.232739 53.614012 
L 157.621291 53.614012 
z
" clip-path="url(#pe7f2650111)" style="fill: #1f77b4"/>
   </g>
   <g id="patch_64">
    <path d="M 159.232739 273.312 
L 160.844188 273.312 
L 160.844188 91.854959 
L 159.232739 91.854959 
z
" clip-path="url(#pe7f2650111)" style="fill: #1f77b4"/>
   </g>
   <g id="patch_65">
    <path d="M 160.844188 273.312 
L 162.455636 273.312 
L 162.455636 106.851408 
L 160.844188 106.851408 
z
" clip-path="url(#pe7f2650111)" style="fill: #1f77b4"/>
   </g>
   <g id="patch_66">
    <path d="M 162.455636 273.312 
L 164.067085 273.312 
L 164.067085 64.111527 
L 162.455636 64.111527 
z
" clip-path="url(#pe7f2650111)" style="fill: #1f77b4"/>
   </g>
   <g id="patch_67">
    <path d="M 164.067085 273.312 
L 165.678533 273.312 
L 165.678533 91.854959 
L 164.067085 91.854959 
z
" clip-path="url(#pe7f2650111)" style="fill: #1f77b4"/>
   </g>
   <g id="patch_68">
    <path d="M 165.678533 273.312 
L 167.289982 273.312 
L 167.289982 67.110817 
L 165.678533 67.110817 
z
" clip-path="url(#pe7f2650111)" style="fill: #1f77b4"/>
   </g>
   <g id="patch_69">
    <path d="M 167.289982 273.312 
L 168.90143 273.312 
L 168.90143 70.110107 
L 167.289982 70.110107 
z
" clip-path="url(#pe7f2650111)" style="fill: #1f77b4"/>
   </g>
   <g id="patch_70">
    <path d="M 168.90143 273.312 
L 170.512879 273.312 
L 170.512879 61.112237 
L 168.90143 61.112237 
z
" clip-path="url(#pe7f2650111)" style="fill: #1f77b4"/>
   </g>
   <g id="patch_71">
    <path d="M 170.512879 273.312 
L 172.124327 273.312 
L 172.124327 73.859219 
L 170.512879 73.859219 
z
" clip-path="url(#pe7f2650111)" style="fill: #1f77b4"/>
   </g>
   <g id="patch_72">
    <path d="M 172.124327 273.312 
L 173.735776 273.312 
L 173.735776 39.367385 
L 172.124327 39.367385 
z
" clip-path="url(#pe7f2650111)" style="fill: #1f77b4"/>
   </g>
   <g id="patch_73">
    <path d="M 173.735776 273.312 
L 175.347224 273.312 
L 175.347224 88.105846 
L 173.735776 88.105846 
z
" clip-path="url(#pe7f2650111)" style="fill: #1f77b4"/>
   </g>
   <g id="patch_74">
    <path d="M 175.347224 273.312 
L 176.958673 273.312 
L 176.958673 68.610462 
L 175.347224 68.610462 
z
" clip-path="url(#pe7f2650111)" style="fill: #1f77b4"/>
   </g>
   <g id="patch_75">
    <path d="M 176.958673 273.312 
L 178.570121 273.312 
L 178.570121 58.862769 
L 176.958673 58.862769 
z
" clip-path="url(#pe7f2650111)" style="fill: #1f77b4"/>
   </g>
   <g id="patch_76">
    <path d="M 178.570121 273.312 
L 180.18157 273.312 
L 180.18157 55.863479 
L 178.570121 55.863479 
z
" clip-path="url(#pe7f2650111)" style="fill: #1f77b4"/>
   </g>
   <g id="patch_77">
    <path d="M 180.18157 273.312 
L 181.793018 273.312 
L 181.793018 75.358864 
L 180.18157 75.358864 
z
" clip-path="url(#pe7f2650111)" style="fill: #1f77b4"/>
   </g>
   <g id="patch_78">
    <path d="M 181.793018 273.312 
L 183.404467 273.312 
L 183.404467 45.365964 
L 181.793018 45.365964 
z
" clip-path="url(#pe7f2650111)" style="fill: #1f77b4"/>
   </g>
   <g id="patch_79">
    <path d="M 183.404467 273.312 
L 185.015915 273.312 
L 185.015915 51.364544 
L 183.404467 51.364544 
z
" clip-path="url(#pe7f2650111)" style="fill: #1f77b4"/>
   </g>
   <g id="patch_80">
    <path d="M 185.015915 273.312 
L 186.627364 273.312 
L 186.627364 33.368805 
L 185.015915 33.368805 
z
" clip-path="url(#pe7f2650111)" style="fill: #1f77b4"/>
   </g>
   <g id="patch_81">
    <path d="M 186.627364 273.312 
L 188.238812 273.312 
L 188.238812 52.864189 
L 186.627364 52.864189 
z
" clip-path="url(#pe7f2650111)" style="fill: #1f77b4"/>
   </g>
   <g id="patch_82">
    <path d="M 188.238812 273.312 
L 189.850261 273.312 
L 189.850261 54.363834 
L 188.238812 54.363834 
z
" clip-path="url(#pe7f2650111)" style="fill: #1f77b4"/>
   </g>
   <g id="patch_83">
    <path d="M 189.850261 273.312 
L 191.461709 273.312 
L 191.461709 35.618272 
L 189.850261 35.618272 
z
" clip-path="url(#pe7f2650111)" style="fill: #1f77b4"/>
   </g>
   <g id="patch_84">
    <path d="M 191.461709 273.312 
L 193.073158 273.312 
L 193.073158 40.117207 
L 191.461709 40.117207 
z
" clip-path="url(#pe7f2650111)" style="fill: #1f77b4"/>
   </g>
   <g id="patch_85">
    <path d="M 193.073158 273.312 
L 194.684606 273.312 
L 194.684606 52.114367 
L 193.073158 52.114367 
z
" clip-path="url(#pe7f2650111)" style="fill: #1f77b4"/>
   </g>
   <g id="patch_86">
    <path d="M 194.684606 273.312 
L 196.296055 273.312 
L 196.296055 41.616852 
L 194.684606 41.616852 
z
" clip-path="url(#pe7f2650111)" style="fill: #1f77b4"/>
   </g>
   <g id="patch_87">
    <path d="M 196.296055 273.312 
L 197.907503 273.312 
L 197.907503 52.114367 
L 196.296055 52.114367 
z
" clip-path="url(#pe7f2650111)" style="fill: #1f77b4"/>
   </g>
   <g id="patch_88">
    <path d="M 197.907503 273.312 
L 199.518951 273.312 
L 199.518951 19.872 
L 197.907503 19.872 
z
" clip-path="url(#pe7f2650111)" style="fill: #1f77b4"/>
   </g>
   <g id="patch_89">
    <path d="M 199.518951 273.312 
L 201.1304 273.312 
L 201.1304 27.370225 
L 199.518951 27.370225 
z
" clip-path="url(#pe7f2650111)" style="fill: #1f77b4"/>
   </g>
   <g id="patch_90">
    <path d="M 201.1304 273.312 
L 202.741848 273.312 
L 202.741848 55.863479 
L 201.1304 55.863479 
z
" clip-path="url(#pe7f2650111)" style="fill: #1f77b4"/>
   </g>
   <g id="patch_91">
    <path d="M 202.741848 273.312 
L 204.353297 273.312 
L 204.353297 32.618982 
L 202.741848 32.618982 
z
" clip-path="url(#pe7f2650111)" style="fill: #1f77b4"/>
   </g>
   <g id="patch_92">
    <path d="M 204.353297 273.312 
L 205.964745 273.312 
L 205.964745 52.114367 
L 204.353297 52.114367 
z
" clip-path="url(#pe7f2650111)" style="fill: #1f77b4"/>
   </g>
   <g id="patch_93">
    <path d="M 205.964745 273.312 
L 207.576194 273.312 
L 207.576194 51.364544 
L 205.964745 51.364544 
z
" clip-path="url(#pe7f2650111)" style="fill: #1f77b4"/>
   </g>
   <g id="patch_94">
    <path d="M 207.576194 273.312 
L 209.187642 273.312 
L 209.187642 38.617562 
L 207.576194 38.617562 
z
" clip-path="url(#pe7f2650111)" style="fill: #1f77b4"/>
   </g>
   <g id="patch_95">
    <path d="M 209.187642 273.312 
L 210.799091 273.312 
L 210.799091 31.86916 
L 209.187642 31.86916 
z
" clip-path="url(#pe7f2650111)" style="fill: #1f77b4"/>
   </g>
   <g id="patch_96">
    <path d="M 210.799091 273.312 
L 212.410539 273.312 
L 212.410539 39.367385 
L 210.799091 39.367385 
z
" clip-path="url(#pe7f2650111)" style="fill: #1f77b4"/>
   </g>
   <g id="patch_97">
    <path d="M 212.410539 273.312 
L 214.021988 273.312 
L 214.021988 27.370225 
L 212.410539 27.370225 
z
" clip-path="url(#pe7f2650111)" style="fill: #1f77b4"/>
   </g>
   <g id="patch_98">
    <path d="M 214.021988 273.312 
L 215.633436 273.312 
L 215.633436 29.619692 
L 214.021988 29.619692 
z
" clip-path="url(#pe7f2650111)" style="fill: #1f77b4"/>
   </g>
   <g id="patch_99">
    <path d="M 215.633436 273.312 
L 217.244885 273.312 
L 217.244885 30.369515 
L 215.633436 30.369515 
z
" clip-path="url(#pe7f2650111)" style="fill: #1f77b4"/>
   </g>
   <g id="patch_100">
    <path d="M 217.244885 273.312 
L 218.856333 273.312 
L 218.856333 30.369515 
L 217.244885 30.369515 
z
" clip-path="url(#pe7f2650111)" style="fill: #1f77b4"/>
   </g>
   <g id="patch_101">
    <path d="M 218.856333 273.312 
L 220.467782 273.312 
L 220.467782 57.363124 
L 218.856333 57.363124 
z
" clip-path="url(#pe7f2650111)" style="fill: #1f77b4"/>
   </g>
   <g id="patch_102">
    <path d="M 220.467782 273.312 
L 222.07923 273.312 
L 222.07923 53.614012 
L 220.467782 53.614012 
z
" clip-path="url(#pe7f2650111)" style="fill: #1f77b4"/>
   </g>
   <g id="patch_103">
    <path d="M 222.07923 273.312 
L 223.690679 273.312 
L 223.690679 40.117207 
L 222.07923 40.117207 
z
" clip-path="url(#pe7f2650111)" style="fill: #1f77b4"/>
   </g>
   <g id="patch_104">
    <path d="M 223.690679 273.312 
L 225.302127 273.312 
L 225.302127 38.617562 
L 223.690679 38.617562 
z
" clip-path="url(#pe7f2650111)" style="fill: #1f77b4"/>
   </g>
   <g id="patch_105">
    <path d="M 225.302127 273.312 
L 226.913576 273.312 
L 226.913576 43.116497 
L 225.302127 43.116497 
z
" clip-path="url(#pe7f2650111)" style="fill: #1f77b4"/>
   </g>
   <g id="patch_106">
    <path d="M 226.913576 273.312 
L 228.525024 273.312 
L 228.525024 24.370935 
L 226.913576 24.370935 
z
" clip-path="url(#pe7f2650111)" style="fill: #1f77b4"/>
   </g>
   <g id="patch_107">
    <path d="M 228.525024 273.312 
L 230.136473 273.312 
L 230.136473 52.114367 
L 228.525024 52.114367 
z
" clip-path="url(#pe7f2650111)" style="fill: #1f77b4"/>
   </g>
   <g id="patch_108">
    <path d="M 230.136473 273.312 
L 231.747921 273.312 
L 231.747921 40.86703 
L 230.136473 40.86703 
z
" clip-path="url(#pe7f2650111)" style="fill: #1f77b4"/>
   </g>
   <g id="patch_109">
    <path d="M 231.747921 273.312 
L 233.35937 273.312 
L 233.35937 27.370225 
L 231.747921 27.370225 
z
" clip-path="url(#pe7f2650111)" style="fill: #1f77b4"/>
   </g>
   <g id="patch_110">
    <path d="M 233.35937 273.312 
L 234.970818 273.312 
L 234.970818 36.368095 
L 233.35937 36.368095 
z
" clip-path="url(#pe7f2650111)" style="fill: #1f77b4"/>
   </g>
   <g id="patch_111">
    <path d="M 234.970818 273.312 
L 236.582267 273.312 
L 236.582267 32.618982 
L 234.970818 32.618982 
z
" clip-path="url(#pe7f2650111)" style="fill: #1f77b4"/>
   </g>
   <g id="patch_112">
    <path d="M 236.582267 273.312 
L 238.193715 273.312 
L 238.193715 43.116497 
L 236.582267 43.116497 
z
" clip-path="url(#pe7f2650111)" style="fill: #1f77b4"/>
   </g>
   <g id="patch_113">
    <path d="M 238.193715 273.312 
L 239.805163 273.312 
L 239.805163 22.121467 
L 238.193715 22.121467 
z
" clip-path="url(#pe7f2650111)" style="fill: #1f77b4"/>
   </g>
   <g id="patch_114">
    <path d="M 239.805163 273.312 
L 241.416612 273.312 
L 241.416612 41.616852 
L 239.805163 41.616852 
z
" clip-path="url(#pe7f2650111)" style="fill: #1f77b4"/>
   </g>
   <g id="patch_115">
    <path d="M 241.416612 273.312 
L 243.02806 273.312 
L 243.02806 49.864899 
L 241.416612 49.864899 
z
" clip-path="url(#pe7f2650111)" style="fill: #1f77b4"/>
   </g>
   <g id="patch_116">
    <path d="M 243.02806 273.312 
L 244.639509 273.312 
L 244.639509 46.865609 
L 243.02806 46.865609 
z
" clip-path="url(#pe7f2650111)" style="fill: #1f77b4"/>
   </g>
   <g id="patch_117">
    <path d="M 244.639509 273.312 
L 246.250957 273.312 
L 246.250957 55.113657 
L 244.639509 55.113657 
z
" clip-path="url(#pe7f2650111)" style="fill: #1f77b4"/>
   </g>
   <g id="patch_118">
    <path d="M 246.250957 273.312 
L 247.862406 273.312 
L 247.862406 49.864899 
L 246.250957 49.864899 
z
" clip-path="url(#pe7f2650111)" style="fill: #1f77b4"/>
   </g>
   <g id="patch_119">
    <path d="M 247.862406 273.312 
L 249.473854 273.312 
L 249.473854 47.615432 
L 247.862406 47.615432 
z
" clip-path="url(#pe7f2650111)" style="fill: #1f77b4"/>
   </g>
   <g id="patch_120">
    <path d="M 249.473854 273.312 
L 251.085303 273.312 
L 251.085303 37.117917 
L 249.473854 37.117917 
z
" clip-path="url(#pe7f2650111)" style="fill: #1f77b4"/>
   </g>
   <g id="patch_121">
    <path d="M 251.085303 273.312 
L 252.696751 273.312 
L 252.696751 43.116497 
L 251.085303 43.116497 
z
" clip-path="url(#pe7f2650111)" style="fill: #1f77b4"/>
   </g>
   <g id="patch_122">
    <path d="M 252.696751 273.312 
L 254.3082 273.312 
L 254.3082 42.366675 
L 252.696751 42.366675 
z
" clip-path="url(#pe7f2650111)" style="fill: #1f77b4"/>
   </g>
   <g id="patch_123">
    <path d="M 254.3082 273.312 
L 255.919648 273.312 
L 255.919648 57.363124 
L 254.3082 57.363124 
z
" clip-path="url(#pe7f2650111)" style="fill: #1f77b4"/>
   </g>
   <g id="patch_124">
    <path d="M 255.919648 273.312 
L 257.531097 273.312 
L 257.531097 72.359574 
L 255.919648 72.359574 
z
" clip-path="url(#pe7f2650111)" style="fill: #1f77b4"/>
   </g>
   <g id="patch_125">
    <path d="M 257.531097 273.312 
L 259.142545 273.312 
L 259.142545 64.861349 
L 257.531097 64.861349 
z
" clip-path="url(#pe7f2650111)" style="fill: #1f77b4"/>
   </g>
   <g id="patch_126">
    <path d="M 259.142545 273.312 
L 260.753994 273.312 
L 260.753994 62.611882 
L 259.142545 62.611882 
z
" clip-path="url(#pe7f2650111)" style="fill: #1f77b4"/>
   </g>
   <g id="patch_127">
    <path d="M 260.753994 273.312 
L 262.365442 273.312 
L 262.365442 51.364544 
L 260.753994 51.364544 
z
" clip-path="url(#pe7f2650111)" style="fill: #1f77b4"/>
   </g>
   <g id="patch_128">
    <path d="M 262.365442 273.312 
L 263.976891 273.312 
L 263.976891 58.862769 
L 262.365442 58.862769 
z
" clip-path="url(#pe7f2650111)" style="fill: #1f77b4"/>
   </g>
   <g id="patch_129">
    <path d="M 263.976891 273.312 
L 265.588339 273.312 
L 265.588339 33.368805 
L 263.976891 33.368805 
z
" clip-path="url(#pe7f2650111)" style="fill: #1f77b4"/>
   </g>
   <g id="patch_130">
    <path d="M 265.588339 273.312 
L 267.199788 273.312 
L 267.199788 53.614012 
L 265.588339 53.614012 
z
" clip-path="url(#pe7f2650111)" style="fill: #1f77b4"/>
   </g>
   <g id="patch_131">
    <path d="M 267.199788 273.312 
L 268.811236 273.312 
L 268.811236 55.113657 
L 267.199788 55.113657 
z
" clip-path="url(#pe7f2650111)" style="fill: #1f77b4"/>
   </g>
   <g id="patch_132">
    <path d="M 268.811236 273.312 
L 270.422685 273.312 
L 270.422685 66.360994 
L 268.811236 66.360994 
z
" clip-path="url(#pe7f2650111)" style="fill: #1f77b4"/>
   </g>
   <g id="patch_133">
    <path d="M 270.422685 273.312 
L 272.034133 273.312 
L 272.034133 82.107266 
L 270.422685 82.107266 
z
" clip-path="url(#pe7f2650111)" style="fill: #1f77b4"/>
   </g>
   <g id="patch_134">
    <path d="M 272.034133 273.312 
L 273.645582 273.312 
L 273.645582 67.860639 
L 272.034133 67.860639 
z
" clip-path="url(#pe7f2650111)" style="fill: #1f77b4"/>
   </g>
   <g id="patch_135">
    <path d="M 273.645582 273.312 
L 275.25703 273.312 
L 275.25703 66.360994 
L 273.645582 66.360994 
z
" clip-path="url(#pe7f2650111)" style="fill: #1f77b4"/>
   </g>
   <g id="patch_136">
    <path d="M 275.25703 273.312 
L 276.868479 273.312 
L 276.868479 73.859219 
L 275.25703 73.859219 
z
" clip-path="url(#pe7f2650111)" style="fill: #1f77b4"/>
   </g>
   <g id="patch_137">
    <path d="M 276.868479 273.312 
L 278.479927 273.312 
L 278.479927 71.609751 
L 276.868479 71.609751 
z
" clip-path="url(#pe7f2650111)" style="fill: #1f77b4"/>
   </g>
   <g id="patch_138">
    <path d="M 278.479927 273.312 
L 280.091376 273.312 
L 280.091376 72.359574 
L 278.479927 72.359574 
z
" clip-path="url(#pe7f2650111)" style="fill: #1f77b4"/>
   </g>
   <g id="patch_139">
    <path d="M 280.091376 273.312 
L 281.702824 273.312 
L 281.702824 79.857799 
L 280.091376 79.857799 
z
" clip-path="url(#pe7f2650111)" style="fill: #1f77b4"/>
   </g>
   <g id="patch_140">
    <path d="M 281.702824 273.312 
L 283.314272 273.312 
L 283.314272 60.362414 
L 281.702824 60.362414 
z
" clip-path="url(#pe7f2650111)" style="fill: #1f77b4"/>
   </g>
   <g id="patch_141">
    <path d="M 283.314272 273.312 
L 284.925721 273.312 
L 284.925721 73.859219 
L 283.314272 73.859219 
z
" clip-path="url(#pe7f2650111)" style="fill: #1f77b4"/>
   </g>
   <g id="patch_142">
    <path d="M 284.925721 273.312 
L 286.537169 273.312 
L 286.537169 82.107266 
L 284.925721 82.107266 
z
" clip-path="url(#pe7f2650111)" style="fill: #1f77b4"/>
   </g>
   <g id="patch_143">
    <path d="M 286.537169 273.312 
L 288.148618 273.312 
L 288.148618 87.356024 
L 286.537169 87.356024 
z
" clip-path="url(#pe7f2650111)" style="fill: #1f77b4"/>
   </g>
   <g id="patch_144">
    <path d="M 288.148618 273.312 
L 289.760066 273.312 
L 289.760066 70.859929 
L 288.148618 70.859929 
z
" clip-path="url(#pe7f2650111)" style="fill: #1f77b4"/>
   </g>
   <g id="patch_145">
    <path d="M 289.760066 273.312 
L 291.371515 273.312 
L 291.371515 91.854959 
L 289.760066 91.854959 
z
" clip-path="url(#pe7f2650111)" style="fill: #1f77b4"/>
   </g>
   <g id="patch_146">
    <path d="M 291.371515 273.312 
L 292.982963 273.312 
L 292.982963 96.353893 
L 291.371515 96.353893 
z
" clip-path="url(#pe7f2650111)" style="fill: #1f77b4"/>
   </g>
   <g id="patch_147">
    <path d="M 292.982963 273.312 
L 294.594412 273.312 
L 294.594412 88.855669 
L 292.982963 88.855669 
z
" clip-path="url(#pe7f2650111)" style="fill: #1f77b4"/>
   </g>
   <g id="patch_148">
    <path d="M 294.594412 273.312 
L 296.20586 273.312 
L 296.20586 100.852828 
L 294.594412 100.852828 
z
" clip-path="url(#pe7f2650111)" style="fill: #1f77b4"/>
   </g>
   <g id="patch_149">
    <path d="M 296.20586 273.312 
L 297.817309 273.312 
L 297.817309 102.352473 
L 296.20586 102.352473 
z
" clip-path="url(#pe7f2650111)" style="fill: #1f77b4"/>
   </g>
   <g id="patch_150">
    <path d="M 297.817309 273.312 
L 299.428757 273.312 
L 299.428757 92.604781 
L 297.817309 92.604781 
z
" clip-path="url(#pe7f2650111)" style="fill: #1f77b4"/>
   </g>
   <g id="patch_151">
    <path d="M 299.428757 273.312 
L 301.040206 273.312 
L 301.040206 107.601231 
L 299.428757 107.601231 
z
" clip-path="url(#pe7f2650111)" style="fill: #1f77b4"/>
   </g>
   <g id="patch_152">
    <path d="M 301.040206 273.312 
L 302.651654 273.312 
L 302.651654 111.350343 
L 301.040206 111.350343 
z
" clip-path="url(#pe7f2650111)" style="fill: #1f77b4"/>
   </g>
   <g id="patch_153">
    <path d="M 302.651654 273.312 
L 304.263103 273.312 
L 304.263103 92.604781 
L 302.651654 92.604781 
z
" clip-path="url(#pe7f2650111)" style="fill: #1f77b4"/>
   </g>
   <g id="patch_154">
    <path d="M 304.263103 273.312 
L 305.874551 273.312 
L 305.874551 116.599101 
L 304.263103 116.599101 
z
" clip-path="url(#pe7f2650111)" style="fill: #1f77b4"/>
   </g>
   <g id="patch_155">
    <path d="M 305.874551 273.312 
L 307.486 273.312 
L 307.486 109.100876 
L 305.874551 109.100876 
z
" clip-path="url(#pe7f2650111)" style="fill: #1f77b4"/>
   </g>
   <g id="patch_156">
    <path d="M 307.486 273.312 
L 309.097448 273.312 
L 309.097448 118.098746 
L 307.486 118.098746 
z
" clip-path="url(#pe7f2650111)" style="fill: #1f77b4"/>
   </g>
   <g id="patch_157">
    <path d="M 309.097448 273.312 
L 310.708897 273.312 
L 310.708897 101.602651 
L 309.097448 101.602651 
z
" clip-path="url(#pe7f2650111)" style="fill: #1f77b4"/>
   </g>
   <g id="patch_158">
    <path d="M 310.708897 273.312 
L 312.320345 273.312 
L 312.320345 106.851408 
L 310.708897 106.851408 
z
" clip-path="url(#pe7f2650111)" style="fill: #1f77b4"/>
   </g>
   <g id="patch_159">
    <path d="M 312.320345 273.312 
L 313.931794 273.312 
L 313.931794 113.599811 
L 312.320345 113.599811 
z
" clip-path="url(#pe7f2650111)" style="fill: #1f77b4"/>
   </g>
   <g id="patch_160">
    <path d="M 313.931794 273.312 
L 315.543242 273.312 
L 315.543242 121.098036 
L 313.931794 121.098036 
z
" clip-path="url(#pe7f2650111)" style="fill: #1f77b4"/>
   </g>
   <g id="patch_161">
    <path d="M 315.543242 273.312 
L 317.154691 273.312 
L 317.154691 146.592 
L 315.543242 146.592 
z
" clip-path="url(#pe7f2650111)" style="fill: #1f77b4"/>
   </g>
   <g id="patch_162">
    <path d="M 317.154691 273.312 
L 318.766139 273.312 
L 318.766139 132.345373 
L 317.154691 132.345373 
z
" clip-path="url(#pe7f2650111)" style="fill: #1f77b4"/>
   </g>
   <g id="patch_163">
    <path d="M 318.766139 273.312 
L 320.377588 273.312 
L 320.377588 128.59626 
L 318.766139 128.59626 
z
" clip-path="url(#pe7f2650111)" style="fill: #1f77b4"/>
   </g>
   <g id="patch_164">
    <path d="M 320.377588 273.312 
L 321.989036 273.312 
L 321.989036 144.342533 
L 320.377588 144.342533 
z
" clip-path="url(#pe7f2650111)" style="fill: #1f77b4"/>
   </g>
   <g id="patch_165">
    <path d="M 321.989036 273.312 
L 323.600484 273.312 
L 323.600484 142.093065 
L 321.989036 142.093065 
z
" clip-path="url(#pe7f2650111)" style="fill: #1f77b4"/>
   </g>
   <g id="patch_166">
    <path d="M 323.600484 273.312 
L 325.211933 273.312 
L 325.211933 126.346793 
L 323.600484 126.346793 
z
" clip-path="url(#pe7f2650111)" style="fill: #1f77b4"/>
   </g>
   <g id="patch_167">
    <path d="M 325.211933 273.312 
L 326.823381 273.312 
L 326.823381 133.095195 
L 325.211933 133.095195 
z
" clip-path="url(#pe7f2650111)" style="fill: #1f77b4"/>
   </g>
   <g id="patch_168">
    <path d="M 326.823381 273.312 
L 328.43483 273.312 
L 328.43483 136.094485 
L 326.823381 136.094485 
z
" clip-path="url(#pe7f2650111)" style="fill: #1f77b4"/>
   </g>
   <g id="patch_169">
    <path d="M 328.43483 273.312 
L 330.046278 273.312 
L 330.046278 151.090935 
L 328.43483 151.090935 
z
" clip-path="url(#pe7f2650111)" style="fill: #1f77b4"/>
   </g>
   <g id="patch_170">
    <path d="M 330.046278 273.312 
L 331.657727 273.312 
L 331.657727 154.840047 
L 330.046278 154.840047 
z
" clip-path="url(#pe7f2650111)" style="fill: #1f77b4"/>
   </g>
   <g id="patch_171">
    <path d="M 331.657727 273.312 
L 333.269175 273.312 
L 333.269175 160.838627 
L 331.657727 160.838627 
z
" clip-path="url(#pe7f2650111)" style="fill: #1f77b4"/>
   </g>
   <g id="patch_172">
    <path d="M 333.269175 273.312 
L 334.880624 273.312 
L 334.880624 153.340402 
L 333.269175 153.340402 
z
" clip-path="url(#pe7f2650111)" style="fill: #1f77b4"/>
   </g>
   <g id="patch_173">
    <path d="M 334.880624 273.312 
L 336.492072 273.312 
L 336.492072 183.333302 
L 334.880624 183.333302 
z
" clip-path="url(#pe7f2650111)" style="fill: #1f77b4"/>
   </g>
   <g id="patch_174">
    <path d="M 336.492072 273.312 
L 338.103521 273.312 
L 338.103521 176.584899 
L 336.492072 176.584899 
z
" clip-path="url(#pe7f2650111)" style="fill: #1f77b4"/>
   </g>
   <g id="patch_175">
    <path d="M 338.103521 273.312 
L 339.714969 273.312 
L 339.714969 165.337562 
L 338.103521 165.337562 
z
" clip-path="url(#pe7f2650111)" style="fill: #1f77b4"/>
   </g>
   <g id="patch_176">
    <path d="M 339.714969 273.312 
L 341.326418 273.312 
L 341.326418 178.834367 
L 339.714969 178.834367 
z
" clip-path="url(#pe7f2650111)" style="fill: #1f77b4"/>
   </g>
   <g id="patch_177">
    <path d="M 341.326418 273.312 
L 342.937866 273.312 
L 342.937866 184.832947 
L 341.326418 184.832947 
z
" clip-path="url(#pe7f2650111)" style="fill: #1f77b4"/>
   </g>
   <g id="patch_178">
    <path d="M 342.937866 273.312 
L 344.549315 273.312 
L 344.549315 187.832237 
L 342.937866 187.832237 
z
" clip-path="url(#pe7f2650111)" style="fill: #1f77b4"/>
   </g>
   <g id="patch_179">
    <path d="M 344.549315 273.312 
L 346.160763 273.312 
L 346.160763 196.080284 
L 344.549315 196.080284 
z
" clip-path="url(#pe7f2650111)" style="fill: #1f77b4"/>
   </g>
   <g id="patch_180">
    <path d="M 346.160763 273.312 
L 347.772212 273.312 
L 347.772212 187.082414 
L 346.160763 187.082414 
z
" clip-path="url(#pe7f2650111)" style="fill: #1f77b4"/>
   </g>
   <g id="patch_181">
    <path d="M 347.772212 273.312 
L 349.38366 273.312 
L 349.38366 208.827266 
L 347.772212 208.827266 
z
" clip-path="url(#pe7f2650111)" style="fill: #1f77b4"/>
   </g>
   <g id="patch_182">
    <path d="M 349.38366 273.312 
L 350.995109 273.312 
L 350.995109 190.831527 
L 349.38366 190.831527 
z
" clip-path="url(#pe7f2650111)" style="fill: #1f77b4"/>
   </g>
   <g id="patch_183">
    <path d="M 350.995109 273.312 
L 352.606557 273.312 
L 352.606557 193.080994 
L 350.995109 193.080994 
z
" clip-path="url(#pe7f2650111)" style="fill: #1f77b4"/>
   </g>
   <g id="patch_184">
    <path d="M 352.606557 273.312 
L 354.218006 273.312 
L 354.218006 207.327621 
L 352.606557 207.327621 
z
" clip-path="url(#pe7f2650111)" style="fill: #1f77b4"/>
   </g>
   <g id="patch_185">
    <path d="M 354.218006 273.312 
L 355.829454 273.312 
L 355.829454 208.077444 
L 354.218006 208.077444 
z
" clip-path="url(#pe7f2650111)" style="fill: #1f77b4"/>
   </g>
   <g id="patch_186">
    <path d="M 355.829454 273.312 
L 357.440903 273.312 
L 357.440903 213.326201 
L 355.829454 213.326201 
z
" clip-path="url(#pe7f2650111)" style="fill: #1f77b4"/>
   </g>
   <g id="patch_187">
    <path d="M 357.440903 273.312 
L 359.052351 273.312 
L 359.052351 226.823006 
L 357.440903 226.823006 
z
" clip-path="url(#pe7f2650111)" style="fill: #1f77b4"/>
   </g>
   <g id="patch_188">
    <path d="M 359.052351 273.312 
L 360.6638 273.312 
L 360.6638 214.076024 
L 359.052351 214.076024 
z
" clip-path="url(#pe7f2650111)" style="fill: #1f77b4"/>
   </g>
   <g id="patch_189">
    <path d="M 360.6638 273.312 
L 362.275248 273.312 
L 362.275248 215.575669 
L 360.6638 215.575669 
z
" clip-path="url(#pe7f2650111)" style="fill: #1f77b4"/>
   </g>
   <g id="patch_190">
    <path d="M 362.275248 273.312 
L 363.886696 273.312 
L 363.886696 229.072473 
L 362.275248 229.072473 
z
" clip-path="url(#pe7f2650111)" style="fill: #1f77b4"/>
   </g>
   <g id="patch_191">
    <path d="M 363.886696 273.312 
L 365.498145 273.312 
L 365.498145 228.322651 
L 363.886696 228.322651 
z
" clip-path="url(#pe7f2650111)" style="fill: #1f77b4"/>
   </g>
   <g id="patch_192">
    <path d="M 365.498145 273.312 
L 367.109593 273.312 
L 367.109593 238.820166 
L 365.498145 238.820166 
z
" clip-path="url(#pe7f2650111)" style="fill: #1f77b4"/>
   </g>
   <g id="patch_193">
    <path d="M 367.109593 273.312 
L 368.721042 273.312 
L 368.721042 224.573538 
L 367.109593 224.573538 
z
" clip-path="url(#pe7f2650111)" style="fill: #1f77b4"/>
   </g>
   <g id="patch_194">
    <path d="M 368.721042 273.312 
L 370.33249 273.312 
L 370.33249 241.819456 
L 368.721042 241.819456 
z
" clip-path="url(#pe7f2650111)" style="fill: #1f77b4"/>
   </g>
   <g id="patch_195">
    <path d="M 370.33249 273.312 
L 371.943939 273.312 
L 371.943939 243.319101 
L 370.33249 243.319101 
z
" clip-path="url(#pe7f2650111)" style="fill: #1f77b4"/>
   </g>
   <g id="patch_196">
    <path d="M 371.943939 273.312 
L 373.555387 273.312 
L 373.555387 250.817325 
L 371.943939 250.817325 
z
" clip-path="url(#pe7f2650111)" style="fill: #1f77b4"/>
   </g>
   <g id="patch_197">
    <path d="M 373.555387 273.312 
L 375.166836 273.312 
L 375.166836 250.067503 
L 373.555387 250.067503 
z
" clip-path="url(#pe7f2650111)" style="fill: #1f77b4"/>
   </g>
   <g id="patch_198">
    <path d="M 375.166836 273.312 
L 376.778284 273.312 
L 376.778284 250.067503 
L 375.166836 250.067503 
z
" clip-path="url(#pe7f2650111)" style="fill: #1f77b4"/>
   </g>
   <g id="patch_199">
    <path d="M 376.778284 273.312 
L 378.389733 273.312 
L 378.389733 256.815905 
L 376.778284 256.815905 
z
" clip-path="url(#pe7f2650111)" style="fill: #1f77b4"/>
   </g>
   <g id="patch_200">
    <path d="M 378.389733 273.312 
L 380.001181 273.312 
L 380.001181 258.31555 
L 378.389733 258.31555 
z
" clip-path="url(#pe7f2650111)" style="fill: #1f77b4"/>
   </g>
   <g id="patch_201">
    <path d="M 380.001181 273.312 
L 381.61263 273.312 
L 381.61263 266.563598 
L 380.001181 266.563598 
z
" clip-path="url(#pe7f2650111)" style="fill: #1f77b4"/>
   </g>
   <g id="patch_202">
    <path d="M 381.61263 273.312 
L 383.224078 273.312 
L 383.224078 265.813775 
L 381.61263 265.813775 
z
" clip-path="url(#pe7f2650111)" style="fill: #1f77b4"/>
   </g>
   <g id="matplotlib.axis_1">
    <g id="xtick_1">
     <g id="line2d_1">
      <defs>
       <path id="meaed75f4ed" d="M 0 0 
L 0 3.5 
" style="stroke: #000000; stroke-width: 0.8"/>
      </defs>
      <g>
       <use xlink:href="#meaed75f4ed" x="60.013977" y="273.312" style="stroke: #000000; stroke-width: 0.8"/>
      </g>
     </g>
     <g id="text_1">
      <!-- 0.0 -->
      <g transform="translate(52.062415 287.910437)scale(0.1 -0.1)">
       <defs>
        <path id="DejaVuSans-30" d="M 2034 4250 
Q 1547 4250 1301 3770 
Q 1056 3291 1056 2328 
Q 1056 1369 1301 889 
Q 1547 409 2034 409 
Q 2525 409 2770 889 
Q 3016 1369 3016 2328 
Q 3016 3291 2770 3770 
Q 2525 4250 2034 4250 
z
M 2034 4750 
Q 2819 4750 3233 4129 
Q 3647 3509 3647 2328 
Q 3647 1150 3233 529 
Q 2819 -91 2034 -91 
Q 1250 -91 836 529 
Q 422 1150 422 2328 
Q 422 3509 836 4129 
Q 1250 4750 2034 4750 
z
" transform="scale(0.015625)"/>
        <path id="DejaVuSans-2e" d="M 684 794 
L 1344 794 
L 1344 0 
L 684 0 
L 684 794 
z
" transform="scale(0.015625)"/>
       </defs>
       <use xlink:href="#DejaVuSans-30"/>
       <use xlink:href="#DejaVuSans-2e" x="63.623047"/>
       <use xlink:href="#DejaVuSans-30" x="95.410156"/>
      </g>
     </g>
    </g>
    <g id="xtick_2">
     <g id="line2d_2">
      <g>
       <use xlink:href="#meaed75f4ed" x="101.350278" y="273.312" style="stroke: #000000; stroke-width: 0.8"/>
      </g>
     </g>
     <g id="text_2">
      <!-- 0.2 -->
      <g transform="translate(93.398715 287.910437)scale(0.1 -0.1)">
       <defs>
        <path id="DejaVuSans-32" d="M 1228 531 
L 3431 531 
L 3431 0 
L 469 0 
L 469 531 
Q 828 903 1448 1529 
Q 2069 2156 2228 2338 
Q 2531 2678 2651 2914 
Q 2772 3150 2772 3378 
Q 2772 3750 2511 3984 
Q 2250 4219 1831 4219 
Q 1534 4219 1204 4116 
Q 875 4013 500 3803 
L 500 4441 
Q 881 4594 1212 4672 
Q 1544 4750 1819 4750 
Q 2544 4750 2975 4387 
Q 3406 4025 3406 3419 
Q 3406 3131 3298 2873 
Q 3191 2616 2906 2266 
Q 2828 2175 2409 1742 
Q 1991 1309 1228 531 
z
" transform="scale(0.015625)"/>
       </defs>
       <use xlink:href="#DejaVuSans-30"/>
       <use xlink:href="#DejaVuSans-2e" x="63.623047"/>
       <use xlink:href="#DejaVuSans-32" x="95.410156"/>
      </g>
     </g>
    </g>
    <g id="xtick_3">
     <g id="line2d_3">
      <g>
       <use xlink:href="#meaed75f4ed" x="142.686578" y="273.312" style="stroke: #000000; stroke-width: 0.8"/>
      </g>
     </g>
     <g id="text_3">
      <!-- 0.4 -->
      <g transform="translate(134.735016 287.910437)scale(0.1 -0.1)">
       <defs>
        <path id="DejaVuSans-34" d="M 2419 4116 
L 825 1625 
L 2419 1625 
L 2419 4116 
z
M 2253 4666 
L 3047 4666 
L 3047 1625 
L 3713 1625 
L 3713 1100 
L 3047 1100 
L 3047 0 
L 2419 0 
L 2419 1100 
L 313 1100 
L 313 1709 
L 2253 4666 
z
" transform="scale(0.015625)"/>
       </defs>
       <use xlink:href="#DejaVuSans-30"/>
       <use xlink:href="#DejaVuSans-2e" x="63.623047"/>
       <use xlink:href="#DejaVuSans-34" x="95.410156"/>
      </g>
     </g>
    </g>
    <g id="xtick_4">
     <g id="line2d_4">
      <g>
       <use xlink:href="#meaed75f4ed" x="184.022879" y="273.312" style="stroke: #000000; stroke-width: 0.8"/>
      </g>
     </g>
     <g id="text_4">
      <!-- 0.6 -->
      <g transform="translate(176.071316 287.910437)scale(0.1 -0.1)">
       <defs>
        <path id="DejaVuSans-36" d="M 2113 2584 
Q 1688 2584 1439 2293 
Q 1191 2003 1191 1497 
Q 1191 994 1439 701 
Q 1688 409 2113 409 
Q 2538 409 2786 701 
Q 3034 994 3034 1497 
Q 3034 2003 2786 2293 
Q 2538 2584 2113 2584 
z
M 3366 4563 
L 3366 3988 
Q 3128 4100 2886 4159 
Q 2644 4219 2406 4219 
Q 1781 4219 1451 3797 
Q 1122 3375 1075 2522 
Q 1259 2794 1537 2939 
Q 1816 3084 2150 3084 
Q 2853 3084 3261 2657 
Q 3669 2231 3669 1497 
Q 3669 778 3244 343 
Q 2819 -91 2113 -91 
Q 1303 -91 875 529 
Q 447 1150 447 2328 
Q 447 3434 972 4092 
Q 1497 4750 2381 4750 
Q 2619 4750 2861 4703 
Q 3103 4656 3366 4563 
z
" transform="scale(0.015625)"/>
       </defs>
       <use xlink:href="#DejaVuSans-30"/>
       <use xlink:href="#DejaVuSans-2e" x="63.623047"/>
       <use xlink:href="#DejaVuSans-36" x="95.410156"/>
      </g>
     </g>
    </g>
    <g id="xtick_5">
     <g id="line2d_5">
      <g>
       <use xlink:href="#meaed75f4ed" x="225.35918" y="273.312" style="stroke: #000000; stroke-width: 0.8"/>
      </g>
     </g>
     <g id="text_5">
      <!-- 0.8 -->
      <g transform="translate(217.407617 287.910437)scale(0.1 -0.1)">
       <defs>
        <path id="DejaVuSans-38" d="M 2034 2216 
Q 1584 2216 1326 1975 
Q 1069 1734 1069 1313 
Q 1069 891 1326 650 
Q 1584 409 2034 409 
Q 2484 409 2743 651 
Q 3003 894 3003 1313 
Q 3003 1734 2745 1975 
Q 2488 2216 2034 2216 
z
M 1403 2484 
Q 997 2584 770 2862 
Q 544 3141 544 3541 
Q 544 4100 942 4425 
Q 1341 4750 2034 4750 
Q 2731 4750 3128 4425 
Q 3525 4100 3525 3541 
Q 3525 3141 3298 2862 
Q 3072 2584 2669 2484 
Q 3125 2378 3379 2068 
Q 3634 1759 3634 1313 
Q 3634 634 3220 271 
Q 2806 -91 2034 -91 
Q 1263 -91 848 271 
Q 434 634 434 1313 
Q 434 1759 690 2068 
Q 947 2378 1403 2484 
z
M 1172 3481 
Q 1172 3119 1398 2916 
Q 1625 2713 2034 2713 
Q 2441 2713 2670 2916 
Q 2900 3119 2900 3481 
Q 2900 3844 2670 4047 
Q 2441 4250 2034 4250 
Q 1625 4250 1398 4047 
Q 1172 3844 1172 3481 
z
" transform="scale(0.015625)"/>
       </defs>
       <use xlink:href="#DejaVuSans-30"/>
       <use xlink:href="#DejaVuSans-2e" x="63.623047"/>
       <use xlink:href="#DejaVuSans-38" x="95.410156"/>
      </g>
     </g>
    </g>
    <g id="xtick_6">
     <g id="line2d_6">
      <g>
       <use xlink:href="#meaed75f4ed" x="266.69548" y="273.312" style="stroke: #000000; stroke-width: 0.8"/>
      </g>
     </g>
     <g id="text_6">
      <!-- 1.0 -->
      <g transform="translate(258.743918 287.910437)scale(0.1 -0.1)">
       <defs>
        <path id="DejaVuSans-31" d="M 794 531 
L 1825 531 
L 1825 4091 
L 703 3866 
L 703 4441 
L 1819 4666 
L 2450 4666 
L 2450 531 
L 3481 531 
L 3481 0 
L 794 0 
L 794 531 
z
" transform="scale(0.015625)"/>
       </defs>
       <use xlink:href="#DejaVuSans-31"/>
       <use xlink:href="#DejaVuSans-2e" x="63.623047"/>
       <use xlink:href="#DejaVuSans-30" x="95.410156"/>
      </g>
     </g>
    </g>
    <g id="xtick_7">
     <g id="line2d_7">
      <g>
       <use xlink:href="#meaed75f4ed" x="308.031781" y="273.312" style="stroke: #000000; stroke-width: 0.8"/>
      </g>
     </g>
     <g id="text_7">
      <!-- 1.2 -->
      <g transform="translate(300.080218 287.910437)scale(0.1 -0.1)">
       <use xlink:href="#DejaVuSans-31"/>
       <use xlink:href="#DejaVuSans-2e" x="63.623047"/>
       <use xlink:href="#DejaVuSans-32" x="95.410156"/>
      </g>
     </g>
    </g>
    <g id="xtick_8">
     <g id="line2d_8">
      <g>
       <use xlink:href="#meaed75f4ed" x="349.368081" y="273.312" style="stroke: #000000; stroke-width: 0.8"/>
      </g>
     </g>
     <g id="text_8">
      <!-- 1.4 -->
      <g transform="translate(341.416519 287.910437)scale(0.1 -0.1)">
       <use xlink:href="#DejaVuSans-31"/>
       <use xlink:href="#DejaVuSans-2e" x="63.623047"/>
       <use xlink:href="#DejaVuSans-34" x="95.410156"/>
      </g>
     </g>
    </g>
    <g id="xtick_9">
     <g id="line2d_9">
      <g>
       <use xlink:href="#meaed75f4ed" x="390.704382" y="273.312" style="stroke: #000000; stroke-width: 0.8"/>
      </g>
     </g>
     <g id="text_9">
      <!-- 1.6 -->
      <g transform="translate(382.752819 287.910437)scale(0.1 -0.1)">
       <use xlink:href="#DejaVuSans-31"/>
       <use xlink:href="#DejaVuSans-2e" x="63.623047"/>
       <use xlink:href="#DejaVuSans-36" x="95.410156"/>
      </g>
     </g>
    </g>
    <g id="text_10">
     <!-- Angle with normal (rad) -->
     <g transform="translate(163.023281 301.588562)scale(0.1 -0.1)">
      <defs>
       <path id="DejaVuSans-41" d="M 2188 4044 
L 1331 1722 
L 3047 1722 
L 2188 4044 
z
M 1831 4666 
L 2547 4666 
L 4325 0 
L 3669 0 
L 3244 1197 
L 1141 1197 
L 716 0 
L 50 0 
L 1831 4666 
z
" transform="scale(0.015625)"/>
       <path id="DejaVuSans-6e" d="M 3513 2113 
L 3513 0 
L 2938 0 
L 2938 2094 
Q 2938 2591 2744 2837 
Q 2550 3084 2163 3084 
Q 1697 3084 1428 2787 
Q 1159 2491 1159 1978 
L 1159 0 
L 581 0 
L 581 3500 
L 1159 3500 
L 1159 2956 
Q 1366 3272 1645 3428 
Q 1925 3584 2291 3584 
Q 2894 3584 3203 3211 
Q 3513 2838 3513 2113 
z
" transform="scale(0.015625)"/>
       <path id="DejaVuSans-67" d="M 2906 1791 
Q 2906 2416 2648 2759 
Q 2391 3103 1925 3103 
Q 1463 3103 1205 2759 
Q 947 2416 947 1791 
Q 947 1169 1205 825 
Q 1463 481 1925 481 
Q 2391 481 2648 825 
Q 2906 1169 2906 1791 
z
M 3481 434 
Q 3481 -459 3084 -895 
Q 2688 -1331 1869 -1331 
Q 1566 -1331 1297 -1286 
Q 1028 -1241 775 -1147 
L 775 -588 
Q 1028 -725 1275 -790 
Q 1522 -856 1778 -856 
Q 2344 -856 2625 -561 
Q 2906 -266 2906 331 
L 2906 616 
Q 2728 306 2450 153 
Q 2172 0 1784 0 
Q 1141 0 747 490 
Q 353 981 353 1791 
Q 353 2603 747 3093 
Q 1141 3584 1784 3584 
Q 2172 3584 2450 3431 
Q 2728 3278 2906 2969 
L 2906 3500 
L 3481 3500 
L 3481 434 
z
" transform="scale(0.015625)"/>
       <path id="DejaVuSans-6c" d="M 603 4863 
L 1178 4863 
L 1178 0 
L 603 0 
L 603 4863 
z
" transform="scale(0.015625)"/>
       <path id="DejaVuSans-65" d="M 3597 1894 
L 3597 1613 
L 953 1613 
Q 991 1019 1311 708 
Q 1631 397 2203 397 
Q 2534 397 2845 478 
Q 3156 559 3463 722 
L 3463 178 
Q 3153 47 2828 -22 
Q 2503 -91 2169 -91 
Q 1331 -91 842 396 
Q 353 884 353 1716 
Q 353 2575 817 3079 
Q 1281 3584 2069 3584 
Q 2775 3584 3186 3129 
Q 3597 2675 3597 1894 
z
M 3022 2063 
Q 3016 2534 2758 2815 
Q 2500 3097 2075 3097 
Q 1594 3097 1305 2825 
Q 1016 2553 972 2059 
L 3022 2063 
z
" transform="scale(0.015625)"/>
       <path id="DejaVuSans-20" transform="scale(0.015625)"/>
       <path id="DejaVuSans-77" d="M 269 3500 
L 844 3500 
L 1563 769 
L 2278 3500 
L 2956 3500 
L 3675 769 
L 4391 3500 
L 4966 3500 
L 4050 0 
L 3372 0 
L 2619 2869 
L 1863 0 
L 1184 0 
L 269 3500 
z
" transform="scale(0.015625)"/>
       <path id="DejaVuSans-69" d="M 603 3500 
L 1178 3500 
L 1178 0 
L 603 0 
L 603 3500 
z
M 603 4863 
L 1178 4863 
L 1178 4134 
L 603 4134 
L 603 4863 
z
" transform="scale(0.015625)"/>
       <path id="DejaVuSans-74" d="M 1172 4494 
L 1172 3500 
L 2356 3500 
L 2356 3053 
L 1172 3053 
L 1172 1153 
Q 1172 725 1289 603 
Q 1406 481 1766 481 
L 2356 481 
L 2356 0 
L 1766 0 
Q 1100 0 847 248 
Q 594 497 594 1153 
L 594 3053 
L 172 3053 
L 172 3500 
L 594 3500 
L 594 4494 
L 1172 4494 
z
" transform="scale(0.015625)"/>
       <path id="DejaVuSans-68" d="M 3513 2113 
L 3513 0 
L 2938 0 
L 2938 2094 
Q 2938 2591 2744 2837 
Q 2550 3084 2163 3084 
Q 1697 3084 1428 2787 
Q 1159 2491 1159 1978 
L 1159 0 
L 581 0 
L 581 4863 
L 1159 4863 
L 1159 2956 
Q 1366 3272 1645 3428 
Q 1925 3584 2291 3584 
Q 2894 3584 3203 3211 
Q 3513 2838 3513 2113 
z
" transform="scale(0.015625)"/>
       <path id="DejaVuSans-6f" d="M 1959 3097 
Q 1497 3097 1228 2736 
Q 959 2375 959 1747 
Q 959 1119 1226 758 
Q 1494 397 1959 397 
Q 2419 397 2687 759 
Q 2956 1122 2956 1747 
Q 2956 2369 2687 2733 
Q 2419 3097 1959 3097 
z
M 1959 3584 
Q 2709 3584 3137 3096 
Q 3566 2609 3566 1747 
Q 3566 888 3137 398 
Q 2709 -91 1959 -91 
Q 1206 -91 779 398 
Q 353 888 353 1747 
Q 353 2609 779 3096 
Q 1206 3584 1959 3584 
z
" transform="scale(0.015625)"/>
       <path id="DejaVuSans-72" d="M 2631 2963 
Q 2534 3019 2420 3045 
Q 2306 3072 2169 3072 
Q 1681 3072 1420 2755 
Q 1159 2438 1159 1844 
L 1159 0 
L 581 0 
L 581 3500 
L 1159 3500 
L 1159 2956 
Q 1341 3275 1631 3429 
Q 1922 3584 2338 3584 
Q 2397 3584 2469 3576 
Q 2541 3569 2628 3553 
L 2631 2963 
z
" transform="scale(0.015625)"/>
       <path id="DejaVuSans-6d" d="M 3328 2828 
Q 3544 3216 3844 3400 
Q 4144 3584 4550 3584 
Q 5097 3584 5394 3201 
Q 5691 2819 5691 2113 
L 5691 0 
L 5113 0 
L 5113 2094 
Q 5113 2597 4934 2840 
Q 4756 3084 4391 3084 
Q 3944 3084 3684 2787 
Q 3425 2491 3425 1978 
L 3425 0 
L 2847 0 
L 2847 2094 
Q 2847 2600 2669 2842 
Q 2491 3084 2119 3084 
Q 1678 3084 1418 2786 
Q 1159 2488 1159 1978 
L 1159 0 
L 581 0 
L 581 3500 
L 1159 3500 
L 1159 2956 
Q 1356 3278 1631 3431 
Q 1906 3584 2284 3584 
Q 2666 3584 2933 3390 
Q 3200 3197 3328 2828 
z
" transform="scale(0.015625)"/>
       <path id="DejaVuSans-61" d="M 2194 1759 
Q 1497 1759 1228 1600 
Q 959 1441 959 1056 
Q 959 750 1161 570 
Q 1363 391 1709 391 
Q 2188 391 2477 730 
Q 2766 1069 2766 1631 
L 2766 1759 
L 2194 1759 
z
M 3341 1997 
L 3341 0 
L 2766 0 
L 2766 531 
Q 2569 213 2275 61 
Q 1981 -91 1556 -91 
Q 1019 -91 701 211 
Q 384 513 384 1019 
Q 384 1609 779 1909 
Q 1175 2209 1959 2209 
L 2766 2209 
L 2766 2266 
Q 2766 2663 2505 2880 
Q 2244 3097 1772 3097 
Q 1472 3097 1187 3025 
Q 903 2953 641 2809 
L 641 3341 
Q 956 3463 1253 3523 
Q 1550 3584 1831 3584 
Q 2591 3584 2966 3190 
Q 3341 2797 3341 1997 
z
" transform="scale(0.015625)"/>
       <path id="DejaVuSans-28" d="M 1984 4856 
Q 1566 4138 1362 3434 
Q 1159 2731 1159 2009 
Q 1159 1288 1364 580 
Q 1569 -128 1984 -844 
L 1484 -844 
Q 1016 -109 783 600 
Q 550 1309 550 2009 
Q 550 2706 781 3412 
Q 1013 4119 1484 4856 
L 1984 4856 
z
" transform="scale(0.015625)"/>
       <path id="DejaVuSans-64" d="M 2906 2969 
L 2906 4863 
L 3481 4863 
L 3481 0 
L 2906 0 
L 2906 525 
Q 2725 213 2448 61 
Q 2172 -91 1784 -91 
Q 1150 -91 751 415 
Q 353 922 353 1747 
Q 353 2572 751 3078 
Q 1150 3584 1784 3584 
Q 2172 3584 2448 3432 
Q 2725 3281 2906 2969 
z
M 947 1747 
Q 947 1113 1208 752 
Q 1469 391 1925 391 
Q 2381 391 2643 752 
Q 2906 1113 2906 1747 
Q 2906 2381 2643 2742 
Q 2381 3103 1925 3103 
Q 1469 3103 1208 2742 
Q 947 2381 947 1747 
z
" transform="scale(0.015625)"/>
       <path id="DejaVuSans-29" d="M 513 4856 
L 1013 4856 
Q 1481 4119 1714 3412 
Q 1947 2706 1947 2009 
Q 1947 1309 1714 600 
Q 1481 -109 1013 -844 
L 513 -844 
Q 928 -128 1133 580 
Q 1338 1288 1338 2009 
Q 1338 2731 1133 3434 
Q 928 4138 513 4856 
z
" transform="scale(0.015625)"/>
      </defs>
      <use xlink:href="#DejaVuSans-41"/>
      <use xlink:href="#DejaVuSans-6e" x="68.408203"/>
      <use xlink:href="#DejaVuSans-67" x="131.787109"/>
      <use xlink:href="#DejaVuSans-6c" x="195.263672"/>
      <use xlink:href="#DejaVuSans-65" x="223.046875"/>
      <use xlink:href="#DejaVuSans-20" x="284.570312"/>
      <use xlink:href="#DejaVuSans-77" x="316.357422"/>
      <use xlink:href="#DejaVuSans-69" x="398.144531"/>
      <use xlink:href="#DejaVuSans-74" x="425.927734"/>
      <use xlink:href="#DejaVuSans-68" x="465.136719"/>
      <use xlink:href="#DejaVuSans-20" x="528.515625"/>
      <use xlink:href="#DejaVuSans-6e" x="560.302734"/>
      <use xlink:href="#DejaVuSans-6f" x="623.681641"/>
      <use xlink:href="#DejaVuSans-72" x="684.863281"/>
      <use xlink:href="#DejaVuSans-6d" x="724.226562"/>
      <use xlink:href="#DejaVuSans-61" x="821.638672"/>
      <use xlink:href="#DejaVuSans-6c" x="882.917969"/>
      <use xlink:href="#DejaVuSans-20" x="910.701172"/>
      <use xlink:href="#DejaVuSans-28" x="942.488281"/>
      <use xlink:href="#DejaVuSans-72" x="981.501953"/>
      <use xlink:href="#DejaVuSans-61" x="1022.615234"/>
      <use xlink:href="#DejaVuSans-64" x="1083.894531"/>
      <use xlink:href="#DejaVuSans-29" x="1147.371094"/>
     </g>
    </g>
   </g>
   <g id="matplotlib.axis_2">
    <g id="ytick_1">
     <g id="line2d_10">
      <defs>
       <path id="m56fcae3358" d="M 0 0 
L -3.5 0 
" style="stroke: #000000; stroke-width: 0.8"/>
      </defs>
      <g>
       <use xlink:href="#m56fcae3358" x="43.78125" y="273.312" style="stroke: #000000; stroke-width: 0.8"/>
      </g>
     </g>
     <g id="text_11">
      <!-- 0.0 -->
      <g transform="translate(20.878125 277.111219)scale(0.1 -0.1)">
       <use xlink:href="#DejaVuSans-30"/>
       <use xlink:href="#DejaVuSans-2e" x="63.623047"/>
       <use xlink:href="#DejaVuSans-30" x="95.410156"/>
      </g>
     </g>
    </g>
    <g id="ytick_2">
     <g id="line2d_11">
      <g>
       <use xlink:href="#m56fcae3358" x="43.78125" y="226.542442" style="stroke: #000000; stroke-width: 0.8"/>
      </g>
     </g>
     <g id="text_12">
      <!-- 0.2 -->
      <g transform="translate(20.878125 230.341661)scale(0.1 -0.1)">
       <use xlink:href="#DejaVuSans-30"/>
       <use xlink:href="#DejaVuSans-2e" x="63.623047"/>
       <use xlink:href="#DejaVuSans-32" x="95.410156"/>
      </g>
     </g>
    </g>
    <g id="ytick_3">
     <g id="line2d_12">
      <g>
       <use xlink:href="#m56fcae3358" x="43.78125" y="179.772885" style="stroke: #000000; stroke-width: 0.8"/>
      </g>
     </g>
     <g id="text_13">
      <!-- 0.4 -->
      <g transform="translate(20.878125 183.572104)scale(0.1 -0.1)">
       <use xlink:href="#DejaVuSans-30"/>
       <use xlink:href="#DejaVuSans-2e" x="63.623047"/>
       <use xlink:href="#DejaVuSans-34" x="95.410156"/>
      </g>
     </g>
    </g>
    <g id="ytick_4">
     <g id="line2d_13">
      <g>
       <use xlink:href="#m56fcae3358" x="43.78125" y="133.003327" style="stroke: #000000; stroke-width: 0.8"/>
      </g>
     </g>
     <g id="text_14">
      <!-- 0.6 -->
      <g transform="translate(20.878125 136.802546)scale(0.1 -0.1)">
       <use xlink:href="#DejaVuSans-30"/>
       <use xlink:href="#DejaVuSans-2e" x="63.623047"/>
       <use xlink:href="#DejaVuSans-36" x="95.410156"/>
      </g>
     </g>
    </g>
    <g id="ytick_5">
     <g id="line2d_14">
      <g>
       <use xlink:href="#m56fcae3358" x="43.78125" y="86.23377" style="stroke: #000000; stroke-width: 0.8"/>
      </g>
     </g>
     <g id="text_15">
      <!-- 0.8 -->
      <g transform="translate(20.878125 90.032989)scale(0.1 -0.1)">
       <use xlink:href="#DejaVuSans-30"/>
       <use xlink:href="#DejaVuSans-2e" x="63.623047"/>
       <use xlink:href="#DejaVuSans-38" x="95.410156"/>
      </g>
     </g>
    </g>
    <g id="ytick_6">
     <g id="line2d_15">
      <g>
       <use xlink:href="#m56fcae3358" x="43.78125" y="39.464212" style="stroke: #000000; stroke-width: 0.8"/>
      </g>
     </g>
     <g id="text_16">
      <!-- 1.0 -->
      <g transform="translate(20.878125 43.263431)scale(0.1 -0.1)">
       <use xlink:href="#DejaVuSans-31"/>
       <use xlink:href="#DejaVuSans-2e" x="63.623047"/>
       <use xlink:href="#DejaVuSans-30" x="95.410156"/>
      </g>
     </g>
    </g>
    <g id="text_17">
     <!-- Probability density -->
     <g transform="translate(14.798438 186.606781)rotate(-90)scale(0.1 -0.1)">
      <defs>
       <path id="DejaVuSans-50" d="M 1259 4147 
L 1259 2394 
L 2053 2394 
Q 2494 2394 2734 2622 
Q 2975 2850 2975 3272 
Q 2975 3691 2734 3919 
Q 2494 4147 2053 4147 
L 1259 4147 
z
M 628 4666 
L 2053 4666 
Q 2838 4666 3239 4311 
Q 3641 3956 3641 3272 
Q 3641 2581 3239 2228 
Q 2838 1875 2053 1875 
L 1259 1875 
L 1259 0 
L 628 0 
L 628 4666 
z
" transform="scale(0.015625)"/>
       <path id="DejaVuSans-62" d="M 3116 1747 
Q 3116 2381 2855 2742 
Q 2594 3103 2138 3103 
Q 1681 3103 1420 2742 
Q 1159 2381 1159 1747 
Q 1159 1113 1420 752 
Q 1681 391 2138 391 
Q 2594 391 2855 752 
Q 3116 1113 3116 1747 
z
M 1159 2969 
Q 1341 3281 1617 3432 
Q 1894 3584 2278 3584 
Q 2916 3584 3314 3078 
Q 3713 2572 3713 1747 
Q 3713 922 3314 415 
Q 2916 -91 2278 -91 
Q 1894 -91 1617 61 
Q 1341 213 1159 525 
L 1159 0 
L 581 0 
L 581 4863 
L 1159 4863 
L 1159 2969 
z
" transform="scale(0.015625)"/>
       <path id="DejaVuSans-79" d="M 2059 -325 
Q 1816 -950 1584 -1140 
Q 1353 -1331 966 -1331 
L 506 -1331 
L 506 -850 
L 844 -850 
Q 1081 -850 1212 -737 
Q 1344 -625 1503 -206 
L 1606 56 
L 191 3500 
L 800 3500 
L 1894 763 
L 2988 3500 
L 3597 3500 
L 2059 -325 
z
" transform="scale(0.015625)"/>
       <path id="DejaVuSans-73" d="M 2834 3397 
L 2834 2853 
Q 2591 2978 2328 3040 
Q 2066 3103 1784 3103 
Q 1356 3103 1142 2972 
Q 928 2841 928 2578 
Q 928 2378 1081 2264 
Q 1234 2150 1697 2047 
L 1894 2003 
Q 2506 1872 2764 1633 
Q 3022 1394 3022 966 
Q 3022 478 2636 193 
Q 2250 -91 1575 -91 
Q 1294 -91 989 -36 
Q 684 19 347 128 
L 347 722 
Q 666 556 975 473 
Q 1284 391 1588 391 
Q 1994 391 2212 530 
Q 2431 669 2431 922 
Q 2431 1156 2273 1281 
Q 2116 1406 1581 1522 
L 1381 1569 
Q 847 1681 609 1914 
Q 372 2147 372 2553 
Q 372 3047 722 3315 
Q 1072 3584 1716 3584 
Q 2034 3584 2315 3537 
Q 2597 3491 2834 3397 
z
" transform="scale(0.015625)"/>
      </defs>
      <use xlink:href="#DejaVuSans-50"/>
      <use xlink:href="#DejaVuSans-72" x="58.552734"/>
      <use xlink:href="#DejaVuSans-6f" x="97.416016"/>
      <use xlink:href="#DejaVuSans-62" x="158.597656"/>
      <use xlink:href="#DejaVuSans-61" x="222.074219"/>
      <use xlink:href="#DejaVuSans-62" x="283.353516"/>
      <use xlink:href="#DejaVuSans-69" x="346.830078"/>
      <use xlink:href="#DejaVuSans-6c" x="374.613281"/>
      <use xlink:href="#DejaVuSans-69" x="402.396484"/>
      <use xlink:href="#DejaVuSans-74" x="430.179688"/>
      <use xlink:href="#DejaVuSans-79" x="469.388672"/>
      <use xlink:href="#DejaVuSans-20" x="528.568359"/>
      <use xlink:href="#DejaVuSans-64" x="560.355469"/>
      <use xlink:href="#DejaVuSans-65" x="623.832031"/>
      <use xlink:href="#DejaVuSans-6e" x="685.355469"/>
      <use xlink:href="#DejaVuSans-73" x="748.734375"/>
      <use xlink:href="#DejaVuSans-69" x="800.833984"/>
      <use xlink:href="#DejaVuSans-74" x="828.617188"/>
      <use xlink:href="#DejaVuSans-79" x="867.826172"/>
     </g>
    </g>
   </g>
   <g id="line2d_16">
    <path d="M 60.013977 273.312 
L 79.837728 228.727833 
L 90.237073 205.891534 
L 99.01152 187.144844 
L 106.811029 170.998212 
L 113.960578 156.706684 
L 120.460169 144.196768 
L 126.63478 132.784531 
L 132.484411 122.434942 
L 138.009063 113.103561 
L 143.208736 104.738796 
L 148.408408 96.800714 
L 153.283101 89.76416 
L 157.832814 83.564822 
L 162.382528 77.733214 
L 166.607261 72.657308 
L 170.831995 67.916712 
L 175.056729 63.519345 
L 178.956483 59.771244 
L 182.856238 56.327204 
L 186.755992 53.192129 
L 190.330767 50.593547 
L 193.905542 48.261447 
L 197.480316 46.198619 
L 201.055091 44.407531 
L 204.304886 43.016886 
L 207.554682 41.853969 
L 210.804477 40.919932 
L 214.054272 40.215696 
L 217.304067 39.741959 
L 220.553863 39.49919 
L 223.803658 39.487627 
L 227.053453 39.707283 
L 230.303248 40.157941 
L 233.553044 40.839154 
L 236.802839 41.750249 
L 240.052634 42.890326 
L 243.302429 44.258256 
L 246.552225 45.852687 
L 250.126999 47.866282 
L 253.701774 50.149622 
L 257.276549 52.699974 
L 260.851324 55.514288 
L 264.751078 58.881529 
L 268.650832 62.554098 
L 272.550587 66.526766 
L 276.77532 71.162571 
L 281.000054 76.136182 
L 285.224788 81.439288 
L 289.774501 87.508637 
L 294.324215 93.938074 
L 299.198908 101.212173 
L 304.39858 109.392807 
L 309.598252 117.988344 
L 315.122904 127.551361 
L 320.972536 138.130263 
L 327.147147 149.76596 
L 333.646737 162.489611 
L 340.796287 176.989804 
L 348.595795 193.331346 
L 357.370243 212.255159 
L 367.769587 235.241928 
L 382.393666 268.164687 
L 384.668523 273.312 
L 384.668523 273.312 
" clip-path="url(#pe7f2650111)" style="fill: none; stroke: #ff7f0e; stroke-width: 1.5; stroke-linecap: square"/>
   </g>
   <g id="patch_203">
    <path d="M 43.78125 273.312 
L 43.78125 7.2 
" style="fill: none; stroke: #000000; stroke-width: 0.8; stroke-linejoin: miter; stroke-linecap: square"/>
   </g>
   <g id="patch_204">
    <path d="M 400.90125 273.312 
L 400.90125 7.2 
" style="fill: none; stroke: #000000; stroke-width: 0.8; stroke-linejoin: miter; stroke-linecap: square"/>
   </g>
   <g id="patch_205">
    <path d="M 43.78125 273.312 
L 400.90125 273.312 
" style="fill: none; stroke: #000000; stroke-width: 0.8; stroke-linejoin: miter; stroke-linecap: square"/>
   </g>
   <g id="patch_206">
    <path d="M 43.78125 7.2 
L 400.90125 7.2 
" style="fill: none; stroke: #000000; stroke-width: 0.8; stroke-linejoin: miter; stroke-linecap: square"/>
   </g>
  </g>
 </g>
 <defs>
  <clipPath id="pe7f2650111">
   <rect x="43.78125" y="7.2" width="357.12" height="266.112"/>
  </clipPath>
 </defs>
</svg>
