<?xml version="1.0" encoding="utf-8" standalone="no"?>
<!DOCTYPE svg PUBLIC "-//W3C//DTD SVG 1.1//EN"
  "http://www.w3.org/Graphics/SVG/1.1/DTD/svg11.dtd">
<svg xmlns:xlink="http://www.w3.org/1999/xlink" width="414.46375pt" height="310.86825pt" viewBox="0 0 414.46375 310.86825" xmlns="http://www.w3.org/2000/svg" version="1.1">
 <metadata>
  <rdf:RDF xmlns:dc="http://purl.org/dc/elements/1.1/" xmlns:cc="http://creativecommons.org/ns#" xmlns:rdf="http://www.w3.org/1999/02/22-rdf-syntax-ns#">
   <cc:Work>
    <dc:type rdf:resource="http://purl.org/dc/dcmitype/StillImage"/>
    <dc:date>2021-11-26T10:19:59.502003</dc:date>
    <dc:format>image/svg+xml</dc:format>
    <dc:creator>
     <cc:Agent>
      <dc:title>Matplotlib v3.5.0, https://matplotlib.org/</dc:title>
     </cc:Agent>
    </dc:creator>
   </cc:Work>
  </rdf:RDF>
 </metadata>
 <defs>
  <style type="text/css">*{stroke-linejoin: round; stroke-linecap: butt}</style>
 </defs>
 <g id="figure_1">
  <g id="patch_1">
   <path d="M 0 310.86825 
L 414.46375 310.86825 
L 414.46375 0 
L 0 0 
z
" style="fill: #ffffff"/>
  </g>
  <g id="axes_1">
   <g id="patch_2">
    <path d="M 50.14375 273.312 
L 407.26375 273.312 
L 407.26375 7.2 
L 50.14375 7.2 
z
" style="fill: #ffffff"/>
   </g>
   <g id="patch_3">
    <path d="M 67.14286 273.312 
L 68.762296 273.312 
L 68.762296 270.183111 
L 67.14286 270.183111 
z
" clip-path="url(#p3959ffed49)" style="fill: #1f77b4"/>
   </g>
   <g id="patch_4">
    <path d="M 68.762296 273.312 
L 70.381733 273.312 
L 70.381733 270.183111 
L 68.762296 270.183111 
z
" clip-path="url(#p3959ffed49)" style="fill: #1f77b4"/>
   </g>
   <g id="patch_5">
    <path d="M 70.381733 273.312 
L 72.001169 273.312 
L 72.001169 267.054222 
L 70.381733 267.054222 
z
" clip-path="url(#p3959ffed49)" style="fill: #1f77b4"/>
   </g>
   <g id="patch_6">
    <path d="M 72.001169 273.312 
L 73.620605 273.312 
L 73.620605 268.305778 
L 72.001169 268.305778 
z
" clip-path="url(#p3959ffed49)" style="fill: #1f77b4"/>
   </g>
   <g id="patch_7">
    <path d="M 73.620605 273.312 
L 75.240041 273.312 
L 75.240041 268.305778 
L 73.620605 268.305778 
z
" clip-path="url(#p3959ffed49)" style="fill: #1f77b4"/>
   </g>
   <g id="patch_8">
    <path d="M 75.240041 273.312 
L 76.859477 273.312 
L 76.859477 264.551111 
L 75.240041 264.551111 
z
" clip-path="url(#p3959ffed49)" style="fill: #1f77b4"/>
   </g>
   <g id="patch_9">
    <path d="M 76.859477 273.312 
L 78.478914 273.312 
L 78.478914 267.68 
L 76.859477 267.68 
z
" clip-path="url(#p3959ffed49)" style="fill: #1f77b4"/>
   </g>
   <g id="patch_10">
    <path d="M 78.478914 273.312 
L 80.09835 273.312 
L 80.09835 262.048 
L 78.478914 262.048 
z
" clip-path="url(#p3959ffed49)" style="fill: #1f77b4"/>
   </g>
   <g id="patch_11">
    <path d="M 80.09835 273.312 
L 81.717786 273.312 
L 81.717786 265.802667 
L 80.09835 265.802667 
z
" clip-path="url(#p3959ffed49)" style="fill: #1f77b4"/>
   </g>
   <g id="patch_12">
    <path d="M 81.717786 273.312 
L 83.337222 273.312 
L 83.337222 263.925333 
L 81.717786 263.925333 
z
" clip-path="url(#p3959ffed49)" style="fill: #1f77b4"/>
   </g>
   <g id="patch_13">
    <path d="M 83.337222 273.312 
L 84.956659 273.312 
L 84.956659 249.532444 
L 83.337222 249.532444 
z
" clip-path="url(#p3959ffed49)" style="fill: #1f77b4"/>
   </g>
   <g id="patch_14">
    <path d="M 84.956659 273.312 
L 86.576095 273.312 
L 86.576095 257.667556 
L 84.956659 257.667556 
z
" clip-path="url(#p3959ffed49)" style="fill: #1f77b4"/>
   </g>
   <g id="patch_15">
    <path d="M 86.576095 273.312 
L 88.195531 273.312 
L 88.195531 257.667556 
L 86.576095 257.667556 
z
" clip-path="url(#p3959ffed49)" style="fill: #1f77b4"/>
   </g>
   <g id="patch_16">
    <path d="M 88.195531 273.312 
L 89.814967 273.312 
L 89.814967 256.416 
L 88.195531 256.416 
z
" clip-path="url(#p3959ffed49)" style="fill: #1f77b4"/>
   </g>
   <g id="patch_17">
    <path d="M 89.814967 273.312 
L 91.434403 273.312 
L 91.434403 253.912889 
L 89.814967 253.912889 
z
" clip-path="url(#p3959ffed49)" style="fill: #1f77b4"/>
   </g>
   <g id="patch_18">
    <path d="M 91.434403 273.312 
L 93.05384 273.312 
L 93.05384 255.790222 
L 91.434403 255.790222 
z
" clip-path="url(#p3959ffed49)" style="fill: #1f77b4"/>
   </g>
   <g id="patch_19">
    <path d="M 93.05384 273.312 
L 94.673276 273.312 
L 94.673276 251.409778 
L 93.05384 251.409778 
z
" clip-path="url(#p3959ffed49)" style="fill: #1f77b4"/>
   </g>
   <g id="patch_20">
    <path d="M 94.673276 273.312 
L 96.292712 273.312 
L 96.292712 247.029333 
L 94.673276 247.029333 
z
" clip-path="url(#p3959ffed49)" style="fill: #1f77b4"/>
   </g>
   <g id="patch_21">
    <path d="M 96.292712 273.312 
L 97.912148 273.312 
L 97.912148 257.667556 
L 96.292712 257.667556 
z
" clip-path="url(#p3959ffed49)" style="fill: #1f77b4"/>
   </g>
   <g id="patch_22">
    <path d="M 97.912148 273.312 
L 99.531584 273.312 
L 99.531584 246.403556 
L 97.912148 246.403556 
z
" clip-path="url(#p3959ffed49)" style="fill: #1f77b4"/>
   </g>
   <g id="patch_23">
    <path d="M 99.531584 273.312 
L 101.151021 273.312 
L 101.151021 247.029333 
L 99.531584 247.029333 
z
" clip-path="url(#p3959ffed49)" style="fill: #1f77b4"/>
   </g>
   <g id="patch_24">
    <path d="M 101.151021 273.312 
L 102.770457 273.312 
L 102.770457 239.52 
L 101.151021 239.52 
z
" clip-path="url(#p3959ffed49)" style="fill: #1f77b4"/>
   </g>
   <g id="patch_25">
    <path d="M 102.770457 273.312 
L 104.389893 273.312 
L 104.389893 246.403556 
L 102.770457 246.403556 
z
" clip-path="url(#p3959ffed49)" style="fill: #1f77b4"/>
   </g>
   <g id="patch_26">
    <path d="M 104.389893 273.312 
L 106.009329 273.312 
L 106.009329 241.397333 
L 104.389893 241.397333 
z
" clip-path="url(#p3959ffed49)" style="fill: #1f77b4"/>
   </g>
   <g id="patch_27">
    <path d="M 106.009329 273.312 
L 107.628765 273.312 
L 107.628765 245.152 
L 106.009329 245.152 
z
" clip-path="url(#p3959ffed49)" style="fill: #1f77b4"/>
   </g>
   <g id="patch_28">
    <path d="M 107.628765 273.312 
L 109.248202 273.312 
L 109.248202 238.894222 
L 107.628765 238.894222 
z
" clip-path="url(#p3959ffed49)" style="fill: #1f77b4"/>
   </g>
   <g id="patch_29">
    <path d="M 109.248202 273.312 
L 110.867638 273.312 
L 110.867638 229.507556 
L 109.248202 229.507556 
z
" clip-path="url(#p3959ffed49)" style="fill: #1f77b4"/>
   </g>
   <g id="patch_30">
    <path d="M 110.867638 273.312 
L 112.487074 273.312 
L 112.487074 235.765333 
L 110.867638 235.765333 
z
" clip-path="url(#p3959ffed49)" style="fill: #1f77b4"/>
   </g>
   <g id="patch_31">
    <path d="M 112.487074 273.312 
L 114.10651 273.312 
L 114.10651 233.262222 
L 112.487074 233.262222 
z
" clip-path="url(#p3959ffed49)" style="fill: #1f77b4"/>
   </g>
   <g id="patch_32">
    <path d="M 114.10651 273.312 
L 115.725946 273.312 
L 115.725946 231.384889 
L 114.10651 231.384889 
z
" clip-path="url(#p3959ffed49)" style="fill: #1f77b4"/>
   </g>
   <g id="patch_33">
    <path d="M 115.725946 273.312 
L 117.345383 273.312 
L 117.345383 240.145778 
L 115.725946 240.145778 
z
" clip-path="url(#p3959ffed49)" style="fill: #1f77b4"/>
   </g>
   <g id="patch_34">
    <path d="M 117.345383 273.312 
L 118.964819 273.312 
L 118.964819 238.268444 
L 117.345383 238.268444 
z
" clip-path="url(#p3959ffed49)" style="fill: #1f77b4"/>
   </g>
   <g id="patch_35">
    <path d="M 118.964819 273.312 
L 120.584255 273.312 
L 120.584255 228.256 
L 118.964819 228.256 
z
" clip-path="url(#p3959ffed49)" style="fill: #1f77b4"/>
   </g>
   <g id="patch_36">
    <path d="M 120.584255 273.312 
L 122.203691 273.312 
L 122.203691 226.378667 
L 120.584255 226.378667 
z
" clip-path="url(#p3959ffed49)" style="fill: #1f77b4"/>
   </g>
   <g id="patch_37">
    <path d="M 122.203691 273.312 
L 123.823127 273.312 
L 123.823127 228.256 
L 122.203691 228.256 
z
" clip-path="url(#p3959ffed49)" style="fill: #1f77b4"/>
   </g>
   <g id="patch_38">
    <path d="M 123.823127 273.312 
L 125.442564 273.312 
L 125.442564 224.501333 
L 123.823127 224.501333 
z
" clip-path="url(#p3959ffed49)" style="fill: #1f77b4"/>
   </g>
   <g id="patch_39">
    <path d="M 125.442564 273.312 
L 127.062 273.312 
L 127.062 221.998222 
L 125.442564 221.998222 
z
" clip-path="url(#p3959ffed49)" style="fill: #1f77b4"/>
   </g>
   <g id="patch_40">
    <path d="M 127.062 273.312 
L 128.681436 273.312 
L 128.681436 233.888 
L 127.062 233.888 
z
" clip-path="url(#p3959ffed49)" style="fill: #1f77b4"/>
   </g>
   <g id="patch_41">
    <path d="M 128.681436 273.312 
L 130.300872 273.312 
L 130.300872 215.740444 
L 128.681436 215.740444 
z
" clip-path="url(#p3959ffed49)" style="fill: #1f77b4"/>
   </g>
   <g id="patch_42">
    <path d="M 130.300872 273.312 
L 131.920309 273.312 
L 131.920309 227.004444 
L 130.300872 227.004444 
z
" clip-path="url(#p3959ffed49)" style="fill: #1f77b4"/>
   </g>
   <g id="patch_43">
    <path d="M 131.920309 273.312 
L 133.539745 273.312 
L 133.539745 232.636444 
L 131.920309 232.636444 
z
" clip-path="url(#p3959ffed49)" style="fill: #1f77b4"/>
   </g>
   <g id="patch_44">
    <path d="M 133.539745 273.312 
L 135.159181 273.312 
L 135.159181 217.617778 
L 133.539745 217.617778 
z
" clip-path="url(#p3959ffed49)" style="fill: #1f77b4"/>
   </g>
   <g id="patch_45">
    <path d="M 135.159181 273.312 
L 136.778617 273.312 
L 136.778617 227.630222 
L 135.159181 227.630222 
z
" clip-path="url(#p3959ffed49)" style="fill: #1f77b4"/>
   </g>
   <g id="patch_46">
    <path d="M 136.778617 273.312 
L 138.398053 273.312 
L 138.398053 206.979556 
L 136.778617 206.979556 
z
" clip-path="url(#p3959ffed49)" style="fill: #1f77b4"/>
   </g>
   <g id="patch_47">
    <path d="M 138.398053 273.312 
L 140.01749 273.312 
L 140.01749 228.881778 
L 138.398053 228.881778 
z
" clip-path="url(#p3959ffed49)" style="fill: #1f77b4"/>
   </g>
   <g id="patch_48">
    <path d="M 140.01749 273.312 
L 141.636926 273.312 
L 141.636926 208.231111 
L 140.01749 208.231111 
z
" clip-path="url(#p3959ffed49)" style="fill: #1f77b4"/>
   </g>
   <g id="patch_49">
    <path d="M 141.636926 273.312 
L 143.256362 273.312 
L 143.256362 210.108444 
L 141.636926 210.108444 
z
" clip-path="url(#p3959ffed49)" style="fill: #1f77b4"/>
   </g>
   <g id="patch_50">
    <path d="M 143.256362 273.312 
L 144.875798 273.312 
L 144.875798 215.740444 
L 143.256362 215.740444 
z
" clip-path="url(#p3959ffed49)" style="fill: #1f77b4"/>
   </g>
   <g id="patch_51">
    <path d="M 144.875798 273.312 
L 146.495234 273.312 
L 146.495234 211.36 
L 144.875798 211.36 
z
" clip-path="url(#p3959ffed49)" style="fill: #1f77b4"/>
   </g>
   <g id="patch_52">
    <path d="M 146.495234 273.312 
L 148.114671 273.312 
L 148.114671 206.979556 
L 146.495234 206.979556 
z
" clip-path="url(#p3959ffed49)" style="fill: #1f77b4"/>
   </g>
   <g id="patch_53">
    <path d="M 148.114671 273.312 
L 149.734107 273.312 
L 149.734107 209.482667 
L 148.114671 209.482667 
z
" clip-path="url(#p3959ffed49)" style="fill: #1f77b4"/>
   </g>
   <g id="patch_54">
    <path d="M 149.734107 273.312 
L 151.353543 273.312 
L 151.353543 207.605333 
L 149.734107 207.605333 
z
" clip-path="url(#p3959ffed49)" style="fill: #1f77b4"/>
   </g>
   <g id="patch_55">
    <path d="M 151.353543 273.312 
L 152.972979 273.312 
L 152.972979 202.599111 
L 151.353543 202.599111 
z
" clip-path="url(#p3959ffed49)" style="fill: #1f77b4"/>
   </g>
   <g id="patch_56">
    <path d="M 152.972979 273.312 
L 154.592415 273.312 
L 154.592415 195.089778 
L 152.972979 195.089778 
z
" clip-path="url(#p3959ffed49)" style="fill: #1f77b4"/>
   </g>
   <g id="patch_57">
    <path d="M 154.592415 273.312 
L 156.211852 273.312 
L 156.211852 218.243556 
L 154.592415 218.243556 
z
" clip-path="url(#p3959ffed49)" style="fill: #1f77b4"/>
   </g>
   <g id="patch_58">
    <path d="M 156.211852 273.312 
L 157.831288 273.312 
L 157.831288 201.973333 
L 156.211852 201.973333 
z
" clip-path="url(#p3959ffed49)" style="fill: #1f77b4"/>
   </g>
   <g id="patch_59">
    <path d="M 157.831288 273.312 
L 159.450724 273.312 
L 159.450724 203.224889 
L 157.831288 203.224889 
z
" clip-path="url(#p3959ffed49)" style="fill: #1f77b4"/>
   </g>
   <g id="patch_60">
    <path d="M 159.450724 273.312 
L 161.07016 273.312 
L 161.07016 199.470222 
L 159.450724 199.470222 
z
" clip-path="url(#p3959ffed49)" style="fill: #1f77b4"/>
   </g>
   <g id="patch_61">
    <path d="M 161.07016 273.312 
L 162.689596 273.312 
L 162.689596 199.470222 
L 161.07016 199.470222 
z
" clip-path="url(#p3959ffed49)" style="fill: #1f77b4"/>
   </g>
   <g id="patch_62">
    <path d="M 162.689596 273.312 
L 164.309033 273.312 
L 164.309033 198.218667 
L 162.689596 198.218667 
z
" clip-path="url(#p3959ffed49)" style="fill: #1f77b4"/>
   </g>
   <g id="patch_63">
    <path d="M 164.309033 273.312 
L 165.928469 273.312 
L 165.928469 207.605333 
L 164.309033 207.605333 
z
" clip-path="url(#p3959ffed49)" style="fill: #1f77b4"/>
   </g>
   <g id="patch_64">
    <path d="M 165.928469 273.312 
L 167.547905 273.312 
L 167.547905 203.224889 
L 165.928469 203.224889 
z
" clip-path="url(#p3959ffed49)" style="fill: #1f77b4"/>
   </g>
   <g id="patch_65">
    <path d="M 167.547905 273.312 
L 169.167341 273.312 
L 169.167341 189.457778 
L 167.547905 189.457778 
z
" clip-path="url(#p3959ffed49)" style="fill: #1f77b4"/>
   </g>
   <g id="patch_66">
    <path d="M 169.167341 273.312 
L 170.786778 273.312 
L 170.786778 190.709333 
L 169.167341 190.709333 
z
" clip-path="url(#p3959ffed49)" style="fill: #1f77b4"/>
   </g>
   <g id="patch_67">
    <path d="M 170.786778 273.312 
L 172.406214 273.312 
L 172.406214 176.942222 
L 170.786778 176.942222 
z
" clip-path="url(#p3959ffed49)" style="fill: #1f77b4"/>
   </g>
   <g id="patch_68">
    <path d="M 172.406214 273.312 
L 174.02565 273.312 
L 174.02565 201.347556 
L 172.406214 201.347556 
z
" clip-path="url(#p3959ffed49)" style="fill: #1f77b4"/>
   </g>
   <g id="patch_69">
    <path d="M 174.02565 273.312 
L 175.645086 273.312 
L 175.645086 182.574222 
L 174.02565 182.574222 
z
" clip-path="url(#p3959ffed49)" style="fill: #1f77b4"/>
   </g>
   <g id="patch_70">
    <path d="M 175.645086 273.312 
L 177.264522 273.312 
L 177.264522 191.335111 
L 175.645086 191.335111 
z
" clip-path="url(#p3959ffed49)" style="fill: #1f77b4"/>
   </g>
   <g id="patch_71">
    <path d="M 177.264522 273.312 
L 178.883959 273.312 
L 178.883959 207.605333 
L 177.264522 207.605333 
z
" clip-path="url(#p3959ffed49)" style="fill: #1f77b4"/>
   </g>
   <g id="patch_72">
    <path d="M 178.883959 273.312 
L 180.503395 273.312 
L 180.503395 176.942222 
L 178.883959 176.942222 
z
" clip-path="url(#p3959ffed49)" style="fill: #1f77b4"/>
   </g>
   <g id="patch_73">
    <path d="M 180.503395 273.312 
L 182.122831 273.312 
L 182.122831 195.715556 
L 180.503395 195.715556 
z
" clip-path="url(#p3959ffed49)" style="fill: #1f77b4"/>
   </g>
   <g id="patch_74">
    <path d="M 182.122831 273.312 
L 183.742267 273.312 
L 183.742267 189.457778 
L 182.122831 189.457778 
z
" clip-path="url(#p3959ffed49)" style="fill: #1f77b4"/>
   </g>
   <g id="patch_75">
    <path d="M 183.742267 273.312 
L 185.361703 273.312 
L 185.361703 180.071111 
L 183.742267 180.071111 
z
" clip-path="url(#p3959ffed49)" style="fill: #1f77b4"/>
   </g>
   <g id="patch_76">
    <path d="M 185.361703 273.312 
L 186.98114 273.312 
L 186.98114 184.451556 
L 185.361703 184.451556 
z
" clip-path="url(#p3959ffed49)" style="fill: #1f77b4"/>
   </g>
   <g id="patch_77">
    <path d="M 186.98114 273.312 
L 188.600576 273.312 
L 188.600576 181.322667 
L 186.98114 181.322667 
z
" clip-path="url(#p3959ffed49)" style="fill: #1f77b4"/>
   </g>
   <g id="patch_78">
    <path d="M 188.600576 273.312 
L 190.220012 273.312 
L 190.220012 186.954667 
L 188.600576 186.954667 
z
" clip-path="url(#p3959ffed49)" style="fill: #1f77b4"/>
   </g>
   <g id="patch_79">
    <path d="M 190.220012 273.312 
L 191.839448 273.312 
L 191.839448 174.439111 
L 190.220012 174.439111 
z
" clip-path="url(#p3959ffed49)" style="fill: #1f77b4"/>
   </g>
   <g id="patch_80">
    <path d="M 191.839448 273.312 
L 193.458884 273.312 
L 193.458884 176.316444 
L 191.839448 176.316444 
z
" clip-path="url(#p3959ffed49)" style="fill: #1f77b4"/>
   </g>
   <g id="patch_81">
    <path d="M 193.458884 273.312 
L 195.078321 273.312 
L 195.078321 176.316444 
L 193.458884 176.316444 
z
" clip-path="url(#p3959ffed49)" style="fill: #1f77b4"/>
   </g>
   <g id="patch_82">
    <path d="M 195.078321 273.312 
L 196.697757 273.312 
L 196.697757 172.561778 
L 195.078321 172.561778 
z
" clip-path="url(#p3959ffed49)" style="fill: #1f77b4"/>
   </g>
   <g id="patch_83">
    <path d="M 196.697757 273.312 
L 198.317193 273.312 
L 198.317193 175.690667 
L 196.697757 175.690667 
z
" clip-path="url(#p3959ffed49)" style="fill: #1f77b4"/>
   </g>
   <g id="patch_84">
    <path d="M 198.317193 273.312 
L 199.936629 273.312 
L 199.936629 178.193778 
L 198.317193 178.193778 
z
" clip-path="url(#p3959ffed49)" style="fill: #1f77b4"/>
   </g>
   <g id="patch_85">
    <path d="M 199.936629 273.312 
L 201.556065 273.312 
L 201.556065 165.678222 
L 199.936629 165.678222 
z
" clip-path="url(#p3959ffed49)" style="fill: #1f77b4"/>
   </g>
   <g id="patch_86">
    <path d="M 201.556065 273.312 
L 203.175502 273.312 
L 203.175502 160.046222 
L 201.556065 160.046222 
z
" clip-path="url(#p3959ffed49)" style="fill: #1f77b4"/>
   </g>
   <g id="patch_87">
    <path d="M 203.175502 273.312 
L 204.794938 273.312 
L 204.794938 168.181333 
L 203.175502 168.181333 
z
" clip-path="url(#p3959ffed49)" style="fill: #1f77b4"/>
   </g>
   <g id="patch_88">
    <path d="M 204.794938 273.312 
L 206.414374 273.312 
L 206.414374 165.678222 
L 204.794938 165.678222 
z
" clip-path="url(#p3959ffed49)" style="fill: #1f77b4"/>
   </g>
   <g id="patch_89">
    <path d="M 206.414374 273.312 
L 208.03381 273.312 
L 208.03381 162.549333 
L 206.414374 162.549333 
z
" clip-path="url(#p3959ffed49)" style="fill: #1f77b4"/>
   </g>
   <g id="patch_90">
    <path d="M 208.03381 273.312 
L 209.653246 273.312 
L 209.653246 163.800889 
L 208.03381 163.800889 
z
" clip-path="url(#p3959ffed49)" style="fill: #1f77b4"/>
   </g>
   <g id="patch_91">
    <path d="M 209.653246 273.312 
L 211.272683 273.312 
L 211.272683 165.678222 
L 209.653246 165.678222 
z
" clip-path="url(#p3959ffed49)" style="fill: #1f77b4"/>
   </g>
   <g id="patch_92">
    <path d="M 211.272683 273.312 
L 212.892119 273.312 
L 212.892119 163.800889 
L 211.272683 163.800889 
z
" clip-path="url(#p3959ffed49)" style="fill: #1f77b4"/>
   </g>
   <g id="patch_93">
    <path d="M 212.892119 273.312 
L 214.511555 273.312 
L 214.511555 161.923556 
L 212.892119 161.923556 
z
" clip-path="url(#p3959ffed49)" style="fill: #1f77b4"/>
   </g>
   <g id="patch_94">
    <path d="M 214.511555 273.312 
L 216.130991 273.312 
L 216.130991 160.046222 
L 214.511555 160.046222 
z
" clip-path="url(#p3959ffed49)" style="fill: #1f77b4"/>
   </g>
   <g id="patch_95">
    <path d="M 216.130991 273.312 
L 217.750428 273.312 
L 217.750428 155.04 
L 216.130991 155.04 
z
" clip-path="url(#p3959ffed49)" style="fill: #1f77b4"/>
   </g>
   <g id="patch_96">
    <path d="M 217.750428 273.312 
L 219.369864 273.312 
L 219.369864 158.168889 
L 217.750428 158.168889 
z
" clip-path="url(#p3959ffed49)" style="fill: #1f77b4"/>
   </g>
   <g id="patch_97">
    <path d="M 219.369864 273.312 
L 220.9893 273.312 
L 220.9893 146.279111 
L 219.369864 146.279111 
z
" clip-path="url(#p3959ffed49)" style="fill: #1f77b4"/>
   </g>
   <g id="patch_98">
    <path d="M 220.9893 273.312 
L 222.608736 273.312 
L 222.608736 166.304 
L 220.9893 166.304 
z
" clip-path="url(#p3959ffed49)" style="fill: #1f77b4"/>
   </g>
   <g id="patch_99">
    <path d="M 222.608736 273.312 
L 224.228172 273.312 
L 224.228172 146.279111 
L 222.608736 146.279111 
z
" clip-path="url(#p3959ffed49)" style="fill: #1f77b4"/>
   </g>
   <g id="patch_100">
    <path d="M 224.228172 273.312 
L 225.847609 273.312 
L 225.847609 153.788444 
L 224.228172 153.788444 
z
" clip-path="url(#p3959ffed49)" style="fill: #1f77b4"/>
   </g>
   <g id="patch_101">
    <path d="M 225.847609 273.312 
L 227.467045 273.312 
L 227.467045 168.807111 
L 225.847609 168.807111 
z
" clip-path="url(#p3959ffed49)" style="fill: #1f77b4"/>
   </g>
   <g id="patch_102">
    <path d="M 227.467045 273.312 
L 229.086481 273.312 
L 229.086481 150.033778 
L 227.467045 150.033778 
z
" clip-path="url(#p3959ffed49)" style="fill: #1f77b4"/>
   </g>
   <g id="patch_103">
    <path d="M 229.086481 273.312 
L 230.705917 273.312 
L 230.705917 159.420444 
L 229.086481 159.420444 
z
" clip-path="url(#p3959ffed49)" style="fill: #1f77b4"/>
   </g>
   <g id="patch_104">
    <path d="M 230.705917 273.312 
L 232.325353 273.312 
L 232.325353 146.904889 
L 230.705917 146.904889 
z
" clip-path="url(#p3959ffed49)" style="fill: #1f77b4"/>
   </g>
   <g id="patch_105">
    <path d="M 232.325353 273.312 
L 233.94479 273.312 
L 233.94479 152.536889 
L 232.325353 152.536889 
z
" clip-path="url(#p3959ffed49)" style="fill: #1f77b4"/>
   </g>
   <g id="patch_106">
    <path d="M 233.94479 273.312 
L 235.564226 273.312 
L 235.564226 127.505778 
L 233.94479 127.505778 
z
" clip-path="url(#p3959ffed49)" style="fill: #1f77b4"/>
   </g>
   <g id="patch_107">
    <path d="M 235.564226 273.312 
L 237.183662 273.312 
L 237.183662 145.653333 
L 235.564226 145.653333 
z
" clip-path="url(#p3959ffed49)" style="fill: #1f77b4"/>
   </g>
   <g id="patch_108">
    <path d="M 237.183662 273.312 
L 238.803098 273.312 
L 238.803098 140.647111 
L 237.183662 140.647111 
z
" clip-path="url(#p3959ffed49)" style="fill: #1f77b4"/>
   </g>
   <g id="patch_109">
    <path d="M 238.803098 273.312 
L 240.422534 273.312 
L 240.422534 138.144 
L 238.803098 138.144 
z
" clip-path="url(#p3959ffed49)" style="fill: #1f77b4"/>
   </g>
   <g id="patch_110">
    <path d="M 240.422534 273.312 
L 242.041971 273.312 
L 242.041971 135.640889 
L 240.422534 135.640889 
z
" clip-path="url(#p3959ffed49)" style="fill: #1f77b4"/>
   </g>
   <g id="patch_111">
    <path d="M 242.041971 273.312 
L 243.661407 273.312 
L 243.661407 124.376889 
L 242.041971 124.376889 
z
" clip-path="url(#p3959ffed49)" style="fill: #1f77b4"/>
   </g>
   <g id="patch_112">
    <path d="M 243.661407 273.312 
L 245.280843 273.312 
L 245.280843 155.665778 
L 243.661407 155.665778 
z
" clip-path="url(#p3959ffed49)" style="fill: #1f77b4"/>
   </g>
   <g id="patch_113">
    <path d="M 245.280843 273.312 
L 246.900279 273.312 
L 246.900279 138.769778 
L 245.280843 138.769778 
z
" clip-path="url(#p3959ffed49)" style="fill: #1f77b4"/>
   </g>
   <g id="patch_114">
    <path d="M 246.900279 273.312 
L 248.519715 273.312 
L 248.519715 118.744889 
L 246.900279 118.744889 
z
" clip-path="url(#p3959ffed49)" style="fill: #1f77b4"/>
   </g>
   <g id="patch_115">
    <path d="M 248.519715 273.312 
L 250.139152 273.312 
L 250.139152 123.125333 
L 248.519715 123.125333 
z
" clip-path="url(#p3959ffed49)" style="fill: #1f77b4"/>
   </g>
   <g id="patch_116">
    <path d="M 250.139152 273.312 
L 251.758588 273.312 
L 251.758588 138.769778 
L 250.139152 138.769778 
z
" clip-path="url(#p3959ffed49)" style="fill: #1f77b4"/>
   </g>
   <g id="patch_117">
    <path d="M 251.758588 273.312 
L 253.378024 273.312 
L 253.378024 126.254222 
L 251.758588 126.254222 
z
" clip-path="url(#p3959ffed49)" style="fill: #1f77b4"/>
   </g>
   <g id="patch_118">
    <path d="M 253.378024 273.312 
L 254.99746 273.312 
L 254.99746 130.008889 
L 253.378024 130.008889 
z
" clip-path="url(#p3959ffed49)" style="fill: #1f77b4"/>
   </g>
   <g id="patch_119">
    <path d="M 254.99746 273.312 
L 256.616897 273.312 
L 256.616897 121.873778 
L 254.99746 121.873778 
z
" clip-path="url(#p3959ffed49)" style="fill: #1f77b4"/>
   </g>
   <g id="patch_120">
    <path d="M 256.616897 273.312 
L 258.236333 273.312 
L 258.236333 134.389333 
L 256.616897 134.389333 
z
" clip-path="url(#p3959ffed49)" style="fill: #1f77b4"/>
   </g>
   <g id="patch_121">
    <path d="M 258.236333 273.312 
L 259.855769 273.312 
L 259.855769 126.88 
L 258.236333 126.88 
z
" clip-path="url(#p3959ffed49)" style="fill: #1f77b4"/>
   </g>
   <g id="patch_122">
    <path d="M 259.855769 273.312 
L 261.475205 273.312 
L 261.475205 130.008889 
L 259.855769 130.008889 
z
" clip-path="url(#p3959ffed49)" style="fill: #1f77b4"/>
   </g>
   <g id="patch_123">
    <path d="M 261.475205 273.312 
L 263.094641 273.312 
L 263.094641 103.100444 
L 261.475205 103.100444 
z
" clip-path="url(#p3959ffed49)" style="fill: #1f77b4"/>
   </g>
   <g id="patch_124">
    <path d="M 263.094641 273.312 
L 264.714078 273.312 
L 264.714078 127.505778 
L 263.094641 127.505778 
z
" clip-path="url(#p3959ffed49)" style="fill: #1f77b4"/>
   </g>
   <g id="patch_125">
    <path d="M 264.714078 273.312 
L 266.333514 273.312 
L 266.333514 114.990222 
L 264.714078 114.990222 
z
" clip-path="url(#p3959ffed49)" style="fill: #1f77b4"/>
   </g>
   <g id="patch_126">
    <path d="M 266.333514 273.312 
L 267.95295 273.312 
L 267.95295 123.751111 
L 266.333514 123.751111 
z
" clip-path="url(#p3959ffed49)" style="fill: #1f77b4"/>
   </g>
   <g id="patch_127">
    <path d="M 267.95295 273.312 
L 269.572386 273.312 
L 269.572386 118.119111 
L 267.95295 118.119111 
z
" clip-path="url(#p3959ffed49)" style="fill: #1f77b4"/>
   </g>
   <g id="patch_128">
    <path d="M 269.572386 273.312 
L 271.191822 273.312 
L 271.191822 108.106667 
L 269.572386 108.106667 
z
" clip-path="url(#p3959ffed49)" style="fill: #1f77b4"/>
   </g>
   <g id="patch_129">
    <path d="M 271.191822 273.312 
L 272.811259 273.312 
L 272.811259 109.358222 
L 271.191822 109.358222 
z
" clip-path="url(#p3959ffed49)" style="fill: #1f77b4"/>
   </g>
   <g id="patch_130">
    <path d="M 272.811259 273.312 
L 274.430695 273.312 
L 274.430695 106.855111 
L 272.811259 106.855111 
z
" clip-path="url(#p3959ffed49)" style="fill: #1f77b4"/>
   </g>
   <g id="patch_131">
    <path d="M 274.430695 273.312 
L 276.050131 273.312 
L 276.050131 112.487111 
L 274.430695 112.487111 
z
" clip-path="url(#p3959ffed49)" style="fill: #1f77b4"/>
   </g>
   <g id="patch_132">
    <path d="M 276.050131 273.312 
L 277.669567 273.312 
L 277.669567 112.487111 
L 276.050131 112.487111 
z
" clip-path="url(#p3959ffed49)" style="fill: #1f77b4"/>
   </g>
   <g id="patch_133">
    <path d="M 277.669567 273.312 
L 279.289003 273.312 
L 279.289003 92.462222 
L 277.669567 92.462222 
z
" clip-path="url(#p3959ffed49)" style="fill: #1f77b4"/>
   </g>
   <g id="patch_134">
    <path d="M 279.289003 273.312 
L 280.90844 273.312 
L 280.90844 103.726222 
L 279.289003 103.726222 
z
" clip-path="url(#p3959ffed49)" style="fill: #1f77b4"/>
   </g>
   <g id="patch_135">
    <path d="M 280.90844 273.312 
L 282.527876 273.312 
L 282.527876 133.137778 
L 280.90844 133.137778 
z
" clip-path="url(#p3959ffed49)" style="fill: #1f77b4"/>
   </g>
   <g id="patch_136">
    <path d="M 282.527876 273.312 
L 284.147312 273.312 
L 284.147312 94.965333 
L 282.527876 94.965333 
z
" clip-path="url(#p3959ffed49)" style="fill: #1f77b4"/>
   </g>
   <g id="patch_137">
    <path d="M 284.147312 273.312 
L 285.766748 273.312 
L 285.766748 110.609778 
L 284.147312 110.609778 
z
" clip-path="url(#p3959ffed49)" style="fill: #1f77b4"/>
   </g>
   <g id="patch_138">
    <path d="M 285.766748 273.312 
L 287.386184 273.312 
L 287.386184 123.125333 
L 285.766748 123.125333 
z
" clip-path="url(#p3959ffed49)" style="fill: #1f77b4"/>
   </g>
   <g id="patch_139">
    <path d="M 287.386184 273.312 
L 289.005621 273.312 
L 289.005621 99.345778 
L 287.386184 99.345778 
z
" clip-path="url(#p3959ffed49)" style="fill: #1f77b4"/>
   </g>
   <g id="patch_140">
    <path d="M 289.005621 273.312 
L 290.625057 273.312 
L 290.625057 79.320889 
L 289.005621 79.320889 
z
" clip-path="url(#p3959ffed49)" style="fill: #1f77b4"/>
   </g>
   <g id="patch_141">
    <path d="M 290.625057 273.312 
L 292.244493 273.312 
L 292.244493 99.345778 
L 290.625057 99.345778 
z
" clip-path="url(#p3959ffed49)" style="fill: #1f77b4"/>
   </g>
   <g id="patch_142">
    <path d="M 292.244493 273.312 
L 293.863929 273.312 
L 293.863929 101.223111 
L 292.244493 101.223111 
z
" clip-path="url(#p3959ffed49)" style="fill: #1f77b4"/>
   </g>
   <g id="patch_143">
    <path d="M 293.863929 273.312 
L 295.483365 273.312 
L 295.483365 91.836444 
L 293.863929 91.836444 
z
" clip-path="url(#p3959ffed49)" style="fill: #1f77b4"/>
   </g>
   <g id="patch_144">
    <path d="M 295.483365 273.312 
L 297.102802 273.312 
L 297.102802 86.204444 
L 295.483365 86.204444 
z
" clip-path="url(#p3959ffed49)" style="fill: #1f77b4"/>
   </g>
   <g id="patch_145">
    <path d="M 297.102802 273.312 
L 298.722238 273.312 
L 298.722238 107.480889 
L 297.102802 107.480889 
z
" clip-path="url(#p3959ffed49)" style="fill: #1f77b4"/>
   </g>
   <g id="patch_146">
    <path d="M 298.722238 273.312 
L 300.341674 273.312 
L 300.341674 91.836444 
L 298.722238 91.836444 
z
" clip-path="url(#p3959ffed49)" style="fill: #1f77b4"/>
   </g>
   <g id="patch_147">
    <path d="M 300.341674 273.312 
L 301.96111 273.312 
L 301.96111 94.965333 
L 300.341674 94.965333 
z
" clip-path="url(#p3959ffed49)" style="fill: #1f77b4"/>
   </g>
   <g id="patch_148">
    <path d="M 301.96111 273.312 
L 303.580547 273.312 
L 303.580547 88.707556 
L 301.96111 88.707556 
z
" clip-path="url(#p3959ffed49)" style="fill: #1f77b4"/>
   </g>
   <g id="patch_149">
    <path d="M 303.580547 273.312 
L 305.199983 273.312 
L 305.199983 99.345778 
L 303.580547 99.345778 
z
" clip-path="url(#p3959ffed49)" style="fill: #1f77b4"/>
   </g>
   <g id="patch_150">
    <path d="M 305.199983 273.312 
L 306.819419 273.312 
L 306.819419 102.474667 
L 305.199983 102.474667 
z
" clip-path="url(#p3959ffed49)" style="fill: #1f77b4"/>
   </g>
   <g id="patch_151">
    <path d="M 306.819419 273.312 
L 308.438855 273.312 
L 308.438855 78.695111 
L 306.819419 78.695111 
z
" clip-path="url(#p3959ffed49)" style="fill: #1f77b4"/>
   </g>
   <g id="patch_152">
    <path d="M 308.438855 273.312 
L 310.058291 273.312 
L 310.058291 62.424889 
L 308.438855 62.424889 
z
" clip-path="url(#p3959ffed49)" style="fill: #1f77b4"/>
   </g>
   <g id="patch_153">
    <path d="M 310.058291 273.312 
L 311.677728 273.312 
L 311.677728 90.584889 
L 310.058291 90.584889 
z
" clip-path="url(#p3959ffed49)" style="fill: #1f77b4"/>
   </g>
   <g id="patch_154">
    <path d="M 311.677728 273.312 
L 313.297164 273.312 
L 313.297164 94.965333 
L 311.677728 94.965333 
z
" clip-path="url(#p3959ffed49)" style="fill: #1f77b4"/>
   </g>
   <g id="patch_155">
    <path d="M 313.297164 273.312 
L 314.9166 273.312 
L 314.9166 55.541333 
L 313.297164 55.541333 
z
" clip-path="url(#p3959ffed49)" style="fill: #1f77b4"/>
   </g>
   <g id="patch_156">
    <path d="M 314.9166 273.312 
L 316.536036 273.312 
L 316.536036 91.210667 
L 314.9166 91.210667 
z
" clip-path="url(#p3959ffed49)" style="fill: #1f77b4"/>
   </g>
   <g id="patch_157">
    <path d="M 316.536036 273.312 
L 318.155472 273.312 
L 318.155472 71.185778 
L 316.536036 71.185778 
z
" clip-path="url(#p3959ffed49)" style="fill: #1f77b4"/>
   </g>
   <g id="patch_158">
    <path d="M 318.155472 273.312 
L 319.774909 273.312 
L 319.774909 78.695111 
L 318.155472 78.695111 
z
" clip-path="url(#p3959ffed49)" style="fill: #1f77b4"/>
   </g>
   <g id="patch_159">
    <path d="M 319.774909 273.312 
L 321.394345 273.312 
L 321.394345 83.075556 
L 319.774909 83.075556 
z
" clip-path="url(#p3959ffed49)" style="fill: #1f77b4"/>
   </g>
   <g id="patch_160">
    <path d="M 321.394345 273.312 
L 323.013781 273.312 
L 323.013781 65.553778 
L 321.394345 65.553778 
z
" clip-path="url(#p3959ffed49)" style="fill: #1f77b4"/>
   </g>
   <g id="patch_161">
    <path d="M 323.013781 273.312 
L 324.633217 273.312 
L 324.633217 83.075556 
L 323.013781 83.075556 
z
" clip-path="url(#p3959ffed49)" style="fill: #1f77b4"/>
   </g>
   <g id="patch_162">
    <path d="M 324.633217 273.312 
L 326.252653 273.312 
L 326.252653 79.320889 
L 324.633217 79.320889 
z
" clip-path="url(#p3959ffed49)" style="fill: #1f77b4"/>
   </g>
   <g id="patch_163">
    <path d="M 326.252653 273.312 
L 327.87209 273.312 
L 327.87209 63.050667 
L 326.252653 63.050667 
z
" clip-path="url(#p3959ffed49)" style="fill: #1f77b4"/>
   </g>
   <g id="patch_164">
    <path d="M 327.87209 273.312 
L 329.491526 273.312 
L 329.491526 69.934222 
L 327.87209 69.934222 
z
" clip-path="url(#p3959ffed49)" style="fill: #1f77b4"/>
   </g>
   <g id="patch_165">
    <path d="M 329.491526 273.312 
L 331.110962 273.312 
L 331.110962 78.695111 
L 329.491526 78.695111 
z
" clip-path="url(#p3959ffed49)" style="fill: #1f77b4"/>
   </g>
   <g id="patch_166">
    <path d="M 331.110962 273.312 
L 332.730398 273.312 
L 332.730398 67.431111 
L 331.110962 67.431111 
z
" clip-path="url(#p3959ffed49)" style="fill: #1f77b4"/>
   </g>
   <g id="patch_167">
    <path d="M 332.730398 273.312 
L 334.349834 273.312 
L 334.349834 67.431111 
L 332.730398 67.431111 
z
" clip-path="url(#p3959ffed49)" style="fill: #1f77b4"/>
   </g>
   <g id="patch_168">
    <path d="M 334.349834 273.312 
L 335.969271 273.312 
L 335.969271 59.296 
L 334.349834 59.296 
z
" clip-path="url(#p3959ffed49)" style="fill: #1f77b4"/>
   </g>
   <g id="patch_169">
    <path d="M 335.969271 273.312 
L 337.588707 273.312 
L 337.588707 63.676444 
L 335.969271 63.676444 
z
" clip-path="url(#p3959ffed49)" style="fill: #1f77b4"/>
   </g>
   <g id="patch_170">
    <path d="M 337.588707 273.312 
L 339.208143 273.312 
L 339.208143 66.179556 
L 337.588707 66.179556 
z
" clip-path="url(#p3959ffed49)" style="fill: #1f77b4"/>
   </g>
   <g id="patch_171">
    <path d="M 339.208143 273.312 
L 340.827579 273.312 
L 340.827579 70.56 
L 339.208143 70.56 
z
" clip-path="url(#p3959ffed49)" style="fill: #1f77b4"/>
   </g>
   <g id="patch_172">
    <path d="M 340.827579 273.312 
L 342.447016 273.312 
L 342.447016 83.701333 
L 340.827579 83.701333 
z
" clip-path="url(#p3959ffed49)" style="fill: #1f77b4"/>
   </g>
   <g id="patch_173">
    <path d="M 342.447016 273.312 
L 344.066452 273.312 
L 344.066452 77.443556 
L 342.447016 77.443556 
z
" clip-path="url(#p3959ffed49)" style="fill: #1f77b4"/>
   </g>
   <g id="patch_174">
    <path d="M 344.066452 273.312 
L 345.685888 273.312 
L 345.685888 60.547556 
L 344.066452 60.547556 
z
" clip-path="url(#p3959ffed49)" style="fill: #1f77b4"/>
   </g>
   <g id="patch_175">
    <path d="M 345.685888 273.312 
L 347.305324 273.312 
L 347.305324 42.4 
L 345.685888 42.4 
z
" clip-path="url(#p3959ffed49)" style="fill: #1f77b4"/>
   </g>
   <g id="patch_176">
    <path d="M 347.305324 273.312 
L 348.92476 273.312 
L 348.92476 46.154667 
L 347.305324 46.154667 
z
" clip-path="url(#p3959ffed49)" style="fill: #1f77b4"/>
   </g>
   <g id="patch_177">
    <path d="M 348.92476 273.312 
L 350.544197 273.312 
L 350.544197 70.56 
L 348.92476 70.56 
z
" clip-path="url(#p3959ffed49)" style="fill: #1f77b4"/>
   </g>
   <g id="patch_178">
    <path d="M 350.544197 273.312 
L 352.163633 273.312 
L 352.163633 50.535111 
L 350.544197 50.535111 
z
" clip-path="url(#p3959ffed49)" style="fill: #1f77b4"/>
   </g>
   <g id="patch_179">
    <path d="M 352.163633 273.312 
L 353.783069 273.312 
L 353.783069 61.173333 
L 352.163633 61.173333 
z
" clip-path="url(#p3959ffed49)" style="fill: #1f77b4"/>
   </g>
   <g id="patch_180">
    <path d="M 353.783069 273.312 
L 355.402505 273.312 
L 355.402505 52.412444 
L 353.783069 52.412444 
z
" clip-path="url(#p3959ffed49)" style="fill: #1f77b4"/>
   </g>
   <g id="patch_181">
    <path d="M 355.402505 273.312 
L 357.021941 273.312 
L 357.021941 39.271111 
L 355.402505 39.271111 
z
" clip-path="url(#p3959ffed49)" style="fill: #1f77b4"/>
   </g>
   <g id="patch_182">
    <path d="M 357.021941 273.312 
L 358.641378 273.312 
L 358.641378 69.308444 
L 357.021941 69.308444 
z
" clip-path="url(#p3959ffed49)" style="fill: #1f77b4"/>
   </g>
   <g id="patch_183">
    <path d="M 358.641378 273.312 
L 360.260814 273.312 
L 360.260814 48.032 
L 358.641378 48.032 
z
" clip-path="url(#p3959ffed49)" style="fill: #1f77b4"/>
   </g>
   <g id="patch_184">
    <path d="M 360.260814 273.312 
L 361.88025 273.312 
L 361.88025 61.173333 
L 360.260814 61.173333 
z
" clip-path="url(#p3959ffed49)" style="fill: #1f77b4"/>
   </g>
   <g id="patch_185">
    <path d="M 361.88025 273.312 
L 363.499686 273.312 
L 363.499686 39.896889 
L 361.88025 39.896889 
z
" clip-path="url(#p3959ffed49)" style="fill: #1f77b4"/>
   </g>
   <g id="patch_186">
    <path d="M 363.499686 273.312 
L 365.119122 273.312 
L 365.119122 33.639111 
L 363.499686 33.639111 
z
" clip-path="url(#p3959ffed49)" style="fill: #1f77b4"/>
   </g>
   <g id="patch_187">
    <path d="M 365.119122 273.312 
L 366.738559 273.312 
L 366.738559 44.903111 
L 365.119122 44.903111 
z
" clip-path="url(#p3959ffed49)" style="fill: #1f77b4"/>
   </g>
   <g id="patch_188">
    <path d="M 366.738559 273.312 
L 368.357995 273.312 
L 368.357995 37.393778 
L 366.738559 37.393778 
z
" clip-path="url(#p3959ffed49)" style="fill: #1f77b4"/>
   </g>
   <g id="patch_189">
    <path d="M 368.357995 273.312 
L 369.977431 273.312 
L 369.977431 56.167111 
L 368.357995 56.167111 
z
" clip-path="url(#p3959ffed49)" style="fill: #1f77b4"/>
   </g>
   <g id="patch_190">
    <path d="M 369.977431 273.312 
L 371.596867 273.312 
L 371.596867 40.522667 
L 369.977431 40.522667 
z
" clip-path="url(#p3959ffed49)" style="fill: #1f77b4"/>
   </g>
   <g id="patch_191">
    <path d="M 371.596867 273.312 
L 373.216303 273.312 
L 373.216303 32.387556 
L 371.596867 32.387556 
z
" clip-path="url(#p3959ffed49)" style="fill: #1f77b4"/>
   </g>
   <g id="patch_192">
    <path d="M 373.216303 273.312 
L 374.83574 273.312 
L 374.83574 39.271111 
L 373.216303 39.271111 
z
" clip-path="url(#p3959ffed49)" style="fill: #1f77b4"/>
   </g>
   <g id="patch_193">
    <path d="M 374.83574 273.312 
L 376.455176 273.312 
L 376.455176 20.497778 
L 374.83574 20.497778 
z
" clip-path="url(#p3959ffed49)" style="fill: #1f77b4"/>
   </g>
   <g id="patch_194">
    <path d="M 376.455176 273.312 
L 378.074612 273.312 
L 378.074612 25.504 
L 376.455176 25.504 
z
" clip-path="url(#p3959ffed49)" style="fill: #1f77b4"/>
   </g>
   <g id="patch_195">
    <path d="M 378.074612 273.312 
L 379.694048 273.312 
L 379.694048 49.909333 
L 378.074612 49.909333 
z
" clip-path="url(#p3959ffed49)" style="fill: #1f77b4"/>
   </g>
   <g id="patch_196">
    <path d="M 379.694048 273.312 
L 381.313485 273.312 
L 381.313485 44.277333 
L 379.694048 44.277333 
z
" clip-path="url(#p3959ffed49)" style="fill: #1f77b4"/>
   </g>
   <g id="patch_197">
    <path d="M 381.313485 273.312 
L 382.932921 273.312 
L 382.932921 24.252444 
L 381.313485 24.252444 
z
" clip-path="url(#p3959ffed49)" style="fill: #1f77b4"/>
   </g>
   <g id="patch_198">
    <path d="M 382.932921 273.312 
L 384.552357 273.312 
L 384.552357 24.878222 
L 382.932921 24.878222 
z
" clip-path="url(#p3959ffed49)" style="fill: #1f77b4"/>
   </g>
   <g id="patch_199">
    <path d="M 384.552357 273.312 
L 386.171793 273.312 
L 386.171793 39.271111 
L 384.552357 39.271111 
z
" clip-path="url(#p3959ffed49)" style="fill: #1f77b4"/>
   </g>
   <g id="patch_200">
    <path d="M 386.171793 273.312 
L 387.791229 273.312 
L 387.791229 19.872 
L 386.171793 19.872 
z
" clip-path="url(#p3959ffed49)" style="fill: #1f77b4"/>
   </g>
   <g id="patch_201">
    <path d="M 387.791229 273.312 
L 389.410666 273.312 
L 389.410666 25.504 
L 387.791229 25.504 
z
" clip-path="url(#p3959ffed49)" style="fill: #1f77b4"/>
   </g>
   <g id="patch_202">
    <path d="M 389.410666 273.312 
L 391.030102 273.312 
L 391.030102 20.497778 
L 389.410666 20.497778 
z
" clip-path="url(#p3959ffed49)" style="fill: #1f77b4"/>
   </g>
   <g id="matplotlib.axis_1">
    <g id="xtick_1">
     <g id="line2d_1">
      <defs>
       <path id="m4c28dcd579" d="M 0 0 
L 0 3.5 
" style="stroke: #000000; stroke-width: 0.8"/>
      </defs>
      <g>
       <use xlink:href="#m4c28dcd579" x="66.376477" y="273.312" style="stroke: #000000; stroke-width: 0.8"/>
      </g>
     </g>
     <g id="text_1">
      <!-- 0.0 -->
      <g transform="translate(58.424915 287.910437)scale(0.1 -0.1)">
       <defs>
        <path id="DejaVuSans-30" d="M 2034 4250 
Q 1547 4250 1301 3770 
Q 1056 3291 1056 2328 
Q 1056 1369 1301 889 
Q 1547 409 2034 409 
Q 2525 409 2770 889 
Q 3016 1369 3016 2328 
Q 3016 3291 2770 3770 
Q 2525 4250 2034 4250 
z
M 2034 4750 
Q 2819 4750 3233 4129 
Q 3647 3509 3647 2328 
Q 3647 1150 3233 529 
Q 2819 -91 2034 -91 
Q 1250 -91 836 529 
Q 422 1150 422 2328 
Q 422 3509 836 4129 
Q 1250 4750 2034 4750 
z
" transform="scale(0.015625)"/>
        <path id="DejaVuSans-2e" d="M 684 794 
L 1344 794 
L 1344 0 
L 684 0 
L 684 794 
z
" transform="scale(0.015625)"/>
       </defs>
       <use xlink:href="#DejaVuSans-30"/>
       <use xlink:href="#DejaVuSans-2e" x="63.623047"/>
       <use xlink:href="#DejaVuSans-30" x="95.410156"/>
      </g>
     </g>
    </g>
    <g id="xtick_2">
     <g id="line2d_2">
      <g>
       <use xlink:href="#m4c28dcd579" x="131.307386" y="273.312" style="stroke: #000000; stroke-width: 0.8"/>
      </g>
     </g>
     <g id="text_2">
      <!-- 0.2 -->
      <g transform="translate(123.355824 287.910437)scale(0.1 -0.1)">
       <defs>
        <path id="DejaVuSans-32" d="M 1228 531 
L 3431 531 
L 3431 0 
L 469 0 
L 469 531 
Q 828 903 1448 1529 
Q 2069 2156 2228 2338 
Q 2531 2678 2651 2914 
Q 2772 3150 2772 3378 
Q 2772 3750 2511 3984 
Q 2250 4219 1831 4219 
Q 1534 4219 1204 4116 
Q 875 4013 500 3803 
L 500 4441 
Q 881 4594 1212 4672 
Q 1544 4750 1819 4750 
Q 2544 4750 2975 4387 
Q 3406 4025 3406 3419 
Q 3406 3131 3298 2873 
Q 3191 2616 2906 2266 
Q 2828 2175 2409 1742 
Q 1991 1309 1228 531 
z
" transform="scale(0.015625)"/>
       </defs>
       <use xlink:href="#DejaVuSans-30"/>
       <use xlink:href="#DejaVuSans-2e" x="63.623047"/>
       <use xlink:href="#DejaVuSans-32" x="95.410156"/>
      </g>
     </g>
    </g>
    <g id="xtick_3">
     <g id="line2d_3">
      <g>
       <use xlink:href="#m4c28dcd579" x="196.238295" y="273.312" style="stroke: #000000; stroke-width: 0.8"/>
      </g>
     </g>
     <g id="text_3">
      <!-- 0.4 -->
      <g transform="translate(188.286733 287.910437)scale(0.1 -0.1)">
       <defs>
        <path id="DejaVuSans-34" d="M 2419 4116 
L 825 1625 
L 2419 1625 
L 2419 4116 
z
M 2253 4666 
L 3047 4666 
L 3047 1625 
L 3713 1625 
L 3713 1100 
L 3047 1100 
L 3047 0 
L 2419 0 
L 2419 1100 
L 313 1100 
L 313 1709 
L 2253 4666 
z
" transform="scale(0.015625)"/>
       </defs>
       <use xlink:href="#DejaVuSans-30"/>
       <use xlink:href="#DejaVuSans-2e" x="63.623047"/>
       <use xlink:href="#DejaVuSans-34" x="95.410156"/>
      </g>
     </g>
    </g>
    <g id="xtick_4">
     <g id="line2d_4">
      <g>
       <use xlink:href="#m4c28dcd579" x="261.169205" y="273.312" style="stroke: #000000; stroke-width: 0.8"/>
      </g>
     </g>
     <g id="text_4">
      <!-- 0.6 -->
      <g transform="translate(253.217642 287.910437)scale(0.1 -0.1)">
       <defs>
        <path id="DejaVuSans-36" d="M 2113 2584 
Q 1688 2584 1439 2293 
Q 1191 2003 1191 1497 
Q 1191 994 1439 701 
Q 1688 409 2113 409 
Q 2538 409 2786 701 
Q 3034 994 3034 1497 
Q 3034 2003 2786 2293 
Q 2538 2584 2113 2584 
z
M 3366 4563 
L 3366 3988 
Q 3128 4100 2886 4159 
Q 2644 4219 2406 4219 
Q 1781 4219 1451 3797 
Q 1122 3375 1075 2522 
Q 1259 2794 1537 2939 
Q 1816 3084 2150 3084 
Q 2853 3084 3261 2657 
Q 3669 2231 3669 1497 
Q 3669 778 3244 343 
Q 2819 -91 2113 -91 
Q 1303 -91 875 529 
Q 447 1150 447 2328 
Q 447 3434 972 4092 
Q 1497 4750 2381 4750 
Q 2619 4750 2861 4703 
Q 3103 4656 3366 4563 
z
" transform="scale(0.015625)"/>
       </defs>
       <use xlink:href="#DejaVuSans-30"/>
       <use xlink:href="#DejaVuSans-2e" x="63.623047"/>
       <use xlink:href="#DejaVuSans-36" x="95.410156"/>
      </g>
     </g>
    </g>
    <g id="xtick_5">
     <g id="line2d_5">
      <g>
       <use xlink:href="#m4c28dcd579" x="326.100114" y="273.312" style="stroke: #000000; stroke-width: 0.8"/>
      </g>
     </g>
     <g id="text_5">
      <!-- 0.8 -->
      <g transform="translate(318.148551 287.910437)scale(0.1 -0.1)">
       <defs>
        <path id="DejaVuSans-38" d="M 2034 2216 
Q 1584 2216 1326 1975 
Q 1069 1734 1069 1313 
Q 1069 891 1326 650 
Q 1584 409 2034 409 
Q 2484 409 2743 651 
Q 3003 894 3003 1313 
Q 3003 1734 2745 1975 
Q 2488 2216 2034 2216 
z
M 1403 2484 
Q 997 2584 770 2862 
Q 544 3141 544 3541 
Q 544 4100 942 4425 
Q 1341 4750 2034 4750 
Q 2731 4750 3128 4425 
Q 3525 4100 3525 3541 
Q 3525 3141 3298 2862 
Q 3072 2584 2669 2484 
Q 3125 2378 3379 2068 
Q 3634 1759 3634 1313 
Q 3634 634 3220 271 
Q 2806 -91 2034 -91 
Q 1263 -91 848 271 
Q 434 634 434 1313 
Q 434 1759 690 2068 
Q 947 2378 1403 2484 
z
M 1172 3481 
Q 1172 3119 1398 2916 
Q 1625 2713 2034 2713 
Q 2441 2713 2670 2916 
Q 2900 3119 2900 3481 
Q 2900 3844 2670 4047 
Q 2441 4250 2034 4250 
Q 1625 4250 1398 4047 
Q 1172 3844 1172 3481 
z
" transform="scale(0.015625)"/>
       </defs>
       <use xlink:href="#DejaVuSans-30"/>
       <use xlink:href="#DejaVuSans-2e" x="63.623047"/>
       <use xlink:href="#DejaVuSans-38" x="95.410156"/>
      </g>
     </g>
    </g>
    <g id="xtick_6">
     <g id="line2d_6">
      <g>
       <use xlink:href="#m4c28dcd579" x="391.031023" y="273.312" style="stroke: #000000; stroke-width: 0.8"/>
      </g>
     </g>
     <g id="text_6">
      <!-- 1.0 -->
      <g transform="translate(383.07946 287.910437)scale(0.1 -0.1)">
       <defs>
        <path id="DejaVuSans-31" d="M 794 531 
L 1825 531 
L 1825 4091 
L 703 3866 
L 703 4441 
L 1819 4666 
L 2450 4666 
L 2450 531 
L 3481 531 
L 3481 0 
L 794 0 
L 794 531 
z
" transform="scale(0.015625)"/>
       </defs>
       <use xlink:href="#DejaVuSans-31"/>
       <use xlink:href="#DejaVuSans-2e" x="63.623047"/>
       <use xlink:href="#DejaVuSans-30" x="95.410156"/>
      </g>
     </g>
    </g>
    <g id="text_7">
     <!-- Propagation direction -->
     <g transform="translate(175.221719 301.588562)scale(0.1 -0.1)">
      <defs>
       <path id="DejaVuSans-50" d="M 1259 4147 
L 1259 2394 
L 2053 2394 
Q 2494 2394 2734 2622 
Q 2975 2850 2975 3272 
Q 2975 3691 2734 3919 
Q 2494 4147 2053 4147 
L 1259 4147 
z
M 628 4666 
L 2053 4666 
Q 2838 4666 3239 4311 
Q 3641 3956 3641 3272 
Q 3641 2581 3239 2228 
Q 2838 1875 2053 1875 
L 1259 1875 
L 1259 0 
L 628 0 
L 628 4666 
z
" transform="scale(0.015625)"/>
       <path id="DejaVuSans-72" d="M 2631 2963 
Q 2534 3019 2420 3045 
Q 2306 3072 2169 3072 
Q 1681 3072 1420 2755 
Q 1159 2438 1159 1844 
L 1159 0 
L 581 0 
L 581 3500 
L 1159 3500 
L 1159 2956 
Q 1341 3275 1631 3429 
Q 1922 3584 2338 3584 
Q 2397 3584 2469 3576 
Q 2541 3569 2628 3553 
L 2631 2963 
z
" transform="scale(0.015625)"/>
       <path id="DejaVuSans-6f" d="M 1959 3097 
Q 1497 3097 1228 2736 
Q 959 2375 959 1747 
Q 959 1119 1226 758 
Q 1494 397 1959 397 
Q 2419 397 2687 759 
Q 2956 1122 2956 1747 
Q 2956 2369 2687 2733 
Q 2419 3097 1959 3097 
z
M 1959 3584 
Q 2709 3584 3137 3096 
Q 3566 2609 3566 1747 
Q 3566 888 3137 398 
Q 2709 -91 1959 -91 
Q 1206 -91 779 398 
Q 353 888 353 1747 
Q 353 2609 779 3096 
Q 1206 3584 1959 3584 
z
" transform="scale(0.015625)"/>
       <path id="DejaVuSans-70" d="M 1159 525 
L 1159 -1331 
L 581 -1331 
L 581 3500 
L 1159 3500 
L 1159 2969 
Q 1341 3281 1617 3432 
Q 1894 3584 2278 3584 
Q 2916 3584 3314 3078 
Q 3713 2572 3713 1747 
Q 3713 922 3314 415 
Q 2916 -91 2278 -91 
Q 1894 -91 1617 61 
Q 1341 213 1159 525 
z
M 3116 1747 
Q 3116 2381 2855 2742 
Q 2594 3103 2138 3103 
Q 1681 3103 1420 2742 
Q 1159 2381 1159 1747 
Q 1159 1113 1420 752 
Q 1681 391 2138 391 
Q 2594 391 2855 752 
Q 3116 1113 3116 1747 
z
" transform="scale(0.015625)"/>
       <path id="DejaVuSans-61" d="M 2194 1759 
Q 1497 1759 1228 1600 
Q 959 1441 959 1056 
Q 959 750 1161 570 
Q 1363 391 1709 391 
Q 2188 391 2477 730 
Q 2766 1069 2766 1631 
L 2766 1759 
L 2194 1759 
z
M 3341 1997 
L 3341 0 
L 2766 0 
L 2766 531 
Q 2569 213 2275 61 
Q 1981 -91 1556 -91 
Q 1019 -91 701 211 
Q 384 513 384 1019 
Q 384 1609 779 1909 
Q 1175 2209 1959 2209 
L 2766 2209 
L 2766 2266 
Q 2766 2663 2505 2880 
Q 2244 3097 1772 3097 
Q 1472 3097 1187 3025 
Q 903 2953 641 2809 
L 641 3341 
Q 956 3463 1253 3523 
Q 1550 3584 1831 3584 
Q 2591 3584 2966 3190 
Q 3341 2797 3341 1997 
z
" transform="scale(0.015625)"/>
       <path id="DejaVuSans-67" d="M 2906 1791 
Q 2906 2416 2648 2759 
Q 2391 3103 1925 3103 
Q 1463 3103 1205 2759 
Q 947 2416 947 1791 
Q 947 1169 1205 825 
Q 1463 481 1925 481 
Q 2391 481 2648 825 
Q 2906 1169 2906 1791 
z
M 3481 434 
Q 3481 -459 3084 -895 
Q 2688 -1331 1869 -1331 
Q 1566 -1331 1297 -1286 
Q 1028 -1241 775 -1147 
L 775 -588 
Q 1028 -725 1275 -790 
Q 1522 -856 1778 -856 
Q 2344 -856 2625 -561 
Q 2906 -266 2906 331 
L 2906 616 
Q 2728 306 2450 153 
Q 2172 0 1784 0 
Q 1141 0 747 490 
Q 353 981 353 1791 
Q 353 2603 747 3093 
Q 1141 3584 1784 3584 
Q 2172 3584 2450 3431 
Q 2728 3278 2906 2969 
L 2906 3500 
L 3481 3500 
L 3481 434 
z
" transform="scale(0.015625)"/>
       <path id="DejaVuSans-74" d="M 1172 4494 
L 1172 3500 
L 2356 3500 
L 2356 3053 
L 1172 3053 
L 1172 1153 
Q 1172 725 1289 603 
Q 1406 481 1766 481 
L 2356 481 
L 2356 0 
L 1766 0 
Q 1100 0 847 248 
Q 594 497 594 1153 
L 594 3053 
L 172 3053 
L 172 3500 
L 594 3500 
L 594 4494 
L 1172 4494 
z
" transform="scale(0.015625)"/>
       <path id="DejaVuSans-69" d="M 603 3500 
L 1178 3500 
L 1178 0 
L 603 0 
L 603 3500 
z
M 603 4863 
L 1178 4863 
L 1178 4134 
L 603 4134 
L 603 4863 
z
" transform="scale(0.015625)"/>
       <path id="DejaVuSans-6e" d="M 3513 2113 
L 3513 0 
L 2938 0 
L 2938 2094 
Q 2938 2591 2744 2837 
Q 2550 3084 2163 3084 
Q 1697 3084 1428 2787 
Q 1159 2491 1159 1978 
L 1159 0 
L 581 0 
L 581 3500 
L 1159 3500 
L 1159 2956 
Q 1366 3272 1645 3428 
Q 1925 3584 2291 3584 
Q 2894 3584 3203 3211 
Q 3513 2838 3513 2113 
z
" transform="scale(0.015625)"/>
       <path id="DejaVuSans-20" transform="scale(0.015625)"/>
       <path id="DejaVuSans-64" d="M 2906 2969 
L 2906 4863 
L 3481 4863 
L 3481 0 
L 2906 0 
L 2906 525 
Q 2725 213 2448 61 
Q 2172 -91 1784 -91 
Q 1150 -91 751 415 
Q 353 922 353 1747 
Q 353 2572 751 3078 
Q 1150 3584 1784 3584 
Q 2172 3584 2448 3432 
Q 2725 3281 2906 2969 
z
M 947 1747 
Q 947 1113 1208 752 
Q 1469 391 1925 391 
Q 2381 391 2643 752 
Q 2906 1113 2906 1747 
Q 2906 2381 2643 2742 
Q 2381 3103 1925 3103 
Q 1469 3103 1208 2742 
Q 947 2381 947 1747 
z
" transform="scale(0.015625)"/>
       <path id="DejaVuSans-65" d="M 3597 1894 
L 3597 1613 
L 953 1613 
Q 991 1019 1311 708 
Q 1631 397 2203 397 
Q 2534 397 2845 478 
Q 3156 559 3463 722 
L 3463 178 
Q 3153 47 2828 -22 
Q 2503 -91 2169 -91 
Q 1331 -91 842 396 
Q 353 884 353 1716 
Q 353 2575 817 3079 
Q 1281 3584 2069 3584 
Q 2775 3584 3186 3129 
Q 3597 2675 3597 1894 
z
M 3022 2063 
Q 3016 2534 2758 2815 
Q 2500 3097 2075 3097 
Q 1594 3097 1305 2825 
Q 1016 2553 972 2059 
L 3022 2063 
z
" transform="scale(0.015625)"/>
       <path id="DejaVuSans-63" d="M 3122 3366 
L 3122 2828 
Q 2878 2963 2633 3030 
Q 2388 3097 2138 3097 
Q 1578 3097 1268 2742 
Q 959 2388 959 1747 
Q 959 1106 1268 751 
Q 1578 397 2138 397 
Q 2388 397 2633 464 
Q 2878 531 3122 666 
L 3122 134 
Q 2881 22 2623 -34 
Q 2366 -91 2075 -91 
Q 1284 -91 818 406 
Q 353 903 353 1747 
Q 353 2603 823 3093 
Q 1294 3584 2113 3584 
Q 2378 3584 2631 3529 
Q 2884 3475 3122 3366 
z
" transform="scale(0.015625)"/>
      </defs>
      <use xlink:href="#DejaVuSans-50"/>
      <use xlink:href="#DejaVuSans-72" x="58.552734"/>
      <use xlink:href="#DejaVuSans-6f" x="97.416016"/>
      <use xlink:href="#DejaVuSans-70" x="158.597656"/>
      <use xlink:href="#DejaVuSans-61" x="222.074219"/>
      <use xlink:href="#DejaVuSans-67" x="283.353516"/>
      <use xlink:href="#DejaVuSans-61" x="346.830078"/>
      <use xlink:href="#DejaVuSans-74" x="408.109375"/>
      <use xlink:href="#DejaVuSans-69" x="447.318359"/>
      <use xlink:href="#DejaVuSans-6f" x="475.101562"/>
      <use xlink:href="#DejaVuSans-6e" x="536.283203"/>
      <use xlink:href="#DejaVuSans-20" x="599.662109"/>
      <use xlink:href="#DejaVuSans-64" x="631.449219"/>
      <use xlink:href="#DejaVuSans-69" x="694.925781"/>
      <use xlink:href="#DejaVuSans-72" x="722.708984"/>
      <use xlink:href="#DejaVuSans-65" x="761.572266"/>
      <use xlink:href="#DejaVuSans-63" x="823.095703"/>
      <use xlink:href="#DejaVuSans-74" x="878.076172"/>
      <use xlink:href="#DejaVuSans-69" x="917.285156"/>
      <use xlink:href="#DejaVuSans-6f" x="945.068359"/>
      <use xlink:href="#DejaVuSans-6e" x="1006.25"/>
     </g>
    </g>
   </g>
   <g id="matplotlib.axis_2">
    <g id="ytick_1">
     <g id="line2d_7">
      <defs>
       <path id="m7973ff3fb2" d="M 0 0 
L -3.5 0 
" style="stroke: #000000; stroke-width: 0.8"/>
      </defs>
      <g>
       <use xlink:href="#m7973ff3fb2" x="50.14375" y="273.312" style="stroke: #000000; stroke-width: 0.8"/>
      </g>
     </g>
     <g id="text_8">
      <!-- 0.00 -->
      <g transform="translate(20.878125 277.111219)scale(0.1 -0.1)">
       <use xlink:href="#DejaVuSans-30"/>
       <use xlink:href="#DejaVuSans-2e" x="63.623047"/>
       <use xlink:href="#DejaVuSans-30" x="95.410156"/>
       <use xlink:href="#DejaVuSans-30" x="159.033203"/>
      </g>
     </g>
    </g>
    <g id="ytick_2">
     <g id="line2d_8">
      <g>
       <use xlink:href="#m7973ff3fb2" x="50.14375" y="242.097061" style="stroke: #000000; stroke-width: 0.8"/>
      </g>
     </g>
     <g id="text_9">
      <!-- 0.25 -->
      <g transform="translate(20.878125 245.89628)scale(0.1 -0.1)">
       <defs>
        <path id="DejaVuSans-35" d="M 691 4666 
L 3169 4666 
L 3169 4134 
L 1269 4134 
L 1269 2991 
Q 1406 3038 1543 3061 
Q 1681 3084 1819 3084 
Q 2600 3084 3056 2656 
Q 3513 2228 3513 1497 
Q 3513 744 3044 326 
Q 2575 -91 1722 -91 
Q 1428 -91 1123 -41 
Q 819 9 494 109 
L 494 744 
Q 775 591 1075 516 
Q 1375 441 1709 441 
Q 2250 441 2565 725 
Q 2881 1009 2881 1497 
Q 2881 1984 2565 2268 
Q 2250 2553 1709 2553 
Q 1456 2553 1204 2497 
Q 953 2441 691 2322 
L 691 4666 
z
" transform="scale(0.015625)"/>
       </defs>
       <use xlink:href="#DejaVuSans-30"/>
       <use xlink:href="#DejaVuSans-2e" x="63.623047"/>
       <use xlink:href="#DejaVuSans-32" x="95.410156"/>
       <use xlink:href="#DejaVuSans-35" x="159.033203"/>
      </g>
     </g>
    </g>
    <g id="ytick_3">
     <g id="line2d_9">
      <g>
       <use xlink:href="#m7973ff3fb2" x="50.14375" y="210.882122" style="stroke: #000000; stroke-width: 0.8"/>
      </g>
     </g>
     <g id="text_10">
      <!-- 0.50 -->
      <g transform="translate(20.878125 214.68134)scale(0.1 -0.1)">
       <use xlink:href="#DejaVuSans-30"/>
       <use xlink:href="#DejaVuSans-2e" x="63.623047"/>
       <use xlink:href="#DejaVuSans-35" x="95.410156"/>
       <use xlink:href="#DejaVuSans-30" x="159.033203"/>
      </g>
     </g>
    </g>
    <g id="ytick_4">
     <g id="line2d_10">
      <g>
       <use xlink:href="#m7973ff3fb2" x="50.14375" y="179.667182" style="stroke: #000000; stroke-width: 0.8"/>
      </g>
     </g>
     <g id="text_11">
      <!-- 0.75 -->
      <g transform="translate(20.878125 183.466401)scale(0.1 -0.1)">
       <defs>
        <path id="DejaVuSans-37" d="M 525 4666 
L 3525 4666 
L 3525 4397 
L 1831 0 
L 1172 0 
L 2766 4134 
L 525 4134 
L 525 4666 
z
" transform="scale(0.015625)"/>
       </defs>
       <use xlink:href="#DejaVuSans-30"/>
       <use xlink:href="#DejaVuSans-2e" x="63.623047"/>
       <use xlink:href="#DejaVuSans-37" x="95.410156"/>
       <use xlink:href="#DejaVuSans-35" x="159.033203"/>
      </g>
     </g>
    </g>
    <g id="ytick_5">
     <g id="line2d_11">
      <g>
       <use xlink:href="#m7973ff3fb2" x="50.14375" y="148.452243" style="stroke: #000000; stroke-width: 0.8"/>
      </g>
     </g>
     <g id="text_12">
      <!-- 1.00 -->
      <g transform="translate(20.878125 152.251462)scale(0.1 -0.1)">
       <use xlink:href="#DejaVuSans-31"/>
       <use xlink:href="#DejaVuSans-2e" x="63.623047"/>
       <use xlink:href="#DejaVuSans-30" x="95.410156"/>
       <use xlink:href="#DejaVuSans-30" x="159.033203"/>
      </g>
     </g>
    </g>
    <g id="ytick_6">
     <g id="line2d_12">
      <g>
       <use xlink:href="#m7973ff3fb2" x="50.14375" y="117.237304" style="stroke: #000000; stroke-width: 0.8"/>
      </g>
     </g>
     <g id="text_13">
      <!-- 1.25 -->
      <g transform="translate(20.878125 121.036523)scale(0.1 -0.1)">
       <use xlink:href="#DejaVuSans-31"/>
       <use xlink:href="#DejaVuSans-2e" x="63.623047"/>
       <use xlink:href="#DejaVuSans-32" x="95.410156"/>
       <use xlink:href="#DejaVuSans-35" x="159.033203"/>
      </g>
     </g>
    </g>
    <g id="ytick_7">
     <g id="line2d_13">
      <g>
       <use xlink:href="#m7973ff3fb2" x="50.14375" y="86.022365" style="stroke: #000000; stroke-width: 0.8"/>
      </g>
     </g>
     <g id="text_14">
      <!-- 1.50 -->
      <g transform="translate(20.878125 89.821583)scale(0.1 -0.1)">
       <use xlink:href="#DejaVuSans-31"/>
       <use xlink:href="#DejaVuSans-2e" x="63.623047"/>
       <use xlink:href="#DejaVuSans-35" x="95.410156"/>
       <use xlink:href="#DejaVuSans-30" x="159.033203"/>
      </g>
     </g>
    </g>
    <g id="ytick_8">
     <g id="line2d_14">
      <g>
       <use xlink:href="#m7973ff3fb2" x="50.14375" y="54.807425" style="stroke: #000000; stroke-width: 0.8"/>
      </g>
     </g>
     <g id="text_15">
      <!-- 1.75 -->
      <g transform="translate(20.878125 58.606644)scale(0.1 -0.1)">
       <use xlink:href="#DejaVuSans-31"/>
       <use xlink:href="#DejaVuSans-2e" x="63.623047"/>
       <use xlink:href="#DejaVuSans-37" x="95.410156"/>
       <use xlink:href="#DejaVuSans-35" x="159.033203"/>
      </g>
     </g>
    </g>
    <g id="ytick_9">
     <g id="line2d_15">
      <g>
       <use xlink:href="#m7973ff3fb2" x="50.14375" y="23.592486" style="stroke: #000000; stroke-width: 0.8"/>
      </g>
     </g>
     <g id="text_16">
      <!-- 2.00 -->
      <g transform="translate(20.878125 27.391705)scale(0.1 -0.1)">
       <use xlink:href="#DejaVuSans-32"/>
       <use xlink:href="#DejaVuSans-2e" x="63.623047"/>
       <use xlink:href="#DejaVuSans-30" x="95.410156"/>
       <use xlink:href="#DejaVuSans-30" x="159.033203"/>
      </g>
     </g>
    </g>
    <g id="text_17">
     <!-- Probability density -->
     <g transform="translate(14.798438 186.606781)rotate(-90)scale(0.1 -0.1)">
      <defs>
       <path id="DejaVuSans-62" d="M 3116 1747 
Q 3116 2381 2855 2742 
Q 2594 3103 2138 3103 
Q 1681 3103 1420 2742 
Q 1159 2381 1159 1747 
Q 1159 1113 1420 752 
Q 1681 391 2138 391 
Q 2594 391 2855 752 
Q 3116 1113 3116 1747 
z
M 1159 2969 
Q 1341 3281 1617 3432 
Q 1894 3584 2278 3584 
Q 2916 3584 3314 3078 
Q 3713 2572 3713 1747 
Q 3713 922 3314 415 
Q 2916 -91 2278 -91 
Q 1894 -91 1617 61 
Q 1341 213 1159 525 
L 1159 0 
L 581 0 
L 581 4863 
L 1159 4863 
L 1159 2969 
z
" transform="scale(0.015625)"/>
       <path id="DejaVuSans-6c" d="M 603 4863 
L 1178 4863 
L 1178 0 
L 603 0 
L 603 4863 
z
" transform="scale(0.015625)"/>
       <path id="DejaVuSans-79" d="M 2059 -325 
Q 1816 -950 1584 -1140 
Q 1353 -1331 966 -1331 
L 506 -1331 
L 506 -850 
L 844 -850 
Q 1081 -850 1212 -737 
Q 1344 -625 1503 -206 
L 1606 56 
L 191 3500 
L 800 3500 
L 1894 763 
L 2988 3500 
L 3597 3500 
L 2059 -325 
z
" transform="scale(0.015625)"/>
       <path id="DejaVuSans-73" d="M 2834 3397 
L 2834 2853 
Q 2591 2978 2328 3040 
Q 2066 3103 1784 3103 
Q 1356 3103 1142 2972 
Q 928 2841 928 2578 
Q 928 2378 1081 2264 
Q 1234 2150 1697 2047 
L 1894 2003 
Q 2506 1872 2764 1633 
Q 3022 1394 3022 966 
Q 3022 478 2636 193 
Q 2250 -91 1575 -91 
Q 1294 -91 989 -36 
Q 684 19 347 128 
L 347 722 
Q 666 556 975 473 
Q 1284 391 1588 391 
Q 1994 391 2212 530 
Q 2431 669 2431 922 
Q 2431 1156 2273 1281 
Q 2116 1406 1581 1522 
L 1381 1569 
Q 847 1681 609 1914 
Q 372 2147 372 2553 
Q 372 3047 722 3315 
Q 1072 3584 1716 3584 
Q 2034 3584 2315 3537 
Q 2597 3491 2834 3397 
z
" transform="scale(0.015625)"/>
      </defs>
      <use xlink:href="#DejaVuSans-50"/>
      <use xlink:href="#DejaVuSans-72" x="58.552734"/>
      <use xlink:href="#DejaVuSans-6f" x="97.416016"/>
      <use xlink:href="#DejaVuSans-62" x="158.597656"/>
      <use xlink:href="#DejaVuSans-61" x="222.074219"/>
      <use xlink:href="#DejaVuSans-62" x="283.353516"/>
      <use xlink:href="#DejaVuSans-69" x="346.830078"/>
      <use xlink:href="#DejaVuSans-6c" x="374.613281"/>
      <use xlink:href="#DejaVuSans-69" x="402.396484"/>
      <use xlink:href="#DejaVuSans-74" x="430.179688"/>
      <use xlink:href="#DejaVuSans-79" x="469.388672"/>
      <use xlink:href="#DejaVuSans-20" x="528.568359"/>
      <use xlink:href="#DejaVuSans-64" x="560.355469"/>
      <use xlink:href="#DejaVuSans-65" x="623.832031"/>
      <use xlink:href="#DejaVuSans-6e" x="685.355469"/>
      <use xlink:href="#DejaVuSans-73" x="748.734375"/>
      <use xlink:href="#DejaVuSans-69" x="800.833984"/>
      <use xlink:href="#DejaVuSans-74" x="828.617188"/>
      <use xlink:href="#DejaVuSans-79" x="867.826172"/>
     </g>
    </g>
   </g>
   <g id="line2d_16">
    <path d="M 66.376477 273.312 
L 391.031023 23.592486 
L 391.031023 23.592486 
" clip-path="url(#p3959ffed49)" style="fill: none; stroke: #ff7f0e; stroke-width: 1.5; stroke-linecap: square"/>
   </g>
   <g id="patch_203">
    <path d="M 50.14375 273.312 
L 50.14375 7.2 
" style="fill: none; stroke: #000000; stroke-width: 0.8; stroke-linejoin: miter; stroke-linecap: square"/>
   </g>
   <g id="patch_204">
    <path d="M 407.26375 273.312 
L 407.26375 7.2 
" style="fill: none; stroke: #000000; stroke-width: 0.8; stroke-linejoin: miter; stroke-linecap: square"/>
   </g>
   <g id="patch_205">
    <path d="M 50.14375 273.312 
L 407.26375 273.312 
" style="fill: none; stroke: #000000; stroke-width: 0.8; stroke-linejoin: miter; stroke-linecap: square"/>
   </g>
   <g id="patch_206">
    <path d="M 50.14375 7.2 
L 407.26375 7.2 
" style="fill: none; stroke: #000000; stroke-width: 0.8; stroke-linejoin: miter; stroke-linecap: square"/>
   </g>
  </g>
 </g>
 <defs>
  <clipPath id="p3959ffed49">
   <rect x="50.14375" y="7.2" width="357.12" height="266.112"/>
  </clipPath>
 </defs>
</svg>
