<?xml version="1.0" encoding="utf-8" standalone="no"?>
<!DOCTYPE svg PUBLIC "-//W3C//DTD SVG 1.1//EN"
  "http://www.w3.org/Graphics/SVG/1.1/DTD/svg11.dtd">
<svg xmlns:xlink="http://www.w3.org/1999/xlink" width="408.10125pt" height="310.86825pt" viewBox="0 0 408.10125 310.86825" xmlns="http://www.w3.org/2000/svg" version="1.1">
 <metadata>
  <rdf:RDF xmlns:dc="http://purl.org/dc/elements/1.1/" xmlns:cc="http://creativecommons.org/ns#" xmlns:rdf="http://www.w3.org/1999/02/22-rdf-syntax-ns#">
   <cc:Work>
    <dc:type rdf:resource="http://purl.org/dc/dcmitype/StillImage"/>
    <dc:date>2022-03-02T10:07:58.622431</dc:date>
    <dc:format>image/svg+xml</dc:format>
    <dc:creator>
     <cc:Agent>
      <dc:title>Matplotlib v3.5.1, https://matplotlib.org/</dc:title>
     </cc:Agent>
    </dc:creator>
   </cc:Work>
  </rdf:RDF>
 </metadata>
 <defs>
  <style type="text/css">*{stroke-linejoin: round; stroke-linecap: butt}</style>
 </defs>
 <g id="figure_1">
  <g id="patch_1">
   <path d="M 0 310.86825 
L 408.10125 310.86825 
L 408.10125 0 
L 0 0 
z
" style="fill: #ffffff"/>
  </g>
  <g id="axes_1">
   <g id="patch_2">
    <path d="M 43.78125 273.312 
L 400.90125 273.312 
L 400.90125 7.2 
L 43.78125 7.2 
z
" style="fill: #ffffff"/>
   </g>
   <g id="patch_3">
    <path d="M 60.544589 273.312 
L 62.159284 273.312 
L 62.159284 269.016407 
L 60.544589 269.016407 
z
" clip-path="url(#pd71c646142)" style="fill: #1f77b4"/>
   </g>
   <g id="patch_4">
    <path d="M 62.159284 273.312 
L 63.773978 273.312 
L 63.773978 267.584542 
L 62.159284 267.584542 
z
" clip-path="url(#pd71c646142)" style="fill: #1f77b4"/>
   </g>
   <g id="patch_5">
    <path d="M 63.773978 273.312 
L 65.388673 273.312 
L 65.388673 264.004881 
L 63.773978 264.004881 
z
" clip-path="url(#pd71c646142)" style="fill: #1f77b4"/>
   </g>
   <g id="patch_6">
    <path d="M 65.388673 273.312 
L 67.003368 273.312 
L 67.003368 256.845559 
L 65.388673 256.845559 
z
" clip-path="url(#pd71c646142)" style="fill: #1f77b4"/>
   </g>
   <g id="patch_7">
    <path d="M 67.003368 273.312 
L 68.618062 273.312 
L 68.618062 253.265898 
L 67.003368 253.265898 
z
" clip-path="url(#pd71c646142)" style="fill: #1f77b4"/>
   </g>
   <g id="patch_8">
    <path d="M 68.618062 273.312 
L 70.232757 273.312 
L 70.232757 255.413695 
L 68.618062 255.413695 
z
" clip-path="url(#pd71c646142)" style="fill: #1f77b4"/>
   </g>
   <g id="patch_9">
    <path d="M 70.232757 273.312 
L 71.847452 273.312 
L 71.847452 244.674712 
L 70.232757 244.674712 
z
" clip-path="url(#pd71c646142)" style="fill: #1f77b4"/>
   </g>
   <g id="patch_10">
    <path d="M 71.847452 273.312 
L 73.462146 273.312 
L 73.462146 238.947254 
L 71.847452 238.947254 
z
" clip-path="url(#pd71c646142)" style="fill: #1f77b4"/>
   </g>
   <g id="patch_11">
    <path d="M 73.462146 273.312 
L 75.076841 273.312 
L 75.076841 243.242847 
L 73.462146 243.242847 
z
" clip-path="url(#pd71c646142)" style="fill: #1f77b4"/>
   </g>
   <g id="patch_12">
    <path d="M 75.076841 273.312 
L 76.691535 273.312 
L 76.691535 244.674712 
L 75.076841 244.674712 
z
" clip-path="url(#pd71c646142)" style="fill: #1f77b4"/>
   </g>
   <g id="patch_13">
    <path d="M 76.691535 273.312 
L 78.30623 273.312 
L 78.30623 233.219797 
L 76.691535 233.219797 
z
" clip-path="url(#pd71c646142)" style="fill: #1f77b4"/>
   </g>
   <g id="patch_14">
    <path d="M 78.30623 273.312 
L 79.920925 273.312 
L 79.920925 240.379119 
L 78.30623 240.379119 
z
" clip-path="url(#pd71c646142)" style="fill: #1f77b4"/>
   </g>
   <g id="patch_15">
    <path d="M 79.920925 273.312 
L 81.535619 273.312 
L 81.535619 229.640136 
L 79.920925 229.640136 
z
" clip-path="url(#pd71c646142)" style="fill: #1f77b4"/>
   </g>
   <g id="patch_16">
    <path d="M 81.535619 273.312 
L 83.150314 273.312 
L 83.150314 228.924203 
L 81.535619 228.924203 
z
" clip-path="url(#pd71c646142)" style="fill: #1f77b4"/>
   </g>
   <g id="patch_17">
    <path d="M 83.150314 273.312 
L 84.765009 273.312 
L 84.765009 218.18522 
L 83.150314 218.18522 
z
" clip-path="url(#pd71c646142)" style="fill: #1f77b4"/>
   </g>
   <g id="patch_18">
    <path d="M 84.765009 273.312 
L 86.379703 273.312 
L 86.379703 216.037424 
L 84.765009 216.037424 
z
" clip-path="url(#pd71c646142)" style="fill: #1f77b4"/>
   </g>
   <g id="patch_19">
    <path d="M 86.379703 273.312 
L 87.994398 273.312 
L 87.994398 210.309966 
L 86.379703 210.309966 
z
" clip-path="url(#pd71c646142)" style="fill: #1f77b4"/>
   </g>
   <g id="patch_20">
    <path d="M 87.994398 273.312 
L 89.609092 273.312 
L 89.609092 201.71878 
L 87.994398 201.71878 
z
" clip-path="url(#pd71c646142)" style="fill: #1f77b4"/>
   </g>
   <g id="patch_21">
    <path d="M 89.609092 273.312 
L 91.223787 273.312 
L 91.223787 216.037424 
L 89.609092 216.037424 
z
" clip-path="url(#pd71c646142)" style="fill: #1f77b4"/>
   </g>
   <g id="patch_22">
    <path d="M 91.223787 273.312 
L 92.838482 273.312 
L 92.838482 206.014373 
L 91.223787 206.014373 
z
" clip-path="url(#pd71c646142)" style="fill: #1f77b4"/>
   </g>
   <g id="patch_23">
    <path d="M 92.838482 273.312 
L 94.453176 273.312 
L 94.453176 184.536407 
L 92.838482 184.536407 
z
" clip-path="url(#pd71c646142)" style="fill: #1f77b4"/>
   </g>
   <g id="patch_24">
    <path d="M 94.453176 273.312 
L 96.067871 273.312 
L 96.067871 189.547932 
L 94.453176 189.547932 
z
" clip-path="url(#pd71c646142)" style="fill: #1f77b4"/>
   </g>
   <g id="patch_25">
    <path d="M 96.067871 273.312 
L 97.682566 273.312 
L 97.682566 190.979797 
L 96.067871 190.979797 
z
" clip-path="url(#pd71c646142)" style="fill: #1f77b4"/>
   </g>
   <g id="patch_26">
    <path d="M 97.682566 273.312 
L 99.29726 273.312 
L 99.29726 204.582508 
L 97.682566 204.582508 
z
" clip-path="url(#pd71c646142)" style="fill: #1f77b4"/>
   </g>
   <g id="patch_27">
    <path d="M 99.29726 273.312 
L 100.911955 273.312 
L 100.911955 186.684203 
L 99.29726 186.684203 
z
" clip-path="url(#pd71c646142)" style="fill: #1f77b4"/>
   </g>
   <g id="patch_28">
    <path d="M 100.911955 273.312 
L 102.526649 273.312 
L 102.526649 182.38861 
L 100.911955 182.38861 
z
" clip-path="url(#pd71c646142)" style="fill: #1f77b4"/>
   </g>
   <g id="patch_29">
    <path d="M 102.526649 273.312 
L 104.141344 273.312 
L 104.141344 179.524881 
L 102.526649 179.524881 
z
" clip-path="url(#pd71c646142)" style="fill: #1f77b4"/>
   </g>
   <g id="patch_30">
    <path d="M 104.141344 273.312 
L 105.756039 273.312 
L 105.756039 188.832 
L 104.141344 188.832 
z
" clip-path="url(#pd71c646142)" style="fill: #1f77b4"/>
   </g>
   <g id="patch_31">
    <path d="M 105.756039 273.312 
L 107.370733 273.312 
L 107.370733 175.229288 
L 105.756039 175.229288 
z
" clip-path="url(#pd71c646142)" style="fill: #1f77b4"/>
   </g>
   <g id="patch_32">
    <path d="M 107.370733 273.312 
L 108.985428 273.312 
L 108.985428 183.820475 
L 107.370733 183.820475 
z
" clip-path="url(#pd71c646142)" style="fill: #1f77b4"/>
   </g>
   <g id="patch_33">
    <path d="M 108.985428 273.312 
L 110.600123 273.312 
L 110.600123 163.774373 
L 108.985428 163.774373 
z
" clip-path="url(#pd71c646142)" style="fill: #1f77b4"/>
   </g>
   <g id="patch_34">
    <path d="M 110.600123 273.312 
L 112.214817 273.312 
L 112.214817 160.910644 
L 110.600123 160.910644 
z
" clip-path="url(#pd71c646142)" style="fill: #1f77b4"/>
   </g>
   <g id="patch_35">
    <path d="M 112.214817 273.312 
L 113.829512 273.312 
L 113.829512 156.615051 
L 112.214817 156.615051 
z
" clip-path="url(#pd71c646142)" style="fill: #1f77b4"/>
   </g>
   <g id="patch_36">
    <path d="M 113.829512 273.312 
L 115.444207 273.312 
L 115.444207 163.774373 
L 113.829512 163.774373 
z
" clip-path="url(#pd71c646142)" style="fill: #1f77b4"/>
   </g>
   <g id="patch_37">
    <path d="M 115.444207 273.312 
L 117.058901 273.312 
L 117.058901 158.762847 
L 115.444207 158.762847 
z
" clip-path="url(#pd71c646142)" style="fill: #1f77b4"/>
   </g>
   <g id="patch_38">
    <path d="M 117.058901 273.312 
L 118.673596 273.312 
L 118.673596 139.432678 
L 117.058901 139.432678 
z
" clip-path="url(#pd71c646142)" style="fill: #1f77b4"/>
   </g>
   <g id="patch_39">
    <path d="M 118.673596 273.312 
L 120.28829 273.312 
L 120.28829 135.137085 
L 118.673596 135.137085 
z
" clip-path="url(#pd71c646142)" style="fill: #1f77b4"/>
   </g>
   <g id="patch_40">
    <path d="M 120.28829 273.312 
L 121.902985 273.312 
L 121.902985 172.365559 
L 120.28829 172.365559 
z
" clip-path="url(#pd71c646142)" style="fill: #1f77b4"/>
   </g>
   <g id="patch_41">
    <path d="M 121.902985 273.312 
L 123.51768 273.312 
L 123.51768 137.284881 
L 121.902985 137.284881 
z
" clip-path="url(#pd71c646142)" style="fill: #1f77b4"/>
   </g>
   <g id="patch_42">
    <path d="M 123.51768 273.312 
L 125.132374 273.312 
L 125.132374 165.922169 
L 123.51768 165.922169 
z
" clip-path="url(#pd71c646142)" style="fill: #1f77b4"/>
   </g>
   <g id="patch_43">
    <path d="M 125.132374 273.312 
L 126.747069 273.312 
L 126.747069 145.876068 
L 125.132374 145.876068 
z
" clip-path="url(#pd71c646142)" style="fill: #1f77b4"/>
   </g>
   <g id="patch_44">
    <path d="M 126.747069 273.312 
L 128.361764 273.312 
L 128.361764 129.409627 
L 126.747069 129.409627 
z
" clip-path="url(#pd71c646142)" style="fill: #1f77b4"/>
   </g>
   <g id="patch_45">
    <path d="M 128.361764 273.312 
L 129.976458 273.312 
L 129.976458 127.977763 
L 128.361764 127.977763 
z
" clip-path="url(#pd71c646142)" style="fill: #1f77b4"/>
   </g>
   <g id="patch_46">
    <path d="M 129.976458 273.312 
L 131.591153 273.312 
L 131.591153 126.545898 
L 129.976458 126.545898 
z
" clip-path="url(#pd71c646142)" style="fill: #1f77b4"/>
   </g>
   <g id="patch_47">
    <path d="M 131.591153 273.312 
L 133.205847 273.312 
L 133.205847 132.989288 
L 131.591153 132.989288 
z
" clip-path="url(#pd71c646142)" style="fill: #1f77b4"/>
   </g>
   <g id="patch_48">
    <path d="M 133.205847 273.312 
L 134.820542 273.312 
L 134.820542 148.023864 
L 133.205847 148.023864 
z
" clip-path="url(#pd71c646142)" style="fill: #1f77b4"/>
   </g>
   <g id="patch_49">
    <path d="M 134.820542 273.312 
L 136.435237 273.312 
L 136.435237 141.580475 
L 134.820542 141.580475 
z
" clip-path="url(#pd71c646142)" style="fill: #1f77b4"/>
   </g>
   <g id="patch_50">
    <path d="M 136.435237 273.312 
L 138.049931 273.312 
L 138.049931 107.931661 
L 136.435237 107.931661 
z
" clip-path="url(#pd71c646142)" style="fill: #1f77b4"/>
   </g>
   <g id="patch_51">
    <path d="M 138.049931 273.312 
L 139.664626 273.312 
L 139.664626 125.114034 
L 138.049931 125.114034 
z
" clip-path="url(#pd71c646142)" style="fill: #1f77b4"/>
   </g>
   <g id="patch_52">
    <path d="M 139.664626 273.312 
L 141.279321 273.312 
L 141.279321 110.079458 
L 139.664626 110.079458 
z
" clip-path="url(#pd71c646142)" style="fill: #1f77b4"/>
   </g>
   <g id="patch_53">
    <path d="M 141.279321 273.312 
L 142.894015 273.312 
L 142.894015 112.943186 
L 141.279321 112.943186 
z
" clip-path="url(#pd71c646142)" style="fill: #1f77b4"/>
   </g>
   <g id="patch_54">
    <path d="M 142.894015 273.312 
L 144.50871 273.312 
L 144.50871 107.215729 
L 142.894015 107.215729 
z
" clip-path="url(#pd71c646142)" style="fill: #1f77b4"/>
   </g>
   <g id="patch_55">
    <path d="M 144.50871 273.312 
L 146.123404 273.312 
L 146.123404 102.204203 
L 144.50871 102.204203 
z
" clip-path="url(#pd71c646142)" style="fill: #1f77b4"/>
   </g>
   <g id="patch_56">
    <path d="M 146.123404 273.312 
L 147.738099 273.312 
L 147.738099 104.352 
L 146.123404 104.352 
z
" clip-path="url(#pd71c646142)" style="fill: #1f77b4"/>
   </g>
   <g id="patch_57">
    <path d="M 147.738099 273.312 
L 149.352794 273.312 
L 149.352794 85.021831 
L 147.738099 85.021831 
z
" clip-path="url(#pd71c646142)" style="fill: #1f77b4"/>
   </g>
   <g id="patch_58">
    <path d="M 149.352794 273.312 
L 150.967488 273.312 
L 150.967488 97.192678 
L 149.352794 97.192678 
z
" clip-path="url(#pd71c646142)" style="fill: #1f77b4"/>
   </g>
   <g id="patch_59">
    <path d="M 150.967488 273.312 
L 152.582183 273.312 
L 152.582183 90.749288 
L 150.967488 90.749288 
z
" clip-path="url(#pd71c646142)" style="fill: #1f77b4"/>
   </g>
   <g id="patch_60">
    <path d="M 152.582183 273.312 
L 154.196878 273.312 
L 154.196878 100.056407 
L 152.582183 100.056407 
z
" clip-path="url(#pd71c646142)" style="fill: #1f77b4"/>
   </g>
   <g id="patch_61">
    <path d="M 154.196878 273.312 
L 155.811572 273.312 
L 155.811572 91.46522 
L 154.196878 91.46522 
z
" clip-path="url(#pd71c646142)" style="fill: #1f77b4"/>
   </g>
   <g id="patch_62">
    <path d="M 155.811572 273.312 
L 157.426267 273.312 
L 157.426267 102.920136 
L 155.811572 102.920136 
z
" clip-path="url(#pd71c646142)" style="fill: #1f77b4"/>
   </g>
   <g id="patch_63">
    <path d="M 157.426267 273.312 
L 159.040962 273.312 
L 159.040962 112.943186 
L 157.426267 112.943186 
z
" clip-path="url(#pd71c646142)" style="fill: #1f77b4"/>
   </g>
   <g id="patch_64">
    <path d="M 159.040962 273.312 
L 160.655656 273.312 
L 160.655656 96.476746 
L 159.040962 96.476746 
z
" clip-path="url(#pd71c646142)" style="fill: #1f77b4"/>
   </g>
   <g id="patch_65">
    <path d="M 160.655656 273.312 
L 162.270351 273.312 
L 162.270351 85.737763 
L 160.655656 85.737763 
z
" clip-path="url(#pd71c646142)" style="fill: #1f77b4"/>
   </g>
   <g id="patch_66">
    <path d="M 162.270351 273.312 
L 163.885045 273.312 
L 163.885045 74.99878 
L 162.270351 74.99878 
z
" clip-path="url(#pd71c646142)" style="fill: #1f77b4"/>
   </g>
   <g id="patch_67">
    <path d="M 163.885045 273.312 
L 165.49974 273.312 
L 165.49974 74.99878 
L 163.885045 74.99878 
z
" clip-path="url(#pd71c646142)" style="fill: #1f77b4"/>
   </g>
   <g id="patch_68">
    <path d="M 165.49974 273.312 
L 167.114435 273.312 
L 167.114435 79.294373 
L 165.49974 79.294373 
z
" clip-path="url(#pd71c646142)" style="fill: #1f77b4"/>
   </g>
   <g id="patch_69">
    <path d="M 167.114435 273.312 
L 168.729129 273.312 
L 168.729129 69.987254 
L 167.114435 69.987254 
z
" clip-path="url(#pd71c646142)" style="fill: #1f77b4"/>
   </g>
   <g id="patch_70">
    <path d="M 168.729129 273.312 
L 170.343824 273.312 
L 170.343824 49.941153 
L 168.729129 49.941153 
z
" clip-path="url(#pd71c646142)" style="fill: #1f77b4"/>
   </g>
   <g id="patch_71">
    <path d="M 170.343824 273.312 
L 171.958519 273.312 
L 171.958519 61.396068 
L 170.343824 61.396068 
z
" clip-path="url(#pd71c646142)" style="fill: #1f77b4"/>
   </g>
   <g id="patch_72">
    <path d="M 171.958519 273.312 
L 173.573213 273.312 
L 173.573213 74.99878 
L 171.958519 74.99878 
z
" clip-path="url(#pd71c646142)" style="fill: #1f77b4"/>
   </g>
   <g id="patch_73">
    <path d="M 173.573213 273.312 
L 175.187908 273.312 
L 175.187908 75.714712 
L 173.573213 75.714712 
z
" clip-path="url(#pd71c646142)" style="fill: #1f77b4"/>
   </g>
   <g id="patch_74">
    <path d="M 175.187908 273.312 
L 176.802602 273.312 
L 176.802602 109.363525 
L 175.187908 109.363525 
z
" clip-path="url(#pd71c646142)" style="fill: #1f77b4"/>
   </g>
   <g id="patch_75">
    <path d="M 176.802602 273.312 
L 178.417297 273.312 
L 178.417297 57.100475 
L 176.802602 57.100475 
z
" clip-path="url(#pd71c646142)" style="fill: #1f77b4"/>
   </g>
   <g id="patch_76">
    <path d="M 178.417297 273.312 
L 180.031992 273.312 
L 180.031992 94.328949 
L 178.417297 94.328949 
z
" clip-path="url(#pd71c646142)" style="fill: #1f77b4"/>
   </g>
   <g id="patch_77">
    <path d="M 180.031992 273.312 
L 181.646686 273.312 
L 181.646686 72.850983 
L 180.031992 72.850983 
z
" clip-path="url(#pd71c646142)" style="fill: #1f77b4"/>
   </g>
   <g id="patch_78">
    <path d="M 181.646686 273.312 
L 183.261381 273.312 
L 183.261381 78.578441 
L 181.646686 78.578441 
z
" clip-path="url(#pd71c646142)" style="fill: #1f77b4"/>
   </g>
   <g id="patch_79">
    <path d="M 183.261381 273.312 
L 184.876076 273.312 
L 184.876076 54.952678 
L 183.261381 54.952678 
z
" clip-path="url(#pd71c646142)" style="fill: #1f77b4"/>
   </g>
   <g id="patch_80">
    <path d="M 184.876076 273.312 
L 186.49077 273.312 
L 186.49077 87.169627 
L 184.876076 87.169627 
z
" clip-path="url(#pd71c646142)" style="fill: #1f77b4"/>
   </g>
   <g id="patch_81">
    <path d="M 186.49077 273.312 
L 188.105465 273.312 
L 188.105465 62.112 
L 186.49077 62.112 
z
" clip-path="url(#pd71c646142)" style="fill: #1f77b4"/>
   </g>
   <g id="patch_82">
    <path d="M 188.105465 273.312 
L 189.720159 273.312 
L 189.720159 69.987254 
L 188.105465 69.987254 
z
" clip-path="url(#pd71c646142)" style="fill: #1f77b4"/>
   </g>
   <g id="patch_83">
    <path d="M 189.720159 273.312 
L 191.334854 273.312 
L 191.334854 79.294373 
L 189.720159 79.294373 
z
" clip-path="url(#pd71c646142)" style="fill: #1f77b4"/>
   </g>
   <g id="patch_84">
    <path d="M 191.334854 273.312 
L 192.949549 273.312 
L 192.949549 37.770305 
L 191.334854 37.770305 
z
" clip-path="url(#pd71c646142)" style="fill: #1f77b4"/>
   </g>
   <g id="patch_85">
    <path d="M 192.949549 273.312 
L 194.564243 273.312 
L 194.564243 72.135051 
L 192.949549 72.135051 
z
" clip-path="url(#pd71c646142)" style="fill: #1f77b4"/>
   </g>
   <g id="patch_86">
    <path d="M 194.564243 273.312 
L 196.178938 273.312 
L 196.178938 44.929627 
L 194.564243 44.929627 
z
" clip-path="url(#pd71c646142)" style="fill: #1f77b4"/>
   </g>
   <g id="patch_87">
    <path d="M 196.178938 273.312 
L 197.793633 273.312 
L 197.793633 44.929627 
L 196.178938 44.929627 
z
" clip-path="url(#pd71c646142)" style="fill: #1f77b4"/>
   </g>
   <g id="patch_88">
    <path d="M 197.793633 273.312 
L 199.408327 273.312 
L 199.408327 52.804881 
L 197.793633 52.804881 
z
" clip-path="url(#pd71c646142)" style="fill: #1f77b4"/>
   </g>
   <g id="patch_89">
    <path d="M 199.408327 273.312 
L 201.023022 273.312 
L 201.023022 59.248271 
L 199.408327 59.248271 
z
" clip-path="url(#pd71c646142)" style="fill: #1f77b4"/>
   </g>
   <g id="patch_90">
    <path d="M 201.023022 273.312 
L 202.637716 273.312 
L 202.637716 35.622508 
L 201.023022 35.622508 
z
" clip-path="url(#pd71c646142)" style="fill: #1f77b4"/>
   </g>
   <g id="patch_91">
    <path d="M 202.637716 273.312 
L 204.252411 273.312 
L 204.252411 64.259797 
L 202.637716 64.259797 
z
" clip-path="url(#pd71c646142)" style="fill: #1f77b4"/>
   </g>
   <g id="patch_92">
    <path d="M 204.252411 273.312 
L 205.867106 273.312 
L 205.867106 46.361492 
L 204.252411 46.361492 
z
" clip-path="url(#pd71c646142)" style="fill: #1f77b4"/>
   </g>
   <g id="patch_93">
    <path d="M 205.867106 273.312 
L 207.4818 273.312 
L 207.4818 45.645559 
L 205.867106 45.645559 
z
" clip-path="url(#pd71c646142)" style="fill: #1f77b4"/>
   </g>
   <g id="patch_94">
    <path d="M 207.4818 273.312 
L 209.096495 273.312 
L 209.096495 53.520814 
L 207.4818 53.520814 
z
" clip-path="url(#pd71c646142)" style="fill: #1f77b4"/>
   </g>
   <g id="patch_95">
    <path d="M 209.096495 273.312 
L 210.71119 273.312 
L 210.71119 50.657085 
L 209.096495 50.657085 
z
" clip-path="url(#pd71c646142)" style="fill: #1f77b4"/>
   </g>
   <g id="patch_96">
    <path d="M 210.71119 273.312 
L 212.325884 273.312 
L 212.325884 52.088949 
L 210.71119 52.088949 
z
" clip-path="url(#pd71c646142)" style="fill: #1f77b4"/>
   </g>
   <g id="patch_97">
    <path d="M 212.325884 273.312 
L 213.940579 273.312 
L 213.940579 37.054373 
L 212.325884 37.054373 
z
" clip-path="url(#pd71c646142)" style="fill: #1f77b4"/>
   </g>
   <g id="patch_98">
    <path d="M 213.940579 273.312 
L 215.555274 273.312 
L 215.555274 21.303864 
L 213.940579 21.303864 
z
" clip-path="url(#pd71c646142)" style="fill: #1f77b4"/>
   </g>
   <g id="patch_99">
    <path d="M 215.555274 273.312 
L 217.169968 273.312 
L 217.169968 62.827932 
L 215.555274 62.827932 
z
" clip-path="url(#pd71c646142)" style="fill: #1f77b4"/>
   </g>
   <g id="patch_100">
    <path d="M 217.169968 273.312 
L 218.784663 273.312 
L 218.784663 47.077424 
L 217.169968 47.077424 
z
" clip-path="url(#pd71c646142)" style="fill: #1f77b4"/>
   </g>
   <g id="patch_101">
    <path d="M 218.784663 273.312 
L 220.399357 273.312 
L 220.399357 66.407593 
L 218.784663 66.407593 
z
" clip-path="url(#pd71c646142)" style="fill: #1f77b4"/>
   </g>
   <g id="patch_102">
    <path d="M 220.399357 273.312 
L 222.014052 273.312 
L 222.014052 59.964203 
L 220.399357 59.964203 
z
" clip-path="url(#pd71c646142)" style="fill: #1f77b4"/>
   </g>
   <g id="patch_103">
    <path d="M 222.014052 273.312 
L 223.628747 273.312 
L 223.628747 46.361492 
L 222.014052 46.361492 
z
" clip-path="url(#pd71c646142)" style="fill: #1f77b4"/>
   </g>
   <g id="patch_104">
    <path d="M 223.628747 273.312 
L 225.243441 273.312 
L 225.243441 37.054373 
L 223.628747 37.054373 
z
" clip-path="url(#pd71c646142)" style="fill: #1f77b4"/>
   </g>
   <g id="patch_105">
    <path d="M 225.243441 273.312 
L 226.858136 273.312 
L 226.858136 63.543864 
L 225.243441 63.543864 
z
" clip-path="url(#pd71c646142)" style="fill: #1f77b4"/>
   </g>
   <g id="patch_106">
    <path d="M 226.858136 273.312 
L 228.472831 273.312 
L 228.472831 41.349966 
L 226.858136 41.349966 
z
" clip-path="url(#pd71c646142)" style="fill: #1f77b4"/>
   </g>
   <g id="patch_107">
    <path d="M 228.472831 273.312 
L 230.087525 273.312 
L 230.087525 69.987254 
L 228.472831 69.987254 
z
" clip-path="url(#pd71c646142)" style="fill: #1f77b4"/>
   </g>
   <g id="patch_108">
    <path d="M 230.087525 273.312 
L 231.70222 273.312 
L 231.70222 60.680136 
L 230.087525 60.680136 
z
" clip-path="url(#pd71c646142)" style="fill: #1f77b4"/>
   </g>
   <g id="patch_109">
    <path d="M 231.70222 273.312 
L 233.316914 273.312 
L 233.316914 64.259797 
L 231.70222 64.259797 
z
" clip-path="url(#pd71c646142)" style="fill: #1f77b4"/>
   </g>
   <g id="patch_110">
    <path d="M 233.316914 273.312 
L 234.931609 273.312 
L 234.931609 19.872 
L 233.316914 19.872 
z
" clip-path="url(#pd71c646142)" style="fill: #1f77b4"/>
   </g>
   <g id="patch_111">
    <path d="M 234.931609 273.312 
L 236.546304 273.312 
L 236.546304 46.361492 
L 234.931609 46.361492 
z
" clip-path="url(#pd71c646142)" style="fill: #1f77b4"/>
   </g>
   <g id="patch_112">
    <path d="M 236.546304 273.312 
L 238.160998 273.312 
L 238.160998 52.804881 
L 236.546304 52.804881 
z
" clip-path="url(#pd71c646142)" style="fill: #1f77b4"/>
   </g>
   <g id="patch_113">
    <path d="M 238.160998 273.312 
L 239.775693 273.312 
L 239.775693 43.497763 
L 238.160998 43.497763 
z
" clip-path="url(#pd71c646142)" style="fill: #1f77b4"/>
   </g>
   <g id="patch_114">
    <path d="M 239.775693 273.312 
L 241.390388 273.312 
L 241.390388 43.497763 
L 239.775693 43.497763 
z
" clip-path="url(#pd71c646142)" style="fill: #1f77b4"/>
   </g>
   <g id="patch_115">
    <path d="M 241.390388 273.312 
L 243.005082 273.312 
L 243.005082 69.271322 
L 241.390388 69.271322 
z
" clip-path="url(#pd71c646142)" style="fill: #1f77b4"/>
   </g>
   <g id="patch_116">
    <path d="M 243.005082 273.312 
L 244.619777 273.312 
L 244.619777 45.645559 
L 243.005082 45.645559 
z
" clip-path="url(#pd71c646142)" style="fill: #1f77b4"/>
   </g>
   <g id="patch_117">
    <path d="M 244.619777 273.312 
L 246.234471 273.312 
L 246.234471 59.248271 
L 244.619777 59.248271 
z
" clip-path="url(#pd71c646142)" style="fill: #1f77b4"/>
   </g>
   <g id="patch_118">
    <path d="M 246.234471 273.312 
L 247.849166 273.312 
L 247.849166 69.987254 
L 246.234471 69.987254 
z
" clip-path="url(#pd71c646142)" style="fill: #1f77b4"/>
   </g>
   <g id="patch_119">
    <path d="M 247.849166 273.312 
L 249.463861 273.312 
L 249.463861 79.294373 
L 247.849166 79.294373 
z
" clip-path="url(#pd71c646142)" style="fill: #1f77b4"/>
   </g>
   <g id="patch_120">
    <path d="M 249.463861 273.312 
L 251.078555 273.312 
L 251.078555 80.726237 
L 249.463861 80.726237 
z
" clip-path="url(#pd71c646142)" style="fill: #1f77b4"/>
   </g>
   <g id="patch_121">
    <path d="M 251.078555 273.312 
L 252.69325 273.312 
L 252.69325 29.179119 
L 251.078555 29.179119 
z
" clip-path="url(#pd71c646142)" style="fill: #1f77b4"/>
   </g>
   <g id="patch_122">
    <path d="M 252.69325 273.312 
L 254.307945 273.312 
L 254.307945 71.419119 
L 252.69325 71.419119 
z
" clip-path="url(#pd71c646142)" style="fill: #1f77b4"/>
   </g>
   <g id="patch_123">
    <path d="M 254.307945 273.312 
L 255.922639 273.312 
L 255.922639 75.714712 
L 254.307945 75.714712 
z
" clip-path="url(#pd71c646142)" style="fill: #1f77b4"/>
   </g>
   <g id="patch_124">
    <path d="M 255.922639 273.312 
L 257.537334 273.312 
L 257.537334 47.793356 
L 255.922639 47.793356 
z
" clip-path="url(#pd71c646142)" style="fill: #1f77b4"/>
   </g>
   <g id="patch_125">
    <path d="M 257.537334 273.312 
L 259.152029 273.312 
L 259.152029 57.100475 
L 257.537334 57.100475 
z
" clip-path="url(#pd71c646142)" style="fill: #1f77b4"/>
   </g>
   <g id="patch_126">
    <path d="M 259.152029 273.312 
L 260.766723 273.312 
L 260.766723 47.077424 
L 259.152029 47.077424 
z
" clip-path="url(#pd71c646142)" style="fill: #1f77b4"/>
   </g>
   <g id="patch_127">
    <path d="M 260.766723 273.312 
L 262.381418 273.312 
L 262.381418 85.737763 
L 260.766723 85.737763 
z
" clip-path="url(#pd71c646142)" style="fill: #1f77b4"/>
   </g>
   <g id="patch_128">
    <path d="M 262.381418 273.312 
L 263.996112 273.312 
L 263.996112 73.566915 
L 262.381418 73.566915 
z
" clip-path="url(#pd71c646142)" style="fill: #1f77b4"/>
   </g>
   <g id="patch_129">
    <path d="M 263.996112 273.312 
L 265.610807 273.312 
L 265.610807 59.964203 
L 263.996112 59.964203 
z
" clip-path="url(#pd71c646142)" style="fill: #1f77b4"/>
   </g>
   <g id="patch_130">
    <path d="M 265.610807 273.312 
L 267.225502 273.312 
L 267.225502 74.282847 
L 265.610807 74.282847 
z
" clip-path="url(#pd71c646142)" style="fill: #1f77b4"/>
   </g>
   <g id="patch_131">
    <path d="M 267.225502 273.312 
L 268.840196 273.312 
L 268.840196 80.726237 
L 267.225502 80.726237 
z
" clip-path="url(#pd71c646142)" style="fill: #1f77b4"/>
   </g>
   <g id="patch_132">
    <path d="M 268.840196 273.312 
L 270.454891 273.312 
L 270.454891 81.442169 
L 268.840196 81.442169 
z
" clip-path="url(#pd71c646142)" style="fill: #1f77b4"/>
   </g>
   <g id="patch_133">
    <path d="M 270.454891 273.312 
L 272.069586 273.312 
L 272.069586 62.827932 
L 270.454891 62.827932 
z
" clip-path="url(#pd71c646142)" style="fill: #1f77b4"/>
   </g>
   <g id="patch_134">
    <path d="M 272.069586 273.312 
L 273.68428 273.312 
L 273.68428 55.66861 
L 272.069586 55.66861 
z
" clip-path="url(#pd71c646142)" style="fill: #1f77b4"/>
   </g>
   <g id="patch_135">
    <path d="M 273.68428 273.312 
L 275.298975 273.312 
L 275.298975 82.158102 
L 273.68428 82.158102 
z
" clip-path="url(#pd71c646142)" style="fill: #1f77b4"/>
   </g>
   <g id="patch_136">
    <path d="M 275.298975 273.312 
L 276.913669 273.312 
L 276.913669 101.488271 
L 275.298975 101.488271 
z
" clip-path="url(#pd71c646142)" style="fill: #1f77b4"/>
   </g>
   <g id="patch_137">
    <path d="M 276.913669 273.312 
L 278.528364 273.312 
L 278.528364 74.99878 
L 276.913669 74.99878 
z
" clip-path="url(#pd71c646142)" style="fill: #1f77b4"/>
   </g>
   <g id="patch_138">
    <path d="M 278.528364 273.312 
L 280.143059 273.312 
L 280.143059 81.442169 
L 278.528364 81.442169 
z
" clip-path="url(#pd71c646142)" style="fill: #1f77b4"/>
   </g>
   <g id="patch_139">
    <path d="M 280.143059 273.312 
L 281.757753 273.312 
L 281.757753 66.407593 
L 280.143059 66.407593 
z
" clip-path="url(#pd71c646142)" style="fill: #1f77b4"/>
   </g>
   <g id="patch_140">
    <path d="M 281.757753 273.312 
L 283.372448 273.312 
L 283.372448 77.146576 
L 281.757753 77.146576 
z
" clip-path="url(#pd71c646142)" style="fill: #1f77b4"/>
   </g>
   <g id="patch_141">
    <path d="M 283.372448 273.312 
L 284.987143 273.312 
L 284.987143 88.601492 
L 283.372448 88.601492 
z
" clip-path="url(#pd71c646142)" style="fill: #1f77b4"/>
   </g>
   <g id="patch_142">
    <path d="M 284.987143 273.312 
L 286.601837 273.312 
L 286.601837 85.737763 
L 284.987143 85.737763 
z
" clip-path="url(#pd71c646142)" style="fill: #1f77b4"/>
   </g>
   <g id="patch_143">
    <path d="M 286.601837 273.312 
L 288.216532 273.312 
L 288.216532 100.056407 
L 286.601837 100.056407 
z
" clip-path="url(#pd71c646142)" style="fill: #1f77b4"/>
   </g>
   <g id="patch_144">
    <path d="M 288.216532 273.312 
L 289.831226 273.312 
L 289.831226 102.204203 
L 288.216532 102.204203 
z
" clip-path="url(#pd71c646142)" style="fill: #1f77b4"/>
   </g>
   <g id="patch_145">
    <path d="M 289.831226 273.312 
L 291.445921 273.312 
L 291.445921 105.067932 
L 289.831226 105.067932 
z
" clip-path="url(#pd71c646142)" style="fill: #1f77b4"/>
   </g>
   <g id="patch_146">
    <path d="M 291.445921 273.312 
L 293.060616 273.312 
L 293.060616 90.033356 
L 291.445921 90.033356 
z
" clip-path="url(#pd71c646142)" style="fill: #1f77b4"/>
   </g>
   <g id="patch_147">
    <path d="M 293.060616 273.312 
L 294.67531 273.312 
L 294.67531 118.670644 
L 293.060616 118.670644 
z
" clip-path="url(#pd71c646142)" style="fill: #1f77b4"/>
   </g>
   <g id="patch_148">
    <path d="M 294.67531 273.312 
L 296.290005 273.312 
L 296.290005 110.079458 
L 294.67531 110.079458 
z
" clip-path="url(#pd71c646142)" style="fill: #1f77b4"/>
   </g>
   <g id="patch_149">
    <path d="M 296.290005 273.312 
L 297.9047 273.312 
L 297.9047 103.636068 
L 296.290005 103.636068 
z
" clip-path="url(#pd71c646142)" style="fill: #1f77b4"/>
   </g>
   <g id="patch_150">
    <path d="M 297.9047 273.312 
L 299.519394 273.312 
L 299.519394 103.636068 
L 297.9047 103.636068 
z
" clip-path="url(#pd71c646142)" style="fill: #1f77b4"/>
   </g>
   <g id="patch_151">
    <path d="M 299.519394 273.312 
L 301.134089 273.312 
L 301.134089 93.613017 
L 299.519394 93.613017 
z
" clip-path="url(#pd71c646142)" style="fill: #1f77b4"/>
   </g>
   <g id="patch_152">
    <path d="M 301.134089 273.312 
L 302.748783 273.312 
L 302.748783 117.954712 
L 301.134089 117.954712 
z
" clip-path="url(#pd71c646142)" style="fill: #1f77b4"/>
   </g>
   <g id="patch_153">
    <path d="M 302.748783 273.312 
L 304.363478 273.312 
L 304.363478 132.989288 
L 302.748783 132.989288 
z
" clip-path="url(#pd71c646142)" style="fill: #1f77b4"/>
   </g>
   <g id="patch_154">
    <path d="M 304.363478 273.312 
L 305.978173 273.312 
L 305.978173 127.261831 
L 304.363478 127.261831 
z
" clip-path="url(#pd71c646142)" style="fill: #1f77b4"/>
   </g>
   <g id="patch_155">
    <path d="M 305.978173 273.312 
L 307.592867 273.312 
L 307.592867 115.090983 
L 305.978173 115.090983 
z
" clip-path="url(#pd71c646142)" style="fill: #1f77b4"/>
   </g>
   <g id="patch_156">
    <path d="M 307.592867 273.312 
L 309.207562 273.312 
L 309.207562 133.70522 
L 307.592867 133.70522 
z
" clip-path="url(#pd71c646142)" style="fill: #1f77b4"/>
   </g>
   <g id="patch_157">
    <path d="M 309.207562 273.312 
L 310.822257 273.312 
L 310.822257 115.090983 
L 309.207562 115.090983 
z
" clip-path="url(#pd71c646142)" style="fill: #1f77b4"/>
   </g>
   <g id="patch_158">
    <path d="M 310.822257 273.312 
L 312.436951 273.312 
L 312.436951 134.421153 
L 310.822257 134.421153 
z
" clip-path="url(#pd71c646142)" style="fill: #1f77b4"/>
   </g>
   <g id="patch_159">
    <path d="M 312.436951 273.312 
L 314.051646 273.312 
L 314.051646 148.023864 
L 312.436951 148.023864 
z
" clip-path="url(#pd71c646142)" style="fill: #1f77b4"/>
   </g>
   <g id="patch_160">
    <path d="M 314.051646 273.312 
L 315.666341 273.312 
L 315.666341 122.250305 
L 314.051646 122.250305 
z
" clip-path="url(#pd71c646142)" style="fill: #1f77b4"/>
   </g>
   <g id="patch_161">
    <path d="M 315.666341 273.312 
L 317.281035 273.312 
L 317.281035 123.682169 
L 315.666341 123.682169 
z
" clip-path="url(#pd71c646142)" style="fill: #1f77b4"/>
   </g>
   <g id="patch_162">
    <path d="M 317.281035 273.312 
L 318.89573 273.312 
L 318.89573 143.012339 
L 317.281035 143.012339 
z
" clip-path="url(#pd71c646142)" style="fill: #1f77b4"/>
   </g>
   <g id="patch_163">
    <path d="M 318.89573 273.312 
L 320.510424 273.312 
L 320.510424 132.273356 
L 318.89573 132.273356 
z
" clip-path="url(#pd71c646142)" style="fill: #1f77b4"/>
   </g>
   <g id="patch_164">
    <path d="M 320.510424 273.312 
L 322.125119 273.312 
L 322.125119 163.774373 
L 320.510424 163.774373 
z
" clip-path="url(#pd71c646142)" style="fill: #1f77b4"/>
   </g>
   <g id="patch_165">
    <path d="M 322.125119 273.312 
L 323.739814 273.312 
L 323.739814 143.728271 
L 322.125119 143.728271 
z
" clip-path="url(#pd71c646142)" style="fill: #1f77b4"/>
   </g>
   <g id="patch_166">
    <path d="M 323.739814 273.312 
L 325.354508 273.312 
L 325.354508 158.762847 
L 323.739814 158.762847 
z
" clip-path="url(#pd71c646142)" style="fill: #1f77b4"/>
   </g>
   <g id="patch_167">
    <path d="M 325.354508 273.312 
L 326.969203 273.312 
L 326.969203 155.183186 
L 325.354508 155.183186 
z
" clip-path="url(#pd71c646142)" style="fill: #1f77b4"/>
   </g>
   <g id="patch_168">
    <path d="M 326.969203 273.312 
L 328.583898 273.312 
L 328.583898 150.887593 
L 326.969203 150.887593 
z
" clip-path="url(#pd71c646142)" style="fill: #1f77b4"/>
   </g>
   <g id="patch_169">
    <path d="M 328.583898 273.312 
L 330.198592 273.312 
L 330.198592 155.899119 
L 328.583898 155.899119 
z
" clip-path="url(#pd71c646142)" style="fill: #1f77b4"/>
   </g>
   <g id="patch_170">
    <path d="M 330.198592 273.312 
L 331.813287 273.312 
L 331.813287 150.171661 
L 330.198592 150.171661 
z
" clip-path="url(#pd71c646142)" style="fill: #1f77b4"/>
   </g>
   <g id="patch_171">
    <path d="M 331.813287 273.312 
L 333.427981 273.312 
L 333.427981 160.194712 
L 331.813287 160.194712 
z
" clip-path="url(#pd71c646142)" style="fill: #1f77b4"/>
   </g>
   <g id="patch_172">
    <path d="M 333.427981 273.312 
L 335.042676 273.312 
L 335.042676 153.751322 
L 333.427981 153.751322 
z
" clip-path="url(#pd71c646142)" style="fill: #1f77b4"/>
   </g>
   <g id="patch_173">
    <path d="M 335.042676 273.312 
L 336.657371 273.312 
L 336.657371 170.217763 
L 335.042676 170.217763 
z
" clip-path="url(#pd71c646142)" style="fill: #1f77b4"/>
   </g>
   <g id="patch_174">
    <path d="M 336.657371 273.312 
L 338.272065 273.312 
L 338.272065 174.513356 
L 336.657371 174.513356 
z
" clip-path="url(#pd71c646142)" style="fill: #1f77b4"/>
   </g>
   <g id="patch_175">
    <path d="M 338.272065 273.312 
L 339.88676 273.312 
L 339.88676 176.661153 
L 338.272065 176.661153 
z
" clip-path="url(#pd71c646142)" style="fill: #1f77b4"/>
   </g>
   <g id="patch_176">
    <path d="M 339.88676 273.312 
L 341.501455 273.312 
L 341.501455 173.797424 
L 339.88676 173.797424 
z
" clip-path="url(#pd71c646142)" style="fill: #1f77b4"/>
   </g>
   <g id="patch_177">
    <path d="M 341.501455 273.312 
L 343.116149 273.312 
L 343.116149 167.354034 
L 341.501455 167.354034 
z
" clip-path="url(#pd71c646142)" style="fill: #1f77b4"/>
   </g>
   <g id="patch_178">
    <path d="M 343.116149 273.312 
L 344.730844 273.312 
L 344.730844 193.127593 
L 343.116149 193.127593 
z
" clip-path="url(#pd71c646142)" style="fill: #1f77b4"/>
   </g>
   <g id="patch_179">
    <path d="M 344.730844 273.312 
L 346.345538 273.312 
L 346.345538 182.38861 
L 344.730844 182.38861 
z
" clip-path="url(#pd71c646142)" style="fill: #1f77b4"/>
   </g>
   <g id="patch_180">
    <path d="M 346.345538 273.312 
L 347.960233 273.312 
L 347.960233 195.27539 
L 346.345538 195.27539 
z
" clip-path="url(#pd71c646142)" style="fill: #1f77b4"/>
   </g>
   <g id="patch_181">
    <path d="M 347.960233 273.312 
L 349.574928 273.312 
L 349.574928 205.298441 
L 347.960233 205.298441 
z
" clip-path="url(#pd71c646142)" style="fill: #1f77b4"/>
   </g>
   <g id="patch_182">
    <path d="M 349.574928 273.312 
L 351.189622 273.312 
L 351.189622 199.570983 
L 349.574928 199.570983 
z
" clip-path="url(#pd71c646142)" style="fill: #1f77b4"/>
   </g>
   <g id="patch_183">
    <path d="M 351.189622 273.312 
L 352.804317 273.312 
L 352.804317 197.423186 
L 351.189622 197.423186 
z
" clip-path="url(#pd71c646142)" style="fill: #1f77b4"/>
   </g>
   <g id="patch_184">
    <path d="M 352.804317 273.312 
L 354.419012 273.312 
L 354.419012 202.434712 
L 352.804317 202.434712 
z
" clip-path="url(#pd71c646142)" style="fill: #1f77b4"/>
   </g>
   <g id="patch_185">
    <path d="M 354.419012 273.312 
L 356.033706 273.312 
L 356.033706 214.605559 
L 354.419012 214.605559 
z
" clip-path="url(#pd71c646142)" style="fill: #1f77b4"/>
   </g>
   <g id="patch_186">
    <path d="M 356.033706 273.312 
L 357.648401 273.312 
L 357.648401 218.901153 
L 356.033706 218.901153 
z
" clip-path="url(#pd71c646142)" style="fill: #1f77b4"/>
   </g>
   <g id="patch_187">
    <path d="M 357.648401 273.312 
L 359.263096 273.312 
L 359.263096 221.048949 
L 357.648401 221.048949 
z
" clip-path="url(#pd71c646142)" style="fill: #1f77b4"/>
   </g>
   <g id="patch_188">
    <path d="M 359.263096 273.312 
L 360.87779 273.312 
L 360.87779 223.196746 
L 359.263096 223.196746 
z
" clip-path="url(#pd71c646142)" style="fill: #1f77b4"/>
   </g>
   <g id="patch_189">
    <path d="M 360.87779 273.312 
L 362.492485 273.312 
L 362.492485 213.889627 
L 360.87779 213.889627 
z
" clip-path="url(#pd71c646142)" style="fill: #1f77b4"/>
   </g>
   <g id="patch_190">
    <path d="M 362.492485 273.312 
L 364.107179 273.312 
L 364.107179 234.651661 
L 362.492485 234.651661 
z
" clip-path="url(#pd71c646142)" style="fill: #1f77b4"/>
   </g>
   <g id="patch_191">
    <path d="M 364.107179 273.312 
L 365.721874 273.312 
L 365.721874 240.379119 
L 364.107179 240.379119 
z
" clip-path="url(#pd71c646142)" style="fill: #1f77b4"/>
   </g>
   <g id="patch_192">
    <path d="M 365.721874 273.312 
L 367.336569 273.312 
L 367.336569 238.231322 
L 365.721874 238.231322 
z
" clip-path="url(#pd71c646142)" style="fill: #1f77b4"/>
   </g>
   <g id="patch_193">
    <path d="M 367.336569 273.312 
L 368.951263 273.312 
L 368.951263 235.367593 
L 367.336569 235.367593 
z
" clip-path="url(#pd71c646142)" style="fill: #1f77b4"/>
   </g>
   <g id="patch_194">
    <path d="M 368.951263 273.312 
L 370.565958 273.312 
L 370.565958 233.219797 
L 368.951263 233.219797 
z
" clip-path="url(#pd71c646142)" style="fill: #1f77b4"/>
   </g>
   <g id="patch_195">
    <path d="M 370.565958 273.312 
L 372.180653 273.312 
L 372.180653 248.970305 
L 370.565958 248.970305 
z
" clip-path="url(#pd71c646142)" style="fill: #1f77b4"/>
   </g>
   <g id="patch_196">
    <path d="M 372.180653 273.312 
L 373.795347 273.312 
L 373.795347 253.265898 
L 372.180653 253.265898 
z
" clip-path="url(#pd71c646142)" style="fill: #1f77b4"/>
   </g>
   <g id="patch_197">
    <path d="M 373.795347 273.312 
L 375.410042 273.312 
L 375.410042 256.845559 
L 373.795347 256.845559 
z
" clip-path="url(#pd71c646142)" style="fill: #1f77b4"/>
   </g>
   <g id="patch_198">
    <path d="M 375.410042 273.312 
L 377.024736 273.312 
L 377.024736 257.561492 
L 375.410042 257.561492 
z
" clip-path="url(#pd71c646142)" style="fill: #1f77b4"/>
   </g>
   <g id="patch_199">
    <path d="M 377.024736 273.312 
L 378.639431 273.312 
L 378.639431 256.845559 
L 377.024736 256.845559 
z
" clip-path="url(#pd71c646142)" style="fill: #1f77b4"/>
   </g>
   <g id="patch_200">
    <path d="M 378.639431 273.312 
L 380.254126 273.312 
L 380.254126 265.436746 
L 378.639431 265.436746 
z
" clip-path="url(#pd71c646142)" style="fill: #1f77b4"/>
   </g>
   <g id="patch_201">
    <path d="M 380.254126 273.312 
L 381.86882 273.312 
L 381.86882 264.720814 
L 380.254126 264.720814 
z
" clip-path="url(#pd71c646142)" style="fill: #1f77b4"/>
   </g>
   <g id="patch_202">
    <path d="M 381.86882 273.312 
L 383.483515 273.312 
L 383.483515 266.152678 
L 381.86882 266.152678 
z
" clip-path="url(#pd71c646142)" style="fill: #1f77b4"/>
   </g>
   <g id="matplotlib.axis_1">
    <g id="xtick_1">
     <g id="line2d_1">
      <defs>
       <path id="md083f42703" d="M 0 0 
L 0 3.5 
" style="stroke: #000000; stroke-width: 0.8"/>
      </defs>
      <g>
       <use xlink:href="#md083f42703" x="60.013977" y="273.312" style="stroke: #000000; stroke-width: 0.8"/>
      </g>
     </g>
     <g id="text_1">
      <!-- 0.0 -->
      <g transform="translate(52.062415 287.910437)scale(0.1 -0.1)">
       <defs>
        <path id="DejaVuSans-30" d="M 2034 4250 
Q 1547 4250 1301 3770 
Q 1056 3291 1056 2328 
Q 1056 1369 1301 889 
Q 1547 409 2034 409 
Q 2525 409 2770 889 
Q 3016 1369 3016 2328 
Q 3016 3291 2770 3770 
Q 2525 4250 2034 4250 
z
M 2034 4750 
Q 2819 4750 3233 4129 
Q 3647 3509 3647 2328 
Q 3647 1150 3233 529 
Q 2819 -91 2034 -91 
Q 1250 -91 836 529 
Q 422 1150 422 2328 
Q 422 3509 836 4129 
Q 1250 4750 2034 4750 
z
" transform="scale(0.015625)"/>
        <path id="DejaVuSans-2e" d="M 684 794 
L 1344 794 
L 1344 0 
L 684 0 
L 684 794 
z
" transform="scale(0.015625)"/>
       </defs>
       <use xlink:href="#DejaVuSans-30"/>
       <use xlink:href="#DejaVuSans-2e" x="63.623047"/>
       <use xlink:href="#DejaVuSans-30" x="95.410156"/>
      </g>
     </g>
    </g>
    <g id="xtick_2">
     <g id="line2d_2">
      <g>
       <use xlink:href="#md083f42703" x="101.350278" y="273.312" style="stroke: #000000; stroke-width: 0.8"/>
      </g>
     </g>
     <g id="text_2">
      <!-- 0.2 -->
      <g transform="translate(93.398715 287.910437)scale(0.1 -0.1)">
       <defs>
        <path id="DejaVuSans-32" d="M 1228 531 
L 3431 531 
L 3431 0 
L 469 0 
L 469 531 
Q 828 903 1448 1529 
Q 2069 2156 2228 2338 
Q 2531 2678 2651 2914 
Q 2772 3150 2772 3378 
Q 2772 3750 2511 3984 
Q 2250 4219 1831 4219 
Q 1534 4219 1204 4116 
Q 875 4013 500 3803 
L 500 4441 
Q 881 4594 1212 4672 
Q 1544 4750 1819 4750 
Q 2544 4750 2975 4387 
Q 3406 4025 3406 3419 
Q 3406 3131 3298 2873 
Q 3191 2616 2906 2266 
Q 2828 2175 2409 1742 
Q 1991 1309 1228 531 
z
" transform="scale(0.015625)"/>
       </defs>
       <use xlink:href="#DejaVuSans-30"/>
       <use xlink:href="#DejaVuSans-2e" x="63.623047"/>
       <use xlink:href="#DejaVuSans-32" x="95.410156"/>
      </g>
     </g>
    </g>
    <g id="xtick_3">
     <g id="line2d_3">
      <g>
       <use xlink:href="#md083f42703" x="142.686578" y="273.312" style="stroke: #000000; stroke-width: 0.8"/>
      </g>
     </g>
     <g id="text_3">
      <!-- 0.4 -->
      <g transform="translate(134.735016 287.910437)scale(0.1 -0.1)">
       <defs>
        <path id="DejaVuSans-34" d="M 2419 4116 
L 825 1625 
L 2419 1625 
L 2419 4116 
z
M 2253 4666 
L 3047 4666 
L 3047 1625 
L 3713 1625 
L 3713 1100 
L 3047 1100 
L 3047 0 
L 2419 0 
L 2419 1100 
L 313 1100 
L 313 1709 
L 2253 4666 
z
" transform="scale(0.015625)"/>
       </defs>
       <use xlink:href="#DejaVuSans-30"/>
       <use xlink:href="#DejaVuSans-2e" x="63.623047"/>
       <use xlink:href="#DejaVuSans-34" x="95.410156"/>
      </g>
     </g>
    </g>
    <g id="xtick_4">
     <g id="line2d_4">
      <g>
       <use xlink:href="#md083f42703" x="184.022879" y="273.312" style="stroke: #000000; stroke-width: 0.8"/>
      </g>
     </g>
     <g id="text_4">
      <!-- 0.6 -->
      <g transform="translate(176.071316 287.910437)scale(0.1 -0.1)">
       <defs>
        <path id="DejaVuSans-36" d="M 2113 2584 
Q 1688 2584 1439 2293 
Q 1191 2003 1191 1497 
Q 1191 994 1439 701 
Q 1688 409 2113 409 
Q 2538 409 2786 701 
Q 3034 994 3034 1497 
Q 3034 2003 2786 2293 
Q 2538 2584 2113 2584 
z
M 3366 4563 
L 3366 3988 
Q 3128 4100 2886 4159 
Q 2644 4219 2406 4219 
Q 1781 4219 1451 3797 
Q 1122 3375 1075 2522 
Q 1259 2794 1537 2939 
Q 1816 3084 2150 3084 
Q 2853 3084 3261 2657 
Q 3669 2231 3669 1497 
Q 3669 778 3244 343 
Q 2819 -91 2113 -91 
Q 1303 -91 875 529 
Q 447 1150 447 2328 
Q 447 3434 972 4092 
Q 1497 4750 2381 4750 
Q 2619 4750 2861 4703 
Q 3103 4656 3366 4563 
z
" transform="scale(0.015625)"/>
       </defs>
       <use xlink:href="#DejaVuSans-30"/>
       <use xlink:href="#DejaVuSans-2e" x="63.623047"/>
       <use xlink:href="#DejaVuSans-36" x="95.410156"/>
      </g>
     </g>
    </g>
    <g id="xtick_5">
     <g id="line2d_5">
      <g>
       <use xlink:href="#md083f42703" x="225.35918" y="273.312" style="stroke: #000000; stroke-width: 0.8"/>
      </g>
     </g>
     <g id="text_5">
      <!-- 0.8 -->
      <g transform="translate(217.407617 287.910437)scale(0.1 -0.1)">
       <defs>
        <path id="DejaVuSans-38" d="M 2034 2216 
Q 1584 2216 1326 1975 
Q 1069 1734 1069 1313 
Q 1069 891 1326 650 
Q 1584 409 2034 409 
Q 2484 409 2743 651 
Q 3003 894 3003 1313 
Q 3003 1734 2745 1975 
Q 2488 2216 2034 2216 
z
M 1403 2484 
Q 997 2584 770 2862 
Q 544 3141 544 3541 
Q 544 4100 942 4425 
Q 1341 4750 2034 4750 
Q 2731 4750 3128 4425 
Q 3525 4100 3525 3541 
Q 3525 3141 3298 2862 
Q 3072 2584 2669 2484 
Q 3125 2378 3379 2068 
Q 3634 1759 3634 1313 
Q 3634 634 3220 271 
Q 2806 -91 2034 -91 
Q 1263 -91 848 271 
Q 434 634 434 1313 
Q 434 1759 690 2068 
Q 947 2378 1403 2484 
z
M 1172 3481 
Q 1172 3119 1398 2916 
Q 1625 2713 2034 2713 
Q 2441 2713 2670 2916 
Q 2900 3119 2900 3481 
Q 2900 3844 2670 4047 
Q 2441 4250 2034 4250 
Q 1625 4250 1398 4047 
Q 1172 3844 1172 3481 
z
" transform="scale(0.015625)"/>
       </defs>
       <use xlink:href="#DejaVuSans-30"/>
       <use xlink:href="#DejaVuSans-2e" x="63.623047"/>
       <use xlink:href="#DejaVuSans-38" x="95.410156"/>
      </g>
     </g>
    </g>
    <g id="xtick_6">
     <g id="line2d_6">
      <g>
       <use xlink:href="#md083f42703" x="266.69548" y="273.312" style="stroke: #000000; stroke-width: 0.8"/>
      </g>
     </g>
     <g id="text_6">
      <!-- 1.0 -->
      <g transform="translate(258.743918 287.910437)scale(0.1 -0.1)">
       <defs>
        <path id="DejaVuSans-31" d="M 794 531 
L 1825 531 
L 1825 4091 
L 703 3866 
L 703 4441 
L 1819 4666 
L 2450 4666 
L 2450 531 
L 3481 531 
L 3481 0 
L 794 0 
L 794 531 
z
" transform="scale(0.015625)"/>
       </defs>
       <use xlink:href="#DejaVuSans-31"/>
       <use xlink:href="#DejaVuSans-2e" x="63.623047"/>
       <use xlink:href="#DejaVuSans-30" x="95.410156"/>
      </g>
     </g>
    </g>
    <g id="xtick_7">
     <g id="line2d_7">
      <g>
       <use xlink:href="#md083f42703" x="308.031781" y="273.312" style="stroke: #000000; stroke-width: 0.8"/>
      </g>
     </g>
     <g id="text_7">
      <!-- 1.2 -->
      <g transform="translate(300.080218 287.910437)scale(0.1 -0.1)">
       <use xlink:href="#DejaVuSans-31"/>
       <use xlink:href="#DejaVuSans-2e" x="63.623047"/>
       <use xlink:href="#DejaVuSans-32" x="95.410156"/>
      </g>
     </g>
    </g>
    <g id="xtick_8">
     <g id="line2d_8">
      <g>
       <use xlink:href="#md083f42703" x="349.368081" y="273.312" style="stroke: #000000; stroke-width: 0.8"/>
      </g>
     </g>
     <g id="text_8">
      <!-- 1.4 -->
      <g transform="translate(341.416519 287.910437)scale(0.1 -0.1)">
       <use xlink:href="#DejaVuSans-31"/>
       <use xlink:href="#DejaVuSans-2e" x="63.623047"/>
       <use xlink:href="#DejaVuSans-34" x="95.410156"/>
      </g>
     </g>
    </g>
    <g id="xtick_9">
     <g id="line2d_9">
      <g>
       <use xlink:href="#md083f42703" x="390.704382" y="273.312" style="stroke: #000000; stroke-width: 0.8"/>
      </g>
     </g>
     <g id="text_9">
      <!-- 1.6 -->
      <g transform="translate(382.752819 287.910437)scale(0.1 -0.1)">
       <use xlink:href="#DejaVuSans-31"/>
       <use xlink:href="#DejaVuSans-2e" x="63.623047"/>
       <use xlink:href="#DejaVuSans-36" x="95.410156"/>
      </g>
     </g>
    </g>
    <g id="text_10">
     <!-- Angle with normal (rad) -->
     <g transform="translate(163.023281 301.588562)scale(0.1 -0.1)">
      <defs>
       <path id="DejaVuSans-41" d="M 2188 4044 
L 1331 1722 
L 3047 1722 
L 2188 4044 
z
M 1831 4666 
L 2547 4666 
L 4325 0 
L 3669 0 
L 3244 1197 
L 1141 1197 
L 716 0 
L 50 0 
L 1831 4666 
z
" transform="scale(0.015625)"/>
       <path id="DejaVuSans-6e" d="M 3513 2113 
L 3513 0 
L 2938 0 
L 2938 2094 
Q 2938 2591 2744 2837 
Q 2550 3084 2163 3084 
Q 1697 3084 1428 2787 
Q 1159 2491 1159 1978 
L 1159 0 
L 581 0 
L 581 3500 
L 1159 3500 
L 1159 2956 
Q 1366 3272 1645 3428 
Q 1925 3584 2291 3584 
Q 2894 3584 3203 3211 
Q 3513 2838 3513 2113 
z
" transform="scale(0.015625)"/>
       <path id="DejaVuSans-67" d="M 2906 1791 
Q 2906 2416 2648 2759 
Q 2391 3103 1925 3103 
Q 1463 3103 1205 2759 
Q 947 2416 947 1791 
Q 947 1169 1205 825 
Q 1463 481 1925 481 
Q 2391 481 2648 825 
Q 2906 1169 2906 1791 
z
M 3481 434 
Q 3481 -459 3084 -895 
Q 2688 -1331 1869 -1331 
Q 1566 -1331 1297 -1286 
Q 1028 -1241 775 -1147 
L 775 -588 
Q 1028 -725 1275 -790 
Q 1522 -856 1778 -856 
Q 2344 -856 2625 -561 
Q 2906 -266 2906 331 
L 2906 616 
Q 2728 306 2450 153 
Q 2172 0 1784 0 
Q 1141 0 747 490 
Q 353 981 353 1791 
Q 353 2603 747 3093 
Q 1141 3584 1784 3584 
Q 2172 3584 2450 3431 
Q 2728 3278 2906 2969 
L 2906 3500 
L 3481 3500 
L 3481 434 
z
" transform="scale(0.015625)"/>
       <path id="DejaVuSans-6c" d="M 603 4863 
L 1178 4863 
L 1178 0 
L 603 0 
L 603 4863 
z
" transform="scale(0.015625)"/>
       <path id="DejaVuSans-65" d="M 3597 1894 
L 3597 1613 
L 953 1613 
Q 991 1019 1311 708 
Q 1631 397 2203 397 
Q 2534 397 2845 478 
Q 3156 559 3463 722 
L 3463 178 
Q 3153 47 2828 -22 
Q 2503 -91 2169 -91 
Q 1331 -91 842 396 
Q 353 884 353 1716 
Q 353 2575 817 3079 
Q 1281 3584 2069 3584 
Q 2775 3584 3186 3129 
Q 3597 2675 3597 1894 
z
M 3022 2063 
Q 3016 2534 2758 2815 
Q 2500 3097 2075 3097 
Q 1594 3097 1305 2825 
Q 1016 2553 972 2059 
L 3022 2063 
z
" transform="scale(0.015625)"/>
       <path id="DejaVuSans-20" transform="scale(0.015625)"/>
       <path id="DejaVuSans-77" d="M 269 3500 
L 844 3500 
L 1563 769 
L 2278 3500 
L 2956 3500 
L 3675 769 
L 4391 3500 
L 4966 3500 
L 4050 0 
L 3372 0 
L 2619 2869 
L 1863 0 
L 1184 0 
L 269 3500 
z
" transform="scale(0.015625)"/>
       <path id="DejaVuSans-69" d="M 603 3500 
L 1178 3500 
L 1178 0 
L 603 0 
L 603 3500 
z
M 603 4863 
L 1178 4863 
L 1178 4134 
L 603 4134 
L 603 4863 
z
" transform="scale(0.015625)"/>
       <path id="DejaVuSans-74" d="M 1172 4494 
L 1172 3500 
L 2356 3500 
L 2356 3053 
L 1172 3053 
L 1172 1153 
Q 1172 725 1289 603 
Q 1406 481 1766 481 
L 2356 481 
L 2356 0 
L 1766 0 
Q 1100 0 847 248 
Q 594 497 594 1153 
L 594 3053 
L 172 3053 
L 172 3500 
L 594 3500 
L 594 4494 
L 1172 4494 
z
" transform="scale(0.015625)"/>
       <path id="DejaVuSans-68" d="M 3513 2113 
L 3513 0 
L 2938 0 
L 2938 2094 
Q 2938 2591 2744 2837 
Q 2550 3084 2163 3084 
Q 1697 3084 1428 2787 
Q 1159 2491 1159 1978 
L 1159 0 
L 581 0 
L 581 4863 
L 1159 4863 
L 1159 2956 
Q 1366 3272 1645 3428 
Q 1925 3584 2291 3584 
Q 2894 3584 3203 3211 
Q 3513 2838 3513 2113 
z
" transform="scale(0.015625)"/>
       <path id="DejaVuSans-6f" d="M 1959 3097 
Q 1497 3097 1228 2736 
Q 959 2375 959 1747 
Q 959 1119 1226 758 
Q 1494 397 1959 397 
Q 2419 397 2687 759 
Q 2956 1122 2956 1747 
Q 2956 2369 2687 2733 
Q 2419 3097 1959 3097 
z
M 1959 3584 
Q 2709 3584 3137 3096 
Q 3566 2609 3566 1747 
Q 3566 888 3137 398 
Q 2709 -91 1959 -91 
Q 1206 -91 779 398 
Q 353 888 353 1747 
Q 353 2609 779 3096 
Q 1206 3584 1959 3584 
z
" transform="scale(0.015625)"/>
       <path id="DejaVuSans-72" d="M 2631 2963 
Q 2534 3019 2420 3045 
Q 2306 3072 2169 3072 
Q 1681 3072 1420 2755 
Q 1159 2438 1159 1844 
L 1159 0 
L 581 0 
L 581 3500 
L 1159 3500 
L 1159 2956 
Q 1341 3275 1631 3429 
Q 1922 3584 2338 3584 
Q 2397 3584 2469 3576 
Q 2541 3569 2628 3553 
L 2631 2963 
z
" transform="scale(0.015625)"/>
       <path id="DejaVuSans-6d" d="M 3328 2828 
Q 3544 3216 3844 3400 
Q 4144 3584 4550 3584 
Q 5097 3584 5394 3201 
Q 5691 2819 5691 2113 
L 5691 0 
L 5113 0 
L 5113 2094 
Q 5113 2597 4934 2840 
Q 4756 3084 4391 3084 
Q 3944 3084 3684 2787 
Q 3425 2491 3425 1978 
L 3425 0 
L 2847 0 
L 2847 2094 
Q 2847 2600 2669 2842 
Q 2491 3084 2119 3084 
Q 1678 3084 1418 2786 
Q 1159 2488 1159 1978 
L 1159 0 
L 581 0 
L 581 3500 
L 1159 3500 
L 1159 2956 
Q 1356 3278 1631 3431 
Q 1906 3584 2284 3584 
Q 2666 3584 2933 3390 
Q 3200 3197 3328 2828 
z
" transform="scale(0.015625)"/>
       <path id="DejaVuSans-61" d="M 2194 1759 
Q 1497 1759 1228 1600 
Q 959 1441 959 1056 
Q 959 750 1161 570 
Q 1363 391 1709 391 
Q 2188 391 2477 730 
Q 2766 1069 2766 1631 
L 2766 1759 
L 2194 1759 
z
M 3341 1997 
L 3341 0 
L 2766 0 
L 2766 531 
Q 2569 213 2275 61 
Q 1981 -91 1556 -91 
Q 1019 -91 701 211 
Q 384 513 384 1019 
Q 384 1609 779 1909 
Q 1175 2209 1959 2209 
L 2766 2209 
L 2766 2266 
Q 2766 2663 2505 2880 
Q 2244 3097 1772 3097 
Q 1472 3097 1187 3025 
Q 903 2953 641 2809 
L 641 3341 
Q 956 3463 1253 3523 
Q 1550 3584 1831 3584 
Q 2591 3584 2966 3190 
Q 3341 2797 3341 1997 
z
" transform="scale(0.015625)"/>
       <path id="DejaVuSans-28" d="M 1984 4856 
Q 1566 4138 1362 3434 
Q 1159 2731 1159 2009 
Q 1159 1288 1364 580 
Q 1569 -128 1984 -844 
L 1484 -844 
Q 1016 -109 783 600 
Q 550 1309 550 2009 
Q 550 2706 781 3412 
Q 1013 4119 1484 4856 
L 1984 4856 
z
" transform="scale(0.015625)"/>
       <path id="DejaVuSans-64" d="M 2906 2969 
L 2906 4863 
L 3481 4863 
L 3481 0 
L 2906 0 
L 2906 525 
Q 2725 213 2448 61 
Q 2172 -91 1784 -91 
Q 1150 -91 751 415 
Q 353 922 353 1747 
Q 353 2572 751 3078 
Q 1150 3584 1784 3584 
Q 2172 3584 2448 3432 
Q 2725 3281 2906 2969 
z
M 947 1747 
Q 947 1113 1208 752 
Q 1469 391 1925 391 
Q 2381 391 2643 752 
Q 2906 1113 2906 1747 
Q 2906 2381 2643 2742 
Q 2381 3103 1925 3103 
Q 1469 3103 1208 2742 
Q 947 2381 947 1747 
z
" transform="scale(0.015625)"/>
       <path id="DejaVuSans-29" d="M 513 4856 
L 1013 4856 
Q 1481 4119 1714 3412 
Q 1947 2706 1947 2009 
Q 1947 1309 1714 600 
Q 1481 -109 1013 -844 
L 513 -844 
Q 928 -128 1133 580 
Q 1338 1288 1338 2009 
Q 1338 2731 1133 3434 
Q 928 4138 513 4856 
z
" transform="scale(0.015625)"/>
      </defs>
      <use xlink:href="#DejaVuSans-41"/>
      <use xlink:href="#DejaVuSans-6e" x="68.408203"/>
      <use xlink:href="#DejaVuSans-67" x="131.787109"/>
      <use xlink:href="#DejaVuSans-6c" x="195.263672"/>
      <use xlink:href="#DejaVuSans-65" x="223.046875"/>
      <use xlink:href="#DejaVuSans-20" x="284.570312"/>
      <use xlink:href="#DejaVuSans-77" x="316.357422"/>
      <use xlink:href="#DejaVuSans-69" x="398.144531"/>
      <use xlink:href="#DejaVuSans-74" x="425.927734"/>
      <use xlink:href="#DejaVuSans-68" x="465.136719"/>
      <use xlink:href="#DejaVuSans-20" x="528.515625"/>
      <use xlink:href="#DejaVuSans-6e" x="560.302734"/>
      <use xlink:href="#DejaVuSans-6f" x="623.681641"/>
      <use xlink:href="#DejaVuSans-72" x="684.863281"/>
      <use xlink:href="#DejaVuSans-6d" x="724.226562"/>
      <use xlink:href="#DejaVuSans-61" x="821.638672"/>
      <use xlink:href="#DejaVuSans-6c" x="882.917969"/>
      <use xlink:href="#DejaVuSans-20" x="910.701172"/>
      <use xlink:href="#DejaVuSans-28" x="942.488281"/>
      <use xlink:href="#DejaVuSans-72" x="981.501953"/>
      <use xlink:href="#DejaVuSans-61" x="1022.615234"/>
      <use xlink:href="#DejaVuSans-64" x="1083.894531"/>
      <use xlink:href="#DejaVuSans-29" x="1147.371094"/>
     </g>
    </g>
   </g>
   <g id="matplotlib.axis_2">
    <g id="ytick_1">
     <g id="line2d_10">
      <defs>
       <path id="m1c2942dd1e" d="M 0 0 
L -3.5 0 
" style="stroke: #000000; stroke-width: 0.8"/>
      </defs>
      <g>
       <use xlink:href="#m1c2942dd1e" x="43.78125" y="273.312" style="stroke: #000000; stroke-width: 0.8"/>
      </g>
     </g>
     <g id="text_11">
      <!-- 0.0 -->
      <g transform="translate(20.878125 277.111219)scale(0.1 -0.1)">
       <use xlink:href="#DejaVuSans-30"/>
       <use xlink:href="#DejaVuSans-2e" x="63.623047"/>
       <use xlink:href="#DejaVuSans-30" x="95.410156"/>
      </g>
     </g>
    </g>
    <g id="ytick_2">
     <g id="line2d_11">
      <g>
       <use xlink:href="#m1c2942dd1e" x="43.78125" y="228.566365" style="stroke: #000000; stroke-width: 0.8"/>
      </g>
     </g>
     <g id="text_12">
      <!-- 0.2 -->
      <g transform="translate(20.878125 232.365584)scale(0.1 -0.1)">
       <use xlink:href="#DejaVuSans-30"/>
       <use xlink:href="#DejaVuSans-2e" x="63.623047"/>
       <use xlink:href="#DejaVuSans-32" x="95.410156"/>
      </g>
     </g>
    </g>
    <g id="ytick_3">
     <g id="line2d_12">
      <g>
       <use xlink:href="#m1c2942dd1e" x="43.78125" y="183.82073" style="stroke: #000000; stroke-width: 0.8"/>
      </g>
     </g>
     <g id="text_13">
      <!-- 0.4 -->
      <g transform="translate(20.878125 187.619949)scale(0.1 -0.1)">
       <use xlink:href="#DejaVuSans-30"/>
       <use xlink:href="#DejaVuSans-2e" x="63.623047"/>
       <use xlink:href="#DejaVuSans-34" x="95.410156"/>
      </g>
     </g>
    </g>
    <g id="ytick_4">
     <g id="line2d_13">
      <g>
       <use xlink:href="#m1c2942dd1e" x="43.78125" y="139.075095" style="stroke: #000000; stroke-width: 0.8"/>
      </g>
     </g>
     <g id="text_14">
      <!-- 0.6 -->
      <g transform="translate(20.878125 142.874314)scale(0.1 -0.1)">
       <use xlink:href="#DejaVuSans-30"/>
       <use xlink:href="#DejaVuSans-2e" x="63.623047"/>
       <use xlink:href="#DejaVuSans-36" x="95.410156"/>
      </g>
     </g>
    </g>
    <g id="ytick_5">
     <g id="line2d_14">
      <g>
       <use xlink:href="#m1c2942dd1e" x="43.78125" y="94.32946" style="stroke: #000000; stroke-width: 0.8"/>
      </g>
     </g>
     <g id="text_15">
      <!-- 0.8 -->
      <g transform="translate(20.878125 98.128679)scale(0.1 -0.1)">
       <use xlink:href="#DejaVuSans-30"/>
       <use xlink:href="#DejaVuSans-2e" x="63.623047"/>
       <use xlink:href="#DejaVuSans-38" x="95.410156"/>
      </g>
     </g>
    </g>
    <g id="ytick_6">
     <g id="line2d_15">
      <g>
       <use xlink:href="#m1c2942dd1e" x="43.78125" y="49.583825" style="stroke: #000000; stroke-width: 0.8"/>
      </g>
     </g>
     <g id="text_16">
      <!-- 1.0 -->
      <g transform="translate(20.878125 53.383044)scale(0.1 -0.1)">
       <use xlink:href="#DejaVuSans-31"/>
       <use xlink:href="#DejaVuSans-2e" x="63.623047"/>
       <use xlink:href="#DejaVuSans-30" x="95.410156"/>
      </g>
     </g>
    </g>
    <g id="text_17">
     <!-- Probability density -->
     <g transform="translate(14.798438 186.606781)rotate(-90)scale(0.1 -0.1)">
      <defs>
       <path id="DejaVuSans-50" d="M 1259 4147 
L 1259 2394 
L 2053 2394 
Q 2494 2394 2734 2622 
Q 2975 2850 2975 3272 
Q 2975 3691 2734 3919 
Q 2494 4147 2053 4147 
L 1259 4147 
z
M 628 4666 
L 2053 4666 
Q 2838 4666 3239 4311 
Q 3641 3956 3641 3272 
Q 3641 2581 3239 2228 
Q 2838 1875 2053 1875 
L 1259 1875 
L 1259 0 
L 628 0 
L 628 4666 
z
" transform="scale(0.015625)"/>
       <path id="DejaVuSans-62" d="M 3116 1747 
Q 3116 2381 2855 2742 
Q 2594 3103 2138 3103 
Q 1681 3103 1420 2742 
Q 1159 2381 1159 1747 
Q 1159 1113 1420 752 
Q 1681 391 2138 391 
Q 2594 391 2855 752 
Q 3116 1113 3116 1747 
z
M 1159 2969 
Q 1341 3281 1617 3432 
Q 1894 3584 2278 3584 
Q 2916 3584 3314 3078 
Q 3713 2572 3713 1747 
Q 3713 922 3314 415 
Q 2916 -91 2278 -91 
Q 1894 -91 1617 61 
Q 1341 213 1159 525 
L 1159 0 
L 581 0 
L 581 4863 
L 1159 4863 
L 1159 2969 
z
" transform="scale(0.015625)"/>
       <path id="DejaVuSans-79" d="M 2059 -325 
Q 1816 -950 1584 -1140 
Q 1353 -1331 966 -1331 
L 506 -1331 
L 506 -850 
L 844 -850 
Q 1081 -850 1212 -737 
Q 1344 -625 1503 -206 
L 1606 56 
L 191 3500 
L 800 3500 
L 1894 763 
L 2988 3500 
L 3597 3500 
L 2059 -325 
z
" transform="scale(0.015625)"/>
       <path id="DejaVuSans-73" d="M 2834 3397 
L 2834 2853 
Q 2591 2978 2328 3040 
Q 2066 3103 1784 3103 
Q 1356 3103 1142 2972 
Q 928 2841 928 2578 
Q 928 2378 1081 2264 
Q 1234 2150 1697 2047 
L 1894 2003 
Q 2506 1872 2764 1633 
Q 3022 1394 3022 966 
Q 3022 478 2636 193 
Q 2250 -91 1575 -91 
Q 1294 -91 989 -36 
Q 684 19 347 128 
L 347 722 
Q 666 556 975 473 
Q 1284 391 1588 391 
Q 1994 391 2212 530 
Q 2431 669 2431 922 
Q 2431 1156 2273 1281 
Q 2116 1406 1581 1522 
L 1381 1569 
Q 847 1681 609 1914 
Q 372 2147 372 2553 
Q 372 3047 722 3315 
Q 1072 3584 1716 3584 
Q 2034 3584 2315 3537 
Q 2597 3491 2834 3397 
z
" transform="scale(0.015625)"/>
      </defs>
      <use xlink:href="#DejaVuSans-50"/>
      <use xlink:href="#DejaVuSans-72" x="58.552734"/>
      <use xlink:href="#DejaVuSans-6f" x="97.416016"/>
      <use xlink:href="#DejaVuSans-62" x="158.597656"/>
      <use xlink:href="#DejaVuSans-61" x="222.074219"/>
      <use xlink:href="#DejaVuSans-62" x="283.353516"/>
      <use xlink:href="#DejaVuSans-69" x="346.830078"/>
      <use xlink:href="#DejaVuSans-6c" x="374.613281"/>
      <use xlink:href="#DejaVuSans-69" x="402.396484"/>
      <use xlink:href="#DejaVuSans-74" x="430.179688"/>
      <use xlink:href="#DejaVuSans-79" x="469.388672"/>
      <use xlink:href="#DejaVuSans-20" x="528.568359"/>
      <use xlink:href="#DejaVuSans-64" x="560.355469"/>
      <use xlink:href="#DejaVuSans-65" x="623.832031"/>
      <use xlink:href="#DejaVuSans-6e" x="685.355469"/>
      <use xlink:href="#DejaVuSans-73" x="748.734375"/>
      <use xlink:href="#DejaVuSans-69" x="800.833984"/>
      <use xlink:href="#DejaVuSans-74" x="828.617188"/>
      <use xlink:href="#DejaVuSans-79" x="867.826172"/>
     </g>
    </g>
   </g>
   <g id="line2d_16">
    <path d="M 60.013977 273.312 
L 79.837728 230.657184 
L 90.237073 208.809111 
L 99.01152 190.873673 
L 106.811029 175.425776 
L 113.960578 161.752704 
L 120.460169 149.784147 
L 126.63478 138.865768 
L 132.484411 128.96405 
L 138.009063 120.036479 
L 143.208736 112.033693 
L 148.408408 104.439126 
L 153.283101 97.707075 
L 158.157794 91.365692 
L 162.707507 85.811995 
L 167.257221 80.621674 
L 171.481954 76.136263 
L 175.706688 71.980347 
L 179.606442 68.442583 
L 183.506197 65.196533 
L 187.405951 62.246818 
L 190.980726 59.806831 
L 194.555501 57.622301 
L 198.130275 55.695843 
L 201.70505 54.029762 
L 205.279825 52.626051 
L 208.52962 51.579045 
L 211.779415 50.751302 
L 215.029211 50.143639 
L 218.279006 49.756657 
L 221.528801 49.59074 
L 224.778596 49.64605 
L 228.028392 49.922534 
L 231.278187 50.419918 
L 234.527982 51.13771 
L 237.777777 52.0752 
L 241.027573 53.231461 
L 244.277368 54.605351 
L 247.852143 56.366362 
L 251.426917 58.386947 
L 255.001692 60.664689 
L 258.576467 63.196862 
L 262.476221 66.245843 
L 266.375976 69.589665 
L 270.27573 73.223568 
L 274.500464 77.481632 
L 278.725198 82.066943 
L 282.949931 86.971839 
L 287.499645 92.602025 
L 292.049358 98.582428 
L 296.924051 105.365455 
L 301.798744 112.522113 
L 306.998416 120.54975 
L 312.523068 129.502301 
L 318.3727 139.42879 
L 324.547311 150.371359 
L 331.046901 162.363113 
L 337.871471 175.425776 
L 345.346 190.22002 
L 353.795468 207.463014 
L 363.544854 227.897988 
L 375.894076 254.338525 
L 384.668523 273.312 
L 384.668523 273.312 
" clip-path="url(#pd71c646142)" style="fill: none; stroke: #ff7f0e; stroke-width: 1.5; stroke-linecap: square"/>
   </g>
   <g id="patch_203">
    <path d="M 43.78125 273.312 
L 43.78125 7.2 
" style="fill: none; stroke: #000000; stroke-width: 0.8; stroke-linejoin: miter; stroke-linecap: square"/>
   </g>
   <g id="patch_204">
    <path d="M 400.90125 273.312 
L 400.90125 7.2 
" style="fill: none; stroke: #000000; stroke-width: 0.8; stroke-linejoin: miter; stroke-linecap: square"/>
   </g>
   <g id="patch_205">
    <path d="M 43.78125 273.312 
L 400.90125 273.312 
" style="fill: none; stroke: #000000; stroke-width: 0.8; stroke-linejoin: miter; stroke-linecap: square"/>
   </g>
   <g id="patch_206">
    <path d="M 43.78125 7.2 
L 400.90125 7.2 
" style="fill: none; stroke: #000000; stroke-width: 0.8; stroke-linejoin: miter; stroke-linecap: square"/>
   </g>
  </g>
 </g>
 <defs>
  <clipPath id="pd71c646142">
   <rect x="43.78125" y="7.2" width="357.12" height="266.112"/>
  </clipPath>
 </defs>
</svg>
