<?xml version="1.0" encoding="utf-8" standalone="no"?>
<!DOCTYPE svg PUBLIC "-//W3C//DTD SVG 1.1//EN"
  "http://www.w3.org/Graphics/SVG/1.1/DTD/svg11.dtd">
<svg xmlns:xlink="http://www.w3.org/1999/xlink" width="408.10125pt" height="310.86825pt" viewBox="0 0 408.10125 310.86825" xmlns="http://www.w3.org/2000/svg" version="1.1">
 <metadata>
  <rdf:RDF xmlns:dc="http://purl.org/dc/elements/1.1/" xmlns:cc="http://creativecommons.org/ns#" xmlns:rdf="http://www.w3.org/1999/02/22-rdf-syntax-ns#">
   <cc:Work>
    <dc:type rdf:resource="http://purl.org/dc/dcmitype/StillImage"/>
    <dc:date>2022-03-01T15:51:58.468138</dc:date>
    <dc:format>image/svg+xml</dc:format>
    <dc:creator>
     <cc:Agent>
      <dc:title>Matplotlib v3.5.1, https://matplotlib.org/</dc:title>
     </cc:Agent>
    </dc:creator>
   </cc:Work>
  </rdf:RDF>
 </metadata>
 <defs>
  <style type="text/css">*{stroke-linejoin: round; stroke-linecap: butt}</style>
 </defs>
 <g id="figure_1">
  <g id="patch_1">
   <path d="M 0 310.86825 
L 408.10125 310.86825 
L 408.10125 0 
L 0 0 
z
" style="fill: #ffffff"/>
  </g>
  <g id="axes_1">
   <g id="patch_2">
    <path d="M 43.78125 273.312 
L 400.90125 273.312 
L 400.90125 7.2 
L 43.78125 7.2 
z
" style="fill: #ffffff"/>
   </g>
   <g id="patch_3">
    <path d="M 60.973489 273.312 
L 62.581973 273.312 
L 62.581973 267.383579 
L 60.973489 267.383579 
z
" clip-path="url(#pd8d83ba8ef)" style="fill: #1f77b4"/>
   </g>
   <g id="patch_4">
    <path d="M 62.581973 273.312 
L 64.190457 273.312 
L 64.190457 265.901474 
L 62.581973 265.901474 
z
" clip-path="url(#pd8d83ba8ef)" style="fill: #1f77b4"/>
   </g>
   <g id="patch_5">
    <path d="M 64.190457 273.312 
L 65.798942 273.312 
L 65.798942 265.160421 
L 64.190457 265.160421 
z
" clip-path="url(#pd8d83ba8ef)" style="fill: #1f77b4"/>
   </g>
   <g id="patch_6">
    <path d="M 65.798942 273.312 
L 67.407426 273.312 
L 67.407426 251.080421 
L 65.798942 251.080421 
z
" clip-path="url(#pd8d83ba8ef)" style="fill: #1f77b4"/>
   </g>
   <g id="patch_7">
    <path d="M 67.407426 273.312 
L 69.015911 273.312 
L 69.015911 260.714105 
L 67.407426 260.714105 
z
" clip-path="url(#pd8d83ba8ef)" style="fill: #1f77b4"/>
   </g>
   <g id="patch_8">
    <path d="M 69.015911 273.312 
L 70.624395 273.312 
L 70.624395 256.267789 
L 69.015911 256.267789 
z
" clip-path="url(#pd8d83ba8ef)" style="fill: #1f77b4"/>
   </g>
   <g id="patch_9">
    <path d="M 70.624395 273.312 
L 72.23288 273.312 
L 72.23288 246.634105 
L 70.624395 246.634105 
z
" clip-path="url(#pd8d83ba8ef)" style="fill: #1f77b4"/>
   </g>
   <g id="patch_10">
    <path d="M 72.23288 273.312 
L 73.841364 273.312 
L 73.841364 248.857263 
L 72.23288 248.857263 
z
" clip-path="url(#pd8d83ba8ef)" style="fill: #1f77b4"/>
   </g>
   <g id="patch_11">
    <path d="M 73.841364 273.312 
L 75.449849 273.312 
L 75.449849 233.295158 
L 73.841364 233.295158 
z
" clip-path="url(#pd8d83ba8ef)" style="fill: #1f77b4"/>
   </g>
   <g id="patch_12">
    <path d="M 75.449849 273.312 
L 77.058333 273.312 
L 77.058333 230.330947 
L 75.449849 230.330947 
z
" clip-path="url(#pd8d83ba8ef)" style="fill: #1f77b4"/>
   </g>
   <g id="patch_13">
    <path d="M 77.058333 273.312 
L 78.666817 273.312 
L 78.666817 243.669895 
L 77.058333 243.669895 
z
" clip-path="url(#pd8d83ba8ef)" style="fill: #1f77b4"/>
   </g>
   <g id="patch_14">
    <path d="M 78.666817 273.312 
L 80.275302 273.312 
L 80.275302 227.366737 
L 78.666817 227.366737 
z
" clip-path="url(#pd8d83ba8ef)" style="fill: #1f77b4"/>
   </g>
   <g id="patch_15">
    <path d="M 80.275302 273.312 
L 81.883786 273.312 
L 81.883786 228.848842 
L 80.275302 228.848842 
z
" clip-path="url(#pd8d83ba8ef)" style="fill: #1f77b4"/>
   </g>
   <g id="patch_16">
    <path d="M 81.883786 273.312 
L 83.492271 273.312 
L 83.492271 212.545684 
L 81.883786 212.545684 
z
" clip-path="url(#pd8d83ba8ef)" style="fill: #1f77b4"/>
   </g>
   <g id="patch_17">
    <path d="M 83.492271 273.312 
L 85.100755 273.312 
L 85.100755 219.215158 
L 83.492271 219.215158 
z
" clip-path="url(#pd8d83ba8ef)" style="fill: #1f77b4"/>
   </g>
   <g id="patch_18">
    <path d="M 85.100755 273.312 
L 86.70924 273.312 
L 86.70924 213.286737 
L 85.100755 213.286737 
z
" clip-path="url(#pd8d83ba8ef)" style="fill: #1f77b4"/>
   </g>
   <g id="patch_19">
    <path d="M 86.70924 273.312 
L 88.317724 273.312 
L 88.317724 200.688842 
L 86.70924 200.688842 
z
" clip-path="url(#pd8d83ba8ef)" style="fill: #1f77b4"/>
   </g>
   <g id="patch_20">
    <path d="M 88.317724 273.312 
L 89.926209 273.312 
L 89.926209 210.322526 
L 88.317724 210.322526 
z
" clip-path="url(#pd8d83ba8ef)" style="fill: #1f77b4"/>
   </g>
   <g id="patch_21">
    <path d="M 89.926209 273.312 
L 91.534693 273.312 
L 91.534693 202.912 
L 89.926209 202.912 
z
" clip-path="url(#pd8d83ba8ef)" style="fill: #1f77b4"/>
   </g>
   <g id="patch_22">
    <path d="M 91.534693 273.312 
L 93.143177 273.312 
L 93.143177 209.581474 
L 91.534693 209.581474 
z
" clip-path="url(#pd8d83ba8ef)" style="fill: #1f77b4"/>
   </g>
   <g id="patch_23">
    <path d="M 93.143177 273.312 
L 94.751662 273.312 
L 94.751662 196.983579 
L 93.143177 196.983579 
z
" clip-path="url(#pd8d83ba8ef)" style="fill: #1f77b4"/>
   </g>
   <g id="patch_24">
    <path d="M 94.751662 273.312 
L 96.360146 273.312 
L 96.360146 199.206737 
L 94.751662 199.206737 
z
" clip-path="url(#pd8d83ba8ef)" style="fill: #1f77b4"/>
   </g>
   <g id="patch_25">
    <path d="M 96.360146 273.312 
L 97.968631 273.312 
L 97.968631 182.162526 
L 96.360146 182.162526 
z
" clip-path="url(#pd8d83ba8ef)" style="fill: #1f77b4"/>
   </g>
   <g id="patch_26">
    <path d="M 97.968631 273.312 
L 99.577115 273.312 
L 99.577115 211.063579 
L 97.968631 211.063579 
z
" clip-path="url(#pd8d83ba8ef)" style="fill: #1f77b4"/>
   </g>
   <g id="patch_27">
    <path d="M 99.577115 273.312 
L 101.1856 273.312 
L 101.1856 187.349895 
L 99.577115 187.349895 
z
" clip-path="url(#pd8d83ba8ef)" style="fill: #1f77b4"/>
   </g>
   <g id="patch_28">
    <path d="M 101.1856 273.312 
L 102.794084 273.312 
L 102.794084 171.046737 
L 101.1856 171.046737 
z
" clip-path="url(#pd8d83ba8ef)" style="fill: #1f77b4"/>
   </g>
   <g id="patch_29">
    <path d="M 102.794084 273.312 
L 104.402569 273.312 
L 104.402569 182.903579 
L 102.794084 182.903579 
z
" clip-path="url(#pd8d83ba8ef)" style="fill: #1f77b4"/>
   </g>
   <g id="patch_30">
    <path d="M 104.402569 273.312 
L 106.011053 273.312 
L 106.011053 179.198316 
L 104.402569 179.198316 
z
" clip-path="url(#pd8d83ba8ef)" style="fill: #1f77b4"/>
   </g>
   <g id="patch_31">
    <path d="M 106.011053 273.312 
L 107.619537 273.312 
L 107.619537 179.198316 
L 106.011053 179.198316 
z
" clip-path="url(#pd8d83ba8ef)" style="fill: #1f77b4"/>
   </g>
   <g id="patch_32">
    <path d="M 107.619537 273.312 
L 109.228022 273.312 
L 109.228022 158.448842 
L 107.619537 158.448842 
z
" clip-path="url(#pd8d83ba8ef)" style="fill: #1f77b4"/>
   </g>
   <g id="patch_33">
    <path d="M 109.228022 273.312 
L 110.836506 273.312 
L 110.836506 148.074105 
L 109.228022 148.074105 
z
" clip-path="url(#pd8d83ba8ef)" style="fill: #1f77b4"/>
   </g>
   <g id="patch_34">
    <path d="M 110.836506 273.312 
L 112.444991 273.312 
L 112.444991 155.484632 
L 110.836506 155.484632 
z
" clip-path="url(#pd8d83ba8ef)" style="fill: #1f77b4"/>
   </g>
   <g id="patch_35">
    <path d="M 112.444991 273.312 
L 114.053475 273.312 
L 114.053475 168.082526 
L 112.444991 168.082526 
z
" clip-path="url(#pd8d83ba8ef)" style="fill: #1f77b4"/>
   </g>
   <g id="patch_36">
    <path d="M 114.053475 273.312 
L 115.66196 273.312 
L 115.66196 156.966737 
L 114.053475 156.966737 
z
" clip-path="url(#pd8d83ba8ef)" style="fill: #1f77b4"/>
   </g>
   <g id="patch_37">
    <path d="M 115.66196 273.312 
L 117.270444 273.312 
L 117.270444 138.440421 
L 115.66196 138.440421 
z
" clip-path="url(#pd8d83ba8ef)" style="fill: #1f77b4"/>
   </g>
   <g id="patch_38">
    <path d="M 117.270444 273.312 
L 118.878929 273.312 
L 118.878929 157.707789 
L 117.270444 157.707789 
z
" clip-path="url(#pd8d83ba8ef)" style="fill: #1f77b4"/>
   </g>
   <g id="patch_39">
    <path d="M 118.878929 273.312 
L 120.487413 273.312 
L 120.487413 154.743579 
L 118.878929 154.743579 
z
" clip-path="url(#pd8d83ba8ef)" style="fill: #1f77b4"/>
   </g>
   <g id="patch_40">
    <path d="M 120.487413 273.312 
L 122.095897 273.312 
L 122.095897 141.404632 
L 120.487413 141.404632 
z
" clip-path="url(#pd8d83ba8ef)" style="fill: #1f77b4"/>
   </g>
   <g id="patch_41">
    <path d="M 122.095897 273.312 
L 123.704382 273.312 
L 123.704382 125.842526 
L 122.095897 125.842526 
z
" clip-path="url(#pd8d83ba8ef)" style="fill: #1f77b4"/>
   </g>
   <g id="patch_42">
    <path d="M 123.704382 273.312 
L 125.312866 273.312 
L 125.312866 136.217263 
L 123.704382 136.217263 
z
" clip-path="url(#pd8d83ba8ef)" style="fill: #1f77b4"/>
   </g>
   <g id="patch_43">
    <path d="M 125.312866 273.312 
L 126.921351 273.312 
L 126.921351 145.109895 
L 125.312866 145.109895 
z
" clip-path="url(#pd8d83ba8ef)" style="fill: #1f77b4"/>
   </g>
   <g id="patch_44">
    <path d="M 126.921351 273.312 
L 128.529835 273.312 
L 128.529835 136.958316 
L 126.921351 136.958316 
z
" clip-path="url(#pd8d83ba8ef)" style="fill: #1f77b4"/>
   </g>
   <g id="patch_45">
    <path d="M 128.529835 273.312 
L 130.13832 273.312 
L 130.13832 130.288842 
L 128.529835 130.288842 
z
" clip-path="url(#pd8d83ba8ef)" style="fill: #1f77b4"/>
   </g>
   <g id="patch_46">
    <path d="M 130.13832 273.312 
L 131.746804 273.312 
L 131.746804 136.958316 
L 130.13832 136.958316 
z
" clip-path="url(#pd8d83ba8ef)" style="fill: #1f77b4"/>
   </g>
   <g id="patch_47">
    <path d="M 131.746804 273.312 
L 133.355289 273.312 
L 133.355289 122.137263 
L 131.746804 122.137263 
z
" clip-path="url(#pd8d83ba8ef)" style="fill: #1f77b4"/>
   </g>
   <g id="patch_48">
    <path d="M 133.355289 273.312 
L 134.963773 273.312 
L 134.963773 110.280421 
L 133.355289 110.280421 
z
" clip-path="url(#pd8d83ba8ef)" style="fill: #1f77b4"/>
   </g>
   <g id="patch_49">
    <path d="M 134.963773 273.312 
L 136.572258 273.312 
L 136.572258 105.834105 
L 134.963773 105.834105 
z
" clip-path="url(#pd8d83ba8ef)" style="fill: #1f77b4"/>
   </g>
   <g id="patch_50">
    <path d="M 136.572258 273.312 
L 138.180742 273.312 
L 138.180742 94.718316 
L 136.572258 94.718316 
z
" clip-path="url(#pd8d83ba8ef)" style="fill: #1f77b4"/>
   </g>
   <g id="patch_51">
    <path d="M 138.180742 273.312 
L 139.789226 273.312 
L 139.789226 85.084632 
L 138.180742 85.084632 
z
" clip-path="url(#pd8d83ba8ef)" style="fill: #1f77b4"/>
   </g>
   <g id="patch_52">
    <path d="M 139.789226 273.312 
L 141.397711 273.312 
L 141.397711 119.173053 
L 139.789226 119.173053 
z
" clip-path="url(#pd8d83ba8ef)" style="fill: #1f77b4"/>
   </g>
   <g id="patch_53">
    <path d="M 141.397711 273.312 
L 143.006195 273.312 
L 143.006195 116.949895 
L 141.397711 116.949895 
z
" clip-path="url(#pd8d83ba8ef)" style="fill: #1f77b4"/>
   </g>
   <g id="patch_54">
    <path d="M 143.006195 273.312 
L 144.61468 273.312 
L 144.61468 88.789895 
L 143.006195 88.789895 
z
" clip-path="url(#pd8d83ba8ef)" style="fill: #1f77b4"/>
   </g>
   <g id="patch_55">
    <path d="M 144.61468 273.312 
L 146.223164 273.312 
L 146.223164 104.352 
L 144.61468 104.352 
z
" clip-path="url(#pd8d83ba8ef)" style="fill: #1f77b4"/>
   </g>
   <g id="patch_56">
    <path d="M 146.223164 273.312 
L 147.831649 273.312 
L 147.831649 113.985684 
L 146.223164 113.985684 
z
" clip-path="url(#pd8d83ba8ef)" style="fill: #1f77b4"/>
   </g>
   <g id="patch_57">
    <path d="M 147.831649 273.312 
L 149.440133 273.312 
L 149.440133 105.834105 
L 147.831649 105.834105 
z
" clip-path="url(#pd8d83ba8ef)" style="fill: #1f77b4"/>
   </g>
   <g id="patch_58">
    <path d="M 149.440133 273.312 
L 151.048618 273.312 
L 151.048618 96.941474 
L 149.440133 96.941474 
z
" clip-path="url(#pd8d83ba8ef)" style="fill: #1f77b4"/>
   </g>
   <g id="patch_59">
    <path d="M 151.048618 273.312 
L 152.657102 273.312 
L 152.657102 101.387789 
L 151.048618 101.387789 
z
" clip-path="url(#pd8d83ba8ef)" style="fill: #1f77b4"/>
   </g>
   <g id="patch_60">
    <path d="M 152.657102 273.312 
L 154.265586 273.312 
L 154.265586 84.343579 
L 152.657102 84.343579 
z
" clip-path="url(#pd8d83ba8ef)" style="fill: #1f77b4"/>
   </g>
   <g id="patch_61">
    <path d="M 154.265586 273.312 
L 155.874071 273.312 
L 155.874071 109.539368 
L 154.265586 109.539368 
z
" clip-path="url(#pd8d83ba8ef)" style="fill: #1f77b4"/>
   </g>
   <g id="patch_62">
    <path d="M 155.874071 273.312 
L 157.482555 273.312 
L 157.482555 59.888842 
L 155.874071 59.888842 
z
" clip-path="url(#pd8d83ba8ef)" style="fill: #1f77b4"/>
   </g>
   <g id="patch_63">
    <path d="M 157.482555 273.312 
L 159.09104 273.312 
L 159.09104 77.674105 
L 157.482555 77.674105 
z
" clip-path="url(#pd8d83ba8ef)" style="fill: #1f77b4"/>
   </g>
   <g id="patch_64">
    <path d="M 159.09104 273.312 
L 160.699524 273.312 
L 160.699524 71.004632 
L 159.09104 71.004632 
z
" clip-path="url(#pd8d83ba8ef)" style="fill: #1f77b4"/>
   </g>
   <g id="patch_65">
    <path d="M 160.699524 273.312 
L 162.308009 273.312 
L 162.308009 84.343579 
L 160.699524 84.343579 
z
" clip-path="url(#pd8d83ba8ef)" style="fill: #1f77b4"/>
   </g>
   <g id="patch_66">
    <path d="M 162.308009 273.312 
L 163.916493 273.312 
L 163.916493 86.566737 
L 162.308009 86.566737 
z
" clip-path="url(#pd8d83ba8ef)" style="fill: #1f77b4"/>
   </g>
   <g id="patch_67">
    <path d="M 163.916493 273.312 
L 165.524978 273.312 
L 165.524978 88.789895 
L 163.916493 88.789895 
z
" clip-path="url(#pd8d83ba8ef)" style="fill: #1f77b4"/>
   </g>
   <g id="patch_68">
    <path d="M 165.524978 273.312 
L 167.133462 273.312 
L 167.133462 91.013053 
L 165.524978 91.013053 
z
" clip-path="url(#pd8d83ba8ef)" style="fill: #1f77b4"/>
   </g>
   <g id="patch_69">
    <path d="M 167.133462 273.312 
L 168.741946 273.312 
L 168.741946 74.709895 
L 167.133462 74.709895 
z
" clip-path="url(#pd8d83ba8ef)" style="fill: #1f77b4"/>
   </g>
   <g id="patch_70">
    <path d="M 168.741946 273.312 
L 170.350431 273.312 
L 170.350431 83.602526 
L 168.741946 83.602526 
z
" clip-path="url(#pd8d83ba8ef)" style="fill: #1f77b4"/>
   </g>
   <g id="patch_71">
    <path d="M 170.350431 273.312 
L 171.958915 273.312 
L 171.958915 51.737263 
L 170.350431 51.737263 
z
" clip-path="url(#pd8d83ba8ef)" style="fill: #1f77b4"/>
   </g>
   <g id="patch_72">
    <path d="M 171.958915 273.312 
L 173.5674 273.312 
L 173.5674 65.076211 
L 171.958915 65.076211 
z
" clip-path="url(#pd8d83ba8ef)" style="fill: #1f77b4"/>
   </g>
   <g id="patch_73">
    <path d="M 173.5674 273.312 
L 175.175884 273.312 
L 175.175884 65.076211 
L 173.5674 65.076211 
z
" clip-path="url(#pd8d83ba8ef)" style="fill: #1f77b4"/>
   </g>
   <g id="patch_74">
    <path d="M 175.175884 273.312 
L 176.784369 273.312 
L 176.784369 65.817263 
L 175.175884 65.817263 
z
" clip-path="url(#pd8d83ba8ef)" style="fill: #1f77b4"/>
   </g>
   <g id="patch_75">
    <path d="M 176.784369 273.312 
L 178.392853 273.312 
L 178.392853 74.709895 
L 176.784369 74.709895 
z
" clip-path="url(#pd8d83ba8ef)" style="fill: #1f77b4"/>
   </g>
   <g id="patch_76">
    <path d="M 178.392853 273.312 
L 180.001338 273.312 
L 180.001338 68.781474 
L 178.392853 68.781474 
z
" clip-path="url(#pd8d83ba8ef)" style="fill: #1f77b4"/>
   </g>
   <g id="patch_77">
    <path d="M 180.001338 273.312 
L 181.609822 273.312 
L 181.609822 45.808842 
L 180.001338 45.808842 
z
" clip-path="url(#pd8d83ba8ef)" style="fill: #1f77b4"/>
   </g>
   <g id="patch_78">
    <path d="M 181.609822 273.312 
L 183.218306 273.312 
L 183.218306 76.192 
L 181.609822 76.192 
z
" clip-path="url(#pd8d83ba8ef)" style="fill: #1f77b4"/>
   </g>
   <g id="patch_79">
    <path d="M 183.218306 273.312 
L 184.826791 273.312 
L 184.826791 38.398316 
L 183.218306 38.398316 
z
" clip-path="url(#pd8d83ba8ef)" style="fill: #1f77b4"/>
   </g>
   <g id="patch_80">
    <path d="M 184.826791 273.312 
L 186.435275 273.312 
L 186.435275 51.737263 
L 184.826791 51.737263 
z
" clip-path="url(#pd8d83ba8ef)" style="fill: #1f77b4"/>
   </g>
   <g id="patch_81">
    <path d="M 186.435275 273.312 
L 188.04376 273.312 
L 188.04376 69.522526 
L 186.435275 69.522526 
z
" clip-path="url(#pd8d83ba8ef)" style="fill: #1f77b4"/>
   </g>
   <g id="patch_82">
    <path d="M 188.04376 273.312 
L 189.652244 273.312 
L 189.652244 42.844632 
L 188.04376 42.844632 
z
" clip-path="url(#pd8d83ba8ef)" style="fill: #1f77b4"/>
   </g>
   <g id="patch_83">
    <path d="M 189.652244 273.312 
L 191.260729 273.312 
L 191.260729 74.709895 
L 189.652244 74.709895 
z
" clip-path="url(#pd8d83ba8ef)" style="fill: #1f77b4"/>
   </g>
   <g id="patch_84">
    <path d="M 191.260729 273.312 
L 192.869213 273.312 
L 192.869213 57.665684 
L 191.260729 57.665684 
z
" clip-path="url(#pd8d83ba8ef)" style="fill: #1f77b4"/>
   </g>
   <g id="patch_85">
    <path d="M 192.869213 273.312 
L 194.477698 273.312 
L 194.477698 62.853053 
L 192.869213 62.853053 
z
" clip-path="url(#pd8d83ba8ef)" style="fill: #1f77b4"/>
   </g>
   <g id="patch_86">
    <path d="M 194.477698 273.312 
L 196.086182 273.312 
L 196.086182 54.701474 
L 194.477698 54.701474 
z
" clip-path="url(#pd8d83ba8ef)" style="fill: #1f77b4"/>
   </g>
   <g id="patch_87">
    <path d="M 196.086182 273.312 
L 197.694666 273.312 
L 197.694666 53.219368 
L 196.086182 53.219368 
z
" clip-path="url(#pd8d83ba8ef)" style="fill: #1f77b4"/>
   </g>
   <g id="patch_88">
    <path d="M 197.694666 273.312 
L 199.303151 273.312 
L 199.303151 45.808842 
L 197.694666 45.808842 
z
" clip-path="url(#pd8d83ba8ef)" style="fill: #1f77b4"/>
   </g>
   <g id="patch_89">
    <path d="M 199.303151 273.312 
L 200.911635 273.312 
L 200.911635 31.728842 
L 199.303151 31.728842 
z
" clip-path="url(#pd8d83ba8ef)" style="fill: #1f77b4"/>
   </g>
   <g id="patch_90">
    <path d="M 200.911635 273.312 
L 202.52012 273.312 
L 202.52012 62.112 
L 200.911635 62.112 
z
" clip-path="url(#pd8d83ba8ef)" style="fill: #1f77b4"/>
   </g>
   <g id="patch_91">
    <path d="M 202.52012 273.312 
L 204.128604 273.312 
L 204.128604 56.924632 
L 202.52012 56.924632 
z
" clip-path="url(#pd8d83ba8ef)" style="fill: #1f77b4"/>
   </g>
   <g id="patch_92">
    <path d="M 204.128604 273.312 
L 205.737089 273.312 
L 205.737089 37.657263 
L 204.128604 37.657263 
z
" clip-path="url(#pd8d83ba8ef)" style="fill: #1f77b4"/>
   </g>
   <g id="patch_93">
    <path d="M 205.737089 273.312 
L 207.345573 273.312 
L 207.345573 76.192 
L 205.737089 76.192 
z
" clip-path="url(#pd8d83ba8ef)" style="fill: #1f77b4"/>
   </g>
   <g id="patch_94">
    <path d="M 207.345573 273.312 
L 208.954058 273.312 
L 208.954058 63.594105 
L 207.345573 63.594105 
z
" clip-path="url(#pd8d83ba8ef)" style="fill: #1f77b4"/>
   </g>
   <g id="patch_95">
    <path d="M 208.954058 273.312 
L 210.562542 273.312 
L 210.562542 42.844632 
L 208.954058 42.844632 
z
" clip-path="url(#pd8d83ba8ef)" style="fill: #1f77b4"/>
   </g>
   <g id="patch_96">
    <path d="M 210.562542 273.312 
L 212.171027 273.312 
L 212.171027 56.183579 
L 210.562542 56.183579 
z
" clip-path="url(#pd8d83ba8ef)" style="fill: #1f77b4"/>
   </g>
   <g id="patch_97">
    <path d="M 212.171027 273.312 
L 213.779511 273.312 
L 213.779511 44.326737 
L 212.171027 44.326737 
z
" clip-path="url(#pd8d83ba8ef)" style="fill: #1f77b4"/>
   </g>
   <g id="patch_98">
    <path d="M 213.779511 273.312 
L 215.387995 273.312 
L 215.387995 34.693053 
L 213.779511 34.693053 
z
" clip-path="url(#pd8d83ba8ef)" style="fill: #1f77b4"/>
   </g>
   <g id="patch_99">
    <path d="M 215.387995 273.312 
L 216.99648 273.312 
L 216.99648 48.773053 
L 215.387995 48.773053 
z
" clip-path="url(#pd8d83ba8ef)" style="fill: #1f77b4"/>
   </g>
   <g id="patch_100">
    <path d="M 216.99648 273.312 
L 218.604964 273.312 
L 218.604964 48.032 
L 216.99648 48.032 
z
" clip-path="url(#pd8d83ba8ef)" style="fill: #1f77b4"/>
   </g>
   <g id="patch_101">
    <path d="M 218.604964 273.312 
L 220.213449 273.312 
L 220.213449 47.290947 
L 218.604964 47.290947 
z
" clip-path="url(#pd8d83ba8ef)" style="fill: #1f77b4"/>
   </g>
   <g id="patch_102">
    <path d="M 220.213449 273.312 
L 221.821933 273.312 
L 221.821933 29.505684 
L 220.213449 29.505684 
z
" clip-path="url(#pd8d83ba8ef)" style="fill: #1f77b4"/>
   </g>
   <g id="patch_103">
    <path d="M 221.821933 273.312 
L 223.430418 273.312 
L 223.430418 50.255158 
L 221.821933 50.255158 
z
" clip-path="url(#pd8d83ba8ef)" style="fill: #1f77b4"/>
   </g>
   <g id="patch_104">
    <path d="M 223.430418 273.312 
L 225.038902 273.312 
L 225.038902 33.210947 
L 223.430418 33.210947 
z
" clip-path="url(#pd8d83ba8ef)" style="fill: #1f77b4"/>
   </g>
   <g id="patch_105">
    <path d="M 225.038902 273.312 
L 226.647387 273.312 
L 226.647387 19.872 
L 225.038902 19.872 
z
" clip-path="url(#pd8d83ba8ef)" style="fill: #1f77b4"/>
   </g>
   <g id="patch_106">
    <path d="M 226.647387 273.312 
L 228.255871 273.312 
L 228.255871 39.880421 
L 226.647387 39.880421 
z
" clip-path="url(#pd8d83ba8ef)" style="fill: #1f77b4"/>
   </g>
   <g id="patch_107">
    <path d="M 228.255871 273.312 
L 229.864355 273.312 
L 229.864355 43.585684 
L 228.255871 43.585684 
z
" clip-path="url(#pd8d83ba8ef)" style="fill: #1f77b4"/>
   </g>
   <g id="patch_108">
    <path d="M 229.864355 273.312 
L 231.47284 273.312 
L 231.47284 48.032 
L 229.864355 48.032 
z
" clip-path="url(#pd8d83ba8ef)" style="fill: #1f77b4"/>
   </g>
   <g id="patch_109">
    <path d="M 231.47284 273.312 
L 233.081324 273.312 
L 233.081324 74.709895 
L 231.47284 74.709895 
z
" clip-path="url(#pd8d83ba8ef)" style="fill: #1f77b4"/>
   </g>
   <g id="patch_110">
    <path d="M 233.081324 273.312 
L 234.689809 273.312 
L 234.689809 40.621474 
L 233.081324 40.621474 
z
" clip-path="url(#pd8d83ba8ef)" style="fill: #1f77b4"/>
   </g>
   <g id="patch_111">
    <path d="M 234.689809 273.312 
L 236.298293 273.312 
L 236.298293 48.032 
L 234.689809 48.032 
z
" clip-path="url(#pd8d83ba8ef)" style="fill: #1f77b4"/>
   </g>
   <g id="patch_112">
    <path d="M 236.298293 273.312 
L 237.906778 273.312 
L 237.906778 47.290947 
L 236.298293 47.290947 
z
" clip-path="url(#pd8d83ba8ef)" style="fill: #1f77b4"/>
   </g>
   <g id="patch_113">
    <path d="M 237.906778 273.312 
L 239.515262 273.312 
L 239.515262 42.103579 
L 237.906778 42.103579 
z
" clip-path="url(#pd8d83ba8ef)" style="fill: #1f77b4"/>
   </g>
   <g id="patch_114">
    <path d="M 239.515262 273.312 
L 241.123747 273.312 
L 241.123747 42.103579 
L 239.515262 42.103579 
z
" clip-path="url(#pd8d83ba8ef)" style="fill: #1f77b4"/>
   </g>
   <g id="patch_115">
    <path d="M 241.123747 273.312 
L 242.732231 273.312 
L 242.732231 40.621474 
L 241.123747 40.621474 
z
" clip-path="url(#pd8d83ba8ef)" style="fill: #1f77b4"/>
   </g>
   <g id="patch_116">
    <path d="M 242.732231 273.312 
L 244.340715 273.312 
L 244.340715 62.112 
L 242.732231 62.112 
z
" clip-path="url(#pd8d83ba8ef)" style="fill: #1f77b4"/>
   </g>
   <g id="patch_117">
    <path d="M 244.340715 273.312 
L 245.9492 273.312 
L 245.9492 64.335158 
L 244.340715 64.335158 
z
" clip-path="url(#pd8d83ba8ef)" style="fill: #1f77b4"/>
   </g>
   <g id="patch_118">
    <path d="M 245.9492 273.312 
L 247.557684 273.312 
L 247.557684 56.183579 
L 245.9492 56.183579 
z
" clip-path="url(#pd8d83ba8ef)" style="fill: #1f77b4"/>
   </g>
   <g id="patch_119">
    <path d="M 247.557684 273.312 
L 249.166169 273.312 
L 249.166169 55.442526 
L 247.557684 55.442526 
z
" clip-path="url(#pd8d83ba8ef)" style="fill: #1f77b4"/>
   </g>
   <g id="patch_120">
    <path d="M 249.166169 273.312 
L 250.774653 273.312 
L 250.774653 42.844632 
L 249.166169 42.844632 
z
" clip-path="url(#pd8d83ba8ef)" style="fill: #1f77b4"/>
   </g>
   <g id="patch_121">
    <path d="M 250.774653 273.312 
L 252.383138 273.312 
L 252.383138 48.032 
L 250.774653 48.032 
z
" clip-path="url(#pd8d83ba8ef)" style="fill: #1f77b4"/>
   </g>
   <g id="patch_122">
    <path d="M 252.383138 273.312 
L 253.991622 273.312 
L 253.991622 60.629895 
L 252.383138 60.629895 
z
" clip-path="url(#pd8d83ba8ef)" style="fill: #1f77b4"/>
   </g>
   <g id="patch_123">
    <path d="M 253.991622 273.312 
L 255.600107 273.312 
L 255.600107 42.844632 
L 253.991622 42.844632 
z
" clip-path="url(#pd8d83ba8ef)" style="fill: #1f77b4"/>
   </g>
   <g id="patch_124">
    <path d="M 255.600107 273.312 
L 257.208591 273.312 
L 257.208591 38.398316 
L 255.600107 38.398316 
z
" clip-path="url(#pd8d83ba8ef)" style="fill: #1f77b4"/>
   </g>
   <g id="patch_125">
    <path d="M 257.208591 273.312 
L 258.817075 273.312 
L 258.817075 65.817263 
L 257.208591 65.817263 
z
" clip-path="url(#pd8d83ba8ef)" style="fill: #1f77b4"/>
   </g>
   <g id="patch_126">
    <path d="M 258.817075 273.312 
L 260.42556 273.312 
L 260.42556 39.139368 
L 258.817075 39.139368 
z
" clip-path="url(#pd8d83ba8ef)" style="fill: #1f77b4"/>
   </g>
   <g id="patch_127">
    <path d="M 260.42556 273.312 
L 262.034044 273.312 
L 262.034044 65.076211 
L 260.42556 65.076211 
z
" clip-path="url(#pd8d83ba8ef)" style="fill: #1f77b4"/>
   </g>
   <g id="patch_128">
    <path d="M 262.034044 273.312 
L 263.642529 273.312 
L 263.642529 61.370947 
L 262.034044 61.370947 
z
" clip-path="url(#pd8d83ba8ef)" style="fill: #1f77b4"/>
   </g>
   <g id="patch_129">
    <path d="M 263.642529 273.312 
L 265.251013 273.312 
L 265.251013 37.657263 
L 263.642529 37.657263 
z
" clip-path="url(#pd8d83ba8ef)" style="fill: #1f77b4"/>
   </g>
   <g id="patch_130">
    <path d="M 265.251013 273.312 
L 266.859498 273.312 
L 266.859498 84.343579 
L 265.251013 84.343579 
z
" clip-path="url(#pd8d83ba8ef)" style="fill: #1f77b4"/>
   </g>
   <g id="patch_131">
    <path d="M 266.859498 273.312 
L 268.467982 273.312 
L 268.467982 68.781474 
L 266.859498 68.781474 
z
" clip-path="url(#pd8d83ba8ef)" style="fill: #1f77b4"/>
   </g>
   <g id="patch_132">
    <path d="M 268.467982 273.312 
L 270.076467 273.312 
L 270.076467 48.032 
L 268.467982 48.032 
z
" clip-path="url(#pd8d83ba8ef)" style="fill: #1f77b4"/>
   </g>
   <g id="patch_133">
    <path d="M 270.076467 273.312 
L 271.684951 273.312 
L 271.684951 59.888842 
L 270.076467 59.888842 
z
" clip-path="url(#pd8d83ba8ef)" style="fill: #1f77b4"/>
   </g>
   <g id="patch_134">
    <path d="M 271.684951 273.312 
L 273.293435 273.312 
L 273.293435 80.638316 
L 271.684951 80.638316 
z
" clip-path="url(#pd8d83ba8ef)" style="fill: #1f77b4"/>
   </g>
   <g id="patch_135">
    <path d="M 273.293435 273.312 
L 274.90192 273.312 
L 274.90192 79.156211 
L 273.293435 79.156211 
z
" clip-path="url(#pd8d83ba8ef)" style="fill: #1f77b4"/>
   </g>
   <g id="patch_136">
    <path d="M 274.90192 273.312 
L 276.510404 273.312 
L 276.510404 84.343579 
L 274.90192 84.343579 
z
" clip-path="url(#pd8d83ba8ef)" style="fill: #1f77b4"/>
   </g>
   <g id="patch_137">
    <path d="M 276.510404 273.312 
L 278.118889 273.312 
L 278.118889 83.602526 
L 276.510404 83.602526 
z
" clip-path="url(#pd8d83ba8ef)" style="fill: #1f77b4"/>
   </g>
   <g id="patch_138">
    <path d="M 278.118889 273.312 
L 279.727373 273.312 
L 279.727373 85.825684 
L 278.118889 85.825684 
z
" clip-path="url(#pd8d83ba8ef)" style="fill: #1f77b4"/>
   </g>
   <g id="patch_139">
    <path d="M 279.727373 273.312 
L 281.335858 273.312 
L 281.335858 74.709895 
L 279.727373 74.709895 
z
" clip-path="url(#pd8d83ba8ef)" style="fill: #1f77b4"/>
   </g>
   <g id="patch_140">
    <path d="M 281.335858 273.312 
L 282.944342 273.312 
L 282.944342 74.709895 
L 281.335858 74.709895 
z
" clip-path="url(#pd8d83ba8ef)" style="fill: #1f77b4"/>
   </g>
   <g id="patch_141">
    <path d="M 282.944342 273.312 
L 284.552827 273.312 
L 284.552827 81.379368 
L 282.944342 81.379368 
z
" clip-path="url(#pd8d83ba8ef)" style="fill: #1f77b4"/>
   </g>
   <g id="patch_142">
    <path d="M 284.552827 273.312 
L 286.161311 273.312 
L 286.161311 91.754105 
L 284.552827 91.754105 
z
" clip-path="url(#pd8d83ba8ef)" style="fill: #1f77b4"/>
   </g>
   <g id="patch_143">
    <path d="M 286.161311 273.312 
L 287.769796 273.312 
L 287.769796 93.977263 
L 286.161311 93.977263 
z
" clip-path="url(#pd8d83ba8ef)" style="fill: #1f77b4"/>
   </g>
   <g id="patch_144">
    <path d="M 287.769796 273.312 
L 289.37828 273.312 
L 289.37828 103.610947 
L 287.769796 103.610947 
z
" clip-path="url(#pd8d83ba8ef)" style="fill: #1f77b4"/>
   </g>
   <g id="patch_145">
    <path d="M 289.37828 273.312 
L 290.986764 273.312 
L 290.986764 81.379368 
L 289.37828 81.379368 
z
" clip-path="url(#pd8d83ba8ef)" style="fill: #1f77b4"/>
   </g>
   <g id="patch_146">
    <path d="M 290.986764 273.312 
L 292.595249 273.312 
L 292.595249 79.156211 
L 290.986764 79.156211 
z
" clip-path="url(#pd8d83ba8ef)" style="fill: #1f77b4"/>
   </g>
   <g id="patch_147">
    <path d="M 292.595249 273.312 
L 294.203733 273.312 
L 294.203733 105.093053 
L 292.595249 105.093053 
z
" clip-path="url(#pd8d83ba8ef)" style="fill: #1f77b4"/>
   </g>
   <g id="patch_148">
    <path d="M 294.203733 273.312 
L 295.812218 273.312 
L 295.812218 82.120421 
L 294.203733 82.120421 
z
" clip-path="url(#pd8d83ba8ef)" style="fill: #1f77b4"/>
   </g>
   <g id="patch_149">
    <path d="M 295.812218 273.312 
L 297.420702 273.312 
L 297.420702 115.467789 
L 295.812218 115.467789 
z
" clip-path="url(#pd8d83ba8ef)" style="fill: #1f77b4"/>
   </g>
   <g id="patch_150">
    <path d="M 297.420702 273.312 
L 299.029187 273.312 
L 299.029187 95.459368 
L 297.420702 95.459368 
z
" clip-path="url(#pd8d83ba8ef)" style="fill: #1f77b4"/>
   </g>
   <g id="patch_151">
    <path d="M 299.029187 273.312 
L 300.637671 273.312 
L 300.637671 102.128842 
L 299.029187 102.128842 
z
" clip-path="url(#pd8d83ba8ef)" style="fill: #1f77b4"/>
   </g>
   <g id="patch_152">
    <path d="M 300.637671 273.312 
L 302.246156 273.312 
L 302.246156 94.718316 
L 300.637671 94.718316 
z
" clip-path="url(#pd8d83ba8ef)" style="fill: #1f77b4"/>
   </g>
   <g id="patch_153">
    <path d="M 302.246156 273.312 
L 303.85464 273.312 
L 303.85464 88.789895 
L 302.246156 88.789895 
z
" clip-path="url(#pd8d83ba8ef)" style="fill: #1f77b4"/>
   </g>
   <g id="patch_154">
    <path d="M 303.85464 273.312 
L 305.463124 273.312 
L 305.463124 102.128842 
L 303.85464 102.128842 
z
" clip-path="url(#pd8d83ba8ef)" style="fill: #1f77b4"/>
   </g>
   <g id="patch_155">
    <path d="M 305.463124 273.312 
L 307.071609 273.312 
L 307.071609 118.432 
L 305.463124 118.432 
z
" clip-path="url(#pd8d83ba8ef)" style="fill: #1f77b4"/>
   </g>
   <g id="patch_156">
    <path d="M 307.071609 273.312 
L 308.680093 273.312 
L 308.680093 111.021474 
L 307.071609 111.021474 
z
" clip-path="url(#pd8d83ba8ef)" style="fill: #1f77b4"/>
   </g>
   <g id="patch_157">
    <path d="M 308.680093 273.312 
L 310.288578 273.312 
L 310.288578 112.503579 
L 308.680093 112.503579 
z
" clip-path="url(#pd8d83ba8ef)" style="fill: #1f77b4"/>
   </g>
   <g id="patch_158">
    <path d="M 310.288578 273.312 
L 311.897062 273.312 
L 311.897062 127.324632 
L 310.288578 127.324632 
z
" clip-path="url(#pd8d83ba8ef)" style="fill: #1f77b4"/>
   </g>
   <g id="patch_159">
    <path d="M 311.897062 273.312 
L 313.505547 273.312 
L 313.505547 99.905684 
L 311.897062 99.905684 
z
" clip-path="url(#pd8d83ba8ef)" style="fill: #1f77b4"/>
   </g>
   <g id="patch_160">
    <path d="M 313.505547 273.312 
L 315.114031 273.312 
L 315.114031 119.914105 
L 313.505547 119.914105 
z
" clip-path="url(#pd8d83ba8ef)" style="fill: #1f77b4"/>
   </g>
   <g id="patch_161">
    <path d="M 315.114031 273.312 
L 316.722516 273.312 
L 316.722516 128.806737 
L 315.114031 128.806737 
z
" clip-path="url(#pd8d83ba8ef)" style="fill: #1f77b4"/>
   </g>
   <g id="patch_162">
    <path d="M 316.722516 273.312 
L 318.331 273.312 
L 318.331 141.404632 
L 316.722516 141.404632 
z
" clip-path="url(#pd8d83ba8ef)" style="fill: #1f77b4"/>
   </g>
   <g id="patch_163">
    <path d="M 318.331 273.312 
L 319.939484 273.312 
L 319.939484 142.886737 
L 318.331 142.886737 
z
" clip-path="url(#pd8d83ba8ef)" style="fill: #1f77b4"/>
   </g>
   <g id="patch_164">
    <path d="M 319.939484 273.312 
L 321.547969 273.312 
L 321.547969 145.850947 
L 319.939484 145.850947 
z
" clip-path="url(#pd8d83ba8ef)" style="fill: #1f77b4"/>
   </g>
   <g id="patch_165">
    <path d="M 321.547969 273.312 
L 323.156453 273.312 
L 323.156453 152.520421 
L 321.547969 152.520421 
z
" clip-path="url(#pd8d83ba8ef)" style="fill: #1f77b4"/>
   </g>
   <g id="patch_166">
    <path d="M 323.156453 273.312 
L 324.764938 273.312 
L 324.764938 143.627789 
L 323.156453 143.627789 
z
" clip-path="url(#pd8d83ba8ef)" style="fill: #1f77b4"/>
   </g>
   <g id="patch_167">
    <path d="M 324.764938 273.312 
L 326.373422 273.312 
L 326.373422 148.815158 
L 324.764938 148.815158 
z
" clip-path="url(#pd8d83ba8ef)" style="fill: #1f77b4"/>
   </g>
   <g id="patch_168">
    <path d="M 326.373422 273.312 
L 327.981907 273.312 
L 327.981907 140.663579 
L 326.373422 140.663579 
z
" clip-path="url(#pd8d83ba8ef)" style="fill: #1f77b4"/>
   </g>
   <g id="patch_169">
    <path d="M 327.981907 273.312 
L 329.590391 273.312 
L 329.590391 156.966737 
L 327.981907 156.966737 
z
" clip-path="url(#pd8d83ba8ef)" style="fill: #1f77b4"/>
   </g>
   <g id="patch_170">
    <path d="M 329.590391 273.312 
L 331.198876 273.312 
L 331.198876 143.627789 
L 329.590391 143.627789 
z
" clip-path="url(#pd8d83ba8ef)" style="fill: #1f77b4"/>
   </g>
   <g id="patch_171">
    <path d="M 331.198876 273.312 
L 332.80736 273.312 
L 332.80736 168.823579 
L 331.198876 168.823579 
z
" clip-path="url(#pd8d83ba8ef)" style="fill: #1f77b4"/>
   </g>
   <g id="patch_172">
    <path d="M 332.80736 273.312 
L 334.415844 273.312 
L 334.415844 170.305684 
L 332.80736 170.305684 
z
" clip-path="url(#pd8d83ba8ef)" style="fill: #1f77b4"/>
   </g>
   <g id="patch_173">
    <path d="M 334.415844 273.312 
L 336.024329 273.312 
L 336.024329 160.672 
L 334.415844 160.672 
z
" clip-path="url(#pd8d83ba8ef)" style="fill: #1f77b4"/>
   </g>
   <g id="patch_174">
    <path d="M 336.024329 273.312 
L 337.632813 273.312 
L 337.632813 154.743579 
L 336.024329 154.743579 
z
" clip-path="url(#pd8d83ba8ef)" style="fill: #1f77b4"/>
   </g>
   <g id="patch_175">
    <path d="M 337.632813 273.312 
L 339.241298 273.312 
L 339.241298 176.975158 
L 337.632813 176.975158 
z
" clip-path="url(#pd8d83ba8ef)" style="fill: #1f77b4"/>
   </g>
   <g id="patch_176">
    <path d="M 339.241298 273.312 
L 340.849782 273.312 
L 340.849782 185.867789 
L 339.241298 185.867789 
z
" clip-path="url(#pd8d83ba8ef)" style="fill: #1f77b4"/>
   </g>
   <g id="patch_177">
    <path d="M 340.849782 273.312 
L 342.458267 273.312 
L 342.458267 194.019368 
L 340.849782 194.019368 
z
" clip-path="url(#pd8d83ba8ef)" style="fill: #1f77b4"/>
   </g>
   <g id="patch_178">
    <path d="M 342.458267 273.312 
L 344.066751 273.312 
L 344.066751 190.314105 
L 342.458267 190.314105 
z
" clip-path="url(#pd8d83ba8ef)" style="fill: #1f77b4"/>
   </g>
   <g id="patch_179">
    <path d="M 344.066751 273.312 
L 345.675236 273.312 
L 345.675236 181.421474 
L 344.066751 181.421474 
z
" clip-path="url(#pd8d83ba8ef)" style="fill: #1f77b4"/>
   </g>
   <g id="patch_180">
    <path d="M 345.675236 273.312 
L 347.28372 273.312 
L 347.28372 205.876211 
L 345.675236 205.876211 
z
" clip-path="url(#pd8d83ba8ef)" style="fill: #1f77b4"/>
   </g>
   <g id="patch_181">
    <path d="M 347.28372 273.312 
L 348.892204 273.312 
L 348.892204 199.206737 
L 347.28372 199.206737 
z
" clip-path="url(#pd8d83ba8ef)" style="fill: #1f77b4"/>
   </g>
   <g id="patch_182">
    <path d="M 348.892204 273.312 
L 350.500689 273.312 
L 350.500689 195.501474 
L 348.892204 195.501474 
z
" clip-path="url(#pd8d83ba8ef)" style="fill: #1f77b4"/>
   </g>
   <g id="patch_183">
    <path d="M 350.500689 273.312 
L 352.109173 273.312 
L 352.109173 202.170947 
L 350.500689 202.170947 
z
" clip-path="url(#pd8d83ba8ef)" style="fill: #1f77b4"/>
   </g>
   <g id="patch_184">
    <path d="M 352.109173 273.312 
L 353.717658 273.312 
L 353.717658 212.545684 
L 352.109173 212.545684 
z
" clip-path="url(#pd8d83ba8ef)" style="fill: #1f77b4"/>
   </g>
   <g id="patch_185">
    <path d="M 353.717658 273.312 
L 355.326142 273.312 
L 355.326142 223.661474 
L 353.717658 223.661474 
z
" clip-path="url(#pd8d83ba8ef)" style="fill: #1f77b4"/>
   </g>
   <g id="patch_186">
    <path d="M 355.326142 273.312 
L 356.934627 273.312 
L 356.934627 194.019368 
L 355.326142 194.019368 
z
" clip-path="url(#pd8d83ba8ef)" style="fill: #1f77b4"/>
   </g>
   <g id="patch_187">
    <path d="M 356.934627 273.312 
L 358.543111 273.312 
L 358.543111 216.992 
L 356.934627 216.992 
z
" clip-path="url(#pd8d83ba8ef)" style="fill: #1f77b4"/>
   </g>
   <g id="patch_188">
    <path d="M 358.543111 273.312 
L 360.151596 273.312 
L 360.151596 216.992 
L 358.543111 216.992 
z
" clip-path="url(#pd8d83ba8ef)" style="fill: #1f77b4"/>
   </g>
   <g id="patch_189">
    <path d="M 360.151596 273.312 
L 361.76008 273.312 
L 361.76008 228.107789 
L 360.151596 228.107789 
z
" clip-path="url(#pd8d83ba8ef)" style="fill: #1f77b4"/>
   </g>
   <g id="patch_190">
    <path d="M 361.76008 273.312 
L 363.368565 273.312 
L 363.368565 219.956211 
L 361.76008 219.956211 
z
" clip-path="url(#pd8d83ba8ef)" style="fill: #1f77b4"/>
   </g>
   <g id="patch_191">
    <path d="M 363.368565 273.312 
L 364.977049 273.312 
L 364.977049 214.027789 
L 363.368565 214.027789 
z
" clip-path="url(#pd8d83ba8ef)" style="fill: #1f77b4"/>
   </g>
   <g id="patch_192">
    <path d="M 364.977049 273.312 
L 366.585533 273.312 
L 366.585533 225.884632 
L 364.977049 225.884632 
z
" clip-path="url(#pd8d83ba8ef)" style="fill: #1f77b4"/>
   </g>
   <g id="patch_193">
    <path d="M 366.585533 273.312 
L 368.194018 273.312 
L 368.194018 239.964632 
L 366.585533 239.964632 
z
" clip-path="url(#pd8d83ba8ef)" style="fill: #1f77b4"/>
   </g>
   <g id="patch_194">
    <path d="M 368.194018 273.312 
L 369.802502 273.312 
L 369.802502 237.000421 
L 368.194018 237.000421 
z
" clip-path="url(#pd8d83ba8ef)" style="fill: #1f77b4"/>
   </g>
   <g id="patch_195">
    <path d="M 369.802502 273.312 
L 371.410987 273.312 
L 371.410987 227.366737 
L 369.802502 227.366737 
z
" clip-path="url(#pd8d83ba8ef)" style="fill: #1f77b4"/>
   </g>
   <g id="patch_196">
    <path d="M 371.410987 273.312 
L 373.019471 273.312 
L 373.019471 246.634105 
L 371.410987 246.634105 
z
" clip-path="url(#pd8d83ba8ef)" style="fill: #1f77b4"/>
   </g>
   <g id="patch_197">
    <path d="M 373.019471 273.312 
L 374.627956 273.312 
L 374.627956 254.044632 
L 373.019471 254.044632 
z
" clip-path="url(#pd8d83ba8ef)" style="fill: #1f77b4"/>
   </g>
   <g id="patch_198">
    <path d="M 374.627956 273.312 
L 376.23644 273.312 
L 376.23644 251.080421 
L 374.627956 251.080421 
z
" clip-path="url(#pd8d83ba8ef)" style="fill: #1f77b4"/>
   </g>
   <g id="patch_199">
    <path d="M 376.23644 273.312 
L 377.844925 273.312 
L 377.844925 253.303579 
L 376.23644 253.303579 
z
" clip-path="url(#pd8d83ba8ef)" style="fill: #1f77b4"/>
   </g>
   <g id="patch_200">
    <path d="M 377.844925 273.312 
L 379.453409 273.312 
L 379.453409 257.749895 
L 377.844925 257.749895 
z
" clip-path="url(#pd8d83ba8ef)" style="fill: #1f77b4"/>
   </g>
   <g id="patch_201">
    <path d="M 379.453409 273.312 
L 381.061893 273.312 
L 381.061893 263.678316 
L 379.453409 263.678316 
z
" clip-path="url(#pd8d83ba8ef)" style="fill: #1f77b4"/>
   </g>
   <g id="patch_202">
    <path d="M 381.061893 273.312 
L 382.670378 273.312 
L 382.670378 270.347789 
L 381.061893 270.347789 
z
" clip-path="url(#pd8d83ba8ef)" style="fill: #1f77b4"/>
   </g>
   <g id="matplotlib.axis_1">
    <g id="xtick_1">
     <g id="line2d_1">
      <defs>
       <path id="m7442d9875c" d="M 0 0 
L 0 3.5 
" style="stroke: #000000; stroke-width: 0.8"/>
      </defs>
      <g>
       <use xlink:href="#m7442d9875c" x="60.013977" y="273.312" style="stroke: #000000; stroke-width: 0.8"/>
      </g>
     </g>
     <g id="text_1">
      <!-- 0.0 -->
      <g transform="translate(52.062415 287.910437)scale(0.1 -0.1)">
       <defs>
        <path id="DejaVuSans-30" d="M 2034 4250 
Q 1547 4250 1301 3770 
Q 1056 3291 1056 2328 
Q 1056 1369 1301 889 
Q 1547 409 2034 409 
Q 2525 409 2770 889 
Q 3016 1369 3016 2328 
Q 3016 3291 2770 3770 
Q 2525 4250 2034 4250 
z
M 2034 4750 
Q 2819 4750 3233 4129 
Q 3647 3509 3647 2328 
Q 3647 1150 3233 529 
Q 2819 -91 2034 -91 
Q 1250 -91 836 529 
Q 422 1150 422 2328 
Q 422 3509 836 4129 
Q 1250 4750 2034 4750 
z
" transform="scale(0.015625)"/>
        <path id="DejaVuSans-2e" d="M 684 794 
L 1344 794 
L 1344 0 
L 684 0 
L 684 794 
z
" transform="scale(0.015625)"/>
       </defs>
       <use xlink:href="#DejaVuSans-30"/>
       <use xlink:href="#DejaVuSans-2e" x="63.623047"/>
       <use xlink:href="#DejaVuSans-30" x="95.410156"/>
      </g>
     </g>
    </g>
    <g id="xtick_2">
     <g id="line2d_2">
      <g>
       <use xlink:href="#m7442d9875c" x="101.350278" y="273.312" style="stroke: #000000; stroke-width: 0.8"/>
      </g>
     </g>
     <g id="text_2">
      <!-- 0.2 -->
      <g transform="translate(93.398715 287.910437)scale(0.1 -0.1)">
       <defs>
        <path id="DejaVuSans-32" d="M 1228 531 
L 3431 531 
L 3431 0 
L 469 0 
L 469 531 
Q 828 903 1448 1529 
Q 2069 2156 2228 2338 
Q 2531 2678 2651 2914 
Q 2772 3150 2772 3378 
Q 2772 3750 2511 3984 
Q 2250 4219 1831 4219 
Q 1534 4219 1204 4116 
Q 875 4013 500 3803 
L 500 4441 
Q 881 4594 1212 4672 
Q 1544 4750 1819 4750 
Q 2544 4750 2975 4387 
Q 3406 4025 3406 3419 
Q 3406 3131 3298 2873 
Q 3191 2616 2906 2266 
Q 2828 2175 2409 1742 
Q 1991 1309 1228 531 
z
" transform="scale(0.015625)"/>
       </defs>
       <use xlink:href="#DejaVuSans-30"/>
       <use xlink:href="#DejaVuSans-2e" x="63.623047"/>
       <use xlink:href="#DejaVuSans-32" x="95.410156"/>
      </g>
     </g>
    </g>
    <g id="xtick_3">
     <g id="line2d_3">
      <g>
       <use xlink:href="#m7442d9875c" x="142.686578" y="273.312" style="stroke: #000000; stroke-width: 0.8"/>
      </g>
     </g>
     <g id="text_3">
      <!-- 0.4 -->
      <g transform="translate(134.735016 287.910437)scale(0.1 -0.1)">
       <defs>
        <path id="DejaVuSans-34" d="M 2419 4116 
L 825 1625 
L 2419 1625 
L 2419 4116 
z
M 2253 4666 
L 3047 4666 
L 3047 1625 
L 3713 1625 
L 3713 1100 
L 3047 1100 
L 3047 0 
L 2419 0 
L 2419 1100 
L 313 1100 
L 313 1709 
L 2253 4666 
z
" transform="scale(0.015625)"/>
       </defs>
       <use xlink:href="#DejaVuSans-30"/>
       <use xlink:href="#DejaVuSans-2e" x="63.623047"/>
       <use xlink:href="#DejaVuSans-34" x="95.410156"/>
      </g>
     </g>
    </g>
    <g id="xtick_4">
     <g id="line2d_4">
      <g>
       <use xlink:href="#m7442d9875c" x="184.022879" y="273.312" style="stroke: #000000; stroke-width: 0.8"/>
      </g>
     </g>
     <g id="text_4">
      <!-- 0.6 -->
      <g transform="translate(176.071316 287.910437)scale(0.1 -0.1)">
       <defs>
        <path id="DejaVuSans-36" d="M 2113 2584 
Q 1688 2584 1439 2293 
Q 1191 2003 1191 1497 
Q 1191 994 1439 701 
Q 1688 409 2113 409 
Q 2538 409 2786 701 
Q 3034 994 3034 1497 
Q 3034 2003 2786 2293 
Q 2538 2584 2113 2584 
z
M 3366 4563 
L 3366 3988 
Q 3128 4100 2886 4159 
Q 2644 4219 2406 4219 
Q 1781 4219 1451 3797 
Q 1122 3375 1075 2522 
Q 1259 2794 1537 2939 
Q 1816 3084 2150 3084 
Q 2853 3084 3261 2657 
Q 3669 2231 3669 1497 
Q 3669 778 3244 343 
Q 2819 -91 2113 -91 
Q 1303 -91 875 529 
Q 447 1150 447 2328 
Q 447 3434 972 4092 
Q 1497 4750 2381 4750 
Q 2619 4750 2861 4703 
Q 3103 4656 3366 4563 
z
" transform="scale(0.015625)"/>
       </defs>
       <use xlink:href="#DejaVuSans-30"/>
       <use xlink:href="#DejaVuSans-2e" x="63.623047"/>
       <use xlink:href="#DejaVuSans-36" x="95.410156"/>
      </g>
     </g>
    </g>
    <g id="xtick_5">
     <g id="line2d_5">
      <g>
       <use xlink:href="#m7442d9875c" x="225.35918" y="273.312" style="stroke: #000000; stroke-width: 0.8"/>
      </g>
     </g>
     <g id="text_5">
      <!-- 0.8 -->
      <g transform="translate(217.407617 287.910437)scale(0.1 -0.1)">
       <defs>
        <path id="DejaVuSans-38" d="M 2034 2216 
Q 1584 2216 1326 1975 
Q 1069 1734 1069 1313 
Q 1069 891 1326 650 
Q 1584 409 2034 409 
Q 2484 409 2743 651 
Q 3003 894 3003 1313 
Q 3003 1734 2745 1975 
Q 2488 2216 2034 2216 
z
M 1403 2484 
Q 997 2584 770 2862 
Q 544 3141 544 3541 
Q 544 4100 942 4425 
Q 1341 4750 2034 4750 
Q 2731 4750 3128 4425 
Q 3525 4100 3525 3541 
Q 3525 3141 3298 2862 
Q 3072 2584 2669 2484 
Q 3125 2378 3379 2068 
Q 3634 1759 3634 1313 
Q 3634 634 3220 271 
Q 2806 -91 2034 -91 
Q 1263 -91 848 271 
Q 434 634 434 1313 
Q 434 1759 690 2068 
Q 947 2378 1403 2484 
z
M 1172 3481 
Q 1172 3119 1398 2916 
Q 1625 2713 2034 2713 
Q 2441 2713 2670 2916 
Q 2900 3119 2900 3481 
Q 2900 3844 2670 4047 
Q 2441 4250 2034 4250 
Q 1625 4250 1398 4047 
Q 1172 3844 1172 3481 
z
" transform="scale(0.015625)"/>
       </defs>
       <use xlink:href="#DejaVuSans-30"/>
       <use xlink:href="#DejaVuSans-2e" x="63.623047"/>
       <use xlink:href="#DejaVuSans-38" x="95.410156"/>
      </g>
     </g>
    </g>
    <g id="xtick_6">
     <g id="line2d_6">
      <g>
       <use xlink:href="#m7442d9875c" x="266.69548" y="273.312" style="stroke: #000000; stroke-width: 0.8"/>
      </g>
     </g>
     <g id="text_6">
      <!-- 1.0 -->
      <g transform="translate(258.743918 287.910437)scale(0.1 -0.1)">
       <defs>
        <path id="DejaVuSans-31" d="M 794 531 
L 1825 531 
L 1825 4091 
L 703 3866 
L 703 4441 
L 1819 4666 
L 2450 4666 
L 2450 531 
L 3481 531 
L 3481 0 
L 794 0 
L 794 531 
z
" transform="scale(0.015625)"/>
       </defs>
       <use xlink:href="#DejaVuSans-31"/>
       <use xlink:href="#DejaVuSans-2e" x="63.623047"/>
       <use xlink:href="#DejaVuSans-30" x="95.410156"/>
      </g>
     </g>
    </g>
    <g id="xtick_7">
     <g id="line2d_7">
      <g>
       <use xlink:href="#m7442d9875c" x="308.031781" y="273.312" style="stroke: #000000; stroke-width: 0.8"/>
      </g>
     </g>
     <g id="text_7">
      <!-- 1.2 -->
      <g transform="translate(300.080218 287.910437)scale(0.1 -0.1)">
       <use xlink:href="#DejaVuSans-31"/>
       <use xlink:href="#DejaVuSans-2e" x="63.623047"/>
       <use xlink:href="#DejaVuSans-32" x="95.410156"/>
      </g>
     </g>
    </g>
    <g id="xtick_8">
     <g id="line2d_8">
      <g>
       <use xlink:href="#m7442d9875c" x="349.368081" y="273.312" style="stroke: #000000; stroke-width: 0.8"/>
      </g>
     </g>
     <g id="text_8">
      <!-- 1.4 -->
      <g transform="translate(341.416519 287.910437)scale(0.1 -0.1)">
       <use xlink:href="#DejaVuSans-31"/>
       <use xlink:href="#DejaVuSans-2e" x="63.623047"/>
       <use xlink:href="#DejaVuSans-34" x="95.410156"/>
      </g>
     </g>
    </g>
    <g id="xtick_9">
     <g id="line2d_9">
      <g>
       <use xlink:href="#m7442d9875c" x="390.704382" y="273.312" style="stroke: #000000; stroke-width: 0.8"/>
      </g>
     </g>
     <g id="text_9">
      <!-- 1.6 -->
      <g transform="translate(382.752819 287.910437)scale(0.1 -0.1)">
       <use xlink:href="#DejaVuSans-31"/>
       <use xlink:href="#DejaVuSans-2e" x="63.623047"/>
       <use xlink:href="#DejaVuSans-36" x="95.410156"/>
      </g>
     </g>
    </g>
    <g id="text_10">
     <!-- Angle with normal (rad) -->
     <g transform="translate(163.023281 301.588562)scale(0.1 -0.1)">
      <defs>
       <path id="DejaVuSans-41" d="M 2188 4044 
L 1331 1722 
L 3047 1722 
L 2188 4044 
z
M 1831 4666 
L 2547 4666 
L 4325 0 
L 3669 0 
L 3244 1197 
L 1141 1197 
L 716 0 
L 50 0 
L 1831 4666 
z
" transform="scale(0.015625)"/>
       <path id="DejaVuSans-6e" d="M 3513 2113 
L 3513 0 
L 2938 0 
L 2938 2094 
Q 2938 2591 2744 2837 
Q 2550 3084 2163 3084 
Q 1697 3084 1428 2787 
Q 1159 2491 1159 1978 
L 1159 0 
L 581 0 
L 581 3500 
L 1159 3500 
L 1159 2956 
Q 1366 3272 1645 3428 
Q 1925 3584 2291 3584 
Q 2894 3584 3203 3211 
Q 3513 2838 3513 2113 
z
" transform="scale(0.015625)"/>
       <path id="DejaVuSans-67" d="M 2906 1791 
Q 2906 2416 2648 2759 
Q 2391 3103 1925 3103 
Q 1463 3103 1205 2759 
Q 947 2416 947 1791 
Q 947 1169 1205 825 
Q 1463 481 1925 481 
Q 2391 481 2648 825 
Q 2906 1169 2906 1791 
z
M 3481 434 
Q 3481 -459 3084 -895 
Q 2688 -1331 1869 -1331 
Q 1566 -1331 1297 -1286 
Q 1028 -1241 775 -1147 
L 775 -588 
Q 1028 -725 1275 -790 
Q 1522 -856 1778 -856 
Q 2344 -856 2625 -561 
Q 2906 -266 2906 331 
L 2906 616 
Q 2728 306 2450 153 
Q 2172 0 1784 0 
Q 1141 0 747 490 
Q 353 981 353 1791 
Q 353 2603 747 3093 
Q 1141 3584 1784 3584 
Q 2172 3584 2450 3431 
Q 2728 3278 2906 2969 
L 2906 3500 
L 3481 3500 
L 3481 434 
z
" transform="scale(0.015625)"/>
       <path id="DejaVuSans-6c" d="M 603 4863 
L 1178 4863 
L 1178 0 
L 603 0 
L 603 4863 
z
" transform="scale(0.015625)"/>
       <path id="DejaVuSans-65" d="M 3597 1894 
L 3597 1613 
L 953 1613 
Q 991 1019 1311 708 
Q 1631 397 2203 397 
Q 2534 397 2845 478 
Q 3156 559 3463 722 
L 3463 178 
Q 3153 47 2828 -22 
Q 2503 -91 2169 -91 
Q 1331 -91 842 396 
Q 353 884 353 1716 
Q 353 2575 817 3079 
Q 1281 3584 2069 3584 
Q 2775 3584 3186 3129 
Q 3597 2675 3597 1894 
z
M 3022 2063 
Q 3016 2534 2758 2815 
Q 2500 3097 2075 3097 
Q 1594 3097 1305 2825 
Q 1016 2553 972 2059 
L 3022 2063 
z
" transform="scale(0.015625)"/>
       <path id="DejaVuSans-20" transform="scale(0.015625)"/>
       <path id="DejaVuSans-77" d="M 269 3500 
L 844 3500 
L 1563 769 
L 2278 3500 
L 2956 3500 
L 3675 769 
L 4391 3500 
L 4966 3500 
L 4050 0 
L 3372 0 
L 2619 2869 
L 1863 0 
L 1184 0 
L 269 3500 
z
" transform="scale(0.015625)"/>
       <path id="DejaVuSans-69" d="M 603 3500 
L 1178 3500 
L 1178 0 
L 603 0 
L 603 3500 
z
M 603 4863 
L 1178 4863 
L 1178 4134 
L 603 4134 
L 603 4863 
z
" transform="scale(0.015625)"/>
       <path id="DejaVuSans-74" d="M 1172 4494 
L 1172 3500 
L 2356 3500 
L 2356 3053 
L 1172 3053 
L 1172 1153 
Q 1172 725 1289 603 
Q 1406 481 1766 481 
L 2356 481 
L 2356 0 
L 1766 0 
Q 1100 0 847 248 
Q 594 497 594 1153 
L 594 3053 
L 172 3053 
L 172 3500 
L 594 3500 
L 594 4494 
L 1172 4494 
z
" transform="scale(0.015625)"/>
       <path id="DejaVuSans-68" d="M 3513 2113 
L 3513 0 
L 2938 0 
L 2938 2094 
Q 2938 2591 2744 2837 
Q 2550 3084 2163 3084 
Q 1697 3084 1428 2787 
Q 1159 2491 1159 1978 
L 1159 0 
L 581 0 
L 581 4863 
L 1159 4863 
L 1159 2956 
Q 1366 3272 1645 3428 
Q 1925 3584 2291 3584 
Q 2894 3584 3203 3211 
Q 3513 2838 3513 2113 
z
" transform="scale(0.015625)"/>
       <path id="DejaVuSans-6f" d="M 1959 3097 
Q 1497 3097 1228 2736 
Q 959 2375 959 1747 
Q 959 1119 1226 758 
Q 1494 397 1959 397 
Q 2419 397 2687 759 
Q 2956 1122 2956 1747 
Q 2956 2369 2687 2733 
Q 2419 3097 1959 3097 
z
M 1959 3584 
Q 2709 3584 3137 3096 
Q 3566 2609 3566 1747 
Q 3566 888 3137 398 
Q 2709 -91 1959 -91 
Q 1206 -91 779 398 
Q 353 888 353 1747 
Q 353 2609 779 3096 
Q 1206 3584 1959 3584 
z
" transform="scale(0.015625)"/>
       <path id="DejaVuSans-72" d="M 2631 2963 
Q 2534 3019 2420 3045 
Q 2306 3072 2169 3072 
Q 1681 3072 1420 2755 
Q 1159 2438 1159 1844 
L 1159 0 
L 581 0 
L 581 3500 
L 1159 3500 
L 1159 2956 
Q 1341 3275 1631 3429 
Q 1922 3584 2338 3584 
Q 2397 3584 2469 3576 
Q 2541 3569 2628 3553 
L 2631 2963 
z
" transform="scale(0.015625)"/>
       <path id="DejaVuSans-6d" d="M 3328 2828 
Q 3544 3216 3844 3400 
Q 4144 3584 4550 3584 
Q 5097 3584 5394 3201 
Q 5691 2819 5691 2113 
L 5691 0 
L 5113 0 
L 5113 2094 
Q 5113 2597 4934 2840 
Q 4756 3084 4391 3084 
Q 3944 3084 3684 2787 
Q 3425 2491 3425 1978 
L 3425 0 
L 2847 0 
L 2847 2094 
Q 2847 2600 2669 2842 
Q 2491 3084 2119 3084 
Q 1678 3084 1418 2786 
Q 1159 2488 1159 1978 
L 1159 0 
L 581 0 
L 581 3500 
L 1159 3500 
L 1159 2956 
Q 1356 3278 1631 3431 
Q 1906 3584 2284 3584 
Q 2666 3584 2933 3390 
Q 3200 3197 3328 2828 
z
" transform="scale(0.015625)"/>
       <path id="DejaVuSans-61" d="M 2194 1759 
Q 1497 1759 1228 1600 
Q 959 1441 959 1056 
Q 959 750 1161 570 
Q 1363 391 1709 391 
Q 2188 391 2477 730 
Q 2766 1069 2766 1631 
L 2766 1759 
L 2194 1759 
z
M 3341 1997 
L 3341 0 
L 2766 0 
L 2766 531 
Q 2569 213 2275 61 
Q 1981 -91 1556 -91 
Q 1019 -91 701 211 
Q 384 513 384 1019 
Q 384 1609 779 1909 
Q 1175 2209 1959 2209 
L 2766 2209 
L 2766 2266 
Q 2766 2663 2505 2880 
Q 2244 3097 1772 3097 
Q 1472 3097 1187 3025 
Q 903 2953 641 2809 
L 641 3341 
Q 956 3463 1253 3523 
Q 1550 3584 1831 3584 
Q 2591 3584 2966 3190 
Q 3341 2797 3341 1997 
z
" transform="scale(0.015625)"/>
       <path id="DejaVuSans-28" d="M 1984 4856 
Q 1566 4138 1362 3434 
Q 1159 2731 1159 2009 
Q 1159 1288 1364 580 
Q 1569 -128 1984 -844 
L 1484 -844 
Q 1016 -109 783 600 
Q 550 1309 550 2009 
Q 550 2706 781 3412 
Q 1013 4119 1484 4856 
L 1984 4856 
z
" transform="scale(0.015625)"/>
       <path id="DejaVuSans-64" d="M 2906 2969 
L 2906 4863 
L 3481 4863 
L 3481 0 
L 2906 0 
L 2906 525 
Q 2725 213 2448 61 
Q 2172 -91 1784 -91 
Q 1150 -91 751 415 
Q 353 922 353 1747 
Q 353 2572 751 3078 
Q 1150 3584 1784 3584 
Q 2172 3584 2448 3432 
Q 2725 3281 2906 2969 
z
M 947 1747 
Q 947 1113 1208 752 
Q 1469 391 1925 391 
Q 2381 391 2643 752 
Q 2906 1113 2906 1747 
Q 2906 2381 2643 2742 
Q 2381 3103 1925 3103 
Q 1469 3103 1208 2742 
Q 947 2381 947 1747 
z
" transform="scale(0.015625)"/>
       <path id="DejaVuSans-29" d="M 513 4856 
L 1013 4856 
Q 1481 4119 1714 3412 
Q 1947 2706 1947 2009 
Q 1947 1309 1714 600 
Q 1481 -109 1013 -844 
L 513 -844 
Q 928 -128 1133 580 
Q 1338 1288 1338 2009 
Q 1338 2731 1133 3434 
Q 928 4138 513 4856 
z
" transform="scale(0.015625)"/>
      </defs>
      <use xlink:href="#DejaVuSans-41"/>
      <use xlink:href="#DejaVuSans-6e" x="68.408203"/>
      <use xlink:href="#DejaVuSans-67" x="131.787109"/>
      <use xlink:href="#DejaVuSans-6c" x="195.263672"/>
      <use xlink:href="#DejaVuSans-65" x="223.046875"/>
      <use xlink:href="#DejaVuSans-20" x="284.570312"/>
      <use xlink:href="#DejaVuSans-77" x="316.357422"/>
      <use xlink:href="#DejaVuSans-69" x="398.144531"/>
      <use xlink:href="#DejaVuSans-74" x="425.927734"/>
      <use xlink:href="#DejaVuSans-68" x="465.136719"/>
      <use xlink:href="#DejaVuSans-20" x="528.515625"/>
      <use xlink:href="#DejaVuSans-6e" x="560.302734"/>
      <use xlink:href="#DejaVuSans-6f" x="623.681641"/>
      <use xlink:href="#DejaVuSans-72" x="684.863281"/>
      <use xlink:href="#DejaVuSans-6d" x="724.226562"/>
      <use xlink:href="#DejaVuSans-61" x="821.638672"/>
      <use xlink:href="#DejaVuSans-6c" x="882.917969"/>
      <use xlink:href="#DejaVuSans-20" x="910.701172"/>
      <use xlink:href="#DejaVuSans-28" x="942.488281"/>
      <use xlink:href="#DejaVuSans-72" x="981.501953"/>
      <use xlink:href="#DejaVuSans-61" x="1022.615234"/>
      <use xlink:href="#DejaVuSans-64" x="1083.894531"/>
      <use xlink:href="#DejaVuSans-29" x="1147.371094"/>
     </g>
    </g>
   </g>
   <g id="matplotlib.axis_2">
    <g id="ytick_1">
     <g id="line2d_10">
      <defs>
       <path id="m0f75639f57" d="M 0 0 
L -3.5 0 
" style="stroke: #000000; stroke-width: 0.8"/>
      </defs>
      <g>
       <use xlink:href="#m0f75639f57" x="43.78125" y="273.312" style="stroke: #000000; stroke-width: 0.8"/>
      </g>
     </g>
     <g id="text_11">
      <!-- 0.0 -->
      <g transform="translate(20.878125 277.111219)scale(0.1 -0.1)">
       <use xlink:href="#DejaVuSans-30"/>
       <use xlink:href="#DejaVuSans-2e" x="63.623047"/>
       <use xlink:href="#DejaVuSans-30" x="95.410156"/>
      </g>
     </g>
    </g>
    <g id="ytick_2">
     <g id="line2d_11">
      <g>
       <use xlink:href="#m0f75639f57" x="43.78125" y="227.174475" style="stroke: #000000; stroke-width: 0.8"/>
      </g>
     </g>
     <g id="text_12">
      <!-- 0.2 -->
      <g transform="translate(20.878125 230.973693)scale(0.1 -0.1)">
       <use xlink:href="#DejaVuSans-30"/>
       <use xlink:href="#DejaVuSans-2e" x="63.623047"/>
       <use xlink:href="#DejaVuSans-32" x="95.410156"/>
      </g>
     </g>
    </g>
    <g id="ytick_3">
     <g id="line2d_12">
      <g>
       <use xlink:href="#m0f75639f57" x="43.78125" y="181.036949" style="stroke: #000000; stroke-width: 0.8"/>
      </g>
     </g>
     <g id="text_13">
      <!-- 0.4 -->
      <g transform="translate(20.878125 184.836168)scale(0.1 -0.1)">
       <use xlink:href="#DejaVuSans-30"/>
       <use xlink:href="#DejaVuSans-2e" x="63.623047"/>
       <use xlink:href="#DejaVuSans-34" x="95.410156"/>
      </g>
     </g>
    </g>
    <g id="ytick_4">
     <g id="line2d_13">
      <g>
       <use xlink:href="#m0f75639f57" x="43.78125" y="134.899424" style="stroke: #000000; stroke-width: 0.8"/>
      </g>
     </g>
     <g id="text_14">
      <!-- 0.6 -->
      <g transform="translate(20.878125 138.698643)scale(0.1 -0.1)">
       <use xlink:href="#DejaVuSans-30"/>
       <use xlink:href="#DejaVuSans-2e" x="63.623047"/>
       <use xlink:href="#DejaVuSans-36" x="95.410156"/>
      </g>
     </g>
    </g>
    <g id="ytick_5">
     <g id="line2d_14">
      <g>
       <use xlink:href="#m0f75639f57" x="43.78125" y="88.761899" style="stroke: #000000; stroke-width: 0.8"/>
      </g>
     </g>
     <g id="text_15">
      <!-- 0.8 -->
      <g transform="translate(20.878125 92.561118)scale(0.1 -0.1)">
       <use xlink:href="#DejaVuSans-30"/>
       <use xlink:href="#DejaVuSans-2e" x="63.623047"/>
       <use xlink:href="#DejaVuSans-38" x="95.410156"/>
      </g>
     </g>
    </g>
    <g id="ytick_6">
     <g id="line2d_15">
      <g>
       <use xlink:href="#m0f75639f57" x="43.78125" y="42.624374" style="stroke: #000000; stroke-width: 0.8"/>
      </g>
     </g>
     <g id="text_16">
      <!-- 1.0 -->
      <g transform="translate(20.878125 46.423592)scale(0.1 -0.1)">
       <use xlink:href="#DejaVuSans-31"/>
       <use xlink:href="#DejaVuSans-2e" x="63.623047"/>
       <use xlink:href="#DejaVuSans-30" x="95.410156"/>
      </g>
     </g>
    </g>
    <g id="text_17">
     <!-- Probability density -->
     <g transform="translate(14.798438 186.606781)rotate(-90)scale(0.1 -0.1)">
      <defs>
       <path id="DejaVuSans-50" d="M 1259 4147 
L 1259 2394 
L 2053 2394 
Q 2494 2394 2734 2622 
Q 2975 2850 2975 3272 
Q 2975 3691 2734 3919 
Q 2494 4147 2053 4147 
L 1259 4147 
z
M 628 4666 
L 2053 4666 
Q 2838 4666 3239 4311 
Q 3641 3956 3641 3272 
Q 3641 2581 3239 2228 
Q 2838 1875 2053 1875 
L 1259 1875 
L 1259 0 
L 628 0 
L 628 4666 
z
" transform="scale(0.015625)"/>
       <path id="DejaVuSans-62" d="M 3116 1747 
Q 3116 2381 2855 2742 
Q 2594 3103 2138 3103 
Q 1681 3103 1420 2742 
Q 1159 2381 1159 1747 
Q 1159 1113 1420 752 
Q 1681 391 2138 391 
Q 2594 391 2855 752 
Q 3116 1113 3116 1747 
z
M 1159 2969 
Q 1341 3281 1617 3432 
Q 1894 3584 2278 3584 
Q 2916 3584 3314 3078 
Q 3713 2572 3713 1747 
Q 3713 922 3314 415 
Q 2916 -91 2278 -91 
Q 1894 -91 1617 61 
Q 1341 213 1159 525 
L 1159 0 
L 581 0 
L 581 4863 
L 1159 4863 
L 1159 2969 
z
" transform="scale(0.015625)"/>
       <path id="DejaVuSans-79" d="M 2059 -325 
Q 1816 -950 1584 -1140 
Q 1353 -1331 966 -1331 
L 506 -1331 
L 506 -850 
L 844 -850 
Q 1081 -850 1212 -737 
Q 1344 -625 1503 -206 
L 1606 56 
L 191 3500 
L 800 3500 
L 1894 763 
L 2988 3500 
L 3597 3500 
L 2059 -325 
z
" transform="scale(0.015625)"/>
       <path id="DejaVuSans-73" d="M 2834 3397 
L 2834 2853 
Q 2591 2978 2328 3040 
Q 2066 3103 1784 3103 
Q 1356 3103 1142 2972 
Q 928 2841 928 2578 
Q 928 2378 1081 2264 
Q 1234 2150 1697 2047 
L 1894 2003 
Q 2506 1872 2764 1633 
Q 3022 1394 3022 966 
Q 3022 478 2636 193 
Q 2250 -91 1575 -91 
Q 1294 -91 989 -36 
Q 684 19 347 128 
L 347 722 
Q 666 556 975 473 
Q 1284 391 1588 391 
Q 1994 391 2212 530 
Q 2431 669 2431 922 
Q 2431 1156 2273 1281 
Q 2116 1406 1581 1522 
L 1381 1569 
Q 847 1681 609 1914 
Q 372 2147 372 2553 
Q 372 3047 722 3315 
Q 1072 3584 1716 3584 
Q 2034 3584 2315 3537 
Q 2597 3491 2834 3397 
z
" transform="scale(0.015625)"/>
      </defs>
      <use xlink:href="#DejaVuSans-50"/>
      <use xlink:href="#DejaVuSans-72" x="58.552734"/>
      <use xlink:href="#DejaVuSans-6f" x="97.416016"/>
      <use xlink:href="#DejaVuSans-62" x="158.597656"/>
      <use xlink:href="#DejaVuSans-61" x="222.074219"/>
      <use xlink:href="#DejaVuSans-62" x="283.353516"/>
      <use xlink:href="#DejaVuSans-69" x="346.830078"/>
      <use xlink:href="#DejaVuSans-6c" x="374.613281"/>
      <use xlink:href="#DejaVuSans-69" x="402.396484"/>
      <use xlink:href="#DejaVuSans-74" x="430.179688"/>
      <use xlink:href="#DejaVuSans-79" x="469.388672"/>
      <use xlink:href="#DejaVuSans-20" x="528.568359"/>
      <use xlink:href="#DejaVuSans-64" x="560.355469"/>
      <use xlink:href="#DejaVuSans-65" x="623.832031"/>
      <use xlink:href="#DejaVuSans-6e" x="685.355469"/>
      <use xlink:href="#DejaVuSans-73" x="748.734375"/>
      <use xlink:href="#DejaVuSans-69" x="800.833984"/>
      <use xlink:href="#DejaVuSans-74" x="828.617188"/>
      <use xlink:href="#DejaVuSans-79" x="867.826172"/>
     </g>
    </g>
   </g>
   <g id="line2d_16">
    <path d="M 60.013977 273.312 
L 79.837728 229.330332 
L 90.237073 206.802637 
L 99.01152 188.309286 
L 106.811029 172.380855 
L 113.960578 158.282459 
L 120.460169 145.9416 
L 126.63478 134.683585 
L 132.484411 124.473858 
L 138.009063 115.268578 
L 143.208736 107.016852 
L 148.408408 99.186044 
L 153.283101 92.24458 
L 157.832814 86.129018 
L 162.382528 80.376217 
L 166.607261 75.368906 
L 170.831995 70.692373 
L 175.056729 66.354431 
L 178.956483 62.656981 
L 182.856238 59.259483 
L 186.755992 56.166774 
L 190.330767 53.603309 
L 193.905542 51.302725 
L 197.480316 49.267773 
L 201.055091 47.500889 
L 204.304886 46.129037 
L 207.554682 44.981836 
L 210.804477 44.060421 
L 214.054272 43.365702 
L 217.304067 42.898367 
L 220.553863 42.658878 
L 223.803658 42.647472 
L 227.053453 42.86416 
L 230.303248 43.308727 
L 233.553044 43.980734 
L 236.802839 44.879517 
L 240.052634 46.004187 
L 243.302429 47.353632 
L 246.552225 48.926516 
L 250.126999 50.9129 
L 253.701774 53.165383 
L 257.276549 55.681271 
L 260.851324 58.457552 
L 264.751078 61.77929 
L 268.650832 65.402229 
L 272.550587 69.321211 
L 276.77532 73.894369 
L 281.000054 78.800767 
L 285.549768 84.447843 
L 290.099481 90.460939 
L 294.974174 97.296457 
L 299.848867 104.523556 
L 305.048539 112.64594 
L 310.248212 121.174993 
L 315.772863 130.658536 
L 321.622495 141.143618 
L 327.797106 152.669818 
L 334.296696 165.26702 
L 341.446246 179.615455 
L 349.245755 195.77714 
L 358.020202 214.482024 
L 368.419546 237.188679 
L 383.693584 271.135676 
L 384.668523 273.312 
L 384.668523 273.312 
" clip-path="url(#pd8d83ba8ef)" style="fill: none; stroke: #ff7f0e; stroke-width: 1.5; stroke-linecap: square"/>
   </g>
   <g id="patch_203">
    <path d="M 43.78125 273.312 
L 43.78125 7.2 
" style="fill: none; stroke: #000000; stroke-width: 0.8; stroke-linejoin: miter; stroke-linecap: square"/>
   </g>
   <g id="patch_204">
    <path d="M 400.90125 273.312 
L 400.90125 7.2 
" style="fill: none; stroke: #000000; stroke-width: 0.8; stroke-linejoin: miter; stroke-linecap: square"/>
   </g>
   <g id="patch_205">
    <path d="M 43.78125 273.312 
L 400.90125 273.312 
" style="fill: none; stroke: #000000; stroke-width: 0.8; stroke-linejoin: miter; stroke-linecap: square"/>
   </g>
   <g id="patch_206">
    <path d="M 43.78125 7.2 
L 400.90125 7.2 
" style="fill: none; stroke: #000000; stroke-width: 0.8; stroke-linejoin: miter; stroke-linecap: square"/>
   </g>
  </g>
 </g>
 <defs>
  <clipPath id="pd8d83ba8ef">
   <rect x="43.78125" y="7.2" width="357.12" height="266.112"/>
  </clipPath>
 </defs>
</svg>
