<?xml version="1.0" encoding="utf-8" standalone="no"?>
<!DOCTYPE svg PUBLIC "-//W3C//DTD SVG 1.1//EN"
  "http://www.w3.org/Graphics/SVG/1.1/DTD/svg11.dtd">
<svg xmlns:xlink="http://www.w3.org/1999/xlink" width="414.46375pt" height="310.86825pt" viewBox="0 0 414.46375 310.86825" xmlns="http://www.w3.org/2000/svg" version="1.1">
 <metadata>
  <rdf:RDF xmlns:dc="http://purl.org/dc/elements/1.1/" xmlns:cc="http://creativecommons.org/ns#" xmlns:rdf="http://www.w3.org/1999/02/22-rdf-syntax-ns#">
   <cc:Work>
    <dc:type rdf:resource="http://purl.org/dc/dcmitype/StillImage"/>
    <dc:date>2022-03-02T10:07:57.177918</dc:date>
    <dc:format>image/svg+xml</dc:format>
    <dc:creator>
     <cc:Agent>
      <dc:title>Matplotlib v3.5.1, https://matplotlib.org/</dc:title>
     </cc:Agent>
    </dc:creator>
   </cc:Work>
  </rdf:RDF>
 </metadata>
 <defs>
  <style type="text/css">*{stroke-linejoin: round; stroke-linecap: butt}</style>
 </defs>
 <g id="figure_1">
  <g id="patch_1">
   <path d="M 0 310.86825 
L 414.46375 310.86825 
L 414.46375 0 
L 0 0 
z
" style="fill: #ffffff"/>
  </g>
  <g id="axes_1">
   <g id="patch_2">
    <path d="M 50.14375 273.312 
L 407.26375 273.312 
L 407.26375 7.2 
L 50.14375 7.2 
z
" style="fill: #ffffff"/>
   </g>
   <g id="patch_3">
    <path d="M 68.237873 273.312 
L 69.851833 273.312 
L 69.851833 270.323321 
L 68.237873 270.323321 
z
" clip-path="url(#p898d12a173)" style="fill: #1f77b4"/>
   </g>
   <g id="patch_4">
    <path d="M 69.851833 273.312 
L 71.465794 273.312 
L 71.465794 268.530113 
L 69.851833 268.530113 
z
" clip-path="url(#p898d12a173)" style="fill: #1f77b4"/>
   </g>
   <g id="patch_5">
    <path d="M 71.465794 273.312 
L 73.079754 273.312 
L 73.079754 267.932377 
L 71.465794 267.932377 
z
" clip-path="url(#p898d12a173)" style="fill: #1f77b4"/>
   </g>
   <g id="patch_6">
    <path d="M 73.079754 273.312 
L 74.693715 273.312 
L 74.693715 269.725585 
L 73.079754 269.725585 
z
" clip-path="url(#p898d12a173)" style="fill: #1f77b4"/>
   </g>
   <g id="patch_7">
    <path d="M 74.693715 273.312 
L 76.307675 273.312 
L 76.307675 267.334642 
L 74.693715 267.334642 
z
" clip-path="url(#p898d12a173)" style="fill: #1f77b4"/>
   </g>
   <g id="patch_8">
    <path d="M 76.307675 273.312 
L 77.921635 273.312 
L 77.921635 264.345962 
L 76.307675 264.345962 
z
" clip-path="url(#p898d12a173)" style="fill: #1f77b4"/>
   </g>
   <g id="patch_9">
    <path d="M 77.921635 273.312 
L 79.535596 273.312 
L 79.535596 264.345962 
L 77.921635 264.345962 
z
" clip-path="url(#p898d12a173)" style="fill: #1f77b4"/>
   </g>
   <g id="patch_10">
    <path d="M 79.535596 273.312 
L 81.149556 273.312 
L 81.149556 265.541434 
L 79.535596 265.541434 
z
" clip-path="url(#p898d12a173)" style="fill: #1f77b4"/>
   </g>
   <g id="patch_11">
    <path d="M 81.149556 273.312 
L 82.763517 273.312 
L 82.763517 264.345962 
L 81.149556 264.345962 
z
" clip-path="url(#p898d12a173)" style="fill: #1f77b4"/>
   </g>
   <g id="patch_12">
    <path d="M 82.763517 273.312 
L 84.377477 273.312 
L 84.377477 266.736906 
L 82.763517 266.736906 
z
" clip-path="url(#p898d12a173)" style="fill: #1f77b4"/>
   </g>
   <g id="patch_13">
    <path d="M 84.377477 273.312 
L 85.991437 273.312 
L 85.991437 260.161811 
L 84.377477 260.161811 
z
" clip-path="url(#p898d12a173)" style="fill: #1f77b4"/>
   </g>
   <g id="patch_14">
    <path d="M 85.991437 273.312 
L 87.605398 273.312 
L 87.605398 260.759547 
L 85.991437 260.759547 
z
" clip-path="url(#p898d12a173)" style="fill: #1f77b4"/>
   </g>
   <g id="patch_15">
    <path d="M 87.605398 273.312 
L 89.219358 273.312 
L 89.219358 257.173132 
L 87.605398 257.173132 
z
" clip-path="url(#p898d12a173)" style="fill: #1f77b4"/>
   </g>
   <g id="patch_16">
    <path d="M 89.219358 273.312 
L 90.833319 273.312 
L 90.833319 248.80483 
L 89.219358 248.80483 
z
" clip-path="url(#p898d12a173)" style="fill: #1f77b4"/>
   </g>
   <g id="patch_17">
    <path d="M 90.833319 273.312 
L 92.447279 273.312 
L 92.447279 253.586717 
L 90.833319 253.586717 
z
" clip-path="url(#p898d12a173)" style="fill: #1f77b4"/>
   </g>
   <g id="patch_18">
    <path d="M 92.447279 273.312 
L 94.061239 273.312 
L 94.061239 259.564075 
L 92.447279 259.564075 
z
" clip-path="url(#p898d12a173)" style="fill: #1f77b4"/>
   </g>
   <g id="patch_19">
    <path d="M 94.061239 273.312 
L 95.6752 273.312 
L 95.6752 249.402566 
L 94.061239 249.402566 
z
" clip-path="url(#p898d12a173)" style="fill: #1f77b4"/>
   </g>
   <g id="patch_20">
    <path d="M 95.6752 273.312 
L 97.28916 273.312 
L 97.28916 256.575396 
L 95.6752 256.575396 
z
" clip-path="url(#p898d12a173)" style="fill: #1f77b4"/>
   </g>
   <g id="patch_21">
    <path d="M 97.28916 273.312 
L 98.903121 273.312 
L 98.903121 255.379925 
L 97.28916 255.379925 
z
" clip-path="url(#p898d12a173)" style="fill: #1f77b4"/>
   </g>
   <g id="patch_22">
    <path d="M 98.903121 273.312 
L 100.517081 273.312 
L 100.517081 253.586717 
L 98.903121 253.586717 
z
" clip-path="url(#p898d12a173)" style="fill: #1f77b4"/>
   </g>
   <g id="patch_23">
    <path d="M 100.517081 273.312 
L 102.131041 273.312 
L 102.131041 250.598038 
L 100.517081 250.598038 
z
" clip-path="url(#p898d12a173)" style="fill: #1f77b4"/>
   </g>
   <g id="patch_24">
    <path d="M 102.131041 273.312 
L 103.745002 273.312 
L 103.745002 234.45917 
L 102.131041 234.45917 
z
" clip-path="url(#p898d12a173)" style="fill: #1f77b4"/>
   </g>
   <g id="patch_25">
    <path d="M 103.745002 273.312 
L 105.358962 273.312 
L 105.358962 246.413887 
L 103.745002 246.413887 
z
" clip-path="url(#p898d12a173)" style="fill: #1f77b4"/>
   </g>
   <g id="patch_26">
    <path d="M 105.358962 273.312 
L 106.972923 273.312 
L 106.972923 245.816151 
L 105.358962 245.816151 
z
" clip-path="url(#p898d12a173)" style="fill: #1f77b4"/>
   </g>
   <g id="patch_27">
    <path d="M 106.972923 273.312 
L 108.586883 273.312 
L 108.586883 248.80483 
L 106.972923 248.80483 
z
" clip-path="url(#p898d12a173)" style="fill: #1f77b4"/>
   </g>
   <g id="patch_28">
    <path d="M 108.586883 273.312 
L 110.200843 273.312 
L 110.200843 241.632 
L 108.586883 241.632 
z
" clip-path="url(#p898d12a173)" style="fill: #1f77b4"/>
   </g>
   <g id="patch_29">
    <path d="M 110.200843 273.312 
L 111.814804 273.312 
L 111.814804 242.229736 
L 110.200843 242.229736 
z
" clip-path="url(#p898d12a173)" style="fill: #1f77b4"/>
   </g>
   <g id="patch_30">
    <path d="M 111.814804 273.312 
L 113.428764 273.312 
L 113.428764 242.827472 
L 111.814804 242.827472 
z
" clip-path="url(#p898d12a173)" style="fill: #1f77b4"/>
   </g>
   <g id="patch_31">
    <path d="M 113.428764 273.312 
L 115.042725 273.312 
L 115.042725 239.241057 
L 113.428764 239.241057 
z
" clip-path="url(#p898d12a173)" style="fill: #1f77b4"/>
   </g>
   <g id="patch_32">
    <path d="M 115.042725 273.312 
L 116.656685 273.312 
L 116.656685 232.068226 
L 115.042725 232.068226 
z
" clip-path="url(#p898d12a173)" style="fill: #1f77b4"/>
   </g>
   <g id="patch_33">
    <path d="M 116.656685 273.312 
L 118.270645 273.312 
L 118.270645 231.470491 
L 116.656685 231.470491 
z
" clip-path="url(#p898d12a173)" style="fill: #1f77b4"/>
   </g>
   <g id="patch_34">
    <path d="M 118.270645 273.312 
L 119.884606 273.312 
L 119.884606 235.654642 
L 118.270645 235.654642 
z
" clip-path="url(#p898d12a173)" style="fill: #1f77b4"/>
   </g>
   <g id="patch_35">
    <path d="M 119.884606 273.312 
L 121.498566 273.312 
L 121.498566 230.275019 
L 119.884606 230.275019 
z
" clip-path="url(#p898d12a173)" style="fill: #1f77b4"/>
   </g>
   <g id="patch_36">
    <path d="M 121.498566 273.312 
L 123.112527 273.312 
L 123.112527 241.034264 
L 121.498566 241.034264 
z
" clip-path="url(#p898d12a173)" style="fill: #1f77b4"/>
   </g>
   <g id="patch_37">
    <path d="M 123.112527 273.312 
L 124.726487 273.312 
L 124.726487 232.665962 
L 123.112527 232.665962 
z
" clip-path="url(#p898d12a173)" style="fill: #1f77b4"/>
   </g>
   <g id="patch_38">
    <path d="M 124.726487 273.312 
L 126.340447 273.312 
L 126.340447 231.470491 
L 124.726487 231.470491 
z
" clip-path="url(#p898d12a173)" style="fill: #1f77b4"/>
   </g>
   <g id="patch_39">
    <path d="M 126.340447 273.312 
L 127.954408 273.312 
L 127.954408 223.699925 
L 126.340447 223.699925 
z
" clip-path="url(#p898d12a173)" style="fill: #1f77b4"/>
   </g>
   <g id="patch_40">
    <path d="M 127.954408 273.312 
L 129.568368 273.312 
L 129.568368 230.872755 
L 127.954408 230.872755 
z
" clip-path="url(#p898d12a173)" style="fill: #1f77b4"/>
   </g>
   <g id="patch_41">
    <path d="M 129.568368 273.312 
L 131.182329 273.312 
L 131.182329 224.29766 
L 129.568368 224.29766 
z
" clip-path="url(#p898d12a173)" style="fill: #1f77b4"/>
   </g>
   <g id="patch_42">
    <path d="M 131.182329 273.312 
L 132.796289 273.312 
L 132.796289 214.136151 
L 131.182329 214.136151 
z
" clip-path="url(#p898d12a173)" style="fill: #1f77b4"/>
   </g>
   <g id="patch_43">
    <path d="M 132.796289 273.312 
L 134.410249 273.312 
L 134.410249 215.929358 
L 132.796289 215.929358 
z
" clip-path="url(#p898d12a173)" style="fill: #1f77b4"/>
   </g>
   <g id="patch_44">
    <path d="M 134.410249 273.312 
L 136.02421 273.312 
L 136.02421 221.906717 
L 134.410249 221.906717 
z
" clip-path="url(#p898d12a173)" style="fill: #1f77b4"/>
   </g>
   <g id="patch_45">
    <path d="M 136.02421 273.312 
L 137.63817 273.312 
L 137.63817 231.470491 
L 136.02421 231.470491 
z
" clip-path="url(#p898d12a173)" style="fill: #1f77b4"/>
   </g>
   <g id="patch_46">
    <path d="M 137.63817 273.312 
L 139.252131 273.312 
L 139.252131 208.756528 
L 137.63817 208.756528 
z
" clip-path="url(#p898d12a173)" style="fill: #1f77b4"/>
   </g>
   <g id="patch_47">
    <path d="M 139.252131 273.312 
L 140.866091 273.312 
L 140.866091 217.12483 
L 139.252131 217.12483 
z
" clip-path="url(#p898d12a173)" style="fill: #1f77b4"/>
   </g>
   <g id="patch_48">
    <path d="M 140.866091 273.312 
L 142.480051 273.312 
L 142.480051 223.699925 
L 140.866091 223.699925 
z
" clip-path="url(#p898d12a173)" style="fill: #1f77b4"/>
   </g>
   <g id="patch_49">
    <path d="M 142.480051 273.312 
L 144.094012 273.312 
L 144.094012 208.756528 
L 142.480051 208.756528 
z
" clip-path="url(#p898d12a173)" style="fill: #1f77b4"/>
   </g>
   <g id="patch_50">
    <path d="M 144.094012 273.312 
L 145.707972 273.312 
L 145.707972 209.952 
L 144.094012 209.952 
z
" clip-path="url(#p898d12a173)" style="fill: #1f77b4"/>
   </g>
   <g id="patch_51">
    <path d="M 145.707972 273.312 
L 147.321933 273.312 
L 147.321933 208.756528 
L 145.707972 208.756528 
z
" clip-path="url(#p898d12a173)" style="fill: #1f77b4"/>
   </g>
   <g id="patch_52">
    <path d="M 147.321933 273.312 
L 148.935893 273.312 
L 148.935893 210.549736 
L 147.321933 210.549736 
z
" clip-path="url(#p898d12a173)" style="fill: #1f77b4"/>
   </g>
   <g id="patch_53">
    <path d="M 148.935893 273.312 
L 150.549853 273.312 
L 150.549853 202.181434 
L 148.935893 202.181434 
z
" clip-path="url(#p898d12a173)" style="fill: #1f77b4"/>
   </g>
   <g id="patch_54">
    <path d="M 150.549853 273.312 
L 152.163814 273.312 
L 152.163814 215.929358 
L 150.549853 215.929358 
z
" clip-path="url(#p898d12a173)" style="fill: #1f77b4"/>
   </g>
   <g id="patch_55">
    <path d="M 152.163814 273.312 
L 153.777774 273.312 
L 153.777774 210.549736 
L 152.163814 210.549736 
z
" clip-path="url(#p898d12a173)" style="fill: #1f77b4"/>
   </g>
   <g id="patch_56">
    <path d="M 153.777774 273.312 
L 155.391735 273.312 
L 155.391735 201.583698 
L 153.777774 201.583698 
z
" clip-path="url(#p898d12a173)" style="fill: #1f77b4"/>
   </g>
   <g id="patch_57">
    <path d="M 155.391735 273.312 
L 157.005695 273.312 
L 157.005695 203.974642 
L 155.391735 203.974642 
z
" clip-path="url(#p898d12a173)" style="fill: #1f77b4"/>
   </g>
   <g id="patch_58">
    <path d="M 157.005695 273.312 
L 158.619655 273.312 
L 158.619655 212.940679 
L 157.005695 212.940679 
z
" clip-path="url(#p898d12a173)" style="fill: #1f77b4"/>
   </g>
   <g id="patch_59">
    <path d="M 158.619655 273.312 
L 160.233616 273.312 
L 160.233616 206.963321 
L 158.619655 206.963321 
z
" clip-path="url(#p898d12a173)" style="fill: #1f77b4"/>
   </g>
   <g id="patch_60">
    <path d="M 160.233616 273.312 
L 161.847576 273.312 
L 161.847576 208.756528 
L 160.233616 208.756528 
z
" clip-path="url(#p898d12a173)" style="fill: #1f77b4"/>
   </g>
   <g id="patch_61">
    <path d="M 161.847576 273.312 
L 163.461536 273.312 
L 163.461536 197.399547 
L 161.847576 197.399547 
z
" clip-path="url(#p898d12a173)" style="fill: #1f77b4"/>
   </g>
   <g id="patch_62">
    <path d="M 163.461536 273.312 
L 165.075497 273.312 
L 165.075497 211.745208 
L 163.461536 211.745208 
z
" clip-path="url(#p898d12a173)" style="fill: #1f77b4"/>
   </g>
   <g id="patch_63">
    <path d="M 165.075497 273.312 
L 166.689457 273.312 
L 166.689457 202.77917 
L 165.075497 202.77917 
z
" clip-path="url(#p898d12a173)" style="fill: #1f77b4"/>
   </g>
   <g id="patch_64">
    <path d="M 166.689457 273.312 
L 168.303418 273.312 
L 168.303418 197.997283 
L 166.689457 197.997283 
z
" clip-path="url(#p898d12a173)" style="fill: #1f77b4"/>
   </g>
   <g id="patch_65">
    <path d="M 168.303418 273.312 
L 169.917378 273.312 
L 169.917378 195.008604 
L 168.303418 195.008604 
z
" clip-path="url(#p898d12a173)" style="fill: #1f77b4"/>
   </g>
   <g id="patch_66">
    <path d="M 169.917378 273.312 
L 171.531338 273.312 
L 171.531338 193.215396 
L 169.917378 193.215396 
z
" clip-path="url(#p898d12a173)" style="fill: #1f77b4"/>
   </g>
   <g id="patch_67">
    <path d="M 171.531338 273.312 
L 173.145299 273.312 
L 173.145299 190.226717 
L 171.531338 190.226717 
z
" clip-path="url(#p898d12a173)" style="fill: #1f77b4"/>
   </g>
   <g id="patch_68">
    <path d="M 173.145299 273.312 
L 174.759259 273.312 
L 174.759259 191.422189 
L 173.145299 191.422189 
z
" clip-path="url(#p898d12a173)" style="fill: #1f77b4"/>
   </g>
   <g id="patch_69">
    <path d="M 174.759259 273.312 
L 176.37322 273.312 
L 176.37322 191.422189 
L 174.759259 191.422189 
z
" clip-path="url(#p898d12a173)" style="fill: #1f77b4"/>
   </g>
   <g id="patch_70">
    <path d="M 176.37322 273.312 
L 177.98718 273.312 
L 177.98718 203.376906 
L 176.37322 203.376906 
z
" clip-path="url(#p898d12a173)" style="fill: #1f77b4"/>
   </g>
   <g id="patch_71">
    <path d="M 177.98718 273.312 
L 179.60114 273.312 
L 179.60114 194.410868 
L 177.98718 194.410868 
z
" clip-path="url(#p898d12a173)" style="fill: #1f77b4"/>
   </g>
   <g id="patch_72">
    <path d="M 179.60114 273.312 
L 181.215101 273.312 
L 181.215101 190.226717 
L 179.60114 190.226717 
z
" clip-path="url(#p898d12a173)" style="fill: #1f77b4"/>
   </g>
   <g id="patch_73">
    <path d="M 181.215101 273.312 
L 182.829061 273.312 
L 182.829061 183.651623 
L 181.215101 183.651623 
z
" clip-path="url(#p898d12a173)" style="fill: #1f77b4"/>
   </g>
   <g id="patch_74">
    <path d="M 182.829061 273.312 
L 184.443022 273.312 
L 184.443022 195.008604 
L 182.829061 195.008604 
z
" clip-path="url(#p898d12a173)" style="fill: #1f77b4"/>
   </g>
   <g id="patch_75">
    <path d="M 184.443022 273.312 
L 186.056982 273.312 
L 186.056982 175.881057 
L 184.443022 175.881057 
z
" clip-path="url(#p898d12a173)" style="fill: #1f77b4"/>
   </g>
   <g id="patch_76">
    <path d="M 186.056982 273.312 
L 187.670942 273.312 
L 187.670942 187.835774 
L 186.056982 187.835774 
z
" clip-path="url(#p898d12a173)" style="fill: #1f77b4"/>
   </g>
   <g id="patch_77">
    <path d="M 187.670942 273.312 
L 189.284903 273.312 
L 189.284903 193.813132 
L 187.670942 193.813132 
z
" clip-path="url(#p898d12a173)" style="fill: #1f77b4"/>
   </g>
   <g id="patch_78">
    <path d="M 189.284903 273.312 
L 190.898863 273.312 
L 190.898863 191.422189 
L 189.284903 191.422189 
z
" clip-path="url(#p898d12a173)" style="fill: #1f77b4"/>
   </g>
   <g id="patch_79">
    <path d="M 190.898863 273.312 
L 192.512824 273.312 
L 192.512824 191.422189 
L 190.898863 191.422189 
z
" clip-path="url(#p898d12a173)" style="fill: #1f77b4"/>
   </g>
   <g id="patch_80">
    <path d="M 192.512824 273.312 
L 194.126784 273.312 
L 194.126784 179.467472 
L 192.512824 179.467472 
z
" clip-path="url(#p898d12a173)" style="fill: #1f77b4"/>
   </g>
   <g id="patch_81">
    <path d="M 194.126784 273.312 
L 195.740744 273.312 
L 195.740744 169.903698 
L 194.126784 169.903698 
z
" clip-path="url(#p898d12a173)" style="fill: #1f77b4"/>
   </g>
   <g id="patch_82">
    <path d="M 195.740744 273.312 
L 197.354705 273.312 
L 197.354705 171.696906 
L 195.740744 171.696906 
z
" clip-path="url(#p898d12a173)" style="fill: #1f77b4"/>
   </g>
   <g id="patch_83">
    <path d="M 197.354705 273.312 
L 198.968665 273.312 
L 198.968665 177.076528 
L 197.354705 177.076528 
z
" clip-path="url(#p898d12a173)" style="fill: #1f77b4"/>
   </g>
   <g id="patch_84">
    <path d="M 198.968665 273.312 
L 200.582626 273.312 
L 200.582626 174.087849 
L 198.968665 174.087849 
z
" clip-path="url(#p898d12a173)" style="fill: #1f77b4"/>
   </g>
   <g id="patch_85">
    <path d="M 200.582626 273.312 
L 202.196586 273.312 
L 202.196586 179.467472 
L 200.582626 179.467472 
z
" clip-path="url(#p898d12a173)" style="fill: #1f77b4"/>
   </g>
   <g id="patch_86">
    <path d="M 202.196586 273.312 
L 203.810546 273.312 
L 203.810546 172.892377 
L 202.196586 172.892377 
z
" clip-path="url(#p898d12a173)" style="fill: #1f77b4"/>
   </g>
   <g id="patch_87">
    <path d="M 203.810546 273.312 
L 205.424507 273.312 
L 205.424507 186.640302 
L 203.810546 186.640302 
z
" clip-path="url(#p898d12a173)" style="fill: #1f77b4"/>
   </g>
   <g id="patch_88">
    <path d="M 205.424507 273.312 
L 207.038467 273.312 
L 207.038467 168.110491 
L 205.424507 168.110491 
z
" clip-path="url(#p898d12a173)" style="fill: #1f77b4"/>
   </g>
   <g id="patch_89">
    <path d="M 207.038467 273.312 
L 208.652428 273.312 
L 208.652428 162.730868 
L 207.038467 162.730868 
z
" clip-path="url(#p898d12a173)" style="fill: #1f77b4"/>
   </g>
   <g id="patch_90">
    <path d="M 208.652428 273.312 
L 210.266388 273.312 
L 210.266388 177.674264 
L 208.652428 177.674264 
z
" clip-path="url(#p898d12a173)" style="fill: #1f77b4"/>
   </g>
   <g id="patch_91">
    <path d="M 210.266388 273.312 
L 211.880348 273.312 
L 211.880348 173.490113 
L 210.266388 173.490113 
z
" clip-path="url(#p898d12a173)" style="fill: #1f77b4"/>
   </g>
   <g id="patch_92">
    <path d="M 211.880348 273.312 
L 213.494309 273.312 
L 213.494309 174.685585 
L 211.880348 174.685585 
z
" clip-path="url(#p898d12a173)" style="fill: #1f77b4"/>
   </g>
   <g id="patch_93">
    <path d="M 213.494309 273.312 
L 215.108269 273.312 
L 215.108269 168.110491 
L 213.494309 168.110491 
z
" clip-path="url(#p898d12a173)" style="fill: #1f77b4"/>
   </g>
   <g id="patch_94">
    <path d="M 215.108269 273.312 
L 216.72223 273.312 
L 216.72223 156.155774 
L 215.108269 156.155774 
z
" clip-path="url(#p898d12a173)" style="fill: #1f77b4"/>
   </g>
   <g id="patch_95">
    <path d="M 216.72223 273.312 
L 218.33619 273.312 
L 218.33619 151.971623 
L 216.72223 151.971623 
z
" clip-path="url(#p898d12a173)" style="fill: #1f77b4"/>
   </g>
   <g id="patch_96">
    <path d="M 218.33619 273.312 
L 219.95015 273.312 
L 219.95015 171.09917 
L 218.33619 171.09917 
z
" clip-path="url(#p898d12a173)" style="fill: #1f77b4"/>
   </g>
   <g id="patch_97">
    <path d="M 219.95015 273.312 
L 221.564111 273.312 
L 221.564111 153.167094 
L 219.95015 153.167094 
z
" clip-path="url(#p898d12a173)" style="fill: #1f77b4"/>
   </g>
   <g id="patch_98">
    <path d="M 221.564111 273.312 
L 223.178071 273.312 
L 223.178071 148.982943 
L 221.564111 148.982943 
z
" clip-path="url(#p898d12a173)" style="fill: #1f77b4"/>
   </g>
   <g id="patch_99">
    <path d="M 223.178071 273.312 
L 224.792032 273.312 
L 224.792032 154.362566 
L 223.178071 154.362566 
z
" clip-path="url(#p898d12a173)" style="fill: #1f77b4"/>
   </g>
   <g id="patch_100">
    <path d="M 224.792032 273.312 
L 226.405992 273.312 
L 226.405992 148.982943 
L 224.792032 148.982943 
z
" clip-path="url(#p898d12a173)" style="fill: #1f77b4"/>
   </g>
   <g id="patch_101">
    <path d="M 226.405992 273.312 
L 228.019952 273.312 
L 228.019952 157.948981 
L 226.405992 157.948981 
z
" clip-path="url(#p898d12a173)" style="fill: #1f77b4"/>
   </g>
   <g id="patch_102">
    <path d="M 228.019952 273.312 
L 229.633913 273.312 
L 229.633913 178.272 
L 228.019952 178.272 
z
" clip-path="url(#p898d12a173)" style="fill: #1f77b4"/>
   </g>
   <g id="patch_103">
    <path d="M 229.633913 273.312 
L 231.247873 273.312 
L 231.247873 150.178415 
L 229.633913 150.178415 
z
" clip-path="url(#p898d12a173)" style="fill: #1f77b4"/>
   </g>
   <g id="patch_104">
    <path d="M 231.247873 273.312 
L 232.861834 273.312 
L 232.861834 149.580679 
L 231.247873 149.580679 
z
" clip-path="url(#p898d12a173)" style="fill: #1f77b4"/>
   </g>
   <g id="patch_105">
    <path d="M 232.861834 273.312 
L 234.475794 273.312 
L 234.475794 134.039547 
L 232.861834 134.039547 
z
" clip-path="url(#p898d12a173)" style="fill: #1f77b4"/>
   </g>
   <g id="patch_106">
    <path d="M 234.475794 273.312 
L 236.089754 273.312 
L 236.089754 144.201057 
L 234.475794 144.201057 
z
" clip-path="url(#p898d12a173)" style="fill: #1f77b4"/>
   </g>
   <g id="patch_107">
    <path d="M 236.089754 273.312 
L 237.703715 273.312 
L 237.703715 149.580679 
L 236.089754 149.580679 
z
" clip-path="url(#p898d12a173)" style="fill: #1f77b4"/>
   </g>
   <g id="patch_108">
    <path d="M 237.703715 273.312 
L 239.317675 273.312 
L 239.317675 157.948981 
L 237.703715 157.948981 
z
" clip-path="url(#p898d12a173)" style="fill: #1f77b4"/>
   </g>
   <g id="patch_109">
    <path d="M 239.317675 273.312 
L 240.931636 273.312 
L 240.931636 151.971623 
L 239.317675 151.971623 
z
" clip-path="url(#p898d12a173)" style="fill: #1f77b4"/>
   </g>
   <g id="patch_110">
    <path d="M 240.931636 273.312 
L 242.545596 273.312 
L 242.545596 147.189736 
L 240.931636 147.189736 
z
" clip-path="url(#p898d12a173)" style="fill: #1f77b4"/>
   </g>
   <g id="patch_111">
    <path d="M 242.545596 273.312 
L 244.159556 273.312 
L 244.159556 133.441811 
L 242.545596 133.441811 
z
" clip-path="url(#p898d12a173)" style="fill: #1f77b4"/>
   </g>
   <g id="patch_112">
    <path d="M 244.159556 273.312 
L 245.773517 273.312 
L 245.773517 150.776151 
L 244.159556 150.776151 
z
" clip-path="url(#p898d12a173)" style="fill: #1f77b4"/>
   </g>
   <g id="patch_113">
    <path d="M 245.773517 273.312 
L 247.387477 273.312 
L 247.387477 145.396528 
L 245.773517 145.396528 
z
" clip-path="url(#p898d12a173)" style="fill: #1f77b4"/>
   </g>
   <g id="patch_114">
    <path d="M 247.387477 273.312 
L 249.001438 273.312 
L 249.001438 148.385208 
L 247.387477 148.385208 
z
" clip-path="url(#p898d12a173)" style="fill: #1f77b4"/>
   </g>
   <g id="patch_115">
    <path d="M 249.001438 273.312 
L 250.615398 273.312 
L 250.615398 123.878038 
L 249.001438 123.878038 
z
" clip-path="url(#p898d12a173)" style="fill: #1f77b4"/>
   </g>
   <g id="patch_116">
    <path d="M 250.615398 273.312 
L 252.229358 273.312 
L 252.229358 137.625962 
L 250.615398 137.625962 
z
" clip-path="url(#p898d12a173)" style="fill: #1f77b4"/>
   </g>
   <g id="patch_117">
    <path d="M 252.229358 273.312 
L 253.843319 273.312 
L 253.843319 137.625962 
L 252.229358 137.625962 
z
" clip-path="url(#p898d12a173)" style="fill: #1f77b4"/>
   </g>
   <g id="patch_118">
    <path d="M 253.843319 273.312 
L 255.457279 273.312 
L 255.457279 129.855396 
L 253.843319 129.855396 
z
" clip-path="url(#p898d12a173)" style="fill: #1f77b4"/>
   </g>
   <g id="patch_119">
    <path d="M 255.457279 273.312 
L 257.07124 273.312 
L 257.07124 133.441811 
L 255.457279 133.441811 
z
" clip-path="url(#p898d12a173)" style="fill: #1f77b4"/>
   </g>
   <g id="patch_120">
    <path d="M 257.07124 273.312 
L 258.6852 273.312 
L 258.6852 143.005585 
L 257.07124 143.005585 
z
" clip-path="url(#p898d12a173)" style="fill: #1f77b4"/>
   </g>
   <g id="patch_121">
    <path d="M 258.6852 273.312 
L 260.29916 273.312 
L 260.29916 143.603321 
L 258.6852 143.603321 
z
" clip-path="url(#p898d12a173)" style="fill: #1f77b4"/>
   </g>
   <g id="patch_122">
    <path d="M 260.29916 273.312 
L 261.913121 273.312 
L 261.913121 99.968604 
L 260.29916 99.968604 
z
" clip-path="url(#p898d12a173)" style="fill: #1f77b4"/>
   </g>
   <g id="patch_123">
    <path d="M 261.913121 273.312 
L 263.527081 273.312 
L 263.527081 146.592 
L 261.913121 146.592 
z
" clip-path="url(#p898d12a173)" style="fill: #1f77b4"/>
   </g>
   <g id="patch_124">
    <path d="M 263.527081 273.312 
L 265.141042 273.312 
L 265.141042 137.625962 
L 263.527081 137.625962 
z
" clip-path="url(#p898d12a173)" style="fill: #1f77b4"/>
   </g>
   <g id="patch_125">
    <path d="M 265.141042 273.312 
L 266.755002 273.312 
L 266.755002 149.580679 
L 265.141042 149.580679 
z
" clip-path="url(#p898d12a173)" style="fill: #1f77b4"/>
   </g>
   <g id="patch_126">
    <path d="M 266.755002 273.312 
L 268.368962 273.312 
L 268.368962 124.475774 
L 266.755002 124.475774 
z
" clip-path="url(#p898d12a173)" style="fill: #1f77b4"/>
   </g>
   <g id="patch_127">
    <path d="M 268.368962 273.312 
L 269.982923 273.312 
L 269.982923 125.671245 
L 268.368962 125.671245 
z
" clip-path="url(#p898d12a173)" style="fill: #1f77b4"/>
   </g>
   <g id="patch_128">
    <path d="M 269.982923 273.312 
L 271.596883 273.312 
L 271.596883 121.487094 
L 269.982923 121.487094 
z
" clip-path="url(#p898d12a173)" style="fill: #1f77b4"/>
   </g>
   <g id="patch_129">
    <path d="M 271.596883 273.312 
L 273.210844 273.312 
L 273.210844 126.268981 
L 271.596883 126.268981 
z
" clip-path="url(#p898d12a173)" style="fill: #1f77b4"/>
   </g>
   <g id="patch_130">
    <path d="M 273.210844 273.312 
L 274.824804 273.312 
L 274.824804 120.291623 
L 273.210844 120.291623 
z
" clip-path="url(#p898d12a173)" style="fill: #1f77b4"/>
   </g>
   <g id="patch_131">
    <path d="M 274.824804 273.312 
L 276.438764 273.312 
L 276.438764 122.08483 
L 274.824804 122.08483 
z
" clip-path="url(#p898d12a173)" style="fill: #1f77b4"/>
   </g>
   <g id="patch_132">
    <path d="M 276.438764 273.312 
L 278.052725 273.312 
L 278.052725 107.141434 
L 276.438764 107.141434 
z
" clip-path="url(#p898d12a173)" style="fill: #1f77b4"/>
   </g>
   <g id="patch_133">
    <path d="M 278.052725 273.312 
L 279.666685 273.312 
L 279.666685 122.682566 
L 278.052725 122.682566 
z
" clip-path="url(#p898d12a173)" style="fill: #1f77b4"/>
   </g>
   <g id="patch_134">
    <path d="M 279.666685 273.312 
L 281.280646 273.312 
L 281.280646 115.509736 
L 279.666685 115.509736 
z
" clip-path="url(#p898d12a173)" style="fill: #1f77b4"/>
   </g>
   <g id="patch_135">
    <path d="M 281.280646 273.312 
L 282.894606 273.312 
L 282.894606 95.186717 
L 281.280646 95.186717 
z
" clip-path="url(#p898d12a173)" style="fill: #1f77b4"/>
   </g>
   <g id="patch_136">
    <path d="M 282.894606 273.312 
L 284.508566 273.312 
L 284.508566 110.727849 
L 282.894606 110.727849 
z
" clip-path="url(#p898d12a173)" style="fill: #1f77b4"/>
   </g>
   <g id="patch_137">
    <path d="M 284.508566 273.312 
L 286.122527 273.312 
L 286.122527 125.671245 
L 284.508566 125.671245 
z
" clip-path="url(#p898d12a173)" style="fill: #1f77b4"/>
   </g>
   <g id="patch_138">
    <path d="M 286.122527 273.312 
L 287.736487 273.312 
L 287.736487 123.878038 
L 286.122527 123.878038 
z
" clip-path="url(#p898d12a173)" style="fill: #1f77b4"/>
   </g>
   <g id="patch_139">
    <path d="M 287.736487 273.312 
L 289.350448 273.312 
L 289.350448 116.705208 
L 287.736487 116.705208 
z
" clip-path="url(#p898d12a173)" style="fill: #1f77b4"/>
   </g>
   <g id="patch_140">
    <path d="M 289.350448 273.312 
L 290.964408 273.312 
L 290.964408 102.957283 
L 289.350448 102.957283 
z
" clip-path="url(#p898d12a173)" style="fill: #1f77b4"/>
   </g>
   <g id="patch_141">
    <path d="M 290.964408 273.312 
L 292.578368 273.312 
L 292.578368 123.878038 
L 290.964408 123.878038 
z
" clip-path="url(#p898d12a173)" style="fill: #1f77b4"/>
   </g>
   <g id="patch_142">
    <path d="M 292.578368 273.312 
L 294.192329 273.312 
L 294.192329 90.40483 
L 292.578368 90.40483 
z
" clip-path="url(#p898d12a173)" style="fill: #1f77b4"/>
   </g>
   <g id="patch_143">
    <path d="M 294.192329 273.312 
L 295.806289 273.312 
L 295.806289 107.141434 
L 294.192329 107.141434 
z
" clip-path="url(#p898d12a173)" style="fill: #1f77b4"/>
   </g>
   <g id="patch_144">
    <path d="M 295.806289 273.312 
L 297.42025 273.312 
L 297.42025 105.348226 
L 295.806289 105.348226 
z
" clip-path="url(#p898d12a173)" style="fill: #1f77b4"/>
   </g>
   <g id="patch_145">
    <path d="M 297.42025 273.312 
L 299.03421 273.312 
L 299.03421 114.912 
L 297.42025 114.912 
z
" clip-path="url(#p898d12a173)" style="fill: #1f77b4"/>
   </g>
   <g id="patch_146">
    <path d="M 299.03421 273.312 
L 300.64817 273.312 
L 300.64817 111.325585 
L 299.03421 111.325585 
z
" clip-path="url(#p898d12a173)" style="fill: #1f77b4"/>
   </g>
   <g id="patch_147">
    <path d="M 300.64817 273.312 
L 302.262131 273.312 
L 302.262131 105.945962 
L 300.64817 105.945962 
z
" clip-path="url(#p898d12a173)" style="fill: #1f77b4"/>
   </g>
   <g id="patch_148">
    <path d="M 302.262131 273.312 
L 303.876091 273.312 
L 303.876091 102.957283 
L 302.262131 102.957283 
z
" clip-path="url(#p898d12a173)" style="fill: #1f77b4"/>
   </g>
   <g id="patch_149">
    <path d="M 303.876091 273.312 
L 305.490052 273.312 
L 305.490052 67.093132 
L 303.876091 67.093132 
z
" clip-path="url(#p898d12a173)" style="fill: #1f77b4"/>
   </g>
   <g id="patch_150">
    <path d="M 305.490052 273.312 
L 307.104012 273.312 
L 307.104012 89.209358 
L 305.490052 89.209358 
z
" clip-path="url(#p898d12a173)" style="fill: #1f77b4"/>
   </g>
   <g id="patch_151">
    <path d="M 307.104012 273.312 
L 308.717972 273.312 
L 308.717972 106.543698 
L 307.104012 106.543698 
z
" clip-path="url(#p898d12a173)" style="fill: #1f77b4"/>
   </g>
   <g id="patch_152">
    <path d="M 308.717972 273.312 
L 310.331933 273.312 
L 310.331933 88.013887 
L 308.717972 88.013887 
z
" clip-path="url(#p898d12a173)" style="fill: #1f77b4"/>
   </g>
   <g id="patch_153">
    <path d="M 310.331933 273.312 
L 311.945893 273.312 
L 311.945893 96.382189 
L 310.331933 96.382189 
z
" clip-path="url(#p898d12a173)" style="fill: #1f77b4"/>
   </g>
   <g id="patch_154">
    <path d="M 311.945893 273.312 
L 313.559854 273.312 
L 313.559854 88.611623 
L 311.945893 88.611623 
z
" clip-path="url(#p898d12a173)" style="fill: #1f77b4"/>
   </g>
   <g id="patch_155">
    <path d="M 313.559854 273.312 
L 315.173814 273.312 
L 315.173814 86.220679 
L 313.559854 86.220679 
z
" clip-path="url(#p898d12a173)" style="fill: #1f77b4"/>
   </g>
   <g id="patch_156">
    <path d="M 315.173814 273.312 
L 316.787774 273.312 
L 316.787774 102.359547 
L 315.173814 102.359547 
z
" clip-path="url(#p898d12a173)" style="fill: #1f77b4"/>
   </g>
   <g id="patch_157">
    <path d="M 316.787774 273.312 
L 318.401735 273.312 
L 318.401735 72.472755 
L 316.787774 72.472755 
z
" clip-path="url(#p898d12a173)" style="fill: #1f77b4"/>
   </g>
   <g id="patch_158">
    <path d="M 318.401735 273.312 
L 320.015695 273.312 
L 320.015695 93.393509 
L 318.401735 93.393509 
z
" clip-path="url(#p898d12a173)" style="fill: #1f77b4"/>
   </g>
   <g id="patch_159">
    <path d="M 320.015695 273.312 
L 321.629656 273.312 
L 321.629656 85.622943 
L 320.015695 85.622943 
z
" clip-path="url(#p898d12a173)" style="fill: #1f77b4"/>
   </g>
   <g id="patch_160">
    <path d="M 321.629656 273.312 
L 323.243616 273.312 
L 323.243616 74.265962 
L 321.629656 74.265962 
z
" clip-path="url(#p898d12a173)" style="fill: #1f77b4"/>
   </g>
   <g id="patch_161">
    <path d="M 323.243616 273.312 
L 324.857576 273.312 
L 324.857576 74.863698 
L 323.243616 74.863698 
z
" clip-path="url(#p898d12a173)" style="fill: #1f77b4"/>
   </g>
   <g id="patch_162">
    <path d="M 324.857576 273.312 
L 326.471537 273.312 
L 326.471537 94.588981 
L 324.857576 94.588981 
z
" clip-path="url(#p898d12a173)" style="fill: #1f77b4"/>
   </g>
   <g id="patch_163">
    <path d="M 326.471537 273.312 
L 328.085497 273.312 
L 328.085497 68.88634 
L 326.471537 68.88634 
z
" clip-path="url(#p898d12a173)" style="fill: #1f77b4"/>
   </g>
   <g id="patch_164">
    <path d="M 328.085497 273.312 
L 329.699458 273.312 
L 329.699458 104.152755 
L 328.085497 104.152755 
z
" clip-path="url(#p898d12a173)" style="fill: #1f77b4"/>
   </g>
   <g id="patch_165">
    <path d="M 329.699458 273.312 
L 331.313418 273.312 
L 331.313418 59.322566 
L 329.699458 59.322566 
z
" clip-path="url(#p898d12a173)" style="fill: #1f77b4"/>
   </g>
   <g id="patch_166">
    <path d="M 331.313418 273.312 
L 332.927378 273.312 
L 332.927378 105.945962 
L 331.313418 105.945962 
z
" clip-path="url(#p898d12a173)" style="fill: #1f77b4"/>
   </g>
   <g id="patch_167">
    <path d="M 332.927378 273.312 
L 334.541339 273.312 
L 334.541339 79.645585 
L 332.927378 79.645585 
z
" clip-path="url(#p898d12a173)" style="fill: #1f77b4"/>
   </g>
   <g id="patch_168">
    <path d="M 334.541339 273.312 
L 336.155299 273.312 
L 336.155299 85.622943 
L 334.541339 85.622943 
z
" clip-path="url(#p898d12a173)" style="fill: #1f77b4"/>
   </g>
   <g id="patch_169">
    <path d="M 336.155299 273.312 
L 337.76926 273.312 
L 337.76926 80.841057 
L 336.155299 80.841057 
z
" clip-path="url(#p898d12a173)" style="fill: #1f77b4"/>
   </g>
   <g id="patch_170">
    <path d="M 337.76926 273.312 
L 339.38322 273.312 
L 339.38322 87.416151 
L 337.76926 87.416151 
z
" clip-path="url(#p898d12a173)" style="fill: #1f77b4"/>
   </g>
   <g id="patch_171">
    <path d="M 339.38322 273.312 
L 340.99718 273.312 
L 340.99718 68.88634 
L 339.38322 68.88634 
z
" clip-path="url(#p898d12a173)" style="fill: #1f77b4"/>
   </g>
   <g id="patch_172">
    <path d="M 340.99718 273.312 
L 342.611141 273.312 
L 342.611141 100.56634 
L 340.99718 100.56634 
z
" clip-path="url(#p898d12a173)" style="fill: #1f77b4"/>
   </g>
   <g id="patch_173">
    <path d="M 342.611141 273.312 
L 344.225101 273.312 
L 344.225101 81.438792 
L 342.611141 81.438792 
z
" clip-path="url(#p898d12a173)" style="fill: #1f77b4"/>
   </g>
   <g id="patch_174">
    <path d="M 344.225101 273.312 
L 345.839062 273.312 
L 345.839062 49.758792 
L 344.225101 49.758792 
z
" clip-path="url(#p898d12a173)" style="fill: #1f77b4"/>
   </g>
   <g id="patch_175">
    <path d="M 345.839062 273.312 
L 347.453022 273.312 
L 347.453022 42.585962 
L 345.839062 42.585962 
z
" clip-path="url(#p898d12a173)" style="fill: #1f77b4"/>
   </g>
   <g id="patch_176">
    <path d="M 347.453022 273.312 
L 349.066982 273.312 
L 349.066982 51.552 
L 347.453022 51.552 
z
" clip-path="url(#p898d12a173)" style="fill: #1f77b4"/>
   </g>
   <g id="patch_177">
    <path d="M 349.066982 273.312 
L 350.680943 273.312 
L 350.680943 65.89766 
L 349.066982 65.89766 
z
" clip-path="url(#p898d12a173)" style="fill: #1f77b4"/>
   </g>
   <g id="patch_178">
    <path d="M 350.680943 273.312 
L 352.294903 273.312 
L 352.294903 52.747472 
L 350.680943 52.747472 
z
" clip-path="url(#p898d12a173)" style="fill: #1f77b4"/>
   </g>
   <g id="patch_179">
    <path d="M 352.294903 273.312 
L 353.908864 273.312 
L 353.908864 65.89766 
L 352.294903 65.89766 
z
" clip-path="url(#p898d12a173)" style="fill: #1f77b4"/>
   </g>
   <g id="patch_180">
    <path d="M 353.908864 273.312 
L 355.522824 273.312 
L 355.522824 79.645585 
L 353.908864 79.645585 
z
" clip-path="url(#p898d12a173)" style="fill: #1f77b4"/>
   </g>
   <g id="patch_181">
    <path d="M 355.522824 273.312 
L 357.136784 273.312 
L 357.136784 78.450113 
L 355.522824 78.450113 
z
" clip-path="url(#p898d12a173)" style="fill: #1f77b4"/>
   </g>
   <g id="patch_182">
    <path d="M 357.136784 273.312 
L 358.750745 273.312 
L 358.750745 52.747472 
L 357.136784 52.747472 
z
" clip-path="url(#p898d12a173)" style="fill: #1f77b4"/>
   </g>
   <g id="patch_183">
    <path d="M 358.750745 273.312 
L 360.364705 273.312 
L 360.364705 45.574642 
L 358.750745 45.574642 
z
" clip-path="url(#p898d12a173)" style="fill: #1f77b4"/>
   </g>
   <g id="patch_184">
    <path d="M 360.364705 273.312 
L 361.978666 273.312 
L 361.978666 52.149736 
L 360.364705 52.149736 
z
" clip-path="url(#p898d12a173)" style="fill: #1f77b4"/>
   </g>
   <g id="patch_185">
    <path d="M 361.978666 273.312 
L 363.592626 273.312 
L 363.592626 46.172377 
L 361.978666 46.172377 
z
" clip-path="url(#p898d12a173)" style="fill: #1f77b4"/>
   </g>
   <g id="patch_186">
    <path d="M 363.592626 273.312 
L 365.206586 273.312 
L 365.206586 47.367849 
L 363.592626 47.367849 
z
" clip-path="url(#p898d12a173)" style="fill: #1f77b4"/>
   </g>
   <g id="patch_187">
    <path d="M 365.206586 273.312 
L 366.820547 273.312 
L 366.820547 50.356528 
L 365.206586 50.356528 
z
" clip-path="url(#p898d12a173)" style="fill: #1f77b4"/>
   </g>
   <g id="patch_188">
    <path d="M 366.820547 273.312 
L 368.434507 273.312 
L 368.434507 53.942943 
L 366.820547 53.942943 
z
" clip-path="url(#p898d12a173)" style="fill: #1f77b4"/>
   </g>
   <g id="patch_189">
    <path d="M 368.434507 273.312 
L 370.048468 273.312 
L 370.048468 57.529358 
L 368.434507 57.529358 
z
" clip-path="url(#p898d12a173)" style="fill: #1f77b4"/>
   </g>
   <g id="patch_190">
    <path d="M 370.048468 273.312 
L 371.662428 273.312 
L 371.662428 68.288604 
L 370.048468 68.288604 
z
" clip-path="url(#p898d12a173)" style="fill: #1f77b4"/>
   </g>
   <g id="patch_191">
    <path d="M 371.662428 273.312 
L 373.276388 273.312 
L 373.276388 37.20634 
L 371.662428 37.20634 
z
" clip-path="url(#p898d12a173)" style="fill: #1f77b4"/>
   </g>
   <g id="patch_192">
    <path d="M 373.276388 273.312 
L 374.890349 273.312 
L 374.890349 45.574642 
L 373.276388 45.574642 
z
" clip-path="url(#p898d12a173)" style="fill: #1f77b4"/>
   </g>
   <g id="patch_193">
    <path d="M 374.890349 273.312 
L 376.504309 273.312 
L 376.504309 65.89766 
L 374.890349 65.89766 
z
" clip-path="url(#p898d12a173)" style="fill: #1f77b4"/>
   </g>
   <g id="patch_194">
    <path d="M 376.504309 273.312 
L 378.11827 273.312 
L 378.11827 50.954264 
L 376.504309 50.954264 
z
" clip-path="url(#p898d12a173)" style="fill: #1f77b4"/>
   </g>
   <g id="patch_195">
    <path d="M 378.11827 273.312 
L 379.73223 273.312 
L 379.73223 36.010868 
L 378.11827 36.010868 
z
" clip-path="url(#p898d12a173)" style="fill: #1f77b4"/>
   </g>
   <g id="patch_196">
    <path d="M 379.73223 273.312 
L 381.34619 273.312 
L 381.34619 31.826717 
L 379.73223 31.826717 
z
" clip-path="url(#p898d12a173)" style="fill: #1f77b4"/>
   </g>
   <g id="patch_197">
    <path d="M 381.34619 273.312 
L 382.960151 273.312 
L 382.960151 47.367849 
L 381.34619 47.367849 
z
" clip-path="url(#p898d12a173)" style="fill: #1f77b4"/>
   </g>
   <g id="patch_198">
    <path d="M 382.960151 273.312 
L 384.574111 273.312 
L 384.574111 41.988226 
L 382.960151 41.988226 
z
" clip-path="url(#p898d12a173)" style="fill: #1f77b4"/>
   </g>
   <g id="patch_199">
    <path d="M 384.574111 273.312 
L 386.188072 273.312 
L 386.188072 45.574642 
L 384.574111 45.574642 
z
" clip-path="url(#p898d12a173)" style="fill: #1f77b4"/>
   </g>
   <g id="patch_200">
    <path d="M 386.188072 273.312 
L 387.802032 273.312 
L 387.802032 19.872 
L 386.188072 19.872 
z
" clip-path="url(#p898d12a173)" style="fill: #1f77b4"/>
   </g>
   <g id="patch_201">
    <path d="M 387.802032 273.312 
L 389.415992 273.312 
L 389.415992 30.033509 
L 387.802032 30.033509 
z
" clip-path="url(#p898d12a173)" style="fill: #1f77b4"/>
   </g>
   <g id="patch_202">
    <path d="M 389.415992 273.312 
L 391.029953 273.312 
L 391.029953 30.631245 
L 389.415992 30.631245 
z
" clip-path="url(#p898d12a173)" style="fill: #1f77b4"/>
   </g>
   <g id="matplotlib.axis_1">
    <g id="xtick_1">
     <g id="line2d_1">
      <defs>
       <path id="m29515f56d3" d="M 0 0 
L 0 3.5 
" style="stroke: #000000; stroke-width: 0.8"/>
      </defs>
      <g>
       <use xlink:href="#m29515f56d3" x="66.376477" y="273.312" style="stroke: #000000; stroke-width: 0.8"/>
      </g>
     </g>
     <g id="text_1">
      <!-- 0.0 -->
      <g transform="translate(58.424915 287.910437)scale(0.1 -0.1)">
       <defs>
        <path id="DejaVuSans-30" d="M 2034 4250 
Q 1547 4250 1301 3770 
Q 1056 3291 1056 2328 
Q 1056 1369 1301 889 
Q 1547 409 2034 409 
Q 2525 409 2770 889 
Q 3016 1369 3016 2328 
Q 3016 3291 2770 3770 
Q 2525 4250 2034 4250 
z
M 2034 4750 
Q 2819 4750 3233 4129 
Q 3647 3509 3647 2328 
Q 3647 1150 3233 529 
Q 2819 -91 2034 -91 
Q 1250 -91 836 529 
Q 422 1150 422 2328 
Q 422 3509 836 4129 
Q 1250 4750 2034 4750 
z
" transform="scale(0.015625)"/>
        <path id="DejaVuSans-2e" d="M 684 794 
L 1344 794 
L 1344 0 
L 684 0 
L 684 794 
z
" transform="scale(0.015625)"/>
       </defs>
       <use xlink:href="#DejaVuSans-30"/>
       <use xlink:href="#DejaVuSans-2e" x="63.623047"/>
       <use xlink:href="#DejaVuSans-30" x="95.410156"/>
      </g>
     </g>
    </g>
    <g id="xtick_2">
     <g id="line2d_2">
      <g>
       <use xlink:href="#m29515f56d3" x="131.307386" y="273.312" style="stroke: #000000; stroke-width: 0.8"/>
      </g>
     </g>
     <g id="text_2">
      <!-- 0.2 -->
      <g transform="translate(123.355824 287.910437)scale(0.1 -0.1)">
       <defs>
        <path id="DejaVuSans-32" d="M 1228 531 
L 3431 531 
L 3431 0 
L 469 0 
L 469 531 
Q 828 903 1448 1529 
Q 2069 2156 2228 2338 
Q 2531 2678 2651 2914 
Q 2772 3150 2772 3378 
Q 2772 3750 2511 3984 
Q 2250 4219 1831 4219 
Q 1534 4219 1204 4116 
Q 875 4013 500 3803 
L 500 4441 
Q 881 4594 1212 4672 
Q 1544 4750 1819 4750 
Q 2544 4750 2975 4387 
Q 3406 4025 3406 3419 
Q 3406 3131 3298 2873 
Q 3191 2616 2906 2266 
Q 2828 2175 2409 1742 
Q 1991 1309 1228 531 
z
" transform="scale(0.015625)"/>
       </defs>
       <use xlink:href="#DejaVuSans-30"/>
       <use xlink:href="#DejaVuSans-2e" x="63.623047"/>
       <use xlink:href="#DejaVuSans-32" x="95.410156"/>
      </g>
     </g>
    </g>
    <g id="xtick_3">
     <g id="line2d_3">
      <g>
       <use xlink:href="#m29515f56d3" x="196.238295" y="273.312" style="stroke: #000000; stroke-width: 0.8"/>
      </g>
     </g>
     <g id="text_3">
      <!-- 0.4 -->
      <g transform="translate(188.286733 287.910437)scale(0.1 -0.1)">
       <defs>
        <path id="DejaVuSans-34" d="M 2419 4116 
L 825 1625 
L 2419 1625 
L 2419 4116 
z
M 2253 4666 
L 3047 4666 
L 3047 1625 
L 3713 1625 
L 3713 1100 
L 3047 1100 
L 3047 0 
L 2419 0 
L 2419 1100 
L 313 1100 
L 313 1709 
L 2253 4666 
z
" transform="scale(0.015625)"/>
       </defs>
       <use xlink:href="#DejaVuSans-30"/>
       <use xlink:href="#DejaVuSans-2e" x="63.623047"/>
       <use xlink:href="#DejaVuSans-34" x="95.410156"/>
      </g>
     </g>
    </g>
    <g id="xtick_4">
     <g id="line2d_4">
      <g>
       <use xlink:href="#m29515f56d3" x="261.169205" y="273.312" style="stroke: #000000; stroke-width: 0.8"/>
      </g>
     </g>
     <g id="text_4">
      <!-- 0.6 -->
      <g transform="translate(253.217642 287.910437)scale(0.1 -0.1)">
       <defs>
        <path id="DejaVuSans-36" d="M 2113 2584 
Q 1688 2584 1439 2293 
Q 1191 2003 1191 1497 
Q 1191 994 1439 701 
Q 1688 409 2113 409 
Q 2538 409 2786 701 
Q 3034 994 3034 1497 
Q 3034 2003 2786 2293 
Q 2538 2584 2113 2584 
z
M 3366 4563 
L 3366 3988 
Q 3128 4100 2886 4159 
Q 2644 4219 2406 4219 
Q 1781 4219 1451 3797 
Q 1122 3375 1075 2522 
Q 1259 2794 1537 2939 
Q 1816 3084 2150 3084 
Q 2853 3084 3261 2657 
Q 3669 2231 3669 1497 
Q 3669 778 3244 343 
Q 2819 -91 2113 -91 
Q 1303 -91 875 529 
Q 447 1150 447 2328 
Q 447 3434 972 4092 
Q 1497 4750 2381 4750 
Q 2619 4750 2861 4703 
Q 3103 4656 3366 4563 
z
" transform="scale(0.015625)"/>
       </defs>
       <use xlink:href="#DejaVuSans-30"/>
       <use xlink:href="#DejaVuSans-2e" x="63.623047"/>
       <use xlink:href="#DejaVuSans-36" x="95.410156"/>
      </g>
     </g>
    </g>
    <g id="xtick_5">
     <g id="line2d_5">
      <g>
       <use xlink:href="#m29515f56d3" x="326.100114" y="273.312" style="stroke: #000000; stroke-width: 0.8"/>
      </g>
     </g>
     <g id="text_5">
      <!-- 0.8 -->
      <g transform="translate(318.148551 287.910437)scale(0.1 -0.1)">
       <defs>
        <path id="DejaVuSans-38" d="M 2034 2216 
Q 1584 2216 1326 1975 
Q 1069 1734 1069 1313 
Q 1069 891 1326 650 
Q 1584 409 2034 409 
Q 2484 409 2743 651 
Q 3003 894 3003 1313 
Q 3003 1734 2745 1975 
Q 2488 2216 2034 2216 
z
M 1403 2484 
Q 997 2584 770 2862 
Q 544 3141 544 3541 
Q 544 4100 942 4425 
Q 1341 4750 2034 4750 
Q 2731 4750 3128 4425 
Q 3525 4100 3525 3541 
Q 3525 3141 3298 2862 
Q 3072 2584 2669 2484 
Q 3125 2378 3379 2068 
Q 3634 1759 3634 1313 
Q 3634 634 3220 271 
Q 2806 -91 2034 -91 
Q 1263 -91 848 271 
Q 434 634 434 1313 
Q 434 1759 690 2068 
Q 947 2378 1403 2484 
z
M 1172 3481 
Q 1172 3119 1398 2916 
Q 1625 2713 2034 2713 
Q 2441 2713 2670 2916 
Q 2900 3119 2900 3481 
Q 2900 3844 2670 4047 
Q 2441 4250 2034 4250 
Q 1625 4250 1398 4047 
Q 1172 3844 1172 3481 
z
" transform="scale(0.015625)"/>
       </defs>
       <use xlink:href="#DejaVuSans-30"/>
       <use xlink:href="#DejaVuSans-2e" x="63.623047"/>
       <use xlink:href="#DejaVuSans-38" x="95.410156"/>
      </g>
     </g>
    </g>
    <g id="xtick_6">
     <g id="line2d_6">
      <g>
       <use xlink:href="#m29515f56d3" x="391.031023" y="273.312" style="stroke: #000000; stroke-width: 0.8"/>
      </g>
     </g>
     <g id="text_6">
      <!-- 1.0 -->
      <g transform="translate(383.07946 287.910437)scale(0.1 -0.1)">
       <defs>
        <path id="DejaVuSans-31" d="M 794 531 
L 1825 531 
L 1825 4091 
L 703 3866 
L 703 4441 
L 1819 4666 
L 2450 4666 
L 2450 531 
L 3481 531 
L 3481 0 
L 794 0 
L 794 531 
z
" transform="scale(0.015625)"/>
       </defs>
       <use xlink:href="#DejaVuSans-31"/>
       <use xlink:href="#DejaVuSans-2e" x="63.623047"/>
       <use xlink:href="#DejaVuSans-30" x="95.410156"/>
      </g>
     </g>
    </g>
    <g id="text_7">
     <!-- Propagation direction -->
     <g transform="translate(175.221719 301.588562)scale(0.1 -0.1)">
      <defs>
       <path id="DejaVuSans-50" d="M 1259 4147 
L 1259 2394 
L 2053 2394 
Q 2494 2394 2734 2622 
Q 2975 2850 2975 3272 
Q 2975 3691 2734 3919 
Q 2494 4147 2053 4147 
L 1259 4147 
z
M 628 4666 
L 2053 4666 
Q 2838 4666 3239 4311 
Q 3641 3956 3641 3272 
Q 3641 2581 3239 2228 
Q 2838 1875 2053 1875 
L 1259 1875 
L 1259 0 
L 628 0 
L 628 4666 
z
" transform="scale(0.015625)"/>
       <path id="DejaVuSans-72" d="M 2631 2963 
Q 2534 3019 2420 3045 
Q 2306 3072 2169 3072 
Q 1681 3072 1420 2755 
Q 1159 2438 1159 1844 
L 1159 0 
L 581 0 
L 581 3500 
L 1159 3500 
L 1159 2956 
Q 1341 3275 1631 3429 
Q 1922 3584 2338 3584 
Q 2397 3584 2469 3576 
Q 2541 3569 2628 3553 
L 2631 2963 
z
" transform="scale(0.015625)"/>
       <path id="DejaVuSans-6f" d="M 1959 3097 
Q 1497 3097 1228 2736 
Q 959 2375 959 1747 
Q 959 1119 1226 758 
Q 1494 397 1959 397 
Q 2419 397 2687 759 
Q 2956 1122 2956 1747 
Q 2956 2369 2687 2733 
Q 2419 3097 1959 3097 
z
M 1959 3584 
Q 2709 3584 3137 3096 
Q 3566 2609 3566 1747 
Q 3566 888 3137 398 
Q 2709 -91 1959 -91 
Q 1206 -91 779 398 
Q 353 888 353 1747 
Q 353 2609 779 3096 
Q 1206 3584 1959 3584 
z
" transform="scale(0.015625)"/>
       <path id="DejaVuSans-70" d="M 1159 525 
L 1159 -1331 
L 581 -1331 
L 581 3500 
L 1159 3500 
L 1159 2969 
Q 1341 3281 1617 3432 
Q 1894 3584 2278 3584 
Q 2916 3584 3314 3078 
Q 3713 2572 3713 1747 
Q 3713 922 3314 415 
Q 2916 -91 2278 -91 
Q 1894 -91 1617 61 
Q 1341 213 1159 525 
z
M 3116 1747 
Q 3116 2381 2855 2742 
Q 2594 3103 2138 3103 
Q 1681 3103 1420 2742 
Q 1159 2381 1159 1747 
Q 1159 1113 1420 752 
Q 1681 391 2138 391 
Q 2594 391 2855 752 
Q 3116 1113 3116 1747 
z
" transform="scale(0.015625)"/>
       <path id="DejaVuSans-61" d="M 2194 1759 
Q 1497 1759 1228 1600 
Q 959 1441 959 1056 
Q 959 750 1161 570 
Q 1363 391 1709 391 
Q 2188 391 2477 730 
Q 2766 1069 2766 1631 
L 2766 1759 
L 2194 1759 
z
M 3341 1997 
L 3341 0 
L 2766 0 
L 2766 531 
Q 2569 213 2275 61 
Q 1981 -91 1556 -91 
Q 1019 -91 701 211 
Q 384 513 384 1019 
Q 384 1609 779 1909 
Q 1175 2209 1959 2209 
L 2766 2209 
L 2766 2266 
Q 2766 2663 2505 2880 
Q 2244 3097 1772 3097 
Q 1472 3097 1187 3025 
Q 903 2953 641 2809 
L 641 3341 
Q 956 3463 1253 3523 
Q 1550 3584 1831 3584 
Q 2591 3584 2966 3190 
Q 3341 2797 3341 1997 
z
" transform="scale(0.015625)"/>
       <path id="DejaVuSans-67" d="M 2906 1791 
Q 2906 2416 2648 2759 
Q 2391 3103 1925 3103 
Q 1463 3103 1205 2759 
Q 947 2416 947 1791 
Q 947 1169 1205 825 
Q 1463 481 1925 481 
Q 2391 481 2648 825 
Q 2906 1169 2906 1791 
z
M 3481 434 
Q 3481 -459 3084 -895 
Q 2688 -1331 1869 -1331 
Q 1566 -1331 1297 -1286 
Q 1028 -1241 775 -1147 
L 775 -588 
Q 1028 -725 1275 -790 
Q 1522 -856 1778 -856 
Q 2344 -856 2625 -561 
Q 2906 -266 2906 331 
L 2906 616 
Q 2728 306 2450 153 
Q 2172 0 1784 0 
Q 1141 0 747 490 
Q 353 981 353 1791 
Q 353 2603 747 3093 
Q 1141 3584 1784 3584 
Q 2172 3584 2450 3431 
Q 2728 3278 2906 2969 
L 2906 3500 
L 3481 3500 
L 3481 434 
z
" transform="scale(0.015625)"/>
       <path id="DejaVuSans-74" d="M 1172 4494 
L 1172 3500 
L 2356 3500 
L 2356 3053 
L 1172 3053 
L 1172 1153 
Q 1172 725 1289 603 
Q 1406 481 1766 481 
L 2356 481 
L 2356 0 
L 1766 0 
Q 1100 0 847 248 
Q 594 497 594 1153 
L 594 3053 
L 172 3053 
L 172 3500 
L 594 3500 
L 594 4494 
L 1172 4494 
z
" transform="scale(0.015625)"/>
       <path id="DejaVuSans-69" d="M 603 3500 
L 1178 3500 
L 1178 0 
L 603 0 
L 603 3500 
z
M 603 4863 
L 1178 4863 
L 1178 4134 
L 603 4134 
L 603 4863 
z
" transform="scale(0.015625)"/>
       <path id="DejaVuSans-6e" d="M 3513 2113 
L 3513 0 
L 2938 0 
L 2938 2094 
Q 2938 2591 2744 2837 
Q 2550 3084 2163 3084 
Q 1697 3084 1428 2787 
Q 1159 2491 1159 1978 
L 1159 0 
L 581 0 
L 581 3500 
L 1159 3500 
L 1159 2956 
Q 1366 3272 1645 3428 
Q 1925 3584 2291 3584 
Q 2894 3584 3203 3211 
Q 3513 2838 3513 2113 
z
" transform="scale(0.015625)"/>
       <path id="DejaVuSans-20" transform="scale(0.015625)"/>
       <path id="DejaVuSans-64" d="M 2906 2969 
L 2906 4863 
L 3481 4863 
L 3481 0 
L 2906 0 
L 2906 525 
Q 2725 213 2448 61 
Q 2172 -91 1784 -91 
Q 1150 -91 751 415 
Q 353 922 353 1747 
Q 353 2572 751 3078 
Q 1150 3584 1784 3584 
Q 2172 3584 2448 3432 
Q 2725 3281 2906 2969 
z
M 947 1747 
Q 947 1113 1208 752 
Q 1469 391 1925 391 
Q 2381 391 2643 752 
Q 2906 1113 2906 1747 
Q 2906 2381 2643 2742 
Q 2381 3103 1925 3103 
Q 1469 3103 1208 2742 
Q 947 2381 947 1747 
z
" transform="scale(0.015625)"/>
       <path id="DejaVuSans-65" d="M 3597 1894 
L 3597 1613 
L 953 1613 
Q 991 1019 1311 708 
Q 1631 397 2203 397 
Q 2534 397 2845 478 
Q 3156 559 3463 722 
L 3463 178 
Q 3153 47 2828 -22 
Q 2503 -91 2169 -91 
Q 1331 -91 842 396 
Q 353 884 353 1716 
Q 353 2575 817 3079 
Q 1281 3584 2069 3584 
Q 2775 3584 3186 3129 
Q 3597 2675 3597 1894 
z
M 3022 2063 
Q 3016 2534 2758 2815 
Q 2500 3097 2075 3097 
Q 1594 3097 1305 2825 
Q 1016 2553 972 2059 
L 3022 2063 
z
" transform="scale(0.015625)"/>
       <path id="DejaVuSans-63" d="M 3122 3366 
L 3122 2828 
Q 2878 2963 2633 3030 
Q 2388 3097 2138 3097 
Q 1578 3097 1268 2742 
Q 959 2388 959 1747 
Q 959 1106 1268 751 
Q 1578 397 2138 397 
Q 2388 397 2633 464 
Q 2878 531 3122 666 
L 3122 134 
Q 2881 22 2623 -34 
Q 2366 -91 2075 -91 
Q 1284 -91 818 406 
Q 353 903 353 1747 
Q 353 2603 823 3093 
Q 1294 3584 2113 3584 
Q 2378 3584 2631 3529 
Q 2884 3475 3122 3366 
z
" transform="scale(0.015625)"/>
      </defs>
      <use xlink:href="#DejaVuSans-50"/>
      <use xlink:href="#DejaVuSans-72" x="58.552734"/>
      <use xlink:href="#DejaVuSans-6f" x="97.416016"/>
      <use xlink:href="#DejaVuSans-70" x="158.597656"/>
      <use xlink:href="#DejaVuSans-61" x="222.074219"/>
      <use xlink:href="#DejaVuSans-67" x="283.353516"/>
      <use xlink:href="#DejaVuSans-61" x="346.830078"/>
      <use xlink:href="#DejaVuSans-74" x="408.109375"/>
      <use xlink:href="#DejaVuSans-69" x="447.318359"/>
      <use xlink:href="#DejaVuSans-6f" x="475.101562"/>
      <use xlink:href="#DejaVuSans-6e" x="536.283203"/>
      <use xlink:href="#DejaVuSans-20" x="599.662109"/>
      <use xlink:href="#DejaVuSans-64" x="631.449219"/>
      <use xlink:href="#DejaVuSans-69" x="694.925781"/>
      <use xlink:href="#DejaVuSans-72" x="722.708984"/>
      <use xlink:href="#DejaVuSans-65" x="761.572266"/>
      <use xlink:href="#DejaVuSans-63" x="823.095703"/>
      <use xlink:href="#DejaVuSans-74" x="878.076172"/>
      <use xlink:href="#DejaVuSans-69" x="917.285156"/>
      <use xlink:href="#DejaVuSans-6f" x="945.068359"/>
      <use xlink:href="#DejaVuSans-6e" x="1006.25"/>
     </g>
    </g>
   </g>
   <g id="matplotlib.axis_2">
    <g id="ytick_1">
     <g id="line2d_7">
      <defs>
       <path id="mc9d1a26eab" d="M 0 0 
L -3.5 0 
" style="stroke: #000000; stroke-width: 0.8"/>
      </defs>
      <g>
       <use xlink:href="#mc9d1a26eab" x="50.14375" y="273.312" style="stroke: #000000; stroke-width: 0.8"/>
      </g>
     </g>
     <g id="text_8">
      <!-- 0.00 -->
      <g transform="translate(20.878125 277.111219)scale(0.1 -0.1)">
       <use xlink:href="#DejaVuSans-30"/>
       <use xlink:href="#DejaVuSans-2e" x="63.623047"/>
       <use xlink:href="#DejaVuSans-30" x="95.410156"/>
       <use xlink:href="#DejaVuSans-30" x="159.033203"/>
      </g>
     </g>
    </g>
    <g id="ytick_2">
     <g id="line2d_8">
      <g>
       <use xlink:href="#mc9d1a26eab" x="50.14375" y="243.596661" style="stroke: #000000; stroke-width: 0.8"/>
      </g>
     </g>
     <g id="text_9">
      <!-- 0.25 -->
      <g transform="translate(20.878125 247.39588)scale(0.1 -0.1)">
       <defs>
        <path id="DejaVuSans-35" d="M 691 4666 
L 3169 4666 
L 3169 4134 
L 1269 4134 
L 1269 2991 
Q 1406 3038 1543 3061 
Q 1681 3084 1819 3084 
Q 2600 3084 3056 2656 
Q 3513 2228 3513 1497 
Q 3513 744 3044 326 
Q 2575 -91 1722 -91 
Q 1428 -91 1123 -41 
Q 819 9 494 109 
L 494 744 
Q 775 591 1075 516 
Q 1375 441 1709 441 
Q 2250 441 2565 725 
Q 2881 1009 2881 1497 
Q 2881 1984 2565 2268 
Q 2250 2553 1709 2553 
Q 1456 2553 1204 2497 
Q 953 2441 691 2322 
L 691 4666 
z
" transform="scale(0.015625)"/>
       </defs>
       <use xlink:href="#DejaVuSans-30"/>
       <use xlink:href="#DejaVuSans-2e" x="63.623047"/>
       <use xlink:href="#DejaVuSans-32" x="95.410156"/>
       <use xlink:href="#DejaVuSans-35" x="159.033203"/>
      </g>
     </g>
    </g>
    <g id="ytick_3">
     <g id="line2d_9">
      <g>
       <use xlink:href="#mc9d1a26eab" x="50.14375" y="213.881322" style="stroke: #000000; stroke-width: 0.8"/>
      </g>
     </g>
     <g id="text_10">
      <!-- 0.50 -->
      <g transform="translate(20.878125 217.680541)scale(0.1 -0.1)">
       <use xlink:href="#DejaVuSans-30"/>
       <use xlink:href="#DejaVuSans-2e" x="63.623047"/>
       <use xlink:href="#DejaVuSans-35" x="95.410156"/>
       <use xlink:href="#DejaVuSans-30" x="159.033203"/>
      </g>
     </g>
    </g>
    <g id="ytick_4">
     <g id="line2d_10">
      <g>
       <use xlink:href="#mc9d1a26eab" x="50.14375" y="184.165983" style="stroke: #000000; stroke-width: 0.8"/>
      </g>
     </g>
     <g id="text_11">
      <!-- 0.75 -->
      <g transform="translate(20.878125 187.965202)scale(0.1 -0.1)">
       <defs>
        <path id="DejaVuSans-37" d="M 525 4666 
L 3525 4666 
L 3525 4397 
L 1831 0 
L 1172 0 
L 2766 4134 
L 525 4134 
L 525 4666 
z
" transform="scale(0.015625)"/>
       </defs>
       <use xlink:href="#DejaVuSans-30"/>
       <use xlink:href="#DejaVuSans-2e" x="63.623047"/>
       <use xlink:href="#DejaVuSans-37" x="95.410156"/>
       <use xlink:href="#DejaVuSans-35" x="159.033203"/>
      </g>
     </g>
    </g>
    <g id="ytick_5">
     <g id="line2d_11">
      <g>
       <use xlink:href="#mc9d1a26eab" x="50.14375" y="154.450644" style="stroke: #000000; stroke-width: 0.8"/>
      </g>
     </g>
     <g id="text_12">
      <!-- 1.00 -->
      <g transform="translate(20.878125 158.249862)scale(0.1 -0.1)">
       <use xlink:href="#DejaVuSans-31"/>
       <use xlink:href="#DejaVuSans-2e" x="63.623047"/>
       <use xlink:href="#DejaVuSans-30" x="95.410156"/>
       <use xlink:href="#DejaVuSans-30" x="159.033203"/>
      </g>
     </g>
    </g>
    <g id="ytick_6">
     <g id="line2d_12">
      <g>
       <use xlink:href="#mc9d1a26eab" x="50.14375" y="124.735305" style="stroke: #000000; stroke-width: 0.8"/>
      </g>
     </g>
     <g id="text_13">
      <!-- 1.25 -->
      <g transform="translate(20.878125 128.534523)scale(0.1 -0.1)">
       <use xlink:href="#DejaVuSans-31"/>
       <use xlink:href="#DejaVuSans-2e" x="63.623047"/>
       <use xlink:href="#DejaVuSans-32" x="95.410156"/>
       <use xlink:href="#DejaVuSans-35" x="159.033203"/>
      </g>
     </g>
    </g>
    <g id="ytick_7">
     <g id="line2d_13">
      <g>
       <use xlink:href="#mc9d1a26eab" x="50.14375" y="95.019966" style="stroke: #000000; stroke-width: 0.8"/>
      </g>
     </g>
     <g id="text_14">
      <!-- 1.50 -->
      <g transform="translate(20.878125 98.819184)scale(0.1 -0.1)">
       <use xlink:href="#DejaVuSans-31"/>
       <use xlink:href="#DejaVuSans-2e" x="63.623047"/>
       <use xlink:href="#DejaVuSans-35" x="95.410156"/>
       <use xlink:href="#DejaVuSans-30" x="159.033203"/>
      </g>
     </g>
    </g>
    <g id="ytick_8">
     <g id="line2d_14">
      <g>
       <use xlink:href="#mc9d1a26eab" x="50.14375" y="65.304627" style="stroke: #000000; stroke-width: 0.8"/>
      </g>
     </g>
     <g id="text_15">
      <!-- 1.75 -->
      <g transform="translate(20.878125 69.103845)scale(0.1 -0.1)">
       <use xlink:href="#DejaVuSans-31"/>
       <use xlink:href="#DejaVuSans-2e" x="63.623047"/>
       <use xlink:href="#DejaVuSans-37" x="95.410156"/>
       <use xlink:href="#DejaVuSans-35" x="159.033203"/>
      </g>
     </g>
    </g>
    <g id="ytick_9">
     <g id="line2d_15">
      <g>
       <use xlink:href="#mc9d1a26eab" x="50.14375" y="35.589287" style="stroke: #000000; stroke-width: 0.8"/>
      </g>
     </g>
     <g id="text_16">
      <!-- 2.00 -->
      <g transform="translate(20.878125 39.388506)scale(0.1 -0.1)">
       <use xlink:href="#DejaVuSans-32"/>
       <use xlink:href="#DejaVuSans-2e" x="63.623047"/>
       <use xlink:href="#DejaVuSans-30" x="95.410156"/>
       <use xlink:href="#DejaVuSans-30" x="159.033203"/>
      </g>
     </g>
    </g>
    <g id="text_17">
     <!-- Probability density -->
     <g transform="translate(14.798438 186.606781)rotate(-90)scale(0.1 -0.1)">
      <defs>
       <path id="DejaVuSans-62" d="M 3116 1747 
Q 3116 2381 2855 2742 
Q 2594 3103 2138 3103 
Q 1681 3103 1420 2742 
Q 1159 2381 1159 1747 
Q 1159 1113 1420 752 
Q 1681 391 2138 391 
Q 2594 391 2855 752 
Q 3116 1113 3116 1747 
z
M 1159 2969 
Q 1341 3281 1617 3432 
Q 1894 3584 2278 3584 
Q 2916 3584 3314 3078 
Q 3713 2572 3713 1747 
Q 3713 922 3314 415 
Q 2916 -91 2278 -91 
Q 1894 -91 1617 61 
Q 1341 213 1159 525 
L 1159 0 
L 581 0 
L 581 4863 
L 1159 4863 
L 1159 2969 
z
" transform="scale(0.015625)"/>
       <path id="DejaVuSans-6c" d="M 603 4863 
L 1178 4863 
L 1178 0 
L 603 0 
L 603 4863 
z
" transform="scale(0.015625)"/>
       <path id="DejaVuSans-79" d="M 2059 -325 
Q 1816 -950 1584 -1140 
Q 1353 -1331 966 -1331 
L 506 -1331 
L 506 -850 
L 844 -850 
Q 1081 -850 1212 -737 
Q 1344 -625 1503 -206 
L 1606 56 
L 191 3500 
L 800 3500 
L 1894 763 
L 2988 3500 
L 3597 3500 
L 2059 -325 
z
" transform="scale(0.015625)"/>
       <path id="DejaVuSans-73" d="M 2834 3397 
L 2834 2853 
Q 2591 2978 2328 3040 
Q 2066 3103 1784 3103 
Q 1356 3103 1142 2972 
Q 928 2841 928 2578 
Q 928 2378 1081 2264 
Q 1234 2150 1697 2047 
L 1894 2003 
Q 2506 1872 2764 1633 
Q 3022 1394 3022 966 
Q 3022 478 2636 193 
Q 2250 -91 1575 -91 
Q 1294 -91 989 -36 
Q 684 19 347 128 
L 347 722 
Q 666 556 975 473 
Q 1284 391 1588 391 
Q 1994 391 2212 530 
Q 2431 669 2431 922 
Q 2431 1156 2273 1281 
Q 2116 1406 1581 1522 
L 1381 1569 
Q 847 1681 609 1914 
Q 372 2147 372 2553 
Q 372 3047 722 3315 
Q 1072 3584 1716 3584 
Q 2034 3584 2315 3537 
Q 2597 3491 2834 3397 
z
" transform="scale(0.015625)"/>
      </defs>
      <use xlink:href="#DejaVuSans-50"/>
      <use xlink:href="#DejaVuSans-72" x="58.552734"/>
      <use xlink:href="#DejaVuSans-6f" x="97.416016"/>
      <use xlink:href="#DejaVuSans-62" x="158.597656"/>
      <use xlink:href="#DejaVuSans-61" x="222.074219"/>
      <use xlink:href="#DejaVuSans-62" x="283.353516"/>
      <use xlink:href="#DejaVuSans-69" x="346.830078"/>
      <use xlink:href="#DejaVuSans-6c" x="374.613281"/>
      <use xlink:href="#DejaVuSans-69" x="402.396484"/>
      <use xlink:href="#DejaVuSans-74" x="430.179688"/>
      <use xlink:href="#DejaVuSans-79" x="469.388672"/>
      <use xlink:href="#DejaVuSans-20" x="528.568359"/>
      <use xlink:href="#DejaVuSans-64" x="560.355469"/>
      <use xlink:href="#DejaVuSans-65" x="623.832031"/>
      <use xlink:href="#DejaVuSans-6e" x="685.355469"/>
      <use xlink:href="#DejaVuSans-73" x="748.734375"/>
      <use xlink:href="#DejaVuSans-69" x="800.833984"/>
      <use xlink:href="#DejaVuSans-74" x="828.617188"/>
      <use xlink:href="#DejaVuSans-79" x="867.826172"/>
     </g>
    </g>
   </g>
   <g id="line2d_16">
    <path d="M 66.376477 273.312 
L 391.031023 35.589287 
L 391.031023 35.589287 
" clip-path="url(#p898d12a173)" style="fill: none; stroke: #ff7f0e; stroke-width: 1.5; stroke-linecap: square"/>
   </g>
   <g id="patch_203">
    <path d="M 50.14375 273.312 
L 50.14375 7.2 
" style="fill: none; stroke: #000000; stroke-width: 0.8; stroke-linejoin: miter; stroke-linecap: square"/>
   </g>
   <g id="patch_204">
    <path d="M 407.26375 273.312 
L 407.26375 7.2 
" style="fill: none; stroke: #000000; stroke-width: 0.8; stroke-linejoin: miter; stroke-linecap: square"/>
   </g>
   <g id="patch_205">
    <path d="M 50.14375 273.312 
L 407.26375 273.312 
" style="fill: none; stroke: #000000; stroke-width: 0.8; stroke-linejoin: miter; stroke-linecap: square"/>
   </g>
   <g id="patch_206">
    <path d="M 50.14375 7.2 
L 407.26375 7.2 
" style="fill: none; stroke: #000000; stroke-width: 0.8; stroke-linejoin: miter; stroke-linecap: square"/>
   </g>
  </g>
 </g>
 <defs>
  <clipPath id="p898d12a173">
   <rect x="50.14375" y="7.2" width="357.12" height="266.112"/>
  </clipPath>
 </defs>
</svg>
