<?xml version="1.0" encoding="utf-8" standalone="no"?>
<!DOCTYPE svg PUBLIC "-//W3C//DTD SVG 1.1//EN"
  "http://www.w3.org/Graphics/SVG/1.1/DTD/svg11.dtd">
<svg xmlns:xlink="http://www.w3.org/1999/xlink" width="408.10125pt" height="310.86825pt" viewBox="0 0 408.10125 310.86825" xmlns="http://www.w3.org/2000/svg" version="1.1">
 <metadata>
  <rdf:RDF xmlns:dc="http://purl.org/dc/elements/1.1/" xmlns:cc="http://creativecommons.org/ns#" xmlns:rdf="http://www.w3.org/1999/02/22-rdf-syntax-ns#">
   <cc:Work>
    <dc:type rdf:resource="http://purl.org/dc/dcmitype/StillImage"/>
    <dc:date>2022-03-02T10:15:52.389337</dc:date>
    <dc:format>image/svg+xml</dc:format>
    <dc:creator>
     <cc:Agent>
      <dc:title>Matplotlib v3.5.1, https://matplotlib.org/</dc:title>
     </cc:Agent>
    </dc:creator>
   </cc:Work>
  </rdf:RDF>
 </metadata>
 <defs>
  <style type="text/css">*{stroke-linejoin: round; stroke-linecap: butt}</style>
 </defs>
 <g id="figure_1">
  <g id="patch_1">
   <path d="M 0 310.86825 
L 408.10125 310.86825 
L 408.10125 0 
L 0 0 
z
" style="fill: #ffffff"/>
  </g>
  <g id="axes_1">
   <g id="patch_2">
    <path d="M 43.78125 273.312 
L 400.90125 273.312 
L 400.90125 7.2 
L 43.78125 7.2 
z
" style="fill: #ffffff"/>
   </g>
   <g id="patch_3">
    <path d="M 61.163239 273.312 
L 62.77609 273.312 
L 62.77609 268.063243 
L 61.163239 268.063243 
z
" clip-path="url(#pc038bcb147)" style="fill: #1f77b4"/>
   </g>
   <g id="patch_4">
    <path d="M 62.77609 273.312 
L 64.388941 273.312 
L 64.388941 267.31342 
L 62.77609 267.31342 
z
" clip-path="url(#pc038bcb147)" style="fill: #1f77b4"/>
   </g>
   <g id="patch_5">
    <path d="M 64.388941 273.312 
L 66.001791 273.312 
L 66.001791 268.813065 
L 64.388941 268.813065 
z
" clip-path="url(#pc038bcb147)" style="fill: #1f77b4"/>
   </g>
   <g id="patch_6">
    <path d="M 66.001791 273.312 
L 67.614642 273.312 
L 67.614642 256.815905 
L 66.001791 256.815905 
z
" clip-path="url(#pc038bcb147)" style="fill: #1f77b4"/>
   </g>
   <g id="patch_7">
    <path d="M 67.614642 273.312 
L 69.227493 273.312 
L 69.227493 253.066793 
L 67.614642 253.066793 
z
" clip-path="url(#pc038bcb147)" style="fill: #1f77b4"/>
   </g>
   <g id="patch_8">
    <path d="M 69.227493 273.312 
L 70.840343 273.312 
L 70.840343 247.068213 
L 69.227493 247.068213 
z
" clip-path="url(#pc038bcb147)" style="fill: #1f77b4"/>
   </g>
   <g id="patch_9">
    <path d="M 70.840343 273.312 
L 72.453194 273.312 
L 72.453194 241.069633 
L 70.840343 241.069633 
z
" clip-path="url(#pc038bcb147)" style="fill: #1f77b4"/>
   </g>
   <g id="patch_10">
    <path d="M 72.453194 273.312 
L 74.066045 273.312 
L 74.066045 240.319811 
L 72.453194 240.319811 
z
" clip-path="url(#pc038bcb147)" style="fill: #1f77b4"/>
   </g>
   <g id="patch_11">
    <path d="M 74.066045 273.312 
L 75.678895 273.312 
L 75.678895 242.569278 
L 74.066045 242.569278 
z
" clip-path="url(#pc038bcb147)" style="fill: #1f77b4"/>
   </g>
   <g id="patch_12">
    <path d="M 75.678895 273.312 
L 77.291746 273.312 
L 77.291746 224.573538 
L 75.678895 224.573538 
z
" clip-path="url(#pc038bcb147)" style="fill: #1f77b4"/>
   </g>
   <g id="patch_13">
    <path d="M 77.291746 273.312 
L 78.904597 273.312 
L 78.904597 235.071053 
L 77.291746 235.071053 
z
" clip-path="url(#pc038bcb147)" style="fill: #1f77b4"/>
   </g>
   <g id="patch_14">
    <path d="M 78.904597 273.312 
L 80.517447 273.312 
L 80.517447 225.323361 
L 78.904597 225.323361 
z
" clip-path="url(#pc038bcb147)" style="fill: #1f77b4"/>
   </g>
   <g id="patch_15">
    <path d="M 80.517447 273.312 
L 82.130298 273.312 
L 82.130298 218.574959 
L 80.517447 218.574959 
z
" clip-path="url(#pc038bcb147)" style="fill: #1f77b4"/>
   </g>
   <g id="patch_16">
    <path d="M 82.130298 273.312 
L 83.743149 273.312 
L 83.743149 226.073183 
L 82.130298 226.073183 
z
" clip-path="url(#pc038bcb147)" style="fill: #1f77b4"/>
   </g>
   <g id="patch_17">
    <path d="M 83.743149 273.312 
L 85.355999 273.312 
L 85.355999 220.824426 
L 83.743149 220.824426 
z
" clip-path="url(#pc038bcb147)" style="fill: #1f77b4"/>
   </g>
   <g id="patch_18">
    <path d="M 85.355999 273.312 
L 86.96885 273.312 
L 86.96885 222.324071 
L 85.355999 222.324071 
z
" clip-path="url(#pc038bcb147)" style="fill: #1f77b4"/>
   </g>
   <g id="patch_19">
    <path d="M 86.96885 273.312 
L 88.581701 273.312 
L 88.581701 208.827266 
L 86.96885 208.827266 
z
" clip-path="url(#pc038bcb147)" style="fill: #1f77b4"/>
   </g>
   <g id="patch_20">
    <path d="M 88.581701 273.312 
L 90.194552 273.312 
L 90.194552 206.577799 
L 88.581701 206.577799 
z
" clip-path="url(#pc038bcb147)" style="fill: #1f77b4"/>
   </g>
   <g id="patch_21">
    <path d="M 90.194552 273.312 
L 91.807402 273.312 
L 91.807402 205.078154 
L 90.194552 205.078154 
z
" clip-path="url(#pc038bcb147)" style="fill: #1f77b4"/>
   </g>
   <g id="patch_22">
    <path d="M 91.807402 273.312 
L 93.420253 273.312 
L 93.420253 199.829396 
L 91.807402 199.829396 
z
" clip-path="url(#pc038bcb147)" style="fill: #1f77b4"/>
   </g>
   <g id="patch_23">
    <path d="M 93.420253 273.312 
L 95.033104 273.312 
L 95.033104 211.826556 
L 93.420253 211.826556 
z
" clip-path="url(#pc038bcb147)" style="fill: #1f77b4"/>
   </g>
   <g id="patch_24">
    <path d="M 95.033104 273.312 
L 96.645954 273.312 
L 96.645954 182.583479 
L 95.033104 182.583479 
z
" clip-path="url(#pc038bcb147)" style="fill: #1f77b4"/>
   </g>
   <g id="patch_25">
    <path d="M 96.645954 273.312 
L 98.258805 273.312 
L 98.258805 193.830817 
L 96.645954 193.830817 
z
" clip-path="url(#pc038bcb147)" style="fill: #1f77b4"/>
   </g>
   <g id="patch_26">
    <path d="M 98.258805 273.312 
L 99.871656 273.312 
L 99.871656 169.836497 
L 98.258805 169.836497 
z
" clip-path="url(#pc038bcb147)" style="fill: #1f77b4"/>
   </g>
   <g id="patch_27">
    <path d="M 99.871656 273.312 
L 101.484506 273.312 
L 101.484506 178.834367 
L 99.871656 178.834367 
z
" clip-path="url(#pc038bcb147)" style="fill: #1f77b4"/>
   </g>
   <g id="patch_28">
    <path d="M 101.484506 273.312 
L 103.097357 273.312 
L 103.097357 166.837207 
L 101.484506 166.837207 
z
" clip-path="url(#pc038bcb147)" style="fill: #1f77b4"/>
   </g>
   <g id="patch_29">
    <path d="M 103.097357 273.312 
L 104.710208 273.312 
L 104.710208 184.083124 
L 103.097357 184.083124 
z
" clip-path="url(#pc038bcb147)" style="fill: #1f77b4"/>
   </g>
   <g id="patch_30">
    <path d="M 104.710208 273.312 
L 106.323058 273.312 
L 106.323058 179.584189 
L 104.710208 179.584189 
z
" clip-path="url(#pc038bcb147)" style="fill: #1f77b4"/>
   </g>
   <g id="patch_31">
    <path d="M 106.323058 273.312 
L 107.935909 273.312 
L 107.935909 164.58774 
L 106.323058 164.58774 
z
" clip-path="url(#pc038bcb147)" style="fill: #1f77b4"/>
   </g>
   <g id="patch_32">
    <path d="M 107.935909 273.312 
L 109.54876 273.312 
L 109.54876 160.838627 
L 107.935909 160.838627 
z
" clip-path="url(#pc038bcb147)" style="fill: #1f77b4"/>
   </g>
   <g id="patch_33">
    <path d="M 109.54876 273.312 
L 111.16161 273.312 
L 111.16161 166.837207 
L 109.54876 166.837207 
z
" clip-path="url(#pc038bcb147)" style="fill: #1f77b4"/>
   </g>
   <g id="patch_34">
    <path d="M 111.16161 273.312 
L 112.774461 273.312 
L 112.774461 173.585609 
L 111.16161 173.585609 
z
" clip-path="url(#pc038bcb147)" style="fill: #1f77b4"/>
   </g>
   <g id="patch_35">
    <path d="M 112.774461 273.312 
L 114.387312 273.312 
L 114.387312 148.091645 
L 112.774461 148.091645 
z
" clip-path="url(#pc038bcb147)" style="fill: #1f77b4"/>
   </g>
   <g id="patch_36">
    <path d="M 114.387312 273.312 
L 116.000162 273.312 
L 116.000162 175.085254 
L 114.387312 175.085254 
z
" clip-path="url(#pc038bcb147)" style="fill: #1f77b4"/>
   </g>
   <g id="patch_37">
    <path d="M 116.000162 273.312 
L 117.613013 273.312 
L 117.613013 157.839337 
L 116.000162 157.839337 
z
" clip-path="url(#pc038bcb147)" style="fill: #1f77b4"/>
   </g>
   <g id="patch_38">
    <path d="M 117.613013 273.312 
L 119.225864 273.312 
L 119.225864 154.090225 
L 117.613013 154.090225 
z
" clip-path="url(#pc038bcb147)" style="fill: #1f77b4"/>
   </g>
   <g id="patch_39">
    <path d="M 119.225864 273.312 
L 120.838714 273.312 
L 120.838714 137.59413 
L 119.225864 137.59413 
z
" clip-path="url(#pc038bcb147)" style="fill: #1f77b4"/>
   </g>
   <g id="patch_40">
    <path d="M 120.838714 273.312 
L 122.451565 273.312 
L 122.451565 149.59129 
L 120.838714 149.59129 
z
" clip-path="url(#pc038bcb147)" style="fill: #1f77b4"/>
   </g>
   <g id="patch_41">
    <path d="M 122.451565 273.312 
L 124.064416 273.312 
L 124.064416 140.59342 
L 122.451565 140.59342 
z
" clip-path="url(#pc038bcb147)" style="fill: #1f77b4"/>
   </g>
   <g id="patch_42">
    <path d="M 124.064416 273.312 
L 125.677266 273.312 
L 125.677266 151.090935 
L 124.064416 151.090935 
z
" clip-path="url(#pc038bcb147)" style="fill: #1f77b4"/>
   </g>
   <g id="patch_43">
    <path d="M 125.677266 273.312 
L 127.290117 273.312 
L 127.290117 119.598391 
L 125.677266 119.598391 
z
" clip-path="url(#pc038bcb147)" style="fill: #1f77b4"/>
   </g>
   <g id="patch_44">
    <path d="M 127.290117 273.312 
L 128.902968 273.312 
L 128.902968 127.096615 
L 127.290117 127.096615 
z
" clip-path="url(#pc038bcb147)" style="fill: #1f77b4"/>
   </g>
   <g id="patch_45">
    <path d="M 128.902968 273.312 
L 130.515819 273.312 
L 130.515819 124.847148 
L 128.902968 124.847148 
z
" clip-path="url(#pc038bcb147)" style="fill: #1f77b4"/>
   </g>
   <g id="patch_46">
    <path d="M 130.515819 273.312 
L 132.128669 273.312 
L 132.128669 139.843598 
L 130.515819 139.843598 
z
" clip-path="url(#pc038bcb147)" style="fill: #1f77b4"/>
   </g>
   <g id="patch_47">
    <path d="M 132.128669 273.312 
L 133.74152 273.312 
L 133.74152 100.852828 
L 132.128669 100.852828 
z
" clip-path="url(#pc038bcb147)" style="fill: #1f77b4"/>
   </g>
   <g id="patch_48">
    <path d="M 133.74152 273.312 
L 135.354371 273.312 
L 135.354371 95.604071 
L 133.74152 95.604071 
z
" clip-path="url(#pc038bcb147)" style="fill: #1f77b4"/>
   </g>
   <g id="patch_49">
    <path d="M 135.354371 273.312 
L 136.967221 273.312 
L 136.967221 123.347503 
L 135.354371 123.347503 
z
" clip-path="url(#pc038bcb147)" style="fill: #1f77b4"/>
   </g>
   <g id="patch_50">
    <path d="M 136.967221 273.312 
L 138.580072 273.312 
L 138.580072 106.851408 
L 136.967221 106.851408 
z
" clip-path="url(#pc038bcb147)" style="fill: #1f77b4"/>
   </g>
   <g id="patch_51">
    <path d="M 138.580072 273.312 
L 140.192923 273.312 
L 140.192923 97.103716 
L 138.580072 97.103716 
z
" clip-path="url(#pc038bcb147)" style="fill: #1f77b4"/>
   </g>
   <g id="patch_52">
    <path d="M 140.192923 273.312 
L 141.805773 273.312 
L 141.805773 104.601941 
L 140.192923 104.601941 
z
" clip-path="url(#pc038bcb147)" style="fill: #1f77b4"/>
   </g>
   <g id="patch_53">
    <path d="M 141.805773 273.312 
L 143.418624 273.312 
L 143.418624 90.355314 
L 141.805773 90.355314 
z
" clip-path="url(#pc038bcb147)" style="fill: #1f77b4"/>
   </g>
   <g id="patch_54">
    <path d="M 143.418624 273.312 
L 145.031475 273.312 
L 145.031475 97.853538 
L 143.418624 97.853538 
z
" clip-path="url(#pc038bcb147)" style="fill: #1f77b4"/>
   </g>
   <g id="patch_55">
    <path d="M 145.031475 273.312 
L 146.644325 273.312 
L 146.644325 109.100876 
L 145.031475 109.100876 
z
" clip-path="url(#pc038bcb147)" style="fill: #1f77b4"/>
   </g>
   <g id="patch_56">
    <path d="M 146.644325 273.312 
L 148.257176 273.312 
L 148.257176 107.601231 
L 146.644325 107.601231 
z
" clip-path="url(#pc038bcb147)" style="fill: #1f77b4"/>
   </g>
   <g id="patch_57">
    <path d="M 148.257176 273.312 
L 149.870027 273.312 
L 149.870027 76.858509 
L 148.257176 76.858509 
z
" clip-path="url(#pc038bcb147)" style="fill: #1f77b4"/>
   </g>
   <g id="patch_58">
    <path d="M 149.870027 273.312 
L 151.482877 273.312 
L 151.482877 73.109396 
L 149.870027 73.109396 
z
" clip-path="url(#pc038bcb147)" style="fill: #1f77b4"/>
   </g>
   <g id="patch_59">
    <path d="M 151.482877 273.312 
L 153.095728 273.312 
L 153.095728 88.855669 
L 151.482877 88.855669 
z
" clip-path="url(#pc038bcb147)" style="fill: #1f77b4"/>
   </g>
   <g id="patch_60">
    <path d="M 153.095728 273.312 
L 154.708579 273.312 
L 154.708579 67.860639 
L 153.095728 67.860639 
z
" clip-path="url(#pc038bcb147)" style="fill: #1f77b4"/>
   </g>
   <g id="patch_61">
    <path d="M 154.708579 273.312 
L 156.321429 273.312 
L 156.321429 73.859219 
L 154.708579 73.859219 
z
" clip-path="url(#pc038bcb147)" style="fill: #1f77b4"/>
   </g>
   <g id="patch_62">
    <path d="M 156.321429 273.312 
L 157.93428 273.312 
L 157.93428 85.856379 
L 156.321429 85.856379 
z
" clip-path="url(#pc038bcb147)" style="fill: #1f77b4"/>
   </g>
   <g id="patch_63">
    <path d="M 157.93428 273.312 
L 159.547131 273.312 
L 159.547131 73.859219 
L 157.93428 73.859219 
z
" clip-path="url(#pc038bcb147)" style="fill: #1f77b4"/>
   </g>
   <g id="patch_64">
    <path d="M 159.547131 273.312 
L 161.159981 273.312 
L 161.159981 83.606911 
L 159.547131 83.606911 
z
" clip-path="url(#pc038bcb147)" style="fill: #1f77b4"/>
   </g>
   <g id="patch_65">
    <path d="M 161.159981 273.312 
L 162.772832 273.312 
L 162.772832 77.608331 
L 161.159981 77.608331 
z
" clip-path="url(#pc038bcb147)" style="fill: #1f77b4"/>
   </g>
   <g id="patch_66">
    <path d="M 162.772832 273.312 
L 164.385683 273.312 
L 164.385683 80.607621 
L 162.772832 80.607621 
z
" clip-path="url(#pc038bcb147)" style="fill: #1f77b4"/>
   </g>
   <g id="patch_67">
    <path d="M 164.385683 273.312 
L 165.998533 273.312 
L 165.998533 73.859219 
L 164.385683 73.859219 
z
" clip-path="url(#pc038bcb147)" style="fill: #1f77b4"/>
   </g>
   <g id="patch_68">
    <path d="M 165.998533 273.312 
L 167.611384 273.312 
L 167.611384 72.359574 
L 165.998533 72.359574 
z
" clip-path="url(#pc038bcb147)" style="fill: #1f77b4"/>
   </g>
   <g id="patch_69">
    <path d="M 167.611384 273.312 
L 169.224235 273.312 
L 169.224235 64.111527 
L 167.611384 64.111527 
z
" clip-path="url(#pc038bcb147)" style="fill: #1f77b4"/>
   </g>
   <g id="patch_70">
    <path d="M 169.224235 273.312 
L 170.837086 273.312 
L 170.837086 73.109396 
L 169.224235 73.109396 
z
" clip-path="url(#pc038bcb147)" style="fill: #1f77b4"/>
   </g>
   <g id="patch_71">
    <path d="M 170.837086 273.312 
L 172.449936 273.312 
L 172.449936 49.864899 
L 170.837086 49.864899 
z
" clip-path="url(#pc038bcb147)" style="fill: #1f77b4"/>
   </g>
   <g id="patch_72">
    <path d="M 172.449936 273.312 
L 174.062787 273.312 
L 174.062787 61.112237 
L 172.449936 61.112237 
z
" clip-path="url(#pc038bcb147)" style="fill: #1f77b4"/>
   </g>
   <g id="patch_73">
    <path d="M 174.062787 273.312 
L 175.675638 273.312 
L 175.675638 73.109396 
L 174.062787 73.109396 
z
" clip-path="url(#pc038bcb147)" style="fill: #1f77b4"/>
   </g>
   <g id="patch_74">
    <path d="M 175.675638 273.312 
L 177.288488 273.312 
L 177.288488 56.613302 
L 175.675638 56.613302 
z
" clip-path="url(#pc038bcb147)" style="fill: #1f77b4"/>
   </g>
   <g id="patch_75">
    <path d="M 177.288488 273.312 
L 178.901339 273.312 
L 178.901339 58.112947 
L 177.288488 58.112947 
z
" clip-path="url(#pc038bcb147)" style="fill: #1f77b4"/>
   </g>
   <g id="patch_76">
    <path d="M 178.901339 273.312 
L 180.51419 273.312 
L 180.51419 58.862769 
L 178.901339 58.862769 
z
" clip-path="url(#pc038bcb147)" style="fill: #1f77b4"/>
   </g>
   <g id="patch_77">
    <path d="M 180.51419 273.312 
L 182.12704 273.312 
L 182.12704 37.86774 
L 180.51419 37.86774 
z
" clip-path="url(#pc038bcb147)" style="fill: #1f77b4"/>
   </g>
   <g id="patch_78">
    <path d="M 182.12704 273.312 
L 183.739891 273.312 
L 183.739891 74.609041 
L 182.12704 74.609041 
z
" clip-path="url(#pc038bcb147)" style="fill: #1f77b4"/>
   </g>
   <g id="patch_79">
    <path d="M 183.739891 273.312 
L 185.352742 273.312 
L 185.352742 59.612592 
L 183.739891 59.612592 
z
" clip-path="url(#pc038bcb147)" style="fill: #1f77b4"/>
   </g>
   <g id="patch_80">
    <path d="M 185.352742 273.312 
L 186.965592 273.312 
L 186.965592 57.363124 
L 185.352742 57.363124 
z
" clip-path="url(#pc038bcb147)" style="fill: #1f77b4"/>
   </g>
   <g id="patch_81">
    <path d="M 186.965592 273.312 
L 188.578443 273.312 
L 188.578443 60.362414 
L 186.965592 60.362414 
z
" clip-path="url(#pc038bcb147)" style="fill: #1f77b4"/>
   </g>
   <g id="patch_82">
    <path d="M 188.578443 273.312 
L 190.191294 273.312 
L 190.191294 48.365254 
L 188.578443 48.365254 
z
" clip-path="url(#pc038bcb147)" style="fill: #1f77b4"/>
   </g>
   <g id="patch_83">
    <path d="M 190.191294 273.312 
L 191.804144 273.312 
L 191.804144 64.861349 
L 190.191294 64.861349 
z
" clip-path="url(#pc038bcb147)" style="fill: #1f77b4"/>
   </g>
   <g id="patch_84">
    <path d="M 191.804144 273.312 
L 193.416995 273.312 
L 193.416995 23.621112 
L 191.804144 23.621112 
z
" clip-path="url(#pc038bcb147)" style="fill: #1f77b4"/>
   </g>
   <g id="patch_85">
    <path d="M 193.416995 273.312 
L 195.029846 273.312 
L 195.029846 38.617562 
L 193.416995 38.617562 
z
" clip-path="url(#pc038bcb147)" style="fill: #1f77b4"/>
   </g>
   <g id="patch_86">
    <path d="M 195.029846 273.312 
L 196.642696 273.312 
L 196.642696 53.614012 
L 195.029846 53.614012 
z
" clip-path="url(#pc038bcb147)" style="fill: #1f77b4"/>
   </g>
   <g id="patch_87">
    <path d="M 196.642696 273.312 
L 198.255547 273.312 
L 198.255547 63.361704 
L 196.642696 63.361704 
z
" clip-path="url(#pc038bcb147)" style="fill: #1f77b4"/>
   </g>
   <g id="patch_88">
    <path d="M 198.255547 273.312 
L 199.868398 273.312 
L 199.868398 19.872 
L 198.255547 19.872 
z
" clip-path="url(#pc038bcb147)" style="fill: #1f77b4"/>
   </g>
   <g id="patch_89">
    <path d="M 199.868398 273.312 
L 201.481248 273.312 
L 201.481248 33.368805 
L 199.868398 33.368805 
z
" clip-path="url(#pc038bcb147)" style="fill: #1f77b4"/>
   </g>
   <g id="patch_90">
    <path d="M 201.481248 273.312 
L 203.094099 273.312 
L 203.094099 35.618272 
L 201.481248 35.618272 
z
" clip-path="url(#pc038bcb147)" style="fill: #1f77b4"/>
   </g>
   <g id="patch_91">
    <path d="M 203.094099 273.312 
L 204.70695 273.312 
L 204.70695 67.860639 
L 203.094099 67.860639 
z
" clip-path="url(#pc038bcb147)" style="fill: #1f77b4"/>
   </g>
   <g id="patch_92">
    <path d="M 204.70695 273.312 
L 206.319801 273.312 
L 206.319801 34.118627 
L 204.70695 34.118627 
z
" clip-path="url(#pc038bcb147)" style="fill: #1f77b4"/>
   </g>
   <g id="patch_93">
    <path d="M 206.319801 273.312 
L 207.932651 273.312 
L 207.932651 35.618272 
L 206.319801 35.618272 
z
" clip-path="url(#pc038bcb147)" style="fill: #1f77b4"/>
   </g>
   <g id="patch_94">
    <path d="M 207.932651 273.312 
L 209.545502 273.312 
L 209.545502 46.865609 
L 207.932651 46.865609 
z
" clip-path="url(#pc038bcb147)" style="fill: #1f77b4"/>
   </g>
   <g id="patch_95">
    <path d="M 209.545502 273.312 
L 211.158353 273.312 
L 211.158353 24.370935 
L 209.545502 24.370935 
z
" clip-path="url(#pc038bcb147)" style="fill: #1f77b4"/>
   </g>
   <g id="patch_96">
    <path d="M 211.158353 273.312 
L 212.771203 273.312 
L 212.771203 50.614722 
L 211.158353 50.614722 
z
" clip-path="url(#pc038bcb147)" style="fill: #1f77b4"/>
   </g>
   <g id="patch_97">
    <path d="M 212.771203 273.312 
L 214.384054 273.312 
L 214.384054 19.872 
L 212.771203 19.872 
z
" clip-path="url(#pc038bcb147)" style="fill: #1f77b4"/>
   </g>
   <g id="patch_98">
    <path d="M 214.384054 273.312 
L 215.996905 273.312 
L 215.996905 56.613302 
L 214.384054 56.613302 
z
" clip-path="url(#pc038bcb147)" style="fill: #1f77b4"/>
   </g>
   <g id="patch_99">
    <path d="M 215.996905 273.312 
L 217.609755 273.312 
L 217.609755 41.616852 
L 215.996905 41.616852 
z
" clip-path="url(#pc038bcb147)" style="fill: #1f77b4"/>
   </g>
   <g id="patch_100">
    <path d="M 217.609755 273.312 
L 219.222606 273.312 
L 219.222606 34.86845 
L 217.609755 34.86845 
z
" clip-path="url(#pc038bcb147)" style="fill: #1f77b4"/>
   </g>
   <g id="patch_101">
    <path d="M 219.222606 273.312 
L 220.835457 273.312 
L 220.835457 39.367385 
L 219.222606 39.367385 
z
" clip-path="url(#pc038bcb147)" style="fill: #1f77b4"/>
   </g>
   <g id="patch_102">
    <path d="M 220.835457 273.312 
L 222.448307 273.312 
L 222.448307 49.864899 
L 220.835457 49.864899 
z
" clip-path="url(#pc038bcb147)" style="fill: #1f77b4"/>
   </g>
   <g id="patch_103">
    <path d="M 222.448307 273.312 
L 224.061158 273.312 
L 224.061158 76.108686 
L 222.448307 76.108686 
z
" clip-path="url(#pc038bcb147)" style="fill: #1f77b4"/>
   </g>
   <g id="patch_104">
    <path d="M 224.061158 273.312 
L 225.674009 273.312 
L 225.674009 50.614722 
L 224.061158 50.614722 
z
" clip-path="url(#pc038bcb147)" style="fill: #1f77b4"/>
   </g>
   <g id="patch_105">
    <path d="M 225.674009 273.312 
L 227.286859 273.312 
L 227.286859 49.864899 
L 225.674009 49.864899 
z
" clip-path="url(#pc038bcb147)" style="fill: #1f77b4"/>
   </g>
   <g id="patch_106">
    <path d="M 227.286859 273.312 
L 228.89971 273.312 
L 228.89971 49.115077 
L 227.286859 49.115077 
z
" clip-path="url(#pc038bcb147)" style="fill: #1f77b4"/>
   </g>
   <g id="patch_107">
    <path d="M 228.89971 273.312 
L 230.512561 273.312 
L 230.512561 52.864189 
L 228.89971 52.864189 
z
" clip-path="url(#pc038bcb147)" style="fill: #1f77b4"/>
   </g>
   <g id="patch_108">
    <path d="M 230.512561 273.312 
L 232.125411 273.312 
L 232.125411 32.618982 
L 230.512561 32.618982 
z
" clip-path="url(#pc038bcb147)" style="fill: #1f77b4"/>
   </g>
   <g id="patch_109">
    <path d="M 232.125411 273.312 
L 233.738262 273.312 
L 233.738262 41.616852 
L 232.125411 41.616852 
z
" clip-path="url(#pc038bcb147)" style="fill: #1f77b4"/>
   </g>
   <g id="patch_110">
    <path d="M 233.738262 273.312 
L 235.351113 273.312 
L 235.351113 45.365964 
L 233.738262 45.365964 
z
" clip-path="url(#pc038bcb147)" style="fill: #1f77b4"/>
   </g>
   <g id="patch_111">
    <path d="M 235.351113 273.312 
L 236.963963 273.312 
L 236.963963 68.610462 
L 235.351113 68.610462 
z
" clip-path="url(#pc038bcb147)" style="fill: #1f77b4"/>
   </g>
   <g id="patch_112">
    <path d="M 236.963963 273.312 
L 238.576814 273.312 
L 238.576814 44.616142 
L 236.963963 44.616142 
z
" clip-path="url(#pc038bcb147)" style="fill: #1f77b4"/>
   </g>
   <g id="patch_113">
    <path d="M 238.576814 273.312 
L 240.189665 273.312 
L 240.189665 30.369515 
L 238.576814 30.369515 
z
" clip-path="url(#pc038bcb147)" style="fill: #1f77b4"/>
   </g>
   <g id="patch_114">
    <path d="M 240.189665 273.312 
L 241.802515 273.312 
L 241.802515 43.116497 
L 240.189665 43.116497 
z
" clip-path="url(#pc038bcb147)" style="fill: #1f77b4"/>
   </g>
   <g id="patch_115">
    <path d="M 241.802515 273.312 
L 243.415366 273.312 
L 243.415366 43.86632 
L 241.802515 43.86632 
z
" clip-path="url(#pc038bcb147)" style="fill: #1f77b4"/>
   </g>
   <g id="patch_116">
    <path d="M 243.415366 273.312 
L 245.028217 273.312 
L 245.028217 44.616142 
L 243.415366 44.616142 
z
" clip-path="url(#pc038bcb147)" style="fill: #1f77b4"/>
   </g>
   <g id="patch_117">
    <path d="M 245.028217 273.312 
L 246.641068 273.312 
L 246.641068 49.864899 
L 245.028217 49.864899 
z
" clip-path="url(#pc038bcb147)" style="fill: #1f77b4"/>
   </g>
   <g id="patch_118">
    <path d="M 246.641068 273.312 
L 248.253918 273.312 
L 248.253918 55.113657 
L 246.641068 55.113657 
z
" clip-path="url(#pc038bcb147)" style="fill: #1f77b4"/>
   </g>
   <g id="patch_119">
    <path d="M 248.253918 273.312 
L 249.866769 273.312 
L 249.866769 58.862769 
L 248.253918 58.862769 
z
" clip-path="url(#pc038bcb147)" style="fill: #1f77b4"/>
   </g>
   <g id="patch_120">
    <path d="M 249.866769 273.312 
L 251.47962 273.312 
L 251.47962 60.362414 
L 249.866769 60.362414 
z
" clip-path="url(#pc038bcb147)" style="fill: #1f77b4"/>
   </g>
   <g id="patch_121">
    <path d="M 251.47962 273.312 
L 253.09247 273.312 
L 253.09247 36.368095 
L 251.47962 36.368095 
z
" clip-path="url(#pc038bcb147)" style="fill: #1f77b4"/>
   </g>
   <g id="patch_122">
    <path d="M 253.09247 273.312 
L 254.705321 273.312 
L 254.705321 37.117917 
L 253.09247 37.117917 
z
" clip-path="url(#pc038bcb147)" style="fill: #1f77b4"/>
   </g>
   <g id="patch_123">
    <path d="M 254.705321 273.312 
L 256.318172 273.312 
L 256.318172 73.859219 
L 254.705321 73.859219 
z
" clip-path="url(#pc038bcb147)" style="fill: #1f77b4"/>
   </g>
   <g id="patch_124">
    <path d="M 256.318172 273.312 
L 257.931022 273.312 
L 257.931022 52.114367 
L 256.318172 52.114367 
z
" clip-path="url(#pc038bcb147)" style="fill: #1f77b4"/>
   </g>
   <g id="patch_125">
    <path d="M 257.931022 273.312 
L 259.543873 273.312 
L 259.543873 46.865609 
L 257.931022 46.865609 
z
" clip-path="url(#pc038bcb147)" style="fill: #1f77b4"/>
   </g>
   <g id="patch_126">
    <path d="M 259.543873 273.312 
L 261.156724 273.312 
L 261.156724 31.119337 
L 259.543873 31.119337 
z
" clip-path="url(#pc038bcb147)" style="fill: #1f77b4"/>
   </g>
   <g id="patch_127">
    <path d="M 261.156724 273.312 
L 262.769574 273.312 
L 262.769574 57.363124 
L 261.156724 57.363124 
z
" clip-path="url(#pc038bcb147)" style="fill: #1f77b4"/>
   </g>
   <g id="patch_128">
    <path d="M 262.769574 273.312 
L 264.382425 273.312 
L 264.382425 43.86632 
L 262.769574 43.86632 
z
" clip-path="url(#pc038bcb147)" style="fill: #1f77b4"/>
   </g>
   <g id="patch_129">
    <path d="M 264.382425 273.312 
L 265.995276 273.312 
L 265.995276 55.863479 
L 264.382425 55.863479 
z
" clip-path="url(#pc038bcb147)" style="fill: #1f77b4"/>
   </g>
   <g id="patch_130">
    <path d="M 265.995276 273.312 
L 267.608126 273.312 
L 267.608126 64.111527 
L 265.995276 64.111527 
z
" clip-path="url(#pc038bcb147)" style="fill: #1f77b4"/>
   </g>
   <g id="patch_131">
    <path d="M 267.608126 273.312 
L 269.220977 273.312 
L 269.220977 45.365964 
L 267.608126 45.365964 
z
" clip-path="url(#pc038bcb147)" style="fill: #1f77b4"/>
   </g>
   <g id="patch_132">
    <path d="M 269.220977 273.312 
L 270.833828 273.312 
L 270.833828 62.611882 
L 269.220977 62.611882 
z
" clip-path="url(#pc038bcb147)" style="fill: #1f77b4"/>
   </g>
   <g id="patch_133">
    <path d="M 270.833828 273.312 
L 272.446678 273.312 
L 272.446678 79.107976 
L 270.833828 79.107976 
z
" clip-path="url(#pc038bcb147)" style="fill: #1f77b4"/>
   </g>
   <g id="patch_134">
    <path d="M 272.446678 273.312 
L 274.059529 273.312 
L 274.059529 86.606201 
L 272.446678 86.606201 
z
" clip-path="url(#pc038bcb147)" style="fill: #1f77b4"/>
   </g>
   <g id="patch_135">
    <path d="M 274.059529 273.312 
L 275.67238 273.312 
L 275.67238 84.356734 
L 274.059529 84.356734 
z
" clip-path="url(#pc038bcb147)" style="fill: #1f77b4"/>
   </g>
   <g id="patch_136">
    <path d="M 275.67238 273.312 
L 277.28523 273.312 
L 277.28523 66.360994 
L 275.67238 66.360994 
z
" clip-path="url(#pc038bcb147)" style="fill: #1f77b4"/>
   </g>
   <g id="patch_137">
    <path d="M 277.28523 273.312 
L 278.898081 273.312 
L 278.898081 90.355314 
L 277.28523 90.355314 
z
" clip-path="url(#pc038bcb147)" style="fill: #1f77b4"/>
   </g>
   <g id="patch_138">
    <path d="M 278.898081 273.312 
L 280.510932 273.312 
L 280.510932 61.112237 
L 278.898081 61.112237 
z
" clip-path="url(#pc038bcb147)" style="fill: #1f77b4"/>
   </g>
   <g id="patch_139">
    <path d="M 280.510932 273.312 
L 282.123782 273.312 
L 282.123782 92.604781 
L 280.510932 92.604781 
z
" clip-path="url(#pc038bcb147)" style="fill: #1f77b4"/>
   </g>
   <g id="patch_140">
    <path d="M 282.123782 273.312 
L 283.736633 273.312 
L 283.736633 72.359574 
L 282.123782 72.359574 
z
" clip-path="url(#pc038bcb147)" style="fill: #1f77b4"/>
   </g>
   <g id="patch_141">
    <path d="M 283.736633 273.312 
L 285.349484 273.312 
L 285.349484 66.360994 
L 283.736633 66.360994 
z
" clip-path="url(#pc038bcb147)" style="fill: #1f77b4"/>
   </g>
   <g id="patch_142">
    <path d="M 285.349484 273.312 
L 286.962335 273.312 
L 286.962335 94.104426 
L 285.349484 94.104426 
z
" clip-path="url(#pc038bcb147)" style="fill: #1f77b4"/>
   </g>
   <g id="patch_143">
    <path d="M 286.962335 273.312 
L 288.575185 273.312 
L 288.575185 88.105846 
L 286.962335 88.105846 
z
" clip-path="url(#pc038bcb147)" style="fill: #1f77b4"/>
   </g>
   <g id="patch_144">
    <path d="M 288.575185 273.312 
L 290.188036 273.312 
L 290.188036 81.357444 
L 288.575185 81.357444 
z
" clip-path="url(#pc038bcb147)" style="fill: #1f77b4"/>
   </g>
   <g id="patch_145">
    <path d="M 290.188036 273.312 
L 291.800887 273.312 
L 291.800887 83.606911 
L 290.188036 83.606911 
z
" clip-path="url(#pc038bcb147)" style="fill: #1f77b4"/>
   </g>
   <g id="patch_146">
    <path d="M 291.800887 273.312 
L 293.413737 273.312 
L 293.413737 78.358154 
L 291.800887 78.358154 
z
" clip-path="url(#pc038bcb147)" style="fill: #1f77b4"/>
   </g>
   <g id="patch_147">
    <path d="M 293.413737 273.312 
L 295.026588 273.312 
L 295.026588 93.354604 
L 293.413737 93.354604 
z
" clip-path="url(#pc038bcb147)" style="fill: #1f77b4"/>
   </g>
   <g id="patch_148">
    <path d="M 295.026588 273.312 
L 296.639439 273.312 
L 296.639439 120.348213 
L 295.026588 120.348213 
z
" clip-path="url(#pc038bcb147)" style="fill: #1f77b4"/>
   </g>
   <g id="patch_149">
    <path d="M 296.639439 273.312 
L 298.252289 273.312 
L 298.252289 100.103006 
L 296.639439 100.103006 
z
" clip-path="url(#pc038bcb147)" style="fill: #1f77b4"/>
   </g>
   <g id="patch_150">
    <path d="M 298.252289 273.312 
L 299.86514 273.312 
L 299.86514 108.351053 
L 298.252289 108.351053 
z
" clip-path="url(#pc038bcb147)" style="fill: #1f77b4"/>
   </g>
   <g id="patch_151">
    <path d="M 299.86514 273.312 
L 301.477991 273.312 
L 301.477991 115.099456 
L 299.86514 115.099456 
z
" clip-path="url(#pc038bcb147)" style="fill: #1f77b4"/>
   </g>
   <g id="patch_152">
    <path d="M 301.477991 273.312 
L 303.090841 273.312 
L 303.090841 103.852118 
L 301.477991 103.852118 
z
" clip-path="url(#pc038bcb147)" style="fill: #1f77b4"/>
   </g>
   <g id="patch_153">
    <path d="M 303.090841 273.312 
L 304.703692 273.312 
L 304.703692 97.103716 
L 303.090841 97.103716 
z
" clip-path="url(#pc038bcb147)" style="fill: #1f77b4"/>
   </g>
   <g id="patch_154">
    <path d="M 304.703692 273.312 
L 306.316543 273.312 
L 306.316543 103.102296 
L 304.703692 103.102296 
z
" clip-path="url(#pc038bcb147)" style="fill: #1f77b4"/>
   </g>
   <g id="patch_155">
    <path d="M 306.316543 273.312 
L 307.929393 273.312 
L 307.929393 103.102296 
L 306.316543 103.102296 
z
" clip-path="url(#pc038bcb147)" style="fill: #1f77b4"/>
   </g>
   <g id="patch_156">
    <path d="M 307.929393 273.312 
L 309.542244 273.312 
L 309.542244 118.848568 
L 307.929393 118.848568 
z
" clip-path="url(#pc038bcb147)" style="fill: #1f77b4"/>
   </g>
   <g id="patch_157">
    <path d="M 309.542244 273.312 
L 311.155095 273.312 
L 311.155095 106.851408 
L 309.542244 106.851408 
z
" clip-path="url(#pc038bcb147)" style="fill: #1f77b4"/>
   </g>
   <g id="patch_158">
    <path d="M 311.155095 273.312 
L 312.767945 273.312 
L 312.767945 134.59484 
L 311.155095 134.59484 
z
" clip-path="url(#pc038bcb147)" style="fill: #1f77b4"/>
   </g>
   <g id="patch_159">
    <path d="M 312.767945 273.312 
L 314.380796 273.312 
L 314.380796 114.349633 
L 312.767945 114.349633 
z
" clip-path="url(#pc038bcb147)" style="fill: #1f77b4"/>
   </g>
   <g id="patch_160">
    <path d="M 314.380796 273.312 
L 315.993647 273.312 
L 315.993647 134.59484 
L 314.380796 134.59484 
z
" clip-path="url(#pc038bcb147)" style="fill: #1f77b4"/>
   </g>
   <g id="patch_161">
    <path d="M 315.993647 273.312 
L 317.606497 273.312 
L 317.606497 121.847858 
L 315.993647 121.847858 
z
" clip-path="url(#pc038bcb147)" style="fill: #1f77b4"/>
   </g>
   <g id="patch_162">
    <path d="M 317.606497 273.312 
L 319.219348 273.312 
L 319.219348 120.348213 
L 317.606497 120.348213 
z
" clip-path="url(#pc038bcb147)" style="fill: #1f77b4"/>
   </g>
   <g id="patch_163">
    <path d="M 319.219348 273.312 
L 320.832199 273.312 
L 320.832199 142.093065 
L 319.219348 142.093065 
z
" clip-path="url(#pc038bcb147)" style="fill: #1f77b4"/>
   </g>
   <g id="patch_164">
    <path d="M 320.832199 273.312 
L 322.44505 273.312 
L 322.44505 154.840047 
L 320.832199 154.840047 
z
" clip-path="url(#pc038bcb147)" style="fill: #1f77b4"/>
   </g>
   <g id="patch_165">
    <path d="M 322.44505 273.312 
L 324.0579 273.312 
L 324.0579 166.087385 
L 322.44505 166.087385 
z
" clip-path="url(#pc038bcb147)" style="fill: #1f77b4"/>
   </g>
   <g id="patch_166">
    <path d="M 324.0579 273.312 
L 325.670751 273.312 
L 325.670751 148.091645 
L 324.0579 148.091645 
z
" clip-path="url(#pc038bcb147)" style="fill: #1f77b4"/>
   </g>
   <g id="patch_167">
    <path d="M 325.670751 273.312 
L 327.283602 273.312 
L 327.283602 158.58916 
L 325.670751 158.58916 
z
" clip-path="url(#pc038bcb147)" style="fill: #1f77b4"/>
   </g>
   <g id="patch_168">
    <path d="M 327.283602 273.312 
L 328.896452 273.312 
L 328.896452 144.342533 
L 327.283602 144.342533 
z
" clip-path="url(#pc038bcb147)" style="fill: #1f77b4"/>
   </g>
   <g id="patch_169">
    <path d="M 328.896452 273.312 
L 330.509303 273.312 
L 330.509303 157.839337 
L 328.896452 157.839337 
z
" clip-path="url(#pc038bcb147)" style="fill: #1f77b4"/>
   </g>
   <g id="patch_170">
    <path d="M 330.509303 273.312 
L 332.122154 273.312 
L 332.122154 169.836497 
L 330.509303 169.836497 
z
" clip-path="url(#pc038bcb147)" style="fill: #1f77b4"/>
   </g>
   <g id="patch_171">
    <path d="M 332.122154 273.312 
L 333.735004 273.312 
L 333.735004 175.085254 
L 332.122154 175.085254 
z
" clip-path="url(#pc038bcb147)" style="fill: #1f77b4"/>
   </g>
   <g id="patch_172">
    <path d="M 333.735004 273.312 
L 335.347855 273.312 
L 335.347855 158.58916 
L 333.735004 158.58916 
z
" clip-path="url(#pc038bcb147)" style="fill: #1f77b4"/>
   </g>
   <g id="patch_173">
    <path d="M 335.347855 273.312 
L 336.960706 273.312 
L 336.960706 169.086675 
L 335.347855 169.086675 
z
" clip-path="url(#pc038bcb147)" style="fill: #1f77b4"/>
   </g>
   <g id="patch_174">
    <path d="M 336.960706 273.312 
L 338.573556 273.312 
L 338.573556 157.089515 
L 336.960706 157.089515 
z
" clip-path="url(#pc038bcb147)" style="fill: #1f77b4"/>
   </g>
   <g id="patch_175">
    <path d="M 338.573556 273.312 
L 340.186407 273.312 
L 340.186407 178.084544 
L 338.573556 178.084544 
z
" clip-path="url(#pc038bcb147)" style="fill: #1f77b4"/>
   </g>
   <g id="patch_176">
    <path d="M 340.186407 273.312 
L 341.799258 273.312 
L 341.799258 184.083124 
L 340.186407 184.083124 
z
" clip-path="url(#pc038bcb147)" style="fill: #1f77b4"/>
   </g>
   <g id="patch_177">
    <path d="M 341.799258 273.312 
L 343.412108 273.312 
L 343.412108 166.837207 
L 341.799258 166.837207 
z
" clip-path="url(#pc038bcb147)" style="fill: #1f77b4"/>
   </g>
   <g id="patch_178">
    <path d="M 343.412108 273.312 
L 345.024959 273.312 
L 345.024959 192.331172 
L 343.412108 192.331172 
z
" clip-path="url(#pc038bcb147)" style="fill: #1f77b4"/>
   </g>
   <g id="patch_179">
    <path d="M 345.024959 273.312 
L 346.63781 273.312 
L 346.63781 191.581349 
L 345.024959 191.581349 
z
" clip-path="url(#pc038bcb147)" style="fill: #1f77b4"/>
   </g>
   <g id="patch_180">
    <path d="M 346.63781 273.312 
L 348.25066 273.312 
L 348.25066 190.081704 
L 346.63781 190.081704 
z
" clip-path="url(#pc038bcb147)" style="fill: #1f77b4"/>
   </g>
   <g id="patch_181">
    <path d="M 348.25066 273.312 
L 349.863511 273.312 
L 349.863511 195.330462 
L 348.25066 195.330462 
z
" clip-path="url(#pc038bcb147)" style="fill: #1f77b4"/>
   </g>
   <g id="patch_182">
    <path d="M 349.863511 273.312 
L 351.476362 273.312 
L 351.476362 196.080284 
L 349.863511 196.080284 
z
" clip-path="url(#pc038bcb147)" style="fill: #1f77b4"/>
   </g>
   <g id="patch_183">
    <path d="M 351.476362 273.312 
L 353.089212 273.312 
L 353.089212 199.079574 
L 351.476362 199.079574 
z
" clip-path="url(#pc038bcb147)" style="fill: #1f77b4"/>
   </g>
   <g id="patch_184">
    <path d="M 353.089212 273.312 
L 354.702063 273.312 
L 354.702063 195.330462 
L 353.089212 195.330462 
z
" clip-path="url(#pc038bcb147)" style="fill: #1f77b4"/>
   </g>
   <g id="patch_185">
    <path d="M 354.702063 273.312 
L 356.314914 273.312 
L 356.314914 200.579219 
L 354.702063 200.579219 
z
" clip-path="url(#pc038bcb147)" style="fill: #1f77b4"/>
   </g>
   <g id="patch_186">
    <path d="M 356.314914 273.312 
L 357.927764 273.312 
L 357.927764 217.075314 
L 356.314914 217.075314 
z
" clip-path="url(#pc038bcb147)" style="fill: #1f77b4"/>
   </g>
   <g id="patch_187">
    <path d="M 357.927764 273.312 
L 359.540615 273.312 
L 359.540615 217.075314 
L 357.927764 217.075314 
z
" clip-path="url(#pc038bcb147)" style="fill: #1f77b4"/>
   </g>
   <g id="patch_188">
    <path d="M 359.540615 273.312 
L 361.153466 273.312 
L 361.153466 216.325491 
L 359.540615 216.325491 
z
" clip-path="url(#pc038bcb147)" style="fill: #1f77b4"/>
   </g>
   <g id="patch_189">
    <path d="M 361.153466 273.312 
L 362.766317 273.312 
L 362.766317 211.826556 
L 361.153466 211.826556 
z
" clip-path="url(#pc038bcb147)" style="fill: #1f77b4"/>
   </g>
   <g id="patch_190">
    <path d="M 362.766317 273.312 
L 364.379167 273.312 
L 364.379167 217.825136 
L 362.766317 217.825136 
z
" clip-path="url(#pc038bcb147)" style="fill: #1f77b4"/>
   </g>
   <g id="patch_191">
    <path d="M 364.379167 273.312 
L 365.992018 273.312 
L 365.992018 239.569988 
L 364.379167 239.569988 
z
" clip-path="url(#pc038bcb147)" style="fill: #1f77b4"/>
   </g>
   <g id="patch_192">
    <path d="M 365.992018 273.312 
L 367.604869 273.312 
L 367.604869 239.569988 
L 365.992018 239.569988 
z
" clip-path="url(#pc038bcb147)" style="fill: #1f77b4"/>
   </g>
   <g id="patch_193">
    <path d="M 367.604869 273.312 
L 369.217719 273.312 
L 369.217719 241.069633 
L 367.604869 241.069633 
z
" clip-path="url(#pc038bcb147)" style="fill: #1f77b4"/>
   </g>
   <g id="patch_194">
    <path d="M 369.217719 273.312 
L 370.83057 273.312 
L 370.83057 238.820166 
L 369.217719 238.820166 
z
" clip-path="url(#pc038bcb147)" style="fill: #1f77b4"/>
   </g>
   <g id="patch_195">
    <path d="M 370.83057 273.312 
L 372.443421 273.312 
L 372.443421 236.570698 
L 370.83057 236.570698 
z
" clip-path="url(#pc038bcb147)" style="fill: #1f77b4"/>
   </g>
   <g id="patch_196">
    <path d="M 372.443421 273.312 
L 374.056271 273.312 
L 374.056271 247.818036 
L 372.443421 247.818036 
z
" clip-path="url(#pc038bcb147)" style="fill: #1f77b4"/>
   </g>
   <g id="patch_197">
    <path d="M 374.056271 273.312 
L 375.669122 273.312 
L 375.669122 250.067503 
L 374.056271 250.067503 
z
" clip-path="url(#pc038bcb147)" style="fill: #1f77b4"/>
   </g>
   <g id="patch_198">
    <path d="M 375.669122 273.312 
L 377.281973 273.312 
L 377.281973 254.566438 
L 375.669122 254.566438 
z
" clip-path="url(#pc038bcb147)" style="fill: #1f77b4"/>
   </g>
   <g id="patch_199">
    <path d="M 377.281973 273.312 
L 378.894823 273.312 
L 378.894823 256.815905 
L 377.281973 256.815905 
z
" clip-path="url(#pc038bcb147)" style="fill: #1f77b4"/>
   </g>
   <g id="patch_200">
    <path d="M 378.894823 273.312 
L 380.507674 273.312 
L 380.507674 265.063953 
L 378.894823 265.063953 
z
" clip-path="url(#pc038bcb147)" style="fill: #1f77b4"/>
   </g>
   <g id="patch_201">
    <path d="M 380.507674 273.312 
L 382.120525 273.312 
L 382.120525 266.563598 
L 380.507674 266.563598 
z
" clip-path="url(#pc038bcb147)" style="fill: #1f77b4"/>
   </g>
   <g id="patch_202">
    <path d="M 382.120525 273.312 
L 383.733375 273.312 
L 383.733375 271.062533 
L 382.120525 271.062533 
z
" clip-path="url(#pc038bcb147)" style="fill: #1f77b4"/>
   </g>
   <g id="matplotlib.axis_1">
    <g id="xtick_1">
     <g id="line2d_1">
      <defs>
       <path id="m365b187f02" d="M 0 0 
L 0 3.5 
" style="stroke: #000000; stroke-width: 0.8"/>
      </defs>
      <g>
       <use xlink:href="#m365b187f02" x="60.013977" y="273.312" style="stroke: #000000; stroke-width: 0.8"/>
      </g>
     </g>
     <g id="text_1">
      <!-- 0.0 -->
      <g transform="translate(52.062415 287.910437)scale(0.1 -0.1)">
       <defs>
        <path id="DejaVuSans-30" d="M 2034 4250 
Q 1547 4250 1301 3770 
Q 1056 3291 1056 2328 
Q 1056 1369 1301 889 
Q 1547 409 2034 409 
Q 2525 409 2770 889 
Q 3016 1369 3016 2328 
Q 3016 3291 2770 3770 
Q 2525 4250 2034 4250 
z
M 2034 4750 
Q 2819 4750 3233 4129 
Q 3647 3509 3647 2328 
Q 3647 1150 3233 529 
Q 2819 -91 2034 -91 
Q 1250 -91 836 529 
Q 422 1150 422 2328 
Q 422 3509 836 4129 
Q 1250 4750 2034 4750 
z
" transform="scale(0.015625)"/>
        <path id="DejaVuSans-2e" d="M 684 794 
L 1344 794 
L 1344 0 
L 684 0 
L 684 794 
z
" transform="scale(0.015625)"/>
       </defs>
       <use xlink:href="#DejaVuSans-30"/>
       <use xlink:href="#DejaVuSans-2e" x="63.623047"/>
       <use xlink:href="#DejaVuSans-30" x="95.410156"/>
      </g>
     </g>
    </g>
    <g id="xtick_2">
     <g id="line2d_2">
      <g>
       <use xlink:href="#m365b187f02" x="101.350278" y="273.312" style="stroke: #000000; stroke-width: 0.8"/>
      </g>
     </g>
     <g id="text_2">
      <!-- 0.2 -->
      <g transform="translate(93.398715 287.910437)scale(0.1 -0.1)">
       <defs>
        <path id="DejaVuSans-32" d="M 1228 531 
L 3431 531 
L 3431 0 
L 469 0 
L 469 531 
Q 828 903 1448 1529 
Q 2069 2156 2228 2338 
Q 2531 2678 2651 2914 
Q 2772 3150 2772 3378 
Q 2772 3750 2511 3984 
Q 2250 4219 1831 4219 
Q 1534 4219 1204 4116 
Q 875 4013 500 3803 
L 500 4441 
Q 881 4594 1212 4672 
Q 1544 4750 1819 4750 
Q 2544 4750 2975 4387 
Q 3406 4025 3406 3419 
Q 3406 3131 3298 2873 
Q 3191 2616 2906 2266 
Q 2828 2175 2409 1742 
Q 1991 1309 1228 531 
z
" transform="scale(0.015625)"/>
       </defs>
       <use xlink:href="#DejaVuSans-30"/>
       <use xlink:href="#DejaVuSans-2e" x="63.623047"/>
       <use xlink:href="#DejaVuSans-32" x="95.410156"/>
      </g>
     </g>
    </g>
    <g id="xtick_3">
     <g id="line2d_3">
      <g>
       <use xlink:href="#m365b187f02" x="142.686578" y="273.312" style="stroke: #000000; stroke-width: 0.8"/>
      </g>
     </g>
     <g id="text_3">
      <!-- 0.4 -->
      <g transform="translate(134.735016 287.910437)scale(0.1 -0.1)">
       <defs>
        <path id="DejaVuSans-34" d="M 2419 4116 
L 825 1625 
L 2419 1625 
L 2419 4116 
z
M 2253 4666 
L 3047 4666 
L 3047 1625 
L 3713 1625 
L 3713 1100 
L 3047 1100 
L 3047 0 
L 2419 0 
L 2419 1100 
L 313 1100 
L 313 1709 
L 2253 4666 
z
" transform="scale(0.015625)"/>
       </defs>
       <use xlink:href="#DejaVuSans-30"/>
       <use xlink:href="#DejaVuSans-2e" x="63.623047"/>
       <use xlink:href="#DejaVuSans-34" x="95.410156"/>
      </g>
     </g>
    </g>
    <g id="xtick_4">
     <g id="line2d_4">
      <g>
       <use xlink:href="#m365b187f02" x="184.022879" y="273.312" style="stroke: #000000; stroke-width: 0.8"/>
      </g>
     </g>
     <g id="text_4">
      <!-- 0.6 -->
      <g transform="translate(176.071316 287.910437)scale(0.1 -0.1)">
       <defs>
        <path id="DejaVuSans-36" d="M 2113 2584 
Q 1688 2584 1439 2293 
Q 1191 2003 1191 1497 
Q 1191 994 1439 701 
Q 1688 409 2113 409 
Q 2538 409 2786 701 
Q 3034 994 3034 1497 
Q 3034 2003 2786 2293 
Q 2538 2584 2113 2584 
z
M 3366 4563 
L 3366 3988 
Q 3128 4100 2886 4159 
Q 2644 4219 2406 4219 
Q 1781 4219 1451 3797 
Q 1122 3375 1075 2522 
Q 1259 2794 1537 2939 
Q 1816 3084 2150 3084 
Q 2853 3084 3261 2657 
Q 3669 2231 3669 1497 
Q 3669 778 3244 343 
Q 2819 -91 2113 -91 
Q 1303 -91 875 529 
Q 447 1150 447 2328 
Q 447 3434 972 4092 
Q 1497 4750 2381 4750 
Q 2619 4750 2861 4703 
Q 3103 4656 3366 4563 
z
" transform="scale(0.015625)"/>
       </defs>
       <use xlink:href="#DejaVuSans-30"/>
       <use xlink:href="#DejaVuSans-2e" x="63.623047"/>
       <use xlink:href="#DejaVuSans-36" x="95.410156"/>
      </g>
     </g>
    </g>
    <g id="xtick_5">
     <g id="line2d_5">
      <g>
       <use xlink:href="#m365b187f02" x="225.35918" y="273.312" style="stroke: #000000; stroke-width: 0.8"/>
      </g>
     </g>
     <g id="text_5">
      <!-- 0.8 -->
      <g transform="translate(217.407617 287.910437)scale(0.1 -0.1)">
       <defs>
        <path id="DejaVuSans-38" d="M 2034 2216 
Q 1584 2216 1326 1975 
Q 1069 1734 1069 1313 
Q 1069 891 1326 650 
Q 1584 409 2034 409 
Q 2484 409 2743 651 
Q 3003 894 3003 1313 
Q 3003 1734 2745 1975 
Q 2488 2216 2034 2216 
z
M 1403 2484 
Q 997 2584 770 2862 
Q 544 3141 544 3541 
Q 544 4100 942 4425 
Q 1341 4750 2034 4750 
Q 2731 4750 3128 4425 
Q 3525 4100 3525 3541 
Q 3525 3141 3298 2862 
Q 3072 2584 2669 2484 
Q 3125 2378 3379 2068 
Q 3634 1759 3634 1313 
Q 3634 634 3220 271 
Q 2806 -91 2034 -91 
Q 1263 -91 848 271 
Q 434 634 434 1313 
Q 434 1759 690 2068 
Q 947 2378 1403 2484 
z
M 1172 3481 
Q 1172 3119 1398 2916 
Q 1625 2713 2034 2713 
Q 2441 2713 2670 2916 
Q 2900 3119 2900 3481 
Q 2900 3844 2670 4047 
Q 2441 4250 2034 4250 
Q 1625 4250 1398 4047 
Q 1172 3844 1172 3481 
z
" transform="scale(0.015625)"/>
       </defs>
       <use xlink:href="#DejaVuSans-30"/>
       <use xlink:href="#DejaVuSans-2e" x="63.623047"/>
       <use xlink:href="#DejaVuSans-38" x="95.410156"/>
      </g>
     </g>
    </g>
    <g id="xtick_6">
     <g id="line2d_6">
      <g>
       <use xlink:href="#m365b187f02" x="266.69548" y="273.312" style="stroke: #000000; stroke-width: 0.8"/>
      </g>
     </g>
     <g id="text_6">
      <!-- 1.0 -->
      <g transform="translate(258.743918 287.910437)scale(0.1 -0.1)">
       <defs>
        <path id="DejaVuSans-31" d="M 794 531 
L 1825 531 
L 1825 4091 
L 703 3866 
L 703 4441 
L 1819 4666 
L 2450 4666 
L 2450 531 
L 3481 531 
L 3481 0 
L 794 0 
L 794 531 
z
" transform="scale(0.015625)"/>
       </defs>
       <use xlink:href="#DejaVuSans-31"/>
       <use xlink:href="#DejaVuSans-2e" x="63.623047"/>
       <use xlink:href="#DejaVuSans-30" x="95.410156"/>
      </g>
     </g>
    </g>
    <g id="xtick_7">
     <g id="line2d_7">
      <g>
       <use xlink:href="#m365b187f02" x="308.031781" y="273.312" style="stroke: #000000; stroke-width: 0.8"/>
      </g>
     </g>
     <g id="text_7">
      <!-- 1.2 -->
      <g transform="translate(300.080218 287.910437)scale(0.1 -0.1)">
       <use xlink:href="#DejaVuSans-31"/>
       <use xlink:href="#DejaVuSans-2e" x="63.623047"/>
       <use xlink:href="#DejaVuSans-32" x="95.410156"/>
      </g>
     </g>
    </g>
    <g id="xtick_8">
     <g id="line2d_8">
      <g>
       <use xlink:href="#m365b187f02" x="349.368081" y="273.312" style="stroke: #000000; stroke-width: 0.8"/>
      </g>
     </g>
     <g id="text_8">
      <!-- 1.4 -->
      <g transform="translate(341.416519 287.910437)scale(0.1 -0.1)">
       <use xlink:href="#DejaVuSans-31"/>
       <use xlink:href="#DejaVuSans-2e" x="63.623047"/>
       <use xlink:href="#DejaVuSans-34" x="95.410156"/>
      </g>
     </g>
    </g>
    <g id="xtick_9">
     <g id="line2d_9">
      <g>
       <use xlink:href="#m365b187f02" x="390.704382" y="273.312" style="stroke: #000000; stroke-width: 0.8"/>
      </g>
     </g>
     <g id="text_9">
      <!-- 1.6 -->
      <g transform="translate(382.752819 287.910437)scale(0.1 -0.1)">
       <use xlink:href="#DejaVuSans-31"/>
       <use xlink:href="#DejaVuSans-2e" x="63.623047"/>
       <use xlink:href="#DejaVuSans-36" x="95.410156"/>
      </g>
     </g>
    </g>
    <g id="text_10">
     <!-- Angle with normal (rad) -->
     <g transform="translate(163.023281 301.588562)scale(0.1 -0.1)">
      <defs>
       <path id="DejaVuSans-41" d="M 2188 4044 
L 1331 1722 
L 3047 1722 
L 2188 4044 
z
M 1831 4666 
L 2547 4666 
L 4325 0 
L 3669 0 
L 3244 1197 
L 1141 1197 
L 716 0 
L 50 0 
L 1831 4666 
z
" transform="scale(0.015625)"/>
       <path id="DejaVuSans-6e" d="M 3513 2113 
L 3513 0 
L 2938 0 
L 2938 2094 
Q 2938 2591 2744 2837 
Q 2550 3084 2163 3084 
Q 1697 3084 1428 2787 
Q 1159 2491 1159 1978 
L 1159 0 
L 581 0 
L 581 3500 
L 1159 3500 
L 1159 2956 
Q 1366 3272 1645 3428 
Q 1925 3584 2291 3584 
Q 2894 3584 3203 3211 
Q 3513 2838 3513 2113 
z
" transform="scale(0.015625)"/>
       <path id="DejaVuSans-67" d="M 2906 1791 
Q 2906 2416 2648 2759 
Q 2391 3103 1925 3103 
Q 1463 3103 1205 2759 
Q 947 2416 947 1791 
Q 947 1169 1205 825 
Q 1463 481 1925 481 
Q 2391 481 2648 825 
Q 2906 1169 2906 1791 
z
M 3481 434 
Q 3481 -459 3084 -895 
Q 2688 -1331 1869 -1331 
Q 1566 -1331 1297 -1286 
Q 1028 -1241 775 -1147 
L 775 -588 
Q 1028 -725 1275 -790 
Q 1522 -856 1778 -856 
Q 2344 -856 2625 -561 
Q 2906 -266 2906 331 
L 2906 616 
Q 2728 306 2450 153 
Q 2172 0 1784 0 
Q 1141 0 747 490 
Q 353 981 353 1791 
Q 353 2603 747 3093 
Q 1141 3584 1784 3584 
Q 2172 3584 2450 3431 
Q 2728 3278 2906 2969 
L 2906 3500 
L 3481 3500 
L 3481 434 
z
" transform="scale(0.015625)"/>
       <path id="DejaVuSans-6c" d="M 603 4863 
L 1178 4863 
L 1178 0 
L 603 0 
L 603 4863 
z
" transform="scale(0.015625)"/>
       <path id="DejaVuSans-65" d="M 3597 1894 
L 3597 1613 
L 953 1613 
Q 991 1019 1311 708 
Q 1631 397 2203 397 
Q 2534 397 2845 478 
Q 3156 559 3463 722 
L 3463 178 
Q 3153 47 2828 -22 
Q 2503 -91 2169 -91 
Q 1331 -91 842 396 
Q 353 884 353 1716 
Q 353 2575 817 3079 
Q 1281 3584 2069 3584 
Q 2775 3584 3186 3129 
Q 3597 2675 3597 1894 
z
M 3022 2063 
Q 3016 2534 2758 2815 
Q 2500 3097 2075 3097 
Q 1594 3097 1305 2825 
Q 1016 2553 972 2059 
L 3022 2063 
z
" transform="scale(0.015625)"/>
       <path id="DejaVuSans-20" transform="scale(0.015625)"/>
       <path id="DejaVuSans-77" d="M 269 3500 
L 844 3500 
L 1563 769 
L 2278 3500 
L 2956 3500 
L 3675 769 
L 4391 3500 
L 4966 3500 
L 4050 0 
L 3372 0 
L 2619 2869 
L 1863 0 
L 1184 0 
L 269 3500 
z
" transform="scale(0.015625)"/>
       <path id="DejaVuSans-69" d="M 603 3500 
L 1178 3500 
L 1178 0 
L 603 0 
L 603 3500 
z
M 603 4863 
L 1178 4863 
L 1178 4134 
L 603 4134 
L 603 4863 
z
" transform="scale(0.015625)"/>
       <path id="DejaVuSans-74" d="M 1172 4494 
L 1172 3500 
L 2356 3500 
L 2356 3053 
L 1172 3053 
L 1172 1153 
Q 1172 725 1289 603 
Q 1406 481 1766 481 
L 2356 481 
L 2356 0 
L 1766 0 
Q 1100 0 847 248 
Q 594 497 594 1153 
L 594 3053 
L 172 3053 
L 172 3500 
L 594 3500 
L 594 4494 
L 1172 4494 
z
" transform="scale(0.015625)"/>
       <path id="DejaVuSans-68" d="M 3513 2113 
L 3513 0 
L 2938 0 
L 2938 2094 
Q 2938 2591 2744 2837 
Q 2550 3084 2163 3084 
Q 1697 3084 1428 2787 
Q 1159 2491 1159 1978 
L 1159 0 
L 581 0 
L 581 4863 
L 1159 4863 
L 1159 2956 
Q 1366 3272 1645 3428 
Q 1925 3584 2291 3584 
Q 2894 3584 3203 3211 
Q 3513 2838 3513 2113 
z
" transform="scale(0.015625)"/>
       <path id="DejaVuSans-6f" d="M 1959 3097 
Q 1497 3097 1228 2736 
Q 959 2375 959 1747 
Q 959 1119 1226 758 
Q 1494 397 1959 397 
Q 2419 397 2687 759 
Q 2956 1122 2956 1747 
Q 2956 2369 2687 2733 
Q 2419 3097 1959 3097 
z
M 1959 3584 
Q 2709 3584 3137 3096 
Q 3566 2609 3566 1747 
Q 3566 888 3137 398 
Q 2709 -91 1959 -91 
Q 1206 -91 779 398 
Q 353 888 353 1747 
Q 353 2609 779 3096 
Q 1206 3584 1959 3584 
z
" transform="scale(0.015625)"/>
       <path id="DejaVuSans-72" d="M 2631 2963 
Q 2534 3019 2420 3045 
Q 2306 3072 2169 3072 
Q 1681 3072 1420 2755 
Q 1159 2438 1159 1844 
L 1159 0 
L 581 0 
L 581 3500 
L 1159 3500 
L 1159 2956 
Q 1341 3275 1631 3429 
Q 1922 3584 2338 3584 
Q 2397 3584 2469 3576 
Q 2541 3569 2628 3553 
L 2631 2963 
z
" transform="scale(0.015625)"/>
       <path id="DejaVuSans-6d" d="M 3328 2828 
Q 3544 3216 3844 3400 
Q 4144 3584 4550 3584 
Q 5097 3584 5394 3201 
Q 5691 2819 5691 2113 
L 5691 0 
L 5113 0 
L 5113 2094 
Q 5113 2597 4934 2840 
Q 4756 3084 4391 3084 
Q 3944 3084 3684 2787 
Q 3425 2491 3425 1978 
L 3425 0 
L 2847 0 
L 2847 2094 
Q 2847 2600 2669 2842 
Q 2491 3084 2119 3084 
Q 1678 3084 1418 2786 
Q 1159 2488 1159 1978 
L 1159 0 
L 581 0 
L 581 3500 
L 1159 3500 
L 1159 2956 
Q 1356 3278 1631 3431 
Q 1906 3584 2284 3584 
Q 2666 3584 2933 3390 
Q 3200 3197 3328 2828 
z
" transform="scale(0.015625)"/>
       <path id="DejaVuSans-61" d="M 2194 1759 
Q 1497 1759 1228 1600 
Q 959 1441 959 1056 
Q 959 750 1161 570 
Q 1363 391 1709 391 
Q 2188 391 2477 730 
Q 2766 1069 2766 1631 
L 2766 1759 
L 2194 1759 
z
M 3341 1997 
L 3341 0 
L 2766 0 
L 2766 531 
Q 2569 213 2275 61 
Q 1981 -91 1556 -91 
Q 1019 -91 701 211 
Q 384 513 384 1019 
Q 384 1609 779 1909 
Q 1175 2209 1959 2209 
L 2766 2209 
L 2766 2266 
Q 2766 2663 2505 2880 
Q 2244 3097 1772 3097 
Q 1472 3097 1187 3025 
Q 903 2953 641 2809 
L 641 3341 
Q 956 3463 1253 3523 
Q 1550 3584 1831 3584 
Q 2591 3584 2966 3190 
Q 3341 2797 3341 1997 
z
" transform="scale(0.015625)"/>
       <path id="DejaVuSans-28" d="M 1984 4856 
Q 1566 4138 1362 3434 
Q 1159 2731 1159 2009 
Q 1159 1288 1364 580 
Q 1569 -128 1984 -844 
L 1484 -844 
Q 1016 -109 783 600 
Q 550 1309 550 2009 
Q 550 2706 781 3412 
Q 1013 4119 1484 4856 
L 1984 4856 
z
" transform="scale(0.015625)"/>
       <path id="DejaVuSans-64" d="M 2906 2969 
L 2906 4863 
L 3481 4863 
L 3481 0 
L 2906 0 
L 2906 525 
Q 2725 213 2448 61 
Q 2172 -91 1784 -91 
Q 1150 -91 751 415 
Q 353 922 353 1747 
Q 353 2572 751 3078 
Q 1150 3584 1784 3584 
Q 2172 3584 2448 3432 
Q 2725 3281 2906 2969 
z
M 947 1747 
Q 947 1113 1208 752 
Q 1469 391 1925 391 
Q 2381 391 2643 752 
Q 2906 1113 2906 1747 
Q 2906 2381 2643 2742 
Q 2381 3103 1925 3103 
Q 1469 3103 1208 2742 
Q 947 2381 947 1747 
z
" transform="scale(0.015625)"/>
       <path id="DejaVuSans-29" d="M 513 4856 
L 1013 4856 
Q 1481 4119 1714 3412 
Q 1947 2706 1947 2009 
Q 1947 1309 1714 600 
Q 1481 -109 1013 -844 
L 513 -844 
Q 928 -128 1133 580 
Q 1338 1288 1338 2009 
Q 1338 2731 1133 3434 
Q 928 4138 513 4856 
z
" transform="scale(0.015625)"/>
      </defs>
      <use xlink:href="#DejaVuSans-41"/>
      <use xlink:href="#DejaVuSans-6e" x="68.408203"/>
      <use xlink:href="#DejaVuSans-67" x="131.787109"/>
      <use xlink:href="#DejaVuSans-6c" x="195.263672"/>
      <use xlink:href="#DejaVuSans-65" x="223.046875"/>
      <use xlink:href="#DejaVuSans-20" x="284.570312"/>
      <use xlink:href="#DejaVuSans-77" x="316.357422"/>
      <use xlink:href="#DejaVuSans-69" x="398.144531"/>
      <use xlink:href="#DejaVuSans-74" x="425.927734"/>
      <use xlink:href="#DejaVuSans-68" x="465.136719"/>
      <use xlink:href="#DejaVuSans-20" x="528.515625"/>
      <use xlink:href="#DejaVuSans-6e" x="560.302734"/>
      <use xlink:href="#DejaVuSans-6f" x="623.681641"/>
      <use xlink:href="#DejaVuSans-72" x="684.863281"/>
      <use xlink:href="#DejaVuSans-6d" x="724.226562"/>
      <use xlink:href="#DejaVuSans-61" x="821.638672"/>
      <use xlink:href="#DejaVuSans-6c" x="882.917969"/>
      <use xlink:href="#DejaVuSans-20" x="910.701172"/>
      <use xlink:href="#DejaVuSans-28" x="942.488281"/>
      <use xlink:href="#DejaVuSans-72" x="981.501953"/>
      <use xlink:href="#DejaVuSans-61" x="1022.615234"/>
      <use xlink:href="#DejaVuSans-64" x="1083.894531"/>
      <use xlink:href="#DejaVuSans-29" x="1147.371094"/>
     </g>
    </g>
   </g>
   <g id="matplotlib.axis_2">
    <g id="ytick_1">
     <g id="line2d_10">
      <defs>
       <path id="m181d097bfe" d="M 0 0 
L -3.5 0 
" style="stroke: #000000; stroke-width: 0.8"/>
      </defs>
      <g>
       <use xlink:href="#m181d097bfe" x="43.78125" y="273.312" style="stroke: #000000; stroke-width: 0.8"/>
      </g>
     </g>
     <g id="text_11">
      <!-- 0.0 -->
      <g transform="translate(20.878125 277.111219)scale(0.1 -0.1)">
       <use xlink:href="#DejaVuSans-30"/>
       <use xlink:href="#DejaVuSans-2e" x="63.623047"/>
       <use xlink:href="#DejaVuSans-30" x="95.410156"/>
      </g>
     </g>
    </g>
    <g id="ytick_2">
     <g id="line2d_11">
      <g>
       <use xlink:href="#m181d097bfe" x="43.78125" y="226.501746" style="stroke: #000000; stroke-width: 0.8"/>
      </g>
     </g>
     <g id="text_12">
      <!-- 0.2 -->
      <g transform="translate(20.878125 230.300965)scale(0.1 -0.1)">
       <use xlink:href="#DejaVuSans-30"/>
       <use xlink:href="#DejaVuSans-2e" x="63.623047"/>
       <use xlink:href="#DejaVuSans-32" x="95.410156"/>
      </g>
     </g>
    </g>
    <g id="ytick_3">
     <g id="line2d_12">
      <g>
       <use xlink:href="#m181d097bfe" x="43.78125" y="179.691492" style="stroke: #000000; stroke-width: 0.8"/>
      </g>
     </g>
     <g id="text_13">
      <!-- 0.4 -->
      <g transform="translate(20.878125 183.490711)scale(0.1 -0.1)">
       <use xlink:href="#DejaVuSans-30"/>
       <use xlink:href="#DejaVuSans-2e" x="63.623047"/>
       <use xlink:href="#DejaVuSans-34" x="95.410156"/>
      </g>
     </g>
    </g>
    <g id="ytick_4">
     <g id="line2d_13">
      <g>
       <use xlink:href="#m181d097bfe" x="43.78125" y="132.881238" style="stroke: #000000; stroke-width: 0.8"/>
      </g>
     </g>
     <g id="text_14">
      <!-- 0.6 -->
      <g transform="translate(20.878125 136.680457)scale(0.1 -0.1)">
       <use xlink:href="#DejaVuSans-30"/>
       <use xlink:href="#DejaVuSans-2e" x="63.623047"/>
       <use xlink:href="#DejaVuSans-36" x="95.410156"/>
      </g>
     </g>
    </g>
    <g id="ytick_5">
     <g id="line2d_14">
      <g>
       <use xlink:href="#m181d097bfe" x="43.78125" y="86.070984" style="stroke: #000000; stroke-width: 0.8"/>
      </g>
     </g>
     <g id="text_15">
      <!-- 0.8 -->
      <g transform="translate(20.878125 89.870203)scale(0.1 -0.1)">
       <use xlink:href="#DejaVuSans-30"/>
       <use xlink:href="#DejaVuSans-2e" x="63.623047"/>
       <use xlink:href="#DejaVuSans-38" x="95.410156"/>
      </g>
     </g>
    </g>
    <g id="ytick_6">
     <g id="line2d_15">
      <g>
       <use xlink:href="#m181d097bfe" x="43.78125" y="39.26073" style="stroke: #000000; stroke-width: 0.8"/>
      </g>
     </g>
     <g id="text_16">
      <!-- 1.0 -->
      <g transform="translate(20.878125 43.059949)scale(0.1 -0.1)">
       <use xlink:href="#DejaVuSans-31"/>
       <use xlink:href="#DejaVuSans-2e" x="63.623047"/>
       <use xlink:href="#DejaVuSans-30" x="95.410156"/>
      </g>
     </g>
    </g>
    <g id="text_17">
     <!-- Probability density -->
     <g transform="translate(14.798438 186.606781)rotate(-90)scale(0.1 -0.1)">
      <defs>
       <path id="DejaVuSans-50" d="M 1259 4147 
L 1259 2394 
L 2053 2394 
Q 2494 2394 2734 2622 
Q 2975 2850 2975 3272 
Q 2975 3691 2734 3919 
Q 2494 4147 2053 4147 
L 1259 4147 
z
M 628 4666 
L 2053 4666 
Q 2838 4666 3239 4311 
Q 3641 3956 3641 3272 
Q 3641 2581 3239 2228 
Q 2838 1875 2053 1875 
L 1259 1875 
L 1259 0 
L 628 0 
L 628 4666 
z
" transform="scale(0.015625)"/>
       <path id="DejaVuSans-62" d="M 3116 1747 
Q 3116 2381 2855 2742 
Q 2594 3103 2138 3103 
Q 1681 3103 1420 2742 
Q 1159 2381 1159 1747 
Q 1159 1113 1420 752 
Q 1681 391 2138 391 
Q 2594 391 2855 752 
Q 3116 1113 3116 1747 
z
M 1159 2969 
Q 1341 3281 1617 3432 
Q 1894 3584 2278 3584 
Q 2916 3584 3314 3078 
Q 3713 2572 3713 1747 
Q 3713 922 3314 415 
Q 2916 -91 2278 -91 
Q 1894 -91 1617 61 
Q 1341 213 1159 525 
L 1159 0 
L 581 0 
L 581 4863 
L 1159 4863 
L 1159 2969 
z
" transform="scale(0.015625)"/>
       <path id="DejaVuSans-79" d="M 2059 -325 
Q 1816 -950 1584 -1140 
Q 1353 -1331 966 -1331 
L 506 -1331 
L 506 -850 
L 844 -850 
Q 1081 -850 1212 -737 
Q 1344 -625 1503 -206 
L 1606 56 
L 191 3500 
L 800 3500 
L 1894 763 
L 2988 3500 
L 3597 3500 
L 2059 -325 
z
" transform="scale(0.015625)"/>
       <path id="DejaVuSans-73" d="M 2834 3397 
L 2834 2853 
Q 2591 2978 2328 3040 
Q 2066 3103 1784 3103 
Q 1356 3103 1142 2972 
Q 928 2841 928 2578 
Q 928 2378 1081 2264 
Q 1234 2150 1697 2047 
L 1894 2003 
Q 2506 1872 2764 1633 
Q 3022 1394 3022 966 
Q 3022 478 2636 193 
Q 2250 -91 1575 -91 
Q 1294 -91 989 -36 
Q 684 19 347 128 
L 347 722 
Q 666 556 975 473 
Q 1284 391 1588 391 
Q 1994 391 2212 530 
Q 2431 669 2431 922 
Q 2431 1156 2273 1281 
Q 2116 1406 1581 1522 
L 1381 1569 
Q 847 1681 609 1914 
Q 372 2147 372 2553 
Q 372 3047 722 3315 
Q 1072 3584 1716 3584 
Q 2034 3584 2315 3537 
Q 2597 3491 2834 3397 
z
" transform="scale(0.015625)"/>
      </defs>
      <use xlink:href="#DejaVuSans-50"/>
      <use xlink:href="#DejaVuSans-72" x="58.552734"/>
      <use xlink:href="#DejaVuSans-6f" x="97.416016"/>
      <use xlink:href="#DejaVuSans-62" x="158.597656"/>
      <use xlink:href="#DejaVuSans-61" x="222.074219"/>
      <use xlink:href="#DejaVuSans-62" x="283.353516"/>
      <use xlink:href="#DejaVuSans-69" x="346.830078"/>
      <use xlink:href="#DejaVuSans-6c" x="374.613281"/>
      <use xlink:href="#DejaVuSans-69" x="402.396484"/>
      <use xlink:href="#DejaVuSans-74" x="430.179688"/>
      <use xlink:href="#DejaVuSans-79" x="469.388672"/>
      <use xlink:href="#DejaVuSans-20" x="528.568359"/>
      <use xlink:href="#DejaVuSans-64" x="560.355469"/>
      <use xlink:href="#DejaVuSans-65" x="623.832031"/>
      <use xlink:href="#DejaVuSans-6e" x="685.355469"/>
      <use xlink:href="#DejaVuSans-73" x="748.734375"/>
      <use xlink:href="#DejaVuSans-69" x="800.833984"/>
      <use xlink:href="#DejaVuSans-74" x="828.617188"/>
      <use xlink:href="#DejaVuSans-79" x="867.826172"/>
     </g>
    </g>
   </g>
   <g id="line2d_16">
    <path d="M 60.013977 273.312 
L 79.837728 228.689038 
L 90.237073 205.832868 
L 99.01152 187.069866 
L 106.811029 170.909184 
L 113.960578 156.60522 
L 120.460169 144.084419 
L 126.63478 132.662252 
L 132.484411 122.303657 
L 138.009063 112.964156 
L 143.208736 104.592112 
L 148.408408 96.647123 
L 153.283101 89.604446 
L 157.832814 83.399713 
L 162.382528 77.563031 
L 166.607261 72.482709 
L 170.831995 67.737987 
L 175.056729 63.336794 
L 178.956483 59.585432 
L 182.856238 56.138395 
L 186.755992 53.000591 
L 190.330767 50.399749 
L 193.905542 48.06562 
L 197.480316 46.000996 
L 201.055091 44.20835 
L 204.304886 42.816495 
L 207.554682 41.652566 
L 210.804477 40.717716 
L 214.054272 40.012868 
L 217.304067 39.538719 
L 220.553863 39.295738 
L 223.803658 39.284165 
L 227.053453 39.504012 
L 230.303248 39.955062 
L 233.553044 40.636868 
L 236.802839 41.548756 
L 240.052634 42.689824 
L 243.302429 44.058945 
L 246.552225 45.654764 
L 250.126999 47.670111 
L 253.701774 49.955437 
L 257.276549 52.508009 
L 260.851324 55.324771 
L 264.751078 58.694943 
L 268.650832 62.370708 
L 272.550587 66.346832 
L 276.77532 70.986671 
L 281.000054 75.96461 
L 285.224788 81.27233 
L 289.774501 87.34696 
L 294.324215 93.781992 
L 299.198908 101.06242 
L 304.39858 109.250173 
L 309.598252 117.85319 
L 315.122904 127.424527 
L 320.972536 138.012634 
L 327.147147 149.658457 
L 333.646737 162.393179 
L 340.796287 176.90599 
L 348.595795 193.261751 
L 357.370243 212.20203 
L 367.769587 235.208801 
L 382.393666 268.160208 
L 384.668523 273.312 
L 384.668523 273.312 
" clip-path="url(#pc038bcb147)" style="fill: none; stroke: #ff7f0e; stroke-width: 1.5; stroke-linecap: square"/>
   </g>
   <g id="patch_203">
    <path d="M 43.78125 273.312 
L 43.78125 7.2 
" style="fill: none; stroke: #000000; stroke-width: 0.8; stroke-linejoin: miter; stroke-linecap: square"/>
   </g>
   <g id="patch_204">
    <path d="M 400.90125 273.312 
L 400.90125 7.2 
" style="fill: none; stroke: #000000; stroke-width: 0.8; stroke-linejoin: miter; stroke-linecap: square"/>
   </g>
   <g id="patch_205">
    <path d="M 43.78125 273.312 
L 400.90125 273.312 
" style="fill: none; stroke: #000000; stroke-width: 0.8; stroke-linejoin: miter; stroke-linecap: square"/>
   </g>
   <g id="patch_206">
    <path d="M 43.78125 7.2 
L 400.90125 7.2 
" style="fill: none; stroke: #000000; stroke-width: 0.8; stroke-linejoin: miter; stroke-linecap: square"/>
   </g>
  </g>
 </g>
 <defs>
  <clipPath id="pc038bcb147">
   <rect x="43.78125" y="7.2" width="357.12" height="266.112"/>
  </clipPath>
 </defs>
</svg>
