<?xml version="1.0" encoding="utf-8" standalone="no"?>
<!DOCTYPE svg PUBLIC "-//W3C//DTD SVG 1.1//EN"
  "http://www.w3.org/Graphics/SVG/1.1/DTD/svg11.dtd">
<svg xmlns:xlink="http://www.w3.org/1999/xlink" width="414.46375pt" height="310.86825pt" viewBox="0 0 414.46375 310.86825" xmlns="http://www.w3.org/2000/svg" version="1.1">
 <metadata>
  <rdf:RDF xmlns:dc="http://purl.org/dc/elements/1.1/" xmlns:cc="http://creativecommons.org/ns#" xmlns:rdf="http://www.w3.org/1999/02/22-rdf-syntax-ns#">
   <cc:Work>
    <dc:type rdf:resource="http://purl.org/dc/dcmitype/StillImage"/>
    <dc:date>2022-03-01T15:51:57.243122</dc:date>
    <dc:format>image/svg+xml</dc:format>
    <dc:creator>
     <cc:Agent>
      <dc:title>Matplotlib v3.5.1, https://matplotlib.org/</dc:title>
     </cc:Agent>
    </dc:creator>
   </cc:Work>
  </rdf:RDF>
 </metadata>
 <defs>
  <style type="text/css">*{stroke-linejoin: round; stroke-linecap: butt}</style>
 </defs>
 <g id="figure_1">
  <g id="patch_1">
   <path d="M 0 310.86825 
L 414.46375 310.86825 
L 414.46375 0 
L 0 0 
z
" style="fill: #ffffff"/>
  </g>
  <g id="axes_1">
   <g id="patch_2">
    <path d="M 50.14375 273.312 
L 407.26375 273.312 
L 407.26375 7.2 
L 50.14375 7.2 
z
" style="fill: #ffffff"/>
   </g>
   <g id="patch_3">
    <path d="M 69.515107 273.312 
L 71.122669 273.312 
L 71.122669 272.116528 
L 69.515107 272.116528 
z
" clip-path="url(#p5a99b93dbd)" style="fill: #1f77b4"/>
   </g>
   <g id="patch_4">
    <path d="M 71.122669 273.312 
L 72.730231 273.312 
L 72.730231 270.921057 
L 71.122669 270.921057 
z
" clip-path="url(#p5a99b93dbd)" style="fill: #1f77b4"/>
   </g>
   <g id="patch_5">
    <path d="M 72.730231 273.312 
L 74.337793 273.312 
L 74.337793 267.334642 
L 72.730231 267.334642 
z
" clip-path="url(#p5a99b93dbd)" style="fill: #1f77b4"/>
   </g>
   <g id="patch_6">
    <path d="M 74.337793 273.312 
L 75.945355 273.312 
L 75.945355 265.541434 
L 74.337793 265.541434 
z
" clip-path="url(#p5a99b93dbd)" style="fill: #1f77b4"/>
   </g>
   <g id="patch_7">
    <path d="M 75.945355 273.312 
L 77.552917 273.312 
L 77.552917 265.541434 
L 75.945355 265.541434 
z
" clip-path="url(#p5a99b93dbd)" style="fill: #1f77b4"/>
   </g>
   <g id="patch_8">
    <path d="M 77.552917 273.312 
L 79.160479 273.312 
L 79.160479 263.748226 
L 77.552917 263.748226 
z
" clip-path="url(#p5a99b93dbd)" style="fill: #1f77b4"/>
   </g>
   <g id="patch_9">
    <path d="M 79.160479 273.312 
L 80.768042 273.312 
L 80.768042 263.150491 
L 79.160479 263.150491 
z
" clip-path="url(#p5a99b93dbd)" style="fill: #1f77b4"/>
   </g>
   <g id="patch_10">
    <path d="M 80.768042 273.312 
L 82.375604 273.312 
L 82.375604 259.564075 
L 80.768042 259.564075 
z
" clip-path="url(#p5a99b93dbd)" style="fill: #1f77b4"/>
   </g>
   <g id="patch_11">
    <path d="M 82.375604 273.312 
L 83.983166 273.312 
L 83.983166 263.150491 
L 82.375604 263.150491 
z
" clip-path="url(#p5a99b93dbd)" style="fill: #1f77b4"/>
   </g>
   <g id="patch_12">
    <path d="M 83.983166 273.312 
L 85.590728 273.312 
L 85.590728 262.552755 
L 83.983166 262.552755 
z
" clip-path="url(#p5a99b93dbd)" style="fill: #1f77b4"/>
   </g>
   <g id="patch_13">
    <path d="M 85.590728 273.312 
L 87.19829 273.312 
L 87.19829 258.96634 
L 85.590728 258.96634 
z
" clip-path="url(#p5a99b93dbd)" style="fill: #1f77b4"/>
   </g>
   <g id="patch_14">
    <path d="M 87.19829 273.312 
L 88.805852 273.312 
L 88.805852 251.195774 
L 87.19829 251.195774 
z
" clip-path="url(#p5a99b93dbd)" style="fill: #1f77b4"/>
   </g>
   <g id="patch_15">
    <path d="M 88.805852 273.312 
L 90.413414 273.312 
L 90.413414 250.000302 
L 88.805852 250.000302 
z
" clip-path="url(#p5a99b93dbd)" style="fill: #1f77b4"/>
   </g>
   <g id="patch_16">
    <path d="M 90.413414 273.312 
L 92.020976 273.312 
L 92.020976 253.586717 
L 90.413414 253.586717 
z
" clip-path="url(#p5a99b93dbd)" style="fill: #1f77b4"/>
   </g>
   <g id="patch_17">
    <path d="M 92.020976 273.312 
L 93.628538 273.312 
L 93.628538 255.97766 
L 92.020976 255.97766 
z
" clip-path="url(#p5a99b93dbd)" style="fill: #1f77b4"/>
   </g>
   <g id="patch_18">
    <path d="M 93.628538 273.312 
L 95.2361 273.312 
L 95.2361 251.793509 
L 93.628538 251.793509 
z
" clip-path="url(#p5a99b93dbd)" style="fill: #1f77b4"/>
   </g>
   <g id="patch_19">
    <path d="M 95.2361 273.312 
L 96.843662 273.312 
L 96.843662 251.195774 
L 95.2361 251.195774 
z
" clip-path="url(#p5a99b93dbd)" style="fill: #1f77b4"/>
   </g>
   <g id="patch_20">
    <path d="M 96.843662 273.312 
L 98.451225 273.312 
L 98.451225 243.425208 
L 96.843662 243.425208 
z
" clip-path="url(#p5a99b93dbd)" style="fill: #1f77b4"/>
   </g>
   <g id="patch_21">
    <path d="M 98.451225 273.312 
L 100.058787 273.312 
L 100.058787 244.620679 
L 98.451225 244.620679 
z
" clip-path="url(#p5a99b93dbd)" style="fill: #1f77b4"/>
   </g>
   <g id="patch_22">
    <path d="M 100.058787 273.312 
L 101.666349 273.312 
L 101.666349 246.413887 
L 100.058787 246.413887 
z
" clip-path="url(#p5a99b93dbd)" style="fill: #1f77b4"/>
   </g>
   <g id="patch_23">
    <path d="M 101.666349 273.312 
L 103.273911 273.312 
L 103.273911 248.207094 
L 101.666349 248.207094 
z
" clip-path="url(#p5a99b93dbd)" style="fill: #1f77b4"/>
   </g>
   <g id="patch_24">
    <path d="M 103.273911 273.312 
L 104.881473 273.312 
L 104.881473 248.80483 
L 103.273911 248.80483 
z
" clip-path="url(#p5a99b93dbd)" style="fill: #1f77b4"/>
   </g>
   <g id="patch_25">
    <path d="M 104.881473 273.312 
L 106.489035 273.312 
L 106.489035 244.620679 
L 104.881473 244.620679 
z
" clip-path="url(#p5a99b93dbd)" style="fill: #1f77b4"/>
   </g>
   <g id="patch_26">
    <path d="M 106.489035 273.312 
L 108.096597 273.312 
L 108.096597 245.816151 
L 106.489035 245.816151 
z
" clip-path="url(#p5a99b93dbd)" style="fill: #1f77b4"/>
   </g>
   <g id="patch_27">
    <path d="M 108.096597 273.312 
L 109.704159 273.312 
L 109.704159 244.022943 
L 108.096597 244.022943 
z
" clip-path="url(#p5a99b93dbd)" style="fill: #1f77b4"/>
   </g>
   <g id="patch_28">
    <path d="M 109.704159 273.312 
L 111.311721 273.312 
L 111.311721 228.481811 
L 109.704159 228.481811 
z
" clip-path="url(#p5a99b93dbd)" style="fill: #1f77b4"/>
   </g>
   <g id="patch_29">
    <path d="M 111.311721 273.312 
L 112.919283 273.312 
L 112.919283 241.034264 
L 111.311721 241.034264 
z
" clip-path="url(#p5a99b93dbd)" style="fill: #1f77b4"/>
   </g>
   <g id="patch_30">
    <path d="M 112.919283 273.312 
L 114.526845 273.312 
L 114.526845 247.011623 
L 112.919283 247.011623 
z
" clip-path="url(#p5a99b93dbd)" style="fill: #1f77b4"/>
   </g>
   <g id="patch_31">
    <path d="M 114.526845 273.312 
L 116.134407 273.312 
L 116.134407 244.620679 
L 114.526845 244.620679 
z
" clip-path="url(#p5a99b93dbd)" style="fill: #1f77b4"/>
   </g>
   <g id="patch_32">
    <path d="M 116.134407 273.312 
L 117.74197 273.312 
L 117.74197 241.632 
L 116.134407 241.632 
z
" clip-path="url(#p5a99b93dbd)" style="fill: #1f77b4"/>
   </g>
   <g id="patch_33">
    <path d="M 117.74197 273.312 
L 119.349532 273.312 
L 119.349532 233.861434 
L 117.74197 233.861434 
z
" clip-path="url(#p5a99b93dbd)" style="fill: #1f77b4"/>
   </g>
   <g id="patch_34">
    <path d="M 119.349532 273.312 
L 120.957094 273.312 
L 120.957094 238.643321 
L 119.349532 238.643321 
z
" clip-path="url(#p5a99b93dbd)" style="fill: #1f77b4"/>
   </g>
   <g id="patch_35">
    <path d="M 120.957094 273.312 
L 122.564656 273.312 
L 122.564656 227.28634 
L 120.957094 227.28634 
z
" clip-path="url(#p5a99b93dbd)" style="fill: #1f77b4"/>
   </g>
   <g id="patch_36">
    <path d="M 122.564656 273.312 
L 124.172218 273.312 
L 124.172218 236.850113 
L 122.564656 236.850113 
z
" clip-path="url(#p5a99b93dbd)" style="fill: #1f77b4"/>
   </g>
   <g id="patch_37">
    <path d="M 124.172218 273.312 
L 125.77978 273.312 
L 125.77978 238.045585 
L 124.172218 238.045585 
z
" clip-path="url(#p5a99b93dbd)" style="fill: #1f77b4"/>
   </g>
   <g id="patch_38">
    <path d="M 125.77978 273.312 
L 127.387342 273.312 
L 127.387342 235.654642 
L 125.77978 235.654642 
z
" clip-path="url(#p5a99b93dbd)" style="fill: #1f77b4"/>
   </g>
   <g id="patch_39">
    <path d="M 127.387342 273.312 
L 128.994904 273.312 
L 128.994904 225.493132 
L 127.387342 225.493132 
z
" clip-path="url(#p5a99b93dbd)" style="fill: #1f77b4"/>
   </g>
   <g id="patch_40">
    <path d="M 128.994904 273.312 
L 130.602466 273.312 
L 130.602466 228.481811 
L 128.994904 228.481811 
z
" clip-path="url(#p5a99b93dbd)" style="fill: #1f77b4"/>
   </g>
   <g id="patch_41">
    <path d="M 130.602466 273.312 
L 132.210028 273.312 
L 132.210028 229.079547 
L 130.602466 229.079547 
z
" clip-path="url(#p5a99b93dbd)" style="fill: #1f77b4"/>
   </g>
   <g id="patch_42">
    <path d="M 132.210028 273.312 
L 133.81759 273.312 
L 133.81759 233.861434 
L 132.210028 233.861434 
z
" clip-path="url(#p5a99b93dbd)" style="fill: #1f77b4"/>
   </g>
   <g id="patch_43">
    <path d="M 133.81759 273.312 
L 135.425152 273.312 
L 135.425152 223.102189 
L 133.81759 223.102189 
z
" clip-path="url(#p5a99b93dbd)" style="fill: #1f77b4"/>
   </g>
   <g id="patch_44">
    <path d="M 135.425152 273.312 
L 137.032715 273.312 
L 137.032715 231.470491 
L 135.425152 231.470491 
z
" clip-path="url(#p5a99b93dbd)" style="fill: #1f77b4"/>
   </g>
   <g id="patch_45">
    <path d="M 137.032715 273.312 
L 138.640277 273.312 
L 138.640277 217.722566 
L 137.032715 217.722566 
z
" clip-path="url(#p5a99b93dbd)" style="fill: #1f77b4"/>
   </g>
   <g id="patch_46">
    <path d="M 138.640277 273.312 
L 140.247839 273.312 
L 140.247839 214.733887 
L 138.640277 214.733887 
z
" clip-path="url(#p5a99b93dbd)" style="fill: #1f77b4"/>
   </g>
   <g id="patch_47">
    <path d="M 140.247839 273.312 
L 141.855401 273.312 
L 141.855401 218.320302 
L 140.247839 218.320302 
z
" clip-path="url(#p5a99b93dbd)" style="fill: #1f77b4"/>
   </g>
   <g id="patch_48">
    <path d="M 141.855401 273.312 
L 143.462963 273.312 
L 143.462963 212.940679 
L 141.855401 212.940679 
z
" clip-path="url(#p5a99b93dbd)" style="fill: #1f77b4"/>
   </g>
   <g id="patch_49">
    <path d="M 143.462963 273.312 
L 145.070525 273.312 
L 145.070525 210.549736 
L 143.462963 210.549736 
z
" clip-path="url(#p5a99b93dbd)" style="fill: #1f77b4"/>
   </g>
   <g id="patch_50">
    <path d="M 145.070525 273.312 
L 146.678087 273.312 
L 146.678087 223.102189 
L 145.070525 223.102189 
z
" clip-path="url(#p5a99b93dbd)" style="fill: #1f77b4"/>
   </g>
   <g id="patch_51">
    <path d="M 146.678087 273.312 
L 148.285649 273.312 
L 148.285649 219.515774 
L 146.678087 219.515774 
z
" clip-path="url(#p5a99b93dbd)" style="fill: #1f77b4"/>
   </g>
   <g id="patch_52">
    <path d="M 148.285649 273.312 
L 149.893211 273.312 
L 149.893211 210.549736 
L 148.285649 210.549736 
z
" clip-path="url(#p5a99b93dbd)" style="fill: #1f77b4"/>
   </g>
   <g id="patch_53">
    <path d="M 149.893211 273.312 
L 151.500773 273.312 
L 151.500773 211.147472 
L 149.893211 211.147472 
z
" clip-path="url(#p5a99b93dbd)" style="fill: #1f77b4"/>
   </g>
   <g id="patch_54">
    <path d="M 151.500773 273.312 
L 153.108335 273.312 
L 153.108335 209.354264 
L 151.500773 209.354264 
z
" clip-path="url(#p5a99b93dbd)" style="fill: #1f77b4"/>
   </g>
   <g id="patch_55">
    <path d="M 153.108335 273.312 
L 154.715898 273.312 
L 154.715898 206.963321 
L 153.108335 206.963321 
z
" clip-path="url(#p5a99b93dbd)" style="fill: #1f77b4"/>
   </g>
   <g id="patch_56">
    <path d="M 154.715898 273.312 
L 156.32346 273.312 
L 156.32346 200.388226 
L 154.715898 200.388226 
z
" clip-path="url(#p5a99b93dbd)" style="fill: #1f77b4"/>
   </g>
   <g id="patch_57">
    <path d="M 156.32346 273.312 
L 157.931022 273.312 
L 157.931022 209.952 
L 156.32346 209.952 
z
" clip-path="url(#p5a99b93dbd)" style="fill: #1f77b4"/>
   </g>
   <g id="patch_58">
    <path d="M 157.931022 273.312 
L 159.538584 273.312 
L 159.538584 202.77917 
L 157.931022 202.77917 
z
" clip-path="url(#p5a99b93dbd)" style="fill: #1f77b4"/>
   </g>
   <g id="patch_59">
    <path d="M 159.538584 273.312 
L 161.146146 273.312 
L 161.146146 202.77917 
L 159.538584 202.77917 
z
" clip-path="url(#p5a99b93dbd)" style="fill: #1f77b4"/>
   </g>
   <g id="patch_60">
    <path d="M 161.146146 273.312 
L 162.753708 273.312 
L 162.753708 199.790491 
L 161.146146 199.790491 
z
" clip-path="url(#p5a99b93dbd)" style="fill: #1f77b4"/>
   </g>
   <g id="patch_61">
    <path d="M 162.753708 273.312 
L 164.36127 273.312 
L 164.36127 217.12483 
L 162.753708 217.12483 
z
" clip-path="url(#p5a99b93dbd)" style="fill: #1f77b4"/>
   </g>
   <g id="patch_62">
    <path d="M 164.36127 273.312 
L 165.968832 273.312 
L 165.968832 206.963321 
L 164.36127 206.963321 
z
" clip-path="url(#p5a99b93dbd)" style="fill: #1f77b4"/>
   </g>
   <g id="patch_63">
    <path d="M 165.968832 273.312 
L 167.576394 273.312 
L 167.576394 209.354264 
L 165.968832 209.354264 
z
" clip-path="url(#p5a99b93dbd)" style="fill: #1f77b4"/>
   </g>
   <g id="patch_64">
    <path d="M 167.576394 273.312 
L 169.183956 273.312 
L 169.183956 193.813132 
L 167.576394 193.813132 
z
" clip-path="url(#p5a99b93dbd)" style="fill: #1f77b4"/>
   </g>
   <g id="patch_65">
    <path d="M 169.183956 273.312 
L 170.791518 273.312 
L 170.791518 200.985962 
L 169.183956 200.985962 
z
" clip-path="url(#p5a99b93dbd)" style="fill: #1f77b4"/>
   </g>
   <g id="patch_66">
    <path d="M 170.791518 273.312 
L 172.39908 273.312 
L 172.39908 193.813132 
L 170.791518 193.813132 
z
" clip-path="url(#p5a99b93dbd)" style="fill: #1f77b4"/>
   </g>
   <g id="patch_67">
    <path d="M 172.39908 273.312 
L 174.006643 273.312 
L 174.006643 196.801811 
L 172.39908 196.801811 
z
" clip-path="url(#p5a99b93dbd)" style="fill: #1f77b4"/>
   </g>
   <g id="patch_68">
    <path d="M 174.006643 273.312 
L 175.614205 273.312 
L 175.614205 189.031245 
L 174.006643 189.031245 
z
" clip-path="url(#p5a99b93dbd)" style="fill: #1f77b4"/>
   </g>
   <g id="patch_69">
    <path d="M 175.614205 273.312 
L 177.221767 273.312 
L 177.221767 184.249358 
L 175.614205 184.249358 
z
" clip-path="url(#p5a99b93dbd)" style="fill: #1f77b4"/>
   </g>
   <g id="patch_70">
    <path d="M 177.221767 273.312 
L 178.829329 273.312 
L 178.829329 178.272 
L 177.221767 178.272 
z
" clip-path="url(#p5a99b93dbd)" style="fill: #1f77b4"/>
   </g>
   <g id="patch_71">
    <path d="M 178.829329 273.312 
L 180.436891 273.312 
L 180.436891 197.997283 
L 178.829329 197.997283 
z
" clip-path="url(#p5a99b93dbd)" style="fill: #1f77b4"/>
   </g>
   <g id="patch_72">
    <path d="M 180.436891 273.312 
L 182.044453 273.312 
L 182.044453 180.662943 
L 180.436891 180.662943 
z
" clip-path="url(#p5a99b93dbd)" style="fill: #1f77b4"/>
   </g>
   <g id="patch_73">
    <path d="M 182.044453 273.312 
L 183.652015 273.312 
L 183.652015 186.640302 
L 182.044453 186.640302 
z
" clip-path="url(#p5a99b93dbd)" style="fill: #1f77b4"/>
   </g>
   <g id="patch_74">
    <path d="M 183.652015 273.312 
L 185.259577 273.312 
L 185.259577 185.44483 
L 183.652015 185.44483 
z
" clip-path="url(#p5a99b93dbd)" style="fill: #1f77b4"/>
   </g>
   <g id="patch_75">
    <path d="M 185.259577 273.312 
L 186.867139 273.312 
L 186.867139 193.813132 
L 185.259577 193.813132 
z
" clip-path="url(#p5a99b93dbd)" style="fill: #1f77b4"/>
   </g>
   <g id="patch_76">
    <path d="M 186.867139 273.312 
L 188.474701 273.312 
L 188.474701 178.869736 
L 186.867139 178.869736 
z
" clip-path="url(#p5a99b93dbd)" style="fill: #1f77b4"/>
   </g>
   <g id="patch_77">
    <path d="M 188.474701 273.312 
L 190.082263 273.312 
L 190.082263 177.674264 
L 188.474701 177.674264 
z
" clip-path="url(#p5a99b93dbd)" style="fill: #1f77b4"/>
   </g>
   <g id="patch_78">
    <path d="M 190.082263 273.312 
L 191.689826 273.312 
L 191.689826 178.869736 
L 190.082263 178.869736 
z
" clip-path="url(#p5a99b93dbd)" style="fill: #1f77b4"/>
   </g>
   <g id="patch_79">
    <path d="M 191.689826 273.312 
L 193.297388 273.312 
L 193.297388 160.339925 
L 191.689826 160.339925 
z
" clip-path="url(#p5a99b93dbd)" style="fill: #1f77b4"/>
   </g>
   <g id="patch_80">
    <path d="M 193.297388 273.312 
L 194.90495 273.312 
L 194.90495 180.065208 
L 193.297388 180.065208 
z
" clip-path="url(#p5a99b93dbd)" style="fill: #1f77b4"/>
   </g>
   <g id="patch_81">
    <path d="M 194.90495 273.312 
L 196.512512 273.312 
L 196.512512 178.272 
L 194.90495 178.272 
z
" clip-path="url(#p5a99b93dbd)" style="fill: #1f77b4"/>
   </g>
   <g id="patch_82">
    <path d="M 196.512512 273.312 
L 198.120074 273.312 
L 198.120074 165.121811 
L 196.512512 165.121811 
z
" clip-path="url(#p5a99b93dbd)" style="fill: #1f77b4"/>
   </g>
   <g id="patch_83">
    <path d="M 198.120074 273.312 
L 199.727636 273.312 
L 199.727636 177.674264 
L 198.120074 177.674264 
z
" clip-path="url(#p5a99b93dbd)" style="fill: #1f77b4"/>
   </g>
   <g id="patch_84">
    <path d="M 199.727636 273.312 
L 201.335198 273.312 
L 201.335198 186.042566 
L 199.727636 186.042566 
z
" clip-path="url(#p5a99b93dbd)" style="fill: #1f77b4"/>
   </g>
   <g id="patch_85">
    <path d="M 201.335198 273.312 
L 202.94276 273.312 
L 202.94276 160.93766 
L 201.335198 160.93766 
z
" clip-path="url(#p5a99b93dbd)" style="fill: #1f77b4"/>
   </g>
   <g id="patch_86">
    <path d="M 202.94276 273.312 
L 204.550322 273.312 
L 204.550322 187.835774 
L 202.94276 187.835774 
z
" clip-path="url(#p5a99b93dbd)" style="fill: #1f77b4"/>
   </g>
   <g id="patch_87">
    <path d="M 204.550322 273.312 
L 206.157884 273.312 
L 206.157884 169.305962 
L 204.550322 169.305962 
z
" clip-path="url(#p5a99b93dbd)" style="fill: #1f77b4"/>
   </g>
   <g id="patch_88">
    <path d="M 206.157884 273.312 
L 207.765446 273.312 
L 207.765446 162.133132 
L 206.157884 162.133132 
z
" clip-path="url(#p5a99b93dbd)" style="fill: #1f77b4"/>
   </g>
   <g id="patch_89">
    <path d="M 207.765446 273.312 
L 209.373008 273.312 
L 209.373008 164.524075 
L 207.765446 164.524075 
z
" clip-path="url(#p5a99b93dbd)" style="fill: #1f77b4"/>
   </g>
   <g id="patch_90">
    <path d="M 209.373008 273.312 
L 210.980571 273.312 
L 210.980571 165.121811 
L 209.373008 165.121811 
z
" clip-path="url(#p5a99b93dbd)" style="fill: #1f77b4"/>
   </g>
   <g id="patch_91">
    <path d="M 210.980571 273.312 
L 212.588133 273.312 
L 212.588133 179.467472 
L 210.980571 179.467472 
z
" clip-path="url(#p5a99b93dbd)" style="fill: #1f77b4"/>
   </g>
   <g id="patch_92">
    <path d="M 212.588133 273.312 
L 214.195695 273.312 
L 214.195695 166.915019 
L 212.588133 166.915019 
z
" clip-path="url(#p5a99b93dbd)" style="fill: #1f77b4"/>
   </g>
   <g id="patch_93">
    <path d="M 214.195695 273.312 
L 215.803257 273.312 
L 215.803257 168.708226 
L 214.195695 168.708226 
z
" clip-path="url(#p5a99b93dbd)" style="fill: #1f77b4"/>
   </g>
   <g id="patch_94">
    <path d="M 215.803257 273.312 
L 217.410819 273.312 
L 217.410819 175.881057 
L 215.803257 175.881057 
z
" clip-path="url(#p5a99b93dbd)" style="fill: #1f77b4"/>
   </g>
   <g id="patch_95">
    <path d="M 217.410819 273.312 
L 219.018381 273.312 
L 219.018381 159.144453 
L 217.410819 159.144453 
z
" clip-path="url(#p5a99b93dbd)" style="fill: #1f77b4"/>
   </g>
   <g id="patch_96">
    <path d="M 219.018381 273.312 
L 220.625943 273.312 
L 220.625943 156.753509 
L 219.018381 156.753509 
z
" clip-path="url(#p5a99b93dbd)" style="fill: #1f77b4"/>
   </g>
   <g id="patch_97">
    <path d="M 220.625943 273.312 
L 222.233505 273.312 
L 222.233505 162.133132 
L 220.625943 162.133132 
z
" clip-path="url(#p5a99b93dbd)" style="fill: #1f77b4"/>
   </g>
   <g id="patch_98">
    <path d="M 222.233505 273.312 
L 223.841067 273.312 
L 223.841067 154.960302 
L 222.233505 154.960302 
z
" clip-path="url(#p5a99b93dbd)" style="fill: #1f77b4"/>
   </g>
   <g id="patch_99">
    <path d="M 223.841067 273.312 
L 225.448629 273.312 
L 225.448629 169.305962 
L 223.841067 169.305962 
z
" clip-path="url(#p5a99b93dbd)" style="fill: #1f77b4"/>
   </g>
   <g id="patch_100">
    <path d="M 225.448629 273.312 
L 227.056191 273.312 
L 227.056191 149.580679 
L 225.448629 149.580679 
z
" clip-path="url(#p5a99b93dbd)" style="fill: #1f77b4"/>
   </g>
   <g id="patch_101">
    <path d="M 227.056191 273.312 
L 228.663753 273.312 
L 228.663753 165.121811 
L 227.056191 165.121811 
z
" clip-path="url(#p5a99b93dbd)" style="fill: #1f77b4"/>
   </g>
   <g id="patch_102">
    <path d="M 228.663753 273.312 
L 230.271316 273.312 
L 230.271316 163.92634 
L 228.663753 163.92634 
z
" clip-path="url(#p5a99b93dbd)" style="fill: #1f77b4"/>
   </g>
   <g id="patch_103">
    <path d="M 230.271316 273.312 
L 231.878878 273.312 
L 231.878878 157.948981 
L 230.271316 157.948981 
z
" clip-path="url(#p5a99b93dbd)" style="fill: #1f77b4"/>
   </g>
   <g id="patch_104">
    <path d="M 231.878878 273.312 
L 233.48644 273.312 
L 233.48644 154.960302 
L 231.878878 154.960302 
z
" clip-path="url(#p5a99b93dbd)" style="fill: #1f77b4"/>
   </g>
   <g id="patch_105">
    <path d="M 233.48644 273.312 
L 235.094002 273.312 
L 235.094002 160.339925 
L 233.48644 160.339925 
z
" clip-path="url(#p5a99b93dbd)" style="fill: #1f77b4"/>
   </g>
   <g id="patch_106">
    <path d="M 235.094002 273.312 
L 236.701564 273.312 
L 236.701564 138.223698 
L 235.094002 138.223698 
z
" clip-path="url(#p5a99b93dbd)" style="fill: #1f77b4"/>
   </g>
   <g id="patch_107">
    <path d="M 236.701564 273.312 
L 238.309126 273.312 
L 238.309126 141.212377 
L 236.701564 141.212377 
z
" clip-path="url(#p5a99b93dbd)" style="fill: #1f77b4"/>
   </g>
   <g id="patch_108">
    <path d="M 238.309126 273.312 
L 239.916688 273.312 
L 239.916688 141.810113 
L 238.309126 141.810113 
z
" clip-path="url(#p5a99b93dbd)" style="fill: #1f77b4"/>
   </g>
   <g id="patch_109">
    <path d="M 239.916688 273.312 
L 241.52425 273.312 
L 241.52425 151.373887 
L 239.916688 151.373887 
z
" clip-path="url(#p5a99b93dbd)" style="fill: #1f77b4"/>
   </g>
   <g id="patch_110">
    <path d="M 241.52425 273.312 
L 243.131812 273.312 
L 243.131812 162.730868 
L 241.52425 162.730868 
z
" clip-path="url(#p5a99b93dbd)" style="fill: #1f77b4"/>
   </g>
   <g id="patch_111">
    <path d="M 243.131812 273.312 
L 244.739374 273.312 
L 244.739374 133.441811 
L 243.131812 133.441811 
z
" clip-path="url(#p5a99b93dbd)" style="fill: #1f77b4"/>
   </g>
   <g id="patch_112">
    <path d="M 244.739374 273.312 
L 246.346936 273.312 
L 246.346936 142.407849 
L 244.739374 142.407849 
z
" clip-path="url(#p5a99b93dbd)" style="fill: #1f77b4"/>
   </g>
   <g id="patch_113">
    <path d="M 246.346936 273.312 
L 247.954499 273.312 
L 247.954499 134.039547 
L 246.346936 134.039547 
z
" clip-path="url(#p5a99b93dbd)" style="fill: #1f77b4"/>
   </g>
   <g id="patch_114">
    <path d="M 247.954499 273.312 
L 249.562061 273.312 
L 249.562061 141.810113 
L 247.954499 141.810113 
z
" clip-path="url(#p5a99b93dbd)" style="fill: #1f77b4"/>
   </g>
   <g id="patch_115">
    <path d="M 249.562061 273.312 
L 251.169623 273.312 
L 251.169623 122.08483 
L 249.562061 122.08483 
z
" clip-path="url(#p5a99b93dbd)" style="fill: #1f77b4"/>
   </g>
   <g id="patch_116">
    <path d="M 251.169623 273.312 
L 252.777185 273.312 
L 252.777185 141.212377 
L 251.169623 141.212377 
z
" clip-path="url(#p5a99b93dbd)" style="fill: #1f77b4"/>
   </g>
   <g id="patch_117">
    <path d="M 252.777185 273.312 
L 254.384747 273.312 
L 254.384747 147.189736 
L 252.777185 147.189736 
z
" clip-path="url(#p5a99b93dbd)" style="fill: #1f77b4"/>
   </g>
   <g id="patch_118">
    <path d="M 254.384747 273.312 
L 255.992309 273.312 
L 255.992309 120.291623 
L 254.384747 120.291623 
z
" clip-path="url(#p5a99b93dbd)" style="fill: #1f77b4"/>
   </g>
   <g id="patch_119">
    <path d="M 255.992309 273.312 
L 257.599871 273.312 
L 257.599871 129.25766 
L 255.992309 129.25766 
z
" clip-path="url(#p5a99b93dbd)" style="fill: #1f77b4"/>
   </g>
   <g id="patch_120">
    <path d="M 257.599871 273.312 
L 259.207433 273.312 
L 259.207433 129.25766 
L 257.599871 129.25766 
z
" clip-path="url(#p5a99b93dbd)" style="fill: #1f77b4"/>
   </g>
   <g id="patch_121">
    <path d="M 259.207433 273.312 
L 260.814995 273.312 
L 260.814995 134.637283 
L 259.207433 134.637283 
z
" clip-path="url(#p5a99b93dbd)" style="fill: #1f77b4"/>
   </g>
   <g id="patch_122">
    <path d="M 260.814995 273.312 
L 262.422557 273.312 
L 262.422557 131.050868 
L 260.814995 131.050868 
z
" clip-path="url(#p5a99b93dbd)" style="fill: #1f77b4"/>
   </g>
   <g id="patch_123">
    <path d="M 262.422557 273.312 
L 264.030119 273.312 
L 264.030119 117.900679 
L 262.422557 117.900679 
z
" clip-path="url(#p5a99b93dbd)" style="fill: #1f77b4"/>
   </g>
   <g id="patch_124">
    <path d="M 264.030119 273.312 
L 265.637681 273.312 
L 265.637681 140.016906 
L 264.030119 140.016906 
z
" clip-path="url(#p5a99b93dbd)" style="fill: #1f77b4"/>
   </g>
   <g id="patch_125">
    <path d="M 265.637681 273.312 
L 267.245244 273.312 
L 267.245244 128.659925 
L 265.637681 128.659925 
z
" clip-path="url(#p5a99b93dbd)" style="fill: #1f77b4"/>
   </g>
   <g id="patch_126">
    <path d="M 267.245244 273.312 
L 268.852806 273.312 
L 268.852806 143.603321 
L 267.245244 143.603321 
z
" clip-path="url(#p5a99b93dbd)" style="fill: #1f77b4"/>
   </g>
   <g id="patch_127">
    <path d="M 268.852806 273.312 
L 270.460368 273.312 
L 270.460368 121.487094 
L 268.852806 121.487094 
z
" clip-path="url(#p5a99b93dbd)" style="fill: #1f77b4"/>
   </g>
   <g id="patch_128">
    <path d="M 270.460368 273.312 
L 272.06793 273.312 
L 272.06793 137.625962 
L 270.460368 137.625962 
z
" clip-path="url(#p5a99b93dbd)" style="fill: #1f77b4"/>
   </g>
   <g id="patch_129">
    <path d="M 272.06793 273.312 
L 273.675492 273.312 
L 273.675492 118.498415 
L 272.06793 118.498415 
z
" clip-path="url(#p5a99b93dbd)" style="fill: #1f77b4"/>
   </g>
   <g id="patch_130">
    <path d="M 273.675492 273.312 
L 275.283054 273.312 
L 275.283054 125.073509 
L 273.675492 125.073509 
z
" clip-path="url(#p5a99b93dbd)" style="fill: #1f77b4"/>
   </g>
   <g id="patch_131">
    <path d="M 275.283054 273.312 
L 276.890616 273.312 
L 276.890616 113.118792 
L 275.283054 113.118792 
z
" clip-path="url(#p5a99b93dbd)" style="fill: #1f77b4"/>
   </g>
   <g id="patch_132">
    <path d="M 276.890616 273.312 
L 278.498178 273.312 
L 278.498178 118.498415 
L 276.890616 118.498415 
z
" clip-path="url(#p5a99b93dbd)" style="fill: #1f77b4"/>
   </g>
   <g id="patch_133">
    <path d="M 278.498178 273.312 
L 280.10574 273.312 
L 280.10574 122.682566 
L 278.498178 122.682566 
z
" clip-path="url(#p5a99b93dbd)" style="fill: #1f77b4"/>
   </g>
   <g id="patch_134">
    <path d="M 280.10574 273.312 
L 281.713302 273.312 
L 281.713302 113.118792 
L 280.10574 113.118792 
z
" clip-path="url(#p5a99b93dbd)" style="fill: #1f77b4"/>
   </g>
   <g id="patch_135">
    <path d="M 281.713302 273.312 
L 283.320864 273.312 
L 283.320864 119.693887 
L 281.713302 119.693887 
z
" clip-path="url(#p5a99b93dbd)" style="fill: #1f77b4"/>
   </g>
   <g id="patch_136">
    <path d="M 283.320864 273.312 
L 284.928427 273.312 
L 284.928427 125.073509 
L 283.320864 125.073509 
z
" clip-path="url(#p5a99b93dbd)" style="fill: #1f77b4"/>
   </g>
   <g id="patch_137">
    <path d="M 284.928427 273.312 
L 286.535989 273.312 
L 286.535989 128.659925 
L 284.928427 128.659925 
z
" clip-path="url(#p5a99b93dbd)" style="fill: #1f77b4"/>
   </g>
   <g id="patch_138">
    <path d="M 286.535989 273.312 
L 288.143551 273.312 
L 288.143551 112.521057 
L 286.535989 112.521057 
z
" clip-path="url(#p5a99b93dbd)" style="fill: #1f77b4"/>
   </g>
   <g id="patch_139">
    <path d="M 288.143551 273.312 
L 289.751113 273.312 
L 289.751113 108.934642 
L 288.143551 108.934642 
z
" clip-path="url(#p5a99b93dbd)" style="fill: #1f77b4"/>
   </g>
   <g id="patch_140">
    <path d="M 289.751113 273.312 
L 291.358675 273.312 
L 291.358675 106.543698 
L 289.751113 106.543698 
z
" clip-path="url(#p5a99b93dbd)" style="fill: #1f77b4"/>
   </g>
   <g id="patch_141">
    <path d="M 291.358675 273.312 
L 292.966237 273.312 
L 292.966237 92.198038 
L 291.358675 92.198038 
z
" clip-path="url(#p5a99b93dbd)" style="fill: #1f77b4"/>
   </g>
   <g id="patch_142">
    <path d="M 292.966237 273.312 
L 294.573799 273.312 
L 294.573799 101.164075 
L 292.966237 101.164075 
z
" clip-path="url(#p5a99b93dbd)" style="fill: #1f77b4"/>
   </g>
   <g id="patch_143">
    <path d="M 294.573799 273.312 
L 296.181361 273.312 
L 296.181361 111.325585 
L 294.573799 111.325585 
z
" clip-path="url(#p5a99b93dbd)" style="fill: #1f77b4"/>
   </g>
   <g id="patch_144">
    <path d="M 296.181361 273.312 
L 297.788923 273.312 
L 297.788923 93.991245 
L 296.181361 93.991245 
z
" clip-path="url(#p5a99b93dbd)" style="fill: #1f77b4"/>
   </g>
   <g id="patch_145">
    <path d="M 297.788923 273.312 
L 299.396485 273.312 
L 299.396485 110.727849 
L 297.788923 110.727849 
z
" clip-path="url(#p5a99b93dbd)" style="fill: #1f77b4"/>
   </g>
   <g id="patch_146">
    <path d="M 299.396485 273.312 
L 301.004047 273.312 
L 301.004047 104.750491 
L 299.396485 104.750491 
z
" clip-path="url(#p5a99b93dbd)" style="fill: #1f77b4"/>
   </g>
   <g id="patch_147">
    <path d="M 301.004047 273.312 
L 302.611609 273.312 
L 302.611609 108.934642 
L 301.004047 108.934642 
z
" clip-path="url(#p5a99b93dbd)" style="fill: #1f77b4"/>
   </g>
   <g id="patch_148">
    <path d="M 302.611609 273.312 
L 304.219172 273.312 
L 304.219172 98.773132 
L 302.611609 98.773132 
z
" clip-path="url(#p5a99b93dbd)" style="fill: #1f77b4"/>
   </g>
   <g id="patch_149">
    <path d="M 304.219172 273.312 
L 305.826734 273.312 
L 305.826734 88.013887 
L 304.219172 88.013887 
z
" clip-path="url(#p5a99b93dbd)" style="fill: #1f77b4"/>
   </g>
   <g id="patch_150">
    <path d="M 305.826734 273.312 
L 307.434296 273.312 
L 307.434296 99.968604 
L 305.826734 99.968604 
z
" clip-path="url(#p5a99b93dbd)" style="fill: #1f77b4"/>
   </g>
   <g id="patch_151">
    <path d="M 307.434296 273.312 
L 309.041858 273.312 
L 309.041858 111.325585 
L 307.434296 111.325585 
z
" clip-path="url(#p5a99b93dbd)" style="fill: #1f77b4"/>
   </g>
   <g id="patch_152">
    <path d="M 309.041858 273.312 
L 310.64942 273.312 
L 310.64942 93.393509 
L 309.041858 93.393509 
z
" clip-path="url(#p5a99b93dbd)" style="fill: #1f77b4"/>
   </g>
   <g id="patch_153">
    <path d="M 310.64942 273.312 
L 312.256982 273.312 
L 312.256982 115.509736 
L 310.64942 115.509736 
z
" clip-path="url(#p5a99b93dbd)" style="fill: #1f77b4"/>
   </g>
   <g id="patch_154">
    <path d="M 312.256982 273.312 
L 313.864544 273.312 
L 313.864544 110.727849 
L 312.256982 110.727849 
z
" clip-path="url(#p5a99b93dbd)" style="fill: #1f77b4"/>
   </g>
   <g id="patch_155">
    <path d="M 313.864544 273.312 
L 315.472106 273.312 
L 315.472106 83.232 
L 313.864544 83.232 
z
" clip-path="url(#p5a99b93dbd)" style="fill: #1f77b4"/>
   </g>
   <g id="patch_156">
    <path d="M 315.472106 273.312 
L 317.079668 273.312 
L 317.079668 104.750491 
L 315.472106 104.750491 
z
" clip-path="url(#p5a99b93dbd)" style="fill: #1f77b4"/>
   </g>
   <g id="patch_157">
    <path d="M 317.079668 273.312 
L 318.68723 273.312 
L 318.68723 93.393509 
L 317.079668 93.393509 
z
" clip-path="url(#p5a99b93dbd)" style="fill: #1f77b4"/>
   </g>
   <g id="patch_158">
    <path d="M 318.68723 273.312 
L 320.294792 273.312 
L 320.294792 76.05917 
L 318.68723 76.05917 
z
" clip-path="url(#p5a99b93dbd)" style="fill: #1f77b4"/>
   </g>
   <g id="patch_159">
    <path d="M 320.294792 273.312 
L 321.902354 273.312 
L 321.902354 95.784453 
L 320.294792 95.784453 
z
" clip-path="url(#p5a99b93dbd)" style="fill: #1f77b4"/>
   </g>
   <g id="patch_160">
    <path d="M 321.902354 273.312 
L 323.509917 273.312 
L 323.509917 89.807094 
L 321.902354 89.807094 
z
" clip-path="url(#p5a99b93dbd)" style="fill: #1f77b4"/>
   </g>
   <g id="patch_161">
    <path d="M 323.509917 273.312 
L 325.117479 273.312 
L 325.117479 87.416151 
L 323.509917 87.416151 
z
" clip-path="url(#p5a99b93dbd)" style="fill: #1f77b4"/>
   </g>
   <g id="patch_162">
    <path d="M 325.117479 273.312 
L 326.725041 273.312 
L 326.725041 85.622943 
L 325.117479 85.622943 
z
" clip-path="url(#p5a99b93dbd)" style="fill: #1f77b4"/>
   </g>
   <g id="patch_163">
    <path d="M 326.725041 273.312 
L 328.332603 273.312 
L 328.332603 98.175396 
L 326.725041 98.175396 
z
" clip-path="url(#p5a99b93dbd)" style="fill: #1f77b4"/>
   </g>
   <g id="patch_164">
    <path d="M 328.332603 273.312 
L 329.940165 273.312 
L 329.940165 83.232 
L 328.332603 83.232 
z
" clip-path="url(#p5a99b93dbd)" style="fill: #1f77b4"/>
   </g>
   <g id="patch_165">
    <path d="M 329.940165 273.312 
L 331.547727 273.312 
L 331.547727 83.829736 
L 329.940165 83.829736 
z
" clip-path="url(#p5a99b93dbd)" style="fill: #1f77b4"/>
   </g>
   <g id="patch_166">
    <path d="M 331.547727 273.312 
L 333.155289 273.312 
L 333.155289 89.209358 
L 331.547727 89.209358 
z
" clip-path="url(#p5a99b93dbd)" style="fill: #1f77b4"/>
   </g>
   <g id="patch_167">
    <path d="M 333.155289 273.312 
L 334.762851 273.312 
L 334.762851 58.72483 
L 333.155289 58.72483 
z
" clip-path="url(#p5a99b93dbd)" style="fill: #1f77b4"/>
   </g>
   <g id="patch_168">
    <path d="M 334.762851 273.312 
L 336.370413 273.312 
L 336.370413 84.427472 
L 334.762851 84.427472 
z
" clip-path="url(#p5a99b93dbd)" style="fill: #1f77b4"/>
   </g>
   <g id="patch_169">
    <path d="M 336.370413 273.312 
L 337.977975 273.312 
L 337.977975 67.690868 
L 336.370413 67.690868 
z
" clip-path="url(#p5a99b93dbd)" style="fill: #1f77b4"/>
   </g>
   <g id="patch_170">
    <path d="M 337.977975 273.312 
L 339.585537 273.312 
L 339.585537 83.829736 
L 337.977975 83.829736 
z
" clip-path="url(#p5a99b93dbd)" style="fill: #1f77b4"/>
   </g>
   <g id="patch_171">
    <path d="M 339.585537 273.312 
L 341.1931 273.312 
L 341.1931 79.645585 
L 339.585537 79.645585 
z
" clip-path="url(#p5a99b93dbd)" style="fill: #1f77b4"/>
   </g>
   <g id="patch_172">
    <path d="M 341.1931 273.312 
L 342.800662 273.312 
L 342.800662 64.702189 
L 341.1931 64.702189 
z
" clip-path="url(#p5a99b93dbd)" style="fill: #1f77b4"/>
   </g>
   <g id="patch_173">
    <path d="M 342.800662 273.312 
L 344.408224 273.312 
L 344.408224 76.05917 
L 342.800662 76.05917 
z
" clip-path="url(#p5a99b93dbd)" style="fill: #1f77b4"/>
   </g>
   <g id="patch_174">
    <path d="M 344.408224 273.312 
L 346.015786 273.312 
L 346.015786 46.172377 
L 344.408224 46.172377 
z
" clip-path="url(#p5a99b93dbd)" style="fill: #1f77b4"/>
   </g>
   <g id="patch_175">
    <path d="M 346.015786 273.312 
L 347.623348 273.312 
L 347.623348 83.829736 
L 346.015786 83.829736 
z
" clip-path="url(#p5a99b93dbd)" style="fill: #1f77b4"/>
   </g>
   <g id="patch_176">
    <path d="M 347.623348 273.312 
L 349.23091 273.312 
L 349.23091 79.645585 
L 347.623348 79.645585 
z
" clip-path="url(#p5a99b93dbd)" style="fill: #1f77b4"/>
   </g>
   <g id="patch_177">
    <path d="M 349.23091 273.312 
L 350.838472 273.312 
L 350.838472 71.277283 
L 349.23091 71.277283 
z
" clip-path="url(#p5a99b93dbd)" style="fill: #1f77b4"/>
   </g>
   <g id="patch_178">
    <path d="M 350.838472 273.312 
L 352.446034 273.312 
L 352.446034 75.461434 
L 350.838472 75.461434 
z
" clip-path="url(#p5a99b93dbd)" style="fill: #1f77b4"/>
   </g>
   <g id="patch_179">
    <path d="M 352.446034 273.312 
L 354.053596 273.312 
L 354.053596 56.333887 
L 352.446034 56.333887 
z
" clip-path="url(#p5a99b93dbd)" style="fill: #1f77b4"/>
   </g>
   <g id="patch_180">
    <path d="M 354.053596 273.312 
L 355.661158 273.312 
L 355.661158 47.367849 
L 354.053596 47.367849 
z
" clip-path="url(#p5a99b93dbd)" style="fill: #1f77b4"/>
   </g>
   <g id="patch_181">
    <path d="M 355.661158 273.312 
L 357.26872 273.312 
L 357.26872 46.172377 
L 355.661158 46.172377 
z
" clip-path="url(#p5a99b93dbd)" style="fill: #1f77b4"/>
   </g>
   <g id="patch_182">
    <path d="M 357.26872 273.312 
L 358.876282 273.312 
L 358.876282 71.875019 
L 357.26872 71.875019 
z
" clip-path="url(#p5a99b93dbd)" style="fill: #1f77b4"/>
   </g>
   <g id="patch_183">
    <path d="M 358.876282 273.312 
L 360.483845 273.312 
L 360.483845 52.149736 
L 358.876282 52.149736 
z
" clip-path="url(#p5a99b93dbd)" style="fill: #1f77b4"/>
   </g>
   <g id="patch_184">
    <path d="M 360.483845 273.312 
L 362.091407 273.312 
L 362.091407 75.461434 
L 360.483845 75.461434 
z
" clip-path="url(#p5a99b93dbd)" style="fill: #1f77b4"/>
   </g>
   <g id="patch_185">
    <path d="M 362.091407 273.312 
L 363.698969 273.312 
L 363.698969 64.104453 
L 362.091407 64.104453 
z
" clip-path="url(#p5a99b93dbd)" style="fill: #1f77b4"/>
   </g>
   <g id="patch_186">
    <path d="M 363.698969 273.312 
L 365.306531 273.312 
L 365.306531 42.585962 
L 363.698969 42.585962 
z
" clip-path="url(#p5a99b93dbd)" style="fill: #1f77b4"/>
   </g>
   <g id="patch_187">
    <path d="M 365.306531 273.312 
L 366.914093 273.312 
L 366.914093 64.702189 
L 365.306531 64.702189 
z
" clip-path="url(#p5a99b93dbd)" style="fill: #1f77b4"/>
   </g>
   <g id="patch_188">
    <path d="M 366.914093 273.312 
L 368.521655 273.312 
L 368.521655 30.631245 
L 366.914093 30.631245 
z
" clip-path="url(#p5a99b93dbd)" style="fill: #1f77b4"/>
   </g>
   <g id="patch_189">
    <path d="M 368.521655 273.312 
L 370.129217 273.312 
L 370.129217 27.642566 
L 368.521655 27.642566 
z
" clip-path="url(#p5a99b93dbd)" style="fill: #1f77b4"/>
   </g>
   <g id="patch_190">
    <path d="M 370.129217 273.312 
L 371.736779 273.312 
L 371.736779 43.781434 
L 370.129217 43.781434 
z
" clip-path="url(#p5a99b93dbd)" style="fill: #1f77b4"/>
   </g>
   <g id="patch_191">
    <path d="M 371.736779 273.312 
L 373.344341 273.312 
L 373.344341 59.322566 
L 371.736779 59.322566 
z
" clip-path="url(#p5a99b93dbd)" style="fill: #1f77b4"/>
   </g>
   <g id="patch_192">
    <path d="M 373.344341 273.312 
L 374.951903 273.312 
L 374.951903 58.72483 
L 373.344341 58.72483 
z
" clip-path="url(#p5a99b93dbd)" style="fill: #1f77b4"/>
   </g>
   <g id="patch_193">
    <path d="M 374.951903 273.312 
L 376.559465 273.312 
L 376.559465 34.21766 
L 374.951903 34.21766 
z
" clip-path="url(#p5a99b93dbd)" style="fill: #1f77b4"/>
   </g>
   <g id="patch_194">
    <path d="M 376.559465 273.312 
L 378.167027 273.312 
L 378.167027 45.574642 
L 376.559465 45.574642 
z
" clip-path="url(#p5a99b93dbd)" style="fill: #1f77b4"/>
   </g>
   <g id="patch_195">
    <path d="M 378.167027 273.312 
L 379.77459 273.312 
L 379.77459 47.367849 
L 378.167027 47.367849 
z
" clip-path="url(#p5a99b93dbd)" style="fill: #1f77b4"/>
   </g>
   <g id="patch_196">
    <path d="M 379.77459 273.312 
L 381.382152 273.312 
L 381.382152 37.20634 
L 379.77459 37.20634 
z
" clip-path="url(#p5a99b93dbd)" style="fill: #1f77b4"/>
   </g>
   <g id="patch_197">
    <path d="M 381.382152 273.312 
L 382.989714 273.312 
L 382.989714 28.240302 
L 381.382152 28.240302 
z
" clip-path="url(#p5a99b93dbd)" style="fill: #1f77b4"/>
   </g>
   <g id="patch_198">
    <path d="M 382.989714 273.312 
L 384.597276 273.312 
L 384.597276 41.988226 
L 382.989714 41.988226 
z
" clip-path="url(#p5a99b93dbd)" style="fill: #1f77b4"/>
   </g>
   <g id="patch_199">
    <path d="M 384.597276 273.312 
L 386.204838 273.312 
L 386.204838 50.954264 
L 384.597276 50.954264 
z
" clip-path="url(#p5a99b93dbd)" style="fill: #1f77b4"/>
   </g>
   <g id="patch_200">
    <path d="M 386.204838 273.312 
L 387.8124 273.312 
L 387.8124 44.37917 
L 386.204838 44.37917 
z
" clip-path="url(#p5a99b93dbd)" style="fill: #1f77b4"/>
   </g>
   <g id="patch_201">
    <path d="M 387.8124 273.312 
L 389.419962 273.312 
L 389.419962 19.872 
L 387.8124 19.872 
z
" clip-path="url(#p5a99b93dbd)" style="fill: #1f77b4"/>
   </g>
   <g id="patch_202">
    <path d="M 389.419962 273.312 
L 391.027524 273.312 
L 391.027524 35.413132 
L 389.419962 35.413132 
z
" clip-path="url(#p5a99b93dbd)" style="fill: #1f77b4"/>
   </g>
   <g id="matplotlib.axis_1">
    <g id="xtick_1">
     <g id="line2d_1">
      <defs>
       <path id="m5617cad686" d="M 0 0 
L 0 3.5 
" style="stroke: #000000; stroke-width: 0.8"/>
      </defs>
      <g>
       <use xlink:href="#m5617cad686" x="66.376477" y="273.312" style="stroke: #000000; stroke-width: 0.8"/>
      </g>
     </g>
     <g id="text_1">
      <!-- 0.0 -->
      <g transform="translate(58.424915 287.910437)scale(0.1 -0.1)">
       <defs>
        <path id="DejaVuSans-30" d="M 2034 4250 
Q 1547 4250 1301 3770 
Q 1056 3291 1056 2328 
Q 1056 1369 1301 889 
Q 1547 409 2034 409 
Q 2525 409 2770 889 
Q 3016 1369 3016 2328 
Q 3016 3291 2770 3770 
Q 2525 4250 2034 4250 
z
M 2034 4750 
Q 2819 4750 3233 4129 
Q 3647 3509 3647 2328 
Q 3647 1150 3233 529 
Q 2819 -91 2034 -91 
Q 1250 -91 836 529 
Q 422 1150 422 2328 
Q 422 3509 836 4129 
Q 1250 4750 2034 4750 
z
" transform="scale(0.015625)"/>
        <path id="DejaVuSans-2e" d="M 684 794 
L 1344 794 
L 1344 0 
L 684 0 
L 684 794 
z
" transform="scale(0.015625)"/>
       </defs>
       <use xlink:href="#DejaVuSans-30"/>
       <use xlink:href="#DejaVuSans-2e" x="63.623047"/>
       <use xlink:href="#DejaVuSans-30" x="95.410156"/>
      </g>
     </g>
    </g>
    <g id="xtick_2">
     <g id="line2d_2">
      <g>
       <use xlink:href="#m5617cad686" x="131.307386" y="273.312" style="stroke: #000000; stroke-width: 0.8"/>
      </g>
     </g>
     <g id="text_2">
      <!-- 0.2 -->
      <g transform="translate(123.355824 287.910437)scale(0.1 -0.1)">
       <defs>
        <path id="DejaVuSans-32" d="M 1228 531 
L 3431 531 
L 3431 0 
L 469 0 
L 469 531 
Q 828 903 1448 1529 
Q 2069 2156 2228 2338 
Q 2531 2678 2651 2914 
Q 2772 3150 2772 3378 
Q 2772 3750 2511 3984 
Q 2250 4219 1831 4219 
Q 1534 4219 1204 4116 
Q 875 4013 500 3803 
L 500 4441 
Q 881 4594 1212 4672 
Q 1544 4750 1819 4750 
Q 2544 4750 2975 4387 
Q 3406 4025 3406 3419 
Q 3406 3131 3298 2873 
Q 3191 2616 2906 2266 
Q 2828 2175 2409 1742 
Q 1991 1309 1228 531 
z
" transform="scale(0.015625)"/>
       </defs>
       <use xlink:href="#DejaVuSans-30"/>
       <use xlink:href="#DejaVuSans-2e" x="63.623047"/>
       <use xlink:href="#DejaVuSans-32" x="95.410156"/>
      </g>
     </g>
    </g>
    <g id="xtick_3">
     <g id="line2d_3">
      <g>
       <use xlink:href="#m5617cad686" x="196.238295" y="273.312" style="stroke: #000000; stroke-width: 0.8"/>
      </g>
     </g>
     <g id="text_3">
      <!-- 0.4 -->
      <g transform="translate(188.286733 287.910437)scale(0.1 -0.1)">
       <defs>
        <path id="DejaVuSans-34" d="M 2419 4116 
L 825 1625 
L 2419 1625 
L 2419 4116 
z
M 2253 4666 
L 3047 4666 
L 3047 1625 
L 3713 1625 
L 3713 1100 
L 3047 1100 
L 3047 0 
L 2419 0 
L 2419 1100 
L 313 1100 
L 313 1709 
L 2253 4666 
z
" transform="scale(0.015625)"/>
       </defs>
       <use xlink:href="#DejaVuSans-30"/>
       <use xlink:href="#DejaVuSans-2e" x="63.623047"/>
       <use xlink:href="#DejaVuSans-34" x="95.410156"/>
      </g>
     </g>
    </g>
    <g id="xtick_4">
     <g id="line2d_4">
      <g>
       <use xlink:href="#m5617cad686" x="261.169205" y="273.312" style="stroke: #000000; stroke-width: 0.8"/>
      </g>
     </g>
     <g id="text_4">
      <!-- 0.6 -->
      <g transform="translate(253.217642 287.910437)scale(0.1 -0.1)">
       <defs>
        <path id="DejaVuSans-36" d="M 2113 2584 
Q 1688 2584 1439 2293 
Q 1191 2003 1191 1497 
Q 1191 994 1439 701 
Q 1688 409 2113 409 
Q 2538 409 2786 701 
Q 3034 994 3034 1497 
Q 3034 2003 2786 2293 
Q 2538 2584 2113 2584 
z
M 3366 4563 
L 3366 3988 
Q 3128 4100 2886 4159 
Q 2644 4219 2406 4219 
Q 1781 4219 1451 3797 
Q 1122 3375 1075 2522 
Q 1259 2794 1537 2939 
Q 1816 3084 2150 3084 
Q 2853 3084 3261 2657 
Q 3669 2231 3669 1497 
Q 3669 778 3244 343 
Q 2819 -91 2113 -91 
Q 1303 -91 875 529 
Q 447 1150 447 2328 
Q 447 3434 972 4092 
Q 1497 4750 2381 4750 
Q 2619 4750 2861 4703 
Q 3103 4656 3366 4563 
z
" transform="scale(0.015625)"/>
       </defs>
       <use xlink:href="#DejaVuSans-30"/>
       <use xlink:href="#DejaVuSans-2e" x="63.623047"/>
       <use xlink:href="#DejaVuSans-36" x="95.410156"/>
      </g>
     </g>
    </g>
    <g id="xtick_5">
     <g id="line2d_5">
      <g>
       <use xlink:href="#m5617cad686" x="326.100114" y="273.312" style="stroke: #000000; stroke-width: 0.8"/>
      </g>
     </g>
     <g id="text_5">
      <!-- 0.8 -->
      <g transform="translate(318.148551 287.910437)scale(0.1 -0.1)">
       <defs>
        <path id="DejaVuSans-38" d="M 2034 2216 
Q 1584 2216 1326 1975 
Q 1069 1734 1069 1313 
Q 1069 891 1326 650 
Q 1584 409 2034 409 
Q 2484 409 2743 651 
Q 3003 894 3003 1313 
Q 3003 1734 2745 1975 
Q 2488 2216 2034 2216 
z
M 1403 2484 
Q 997 2584 770 2862 
Q 544 3141 544 3541 
Q 544 4100 942 4425 
Q 1341 4750 2034 4750 
Q 2731 4750 3128 4425 
Q 3525 4100 3525 3541 
Q 3525 3141 3298 2862 
Q 3072 2584 2669 2484 
Q 3125 2378 3379 2068 
Q 3634 1759 3634 1313 
Q 3634 634 3220 271 
Q 2806 -91 2034 -91 
Q 1263 -91 848 271 
Q 434 634 434 1313 
Q 434 1759 690 2068 
Q 947 2378 1403 2484 
z
M 1172 3481 
Q 1172 3119 1398 2916 
Q 1625 2713 2034 2713 
Q 2441 2713 2670 2916 
Q 2900 3119 2900 3481 
Q 2900 3844 2670 4047 
Q 2441 4250 2034 4250 
Q 1625 4250 1398 4047 
Q 1172 3844 1172 3481 
z
" transform="scale(0.015625)"/>
       </defs>
       <use xlink:href="#DejaVuSans-30"/>
       <use xlink:href="#DejaVuSans-2e" x="63.623047"/>
       <use xlink:href="#DejaVuSans-38" x="95.410156"/>
      </g>
     </g>
    </g>
    <g id="xtick_6">
     <g id="line2d_6">
      <g>
       <use xlink:href="#m5617cad686" x="391.031023" y="273.312" style="stroke: #000000; stroke-width: 0.8"/>
      </g>
     </g>
     <g id="text_6">
      <!-- 1.0 -->
      <g transform="translate(383.07946 287.910437)scale(0.1 -0.1)">
       <defs>
        <path id="DejaVuSans-31" d="M 794 531 
L 1825 531 
L 1825 4091 
L 703 3866 
L 703 4441 
L 1819 4666 
L 2450 4666 
L 2450 531 
L 3481 531 
L 3481 0 
L 794 0 
L 794 531 
z
" transform="scale(0.015625)"/>
       </defs>
       <use xlink:href="#DejaVuSans-31"/>
       <use xlink:href="#DejaVuSans-2e" x="63.623047"/>
       <use xlink:href="#DejaVuSans-30" x="95.410156"/>
      </g>
     </g>
    </g>
    <g id="text_7">
     <!-- Propagation direction -->
     <g transform="translate(175.221719 301.588562)scale(0.1 -0.1)">
      <defs>
       <path id="DejaVuSans-50" d="M 1259 4147 
L 1259 2394 
L 2053 2394 
Q 2494 2394 2734 2622 
Q 2975 2850 2975 3272 
Q 2975 3691 2734 3919 
Q 2494 4147 2053 4147 
L 1259 4147 
z
M 628 4666 
L 2053 4666 
Q 2838 4666 3239 4311 
Q 3641 3956 3641 3272 
Q 3641 2581 3239 2228 
Q 2838 1875 2053 1875 
L 1259 1875 
L 1259 0 
L 628 0 
L 628 4666 
z
" transform="scale(0.015625)"/>
       <path id="DejaVuSans-72" d="M 2631 2963 
Q 2534 3019 2420 3045 
Q 2306 3072 2169 3072 
Q 1681 3072 1420 2755 
Q 1159 2438 1159 1844 
L 1159 0 
L 581 0 
L 581 3500 
L 1159 3500 
L 1159 2956 
Q 1341 3275 1631 3429 
Q 1922 3584 2338 3584 
Q 2397 3584 2469 3576 
Q 2541 3569 2628 3553 
L 2631 2963 
z
" transform="scale(0.015625)"/>
       <path id="DejaVuSans-6f" d="M 1959 3097 
Q 1497 3097 1228 2736 
Q 959 2375 959 1747 
Q 959 1119 1226 758 
Q 1494 397 1959 397 
Q 2419 397 2687 759 
Q 2956 1122 2956 1747 
Q 2956 2369 2687 2733 
Q 2419 3097 1959 3097 
z
M 1959 3584 
Q 2709 3584 3137 3096 
Q 3566 2609 3566 1747 
Q 3566 888 3137 398 
Q 2709 -91 1959 -91 
Q 1206 -91 779 398 
Q 353 888 353 1747 
Q 353 2609 779 3096 
Q 1206 3584 1959 3584 
z
" transform="scale(0.015625)"/>
       <path id="DejaVuSans-70" d="M 1159 525 
L 1159 -1331 
L 581 -1331 
L 581 3500 
L 1159 3500 
L 1159 2969 
Q 1341 3281 1617 3432 
Q 1894 3584 2278 3584 
Q 2916 3584 3314 3078 
Q 3713 2572 3713 1747 
Q 3713 922 3314 415 
Q 2916 -91 2278 -91 
Q 1894 -91 1617 61 
Q 1341 213 1159 525 
z
M 3116 1747 
Q 3116 2381 2855 2742 
Q 2594 3103 2138 3103 
Q 1681 3103 1420 2742 
Q 1159 2381 1159 1747 
Q 1159 1113 1420 752 
Q 1681 391 2138 391 
Q 2594 391 2855 752 
Q 3116 1113 3116 1747 
z
" transform="scale(0.015625)"/>
       <path id="DejaVuSans-61" d="M 2194 1759 
Q 1497 1759 1228 1600 
Q 959 1441 959 1056 
Q 959 750 1161 570 
Q 1363 391 1709 391 
Q 2188 391 2477 730 
Q 2766 1069 2766 1631 
L 2766 1759 
L 2194 1759 
z
M 3341 1997 
L 3341 0 
L 2766 0 
L 2766 531 
Q 2569 213 2275 61 
Q 1981 -91 1556 -91 
Q 1019 -91 701 211 
Q 384 513 384 1019 
Q 384 1609 779 1909 
Q 1175 2209 1959 2209 
L 2766 2209 
L 2766 2266 
Q 2766 2663 2505 2880 
Q 2244 3097 1772 3097 
Q 1472 3097 1187 3025 
Q 903 2953 641 2809 
L 641 3341 
Q 956 3463 1253 3523 
Q 1550 3584 1831 3584 
Q 2591 3584 2966 3190 
Q 3341 2797 3341 1997 
z
" transform="scale(0.015625)"/>
       <path id="DejaVuSans-67" d="M 2906 1791 
Q 2906 2416 2648 2759 
Q 2391 3103 1925 3103 
Q 1463 3103 1205 2759 
Q 947 2416 947 1791 
Q 947 1169 1205 825 
Q 1463 481 1925 481 
Q 2391 481 2648 825 
Q 2906 1169 2906 1791 
z
M 3481 434 
Q 3481 -459 3084 -895 
Q 2688 -1331 1869 -1331 
Q 1566 -1331 1297 -1286 
Q 1028 -1241 775 -1147 
L 775 -588 
Q 1028 -725 1275 -790 
Q 1522 -856 1778 -856 
Q 2344 -856 2625 -561 
Q 2906 -266 2906 331 
L 2906 616 
Q 2728 306 2450 153 
Q 2172 0 1784 0 
Q 1141 0 747 490 
Q 353 981 353 1791 
Q 353 2603 747 3093 
Q 1141 3584 1784 3584 
Q 2172 3584 2450 3431 
Q 2728 3278 2906 2969 
L 2906 3500 
L 3481 3500 
L 3481 434 
z
" transform="scale(0.015625)"/>
       <path id="DejaVuSans-74" d="M 1172 4494 
L 1172 3500 
L 2356 3500 
L 2356 3053 
L 1172 3053 
L 1172 1153 
Q 1172 725 1289 603 
Q 1406 481 1766 481 
L 2356 481 
L 2356 0 
L 1766 0 
Q 1100 0 847 248 
Q 594 497 594 1153 
L 594 3053 
L 172 3053 
L 172 3500 
L 594 3500 
L 594 4494 
L 1172 4494 
z
" transform="scale(0.015625)"/>
       <path id="DejaVuSans-69" d="M 603 3500 
L 1178 3500 
L 1178 0 
L 603 0 
L 603 3500 
z
M 603 4863 
L 1178 4863 
L 1178 4134 
L 603 4134 
L 603 4863 
z
" transform="scale(0.015625)"/>
       <path id="DejaVuSans-6e" d="M 3513 2113 
L 3513 0 
L 2938 0 
L 2938 2094 
Q 2938 2591 2744 2837 
Q 2550 3084 2163 3084 
Q 1697 3084 1428 2787 
Q 1159 2491 1159 1978 
L 1159 0 
L 581 0 
L 581 3500 
L 1159 3500 
L 1159 2956 
Q 1366 3272 1645 3428 
Q 1925 3584 2291 3584 
Q 2894 3584 3203 3211 
Q 3513 2838 3513 2113 
z
" transform="scale(0.015625)"/>
       <path id="DejaVuSans-20" transform="scale(0.015625)"/>
       <path id="DejaVuSans-64" d="M 2906 2969 
L 2906 4863 
L 3481 4863 
L 3481 0 
L 2906 0 
L 2906 525 
Q 2725 213 2448 61 
Q 2172 -91 1784 -91 
Q 1150 -91 751 415 
Q 353 922 353 1747 
Q 353 2572 751 3078 
Q 1150 3584 1784 3584 
Q 2172 3584 2448 3432 
Q 2725 3281 2906 2969 
z
M 947 1747 
Q 947 1113 1208 752 
Q 1469 391 1925 391 
Q 2381 391 2643 752 
Q 2906 1113 2906 1747 
Q 2906 2381 2643 2742 
Q 2381 3103 1925 3103 
Q 1469 3103 1208 2742 
Q 947 2381 947 1747 
z
" transform="scale(0.015625)"/>
       <path id="DejaVuSans-65" d="M 3597 1894 
L 3597 1613 
L 953 1613 
Q 991 1019 1311 708 
Q 1631 397 2203 397 
Q 2534 397 2845 478 
Q 3156 559 3463 722 
L 3463 178 
Q 3153 47 2828 -22 
Q 2503 -91 2169 -91 
Q 1331 -91 842 396 
Q 353 884 353 1716 
Q 353 2575 817 3079 
Q 1281 3584 2069 3584 
Q 2775 3584 3186 3129 
Q 3597 2675 3597 1894 
z
M 3022 2063 
Q 3016 2534 2758 2815 
Q 2500 3097 2075 3097 
Q 1594 3097 1305 2825 
Q 1016 2553 972 2059 
L 3022 2063 
z
" transform="scale(0.015625)"/>
       <path id="DejaVuSans-63" d="M 3122 3366 
L 3122 2828 
Q 2878 2963 2633 3030 
Q 2388 3097 2138 3097 
Q 1578 3097 1268 2742 
Q 959 2388 959 1747 
Q 959 1106 1268 751 
Q 1578 397 2138 397 
Q 2388 397 2633 464 
Q 2878 531 3122 666 
L 3122 134 
Q 2881 22 2623 -34 
Q 2366 -91 2075 -91 
Q 1284 -91 818 406 
Q 353 903 353 1747 
Q 353 2603 823 3093 
Q 1294 3584 2113 3584 
Q 2378 3584 2631 3529 
Q 2884 3475 3122 3366 
z
" transform="scale(0.015625)"/>
      </defs>
      <use xlink:href="#DejaVuSans-50"/>
      <use xlink:href="#DejaVuSans-72" x="58.552734"/>
      <use xlink:href="#DejaVuSans-6f" x="97.416016"/>
      <use xlink:href="#DejaVuSans-70" x="158.597656"/>
      <use xlink:href="#DejaVuSans-61" x="222.074219"/>
      <use xlink:href="#DejaVuSans-67" x="283.353516"/>
      <use xlink:href="#DejaVuSans-61" x="346.830078"/>
      <use xlink:href="#DejaVuSans-74" x="408.109375"/>
      <use xlink:href="#DejaVuSans-69" x="447.318359"/>
      <use xlink:href="#DejaVuSans-6f" x="475.101562"/>
      <use xlink:href="#DejaVuSans-6e" x="536.283203"/>
      <use xlink:href="#DejaVuSans-20" x="599.662109"/>
      <use xlink:href="#DejaVuSans-64" x="631.449219"/>
      <use xlink:href="#DejaVuSans-69" x="694.925781"/>
      <use xlink:href="#DejaVuSans-72" x="722.708984"/>
      <use xlink:href="#DejaVuSans-65" x="761.572266"/>
      <use xlink:href="#DejaVuSans-63" x="823.095703"/>
      <use xlink:href="#DejaVuSans-74" x="878.076172"/>
      <use xlink:href="#DejaVuSans-69" x="917.285156"/>
      <use xlink:href="#DejaVuSans-6f" x="945.068359"/>
      <use xlink:href="#DejaVuSans-6e" x="1006.25"/>
     </g>
    </g>
   </g>
   <g id="matplotlib.axis_2">
    <g id="ytick_1">
     <g id="line2d_7">
      <defs>
       <path id="m92c2731f6d" d="M 0 0 
L -3.5 0 
" style="stroke: #000000; stroke-width: 0.8"/>
      </defs>
      <g>
       <use xlink:href="#m92c2731f6d" x="50.14375" y="273.312" style="stroke: #000000; stroke-width: 0.8"/>
      </g>
     </g>
     <g id="text_8">
      <!-- 0.00 -->
      <g transform="translate(20.878125 277.111219)scale(0.1 -0.1)">
       <use xlink:href="#DejaVuSans-30"/>
       <use xlink:href="#DejaVuSans-2e" x="63.623047"/>
       <use xlink:href="#DejaVuSans-30" x="95.410156"/>
       <use xlink:href="#DejaVuSans-30" x="159.033203"/>
      </g>
     </g>
    </g>
    <g id="ytick_2">
     <g id="line2d_8">
      <g>
       <use xlink:href="#m92c2731f6d" x="50.14375" y="243.714463" style="stroke: #000000; stroke-width: 0.8"/>
      </g>
     </g>
     <g id="text_9">
      <!-- 0.25 -->
      <g transform="translate(20.878125 247.513682)scale(0.1 -0.1)">
       <defs>
        <path id="DejaVuSans-35" d="M 691 4666 
L 3169 4666 
L 3169 4134 
L 1269 4134 
L 1269 2991 
Q 1406 3038 1543 3061 
Q 1681 3084 1819 3084 
Q 2600 3084 3056 2656 
Q 3513 2228 3513 1497 
Q 3513 744 3044 326 
Q 2575 -91 1722 -91 
Q 1428 -91 1123 -41 
Q 819 9 494 109 
L 494 744 
Q 775 591 1075 516 
Q 1375 441 1709 441 
Q 2250 441 2565 725 
Q 2881 1009 2881 1497 
Q 2881 1984 2565 2268 
Q 2250 2553 1709 2553 
Q 1456 2553 1204 2497 
Q 953 2441 691 2322 
L 691 4666 
z
" transform="scale(0.015625)"/>
       </defs>
       <use xlink:href="#DejaVuSans-30"/>
       <use xlink:href="#DejaVuSans-2e" x="63.623047"/>
       <use xlink:href="#DejaVuSans-32" x="95.410156"/>
       <use xlink:href="#DejaVuSans-35" x="159.033203"/>
      </g>
     </g>
    </g>
    <g id="ytick_3">
     <g id="line2d_9">
      <g>
       <use xlink:href="#m92c2731f6d" x="50.14375" y="214.116926" style="stroke: #000000; stroke-width: 0.8"/>
      </g>
     </g>
     <g id="text_10">
      <!-- 0.50 -->
      <g transform="translate(20.878125 217.916145)scale(0.1 -0.1)">
       <use xlink:href="#DejaVuSans-30"/>
       <use xlink:href="#DejaVuSans-2e" x="63.623047"/>
       <use xlink:href="#DejaVuSans-35" x="95.410156"/>
       <use xlink:href="#DejaVuSans-30" x="159.033203"/>
      </g>
     </g>
    </g>
    <g id="ytick_4">
     <g id="line2d_10">
      <g>
       <use xlink:href="#m92c2731f6d" x="50.14375" y="184.519389" style="stroke: #000000; stroke-width: 0.8"/>
      </g>
     </g>
     <g id="text_11">
      <!-- 0.75 -->
      <g transform="translate(20.878125 188.318608)scale(0.1 -0.1)">
       <defs>
        <path id="DejaVuSans-37" d="M 525 4666 
L 3525 4666 
L 3525 4397 
L 1831 0 
L 1172 0 
L 2766 4134 
L 525 4134 
L 525 4666 
z
" transform="scale(0.015625)"/>
       </defs>
       <use xlink:href="#DejaVuSans-30"/>
       <use xlink:href="#DejaVuSans-2e" x="63.623047"/>
       <use xlink:href="#DejaVuSans-37" x="95.410156"/>
       <use xlink:href="#DejaVuSans-35" x="159.033203"/>
      </g>
     </g>
    </g>
    <g id="ytick_5">
     <g id="line2d_11">
      <g>
       <use xlink:href="#m92c2731f6d" x="50.14375" y="154.921852" style="stroke: #000000; stroke-width: 0.8"/>
      </g>
     </g>
     <g id="text_12">
      <!-- 1.00 -->
      <g transform="translate(20.878125 158.721071)scale(0.1 -0.1)">
       <use xlink:href="#DejaVuSans-31"/>
       <use xlink:href="#DejaVuSans-2e" x="63.623047"/>
       <use xlink:href="#DejaVuSans-30" x="95.410156"/>
       <use xlink:href="#DejaVuSans-30" x="159.033203"/>
      </g>
     </g>
    </g>
    <g id="ytick_6">
     <g id="line2d_12">
      <g>
       <use xlink:href="#m92c2731f6d" x="50.14375" y="125.324316" style="stroke: #000000; stroke-width: 0.8"/>
      </g>
     </g>
     <g id="text_13">
      <!-- 1.25 -->
      <g transform="translate(20.878125 129.123534)scale(0.1 -0.1)">
       <use xlink:href="#DejaVuSans-31"/>
       <use xlink:href="#DejaVuSans-2e" x="63.623047"/>
       <use xlink:href="#DejaVuSans-32" x="95.410156"/>
       <use xlink:href="#DejaVuSans-35" x="159.033203"/>
      </g>
     </g>
    </g>
    <g id="ytick_7">
     <g id="line2d_13">
      <g>
       <use xlink:href="#m92c2731f6d" x="50.14375" y="95.726779" style="stroke: #000000; stroke-width: 0.8"/>
      </g>
     </g>
     <g id="text_14">
      <!-- 1.50 -->
      <g transform="translate(20.878125 99.525997)scale(0.1 -0.1)">
       <use xlink:href="#DejaVuSans-31"/>
       <use xlink:href="#DejaVuSans-2e" x="63.623047"/>
       <use xlink:href="#DejaVuSans-35" x="95.410156"/>
       <use xlink:href="#DejaVuSans-30" x="159.033203"/>
      </g>
     </g>
    </g>
    <g id="ytick_8">
     <g id="line2d_14">
      <g>
       <use xlink:href="#m92c2731f6d" x="50.14375" y="66.129242" style="stroke: #000000; stroke-width: 0.8"/>
      </g>
     </g>
     <g id="text_15">
      <!-- 1.75 -->
      <g transform="translate(20.878125 69.928461)scale(0.1 -0.1)">
       <use xlink:href="#DejaVuSans-31"/>
       <use xlink:href="#DejaVuSans-2e" x="63.623047"/>
       <use xlink:href="#DejaVuSans-37" x="95.410156"/>
       <use xlink:href="#DejaVuSans-35" x="159.033203"/>
      </g>
     </g>
    </g>
    <g id="ytick_9">
     <g id="line2d_15">
      <g>
       <use xlink:href="#m92c2731f6d" x="50.14375" y="36.531705" style="stroke: #000000; stroke-width: 0.8"/>
      </g>
     </g>
     <g id="text_16">
      <!-- 2.00 -->
      <g transform="translate(20.878125 40.330924)scale(0.1 -0.1)">
       <use xlink:href="#DejaVuSans-32"/>
       <use xlink:href="#DejaVuSans-2e" x="63.623047"/>
       <use xlink:href="#DejaVuSans-30" x="95.410156"/>
       <use xlink:href="#DejaVuSans-30" x="159.033203"/>
      </g>
     </g>
    </g>
    <g id="text_17">
     <!-- Probability density -->
     <g transform="translate(14.798438 186.606781)rotate(-90)scale(0.1 -0.1)">
      <defs>
       <path id="DejaVuSans-62" d="M 3116 1747 
Q 3116 2381 2855 2742 
Q 2594 3103 2138 3103 
Q 1681 3103 1420 2742 
Q 1159 2381 1159 1747 
Q 1159 1113 1420 752 
Q 1681 391 2138 391 
Q 2594 391 2855 752 
Q 3116 1113 3116 1747 
z
M 1159 2969 
Q 1341 3281 1617 3432 
Q 1894 3584 2278 3584 
Q 2916 3584 3314 3078 
Q 3713 2572 3713 1747 
Q 3713 922 3314 415 
Q 2916 -91 2278 -91 
Q 1894 -91 1617 61 
Q 1341 213 1159 525 
L 1159 0 
L 581 0 
L 581 4863 
L 1159 4863 
L 1159 2969 
z
" transform="scale(0.015625)"/>
       <path id="DejaVuSans-6c" d="M 603 4863 
L 1178 4863 
L 1178 0 
L 603 0 
L 603 4863 
z
" transform="scale(0.015625)"/>
       <path id="DejaVuSans-79" d="M 2059 -325 
Q 1816 -950 1584 -1140 
Q 1353 -1331 966 -1331 
L 506 -1331 
L 506 -850 
L 844 -850 
Q 1081 -850 1212 -737 
Q 1344 -625 1503 -206 
L 1606 56 
L 191 3500 
L 800 3500 
L 1894 763 
L 2988 3500 
L 3597 3500 
L 2059 -325 
z
" transform="scale(0.015625)"/>
       <path id="DejaVuSans-73" d="M 2834 3397 
L 2834 2853 
Q 2591 2978 2328 3040 
Q 2066 3103 1784 3103 
Q 1356 3103 1142 2972 
Q 928 2841 928 2578 
Q 928 2378 1081 2264 
Q 1234 2150 1697 2047 
L 1894 2003 
Q 2506 1872 2764 1633 
Q 3022 1394 3022 966 
Q 3022 478 2636 193 
Q 2250 -91 1575 -91 
Q 1294 -91 989 -36 
Q 684 19 347 128 
L 347 722 
Q 666 556 975 473 
Q 1284 391 1588 391 
Q 1994 391 2212 530 
Q 2431 669 2431 922 
Q 2431 1156 2273 1281 
Q 2116 1406 1581 1522 
L 1381 1569 
Q 847 1681 609 1914 
Q 372 2147 372 2553 
Q 372 3047 722 3315 
Q 1072 3584 1716 3584 
Q 2034 3584 2315 3537 
Q 2597 3491 2834 3397 
z
" transform="scale(0.015625)"/>
      </defs>
      <use xlink:href="#DejaVuSans-50"/>
      <use xlink:href="#DejaVuSans-72" x="58.552734"/>
      <use xlink:href="#DejaVuSans-6f" x="97.416016"/>
      <use xlink:href="#DejaVuSans-62" x="158.597656"/>
      <use xlink:href="#DejaVuSans-61" x="222.074219"/>
      <use xlink:href="#DejaVuSans-62" x="283.353516"/>
      <use xlink:href="#DejaVuSans-69" x="346.830078"/>
      <use xlink:href="#DejaVuSans-6c" x="374.613281"/>
      <use xlink:href="#DejaVuSans-69" x="402.396484"/>
      <use xlink:href="#DejaVuSans-74" x="430.179688"/>
      <use xlink:href="#DejaVuSans-79" x="469.388672"/>
      <use xlink:href="#DejaVuSans-20" x="528.568359"/>
      <use xlink:href="#DejaVuSans-64" x="560.355469"/>
      <use xlink:href="#DejaVuSans-65" x="623.832031"/>
      <use xlink:href="#DejaVuSans-6e" x="685.355469"/>
      <use xlink:href="#DejaVuSans-73" x="748.734375"/>
      <use xlink:href="#DejaVuSans-69" x="800.833984"/>
      <use xlink:href="#DejaVuSans-74" x="828.617188"/>
      <use xlink:href="#DejaVuSans-79" x="867.826172"/>
     </g>
    </g>
   </g>
   <g id="line2d_16">
    <path d="M 66.376477 273.312 
L 391.031023 36.531705 
L 391.031023 36.531705 
" clip-path="url(#p5a99b93dbd)" style="fill: none; stroke: #ff7f0e; stroke-width: 1.5; stroke-linecap: square"/>
   </g>
   <g id="patch_203">
    <path d="M 50.14375 273.312 
L 50.14375 7.2 
" style="fill: none; stroke: #000000; stroke-width: 0.8; stroke-linejoin: miter; stroke-linecap: square"/>
   </g>
   <g id="patch_204">
    <path d="M 407.26375 273.312 
L 407.26375 7.2 
" style="fill: none; stroke: #000000; stroke-width: 0.8; stroke-linejoin: miter; stroke-linecap: square"/>
   </g>
   <g id="patch_205">
    <path d="M 50.14375 273.312 
L 407.26375 273.312 
" style="fill: none; stroke: #000000; stroke-width: 0.8; stroke-linejoin: miter; stroke-linecap: square"/>
   </g>
   <g id="patch_206">
    <path d="M 50.14375 7.2 
L 407.26375 7.2 
" style="fill: none; stroke: #000000; stroke-width: 0.8; stroke-linejoin: miter; stroke-linecap: square"/>
   </g>
  </g>
 </g>
 <defs>
  <clipPath id="p5a99b93dbd">
   <rect x="50.14375" y="7.2" width="357.12" height="266.112"/>
  </clipPath>
 </defs>
</svg>
