<?xml version="1.0" encoding="utf-8" standalone="no"?>
<!DOCTYPE svg PUBLIC "-//W3C//DTD SVG 1.1//EN"
  "http://www.w3.org/Graphics/SVG/1.1/DTD/svg11.dtd">
<svg xmlns:xlink="http://www.w3.org/1999/xlink" width="414.46375pt" height="310.86825pt" viewBox="0 0 414.46375 310.86825" xmlns="http://www.w3.org/2000/svg" version="1.1">
 <metadata>
  <rdf:RDF xmlns:dc="http://purl.org/dc/elements/1.1/" xmlns:cc="http://creativecommons.org/ns#" xmlns:rdf="http://www.w3.org/1999/02/22-rdf-syntax-ns#">
   <cc:Work>
    <dc:type rdf:resource="http://purl.org/dc/dcmitype/StillImage"/>
    <dc:date>2022-03-02T10:15:12.169268</dc:date>
    <dc:format>image/svg+xml</dc:format>
    <dc:creator>
     <cc:Agent>
      <dc:title>Matplotlib v3.5.1, https://matplotlib.org/</dc:title>
     </cc:Agent>
    </dc:creator>
   </cc:Work>
  </rdf:RDF>
 </metadata>
 <defs>
  <style type="text/css">*{stroke-linejoin: round; stroke-linecap: butt}</style>
 </defs>
 <g id="figure_1">
  <g id="patch_1">
   <path d="M 0 310.86825 
L 414.46375 310.86825 
L 414.46375 0 
L 0 0 
z
" style="fill: #ffffff"/>
  </g>
  <g id="axes_1">
   <g id="patch_2">
    <path d="M 50.14375 273.312 
L 407.26375 273.312 
L 407.26375 7.2 
L 50.14375 7.2 
z
" style="fill: #ffffff"/>
   </g>
   <g id="patch_3">
    <path d="M 67.352595 273.312 
L 68.970963 273.312 
L 68.970963 271.443892 
L 67.352595 271.443892 
z
" clip-path="url(#p5af16e294e)" style="fill: #1f77b4"/>
   </g>
   <g id="patch_4">
    <path d="M 68.970963 273.312 
L 70.589331 273.312 
L 70.589331 271.443892 
L 68.970963 271.443892 
z
" clip-path="url(#p5af16e294e)" style="fill: #1f77b4"/>
   </g>
   <g id="patch_5">
    <path d="M 70.589331 273.312 
L 72.207699 273.312 
L 72.207699 268.953081 
L 70.589331 268.953081 
z
" clip-path="url(#p5af16e294e)" style="fill: #1f77b4"/>
   </g>
   <g id="patch_6">
    <path d="M 72.207699 273.312 
L 73.826067 273.312 
L 73.826067 265.839568 
L 72.207699 265.839568 
z
" clip-path="url(#p5af16e294e)" style="fill: #1f77b4"/>
   </g>
   <g id="patch_7">
    <path d="M 73.826067 273.312 
L 75.444435 273.312 
L 75.444435 264.594162 
L 73.826067 264.594162 
z
" clip-path="url(#p5af16e294e)" style="fill: #1f77b4"/>
   </g>
   <g id="patch_8">
    <path d="M 75.444435 273.312 
L 77.062803 273.312 
L 77.062803 264.594162 
L 75.444435 264.594162 
z
" clip-path="url(#p5af16e294e)" style="fill: #1f77b4"/>
   </g>
   <g id="patch_9">
    <path d="M 77.062803 273.312 
L 78.68117 273.312 
L 78.68117 263.971459 
L 77.062803 263.971459 
z
" clip-path="url(#p5af16e294e)" style="fill: #1f77b4"/>
   </g>
   <g id="patch_10">
    <path d="M 78.68117 273.312 
L 80.299538 273.312 
L 80.299538 263.348757 
L 78.68117 263.348757 
z
" clip-path="url(#p5af16e294e)" style="fill: #1f77b4"/>
   </g>
   <g id="patch_11">
    <path d="M 80.299538 273.312 
L 81.917906 273.312 
L 81.917906 267.707676 
L 80.299538 267.707676 
z
" clip-path="url(#p5af16e294e)" style="fill: #1f77b4"/>
   </g>
   <g id="patch_12">
    <path d="M 81.917906 273.312 
L 83.536274 273.312 
L 83.536274 262.103351 
L 81.917906 262.103351 
z
" clip-path="url(#p5af16e294e)" style="fill: #1f77b4"/>
   </g>
   <g id="patch_13">
    <path d="M 83.536274 273.312 
L 85.154642 273.312 
L 85.154642 262.726054 
L 83.536274 262.726054 
z
" clip-path="url(#p5af16e294e)" style="fill: #1f77b4"/>
   </g>
   <g id="patch_14">
    <path d="M 85.154642 273.312 
L 86.77301 273.312 
L 86.77301 258.989838 
L 85.154642 258.989838 
z
" clip-path="url(#p5af16e294e)" style="fill: #1f77b4"/>
   </g>
   <g id="patch_15">
    <path d="M 86.77301 273.312 
L 88.391378 273.312 
L 88.391378 257.12173 
L 86.77301 257.12173 
z
" clip-path="url(#p5af16e294e)" style="fill: #1f77b4"/>
   </g>
   <g id="patch_16">
    <path d="M 88.391378 273.312 
L 90.009746 273.312 
L 90.009746 257.744432 
L 88.391378 257.744432 
z
" clip-path="url(#p5af16e294e)" style="fill: #1f77b4"/>
   </g>
   <g id="patch_17">
    <path d="M 90.009746 273.312 
L 91.628114 273.312 
L 91.628114 255.876324 
L 90.009746 255.876324 
z
" clip-path="url(#p5af16e294e)" style="fill: #1f77b4"/>
   </g>
   <g id="patch_18">
    <path d="M 91.628114 273.312 
L 93.246482 273.312 
L 93.246482 252.140108 
L 91.628114 252.140108 
z
" clip-path="url(#p5af16e294e)" style="fill: #1f77b4"/>
   </g>
   <g id="patch_19">
    <path d="M 93.246482 273.312 
L 94.86485 273.312 
L 94.86485 252.762811 
L 93.246482 252.762811 
z
" clip-path="url(#p5af16e294e)" style="fill: #1f77b4"/>
   </g>
   <g id="patch_20">
    <path d="M 94.86485 273.312 
L 96.483218 273.312 
L 96.483218 250.272 
L 94.86485 250.272 
z
" clip-path="url(#p5af16e294e)" style="fill: #1f77b4"/>
   </g>
   <g id="patch_21">
    <path d="M 96.483218 273.312 
L 98.101586 273.312 
L 98.101586 245.913081 
L 96.483218 245.913081 
z
" clip-path="url(#p5af16e294e)" style="fill: #1f77b4"/>
   </g>
   <g id="patch_22">
    <path d="M 98.101586 273.312 
L 99.719954 273.312 
L 99.719954 252.140108 
L 98.101586 252.140108 
z
" clip-path="url(#p5af16e294e)" style="fill: #1f77b4"/>
   </g>
   <g id="patch_23">
    <path d="M 99.719954 273.312 
L 101.338322 273.312 
L 101.338322 242.799568 
L 99.719954 242.799568 
z
" clip-path="url(#p5af16e294e)" style="fill: #1f77b4"/>
   </g>
   <g id="patch_24">
    <path d="M 101.338322 273.312 
L 102.95669 273.312 
L 102.95669 245.913081 
L 101.338322 245.913081 
z
" clip-path="url(#p5af16e294e)" style="fill: #1f77b4"/>
   </g>
   <g id="patch_25">
    <path d="M 102.95669 273.312 
L 104.575058 273.312 
L 104.575058 244.667676 
L 102.95669 244.667676 
z
" clip-path="url(#p5af16e294e)" style="fill: #1f77b4"/>
   </g>
   <g id="patch_26">
    <path d="M 104.575058 273.312 
L 106.193426 273.312 
L 106.193426 242.176865 
L 104.575058 242.176865 
z
" clip-path="url(#p5af16e294e)" style="fill: #1f77b4"/>
   </g>
   <g id="patch_27">
    <path d="M 106.193426 273.312 
L 107.811794 273.312 
L 107.811794 246.535784 
L 106.193426 246.535784 
z
" clip-path="url(#p5af16e294e)" style="fill: #1f77b4"/>
   </g>
   <g id="patch_28">
    <path d="M 107.811794 273.312 
L 109.430162 273.312 
L 109.430162 245.290378 
L 107.811794 245.290378 
z
" clip-path="url(#p5af16e294e)" style="fill: #1f77b4"/>
   </g>
   <g id="patch_29">
    <path d="M 109.430162 273.312 
L 111.04853 273.312 
L 111.04853 232.213622 
L 109.430162 232.213622 
z
" clip-path="url(#p5af16e294e)" style="fill: #1f77b4"/>
   </g>
   <g id="patch_30">
    <path d="M 111.04853 273.312 
L 112.666897 273.312 
L 112.666897 232.836324 
L 111.04853 232.836324 
z
" clip-path="url(#p5af16e294e)" style="fill: #1f77b4"/>
   </g>
   <g id="patch_31">
    <path d="M 112.666897 273.312 
L 114.285265 273.312 
L 114.285265 236.572541 
L 112.666897 236.572541 
z
" clip-path="url(#p5af16e294e)" style="fill: #1f77b4"/>
   </g>
   <g id="patch_32">
    <path d="M 114.285265 273.312 
L 115.903633 273.312 
L 115.903633 235.949838 
L 114.285265 235.949838 
z
" clip-path="url(#p5af16e294e)" style="fill: #1f77b4"/>
   </g>
   <g id="patch_33">
    <path d="M 115.903633 273.312 
L 117.522001 273.312 
L 117.522001 232.836324 
L 115.903633 232.836324 
z
" clip-path="url(#p5af16e294e)" style="fill: #1f77b4"/>
   </g>
   <g id="patch_34">
    <path d="M 117.522001 273.312 
L 119.140369 273.312 
L 119.140369 234.08173 
L 117.522001 234.08173 
z
" clip-path="url(#p5af16e294e)" style="fill: #1f77b4"/>
   </g>
   <g id="patch_35">
    <path d="M 119.140369 273.312 
L 120.758737 273.312 
L 120.758737 235.949838 
L 119.140369 235.949838 
z
" clip-path="url(#p5af16e294e)" style="fill: #1f77b4"/>
   </g>
   <g id="patch_36">
    <path d="M 120.758737 273.312 
L 122.377105 273.312 
L 122.377105 235.949838 
L 120.758737 235.949838 
z
" clip-path="url(#p5af16e294e)" style="fill: #1f77b4"/>
   </g>
   <g id="patch_37">
    <path d="M 122.377105 273.312 
L 123.995473 273.312 
L 123.995473 219.136865 
L 122.377105 219.136865 
z
" clip-path="url(#p5af16e294e)" style="fill: #1f77b4"/>
   </g>
   <g id="patch_38">
    <path d="M 123.995473 273.312 
L 125.613841 273.312 
L 125.613841 230.345514 
L 123.995473 230.345514 
z
" clip-path="url(#p5af16e294e)" style="fill: #1f77b4"/>
   </g>
   <g id="patch_39">
    <path d="M 125.613841 273.312 
L 127.232209 273.312 
L 127.232209 227.232 
L 125.613841 227.232 
z
" clip-path="url(#p5af16e294e)" style="fill: #1f77b4"/>
   </g>
   <g id="patch_40">
    <path d="M 127.232209 273.312 
L 128.850577 273.312 
L 128.850577 225.363892 
L 127.232209 225.363892 
z
" clip-path="url(#p5af16e294e)" style="fill: #1f77b4"/>
   </g>
   <g id="patch_41">
    <path d="M 128.850577 273.312 
L 130.468945 273.312 
L 130.468945 221.627676 
L 128.850577 221.627676 
z
" clip-path="url(#p5af16e294e)" style="fill: #1f77b4"/>
   </g>
   <g id="patch_42">
    <path d="M 130.468945 273.312 
L 132.087313 273.312 
L 132.087313 232.213622 
L 130.468945 232.213622 
z
" clip-path="url(#p5af16e294e)" style="fill: #1f77b4"/>
   </g>
   <g id="patch_43">
    <path d="M 132.087313 273.312 
L 133.705681 273.312 
L 133.705681 216.646054 
L 132.087313 216.646054 
z
" clip-path="url(#p5af16e294e)" style="fill: #1f77b4"/>
   </g>
   <g id="patch_44">
    <path d="M 133.705681 273.312 
L 135.324049 273.312 
L 135.324049 227.854703 
L 133.705681 227.854703 
z
" clip-path="url(#p5af16e294e)" style="fill: #1f77b4"/>
   </g>
   <g id="patch_45">
    <path d="M 135.324049 273.312 
L 136.942417 273.312 
L 136.942417 219.136865 
L 135.324049 219.136865 
z
" clip-path="url(#p5af16e294e)" style="fill: #1f77b4"/>
   </g>
   <g id="patch_46">
    <path d="M 136.942417 273.312 
L 138.560785 273.312 
L 138.560785 215.400649 
L 136.942417 215.400649 
z
" clip-path="url(#p5af16e294e)" style="fill: #1f77b4"/>
   </g>
   <g id="patch_47">
    <path d="M 138.560785 273.312 
L 140.179153 273.312 
L 140.179153 221.627676 
L 138.560785 221.627676 
z
" clip-path="url(#p5af16e294e)" style="fill: #1f77b4"/>
   </g>
   <g id="patch_48">
    <path d="M 140.179153 273.312 
L 141.797521 273.312 
L 141.797521 221.004973 
L 140.179153 221.004973 
z
" clip-path="url(#p5af16e294e)" style="fill: #1f77b4"/>
   </g>
   <g id="patch_49">
    <path d="M 141.797521 273.312 
L 143.415889 273.312 
L 143.415889 219.759568 
L 141.797521 219.759568 
z
" clip-path="url(#p5af16e294e)" style="fill: #1f77b4"/>
   </g>
   <g id="patch_50">
    <path d="M 143.415889 273.312 
L 145.034256 273.312 
L 145.034256 210.419027 
L 143.415889 210.419027 
z
" clip-path="url(#p5af16e294e)" style="fill: #1f77b4"/>
   </g>
   <g id="patch_51">
    <path d="M 145.034256 273.312 
L 146.652624 273.312 
L 146.652624 212.287135 
L 145.034256 212.287135 
z
" clip-path="url(#p5af16e294e)" style="fill: #1f77b4"/>
   </g>
   <g id="patch_52">
    <path d="M 146.652624 273.312 
L 148.270992 273.312 
L 148.270992 211.664432 
L 146.652624 211.664432 
z
" clip-path="url(#p5af16e294e)" style="fill: #1f77b4"/>
   </g>
   <g id="patch_53">
    <path d="M 148.270992 273.312 
L 149.88936 273.312 
L 149.88936 206.060108 
L 148.270992 206.060108 
z
" clip-path="url(#p5af16e294e)" style="fill: #1f77b4"/>
   </g>
   <g id="patch_54">
    <path d="M 149.88936 273.312 
L 151.507728 273.312 
L 151.507728 212.287135 
L 149.88936 212.287135 
z
" clip-path="url(#p5af16e294e)" style="fill: #1f77b4"/>
   </g>
   <g id="patch_55">
    <path d="M 151.507728 273.312 
L 153.126096 273.312 
L 153.126096 204.814703 
L 151.507728 204.814703 
z
" clip-path="url(#p5af16e294e)" style="fill: #1f77b4"/>
   </g>
   <g id="patch_56">
    <path d="M 153.126096 273.312 
L 154.744464 273.312 
L 154.744464 211.664432 
L 153.126096 211.664432 
z
" clip-path="url(#p5af16e294e)" style="fill: #1f77b4"/>
   </g>
   <g id="patch_57">
    <path d="M 154.744464 273.312 
L 156.362832 273.312 
L 156.362832 210.419027 
L 154.744464 210.419027 
z
" clip-path="url(#p5af16e294e)" style="fill: #1f77b4"/>
   </g>
   <g id="patch_58">
    <path d="M 156.362832 273.312 
L 157.9812 273.312 
L 157.9812 204.814703 
L 156.362832 204.814703 
z
" clip-path="url(#p5af16e294e)" style="fill: #1f77b4"/>
   </g>
   <g id="patch_59">
    <path d="M 157.9812 273.312 
L 159.599568 273.312 
L 159.599568 212.287135 
L 157.9812 212.287135 
z
" clip-path="url(#p5af16e294e)" style="fill: #1f77b4"/>
   </g>
   <g id="patch_60">
    <path d="M 159.599568 273.312 
L 161.217936 273.312 
L 161.217936 196.096865 
L 159.599568 196.096865 
z
" clip-path="url(#p5af16e294e)" style="fill: #1f77b4"/>
   </g>
   <g id="patch_61">
    <path d="M 161.217936 273.312 
L 162.836304 273.312 
L 162.836304 211.664432 
L 161.217936 211.664432 
z
" clip-path="url(#p5af16e294e)" style="fill: #1f77b4"/>
   </g>
   <g id="patch_62">
    <path d="M 162.836304 273.312 
L 164.454672 273.312 
L 164.454672 207.928216 
L 162.836304 207.928216 
z
" clip-path="url(#p5af16e294e)" style="fill: #1f77b4"/>
   </g>
   <g id="patch_63">
    <path d="M 164.454672 273.312 
L 166.07304 273.312 
L 166.07304 212.909838 
L 164.454672 212.909838 
z
" clip-path="url(#p5af16e294e)" style="fill: #1f77b4"/>
   </g>
   <g id="patch_64">
    <path d="M 166.07304 273.312 
L 167.691408 273.312 
L 167.691408 191.737946 
L 166.07304 191.737946 
z
" clip-path="url(#p5af16e294e)" style="fill: #1f77b4"/>
   </g>
   <g id="patch_65">
    <path d="M 167.691408 273.312 
L 169.309776 273.312 
L 169.309776 197.34227 
L 167.691408 197.34227 
z
" clip-path="url(#p5af16e294e)" style="fill: #1f77b4"/>
   </g>
   <g id="patch_66">
    <path d="M 169.309776 273.312 
L 170.928144 273.312 
L 170.928144 192.983351 
L 169.309776 192.983351 
z
" clip-path="url(#p5af16e294e)" style="fill: #1f77b4"/>
   </g>
   <g id="patch_67">
    <path d="M 170.928144 273.312 
L 172.546512 273.312 
L 172.546512 201.701189 
L 170.928144 201.701189 
z
" clip-path="url(#p5af16e294e)" style="fill: #1f77b4"/>
   </g>
   <g id="patch_68">
    <path d="M 172.546512 273.312 
L 174.16488 273.312 
L 174.16488 195.474162 
L 172.546512 195.474162 
z
" clip-path="url(#p5af16e294e)" style="fill: #1f77b4"/>
   </g>
   <g id="patch_69">
    <path d="M 174.16488 273.312 
L 175.783248 273.312 
L 175.783248 184.888216 
L 174.16488 184.888216 
z
" clip-path="url(#p5af16e294e)" style="fill: #1f77b4"/>
   </g>
   <g id="patch_70">
    <path d="M 175.783248 273.312 
L 177.401616 273.312 
L 177.401616 190.492541 
L 175.783248 190.492541 
z
" clip-path="url(#p5af16e294e)" style="fill: #1f77b4"/>
   </g>
   <g id="patch_71">
    <path d="M 177.401616 273.312 
L 179.019983 273.312 
L 179.019983 181.774703 
L 177.401616 181.774703 
z
" clip-path="url(#p5af16e294e)" style="fill: #1f77b4"/>
   </g>
   <g id="patch_72">
    <path d="M 179.019983 273.312 
L 180.638351 273.312 
L 180.638351 196.719568 
L 179.019983 196.719568 
z
" clip-path="url(#p5af16e294e)" style="fill: #1f77b4"/>
   </g>
   <g id="patch_73">
    <path d="M 180.638351 273.312 
L 182.256719 273.312 
L 182.256719 188.00173 
L 180.638351 188.00173 
z
" clip-path="url(#p5af16e294e)" style="fill: #1f77b4"/>
   </g>
   <g id="patch_74">
    <path d="M 182.256719 273.312 
L 183.875087 273.312 
L 183.875087 184.888216 
L 182.256719 184.888216 
z
" clip-path="url(#p5af16e294e)" style="fill: #1f77b4"/>
   </g>
   <g id="patch_75">
    <path d="M 183.875087 273.312 
L 185.493455 273.312 
L 185.493455 190.492541 
L 183.875087 190.492541 
z
" clip-path="url(#p5af16e294e)" style="fill: #1f77b4"/>
   </g>
   <g id="patch_76">
    <path d="M 185.493455 273.312 
L 187.111823 273.312 
L 187.111823 184.265514 
L 185.493455 184.265514 
z
" clip-path="url(#p5af16e294e)" style="fill: #1f77b4"/>
   </g>
   <g id="patch_77">
    <path d="M 187.111823 273.312 
L 188.730191 273.312 
L 188.730191 185.510919 
L 187.111823 185.510919 
z
" clip-path="url(#p5af16e294e)" style="fill: #1f77b4"/>
   </g>
   <g id="patch_78">
    <path d="M 188.730191 273.312 
L 190.348559 273.312 
L 190.348559 179.906595 
L 188.730191 179.906595 
z
" clip-path="url(#p5af16e294e)" style="fill: #1f77b4"/>
   </g>
   <g id="patch_79">
    <path d="M 190.348559 273.312 
L 191.966927 273.312 
L 191.966927 164.96173 
L 190.348559 164.96173 
z
" clip-path="url(#p5af16e294e)" style="fill: #1f77b4"/>
   </g>
   <g id="patch_80">
    <path d="M 191.966927 273.312 
L 193.585295 273.312 
L 193.585295 186.133622 
L 191.966927 186.133622 
z
" clip-path="url(#p5af16e294e)" style="fill: #1f77b4"/>
   </g>
   <g id="patch_81">
    <path d="M 193.585295 273.312 
L 195.203663 273.312 
L 195.203663 189.869838 
L 193.585295 189.869838 
z
" clip-path="url(#p5af16e294e)" style="fill: #1f77b4"/>
   </g>
   <g id="patch_82">
    <path d="M 195.203663 273.312 
L 196.822031 273.312 
L 196.822031 164.96173 
L 195.203663 164.96173 
z
" clip-path="url(#p5af16e294e)" style="fill: #1f77b4"/>
   </g>
   <g id="patch_83">
    <path d="M 196.822031 273.312 
L 198.440399 273.312 
L 198.440399 177.415784 
L 196.822031 177.415784 
z
" clip-path="url(#p5af16e294e)" style="fill: #1f77b4"/>
   </g>
   <g id="patch_84">
    <path d="M 198.440399 273.312 
L 200.058767 273.312 
L 200.058767 166.829838 
L 198.440399 166.829838 
z
" clip-path="url(#p5af16e294e)" style="fill: #1f77b4"/>
   </g>
   <g id="patch_85">
    <path d="M 200.058767 273.312 
L 201.677135 273.312 
L 201.677135 180.529297 
L 200.058767 180.529297 
z
" clip-path="url(#p5af16e294e)" style="fill: #1f77b4"/>
   </g>
   <g id="patch_86">
    <path d="M 201.677135 273.312 
L 203.295503 273.312 
L 203.295503 167.452541 
L 201.677135 167.452541 
z
" clip-path="url(#p5af16e294e)" style="fill: #1f77b4"/>
   </g>
   <g id="patch_87">
    <path d="M 203.295503 273.312 
L 204.913871 273.312 
L 204.913871 184.265514 
L 203.295503 184.265514 
z
" clip-path="url(#p5af16e294e)" style="fill: #1f77b4"/>
   </g>
   <g id="patch_88">
    <path d="M 204.913871 273.312 
L 206.532239 273.312 
L 206.532239 143.789838 
L 204.913871 143.789838 
z
" clip-path="url(#p5af16e294e)" style="fill: #1f77b4"/>
   </g>
   <g id="patch_89">
    <path d="M 206.532239 273.312 
L 208.150607 273.312 
L 208.150607 178.661189 
L 206.532239 178.661189 
z
" clip-path="url(#p5af16e294e)" style="fill: #1f77b4"/>
   </g>
   <g id="patch_90">
    <path d="M 208.150607 273.312 
L 209.768975 273.312 
L 209.768975 157.489297 
L 208.150607 157.489297 
z
" clip-path="url(#p5af16e294e)" style="fill: #1f77b4"/>
   </g>
   <g id="patch_91">
    <path d="M 209.768975 273.312 
L 211.387343 273.312 
L 211.387343 167.452541 
L 209.768975 167.452541 
z
" clip-path="url(#p5af16e294e)" style="fill: #1f77b4"/>
   </g>
   <g id="patch_92">
    <path d="M 211.387343 273.312 
L 213.00571 273.312 
L 213.00571 152.507676 
L 211.387343 152.507676 
z
" clip-path="url(#p5af16e294e)" style="fill: #1f77b4"/>
   </g>
   <g id="patch_93">
    <path d="M 213.00571 273.312 
L 214.624078 273.312 
L 214.624078 148.771459 
L 213.00571 148.771459 
z
" clip-path="url(#p5af16e294e)" style="fill: #1f77b4"/>
   </g>
   <g id="patch_94">
    <path d="M 214.624078 273.312 
L 216.242446 273.312 
L 216.242446 161.848216 
L 214.624078 161.848216 
z
" clip-path="url(#p5af16e294e)" style="fill: #1f77b4"/>
   </g>
   <g id="patch_95">
    <path d="M 216.242446 273.312 
L 217.860814 273.312 
L 217.860814 170.566054 
L 216.242446 170.566054 
z
" clip-path="url(#p5af16e294e)" style="fill: #1f77b4"/>
   </g>
   <g id="patch_96">
    <path d="M 217.860814 273.312 
L 219.479182 273.312 
L 219.479182 147.526054 
L 217.860814 147.526054 
z
" clip-path="url(#p5af16e294e)" style="fill: #1f77b4"/>
   </g>
   <g id="patch_97">
    <path d="M 219.479182 273.312 
L 221.09755 273.312 
L 221.09755 157.489297 
L 219.479182 157.489297 
z
" clip-path="url(#p5af16e294e)" style="fill: #1f77b4"/>
   </g>
   <g id="patch_98">
    <path d="M 221.09755 273.312 
L 222.715918 273.312 
L 222.715918 161.225514 
L 221.09755 161.225514 
z
" clip-path="url(#p5af16e294e)" style="fill: #1f77b4"/>
   </g>
   <g id="patch_99">
    <path d="M 222.715918 273.312 
L 224.334286 273.312 
L 224.334286 158.112 
L 222.715918 158.112 
z
" clip-path="url(#p5af16e294e)" style="fill: #1f77b4"/>
   </g>
   <g id="patch_100">
    <path d="M 224.334286 273.312 
L 225.952654 273.312 
L 225.952654 151.26227 
L 224.334286 151.26227 
z
" clip-path="url(#p5af16e294e)" style="fill: #1f77b4"/>
   </g>
   <g id="patch_101">
    <path d="M 225.952654 273.312 
L 227.571022 273.312 
L 227.571022 148.148757 
L 225.952654 148.148757 
z
" clip-path="url(#p5af16e294e)" style="fill: #1f77b4"/>
   </g>
   <g id="patch_102">
    <path d="M 227.571022 273.312 
L 229.18939 273.312 
L 229.18939 142.544432 
L 227.571022 142.544432 
z
" clip-path="url(#p5af16e294e)" style="fill: #1f77b4"/>
   </g>
   <g id="patch_103">
    <path d="M 229.18939 273.312 
L 230.807758 273.312 
L 230.807758 136.317405 
L 229.18939 136.317405 
z
" clip-path="url(#p5af16e294e)" style="fill: #1f77b4"/>
   </g>
   <g id="patch_104">
    <path d="M 230.807758 273.312 
L 232.426126 273.312 
L 232.426126 151.26227 
L 230.807758 151.26227 
z
" clip-path="url(#p5af16e294e)" style="fill: #1f77b4"/>
   </g>
   <g id="patch_105">
    <path d="M 232.426126 273.312 
L 234.044494 273.312 
L 234.044494 159.357405 
L 232.426126 159.357405 
z
" clip-path="url(#p5af16e294e)" style="fill: #1f77b4"/>
   </g>
   <g id="patch_106">
    <path d="M 234.044494 273.312 
L 235.662862 273.312 
L 235.662862 157.489297 
L 234.044494 157.489297 
z
" clip-path="url(#p5af16e294e)" style="fill: #1f77b4"/>
   </g>
   <g id="patch_107">
    <path d="M 235.662862 273.312 
L 237.28123 273.312 
L 237.28123 135.694703 
L 235.662862 135.694703 
z
" clip-path="url(#p5af16e294e)" style="fill: #1f77b4"/>
   </g>
   <g id="patch_108">
    <path d="M 237.28123 273.312 
L 238.899598 273.312 
L 238.899598 138.185514 
L 237.28123 138.185514 
z
" clip-path="url(#p5af16e294e)" style="fill: #1f77b4"/>
   </g>
   <g id="patch_109">
    <path d="M 238.899598 273.312 
L 240.517966 273.312 
L 240.517966 141.299027 
L 238.899598 141.299027 
z
" clip-path="url(#p5af16e294e)" style="fill: #1f77b4"/>
   </g>
   <g id="patch_110">
    <path d="M 240.517966 273.312 
L 242.136334 273.312 
L 242.136334 148.771459 
L 240.517966 148.771459 
z
" clip-path="url(#p5af16e294e)" style="fill: #1f77b4"/>
   </g>
   <g id="patch_111">
    <path d="M 242.136334 273.312 
L 243.754702 273.312 
L 243.754702 145.035243 
L 242.136334 145.035243 
z
" clip-path="url(#p5af16e294e)" style="fill: #1f77b4"/>
   </g>
   <g id="patch_112">
    <path d="M 243.754702 273.312 
L 245.37307 273.312 
L 245.37307 137.562811 
L 243.754702 137.562811 
z
" clip-path="url(#p5af16e294e)" style="fill: #1f77b4"/>
   </g>
   <g id="patch_113">
    <path d="M 245.37307 273.312 
L 246.991437 273.312 
L 246.991437 121.372541 
L 245.37307 121.372541 
z
" clip-path="url(#p5af16e294e)" style="fill: #1f77b4"/>
   </g>
   <g id="patch_114">
    <path d="M 246.991437 273.312 
L 248.609805 273.312 
L 248.609805 127.599568 
L 246.991437 127.599568 
z
" clip-path="url(#p5af16e294e)" style="fill: #1f77b4"/>
   </g>
   <g id="patch_115">
    <path d="M 248.609805 273.312 
L 250.228173 273.312 
L 250.228173 133.203892 
L 248.609805 133.203892 
z
" clip-path="url(#p5af16e294e)" style="fill: #1f77b4"/>
   </g>
   <g id="patch_116">
    <path d="M 250.228173 273.312 
L 251.846541 273.312 
L 251.846541 133.203892 
L 250.228173 133.203892 
z
" clip-path="url(#p5af16e294e)" style="fill: #1f77b4"/>
   </g>
   <g id="patch_117">
    <path d="M 251.846541 273.312 
L 253.464909 273.312 
L 253.464909 123.863351 
L 251.846541 123.863351 
z
" clip-path="url(#p5af16e294e)" style="fill: #1f77b4"/>
   </g>
   <g id="patch_118">
    <path d="M 253.464909 273.312 
L 255.083277 273.312 
L 255.083277 129.467676 
L 253.464909 129.467676 
z
" clip-path="url(#p5af16e294e)" style="fill: #1f77b4"/>
   </g>
   <g id="patch_119">
    <path d="M 255.083277 273.312 
L 256.701645 273.312 
L 256.701645 129.467676 
L 255.083277 129.467676 
z
" clip-path="url(#p5af16e294e)" style="fill: #1f77b4"/>
   </g>
   <g id="patch_120">
    <path d="M 256.701645 273.312 
L 258.320013 273.312 
L 258.320013 105.18227 
L 256.701645 105.18227 
z
" clip-path="url(#p5af16e294e)" style="fill: #1f77b4"/>
   </g>
   <g id="patch_121">
    <path d="M 258.320013 273.312 
L 259.938381 273.312 
L 259.938381 123.240649 
L 258.320013 123.240649 
z
" clip-path="url(#p5af16e294e)" style="fill: #1f77b4"/>
   </g>
   <g id="patch_122">
    <path d="M 259.938381 273.312 
L 261.556749 273.312 
L 261.556749 135.072 
L 259.938381 135.072 
z
" clip-path="url(#p5af16e294e)" style="fill: #1f77b4"/>
   </g>
   <g id="patch_123">
    <path d="M 261.556749 273.312 
L 263.175117 273.312 
L 263.175117 120.127135 
L 261.556749 120.127135 
z
" clip-path="url(#p5af16e294e)" style="fill: #1f77b4"/>
   </g>
   <g id="patch_124">
    <path d="M 263.175117 273.312 
L 264.793485 273.312 
L 264.793485 129.467676 
L 263.175117 129.467676 
z
" clip-path="url(#p5af16e294e)" style="fill: #1f77b4"/>
   </g>
   <g id="patch_125">
    <path d="M 264.793485 273.312 
L 266.411853 273.312 
L 266.411853 114.522811 
L 264.793485 114.522811 
z
" clip-path="url(#p5af16e294e)" style="fill: #1f77b4"/>
   </g>
   <g id="patch_126">
    <path d="M 266.411853 273.312 
L 268.030221 273.312 
L 268.030221 112.032 
L 266.411853 112.032 
z
" clip-path="url(#p5af16e294e)" style="fill: #1f77b4"/>
   </g>
   <g id="patch_127">
    <path d="M 268.030221 273.312 
L 269.648589 273.312 
L 269.648589 126.354162 
L 268.030221 126.354162 
z
" clip-path="url(#p5af16e294e)" style="fill: #1f77b4"/>
   </g>
   <g id="patch_128">
    <path d="M 269.648589 273.312 
L 271.266957 273.312 
L 271.266957 114.522811 
L 269.648589 114.522811 
z
" clip-path="url(#p5af16e294e)" style="fill: #1f77b4"/>
   </g>
   <g id="patch_129">
    <path d="M 271.266957 273.312 
L 272.885325 273.312 
L 272.885325 117.013622 
L 271.266957 117.013622 
z
" clip-path="url(#p5af16e294e)" style="fill: #1f77b4"/>
   </g>
   <g id="patch_130">
    <path d="M 272.885325 273.312 
L 274.503693 273.312 
L 274.503693 127.599568 
L 272.885325 127.599568 
z
" clip-path="url(#p5af16e294e)" style="fill: #1f77b4"/>
   </g>
   <g id="patch_131">
    <path d="M 274.503693 273.312 
L 276.122061 273.312 
L 276.122061 98.332541 
L 274.503693 98.332541 
z
" clip-path="url(#p5af16e294e)" style="fill: #1f77b4"/>
   </g>
   <g id="patch_132">
    <path d="M 276.122061 273.312 
L 277.740429 273.312 
L 277.740429 107.050378 
L 276.122061 107.050378 
z
" clip-path="url(#p5af16e294e)" style="fill: #1f77b4"/>
   </g>
   <g id="patch_133">
    <path d="M 277.740429 273.312 
L 279.358797 273.312 
L 279.358797 113.277405 
L 277.740429 113.277405 
z
" clip-path="url(#p5af16e294e)" style="fill: #1f77b4"/>
   </g>
   <g id="patch_134">
    <path d="M 279.358797 273.312 
L 280.977164 273.312 
L 280.977164 89.614703 
L 279.358797 89.614703 
z
" clip-path="url(#p5af16e294e)" style="fill: #1f77b4"/>
   </g>
   <g id="patch_135">
    <path d="M 280.977164 273.312 
L 282.595532 273.312 
L 282.595532 124.486054 
L 280.977164 124.486054 
z
" clip-path="url(#p5af16e294e)" style="fill: #1f77b4"/>
   </g>
   <g id="patch_136">
    <path d="M 282.595532 273.312 
L 284.2139 273.312 
L 284.2139 108.918486 
L 282.595532 108.918486 
z
" clip-path="url(#p5af16e294e)" style="fill: #1f77b4"/>
   </g>
   <g id="patch_137">
    <path d="M 284.2139 273.312 
L 285.832268 273.312 
L 285.832268 122.617946 
L 284.2139 122.617946 
z
" clip-path="url(#p5af16e294e)" style="fill: #1f77b4"/>
   </g>
   <g id="patch_138">
    <path d="M 285.832268 273.312 
L 287.450636 273.312 
L 287.450636 108.295784 
L 285.832268 108.295784 
z
" clip-path="url(#p5af16e294e)" style="fill: #1f77b4"/>
   </g>
   <g id="patch_139">
    <path d="M 287.450636 273.312 
L 289.069004 273.312 
L 289.069004 89.614703 
L 287.450636 89.614703 
z
" clip-path="url(#p5af16e294e)" style="fill: #1f77b4"/>
   </g>
   <g id="patch_140">
    <path d="M 289.069004 273.312 
L 290.687372 273.312 
L 290.687372 101.446054 
L 289.069004 101.446054 
z
" clip-path="url(#p5af16e294e)" style="fill: #1f77b4"/>
   </g>
   <g id="patch_141">
    <path d="M 290.687372 273.312 
L 292.30574 273.312 
L 292.30574 111.409297 
L 290.687372 111.409297 
z
" clip-path="url(#p5af16e294e)" style="fill: #1f77b4"/>
   </g>
   <g id="patch_142">
    <path d="M 292.30574 273.312 
L 293.924108 273.312 
L 293.924108 102.068757 
L 292.30574 102.068757 
z
" clip-path="url(#p5af16e294e)" style="fill: #1f77b4"/>
   </g>
   <g id="patch_143">
    <path d="M 293.924108 273.312 
L 295.542476 273.312 
L 295.542476 89.614703 
L 293.924108 89.614703 
z
" clip-path="url(#p5af16e294e)" style="fill: #1f77b4"/>
   </g>
   <g id="patch_144">
    <path d="M 295.542476 273.312 
L 297.160844 273.312 
L 297.160844 108.918486 
L 295.542476 108.918486 
z
" clip-path="url(#p5af16e294e)" style="fill: #1f77b4"/>
   </g>
   <g id="patch_145">
    <path d="M 297.160844 273.312 
L 298.779212 273.312 
L 298.779212 114.522811 
L 297.160844 114.522811 
z
" clip-path="url(#p5af16e294e)" style="fill: #1f77b4"/>
   </g>
   <g id="patch_146">
    <path d="M 298.779212 273.312 
L 300.39758 273.312 
L 300.39758 97.709838 
L 298.779212 97.709838 
z
" clip-path="url(#p5af16e294e)" style="fill: #1f77b4"/>
   </g>
   <g id="patch_147">
    <path d="M 300.39758 273.312 
L 302.015948 273.312 
L 302.015948 87.123892 
L 300.39758 87.123892 
z
" clip-path="url(#p5af16e294e)" style="fill: #1f77b4"/>
   </g>
   <g id="patch_148">
    <path d="M 302.015948 273.312 
L 303.634316 273.312 
L 303.634316 103.936865 
L 302.015948 103.936865 
z
" clip-path="url(#p5af16e294e)" style="fill: #1f77b4"/>
   </g>
   <g id="patch_149">
    <path d="M 303.634316 273.312 
L 305.252684 273.312 
L 305.252684 101.446054 
L 303.634316 101.446054 
z
" clip-path="url(#p5af16e294e)" style="fill: #1f77b4"/>
   </g>
   <g id="patch_150">
    <path d="M 305.252684 273.312 
L 306.871052 273.312 
L 306.871052 77.783351 
L 305.252684 77.783351 
z
" clip-path="url(#p5af16e294e)" style="fill: #1f77b4"/>
   </g>
   <g id="patch_151">
    <path d="M 306.871052 273.312 
L 308.48942 273.312 
L 308.48942 108.295784 
L 306.871052 108.295784 
z
" clip-path="url(#p5af16e294e)" style="fill: #1f77b4"/>
   </g>
   <g id="patch_152">
    <path d="M 308.48942 273.312 
L 310.107788 273.312 
L 310.107788 83.387676 
L 308.48942 83.387676 
z
" clip-path="url(#p5af16e294e)" style="fill: #1f77b4"/>
   </g>
   <g id="patch_153">
    <path d="M 310.107788 273.312 
L 311.726156 273.312 
L 311.726156 82.764973 
L 310.107788 82.764973 
z
" clip-path="url(#p5af16e294e)" style="fill: #1f77b4"/>
   </g>
   <g id="patch_154">
    <path d="M 311.726156 273.312 
L 313.344523 273.312 
L 313.344523 95.84173 
L 311.726156 95.84173 
z
" clip-path="url(#p5af16e294e)" style="fill: #1f77b4"/>
   </g>
   <g id="patch_155">
    <path d="M 313.344523 273.312 
L 314.962891 273.312 
L 314.962891 76.537946 
L 313.344523 76.537946 
z
" clip-path="url(#p5af16e294e)" style="fill: #1f77b4"/>
   </g>
   <g id="patch_156">
    <path d="M 314.962891 273.312 
L 316.581259 273.312 
L 316.581259 77.783351 
L 314.962891 77.783351 
z
" clip-path="url(#p5af16e294e)" style="fill: #1f77b4"/>
   </g>
   <g id="patch_157">
    <path d="M 316.581259 273.312 
L 318.199627 273.312 
L 318.199627 82.764973 
L 316.581259 82.764973 
z
" clip-path="url(#p5af16e294e)" style="fill: #1f77b4"/>
   </g>
   <g id="patch_158">
    <path d="M 318.199627 273.312 
L 319.817995 273.312 
L 319.817995 67.820108 
L 318.199627 67.820108 
z
" clip-path="url(#p5af16e294e)" style="fill: #1f77b4"/>
   </g>
   <g id="patch_159">
    <path d="M 319.817995 273.312 
L 321.436363 273.312 
L 321.436363 103.936865 
L 319.817995 103.936865 
z
" clip-path="url(#p5af16e294e)" style="fill: #1f77b4"/>
   </g>
   <g id="patch_160">
    <path d="M 321.436363 273.312 
L 323.054731 273.312 
L 323.054731 93.350919 
L 321.436363 93.350919 
z
" clip-path="url(#p5af16e294e)" style="fill: #1f77b4"/>
   </g>
   <g id="patch_161">
    <path d="M 323.054731 273.312 
L 324.673099 273.312 
L 324.673099 67.197405 
L 323.054731 67.197405 
z
" clip-path="url(#p5af16e294e)" style="fill: #1f77b4"/>
   </g>
   <g id="patch_162">
    <path d="M 324.673099 273.312 
L 326.291467 273.312 
L 326.291467 80.896865 
L 324.673099 80.896865 
z
" clip-path="url(#p5af16e294e)" style="fill: #1f77b4"/>
   </g>
   <g id="patch_163">
    <path d="M 326.291467 273.312 
L 327.909835 273.312 
L 327.909835 65.329297 
L 326.291467 65.329297 
z
" clip-path="url(#p5af16e294e)" style="fill: #1f77b4"/>
   </g>
   <g id="patch_164">
    <path d="M 327.909835 273.312 
L 329.528203 273.312 
L 329.528203 56.611459 
L 327.909835 56.611459 
z
" clip-path="url(#p5af16e294e)" style="fill: #1f77b4"/>
   </g>
   <g id="patch_165">
    <path d="M 329.528203 273.312 
L 331.146571 273.312 
L 331.146571 69.065514 
L 329.528203 69.065514 
z
" clip-path="url(#p5af16e294e)" style="fill: #1f77b4"/>
   </g>
   <g id="patch_166">
    <path d="M 331.146571 273.312 
L 332.764939 273.312 
L 332.764939 74.047135 
L 331.146571 74.047135 
z
" clip-path="url(#p5af16e294e)" style="fill: #1f77b4"/>
   </g>
   <g id="patch_167">
    <path d="M 332.764939 273.312 
L 334.383307 273.312 
L 334.383307 68.442811 
L 332.764939 68.442811 
z
" clip-path="url(#p5af16e294e)" style="fill: #1f77b4"/>
   </g>
   <g id="patch_168">
    <path d="M 334.383307 273.312 
L 336.001675 273.312 
L 336.001675 61.593081 
L 334.383307 61.593081 
z
" clip-path="url(#p5af16e294e)" style="fill: #1f77b4"/>
   </g>
   <g id="patch_169">
    <path d="M 336.001675 273.312 
L 337.620043 273.312 
L 337.620043 63.461189 
L 336.001675 63.461189 
z
" clip-path="url(#p5af16e294e)" style="fill: #1f77b4"/>
   </g>
   <g id="patch_170">
    <path d="M 337.620043 273.312 
L 339.238411 273.312 
L 339.238411 60.347676 
L 337.620043 60.347676 
z
" clip-path="url(#p5af16e294e)" style="fill: #1f77b4"/>
   </g>
   <g id="patch_171">
    <path d="M 339.238411 273.312 
L 340.856779 273.312 
L 340.856779 57.856865 
L 339.238411 57.856865 
z
" clip-path="url(#p5af16e294e)" style="fill: #1f77b4"/>
   </g>
   <g id="patch_172">
    <path d="M 340.856779 273.312 
L 342.475147 273.312 
L 342.475147 52.252541 
L 340.856779 52.252541 
z
" clip-path="url(#p5af16e294e)" style="fill: #1f77b4"/>
   </g>
   <g id="patch_173">
    <path d="M 342.475147 273.312 
L 344.093515 273.312 
L 344.093515 55.988757 
L 342.475147 55.988757 
z
" clip-path="url(#p5af16e294e)" style="fill: #1f77b4"/>
   </g>
   <g id="patch_174">
    <path d="M 344.093515 273.312 
L 345.711883 273.312 
L 345.711883 47.270919 
L 344.093515 47.270919 
z
" clip-path="url(#p5af16e294e)" style="fill: #1f77b4"/>
   </g>
   <g id="patch_175">
    <path d="M 345.711883 273.312 
L 347.33025 273.312 
L 347.33025 56.611459 
L 345.711883 56.611459 
z
" clip-path="url(#p5af16e294e)" style="fill: #1f77b4"/>
   </g>
   <g id="patch_176">
    <path d="M 347.33025 273.312 
L 348.948618 273.312 
L 348.948618 51.007135 
L 347.33025 51.007135 
z
" clip-path="url(#p5af16e294e)" style="fill: #1f77b4"/>
   </g>
   <g id="patch_177">
    <path d="M 348.948618 273.312 
L 350.566986 273.312 
L 350.566986 55.988757 
L 348.948618 55.988757 
z
" clip-path="url(#p5af16e294e)" style="fill: #1f77b4"/>
   </g>
   <g id="patch_178">
    <path d="M 350.566986 273.312 
L 352.185354 273.312 
L 352.185354 54.120649 
L 350.566986 54.120649 
z
" clip-path="url(#p5af16e294e)" style="fill: #1f77b4"/>
   </g>
   <g id="patch_179">
    <path d="M 352.185354 273.312 
L 353.803722 273.312 
L 353.803722 41.666595 
L 352.185354 41.666595 
z
" clip-path="url(#p5af16e294e)" style="fill: #1f77b4"/>
   </g>
   <g id="patch_180">
    <path d="M 353.803722 273.312 
L 355.42209 273.312 
L 355.42209 33.571459 
L 353.803722 33.571459 
z
" clip-path="url(#p5af16e294e)" style="fill: #1f77b4"/>
   </g>
   <g id="patch_181">
    <path d="M 355.42209 273.312 
L 357.040458 273.312 
L 357.040458 47.270919 
L 355.42209 47.270919 
z
" clip-path="url(#p5af16e294e)" style="fill: #1f77b4"/>
   </g>
   <g id="patch_182">
    <path d="M 357.040458 273.312 
L 358.658826 273.312 
L 358.658826 33.571459 
L 357.040458 33.571459 
z
" clip-path="url(#p5af16e294e)" style="fill: #1f77b4"/>
   </g>
   <g id="patch_183">
    <path d="M 358.658826 273.312 
L 360.277194 273.312 
L 360.277194 47.893622 
L 358.658826 47.893622 
z
" clip-path="url(#p5af16e294e)" style="fill: #1f77b4"/>
   </g>
   <g id="patch_184">
    <path d="M 360.277194 273.312 
L 361.895562 273.312 
L 361.895562 50.384432 
L 360.277194 50.384432 
z
" clip-path="url(#p5af16e294e)" style="fill: #1f77b4"/>
   </g>
   <g id="patch_185">
    <path d="M 361.895562 273.312 
L 363.51393 273.312 
L 363.51393 36.06227 
L 361.895562 36.06227 
z
" clip-path="url(#p5af16e294e)" style="fill: #1f77b4"/>
   </g>
   <g id="patch_186">
    <path d="M 363.51393 273.312 
L 365.132298 273.312 
L 365.132298 51.629838 
L 363.51393 51.629838 
z
" clip-path="url(#p5af16e294e)" style="fill: #1f77b4"/>
   </g>
   <g id="patch_187">
    <path d="M 365.132298 273.312 
L 366.750666 273.312 
L 366.750666 32.326054 
L 365.132298 32.326054 
z
" clip-path="url(#p5af16e294e)" style="fill: #1f77b4"/>
   </g>
   <g id="patch_188">
    <path d="M 366.750666 273.312 
L 368.369034 273.312 
L 368.369034 37.307676 
L 366.750666 37.307676 
z
" clip-path="url(#p5af16e294e)" style="fill: #1f77b4"/>
   </g>
   <g id="patch_189">
    <path d="M 368.369034 273.312 
L 369.987402 273.312 
L 369.987402 51.007135 
L 368.369034 51.007135 
z
" clip-path="url(#p5af16e294e)" style="fill: #1f77b4"/>
   </g>
   <g id="patch_190">
    <path d="M 369.987402 273.312 
L 371.60577 273.312 
L 371.60577 24.230919 
L 369.987402 24.230919 
z
" clip-path="url(#p5af16e294e)" style="fill: #1f77b4"/>
   </g>
   <g id="patch_191">
    <path d="M 371.60577 273.312 
L 373.224138 273.312 
L 373.224138 37.930378 
L 371.60577 37.930378 
z
" clip-path="url(#p5af16e294e)" style="fill: #1f77b4"/>
   </g>
   <g id="patch_192">
    <path d="M 373.224138 273.312 
L 374.842506 273.312 
L 374.842506 28.589838 
L 373.224138 28.589838 
z
" clip-path="url(#p5af16e294e)" style="fill: #1f77b4"/>
   </g>
   <g id="patch_193">
    <path d="M 374.842506 273.312 
L 376.460874 273.312 
L 376.460874 47.270919 
L 374.842506 47.270919 
z
" clip-path="url(#p5af16e294e)" style="fill: #1f77b4"/>
   </g>
   <g id="patch_194">
    <path d="M 376.460874 273.312 
L 378.079242 273.312 
L 378.079242 39.798486 
L 376.460874 39.798486 
z
" clip-path="url(#p5af16e294e)" style="fill: #1f77b4"/>
   </g>
   <g id="patch_195">
    <path d="M 378.079242 273.312 
L 379.69761 273.312 
L 379.69761 21.740108 
L 378.079242 21.740108 
z
" clip-path="url(#p5af16e294e)" style="fill: #1f77b4"/>
   </g>
   <g id="patch_196">
    <path d="M 379.69761 273.312 
L 381.315977 273.312 
L 381.315977 19.872 
L 379.69761 19.872 
z
" clip-path="url(#p5af16e294e)" style="fill: #1f77b4"/>
   </g>
   <g id="patch_197">
    <path d="M 381.315977 273.312 
L 382.934345 273.312 
L 382.934345 27.344432 
L 381.315977 27.344432 
z
" clip-path="url(#p5af16e294e)" style="fill: #1f77b4"/>
   </g>
   <g id="patch_198">
    <path d="M 382.934345 273.312 
L 384.552713 273.312 
L 384.552713 44.780108 
L 382.934345 44.780108 
z
" clip-path="url(#p5af16e294e)" style="fill: #1f77b4"/>
   </g>
   <g id="patch_199">
    <path d="M 384.552713 273.312 
L 386.171081 273.312 
L 386.171081 37.930378 
L 384.552713 37.930378 
z
" clip-path="url(#p5af16e294e)" style="fill: #1f77b4"/>
   </g>
   <g id="patch_200">
    <path d="M 386.171081 273.312 
L 387.789449 273.312 
L 387.789449 23.608216 
L 386.171081 23.608216 
z
" clip-path="url(#p5af16e294e)" style="fill: #1f77b4"/>
   </g>
   <g id="patch_201">
    <path d="M 387.789449 273.312 
L 389.407817 273.312 
L 389.407817 54.120649 
L 387.789449 54.120649 
z
" clip-path="url(#p5af16e294e)" style="fill: #1f77b4"/>
   </g>
   <g id="patch_202">
    <path d="M 389.407817 273.312 
L 391.026185 273.312 
L 391.026185 29.212541 
L 389.407817 29.212541 
z
" clip-path="url(#p5af16e294e)" style="fill: #1f77b4"/>
   </g>
   <g id="matplotlib.axis_1">
    <g id="xtick_1">
     <g id="line2d_1">
      <defs>
       <path id="me158a5ad85" d="M 0 0 
L 0 3.5 
" style="stroke: #000000; stroke-width: 0.8"/>
      </defs>
      <g>
       <use xlink:href="#me158a5ad85" x="66.376477" y="273.312" style="stroke: #000000; stroke-width: 0.8"/>
      </g>
     </g>
     <g id="text_1">
      <!-- 0.0 -->
      <g transform="translate(58.424915 287.910437)scale(0.1 -0.1)">
       <defs>
        <path id="DejaVuSans-30" d="M 2034 4250 
Q 1547 4250 1301 3770 
Q 1056 3291 1056 2328 
Q 1056 1369 1301 889 
Q 1547 409 2034 409 
Q 2525 409 2770 889 
Q 3016 1369 3016 2328 
Q 3016 3291 2770 3770 
Q 2525 4250 2034 4250 
z
M 2034 4750 
Q 2819 4750 3233 4129 
Q 3647 3509 3647 2328 
Q 3647 1150 3233 529 
Q 2819 -91 2034 -91 
Q 1250 -91 836 529 
Q 422 1150 422 2328 
Q 422 3509 836 4129 
Q 1250 4750 2034 4750 
z
" transform="scale(0.015625)"/>
        <path id="DejaVuSans-2e" d="M 684 794 
L 1344 794 
L 1344 0 
L 684 0 
L 684 794 
z
" transform="scale(0.015625)"/>
       </defs>
       <use xlink:href="#DejaVuSans-30"/>
       <use xlink:href="#DejaVuSans-2e" x="63.623047"/>
       <use xlink:href="#DejaVuSans-30" x="95.410156"/>
      </g>
     </g>
    </g>
    <g id="xtick_2">
     <g id="line2d_2">
      <g>
       <use xlink:href="#me158a5ad85" x="131.307386" y="273.312" style="stroke: #000000; stroke-width: 0.8"/>
      </g>
     </g>
     <g id="text_2">
      <!-- 0.2 -->
      <g transform="translate(123.355824 287.910437)scale(0.1 -0.1)">
       <defs>
        <path id="DejaVuSans-32" d="M 1228 531 
L 3431 531 
L 3431 0 
L 469 0 
L 469 531 
Q 828 903 1448 1529 
Q 2069 2156 2228 2338 
Q 2531 2678 2651 2914 
Q 2772 3150 2772 3378 
Q 2772 3750 2511 3984 
Q 2250 4219 1831 4219 
Q 1534 4219 1204 4116 
Q 875 4013 500 3803 
L 500 4441 
Q 881 4594 1212 4672 
Q 1544 4750 1819 4750 
Q 2544 4750 2975 4387 
Q 3406 4025 3406 3419 
Q 3406 3131 3298 2873 
Q 3191 2616 2906 2266 
Q 2828 2175 2409 1742 
Q 1991 1309 1228 531 
z
" transform="scale(0.015625)"/>
       </defs>
       <use xlink:href="#DejaVuSans-30"/>
       <use xlink:href="#DejaVuSans-2e" x="63.623047"/>
       <use xlink:href="#DejaVuSans-32" x="95.410156"/>
      </g>
     </g>
    </g>
    <g id="xtick_3">
     <g id="line2d_3">
      <g>
       <use xlink:href="#me158a5ad85" x="196.238295" y="273.312" style="stroke: #000000; stroke-width: 0.8"/>
      </g>
     </g>
     <g id="text_3">
      <!-- 0.4 -->
      <g transform="translate(188.286733 287.910437)scale(0.1 -0.1)">
       <defs>
        <path id="DejaVuSans-34" d="M 2419 4116 
L 825 1625 
L 2419 1625 
L 2419 4116 
z
M 2253 4666 
L 3047 4666 
L 3047 1625 
L 3713 1625 
L 3713 1100 
L 3047 1100 
L 3047 0 
L 2419 0 
L 2419 1100 
L 313 1100 
L 313 1709 
L 2253 4666 
z
" transform="scale(0.015625)"/>
       </defs>
       <use xlink:href="#DejaVuSans-30"/>
       <use xlink:href="#DejaVuSans-2e" x="63.623047"/>
       <use xlink:href="#DejaVuSans-34" x="95.410156"/>
      </g>
     </g>
    </g>
    <g id="xtick_4">
     <g id="line2d_4">
      <g>
       <use xlink:href="#me158a5ad85" x="261.169205" y="273.312" style="stroke: #000000; stroke-width: 0.8"/>
      </g>
     </g>
     <g id="text_4">
      <!-- 0.6 -->
      <g transform="translate(253.217642 287.910437)scale(0.1 -0.1)">
       <defs>
        <path id="DejaVuSans-36" d="M 2113 2584 
Q 1688 2584 1439 2293 
Q 1191 2003 1191 1497 
Q 1191 994 1439 701 
Q 1688 409 2113 409 
Q 2538 409 2786 701 
Q 3034 994 3034 1497 
Q 3034 2003 2786 2293 
Q 2538 2584 2113 2584 
z
M 3366 4563 
L 3366 3988 
Q 3128 4100 2886 4159 
Q 2644 4219 2406 4219 
Q 1781 4219 1451 3797 
Q 1122 3375 1075 2522 
Q 1259 2794 1537 2939 
Q 1816 3084 2150 3084 
Q 2853 3084 3261 2657 
Q 3669 2231 3669 1497 
Q 3669 778 3244 343 
Q 2819 -91 2113 -91 
Q 1303 -91 875 529 
Q 447 1150 447 2328 
Q 447 3434 972 4092 
Q 1497 4750 2381 4750 
Q 2619 4750 2861 4703 
Q 3103 4656 3366 4563 
z
" transform="scale(0.015625)"/>
       </defs>
       <use xlink:href="#DejaVuSans-30"/>
       <use xlink:href="#DejaVuSans-2e" x="63.623047"/>
       <use xlink:href="#DejaVuSans-36" x="95.410156"/>
      </g>
     </g>
    </g>
    <g id="xtick_5">
     <g id="line2d_5">
      <g>
       <use xlink:href="#me158a5ad85" x="326.100114" y="273.312" style="stroke: #000000; stroke-width: 0.8"/>
      </g>
     </g>
     <g id="text_5">
      <!-- 0.8 -->
      <g transform="translate(318.148551 287.910437)scale(0.1 -0.1)">
       <defs>
        <path id="DejaVuSans-38" d="M 2034 2216 
Q 1584 2216 1326 1975 
Q 1069 1734 1069 1313 
Q 1069 891 1326 650 
Q 1584 409 2034 409 
Q 2484 409 2743 651 
Q 3003 894 3003 1313 
Q 3003 1734 2745 1975 
Q 2488 2216 2034 2216 
z
M 1403 2484 
Q 997 2584 770 2862 
Q 544 3141 544 3541 
Q 544 4100 942 4425 
Q 1341 4750 2034 4750 
Q 2731 4750 3128 4425 
Q 3525 4100 3525 3541 
Q 3525 3141 3298 2862 
Q 3072 2584 2669 2484 
Q 3125 2378 3379 2068 
Q 3634 1759 3634 1313 
Q 3634 634 3220 271 
Q 2806 -91 2034 -91 
Q 1263 -91 848 271 
Q 434 634 434 1313 
Q 434 1759 690 2068 
Q 947 2378 1403 2484 
z
M 1172 3481 
Q 1172 3119 1398 2916 
Q 1625 2713 2034 2713 
Q 2441 2713 2670 2916 
Q 2900 3119 2900 3481 
Q 2900 3844 2670 4047 
Q 2441 4250 2034 4250 
Q 1625 4250 1398 4047 
Q 1172 3844 1172 3481 
z
" transform="scale(0.015625)"/>
       </defs>
       <use xlink:href="#DejaVuSans-30"/>
       <use xlink:href="#DejaVuSans-2e" x="63.623047"/>
       <use xlink:href="#DejaVuSans-38" x="95.410156"/>
      </g>
     </g>
    </g>
    <g id="xtick_6">
     <g id="line2d_6">
      <g>
       <use xlink:href="#me158a5ad85" x="391.031023" y="273.312" style="stroke: #000000; stroke-width: 0.8"/>
      </g>
     </g>
     <g id="text_6">
      <!-- 1.0 -->
      <g transform="translate(383.07946 287.910437)scale(0.1 -0.1)">
       <defs>
        <path id="DejaVuSans-31" d="M 794 531 
L 1825 531 
L 1825 4091 
L 703 3866 
L 703 4441 
L 1819 4666 
L 2450 4666 
L 2450 531 
L 3481 531 
L 3481 0 
L 794 0 
L 794 531 
z
" transform="scale(0.015625)"/>
       </defs>
       <use xlink:href="#DejaVuSans-31"/>
       <use xlink:href="#DejaVuSans-2e" x="63.623047"/>
       <use xlink:href="#DejaVuSans-30" x="95.410156"/>
      </g>
     </g>
    </g>
    <g id="text_7">
     <!-- Propagation direction -->
     <g transform="translate(175.221719 301.588562)scale(0.1 -0.1)">
      <defs>
       <path id="DejaVuSans-50" d="M 1259 4147 
L 1259 2394 
L 2053 2394 
Q 2494 2394 2734 2622 
Q 2975 2850 2975 3272 
Q 2975 3691 2734 3919 
Q 2494 4147 2053 4147 
L 1259 4147 
z
M 628 4666 
L 2053 4666 
Q 2838 4666 3239 4311 
Q 3641 3956 3641 3272 
Q 3641 2581 3239 2228 
Q 2838 1875 2053 1875 
L 1259 1875 
L 1259 0 
L 628 0 
L 628 4666 
z
" transform="scale(0.015625)"/>
       <path id="DejaVuSans-72" d="M 2631 2963 
Q 2534 3019 2420 3045 
Q 2306 3072 2169 3072 
Q 1681 3072 1420 2755 
Q 1159 2438 1159 1844 
L 1159 0 
L 581 0 
L 581 3500 
L 1159 3500 
L 1159 2956 
Q 1341 3275 1631 3429 
Q 1922 3584 2338 3584 
Q 2397 3584 2469 3576 
Q 2541 3569 2628 3553 
L 2631 2963 
z
" transform="scale(0.015625)"/>
       <path id="DejaVuSans-6f" d="M 1959 3097 
Q 1497 3097 1228 2736 
Q 959 2375 959 1747 
Q 959 1119 1226 758 
Q 1494 397 1959 397 
Q 2419 397 2687 759 
Q 2956 1122 2956 1747 
Q 2956 2369 2687 2733 
Q 2419 3097 1959 3097 
z
M 1959 3584 
Q 2709 3584 3137 3096 
Q 3566 2609 3566 1747 
Q 3566 888 3137 398 
Q 2709 -91 1959 -91 
Q 1206 -91 779 398 
Q 353 888 353 1747 
Q 353 2609 779 3096 
Q 1206 3584 1959 3584 
z
" transform="scale(0.015625)"/>
       <path id="DejaVuSans-70" d="M 1159 525 
L 1159 -1331 
L 581 -1331 
L 581 3500 
L 1159 3500 
L 1159 2969 
Q 1341 3281 1617 3432 
Q 1894 3584 2278 3584 
Q 2916 3584 3314 3078 
Q 3713 2572 3713 1747 
Q 3713 922 3314 415 
Q 2916 -91 2278 -91 
Q 1894 -91 1617 61 
Q 1341 213 1159 525 
z
M 3116 1747 
Q 3116 2381 2855 2742 
Q 2594 3103 2138 3103 
Q 1681 3103 1420 2742 
Q 1159 2381 1159 1747 
Q 1159 1113 1420 752 
Q 1681 391 2138 391 
Q 2594 391 2855 752 
Q 3116 1113 3116 1747 
z
" transform="scale(0.015625)"/>
       <path id="DejaVuSans-61" d="M 2194 1759 
Q 1497 1759 1228 1600 
Q 959 1441 959 1056 
Q 959 750 1161 570 
Q 1363 391 1709 391 
Q 2188 391 2477 730 
Q 2766 1069 2766 1631 
L 2766 1759 
L 2194 1759 
z
M 3341 1997 
L 3341 0 
L 2766 0 
L 2766 531 
Q 2569 213 2275 61 
Q 1981 -91 1556 -91 
Q 1019 -91 701 211 
Q 384 513 384 1019 
Q 384 1609 779 1909 
Q 1175 2209 1959 2209 
L 2766 2209 
L 2766 2266 
Q 2766 2663 2505 2880 
Q 2244 3097 1772 3097 
Q 1472 3097 1187 3025 
Q 903 2953 641 2809 
L 641 3341 
Q 956 3463 1253 3523 
Q 1550 3584 1831 3584 
Q 2591 3584 2966 3190 
Q 3341 2797 3341 1997 
z
" transform="scale(0.015625)"/>
       <path id="DejaVuSans-67" d="M 2906 1791 
Q 2906 2416 2648 2759 
Q 2391 3103 1925 3103 
Q 1463 3103 1205 2759 
Q 947 2416 947 1791 
Q 947 1169 1205 825 
Q 1463 481 1925 481 
Q 2391 481 2648 825 
Q 2906 1169 2906 1791 
z
M 3481 434 
Q 3481 -459 3084 -895 
Q 2688 -1331 1869 -1331 
Q 1566 -1331 1297 -1286 
Q 1028 -1241 775 -1147 
L 775 -588 
Q 1028 -725 1275 -790 
Q 1522 -856 1778 -856 
Q 2344 -856 2625 -561 
Q 2906 -266 2906 331 
L 2906 616 
Q 2728 306 2450 153 
Q 2172 0 1784 0 
Q 1141 0 747 490 
Q 353 981 353 1791 
Q 353 2603 747 3093 
Q 1141 3584 1784 3584 
Q 2172 3584 2450 3431 
Q 2728 3278 2906 2969 
L 2906 3500 
L 3481 3500 
L 3481 434 
z
" transform="scale(0.015625)"/>
       <path id="DejaVuSans-74" d="M 1172 4494 
L 1172 3500 
L 2356 3500 
L 2356 3053 
L 1172 3053 
L 1172 1153 
Q 1172 725 1289 603 
Q 1406 481 1766 481 
L 2356 481 
L 2356 0 
L 1766 0 
Q 1100 0 847 248 
Q 594 497 594 1153 
L 594 3053 
L 172 3053 
L 172 3500 
L 594 3500 
L 594 4494 
L 1172 4494 
z
" transform="scale(0.015625)"/>
       <path id="DejaVuSans-69" d="M 603 3500 
L 1178 3500 
L 1178 0 
L 603 0 
L 603 3500 
z
M 603 4863 
L 1178 4863 
L 1178 4134 
L 603 4134 
L 603 4863 
z
" transform="scale(0.015625)"/>
       <path id="DejaVuSans-6e" d="M 3513 2113 
L 3513 0 
L 2938 0 
L 2938 2094 
Q 2938 2591 2744 2837 
Q 2550 3084 2163 3084 
Q 1697 3084 1428 2787 
Q 1159 2491 1159 1978 
L 1159 0 
L 581 0 
L 581 3500 
L 1159 3500 
L 1159 2956 
Q 1366 3272 1645 3428 
Q 1925 3584 2291 3584 
Q 2894 3584 3203 3211 
Q 3513 2838 3513 2113 
z
" transform="scale(0.015625)"/>
       <path id="DejaVuSans-20" transform="scale(0.015625)"/>
       <path id="DejaVuSans-64" d="M 2906 2969 
L 2906 4863 
L 3481 4863 
L 3481 0 
L 2906 0 
L 2906 525 
Q 2725 213 2448 61 
Q 2172 -91 1784 -91 
Q 1150 -91 751 415 
Q 353 922 353 1747 
Q 353 2572 751 3078 
Q 1150 3584 1784 3584 
Q 2172 3584 2448 3432 
Q 2725 3281 2906 2969 
z
M 947 1747 
Q 947 1113 1208 752 
Q 1469 391 1925 391 
Q 2381 391 2643 752 
Q 2906 1113 2906 1747 
Q 2906 2381 2643 2742 
Q 2381 3103 1925 3103 
Q 1469 3103 1208 2742 
Q 947 2381 947 1747 
z
" transform="scale(0.015625)"/>
       <path id="DejaVuSans-65" d="M 3597 1894 
L 3597 1613 
L 953 1613 
Q 991 1019 1311 708 
Q 1631 397 2203 397 
Q 2534 397 2845 478 
Q 3156 559 3463 722 
L 3463 178 
Q 3153 47 2828 -22 
Q 2503 -91 2169 -91 
Q 1331 -91 842 396 
Q 353 884 353 1716 
Q 353 2575 817 3079 
Q 1281 3584 2069 3584 
Q 2775 3584 3186 3129 
Q 3597 2675 3597 1894 
z
M 3022 2063 
Q 3016 2534 2758 2815 
Q 2500 3097 2075 3097 
Q 1594 3097 1305 2825 
Q 1016 2553 972 2059 
L 3022 2063 
z
" transform="scale(0.015625)"/>
       <path id="DejaVuSans-63" d="M 3122 3366 
L 3122 2828 
Q 2878 2963 2633 3030 
Q 2388 3097 2138 3097 
Q 1578 3097 1268 2742 
Q 959 2388 959 1747 
Q 959 1106 1268 751 
Q 1578 397 2138 397 
Q 2388 397 2633 464 
Q 2878 531 3122 666 
L 3122 134 
Q 2881 22 2623 -34 
Q 2366 -91 2075 -91 
Q 1284 -91 818 406 
Q 353 903 353 1747 
Q 353 2603 823 3093 
Q 1294 3584 2113 3584 
Q 2378 3584 2631 3529 
Q 2884 3475 3122 3366 
z
" transform="scale(0.015625)"/>
      </defs>
      <use xlink:href="#DejaVuSans-50"/>
      <use xlink:href="#DejaVuSans-72" x="58.552734"/>
      <use xlink:href="#DejaVuSans-6f" x="97.416016"/>
      <use xlink:href="#DejaVuSans-70" x="158.597656"/>
      <use xlink:href="#DejaVuSans-61" x="222.074219"/>
      <use xlink:href="#DejaVuSans-67" x="283.353516"/>
      <use xlink:href="#DejaVuSans-61" x="346.830078"/>
      <use xlink:href="#DejaVuSans-74" x="408.109375"/>
      <use xlink:href="#DejaVuSans-69" x="447.318359"/>
      <use xlink:href="#DejaVuSans-6f" x="475.101562"/>
      <use xlink:href="#DejaVuSans-6e" x="536.283203"/>
      <use xlink:href="#DejaVuSans-20" x="599.662109"/>
      <use xlink:href="#DejaVuSans-64" x="631.449219"/>
      <use xlink:href="#DejaVuSans-69" x="694.925781"/>
      <use xlink:href="#DejaVuSans-72" x="722.708984"/>
      <use xlink:href="#DejaVuSans-65" x="761.572266"/>
      <use xlink:href="#DejaVuSans-63" x="823.095703"/>
      <use xlink:href="#DejaVuSans-74" x="878.076172"/>
      <use xlink:href="#DejaVuSans-69" x="917.285156"/>
      <use xlink:href="#DejaVuSans-6f" x="945.068359"/>
      <use xlink:href="#DejaVuSans-6e" x="1006.25"/>
     </g>
    </g>
   </g>
   <g id="matplotlib.axis_2">
    <g id="ytick_1">
     <g id="line2d_7">
      <defs>
       <path id="mca401d0207" d="M 0 0 
L -3.5 0 
" style="stroke: #000000; stroke-width: 0.8"/>
      </defs>
      <g>
       <use xlink:href="#mca401d0207" x="50.14375" y="273.312" style="stroke: #000000; stroke-width: 0.8"/>
      </g>
     </g>
     <g id="text_8">
      <!-- 0.00 -->
      <g transform="translate(20.878125 277.111219)scale(0.1 -0.1)">
       <use xlink:href="#DejaVuSans-30"/>
       <use xlink:href="#DejaVuSans-2e" x="63.623047"/>
       <use xlink:href="#DejaVuSans-30" x="95.410156"/>
       <use xlink:href="#DejaVuSans-30" x="159.033203"/>
      </g>
     </g>
    </g>
    <g id="ytick_2">
     <g id="line2d_8">
      <g>
       <use xlink:href="#mca401d0207" x="50.14375" y="242.270941" style="stroke: #000000; stroke-width: 0.8"/>
      </g>
     </g>
     <g id="text_9">
      <!-- 0.25 -->
      <g transform="translate(20.878125 246.07016)scale(0.1 -0.1)">
       <defs>
        <path id="DejaVuSans-35" d="M 691 4666 
L 3169 4666 
L 3169 4134 
L 1269 4134 
L 1269 2991 
Q 1406 3038 1543 3061 
Q 1681 3084 1819 3084 
Q 2600 3084 3056 2656 
Q 3513 2228 3513 1497 
Q 3513 744 3044 326 
Q 2575 -91 1722 -91 
Q 1428 -91 1123 -41 
Q 819 9 494 109 
L 494 744 
Q 775 591 1075 516 
Q 1375 441 1709 441 
Q 2250 441 2565 725 
Q 2881 1009 2881 1497 
Q 2881 1984 2565 2268 
Q 2250 2553 1709 2553 
Q 1456 2553 1204 2497 
Q 953 2441 691 2322 
L 691 4666 
z
" transform="scale(0.015625)"/>
       </defs>
       <use xlink:href="#DejaVuSans-30"/>
       <use xlink:href="#DejaVuSans-2e" x="63.623047"/>
       <use xlink:href="#DejaVuSans-32" x="95.410156"/>
       <use xlink:href="#DejaVuSans-35" x="159.033203"/>
      </g>
     </g>
    </g>
    <g id="ytick_3">
     <g id="line2d_9">
      <g>
       <use xlink:href="#mca401d0207" x="50.14375" y="211.229882" style="stroke: #000000; stroke-width: 0.8"/>
      </g>
     </g>
     <g id="text_10">
      <!-- 0.50 -->
      <g transform="translate(20.878125 215.0291)scale(0.1 -0.1)">
       <use xlink:href="#DejaVuSans-30"/>
       <use xlink:href="#DejaVuSans-2e" x="63.623047"/>
       <use xlink:href="#DejaVuSans-35" x="95.410156"/>
       <use xlink:href="#DejaVuSans-30" x="159.033203"/>
      </g>
     </g>
    </g>
    <g id="ytick_4">
     <g id="line2d_10">
      <g>
       <use xlink:href="#mca401d0207" x="50.14375" y="180.188822" style="stroke: #000000; stroke-width: 0.8"/>
      </g>
     </g>
     <g id="text_11">
      <!-- 0.75 -->
      <g transform="translate(20.878125 183.988041)scale(0.1 -0.1)">
       <defs>
        <path id="DejaVuSans-37" d="M 525 4666 
L 3525 4666 
L 3525 4397 
L 1831 0 
L 1172 0 
L 2766 4134 
L 525 4134 
L 525 4666 
z
" transform="scale(0.015625)"/>
       </defs>
       <use xlink:href="#DejaVuSans-30"/>
       <use xlink:href="#DejaVuSans-2e" x="63.623047"/>
       <use xlink:href="#DejaVuSans-37" x="95.410156"/>
       <use xlink:href="#DejaVuSans-35" x="159.033203"/>
      </g>
     </g>
    </g>
    <g id="ytick_5">
     <g id="line2d_11">
      <g>
       <use xlink:href="#mca401d0207" x="50.14375" y="149.147763" style="stroke: #000000; stroke-width: 0.8"/>
      </g>
     </g>
     <g id="text_12">
      <!-- 1.00 -->
      <g transform="translate(20.878125 152.946982)scale(0.1 -0.1)">
       <use xlink:href="#DejaVuSans-31"/>
       <use xlink:href="#DejaVuSans-2e" x="63.623047"/>
       <use xlink:href="#DejaVuSans-30" x="95.410156"/>
       <use xlink:href="#DejaVuSans-30" x="159.033203"/>
      </g>
     </g>
    </g>
    <g id="ytick_6">
     <g id="line2d_12">
      <g>
       <use xlink:href="#mca401d0207" x="50.14375" y="118.106704" style="stroke: #000000; stroke-width: 0.8"/>
      </g>
     </g>
     <g id="text_13">
      <!-- 1.25 -->
      <g transform="translate(20.878125 121.905923)scale(0.1 -0.1)">
       <use xlink:href="#DejaVuSans-31"/>
       <use xlink:href="#DejaVuSans-2e" x="63.623047"/>
       <use xlink:href="#DejaVuSans-32" x="95.410156"/>
       <use xlink:href="#DejaVuSans-35" x="159.033203"/>
      </g>
     </g>
    </g>
    <g id="ytick_7">
     <g id="line2d_13">
      <g>
       <use xlink:href="#mca401d0207" x="50.14375" y="87.065645" style="stroke: #000000; stroke-width: 0.8"/>
      </g>
     </g>
     <g id="text_14">
      <!-- 1.50 -->
      <g transform="translate(20.878125 90.864863)scale(0.1 -0.1)">
       <use xlink:href="#DejaVuSans-31"/>
       <use xlink:href="#DejaVuSans-2e" x="63.623047"/>
       <use xlink:href="#DejaVuSans-35" x="95.410156"/>
       <use xlink:href="#DejaVuSans-30" x="159.033203"/>
      </g>
     </g>
    </g>
    <g id="ytick_8">
     <g id="line2d_14">
      <g>
       <use xlink:href="#mca401d0207" x="50.14375" y="56.024585" style="stroke: #000000; stroke-width: 0.8"/>
      </g>
     </g>
     <g id="text_15">
      <!-- 1.75 -->
      <g transform="translate(20.878125 59.823804)scale(0.1 -0.1)">
       <use xlink:href="#DejaVuSans-31"/>
       <use xlink:href="#DejaVuSans-2e" x="63.623047"/>
       <use xlink:href="#DejaVuSans-37" x="95.410156"/>
       <use xlink:href="#DejaVuSans-35" x="159.033203"/>
      </g>
     </g>
    </g>
    <g id="ytick_9">
     <g id="line2d_15">
      <g>
       <use xlink:href="#mca401d0207" x="50.14375" y="24.983526" style="stroke: #000000; stroke-width: 0.8"/>
      </g>
     </g>
     <g id="text_16">
      <!-- 2.00 -->
      <g transform="translate(20.878125 28.782745)scale(0.1 -0.1)">
       <use xlink:href="#DejaVuSans-32"/>
       <use xlink:href="#DejaVuSans-2e" x="63.623047"/>
       <use xlink:href="#DejaVuSans-30" x="95.410156"/>
       <use xlink:href="#DejaVuSans-30" x="159.033203"/>
      </g>
     </g>
    </g>
    <g id="text_17">
     <!-- Probability density -->
     <g transform="translate(14.798438 186.606781)rotate(-90)scale(0.1 -0.1)">
      <defs>
       <path id="DejaVuSans-62" d="M 3116 1747 
Q 3116 2381 2855 2742 
Q 2594 3103 2138 3103 
Q 1681 3103 1420 2742 
Q 1159 2381 1159 1747 
Q 1159 1113 1420 752 
Q 1681 391 2138 391 
Q 2594 391 2855 752 
Q 3116 1113 3116 1747 
z
M 1159 2969 
Q 1341 3281 1617 3432 
Q 1894 3584 2278 3584 
Q 2916 3584 3314 3078 
Q 3713 2572 3713 1747 
Q 3713 922 3314 415 
Q 2916 -91 2278 -91 
Q 1894 -91 1617 61 
Q 1341 213 1159 525 
L 1159 0 
L 581 0 
L 581 4863 
L 1159 4863 
L 1159 2969 
z
" transform="scale(0.015625)"/>
       <path id="DejaVuSans-6c" d="M 603 4863 
L 1178 4863 
L 1178 0 
L 603 0 
L 603 4863 
z
" transform="scale(0.015625)"/>
       <path id="DejaVuSans-79" d="M 2059 -325 
Q 1816 -950 1584 -1140 
Q 1353 -1331 966 -1331 
L 506 -1331 
L 506 -850 
L 844 -850 
Q 1081 -850 1212 -737 
Q 1344 -625 1503 -206 
L 1606 56 
L 191 3500 
L 800 3500 
L 1894 763 
L 2988 3500 
L 3597 3500 
L 2059 -325 
z
" transform="scale(0.015625)"/>
       <path id="DejaVuSans-73" d="M 2834 3397 
L 2834 2853 
Q 2591 2978 2328 3040 
Q 2066 3103 1784 3103 
Q 1356 3103 1142 2972 
Q 928 2841 928 2578 
Q 928 2378 1081 2264 
Q 1234 2150 1697 2047 
L 1894 2003 
Q 2506 1872 2764 1633 
Q 3022 1394 3022 966 
Q 3022 478 2636 193 
Q 2250 -91 1575 -91 
Q 1294 -91 989 -36 
Q 684 19 347 128 
L 347 722 
Q 666 556 975 473 
Q 1284 391 1588 391 
Q 1994 391 2212 530 
Q 2431 669 2431 922 
Q 2431 1156 2273 1281 
Q 2116 1406 1581 1522 
L 1381 1569 
Q 847 1681 609 1914 
Q 372 2147 372 2553 
Q 372 3047 722 3315 
Q 1072 3584 1716 3584 
Q 2034 3584 2315 3537 
Q 2597 3491 2834 3397 
z
" transform="scale(0.015625)"/>
      </defs>
      <use xlink:href="#DejaVuSans-50"/>
      <use xlink:href="#DejaVuSans-72" x="58.552734"/>
      <use xlink:href="#DejaVuSans-6f" x="97.416016"/>
      <use xlink:href="#DejaVuSans-62" x="158.597656"/>
      <use xlink:href="#DejaVuSans-61" x="222.074219"/>
      <use xlink:href="#DejaVuSans-62" x="283.353516"/>
      <use xlink:href="#DejaVuSans-69" x="346.830078"/>
      <use xlink:href="#DejaVuSans-6c" x="374.613281"/>
      <use xlink:href="#DejaVuSans-69" x="402.396484"/>
      <use xlink:href="#DejaVuSans-74" x="430.179688"/>
      <use xlink:href="#DejaVuSans-79" x="469.388672"/>
      <use xlink:href="#DejaVuSans-20" x="528.568359"/>
      <use xlink:href="#DejaVuSans-64" x="560.355469"/>
      <use xlink:href="#DejaVuSans-65" x="623.832031"/>
      <use xlink:href="#DejaVuSans-6e" x="685.355469"/>
      <use xlink:href="#DejaVuSans-73" x="748.734375"/>
      <use xlink:href="#DejaVuSans-69" x="800.833984"/>
      <use xlink:href="#DejaVuSans-74" x="828.617188"/>
      <use xlink:href="#DejaVuSans-79" x="867.826172"/>
     </g>
    </g>
   </g>
   <g id="line2d_16">
    <path d="M 66.376477 273.312 
L 391.031023 24.983526 
L 391.031023 24.983526 
" clip-path="url(#p5af16e294e)" style="fill: none; stroke: #ff7f0e; stroke-width: 1.5; stroke-linecap: square"/>
   </g>
   <g id="patch_203">
    <path d="M 50.14375 273.312 
L 50.14375 7.2 
" style="fill: none; stroke: #000000; stroke-width: 0.8; stroke-linejoin: miter; stroke-linecap: square"/>
   </g>
   <g id="patch_204">
    <path d="M 407.26375 273.312 
L 407.26375 7.2 
" style="fill: none; stroke: #000000; stroke-width: 0.8; stroke-linejoin: miter; stroke-linecap: square"/>
   </g>
   <g id="patch_205">
    <path d="M 50.14375 273.312 
L 407.26375 273.312 
" style="fill: none; stroke: #000000; stroke-width: 0.8; stroke-linejoin: miter; stroke-linecap: square"/>
   </g>
   <g id="patch_206">
    <path d="M 50.14375 7.2 
L 407.26375 7.2 
" style="fill: none; stroke: #000000; stroke-width: 0.8; stroke-linejoin: miter; stroke-linecap: square"/>
   </g>
  </g>
 </g>
 <defs>
  <clipPath id="p5af16e294e">
   <rect x="50.14375" y="7.2" width="357.12" height="266.112"/>
  </clipPath>
 </defs>
</svg>
