<?xml version="1.0" encoding="utf-8" standalone="no"?>
<!DOCTYPE svg PUBLIC "-//W3C//DTD SVG 1.1//EN"
  "http://www.w3.org/Graphics/SVG/1.1/DTD/svg11.dtd">
<svg xmlns:xlink="http://www.w3.org/1999/xlink" width="408.10125pt" height="310.86825pt" viewBox="0 0 408.10125 310.86825" xmlns="http://www.w3.org/2000/svg" version="1.1">
 <metadata>
  <rdf:RDF xmlns:dc="http://purl.org/dc/elements/1.1/" xmlns:cc="http://creativecommons.org/ns#" xmlns:rdf="http://www.w3.org/1999/02/22-rdf-syntax-ns#">
   <cc:Work>
    <dc:type rdf:resource="http://purl.org/dc/dcmitype/StillImage"/>
    <dc:date>2022-03-02T10:15:13.748940</dc:date>
    <dc:format>image/svg+xml</dc:format>
    <dc:creator>
     <cc:Agent>
      <dc:title>Matplotlib v3.5.1, https://matplotlib.org/</dc:title>
     </cc:Agent>
    </dc:creator>
   </cc:Work>
  </rdf:RDF>
 </metadata>
 <defs>
  <style type="text/css">*{stroke-linejoin: round; stroke-linecap: butt}</style>
 </defs>
 <g id="figure_1">
  <g id="patch_1">
   <path d="M 0 310.86825 
L 408.10125 310.86825 
L 408.10125 0 
L 0 0 
z
" style="fill: #ffffff"/>
  </g>
  <g id="axes_1">
   <g id="patch_2">
    <path d="M 43.78125 273.312 
L 400.90125 273.312 
L 400.90125 7.2 
L 43.78125 7.2 
z
" style="fill: #ffffff"/>
   </g>
   <g id="patch_3">
    <path d="M 61.142262 273.312 
L 62.756786 273.312 
L 62.756786 268.942345 
L 61.142262 268.942345 
z
" clip-path="url(#p0b701abac2)" style="fill: #1f77b4"/>
   </g>
   <g id="patch_4">
    <path d="M 62.756786 273.312 
L 64.37131 273.312 
L 64.37131 263.116138 
L 62.756786 263.116138 
z
" clip-path="url(#p0b701abac2)" style="fill: #1f77b4"/>
   </g>
   <g id="patch_5">
    <path d="M 64.37131 273.312 
L 65.985835 273.312 
L 65.985835 261.659586 
L 64.37131 261.659586 
z
" clip-path="url(#p0b701abac2)" style="fill: #1f77b4"/>
   </g>
   <g id="patch_6">
    <path d="M 65.985835 273.312 
L 67.600359 273.312 
L 67.600359 260.93131 
L 65.985835 260.93131 
z
" clip-path="url(#p0b701abac2)" style="fill: #1f77b4"/>
   </g>
   <g id="patch_7">
    <path d="M 67.600359 273.312 
L 69.214883 273.312 
L 69.214883 260.203034 
L 67.600359 260.203034 
z
" clip-path="url(#p0b701abac2)" style="fill: #1f77b4"/>
   </g>
   <g id="patch_8">
    <path d="M 69.214883 273.312 
L 70.829407 273.312 
L 70.829407 255.105103 
L 69.214883 255.105103 
z
" clip-path="url(#p0b701abac2)" style="fill: #1f77b4"/>
   </g>
   <g id="patch_9">
    <path d="M 70.829407 273.312 
L 72.443932 273.312 
L 72.443932 245.637517 
L 70.829407 245.637517 
z
" clip-path="url(#p0b701abac2)" style="fill: #1f77b4"/>
   </g>
   <g id="patch_10">
    <path d="M 72.443932 273.312 
L 74.058456 273.312 
L 74.058456 236.898207 
L 72.443932 236.898207 
z
" clip-path="url(#p0b701abac2)" style="fill: #1f77b4"/>
   </g>
   <g id="patch_11">
    <path d="M 74.058456 273.312 
L 75.67298 273.312 
L 75.67298 239.083034 
L 74.058456 239.083034 
z
" clip-path="url(#p0b701abac2)" style="fill: #1f77b4"/>
   </g>
   <g id="patch_12">
    <path d="M 75.67298 273.312 
L 77.287504 273.312 
L 77.287504 237.626483 
L 75.67298 237.626483 
z
" clip-path="url(#p0b701abac2)" style="fill: #1f77b4"/>
   </g>
   <g id="patch_13">
    <path d="M 77.287504 273.312 
L 78.902028 273.312 
L 78.902028 239.083034 
L 77.287504 239.083034 
z
" clip-path="url(#p0b701abac2)" style="fill: #1f77b4"/>
   </g>
   <g id="patch_14">
    <path d="M 78.902028 273.312 
L 80.516553 273.312 
L 80.516553 230.343724 
L 78.902028 230.343724 
z
" clip-path="url(#p0b701abac2)" style="fill: #1f77b4"/>
   </g>
   <g id="patch_15">
    <path d="M 80.516553 273.312 
L 82.131077 273.312 
L 82.131077 228.887172 
L 80.516553 228.887172 
z
" clip-path="url(#p0b701abac2)" style="fill: #1f77b4"/>
   </g>
   <g id="patch_16">
    <path d="M 82.131077 273.312 
L 83.745601 273.312 
L 83.745601 232.528552 
L 82.131077 232.528552 
z
" clip-path="url(#p0b701abac2)" style="fill: #1f77b4"/>
   </g>
   <g id="patch_17">
    <path d="M 83.745601 273.312 
L 85.360125 273.312 
L 85.360125 230.343724 
L 83.745601 230.343724 
z
" clip-path="url(#p0b701abac2)" style="fill: #1f77b4"/>
   </g>
   <g id="patch_18">
    <path d="M 85.360125 273.312 
L 86.97465 273.312 
L 86.97465 216.506483 
L 85.360125 216.506483 
z
" clip-path="url(#p0b701abac2)" style="fill: #1f77b4"/>
   </g>
   <g id="patch_19">
    <path d="M 86.97465 273.312 
L 88.589174 273.312 
L 88.589174 217.963034 
L 86.97465 217.963034 
z
" clip-path="url(#p0b701abac2)" style="fill: #1f77b4"/>
   </g>
   <g id="patch_20">
    <path d="M 88.589174 273.312 
L 90.203698 273.312 
L 90.203698 217.963034 
L 88.589174 217.963034 
z
" clip-path="url(#p0b701abac2)" style="fill: #1f77b4"/>
   </g>
   <g id="patch_21">
    <path d="M 90.203698 273.312 
L 91.818222 273.312 
L 91.818222 205.582345 
L 90.203698 205.582345 
z
" clip-path="url(#p0b701abac2)" style="fill: #1f77b4"/>
   </g>
   <g id="patch_22">
    <path d="M 91.818222 273.312 
L 93.432746 273.312 
L 93.432746 202.669241 
L 91.818222 202.669241 
z
" clip-path="url(#p0b701abac2)" style="fill: #1f77b4"/>
   </g>
   <g id="patch_23">
    <path d="M 93.432746 273.312 
L 95.047271 273.312 
L 95.047271 192.473379 
L 93.432746 192.473379 
z
" clip-path="url(#p0b701abac2)" style="fill: #1f77b4"/>
   </g>
   <g id="patch_24">
    <path d="M 95.047271 273.312 
L 96.661795 273.312 
L 96.661795 192.473379 
L 95.047271 192.473379 
z
" clip-path="url(#p0b701abac2)" style="fill: #1f77b4"/>
   </g>
   <g id="patch_25">
    <path d="M 96.661795 273.312 
L 98.276319 273.312 
L 98.276319 204.125793 
L 96.661795 204.125793 
z
" clip-path="url(#p0b701abac2)" style="fill: #1f77b4"/>
   </g>
   <g id="patch_26">
    <path d="M 98.276319 273.312 
L 99.890843 273.312 
L 99.890843 188.832 
L 98.276319 188.832 
z
" clip-path="url(#p0b701abac2)" style="fill: #1f77b4"/>
   </g>
   <g id="patch_27">
    <path d="M 99.890843 273.312 
L 101.505368 273.312 
L 101.505368 187.375448 
L 99.890843 187.375448 
z
" clip-path="url(#p0b701abac2)" style="fill: #1f77b4"/>
   </g>
   <g id="patch_28">
    <path d="M 101.505368 273.312 
L 103.119892 273.312 
L 103.119892 203.397517 
L 101.505368 203.397517 
z
" clip-path="url(#p0b701abac2)" style="fill: #1f77b4"/>
   </g>
   <g id="patch_29">
    <path d="M 103.119892 273.312 
L 104.734416 273.312 
L 104.734416 175.723034 
L 103.119892 175.723034 
z
" clip-path="url(#p0b701abac2)" style="fill: #1f77b4"/>
   </g>
   <g id="patch_30">
    <path d="M 104.734416 273.312 
L 106.34894 273.312 
L 106.34894 174.994759 
L 104.734416 174.994759 
z
" clip-path="url(#p0b701abac2)" style="fill: #1f77b4"/>
   </g>
   <g id="patch_31">
    <path d="M 106.34894 273.312 
L 107.963464 273.312 
L 107.963464 161.885793 
L 106.34894 161.885793 
z
" clip-path="url(#p0b701abac2)" style="fill: #1f77b4"/>
   </g>
   <g id="patch_32">
    <path d="M 107.963464 273.312 
L 109.577989 273.312 
L 109.577989 175.723034 
L 107.963464 175.723034 
z
" clip-path="url(#p0b701abac2)" style="fill: #1f77b4"/>
   </g>
   <g id="patch_33">
    <path d="M 109.577989 273.312 
L 111.192513 273.312 
L 111.192513 168.440276 
L 109.577989 168.440276 
z
" clip-path="url(#p0b701abac2)" style="fill: #1f77b4"/>
   </g>
   <g id="patch_34">
    <path d="M 111.192513 273.312 
L 112.807037 273.312 
L 112.807037 141.494069 
L 111.192513 141.494069 
z
" clip-path="url(#p0b701abac2)" style="fill: #1f77b4"/>
   </g>
   <g id="patch_35">
    <path d="M 112.807037 273.312 
L 114.421561 273.312 
L 114.421561 164.070621 
L 112.807037 164.070621 
z
" clip-path="url(#p0b701abac2)" style="fill: #1f77b4"/>
   </g>
   <g id="patch_36">
    <path d="M 114.421561 273.312 
L 116.036086 273.312 
L 116.036086 158.97269 
L 114.421561 158.97269 
z
" clip-path="url(#p0b701abac2)" style="fill: #1f77b4"/>
   </g>
   <g id="patch_37">
    <path d="M 116.036086 273.312 
L 117.65061 273.312 
L 117.65061 150.961655 
L 116.036086 150.961655 
z
" clip-path="url(#p0b701abac2)" style="fill: #1f77b4"/>
   </g>
   <g id="patch_38">
    <path d="M 117.65061 273.312 
L 119.265134 273.312 
L 119.265134 142.950621 
L 117.65061 142.950621 
z
" clip-path="url(#p0b701abac2)" style="fill: #1f77b4"/>
   </g>
   <g id="patch_39">
    <path d="M 119.265134 273.312 
L 120.879658 273.312 
L 120.879658 140.765793 
L 119.265134 140.765793 
z
" clip-path="url(#p0b701abac2)" style="fill: #1f77b4"/>
   </g>
   <g id="patch_40">
    <path d="M 120.879658 273.312 
L 122.494182 273.312 
L 122.494182 157.516138 
L 120.879658 157.516138 
z
" clip-path="url(#p0b701abac2)" style="fill: #1f77b4"/>
   </g>
   <g id="patch_41">
    <path d="M 122.494182 273.312 
L 124.108707 273.312 
L 124.108707 153.874759 
L 122.494182 153.874759 
z
" clip-path="url(#p0b701abac2)" style="fill: #1f77b4"/>
   </g>
   <g id="patch_42">
    <path d="M 124.108707 273.312 
L 125.723231 273.312 
L 125.723231 146.592 
L 124.108707 146.592 
z
" clip-path="url(#p0b701abac2)" style="fill: #1f77b4"/>
   </g>
   <g id="patch_43">
    <path d="M 125.723231 273.312 
L 127.337755 273.312 
L 127.337755 117.460966 
L 125.723231 117.460966 
z
" clip-path="url(#p0b701abac2)" style="fill: #1f77b4"/>
   </g>
   <g id="patch_44">
    <path d="M 127.337755 273.312 
L 128.952279 273.312 
L 128.952279 126.200276 
L 127.337755 126.200276 
z
" clip-path="url(#p0b701abac2)" style="fill: #1f77b4"/>
   </g>
   <g id="patch_45">
    <path d="M 128.952279 273.312 
L 130.566804 273.312 
L 130.566804 139.309241 
L 128.952279 139.309241 
z
" clip-path="url(#p0b701abac2)" style="fill: #1f77b4"/>
   </g>
   <g id="patch_46">
    <path d="M 130.566804 273.312 
L 132.181328 273.312 
L 132.181328 133.483034 
L 130.566804 133.483034 
z
" clip-path="url(#p0b701abac2)" style="fill: #1f77b4"/>
   </g>
   <g id="patch_47">
    <path d="M 132.181328 273.312 
L 133.795852 273.312 
L 133.795852 102.167172 
L 132.181328 102.167172 
z
" clip-path="url(#p0b701abac2)" style="fill: #1f77b4"/>
   </g>
   <g id="patch_48">
    <path d="M 133.795852 273.312 
L 135.410376 273.312 
L 135.410376 129.841655 
L 133.795852 129.841655 
z
" clip-path="url(#p0b701abac2)" style="fill: #1f77b4"/>
   </g>
   <g id="patch_49">
    <path d="M 135.410376 273.312 
L 137.0249 273.312 
L 137.0249 120.374069 
L 135.410376 120.374069 
z
" clip-path="url(#p0b701abac2)" style="fill: #1f77b4"/>
   </g>
   <g id="patch_50">
    <path d="M 137.0249 273.312 
L 138.639425 273.312 
L 138.639425 120.374069 
L 137.0249 120.374069 
z
" clip-path="url(#p0b701abac2)" style="fill: #1f77b4"/>
   </g>
   <g id="patch_51">
    <path d="M 138.639425 273.312 
L 140.253949 273.312 
L 140.253949 107.993379 
L 138.639425 107.993379 
z
" clip-path="url(#p0b701abac2)" style="fill: #1f77b4"/>
   </g>
   <g id="patch_52">
    <path d="M 140.253949 273.312 
L 141.868473 273.312 
L 141.868473 109.449931 
L 140.253949 109.449931 
z
" clip-path="url(#p0b701abac2)" style="fill: #1f77b4"/>
   </g>
   <g id="patch_53">
    <path d="M 141.868473 273.312 
L 143.482997 273.312 
L 143.482997 97.797517 
L 141.868473 97.797517 
z
" clip-path="url(#p0b701abac2)" style="fill: #1f77b4"/>
   </g>
   <g id="patch_54">
    <path d="M 143.482997 273.312 
L 145.097521 273.312 
L 145.097521 122.558897 
L 143.482997 122.558897 
z
" clip-path="url(#p0b701abac2)" style="fill: #1f77b4"/>
   </g>
   <g id="patch_55">
    <path d="M 145.097521 273.312 
L 146.712046 273.312 
L 146.712046 96.340966 
L 145.097521 96.340966 
z
" clip-path="url(#p0b701abac2)" style="fill: #1f77b4"/>
   </g>
   <g id="patch_56">
    <path d="M 146.712046 273.312 
L 148.32657 273.312 
L 148.32657 95.61269 
L 146.712046 95.61269 
z
" clip-path="url(#p0b701abac2)" style="fill: #1f77b4"/>
   </g>
   <g id="patch_57">
    <path d="M 148.32657 273.312 
L 149.941094 273.312 
L 149.941094 107.993379 
L 148.32657 107.993379 
z
" clip-path="url(#p0b701abac2)" style="fill: #1f77b4"/>
   </g>
   <g id="patch_58">
    <path d="M 149.941094 273.312 
L 151.555618 273.312 
L 151.555618 85.416828 
L 149.941094 85.416828 
z
" clip-path="url(#p0b701abac2)" style="fill: #1f77b4"/>
   </g>
   <g id="patch_59">
    <path d="M 151.555618 273.312 
L 153.170143 273.312 
L 153.170143 100.710621 
L 151.555618 100.710621 
z
" clip-path="url(#p0b701abac2)" style="fill: #1f77b4"/>
   </g>
   <g id="patch_60">
    <path d="M 153.170143 273.312 
L 154.784667 273.312 
L 154.784667 75.949241 
L 153.170143 75.949241 
z
" clip-path="url(#p0b701abac2)" style="fill: #1f77b4"/>
   </g>
   <g id="patch_61">
    <path d="M 154.784667 273.312 
L 156.399191 273.312 
L 156.399191 87.601655 
L 154.784667 87.601655 
z
" clip-path="url(#p0b701abac2)" style="fill: #1f77b4"/>
   </g>
   <g id="patch_62">
    <path d="M 156.399191 273.312 
L 158.013715 273.312 
L 158.013715 78.134069 
L 156.399191 78.134069 
z
" clip-path="url(#p0b701abac2)" style="fill: #1f77b4"/>
   </g>
   <g id="patch_63">
    <path d="M 158.013715 273.312 
L 159.628239 273.312 
L 159.628239 73.036138 
L 158.013715 73.036138 
z
" clip-path="url(#p0b701abac2)" style="fill: #1f77b4"/>
   </g>
   <g id="patch_64">
    <path d="M 159.628239 273.312 
L 161.242764 273.312 
L 161.242764 81.775448 
L 159.628239 81.775448 
z
" clip-path="url(#p0b701abac2)" style="fill: #1f77b4"/>
   </g>
   <g id="patch_65">
    <path d="M 161.242764 273.312 
L 162.857288 273.312 
L 162.857288 73.036138 
L 161.242764 73.036138 
z
" clip-path="url(#p0b701abac2)" style="fill: #1f77b4"/>
   </g>
   <g id="patch_66">
    <path d="M 162.857288 273.312 
L 164.471812 273.312 
L 164.471812 78.862345 
L 162.857288 78.862345 
z
" clip-path="url(#p0b701abac2)" style="fill: #1f77b4"/>
   </g>
   <g id="patch_67">
    <path d="M 164.471812 273.312 
L 166.086336 273.312 
L 166.086336 88.329931 
L 164.471812 88.329931 
z
" clip-path="url(#p0b701abac2)" style="fill: #1f77b4"/>
   </g>
   <g id="patch_68">
    <path d="M 166.086336 273.312 
L 167.700861 273.312 
L 167.700861 56.285793 
L 166.086336 56.285793 
z
" clip-path="url(#p0b701abac2)" style="fill: #1f77b4"/>
   </g>
   <g id="patch_69">
    <path d="M 167.700861 273.312 
L 169.315385 273.312 
L 169.315385 87.601655 
L 167.700861 87.601655 
z
" clip-path="url(#p0b701abac2)" style="fill: #1f77b4"/>
   </g>
   <g id="patch_70">
    <path d="M 169.315385 273.312 
L 170.929909 273.312 
L 170.929909 45.361655 
L 169.315385 45.361655 
z
" clip-path="url(#p0b701abac2)" style="fill: #1f77b4"/>
   </g>
   <g id="patch_71">
    <path d="M 170.929909 273.312 
L 172.544433 273.312 
L 172.544433 76.677517 
L 170.929909 76.677517 
z
" clip-path="url(#p0b701abac2)" style="fill: #1f77b4"/>
   </g>
   <g id="patch_72">
    <path d="M 172.544433 273.312 
L 174.158957 273.312 
L 174.158957 70.85131 
L 172.544433 70.85131 
z
" clip-path="url(#p0b701abac2)" style="fill: #1f77b4"/>
   </g>
   <g id="patch_73">
    <path d="M 174.158957 273.312 
L 175.773482 273.312 
L 175.773482 51.916138 
L 174.158957 51.916138 
z
" clip-path="url(#p0b701abac2)" style="fill: #1f77b4"/>
   </g>
   <g id="patch_74">
    <path d="M 175.773482 273.312 
L 177.388006 273.312 
L 177.388006 66.481655 
L 175.773482 66.481655 
z
" clip-path="url(#p0b701abac2)" style="fill: #1f77b4"/>
   </g>
   <g id="patch_75">
    <path d="M 177.388006 273.312 
L 179.00253 273.312 
L 179.00253 63.568552 
L 177.388006 63.568552 
z
" clip-path="url(#p0b701abac2)" style="fill: #1f77b4"/>
   </g>
   <g id="patch_76">
    <path d="M 179.00253 273.312 
L 180.617054 273.312 
L 180.617054 57.014069 
L 179.00253 57.014069 
z
" clip-path="url(#p0b701abac2)" style="fill: #1f77b4"/>
   </g>
   <g id="patch_77">
    <path d="M 180.617054 273.312 
L 182.231579 273.312 
L 182.231579 56.285793 
L 180.617054 56.285793 
z
" clip-path="url(#p0b701abac2)" style="fill: #1f77b4"/>
   </g>
   <g id="patch_78">
    <path d="M 182.231579 273.312 
L 183.846103 273.312 
L 183.846103 56.285793 
L 182.231579 56.285793 
z
" clip-path="url(#p0b701abac2)" style="fill: #1f77b4"/>
   </g>
   <g id="patch_79">
    <path d="M 183.846103 273.312 
L 185.460627 273.312 
L 185.460627 55.557517 
L 183.846103 55.557517 
z
" clip-path="url(#p0b701abac2)" style="fill: #1f77b4"/>
   </g>
   <g id="patch_80">
    <path d="M 185.460627 273.312 
L 187.075151 273.312 
L 187.075151 67.938207 
L 185.460627 67.938207 
z
" clip-path="url(#p0b701abac2)" style="fill: #1f77b4"/>
   </g>
   <g id="patch_81">
    <path d="M 187.075151 273.312 
L 188.689675 273.312 
L 188.689675 54.100966 
L 187.075151 54.100966 
z
" clip-path="url(#p0b701abac2)" style="fill: #1f77b4"/>
   </g>
   <g id="patch_82">
    <path d="M 188.689675 273.312 
L 190.3042 273.312 
L 190.3042 48.274759 
L 188.689675 48.274759 
z
" clip-path="url(#p0b701abac2)" style="fill: #1f77b4"/>
   </g>
   <g id="patch_83">
    <path d="M 190.3042 273.312 
L 191.918724 273.312 
L 191.918724 50.459586 
L 190.3042 50.459586 
z
" clip-path="url(#p0b701abac2)" style="fill: #1f77b4"/>
   </g>
   <g id="patch_84">
    <path d="M 191.918724 273.312 
L 193.533248 273.312 
L 193.533248 42.448552 
L 191.918724 42.448552 
z
" clip-path="url(#p0b701abac2)" style="fill: #1f77b4"/>
   </g>
   <g id="patch_85">
    <path d="M 193.533248 273.312 
L 195.147772 273.312 
L 195.147772 56.285793 
L 193.533248 56.285793 
z
" clip-path="url(#p0b701abac2)" style="fill: #1f77b4"/>
   </g>
   <g id="patch_86">
    <path d="M 195.147772 273.312 
L 196.762297 273.312 
L 196.762297 56.285793 
L 195.147772 56.285793 
z
" clip-path="url(#p0b701abac2)" style="fill: #1f77b4"/>
   </g>
   <g id="patch_87">
    <path d="M 196.762297 273.312 
L 198.376821 273.312 
L 198.376821 67.938207 
L 196.762297 67.938207 
z
" clip-path="url(#p0b701abac2)" style="fill: #1f77b4"/>
   </g>
   <g id="patch_88">
    <path d="M 198.376821 273.312 
L 199.991345 273.312 
L 199.991345 75.949241 
L 198.376821 75.949241 
z
" clip-path="url(#p0b701abac2)" style="fill: #1f77b4"/>
   </g>
   <g id="patch_89">
    <path d="M 199.991345 273.312 
L 201.605869 273.312 
L 201.605869 38.807172 
L 199.991345 38.807172 
z
" clip-path="url(#p0b701abac2)" style="fill: #1f77b4"/>
   </g>
   <g id="patch_90">
    <path d="M 201.605869 273.312 
L 203.220393 273.312 
L 203.220393 41.720276 
L 201.605869 41.720276 
z
" clip-path="url(#p0b701abac2)" style="fill: #1f77b4"/>
   </g>
   <g id="patch_91">
    <path d="M 203.220393 273.312 
L 204.834918 273.312 
L 204.834918 49.73131 
L 203.220393 49.73131 
z
" clip-path="url(#p0b701abac2)" style="fill: #1f77b4"/>
   </g>
   <g id="patch_92">
    <path d="M 204.834918 273.312 
L 206.449442 273.312 
L 206.449442 49.73131 
L 204.834918 49.73131 
z
" clip-path="url(#p0b701abac2)" style="fill: #1f77b4"/>
   </g>
   <g id="patch_93">
    <path d="M 206.449442 273.312 
L 208.063966 273.312 
L 208.063966 54.829241 
L 206.449442 54.829241 
z
" clip-path="url(#p0b701abac2)" style="fill: #1f77b4"/>
   </g>
   <g id="patch_94">
    <path d="M 208.063966 273.312 
L 209.67849 273.312 
L 209.67849 30.067862 
L 208.063966 30.067862 
z
" clip-path="url(#p0b701abac2)" style="fill: #1f77b4"/>
   </g>
   <g id="patch_95">
    <path d="M 209.67849 273.312 
L 211.293015 273.312 
L 211.293015 71.579586 
L 209.67849 71.579586 
z
" clip-path="url(#p0b701abac2)" style="fill: #1f77b4"/>
   </g>
   <g id="patch_96">
    <path d="M 211.293015 273.312 
L 212.907539 273.312 
L 212.907539 55.557517 
L 211.293015 55.557517 
z
" clip-path="url(#p0b701abac2)" style="fill: #1f77b4"/>
   </g>
   <g id="patch_97">
    <path d="M 212.907539 273.312 
L 214.522063 273.312 
L 214.522063 30.067862 
L 212.907539 30.067862 
z
" clip-path="url(#p0b701abac2)" style="fill: #1f77b4"/>
   </g>
   <g id="patch_98">
    <path d="M 214.522063 273.312 
L 216.136587 273.312 
L 216.136587 57.014069 
L 214.522063 57.014069 
z
" clip-path="url(#p0b701abac2)" style="fill: #1f77b4"/>
   </g>
   <g id="patch_99">
    <path d="M 216.136587 273.312 
L 217.751111 273.312 
L 217.751111 51.187862 
L 216.136587 51.187862 
z
" clip-path="url(#p0b701abac2)" style="fill: #1f77b4"/>
   </g>
   <g id="patch_100">
    <path d="M 217.751111 273.312 
L 219.365636 273.312 
L 219.365636 46.818207 
L 217.751111 46.818207 
z
" clip-path="url(#p0b701abac2)" style="fill: #1f77b4"/>
   </g>
   <g id="patch_101">
    <path d="M 219.365636 273.312 
L 220.98016 273.312 
L 220.98016 59.198897 
L 219.365636 59.198897 
z
" clip-path="url(#p0b701abac2)" style="fill: #1f77b4"/>
   </g>
   <g id="patch_102">
    <path d="M 220.98016 273.312 
L 222.594684 273.312 
L 222.594684 65.753379 
L 220.98016 65.753379 
z
" clip-path="url(#p0b701abac2)" style="fill: #1f77b4"/>
   </g>
   <g id="patch_103">
    <path d="M 222.594684 273.312 
L 224.209208 273.312 
L 224.209208 39.535448 
L 222.594684 39.535448 
z
" clip-path="url(#p0b701abac2)" style="fill: #1f77b4"/>
   </g>
   <g id="patch_104">
    <path d="M 224.209208 273.312 
L 225.823732 273.312 
L 225.823732 43.176828 
L 224.209208 43.176828 
z
" clip-path="url(#p0b701abac2)" style="fill: #1f77b4"/>
   </g>
   <g id="patch_105">
    <path d="M 225.823732 273.312 
L 227.438257 273.312 
L 227.438257 71.579586 
L 225.823732 71.579586 
z
" clip-path="url(#p0b701abac2)" style="fill: #1f77b4"/>
   </g>
   <g id="patch_106">
    <path d="M 227.438257 273.312 
L 229.052781 273.312 
L 229.052781 32.980966 
L 227.438257 32.980966 
z
" clip-path="url(#p0b701abac2)" style="fill: #1f77b4"/>
   </g>
   <g id="patch_107">
    <path d="M 229.052781 273.312 
L 230.667305 273.312 
L 230.667305 19.872 
L 229.052781 19.872 
z
" clip-path="url(#p0b701abac2)" style="fill: #1f77b4"/>
   </g>
   <g id="patch_108">
    <path d="M 230.667305 273.312 
L 232.281829 273.312 
L 232.281829 78.134069 
L 230.667305 78.134069 
z
" clip-path="url(#p0b701abac2)" style="fill: #1f77b4"/>
   </g>
   <g id="patch_109">
    <path d="M 232.281829 273.312 
L 233.896354 273.312 
L 233.896354 48.274759 
L 232.281829 48.274759 
z
" clip-path="url(#p0b701abac2)" style="fill: #1f77b4"/>
   </g>
   <g id="patch_110">
    <path d="M 233.896354 273.312 
L 235.510878 273.312 
L 235.510878 71.579586 
L 233.896354 71.579586 
z
" clip-path="url(#p0b701abac2)" style="fill: #1f77b4"/>
   </g>
   <g id="patch_111">
    <path d="M 235.510878 273.312 
L 237.125402 273.312 
L 237.125402 25.698207 
L 235.510878 25.698207 
z
" clip-path="url(#p0b701abac2)" style="fill: #1f77b4"/>
   </g>
   <g id="patch_112">
    <path d="M 237.125402 273.312 
L 238.739926 273.312 
L 238.739926 48.274759 
L 237.125402 48.274759 
z
" clip-path="url(#p0b701abac2)" style="fill: #1f77b4"/>
   </g>
   <g id="patch_113">
    <path d="M 238.739926 273.312 
L 240.35445 273.312 
L 240.35445 27.154759 
L 238.739926 27.154759 
z
" clip-path="url(#p0b701abac2)" style="fill: #1f77b4"/>
   </g>
   <g id="patch_114">
    <path d="M 240.35445 273.312 
L 241.968975 273.312 
L 241.968975 62.112 
L 240.35445 62.112 
z
" clip-path="url(#p0b701abac2)" style="fill: #1f77b4"/>
   </g>
   <g id="patch_115">
    <path d="M 241.968975 273.312 
L 243.583499 273.312 
L 243.583499 51.916138 
L 241.968975 51.916138 
z
" clip-path="url(#p0b701abac2)" style="fill: #1f77b4"/>
   </g>
   <g id="patch_116">
    <path d="M 243.583499 273.312 
L 245.198023 273.312 
L 245.198023 57.014069 
L 243.583499 57.014069 
z
" clip-path="url(#p0b701abac2)" style="fill: #1f77b4"/>
   </g>
   <g id="patch_117">
    <path d="M 245.198023 273.312 
L 246.812547 273.312 
L 246.812547 55.557517 
L 245.198023 55.557517 
z
" clip-path="url(#p0b701abac2)" style="fill: #1f77b4"/>
   </g>
   <g id="patch_118">
    <path d="M 246.812547 273.312 
L 248.427072 273.312 
L 248.427072 27.154759 
L 246.812547 27.154759 
z
" clip-path="url(#p0b701abac2)" style="fill: #1f77b4"/>
   </g>
   <g id="patch_119">
    <path d="M 248.427072 273.312 
L 250.041596 273.312 
L 250.041596 69.394759 
L 248.427072 69.394759 
z
" clip-path="url(#p0b701abac2)" style="fill: #1f77b4"/>
   </g>
   <g id="patch_120">
    <path d="M 250.041596 273.312 
L 251.65612 273.312 
L 251.65612 47.546483 
L 250.041596 47.546483 
z
" clip-path="url(#p0b701abac2)" style="fill: #1f77b4"/>
   </g>
   <g id="patch_121">
    <path d="M 251.65612 273.312 
L 253.270644 273.312 
L 253.270644 69.394759 
L 251.65612 69.394759 
z
" clip-path="url(#p0b701abac2)" style="fill: #1f77b4"/>
   </g>
   <g id="patch_122">
    <path d="M 253.270644 273.312 
L 254.885168 273.312 
L 254.885168 35.165793 
L 253.270644 35.165793 
z
" clip-path="url(#p0b701abac2)" style="fill: #1f77b4"/>
   </g>
   <g id="patch_123">
    <path d="M 254.885168 273.312 
L 256.499693 273.312 
L 256.499693 50.459586 
L 254.885168 50.459586 
z
" clip-path="url(#p0b701abac2)" style="fill: #1f77b4"/>
   </g>
   <g id="patch_124">
    <path d="M 256.499693 273.312 
L 258.114217 273.312 
L 258.114217 61.383724 
L 256.499693 61.383724 
z
" clip-path="url(#p0b701abac2)" style="fill: #1f77b4"/>
   </g>
   <g id="patch_125">
    <path d="M 258.114217 273.312 
L 259.728741 273.312 
L 259.728741 54.829241 
L 258.114217 54.829241 
z
" clip-path="url(#p0b701abac2)" style="fill: #1f77b4"/>
   </g>
   <g id="patch_126">
    <path d="M 259.728741 273.312 
L 261.343265 273.312 
L 261.343265 57.014069 
L 259.728741 57.014069 
z
" clip-path="url(#p0b701abac2)" style="fill: #1f77b4"/>
   </g>
   <g id="patch_127">
    <path d="M 261.343265 273.312 
L 262.95779 273.312 
L 262.95779 36.622345 
L 261.343265 36.622345 
z
" clip-path="url(#p0b701abac2)" style="fill: #1f77b4"/>
   </g>
   <g id="patch_128">
    <path d="M 262.95779 273.312 
L 264.572314 273.312 
L 264.572314 73.764414 
L 262.95779 73.764414 
z
" clip-path="url(#p0b701abac2)" style="fill: #1f77b4"/>
   </g>
   <g id="patch_129">
    <path d="M 264.572314 273.312 
L 266.186838 273.312 
L 266.186838 58.470621 
L 264.572314 58.470621 
z
" clip-path="url(#p0b701abac2)" style="fill: #1f77b4"/>
   </g>
   <g id="patch_130">
    <path d="M 266.186838 273.312 
L 267.801362 273.312 
L 267.801362 89.786483 
L 266.186838 89.786483 
z
" clip-path="url(#p0b701abac2)" style="fill: #1f77b4"/>
   </g>
   <g id="patch_131">
    <path d="M 267.801362 273.312 
L 269.415886 273.312 
L 269.415886 60.655448 
L 267.801362 60.655448 
z
" clip-path="url(#p0b701abac2)" style="fill: #1f77b4"/>
   </g>
   <g id="patch_132">
    <path d="M 269.415886 273.312 
L 271.030411 273.312 
L 271.030411 73.036138 
L 269.415886 73.036138 
z
" clip-path="url(#p0b701abac2)" style="fill: #1f77b4"/>
   </g>
   <g id="patch_133">
    <path d="M 271.030411 273.312 
L 272.644935 273.312 
L 272.644935 73.036138 
L 271.030411 73.036138 
z
" clip-path="url(#p0b701abac2)" style="fill: #1f77b4"/>
   </g>
   <g id="patch_134">
    <path d="M 272.644935 273.312 
L 274.259459 273.312 
L 274.259459 90.514759 
L 272.644935 90.514759 
z
" clip-path="url(#p0b701abac2)" style="fill: #1f77b4"/>
   </g>
   <g id="patch_135">
    <path d="M 274.259459 273.312 
L 275.873983 273.312 
L 275.873983 61.383724 
L 274.259459 61.383724 
z
" clip-path="url(#p0b701abac2)" style="fill: #1f77b4"/>
   </g>
   <g id="patch_136">
    <path d="M 275.873983 273.312 
L 277.488508 273.312 
L 277.488508 70.123034 
L 275.873983 70.123034 
z
" clip-path="url(#p0b701abac2)" style="fill: #1f77b4"/>
   </g>
   <g id="patch_137">
    <path d="M 277.488508 273.312 
L 279.103032 273.312 
L 279.103032 68.666483 
L 277.488508 68.666483 
z
" clip-path="url(#p0b701abac2)" style="fill: #1f77b4"/>
   </g>
   <g id="patch_138">
    <path d="M 279.103032 273.312 
L 280.717556 273.312 
L 280.717556 88.329931 
L 279.103032 88.329931 
z
" clip-path="url(#p0b701abac2)" style="fill: #1f77b4"/>
   </g>
   <g id="patch_139">
    <path d="M 280.717556 273.312 
L 282.33208 273.312 
L 282.33208 99.254069 
L 280.717556 99.254069 
z
" clip-path="url(#p0b701abac2)" style="fill: #1f77b4"/>
   </g>
   <g id="patch_140">
    <path d="M 282.33208 273.312 
L 283.946604 273.312 
L 283.946604 71.579586 
L 282.33208 71.579586 
z
" clip-path="url(#p0b701abac2)" style="fill: #1f77b4"/>
   </g>
   <g id="patch_141">
    <path d="M 283.946604 273.312 
L 285.561129 273.312 
L 285.561129 99.982345 
L 283.946604 99.982345 
z
" clip-path="url(#p0b701abac2)" style="fill: #1f77b4"/>
   </g>
   <g id="patch_142">
    <path d="M 285.561129 273.312 
L 287.175653 273.312 
L 287.175653 82.503724 
L 285.561129 82.503724 
z
" clip-path="url(#p0b701abac2)" style="fill: #1f77b4"/>
   </g>
   <g id="patch_143">
    <path d="M 287.175653 273.312 
L 288.790177 273.312 
L 288.790177 78.134069 
L 287.175653 78.134069 
z
" clip-path="url(#p0b701abac2)" style="fill: #1f77b4"/>
   </g>
   <g id="patch_144">
    <path d="M 288.790177 273.312 
L 290.404701 273.312 
L 290.404701 87.601655 
L 288.790177 87.601655 
z
" clip-path="url(#p0b701abac2)" style="fill: #1f77b4"/>
   </g>
   <g id="patch_145">
    <path d="M 290.404701 273.312 
L 292.019226 273.312 
L 292.019226 112.363034 
L 290.404701 112.363034 
z
" clip-path="url(#p0b701abac2)" style="fill: #1f77b4"/>
   </g>
   <g id="patch_146">
    <path d="M 292.019226 273.312 
L 293.63375 273.312 
L 293.63375 66.481655 
L 292.019226 66.481655 
z
" clip-path="url(#p0b701abac2)" style="fill: #1f77b4"/>
   </g>
   <g id="patch_147">
    <path d="M 293.63375 273.312 
L 295.248274 273.312 
L 295.248274 112.363034 
L 293.63375 112.363034 
z
" clip-path="url(#p0b701abac2)" style="fill: #1f77b4"/>
   </g>
   <g id="patch_148">
    <path d="M 295.248274 273.312 
L 296.862798 273.312 
L 296.862798 113.09131 
L 295.248274 113.09131 
z
" clip-path="url(#p0b701abac2)" style="fill: #1f77b4"/>
   </g>
   <g id="patch_149">
    <path d="M 296.862798 273.312 
L 298.477322 273.312 
L 298.477322 101.438897 
L 296.862798 101.438897 
z
" clip-path="url(#p0b701abac2)" style="fill: #1f77b4"/>
   </g>
   <g id="patch_150">
    <path d="M 298.477322 273.312 
L 300.091847 273.312 
L 300.091847 98.525793 
L 298.477322 98.525793 
z
" clip-path="url(#p0b701abac2)" style="fill: #1f77b4"/>
   </g>
   <g id="patch_151">
    <path d="M 300.091847 273.312 
L 301.706371 273.312 
L 301.706371 129.113379 
L 300.091847 129.113379 
z
" clip-path="url(#p0b701abac2)" style="fill: #1f77b4"/>
   </g>
   <g id="patch_152">
    <path d="M 301.706371 273.312 
L 303.320895 273.312 
L 303.320895 104.352 
L 301.706371 104.352 
z
" clip-path="url(#p0b701abac2)" style="fill: #1f77b4"/>
   </g>
   <g id="patch_153">
    <path d="M 303.320895 273.312 
L 304.935419 273.312 
L 304.935419 112.363034 
L 303.320895 112.363034 
z
" clip-path="url(#p0b701abac2)" style="fill: #1f77b4"/>
   </g>
   <g id="patch_154">
    <path d="M 304.935419 273.312 
L 306.549944 273.312 
L 306.549944 120.374069 
L 304.935419 120.374069 
z
" clip-path="url(#p0b701abac2)" style="fill: #1f77b4"/>
   </g>
   <g id="patch_155">
    <path d="M 306.549944 273.312 
L 308.164468 273.312 
L 308.164468 133.483034 
L 306.549944 133.483034 
z
" clip-path="url(#p0b701abac2)" style="fill: #1f77b4"/>
   </g>
   <g id="patch_156">
    <path d="M 308.164468 273.312 
L 309.778992 273.312 
L 309.778992 118.189241 
L 308.164468 118.189241 
z
" clip-path="url(#p0b701abac2)" style="fill: #1f77b4"/>
   </g>
   <g id="patch_157">
    <path d="M 309.778992 273.312 
L 311.393516 273.312 
L 311.393516 140.037517 
L 309.778992 140.037517 
z
" clip-path="url(#p0b701abac2)" style="fill: #1f77b4"/>
   </g>
   <g id="patch_158">
    <path d="M 311.393516 273.312 
L 313.00804 273.312 
L 313.00804 119.645793 
L 311.393516 119.645793 
z
" clip-path="url(#p0b701abac2)" style="fill: #1f77b4"/>
   </g>
   <g id="patch_159">
    <path d="M 313.00804 273.312 
L 314.622565 273.312 
L 314.622565 131.298207 
L 313.00804 131.298207 
z
" clip-path="url(#p0b701abac2)" style="fill: #1f77b4"/>
   </g>
   <g id="patch_160">
    <path d="M 314.622565 273.312 
L 316.237089 273.312 
L 316.237089 136.396138 
L 314.622565 136.396138 
z
" clip-path="url(#p0b701abac2)" style="fill: #1f77b4"/>
   </g>
   <g id="patch_161">
    <path d="M 316.237089 273.312 
L 317.851613 273.312 
L 317.851613 140.765793 
L 316.237089 140.765793 
z
" clip-path="url(#p0b701abac2)" style="fill: #1f77b4"/>
   </g>
   <g id="patch_162">
    <path d="M 317.851613 273.312 
L 319.466137 273.312 
L 319.466137 138.580966 
L 317.851613 138.580966 
z
" clip-path="url(#p0b701abac2)" style="fill: #1f77b4"/>
   </g>
   <g id="patch_163">
    <path d="M 319.466137 273.312 
L 321.080661 273.312 
L 321.080661 152.418207 
L 319.466137 152.418207 
z
" clip-path="url(#p0b701abac2)" style="fill: #1f77b4"/>
   </g>
   <g id="patch_164">
    <path d="M 321.080661 273.312 
L 322.695186 273.312 
L 322.695186 155.33131 
L 321.080661 155.33131 
z
" clip-path="url(#p0b701abac2)" style="fill: #1f77b4"/>
   </g>
   <g id="patch_165">
    <path d="M 322.695186 273.312 
L 324.30971 273.312 
L 324.30971 154.603034 
L 322.695186 154.603034 
z
" clip-path="url(#p0b701abac2)" style="fill: #1f77b4"/>
   </g>
   <g id="patch_166">
    <path d="M 324.30971 273.312 
L 325.924234 273.312 
L 325.924234 156.787862 
L 324.30971 156.787862 
z
" clip-path="url(#p0b701abac2)" style="fill: #1f77b4"/>
   </g>
   <g id="patch_167">
    <path d="M 325.924234 273.312 
L 327.538758 273.312 
L 327.538758 162.614069 
L 325.924234 162.614069 
z
" clip-path="url(#p0b701abac2)" style="fill: #1f77b4"/>
   </g>
   <g id="patch_168">
    <path d="M 327.538758 273.312 
L 329.153283 273.312 
L 329.153283 162.614069 
L 327.538758 162.614069 
z
" clip-path="url(#p0b701abac2)" style="fill: #1f77b4"/>
   </g>
   <g id="patch_169">
    <path d="M 329.153283 273.312 
L 330.767807 273.312 
L 330.767807 161.885793 
L 329.153283 161.885793 
z
" clip-path="url(#p0b701abac2)" style="fill: #1f77b4"/>
   </g>
   <g id="patch_170">
    <path d="M 330.767807 273.312 
L 332.382331 273.312 
L 332.382331 158.244414 
L 330.767807 158.244414 
z
" clip-path="url(#p0b701abac2)" style="fill: #1f77b4"/>
   </g>
   <g id="patch_171">
    <path d="M 332.382331 273.312 
L 333.996855 273.312 
L 333.996855 156.787862 
L 332.382331 156.787862 
z
" clip-path="url(#p0b701abac2)" style="fill: #1f77b4"/>
   </g>
   <g id="patch_172">
    <path d="M 333.996855 273.312 
L 335.611379 273.312 
L 335.611379 171.353379 
L 333.996855 171.353379 
z
" clip-path="url(#p0b701abac2)" style="fill: #1f77b4"/>
   </g>
   <g id="patch_173">
    <path d="M 335.611379 273.312 
L 337.225904 273.312 
L 337.225904 177.179586 
L 335.611379 177.179586 
z
" clip-path="url(#p0b701abac2)" style="fill: #1f77b4"/>
   </g>
   <g id="patch_174">
    <path d="M 337.225904 273.312 
L 338.840428 273.312 
L 338.840428 179.364414 
L 337.225904 179.364414 
z
" clip-path="url(#p0b701abac2)" style="fill: #1f77b4"/>
   </g>
   <g id="patch_175">
    <path d="M 338.840428 273.312 
L 340.454952 273.312 
L 340.454952 172.081655 
L 338.840428 172.081655 
z
" clip-path="url(#p0b701abac2)" style="fill: #1f77b4"/>
   </g>
   <g id="patch_176">
    <path d="M 340.454952 273.312 
L 342.069476 273.312 
L 342.069476 186.647172 
L 340.454952 186.647172 
z
" clip-path="url(#p0b701abac2)" style="fill: #1f77b4"/>
   </g>
   <g id="patch_177">
    <path d="M 342.069476 273.312 
L 343.684001 273.312 
L 343.684001 185.190621 
L 342.069476 185.190621 
z
" clip-path="url(#p0b701abac2)" style="fill: #1f77b4"/>
   </g>
   <g id="patch_178">
    <path d="M 343.684001 273.312 
L 345.298525 273.312 
L 345.298525 183.734069 
L 343.684001 183.734069 
z
" clip-path="url(#p0b701abac2)" style="fill: #1f77b4"/>
   </g>
   <g id="patch_179">
    <path d="M 345.298525 273.312 
L 346.913049 273.312 
L 346.913049 193.929931 
L 345.298525 193.929931 
z
" clip-path="url(#p0b701abac2)" style="fill: #1f77b4"/>
   </g>
   <g id="patch_180">
    <path d="M 346.913049 273.312 
L 348.527573 273.312 
L 348.527573 185.918897 
L 346.913049 185.918897 
z
" clip-path="url(#p0b701abac2)" style="fill: #1f77b4"/>
   </g>
   <g id="patch_181">
    <path d="M 348.527573 273.312 
L 350.142097 273.312 
L 350.142097 195.386483 
L 348.527573 195.386483 
z
" clip-path="url(#p0b701abac2)" style="fill: #1f77b4"/>
   </g>
   <g id="patch_182">
    <path d="M 350.142097 273.312 
L 351.756622 273.312 
L 351.756622 207.038897 
L 350.142097 207.038897 
z
" clip-path="url(#p0b701abac2)" style="fill: #1f77b4"/>
   </g>
   <g id="patch_183">
    <path d="M 351.756622 273.312 
L 353.371146 273.312 
L 353.371146 204.125793 
L 351.756622 204.125793 
z
" clip-path="url(#p0b701abac2)" style="fill: #1f77b4"/>
   </g>
   <g id="patch_184">
    <path d="M 353.371146 273.312 
L 354.98567 273.312 
L 354.98567 202.669241 
L 353.371146 202.669241 
z
" clip-path="url(#p0b701abac2)" style="fill: #1f77b4"/>
   </g>
   <g id="patch_185">
    <path d="M 354.98567 273.312 
L 356.600194 273.312 
L 356.600194 195.386483 
L 354.98567 195.386483 
z
" clip-path="url(#p0b701abac2)" style="fill: #1f77b4"/>
   </g>
   <g id="patch_186">
    <path d="M 356.600194 273.312 
L 358.214719 273.312 
L 358.214719 220.147862 
L 356.600194 220.147862 
z
" clip-path="url(#p0b701abac2)" style="fill: #1f77b4"/>
   </g>
   <g id="patch_187">
    <path d="M 358.214719 273.312 
L 359.829243 273.312 
L 359.829243 222.33269 
L 358.214719 222.33269 
z
" clip-path="url(#p0b701abac2)" style="fill: #1f77b4"/>
   </g>
   <g id="patch_188">
    <path d="M 359.829243 273.312 
L 361.443767 273.312 
L 361.443767 217.963034 
L 359.829243 217.963034 
z
" clip-path="url(#p0b701abac2)" style="fill: #1f77b4"/>
   </g>
   <g id="patch_189">
    <path d="M 361.443767 273.312 
L 363.058291 273.312 
L 363.058291 220.876138 
L 361.443767 220.876138 
z
" clip-path="url(#p0b701abac2)" style="fill: #1f77b4"/>
   </g>
   <g id="patch_190">
    <path d="M 363.058291 273.312 
L 364.672815 273.312 
L 364.672815 230.343724 
L 363.058291 230.343724 
z
" clip-path="url(#p0b701abac2)" style="fill: #1f77b4"/>
   </g>
   <g id="patch_191">
    <path d="M 364.672815 273.312 
L 366.28734 273.312 
L 366.28734 228.158897 
L 364.672815 228.158897 
z
" clip-path="url(#p0b701abac2)" style="fill: #1f77b4"/>
   </g>
   <g id="patch_192">
    <path d="M 366.28734 273.312 
L 367.901864 273.312 
L 367.901864 235.441655 
L 366.28734 235.441655 
z
" clip-path="url(#p0b701abac2)" style="fill: #1f77b4"/>
   </g>
   <g id="patch_193">
    <path d="M 367.901864 273.312 
L 369.516388 273.312 
L 369.516388 235.441655 
L 367.901864 235.441655 
z
" clip-path="url(#p0b701abac2)" style="fill: #1f77b4"/>
   </g>
   <g id="patch_194">
    <path d="M 369.516388 273.312 
L 371.130912 273.312 
L 371.130912 244.180966 
L 369.516388 244.180966 
z
" clip-path="url(#p0b701abac2)" style="fill: #1f77b4"/>
   </g>
   <g id="patch_195">
    <path d="M 371.130912 273.312 
L 372.745437 273.312 
L 372.745437 247.094069 
L 371.130912 247.094069 
z
" clip-path="url(#p0b701abac2)" style="fill: #1f77b4"/>
   </g>
   <g id="patch_196">
    <path d="M 372.745437 273.312 
L 374.359961 273.312 
L 374.359961 255.105103 
L 372.745437 255.105103 
z
" clip-path="url(#p0b701abac2)" style="fill: #1f77b4"/>
   </g>
   <g id="patch_197">
    <path d="M 374.359961 273.312 
L 375.974485 273.312 
L 375.974485 260.93131 
L 374.359961 260.93131 
z
" clip-path="url(#p0b701abac2)" style="fill: #1f77b4"/>
   </g>
   <g id="patch_198">
    <path d="M 375.974485 273.312 
L 377.589009 273.312 
L 377.589009 253.648552 
L 375.974485 253.648552 
z
" clip-path="url(#p0b701abac2)" style="fill: #1f77b4"/>
   </g>
   <g id="patch_199">
    <path d="M 377.589009 273.312 
L 379.203533 273.312 
L 379.203533 257.289931 
L 377.589009 257.289931 
z
" clip-path="url(#p0b701abac2)" style="fill: #1f77b4"/>
   </g>
   <g id="patch_200">
    <path d="M 379.203533 273.312 
L 380.818058 273.312 
L 380.818058 257.289931 
L 379.203533 257.289931 
z
" clip-path="url(#p0b701abac2)" style="fill: #1f77b4"/>
   </g>
   <g id="patch_201">
    <path d="M 380.818058 273.312 
L 382.432582 273.312 
L 382.432582 268.214069 
L 380.818058 268.214069 
z
" clip-path="url(#p0b701abac2)" style="fill: #1f77b4"/>
   </g>
   <g id="patch_202">
    <path d="M 382.432582 273.312 
L 384.047106 273.312 
L 384.047106 268.942345 
L 382.432582 268.942345 
z
" clip-path="url(#p0b701abac2)" style="fill: #1f77b4"/>
   </g>
   <g id="matplotlib.axis_1">
    <g id="xtick_1">
     <g id="line2d_1">
      <defs>
       <path id="mb3838961ec" d="M 0 0 
L 0 3.5 
" style="stroke: #000000; stroke-width: 0.8"/>
      </defs>
      <g>
       <use xlink:href="#mb3838961ec" x="60.013977" y="273.312" style="stroke: #000000; stroke-width: 0.8"/>
      </g>
     </g>
     <g id="text_1">
      <!-- 0.0 -->
      <g transform="translate(52.062415 287.910437)scale(0.1 -0.1)">
       <defs>
        <path id="DejaVuSans-30" d="M 2034 4250 
Q 1547 4250 1301 3770 
Q 1056 3291 1056 2328 
Q 1056 1369 1301 889 
Q 1547 409 2034 409 
Q 2525 409 2770 889 
Q 3016 1369 3016 2328 
Q 3016 3291 2770 3770 
Q 2525 4250 2034 4250 
z
M 2034 4750 
Q 2819 4750 3233 4129 
Q 3647 3509 3647 2328 
Q 3647 1150 3233 529 
Q 2819 -91 2034 -91 
Q 1250 -91 836 529 
Q 422 1150 422 2328 
Q 422 3509 836 4129 
Q 1250 4750 2034 4750 
z
" transform="scale(0.015625)"/>
        <path id="DejaVuSans-2e" d="M 684 794 
L 1344 794 
L 1344 0 
L 684 0 
L 684 794 
z
" transform="scale(0.015625)"/>
       </defs>
       <use xlink:href="#DejaVuSans-30"/>
       <use xlink:href="#DejaVuSans-2e" x="63.623047"/>
       <use xlink:href="#DejaVuSans-30" x="95.410156"/>
      </g>
     </g>
    </g>
    <g id="xtick_2">
     <g id="line2d_2">
      <g>
       <use xlink:href="#mb3838961ec" x="101.350278" y="273.312" style="stroke: #000000; stroke-width: 0.8"/>
      </g>
     </g>
     <g id="text_2">
      <!-- 0.2 -->
      <g transform="translate(93.398715 287.910437)scale(0.1 -0.1)">
       <defs>
        <path id="DejaVuSans-32" d="M 1228 531 
L 3431 531 
L 3431 0 
L 469 0 
L 469 531 
Q 828 903 1448 1529 
Q 2069 2156 2228 2338 
Q 2531 2678 2651 2914 
Q 2772 3150 2772 3378 
Q 2772 3750 2511 3984 
Q 2250 4219 1831 4219 
Q 1534 4219 1204 4116 
Q 875 4013 500 3803 
L 500 4441 
Q 881 4594 1212 4672 
Q 1544 4750 1819 4750 
Q 2544 4750 2975 4387 
Q 3406 4025 3406 3419 
Q 3406 3131 3298 2873 
Q 3191 2616 2906 2266 
Q 2828 2175 2409 1742 
Q 1991 1309 1228 531 
z
" transform="scale(0.015625)"/>
       </defs>
       <use xlink:href="#DejaVuSans-30"/>
       <use xlink:href="#DejaVuSans-2e" x="63.623047"/>
       <use xlink:href="#DejaVuSans-32" x="95.410156"/>
      </g>
     </g>
    </g>
    <g id="xtick_3">
     <g id="line2d_3">
      <g>
       <use xlink:href="#mb3838961ec" x="142.686578" y="273.312" style="stroke: #000000; stroke-width: 0.8"/>
      </g>
     </g>
     <g id="text_3">
      <!-- 0.4 -->
      <g transform="translate(134.735016 287.910437)scale(0.1 -0.1)">
       <defs>
        <path id="DejaVuSans-34" d="M 2419 4116 
L 825 1625 
L 2419 1625 
L 2419 4116 
z
M 2253 4666 
L 3047 4666 
L 3047 1625 
L 3713 1625 
L 3713 1100 
L 3047 1100 
L 3047 0 
L 2419 0 
L 2419 1100 
L 313 1100 
L 313 1709 
L 2253 4666 
z
" transform="scale(0.015625)"/>
       </defs>
       <use xlink:href="#DejaVuSans-30"/>
       <use xlink:href="#DejaVuSans-2e" x="63.623047"/>
       <use xlink:href="#DejaVuSans-34" x="95.410156"/>
      </g>
     </g>
    </g>
    <g id="xtick_4">
     <g id="line2d_4">
      <g>
       <use xlink:href="#mb3838961ec" x="184.022879" y="273.312" style="stroke: #000000; stroke-width: 0.8"/>
      </g>
     </g>
     <g id="text_4">
      <!-- 0.6 -->
      <g transform="translate(176.071316 287.910437)scale(0.1 -0.1)">
       <defs>
        <path id="DejaVuSans-36" d="M 2113 2584 
Q 1688 2584 1439 2293 
Q 1191 2003 1191 1497 
Q 1191 994 1439 701 
Q 1688 409 2113 409 
Q 2538 409 2786 701 
Q 3034 994 3034 1497 
Q 3034 2003 2786 2293 
Q 2538 2584 2113 2584 
z
M 3366 4563 
L 3366 3988 
Q 3128 4100 2886 4159 
Q 2644 4219 2406 4219 
Q 1781 4219 1451 3797 
Q 1122 3375 1075 2522 
Q 1259 2794 1537 2939 
Q 1816 3084 2150 3084 
Q 2853 3084 3261 2657 
Q 3669 2231 3669 1497 
Q 3669 778 3244 343 
Q 2819 -91 2113 -91 
Q 1303 -91 875 529 
Q 447 1150 447 2328 
Q 447 3434 972 4092 
Q 1497 4750 2381 4750 
Q 2619 4750 2861 4703 
Q 3103 4656 3366 4563 
z
" transform="scale(0.015625)"/>
       </defs>
       <use xlink:href="#DejaVuSans-30"/>
       <use xlink:href="#DejaVuSans-2e" x="63.623047"/>
       <use xlink:href="#DejaVuSans-36" x="95.410156"/>
      </g>
     </g>
    </g>
    <g id="xtick_5">
     <g id="line2d_5">
      <g>
       <use xlink:href="#mb3838961ec" x="225.35918" y="273.312" style="stroke: #000000; stroke-width: 0.8"/>
      </g>
     </g>
     <g id="text_5">
      <!-- 0.8 -->
      <g transform="translate(217.407617 287.910437)scale(0.1 -0.1)">
       <defs>
        <path id="DejaVuSans-38" d="M 2034 2216 
Q 1584 2216 1326 1975 
Q 1069 1734 1069 1313 
Q 1069 891 1326 650 
Q 1584 409 2034 409 
Q 2484 409 2743 651 
Q 3003 894 3003 1313 
Q 3003 1734 2745 1975 
Q 2488 2216 2034 2216 
z
M 1403 2484 
Q 997 2584 770 2862 
Q 544 3141 544 3541 
Q 544 4100 942 4425 
Q 1341 4750 2034 4750 
Q 2731 4750 3128 4425 
Q 3525 4100 3525 3541 
Q 3525 3141 3298 2862 
Q 3072 2584 2669 2484 
Q 3125 2378 3379 2068 
Q 3634 1759 3634 1313 
Q 3634 634 3220 271 
Q 2806 -91 2034 -91 
Q 1263 -91 848 271 
Q 434 634 434 1313 
Q 434 1759 690 2068 
Q 947 2378 1403 2484 
z
M 1172 3481 
Q 1172 3119 1398 2916 
Q 1625 2713 2034 2713 
Q 2441 2713 2670 2916 
Q 2900 3119 2900 3481 
Q 2900 3844 2670 4047 
Q 2441 4250 2034 4250 
Q 1625 4250 1398 4047 
Q 1172 3844 1172 3481 
z
" transform="scale(0.015625)"/>
       </defs>
       <use xlink:href="#DejaVuSans-30"/>
       <use xlink:href="#DejaVuSans-2e" x="63.623047"/>
       <use xlink:href="#DejaVuSans-38" x="95.410156"/>
      </g>
     </g>
    </g>
    <g id="xtick_6">
     <g id="line2d_6">
      <g>
       <use xlink:href="#mb3838961ec" x="266.69548" y="273.312" style="stroke: #000000; stroke-width: 0.8"/>
      </g>
     </g>
     <g id="text_6">
      <!-- 1.0 -->
      <g transform="translate(258.743918 287.910437)scale(0.1 -0.1)">
       <defs>
        <path id="DejaVuSans-31" d="M 794 531 
L 1825 531 
L 1825 4091 
L 703 3866 
L 703 4441 
L 1819 4666 
L 2450 4666 
L 2450 531 
L 3481 531 
L 3481 0 
L 794 0 
L 794 531 
z
" transform="scale(0.015625)"/>
       </defs>
       <use xlink:href="#DejaVuSans-31"/>
       <use xlink:href="#DejaVuSans-2e" x="63.623047"/>
       <use xlink:href="#DejaVuSans-30" x="95.410156"/>
      </g>
     </g>
    </g>
    <g id="xtick_7">
     <g id="line2d_7">
      <g>
       <use xlink:href="#mb3838961ec" x="308.031781" y="273.312" style="stroke: #000000; stroke-width: 0.8"/>
      </g>
     </g>
     <g id="text_7">
      <!-- 1.2 -->
      <g transform="translate(300.080218 287.910437)scale(0.1 -0.1)">
       <use xlink:href="#DejaVuSans-31"/>
       <use xlink:href="#DejaVuSans-2e" x="63.623047"/>
       <use xlink:href="#DejaVuSans-32" x="95.410156"/>
      </g>
     </g>
    </g>
    <g id="xtick_8">
     <g id="line2d_8">
      <g>
       <use xlink:href="#mb3838961ec" x="349.368081" y="273.312" style="stroke: #000000; stroke-width: 0.8"/>
      </g>
     </g>
     <g id="text_8">
      <!-- 1.4 -->
      <g transform="translate(341.416519 287.910437)scale(0.1 -0.1)">
       <use xlink:href="#DejaVuSans-31"/>
       <use xlink:href="#DejaVuSans-2e" x="63.623047"/>
       <use xlink:href="#DejaVuSans-34" x="95.410156"/>
      </g>
     </g>
    </g>
    <g id="xtick_9">
     <g id="line2d_9">
      <g>
       <use xlink:href="#mb3838961ec" x="390.704382" y="273.312" style="stroke: #000000; stroke-width: 0.8"/>
      </g>
     </g>
     <g id="text_9">
      <!-- 1.6 -->
      <g transform="translate(382.752819 287.910437)scale(0.1 -0.1)">
       <use xlink:href="#DejaVuSans-31"/>
       <use xlink:href="#DejaVuSans-2e" x="63.623047"/>
       <use xlink:href="#DejaVuSans-36" x="95.410156"/>
      </g>
     </g>
    </g>
    <g id="text_10">
     <!-- Angle with normal (rad) -->
     <g transform="translate(163.023281 301.588562)scale(0.1 -0.1)">
      <defs>
       <path id="DejaVuSans-41" d="M 2188 4044 
L 1331 1722 
L 3047 1722 
L 2188 4044 
z
M 1831 4666 
L 2547 4666 
L 4325 0 
L 3669 0 
L 3244 1197 
L 1141 1197 
L 716 0 
L 50 0 
L 1831 4666 
z
" transform="scale(0.015625)"/>
       <path id="DejaVuSans-6e" d="M 3513 2113 
L 3513 0 
L 2938 0 
L 2938 2094 
Q 2938 2591 2744 2837 
Q 2550 3084 2163 3084 
Q 1697 3084 1428 2787 
Q 1159 2491 1159 1978 
L 1159 0 
L 581 0 
L 581 3500 
L 1159 3500 
L 1159 2956 
Q 1366 3272 1645 3428 
Q 1925 3584 2291 3584 
Q 2894 3584 3203 3211 
Q 3513 2838 3513 2113 
z
" transform="scale(0.015625)"/>
       <path id="DejaVuSans-67" d="M 2906 1791 
Q 2906 2416 2648 2759 
Q 2391 3103 1925 3103 
Q 1463 3103 1205 2759 
Q 947 2416 947 1791 
Q 947 1169 1205 825 
Q 1463 481 1925 481 
Q 2391 481 2648 825 
Q 2906 1169 2906 1791 
z
M 3481 434 
Q 3481 -459 3084 -895 
Q 2688 -1331 1869 -1331 
Q 1566 -1331 1297 -1286 
Q 1028 -1241 775 -1147 
L 775 -588 
Q 1028 -725 1275 -790 
Q 1522 -856 1778 -856 
Q 2344 -856 2625 -561 
Q 2906 -266 2906 331 
L 2906 616 
Q 2728 306 2450 153 
Q 2172 0 1784 0 
Q 1141 0 747 490 
Q 353 981 353 1791 
Q 353 2603 747 3093 
Q 1141 3584 1784 3584 
Q 2172 3584 2450 3431 
Q 2728 3278 2906 2969 
L 2906 3500 
L 3481 3500 
L 3481 434 
z
" transform="scale(0.015625)"/>
       <path id="DejaVuSans-6c" d="M 603 4863 
L 1178 4863 
L 1178 0 
L 603 0 
L 603 4863 
z
" transform="scale(0.015625)"/>
       <path id="DejaVuSans-65" d="M 3597 1894 
L 3597 1613 
L 953 1613 
Q 991 1019 1311 708 
Q 1631 397 2203 397 
Q 2534 397 2845 478 
Q 3156 559 3463 722 
L 3463 178 
Q 3153 47 2828 -22 
Q 2503 -91 2169 -91 
Q 1331 -91 842 396 
Q 353 884 353 1716 
Q 353 2575 817 3079 
Q 1281 3584 2069 3584 
Q 2775 3584 3186 3129 
Q 3597 2675 3597 1894 
z
M 3022 2063 
Q 3016 2534 2758 2815 
Q 2500 3097 2075 3097 
Q 1594 3097 1305 2825 
Q 1016 2553 972 2059 
L 3022 2063 
z
" transform="scale(0.015625)"/>
       <path id="DejaVuSans-20" transform="scale(0.015625)"/>
       <path id="DejaVuSans-77" d="M 269 3500 
L 844 3500 
L 1563 769 
L 2278 3500 
L 2956 3500 
L 3675 769 
L 4391 3500 
L 4966 3500 
L 4050 0 
L 3372 0 
L 2619 2869 
L 1863 0 
L 1184 0 
L 269 3500 
z
" transform="scale(0.015625)"/>
       <path id="DejaVuSans-69" d="M 603 3500 
L 1178 3500 
L 1178 0 
L 603 0 
L 603 3500 
z
M 603 4863 
L 1178 4863 
L 1178 4134 
L 603 4134 
L 603 4863 
z
" transform="scale(0.015625)"/>
       <path id="DejaVuSans-74" d="M 1172 4494 
L 1172 3500 
L 2356 3500 
L 2356 3053 
L 1172 3053 
L 1172 1153 
Q 1172 725 1289 603 
Q 1406 481 1766 481 
L 2356 481 
L 2356 0 
L 1766 0 
Q 1100 0 847 248 
Q 594 497 594 1153 
L 594 3053 
L 172 3053 
L 172 3500 
L 594 3500 
L 594 4494 
L 1172 4494 
z
" transform="scale(0.015625)"/>
       <path id="DejaVuSans-68" d="M 3513 2113 
L 3513 0 
L 2938 0 
L 2938 2094 
Q 2938 2591 2744 2837 
Q 2550 3084 2163 3084 
Q 1697 3084 1428 2787 
Q 1159 2491 1159 1978 
L 1159 0 
L 581 0 
L 581 4863 
L 1159 4863 
L 1159 2956 
Q 1366 3272 1645 3428 
Q 1925 3584 2291 3584 
Q 2894 3584 3203 3211 
Q 3513 2838 3513 2113 
z
" transform="scale(0.015625)"/>
       <path id="DejaVuSans-6f" d="M 1959 3097 
Q 1497 3097 1228 2736 
Q 959 2375 959 1747 
Q 959 1119 1226 758 
Q 1494 397 1959 397 
Q 2419 397 2687 759 
Q 2956 1122 2956 1747 
Q 2956 2369 2687 2733 
Q 2419 3097 1959 3097 
z
M 1959 3584 
Q 2709 3584 3137 3096 
Q 3566 2609 3566 1747 
Q 3566 888 3137 398 
Q 2709 -91 1959 -91 
Q 1206 -91 779 398 
Q 353 888 353 1747 
Q 353 2609 779 3096 
Q 1206 3584 1959 3584 
z
" transform="scale(0.015625)"/>
       <path id="DejaVuSans-72" d="M 2631 2963 
Q 2534 3019 2420 3045 
Q 2306 3072 2169 3072 
Q 1681 3072 1420 2755 
Q 1159 2438 1159 1844 
L 1159 0 
L 581 0 
L 581 3500 
L 1159 3500 
L 1159 2956 
Q 1341 3275 1631 3429 
Q 1922 3584 2338 3584 
Q 2397 3584 2469 3576 
Q 2541 3569 2628 3553 
L 2631 2963 
z
" transform="scale(0.015625)"/>
       <path id="DejaVuSans-6d" d="M 3328 2828 
Q 3544 3216 3844 3400 
Q 4144 3584 4550 3584 
Q 5097 3584 5394 3201 
Q 5691 2819 5691 2113 
L 5691 0 
L 5113 0 
L 5113 2094 
Q 5113 2597 4934 2840 
Q 4756 3084 4391 3084 
Q 3944 3084 3684 2787 
Q 3425 2491 3425 1978 
L 3425 0 
L 2847 0 
L 2847 2094 
Q 2847 2600 2669 2842 
Q 2491 3084 2119 3084 
Q 1678 3084 1418 2786 
Q 1159 2488 1159 1978 
L 1159 0 
L 581 0 
L 581 3500 
L 1159 3500 
L 1159 2956 
Q 1356 3278 1631 3431 
Q 1906 3584 2284 3584 
Q 2666 3584 2933 3390 
Q 3200 3197 3328 2828 
z
" transform="scale(0.015625)"/>
       <path id="DejaVuSans-61" d="M 2194 1759 
Q 1497 1759 1228 1600 
Q 959 1441 959 1056 
Q 959 750 1161 570 
Q 1363 391 1709 391 
Q 2188 391 2477 730 
Q 2766 1069 2766 1631 
L 2766 1759 
L 2194 1759 
z
M 3341 1997 
L 3341 0 
L 2766 0 
L 2766 531 
Q 2569 213 2275 61 
Q 1981 -91 1556 -91 
Q 1019 -91 701 211 
Q 384 513 384 1019 
Q 384 1609 779 1909 
Q 1175 2209 1959 2209 
L 2766 2209 
L 2766 2266 
Q 2766 2663 2505 2880 
Q 2244 3097 1772 3097 
Q 1472 3097 1187 3025 
Q 903 2953 641 2809 
L 641 3341 
Q 956 3463 1253 3523 
Q 1550 3584 1831 3584 
Q 2591 3584 2966 3190 
Q 3341 2797 3341 1997 
z
" transform="scale(0.015625)"/>
       <path id="DejaVuSans-28" d="M 1984 4856 
Q 1566 4138 1362 3434 
Q 1159 2731 1159 2009 
Q 1159 1288 1364 580 
Q 1569 -128 1984 -844 
L 1484 -844 
Q 1016 -109 783 600 
Q 550 1309 550 2009 
Q 550 2706 781 3412 
Q 1013 4119 1484 4856 
L 1984 4856 
z
" transform="scale(0.015625)"/>
       <path id="DejaVuSans-64" d="M 2906 2969 
L 2906 4863 
L 3481 4863 
L 3481 0 
L 2906 0 
L 2906 525 
Q 2725 213 2448 61 
Q 2172 -91 1784 -91 
Q 1150 -91 751 415 
Q 353 922 353 1747 
Q 353 2572 751 3078 
Q 1150 3584 1784 3584 
Q 2172 3584 2448 3432 
Q 2725 3281 2906 2969 
z
M 947 1747 
Q 947 1113 1208 752 
Q 1469 391 1925 391 
Q 2381 391 2643 752 
Q 2906 1113 2906 1747 
Q 2906 2381 2643 2742 
Q 2381 3103 1925 3103 
Q 1469 3103 1208 2742 
Q 947 2381 947 1747 
z
" transform="scale(0.015625)"/>
       <path id="DejaVuSans-29" d="M 513 4856 
L 1013 4856 
Q 1481 4119 1714 3412 
Q 1947 2706 1947 2009 
Q 1947 1309 1714 600 
Q 1481 -109 1013 -844 
L 513 -844 
Q 928 -128 1133 580 
Q 1338 1288 1338 2009 
Q 1338 2731 1133 3434 
Q 928 4138 513 4856 
z
" transform="scale(0.015625)"/>
      </defs>
      <use xlink:href="#DejaVuSans-41"/>
      <use xlink:href="#DejaVuSans-6e" x="68.408203"/>
      <use xlink:href="#DejaVuSans-67" x="131.787109"/>
      <use xlink:href="#DejaVuSans-6c" x="195.263672"/>
      <use xlink:href="#DejaVuSans-65" x="223.046875"/>
      <use xlink:href="#DejaVuSans-20" x="284.570312"/>
      <use xlink:href="#DejaVuSans-77" x="316.357422"/>
      <use xlink:href="#DejaVuSans-69" x="398.144531"/>
      <use xlink:href="#DejaVuSans-74" x="425.927734"/>
      <use xlink:href="#DejaVuSans-68" x="465.136719"/>
      <use xlink:href="#DejaVuSans-20" x="528.515625"/>
      <use xlink:href="#DejaVuSans-6e" x="560.302734"/>
      <use xlink:href="#DejaVuSans-6f" x="623.681641"/>
      <use xlink:href="#DejaVuSans-72" x="684.863281"/>
      <use xlink:href="#DejaVuSans-6d" x="724.226562"/>
      <use xlink:href="#DejaVuSans-61" x="821.638672"/>
      <use xlink:href="#DejaVuSans-6c" x="882.917969"/>
      <use xlink:href="#DejaVuSans-20" x="910.701172"/>
      <use xlink:href="#DejaVuSans-28" x="942.488281"/>
      <use xlink:href="#DejaVuSans-72" x="981.501953"/>
      <use xlink:href="#DejaVuSans-61" x="1022.615234"/>
      <use xlink:href="#DejaVuSans-64" x="1083.894531"/>
      <use xlink:href="#DejaVuSans-29" x="1147.371094"/>
     </g>
    </g>
   </g>
   <g id="matplotlib.axis_2">
    <g id="ytick_1">
     <g id="line2d_10">
      <defs>
       <path id="m35d87cb6b3" d="M 0 0 
L -3.5 0 
" style="stroke: #000000; stroke-width: 0.8"/>
      </defs>
      <g>
       <use xlink:href="#m35d87cb6b3" x="43.78125" y="273.312" style="stroke: #000000; stroke-width: 0.8"/>
      </g>
     </g>
     <g id="text_11">
      <!-- 0.0 -->
      <g transform="translate(20.878125 277.111219)scale(0.1 -0.1)">
       <use xlink:href="#DejaVuSans-30"/>
       <use xlink:href="#DejaVuSans-2e" x="63.623047"/>
       <use xlink:href="#DejaVuSans-30" x="95.410156"/>
      </g>
     </g>
    </g>
    <g id="ytick_2">
     <g id="line2d_11">
      <g>
       <use xlink:href="#m35d87cb6b3" x="43.78125" y="227.799692" style="stroke: #000000; stroke-width: 0.8"/>
      </g>
     </g>
     <g id="text_12">
      <!-- 0.2 -->
      <g transform="translate(20.878125 231.598911)scale(0.1 -0.1)">
       <use xlink:href="#DejaVuSans-30"/>
       <use xlink:href="#DejaVuSans-2e" x="63.623047"/>
       <use xlink:href="#DejaVuSans-32" x="95.410156"/>
      </g>
     </g>
    </g>
    <g id="ytick_3">
     <g id="line2d_12">
      <g>
       <use xlink:href="#m35d87cb6b3" x="43.78125" y="182.287385" style="stroke: #000000; stroke-width: 0.8"/>
      </g>
     </g>
     <g id="text_13">
      <!-- 0.4 -->
      <g transform="translate(20.878125 186.086603)scale(0.1 -0.1)">
       <use xlink:href="#DejaVuSans-30"/>
       <use xlink:href="#DejaVuSans-2e" x="63.623047"/>
       <use xlink:href="#DejaVuSans-34" x="95.410156"/>
      </g>
     </g>
    </g>
    <g id="ytick_4">
     <g id="line2d_13">
      <g>
       <use xlink:href="#m35d87cb6b3" x="43.78125" y="136.775077" style="stroke: #000000; stroke-width: 0.8"/>
      </g>
     </g>
     <g id="text_14">
      <!-- 0.6 -->
      <g transform="translate(20.878125 140.574296)scale(0.1 -0.1)">
       <use xlink:href="#DejaVuSans-30"/>
       <use xlink:href="#DejaVuSans-2e" x="63.623047"/>
       <use xlink:href="#DejaVuSans-36" x="95.410156"/>
      </g>
     </g>
    </g>
    <g id="ytick_5">
     <g id="line2d_14">
      <g>
       <use xlink:href="#m35d87cb6b3" x="43.78125" y="91.262769" style="stroke: #000000; stroke-width: 0.8"/>
      </g>
     </g>
     <g id="text_15">
      <!-- 0.8 -->
      <g transform="translate(20.878125 95.061988)scale(0.1 -0.1)">
       <use xlink:href="#DejaVuSans-30"/>
       <use xlink:href="#DejaVuSans-2e" x="63.623047"/>
       <use xlink:href="#DejaVuSans-38" x="95.410156"/>
      </g>
     </g>
    </g>
    <g id="ytick_6">
     <g id="line2d_15">
      <g>
       <use xlink:href="#m35d87cb6b3" x="43.78125" y="45.750462" style="stroke: #000000; stroke-width: 0.8"/>
      </g>
     </g>
     <g id="text_16">
      <!-- 1.0 -->
      <g transform="translate(20.878125 49.54968)scale(0.1 -0.1)">
       <use xlink:href="#DejaVuSans-31"/>
       <use xlink:href="#DejaVuSans-2e" x="63.623047"/>
       <use xlink:href="#DejaVuSans-30" x="95.410156"/>
      </g>
     </g>
    </g>
    <g id="text_17">
     <!-- Probability density -->
     <g transform="translate(14.798438 186.606781)rotate(-90)scale(0.1 -0.1)">
      <defs>
       <path id="DejaVuSans-50" d="M 1259 4147 
L 1259 2394 
L 2053 2394 
Q 2494 2394 2734 2622 
Q 2975 2850 2975 3272 
Q 2975 3691 2734 3919 
Q 2494 4147 2053 4147 
L 1259 4147 
z
M 628 4666 
L 2053 4666 
Q 2838 4666 3239 4311 
Q 3641 3956 3641 3272 
Q 3641 2581 3239 2228 
Q 2838 1875 2053 1875 
L 1259 1875 
L 1259 0 
L 628 0 
L 628 4666 
z
" transform="scale(0.015625)"/>
       <path id="DejaVuSans-62" d="M 3116 1747 
Q 3116 2381 2855 2742 
Q 2594 3103 2138 3103 
Q 1681 3103 1420 2742 
Q 1159 2381 1159 1747 
Q 1159 1113 1420 752 
Q 1681 391 2138 391 
Q 2594 391 2855 752 
Q 3116 1113 3116 1747 
z
M 1159 2969 
Q 1341 3281 1617 3432 
Q 1894 3584 2278 3584 
Q 2916 3584 3314 3078 
Q 3713 2572 3713 1747 
Q 3713 922 3314 415 
Q 2916 -91 2278 -91 
Q 1894 -91 1617 61 
Q 1341 213 1159 525 
L 1159 0 
L 581 0 
L 581 4863 
L 1159 4863 
L 1159 2969 
z
" transform="scale(0.015625)"/>
       <path id="DejaVuSans-79" d="M 2059 -325 
Q 1816 -950 1584 -1140 
Q 1353 -1331 966 -1331 
L 506 -1331 
L 506 -850 
L 844 -850 
Q 1081 -850 1212 -737 
Q 1344 -625 1503 -206 
L 1606 56 
L 191 3500 
L 800 3500 
L 1894 763 
L 2988 3500 
L 3597 3500 
L 2059 -325 
z
" transform="scale(0.015625)"/>
       <path id="DejaVuSans-73" d="M 2834 3397 
L 2834 2853 
Q 2591 2978 2328 3040 
Q 2066 3103 1784 3103 
Q 1356 3103 1142 2972 
Q 928 2841 928 2578 
Q 928 2378 1081 2264 
Q 1234 2150 1697 2047 
L 1894 2003 
Q 2506 1872 2764 1633 
Q 3022 1394 3022 966 
Q 3022 478 2636 193 
Q 2250 -91 1575 -91 
Q 1294 -91 989 -36 
Q 684 19 347 128 
L 347 722 
Q 666 556 975 473 
Q 1284 391 1588 391 
Q 1994 391 2212 530 
Q 2431 669 2431 922 
Q 2431 1156 2273 1281 
Q 2116 1406 1581 1522 
L 1381 1569 
Q 847 1681 609 1914 
Q 372 2147 372 2553 
Q 372 3047 722 3315 
Q 1072 3584 1716 3584 
Q 2034 3584 2315 3537 
Q 2597 3491 2834 3397 
z
" transform="scale(0.015625)"/>
      </defs>
      <use xlink:href="#DejaVuSans-50"/>
      <use xlink:href="#DejaVuSans-72" x="58.552734"/>
      <use xlink:href="#DejaVuSans-6f" x="97.416016"/>
      <use xlink:href="#DejaVuSans-62" x="158.597656"/>
      <use xlink:href="#DejaVuSans-61" x="222.074219"/>
      <use xlink:href="#DejaVuSans-62" x="283.353516"/>
      <use xlink:href="#DejaVuSans-69" x="346.830078"/>
      <use xlink:href="#DejaVuSans-6c" x="374.613281"/>
      <use xlink:href="#DejaVuSans-69" x="402.396484"/>
      <use xlink:href="#DejaVuSans-74" x="430.179688"/>
      <use xlink:href="#DejaVuSans-79" x="469.388672"/>
      <use xlink:href="#DejaVuSans-20" x="528.568359"/>
      <use xlink:href="#DejaVuSans-64" x="560.355469"/>
      <use xlink:href="#DejaVuSans-65" x="623.832031"/>
      <use xlink:href="#DejaVuSans-6e" x="685.355469"/>
      <use xlink:href="#DejaVuSans-73" x="748.734375"/>
      <use xlink:href="#DejaVuSans-69" x="800.833984"/>
      <use xlink:href="#DejaVuSans-74" x="828.617188"/>
      <use xlink:href="#DejaVuSans-79" x="867.826172"/>
     </g>
    </g>
   </g>
   <g id="line2d_16">
    <path d="M 60.013977 273.312 
L 79.837728 229.926336 
L 90.237073 207.703917 
L 99.01152 189.461172 
L 106.811029 173.748591 
L 113.960578 159.841244 
L 120.460169 147.667618 
L 126.63478 136.562163 
L 132.484411 126.490789 
L 138.009063 117.410252 
L 143.208736 109.270347 
L 148.408408 101.545655 
L 153.283101 94.698256 
L 157.832814 88.665567 
L 162.382528 82.990723 
L 166.932241 77.684723 
L 171.156975 73.096988 
L 175.381709 68.843826 
L 179.281463 65.220946 
L 183.181217 61.894366 
L 187.080972 58.868824 
L 190.655746 56.363551 
L 194.230521 54.117856 
L 197.805296 52.134425 
L 201.380071 50.415633 
L 204.629866 49.084475 
L 207.879661 47.975046 
L 211.129456 47.088442 
L 214.379252 46.425541 
L 217.629047 45.986998 
L 220.878842 45.773247 
L 224.128637 45.784499 
L 227.378433 46.020742 
L 230.628228 46.481744 
L 233.878023 47.167049 
L 237.127818 48.075978 
L 240.377614 49.207633 
L 243.627409 50.560895 
L 247.202184 52.303835 
L 250.776958 54.311211 
L 254.351733 56.58062 
L 257.926508 59.109347 
L 261.501283 61.894366 
L 265.401037 65.220946 
L 269.300791 68.843826 
L 273.200546 72.757849 
L 277.425279 77.320113 
L 281.650013 82.209893 
L 286.199727 87.832702 
L 290.74944 93.81497 
L 295.624133 100.610248 
L 300.498826 107.789735 
L 305.698498 115.853327 
L 311.22315 124.857102 
L 316.747802 134.285065 
L 322.597433 144.700006 
L 328.772044 156.139815 
L 335.596614 169.268634 
L 342.746164 183.508138 
L 350.870652 200.207095 
L 359.970079 219.441082 
L 371.019383 243.343217 
L 384.668523 273.312 
L 384.668523 273.312 
" clip-path="url(#p0b701abac2)" style="fill: none; stroke: #ff7f0e; stroke-width: 1.5; stroke-linecap: square"/>
   </g>
   <g id="patch_203">
    <path d="M 43.78125 273.312 
L 43.78125 7.2 
" style="fill: none; stroke: #000000; stroke-width: 0.8; stroke-linejoin: miter; stroke-linecap: square"/>
   </g>
   <g id="patch_204">
    <path d="M 400.90125 273.312 
L 400.90125 7.2 
" style="fill: none; stroke: #000000; stroke-width: 0.8; stroke-linejoin: miter; stroke-linecap: square"/>
   </g>
   <g id="patch_205">
    <path d="M 43.78125 273.312 
L 400.90125 273.312 
" style="fill: none; stroke: #000000; stroke-width: 0.8; stroke-linejoin: miter; stroke-linecap: square"/>
   </g>
   <g id="patch_206">
    <path d="M 43.78125 7.2 
L 400.90125 7.2 
" style="fill: none; stroke: #000000; stroke-width: 0.8; stroke-linejoin: miter; stroke-linecap: square"/>
   </g>
  </g>
 </g>
 <defs>
  <clipPath id="p0b701abac2">
   <rect x="43.78125" y="7.2" width="357.12" height="266.112"/>
  </clipPath>
 </defs>
</svg>
