<?xml version="1.0" encoding="utf-8" standalone="no"?>
<!DOCTYPE svg PUBLIC "-//W3C//DTD SVG 1.1//EN"
  "http://www.w3.org/Graphics/SVG/1.1/DTD/svg11.dtd">
<svg xmlns:xlink="http://www.w3.org/1999/xlink" width="408.10125pt" height="310.86825pt" viewBox="0 0 408.10125 310.86825" xmlns="http://www.w3.org/2000/svg" version="1.1">
 <metadata>
  <rdf:RDF xmlns:dc="http://purl.org/dc/elements/1.1/" xmlns:cc="http://creativecommons.org/ns#" xmlns:rdf="http://www.w3.org/1999/02/22-rdf-syntax-ns#">
   <cc:Work>
    <dc:type rdf:resource="http://purl.org/dc/dcmitype/StillImage"/>
    <dc:date>2022-03-01T15:10:02.448214</dc:date>
    <dc:format>image/svg+xml</dc:format>
    <dc:creator>
     <cc:Agent>
      <dc:title>Matplotlib v3.5.1, https://matplotlib.org/</dc:title>
     </cc:Agent>
    </dc:creator>
   </cc:Work>
  </rdf:RDF>
 </metadata>
 <defs>
  <style type="text/css">*{stroke-linejoin: round; stroke-linecap: butt}</style>
 </defs>
 <g id="figure_1">
  <g id="patch_1">
   <path d="M 0 310.86825 
L 408.10125 310.86825 
L 408.10125 0 
L 0 0 
z
" style="fill: #ffffff"/>
  </g>
  <g id="axes_1">
   <g id="patch_2">
    <path d="M 43.78125 273.312 
L 400.90125 273.312 
L 400.90125 7.2 
L 43.78125 7.2 
z
" style="fill: #ffffff"/>
   </g>
   <g id="patch_3">
    <path d="M 60.69467 273.312 
L 62.314539 273.312 
L 62.314539 272.133209 
L 60.69467 272.133209 
z
" clip-path="url(#p9fb06e074b)" style="fill: #1f77b4"/>
   </g>
   <g id="patch_4">
    <path d="M 62.314539 273.312 
L 63.934408 273.312 
L 63.934408 271.543814 
L 62.314539 271.543814 
z
" clip-path="url(#p9fb06e074b)" style="fill: #1f77b4"/>
   </g>
   <g id="patch_5">
    <path d="M 63.934408 273.312 
L 65.554277 273.312 
L 65.554277 271.543814 
L 63.934408 271.543814 
z
" clip-path="url(#p9fb06e074b)" style="fill: #1f77b4"/>
   </g>
   <g id="patch_6">
    <path d="M 65.554277 273.312 
L 67.174145 273.312 
L 67.174145 271.543814 
L 65.554277 271.543814 
z
" clip-path="url(#p9fb06e074b)" style="fill: #1f77b4"/>
   </g>
   <g id="patch_7">
    <path d="M 67.174145 273.312 
L 68.794014 273.312 
L 68.794014 268.596837 
L 67.174145 268.596837 
z
" clip-path="url(#p9fb06e074b)" style="fill: #1f77b4"/>
   </g>
   <g id="patch_8">
    <path d="M 68.794014 273.312 
L 70.413883 273.312 
L 70.413883 267.418047 
L 68.794014 267.418047 
z
" clip-path="url(#p9fb06e074b)" style="fill: #1f77b4"/>
   </g>
   <g id="patch_9">
    <path d="M 70.413883 273.312 
L 72.033751 273.312 
L 72.033751 265.64986 
L 70.413883 265.64986 
z
" clip-path="url(#p9fb06e074b)" style="fill: #1f77b4"/>
   </g>
   <g id="patch_10">
    <path d="M 72.033751 273.312 
L 73.65362 273.312 
L 73.65362 265.64986 
L 72.033751 265.64986 
z
" clip-path="url(#p9fb06e074b)" style="fill: #1f77b4"/>
   </g>
   <g id="patch_11">
    <path d="M 73.65362 273.312 
L 75.273489 273.312 
L 75.273489 266.828651 
L 73.65362 266.828651 
z
" clip-path="url(#p9fb06e074b)" style="fill: #1f77b4"/>
   </g>
   <g id="patch_12">
    <path d="M 75.273489 273.312 
L 76.893357 273.312 
L 76.893357 261.524093 
L 75.273489 261.524093 
z
" clip-path="url(#p9fb06e074b)" style="fill: #1f77b4"/>
   </g>
   <g id="patch_13">
    <path d="M 76.893357 273.312 
L 78.513226 273.312 
L 78.513226 259.166512 
L 76.893357 259.166512 
z
" clip-path="url(#p9fb06e074b)" style="fill: #1f77b4"/>
   </g>
   <g id="patch_14">
    <path d="M 78.513226 273.312 
L 80.133095 273.312 
L 80.133095 259.166512 
L 78.513226 259.166512 
z
" clip-path="url(#p9fb06e074b)" style="fill: #1f77b4"/>
   </g>
   <g id="patch_15">
    <path d="M 80.133095 273.312 
L 81.752963 273.312 
L 81.752963 256.219535 
L 80.133095 256.219535 
z
" clip-path="url(#p9fb06e074b)" style="fill: #1f77b4"/>
   </g>
   <g id="patch_16">
    <path d="M 81.752963 273.312 
L 83.372832 273.312 
L 83.372832 256.219535 
L 81.752963 256.219535 
z
" clip-path="url(#p9fb06e074b)" style="fill: #1f77b4"/>
   </g>
   <g id="patch_17">
    <path d="M 83.372832 273.312 
L 84.992701 273.312 
L 84.992701 258.577116 
L 83.372832 258.577116 
z
" clip-path="url(#p9fb06e074b)" style="fill: #1f77b4"/>
   </g>
   <g id="patch_18">
    <path d="M 84.992701 273.312 
L 86.612569 273.312 
L 86.612569 252.093767 
L 84.992701 252.093767 
z
" clip-path="url(#p9fb06e074b)" style="fill: #1f77b4"/>
   </g>
   <g id="patch_19">
    <path d="M 86.612569 273.312 
L 88.232438 273.312 
L 88.232438 252.093767 
L 86.612569 252.093767 
z
" clip-path="url(#p9fb06e074b)" style="fill: #1f77b4"/>
   </g>
   <g id="patch_20">
    <path d="M 88.232438 273.312 
L 89.852307 273.312 
L 89.852307 255.040744 
L 88.232438 255.040744 
z
" clip-path="url(#p9fb06e074b)" style="fill: #1f77b4"/>
   </g>
   <g id="patch_21">
    <path d="M 89.852307 273.312 
L 91.472175 273.312 
L 91.472175 250.914977 
L 89.852307 250.914977 
z
" clip-path="url(#p9fb06e074b)" style="fill: #1f77b4"/>
   </g>
   <g id="patch_22">
    <path d="M 91.472175 273.312 
L 93.092044 273.312 
L 93.092044 256.80893 
L 91.472175 256.80893 
z
" clip-path="url(#p9fb06e074b)" style="fill: #1f77b4"/>
   </g>
   <g id="patch_23">
    <path d="M 93.092044 273.312 
L 94.711913 273.312 
L 94.711913 253.272558 
L 93.092044 253.272558 
z
" clip-path="url(#p9fb06e074b)" style="fill: #1f77b4"/>
   </g>
   <g id="patch_24">
    <path d="M 94.711913 273.312 
L 96.331782 273.312 
L 96.331782 253.272558 
L 94.711913 253.272558 
z
" clip-path="url(#p9fb06e074b)" style="fill: #1f77b4"/>
   </g>
   <g id="patch_25">
    <path d="M 96.331782 273.312 
L 97.95165 273.312 
L 97.95165 245.021023 
L 96.331782 245.021023 
z
" clip-path="url(#p9fb06e074b)" style="fill: #1f77b4"/>
   </g>
   <g id="patch_26">
    <path d="M 97.95165 273.312 
L 99.571519 273.312 
L 99.571519 246.789209 
L 97.95165 246.789209 
z
" clip-path="url(#p9fb06e074b)" style="fill: #1f77b4"/>
   </g>
   <g id="patch_27">
    <path d="M 99.571519 273.312 
L 101.191388 273.312 
L 101.191388 246.199814 
L 99.571519 246.199814 
z
" clip-path="url(#p9fb06e074b)" style="fill: #1f77b4"/>
   </g>
   <g id="patch_28">
    <path d="M 101.191388 273.312 
L 102.811256 273.312 
L 102.811256 245.610419 
L 101.191388 245.610419 
z
" clip-path="url(#p9fb06e074b)" style="fill: #1f77b4"/>
   </g>
   <g id="patch_29">
    <path d="M 102.811256 273.312 
L 104.431125 273.312 
L 104.431125 240.30586 
L 102.811256 240.30586 
z
" clip-path="url(#p9fb06e074b)" style="fill: #1f77b4"/>
   </g>
   <g id="patch_30">
    <path d="M 104.431125 273.312 
L 106.050994 273.312 
L 106.050994 239.12707 
L 104.431125 239.12707 
z
" clip-path="url(#p9fb06e074b)" style="fill: #1f77b4"/>
   </g>
   <g id="patch_31">
    <path d="M 106.050994 273.312 
L 107.670862 273.312 
L 107.670862 239.12707 
L 106.050994 239.12707 
z
" clip-path="url(#p9fb06e074b)" style="fill: #1f77b4"/>
   </g>
   <g id="patch_32">
    <path d="M 107.670862 273.312 
L 109.290731 273.312 
L 109.290731 239.12707 
L 107.670862 239.12707 
z
" clip-path="url(#p9fb06e074b)" style="fill: #1f77b4"/>
   </g>
   <g id="patch_33">
    <path d="M 109.290731 273.312 
L 110.9106 273.312 
L 110.9106 230.875535 
L 109.290731 230.875535 
z
" clip-path="url(#p9fb06e074b)" style="fill: #1f77b4"/>
   </g>
   <g id="patch_34">
    <path d="M 110.9106 273.312 
L 112.530468 273.312 
L 112.530468 240.895256 
L 110.9106 240.895256 
z
" clip-path="url(#p9fb06e074b)" style="fill: #1f77b4"/>
   </g>
   <g id="patch_35">
    <path d="M 112.530468 273.312 
L 114.150337 273.312 
L 114.150337 237.948279 
L 112.530468 237.948279 
z
" clip-path="url(#p9fb06e074b)" style="fill: #1f77b4"/>
   </g>
   <g id="patch_36">
    <path d="M 114.150337 273.312 
L 115.770206 273.312 
L 115.770206 231.46493 
L 114.150337 231.46493 
z
" clip-path="url(#p9fb06e074b)" style="fill: #1f77b4"/>
   </g>
   <g id="patch_37">
    <path d="M 115.770206 273.312 
L 117.390074 273.312 
L 117.390074 234.411907 
L 115.770206 234.411907 
z
" clip-path="url(#p9fb06e074b)" style="fill: #1f77b4"/>
   </g>
   <g id="patch_38">
    <path d="M 117.390074 273.312 
L 119.009943 273.312 
L 119.009943 231.46493 
L 117.390074 231.46493 
z
" clip-path="url(#p9fb06e074b)" style="fill: #1f77b4"/>
   </g>
   <g id="patch_39">
    <path d="M 119.009943 273.312 
L 120.629812 273.312 
L 120.629812 228.517953 
L 119.009943 228.517953 
z
" clip-path="url(#p9fb06e074b)" style="fill: #1f77b4"/>
   </g>
   <g id="patch_40">
    <path d="M 120.629812 273.312 
L 122.24968 273.312 
L 122.24968 237.358884 
L 120.629812 237.358884 
z
" clip-path="url(#p9fb06e074b)" style="fill: #1f77b4"/>
   </g>
   <g id="patch_41">
    <path d="M 122.24968 273.312 
L 123.869549 273.312 
L 123.869549 236.769488 
L 122.24968 236.769488 
z
" clip-path="url(#p9fb06e074b)" style="fill: #1f77b4"/>
   </g>
   <g id="patch_42">
    <path d="M 123.869549 273.312 
L 125.489418 273.312 
L 125.489418 226.749767 
L 123.869549 226.749767 
z
" clip-path="url(#p9fb06e074b)" style="fill: #1f77b4"/>
   </g>
   <g id="patch_43">
    <path d="M 125.489418 273.312 
L 127.109287 273.312 
L 127.109287 229.696744 
L 125.489418 229.696744 
z
" clip-path="url(#p9fb06e074b)" style="fill: #1f77b4"/>
   </g>
   <g id="patch_44">
    <path d="M 127.109287 273.312 
L 128.729155 273.312 
L 128.729155 224.392186 
L 127.109287 224.392186 
z
" clip-path="url(#p9fb06e074b)" style="fill: #1f77b4"/>
   </g>
   <g id="patch_45">
    <path d="M 128.729155 273.312 
L 130.349024 273.312 
L 130.349024 232.054326 
L 128.729155 232.054326 
z
" clip-path="url(#p9fb06e074b)" style="fill: #1f77b4"/>
   </g>
   <g id="patch_46">
    <path d="M 130.349024 273.312 
L 131.968893 273.312 
L 131.968893 216.140651 
L 130.349024 216.140651 
z
" clip-path="url(#p9fb06e074b)" style="fill: #1f77b4"/>
   </g>
   <g id="patch_47">
    <path d="M 131.968893 273.312 
L 133.588761 273.312 
L 133.588761 214.372465 
L 131.968893 214.372465 
z
" clip-path="url(#p9fb06e074b)" style="fill: #1f77b4"/>
   </g>
   <g id="patch_48">
    <path d="M 133.588761 273.312 
L 135.20863 273.312 
L 135.20863 219.677023 
L 133.588761 219.677023 
z
" clip-path="url(#p9fb06e074b)" style="fill: #1f77b4"/>
   </g>
   <g id="patch_49">
    <path d="M 135.20863 273.312 
L 136.828499 273.312 
L 136.828499 219.677023 
L 135.20863 219.677023 
z
" clip-path="url(#p9fb06e074b)" style="fill: #1f77b4"/>
   </g>
   <g id="patch_50">
    <path d="M 136.828499 273.312 
L 138.448367 273.312 
L 138.448367 209.657302 
L 136.828499 209.657302 
z
" clip-path="url(#p9fb06e074b)" style="fill: #1f77b4"/>
   </g>
   <g id="patch_51">
    <path d="M 138.448367 273.312 
L 140.068236 273.312 
L 140.068236 212.604279 
L 138.448367 212.604279 
z
" clip-path="url(#p9fb06e074b)" style="fill: #1f77b4"/>
   </g>
   <g id="patch_52">
    <path d="M 140.068236 273.312 
L 141.688105 273.312 
L 141.688105 223.802791 
L 140.068236 223.802791 
z
" clip-path="url(#p9fb06e074b)" style="fill: #1f77b4"/>
   </g>
   <g id="patch_53">
    <path d="M 141.688105 273.312 
L 143.307973 273.312 
L 143.307973 210.836093 
L 141.688105 210.836093 
z
" clip-path="url(#p9fb06e074b)" style="fill: #1f77b4"/>
   </g>
   <g id="patch_54">
    <path d="M 143.307973 273.312 
L 144.927842 273.312 
L 144.927842 213.193674 
L 143.307973 213.193674 
z
" clip-path="url(#p9fb06e074b)" style="fill: #1f77b4"/>
   </g>
   <g id="patch_55">
    <path d="M 144.927842 273.312 
L 146.547711 273.312 
L 146.547711 220.266419 
L 144.927842 220.266419 
z
" clip-path="url(#p9fb06e074b)" style="fill: #1f77b4"/>
   </g>
   <g id="patch_56">
    <path d="M 146.547711 273.312 
L 148.167579 273.312 
L 148.167579 208.478512 
L 146.547711 208.478512 
z
" clip-path="url(#p9fb06e074b)" style="fill: #1f77b4"/>
   </g>
   <g id="patch_57">
    <path d="M 148.167579 273.312 
L 149.787448 273.312 
L 149.787448 214.96186 
L 148.167579 214.96186 
z
" clip-path="url(#p9fb06e074b)" style="fill: #1f77b4"/>
   </g>
   <g id="patch_58">
    <path d="M 149.787448 273.312 
L 151.407317 273.312 
L 151.407317 206.710326 
L 149.787448 206.710326 
z
" clip-path="url(#p9fb06e074b)" style="fill: #1f77b4"/>
   </g>
   <g id="patch_59">
    <path d="M 151.407317 273.312 
L 153.027186 273.312 
L 153.027186 209.067907 
L 151.407317 209.067907 
z
" clip-path="url(#p9fb06e074b)" style="fill: #1f77b4"/>
   </g>
   <g id="patch_60">
    <path d="M 153.027186 273.312 
L 154.647054 273.312 
L 154.647054 187.849674 
L 153.027186 187.849674 
z
" clip-path="url(#p9fb06e074b)" style="fill: #1f77b4"/>
   </g>
   <g id="patch_61">
    <path d="M 154.647054 273.312 
L 156.266923 273.312 
L 156.266923 200.816372 
L 154.647054 200.816372 
z
" clip-path="url(#p9fb06e074b)" style="fill: #1f77b4"/>
   </g>
   <g id="patch_62">
    <path d="M 156.266923 273.312 
L 157.886792 273.312 
L 157.886792 206.710326 
L 156.266923 206.710326 
z
" clip-path="url(#p9fb06e074b)" style="fill: #1f77b4"/>
   </g>
   <g id="patch_63">
    <path d="M 157.886792 273.312 
L 159.50666 273.312 
L 159.50666 202.584558 
L 157.886792 202.584558 
z
" clip-path="url(#p9fb06e074b)" style="fill: #1f77b4"/>
   </g>
   <g id="patch_64">
    <path d="M 159.50666 273.312 
L 161.126529 273.312 
L 161.126529 193.743628 
L 159.50666 193.743628 
z
" clip-path="url(#p9fb06e074b)" style="fill: #1f77b4"/>
   </g>
   <g id="patch_65">
    <path d="M 161.126529 273.312 
L 162.746398 273.312 
L 162.746398 204.94214 
L 161.126529 204.94214 
z
" clip-path="url(#p9fb06e074b)" style="fill: #1f77b4"/>
   </g>
   <g id="patch_66">
    <path d="M 162.746398 273.312 
L 164.366266 273.312 
L 164.366266 190.796651 
L 162.746398 190.796651 
z
" clip-path="url(#p9fb06e074b)" style="fill: #1f77b4"/>
   </g>
   <g id="patch_67">
    <path d="M 164.366266 273.312 
L 165.986135 273.312 
L 165.986135 192.564837 
L 164.366266 192.564837 
z
" clip-path="url(#p9fb06e074b)" style="fill: #1f77b4"/>
   </g>
   <g id="patch_68">
    <path d="M 165.986135 273.312 
L 167.606004 273.312 
L 167.606004 192.564837 
L 165.986135 192.564837 
z
" clip-path="url(#p9fb06e074b)" style="fill: #1f77b4"/>
   </g>
   <g id="patch_69">
    <path d="M 167.606004 273.312 
L 169.225872 273.312 
L 169.225872 196.101209 
L 167.606004 196.101209 
z
" clip-path="url(#p9fb06e074b)" style="fill: #1f77b4"/>
   </g>
   <g id="patch_70">
    <path d="M 169.225872 273.312 
L 170.845741 273.312 
L 170.845741 181.366326 
L 169.225872 181.366326 
z
" clip-path="url(#p9fb06e074b)" style="fill: #1f77b4"/>
   </g>
   <g id="patch_71">
    <path d="M 170.845741 273.312 
L 172.46561 273.312 
L 172.46561 205.531535 
L 170.845741 205.531535 
z
" clip-path="url(#p9fb06e074b)" style="fill: #1f77b4"/>
   </g>
   <g id="patch_72">
    <path d="M 172.46561 273.312 
L 174.085478 273.312 
L 174.085478 190.207256 
L 172.46561 190.207256 
z
" clip-path="url(#p9fb06e074b)" style="fill: #1f77b4"/>
   </g>
   <g id="patch_73">
    <path d="M 174.085478 273.312 
L 175.705347 273.312 
L 175.705347 198.458791 
L 174.085478 198.458791 
z
" clip-path="url(#p9fb06e074b)" style="fill: #1f77b4"/>
   </g>
   <g id="patch_74">
    <path d="M 175.705347 273.312 
L 177.325216 273.312 
L 177.325216 187.849674 
L 175.705347 187.849674 
z
" clip-path="url(#p9fb06e074b)" style="fill: #1f77b4"/>
   </g>
   <g id="patch_75">
    <path d="M 177.325216 273.312 
L 178.945084 273.312 
L 178.945084 186.081488 
L 177.325216 186.081488 
z
" clip-path="url(#p9fb06e074b)" style="fill: #1f77b4"/>
   </g>
   <g id="patch_76">
    <path d="M 178.945084 273.312 
L 180.564953 273.312 
L 180.564953 195.511814 
L 178.945084 195.511814 
z
" clip-path="url(#p9fb06e074b)" style="fill: #1f77b4"/>
   </g>
   <g id="patch_77">
    <path d="M 180.564953 273.312 
L 182.184822 273.312 
L 182.184822 187.849674 
L 180.564953 187.849674 
z
" clip-path="url(#p9fb06e074b)" style="fill: #1f77b4"/>
   </g>
   <g id="patch_78">
    <path d="M 182.184822 273.312 
L 183.804691 273.312 
L 183.804691 194.333023 
L 182.184822 194.333023 
z
" clip-path="url(#p9fb06e074b)" style="fill: #1f77b4"/>
   </g>
   <g id="patch_79">
    <path d="M 183.804691 273.312 
L 185.424559 273.312 
L 185.424559 184.313302 
L 183.804691 184.313302 
z
" clip-path="url(#p9fb06e074b)" style="fill: #1f77b4"/>
   </g>
   <g id="patch_80">
    <path d="M 185.424559 273.312 
L 187.044428 273.312 
L 187.044428 183.134512 
L 185.424559 183.134512 
z
" clip-path="url(#p9fb06e074b)" style="fill: #1f77b4"/>
   </g>
   <g id="patch_81">
    <path d="M 187.044428 273.312 
L 188.664297 273.312 
L 188.664297 172.525395 
L 187.044428 172.525395 
z
" clip-path="url(#p9fb06e074b)" style="fill: #1f77b4"/>
   </g>
   <g id="patch_82">
    <path d="M 188.664297 273.312 
L 190.284165 273.312 
L 190.284165 174.293581 
L 188.664297 174.293581 
z
" clip-path="url(#p9fb06e074b)" style="fill: #1f77b4"/>
   </g>
   <g id="patch_83">
    <path d="M 190.284165 273.312 
L 191.904034 273.312 
L 191.904034 185.492093 
L 190.284165 185.492093 
z
" clip-path="url(#p9fb06e074b)" style="fill: #1f77b4"/>
   </g>
   <g id="patch_84">
    <path d="M 191.904034 273.312 
L 193.523903 273.312 
L 193.523903 174.882977 
L 191.904034 174.882977 
z
" clip-path="url(#p9fb06e074b)" style="fill: #1f77b4"/>
   </g>
   <g id="patch_85">
    <path d="M 193.523903 273.312 
L 195.143771 273.312 
L 195.143771 182.545116 
L 193.523903 182.545116 
z
" clip-path="url(#p9fb06e074b)" style="fill: #1f77b4"/>
   </g>
   <g id="patch_86">
    <path d="M 195.143771 273.312 
L 196.76364 273.312 
L 196.76364 188.43907 
L 195.143771 188.43907 
z
" clip-path="url(#p9fb06e074b)" style="fill: #1f77b4"/>
   </g>
   <g id="patch_87">
    <path d="M 196.76364 273.312 
L 198.383509 273.312 
L 198.383509 173.704186 
L 196.76364 173.704186 
z
" clip-path="url(#p9fb06e074b)" style="fill: #1f77b4"/>
   </g>
   <g id="patch_88">
    <path d="M 198.383509 273.312 
L 200.003377 273.312 
L 200.003377 181.366326 
L 198.383509 181.366326 
z
" clip-path="url(#p9fb06e074b)" style="fill: #1f77b4"/>
   </g>
   <g id="patch_89">
    <path d="M 200.003377 273.312 
L 201.623246 273.312 
L 201.623246 190.207256 
L 200.003377 190.207256 
z
" clip-path="url(#p9fb06e074b)" style="fill: #1f77b4"/>
   </g>
   <g id="patch_90">
    <path d="M 201.623246 273.312 
L 203.243115 273.312 
L 203.243115 174.293581 
L 201.623246 174.293581 
z
" clip-path="url(#p9fb06e074b)" style="fill: #1f77b4"/>
   </g>
   <g id="patch_91">
    <path d="M 203.243115 273.312 
L 204.862983 273.312 
L 204.862983 159.558698 
L 203.243115 159.558698 
z
" clip-path="url(#p9fb06e074b)" style="fill: #1f77b4"/>
   </g>
   <g id="patch_92">
    <path d="M 204.862983 273.312 
L 206.482852 273.312 
L 206.482852 182.545116 
L 204.862983 182.545116 
z
" clip-path="url(#p9fb06e074b)" style="fill: #1f77b4"/>
   </g>
   <g id="patch_93">
    <path d="M 206.482852 273.312 
L 208.102721 273.312 
L 208.102721 174.882977 
L 206.482852 174.882977 
z
" clip-path="url(#p9fb06e074b)" style="fill: #1f77b4"/>
   </g>
   <g id="patch_94">
    <path d="M 208.102721 273.312 
L 209.722589 273.312 
L 209.722589 168.989023 
L 208.102721 168.989023 
z
" clip-path="url(#p9fb06e074b)" style="fill: #1f77b4"/>
   </g>
   <g id="patch_95">
    <path d="M 209.722589 273.312 
L 211.342458 273.312 
L 211.342458 176.061767 
L 209.722589 176.061767 
z
" clip-path="url(#p9fb06e074b)" style="fill: #1f77b4"/>
   </g>
   <g id="patch_96">
    <path d="M 211.342458 273.312 
L 212.962327 273.312 
L 212.962327 168.399628 
L 211.342458 168.399628 
z
" clip-path="url(#p9fb06e074b)" style="fill: #1f77b4"/>
   </g>
   <g id="patch_97">
    <path d="M 212.962327 273.312 
L 214.582196 273.312 
L 214.582196 170.757209 
L 212.962327 170.757209 
z
" clip-path="url(#p9fb06e074b)" style="fill: #1f77b4"/>
   </g>
   <g id="patch_98">
    <path d="M 214.582196 273.312 
L 216.202064 273.312 
L 216.202064 138.340465 
L 214.582196 138.340465 
z
" clip-path="url(#p9fb06e074b)" style="fill: #1f77b4"/>
   </g>
   <g id="patch_99">
    <path d="M 216.202064 273.312 
L 217.821933 273.312 
L 217.821933 157.790512 
L 216.202064 157.790512 
z
" clip-path="url(#p9fb06e074b)" style="fill: #1f77b4"/>
   </g>
   <g id="patch_100">
    <path d="M 217.821933 273.312 
L 219.441802 273.312 
L 219.441802 168.989023 
L 217.821933 168.989023 
z
" clip-path="url(#p9fb06e074b)" style="fill: #1f77b4"/>
   </g>
   <g id="patch_101">
    <path d="M 219.441802 273.312 
L 221.06167 273.312 
L 221.06167 151.896558 
L 219.441802 151.896558 
z
" clip-path="url(#p9fb06e074b)" style="fill: #1f77b4"/>
   </g>
   <g id="patch_102">
    <path d="M 221.06167 273.312 
L 222.681539 273.312 
L 222.681539 150.128372 
L 221.06167 150.128372 
z
" clip-path="url(#p9fb06e074b)" style="fill: #1f77b4"/>
   </g>
   <g id="patch_103">
    <path d="M 222.681539 273.312 
L 224.301408 273.312 
L 224.301408 135.982884 
L 222.681539 135.982884 
z
" clip-path="url(#p9fb06e074b)" style="fill: #1f77b4"/>
   </g>
   <g id="patch_104">
    <path d="M 224.301408 273.312 
L 225.921276 273.312 
L 225.921276 165.452651 
L 224.301408 165.452651 
z
" clip-path="url(#p9fb06e074b)" style="fill: #1f77b4"/>
   </g>
   <g id="patch_105">
    <path d="M 225.921276 273.312 
L 227.541145 273.312 
L 227.541145 161.916279 
L 225.921276 161.916279 
z
" clip-path="url(#p9fb06e074b)" style="fill: #1f77b4"/>
   </g>
   <g id="patch_106">
    <path d="M 227.541145 273.312 
L 229.161014 273.312 
L 229.161014 151.896558 
L 227.541145 151.896558 
z
" clip-path="url(#p9fb06e074b)" style="fill: #1f77b4"/>
   </g>
   <g id="patch_107">
    <path d="M 229.161014 273.312 
L 230.780882 273.312 
L 230.780882 143.055628 
L 229.161014 143.055628 
z
" clip-path="url(#p9fb06e074b)" style="fill: #1f77b4"/>
   </g>
   <g id="patch_108">
    <path d="M 230.780882 273.312 
L 232.400751 273.312 
L 232.400751 154.25414 
L 230.780882 154.25414 
z
" clip-path="url(#p9fb06e074b)" style="fill: #1f77b4"/>
   </g>
   <g id="patch_109">
    <path d="M 232.400751 273.312 
L 234.02062 273.312 
L 234.02062 153.664744 
L 232.400751 153.664744 
z
" clip-path="url(#p9fb06e074b)" style="fill: #1f77b4"/>
   </g>
   <g id="patch_110">
    <path d="M 234.02062 273.312 
L 235.640488 273.312 
L 235.640488 138.92986 
L 234.02062 138.92986 
z
" clip-path="url(#p9fb06e074b)" style="fill: #1f77b4"/>
   </g>
   <g id="patch_111">
    <path d="M 235.640488 273.312 
L 237.260357 273.312 
L 237.260357 148.360186 
L 235.640488 148.360186 
z
" clip-path="url(#p9fb06e074b)" style="fill: #1f77b4"/>
   </g>
   <g id="patch_112">
    <path d="M 237.260357 273.312 
L 238.880226 273.312 
L 238.880226 140.108651 
L 237.260357 140.108651 
z
" clip-path="url(#p9fb06e074b)" style="fill: #1f77b4"/>
   </g>
   <g id="patch_113">
    <path d="M 238.880226 273.312 
L 240.500094 273.312 
L 240.500094 146.002605 
L 238.880226 146.002605 
z
" clip-path="url(#p9fb06e074b)" style="fill: #1f77b4"/>
   </g>
   <g id="patch_114">
    <path d="M 240.500094 273.312 
L 242.119963 273.312 
L 242.119963 133.625302 
L 240.500094 133.625302 
z
" clip-path="url(#p9fb06e074b)" style="fill: #1f77b4"/>
   </g>
   <g id="patch_115">
    <path d="M 242.119963 273.312 
L 243.739832 273.312 
L 243.739832 125.963163 
L 242.119963 125.963163 
z
" clip-path="url(#p9fb06e074b)" style="fill: #1f77b4"/>
   </g>
   <g id="patch_116">
    <path d="M 243.739832 273.312 
L 245.359701 273.312 
L 245.359701 130.678326 
L 243.739832 130.678326 
z
" clip-path="url(#p9fb06e074b)" style="fill: #1f77b4"/>
   </g>
   <g id="patch_117">
    <path d="M 245.359701 273.312 
L 246.979569 273.312 
L 246.979569 144.234419 
L 245.359701 144.234419 
z
" clip-path="url(#p9fb06e074b)" style="fill: #1f77b4"/>
   </g>
   <g id="patch_118">
    <path d="M 246.979569 273.312 
L 248.599438 273.312 
L 248.599438 141.287442 
L 246.979569 141.287442 
z
" clip-path="url(#p9fb06e074b)" style="fill: #1f77b4"/>
   </g>
   <g id="patch_119">
    <path d="M 248.599438 273.312 
L 250.219307 273.312 
L 250.219307 153.075349 
L 248.599438 153.075349 
z
" clip-path="url(#p9fb06e074b)" style="fill: #1f77b4"/>
   </g>
   <g id="patch_120">
    <path d="M 250.219307 273.312 
L 251.839175 273.312 
L 251.839175 121.248 
L 250.219307 121.248 
z
" clip-path="url(#p9fb06e074b)" style="fill: #1f77b4"/>
   </g>
   <g id="patch_121">
    <path d="M 251.839175 273.312 
L 253.459044 273.312 
L 253.459044 140.698047 
L 251.839175 140.698047 
z
" clip-path="url(#p9fb06e074b)" style="fill: #1f77b4"/>
   </g>
   <g id="patch_122">
    <path d="M 253.459044 273.312 
L 255.078913 273.312 
L 255.078913 137.75107 
L 253.459044 137.75107 
z
" clip-path="url(#p9fb06e074b)" style="fill: #1f77b4"/>
   </g>
   <g id="patch_123">
    <path d="M 255.078913 273.312 
L 256.698781 273.312 
L 256.698781 122.426791 
L 255.078913 122.426791 
z
" clip-path="url(#p9fb06e074b)" style="fill: #1f77b4"/>
   </g>
   <g id="patch_124">
    <path d="M 256.698781 273.312 
L 258.31865 273.312 
L 258.31865 120.069209 
L 256.698781 120.069209 
z
" clip-path="url(#p9fb06e074b)" style="fill: #1f77b4"/>
   </g>
   <g id="patch_125">
    <path d="M 258.31865 273.312 
L 259.938519 273.312 
L 259.938519 120.658605 
L 258.31865 120.658605 
z
" clip-path="url(#p9fb06e074b)" style="fill: #1f77b4"/>
   </g>
   <g id="patch_126">
    <path d="M 259.938519 273.312 
L 261.558387 273.312 
L 261.558387 123.605581 
L 259.938519 123.605581 
z
" clip-path="url(#p9fb06e074b)" style="fill: #1f77b4"/>
   </g>
   <g id="patch_127">
    <path d="M 261.558387 273.312 
L 263.178256 273.312 
L 263.178256 121.837395 
L 261.558387 121.837395 
z
" clip-path="url(#p9fb06e074b)" style="fill: #1f77b4"/>
   </g>
   <g id="patch_128">
    <path d="M 263.178256 273.312 
L 264.798125 273.312 
L 264.798125 117.122233 
L 263.178256 117.122233 
z
" clip-path="url(#p9fb06e074b)" style="fill: #1f77b4"/>
   </g>
   <g id="patch_129">
    <path d="M 264.798125 273.312 
L 266.417993 273.312 
L 266.417993 120.069209 
L 264.798125 120.069209 
z
" clip-path="url(#p9fb06e074b)" style="fill: #1f77b4"/>
   </g>
   <g id="patch_130">
    <path d="M 266.417993 273.312 
L 268.037862 273.312 
L 268.037862 127.141953 
L 266.417993 127.141953 
z
" clip-path="url(#p9fb06e074b)" style="fill: #1f77b4"/>
   </g>
   <g id="patch_131">
    <path d="M 268.037862 273.312 
L 269.657731 273.312 
L 269.657731 118.890419 
L 268.037862 118.890419 
z
" clip-path="url(#p9fb06e074b)" style="fill: #1f77b4"/>
   </g>
   <g id="patch_132">
    <path d="M 269.657731 273.312 
L 271.2776 273.312 
L 271.2776 121.837395 
L 269.657731 121.837395 
z
" clip-path="url(#p9fb06e074b)" style="fill: #1f77b4"/>
   </g>
   <g id="patch_133">
    <path d="M 271.2776 273.312 
L 272.897468 273.312 
L 272.897468 127.141953 
L 271.2776 127.141953 
z
" clip-path="url(#p9fb06e074b)" style="fill: #1f77b4"/>
   </g>
   <g id="patch_134">
    <path d="M 272.897468 273.312 
L 274.517337 273.312 
L 274.517337 110.049488 
L 272.897468 110.049488 
z
" clip-path="url(#p9fb06e074b)" style="fill: #1f77b4"/>
   </g>
   <g id="patch_135">
    <path d="M 274.517337 273.312 
L 276.137206 273.312 
L 276.137206 114.175256 
L 274.517337 114.175256 
z
" clip-path="url(#p9fb06e074b)" style="fill: #1f77b4"/>
   </g>
   <g id="patch_136">
    <path d="M 276.137206 273.312 
L 277.757074 273.312 
L 277.757074 104.74493 
L 276.137206 104.74493 
z
" clip-path="url(#p9fb06e074b)" style="fill: #1f77b4"/>
   </g>
   <g id="patch_137">
    <path d="M 277.757074 273.312 
L 279.376943 273.312 
L 279.376943 124.784372 
L 277.757074 124.784372 
z
" clip-path="url(#p9fb06e074b)" style="fill: #1f77b4"/>
   </g>
   <g id="patch_138">
    <path d="M 279.376943 273.312 
L 280.996812 273.312 
L 280.996812 114.175256 
L 279.376943 114.175256 
z
" clip-path="url(#p9fb06e074b)" style="fill: #1f77b4"/>
   </g>
   <g id="patch_139">
    <path d="M 280.996812 273.312 
L 282.61668 273.312 
L 282.61668 100.029767 
L 280.996812 100.029767 
z
" clip-path="url(#p9fb06e074b)" style="fill: #1f77b4"/>
   </g>
   <g id="patch_140">
    <path d="M 282.61668 273.312 
L 284.236549 273.312 
L 284.236549 111.817674 
L 282.61668 111.817674 
z
" clip-path="url(#p9fb06e074b)" style="fill: #1f77b4"/>
   </g>
   <g id="patch_141">
    <path d="M 284.236549 273.312 
L 285.856418 273.312 
L 285.856418 120.658605 
L 284.236549 120.658605 
z
" clip-path="url(#p9fb06e074b)" style="fill: #1f77b4"/>
   </g>
   <g id="patch_142">
    <path d="M 285.856418 273.312 
L 287.476286 273.312 
L 287.476286 118.890419 
L 285.856418 118.890419 
z
" clip-path="url(#p9fb06e074b)" style="fill: #1f77b4"/>
   </g>
   <g id="patch_143">
    <path d="M 287.476286 273.312 
L 289.096155 273.312 
L 289.096155 109.460093 
L 287.476286 109.460093 
z
" clip-path="url(#p9fb06e074b)" style="fill: #1f77b4"/>
   </g>
   <g id="patch_144">
    <path d="M 289.096155 273.312 
L 290.716024 273.312 
L 290.716024 127.141953 
L 289.096155 127.141953 
z
" clip-path="url(#p9fb06e074b)" style="fill: #1f77b4"/>
   </g>
   <g id="patch_145">
    <path d="M 290.716024 273.312 
L 292.335892 273.312 
L 292.335892 102.387349 
L 290.716024 102.387349 
z
" clip-path="url(#p9fb06e074b)" style="fill: #1f77b4"/>
   </g>
   <g id="patch_146">
    <path d="M 292.335892 273.312 
L 293.955761 273.312 
L 293.955761 95.904 
L 292.335892 95.904 
z
" clip-path="url(#p9fb06e074b)" style="fill: #1f77b4"/>
   </g>
   <g id="patch_147">
    <path d="M 293.955761 273.312 
L 295.57563 273.312 
L 295.57563 95.314605 
L 293.955761 95.314605 
z
" clip-path="url(#p9fb06e074b)" style="fill: #1f77b4"/>
   </g>
   <g id="patch_148">
    <path d="M 295.57563 273.312 
L 297.195498 273.312 
L 297.195498 89.420651 
L 295.57563 89.420651 
z
" clip-path="url(#p9fb06e074b)" style="fill: #1f77b4"/>
   </g>
   <g id="patch_149">
    <path d="M 297.195498 273.312 
L 298.815367 273.312 
L 298.815367 104.74493 
L 297.195498 104.74493 
z
" clip-path="url(#p9fb06e074b)" style="fill: #1f77b4"/>
   </g>
   <g id="patch_150">
    <path d="M 298.815367 273.312 
L 300.435236 273.312 
L 300.435236 91.188837 
L 298.815367 91.188837 
z
" clip-path="url(#p9fb06e074b)" style="fill: #1f77b4"/>
   </g>
   <g id="patch_151">
    <path d="M 300.435236 273.312 
L 302.055105 273.312 
L 302.055105 88.831256 
L 300.435236 88.831256 
z
" clip-path="url(#p9fb06e074b)" style="fill: #1f77b4"/>
   </g>
   <g id="patch_152">
    <path d="M 302.055105 273.312 
L 303.674973 273.312 
L 303.674973 95.904 
L 302.055105 95.904 
z
" clip-path="url(#p9fb06e074b)" style="fill: #1f77b4"/>
   </g>
   <g id="patch_153">
    <path d="M 303.674973 273.312 
L 305.294842 273.312 
L 305.294842 82.937302 
L 303.674973 82.937302 
z
" clip-path="url(#p9fb06e074b)" style="fill: #1f77b4"/>
   </g>
   <g id="patch_154">
    <path d="M 305.294842 273.312 
L 306.914711 273.312 
L 306.914711 94.135814 
L 305.294842 94.135814 
z
" clip-path="url(#p9fb06e074b)" style="fill: #1f77b4"/>
   </g>
   <g id="patch_155">
    <path d="M 306.914711 273.312 
L 308.534579 273.312 
L 308.534579 68.202419 
L 306.914711 68.202419 
z
" clip-path="url(#p9fb06e074b)" style="fill: #1f77b4"/>
   </g>
   <g id="patch_156">
    <path d="M 308.534579 273.312 
L 310.154448 273.312 
L 310.154448 86.473674 
L 308.534579 86.473674 
z
" clip-path="url(#p9fb06e074b)" style="fill: #1f77b4"/>
   </g>
   <g id="patch_157">
    <path d="M 310.154448 273.312 
L 311.774317 273.312 
L 311.774317 81.758512 
L 310.154448 81.758512 
z
" clip-path="url(#p9fb06e074b)" style="fill: #1f77b4"/>
   </g>
   <g id="patch_158">
    <path d="M 311.774317 273.312 
L 313.394185 273.312 
L 313.394185 90.010047 
L 311.774317 90.010047 
z
" clip-path="url(#p9fb06e074b)" style="fill: #1f77b4"/>
   </g>
   <g id="patch_159">
    <path d="M 313.394185 273.312 
L 315.014054 273.312 
L 315.014054 79.990326 
L 313.394185 79.990326 
z
" clip-path="url(#p9fb06e074b)" style="fill: #1f77b4"/>
   </g>
   <g id="patch_160">
    <path d="M 315.014054 273.312 
L 316.633923 273.312 
L 316.633923 84.705488 
L 315.014054 84.705488 
z
" clip-path="url(#p9fb06e074b)" style="fill: #1f77b4"/>
   </g>
   <g id="patch_161">
    <path d="M 316.633923 273.312 
L 318.253791 273.312 
L 318.253791 76.453953 
L 316.633923 76.453953 
z
" clip-path="url(#p9fb06e074b)" style="fill: #1f77b4"/>
   </g>
   <g id="patch_162">
    <path d="M 318.253791 273.312 
L 319.87366 273.312 
L 319.87366 92.957023 
L 318.253791 92.957023 
z
" clip-path="url(#p9fb06e074b)" style="fill: #1f77b4"/>
   </g>
   <g id="patch_163">
    <path d="M 319.87366 273.312 
L 321.493529 273.312 
L 321.493529 84.705488 
L 319.87366 84.705488 
z
" clip-path="url(#p9fb06e074b)" style="fill: #1f77b4"/>
   </g>
   <g id="patch_164">
    <path d="M 321.493529 273.312 
L 323.113397 273.312 
L 323.113397 78.22214 
L 321.493529 78.22214 
z
" clip-path="url(#p9fb06e074b)" style="fill: #1f77b4"/>
   </g>
   <g id="patch_165">
    <path d="M 323.113397 273.312 
L 324.733266 273.312 
L 324.733266 89.420651 
L 323.113397 89.420651 
z
" clip-path="url(#p9fb06e074b)" style="fill: #1f77b4"/>
   </g>
   <g id="patch_166">
    <path d="M 324.733266 273.312 
L 326.353135 273.312 
L 326.353135 80.579721 
L 324.733266 80.579721 
z
" clip-path="url(#p9fb06e074b)" style="fill: #1f77b4"/>
   </g>
   <g id="patch_167">
    <path d="M 326.353135 273.312 
L 327.973003 273.312 
L 327.973003 92.367628 
L 326.353135 92.367628 
z
" clip-path="url(#p9fb06e074b)" style="fill: #1f77b4"/>
   </g>
   <g id="patch_168">
    <path d="M 327.973003 273.312 
L 329.592872 273.312 
L 329.592872 65.844837 
L 327.973003 65.844837 
z
" clip-path="url(#p9fb06e074b)" style="fill: #1f77b4"/>
   </g>
   <g id="patch_169">
    <path d="M 329.592872 273.312 
L 331.212741 273.312 
L 331.212741 64.076651 
L 329.592872 64.076651 
z
" clip-path="url(#p9fb06e074b)" style="fill: #1f77b4"/>
   </g>
   <g id="patch_170">
    <path d="M 331.212741 273.312 
L 332.83261 273.312 
L 332.83261 75.275163 
L 331.212741 75.275163 
z
" clip-path="url(#p9fb06e074b)" style="fill: #1f77b4"/>
   </g>
   <g id="patch_171">
    <path d="M 332.83261 273.312 
L 334.452478 273.312 
L 334.452478 75.864558 
L 332.83261 75.864558 
z
" clip-path="url(#p9fb06e074b)" style="fill: #1f77b4"/>
   </g>
   <g id="patch_172">
    <path d="M 334.452478 273.312 
L 336.072347 273.312 
L 336.072347 69.970605 
L 334.452478 69.970605 
z
" clip-path="url(#p9fb06e074b)" style="fill: #1f77b4"/>
   </g>
   <g id="patch_173">
    <path d="M 336.072347 273.312 
L 337.692216 273.312 
L 337.692216 85.884279 
L 336.072347 85.884279 
z
" clip-path="url(#p9fb06e074b)" style="fill: #1f77b4"/>
   </g>
   <g id="patch_174">
    <path d="M 337.692216 273.312 
L 339.312084 273.312 
L 339.312084 77.632744 
L 337.692216 77.632744 
z
" clip-path="url(#p9fb06e074b)" style="fill: #1f77b4"/>
   </g>
   <g id="patch_175">
    <path d="M 339.312084 273.312 
L 340.931953 273.312 
L 340.931953 64.666047 
L 339.312084 64.666047 
z
" clip-path="url(#p9fb06e074b)" style="fill: #1f77b4"/>
   </g>
   <g id="patch_176">
    <path d="M 340.931953 273.312 
L 342.551822 273.312 
L 342.551822 91.188837 
L 340.931953 91.188837 
z
" clip-path="url(#p9fb06e074b)" style="fill: #1f77b4"/>
   </g>
   <g id="patch_177">
    <path d="M 342.551822 273.312 
L 344.17169 273.312 
L 344.17169 69.381209 
L 342.551822 69.381209 
z
" clip-path="url(#p9fb06e074b)" style="fill: #1f77b4"/>
   </g>
   <g id="patch_178">
    <path d="M 344.17169 273.312 
L 345.791559 273.312 
L 345.791559 61.71907 
L 344.17169 61.71907 
z
" clip-path="url(#p9fb06e074b)" style="fill: #1f77b4"/>
   </g>
   <g id="patch_179">
    <path d="M 345.791559 273.312 
L 347.411428 273.312 
L 347.411428 85.294884 
L 345.791559 85.294884 
z
" clip-path="url(#p9fb06e074b)" style="fill: #1f77b4"/>
   </g>
   <g id="patch_180">
    <path d="M 347.411428 273.312 
L 349.031296 273.312 
L 349.031296 67.023628 
L 347.411428 67.023628 
z
" clip-path="url(#p9fb06e074b)" style="fill: #1f77b4"/>
   </g>
   <g id="patch_181">
    <path d="M 349.031296 273.312 
L 350.651165 273.312 
L 350.651165 38.732651 
L 349.031296 38.732651 
z
" clip-path="url(#p9fb06e074b)" style="fill: #1f77b4"/>
   </g>
   <g id="patch_182">
    <path d="M 350.651165 273.312 
L 352.271034 273.312 
L 352.271034 62.308465 
L 350.651165 62.308465 
z
" clip-path="url(#p9fb06e074b)" style="fill: #1f77b4"/>
   </g>
   <g id="patch_183">
    <path d="M 352.271034 273.312 
L 353.890902 273.312 
L 353.890902 62.89786 
L 352.271034 62.89786 
z
" clip-path="url(#p9fb06e074b)" style="fill: #1f77b4"/>
   </g>
   <g id="patch_184">
    <path d="M 353.890902 273.312 
L 355.510771 273.312 
L 355.510771 62.308465 
L 353.890902 62.308465 
z
" clip-path="url(#p9fb06e074b)" style="fill: #1f77b4"/>
   </g>
   <g id="patch_185">
    <path d="M 355.510771 273.312 
L 357.13064 273.312 
L 357.13064 61.129674 
L 355.510771 61.129674 
z
" clip-path="url(#p9fb06e074b)" style="fill: #1f77b4"/>
   </g>
   <g id="patch_186">
    <path d="M 357.13064 273.312 
L 358.750508 273.312 
L 358.750508 52.288744 
L 357.13064 52.288744 
z
" clip-path="url(#p9fb06e074b)" style="fill: #1f77b4"/>
   </g>
   <g id="patch_187">
    <path d="M 358.750508 273.312 
L 360.370377 273.312 
L 360.370377 54.646326 
L 358.750508 54.646326 
z
" clip-path="url(#p9fb06e074b)" style="fill: #1f77b4"/>
   </g>
   <g id="patch_188">
    <path d="M 360.370377 273.312 
L 361.990246 273.312 
L 361.990246 73.506977 
L 360.370377 73.506977 
z
" clip-path="url(#p9fb06e074b)" style="fill: #1f77b4"/>
   </g>
   <g id="patch_189">
    <path d="M 361.990246 273.312 
L 363.610115 273.312 
L 363.610115 53.467535 
L 361.990246 53.467535 
z
" clip-path="url(#p9fb06e074b)" style="fill: #1f77b4"/>
   </g>
   <g id="patch_190">
    <path d="M 363.610115 273.312 
L 365.229983 273.312 
L 365.229983 61.71907 
L 363.610115 61.71907 
z
" clip-path="url(#p9fb06e074b)" style="fill: #1f77b4"/>
   </g>
   <g id="patch_191">
    <path d="M 365.229983 273.312 
L 366.849852 273.312 
L 366.849852 35.785674 
L 365.229983 35.785674 
z
" clip-path="url(#p9fb06e074b)" style="fill: #1f77b4"/>
   </g>
   <g id="patch_192">
    <path d="M 366.849852 273.312 
L 368.469721 273.312 
L 368.469721 59.950884 
L 366.849852 59.950884 
z
" clip-path="url(#p9fb06e074b)" style="fill: #1f77b4"/>
   </g>
   <g id="patch_193">
    <path d="M 368.469721 273.312 
L 370.089589 273.312 
L 370.089589 38.732651 
L 368.469721 38.732651 
z
" clip-path="url(#p9fb06e074b)" style="fill: #1f77b4"/>
   </g>
   <g id="patch_194">
    <path d="M 370.089589 273.312 
L 371.709458 273.312 
L 371.709458 35.785674 
L 370.089589 35.785674 
z
" clip-path="url(#p9fb06e074b)" style="fill: #1f77b4"/>
   </g>
   <g id="patch_195">
    <path d="M 371.709458 273.312 
L 373.329327 273.312 
L 373.329327 48.752372 
L 371.709458 48.752372 
z
" clip-path="url(#p9fb06e074b)" style="fill: #1f77b4"/>
   </g>
   <g id="patch_196">
    <path d="M 373.329327 273.312 
L 374.949195 273.312 
L 374.949195 47.573581 
L 373.329327 47.573581 
z
" clip-path="url(#p9fb06e074b)" style="fill: #1f77b4"/>
   </g>
   <g id="patch_197">
    <path d="M 374.949195 273.312 
L 376.569064 273.312 
L 376.569064 69.970605 
L 374.949195 69.970605 
z
" clip-path="url(#p9fb06e074b)" style="fill: #1f77b4"/>
   </g>
   <g id="patch_198">
    <path d="M 376.569064 273.312 
L 378.188933 273.312 
L 378.188933 41.679628 
L 376.569064 41.679628 
z
" clip-path="url(#p9fb06e074b)" style="fill: #1f77b4"/>
   </g>
   <g id="patch_199">
    <path d="M 378.188933 273.312 
L 379.808801 273.312 
L 379.808801 34.606884 
L 378.188933 34.606884 
z
" clip-path="url(#p9fb06e074b)" style="fill: #1f77b4"/>
   </g>
   <g id="patch_200">
    <path d="M 379.808801 273.312 
L 381.42867 273.312 
L 381.42867 19.872 
L 379.808801 19.872 
z
" clip-path="url(#p9fb06e074b)" style="fill: #1f77b4"/>
   </g>
   <g id="patch_201">
    <path d="M 381.42867 273.312 
L 383.048539 273.312 
L 383.048539 54.646326 
L 381.42867 54.646326 
z
" clip-path="url(#p9fb06e074b)" style="fill: #1f77b4"/>
   </g>
   <g id="patch_202">
    <path d="M 383.048539 273.312 
L 384.668407 273.312 
L 384.668407 32.838698 
L 383.048539 32.838698 
z
" clip-path="url(#p9fb06e074b)" style="fill: #1f77b4"/>
   </g>
   <g id="matplotlib.axis_1">
    <g id="xtick_1">
     <g id="line2d_1">
      <defs>
       <path id="mfe8a3d0be9" d="M 0 0 
L 0 3.5 
" style="stroke: #000000; stroke-width: 0.8"/>
      </defs>
      <g>
       <use xlink:href="#mfe8a3d0be9" x="60.013977" y="273.312" style="stroke: #000000; stroke-width: 0.8"/>
      </g>
     </g>
     <g id="text_1">
      <!-- 0.0 -->
      <g transform="translate(52.062415 287.910437)scale(0.1 -0.1)">
       <defs>
        <path id="DejaVuSans-30" d="M 2034 4250 
Q 1547 4250 1301 3770 
Q 1056 3291 1056 2328 
Q 1056 1369 1301 889 
Q 1547 409 2034 409 
Q 2525 409 2770 889 
Q 3016 1369 3016 2328 
Q 3016 3291 2770 3770 
Q 2525 4250 2034 4250 
z
M 2034 4750 
Q 2819 4750 3233 4129 
Q 3647 3509 3647 2328 
Q 3647 1150 3233 529 
Q 2819 -91 2034 -91 
Q 1250 -91 836 529 
Q 422 1150 422 2328 
Q 422 3509 836 4129 
Q 1250 4750 2034 4750 
z
" transform="scale(0.015625)"/>
        <path id="DejaVuSans-2e" d="M 684 794 
L 1344 794 
L 1344 0 
L 684 0 
L 684 794 
z
" transform="scale(0.015625)"/>
       </defs>
       <use xlink:href="#DejaVuSans-30"/>
       <use xlink:href="#DejaVuSans-2e" x="63.623047"/>
       <use xlink:href="#DejaVuSans-30" x="95.410156"/>
      </g>
     </g>
    </g>
    <g id="xtick_2">
     <g id="line2d_2">
      <g>
       <use xlink:href="#mfe8a3d0be9" x="124.944886" y="273.312" style="stroke: #000000; stroke-width: 0.8"/>
      </g>
     </g>
     <g id="text_2">
      <!-- 0.2 -->
      <g transform="translate(116.993324 287.910437)scale(0.1 -0.1)">
       <defs>
        <path id="DejaVuSans-32" d="M 1228 531 
L 3431 531 
L 3431 0 
L 469 0 
L 469 531 
Q 828 903 1448 1529 
Q 2069 2156 2228 2338 
Q 2531 2678 2651 2914 
Q 2772 3150 2772 3378 
Q 2772 3750 2511 3984 
Q 2250 4219 1831 4219 
Q 1534 4219 1204 4116 
Q 875 4013 500 3803 
L 500 4441 
Q 881 4594 1212 4672 
Q 1544 4750 1819 4750 
Q 2544 4750 2975 4387 
Q 3406 4025 3406 3419 
Q 3406 3131 3298 2873 
Q 3191 2616 2906 2266 
Q 2828 2175 2409 1742 
Q 1991 1309 1228 531 
z
" transform="scale(0.015625)"/>
       </defs>
       <use xlink:href="#DejaVuSans-30"/>
       <use xlink:href="#DejaVuSans-2e" x="63.623047"/>
       <use xlink:href="#DejaVuSans-32" x="95.410156"/>
      </g>
     </g>
    </g>
    <g id="xtick_3">
     <g id="line2d_3">
      <g>
       <use xlink:href="#mfe8a3d0be9" x="189.875795" y="273.312" style="stroke: #000000; stroke-width: 0.8"/>
      </g>
     </g>
     <g id="text_3">
      <!-- 0.4 -->
      <g transform="translate(181.924233 287.910437)scale(0.1 -0.1)">
       <defs>
        <path id="DejaVuSans-34" d="M 2419 4116 
L 825 1625 
L 2419 1625 
L 2419 4116 
z
M 2253 4666 
L 3047 4666 
L 3047 1625 
L 3713 1625 
L 3713 1100 
L 3047 1100 
L 3047 0 
L 2419 0 
L 2419 1100 
L 313 1100 
L 313 1709 
L 2253 4666 
z
" transform="scale(0.015625)"/>
       </defs>
       <use xlink:href="#DejaVuSans-30"/>
       <use xlink:href="#DejaVuSans-2e" x="63.623047"/>
       <use xlink:href="#DejaVuSans-34" x="95.410156"/>
      </g>
     </g>
    </g>
    <g id="xtick_4">
     <g id="line2d_4">
      <g>
       <use xlink:href="#mfe8a3d0be9" x="254.806705" y="273.312" style="stroke: #000000; stroke-width: 0.8"/>
      </g>
     </g>
     <g id="text_4">
      <!-- 0.6 -->
      <g transform="translate(246.855142 287.910437)scale(0.1 -0.1)">
       <defs>
        <path id="DejaVuSans-36" d="M 2113 2584 
Q 1688 2584 1439 2293 
Q 1191 2003 1191 1497 
Q 1191 994 1439 701 
Q 1688 409 2113 409 
Q 2538 409 2786 701 
Q 3034 994 3034 1497 
Q 3034 2003 2786 2293 
Q 2538 2584 2113 2584 
z
M 3366 4563 
L 3366 3988 
Q 3128 4100 2886 4159 
Q 2644 4219 2406 4219 
Q 1781 4219 1451 3797 
Q 1122 3375 1075 2522 
Q 1259 2794 1537 2939 
Q 1816 3084 2150 3084 
Q 2853 3084 3261 2657 
Q 3669 2231 3669 1497 
Q 3669 778 3244 343 
Q 2819 -91 2113 -91 
Q 1303 -91 875 529 
Q 447 1150 447 2328 
Q 447 3434 972 4092 
Q 1497 4750 2381 4750 
Q 2619 4750 2861 4703 
Q 3103 4656 3366 4563 
z
" transform="scale(0.015625)"/>
       </defs>
       <use xlink:href="#DejaVuSans-30"/>
       <use xlink:href="#DejaVuSans-2e" x="63.623047"/>
       <use xlink:href="#DejaVuSans-36" x="95.410156"/>
      </g>
     </g>
    </g>
    <g id="xtick_5">
     <g id="line2d_5">
      <g>
       <use xlink:href="#mfe8a3d0be9" x="319.737614" y="273.312" style="stroke: #000000; stroke-width: 0.8"/>
      </g>
     </g>
     <g id="text_5">
      <!-- 0.8 -->
      <g transform="translate(311.786051 287.910437)scale(0.1 -0.1)">
       <defs>
        <path id="DejaVuSans-38" d="M 2034 2216 
Q 1584 2216 1326 1975 
Q 1069 1734 1069 1313 
Q 1069 891 1326 650 
Q 1584 409 2034 409 
Q 2484 409 2743 651 
Q 3003 894 3003 1313 
Q 3003 1734 2745 1975 
Q 2488 2216 2034 2216 
z
M 1403 2484 
Q 997 2584 770 2862 
Q 544 3141 544 3541 
Q 544 4100 942 4425 
Q 1341 4750 2034 4750 
Q 2731 4750 3128 4425 
Q 3525 4100 3525 3541 
Q 3525 3141 3298 2862 
Q 3072 2584 2669 2484 
Q 3125 2378 3379 2068 
Q 3634 1759 3634 1313 
Q 3634 634 3220 271 
Q 2806 -91 2034 -91 
Q 1263 -91 848 271 
Q 434 634 434 1313 
Q 434 1759 690 2068 
Q 947 2378 1403 2484 
z
M 1172 3481 
Q 1172 3119 1398 2916 
Q 1625 2713 2034 2713 
Q 2441 2713 2670 2916 
Q 2900 3119 2900 3481 
Q 2900 3844 2670 4047 
Q 2441 4250 2034 4250 
Q 1625 4250 1398 4047 
Q 1172 3844 1172 3481 
z
" transform="scale(0.015625)"/>
       </defs>
       <use xlink:href="#DejaVuSans-30"/>
       <use xlink:href="#DejaVuSans-2e" x="63.623047"/>
       <use xlink:href="#DejaVuSans-38" x="95.410156"/>
      </g>
     </g>
    </g>
    <g id="xtick_6">
     <g id="line2d_6">
      <g>
       <use xlink:href="#mfe8a3d0be9" x="384.668523" y="273.312" style="stroke: #000000; stroke-width: 0.8"/>
      </g>
     </g>
     <g id="text_6">
      <!-- 1.0 -->
      <g transform="translate(376.71696 287.910437)scale(0.1 -0.1)">
       <defs>
        <path id="DejaVuSans-31" d="M 794 531 
L 1825 531 
L 1825 4091 
L 703 3866 
L 703 4441 
L 1819 4666 
L 2450 4666 
L 2450 531 
L 3481 531 
L 3481 0 
L 794 0 
L 794 531 
z
" transform="scale(0.015625)"/>
       </defs>
       <use xlink:href="#DejaVuSans-31"/>
       <use xlink:href="#DejaVuSans-2e" x="63.623047"/>
       <use xlink:href="#DejaVuSans-30" x="95.410156"/>
      </g>
     </g>
    </g>
    <g id="text_7">
     <!-- Propagation direction -->
     <g transform="translate(168.859219 301.588562)scale(0.1 -0.1)">
      <defs>
       <path id="DejaVuSans-50" d="M 1259 4147 
L 1259 2394 
L 2053 2394 
Q 2494 2394 2734 2622 
Q 2975 2850 2975 3272 
Q 2975 3691 2734 3919 
Q 2494 4147 2053 4147 
L 1259 4147 
z
M 628 4666 
L 2053 4666 
Q 2838 4666 3239 4311 
Q 3641 3956 3641 3272 
Q 3641 2581 3239 2228 
Q 2838 1875 2053 1875 
L 1259 1875 
L 1259 0 
L 628 0 
L 628 4666 
z
" transform="scale(0.015625)"/>
       <path id="DejaVuSans-72" d="M 2631 2963 
Q 2534 3019 2420 3045 
Q 2306 3072 2169 3072 
Q 1681 3072 1420 2755 
Q 1159 2438 1159 1844 
L 1159 0 
L 581 0 
L 581 3500 
L 1159 3500 
L 1159 2956 
Q 1341 3275 1631 3429 
Q 1922 3584 2338 3584 
Q 2397 3584 2469 3576 
Q 2541 3569 2628 3553 
L 2631 2963 
z
" transform="scale(0.015625)"/>
       <path id="DejaVuSans-6f" d="M 1959 3097 
Q 1497 3097 1228 2736 
Q 959 2375 959 1747 
Q 959 1119 1226 758 
Q 1494 397 1959 397 
Q 2419 397 2687 759 
Q 2956 1122 2956 1747 
Q 2956 2369 2687 2733 
Q 2419 3097 1959 3097 
z
M 1959 3584 
Q 2709 3584 3137 3096 
Q 3566 2609 3566 1747 
Q 3566 888 3137 398 
Q 2709 -91 1959 -91 
Q 1206 -91 779 398 
Q 353 888 353 1747 
Q 353 2609 779 3096 
Q 1206 3584 1959 3584 
z
" transform="scale(0.015625)"/>
       <path id="DejaVuSans-70" d="M 1159 525 
L 1159 -1331 
L 581 -1331 
L 581 3500 
L 1159 3500 
L 1159 2969 
Q 1341 3281 1617 3432 
Q 1894 3584 2278 3584 
Q 2916 3584 3314 3078 
Q 3713 2572 3713 1747 
Q 3713 922 3314 415 
Q 2916 -91 2278 -91 
Q 1894 -91 1617 61 
Q 1341 213 1159 525 
z
M 3116 1747 
Q 3116 2381 2855 2742 
Q 2594 3103 2138 3103 
Q 1681 3103 1420 2742 
Q 1159 2381 1159 1747 
Q 1159 1113 1420 752 
Q 1681 391 2138 391 
Q 2594 391 2855 752 
Q 3116 1113 3116 1747 
z
" transform="scale(0.015625)"/>
       <path id="DejaVuSans-61" d="M 2194 1759 
Q 1497 1759 1228 1600 
Q 959 1441 959 1056 
Q 959 750 1161 570 
Q 1363 391 1709 391 
Q 2188 391 2477 730 
Q 2766 1069 2766 1631 
L 2766 1759 
L 2194 1759 
z
M 3341 1997 
L 3341 0 
L 2766 0 
L 2766 531 
Q 2569 213 2275 61 
Q 1981 -91 1556 -91 
Q 1019 -91 701 211 
Q 384 513 384 1019 
Q 384 1609 779 1909 
Q 1175 2209 1959 2209 
L 2766 2209 
L 2766 2266 
Q 2766 2663 2505 2880 
Q 2244 3097 1772 3097 
Q 1472 3097 1187 3025 
Q 903 2953 641 2809 
L 641 3341 
Q 956 3463 1253 3523 
Q 1550 3584 1831 3584 
Q 2591 3584 2966 3190 
Q 3341 2797 3341 1997 
z
" transform="scale(0.015625)"/>
       <path id="DejaVuSans-67" d="M 2906 1791 
Q 2906 2416 2648 2759 
Q 2391 3103 1925 3103 
Q 1463 3103 1205 2759 
Q 947 2416 947 1791 
Q 947 1169 1205 825 
Q 1463 481 1925 481 
Q 2391 481 2648 825 
Q 2906 1169 2906 1791 
z
M 3481 434 
Q 3481 -459 3084 -895 
Q 2688 -1331 1869 -1331 
Q 1566 -1331 1297 -1286 
Q 1028 -1241 775 -1147 
L 775 -588 
Q 1028 -725 1275 -790 
Q 1522 -856 1778 -856 
Q 2344 -856 2625 -561 
Q 2906 -266 2906 331 
L 2906 616 
Q 2728 306 2450 153 
Q 2172 0 1784 0 
Q 1141 0 747 490 
Q 353 981 353 1791 
Q 353 2603 747 3093 
Q 1141 3584 1784 3584 
Q 2172 3584 2450 3431 
Q 2728 3278 2906 2969 
L 2906 3500 
L 3481 3500 
L 3481 434 
z
" transform="scale(0.015625)"/>
       <path id="DejaVuSans-74" d="M 1172 4494 
L 1172 3500 
L 2356 3500 
L 2356 3053 
L 1172 3053 
L 1172 1153 
Q 1172 725 1289 603 
Q 1406 481 1766 481 
L 2356 481 
L 2356 0 
L 1766 0 
Q 1100 0 847 248 
Q 594 497 594 1153 
L 594 3053 
L 172 3053 
L 172 3500 
L 594 3500 
L 594 4494 
L 1172 4494 
z
" transform="scale(0.015625)"/>
       <path id="DejaVuSans-69" d="M 603 3500 
L 1178 3500 
L 1178 0 
L 603 0 
L 603 3500 
z
M 603 4863 
L 1178 4863 
L 1178 4134 
L 603 4134 
L 603 4863 
z
" transform="scale(0.015625)"/>
       <path id="DejaVuSans-6e" d="M 3513 2113 
L 3513 0 
L 2938 0 
L 2938 2094 
Q 2938 2591 2744 2837 
Q 2550 3084 2163 3084 
Q 1697 3084 1428 2787 
Q 1159 2491 1159 1978 
L 1159 0 
L 581 0 
L 581 3500 
L 1159 3500 
L 1159 2956 
Q 1366 3272 1645 3428 
Q 1925 3584 2291 3584 
Q 2894 3584 3203 3211 
Q 3513 2838 3513 2113 
z
" transform="scale(0.015625)"/>
       <path id="DejaVuSans-20" transform="scale(0.015625)"/>
       <path id="DejaVuSans-64" d="M 2906 2969 
L 2906 4863 
L 3481 4863 
L 3481 0 
L 2906 0 
L 2906 525 
Q 2725 213 2448 61 
Q 2172 -91 1784 -91 
Q 1150 -91 751 415 
Q 353 922 353 1747 
Q 353 2572 751 3078 
Q 1150 3584 1784 3584 
Q 2172 3584 2448 3432 
Q 2725 3281 2906 2969 
z
M 947 1747 
Q 947 1113 1208 752 
Q 1469 391 1925 391 
Q 2381 391 2643 752 
Q 2906 1113 2906 1747 
Q 2906 2381 2643 2742 
Q 2381 3103 1925 3103 
Q 1469 3103 1208 2742 
Q 947 2381 947 1747 
z
" transform="scale(0.015625)"/>
       <path id="DejaVuSans-65" d="M 3597 1894 
L 3597 1613 
L 953 1613 
Q 991 1019 1311 708 
Q 1631 397 2203 397 
Q 2534 397 2845 478 
Q 3156 559 3463 722 
L 3463 178 
Q 3153 47 2828 -22 
Q 2503 -91 2169 -91 
Q 1331 -91 842 396 
Q 353 884 353 1716 
Q 353 2575 817 3079 
Q 1281 3584 2069 3584 
Q 2775 3584 3186 3129 
Q 3597 2675 3597 1894 
z
M 3022 2063 
Q 3016 2534 2758 2815 
Q 2500 3097 2075 3097 
Q 1594 3097 1305 2825 
Q 1016 2553 972 2059 
L 3022 2063 
z
" transform="scale(0.015625)"/>
       <path id="DejaVuSans-63" d="M 3122 3366 
L 3122 2828 
Q 2878 2963 2633 3030 
Q 2388 3097 2138 3097 
Q 1578 3097 1268 2742 
Q 959 2388 959 1747 
Q 959 1106 1268 751 
Q 1578 397 2138 397 
Q 2388 397 2633 464 
Q 2878 531 3122 666 
L 3122 134 
Q 2881 22 2623 -34 
Q 2366 -91 2075 -91 
Q 1284 -91 818 406 
Q 353 903 353 1747 
Q 353 2603 823 3093 
Q 1294 3584 2113 3584 
Q 2378 3584 2631 3529 
Q 2884 3475 3122 3366 
z
" transform="scale(0.015625)"/>
      </defs>
      <use xlink:href="#DejaVuSans-50"/>
      <use xlink:href="#DejaVuSans-72" x="58.552734"/>
      <use xlink:href="#DejaVuSans-6f" x="97.416016"/>
      <use xlink:href="#DejaVuSans-70" x="158.597656"/>
      <use xlink:href="#DejaVuSans-61" x="222.074219"/>
      <use xlink:href="#DejaVuSans-67" x="283.353516"/>
      <use xlink:href="#DejaVuSans-61" x="346.830078"/>
      <use xlink:href="#DejaVuSans-74" x="408.109375"/>
      <use xlink:href="#DejaVuSans-69" x="447.318359"/>
      <use xlink:href="#DejaVuSans-6f" x="475.101562"/>
      <use xlink:href="#DejaVuSans-6e" x="536.283203"/>
      <use xlink:href="#DejaVuSans-20" x="599.662109"/>
      <use xlink:href="#DejaVuSans-64" x="631.449219"/>
      <use xlink:href="#DejaVuSans-69" x="694.925781"/>
      <use xlink:href="#DejaVuSans-72" x="722.708984"/>
      <use xlink:href="#DejaVuSans-65" x="761.572266"/>
      <use xlink:href="#DejaVuSans-63" x="823.095703"/>
      <use xlink:href="#DejaVuSans-74" x="878.076172"/>
      <use xlink:href="#DejaVuSans-69" x="917.285156"/>
      <use xlink:href="#DejaVuSans-6f" x="945.068359"/>
      <use xlink:href="#DejaVuSans-6e" x="1006.25"/>
     </g>
    </g>
   </g>
   <g id="matplotlib.axis_2">
    <g id="ytick_1">
     <g id="line2d_7">
      <defs>
       <path id="m668aa81413" d="M 0 0 
L -3.5 0 
" style="stroke: #000000; stroke-width: 0.8"/>
      </defs>
      <g>
       <use xlink:href="#m668aa81413" x="43.78125" y="273.312" style="stroke: #000000; stroke-width: 0.8"/>
      </g>
     </g>
     <g id="text_8">
      <!-- 0.0 -->
      <g transform="translate(20.878125 277.111219)scale(0.1 -0.1)">
       <use xlink:href="#DejaVuSans-30"/>
       <use xlink:href="#DejaVuSans-2e" x="63.623047"/>
       <use xlink:href="#DejaVuSans-30" x="95.410156"/>
      </g>
     </g>
    </g>
    <g id="ytick_2">
     <g id="line2d_8">
      <g>
       <use xlink:href="#m668aa81413" x="43.78125" y="214.496063" style="stroke: #000000; stroke-width: 0.8"/>
      </g>
     </g>
     <g id="text_9">
      <!-- 0.5 -->
      <g transform="translate(20.878125 218.295282)scale(0.1 -0.1)">
       <defs>
        <path id="DejaVuSans-35" d="M 691 4666 
L 3169 4666 
L 3169 4134 
L 1269 4134 
L 1269 2991 
Q 1406 3038 1543 3061 
Q 1681 3084 1819 3084 
Q 2600 3084 3056 2656 
Q 3513 2228 3513 1497 
Q 3513 744 3044 326 
Q 2575 -91 1722 -91 
Q 1428 -91 1123 -41 
Q 819 9 494 109 
L 494 744 
Q 775 591 1075 516 
Q 1375 441 1709 441 
Q 2250 441 2565 725 
Q 2881 1009 2881 1497 
Q 2881 1984 2565 2268 
Q 2250 2553 1709 2553 
Q 1456 2553 1204 2497 
Q 953 2441 691 2322 
L 691 4666 
z
" transform="scale(0.015625)"/>
       </defs>
       <use xlink:href="#DejaVuSans-30"/>
       <use xlink:href="#DejaVuSans-2e" x="63.623047"/>
       <use xlink:href="#DejaVuSans-35" x="95.410156"/>
      </g>
     </g>
    </g>
    <g id="ytick_3">
     <g id="line2d_9">
      <g>
       <use xlink:href="#m668aa81413" x="43.78125" y="155.680126" style="stroke: #000000; stroke-width: 0.8"/>
      </g>
     </g>
     <g id="text_10">
      <!-- 1.0 -->
      <g transform="translate(20.878125 159.479344)scale(0.1 -0.1)">
       <use xlink:href="#DejaVuSans-31"/>
       <use xlink:href="#DejaVuSans-2e" x="63.623047"/>
       <use xlink:href="#DejaVuSans-30" x="95.410156"/>
      </g>
     </g>
    </g>
    <g id="ytick_4">
     <g id="line2d_10">
      <g>
       <use xlink:href="#m668aa81413" x="43.78125" y="96.864188" style="stroke: #000000; stroke-width: 0.8"/>
      </g>
     </g>
     <g id="text_11">
      <!-- 1.5 -->
      <g transform="translate(20.878125 100.663407)scale(0.1 -0.1)">
       <use xlink:href="#DejaVuSans-31"/>
       <use xlink:href="#DejaVuSans-2e" x="63.623047"/>
       <use xlink:href="#DejaVuSans-35" x="95.410156"/>
      </g>
     </g>
    </g>
    <g id="ytick_5">
     <g id="line2d_11">
      <g>
       <use xlink:href="#m668aa81413" x="43.78125" y="38.048251" style="stroke: #000000; stroke-width: 0.8"/>
      </g>
     </g>
     <g id="text_12">
      <!-- 2.0 -->
      <g transform="translate(20.878125 41.84747)scale(0.1 -0.1)">
       <use xlink:href="#DejaVuSans-32"/>
       <use xlink:href="#DejaVuSans-2e" x="63.623047"/>
       <use xlink:href="#DejaVuSans-30" x="95.410156"/>
      </g>
     </g>
    </g>
    <g id="text_13">
     <!-- Probability density -->
     <g transform="translate(14.798438 186.606781)rotate(-90)scale(0.1 -0.1)">
      <defs>
       <path id="DejaVuSans-62" d="M 3116 1747 
Q 3116 2381 2855 2742 
Q 2594 3103 2138 3103 
Q 1681 3103 1420 2742 
Q 1159 2381 1159 1747 
Q 1159 1113 1420 752 
Q 1681 391 2138 391 
Q 2594 391 2855 752 
Q 3116 1113 3116 1747 
z
M 1159 2969 
Q 1341 3281 1617 3432 
Q 1894 3584 2278 3584 
Q 2916 3584 3314 3078 
Q 3713 2572 3713 1747 
Q 3713 922 3314 415 
Q 2916 -91 2278 -91 
Q 1894 -91 1617 61 
Q 1341 213 1159 525 
L 1159 0 
L 581 0 
L 581 4863 
L 1159 4863 
L 1159 2969 
z
" transform="scale(0.015625)"/>
       <path id="DejaVuSans-6c" d="M 603 4863 
L 1178 4863 
L 1178 0 
L 603 0 
L 603 4863 
z
" transform="scale(0.015625)"/>
       <path id="DejaVuSans-79" d="M 2059 -325 
Q 1816 -950 1584 -1140 
Q 1353 -1331 966 -1331 
L 506 -1331 
L 506 -850 
L 844 -850 
Q 1081 -850 1212 -737 
Q 1344 -625 1503 -206 
L 1606 56 
L 191 3500 
L 800 3500 
L 1894 763 
L 2988 3500 
L 3597 3500 
L 2059 -325 
z
" transform="scale(0.015625)"/>
       <path id="DejaVuSans-73" d="M 2834 3397 
L 2834 2853 
Q 2591 2978 2328 3040 
Q 2066 3103 1784 3103 
Q 1356 3103 1142 2972 
Q 928 2841 928 2578 
Q 928 2378 1081 2264 
Q 1234 2150 1697 2047 
L 1894 2003 
Q 2506 1872 2764 1633 
Q 3022 1394 3022 966 
Q 3022 478 2636 193 
Q 2250 -91 1575 -91 
Q 1294 -91 989 -36 
Q 684 19 347 128 
L 347 722 
Q 666 556 975 473 
Q 1284 391 1588 391 
Q 1994 391 2212 530 
Q 2431 669 2431 922 
Q 2431 1156 2273 1281 
Q 2116 1406 1581 1522 
L 1381 1569 
Q 847 1681 609 1914 
Q 372 2147 372 2553 
Q 372 3047 722 3315 
Q 1072 3584 1716 3584 
Q 2034 3584 2315 3537 
Q 2597 3491 2834 3397 
z
" transform="scale(0.015625)"/>
      </defs>
      <use xlink:href="#DejaVuSans-50"/>
      <use xlink:href="#DejaVuSans-72" x="58.552734"/>
      <use xlink:href="#DejaVuSans-6f" x="97.416016"/>
      <use xlink:href="#DejaVuSans-62" x="158.597656"/>
      <use xlink:href="#DejaVuSans-61" x="222.074219"/>
      <use xlink:href="#DejaVuSans-62" x="283.353516"/>
      <use xlink:href="#DejaVuSans-69" x="346.830078"/>
      <use xlink:href="#DejaVuSans-6c" x="374.613281"/>
      <use xlink:href="#DejaVuSans-69" x="402.396484"/>
      <use xlink:href="#DejaVuSans-74" x="430.179688"/>
      <use xlink:href="#DejaVuSans-79" x="469.388672"/>
      <use xlink:href="#DejaVuSans-20" x="528.568359"/>
      <use xlink:href="#DejaVuSans-64" x="560.355469"/>
      <use xlink:href="#DejaVuSans-65" x="623.832031"/>
      <use xlink:href="#DejaVuSans-6e" x="685.355469"/>
      <use xlink:href="#DejaVuSans-73" x="748.734375"/>
      <use xlink:href="#DejaVuSans-69" x="800.833984"/>
      <use xlink:href="#DejaVuSans-74" x="828.617188"/>
      <use xlink:href="#DejaVuSans-79" x="867.826172"/>
     </g>
    </g>
   </g>
   <g id="line2d_12">
    <path d="M 60.013977 273.312 
L 384.668523 38.048251 
L 384.668523 38.048251 
" clip-path="url(#p9fb06e074b)" style="fill: none; stroke: #ff7f0e; stroke-width: 1.5; stroke-linecap: square"/>
   </g>
   <g id="patch_203">
    <path d="M 43.78125 273.312 
L 43.78125 7.2 
" style="fill: none; stroke: #000000; stroke-width: 0.8; stroke-linejoin: miter; stroke-linecap: square"/>
   </g>
   <g id="patch_204">
    <path d="M 400.90125 273.312 
L 400.90125 7.2 
" style="fill: none; stroke: #000000; stroke-width: 0.8; stroke-linejoin: miter; stroke-linecap: square"/>
   </g>
   <g id="patch_205">
    <path d="M 43.78125 273.312 
L 400.90125 273.312 
" style="fill: none; stroke: #000000; stroke-width: 0.8; stroke-linejoin: miter; stroke-linecap: square"/>
   </g>
   <g id="patch_206">
    <path d="M 43.78125 7.2 
L 400.90125 7.2 
" style="fill: none; stroke: #000000; stroke-width: 0.8; stroke-linejoin: miter; stroke-linecap: square"/>
   </g>
  </g>
 </g>
 <defs>
  <clipPath id="p9fb06e074b">
   <rect x="43.78125" y="7.2" width="357.12" height="266.112"/>
  </clipPath>
 </defs>
</svg>
