<?xml version="1.0" encoding="utf-8" standalone="no"?>
<!DOCTYPE svg PUBLIC "-//W3C//DTD SVG 1.1//EN"
  "http://www.w3.org/Graphics/SVG/1.1/DTD/svg11.dtd">
<svg xmlns:xlink="http://www.w3.org/1999/xlink" width="408.10125pt" height="310.86825pt" viewBox="0 0 408.10125 310.86825" xmlns="http://www.w3.org/2000/svg" version="1.1">
 <metadata>
  <rdf:RDF xmlns:dc="http://purl.org/dc/elements/1.1/" xmlns:cc="http://creativecommons.org/ns#" xmlns:rdf="http://www.w3.org/1999/02/22-rdf-syntax-ns#">
   <cc:Work>
    <dc:type rdf:resource="http://purl.org/dc/dcmitype/StillImage"/>
    <dc:date>2022-03-02T10:15:50.764552</dc:date>
    <dc:format>image/svg+xml</dc:format>
    <dc:creator>
     <cc:Agent>
      <dc:title>Matplotlib v3.5.1, https://matplotlib.org/</dc:title>
     </cc:Agent>
    </dc:creator>
   </cc:Work>
  </rdf:RDF>
 </metadata>
 <defs>
  <style type="text/css">*{stroke-linejoin: round; stroke-linecap: butt}</style>
 </defs>
 <g id="figure_1">
  <g id="patch_1">
   <path d="M 0 310.86825 
L 408.10125 310.86825 
L 408.10125 0 
L 0 0 
z
" style="fill: #ffffff"/>
  </g>
  <g id="axes_1">
   <g id="patch_2">
    <path d="M 43.78125 273.312 
L 400.90125 273.312 
L 400.90125 7.2 
L 43.78125 7.2 
z
" style="fill: #ffffff"/>
   </g>
   <g id="patch_3">
    <path d="M 61.482898 273.312 
L 63.098801 273.312 
L 63.098801 271.568147 
L 61.482898 271.568147 
z
" clip-path="url(#p477b45f615)" style="fill: #1f77b4"/>
   </g>
   <g id="patch_4">
    <path d="M 63.098801 273.312 
L 64.714704 273.312 
L 64.714704 273.312 
L 63.098801 273.312 
z
" clip-path="url(#p477b45f615)" style="fill: #1f77b4"/>
   </g>
   <g id="patch_5">
    <path d="M 64.714704 273.312 
L 66.330607 273.312 
L 66.330607 269.243009 
L 64.714704 269.243009 
z
" clip-path="url(#p477b45f615)" style="fill: #1f77b4"/>
   </g>
   <g id="patch_6">
    <path d="M 66.330607 273.312 
L 67.94651 273.312 
L 67.94651 268.08044 
L 66.330607 268.08044 
z
" clip-path="url(#p477b45f615)" style="fill: #1f77b4"/>
   </g>
   <g id="patch_7">
    <path d="M 67.94651 273.312 
L 69.562413 273.312 
L 69.562413 270.405578 
L 67.94651 270.405578 
z
" clip-path="url(#p477b45f615)" style="fill: #1f77b4"/>
   </g>
   <g id="patch_8">
    <path d="M 69.562413 273.312 
L 71.178316 273.312 
L 71.178316 264.01145 
L 69.562413 264.01145 
z
" clip-path="url(#p477b45f615)" style="fill: #1f77b4"/>
   </g>
   <g id="patch_9">
    <path d="M 71.178316 273.312 
L 72.794219 273.312 
L 72.794219 264.592734 
L 71.178316 264.592734 
z
" clip-path="url(#p477b45f615)" style="fill: #1f77b4"/>
   </g>
   <g id="patch_10">
    <path d="M 72.794219 273.312 
L 74.410123 273.312 
L 74.410123 262.848881 
L 72.794219 262.848881 
z
" clip-path="url(#p477b45f615)" style="fill: #1f77b4"/>
   </g>
   <g id="patch_11">
    <path d="M 74.410123 273.312 
L 76.026026 273.312 
L 76.026026 261.105028 
L 74.410123 261.105028 
z
" clip-path="url(#p477b45f615)" style="fill: #1f77b4"/>
   </g>
   <g id="patch_12">
    <path d="M 76.026026 273.312 
L 77.641929 273.312 
L 77.641929 259.361174 
L 76.026026 259.361174 
z
" clip-path="url(#p477b45f615)" style="fill: #1f77b4"/>
   </g>
   <g id="patch_13">
    <path d="M 77.641929 273.312 
L 79.257832 273.312 
L 79.257832 263.430165 
L 77.641929 263.430165 
z
" clip-path="url(#p477b45f615)" style="fill: #1f77b4"/>
   </g>
   <g id="patch_14">
    <path d="M 79.257832 273.312 
L 80.873735 273.312 
L 80.873735 252.385761 
L 79.257832 252.385761 
z
" clip-path="url(#p477b45f615)" style="fill: #1f77b4"/>
   </g>
   <g id="patch_15">
    <path d="M 80.873735 273.312 
L 82.489638 273.312 
L 82.489638 254.710899 
L 80.873735 254.710899 
z
" clip-path="url(#p477b45f615)" style="fill: #1f77b4"/>
   </g>
   <g id="patch_16">
    <path d="M 82.489638 273.312 
L 84.105541 273.312 
L 84.105541 259.361174 
L 82.489638 259.361174 
z
" clip-path="url(#p477b45f615)" style="fill: #1f77b4"/>
   </g>
   <g id="patch_17">
    <path d="M 84.105541 273.312 
L 85.721444 273.312 
L 85.721444 259.942459 
L 84.105541 259.942459 
z
" clip-path="url(#p477b45f615)" style="fill: #1f77b4"/>
   </g>
   <g id="patch_18">
    <path d="M 85.721444 273.312 
L 87.337347 273.312 
L 87.337347 254.710899 
L 85.721444 254.710899 
z
" clip-path="url(#p477b45f615)" style="fill: #1f77b4"/>
   </g>
   <g id="patch_19">
    <path d="M 87.337347 273.312 
L 88.95325 273.312 
L 88.95325 255.292183 
L 87.337347 255.292183 
z
" clip-path="url(#p477b45f615)" style="fill: #1f77b4"/>
   </g>
   <g id="patch_20">
    <path d="M 88.95325 273.312 
L 90.569153 273.312 
L 90.569153 252.967046 
L 88.95325 252.967046 
z
" clip-path="url(#p477b45f615)" style="fill: #1f77b4"/>
   </g>
   <g id="patch_21">
    <path d="M 90.569153 273.312 
L 92.185056 273.312 
L 92.185056 262.267596 
L 90.569153 262.267596 
z
" clip-path="url(#p477b45f615)" style="fill: #1f77b4"/>
   </g>
   <g id="patch_22">
    <path d="M 92.185056 273.312 
L 93.800959 273.312 
L 93.800959 241.341358 
L 92.185056 241.341358 
z
" clip-path="url(#p477b45f615)" style="fill: #1f77b4"/>
   </g>
   <g id="patch_23">
    <path d="M 93.800959 273.312 
L 95.416862 273.312 
L 95.416862 244.24778 
L 93.800959 244.24778 
z
" clip-path="url(#p477b45f615)" style="fill: #1f77b4"/>
   </g>
   <g id="patch_24">
    <path d="M 95.416862 273.312 
L 97.032765 273.312 
L 97.032765 244.24778 
L 95.416862 244.24778 
z
" clip-path="url(#p477b45f615)" style="fill: #1f77b4"/>
   </g>
   <g id="patch_25">
    <path d="M 97.032765 273.312 
L 98.648668 273.312 
L 98.648668 247.735486 
L 97.032765 247.735486 
z
" clip-path="url(#p477b45f615)" style="fill: #1f77b4"/>
   </g>
   <g id="patch_26">
    <path d="M 98.648668 273.312 
L 100.264571 273.312 
L 100.264571 240.178789 
L 98.648668 240.178789 
z
" clip-path="url(#p477b45f615)" style="fill: #1f77b4"/>
   </g>
   <g id="patch_27">
    <path d="M 100.264571 273.312 
L 101.880474 273.312 
L 101.880474 245.991633 
L 100.264571 245.991633 
z
" clip-path="url(#p477b45f615)" style="fill: #1f77b4"/>
   </g>
   <g id="patch_28">
    <path d="M 101.880474 273.312 
L 103.496377 273.312 
L 103.496377 244.24778 
L 101.880474 244.24778 
z
" clip-path="url(#p477b45f615)" style="fill: #1f77b4"/>
   </g>
   <g id="patch_29">
    <path d="M 103.496377 273.312 
L 105.11228 273.312 
L 105.11228 244.829064 
L 103.496377 244.829064 
z
" clip-path="url(#p477b45f615)" style="fill: #1f77b4"/>
   </g>
   <g id="patch_30">
    <path d="M 105.11228 273.312 
L 106.728183 273.312 
L 106.728183 234.365945 
L 105.11228 234.365945 
z
" clip-path="url(#p477b45f615)" style="fill: #1f77b4"/>
   </g>
   <g id="patch_31">
    <path d="M 106.728183 273.312 
L 108.344086 273.312 
L 108.344086 236.691083 
L 106.728183 236.691083 
z
" clip-path="url(#p477b45f615)" style="fill: #1f77b4"/>
   </g>
   <g id="patch_32">
    <path d="M 108.344086 273.312 
L 109.959989 273.312 
L 109.959989 233.784661 
L 108.344086 233.784661 
z
" clip-path="url(#p477b45f615)" style="fill: #1f77b4"/>
   </g>
   <g id="patch_33">
    <path d="M 109.959989 273.312 
L 111.575892 273.312 
L 111.575892 237.272367 
L 109.959989 237.272367 
z
" clip-path="url(#p477b45f615)" style="fill: #1f77b4"/>
   </g>
   <g id="patch_34">
    <path d="M 111.575892 273.312 
L 113.191795 273.312 
L 113.191795 230.878239 
L 111.575892 230.878239 
z
" clip-path="url(#p477b45f615)" style="fill: #1f77b4"/>
   </g>
   <g id="patch_35">
    <path d="M 113.191795 273.312 
L 114.807698 273.312 
L 114.807698 237.272367 
L 113.191795 237.272367 
z
" clip-path="url(#p477b45f615)" style="fill: #1f77b4"/>
   </g>
   <g id="patch_36">
    <path d="M 114.807698 273.312 
L 116.423601 273.312 
L 116.423601 241.341358 
L 114.807698 241.341358 
z
" clip-path="url(#p477b45f615)" style="fill: #1f77b4"/>
   </g>
   <g id="patch_37">
    <path d="M 116.423601 273.312 
L 118.039504 273.312 
L 118.039504 227.390532 
L 116.423601 227.390532 
z
" clip-path="url(#p477b45f615)" style="fill: #1f77b4"/>
   </g>
   <g id="patch_38">
    <path d="M 118.039504 273.312 
L 119.655407 273.312 
L 119.655407 230.878239 
L 118.039504 230.878239 
z
" clip-path="url(#p477b45f615)" style="fill: #1f77b4"/>
   </g>
   <g id="patch_39">
    <path d="M 119.655407 273.312 
L 121.27131 273.312 
L 121.27131 231.459523 
L 119.655407 231.459523 
z
" clip-path="url(#p477b45f615)" style="fill: #1f77b4"/>
   </g>
   <g id="patch_40">
    <path d="M 121.27131 273.312 
L 122.887213 273.312 
L 122.887213 230.296954 
L 121.27131 230.296954 
z
" clip-path="url(#p477b45f615)" style="fill: #1f77b4"/>
   </g>
   <g id="patch_41">
    <path d="M 122.887213 273.312 
L 124.503116 273.312 
L 124.503116 233.203376 
L 122.887213 233.203376 
z
" clip-path="url(#p477b45f615)" style="fill: #1f77b4"/>
   </g>
   <g id="patch_42">
    <path d="M 124.503116 273.312 
L 126.119019 273.312 
L 126.119019 221.577688 
L 124.503116 221.577688 
z
" clip-path="url(#p477b45f615)" style="fill: #1f77b4"/>
   </g>
   <g id="patch_43">
    <path d="M 126.119019 273.312 
L 127.734922 273.312 
L 127.734922 227.971817 
L 126.119019 227.971817 
z
" clip-path="url(#p477b45f615)" style="fill: #1f77b4"/>
   </g>
   <g id="patch_44">
    <path d="M 127.734922 273.312 
L 129.350825 273.312 
L 129.350825 222.158972 
L 127.734922 222.158972 
z
" clip-path="url(#p477b45f615)" style="fill: #1f77b4"/>
   </g>
   <g id="patch_45">
    <path d="M 129.350825 273.312 
L 130.966728 273.312 
L 130.966728 225.065394 
L 129.350825 225.065394 
z
" clip-path="url(#p477b45f615)" style="fill: #1f77b4"/>
   </g>
   <g id="patch_46">
    <path d="M 130.966728 273.312 
L 132.582631 273.312 
L 132.582631 220.415119 
L 130.966728 220.415119 
z
" clip-path="url(#p477b45f615)" style="fill: #1f77b4"/>
   </g>
   <g id="patch_47">
    <path d="M 132.582631 273.312 
L 134.198535 273.312 
L 134.198535 212.858422 
L 132.582631 212.858422 
z
" clip-path="url(#p477b45f615)" style="fill: #1f77b4"/>
   </g>
   <g id="patch_48">
    <path d="M 134.198535 273.312 
L 135.814438 273.312 
L 135.814438 223.321541 
L 134.198535 223.321541 
z
" clip-path="url(#p477b45f615)" style="fill: #1f77b4"/>
   </g>
   <g id="patch_49">
    <path d="M 135.814438 273.312 
L 137.430341 273.312 
L 137.430341 218.671266 
L 135.814438 218.671266 
z
" clip-path="url(#p477b45f615)" style="fill: #1f77b4"/>
   </g>
   <g id="patch_50">
    <path d="M 137.430341 273.312 
L 139.046244 273.312 
L 139.046244 212.277138 
L 137.430341 212.277138 
z
" clip-path="url(#p477b45f615)" style="fill: #1f77b4"/>
   </g>
   <g id="patch_51">
    <path d="M 139.046244 273.312 
L 140.662147 273.312 
L 140.662147 225.646679 
L 139.046244 225.646679 
z
" clip-path="url(#p477b45f615)" style="fill: #1f77b4"/>
   </g>
   <g id="patch_52">
    <path d="M 140.662147 273.312 
L 142.27805 273.312 
L 142.27805 221.577688 
L 140.662147 221.577688 
z
" clip-path="url(#p477b45f615)" style="fill: #1f77b4"/>
   </g>
   <g id="patch_53">
    <path d="M 142.27805 273.312 
L 143.893953 273.312 
L 143.893953 214.020991 
L 142.27805 214.020991 
z
" clip-path="url(#p477b45f615)" style="fill: #1f77b4"/>
   </g>
   <g id="patch_54">
    <path d="M 143.893953 273.312 
L 145.509856 273.312 
L 145.509856 222.158972 
L 143.893953 222.158972 
z
" clip-path="url(#p477b45f615)" style="fill: #1f77b4"/>
   </g>
   <g id="patch_55">
    <path d="M 145.509856 273.312 
L 147.125759 273.312 
L 147.125759 206.464294 
L 145.509856 206.464294 
z
" clip-path="url(#p477b45f615)" style="fill: #1f77b4"/>
   </g>
   <g id="patch_56">
    <path d="M 147.125759 273.312 
L 148.741662 273.312 
L 148.741662 208.789431 
L 147.125759 208.789431 
z
" clip-path="url(#p477b45f615)" style="fill: #1f77b4"/>
   </g>
   <g id="patch_57">
    <path d="M 148.741662 273.312 
L 150.357565 273.312 
L 150.357565 222.158972 
L 148.741662 222.158972 
z
" clip-path="url(#p477b45f615)" style="fill: #1f77b4"/>
   </g>
   <g id="patch_58">
    <path d="M 150.357565 273.312 
L 151.973468 273.312 
L 151.973468 203.557872 
L 150.357565 203.557872 
z
" clip-path="url(#p477b45f615)" style="fill: #1f77b4"/>
   </g>
   <g id="patch_59">
    <path d="M 151.973468 273.312 
L 153.589371 273.312 
L 153.589371 209.370716 
L 151.973468 209.370716 
z
" clip-path="url(#p477b45f615)" style="fill: #1f77b4"/>
   </g>
   <g id="patch_60">
    <path d="M 153.589371 273.312 
L 155.205274 273.312 
L 155.205274 217.508697 
L 153.589371 217.508697 
z
" clip-path="url(#p477b45f615)" style="fill: #1f77b4"/>
   </g>
   <g id="patch_61">
    <path d="M 155.205274 273.312 
L 156.821177 273.312 
L 156.821177 216.927413 
L 155.205274 216.927413 
z
" clip-path="url(#p477b45f615)" style="fill: #1f77b4"/>
   </g>
   <g id="patch_62">
    <path d="M 156.821177 273.312 
L 158.43708 273.312 
L 158.43708 207.626862 
L 156.821177 207.626862 
z
" clip-path="url(#p477b45f615)" style="fill: #1f77b4"/>
   </g>
   <g id="patch_63">
    <path d="M 158.43708 273.312 
L 160.052983 273.312 
L 160.052983 208.789431 
L 158.43708 208.789431 
z
" clip-path="url(#p477b45f615)" style="fill: #1f77b4"/>
   </g>
   <g id="patch_64">
    <path d="M 160.052983 273.312 
L 161.668886 273.312 
L 161.668886 202.395303 
L 160.052983 202.395303 
z
" clip-path="url(#p477b45f615)" style="fill: #1f77b4"/>
   </g>
   <g id="patch_65">
    <path d="M 161.668886 273.312 
L 163.284789 273.312 
L 163.284789 194.257321 
L 161.668886 194.257321 
z
" clip-path="url(#p477b45f615)" style="fill: #1f77b4"/>
   </g>
   <g id="patch_66">
    <path d="M 163.284789 273.312 
L 164.900692 273.312 
L 164.900692 193.676037 
L 163.284789 193.676037 
z
" clip-path="url(#p477b45f615)" style="fill: #1f77b4"/>
   </g>
   <g id="patch_67">
    <path d="M 164.900692 273.312 
L 166.516595 273.312 
L 166.516595 191.350899 
L 164.900692 191.350899 
z
" clip-path="url(#p477b45f615)" style="fill: #1f77b4"/>
   </g>
   <g id="patch_68">
    <path d="M 166.516595 273.312 
L 168.132498 273.312 
L 168.132498 200.65145 
L 166.516595 200.65145 
z
" clip-path="url(#p477b45f615)" style="fill: #1f77b4"/>
   </g>
   <g id="patch_69">
    <path d="M 168.132498 273.312 
L 169.748401 273.312 
L 169.748401 197.163743 
L 168.132498 197.163743 
z
" clip-path="url(#p477b45f615)" style="fill: #1f77b4"/>
   </g>
   <g id="patch_70">
    <path d="M 169.748401 273.312 
L 171.364304 273.312 
L 171.364304 191.932183 
L 169.748401 191.932183 
z
" clip-path="url(#p477b45f615)" style="fill: #1f77b4"/>
   </g>
   <g id="patch_71">
    <path d="M 171.364304 273.312 
L 172.980207 273.312 
L 172.980207 200.65145 
L 171.364304 200.65145 
z
" clip-path="url(#p477b45f615)" style="fill: #1f77b4"/>
   </g>
   <g id="patch_72">
    <path d="M 172.980207 273.312 
L 174.59611 273.312 
L 174.59611 185.538055 
L 172.980207 185.538055 
z
" clip-path="url(#p477b45f615)" style="fill: #1f77b4"/>
   </g>
   <g id="patch_73">
    <path d="M 174.59611 273.312 
L 176.212013 273.312 
L 176.212013 194.838606 
L 174.59611 194.838606 
z
" clip-path="url(#p477b45f615)" style="fill: #1f77b4"/>
   </g>
   <g id="patch_74">
    <path d="M 176.212013 273.312 
L 177.827916 273.312 
L 177.827916 182.631633 
L 176.212013 182.631633 
z
" clip-path="url(#p477b45f615)" style="fill: #1f77b4"/>
   </g>
   <g id="patch_75">
    <path d="M 177.827916 273.312 
L 179.443819 273.312 
L 179.443819 190.18833 
L 177.827916 190.18833 
z
" clip-path="url(#p477b45f615)" style="fill: #1f77b4"/>
   </g>
   <g id="patch_76">
    <path d="M 179.443819 273.312 
L 181.059722 273.312 
L 181.059722 175.074936 
L 179.443819 175.074936 
z
" clip-path="url(#p477b45f615)" style="fill: #1f77b4"/>
   </g>
   <g id="patch_77">
    <path d="M 181.059722 273.312 
L 182.675625 273.312 
L 182.675625 184.375486 
L 181.059722 184.375486 
z
" clip-path="url(#p477b45f615)" style="fill: #1f77b4"/>
   </g>
   <g id="patch_78">
    <path d="M 182.675625 273.312 
L 184.291528 273.312 
L 184.291528 176.818789 
L 182.675625 176.818789 
z
" clip-path="url(#p477b45f615)" style="fill: #1f77b4"/>
   </g>
   <g id="patch_79">
    <path d="M 184.291528 273.312 
L 185.907431 273.312 
L 185.907431 182.050349 
L 184.291528 182.050349 
z
" clip-path="url(#p477b45f615)" style="fill: #1f77b4"/>
   </g>
   <g id="patch_80">
    <path d="M 185.907431 273.312 
L 187.523334 273.312 
L 187.523334 180.88778 
L 185.907431 180.88778 
z
" clip-path="url(#p477b45f615)" style="fill: #1f77b4"/>
   </g>
   <g id="patch_81">
    <path d="M 187.523334 273.312 
L 189.139237 273.312 
L 189.139237 189.607046 
L 187.523334 189.607046 
z
" clip-path="url(#p477b45f615)" style="fill: #1f77b4"/>
   </g>
   <g id="patch_82">
    <path d="M 189.139237 273.312 
L 190.75514 273.312 
L 190.75514 187.281908 
L 189.139237 187.281908 
z
" clip-path="url(#p477b45f615)" style="fill: #1f77b4"/>
   </g>
   <g id="patch_83">
    <path d="M 190.75514 273.312 
L 192.371043 273.312 
L 192.371043 183.794202 
L 190.75514 183.794202 
z
" clip-path="url(#p477b45f615)" style="fill: #1f77b4"/>
   </g>
   <g id="patch_84">
    <path d="M 192.371043 273.312 
L 193.986946 273.312 
L 193.986946 175.65622 
L 192.371043 175.65622 
z
" clip-path="url(#p477b45f615)" style="fill: #1f77b4"/>
   </g>
   <g id="patch_85">
    <path d="M 193.986946 273.312 
L 195.60285 273.312 
L 195.60285 187.281908 
L 193.986946 187.281908 
z
" clip-path="url(#p477b45f615)" style="fill: #1f77b4"/>
   </g>
   <g id="patch_86">
    <path d="M 195.60285 273.312 
L 197.218753 273.312 
L 197.218753 193.094752 
L 195.60285 193.094752 
z
" clip-path="url(#p477b45f615)" style="fill: #1f77b4"/>
   </g>
   <g id="patch_87">
    <path d="M 197.218753 273.312 
L 198.834656 273.312 
L 198.834656 166.936954 
L 197.218753 166.936954 
z
" clip-path="url(#p477b45f615)" style="fill: #1f77b4"/>
   </g>
   <g id="patch_88">
    <path d="M 198.834656 273.312 
L 200.450559 273.312 
L 200.450559 169.262092 
L 198.834656 169.262092 
z
" clip-path="url(#p477b45f615)" style="fill: #1f77b4"/>
   </g>
   <g id="patch_89">
    <path d="M 200.450559 273.312 
L 202.066462 273.312 
L 202.066462 169.262092 
L 200.450559 169.262092 
z
" clip-path="url(#p477b45f615)" style="fill: #1f77b4"/>
   </g>
   <g id="patch_90">
    <path d="M 202.066462 273.312 
L 203.682365 273.312 
L 203.682365 165.193101 
L 202.066462 165.193101 
z
" clip-path="url(#p477b45f615)" style="fill: #1f77b4"/>
   </g>
   <g id="patch_91">
    <path d="M 203.682365 273.312 
L 205.298268 273.312 
L 205.298268 169.843376 
L 203.682365 169.843376 
z
" clip-path="url(#p477b45f615)" style="fill: #1f77b4"/>
   </g>
   <g id="patch_92">
    <path d="M 205.298268 273.312 
L 206.914171 273.312 
L 206.914171 166.35567 
L 205.298268 166.35567 
z
" clip-path="url(#p477b45f615)" style="fill: #1f77b4"/>
   </g>
   <g id="patch_93">
    <path d="M 206.914171 273.312 
L 208.530074 273.312 
L 208.530074 177.981358 
L 206.914171 177.981358 
z
" clip-path="url(#p477b45f615)" style="fill: #1f77b4"/>
   </g>
   <g id="patch_94">
    <path d="M 208.530074 273.312 
L 210.145977 273.312 
L 210.145977 167.518239 
L 208.530074 167.518239 
z
" clip-path="url(#p477b45f615)" style="fill: #1f77b4"/>
   </g>
   <g id="patch_95">
    <path d="M 210.145977 273.312 
L 211.76188 273.312 
L 211.76188 160.542826 
L 210.145977 160.542826 
z
" clip-path="url(#p477b45f615)" style="fill: #1f77b4"/>
   </g>
   <g id="patch_96">
    <path d="M 211.76188 273.312 
L 213.377783 273.312 
L 213.377783 156.473835 
L 211.76188 156.473835 
z
" clip-path="url(#p477b45f615)" style="fill: #1f77b4"/>
   </g>
   <g id="patch_97">
    <path d="M 213.377783 273.312 
L 214.993686 273.312 
L 214.993686 168.680807 
L 213.377783 168.680807 
z
" clip-path="url(#p477b45f615)" style="fill: #1f77b4"/>
   </g>
   <g id="patch_98">
    <path d="M 214.993686 273.312 
L 216.609589 273.312 
L 216.609589 163.449248 
L 214.993686 163.449248 
z
" clip-path="url(#p477b45f615)" style="fill: #1f77b4"/>
   </g>
   <g id="patch_99">
    <path d="M 216.609589 273.312 
L 218.225492 273.312 
L 218.225492 164.030532 
L 216.609589 164.030532 
z
" clip-path="url(#p477b45f615)" style="fill: #1f77b4"/>
   </g>
   <g id="patch_100">
    <path d="M 218.225492 273.312 
L 219.841395 273.312 
L 219.841395 151.82356 
L 218.225492 151.82356 
z
" clip-path="url(#p477b45f615)" style="fill: #1f77b4"/>
   </g>
   <g id="patch_101">
    <path d="M 219.841395 273.312 
L 221.457298 273.312 
L 221.457298 168.680807 
L 219.841395 168.680807 
z
" clip-path="url(#p477b45f615)" style="fill: #1f77b4"/>
   </g>
   <g id="patch_102">
    <path d="M 221.457298 273.312 
L 223.073201 273.312 
L 223.073201 157.055119 
L 221.457298 157.055119 
z
" clip-path="url(#p477b45f615)" style="fill: #1f77b4"/>
   </g>
   <g id="patch_103">
    <path d="M 223.073201 273.312 
L 224.689104 273.312 
L 224.689104 163.449248 
L 223.073201 163.449248 
z
" clip-path="url(#p477b45f615)" style="fill: #1f77b4"/>
   </g>
   <g id="patch_104">
    <path d="M 224.689104 273.312 
L 226.305007 273.312 
L 226.305007 165.774385 
L 224.689104 165.774385 
z
" clip-path="url(#p477b45f615)" style="fill: #1f77b4"/>
   </g>
   <g id="patch_105">
    <path d="M 226.305007 273.312 
L 227.92091 273.312 
L 227.92091 168.680807 
L 226.305007 168.680807 
z
" clip-path="url(#p477b45f615)" style="fill: #1f77b4"/>
   </g>
   <g id="patch_106">
    <path d="M 227.92091 273.312 
L 229.536813 273.312 
L 229.536813 162.286679 
L 227.92091 162.286679 
z
" clip-path="url(#p477b45f615)" style="fill: #1f77b4"/>
   </g>
   <g id="patch_107">
    <path d="M 229.536813 273.312 
L 231.152716 273.312 
L 231.152716 157.055119 
L 229.536813 157.055119 
z
" clip-path="url(#p477b45f615)" style="fill: #1f77b4"/>
   </g>
   <g id="patch_108">
    <path d="M 231.152716 273.312 
L 232.768619 273.312 
L 232.768619 133.222459 
L 231.152716 133.222459 
z
" clip-path="url(#p477b45f615)" style="fill: #1f77b4"/>
   </g>
   <g id="patch_109">
    <path d="M 232.768619 273.312 
L 234.384522 273.312 
L 234.384522 146.010716 
L 232.768619 146.010716 
z
" clip-path="url(#p477b45f615)" style="fill: #1f77b4"/>
   </g>
   <g id="patch_110">
    <path d="M 234.384522 273.312 
L 236.000425 273.312 
L 236.000425 155.89255 
L 234.384522 155.89255 
z
" clip-path="url(#p477b45f615)" style="fill: #1f77b4"/>
   </g>
   <g id="patch_111">
    <path d="M 236.000425 273.312 
L 237.616328 273.312 
L 237.616328 136.710165 
L 236.000425 136.710165 
z
" clip-path="url(#p477b45f615)" style="fill: #1f77b4"/>
   </g>
   <g id="patch_112">
    <path d="M 237.616328 273.312 
L 239.232231 273.312 
L 239.232231 128.572183 
L 237.616328 128.572183 
z
" clip-path="url(#p477b45f615)" style="fill: #1f77b4"/>
   </g>
   <g id="patch_113">
    <path d="M 239.232231 273.312 
L 240.848134 273.312 
L 240.848134 158.217688 
L 239.232231 158.217688 
z
" clip-path="url(#p477b45f615)" style="fill: #1f77b4"/>
   </g>
   <g id="patch_114">
    <path d="M 240.848134 273.312 
L 242.464037 273.312 
L 242.464037 144.848147 
L 240.848134 144.848147 
z
" clip-path="url(#p477b45f615)" style="fill: #1f77b4"/>
   </g>
   <g id="patch_115">
    <path d="M 242.464037 273.312 
L 244.07994 273.312 
L 244.07994 125.084477 
L 242.464037 125.084477 
z
" clip-path="url(#p477b45f615)" style="fill: #1f77b4"/>
   </g>
   <g id="patch_116">
    <path d="M 244.07994 273.312 
L 245.695843 273.312 
L 245.695843 139.616587 
L 244.07994 139.616587 
z
" clip-path="url(#p477b45f615)" style="fill: #1f77b4"/>
   </g>
   <g id="patch_117">
    <path d="M 245.695843 273.312 
L 247.311746 273.312 
L 247.311746 132.05989 
L 245.695843 132.05989 
z
" clip-path="url(#p477b45f615)" style="fill: #1f77b4"/>
   </g>
   <g id="patch_118">
    <path d="M 247.311746 273.312 
L 248.927649 273.312 
L 248.927649 139.035303 
L 247.311746 139.035303 
z
" clip-path="url(#p477b45f615)" style="fill: #1f77b4"/>
   </g>
   <g id="patch_119">
    <path d="M 248.927649 273.312 
L 250.543552 273.312 
L 250.543552 157.055119 
L 248.927649 157.055119 
z
" clip-path="url(#p477b45f615)" style="fill: #1f77b4"/>
   </g>
   <g id="patch_120">
    <path d="M 250.543552 273.312 
L 252.159455 273.312 
L 252.159455 128.572183 
L 250.543552 128.572183 
z
" clip-path="url(#p477b45f615)" style="fill: #1f77b4"/>
   </g>
   <g id="patch_121">
    <path d="M 252.159455 273.312 
L 253.775358 273.312 
L 253.775358 128.572183 
L 252.159455 128.572183 
z
" clip-path="url(#p477b45f615)" style="fill: #1f77b4"/>
   </g>
   <g id="patch_122">
    <path d="M 253.775358 273.312 
L 255.391262 273.312 
L 255.391262 132.641174 
L 253.775358 132.641174 
z
" clip-path="url(#p477b45f615)" style="fill: #1f77b4"/>
   </g>
   <g id="patch_123">
    <path d="M 255.391262 273.312 
L 257.007165 273.312 
L 257.007165 140.779156 
L 255.391262 140.779156 
z
" clip-path="url(#p477b45f615)" style="fill: #1f77b4"/>
   </g>
   <g id="patch_124">
    <path d="M 257.007165 273.312 
L 258.623068 273.312 
L 258.623068 136.128881 
L 257.007165 136.128881 
z
" clip-path="url(#p477b45f615)" style="fill: #1f77b4"/>
   </g>
   <g id="patch_125">
    <path d="M 258.623068 273.312 
L 260.238971 273.312 
L 260.238971 137.872734 
L 258.623068 137.872734 
z
" clip-path="url(#p477b45f615)" style="fill: #1f77b4"/>
   </g>
   <g id="patch_126">
    <path d="M 260.238971 273.312 
L 261.854874 273.312 
L 261.854874 137.29145 
L 260.238971 137.29145 
z
" clip-path="url(#p477b45f615)" style="fill: #1f77b4"/>
   </g>
   <g id="patch_127">
    <path d="M 261.854874 273.312 
L 263.470777 273.312 
L 263.470777 133.222459 
L 261.854874 133.222459 
z
" clip-path="url(#p477b45f615)" style="fill: #1f77b4"/>
   </g>
   <g id="patch_128">
    <path d="M 263.470777 273.312 
L 265.08668 273.312 
L 265.08668 121.596771 
L 263.470777 121.596771 
z
" clip-path="url(#p477b45f615)" style="fill: #1f77b4"/>
   </g>
   <g id="patch_129">
    <path d="M 265.08668 273.312 
L 266.702583 273.312 
L 266.702583 124.503193 
L 265.08668 124.503193 
z
" clip-path="url(#p477b45f615)" style="fill: #1f77b4"/>
   </g>
   <g id="patch_130">
    <path d="M 266.702583 273.312 
L 268.318486 273.312 
L 268.318486 137.29145 
L 266.702583 137.29145 
z
" clip-path="url(#p477b45f615)" style="fill: #1f77b4"/>
   </g>
   <g id="patch_131">
    <path d="M 268.318486 273.312 
L 269.934389 273.312 
L 269.934389 111.714936 
L 268.318486 111.714936 
z
" clip-path="url(#p477b45f615)" style="fill: #1f77b4"/>
   </g>
   <g id="patch_132">
    <path d="M 269.934389 273.312 
L 271.550292 273.312 
L 271.550292 123.921908 
L 269.934389 123.921908 
z
" clip-path="url(#p477b45f615)" style="fill: #1f77b4"/>
   </g>
   <g id="patch_133">
    <path d="M 271.550292 273.312 
L 273.166195 273.312 
L 273.166195 127.990899 
L 271.550292 127.990899 
z
" clip-path="url(#p477b45f615)" style="fill: #1f77b4"/>
   </g>
   <g id="patch_134">
    <path d="M 273.166195 273.312 
L 274.782098 273.312 
L 274.782098 130.897321 
L 273.166195 130.897321 
z
" clip-path="url(#p477b45f615)" style="fill: #1f77b4"/>
   </g>
   <g id="patch_135">
    <path d="M 274.782098 273.312 
L 276.398001 273.312 
L 276.398001 129.153468 
L 274.782098 129.153468 
z
" clip-path="url(#p477b45f615)" style="fill: #1f77b4"/>
   </g>
   <g id="patch_136">
    <path d="M 276.398001 273.312 
L 278.013904 273.312 
L 278.013904 115.202642 
L 276.398001 115.202642 
z
" clip-path="url(#p477b45f615)" style="fill: #1f77b4"/>
   </g>
   <g id="patch_137">
    <path d="M 278.013904 273.312 
L 279.629807 273.312 
L 279.629807 108.227229 
L 278.013904 108.227229 
z
" clip-path="url(#p477b45f615)" style="fill: #1f77b4"/>
   </g>
   <g id="patch_138">
    <path d="M 279.629807 273.312 
L 281.24571 273.312 
L 281.24571 130.897321 
L 279.629807 130.897321 
z
" clip-path="url(#p477b45f615)" style="fill: #1f77b4"/>
   </g>
   <g id="patch_139">
    <path d="M 281.24571 273.312 
L 282.861613 273.312 
L 282.861613 114.621358 
L 281.24571 114.621358 
z
" clip-path="url(#p477b45f615)" style="fill: #1f77b4"/>
   </g>
   <g id="patch_140">
    <path d="M 282.861613 273.312 
L 284.477516 273.312 
L 284.477516 126.247046 
L 282.861613 126.247046 
z
" clip-path="url(#p477b45f615)" style="fill: #1f77b4"/>
   </g>
   <g id="patch_141">
    <path d="M 284.477516 273.312 
L 286.093419 273.312 
L 286.093419 119.852917 
L 284.477516 119.852917 
z
" clip-path="url(#p477b45f615)" style="fill: #1f77b4"/>
   </g>
   <g id="patch_142">
    <path d="M 286.093419 273.312 
L 287.709322 273.312 
L 287.709322 118.690349 
L 286.093419 118.690349 
z
" clip-path="url(#p477b45f615)" style="fill: #1f77b4"/>
   </g>
   <g id="patch_143">
    <path d="M 287.709322 273.312 
L 289.325225 273.312 
L 289.325225 135.547596 
L 287.709322 135.547596 
z
" clip-path="url(#p477b45f615)" style="fill: #1f77b4"/>
   </g>
   <g id="patch_144">
    <path d="M 289.325225 273.312 
L 290.941128 273.312 
L 290.941128 114.621358 
L 289.325225 114.621358 
z
" clip-path="url(#p477b45f615)" style="fill: #1f77b4"/>
   </g>
   <g id="patch_145">
    <path d="M 290.941128 273.312 
L 292.557031 273.312 
L 292.557031 114.040073 
L 290.941128 114.040073 
z
" clip-path="url(#p477b45f615)" style="fill: #1f77b4"/>
   </g>
   <g id="patch_146">
    <path d="M 292.557031 273.312 
L 294.172934 273.312 
L 294.172934 97.76411 
L 292.557031 97.76411 
z
" clip-path="url(#p477b45f615)" style="fill: #1f77b4"/>
   </g>
   <g id="patch_147">
    <path d="M 294.172934 273.312 
L 295.788837 273.312 
L 295.788837 109.971083 
L 294.172934 109.971083 
z
" clip-path="url(#p477b45f615)" style="fill: #1f77b4"/>
   </g>
   <g id="patch_148">
    <path d="M 295.788837 273.312 
L 297.40474 273.312 
L 297.40474 116.365211 
L 295.788837 116.365211 
z
" clip-path="url(#p477b45f615)" style="fill: #1f77b4"/>
   </g>
   <g id="patch_149">
    <path d="M 297.40474 273.312 
L 299.020643 273.312 
L 299.020643 90.207413 
L 297.40474 90.207413 
z
" clip-path="url(#p477b45f615)" style="fill: #1f77b4"/>
   </g>
   <g id="patch_150">
    <path d="M 299.020643 273.312 
L 300.636546 273.312 
L 300.636546 91.951266 
L 299.020643 91.951266 
z
" clip-path="url(#p477b45f615)" style="fill: #1f77b4"/>
   </g>
   <g id="patch_151">
    <path d="M 300.636546 273.312 
L 302.252449 273.312 
L 302.252449 121.596771 
L 300.636546 121.596771 
z
" clip-path="url(#p477b45f615)" style="fill: #1f77b4"/>
   </g>
   <g id="patch_152">
    <path d="M 302.252449 273.312 
L 303.868352 273.312 
L 303.868352 86.138422 
L 302.252449 86.138422 
z
" clip-path="url(#p477b45f615)" style="fill: #1f77b4"/>
   </g>
   <g id="patch_153">
    <path d="M 303.868352 273.312 
L 305.484255 273.312 
L 305.484255 107.064661 
L 303.868352 107.064661 
z
" clip-path="url(#p477b45f615)" style="fill: #1f77b4"/>
   </g>
   <g id="patch_154">
    <path d="M 305.484255 273.312 
L 307.100158 273.312 
L 307.100158 89.044844 
L 305.484255 89.044844 
z
" clip-path="url(#p477b45f615)" style="fill: #1f77b4"/>
   </g>
   <g id="patch_155">
    <path d="M 307.100158 273.312 
L 308.716061 273.312 
L 308.716061 96.601541 
L 307.100158 96.601541 
z
" clip-path="url(#p477b45f615)" style="fill: #1f77b4"/>
   </g>
   <g id="patch_156">
    <path d="M 308.716061 273.312 
L 310.331964 273.312 
L 310.331964 98.345394 
L 308.716061 98.345394 
z
" clip-path="url(#p477b45f615)" style="fill: #1f77b4"/>
   </g>
   <g id="patch_157">
    <path d="M 310.331964 273.312 
L 311.947867 273.312 
L 311.947867 96.020257 
L 310.331964 96.020257 
z
" clip-path="url(#p477b45f615)" style="fill: #1f77b4"/>
   </g>
   <g id="patch_158">
    <path d="M 311.947867 273.312 
L 313.56377 273.312 
L 313.56377 77.419156 
L 311.947867 77.419156 
z
" clip-path="url(#p477b45f615)" style="fill: #1f77b4"/>
   </g>
   <g id="patch_159">
    <path d="M 313.56377 273.312 
L 315.179673 273.312 
L 315.179673 85.557138 
L 313.56377 85.557138 
z
" clip-path="url(#p477b45f615)" style="fill: #1f77b4"/>
   </g>
   <g id="patch_160">
    <path d="M 315.179673 273.312 
L 316.795577 273.312 
L 316.795577 95.438972 
L 315.179673 95.438972 
z
" clip-path="url(#p477b45f615)" style="fill: #1f77b4"/>
   </g>
   <g id="patch_161">
    <path d="M 316.795577 273.312 
L 318.41148 273.312 
L 318.41148 93.695119 
L 316.795577 93.695119 
z
" clip-path="url(#p477b45f615)" style="fill: #1f77b4"/>
   </g>
   <g id="patch_162">
    <path d="M 318.41148 273.312 
L 320.027383 273.312 
L 320.027383 72.768881 
L 318.41148 72.768881 
z
" clip-path="url(#p477b45f615)" style="fill: #1f77b4"/>
   </g>
   <g id="patch_163">
    <path d="M 320.027383 273.312 
L 321.643286 273.312 
L 321.643286 87.882275 
L 320.027383 87.882275 
z
" clip-path="url(#p477b45f615)" style="fill: #1f77b4"/>
   </g>
   <g id="patch_164">
    <path d="M 321.643286 273.312 
L 323.259189 273.312 
L 323.259189 89.044844 
L 321.643286 89.044844 
z
" clip-path="url(#p477b45f615)" style="fill: #1f77b4"/>
   </g>
   <g id="patch_165">
    <path d="M 323.259189 273.312 
L 324.875092 273.312 
L 324.875092 86.719706 
L 323.259189 86.719706 
z
" clip-path="url(#p477b45f615)" style="fill: #1f77b4"/>
   </g>
   <g id="patch_166">
    <path d="M 324.875092 273.312 
L 326.490995 273.312 
L 326.490995 88.46356 
L 324.875092 88.46356 
z
" clip-path="url(#p477b45f615)" style="fill: #1f77b4"/>
   </g>
   <g id="patch_167">
    <path d="M 326.490995 273.312 
L 328.106898 273.312 
L 328.106898 86.138422 
L 326.490995 86.138422 
z
" clip-path="url(#p477b45f615)" style="fill: #1f77b4"/>
   </g>
   <g id="patch_168">
    <path d="M 328.106898 273.312 
L 329.722801 273.312 
L 329.722801 96.601541 
L 328.106898 96.601541 
z
" clip-path="url(#p477b45f615)" style="fill: #1f77b4"/>
   </g>
   <g id="patch_169">
    <path d="M 329.722801 273.312 
L 331.338704 273.312 
L 331.338704 71.025028 
L 329.722801 71.025028 
z
" clip-path="url(#p477b45f615)" style="fill: #1f77b4"/>
   </g>
   <g id="patch_170">
    <path d="M 331.338704 273.312 
L 332.954607 273.312 
L 332.954607 71.025028 
L 331.338704 71.025028 
z
" clip-path="url(#p477b45f615)" style="fill: #1f77b4"/>
   </g>
   <g id="patch_171">
    <path d="M 332.954607 273.312 
L 334.57051 273.312 
L 334.57051 81.488147 
L 332.954607 81.488147 
z
" clip-path="url(#p477b45f615)" style="fill: #1f77b4"/>
   </g>
   <g id="patch_172">
    <path d="M 334.57051 273.312 
L 336.186413 273.312 
L 336.186413 79.744294 
L 334.57051 79.744294 
z
" clip-path="url(#p477b45f615)" style="fill: #1f77b4"/>
   </g>
   <g id="patch_173">
    <path d="M 336.186413 273.312 
L 337.802316 273.312 
L 337.802316 72.768881 
L 336.186413 72.768881 
z
" clip-path="url(#p477b45f615)" style="fill: #1f77b4"/>
   </g>
   <g id="patch_174">
    <path d="M 337.802316 273.312 
L 339.418219 273.312 
L 339.418219 59.980624 
L 337.802316 59.980624 
z
" clip-path="url(#p477b45f615)" style="fill: #1f77b4"/>
   </g>
   <g id="patch_175">
    <path d="M 339.418219 273.312 
L 341.034122 273.312 
L 341.034122 72.768881 
L 339.418219 72.768881 
z
" clip-path="url(#p477b45f615)" style="fill: #1f77b4"/>
   </g>
   <g id="patch_176">
    <path d="M 341.034122 273.312 
L 342.650025 273.312 
L 342.650025 73.350165 
L 341.034122 73.350165 
z
" clip-path="url(#p477b45f615)" style="fill: #1f77b4"/>
   </g>
   <g id="patch_177">
    <path d="M 342.650025 273.312 
L 344.265928 273.312 
L 344.265928 72.768881 
L 342.650025 72.768881 
z
" clip-path="url(#p477b45f615)" style="fill: #1f77b4"/>
   </g>
   <g id="patch_178">
    <path d="M 344.265928 273.312 
L 345.881831 273.312 
L 345.881831 68.69989 
L 344.265928 68.69989 
z
" clip-path="url(#p477b45f615)" style="fill: #1f77b4"/>
   </g>
   <g id="patch_179">
    <path d="M 345.881831 273.312 
L 347.497734 273.312 
L 347.497734 75.675303 
L 345.881831 75.675303 
z
" clip-path="url(#p477b45f615)" style="fill: #1f77b4"/>
   </g>
   <g id="patch_180">
    <path d="M 347.497734 273.312 
L 349.113637 273.312 
L 349.113637 52.423927 
L 347.497734 52.423927 
z
" clip-path="url(#p477b45f615)" style="fill: #1f77b4"/>
   </g>
   <g id="patch_181">
    <path d="M 349.113637 273.312 
L 350.72954 273.312 
L 350.72954 66.374752 
L 349.113637 66.374752 
z
" clip-path="url(#p477b45f615)" style="fill: #1f77b4"/>
   </g>
   <g id="patch_182">
    <path d="M 350.72954 273.312 
L 352.345443 273.312 
L 352.345443 47.773651 
L 350.72954 47.773651 
z
" clip-path="url(#p477b45f615)" style="fill: #1f77b4"/>
   </g>
   <g id="patch_183">
    <path d="M 352.345443 273.312 
L 353.961346 273.312 
L 353.961346 58.236771 
L 352.345443 58.236771 
z
" clip-path="url(#p477b45f615)" style="fill: #1f77b4"/>
   </g>
   <g id="patch_184">
    <path d="M 353.961346 273.312 
L 355.577249 273.312 
L 355.577249 39.054385 
L 353.961346 39.054385 
z
" clip-path="url(#p477b45f615)" style="fill: #1f77b4"/>
   </g>
   <g id="patch_185">
    <path d="M 355.577249 273.312 
L 357.193152 273.312 
L 357.193152 75.094018 
L 355.577249 75.094018 
z
" clip-path="url(#p477b45f615)" style="fill: #1f77b4"/>
   </g>
   <g id="patch_186">
    <path d="M 357.193152 273.312 
L 358.809055 273.312 
L 358.809055 61.724477 
L 357.193152 61.724477 
z
" clip-path="url(#p477b45f615)" style="fill: #1f77b4"/>
   </g>
   <g id="patch_187">
    <path d="M 358.809055 273.312 
L 360.424958 273.312 
L 360.424958 42.542092 
L 358.809055 42.542092 
z
" clip-path="url(#p477b45f615)" style="fill: #1f77b4"/>
   </g>
   <g id="patch_188">
    <path d="M 360.424958 273.312 
L 362.040861 273.312 
L 362.040861 41.960807 
L 360.424958 41.960807 
z
" clip-path="url(#p477b45f615)" style="fill: #1f77b4"/>
   </g>
   <g id="patch_189">
    <path d="M 362.040861 273.312 
L 363.656764 273.312 
L 363.656764 59.399339 
L 362.040861 59.399339 
z
" clip-path="url(#p477b45f615)" style="fill: #1f77b4"/>
   </g>
   <g id="patch_190">
    <path d="M 363.656764 273.312 
L 365.272667 273.312 
L 365.272667 26.266128 
L 363.656764 26.266128 
z
" clip-path="url(#p477b45f615)" style="fill: #1f77b4"/>
   </g>
   <g id="patch_191">
    <path d="M 365.272667 273.312 
L 366.88857 273.312 
L 366.88857 63.46833 
L 365.272667 63.46833 
z
" clip-path="url(#p477b45f615)" style="fill: #1f77b4"/>
   </g>
   <g id="patch_192">
    <path d="M 366.88857 273.312 
L 368.504473 273.312 
L 368.504473 43.704661 
L 366.88857 43.704661 
z
" clip-path="url(#p477b45f615)" style="fill: #1f77b4"/>
   </g>
   <g id="patch_193">
    <path d="M 368.504473 273.312 
L 370.120376 273.312 
L 370.120376 61.143193 
L 368.504473 61.143193 
z
" clip-path="url(#p477b45f615)" style="fill: #1f77b4"/>
   </g>
   <g id="patch_194">
    <path d="M 370.120376 273.312 
L 371.736279 273.312 
L 371.736279 53.005211 
L 370.120376 53.005211 
z
" clip-path="url(#p477b45f615)" style="fill: #1f77b4"/>
   </g>
   <g id="patch_195">
    <path d="M 371.736279 273.312 
L 373.352182 273.312 
L 373.352182 75.094018 
L 371.736279 75.094018 
z
" clip-path="url(#p477b45f615)" style="fill: #1f77b4"/>
   </g>
   <g id="patch_196">
    <path d="M 373.352182 273.312 
L 374.968085 273.312 
L 374.968085 52.423927 
L 373.352182 52.423927 
z
" clip-path="url(#p477b45f615)" style="fill: #1f77b4"/>
   </g>
   <g id="patch_197">
    <path d="M 374.968085 273.312 
L 376.583989 273.312 
L 376.583989 44.285945 
L 374.968085 44.285945 
z
" clip-path="url(#p477b45f615)" style="fill: #1f77b4"/>
   </g>
   <g id="patch_198">
    <path d="M 376.583989 273.312 
L 378.199892 273.312 
L 378.199892 47.773651 
L 376.583989 47.773651 
z
" clip-path="url(#p477b45f615)" style="fill: #1f77b4"/>
   </g>
   <g id="patch_199">
    <path d="M 378.199892 273.312 
L 379.815795 273.312 
L 379.815795 19.872 
L 378.199892 19.872 
z
" clip-path="url(#p477b45f615)" style="fill: #1f77b4"/>
   </g>
   <g id="patch_200">
    <path d="M 379.815795 273.312 
L 381.431698 273.312 
L 381.431698 59.399339 
L 379.815795 59.399339 
z
" clip-path="url(#p477b45f615)" style="fill: #1f77b4"/>
   </g>
   <g id="patch_201">
    <path d="M 381.431698 273.312 
L 383.047601 273.312 
L 383.047601 47.773651 
L 381.431698 47.773651 
z
" clip-path="url(#p477b45f615)" style="fill: #1f77b4"/>
   </g>
   <g id="patch_202">
    <path d="M 383.047601 273.312 
L 384.663504 273.312 
L 384.663504 28.009982 
L 383.047601 28.009982 
z
" clip-path="url(#p477b45f615)" style="fill: #1f77b4"/>
   </g>
   <g id="matplotlib.axis_1">
    <g id="xtick_1">
     <g id="line2d_1">
      <defs>
       <path id="mb528c41d33" d="M 0 0 
L 0 3.5 
" style="stroke: #000000; stroke-width: 0.8"/>
      </defs>
      <g>
       <use xlink:href="#mb528c41d33" x="60.013977" y="273.312" style="stroke: #000000; stroke-width: 0.8"/>
      </g>
     </g>
     <g id="text_1">
      <!-- 0.0 -->
      <g transform="translate(52.062415 287.910437)scale(0.1 -0.1)">
       <defs>
        <path id="DejaVuSans-30" d="M 2034 4250 
Q 1547 4250 1301 3770 
Q 1056 3291 1056 2328 
Q 1056 1369 1301 889 
Q 1547 409 2034 409 
Q 2525 409 2770 889 
Q 3016 1369 3016 2328 
Q 3016 3291 2770 3770 
Q 2525 4250 2034 4250 
z
M 2034 4750 
Q 2819 4750 3233 4129 
Q 3647 3509 3647 2328 
Q 3647 1150 3233 529 
Q 2819 -91 2034 -91 
Q 1250 -91 836 529 
Q 422 1150 422 2328 
Q 422 3509 836 4129 
Q 1250 4750 2034 4750 
z
" transform="scale(0.015625)"/>
        <path id="DejaVuSans-2e" d="M 684 794 
L 1344 794 
L 1344 0 
L 684 0 
L 684 794 
z
" transform="scale(0.015625)"/>
       </defs>
       <use xlink:href="#DejaVuSans-30"/>
       <use xlink:href="#DejaVuSans-2e" x="63.623047"/>
       <use xlink:href="#DejaVuSans-30" x="95.410156"/>
      </g>
     </g>
    </g>
    <g id="xtick_2">
     <g id="line2d_2">
      <g>
       <use xlink:href="#mb528c41d33" x="124.944886" y="273.312" style="stroke: #000000; stroke-width: 0.8"/>
      </g>
     </g>
     <g id="text_2">
      <!-- 0.2 -->
      <g transform="translate(116.993324 287.910437)scale(0.1 -0.1)">
       <defs>
        <path id="DejaVuSans-32" d="M 1228 531 
L 3431 531 
L 3431 0 
L 469 0 
L 469 531 
Q 828 903 1448 1529 
Q 2069 2156 2228 2338 
Q 2531 2678 2651 2914 
Q 2772 3150 2772 3378 
Q 2772 3750 2511 3984 
Q 2250 4219 1831 4219 
Q 1534 4219 1204 4116 
Q 875 4013 500 3803 
L 500 4441 
Q 881 4594 1212 4672 
Q 1544 4750 1819 4750 
Q 2544 4750 2975 4387 
Q 3406 4025 3406 3419 
Q 3406 3131 3298 2873 
Q 3191 2616 2906 2266 
Q 2828 2175 2409 1742 
Q 1991 1309 1228 531 
z
" transform="scale(0.015625)"/>
       </defs>
       <use xlink:href="#DejaVuSans-30"/>
       <use xlink:href="#DejaVuSans-2e" x="63.623047"/>
       <use xlink:href="#DejaVuSans-32" x="95.410156"/>
      </g>
     </g>
    </g>
    <g id="xtick_3">
     <g id="line2d_3">
      <g>
       <use xlink:href="#mb528c41d33" x="189.875795" y="273.312" style="stroke: #000000; stroke-width: 0.8"/>
      </g>
     </g>
     <g id="text_3">
      <!-- 0.4 -->
      <g transform="translate(181.924233 287.910437)scale(0.1 -0.1)">
       <defs>
        <path id="DejaVuSans-34" d="M 2419 4116 
L 825 1625 
L 2419 1625 
L 2419 4116 
z
M 2253 4666 
L 3047 4666 
L 3047 1625 
L 3713 1625 
L 3713 1100 
L 3047 1100 
L 3047 0 
L 2419 0 
L 2419 1100 
L 313 1100 
L 313 1709 
L 2253 4666 
z
" transform="scale(0.015625)"/>
       </defs>
       <use xlink:href="#DejaVuSans-30"/>
       <use xlink:href="#DejaVuSans-2e" x="63.623047"/>
       <use xlink:href="#DejaVuSans-34" x="95.410156"/>
      </g>
     </g>
    </g>
    <g id="xtick_4">
     <g id="line2d_4">
      <g>
       <use xlink:href="#mb528c41d33" x="254.806705" y="273.312" style="stroke: #000000; stroke-width: 0.8"/>
      </g>
     </g>
     <g id="text_4">
      <!-- 0.6 -->
      <g transform="translate(246.855142 287.910437)scale(0.1 -0.1)">
       <defs>
        <path id="DejaVuSans-36" d="M 2113 2584 
Q 1688 2584 1439 2293 
Q 1191 2003 1191 1497 
Q 1191 994 1439 701 
Q 1688 409 2113 409 
Q 2538 409 2786 701 
Q 3034 994 3034 1497 
Q 3034 2003 2786 2293 
Q 2538 2584 2113 2584 
z
M 3366 4563 
L 3366 3988 
Q 3128 4100 2886 4159 
Q 2644 4219 2406 4219 
Q 1781 4219 1451 3797 
Q 1122 3375 1075 2522 
Q 1259 2794 1537 2939 
Q 1816 3084 2150 3084 
Q 2853 3084 3261 2657 
Q 3669 2231 3669 1497 
Q 3669 778 3244 343 
Q 2819 -91 2113 -91 
Q 1303 -91 875 529 
Q 447 1150 447 2328 
Q 447 3434 972 4092 
Q 1497 4750 2381 4750 
Q 2619 4750 2861 4703 
Q 3103 4656 3366 4563 
z
" transform="scale(0.015625)"/>
       </defs>
       <use xlink:href="#DejaVuSans-30"/>
       <use xlink:href="#DejaVuSans-2e" x="63.623047"/>
       <use xlink:href="#DejaVuSans-36" x="95.410156"/>
      </g>
     </g>
    </g>
    <g id="xtick_5">
     <g id="line2d_5">
      <g>
       <use xlink:href="#mb528c41d33" x="319.737614" y="273.312" style="stroke: #000000; stroke-width: 0.8"/>
      </g>
     </g>
     <g id="text_5">
      <!-- 0.8 -->
      <g transform="translate(311.786051 287.910437)scale(0.1 -0.1)">
       <defs>
        <path id="DejaVuSans-38" d="M 2034 2216 
Q 1584 2216 1326 1975 
Q 1069 1734 1069 1313 
Q 1069 891 1326 650 
Q 1584 409 2034 409 
Q 2484 409 2743 651 
Q 3003 894 3003 1313 
Q 3003 1734 2745 1975 
Q 2488 2216 2034 2216 
z
M 1403 2484 
Q 997 2584 770 2862 
Q 544 3141 544 3541 
Q 544 4100 942 4425 
Q 1341 4750 2034 4750 
Q 2731 4750 3128 4425 
Q 3525 4100 3525 3541 
Q 3525 3141 3298 2862 
Q 3072 2584 2669 2484 
Q 3125 2378 3379 2068 
Q 3634 1759 3634 1313 
Q 3634 634 3220 271 
Q 2806 -91 2034 -91 
Q 1263 -91 848 271 
Q 434 634 434 1313 
Q 434 1759 690 2068 
Q 947 2378 1403 2484 
z
M 1172 3481 
Q 1172 3119 1398 2916 
Q 1625 2713 2034 2713 
Q 2441 2713 2670 2916 
Q 2900 3119 2900 3481 
Q 2900 3844 2670 4047 
Q 2441 4250 2034 4250 
Q 1625 4250 1398 4047 
Q 1172 3844 1172 3481 
z
" transform="scale(0.015625)"/>
       </defs>
       <use xlink:href="#DejaVuSans-30"/>
       <use xlink:href="#DejaVuSans-2e" x="63.623047"/>
       <use xlink:href="#DejaVuSans-38" x="95.410156"/>
      </g>
     </g>
    </g>
    <g id="xtick_6">
     <g id="line2d_6">
      <g>
       <use xlink:href="#mb528c41d33" x="384.668523" y="273.312" style="stroke: #000000; stroke-width: 0.8"/>
      </g>
     </g>
     <g id="text_6">
      <!-- 1.0 -->
      <g transform="translate(376.71696 287.910437)scale(0.1 -0.1)">
       <defs>
        <path id="DejaVuSans-31" d="M 794 531 
L 1825 531 
L 1825 4091 
L 703 3866 
L 703 4441 
L 1819 4666 
L 2450 4666 
L 2450 531 
L 3481 531 
L 3481 0 
L 794 0 
L 794 531 
z
" transform="scale(0.015625)"/>
       </defs>
       <use xlink:href="#DejaVuSans-31"/>
       <use xlink:href="#DejaVuSans-2e" x="63.623047"/>
       <use xlink:href="#DejaVuSans-30" x="95.410156"/>
      </g>
     </g>
    </g>
    <g id="text_7">
     <!-- Propagation direction -->
     <g transform="translate(168.859219 301.588562)scale(0.1 -0.1)">
      <defs>
       <path id="DejaVuSans-50" d="M 1259 4147 
L 1259 2394 
L 2053 2394 
Q 2494 2394 2734 2622 
Q 2975 2850 2975 3272 
Q 2975 3691 2734 3919 
Q 2494 4147 2053 4147 
L 1259 4147 
z
M 628 4666 
L 2053 4666 
Q 2838 4666 3239 4311 
Q 3641 3956 3641 3272 
Q 3641 2581 3239 2228 
Q 2838 1875 2053 1875 
L 1259 1875 
L 1259 0 
L 628 0 
L 628 4666 
z
" transform="scale(0.015625)"/>
       <path id="DejaVuSans-72" d="M 2631 2963 
Q 2534 3019 2420 3045 
Q 2306 3072 2169 3072 
Q 1681 3072 1420 2755 
Q 1159 2438 1159 1844 
L 1159 0 
L 581 0 
L 581 3500 
L 1159 3500 
L 1159 2956 
Q 1341 3275 1631 3429 
Q 1922 3584 2338 3584 
Q 2397 3584 2469 3576 
Q 2541 3569 2628 3553 
L 2631 2963 
z
" transform="scale(0.015625)"/>
       <path id="DejaVuSans-6f" d="M 1959 3097 
Q 1497 3097 1228 2736 
Q 959 2375 959 1747 
Q 959 1119 1226 758 
Q 1494 397 1959 397 
Q 2419 397 2687 759 
Q 2956 1122 2956 1747 
Q 2956 2369 2687 2733 
Q 2419 3097 1959 3097 
z
M 1959 3584 
Q 2709 3584 3137 3096 
Q 3566 2609 3566 1747 
Q 3566 888 3137 398 
Q 2709 -91 1959 -91 
Q 1206 -91 779 398 
Q 353 888 353 1747 
Q 353 2609 779 3096 
Q 1206 3584 1959 3584 
z
" transform="scale(0.015625)"/>
       <path id="DejaVuSans-70" d="M 1159 525 
L 1159 -1331 
L 581 -1331 
L 581 3500 
L 1159 3500 
L 1159 2969 
Q 1341 3281 1617 3432 
Q 1894 3584 2278 3584 
Q 2916 3584 3314 3078 
Q 3713 2572 3713 1747 
Q 3713 922 3314 415 
Q 2916 -91 2278 -91 
Q 1894 -91 1617 61 
Q 1341 213 1159 525 
z
M 3116 1747 
Q 3116 2381 2855 2742 
Q 2594 3103 2138 3103 
Q 1681 3103 1420 2742 
Q 1159 2381 1159 1747 
Q 1159 1113 1420 752 
Q 1681 391 2138 391 
Q 2594 391 2855 752 
Q 3116 1113 3116 1747 
z
" transform="scale(0.015625)"/>
       <path id="DejaVuSans-61" d="M 2194 1759 
Q 1497 1759 1228 1600 
Q 959 1441 959 1056 
Q 959 750 1161 570 
Q 1363 391 1709 391 
Q 2188 391 2477 730 
Q 2766 1069 2766 1631 
L 2766 1759 
L 2194 1759 
z
M 3341 1997 
L 3341 0 
L 2766 0 
L 2766 531 
Q 2569 213 2275 61 
Q 1981 -91 1556 -91 
Q 1019 -91 701 211 
Q 384 513 384 1019 
Q 384 1609 779 1909 
Q 1175 2209 1959 2209 
L 2766 2209 
L 2766 2266 
Q 2766 2663 2505 2880 
Q 2244 3097 1772 3097 
Q 1472 3097 1187 3025 
Q 903 2953 641 2809 
L 641 3341 
Q 956 3463 1253 3523 
Q 1550 3584 1831 3584 
Q 2591 3584 2966 3190 
Q 3341 2797 3341 1997 
z
" transform="scale(0.015625)"/>
       <path id="DejaVuSans-67" d="M 2906 1791 
Q 2906 2416 2648 2759 
Q 2391 3103 1925 3103 
Q 1463 3103 1205 2759 
Q 947 2416 947 1791 
Q 947 1169 1205 825 
Q 1463 481 1925 481 
Q 2391 481 2648 825 
Q 2906 1169 2906 1791 
z
M 3481 434 
Q 3481 -459 3084 -895 
Q 2688 -1331 1869 -1331 
Q 1566 -1331 1297 -1286 
Q 1028 -1241 775 -1147 
L 775 -588 
Q 1028 -725 1275 -790 
Q 1522 -856 1778 -856 
Q 2344 -856 2625 -561 
Q 2906 -266 2906 331 
L 2906 616 
Q 2728 306 2450 153 
Q 2172 0 1784 0 
Q 1141 0 747 490 
Q 353 981 353 1791 
Q 353 2603 747 3093 
Q 1141 3584 1784 3584 
Q 2172 3584 2450 3431 
Q 2728 3278 2906 2969 
L 2906 3500 
L 3481 3500 
L 3481 434 
z
" transform="scale(0.015625)"/>
       <path id="DejaVuSans-74" d="M 1172 4494 
L 1172 3500 
L 2356 3500 
L 2356 3053 
L 1172 3053 
L 1172 1153 
Q 1172 725 1289 603 
Q 1406 481 1766 481 
L 2356 481 
L 2356 0 
L 1766 0 
Q 1100 0 847 248 
Q 594 497 594 1153 
L 594 3053 
L 172 3053 
L 172 3500 
L 594 3500 
L 594 4494 
L 1172 4494 
z
" transform="scale(0.015625)"/>
       <path id="DejaVuSans-69" d="M 603 3500 
L 1178 3500 
L 1178 0 
L 603 0 
L 603 3500 
z
M 603 4863 
L 1178 4863 
L 1178 4134 
L 603 4134 
L 603 4863 
z
" transform="scale(0.015625)"/>
       <path id="DejaVuSans-6e" d="M 3513 2113 
L 3513 0 
L 2938 0 
L 2938 2094 
Q 2938 2591 2744 2837 
Q 2550 3084 2163 3084 
Q 1697 3084 1428 2787 
Q 1159 2491 1159 1978 
L 1159 0 
L 581 0 
L 581 3500 
L 1159 3500 
L 1159 2956 
Q 1366 3272 1645 3428 
Q 1925 3584 2291 3584 
Q 2894 3584 3203 3211 
Q 3513 2838 3513 2113 
z
" transform="scale(0.015625)"/>
       <path id="DejaVuSans-20" transform="scale(0.015625)"/>
       <path id="DejaVuSans-64" d="M 2906 2969 
L 2906 4863 
L 3481 4863 
L 3481 0 
L 2906 0 
L 2906 525 
Q 2725 213 2448 61 
Q 2172 -91 1784 -91 
Q 1150 -91 751 415 
Q 353 922 353 1747 
Q 353 2572 751 3078 
Q 1150 3584 1784 3584 
Q 2172 3584 2448 3432 
Q 2725 3281 2906 2969 
z
M 947 1747 
Q 947 1113 1208 752 
Q 1469 391 1925 391 
Q 2381 391 2643 752 
Q 2906 1113 2906 1747 
Q 2906 2381 2643 2742 
Q 2381 3103 1925 3103 
Q 1469 3103 1208 2742 
Q 947 2381 947 1747 
z
" transform="scale(0.015625)"/>
       <path id="DejaVuSans-65" d="M 3597 1894 
L 3597 1613 
L 953 1613 
Q 991 1019 1311 708 
Q 1631 397 2203 397 
Q 2534 397 2845 478 
Q 3156 559 3463 722 
L 3463 178 
Q 3153 47 2828 -22 
Q 2503 -91 2169 -91 
Q 1331 -91 842 396 
Q 353 884 353 1716 
Q 353 2575 817 3079 
Q 1281 3584 2069 3584 
Q 2775 3584 3186 3129 
Q 3597 2675 3597 1894 
z
M 3022 2063 
Q 3016 2534 2758 2815 
Q 2500 3097 2075 3097 
Q 1594 3097 1305 2825 
Q 1016 2553 972 2059 
L 3022 2063 
z
" transform="scale(0.015625)"/>
       <path id="DejaVuSans-63" d="M 3122 3366 
L 3122 2828 
Q 2878 2963 2633 3030 
Q 2388 3097 2138 3097 
Q 1578 3097 1268 2742 
Q 959 2388 959 1747 
Q 959 1106 1268 751 
Q 1578 397 2138 397 
Q 2388 397 2633 464 
Q 2878 531 3122 666 
L 3122 134 
Q 2881 22 2623 -34 
Q 2366 -91 2075 -91 
Q 1284 -91 818 406 
Q 353 903 353 1747 
Q 353 2603 823 3093 
Q 1294 3584 2113 3584 
Q 2378 3584 2631 3529 
Q 2884 3475 3122 3366 
z
" transform="scale(0.015625)"/>
      </defs>
      <use xlink:href="#DejaVuSans-50"/>
      <use xlink:href="#DejaVuSans-72" x="58.552734"/>
      <use xlink:href="#DejaVuSans-6f" x="97.416016"/>
      <use xlink:href="#DejaVuSans-70" x="158.597656"/>
      <use xlink:href="#DejaVuSans-61" x="222.074219"/>
      <use xlink:href="#DejaVuSans-67" x="283.353516"/>
      <use xlink:href="#DejaVuSans-61" x="346.830078"/>
      <use xlink:href="#DejaVuSans-74" x="408.109375"/>
      <use xlink:href="#DejaVuSans-69" x="447.318359"/>
      <use xlink:href="#DejaVuSans-6f" x="475.101562"/>
      <use xlink:href="#DejaVuSans-6e" x="536.283203"/>
      <use xlink:href="#DejaVuSans-20" x="599.662109"/>
      <use xlink:href="#DejaVuSans-64" x="631.449219"/>
      <use xlink:href="#DejaVuSans-69" x="694.925781"/>
      <use xlink:href="#DejaVuSans-72" x="722.708984"/>
      <use xlink:href="#DejaVuSans-65" x="761.572266"/>
      <use xlink:href="#DejaVuSans-63" x="823.095703"/>
      <use xlink:href="#DejaVuSans-74" x="878.076172"/>
      <use xlink:href="#DejaVuSans-69" x="917.285156"/>
      <use xlink:href="#DejaVuSans-6f" x="945.068359"/>
      <use xlink:href="#DejaVuSans-6e" x="1006.25"/>
     </g>
    </g>
   </g>
   <g id="matplotlib.axis_2">
    <g id="ytick_1">
     <g id="line2d_7">
      <defs>
       <path id="m4618942761" d="M 0 0 
L -3.5 0 
" style="stroke: #000000; stroke-width: 0.8"/>
      </defs>
      <g>
       <use xlink:href="#m4618942761" x="43.78125" y="273.312" style="stroke: #000000; stroke-width: 0.8"/>
      </g>
     </g>
     <g id="text_8">
      <!-- 0.0 -->
      <g transform="translate(20.878125 277.111219)scale(0.1 -0.1)">
       <use xlink:href="#DejaVuSans-30"/>
       <use xlink:href="#DejaVuSans-2e" x="63.623047"/>
       <use xlink:href="#DejaVuSans-30" x="95.410156"/>
      </g>
     </g>
    </g>
    <g id="ytick_2">
     <g id="line2d_8">
      <g>
       <use xlink:href="#m4618942761" x="43.78125" y="215.447464" style="stroke: #000000; stroke-width: 0.8"/>
      </g>
     </g>
     <g id="text_9">
      <!-- 0.5 -->
      <g transform="translate(20.878125 219.246683)scale(0.1 -0.1)">
       <defs>
        <path id="DejaVuSans-35" d="M 691 4666 
L 3169 4666 
L 3169 4134 
L 1269 4134 
L 1269 2991 
Q 1406 3038 1543 3061 
Q 1681 3084 1819 3084 
Q 2600 3084 3056 2656 
Q 3513 2228 3513 1497 
Q 3513 744 3044 326 
Q 2575 -91 1722 -91 
Q 1428 -91 1123 -41 
Q 819 9 494 109 
L 494 744 
Q 775 591 1075 516 
Q 1375 441 1709 441 
Q 2250 441 2565 725 
Q 2881 1009 2881 1497 
Q 2881 1984 2565 2268 
Q 2250 2553 1709 2553 
Q 1456 2553 1204 2497 
Q 953 2441 691 2322 
L 691 4666 
z
" transform="scale(0.015625)"/>
       </defs>
       <use xlink:href="#DejaVuSans-30"/>
       <use xlink:href="#DejaVuSans-2e" x="63.623047"/>
       <use xlink:href="#DejaVuSans-35" x="95.410156"/>
      </g>
     </g>
    </g>
    <g id="ytick_3">
     <g id="line2d_9">
      <g>
       <use xlink:href="#m4618942761" x="43.78125" y="157.582929" style="stroke: #000000; stroke-width: 0.8"/>
      </g>
     </g>
     <g id="text_10">
      <!-- 1.0 -->
      <g transform="translate(20.878125 161.382147)scale(0.1 -0.1)">
       <use xlink:href="#DejaVuSans-31"/>
       <use xlink:href="#DejaVuSans-2e" x="63.623047"/>
       <use xlink:href="#DejaVuSans-30" x="95.410156"/>
      </g>
     </g>
    </g>
    <g id="ytick_4">
     <g id="line2d_10">
      <g>
       <use xlink:href="#m4618942761" x="43.78125" y="99.718393" style="stroke: #000000; stroke-width: 0.8"/>
      </g>
     </g>
     <g id="text_11">
      <!-- 1.5 -->
      <g transform="translate(20.878125 103.517612)scale(0.1 -0.1)">
       <use xlink:href="#DejaVuSans-31"/>
       <use xlink:href="#DejaVuSans-2e" x="63.623047"/>
       <use xlink:href="#DejaVuSans-35" x="95.410156"/>
      </g>
     </g>
    </g>
    <g id="ytick_5">
     <g id="line2d_11">
      <g>
       <use xlink:href="#m4618942761" x="43.78125" y="41.853857" style="stroke: #000000; stroke-width: 0.8"/>
      </g>
     </g>
     <g id="text_12">
      <!-- 2.0 -->
      <g transform="translate(20.878125 45.653076)scale(0.1 -0.1)">
       <use xlink:href="#DejaVuSans-32"/>
       <use xlink:href="#DejaVuSans-2e" x="63.623047"/>
       <use xlink:href="#DejaVuSans-30" x="95.410156"/>
      </g>
     </g>
    </g>
    <g id="text_13">
     <!-- Probability density -->
     <g transform="translate(14.798438 186.606781)rotate(-90)scale(0.1 -0.1)">
      <defs>
       <path id="DejaVuSans-62" d="M 3116 1747 
Q 3116 2381 2855 2742 
Q 2594 3103 2138 3103 
Q 1681 3103 1420 2742 
Q 1159 2381 1159 1747 
Q 1159 1113 1420 752 
Q 1681 391 2138 391 
Q 2594 391 2855 752 
Q 3116 1113 3116 1747 
z
M 1159 2969 
Q 1341 3281 1617 3432 
Q 1894 3584 2278 3584 
Q 2916 3584 3314 3078 
Q 3713 2572 3713 1747 
Q 3713 922 3314 415 
Q 2916 -91 2278 -91 
Q 1894 -91 1617 61 
Q 1341 213 1159 525 
L 1159 0 
L 581 0 
L 581 4863 
L 1159 4863 
L 1159 2969 
z
" transform="scale(0.015625)"/>
       <path id="DejaVuSans-6c" d="M 603 4863 
L 1178 4863 
L 1178 0 
L 603 0 
L 603 4863 
z
" transform="scale(0.015625)"/>
       <path id="DejaVuSans-79" d="M 2059 -325 
Q 1816 -950 1584 -1140 
Q 1353 -1331 966 -1331 
L 506 -1331 
L 506 -850 
L 844 -850 
Q 1081 -850 1212 -737 
Q 1344 -625 1503 -206 
L 1606 56 
L 191 3500 
L 800 3500 
L 1894 763 
L 2988 3500 
L 3597 3500 
L 2059 -325 
z
" transform="scale(0.015625)"/>
       <path id="DejaVuSans-73" d="M 2834 3397 
L 2834 2853 
Q 2591 2978 2328 3040 
Q 2066 3103 1784 3103 
Q 1356 3103 1142 2972 
Q 928 2841 928 2578 
Q 928 2378 1081 2264 
Q 1234 2150 1697 2047 
L 1894 2003 
Q 2506 1872 2764 1633 
Q 3022 1394 3022 966 
Q 3022 478 2636 193 
Q 2250 -91 1575 -91 
Q 1294 -91 989 -36 
Q 684 19 347 128 
L 347 722 
Q 666 556 975 473 
Q 1284 391 1588 391 
Q 1994 391 2212 530 
Q 2431 669 2431 922 
Q 2431 1156 2273 1281 
Q 2116 1406 1581 1522 
L 1381 1569 
Q 847 1681 609 1914 
Q 372 2147 372 2553 
Q 372 3047 722 3315 
Q 1072 3584 1716 3584 
Q 2034 3584 2315 3537 
Q 2597 3491 2834 3397 
z
" transform="scale(0.015625)"/>
      </defs>
      <use xlink:href="#DejaVuSans-50"/>
      <use xlink:href="#DejaVuSans-72" x="58.552734"/>
      <use xlink:href="#DejaVuSans-6f" x="97.416016"/>
      <use xlink:href="#DejaVuSans-62" x="158.597656"/>
      <use xlink:href="#DejaVuSans-61" x="222.074219"/>
      <use xlink:href="#DejaVuSans-62" x="283.353516"/>
      <use xlink:href="#DejaVuSans-69" x="346.830078"/>
      <use xlink:href="#DejaVuSans-6c" x="374.613281"/>
      <use xlink:href="#DejaVuSans-69" x="402.396484"/>
      <use xlink:href="#DejaVuSans-74" x="430.179688"/>
      <use xlink:href="#DejaVuSans-79" x="469.388672"/>
      <use xlink:href="#DejaVuSans-20" x="528.568359"/>
      <use xlink:href="#DejaVuSans-64" x="560.355469"/>
      <use xlink:href="#DejaVuSans-65" x="623.832031"/>
      <use xlink:href="#DejaVuSans-6e" x="685.355469"/>
      <use xlink:href="#DejaVuSans-73" x="748.734375"/>
      <use xlink:href="#DejaVuSans-69" x="800.833984"/>
      <use xlink:href="#DejaVuSans-74" x="828.617188"/>
      <use xlink:href="#DejaVuSans-79" x="867.826172"/>
     </g>
    </g>
   </g>
   <g id="line2d_12">
    <path d="M 60.013977 273.312 
L 384.668523 41.853857 
L 384.668523 41.853857 
" clip-path="url(#p477b45f615)" style="fill: none; stroke: #ff7f0e; stroke-width: 1.5; stroke-linecap: square"/>
   </g>
   <g id="patch_203">
    <path d="M 43.78125 273.312 
L 43.78125 7.2 
" style="fill: none; stroke: #000000; stroke-width: 0.8; stroke-linejoin: miter; stroke-linecap: square"/>
   </g>
   <g id="patch_204">
    <path d="M 400.90125 273.312 
L 400.90125 7.2 
" style="fill: none; stroke: #000000; stroke-width: 0.8; stroke-linejoin: miter; stroke-linecap: square"/>
   </g>
   <g id="patch_205">
    <path d="M 43.78125 273.312 
L 400.90125 273.312 
" style="fill: none; stroke: #000000; stroke-width: 0.8; stroke-linejoin: miter; stroke-linecap: square"/>
   </g>
   <g id="patch_206">
    <path d="M 43.78125 7.2 
L 400.90125 7.2 
" style="fill: none; stroke: #000000; stroke-width: 0.8; stroke-linejoin: miter; stroke-linecap: square"/>
   </g>
  </g>
 </g>
 <defs>
  <clipPath id="p477b45f615">
   <rect x="43.78125" y="7.2" width="357.12" height="266.112"/>
  </clipPath>
 </defs>
</svg>
