<?xml version="1.0" encoding="utf-8" standalone="no"?>
<!DOCTYPE svg PUBLIC "-//W3C//DTD SVG 1.1//EN"
  "http://www.w3.org/Graphics/SVG/1.1/DTD/svg11.dtd">
<svg height="310.86825pt" version="1.1" viewBox="0 0 414.46375 310.86825" width="414.46375pt" xmlns="http://www.w3.org/2000/svg" xmlns:xlink="http://www.w3.org/1999/xlink">
 <metadata>
  <rdf:RDF xmlns:cc="http://creativecommons.org/ns#" xmlns:dc="http://purl.org/dc/elements/1.1/" xmlns:rdf="http://www.w3.org/1999/02/22-rdf-syntax-ns#">
   <cc:Work>
    <dc:type rdf:resource="http://purl.org/dc/dcmitype/StillImage"/>
    <dc:date>2021-07-07T06:39:49.869172</dc:date>
    <dc:format>image/svg+xml</dc:format>
    <dc:creator>
     <cc:Agent>
      <dc:title>Matplotlib v3.4.2, https://matplotlib.org/</dc:title>
     </cc:Agent>
    </dc:creator>
   </cc:Work>
  </rdf:RDF>
 </metadata>
 <defs>
  <style type="text/css">*{stroke-linecap:butt;stroke-linejoin:round;}</style>
 </defs>
 <g id="figure_1">
  <g id="patch_1">
   <path d="M 0 310.86825 
L 414.46375 310.86825 
L 414.46375 0 
L 0 0 
z
" style="fill:#ffffff;"/>
  </g>
  <g id="axes_1">
   <g id="patch_2">
    <path d="M 50.14375 273.312 
L 407.26375 273.312 
L 407.26375 7.2 
L 50.14375 7.2 
z
" style="fill:#ffffff;"/>
   </g>
   <g id="patch_3">
    <path clip-path="url(#p6aaceb9699)" d="M 68.035137 273.312 
L 69.650083 273.312 
L 69.650083 270.926682 
L 68.035137 270.926682 
z
" style="fill:#1f77b4;"/>
   </g>
   <g id="patch_4">
    <path clip-path="url(#p6aaceb9699)" d="M 69.650083 273.312 
L 71.265029 273.312 
L 71.265029 269.734024 
L 69.650083 269.734024 
z
" style="fill:#1f77b4;"/>
   </g>
   <g id="patch_5">
    <path clip-path="url(#p6aaceb9699)" d="M 71.265029 273.312 
L 72.879975 273.312 
L 72.879975 266.752376 
L 71.265029 266.752376 
z
" style="fill:#1f77b4;"/>
   </g>
   <g id="patch_6">
    <path clip-path="url(#p6aaceb9699)" d="M 72.879975 273.312 
L 74.494921 273.312 
L 74.494921 268.541365 
L 72.879975 268.541365 
z
" style="fill:#1f77b4;"/>
   </g>
   <g id="patch_7">
    <path clip-path="url(#p6aaceb9699)" d="M 74.494921 273.312 
L 76.109867 273.312 
L 76.109867 269.137694 
L 74.494921 269.137694 
z
" style="fill:#1f77b4;"/>
   </g>
   <g id="patch_8">
    <path clip-path="url(#p6aaceb9699)" d="M 76.109867 273.312 
L 77.724813 273.312 
L 77.724813 263.1744 
L 76.109867 263.1744 
z
" style="fill:#1f77b4;"/>
   </g>
   <g id="patch_9">
    <path clip-path="url(#p6aaceb9699)" d="M 77.724813 273.312 
L 79.339759 273.312 
L 79.339759 264.367059 
L 77.724813 264.367059 
z
" style="fill:#1f77b4;"/>
   </g>
   <g id="patch_10">
    <path clip-path="url(#p6aaceb9699)" d="M 79.339759 273.312 
L 80.954705 273.312 
L 80.954705 263.1744 
L 79.339759 263.1744 
z
" style="fill:#1f77b4;"/>
   </g>
   <g id="patch_11">
    <path clip-path="url(#p6aaceb9699)" d="M 80.954705 273.312 
L 82.569651 273.312 
L 82.569651 265.559718 
L 80.954705 265.559718 
z
" style="fill:#1f77b4;"/>
   </g>
   <g id="patch_12">
    <path clip-path="url(#p6aaceb9699)" d="M 82.569651 273.312 
L 84.184597 273.312 
L 84.184597 259.596424 
L 82.569651 259.596424 
z
" style="fill:#1f77b4;"/>
   </g>
   <g id="patch_13">
    <path clip-path="url(#p6aaceb9699)" d="M 84.184597 273.312 
L 85.799543 273.312 
L 85.799543 257.807435 
L 84.184597 257.807435 
z
" style="fill:#1f77b4;"/>
   </g>
   <g id="patch_14">
    <path clip-path="url(#p6aaceb9699)" d="M 85.799543 273.312 
L 87.414489 273.312 
L 87.414489 257.211106 
L 85.799543 257.211106 
z
" style="fill:#1f77b4;"/>
   </g>
   <g id="patch_15">
    <path clip-path="url(#p6aaceb9699)" d="M 87.414489 273.312 
L 89.029435 273.312 
L 89.029435 255.422118 
L 87.414489 255.422118 
z
" style="fill:#1f77b4;"/>
   </g>
   <g id="patch_16">
    <path clip-path="url(#p6aaceb9699)" d="M 89.029435 273.312 
L 90.644381 273.312 
L 90.644381 254.229459 
L 89.029435 254.229459 
z
" style="fill:#1f77b4;"/>
   </g>
   <g id="patch_17">
    <path clip-path="url(#p6aaceb9699)" d="M 90.644381 273.312 
L 92.259327 273.312 
L 92.259327 254.825788 
L 90.644381 254.825788 
z
" style="fill:#1f77b4;"/>
   </g>
   <g id="patch_18">
    <path clip-path="url(#p6aaceb9699)" d="M 92.259327 273.312 
L 93.874273 273.312 
L 93.874273 244.091859 
L 92.259327 244.091859 
z
" style="fill:#1f77b4;"/>
   </g>
   <g id="patch_19">
    <path clip-path="url(#p6aaceb9699)" d="M 93.874273 273.312 
L 95.489219 273.312 
L 95.489219 250.055153 
L 93.874273 250.055153 
z
" style="fill:#1f77b4;"/>
   </g>
   <g id="patch_20">
    <path clip-path="url(#p6aaceb9699)" d="M 95.489219 273.312 
L 97.104165 273.312 
L 97.104165 253.0368 
L 95.489219 253.0368 
z
" style="fill:#1f77b4;"/>
   </g>
   <g id="patch_21">
    <path clip-path="url(#p6aaceb9699)" d="M 97.104165 273.312 
L 98.719111 273.312 
L 98.719111 253.0368 
L 97.104165 253.0368 
z
" style="fill:#1f77b4;"/>
   </g>
   <g id="patch_22">
    <path clip-path="url(#p6aaceb9699)" d="M 98.719111 273.312 
L 100.334057 273.312 
L 100.334057 242.302871 
L 98.719111 242.302871 
z
" style="fill:#1f77b4;"/>
   </g>
   <g id="patch_23">
    <path clip-path="url(#p6aaceb9699)" d="M 100.334057 273.312 
L 101.949003 273.312 
L 101.949003 244.688188 
L 100.334057 244.688188 
z
" style="fill:#1f77b4;"/>
   </g>
   <g id="patch_24">
    <path clip-path="url(#p6aaceb9699)" d="M 101.949003 273.312 
L 103.563949 273.312 
L 103.563949 254.229459 
L 101.949003 254.229459 
z
" style="fill:#1f77b4;"/>
   </g>
   <g id="patch_25">
    <path clip-path="url(#p6aaceb9699)" d="M 103.563949 273.312 
L 105.178895 273.312 
L 105.178895 245.284518 
L 103.563949 245.284518 
z
" style="fill:#1f77b4;"/>
   </g>
   <g id="patch_26">
    <path clip-path="url(#p6aaceb9699)" d="M 105.178895 273.312 
L 106.793841 273.312 
L 106.793841 244.688188 
L 105.178895 244.688188 
z
" style="fill:#1f77b4;"/>
   </g>
   <g id="patch_27">
    <path clip-path="url(#p6aaceb9699)" d="M 106.793841 273.312 
L 108.408788 273.312 
L 108.408788 235.146918 
L 106.793841 235.146918 
z
" style="fill:#1f77b4;"/>
   </g>
   <g id="patch_28">
    <path clip-path="url(#p6aaceb9699)" d="M 108.408788 273.312 
L 110.023734 273.312 
L 110.023734 241.706541 
L 108.408788 241.706541 
z
" style="fill:#1f77b4;"/>
   </g>
   <g id="patch_29">
    <path clip-path="url(#p6aaceb9699)" d="M 110.023734 273.312 
L 111.63868 273.312 
L 111.63868 237.532235 
L 110.023734 237.532235 
z
" style="fill:#1f77b4;"/>
   </g>
   <g id="patch_30">
    <path clip-path="url(#p6aaceb9699)" d="M 111.63868 273.312 
L 113.253626 273.312 
L 113.253626 240.513882 
L 111.63868 240.513882 
z
" style="fill:#1f77b4;"/>
   </g>
   <g id="patch_31">
    <path clip-path="url(#p6aaceb9699)" d="M 113.253626 273.312 
L 114.868572 273.312 
L 114.868572 235.146918 
L 113.253626 235.146918 
z
" style="fill:#1f77b4;"/>
   </g>
   <g id="patch_32">
    <path clip-path="url(#p6aaceb9699)" d="M 114.868572 273.312 
L 116.483518 273.312 
L 116.483518 234.550588 
L 114.868572 234.550588 
z
" style="fill:#1f77b4;"/>
   </g>
   <g id="patch_33">
    <path clip-path="url(#p6aaceb9699)" d="M 116.483518 273.312 
L 118.098464 273.312 
L 118.098464 238.128565 
L 116.483518 238.128565 
z
" style="fill:#1f77b4;"/>
   </g>
   <g id="patch_34">
    <path clip-path="url(#p6aaceb9699)" d="M 118.098464 273.312 
L 119.71341 273.312 
L 119.71341 233.954259 
L 118.098464 233.954259 
z
" style="fill:#1f77b4;"/>
   </g>
   <g id="patch_35">
    <path clip-path="url(#p6aaceb9699)" d="M 119.71341 273.312 
L 121.328356 273.312 
L 121.328356 228.587294 
L 119.71341 228.587294 
z
" style="fill:#1f77b4;"/>
   </g>
   <g id="patch_36">
    <path clip-path="url(#p6aaceb9699)" d="M 121.328356 273.312 
L 122.943302 273.312 
L 122.943302 234.550588 
L 121.328356 234.550588 
z
" style="fill:#1f77b4;"/>
   </g>
   <g id="patch_37">
    <path clip-path="url(#p6aaceb9699)" d="M 122.943302 273.312 
L 124.558248 273.312 
L 124.558248 222.624 
L 122.943302 222.624 
z
" style="fill:#1f77b4;"/>
   </g>
   <g id="patch_38">
    <path clip-path="url(#p6aaceb9699)" d="M 124.558248 273.312 
L 126.173194 273.312 
L 126.173194 226.798306 
L 124.558248 226.798306 
z
" style="fill:#1f77b4;"/>
   </g>
   <g id="patch_39">
    <path clip-path="url(#p6aaceb9699)" d="M 126.173194 273.312 
L 127.78814 273.312 
L 127.78814 226.201976 
L 126.173194 226.201976 
z
" style="fill:#1f77b4;"/>
   </g>
   <g id="patch_40">
    <path clip-path="url(#p6aaceb9699)" d="M 127.78814 273.312 
L 129.403086 273.312 
L 129.403086 234.550588 
L 127.78814 234.550588 
z
" style="fill:#1f77b4;"/>
   </g>
   <g id="patch_41">
    <path clip-path="url(#p6aaceb9699)" d="M 129.403086 273.312 
L 131.018032 273.312 
L 131.018032 226.798306 
L 129.403086 226.798306 
z
" style="fill:#1f77b4;"/>
   </g>
   <g id="patch_42">
    <path clip-path="url(#p6aaceb9699)" d="M 131.018032 273.312 
L 132.632978 273.312 
L 132.632978 226.798306 
L 131.018032 226.798306 
z
" style="fill:#1f77b4;"/>
   </g>
   <g id="patch_43">
    <path clip-path="url(#p6aaceb9699)" d="M 132.632978 273.312 
L 134.247924 273.312 
L 134.247924 227.394635 
L 132.632978 227.394635 
z
" style="fill:#1f77b4;"/>
   </g>
   <g id="patch_44">
    <path clip-path="url(#p6aaceb9699)" d="M 134.247924 273.312 
L 135.86287 273.312 
L 135.86287 226.201976 
L 134.247924 226.201976 
z
" style="fill:#1f77b4;"/>
   </g>
   <g id="patch_45">
    <path clip-path="url(#p6aaceb9699)" d="M 135.86287 273.312 
L 137.477816 273.312 
L 137.477816 219.642353 
L 135.86287 219.642353 
z
" style="fill:#1f77b4;"/>
   </g>
   <g id="patch_46">
    <path clip-path="url(#p6aaceb9699)" d="M 137.477816 273.312 
L 139.092762 273.312 
L 139.092762 229.183624 
L 137.477816 229.183624 
z
" style="fill:#1f77b4;"/>
   </g>
   <g id="patch_47">
    <path clip-path="url(#p6aaceb9699)" d="M 139.092762 273.312 
L 140.707708 273.312 
L 140.707708 221.431341 
L 139.092762 221.431341 
z
" style="fill:#1f77b4;"/>
   </g>
   <g id="patch_48">
    <path clip-path="url(#p6aaceb9699)" d="M 140.707708 273.312 
L 142.322654 273.312 
L 142.322654 216.064376 
L 140.707708 216.064376 
z
" style="fill:#1f77b4;"/>
   </g>
   <g id="patch_49">
    <path clip-path="url(#p6aaceb9699)" d="M 142.322654 273.312 
L 143.9376 273.312 
L 143.9376 217.853365 
L 142.322654 217.853365 
z
" style="fill:#1f77b4;"/>
   </g>
   <g id="patch_50">
    <path clip-path="url(#p6aaceb9699)" d="M 143.9376 273.312 
L 145.552546 273.312 
L 145.552546 210.101082 
L 143.9376 210.101082 
z
" style="fill:#1f77b4;"/>
   </g>
   <g id="patch_51">
    <path clip-path="url(#p6aaceb9699)" d="M 145.552546 273.312 
L 147.167492 273.312 
L 147.167492 216.064376 
L 145.552546 216.064376 
z
" style="fill:#1f77b4;"/>
   </g>
   <g id="patch_52">
    <path clip-path="url(#p6aaceb9699)" d="M 147.167492 273.312 
L 148.782438 273.312 
L 148.782438 214.871718 
L 147.167492 214.871718 
z
" style="fill:#1f77b4;"/>
   </g>
   <g id="patch_53">
    <path clip-path="url(#p6aaceb9699)" d="M 148.782438 273.312 
L 150.397384 273.312 
L 150.397384 205.330447 
L 148.782438 205.330447 
z
" style="fill:#1f77b4;"/>
   </g>
   <g id="patch_54">
    <path clip-path="url(#p6aaceb9699)" d="M 150.397384 273.312 
L 152.01233 273.312 
L 152.01233 214.275388 
L 150.397384 214.275388 
z
" style="fill:#1f77b4;"/>
   </g>
   <g id="patch_55">
    <path clip-path="url(#p6aaceb9699)" d="M 152.01233 273.312 
L 153.627277 273.312 
L 153.627277 207.119435 
L 152.01233 207.119435 
z
" style="fill:#1f77b4;"/>
   </g>
   <g id="patch_56">
    <path clip-path="url(#p6aaceb9699)" d="M 153.627277 273.312 
L 155.242223 273.312 
L 155.242223 214.275388 
L 153.627277 214.275388 
z
" style="fill:#1f77b4;"/>
   </g>
   <g id="patch_57">
    <path clip-path="url(#p6aaceb9699)" d="M 155.242223 273.312 
L 156.857169 273.312 
L 156.857169 210.697412 
L 155.242223 210.697412 
z
" style="fill:#1f77b4;"/>
   </g>
   <g id="patch_58">
    <path clip-path="url(#p6aaceb9699)" d="M 156.857169 273.312 
L 158.472115 273.312 
L 158.472115 196.981835 
L 156.857169 196.981835 
z
" style="fill:#1f77b4;"/>
   </g>
   <g id="patch_59">
    <path clip-path="url(#p6aaceb9699)" d="M 158.472115 273.312 
L 160.087061 273.312 
L 160.087061 213.679059 
L 158.472115 213.679059 
z
" style="fill:#1f77b4;"/>
   </g>
   <g id="patch_60">
    <path clip-path="url(#p6aaceb9699)" d="M 160.087061 273.312 
L 161.702007 273.312 
L 161.702007 209.504753 
L 160.087061 209.504753 
z
" style="fill:#1f77b4;"/>
   </g>
   <g id="patch_61">
    <path clip-path="url(#p6aaceb9699)" d="M 161.702007 273.312 
L 163.316953 273.312 
L 163.316953 201.156141 
L 161.702007 201.156141 
z
" style="fill:#1f77b4;"/>
   </g>
   <g id="patch_62">
    <path clip-path="url(#p6aaceb9699)" d="M 163.316953 273.312 
L 164.931899 273.312 
L 164.931899 192.807529 
L 163.316953 192.807529 
z
" style="fill:#1f77b4;"/>
   </g>
   <g id="patch_63">
    <path clip-path="url(#p6aaceb9699)" d="M 164.931899 273.312 
L 166.546845 273.312 
L 166.546845 195.192847 
L 164.931899 195.192847 
z
" style="fill:#1f77b4;"/>
   </g>
   <g id="patch_64">
    <path clip-path="url(#p6aaceb9699)" d="M 166.546845 273.312 
L 168.161791 273.312 
L 168.161791 203.541459 
L 166.546845 203.541459 
z
" style="fill:#1f77b4;"/>
   </g>
   <g id="patch_65">
    <path clip-path="url(#p6aaceb9699)" d="M 168.161791 273.312 
L 169.776737 273.312 
L 169.776737 198.770824 
L 168.161791 198.770824 
z
" style="fill:#1f77b4;"/>
   </g>
   <g id="patch_66">
    <path clip-path="url(#p6aaceb9699)" d="M 169.776737 273.312 
L 171.391683 273.312 
L 171.391683 196.981835 
L 169.776737 196.981835 
z
" style="fill:#1f77b4;"/>
   </g>
   <g id="patch_67">
    <path clip-path="url(#p6aaceb9699)" d="M 171.391683 273.312 
L 173.006629 273.312 
L 173.006629 192.807529 
L 171.391683 192.807529 
z
" style="fill:#1f77b4;"/>
   </g>
   <g id="patch_68">
    <path clip-path="url(#p6aaceb9699)" d="M 173.006629 273.312 
L 174.621575 273.312 
L 174.621575 191.614871 
L 173.006629 191.614871 
z
" style="fill:#1f77b4;"/>
   </g>
   <g id="patch_69">
    <path clip-path="url(#p6aaceb9699)" d="M 174.621575 273.312 
L 176.236521 273.312 
L 176.236521 196.981835 
L 174.621575 196.981835 
z
" style="fill:#1f77b4;"/>
   </g>
   <g id="patch_70">
    <path clip-path="url(#p6aaceb9699)" d="M 176.236521 273.312 
L 177.851467 273.312 
L 177.851467 185.651576 
L 176.236521 185.651576 
z
" style="fill:#1f77b4;"/>
   </g>
   <g id="patch_71">
    <path clip-path="url(#p6aaceb9699)" d="M 177.851467 273.312 
L 179.466413 273.312 
L 179.466413 183.266259 
L 177.851467 183.266259 
z
" style="fill:#1f77b4;"/>
   </g>
   <g id="patch_72">
    <path clip-path="url(#p6aaceb9699)" d="M 179.466413 273.312 
L 181.081359 273.312 
L 181.081359 194.000188 
L 179.466413 194.000188 
z
" style="fill:#1f77b4;"/>
   </g>
   <g id="patch_73">
    <path clip-path="url(#p6aaceb9699)" d="M 181.081359 273.312 
L 182.696305 273.312 
L 182.696305 183.862588 
L 181.081359 183.862588 
z
" style="fill:#1f77b4;"/>
   </g>
   <g id="patch_74">
    <path clip-path="url(#p6aaceb9699)" d="M 182.696305 273.312 
L 184.311251 273.312 
L 184.311251 180.880941 
L 182.696305 180.880941 
z
" style="fill:#1f77b4;"/>
   </g>
   <g id="patch_75">
    <path clip-path="url(#p6aaceb9699)" d="M 184.311251 273.312 
L 185.926197 273.312 
L 185.926197 189.229553 
L 184.311251 189.229553 
z
" style="fill:#1f77b4;"/>
   </g>
   <g id="patch_76">
    <path clip-path="url(#p6aaceb9699)" d="M 185.926197 273.312 
L 187.541143 273.312 
L 187.541143 187.440565 
L 185.926197 187.440565 
z
" style="fill:#1f77b4;"/>
   </g>
   <g id="patch_77">
    <path clip-path="url(#p6aaceb9699)" d="M 187.541143 273.312 
L 189.156089 273.312 
L 189.156089 186.844235 
L 187.541143 186.844235 
z
" style="fill:#1f77b4;"/>
   </g>
   <g id="patch_78">
    <path clip-path="url(#p6aaceb9699)" d="M 189.156089 273.312 
L 190.771035 273.312 
L 190.771035 174.917647 
L 189.156089 174.917647 
z
" style="fill:#1f77b4;"/>
   </g>
   <g id="patch_79">
    <path clip-path="url(#p6aaceb9699)" d="M 190.771035 273.312 
L 192.385981 273.312 
L 192.385981 179.091953 
L 190.771035 179.091953 
z
" style="fill:#1f77b4;"/>
   </g>
   <g id="patch_80">
    <path clip-path="url(#p6aaceb9699)" d="M 192.385981 273.312 
L 194.000927 273.312 
L 194.000927 175.513976 
L 192.385981 175.513976 
z
" style="fill:#1f77b4;"/>
   </g>
   <g id="patch_81">
    <path clip-path="url(#p6aaceb9699)" d="M 194.000927 273.312 
L 195.615873 273.312 
L 195.615873 179.091953 
L 194.000927 179.091953 
z
" style="fill:#1f77b4;"/>
   </g>
   <g id="patch_82">
    <path clip-path="url(#p6aaceb9699)" d="M 195.615873 273.312 
L 197.23082 273.312 
L 197.23082 168.954353 
L 195.615873 168.954353 
z
" style="fill:#1f77b4;"/>
   </g>
   <g id="patch_83">
    <path clip-path="url(#p6aaceb9699)" d="M 197.23082 273.312 
L 198.845766 273.312 
L 198.845766 180.284612 
L 197.23082 180.284612 
z
" style="fill:#1f77b4;"/>
   </g>
   <g id="patch_84">
    <path clip-path="url(#p6aaceb9699)" d="M 198.845766 273.312 
L 200.460712 273.312 
L 200.460712 177.899294 
L 198.845766 177.899294 
z
" style="fill:#1f77b4;"/>
   </g>
   <g id="patch_85">
    <path clip-path="url(#p6aaceb9699)" d="M 200.460712 273.312 
L 202.075658 273.312 
L 202.075658 183.862588 
L 200.460712 183.862588 
z
" style="fill:#1f77b4;"/>
   </g>
   <g id="patch_86">
    <path clip-path="url(#p6aaceb9699)" d="M 202.075658 273.312 
L 203.690604 273.312 
L 203.690604 176.110306 
L 202.075658 176.110306 
z
" style="fill:#1f77b4;"/>
   </g>
   <g id="patch_87">
    <path clip-path="url(#p6aaceb9699)" d="M 203.690604 273.312 
L 205.30555 273.312 
L 205.30555 168.954353 
L 203.690604 168.954353 
z
" style="fill:#1f77b4;"/>
   </g>
   <g id="patch_88">
    <path clip-path="url(#p6aaceb9699)" d="M 205.30555 273.312 
L 206.920496 273.312 
L 206.920496 171.936 
L 205.30555 171.936 
z
" style="fill:#1f77b4;"/>
   </g>
   <g id="patch_89">
    <path clip-path="url(#p6aaceb9699)" d="M 206.920496 273.312 
L 208.535442 273.312 
L 208.535442 148.679153 
L 206.920496 148.679153 
z
" style="fill:#1f77b4;"/>
   </g>
   <g id="patch_90">
    <path clip-path="url(#p6aaceb9699)" d="M 208.535442 273.312 
L 210.150388 273.312 
L 210.150388 167.165365 
L 208.535442 167.165365 
z
" style="fill:#1f77b4;"/>
   </g>
   <g id="patch_91">
    <path clip-path="url(#p6aaceb9699)" d="M 210.150388 273.312 
L 211.765334 273.312 
L 211.765334 151.6608 
L 210.150388 151.6608 
z
" style="fill:#1f77b4;"/>
   </g>
   <g id="patch_92">
    <path clip-path="url(#p6aaceb9699)" d="M 211.765334 273.312 
L 213.38028 273.312 
L 213.38028 181.477271 
L 211.765334 181.477271 
z
" style="fill:#1f77b4;"/>
   </g>
   <g id="patch_93">
    <path clip-path="url(#p6aaceb9699)" d="M 213.38028 273.312 
L 214.995226 273.312 
L 214.995226 168.954353 
L 213.38028 168.954353 
z
" style="fill:#1f77b4;"/>
   </g>
   <g id="patch_94">
    <path clip-path="url(#p6aaceb9699)" d="M 214.995226 273.312 
L 216.610172 273.312 
L 216.610172 174.917647 
L 214.995226 174.917647 
z
" style="fill:#1f77b4;"/>
   </g>
   <g id="patch_95">
    <path clip-path="url(#p6aaceb9699)" d="M 216.610172 273.312 
L 218.225118 273.312 
L 218.225118 160.009412 
L 216.610172 160.009412 
z
" style="fill:#1f77b4;"/>
   </g>
   <g id="patch_96">
    <path clip-path="url(#p6aaceb9699)" d="M 218.225118 273.312 
L 219.840064 273.312 
L 219.840064 161.202071 
L 218.225118 161.202071 
z
" style="fill:#1f77b4;"/>
   </g>
   <g id="patch_97">
    <path clip-path="url(#p6aaceb9699)" d="M 219.840064 273.312 
L 221.45501 273.312 
L 221.45501 157.624094 
L 219.840064 157.624094 
z
" style="fill:#1f77b4;"/>
   </g>
   <g id="patch_98">
    <path clip-path="url(#p6aaceb9699)" d="M 221.45501 273.312 
L 223.069956 273.312 
L 223.069956 176.110306 
L 221.45501 176.110306 
z
" style="fill:#1f77b4;"/>
   </g>
   <g id="patch_99">
    <path clip-path="url(#p6aaceb9699)" d="M 223.069956 273.312 
L 224.684902 273.312 
L 224.684902 158.816753 
L 223.069956 158.816753 
z
" style="fill:#1f77b4;"/>
   </g>
   <g id="patch_100">
    <path clip-path="url(#p6aaceb9699)" d="M 224.684902 273.312 
L 226.299848 273.312 
L 226.299848 167.165365 
L 224.684902 167.165365 
z
" style="fill:#1f77b4;"/>
   </g>
   <g id="patch_101">
    <path clip-path="url(#p6aaceb9699)" d="M 226.299848 273.312 
L 227.914794 273.312 
L 227.914794 173.128659 
L 226.299848 173.128659 
z
" style="fill:#1f77b4;"/>
   </g>
   <g id="patch_102">
    <path clip-path="url(#p6aaceb9699)" d="M 227.914794 273.312 
L 229.52974 273.312 
L 229.52974 162.991059 
L 227.914794 162.991059 
z
" style="fill:#1f77b4;"/>
   </g>
   <g id="patch_103">
    <path clip-path="url(#p6aaceb9699)" d="M 229.52974 273.312 
L 231.144686 273.312 
L 231.144686 161.7984 
L 229.52974 161.7984 
z
" style="fill:#1f77b4;"/>
   </g>
   <g id="patch_104">
    <path clip-path="url(#p6aaceb9699)" d="M 231.144686 273.312 
L 232.759632 273.312 
L 232.759632 161.202071 
L 231.144686 161.202071 
z
" style="fill:#1f77b4;"/>
   </g>
   <g id="patch_105">
    <path clip-path="url(#p6aaceb9699)" d="M 232.759632 273.312 
L 234.374578 273.312 
L 234.374578 160.009412 
L 232.759632 160.009412 
z
" style="fill:#1f77b4;"/>
   </g>
   <g id="patch_106">
    <path clip-path="url(#p6aaceb9699)" d="M 234.374578 273.312 
L 235.989524 273.312 
L 235.989524 152.853459 
L 234.374578 152.853459 
z
" style="fill:#1f77b4;"/>
   </g>
   <g id="patch_107">
    <path clip-path="url(#p6aaceb9699)" d="M 235.989524 273.312 
L 237.60447 273.312 
L 237.60447 155.238776 
L 235.989524 155.238776 
z
" style="fill:#1f77b4;"/>
   </g>
   <g id="patch_108">
    <path clip-path="url(#p6aaceb9699)" d="M 237.60447 273.312 
L 239.219416 273.312 
L 239.219416 164.780047 
L 237.60447 164.780047 
z
" style="fill:#1f77b4;"/>
   </g>
   <g id="patch_109">
    <path clip-path="url(#p6aaceb9699)" d="M 239.219416 273.312 
L 240.834362 273.312 
L 240.834362 135.559906 
L 239.219416 135.559906 
z
" style="fill:#1f77b4;"/>
   </g>
   <g id="patch_110">
    <path clip-path="url(#p6aaceb9699)" d="M 240.834362 273.312 
L 242.449309 273.312 
L 242.449309 152.853459 
L 240.834362 152.853459 
z
" style="fill:#1f77b4;"/>
   </g>
   <g id="patch_111">
    <path clip-path="url(#p6aaceb9699)" d="M 242.449309 273.312 
L 244.064255 273.312 
L 244.064255 132.578259 
L 242.449309 132.578259 
z
" style="fill:#1f77b4;"/>
   </g>
   <g id="patch_112">
    <path clip-path="url(#p6aaceb9699)" d="M 244.064255 273.312 
L 245.679201 273.312 
L 245.679201 151.6608 
L 244.064255 151.6608 
z
" style="fill:#1f77b4;"/>
   </g>
   <g id="patch_113">
    <path clip-path="url(#p6aaceb9699)" d="M 245.679201 273.312 
L 247.294147 273.312 
L 247.294147 136.156235 
L 245.679201 136.156235 
z
" style="fill:#1f77b4;"/>
   </g>
   <g id="patch_114">
    <path clip-path="url(#p6aaceb9699)" d="M 247.294147 273.312 
L 248.909093 273.312 
L 248.909093 133.770918 
L 247.294147 133.770918 
z
" style="fill:#1f77b4;"/>
   </g>
   <g id="patch_115">
    <path clip-path="url(#p6aaceb9699)" d="M 248.909093 273.312 
L 250.524039 273.312 
L 250.524039 146.293835 
L 248.909093 146.293835 
z
" style="fill:#1f77b4;"/>
   </g>
   <g id="patch_116">
    <path clip-path="url(#p6aaceb9699)" d="M 250.524039 273.312 
L 252.138985 273.312 
L 252.138985 158.816753 
L 250.524039 158.816753 
z
" style="fill:#1f77b4;"/>
   </g>
   <g id="patch_117">
    <path clip-path="url(#p6aaceb9699)" d="M 252.138985 273.312 
L 253.753931 273.312 
L 253.753931 142.715859 
L 252.138985 142.715859 
z
" style="fill:#1f77b4;"/>
   </g>
   <g id="patch_118">
    <path clip-path="url(#p6aaceb9699)" d="M 253.753931 273.312 
L 255.368877 273.312 
L 255.368877 138.541553 
L 253.753931 138.541553 
z
" style="fill:#1f77b4;"/>
   </g>
   <g id="patch_119">
    <path clip-path="url(#p6aaceb9699)" d="M 255.368877 273.312 
L 256.983823 273.312 
L 256.983823 139.137882 
L 255.368877 139.137882 
z
" style="fill:#1f77b4;"/>
   </g>
   <g id="patch_120">
    <path clip-path="url(#p6aaceb9699)" d="M 256.983823 273.312 
L 258.598769 273.312 
L 258.598769 139.137882 
L 256.983823 139.137882 
z
" style="fill:#1f77b4;"/>
   </g>
   <g id="patch_121">
    <path clip-path="url(#p6aaceb9699)" d="M 258.598769 273.312 
L 260.213715 273.312 
L 260.213715 150.468141 
L 258.598769 150.468141 
z
" style="fill:#1f77b4;"/>
   </g>
   <g id="patch_122">
    <path clip-path="url(#p6aaceb9699)" d="M 260.213715 273.312 
L 261.828661 273.312 
L 261.828661 120.055341 
L 260.213715 120.055341 
z
" style="fill:#1f77b4;"/>
   </g>
   <g id="patch_123">
    <path clip-path="url(#p6aaceb9699)" d="M 261.828661 273.312 
L 263.443607 273.312 
L 263.443607 116.477365 
L 261.828661 116.477365 
z
" style="fill:#1f77b4;"/>
   </g>
   <g id="patch_124">
    <path clip-path="url(#p6aaceb9699)" d="M 263.443607 273.312 
L 265.058553 273.312 
L 265.058553 119.459012 
L 263.443607 119.459012 
z
" style="fill:#1f77b4;"/>
   </g>
   <g id="patch_125">
    <path clip-path="url(#p6aaceb9699)" d="M 265.058553 273.312 
L 266.673499 273.312 
L 266.673499 137.348894 
L 265.058553 137.348894 
z
" style="fill:#1f77b4;"/>
   </g>
   <g id="patch_126">
    <path clip-path="url(#p6aaceb9699)" d="M 266.673499 273.312 
L 268.288445 273.312 
L 268.288445 145.101176 
L 266.673499 145.101176 
z
" style="fill:#1f77b4;"/>
   </g>
   <g id="patch_127">
    <path clip-path="url(#p6aaceb9699)" d="M 268.288445 273.312 
L 269.903391 273.312 
L 269.903391 129.596612 
L 268.288445 129.596612 
z
" style="fill:#1f77b4;"/>
   </g>
   <g id="patch_128">
    <path clip-path="url(#p6aaceb9699)" d="M 269.903391 273.312 
L 271.518337 273.312 
L 271.518337 124.229647 
L 269.903391 124.229647 
z
" style="fill:#1f77b4;"/>
   </g>
   <g id="patch_129">
    <path clip-path="url(#p6aaceb9699)" d="M 271.518337 273.312 
L 273.133283 273.312 
L 273.133283 139.734212 
L 271.518337 139.734212 
z
" style="fill:#1f77b4;"/>
   </g>
   <g id="patch_130">
    <path clip-path="url(#p6aaceb9699)" d="M 273.133283 273.312 
L 274.748229 273.312 
L 274.748229 121.248 
L 273.133283 121.248 
z
" style="fill:#1f77b4;"/>
   </g>
   <g id="patch_131">
    <path clip-path="url(#p6aaceb9699)" d="M 274.748229 273.312 
L 276.363175 273.312 
L 276.363175 110.514071 
L 274.748229 110.514071 
z
" style="fill:#1f77b4;"/>
   </g>
   <g id="patch_132">
    <path clip-path="url(#p6aaceb9699)" d="M 276.363175 273.312 
L 277.978121 273.312 
L 277.978121 107.532424 
L 276.363175 107.532424 
z
" style="fill:#1f77b4;"/>
   </g>
   <g id="patch_133">
    <path clip-path="url(#p6aaceb9699)" d="M 277.978121 273.312 
L 279.593067 273.312 
L 279.593067 111.1104 
L 277.978121 111.1104 
z
" style="fill:#1f77b4;"/>
   </g>
   <g id="patch_134">
    <path clip-path="url(#p6aaceb9699)" d="M 279.593067 273.312 
L 281.208013 273.312 
L 281.208013 100.376471 
L 279.593067 100.376471 
z
" style="fill:#1f77b4;"/>
   </g>
   <g id="patch_135">
    <path clip-path="url(#p6aaceb9699)" d="M 281.208013 273.312 
L 282.822959 273.312 
L 282.822959 113.495718 
L 281.208013 113.495718 
z
" style="fill:#1f77b4;"/>
   </g>
   <g id="patch_136">
    <path clip-path="url(#p6aaceb9699)" d="M 282.822959 273.312 
L 284.437905 273.312 
L 284.437905 112.303059 
L 282.822959 112.303059 
z
" style="fill:#1f77b4;"/>
   </g>
   <g id="patch_137">
    <path clip-path="url(#p6aaceb9699)" d="M 284.437905 273.312 
L 286.052851 273.312 
L 286.052851 111.1104 
L 284.437905 111.1104 
z
" style="fill:#1f77b4;"/>
   </g>
   <g id="patch_138">
    <path clip-path="url(#p6aaceb9699)" d="M 286.052851 273.312 
L 287.667798 273.312 
L 287.667798 107.532424 
L 286.052851 107.532424 
z
" style="fill:#1f77b4;"/>
   </g>
   <g id="patch_139">
    <path clip-path="url(#p6aaceb9699)" d="M 287.667798 273.312 
L 289.282744 273.312 
L 289.282744 120.651671 
L 287.667798 120.651671 
z
" style="fill:#1f77b4;"/>
   </g>
   <g id="patch_140">
    <path clip-path="url(#p6aaceb9699)" d="M 289.282744 273.312 
L 290.89769 273.312 
L 290.89769 95.009506 
L 289.282744 95.009506 
z
" style="fill:#1f77b4;"/>
   </g>
   <g id="patch_141">
    <path clip-path="url(#p6aaceb9699)" d="M 290.89769 273.312 
L 292.512636 273.312 
L 292.512636 93.220518 
L 290.89769 93.220518 
z
" style="fill:#1f77b4;"/>
   </g>
   <g id="patch_142">
    <path clip-path="url(#p6aaceb9699)" d="M 292.512636 273.312 
L 294.127582 273.312 
L 294.127582 113.495718 
L 292.512636 113.495718 
z
" style="fill:#1f77b4;"/>
   </g>
   <g id="patch_143">
    <path clip-path="url(#p6aaceb9699)" d="M 294.127582 273.312 
L 295.742528 273.312 
L 295.742528 96.202165 
L 294.127582 96.202165 
z
" style="fill:#1f77b4;"/>
   </g>
   <g id="patch_144">
    <path clip-path="url(#p6aaceb9699)" d="M 295.742528 273.312 
L 297.357474 273.312 
L 297.357474 103.358118 
L 295.742528 103.358118 
z
" style="fill:#1f77b4;"/>
   </g>
   <g id="patch_145">
    <path clip-path="url(#p6aaceb9699)" d="M 297.357474 273.312 
L 298.97242 273.312 
L 298.97242 117.670024 
L 297.357474 117.670024 
z
" style="fill:#1f77b4;"/>
   </g>
   <g id="patch_146">
    <path clip-path="url(#p6aaceb9699)" d="M 298.97242 273.312 
L 300.587366 273.312 
L 300.587366 114.092047 
L 298.97242 114.092047 
z
" style="fill:#1f77b4;"/>
   </g>
   <g id="patch_147">
    <path clip-path="url(#p6aaceb9699)" d="M 300.587366 273.312 
L 302.202312 273.312 
L 302.202312 108.128753 
L 300.587366 108.128753 
z
" style="fill:#1f77b4;"/>
   </g>
   <g id="patch_148">
    <path clip-path="url(#p6aaceb9699)" d="M 302.202312 273.312 
L 303.817258 273.312 
L 303.817258 93.816847 
L 302.202312 93.816847 
z
" style="fill:#1f77b4;"/>
   </g>
   <g id="patch_149">
    <path clip-path="url(#p6aaceb9699)" d="M 303.817258 273.312 
L 305.432204 273.312 
L 305.432204 97.991153 
L 303.817258 97.991153 
z
" style="fill:#1f77b4;"/>
   </g>
   <g id="patch_150">
    <path clip-path="url(#p6aaceb9699)" d="M 305.432204 273.312 
L 307.04715 273.312 
L 307.04715 89.046212 
L 305.432204 89.046212 
z
" style="fill:#1f77b4;"/>
   </g>
   <g id="patch_151">
    <path clip-path="url(#p6aaceb9699)" d="M 307.04715 273.312 
L 308.662096 273.312 
L 308.662096 88.449882 
L 307.04715 88.449882 
z
" style="fill:#1f77b4;"/>
   </g>
   <g id="patch_152">
    <path clip-path="url(#p6aaceb9699)" d="M 308.662096 273.312 
L 310.277042 273.312 
L 310.277042 99.183812 
L 308.662096 99.183812 
z
" style="fill:#1f77b4;"/>
   </g>
   <g id="patch_153">
    <path clip-path="url(#p6aaceb9699)" d="M 310.277042 273.312 
L 311.891988 273.312 
L 311.891988 113.495718 
L 310.277042 113.495718 
z
" style="fill:#1f77b4;"/>
   </g>
   <g id="patch_154">
    <path clip-path="url(#p6aaceb9699)" d="M 311.891988 273.312 
L 313.506934 273.312 
L 313.506934 84.871906 
L 311.891988 84.871906 
z
" style="fill:#1f77b4;"/>
   </g>
   <g id="patch_155">
    <path clip-path="url(#p6aaceb9699)" d="M 313.506934 273.312 
L 315.12188 273.312 
L 315.12188 98.587482 
L 313.506934 98.587482 
z
" style="fill:#1f77b4;"/>
   </g>
   <g id="patch_156">
    <path clip-path="url(#p6aaceb9699)" d="M 315.12188 273.312 
L 316.736826 273.312 
L 316.736826 79.504941 
L 315.12188 79.504941 
z
" style="fill:#1f77b4;"/>
   </g>
   <g id="patch_157">
    <path clip-path="url(#p6aaceb9699)" d="M 316.736826 273.312 
L 318.351772 273.312 
L 318.351772 88.449882 
L 316.736826 88.449882 
z
" style="fill:#1f77b4;"/>
   </g>
   <g id="patch_158">
    <path clip-path="url(#p6aaceb9699)" d="M 318.351772 273.312 
L 319.966718 273.312 
L 319.966718 83.082918 
L 318.351772 83.082918 
z
" style="fill:#1f77b4;"/>
   </g>
   <g id="patch_159">
    <path clip-path="url(#p6aaceb9699)" d="M 319.966718 273.312 
L 321.581664 273.312 
L 321.581664 84.871906 
L 319.966718 84.871906 
z
" style="fill:#1f77b4;"/>
   </g>
   <g id="patch_160">
    <path clip-path="url(#p6aaceb9699)" d="M 321.581664 273.312 
L 323.19661 273.312 
L 323.19661 96.202165 
L 321.581664 96.202165 
z
" style="fill:#1f77b4;"/>
   </g>
   <g id="patch_161">
    <path clip-path="url(#p6aaceb9699)" d="M 323.19661 273.312 
L 324.811556 273.312 
L 324.811556 108.128753 
L 323.19661 108.128753 
z
" style="fill:#1f77b4;"/>
   </g>
   <g id="patch_162">
    <path clip-path="url(#p6aaceb9699)" d="M 324.811556 273.312 
L 326.426502 273.312 
L 326.426502 74.137976 
L 324.811556 74.137976 
z
" style="fill:#1f77b4;"/>
   </g>
   <g id="patch_163">
    <path clip-path="url(#p6aaceb9699)" d="M 326.426502 273.312 
L 328.041448 273.312 
L 328.041448 101.569129 
L 326.426502 101.569129 
z
" style="fill:#1f77b4;"/>
   </g>
   <g id="patch_164">
    <path clip-path="url(#p6aaceb9699)" d="M 328.041448 273.312 
L 329.656394 273.312 
L 329.656394 81.293929 
L 328.041448 81.293929 
z
" style="fill:#1f77b4;"/>
   </g>
   <g id="patch_165">
    <path clip-path="url(#p6aaceb9699)" d="M 329.656394 273.312 
L 331.271341 273.312 
L 331.271341 96.798494 
L 329.656394 96.798494 
z
" style="fill:#1f77b4;"/>
   </g>
   <g id="patch_166">
    <path clip-path="url(#p6aaceb9699)" d="M 331.271341 273.312 
L 332.886287 273.312 
L 332.886287 73.541647 
L 331.271341 73.541647 
z
" style="fill:#1f77b4;"/>
   </g>
   <g id="patch_167">
    <path clip-path="url(#p6aaceb9699)" d="M 332.886287 273.312 
L 334.501233 273.312 
L 334.501233 83.082918 
L 332.886287 83.082918 
z
" style="fill:#1f77b4;"/>
   </g>
   <g id="patch_168">
    <path clip-path="url(#p6aaceb9699)" d="M 334.501233 273.312 
L 336.116179 273.312 
L 336.116179 64.000376 
L 334.501233 64.000376 
z
" style="fill:#1f77b4;"/>
   </g>
   <g id="patch_169">
    <path clip-path="url(#p6aaceb9699)" d="M 336.116179 273.312 
L 337.731125 273.312 
L 337.731125 80.101271 
L 336.116179 80.101271 
z
" style="fill:#1f77b4;"/>
   </g>
   <g id="patch_170">
    <path clip-path="url(#p6aaceb9699)" d="M 337.731125 273.312 
L 339.346071 273.312 
L 339.346071 86.660894 
L 337.731125 86.660894 
z
" style="fill:#1f77b4;"/>
   </g>
   <g id="patch_171">
    <path clip-path="url(#p6aaceb9699)" d="M 339.346071 273.312 
L 340.961017 273.312 
L 340.961017 47.899482 
L 339.346071 47.899482 
z
" style="fill:#1f77b4;"/>
   </g>
   <g id="patch_172">
    <path clip-path="url(#p6aaceb9699)" d="M 340.961017 273.312 
L 342.575963 273.312 
L 342.575963 66.385694 
L 340.961017 66.385694 
z
" style="fill:#1f77b4;"/>
   </g>
   <g id="patch_173">
    <path clip-path="url(#p6aaceb9699)" d="M 342.575963 273.312 
L 344.190909 273.312 
L 344.190909 43.128847 
L 342.575963 43.128847 
z
" style="fill:#1f77b4;"/>
   </g>
   <g id="patch_174">
    <path clip-path="url(#p6aaceb9699)" d="M 344.190909 273.312 
L 345.805855 273.312 
L 345.805855 73.541647 
L 344.190909 73.541647 
z
" style="fill:#1f77b4;"/>
   </g>
   <g id="patch_175">
    <path clip-path="url(#p6aaceb9699)" d="M 345.805855 273.312 
L 347.420801 273.312 
L 347.420801 49.092141 
L 345.805855 49.092141 
z
" style="fill:#1f77b4;"/>
   </g>
   <g id="patch_176">
    <path clip-path="url(#p6aaceb9699)" d="M 347.420801 273.312 
L 349.035747 273.312 
L 349.035747 59.229741 
L 347.420801 59.229741 
z
" style="fill:#1f77b4;"/>
   </g>
   <g id="patch_177">
    <path clip-path="url(#p6aaceb9699)" d="M 349.035747 273.312 
L 350.650693 273.312 
L 350.650693 60.4224 
L 349.035747 60.4224 
z
" style="fill:#1f77b4;"/>
   </g>
   <g id="patch_178">
    <path clip-path="url(#p6aaceb9699)" d="M 350.650693 273.312 
L 352.265639 273.312 
L 352.265639 52.073788 
L 350.650693 52.073788 
z
" style="fill:#1f77b4;"/>
   </g>
   <g id="patch_179">
    <path clip-path="url(#p6aaceb9699)" d="M 352.265639 273.312 
L 353.880585 273.312 
L 353.880585 58.037082 
L 352.265639 58.037082 
z
" style="fill:#1f77b4;"/>
   </g>
   <g id="patch_180">
    <path clip-path="url(#p6aaceb9699)" d="M 353.880585 273.312 
L 355.495531 273.312 
L 355.495531 76.523294 
L 353.880585 76.523294 
z
" style="fill:#1f77b4;"/>
   </g>
   <g id="patch_181">
    <path clip-path="url(#p6aaceb9699)" d="M 355.495531 273.312 
L 357.110477 273.312 
L 357.110477 61.018729 
L 355.495531 61.018729 
z
" style="fill:#1f77b4;"/>
   </g>
   <g id="patch_182">
    <path clip-path="url(#p6aaceb9699)" d="M 357.110477 273.312 
L 358.725423 273.312 
L 358.725423 64.596706 
L 357.110477 64.596706 
z
" style="fill:#1f77b4;"/>
   </g>
   <g id="patch_183">
    <path clip-path="url(#p6aaceb9699)" d="M 358.725423 273.312 
L 360.340369 273.312 
L 360.340369 54.459106 
L 358.725423 54.459106 
z
" style="fill:#1f77b4;"/>
   </g>
   <g id="patch_184">
    <path clip-path="url(#p6aaceb9699)" d="M 360.340369 273.312 
L 361.955315 273.312 
L 361.955315 47.303153 
L 360.340369 47.303153 
z
" style="fill:#1f77b4;"/>
   </g>
   <g id="patch_185">
    <path clip-path="url(#p6aaceb9699)" d="M 361.955315 273.312 
L 363.570261 273.312 
L 363.570261 67.578353 
L 361.955315 67.578353 
z
" style="fill:#1f77b4;"/>
   </g>
   <g id="patch_186">
    <path clip-path="url(#p6aaceb9699)" d="M 363.570261 273.312 
L 365.185207 273.312 
L 365.185207 66.385694 
L 363.570261 66.385694 
z
" style="fill:#1f77b4;"/>
   </g>
   <g id="patch_187">
    <path clip-path="url(#p6aaceb9699)" d="M 365.185207 273.312 
L 366.800153 273.312 
L 366.800153 41.339859 
L 365.185207 41.339859 
z
" style="fill:#1f77b4;"/>
   </g>
   <g id="patch_188">
    <path clip-path="url(#p6aaceb9699)" d="M 366.800153 273.312 
L 368.415099 273.312 
L 368.415099 33.587576 
L 366.800153 33.587576 
z
" style="fill:#1f77b4;"/>
   </g>
   <g id="patch_189">
    <path clip-path="url(#p6aaceb9699)" d="M 368.415099 273.312 
L 370.030045 273.312 
L 370.030045 64.000376 
L 368.415099 64.000376 
z
" style="fill:#1f77b4;"/>
   </g>
   <g id="patch_190">
    <path clip-path="url(#p6aaceb9699)" d="M 370.030045 273.312 
L 371.644991 273.312 
L 371.644991 65.789365 
L 370.030045 65.789365 
z
" style="fill:#1f77b4;"/>
   </g>
   <g id="patch_191">
    <path clip-path="url(#p6aaceb9699)" d="M 371.644991 273.312 
L 373.259937 273.312 
L 373.259937 44.321506 
L 371.644991 44.321506 
z
" style="fill:#1f77b4;"/>
   </g>
   <g id="patch_192">
    <path clip-path="url(#p6aaceb9699)" d="M 373.259937 273.312 
L 374.874883 273.312 
L 374.874883 66.385694 
L 373.259937 66.385694 
z
" style="fill:#1f77b4;"/>
   </g>
   <g id="patch_193">
    <path clip-path="url(#p6aaceb9699)" d="M 374.874883 273.312 
L 376.48983 273.312 
L 376.48983 49.092141 
L 374.874883 49.092141 
z
" style="fill:#1f77b4;"/>
   </g>
   <g id="patch_194">
    <path clip-path="url(#p6aaceb9699)" d="M 376.48983 273.312 
L 378.104776 273.312 
L 378.104776 38.954541 
L 376.48983 38.954541 
z
" style="fill:#1f77b4;"/>
   </g>
   <g id="patch_195">
    <path clip-path="url(#p6aaceb9699)" d="M 378.104776 273.312 
L 379.719722 273.312 
L 379.719722 58.037082 
L 378.104776 58.037082 
z
" style="fill:#1f77b4;"/>
   </g>
   <g id="patch_196">
    <path clip-path="url(#p6aaceb9699)" d="M 379.719722 273.312 
L 381.334668 273.312 
L 381.334668 35.376565 
L 379.719722 35.376565 
z
" style="fill:#1f77b4;"/>
   </g>
   <g id="patch_197">
    <path clip-path="url(#p6aaceb9699)" d="M 381.334668 273.312 
L 382.949614 273.312 
L 382.949614 53.266447 
L 381.334668 53.266447 
z
" style="fill:#1f77b4;"/>
   </g>
   <g id="patch_198">
    <path clip-path="url(#p6aaceb9699)" d="M 382.949614 273.312 
L 384.56456 273.312 
L 384.56456 38.358212 
L 382.949614 38.358212 
z
" style="fill:#1f77b4;"/>
   </g>
   <g id="patch_199">
    <path clip-path="url(#p6aaceb9699)" d="M 384.56456 273.312 
L 386.179506 273.312 
L 386.179506 35.376565 
L 384.56456 35.376565 
z
" style="fill:#1f77b4;"/>
   </g>
   <g id="patch_200">
    <path clip-path="url(#p6aaceb9699)" d="M 386.179506 273.312 
L 387.794452 273.312 
L 387.794452 44.321506 
L 386.179506 44.321506 
z
" style="fill:#1f77b4;"/>
   </g>
   <g id="patch_201">
    <path clip-path="url(#p6aaceb9699)" d="M 387.794452 273.312 
L 389.409398 273.312 
L 389.409398 19.872 
L 387.794452 19.872 
z
" style="fill:#1f77b4;"/>
   </g>
   <g id="patch_202">
    <path clip-path="url(#p6aaceb9699)" d="M 389.409398 273.312 
L 391.024344 273.312 
L 391.024344 50.2848 
L 389.409398 50.2848 
z
" style="fill:#1f77b4;"/>
   </g>
   <g id="matplotlib.axis_1">
    <g id="xtick_1">
     <g id="line2d_1">
      <defs>
       <path d="M 0 0 
L 0 3.5 
" id="m92468255f0" style="stroke:#000000;stroke-width:0.8;"/>
      </defs>
      <g>
       <use style="stroke:#000000;stroke-width:0.8;" x="66.376477" xlink:href="#m92468255f0" y="273.312"/>
      </g>
     </g>
     <g id="text_1">
      <!-- 0.0 -->
      <g transform="translate(58.424915 287.910437)scale(0.1 -0.1)">
       <defs>
        <path d="M 2034 4250 
Q 1547 4250 1301 3770 
Q 1056 3291 1056 2328 
Q 1056 1369 1301 889 
Q 1547 409 2034 409 
Q 2525 409 2770 889 
Q 3016 1369 3016 2328 
Q 3016 3291 2770 3770 
Q 2525 4250 2034 4250 
z
M 2034 4750 
Q 2819 4750 3233 4129 
Q 3647 3509 3647 2328 
Q 3647 1150 3233 529 
Q 2819 -91 2034 -91 
Q 1250 -91 836 529 
Q 422 1150 422 2328 
Q 422 3509 836 4129 
Q 1250 4750 2034 4750 
z
" id="DejaVuSans-30" transform="scale(0.015625)"/>
        <path d="M 684 794 
L 1344 794 
L 1344 0 
L 684 0 
L 684 794 
z
" id="DejaVuSans-2e" transform="scale(0.015625)"/>
       </defs>
       <use xlink:href="#DejaVuSans-30"/>
       <use x="63.623047" xlink:href="#DejaVuSans-2e"/>
       <use x="95.410156" xlink:href="#DejaVuSans-30"/>
      </g>
     </g>
    </g>
    <g id="xtick_2">
     <g id="line2d_2">
      <g>
       <use style="stroke:#000000;stroke-width:0.8;" x="131.307386" xlink:href="#m92468255f0" y="273.312"/>
      </g>
     </g>
     <g id="text_2">
      <!-- 0.2 -->
      <g transform="translate(123.355824 287.910437)scale(0.1 -0.1)">
       <defs>
        <path d="M 1228 531 
L 3431 531 
L 3431 0 
L 469 0 
L 469 531 
Q 828 903 1448 1529 
Q 2069 2156 2228 2338 
Q 2531 2678 2651 2914 
Q 2772 3150 2772 3378 
Q 2772 3750 2511 3984 
Q 2250 4219 1831 4219 
Q 1534 4219 1204 4116 
Q 875 4013 500 3803 
L 500 4441 
Q 881 4594 1212 4672 
Q 1544 4750 1819 4750 
Q 2544 4750 2975 4387 
Q 3406 4025 3406 3419 
Q 3406 3131 3298 2873 
Q 3191 2616 2906 2266 
Q 2828 2175 2409 1742 
Q 1991 1309 1228 531 
z
" id="DejaVuSans-32" transform="scale(0.015625)"/>
       </defs>
       <use xlink:href="#DejaVuSans-30"/>
       <use x="63.623047" xlink:href="#DejaVuSans-2e"/>
       <use x="95.410156" xlink:href="#DejaVuSans-32"/>
      </g>
     </g>
    </g>
    <g id="xtick_3">
     <g id="line2d_3">
      <g>
       <use style="stroke:#000000;stroke-width:0.8;" x="196.238295" xlink:href="#m92468255f0" y="273.312"/>
      </g>
     </g>
     <g id="text_3">
      <!-- 0.4 -->
      <g transform="translate(188.286733 287.910437)scale(0.1 -0.1)">
       <defs>
        <path d="M 2419 4116 
L 825 1625 
L 2419 1625 
L 2419 4116 
z
M 2253 4666 
L 3047 4666 
L 3047 1625 
L 3713 1625 
L 3713 1100 
L 3047 1100 
L 3047 0 
L 2419 0 
L 2419 1100 
L 313 1100 
L 313 1709 
L 2253 4666 
z
" id="DejaVuSans-34" transform="scale(0.015625)"/>
       </defs>
       <use xlink:href="#DejaVuSans-30"/>
       <use x="63.623047" xlink:href="#DejaVuSans-2e"/>
       <use x="95.410156" xlink:href="#DejaVuSans-34"/>
      </g>
     </g>
    </g>
    <g id="xtick_4">
     <g id="line2d_4">
      <g>
       <use style="stroke:#000000;stroke-width:0.8;" x="261.169205" xlink:href="#m92468255f0" y="273.312"/>
      </g>
     </g>
     <g id="text_4">
      <!-- 0.6 -->
      <g transform="translate(253.217642 287.910437)scale(0.1 -0.1)">
       <defs>
        <path d="M 2113 2584 
Q 1688 2584 1439 2293 
Q 1191 2003 1191 1497 
Q 1191 994 1439 701 
Q 1688 409 2113 409 
Q 2538 409 2786 701 
Q 3034 994 3034 1497 
Q 3034 2003 2786 2293 
Q 2538 2584 2113 2584 
z
M 3366 4563 
L 3366 3988 
Q 3128 4100 2886 4159 
Q 2644 4219 2406 4219 
Q 1781 4219 1451 3797 
Q 1122 3375 1075 2522 
Q 1259 2794 1537 2939 
Q 1816 3084 2150 3084 
Q 2853 3084 3261 2657 
Q 3669 2231 3669 1497 
Q 3669 778 3244 343 
Q 2819 -91 2113 -91 
Q 1303 -91 875 529 
Q 447 1150 447 2328 
Q 447 3434 972 4092 
Q 1497 4750 2381 4750 
Q 2619 4750 2861 4703 
Q 3103 4656 3366 4563 
z
" id="DejaVuSans-36" transform="scale(0.015625)"/>
       </defs>
       <use xlink:href="#DejaVuSans-30"/>
       <use x="63.623047" xlink:href="#DejaVuSans-2e"/>
       <use x="95.410156" xlink:href="#DejaVuSans-36"/>
      </g>
     </g>
    </g>
    <g id="xtick_5">
     <g id="line2d_5">
      <g>
       <use style="stroke:#000000;stroke-width:0.8;" x="326.100114" xlink:href="#m92468255f0" y="273.312"/>
      </g>
     </g>
     <g id="text_5">
      <!-- 0.8 -->
      <g transform="translate(318.148551 287.910437)scale(0.1 -0.1)">
       <defs>
        <path d="M 2034 2216 
Q 1584 2216 1326 1975 
Q 1069 1734 1069 1313 
Q 1069 891 1326 650 
Q 1584 409 2034 409 
Q 2484 409 2743 651 
Q 3003 894 3003 1313 
Q 3003 1734 2745 1975 
Q 2488 2216 2034 2216 
z
M 1403 2484 
Q 997 2584 770 2862 
Q 544 3141 544 3541 
Q 544 4100 942 4425 
Q 1341 4750 2034 4750 
Q 2731 4750 3128 4425 
Q 3525 4100 3525 3541 
Q 3525 3141 3298 2862 
Q 3072 2584 2669 2484 
Q 3125 2378 3379 2068 
Q 3634 1759 3634 1313 
Q 3634 634 3220 271 
Q 2806 -91 2034 -91 
Q 1263 -91 848 271 
Q 434 634 434 1313 
Q 434 1759 690 2068 
Q 947 2378 1403 2484 
z
M 1172 3481 
Q 1172 3119 1398 2916 
Q 1625 2713 2034 2713 
Q 2441 2713 2670 2916 
Q 2900 3119 2900 3481 
Q 2900 3844 2670 4047 
Q 2441 4250 2034 4250 
Q 1625 4250 1398 4047 
Q 1172 3844 1172 3481 
z
" id="DejaVuSans-38" transform="scale(0.015625)"/>
       </defs>
       <use xlink:href="#DejaVuSans-30"/>
       <use x="63.623047" xlink:href="#DejaVuSans-2e"/>
       <use x="95.410156" xlink:href="#DejaVuSans-38"/>
      </g>
     </g>
    </g>
    <g id="xtick_6">
     <g id="line2d_6">
      <g>
       <use style="stroke:#000000;stroke-width:0.8;" x="391.031023" xlink:href="#m92468255f0" y="273.312"/>
      </g>
     </g>
     <g id="text_6">
      <!-- 1.0 -->
      <g transform="translate(383.07946 287.910437)scale(0.1 -0.1)">
       <defs>
        <path d="M 794 531 
L 1825 531 
L 1825 4091 
L 703 3866 
L 703 4441 
L 1819 4666 
L 2450 4666 
L 2450 531 
L 3481 531 
L 3481 0 
L 794 0 
L 794 531 
z
" id="DejaVuSans-31" transform="scale(0.015625)"/>
       </defs>
       <use xlink:href="#DejaVuSans-31"/>
       <use x="63.623047" xlink:href="#DejaVuSans-2e"/>
       <use x="95.410156" xlink:href="#DejaVuSans-30"/>
      </g>
     </g>
    </g>
    <g id="text_7">
     <!-- Propagation direction -->
     <g transform="translate(175.221719 301.588562)scale(0.1 -0.1)">
      <defs>
       <path d="M 1259 4147 
L 1259 2394 
L 2053 2394 
Q 2494 2394 2734 2622 
Q 2975 2850 2975 3272 
Q 2975 3691 2734 3919 
Q 2494 4147 2053 4147 
L 1259 4147 
z
M 628 4666 
L 2053 4666 
Q 2838 4666 3239 4311 
Q 3641 3956 3641 3272 
Q 3641 2581 3239 2228 
Q 2838 1875 2053 1875 
L 1259 1875 
L 1259 0 
L 628 0 
L 628 4666 
z
" id="DejaVuSans-50" transform="scale(0.015625)"/>
       <path d="M 2631 2963 
Q 2534 3019 2420 3045 
Q 2306 3072 2169 3072 
Q 1681 3072 1420 2755 
Q 1159 2438 1159 1844 
L 1159 0 
L 581 0 
L 581 3500 
L 1159 3500 
L 1159 2956 
Q 1341 3275 1631 3429 
Q 1922 3584 2338 3584 
Q 2397 3584 2469 3576 
Q 2541 3569 2628 3553 
L 2631 2963 
z
" id="DejaVuSans-72" transform="scale(0.015625)"/>
       <path d="M 1959 3097 
Q 1497 3097 1228 2736 
Q 959 2375 959 1747 
Q 959 1119 1226 758 
Q 1494 397 1959 397 
Q 2419 397 2687 759 
Q 2956 1122 2956 1747 
Q 2956 2369 2687 2733 
Q 2419 3097 1959 3097 
z
M 1959 3584 
Q 2709 3584 3137 3096 
Q 3566 2609 3566 1747 
Q 3566 888 3137 398 
Q 2709 -91 1959 -91 
Q 1206 -91 779 398 
Q 353 888 353 1747 
Q 353 2609 779 3096 
Q 1206 3584 1959 3584 
z
" id="DejaVuSans-6f" transform="scale(0.015625)"/>
       <path d="M 1159 525 
L 1159 -1331 
L 581 -1331 
L 581 3500 
L 1159 3500 
L 1159 2969 
Q 1341 3281 1617 3432 
Q 1894 3584 2278 3584 
Q 2916 3584 3314 3078 
Q 3713 2572 3713 1747 
Q 3713 922 3314 415 
Q 2916 -91 2278 -91 
Q 1894 -91 1617 61 
Q 1341 213 1159 525 
z
M 3116 1747 
Q 3116 2381 2855 2742 
Q 2594 3103 2138 3103 
Q 1681 3103 1420 2742 
Q 1159 2381 1159 1747 
Q 1159 1113 1420 752 
Q 1681 391 2138 391 
Q 2594 391 2855 752 
Q 3116 1113 3116 1747 
z
" id="DejaVuSans-70" transform="scale(0.015625)"/>
       <path d="M 2194 1759 
Q 1497 1759 1228 1600 
Q 959 1441 959 1056 
Q 959 750 1161 570 
Q 1363 391 1709 391 
Q 2188 391 2477 730 
Q 2766 1069 2766 1631 
L 2766 1759 
L 2194 1759 
z
M 3341 1997 
L 3341 0 
L 2766 0 
L 2766 531 
Q 2569 213 2275 61 
Q 1981 -91 1556 -91 
Q 1019 -91 701 211 
Q 384 513 384 1019 
Q 384 1609 779 1909 
Q 1175 2209 1959 2209 
L 2766 2209 
L 2766 2266 
Q 2766 2663 2505 2880 
Q 2244 3097 1772 3097 
Q 1472 3097 1187 3025 
Q 903 2953 641 2809 
L 641 3341 
Q 956 3463 1253 3523 
Q 1550 3584 1831 3584 
Q 2591 3584 2966 3190 
Q 3341 2797 3341 1997 
z
" id="DejaVuSans-61" transform="scale(0.015625)"/>
       <path d="M 2906 1791 
Q 2906 2416 2648 2759 
Q 2391 3103 1925 3103 
Q 1463 3103 1205 2759 
Q 947 2416 947 1791 
Q 947 1169 1205 825 
Q 1463 481 1925 481 
Q 2391 481 2648 825 
Q 2906 1169 2906 1791 
z
M 3481 434 
Q 3481 -459 3084 -895 
Q 2688 -1331 1869 -1331 
Q 1566 -1331 1297 -1286 
Q 1028 -1241 775 -1147 
L 775 -588 
Q 1028 -725 1275 -790 
Q 1522 -856 1778 -856 
Q 2344 -856 2625 -561 
Q 2906 -266 2906 331 
L 2906 616 
Q 2728 306 2450 153 
Q 2172 0 1784 0 
Q 1141 0 747 490 
Q 353 981 353 1791 
Q 353 2603 747 3093 
Q 1141 3584 1784 3584 
Q 2172 3584 2450 3431 
Q 2728 3278 2906 2969 
L 2906 3500 
L 3481 3500 
L 3481 434 
z
" id="DejaVuSans-67" transform="scale(0.015625)"/>
       <path d="M 1172 4494 
L 1172 3500 
L 2356 3500 
L 2356 3053 
L 1172 3053 
L 1172 1153 
Q 1172 725 1289 603 
Q 1406 481 1766 481 
L 2356 481 
L 2356 0 
L 1766 0 
Q 1100 0 847 248 
Q 594 497 594 1153 
L 594 3053 
L 172 3053 
L 172 3500 
L 594 3500 
L 594 4494 
L 1172 4494 
z
" id="DejaVuSans-74" transform="scale(0.015625)"/>
       <path d="M 603 3500 
L 1178 3500 
L 1178 0 
L 603 0 
L 603 3500 
z
M 603 4863 
L 1178 4863 
L 1178 4134 
L 603 4134 
L 603 4863 
z
" id="DejaVuSans-69" transform="scale(0.015625)"/>
       <path d="M 3513 2113 
L 3513 0 
L 2938 0 
L 2938 2094 
Q 2938 2591 2744 2837 
Q 2550 3084 2163 3084 
Q 1697 3084 1428 2787 
Q 1159 2491 1159 1978 
L 1159 0 
L 581 0 
L 581 3500 
L 1159 3500 
L 1159 2956 
Q 1366 3272 1645 3428 
Q 1925 3584 2291 3584 
Q 2894 3584 3203 3211 
Q 3513 2838 3513 2113 
z
" id="DejaVuSans-6e" transform="scale(0.015625)"/>
       <path id="DejaVuSans-20" transform="scale(0.015625)"/>
       <path d="M 2906 2969 
L 2906 4863 
L 3481 4863 
L 3481 0 
L 2906 0 
L 2906 525 
Q 2725 213 2448 61 
Q 2172 -91 1784 -91 
Q 1150 -91 751 415 
Q 353 922 353 1747 
Q 353 2572 751 3078 
Q 1150 3584 1784 3584 
Q 2172 3584 2448 3432 
Q 2725 3281 2906 2969 
z
M 947 1747 
Q 947 1113 1208 752 
Q 1469 391 1925 391 
Q 2381 391 2643 752 
Q 2906 1113 2906 1747 
Q 2906 2381 2643 2742 
Q 2381 3103 1925 3103 
Q 1469 3103 1208 2742 
Q 947 2381 947 1747 
z
" id="DejaVuSans-64" transform="scale(0.015625)"/>
       <path d="M 3597 1894 
L 3597 1613 
L 953 1613 
Q 991 1019 1311 708 
Q 1631 397 2203 397 
Q 2534 397 2845 478 
Q 3156 559 3463 722 
L 3463 178 
Q 3153 47 2828 -22 
Q 2503 -91 2169 -91 
Q 1331 -91 842 396 
Q 353 884 353 1716 
Q 353 2575 817 3079 
Q 1281 3584 2069 3584 
Q 2775 3584 3186 3129 
Q 3597 2675 3597 1894 
z
M 3022 2063 
Q 3016 2534 2758 2815 
Q 2500 3097 2075 3097 
Q 1594 3097 1305 2825 
Q 1016 2553 972 2059 
L 3022 2063 
z
" id="DejaVuSans-65" transform="scale(0.015625)"/>
       <path d="M 3122 3366 
L 3122 2828 
Q 2878 2963 2633 3030 
Q 2388 3097 2138 3097 
Q 1578 3097 1268 2742 
Q 959 2388 959 1747 
Q 959 1106 1268 751 
Q 1578 397 2138 397 
Q 2388 397 2633 464 
Q 2878 531 3122 666 
L 3122 134 
Q 2881 22 2623 -34 
Q 2366 -91 2075 -91 
Q 1284 -91 818 406 
Q 353 903 353 1747 
Q 353 2603 823 3093 
Q 1294 3584 2113 3584 
Q 2378 3584 2631 3529 
Q 2884 3475 3122 3366 
z
" id="DejaVuSans-63" transform="scale(0.015625)"/>
      </defs>
      <use xlink:href="#DejaVuSans-50"/>
      <use x="58.552734" xlink:href="#DejaVuSans-72"/>
      <use x="97.416016" xlink:href="#DejaVuSans-6f"/>
      <use x="158.597656" xlink:href="#DejaVuSans-70"/>
      <use x="222.074219" xlink:href="#DejaVuSans-61"/>
      <use x="283.353516" xlink:href="#DejaVuSans-67"/>
      <use x="346.830078" xlink:href="#DejaVuSans-61"/>
      <use x="408.109375" xlink:href="#DejaVuSans-74"/>
      <use x="447.318359" xlink:href="#DejaVuSans-69"/>
      <use x="475.101562" xlink:href="#DejaVuSans-6f"/>
      <use x="536.283203" xlink:href="#DejaVuSans-6e"/>
      <use x="599.662109" xlink:href="#DejaVuSans-20"/>
      <use x="631.449219" xlink:href="#DejaVuSans-64"/>
      <use x="694.925781" xlink:href="#DejaVuSans-69"/>
      <use x="722.708984" xlink:href="#DejaVuSans-72"/>
      <use x="761.572266" xlink:href="#DejaVuSans-65"/>
      <use x="823.095703" xlink:href="#DejaVuSans-63"/>
      <use x="878.076172" xlink:href="#DejaVuSans-74"/>
      <use x="917.285156" xlink:href="#DejaVuSans-69"/>
      <use x="945.068359" xlink:href="#DejaVuSans-6f"/>
      <use x="1006.25" xlink:href="#DejaVuSans-6e"/>
     </g>
    </g>
   </g>
   <g id="matplotlib.axis_2">
    <g id="ytick_1">
     <g id="line2d_7">
      <defs>
       <path d="M 0 0 
L -3.5 0 
" id="ma63da907c9" style="stroke:#000000;stroke-width:0.8;"/>
      </defs>
      <g>
       <use style="stroke:#000000;stroke-width:0.8;" x="50.14375" xlink:href="#ma63da907c9" y="273.312"/>
      </g>
     </g>
     <g id="text_8">
      <!-- 0.00 -->
      <g transform="translate(20.878125 277.111219)scale(0.1 -0.1)">
       <use xlink:href="#DejaVuSans-30"/>
       <use x="63.623047" xlink:href="#DejaVuSans-2e"/>
       <use x="95.410156" xlink:href="#DejaVuSans-30"/>
       <use x="159.033203" xlink:href="#DejaVuSans-30"/>
      </g>
     </g>
    </g>
    <g id="ytick_2">
     <g id="line2d_8">
      <g>
       <use style="stroke:#000000;stroke-width:0.8;" x="50.14375" xlink:href="#ma63da907c9" y="243.648475"/>
      </g>
     </g>
     <g id="text_9">
      <!-- 0.25 -->
      <g transform="translate(20.878125 247.447694)scale(0.1 -0.1)">
       <defs>
        <path d="M 691 4666 
L 3169 4666 
L 3169 4134 
L 1269 4134 
L 1269 2991 
Q 1406 3038 1543 3061 
Q 1681 3084 1819 3084 
Q 2600 3084 3056 2656 
Q 3513 2228 3513 1497 
Q 3513 744 3044 326 
Q 2575 -91 1722 -91 
Q 1428 -91 1123 -41 
Q 819 9 494 109 
L 494 744 
Q 775 591 1075 516 
Q 1375 441 1709 441 
Q 2250 441 2565 725 
Q 2881 1009 2881 1497 
Q 2881 1984 2565 2268 
Q 2250 2553 1709 2553 
Q 1456 2553 1204 2497 
Q 953 2441 691 2322 
L 691 4666 
z
" id="DejaVuSans-35" transform="scale(0.015625)"/>
       </defs>
       <use xlink:href="#DejaVuSans-30"/>
       <use x="63.623047" xlink:href="#DejaVuSans-2e"/>
       <use x="95.410156" xlink:href="#DejaVuSans-32"/>
       <use x="159.033203" xlink:href="#DejaVuSans-35"/>
      </g>
     </g>
    </g>
    <g id="ytick_3">
     <g id="line2d_9">
      <g>
       <use style="stroke:#000000;stroke-width:0.8;" x="50.14375" xlink:href="#ma63da907c9" y="213.98495"/>
      </g>
     </g>
     <g id="text_10">
      <!-- 0.50 -->
      <g transform="translate(20.878125 217.784169)scale(0.1 -0.1)">
       <use xlink:href="#DejaVuSans-30"/>
       <use x="63.623047" xlink:href="#DejaVuSans-2e"/>
       <use x="95.410156" xlink:href="#DejaVuSans-35"/>
       <use x="159.033203" xlink:href="#DejaVuSans-30"/>
      </g>
     </g>
    </g>
    <g id="ytick_4">
     <g id="line2d_10">
      <g>
       <use style="stroke:#000000;stroke-width:0.8;" x="50.14375" xlink:href="#ma63da907c9" y="184.321425"/>
      </g>
     </g>
     <g id="text_11">
      <!-- 0.75 -->
      <g transform="translate(20.878125 188.120644)scale(0.1 -0.1)">
       <defs>
        <path d="M 525 4666 
L 3525 4666 
L 3525 4397 
L 1831 0 
L 1172 0 
L 2766 4134 
L 525 4134 
L 525 4666 
z
" id="DejaVuSans-37" transform="scale(0.015625)"/>
       </defs>
       <use xlink:href="#DejaVuSans-30"/>
       <use x="63.623047" xlink:href="#DejaVuSans-2e"/>
       <use x="95.410156" xlink:href="#DejaVuSans-37"/>
       <use x="159.033203" xlink:href="#DejaVuSans-35"/>
      </g>
     </g>
    </g>
    <g id="ytick_5">
     <g id="line2d_11">
      <g>
       <use style="stroke:#000000;stroke-width:0.8;" x="50.14375" xlink:href="#ma63da907c9" y="154.6579"/>
      </g>
     </g>
     <g id="text_12">
      <!-- 1.00 -->
      <g transform="translate(20.878125 158.457119)scale(0.1 -0.1)">
       <use xlink:href="#DejaVuSans-31"/>
       <use x="63.623047" xlink:href="#DejaVuSans-2e"/>
       <use x="95.410156" xlink:href="#DejaVuSans-30"/>
       <use x="159.033203" xlink:href="#DejaVuSans-30"/>
      </g>
     </g>
    </g>
    <g id="ytick_6">
     <g id="line2d_12">
      <g>
       <use style="stroke:#000000;stroke-width:0.8;" x="50.14375" xlink:href="#ma63da907c9" y="124.994375"/>
      </g>
     </g>
     <g id="text_13">
      <!-- 1.25 -->
      <g transform="translate(20.878125 128.793594)scale(0.1 -0.1)">
       <use xlink:href="#DejaVuSans-31"/>
       <use x="63.623047" xlink:href="#DejaVuSans-2e"/>
       <use x="95.410156" xlink:href="#DejaVuSans-32"/>
       <use x="159.033203" xlink:href="#DejaVuSans-35"/>
      </g>
     </g>
    </g>
    <g id="ytick_7">
     <g id="line2d_13">
      <g>
       <use style="stroke:#000000;stroke-width:0.8;" x="50.14375" xlink:href="#ma63da907c9" y="95.33085"/>
      </g>
     </g>
     <g id="text_14">
      <!-- 1.50 -->
      <g transform="translate(20.878125 99.130069)scale(0.1 -0.1)">
       <use xlink:href="#DejaVuSans-31"/>
       <use x="63.623047" xlink:href="#DejaVuSans-2e"/>
       <use x="95.410156" xlink:href="#DejaVuSans-35"/>
       <use x="159.033203" xlink:href="#DejaVuSans-30"/>
      </g>
     </g>
    </g>
    <g id="ytick_8">
     <g id="line2d_14">
      <g>
       <use style="stroke:#000000;stroke-width:0.8;" x="50.14375" xlink:href="#ma63da907c9" y="65.667326"/>
      </g>
     </g>
     <g id="text_15">
      <!-- 1.75 -->
      <g transform="translate(20.878125 69.466544)scale(0.1 -0.1)">
       <use xlink:href="#DejaVuSans-31"/>
       <use x="63.623047" xlink:href="#DejaVuSans-2e"/>
       <use x="95.410156" xlink:href="#DejaVuSans-37"/>
       <use x="159.033203" xlink:href="#DejaVuSans-35"/>
      </g>
     </g>
    </g>
    <g id="ytick_9">
     <g id="line2d_15">
      <g>
       <use style="stroke:#000000;stroke-width:0.8;" x="50.14375" xlink:href="#ma63da907c9" y="36.003801"/>
      </g>
     </g>
     <g id="text_16">
      <!-- 2.00 -->
      <g transform="translate(20.878125 39.803019)scale(0.1 -0.1)">
       <use xlink:href="#DejaVuSans-32"/>
       <use x="63.623047" xlink:href="#DejaVuSans-2e"/>
       <use x="95.410156" xlink:href="#DejaVuSans-30"/>
       <use x="159.033203" xlink:href="#DejaVuSans-30"/>
      </g>
     </g>
    </g>
    <g id="text_17">
     <!-- Probability density -->
     <g transform="translate(14.798438 186.606781)rotate(-90)scale(0.1 -0.1)">
      <defs>
       <path d="M 3116 1747 
Q 3116 2381 2855 2742 
Q 2594 3103 2138 3103 
Q 1681 3103 1420 2742 
Q 1159 2381 1159 1747 
Q 1159 1113 1420 752 
Q 1681 391 2138 391 
Q 2594 391 2855 752 
Q 3116 1113 3116 1747 
z
M 1159 2969 
Q 1341 3281 1617 3432 
Q 1894 3584 2278 3584 
Q 2916 3584 3314 3078 
Q 3713 2572 3713 1747 
Q 3713 922 3314 415 
Q 2916 -91 2278 -91 
Q 1894 -91 1617 61 
Q 1341 213 1159 525 
L 1159 0 
L 581 0 
L 581 4863 
L 1159 4863 
L 1159 2969 
z
" id="DejaVuSans-62" transform="scale(0.015625)"/>
       <path d="M 603 4863 
L 1178 4863 
L 1178 0 
L 603 0 
L 603 4863 
z
" id="DejaVuSans-6c" transform="scale(0.015625)"/>
       <path d="M 2059 -325 
Q 1816 -950 1584 -1140 
Q 1353 -1331 966 -1331 
L 506 -1331 
L 506 -850 
L 844 -850 
Q 1081 -850 1212 -737 
Q 1344 -625 1503 -206 
L 1606 56 
L 191 3500 
L 800 3500 
L 1894 763 
L 2988 3500 
L 3597 3500 
L 2059 -325 
z
" id="DejaVuSans-79" transform="scale(0.015625)"/>
       <path d="M 2834 3397 
L 2834 2853 
Q 2591 2978 2328 3040 
Q 2066 3103 1784 3103 
Q 1356 3103 1142 2972 
Q 928 2841 928 2578 
Q 928 2378 1081 2264 
Q 1234 2150 1697 2047 
L 1894 2003 
Q 2506 1872 2764 1633 
Q 3022 1394 3022 966 
Q 3022 478 2636 193 
Q 2250 -91 1575 -91 
Q 1294 -91 989 -36 
Q 684 19 347 128 
L 347 722 
Q 666 556 975 473 
Q 1284 391 1588 391 
Q 1994 391 2212 530 
Q 2431 669 2431 922 
Q 2431 1156 2273 1281 
Q 2116 1406 1581 1522 
L 1381 1569 
Q 847 1681 609 1914 
Q 372 2147 372 2553 
Q 372 3047 722 3315 
Q 1072 3584 1716 3584 
Q 2034 3584 2315 3537 
Q 2597 3491 2834 3397 
z
" id="DejaVuSans-73" transform="scale(0.015625)"/>
      </defs>
      <use xlink:href="#DejaVuSans-50"/>
      <use x="58.552734" xlink:href="#DejaVuSans-72"/>
      <use x="97.416016" xlink:href="#DejaVuSans-6f"/>
      <use x="158.597656" xlink:href="#DejaVuSans-62"/>
      <use x="222.074219" xlink:href="#DejaVuSans-61"/>
      <use x="283.353516" xlink:href="#DejaVuSans-62"/>
      <use x="346.830078" xlink:href="#DejaVuSans-69"/>
      <use x="374.613281" xlink:href="#DejaVuSans-6c"/>
      <use x="402.396484" xlink:href="#DejaVuSans-69"/>
      <use x="430.179688" xlink:href="#DejaVuSans-74"/>
      <use x="469.388672" xlink:href="#DejaVuSans-79"/>
      <use x="528.568359" xlink:href="#DejaVuSans-20"/>
      <use x="560.355469" xlink:href="#DejaVuSans-64"/>
      <use x="623.832031" xlink:href="#DejaVuSans-65"/>
      <use x="685.355469" xlink:href="#DejaVuSans-6e"/>
      <use x="748.734375" xlink:href="#DejaVuSans-73"/>
      <use x="800.833984" xlink:href="#DejaVuSans-69"/>
      <use x="828.617188" xlink:href="#DejaVuSans-74"/>
      <use x="867.826172" xlink:href="#DejaVuSans-79"/>
     </g>
    </g>
   </g>
   <g id="line2d_16">
    <path clip-path="url(#p6aaceb9699)" d="M 66.376477 273.312 
L 391.031023 36.003801 
L 391.031023 36.003801 
" style="fill:none;stroke:#ff7f0e;stroke-linecap:square;stroke-width:1.5;"/>
   </g>
   <g id="patch_203">
    <path d="M 50.14375 273.312 
L 50.14375 7.2 
" style="fill:none;stroke:#000000;stroke-linecap:square;stroke-linejoin:miter;stroke-width:0.8;"/>
   </g>
   <g id="patch_204">
    <path d="M 407.26375 273.312 
L 407.26375 7.2 
" style="fill:none;stroke:#000000;stroke-linecap:square;stroke-linejoin:miter;stroke-width:0.8;"/>
   </g>
   <g id="patch_205">
    <path d="M 50.14375 273.312 
L 407.26375 273.312 
" style="fill:none;stroke:#000000;stroke-linecap:square;stroke-linejoin:miter;stroke-width:0.8;"/>
   </g>
   <g id="patch_206">
    <path d="M 50.14375 7.2 
L 407.26375 7.2 
" style="fill:none;stroke:#000000;stroke-linecap:square;stroke-linejoin:miter;stroke-width:0.8;"/>
   </g>
  </g>
 </g>
 <defs>
  <clipPath id="p6aaceb9699">
   <rect height="266.112" width="357.12" x="50.14375" y="7.2"/>
  </clipPath>
 </defs>
</svg>
