<?xml version="1.0" encoding="utf-8" standalone="no"?>
<!DOCTYPE svg PUBLIC "-//W3C//DTD SVG 1.1//EN"
  "http://www.w3.org/Graphics/SVG/1.1/DTD/svg11.dtd">
<svg height="310.86825pt" version="1.1" viewBox="0 0 408.10125 310.86825" width="408.10125pt" xmlns="http://www.w3.org/2000/svg" xmlns:xlink="http://www.w3.org/1999/xlink">
 <metadata>
  <rdf:RDF xmlns:cc="http://creativecommons.org/ns#" xmlns:dc="http://purl.org/dc/elements/1.1/" xmlns:rdf="http://www.w3.org/1999/02/22-rdf-syntax-ns#">
   <cc:Work>
    <dc:type rdf:resource="http://purl.org/dc/dcmitype/StillImage"/>
    <dc:date>2021-07-07T06:16:41.210139</dc:date>
    <dc:format>image/svg+xml</dc:format>
    <dc:creator>
     <cc:Agent>
      <dc:title>Matplotlib v3.4.2, https://matplotlib.org/</dc:title>
     </cc:Agent>
    </dc:creator>
   </cc:Work>
  </rdf:RDF>
 </metadata>
 <defs>
  <style type="text/css">*{stroke-linecap:butt;stroke-linejoin:round;}</style>
 </defs>
 <g id="figure_1">
  <g id="patch_1">
   <path d="M 0 310.86825 
L 408.10125 310.86825 
L 408.10125 0 
L 0 0 
z
" style="fill:#ffffff;"/>
  </g>
  <g id="axes_1">
   <g id="patch_2">
    <path d="M 43.78125 273.312 
L 400.90125 273.312 
L 400.90125 7.2 
L 43.78125 7.2 
z
" style="fill:#ffffff;"/>
   </g>
   <g id="patch_3">
    <path clip-path="url(#pd55dfb8162)" d="M 61.191844 273.312 
L 62.803393 273.312 
L 62.803393 269.691429 
L 61.191844 269.691429 
z
" style="fill:#1f77b4;"/>
   </g>
   <g id="patch_4">
    <path clip-path="url(#pd55dfb8162)" d="M 62.803393 273.312 
L 64.414943 273.312 
L 64.414943 266.070857 
L 62.803393 266.070857 
z
" style="fill:#1f77b4;"/>
   </g>
   <g id="patch_5">
    <path clip-path="url(#pd55dfb8162)" d="M 64.414943 273.312 
L 66.026493 273.312 
L 66.026493 262.450286 
L 64.414943 262.450286 
z
" style="fill:#1f77b4;"/>
   </g>
   <g id="patch_6">
    <path clip-path="url(#pd55dfb8162)" d="M 66.026493 273.312 
L 67.638043 273.312 
L 67.638043 256.657371 
L 66.026493 256.657371 
z
" style="fill:#1f77b4;"/>
   </g>
   <g id="patch_7">
    <path clip-path="url(#pd55dfb8162)" d="M 67.638043 273.312 
L 69.249593 273.312 
L 69.249593 255.933257 
L 67.638043 255.933257 
z
" style="fill:#1f77b4;"/>
   </g>
   <g id="patch_8">
    <path clip-path="url(#pd55dfb8162)" d="M 69.249593 273.312 
L 70.861143 273.312 
L 70.861143 255.209143 
L 69.249593 255.209143 
z
" style="fill:#1f77b4;"/>
   </g>
   <g id="patch_9">
    <path clip-path="url(#pd55dfb8162)" d="M 70.861143 273.312 
L 72.472693 273.312 
L 72.472693 247.968 
L 70.861143 247.968 
z
" style="fill:#1f77b4;"/>
   </g>
   <g id="patch_10">
    <path clip-path="url(#pd55dfb8162)" d="M 72.472693 273.312 
L 74.084243 273.312 
L 74.084243 247.968 
L 72.472693 247.968 
z
" style="fill:#1f77b4;"/>
   </g>
   <g id="patch_11">
    <path clip-path="url(#pd55dfb8162)" d="M 74.084243 273.312 
L 75.695792 273.312 
L 75.695792 240.726857 
L 74.084243 240.726857 
z
" style="fill:#1f77b4;"/>
   </g>
   <g id="patch_12">
    <path clip-path="url(#pd55dfb8162)" d="M 75.695792 273.312 
L 77.307342 273.312 
L 77.307342 237.106286 
L 75.695792 237.106286 
z
" style="fill:#1f77b4;"/>
   </g>
   <g id="patch_13">
    <path clip-path="url(#pd55dfb8162)" d="M 77.307342 273.312 
L 78.918892 273.312 
L 78.918892 243.623314 
L 77.307342 243.623314 
z
" style="fill:#1f77b4;"/>
   </g>
   <g id="patch_14">
    <path clip-path="url(#pd55dfb8162)" d="M 78.918892 273.312 
L 80.530442 273.312 
L 80.530442 237.106286 
L 78.918892 237.106286 
z
" style="fill:#1f77b4;"/>
   </g>
   <g id="patch_15">
    <path clip-path="url(#pd55dfb8162)" d="M 80.530442 273.312 
L 82.141992 273.312 
L 82.141992 237.106286 
L 80.530442 237.106286 
z
" style="fill:#1f77b4;"/>
   </g>
   <g id="patch_16">
    <path clip-path="url(#pd55dfb8162)" d="M 82.141992 273.312 
L 83.753542 273.312 
L 83.753542 229.141029 
L 82.141992 229.141029 
z
" style="fill:#1f77b4;"/>
   </g>
   <g id="patch_17">
    <path clip-path="url(#pd55dfb8162)" d="M 83.753542 273.312 
L 85.365092 273.312 
L 85.365092 216.831086 
L 83.753542 216.831086 
z
" style="fill:#1f77b4;"/>
   </g>
   <g id="patch_18">
    <path clip-path="url(#pd55dfb8162)" d="M 85.365092 273.312 
L 86.976642 273.312 
L 86.976642 209.589943 
L 85.365092 209.589943 
z
" style="fill:#1f77b4;"/>
   </g>
   <g id="patch_19">
    <path clip-path="url(#pd55dfb8162)" d="M 86.976642 273.312 
L 88.588191 273.312 
L 88.588191 221.175771 
L 86.976642 221.175771 
z
" style="fill:#1f77b4;"/>
   </g>
   <g id="patch_20">
    <path clip-path="url(#pd55dfb8162)" d="M 88.588191 273.312 
L 90.199741 273.312 
L 90.199741 214.658743 
L 88.588191 214.658743 
z
" style="fill:#1f77b4;"/>
   </g>
   <g id="patch_21">
    <path clip-path="url(#pd55dfb8162)" d="M 90.199741 273.312 
L 91.811291 273.312 
L 91.811291 202.3488 
L 90.199741 202.3488 
z
" style="fill:#1f77b4;"/>
   </g>
   <g id="patch_22">
    <path clip-path="url(#pd55dfb8162)" d="M 91.811291 273.312 
L 93.422841 273.312 
L 93.422841 212.4864 
L 91.811291 212.4864 
z
" style="fill:#1f77b4;"/>
   </g>
   <g id="patch_23">
    <path clip-path="url(#pd55dfb8162)" d="M 93.422841 273.312 
L 95.034391 273.312 
L 95.034391 198.004114 
L 93.422841 198.004114 
z
" style="fill:#1f77b4;"/>
   </g>
   <g id="patch_24">
    <path clip-path="url(#pd55dfb8162)" d="M 95.034391 273.312 
L 96.645941 273.312 
L 96.645941 180.625371 
L 95.034391 180.625371 
z
" style="fill:#1f77b4;"/>
   </g>
   <g id="patch_25">
    <path clip-path="url(#pd55dfb8162)" d="M 96.645941 273.312 
L 98.257491 273.312 
L 98.257491 184.245943 
L 96.645941 184.245943 
z
" style="fill:#1f77b4;"/>
   </g>
   <g id="patch_26">
    <path clip-path="url(#pd55dfb8162)" d="M 98.257491 273.312 
L 99.869041 273.312 
L 99.869041 188.590629 
L 98.257491 188.590629 
z
" style="fill:#1f77b4;"/>
   </g>
   <g id="patch_27">
    <path clip-path="url(#pd55dfb8162)" d="M 99.869041 273.312 
L 101.48059 273.312 
L 101.48059 190.038857 
L 99.869041 190.038857 
z
" style="fill:#1f77b4;"/>
   </g>
   <g id="patch_28">
    <path clip-path="url(#pd55dfb8162)" d="M 101.48059 273.312 
L 103.09214 273.312 
L 103.09214 162.522514 
L 101.48059 162.522514 
z
" style="fill:#1f77b4;"/>
   </g>
   <g id="patch_29">
    <path clip-path="url(#pd55dfb8162)" d="M 103.09214 273.312 
L 104.70369 273.312 
L 104.70369 184.245943 
L 103.09214 184.245943 
z
" style="fill:#1f77b4;"/>
   </g>
   <g id="patch_30">
    <path clip-path="url(#pd55dfb8162)" d="M 104.70369 273.312 
L 106.31524 273.312 
L 106.31524 190.762971 
L 104.70369 190.762971 
z
" style="fill:#1f77b4;"/>
   </g>
   <g id="patch_31">
    <path clip-path="url(#pd55dfb8162)" d="M 106.31524 273.312 
L 107.92679 273.312 
L 107.92679 177.728914 
L 106.31524 177.728914 
z
" style="fill:#1f77b4;"/>
   </g>
   <g id="patch_32">
    <path clip-path="url(#pd55dfb8162)" d="M 107.92679 273.312 
L 109.53834 273.312 
L 109.53834 167.591314 
L 107.92679 167.591314 
z
" style="fill:#1f77b4;"/>
   </g>
   <g id="patch_33">
    <path clip-path="url(#pd55dfb8162)" d="M 109.53834 273.312 
L 111.14989 273.312 
L 111.14989 159.626057 
L 109.53834 159.626057 
z
" style="fill:#1f77b4;"/>
   </g>
   <g id="patch_34">
    <path clip-path="url(#pd55dfb8162)" d="M 111.14989 273.312 
L 112.76144 273.312 
L 112.76144 169.763657 
L 111.14989 169.763657 
z
" style="fill:#1f77b4;"/>
   </g>
   <g id="patch_35">
    <path clip-path="url(#pd55dfb8162)" d="M 112.76144 273.312 
L 114.372989 273.312 
L 114.372989 171.936 
L 112.76144 171.936 
z
" style="fill:#1f77b4;"/>
   </g>
   <g id="patch_36">
    <path clip-path="url(#pd55dfb8162)" d="M 114.372989 273.312 
L 115.984539 273.312 
L 115.984539 156.7296 
L 114.372989 156.7296 
z
" style="fill:#1f77b4;"/>
   </g>
   <g id="patch_37">
    <path clip-path="url(#pd55dfb8162)" d="M 115.984539 273.312 
L 117.596089 273.312 
L 117.596089 158.177829 
L 115.984539 158.177829 
z
" style="fill:#1f77b4;"/>
   </g>
   <g id="patch_38">
    <path clip-path="url(#pd55dfb8162)" d="M 117.596089 273.312 
L 119.207639 273.312 
L 119.207639 149.488457 
L 117.596089 149.488457 
z
" style="fill:#1f77b4;"/>
   </g>
   <g id="patch_39">
    <path clip-path="url(#pd55dfb8162)" d="M 119.207639 273.312 
L 120.819189 273.312 
L 120.819189 144.419657 
L 119.207639 144.419657 
z
" style="fill:#1f77b4;"/>
   </g>
   <g id="patch_40">
    <path clip-path="url(#pd55dfb8162)" d="M 120.819189 273.312 
L 122.430739 273.312 
L 122.430739 135.006171 
L 120.819189 135.006171 
z
" style="fill:#1f77b4;"/>
   </g>
   <g id="patch_41">
    <path clip-path="url(#pd55dfb8162)" d="M 122.430739 273.312 
L 124.042289 273.312 
L 124.042289 140.799086 
L 122.430739 140.799086 
z
" style="fill:#1f77b4;"/>
   </g>
   <g id="patch_42">
    <path clip-path="url(#pd55dfb8162)" d="M 124.042289 273.312 
L 125.653839 273.312 
L 125.653839 118.351543 
L 124.042289 118.351543 
z
" style="fill:#1f77b4;"/>
   </g>
   <g id="patch_43">
    <path clip-path="url(#pd55dfb8162)" d="M 125.653839 273.312 
L 127.265388 273.312 
L 127.265388 133.557943 
L 125.653839 133.557943 
z
" style="fill:#1f77b4;"/>
   </g>
   <g id="patch_44">
    <path clip-path="url(#pd55dfb8162)" d="M 127.265388 273.312 
L 128.876938 273.312 
L 128.876938 121.248 
L 127.265388 121.248 
z
" style="fill:#1f77b4;"/>
   </g>
   <g id="patch_45">
    <path clip-path="url(#pd55dfb8162)" d="M 128.876938 273.312 
L 130.488488 273.312 
L 130.488488 136.4544 
L 128.876938 136.4544 
z
" style="fill:#1f77b4;"/>
   </g>
   <g id="patch_46">
    <path clip-path="url(#pd55dfb8162)" d="M 130.488488 273.312 
L 132.100038 273.312 
L 132.100038 142.971429 
L 130.488488 142.971429 
z
" style="fill:#1f77b4;"/>
   </g>
   <g id="patch_47">
    <path clip-path="url(#pd55dfb8162)" d="M 132.100038 273.312 
L 133.711588 273.312 
L 133.711588 118.351543 
L 132.100038 118.351543 
z
" style="fill:#1f77b4;"/>
   </g>
   <g id="patch_48">
    <path clip-path="url(#pd55dfb8162)" d="M 133.711588 273.312 
L 135.323138 273.312 
L 135.323138 106.765714 
L 133.711588 106.765714 
z
" style="fill:#1f77b4;"/>
   </g>
   <g id="patch_49">
    <path clip-path="url(#pd55dfb8162)" d="M 135.323138 273.312 
L 136.934688 273.312 
L 136.934688 126.3168 
L 135.323138 126.3168 
z
" style="fill:#1f77b4;"/>
   </g>
   <g id="patch_50">
    <path clip-path="url(#pd55dfb8162)" d="M 136.934688 273.312 
L 138.546238 273.312 
L 138.546238 122.696229 
L 136.934688 122.696229 
z
" style="fill:#1f77b4;"/>
   </g>
   <g id="patch_51">
    <path clip-path="url(#pd55dfb8162)" d="M 138.546238 273.312 
L 140.157787 273.312 
L 140.157787 141.5232 
L 138.546238 141.5232 
z
" style="fill:#1f77b4;"/>
   </g>
   <g id="patch_52">
    <path clip-path="url(#pd55dfb8162)" d="M 140.157787 273.312 
L 141.769337 273.312 
L 141.769337 97.352229 
L 140.157787 97.352229 
z
" style="fill:#1f77b4;"/>
   </g>
   <g id="patch_53">
    <path clip-path="url(#pd55dfb8162)" d="M 141.769337 273.312 
L 143.380887 273.312 
L 143.380887 108.213943 
L 141.769337 108.213943 
z
" style="fill:#1f77b4;"/>
   </g>
   <g id="patch_54">
    <path clip-path="url(#pd55dfb8162)" d="M 143.380887 273.312 
L 144.992437 273.312 
L 144.992437 108.938057 
L 143.380887 108.938057 
z
" style="fill:#1f77b4;"/>
   </g>
   <g id="patch_55">
    <path clip-path="url(#pd55dfb8162)" d="M 144.992437 273.312 
L 146.603987 273.312 
L 146.603987 113.282743 
L 144.992437 113.282743 
z
" style="fill:#1f77b4;"/>
   </g>
   <g id="patch_56">
    <path clip-path="url(#pd55dfb8162)" d="M 146.603987 273.312 
L 148.215537 273.312 
L 148.215537 109.662171 
L 146.603987 109.662171 
z
" style="fill:#1f77b4;"/>
   </g>
   <g id="patch_57">
    <path clip-path="url(#pd55dfb8162)" d="M 148.215537 273.312 
L 149.827087 273.312 
L 149.827087 86.490514 
L 148.215537 86.490514 
z
" style="fill:#1f77b4;"/>
   </g>
   <g id="patch_58">
    <path clip-path="url(#pd55dfb8162)" d="M 149.827087 273.312 
L 151.438637 273.312 
L 151.438637 86.490514 
L 149.827087 86.490514 
z
" style="fill:#1f77b4;"/>
   </g>
   <g id="patch_59">
    <path clip-path="url(#pd55dfb8162)" d="M 151.438637 273.312 
L 153.050186 273.312 
L 153.050186 96.628114 
L 151.438637 96.628114 
z
" style="fill:#1f77b4;"/>
   </g>
   <g id="patch_60">
    <path clip-path="url(#pd55dfb8162)" d="M 153.050186 273.312 
L 154.661736 273.312 
L 154.661736 87.214629 
L 153.050186 87.214629 
z
" style="fill:#1f77b4;"/>
   </g>
   <g id="patch_61">
    <path clip-path="url(#pd55dfb8162)" d="M 154.661736 273.312 
L 156.273286 273.312 
L 156.273286 90.8352 
L 154.661736 90.8352 
z
" style="fill:#1f77b4;"/>
   </g>
   <g id="patch_62">
    <path clip-path="url(#pd55dfb8162)" d="M 156.273286 273.312 
L 157.884836 273.312 
L 157.884836 85.042286 
L 156.273286 85.042286 
z
" style="fill:#1f77b4;"/>
   </g>
   <g id="patch_63">
    <path clip-path="url(#pd55dfb8162)" d="M 157.884836 273.312 
L 159.496386 273.312 
L 159.496386 74.904686 
L 157.884836 74.904686 
z
" style="fill:#1f77b4;"/>
   </g>
   <g id="patch_64">
    <path clip-path="url(#pd55dfb8162)" d="M 159.496386 273.312 
L 161.107936 273.312 
L 161.107936 74.904686 
L 159.496386 74.904686 
z
" style="fill:#1f77b4;"/>
   </g>
   <g id="patch_65">
    <path clip-path="url(#pd55dfb8162)" d="M 161.107936 273.312 
L 162.719486 273.312 
L 162.719486 84.318171 
L 161.107936 84.318171 
z
" style="fill:#1f77b4;"/>
   </g>
   <g id="patch_66">
    <path clip-path="url(#pd55dfb8162)" d="M 162.719486 273.312 
L 164.331036 273.312 
L 164.331036 75.6288 
L 162.719486 75.6288 
z
" style="fill:#1f77b4;"/>
   </g>
   <g id="patch_67">
    <path clip-path="url(#pd55dfb8162)" d="M 164.331036 273.312 
L 165.942585 273.312 
L 165.942585 94.455771 
L 164.331036 94.455771 
z
" style="fill:#1f77b4;"/>
   </g>
   <g id="patch_68">
    <path clip-path="url(#pd55dfb8162)" d="M 165.942585 273.312 
L 167.554135 273.312 
L 167.554135 78.525257 
L 165.942585 78.525257 
z
" style="fill:#1f77b4;"/>
   </g>
   <g id="patch_69">
    <path clip-path="url(#pd55dfb8162)" d="M 167.554135 273.312 
L 169.165685 273.312 
L 169.165685 66.939429 
L 167.554135 66.939429 
z
" style="fill:#1f77b4;"/>
   </g>
   <g id="patch_70">
    <path clip-path="url(#pd55dfb8162)" d="M 169.165685 273.312 
L 170.777235 273.312 
L 170.777235 66.215314 
L 169.165685 66.215314 
z
" style="fill:#1f77b4;"/>
   </g>
   <g id="patch_71">
    <path clip-path="url(#pd55dfb8162)" d="M 170.777235 273.312 
L 172.388785 273.312 
L 172.388785 64.767086 
L 170.777235 64.767086 
z
" style="fill:#1f77b4;"/>
   </g>
   <g id="patch_72">
    <path clip-path="url(#pd55dfb8162)" d="M 172.388785 273.312 
L 174.000335 273.312 
L 174.000335 68.387657 
L 172.388785 68.387657 
z
" style="fill:#1f77b4;"/>
   </g>
   <g id="patch_73">
    <path clip-path="url(#pd55dfb8162)" d="M 174.000335 273.312 
L 175.611885 273.312 
L 175.611885 65.4912 
L 174.000335 65.4912 
z
" style="fill:#1f77b4;"/>
   </g>
   <g id="patch_74">
    <path clip-path="url(#pd55dfb8162)" d="M 175.611885 273.312 
L 177.223435 273.312 
L 177.223435 59.698286 
L 175.611885 59.698286 
z
" style="fill:#1f77b4;"/>
   </g>
   <g id="patch_75">
    <path clip-path="url(#pd55dfb8162)" d="M 177.223435 273.312 
L 178.834984 273.312 
L 178.834984 70.56 
L 177.223435 70.56 
z
" style="fill:#1f77b4;"/>
   </g>
   <g id="patch_76">
    <path clip-path="url(#pd55dfb8162)" d="M 178.834984 273.312 
L 180.446534 273.312 
L 180.446534 71.284114 
L 178.834984 71.284114 
z
" style="fill:#1f77b4;"/>
   </g>
   <g id="patch_77">
    <path clip-path="url(#pd55dfb8162)" d="M 180.446534 273.312 
L 182.058084 273.312 
L 182.058084 64.767086 
L 180.446534 64.767086 
z
" style="fill:#1f77b4;"/>
   </g>
   <g id="patch_78">
    <path clip-path="url(#pd55dfb8162)" d="M 182.058084 273.312 
L 183.669634 273.312 
L 183.669634 75.6288 
L 182.058084 75.6288 
z
" style="fill:#1f77b4;"/>
   </g>
   <g id="patch_79">
    <path clip-path="url(#pd55dfb8162)" d="M 183.669634 273.312 
L 185.281184 273.312 
L 185.281184 64.767086 
L 183.669634 64.767086 
z
" style="fill:#1f77b4;"/>
   </g>
   <g id="patch_80">
    <path clip-path="url(#pd55dfb8162)" d="M 185.281184 273.312 
L 186.892734 273.312 
L 186.892734 69.111771 
L 185.281184 69.111771 
z
" style="fill:#1f77b4;"/>
   </g>
   <g id="patch_81">
    <path clip-path="url(#pd55dfb8162)" d="M 186.892734 273.312 
L 188.504284 273.312 
L 188.504284 56.077714 
L 186.892734 56.077714 
z
" style="fill:#1f77b4;"/>
   </g>
   <g id="patch_82">
    <path clip-path="url(#pd55dfb8162)" d="M 188.504284 273.312 
L 190.115834 273.312 
L 190.115834 47.388343 
L 188.504284 47.388343 
z
" style="fill:#1f77b4;"/>
   </g>
   <g id="patch_83">
    <path clip-path="url(#pd55dfb8162)" d="M 190.115834 273.312 
L 191.727383 273.312 
L 191.727383 83.594057 
L 190.115834 83.594057 
z
" style="fill:#1f77b4;"/>
   </g>
   <g id="patch_84">
    <path clip-path="url(#pd55dfb8162)" d="M 191.727383 273.312 
L 193.338933 273.312 
L 193.338933 52.457143 
L 191.727383 52.457143 
z
" style="fill:#1f77b4;"/>
   </g>
   <g id="patch_85">
    <path clip-path="url(#pd55dfb8162)" d="M 193.338933 273.312 
L 194.950483 273.312 
L 194.950483 61.146514 
L 193.338933 61.146514 
z
" style="fill:#1f77b4;"/>
   </g>
   <g id="patch_86">
    <path clip-path="url(#pd55dfb8162)" d="M 194.950483 273.312 
L 196.562033 273.312 
L 196.562033 58.974171 
L 194.950483 58.974171 
z
" style="fill:#1f77b4;"/>
   </g>
   <g id="patch_87">
    <path clip-path="url(#pd55dfb8162)" d="M 196.562033 273.312 
L 198.173583 273.312 
L 198.173583 72.008229 
L 196.562033 72.008229 
z
" style="fill:#1f77b4;"/>
   </g>
   <g id="patch_88">
    <path clip-path="url(#pd55dfb8162)" d="M 198.173583 273.312 
L 199.785133 273.312 
L 199.785133 57.525943 
L 198.173583 57.525943 
z
" style="fill:#1f77b4;"/>
   </g>
   <g id="patch_89">
    <path clip-path="url(#pd55dfb8162)" d="M 199.785133 273.312 
L 201.396683 273.312 
L 201.396683 45.940114 
L 199.785133 45.940114 
z
" style="fill:#1f77b4;"/>
   </g>
   <g id="patch_90">
    <path clip-path="url(#pd55dfb8162)" d="M 201.396683 273.312 
L 203.008233 273.312 
L 203.008233 45.216 
L 201.396683 45.216 
z
" style="fill:#1f77b4;"/>
   </g>
   <g id="patch_91">
    <path clip-path="url(#pd55dfb8162)" d="M 203.008233 273.312 
L 204.619782 273.312 
L 204.619782 39.423086 
L 203.008233 39.423086 
z
" style="fill:#1f77b4;"/>
   </g>
   <g id="patch_92">
    <path clip-path="url(#pd55dfb8162)" d="M 204.619782 273.312 
L 206.231332 273.312 
L 206.231332 72.008229 
L 204.619782 72.008229 
z
" style="fill:#1f77b4;"/>
   </g>
   <g id="patch_93">
    <path clip-path="url(#pd55dfb8162)" d="M 206.231332 273.312 
L 207.842882 273.312 
L 207.842882 39.423086 
L 206.231332 39.423086 
z
" style="fill:#1f77b4;"/>
   </g>
   <g id="patch_94">
    <path clip-path="url(#pd55dfb8162)" d="M 207.842882 273.312 
L 209.454432 273.312 
L 209.454432 55.3536 
L 207.842882 55.3536 
z
" style="fill:#1f77b4;"/>
   </g>
   <g id="patch_95">
    <path clip-path="url(#pd55dfb8162)" d="M 209.454432 273.312 
L 211.065982 273.312 
L 211.065982 35.802514 
L 209.454432 35.802514 
z
" style="fill:#1f77b4;"/>
   </g>
   <g id="patch_96">
    <path clip-path="url(#pd55dfb8162)" d="M 211.065982 273.312 
L 212.677532 273.312 
L 212.677532 57.525943 
L 211.065982 57.525943 
z
" style="fill:#1f77b4;"/>
   </g>
   <g id="patch_97">
    <path clip-path="url(#pd55dfb8162)" d="M 212.677532 273.312 
L 214.289082 273.312 
L 214.289082 50.2848 
L 212.677532 50.2848 
z
" style="fill:#1f77b4;"/>
   </g>
   <g id="patch_98">
    <path clip-path="url(#pd55dfb8162)" d="M 214.289082 273.312 
L 215.900632 273.312 
L 215.900632 58.974171 
L 214.289082 58.974171 
z
" style="fill:#1f77b4;"/>
   </g>
   <g id="patch_99">
    <path clip-path="url(#pd55dfb8162)" d="M 215.900632 273.312 
L 217.512181 273.312 
L 217.512181 54.629486 
L 215.900632 54.629486 
z
" style="fill:#1f77b4;"/>
   </g>
   <g id="patch_100">
    <path clip-path="url(#pd55dfb8162)" d="M 217.512181 273.312 
L 219.123731 273.312 
L 219.123731 22.044343 
L 217.512181 22.044343 
z
" style="fill:#1f77b4;"/>
   </g>
   <g id="patch_101">
    <path clip-path="url(#pd55dfb8162)" d="M 219.123731 273.312 
L 220.735281 273.312 
L 220.735281 43.043657 
L 219.123731 43.043657 
z
" style="fill:#1f77b4;"/>
   </g>
   <g id="patch_102">
    <path clip-path="url(#pd55dfb8162)" d="M 220.735281 273.312 
L 222.346831 273.312 
L 222.346831 61.870629 
L 220.735281 61.870629 
z
" style="fill:#1f77b4;"/>
   </g>
   <g id="patch_103">
    <path clip-path="url(#pd55dfb8162)" d="M 222.346831 273.312 
L 223.958381 273.312 
L 223.958381 42.319543 
L 222.346831 42.319543 
z
" style="fill:#1f77b4;"/>
   </g>
   <g id="patch_104">
    <path clip-path="url(#pd55dfb8162)" d="M 223.958381 273.312 
L 225.569931 273.312 
L 225.569931 64.767086 
L 223.958381 64.767086 
z
" style="fill:#1f77b4;"/>
   </g>
   <g id="patch_105">
    <path clip-path="url(#pd55dfb8162)" d="M 225.569931 273.312 
L 227.181481 273.312 
L 227.181481 51.733029 
L 225.569931 51.733029 
z
" style="fill:#1f77b4;"/>
   </g>
   <g id="patch_106">
    <path clip-path="url(#pd55dfb8162)" d="M 227.181481 273.312 
L 228.793031 273.312 
L 228.793031 43.043657 
L 227.181481 43.043657 
z
" style="fill:#1f77b4;"/>
   </g>
   <g id="patch_107">
    <path clip-path="url(#pd55dfb8162)" d="M 228.793031 273.312 
L 230.40458 273.312 
L 230.40458 37.250743 
L 228.793031 37.250743 
z
" style="fill:#1f77b4;"/>
   </g>
   <g id="patch_108">
    <path clip-path="url(#pd55dfb8162)" d="M 230.40458 273.312 
L 232.01613 273.312 
L 232.01613 49.560686 
L 230.40458 49.560686 
z
" style="fill:#1f77b4;"/>
   </g>
   <g id="patch_109">
    <path clip-path="url(#pd55dfb8162)" d="M 232.01613 273.312 
L 233.62768 273.312 
L 233.62768 19.872 
L 232.01613 19.872 
z
" style="fill:#1f77b4;"/>
   </g>
   <g id="patch_110">
    <path clip-path="url(#pd55dfb8162)" d="M 233.62768 273.312 
L 235.23923 273.312 
L 235.23923 60.4224 
L 233.62768 60.4224 
z
" style="fill:#1f77b4;"/>
   </g>
   <g id="patch_111">
    <path clip-path="url(#pd55dfb8162)" d="M 235.23923 273.312 
L 236.85078 273.312 
L 236.85078 40.1472 
L 235.23923 40.1472 
z
" style="fill:#1f77b4;"/>
   </g>
   <g id="patch_112">
    <path clip-path="url(#pd55dfb8162)" d="M 236.85078 273.312 
L 238.46233 273.312 
L 238.46233 58.250057 
L 236.85078 58.250057 
z
" style="fill:#1f77b4;"/>
   </g>
   <g id="patch_113">
    <path clip-path="url(#pd55dfb8162)" d="M 238.46233 273.312 
L 240.07388 273.312 
L 240.07388 66.939429 
L 238.46233 66.939429 
z
" style="fill:#1f77b4;"/>
   </g>
   <g id="patch_114">
    <path clip-path="url(#pd55dfb8162)" d="M 240.07388 273.312 
L 241.68543 273.312 
L 241.68543 52.457143 
L 240.07388 52.457143 
z
" style="fill:#1f77b4;"/>
   </g>
   <g id="patch_115">
    <path clip-path="url(#pd55dfb8162)" d="M 241.68543 273.312 
L 243.296979 273.312 
L 243.296979 65.4912 
L 241.68543 65.4912 
z
" style="fill:#1f77b4;"/>
   </g>
   <g id="patch_116">
    <path clip-path="url(#pd55dfb8162)" d="M 243.296979 273.312 
L 244.908529 273.312 
L 244.908529 50.2848 
L 243.296979 50.2848 
z
" style="fill:#1f77b4;"/>
   </g>
   <g id="patch_117">
    <path clip-path="url(#pd55dfb8162)" d="M 244.908529 273.312 
L 246.520079 273.312 
L 246.520079 40.1472 
L 244.908529 40.1472 
z
" style="fill:#1f77b4;"/>
   </g>
   <g id="patch_118">
    <path clip-path="url(#pd55dfb8162)" d="M 246.520079 273.312 
L 248.131629 273.312 
L 248.131629 40.871314 
L 246.520079 40.871314 
z
" style="fill:#1f77b4;"/>
   </g>
   <g id="patch_119">
    <path clip-path="url(#pd55dfb8162)" d="M 248.131629 273.312 
L 249.743179 273.312 
L 249.743179 45.216 
L 248.131629 45.216 
z
" style="fill:#1f77b4;"/>
   </g>
   <g id="patch_120">
    <path clip-path="url(#pd55dfb8162)" d="M 249.743179 273.312 
L 251.354729 273.312 
L 251.354729 57.525943 
L 249.743179 57.525943 
z
" style="fill:#1f77b4;"/>
   </g>
   <g id="patch_121">
    <path clip-path="url(#pd55dfb8162)" d="M 251.354729 273.312 
L 252.966279 273.312 
L 252.966279 51.008914 
L 251.354729 51.008914 
z
" style="fill:#1f77b4;"/>
   </g>
   <g id="patch_122">
    <path clip-path="url(#pd55dfb8162)" d="M 252.966279 273.312 
L 254.577829 273.312 
L 254.577829 61.870629 
L 252.966279 61.870629 
z
" style="fill:#1f77b4;"/>
   </g>
   <g id="patch_123">
    <path clip-path="url(#pd55dfb8162)" d="M 254.577829 273.312 
L 256.189378 273.312 
L 256.189378 70.56 
L 254.577829 70.56 
z
" style="fill:#1f77b4;"/>
   </g>
   <g id="patch_124">
    <path clip-path="url(#pd55dfb8162)" d="M 256.189378 273.312 
L 257.800928 273.312 
L 257.800928 59.698286 
L 256.189378 59.698286 
z
" style="fill:#1f77b4;"/>
   </g>
   <g id="patch_125">
    <path clip-path="url(#pd55dfb8162)" d="M 257.800928 273.312 
L 259.412478 273.312 
L 259.412478 81.421714 
L 257.800928 81.421714 
z
" style="fill:#1f77b4;"/>
   </g>
   <g id="patch_126">
    <path clip-path="url(#pd55dfb8162)" d="M 259.412478 273.312 
L 261.024028 273.312 
L 261.024028 63.318857 
L 259.412478 63.318857 
z
" style="fill:#1f77b4;"/>
   </g>
   <g id="patch_127">
    <path clip-path="url(#pd55dfb8162)" d="M 261.024028 273.312 
L 262.635578 273.312 
L 262.635578 77.801143 
L 261.024028 77.801143 
z
" style="fill:#1f77b4;"/>
   </g>
   <g id="patch_128">
    <path clip-path="url(#pd55dfb8162)" d="M 262.635578 273.312 
L 264.247128 273.312 
L 264.247128 53.905371 
L 262.635578 53.905371 
z
" style="fill:#1f77b4;"/>
   </g>
   <g id="patch_129">
    <path clip-path="url(#pd55dfb8162)" d="M 264.247128 273.312 
L 265.858678 273.312 
L 265.858678 61.146514 
L 264.247128 61.146514 
z
" style="fill:#1f77b4;"/>
   </g>
   <g id="patch_130">
    <path clip-path="url(#pd55dfb8162)" d="M 265.858678 273.312 
L 267.470228 273.312 
L 267.470228 64.767086 
L 265.858678 64.767086 
z
" style="fill:#1f77b4;"/>
   </g>
   <g id="patch_131">
    <path clip-path="url(#pd55dfb8162)" d="M 267.470228 273.312 
L 269.081777 273.312 
L 269.081777 74.180571 
L 267.470228 74.180571 
z
" style="fill:#1f77b4;"/>
   </g>
   <g id="patch_132">
    <path clip-path="url(#pd55dfb8162)" d="M 269.081777 273.312 
L 270.693327 273.312 
L 270.693327 76.352914 
L 269.081777 76.352914 
z
" style="fill:#1f77b4;"/>
   </g>
   <g id="patch_133">
    <path clip-path="url(#pd55dfb8162)" d="M 270.693327 273.312 
L 272.304877 273.312 
L 272.304877 90.111086 
L 270.693327 90.111086 
z
" style="fill:#1f77b4;"/>
   </g>
   <g id="patch_134">
    <path clip-path="url(#pd55dfb8162)" d="M 272.304877 273.312 
L 273.916427 273.312 
L 273.916427 72.732343 
L 272.304877 72.732343 
z
" style="fill:#1f77b4;"/>
   </g>
   <g id="patch_135">
    <path clip-path="url(#pd55dfb8162)" d="M 273.916427 273.312 
L 275.527977 273.312 
L 275.527977 75.6288 
L 273.916427 75.6288 
z
" style="fill:#1f77b4;"/>
   </g>
   <g id="patch_136">
    <path clip-path="url(#pd55dfb8162)" d="M 275.527977 273.312 
L 277.139527 273.312 
L 277.139527 86.490514 
L 275.527977 86.490514 
z
" style="fill:#1f77b4;"/>
   </g>
   <g id="patch_137">
    <path clip-path="url(#pd55dfb8162)" d="M 277.139527 273.312 
L 278.751077 273.312 
L 278.751077 64.042971 
L 277.139527 64.042971 
z
" style="fill:#1f77b4;"/>
   </g>
   <g id="patch_138">
    <path clip-path="url(#pd55dfb8162)" d="M 278.751077 273.312 
L 280.362627 273.312 
L 280.362627 95.179886 
L 278.751077 95.179886 
z
" style="fill:#1f77b4;"/>
   </g>
   <g id="patch_139">
    <path clip-path="url(#pd55dfb8162)" d="M 280.362627 273.312 
L 281.974176 273.312 
L 281.974176 90.8352 
L 280.362627 90.8352 
z
" style="fill:#1f77b4;"/>
   </g>
   <g id="patch_140">
    <path clip-path="url(#pd55dfb8162)" d="M 281.974176 273.312 
L 283.585726 273.312 
L 283.585726 87.214629 
L 281.974176 87.214629 
z
" style="fill:#1f77b4;"/>
   </g>
   <g id="patch_141">
    <path clip-path="url(#pd55dfb8162)" d="M 283.585726 273.312 
L 285.197276 273.312 
L 285.197276 95.179886 
L 283.585726 95.179886 
z
" style="fill:#1f77b4;"/>
   </g>
   <g id="patch_142">
    <path clip-path="url(#pd55dfb8162)" d="M 285.197276 273.312 
L 286.808826 273.312 
L 286.808826 107.489829 
L 285.197276 107.489829 
z
" style="fill:#1f77b4;"/>
   </g>
   <g id="patch_143">
    <path clip-path="url(#pd55dfb8162)" d="M 286.808826 273.312 
L 288.420376 273.312 
L 288.420376 111.834514 
L 286.808826 111.834514 
z
" style="fill:#1f77b4;"/>
   </g>
   <g id="patch_144">
    <path clip-path="url(#pd55dfb8162)" d="M 288.420376 273.312 
L 290.031926 273.312 
L 290.031926 66.939429 
L 288.420376 66.939429 
z
" style="fill:#1f77b4;"/>
   </g>
   <g id="patch_145">
    <path clip-path="url(#pd55dfb8162)" d="M 290.031926 273.312 
L 291.643476 273.312 
L 291.643476 77.801143 
L 290.031926 77.801143 
z
" style="fill:#1f77b4;"/>
   </g>
   <g id="patch_146">
    <path clip-path="url(#pd55dfb8162)" d="M 291.643476 273.312 
L 293.255026 273.312 
L 293.255026 101.696914 
L 291.643476 101.696914 
z
" style="fill:#1f77b4;"/>
   </g>
   <g id="patch_147">
    <path clip-path="url(#pd55dfb8162)" d="M 293.255026 273.312 
L 294.866575 273.312 
L 294.866575 103.869257 
L 293.255026 103.869257 
z
" style="fill:#1f77b4;"/>
   </g>
   <g id="patch_148">
    <path clip-path="url(#pd55dfb8162)" d="M 294.866575 273.312 
L 296.478125 273.312 
L 296.478125 97.352229 
L 294.866575 97.352229 
z
" style="fill:#1f77b4;"/>
   </g>
   <g id="patch_149">
    <path clip-path="url(#pd55dfb8162)" d="M 296.478125 273.312 
L 298.089675 273.312 
L 298.089675 83.594057 
L 296.478125 83.594057 
z
" style="fill:#1f77b4;"/>
   </g>
   <g id="patch_150">
    <path clip-path="url(#pd55dfb8162)" d="M 298.089675 273.312 
L 299.701225 273.312 
L 299.701225 117.627429 
L 298.089675 117.627429 
z
" style="fill:#1f77b4;"/>
   </g>
   <g id="patch_151">
    <path clip-path="url(#pd55dfb8162)" d="M 299.701225 273.312 
L 301.312775 273.312 
L 301.312775 127.040914 
L 299.701225 127.040914 
z
" style="fill:#1f77b4;"/>
   </g>
   <g id="patch_152">
    <path clip-path="url(#pd55dfb8162)" d="M 301.312775 273.312 
L 302.924325 273.312 
L 302.924325 98.076343 
L 301.312775 98.076343 
z
" style="fill:#1f77b4;"/>
   </g>
   <g id="patch_153">
    <path clip-path="url(#pd55dfb8162)" d="M 302.924325 273.312 
L 304.535875 273.312 
L 304.535875 93.007543 
L 302.924325 93.007543 
z
" style="fill:#1f77b4;"/>
   </g>
   <g id="patch_154">
    <path clip-path="url(#pd55dfb8162)" d="M 304.535875 273.312 
L 306.147425 273.312 
L 306.147425 105.317486 
L 304.535875 105.317486 
z
" style="fill:#1f77b4;"/>
   </g>
   <g id="patch_155">
    <path clip-path="url(#pd55dfb8162)" d="M 306.147425 273.312 
L 307.758974 273.312 
L 307.758974 119.799771 
L 306.147425 119.799771 
z
" style="fill:#1f77b4;"/>
   </g>
   <g id="patch_156">
    <path clip-path="url(#pd55dfb8162)" d="M 307.758974 273.312 
L 309.370524 273.312 
L 309.370524 131.3856 
L 307.758974 131.3856 
z
" style="fill:#1f77b4;"/>
   </g>
   <g id="patch_157">
    <path clip-path="url(#pd55dfb8162)" d="M 309.370524 273.312 
L 310.982074 273.312 
L 310.982074 129.213257 
L 309.370524 129.213257 
z
" style="fill:#1f77b4;"/>
   </g>
   <g id="patch_158">
    <path clip-path="url(#pd55dfb8162)" d="M 310.982074 273.312 
L 312.593624 273.312 
L 312.593624 128.489143 
L 310.982074 128.489143 
z
" style="fill:#1f77b4;"/>
   </g>
   <g id="patch_159">
    <path clip-path="url(#pd55dfb8162)" d="M 312.593624 273.312 
L 314.205174 273.312 
L 314.205174 124.868571 
L 312.593624 124.868571 
z
" style="fill:#1f77b4;"/>
   </g>
   <g id="patch_160">
    <path clip-path="url(#pd55dfb8162)" d="M 314.205174 273.312 
L 315.816724 273.312 
L 315.816724 125.592686 
L 314.205174 125.592686 
z
" style="fill:#1f77b4;"/>
   </g>
   <g id="patch_161">
    <path clip-path="url(#pd55dfb8162)" d="M 315.816724 273.312 
L 317.428274 273.312 
L 317.428274 137.178514 
L 315.816724 137.178514 
z
" style="fill:#1f77b4;"/>
   </g>
   <g id="patch_162">
    <path clip-path="url(#pd55dfb8162)" d="M 317.428274 273.312 
L 319.039824 273.312 
L 319.039824 130.661486 
L 317.428274 130.661486 
z
" style="fill:#1f77b4;"/>
   </g>
   <g id="patch_163">
    <path clip-path="url(#pd55dfb8162)" d="M 319.039824 273.312 
L 320.651373 273.312 
L 320.651373 130.661486 
L 319.039824 130.661486 
z
" style="fill:#1f77b4;"/>
   </g>
   <g id="patch_164">
    <path clip-path="url(#pd55dfb8162)" d="M 320.651373 273.312 
L 322.262923 273.312 
L 322.262923 141.5232 
L 320.651373 141.5232 
z
" style="fill:#1f77b4;"/>
   </g>
   <g id="patch_165">
    <path clip-path="url(#pd55dfb8162)" d="M 322.262923 273.312 
L 323.874473 273.312 
L 323.874473 168.315429 
L 322.262923 168.315429 
z
" style="fill:#1f77b4;"/>
   </g>
   <g id="patch_166">
    <path clip-path="url(#pd55dfb8162)" d="M 323.874473 273.312 
L 325.486023 273.312 
L 325.486023 156.7296 
L 323.874473 156.7296 
z
" style="fill:#1f77b4;"/>
   </g>
   <g id="patch_167">
    <path clip-path="url(#pd55dfb8162)" d="M 325.486023 273.312 
L 327.097573 273.312 
L 327.097573 154.557257 
L 325.486023 154.557257 
z
" style="fill:#1f77b4;"/>
   </g>
   <g id="patch_168">
    <path clip-path="url(#pd55dfb8162)" d="M 327.097573 273.312 
L 328.709123 273.312 
L 328.709123 158.177829 
L 327.097573 158.177829 
z
" style="fill:#1f77b4;"/>
   </g>
   <g id="patch_169">
    <path clip-path="url(#pd55dfb8162)" d="M 328.709123 273.312 
L 330.320673 273.312 
L 330.320673 156.7296 
L 328.709123 156.7296 
z
" style="fill:#1f77b4;"/>
   </g>
   <g id="patch_170">
    <path clip-path="url(#pd55dfb8162)" d="M 330.320673 273.312 
L 331.932223 273.312 
L 331.932223 158.901943 
L 330.320673 158.901943 
z
" style="fill:#1f77b4;"/>
   </g>
   <g id="patch_171">
    <path clip-path="url(#pd55dfb8162)" d="M 331.932223 273.312 
L 333.543772 273.312 
L 333.543772 169.763657 
L 331.932223 169.763657 
z
" style="fill:#1f77b4;"/>
   </g>
   <g id="patch_172">
    <path clip-path="url(#pd55dfb8162)" d="M 333.543772 273.312 
L 335.155322 273.312 
L 335.155322 169.039543 
L 333.543772 169.039543 
z
" style="fill:#1f77b4;"/>
   </g>
   <g id="patch_173">
    <path clip-path="url(#pd55dfb8162)" d="M 335.155322 273.312 
L 336.766872 273.312 
L 336.766872 178.453029 
L 335.155322 178.453029 
z
" style="fill:#1f77b4;"/>
   </g>
   <g id="patch_174">
    <path clip-path="url(#pd55dfb8162)" d="M 336.766872 273.312 
L 338.378422 273.312 
L 338.378422 166.143086 
L 336.766872 166.143086 
z
" style="fill:#1f77b4;"/>
   </g>
   <g id="patch_175">
    <path clip-path="url(#pd55dfb8162)" d="M 338.378422 273.312 
L 339.989972 273.312 
L 339.989972 179.177143 
L 338.378422 179.177143 
z
" style="fill:#1f77b4;"/>
   </g>
   <g id="patch_176">
    <path clip-path="url(#pd55dfb8162)" d="M 339.989972 273.312 
L 341.601522 273.312 
L 341.601522 183.521829 
L 339.989972 183.521829 
z
" style="fill:#1f77b4;"/>
   </g>
   <g id="patch_177">
    <path clip-path="url(#pd55dfb8162)" d="M 341.601522 273.312 
L 343.213072 273.312 
L 343.213072 178.453029 
L 341.601522 178.453029 
z
" style="fill:#1f77b4;"/>
   </g>
   <g id="patch_178">
    <path clip-path="url(#pd55dfb8162)" d="M 343.213072 273.312 
L 344.824622 273.312 
L 344.824622 182.797714 
L 343.213072 182.797714 
z
" style="fill:#1f77b4;"/>
   </g>
   <g id="patch_179">
    <path clip-path="url(#pd55dfb8162)" d="M 344.824622 273.312 
L 346.436171 273.312 
L 346.436171 197.28 
L 344.824622 197.28 
z
" style="fill:#1f77b4;"/>
   </g>
   <g id="patch_180">
    <path clip-path="url(#pd55dfb8162)" d="M 346.436171 273.312 
L 348.047721 273.312 
L 348.047721 192.935314 
L 346.436171 192.935314 
z
" style="fill:#1f77b4;"/>
   </g>
   <g id="patch_181">
    <path clip-path="url(#pd55dfb8162)" d="M 348.047721 273.312 
L 349.659271 273.312 
L 349.659271 202.3488 
L 348.047721 202.3488 
z
" style="fill:#1f77b4;"/>
   </g>
   <g id="patch_182">
    <path clip-path="url(#pd55dfb8162)" d="M 349.659271 273.312 
L 351.270821 273.312 
L 351.270821 206.693486 
L 349.659271 206.693486 
z
" style="fill:#1f77b4;"/>
   </g>
   <g id="patch_183">
    <path clip-path="url(#pd55dfb8162)" d="M 351.270821 273.312 
L 352.882371 273.312 
L 352.882371 212.4864 
L 351.270821 212.4864 
z
" style="fill:#1f77b4;"/>
   </g>
   <g id="patch_184">
    <path clip-path="url(#pd55dfb8162)" d="M 352.882371 273.312 
L 354.493921 273.312 
L 354.493921 196.555886 
L 352.882371 196.555886 
z
" style="fill:#1f77b4;"/>
   </g>
   <g id="patch_185">
    <path clip-path="url(#pd55dfb8162)" d="M 354.493921 273.312 
L 356.105471 273.312 
L 356.105471 224.072229 
L 354.493921 224.072229 
z
" style="fill:#1f77b4;"/>
   </g>
   <g id="patch_186">
    <path clip-path="url(#pd55dfb8162)" d="M 356.105471 273.312 
L 357.717021 273.312 
L 357.717021 208.865829 
L 356.105471 208.865829 
z
" style="fill:#1f77b4;"/>
   </g>
   <g id="patch_187">
    <path clip-path="url(#pd55dfb8162)" d="M 357.717021 273.312 
L 359.32857 273.312 
L 359.32857 214.658743 
L 357.717021 214.658743 
z
" style="fill:#1f77b4;"/>
   </g>
   <g id="patch_188">
    <path clip-path="url(#pd55dfb8162)" d="M 359.32857 273.312 
L 360.94012 273.312 
L 360.94012 210.314057 
L 359.32857 210.314057 
z
" style="fill:#1f77b4;"/>
   </g>
   <g id="patch_189">
    <path clip-path="url(#pd55dfb8162)" d="M 360.94012 273.312 
L 362.55167 273.312 
L 362.55167 227.6928 
L 360.94012 227.6928 
z
" style="fill:#1f77b4;"/>
   </g>
   <g id="patch_190">
    <path clip-path="url(#pd55dfb8162)" d="M 362.55167 273.312 
L 364.16322 273.312 
L 364.16322 228.416914 
L 362.55167 228.416914 
z
" style="fill:#1f77b4;"/>
   </g>
   <g id="patch_191">
    <path clip-path="url(#pd55dfb8162)" d="M 364.16322 273.312 
L 365.77477 273.312 
L 365.77477 233.485714 
L 364.16322 233.485714 
z
" style="fill:#1f77b4;"/>
   </g>
   <g id="patch_192">
    <path clip-path="url(#pd55dfb8162)" d="M 365.77477 273.312 
L 367.38632 273.312 
L 367.38632 226.968686 
L 365.77477 226.968686 
z
" style="fill:#1f77b4;"/>
   </g>
   <g id="patch_193">
    <path clip-path="url(#pd55dfb8162)" d="M 367.38632 273.312 
L 368.99787 273.312 
L 368.99787 234.209829 
L 367.38632 234.209829 
z
" style="fill:#1f77b4;"/>
   </g>
   <g id="patch_194">
    <path clip-path="url(#pd55dfb8162)" d="M 368.99787 273.312 
L 370.60942 273.312 
L 370.60942 240.002743 
L 368.99787 240.002743 
z
" style="fill:#1f77b4;"/>
   </g>
   <g id="patch_195">
    <path clip-path="url(#pd55dfb8162)" d="M 370.60942 273.312 
L 372.220969 273.312 
L 372.220969 253.0368 
L 370.60942 253.0368 
z
" style="fill:#1f77b4;"/>
   </g>
   <g id="patch_196">
    <path clip-path="url(#pd55dfb8162)" d="M 372.220969 273.312 
L 373.832519 273.312 
L 373.832519 255.209143 
L 372.220969 255.209143 
z
" style="fill:#1f77b4;"/>
   </g>
   <g id="patch_197">
    <path clip-path="url(#pd55dfb8162)" d="M 373.832519 273.312 
L 375.444069 273.312 
L 375.444069 253.760914 
L 373.832519 253.760914 
z
" style="fill:#1f77b4;"/>
   </g>
   <g id="patch_198">
    <path clip-path="url(#pd55dfb8162)" d="M 375.444069 273.312 
L 377.055619 273.312 
L 377.055619 258.1056 
L 375.444069 258.1056 
z
" style="fill:#1f77b4;"/>
   </g>
   <g id="patch_199">
    <path clip-path="url(#pd55dfb8162)" d="M 377.055619 273.312 
L 378.667169 273.312 
L 378.667169 262.450286 
L 377.055619 262.450286 
z
" style="fill:#1f77b4;"/>
   </g>
   <g id="patch_200">
    <path clip-path="url(#pd55dfb8162)" d="M 378.667169 273.312 
L 380.278719 273.312 
L 380.278719 260.277943 
L 378.667169 260.277943 
z
" style="fill:#1f77b4;"/>
   </g>
   <g id="patch_201">
    <path clip-path="url(#pd55dfb8162)" d="M 380.278719 273.312 
L 381.890269 273.312 
L 381.890269 264.622629 
L 380.278719 264.622629 
z
" style="fill:#1f77b4;"/>
   </g>
   <g id="patch_202">
    <path clip-path="url(#pd55dfb8162)" d="M 381.890269 273.312 
L 383.501819 273.312 
L 383.501819 268.2432 
L 381.890269 268.2432 
z
" style="fill:#1f77b4;"/>
   </g>
   <g id="matplotlib.axis_1">
    <g id="xtick_1">
     <g id="line2d_1">
      <defs>
       <path d="M 0 0 
L 0 3.5 
" id="m5e4369c5b3" style="stroke:#000000;stroke-width:0.8;"/>
      </defs>
      <g>
       <use style="stroke:#000000;stroke-width:0.8;" x="60.013977" xlink:href="#m5e4369c5b3" y="273.312"/>
      </g>
     </g>
     <g id="text_1">
      <!-- 0.0 -->
      <g transform="translate(52.062415 287.910437)scale(0.1 -0.1)">
       <defs>
        <path d="M 2034 4250 
Q 1547 4250 1301 3770 
Q 1056 3291 1056 2328 
Q 1056 1369 1301 889 
Q 1547 409 2034 409 
Q 2525 409 2770 889 
Q 3016 1369 3016 2328 
Q 3016 3291 2770 3770 
Q 2525 4250 2034 4250 
z
M 2034 4750 
Q 2819 4750 3233 4129 
Q 3647 3509 3647 2328 
Q 3647 1150 3233 529 
Q 2819 -91 2034 -91 
Q 1250 -91 836 529 
Q 422 1150 422 2328 
Q 422 3509 836 4129 
Q 1250 4750 2034 4750 
z
" id="DejaVuSans-30" transform="scale(0.015625)"/>
        <path d="M 684 794 
L 1344 794 
L 1344 0 
L 684 0 
L 684 794 
z
" id="DejaVuSans-2e" transform="scale(0.015625)"/>
       </defs>
       <use xlink:href="#DejaVuSans-30"/>
       <use x="63.623047" xlink:href="#DejaVuSans-2e"/>
       <use x="95.410156" xlink:href="#DejaVuSans-30"/>
      </g>
     </g>
    </g>
    <g id="xtick_2">
     <g id="line2d_2">
      <g>
       <use style="stroke:#000000;stroke-width:0.8;" x="101.350278" xlink:href="#m5e4369c5b3" y="273.312"/>
      </g>
     </g>
     <g id="text_2">
      <!-- 0.2 -->
      <g transform="translate(93.398715 287.910437)scale(0.1 -0.1)">
       <defs>
        <path d="M 1228 531 
L 3431 531 
L 3431 0 
L 469 0 
L 469 531 
Q 828 903 1448 1529 
Q 2069 2156 2228 2338 
Q 2531 2678 2651 2914 
Q 2772 3150 2772 3378 
Q 2772 3750 2511 3984 
Q 2250 4219 1831 4219 
Q 1534 4219 1204 4116 
Q 875 4013 500 3803 
L 500 4441 
Q 881 4594 1212 4672 
Q 1544 4750 1819 4750 
Q 2544 4750 2975 4387 
Q 3406 4025 3406 3419 
Q 3406 3131 3298 2873 
Q 3191 2616 2906 2266 
Q 2828 2175 2409 1742 
Q 1991 1309 1228 531 
z
" id="DejaVuSans-32" transform="scale(0.015625)"/>
       </defs>
       <use xlink:href="#DejaVuSans-30"/>
       <use x="63.623047" xlink:href="#DejaVuSans-2e"/>
       <use x="95.410156" xlink:href="#DejaVuSans-32"/>
      </g>
     </g>
    </g>
    <g id="xtick_3">
     <g id="line2d_3">
      <g>
       <use style="stroke:#000000;stroke-width:0.8;" x="142.686578" xlink:href="#m5e4369c5b3" y="273.312"/>
      </g>
     </g>
     <g id="text_3">
      <!-- 0.4 -->
      <g transform="translate(134.735016 287.910437)scale(0.1 -0.1)">
       <defs>
        <path d="M 2419 4116 
L 825 1625 
L 2419 1625 
L 2419 4116 
z
M 2253 4666 
L 3047 4666 
L 3047 1625 
L 3713 1625 
L 3713 1100 
L 3047 1100 
L 3047 0 
L 2419 0 
L 2419 1100 
L 313 1100 
L 313 1709 
L 2253 4666 
z
" id="DejaVuSans-34" transform="scale(0.015625)"/>
       </defs>
       <use xlink:href="#DejaVuSans-30"/>
       <use x="63.623047" xlink:href="#DejaVuSans-2e"/>
       <use x="95.410156" xlink:href="#DejaVuSans-34"/>
      </g>
     </g>
    </g>
    <g id="xtick_4">
     <g id="line2d_4">
      <g>
       <use style="stroke:#000000;stroke-width:0.8;" x="184.022879" xlink:href="#m5e4369c5b3" y="273.312"/>
      </g>
     </g>
     <g id="text_4">
      <!-- 0.6 -->
      <g transform="translate(176.071316 287.910437)scale(0.1 -0.1)">
       <defs>
        <path d="M 2113 2584 
Q 1688 2584 1439 2293 
Q 1191 2003 1191 1497 
Q 1191 994 1439 701 
Q 1688 409 2113 409 
Q 2538 409 2786 701 
Q 3034 994 3034 1497 
Q 3034 2003 2786 2293 
Q 2538 2584 2113 2584 
z
M 3366 4563 
L 3366 3988 
Q 3128 4100 2886 4159 
Q 2644 4219 2406 4219 
Q 1781 4219 1451 3797 
Q 1122 3375 1075 2522 
Q 1259 2794 1537 2939 
Q 1816 3084 2150 3084 
Q 2853 3084 3261 2657 
Q 3669 2231 3669 1497 
Q 3669 778 3244 343 
Q 2819 -91 2113 -91 
Q 1303 -91 875 529 
Q 447 1150 447 2328 
Q 447 3434 972 4092 
Q 1497 4750 2381 4750 
Q 2619 4750 2861 4703 
Q 3103 4656 3366 4563 
z
" id="DejaVuSans-36" transform="scale(0.015625)"/>
       </defs>
       <use xlink:href="#DejaVuSans-30"/>
       <use x="63.623047" xlink:href="#DejaVuSans-2e"/>
       <use x="95.410156" xlink:href="#DejaVuSans-36"/>
      </g>
     </g>
    </g>
    <g id="xtick_5">
     <g id="line2d_5">
      <g>
       <use style="stroke:#000000;stroke-width:0.8;" x="225.35918" xlink:href="#m5e4369c5b3" y="273.312"/>
      </g>
     </g>
     <g id="text_5">
      <!-- 0.8 -->
      <g transform="translate(217.407617 287.910437)scale(0.1 -0.1)">
       <defs>
        <path d="M 2034 2216 
Q 1584 2216 1326 1975 
Q 1069 1734 1069 1313 
Q 1069 891 1326 650 
Q 1584 409 2034 409 
Q 2484 409 2743 651 
Q 3003 894 3003 1313 
Q 3003 1734 2745 1975 
Q 2488 2216 2034 2216 
z
M 1403 2484 
Q 997 2584 770 2862 
Q 544 3141 544 3541 
Q 544 4100 942 4425 
Q 1341 4750 2034 4750 
Q 2731 4750 3128 4425 
Q 3525 4100 3525 3541 
Q 3525 3141 3298 2862 
Q 3072 2584 2669 2484 
Q 3125 2378 3379 2068 
Q 3634 1759 3634 1313 
Q 3634 634 3220 271 
Q 2806 -91 2034 -91 
Q 1263 -91 848 271 
Q 434 634 434 1313 
Q 434 1759 690 2068 
Q 947 2378 1403 2484 
z
M 1172 3481 
Q 1172 3119 1398 2916 
Q 1625 2713 2034 2713 
Q 2441 2713 2670 2916 
Q 2900 3119 2900 3481 
Q 2900 3844 2670 4047 
Q 2441 4250 2034 4250 
Q 1625 4250 1398 4047 
Q 1172 3844 1172 3481 
z
" id="DejaVuSans-38" transform="scale(0.015625)"/>
       </defs>
       <use xlink:href="#DejaVuSans-30"/>
       <use x="63.623047" xlink:href="#DejaVuSans-2e"/>
       <use x="95.410156" xlink:href="#DejaVuSans-38"/>
      </g>
     </g>
    </g>
    <g id="xtick_6">
     <g id="line2d_6">
      <g>
       <use style="stroke:#000000;stroke-width:0.8;" x="266.69548" xlink:href="#m5e4369c5b3" y="273.312"/>
      </g>
     </g>
     <g id="text_6">
      <!-- 1.0 -->
      <g transform="translate(258.743918 287.910437)scale(0.1 -0.1)">
       <defs>
        <path d="M 794 531 
L 1825 531 
L 1825 4091 
L 703 3866 
L 703 4441 
L 1819 4666 
L 2450 4666 
L 2450 531 
L 3481 531 
L 3481 0 
L 794 0 
L 794 531 
z
" id="DejaVuSans-31" transform="scale(0.015625)"/>
       </defs>
       <use xlink:href="#DejaVuSans-31"/>
       <use x="63.623047" xlink:href="#DejaVuSans-2e"/>
       <use x="95.410156" xlink:href="#DejaVuSans-30"/>
      </g>
     </g>
    </g>
    <g id="xtick_7">
     <g id="line2d_7">
      <g>
       <use style="stroke:#000000;stroke-width:0.8;" x="308.031781" xlink:href="#m5e4369c5b3" y="273.312"/>
      </g>
     </g>
     <g id="text_7">
      <!-- 1.2 -->
      <g transform="translate(300.080218 287.910437)scale(0.1 -0.1)">
       <use xlink:href="#DejaVuSans-31"/>
       <use x="63.623047" xlink:href="#DejaVuSans-2e"/>
       <use x="95.410156" xlink:href="#DejaVuSans-32"/>
      </g>
     </g>
    </g>
    <g id="xtick_8">
     <g id="line2d_8">
      <g>
       <use style="stroke:#000000;stroke-width:0.8;" x="349.368081" xlink:href="#m5e4369c5b3" y="273.312"/>
      </g>
     </g>
     <g id="text_8">
      <!-- 1.4 -->
      <g transform="translate(341.416519 287.910437)scale(0.1 -0.1)">
       <use xlink:href="#DejaVuSans-31"/>
       <use x="63.623047" xlink:href="#DejaVuSans-2e"/>
       <use x="95.410156" xlink:href="#DejaVuSans-34"/>
      </g>
     </g>
    </g>
    <g id="xtick_9">
     <g id="line2d_9">
      <g>
       <use style="stroke:#000000;stroke-width:0.8;" x="390.704382" xlink:href="#m5e4369c5b3" y="273.312"/>
      </g>
     </g>
     <g id="text_9">
      <!-- 1.6 -->
      <g transform="translate(382.752819 287.910437)scale(0.1 -0.1)">
       <use xlink:href="#DejaVuSans-31"/>
       <use x="63.623047" xlink:href="#DejaVuSans-2e"/>
       <use x="95.410156" xlink:href="#DejaVuSans-36"/>
      </g>
     </g>
    </g>
    <g id="text_10">
     <!-- Angle with normal (rad) -->
     <g transform="translate(163.023281 301.588562)scale(0.1 -0.1)">
      <defs>
       <path d="M 2188 4044 
L 1331 1722 
L 3047 1722 
L 2188 4044 
z
M 1831 4666 
L 2547 4666 
L 4325 0 
L 3669 0 
L 3244 1197 
L 1141 1197 
L 716 0 
L 50 0 
L 1831 4666 
z
" id="DejaVuSans-41" transform="scale(0.015625)"/>
       <path d="M 3513 2113 
L 3513 0 
L 2938 0 
L 2938 2094 
Q 2938 2591 2744 2837 
Q 2550 3084 2163 3084 
Q 1697 3084 1428 2787 
Q 1159 2491 1159 1978 
L 1159 0 
L 581 0 
L 581 3500 
L 1159 3500 
L 1159 2956 
Q 1366 3272 1645 3428 
Q 1925 3584 2291 3584 
Q 2894 3584 3203 3211 
Q 3513 2838 3513 2113 
z
" id="DejaVuSans-6e" transform="scale(0.015625)"/>
       <path d="M 2906 1791 
Q 2906 2416 2648 2759 
Q 2391 3103 1925 3103 
Q 1463 3103 1205 2759 
Q 947 2416 947 1791 
Q 947 1169 1205 825 
Q 1463 481 1925 481 
Q 2391 481 2648 825 
Q 2906 1169 2906 1791 
z
M 3481 434 
Q 3481 -459 3084 -895 
Q 2688 -1331 1869 -1331 
Q 1566 -1331 1297 -1286 
Q 1028 -1241 775 -1147 
L 775 -588 
Q 1028 -725 1275 -790 
Q 1522 -856 1778 -856 
Q 2344 -856 2625 -561 
Q 2906 -266 2906 331 
L 2906 616 
Q 2728 306 2450 153 
Q 2172 0 1784 0 
Q 1141 0 747 490 
Q 353 981 353 1791 
Q 353 2603 747 3093 
Q 1141 3584 1784 3584 
Q 2172 3584 2450 3431 
Q 2728 3278 2906 2969 
L 2906 3500 
L 3481 3500 
L 3481 434 
z
" id="DejaVuSans-67" transform="scale(0.015625)"/>
       <path d="M 603 4863 
L 1178 4863 
L 1178 0 
L 603 0 
L 603 4863 
z
" id="DejaVuSans-6c" transform="scale(0.015625)"/>
       <path d="M 3597 1894 
L 3597 1613 
L 953 1613 
Q 991 1019 1311 708 
Q 1631 397 2203 397 
Q 2534 397 2845 478 
Q 3156 559 3463 722 
L 3463 178 
Q 3153 47 2828 -22 
Q 2503 -91 2169 -91 
Q 1331 -91 842 396 
Q 353 884 353 1716 
Q 353 2575 817 3079 
Q 1281 3584 2069 3584 
Q 2775 3584 3186 3129 
Q 3597 2675 3597 1894 
z
M 3022 2063 
Q 3016 2534 2758 2815 
Q 2500 3097 2075 3097 
Q 1594 3097 1305 2825 
Q 1016 2553 972 2059 
L 3022 2063 
z
" id="DejaVuSans-65" transform="scale(0.015625)"/>
       <path id="DejaVuSans-20" transform="scale(0.015625)"/>
       <path d="M 269 3500 
L 844 3500 
L 1563 769 
L 2278 3500 
L 2956 3500 
L 3675 769 
L 4391 3500 
L 4966 3500 
L 4050 0 
L 3372 0 
L 2619 2869 
L 1863 0 
L 1184 0 
L 269 3500 
z
" id="DejaVuSans-77" transform="scale(0.015625)"/>
       <path d="M 603 3500 
L 1178 3500 
L 1178 0 
L 603 0 
L 603 3500 
z
M 603 4863 
L 1178 4863 
L 1178 4134 
L 603 4134 
L 603 4863 
z
" id="DejaVuSans-69" transform="scale(0.015625)"/>
       <path d="M 1172 4494 
L 1172 3500 
L 2356 3500 
L 2356 3053 
L 1172 3053 
L 1172 1153 
Q 1172 725 1289 603 
Q 1406 481 1766 481 
L 2356 481 
L 2356 0 
L 1766 0 
Q 1100 0 847 248 
Q 594 497 594 1153 
L 594 3053 
L 172 3053 
L 172 3500 
L 594 3500 
L 594 4494 
L 1172 4494 
z
" id="DejaVuSans-74" transform="scale(0.015625)"/>
       <path d="M 3513 2113 
L 3513 0 
L 2938 0 
L 2938 2094 
Q 2938 2591 2744 2837 
Q 2550 3084 2163 3084 
Q 1697 3084 1428 2787 
Q 1159 2491 1159 1978 
L 1159 0 
L 581 0 
L 581 4863 
L 1159 4863 
L 1159 2956 
Q 1366 3272 1645 3428 
Q 1925 3584 2291 3584 
Q 2894 3584 3203 3211 
Q 3513 2838 3513 2113 
z
" id="DejaVuSans-68" transform="scale(0.015625)"/>
       <path d="M 1959 3097 
Q 1497 3097 1228 2736 
Q 959 2375 959 1747 
Q 959 1119 1226 758 
Q 1494 397 1959 397 
Q 2419 397 2687 759 
Q 2956 1122 2956 1747 
Q 2956 2369 2687 2733 
Q 2419 3097 1959 3097 
z
M 1959 3584 
Q 2709 3584 3137 3096 
Q 3566 2609 3566 1747 
Q 3566 888 3137 398 
Q 2709 -91 1959 -91 
Q 1206 -91 779 398 
Q 353 888 353 1747 
Q 353 2609 779 3096 
Q 1206 3584 1959 3584 
z
" id="DejaVuSans-6f" transform="scale(0.015625)"/>
       <path d="M 2631 2963 
Q 2534 3019 2420 3045 
Q 2306 3072 2169 3072 
Q 1681 3072 1420 2755 
Q 1159 2438 1159 1844 
L 1159 0 
L 581 0 
L 581 3500 
L 1159 3500 
L 1159 2956 
Q 1341 3275 1631 3429 
Q 1922 3584 2338 3584 
Q 2397 3584 2469 3576 
Q 2541 3569 2628 3553 
L 2631 2963 
z
" id="DejaVuSans-72" transform="scale(0.015625)"/>
       <path d="M 3328 2828 
Q 3544 3216 3844 3400 
Q 4144 3584 4550 3584 
Q 5097 3584 5394 3201 
Q 5691 2819 5691 2113 
L 5691 0 
L 5113 0 
L 5113 2094 
Q 5113 2597 4934 2840 
Q 4756 3084 4391 3084 
Q 3944 3084 3684 2787 
Q 3425 2491 3425 1978 
L 3425 0 
L 2847 0 
L 2847 2094 
Q 2847 2600 2669 2842 
Q 2491 3084 2119 3084 
Q 1678 3084 1418 2786 
Q 1159 2488 1159 1978 
L 1159 0 
L 581 0 
L 581 3500 
L 1159 3500 
L 1159 2956 
Q 1356 3278 1631 3431 
Q 1906 3584 2284 3584 
Q 2666 3584 2933 3390 
Q 3200 3197 3328 2828 
z
" id="DejaVuSans-6d" transform="scale(0.015625)"/>
       <path d="M 2194 1759 
Q 1497 1759 1228 1600 
Q 959 1441 959 1056 
Q 959 750 1161 570 
Q 1363 391 1709 391 
Q 2188 391 2477 730 
Q 2766 1069 2766 1631 
L 2766 1759 
L 2194 1759 
z
M 3341 1997 
L 3341 0 
L 2766 0 
L 2766 531 
Q 2569 213 2275 61 
Q 1981 -91 1556 -91 
Q 1019 -91 701 211 
Q 384 513 384 1019 
Q 384 1609 779 1909 
Q 1175 2209 1959 2209 
L 2766 2209 
L 2766 2266 
Q 2766 2663 2505 2880 
Q 2244 3097 1772 3097 
Q 1472 3097 1187 3025 
Q 903 2953 641 2809 
L 641 3341 
Q 956 3463 1253 3523 
Q 1550 3584 1831 3584 
Q 2591 3584 2966 3190 
Q 3341 2797 3341 1997 
z
" id="DejaVuSans-61" transform="scale(0.015625)"/>
       <path d="M 1984 4856 
Q 1566 4138 1362 3434 
Q 1159 2731 1159 2009 
Q 1159 1288 1364 580 
Q 1569 -128 1984 -844 
L 1484 -844 
Q 1016 -109 783 600 
Q 550 1309 550 2009 
Q 550 2706 781 3412 
Q 1013 4119 1484 4856 
L 1984 4856 
z
" id="DejaVuSans-28" transform="scale(0.015625)"/>
       <path d="M 2906 2969 
L 2906 4863 
L 3481 4863 
L 3481 0 
L 2906 0 
L 2906 525 
Q 2725 213 2448 61 
Q 2172 -91 1784 -91 
Q 1150 -91 751 415 
Q 353 922 353 1747 
Q 353 2572 751 3078 
Q 1150 3584 1784 3584 
Q 2172 3584 2448 3432 
Q 2725 3281 2906 2969 
z
M 947 1747 
Q 947 1113 1208 752 
Q 1469 391 1925 391 
Q 2381 391 2643 752 
Q 2906 1113 2906 1747 
Q 2906 2381 2643 2742 
Q 2381 3103 1925 3103 
Q 1469 3103 1208 2742 
Q 947 2381 947 1747 
z
" id="DejaVuSans-64" transform="scale(0.015625)"/>
       <path d="M 513 4856 
L 1013 4856 
Q 1481 4119 1714 3412 
Q 1947 2706 1947 2009 
Q 1947 1309 1714 600 
Q 1481 -109 1013 -844 
L 513 -844 
Q 928 -128 1133 580 
Q 1338 1288 1338 2009 
Q 1338 2731 1133 3434 
Q 928 4138 513 4856 
z
" id="DejaVuSans-29" transform="scale(0.015625)"/>
      </defs>
      <use xlink:href="#DejaVuSans-41"/>
      <use x="68.408203" xlink:href="#DejaVuSans-6e"/>
      <use x="131.787109" xlink:href="#DejaVuSans-67"/>
      <use x="195.263672" xlink:href="#DejaVuSans-6c"/>
      <use x="223.046875" xlink:href="#DejaVuSans-65"/>
      <use x="284.570312" xlink:href="#DejaVuSans-20"/>
      <use x="316.357422" xlink:href="#DejaVuSans-77"/>
      <use x="398.144531" xlink:href="#DejaVuSans-69"/>
      <use x="425.927734" xlink:href="#DejaVuSans-74"/>
      <use x="465.136719" xlink:href="#DejaVuSans-68"/>
      <use x="528.515625" xlink:href="#DejaVuSans-20"/>
      <use x="560.302734" xlink:href="#DejaVuSans-6e"/>
      <use x="623.681641" xlink:href="#DejaVuSans-6f"/>
      <use x="684.863281" xlink:href="#DejaVuSans-72"/>
      <use x="724.226562" xlink:href="#DejaVuSans-6d"/>
      <use x="821.638672" xlink:href="#DejaVuSans-61"/>
      <use x="882.917969" xlink:href="#DejaVuSans-6c"/>
      <use x="910.701172" xlink:href="#DejaVuSans-20"/>
      <use x="942.488281" xlink:href="#DejaVuSans-28"/>
      <use x="981.501953" xlink:href="#DejaVuSans-72"/>
      <use x="1022.615234" xlink:href="#DejaVuSans-61"/>
      <use x="1083.894531" xlink:href="#DejaVuSans-64"/>
      <use x="1147.371094" xlink:href="#DejaVuSans-29"/>
     </g>
    </g>
   </g>
   <g id="matplotlib.axis_2">
    <g id="ytick_1">
     <g id="line2d_10">
      <defs>
       <path d="M 0 0 
L -3.5 0 
" id="me0c759eae7" style="stroke:#000000;stroke-width:0.8;"/>
      </defs>
      <g>
       <use style="stroke:#000000;stroke-width:0.8;" x="43.78125" xlink:href="#me0c759eae7" y="273.312"/>
      </g>
     </g>
     <g id="text_11">
      <!-- 0.0 -->
      <g transform="translate(20.878125 277.111219)scale(0.1 -0.1)">
       <use xlink:href="#DejaVuSans-30"/>
       <use x="63.623047" xlink:href="#DejaVuSans-2e"/>
       <use x="95.410156" xlink:href="#DejaVuSans-30"/>
      </g>
     </g>
    </g>
    <g id="ytick_2">
     <g id="line2d_11">
      <g>
       <use style="stroke:#000000;stroke-width:0.8;" x="43.78125" xlink:href="#me0c759eae7" y="228.143128"/>
      </g>
     </g>
     <g id="text_12">
      <!-- 0.2 -->
      <g transform="translate(20.878125 231.942347)scale(0.1 -0.1)">
       <use xlink:href="#DejaVuSans-30"/>
       <use x="63.623047" xlink:href="#DejaVuSans-2e"/>
       <use x="95.410156" xlink:href="#DejaVuSans-32"/>
      </g>
     </g>
    </g>
    <g id="ytick_3">
     <g id="line2d_12">
      <g>
       <use style="stroke:#000000;stroke-width:0.8;" x="43.78125" xlink:href="#me0c759eae7" y="182.974256"/>
      </g>
     </g>
     <g id="text_13">
      <!-- 0.4 -->
      <g transform="translate(20.878125 186.773475)scale(0.1 -0.1)">
       <use xlink:href="#DejaVuSans-30"/>
       <use x="63.623047" xlink:href="#DejaVuSans-2e"/>
       <use x="95.410156" xlink:href="#DejaVuSans-34"/>
      </g>
     </g>
    </g>
    <g id="ytick_4">
     <g id="line2d_13">
      <g>
       <use style="stroke:#000000;stroke-width:0.8;" x="43.78125" xlink:href="#me0c759eae7" y="137.805385"/>
      </g>
     </g>
     <g id="text_14">
      <!-- 0.6 -->
      <g transform="translate(20.878125 141.604603)scale(0.1 -0.1)">
       <use xlink:href="#DejaVuSans-30"/>
       <use x="63.623047" xlink:href="#DejaVuSans-2e"/>
       <use x="95.410156" xlink:href="#DejaVuSans-36"/>
      </g>
     </g>
    </g>
    <g id="ytick_5">
     <g id="line2d_14">
      <g>
       <use style="stroke:#000000;stroke-width:0.8;" x="43.78125" xlink:href="#me0c759eae7" y="92.636513"/>
      </g>
     </g>
     <g id="text_15">
      <!-- 0.8 -->
      <g transform="translate(20.878125 96.435732)scale(0.1 -0.1)">
       <use xlink:href="#DejaVuSans-30"/>
       <use x="63.623047" xlink:href="#DejaVuSans-2e"/>
       <use x="95.410156" xlink:href="#DejaVuSans-38"/>
      </g>
     </g>
    </g>
    <g id="ytick_6">
     <g id="line2d_15">
      <g>
       <use style="stroke:#000000;stroke-width:0.8;" x="43.78125" xlink:href="#me0c759eae7" y="47.467641"/>
      </g>
     </g>
     <g id="text_16">
      <!-- 1.0 -->
      <g transform="translate(20.878125 51.26686)scale(0.1 -0.1)">
       <use xlink:href="#DejaVuSans-31"/>
       <use x="63.623047" xlink:href="#DejaVuSans-2e"/>
       <use x="95.410156" xlink:href="#DejaVuSans-30"/>
      </g>
     </g>
    </g>
    <g id="text_17">
     <!-- Probability density -->
     <g transform="translate(14.798438 186.606781)rotate(-90)scale(0.1 -0.1)">
      <defs>
       <path d="M 1259 4147 
L 1259 2394 
L 2053 2394 
Q 2494 2394 2734 2622 
Q 2975 2850 2975 3272 
Q 2975 3691 2734 3919 
Q 2494 4147 2053 4147 
L 1259 4147 
z
M 628 4666 
L 2053 4666 
Q 2838 4666 3239 4311 
Q 3641 3956 3641 3272 
Q 3641 2581 3239 2228 
Q 2838 1875 2053 1875 
L 1259 1875 
L 1259 0 
L 628 0 
L 628 4666 
z
" id="DejaVuSans-50" transform="scale(0.015625)"/>
       <path d="M 3116 1747 
Q 3116 2381 2855 2742 
Q 2594 3103 2138 3103 
Q 1681 3103 1420 2742 
Q 1159 2381 1159 1747 
Q 1159 1113 1420 752 
Q 1681 391 2138 391 
Q 2594 391 2855 752 
Q 3116 1113 3116 1747 
z
M 1159 2969 
Q 1341 3281 1617 3432 
Q 1894 3584 2278 3584 
Q 2916 3584 3314 3078 
Q 3713 2572 3713 1747 
Q 3713 922 3314 415 
Q 2916 -91 2278 -91 
Q 1894 -91 1617 61 
Q 1341 213 1159 525 
L 1159 0 
L 581 0 
L 581 4863 
L 1159 4863 
L 1159 2969 
z
" id="DejaVuSans-62" transform="scale(0.015625)"/>
       <path d="M 2059 -325 
Q 1816 -950 1584 -1140 
Q 1353 -1331 966 -1331 
L 506 -1331 
L 506 -850 
L 844 -850 
Q 1081 -850 1212 -737 
Q 1344 -625 1503 -206 
L 1606 56 
L 191 3500 
L 800 3500 
L 1894 763 
L 2988 3500 
L 3597 3500 
L 2059 -325 
z
" id="DejaVuSans-79" transform="scale(0.015625)"/>
       <path d="M 2834 3397 
L 2834 2853 
Q 2591 2978 2328 3040 
Q 2066 3103 1784 3103 
Q 1356 3103 1142 2972 
Q 928 2841 928 2578 
Q 928 2378 1081 2264 
Q 1234 2150 1697 2047 
L 1894 2003 
Q 2506 1872 2764 1633 
Q 3022 1394 3022 966 
Q 3022 478 2636 193 
Q 2250 -91 1575 -91 
Q 1294 -91 989 -36 
Q 684 19 347 128 
L 347 722 
Q 666 556 975 473 
Q 1284 391 1588 391 
Q 1994 391 2212 530 
Q 2431 669 2431 922 
Q 2431 1156 2273 1281 
Q 2116 1406 1581 1522 
L 1381 1569 
Q 847 1681 609 1914 
Q 372 2147 372 2553 
Q 372 3047 722 3315 
Q 1072 3584 1716 3584 
Q 2034 3584 2315 3537 
Q 2597 3491 2834 3397 
z
" id="DejaVuSans-73" transform="scale(0.015625)"/>
      </defs>
      <use xlink:href="#DejaVuSans-50"/>
      <use x="58.552734" xlink:href="#DejaVuSans-72"/>
      <use x="97.416016" xlink:href="#DejaVuSans-6f"/>
      <use x="158.597656" xlink:href="#DejaVuSans-62"/>
      <use x="222.074219" xlink:href="#DejaVuSans-61"/>
      <use x="283.353516" xlink:href="#DejaVuSans-62"/>
      <use x="346.830078" xlink:href="#DejaVuSans-69"/>
      <use x="374.613281" xlink:href="#DejaVuSans-6c"/>
      <use x="402.396484" xlink:href="#DejaVuSans-69"/>
      <use x="430.179688" xlink:href="#DejaVuSans-74"/>
      <use x="469.388672" xlink:href="#DejaVuSans-79"/>
      <use x="528.568359" xlink:href="#DejaVuSans-20"/>
      <use x="560.355469" xlink:href="#DejaVuSans-64"/>
      <use x="623.832031" xlink:href="#DejaVuSans-65"/>
      <use x="685.355469" xlink:href="#DejaVuSans-6e"/>
      <use x="748.734375" xlink:href="#DejaVuSans-73"/>
      <use x="800.833984" xlink:href="#DejaVuSans-69"/>
      <use x="828.617188" xlink:href="#DejaVuSans-74"/>
      <use x="867.826172" xlink:href="#DejaVuSans-79"/>
     </g>
    </g>
   </g>
   <g id="line2d_16">
    <path clip-path="url(#pd55dfb8162)" d="M 60.013977 273.312 
L 79.837728 230.253724 
L 90.237073 208.198996 
L 99.01152 190.093911 
L 106.811029 174.499896 
L 113.960578 160.697495 
L 120.460169 148.615731 
L 126.63478 137.594077 
L 132.484411 127.598702 
L 138.009063 118.586687 
L 143.208736 110.508205 
L 148.408408 102.841804 
L 153.283101 96.046076 
L 158.157794 89.644711 
L 162.707507 84.038483 
L 167.257221 78.799068 
L 171.481954 74.271231 
L 175.706688 70.076005 
L 179.606442 66.504779 
L 183.506197 63.228025 
L 187.405951 60.25041 
L 190.980726 57.787343 
L 194.555501 55.582151 
L 198.130275 53.637471 
L 201.70505 51.955631 
L 205.279825 50.538642 
L 208.52962 49.481733 
L 211.779415 48.64616 
L 215.029211 48.03275 
L 218.279006 47.642108 
L 221.528801 47.474621 
L 224.778596 47.530454 
L 228.028392 47.809553 
L 231.278187 48.311642 
L 234.527982 49.036223 
L 237.777777 49.982581 
L 241.027573 51.149779 
L 244.277368 52.536664 
L 247.852143 54.314332 
L 251.426917 56.354029 
L 255.001692 58.653315 
L 258.576467 61.20944 
L 262.476221 64.28726 
L 266.375976 67.662711 
L 270.27573 71.330986 
L 274.500464 75.629326 
L 278.725198 80.258008 
L 282.949931 85.209297 
L 287.499645 90.892738 
L 292.049358 96.929709 
L 296.924051 103.776895 
L 301.798744 111.001245 
L 306.998416 119.104813 
L 312.523068 128.142044 
L 318.3727 138.162425 
L 324.547311 149.208497 
L 331.046901 161.313678 
L 337.871471 174.499896 
L 345.346 189.434075 
L 353.795468 206.840166 
L 363.544854 227.468429 
L 375.894076 254.15906 
L 384.668523 273.312 
L 384.668523 273.312 
" style="fill:none;stroke:#ff7f0e;stroke-linecap:square;stroke-width:1.5;"/>
   </g>
   <g id="patch_203">
    <path d="M 43.78125 273.312 
L 43.78125 7.2 
" style="fill:none;stroke:#000000;stroke-linecap:square;stroke-linejoin:miter;stroke-width:0.8;"/>
   </g>
   <g id="patch_204">
    <path d="M 400.90125 273.312 
L 400.90125 7.2 
" style="fill:none;stroke:#000000;stroke-linecap:square;stroke-linejoin:miter;stroke-width:0.8;"/>
   </g>
   <g id="patch_205">
    <path d="M 43.78125 273.312 
L 400.90125 273.312 
" style="fill:none;stroke:#000000;stroke-linecap:square;stroke-linejoin:miter;stroke-width:0.8;"/>
   </g>
   <g id="patch_206">
    <path d="M 43.78125 7.2 
L 400.90125 7.2 
" style="fill:none;stroke:#000000;stroke-linecap:square;stroke-linejoin:miter;stroke-width:0.8;"/>
   </g>
  </g>
 </g>
 <defs>
  <clipPath id="pd55dfb8162">
   <rect height="266.112" width="357.12" x="43.78125" y="7.2"/>
  </clipPath>
 </defs>
</svg>
