<?xml version="1.0" encoding="utf-8" standalone="no"?>
<!DOCTYPE svg PUBLIC "-//W3C//DTD SVG 1.1//EN"
  "http://www.w3.org/Graphics/SVG/1.1/DTD/svg11.dtd">
<svg height="310.86825pt" version="1.1" viewBox="0 0 408.10125 310.86825" width="408.10125pt" xmlns="http://www.w3.org/2000/svg" xmlns:xlink="http://www.w3.org/1999/xlink">
 <metadata>
  <rdf:RDF xmlns:cc="http://creativecommons.org/ns#" xmlns:dc="http://purl.org/dc/elements/1.1/" xmlns:rdf="http://www.w3.org/1999/02/22-rdf-syntax-ns#">
   <cc:Work>
    <dc:type rdf:resource="http://purl.org/dc/dcmitype/StillImage"/>
    <dc:date>2021-07-07T06:52:22.524585</dc:date>
    <dc:format>image/svg+xml</dc:format>
    <dc:creator>
     <cc:Agent>
      <dc:title>Matplotlib v3.4.2, https://matplotlib.org/</dc:title>
     </cc:Agent>
    </dc:creator>
   </cc:Work>
  </rdf:RDF>
 </metadata>
 <defs>
  <style type="text/css">*{stroke-linecap:butt;stroke-linejoin:round;}</style>
 </defs>
 <g id="figure_1">
  <g id="patch_1">
   <path d="M 0 310.86825 
L 408.10125 310.86825 
L 408.10125 0 
L 0 0 
z
" style="fill:#ffffff;"/>
  </g>
  <g id="axes_1">
   <g id="patch_2">
    <path d="M 43.78125 273.312 
L 400.90125 273.312 
L 400.90125 7.2 
L 43.78125 7.2 
z
" style="fill:#ffffff;"/>
   </g>
   <g id="patch_3">
    <path clip-path="url(#pc4694d488c)" d="M 60.767905 273.312 
L 62.381389 273.312 
L 62.381389 265.277879 
L 60.767905 265.277879 
z
" style="fill:#1f77b4;"/>
   </g>
   <g id="patch_4">
    <path clip-path="url(#pc4694d488c)" d="M 62.381389 273.312 
L 63.994873 273.312 
L 63.994873 268.199378 
L 62.381389 268.199378 
z
" style="fill:#1f77b4;"/>
   </g>
   <g id="patch_5">
    <path clip-path="url(#pc4694d488c)" d="M 63.994873 273.312 
L 65.608357 273.312 
L 65.608357 262.35638 
L 63.994873 262.35638 
z
" style="fill:#1f77b4;"/>
   </g>
   <g id="patch_6">
    <path clip-path="url(#pc4694d488c)" d="M 65.608357 273.312 
L 67.221841 273.312 
L 67.221841 260.165256 
L 65.608357 260.165256 
z
" style="fill:#1f77b4;"/>
   </g>
   <g id="patch_7">
    <path clip-path="url(#pc4694d488c)" d="M 67.221841 273.312 
L 68.835325 273.312 
L 68.835325 253.591885 
L 67.221841 253.591885 
z
" style="fill:#1f77b4;"/>
   </g>
   <g id="patch_8">
    <path clip-path="url(#pc4694d488c)" d="M 68.835325 273.312 
L 70.448808 273.312 
L 70.448808 252.86151 
L 68.835325 252.86151 
z
" style="fill:#1f77b4;"/>
   </g>
   <g id="patch_9">
    <path clip-path="url(#pc4694d488c)" d="M 70.448808 273.312 
L 72.062292 273.312 
L 72.062292 247.018513 
L 70.448808 247.018513 
z
" style="fill:#1f77b4;"/>
   </g>
   <g id="patch_10">
    <path clip-path="url(#pc4694d488c)" d="M 72.062292 273.312 
L 73.675776 273.312 
L 73.675776 238.254017 
L 72.062292 238.254017 
z
" style="fill:#1f77b4;"/>
   </g>
   <g id="patch_11">
    <path clip-path="url(#pc4694d488c)" d="M 73.675776 273.312 
L 75.28926 273.312 
L 75.28926 241.90589 
L 73.675776 241.90589 
z
" style="fill:#1f77b4;"/>
   </g>
   <g id="patch_12">
    <path clip-path="url(#pc4694d488c)" d="M 75.28926 273.312 
L 76.902744 273.312 
L 76.902744 239.714767 
L 75.28926 239.714767 
z
" style="fill:#1f77b4;"/>
   </g>
   <g id="patch_13">
    <path clip-path="url(#pc4694d488c)" d="M 76.902744 273.312 
L 78.516228 273.312 
L 78.516228 235.332519 
L 76.902744 235.332519 
z
" style="fill:#1f77b4;"/>
   </g>
   <g id="patch_14">
    <path clip-path="url(#pc4694d488c)" d="M 78.516228 273.312 
L 80.129712 273.312 
L 80.129712 220.725026 
L 78.516228 220.725026 
z
" style="fill:#1f77b4;"/>
   </g>
   <g id="patch_15">
    <path clip-path="url(#pc4694d488c)" d="M 80.129712 273.312 
L 81.743196 273.312 
L 81.743196 242.636265 
L 80.129712 242.636265 
z
" style="fill:#1f77b4;"/>
   </g>
   <g id="patch_16">
    <path clip-path="url(#pc4694d488c)" d="M 81.743196 273.312 
L 83.35668 273.312 
L 83.35668 222.185775 
L 81.743196 222.185775 
z
" style="fill:#1f77b4;"/>
   </g>
   <g id="patch_17">
    <path clip-path="url(#pc4694d488c)" d="M 83.35668 273.312 
L 84.970164 273.312 
L 84.970164 212.690905 
L 83.35668 212.690905 
z
" style="fill:#1f77b4;"/>
   </g>
   <g id="patch_18">
    <path clip-path="url(#pc4694d488c)" d="M 84.970164 273.312 
L 86.583648 273.312 
L 86.583648 208.308657 
L 84.970164 208.308657 
z
" style="fill:#1f77b4;"/>
   </g>
   <g id="patch_19">
    <path clip-path="url(#pc4694d488c)" d="M 86.583648 273.312 
L 88.197132 273.312 
L 88.197132 190.779666 
L 86.583648 190.779666 
z
" style="fill:#1f77b4;"/>
   </g>
   <g id="patch_20">
    <path clip-path="url(#pc4694d488c)" d="M 88.197132 273.312 
L 89.810616 273.312 
L 89.810616 206.847908 
L 88.197132 206.847908 
z
" style="fill:#1f77b4;"/>
   </g>
   <g id="patch_21">
    <path clip-path="url(#pc4694d488c)" d="M 89.810616 273.312 
L 91.4241 273.312 
L 91.4241 203.196035 
L 89.810616 203.196035 
z
" style="fill:#1f77b4;"/>
   </g>
   <g id="patch_22">
    <path clip-path="url(#pc4694d488c)" d="M 91.4241 273.312 
L 93.037584 273.312 
L 93.037584 201.735285 
L 91.4241 201.735285 
z
" style="fill:#1f77b4;"/>
   </g>
   <g id="patch_23">
    <path clip-path="url(#pc4694d488c)" d="M 93.037584 273.312 
L 94.651067 273.312 
L 94.651067 208.308657 
L 93.037584 208.308657 
z
" style="fill:#1f77b4;"/>
   </g>
   <g id="patch_24">
    <path clip-path="url(#pc4694d488c)" d="M 94.651067 273.312 
L 96.264551 273.312 
L 96.264551 198.813787 
L 94.651067 198.813787 
z
" style="fill:#1f77b4;"/>
   </g>
   <g id="patch_25">
    <path clip-path="url(#pc4694d488c)" d="M 96.264551 273.312 
L 97.878035 273.312 
L 97.878035 181.284795 
L 96.264551 181.284795 
z
" style="fill:#1f77b4;"/>
   </g>
   <g id="patch_26">
    <path clip-path="url(#pc4694d488c)" d="M 97.878035 273.312 
L 99.491519 273.312 
L 99.491519 201.735285 
L 97.878035 201.735285 
z
" style="fill:#1f77b4;"/>
   </g>
   <g id="patch_27">
    <path clip-path="url(#pc4694d488c)" d="M 99.491519 273.312 
L 101.105003 273.312 
L 101.105003 177.632922 
L 99.491519 177.632922 
z
" style="fill:#1f77b4;"/>
   </g>
   <g id="patch_28">
    <path clip-path="url(#pc4694d488c)" d="M 101.105003 273.312 
L 102.718487 273.312 
L 102.718487 175.441798 
L 101.105003 175.441798 
z
" style="fill:#1f77b4;"/>
   </g>
   <g id="patch_29">
    <path clip-path="url(#pc4694d488c)" d="M 102.718487 273.312 
L 104.331971 273.312 
L 104.331971 187.127793 
L 102.718487 187.127793 
z
" style="fill:#1f77b4;"/>
   </g>
   <g id="patch_30">
    <path clip-path="url(#pc4694d488c)" d="M 104.331971 273.312 
L 105.945455 273.312 
L 105.945455 161.56468 
L 104.331971 161.56468 
z
" style="fill:#1f77b4;"/>
   </g>
   <g id="patch_31">
    <path clip-path="url(#pc4694d488c)" d="M 105.945455 273.312 
L 107.558939 273.312 
L 107.558939 162.295055 
L 105.945455 162.295055 
z
" style="fill:#1f77b4;"/>
   </g>
   <g id="patch_32">
    <path clip-path="url(#pc4694d488c)" d="M 107.558939 273.312 
L 109.172423 273.312 
L 109.172423 156.452058 
L 107.558939 156.452058 
z
" style="fill:#1f77b4;"/>
   </g>
   <g id="patch_33">
    <path clip-path="url(#pc4694d488c)" d="M 109.172423 273.312 
L 110.785907 273.312 
L 110.785907 144.766063 
L 109.172423 144.766063 
z
" style="fill:#1f77b4;"/>
   </g>
   <g id="patch_34">
    <path clip-path="url(#pc4694d488c)" d="M 110.785907 273.312 
L 112.399391 273.312 
L 112.399391 156.452058 
L 110.785907 156.452058 
z
" style="fill:#1f77b4;"/>
   </g>
   <g id="patch_35">
    <path clip-path="url(#pc4694d488c)" d="M 112.399391 273.312 
L 114.012875 273.312 
L 114.012875 166.677303 
L 112.399391 166.677303 
z
" style="fill:#1f77b4;"/>
   </g>
   <g id="patch_36">
    <path clip-path="url(#pc4694d488c)" d="M 114.012875 273.312 
L 115.626359 273.312 
L 115.626359 152.800184 
L 114.012875 152.800184 
z
" style="fill:#1f77b4;"/>
   </g>
   <g id="patch_37">
    <path clip-path="url(#pc4694d488c)" d="M 115.626359 273.312 
L 117.239843 273.312 
L 117.239843 162.295055 
L 115.626359 162.295055 
z
" style="fill:#1f77b4;"/>
   </g>
   <g id="patch_38">
    <path clip-path="url(#pc4694d488c)" d="M 117.239843 273.312 
L 118.853326 273.312 
L 118.853326 146.226813 
L 117.239843 146.226813 
z
" style="fill:#1f77b4;"/>
   </g>
   <g id="patch_39">
    <path clip-path="url(#pc4694d488c)" d="M 118.853326 273.312 
L 120.46681 273.312 
L 120.46681 151.339435 
L 118.853326 151.339435 
z
" style="fill:#1f77b4;"/>
   </g>
   <g id="patch_40">
    <path clip-path="url(#pc4694d488c)" d="M 120.46681 273.312 
L 122.080294 273.312 
L 122.080294 144.035689 
L 120.46681 144.035689 
z
" style="fill:#1f77b4;"/>
   </g>
   <g id="patch_41">
    <path clip-path="url(#pc4694d488c)" d="M 122.080294 273.312 
L 123.693778 273.312 
L 123.693778 144.035689 
L 122.080294 144.035689 
z
" style="fill:#1f77b4;"/>
   </g>
   <g id="patch_42">
    <path clip-path="url(#pc4694d488c)" d="M 123.693778 273.312 
L 125.307262 273.312 
L 125.307262 140.383816 
L 123.693778 140.383816 
z
" style="fill:#1f77b4;"/>
   </g>
   <g id="patch_43">
    <path clip-path="url(#pc4694d488c)" d="M 125.307262 273.312 
L 126.920746 273.312 
L 126.920746 140.383816 
L 125.307262 140.383816 
z
" style="fill:#1f77b4;"/>
   </g>
   <g id="patch_44">
    <path clip-path="url(#pc4694d488c)" d="M 126.920746 273.312 
L 128.53423 273.312 
L 128.53423 122.854824 
L 126.920746 122.854824 
z
" style="fill:#1f77b4;"/>
   </g>
   <g id="patch_45">
    <path clip-path="url(#pc4694d488c)" d="M 128.53423 273.312 
L 130.147714 273.312 
L 130.147714 152.800184 
L 128.53423 152.800184 
z
" style="fill:#1f77b4;"/>
   </g>
   <g id="patch_46">
    <path clip-path="url(#pc4694d488c)" d="M 130.147714 273.312 
L 131.761198 273.312 
L 131.761198 125.045948 
L 130.147714 125.045948 
z
" style="fill:#1f77b4;"/>
   </g>
   <g id="patch_47">
    <path clip-path="url(#pc4694d488c)" d="M 131.761198 273.312 
L 133.374682 273.312 
L 133.374682 129.428196 
L 131.761198 129.428196 
z
" style="fill:#1f77b4;"/>
   </g>
   <g id="patch_48">
    <path clip-path="url(#pc4694d488c)" d="M 133.374682 273.312 
L 134.988166 273.312 
L 134.988166 138.923066 
L 133.374682 138.923066 
z
" style="fill:#1f77b4;"/>
   </g>
   <g id="patch_49">
    <path clip-path="url(#pc4694d488c)" d="M 134.988166 273.312 
L 136.60165 273.312 
L 136.60165 131.61932 
L 134.988166 131.61932 
z
" style="fill:#1f77b4;"/>
   </g>
   <g id="patch_50">
    <path clip-path="url(#pc4694d488c)" d="M 136.60165 273.312 
L 138.215134 273.312 
L 138.215134 129.428196 
L 136.60165 129.428196 
z
" style="fill:#1f77b4;"/>
   </g>
   <g id="patch_51">
    <path clip-path="url(#pc4694d488c)" d="M 138.215134 273.312 
L 139.828618 273.312 
L 139.828618 114.090329 
L 138.215134 114.090329 
z
" style="fill:#1f77b4;"/>
   </g>
   <g id="patch_52">
    <path clip-path="url(#pc4694d488c)" d="M 139.828618 273.312 
L 141.442102 273.312 
L 141.442102 121.394075 
L 139.828618 121.394075 
z
" style="fill:#1f77b4;"/>
   </g>
   <g id="patch_53">
    <path clip-path="url(#pc4694d488c)" d="M 141.442102 273.312 
L 143.055585 273.312 
L 143.055585 103.134709 
L 141.442102 103.134709 
z
" style="fill:#1f77b4;"/>
   </g>
   <g id="patch_54">
    <path clip-path="url(#pc4694d488c)" d="M 143.055585 273.312 
L 144.669069 273.312 
L 144.669069 105.325833 
L 143.055585 105.325833 
z
" style="fill:#1f77b4;"/>
   </g>
   <g id="patch_55">
    <path clip-path="url(#pc4694d488c)" d="M 144.669069 273.312 
L 146.282553 273.312 
L 146.282553 108.247331 
L 144.669069 108.247331 
z
" style="fill:#1f77b4;"/>
   </g>
   <g id="patch_56">
    <path clip-path="url(#pc4694d488c)" d="M 146.282553 273.312 
L 147.896037 273.312 
L 147.896037 111.16883 
L 146.282553 111.16883 
z
" style="fill:#1f77b4;"/>
   </g>
   <g id="patch_57">
    <path clip-path="url(#pc4694d488c)" d="M 147.896037 273.312 
L 149.509521 273.312 
L 149.509521 107.516957 
L 147.896037 107.516957 
z
" style="fill:#1f77b4;"/>
   </g>
   <g id="patch_58">
    <path clip-path="url(#pc4694d488c)" d="M 149.509521 273.312 
L 151.123005 273.312 
L 151.123005 89.987965 
L 149.509521 89.987965 
z
" style="fill:#1f77b4;"/>
   </g>
   <g id="patch_59">
    <path clip-path="url(#pc4694d488c)" d="M 151.123005 273.312 
L 152.736489 273.312 
L 152.736489 100.21321 
L 151.123005 100.21321 
z
" style="fill:#1f77b4;"/>
   </g>
   <g id="patch_60">
    <path clip-path="url(#pc4694d488c)" d="M 152.736489 273.312 
L 154.349973 273.312 
L 154.349973 86.336092 
L 152.736489 86.336092 
z
" style="fill:#1f77b4;"/>
   </g>
   <g id="patch_61">
    <path clip-path="url(#pc4694d488c)" d="M 154.349973 273.312 
L 155.963457 273.312 
L 155.963457 77.571597 
L 154.349973 77.571597 
z
" style="fill:#1f77b4;"/>
   </g>
   <g id="patch_62">
    <path clip-path="url(#pc4694d488c)" d="M 155.963457 273.312 
L 157.576941 273.312 
L 157.576941 79.76272 
L 155.963457 79.76272 
z
" style="fill:#1f77b4;"/>
   </g>
   <g id="patch_63">
    <path clip-path="url(#pc4694d488c)" d="M 157.576941 273.312 
L 159.190425 273.312 
L 159.190425 96.561337 
L 157.576941 96.561337 
z
" style="fill:#1f77b4;"/>
   </g>
   <g id="patch_64">
    <path clip-path="url(#pc4694d488c)" d="M 159.190425 273.312 
L 160.803909 273.312 
L 160.803909 87.796841 
L 159.190425 87.796841 
z
" style="fill:#1f77b4;"/>
   </g>
   <g id="patch_65">
    <path clip-path="url(#pc4694d488c)" d="M 160.803909 273.312 
L 162.417393 273.312 
L 162.417393 64.424853 
L 160.803909 64.424853 
z
" style="fill:#1f77b4;"/>
   </g>
   <g id="patch_66">
    <path clip-path="url(#pc4694d488c)" d="M 162.417393 273.312 
L 164.030877 273.312 
L 164.030877 93.639839 
L 162.417393 93.639839 
z
" style="fill:#1f77b4;"/>
   </g>
   <g id="patch_67">
    <path clip-path="url(#pc4694d488c)" d="M 164.030877 273.312 
L 165.644361 273.312 
L 165.644361 76.110847 
L 164.030877 76.110847 
z
" style="fill:#1f77b4;"/>
   </g>
   <g id="patch_68">
    <path clip-path="url(#pc4694d488c)" d="M 165.644361 273.312 
L 167.257844 273.312 
L 167.257844 80.493095 
L 165.644361 80.493095 
z
" style="fill:#1f77b4;"/>
   </g>
   <g id="patch_69">
    <path clip-path="url(#pc4694d488c)" d="M 167.257844 273.312 
L 168.871328 273.312 
L 168.871328 74.650098 
L 167.257844 74.650098 
z
" style="fill:#1f77b4;"/>
   </g>
   <g id="patch_70">
    <path clip-path="url(#pc4694d488c)" d="M 168.871328 273.312 
L 170.484812 273.312 
L 170.484812 70.998225 
L 168.871328 70.998225 
z
" style="fill:#1f77b4;"/>
   </g>
   <g id="patch_71">
    <path clip-path="url(#pc4694d488c)" d="M 170.484812 273.312 
L 172.098296 273.312 
L 172.098296 80.493095 
L 170.484812 80.493095 
z
" style="fill:#1f77b4;"/>
   </g>
   <g id="patch_72">
    <path clip-path="url(#pc4694d488c)" d="M 172.098296 273.312 
L 173.71178 273.312 
L 173.71178 56.390732 
L 172.098296 56.390732 
z
" style="fill:#1f77b4;"/>
   </g>
   <g id="patch_73">
    <path clip-path="url(#pc4694d488c)" d="M 173.71178 273.312 
L 175.325264 273.312 
L 175.325264 87.796841 
L 173.71178 87.796841 
z
" style="fill:#1f77b4;"/>
   </g>
   <g id="patch_74">
    <path clip-path="url(#pc4694d488c)" d="M 175.325264 273.312 
L 176.938748 273.312 
L 176.938748 62.233729 
L 175.325264 62.233729 
z
" style="fill:#1f77b4;"/>
   </g>
   <g id="patch_75">
    <path clip-path="url(#pc4694d488c)" d="M 176.938748 273.312 
L 178.552232 273.312 
L 178.552232 73.919723 
L 176.938748 73.919723 
z
" style="fill:#1f77b4;"/>
   </g>
   <g id="patch_76">
    <path clip-path="url(#pc4694d488c)" d="M 178.552232 273.312 
L 180.165716 273.312 
L 180.165716 52.738859 
L 178.552232 52.738859 
z
" style="fill:#1f77b4;"/>
   </g>
   <g id="patch_77">
    <path clip-path="url(#pc4694d488c)" d="M 180.165716 273.312 
L 181.7792 273.312 
L 181.7792 59.312231 
L 180.165716 59.312231 
z
" style="fill:#1f77b4;"/>
   </g>
   <g id="patch_78">
    <path clip-path="url(#pc4694d488c)" d="M 181.7792 273.312 
L 183.392684 273.312 
L 183.392684 49.81736 
L 181.7792 49.81736 
z
" style="fill:#1f77b4;"/>
   </g>
   <g id="patch_79">
    <path clip-path="url(#pc4694d488c)" d="M 183.392684 273.312 
L 185.006168 273.312 
L 185.006168 50.547735 
L 183.392684 50.547735 
z
" style="fill:#1f77b4;"/>
   </g>
   <g id="patch_80">
    <path clip-path="url(#pc4694d488c)" d="M 185.006168 273.312 
L 186.619652 273.312 
L 186.619652 38.861741 
L 185.006168 38.861741 
z
" style="fill:#1f77b4;"/>
   </g>
   <g id="patch_81">
    <path clip-path="url(#pc4694d488c)" d="M 186.619652 273.312 
L 188.233136 273.312 
L 188.233136 50.547735 
L 186.619652 50.547735 
z
" style="fill:#1f77b4;"/>
   </g>
   <g id="patch_82">
    <path clip-path="url(#pc4694d488c)" d="M 188.233136 273.312 
L 189.84662 273.312 
L 189.84662 22.793499 
L 188.233136 22.793499 
z
" style="fill:#1f77b4;"/>
   </g>
   <g id="patch_83">
    <path clip-path="url(#pc4694d488c)" d="M 189.84662 273.312 
L 191.460104 273.312 
L 191.460104 52.008484 
L 189.84662 52.008484 
z
" style="fill:#1f77b4;"/>
   </g>
   <g id="patch_84">
    <path clip-path="url(#pc4694d488c)" d="M 191.460104 273.312 
L 193.073587 273.312 
L 193.073587 87.796841 
L 191.460104 87.796841 
z
" style="fill:#1f77b4;"/>
   </g>
   <g id="patch_85">
    <path clip-path="url(#pc4694d488c)" d="M 193.073587 273.312 
L 194.687071 273.312 
L 194.687071 46.165487 
L 193.073587 46.165487 
z
" style="fill:#1f77b4;"/>
   </g>
   <g id="patch_86">
    <path clip-path="url(#pc4694d488c)" d="M 194.687071 273.312 
L 196.300555 273.312 
L 196.300555 57.851481 
L 194.687071 57.851481 
z
" style="fill:#1f77b4;"/>
   </g>
   <g id="patch_87">
    <path clip-path="url(#pc4694d488c)" d="M 196.300555 273.312 
L 197.914039 273.312 
L 197.914039 56.390732 
L 196.300555 56.390732 
z
" style="fill:#1f77b4;"/>
   </g>
   <g id="patch_88">
    <path clip-path="url(#pc4694d488c)" d="M 197.914039 273.312 
L 199.527523 273.312 
L 199.527523 53.469233 
L 197.914039 53.469233 
z
" style="fill:#1f77b4;"/>
   </g>
   <g id="patch_89">
    <path clip-path="url(#pc4694d488c)" d="M 199.527523 273.312 
L 201.141007 273.312 
L 201.141007 73.189349 
L 199.527523 73.189349 
z
" style="fill:#1f77b4;"/>
   </g>
   <g id="patch_90">
    <path clip-path="url(#pc4694d488c)" d="M 201.141007 273.312 
L 202.754491 273.312 
L 202.754491 73.919723 
L 201.141007 73.919723 
z
" style="fill:#1f77b4;"/>
   </g>
   <g id="patch_91">
    <path clip-path="url(#pc4694d488c)" d="M 202.754491 273.312 
L 204.367975 273.312 
L 204.367975 54.199608 
L 202.754491 54.199608 
z
" style="fill:#1f77b4;"/>
   </g>
   <g id="patch_92">
    <path clip-path="url(#pc4694d488c)" d="M 204.367975 273.312 
L 205.981459 273.312 
L 205.981459 43.243988 
L 204.367975 43.243988 
z
" style="fill:#1f77b4;"/>
   </g>
   <g id="patch_93">
    <path clip-path="url(#pc4694d488c)" d="M 205.981459 273.312 
L 207.594943 273.312 
L 207.594943 76.110847 
L 205.981459 76.110847 
z
" style="fill:#1f77b4;"/>
   </g>
   <g id="patch_94">
    <path clip-path="url(#pc4694d488c)" d="M 207.594943 273.312 
L 209.208427 273.312 
L 209.208427 52.008484 
L 207.594943 52.008484 
z
" style="fill:#1f77b4;"/>
   </g>
   <g id="patch_95">
    <path clip-path="url(#pc4694d488c)" d="M 209.208427 273.312 
L 210.821911 273.312 
L 210.821911 48.356611 
L 209.208427 48.356611 
z
" style="fill:#1f77b4;"/>
   </g>
   <g id="patch_96">
    <path clip-path="url(#pc4694d488c)" d="M 210.821911 273.312 
L 212.435395 273.312 
L 212.435395 42.513614 
L 210.821911 42.513614 
z
" style="fill:#1f77b4;"/>
   </g>
   <g id="patch_97">
    <path clip-path="url(#pc4694d488c)" d="M 212.435395 273.312 
L 214.048879 273.312 
L 214.048879 52.738859 
L 212.435395 52.738859 
z
" style="fill:#1f77b4;"/>
   </g>
   <g id="patch_98">
    <path clip-path="url(#pc4694d488c)" d="M 214.048879 273.312 
L 215.662363 273.312 
L 215.662363 51.27811 
L 214.048879 51.27811 
z
" style="fill:#1f77b4;"/>
   </g>
   <g id="patch_99">
    <path clip-path="url(#pc4694d488c)" d="M 215.662363 273.312 
L 217.275846 273.312 
L 217.275846 46.895862 
L 215.662363 46.895862 
z
" style="fill:#1f77b4;"/>
   </g>
   <g id="patch_100">
    <path clip-path="url(#pc4694d488c)" d="M 217.275846 273.312 
L 218.88933 273.312 
L 218.88933 34.479493 
L 217.275846 34.479493 
z
" style="fill:#1f77b4;"/>
   </g>
   <g id="patch_101">
    <path clip-path="url(#pc4694d488c)" d="M 218.88933 273.312 
L 220.502814 273.312 
L 220.502814 81.953844 
L 218.88933 81.953844 
z
" style="fill:#1f77b4;"/>
   </g>
   <g id="patch_102">
    <path clip-path="url(#pc4694d488c)" d="M 220.502814 273.312 
L 222.116298 273.312 
L 222.116298 19.872 
L 220.502814 19.872 
z
" style="fill:#1f77b4;"/>
   </g>
   <g id="patch_103">
    <path clip-path="url(#pc4694d488c)" d="M 222.116298 273.312 
L 223.729782 273.312 
L 223.729782 56.390732 
L 222.116298 56.390732 
z
" style="fill:#1f77b4;"/>
   </g>
   <g id="patch_104">
    <path clip-path="url(#pc4694d488c)" d="M 223.729782 273.312 
L 225.343266 273.312 
L 225.343266 37.400991 
L 223.729782 37.400991 
z
" style="fill:#1f77b4;"/>
   </g>
   <g id="patch_105">
    <path clip-path="url(#pc4694d488c)" d="M 225.343266 273.312 
L 226.95675 273.312 
L 226.95675 36.670617 
L 225.343266 36.670617 
z
" style="fill:#1f77b4;"/>
   </g>
   <g id="patch_106">
    <path clip-path="url(#pc4694d488c)" d="M 226.95675 273.312 
L 228.570234 273.312 
L 228.570234 41.783239 
L 226.95675 41.783239 
z
" style="fill:#1f77b4;"/>
   </g>
   <g id="patch_107">
    <path clip-path="url(#pc4694d488c)" d="M 228.570234 273.312 
L 230.183718 273.312 
L 230.183718 29.36687 
L 228.570234 29.36687 
z
" style="fill:#1f77b4;"/>
   </g>
   <g id="patch_108">
    <path clip-path="url(#pc4694d488c)" d="M 230.183718 273.312 
L 231.797202 273.312 
L 231.797202 27.175746 
L 230.183718 27.175746 
z
" style="fill:#1f77b4;"/>
   </g>
   <g id="patch_109">
    <path clip-path="url(#pc4694d488c)" d="M 231.797202 273.312 
L 233.410686 273.312 
L 233.410686 52.738859 
L 231.797202 52.738859 
z
" style="fill:#1f77b4;"/>
   </g>
   <g id="patch_110">
    <path clip-path="url(#pc4694d488c)" d="M 233.410686 273.312 
L 235.02417 273.312 
L 235.02417 35.940242 
L 233.410686 35.940242 
z
" style="fill:#1f77b4;"/>
   </g>
   <g id="patch_111">
    <path clip-path="url(#pc4694d488c)" d="M 235.02417 273.312 
L 236.637654 273.312 
L 236.637654 45.435112 
L 235.02417 45.435112 
z
" style="fill:#1f77b4;"/>
   </g>
   <g id="patch_112">
    <path clip-path="url(#pc4694d488c)" d="M 236.637654 273.312 
L 238.251138 273.312 
L 238.251138 49.81736 
L 236.637654 49.81736 
z
" style="fill:#1f77b4;"/>
   </g>
   <g id="patch_113">
    <path clip-path="url(#pc4694d488c)" d="M 238.251138 273.312 
L 239.864622 273.312 
L 239.864622 64.424853 
L 238.251138 64.424853 
z
" style="fill:#1f77b4;"/>
   </g>
   <g id="patch_114">
    <path clip-path="url(#pc4694d488c)" d="M 239.864622 273.312 
L 241.478105 273.312 
L 241.478105 64.424853 
L 239.864622 64.424853 
z
" style="fill:#1f77b4;"/>
   </g>
   <g id="patch_115">
    <path clip-path="url(#pc4694d488c)" d="M 241.478105 273.312 
L 243.091589 273.312 
L 243.091589 57.851481 
L 241.478105 57.851481 
z
" style="fill:#1f77b4;"/>
   </g>
   <g id="patch_116">
    <path clip-path="url(#pc4694d488c)" d="M 243.091589 273.312 
L 244.705073 273.312 
L 244.705073 57.851481 
L 243.091589 57.851481 
z
" style="fill:#1f77b4;"/>
   </g>
   <g id="patch_117">
    <path clip-path="url(#pc4694d488c)" d="M 244.705073 273.312 
L 246.318557 273.312 
L 246.318557 46.165487 
L 244.705073 46.165487 
z
" style="fill:#1f77b4;"/>
   </g>
   <g id="patch_118">
    <path clip-path="url(#pc4694d488c)" d="M 246.318557 273.312 
L 247.932041 273.312 
L 247.932041 55.660357 
L 246.318557 55.660357 
z
" style="fill:#1f77b4;"/>
   </g>
   <g id="patch_119">
    <path clip-path="url(#pc4694d488c)" d="M 247.932041 273.312 
L 249.545525 273.312 
L 249.545525 56.390732 
L 247.932041 56.390732 
z
" style="fill:#1f77b4;"/>
   </g>
   <g id="patch_120">
    <path clip-path="url(#pc4694d488c)" d="M 249.545525 273.312 
L 251.159009 273.312 
L 251.159009 65.885602 
L 249.545525 65.885602 
z
" style="fill:#1f77b4;"/>
   </g>
   <g id="patch_121">
    <path clip-path="url(#pc4694d488c)" d="M 251.159009 273.312 
L 252.772493 273.312 
L 252.772493 49.81736 
L 251.159009 49.81736 
z
" style="fill:#1f77b4;"/>
   </g>
   <g id="patch_122">
    <path clip-path="url(#pc4694d488c)" d="M 252.772493 273.312 
L 254.385977 273.312 
L 254.385977 68.076726 
L 252.772493 68.076726 
z
" style="fill:#1f77b4;"/>
   </g>
   <g id="patch_123">
    <path clip-path="url(#pc4694d488c)" d="M 254.385977 273.312 
L 255.999461 273.312 
L 255.999461 62.964104 
L 254.385977 62.964104 
z
" style="fill:#1f77b4;"/>
   </g>
   <g id="patch_124">
    <path clip-path="url(#pc4694d488c)" d="M 255.999461 273.312 
L 257.612945 273.312 
L 257.612945 49.086986 
L 255.999461 49.086986 
z
" style="fill:#1f77b4;"/>
   </g>
   <g id="patch_125">
    <path clip-path="url(#pc4694d488c)" d="M 257.612945 273.312 
L 259.226429 273.312 
L 259.226429 43.243988 
L 257.612945 43.243988 
z
" style="fill:#1f77b4;"/>
   </g>
   <g id="patch_126">
    <path clip-path="url(#pc4694d488c)" d="M 259.226429 273.312 
L 260.839913 273.312 
L 260.839913 53.469233 
L 259.226429 53.469233 
z
" style="fill:#1f77b4;"/>
   </g>
   <g id="patch_127">
    <path clip-path="url(#pc4694d488c)" d="M 260.839913 273.312 
L 262.453397 273.312 
L 262.453397 55.660357 
L 260.839913 55.660357 
z
" style="fill:#1f77b4;"/>
   </g>
   <g id="patch_128">
    <path clip-path="url(#pc4694d488c)" d="M 262.453397 273.312 
L 264.066881 273.312 
L 264.066881 60.042605 
L 262.453397 60.042605 
z
" style="fill:#1f77b4;"/>
   </g>
   <g id="patch_129">
    <path clip-path="url(#pc4694d488c)" d="M 264.066881 273.312 
L 265.680364 273.312 
L 265.680364 62.233729 
L 264.066881 62.233729 
z
" style="fill:#1f77b4;"/>
   </g>
   <g id="patch_130">
    <path clip-path="url(#pc4694d488c)" d="M 265.680364 273.312 
L 267.293848 273.312 
L 267.293848 74.650098 
L 265.680364 74.650098 
z
" style="fill:#1f77b4;"/>
   </g>
   <g id="patch_131">
    <path clip-path="url(#pc4694d488c)" d="M 267.293848 273.312 
L 268.907332 273.312 
L 268.907332 84.144968 
L 267.293848 84.144968 
z
" style="fill:#1f77b4;"/>
   </g>
   <g id="patch_132">
    <path clip-path="url(#pc4694d488c)" d="M 268.907332 273.312 
L 270.520816 273.312 
L 270.520816 70.998225 
L 268.907332 70.998225 
z
" style="fill:#1f77b4;"/>
   </g>
   <g id="patch_133">
    <path clip-path="url(#pc4694d488c)" d="M 270.520816 273.312 
L 272.1343 273.312 
L 272.1343 95.100588 
L 270.520816 95.100588 
z
" style="fill:#1f77b4;"/>
   </g>
   <g id="patch_134">
    <path clip-path="url(#pc4694d488c)" d="M 272.1343 273.312 
L 273.747784 273.312 
L 273.747784 65.155228 
L 272.1343 65.155228 
z
" style="fill:#1f77b4;"/>
   </g>
   <g id="patch_135">
    <path clip-path="url(#pc4694d488c)" d="M 273.747784 273.312 
L 275.361268 273.312 
L 275.361268 65.885602 
L 273.747784 65.885602 
z
" style="fill:#1f77b4;"/>
   </g>
   <g id="patch_136">
    <path clip-path="url(#pc4694d488c)" d="M 275.361268 273.312 
L 276.974752 273.312 
L 276.974752 77.571597 
L 275.361268 77.571597 
z
" style="fill:#1f77b4;"/>
   </g>
   <g id="patch_137">
    <path clip-path="url(#pc4694d488c)" d="M 276.974752 273.312 
L 278.588236 273.312 
L 278.588236 72.458974 
L 276.974752 72.458974 
z
" style="fill:#1f77b4;"/>
   </g>
   <g id="patch_138">
    <path clip-path="url(#pc4694d488c)" d="M 278.588236 273.312 
L 280.20172 273.312 
L 280.20172 60.77298 
L 278.588236 60.77298 
z
" style="fill:#1f77b4;"/>
   </g>
   <g id="patch_139">
    <path clip-path="url(#pc4694d488c)" d="M 280.20172 273.312 
L 281.815204 273.312 
L 281.815204 85.605718 
L 280.20172 85.605718 
z
" style="fill:#1f77b4;"/>
   </g>
   <g id="patch_140">
    <path clip-path="url(#pc4694d488c)" d="M 281.815204 273.312 
L 283.428688 273.312 
L 283.428688 65.155228 
L 281.815204 65.155228 
z
" style="fill:#1f77b4;"/>
   </g>
   <g id="patch_141">
    <path clip-path="url(#pc4694d488c)" d="M 283.428688 273.312 
L 285.042172 273.312 
L 285.042172 96.561337 
L 283.428688 96.561337 
z
" style="fill:#1f77b4;"/>
   </g>
   <g id="patch_142">
    <path clip-path="url(#pc4694d488c)" d="M 285.042172 273.312 
L 286.655656 273.312 
L 286.655656 83.414594 
L 285.042172 83.414594 
z
" style="fill:#1f77b4;"/>
   </g>
   <g id="patch_143">
    <path clip-path="url(#pc4694d488c)" d="M 286.655656 273.312 
L 288.26914 273.312 
L 288.26914 79.76272 
L 286.655656 79.76272 
z
" style="fill:#1f77b4;"/>
   </g>
   <g id="patch_144">
    <path clip-path="url(#pc4694d488c)" d="M 288.26914 273.312 
L 289.882623 273.312 
L 289.882623 100.943585 
L 288.26914 100.943585 
z
" style="fill:#1f77b4;"/>
   </g>
   <g id="patch_145">
    <path clip-path="url(#pc4694d488c)" d="M 289.882623 273.312 
L 291.496107 273.312 
L 291.496107 73.189349 
L 289.882623 73.189349 
z
" style="fill:#1f77b4;"/>
   </g>
   <g id="patch_146">
    <path clip-path="url(#pc4694d488c)" d="M 291.496107 273.312 
L 293.109591 273.312 
L 293.109591 98.752461 
L 291.496107 98.752461 
z
" style="fill:#1f77b4;"/>
   </g>
   <g id="patch_147">
    <path clip-path="url(#pc4694d488c)" d="M 293.109591 273.312 
L 294.723075 273.312 
L 294.723075 89.987965 
L 293.109591 89.987965 
z
" style="fill:#1f77b4;"/>
   </g>
   <g id="patch_148">
    <path clip-path="url(#pc4694d488c)" d="M 294.723075 273.312 
L 296.336559 273.312 
L 296.336559 90.71834 
L 294.723075 90.71834 
z
" style="fill:#1f77b4;"/>
   </g>
   <g id="patch_149">
    <path clip-path="url(#pc4694d488c)" d="M 296.336559 273.312 
L 297.950043 273.312 
L 297.950043 95.830963 
L 296.336559 95.830963 
z
" style="fill:#1f77b4;"/>
   </g>
   <g id="patch_150">
    <path clip-path="url(#pc4694d488c)" d="M 297.950043 273.312 
L 299.563527 273.312 
L 299.563527 112.629579 
L 297.950043 112.629579 
z
" style="fill:#1f77b4;"/>
   </g>
   <g id="patch_151">
    <path clip-path="url(#pc4694d488c)" d="M 299.563527 273.312 
L 301.177011 273.312 
L 301.177011 117.742202 
L 299.563527 117.742202 
z
" style="fill:#1f77b4;"/>
   </g>
   <g id="patch_152">
    <path clip-path="url(#pc4694d488c)" d="M 301.177011 273.312 
L 302.790495 273.312 
L 302.790495 84.875343 
L 301.177011 84.875343 
z
" style="fill:#1f77b4;"/>
   </g>
   <g id="patch_153">
    <path clip-path="url(#pc4694d488c)" d="M 302.790495 273.312 
L 304.403979 273.312 
L 304.403979 136.001568 
L 302.790495 136.001568 
z
" style="fill:#1f77b4;"/>
   </g>
   <g id="patch_154">
    <path clip-path="url(#pc4694d488c)" d="M 304.403979 273.312 
L 306.017463 273.312 
L 306.017463 117.742202 
L 304.403979 117.742202 
z
" style="fill:#1f77b4;"/>
   </g>
   <g id="patch_155">
    <path clip-path="url(#pc4694d488c)" d="M 306.017463 273.312 
L 307.630947 273.312 
L 307.630947 121.394075 
L 306.017463 121.394075 
z
" style="fill:#1f77b4;"/>
   </g>
   <g id="patch_156">
    <path clip-path="url(#pc4694d488c)" d="M 307.630947 273.312 
L 309.244431 273.312 
L 309.244431 148.417937 
L 307.630947 148.417937 
z
" style="fill:#1f77b4;"/>
   </g>
   <g id="patch_157">
    <path clip-path="url(#pc4694d488c)" d="M 309.244431 273.312 
L 310.857915 273.312 
L 310.857915 117.742202 
L 309.244431 117.742202 
z
" style="fill:#1f77b4;"/>
   </g>
   <g id="patch_158">
    <path clip-path="url(#pc4694d488c)" d="M 310.857915 273.312 
L 312.471399 273.312 
L 312.471399 132.349695 
L 310.857915 132.349695 
z
" style="fill:#1f77b4;"/>
   </g>
   <g id="patch_159">
    <path clip-path="url(#pc4694d488c)" d="M 312.471399 273.312 
L 314.084882 273.312 
L 314.084882 126.506697 
L 312.471399 126.506697 
z
" style="fill:#1f77b4;"/>
   </g>
   <g id="patch_160">
    <path clip-path="url(#pc4694d488c)" d="M 314.084882 273.312 
L 315.698366 273.312 
L 315.698366 126.506697 
L 314.084882 126.506697 
z
" style="fill:#1f77b4;"/>
   </g>
   <g id="patch_161">
    <path clip-path="url(#pc4694d488c)" d="M 315.698366 273.312 
L 317.31185 273.312 
L 317.31185 130.158571 
L 315.698366 130.158571 
z
" style="fill:#1f77b4;"/>
   </g>
   <g id="patch_162">
    <path clip-path="url(#pc4694d488c)" d="M 317.31185 273.312 
L 318.925334 273.312 
L 318.925334 141.844565 
L 317.31185 141.844565 
z
" style="fill:#1f77b4;"/>
   </g>
   <g id="patch_163">
    <path clip-path="url(#pc4694d488c)" d="M 318.925334 273.312 
L 320.538818 273.312 
L 320.538818 137.462317 
L 318.925334 137.462317 
z
" style="fill:#1f77b4;"/>
   </g>
   <g id="patch_164">
    <path clip-path="url(#pc4694d488c)" d="M 320.538818 273.312 
L 322.152302 273.312 
L 322.152302 143.305314 
L 320.538818 143.305314 
z
" style="fill:#1f77b4;"/>
   </g>
   <g id="patch_165">
    <path clip-path="url(#pc4694d488c)" d="M 322.152302 273.312 
L 323.765786 273.312 
L 323.765786 147.687562 
L 322.152302 147.687562 
z
" style="fill:#1f77b4;"/>
   </g>
   <g id="patch_166">
    <path clip-path="url(#pc4694d488c)" d="M 323.765786 273.312 
L 325.37927 273.312 
L 325.37927 151.339435 
L 323.765786 151.339435 
z
" style="fill:#1f77b4;"/>
   </g>
   <g id="patch_167">
    <path clip-path="url(#pc4694d488c)" d="M 325.37927 273.312 
L 326.992754 273.312 
L 326.992754 147.687562 
L 325.37927 147.687562 
z
" style="fill:#1f77b4;"/>
   </g>
   <g id="patch_168">
    <path clip-path="url(#pc4694d488c)" d="M 326.992754 273.312 
L 328.606238 273.312 
L 328.606238 165.216553 
L 326.992754 165.216553 
z
" style="fill:#1f77b4;"/>
   </g>
   <g id="patch_169">
    <path clip-path="url(#pc4694d488c)" d="M 328.606238 273.312 
L 330.219722 273.312 
L 330.219722 156.452058 
L 328.606238 156.452058 
z
" style="fill:#1f77b4;"/>
   </g>
   <g id="patch_170">
    <path clip-path="url(#pc4694d488c)" d="M 330.219722 273.312 
L 331.833206 273.312 
L 331.833206 168.868427 
L 330.219722 168.868427 
z
" style="fill:#1f77b4;"/>
   </g>
   <g id="patch_171">
    <path clip-path="url(#pc4694d488c)" d="M 331.833206 273.312 
L 333.44669 273.312 
L 333.44669 167.407677 
L 331.833206 167.407677 
z
" style="fill:#1f77b4;"/>
   </g>
   <g id="patch_172">
    <path clip-path="url(#pc4694d488c)" d="M 333.44669 273.312 
L 335.060174 273.312 
L 335.060174 178.363297 
L 333.44669 178.363297 
z
" style="fill:#1f77b4;"/>
   </g>
   <g id="patch_173">
    <path clip-path="url(#pc4694d488c)" d="M 335.060174 273.312 
L 336.673658 273.312 
L 336.673658 167.407677 
L 335.060174 167.407677 
z
" style="fill:#1f77b4;"/>
   </g>
   <g id="patch_174">
    <path clip-path="url(#pc4694d488c)" d="M 336.673658 273.312 
L 338.287141 273.312 
L 338.287141 153.530559 
L 336.673658 153.530559 
z
" style="fill:#1f77b4;"/>
   </g>
   <g id="patch_175">
    <path clip-path="url(#pc4694d488c)" d="M 338.287141 273.312 
L 339.900625 273.312 
L 339.900625 181.284795 
L 338.287141 181.284795 
z
" style="fill:#1f77b4;"/>
   </g>
   <g id="patch_176">
    <path clip-path="url(#pc4694d488c)" d="M 339.900625 273.312 
L 341.514109 273.312 
L 341.514109 181.284795 
L 339.900625 181.284795 
z
" style="fill:#1f77b4;"/>
   </g>
   <g id="patch_177">
    <path clip-path="url(#pc4694d488c)" d="M 341.514109 273.312 
L 343.127593 273.312 
L 343.127593 203.196035 
L 341.514109 203.196035 
z
" style="fill:#1f77b4;"/>
   </g>
   <g id="patch_178">
    <path clip-path="url(#pc4694d488c)" d="M 343.127593 273.312 
L 344.741077 273.312 
L 344.741077 182.745545 
L 343.127593 182.745545 
z
" style="fill:#1f77b4;"/>
   </g>
   <g id="patch_179">
    <path clip-path="url(#pc4694d488c)" d="M 344.741077 273.312 
L 346.354561 273.312 
L 346.354561 198.813787 
L 344.741077 198.813787 
z
" style="fill:#1f77b4;"/>
   </g>
   <g id="patch_180">
    <path clip-path="url(#pc4694d488c)" d="M 346.354561 273.312 
L 347.968045 273.312 
L 347.968045 210.499781 
L 346.354561 210.499781 
z
" style="fill:#1f77b4;"/>
   </g>
   <g id="patch_181">
    <path clip-path="url(#pc4694d488c)" d="M 347.968045 273.312 
L 349.581529 273.312 
L 349.581529 187.127793 
L 347.968045 187.127793 
z
" style="fill:#1f77b4;"/>
   </g>
   <g id="patch_182">
    <path clip-path="url(#pc4694d488c)" d="M 349.581529 273.312 
L 351.195013 273.312 
L 351.195013 191.51004 
L 349.581529 191.51004 
z
" style="fill:#1f77b4;"/>
   </g>
   <g id="patch_183">
    <path clip-path="url(#pc4694d488c)" d="M 351.195013 273.312 
L 352.808497 273.312 
L 352.808497 201.735285 
L 351.195013 201.735285 
z
" style="fill:#1f77b4;"/>
   </g>
   <g id="patch_184">
    <path clip-path="url(#pc4694d488c)" d="M 352.808497 273.312 
L 354.421981 273.312 
L 354.421981 201.004911 
L 352.808497 201.004911 
z
" style="fill:#1f77b4;"/>
   </g>
   <g id="patch_185">
    <path clip-path="url(#pc4694d488c)" d="M 354.421981 273.312 
L 356.035465 273.312 
L 356.035465 194.431539 
L 354.421981 194.431539 
z
" style="fill:#1f77b4;"/>
   </g>
   <g id="patch_186">
    <path clip-path="url(#pc4694d488c)" d="M 356.035465 273.312 
L 357.648949 273.312 
L 357.648949 219.994651 
L 356.035465 219.994651 
z
" style="fill:#1f77b4;"/>
   </g>
   <g id="patch_187">
    <path clip-path="url(#pc4694d488c)" d="M 357.648949 273.312 
L 359.262433 273.312 
L 359.262433 210.499781 
L 357.648949 210.499781 
z
" style="fill:#1f77b4;"/>
   </g>
   <g id="patch_188">
    <path clip-path="url(#pc4694d488c)" d="M 359.262433 273.312 
L 360.875917 273.312 
L 360.875917 219.264277 
L 359.262433 219.264277 
z
" style="fill:#1f77b4;"/>
   </g>
   <g id="patch_189">
    <path clip-path="url(#pc4694d488c)" d="M 360.875917 273.312 
L 362.489401 273.312 
L 362.489401 219.994651 
L 360.875917 219.994651 
z
" style="fill:#1f77b4;"/>
   </g>
   <g id="patch_190">
    <path clip-path="url(#pc4694d488c)" d="M 362.489401 273.312 
L 364.102884 273.312 
L 364.102884 225.107274 
L 362.489401 225.107274 
z
" style="fill:#1f77b4;"/>
   </g>
   <g id="patch_191">
    <path clip-path="url(#pc4694d488c)" d="M 364.102884 273.312 
L 365.716368 273.312 
L 365.716368 233.141395 
L 364.102884 233.141395 
z
" style="fill:#1f77b4;"/>
   </g>
   <g id="patch_192">
    <path clip-path="url(#pc4694d488c)" d="M 365.716368 273.312 
L 367.329852 273.312 
L 367.329852 225.837648 
L 365.716368 225.837648 
z
" style="fill:#1f77b4;"/>
   </g>
   <g id="patch_193">
    <path clip-path="url(#pc4694d488c)" d="M 367.329852 273.312 
L 368.943336 273.312 
L 368.943336 233.871769 
L 367.329852 233.871769 
z
" style="fill:#1f77b4;"/>
   </g>
   <g id="patch_194">
    <path clip-path="url(#pc4694d488c)" d="M 368.943336 273.312 
L 370.55682 273.312 
L 370.55682 252.131135 
L 368.943336 252.131135 
z
" style="fill:#1f77b4;"/>
   </g>
   <g id="patch_195">
    <path clip-path="url(#pc4694d488c)" d="M 370.55682 273.312 
L 372.170304 273.312 
L 372.170304 250.670386 
L 370.55682 250.670386 
z
" style="fill:#1f77b4;"/>
   </g>
   <g id="patch_196">
    <path clip-path="url(#pc4694d488c)" d="M 372.170304 273.312 
L 373.783788 273.312 
L 373.783788 249.209637 
L 372.170304 249.209637 
z
" style="fill:#1f77b4;"/>
   </g>
   <g id="patch_197">
    <path clip-path="url(#pc4694d488c)" d="M 373.783788 273.312 
L 375.397272 273.312 
L 375.397272 248.479262 
L 373.783788 248.479262 
z
" style="fill:#1f77b4;"/>
   </g>
   <g id="patch_198">
    <path clip-path="url(#pc4694d488c)" d="M 375.397272 273.312 
L 377.010756 273.312 
L 377.010756 257.974133 
L 375.397272 257.974133 
z
" style="fill:#1f77b4;"/>
   </g>
   <g id="patch_199">
    <path clip-path="url(#pc4694d488c)" d="M 377.010756 273.312 
L 378.62424 273.312 
L 378.62424 257.243758 
L 377.010756 257.243758 
z
" style="fill:#1f77b4;"/>
   </g>
   <g id="patch_200">
    <path clip-path="url(#pc4694d488c)" d="M 378.62424 273.312 
L 380.237724 273.312 
L 380.237724 263.086755 
L 378.62424 263.086755 
z
" style="fill:#1f77b4;"/>
   </g>
   <g id="patch_201">
    <path clip-path="url(#pc4694d488c)" d="M 380.237724 273.312 
L 381.851208 273.312 
L 381.851208 266.008254 
L 380.237724 266.008254 
z
" style="fill:#1f77b4;"/>
   </g>
   <g id="patch_202">
    <path clip-path="url(#pc4694d488c)" d="M 381.851208 273.312 
L 383.464692 273.312 
L 383.464692 266.738628 
L 381.851208 266.738628 
z
" style="fill:#1f77b4;"/>
   </g>
   <g id="matplotlib.axis_1">
    <g id="xtick_1">
     <g id="line2d_1">
      <defs>
       <path d="M 0 0 
L 0 3.5 
" id="md1f8badcd6" style="stroke:#000000;stroke-width:0.8;"/>
      </defs>
      <g>
       <use style="stroke:#000000;stroke-width:0.8;" x="60.013977" xlink:href="#md1f8badcd6" y="273.312"/>
      </g>
     </g>
     <g id="text_1">
      <!-- 0.0 -->
      <g transform="translate(52.062415 287.910437)scale(0.1 -0.1)">
       <defs>
        <path d="M 2034 4250 
Q 1547 4250 1301 3770 
Q 1056 3291 1056 2328 
Q 1056 1369 1301 889 
Q 1547 409 2034 409 
Q 2525 409 2770 889 
Q 3016 1369 3016 2328 
Q 3016 3291 2770 3770 
Q 2525 4250 2034 4250 
z
M 2034 4750 
Q 2819 4750 3233 4129 
Q 3647 3509 3647 2328 
Q 3647 1150 3233 529 
Q 2819 -91 2034 -91 
Q 1250 -91 836 529 
Q 422 1150 422 2328 
Q 422 3509 836 4129 
Q 1250 4750 2034 4750 
z
" id="DejaVuSans-30" transform="scale(0.015625)"/>
        <path d="M 684 794 
L 1344 794 
L 1344 0 
L 684 0 
L 684 794 
z
" id="DejaVuSans-2e" transform="scale(0.015625)"/>
       </defs>
       <use xlink:href="#DejaVuSans-30"/>
       <use x="63.623047" xlink:href="#DejaVuSans-2e"/>
       <use x="95.410156" xlink:href="#DejaVuSans-30"/>
      </g>
     </g>
    </g>
    <g id="xtick_2">
     <g id="line2d_2">
      <g>
       <use style="stroke:#000000;stroke-width:0.8;" x="101.350278" xlink:href="#md1f8badcd6" y="273.312"/>
      </g>
     </g>
     <g id="text_2">
      <!-- 0.2 -->
      <g transform="translate(93.398715 287.910437)scale(0.1 -0.1)">
       <defs>
        <path d="M 1228 531 
L 3431 531 
L 3431 0 
L 469 0 
L 469 531 
Q 828 903 1448 1529 
Q 2069 2156 2228 2338 
Q 2531 2678 2651 2914 
Q 2772 3150 2772 3378 
Q 2772 3750 2511 3984 
Q 2250 4219 1831 4219 
Q 1534 4219 1204 4116 
Q 875 4013 500 3803 
L 500 4441 
Q 881 4594 1212 4672 
Q 1544 4750 1819 4750 
Q 2544 4750 2975 4387 
Q 3406 4025 3406 3419 
Q 3406 3131 3298 2873 
Q 3191 2616 2906 2266 
Q 2828 2175 2409 1742 
Q 1991 1309 1228 531 
z
" id="DejaVuSans-32" transform="scale(0.015625)"/>
       </defs>
       <use xlink:href="#DejaVuSans-30"/>
       <use x="63.623047" xlink:href="#DejaVuSans-2e"/>
       <use x="95.410156" xlink:href="#DejaVuSans-32"/>
      </g>
     </g>
    </g>
    <g id="xtick_3">
     <g id="line2d_3">
      <g>
       <use style="stroke:#000000;stroke-width:0.8;" x="142.686578" xlink:href="#md1f8badcd6" y="273.312"/>
      </g>
     </g>
     <g id="text_3">
      <!-- 0.4 -->
      <g transform="translate(134.735016 287.910437)scale(0.1 -0.1)">
       <defs>
        <path d="M 2419 4116 
L 825 1625 
L 2419 1625 
L 2419 4116 
z
M 2253 4666 
L 3047 4666 
L 3047 1625 
L 3713 1625 
L 3713 1100 
L 3047 1100 
L 3047 0 
L 2419 0 
L 2419 1100 
L 313 1100 
L 313 1709 
L 2253 4666 
z
" id="DejaVuSans-34" transform="scale(0.015625)"/>
       </defs>
       <use xlink:href="#DejaVuSans-30"/>
       <use x="63.623047" xlink:href="#DejaVuSans-2e"/>
       <use x="95.410156" xlink:href="#DejaVuSans-34"/>
      </g>
     </g>
    </g>
    <g id="xtick_4">
     <g id="line2d_4">
      <g>
       <use style="stroke:#000000;stroke-width:0.8;" x="184.022879" xlink:href="#md1f8badcd6" y="273.312"/>
      </g>
     </g>
     <g id="text_4">
      <!-- 0.6 -->
      <g transform="translate(176.071316 287.910437)scale(0.1 -0.1)">
       <defs>
        <path d="M 2113 2584 
Q 1688 2584 1439 2293 
Q 1191 2003 1191 1497 
Q 1191 994 1439 701 
Q 1688 409 2113 409 
Q 2538 409 2786 701 
Q 3034 994 3034 1497 
Q 3034 2003 2786 2293 
Q 2538 2584 2113 2584 
z
M 3366 4563 
L 3366 3988 
Q 3128 4100 2886 4159 
Q 2644 4219 2406 4219 
Q 1781 4219 1451 3797 
Q 1122 3375 1075 2522 
Q 1259 2794 1537 2939 
Q 1816 3084 2150 3084 
Q 2853 3084 3261 2657 
Q 3669 2231 3669 1497 
Q 3669 778 3244 343 
Q 2819 -91 2113 -91 
Q 1303 -91 875 529 
Q 447 1150 447 2328 
Q 447 3434 972 4092 
Q 1497 4750 2381 4750 
Q 2619 4750 2861 4703 
Q 3103 4656 3366 4563 
z
" id="DejaVuSans-36" transform="scale(0.015625)"/>
       </defs>
       <use xlink:href="#DejaVuSans-30"/>
       <use x="63.623047" xlink:href="#DejaVuSans-2e"/>
       <use x="95.410156" xlink:href="#DejaVuSans-36"/>
      </g>
     </g>
    </g>
    <g id="xtick_5">
     <g id="line2d_5">
      <g>
       <use style="stroke:#000000;stroke-width:0.8;" x="225.35918" xlink:href="#md1f8badcd6" y="273.312"/>
      </g>
     </g>
     <g id="text_5">
      <!-- 0.8 -->
      <g transform="translate(217.407617 287.910437)scale(0.1 -0.1)">
       <defs>
        <path d="M 2034 2216 
Q 1584 2216 1326 1975 
Q 1069 1734 1069 1313 
Q 1069 891 1326 650 
Q 1584 409 2034 409 
Q 2484 409 2743 651 
Q 3003 894 3003 1313 
Q 3003 1734 2745 1975 
Q 2488 2216 2034 2216 
z
M 1403 2484 
Q 997 2584 770 2862 
Q 544 3141 544 3541 
Q 544 4100 942 4425 
Q 1341 4750 2034 4750 
Q 2731 4750 3128 4425 
Q 3525 4100 3525 3541 
Q 3525 3141 3298 2862 
Q 3072 2584 2669 2484 
Q 3125 2378 3379 2068 
Q 3634 1759 3634 1313 
Q 3634 634 3220 271 
Q 2806 -91 2034 -91 
Q 1263 -91 848 271 
Q 434 634 434 1313 
Q 434 1759 690 2068 
Q 947 2378 1403 2484 
z
M 1172 3481 
Q 1172 3119 1398 2916 
Q 1625 2713 2034 2713 
Q 2441 2713 2670 2916 
Q 2900 3119 2900 3481 
Q 2900 3844 2670 4047 
Q 2441 4250 2034 4250 
Q 1625 4250 1398 4047 
Q 1172 3844 1172 3481 
z
" id="DejaVuSans-38" transform="scale(0.015625)"/>
       </defs>
       <use xlink:href="#DejaVuSans-30"/>
       <use x="63.623047" xlink:href="#DejaVuSans-2e"/>
       <use x="95.410156" xlink:href="#DejaVuSans-38"/>
      </g>
     </g>
    </g>
    <g id="xtick_6">
     <g id="line2d_6">
      <g>
       <use style="stroke:#000000;stroke-width:0.8;" x="266.69548" xlink:href="#md1f8badcd6" y="273.312"/>
      </g>
     </g>
     <g id="text_6">
      <!-- 1.0 -->
      <g transform="translate(258.743918 287.910437)scale(0.1 -0.1)">
       <defs>
        <path d="M 794 531 
L 1825 531 
L 1825 4091 
L 703 3866 
L 703 4441 
L 1819 4666 
L 2450 4666 
L 2450 531 
L 3481 531 
L 3481 0 
L 794 0 
L 794 531 
z
" id="DejaVuSans-31" transform="scale(0.015625)"/>
       </defs>
       <use xlink:href="#DejaVuSans-31"/>
       <use x="63.623047" xlink:href="#DejaVuSans-2e"/>
       <use x="95.410156" xlink:href="#DejaVuSans-30"/>
      </g>
     </g>
    </g>
    <g id="xtick_7">
     <g id="line2d_7">
      <g>
       <use style="stroke:#000000;stroke-width:0.8;" x="308.031781" xlink:href="#md1f8badcd6" y="273.312"/>
      </g>
     </g>
     <g id="text_7">
      <!-- 1.2 -->
      <g transform="translate(300.080218 287.910437)scale(0.1 -0.1)">
       <use xlink:href="#DejaVuSans-31"/>
       <use x="63.623047" xlink:href="#DejaVuSans-2e"/>
       <use x="95.410156" xlink:href="#DejaVuSans-32"/>
      </g>
     </g>
    </g>
    <g id="xtick_8">
     <g id="line2d_8">
      <g>
       <use style="stroke:#000000;stroke-width:0.8;" x="349.368081" xlink:href="#md1f8badcd6" y="273.312"/>
      </g>
     </g>
     <g id="text_8">
      <!-- 1.4 -->
      <g transform="translate(341.416519 287.910437)scale(0.1 -0.1)">
       <use xlink:href="#DejaVuSans-31"/>
       <use x="63.623047" xlink:href="#DejaVuSans-2e"/>
       <use x="95.410156" xlink:href="#DejaVuSans-34"/>
      </g>
     </g>
    </g>
    <g id="xtick_9">
     <g id="line2d_9">
      <g>
       <use style="stroke:#000000;stroke-width:0.8;" x="390.704382" xlink:href="#md1f8badcd6" y="273.312"/>
      </g>
     </g>
     <g id="text_9">
      <!-- 1.6 -->
      <g transform="translate(382.752819 287.910437)scale(0.1 -0.1)">
       <use xlink:href="#DejaVuSans-31"/>
       <use x="63.623047" xlink:href="#DejaVuSans-2e"/>
       <use x="95.410156" xlink:href="#DejaVuSans-36"/>
      </g>
     </g>
    </g>
    <g id="text_10">
     <!-- Angle with normal (rad) -->
     <g transform="translate(163.023281 301.588562)scale(0.1 -0.1)">
      <defs>
       <path d="M 2188 4044 
L 1331 1722 
L 3047 1722 
L 2188 4044 
z
M 1831 4666 
L 2547 4666 
L 4325 0 
L 3669 0 
L 3244 1197 
L 1141 1197 
L 716 0 
L 50 0 
L 1831 4666 
z
" id="DejaVuSans-41" transform="scale(0.015625)"/>
       <path d="M 3513 2113 
L 3513 0 
L 2938 0 
L 2938 2094 
Q 2938 2591 2744 2837 
Q 2550 3084 2163 3084 
Q 1697 3084 1428 2787 
Q 1159 2491 1159 1978 
L 1159 0 
L 581 0 
L 581 3500 
L 1159 3500 
L 1159 2956 
Q 1366 3272 1645 3428 
Q 1925 3584 2291 3584 
Q 2894 3584 3203 3211 
Q 3513 2838 3513 2113 
z
" id="DejaVuSans-6e" transform="scale(0.015625)"/>
       <path d="M 2906 1791 
Q 2906 2416 2648 2759 
Q 2391 3103 1925 3103 
Q 1463 3103 1205 2759 
Q 947 2416 947 1791 
Q 947 1169 1205 825 
Q 1463 481 1925 481 
Q 2391 481 2648 825 
Q 2906 1169 2906 1791 
z
M 3481 434 
Q 3481 -459 3084 -895 
Q 2688 -1331 1869 -1331 
Q 1566 -1331 1297 -1286 
Q 1028 -1241 775 -1147 
L 775 -588 
Q 1028 -725 1275 -790 
Q 1522 -856 1778 -856 
Q 2344 -856 2625 -561 
Q 2906 -266 2906 331 
L 2906 616 
Q 2728 306 2450 153 
Q 2172 0 1784 0 
Q 1141 0 747 490 
Q 353 981 353 1791 
Q 353 2603 747 3093 
Q 1141 3584 1784 3584 
Q 2172 3584 2450 3431 
Q 2728 3278 2906 2969 
L 2906 3500 
L 3481 3500 
L 3481 434 
z
" id="DejaVuSans-67" transform="scale(0.015625)"/>
       <path d="M 603 4863 
L 1178 4863 
L 1178 0 
L 603 0 
L 603 4863 
z
" id="DejaVuSans-6c" transform="scale(0.015625)"/>
       <path d="M 3597 1894 
L 3597 1613 
L 953 1613 
Q 991 1019 1311 708 
Q 1631 397 2203 397 
Q 2534 397 2845 478 
Q 3156 559 3463 722 
L 3463 178 
Q 3153 47 2828 -22 
Q 2503 -91 2169 -91 
Q 1331 -91 842 396 
Q 353 884 353 1716 
Q 353 2575 817 3079 
Q 1281 3584 2069 3584 
Q 2775 3584 3186 3129 
Q 3597 2675 3597 1894 
z
M 3022 2063 
Q 3016 2534 2758 2815 
Q 2500 3097 2075 3097 
Q 1594 3097 1305 2825 
Q 1016 2553 972 2059 
L 3022 2063 
z
" id="DejaVuSans-65" transform="scale(0.015625)"/>
       <path id="DejaVuSans-20" transform="scale(0.015625)"/>
       <path d="M 269 3500 
L 844 3500 
L 1563 769 
L 2278 3500 
L 2956 3500 
L 3675 769 
L 4391 3500 
L 4966 3500 
L 4050 0 
L 3372 0 
L 2619 2869 
L 1863 0 
L 1184 0 
L 269 3500 
z
" id="DejaVuSans-77" transform="scale(0.015625)"/>
       <path d="M 603 3500 
L 1178 3500 
L 1178 0 
L 603 0 
L 603 3500 
z
M 603 4863 
L 1178 4863 
L 1178 4134 
L 603 4134 
L 603 4863 
z
" id="DejaVuSans-69" transform="scale(0.015625)"/>
       <path d="M 1172 4494 
L 1172 3500 
L 2356 3500 
L 2356 3053 
L 1172 3053 
L 1172 1153 
Q 1172 725 1289 603 
Q 1406 481 1766 481 
L 2356 481 
L 2356 0 
L 1766 0 
Q 1100 0 847 248 
Q 594 497 594 1153 
L 594 3053 
L 172 3053 
L 172 3500 
L 594 3500 
L 594 4494 
L 1172 4494 
z
" id="DejaVuSans-74" transform="scale(0.015625)"/>
       <path d="M 3513 2113 
L 3513 0 
L 2938 0 
L 2938 2094 
Q 2938 2591 2744 2837 
Q 2550 3084 2163 3084 
Q 1697 3084 1428 2787 
Q 1159 2491 1159 1978 
L 1159 0 
L 581 0 
L 581 4863 
L 1159 4863 
L 1159 2956 
Q 1366 3272 1645 3428 
Q 1925 3584 2291 3584 
Q 2894 3584 3203 3211 
Q 3513 2838 3513 2113 
z
" id="DejaVuSans-68" transform="scale(0.015625)"/>
       <path d="M 1959 3097 
Q 1497 3097 1228 2736 
Q 959 2375 959 1747 
Q 959 1119 1226 758 
Q 1494 397 1959 397 
Q 2419 397 2687 759 
Q 2956 1122 2956 1747 
Q 2956 2369 2687 2733 
Q 2419 3097 1959 3097 
z
M 1959 3584 
Q 2709 3584 3137 3096 
Q 3566 2609 3566 1747 
Q 3566 888 3137 398 
Q 2709 -91 1959 -91 
Q 1206 -91 779 398 
Q 353 888 353 1747 
Q 353 2609 779 3096 
Q 1206 3584 1959 3584 
z
" id="DejaVuSans-6f" transform="scale(0.015625)"/>
       <path d="M 2631 2963 
Q 2534 3019 2420 3045 
Q 2306 3072 2169 3072 
Q 1681 3072 1420 2755 
Q 1159 2438 1159 1844 
L 1159 0 
L 581 0 
L 581 3500 
L 1159 3500 
L 1159 2956 
Q 1341 3275 1631 3429 
Q 1922 3584 2338 3584 
Q 2397 3584 2469 3576 
Q 2541 3569 2628 3553 
L 2631 2963 
z
" id="DejaVuSans-72" transform="scale(0.015625)"/>
       <path d="M 3328 2828 
Q 3544 3216 3844 3400 
Q 4144 3584 4550 3584 
Q 5097 3584 5394 3201 
Q 5691 2819 5691 2113 
L 5691 0 
L 5113 0 
L 5113 2094 
Q 5113 2597 4934 2840 
Q 4756 3084 4391 3084 
Q 3944 3084 3684 2787 
Q 3425 2491 3425 1978 
L 3425 0 
L 2847 0 
L 2847 2094 
Q 2847 2600 2669 2842 
Q 2491 3084 2119 3084 
Q 1678 3084 1418 2786 
Q 1159 2488 1159 1978 
L 1159 0 
L 581 0 
L 581 3500 
L 1159 3500 
L 1159 2956 
Q 1356 3278 1631 3431 
Q 1906 3584 2284 3584 
Q 2666 3584 2933 3390 
Q 3200 3197 3328 2828 
z
" id="DejaVuSans-6d" transform="scale(0.015625)"/>
       <path d="M 2194 1759 
Q 1497 1759 1228 1600 
Q 959 1441 959 1056 
Q 959 750 1161 570 
Q 1363 391 1709 391 
Q 2188 391 2477 730 
Q 2766 1069 2766 1631 
L 2766 1759 
L 2194 1759 
z
M 3341 1997 
L 3341 0 
L 2766 0 
L 2766 531 
Q 2569 213 2275 61 
Q 1981 -91 1556 -91 
Q 1019 -91 701 211 
Q 384 513 384 1019 
Q 384 1609 779 1909 
Q 1175 2209 1959 2209 
L 2766 2209 
L 2766 2266 
Q 2766 2663 2505 2880 
Q 2244 3097 1772 3097 
Q 1472 3097 1187 3025 
Q 903 2953 641 2809 
L 641 3341 
Q 956 3463 1253 3523 
Q 1550 3584 1831 3584 
Q 2591 3584 2966 3190 
Q 3341 2797 3341 1997 
z
" id="DejaVuSans-61" transform="scale(0.015625)"/>
       <path d="M 1984 4856 
Q 1566 4138 1362 3434 
Q 1159 2731 1159 2009 
Q 1159 1288 1364 580 
Q 1569 -128 1984 -844 
L 1484 -844 
Q 1016 -109 783 600 
Q 550 1309 550 2009 
Q 550 2706 781 3412 
Q 1013 4119 1484 4856 
L 1984 4856 
z
" id="DejaVuSans-28" transform="scale(0.015625)"/>
       <path d="M 2906 2969 
L 2906 4863 
L 3481 4863 
L 3481 0 
L 2906 0 
L 2906 525 
Q 2725 213 2448 61 
Q 2172 -91 1784 -91 
Q 1150 -91 751 415 
Q 353 922 353 1747 
Q 353 2572 751 3078 
Q 1150 3584 1784 3584 
Q 2172 3584 2448 3432 
Q 2725 3281 2906 2969 
z
M 947 1747 
Q 947 1113 1208 752 
Q 1469 391 1925 391 
Q 2381 391 2643 752 
Q 2906 1113 2906 1747 
Q 2906 2381 2643 2742 
Q 2381 3103 1925 3103 
Q 1469 3103 1208 2742 
Q 947 2381 947 1747 
z
" id="DejaVuSans-64" transform="scale(0.015625)"/>
       <path d="M 513 4856 
L 1013 4856 
Q 1481 4119 1714 3412 
Q 1947 2706 1947 2009 
Q 1947 1309 1714 600 
Q 1481 -109 1013 -844 
L 513 -844 
Q 928 -128 1133 580 
Q 1338 1288 1338 2009 
Q 1338 2731 1133 3434 
Q 928 4138 513 4856 
z
" id="DejaVuSans-29" transform="scale(0.015625)"/>
      </defs>
      <use xlink:href="#DejaVuSans-41"/>
      <use x="68.408203" xlink:href="#DejaVuSans-6e"/>
      <use x="131.787109" xlink:href="#DejaVuSans-67"/>
      <use x="195.263672" xlink:href="#DejaVuSans-6c"/>
      <use x="223.046875" xlink:href="#DejaVuSans-65"/>
      <use x="284.570312" xlink:href="#DejaVuSans-20"/>
      <use x="316.357422" xlink:href="#DejaVuSans-77"/>
      <use x="398.144531" xlink:href="#DejaVuSans-69"/>
      <use x="425.927734" xlink:href="#DejaVuSans-74"/>
      <use x="465.136719" xlink:href="#DejaVuSans-68"/>
      <use x="528.515625" xlink:href="#DejaVuSans-20"/>
      <use x="560.302734" xlink:href="#DejaVuSans-6e"/>
      <use x="623.681641" xlink:href="#DejaVuSans-6f"/>
      <use x="684.863281" xlink:href="#DejaVuSans-72"/>
      <use x="724.226562" xlink:href="#DejaVuSans-6d"/>
      <use x="821.638672" xlink:href="#DejaVuSans-61"/>
      <use x="882.917969" xlink:href="#DejaVuSans-6c"/>
      <use x="910.701172" xlink:href="#DejaVuSans-20"/>
      <use x="942.488281" xlink:href="#DejaVuSans-28"/>
      <use x="981.501953" xlink:href="#DejaVuSans-72"/>
      <use x="1022.615234" xlink:href="#DejaVuSans-61"/>
      <use x="1083.894531" xlink:href="#DejaVuSans-64"/>
      <use x="1147.371094" xlink:href="#DejaVuSans-29"/>
     </g>
    </g>
   </g>
   <g id="matplotlib.axis_2">
    <g id="ytick_1">
     <g id="line2d_10">
      <defs>
       <path d="M 0 0 
L -3.5 0 
" id="m5eba9be058" style="stroke:#000000;stroke-width:0.8;"/>
      </defs>
      <g>
       <use style="stroke:#000000;stroke-width:0.8;" x="43.78125" xlink:href="#m5eba9be058" y="273.312"/>
      </g>
     </g>
     <g id="text_11">
      <!-- 0.0 -->
      <g transform="translate(20.878125 277.111219)scale(0.1 -0.1)">
       <use xlink:href="#DejaVuSans-30"/>
       <use x="63.623047" xlink:href="#DejaVuSans-2e"/>
       <use x="95.410156" xlink:href="#DejaVuSans-30"/>
      </g>
     </g>
    </g>
    <g id="ytick_2">
     <g id="line2d_11">
      <g>
       <use style="stroke:#000000;stroke-width:0.8;" x="43.78125" xlink:href="#m5eba9be058" y="227.697942"/>
      </g>
     </g>
     <g id="text_12">
      <!-- 0.2 -->
      <g transform="translate(20.878125 231.497161)scale(0.1 -0.1)">
       <use xlink:href="#DejaVuSans-30"/>
       <use x="63.623047" xlink:href="#DejaVuSans-2e"/>
       <use x="95.410156" xlink:href="#DejaVuSans-32"/>
      </g>
     </g>
    </g>
    <g id="ytick_3">
     <g id="line2d_12">
      <g>
       <use style="stroke:#000000;stroke-width:0.8;" x="43.78125" xlink:href="#m5eba9be058" y="182.083885"/>
      </g>
     </g>
     <g id="text_13">
      <!-- 0.4 -->
      <g transform="translate(20.878125 185.883104)scale(0.1 -0.1)">
       <use xlink:href="#DejaVuSans-30"/>
       <use x="63.623047" xlink:href="#DejaVuSans-2e"/>
       <use x="95.410156" xlink:href="#DejaVuSans-34"/>
      </g>
     </g>
    </g>
    <g id="ytick_4">
     <g id="line2d_13">
      <g>
       <use style="stroke:#000000;stroke-width:0.8;" x="43.78125" xlink:href="#m5eba9be058" y="136.469827"/>
      </g>
     </g>
     <g id="text_14">
      <!-- 0.6 -->
      <g transform="translate(20.878125 140.269046)scale(0.1 -0.1)">
       <use xlink:href="#DejaVuSans-30"/>
       <use x="63.623047" xlink:href="#DejaVuSans-2e"/>
       <use x="95.410156" xlink:href="#DejaVuSans-36"/>
      </g>
     </g>
    </g>
    <g id="ytick_5">
     <g id="line2d_14">
      <g>
       <use style="stroke:#000000;stroke-width:0.8;" x="43.78125" xlink:href="#m5eba9be058" y="90.85577"/>
      </g>
     </g>
     <g id="text_15">
      <!-- 0.8 -->
      <g transform="translate(20.878125 94.654988)scale(0.1 -0.1)">
       <use xlink:href="#DejaVuSans-30"/>
       <use x="63.623047" xlink:href="#DejaVuSans-2e"/>
       <use x="95.410156" xlink:href="#DejaVuSans-38"/>
      </g>
     </g>
    </g>
    <g id="ytick_6">
     <g id="line2d_15">
      <g>
       <use style="stroke:#000000;stroke-width:0.8;" x="43.78125" xlink:href="#m5eba9be058" y="45.241712"/>
      </g>
     </g>
     <g id="text_16">
      <!-- 1.0 -->
      <g transform="translate(20.878125 49.040931)scale(0.1 -0.1)">
       <use xlink:href="#DejaVuSans-31"/>
       <use x="63.623047" xlink:href="#DejaVuSans-2e"/>
       <use x="95.410156" xlink:href="#DejaVuSans-30"/>
      </g>
     </g>
    </g>
    <g id="text_17">
     <!-- Probability density -->
     <g transform="translate(14.798438 186.606781)rotate(-90)scale(0.1 -0.1)">
      <defs>
       <path d="M 1259 4147 
L 1259 2394 
L 2053 2394 
Q 2494 2394 2734 2622 
Q 2975 2850 2975 3272 
Q 2975 3691 2734 3919 
Q 2494 4147 2053 4147 
L 1259 4147 
z
M 628 4666 
L 2053 4666 
Q 2838 4666 3239 4311 
Q 3641 3956 3641 3272 
Q 3641 2581 3239 2228 
Q 2838 1875 2053 1875 
L 1259 1875 
L 1259 0 
L 628 0 
L 628 4666 
z
" id="DejaVuSans-50" transform="scale(0.015625)"/>
       <path d="M 3116 1747 
Q 3116 2381 2855 2742 
Q 2594 3103 2138 3103 
Q 1681 3103 1420 2742 
Q 1159 2381 1159 1747 
Q 1159 1113 1420 752 
Q 1681 391 2138 391 
Q 2594 391 2855 752 
Q 3116 1113 3116 1747 
z
M 1159 2969 
Q 1341 3281 1617 3432 
Q 1894 3584 2278 3584 
Q 2916 3584 3314 3078 
Q 3713 2572 3713 1747 
Q 3713 922 3314 415 
Q 2916 -91 2278 -91 
Q 1894 -91 1617 61 
Q 1341 213 1159 525 
L 1159 0 
L 581 0 
L 581 4863 
L 1159 4863 
L 1159 2969 
z
" id="DejaVuSans-62" transform="scale(0.015625)"/>
       <path d="M 2059 -325 
Q 1816 -950 1584 -1140 
Q 1353 -1331 966 -1331 
L 506 -1331 
L 506 -850 
L 844 -850 
Q 1081 -850 1212 -737 
Q 1344 -625 1503 -206 
L 1606 56 
L 191 3500 
L 800 3500 
L 1894 763 
L 2988 3500 
L 3597 3500 
L 2059 -325 
z
" id="DejaVuSans-79" transform="scale(0.015625)"/>
       <path d="M 2834 3397 
L 2834 2853 
Q 2591 2978 2328 3040 
Q 2066 3103 1784 3103 
Q 1356 3103 1142 2972 
Q 928 2841 928 2578 
Q 928 2378 1081 2264 
Q 1234 2150 1697 2047 
L 1894 2003 
Q 2506 1872 2764 1633 
Q 3022 1394 3022 966 
Q 3022 478 2636 193 
Q 2250 -91 1575 -91 
Q 1294 -91 989 -36 
Q 684 19 347 128 
L 347 722 
Q 666 556 975 473 
Q 1284 391 1588 391 
Q 1994 391 2212 530 
Q 2431 669 2431 922 
Q 2431 1156 2273 1281 
Q 2116 1406 1581 1522 
L 1381 1569 
Q 847 1681 609 1914 
Q 372 2147 372 2553 
Q 372 3047 722 3315 
Q 1072 3584 1716 3584 
Q 2034 3584 2315 3537 
Q 2597 3491 2834 3397 
z
" id="DejaVuSans-73" transform="scale(0.015625)"/>
      </defs>
      <use xlink:href="#DejaVuSans-50"/>
      <use x="58.552734" xlink:href="#DejaVuSans-72"/>
      <use x="97.416016" xlink:href="#DejaVuSans-6f"/>
      <use x="158.597656" xlink:href="#DejaVuSans-62"/>
      <use x="222.074219" xlink:href="#DejaVuSans-61"/>
      <use x="283.353516" xlink:href="#DejaVuSans-62"/>
      <use x="346.830078" xlink:href="#DejaVuSans-69"/>
      <use x="374.613281" xlink:href="#DejaVuSans-6c"/>
      <use x="402.396484" xlink:href="#DejaVuSans-69"/>
      <use x="430.179688" xlink:href="#DejaVuSans-74"/>
      <use x="469.388672" xlink:href="#DejaVuSans-79"/>
      <use x="528.568359" xlink:href="#DejaVuSans-20"/>
      <use x="560.355469" xlink:href="#DejaVuSans-64"/>
      <use x="623.832031" xlink:href="#DejaVuSans-65"/>
      <use x="685.355469" xlink:href="#DejaVuSans-6e"/>
      <use x="748.734375" xlink:href="#DejaVuSans-73"/>
      <use x="800.833984" xlink:href="#DejaVuSans-69"/>
      <use x="828.617188" xlink:href="#DejaVuSans-74"/>
      <use x="867.826172" xlink:href="#DejaVuSans-79"/>
     </g>
    </g>
   </g>
   <g id="line2d_16">
    <path clip-path="url(#pc4694d488c)" d="M 60.013977 273.312 
L 79.837728 229.82934 
L 90.237073 207.55724 
L 99.01152 189.273711 
L 106.811029 173.526001 
L 113.960578 159.587563 
L 120.460169 147.38672 
L 126.63478 136.256437 
L 132.484411 126.162547 
L 138.009063 117.061709 
L 143.208736 108.903606 
L 148.408408 101.161644 
L 153.283101 94.298937 
L 157.832814 88.252761 
L 162.382528 82.56523 
L 166.932241 77.247367 
L 171.156975 72.649376 
L 175.381709 68.386705 
L 179.281463 64.755725 
L 183.181217 61.421709 
L 187.080972 58.389403 
L 190.655746 55.878529 
L 194.230521 53.627813 
L 197.805296 51.639948 
L 201.380071 49.917313 
L 204.629866 48.583179 
L 207.879661 47.471269 
L 211.129456 46.582684 
L 214.379252 45.918301 
L 217.629047 45.478777 
L 220.878842 45.264548 
L 224.128637 45.275825 
L 227.378433 45.512597 
L 230.628228 45.974629 
L 233.878023 46.661466 
L 237.127818 47.572427 
L 240.377614 48.706612 
L 243.627409 50.0629 
L 247.202184 51.809737 
L 250.776958 53.8216 
L 254.351733 56.096083 
L 257.926508 58.630463 
L 261.501283 61.421709 
L 265.401037 64.755725 
L 269.300791 68.386705 
L 273.200546 72.309479 
L 277.425279 76.881942 
L 281.650013 81.782654 
L 286.199727 87.418034 
L 290.74944 93.413677 
L 295.624133 100.224146 
L 300.498826 107.419684 
L 305.698498 115.501303 
L 311.22315 124.525208 
L 316.747802 133.974248 
L 322.597433 144.412474 
L 328.772044 155.877858 
L 335.596614 169.036029 
L 342.746164 183.307367 
L 350.870652 200.043657 
L 359.970079 219.320645 
L 371.019383 243.276218 
L 384.668523 273.312 
L 384.668523 273.312 
" style="fill:none;stroke:#ff7f0e;stroke-linecap:square;stroke-width:1.5;"/>
   </g>
   <g id="patch_203">
    <path d="M 43.78125 273.312 
L 43.78125 7.2 
" style="fill:none;stroke:#000000;stroke-linecap:square;stroke-linejoin:miter;stroke-width:0.8;"/>
   </g>
   <g id="patch_204">
    <path d="M 400.90125 273.312 
L 400.90125 7.2 
" style="fill:none;stroke:#000000;stroke-linecap:square;stroke-linejoin:miter;stroke-width:0.8;"/>
   </g>
   <g id="patch_205">
    <path d="M 43.78125 273.312 
L 400.90125 273.312 
" style="fill:none;stroke:#000000;stroke-linecap:square;stroke-linejoin:miter;stroke-width:0.8;"/>
   </g>
   <g id="patch_206">
    <path d="M 43.78125 7.2 
L 400.90125 7.2 
" style="fill:none;stroke:#000000;stroke-linecap:square;stroke-linejoin:miter;stroke-width:0.8;"/>
   </g>
  </g>
 </g>
 <defs>
  <clipPath id="pc4694d488c">
   <rect height="266.112" width="357.12" x="43.78125" y="7.2"/>
  </clipPath>
 </defs>
</svg>
