<?xml version="1.0" encoding="utf-8" standalone="no"?>
<!DOCTYPE svg PUBLIC "-//W3C//DTD SVG 1.1//EN"
  "http://www.w3.org/Graphics/SVG/1.1/DTD/svg11.dtd">
<svg height="310.86825pt" version="1.1" viewBox="0 0 408.10125 310.86825" width="408.10125pt" xmlns="http://www.w3.org/2000/svg" xmlns:xlink="http://www.w3.org/1999/xlink">
 <metadata>
  <rdf:RDF xmlns:cc="http://creativecommons.org/ns#" xmlns:dc="http://purl.org/dc/elements/1.1/" xmlns:rdf="http://www.w3.org/1999/02/22-rdf-syntax-ns#">
   <cc:Work>
    <dc:type rdf:resource="http://purl.org/dc/dcmitype/StillImage"/>
    <dc:date>2021-07-07T06:52:21.443914</dc:date>
    <dc:format>image/svg+xml</dc:format>
    <dc:creator>
     <cc:Agent>
      <dc:title>Matplotlib v3.4.2, https://matplotlib.org/</dc:title>
     </cc:Agent>
    </dc:creator>
   </cc:Work>
  </rdf:RDF>
 </metadata>
 <defs>
  <style type="text/css">*{stroke-linecap:butt;stroke-linejoin:round;}</style>
 </defs>
 <g id="figure_1">
  <g id="patch_1">
   <path d="M 0 310.86825 
L 408.10125 310.86825 
L 408.10125 0 
L 0 0 
z
" style="fill:#ffffff;"/>
  </g>
  <g id="axes_1">
   <g id="patch_2">
    <path d="M 43.78125 273.312 
L 400.90125 273.312 
L 400.90125 7.2 
L 43.78125 7.2 
z
" style="fill:#ffffff;"/>
   </g>
   <g id="patch_3">
    <path clip-path="url(#p1f07772bd7)" d="M 61.90494 273.312 
L 63.518747 273.312 
L 63.518747 271.651913 
L 61.90494 271.651913 
z
" style="fill:#1f77b4;"/>
   </g>
   <g id="patch_4">
    <path clip-path="url(#p1f07772bd7)" d="M 63.518747 273.312 
L 65.132554 273.312 
L 65.132554 268.8851 
L 63.518747 268.8851 
z
" style="fill:#1f77b4;"/>
   </g>
   <g id="patch_5">
    <path clip-path="url(#p1f07772bd7)" d="M 65.132554 273.312 
L 66.746361 273.312 
L 66.746361 269.438463 
L 65.132554 269.438463 
z
" style="fill:#1f77b4;"/>
   </g>
   <g id="patch_6">
    <path clip-path="url(#p1f07772bd7)" d="M 66.746361 273.312 
L 68.360168 273.312 
L 68.360168 269.991825 
L 66.746361 269.991825 
z
" style="fill:#1f77b4;"/>
   </g>
   <g id="patch_7">
    <path clip-path="url(#p1f07772bd7)" d="M 68.360168 273.312 
L 69.973976 273.312 
L 69.973976 265.564926 
L 68.360168 265.564926 
z
" style="fill:#1f77b4;"/>
   </g>
   <g id="patch_8">
    <path clip-path="url(#p1f07772bd7)" d="M 69.973976 273.312 
L 71.587783 273.312 
L 71.587783 265.564926 
L 69.973976 265.564926 
z
" style="fill:#1f77b4;"/>
   </g>
   <g id="patch_9">
    <path clip-path="url(#p1f07772bd7)" d="M 71.587783 273.312 
L 73.20159 273.312 
L 73.20159 269.438463 
L 71.587783 269.438463 
z
" style="fill:#1f77b4;"/>
   </g>
   <g id="patch_10">
    <path clip-path="url(#p1f07772bd7)" d="M 73.20159 273.312 
L 74.815397 273.312 
L 74.815397 262.798114 
L 73.20159 262.798114 
z
" style="fill:#1f77b4;"/>
   </g>
   <g id="patch_11">
    <path clip-path="url(#p1f07772bd7)" d="M 74.815397 273.312 
L 76.429204 273.312 
L 76.429204 259.477939 
L 74.815397 259.477939 
z
" style="fill:#1f77b4;"/>
   </g>
   <g id="patch_12">
    <path clip-path="url(#p1f07772bd7)" d="M 76.429204 273.312 
L 78.043011 273.312 
L 78.043011 263.904838 
L 76.429204 263.904838 
z
" style="fill:#1f77b4;"/>
   </g>
   <g id="patch_13">
    <path clip-path="url(#p1f07772bd7)" d="M 78.043011 273.312 
L 79.656818 273.312 
L 79.656818 260.584664 
L 78.043011 260.584664 
z
" style="fill:#1f77b4;"/>
   </g>
   <g id="patch_14">
    <path clip-path="url(#p1f07772bd7)" d="M 79.656818 273.312 
L 81.270625 273.312 
L 81.270625 261.138026 
L 79.656818 261.138026 
z
" style="fill:#1f77b4;"/>
   </g>
   <g id="patch_15">
    <path clip-path="url(#p1f07772bd7)" d="M 81.270625 273.312 
L 82.884433 273.312 
L 82.884433 262.798114 
L 81.270625 262.798114 
z
" style="fill:#1f77b4;"/>
   </g>
   <g id="patch_16">
    <path clip-path="url(#p1f07772bd7)" d="M 82.884433 273.312 
L 84.49824 273.312 
L 84.49824 263.351476 
L 82.884433 263.351476 
z
" style="fill:#1f77b4;"/>
   </g>
   <g id="patch_17">
    <path clip-path="url(#p1f07772bd7)" d="M 84.49824 273.312 
L 86.112047 273.312 
L 86.112047 258.371214 
L 84.49824 258.371214 
z
" style="fill:#1f77b4;"/>
   </g>
   <g id="patch_18">
    <path clip-path="url(#p1f07772bd7)" d="M 86.112047 273.312 
L 87.725854 273.312 
L 87.725854 251.730865 
L 86.112047 251.730865 
z
" style="fill:#1f77b4;"/>
   </g>
   <g id="patch_19">
    <path clip-path="url(#p1f07772bd7)" d="M 87.725854 273.312 
L 89.339661 273.312 
L 89.339661 252.83759 
L 87.725854 252.83759 
z
" style="fill:#1f77b4;"/>
   </g>
   <g id="patch_20">
    <path clip-path="url(#p1f07772bd7)" d="M 89.339661 273.312 
L 90.953468 273.312 
L 90.953468 251.177502 
L 89.339661 251.177502 
z
" style="fill:#1f77b4;"/>
   </g>
   <g id="patch_21">
    <path clip-path="url(#p1f07772bd7)" d="M 90.953468 273.312 
L 92.567275 273.312 
L 92.567275 248.964052 
L 90.953468 248.964052 
z
" style="fill:#1f77b4;"/>
   </g>
   <g id="patch_22">
    <path clip-path="url(#p1f07772bd7)" d="M 92.567275 273.312 
L 94.181082 273.312 
L 94.181082 256.157764 
L 92.567275 256.157764 
z
" style="fill:#1f77b4;"/>
   </g>
   <g id="patch_23">
    <path clip-path="url(#p1f07772bd7)" d="M 94.181082 273.312 
L 95.794889 273.312 
L 95.794889 245.643878 
L 94.181082 245.643878 
z
" style="fill:#1f77b4;"/>
   </g>
   <g id="patch_24">
    <path clip-path="url(#p1f07772bd7)" d="M 95.794889 273.312 
L 97.408697 273.312 
L 97.408697 246.19724 
L 95.794889 246.19724 
z
" style="fill:#1f77b4;"/>
   </g>
   <g id="patch_25">
    <path clip-path="url(#p1f07772bd7)" d="M 97.408697 273.312 
L 99.022504 273.312 
L 99.022504 246.19724 
L 97.408697 246.19724 
z
" style="fill:#1f77b4;"/>
   </g>
   <g id="patch_26">
    <path clip-path="url(#p1f07772bd7)" d="M 99.022504 273.312 
L 100.636311 273.312 
L 100.636311 239.003528 
L 99.022504 239.003528 
z
" style="fill:#1f77b4;"/>
   </g>
   <g id="patch_27">
    <path clip-path="url(#p1f07772bd7)" d="M 100.636311 273.312 
L 102.250118 273.312 
L 102.250118 250.070777 
L 100.636311 250.070777 
z
" style="fill:#1f77b4;"/>
   </g>
   <g id="patch_28">
    <path clip-path="url(#p1f07772bd7)" d="M 102.250118 273.312 
L 103.863925 273.312 
L 103.863925 247.857328 
L 102.250118 247.857328 
z
" style="fill:#1f77b4;"/>
   </g>
   <g id="patch_29">
    <path clip-path="url(#p1f07772bd7)" d="M 103.863925 273.312 
L 105.477732 273.312 
L 105.477732 243.430428 
L 103.863925 243.430428 
z
" style="fill:#1f77b4;"/>
   </g>
   <g id="patch_30">
    <path clip-path="url(#p1f07772bd7)" d="M 105.477732 273.312 
L 107.091539 273.312 
L 107.091539 233.469904 
L 105.477732 233.469904 
z
" style="fill:#1f77b4;"/>
   </g>
   <g id="patch_31">
    <path clip-path="url(#p1f07772bd7)" d="M 107.091539 273.312 
L 108.705346 273.312 
L 108.705346 241.216978 
L 107.091539 241.216978 
z
" style="fill:#1f77b4;"/>
   </g>
   <g id="patch_32">
    <path clip-path="url(#p1f07772bd7)" d="M 108.705346 273.312 
L 110.319153 273.312 
L 110.319153 237.896803 
L 108.705346 237.896803 
z
" style="fill:#1f77b4;"/>
   </g>
   <g id="patch_33">
    <path clip-path="url(#p1f07772bd7)" d="M 110.319153 273.312 
L 111.932961 273.312 
L 111.932961 234.023266 
L 110.319153 234.023266 
z
" style="fill:#1f77b4;"/>
   </g>
   <g id="patch_34">
    <path clip-path="url(#p1f07772bd7)" d="M 111.932961 273.312 
L 113.546768 273.312 
L 113.546768 232.916541 
L 111.932961 232.916541 
z
" style="fill:#1f77b4;"/>
   </g>
   <g id="patch_35">
    <path clip-path="url(#p1f07772bd7)" d="M 113.546768 273.312 
L 115.160575 273.312 
L 115.160575 235.683354 
L 113.546768 235.683354 
z
" style="fill:#1f77b4;"/>
   </g>
   <g id="patch_36">
    <path clip-path="url(#p1f07772bd7)" d="M 115.160575 273.312 
L 116.774382 273.312 
L 116.774382 227.382917 
L 115.160575 227.382917 
z
" style="fill:#1f77b4;"/>
   </g>
   <g id="patch_37">
    <path clip-path="url(#p1f07772bd7)" d="M 116.774382 273.312 
L 118.388189 273.312 
L 118.388189 240.110253 
L 116.774382 240.110253 
z
" style="fill:#1f77b4;"/>
   </g>
   <g id="patch_38">
    <path clip-path="url(#p1f07772bd7)" d="M 118.388189 273.312 
L 120.001996 273.312 
L 120.001996 241.770341 
L 118.388189 241.770341 
z
" style="fill:#1f77b4;"/>
   </g>
   <g id="patch_39">
    <path clip-path="url(#p1f07772bd7)" d="M 120.001996 273.312 
L 121.615803 273.312 
L 121.615803 235.683354 
L 120.001996 235.683354 
z
" style="fill:#1f77b4;"/>
   </g>
   <g id="patch_40">
    <path clip-path="url(#p1f07772bd7)" d="M 121.615803 273.312 
L 123.22961 273.312 
L 123.22961 231.809817 
L 121.615803 231.809817 
z
" style="fill:#1f77b4;"/>
   </g>
   <g id="patch_41">
    <path clip-path="url(#p1f07772bd7)" d="M 123.22961 273.312 
L 124.843417 273.312 
L 124.843417 231.809817 
L 123.22961 231.809817 
z
" style="fill:#1f77b4;"/>
   </g>
   <g id="patch_42">
    <path clip-path="url(#p1f07772bd7)" d="M 124.843417 273.312 
L 126.457225 273.312 
L 126.457225 240.110253 
L 124.843417 240.110253 
z
" style="fill:#1f77b4;"/>
   </g>
   <g id="patch_43">
    <path clip-path="url(#p1f07772bd7)" d="M 126.457225 273.312 
L 128.071032 273.312 
L 128.071032 229.596367 
L 126.457225 229.596367 
z
" style="fill:#1f77b4;"/>
   </g>
   <g id="patch_44">
    <path clip-path="url(#p1f07772bd7)" d="M 128.071032 273.312 
L 129.684839 273.312 
L 129.684839 231.256454 
L 128.071032 231.256454 
z
" style="fill:#1f77b4;"/>
   </g>
   <g id="patch_45">
    <path clip-path="url(#p1f07772bd7)" d="M 129.684839 273.312 
L 131.298646 273.312 
L 131.298646 227.382917 
L 129.684839 227.382917 
z
" style="fill:#1f77b4;"/>
   </g>
   <g id="patch_46">
    <path clip-path="url(#p1f07772bd7)" d="M 131.298646 273.312 
L 132.912453 273.312 
L 132.912453 228.489642 
L 131.298646 228.489642 
z
" style="fill:#1f77b4;"/>
   </g>
   <g id="patch_47">
    <path clip-path="url(#p1f07772bd7)" d="M 132.912453 273.312 
L 134.52626 273.312 
L 134.52626 208.015231 
L 132.912453 208.015231 
z
" style="fill:#1f77b4;"/>
   </g>
   <g id="patch_48">
    <path clip-path="url(#p1f07772bd7)" d="M 134.52626 273.312 
L 136.140067 273.312 
L 136.140067 214.102218 
L 134.52626 214.102218 
z
" style="fill:#1f77b4;"/>
   </g>
   <g id="patch_49">
    <path clip-path="url(#p1f07772bd7)" d="M 136.140067 273.312 
L 137.753874 273.312 
L 137.753874 225.72283 
L 136.140067 225.72283 
z
" style="fill:#1f77b4;"/>
   </g>
   <g id="patch_50">
    <path clip-path="url(#p1f07772bd7)" d="M 137.753874 273.312 
L 139.367681 273.312 
L 139.367681 226.276192 
L 137.753874 226.276192 
z
" style="fill:#1f77b4;"/>
   </g>
   <g id="patch_51">
    <path clip-path="url(#p1f07772bd7)" d="M 139.367681 273.312 
L 140.981489 273.312 
L 140.981489 221.29593 
L 139.367681 221.29593 
z
" style="fill:#1f77b4;"/>
   </g>
   <g id="patch_52">
    <path clip-path="url(#p1f07772bd7)" d="M 140.981489 273.312 
L 142.595296 273.312 
L 142.595296 222.956017 
L 140.981489 222.956017 
z
" style="fill:#1f77b4;"/>
   </g>
   <g id="patch_53">
    <path clip-path="url(#p1f07772bd7)" d="M 142.595296 273.312 
L 144.209103 273.312 
L 144.209103 224.616105 
L 142.595296 224.616105 
z
" style="fill:#1f77b4;"/>
   </g>
   <g id="patch_54">
    <path clip-path="url(#p1f07772bd7)" d="M 144.209103 273.312 
L 145.82291 273.312 
L 145.82291 212.995493 
L 144.209103 212.995493 
z
" style="fill:#1f77b4;"/>
   </g>
   <g id="patch_55">
    <path clip-path="url(#p1f07772bd7)" d="M 145.82291 273.312 
L 147.436717 273.312 
L 147.436717 215.208943 
L 145.82291 215.208943 
z
" style="fill:#1f77b4;"/>
   </g>
   <g id="patch_56">
    <path clip-path="url(#p1f07772bd7)" d="M 147.436717 273.312 
L 149.050524 273.312 
L 149.050524 219.08248 
L 147.436717 219.08248 
z
" style="fill:#1f77b4;"/>
   </g>
   <g id="patch_57">
    <path clip-path="url(#p1f07772bd7)" d="M 149.050524 273.312 
L 150.664331 273.312 
L 150.664331 211.335406 
L 149.050524 211.335406 
z
" style="fill:#1f77b4;"/>
   </g>
   <g id="patch_58">
    <path clip-path="url(#p1f07772bd7)" d="M 150.664331 273.312 
L 152.278138 273.312 
L 152.278138 214.102218 
L 150.664331 214.102218 
z
" style="fill:#1f77b4;"/>
   </g>
   <g id="patch_59">
    <path clip-path="url(#p1f07772bd7)" d="M 152.278138 273.312 
L 153.891946 273.312 
L 153.891946 209.675319 
L 152.278138 209.675319 
z
" style="fill:#1f77b4;"/>
   </g>
   <g id="patch_60">
    <path clip-path="url(#p1f07772bd7)" d="M 153.891946 273.312 
L 155.505753 273.312 
L 155.505753 208.015231 
L 153.891946 208.015231 
z
" style="fill:#1f77b4;"/>
   </g>
   <g id="patch_61">
    <path clip-path="url(#p1f07772bd7)" d="M 155.505753 273.312 
L 157.11956 273.312 
L 157.11956 206.908507 
L 155.505753 206.908507 
z
" style="fill:#1f77b4;"/>
   </g>
   <g id="patch_62">
    <path clip-path="url(#p1f07772bd7)" d="M 157.11956 273.312 
L 158.733367 273.312 
L 158.733367 210.228681 
L 157.11956 210.228681 
z
" style="fill:#1f77b4;"/>
   </g>
   <g id="patch_63">
    <path clip-path="url(#p1f07772bd7)" d="M 158.733367 273.312 
L 160.347174 273.312 
L 160.347174 205.801782 
L 158.733367 205.801782 
z
" style="fill:#1f77b4;"/>
   </g>
   <g id="patch_64">
    <path clip-path="url(#p1f07772bd7)" d="M 160.347174 273.312 
L 161.960981 273.312 
L 161.960981 204.695057 
L 160.347174 204.695057 
z
" style="fill:#1f77b4;"/>
   </g>
   <g id="patch_65">
    <path clip-path="url(#p1f07772bd7)" d="M 161.960981 273.312 
L 163.574788 273.312 
L 163.574788 211.335406 
L 161.960981 211.335406 
z
" style="fill:#1f77b4;"/>
   </g>
   <g id="patch_66">
    <path clip-path="url(#p1f07772bd7)" d="M 163.574788 273.312 
L 165.188595 273.312 
L 165.188595 199.161432 
L 163.574788 199.161432 
z
" style="fill:#1f77b4;"/>
   </g>
   <g id="patch_67">
    <path clip-path="url(#p1f07772bd7)" d="M 165.188595 273.312 
L 166.802402 273.312 
L 166.802402 199.161432 
L 165.188595 199.161432 
z
" style="fill:#1f77b4;"/>
   </g>
   <g id="patch_68">
    <path clip-path="url(#p1f07772bd7)" d="M 166.802402 273.312 
L 168.41621 273.312 
L 168.41621 199.161432 
L 166.802402 199.161432 
z
" style="fill:#1f77b4;"/>
   </g>
   <g id="patch_69">
    <path clip-path="url(#p1f07772bd7)" d="M 168.41621 273.312 
L 170.030017 273.312 
L 170.030017 194.18117 
L 168.41621 194.18117 
z
" style="fill:#1f77b4;"/>
   </g>
   <g id="patch_70">
    <path clip-path="url(#p1f07772bd7)" d="M 170.030017 273.312 
L 171.643824 273.312 
L 171.643824 208.568594 
L 170.030017 208.568594 
z
" style="fill:#1f77b4;"/>
   </g>
   <g id="patch_71">
    <path clip-path="url(#p1f07772bd7)" d="M 171.643824 273.312 
L 173.257631 273.312 
L 173.257631 198.054707 
L 171.643824 198.054707 
z
" style="fill:#1f77b4;"/>
   </g>
   <g id="patch_72">
    <path clip-path="url(#p1f07772bd7)" d="M 173.257631 273.312 
L 174.871438 273.312 
L 174.871438 186.434096 
L 173.257631 186.434096 
z
" style="fill:#1f77b4;"/>
   </g>
   <g id="patch_73">
    <path clip-path="url(#p1f07772bd7)" d="M 174.871438 273.312 
L 176.485245 273.312 
L 176.485245 204.695057 
L 174.871438 204.695057 
z
" style="fill:#1f77b4;"/>
   </g>
   <g id="patch_74">
    <path clip-path="url(#p1f07772bd7)" d="M 176.485245 273.312 
L 178.099052 273.312 
L 178.099052 206.355144 
L 176.485245 206.355144 
z
" style="fill:#1f77b4;"/>
   </g>
   <g id="patch_75">
    <path clip-path="url(#p1f07772bd7)" d="M 178.099052 273.312 
L 179.712859 273.312 
L 179.712859 198.054707 
L 178.099052 198.054707 
z
" style="fill:#1f77b4;"/>
   </g>
   <g id="patch_76">
    <path clip-path="url(#p1f07772bd7)" d="M 179.712859 273.312 
L 181.326666 273.312 
L 181.326666 192.521083 
L 179.712859 192.521083 
z
" style="fill:#1f77b4;"/>
   </g>
   <g id="patch_77">
    <path clip-path="url(#p1f07772bd7)" d="M 181.326666 273.312 
L 182.940474 273.312 
L 182.940474 191.967721 
L 181.326666 191.967721 
z
" style="fill:#1f77b4;"/>
   </g>
   <g id="patch_78">
    <path clip-path="url(#p1f07772bd7)" d="M 182.940474 273.312 
L 184.554281 273.312 
L 184.554281 200.82152 
L 182.940474 200.82152 
z
" style="fill:#1f77b4;"/>
   </g>
   <g id="patch_79">
    <path clip-path="url(#p1f07772bd7)" d="M 184.554281 273.312 
L 186.168088 273.312 
L 186.168088 190.860996 
L 184.554281 190.860996 
z
" style="fill:#1f77b4;"/>
   </g>
   <g id="patch_80">
    <path clip-path="url(#p1f07772bd7)" d="M 186.168088 273.312 
L 187.781895 273.312 
L 187.781895 175.92021 
L 186.168088 175.92021 
z
" style="fill:#1f77b4;"/>
   </g>
   <g id="patch_81">
    <path clip-path="url(#p1f07772bd7)" d="M 187.781895 273.312 
L 189.395702 273.312 
L 189.395702 188.094183 
L 187.781895 188.094183 
z
" style="fill:#1f77b4;"/>
   </g>
   <g id="patch_82">
    <path clip-path="url(#p1f07772bd7)" d="M 189.395702 273.312 
L 191.009509 273.312 
L 191.009509 184.220646 
L 189.395702 184.220646 
z
" style="fill:#1f77b4;"/>
   </g>
   <g id="patch_83">
    <path clip-path="url(#p1f07772bd7)" d="M 191.009509 273.312 
L 192.623316 273.312 
L 192.623316 197.501345 
L 191.009509 197.501345 
z
" style="fill:#1f77b4;"/>
   </g>
   <g id="patch_84">
    <path clip-path="url(#p1f07772bd7)" d="M 192.623316 273.312 
L 194.237123 273.312 
L 194.237123 174.813485 
L 192.623316 174.813485 
z
" style="fill:#1f77b4;"/>
   </g>
   <g id="patch_85">
    <path clip-path="url(#p1f07772bd7)" d="M 194.237123 273.312 
L 195.85093 273.312 
L 195.85093 174.813485 
L 194.237123 174.813485 
z
" style="fill:#1f77b4;"/>
   </g>
   <g id="patch_86">
    <path clip-path="url(#p1f07772bd7)" d="M 195.85093 273.312 
L 197.464738 273.312 
L 197.464738 177.580297 
L 195.85093 177.580297 
z
" style="fill:#1f77b4;"/>
   </g>
   <g id="patch_87">
    <path clip-path="url(#p1f07772bd7)" d="M 197.464738 273.312 
L 199.078545 273.312 
L 199.078545 173.70676 
L 197.464738 173.70676 
z
" style="fill:#1f77b4;"/>
   </g>
   <g id="patch_88">
    <path clip-path="url(#p1f07772bd7)" d="M 199.078545 273.312 
L 200.692352 273.312 
L 200.692352 186.434096 
L 199.078545 186.434096 
z
" style="fill:#1f77b4;"/>
   </g>
   <g id="patch_89">
    <path clip-path="url(#p1f07772bd7)" d="M 200.692352 273.312 
L 202.306159 273.312 
L 202.306159 165.959686 
L 200.692352 165.959686 
z
" style="fill:#1f77b4;"/>
   </g>
   <g id="patch_90">
    <path clip-path="url(#p1f07772bd7)" d="M 202.306159 273.312 
L 203.919966 273.312 
L 203.919966 170.939948 
L 202.306159 170.939948 
z
" style="fill:#1f77b4;"/>
   </g>
   <g id="patch_91">
    <path clip-path="url(#p1f07772bd7)" d="M 203.919966 273.312 
L 205.533773 273.312 
L 205.533773 179.240384 
L 203.919966 179.240384 
z
" style="fill:#1f77b4;"/>
   </g>
   <g id="patch_92">
    <path clip-path="url(#p1f07772bd7)" d="M 205.533773 273.312 
L 207.14758 273.312 
L 207.14758 169.833223 
L 205.533773 169.833223 
z
" style="fill:#1f77b4;"/>
   </g>
   <g id="patch_93">
    <path clip-path="url(#p1f07772bd7)" d="M 207.14758 273.312 
L 208.761387 273.312 
L 208.761387 169.833223 
L 207.14758 169.833223 
z
" style="fill:#1f77b4;"/>
   </g>
   <g id="patch_94">
    <path clip-path="url(#p1f07772bd7)" d="M 208.761387 273.312 
L 210.375194 273.312 
L 210.375194 167.619773 
L 208.761387 167.619773 
z
" style="fill:#1f77b4;"/>
   </g>
   <g id="patch_95">
    <path clip-path="url(#p1f07772bd7)" d="M 210.375194 273.312 
L 211.989002 273.312 
L 211.989002 178.687022 
L 210.375194 178.687022 
z
" style="fill:#1f77b4;"/>
   </g>
   <g id="patch_96">
    <path clip-path="url(#p1f07772bd7)" d="M 211.989002 273.312 
L 213.602809 273.312 
L 213.602809 164.852961 
L 211.989002 164.852961 
z
" style="fill:#1f77b4;"/>
   </g>
   <g id="patch_97">
    <path clip-path="url(#p1f07772bd7)" d="M 213.602809 273.312 
L 215.216616 273.312 
L 215.216616 168.726498 
L 213.602809 168.726498 
z
" style="fill:#1f77b4;"/>
   </g>
   <g id="patch_98">
    <path clip-path="url(#p1f07772bd7)" d="M 215.216616 273.312 
L 216.830423 273.312 
L 216.830423 162.086148 
L 215.216616 162.086148 
z
" style="fill:#1f77b4;"/>
   </g>
   <g id="patch_99">
    <path clip-path="url(#p1f07772bd7)" d="M 216.830423 273.312 
L 218.44423 273.312 
L 218.44423 158.765974 
L 216.830423 158.765974 
z
" style="fill:#1f77b4;"/>
   </g>
   <g id="patch_100">
    <path clip-path="url(#p1f07772bd7)" d="M 218.44423 273.312 
L 220.058037 273.312 
L 220.058037 162.086148 
L 218.44423 162.086148 
z
" style="fill:#1f77b4;"/>
   </g>
   <g id="patch_101">
    <path clip-path="url(#p1f07772bd7)" d="M 220.058037 273.312 
L 221.671844 273.312 
L 221.671844 161.532786 
L 220.058037 161.532786 
z
" style="fill:#1f77b4;"/>
   </g>
   <g id="patch_102">
    <path clip-path="url(#p1f07772bd7)" d="M 221.671844 273.312 
L 223.285651 273.312 
L 223.285651 161.532786 
L 221.671844 161.532786 
z
" style="fill:#1f77b4;"/>
   </g>
   <g id="patch_103">
    <path clip-path="url(#p1f07772bd7)" d="M 223.285651 273.312 
L 224.899459 273.312 
L 224.899459 164.299598 
L 223.285651 164.299598 
z
" style="fill:#1f77b4;"/>
   </g>
   <g id="patch_104">
    <path clip-path="url(#p1f07772bd7)" d="M 224.899459 273.312 
L 226.513266 273.312 
L 226.513266 151.0189 
L 224.899459 151.0189 
z
" style="fill:#1f77b4;"/>
   </g>
   <g id="patch_105">
    <path clip-path="url(#p1f07772bd7)" d="M 226.513266 273.312 
L 228.127073 273.312 
L 228.127073 159.319336 
L 226.513266 159.319336 
z
" style="fill:#1f77b4;"/>
   </g>
   <g id="patch_106">
    <path clip-path="url(#p1f07772bd7)" d="M 228.127073 273.312 
L 229.74088 273.312 
L 229.74088 174.260122 
L 228.127073 174.260122 
z
" style="fill:#1f77b4;"/>
   </g>
   <g id="patch_107">
    <path clip-path="url(#p1f07772bd7)" d="M 229.74088 273.312 
L 231.354687 273.312 
L 231.354687 165.406323 
L 229.74088 165.406323 
z
" style="fill:#1f77b4;"/>
   </g>
   <g id="patch_108">
    <path clip-path="url(#p1f07772bd7)" d="M 231.354687 273.312 
L 232.968494 273.312 
L 232.968494 157.659249 
L 231.354687 157.659249 
z
" style="fill:#1f77b4;"/>
   </g>
   <g id="patch_109">
    <path clip-path="url(#p1f07772bd7)" d="M 232.968494 273.312 
L 234.582301 273.312 
L 234.582301 167.06641 
L 232.968494 167.06641 
z
" style="fill:#1f77b4;"/>
   </g>
   <g id="patch_110">
    <path clip-path="url(#p1f07772bd7)" d="M 234.582301 273.312 
L 236.196108 273.312 
L 236.196108 152.125624 
L 234.582301 152.125624 
z
" style="fill:#1f77b4;"/>
   </g>
   <g id="patch_111">
    <path clip-path="url(#p1f07772bd7)" d="M 236.196108 273.312 
L 237.809915 273.312 
L 237.809915 159.872699 
L 236.196108 159.872699 
z
" style="fill:#1f77b4;"/>
   </g>
   <g id="patch_112">
    <path clip-path="url(#p1f07772bd7)" d="M 237.809915 273.312 
L 239.423723 273.312 
L 239.423723 147.145362 
L 237.809915 147.145362 
z
" style="fill:#1f77b4;"/>
   </g>
   <g id="patch_113">
    <path clip-path="url(#p1f07772bd7)" d="M 239.423723 273.312 
L 241.03753 273.312 
L 241.03753 156.552524 
L 239.423723 156.552524 
z
" style="fill:#1f77b4;"/>
   </g>
   <g id="patch_114">
    <path clip-path="url(#p1f07772bd7)" d="M 241.03753 273.312 
L 242.651337 273.312 
L 242.651337 146.038638 
L 241.03753 146.038638 
z
" style="fill:#1f77b4;"/>
   </g>
   <g id="patch_115">
    <path clip-path="url(#p1f07772bd7)" d="M 242.651337 273.312 
L 244.265144 273.312 
L 244.265144 141.611738 
L 242.651337 141.611738 
z
" style="fill:#1f77b4;"/>
   </g>
   <g id="patch_116">
    <path clip-path="url(#p1f07772bd7)" d="M 244.265144 273.312 
L 245.878951 273.312 
L 245.878951 148.80545 
L 244.265144 148.80545 
z
" style="fill:#1f77b4;"/>
   </g>
   <g id="patch_117">
    <path clip-path="url(#p1f07772bd7)" d="M 245.878951 273.312 
L 247.492758 273.312 
L 247.492758 128.331039 
L 245.878951 128.331039 
z
" style="fill:#1f77b4;"/>
   </g>
   <g id="patch_118">
    <path clip-path="url(#p1f07772bd7)" d="M 247.492758 273.312 
L 249.106565 273.312 
L 249.106565 143.271825 
L 247.492758 143.271825 
z
" style="fill:#1f77b4;"/>
   </g>
   <g id="patch_119">
    <path clip-path="url(#p1f07772bd7)" d="M 249.106565 273.312 
L 250.720372 273.312 
L 250.720372 153.785712 
L 249.106565 153.785712 
z
" style="fill:#1f77b4;"/>
   </g>
   <g id="patch_120">
    <path clip-path="url(#p1f07772bd7)" d="M 250.720372 273.312 
L 252.334179 273.312 
L 252.334179 149.912175 
L 250.720372 149.912175 
z
" style="fill:#1f77b4;"/>
   </g>
   <g id="patch_121">
    <path clip-path="url(#p1f07772bd7)" d="M 252.334179 273.312 
L 253.947987 273.312 
L 253.947987 131.651214 
L 252.334179 131.651214 
z
" style="fill:#1f77b4;"/>
   </g>
   <g id="patch_122">
    <path clip-path="url(#p1f07772bd7)" d="M 253.947987 273.312 
L 255.561794 273.312 
L 255.561794 144.37855 
L 253.947987 144.37855 
z
" style="fill:#1f77b4;"/>
   </g>
   <g id="patch_123">
    <path clip-path="url(#p1f07772bd7)" d="M 255.561794 273.312 
L 257.175601 273.312 
L 257.175601 148.80545 
L 255.561794 148.80545 
z
" style="fill:#1f77b4;"/>
   </g>
   <g id="patch_124">
    <path clip-path="url(#p1f07772bd7)" d="M 257.175601 273.312 
L 258.789408 273.312 
L 258.789408 144.931913 
L 257.175601 144.931913 
z
" style="fill:#1f77b4;"/>
   </g>
   <g id="patch_125">
    <path clip-path="url(#p1f07772bd7)" d="M 258.789408 273.312 
L 260.403215 273.312 
L 260.403215 135.524751 
L 258.789408 135.524751 
z
" style="fill:#1f77b4;"/>
   </g>
   <g id="patch_126">
    <path clip-path="url(#p1f07772bd7)" d="M 260.403215 273.312 
L 262.017022 273.312 
L 262.017022 147.698725 
L 260.403215 147.698725 
z
" style="fill:#1f77b4;"/>
   </g>
   <g id="patch_127">
    <path clip-path="url(#p1f07772bd7)" d="M 262.017022 273.312 
L 263.630829 273.312 
L 263.630829 123.90414 
L 262.017022 123.90414 
z
" style="fill:#1f77b4;"/>
   </g>
   <g id="patch_128">
    <path clip-path="url(#p1f07772bd7)" d="M 263.630829 273.312 
L 265.244636 273.312 
L 265.244636 142.718463 
L 263.630829 142.718463 
z
" style="fill:#1f77b4;"/>
   </g>
   <g id="patch_129">
    <path clip-path="url(#p1f07772bd7)" d="M 265.244636 273.312 
L 266.858443 273.312 
L 266.858443 137.738201 
L 265.244636 137.738201 
z
" style="fill:#1f77b4;"/>
   </g>
   <g id="patch_130">
    <path clip-path="url(#p1f07772bd7)" d="M 266.858443 273.312 
L 268.472251 273.312 
L 268.472251 135.524751 
L 266.858443 135.524751 
z
" style="fill:#1f77b4;"/>
   </g>
   <g id="patch_131">
    <path clip-path="url(#p1f07772bd7)" d="M 268.472251 273.312 
L 270.086058 273.312 
L 270.086058 154.892437 
L 268.472251 154.892437 
z
" style="fill:#1f77b4;"/>
   </g>
   <g id="patch_132">
    <path clip-path="url(#p1f07772bd7)" d="M 270.086058 273.312 
L 271.699865 273.312 
L 271.699865 128.331039 
L 270.086058 128.331039 
z
" style="fill:#1f77b4;"/>
   </g>
   <g id="patch_133">
    <path clip-path="url(#p1f07772bd7)" d="M 271.699865 273.312 
L 273.313672 273.312 
L 273.313672 131.097852 
L 271.699865 131.097852 
z
" style="fill:#1f77b4;"/>
   </g>
   <g id="patch_134">
    <path clip-path="url(#p1f07772bd7)" d="M 273.313672 273.312 
L 274.927479 273.312 
L 274.927479 131.651214 
L 273.313672 131.651214 
z
" style="fill:#1f77b4;"/>
   </g>
   <g id="patch_135">
    <path clip-path="url(#p1f07772bd7)" d="M 274.927479 273.312 
L 276.541286 273.312 
L 276.541286 119.47724 
L 274.927479 119.47724 
z
" style="fill:#1f77b4;"/>
   </g>
   <g id="patch_136">
    <path clip-path="url(#p1f07772bd7)" d="M 276.541286 273.312 
L 278.155093 273.312 
L 278.155093 124.457502 
L 276.541286 124.457502 
z
" style="fill:#1f77b4;"/>
   </g>
   <g id="patch_137">
    <path clip-path="url(#p1f07772bd7)" d="M 278.155093 273.312 
L 279.7689 273.312 
L 279.7689 126.11759 
L 278.155093 126.11759 
z
" style="fill:#1f77b4;"/>
   </g>
   <g id="patch_138">
    <path clip-path="url(#p1f07772bd7)" d="M 279.7689 273.312 
L 281.382707 273.312 
L 281.382707 97.896105 
L 279.7689 97.896105 
z
" style="fill:#1f77b4;"/>
   </g>
   <g id="patch_139">
    <path clip-path="url(#p1f07772bd7)" d="M 281.382707 273.312 
L 282.996515 273.312 
L 282.996515 128.884402 
L 281.382707 128.884402 
z
" style="fill:#1f77b4;"/>
   </g>
   <g id="patch_140">
    <path clip-path="url(#p1f07772bd7)" d="M 282.996515 273.312 
L 284.610322 273.312 
L 284.610322 118.370515 
L 282.996515 118.370515 
z
" style="fill:#1f77b4;"/>
   </g>
   <g id="patch_141">
    <path clip-path="url(#p1f07772bd7)" d="M 284.610322 273.312 
L 286.224129 273.312 
L 286.224129 111.176803 
L 284.610322 111.176803 
z
" style="fill:#1f77b4;"/>
   </g>
   <g id="patch_142">
    <path clip-path="url(#p1f07772bd7)" d="M 286.224129 273.312 
L 287.837936 273.312 
L 287.837936 117.26379 
L 286.224129 117.26379 
z
" style="fill:#1f77b4;"/>
   </g>
   <g id="patch_143">
    <path clip-path="url(#p1f07772bd7)" d="M 287.837936 273.312 
L 289.451743 273.312 
L 289.451743 117.817153 
L 287.837936 117.817153 
z
" style="fill:#1f77b4;"/>
   </g>
   <g id="patch_144">
    <path clip-path="url(#p1f07772bd7)" d="M 289.451743 273.312 
L 291.06555 273.312 
L 291.06555 105.643179 
L 289.451743 105.643179 
z
" style="fill:#1f77b4;"/>
   </g>
   <g id="patch_145">
    <path clip-path="url(#p1f07772bd7)" d="M 291.06555 273.312 
L 292.679357 273.312 
L 292.679357 138.291563 
L 291.06555 138.291563 
z
" style="fill:#1f77b4;"/>
   </g>
   <g id="patch_146">
    <path clip-path="url(#p1f07772bd7)" d="M 292.679357 273.312 
L 294.293164 273.312 
L 294.293164 113.390253 
L 292.679357 113.390253 
z
" style="fill:#1f77b4;"/>
   </g>
   <g id="patch_147">
    <path clip-path="url(#p1f07772bd7)" d="M 294.293164 273.312 
L 295.906972 273.312 
L 295.906972 114.496978 
L 294.293164 114.496978 
z
" style="fill:#1f77b4;"/>
   </g>
   <g id="patch_148">
    <path clip-path="url(#p1f07772bd7)" d="M 295.906972 273.312 
L 297.520779 273.312 
L 297.520779 116.710428 
L 295.906972 116.710428 
z
" style="fill:#1f77b4;"/>
   </g>
   <g id="patch_149">
    <path clip-path="url(#p1f07772bd7)" d="M 297.520779 273.312 
L 299.134586 273.312 
L 299.134586 111.730166 
L 297.520779 111.730166 
z
" style="fill:#1f77b4;"/>
   </g>
   <g id="patch_150">
    <path clip-path="url(#p1f07772bd7)" d="M 299.134586 273.312 
L 300.748393 273.312 
L 300.748393 108.963354 
L 299.134586 108.963354 
z
" style="fill:#1f77b4;"/>
   </g>
   <g id="patch_151">
    <path clip-path="url(#p1f07772bd7)" d="M 300.748393 273.312 
L 302.3622 273.312 
L 302.3622 108.963354 
L 300.748393 108.963354 
z
" style="fill:#1f77b4;"/>
   </g>
   <g id="patch_152">
    <path clip-path="url(#p1f07772bd7)" d="M 302.3622 273.312 
L 303.976007 273.312 
L 303.976007 106.749904 
L 302.3622 106.749904 
z
" style="fill:#1f77b4;"/>
   </g>
   <g id="patch_153">
    <path clip-path="url(#p1f07772bd7)" d="M 303.976007 273.312 
L 305.589814 273.312 
L 305.589814 117.26379 
L 303.976007 117.26379 
z
" style="fill:#1f77b4;"/>
   </g>
   <g id="patch_154">
    <path clip-path="url(#p1f07772bd7)" d="M 305.589814 273.312 
L 307.203621 273.312 
L 307.203621 125.564227 
L 305.589814 125.564227 
z
" style="fill:#1f77b4;"/>
   </g>
   <g id="patch_155">
    <path clip-path="url(#p1f07772bd7)" d="M 307.203621 273.312 
L 308.817428 273.312 
L 308.817428 103.983092 
L 307.203621 103.983092 
z
" style="fill:#1f77b4;"/>
   </g>
   <g id="patch_156">
    <path clip-path="url(#p1f07772bd7)" d="M 308.817428 273.312 
L 310.431236 273.312 
L 310.431236 110.623441 
L 308.817428 110.623441 
z
" style="fill:#1f77b4;"/>
   </g>
   <g id="patch_157">
    <path clip-path="url(#p1f07772bd7)" d="M 310.431236 273.312 
L 312.045043 273.312 
L 312.045043 116.710428 
L 310.431236 116.710428 
z
" style="fill:#1f77b4;"/>
   </g>
   <g id="patch_158">
    <path clip-path="url(#p1f07772bd7)" d="M 312.045043 273.312 
L 313.65885 273.312 
L 313.65885 123.350777 
L 312.045043 123.350777 
z
" style="fill:#1f77b4;"/>
   </g>
   <g id="patch_159">
    <path clip-path="url(#p1f07772bd7)" d="M 313.65885 273.312 
L 315.272657 273.312 
L 315.272657 93.469205 
L 313.65885 93.469205 
z
" style="fill:#1f77b4;"/>
   </g>
   <g id="patch_160">
    <path clip-path="url(#p1f07772bd7)" d="M 315.272657 273.312 
L 316.886464 273.312 
L 316.886464 111.176803 
L 315.272657 111.176803 
z
" style="fill:#1f77b4;"/>
   </g>
   <g id="patch_161">
    <path clip-path="url(#p1f07772bd7)" d="M 316.886464 273.312 
L 318.500271 273.312 
L 318.500271 102.876367 
L 316.886464 102.876367 
z
" style="fill:#1f77b4;"/>
   </g>
   <g id="patch_162">
    <path clip-path="url(#p1f07772bd7)" d="M 318.500271 273.312 
L 320.114078 273.312 
L 320.114078 83.508681 
L 318.500271 83.508681 
z
" style="fill:#1f77b4;"/>
   </g>
   <g id="patch_163">
    <path clip-path="url(#p1f07772bd7)" d="M 320.114078 273.312 
L 321.727885 273.312 
L 321.727885 116.157066 
L 320.114078 116.157066 
z
" style="fill:#1f77b4;"/>
   </g>
   <g id="patch_164">
    <path clip-path="url(#p1f07772bd7)" d="M 321.727885 273.312 
L 323.341692 273.312 
L 323.341692 94.022568 
L 321.727885 94.022568 
z
" style="fill:#1f77b4;"/>
   </g>
   <g id="patch_165">
    <path clip-path="url(#p1f07772bd7)" d="M 323.341692 273.312 
L 324.9555 273.312 
L 324.9555 69.121258 
L 323.341692 69.121258 
z
" style="fill:#1f77b4;"/>
   </g>
   <g id="patch_166">
    <path clip-path="url(#p1f07772bd7)" d="M 324.9555 273.312 
L 326.569307 273.312 
L 326.569307 80.741869 
L 324.9555 80.741869 
z
" style="fill:#1f77b4;"/>
   </g>
   <g id="patch_167">
    <path clip-path="url(#p1f07772bd7)" d="M 326.569307 273.312 
L 328.183114 273.312 
L 328.183114 93.469205 
L 326.569307 93.469205 
z
" style="fill:#1f77b4;"/>
   </g>
   <g id="patch_168">
    <path clip-path="url(#p1f07772bd7)" d="M 328.183114 273.312 
L 329.796921 273.312 
L 329.796921 71.334707 
L 328.183114 71.334707 
z
" style="fill:#1f77b4;"/>
   </g>
   <g id="patch_169">
    <path clip-path="url(#p1f07772bd7)" d="M 329.796921 273.312 
L 331.410728 273.312 
L 331.410728 90.149031 
L 329.796921 90.149031 
z
" style="fill:#1f77b4;"/>
   </g>
   <g id="patch_170">
    <path clip-path="url(#p1f07772bd7)" d="M 331.410728 273.312 
L 333.024535 273.312 
L 333.024535 81.295231 
L 331.410728 81.295231 
z
" style="fill:#1f77b4;"/>
   </g>
   <g id="patch_171">
    <path clip-path="url(#p1f07772bd7)" d="M 333.024535 273.312 
L 334.638342 273.312 
L 334.638342 84.062044 
L 333.024535 84.062044 
z
" style="fill:#1f77b4;"/>
   </g>
   <g id="patch_172">
    <path clip-path="url(#p1f07772bd7)" d="M 334.638342 273.312 
L 336.252149 273.312 
L 336.252149 95.129293 
L 334.638342 95.129293 
z
" style="fill:#1f77b4;"/>
   </g>
   <g id="patch_173">
    <path clip-path="url(#p1f07772bd7)" d="M 336.252149 273.312 
L 337.865956 273.312 
L 337.865956 94.57593 
L 336.252149 94.57593 
z
" style="fill:#1f77b4;"/>
   </g>
   <g id="patch_174">
    <path clip-path="url(#p1f07772bd7)" d="M 337.865956 273.312 
L 339.479764 273.312 
L 339.479764 78.528419 
L 337.865956 78.528419 
z
" style="fill:#1f77b4;"/>
   </g>
   <g id="patch_175">
    <path clip-path="url(#p1f07772bd7)" d="M 339.479764 273.312 
L 341.093571 273.312 
L 341.093571 81.295231 
L 339.479764 81.295231 
z
" style="fill:#1f77b4;"/>
   </g>
   <g id="patch_176">
    <path clip-path="url(#p1f07772bd7)" d="M 341.093571 273.312 
L 342.707378 273.312 
L 342.707378 89.595668 
L 341.093571 89.595668 
z
" style="fill:#1f77b4;"/>
   </g>
   <g id="patch_177">
    <path clip-path="url(#p1f07772bd7)" d="M 342.707378 273.312 
L 344.321185 273.312 
L 344.321185 71.88807 
L 342.707378 71.88807 
z
" style="fill:#1f77b4;"/>
   </g>
   <g id="patch_178">
    <path clip-path="url(#p1f07772bd7)" d="M 344.321185 273.312 
L 345.934992 273.312 
L 345.934992 86.275493 
L 344.321185 86.275493 
z
" style="fill:#1f77b4;"/>
   </g>
   <g id="patch_179">
    <path clip-path="url(#p1f07772bd7)" d="M 345.934992 273.312 
L 347.548799 273.312 
L 347.548799 55.840559 
L 345.934992 55.840559 
z
" style="fill:#1f77b4;"/>
   </g>
   <g id="patch_180">
    <path clip-path="url(#p1f07772bd7)" d="M 347.548799 273.312 
L 349.162606 273.312 
L 349.162606 95.682655 
L 347.548799 95.682655 
z
" style="fill:#1f77b4;"/>
   </g>
   <g id="patch_181">
    <path clip-path="url(#p1f07772bd7)" d="M 349.162606 273.312 
L 350.776413 273.312 
L 350.776413 66.354445 
L 349.162606 66.354445 
z
" style="fill:#1f77b4;"/>
   </g>
   <g id="patch_182">
    <path clip-path="url(#p1f07772bd7)" d="M 350.776413 273.312 
L 352.39022 273.312 
L 352.39022 67.46117 
L 350.776413 67.46117 
z
" style="fill:#1f77b4;"/>
   </g>
   <g id="patch_183">
    <path clip-path="url(#p1f07772bd7)" d="M 352.39022 273.312 
L 354.004028 273.312 
L 354.004028 69.121258 
L 352.39022 69.121258 
z
" style="fill:#1f77b4;"/>
   </g>
   <g id="patch_184">
    <path clip-path="url(#p1f07772bd7)" d="M 354.004028 273.312 
L 355.617835 273.312 
L 355.617835 70.227983 
L 354.004028 70.227983 
z
" style="fill:#1f77b4;"/>
   </g>
   <g id="patch_185">
    <path clip-path="url(#p1f07772bd7)" d="M 355.617835 273.312 
L 357.231642 273.312 
L 357.231642 95.682655 
L 355.617835 95.682655 
z
" style="fill:#1f77b4;"/>
   </g>
   <g id="patch_186">
    <path clip-path="url(#p1f07772bd7)" d="M 357.231642 273.312 
L 358.845449 273.312 
L 358.845449 58.607371 
L 357.231642 58.607371 
z
" style="fill:#1f77b4;"/>
   </g>
   <g id="patch_187">
    <path clip-path="url(#p1f07772bd7)" d="M 358.845449 273.312 
L 360.459256 273.312 
L 360.459256 74.654882 
L 358.845449 74.654882 
z
" style="fill:#1f77b4;"/>
   </g>
   <g id="patch_188">
    <path clip-path="url(#p1f07772bd7)" d="M 360.459256 273.312 
L 362.073063 273.312 
L 362.073063 76.314969 
L 360.459256 76.314969 
z
" style="fill:#1f77b4;"/>
   </g>
   <g id="patch_189">
    <path clip-path="url(#p1f07772bd7)" d="M 362.073063 273.312 
L 363.68687 273.312 
L 363.68687 76.314969 
L 362.073063 76.314969 
z
" style="fill:#1f77b4;"/>
   </g>
   <g id="patch_190">
    <path clip-path="url(#p1f07772bd7)" d="M 363.68687 273.312 
L 365.300677 273.312 
L 365.300677 79.635144 
L 363.68687 79.635144 
z
" style="fill:#1f77b4;"/>
   </g>
   <g id="patch_191">
    <path clip-path="url(#p1f07772bd7)" d="M 365.300677 273.312 
L 366.914485 273.312 
L 366.914485 76.868332 
L 365.300677 76.868332 
z
" style="fill:#1f77b4;"/>
   </g>
   <g id="patch_192">
    <path clip-path="url(#p1f07772bd7)" d="M 366.914485 273.312 
L 368.528292 273.312 
L 368.528292 61.927546 
L 366.914485 61.927546 
z
" style="fill:#1f77b4;"/>
   </g>
   <g id="patch_193">
    <path clip-path="url(#p1f07772bd7)" d="M 368.528292 273.312 
L 370.142099 273.312 
L 370.142099 63.587633 
L 368.528292 63.587633 
z
" style="fill:#1f77b4;"/>
   </g>
   <g id="patch_194">
    <path clip-path="url(#p1f07772bd7)" d="M 370.142099 273.312 
L 371.755906 273.312 
L 371.755906 63.034271 
L 370.142099 63.034271 
z
" style="fill:#1f77b4;"/>
   </g>
   <g id="patch_195">
    <path clip-path="url(#p1f07772bd7)" d="M 371.755906 273.312 
L 373.369713 273.312 
L 373.369713 56.947284 
L 371.755906 56.947284 
z
" style="fill:#1f77b4;"/>
   </g>
   <g id="patch_196">
    <path clip-path="url(#p1f07772bd7)" d="M 373.369713 273.312 
L 374.98352 273.312 
L 374.98352 60.267459 
L 373.369713 60.267459 
z
" style="fill:#1f77b4;"/>
   </g>
   <g id="patch_197">
    <path clip-path="url(#p1f07772bd7)" d="M 374.98352 273.312 
L 376.597327 273.312 
L 376.597327 19.872 
L 374.98352 19.872 
z
" style="fill:#1f77b4;"/>
   </g>
   <g id="patch_198">
    <path clip-path="url(#p1f07772bd7)" d="M 376.597327 273.312 
L 378.211134 273.312 
L 378.211134 50.860297 
L 376.597327 50.860297 
z
" style="fill:#1f77b4;"/>
   </g>
   <g id="patch_199">
    <path clip-path="url(#p1f07772bd7)" d="M 378.211134 273.312 
L 379.824941 273.312 
L 379.824941 48.646847 
L 378.211134 48.646847 
z
" style="fill:#1f77b4;"/>
   </g>
   <g id="patch_200">
    <path clip-path="url(#p1f07772bd7)" d="M 379.824941 273.312 
L 381.438749 273.312 
L 381.438749 62.480908 
L 379.824941 62.480908 
z
" style="fill:#1f77b4;"/>
   </g>
   <g id="patch_201">
    <path clip-path="url(#p1f07772bd7)" d="M 381.438749 273.312 
L 383.052556 273.312 
L 383.052556 23.745537 
L 381.438749 23.745537 
z
" style="fill:#1f77b4;"/>
   </g>
   <g id="patch_202">
    <path clip-path="url(#p1f07772bd7)" d="M 383.052556 273.312 
L 384.666363 273.312 
L 384.666363 45.880035 
L 383.052556 45.880035 
z
" style="fill:#1f77b4;"/>
   </g>
   <g id="matplotlib.axis_1">
    <g id="xtick_1">
     <g id="line2d_1">
      <defs>
       <path d="M 0 0 
L 0 3.5 
" id="m19826bcba5" style="stroke:#000000;stroke-width:0.8;"/>
      </defs>
      <g>
       <use style="stroke:#000000;stroke-width:0.8;" x="60.013977" xlink:href="#m19826bcba5" y="273.312"/>
      </g>
     </g>
     <g id="text_1">
      <!-- 0.0 -->
      <g transform="translate(52.062415 287.910437)scale(0.1 -0.1)">
       <defs>
        <path d="M 2034 4250 
Q 1547 4250 1301 3770 
Q 1056 3291 1056 2328 
Q 1056 1369 1301 889 
Q 1547 409 2034 409 
Q 2525 409 2770 889 
Q 3016 1369 3016 2328 
Q 3016 3291 2770 3770 
Q 2525 4250 2034 4250 
z
M 2034 4750 
Q 2819 4750 3233 4129 
Q 3647 3509 3647 2328 
Q 3647 1150 3233 529 
Q 2819 -91 2034 -91 
Q 1250 -91 836 529 
Q 422 1150 422 2328 
Q 422 3509 836 4129 
Q 1250 4750 2034 4750 
z
" id="DejaVuSans-30" transform="scale(0.015625)"/>
        <path d="M 684 794 
L 1344 794 
L 1344 0 
L 684 0 
L 684 794 
z
" id="DejaVuSans-2e" transform="scale(0.015625)"/>
       </defs>
       <use xlink:href="#DejaVuSans-30"/>
       <use x="63.623047" xlink:href="#DejaVuSans-2e"/>
       <use x="95.410156" xlink:href="#DejaVuSans-30"/>
      </g>
     </g>
    </g>
    <g id="xtick_2">
     <g id="line2d_2">
      <g>
       <use style="stroke:#000000;stroke-width:0.8;" x="124.944886" xlink:href="#m19826bcba5" y="273.312"/>
      </g>
     </g>
     <g id="text_2">
      <!-- 0.2 -->
      <g transform="translate(116.993324 287.910437)scale(0.1 -0.1)">
       <defs>
        <path d="M 1228 531 
L 3431 531 
L 3431 0 
L 469 0 
L 469 531 
Q 828 903 1448 1529 
Q 2069 2156 2228 2338 
Q 2531 2678 2651 2914 
Q 2772 3150 2772 3378 
Q 2772 3750 2511 3984 
Q 2250 4219 1831 4219 
Q 1534 4219 1204 4116 
Q 875 4013 500 3803 
L 500 4441 
Q 881 4594 1212 4672 
Q 1544 4750 1819 4750 
Q 2544 4750 2975 4387 
Q 3406 4025 3406 3419 
Q 3406 3131 3298 2873 
Q 3191 2616 2906 2266 
Q 2828 2175 2409 1742 
Q 1991 1309 1228 531 
z
" id="DejaVuSans-32" transform="scale(0.015625)"/>
       </defs>
       <use xlink:href="#DejaVuSans-30"/>
       <use x="63.623047" xlink:href="#DejaVuSans-2e"/>
       <use x="95.410156" xlink:href="#DejaVuSans-32"/>
      </g>
     </g>
    </g>
    <g id="xtick_3">
     <g id="line2d_3">
      <g>
       <use style="stroke:#000000;stroke-width:0.8;" x="189.875795" xlink:href="#m19826bcba5" y="273.312"/>
      </g>
     </g>
     <g id="text_3">
      <!-- 0.4 -->
      <g transform="translate(181.924233 287.910437)scale(0.1 -0.1)">
       <defs>
        <path d="M 2419 4116 
L 825 1625 
L 2419 1625 
L 2419 4116 
z
M 2253 4666 
L 3047 4666 
L 3047 1625 
L 3713 1625 
L 3713 1100 
L 3047 1100 
L 3047 0 
L 2419 0 
L 2419 1100 
L 313 1100 
L 313 1709 
L 2253 4666 
z
" id="DejaVuSans-34" transform="scale(0.015625)"/>
       </defs>
       <use xlink:href="#DejaVuSans-30"/>
       <use x="63.623047" xlink:href="#DejaVuSans-2e"/>
       <use x="95.410156" xlink:href="#DejaVuSans-34"/>
      </g>
     </g>
    </g>
    <g id="xtick_4">
     <g id="line2d_4">
      <g>
       <use style="stroke:#000000;stroke-width:0.8;" x="254.806705" xlink:href="#m19826bcba5" y="273.312"/>
      </g>
     </g>
     <g id="text_4">
      <!-- 0.6 -->
      <g transform="translate(246.855142 287.910437)scale(0.1 -0.1)">
       <defs>
        <path d="M 2113 2584 
Q 1688 2584 1439 2293 
Q 1191 2003 1191 1497 
Q 1191 994 1439 701 
Q 1688 409 2113 409 
Q 2538 409 2786 701 
Q 3034 994 3034 1497 
Q 3034 2003 2786 2293 
Q 2538 2584 2113 2584 
z
M 3366 4563 
L 3366 3988 
Q 3128 4100 2886 4159 
Q 2644 4219 2406 4219 
Q 1781 4219 1451 3797 
Q 1122 3375 1075 2522 
Q 1259 2794 1537 2939 
Q 1816 3084 2150 3084 
Q 2853 3084 3261 2657 
Q 3669 2231 3669 1497 
Q 3669 778 3244 343 
Q 2819 -91 2113 -91 
Q 1303 -91 875 529 
Q 447 1150 447 2328 
Q 447 3434 972 4092 
Q 1497 4750 2381 4750 
Q 2619 4750 2861 4703 
Q 3103 4656 3366 4563 
z
" id="DejaVuSans-36" transform="scale(0.015625)"/>
       </defs>
       <use xlink:href="#DejaVuSans-30"/>
       <use x="63.623047" xlink:href="#DejaVuSans-2e"/>
       <use x="95.410156" xlink:href="#DejaVuSans-36"/>
      </g>
     </g>
    </g>
    <g id="xtick_5">
     <g id="line2d_5">
      <g>
       <use style="stroke:#000000;stroke-width:0.8;" x="319.737614" xlink:href="#m19826bcba5" y="273.312"/>
      </g>
     </g>
     <g id="text_5">
      <!-- 0.8 -->
      <g transform="translate(311.786051 287.910437)scale(0.1 -0.1)">
       <defs>
        <path d="M 2034 2216 
Q 1584 2216 1326 1975 
Q 1069 1734 1069 1313 
Q 1069 891 1326 650 
Q 1584 409 2034 409 
Q 2484 409 2743 651 
Q 3003 894 3003 1313 
Q 3003 1734 2745 1975 
Q 2488 2216 2034 2216 
z
M 1403 2484 
Q 997 2584 770 2862 
Q 544 3141 544 3541 
Q 544 4100 942 4425 
Q 1341 4750 2034 4750 
Q 2731 4750 3128 4425 
Q 3525 4100 3525 3541 
Q 3525 3141 3298 2862 
Q 3072 2584 2669 2484 
Q 3125 2378 3379 2068 
Q 3634 1759 3634 1313 
Q 3634 634 3220 271 
Q 2806 -91 2034 -91 
Q 1263 -91 848 271 
Q 434 634 434 1313 
Q 434 1759 690 2068 
Q 947 2378 1403 2484 
z
M 1172 3481 
Q 1172 3119 1398 2916 
Q 1625 2713 2034 2713 
Q 2441 2713 2670 2916 
Q 2900 3119 2900 3481 
Q 2900 3844 2670 4047 
Q 2441 4250 2034 4250 
Q 1625 4250 1398 4047 
Q 1172 3844 1172 3481 
z
" id="DejaVuSans-38" transform="scale(0.015625)"/>
       </defs>
       <use xlink:href="#DejaVuSans-30"/>
       <use x="63.623047" xlink:href="#DejaVuSans-2e"/>
       <use x="95.410156" xlink:href="#DejaVuSans-38"/>
      </g>
     </g>
    </g>
    <g id="xtick_6">
     <g id="line2d_6">
      <g>
       <use style="stroke:#000000;stroke-width:0.8;" x="384.668523" xlink:href="#m19826bcba5" y="273.312"/>
      </g>
     </g>
     <g id="text_6">
      <!-- 1.0 -->
      <g transform="translate(376.71696 287.910437)scale(0.1 -0.1)">
       <defs>
        <path d="M 794 531 
L 1825 531 
L 1825 4091 
L 703 3866 
L 703 4441 
L 1819 4666 
L 2450 4666 
L 2450 531 
L 3481 531 
L 3481 0 
L 794 0 
L 794 531 
z
" id="DejaVuSans-31" transform="scale(0.015625)"/>
       </defs>
       <use xlink:href="#DejaVuSans-31"/>
       <use x="63.623047" xlink:href="#DejaVuSans-2e"/>
       <use x="95.410156" xlink:href="#DejaVuSans-30"/>
      </g>
     </g>
    </g>
    <g id="text_7">
     <!-- Propagation direction -->
     <g transform="translate(168.859219 301.588562)scale(0.1 -0.1)">
      <defs>
       <path d="M 1259 4147 
L 1259 2394 
L 2053 2394 
Q 2494 2394 2734 2622 
Q 2975 2850 2975 3272 
Q 2975 3691 2734 3919 
Q 2494 4147 2053 4147 
L 1259 4147 
z
M 628 4666 
L 2053 4666 
Q 2838 4666 3239 4311 
Q 3641 3956 3641 3272 
Q 3641 2581 3239 2228 
Q 2838 1875 2053 1875 
L 1259 1875 
L 1259 0 
L 628 0 
L 628 4666 
z
" id="DejaVuSans-50" transform="scale(0.015625)"/>
       <path d="M 2631 2963 
Q 2534 3019 2420 3045 
Q 2306 3072 2169 3072 
Q 1681 3072 1420 2755 
Q 1159 2438 1159 1844 
L 1159 0 
L 581 0 
L 581 3500 
L 1159 3500 
L 1159 2956 
Q 1341 3275 1631 3429 
Q 1922 3584 2338 3584 
Q 2397 3584 2469 3576 
Q 2541 3569 2628 3553 
L 2631 2963 
z
" id="DejaVuSans-72" transform="scale(0.015625)"/>
       <path d="M 1959 3097 
Q 1497 3097 1228 2736 
Q 959 2375 959 1747 
Q 959 1119 1226 758 
Q 1494 397 1959 397 
Q 2419 397 2687 759 
Q 2956 1122 2956 1747 
Q 2956 2369 2687 2733 
Q 2419 3097 1959 3097 
z
M 1959 3584 
Q 2709 3584 3137 3096 
Q 3566 2609 3566 1747 
Q 3566 888 3137 398 
Q 2709 -91 1959 -91 
Q 1206 -91 779 398 
Q 353 888 353 1747 
Q 353 2609 779 3096 
Q 1206 3584 1959 3584 
z
" id="DejaVuSans-6f" transform="scale(0.015625)"/>
       <path d="M 1159 525 
L 1159 -1331 
L 581 -1331 
L 581 3500 
L 1159 3500 
L 1159 2969 
Q 1341 3281 1617 3432 
Q 1894 3584 2278 3584 
Q 2916 3584 3314 3078 
Q 3713 2572 3713 1747 
Q 3713 922 3314 415 
Q 2916 -91 2278 -91 
Q 1894 -91 1617 61 
Q 1341 213 1159 525 
z
M 3116 1747 
Q 3116 2381 2855 2742 
Q 2594 3103 2138 3103 
Q 1681 3103 1420 2742 
Q 1159 2381 1159 1747 
Q 1159 1113 1420 752 
Q 1681 391 2138 391 
Q 2594 391 2855 752 
Q 3116 1113 3116 1747 
z
" id="DejaVuSans-70" transform="scale(0.015625)"/>
       <path d="M 2194 1759 
Q 1497 1759 1228 1600 
Q 959 1441 959 1056 
Q 959 750 1161 570 
Q 1363 391 1709 391 
Q 2188 391 2477 730 
Q 2766 1069 2766 1631 
L 2766 1759 
L 2194 1759 
z
M 3341 1997 
L 3341 0 
L 2766 0 
L 2766 531 
Q 2569 213 2275 61 
Q 1981 -91 1556 -91 
Q 1019 -91 701 211 
Q 384 513 384 1019 
Q 384 1609 779 1909 
Q 1175 2209 1959 2209 
L 2766 2209 
L 2766 2266 
Q 2766 2663 2505 2880 
Q 2244 3097 1772 3097 
Q 1472 3097 1187 3025 
Q 903 2953 641 2809 
L 641 3341 
Q 956 3463 1253 3523 
Q 1550 3584 1831 3584 
Q 2591 3584 2966 3190 
Q 3341 2797 3341 1997 
z
" id="DejaVuSans-61" transform="scale(0.015625)"/>
       <path d="M 2906 1791 
Q 2906 2416 2648 2759 
Q 2391 3103 1925 3103 
Q 1463 3103 1205 2759 
Q 947 2416 947 1791 
Q 947 1169 1205 825 
Q 1463 481 1925 481 
Q 2391 481 2648 825 
Q 2906 1169 2906 1791 
z
M 3481 434 
Q 3481 -459 3084 -895 
Q 2688 -1331 1869 -1331 
Q 1566 -1331 1297 -1286 
Q 1028 -1241 775 -1147 
L 775 -588 
Q 1028 -725 1275 -790 
Q 1522 -856 1778 -856 
Q 2344 -856 2625 -561 
Q 2906 -266 2906 331 
L 2906 616 
Q 2728 306 2450 153 
Q 2172 0 1784 0 
Q 1141 0 747 490 
Q 353 981 353 1791 
Q 353 2603 747 3093 
Q 1141 3584 1784 3584 
Q 2172 3584 2450 3431 
Q 2728 3278 2906 2969 
L 2906 3500 
L 3481 3500 
L 3481 434 
z
" id="DejaVuSans-67" transform="scale(0.015625)"/>
       <path d="M 1172 4494 
L 1172 3500 
L 2356 3500 
L 2356 3053 
L 1172 3053 
L 1172 1153 
Q 1172 725 1289 603 
Q 1406 481 1766 481 
L 2356 481 
L 2356 0 
L 1766 0 
Q 1100 0 847 248 
Q 594 497 594 1153 
L 594 3053 
L 172 3053 
L 172 3500 
L 594 3500 
L 594 4494 
L 1172 4494 
z
" id="DejaVuSans-74" transform="scale(0.015625)"/>
       <path d="M 603 3500 
L 1178 3500 
L 1178 0 
L 603 0 
L 603 3500 
z
M 603 4863 
L 1178 4863 
L 1178 4134 
L 603 4134 
L 603 4863 
z
" id="DejaVuSans-69" transform="scale(0.015625)"/>
       <path d="M 3513 2113 
L 3513 0 
L 2938 0 
L 2938 2094 
Q 2938 2591 2744 2837 
Q 2550 3084 2163 3084 
Q 1697 3084 1428 2787 
Q 1159 2491 1159 1978 
L 1159 0 
L 581 0 
L 581 3500 
L 1159 3500 
L 1159 2956 
Q 1366 3272 1645 3428 
Q 1925 3584 2291 3584 
Q 2894 3584 3203 3211 
Q 3513 2838 3513 2113 
z
" id="DejaVuSans-6e" transform="scale(0.015625)"/>
       <path id="DejaVuSans-20" transform="scale(0.015625)"/>
       <path d="M 2906 2969 
L 2906 4863 
L 3481 4863 
L 3481 0 
L 2906 0 
L 2906 525 
Q 2725 213 2448 61 
Q 2172 -91 1784 -91 
Q 1150 -91 751 415 
Q 353 922 353 1747 
Q 353 2572 751 3078 
Q 1150 3584 1784 3584 
Q 2172 3584 2448 3432 
Q 2725 3281 2906 2969 
z
M 947 1747 
Q 947 1113 1208 752 
Q 1469 391 1925 391 
Q 2381 391 2643 752 
Q 2906 1113 2906 1747 
Q 2906 2381 2643 2742 
Q 2381 3103 1925 3103 
Q 1469 3103 1208 2742 
Q 947 2381 947 1747 
z
" id="DejaVuSans-64" transform="scale(0.015625)"/>
       <path d="M 3597 1894 
L 3597 1613 
L 953 1613 
Q 991 1019 1311 708 
Q 1631 397 2203 397 
Q 2534 397 2845 478 
Q 3156 559 3463 722 
L 3463 178 
Q 3153 47 2828 -22 
Q 2503 -91 2169 -91 
Q 1331 -91 842 396 
Q 353 884 353 1716 
Q 353 2575 817 3079 
Q 1281 3584 2069 3584 
Q 2775 3584 3186 3129 
Q 3597 2675 3597 1894 
z
M 3022 2063 
Q 3016 2534 2758 2815 
Q 2500 3097 2075 3097 
Q 1594 3097 1305 2825 
Q 1016 2553 972 2059 
L 3022 2063 
z
" id="DejaVuSans-65" transform="scale(0.015625)"/>
       <path d="M 3122 3366 
L 3122 2828 
Q 2878 2963 2633 3030 
Q 2388 3097 2138 3097 
Q 1578 3097 1268 2742 
Q 959 2388 959 1747 
Q 959 1106 1268 751 
Q 1578 397 2138 397 
Q 2388 397 2633 464 
Q 2878 531 3122 666 
L 3122 134 
Q 2881 22 2623 -34 
Q 2366 -91 2075 -91 
Q 1284 -91 818 406 
Q 353 903 353 1747 
Q 353 2603 823 3093 
Q 1294 3584 2113 3584 
Q 2378 3584 2631 3529 
Q 2884 3475 3122 3366 
z
" id="DejaVuSans-63" transform="scale(0.015625)"/>
      </defs>
      <use xlink:href="#DejaVuSans-50"/>
      <use x="58.552734" xlink:href="#DejaVuSans-72"/>
      <use x="97.416016" xlink:href="#DejaVuSans-6f"/>
      <use x="158.597656" xlink:href="#DejaVuSans-70"/>
      <use x="222.074219" xlink:href="#DejaVuSans-61"/>
      <use x="283.353516" xlink:href="#DejaVuSans-67"/>
      <use x="346.830078" xlink:href="#DejaVuSans-61"/>
      <use x="408.109375" xlink:href="#DejaVuSans-74"/>
      <use x="447.318359" xlink:href="#DejaVuSans-69"/>
      <use x="475.101562" xlink:href="#DejaVuSans-6f"/>
      <use x="536.283203" xlink:href="#DejaVuSans-6e"/>
      <use x="599.662109" xlink:href="#DejaVuSans-20"/>
      <use x="631.449219" xlink:href="#DejaVuSans-64"/>
      <use x="694.925781" xlink:href="#DejaVuSans-69"/>
      <use x="722.708984" xlink:href="#DejaVuSans-72"/>
      <use x="761.572266" xlink:href="#DejaVuSans-65"/>
      <use x="823.095703" xlink:href="#DejaVuSans-63"/>
      <use x="878.076172" xlink:href="#DejaVuSans-74"/>
      <use x="917.285156" xlink:href="#DejaVuSans-69"/>
      <use x="945.068359" xlink:href="#DejaVuSans-6f"/>
      <use x="1006.25" xlink:href="#DejaVuSans-6e"/>
     </g>
    </g>
   </g>
   <g id="matplotlib.axis_2">
    <g id="ytick_1">
     <g id="line2d_7">
      <defs>
       <path d="M 0 0 
L -3.5 0 
" id="m3874937e75" style="stroke:#000000;stroke-width:0.8;"/>
      </defs>
      <g>
       <use style="stroke:#000000;stroke-width:0.8;" x="43.78125" xlink:href="#m3874937e75" y="273.312"/>
      </g>
     </g>
     <g id="text_8">
      <!-- 0.0 -->
      <g transform="translate(20.878125 277.111219)scale(0.1 -0.1)">
       <use xlink:href="#DejaVuSans-30"/>
       <use x="63.623047" xlink:href="#DejaVuSans-2e"/>
       <use x="95.410156" xlink:href="#DejaVuSans-30"/>
      </g>
     </g>
    </g>
    <g id="ytick_2">
     <g id="line2d_8">
      <g>
       <use style="stroke:#000000;stroke-width:0.8;" x="43.78125" xlink:href="#m3874937e75" y="218.298432"/>
      </g>
     </g>
     <g id="text_9">
      <!-- 0.5 -->
      <g transform="translate(20.878125 222.09765)scale(0.1 -0.1)">
       <defs>
        <path d="M 691 4666 
L 3169 4666 
L 3169 4134 
L 1269 4134 
L 1269 2991 
Q 1406 3038 1543 3061 
Q 1681 3084 1819 3084 
Q 2600 3084 3056 2656 
Q 3513 2228 3513 1497 
Q 3513 744 3044 326 
Q 2575 -91 1722 -91 
Q 1428 -91 1123 -41 
Q 819 9 494 109 
L 494 744 
Q 775 591 1075 516 
Q 1375 441 1709 441 
Q 2250 441 2565 725 
Q 2881 1009 2881 1497 
Q 2881 1984 2565 2268 
Q 2250 2553 1709 2553 
Q 1456 2553 1204 2497 
Q 953 2441 691 2322 
L 691 4666 
z
" id="DejaVuSans-35" transform="scale(0.015625)"/>
       </defs>
       <use xlink:href="#DejaVuSans-30"/>
       <use x="63.623047" xlink:href="#DejaVuSans-2e"/>
       <use x="95.410156" xlink:href="#DejaVuSans-35"/>
      </g>
     </g>
    </g>
    <g id="ytick_3">
     <g id="line2d_9">
      <g>
       <use style="stroke:#000000;stroke-width:0.8;" x="43.78125" xlink:href="#m3874937e75" y="163.284863"/>
      </g>
     </g>
     <g id="text_10">
      <!-- 1.0 -->
      <g transform="translate(20.878125 167.084082)scale(0.1 -0.1)">
       <use xlink:href="#DejaVuSans-31"/>
       <use x="63.623047" xlink:href="#DejaVuSans-2e"/>
       <use x="95.410156" xlink:href="#DejaVuSans-30"/>
      </g>
     </g>
    </g>
    <g id="ytick_4">
     <g id="line2d_10">
      <g>
       <use style="stroke:#000000;stroke-width:0.8;" x="43.78125" xlink:href="#m3874937e75" y="108.271295"/>
      </g>
     </g>
     <g id="text_11">
      <!-- 1.5 -->
      <g transform="translate(20.878125 112.070514)scale(0.1 -0.1)">
       <use xlink:href="#DejaVuSans-31"/>
       <use x="63.623047" xlink:href="#DejaVuSans-2e"/>
       <use x="95.410156" xlink:href="#DejaVuSans-35"/>
      </g>
     </g>
    </g>
    <g id="ytick_5">
     <g id="line2d_11">
      <g>
       <use style="stroke:#000000;stroke-width:0.8;" x="43.78125" xlink:href="#m3874937e75" y="53.257727"/>
      </g>
     </g>
     <g id="text_12">
      <!-- 2.0 -->
      <g transform="translate(20.878125 57.056945)scale(0.1 -0.1)">
       <use xlink:href="#DejaVuSans-32"/>
       <use x="63.623047" xlink:href="#DejaVuSans-2e"/>
       <use x="95.410156" xlink:href="#DejaVuSans-30"/>
      </g>
     </g>
    </g>
    <g id="text_13">
     <!-- Probability density -->
     <g transform="translate(14.798438 186.606781)rotate(-90)scale(0.1 -0.1)">
      <defs>
       <path d="M 3116 1747 
Q 3116 2381 2855 2742 
Q 2594 3103 2138 3103 
Q 1681 3103 1420 2742 
Q 1159 2381 1159 1747 
Q 1159 1113 1420 752 
Q 1681 391 2138 391 
Q 2594 391 2855 752 
Q 3116 1113 3116 1747 
z
M 1159 2969 
Q 1341 3281 1617 3432 
Q 1894 3584 2278 3584 
Q 2916 3584 3314 3078 
Q 3713 2572 3713 1747 
Q 3713 922 3314 415 
Q 2916 -91 2278 -91 
Q 1894 -91 1617 61 
Q 1341 213 1159 525 
L 1159 0 
L 581 0 
L 581 4863 
L 1159 4863 
L 1159 2969 
z
" id="DejaVuSans-62" transform="scale(0.015625)"/>
       <path d="M 603 4863 
L 1178 4863 
L 1178 0 
L 603 0 
L 603 4863 
z
" id="DejaVuSans-6c" transform="scale(0.015625)"/>
       <path d="M 2059 -325 
Q 1816 -950 1584 -1140 
Q 1353 -1331 966 -1331 
L 506 -1331 
L 506 -850 
L 844 -850 
Q 1081 -850 1212 -737 
Q 1344 -625 1503 -206 
L 1606 56 
L 191 3500 
L 800 3500 
L 1894 763 
L 2988 3500 
L 3597 3500 
L 2059 -325 
z
" id="DejaVuSans-79" transform="scale(0.015625)"/>
       <path d="M 2834 3397 
L 2834 2853 
Q 2591 2978 2328 3040 
Q 2066 3103 1784 3103 
Q 1356 3103 1142 2972 
Q 928 2841 928 2578 
Q 928 2378 1081 2264 
Q 1234 2150 1697 2047 
L 1894 2003 
Q 2506 1872 2764 1633 
Q 3022 1394 3022 966 
Q 3022 478 2636 193 
Q 2250 -91 1575 -91 
Q 1294 -91 989 -36 
Q 684 19 347 128 
L 347 722 
Q 666 556 975 473 
Q 1284 391 1588 391 
Q 1994 391 2212 530 
Q 2431 669 2431 922 
Q 2431 1156 2273 1281 
Q 2116 1406 1581 1522 
L 1381 1569 
Q 847 1681 609 1914 
Q 372 2147 372 2553 
Q 372 3047 722 3315 
Q 1072 3584 1716 3584 
Q 2034 3584 2315 3537 
Q 2597 3491 2834 3397 
z
" id="DejaVuSans-73" transform="scale(0.015625)"/>
      </defs>
      <use xlink:href="#DejaVuSans-50"/>
      <use x="58.552734" xlink:href="#DejaVuSans-72"/>
      <use x="97.416016" xlink:href="#DejaVuSans-6f"/>
      <use x="158.597656" xlink:href="#DejaVuSans-62"/>
      <use x="222.074219" xlink:href="#DejaVuSans-61"/>
      <use x="283.353516" xlink:href="#DejaVuSans-62"/>
      <use x="346.830078" xlink:href="#DejaVuSans-69"/>
      <use x="374.613281" xlink:href="#DejaVuSans-6c"/>
      <use x="402.396484" xlink:href="#DejaVuSans-69"/>
      <use x="430.179688" xlink:href="#DejaVuSans-74"/>
      <use x="469.388672" xlink:href="#DejaVuSans-79"/>
      <use x="528.568359" xlink:href="#DejaVuSans-20"/>
      <use x="560.355469" xlink:href="#DejaVuSans-64"/>
      <use x="623.832031" xlink:href="#DejaVuSans-65"/>
      <use x="685.355469" xlink:href="#DejaVuSans-6e"/>
      <use x="748.734375" xlink:href="#DejaVuSans-73"/>
      <use x="800.833984" xlink:href="#DejaVuSans-69"/>
      <use x="828.617188" xlink:href="#DejaVuSans-74"/>
      <use x="867.826172" xlink:href="#DejaVuSans-79"/>
     </g>
    </g>
   </g>
   <g id="line2d_12">
    <path clip-path="url(#p1f07772bd7)" d="M 60.013977 273.312 
L 384.668523 53.257727 
L 384.668523 53.257727 
" style="fill:none;stroke:#ff7f0e;stroke-linecap:square;stroke-width:1.5;"/>
   </g>
   <g id="patch_203">
    <path d="M 43.78125 273.312 
L 43.78125 7.2 
" style="fill:none;stroke:#000000;stroke-linecap:square;stroke-linejoin:miter;stroke-width:0.8;"/>
   </g>
   <g id="patch_204">
    <path d="M 400.90125 273.312 
L 400.90125 7.2 
" style="fill:none;stroke:#000000;stroke-linecap:square;stroke-linejoin:miter;stroke-width:0.8;"/>
   </g>
   <g id="patch_205">
    <path d="M 43.78125 273.312 
L 400.90125 273.312 
" style="fill:none;stroke:#000000;stroke-linecap:square;stroke-linejoin:miter;stroke-width:0.8;"/>
   </g>
   <g id="patch_206">
    <path d="M 43.78125 7.2 
L 400.90125 7.2 
" style="fill:none;stroke:#000000;stroke-linecap:square;stroke-linejoin:miter;stroke-width:0.8;"/>
   </g>
  </g>
 </g>
 <defs>
  <clipPath id="p1f07772bd7">
   <rect height="266.112" width="357.12" x="43.78125" y="7.2"/>
  </clipPath>
 </defs>
</svg>
