<?xml version="1.0" encoding="utf-8" standalone="no"?>
<!DOCTYPE svg PUBLIC "-//W3C//DTD SVG 1.1//EN"
  "http://www.w3.org/Graphics/SVG/1.1/DTD/svg11.dtd">
<svg height="310.86825pt" version="1.1" viewBox="0 0 408.10125 310.86825" width="408.10125pt" xmlns="http://www.w3.org/2000/svg" xmlns:xlink="http://www.w3.org/1999/xlink">
 <metadata>
  <rdf:RDF xmlns:cc="http://creativecommons.org/ns#" xmlns:dc="http://purl.org/dc/elements/1.1/" xmlns:rdf="http://www.w3.org/1999/02/22-rdf-syntax-ns#">
   <cc:Work>
    <dc:type rdf:resource="http://purl.org/dc/dcmitype/StillImage"/>
    <dc:date>2021-07-08T08:52:19.944347</dc:date>
    <dc:format>image/svg+xml</dc:format>
    <dc:creator>
     <cc:Agent>
      <dc:title>Matplotlib v3.4.2, https://matplotlib.org/</dc:title>
     </cc:Agent>
    </dc:creator>
   </cc:Work>
  </rdf:RDF>
 </metadata>
 <defs>
  <style type="text/css">*{stroke-linecap:butt;stroke-linejoin:round;}</style>
 </defs>
 <g id="figure_1">
  <g id="patch_1">
   <path d="M 0 310.86825 
L 408.10125 310.86825 
L 408.10125 0 
L 0 0 
z
" style="fill:#ffffff;"/>
  </g>
  <g id="axes_1">
   <g id="patch_2">
    <path d="M 43.78125 273.312 
L 400.90125 273.312 
L 400.90125 7.2 
L 43.78125 7.2 
z
" style="fill:#ffffff;"/>
   </g>
   <g id="patch_3">
    <path clip-path="url(#p925765f2d9)" d="M 61.460455 273.312 
L 63.073072 273.312 
L 63.073072 270.347789 
L 61.460455 270.347789 
z
" style="fill:#1f77b4;"/>
   </g>
   <g id="patch_4">
    <path clip-path="url(#p925765f2d9)" d="M 63.073072 273.312 
L 64.685689 273.312 
L 64.685689 261.455158 
L 63.073072 261.455158 
z
" style="fill:#1f77b4;"/>
   </g>
   <g id="patch_5">
    <path clip-path="url(#p925765f2d9)" d="M 64.685689 273.312 
L 66.298306 273.312 
L 66.298306 265.901474 
L 64.685689 265.901474 
z
" style="fill:#1f77b4;"/>
   </g>
   <g id="patch_6">
    <path clip-path="url(#p925765f2d9)" d="M 66.298306 273.312 
L 67.910923 273.312 
L 67.910923 254.785684 
L 66.298306 254.785684 
z
" style="fill:#1f77b4;"/>
   </g>
   <g id="patch_7">
    <path clip-path="url(#p925765f2d9)" d="M 67.910923 273.312 
L 69.52354 273.312 
L 69.52354 258.490947 
L 67.910923 258.490947 
z
" style="fill:#1f77b4;"/>
   </g>
   <g id="patch_8">
    <path clip-path="url(#p925765f2d9)" d="M 69.52354 273.312 
L 71.136157 273.312 
L 71.136157 255.526737 
L 69.52354 255.526737 
z
" style="fill:#1f77b4;"/>
   </g>
   <g id="patch_9">
    <path clip-path="url(#p925765f2d9)" d="M 71.136157 273.312 
L 72.748774 273.312 
L 72.748774 258.490947 
L 71.136157 258.490947 
z
" style="fill:#1f77b4;"/>
   </g>
   <g id="patch_10">
    <path clip-path="url(#p925765f2d9)" d="M 72.748774 273.312 
L 74.361391 273.312 
L 74.361391 246.634105 
L 72.748774 246.634105 
z
" style="fill:#1f77b4;"/>
   </g>
   <g id="patch_11">
    <path clip-path="url(#p925765f2d9)" d="M 74.361391 273.312 
L 75.974007 273.312 
L 75.974007 243.669895 
L 74.361391 243.669895 
z
" style="fill:#1f77b4;"/>
   </g>
   <g id="patch_12">
    <path clip-path="url(#p925765f2d9)" d="M 75.974007 273.312 
L 77.586624 273.312 
L 77.586624 250.339368 
L 75.974007 250.339368 
z
" style="fill:#1f77b4;"/>
   </g>
   <g id="patch_13">
    <path clip-path="url(#p925765f2d9)" d="M 77.586624 273.312 
L 79.199241 273.312 
L 79.199241 222.920421 
L 77.586624 222.920421 
z
" style="fill:#1f77b4;"/>
   </g>
   <g id="patch_14">
    <path clip-path="url(#p925765f2d9)" d="M 79.199241 273.312 
L 80.811858 273.312 
L 80.811858 232.554105 
L 79.199241 232.554105 
z
" style="fill:#1f77b4;"/>
   </g>
   <g id="patch_15">
    <path clip-path="url(#p925765f2d9)" d="M 80.811858 273.312 
L 82.424475 273.312 
L 82.424475 225.884632 
L 80.811858 225.884632 
z
" style="fill:#1f77b4;"/>
   </g>
   <g id="patch_16">
    <path clip-path="url(#p925765f2d9)" d="M 82.424475 273.312 
L 84.037092 273.312 
L 84.037092 221.438316 
L 82.424475 221.438316 
z
" style="fill:#1f77b4;"/>
   </g>
   <g id="patch_17">
    <path clip-path="url(#p925765f2d9)" d="M 84.037092 273.312 
L 85.649709 273.312 
L 85.649709 223.661474 
L 84.037092 223.661474 
z
" style="fill:#1f77b4;"/>
   </g>
   <g id="patch_18">
    <path clip-path="url(#p925765f2d9)" d="M 85.649709 273.312 
L 87.262326 273.312 
L 87.262326 206.617263 
L 85.649709 206.617263 
z
" style="fill:#1f77b4;"/>
   </g>
   <g id="patch_19">
    <path clip-path="url(#p925765f2d9)" d="M 87.262326 273.312 
L 88.874943 273.312 
L 88.874943 208.840421 
L 87.262326 208.840421 
z
" style="fill:#1f77b4;"/>
   </g>
   <g id="patch_20">
    <path clip-path="url(#p925765f2d9)" d="M 88.874943 273.312 
L 90.48756 273.312 
L 90.48756 196.983579 
L 88.874943 196.983579 
z
" style="fill:#1f77b4;"/>
   </g>
   <g id="patch_21">
    <path clip-path="url(#p925765f2d9)" d="M 90.48756 273.312 
L 92.100177 273.312 
L 92.100177 196.983579 
L 90.48756 196.983579 
z
" style="fill:#1f77b4;"/>
   </g>
   <g id="patch_22">
    <path clip-path="url(#p925765f2d9)" d="M 92.100177 273.312 
L 93.712794 273.312 
L 93.712794 190.314105 
L 92.100177 190.314105 
z
" style="fill:#1f77b4;"/>
   </g>
   <g id="patch_23">
    <path clip-path="url(#p925765f2d9)" d="M 93.712794 273.312 
L 95.325411 273.312 
L 95.325411 194.760421 
L 93.712794 194.760421 
z
" style="fill:#1f77b4;"/>
   </g>
   <g id="patch_24">
    <path clip-path="url(#p925765f2d9)" d="M 95.325411 273.312 
L 96.938028 273.312 
L 96.938028 191.796211 
L 95.325411 191.796211 
z
" style="fill:#1f77b4;"/>
   </g>
   <g id="patch_25">
    <path clip-path="url(#p925765f2d9)" d="M 96.938028 273.312 
L 98.550645 273.312 
L 98.550645 197.724632 
L 96.938028 197.724632 
z
" style="fill:#1f77b4;"/>
   </g>
   <g id="patch_26">
    <path clip-path="url(#p925765f2d9)" d="M 98.550645 273.312 
L 100.163262 273.312 
L 100.163262 195.501474 
L 98.550645 195.501474 
z
" style="fill:#1f77b4;"/>
   </g>
   <g id="patch_27">
    <path clip-path="url(#p925765f2d9)" d="M 100.163262 273.312 
L 101.775879 273.312 
L 101.775879 175.493053 
L 100.163262 175.493053 
z
" style="fill:#1f77b4;"/>
   </g>
   <g id="patch_28">
    <path clip-path="url(#p925765f2d9)" d="M 101.775879 273.312 
L 103.388496 273.312 
L 103.388496 179.939368 
L 101.775879 179.939368 
z
" style="fill:#1f77b4;"/>
   </g>
   <g id="patch_29">
    <path clip-path="url(#p925765f2d9)" d="M 103.388496 273.312 
L 105.001113 273.312 
L 105.001113 177.716211 
L 103.388496 177.716211 
z
" style="fill:#1f77b4;"/>
   </g>
   <g id="patch_30">
    <path clip-path="url(#p925765f2d9)" d="M 105.001113 273.312 
L 106.61373 273.312 
L 106.61373 172.528842 
L 105.001113 172.528842 
z
" style="fill:#1f77b4;"/>
   </g>
   <g id="patch_31">
    <path clip-path="url(#p925765f2d9)" d="M 106.61373 273.312 
L 108.226347 273.312 
L 108.226347 172.528842 
L 106.61373 172.528842 
z
" style="fill:#1f77b4;"/>
   </g>
   <g id="patch_32">
    <path clip-path="url(#p925765f2d9)" d="M 108.226347 273.312 
L 109.838964 273.312 
L 109.838964 166.600421 
L 108.226347 166.600421 
z
" style="fill:#1f77b4;"/>
   </g>
   <g id="patch_33">
    <path clip-path="url(#p925765f2d9)" d="M 109.838964 273.312 
L 111.451581 273.312 
L 111.451581 174.010947 
L 109.838964 174.010947 
z
" style="fill:#1f77b4;"/>
   </g>
   <g id="patch_34">
    <path clip-path="url(#p925765f2d9)" d="M 111.451581 273.312 
L 113.064198 273.312 
L 113.064198 156.966737 
L 111.451581 156.966737 
z
" style="fill:#1f77b4;"/>
   </g>
   <g id="patch_35">
    <path clip-path="url(#p925765f2d9)" d="M 113.064198 273.312 
L 114.676815 273.312 
L 114.676815 174.752 
L 113.064198 174.752 
z
" style="fill:#1f77b4;"/>
   </g>
   <g id="patch_36">
    <path clip-path="url(#p925765f2d9)" d="M 114.676815 273.312 
L 116.289432 273.312 
L 116.289432 143.627789 
L 114.676815 143.627789 
z
" style="fill:#1f77b4;"/>
   </g>
   <g id="patch_37">
    <path clip-path="url(#p925765f2d9)" d="M 116.289432 273.312 
L 117.902049 273.312 
L 117.902049 160.672 
L 116.289432 160.672 
z
" style="fill:#1f77b4;"/>
   </g>
   <g id="patch_38">
    <path clip-path="url(#p925765f2d9)" d="M 117.902049 273.312 
L 119.514666 273.312 
L 119.514666 165.859368 
L 117.902049 165.859368 
z
" style="fill:#1f77b4;"/>
   </g>
   <g id="patch_39">
    <path clip-path="url(#p925765f2d9)" d="M 119.514666 273.312 
L 121.127283 273.312 
L 121.127283 137.699368 
L 119.514666 137.699368 
z
" style="fill:#1f77b4;"/>
   </g>
   <g id="patch_40">
    <path clip-path="url(#p925765f2d9)" d="M 121.127283 273.312 
L 122.7399 273.312 
L 122.7399 146.592 
L 121.127283 146.592 
z
" style="fill:#1f77b4;"/>
   </g>
   <g id="patch_41">
    <path clip-path="url(#p925765f2d9)" d="M 122.7399 273.312 
L 124.352517 273.312 
L 124.352517 116.208842 
L 122.7399 116.208842 
z
" style="fill:#1f77b4;"/>
   </g>
   <g id="patch_42">
    <path clip-path="url(#p925765f2d9)" d="M 124.352517 273.312 
L 125.965133 273.312 
L 125.965133 136.958316 
L 124.352517 136.958316 
z
" style="fill:#1f77b4;"/>
   </g>
   <g id="patch_43">
    <path clip-path="url(#p925765f2d9)" d="M 125.965133 273.312 
L 127.57775 273.312 
L 127.57775 141.404632 
L 125.965133 141.404632 
z
" style="fill:#1f77b4;"/>
   </g>
   <g id="patch_44">
    <path clip-path="url(#p925765f2d9)" d="M 127.57775 273.312 
L 129.190367 273.312 
L 129.190367 139.922526 
L 127.57775 139.922526 
z
" style="fill:#1f77b4;"/>
   </g>
   <g id="patch_45">
    <path clip-path="url(#p925765f2d9)" d="M 129.190367 273.312 
L 130.802984 273.312 
L 130.802984 136.958316 
L 129.190367 136.958316 
z
" style="fill:#1f77b4;"/>
   </g>
   <g id="patch_46">
    <path clip-path="url(#p925765f2d9)" d="M 130.802984 273.312 
L 132.415601 273.312 
L 132.415601 119.173053 
L 130.802984 119.173053 
z
" style="fill:#1f77b4;"/>
   </g>
   <g id="patch_47">
    <path clip-path="url(#p925765f2d9)" d="M 132.415601 273.312 
L 134.028218 273.312 
L 134.028218 124.360421 
L 132.415601 124.360421 
z
" style="fill:#1f77b4;"/>
   </g>
   <g id="patch_48">
    <path clip-path="url(#p925765f2d9)" d="M 134.028218 273.312 
L 135.640835 273.312 
L 135.640835 125.101474 
L 134.028218 125.101474 
z
" style="fill:#1f77b4;"/>
   </g>
   <g id="patch_49">
    <path clip-path="url(#p925765f2d9)" d="M 135.640835 273.312 
L 137.253452 273.312 
L 137.253452 113.985684 
L 135.640835 113.985684 
z
" style="fill:#1f77b4;"/>
   </g>
   <g id="patch_50">
    <path clip-path="url(#p925765f2d9)" d="M 137.253452 273.312 
L 138.866069 273.312 
L 138.866069 108.798316 
L 137.253452 108.798316 
z
" style="fill:#1f77b4;"/>
   </g>
   <g id="patch_51">
    <path clip-path="url(#p925765f2d9)" d="M 138.866069 273.312 
L 140.478686 273.312 
L 140.478686 111.762526 
L 138.866069 111.762526 
z
" style="fill:#1f77b4;"/>
   </g>
   <g id="patch_52">
    <path clip-path="url(#p925765f2d9)" d="M 140.478686 273.312 
L 142.091303 273.312 
L 142.091303 109.539368 
L 140.478686 109.539368 
z
" style="fill:#1f77b4;"/>
   </g>
   <g id="patch_53">
    <path clip-path="url(#p925765f2d9)" d="M 142.091303 273.312 
L 143.70392 273.312 
L 143.70392 117.690947 
L 142.091303 117.690947 
z
" style="fill:#1f77b4;"/>
   </g>
   <g id="patch_54">
    <path clip-path="url(#p925765f2d9)" d="M 143.70392 273.312 
L 145.316537 273.312 
L 145.316537 88.048842 
L 143.70392 88.048842 
z
" style="fill:#1f77b4;"/>
   </g>
   <g id="patch_55">
    <path clip-path="url(#p925765f2d9)" d="M 145.316537 273.312 
L 146.929154 273.312 
L 146.929154 103.610947 
L 145.316537 103.610947 
z
" style="fill:#1f77b4;"/>
   </g>
   <g id="patch_56">
    <path clip-path="url(#p925765f2d9)" d="M 146.929154 273.312 
L 148.541771 273.312 
L 148.541771 105.093053 
L 146.929154 105.093053 
z
" style="fill:#1f77b4;"/>
   </g>
   <g id="patch_57">
    <path clip-path="url(#p925765f2d9)" d="M 148.541771 273.312 
L 150.154388 273.312 
L 150.154388 97.682526 
L 148.541771 97.682526 
z
" style="fill:#1f77b4;"/>
   </g>
   <g id="patch_58">
    <path clip-path="url(#p925765f2d9)" d="M 150.154388 273.312 
L 151.767005 273.312 
L 151.767005 96.200421 
L 150.154388 96.200421 
z
" style="fill:#1f77b4;"/>
   </g>
   <g id="patch_59">
    <path clip-path="url(#p925765f2d9)" d="M 151.767005 273.312 
L 153.379622 273.312 
L 153.379622 95.459368 
L 151.767005 95.459368 
z
" style="fill:#1f77b4;"/>
   </g>
   <g id="patch_60">
    <path clip-path="url(#p925765f2d9)" d="M 153.379622 273.312 
L 154.992239 273.312 
L 154.992239 108.057263 
L 153.379622 108.057263 
z
" style="fill:#1f77b4;"/>
   </g>
   <g id="patch_61">
    <path clip-path="url(#p925765f2d9)" d="M 154.992239 273.312 
L 156.604856 273.312 
L 156.604856 84.343579 
L 154.992239 84.343579 
z
" style="fill:#1f77b4;"/>
   </g>
   <g id="patch_62">
    <path clip-path="url(#p925765f2d9)" d="M 156.604856 273.312 
L 158.217473 273.312 
L 158.217473 105.834105 
L 156.604856 105.834105 
z
" style="fill:#1f77b4;"/>
   </g>
   <g id="patch_63">
    <path clip-path="url(#p925765f2d9)" d="M 158.217473 273.312 
L 159.83009 273.312 
L 159.83009 68.781474 
L 158.217473 68.781474 
z
" style="fill:#1f77b4;"/>
   </g>
   <g id="patch_64">
    <path clip-path="url(#p925765f2d9)" d="M 159.83009 273.312 
L 161.442707 273.312 
L 161.442707 68.781474 
L 159.83009 68.781474 
z
" style="fill:#1f77b4;"/>
   </g>
   <g id="patch_65">
    <path clip-path="url(#p925765f2d9)" d="M 161.442707 273.312 
L 163.055324 273.312 
L 163.055324 65.076211 
L 161.442707 65.076211 
z
" style="fill:#1f77b4;"/>
   </g>
   <g id="patch_66">
    <path clip-path="url(#p925765f2d9)" d="M 163.055324 273.312 
L 164.667941 273.312 
L 164.667941 79.156211 
L 163.055324 79.156211 
z
" style="fill:#1f77b4;"/>
   </g>
   <g id="patch_67">
    <path clip-path="url(#p925765f2d9)" d="M 164.667941 273.312 
L 166.280558 273.312 
L 166.280558 68.040421 
L 164.667941 68.040421 
z
" style="fill:#1f77b4;"/>
   </g>
   <g id="patch_68">
    <path clip-path="url(#p925765f2d9)" d="M 166.280558 273.312 
L 167.893175 273.312 
L 167.893175 53.960421 
L 166.280558 53.960421 
z
" style="fill:#1f77b4;"/>
   </g>
   <g id="patch_69">
    <path clip-path="url(#p925765f2d9)" d="M 167.893175 273.312 
L 169.505792 273.312 
L 169.505792 74.709895 
L 167.893175 74.709895 
z
" style="fill:#1f77b4;"/>
   </g>
   <g id="patch_70">
    <path clip-path="url(#p925765f2d9)" d="M 169.505792 273.312 
L 171.118409 273.312 
L 171.118409 64.335158 
L 169.505792 64.335158 
z
" style="fill:#1f77b4;"/>
   </g>
   <g id="patch_71">
    <path clip-path="url(#p925765f2d9)" d="M 171.118409 273.312 
L 172.731026 273.312 
L 172.731026 82.861474 
L 171.118409 82.861474 
z
" style="fill:#1f77b4;"/>
   </g>
   <g id="patch_72">
    <path clip-path="url(#p925765f2d9)" d="M 172.731026 273.312 
L 174.343643 273.312 
L 174.343643 48.773053 
L 172.731026 48.773053 
z
" style="fill:#1f77b4;"/>
   </g>
   <g id="patch_73">
    <path clip-path="url(#p925765f2d9)" d="M 174.343643 273.312 
L 175.956259 273.312 
L 175.956259 66.558316 
L 174.343643 66.558316 
z
" style="fill:#1f77b4;"/>
   </g>
   <g id="patch_74">
    <path clip-path="url(#p925765f2d9)" d="M 175.956259 273.312 
L 177.568876 273.312 
L 177.568876 74.709895 
L 175.956259 74.709895 
z
" style="fill:#1f77b4;"/>
   </g>
   <g id="patch_75">
    <path clip-path="url(#p925765f2d9)" d="M 177.568876 273.312 
L 179.181493 273.312 
L 179.181493 71.004632 
L 177.568876 71.004632 
z
" style="fill:#1f77b4;"/>
   </g>
   <g id="patch_76">
    <path clip-path="url(#p925765f2d9)" d="M 179.181493 273.312 
L 180.79411 273.312 
L 180.79411 61.370947 
L 179.181493 61.370947 
z
" style="fill:#1f77b4;"/>
   </g>
   <g id="patch_77">
    <path clip-path="url(#p925765f2d9)" d="M 180.79411 273.312 
L 182.406727 273.312 
L 182.406727 46.549895 
L 180.79411 46.549895 
z
" style="fill:#1f77b4;"/>
   </g>
   <g id="patch_78">
    <path clip-path="url(#p925765f2d9)" d="M 182.406727 273.312 
L 184.019344 273.312 
L 184.019344 56.183579 
L 182.406727 56.183579 
z
" style="fill:#1f77b4;"/>
   </g>
   <g id="patch_79">
    <path clip-path="url(#p925765f2d9)" d="M 184.019344 273.312 
L 185.631961 273.312 
L 185.631961 53.960421 
L 184.019344 53.960421 
z
" style="fill:#1f77b4;"/>
   </g>
   <g id="patch_80">
    <path clip-path="url(#p925765f2d9)" d="M 185.631961 273.312 
L 187.244578 273.312 
L 187.244578 71.004632 
L 185.631961 71.004632 
z
" style="fill:#1f77b4;"/>
   </g>
   <g id="patch_81">
    <path clip-path="url(#p925765f2d9)" d="M 187.244578 273.312 
L 188.857195 273.312 
L 188.857195 61.370947 
L 187.244578 61.370947 
z
" style="fill:#1f77b4;"/>
   </g>
   <g id="patch_82">
    <path clip-path="url(#p925765f2d9)" d="M 188.857195 273.312 
L 190.469812 273.312 
L 190.469812 77.674105 
L 188.857195 77.674105 
z
" style="fill:#1f77b4;"/>
   </g>
   <g id="patch_83">
    <path clip-path="url(#p925765f2d9)" d="M 190.469812 273.312 
L 192.082429 273.312 
L 192.082429 63.594105 
L 190.469812 63.594105 
z
" style="fill:#1f77b4;"/>
   </g>
   <g id="patch_84">
    <path clip-path="url(#p925765f2d9)" d="M 192.082429 273.312 
L 193.695046 273.312 
L 193.695046 42.844632 
L 192.082429 42.844632 
z
" style="fill:#1f77b4;"/>
   </g>
   <g id="patch_85">
    <path clip-path="url(#p925765f2d9)" d="M 193.695046 273.312 
L 195.307663 273.312 
L 195.307663 56.183579 
L 193.695046 56.183579 
z
" style="fill:#1f77b4;"/>
   </g>
   <g id="patch_86">
    <path clip-path="url(#p925765f2d9)" d="M 195.307663 273.312 
L 196.92028 273.312 
L 196.92028 48.773053 
L 195.307663 48.773053 
z
" style="fill:#1f77b4;"/>
   </g>
   <g id="patch_87">
    <path clip-path="url(#p925765f2d9)" d="M 196.92028 273.312 
L 198.532897 273.312 
L 198.532897 40.621474 
L 196.92028 40.621474 
z
" style="fill:#1f77b4;"/>
   </g>
   <g id="patch_88">
    <path clip-path="url(#p925765f2d9)" d="M 198.532897 273.312 
L 200.145514 273.312 
L 200.145514 56.183579 
L 198.532897 56.183579 
z
" style="fill:#1f77b4;"/>
   </g>
   <g id="patch_89">
    <path clip-path="url(#p925765f2d9)" d="M 200.145514 273.312 
L 201.758131 273.312 
L 201.758131 73.227789 
L 200.145514 73.227789 
z
" style="fill:#1f77b4;"/>
   </g>
   <g id="patch_90">
    <path clip-path="url(#p925765f2d9)" d="M 201.758131 273.312 
L 203.370748 273.312 
L 203.370748 42.844632 
L 201.758131 42.844632 
z
" style="fill:#1f77b4;"/>
   </g>
   <g id="patch_91">
    <path clip-path="url(#p925765f2d9)" d="M 203.370748 273.312 
L 204.983365 273.312 
L 204.983365 45.808842 
L 203.370748 45.808842 
z
" style="fill:#1f77b4;"/>
   </g>
   <g id="patch_92">
    <path clip-path="url(#p925765f2d9)" d="M 204.983365 273.312 
L 206.595982 273.312 
L 206.595982 24.318316 
L 204.983365 24.318316 
z
" style="fill:#1f77b4;"/>
   </g>
   <g id="patch_93">
    <path clip-path="url(#p925765f2d9)" d="M 206.595982 273.312 
L 208.208599 273.312 
L 208.208599 75.450947 
L 206.595982 75.450947 
z
" style="fill:#1f77b4;"/>
   </g>
   <g id="patch_94">
    <path clip-path="url(#p925765f2d9)" d="M 208.208599 273.312 
L 209.821216 273.312 
L 209.821216 19.872 
L 208.208599 19.872 
z
" style="fill:#1f77b4;"/>
   </g>
   <g id="patch_95">
    <path clip-path="url(#p925765f2d9)" d="M 209.821216 273.312 
L 211.433833 273.312 
L 211.433833 54.701474 
L 209.821216 54.701474 
z
" style="fill:#1f77b4;"/>
   </g>
   <g id="patch_96">
    <path clip-path="url(#p925765f2d9)" d="M 211.433833 273.312 
L 213.04645 273.312 
L 213.04645 56.924632 
L 211.433833 56.924632 
z
" style="fill:#1f77b4;"/>
   </g>
   <g id="patch_97">
    <path clip-path="url(#p925765f2d9)" d="M 213.04645 273.312 
L 214.659067 273.312 
L 214.659067 30.246737 
L 213.04645 30.246737 
z
" style="fill:#1f77b4;"/>
   </g>
   <g id="patch_98">
    <path clip-path="url(#p925765f2d9)" d="M 214.659067 273.312 
L 216.271684 273.312 
L 216.271684 40.621474 
L 214.659067 40.621474 
z
" style="fill:#1f77b4;"/>
   </g>
   <g id="patch_99">
    <path clip-path="url(#p925765f2d9)" d="M 216.271684 273.312 
L 217.884301 273.312 
L 217.884301 22.836211 
L 216.271684 22.836211 
z
" style="fill:#1f77b4;"/>
   </g>
   <g id="patch_100">
    <path clip-path="url(#p925765f2d9)" d="M 217.884301 273.312 
L 219.496918 273.312 
L 219.496918 53.219368 
L 217.884301 53.219368 
z
" style="fill:#1f77b4;"/>
   </g>
   <g id="patch_101">
    <path clip-path="url(#p925765f2d9)" d="M 219.496918 273.312 
L 221.109535 273.312 
L 221.109535 33.210947 
L 219.496918 33.210947 
z
" style="fill:#1f77b4;"/>
   </g>
   <g id="patch_102">
    <path clip-path="url(#p925765f2d9)" d="M 221.109535 273.312 
L 222.722152 273.312 
L 222.722152 48.773053 
L 221.109535 48.773053 
z
" style="fill:#1f77b4;"/>
   </g>
   <g id="patch_103">
    <path clip-path="url(#p925765f2d9)" d="M 222.722152 273.312 
L 224.334769 273.312 
L 224.334769 36.175158 
L 222.722152 36.175158 
z
" style="fill:#1f77b4;"/>
   </g>
   <g id="patch_104">
    <path clip-path="url(#p925765f2d9)" d="M 224.334769 273.312 
L 225.947386 273.312 
L 225.947386 59.147789 
L 224.334769 59.147789 
z
" style="fill:#1f77b4;"/>
   </g>
   <g id="patch_105">
    <path clip-path="url(#p925765f2d9)" d="M 225.947386 273.312 
L 227.560002 273.312 
L 227.560002 32.469895 
L 225.947386 32.469895 
z
" style="fill:#1f77b4;"/>
   </g>
   <g id="patch_106">
    <path clip-path="url(#p925765f2d9)" d="M 227.560002 273.312 
L 229.172619 273.312 
L 229.172619 50.255158 
L 227.560002 50.255158 
z
" style="fill:#1f77b4;"/>
   </g>
   <g id="patch_107">
    <path clip-path="url(#p925765f2d9)" d="M 229.172619 273.312 
L 230.785236 273.312 
L 230.785236 44.326737 
L 229.172619 44.326737 
z
" style="fill:#1f77b4;"/>
   </g>
   <g id="patch_108">
    <path clip-path="url(#p925765f2d9)" d="M 230.785236 273.312 
L 232.397853 273.312 
L 232.397853 46.549895 
L 230.785236 46.549895 
z
" style="fill:#1f77b4;"/>
   </g>
   <g id="patch_109">
    <path clip-path="url(#p925765f2d9)" d="M 232.397853 273.312 
L 234.01047 273.312 
L 234.01047 48.032 
L 232.397853 48.032 
z
" style="fill:#1f77b4;"/>
   </g>
   <g id="patch_110">
    <path clip-path="url(#p925765f2d9)" d="M 234.01047 273.312 
L 235.623087 273.312 
L 235.623087 21.354105 
L 234.01047 21.354105 
z
" style="fill:#1f77b4;"/>
   </g>
   <g id="patch_111">
    <path clip-path="url(#p925765f2d9)" d="M 235.623087 273.312 
L 237.235704 273.312 
L 237.235704 38.398316 
L 235.623087 38.398316 
z
" style="fill:#1f77b4;"/>
   </g>
   <g id="patch_112">
    <path clip-path="url(#p925765f2d9)" d="M 237.235704 273.312 
L 238.848321 273.312 
L 238.848321 42.103579 
L 237.235704 42.103579 
z
" style="fill:#1f77b4;"/>
   </g>
   <g id="patch_113">
    <path clip-path="url(#p925765f2d9)" d="M 238.848321 273.312 
L 240.460938 273.312 
L 240.460938 44.326737 
L 238.848321 44.326737 
z
" style="fill:#1f77b4;"/>
   </g>
   <g id="patch_114">
    <path clip-path="url(#p925765f2d9)" d="M 240.460938 273.312 
L 242.073555 273.312 
L 242.073555 56.183579 
L 240.460938 56.183579 
z
" style="fill:#1f77b4;"/>
   </g>
   <g id="patch_115">
    <path clip-path="url(#p925765f2d9)" d="M 242.073555 273.312 
L 243.686172 273.312 
L 243.686172 47.290947 
L 242.073555 47.290947 
z
" style="fill:#1f77b4;"/>
   </g>
   <g id="patch_116">
    <path clip-path="url(#p925765f2d9)" d="M 243.686172 273.312 
L 245.298789 273.312 
L 245.298789 52.478316 
L 243.686172 52.478316 
z
" style="fill:#1f77b4;"/>
   </g>
   <g id="patch_117">
    <path clip-path="url(#p925765f2d9)" d="M 245.298789 273.312 
L 246.911406 273.312 
L 246.911406 36.175158 
L 245.298789 36.175158 
z
" style="fill:#1f77b4;"/>
   </g>
   <g id="patch_118">
    <path clip-path="url(#p925765f2d9)" d="M 246.911406 273.312 
L 248.524023 273.312 
L 248.524023 48.773053 
L 246.911406 48.773053 
z
" style="fill:#1f77b4;"/>
   </g>
   <g id="patch_119">
    <path clip-path="url(#p925765f2d9)" d="M 248.524023 273.312 
L 250.13664 273.312 
L 250.13664 54.701474 
L 248.524023 54.701474 
z
" style="fill:#1f77b4;"/>
   </g>
   <g id="patch_120">
    <path clip-path="url(#p925765f2d9)" d="M 250.13664 273.312 
L 251.749257 273.312 
L 251.749257 32.469895 
L 250.13664 32.469895 
z
" style="fill:#1f77b4;"/>
   </g>
   <g id="patch_121">
    <path clip-path="url(#p925765f2d9)" d="M 251.749257 273.312 
L 253.361874 273.312 
L 253.361874 59.147789 
L 251.749257 59.147789 
z
" style="fill:#1f77b4;"/>
   </g>
   <g id="patch_122">
    <path clip-path="url(#p925765f2d9)" d="M 253.361874 273.312 
L 254.974491 273.312 
L 254.974491 43.585684 
L 253.361874 43.585684 
z
" style="fill:#1f77b4;"/>
   </g>
   <g id="patch_123">
    <path clip-path="url(#p925765f2d9)" d="M 254.974491 273.312 
L 256.587108 273.312 
L 256.587108 59.888842 
L 254.974491 59.888842 
z
" style="fill:#1f77b4;"/>
   </g>
   <g id="patch_124">
    <path clip-path="url(#p925765f2d9)" d="M 256.587108 273.312 
L 258.199725 273.312 
L 258.199725 62.853053 
L 256.587108 62.853053 
z
" style="fill:#1f77b4;"/>
   </g>
   <g id="patch_125">
    <path clip-path="url(#p925765f2d9)" d="M 258.199725 273.312 
L 259.812342 273.312 
L 259.812342 68.781474 
L 258.199725 68.781474 
z
" style="fill:#1f77b4;"/>
   </g>
   <g id="patch_126">
    <path clip-path="url(#p925765f2d9)" d="M 259.812342 273.312 
L 261.424959 273.312 
L 261.424959 69.522526 
L 259.812342 69.522526 
z
" style="fill:#1f77b4;"/>
   </g>
   <g id="patch_127">
    <path clip-path="url(#p925765f2d9)" d="M 261.424959 273.312 
L 263.037576 273.312 
L 263.037576 65.817263 
L 261.424959 65.817263 
z
" style="fill:#1f77b4;"/>
   </g>
   <g id="patch_128">
    <path clip-path="url(#p925765f2d9)" d="M 263.037576 273.312 
L 264.650193 273.312 
L 264.650193 53.219368 
L 263.037576 53.219368 
z
" style="fill:#1f77b4;"/>
   </g>
   <g id="patch_129">
    <path clip-path="url(#p925765f2d9)" d="M 264.650193 273.312 
L 266.26281 273.312 
L 266.26281 76.192 
L 264.650193 76.192 
z
" style="fill:#1f77b4;"/>
   </g>
   <g id="patch_130">
    <path clip-path="url(#p925765f2d9)" d="M 266.26281 273.312 
L 267.875427 273.312 
L 267.875427 70.263579 
L 266.26281 70.263579 
z
" style="fill:#1f77b4;"/>
   </g>
   <g id="patch_131">
    <path clip-path="url(#p925765f2d9)" d="M 267.875427 273.312 
L 269.488044 273.312 
L 269.488044 49.514105 
L 267.875427 49.514105 
z
" style="fill:#1f77b4;"/>
   </g>
   <g id="patch_132">
    <path clip-path="url(#p925765f2d9)" d="M 269.488044 273.312 
L 271.100661 273.312 
L 271.100661 53.960421 
L 269.488044 53.960421 
z
" style="fill:#1f77b4;"/>
   </g>
   <g id="patch_133">
    <path clip-path="url(#p925765f2d9)" d="M 271.100661 273.312 
L 272.713278 273.312 
L 272.713278 65.817263 
L 271.100661 65.817263 
z
" style="fill:#1f77b4;"/>
   </g>
   <g id="patch_134">
    <path clip-path="url(#p925765f2d9)" d="M 272.713278 273.312 
L 274.325895 273.312 
L 274.325895 68.781474 
L 272.713278 68.781474 
z
" style="fill:#1f77b4;"/>
   </g>
   <g id="patch_135">
    <path clip-path="url(#p925765f2d9)" d="M 274.325895 273.312 
L 275.938512 273.312 
L 275.938512 71.745684 
L 274.325895 71.745684 
z
" style="fill:#1f77b4;"/>
   </g>
   <g id="patch_136">
    <path clip-path="url(#p925765f2d9)" d="M 275.938512 273.312 
L 277.551128 273.312 
L 277.551128 59.888842 
L 275.938512 59.888842 
z
" style="fill:#1f77b4;"/>
   </g>
   <g id="patch_137">
    <path clip-path="url(#p925765f2d9)" d="M 277.551128 273.312 
L 279.163745 273.312 
L 279.163745 68.040421 
L 277.551128 68.040421 
z
" style="fill:#1f77b4;"/>
   </g>
   <g id="patch_138">
    <path clip-path="url(#p925765f2d9)" d="M 279.163745 273.312 
L 280.776362 273.312 
L 280.776362 81.379368 
L 279.163745 81.379368 
z
" style="fill:#1f77b4;"/>
   </g>
   <g id="patch_139">
    <path clip-path="url(#p925765f2d9)" d="M 280.776362 273.312 
L 282.388979 273.312 
L 282.388979 83.602526 
L 280.776362 83.602526 
z
" style="fill:#1f77b4;"/>
   </g>
   <g id="patch_140">
    <path clip-path="url(#p925765f2d9)" d="M 282.388979 273.312 
L 284.001596 273.312 
L 284.001596 74.709895 
L 282.388979 74.709895 
z
" style="fill:#1f77b4;"/>
   </g>
   <g id="patch_141">
    <path clip-path="url(#p925765f2d9)" d="M 284.001596 273.312 
L 285.614213 273.312 
L 285.614213 60.629895 
L 284.001596 60.629895 
z
" style="fill:#1f77b4;"/>
   </g>
   <g id="patch_142">
    <path clip-path="url(#p925765f2d9)" d="M 285.614213 273.312 
L 287.22683 273.312 
L 287.22683 102.869895 
L 285.614213 102.869895 
z
" style="fill:#1f77b4;"/>
   </g>
   <g id="patch_143">
    <path clip-path="url(#p925765f2d9)" d="M 287.22683 273.312 
L 288.839447 273.312 
L 288.839447 67.299368 
L 287.22683 67.299368 
z
" style="fill:#1f77b4;"/>
   </g>
   <g id="patch_144">
    <path clip-path="url(#p925765f2d9)" d="M 288.839447 273.312 
L 290.452064 273.312 
L 290.452064 95.459368 
L 288.839447 95.459368 
z
" style="fill:#1f77b4;"/>
   </g>
   <g id="patch_145">
    <path clip-path="url(#p925765f2d9)" d="M 290.452064 273.312 
L 292.064681 273.312 
L 292.064681 101.387789 
L 290.452064 101.387789 
z
" style="fill:#1f77b4;"/>
   </g>
   <g id="patch_146">
    <path clip-path="url(#p925765f2d9)" d="M 292.064681 273.312 
L 293.677298 273.312 
L 293.677298 84.343579 
L 292.064681 84.343579 
z
" style="fill:#1f77b4;"/>
   </g>
   <g id="patch_147">
    <path clip-path="url(#p925765f2d9)" d="M 293.677298 273.312 
L 295.289915 273.312 
L 295.289915 96.200421 
L 293.677298 96.200421 
z
" style="fill:#1f77b4;"/>
   </g>
   <g id="patch_148">
    <path clip-path="url(#p925765f2d9)" d="M 295.289915 273.312 
L 296.902532 273.312 
L 296.902532 95.459368 
L 295.289915 95.459368 
z
" style="fill:#1f77b4;"/>
   </g>
   <g id="patch_149">
    <path clip-path="url(#p925765f2d9)" d="M 296.902532 273.312 
L 298.515149 273.312 
L 298.515149 105.093053 
L 296.902532 105.093053 
z
" style="fill:#1f77b4;"/>
   </g>
   <g id="patch_150">
    <path clip-path="url(#p925765f2d9)" d="M 298.515149 273.312 
L 300.127766 273.312 
L 300.127766 110.280421 
L 298.515149 110.280421 
z
" style="fill:#1f77b4;"/>
   </g>
   <g id="patch_151">
    <path clip-path="url(#p925765f2d9)" d="M 300.127766 273.312 
L 301.740383 273.312 
L 301.740383 111.021474 
L 300.127766 111.021474 
z
" style="fill:#1f77b4;"/>
   </g>
   <g id="patch_152">
    <path clip-path="url(#p925765f2d9)" d="M 301.740383 273.312 
L 303.353 273.312 
L 303.353 108.798316 
L 301.740383 108.798316 
z
" style="fill:#1f77b4;"/>
   </g>
   <g id="patch_153">
    <path clip-path="url(#p925765f2d9)" d="M 303.353 273.312 
L 304.965617 273.312 
L 304.965617 119.914105 
L 303.353 119.914105 
z
" style="fill:#1f77b4;"/>
   </g>
   <g id="patch_154">
    <path clip-path="url(#p925765f2d9)" d="M 304.965617 273.312 
L 306.578234 273.312 
L 306.578234 91.754105 
L 304.965617 91.754105 
z
" style="fill:#1f77b4;"/>
   </g>
   <g id="patch_155">
    <path clip-path="url(#p925765f2d9)" d="M 306.578234 273.312 
L 308.190851 273.312 
L 308.190851 118.432 
L 306.578234 118.432 
z
" style="fill:#1f77b4;"/>
   </g>
   <g id="patch_156">
    <path clip-path="url(#p925765f2d9)" d="M 308.190851 273.312 
L 309.803468 273.312 
L 309.803468 118.432 
L 308.190851 118.432 
z
" style="fill:#1f77b4;"/>
   </g>
   <g id="patch_157">
    <path clip-path="url(#p925765f2d9)" d="M 309.803468 273.312 
L 311.416085 273.312 
L 311.416085 124.360421 
L 309.803468 124.360421 
z
" style="fill:#1f77b4;"/>
   </g>
   <g id="patch_158">
    <path clip-path="url(#p925765f2d9)" d="M 311.416085 273.312 
L 313.028702 273.312 
L 313.028702 116.208842 
L 311.416085 116.208842 
z
" style="fill:#1f77b4;"/>
   </g>
   <g id="patch_159">
    <path clip-path="url(#p925765f2d9)" d="M 313.028702 273.312 
L 314.641319 273.312 
L 314.641319 122.878316 
L 313.028702 122.878316 
z
" style="fill:#1f77b4;"/>
   </g>
   <g id="patch_160">
    <path clip-path="url(#p925765f2d9)" d="M 314.641319 273.312 
L 316.253936 273.312 
L 316.253936 131.029895 
L 314.641319 131.029895 
z
" style="fill:#1f77b4;"/>
   </g>
   <g id="patch_161">
    <path clip-path="url(#p925765f2d9)" d="M 316.253936 273.312 
L 317.866553 273.312 
L 317.866553 113.985684 
L 316.253936 113.985684 
z
" style="fill:#1f77b4;"/>
   </g>
   <g id="patch_162">
    <path clip-path="url(#p925765f2d9)" d="M 317.866553 273.312 
L 319.47917 273.312 
L 319.47917 133.994105 
L 317.866553 133.994105 
z
" style="fill:#1f77b4;"/>
   </g>
   <g id="patch_163">
    <path clip-path="url(#p925765f2d9)" d="M 319.47917 273.312 
L 321.091787 273.312 
L 321.091787 139.922526 
L 319.47917 139.922526 
z
" style="fill:#1f77b4;"/>
   </g>
   <g id="patch_164">
    <path clip-path="url(#p925765f2d9)" d="M 321.091787 273.312 
L 322.704404 273.312 
L 322.704404 136.217263 
L 321.091787 136.217263 
z
" style="fill:#1f77b4;"/>
   </g>
   <g id="patch_165">
    <path clip-path="url(#p925765f2d9)" d="M 322.704404 273.312 
L 324.317021 273.312 
L 324.317021 145.109895 
L 322.704404 145.109895 
z
" style="fill:#1f77b4;"/>
   </g>
   <g id="patch_166">
    <path clip-path="url(#p925765f2d9)" d="M 324.317021 273.312 
L 325.929638 273.312 
L 325.929638 146.592 
L 324.317021 146.592 
z
" style="fill:#1f77b4;"/>
   </g>
   <g id="patch_167">
    <path clip-path="url(#p925765f2d9)" d="M 325.929638 273.312 
L 327.542254 273.312 
L 327.542254 154.743579 
L 325.929638 154.743579 
z
" style="fill:#1f77b4;"/>
   </g>
   <g id="patch_168">
    <path clip-path="url(#p925765f2d9)" d="M 327.542254 273.312 
L 329.154871 273.312 
L 329.154871 158.448842 
L 327.542254 158.448842 
z
" style="fill:#1f77b4;"/>
   </g>
   <g id="patch_169">
    <path clip-path="url(#p925765f2d9)" d="M 329.154871 273.312 
L 330.767488 273.312 
L 330.767488 152.520421 
L 329.154871 152.520421 
z
" style="fill:#1f77b4;"/>
   </g>
   <g id="patch_170">
    <path clip-path="url(#p925765f2d9)" d="M 330.767488 273.312 
L 332.380105 273.312 
L 332.380105 174.010947 
L 330.767488 174.010947 
z
" style="fill:#1f77b4;"/>
   </g>
   <g id="patch_171">
    <path clip-path="url(#p925765f2d9)" d="M 332.380105 273.312 
L 333.992722 273.312 
L 333.992722 178.457263 
L 332.380105 178.457263 
z
" style="fill:#1f77b4;"/>
   </g>
   <g id="patch_172">
    <path clip-path="url(#p925765f2d9)" d="M 333.992722 273.312 
L 335.605339 273.312 
L 335.605339 187.349895 
L 333.992722 187.349895 
z
" style="fill:#1f77b4;"/>
   </g>
   <g id="patch_173">
    <path clip-path="url(#p925765f2d9)" d="M 335.605339 273.312 
L 337.217956 273.312 
L 337.217956 164.377263 
L 335.605339 164.377263 
z
" style="fill:#1f77b4;"/>
   </g>
   <g id="patch_174">
    <path clip-path="url(#p925765f2d9)" d="M 337.217956 273.312 
L 338.830573 273.312 
L 338.830573 166.600421 
L 337.217956 166.600421 
z
" style="fill:#1f77b4;"/>
   </g>
   <g id="patch_175">
    <path clip-path="url(#p925765f2d9)" d="M 338.830573 273.312 
L 340.44319 273.312 
L 340.44319 157.707789 
L 338.830573 157.707789 
z
" style="fill:#1f77b4;"/>
   </g>
   <g id="patch_176">
    <path clip-path="url(#p925765f2d9)" d="M 340.44319 273.312 
L 342.055807 273.312 
L 342.055807 183.644632 
L 340.44319 183.644632 
z
" style="fill:#1f77b4;"/>
   </g>
   <g id="patch_177">
    <path clip-path="url(#p925765f2d9)" d="M 342.055807 273.312 
L 343.668424 273.312 
L 343.668424 178.457263 
L 342.055807 178.457263 
z
" style="fill:#1f77b4;"/>
   </g>
   <g id="patch_178">
    <path clip-path="url(#p925765f2d9)" d="M 343.668424 273.312 
L 345.281041 273.312 
L 345.281041 188.832 
L 343.668424 188.832 
z
" style="fill:#1f77b4;"/>
   </g>
   <g id="patch_179">
    <path clip-path="url(#p925765f2d9)" d="M 345.281041 273.312 
L 346.893658 273.312 
L 346.893658 171.046737 
L 345.281041 171.046737 
z
" style="fill:#1f77b4;"/>
   </g>
   <g id="patch_180">
    <path clip-path="url(#p925765f2d9)" d="M 346.893658 273.312 
L 348.506275 273.312 
L 348.506275 194.019368 
L 346.893658 194.019368 
z
" style="fill:#1f77b4;"/>
   </g>
   <g id="patch_181">
    <path clip-path="url(#p925765f2d9)" d="M 348.506275 273.312 
L 350.118892 273.312 
L 350.118892 181.421474 
L 348.506275 181.421474 
z
" style="fill:#1f77b4;"/>
   </g>
   <g id="patch_182">
    <path clip-path="url(#p925765f2d9)" d="M 350.118892 273.312 
L 351.731509 273.312 
L 351.731509 199.947789 
L 350.118892 199.947789 
z
" style="fill:#1f77b4;"/>
   </g>
   <g id="patch_183">
    <path clip-path="url(#p925765f2d9)" d="M 351.731509 273.312 
L 353.344126 273.312 
L 353.344126 207.358316 
L 351.731509 207.358316 
z
" style="fill:#1f77b4;"/>
   </g>
   <g id="patch_184">
    <path clip-path="url(#p925765f2d9)" d="M 353.344126 273.312 
L 354.956743 273.312 
L 354.956743 199.206737 
L 353.344126 199.206737 
z
" style="fill:#1f77b4;"/>
   </g>
   <g id="patch_185">
    <path clip-path="url(#p925765f2d9)" d="M 354.956743 273.312 
L 356.56936 273.312 
L 356.56936 210.322526 
L 354.956743 210.322526 
z
" style="fill:#1f77b4;"/>
   </g>
   <g id="patch_186">
    <path clip-path="url(#p925765f2d9)" d="M 356.56936 273.312 
L 358.181977 273.312 
L 358.181977 216.250947 
L 356.56936 216.250947 
z
" style="fill:#1f77b4;"/>
   </g>
   <g id="patch_187">
    <path clip-path="url(#p925765f2d9)" d="M 358.181977 273.312 
L 359.794594 273.312 
L 359.794594 218.474105 
L 358.181977 218.474105 
z
" style="fill:#1f77b4;"/>
   </g>
   <g id="patch_188">
    <path clip-path="url(#p925765f2d9)" d="M 359.794594 273.312 
L 361.407211 273.312 
L 361.407211 226.625684 
L 359.794594 226.625684 
z
" style="fill:#1f77b4;"/>
   </g>
   <g id="patch_189">
    <path clip-path="url(#p925765f2d9)" d="M 361.407211 273.312 
L 363.019828 273.312 
L 363.019828 231.072 
L 361.407211 231.072 
z
" style="fill:#1f77b4;"/>
   </g>
   <g id="patch_190">
    <path clip-path="url(#p925765f2d9)" d="M 363.019828 273.312 
L 364.632445 273.312 
L 364.632445 238.482526 
L 363.019828 238.482526 
z
" style="fill:#1f77b4;"/>
   </g>
   <g id="patch_191">
    <path clip-path="url(#p925765f2d9)" d="M 364.632445 273.312 
L 366.245062 273.312 
L 366.245062 234.777263 
L 364.632445 234.777263 
z
" style="fill:#1f77b4;"/>
   </g>
   <g id="patch_192">
    <path clip-path="url(#p925765f2d9)" d="M 366.245062 273.312 
L 367.857679 273.312 
L 367.857679 228.848842 
L 366.245062 228.848842 
z
" style="fill:#1f77b4;"/>
   </g>
   <g id="patch_193">
    <path clip-path="url(#p925765f2d9)" d="M 367.857679 273.312 
L 369.470296 273.312 
L 369.470296 235.518316 
L 367.857679 235.518316 
z
" style="fill:#1f77b4;"/>
   </g>
   <g id="patch_194">
    <path clip-path="url(#p925765f2d9)" d="M 369.470296 273.312 
L 371.082913 273.312 
L 371.082913 236.259368 
L 369.470296 236.259368 
z
" style="fill:#1f77b4;"/>
   </g>
   <g id="patch_195">
    <path clip-path="url(#p925765f2d9)" d="M 371.082913 273.312 
L 372.69553 273.312 
L 372.69553 236.259368 
L 371.082913 236.259368 
z
" style="fill:#1f77b4;"/>
   </g>
   <g id="patch_196">
    <path clip-path="url(#p925765f2d9)" d="M 372.69553 273.312 
L 374.308147 273.312 
L 374.308147 248.857263 
L 372.69553 248.857263 
z
" style="fill:#1f77b4;"/>
   </g>
   <g id="patch_197">
    <path clip-path="url(#p925765f2d9)" d="M 374.308147 273.312 
L 375.920764 273.312 
L 375.920764 246.634105 
L 374.308147 246.634105 
z
" style="fill:#1f77b4;"/>
   </g>
   <g id="patch_198">
    <path clip-path="url(#p925765f2d9)" d="M 375.920764 273.312 
L 377.533381 273.312 
L 377.533381 255.526737 
L 375.920764 255.526737 
z
" style="fill:#1f77b4;"/>
   </g>
   <g id="patch_199">
    <path clip-path="url(#p925765f2d9)" d="M 377.533381 273.312 
L 379.145997 273.312 
L 379.145997 259.232 
L 377.533381 259.232 
z
" style="fill:#1f77b4;"/>
   </g>
   <g id="patch_200">
    <path clip-path="url(#p925765f2d9)" d="M 379.145997 273.312 
L 380.758614 273.312 
L 380.758614 262.196211 
L 379.145997 262.196211 
z
" style="fill:#1f77b4;"/>
   </g>
   <g id="patch_201">
    <path clip-path="url(#p925765f2d9)" d="M 380.758614 273.312 
L 382.371231 273.312 
L 382.371231 265.160421 
L 380.758614 265.160421 
z
" style="fill:#1f77b4;"/>
   </g>
   <g id="patch_202">
    <path clip-path="url(#p925765f2d9)" d="M 382.371231 273.312 
L 383.983848 273.312 
L 383.983848 268.124632 
L 382.371231 268.124632 
z
" style="fill:#1f77b4;"/>
   </g>
   <g id="matplotlib.axis_1">
    <g id="xtick_1">
     <g id="line2d_1">
      <defs>
       <path d="M 0 0 
L 0 3.5 
" id="m677e41e4ef" style="stroke:#000000;stroke-width:0.8;"/>
      </defs>
      <g>
       <use style="stroke:#000000;stroke-width:0.8;" x="60.013977" xlink:href="#m677e41e4ef" y="273.312"/>
      </g>
     </g>
     <g id="text_1">
      <!-- 0.0 -->
      <g transform="translate(52.062415 287.910437)scale(0.1 -0.1)">
       <defs>
        <path d="M 2034 4250 
Q 1547 4250 1301 3770 
Q 1056 3291 1056 2328 
Q 1056 1369 1301 889 
Q 1547 409 2034 409 
Q 2525 409 2770 889 
Q 3016 1369 3016 2328 
Q 3016 3291 2770 3770 
Q 2525 4250 2034 4250 
z
M 2034 4750 
Q 2819 4750 3233 4129 
Q 3647 3509 3647 2328 
Q 3647 1150 3233 529 
Q 2819 -91 2034 -91 
Q 1250 -91 836 529 
Q 422 1150 422 2328 
Q 422 3509 836 4129 
Q 1250 4750 2034 4750 
z
" id="DejaVuSans-30" transform="scale(0.015625)"/>
        <path d="M 684 794 
L 1344 794 
L 1344 0 
L 684 0 
L 684 794 
z
" id="DejaVuSans-2e" transform="scale(0.015625)"/>
       </defs>
       <use xlink:href="#DejaVuSans-30"/>
       <use x="63.623047" xlink:href="#DejaVuSans-2e"/>
       <use x="95.410156" xlink:href="#DejaVuSans-30"/>
      </g>
     </g>
    </g>
    <g id="xtick_2">
     <g id="line2d_2">
      <g>
       <use style="stroke:#000000;stroke-width:0.8;" x="101.350278" xlink:href="#m677e41e4ef" y="273.312"/>
      </g>
     </g>
     <g id="text_2">
      <!-- 0.2 -->
      <g transform="translate(93.398715 287.910437)scale(0.1 -0.1)">
       <defs>
        <path d="M 1228 531 
L 3431 531 
L 3431 0 
L 469 0 
L 469 531 
Q 828 903 1448 1529 
Q 2069 2156 2228 2338 
Q 2531 2678 2651 2914 
Q 2772 3150 2772 3378 
Q 2772 3750 2511 3984 
Q 2250 4219 1831 4219 
Q 1534 4219 1204 4116 
Q 875 4013 500 3803 
L 500 4441 
Q 881 4594 1212 4672 
Q 1544 4750 1819 4750 
Q 2544 4750 2975 4387 
Q 3406 4025 3406 3419 
Q 3406 3131 3298 2873 
Q 3191 2616 2906 2266 
Q 2828 2175 2409 1742 
Q 1991 1309 1228 531 
z
" id="DejaVuSans-32" transform="scale(0.015625)"/>
       </defs>
       <use xlink:href="#DejaVuSans-30"/>
       <use x="63.623047" xlink:href="#DejaVuSans-2e"/>
       <use x="95.410156" xlink:href="#DejaVuSans-32"/>
      </g>
     </g>
    </g>
    <g id="xtick_3">
     <g id="line2d_3">
      <g>
       <use style="stroke:#000000;stroke-width:0.8;" x="142.686578" xlink:href="#m677e41e4ef" y="273.312"/>
      </g>
     </g>
     <g id="text_3">
      <!-- 0.4 -->
      <g transform="translate(134.735016 287.910437)scale(0.1 -0.1)">
       <defs>
        <path d="M 2419 4116 
L 825 1625 
L 2419 1625 
L 2419 4116 
z
M 2253 4666 
L 3047 4666 
L 3047 1625 
L 3713 1625 
L 3713 1100 
L 3047 1100 
L 3047 0 
L 2419 0 
L 2419 1100 
L 313 1100 
L 313 1709 
L 2253 4666 
z
" id="DejaVuSans-34" transform="scale(0.015625)"/>
       </defs>
       <use xlink:href="#DejaVuSans-30"/>
       <use x="63.623047" xlink:href="#DejaVuSans-2e"/>
       <use x="95.410156" xlink:href="#DejaVuSans-34"/>
      </g>
     </g>
    </g>
    <g id="xtick_4">
     <g id="line2d_4">
      <g>
       <use style="stroke:#000000;stroke-width:0.8;" x="184.022879" xlink:href="#m677e41e4ef" y="273.312"/>
      </g>
     </g>
     <g id="text_4">
      <!-- 0.6 -->
      <g transform="translate(176.071316 287.910437)scale(0.1 -0.1)">
       <defs>
        <path d="M 2113 2584 
Q 1688 2584 1439 2293 
Q 1191 2003 1191 1497 
Q 1191 994 1439 701 
Q 1688 409 2113 409 
Q 2538 409 2786 701 
Q 3034 994 3034 1497 
Q 3034 2003 2786 2293 
Q 2538 2584 2113 2584 
z
M 3366 4563 
L 3366 3988 
Q 3128 4100 2886 4159 
Q 2644 4219 2406 4219 
Q 1781 4219 1451 3797 
Q 1122 3375 1075 2522 
Q 1259 2794 1537 2939 
Q 1816 3084 2150 3084 
Q 2853 3084 3261 2657 
Q 3669 2231 3669 1497 
Q 3669 778 3244 343 
Q 2819 -91 2113 -91 
Q 1303 -91 875 529 
Q 447 1150 447 2328 
Q 447 3434 972 4092 
Q 1497 4750 2381 4750 
Q 2619 4750 2861 4703 
Q 3103 4656 3366 4563 
z
" id="DejaVuSans-36" transform="scale(0.015625)"/>
       </defs>
       <use xlink:href="#DejaVuSans-30"/>
       <use x="63.623047" xlink:href="#DejaVuSans-2e"/>
       <use x="95.410156" xlink:href="#DejaVuSans-36"/>
      </g>
     </g>
    </g>
    <g id="xtick_5">
     <g id="line2d_5">
      <g>
       <use style="stroke:#000000;stroke-width:0.8;" x="225.35918" xlink:href="#m677e41e4ef" y="273.312"/>
      </g>
     </g>
     <g id="text_5">
      <!-- 0.8 -->
      <g transform="translate(217.407617 287.910437)scale(0.1 -0.1)">
       <defs>
        <path d="M 2034 2216 
Q 1584 2216 1326 1975 
Q 1069 1734 1069 1313 
Q 1069 891 1326 650 
Q 1584 409 2034 409 
Q 2484 409 2743 651 
Q 3003 894 3003 1313 
Q 3003 1734 2745 1975 
Q 2488 2216 2034 2216 
z
M 1403 2484 
Q 997 2584 770 2862 
Q 544 3141 544 3541 
Q 544 4100 942 4425 
Q 1341 4750 2034 4750 
Q 2731 4750 3128 4425 
Q 3525 4100 3525 3541 
Q 3525 3141 3298 2862 
Q 3072 2584 2669 2484 
Q 3125 2378 3379 2068 
Q 3634 1759 3634 1313 
Q 3634 634 3220 271 
Q 2806 -91 2034 -91 
Q 1263 -91 848 271 
Q 434 634 434 1313 
Q 434 1759 690 2068 
Q 947 2378 1403 2484 
z
M 1172 3481 
Q 1172 3119 1398 2916 
Q 1625 2713 2034 2713 
Q 2441 2713 2670 2916 
Q 2900 3119 2900 3481 
Q 2900 3844 2670 4047 
Q 2441 4250 2034 4250 
Q 1625 4250 1398 4047 
Q 1172 3844 1172 3481 
z
" id="DejaVuSans-38" transform="scale(0.015625)"/>
       </defs>
       <use xlink:href="#DejaVuSans-30"/>
       <use x="63.623047" xlink:href="#DejaVuSans-2e"/>
       <use x="95.410156" xlink:href="#DejaVuSans-38"/>
      </g>
     </g>
    </g>
    <g id="xtick_6">
     <g id="line2d_6">
      <g>
       <use style="stroke:#000000;stroke-width:0.8;" x="266.69548" xlink:href="#m677e41e4ef" y="273.312"/>
      </g>
     </g>
     <g id="text_6">
      <!-- 1.0 -->
      <g transform="translate(258.743918 287.910437)scale(0.1 -0.1)">
       <defs>
        <path d="M 794 531 
L 1825 531 
L 1825 4091 
L 703 3866 
L 703 4441 
L 1819 4666 
L 2450 4666 
L 2450 531 
L 3481 531 
L 3481 0 
L 794 0 
L 794 531 
z
" id="DejaVuSans-31" transform="scale(0.015625)"/>
       </defs>
       <use xlink:href="#DejaVuSans-31"/>
       <use x="63.623047" xlink:href="#DejaVuSans-2e"/>
       <use x="95.410156" xlink:href="#DejaVuSans-30"/>
      </g>
     </g>
    </g>
    <g id="xtick_7">
     <g id="line2d_7">
      <g>
       <use style="stroke:#000000;stroke-width:0.8;" x="308.031781" xlink:href="#m677e41e4ef" y="273.312"/>
      </g>
     </g>
     <g id="text_7">
      <!-- 1.2 -->
      <g transform="translate(300.080218 287.910437)scale(0.1 -0.1)">
       <use xlink:href="#DejaVuSans-31"/>
       <use x="63.623047" xlink:href="#DejaVuSans-2e"/>
       <use x="95.410156" xlink:href="#DejaVuSans-32"/>
      </g>
     </g>
    </g>
    <g id="xtick_8">
     <g id="line2d_8">
      <g>
       <use style="stroke:#000000;stroke-width:0.8;" x="349.368081" xlink:href="#m677e41e4ef" y="273.312"/>
      </g>
     </g>
     <g id="text_8">
      <!-- 1.4 -->
      <g transform="translate(341.416519 287.910437)scale(0.1 -0.1)">
       <use xlink:href="#DejaVuSans-31"/>
       <use x="63.623047" xlink:href="#DejaVuSans-2e"/>
       <use x="95.410156" xlink:href="#DejaVuSans-34"/>
      </g>
     </g>
    </g>
    <g id="xtick_9">
     <g id="line2d_9">
      <g>
       <use style="stroke:#000000;stroke-width:0.8;" x="390.704382" xlink:href="#m677e41e4ef" y="273.312"/>
      </g>
     </g>
     <g id="text_9">
      <!-- 1.6 -->
      <g transform="translate(382.752819 287.910437)scale(0.1 -0.1)">
       <use xlink:href="#DejaVuSans-31"/>
       <use x="63.623047" xlink:href="#DejaVuSans-2e"/>
       <use x="95.410156" xlink:href="#DejaVuSans-36"/>
      </g>
     </g>
    </g>
    <g id="text_10">
     <!-- Angle with normal (rad) -->
     <g transform="translate(163.023281 301.588562)scale(0.1 -0.1)">
      <defs>
       <path d="M 2188 4044 
L 1331 1722 
L 3047 1722 
L 2188 4044 
z
M 1831 4666 
L 2547 4666 
L 4325 0 
L 3669 0 
L 3244 1197 
L 1141 1197 
L 716 0 
L 50 0 
L 1831 4666 
z
" id="DejaVuSans-41" transform="scale(0.015625)"/>
       <path d="M 3513 2113 
L 3513 0 
L 2938 0 
L 2938 2094 
Q 2938 2591 2744 2837 
Q 2550 3084 2163 3084 
Q 1697 3084 1428 2787 
Q 1159 2491 1159 1978 
L 1159 0 
L 581 0 
L 581 3500 
L 1159 3500 
L 1159 2956 
Q 1366 3272 1645 3428 
Q 1925 3584 2291 3584 
Q 2894 3584 3203 3211 
Q 3513 2838 3513 2113 
z
" id="DejaVuSans-6e" transform="scale(0.015625)"/>
       <path d="M 2906 1791 
Q 2906 2416 2648 2759 
Q 2391 3103 1925 3103 
Q 1463 3103 1205 2759 
Q 947 2416 947 1791 
Q 947 1169 1205 825 
Q 1463 481 1925 481 
Q 2391 481 2648 825 
Q 2906 1169 2906 1791 
z
M 3481 434 
Q 3481 -459 3084 -895 
Q 2688 -1331 1869 -1331 
Q 1566 -1331 1297 -1286 
Q 1028 -1241 775 -1147 
L 775 -588 
Q 1028 -725 1275 -790 
Q 1522 -856 1778 -856 
Q 2344 -856 2625 -561 
Q 2906 -266 2906 331 
L 2906 616 
Q 2728 306 2450 153 
Q 2172 0 1784 0 
Q 1141 0 747 490 
Q 353 981 353 1791 
Q 353 2603 747 3093 
Q 1141 3584 1784 3584 
Q 2172 3584 2450 3431 
Q 2728 3278 2906 2969 
L 2906 3500 
L 3481 3500 
L 3481 434 
z
" id="DejaVuSans-67" transform="scale(0.015625)"/>
       <path d="M 603 4863 
L 1178 4863 
L 1178 0 
L 603 0 
L 603 4863 
z
" id="DejaVuSans-6c" transform="scale(0.015625)"/>
       <path d="M 3597 1894 
L 3597 1613 
L 953 1613 
Q 991 1019 1311 708 
Q 1631 397 2203 397 
Q 2534 397 2845 478 
Q 3156 559 3463 722 
L 3463 178 
Q 3153 47 2828 -22 
Q 2503 -91 2169 -91 
Q 1331 -91 842 396 
Q 353 884 353 1716 
Q 353 2575 817 3079 
Q 1281 3584 2069 3584 
Q 2775 3584 3186 3129 
Q 3597 2675 3597 1894 
z
M 3022 2063 
Q 3016 2534 2758 2815 
Q 2500 3097 2075 3097 
Q 1594 3097 1305 2825 
Q 1016 2553 972 2059 
L 3022 2063 
z
" id="DejaVuSans-65" transform="scale(0.015625)"/>
       <path id="DejaVuSans-20" transform="scale(0.015625)"/>
       <path d="M 269 3500 
L 844 3500 
L 1563 769 
L 2278 3500 
L 2956 3500 
L 3675 769 
L 4391 3500 
L 4966 3500 
L 4050 0 
L 3372 0 
L 2619 2869 
L 1863 0 
L 1184 0 
L 269 3500 
z
" id="DejaVuSans-77" transform="scale(0.015625)"/>
       <path d="M 603 3500 
L 1178 3500 
L 1178 0 
L 603 0 
L 603 3500 
z
M 603 4863 
L 1178 4863 
L 1178 4134 
L 603 4134 
L 603 4863 
z
" id="DejaVuSans-69" transform="scale(0.015625)"/>
       <path d="M 1172 4494 
L 1172 3500 
L 2356 3500 
L 2356 3053 
L 1172 3053 
L 1172 1153 
Q 1172 725 1289 603 
Q 1406 481 1766 481 
L 2356 481 
L 2356 0 
L 1766 0 
Q 1100 0 847 248 
Q 594 497 594 1153 
L 594 3053 
L 172 3053 
L 172 3500 
L 594 3500 
L 594 4494 
L 1172 4494 
z
" id="DejaVuSans-74" transform="scale(0.015625)"/>
       <path d="M 3513 2113 
L 3513 0 
L 2938 0 
L 2938 2094 
Q 2938 2591 2744 2837 
Q 2550 3084 2163 3084 
Q 1697 3084 1428 2787 
Q 1159 2491 1159 1978 
L 1159 0 
L 581 0 
L 581 4863 
L 1159 4863 
L 1159 2956 
Q 1366 3272 1645 3428 
Q 1925 3584 2291 3584 
Q 2894 3584 3203 3211 
Q 3513 2838 3513 2113 
z
" id="DejaVuSans-68" transform="scale(0.015625)"/>
       <path d="M 1959 3097 
Q 1497 3097 1228 2736 
Q 959 2375 959 1747 
Q 959 1119 1226 758 
Q 1494 397 1959 397 
Q 2419 397 2687 759 
Q 2956 1122 2956 1747 
Q 2956 2369 2687 2733 
Q 2419 3097 1959 3097 
z
M 1959 3584 
Q 2709 3584 3137 3096 
Q 3566 2609 3566 1747 
Q 3566 888 3137 398 
Q 2709 -91 1959 -91 
Q 1206 -91 779 398 
Q 353 888 353 1747 
Q 353 2609 779 3096 
Q 1206 3584 1959 3584 
z
" id="DejaVuSans-6f" transform="scale(0.015625)"/>
       <path d="M 2631 2963 
Q 2534 3019 2420 3045 
Q 2306 3072 2169 3072 
Q 1681 3072 1420 2755 
Q 1159 2438 1159 1844 
L 1159 0 
L 581 0 
L 581 3500 
L 1159 3500 
L 1159 2956 
Q 1341 3275 1631 3429 
Q 1922 3584 2338 3584 
Q 2397 3584 2469 3576 
Q 2541 3569 2628 3553 
L 2631 2963 
z
" id="DejaVuSans-72" transform="scale(0.015625)"/>
       <path d="M 3328 2828 
Q 3544 3216 3844 3400 
Q 4144 3584 4550 3584 
Q 5097 3584 5394 3201 
Q 5691 2819 5691 2113 
L 5691 0 
L 5113 0 
L 5113 2094 
Q 5113 2597 4934 2840 
Q 4756 3084 4391 3084 
Q 3944 3084 3684 2787 
Q 3425 2491 3425 1978 
L 3425 0 
L 2847 0 
L 2847 2094 
Q 2847 2600 2669 2842 
Q 2491 3084 2119 3084 
Q 1678 3084 1418 2786 
Q 1159 2488 1159 1978 
L 1159 0 
L 581 0 
L 581 3500 
L 1159 3500 
L 1159 2956 
Q 1356 3278 1631 3431 
Q 1906 3584 2284 3584 
Q 2666 3584 2933 3390 
Q 3200 3197 3328 2828 
z
" id="DejaVuSans-6d" transform="scale(0.015625)"/>
       <path d="M 2194 1759 
Q 1497 1759 1228 1600 
Q 959 1441 959 1056 
Q 959 750 1161 570 
Q 1363 391 1709 391 
Q 2188 391 2477 730 
Q 2766 1069 2766 1631 
L 2766 1759 
L 2194 1759 
z
M 3341 1997 
L 3341 0 
L 2766 0 
L 2766 531 
Q 2569 213 2275 61 
Q 1981 -91 1556 -91 
Q 1019 -91 701 211 
Q 384 513 384 1019 
Q 384 1609 779 1909 
Q 1175 2209 1959 2209 
L 2766 2209 
L 2766 2266 
Q 2766 2663 2505 2880 
Q 2244 3097 1772 3097 
Q 1472 3097 1187 3025 
Q 903 2953 641 2809 
L 641 3341 
Q 956 3463 1253 3523 
Q 1550 3584 1831 3584 
Q 2591 3584 2966 3190 
Q 3341 2797 3341 1997 
z
" id="DejaVuSans-61" transform="scale(0.015625)"/>
       <path d="M 1984 4856 
Q 1566 4138 1362 3434 
Q 1159 2731 1159 2009 
Q 1159 1288 1364 580 
Q 1569 -128 1984 -844 
L 1484 -844 
Q 1016 -109 783 600 
Q 550 1309 550 2009 
Q 550 2706 781 3412 
Q 1013 4119 1484 4856 
L 1984 4856 
z
" id="DejaVuSans-28" transform="scale(0.015625)"/>
       <path d="M 2906 2969 
L 2906 4863 
L 3481 4863 
L 3481 0 
L 2906 0 
L 2906 525 
Q 2725 213 2448 61 
Q 2172 -91 1784 -91 
Q 1150 -91 751 415 
Q 353 922 353 1747 
Q 353 2572 751 3078 
Q 1150 3584 1784 3584 
Q 2172 3584 2448 3432 
Q 2725 3281 2906 2969 
z
M 947 1747 
Q 947 1113 1208 752 
Q 1469 391 1925 391 
Q 2381 391 2643 752 
Q 2906 1113 2906 1747 
Q 2906 2381 2643 2742 
Q 2381 3103 1925 3103 
Q 1469 3103 1208 2742 
Q 947 2381 947 1747 
z
" id="DejaVuSans-64" transform="scale(0.015625)"/>
       <path d="M 513 4856 
L 1013 4856 
Q 1481 4119 1714 3412 
Q 1947 2706 1947 2009 
Q 1947 1309 1714 600 
Q 1481 -109 1013 -844 
L 513 -844 
Q 928 -128 1133 580 
Q 1338 1288 1338 2009 
Q 1338 2731 1133 3434 
Q 928 4138 513 4856 
z
" id="DejaVuSans-29" transform="scale(0.015625)"/>
      </defs>
      <use xlink:href="#DejaVuSans-41"/>
      <use x="68.408203" xlink:href="#DejaVuSans-6e"/>
      <use x="131.787109" xlink:href="#DejaVuSans-67"/>
      <use x="195.263672" xlink:href="#DejaVuSans-6c"/>
      <use x="223.046875" xlink:href="#DejaVuSans-65"/>
      <use x="284.570312" xlink:href="#DejaVuSans-20"/>
      <use x="316.357422" xlink:href="#DejaVuSans-77"/>
      <use x="398.144531" xlink:href="#DejaVuSans-69"/>
      <use x="425.927734" xlink:href="#DejaVuSans-74"/>
      <use x="465.136719" xlink:href="#DejaVuSans-68"/>
      <use x="528.515625" xlink:href="#DejaVuSans-20"/>
      <use x="560.302734" xlink:href="#DejaVuSans-6e"/>
      <use x="623.681641" xlink:href="#DejaVuSans-6f"/>
      <use x="684.863281" xlink:href="#DejaVuSans-72"/>
      <use x="724.226562" xlink:href="#DejaVuSans-6d"/>
      <use x="821.638672" xlink:href="#DejaVuSans-61"/>
      <use x="882.917969" xlink:href="#DejaVuSans-6c"/>
      <use x="910.701172" xlink:href="#DejaVuSans-20"/>
      <use x="942.488281" xlink:href="#DejaVuSans-28"/>
      <use x="981.501953" xlink:href="#DejaVuSans-72"/>
      <use x="1022.615234" xlink:href="#DejaVuSans-61"/>
      <use x="1083.894531" xlink:href="#DejaVuSans-64"/>
      <use x="1147.371094" xlink:href="#DejaVuSans-29"/>
     </g>
    </g>
   </g>
   <g id="matplotlib.axis_2">
    <g id="ytick_1">
     <g id="line2d_10">
      <defs>
       <path d="M 0 0 
L -3.5 0 
" id="m9e03e2bc17" style="stroke:#000000;stroke-width:0.8;"/>
      </defs>
      <g>
       <use style="stroke:#000000;stroke-width:0.8;" x="43.78125" xlink:href="#m9e03e2bc17" y="273.312"/>
      </g>
     </g>
     <g id="text_11">
      <!-- 0.0 -->
      <g transform="translate(20.878125 277.111219)scale(0.1 -0.1)">
       <use xlink:href="#DejaVuSans-30"/>
       <use x="63.623047" xlink:href="#DejaVuSans-2e"/>
       <use x="95.410156" xlink:href="#DejaVuSans-30"/>
      </g>
     </g>
    </g>
    <g id="ytick_2">
     <g id="line2d_11">
      <g>
       <use style="stroke:#000000;stroke-width:0.8;" x="43.78125" xlink:href="#m9e03e2bc17" y="227.055938"/>
      </g>
     </g>
     <g id="text_12">
      <!-- 0.2 -->
      <g transform="translate(20.878125 230.855157)scale(0.1 -0.1)">
       <use xlink:href="#DejaVuSans-30"/>
       <use x="63.623047" xlink:href="#DejaVuSans-2e"/>
       <use x="95.410156" xlink:href="#DejaVuSans-32"/>
      </g>
     </g>
    </g>
    <g id="ytick_3">
     <g id="line2d_12">
      <g>
       <use style="stroke:#000000;stroke-width:0.8;" x="43.78125" xlink:href="#m9e03e2bc17" y="180.799876"/>
      </g>
     </g>
     <g id="text_13">
      <!-- 0.4 -->
      <g transform="translate(20.878125 184.599095)scale(0.1 -0.1)">
       <use xlink:href="#DejaVuSans-30"/>
       <use x="63.623047" xlink:href="#DejaVuSans-2e"/>
       <use x="95.410156" xlink:href="#DejaVuSans-34"/>
      </g>
     </g>
    </g>
    <g id="ytick_4">
     <g id="line2d_13">
      <g>
       <use style="stroke:#000000;stroke-width:0.8;" x="43.78125" xlink:href="#m9e03e2bc17" y="134.543814"/>
      </g>
     </g>
     <g id="text_14">
      <!-- 0.6 -->
      <g transform="translate(20.878125 138.343033)scale(0.1 -0.1)">
       <use xlink:href="#DejaVuSans-30"/>
       <use x="63.623047" xlink:href="#DejaVuSans-2e"/>
       <use x="95.410156" xlink:href="#DejaVuSans-36"/>
      </g>
     </g>
    </g>
    <g id="ytick_5">
     <g id="line2d_14">
      <g>
       <use style="stroke:#000000;stroke-width:0.8;" x="43.78125" xlink:href="#m9e03e2bc17" y="88.287752"/>
      </g>
     </g>
     <g id="text_15">
      <!-- 0.8 -->
      <g transform="translate(20.878125 92.086971)scale(0.1 -0.1)">
       <use xlink:href="#DejaVuSans-30"/>
       <use x="63.623047" xlink:href="#DejaVuSans-2e"/>
       <use x="95.410156" xlink:href="#DejaVuSans-38"/>
      </g>
     </g>
    </g>
    <g id="ytick_6">
     <g id="line2d_15">
      <g>
       <use style="stroke:#000000;stroke-width:0.8;" x="43.78125" xlink:href="#m9e03e2bc17" y="42.031691"/>
      </g>
     </g>
     <g id="text_16">
      <!-- 1.0 -->
      <g transform="translate(20.878125 45.830909)scale(0.1 -0.1)">
       <use xlink:href="#DejaVuSans-31"/>
       <use x="63.623047" xlink:href="#DejaVuSans-2e"/>
       <use x="95.410156" xlink:href="#DejaVuSans-30"/>
      </g>
     </g>
    </g>
    <g id="text_17">
     <!-- Probability density -->
     <g transform="translate(14.798438 186.606781)rotate(-90)scale(0.1 -0.1)">
      <defs>
       <path d="M 1259 4147 
L 1259 2394 
L 2053 2394 
Q 2494 2394 2734 2622 
Q 2975 2850 2975 3272 
Q 2975 3691 2734 3919 
Q 2494 4147 2053 4147 
L 1259 4147 
z
M 628 4666 
L 2053 4666 
Q 2838 4666 3239 4311 
Q 3641 3956 3641 3272 
Q 3641 2581 3239 2228 
Q 2838 1875 2053 1875 
L 1259 1875 
L 1259 0 
L 628 0 
L 628 4666 
z
" id="DejaVuSans-50" transform="scale(0.015625)"/>
       <path d="M 3116 1747 
Q 3116 2381 2855 2742 
Q 2594 3103 2138 3103 
Q 1681 3103 1420 2742 
Q 1159 2381 1159 1747 
Q 1159 1113 1420 752 
Q 1681 391 2138 391 
Q 2594 391 2855 752 
Q 3116 1113 3116 1747 
z
M 1159 2969 
Q 1341 3281 1617 3432 
Q 1894 3584 2278 3584 
Q 2916 3584 3314 3078 
Q 3713 2572 3713 1747 
Q 3713 922 3314 415 
Q 2916 -91 2278 -91 
Q 1894 -91 1617 61 
Q 1341 213 1159 525 
L 1159 0 
L 581 0 
L 581 4863 
L 1159 4863 
L 1159 2969 
z
" id="DejaVuSans-62" transform="scale(0.015625)"/>
       <path d="M 2059 -325 
Q 1816 -950 1584 -1140 
Q 1353 -1331 966 -1331 
L 506 -1331 
L 506 -850 
L 844 -850 
Q 1081 -850 1212 -737 
Q 1344 -625 1503 -206 
L 1606 56 
L 191 3500 
L 800 3500 
L 1894 763 
L 2988 3500 
L 3597 3500 
L 2059 -325 
z
" id="DejaVuSans-79" transform="scale(0.015625)"/>
       <path d="M 2834 3397 
L 2834 2853 
Q 2591 2978 2328 3040 
Q 2066 3103 1784 3103 
Q 1356 3103 1142 2972 
Q 928 2841 928 2578 
Q 928 2378 1081 2264 
Q 1234 2150 1697 2047 
L 1894 2003 
Q 2506 1872 2764 1633 
Q 3022 1394 3022 966 
Q 3022 478 2636 193 
Q 2250 -91 1575 -91 
Q 1294 -91 989 -36 
Q 684 19 347 128 
L 347 722 
Q 666 556 975 473 
Q 1284 391 1588 391 
Q 1994 391 2212 530 
Q 2431 669 2431 922 
Q 2431 1156 2273 1281 
Q 2116 1406 1581 1522 
L 1381 1569 
Q 847 1681 609 1914 
Q 372 2147 372 2553 
Q 372 3047 722 3315 
Q 1072 3584 1716 3584 
Q 2034 3584 2315 3537 
Q 2597 3491 2834 3397 
z
" id="DejaVuSans-73" transform="scale(0.015625)"/>
      </defs>
      <use xlink:href="#DejaVuSans-50"/>
      <use x="58.552734" xlink:href="#DejaVuSans-72"/>
      <use x="97.416016" xlink:href="#DejaVuSans-6f"/>
      <use x="158.597656" xlink:href="#DejaVuSans-62"/>
      <use x="222.074219" xlink:href="#DejaVuSans-61"/>
      <use x="283.353516" xlink:href="#DejaVuSans-62"/>
      <use x="346.830078" xlink:href="#DejaVuSans-69"/>
      <use x="374.613281" xlink:href="#DejaVuSans-6c"/>
      <use x="402.396484" xlink:href="#DejaVuSans-69"/>
      <use x="430.179688" xlink:href="#DejaVuSans-74"/>
      <use x="469.388672" xlink:href="#DejaVuSans-79"/>
      <use x="528.568359" xlink:href="#DejaVuSans-20"/>
      <use x="560.355469" xlink:href="#DejaVuSans-64"/>
      <use x="623.832031" xlink:href="#DejaVuSans-65"/>
      <use x="685.355469" xlink:href="#DejaVuSans-6e"/>
      <use x="748.734375" xlink:href="#DejaVuSans-73"/>
      <use x="800.833984" xlink:href="#DejaVuSans-69"/>
      <use x="828.617188" xlink:href="#DejaVuSans-74"/>
      <use x="867.826172" xlink:href="#DejaVuSans-79"/>
     </g>
    </g>
   </g>
   <g id="line2d_16">
    <path clip-path="url(#p925765f2d9)" d="M 60.013977 273.312 
L 79.837728 229.217335 
L 90.237073 206.631761 
L 99.01152 188.090897 
L 106.811029 172.121543 
L 113.960578 157.986925 
L 120.460169 145.614359 
L 126.63478 134.327421 
L 132.484411 124.091463 
L 138.009063 114.862533 
L 143.208736 106.589607 
L 148.408408 98.738679 
L 153.283101 91.779382 
L 157.832814 85.648107 
L 162.382528 79.880526 
L 166.607261 74.860351 
L 170.831995 70.171802 
L 175.056729 65.822715 
L 178.956483 62.115766 
L 182.856238 58.709539 
L 186.755992 55.608884 
L 190.330767 53.038833 
L 193.905542 50.732338 
L 197.480316 48.692158 
L 201.055091 46.920735 
L 204.304886 45.545358 
L 207.554682 44.39521 
L 210.804477 43.471427 
L 214.054272 42.774924 
L 217.304067 42.306388 
L 220.553863 42.066284 
L 223.803658 42.054848 
L 227.053453 42.272093 
L 230.303248 42.717802 
L 233.553044 43.391536 
L 236.802839 44.292628 
L 240.052634 45.420188 
L 243.302429 46.773099 
L 246.552225 48.350025 
L 250.126999 50.341512 
L 253.701774 52.599782 
L 257.276549 55.122133 
L 260.851324 57.905548 
L 264.751078 61.235819 
L 268.650832 64.868067 
L 272.550587 68.797117 
L 276.77532 73.382024 
L 281.000054 78.301029 
L 285.549768 83.962613 
L 290.099481 89.991157 
L 294.974174 96.844237 
L 299.848867 104.089904 
L 305.048539 112.233156 
L 310.248212 120.784122 
L 315.772863 130.292031 
L 321.622495 140.804051 
L 327.797106 152.359864 
L 334.296696 164.98943 
L 341.446246 179.374729 
L 349.245755 195.577938 
L 358.020202 214.330878 
L 368.419546 237.095871 
L 383.693584 271.130085 
L 384.668523 273.312 
L 384.668523 273.312 
" style="fill:none;stroke:#ff7f0e;stroke-linecap:square;stroke-width:1.5;"/>
   </g>
   <g id="patch_203">
    <path d="M 43.78125 273.312 
L 43.78125 7.2 
" style="fill:none;stroke:#000000;stroke-linecap:square;stroke-linejoin:miter;stroke-width:0.8;"/>
   </g>
   <g id="patch_204">
    <path d="M 400.90125 273.312 
L 400.90125 7.2 
" style="fill:none;stroke:#000000;stroke-linecap:square;stroke-linejoin:miter;stroke-width:0.8;"/>
   </g>
   <g id="patch_205">
    <path d="M 43.78125 273.312 
L 400.90125 273.312 
" style="fill:none;stroke:#000000;stroke-linecap:square;stroke-linejoin:miter;stroke-width:0.8;"/>
   </g>
   <g id="patch_206">
    <path d="M 43.78125 7.2 
L 400.90125 7.2 
" style="fill:none;stroke:#000000;stroke-linecap:square;stroke-linejoin:miter;stroke-width:0.8;"/>
   </g>
  </g>
 </g>
 <defs>
  <clipPath id="p925765f2d9">
   <rect height="266.112" width="357.12" x="43.78125" y="7.2"/>
  </clipPath>
 </defs>
</svg>
