<?xml version="1.0" encoding="utf-8" standalone="no"?>
<!DOCTYPE svg PUBLIC "-//W3C//DTD SVG 1.1//EN"
  "http://www.w3.org/Graphics/SVG/1.1/DTD/svg11.dtd">
<svg height="310.86825pt" version="1.1" viewBox="0 0 414.46375 310.86825" width="414.46375pt" xmlns="http://www.w3.org/2000/svg" xmlns:xlink="http://www.w3.org/1999/xlink">
 <metadata>
  <rdf:RDF xmlns:cc="http://creativecommons.org/ns#" xmlns:dc="http://purl.org/dc/elements/1.1/" xmlns:rdf="http://www.w3.org/1999/02/22-rdf-syntax-ns#">
   <cc:Work>
    <dc:type rdf:resource="http://purl.org/dc/dcmitype/StillImage"/>
    <dc:date>2021-07-13T18:04:39.785947</dc:date>
    <dc:format>image/svg+xml</dc:format>
    <dc:creator>
     <cc:Agent>
      <dc:title>Matplotlib v3.4.2, https://matplotlib.org/</dc:title>
     </cc:Agent>
    </dc:creator>
   </cc:Work>
  </rdf:RDF>
 </metadata>
 <defs>
  <style type="text/css">*{stroke-linecap:butt;stroke-linejoin:round;}</style>
 </defs>
 <g id="figure_1">
  <g id="patch_1">
   <path d="M 0 310.86825 
L 414.46375 310.86825 
L 414.46375 0 
L 0 0 
z
" style="fill:#ffffff;"/>
  </g>
  <g id="axes_1">
   <g id="patch_2">
    <path d="M 50.14375 273.312 
L 407.26375 273.312 
L 407.26375 7.2 
L 50.14375 7.2 
z
" style="fill:#ffffff;"/>
   </g>
   <g id="patch_3">
    <path clip-path="url(#p06dd5a3e59)" d="M 68.280123 273.312 
L 69.893857 273.312 
L 69.893857 271.457561 
L 68.280123 271.457561 
z
" style="fill:#1f77b4;"/>
   </g>
   <g id="patch_4">
    <path clip-path="url(#p06dd5a3e59)" d="M 69.893857 273.312 
L 71.507591 273.312 
L 71.507591 268.984976 
L 69.893857 268.984976 
z
" style="fill:#1f77b4;"/>
   </g>
   <g id="patch_5">
    <path clip-path="url(#p06dd5a3e59)" d="M 71.507591 273.312 
L 73.121325 273.312 
L 73.121325 267.130537 
L 71.507591 267.130537 
z
" style="fill:#1f77b4;"/>
   </g>
   <g id="patch_6">
    <path clip-path="url(#p06dd5a3e59)" d="M 73.121325 273.312 
L 74.735059 273.312 
L 74.735059 265.276098 
L 73.121325 265.276098 
z
" style="fill:#1f77b4;"/>
   </g>
   <g id="patch_7">
    <path clip-path="url(#p06dd5a3e59)" d="M 74.735059 273.312 
L 76.348793 273.312 
L 76.348793 265.894244 
L 74.735059 265.894244 
z
" style="fill:#1f77b4;"/>
   </g>
   <g id="patch_8">
    <path clip-path="url(#p06dd5a3e59)" d="M 76.348793 273.312 
L 77.962527 273.312 
L 77.962527 260.949073 
L 76.348793 260.949073 
z
" style="fill:#1f77b4;"/>
   </g>
   <g id="patch_9">
    <path clip-path="url(#p06dd5a3e59)" d="M 77.962527 273.312 
L 79.576261 273.312 
L 79.576261 261.56722 
L 77.962527 261.56722 
z
" style="fill:#1f77b4;"/>
   </g>
   <g id="patch_10">
    <path clip-path="url(#p06dd5a3e59)" d="M 79.576261 273.312 
L 81.189995 273.312 
L 81.189995 257.240195 
L 79.576261 257.240195 
z
" style="fill:#1f77b4;"/>
   </g>
   <g id="patch_11">
    <path clip-path="url(#p06dd5a3e59)" d="M 81.189995 273.312 
L 82.80373 273.312 
L 82.80373 255.385756 
L 81.189995 255.385756 
z
" style="fill:#1f77b4;"/>
   </g>
   <g id="patch_12">
    <path clip-path="url(#p06dd5a3e59)" d="M 82.80373 273.312 
L 84.417464 273.312 
L 84.417464 264.657951 
L 82.80373 264.657951 
z
" style="fill:#1f77b4;"/>
   </g>
   <g id="patch_13">
    <path clip-path="url(#p06dd5a3e59)" d="M 84.417464 273.312 
L 86.031198 273.312 
L 86.031198 260.330927 
L 84.417464 260.330927 
z
" style="fill:#1f77b4;"/>
   </g>
   <g id="patch_14">
    <path clip-path="url(#p06dd5a3e59)" d="M 86.031198 273.312 
L 87.644932 273.312 
L 87.644932 259.094634 
L 86.031198 259.094634 
z
" style="fill:#1f77b4;"/>
   </g>
   <g id="patch_15">
    <path clip-path="url(#p06dd5a3e59)" d="M 87.644932 273.312 
L 89.258666 273.312 
L 89.258666 262.803512 
L 87.644932 262.803512 
z
" style="fill:#1f77b4;"/>
   </g>
   <g id="patch_16">
    <path clip-path="url(#p06dd5a3e59)" d="M 89.258666 273.312 
L 90.8724 273.312 
L 90.8724 247.349854 
L 89.258666 247.349854 
z
" style="fill:#1f77b4;"/>
   </g>
   <g id="patch_17">
    <path clip-path="url(#p06dd5a3e59)" d="M 90.8724 273.312 
L 92.486134 273.312 
L 92.486134 251.058732 
L 90.8724 251.058732 
z
" style="fill:#1f77b4;"/>
   </g>
   <g id="patch_18">
    <path clip-path="url(#p06dd5a3e59)" d="M 92.486134 273.312 
L 94.099868 273.312 
L 94.099868 252.295024 
L 92.486134 252.295024 
z
" style="fill:#1f77b4;"/>
   </g>
   <g id="patch_19">
    <path clip-path="url(#p06dd5a3e59)" d="M 94.099868 273.312 
L 95.713602 273.312 
L 95.713602 254.149463 
L 94.099868 254.149463 
z
" style="fill:#1f77b4;"/>
   </g>
   <g id="patch_20">
    <path clip-path="url(#p06dd5a3e59)" d="M 95.713602 273.312 
L 97.327336 273.312 
L 97.327336 258.476488 
L 95.713602 258.476488 
z
" style="fill:#1f77b4;"/>
   </g>
   <g id="patch_21">
    <path clip-path="url(#p06dd5a3e59)" d="M 97.327336 273.312 
L 98.941071 273.312 
L 98.941071 249.204293 
L 97.327336 249.204293 
z
" style="fill:#1f77b4;"/>
   </g>
   <g id="patch_22">
    <path clip-path="url(#p06dd5a3e59)" d="M 98.941071 273.312 
L 100.554805 273.312 
L 100.554805 247.968 
L 98.941071 247.968 
z
" style="fill:#1f77b4;"/>
   </g>
   <g id="patch_23">
    <path clip-path="url(#p06dd5a3e59)" d="M 100.554805 273.312 
L 102.168539 273.312 
L 102.168539 246.113561 
L 100.554805 246.113561 
z
" style="fill:#1f77b4;"/>
   </g>
   <g id="patch_24">
    <path clip-path="url(#p06dd5a3e59)" d="M 102.168539 273.312 
L 103.782273 273.312 
L 103.782273 241.786537 
L 102.168539 241.786537 
z
" style="fill:#1f77b4;"/>
   </g>
   <g id="patch_25">
    <path clip-path="url(#p06dd5a3e59)" d="M 103.782273 273.312 
L 105.396007 273.312 
L 105.396007 251.058732 
L 103.782273 251.058732 
z
" style="fill:#1f77b4;"/>
   </g>
   <g id="patch_26">
    <path clip-path="url(#p06dd5a3e59)" d="M 105.396007 273.312 
L 107.009741 273.312 
L 107.009741 244.877268 
L 105.396007 244.877268 
z
" style="fill:#1f77b4;"/>
   </g>
   <g id="patch_27">
    <path clip-path="url(#p06dd5a3e59)" d="M 107.009741 273.312 
L 108.623475 273.312 
L 108.623475 243.022829 
L 107.009741 243.022829 
z
" style="fill:#1f77b4;"/>
   </g>
   <g id="patch_28">
    <path clip-path="url(#p06dd5a3e59)" d="M 108.623475 273.312 
L 110.237209 273.312 
L 110.237209 238.695805 
L 108.623475 238.695805 
z
" style="fill:#1f77b4;"/>
   </g>
   <g id="patch_29">
    <path clip-path="url(#p06dd5a3e59)" d="M 110.237209 273.312 
L 111.850943 273.312 
L 111.850943 246.731707 
L 110.237209 246.731707 
z
" style="fill:#1f77b4;"/>
   </g>
   <g id="patch_30">
    <path clip-path="url(#p06dd5a3e59)" d="M 111.850943 273.312 
L 113.464677 273.312 
L 113.464677 230.659902 
L 111.850943 230.659902 
z
" style="fill:#1f77b4;"/>
   </g>
   <g id="patch_31">
    <path clip-path="url(#p06dd5a3e59)" d="M 113.464677 273.312 
L 115.078412 273.312 
L 115.078412 241.786537 
L 113.464677 241.786537 
z
" style="fill:#1f77b4;"/>
   </g>
   <g id="patch_32">
    <path clip-path="url(#p06dd5a3e59)" d="M 115.078412 273.312 
L 116.692146 273.312 
L 116.692146 240.550244 
L 115.078412 240.550244 
z
" style="fill:#1f77b4;"/>
   </g>
   <g id="patch_33">
    <path clip-path="url(#p06dd5a3e59)" d="M 116.692146 273.312 
L 118.30588 273.312 
L 118.30588 236.22322 
L 116.692146 236.22322 
z
" style="fill:#1f77b4;"/>
   </g>
   <g id="patch_34">
    <path clip-path="url(#p06dd5a3e59)" d="M 118.30588 273.312 
L 119.919614 273.312 
L 119.919614 215.82439 
L 118.30588 215.82439 
z
" style="fill:#1f77b4;"/>
   </g>
   <g id="patch_35">
    <path clip-path="url(#p06dd5a3e59)" d="M 119.919614 273.312 
L 121.533348 273.312 
L 121.533348 233.132488 
L 119.919614 233.132488 
z
" style="fill:#1f77b4;"/>
   </g>
   <g id="patch_36">
    <path clip-path="url(#p06dd5a3e59)" d="M 121.533348 273.312 
L 123.147082 273.312 
L 123.147082 236.841366 
L 121.533348 236.841366 
z
" style="fill:#1f77b4;"/>
   </g>
   <g id="patch_37">
    <path clip-path="url(#p06dd5a3e59)" d="M 123.147082 273.312 
L 124.760816 273.312 
L 124.760816 238.695805 
L 123.147082 238.695805 
z
" style="fill:#1f77b4;"/>
   </g>
   <g id="patch_38">
    <path clip-path="url(#p06dd5a3e59)" d="M 124.760816 273.312 
L 126.37455 273.312 
L 126.37455 225.096585 
L 124.760816 225.096585 
z
" style="fill:#1f77b4;"/>
   </g>
   <g id="patch_39">
    <path clip-path="url(#p06dd5a3e59)" d="M 126.37455 273.312 
L 127.988284 273.312 
L 127.988284 231.896195 
L 126.37455 231.896195 
z
" style="fill:#1f77b4;"/>
   </g>
   <g id="patch_40">
    <path clip-path="url(#p06dd5a3e59)" d="M 127.988284 273.312 
L 129.602019 273.312 
L 129.602019 217.678829 
L 127.988284 217.678829 
z
" style="fill:#1f77b4;"/>
   </g>
   <g id="patch_41">
    <path clip-path="url(#p06dd5a3e59)" d="M 129.602019 273.312 
L 131.215753 273.312 
L 131.215753 226.951024 
L 129.602019 226.951024 
z
" style="fill:#1f77b4;"/>
   </g>
   <g id="patch_42">
    <path clip-path="url(#p06dd5a3e59)" d="M 131.215753 273.312 
L 132.829487 273.312 
L 132.829487 225.714732 
L 131.215753 225.714732 
z
" style="fill:#1f77b4;"/>
   </g>
   <g id="patch_43">
    <path clip-path="url(#p06dd5a3e59)" d="M 132.829487 273.312 
L 134.443221 273.312 
L 134.443221 215.206244 
L 132.829487 215.206244 
z
" style="fill:#1f77b4;"/>
   </g>
   <g id="patch_44">
    <path clip-path="url(#p06dd5a3e59)" d="M 134.443221 273.312 
L 136.056955 273.312 
L 136.056955 230.659902 
L 134.443221 230.659902 
z
" style="fill:#1f77b4;"/>
   </g>
   <g id="patch_45">
    <path clip-path="url(#p06dd5a3e59)" d="M 136.056955 273.312 
L 137.670689 273.312 
L 137.670689 207.788488 
L 136.056955 207.788488 
z
" style="fill:#1f77b4;"/>
   </g>
   <g id="patch_46">
    <path clip-path="url(#p06dd5a3e59)" d="M 137.670689 273.312 
L 139.284423 273.312 
L 139.284423 222.005854 
L 137.670689 222.005854 
z
" style="fill:#1f77b4;"/>
   </g>
   <g id="patch_47">
    <path clip-path="url(#p06dd5a3e59)" d="M 139.284423 273.312 
L 140.898157 273.312 
L 140.898157 210.261073 
L 139.284423 210.261073 
z
" style="fill:#1f77b4;"/>
   </g>
   <g id="patch_48">
    <path clip-path="url(#p06dd5a3e59)" d="M 140.898157 273.312 
L 142.511891 273.312 
L 142.511891 224.478439 
L 140.898157 224.478439 
z
" style="fill:#1f77b4;"/>
   </g>
   <g id="patch_49">
    <path clip-path="url(#p06dd5a3e59)" d="M 142.511891 273.312 
L 144.125625 273.312 
L 144.125625 213.351805 
L 142.511891 213.351805 
z
" style="fill:#1f77b4;"/>
   </g>
   <g id="patch_50">
    <path clip-path="url(#p06dd5a3e59)" d="M 144.125625 273.312 
L 145.73936 273.312 
L 145.73936 216.442537 
L 144.125625 216.442537 
z
" style="fill:#1f77b4;"/>
   </g>
   <g id="patch_51">
    <path clip-path="url(#p06dd5a3e59)" d="M 145.73936 273.312 
L 147.353094 273.312 
L 147.353094 217.678829 
L 145.73936 217.678829 
z
" style="fill:#1f77b4;"/>
   </g>
   <g id="patch_52">
    <path clip-path="url(#p06dd5a3e59)" d="M 147.353094 273.312 
L 148.966828 273.312 
L 148.966828 221.387707 
L 147.353094 221.387707 
z
" style="fill:#1f77b4;"/>
   </g>
   <g id="patch_53">
    <path clip-path="url(#p06dd5a3e59)" d="M 148.966828 273.312 
L 150.580562 273.312 
L 150.580562 223.860293 
L 148.966828 223.860293 
z
" style="fill:#1f77b4;"/>
   </g>
   <g id="patch_54">
    <path clip-path="url(#p06dd5a3e59)" d="M 150.580562 273.312 
L 152.194296 273.312 
L 152.194296 220.769561 
L 150.580562 220.769561 
z
" style="fill:#1f77b4;"/>
   </g>
   <g id="patch_55">
    <path clip-path="url(#p06dd5a3e59)" d="M 152.194296 273.312 
L 153.80803 273.312 
L 153.80803 211.497366 
L 152.194296 211.497366 
z
" style="fill:#1f77b4;"/>
   </g>
   <g id="patch_56">
    <path clip-path="url(#p06dd5a3e59)" d="M 153.80803 273.312 
L 155.421764 273.312 
L 155.421764 204.697756 
L 153.80803 204.697756 
z
" style="fill:#1f77b4;"/>
   </g>
   <g id="patch_57">
    <path clip-path="url(#p06dd5a3e59)" d="M 155.421764 273.312 
L 157.035498 273.312 
L 157.035498 200.988878 
L 155.421764 200.988878 
z
" style="fill:#1f77b4;"/>
   </g>
   <g id="patch_58">
    <path clip-path="url(#p06dd5a3e59)" d="M 157.035498 273.312 
L 158.649232 273.312 
L 158.649232 199.134439 
L 157.035498 199.134439 
z
" style="fill:#1f77b4;"/>
   </g>
   <g id="patch_59">
    <path clip-path="url(#p06dd5a3e59)" d="M 158.649232 273.312 
L 160.262966 273.312 
L 160.262966 210.261073 
L 158.649232 210.261073 
z
" style="fill:#1f77b4;"/>
   </g>
   <g id="patch_60">
    <path clip-path="url(#p06dd5a3e59)" d="M 160.262966 273.312 
L 161.876701 273.312 
L 161.876701 212.115512 
L 160.262966 212.115512 
z
" style="fill:#1f77b4;"/>
   </g>
   <g id="patch_61">
    <path clip-path="url(#p06dd5a3e59)" d="M 161.876701 273.312 
L 163.490435 273.312 
L 163.490435 215.82439 
L 161.876701 215.82439 
z
" style="fill:#1f77b4;"/>
   </g>
   <g id="patch_62">
    <path clip-path="url(#p06dd5a3e59)" d="M 163.490435 273.312 
L 165.104169 273.312 
L 165.104169 199.752585 
L 163.490435 199.752585 
z
" style="fill:#1f77b4;"/>
   </g>
   <g id="patch_63">
    <path clip-path="url(#p06dd5a3e59)" d="M 165.104169 273.312 
L 166.717903 273.312 
L 166.717903 197.898146 
L 165.104169 197.898146 
z
" style="fill:#1f77b4;"/>
   </g>
   <g id="patch_64">
    <path clip-path="url(#p06dd5a3e59)" d="M 166.717903 273.312 
L 168.331637 273.312 
L 168.331637 182.444488 
L 166.717903 182.444488 
z
" style="fill:#1f77b4;"/>
   </g>
   <g id="patch_65">
    <path clip-path="url(#p06dd5a3e59)" d="M 168.331637 273.312 
L 169.945371 273.312 
L 169.945371 208.406634 
L 168.331637 208.406634 
z
" style="fill:#1f77b4;"/>
   </g>
   <g id="patch_66">
    <path clip-path="url(#p06dd5a3e59)" d="M 169.945371 273.312 
L 171.559105 273.312 
L 171.559105 188.625951 
L 169.945371 188.625951 
z
" style="fill:#1f77b4;"/>
   </g>
   <g id="patch_67">
    <path clip-path="url(#p06dd5a3e59)" d="M 171.559105 273.312 
L 173.172839 273.312 
L 173.172839 192.334829 
L 171.559105 192.334829 
z
" style="fill:#1f77b4;"/>
   </g>
   <g id="patch_68">
    <path clip-path="url(#p06dd5a3e59)" d="M 173.172839 273.312 
L 174.786573 273.312 
L 174.786573 195.425561 
L 173.172839 195.425561 
z
" style="fill:#1f77b4;"/>
   </g>
   <g id="patch_69">
    <path clip-path="url(#p06dd5a3e59)" d="M 174.786573 273.312 
L 176.400307 273.312 
L 176.400307 173.790439 
L 174.786573 173.790439 
z
" style="fill:#1f77b4;"/>
   </g>
   <g id="patch_70">
    <path clip-path="url(#p06dd5a3e59)" d="M 176.400307 273.312 
L 178.014042 273.312 
L 178.014042 179.353756 
L 176.400307 179.353756 
z
" style="fill:#1f77b4;"/>
   </g>
   <g id="patch_71">
    <path clip-path="url(#p06dd5a3e59)" d="M 178.014042 273.312 
L 179.627776 273.312 
L 179.627776 193.571122 
L 178.014042 193.571122 
z
" style="fill:#1f77b4;"/>
   </g>
   <g id="patch_72">
    <path clip-path="url(#p06dd5a3e59)" d="M 179.627776 273.312 
L 181.24151 273.312 
L 181.24151 178.117463 
L 179.627776 178.117463 
z
" style="fill:#1f77b4;"/>
   </g>
   <g id="patch_73">
    <path clip-path="url(#p06dd5a3e59)" d="M 181.24151 273.312 
L 182.855244 273.312 
L 182.855244 189.244098 
L 181.24151 189.244098 
z
" style="fill:#1f77b4;"/>
   </g>
   <g id="patch_74">
    <path clip-path="url(#p06dd5a3e59)" d="M 182.855244 273.312 
L 184.468978 273.312 
L 184.468978 182.444488 
L 182.855244 182.444488 
z
" style="fill:#1f77b4;"/>
   </g>
   <g id="patch_75">
    <path clip-path="url(#p06dd5a3e59)" d="M 184.468978 273.312 
L 186.082712 273.312 
L 186.082712 174.408585 
L 184.468978 174.408585 
z
" style="fill:#1f77b4;"/>
   </g>
   <g id="patch_76">
    <path clip-path="url(#p06dd5a3e59)" d="M 186.082712 273.312 
L 187.696446 273.312 
L 187.696446 175.026732 
L 186.082712 175.026732 
z
" style="fill:#1f77b4;"/>
   </g>
   <g id="patch_77">
    <path clip-path="url(#p06dd5a3e59)" d="M 187.696446 273.312 
L 189.31018 273.312 
L 189.31018 178.117463 
L 187.696446 178.117463 
z
" style="fill:#1f77b4;"/>
   </g>
   <g id="patch_78">
    <path clip-path="url(#p06dd5a3e59)" d="M 189.31018 273.312 
L 190.923914 273.312 
L 190.923914 172.554146 
L 189.31018 172.554146 
z
" style="fill:#1f77b4;"/>
   </g>
   <g id="patch_79">
    <path clip-path="url(#p06dd5a3e59)" d="M 190.923914 273.312 
L 192.537648 273.312 
L 192.537648 170.699707 
L 190.923914 170.699707 
z
" style="fill:#1f77b4;"/>
   </g>
   <g id="patch_80">
    <path clip-path="url(#p06dd5a3e59)" d="M 192.537648 273.312 
L 194.151383 273.312 
L 194.151383 178.117463 
L 192.537648 178.117463 
z
" style="fill:#1f77b4;"/>
   </g>
   <g id="patch_81">
    <path clip-path="url(#p06dd5a3e59)" d="M 194.151383 273.312 
L 195.765117 273.312 
L 195.765117 171.317854 
L 194.151383 171.317854 
z
" style="fill:#1f77b4;"/>
   </g>
   <g id="patch_82">
    <path clip-path="url(#p06dd5a3e59)" d="M 195.765117 273.312 
L 197.378851 273.312 
L 197.378851 173.790439 
L 195.765117 173.790439 
z
" style="fill:#1f77b4;"/>
   </g>
   <g id="patch_83">
    <path clip-path="url(#p06dd5a3e59)" d="M 197.378851 273.312 
L 198.992585 273.312 
L 198.992585 176.263024 
L 197.378851 176.263024 
z
" style="fill:#1f77b4;"/>
   </g>
   <g id="patch_84">
    <path clip-path="url(#p06dd5a3e59)" d="M 198.992585 273.312 
L 200.606319 273.312 
L 200.606319 181.208195 
L 198.992585 181.208195 
z
" style="fill:#1f77b4;"/>
   </g>
   <g id="patch_85">
    <path clip-path="url(#p06dd5a3e59)" d="M 200.606319 273.312 
L 202.220053 273.312 
L 202.220053 158.954927 
L 200.606319 158.954927 
z
" style="fill:#1f77b4;"/>
   </g>
   <g id="patch_86">
    <path clip-path="url(#p06dd5a3e59)" d="M 202.220053 273.312 
L 203.833787 273.312 
L 203.833787 180.590049 
L 202.220053 180.590049 
z
" style="fill:#1f77b4;"/>
   </g>
   <g id="patch_87">
    <path clip-path="url(#p06dd5a3e59)" d="M 203.833787 273.312 
L 205.447521 273.312 
L 205.447521 172.554146 
L 203.833787 172.554146 
z
" style="fill:#1f77b4;"/>
   </g>
   <g id="patch_88">
    <path clip-path="url(#p06dd5a3e59)" d="M 205.447521 273.312 
L 207.061255 273.312 
L 207.061255 163.281951 
L 205.447521 163.281951 
z
" style="fill:#1f77b4;"/>
   </g>
   <g id="patch_89">
    <path clip-path="url(#p06dd5a3e59)" d="M 207.061255 273.312 
L 208.674989 273.312 
L 208.674989 168.845268 
L 207.061255 168.845268 
z
" style="fill:#1f77b4;"/>
   </g>
   <g id="patch_90">
    <path clip-path="url(#p06dd5a3e59)" d="M 208.674989 273.312 
L 210.288724 273.312 
L 210.288724 161.427512 
L 208.674989 161.427512 
z
" style="fill:#1f77b4;"/>
   </g>
   <g id="patch_91">
    <path clip-path="url(#p06dd5a3e59)" d="M 210.288724 273.312 
L 211.902458 273.312 
L 211.902458 165.13639 
L 210.288724 165.13639 
z
" style="fill:#1f77b4;"/>
   </g>
   <g id="patch_92">
    <path clip-path="url(#p06dd5a3e59)" d="M 211.902458 273.312 
L 213.516192 273.312 
L 213.516192 165.13639 
L 211.902458 165.13639 
z
" style="fill:#1f77b4;"/>
   </g>
   <g id="patch_93">
    <path clip-path="url(#p06dd5a3e59)" d="M 213.516192 273.312 
L 215.129926 273.312 
L 215.129926 157.718634 
L 213.516192 157.718634 
z
" style="fill:#1f77b4;"/>
   </g>
   <g id="patch_94">
    <path clip-path="url(#p06dd5a3e59)" d="M 215.129926 273.312 
L 216.74366 273.312 
L 216.74366 165.754537 
L 215.129926 165.754537 
z
" style="fill:#1f77b4;"/>
   </g>
   <g id="patch_95">
    <path clip-path="url(#p06dd5a3e59)" d="M 216.74366 273.312 
L 218.357394 273.312 
L 218.357394 169.463415 
L 216.74366 169.463415 
z
" style="fill:#1f77b4;"/>
   </g>
   <g id="patch_96">
    <path clip-path="url(#p06dd5a3e59)" d="M 218.357394 273.312 
L 219.971128 273.312 
L 219.971128 150.919024 
L 218.357394 150.919024 
z
" style="fill:#1f77b4;"/>
   </g>
   <g id="patch_97">
    <path clip-path="url(#p06dd5a3e59)" d="M 219.971128 273.312 
L 221.584862 273.312 
L 221.584862 144.737561 
L 219.971128 144.737561 
z
" style="fill:#1f77b4;"/>
   </g>
   <g id="patch_98">
    <path clip-path="url(#p06dd5a3e59)" d="M 221.584862 273.312 
L 223.198596 273.312 
L 223.198596 152.155317 
L 221.584862 152.155317 
z
" style="fill:#1f77b4;"/>
   </g>
   <g id="patch_99">
    <path clip-path="url(#p06dd5a3e59)" d="M 223.198596 273.312 
L 224.812331 273.312 
L 224.812331 136.701659 
L 223.198596 136.701659 
z
" style="fill:#1f77b4;"/>
   </g>
   <g id="patch_100">
    <path clip-path="url(#p06dd5a3e59)" d="M 224.812331 273.312 
L 226.426065 273.312 
L 226.426065 158.33678 
L 224.812331 158.33678 
z
" style="fill:#1f77b4;"/>
   </g>
   <g id="patch_101">
    <path clip-path="url(#p06dd5a3e59)" d="M 226.426065 273.312 
L 228.039799 273.312 
L 228.039799 138.556098 
L 226.426065 138.556098 
z
" style="fill:#1f77b4;"/>
   </g>
   <g id="patch_102">
    <path clip-path="url(#p06dd5a3e59)" d="M 228.039799 273.312 
L 229.653533 273.312 
L 229.653533 150.919024 
L 228.039799 150.919024 
z
" style="fill:#1f77b4;"/>
   </g>
   <g id="patch_103">
    <path clip-path="url(#p06dd5a3e59)" d="M 229.653533 273.312 
L 231.267267 273.312 
L 231.267267 168.845268 
L 229.653533 168.845268 
z
" style="fill:#1f77b4;"/>
   </g>
   <g id="patch_104">
    <path clip-path="url(#p06dd5a3e59)" d="M 231.267267 273.312 
L 232.881001 273.312 
L 232.881001 132.99278 
L 231.267267 132.99278 
z
" style="fill:#1f77b4;"/>
   </g>
   <g id="patch_105">
    <path clip-path="url(#p06dd5a3e59)" d="M 232.881001 273.312 
L 234.494735 273.312 
L 234.494735 158.33678 
L 232.881001 158.33678 
z
" style="fill:#1f77b4;"/>
   </g>
   <g id="patch_106">
    <path clip-path="url(#p06dd5a3e59)" d="M 234.494735 273.312 
L 236.108469 273.312 
L 236.108469 153.39161 
L 234.494735 153.39161 
z
" style="fill:#1f77b4;"/>
   </g>
   <g id="patch_107">
    <path clip-path="url(#p06dd5a3e59)" d="M 236.108469 273.312 
L 237.722203 273.312 
L 237.722203 150.300878 
L 236.108469 150.300878 
z
" style="fill:#1f77b4;"/>
   </g>
   <g id="patch_108">
    <path clip-path="url(#p06dd5a3e59)" d="M 237.722203 273.312 
L 239.335937 273.312 
L 239.335937 154.009756 
L 237.722203 154.009756 
z
" style="fill:#1f77b4;"/>
   </g>
   <g id="patch_109">
    <path clip-path="url(#p06dd5a3e59)" d="M 239.335937 273.312 
L 240.949672 273.312 
L 240.949672 131.756488 
L 239.335937 131.756488 
z
" style="fill:#1f77b4;"/>
   </g>
   <g id="patch_110">
    <path clip-path="url(#p06dd5a3e59)" d="M 240.949672 273.312 
L 242.563406 273.312 
L 242.563406 145.973854 
L 240.949672 145.973854 
z
" style="fill:#1f77b4;"/>
   </g>
   <g id="patch_111">
    <path clip-path="url(#p06dd5a3e59)" d="M 242.563406 273.312 
L 244.17714 273.312 
L 244.17714 141.028683 
L 242.563406 141.028683 
z
" style="fill:#1f77b4;"/>
   </g>
   <g id="patch_112">
    <path clip-path="url(#p06dd5a3e59)" d="M 244.17714 273.312 
L 245.790874 273.312 
L 245.790874 142.883122 
L 244.17714 142.883122 
z
" style="fill:#1f77b4;"/>
   </g>
   <g id="patch_113">
    <path clip-path="url(#p06dd5a3e59)" d="M 245.790874 273.312 
L 247.404608 273.312 
L 247.404608 141.028683 
L 245.790874 141.028683 
z
" style="fill:#1f77b4;"/>
   </g>
   <g id="patch_114">
    <path clip-path="url(#p06dd5a3e59)" d="M 247.404608 273.312 
L 249.018342 273.312 
L 249.018342 137.319805 
L 247.404608 137.319805 
z
" style="fill:#1f77b4;"/>
   </g>
   <g id="patch_115">
    <path clip-path="url(#p06dd5a3e59)" d="M 249.018342 273.312 
L 250.632076 273.312 
L 250.632076 121.866146 
L 249.018342 121.866146 
z
" style="fill:#1f77b4;"/>
   </g>
   <g id="patch_116">
    <path clip-path="url(#p06dd5a3e59)" d="M 250.632076 273.312 
L 252.24581 273.312 
L 252.24581 141.646829 
L 250.632076 141.646829 
z
" style="fill:#1f77b4;"/>
   </g>
   <g id="patch_117">
    <path clip-path="url(#p06dd5a3e59)" d="M 252.24581 273.312 
L 253.859544 273.312 
L 253.859544 130.520195 
L 252.24581 130.520195 
z
" style="fill:#1f77b4;"/>
   </g>
   <g id="patch_118">
    <path clip-path="url(#p06dd5a3e59)" d="M 253.859544 273.312 
L 255.473278 273.312 
L 255.473278 124.338732 
L 253.859544 124.338732 
z
" style="fill:#1f77b4;"/>
   </g>
   <g id="patch_119">
    <path clip-path="url(#p06dd5a3e59)" d="M 255.473278 273.312 
L 257.087013 273.312 
L 257.087013 120.629854 
L 255.473278 120.629854 
z
" style="fill:#1f77b4;"/>
   </g>
   <g id="patch_120">
    <path clip-path="url(#p06dd5a3e59)" d="M 257.087013 273.312 
L 258.700747 273.312 
L 258.700747 136.701659 
L 257.087013 136.701659 
z
" style="fill:#1f77b4;"/>
   </g>
   <g id="patch_121">
    <path clip-path="url(#p06dd5a3e59)" d="M 258.700747 273.312 
L 260.314481 273.312 
L 260.314481 137.937951 
L 258.700747 137.937951 
z
" style="fill:#1f77b4;"/>
   </g>
   <g id="patch_122">
    <path clip-path="url(#p06dd5a3e59)" d="M 260.314481 273.312 
L 261.928215 273.312 
L 261.928215 138.556098 
L 260.314481 138.556098 
z
" style="fill:#1f77b4;"/>
   </g>
   <g id="patch_123">
    <path clip-path="url(#p06dd5a3e59)" d="M 261.928215 273.312 
L 263.541949 273.312 
L 263.541949 130.520195 
L 261.928215 130.520195 
z
" style="fill:#1f77b4;"/>
   </g>
   <g id="patch_124">
    <path clip-path="url(#p06dd5a3e59)" d="M 263.541949 273.312 
L 265.155683 273.312 
L 265.155683 122.484293 
L 263.541949 122.484293 
z
" style="fill:#1f77b4;"/>
   </g>
   <g id="patch_125">
    <path clip-path="url(#p06dd5a3e59)" d="M 265.155683 273.312 
L 266.769417 273.312 
L 266.769417 95.904 
L 265.155683 95.904 
z
" style="fill:#1f77b4;"/>
   </g>
   <g id="patch_126">
    <path clip-path="url(#p06dd5a3e59)" d="M 266.769417 273.312 
L 268.383151 273.312 
L 268.383151 137.319805 
L 266.769417 137.319805 
z
" style="fill:#1f77b4;"/>
   </g>
   <g id="patch_127">
    <path clip-path="url(#p06dd5a3e59)" d="M 268.383151 273.312 
L 269.996885 273.312 
L 269.996885 118.775415 
L 268.383151 118.775415 
z
" style="fill:#1f77b4;"/>
   </g>
   <g id="patch_128">
    <path clip-path="url(#p06dd5a3e59)" d="M 269.996885 273.312 
L 271.610619 273.312 
L 271.610619 108.885073 
L 269.996885 108.885073 
z
" style="fill:#1f77b4;"/>
   </g>
   <g id="patch_129">
    <path clip-path="url(#p06dd5a3e59)" d="M 271.610619 273.312 
L 273.224354 273.312 
L 273.224354 120.011707 
L 271.610619 120.011707 
z
" style="fill:#1f77b4;"/>
   </g>
   <g id="patch_130">
    <path clip-path="url(#p06dd5a3e59)" d="M 273.224354 273.312 
L 274.838088 273.312 
L 274.838088 124.338732 
L 273.224354 124.338732 
z
" style="fill:#1f77b4;"/>
   </g>
   <g id="patch_131">
    <path clip-path="url(#p06dd5a3e59)" d="M 274.838088 273.312 
L 276.451822 273.312 
L 276.451822 121.866146 
L 274.838088 121.866146 
z
" style="fill:#1f77b4;"/>
   </g>
   <g id="patch_132">
    <path clip-path="url(#p06dd5a3e59)" d="M 276.451822 273.312 
L 278.065556 273.312 
L 278.065556 97.140293 
L 276.451822 97.140293 
z
" style="fill:#1f77b4;"/>
   </g>
   <g id="patch_133">
    <path clip-path="url(#p06dd5a3e59)" d="M 278.065556 273.312 
L 279.67929 273.312 
L 279.67929 97.758439 
L 278.065556 97.758439 
z
" style="fill:#1f77b4;"/>
   </g>
   <g id="patch_134">
    <path clip-path="url(#p06dd5a3e59)" d="M 279.67929 273.312 
L 281.293024 273.312 
L 281.293024 111.357659 
L 279.67929 111.357659 
z
" style="fill:#1f77b4;"/>
   </g>
   <g id="patch_135">
    <path clip-path="url(#p06dd5a3e59)" d="M 281.293024 273.312 
L 282.906758 273.312 
L 282.906758 117.539122 
L 281.293024 117.539122 
z
" style="fill:#1f77b4;"/>
   </g>
   <g id="patch_136">
    <path clip-path="url(#p06dd5a3e59)" d="M 282.906758 273.312 
L 284.520492 273.312 
L 284.520492 126.193171 
L 282.906758 126.193171 
z
" style="fill:#1f77b4;"/>
   </g>
   <g id="patch_137">
    <path clip-path="url(#p06dd5a3e59)" d="M 284.520492 273.312 
L 286.134226 273.312 
L 286.134226 116.920976 
L 284.520492 116.920976 
z
" style="fill:#1f77b4;"/>
   </g>
   <g id="patch_138">
    <path clip-path="url(#p06dd5a3e59)" d="M 286.134226 273.312 
L 287.74796 273.312 
L 287.74796 95.285854 
L 286.134226 95.285854 
z
" style="fill:#1f77b4;"/>
   </g>
   <g id="patch_139">
    <path clip-path="url(#p06dd5a3e59)" d="M 287.74796 273.312 
L 289.361695 273.312 
L 289.361695 132.99278 
L 287.74796 132.99278 
z
" style="fill:#1f77b4;"/>
   </g>
   <g id="patch_140">
    <path clip-path="url(#p06dd5a3e59)" d="M 289.361695 273.312 
L 290.975429 273.312 
L 290.975429 86.631805 
L 289.361695 86.631805 
z
" style="fill:#1f77b4;"/>
   </g>
   <g id="patch_141">
    <path clip-path="url(#p06dd5a3e59)" d="M 290.975429 273.312 
L 292.589163 273.312 
L 292.589163 92.813268 
L 290.975429 92.813268 
z
" style="fill:#1f77b4;"/>
   </g>
   <g id="patch_142">
    <path clip-path="url(#p06dd5a3e59)" d="M 292.589163 273.312 
L 294.202897 273.312 
L 294.202897 101.467317 
L 292.589163 101.467317 
z
" style="fill:#1f77b4;"/>
   </g>
   <g id="patch_143">
    <path clip-path="url(#p06dd5a3e59)" d="M 294.202897 273.312 
L 295.816631 273.312 
L 295.816631 92.813268 
L 294.202897 92.813268 
z
" style="fill:#1f77b4;"/>
   </g>
   <g id="patch_144">
    <path clip-path="url(#p06dd5a3e59)" d="M 295.816631 273.312 
L 297.430365 273.312 
L 297.430365 103.939902 
L 295.816631 103.939902 
z
" style="fill:#1f77b4;"/>
   </g>
   <g id="patch_145">
    <path clip-path="url(#p06dd5a3e59)" d="M 297.430365 273.312 
L 299.044099 273.312 
L 299.044099 90.958829 
L 297.430365 90.958829 
z
" style="fill:#1f77b4;"/>
   </g>
   <g id="patch_146">
    <path clip-path="url(#p06dd5a3e59)" d="M 299.044099 273.312 
L 300.657833 273.312 
L 300.657833 111.357659 
L 299.044099 111.357659 
z
" style="fill:#1f77b4;"/>
   </g>
   <g id="patch_147">
    <path clip-path="url(#p06dd5a3e59)" d="M 300.657833 273.312 
L 302.271567 273.312 
L 302.271567 93.431415 
L 300.657833 93.431415 
z
" style="fill:#1f77b4;"/>
   </g>
   <g id="patch_148">
    <path clip-path="url(#p06dd5a3e59)" d="M 302.271567 273.312 
L 303.885301 273.312 
L 303.885301 78.595902 
L 302.271567 78.595902 
z
" style="fill:#1f77b4;"/>
   </g>
   <g id="patch_149">
    <path clip-path="url(#p06dd5a3e59)" d="M 303.885301 273.312 
L 305.499036 273.312 
L 305.499036 93.431415 
L 303.885301 93.431415 
z
" style="fill:#1f77b4;"/>
   </g>
   <g id="patch_150">
    <path clip-path="url(#p06dd5a3e59)" d="M 305.499036 273.312 
L 307.11277 273.312 
L 307.11277 98.994732 
L 305.499036 98.994732 
z
" style="fill:#1f77b4;"/>
   </g>
   <g id="patch_151">
    <path clip-path="url(#p06dd5a3e59)" d="M 307.11277 273.312 
L 308.726504 273.312 
L 308.726504 91.576976 
L 307.11277 91.576976 
z
" style="fill:#1f77b4;"/>
   </g>
   <g id="patch_152">
    <path clip-path="url(#p06dd5a3e59)" d="M 308.726504 273.312 
L 310.340238 273.312 
L 310.340238 93.431415 
L 308.726504 93.431415 
z
" style="fill:#1f77b4;"/>
   </g>
   <g id="patch_153">
    <path clip-path="url(#p06dd5a3e59)" d="M 310.340238 273.312 
L 311.953972 273.312 
L 311.953972 102.70361 
L 310.340238 102.70361 
z
" style="fill:#1f77b4;"/>
   </g>
   <g id="patch_154">
    <path clip-path="url(#p06dd5a3e59)" d="M 311.953972 273.312 
L 313.567706 273.312 
L 313.567706 63.142244 
L 311.953972 63.142244 
z
" style="fill:#1f77b4;"/>
   </g>
   <g id="patch_155">
    <path clip-path="url(#p06dd5a3e59)" d="M 313.567706 273.312 
L 315.18144 273.312 
L 315.18144 97.140293 
L 313.567706 97.140293 
z
" style="fill:#1f77b4;"/>
   </g>
   <g id="patch_156">
    <path clip-path="url(#p06dd5a3e59)" d="M 315.18144 273.312 
L 316.795174 273.312 
L 316.795174 97.140293 
L 315.18144 97.140293 
z
" style="fill:#1f77b4;"/>
   </g>
   <g id="patch_157">
    <path clip-path="url(#p06dd5a3e59)" d="M 316.795174 273.312 
L 318.408908 273.312 
L 318.408908 106.412488 
L 316.795174 106.412488 
z
" style="fill:#1f77b4;"/>
   </g>
   <g id="patch_158">
    <path clip-path="url(#p06dd5a3e59)" d="M 318.408908 273.312 
L 320.022642 273.312 
L 320.022642 90.958829 
L 318.408908 90.958829 
z
" style="fill:#1f77b4;"/>
   </g>
   <g id="patch_159">
    <path clip-path="url(#p06dd5a3e59)" d="M 320.022642 273.312 
L 321.636377 273.312 
L 321.636377 66.851122 
L 320.022642 66.851122 
z
" style="fill:#1f77b4;"/>
   </g>
   <g id="patch_160">
    <path clip-path="url(#p06dd5a3e59)" d="M 321.636377 273.312 
L 323.250111 273.312 
L 323.250111 80.450341 
L 321.636377 80.450341 
z
" style="fill:#1f77b4;"/>
   </g>
   <g id="patch_161">
    <path clip-path="url(#p06dd5a3e59)" d="M 323.250111 273.312 
L 324.863845 273.312 
L 324.863845 59.433366 
L 323.250111 59.433366 
z
" style="fill:#1f77b4;"/>
   </g>
   <g id="patch_162">
    <path clip-path="url(#p06dd5a3e59)" d="M 324.863845 273.312 
L 326.477579 273.312 
L 326.477579 74.887024 
L 324.863845 74.887024 
z
" style="fill:#1f77b4;"/>
   </g>
   <g id="patch_163">
    <path clip-path="url(#p06dd5a3e59)" d="M 326.477579 273.312 
L 328.091313 273.312 
L 328.091313 84.777366 
L 326.477579 84.777366 
z
" style="fill:#1f77b4;"/>
   </g>
   <g id="patch_164">
    <path clip-path="url(#p06dd5a3e59)" d="M 328.091313 273.312 
L 329.705047 273.312 
L 329.705047 74.268878 
L 328.091313 74.268878 
z
" style="fill:#1f77b4;"/>
   </g>
   <g id="patch_165">
    <path clip-path="url(#p06dd5a3e59)" d="M 329.705047 273.312 
L 331.318781 273.312 
L 331.318781 68.087415 
L 329.705047 68.087415 
z
" style="fill:#1f77b4;"/>
   </g>
   <g id="patch_166">
    <path clip-path="url(#p06dd5a3e59)" d="M 331.318781 273.312 
L 332.932515 273.312 
L 332.932515 74.268878 
L 331.318781 74.268878 
z
" style="fill:#1f77b4;"/>
   </g>
   <g id="patch_167">
    <path clip-path="url(#p06dd5a3e59)" d="M 332.932515 273.312 
L 334.546249 273.312 
L 334.546249 63.142244 
L 332.932515 63.142244 
z
" style="fill:#1f77b4;"/>
   </g>
   <g id="patch_168">
    <path clip-path="url(#p06dd5a3e59)" d="M 334.546249 273.312 
L 336.159984 273.312 
L 336.159984 81.686634 
L 334.546249 81.686634 
z
" style="fill:#1f77b4;"/>
   </g>
   <g id="patch_169">
    <path clip-path="url(#p06dd5a3e59)" d="M 336.159984 273.312 
L 337.773718 273.312 
L 337.773718 48.306732 
L 336.159984 48.306732 
z
" style="fill:#1f77b4;"/>
   </g>
   <g id="patch_170">
    <path clip-path="url(#p06dd5a3e59)" d="M 337.773718 273.312 
L 339.387452 273.312 
L 339.387452 72.414439 
L 337.773718 72.414439 
z
" style="fill:#1f77b4;"/>
   </g>
   <g id="patch_171">
    <path clip-path="url(#p06dd5a3e59)" d="M 339.387452 273.312 
L 341.001186 273.312 
L 341.001186 59.433366 
L 339.387452 59.433366 
z
" style="fill:#1f77b4;"/>
   </g>
   <g id="patch_172">
    <path clip-path="url(#p06dd5a3e59)" d="M 341.001186 273.312 
L 342.61492 273.312 
L 342.61492 60.051512 
L 341.001186 60.051512 
z
" style="fill:#1f77b4;"/>
   </g>
   <g id="patch_173">
    <path clip-path="url(#p06dd5a3e59)" d="M 342.61492 273.312 
L 344.228654 273.312 
L 344.228654 51.397463 
L 342.61492 51.397463 
z
" style="fill:#1f77b4;"/>
   </g>
   <g id="patch_174">
    <path clip-path="url(#p06dd5a3e59)" d="M 344.228654 273.312 
L 345.842388 273.312 
L 345.842388 71.796293 
L 344.228654 71.796293 
z
" style="fill:#1f77b4;"/>
   </g>
   <g id="patch_175">
    <path clip-path="url(#p06dd5a3e59)" d="M 345.842388 273.312 
L 347.456122 273.312 
L 347.456122 81.686634 
L 345.842388 81.686634 
z
" style="fill:#1f77b4;"/>
   </g>
   <g id="patch_176">
    <path clip-path="url(#p06dd5a3e59)" d="M 347.456122 273.312 
L 349.069856 273.312 
L 349.069856 66.851122 
L 347.456122 66.851122 
z
" style="fill:#1f77b4;"/>
   </g>
   <g id="patch_177">
    <path clip-path="url(#p06dd5a3e59)" d="M 349.069856 273.312 
L 350.68359 273.312 
L 350.68359 60.051512 
L 349.069856 60.051512 
z
" style="fill:#1f77b4;"/>
   </g>
   <g id="patch_178">
    <path clip-path="url(#p06dd5a3e59)" d="M 350.68359 273.312 
L 352.297325 273.312 
L 352.297325 30.380488 
L 350.68359 30.380488 
z
" style="fill:#1f77b4;"/>
   </g>
   <g id="patch_179">
    <path clip-path="url(#p06dd5a3e59)" d="M 352.297325 273.312 
L 353.911059 273.312 
L 353.911059 56.342634 
L 352.297325 56.342634 
z
" style="fill:#1f77b4;"/>
   </g>
   <g id="patch_180">
    <path clip-path="url(#p06dd5a3e59)" d="M 353.911059 273.312 
L 355.524793 273.312 
L 355.524793 52.633756 
L 353.911059 52.633756 
z
" style="fill:#1f77b4;"/>
   </g>
   <g id="patch_181">
    <path clip-path="url(#p06dd5a3e59)" d="M 355.524793 273.312 
L 357.138527 273.312 
L 357.138527 43.361561 
L 355.524793 43.361561 
z
" style="fill:#1f77b4;"/>
   </g>
   <g id="patch_182">
    <path clip-path="url(#p06dd5a3e59)" d="M 357.138527 273.312 
L 358.752261 273.312 
L 358.752261 47.688585 
L 357.138527 47.688585 
z
" style="fill:#1f77b4;"/>
   </g>
   <g id="patch_183">
    <path clip-path="url(#p06dd5a3e59)" d="M 358.752261 273.312 
L 360.365995 273.312 
L 360.365995 50.779317 
L 358.752261 50.779317 
z
" style="fill:#1f77b4;"/>
   </g>
   <g id="patch_184">
    <path clip-path="url(#p06dd5a3e59)" d="M 360.365995 273.312 
L 361.979729 273.312 
L 361.979729 35.325659 
L 360.365995 35.325659 
z
" style="fill:#1f77b4;"/>
   </g>
   <g id="patch_185">
    <path clip-path="url(#p06dd5a3e59)" d="M 361.979729 273.312 
L 363.593463 273.312 
L 363.593463 32.853073 
L 361.979729 32.853073 
z
" style="fill:#1f77b4;"/>
   </g>
   <g id="patch_186">
    <path clip-path="url(#p06dd5a3e59)" d="M 363.593463 273.312 
L 365.207197 273.312 
L 365.207197 55.106341 
L 363.593463 55.106341 
z
" style="fill:#1f77b4;"/>
   </g>
   <g id="patch_187">
    <path clip-path="url(#p06dd5a3e59)" d="M 365.207197 273.312 
L 366.820931 273.312 
L 366.820931 64.378537 
L 365.207197 64.378537 
z
" style="fill:#1f77b4;"/>
   </g>
   <g id="patch_188">
    <path clip-path="url(#p06dd5a3e59)" d="M 366.820931 273.312 
L 368.434666 273.312 
L 368.434666 62.524098 
L 366.820931 62.524098 
z
" style="fill:#1f77b4;"/>
   </g>
   <g id="patch_189">
    <path clip-path="url(#p06dd5a3e59)" d="M 368.434666 273.312 
L 370.0484 273.312 
L 370.0484 38.41639 
L 368.434666 38.41639 
z
" style="fill:#1f77b4;"/>
   </g>
   <g id="patch_190">
    <path clip-path="url(#p06dd5a3e59)" d="M 370.0484 273.312 
L 371.662134 273.312 
L 371.662134 32.234927 
L 370.0484 32.234927 
z
" style="fill:#1f77b4;"/>
   </g>
   <g id="patch_191">
    <path clip-path="url(#p06dd5a3e59)" d="M 371.662134 273.312 
L 373.275868 273.312 
L 373.275868 45.216 
L 371.662134 45.216 
z
" style="fill:#1f77b4;"/>
   </g>
   <g id="patch_192">
    <path clip-path="url(#p06dd5a3e59)" d="M 373.275868 273.312 
L 374.889602 273.312 
L 374.889602 41.507122 
L 373.275868 41.507122 
z
" style="fill:#1f77b4;"/>
   </g>
   <g id="patch_193">
    <path clip-path="url(#p06dd5a3e59)" d="M 374.889602 273.312 
L 376.503336 273.312 
L 376.503336 40.888976 
L 374.889602 40.888976 
z
" style="fill:#1f77b4;"/>
   </g>
   <g id="patch_194">
    <path clip-path="url(#p06dd5a3e59)" d="M 376.503336 273.312 
L 378.11707 273.312 
L 378.11707 35.943805 
L 376.503336 35.943805 
z
" style="fill:#1f77b4;"/>
   </g>
   <g id="patch_195">
    <path clip-path="url(#p06dd5a3e59)" d="M 378.11707 273.312 
L 379.730804 273.312 
L 379.730804 19.872 
L 378.11707 19.872 
z
" style="fill:#1f77b4;"/>
   </g>
   <g id="patch_196">
    <path clip-path="url(#p06dd5a3e59)" d="M 379.730804 273.312 
L 381.344538 273.312 
L 381.344538 27.907902 
L 379.730804 27.907902 
z
" style="fill:#1f77b4;"/>
   </g>
   <g id="patch_197">
    <path clip-path="url(#p06dd5a3e59)" d="M 381.344538 273.312 
L 382.958272 273.312 
L 382.958272 39.652683 
L 381.344538 39.652683 
z
" style="fill:#1f77b4;"/>
   </g>
   <g id="patch_198">
    <path clip-path="url(#p06dd5a3e59)" d="M 382.958272 273.312 
L 384.572007 273.312 
L 384.572007 45.216 
L 382.958272 45.216 
z
" style="fill:#1f77b4;"/>
   </g>
   <g id="patch_199">
    <path clip-path="url(#p06dd5a3e59)" d="M 384.572007 273.312 
L 386.185741 273.312 
L 386.185741 30.998634 
L 384.572007 30.998634 
z
" style="fill:#1f77b4;"/>
   </g>
   <g id="patch_200">
    <path clip-path="url(#p06dd5a3e59)" d="M 386.185741 273.312 
L 387.799475 273.312 
L 387.799475 37.798244 
L 386.185741 37.798244 
z
" style="fill:#1f77b4;"/>
   </g>
   <g id="patch_201">
    <path clip-path="url(#p06dd5a3e59)" d="M 387.799475 273.312 
L 389.413209 273.312 
L 389.413209 22.962732 
L 387.799475 22.962732 
z
" style="fill:#1f77b4;"/>
   </g>
   <g id="patch_202">
    <path clip-path="url(#p06dd5a3e59)" d="M 389.413209 273.312 
L 391.026943 273.312 
L 391.026943 27.289756 
L 389.413209 27.289756 
z
" style="fill:#1f77b4;"/>
   </g>
   <g id="matplotlib.axis_1">
    <g id="xtick_1">
     <g id="line2d_1">
      <defs>
       <path d="M 0 0 
L 0 3.5 
" id="m19fb2f9069" style="stroke:#000000;stroke-width:0.8;"/>
      </defs>
      <g>
       <use style="stroke:#000000;stroke-width:0.8;" x="66.376477" xlink:href="#m19fb2f9069" y="273.312"/>
      </g>
     </g>
     <g id="text_1">
      <!-- 0.0 -->
      <g transform="translate(58.424915 287.910437)scale(0.1 -0.1)">
       <defs>
        <path d="M 2034 4250 
Q 1547 4250 1301 3770 
Q 1056 3291 1056 2328 
Q 1056 1369 1301 889 
Q 1547 409 2034 409 
Q 2525 409 2770 889 
Q 3016 1369 3016 2328 
Q 3016 3291 2770 3770 
Q 2525 4250 2034 4250 
z
M 2034 4750 
Q 2819 4750 3233 4129 
Q 3647 3509 3647 2328 
Q 3647 1150 3233 529 
Q 2819 -91 2034 -91 
Q 1250 -91 836 529 
Q 422 1150 422 2328 
Q 422 3509 836 4129 
Q 1250 4750 2034 4750 
z
" id="DejaVuSans-30" transform="scale(0.015625)"/>
        <path d="M 684 794 
L 1344 794 
L 1344 0 
L 684 0 
L 684 794 
z
" id="DejaVuSans-2e" transform="scale(0.015625)"/>
       </defs>
       <use xlink:href="#DejaVuSans-30"/>
       <use x="63.623047" xlink:href="#DejaVuSans-2e"/>
       <use x="95.410156" xlink:href="#DejaVuSans-30"/>
      </g>
     </g>
    </g>
    <g id="xtick_2">
     <g id="line2d_2">
      <g>
       <use style="stroke:#000000;stroke-width:0.8;" x="131.307386" xlink:href="#m19fb2f9069" y="273.312"/>
      </g>
     </g>
     <g id="text_2">
      <!-- 0.2 -->
      <g transform="translate(123.355824 287.910437)scale(0.1 -0.1)">
       <defs>
        <path d="M 1228 531 
L 3431 531 
L 3431 0 
L 469 0 
L 469 531 
Q 828 903 1448 1529 
Q 2069 2156 2228 2338 
Q 2531 2678 2651 2914 
Q 2772 3150 2772 3378 
Q 2772 3750 2511 3984 
Q 2250 4219 1831 4219 
Q 1534 4219 1204 4116 
Q 875 4013 500 3803 
L 500 4441 
Q 881 4594 1212 4672 
Q 1544 4750 1819 4750 
Q 2544 4750 2975 4387 
Q 3406 4025 3406 3419 
Q 3406 3131 3298 2873 
Q 3191 2616 2906 2266 
Q 2828 2175 2409 1742 
Q 1991 1309 1228 531 
z
" id="DejaVuSans-32" transform="scale(0.015625)"/>
       </defs>
       <use xlink:href="#DejaVuSans-30"/>
       <use x="63.623047" xlink:href="#DejaVuSans-2e"/>
       <use x="95.410156" xlink:href="#DejaVuSans-32"/>
      </g>
     </g>
    </g>
    <g id="xtick_3">
     <g id="line2d_3">
      <g>
       <use style="stroke:#000000;stroke-width:0.8;" x="196.238295" xlink:href="#m19fb2f9069" y="273.312"/>
      </g>
     </g>
     <g id="text_3">
      <!-- 0.4 -->
      <g transform="translate(188.286733 287.910437)scale(0.1 -0.1)">
       <defs>
        <path d="M 2419 4116 
L 825 1625 
L 2419 1625 
L 2419 4116 
z
M 2253 4666 
L 3047 4666 
L 3047 1625 
L 3713 1625 
L 3713 1100 
L 3047 1100 
L 3047 0 
L 2419 0 
L 2419 1100 
L 313 1100 
L 313 1709 
L 2253 4666 
z
" id="DejaVuSans-34" transform="scale(0.015625)"/>
       </defs>
       <use xlink:href="#DejaVuSans-30"/>
       <use x="63.623047" xlink:href="#DejaVuSans-2e"/>
       <use x="95.410156" xlink:href="#DejaVuSans-34"/>
      </g>
     </g>
    </g>
    <g id="xtick_4">
     <g id="line2d_4">
      <g>
       <use style="stroke:#000000;stroke-width:0.8;" x="261.169205" xlink:href="#m19fb2f9069" y="273.312"/>
      </g>
     </g>
     <g id="text_4">
      <!-- 0.6 -->
      <g transform="translate(253.217642 287.910437)scale(0.1 -0.1)">
       <defs>
        <path d="M 2113 2584 
Q 1688 2584 1439 2293 
Q 1191 2003 1191 1497 
Q 1191 994 1439 701 
Q 1688 409 2113 409 
Q 2538 409 2786 701 
Q 3034 994 3034 1497 
Q 3034 2003 2786 2293 
Q 2538 2584 2113 2584 
z
M 3366 4563 
L 3366 3988 
Q 3128 4100 2886 4159 
Q 2644 4219 2406 4219 
Q 1781 4219 1451 3797 
Q 1122 3375 1075 2522 
Q 1259 2794 1537 2939 
Q 1816 3084 2150 3084 
Q 2853 3084 3261 2657 
Q 3669 2231 3669 1497 
Q 3669 778 3244 343 
Q 2819 -91 2113 -91 
Q 1303 -91 875 529 
Q 447 1150 447 2328 
Q 447 3434 972 4092 
Q 1497 4750 2381 4750 
Q 2619 4750 2861 4703 
Q 3103 4656 3366 4563 
z
" id="DejaVuSans-36" transform="scale(0.015625)"/>
       </defs>
       <use xlink:href="#DejaVuSans-30"/>
       <use x="63.623047" xlink:href="#DejaVuSans-2e"/>
       <use x="95.410156" xlink:href="#DejaVuSans-36"/>
      </g>
     </g>
    </g>
    <g id="xtick_5">
     <g id="line2d_5">
      <g>
       <use style="stroke:#000000;stroke-width:0.8;" x="326.100114" xlink:href="#m19fb2f9069" y="273.312"/>
      </g>
     </g>
     <g id="text_5">
      <!-- 0.8 -->
      <g transform="translate(318.148551 287.910437)scale(0.1 -0.1)">
       <defs>
        <path d="M 2034 2216 
Q 1584 2216 1326 1975 
Q 1069 1734 1069 1313 
Q 1069 891 1326 650 
Q 1584 409 2034 409 
Q 2484 409 2743 651 
Q 3003 894 3003 1313 
Q 3003 1734 2745 1975 
Q 2488 2216 2034 2216 
z
M 1403 2484 
Q 997 2584 770 2862 
Q 544 3141 544 3541 
Q 544 4100 942 4425 
Q 1341 4750 2034 4750 
Q 2731 4750 3128 4425 
Q 3525 4100 3525 3541 
Q 3525 3141 3298 2862 
Q 3072 2584 2669 2484 
Q 3125 2378 3379 2068 
Q 3634 1759 3634 1313 
Q 3634 634 3220 271 
Q 2806 -91 2034 -91 
Q 1263 -91 848 271 
Q 434 634 434 1313 
Q 434 1759 690 2068 
Q 947 2378 1403 2484 
z
M 1172 3481 
Q 1172 3119 1398 2916 
Q 1625 2713 2034 2713 
Q 2441 2713 2670 2916 
Q 2900 3119 2900 3481 
Q 2900 3844 2670 4047 
Q 2441 4250 2034 4250 
Q 1625 4250 1398 4047 
Q 1172 3844 1172 3481 
z
" id="DejaVuSans-38" transform="scale(0.015625)"/>
       </defs>
       <use xlink:href="#DejaVuSans-30"/>
       <use x="63.623047" xlink:href="#DejaVuSans-2e"/>
       <use x="95.410156" xlink:href="#DejaVuSans-38"/>
      </g>
     </g>
    </g>
    <g id="xtick_6">
     <g id="line2d_6">
      <g>
       <use style="stroke:#000000;stroke-width:0.8;" x="391.031023" xlink:href="#m19fb2f9069" y="273.312"/>
      </g>
     </g>
     <g id="text_6">
      <!-- 1.0 -->
      <g transform="translate(383.07946 287.910437)scale(0.1 -0.1)">
       <defs>
        <path d="M 794 531 
L 1825 531 
L 1825 4091 
L 703 3866 
L 703 4441 
L 1819 4666 
L 2450 4666 
L 2450 531 
L 3481 531 
L 3481 0 
L 794 0 
L 794 531 
z
" id="DejaVuSans-31" transform="scale(0.015625)"/>
       </defs>
       <use xlink:href="#DejaVuSans-31"/>
       <use x="63.623047" xlink:href="#DejaVuSans-2e"/>
       <use x="95.410156" xlink:href="#DejaVuSans-30"/>
      </g>
     </g>
    </g>
    <g id="text_7">
     <!-- Propagation direction -->
     <g transform="translate(175.221719 301.588562)scale(0.1 -0.1)">
      <defs>
       <path d="M 1259 4147 
L 1259 2394 
L 2053 2394 
Q 2494 2394 2734 2622 
Q 2975 2850 2975 3272 
Q 2975 3691 2734 3919 
Q 2494 4147 2053 4147 
L 1259 4147 
z
M 628 4666 
L 2053 4666 
Q 2838 4666 3239 4311 
Q 3641 3956 3641 3272 
Q 3641 2581 3239 2228 
Q 2838 1875 2053 1875 
L 1259 1875 
L 1259 0 
L 628 0 
L 628 4666 
z
" id="DejaVuSans-50" transform="scale(0.015625)"/>
       <path d="M 2631 2963 
Q 2534 3019 2420 3045 
Q 2306 3072 2169 3072 
Q 1681 3072 1420 2755 
Q 1159 2438 1159 1844 
L 1159 0 
L 581 0 
L 581 3500 
L 1159 3500 
L 1159 2956 
Q 1341 3275 1631 3429 
Q 1922 3584 2338 3584 
Q 2397 3584 2469 3576 
Q 2541 3569 2628 3553 
L 2631 2963 
z
" id="DejaVuSans-72" transform="scale(0.015625)"/>
       <path d="M 1959 3097 
Q 1497 3097 1228 2736 
Q 959 2375 959 1747 
Q 959 1119 1226 758 
Q 1494 397 1959 397 
Q 2419 397 2687 759 
Q 2956 1122 2956 1747 
Q 2956 2369 2687 2733 
Q 2419 3097 1959 3097 
z
M 1959 3584 
Q 2709 3584 3137 3096 
Q 3566 2609 3566 1747 
Q 3566 888 3137 398 
Q 2709 -91 1959 -91 
Q 1206 -91 779 398 
Q 353 888 353 1747 
Q 353 2609 779 3096 
Q 1206 3584 1959 3584 
z
" id="DejaVuSans-6f" transform="scale(0.015625)"/>
       <path d="M 1159 525 
L 1159 -1331 
L 581 -1331 
L 581 3500 
L 1159 3500 
L 1159 2969 
Q 1341 3281 1617 3432 
Q 1894 3584 2278 3584 
Q 2916 3584 3314 3078 
Q 3713 2572 3713 1747 
Q 3713 922 3314 415 
Q 2916 -91 2278 -91 
Q 1894 -91 1617 61 
Q 1341 213 1159 525 
z
M 3116 1747 
Q 3116 2381 2855 2742 
Q 2594 3103 2138 3103 
Q 1681 3103 1420 2742 
Q 1159 2381 1159 1747 
Q 1159 1113 1420 752 
Q 1681 391 2138 391 
Q 2594 391 2855 752 
Q 3116 1113 3116 1747 
z
" id="DejaVuSans-70" transform="scale(0.015625)"/>
       <path d="M 2194 1759 
Q 1497 1759 1228 1600 
Q 959 1441 959 1056 
Q 959 750 1161 570 
Q 1363 391 1709 391 
Q 2188 391 2477 730 
Q 2766 1069 2766 1631 
L 2766 1759 
L 2194 1759 
z
M 3341 1997 
L 3341 0 
L 2766 0 
L 2766 531 
Q 2569 213 2275 61 
Q 1981 -91 1556 -91 
Q 1019 -91 701 211 
Q 384 513 384 1019 
Q 384 1609 779 1909 
Q 1175 2209 1959 2209 
L 2766 2209 
L 2766 2266 
Q 2766 2663 2505 2880 
Q 2244 3097 1772 3097 
Q 1472 3097 1187 3025 
Q 903 2953 641 2809 
L 641 3341 
Q 956 3463 1253 3523 
Q 1550 3584 1831 3584 
Q 2591 3584 2966 3190 
Q 3341 2797 3341 1997 
z
" id="DejaVuSans-61" transform="scale(0.015625)"/>
       <path d="M 2906 1791 
Q 2906 2416 2648 2759 
Q 2391 3103 1925 3103 
Q 1463 3103 1205 2759 
Q 947 2416 947 1791 
Q 947 1169 1205 825 
Q 1463 481 1925 481 
Q 2391 481 2648 825 
Q 2906 1169 2906 1791 
z
M 3481 434 
Q 3481 -459 3084 -895 
Q 2688 -1331 1869 -1331 
Q 1566 -1331 1297 -1286 
Q 1028 -1241 775 -1147 
L 775 -588 
Q 1028 -725 1275 -790 
Q 1522 -856 1778 -856 
Q 2344 -856 2625 -561 
Q 2906 -266 2906 331 
L 2906 616 
Q 2728 306 2450 153 
Q 2172 0 1784 0 
Q 1141 0 747 490 
Q 353 981 353 1791 
Q 353 2603 747 3093 
Q 1141 3584 1784 3584 
Q 2172 3584 2450 3431 
Q 2728 3278 2906 2969 
L 2906 3500 
L 3481 3500 
L 3481 434 
z
" id="DejaVuSans-67" transform="scale(0.015625)"/>
       <path d="M 1172 4494 
L 1172 3500 
L 2356 3500 
L 2356 3053 
L 1172 3053 
L 1172 1153 
Q 1172 725 1289 603 
Q 1406 481 1766 481 
L 2356 481 
L 2356 0 
L 1766 0 
Q 1100 0 847 248 
Q 594 497 594 1153 
L 594 3053 
L 172 3053 
L 172 3500 
L 594 3500 
L 594 4494 
L 1172 4494 
z
" id="DejaVuSans-74" transform="scale(0.015625)"/>
       <path d="M 603 3500 
L 1178 3500 
L 1178 0 
L 603 0 
L 603 3500 
z
M 603 4863 
L 1178 4863 
L 1178 4134 
L 603 4134 
L 603 4863 
z
" id="DejaVuSans-69" transform="scale(0.015625)"/>
       <path d="M 3513 2113 
L 3513 0 
L 2938 0 
L 2938 2094 
Q 2938 2591 2744 2837 
Q 2550 3084 2163 3084 
Q 1697 3084 1428 2787 
Q 1159 2491 1159 1978 
L 1159 0 
L 581 0 
L 581 3500 
L 1159 3500 
L 1159 2956 
Q 1366 3272 1645 3428 
Q 1925 3584 2291 3584 
Q 2894 3584 3203 3211 
Q 3513 2838 3513 2113 
z
" id="DejaVuSans-6e" transform="scale(0.015625)"/>
       <path id="DejaVuSans-20" transform="scale(0.015625)"/>
       <path d="M 2906 2969 
L 2906 4863 
L 3481 4863 
L 3481 0 
L 2906 0 
L 2906 525 
Q 2725 213 2448 61 
Q 2172 -91 1784 -91 
Q 1150 -91 751 415 
Q 353 922 353 1747 
Q 353 2572 751 3078 
Q 1150 3584 1784 3584 
Q 2172 3584 2448 3432 
Q 2725 3281 2906 2969 
z
M 947 1747 
Q 947 1113 1208 752 
Q 1469 391 1925 391 
Q 2381 391 2643 752 
Q 2906 1113 2906 1747 
Q 2906 2381 2643 2742 
Q 2381 3103 1925 3103 
Q 1469 3103 1208 2742 
Q 947 2381 947 1747 
z
" id="DejaVuSans-64" transform="scale(0.015625)"/>
       <path d="M 3597 1894 
L 3597 1613 
L 953 1613 
Q 991 1019 1311 708 
Q 1631 397 2203 397 
Q 2534 397 2845 478 
Q 3156 559 3463 722 
L 3463 178 
Q 3153 47 2828 -22 
Q 2503 -91 2169 -91 
Q 1331 -91 842 396 
Q 353 884 353 1716 
Q 353 2575 817 3079 
Q 1281 3584 2069 3584 
Q 2775 3584 3186 3129 
Q 3597 2675 3597 1894 
z
M 3022 2063 
Q 3016 2534 2758 2815 
Q 2500 3097 2075 3097 
Q 1594 3097 1305 2825 
Q 1016 2553 972 2059 
L 3022 2063 
z
" id="DejaVuSans-65" transform="scale(0.015625)"/>
       <path d="M 3122 3366 
L 3122 2828 
Q 2878 2963 2633 3030 
Q 2388 3097 2138 3097 
Q 1578 3097 1268 2742 
Q 959 2388 959 1747 
Q 959 1106 1268 751 
Q 1578 397 2138 397 
Q 2388 397 2633 464 
Q 2878 531 3122 666 
L 3122 134 
Q 2881 22 2623 -34 
Q 2366 -91 2075 -91 
Q 1284 -91 818 406 
Q 353 903 353 1747 
Q 353 2603 823 3093 
Q 1294 3584 2113 3584 
Q 2378 3584 2631 3529 
Q 2884 3475 3122 3366 
z
" id="DejaVuSans-63" transform="scale(0.015625)"/>
      </defs>
      <use xlink:href="#DejaVuSans-50"/>
      <use x="58.552734" xlink:href="#DejaVuSans-72"/>
      <use x="97.416016" xlink:href="#DejaVuSans-6f"/>
      <use x="158.597656" xlink:href="#DejaVuSans-70"/>
      <use x="222.074219" xlink:href="#DejaVuSans-61"/>
      <use x="283.353516" xlink:href="#DejaVuSans-67"/>
      <use x="346.830078" xlink:href="#DejaVuSans-61"/>
      <use x="408.109375" xlink:href="#DejaVuSans-74"/>
      <use x="447.318359" xlink:href="#DejaVuSans-69"/>
      <use x="475.101562" xlink:href="#DejaVuSans-6f"/>
      <use x="536.283203" xlink:href="#DejaVuSans-6e"/>
      <use x="599.662109" xlink:href="#DejaVuSans-20"/>
      <use x="631.449219" xlink:href="#DejaVuSans-64"/>
      <use x="694.925781" xlink:href="#DejaVuSans-69"/>
      <use x="722.708984" xlink:href="#DejaVuSans-72"/>
      <use x="761.572266" xlink:href="#DejaVuSans-65"/>
      <use x="823.095703" xlink:href="#DejaVuSans-63"/>
      <use x="878.076172" xlink:href="#DejaVuSans-74"/>
      <use x="917.285156" xlink:href="#DejaVuSans-69"/>
      <use x="945.068359" xlink:href="#DejaVuSans-6f"/>
      <use x="1006.25" xlink:href="#DejaVuSans-6e"/>
     </g>
    </g>
   </g>
   <g id="matplotlib.axis_2">
    <g id="ytick_1">
     <g id="line2d_7">
      <defs>
       <path d="M 0 0 
L -3.5 0 
" id="m663d155979" style="stroke:#000000;stroke-width:0.8;"/>
      </defs>
      <g>
       <use style="stroke:#000000;stroke-width:0.8;" x="50.14375" xlink:href="#m663d155979" y="273.312"/>
      </g>
     </g>
     <g id="text_8">
      <!-- 0.00 -->
      <g transform="translate(20.878125 277.111219)scale(0.1 -0.1)">
       <use xlink:href="#DejaVuSans-30"/>
       <use x="63.623047" xlink:href="#DejaVuSans-2e"/>
       <use x="95.410156" xlink:href="#DejaVuSans-30"/>
       <use x="159.033203" xlink:href="#DejaVuSans-30"/>
      </g>
     </g>
    </g>
    <g id="ytick_2">
     <g id="line2d_8">
      <g>
       <use style="stroke:#000000;stroke-width:0.8;" x="50.14375" xlink:href="#m663d155979" y="242.5863"/>
      </g>
     </g>
     <g id="text_9">
      <!-- 0.25 -->
      <g transform="translate(20.878125 246.385518)scale(0.1 -0.1)">
       <defs>
        <path d="M 691 4666 
L 3169 4666 
L 3169 4134 
L 1269 4134 
L 1269 2991 
Q 1406 3038 1543 3061 
Q 1681 3084 1819 3084 
Q 2600 3084 3056 2656 
Q 3513 2228 3513 1497 
Q 3513 744 3044 326 
Q 2575 -91 1722 -91 
Q 1428 -91 1123 -41 
Q 819 9 494 109 
L 494 744 
Q 775 591 1075 516 
Q 1375 441 1709 441 
Q 2250 441 2565 725 
Q 2881 1009 2881 1497 
Q 2881 1984 2565 2268 
Q 2250 2553 1709 2553 
Q 1456 2553 1204 2497 
Q 953 2441 691 2322 
L 691 4666 
z
" id="DejaVuSans-35" transform="scale(0.015625)"/>
       </defs>
       <use xlink:href="#DejaVuSans-30"/>
       <use x="63.623047" xlink:href="#DejaVuSans-2e"/>
       <use x="95.410156" xlink:href="#DejaVuSans-32"/>
       <use x="159.033203" xlink:href="#DejaVuSans-35"/>
      </g>
     </g>
    </g>
    <g id="ytick_3">
     <g id="line2d_9">
      <g>
       <use style="stroke:#000000;stroke-width:0.8;" x="50.14375" xlink:href="#m663d155979" y="211.860599"/>
      </g>
     </g>
     <g id="text_10">
      <!-- 0.50 -->
      <g transform="translate(20.878125 215.659818)scale(0.1 -0.1)">
       <use xlink:href="#DejaVuSans-30"/>
       <use x="63.623047" xlink:href="#DejaVuSans-2e"/>
       <use x="95.410156" xlink:href="#DejaVuSans-35"/>
       <use x="159.033203" xlink:href="#DejaVuSans-30"/>
      </g>
     </g>
    </g>
    <g id="ytick_4">
     <g id="line2d_10">
      <g>
       <use style="stroke:#000000;stroke-width:0.8;" x="50.14375" xlink:href="#m663d155979" y="181.134899"/>
      </g>
     </g>
     <g id="text_11">
      <!-- 0.75 -->
      <g transform="translate(20.878125 184.934117)scale(0.1 -0.1)">
       <defs>
        <path d="M 525 4666 
L 3525 4666 
L 3525 4397 
L 1831 0 
L 1172 0 
L 2766 4134 
L 525 4134 
L 525 4666 
z
" id="DejaVuSans-37" transform="scale(0.015625)"/>
       </defs>
       <use xlink:href="#DejaVuSans-30"/>
       <use x="63.623047" xlink:href="#DejaVuSans-2e"/>
       <use x="95.410156" xlink:href="#DejaVuSans-37"/>
       <use x="159.033203" xlink:href="#DejaVuSans-35"/>
      </g>
     </g>
    </g>
    <g id="ytick_5">
     <g id="line2d_11">
      <g>
       <use style="stroke:#000000;stroke-width:0.8;" x="50.14375" xlink:href="#m663d155979" y="150.409198"/>
      </g>
     </g>
     <g id="text_12">
      <!-- 1.00 -->
      <g transform="translate(20.878125 154.208417)scale(0.1 -0.1)">
       <use xlink:href="#DejaVuSans-31"/>
       <use x="63.623047" xlink:href="#DejaVuSans-2e"/>
       <use x="95.410156" xlink:href="#DejaVuSans-30"/>
       <use x="159.033203" xlink:href="#DejaVuSans-30"/>
      </g>
     </g>
    </g>
    <g id="ytick_6">
     <g id="line2d_12">
      <g>
       <use style="stroke:#000000;stroke-width:0.8;" x="50.14375" xlink:href="#m663d155979" y="119.683498"/>
      </g>
     </g>
     <g id="text_13">
      <!-- 1.25 -->
      <g transform="translate(20.878125 123.482717)scale(0.1 -0.1)">
       <use xlink:href="#DejaVuSans-31"/>
       <use x="63.623047" xlink:href="#DejaVuSans-2e"/>
       <use x="95.410156" xlink:href="#DejaVuSans-32"/>
       <use x="159.033203" xlink:href="#DejaVuSans-35"/>
      </g>
     </g>
    </g>
    <g id="ytick_7">
     <g id="line2d_13">
      <g>
       <use style="stroke:#000000;stroke-width:0.8;" x="50.14375" xlink:href="#m663d155979" y="88.957797"/>
      </g>
     </g>
     <g id="text_14">
      <!-- 1.50 -->
      <g transform="translate(20.878125 92.757016)scale(0.1 -0.1)">
       <use xlink:href="#DejaVuSans-31"/>
       <use x="63.623047" xlink:href="#DejaVuSans-2e"/>
       <use x="95.410156" xlink:href="#DejaVuSans-35"/>
       <use x="159.033203" xlink:href="#DejaVuSans-30"/>
      </g>
     </g>
    </g>
    <g id="ytick_8">
     <g id="line2d_14">
      <g>
       <use style="stroke:#000000;stroke-width:0.8;" x="50.14375" xlink:href="#m663d155979" y="58.232097"/>
      </g>
     </g>
     <g id="text_15">
      <!-- 1.75 -->
      <g transform="translate(20.878125 62.031316)scale(0.1 -0.1)">
       <use xlink:href="#DejaVuSans-31"/>
       <use x="63.623047" xlink:href="#DejaVuSans-2e"/>
       <use x="95.410156" xlink:href="#DejaVuSans-37"/>
       <use x="159.033203" xlink:href="#DejaVuSans-35"/>
      </g>
     </g>
    </g>
    <g id="ytick_9">
     <g id="line2d_15">
      <g>
       <use style="stroke:#000000;stroke-width:0.8;" x="50.14375" xlink:href="#m663d155979" y="27.506396"/>
      </g>
     </g>
     <g id="text_16">
      <!-- 2.00 -->
      <g transform="translate(20.878125 31.305615)scale(0.1 -0.1)">
       <use xlink:href="#DejaVuSans-32"/>
       <use x="63.623047" xlink:href="#DejaVuSans-2e"/>
       <use x="95.410156" xlink:href="#DejaVuSans-30"/>
       <use x="159.033203" xlink:href="#DejaVuSans-30"/>
      </g>
     </g>
    </g>
    <g id="text_17">
     <!-- Probability density -->
     <g transform="translate(14.798438 186.606781)rotate(-90)scale(0.1 -0.1)">
      <defs>
       <path d="M 3116 1747 
Q 3116 2381 2855 2742 
Q 2594 3103 2138 3103 
Q 1681 3103 1420 2742 
Q 1159 2381 1159 1747 
Q 1159 1113 1420 752 
Q 1681 391 2138 391 
Q 2594 391 2855 752 
Q 3116 1113 3116 1747 
z
M 1159 2969 
Q 1341 3281 1617 3432 
Q 1894 3584 2278 3584 
Q 2916 3584 3314 3078 
Q 3713 2572 3713 1747 
Q 3713 922 3314 415 
Q 2916 -91 2278 -91 
Q 1894 -91 1617 61 
Q 1341 213 1159 525 
L 1159 0 
L 581 0 
L 581 4863 
L 1159 4863 
L 1159 2969 
z
" id="DejaVuSans-62" transform="scale(0.015625)"/>
       <path d="M 603 4863 
L 1178 4863 
L 1178 0 
L 603 0 
L 603 4863 
z
" id="DejaVuSans-6c" transform="scale(0.015625)"/>
       <path d="M 2059 -325 
Q 1816 -950 1584 -1140 
Q 1353 -1331 966 -1331 
L 506 -1331 
L 506 -850 
L 844 -850 
Q 1081 -850 1212 -737 
Q 1344 -625 1503 -206 
L 1606 56 
L 191 3500 
L 800 3500 
L 1894 763 
L 2988 3500 
L 3597 3500 
L 2059 -325 
z
" id="DejaVuSans-79" transform="scale(0.015625)"/>
       <path d="M 2834 3397 
L 2834 2853 
Q 2591 2978 2328 3040 
Q 2066 3103 1784 3103 
Q 1356 3103 1142 2972 
Q 928 2841 928 2578 
Q 928 2378 1081 2264 
Q 1234 2150 1697 2047 
L 1894 2003 
Q 2506 1872 2764 1633 
Q 3022 1394 3022 966 
Q 3022 478 2636 193 
Q 2250 -91 1575 -91 
Q 1294 -91 989 -36 
Q 684 19 347 128 
L 347 722 
Q 666 556 975 473 
Q 1284 391 1588 391 
Q 1994 391 2212 530 
Q 2431 669 2431 922 
Q 2431 1156 2273 1281 
Q 2116 1406 1581 1522 
L 1381 1569 
Q 847 1681 609 1914 
Q 372 2147 372 2553 
Q 372 3047 722 3315 
Q 1072 3584 1716 3584 
Q 2034 3584 2315 3537 
Q 2597 3491 2834 3397 
z
" id="DejaVuSans-73" transform="scale(0.015625)"/>
      </defs>
      <use xlink:href="#DejaVuSans-50"/>
      <use x="58.552734" xlink:href="#DejaVuSans-72"/>
      <use x="97.416016" xlink:href="#DejaVuSans-6f"/>
      <use x="158.597656" xlink:href="#DejaVuSans-62"/>
      <use x="222.074219" xlink:href="#DejaVuSans-61"/>
      <use x="283.353516" xlink:href="#DejaVuSans-62"/>
      <use x="346.830078" xlink:href="#DejaVuSans-69"/>
      <use x="374.613281" xlink:href="#DejaVuSans-6c"/>
      <use x="402.396484" xlink:href="#DejaVuSans-69"/>
      <use x="430.179688" xlink:href="#DejaVuSans-74"/>
      <use x="469.388672" xlink:href="#DejaVuSans-79"/>
      <use x="528.568359" xlink:href="#DejaVuSans-20"/>
      <use x="560.355469" xlink:href="#DejaVuSans-64"/>
      <use x="623.832031" xlink:href="#DejaVuSans-65"/>
      <use x="685.355469" xlink:href="#DejaVuSans-6e"/>
      <use x="748.734375" xlink:href="#DejaVuSans-73"/>
      <use x="800.833984" xlink:href="#DejaVuSans-69"/>
      <use x="828.617188" xlink:href="#DejaVuSans-74"/>
      <use x="867.826172" xlink:href="#DejaVuSans-79"/>
     </g>
    </g>
   </g>
   <g id="line2d_16">
    <path clip-path="url(#p06dd5a3e59)" d="M 66.376477 273.312 
L 391.031023 27.506396 
L 391.031023 27.506396 
" style="fill:none;stroke:#ff7f0e;stroke-linecap:square;stroke-width:1.5;"/>
   </g>
   <g id="patch_203">
    <path d="M 50.14375 273.312 
L 50.14375 7.2 
" style="fill:none;stroke:#000000;stroke-linecap:square;stroke-linejoin:miter;stroke-width:0.8;"/>
   </g>
   <g id="patch_204">
    <path d="M 407.26375 273.312 
L 407.26375 7.2 
" style="fill:none;stroke:#000000;stroke-linecap:square;stroke-linejoin:miter;stroke-width:0.8;"/>
   </g>
   <g id="patch_205">
    <path d="M 50.14375 273.312 
L 407.26375 273.312 
" style="fill:none;stroke:#000000;stroke-linecap:square;stroke-linejoin:miter;stroke-width:0.8;"/>
   </g>
   <g id="patch_206">
    <path d="M 50.14375 7.2 
L 407.26375 7.2 
" style="fill:none;stroke:#000000;stroke-linecap:square;stroke-linejoin:miter;stroke-width:0.8;"/>
   </g>
  </g>
 </g>
 <defs>
  <clipPath id="p06dd5a3e59">
   <rect height="266.112" width="357.12" x="50.14375" y="7.2"/>
  </clipPath>
 </defs>
</svg>
