<?xml version="1.0" encoding="utf-8" standalone="no"?>
<!DOCTYPE svg PUBLIC "-//W3C//DTD SVG 1.1//EN"
  "http://www.w3.org/Graphics/SVG/1.1/DTD/svg11.dtd">
<svg height="310.86825pt" version="1.1" viewBox="0 0 414.46375 310.86825" width="414.46375pt" xmlns="http://www.w3.org/2000/svg" xmlns:xlink="http://www.w3.org/1999/xlink">
 <metadata>
  <rdf:RDF xmlns:cc="http://creativecommons.org/ns#" xmlns:dc="http://purl.org/dc/elements/1.1/" xmlns:rdf="http://www.w3.org/1999/02/22-rdf-syntax-ns#">
   <cc:Work>
    <dc:type rdf:resource="http://purl.org/dc/dcmitype/StillImage"/>
    <dc:date>2021-07-08T08:25:39.960134</dc:date>
    <dc:format>image/svg+xml</dc:format>
    <dc:creator>
     <cc:Agent>
      <dc:title>Matplotlib v3.4.2, https://matplotlib.org/</dc:title>
     </cc:Agent>
    </dc:creator>
   </cc:Work>
  </rdf:RDF>
 </metadata>
 <defs>
  <style type="text/css">*{stroke-linecap:butt;stroke-linejoin:round;}</style>
 </defs>
 <g id="figure_1">
  <g id="patch_1">
   <path d="M 0 310.86825 
L 414.46375 310.86825 
L 414.46375 0 
L 0 0 
z
" style="fill:#ffffff;"/>
  </g>
  <g id="axes_1">
   <g id="patch_2">
    <path d="M 50.14375 273.312 
L 407.26375 273.312 
L 407.26375 7.2 
L 50.14375 7.2 
z
" style="fill:#ffffff;"/>
   </g>
   <g id="patch_3">
    <path clip-path="url(#ped72998476)" d="M 68.936574 273.312 
L 70.54704 273.312 
L 70.54704 269.047385 
L 68.936574 269.047385 
z
" style="fill:#1f77b4;"/>
   </g>
   <g id="patch_4">
    <path clip-path="url(#ped72998476)" d="M 70.54704 273.312 
L 72.157506 273.312 
L 72.157506 269.047385 
L 70.54704 269.047385 
z
" style="fill:#1f77b4;"/>
   </g>
   <g id="patch_5">
    <path clip-path="url(#ped72998476)" d="M 72.157506 273.312 
L 73.767972 273.312 
L 73.767972 270.265846 
L 72.157506 270.265846 
z
" style="fill:#1f77b4;"/>
   </g>
   <g id="patch_6">
    <path clip-path="url(#ped72998476)" d="M 73.767972 273.312 
L 75.378438 273.312 
L 75.378438 267.828923 
L 73.767972 267.828923 
z
" style="fill:#1f77b4;"/>
   </g>
   <g id="patch_7">
    <path clip-path="url(#ped72998476)" d="M 75.378438 273.312 
L 76.988904 273.312 
L 76.988904 264.782769 
L 75.378438 264.782769 
z
" style="fill:#1f77b4;"/>
   </g>
   <g id="patch_8">
    <path clip-path="url(#ped72998476)" d="M 76.988904 273.312 
L 78.59937 273.312 
L 78.59937 267.828923 
L 76.988904 267.828923 
z
" style="fill:#1f77b4;"/>
   </g>
   <g id="patch_9">
    <path clip-path="url(#ped72998476)" d="M 78.59937 273.312 
L 80.209836 273.312 
L 80.209836 263.564308 
L 78.59937 263.564308 
z
" style="fill:#1f77b4;"/>
   </g>
   <g id="patch_10">
    <path clip-path="url(#ped72998476)" d="M 80.209836 273.312 
L 81.820302 273.312 
L 81.820302 258.690462 
L 80.209836 258.690462 
z
" style="fill:#1f77b4;"/>
   </g>
   <g id="patch_11">
    <path clip-path="url(#ped72998476)" d="M 81.820302 273.312 
L 83.430768 273.312 
L 83.430768 256.253538 
L 81.820302 256.253538 
z
" style="fill:#1f77b4;"/>
   </g>
   <g id="patch_12">
    <path clip-path="url(#ped72998476)" d="M 83.430768 273.312 
L 85.041234 273.312 
L 85.041234 255.644308 
L 83.430768 255.644308 
z
" style="fill:#1f77b4;"/>
   </g>
   <g id="patch_13">
    <path clip-path="url(#ped72998476)" d="M 85.041234 273.312 
L 86.6517 273.312 
L 86.6517 258.081231 
L 85.041234 258.081231 
z
" style="fill:#1f77b4;"/>
   </g>
   <g id="patch_14">
    <path clip-path="url(#ped72998476)" d="M 86.6517 273.312 
L 88.262167 273.312 
L 88.262167 257.472 
L 86.6517 257.472 
z
" style="fill:#1f77b4;"/>
   </g>
   <g id="patch_15">
    <path clip-path="url(#ped72998476)" d="M 88.262167 273.312 
L 89.872633 273.312 
L 89.872633 254.425846 
L 88.262167 254.425846 
z
" style="fill:#1f77b4;"/>
   </g>
   <g id="patch_16">
    <path clip-path="url(#ped72998476)" d="M 89.872633 273.312 
L 91.483099 273.312 
L 91.483099 258.690462 
L 89.872633 258.690462 
z
" style="fill:#1f77b4;"/>
   </g>
   <g id="patch_17">
    <path clip-path="url(#ped72998476)" d="M 91.483099 273.312 
L 93.093565 273.312 
L 93.093565 250.161231 
L 91.483099 250.161231 
z
" style="fill:#1f77b4;"/>
   </g>
   <g id="patch_18">
    <path clip-path="url(#ped72998476)" d="M 93.093565 273.312 
L 94.704031 273.312 
L 94.704031 254.425846 
L 93.093565 254.425846 
z
" style="fill:#1f77b4;"/>
   </g>
   <g id="patch_19">
    <path clip-path="url(#ped72998476)" d="M 94.704031 273.312 
L 96.314497 273.312 
L 96.314497 253.207385 
L 94.704031 253.207385 
z
" style="fill:#1f77b4;"/>
   </g>
   <g id="patch_20">
    <path clip-path="url(#ped72998476)" d="M 96.314497 273.312 
L 97.924963 273.312 
L 97.924963 251.988923 
L 96.314497 251.988923 
z
" style="fill:#1f77b4;"/>
   </g>
   <g id="patch_21">
    <path clip-path="url(#ped72998476)" d="M 97.924963 273.312 
L 99.535429 273.312 
L 99.535429 248.942769 
L 97.924963 248.942769 
z
" style="fill:#1f77b4;"/>
   </g>
   <g id="patch_22">
    <path clip-path="url(#ped72998476)" d="M 99.535429 273.312 
L 101.145895 273.312 
L 101.145895 250.770462 
L 99.535429 250.770462 
z
" style="fill:#1f77b4;"/>
   </g>
   <g id="patch_23">
    <path clip-path="url(#ped72998476)" d="M 101.145895 273.312 
L 102.756361 273.312 
L 102.756361 248.942769 
L 101.145895 248.942769 
z
" style="fill:#1f77b4;"/>
   </g>
   <g id="patch_24">
    <path clip-path="url(#ped72998476)" d="M 102.756361 273.312 
L 104.366827 273.312 
L 104.366827 245.896615 
L 102.756361 245.896615 
z
" style="fill:#1f77b4;"/>
   </g>
   <g id="patch_25">
    <path clip-path="url(#ped72998476)" d="M 104.366827 273.312 
L 105.977293 273.312 
L 105.977293 241.022769 
L 104.366827 241.022769 
z
" style="fill:#1f77b4;"/>
   </g>
   <g id="patch_26">
    <path clip-path="url(#ped72998476)" d="M 105.977293 273.312 
L 107.587759 273.312 
L 107.587759 250.161231 
L 105.977293 250.161231 
z
" style="fill:#1f77b4;"/>
   </g>
   <g id="patch_27">
    <path clip-path="url(#ped72998476)" d="M 107.587759 273.312 
L 109.198225 273.312 
L 109.198225 239.804308 
L 107.587759 239.804308 
z
" style="fill:#1f77b4;"/>
   </g>
   <g id="patch_28">
    <path clip-path="url(#ped72998476)" d="M 109.198225 273.312 
L 110.808691 273.312 
L 110.808691 238.585846 
L 109.198225 238.585846 
z
" style="fill:#1f77b4;"/>
   </g>
   <g id="patch_29">
    <path clip-path="url(#ped72998476)" d="M 110.808691 273.312 
L 112.419157 273.312 
L 112.419157 227.619692 
L 110.808691 227.619692 
z
" style="fill:#1f77b4;"/>
   </g>
   <g id="patch_30">
    <path clip-path="url(#ped72998476)" d="M 112.419157 273.312 
L 114.029623 273.312 
L 114.029623 230.056615 
L 112.419157 230.056615 
z
" style="fill:#1f77b4;"/>
   </g>
   <g id="patch_31">
    <path clip-path="url(#ped72998476)" d="M 114.029623 273.312 
L 115.640089 273.312 
L 115.640089 234.321231 
L 114.029623 234.321231 
z
" style="fill:#1f77b4;"/>
   </g>
   <g id="patch_32">
    <path clip-path="url(#ped72998476)" d="M 115.640089 273.312 
L 117.250555 273.312 
L 117.250555 234.930462 
L 115.640089 234.930462 
z
" style="fill:#1f77b4;"/>
   </g>
   <g id="patch_33">
    <path clip-path="url(#ped72998476)" d="M 117.250555 273.312 
L 118.861021 273.312 
L 118.861021 243.459692 
L 117.250555 243.459692 
z
" style="fill:#1f77b4;"/>
   </g>
   <g id="patch_34">
    <path clip-path="url(#ped72998476)" d="M 118.861021 273.312 
L 120.471487 273.312 
L 120.471487 231.884308 
L 118.861021 231.884308 
z
" style="fill:#1f77b4;"/>
   </g>
   <g id="patch_35">
    <path clip-path="url(#ped72998476)" d="M 120.471487 273.312 
L 122.081953 273.312 
L 122.081953 226.401231 
L 120.471487 226.401231 
z
" style="fill:#1f77b4;"/>
   </g>
   <g id="patch_36">
    <path clip-path="url(#ped72998476)" d="M 122.081953 273.312 
L 123.692419 273.312 
L 123.692419 236.148923 
L 122.081953 236.148923 
z
" style="fill:#1f77b4;"/>
   </g>
   <g id="patch_37">
    <path clip-path="url(#ped72998476)" d="M 123.692419 273.312 
L 125.302885 273.312 
L 125.302885 227.619692 
L 123.692419 227.619692 
z
" style="fill:#1f77b4;"/>
   </g>
   <g id="patch_38">
    <path clip-path="url(#ped72998476)" d="M 125.302885 273.312 
L 126.913352 273.312 
L 126.913352 222.745846 
L 125.302885 222.745846 
z
" style="fill:#1f77b4;"/>
   </g>
   <g id="patch_39">
    <path clip-path="url(#ped72998476)" d="M 126.913352 273.312 
L 128.523818 273.312 
L 128.523818 236.758154 
L 126.913352 236.758154 
z
" style="fill:#1f77b4;"/>
   </g>
   <g id="patch_40">
    <path clip-path="url(#ped72998476)" d="M 128.523818 273.312 
L 130.134284 273.312 
L 130.134284 222.745846 
L 128.523818 222.745846 
z
" style="fill:#1f77b4;"/>
   </g>
   <g id="patch_41">
    <path clip-path="url(#ped72998476)" d="M 130.134284 273.312 
L 131.74475 273.312 
L 131.74475 225.792 
L 130.134284 225.792 
z
" style="fill:#1f77b4;"/>
   </g>
   <g id="patch_42">
    <path clip-path="url(#ped72998476)" d="M 131.74475 273.312 
L 133.355216 273.312 
L 133.355216 227.619692 
L 131.74475 227.619692 
z
" style="fill:#1f77b4;"/>
   </g>
   <g id="patch_43">
    <path clip-path="url(#ped72998476)" d="M 133.355216 273.312 
L 134.965682 273.312 
L 134.965682 209.342769 
L 133.355216 209.342769 
z
" style="fill:#1f77b4;"/>
   </g>
   <g id="patch_44">
    <path clip-path="url(#ped72998476)" d="M 134.965682 273.312 
L 136.576148 273.312 
L 136.576148 222.136615 
L 134.965682 222.136615 
z
" style="fill:#1f77b4;"/>
   </g>
   <g id="patch_45">
    <path clip-path="url(#ped72998476)" d="M 136.576148 273.312 
L 138.186614 273.312 
L 138.186614 227.010462 
L 136.576148 227.010462 
z
" style="fill:#1f77b4;"/>
   </g>
   <g id="patch_46">
    <path clip-path="url(#ped72998476)" d="M 138.186614 273.312 
L 139.79708 273.312 
L 139.79708 226.401231 
L 138.186614 226.401231 
z
" style="fill:#1f77b4;"/>
   </g>
   <g id="patch_47">
    <path clip-path="url(#ped72998476)" d="M 139.79708 273.312 
L 141.407546 273.312 
L 141.407546 221.527385 
L 139.79708 221.527385 
z
" style="fill:#1f77b4;"/>
   </g>
   <g id="patch_48">
    <path clip-path="url(#ped72998476)" d="M 141.407546 273.312 
L 143.018012 273.312 
L 143.018012 209.952 
L 141.407546 209.952 
z
" style="fill:#1f77b4;"/>
   </g>
   <g id="patch_49">
    <path clip-path="url(#ped72998476)" d="M 143.018012 273.312 
L 144.628478 273.312 
L 144.628478 216.044308 
L 143.018012 216.044308 
z
" style="fill:#1f77b4;"/>
   </g>
   <g id="patch_50">
    <path clip-path="url(#ped72998476)" d="M 144.628478 273.312 
L 146.238944 273.312 
L 146.238944 208.124308 
L 144.628478 208.124308 
z
" style="fill:#1f77b4;"/>
   </g>
   <g id="patch_51">
    <path clip-path="url(#ped72998476)" d="M 146.238944 273.312 
L 147.84941 273.312 
L 147.84941 223.964308 
L 146.238944 223.964308 
z
" style="fill:#1f77b4;"/>
   </g>
   <g id="patch_52">
    <path clip-path="url(#ped72998476)" d="M 147.84941 273.312 
L 149.459876 273.312 
L 149.459876 216.044308 
L 147.84941 216.044308 
z
" style="fill:#1f77b4;"/>
   </g>
   <g id="patch_53">
    <path clip-path="url(#ped72998476)" d="M 149.459876 273.312 
L 151.070342 273.312 
L 151.070342 222.745846 
L 149.459876 222.745846 
z
" style="fill:#1f77b4;"/>
   </g>
   <g id="patch_54">
    <path clip-path="url(#ped72998476)" d="M 151.070342 273.312 
L 152.680808 273.312 
L 152.680808 208.733538 
L 151.070342 208.733538 
z
" style="fill:#1f77b4;"/>
   </g>
   <g id="patch_55">
    <path clip-path="url(#ped72998476)" d="M 152.680808 273.312 
L 154.291274 273.312 
L 154.291274 203.859692 
L 152.680808 203.859692 
z
" style="fill:#1f77b4;"/>
   </g>
   <g id="patch_56">
    <path clip-path="url(#ped72998476)" d="M 154.291274 273.312 
L 155.90174 273.312 
L 155.90174 208.124308 
L 154.291274 208.124308 
z
" style="fill:#1f77b4;"/>
   </g>
   <g id="patch_57">
    <path clip-path="url(#ped72998476)" d="M 155.90174 273.312 
L 157.512206 273.312 
L 157.512206 201.422769 
L 155.90174 201.422769 
z
" style="fill:#1f77b4;"/>
   </g>
   <g id="patch_58">
    <path clip-path="url(#ped72998476)" d="M 157.512206 273.312 
L 159.122672 273.312 
L 159.122672 198.985846 
L 157.512206 198.985846 
z
" style="fill:#1f77b4;"/>
   </g>
   <g id="patch_59">
    <path clip-path="url(#ped72998476)" d="M 159.122672 273.312 
L 160.733138 273.312 
L 160.733138 202.641231 
L 159.122672 202.641231 
z
" style="fill:#1f77b4;"/>
   </g>
   <g id="patch_60">
    <path clip-path="url(#ped72998476)" d="M 160.733138 273.312 
L 162.343604 273.312 
L 162.343604 213.607385 
L 160.733138 213.607385 
z
" style="fill:#1f77b4;"/>
   </g>
   <g id="patch_61">
    <path clip-path="url(#ped72998476)" d="M 162.343604 273.312 
L 163.954071 273.312 
L 163.954071 196.548923 
L 162.343604 196.548923 
z
" style="fill:#1f77b4;"/>
   </g>
   <g id="patch_62">
    <path clip-path="url(#ped72998476)" d="M 163.954071 273.312 
L 165.564537 273.312 
L 165.564537 200.204308 
L 163.954071 200.204308 
z
" style="fill:#1f77b4;"/>
   </g>
   <g id="patch_63">
    <path clip-path="url(#ped72998476)" d="M 165.564537 273.312 
L 167.175003 273.312 
L 167.175003 199.595077 
L 165.564537 199.595077 
z
" style="fill:#1f77b4;"/>
   </g>
   <g id="patch_64">
    <path clip-path="url(#ped72998476)" d="M 167.175003 273.312 
L 168.785469 273.312 
L 168.785469 191.065846 
L 167.175003 191.065846 
z
" style="fill:#1f77b4;"/>
   </g>
   <g id="patch_65">
    <path clip-path="url(#ped72998476)" d="M 168.785469 273.312 
L 170.395935 273.312 
L 170.395935 195.939692 
L 168.785469 195.939692 
z
" style="fill:#1f77b4;"/>
   </g>
   <g id="patch_66">
    <path clip-path="url(#ped72998476)" d="M 170.395935 273.312 
L 172.006401 273.312 
L 172.006401 207.515077 
L 170.395935 207.515077 
z
" style="fill:#1f77b4;"/>
   </g>
   <g id="patch_67">
    <path clip-path="url(#ped72998476)" d="M 172.006401 273.312 
L 173.616867 273.312 
L 173.616867 192.284308 
L 172.006401 192.284308 
z
" style="fill:#1f77b4;"/>
   </g>
   <g id="patch_68">
    <path clip-path="url(#ped72998476)" d="M 173.616867 273.312 
L 175.227333 273.312 
L 175.227333 195.330462 
L 173.616867 195.330462 
z
" style="fill:#1f77b4;"/>
   </g>
   <g id="patch_69">
    <path clip-path="url(#ped72998476)" d="M 175.227333 273.312 
L 176.837799 273.312 
L 176.837799 190.456615 
L 175.227333 190.456615 
z
" style="fill:#1f77b4;"/>
   </g>
   <g id="patch_70">
    <path clip-path="url(#ped72998476)" d="M 176.837799 273.312 
L 178.448265 273.312 
L 178.448265 194.112 
L 176.837799 194.112 
z
" style="fill:#1f77b4;"/>
   </g>
   <g id="patch_71">
    <path clip-path="url(#ped72998476)" d="M 178.448265 273.312 
L 180.058731 273.312 
L 180.058731 190.456615 
L 178.448265 190.456615 
z
" style="fill:#1f77b4;"/>
   </g>
   <g id="patch_72">
    <path clip-path="url(#ped72998476)" d="M 180.058731 273.312 
L 181.669197 273.312 
L 181.669197 198.376615 
L 180.058731 198.376615 
z
" style="fill:#1f77b4;"/>
   </g>
   <g id="patch_73">
    <path clip-path="url(#ped72998476)" d="M 181.669197 273.312 
L 183.279663 273.312 
L 183.279663 190.456615 
L 181.669197 190.456615 
z
" style="fill:#1f77b4;"/>
   </g>
   <g id="patch_74">
    <path clip-path="url(#ped72998476)" d="M 183.279663 273.312 
L 184.890129 273.312 
L 184.890129 188.628923 
L 183.279663 188.628923 
z
" style="fill:#1f77b4;"/>
   </g>
   <g id="patch_75">
    <path clip-path="url(#ped72998476)" d="M 184.890129 273.312 
L 186.500595 273.312 
L 186.500595 186.801231 
L 184.890129 186.801231 
z
" style="fill:#1f77b4;"/>
   </g>
   <g id="patch_76">
    <path clip-path="url(#ped72998476)" d="M 186.500595 273.312 
L 188.111061 273.312 
L 188.111061 195.330462 
L 186.500595 195.330462 
z
" style="fill:#1f77b4;"/>
   </g>
   <g id="patch_77">
    <path clip-path="url(#ped72998476)" d="M 188.111061 273.312 
L 189.721527 273.312 
L 189.721527 171.570462 
L 188.111061 171.570462 
z
" style="fill:#1f77b4;"/>
   </g>
   <g id="patch_78">
    <path clip-path="url(#ped72998476)" d="M 189.721527 273.312 
L 191.331993 273.312 
L 191.331993 187.410462 
L 189.721527 187.410462 
z
" style="fill:#1f77b4;"/>
   </g>
   <g id="patch_79">
    <path clip-path="url(#ped72998476)" d="M 191.331993 273.312 
L 192.942459 273.312 
L 192.942459 176.444308 
L 191.331993 176.444308 
z
" style="fill:#1f77b4;"/>
   </g>
   <g id="patch_80">
    <path clip-path="url(#ped72998476)" d="M 192.942459 273.312 
L 194.552925 273.312 
L 194.552925 188.019692 
L 192.942459 188.019692 
z
" style="fill:#1f77b4;"/>
   </g>
   <g id="patch_81">
    <path clip-path="url(#ped72998476)" d="M 194.552925 273.312 
L 196.163391 273.312 
L 196.163391 169.742769 
L 194.552925 169.742769 
z
" style="fill:#1f77b4;"/>
   </g>
   <g id="patch_82">
    <path clip-path="url(#ped72998476)" d="M 196.163391 273.312 
L 197.773857 273.312 
L 197.773857 197.767385 
L 196.163391 197.767385 
z
" style="fill:#1f77b4;"/>
   </g>
   <g id="patch_83">
    <path clip-path="url(#ped72998476)" d="M 197.773857 273.312 
L 199.384323 273.312 
L 199.384323 177.662769 
L 197.773857 177.662769 
z
" style="fill:#1f77b4;"/>
   </g>
   <g id="patch_84">
    <path clip-path="url(#ped72998476)" d="M 199.384323 273.312 
L 200.99479 273.312 
L 200.99479 161.213538 
L 199.384323 161.213538 
z
" style="fill:#1f77b4;"/>
   </g>
   <g id="patch_85">
    <path clip-path="url(#ped72998476)" d="M 200.99479 273.312 
L 202.605256 273.312 
L 202.605256 161.213538 
L 200.99479 161.213538 
z
" style="fill:#1f77b4;"/>
   </g>
   <g id="patch_86">
    <path clip-path="url(#ped72998476)" d="M 202.605256 273.312 
L 204.215722 273.312 
L 204.215722 175.835077 
L 202.605256 175.835077 
z
" style="fill:#1f77b4;"/>
   </g>
   <g id="patch_87">
    <path clip-path="url(#ped72998476)" d="M 204.215722 273.312 
L 205.826188 273.312 
L 205.826188 166.087385 
L 204.215722 166.087385 
z
" style="fill:#1f77b4;"/>
   </g>
   <g id="patch_88">
    <path clip-path="url(#ped72998476)" d="M 205.826188 273.312 
L 207.436654 273.312 
L 207.436654 183.145846 
L 205.826188 183.145846 
z
" style="fill:#1f77b4;"/>
   </g>
   <g id="patch_89">
    <path clip-path="url(#ped72998476)" d="M 207.436654 273.312 
L 209.04712 273.312 
L 209.04712 159.995077 
L 207.436654 159.995077 
z
" style="fill:#1f77b4;"/>
   </g>
   <g id="patch_90">
    <path clip-path="url(#ped72998476)" d="M 209.04712 273.312 
L 210.657586 273.312 
L 210.657586 177.662769 
L 209.04712 177.662769 
z
" style="fill:#1f77b4;"/>
   </g>
   <g id="patch_91">
    <path clip-path="url(#ped72998476)" d="M 210.657586 273.312 
L 212.268052 273.312 
L 212.268052 173.398154 
L 210.657586 173.398154 
z
" style="fill:#1f77b4;"/>
   </g>
   <g id="patch_92">
    <path clip-path="url(#ped72998476)" d="M 212.268052 273.312 
L 213.878518 273.312 
L 213.878518 167.305846 
L 212.268052 167.305846 
z
" style="fill:#1f77b4;"/>
   </g>
   <g id="patch_93">
    <path clip-path="url(#ped72998476)" d="M 213.878518 273.312 
L 215.488984 273.312 
L 215.488984 166.696615 
L 213.878518 166.696615 
z
" style="fill:#1f77b4;"/>
   </g>
   <g id="patch_94">
    <path clip-path="url(#ped72998476)" d="M 215.488984 273.312 
L 217.09945 273.312 
L 217.09945 157.558154 
L 215.488984 157.558154 
z
" style="fill:#1f77b4;"/>
   </g>
   <g id="patch_95">
    <path clip-path="url(#ped72998476)" d="M 217.09945 273.312 
L 218.709916 273.312 
L 218.709916 146.592 
L 217.09945 146.592 
z
" style="fill:#1f77b4;"/>
   </g>
   <g id="patch_96">
    <path clip-path="url(#ped72998476)" d="M 218.709916 273.312 
L 220.320382 273.312 
L 220.320382 161.822769 
L 218.709916 161.822769 
z
" style="fill:#1f77b4;"/>
   </g>
   <g id="patch_97">
    <path clip-path="url(#ped72998476)" d="M 220.320382 273.312 
L 221.930848 273.312 
L 221.930848 153.293538 
L 220.320382 153.293538 
z
" style="fill:#1f77b4;"/>
   </g>
   <g id="patch_98">
    <path clip-path="url(#ped72998476)" d="M 221.930848 273.312 
L 223.541314 273.312 
L 223.541314 158.167385 
L 221.930848 158.167385 
z
" style="fill:#1f77b4;"/>
   </g>
   <g id="patch_99">
    <path clip-path="url(#ped72998476)" d="M 223.541314 273.312 
L 225.15178 273.312 
L 225.15178 153.902769 
L 223.541314 153.902769 
z
" style="fill:#1f77b4;"/>
   </g>
   <g id="patch_100">
    <path clip-path="url(#ped72998476)" d="M 225.15178 273.312 
L 226.762246 273.312 
L 226.762246 157.558154 
L 225.15178 157.558154 
z
" style="fill:#1f77b4;"/>
   </g>
   <g id="patch_101">
    <path clip-path="url(#ped72998476)" d="M 226.762246 273.312 
L 228.372712 273.312 
L 228.372712 158.167385 
L 226.762246 158.167385 
z
" style="fill:#1f77b4;"/>
   </g>
   <g id="patch_102">
    <path clip-path="url(#ped72998476)" d="M 228.372712 273.312 
L 229.983178 273.312 
L 229.983178 138.062769 
L 228.372712 138.062769 
z
" style="fill:#1f77b4;"/>
   </g>
   <g id="patch_103">
    <path clip-path="url(#ped72998476)" d="M 229.983178 273.312 
L 231.593644 273.312 
L 231.593644 167.915077 
L 229.983178 167.915077 
z
" style="fill:#1f77b4;"/>
   </g>
   <g id="patch_104">
    <path clip-path="url(#ped72998476)" d="M 231.593644 273.312 
L 233.20411 273.312 
L 233.20411 142.327385 
L 231.593644 142.327385 
z
" style="fill:#1f77b4;"/>
   </g>
   <g id="patch_105">
    <path clip-path="url(#ped72998476)" d="M 233.20411 273.312 
L 234.814576 273.312 
L 234.814576 141.718154 
L 233.20411 141.718154 
z
" style="fill:#1f77b4;"/>
   </g>
   <g id="patch_106">
    <path clip-path="url(#ped72998476)" d="M 234.814576 273.312 
L 236.425042 273.312 
L 236.425042 147.201231 
L 234.814576 147.201231 
z
" style="fill:#1f77b4;"/>
   </g>
   <g id="patch_107">
    <path clip-path="url(#ped72998476)" d="M 236.425042 273.312 
L 238.035508 273.312 
L 238.035508 143.545846 
L 236.425042 143.545846 
z
" style="fill:#1f77b4;"/>
   </g>
   <g id="patch_108">
    <path clip-path="url(#ped72998476)" d="M 238.035508 273.312 
L 239.645975 273.312 
L 239.645975 138.062769 
L 238.035508 138.062769 
z
" style="fill:#1f77b4;"/>
   </g>
   <g id="patch_109">
    <path clip-path="url(#ped72998476)" d="M 239.645975 273.312 
L 241.256441 273.312 
L 241.256441 144.155077 
L 239.645975 144.155077 
z
" style="fill:#1f77b4;"/>
   </g>
   <g id="patch_110">
    <path clip-path="url(#ped72998476)" d="M 241.256441 273.312 
L 242.866907 273.312 
L 242.866907 141.718154 
L 241.256441 141.718154 
z
" style="fill:#1f77b4;"/>
   </g>
   <g id="patch_111">
    <path clip-path="url(#ped72998476)" d="M 242.866907 273.312 
L 244.477373 273.312 
L 244.477373 161.213538 
L 242.866907 161.213538 
z
" style="fill:#1f77b4;"/>
   </g>
   <g id="patch_112">
    <path clip-path="url(#ped72998476)" d="M 244.477373 273.312 
L 246.087839 273.312 
L 246.087839 150.856615 
L 244.477373 150.856615 
z
" style="fill:#1f77b4;"/>
   </g>
   <g id="patch_113">
    <path clip-path="url(#ped72998476)" d="M 246.087839 273.312 
L 247.698305 273.312 
L 247.698305 138.672 
L 246.087839 138.672 
z
" style="fill:#1f77b4;"/>
   </g>
   <g id="patch_114">
    <path clip-path="url(#ped72998476)" d="M 247.698305 273.312 
L 249.308771 273.312 
L 249.308771 121.613538 
L 247.698305 121.613538 
z
" style="fill:#1f77b4;"/>
   </g>
   <g id="patch_115">
    <path clip-path="url(#ped72998476)" d="M 249.308771 273.312 
L 250.919237 273.312 
L 250.919237 111.865846 
L 249.308771 111.865846 
z
" style="fill:#1f77b4;"/>
   </g>
   <g id="patch_116">
    <path clip-path="url(#ped72998476)" d="M 250.919237 273.312 
L 252.529703 273.312 
L 252.529703 120.395077 
L 250.919237 120.395077 
z
" style="fill:#1f77b4;"/>
   </g>
   <g id="patch_117">
    <path clip-path="url(#ped72998476)" d="M 252.529703 273.312 
L 254.140169 273.312 
L 254.140169 156.948923 
L 252.529703 156.948923 
z
" style="fill:#1f77b4;"/>
   </g>
   <g id="patch_118">
    <path clip-path="url(#ped72998476)" d="M 254.140169 273.312 
L 255.750635 273.312 
L 255.750635 131.970462 
L 254.140169 131.970462 
z
" style="fill:#1f77b4;"/>
   </g>
   <g id="patch_119">
    <path clip-path="url(#ped72998476)" d="M 255.750635 273.312 
L 257.361101 273.312 
L 257.361101 118.567385 
L 255.750635 118.567385 
z
" style="fill:#1f77b4;"/>
   </g>
   <g id="patch_120">
    <path clip-path="url(#ped72998476)" d="M 257.361101 273.312 
L 258.971567 273.312 
L 258.971567 128.315077 
L 257.361101 128.315077 
z
" style="fill:#1f77b4;"/>
   </g>
   <g id="patch_121">
    <path clip-path="url(#ped72998476)" d="M 258.971567 273.312 
L 260.582033 273.312 
L 260.582033 141.108923 
L 258.971567 141.108923 
z
" style="fill:#1f77b4;"/>
   </g>
   <g id="patch_122">
    <path clip-path="url(#ped72998476)" d="M 260.582033 273.312 
L 262.192499 273.312 
L 262.192499 129.533538 
L 260.582033 129.533538 
z
" style="fill:#1f77b4;"/>
   </g>
   <g id="patch_123">
    <path clip-path="url(#ped72998476)" d="M 262.192499 273.312 
L 263.802965 273.312 
L 263.802965 128.315077 
L 262.192499 128.315077 
z
" style="fill:#1f77b4;"/>
   </g>
   <g id="patch_124">
    <path clip-path="url(#ped72998476)" d="M 263.802965 273.312 
L 265.413431 273.312 
L 265.413431 137.453538 
L 263.802965 137.453538 
z
" style="fill:#1f77b4;"/>
   </g>
   <g id="patch_125">
    <path clip-path="url(#ped72998476)" d="M 265.413431 273.312 
L 267.023897 273.312 
L 267.023897 128.924308 
L 265.413431 128.924308 
z
" style="fill:#1f77b4;"/>
   </g>
   <g id="patch_126">
    <path clip-path="url(#ped72998476)" d="M 267.023897 273.312 
L 268.634363 273.312 
L 268.634363 120.395077 
L 267.023897 120.395077 
z
" style="fill:#1f77b4;"/>
   </g>
   <g id="patch_127">
    <path clip-path="url(#ped72998476)" d="M 268.634363 273.312 
L 270.244829 273.312 
L 270.244829 127.705846 
L 268.634363 127.705846 
z
" style="fill:#1f77b4;"/>
   </g>
   <g id="patch_128">
    <path clip-path="url(#ped72998476)" d="M 270.244829 273.312 
L 271.855295 273.312 
L 271.855295 114.912 
L 270.244829 114.912 
z
" style="fill:#1f77b4;"/>
   </g>
   <g id="patch_129">
    <path clip-path="url(#ped72998476)" d="M 271.855295 273.312 
L 273.465761 273.312 
L 273.465761 133.188923 
L 271.855295 133.188923 
z
" style="fill:#1f77b4;"/>
   </g>
   <g id="patch_130">
    <path clip-path="url(#ped72998476)" d="M 273.465761 273.312 
L 275.076227 273.312 
L 275.076227 120.395077 
L 273.465761 120.395077 
z
" style="fill:#1f77b4;"/>
   </g>
   <g id="patch_131">
    <path clip-path="url(#ped72998476)" d="M 275.076227 273.312 
L 276.686694 273.312 
L 276.686694 107.601231 
L 275.076227 107.601231 
z
" style="fill:#1f77b4;"/>
   </g>
   <g id="patch_132">
    <path clip-path="url(#ped72998476)" d="M 276.686694 273.312 
L 278.29716 273.312 
L 278.29716 101.508923 
L 276.686694 101.508923 
z
" style="fill:#1f77b4;"/>
   </g>
   <g id="patch_133">
    <path clip-path="url(#ped72998476)" d="M 278.29716 273.312 
L 279.907626 273.312 
L 279.907626 109.428923 
L 278.29716 109.428923 
z
" style="fill:#1f77b4;"/>
   </g>
   <g id="patch_134">
    <path clip-path="url(#ped72998476)" d="M 279.907626 273.312 
L 281.518092 273.312 
L 281.518092 105.164308 
L 279.907626 105.164308 
z
" style="fill:#1f77b4;"/>
   </g>
   <g id="patch_135">
    <path clip-path="url(#ped72998476)" d="M 281.518092 273.312 
L 283.128558 273.312 
L 283.128558 128.315077 
L 281.518092 128.315077 
z
" style="fill:#1f77b4;"/>
   </g>
   <g id="patch_136">
    <path clip-path="url(#ped72998476)" d="M 283.128558 273.312 
L 284.739024 273.312 
L 284.739024 114.302769 
L 283.128558 114.302769 
z
" style="fill:#1f77b4;"/>
   </g>
   <g id="patch_137">
    <path clip-path="url(#ped72998476)" d="M 284.739024 273.312 
L 286.34949 273.312 
L 286.34949 97.853538 
L 284.739024 97.853538 
z
" style="fill:#1f77b4;"/>
   </g>
   <g id="patch_138">
    <path clip-path="url(#ped72998476)" d="M 286.34949 273.312 
L 287.959956 273.312 
L 287.959956 110.038154 
L 286.34949 110.038154 
z
" style="fill:#1f77b4;"/>
   </g>
   <g id="patch_139">
    <path clip-path="url(#ped72998476)" d="M 287.959956 273.312 
L 289.570422 273.312 
L 289.570422 91.761231 
L 287.959956 91.761231 
z
" style="fill:#1f77b4;"/>
   </g>
   <g id="patch_140">
    <path clip-path="url(#ped72998476)" d="M 289.570422 273.312 
L 291.180888 273.312 
L 291.180888 104.555077 
L 289.570422 104.555077 
z
" style="fill:#1f77b4;"/>
   </g>
   <g id="patch_141">
    <path clip-path="url(#ped72998476)" d="M 291.180888 273.312 
L 292.791354 273.312 
L 292.791354 111.865846 
L 291.180888 111.865846 
z
" style="fill:#1f77b4;"/>
   </g>
   <g id="patch_142">
    <path clip-path="url(#ped72998476)" d="M 292.791354 273.312 
L 294.40182 273.312 
L 294.40182 115.521231 
L 292.791354 115.521231 
z
" style="fill:#1f77b4;"/>
   </g>
   <g id="patch_143">
    <path clip-path="url(#ped72998476)" d="M 294.40182 273.312 
L 296.012286 273.312 
L 296.012286 109.428923 
L 294.40182 109.428923 
z
" style="fill:#1f77b4;"/>
   </g>
   <g id="patch_144">
    <path clip-path="url(#ped72998476)" d="M 296.012286 273.312 
L 297.622752 273.312 
L 297.622752 85.668923 
L 296.012286 85.668923 
z
" style="fill:#1f77b4;"/>
   </g>
   <g id="patch_145">
    <path clip-path="url(#ped72998476)" d="M 297.622752 273.312 
L 299.233218 273.312 
L 299.233218 88.715077 
L 297.622752 88.715077 
z
" style="fill:#1f77b4;"/>
   </g>
   <g id="patch_146">
    <path clip-path="url(#ped72998476)" d="M 299.233218 273.312 
L 300.843684 273.312 
L 300.843684 111.256615 
L 299.233218 111.256615 
z
" style="fill:#1f77b4;"/>
   </g>
   <g id="patch_147">
    <path clip-path="url(#ped72998476)" d="M 300.843684 273.312 
L 302.45415 273.312 
L 302.45415 88.715077 
L 300.843684 88.715077 
z
" style="fill:#1f77b4;"/>
   </g>
   <g id="patch_148">
    <path clip-path="url(#ped72998476)" d="M 302.45415 273.312 
L 304.064616 273.312 
L 304.064616 80.185846 
L 302.45415 80.185846 
z
" style="fill:#1f77b4;"/>
   </g>
   <g id="patch_149">
    <path clip-path="url(#ped72998476)" d="M 304.064616 273.312 
L 305.675082 273.312 
L 305.675082 101.508923 
L 304.064616 101.508923 
z
" style="fill:#1f77b4;"/>
   </g>
   <g id="patch_150">
    <path clip-path="url(#ped72998476)" d="M 305.675082 273.312 
L 307.285548 273.312 
L 307.285548 106.382769 
L 305.675082 106.382769 
z
" style="fill:#1f77b4;"/>
   </g>
   <g id="patch_151">
    <path clip-path="url(#ped72998476)" d="M 307.285548 273.312 
L 308.896014 273.312 
L 308.896014 99.681231 
L 307.285548 99.681231 
z
" style="fill:#1f77b4;"/>
   </g>
   <g id="patch_152">
    <path clip-path="url(#ped72998476)" d="M 308.896014 273.312 
L 310.50648 273.312 
L 310.50648 115.521231 
L 308.896014 115.521231 
z
" style="fill:#1f77b4;"/>
   </g>
   <g id="patch_153">
    <path clip-path="url(#ped72998476)" d="M 310.50648 273.312 
L 312.116946 273.312 
L 312.116946 89.933538 
L 310.50648 89.933538 
z
" style="fill:#1f77b4;"/>
   </g>
   <g id="patch_154">
    <path clip-path="url(#ped72998476)" d="M 312.116946 273.312 
L 313.727413 273.312 
L 313.727413 86.887385 
L 312.116946 86.887385 
z
" style="fill:#1f77b4;"/>
   </g>
   <g id="patch_155">
    <path clip-path="url(#ped72998476)" d="M 313.727413 273.312 
L 315.337879 273.312 
L 315.337879 99.072 
L 313.727413 99.072 
z
" style="fill:#1f77b4;"/>
   </g>
   <g id="patch_156">
    <path clip-path="url(#ped72998476)" d="M 315.337879 273.312 
L 316.948345 273.312 
L 316.948345 77.748923 
L 315.337879 77.748923 
z
" style="fill:#1f77b4;"/>
   </g>
   <g id="patch_157">
    <path clip-path="url(#ped72998476)" d="M 316.948345 273.312 
L 318.558811 273.312 
L 318.558811 78.967385 
L 316.948345 78.967385 
z
" style="fill:#1f77b4;"/>
   </g>
   <g id="patch_158">
    <path clip-path="url(#ped72998476)" d="M 318.558811 273.312 
L 320.169277 273.312 
L 320.169277 74.702769 
L 318.558811 74.702769 
z
" style="fill:#1f77b4;"/>
   </g>
   <g id="patch_159">
    <path clip-path="url(#ped72998476)" d="M 320.169277 273.312 
L 321.779743 273.312 
L 321.779743 89.324308 
L 320.169277 89.324308 
z
" style="fill:#1f77b4;"/>
   </g>
   <g id="patch_160">
    <path clip-path="url(#ped72998476)" d="M 321.779743 273.312 
L 323.390209 273.312 
L 323.390209 89.933538 
L 321.779743 89.933538 
z
" style="fill:#1f77b4;"/>
   </g>
   <g id="patch_161">
    <path clip-path="url(#ped72998476)" d="M 323.390209 273.312 
L 325.000675 273.312 
L 325.000675 94.198154 
L 323.390209 94.198154 
z
" style="fill:#1f77b4;"/>
   </g>
   <g id="patch_162">
    <path clip-path="url(#ped72998476)" d="M 325.000675 273.312 
L 326.611141 273.312 
L 326.611141 61.908923 
L 325.000675 61.908923 
z
" style="fill:#1f77b4;"/>
   </g>
   <g id="patch_163">
    <path clip-path="url(#ped72998476)" d="M 326.611141 273.312 
L 328.221607 273.312 
L 328.221607 66.173538 
L 326.611141 66.173538 
z
" style="fill:#1f77b4;"/>
   </g>
   <g id="patch_164">
    <path clip-path="url(#ped72998476)" d="M 328.221607 273.312 
L 329.832073 273.312 
L 329.832073 71.047385 
L 328.221607 71.047385 
z
" style="fill:#1f77b4;"/>
   </g>
   <g id="patch_165">
    <path clip-path="url(#ped72998476)" d="M 329.832073 273.312 
L 331.442539 273.312 
L 331.442539 74.702769 
L 329.832073 74.702769 
z
" style="fill:#1f77b4;"/>
   </g>
   <g id="patch_166">
    <path clip-path="url(#ped72998476)" d="M 331.442539 273.312 
L 333.053005 273.312 
L 333.053005 82.013538 
L 331.442539 82.013538 
z
" style="fill:#1f77b4;"/>
   </g>
   <g id="patch_167">
    <path clip-path="url(#ped72998476)" d="M 333.053005 273.312 
L 334.663471 273.312 
L 334.663471 79.576615 
L 333.053005 79.576615 
z
" style="fill:#1f77b4;"/>
   </g>
   <g id="patch_168">
    <path clip-path="url(#ped72998476)" d="M 334.663471 273.312 
L 336.273937 273.312 
L 336.273937 58.253538 
L 334.663471 58.253538 
z
" style="fill:#1f77b4;"/>
   </g>
   <g id="patch_169">
    <path clip-path="url(#ped72998476)" d="M 336.273937 273.312 
L 337.884403 273.312 
L 337.884403 50.333538 
L 336.273937 50.333538 
z
" style="fill:#1f77b4;"/>
   </g>
   <g id="patch_170">
    <path clip-path="url(#ped72998476)" d="M 337.884403 273.312 
L 339.494869 273.312 
L 339.494869 74.093538 
L 337.884403 74.093538 
z
" style="fill:#1f77b4;"/>
   </g>
   <g id="patch_171">
    <path clip-path="url(#ped72998476)" d="M 339.494869 273.312 
L 341.105335 273.312 
L 341.105335 56.425846 
L 339.494869 56.425846 
z
" style="fill:#1f77b4;"/>
   </g>
   <g id="patch_172">
    <path clip-path="url(#ped72998476)" d="M 341.105335 273.312 
L 342.715801 273.312 
L 342.715801 82.013538 
L 341.105335 82.013538 
z
" style="fill:#1f77b4;"/>
   </g>
   <g id="patch_173">
    <path clip-path="url(#ped72998476)" d="M 342.715801 273.312 
L 344.326267 273.312 
L 344.326267 55.816615 
L 342.715801 55.816615 
z
" style="fill:#1f77b4;"/>
   </g>
   <g id="patch_174">
    <path clip-path="url(#ped72998476)" d="M 344.326267 273.312 
L 345.936733 273.312 
L 345.936733 74.093538 
L 344.326267 74.093538 
z
" style="fill:#1f77b4;"/>
   </g>
   <g id="patch_175">
    <path clip-path="url(#ped72998476)" d="M 345.936733 273.312 
L 347.547199 273.312 
L 347.547199 78.358154 
L 345.936733 78.358154 
z
" style="fill:#1f77b4;"/>
   </g>
   <g id="patch_176">
    <path clip-path="url(#ped72998476)" d="M 347.547199 273.312 
L 349.157665 273.312 
L 349.157665 60.081231 
L 347.547199 60.081231 
z
" style="fill:#1f77b4;"/>
   </g>
   <g id="patch_177">
    <path clip-path="url(#ped72998476)" d="M 349.157665 273.312 
L 350.768132 273.312 
L 350.768132 60.081231 
L 349.157665 60.081231 
z
" style="fill:#1f77b4;"/>
   </g>
   <g id="patch_178">
    <path clip-path="url(#ped72998476)" d="M 350.768132 273.312 
L 352.378598 273.312 
L 352.378598 46.068923 
L 350.768132 46.068923 
z
" style="fill:#1f77b4;"/>
   </g>
   <g id="patch_179">
    <path clip-path="url(#ped72998476)" d="M 352.378598 273.312 
L 353.989064 273.312 
L 353.989064 69.828923 
L 352.378598 69.828923 
z
" style="fill:#1f77b4;"/>
   </g>
   <g id="patch_180">
    <path clip-path="url(#ped72998476)" d="M 353.989064 273.312 
L 355.59953 273.312 
L 355.59953 62.518154 
L 353.989064 62.518154 
z
" style="fill:#1f77b4;"/>
   </g>
   <g id="patch_181">
    <path clip-path="url(#ped72998476)" d="M 355.59953 273.312 
L 357.209996 273.312 
L 357.209996 38.758154 
L 355.59953 38.758154 
z
" style="fill:#1f77b4;"/>
   </g>
   <g id="patch_182">
    <path clip-path="url(#ped72998476)" d="M 357.209996 273.312 
L 358.820462 273.312 
L 358.820462 50.942769 
L 357.209996 50.942769 
z
" style="fill:#1f77b4;"/>
   </g>
   <g id="patch_183">
    <path clip-path="url(#ped72998476)" d="M 358.820462 273.312 
L 360.430928 273.312 
L 360.430928 50.942769 
L 358.820462 50.942769 
z
" style="fill:#1f77b4;"/>
   </g>
   <g id="patch_184">
    <path clip-path="url(#ped72998476)" d="M 360.430928 273.312 
L 362.041394 273.312 
L 362.041394 81.404308 
L 360.430928 81.404308 
z
" style="fill:#1f77b4;"/>
   </g>
   <g id="patch_185">
    <path clip-path="url(#ped72998476)" d="M 362.041394 273.312 
L 363.65186 273.312 
L 363.65186 60.081231 
L 362.041394 60.081231 
z
" style="fill:#1f77b4;"/>
   </g>
   <g id="patch_186">
    <path clip-path="url(#ped72998476)" d="M 363.65186 273.312 
L 365.262326 273.312 
L 365.262326 61.299692 
L 363.65186 61.299692 
z
" style="fill:#1f77b4;"/>
   </g>
   <g id="patch_187">
    <path clip-path="url(#ped72998476)" d="M 365.262326 273.312 
L 366.872792 273.312 
L 366.872792 53.988923 
L 365.262326 53.988923 
z
" style="fill:#1f77b4;"/>
   </g>
   <g id="patch_188">
    <path clip-path="url(#ped72998476)" d="M 366.872792 273.312 
L 368.483258 273.312 
L 368.483258 43.632 
L 366.872792 43.632 
z
" style="fill:#1f77b4;"/>
   </g>
   <g id="patch_189">
    <path clip-path="url(#ped72998476)" d="M 368.483258 273.312 
L 370.093724 273.312 
L 370.093724 63.127385 
L 368.483258 63.127385 
z
" style="fill:#1f77b4;"/>
   </g>
   <g id="patch_190">
    <path clip-path="url(#ped72998476)" d="M 370.093724 273.312 
L 371.70419 273.312 
L 371.70419 19.872 
L 370.093724 19.872 
z
" style="fill:#1f77b4;"/>
   </g>
   <g id="patch_191">
    <path clip-path="url(#ped72998476)" d="M 371.70419 273.312 
L 373.314656 273.312 
L 373.314656 36.930462 
L 371.70419 36.930462 
z
" style="fill:#1f77b4;"/>
   </g>
   <g id="patch_192">
    <path clip-path="url(#ped72998476)" d="M 373.314656 273.312 
L 374.925122 273.312 
L 374.925122 42.413538 
L 373.314656 42.413538 
z
" style="fill:#1f77b4;"/>
   </g>
   <g id="patch_193">
    <path clip-path="url(#ped72998476)" d="M 374.925122 273.312 
L 376.535588 273.312 
L 376.535588 57.644308 
L 374.925122 57.644308 
z
" style="fill:#1f77b4;"/>
   </g>
   <g id="patch_194">
    <path clip-path="url(#ped72998476)" d="M 376.535588 273.312 
L 378.146054 273.312 
L 378.146054 52.161231 
L 376.535588 52.161231 
z
" style="fill:#1f77b4;"/>
   </g>
   <g id="patch_195">
    <path clip-path="url(#ped72998476)" d="M 378.146054 273.312 
L 379.75652 273.312 
L 379.75652 44.850462 
L 378.146054 44.850462 
z
" style="fill:#1f77b4;"/>
   </g>
   <g id="patch_196">
    <path clip-path="url(#ped72998476)" d="M 379.75652 273.312 
L 381.366986 273.312 
L 381.366986 51.552 
L 379.75652 51.552 
z
" style="fill:#1f77b4;"/>
   </g>
   <g id="patch_197">
    <path clip-path="url(#ped72998476)" d="M 381.366986 273.312 
L 382.977452 273.312 
L 382.977452 30.838154 
L 381.366986 30.838154 
z
" style="fill:#1f77b4;"/>
   </g>
   <g id="patch_198">
    <path clip-path="url(#ped72998476)" d="M 382.977452 273.312 
L 384.587918 273.312 
L 384.587918 37.539692 
L 382.977452 37.539692 
z
" style="fill:#1f77b4;"/>
   </g>
   <g id="patch_199">
    <path clip-path="url(#ped72998476)" d="M 384.587918 273.312 
L 386.198384 273.312 
L 386.198384 29.619692 
L 384.587918 29.619692 
z
" style="fill:#1f77b4;"/>
   </g>
   <g id="patch_200">
    <path clip-path="url(#ped72998476)" d="M 386.198384 273.312 
L 387.80885 273.312 
L 387.80885 21.090462 
L 386.198384 21.090462 
z
" style="fill:#1f77b4;"/>
   </g>
   <g id="patch_201">
    <path clip-path="url(#ped72998476)" d="M 387.80885 273.312 
L 389.419317 273.312 
L 389.419317 33.275077 
L 387.80885 33.275077 
z
" style="fill:#1f77b4;"/>
   </g>
   <g id="patch_202">
    <path clip-path="url(#ped72998476)" d="M 389.419317 273.312 
L 391.029783 273.312 
L 391.029783 39.367385 
L 389.419317 39.367385 
z
" style="fill:#1f77b4;"/>
   </g>
   <g id="matplotlib.axis_1">
    <g id="xtick_1">
     <g id="line2d_1">
      <defs>
       <path d="M 0 0 
L 0 3.5 
" id="mf6a89e4c6e" style="stroke:#000000;stroke-width:0.8;"/>
      </defs>
      <g>
       <use style="stroke:#000000;stroke-width:0.8;" x="66.376477" xlink:href="#mf6a89e4c6e" y="273.312"/>
      </g>
     </g>
     <g id="text_1">
      <!-- 0.0 -->
      <g transform="translate(58.424915 287.910437)scale(0.1 -0.1)">
       <defs>
        <path d="M 2034 4250 
Q 1547 4250 1301 3770 
Q 1056 3291 1056 2328 
Q 1056 1369 1301 889 
Q 1547 409 2034 409 
Q 2525 409 2770 889 
Q 3016 1369 3016 2328 
Q 3016 3291 2770 3770 
Q 2525 4250 2034 4250 
z
M 2034 4750 
Q 2819 4750 3233 4129 
Q 3647 3509 3647 2328 
Q 3647 1150 3233 529 
Q 2819 -91 2034 -91 
Q 1250 -91 836 529 
Q 422 1150 422 2328 
Q 422 3509 836 4129 
Q 1250 4750 2034 4750 
z
" id="DejaVuSans-30" transform="scale(0.015625)"/>
        <path d="M 684 794 
L 1344 794 
L 1344 0 
L 684 0 
L 684 794 
z
" id="DejaVuSans-2e" transform="scale(0.015625)"/>
       </defs>
       <use xlink:href="#DejaVuSans-30"/>
       <use x="63.623047" xlink:href="#DejaVuSans-2e"/>
       <use x="95.410156" xlink:href="#DejaVuSans-30"/>
      </g>
     </g>
    </g>
    <g id="xtick_2">
     <g id="line2d_2">
      <g>
       <use style="stroke:#000000;stroke-width:0.8;" x="131.307386" xlink:href="#mf6a89e4c6e" y="273.312"/>
      </g>
     </g>
     <g id="text_2">
      <!-- 0.2 -->
      <g transform="translate(123.355824 287.910437)scale(0.1 -0.1)">
       <defs>
        <path d="M 1228 531 
L 3431 531 
L 3431 0 
L 469 0 
L 469 531 
Q 828 903 1448 1529 
Q 2069 2156 2228 2338 
Q 2531 2678 2651 2914 
Q 2772 3150 2772 3378 
Q 2772 3750 2511 3984 
Q 2250 4219 1831 4219 
Q 1534 4219 1204 4116 
Q 875 4013 500 3803 
L 500 4441 
Q 881 4594 1212 4672 
Q 1544 4750 1819 4750 
Q 2544 4750 2975 4387 
Q 3406 4025 3406 3419 
Q 3406 3131 3298 2873 
Q 3191 2616 2906 2266 
Q 2828 2175 2409 1742 
Q 1991 1309 1228 531 
z
" id="DejaVuSans-32" transform="scale(0.015625)"/>
       </defs>
       <use xlink:href="#DejaVuSans-30"/>
       <use x="63.623047" xlink:href="#DejaVuSans-2e"/>
       <use x="95.410156" xlink:href="#DejaVuSans-32"/>
      </g>
     </g>
    </g>
    <g id="xtick_3">
     <g id="line2d_3">
      <g>
       <use style="stroke:#000000;stroke-width:0.8;" x="196.238295" xlink:href="#mf6a89e4c6e" y="273.312"/>
      </g>
     </g>
     <g id="text_3">
      <!-- 0.4 -->
      <g transform="translate(188.286733 287.910437)scale(0.1 -0.1)">
       <defs>
        <path d="M 2419 4116 
L 825 1625 
L 2419 1625 
L 2419 4116 
z
M 2253 4666 
L 3047 4666 
L 3047 1625 
L 3713 1625 
L 3713 1100 
L 3047 1100 
L 3047 0 
L 2419 0 
L 2419 1100 
L 313 1100 
L 313 1709 
L 2253 4666 
z
" id="DejaVuSans-34" transform="scale(0.015625)"/>
       </defs>
       <use xlink:href="#DejaVuSans-30"/>
       <use x="63.623047" xlink:href="#DejaVuSans-2e"/>
       <use x="95.410156" xlink:href="#DejaVuSans-34"/>
      </g>
     </g>
    </g>
    <g id="xtick_4">
     <g id="line2d_4">
      <g>
       <use style="stroke:#000000;stroke-width:0.8;" x="261.169205" xlink:href="#mf6a89e4c6e" y="273.312"/>
      </g>
     </g>
     <g id="text_4">
      <!-- 0.6 -->
      <g transform="translate(253.217642 287.910437)scale(0.1 -0.1)">
       <defs>
        <path d="M 2113 2584 
Q 1688 2584 1439 2293 
Q 1191 2003 1191 1497 
Q 1191 994 1439 701 
Q 1688 409 2113 409 
Q 2538 409 2786 701 
Q 3034 994 3034 1497 
Q 3034 2003 2786 2293 
Q 2538 2584 2113 2584 
z
M 3366 4563 
L 3366 3988 
Q 3128 4100 2886 4159 
Q 2644 4219 2406 4219 
Q 1781 4219 1451 3797 
Q 1122 3375 1075 2522 
Q 1259 2794 1537 2939 
Q 1816 3084 2150 3084 
Q 2853 3084 3261 2657 
Q 3669 2231 3669 1497 
Q 3669 778 3244 343 
Q 2819 -91 2113 -91 
Q 1303 -91 875 529 
Q 447 1150 447 2328 
Q 447 3434 972 4092 
Q 1497 4750 2381 4750 
Q 2619 4750 2861 4703 
Q 3103 4656 3366 4563 
z
" id="DejaVuSans-36" transform="scale(0.015625)"/>
       </defs>
       <use xlink:href="#DejaVuSans-30"/>
       <use x="63.623047" xlink:href="#DejaVuSans-2e"/>
       <use x="95.410156" xlink:href="#DejaVuSans-36"/>
      </g>
     </g>
    </g>
    <g id="xtick_5">
     <g id="line2d_5">
      <g>
       <use style="stroke:#000000;stroke-width:0.8;" x="326.100114" xlink:href="#mf6a89e4c6e" y="273.312"/>
      </g>
     </g>
     <g id="text_5">
      <!-- 0.8 -->
      <g transform="translate(318.148551 287.910437)scale(0.1 -0.1)">
       <defs>
        <path d="M 2034 2216 
Q 1584 2216 1326 1975 
Q 1069 1734 1069 1313 
Q 1069 891 1326 650 
Q 1584 409 2034 409 
Q 2484 409 2743 651 
Q 3003 894 3003 1313 
Q 3003 1734 2745 1975 
Q 2488 2216 2034 2216 
z
M 1403 2484 
Q 997 2584 770 2862 
Q 544 3141 544 3541 
Q 544 4100 942 4425 
Q 1341 4750 2034 4750 
Q 2731 4750 3128 4425 
Q 3525 4100 3525 3541 
Q 3525 3141 3298 2862 
Q 3072 2584 2669 2484 
Q 3125 2378 3379 2068 
Q 3634 1759 3634 1313 
Q 3634 634 3220 271 
Q 2806 -91 2034 -91 
Q 1263 -91 848 271 
Q 434 634 434 1313 
Q 434 1759 690 2068 
Q 947 2378 1403 2484 
z
M 1172 3481 
Q 1172 3119 1398 2916 
Q 1625 2713 2034 2713 
Q 2441 2713 2670 2916 
Q 2900 3119 2900 3481 
Q 2900 3844 2670 4047 
Q 2441 4250 2034 4250 
Q 1625 4250 1398 4047 
Q 1172 3844 1172 3481 
z
" id="DejaVuSans-38" transform="scale(0.015625)"/>
       </defs>
       <use xlink:href="#DejaVuSans-30"/>
       <use x="63.623047" xlink:href="#DejaVuSans-2e"/>
       <use x="95.410156" xlink:href="#DejaVuSans-38"/>
      </g>
     </g>
    </g>
    <g id="xtick_6">
     <g id="line2d_6">
      <g>
       <use style="stroke:#000000;stroke-width:0.8;" x="391.031023" xlink:href="#mf6a89e4c6e" y="273.312"/>
      </g>
     </g>
     <g id="text_6">
      <!-- 1.0 -->
      <g transform="translate(383.07946 287.910437)scale(0.1 -0.1)">
       <defs>
        <path d="M 794 531 
L 1825 531 
L 1825 4091 
L 703 3866 
L 703 4441 
L 1819 4666 
L 2450 4666 
L 2450 531 
L 3481 531 
L 3481 0 
L 794 0 
L 794 531 
z
" id="DejaVuSans-31" transform="scale(0.015625)"/>
       </defs>
       <use xlink:href="#DejaVuSans-31"/>
       <use x="63.623047" xlink:href="#DejaVuSans-2e"/>
       <use x="95.410156" xlink:href="#DejaVuSans-30"/>
      </g>
     </g>
    </g>
    <g id="text_7">
     <!-- Propagation direction -->
     <g transform="translate(175.221719 301.588562)scale(0.1 -0.1)">
      <defs>
       <path d="M 1259 4147 
L 1259 2394 
L 2053 2394 
Q 2494 2394 2734 2622 
Q 2975 2850 2975 3272 
Q 2975 3691 2734 3919 
Q 2494 4147 2053 4147 
L 1259 4147 
z
M 628 4666 
L 2053 4666 
Q 2838 4666 3239 4311 
Q 3641 3956 3641 3272 
Q 3641 2581 3239 2228 
Q 2838 1875 2053 1875 
L 1259 1875 
L 1259 0 
L 628 0 
L 628 4666 
z
" id="DejaVuSans-50" transform="scale(0.015625)"/>
       <path d="M 2631 2963 
Q 2534 3019 2420 3045 
Q 2306 3072 2169 3072 
Q 1681 3072 1420 2755 
Q 1159 2438 1159 1844 
L 1159 0 
L 581 0 
L 581 3500 
L 1159 3500 
L 1159 2956 
Q 1341 3275 1631 3429 
Q 1922 3584 2338 3584 
Q 2397 3584 2469 3576 
Q 2541 3569 2628 3553 
L 2631 2963 
z
" id="DejaVuSans-72" transform="scale(0.015625)"/>
       <path d="M 1959 3097 
Q 1497 3097 1228 2736 
Q 959 2375 959 1747 
Q 959 1119 1226 758 
Q 1494 397 1959 397 
Q 2419 397 2687 759 
Q 2956 1122 2956 1747 
Q 2956 2369 2687 2733 
Q 2419 3097 1959 3097 
z
M 1959 3584 
Q 2709 3584 3137 3096 
Q 3566 2609 3566 1747 
Q 3566 888 3137 398 
Q 2709 -91 1959 -91 
Q 1206 -91 779 398 
Q 353 888 353 1747 
Q 353 2609 779 3096 
Q 1206 3584 1959 3584 
z
" id="DejaVuSans-6f" transform="scale(0.015625)"/>
       <path d="M 1159 525 
L 1159 -1331 
L 581 -1331 
L 581 3500 
L 1159 3500 
L 1159 2969 
Q 1341 3281 1617 3432 
Q 1894 3584 2278 3584 
Q 2916 3584 3314 3078 
Q 3713 2572 3713 1747 
Q 3713 922 3314 415 
Q 2916 -91 2278 -91 
Q 1894 -91 1617 61 
Q 1341 213 1159 525 
z
M 3116 1747 
Q 3116 2381 2855 2742 
Q 2594 3103 2138 3103 
Q 1681 3103 1420 2742 
Q 1159 2381 1159 1747 
Q 1159 1113 1420 752 
Q 1681 391 2138 391 
Q 2594 391 2855 752 
Q 3116 1113 3116 1747 
z
" id="DejaVuSans-70" transform="scale(0.015625)"/>
       <path d="M 2194 1759 
Q 1497 1759 1228 1600 
Q 959 1441 959 1056 
Q 959 750 1161 570 
Q 1363 391 1709 391 
Q 2188 391 2477 730 
Q 2766 1069 2766 1631 
L 2766 1759 
L 2194 1759 
z
M 3341 1997 
L 3341 0 
L 2766 0 
L 2766 531 
Q 2569 213 2275 61 
Q 1981 -91 1556 -91 
Q 1019 -91 701 211 
Q 384 513 384 1019 
Q 384 1609 779 1909 
Q 1175 2209 1959 2209 
L 2766 2209 
L 2766 2266 
Q 2766 2663 2505 2880 
Q 2244 3097 1772 3097 
Q 1472 3097 1187 3025 
Q 903 2953 641 2809 
L 641 3341 
Q 956 3463 1253 3523 
Q 1550 3584 1831 3584 
Q 2591 3584 2966 3190 
Q 3341 2797 3341 1997 
z
" id="DejaVuSans-61" transform="scale(0.015625)"/>
       <path d="M 2906 1791 
Q 2906 2416 2648 2759 
Q 2391 3103 1925 3103 
Q 1463 3103 1205 2759 
Q 947 2416 947 1791 
Q 947 1169 1205 825 
Q 1463 481 1925 481 
Q 2391 481 2648 825 
Q 2906 1169 2906 1791 
z
M 3481 434 
Q 3481 -459 3084 -895 
Q 2688 -1331 1869 -1331 
Q 1566 -1331 1297 -1286 
Q 1028 -1241 775 -1147 
L 775 -588 
Q 1028 -725 1275 -790 
Q 1522 -856 1778 -856 
Q 2344 -856 2625 -561 
Q 2906 -266 2906 331 
L 2906 616 
Q 2728 306 2450 153 
Q 2172 0 1784 0 
Q 1141 0 747 490 
Q 353 981 353 1791 
Q 353 2603 747 3093 
Q 1141 3584 1784 3584 
Q 2172 3584 2450 3431 
Q 2728 3278 2906 2969 
L 2906 3500 
L 3481 3500 
L 3481 434 
z
" id="DejaVuSans-67" transform="scale(0.015625)"/>
       <path d="M 1172 4494 
L 1172 3500 
L 2356 3500 
L 2356 3053 
L 1172 3053 
L 1172 1153 
Q 1172 725 1289 603 
Q 1406 481 1766 481 
L 2356 481 
L 2356 0 
L 1766 0 
Q 1100 0 847 248 
Q 594 497 594 1153 
L 594 3053 
L 172 3053 
L 172 3500 
L 594 3500 
L 594 4494 
L 1172 4494 
z
" id="DejaVuSans-74" transform="scale(0.015625)"/>
       <path d="M 603 3500 
L 1178 3500 
L 1178 0 
L 603 0 
L 603 3500 
z
M 603 4863 
L 1178 4863 
L 1178 4134 
L 603 4134 
L 603 4863 
z
" id="DejaVuSans-69" transform="scale(0.015625)"/>
       <path d="M 3513 2113 
L 3513 0 
L 2938 0 
L 2938 2094 
Q 2938 2591 2744 2837 
Q 2550 3084 2163 3084 
Q 1697 3084 1428 2787 
Q 1159 2491 1159 1978 
L 1159 0 
L 581 0 
L 581 3500 
L 1159 3500 
L 1159 2956 
Q 1366 3272 1645 3428 
Q 1925 3584 2291 3584 
Q 2894 3584 3203 3211 
Q 3513 2838 3513 2113 
z
" id="DejaVuSans-6e" transform="scale(0.015625)"/>
       <path id="DejaVuSans-20" transform="scale(0.015625)"/>
       <path d="M 2906 2969 
L 2906 4863 
L 3481 4863 
L 3481 0 
L 2906 0 
L 2906 525 
Q 2725 213 2448 61 
Q 2172 -91 1784 -91 
Q 1150 -91 751 415 
Q 353 922 353 1747 
Q 353 2572 751 3078 
Q 1150 3584 1784 3584 
Q 2172 3584 2448 3432 
Q 2725 3281 2906 2969 
z
M 947 1747 
Q 947 1113 1208 752 
Q 1469 391 1925 391 
Q 2381 391 2643 752 
Q 2906 1113 2906 1747 
Q 2906 2381 2643 2742 
Q 2381 3103 1925 3103 
Q 1469 3103 1208 2742 
Q 947 2381 947 1747 
z
" id="DejaVuSans-64" transform="scale(0.015625)"/>
       <path d="M 3597 1894 
L 3597 1613 
L 953 1613 
Q 991 1019 1311 708 
Q 1631 397 2203 397 
Q 2534 397 2845 478 
Q 3156 559 3463 722 
L 3463 178 
Q 3153 47 2828 -22 
Q 2503 -91 2169 -91 
Q 1331 -91 842 396 
Q 353 884 353 1716 
Q 353 2575 817 3079 
Q 1281 3584 2069 3584 
Q 2775 3584 3186 3129 
Q 3597 2675 3597 1894 
z
M 3022 2063 
Q 3016 2534 2758 2815 
Q 2500 3097 2075 3097 
Q 1594 3097 1305 2825 
Q 1016 2553 972 2059 
L 3022 2063 
z
" id="DejaVuSans-65" transform="scale(0.015625)"/>
       <path d="M 3122 3366 
L 3122 2828 
Q 2878 2963 2633 3030 
Q 2388 3097 2138 3097 
Q 1578 3097 1268 2742 
Q 959 2388 959 1747 
Q 959 1106 1268 751 
Q 1578 397 2138 397 
Q 2388 397 2633 464 
Q 2878 531 3122 666 
L 3122 134 
Q 2881 22 2623 -34 
Q 2366 -91 2075 -91 
Q 1284 -91 818 406 
Q 353 903 353 1747 
Q 353 2603 823 3093 
Q 1294 3584 2113 3584 
Q 2378 3584 2631 3529 
Q 2884 3475 3122 3366 
z
" id="DejaVuSans-63" transform="scale(0.015625)"/>
      </defs>
      <use xlink:href="#DejaVuSans-50"/>
      <use x="58.552734" xlink:href="#DejaVuSans-72"/>
      <use x="97.416016" xlink:href="#DejaVuSans-6f"/>
      <use x="158.597656" xlink:href="#DejaVuSans-70"/>
      <use x="222.074219" xlink:href="#DejaVuSans-61"/>
      <use x="283.353516" xlink:href="#DejaVuSans-67"/>
      <use x="346.830078" xlink:href="#DejaVuSans-61"/>
      <use x="408.109375" xlink:href="#DejaVuSans-74"/>
      <use x="447.318359" xlink:href="#DejaVuSans-69"/>
      <use x="475.101562" xlink:href="#DejaVuSans-6f"/>
      <use x="536.283203" xlink:href="#DejaVuSans-6e"/>
      <use x="599.662109" xlink:href="#DejaVuSans-20"/>
      <use x="631.449219" xlink:href="#DejaVuSans-64"/>
      <use x="694.925781" xlink:href="#DejaVuSans-69"/>
      <use x="722.708984" xlink:href="#DejaVuSans-72"/>
      <use x="761.572266" xlink:href="#DejaVuSans-65"/>
      <use x="823.095703" xlink:href="#DejaVuSans-63"/>
      <use x="878.076172" xlink:href="#DejaVuSans-74"/>
      <use x="917.285156" xlink:href="#DejaVuSans-69"/>
      <use x="945.068359" xlink:href="#DejaVuSans-6f"/>
      <use x="1006.25" xlink:href="#DejaVuSans-6e"/>
     </g>
    </g>
   </g>
   <g id="matplotlib.axis_2">
    <g id="ytick_1">
     <g id="line2d_7">
      <defs>
       <path d="M 0 0 
L -3.5 0 
" id="m38335907b1" style="stroke:#000000;stroke-width:0.8;"/>
      </defs>
      <g>
       <use style="stroke:#000000;stroke-width:0.8;" x="50.14375" xlink:href="#m38335907b1" y="273.312"/>
      </g>
     </g>
     <g id="text_8">
      <!-- 0.00 -->
      <g transform="translate(20.878125 277.111219)scale(0.1 -0.1)">
       <use xlink:href="#DejaVuSans-30"/>
       <use x="63.623047" xlink:href="#DejaVuSans-2e"/>
       <use x="95.410156" xlink:href="#DejaVuSans-30"/>
       <use x="159.033203" xlink:href="#DejaVuSans-30"/>
      </g>
     </g>
    </g>
    <g id="ytick_2">
     <g id="line2d_8">
      <g>
       <use style="stroke:#000000;stroke-width:0.8;" x="50.14375" xlink:href="#m38335907b1" y="243.090785"/>
      </g>
     </g>
     <g id="text_9">
      <!-- 0.25 -->
      <g transform="translate(20.878125 246.890004)scale(0.1 -0.1)">
       <defs>
        <path d="M 691 4666 
L 3169 4666 
L 3169 4134 
L 1269 4134 
L 1269 2991 
Q 1406 3038 1543 3061 
Q 1681 3084 1819 3084 
Q 2600 3084 3056 2656 
Q 3513 2228 3513 1497 
Q 3513 744 3044 326 
Q 2575 -91 1722 -91 
Q 1428 -91 1123 -41 
Q 819 9 494 109 
L 494 744 
Q 775 591 1075 516 
Q 1375 441 1709 441 
Q 2250 441 2565 725 
Q 2881 1009 2881 1497 
Q 2881 1984 2565 2268 
Q 2250 2553 1709 2553 
Q 1456 2553 1204 2497 
Q 953 2441 691 2322 
L 691 4666 
z
" id="DejaVuSans-35" transform="scale(0.015625)"/>
       </defs>
       <use xlink:href="#DejaVuSans-30"/>
       <use x="63.623047" xlink:href="#DejaVuSans-2e"/>
       <use x="95.410156" xlink:href="#DejaVuSans-32"/>
       <use x="159.033203" xlink:href="#DejaVuSans-35"/>
      </g>
     </g>
    </g>
    <g id="ytick_3">
     <g id="line2d_9">
      <g>
       <use style="stroke:#000000;stroke-width:0.8;" x="50.14375" xlink:href="#m38335907b1" y="212.869571"/>
      </g>
     </g>
     <g id="text_10">
      <!-- 0.50 -->
      <g transform="translate(20.878125 216.66879)scale(0.1 -0.1)">
       <use xlink:href="#DejaVuSans-30"/>
       <use x="63.623047" xlink:href="#DejaVuSans-2e"/>
       <use x="95.410156" xlink:href="#DejaVuSans-35"/>
       <use x="159.033203" xlink:href="#DejaVuSans-30"/>
      </g>
     </g>
    </g>
    <g id="ytick_4">
     <g id="line2d_10">
      <g>
       <use style="stroke:#000000;stroke-width:0.8;" x="50.14375" xlink:href="#m38335907b1" y="182.648356"/>
      </g>
     </g>
     <g id="text_11">
      <!-- 0.75 -->
      <g transform="translate(20.878125 186.447575)scale(0.1 -0.1)">
       <defs>
        <path d="M 525 4666 
L 3525 4666 
L 3525 4397 
L 1831 0 
L 1172 0 
L 2766 4134 
L 525 4134 
L 525 4666 
z
" id="DejaVuSans-37" transform="scale(0.015625)"/>
       </defs>
       <use xlink:href="#DejaVuSans-30"/>
       <use x="63.623047" xlink:href="#DejaVuSans-2e"/>
       <use x="95.410156" xlink:href="#DejaVuSans-37"/>
       <use x="159.033203" xlink:href="#DejaVuSans-35"/>
      </g>
     </g>
    </g>
    <g id="ytick_5">
     <g id="line2d_11">
      <g>
       <use style="stroke:#000000;stroke-width:0.8;" x="50.14375" xlink:href="#m38335907b1" y="152.427142"/>
      </g>
     </g>
     <g id="text_12">
      <!-- 1.00 -->
      <g transform="translate(20.878125 156.226361)scale(0.1 -0.1)">
       <use xlink:href="#DejaVuSans-31"/>
       <use x="63.623047" xlink:href="#DejaVuSans-2e"/>
       <use x="95.410156" xlink:href="#DejaVuSans-30"/>
       <use x="159.033203" xlink:href="#DejaVuSans-30"/>
      </g>
     </g>
    </g>
    <g id="ytick_6">
     <g id="line2d_12">
      <g>
       <use style="stroke:#000000;stroke-width:0.8;" x="50.14375" xlink:href="#m38335907b1" y="122.205927"/>
      </g>
     </g>
     <g id="text_13">
      <!-- 1.25 -->
      <g transform="translate(20.878125 126.005146)scale(0.1 -0.1)">
       <use xlink:href="#DejaVuSans-31"/>
       <use x="63.623047" xlink:href="#DejaVuSans-2e"/>
       <use x="95.410156" xlink:href="#DejaVuSans-32"/>
       <use x="159.033203" xlink:href="#DejaVuSans-35"/>
      </g>
     </g>
    </g>
    <g id="ytick_7">
     <g id="line2d_13">
      <g>
       <use style="stroke:#000000;stroke-width:0.8;" x="50.14375" xlink:href="#m38335907b1" y="91.984713"/>
      </g>
     </g>
     <g id="text_14">
      <!-- 1.50 -->
      <g transform="translate(20.878125 95.783932)scale(0.1 -0.1)">
       <use xlink:href="#DejaVuSans-31"/>
       <use x="63.623047" xlink:href="#DejaVuSans-2e"/>
       <use x="95.410156" xlink:href="#DejaVuSans-35"/>
       <use x="159.033203" xlink:href="#DejaVuSans-30"/>
      </g>
     </g>
    </g>
    <g id="ytick_8">
     <g id="line2d_14">
      <g>
       <use style="stroke:#000000;stroke-width:0.8;" x="50.14375" xlink:href="#m38335907b1" y="61.763498"/>
      </g>
     </g>
     <g id="text_15">
      <!-- 1.75 -->
      <g transform="translate(20.878125 65.562717)scale(0.1 -0.1)">
       <use xlink:href="#DejaVuSans-31"/>
       <use x="63.623047" xlink:href="#DejaVuSans-2e"/>
       <use x="95.410156" xlink:href="#DejaVuSans-37"/>
       <use x="159.033203" xlink:href="#DejaVuSans-35"/>
      </g>
     </g>
    </g>
    <g id="ytick_9">
     <g id="line2d_15">
      <g>
       <use style="stroke:#000000;stroke-width:0.8;" x="50.14375" xlink:href="#m38335907b1" y="31.542284"/>
      </g>
     </g>
     <g id="text_16">
      <!-- 2.00 -->
      <g transform="translate(20.878125 35.341503)scale(0.1 -0.1)">
       <use xlink:href="#DejaVuSans-32"/>
       <use x="63.623047" xlink:href="#DejaVuSans-2e"/>
       <use x="95.410156" xlink:href="#DejaVuSans-30"/>
       <use x="159.033203" xlink:href="#DejaVuSans-30"/>
      </g>
     </g>
    </g>
    <g id="text_17">
     <!-- Probability density -->
     <g transform="translate(14.798438 186.606781)rotate(-90)scale(0.1 -0.1)">
      <defs>
       <path d="M 3116 1747 
Q 3116 2381 2855 2742 
Q 2594 3103 2138 3103 
Q 1681 3103 1420 2742 
Q 1159 2381 1159 1747 
Q 1159 1113 1420 752 
Q 1681 391 2138 391 
Q 2594 391 2855 752 
Q 3116 1113 3116 1747 
z
M 1159 2969 
Q 1341 3281 1617 3432 
Q 1894 3584 2278 3584 
Q 2916 3584 3314 3078 
Q 3713 2572 3713 1747 
Q 3713 922 3314 415 
Q 2916 -91 2278 -91 
Q 1894 -91 1617 61 
Q 1341 213 1159 525 
L 1159 0 
L 581 0 
L 581 4863 
L 1159 4863 
L 1159 2969 
z
" id="DejaVuSans-62" transform="scale(0.015625)"/>
       <path d="M 603 4863 
L 1178 4863 
L 1178 0 
L 603 0 
L 603 4863 
z
" id="DejaVuSans-6c" transform="scale(0.015625)"/>
       <path d="M 2059 -325 
Q 1816 -950 1584 -1140 
Q 1353 -1331 966 -1331 
L 506 -1331 
L 506 -850 
L 844 -850 
Q 1081 -850 1212 -737 
Q 1344 -625 1503 -206 
L 1606 56 
L 191 3500 
L 800 3500 
L 1894 763 
L 2988 3500 
L 3597 3500 
L 2059 -325 
z
" id="DejaVuSans-79" transform="scale(0.015625)"/>
       <path d="M 2834 3397 
L 2834 2853 
Q 2591 2978 2328 3040 
Q 2066 3103 1784 3103 
Q 1356 3103 1142 2972 
Q 928 2841 928 2578 
Q 928 2378 1081 2264 
Q 1234 2150 1697 2047 
L 1894 2003 
Q 2506 1872 2764 1633 
Q 3022 1394 3022 966 
Q 3022 478 2636 193 
Q 2250 -91 1575 -91 
Q 1294 -91 989 -36 
Q 684 19 347 128 
L 347 722 
Q 666 556 975 473 
Q 1284 391 1588 391 
Q 1994 391 2212 530 
Q 2431 669 2431 922 
Q 2431 1156 2273 1281 
Q 2116 1406 1581 1522 
L 1381 1569 
Q 847 1681 609 1914 
Q 372 2147 372 2553 
Q 372 3047 722 3315 
Q 1072 3584 1716 3584 
Q 2034 3584 2315 3537 
Q 2597 3491 2834 3397 
z
" id="DejaVuSans-73" transform="scale(0.015625)"/>
      </defs>
      <use xlink:href="#DejaVuSans-50"/>
      <use x="58.552734" xlink:href="#DejaVuSans-72"/>
      <use x="97.416016" xlink:href="#DejaVuSans-6f"/>
      <use x="158.597656" xlink:href="#DejaVuSans-62"/>
      <use x="222.074219" xlink:href="#DejaVuSans-61"/>
      <use x="283.353516" xlink:href="#DejaVuSans-62"/>
      <use x="346.830078" xlink:href="#DejaVuSans-69"/>
      <use x="374.613281" xlink:href="#DejaVuSans-6c"/>
      <use x="402.396484" xlink:href="#DejaVuSans-69"/>
      <use x="430.179688" xlink:href="#DejaVuSans-74"/>
      <use x="469.388672" xlink:href="#DejaVuSans-79"/>
      <use x="528.568359" xlink:href="#DejaVuSans-20"/>
      <use x="560.355469" xlink:href="#DejaVuSans-64"/>
      <use x="623.832031" xlink:href="#DejaVuSans-65"/>
      <use x="685.355469" xlink:href="#DejaVuSans-6e"/>
      <use x="748.734375" xlink:href="#DejaVuSans-73"/>
      <use x="800.833984" xlink:href="#DejaVuSans-69"/>
      <use x="828.617188" xlink:href="#DejaVuSans-74"/>
      <use x="867.826172" xlink:href="#DejaVuSans-79"/>
     </g>
    </g>
   </g>
   <g id="line2d_16">
    <path clip-path="url(#ped72998476)" d="M 66.376477 273.312 
L 391.031023 31.542284 
L 391.031023 31.542284 
" style="fill:none;stroke:#ff7f0e;stroke-linecap:square;stroke-width:1.5;"/>
   </g>
   <g id="patch_203">
    <path d="M 50.14375 273.312 
L 50.14375 7.2 
" style="fill:none;stroke:#000000;stroke-linecap:square;stroke-linejoin:miter;stroke-width:0.8;"/>
   </g>
   <g id="patch_204">
    <path d="M 407.26375 273.312 
L 407.26375 7.2 
" style="fill:none;stroke:#000000;stroke-linecap:square;stroke-linejoin:miter;stroke-width:0.8;"/>
   </g>
   <g id="patch_205">
    <path d="M 50.14375 273.312 
L 407.26375 273.312 
" style="fill:none;stroke:#000000;stroke-linecap:square;stroke-linejoin:miter;stroke-width:0.8;"/>
   </g>
   <g id="patch_206">
    <path d="M 50.14375 7.2 
L 407.26375 7.2 
" style="fill:none;stroke:#000000;stroke-linecap:square;stroke-linejoin:miter;stroke-width:0.8;"/>
   </g>
  </g>
 </g>
 <defs>
  <clipPath id="ped72998476">
   <rect height="266.112" width="357.12" x="50.14375" y="7.2"/>
  </clipPath>
 </defs>
</svg>
