<?xml version="1.0" encoding="utf-8" standalone="no"?>
<!DOCTYPE svg PUBLIC "-//W3C//DTD SVG 1.1//EN"
  "http://www.w3.org/Graphics/SVG/1.1/DTD/svg11.dtd">
<svg height="310.86825pt" version="1.1" viewBox="0 0 408.10125 310.86825" width="408.10125pt" xmlns="http://www.w3.org/2000/svg" xmlns:xlink="http://www.w3.org/1999/xlink">
 <metadata>
  <rdf:RDF xmlns:cc="http://creativecommons.org/ns#" xmlns:dc="http://purl.org/dc/elements/1.1/" xmlns:rdf="http://www.w3.org/1999/02/22-rdf-syntax-ns#">
   <cc:Work>
    <dc:type rdf:resource="http://purl.org/dc/dcmitype/StillImage"/>
    <dc:date>2021-07-06T17:40:05.411021</dc:date>
    <dc:format>image/svg+xml</dc:format>
    <dc:creator>
     <cc:Agent>
      <dc:title>Matplotlib v3.4.2, https://matplotlib.org/</dc:title>
     </cc:Agent>
    </dc:creator>
   </cc:Work>
  </rdf:RDF>
 </metadata>
 <defs>
  <style type="text/css">*{stroke-linecap:butt;stroke-linejoin:round;}</style>
 </defs>
 <g id="figure_1">
  <g id="patch_1">
   <path d="M 0 310.86825 
L 408.10125 310.86825 
L 408.10125 0 
L 0 0 
z
" style="fill:#ffffff;"/>
  </g>
  <g id="axes_1">
   <g id="patch_2">
    <path d="M 43.78125 273.312 
L 400.90125 273.312 
L 400.90125 7.2 
L 43.78125 7.2 
z
" style="fill:#ffffff;"/>
   </g>
   <g id="patch_3">
    <path clip-path="url(#p3e22e48ff9)" d="M 60.408629 273.312 
L 62.027904 273.312 
L 62.027904 266.441639 
L 60.408629 266.441639 
z
" style="fill:#1f77b4;"/>
   </g>
   <g id="patch_4">
    <path clip-path="url(#p3e22e48ff9)" d="M 62.027904 273.312 
L 63.647179 273.312 
L 63.647179 264.151518 
L 62.027904 264.151518 
z
" style="fill:#1f77b4;"/>
   </g>
   <g id="patch_5">
    <path clip-path="url(#p3e22e48ff9)" d="M 63.647179 273.312 
L 65.266454 273.312 
L 65.266454 263.388145 
L 63.647179 263.388145 
z
" style="fill:#1f77b4;"/>
   </g>
   <g id="patch_6">
    <path clip-path="url(#p3e22e48ff9)" d="M 65.266454 273.312 
L 66.885729 273.312 
L 66.885729 261.861398 
L 65.266454 261.861398 
z
" style="fill:#1f77b4;"/>
   </g>
   <g id="patch_7">
    <path clip-path="url(#p3e22e48ff9)" d="M 66.885729 273.312 
L 68.505004 273.312 
L 68.505004 251.937542 
L 66.885729 251.937542 
z
" style="fill:#1f77b4;"/>
   </g>
   <g id="patch_8">
    <path clip-path="url(#p3e22e48ff9)" d="M 68.505004 273.312 
L 70.124279 273.312 
L 70.124279 258.04453 
L 68.505004 258.04453 
z
" style="fill:#1f77b4;"/>
   </g>
   <g id="patch_9">
    <path clip-path="url(#p3e22e48ff9)" d="M 70.124279 273.312 
L 71.743554 273.312 
L 71.743554 245.067181 
L 70.124279 245.067181 
z
" style="fill:#1f77b4;"/>
   </g>
   <g id="patch_10">
    <path clip-path="url(#p3e22e48ff9)" d="M 71.743554 273.312 
L 73.362829 273.312 
L 73.362829 245.830554 
L 71.743554 245.830554 
z
" style="fill:#1f77b4;"/>
   </g>
   <g id="patch_11">
    <path clip-path="url(#p3e22e48ff9)" d="M 73.362829 273.312 
L 74.982104 273.312 
L 74.982104 239.723566 
L 73.362829 239.723566 
z
" style="fill:#1f77b4;"/>
   </g>
   <g id="patch_12">
    <path clip-path="url(#p3e22e48ff9)" d="M 74.982104 273.312 
L 76.601379 273.312 
L 76.601379 241.250313 
L 74.982104 241.250313 
z
" style="fill:#1f77b4;"/>
   </g>
   <g id="patch_13">
    <path clip-path="url(#p3e22e48ff9)" d="M 76.601379 273.312 
L 78.220654 273.312 
L 78.220654 230.563084 
L 76.601379 230.563084 
z
" style="fill:#1f77b4;"/>
   </g>
   <g id="patch_14">
    <path clip-path="url(#p3e22e48ff9)" d="M 78.220654 273.312 
L 79.839929 273.312 
L 79.839929 228.272964 
L 78.220654 228.272964 
z
" style="fill:#1f77b4;"/>
   </g>
   <g id="patch_15">
    <path clip-path="url(#p3e22e48ff9)" d="M 79.839929 273.312 
L 81.459204 273.312 
L 81.459204 232.089831 
L 79.839929 232.089831 
z
" style="fill:#1f77b4;"/>
   </g>
   <g id="patch_16">
    <path clip-path="url(#p3e22e48ff9)" d="M 81.459204 273.312 
L 83.078478 273.312 
L 83.078478 226.746217 
L 81.459204 226.746217 
z
" style="fill:#1f77b4;"/>
   </g>
   <g id="patch_17">
    <path clip-path="url(#p3e22e48ff9)" d="M 83.078478 273.312 
L 84.697753 273.312 
L 84.697753 218.349108 
L 83.078478 218.349108 
z
" style="fill:#1f77b4;"/>
   </g>
   <g id="patch_18">
    <path clip-path="url(#p3e22e48ff9)" d="M 84.697753 273.312 
L 86.317028 273.312 
L 86.317028 226.746217 
L 84.697753 226.746217 
z
" style="fill:#1f77b4;"/>
   </g>
   <g id="patch_19">
    <path clip-path="url(#p3e22e48ff9)" d="M 86.317028 273.312 
L 87.936303 273.312 
L 87.936303 205.371759 
L 86.317028 205.371759 
z
" style="fill:#1f77b4;"/>
   </g>
   <g id="patch_20">
    <path clip-path="url(#p3e22e48ff9)" d="M 87.936303 273.312 
L 89.555578 273.312 
L 89.555578 203.081639 
L 87.936303 203.081639 
z
" style="fill:#1f77b4;"/>
   </g>
   <g id="patch_21">
    <path clip-path="url(#p3e22e48ff9)" d="M 89.555578 273.312 
L 91.174853 273.312 
L 91.174853 213.005494 
L 89.555578 213.005494 
z
" style="fill:#1f77b4;"/>
   </g>
   <g id="patch_22">
    <path clip-path="url(#p3e22e48ff9)" d="M 91.174853 273.312 
L 92.794128 273.312 
L 92.794128 195.447904 
L 91.174853 195.447904 
z
" style="fill:#1f77b4;"/>
   </g>
   <g id="patch_23">
    <path clip-path="url(#p3e22e48ff9)" d="M 92.794128 273.312 
L 94.413403 273.312 
L 94.413403 189.340916 
L 92.794128 189.340916 
z
" style="fill:#1f77b4;"/>
   </g>
   <g id="patch_24">
    <path clip-path="url(#p3e22e48ff9)" d="M 94.413403 273.312 
L 96.032678 273.312 
L 96.032678 191.631036 
L 94.413403 191.631036 
z
" style="fill:#1f77b4;"/>
   </g>
   <g id="patch_25">
    <path clip-path="url(#p3e22e48ff9)" d="M 96.032678 273.312 
L 97.651953 273.312 
L 97.651953 198.501398 
L 96.032678 198.501398 
z
" style="fill:#1f77b4;"/>
   </g>
   <g id="patch_26">
    <path clip-path="url(#p3e22e48ff9)" d="M 97.651953 273.312 
L 99.271228 273.312 
L 99.271228 180.943807 
L 97.651953 180.943807 
z
" style="fill:#1f77b4;"/>
   </g>
   <g id="patch_27">
    <path clip-path="url(#p3e22e48ff9)" d="M 99.271228 273.312 
L 100.890503 273.312 
L 100.890503 185.524048 
L 99.271228 185.524048 
z
" style="fill:#1f77b4;"/>
   </g>
   <g id="patch_28">
    <path clip-path="url(#p3e22e48ff9)" d="M 100.890503 273.312 
L 102.509778 273.312 
L 102.509778 180.180434 
L 100.890503 180.180434 
z
" style="fill:#1f77b4;"/>
   </g>
   <g id="patch_29">
    <path clip-path="url(#p3e22e48ff9)" d="M 102.509778 273.312 
L 104.129053 273.312 
L 104.129053 179.41706 
L 102.509778 179.41706 
z
" style="fill:#1f77b4;"/>
   </g>
   <g id="patch_30">
    <path clip-path="url(#p3e22e48ff9)" d="M 104.129053 273.312 
L 105.748328 273.312 
L 105.748328 170.256578 
L 104.129053 170.256578 
z
" style="fill:#1f77b4;"/>
   </g>
   <g id="patch_31">
    <path clip-path="url(#p3e22e48ff9)" d="M 105.748328 273.312 
L 107.367603 273.312 
L 107.367603 175.600193 
L 105.748328 175.600193 
z
" style="fill:#1f77b4;"/>
   </g>
   <g id="patch_32">
    <path clip-path="url(#p3e22e48ff9)" d="M 107.367603 273.312 
L 108.986878 273.312 
L 108.986878 169.493205 
L 107.367603 169.493205 
z
" style="fill:#1f77b4;"/>
   </g>
   <g id="patch_33">
    <path clip-path="url(#p3e22e48ff9)" d="M 108.986878 273.312 
L 110.606153 273.312 
L 110.606153 164.14959 
L 108.986878 164.14959 
z
" style="fill:#1f77b4;"/>
   </g>
   <g id="patch_34">
    <path clip-path="url(#p3e22e48ff9)" d="M 110.606153 273.312 
L 112.225428 273.312 
L 112.225428 161.096096 
L 110.606153 161.096096 
z
" style="fill:#1f77b4;"/>
   </g>
   <g id="patch_35">
    <path clip-path="url(#p3e22e48ff9)" d="M 112.225428 273.312 
L 113.844703 273.312 
L 113.844703 171.783325 
L 112.225428 171.783325 
z
" style="fill:#1f77b4;"/>
   </g>
   <g id="patch_36">
    <path clip-path="url(#p3e22e48ff9)" d="M 113.844703 273.312 
L 115.463978 273.312 
L 115.463978 153.462361 
L 113.844703 153.462361 
z
" style="fill:#1f77b4;"/>
   </g>
   <g id="patch_37">
    <path clip-path="url(#p3e22e48ff9)" d="M 115.463978 273.312 
L 117.083252 273.312 
L 117.083252 156.515855 
L 115.463978 156.515855 
z
" style="fill:#1f77b4;"/>
   </g>
   <g id="patch_38">
    <path clip-path="url(#p3e22e48ff9)" d="M 117.083252 273.312 
L 118.702527 273.312 
L 118.702527 138.958265 
L 117.083252 138.958265 
z
" style="fill:#1f77b4;"/>
   </g>
   <g id="patch_39">
    <path clip-path="url(#p3e22e48ff9)" d="M 118.702527 273.312 
L 120.321802 273.312 
L 120.321802 142.775133 
L 118.702527 142.775133 
z
" style="fill:#1f77b4;"/>
   </g>
   <g id="patch_40">
    <path clip-path="url(#p3e22e48ff9)" d="M 120.321802 273.312 
L 121.941077 273.312 
L 121.941077 136.668145 
L 120.321802 136.668145 
z
" style="fill:#1f77b4;"/>
   </g>
   <g id="patch_41">
    <path clip-path="url(#p3e22e48ff9)" d="M 121.941077 273.312 
L 123.560352 273.312 
L 123.560352 145.065253 
L 121.941077 145.065253 
z
" style="fill:#1f77b4;"/>
   </g>
   <g id="patch_42">
    <path clip-path="url(#p3e22e48ff9)" d="M 123.560352 273.312 
L 125.179627 273.312 
L 125.179627 142.775133 
L 123.560352 142.775133 
z
" style="fill:#1f77b4;"/>
   </g>
   <g id="patch_43">
    <path clip-path="url(#p3e22e48ff9)" d="M 125.179627 273.312 
L 126.798902 273.312 
L 126.798902 123.690795 
L 125.179627 123.690795 
z
" style="fill:#1f77b4;"/>
   </g>
   <g id="patch_44">
    <path clip-path="url(#p3e22e48ff9)" d="M 126.798902 273.312 
L 128.418177 273.312 
L 128.418177 136.668145 
L 126.798902 136.668145 
z
" style="fill:#1f77b4;"/>
   </g>
   <g id="patch_45">
    <path clip-path="url(#p3e22e48ff9)" d="M 128.418177 273.312 
L 130.037452 273.312 
L 130.037452 116.820434 
L 128.418177 116.820434 
z
" style="fill:#1f77b4;"/>
   </g>
   <g id="patch_46">
    <path clip-path="url(#p3e22e48ff9)" d="M 130.037452 273.312 
L 131.656727 273.312 
L 131.656727 129.797783 
L 130.037452 129.797783 
z
" style="fill:#1f77b4;"/>
   </g>
   <g id="patch_47">
    <path clip-path="url(#p3e22e48ff9)" d="M 131.656727 273.312 
L 133.276002 273.312 
L 133.276002 100.026217 
L 131.656727 100.026217 
z
" style="fill:#1f77b4;"/>
   </g>
   <g id="patch_48">
    <path clip-path="url(#p3e22e48ff9)" d="M 133.276002 273.312 
L 134.895277 273.312 
L 134.895277 108.423325 
L 133.276002 108.423325 
z
" style="fill:#1f77b4;"/>
   </g>
   <g id="patch_49">
    <path clip-path="url(#p3e22e48ff9)" d="M 134.895277 273.312 
L 136.514552 273.312 
L 136.514552 111.476819 
L 134.895277 111.476819 
z
" style="fill:#1f77b4;"/>
   </g>
   <g id="patch_50">
    <path clip-path="url(#p3e22e48ff9)" d="M 136.514552 273.312 
L 138.133827 273.312 
L 138.133827 102.316337 
L 136.514552 102.316337 
z
" style="fill:#1f77b4;"/>
   </g>
   <g id="patch_51">
    <path clip-path="url(#p3e22e48ff9)" d="M 138.133827 273.312 
L 139.753102 273.312 
L 139.753102 101.552964 
L 138.133827 101.552964 
z
" style="fill:#1f77b4;"/>
   </g>
   <g id="patch_52">
    <path clip-path="url(#p3e22e48ff9)" d="M 139.753102 273.312 
L 141.372377 273.312 
L 141.372377 113.003566 
L 139.753102 113.003566 
z
" style="fill:#1f77b4;"/>
   </g>
   <g id="patch_53">
    <path clip-path="url(#p3e22e48ff9)" d="M 141.372377 273.312 
L 142.991652 273.312 
L 142.991652 103.843084 
L 141.372377 103.843084 
z
" style="fill:#1f77b4;"/>
   </g>
   <g id="patch_54">
    <path clip-path="url(#p3e22e48ff9)" d="M 142.991652 273.312 
L 144.610927 273.312 
L 144.610927 90.102361 
L 142.991652 90.102361 
z
" style="fill:#1f77b4;"/>
   </g>
   <g id="patch_55">
    <path clip-path="url(#p3e22e48ff9)" d="M 144.610927 273.312 
L 146.230202 273.312 
L 146.230202 99.262843 
L 144.610927 99.262843 
z
" style="fill:#1f77b4;"/>
   </g>
   <g id="patch_56">
    <path clip-path="url(#p3e22e48ff9)" d="M 146.230202 273.312 
L 147.849477 273.312 
L 147.849477 109.186699 
L 146.230202 109.186699 
z
" style="fill:#1f77b4;"/>
   </g>
   <g id="patch_57">
    <path clip-path="url(#p3e22e48ff9)" d="M 147.849477 273.312 
L 149.468752 273.312 
L 149.468752 94.682602 
L 147.849477 94.682602 
z
" style="fill:#1f77b4;"/>
   </g>
   <g id="patch_58">
    <path clip-path="url(#p3e22e48ff9)" d="M 149.468752 273.312 
L 151.088026 273.312 
L 151.088026 109.950072 
L 149.468752 109.950072 
z
" style="fill:#1f77b4;"/>
   </g>
   <g id="patch_59">
    <path clip-path="url(#p3e22e48ff9)" d="M 151.088026 273.312 
L 152.707301 273.312 
L 152.707301 87.812241 
L 151.088026 87.812241 
z
" style="fill:#1f77b4;"/>
   </g>
   <g id="patch_60">
    <path clip-path="url(#p3e22e48ff9)" d="M 152.707301 273.312 
L 154.326576 273.312 
L 154.326576 77.125012 
L 152.707301 77.125012 
z
" style="fill:#1f77b4;"/>
   </g>
   <g id="patch_61">
    <path clip-path="url(#p3e22e48ff9)" d="M 154.326576 273.312 
L 155.945851 273.312 
L 155.945851 84.758747 
L 154.326576 84.758747 
z
" style="fill:#1f77b4;"/>
   </g>
   <g id="patch_62">
    <path clip-path="url(#p3e22e48ff9)" d="M 155.945851 273.312 
L 157.565126 273.312 
L 157.565126 87.812241 
L 155.945851 87.812241 
z
" style="fill:#1f77b4;"/>
   </g>
   <g id="patch_63">
    <path clip-path="url(#p3e22e48ff9)" d="M 157.565126 273.312 
L 159.184401 273.312 
L 159.184401 81.705253 
L 157.565126 81.705253 
z
" style="fill:#1f77b4;"/>
   </g>
   <g id="patch_64">
    <path clip-path="url(#p3e22e48ff9)" d="M 159.184401 273.312 
L 160.803676 273.312 
L 160.803676 90.865735 
L 159.184401 90.865735 
z
" style="fill:#1f77b4;"/>
   </g>
   <g id="patch_65">
    <path clip-path="url(#p3e22e48ff9)" d="M 160.803676 273.312 
L 162.422951 273.312 
L 162.422951 64.911036 
L 160.803676 64.911036 
z
" style="fill:#1f77b4;"/>
   </g>
   <g id="patch_66">
    <path clip-path="url(#p3e22e48ff9)" d="M 162.422951 273.312 
L 164.042226 273.312 
L 164.042226 59.567422 
L 162.422951 59.567422 
z
" style="fill:#1f77b4;"/>
   </g>
   <g id="patch_67">
    <path clip-path="url(#p3e22e48ff9)" d="M 164.042226 273.312 
L 165.661501 273.312 
L 165.661501 83.995373 
L 164.042226 83.995373 
z
" style="fill:#1f77b4;"/>
   </g>
   <g id="patch_68">
    <path clip-path="url(#p3e22e48ff9)" d="M 165.661501 273.312 
L 167.280776 273.312 
L 167.280776 64.147663 
L 165.661501 64.147663 
z
" style="fill:#1f77b4;"/>
   </g>
   <g id="patch_69">
    <path clip-path="url(#p3e22e48ff9)" d="M 167.280776 273.312 
L 168.900051 273.312 
L 168.900051 44.299952 
L 167.280776 44.299952 
z
" style="fill:#1f77b4;"/>
   </g>
   <g id="patch_70">
    <path clip-path="url(#p3e22e48ff9)" d="M 168.900051 273.312 
L 170.519326 273.312 
L 170.519326 59.567422 
L 168.900051 59.567422 
z
" style="fill:#1f77b4;"/>
   </g>
   <g id="patch_71">
    <path clip-path="url(#p3e22e48ff9)" d="M 170.519326 273.312 
L 172.138601 273.312 
L 172.138601 74.834892 
L 170.519326 74.834892 
z
" style="fill:#1f77b4;"/>
   </g>
   <g id="patch_72">
    <path clip-path="url(#p3e22e48ff9)" d="M 172.138601 273.312 
L 173.757876 273.312 
L 173.757876 52.69706 
L 172.138601 52.69706 
z
" style="fill:#1f77b4;"/>
   </g>
   <g id="patch_73">
    <path clip-path="url(#p3e22e48ff9)" d="M 173.757876 273.312 
L 175.377151 273.312 
L 175.377151 56.513928 
L 173.757876 56.513928 
z
" style="fill:#1f77b4;"/>
   </g>
   <g id="patch_74">
    <path clip-path="url(#p3e22e48ff9)" d="M 175.377151 273.312 
L 176.996426 273.312 
L 176.996426 45.826699 
L 175.377151 45.826699 
z
" style="fill:#1f77b4;"/>
   </g>
   <g id="patch_75">
    <path clip-path="url(#p3e22e48ff9)" d="M 176.996426 273.312 
L 178.615701 273.312 
L 178.615701 70.254651 
L 176.996426 70.254651 
z
" style="fill:#1f77b4;"/>
   </g>
   <g id="patch_76">
    <path clip-path="url(#p3e22e48ff9)" d="M 178.615701 273.312 
L 180.234976 273.312 
L 180.234976 48.116819 
L 178.615701 48.116819 
z
" style="fill:#1f77b4;"/>
   </g>
   <g id="patch_77">
    <path clip-path="url(#p3e22e48ff9)" d="M 180.234976 273.312 
L 181.854251 273.312 
L 181.854251 49.643566 
L 180.234976 49.643566 
z
" style="fill:#1f77b4;"/>
   </g>
   <g id="patch_78">
    <path clip-path="url(#p3e22e48ff9)" d="M 181.854251 273.312 
L 183.473525 273.312 
L 183.473525 67.96453 
L 181.854251 67.96453 
z
" style="fill:#1f77b4;"/>
   </g>
   <g id="patch_79">
    <path clip-path="url(#p3e22e48ff9)" d="M 183.473525 273.312 
L 185.0928 273.312 
L 185.0928 42.009831 
L 183.473525 42.009831 
z
" style="fill:#1f77b4;"/>
   </g>
   <g id="patch_80">
    <path clip-path="url(#p3e22e48ff9)" d="M 185.0928 273.312 
L 186.712075 273.312 
L 186.712075 35.13947 
L 185.0928 35.13947 
z
" style="fill:#1f77b4;"/>
   </g>
   <g id="patch_81">
    <path clip-path="url(#p3e22e48ff9)" d="M 186.712075 273.312 
L 188.33135 273.312 
L 188.33135 29.032482 
L 186.712075 29.032482 
z
" style="fill:#1f77b4;"/>
   </g>
   <g id="patch_82">
    <path clip-path="url(#p3e22e48ff9)" d="M 188.33135 273.312 
L 189.950625 273.312 
L 189.950625 45.063325 
L 188.33135 45.063325 
z
" style="fill:#1f77b4;"/>
   </g>
   <g id="patch_83">
    <path clip-path="url(#p3e22e48ff9)" d="M 189.950625 273.312 
L 191.5699 273.312 
L 191.5699 56.513928 
L 189.950625 56.513928 
z
" style="fill:#1f77b4;"/>
   </g>
   <g id="patch_84">
    <path clip-path="url(#p3e22e48ff9)" d="M 191.5699 273.312 
L 193.189175 273.312 
L 193.189175 46.590072 
L 191.5699 46.590072 
z
" style="fill:#1f77b4;"/>
   </g>
   <g id="patch_85">
    <path clip-path="url(#p3e22e48ff9)" d="M 193.189175 273.312 
L 194.80845 273.312 
L 194.80845 51.933687 
L 193.189175 51.933687 
z
" style="fill:#1f77b4;"/>
   </g>
   <g id="patch_86">
    <path clip-path="url(#p3e22e48ff9)" d="M 194.80845 273.312 
L 196.427725 273.312 
L 196.427725 49.643566 
L 194.80845 49.643566 
z
" style="fill:#1f77b4;"/>
   </g>
   <g id="patch_87">
    <path clip-path="url(#p3e22e48ff9)" d="M 196.427725 273.312 
L 198.047 273.312 
L 198.047 40.483084 
L 196.427725 40.483084 
z
" style="fill:#1f77b4;"/>
   </g>
   <g id="patch_88">
    <path clip-path="url(#p3e22e48ff9)" d="M 198.047 273.312 
L 199.666275 273.312 
L 199.666275 22.925494 
L 198.047 22.925494 
z
" style="fill:#1f77b4;"/>
   </g>
   <g id="patch_89">
    <path clip-path="url(#p3e22e48ff9)" d="M 199.666275 273.312 
L 201.28555 273.312 
L 201.28555 56.513928 
L 199.666275 56.513928 
z
" style="fill:#1f77b4;"/>
   </g>
   <g id="patch_90">
    <path clip-path="url(#p3e22e48ff9)" d="M 201.28555 273.312 
L 202.904825 273.312 
L 202.904825 45.063325 
L 201.28555 45.063325 
z
" style="fill:#1f77b4;"/>
   </g>
   <g id="patch_91">
    <path clip-path="url(#p3e22e48ff9)" d="M 202.904825 273.312 
L 204.5241 273.312 
L 204.5241 38.192964 
L 202.904825 38.192964 
z
" style="fill:#1f77b4;"/>
   </g>
   <g id="patch_92">
    <path clip-path="url(#p3e22e48ff9)" d="M 204.5241 273.312 
L 206.143375 273.312 
L 206.143375 58.804048 
L 204.5241 58.804048 
z
" style="fill:#1f77b4;"/>
   </g>
   <g id="patch_93">
    <path clip-path="url(#p3e22e48ff9)" d="M 206.143375 273.312 
L 207.76265 273.312 
L 207.76265 33.612723 
L 206.143375 33.612723 
z
" style="fill:#1f77b4;"/>
   </g>
   <g id="patch_94">
    <path clip-path="url(#p3e22e48ff9)" d="M 207.76265 273.312 
L 209.381925 273.312 
L 209.381925 25.215614 
L 207.76265 25.215614 
z
" style="fill:#1f77b4;"/>
   </g>
   <g id="patch_95">
    <path clip-path="url(#p3e22e48ff9)" d="M 209.381925 273.312 
L 211.0012 273.312 
L 211.0012 19.872 
L 209.381925 19.872 
z
" style="fill:#1f77b4;"/>
   </g>
   <g id="patch_96">
    <path clip-path="url(#p3e22e48ff9)" d="M 211.0012 273.312 
L 212.620475 273.312 
L 212.620475 28.269108 
L 211.0012 28.269108 
z
" style="fill:#1f77b4;"/>
   </g>
   <g id="patch_97">
    <path clip-path="url(#p3e22e48ff9)" d="M 212.620475 273.312 
L 214.23975 273.312 
L 214.23975 32.849349 
L 212.620475 32.849349 
z
" style="fill:#1f77b4;"/>
   </g>
   <g id="patch_98">
    <path clip-path="url(#p3e22e48ff9)" d="M 214.23975 273.312 
L 215.859025 273.312 
L 215.859025 54.223807 
L 214.23975 54.223807 
z
" style="fill:#1f77b4;"/>
   </g>
   <g id="patch_99">
    <path clip-path="url(#p3e22e48ff9)" d="M 215.859025 273.312 
L 217.478299 273.312 
L 217.478299 41.246458 
L 215.859025 41.246458 
z
" style="fill:#1f77b4;"/>
   </g>
   <g id="patch_100">
    <path clip-path="url(#p3e22e48ff9)" d="M 217.478299 273.312 
L 219.097574 273.312 
L 219.097574 26.742361 
L 217.478299 26.742361 
z
" style="fill:#1f77b4;"/>
   </g>
   <g id="patch_101">
    <path clip-path="url(#p3e22e48ff9)" d="M 219.097574 273.312 
L 220.716849 273.312 
L 220.716849 47.353446 
L 219.097574 47.353446 
z
" style="fill:#1f77b4;"/>
   </g>
   <g id="patch_102">
    <path clip-path="url(#p3e22e48ff9)" d="M 220.716849 273.312 
L 222.336124 273.312 
L 222.336124 25.215614 
L 220.716849 25.215614 
z
" style="fill:#1f77b4;"/>
   </g>
   <g id="patch_103">
    <path clip-path="url(#p3e22e48ff9)" d="M 222.336124 273.312 
L 223.955399 273.312 
L 223.955399 39.719711 
L 222.336124 39.719711 
z
" style="fill:#1f77b4;"/>
   </g>
   <g id="patch_104">
    <path clip-path="url(#p3e22e48ff9)" d="M 223.955399 273.312 
L 225.574674 273.312 
L 225.574674 38.956337 
L 223.955399 38.956337 
z
" style="fill:#1f77b4;"/>
   </g>
   <g id="patch_105">
    <path clip-path="url(#p3e22e48ff9)" d="M 225.574674 273.312 
L 227.193949 273.312 
L 227.193949 31.322602 
L 225.574674 31.322602 
z
" style="fill:#1f77b4;"/>
   </g>
   <g id="patch_106">
    <path clip-path="url(#p3e22e48ff9)" d="M 227.193949 273.312 
L 228.813224 273.312 
L 228.813224 22.925494 
L 227.193949 22.925494 
z
" style="fill:#1f77b4;"/>
   </g>
   <g id="patch_107">
    <path clip-path="url(#p3e22e48ff9)" d="M 228.813224 273.312 
L 230.432499 273.312 
L 230.432499 42.773205 
L 228.813224 42.773205 
z
" style="fill:#1f77b4;"/>
   </g>
   <g id="patch_108">
    <path clip-path="url(#p3e22e48ff9)" d="M 230.432499 273.312 
L 232.051774 273.312 
L 232.051774 45.826699 
L 230.432499 45.826699 
z
" style="fill:#1f77b4;"/>
   </g>
   <g id="patch_109">
    <path clip-path="url(#p3e22e48ff9)" d="M 232.051774 273.312 
L 233.671049 273.312 
L 233.671049 22.16212 
L 232.051774 22.16212 
z
" style="fill:#1f77b4;"/>
   </g>
   <g id="patch_110">
    <path clip-path="url(#p3e22e48ff9)" d="M 233.671049 273.312 
L 235.290324 273.312 
L 235.290324 55.750554 
L 233.671049 55.750554 
z
" style="fill:#1f77b4;"/>
   </g>
   <g id="patch_111">
    <path clip-path="url(#p3e22e48ff9)" d="M 235.290324 273.312 
L 236.909599 273.312 
L 236.909599 53.460434 
L 235.290324 53.460434 
z
" style="fill:#1f77b4;"/>
   </g>
   <g id="patch_112">
    <path clip-path="url(#p3e22e48ff9)" d="M 236.909599 273.312 
L 238.528874 273.312 
L 238.528874 27.505735 
L 236.909599 27.505735 
z
" style="fill:#1f77b4;"/>
   </g>
   <g id="patch_113">
    <path clip-path="url(#p3e22e48ff9)" d="M 238.528874 273.312 
L 240.148149 273.312 
L 240.148149 39.719711 
L 238.528874 39.719711 
z
" style="fill:#1f77b4;"/>
   </g>
   <g id="patch_114">
    <path clip-path="url(#p3e22e48ff9)" d="M 240.148149 273.312 
L 241.767424 273.312 
L 241.767424 41.246458 
L 240.148149 41.246458 
z
" style="fill:#1f77b4;"/>
   </g>
   <g id="patch_115">
    <path clip-path="url(#p3e22e48ff9)" d="M 241.767424 273.312 
L 243.386699 273.312 
L 243.386699 33.612723 
L 241.767424 33.612723 
z
" style="fill:#1f77b4;"/>
   </g>
   <g id="patch_116">
    <path clip-path="url(#p3e22e48ff9)" d="M 243.386699 273.312 
L 245.005974 273.312 
L 245.005974 51.170313 
L 243.386699 51.170313 
z
" style="fill:#1f77b4;"/>
   </g>
   <g id="patch_117">
    <path clip-path="url(#p3e22e48ff9)" d="M 245.005974 273.312 
L 246.625249 273.312 
L 246.625249 26.742361 
L 245.005974 26.742361 
z
" style="fill:#1f77b4;"/>
   </g>
   <g id="patch_118">
    <path clip-path="url(#p3e22e48ff9)" d="M 246.625249 273.312 
L 248.244524 273.312 
L 248.244524 48.116819 
L 246.625249 48.116819 
z
" style="fill:#1f77b4;"/>
   </g>
   <g id="patch_119">
    <path clip-path="url(#p3e22e48ff9)" d="M 248.244524 273.312 
L 249.863799 273.312 
L 249.863799 59.567422 
L 248.244524 59.567422 
z
" style="fill:#1f77b4;"/>
   </g>
   <g id="patch_120">
    <path clip-path="url(#p3e22e48ff9)" d="M 249.863799 273.312 
L 251.483073 273.312 
L 251.483073 35.902843 
L 249.863799 35.902843 
z
" style="fill:#1f77b4;"/>
   </g>
   <g id="patch_121">
    <path clip-path="url(#p3e22e48ff9)" d="M 251.483073 273.312 
L 253.102348 273.312 
L 253.102348 20.635373 
L 251.483073 20.635373 
z
" style="fill:#1f77b4;"/>
   </g>
   <g id="patch_122">
    <path clip-path="url(#p3e22e48ff9)" d="M 253.102348 273.312 
L 254.721623 273.312 
L 254.721623 71.781398 
L 253.102348 71.781398 
z
" style="fill:#1f77b4;"/>
   </g>
   <g id="patch_123">
    <path clip-path="url(#p3e22e48ff9)" d="M 254.721623 273.312 
L 256.340898 273.312 
L 256.340898 41.246458 
L 254.721623 41.246458 
z
" style="fill:#1f77b4;"/>
   </g>
   <g id="patch_124">
    <path clip-path="url(#p3e22e48ff9)" d="M 256.340898 273.312 
L 257.960173 273.312 
L 257.960173 42.009831 
L 256.340898 42.009831 
z
" style="fill:#1f77b4;"/>
   </g>
   <g id="patch_125">
    <path clip-path="url(#p3e22e48ff9)" d="M 257.960173 273.312 
L 259.579448 273.312 
L 259.579448 53.460434 
L 257.960173 53.460434 
z
" style="fill:#1f77b4;"/>
   </g>
   <g id="patch_126">
    <path clip-path="url(#p3e22e48ff9)" d="M 259.579448 273.312 
L 261.198723 273.312 
L 261.198723 41.246458 
L 259.579448 41.246458 
z
" style="fill:#1f77b4;"/>
   </g>
   <g id="patch_127">
    <path clip-path="url(#p3e22e48ff9)" d="M 261.198723 273.312 
L 262.817998 273.312 
L 262.817998 50.40694 
L 261.198723 50.40694 
z
" style="fill:#1f77b4;"/>
   </g>
   <g id="patch_128">
    <path clip-path="url(#p3e22e48ff9)" d="M 262.817998 273.312 
L 264.437273 273.312 
L 264.437273 47.353446 
L 262.817998 47.353446 
z
" style="fill:#1f77b4;"/>
   </g>
   <g id="patch_129">
    <path clip-path="url(#p3e22e48ff9)" d="M 264.437273 273.312 
L 266.056548 273.312 
L 266.056548 39.719711 
L 264.437273 39.719711 
z
" style="fill:#1f77b4;"/>
   </g>
   <g id="patch_130">
    <path clip-path="url(#p3e22e48ff9)" d="M 266.056548 273.312 
L 267.675823 273.312 
L 267.675823 61.094169 
L 266.056548 61.094169 
z
" style="fill:#1f77b4;"/>
   </g>
   <g id="patch_131">
    <path clip-path="url(#p3e22e48ff9)" d="M 267.675823 273.312 
L 269.295098 273.312 
L 269.295098 37.42959 
L 267.675823 37.42959 
z
" style="fill:#1f77b4;"/>
   </g>
   <g id="patch_132">
    <path clip-path="url(#p3e22e48ff9)" d="M 269.295098 273.312 
L 270.914373 273.312 
L 270.914373 58.040675 
L 269.295098 58.040675 
z
" style="fill:#1f77b4;"/>
   </g>
   <g id="patch_133">
    <path clip-path="url(#p3e22e48ff9)" d="M 270.914373 273.312 
L 272.533648 273.312 
L 272.533648 76.361639 
L 270.914373 76.361639 
z
" style="fill:#1f77b4;"/>
   </g>
   <g id="patch_134">
    <path clip-path="url(#p3e22e48ff9)" d="M 272.533648 273.312 
L 274.152923 273.312 
L 274.152923 54.223807 
L 272.533648 54.223807 
z
" style="fill:#1f77b4;"/>
   </g>
   <g id="patch_135">
    <path clip-path="url(#p3e22e48ff9)" d="M 274.152923 273.312 
L 275.772198 273.312 
L 275.772198 74.071518 
L 274.152923 74.071518 
z
" style="fill:#1f77b4;"/>
   </g>
   <g id="patch_136">
    <path clip-path="url(#p3e22e48ff9)" d="M 275.772198 273.312 
L 277.391473 273.312 
L 277.391473 64.147663 
L 275.772198 64.147663 
z
" style="fill:#1f77b4;"/>
   </g>
   <g id="patch_137">
    <path clip-path="url(#p3e22e48ff9)" d="M 277.391473 273.312 
L 279.010748 273.312 
L 279.010748 54.223807 
L 277.391473 54.223807 
z
" style="fill:#1f77b4;"/>
   </g>
   <g id="patch_138">
    <path clip-path="url(#p3e22e48ff9)" d="M 279.010748 273.312 
L 280.630023 273.312 
L 280.630023 68.727904 
L 279.010748 68.727904 
z
" style="fill:#1f77b4;"/>
   </g>
   <g id="patch_139">
    <path clip-path="url(#p3e22e48ff9)" d="M 280.630023 273.312 
L 282.249298 273.312 
L 282.249298 61.094169 
L 280.630023 61.094169 
z
" style="fill:#1f77b4;"/>
   </g>
   <g id="patch_140">
    <path clip-path="url(#p3e22e48ff9)" d="M 282.249298 273.312 
L 283.868573 273.312 
L 283.868573 99.262843 
L 282.249298 99.262843 
z
" style="fill:#1f77b4;"/>
   </g>
   <g id="patch_141">
    <path clip-path="url(#p3e22e48ff9)" d="M 283.868573 273.312 
L 285.487847 273.312 
L 285.487847 64.147663 
L 283.868573 64.147663 
z
" style="fill:#1f77b4;"/>
   </g>
   <g id="patch_142">
    <path clip-path="url(#p3e22e48ff9)" d="M 285.487847 273.312 
L 287.107122 273.312 
L 287.107122 72.544771 
L 285.487847 72.544771 
z
" style="fill:#1f77b4;"/>
   </g>
   <g id="patch_143">
    <path clip-path="url(#p3e22e48ff9)" d="M 287.107122 273.312 
L 288.726397 273.312 
L 288.726397 95.445976 
L 287.107122 95.445976 
z
" style="fill:#1f77b4;"/>
   </g>
   <g id="patch_144">
    <path clip-path="url(#p3e22e48ff9)" d="M 288.726397 273.312 
L 290.345672 273.312 
L 290.345672 68.727904 
L 288.726397 68.727904 
z
" style="fill:#1f77b4;"/>
   </g>
   <g id="patch_145">
    <path clip-path="url(#p3e22e48ff9)" d="M 290.345672 273.312 
L 291.964947 273.312 
L 291.964947 76.361639 
L 290.345672 76.361639 
z
" style="fill:#1f77b4;"/>
   </g>
   <g id="patch_146">
    <path clip-path="url(#p3e22e48ff9)" d="M 291.964947 273.312 
L 293.584222 273.312 
L 293.584222 92.392482 
L 291.964947 92.392482 
z
" style="fill:#1f77b4;"/>
   </g>
   <g id="patch_147">
    <path clip-path="url(#p3e22e48ff9)" d="M 293.584222 273.312 
L 295.203497 273.312 
L 295.203497 101.552964 
L 293.584222 101.552964 
z
" style="fill:#1f77b4;"/>
   </g>
   <g id="patch_148">
    <path clip-path="url(#p3e22e48ff9)" d="M 295.203497 273.312 
L 296.822772 273.312 
L 296.822772 79.415133 
L 295.203497 79.415133 
z
" style="fill:#1f77b4;"/>
   </g>
   <g id="patch_149">
    <path clip-path="url(#p3e22e48ff9)" d="M 296.822772 273.312 
L 298.442047 273.312 
L 298.442047 103.843084 
L 296.822772 103.843084 
z
" style="fill:#1f77b4;"/>
   </g>
   <g id="patch_150">
    <path clip-path="url(#p3e22e48ff9)" d="M 298.442047 273.312 
L 300.061322 273.312 
L 300.061322 108.423325 
L 298.442047 108.423325 
z
" style="fill:#1f77b4;"/>
   </g>
   <g id="patch_151">
    <path clip-path="url(#p3e22e48ff9)" d="M 300.061322 273.312 
L 301.680597 273.312 
L 301.680597 93.155855 
L 300.061322 93.155855 
z
" style="fill:#1f77b4;"/>
   </g>
   <g id="patch_152">
    <path clip-path="url(#p3e22e48ff9)" d="M 301.680597 273.312 
L 303.299872 273.312 
L 303.299872 89.338988 
L 301.680597 89.338988 
z
" style="fill:#1f77b4;"/>
   </g>
   <g id="patch_153">
    <path clip-path="url(#p3e22e48ff9)" d="M 303.299872 273.312 
L 304.919147 273.312 
L 304.919147 119.110554 
L 303.299872 119.110554 
z
" style="fill:#1f77b4;"/>
   </g>
   <g id="patch_154">
    <path clip-path="url(#p3e22e48ff9)" d="M 304.919147 273.312 
L 306.538422 273.312 
L 306.538422 101.552964 
L 304.919147 101.552964 
z
" style="fill:#1f77b4;"/>
   </g>
   <g id="patch_155">
    <path clip-path="url(#p3e22e48ff9)" d="M 306.538422 273.312 
L 308.157697 273.312 
L 308.157697 94.682602 
L 306.538422 94.682602 
z
" style="fill:#1f77b4;"/>
   </g>
   <g id="patch_156">
    <path clip-path="url(#p3e22e48ff9)" d="M 308.157697 273.312 
L 309.776972 273.312 
L 309.776972 118.347181 
L 308.157697 118.347181 
z
" style="fill:#1f77b4;"/>
   </g>
   <g id="patch_157">
    <path clip-path="url(#p3e22e48ff9)" d="M 309.776972 273.312 
L 311.396247 273.312 
L 311.396247 124.454169 
L 309.776972 124.454169 
z
" style="fill:#1f77b4;"/>
   </g>
   <g id="patch_158">
    <path clip-path="url(#p3e22e48ff9)" d="M 311.396247 273.312 
L 313.015522 273.312 
L 313.015522 114.530313 
L 311.396247 114.530313 
z
" style="fill:#1f77b4;"/>
   </g>
   <g id="patch_159">
    <path clip-path="url(#p3e22e48ff9)" d="M 313.015522 273.312 
L 314.634797 273.312 
L 314.634797 119.873928 
L 313.015522 119.873928 
z
" style="fill:#1f77b4;"/>
   </g>
   <g id="patch_160">
    <path clip-path="url(#p3e22e48ff9)" d="M 314.634797 273.312 
L 316.254072 273.312 
L 316.254072 113.76694 
L 314.634797 113.76694 
z
" style="fill:#1f77b4;"/>
   </g>
   <g id="patch_161">
    <path clip-path="url(#p3e22e48ff9)" d="M 316.254072 273.312 
L 317.873346 273.312 
L 317.873346 129.797783 
L 316.254072 129.797783 
z
" style="fill:#1f77b4;"/>
   </g>
   <g id="patch_162">
    <path clip-path="url(#p3e22e48ff9)" d="M 317.873346 273.312 
L 319.492621 273.312 
L 319.492621 122.927422 
L 317.873346 122.927422 
z
" style="fill:#1f77b4;"/>
   </g>
   <g id="patch_163">
    <path clip-path="url(#p3e22e48ff9)" d="M 319.492621 273.312 
L 321.111896 273.312 
L 321.111896 117.583807 
L 319.492621 117.583807 
z
" style="fill:#1f77b4;"/>
   </g>
   <g id="patch_164">
    <path clip-path="url(#p3e22e48ff9)" d="M 321.111896 273.312 
L 322.731171 273.312 
L 322.731171 124.454169 
L 321.111896 124.454169 
z
" style="fill:#1f77b4;"/>
   </g>
   <g id="patch_165">
    <path clip-path="url(#p3e22e48ff9)" d="M 322.731171 273.312 
L 324.350446 273.312 
L 324.350446 116.820434 
L 322.731171 116.820434 
z
" style="fill:#1f77b4;"/>
   </g>
   <g id="patch_166">
    <path clip-path="url(#p3e22e48ff9)" d="M 324.350446 273.312 
L 325.969721 273.312 
L 325.969721 135.904771 
L 324.350446 135.904771 
z
" style="fill:#1f77b4;"/>
   </g>
   <g id="patch_167">
    <path clip-path="url(#p3e22e48ff9)" d="M 325.969721 273.312 
L 327.588996 273.312 
L 327.588996 156.515855 
L 325.969721 156.515855 
z
" style="fill:#1f77b4;"/>
   </g>
   <g id="patch_168">
    <path clip-path="url(#p3e22e48ff9)" d="M 327.588996 273.312 
L 329.208271 273.312 
L 329.208271 148.88212 
L 327.588996 148.88212 
z
" style="fill:#1f77b4;"/>
   </g>
   <g id="patch_169">
    <path clip-path="url(#p3e22e48ff9)" d="M 329.208271 273.312 
L 330.827546 273.312 
L 330.827546 170.256578 
L 329.208271 170.256578 
z
" style="fill:#1f77b4;"/>
   </g>
   <g id="patch_170">
    <path clip-path="url(#p3e22e48ff9)" d="M 330.827546 273.312 
L 332.446821 273.312 
L 332.446821 148.88212 
L 330.827546 148.88212 
z
" style="fill:#1f77b4;"/>
   </g>
   <g id="patch_171">
    <path clip-path="url(#p3e22e48ff9)" d="M 332.446821 273.312 
L 334.066096 273.312 
L 334.066096 178.653687 
L 332.446821 178.653687 
z
" style="fill:#1f77b4;"/>
   </g>
   <g id="patch_172">
    <path clip-path="url(#p3e22e48ff9)" d="M 334.066096 273.312 
L 335.685371 273.312 
L 335.685371 165.676337 
L 334.066096 165.676337 
z
" style="fill:#1f77b4;"/>
   </g>
   <g id="patch_173">
    <path clip-path="url(#p3e22e48ff9)" d="M 335.685371 273.312 
L 337.304646 273.312 
L 337.304646 159.569349 
L 335.685371 159.569349 
z
" style="fill:#1f77b4;"/>
   </g>
   <g id="patch_174">
    <path clip-path="url(#p3e22e48ff9)" d="M 337.304646 273.312 
L 338.923921 273.312 
L 338.923921 168.729831 
L 337.304646 168.729831 
z
" style="fill:#1f77b4;"/>
   </g>
   <g id="patch_175">
    <path clip-path="url(#p3e22e48ff9)" d="M 338.923921 273.312 
L 340.543196 273.312 
L 340.543196 169.493205 
L 338.923921 169.493205 
z
" style="fill:#1f77b4;"/>
   </g>
   <g id="patch_176">
    <path clip-path="url(#p3e22e48ff9)" d="M 340.543196 273.312 
L 342.162471 273.312 
L 342.162471 184.760675 
L 340.543196 184.760675 
z
" style="fill:#1f77b4;"/>
   </g>
   <g id="patch_177">
    <path clip-path="url(#p3e22e48ff9)" d="M 342.162471 273.312 
L 343.781746 273.312 
L 343.781746 176.363566 
L 342.162471 176.363566 
z
" style="fill:#1f77b4;"/>
   </g>
   <g id="patch_178">
    <path clip-path="url(#p3e22e48ff9)" d="M 343.781746 273.312 
L 345.401021 273.312 
L 345.401021 183.233928 
L 343.781746 183.233928 
z
" style="fill:#1f77b4;"/>
   </g>
   <g id="patch_179">
    <path clip-path="url(#p3e22e48ff9)" d="M 345.401021 273.312 
L 347.020296 273.312 
L 347.020296 192.39441 
L 345.401021 192.39441 
z
" style="fill:#1f77b4;"/>
   </g>
   <g id="patch_180">
    <path clip-path="url(#p3e22e48ff9)" d="M 347.020296 273.312 
L 348.639571 273.312 
L 348.639571 200.028145 
L 347.020296 200.028145 
z
" style="fill:#1f77b4;"/>
   </g>
   <g id="patch_181">
    <path clip-path="url(#p3e22e48ff9)" d="M 348.639571 273.312 
L 350.258846 273.312 
L 350.258846 188.577542 
L 348.639571 188.577542 
z
" style="fill:#1f77b4;"/>
   </g>
   <g id="patch_182">
    <path clip-path="url(#p3e22e48ff9)" d="M 350.258846 273.312 
L 351.87812 273.312 
L 351.87812 194.68453 
L 350.258846 194.68453 
z
" style="fill:#1f77b4;"/>
   </g>
   <g id="patch_183">
    <path clip-path="url(#p3e22e48ff9)" d="M 351.87812 273.312 
L 353.497395 273.312 
L 353.497395 194.68453 
L 351.87812 194.68453 
z
" style="fill:#1f77b4;"/>
   </g>
   <g id="patch_184">
    <path clip-path="url(#p3e22e48ff9)" d="M 353.497395 273.312 
L 355.11667 273.312 
L 355.11667 196.211277 
L 353.497395 196.211277 
z
" style="fill:#1f77b4;"/>
   </g>
   <g id="patch_185">
    <path clip-path="url(#p3e22e48ff9)" d="M 355.11667 273.312 
L 356.735945 273.312 
L 356.735945 213.005494 
L 355.11667 213.005494 
z
" style="fill:#1f77b4;"/>
   </g>
   <g id="patch_186">
    <path clip-path="url(#p3e22e48ff9)" d="M 356.735945 273.312 
L 358.35522 273.312 
L 358.35522 215.295614 
L 356.735945 215.295614 
z
" style="fill:#1f77b4;"/>
   </g>
   <g id="patch_187">
    <path clip-path="url(#p3e22e48ff9)" d="M 358.35522 273.312 
L 359.974495 273.312 
L 359.974495 217.585735 
L 358.35522 217.585735 
z
" style="fill:#1f77b4;"/>
   </g>
   <g id="patch_188">
    <path clip-path="url(#p3e22e48ff9)" d="M 359.974495 273.312 
L 361.59377 273.312 
L 361.59377 220.639229 
L 359.974495 220.639229 
z
" style="fill:#1f77b4;"/>
   </g>
   <g id="patch_189">
    <path clip-path="url(#p3e22e48ff9)" d="M 361.59377 273.312 
L 363.213045 273.312 
L 363.213045 216.822361 
L 361.59377 216.822361 
z
" style="fill:#1f77b4;"/>
   </g>
   <g id="patch_190">
    <path clip-path="url(#p3e22e48ff9)" d="M 363.213045 273.312 
L 364.83232 273.312 
L 364.83232 231.326458 
L 363.213045 231.326458 
z
" style="fill:#1f77b4;"/>
   </g>
   <g id="patch_191">
    <path clip-path="url(#p3e22e48ff9)" d="M 364.83232 273.312 
L 366.451595 273.312 
L 366.451595 232.853205 
L 364.83232 232.853205 
z
" style="fill:#1f77b4;"/>
   </g>
   <g id="patch_192">
    <path clip-path="url(#p3e22e48ff9)" d="M 366.451595 273.312 
L 368.07087 273.312 
L 368.07087 226.746217 
L 366.451595 226.746217 
z
" style="fill:#1f77b4;"/>
   </g>
   <g id="patch_193">
    <path clip-path="url(#p3e22e48ff9)" d="M 368.07087 273.312 
L 369.690145 273.312 
L 369.690145 235.143325 
L 368.07087 235.143325 
z
" style="fill:#1f77b4;"/>
   </g>
   <g id="patch_194">
    <path clip-path="url(#p3e22e48ff9)" d="M 369.690145 273.312 
L 371.30942 273.312 
L 371.30942 244.303807 
L 369.690145 244.303807 
z
" style="fill:#1f77b4;"/>
   </g>
   <g id="patch_195">
    <path clip-path="url(#p3e22e48ff9)" d="M 371.30942 273.312 
L 372.928695 273.312 
L 372.928695 248.884048 
L 371.30942 248.884048 
z
" style="fill:#1f77b4;"/>
   </g>
   <g id="patch_196">
    <path clip-path="url(#p3e22e48ff9)" d="M 372.928695 273.312 
L 374.54797 273.312 
L 374.54797 249.647422 
L 372.928695 249.647422 
z
" style="fill:#1f77b4;"/>
   </g>
   <g id="patch_197">
    <path clip-path="url(#p3e22e48ff9)" d="M 374.54797 273.312 
L 376.167245 273.312 
L 376.167245 255.75441 
L 374.54797 255.75441 
z
" style="fill:#1f77b4;"/>
   </g>
   <g id="patch_198">
    <path clip-path="url(#p3e22e48ff9)" d="M 376.167245 273.312 
L 377.78652 273.312 
L 377.78652 254.227663 
L 376.167245 254.227663 
z
" style="fill:#1f77b4;"/>
   </g>
   <g id="patch_199">
    <path clip-path="url(#p3e22e48ff9)" d="M 377.78652 273.312 
L 379.405795 273.312 
L 379.405795 254.991036 
L 377.78652 254.991036 
z
" style="fill:#1f77b4;"/>
   </g>
   <g id="patch_200">
    <path clip-path="url(#p3e22e48ff9)" d="M 379.405795 273.312 
L 381.02507 273.312 
L 381.02507 260.334651 
L 379.405795 260.334651 
z
" style="fill:#1f77b4;"/>
   </g>
   <g id="patch_201">
    <path clip-path="url(#p3e22e48ff9)" d="M 381.02507 273.312 
L 382.644345 273.312 
L 382.644345 264.151518 
L 381.02507 264.151518 
z
" style="fill:#1f77b4;"/>
   </g>
   <g id="patch_202">
    <path clip-path="url(#p3e22e48ff9)" d="M 382.644345 273.312 
L 384.26362 273.312 
L 384.26362 268.731759 
L 382.644345 268.731759 
z
" style="fill:#1f77b4;"/>
   </g>
   <g id="matplotlib.axis_1">
    <g id="xtick_1">
     <g id="line2d_1">
      <defs>
       <path d="M 0 0 
L 0 3.5 
" id="maa26312f59" style="stroke:#000000;stroke-width:0.8;"/>
      </defs>
      <g>
       <use style="stroke:#000000;stroke-width:0.8;" x="60.013977" xlink:href="#maa26312f59" y="273.312"/>
      </g>
     </g>
     <g id="text_1">
      <!-- 0.0 -->
      <g transform="translate(52.062415 287.910437)scale(0.1 -0.1)">
       <defs>
        <path d="M 2034 4250 
Q 1547 4250 1301 3770 
Q 1056 3291 1056 2328 
Q 1056 1369 1301 889 
Q 1547 409 2034 409 
Q 2525 409 2770 889 
Q 3016 1369 3016 2328 
Q 3016 3291 2770 3770 
Q 2525 4250 2034 4250 
z
M 2034 4750 
Q 2819 4750 3233 4129 
Q 3647 3509 3647 2328 
Q 3647 1150 3233 529 
Q 2819 -91 2034 -91 
Q 1250 -91 836 529 
Q 422 1150 422 2328 
Q 422 3509 836 4129 
Q 1250 4750 2034 4750 
z
" id="DejaVuSans-30" transform="scale(0.015625)"/>
        <path d="M 684 794 
L 1344 794 
L 1344 0 
L 684 0 
L 684 794 
z
" id="DejaVuSans-2e" transform="scale(0.015625)"/>
       </defs>
       <use xlink:href="#DejaVuSans-30"/>
       <use x="63.623047" xlink:href="#DejaVuSans-2e"/>
       <use x="95.410156" xlink:href="#DejaVuSans-30"/>
      </g>
     </g>
    </g>
    <g id="xtick_2">
     <g id="line2d_2">
      <g>
       <use style="stroke:#000000;stroke-width:0.8;" x="101.350278" xlink:href="#maa26312f59" y="273.312"/>
      </g>
     </g>
     <g id="text_2">
      <!-- 0.2 -->
      <g transform="translate(93.398715 287.910437)scale(0.1 -0.1)">
       <defs>
        <path d="M 1228 531 
L 3431 531 
L 3431 0 
L 469 0 
L 469 531 
Q 828 903 1448 1529 
Q 2069 2156 2228 2338 
Q 2531 2678 2651 2914 
Q 2772 3150 2772 3378 
Q 2772 3750 2511 3984 
Q 2250 4219 1831 4219 
Q 1534 4219 1204 4116 
Q 875 4013 500 3803 
L 500 4441 
Q 881 4594 1212 4672 
Q 1544 4750 1819 4750 
Q 2544 4750 2975 4387 
Q 3406 4025 3406 3419 
Q 3406 3131 3298 2873 
Q 3191 2616 2906 2266 
Q 2828 2175 2409 1742 
Q 1991 1309 1228 531 
z
" id="DejaVuSans-32" transform="scale(0.015625)"/>
       </defs>
       <use xlink:href="#DejaVuSans-30"/>
       <use x="63.623047" xlink:href="#DejaVuSans-2e"/>
       <use x="95.410156" xlink:href="#DejaVuSans-32"/>
      </g>
     </g>
    </g>
    <g id="xtick_3">
     <g id="line2d_3">
      <g>
       <use style="stroke:#000000;stroke-width:0.8;" x="142.686578" xlink:href="#maa26312f59" y="273.312"/>
      </g>
     </g>
     <g id="text_3">
      <!-- 0.4 -->
      <g transform="translate(134.735016 287.910437)scale(0.1 -0.1)">
       <defs>
        <path d="M 2419 4116 
L 825 1625 
L 2419 1625 
L 2419 4116 
z
M 2253 4666 
L 3047 4666 
L 3047 1625 
L 3713 1625 
L 3713 1100 
L 3047 1100 
L 3047 0 
L 2419 0 
L 2419 1100 
L 313 1100 
L 313 1709 
L 2253 4666 
z
" id="DejaVuSans-34" transform="scale(0.015625)"/>
       </defs>
       <use xlink:href="#DejaVuSans-30"/>
       <use x="63.623047" xlink:href="#DejaVuSans-2e"/>
       <use x="95.410156" xlink:href="#DejaVuSans-34"/>
      </g>
     </g>
    </g>
    <g id="xtick_4">
     <g id="line2d_4">
      <g>
       <use style="stroke:#000000;stroke-width:0.8;" x="184.022879" xlink:href="#maa26312f59" y="273.312"/>
      </g>
     </g>
     <g id="text_4">
      <!-- 0.6 -->
      <g transform="translate(176.071316 287.910437)scale(0.1 -0.1)">
       <defs>
        <path d="M 2113 2584 
Q 1688 2584 1439 2293 
Q 1191 2003 1191 1497 
Q 1191 994 1439 701 
Q 1688 409 2113 409 
Q 2538 409 2786 701 
Q 3034 994 3034 1497 
Q 3034 2003 2786 2293 
Q 2538 2584 2113 2584 
z
M 3366 4563 
L 3366 3988 
Q 3128 4100 2886 4159 
Q 2644 4219 2406 4219 
Q 1781 4219 1451 3797 
Q 1122 3375 1075 2522 
Q 1259 2794 1537 2939 
Q 1816 3084 2150 3084 
Q 2853 3084 3261 2657 
Q 3669 2231 3669 1497 
Q 3669 778 3244 343 
Q 2819 -91 2113 -91 
Q 1303 -91 875 529 
Q 447 1150 447 2328 
Q 447 3434 972 4092 
Q 1497 4750 2381 4750 
Q 2619 4750 2861 4703 
Q 3103 4656 3366 4563 
z
" id="DejaVuSans-36" transform="scale(0.015625)"/>
       </defs>
       <use xlink:href="#DejaVuSans-30"/>
       <use x="63.623047" xlink:href="#DejaVuSans-2e"/>
       <use x="95.410156" xlink:href="#DejaVuSans-36"/>
      </g>
     </g>
    </g>
    <g id="xtick_5">
     <g id="line2d_5">
      <g>
       <use style="stroke:#000000;stroke-width:0.8;" x="225.35918" xlink:href="#maa26312f59" y="273.312"/>
      </g>
     </g>
     <g id="text_5">
      <!-- 0.8 -->
      <g transform="translate(217.407617 287.910437)scale(0.1 -0.1)">
       <defs>
        <path d="M 2034 2216 
Q 1584 2216 1326 1975 
Q 1069 1734 1069 1313 
Q 1069 891 1326 650 
Q 1584 409 2034 409 
Q 2484 409 2743 651 
Q 3003 894 3003 1313 
Q 3003 1734 2745 1975 
Q 2488 2216 2034 2216 
z
M 1403 2484 
Q 997 2584 770 2862 
Q 544 3141 544 3541 
Q 544 4100 942 4425 
Q 1341 4750 2034 4750 
Q 2731 4750 3128 4425 
Q 3525 4100 3525 3541 
Q 3525 3141 3298 2862 
Q 3072 2584 2669 2484 
Q 3125 2378 3379 2068 
Q 3634 1759 3634 1313 
Q 3634 634 3220 271 
Q 2806 -91 2034 -91 
Q 1263 -91 848 271 
Q 434 634 434 1313 
Q 434 1759 690 2068 
Q 947 2378 1403 2484 
z
M 1172 3481 
Q 1172 3119 1398 2916 
Q 1625 2713 2034 2713 
Q 2441 2713 2670 2916 
Q 2900 3119 2900 3481 
Q 2900 3844 2670 4047 
Q 2441 4250 2034 4250 
Q 1625 4250 1398 4047 
Q 1172 3844 1172 3481 
z
" id="DejaVuSans-38" transform="scale(0.015625)"/>
       </defs>
       <use xlink:href="#DejaVuSans-30"/>
       <use x="63.623047" xlink:href="#DejaVuSans-2e"/>
       <use x="95.410156" xlink:href="#DejaVuSans-38"/>
      </g>
     </g>
    </g>
    <g id="xtick_6">
     <g id="line2d_6">
      <g>
       <use style="stroke:#000000;stroke-width:0.8;" x="266.69548" xlink:href="#maa26312f59" y="273.312"/>
      </g>
     </g>
     <g id="text_6">
      <!-- 1.0 -->
      <g transform="translate(258.743918 287.910437)scale(0.1 -0.1)">
       <defs>
        <path d="M 794 531 
L 1825 531 
L 1825 4091 
L 703 3866 
L 703 4441 
L 1819 4666 
L 2450 4666 
L 2450 531 
L 3481 531 
L 3481 0 
L 794 0 
L 794 531 
z
" id="DejaVuSans-31" transform="scale(0.015625)"/>
       </defs>
       <use xlink:href="#DejaVuSans-31"/>
       <use x="63.623047" xlink:href="#DejaVuSans-2e"/>
       <use x="95.410156" xlink:href="#DejaVuSans-30"/>
      </g>
     </g>
    </g>
    <g id="xtick_7">
     <g id="line2d_7">
      <g>
       <use style="stroke:#000000;stroke-width:0.8;" x="308.031781" xlink:href="#maa26312f59" y="273.312"/>
      </g>
     </g>
     <g id="text_7">
      <!-- 1.2 -->
      <g transform="translate(300.080218 287.910437)scale(0.1 -0.1)">
       <use xlink:href="#DejaVuSans-31"/>
       <use x="63.623047" xlink:href="#DejaVuSans-2e"/>
       <use x="95.410156" xlink:href="#DejaVuSans-32"/>
      </g>
     </g>
    </g>
    <g id="xtick_8">
     <g id="line2d_8">
      <g>
       <use style="stroke:#000000;stroke-width:0.8;" x="349.368081" xlink:href="#maa26312f59" y="273.312"/>
      </g>
     </g>
     <g id="text_8">
      <!-- 1.4 -->
      <g transform="translate(341.416519 287.910437)scale(0.1 -0.1)">
       <use xlink:href="#DejaVuSans-31"/>
       <use x="63.623047" xlink:href="#DejaVuSans-2e"/>
       <use x="95.410156" xlink:href="#DejaVuSans-34"/>
      </g>
     </g>
    </g>
    <g id="xtick_9">
     <g id="line2d_9">
      <g>
       <use style="stroke:#000000;stroke-width:0.8;" x="390.704382" xlink:href="#maa26312f59" y="273.312"/>
      </g>
     </g>
     <g id="text_9">
      <!-- 1.6 -->
      <g transform="translate(382.752819 287.910437)scale(0.1 -0.1)">
       <use xlink:href="#DejaVuSans-31"/>
       <use x="63.623047" xlink:href="#DejaVuSans-2e"/>
       <use x="95.410156" xlink:href="#DejaVuSans-36"/>
      </g>
     </g>
    </g>
    <g id="text_10">
     <!-- Angle with normal (rad) -->
     <g transform="translate(163.023281 301.588562)scale(0.1 -0.1)">
      <defs>
       <path d="M 2188 4044 
L 1331 1722 
L 3047 1722 
L 2188 4044 
z
M 1831 4666 
L 2547 4666 
L 4325 0 
L 3669 0 
L 3244 1197 
L 1141 1197 
L 716 0 
L 50 0 
L 1831 4666 
z
" id="DejaVuSans-41" transform="scale(0.015625)"/>
       <path d="M 3513 2113 
L 3513 0 
L 2938 0 
L 2938 2094 
Q 2938 2591 2744 2837 
Q 2550 3084 2163 3084 
Q 1697 3084 1428 2787 
Q 1159 2491 1159 1978 
L 1159 0 
L 581 0 
L 581 3500 
L 1159 3500 
L 1159 2956 
Q 1366 3272 1645 3428 
Q 1925 3584 2291 3584 
Q 2894 3584 3203 3211 
Q 3513 2838 3513 2113 
z
" id="DejaVuSans-6e" transform="scale(0.015625)"/>
       <path d="M 2906 1791 
Q 2906 2416 2648 2759 
Q 2391 3103 1925 3103 
Q 1463 3103 1205 2759 
Q 947 2416 947 1791 
Q 947 1169 1205 825 
Q 1463 481 1925 481 
Q 2391 481 2648 825 
Q 2906 1169 2906 1791 
z
M 3481 434 
Q 3481 -459 3084 -895 
Q 2688 -1331 1869 -1331 
Q 1566 -1331 1297 -1286 
Q 1028 -1241 775 -1147 
L 775 -588 
Q 1028 -725 1275 -790 
Q 1522 -856 1778 -856 
Q 2344 -856 2625 -561 
Q 2906 -266 2906 331 
L 2906 616 
Q 2728 306 2450 153 
Q 2172 0 1784 0 
Q 1141 0 747 490 
Q 353 981 353 1791 
Q 353 2603 747 3093 
Q 1141 3584 1784 3584 
Q 2172 3584 2450 3431 
Q 2728 3278 2906 2969 
L 2906 3500 
L 3481 3500 
L 3481 434 
z
" id="DejaVuSans-67" transform="scale(0.015625)"/>
       <path d="M 603 4863 
L 1178 4863 
L 1178 0 
L 603 0 
L 603 4863 
z
" id="DejaVuSans-6c" transform="scale(0.015625)"/>
       <path d="M 3597 1894 
L 3597 1613 
L 953 1613 
Q 991 1019 1311 708 
Q 1631 397 2203 397 
Q 2534 397 2845 478 
Q 3156 559 3463 722 
L 3463 178 
Q 3153 47 2828 -22 
Q 2503 -91 2169 -91 
Q 1331 -91 842 396 
Q 353 884 353 1716 
Q 353 2575 817 3079 
Q 1281 3584 2069 3584 
Q 2775 3584 3186 3129 
Q 3597 2675 3597 1894 
z
M 3022 2063 
Q 3016 2534 2758 2815 
Q 2500 3097 2075 3097 
Q 1594 3097 1305 2825 
Q 1016 2553 972 2059 
L 3022 2063 
z
" id="DejaVuSans-65" transform="scale(0.015625)"/>
       <path id="DejaVuSans-20" transform="scale(0.015625)"/>
       <path d="M 269 3500 
L 844 3500 
L 1563 769 
L 2278 3500 
L 2956 3500 
L 3675 769 
L 4391 3500 
L 4966 3500 
L 4050 0 
L 3372 0 
L 2619 2869 
L 1863 0 
L 1184 0 
L 269 3500 
z
" id="DejaVuSans-77" transform="scale(0.015625)"/>
       <path d="M 603 3500 
L 1178 3500 
L 1178 0 
L 603 0 
L 603 3500 
z
M 603 4863 
L 1178 4863 
L 1178 4134 
L 603 4134 
L 603 4863 
z
" id="DejaVuSans-69" transform="scale(0.015625)"/>
       <path d="M 1172 4494 
L 1172 3500 
L 2356 3500 
L 2356 3053 
L 1172 3053 
L 1172 1153 
Q 1172 725 1289 603 
Q 1406 481 1766 481 
L 2356 481 
L 2356 0 
L 1766 0 
Q 1100 0 847 248 
Q 594 497 594 1153 
L 594 3053 
L 172 3053 
L 172 3500 
L 594 3500 
L 594 4494 
L 1172 4494 
z
" id="DejaVuSans-74" transform="scale(0.015625)"/>
       <path d="M 3513 2113 
L 3513 0 
L 2938 0 
L 2938 2094 
Q 2938 2591 2744 2837 
Q 2550 3084 2163 3084 
Q 1697 3084 1428 2787 
Q 1159 2491 1159 1978 
L 1159 0 
L 581 0 
L 581 4863 
L 1159 4863 
L 1159 2956 
Q 1366 3272 1645 3428 
Q 1925 3584 2291 3584 
Q 2894 3584 3203 3211 
Q 3513 2838 3513 2113 
z
" id="DejaVuSans-68" transform="scale(0.015625)"/>
       <path d="M 1959 3097 
Q 1497 3097 1228 2736 
Q 959 2375 959 1747 
Q 959 1119 1226 758 
Q 1494 397 1959 397 
Q 2419 397 2687 759 
Q 2956 1122 2956 1747 
Q 2956 2369 2687 2733 
Q 2419 3097 1959 3097 
z
M 1959 3584 
Q 2709 3584 3137 3096 
Q 3566 2609 3566 1747 
Q 3566 888 3137 398 
Q 2709 -91 1959 -91 
Q 1206 -91 779 398 
Q 353 888 353 1747 
Q 353 2609 779 3096 
Q 1206 3584 1959 3584 
z
" id="DejaVuSans-6f" transform="scale(0.015625)"/>
       <path d="M 2631 2963 
Q 2534 3019 2420 3045 
Q 2306 3072 2169 3072 
Q 1681 3072 1420 2755 
Q 1159 2438 1159 1844 
L 1159 0 
L 581 0 
L 581 3500 
L 1159 3500 
L 1159 2956 
Q 1341 3275 1631 3429 
Q 1922 3584 2338 3584 
Q 2397 3584 2469 3576 
Q 2541 3569 2628 3553 
L 2631 2963 
z
" id="DejaVuSans-72" transform="scale(0.015625)"/>
       <path d="M 3328 2828 
Q 3544 3216 3844 3400 
Q 4144 3584 4550 3584 
Q 5097 3584 5394 3201 
Q 5691 2819 5691 2113 
L 5691 0 
L 5113 0 
L 5113 2094 
Q 5113 2597 4934 2840 
Q 4756 3084 4391 3084 
Q 3944 3084 3684 2787 
Q 3425 2491 3425 1978 
L 3425 0 
L 2847 0 
L 2847 2094 
Q 2847 2600 2669 2842 
Q 2491 3084 2119 3084 
Q 1678 3084 1418 2786 
Q 1159 2488 1159 1978 
L 1159 0 
L 581 0 
L 581 3500 
L 1159 3500 
L 1159 2956 
Q 1356 3278 1631 3431 
Q 1906 3584 2284 3584 
Q 2666 3584 2933 3390 
Q 3200 3197 3328 2828 
z
" id="DejaVuSans-6d" transform="scale(0.015625)"/>
       <path d="M 2194 1759 
Q 1497 1759 1228 1600 
Q 959 1441 959 1056 
Q 959 750 1161 570 
Q 1363 391 1709 391 
Q 2188 391 2477 730 
Q 2766 1069 2766 1631 
L 2766 1759 
L 2194 1759 
z
M 3341 1997 
L 3341 0 
L 2766 0 
L 2766 531 
Q 2569 213 2275 61 
Q 1981 -91 1556 -91 
Q 1019 -91 701 211 
Q 384 513 384 1019 
Q 384 1609 779 1909 
Q 1175 2209 1959 2209 
L 2766 2209 
L 2766 2266 
Q 2766 2663 2505 2880 
Q 2244 3097 1772 3097 
Q 1472 3097 1187 3025 
Q 903 2953 641 2809 
L 641 3341 
Q 956 3463 1253 3523 
Q 1550 3584 1831 3584 
Q 2591 3584 2966 3190 
Q 3341 2797 3341 1997 
z
" id="DejaVuSans-61" transform="scale(0.015625)"/>
       <path d="M 1984 4856 
Q 1566 4138 1362 3434 
Q 1159 2731 1159 2009 
Q 1159 1288 1364 580 
Q 1569 -128 1984 -844 
L 1484 -844 
Q 1016 -109 783 600 
Q 550 1309 550 2009 
Q 550 2706 781 3412 
Q 1013 4119 1484 4856 
L 1984 4856 
z
" id="DejaVuSans-28" transform="scale(0.015625)"/>
       <path d="M 2906 2969 
L 2906 4863 
L 3481 4863 
L 3481 0 
L 2906 0 
L 2906 525 
Q 2725 213 2448 61 
Q 2172 -91 1784 -91 
Q 1150 -91 751 415 
Q 353 922 353 1747 
Q 353 2572 751 3078 
Q 1150 3584 1784 3584 
Q 2172 3584 2448 3432 
Q 2725 3281 2906 2969 
z
M 947 1747 
Q 947 1113 1208 752 
Q 1469 391 1925 391 
Q 2381 391 2643 752 
Q 2906 1113 2906 1747 
Q 2906 2381 2643 2742 
Q 2381 3103 1925 3103 
Q 1469 3103 1208 2742 
Q 947 2381 947 1747 
z
" id="DejaVuSans-64" transform="scale(0.015625)"/>
       <path d="M 513 4856 
L 1013 4856 
Q 1481 4119 1714 3412 
Q 1947 2706 1947 2009 
Q 1947 1309 1714 600 
Q 1481 -109 1013 -844 
L 513 -844 
Q 928 -128 1133 580 
Q 1338 1288 1338 2009 
Q 1338 2731 1133 3434 
Q 928 4138 513 4856 
z
" id="DejaVuSans-29" transform="scale(0.015625)"/>
      </defs>
      <use xlink:href="#DejaVuSans-41"/>
      <use x="68.408203" xlink:href="#DejaVuSans-6e"/>
      <use x="131.787109" xlink:href="#DejaVuSans-67"/>
      <use x="195.263672" xlink:href="#DejaVuSans-6c"/>
      <use x="223.046875" xlink:href="#DejaVuSans-65"/>
      <use x="284.570312" xlink:href="#DejaVuSans-20"/>
      <use x="316.357422" xlink:href="#DejaVuSans-77"/>
      <use x="398.144531" xlink:href="#DejaVuSans-69"/>
      <use x="425.927734" xlink:href="#DejaVuSans-74"/>
      <use x="465.136719" xlink:href="#DejaVuSans-68"/>
      <use x="528.515625" xlink:href="#DejaVuSans-20"/>
      <use x="560.302734" xlink:href="#DejaVuSans-6e"/>
      <use x="623.681641" xlink:href="#DejaVuSans-6f"/>
      <use x="684.863281" xlink:href="#DejaVuSans-72"/>
      <use x="724.226562" xlink:href="#DejaVuSans-6d"/>
      <use x="821.638672" xlink:href="#DejaVuSans-61"/>
      <use x="882.917969" xlink:href="#DejaVuSans-6c"/>
      <use x="910.701172" xlink:href="#DejaVuSans-20"/>
      <use x="942.488281" xlink:href="#DejaVuSans-28"/>
      <use x="981.501953" xlink:href="#DejaVuSans-72"/>
      <use x="1022.615234" xlink:href="#DejaVuSans-61"/>
      <use x="1083.894531" xlink:href="#DejaVuSans-64"/>
      <use x="1147.371094" xlink:href="#DejaVuSans-29"/>
     </g>
    </g>
   </g>
   <g id="matplotlib.axis_2">
    <g id="ytick_1">
     <g id="line2d_10">
      <defs>
       <path d="M 0 0 
L -3.5 0 
" id="m3533c0e877" style="stroke:#000000;stroke-width:0.8;"/>
      </defs>
      <g>
       <use style="stroke:#000000;stroke-width:0.8;" x="43.78125" xlink:href="#m3533c0e877" y="273.312"/>
      </g>
     </g>
     <g id="text_11">
      <!-- 0.0 -->
      <g transform="translate(20.878125 277.111219)scale(0.1 -0.1)">
       <use xlink:href="#DejaVuSans-30"/>
       <use x="63.623047" xlink:href="#DejaVuSans-2e"/>
       <use x="95.410156" xlink:href="#DejaVuSans-30"/>
      </g>
     </g>
    </g>
    <g id="ytick_2">
     <g id="line2d_11">
      <g>
       <use style="stroke:#000000;stroke-width:0.8;" x="43.78125" xlink:href="#m3533c0e877" y="225.465954"/>
      </g>
     </g>
     <g id="text_12">
      <!-- 0.2 -->
      <g transform="translate(20.878125 229.265173)scale(0.1 -0.1)">
       <use xlink:href="#DejaVuSans-30"/>
       <use x="63.623047" xlink:href="#DejaVuSans-2e"/>
       <use x="95.410156" xlink:href="#DejaVuSans-32"/>
      </g>
     </g>
    </g>
    <g id="ytick_3">
     <g id="line2d_12">
      <g>
       <use style="stroke:#000000;stroke-width:0.8;" x="43.78125" xlink:href="#m3533c0e877" y="177.619909"/>
      </g>
     </g>
     <g id="text_13">
      <!-- 0.4 -->
      <g transform="translate(20.878125 181.419127)scale(0.1 -0.1)">
       <use xlink:href="#DejaVuSans-30"/>
       <use x="63.623047" xlink:href="#DejaVuSans-2e"/>
       <use x="95.410156" xlink:href="#DejaVuSans-34"/>
      </g>
     </g>
    </g>
    <g id="ytick_4">
     <g id="line2d_13">
      <g>
       <use style="stroke:#000000;stroke-width:0.8;" x="43.78125" xlink:href="#m3533c0e877" y="129.773863"/>
      </g>
     </g>
     <g id="text_14">
      <!-- 0.6 -->
      <g transform="translate(20.878125 133.573082)scale(0.1 -0.1)">
       <use xlink:href="#DejaVuSans-30"/>
       <use x="63.623047" xlink:href="#DejaVuSans-2e"/>
       <use x="95.410156" xlink:href="#DejaVuSans-36"/>
      </g>
     </g>
    </g>
    <g id="ytick_5">
     <g id="line2d_14">
      <g>
       <use style="stroke:#000000;stroke-width:0.8;" x="43.78125" xlink:href="#m3533c0e877" y="81.927817"/>
      </g>
     </g>
     <g id="text_15">
      <!-- 0.8 -->
      <g transform="translate(20.878125 85.727036)scale(0.1 -0.1)">
       <use xlink:href="#DejaVuSans-30"/>
       <use x="63.623047" xlink:href="#DejaVuSans-2e"/>
       <use x="95.410156" xlink:href="#DejaVuSans-38"/>
      </g>
     </g>
    </g>
    <g id="ytick_6">
     <g id="line2d_15">
      <g>
       <use style="stroke:#000000;stroke-width:0.8;" x="43.78125" xlink:href="#m3533c0e877" y="34.081772"/>
      </g>
     </g>
     <g id="text_16">
      <!-- 1.0 -->
      <g transform="translate(20.878125 37.88099)scale(0.1 -0.1)">
       <use xlink:href="#DejaVuSans-31"/>
       <use x="63.623047" xlink:href="#DejaVuSans-2e"/>
       <use x="95.410156" xlink:href="#DejaVuSans-30"/>
      </g>
     </g>
    </g>
    <g id="text_17">
     <!-- Probability density -->
     <g transform="translate(14.798438 186.606781)rotate(-90)scale(0.1 -0.1)">
      <defs>
       <path d="M 1259 4147 
L 1259 2394 
L 2053 2394 
Q 2494 2394 2734 2622 
Q 2975 2850 2975 3272 
Q 2975 3691 2734 3919 
Q 2494 4147 2053 4147 
L 1259 4147 
z
M 628 4666 
L 2053 4666 
Q 2838 4666 3239 4311 
Q 3641 3956 3641 3272 
Q 3641 2581 3239 2228 
Q 2838 1875 2053 1875 
L 1259 1875 
L 1259 0 
L 628 0 
L 628 4666 
z
" id="DejaVuSans-50" transform="scale(0.015625)"/>
       <path d="M 3116 1747 
Q 3116 2381 2855 2742 
Q 2594 3103 2138 3103 
Q 1681 3103 1420 2742 
Q 1159 2381 1159 1747 
Q 1159 1113 1420 752 
Q 1681 391 2138 391 
Q 2594 391 2855 752 
Q 3116 1113 3116 1747 
z
M 1159 2969 
Q 1341 3281 1617 3432 
Q 1894 3584 2278 3584 
Q 2916 3584 3314 3078 
Q 3713 2572 3713 1747 
Q 3713 922 3314 415 
Q 2916 -91 2278 -91 
Q 1894 -91 1617 61 
Q 1341 213 1159 525 
L 1159 0 
L 581 0 
L 581 4863 
L 1159 4863 
L 1159 2969 
z
" id="DejaVuSans-62" transform="scale(0.015625)"/>
       <path d="M 2059 -325 
Q 1816 -950 1584 -1140 
Q 1353 -1331 966 -1331 
L 506 -1331 
L 506 -850 
L 844 -850 
Q 1081 -850 1212 -737 
Q 1344 -625 1503 -206 
L 1606 56 
L 191 3500 
L 800 3500 
L 1894 763 
L 2988 3500 
L 3597 3500 
L 2059 -325 
z
" id="DejaVuSans-79" transform="scale(0.015625)"/>
       <path d="M 2834 3397 
L 2834 2853 
Q 2591 2978 2328 3040 
Q 2066 3103 1784 3103 
Q 1356 3103 1142 2972 
Q 928 2841 928 2578 
Q 928 2378 1081 2264 
Q 1234 2150 1697 2047 
L 1894 2003 
Q 2506 1872 2764 1633 
Q 3022 1394 3022 966 
Q 3022 478 2636 193 
Q 2250 -91 1575 -91 
Q 1294 -91 989 -36 
Q 684 19 347 128 
L 347 722 
Q 666 556 975 473 
Q 1284 391 1588 391 
Q 1994 391 2212 530 
Q 2431 669 2431 922 
Q 2431 1156 2273 1281 
Q 2116 1406 1581 1522 
L 1381 1569 
Q 847 1681 609 1914 
Q 372 2147 372 2553 
Q 372 3047 722 3315 
Q 1072 3584 1716 3584 
Q 2034 3584 2315 3537 
Q 2597 3491 2834 3397 
z
" id="DejaVuSans-73" transform="scale(0.015625)"/>
      </defs>
      <use xlink:href="#DejaVuSans-50"/>
      <use x="58.552734" xlink:href="#DejaVuSans-72"/>
      <use x="97.416016" xlink:href="#DejaVuSans-6f"/>
      <use x="158.597656" xlink:href="#DejaVuSans-62"/>
      <use x="222.074219" xlink:href="#DejaVuSans-61"/>
      <use x="283.353516" xlink:href="#DejaVuSans-62"/>
      <use x="346.830078" xlink:href="#DejaVuSans-69"/>
      <use x="374.613281" xlink:href="#DejaVuSans-6c"/>
      <use x="402.396484" xlink:href="#DejaVuSans-69"/>
      <use x="430.179688" xlink:href="#DejaVuSans-74"/>
      <use x="469.388672" xlink:href="#DejaVuSans-79"/>
      <use x="528.568359" xlink:href="#DejaVuSans-20"/>
      <use x="560.355469" xlink:href="#DejaVuSans-64"/>
      <use x="623.832031" xlink:href="#DejaVuSans-65"/>
      <use x="685.355469" xlink:href="#DejaVuSans-6e"/>
      <use x="748.734375" xlink:href="#DejaVuSans-73"/>
      <use x="800.833984" xlink:href="#DejaVuSans-69"/>
      <use x="828.617188" xlink:href="#DejaVuSans-74"/>
      <use x="867.826172" xlink:href="#DejaVuSans-79"/>
     </g>
    </g>
   </g>
   <g id="line2d_16">
    <path clip-path="url(#p3e22e48ff9)" d="M 60.013977 273.312 
L 79.512749 228.440387 
L 89.912094 205.060437 
L 98.686541 185.861363 
L 106.486049 169.320275 
L 113.635599 154.6755 
L 120.135189 141.852842 
L 126.3098 130.152065 
L 132.159432 119.537773 
L 137.684084 109.964902 
L 142.883756 101.381033 
L 148.083429 93.232346 
L 152.958121 86.006543 
L 157.507835 79.638106 
L 162.057548 73.645009 
L 166.282282 68.426238 
L 170.507016 63.549846 
L 174.73175 59.023981 
L 178.631504 55.16393 
L 182.531258 51.614499 
L 186.431012 48.380744 
L 190.005787 45.697721 
L 193.580562 43.287037 
L 197.155337 41.151577 
L 200.730112 39.293896 
L 203.979907 37.848019 
L 207.229702 36.634983 
L 210.479497 35.655985 
L 213.729293 34.911996 
L 216.979088 34.403749 
L 220.228883 34.131748 
L 223.478678 34.096262 
L 226.728474 34.297326 
L 229.978269 34.734741 
L 233.228064 35.408075 
L 236.477859 36.316661 
L 239.727655 37.459601 
L 242.97745 38.835766 
L 246.227245 40.443793 
L 249.47704 42.282094 
L 253.051815 44.568014 
L 256.62659 47.127625 
L 260.201365 49.957864 
L 263.776139 53.055345 
L 267.675894 56.734841 
L 271.575648 60.722721 
L 275.475402 65.013307 
L 279.700136 69.995942 
L 283.92487 75.318331 
L 288.474583 81.419885 
L 293.024297 87.893327 
L 297.89899 95.227572 
L 302.773682 102.958 
L 307.973355 111.62108 
L 313.498007 121.273514 
L 319.347638 131.966639 
L 325.522249 143.744317 
L 332.02184 156.640627 
L 338.84641 170.677363 
L 346.320939 186.562044 
L 354.770406 205.060437 
L 364.519792 226.963356 
L 377.193994 256.023809 
L 384.668523 273.312 
L 384.668523 273.312 
" style="fill:none;stroke:#ff7f0e;stroke-linecap:square;stroke-width:1.5;"/>
   </g>
   <g id="patch_203">
    <path d="M 43.78125 273.312 
L 43.78125 7.2 
" style="fill:none;stroke:#000000;stroke-linecap:square;stroke-linejoin:miter;stroke-width:0.8;"/>
   </g>
   <g id="patch_204">
    <path d="M 400.90125 273.312 
L 400.90125 7.2 
" style="fill:none;stroke:#000000;stroke-linecap:square;stroke-linejoin:miter;stroke-width:0.8;"/>
   </g>
   <g id="patch_205">
    <path d="M 43.78125 273.312 
L 400.90125 273.312 
" style="fill:none;stroke:#000000;stroke-linecap:square;stroke-linejoin:miter;stroke-width:0.8;"/>
   </g>
   <g id="patch_206">
    <path d="M 43.78125 7.2 
L 400.90125 7.2 
" style="fill:none;stroke:#000000;stroke-linecap:square;stroke-linejoin:miter;stroke-width:0.8;"/>
   </g>
  </g>
 </g>
 <defs>
  <clipPath id="p3e22e48ff9">
   <rect height="266.112" width="357.12" x="43.78125" y="7.2"/>
  </clipPath>
 </defs>
</svg>
