<?xml version="1.0" encoding="utf-8" standalone="no"?>
<!DOCTYPE svg PUBLIC "-//W3C//DTD SVG 1.1//EN"
  "http://www.w3.org/Graphics/SVG/1.1/DTD/svg11.dtd">
<svg height="310.86825pt" version="1.1" viewBox="0 0 408.10125 310.86825" width="408.10125pt" xmlns="http://www.w3.org/2000/svg" xmlns:xlink="http://www.w3.org/1999/xlink">
 <metadata>
  <rdf:RDF xmlns:cc="http://creativecommons.org/ns#" xmlns:dc="http://purl.org/dc/elements/1.1/" xmlns:rdf="http://www.w3.org/1999/02/22-rdf-syntax-ns#">
   <cc:Work>
    <dc:type rdf:resource="http://purl.org/dc/dcmitype/StillImage"/>
    <dc:date>2021-07-07T04:52:40.981674</dc:date>
    <dc:format>image/svg+xml</dc:format>
    <dc:creator>
     <cc:Agent>
      <dc:title>Matplotlib v3.4.2, https://matplotlib.org/</dc:title>
     </cc:Agent>
    </dc:creator>
   </cc:Work>
  </rdf:RDF>
 </metadata>
 <defs>
  <style type="text/css">*{stroke-linecap:butt;stroke-linejoin:round;}</style>
 </defs>
 <g id="figure_1">
  <g id="patch_1">
   <path d="M 0 310.86825 
L 408.10125 310.86825 
L 408.10125 0 
L 0 0 
z
" style="fill:#ffffff;"/>
  </g>
  <g id="axes_1">
   <g id="patch_2">
    <path d="M 43.78125 273.312 
L 400.90125 273.312 
L 400.90125 7.2 
L 43.78125 7.2 
z
" style="fill:#ffffff;"/>
   </g>
   <g id="patch_3">
    <path clip-path="url(#paae9183680)" d="M 60.236935 273.312 
L 61.854595 273.312 
L 61.854595 270.594145 
L 60.236935 270.594145 
z
" style="fill:#1f77b4;"/>
   </g>
   <g id="patch_4">
    <path clip-path="url(#paae9183680)" d="M 61.854595 273.312 
L 63.472254 273.312 
L 63.472254 267.196826 
L 61.854595 267.196826 
z
" style="fill:#1f77b4;"/>
   </g>
   <g id="patch_5">
    <path clip-path="url(#paae9183680)" d="M 63.472254 273.312 
L 65.089914 273.312 
L 65.089914 265.158434 
L 63.472254 265.158434 
z
" style="fill:#1f77b4;"/>
   </g>
   <g id="patch_6">
    <path clip-path="url(#paae9183680)" d="M 65.089914 273.312 
L 66.707573 273.312 
L 66.707573 259.04326 
L 65.089914 259.04326 
z
" style="fill:#1f77b4;"/>
   </g>
   <g id="patch_7">
    <path clip-path="url(#paae9183680)" d="M 66.707573 273.312 
L 68.325233 273.312 
L 68.325233 257.004869 
L 66.707573 257.004869 
z
" style="fill:#1f77b4;"/>
   </g>
   <g id="patch_8">
    <path clip-path="url(#paae9183680)" d="M 68.325233 273.312 
L 69.942892 273.312 
L 69.942892 248.851303 
L 68.325233 248.851303 
z
" style="fill:#1f77b4;"/>
   </g>
   <g id="patch_9">
    <path clip-path="url(#paae9183680)" d="M 69.942892 273.312 
L 71.560552 273.312 
L 71.560552 244.095056 
L 69.942892 244.095056 
z
" style="fill:#1f77b4;"/>
   </g>
   <g id="patch_10">
    <path clip-path="url(#paae9183680)" d="M 71.560552 273.312 
L 73.178211 273.312 
L 73.178211 245.453984 
L 71.560552 245.453984 
z
" style="fill:#1f77b4;"/>
   </g>
   <g id="patch_11">
    <path clip-path="url(#paae9183680)" d="M 73.178211 273.312 
L 74.795871 273.312 
L 74.795871 253.60755 
L 73.178211 253.60755 
z
" style="fill:#1f77b4;"/>
   </g>
   <g id="patch_12">
    <path clip-path="url(#paae9183680)" d="M 74.795871 273.312 
L 76.41353 273.312 
L 76.41353 243.415592 
L 74.795871 243.415592 
z
" style="fill:#1f77b4;"/>
   </g>
   <g id="patch_13">
    <path clip-path="url(#paae9183680)" d="M 76.41353 273.312 
L 78.03119 273.312 
L 78.03119 235.262027 
L 76.41353 235.262027 
z
" style="fill:#1f77b4;"/>
   </g>
   <g id="patch_14">
    <path clip-path="url(#paae9183680)" d="M 78.03119 273.312 
L 79.64885 273.312 
L 79.64885 242.056665 
L 78.03119 242.056665 
z
" style="fill:#1f77b4;"/>
   </g>
   <g id="patch_15">
    <path clip-path="url(#paae9183680)" d="M 79.64885 273.312 
L 81.266509 273.312 
L 81.266509 233.903099 
L 79.64885 233.903099 
z
" style="fill:#1f77b4;"/>
   </g>
   <g id="patch_16">
    <path clip-path="url(#paae9183680)" d="M 81.266509 273.312 
L 82.884169 273.312 
L 82.884169 220.313823 
L 81.266509 220.313823 
z
" style="fill:#1f77b4;"/>
   </g>
   <g id="patch_17">
    <path clip-path="url(#paae9183680)" d="M 82.884169 273.312 
L 84.501828 273.312 
L 84.501828 227.787925 
L 82.884169 227.787925 
z
" style="fill:#1f77b4;"/>
   </g>
   <g id="patch_18">
    <path clip-path="url(#paae9183680)" d="M 84.501828 273.312 
L 86.119488 273.312 
L 86.119488 233.903099 
L 84.501828 233.903099 
z
" style="fill:#1f77b4;"/>
   </g>
   <g id="patch_19">
    <path clip-path="url(#paae9183680)" d="M 86.119488 273.312 
L 87.737147 273.312 
L 87.737147 227.108461 
L 86.119488 227.108461 
z
" style="fill:#1f77b4;"/>
   </g>
   <g id="patch_20">
    <path clip-path="url(#paae9183680)" d="M 87.737147 273.312 
L 89.354807 273.312 
L 89.354807 208.762938 
L 87.737147 208.762938 
z
" style="fill:#1f77b4;"/>
   </g>
   <g id="patch_21">
    <path clip-path="url(#paae9183680)" d="M 89.354807 273.312 
L 90.972466 273.312 
L 90.972466 212.160257 
L 89.354807 212.160257 
z
" style="fill:#1f77b4;"/>
   </g>
   <g id="patch_22">
    <path clip-path="url(#paae9183680)" d="M 90.972466 273.312 
L 92.590126 273.312 
L 92.590126 219.634359 
L 90.972466 219.634359 
z
" style="fill:#1f77b4;"/>
   </g>
   <g id="patch_23">
    <path clip-path="url(#paae9183680)" d="M 92.590126 273.312 
L 94.207785 273.312 
L 94.207785 204.006692 
L 92.590126 204.006692 
z
" style="fill:#1f77b4;"/>
   </g>
   <g id="patch_24">
    <path clip-path="url(#paae9183680)" d="M 94.207785 273.312 
L 95.825445 273.312 
L 95.825445 194.494198 
L 94.207785 194.494198 
z
" style="fill:#1f77b4;"/>
   </g>
   <g id="patch_25">
    <path clip-path="url(#paae9183680)" d="M 95.825445 273.312 
L 97.443105 273.312 
L 97.443105 199.250445 
L 95.825445 199.250445 
z
" style="fill:#1f77b4;"/>
   </g>
   <g id="patch_26">
    <path clip-path="url(#paae9183680)" d="M 97.443105 273.312 
L 99.060764 273.312 
L 99.060764 212.160257 
L 97.443105 212.160257 
z
" style="fill:#1f77b4;"/>
   </g>
   <g id="patch_27">
    <path clip-path="url(#paae9183680)" d="M 99.060764 273.312 
L 100.678424 273.312 
L 100.678424 179.545995 
L 99.060764 179.545995 
z
" style="fill:#1f77b4;"/>
   </g>
   <g id="patch_28">
    <path clip-path="url(#paae9183680)" d="M 100.678424 273.312 
L 102.296083 273.312 
L 102.296083 189.737952 
L 100.678424 189.737952 
z
" style="fill:#1f77b4;"/>
   </g>
   <g id="patch_29">
    <path clip-path="url(#paae9183680)" d="M 102.296083 273.312 
L 103.913743 273.312 
L 103.913743 189.737952 
L 102.296083 189.737952 
z
" style="fill:#1f77b4;"/>
   </g>
   <g id="patch_30">
    <path clip-path="url(#paae9183680)" d="M 103.913743 273.312 
L 105.531402 273.312 
L 105.531402 175.469212 
L 103.913743 175.469212 
z
" style="fill:#1f77b4;"/>
   </g>
   <g id="patch_31">
    <path clip-path="url(#paae9183680)" d="M 105.531402 273.312 
L 107.149062 273.312 
L 107.149062 182.26385 
L 105.531402 182.26385 
z
" style="fill:#1f77b4;"/>
   </g>
   <g id="patch_32">
    <path clip-path="url(#paae9183680)" d="M 107.149062 273.312 
L 108.766721 273.312 
L 108.766721 174.110284 
L 107.149062 174.110284 
z
" style="fill:#1f77b4;"/>
   </g>
   <g id="patch_33">
    <path clip-path="url(#paae9183680)" d="M 108.766721 273.312 
L 110.384381 273.312 
L 110.384381 184.981705 
L 108.766721 184.981705 
z
" style="fill:#1f77b4;"/>
   </g>
   <g id="patch_34">
    <path clip-path="url(#paae9183680)" d="M 110.384381 273.312 
L 112.002041 273.312 
L 112.002041 179.545995 
L 110.384381 179.545995 
z
" style="fill:#1f77b4;"/>
   </g>
   <g id="patch_35">
    <path clip-path="url(#paae9183680)" d="M 112.002041 273.312 
L 113.6197 273.312 
L 113.6197 163.918327 
L 112.002041 163.918327 
z
" style="fill:#1f77b4;"/>
   </g>
   <g id="patch_36">
    <path clip-path="url(#paae9183680)" d="M 113.6197 273.312 
L 115.23736 273.312 
L 115.23736 167.99511 
L 113.6197 167.99511 
z
" style="fill:#1f77b4;"/>
   </g>
   <g id="patch_37">
    <path clip-path="url(#paae9183680)" d="M 115.23736 273.312 
L 116.855019 273.312 
L 116.855019 167.315646 
L 115.23736 167.315646 
z
" style="fill:#1f77b4;"/>
   </g>
   <g id="patch_38">
    <path clip-path="url(#paae9183680)" d="M 116.855019 273.312 
L 118.472679 273.312 
L 118.472679 160.521008 
L 116.855019 160.521008 
z
" style="fill:#1f77b4;"/>
   </g>
   <g id="patch_39">
    <path clip-path="url(#paae9183680)" d="M 118.472679 273.312 
L 120.090338 273.312 
L 120.090338 176.148676 
L 118.472679 176.148676 
z
" style="fill:#1f77b4;"/>
   </g>
   <g id="patch_40">
    <path clip-path="url(#paae9183680)" d="M 120.090338 273.312 
L 121.707998 273.312 
L 121.707998 151.687979 
L 120.090338 151.687979 
z
" style="fill:#1f77b4;"/>
   </g>
   <g id="patch_41">
    <path clip-path="url(#paae9183680)" d="M 121.707998 273.312 
L 123.325657 273.312 
L 123.325657 143.534413 
L 121.707998 143.534413 
z
" style="fill:#1f77b4;"/>
   </g>
   <g id="patch_42">
    <path clip-path="url(#paae9183680)" d="M 123.325657 273.312 
L 124.943317 273.312 
L 124.943317 157.803153 
L 123.325657 157.803153 
z
" style="fill:#1f77b4;"/>
   </g>
   <g id="patch_43">
    <path clip-path="url(#paae9183680)" d="M 124.943317 273.312 
L 126.560976 273.312 
L 126.560976 154.405834 
L 124.943317 154.405834 
z
" style="fill:#1f77b4;"/>
   </g>
   <g id="patch_44">
    <path clip-path="url(#paae9183680)" d="M 126.560976 273.312 
L 128.178636 273.312 
L 128.178636 129.265673 
L 126.560976 129.265673 
z
" style="fill:#1f77b4;"/>
   </g>
   <g id="patch_45">
    <path clip-path="url(#paae9183680)" d="M 128.178636 273.312 
L 129.796296 273.312 
L 129.796296 143.534413 
L 128.178636 143.534413 
z
" style="fill:#1f77b4;"/>
   </g>
   <g id="patch_46">
    <path clip-path="url(#paae9183680)" d="M 129.796296 273.312 
L 131.413955 273.312 
L 131.413955 143.534413 
L 129.796296 143.534413 
z
" style="fill:#1f77b4;"/>
   </g>
   <g id="patch_47">
    <path clip-path="url(#paae9183680)" d="M 131.413955 273.312 
L 133.031615 273.312 
L 133.031615 138.778166 
L 131.413955 138.778166 
z
" style="fill:#1f77b4;"/>
   </g>
   <g id="patch_48">
    <path clip-path="url(#paae9183680)" d="M 133.031615 273.312 
L 134.649274 273.312 
L 134.649274 138.098702 
L 133.031615 138.098702 
z
" style="fill:#1f77b4;"/>
   </g>
   <g id="patch_49">
    <path clip-path="url(#paae9183680)" d="M 134.649274 273.312 
L 136.266934 273.312 
L 136.266934 113.638005 
L 134.649274 113.638005 
z
" style="fill:#1f77b4;"/>
   </g>
   <g id="patch_50">
    <path clip-path="url(#paae9183680)" d="M 136.266934 273.312 
L 137.884593 273.312 
L 137.884593 135.380847 
L 136.266934 135.380847 
z
" style="fill:#1f77b4;"/>
   </g>
   <g id="patch_51">
    <path clip-path="url(#paae9183680)" d="M 137.884593 273.312 
L 139.502253 273.312 
L 139.502253 131.983528 
L 137.884593 131.983528 
z
" style="fill:#1f77b4;"/>
   </g>
   <g id="patch_52">
    <path clip-path="url(#paae9183680)" d="M 139.502253 273.312 
L 141.119912 273.312 
L 141.119912 119.75318 
L 139.502253 119.75318 
z
" style="fill:#1f77b4;"/>
   </g>
   <g id="patch_53">
    <path clip-path="url(#paae9183680)" d="M 141.119912 273.312 
L 142.737572 273.312 
L 142.737572 131.983528 
L 141.119912 131.983528 
z
" style="fill:#1f77b4;"/>
   </g>
   <g id="patch_54">
    <path clip-path="url(#paae9183680)" d="M 142.737572 273.312 
L 144.355231 273.312 
L 144.355231 114.996933 
L 142.737572 114.996933 
z
" style="fill:#1f77b4;"/>
   </g>
   <g id="patch_55">
    <path clip-path="url(#paae9183680)" d="M 144.355231 273.312 
L 145.972891 273.312 
L 145.972891 119.75318 
L 144.355231 119.75318 
z
" style="fill:#1f77b4;"/>
   </g>
   <g id="patch_56">
    <path clip-path="url(#paae9183680)" d="M 145.972891 273.312 
L 147.590551 273.312 
L 147.590551 102.766584 
L 145.972891 102.766584 
z
" style="fill:#1f77b4;"/>
   </g>
   <g id="patch_57">
    <path clip-path="url(#paae9183680)" d="M 147.590551 273.312 
L 149.20821 273.312 
L 149.20821 98.689802 
L 147.590551 98.689802 
z
" style="fill:#1f77b4;"/>
   </g>
   <g id="patch_58">
    <path clip-path="url(#paae9183680)" d="M 149.20821 273.312 
L 150.82587 273.312 
L 150.82587 98.689802 
L 149.20821 98.689802 
z
" style="fill:#1f77b4;"/>
   </g>
   <g id="patch_59">
    <path clip-path="url(#paae9183680)" d="M 150.82587 273.312 
L 152.443529 273.312 
L 152.443529 112.958542 
L 150.82587 112.958542 
z
" style="fill:#1f77b4;"/>
   </g>
   <g id="patch_60">
    <path clip-path="url(#paae9183680)" d="M 152.443529 273.312 
L 154.061189 273.312 
L 154.061189 108.202295 
L 152.443529 108.202295 
z
" style="fill:#1f77b4;"/>
   </g>
   <g id="patch_61">
    <path clip-path="url(#paae9183680)" d="M 154.061189 273.312 
L 155.678848 273.312 
L 155.678848 95.292483 
L 154.061189 95.292483 
z
" style="fill:#1f77b4;"/>
   </g>
   <g id="patch_62">
    <path clip-path="url(#paae9183680)" d="M 155.678848 273.312 
L 157.296508 273.312 
L 157.296508 104.804976 
L 155.678848 104.804976 
z
" style="fill:#1f77b4;"/>
   </g>
   <g id="patch_63">
    <path clip-path="url(#paae9183680)" d="M 157.296508 273.312 
L 158.914167 273.312 
L 158.914167 120.432643 
L 157.296508 120.432643 
z
" style="fill:#1f77b4;"/>
   </g>
   <g id="patch_64">
    <path clip-path="url(#paae9183680)" d="M 158.914167 273.312 
L 160.531827 273.312 
L 160.531827 93.933555 
L 158.914167 93.933555 
z
" style="fill:#1f77b4;"/>
   </g>
   <g id="patch_65">
    <path clip-path="url(#paae9183680)" d="M 160.531827 273.312 
L 162.149486 273.312 
L 162.149486 73.549641 
L 160.531827 73.549641 
z
" style="fill:#1f77b4;"/>
   </g>
   <g id="patch_66">
    <path clip-path="url(#paae9183680)" d="M 162.149486 273.312 
L 163.767146 273.312 
L 163.767146 82.38267 
L 162.149486 82.38267 
z
" style="fill:#1f77b4;"/>
   </g>
   <g id="patch_67">
    <path clip-path="url(#paae9183680)" d="M 163.767146 273.312 
L 165.384806 273.312 
L 165.384806 95.292483 
L 163.767146 95.292483 
z
" style="fill:#1f77b4;"/>
   </g>
   <g id="patch_68">
    <path clip-path="url(#paae9183680)" d="M 165.384806 273.312 
L 167.002465 273.312 
L 167.002465 84.421062 
L 165.384806 84.421062 
z
" style="fill:#1f77b4;"/>
   </g>
   <g id="patch_69">
    <path clip-path="url(#paae9183680)" d="M 167.002465 273.312 
L 168.620125 273.312 
L 168.620125 67.434466 
L 167.002465 67.434466 
z
" style="fill:#1f77b4;"/>
   </g>
   <g id="patch_70">
    <path clip-path="url(#paae9183680)" d="M 168.620125 273.312 
L 170.237784 273.312 
L 170.237784 80.344279 
L 168.620125 80.344279 
z
" style="fill:#1f77b4;"/>
   </g>
   <g id="patch_71">
    <path clip-path="url(#paae9183680)" d="M 170.237784 273.312 
L 171.855444 273.312 
L 171.855444 106.843367 
L 170.237784 106.843367 
z
" style="fill:#1f77b4;"/>
   </g>
   <g id="patch_72">
    <path clip-path="url(#paae9183680)" d="M 171.855444 273.312 
L 173.473103 273.312 
L 173.473103 91.895164 
L 171.855444 91.895164 
z
" style="fill:#1f77b4;"/>
   </g>
   <g id="patch_73">
    <path clip-path="url(#paae9183680)" d="M 173.473103 273.312 
L 175.090763 273.312 
L 175.090763 100.728193 
L 173.473103 100.728193 
z
" style="fill:#1f77b4;"/>
   </g>
   <g id="patch_74">
    <path clip-path="url(#paae9183680)" d="M 175.090763 273.312 
L 176.708422 273.312 
L 176.708422 66.075539 
L 175.090763 66.075539 
z
" style="fill:#1f77b4;"/>
   </g>
   <g id="patch_75">
    <path clip-path="url(#paae9183680)" d="M 176.708422 273.312 
L 178.326082 273.312 
L 178.326082 81.703206 
L 176.708422 81.703206 
z
" style="fill:#1f77b4;"/>
   </g>
   <g id="patch_76">
    <path clip-path="url(#paae9183680)" d="M 178.326082 273.312 
L 179.943742 273.312 
L 179.943742 76.94696 
L 178.326082 76.94696 
z
" style="fill:#1f77b4;"/>
   </g>
   <g id="patch_77">
    <path clip-path="url(#paae9183680)" d="M 179.943742 273.312 
L 181.561401 273.312 
L 181.561401 82.38267 
L 179.943742 82.38267 
z
" style="fill:#1f77b4;"/>
   </g>
   <g id="patch_78">
    <path clip-path="url(#paae9183680)" d="M 181.561401 273.312 
L 183.179061 273.312 
L 183.179061 82.38267 
L 181.561401 82.38267 
z
" style="fill:#1f77b4;"/>
   </g>
   <g id="patch_79">
    <path clip-path="url(#paae9183680)" d="M 183.179061 273.312 
L 184.79672 273.312 
L 184.79672 82.38267 
L 183.179061 82.38267 
z
" style="fill:#1f77b4;"/>
   </g>
   <g id="patch_80">
    <path clip-path="url(#paae9183680)" d="M 184.79672 273.312 
L 186.41438 273.312 
L 186.41438 70.152322 
L 184.79672 70.152322 
z
" style="fill:#1f77b4;"/>
   </g>
   <g id="patch_81">
    <path clip-path="url(#paae9183680)" d="M 186.41438 273.312 
L 188.032039 273.312 
L 188.032039 77.626424 
L 186.41438 77.626424 
z
" style="fill:#1f77b4;"/>
   </g>
   <g id="patch_82">
    <path clip-path="url(#paae9183680)" d="M 188.032039 273.312 
L 189.649699 273.312 
L 189.649699 66.075539 
L 188.032039 66.075539 
z
" style="fill:#1f77b4;"/>
   </g>
   <g id="patch_83">
    <path clip-path="url(#paae9183680)" d="M 189.649699 273.312 
L 191.267358 273.312 
L 191.267358 64.037147 
L 189.649699 64.037147 
z
" style="fill:#1f77b4;"/>
   </g>
   <g id="patch_84">
    <path clip-path="url(#paae9183680)" d="M 191.267358 273.312 
L 192.885018 273.312 
L 192.885018 85.100525 
L 191.267358 85.100525 
z
" style="fill:#1f77b4;"/>
   </g>
   <g id="patch_85">
    <path clip-path="url(#paae9183680)" d="M 192.885018 273.312 
L 194.502677 273.312 
L 194.502677 52.486263 
L 192.885018 52.486263 
z
" style="fill:#1f77b4;"/>
   </g>
   <g id="patch_86">
    <path clip-path="url(#paae9183680)" d="M 194.502677 273.312 
L 196.120337 273.312 
L 196.120337 80.344279 
L 194.502677 80.344279 
z
" style="fill:#1f77b4;"/>
   </g>
   <g id="patch_87">
    <path clip-path="url(#paae9183680)" d="M 196.120337 273.312 
L 197.737997 273.312 
L 197.737997 59.280901 
L 196.120337 59.280901 
z
" style="fill:#1f77b4;"/>
   </g>
   <g id="patch_88">
    <path clip-path="url(#paae9183680)" d="M 197.737997 273.312 
L 199.355656 273.312 
L 199.355656 70.152322 
L 197.737997 70.152322 
z
" style="fill:#1f77b4;"/>
   </g>
   <g id="patch_89">
    <path clip-path="url(#paae9183680)" d="M 199.355656 273.312 
L 200.973316 273.312 
L 200.973316 78.305887 
L 199.355656 78.305887 
z
" style="fill:#1f77b4;"/>
   </g>
   <g id="patch_90">
    <path clip-path="url(#paae9183680)" d="M 200.973316 273.312 
L 202.590975 273.312 
L 202.590975 78.305887 
L 200.973316 78.305887 
z
" style="fill:#1f77b4;"/>
   </g>
   <g id="patch_91">
    <path clip-path="url(#paae9183680)" d="M 202.590975 273.312 
L 204.208635 273.312 
L 204.208635 57.921973 
L 202.590975 57.921973 
z
" style="fill:#1f77b4;"/>
   </g>
   <g id="patch_92">
    <path clip-path="url(#paae9183680)" d="M 204.208635 273.312 
L 205.826294 273.312 
L 205.826294 42.294306 
L 204.208635 42.294306 
z
" style="fill:#1f77b4;"/>
   </g>
   <g id="patch_93">
    <path clip-path="url(#paae9183680)" d="M 205.826294 273.312 
L 207.443954 273.312 
L 207.443954 47.730016 
L 205.826294 47.730016 
z
" style="fill:#1f77b4;"/>
   </g>
   <g id="patch_94">
    <path clip-path="url(#paae9183680)" d="M 207.443954 273.312 
L 209.061613 273.312 
L 209.061613 58.601437 
L 207.443954 58.601437 
z
" style="fill:#1f77b4;"/>
   </g>
   <g id="patch_95">
    <path clip-path="url(#paae9183680)" d="M 209.061613 273.312 
L 210.679273 273.312 
L 210.679273 19.872 
L 209.061613 19.872 
z
" style="fill:#1f77b4;"/>
   </g>
   <g id="patch_96">
    <path clip-path="url(#paae9183680)" d="M 210.679273 273.312 
L 212.296932 273.312 
L 212.296932 59.960365 
L 210.679273 59.960365 
z
" style="fill:#1f77b4;"/>
   </g>
   <g id="patch_97">
    <path clip-path="url(#paae9183680)" d="M 212.296932 273.312 
L 213.914592 273.312 
L 213.914592 63.357684 
L 212.296932 63.357684 
z
" style="fill:#1f77b4;"/>
   </g>
   <g id="patch_98">
    <path clip-path="url(#paae9183680)" d="M 213.914592 273.312 
L 215.532252 273.312 
L 215.532252 62.67822 
L 213.914592 62.67822 
z
" style="fill:#1f77b4;"/>
   </g>
   <g id="patch_99">
    <path clip-path="url(#paae9183680)" d="M 215.532252 273.312 
L 217.149911 273.312 
L 217.149911 60.639828 
L 215.532252 60.639828 
z
" style="fill:#1f77b4;"/>
   </g>
   <g id="patch_100">
    <path clip-path="url(#paae9183680)" d="M 217.149911 273.312 
L 218.767571 273.312 
L 218.767571 68.793394 
L 217.149911 68.793394 
z
" style="fill:#1f77b4;"/>
   </g>
   <g id="patch_101">
    <path clip-path="url(#paae9183680)" d="M 218.767571 273.312 
L 220.38523 273.312 
L 220.38523 59.960365 
L 218.767571 59.960365 
z
" style="fill:#1f77b4;"/>
   </g>
   <g id="patch_102">
    <path clip-path="url(#paae9183680)" d="M 220.38523 273.312 
L 222.00289 273.312 
L 222.00289 67.434466 
L 220.38523 67.434466 
z
" style="fill:#1f77b4;"/>
   </g>
   <g id="patch_103">
    <path clip-path="url(#paae9183680)" d="M 222.00289 273.312 
L 223.620549 273.312 
L 223.620549 64.716611 
L 222.00289 64.716611 
z
" style="fill:#1f77b4;"/>
   </g>
   <g id="patch_104">
    <path clip-path="url(#paae9183680)" d="M 223.620549 273.312 
L 225.238209 273.312 
L 225.238209 74.229105 
L 223.620549 74.229105 
z
" style="fill:#1f77b4;"/>
   </g>
   <g id="patch_105">
    <path clip-path="url(#paae9183680)" d="M 225.238209 273.312 
L 226.855868 273.312 
L 226.855868 51.806799 
L 225.238209 51.806799 
z
" style="fill:#1f77b4;"/>
   </g>
   <g id="patch_106">
    <path clip-path="url(#paae9183680)" d="M 226.855868 273.312 
L 228.473528 273.312 
L 228.473528 61.319292 
L 226.855868 61.319292 
z
" style="fill:#1f77b4;"/>
   </g>
   <g id="patch_107">
    <path clip-path="url(#paae9183680)" d="M 228.473528 273.312 
L 230.091188 273.312 
L 230.091188 50.447871 
L 228.473528 50.447871 
z
" style="fill:#1f77b4;"/>
   </g>
   <g id="patch_108">
    <path clip-path="url(#paae9183680)" d="M 230.091188 273.312 
L 231.708847 273.312 
L 231.708847 53.84519 
L 230.091188 53.84519 
z
" style="fill:#1f77b4;"/>
   </g>
   <g id="patch_109">
    <path clip-path="url(#paae9183680)" d="M 231.708847 273.312 
L 233.326507 273.312 
L 233.326507 68.11393 
L 231.708847 68.11393 
z
" style="fill:#1f77b4;"/>
   </g>
   <g id="patch_110">
    <path clip-path="url(#paae9183680)" d="M 233.326507 273.312 
L 234.944166 273.312 
L 234.944166 65.396075 
L 233.326507 65.396075 
z
" style="fill:#1f77b4;"/>
   </g>
   <g id="patch_111">
    <path clip-path="url(#paae9183680)" d="M 234.944166 273.312 
L 236.561826 273.312 
L 236.561826 68.11393 
L 234.944166 68.11393 
z
" style="fill:#1f77b4;"/>
   </g>
   <g id="patch_112">
    <path clip-path="url(#paae9183680)" d="M 236.561826 273.312 
L 238.179485 273.312 
L 238.179485 66.755003 
L 236.561826 66.755003 
z
" style="fill:#1f77b4;"/>
   </g>
   <g id="patch_113">
    <path clip-path="url(#paae9183680)" d="M 238.179485 273.312 
L 239.797145 273.312 
L 239.797145 49.768408 
L 238.179485 49.768408 
z
" style="fill:#1f77b4;"/>
   </g>
   <g id="patch_114">
    <path clip-path="url(#paae9183680)" d="M 239.797145 273.312 
L 241.414804 273.312 
L 241.414804 88.497845 
L 239.797145 88.497845 
z
" style="fill:#1f77b4;"/>
   </g>
   <g id="patch_115">
    <path clip-path="url(#paae9183680)" d="M 241.414804 273.312 
L 243.032464 273.312 
L 243.032464 72.190713 
L 241.414804 72.190713 
z
" style="fill:#1f77b4;"/>
   </g>
   <g id="patch_116">
    <path clip-path="url(#paae9183680)" d="M 243.032464 273.312 
L 244.650123 273.312 
L 244.650123 51.127335 
L 243.032464 51.127335 
z
" style="fill:#1f77b4;"/>
   </g>
   <g id="patch_117">
    <path clip-path="url(#paae9183680)" d="M 244.650123 273.312 
L 246.267783 273.312 
L 246.267783 67.434466 
L 244.650123 67.434466 
z
" style="fill:#1f77b4;"/>
   </g>
   <g id="patch_118">
    <path clip-path="url(#paae9183680)" d="M 246.267783 273.312 
L 247.885443 273.312 
L 247.885443 44.332697 
L 246.267783 44.332697 
z
" style="fill:#1f77b4;"/>
   </g>
   <g id="patch_119">
    <path clip-path="url(#paae9183680)" d="M 247.885443 273.312 
L 249.503102 273.312 
L 249.503102 59.280901 
L 247.885443 59.280901 
z
" style="fill:#1f77b4;"/>
   </g>
   <g id="patch_120">
    <path clip-path="url(#paae9183680)" d="M 249.503102 273.312 
L 251.120762 273.312 
L 251.120762 66.075539 
L 249.503102 66.075539 
z
" style="fill:#1f77b4;"/>
   </g>
   <g id="patch_121">
    <path clip-path="url(#paae9183680)" d="M 251.120762 273.312 
L 252.738421 273.312 
L 252.738421 81.703206 
L 251.120762 81.703206 
z
" style="fill:#1f77b4;"/>
   </g>
   <g id="patch_122">
    <path clip-path="url(#paae9183680)" d="M 252.738421 273.312 
L 254.356081 273.312 
L 254.356081 62.67822 
L 252.738421 62.67822 
z
" style="fill:#1f77b4;"/>
   </g>
   <g id="patch_123">
    <path clip-path="url(#paae9183680)" d="M 254.356081 273.312 
L 255.97374 273.312 
L 255.97374 57.242509 
L 254.356081 57.242509 
z
" style="fill:#1f77b4;"/>
   </g>
   <g id="patch_124">
    <path clip-path="url(#paae9183680)" d="M 255.97374 273.312 
L 257.5914 273.312 
L 257.5914 72.190713 
L 255.97374 72.190713 
z
" style="fill:#1f77b4;"/>
   </g>
   <g id="patch_125">
    <path clip-path="url(#paae9183680)" d="M 257.5914 273.312 
L 259.209059 273.312 
L 259.209059 79.664815 
L 257.5914 79.664815 
z
" style="fill:#1f77b4;"/>
   </g>
   <g id="patch_126">
    <path clip-path="url(#paae9183680)" d="M 259.209059 273.312 
L 260.826719 273.312 
L 260.826719 78.985351 
L 259.209059 78.985351 
z
" style="fill:#1f77b4;"/>
   </g>
   <g id="patch_127">
    <path clip-path="url(#paae9183680)" d="M 260.826719 273.312 
L 262.444378 273.312 
L 262.444378 72.190713 
L 260.826719 72.190713 
z
" style="fill:#1f77b4;"/>
   </g>
   <g id="patch_128">
    <path clip-path="url(#paae9183680)" d="M 262.444378 273.312 
L 264.062038 273.312 
L 264.062038 70.831786 
L 262.444378 70.831786 
z
" style="fill:#1f77b4;"/>
   </g>
   <g id="patch_129">
    <path clip-path="url(#paae9183680)" d="M 264.062038 273.312 
L 265.679698 273.312 
L 265.679698 81.023743 
L 264.062038 81.023743 
z
" style="fill:#1f77b4;"/>
   </g>
   <g id="patch_130">
    <path clip-path="url(#paae9183680)" d="M 265.679698 273.312 
L 267.297357 273.312 
L 267.297357 75.588032 
L 265.679698 75.588032 
z
" style="fill:#1f77b4;"/>
   </g>
   <g id="patch_131">
    <path clip-path="url(#paae9183680)" d="M 267.297357 273.312 
L 268.915017 273.312 
L 268.915017 80.344279 
L 267.297357 80.344279 
z
" style="fill:#1f77b4;"/>
   </g>
   <g id="patch_132">
    <path clip-path="url(#paae9183680)" d="M 268.915017 273.312 
L 270.532676 273.312 
L 270.532676 83.062134 
L 268.915017 83.062134 
z
" style="fill:#1f77b4;"/>
   </g>
   <g id="patch_133">
    <path clip-path="url(#paae9183680)" d="M 270.532676 273.312 
L 272.150336 273.312 
L 272.150336 108.881759 
L 270.532676 108.881759 
z
" style="fill:#1f77b4;"/>
   </g>
   <g id="patch_134">
    <path clip-path="url(#paae9183680)" d="M 272.150336 273.312 
L 273.767995 273.312 
L 273.767995 93.933555 
L 272.150336 93.933555 
z
" style="fill:#1f77b4;"/>
   </g>
   <g id="patch_135">
    <path clip-path="url(#paae9183680)" d="M 273.767995 273.312 
L 275.385655 273.312 
L 275.385655 92.574627 
L 273.767995 92.574627 
z
" style="fill:#1f77b4;"/>
   </g>
   <g id="patch_136">
    <path clip-path="url(#paae9183680)" d="M 275.385655 273.312 
L 277.003314 273.312 
L 277.003314 82.38267 
L 275.385655 82.38267 
z
" style="fill:#1f77b4;"/>
   </g>
   <g id="patch_137">
    <path clip-path="url(#paae9183680)" d="M 277.003314 273.312 
L 278.620974 273.312 
L 278.620974 78.305887 
L 277.003314 78.305887 
z
" style="fill:#1f77b4;"/>
   </g>
   <g id="patch_138">
    <path clip-path="url(#paae9183680)" d="M 278.620974 273.312 
L 280.238634 273.312 
L 280.238634 98.010338 
L 278.620974 98.010338 
z
" style="fill:#1f77b4;"/>
   </g>
   <g id="patch_139">
    <path clip-path="url(#paae9183680)" d="M 280.238634 273.312 
L 281.856293 273.312 
L 281.856293 109.561223 
L 280.238634 109.561223 
z
" style="fill:#1f77b4;"/>
   </g>
   <g id="patch_140">
    <path clip-path="url(#paae9183680)" d="M 281.856293 273.312 
L 283.473953 273.312 
L 283.473953 85.779989 
L 281.856293 85.779989 
z
" style="fill:#1f77b4;"/>
   </g>
   <g id="patch_141">
    <path clip-path="url(#paae9183680)" d="M 283.473953 273.312 
L 285.091612 273.312 
L 285.091612 120.432643 
L 283.473953 120.432643 
z
" style="fill:#1f77b4;"/>
   </g>
   <g id="patch_142">
    <path clip-path="url(#paae9183680)" d="M 285.091612 273.312 
L 286.709272 273.312 
L 286.709272 107.522831 
L 285.091612 107.522831 
z
" style="fill:#1f77b4;"/>
   </g>
   <g id="patch_143">
    <path clip-path="url(#paae9183680)" d="M 286.709272 273.312 
L 288.326931 273.312 
L 288.326931 119.073716 
L 286.709272 119.073716 
z
" style="fill:#1f77b4;"/>
   </g>
   <g id="patch_144">
    <path clip-path="url(#paae9183680)" d="M 288.326931 273.312 
L 289.944591 273.312 
L 289.944591 80.344279 
L 288.326931 80.344279 
z
" style="fill:#1f77b4;"/>
   </g>
   <g id="patch_145">
    <path clip-path="url(#paae9183680)" d="M 289.944591 273.312 
L 291.56225 273.312 
L 291.56225 102.766584 
L 289.944591 102.766584 
z
" style="fill:#1f77b4;"/>
   </g>
   <g id="patch_146">
    <path clip-path="url(#paae9183680)" d="M 291.56225 273.312 
L 293.17991 273.312 
L 293.17991 106.163903 
L 291.56225 106.163903 
z
" style="fill:#1f77b4;"/>
   </g>
   <g id="patch_147">
    <path clip-path="url(#paae9183680)" d="M 293.17991 273.312 
L 294.797569 273.312 
L 294.797569 131.983528 
L 293.17991 131.983528 
z
" style="fill:#1f77b4;"/>
   </g>
   <g id="patch_148">
    <path clip-path="url(#paae9183680)" d="M 294.797569 273.312 
L 296.415229 273.312 
L 296.415229 106.163903 
L 294.797569 106.163903 
z
" style="fill:#1f77b4;"/>
   </g>
   <g id="patch_149">
    <path clip-path="url(#paae9183680)" d="M 296.415229 273.312 
L 298.032889 273.312 
L 298.032889 133.342456 
L 296.415229 133.342456 
z
" style="fill:#1f77b4;"/>
   </g>
   <g id="patch_150">
    <path clip-path="url(#paae9183680)" d="M 298.032889 273.312 
L 299.650548 273.312 
L 299.650548 116.355861 
L 298.032889 116.355861 
z
" style="fill:#1f77b4;"/>
   </g>
   <g id="patch_151">
    <path clip-path="url(#paae9183680)" d="M 299.650548 273.312 
L 301.268208 273.312 
L 301.268208 127.227282 
L 299.650548 127.227282 
z
" style="fill:#1f77b4;"/>
   </g>
   <g id="patch_152">
    <path clip-path="url(#paae9183680)" d="M 301.268208 273.312 
L 302.885867 273.312 
L 302.885867 119.073716 
L 301.268208 119.073716 
z
" style="fill:#1f77b4;"/>
   </g>
   <g id="patch_153">
    <path clip-path="url(#paae9183680)" d="M 302.885867 273.312 
L 304.503527 273.312 
L 304.503527 139.45763 
L 302.885867 139.45763 
z
" style="fill:#1f77b4;"/>
   </g>
   <g id="patch_154">
    <path clip-path="url(#paae9183680)" d="M 304.503527 273.312 
L 306.121186 273.312 
L 306.121186 116.355861 
L 304.503527 116.355861 
z
" style="fill:#1f77b4;"/>
   </g>
   <g id="patch_155">
    <path clip-path="url(#paae9183680)" d="M 306.121186 273.312 
L 307.738846 273.312 
L 307.738846 132.662992 
L 306.121186 132.662992 
z
" style="fill:#1f77b4;"/>
   </g>
   <g id="patch_156">
    <path clip-path="url(#paae9183680)" d="M 307.738846 273.312 
L 309.356505 273.312 
L 309.356505 148.970123 
L 307.738846 148.970123 
z
" style="fill:#1f77b4;"/>
   </g>
   <g id="patch_157">
    <path clip-path="url(#paae9183680)" d="M 309.356505 273.312 
L 310.974165 273.312 
L 310.974165 128.586209 
L 309.356505 128.586209 
z
" style="fill:#1f77b4;"/>
   </g>
   <g id="patch_158">
    <path clip-path="url(#paae9183680)" d="M 310.974165 273.312 
L 312.591824 273.312 
L 312.591824 130.624601 
L 310.974165 130.624601 
z
" style="fill:#1f77b4;"/>
   </g>
   <g id="patch_159">
    <path clip-path="url(#paae9183680)" d="M 312.591824 273.312 
L 314.209484 273.312 
L 314.209484 123.829962 
L 312.591824 123.829962 
z
" style="fill:#1f77b4;"/>
   </g>
   <g id="patch_160">
    <path clip-path="url(#paae9183680)" d="M 314.209484 273.312 
L 315.827144 273.312 
L 315.827144 153.046906 
L 314.209484 153.046906 
z
" style="fill:#1f77b4;"/>
   </g>
   <g id="patch_161">
    <path clip-path="url(#paae9183680)" d="M 315.827144 273.312 
L 317.444803 273.312 
L 317.444803 145.572804 
L 315.827144 145.572804 
z
" style="fill:#1f77b4;"/>
   </g>
   <g id="patch_162">
    <path clip-path="url(#paae9183680)" d="M 317.444803 273.312 
L 319.062463 273.312 
L 319.062463 144.89334 
L 317.444803 144.89334 
z
" style="fill:#1f77b4;"/>
   </g>
   <g id="patch_163">
    <path clip-path="url(#paae9183680)" d="M 319.062463 273.312 
L 320.680122 273.312 
L 320.680122 147.611196 
L 319.062463 147.611196 
z
" style="fill:#1f77b4;"/>
   </g>
   <g id="patch_164">
    <path clip-path="url(#paae9183680)" d="M 320.680122 273.312 
L 322.297782 273.312 
L 322.297782 151.008515 
L 320.680122 151.008515 
z
" style="fill:#1f77b4;"/>
   </g>
   <g id="patch_165">
    <path clip-path="url(#paae9183680)" d="M 322.297782 273.312 
L 323.915441 273.312 
L 323.915441 149.649587 
L 322.297782 149.649587 
z
" style="fill:#1f77b4;"/>
   </g>
   <g id="patch_166">
    <path clip-path="url(#paae9183680)" d="M 323.915441 273.312 
L 325.533101 273.312 
L 325.533101 154.405834 
L 323.915441 154.405834 
z
" style="fill:#1f77b4;"/>
   </g>
   <g id="patch_167">
    <path clip-path="url(#paae9183680)" d="M 325.533101 273.312 
L 327.15076 273.312 
L 327.15076 153.046906 
L 325.533101 153.046906 
z
" style="fill:#1f77b4;"/>
   </g>
   <g id="patch_168">
    <path clip-path="url(#paae9183680)" d="M 327.15076 273.312 
L 328.76842 273.312 
L 328.76842 160.521008 
L 327.15076 160.521008 
z
" style="fill:#1f77b4;"/>
   </g>
   <g id="patch_169">
    <path clip-path="url(#paae9183680)" d="M 328.76842 273.312 
L 330.386079 273.312 
L 330.386079 168.674574 
L 328.76842 168.674574 
z
" style="fill:#1f77b4;"/>
   </g>
   <g id="patch_170">
    <path clip-path="url(#paae9183680)" d="M 330.386079 273.312 
L 332.003739 273.312 
L 332.003739 175.469212 
L 330.386079 175.469212 
z
" style="fill:#1f77b4;"/>
   </g>
   <g id="patch_171">
    <path clip-path="url(#paae9183680)" d="M 332.003739 273.312 
L 333.621399 273.312 
L 333.621399 170.033501 
L 332.003739 170.033501 
z
" style="fill:#1f77b4;"/>
   </g>
   <g id="patch_172">
    <path clip-path="url(#paae9183680)" d="M 333.621399 273.312 
L 335.239058 273.312 
L 335.239058 166.636182 
L 333.621399 166.636182 
z
" style="fill:#1f77b4;"/>
   </g>
   <g id="patch_173">
    <path clip-path="url(#paae9183680)" d="M 335.239058 273.312 
L 336.856718 273.312 
L 336.856718 170.033501 
L 335.239058 170.033501 
z
" style="fill:#1f77b4;"/>
   </g>
   <g id="patch_174">
    <path clip-path="url(#paae9183680)" d="M 336.856718 273.312 
L 338.474377 273.312 
L 338.474377 174.789748 
L 336.856718 174.789748 
z
" style="fill:#1f77b4;"/>
   </g>
   <g id="patch_175">
    <path clip-path="url(#paae9183680)" d="M 338.474377 273.312 
L 340.092037 273.312 
L 340.092037 187.69956 
L 338.474377 187.69956 
z
" style="fill:#1f77b4;"/>
   </g>
   <g id="patch_176">
    <path clip-path="url(#paae9183680)" d="M 340.092037 273.312 
L 341.709696 273.312 
L 341.709696 182.943314 
L 340.092037 182.943314 
z
" style="fill:#1f77b4;"/>
   </g>
   <g id="patch_177">
    <path clip-path="url(#paae9183680)" d="M 341.709696 273.312 
L 343.327356 273.312 
L 343.327356 191.096879 
L 341.709696 191.096879 
z
" style="fill:#1f77b4;"/>
   </g>
   <g id="patch_178">
    <path clip-path="url(#paae9183680)" d="M 343.327356 273.312 
L 344.945015 273.312 
L 344.945015 194.494198 
L 343.327356 194.494198 
z
" style="fill:#1f77b4;"/>
   </g>
   <g id="patch_179">
    <path clip-path="url(#paae9183680)" d="M 344.945015 273.312 
L 346.562675 273.312 
L 346.562675 182.26385 
L 344.945015 182.26385 
z
" style="fill:#1f77b4;"/>
   </g>
   <g id="patch_180">
    <path clip-path="url(#paae9183680)" d="M 346.562675 273.312 
L 348.180335 273.312 
L 348.180335 197.891517 
L 346.562675 197.891517 
z
" style="fill:#1f77b4;"/>
   </g>
   <g id="patch_181">
    <path clip-path="url(#paae9183680)" d="M 348.180335 273.312 
L 349.797994 273.312 
L 349.797994 211.480794 
L 348.180335 211.480794 
z
" style="fill:#1f77b4;"/>
   </g>
   <g id="patch_182">
    <path clip-path="url(#paae9183680)" d="M 349.797994 273.312 
L 351.415654 273.312 
L 351.415654 197.891517 
L 349.797994 197.891517 
z
" style="fill:#1f77b4;"/>
   </g>
   <g id="patch_183">
    <path clip-path="url(#paae9183680)" d="M 351.415654 273.312 
L 353.033313 273.312 
L 353.033313 203.327228 
L 351.415654 203.327228 
z
" style="fill:#1f77b4;"/>
   </g>
   <g id="patch_184">
    <path clip-path="url(#paae9183680)" d="M 353.033313 273.312 
L 354.650973 273.312 
L 354.650973 213.519185 
L 353.033313 213.519185 
z
" style="fill:#1f77b4;"/>
   </g>
   <g id="patch_185">
    <path clip-path="url(#paae9183680)" d="M 354.650973 273.312 
L 356.268632 273.312 
L 356.268632 210.80133 
L 354.650973 210.80133 
z
" style="fill:#1f77b4;"/>
   </g>
   <g id="patch_186">
    <path clip-path="url(#paae9183680)" d="M 356.268632 273.312 
L 357.886292 273.312 
L 357.886292 212.160257 
L 356.268632 212.160257 
z
" style="fill:#1f77b4;"/>
   </g>
   <g id="patch_187">
    <path clip-path="url(#paae9183680)" d="M 357.886292 273.312 
L 359.503951 273.312 
L 359.503951 218.275432 
L 357.886292 218.275432 
z
" style="fill:#1f77b4;"/>
   </g>
   <g id="patch_188">
    <path clip-path="url(#paae9183680)" d="M 359.503951 273.312 
L 361.121611 273.312 
L 361.121611 229.826316 
L 359.503951 229.826316 
z
" style="fill:#1f77b4;"/>
   </g>
   <g id="patch_189">
    <path clip-path="url(#paae9183680)" d="M 361.121611 273.312 
L 362.73927 273.312 
L 362.73927 229.146853 
L 361.121611 229.146853 
z
" style="fill:#1f77b4;"/>
   </g>
   <g id="patch_190">
    <path clip-path="url(#paae9183680)" d="M 362.73927 273.312 
L 364.35693 273.312 
L 364.35693 224.390606 
L 362.73927 224.390606 
z
" style="fill:#1f77b4;"/>
   </g>
   <g id="patch_191">
    <path clip-path="url(#paae9183680)" d="M 364.35693 273.312 
L 365.97459 273.312 
L 365.97459 231.185244 
L 364.35693 231.185244 
z
" style="fill:#1f77b4;"/>
   </g>
   <g id="patch_192">
    <path clip-path="url(#paae9183680)" d="M 365.97459 273.312 
L 367.592249 273.312 
L 367.592249 230.50578 
L 365.97459 230.50578 
z
" style="fill:#1f77b4;"/>
   </g>
   <g id="patch_193">
    <path clip-path="url(#paae9183680)" d="M 367.592249 273.312 
L 369.209909 273.312 
L 369.209909 241.377201 
L 367.592249 241.377201 
z
" style="fill:#1f77b4;"/>
   </g>
   <g id="patch_194">
    <path clip-path="url(#paae9183680)" d="M 369.209909 273.312 
L 370.827568 273.312 
L 370.827568 246.812912 
L 369.209909 246.812912 
z
" style="fill:#1f77b4;"/>
   </g>
   <g id="patch_195">
    <path clip-path="url(#paae9183680)" d="M 370.827568 273.312 
L 372.445228 273.312 
L 372.445228 242.056665 
L 370.827568 242.056665 
z
" style="fill:#1f77b4;"/>
   </g>
   <g id="patch_196">
    <path clip-path="url(#paae9183680)" d="M 372.445228 273.312 
L 374.062887 273.312 
L 374.062887 255.645941 
L 372.445228 255.645941 
z
" style="fill:#1f77b4;"/>
   </g>
   <g id="patch_197">
    <path clip-path="url(#paae9183680)" d="M 374.062887 273.312 
L 375.680547 273.312 
L 375.680547 257.684332 
L 374.062887 257.684332 
z
" style="fill:#1f77b4;"/>
   </g>
   <g id="patch_198">
    <path clip-path="url(#paae9183680)" d="M 375.680547 273.312 
L 377.298206 273.312 
L 377.298206 259.04326 
L 375.680547 259.04326 
z
" style="fill:#1f77b4;"/>
   </g>
   <g id="patch_199">
    <path clip-path="url(#paae9183680)" d="M 377.298206 273.312 
L 378.915866 273.312 
L 378.915866 257.004869 
L 377.298206 257.004869 
z
" style="fill:#1f77b4;"/>
   </g>
   <g id="patch_200">
    <path clip-path="url(#paae9183680)" d="M 378.915866 273.312 
L 380.533525 273.312 
L 380.533525 266.517362 
L 378.915866 266.517362 
z
" style="fill:#1f77b4;"/>
   </g>
   <g id="patch_201">
    <path clip-path="url(#paae9183680)" d="M 380.533525 273.312 
L 382.151185 273.312 
L 382.151185 269.914681 
L 380.533525 269.914681 
z
" style="fill:#1f77b4;"/>
   </g>
   <g id="patch_202">
    <path clip-path="url(#paae9183680)" d="M 382.151185 273.312 
L 383.768845 273.312 
L 383.768845 267.87629 
L 382.151185 267.87629 
z
" style="fill:#1f77b4;"/>
   </g>
   <g id="matplotlib.axis_1">
    <g id="xtick_1">
     <g id="line2d_1">
      <defs>
       <path d="M 0 0 
L 0 3.5 
" id="mccd000212a" style="stroke:#000000;stroke-width:0.8;"/>
      </defs>
      <g>
       <use style="stroke:#000000;stroke-width:0.8;" x="60.013977" xlink:href="#mccd000212a" y="273.312"/>
      </g>
     </g>
     <g id="text_1">
      <!-- 0.0 -->
      <g transform="translate(52.062415 287.910437)scale(0.1 -0.1)">
       <defs>
        <path d="M 2034 4250 
Q 1547 4250 1301 3770 
Q 1056 3291 1056 2328 
Q 1056 1369 1301 889 
Q 1547 409 2034 409 
Q 2525 409 2770 889 
Q 3016 1369 3016 2328 
Q 3016 3291 2770 3770 
Q 2525 4250 2034 4250 
z
M 2034 4750 
Q 2819 4750 3233 4129 
Q 3647 3509 3647 2328 
Q 3647 1150 3233 529 
Q 2819 -91 2034 -91 
Q 1250 -91 836 529 
Q 422 1150 422 2328 
Q 422 3509 836 4129 
Q 1250 4750 2034 4750 
z
" id="DejaVuSans-30" transform="scale(0.015625)"/>
        <path d="M 684 794 
L 1344 794 
L 1344 0 
L 684 0 
L 684 794 
z
" id="DejaVuSans-2e" transform="scale(0.015625)"/>
       </defs>
       <use xlink:href="#DejaVuSans-30"/>
       <use x="63.623047" xlink:href="#DejaVuSans-2e"/>
       <use x="95.410156" xlink:href="#DejaVuSans-30"/>
      </g>
     </g>
    </g>
    <g id="xtick_2">
     <g id="line2d_2">
      <g>
       <use style="stroke:#000000;stroke-width:0.8;" x="101.350278" xlink:href="#mccd000212a" y="273.312"/>
      </g>
     </g>
     <g id="text_2">
      <!-- 0.2 -->
      <g transform="translate(93.398715 287.910437)scale(0.1 -0.1)">
       <defs>
        <path d="M 1228 531 
L 3431 531 
L 3431 0 
L 469 0 
L 469 531 
Q 828 903 1448 1529 
Q 2069 2156 2228 2338 
Q 2531 2678 2651 2914 
Q 2772 3150 2772 3378 
Q 2772 3750 2511 3984 
Q 2250 4219 1831 4219 
Q 1534 4219 1204 4116 
Q 875 4013 500 3803 
L 500 4441 
Q 881 4594 1212 4672 
Q 1544 4750 1819 4750 
Q 2544 4750 2975 4387 
Q 3406 4025 3406 3419 
Q 3406 3131 3298 2873 
Q 3191 2616 2906 2266 
Q 2828 2175 2409 1742 
Q 1991 1309 1228 531 
z
" id="DejaVuSans-32" transform="scale(0.015625)"/>
       </defs>
       <use xlink:href="#DejaVuSans-30"/>
       <use x="63.623047" xlink:href="#DejaVuSans-2e"/>
       <use x="95.410156" xlink:href="#DejaVuSans-32"/>
      </g>
     </g>
    </g>
    <g id="xtick_3">
     <g id="line2d_3">
      <g>
       <use style="stroke:#000000;stroke-width:0.8;" x="142.686578" xlink:href="#mccd000212a" y="273.312"/>
      </g>
     </g>
     <g id="text_3">
      <!-- 0.4 -->
      <g transform="translate(134.735016 287.910437)scale(0.1 -0.1)">
       <defs>
        <path d="M 2419 4116 
L 825 1625 
L 2419 1625 
L 2419 4116 
z
M 2253 4666 
L 3047 4666 
L 3047 1625 
L 3713 1625 
L 3713 1100 
L 3047 1100 
L 3047 0 
L 2419 0 
L 2419 1100 
L 313 1100 
L 313 1709 
L 2253 4666 
z
" id="DejaVuSans-34" transform="scale(0.015625)"/>
       </defs>
       <use xlink:href="#DejaVuSans-30"/>
       <use x="63.623047" xlink:href="#DejaVuSans-2e"/>
       <use x="95.410156" xlink:href="#DejaVuSans-34"/>
      </g>
     </g>
    </g>
    <g id="xtick_4">
     <g id="line2d_4">
      <g>
       <use style="stroke:#000000;stroke-width:0.8;" x="184.022879" xlink:href="#mccd000212a" y="273.312"/>
      </g>
     </g>
     <g id="text_4">
      <!-- 0.6 -->
      <g transform="translate(176.071316 287.910437)scale(0.1 -0.1)">
       <defs>
        <path d="M 2113 2584 
Q 1688 2584 1439 2293 
Q 1191 2003 1191 1497 
Q 1191 994 1439 701 
Q 1688 409 2113 409 
Q 2538 409 2786 701 
Q 3034 994 3034 1497 
Q 3034 2003 2786 2293 
Q 2538 2584 2113 2584 
z
M 3366 4563 
L 3366 3988 
Q 3128 4100 2886 4159 
Q 2644 4219 2406 4219 
Q 1781 4219 1451 3797 
Q 1122 3375 1075 2522 
Q 1259 2794 1537 2939 
Q 1816 3084 2150 3084 
Q 2853 3084 3261 2657 
Q 3669 2231 3669 1497 
Q 3669 778 3244 343 
Q 2819 -91 2113 -91 
Q 1303 -91 875 529 
Q 447 1150 447 2328 
Q 447 3434 972 4092 
Q 1497 4750 2381 4750 
Q 2619 4750 2861 4703 
Q 3103 4656 3366 4563 
z
" id="DejaVuSans-36" transform="scale(0.015625)"/>
       </defs>
       <use xlink:href="#DejaVuSans-30"/>
       <use x="63.623047" xlink:href="#DejaVuSans-2e"/>
       <use x="95.410156" xlink:href="#DejaVuSans-36"/>
      </g>
     </g>
    </g>
    <g id="xtick_5">
     <g id="line2d_5">
      <g>
       <use style="stroke:#000000;stroke-width:0.8;" x="225.35918" xlink:href="#mccd000212a" y="273.312"/>
      </g>
     </g>
     <g id="text_5">
      <!-- 0.8 -->
      <g transform="translate(217.407617 287.910437)scale(0.1 -0.1)">
       <defs>
        <path d="M 2034 2216 
Q 1584 2216 1326 1975 
Q 1069 1734 1069 1313 
Q 1069 891 1326 650 
Q 1584 409 2034 409 
Q 2484 409 2743 651 
Q 3003 894 3003 1313 
Q 3003 1734 2745 1975 
Q 2488 2216 2034 2216 
z
M 1403 2484 
Q 997 2584 770 2862 
Q 544 3141 544 3541 
Q 544 4100 942 4425 
Q 1341 4750 2034 4750 
Q 2731 4750 3128 4425 
Q 3525 4100 3525 3541 
Q 3525 3141 3298 2862 
Q 3072 2584 2669 2484 
Q 3125 2378 3379 2068 
Q 3634 1759 3634 1313 
Q 3634 634 3220 271 
Q 2806 -91 2034 -91 
Q 1263 -91 848 271 
Q 434 634 434 1313 
Q 434 1759 690 2068 
Q 947 2378 1403 2484 
z
M 1172 3481 
Q 1172 3119 1398 2916 
Q 1625 2713 2034 2713 
Q 2441 2713 2670 2916 
Q 2900 3119 2900 3481 
Q 2900 3844 2670 4047 
Q 2441 4250 2034 4250 
Q 1625 4250 1398 4047 
Q 1172 3844 1172 3481 
z
" id="DejaVuSans-38" transform="scale(0.015625)"/>
       </defs>
       <use xlink:href="#DejaVuSans-30"/>
       <use x="63.623047" xlink:href="#DejaVuSans-2e"/>
       <use x="95.410156" xlink:href="#DejaVuSans-38"/>
      </g>
     </g>
    </g>
    <g id="xtick_6">
     <g id="line2d_6">
      <g>
       <use style="stroke:#000000;stroke-width:0.8;" x="266.69548" xlink:href="#mccd000212a" y="273.312"/>
      </g>
     </g>
     <g id="text_6">
      <!-- 1.0 -->
      <g transform="translate(258.743918 287.910437)scale(0.1 -0.1)">
       <defs>
        <path d="M 794 531 
L 1825 531 
L 1825 4091 
L 703 3866 
L 703 4441 
L 1819 4666 
L 2450 4666 
L 2450 531 
L 3481 531 
L 3481 0 
L 794 0 
L 794 531 
z
" id="DejaVuSans-31" transform="scale(0.015625)"/>
       </defs>
       <use xlink:href="#DejaVuSans-31"/>
       <use x="63.623047" xlink:href="#DejaVuSans-2e"/>
       <use x="95.410156" xlink:href="#DejaVuSans-30"/>
      </g>
     </g>
    </g>
    <g id="xtick_7">
     <g id="line2d_7">
      <g>
       <use style="stroke:#000000;stroke-width:0.8;" x="308.031781" xlink:href="#mccd000212a" y="273.312"/>
      </g>
     </g>
     <g id="text_7">
      <!-- 1.2 -->
      <g transform="translate(300.080218 287.910437)scale(0.1 -0.1)">
       <use xlink:href="#DejaVuSans-31"/>
       <use x="63.623047" xlink:href="#DejaVuSans-2e"/>
       <use x="95.410156" xlink:href="#DejaVuSans-32"/>
      </g>
     </g>
    </g>
    <g id="xtick_8">
     <g id="line2d_8">
      <g>
       <use style="stroke:#000000;stroke-width:0.8;" x="349.368081" xlink:href="#mccd000212a" y="273.312"/>
      </g>
     </g>
     <g id="text_8">
      <!-- 1.4 -->
      <g transform="translate(341.416519 287.910437)scale(0.1 -0.1)">
       <use xlink:href="#DejaVuSans-31"/>
       <use x="63.623047" xlink:href="#DejaVuSans-2e"/>
       <use x="95.410156" xlink:href="#DejaVuSans-34"/>
      </g>
     </g>
    </g>
    <g id="xtick_9">
     <g id="line2d_9">
      <g>
       <use style="stroke:#000000;stroke-width:0.8;" x="390.704382" xlink:href="#mccd000212a" y="273.312"/>
      </g>
     </g>
     <g id="text_9">
      <!-- 1.6 -->
      <g transform="translate(382.752819 287.910437)scale(0.1 -0.1)">
       <use xlink:href="#DejaVuSans-31"/>
       <use x="63.623047" xlink:href="#DejaVuSans-2e"/>
       <use x="95.410156" xlink:href="#DejaVuSans-36"/>
      </g>
     </g>
    </g>
    <g id="text_10">
     <!-- Angle with normal (rad) -->
     <g transform="translate(163.023281 301.588562)scale(0.1 -0.1)">
      <defs>
       <path d="M 2188 4044 
L 1331 1722 
L 3047 1722 
L 2188 4044 
z
M 1831 4666 
L 2547 4666 
L 4325 0 
L 3669 0 
L 3244 1197 
L 1141 1197 
L 716 0 
L 50 0 
L 1831 4666 
z
" id="DejaVuSans-41" transform="scale(0.015625)"/>
       <path d="M 3513 2113 
L 3513 0 
L 2938 0 
L 2938 2094 
Q 2938 2591 2744 2837 
Q 2550 3084 2163 3084 
Q 1697 3084 1428 2787 
Q 1159 2491 1159 1978 
L 1159 0 
L 581 0 
L 581 3500 
L 1159 3500 
L 1159 2956 
Q 1366 3272 1645 3428 
Q 1925 3584 2291 3584 
Q 2894 3584 3203 3211 
Q 3513 2838 3513 2113 
z
" id="DejaVuSans-6e" transform="scale(0.015625)"/>
       <path d="M 2906 1791 
Q 2906 2416 2648 2759 
Q 2391 3103 1925 3103 
Q 1463 3103 1205 2759 
Q 947 2416 947 1791 
Q 947 1169 1205 825 
Q 1463 481 1925 481 
Q 2391 481 2648 825 
Q 2906 1169 2906 1791 
z
M 3481 434 
Q 3481 -459 3084 -895 
Q 2688 -1331 1869 -1331 
Q 1566 -1331 1297 -1286 
Q 1028 -1241 775 -1147 
L 775 -588 
Q 1028 -725 1275 -790 
Q 1522 -856 1778 -856 
Q 2344 -856 2625 -561 
Q 2906 -266 2906 331 
L 2906 616 
Q 2728 306 2450 153 
Q 2172 0 1784 0 
Q 1141 0 747 490 
Q 353 981 353 1791 
Q 353 2603 747 3093 
Q 1141 3584 1784 3584 
Q 2172 3584 2450 3431 
Q 2728 3278 2906 2969 
L 2906 3500 
L 3481 3500 
L 3481 434 
z
" id="DejaVuSans-67" transform="scale(0.015625)"/>
       <path d="M 603 4863 
L 1178 4863 
L 1178 0 
L 603 0 
L 603 4863 
z
" id="DejaVuSans-6c" transform="scale(0.015625)"/>
       <path d="M 3597 1894 
L 3597 1613 
L 953 1613 
Q 991 1019 1311 708 
Q 1631 397 2203 397 
Q 2534 397 2845 478 
Q 3156 559 3463 722 
L 3463 178 
Q 3153 47 2828 -22 
Q 2503 -91 2169 -91 
Q 1331 -91 842 396 
Q 353 884 353 1716 
Q 353 2575 817 3079 
Q 1281 3584 2069 3584 
Q 2775 3584 3186 3129 
Q 3597 2675 3597 1894 
z
M 3022 2063 
Q 3016 2534 2758 2815 
Q 2500 3097 2075 3097 
Q 1594 3097 1305 2825 
Q 1016 2553 972 2059 
L 3022 2063 
z
" id="DejaVuSans-65" transform="scale(0.015625)"/>
       <path id="DejaVuSans-20" transform="scale(0.015625)"/>
       <path d="M 269 3500 
L 844 3500 
L 1563 769 
L 2278 3500 
L 2956 3500 
L 3675 769 
L 4391 3500 
L 4966 3500 
L 4050 0 
L 3372 0 
L 2619 2869 
L 1863 0 
L 1184 0 
L 269 3500 
z
" id="DejaVuSans-77" transform="scale(0.015625)"/>
       <path d="M 603 3500 
L 1178 3500 
L 1178 0 
L 603 0 
L 603 3500 
z
M 603 4863 
L 1178 4863 
L 1178 4134 
L 603 4134 
L 603 4863 
z
" id="DejaVuSans-69" transform="scale(0.015625)"/>
       <path d="M 1172 4494 
L 1172 3500 
L 2356 3500 
L 2356 3053 
L 1172 3053 
L 1172 1153 
Q 1172 725 1289 603 
Q 1406 481 1766 481 
L 2356 481 
L 2356 0 
L 1766 0 
Q 1100 0 847 248 
Q 594 497 594 1153 
L 594 3053 
L 172 3053 
L 172 3500 
L 594 3500 
L 594 4494 
L 1172 4494 
z
" id="DejaVuSans-74" transform="scale(0.015625)"/>
       <path d="M 3513 2113 
L 3513 0 
L 2938 0 
L 2938 2094 
Q 2938 2591 2744 2837 
Q 2550 3084 2163 3084 
Q 1697 3084 1428 2787 
Q 1159 2491 1159 1978 
L 1159 0 
L 581 0 
L 581 4863 
L 1159 4863 
L 1159 2956 
Q 1366 3272 1645 3428 
Q 1925 3584 2291 3584 
Q 2894 3584 3203 3211 
Q 3513 2838 3513 2113 
z
" id="DejaVuSans-68" transform="scale(0.015625)"/>
       <path d="M 1959 3097 
Q 1497 3097 1228 2736 
Q 959 2375 959 1747 
Q 959 1119 1226 758 
Q 1494 397 1959 397 
Q 2419 397 2687 759 
Q 2956 1122 2956 1747 
Q 2956 2369 2687 2733 
Q 2419 3097 1959 3097 
z
M 1959 3584 
Q 2709 3584 3137 3096 
Q 3566 2609 3566 1747 
Q 3566 888 3137 398 
Q 2709 -91 1959 -91 
Q 1206 -91 779 398 
Q 353 888 353 1747 
Q 353 2609 779 3096 
Q 1206 3584 1959 3584 
z
" id="DejaVuSans-6f" transform="scale(0.015625)"/>
       <path d="M 2631 2963 
Q 2534 3019 2420 3045 
Q 2306 3072 2169 3072 
Q 1681 3072 1420 2755 
Q 1159 2438 1159 1844 
L 1159 0 
L 581 0 
L 581 3500 
L 1159 3500 
L 1159 2956 
Q 1341 3275 1631 3429 
Q 1922 3584 2338 3584 
Q 2397 3584 2469 3576 
Q 2541 3569 2628 3553 
L 2631 2963 
z
" id="DejaVuSans-72" transform="scale(0.015625)"/>
       <path d="M 3328 2828 
Q 3544 3216 3844 3400 
Q 4144 3584 4550 3584 
Q 5097 3584 5394 3201 
Q 5691 2819 5691 2113 
L 5691 0 
L 5113 0 
L 5113 2094 
Q 5113 2597 4934 2840 
Q 4756 3084 4391 3084 
Q 3944 3084 3684 2787 
Q 3425 2491 3425 1978 
L 3425 0 
L 2847 0 
L 2847 2094 
Q 2847 2600 2669 2842 
Q 2491 3084 2119 3084 
Q 1678 3084 1418 2786 
Q 1159 2488 1159 1978 
L 1159 0 
L 581 0 
L 581 3500 
L 1159 3500 
L 1159 2956 
Q 1356 3278 1631 3431 
Q 1906 3584 2284 3584 
Q 2666 3584 2933 3390 
Q 3200 3197 3328 2828 
z
" id="DejaVuSans-6d" transform="scale(0.015625)"/>
       <path d="M 2194 1759 
Q 1497 1759 1228 1600 
Q 959 1441 959 1056 
Q 959 750 1161 570 
Q 1363 391 1709 391 
Q 2188 391 2477 730 
Q 2766 1069 2766 1631 
L 2766 1759 
L 2194 1759 
z
M 3341 1997 
L 3341 0 
L 2766 0 
L 2766 531 
Q 2569 213 2275 61 
Q 1981 -91 1556 -91 
Q 1019 -91 701 211 
Q 384 513 384 1019 
Q 384 1609 779 1909 
Q 1175 2209 1959 2209 
L 2766 2209 
L 2766 2266 
Q 2766 2663 2505 2880 
Q 2244 3097 1772 3097 
Q 1472 3097 1187 3025 
Q 903 2953 641 2809 
L 641 3341 
Q 956 3463 1253 3523 
Q 1550 3584 1831 3584 
Q 2591 3584 2966 3190 
Q 3341 2797 3341 1997 
z
" id="DejaVuSans-61" transform="scale(0.015625)"/>
       <path d="M 1984 4856 
Q 1566 4138 1362 3434 
Q 1159 2731 1159 2009 
Q 1159 1288 1364 580 
Q 1569 -128 1984 -844 
L 1484 -844 
Q 1016 -109 783 600 
Q 550 1309 550 2009 
Q 550 2706 781 3412 
Q 1013 4119 1484 4856 
L 1984 4856 
z
" id="DejaVuSans-28" transform="scale(0.015625)"/>
       <path d="M 2906 2969 
L 2906 4863 
L 3481 4863 
L 3481 0 
L 2906 0 
L 2906 525 
Q 2725 213 2448 61 
Q 2172 -91 1784 -91 
Q 1150 -91 751 415 
Q 353 922 353 1747 
Q 353 2572 751 3078 
Q 1150 3584 1784 3584 
Q 2172 3584 2448 3432 
Q 2725 3281 2906 2969 
z
M 947 1747 
Q 947 1113 1208 752 
Q 1469 391 1925 391 
Q 2381 391 2643 752 
Q 2906 1113 2906 1747 
Q 2906 2381 2643 2742 
Q 2381 3103 1925 3103 
Q 1469 3103 1208 2742 
Q 947 2381 947 1747 
z
" id="DejaVuSans-64" transform="scale(0.015625)"/>
       <path d="M 513 4856 
L 1013 4856 
Q 1481 4119 1714 3412 
Q 1947 2706 1947 2009 
Q 1947 1309 1714 600 
Q 1481 -109 1013 -844 
L 513 -844 
Q 928 -128 1133 580 
Q 1338 1288 1338 2009 
Q 1338 2731 1133 3434 
Q 928 4138 513 4856 
z
" id="DejaVuSans-29" transform="scale(0.015625)"/>
      </defs>
      <use xlink:href="#DejaVuSans-41"/>
      <use x="68.408203" xlink:href="#DejaVuSans-6e"/>
      <use x="131.787109" xlink:href="#DejaVuSans-67"/>
      <use x="195.263672" xlink:href="#DejaVuSans-6c"/>
      <use x="223.046875" xlink:href="#DejaVuSans-65"/>
      <use x="284.570312" xlink:href="#DejaVuSans-20"/>
      <use x="316.357422" xlink:href="#DejaVuSans-77"/>
      <use x="398.144531" xlink:href="#DejaVuSans-69"/>
      <use x="425.927734" xlink:href="#DejaVuSans-74"/>
      <use x="465.136719" xlink:href="#DejaVuSans-68"/>
      <use x="528.515625" xlink:href="#DejaVuSans-20"/>
      <use x="560.302734" xlink:href="#DejaVuSans-6e"/>
      <use x="623.681641" xlink:href="#DejaVuSans-6f"/>
      <use x="684.863281" xlink:href="#DejaVuSans-72"/>
      <use x="724.226562" xlink:href="#DejaVuSans-6d"/>
      <use x="821.638672" xlink:href="#DejaVuSans-61"/>
      <use x="882.917969" xlink:href="#DejaVuSans-6c"/>
      <use x="910.701172" xlink:href="#DejaVuSans-20"/>
      <use x="942.488281" xlink:href="#DejaVuSans-28"/>
      <use x="981.501953" xlink:href="#DejaVuSans-72"/>
      <use x="1022.615234" xlink:href="#DejaVuSans-61"/>
      <use x="1083.894531" xlink:href="#DejaVuSans-64"/>
      <use x="1147.371094" xlink:href="#DejaVuSans-29"/>
     </g>
    </g>
   </g>
   <g id="matplotlib.axis_2">
    <g id="ytick_1">
     <g id="line2d_10">
      <defs>
       <path d="M 0 0 
L -3.5 0 
" id="m40d4af1981" style="stroke:#000000;stroke-width:0.8;"/>
      </defs>
      <g>
       <use style="stroke:#000000;stroke-width:0.8;" x="43.78125" xlink:href="#m40d4af1981" y="273.312"/>
      </g>
     </g>
     <g id="text_11">
      <!-- 0.0 -->
      <g transform="translate(20.878125 277.111219)scale(0.1 -0.1)">
       <use xlink:href="#DejaVuSans-30"/>
       <use x="63.623047" xlink:href="#DejaVuSans-2e"/>
       <use x="95.410156" xlink:href="#DejaVuSans-30"/>
      </g>
     </g>
    </g>
    <g id="ytick_2">
     <g id="line2d_11">
      <g>
       <use style="stroke:#000000;stroke-width:0.8;" x="43.78125" xlink:href="#m40d4af1981" y="230.767656"/>
      </g>
     </g>
     <g id="text_12">
      <!-- 0.2 -->
      <g transform="translate(20.878125 234.566875)scale(0.1 -0.1)">
       <use xlink:href="#DejaVuSans-30"/>
       <use x="63.623047" xlink:href="#DejaVuSans-2e"/>
       <use x="95.410156" xlink:href="#DejaVuSans-32"/>
      </g>
     </g>
    </g>
    <g id="ytick_3">
     <g id="line2d_12">
      <g>
       <use style="stroke:#000000;stroke-width:0.8;" x="43.78125" xlink:href="#m40d4af1981" y="188.223312"/>
      </g>
     </g>
     <g id="text_13">
      <!-- 0.4 -->
      <g transform="translate(20.878125 192.022531)scale(0.1 -0.1)">
       <use xlink:href="#DejaVuSans-30"/>
       <use x="63.623047" xlink:href="#DejaVuSans-2e"/>
       <use x="95.410156" xlink:href="#DejaVuSans-34"/>
      </g>
     </g>
    </g>
    <g id="ytick_4">
     <g id="line2d_13">
      <g>
       <use style="stroke:#000000;stroke-width:0.8;" x="43.78125" xlink:href="#m40d4af1981" y="145.678969"/>
      </g>
     </g>
     <g id="text_14">
      <!-- 0.6 -->
      <g transform="translate(20.878125 149.478187)scale(0.1 -0.1)">
       <use xlink:href="#DejaVuSans-30"/>
       <use x="63.623047" xlink:href="#DejaVuSans-2e"/>
       <use x="95.410156" xlink:href="#DejaVuSans-36"/>
      </g>
     </g>
    </g>
    <g id="ytick_5">
     <g id="line2d_14">
      <g>
       <use style="stroke:#000000;stroke-width:0.8;" x="43.78125" xlink:href="#m40d4af1981" y="103.134625"/>
      </g>
     </g>
     <g id="text_15">
      <!-- 0.8 -->
      <g transform="translate(20.878125 106.933843)scale(0.1 -0.1)">
       <use xlink:href="#DejaVuSans-30"/>
       <use x="63.623047" xlink:href="#DejaVuSans-2e"/>
       <use x="95.410156" xlink:href="#DejaVuSans-38"/>
      </g>
     </g>
    </g>
    <g id="ytick_6">
     <g id="line2d_15">
      <g>
       <use style="stroke:#000000;stroke-width:0.8;" x="43.78125" xlink:href="#m40d4af1981" y="60.590281"/>
      </g>
     </g>
     <g id="text_16">
      <!-- 1.0 -->
      <g transform="translate(20.878125 64.3895)scale(0.1 -0.1)">
       <use xlink:href="#DejaVuSans-31"/>
       <use x="63.623047" xlink:href="#DejaVuSans-2e"/>
       <use x="95.410156" xlink:href="#DejaVuSans-30"/>
      </g>
     </g>
    </g>
    <g id="ytick_7">
     <g id="line2d_16">
      <g>
       <use style="stroke:#000000;stroke-width:0.8;" x="43.78125" xlink:href="#m40d4af1981" y="18.045937"/>
      </g>
     </g>
     <g id="text_17">
      <!-- 1.2 -->
      <g transform="translate(20.878125 21.845156)scale(0.1 -0.1)">
       <use xlink:href="#DejaVuSans-31"/>
       <use x="63.623047" xlink:href="#DejaVuSans-2e"/>
       <use x="95.410156" xlink:href="#DejaVuSans-32"/>
      </g>
     </g>
    </g>
    <g id="text_18">
     <!-- Probability density -->
     <g transform="translate(14.798438 186.606781)rotate(-90)scale(0.1 -0.1)">
      <defs>
       <path d="M 1259 4147 
L 1259 2394 
L 2053 2394 
Q 2494 2394 2734 2622 
Q 2975 2850 2975 3272 
Q 2975 3691 2734 3919 
Q 2494 4147 2053 4147 
L 1259 4147 
z
M 628 4666 
L 2053 4666 
Q 2838 4666 3239 4311 
Q 3641 3956 3641 3272 
Q 3641 2581 3239 2228 
Q 2838 1875 2053 1875 
L 1259 1875 
L 1259 0 
L 628 0 
L 628 4666 
z
" id="DejaVuSans-50" transform="scale(0.015625)"/>
       <path d="M 3116 1747 
Q 3116 2381 2855 2742 
Q 2594 3103 2138 3103 
Q 1681 3103 1420 2742 
Q 1159 2381 1159 1747 
Q 1159 1113 1420 752 
Q 1681 391 2138 391 
Q 2594 391 2855 752 
Q 3116 1113 3116 1747 
z
M 1159 2969 
Q 1341 3281 1617 3432 
Q 1894 3584 2278 3584 
Q 2916 3584 3314 3078 
Q 3713 2572 3713 1747 
Q 3713 922 3314 415 
Q 2916 -91 2278 -91 
Q 1894 -91 1617 61 
Q 1341 213 1159 525 
L 1159 0 
L 581 0 
L 581 4863 
L 1159 4863 
L 1159 2969 
z
" id="DejaVuSans-62" transform="scale(0.015625)"/>
       <path d="M 2059 -325 
Q 1816 -950 1584 -1140 
Q 1353 -1331 966 -1331 
L 506 -1331 
L 506 -850 
L 844 -850 
Q 1081 -850 1212 -737 
Q 1344 -625 1503 -206 
L 1606 56 
L 191 3500 
L 800 3500 
L 1894 763 
L 2988 3500 
L 3597 3500 
L 2059 -325 
z
" id="DejaVuSans-79" transform="scale(0.015625)"/>
       <path d="M 2834 3397 
L 2834 2853 
Q 2591 2978 2328 3040 
Q 2066 3103 1784 3103 
Q 1356 3103 1142 2972 
Q 928 2841 928 2578 
Q 928 2378 1081 2264 
Q 1234 2150 1697 2047 
L 1894 2003 
Q 2506 1872 2764 1633 
Q 3022 1394 3022 966 
Q 3022 478 2636 193 
Q 2250 -91 1575 -91 
Q 1294 -91 989 -36 
Q 684 19 347 128 
L 347 722 
Q 666 556 975 473 
Q 1284 391 1588 391 
Q 1994 391 2212 530 
Q 2431 669 2431 922 
Q 2431 1156 2273 1281 
Q 2116 1406 1581 1522 
L 1381 1569 
Q 847 1681 609 1914 
Q 372 2147 372 2553 
Q 372 3047 722 3315 
Q 1072 3584 1716 3584 
Q 2034 3584 2315 3537 
Q 2597 3491 2834 3397 
z
" id="DejaVuSans-73" transform="scale(0.015625)"/>
      </defs>
      <use xlink:href="#DejaVuSans-50"/>
      <use x="58.552734" xlink:href="#DejaVuSans-72"/>
      <use x="97.416016" xlink:href="#DejaVuSans-6f"/>
      <use x="158.597656" xlink:href="#DejaVuSans-62"/>
      <use x="222.074219" xlink:href="#DejaVuSans-61"/>
      <use x="283.353516" xlink:href="#DejaVuSans-62"/>
      <use x="346.830078" xlink:href="#DejaVuSans-69"/>
      <use x="374.613281" xlink:href="#DejaVuSans-6c"/>
      <use x="402.396484" xlink:href="#DejaVuSans-69"/>
      <use x="430.179688" xlink:href="#DejaVuSans-74"/>
      <use x="469.388672" xlink:href="#DejaVuSans-79"/>
      <use x="528.568359" xlink:href="#DejaVuSans-20"/>
      <use x="560.355469" xlink:href="#DejaVuSans-64"/>
      <use x="623.832031" xlink:href="#DejaVuSans-65"/>
      <use x="685.355469" xlink:href="#DejaVuSans-6e"/>
      <use x="748.734375" xlink:href="#DejaVuSans-73"/>
      <use x="800.833984" xlink:href="#DejaVuSans-69"/>
      <use x="828.617188" xlink:href="#DejaVuSans-74"/>
      <use x="867.826172" xlink:href="#DejaVuSans-79"/>
     </g>
    </g>
   </g>
   <g id="line2d_17">
    <path clip-path="url(#paae9183680)" d="M 60.013977 273.312 
L 79.837728 232.755616 
L 90.562053 211.342129 
L 99.3365 194.307784 
L 107.136008 179.640286 
L 114.285558 166.661606 
L 120.785148 155.304019 
L 126.959759 144.945879 
L 132.809391 135.554929 
L 138.334043 127.09039 
L 143.533715 119.505011 
L 148.733388 112.30894 
L 153.60808 105.932406 
L 158.482773 99.92824 
L 163.032487 94.672108 
L 167.5822 89.76218 
L 171.806934 85.521285 
L 176.031668 81.594201 
L 179.931422 78.253416 
L 183.831176 75.190374 
L 187.730931 72.409439 
L 191.630685 69.914568 
L 195.20546 67.881946 
L 198.780234 66.095119 
L 202.355009 64.556226 
L 205.929784 63.267109 
L 209.504559 62.229309 
L 212.754354 61.50499 
L 216.004149 60.990119 
L 219.253945 60.685203 
L 222.50374 60.590544 
L 225.753535 60.706236 
L 229.00333 61.032164 
L 232.253126 61.568007 
L 235.502921 62.313234 
L 239.077696 63.373937 
L 242.65247 64.68583 
L 246.227245 66.247343 
L 249.80202 68.056607 
L 253.376795 70.111459 
L 256.951569 72.409439 
L 260.851324 75.190374 
L 264.751078 78.253416 
L 268.650832 81.594201 
L 272.875566 85.521285 
L 277.1003 89.76218 
L 281.325034 94.309801 
L 285.874747 99.541534 
L 290.42446 105.110035 
L 295.299153 111.437722 
L 300.173846 118.12553 
L 305.373519 125.639347 
L 310.898171 134.03188 
L 316.422822 142.822385 
L 322.272454 152.535822 
L 328.447065 163.20797 
L 335.271635 175.459087 
L 342.421184 188.750213 
L 350.545673 204.341281 
L 359.645099 222.304441 
L 370.694403 244.634564 
L 384.668523 273.312 
L 384.668523 273.312 
" style="fill:none;stroke:#ff7f0e;stroke-linecap:square;stroke-width:1.5;"/>
   </g>
   <g id="patch_203">
    <path d="M 43.78125 273.312 
L 43.78125 7.2 
" style="fill:none;stroke:#000000;stroke-linecap:square;stroke-linejoin:miter;stroke-width:0.8;"/>
   </g>
   <g id="patch_204">
    <path d="M 400.90125 273.312 
L 400.90125 7.2 
" style="fill:none;stroke:#000000;stroke-linecap:square;stroke-linejoin:miter;stroke-width:0.8;"/>
   </g>
   <g id="patch_205">
    <path d="M 43.78125 273.312 
L 400.90125 273.312 
" style="fill:none;stroke:#000000;stroke-linecap:square;stroke-linejoin:miter;stroke-width:0.8;"/>
   </g>
   <g id="patch_206">
    <path d="M 43.78125 7.2 
L 400.90125 7.2 
" style="fill:none;stroke:#000000;stroke-linecap:square;stroke-linejoin:miter;stroke-width:0.8;"/>
   </g>
  </g>
 </g>
 <defs>
  <clipPath id="paae9183680">
   <rect height="266.112" width="357.12" x="43.78125" y="7.2"/>
  </clipPath>
 </defs>
</svg>
