<?xml version="1.0" encoding="utf-8" standalone="no"?>
<!DOCTYPE svg PUBLIC "-//W3C//DTD SVG 1.1//EN"
  "http://www.w3.org/Graphics/SVG/1.1/DTD/svg11.dtd">
<svg height="310.86825pt" version="1.1" viewBox="0 0 408.10125 310.86825" width="408.10125pt" xmlns="http://www.w3.org/2000/svg" xmlns:xlink="http://www.w3.org/1999/xlink">
 <metadata>
  <rdf:RDF xmlns:cc="http://creativecommons.org/ns#" xmlns:dc="http://purl.org/dc/elements/1.1/" xmlns:rdf="http://www.w3.org/1999/02/22-rdf-syntax-ns#">
   <cc:Work>
    <dc:type rdf:resource="http://purl.org/dc/dcmitype/StillImage"/>
    <dc:date>2021-07-08T08:25:41.495808</dc:date>
    <dc:format>image/svg+xml</dc:format>
    <dc:creator>
     <cc:Agent>
      <dc:title>Matplotlib v3.4.2, https://matplotlib.org/</dc:title>
     </cc:Agent>
    </dc:creator>
   </cc:Work>
  </rdf:RDF>
 </metadata>
 <defs>
  <style type="text/css">*{stroke-linecap:butt;stroke-linejoin:round;}</style>
 </defs>
 <g id="figure_1">
  <g id="patch_1">
   <path d="M 0 310.86825 
L 408.10125 310.86825 
L 408.10125 0 
L 0 0 
z
" style="fill:#ffffff;"/>
  </g>
  <g id="axes_1">
   <g id="patch_2">
    <path d="M 43.78125 273.312 
L 400.90125 273.312 
L 400.90125 7.2 
L 43.78125 7.2 
z
" style="fill:#ffffff;"/>
   </g>
   <g id="patch_3">
    <path clip-path="url(#p41fee31b32)" d="M 60.58525 273.312 
L 62.197517 273.312 
L 62.197517 271.133433 
L 60.58525 271.133433 
z
" style="fill:#1f77b4;"/>
   </g>
   <g id="patch_4">
    <path clip-path="url(#p41fee31b32)" d="M 62.197517 273.312 
L 63.809784 273.312 
L 63.809784 268.228676 
L 62.197517 268.228676 
z
" style="fill:#1f77b4;"/>
   </g>
   <g id="patch_5">
    <path clip-path="url(#p41fee31b32)" d="M 63.809784 273.312 
L 65.422051 273.312 
L 65.422051 257.33584 
L 63.809784 257.33584 
z
" style="fill:#1f77b4;"/>
   </g>
   <g id="patch_6">
    <path clip-path="url(#p41fee31b32)" d="M 65.422051 273.312 
L 67.034319 273.312 
L 67.034319 263.145352 
L 65.422051 263.145352 
z
" style="fill:#1f77b4;"/>
   </g>
   <g id="patch_7">
    <path clip-path="url(#p41fee31b32)" d="M 67.034319 273.312 
L 68.646586 273.312 
L 68.646586 258.062029 
L 67.034319 258.062029 
z
" style="fill:#1f77b4;"/>
   </g>
   <g id="patch_8">
    <path clip-path="url(#p41fee31b32)" d="M 68.646586 273.312 
L 70.258853 273.312 
L 70.258853 255.883461 
L 68.646586 255.883461 
z
" style="fill:#1f77b4;"/>
   </g>
   <g id="patch_9">
    <path clip-path="url(#p41fee31b32)" d="M 70.258853 273.312 
L 71.87112 273.312 
L 71.87112 249.347759 
L 70.258853 249.347759 
z
" style="fill:#1f77b4;"/>
   </g>
   <g id="patch_10">
    <path clip-path="url(#p41fee31b32)" d="M 71.87112 273.312 
L 73.483388 273.312 
L 73.483388 242.812057 
L 71.87112 242.812057 
z
" style="fill:#1f77b4;"/>
   </g>
   <g id="patch_11">
    <path clip-path="url(#p41fee31b32)" d="M 73.483388 273.312 
L 75.095655 273.312 
L 75.095655 247.169192 
L 73.483388 247.169192 
z
" style="fill:#1f77b4;"/>
   </g>
   <g id="patch_12">
    <path clip-path="url(#p41fee31b32)" d="M 75.095655 273.312 
L 76.707922 273.312 
L 76.707922 240.63349 
L 75.095655 240.63349 
z
" style="fill:#1f77b4;"/>
   </g>
   <g id="patch_13">
    <path clip-path="url(#p41fee31b32)" d="M 76.707922 273.312 
L 78.320189 273.312 
L 78.320189 236.276355 
L 76.707922 236.276355 
z
" style="fill:#1f77b4;"/>
   </g>
   <g id="patch_14">
    <path clip-path="url(#p41fee31b32)" d="M 78.320189 273.312 
L 79.932457 273.312 
L 79.932457 230.466842 
L 78.320189 230.466842 
z
" style="fill:#1f77b4;"/>
   </g>
   <g id="patch_15">
    <path clip-path="url(#p41fee31b32)" d="M 79.932457 273.312 
L 81.544724 273.312 
L 81.544724 219.574006 
L 79.932457 219.574006 
z
" style="fill:#1f77b4;"/>
   </g>
   <g id="patch_16">
    <path clip-path="url(#p41fee31b32)" d="M 81.544724 273.312 
L 83.156991 273.312 
L 83.156991 222.478762 
L 81.544724 222.478762 
z
" style="fill:#1f77b4;"/>
   </g>
   <g id="patch_17">
    <path clip-path="url(#p41fee31b32)" d="M 83.156991 273.312 
L 84.769258 273.312 
L 84.769258 219.574006 
L 83.156991 219.574006 
z
" style="fill:#1f77b4;"/>
   </g>
   <g id="patch_18">
    <path clip-path="url(#p41fee31b32)" d="M 84.769258 273.312 
L 86.381526 273.312 
L 86.381526 222.478762 
L 84.769258 222.478762 
z
" style="fill:#1f77b4;"/>
   </g>
   <g id="patch_19">
    <path clip-path="url(#p41fee31b32)" d="M 86.381526 273.312 
L 87.993793 273.312 
L 87.993793 207.95498 
L 86.381526 207.95498 
z
" style="fill:#1f77b4;"/>
   </g>
   <g id="patch_20">
    <path clip-path="url(#p41fee31b32)" d="M 87.993793 273.312 
L 89.60606 273.312 
L 89.60606 229.014464 
L 87.993793 229.014464 
z
" style="fill:#1f77b4;"/>
   </g>
   <g id="patch_21">
    <path clip-path="url(#p41fee31b32)" d="M 89.60606 273.312 
L 91.218327 273.312 
L 91.218327 213.764493 
L 89.60606 213.764493 
z
" style="fill:#1f77b4;"/>
   </g>
   <g id="patch_22">
    <path clip-path="url(#p41fee31b32)" d="M 91.218327 273.312 
L 92.830594 273.312 
L 92.830594 197.062143 
L 91.218327 197.062143 
z
" style="fill:#1f77b4;"/>
   </g>
   <g id="patch_23">
    <path clip-path="url(#p41fee31b32)" d="M 92.830594 273.312 
L 94.442862 273.312 
L 94.442862 184.716928 
L 92.830594 184.716928 
z
" style="fill:#1f77b4;"/>
   </g>
   <g id="patch_24">
    <path clip-path="url(#p41fee31b32)" d="M 94.442862 273.312 
L 96.055129 273.312 
L 96.055129 192.705009 
L 94.442862 192.705009 
z
" style="fill:#1f77b4;"/>
   </g>
   <g id="patch_25">
    <path clip-path="url(#p41fee31b32)" d="M 96.055129 273.312 
L 97.667396 273.312 
L 97.667396 184.716928 
L 96.055129 184.716928 
z
" style="fill:#1f77b4;"/>
   </g>
   <g id="patch_26">
    <path clip-path="url(#p41fee31b32)" d="M 97.667396 273.312 
L 99.279663 273.312 
L 99.279663 195.609765 
L 97.667396 195.609765 
z
" style="fill:#1f77b4;"/>
   </g>
   <g id="patch_27">
    <path clip-path="url(#p41fee31b32)" d="M 99.279663 273.312 
L 100.891931 273.312 
L 100.891931 189.074063 
L 99.279663 189.074063 
z
" style="fill:#1f77b4;"/>
   </g>
   <g id="patch_28">
    <path clip-path="url(#p41fee31b32)" d="M 100.891931 273.312 
L 102.504198 273.312 
L 102.504198 184.716928 
L 100.891931 184.716928 
z
" style="fill:#1f77b4;"/>
   </g>
   <g id="patch_29">
    <path clip-path="url(#p41fee31b32)" d="M 102.504198 273.312 
L 104.116465 273.312 
L 104.116465 183.990739 
L 102.504198 183.990739 
z
" style="fill:#1f77b4;"/>
   </g>
   <g id="patch_30">
    <path clip-path="url(#p41fee31b32)" d="M 104.116465 273.312 
L 105.728732 273.312 
L 105.728732 174.550281 
L 104.116465 174.550281 
z
" style="fill:#1f77b4;"/>
   </g>
   <g id="patch_31">
    <path clip-path="url(#p41fee31b32)" d="M 105.728732 273.312 
L 107.341 273.312 
L 107.341 171.645524 
L 105.728732 171.645524 
z
" style="fill:#1f77b4;"/>
   </g>
   <g id="patch_32">
    <path clip-path="url(#p41fee31b32)" d="M 107.341 273.312 
L 108.953267 273.312 
L 108.953267 156.395553 
L 107.341 156.395553 
z
" style="fill:#1f77b4;"/>
   </g>
   <g id="patch_33">
    <path clip-path="url(#p41fee31b32)" d="M 108.953267 273.312 
L 110.565534 273.312 
L 110.565534 176.002659 
L 108.953267 176.002659 
z
" style="fill:#1f77b4;"/>
   </g>
   <g id="patch_34">
    <path clip-path="url(#p41fee31b32)" d="M 110.565534 273.312 
L 112.177801 273.312 
L 112.177801 181.085983 
L 110.565534 181.085983 
z
" style="fill:#1f77b4;"/>
   </g>
   <g id="patch_35">
    <path clip-path="url(#p41fee31b32)" d="M 112.177801 273.312 
L 113.790069 273.312 
L 113.790069 157.847931 
L 112.177801 157.847931 
z
" style="fill:#1f77b4;"/>
   </g>
   <g id="patch_36">
    <path clip-path="url(#p41fee31b32)" d="M 113.790069 273.312 
L 115.402336 273.312 
L 115.402336 171.645524 
L 113.790069 171.645524 
z
" style="fill:#1f77b4;"/>
   </g>
   <g id="patch_37">
    <path clip-path="url(#p41fee31b32)" d="M 115.402336 273.312 
L 117.014603 273.312 
L 117.014603 151.312229 
L 115.402336 151.312229 
z
" style="fill:#1f77b4;"/>
   </g>
   <g id="patch_38">
    <path clip-path="url(#p41fee31b32)" d="M 117.014603 273.312 
L 118.62687 273.312 
L 118.62687 154.216986 
L 117.014603 154.216986 
z
" style="fill:#1f77b4;"/>
   </g>
   <g id="patch_39">
    <path clip-path="url(#p41fee31b32)" d="M 118.62687 273.312 
L 120.239138 273.312 
L 120.239138 152.038418 
L 118.62687 152.038418 
z
" style="fill:#1f77b4;"/>
   </g>
   <g id="patch_40">
    <path clip-path="url(#p41fee31b32)" d="M 120.239138 273.312 
L 121.851405 273.312 
L 121.851405 154.216986 
L 120.239138 154.216986 
z
" style="fill:#1f77b4;"/>
   </g>
   <g id="patch_41">
    <path clip-path="url(#p41fee31b32)" d="M 121.851405 273.312 
L 123.463672 273.312 
L 123.463672 144.050338 
L 121.851405 144.050338 
z
" style="fill:#1f77b4;"/>
   </g>
   <g id="patch_42">
    <path clip-path="url(#p41fee31b32)" d="M 123.463672 273.312 
L 125.075939 273.312 
L 125.075939 162.205066 
L 123.463672 162.205066 
z
" style="fill:#1f77b4;"/>
   </g>
   <g id="patch_43">
    <path clip-path="url(#p41fee31b32)" d="M 125.075939 273.312 
L 126.688207 273.312 
L 126.688207 123.717043 
L 125.075939 123.717043 
z
" style="fill:#1f77b4;"/>
   </g>
   <g id="patch_44">
    <path clip-path="url(#p41fee31b32)" d="M 126.688207 273.312 
L 128.300474 273.312 
L 128.300474 148.407473 
L 126.688207 148.407473 
z
" style="fill:#1f77b4;"/>
   </g>
   <g id="patch_45">
    <path clip-path="url(#p41fee31b32)" d="M 128.300474 273.312 
L 129.912741 273.312 
L 129.912741 117.90753 
L 128.300474 117.90753 
z
" style="fill:#1f77b4;"/>
   </g>
   <g id="patch_46">
    <path clip-path="url(#p41fee31b32)" d="M 129.912741 273.312 
L 131.525008 273.312 
L 131.525008 130.978934 
L 129.912741 130.978934 
z
" style="fill:#1f77b4;"/>
   </g>
   <g id="patch_47">
    <path clip-path="url(#p41fee31b32)" d="M 131.525008 273.312 
L 133.137275 273.312 
L 133.137275 117.90753 
L 131.525008 117.90753 
z
" style="fill:#1f77b4;"/>
   </g>
   <g id="patch_48">
    <path clip-path="url(#p41fee31b32)" d="M 133.137275 273.312 
L 134.749543 273.312 
L 134.749543 101.93137 
L 133.137275 101.93137 
z
" style="fill:#1f77b4;"/>
   </g>
   <g id="patch_49">
    <path clip-path="url(#p41fee31b32)" d="M 134.749543 273.312 
L 136.36181 273.312 
L 136.36181 141.145582 
L 134.749543 141.145582 
z
" style="fill:#1f77b4;"/>
   </g>
   <g id="patch_50">
    <path clip-path="url(#p41fee31b32)" d="M 136.36181 273.312 
L 137.974077 273.312 
L 137.974077 117.181341 
L 136.36181 117.181341 
z
" style="fill:#1f77b4;"/>
   </g>
   <g id="patch_51">
    <path clip-path="url(#p41fee31b32)" d="M 137.974077 273.312 
L 139.586344 273.312 
L 139.586344 117.181341 
L 137.974077 117.181341 
z
" style="fill:#1f77b4;"/>
   </g>
   <g id="patch_52">
    <path clip-path="url(#p41fee31b32)" d="M 139.586344 273.312 
L 141.198612 273.312 
L 141.198612 118.633719 
L 139.586344 118.633719 
z
" style="fill:#1f77b4;"/>
   </g>
   <g id="patch_53">
    <path clip-path="url(#p41fee31b32)" d="M 141.198612 273.312 
L 142.810879 273.312 
L 142.810879 112.824206 
L 141.198612 112.824206 
z
" style="fill:#1f77b4;"/>
   </g>
   <g id="patch_54">
    <path clip-path="url(#p41fee31b32)" d="M 142.810879 273.312 
L 144.423146 273.312 
L 144.423146 130.978934 
L 142.810879 130.978934 
z
" style="fill:#1f77b4;"/>
   </g>
   <g id="patch_55">
    <path clip-path="url(#p41fee31b32)" d="M 144.423146 273.312 
L 146.035413 273.312 
L 146.035413 98.300424 
L 144.423146 98.300424 
z
" style="fill:#1f77b4;"/>
   </g>
   <g id="patch_56">
    <path clip-path="url(#p41fee31b32)" d="M 146.035413 273.312 
L 147.647681 273.312 
L 147.647681 107.014693 
L 146.035413 107.014693 
z
" style="fill:#1f77b4;"/>
   </g>
   <g id="patch_57">
    <path clip-path="url(#p41fee31b32)" d="M 147.647681 273.312 
L 149.259948 273.312 
L 149.259948 125.89561 
L 147.647681 125.89561 
z
" style="fill:#1f77b4;"/>
   </g>
   <g id="patch_58">
    <path clip-path="url(#p41fee31b32)" d="M 149.259948 273.312 
L 150.872215 273.312 
L 150.872215 123.717043 
L 149.259948 123.717043 
z
" style="fill:#1f77b4;"/>
   </g>
   <g id="patch_59">
    <path clip-path="url(#p41fee31b32)" d="M 150.872215 273.312 
L 152.484482 273.312 
L 152.484482 87.407587 
L 150.872215 87.407587 
z
" style="fill:#1f77b4;"/>
   </g>
   <g id="patch_60">
    <path clip-path="url(#p41fee31b32)" d="M 152.484482 273.312 
L 154.09675 273.312 
L 154.09675 79.419507 
L 152.484482 79.419507 
z
" style="fill:#1f77b4;"/>
   </g>
   <g id="patch_61">
    <path clip-path="url(#p41fee31b32)" d="M 154.09675 273.312 
L 155.709017 273.312 
L 155.709017 95.395668 
L 154.09675 95.395668 
z
" style="fill:#1f77b4;"/>
   </g>
   <g id="patch_62">
    <path clip-path="url(#p41fee31b32)" d="M 155.709017 273.312 
L 157.321284 273.312 
L 157.321284 74.336183 
L 155.709017 74.336183 
z
" style="fill:#1f77b4;"/>
   </g>
   <g id="patch_63">
    <path clip-path="url(#p41fee31b32)" d="M 157.321284 273.312 
L 158.933551 273.312 
L 158.933551 83.776642 
L 157.321284 83.776642 
z
" style="fill:#1f77b4;"/>
   </g>
   <g id="patch_64">
    <path clip-path="url(#p41fee31b32)" d="M 158.933551 273.312 
L 160.545819 273.312 
L 160.545819 99.026613 
L 158.933551 99.026613 
z
" style="fill:#1f77b4;"/>
   </g>
   <g id="patch_65">
    <path clip-path="url(#p41fee31b32)" d="M 160.545819 273.312 
L 162.158086 273.312 
L 162.158086 84.502831 
L 160.545819 84.502831 
z
" style="fill:#1f77b4;"/>
   </g>
   <g id="patch_66">
    <path clip-path="url(#p41fee31b32)" d="M 162.158086 273.312 
L 163.770353 273.312 
L 163.770353 67.800481 
L 162.158086 67.800481 
z
" style="fill:#1f77b4;"/>
   </g>
   <g id="patch_67">
    <path clip-path="url(#p41fee31b32)" d="M 163.770353 273.312 
L 165.38262 273.312 
L 165.38262 78.693318 
L 163.770353 78.693318 
z
" style="fill:#1f77b4;"/>
   </g>
   <g id="patch_68">
    <path clip-path="url(#p41fee31b32)" d="M 165.38262 273.312 
L 166.994888 273.312 
L 166.994888 75.788562 
L 165.38262 75.788562 
z
" style="fill:#1f77b4;"/>
   </g>
   <g id="patch_69">
    <path clip-path="url(#p41fee31b32)" d="M 166.994888 273.312 
L 168.607155 273.312 
L 168.607155 85.22902 
L 166.994888 85.22902 
z
" style="fill:#1f77b4;"/>
   </g>
   <g id="patch_70">
    <path clip-path="url(#p41fee31b32)" d="M 168.607155 273.312 
L 170.219422 273.312 
L 170.219422 89.586155 
L 168.607155 89.586155 
z
" style="fill:#1f77b4;"/>
   </g>
   <g id="patch_71">
    <path clip-path="url(#p41fee31b32)" d="M 170.219422 273.312 
L 171.831689 273.312 
L 171.831689 74.336183 
L 170.219422 74.336183 
z
" style="fill:#1f77b4;"/>
   </g>
   <g id="patch_72">
    <path clip-path="url(#p41fee31b32)" d="M 171.831689 273.312 
L 173.443956 273.312 
L 173.443956 93.2171 
L 171.831689 93.2171 
z
" style="fill:#1f77b4;"/>
   </g>
   <g id="patch_73">
    <path clip-path="url(#p41fee31b32)" d="M 173.443956 273.312 
L 175.056224 273.312 
L 175.056224 48.919564 
L 173.443956 48.919564 
z
" style="fill:#1f77b4;"/>
   </g>
   <g id="patch_74">
    <path clip-path="url(#p41fee31b32)" d="M 175.056224 273.312 
L 176.668491 273.312 
L 176.668491 80.145696 
L 175.056224 80.145696 
z
" style="fill:#1f77b4;"/>
   </g>
   <g id="patch_75">
    <path clip-path="url(#p41fee31b32)" d="M 176.668491 273.312 
L 178.280758 273.312 
L 178.280758 59.812401 
L 176.668491 59.812401 
z
" style="fill:#1f77b4;"/>
   </g>
   <g id="patch_76">
    <path clip-path="url(#p41fee31b32)" d="M 178.280758 273.312 
L 179.893025 273.312 
L 179.893025 62.717158 
L 178.280758 62.717158 
z
" style="fill:#1f77b4;"/>
   </g>
   <g id="patch_77">
    <path clip-path="url(#p41fee31b32)" d="M 179.893025 273.312 
L 181.505293 273.312 
L 181.505293 38.026728 
L 179.893025 38.026728 
z
" style="fill:#1f77b4;"/>
   </g>
   <g id="patch_78">
    <path clip-path="url(#p41fee31b32)" d="M 181.505293 273.312 
L 183.11756 273.312 
L 183.11756 47.467186 
L 181.505293 47.467186 
z
" style="fill:#1f77b4;"/>
   </g>
   <g id="patch_79">
    <path clip-path="url(#p41fee31b32)" d="M 183.11756 273.312 
L 184.729827 273.312 
L 184.729827 59.812401 
L 183.11756 59.812401 
z
" style="fill:#1f77b4;"/>
   </g>
   <g id="patch_80">
    <path clip-path="url(#p41fee31b32)" d="M 184.729827 273.312 
L 186.342094 273.312 
L 186.342094 76.514751 
L 184.729827 76.514751 
z
" style="fill:#1f77b4;"/>
   </g>
   <g id="patch_81">
    <path clip-path="url(#p41fee31b32)" d="M 186.342094 273.312 
L 187.954362 273.312 
L 187.954362 69.979049 
L 186.342094 69.979049 
z
" style="fill:#1f77b4;"/>
   </g>
   <g id="patch_82">
    <path clip-path="url(#p41fee31b32)" d="M 187.954362 273.312 
L 189.566629 273.312 
L 189.566629 46.014808 
L 187.954362 46.014808 
z
" style="fill:#1f77b4;"/>
   </g>
   <g id="patch_83">
    <path clip-path="url(#p41fee31b32)" d="M 189.566629 273.312 
L 191.178896 273.312 
L 191.178896 54.729077 
L 189.566629 54.729077 
z
" style="fill:#1f77b4;"/>
   </g>
   <g id="patch_84">
    <path clip-path="url(#p41fee31b32)" d="M 191.178896 273.312 
L 192.791163 273.312 
L 192.791163 35.84816 
L 191.178896 35.84816 
z
" style="fill:#1f77b4;"/>
   </g>
   <g id="patch_85">
    <path clip-path="url(#p41fee31b32)" d="M 192.791163 273.312 
L 194.403431 273.312 
L 194.403431 35.121971 
L 192.791163 35.121971 
z
" style="fill:#1f77b4;"/>
   </g>
   <g id="patch_86">
    <path clip-path="url(#p41fee31b32)" d="M 194.403431 273.312 
L 196.015698 273.312 
L 196.015698 72.157616 
L 194.403431 72.157616 
z
" style="fill:#1f77b4;"/>
   </g>
   <g id="patch_87">
    <path clip-path="url(#p41fee31b32)" d="M 196.015698 273.312 
L 197.627965 273.312 
L 197.627965 64.895725 
L 196.015698 64.895725 
z
" style="fill:#1f77b4;"/>
   </g>
   <g id="patch_88">
    <path clip-path="url(#p41fee31b32)" d="M 197.627965 273.312 
L 199.240232 273.312 
L 199.240232 63.443347 
L 197.627965 63.443347 
z
" style="fill:#1f77b4;"/>
   </g>
   <g id="patch_89">
    <path clip-path="url(#p41fee31b32)" d="M 199.240232 273.312 
L 200.8525 273.312 
L 200.8525 32.943404 
L 199.240232 32.943404 
z
" style="fill:#1f77b4;"/>
   </g>
   <g id="patch_90">
    <path clip-path="url(#p41fee31b32)" d="M 200.8525 273.312 
L 202.464767 273.312 
L 202.464767 45.288619 
L 200.8525 45.288619 
z
" style="fill:#1f77b4;"/>
   </g>
   <g id="patch_91">
    <path clip-path="url(#p41fee31b32)" d="M 202.464767 273.312 
L 204.077034 273.312 
L 204.077034 38.026728 
L 202.464767 38.026728 
z
" style="fill:#1f77b4;"/>
   </g>
   <g id="patch_92">
    <path clip-path="url(#p41fee31b32)" d="M 204.077034 273.312 
L 205.689301 273.312 
L 205.689301 61.990968 
L 204.077034 61.990968 
z
" style="fill:#1f77b4;"/>
   </g>
   <g id="patch_93">
    <path clip-path="url(#p41fee31b32)" d="M 205.689301 273.312 
L 207.301569 273.312 
L 207.301569 49.645754 
L 205.689301 49.645754 
z
" style="fill:#1f77b4;"/>
   </g>
   <g id="patch_94">
    <path clip-path="url(#p41fee31b32)" d="M 207.301569 273.312 
L 208.913836 273.312 
L 208.913836 50.371943 
L 207.301569 50.371943 
z
" style="fill:#1f77b4;"/>
   </g>
   <g id="patch_95">
    <path clip-path="url(#p41fee31b32)" d="M 208.913836 273.312 
L 210.526103 273.312 
L 210.526103 69.979049 
L 208.913836 69.979049 
z
" style="fill:#1f77b4;"/>
   </g>
   <g id="patch_96">
    <path clip-path="url(#p41fee31b32)" d="M 210.526103 273.312 
L 212.13837 273.312 
L 212.13837 57.633834 
L 210.526103 57.633834 
z
" style="fill:#1f77b4;"/>
   </g>
   <g id="patch_97">
    <path clip-path="url(#p41fee31b32)" d="M 212.13837 273.312 
L 213.750637 273.312 
L 213.750637 56.907645 
L 212.13837 56.907645 
z
" style="fill:#1f77b4;"/>
   </g>
   <g id="patch_98">
    <path clip-path="url(#p41fee31b32)" d="M 213.750637 273.312 
L 215.362905 273.312 
L 215.362905 61.990968 
L 213.750637 61.990968 
z
" style="fill:#1f77b4;"/>
   </g>
   <g id="patch_99">
    <path clip-path="url(#p41fee31b32)" d="M 215.362905 273.312 
L 216.975172 273.312 
L 216.975172 20.598189 
L 215.362905 20.598189 
z
" style="fill:#1f77b4;"/>
   </g>
   <g id="patch_100">
    <path clip-path="url(#p41fee31b32)" d="M 216.975172 273.312 
L 218.587439 273.312 
L 218.587439 48.919564 
L 216.975172 48.919564 
z
" style="fill:#1f77b4;"/>
   </g>
   <g id="patch_101">
    <path clip-path="url(#p41fee31b32)" d="M 218.587439 273.312 
L 220.199706 273.312 
L 220.199706 35.84816 
L 218.587439 35.84816 
z
" style="fill:#1f77b4;"/>
   </g>
   <g id="patch_102">
    <path clip-path="url(#p41fee31b32)" d="M 220.199706 273.312 
L 221.811974 273.312 
L 221.811974 36.57435 
L 220.199706 36.57435 
z
" style="fill:#1f77b4;"/>
   </g>
   <g id="patch_103">
    <path clip-path="url(#p41fee31b32)" d="M 221.811974 273.312 
L 223.424241 273.312 
L 223.424241 43.110052 
L 221.811974 43.110052 
z
" style="fill:#1f77b4;"/>
   </g>
   <g id="patch_104">
    <path clip-path="url(#p41fee31b32)" d="M 223.424241 273.312 
L 225.036508 273.312 
L 225.036508 59.812401 
L 223.424241 59.812401 
z
" style="fill:#1f77b4;"/>
   </g>
   <g id="patch_105">
    <path clip-path="url(#p41fee31b32)" d="M 225.036508 273.312 
L 226.648775 273.312 
L 226.648775 55.455266 
L 225.036508 55.455266 
z
" style="fill:#1f77b4;"/>
   </g>
   <g id="patch_106">
    <path clip-path="url(#p41fee31b32)" d="M 226.648775 273.312 
L 228.261043 273.312 
L 228.261043 46.740997 
L 226.648775 46.740997 
z
" style="fill:#1f77b4;"/>
   </g>
   <g id="patch_107">
    <path clip-path="url(#p41fee31b32)" d="M 228.261043 273.312 
L 229.87331 273.312 
L 229.87331 30.764837 
L 228.261043 30.764837 
z
" style="fill:#1f77b4;"/>
   </g>
   <g id="patch_108">
    <path clip-path="url(#p41fee31b32)" d="M 229.87331 273.312 
L 231.485577 273.312 
L 231.485577 30.038648 
L 229.87331 30.038648 
z
" style="fill:#1f77b4;"/>
   </g>
   <g id="patch_109">
    <path clip-path="url(#p41fee31b32)" d="M 231.485577 273.312 
L 233.097844 273.312 
L 233.097844 61.990968 
L 231.485577 61.990968 
z
" style="fill:#1f77b4;"/>
   </g>
   <g id="patch_110">
    <path clip-path="url(#p41fee31b32)" d="M 233.097844 273.312 
L 234.710112 273.312 
L 234.710112 55.455266 
L 233.097844 55.455266 
z
" style="fill:#1f77b4;"/>
   </g>
   <g id="patch_111">
    <path clip-path="url(#p41fee31b32)" d="M 234.710112 273.312 
L 236.322379 273.312 
L 236.322379 43.110052 
L 234.710112 43.110052 
z
" style="fill:#1f77b4;"/>
   </g>
   <g id="patch_112">
    <path clip-path="url(#p41fee31b32)" d="M 236.322379 273.312 
L 237.934646 273.312 
L 237.934646 38.752917 
L 236.322379 38.752917 
z
" style="fill:#1f77b4;"/>
   </g>
   <g id="patch_113">
    <path clip-path="url(#p41fee31b32)" d="M 237.934646 273.312 
L 239.546913 273.312 
L 239.546913 19.872 
L 237.934646 19.872 
z
" style="fill:#1f77b4;"/>
   </g>
   <g id="patch_114">
    <path clip-path="url(#p41fee31b32)" d="M 239.546913 273.312 
L 241.159181 273.312 
L 241.159181 58.360023 
L 239.546913 58.360023 
z
" style="fill:#1f77b4;"/>
   </g>
   <g id="patch_115">
    <path clip-path="url(#p41fee31b32)" d="M 241.159181 273.312 
L 242.771448 273.312 
L 242.771448 64.169536 
L 241.159181 64.169536 
z
" style="fill:#1f77b4;"/>
   </g>
   <g id="patch_116">
    <path clip-path="url(#p41fee31b32)" d="M 242.771448 273.312 
L 244.383715 273.312 
L 244.383715 43.836241 
L 242.771448 43.836241 
z
" style="fill:#1f77b4;"/>
   </g>
   <g id="patch_117">
    <path clip-path="url(#p41fee31b32)" d="M 244.383715 273.312 
L 245.995982 273.312 
L 245.995982 61.264779 
L 244.383715 61.264779 
z
" style="fill:#1f77b4;"/>
   </g>
   <g id="patch_118">
    <path clip-path="url(#p41fee31b32)" d="M 245.995982 273.312 
L 247.60825 273.312 
L 247.60825 57.633834 
L 245.995982 57.633834 
z
" style="fill:#1f77b4;"/>
   </g>
   <g id="patch_119">
    <path clip-path="url(#p41fee31b32)" d="M 247.60825 273.312 
L 249.220517 273.312 
L 249.220517 59.812401 
L 247.60825 59.812401 
z
" style="fill:#1f77b4;"/>
   </g>
   <g id="patch_120">
    <path clip-path="url(#p41fee31b32)" d="M 249.220517 273.312 
L 250.832784 273.312 
L 250.832784 65.621914 
L 249.220517 65.621914 
z
" style="fill:#1f77b4;"/>
   </g>
   <g id="patch_121">
    <path clip-path="url(#p41fee31b32)" d="M 250.832784 273.312 
L 252.445051 273.312 
L 252.445051 54.729077 
L 250.832784 54.729077 
z
" style="fill:#1f77b4;"/>
   </g>
   <g id="patch_122">
    <path clip-path="url(#p41fee31b32)" d="M 252.445051 273.312 
L 254.057318 273.312 
L 254.057318 75.788562 
L 252.445051 75.788562 
z
" style="fill:#1f77b4;"/>
   </g>
   <g id="patch_123">
    <path clip-path="url(#p41fee31b32)" d="M 254.057318 273.312 
L 255.669586 273.312 
L 255.669586 35.121971 
L 254.057318 35.121971 
z
" style="fill:#1f77b4;"/>
   </g>
   <g id="patch_124">
    <path clip-path="url(#p41fee31b32)" d="M 255.669586 273.312 
L 257.281853 273.312 
L 257.281853 55.455266 
L 255.669586 55.455266 
z
" style="fill:#1f77b4;"/>
   </g>
   <g id="patch_125">
    <path clip-path="url(#p41fee31b32)" d="M 257.281853 273.312 
L 258.89412 273.312 
L 258.89412 86.681398 
L 257.281853 86.681398 
z
" style="fill:#1f77b4;"/>
   </g>
   <g id="patch_126">
    <path clip-path="url(#p41fee31b32)" d="M 258.89412 273.312 
L 260.506387 273.312 
L 260.506387 22.776756 
L 258.89412 22.776756 
z
" style="fill:#1f77b4;"/>
   </g>
   <g id="patch_127">
    <path clip-path="url(#p41fee31b32)" d="M 260.506387 273.312 
L 262.118655 273.312 
L 262.118655 40.205295 
L 260.506387 40.205295 
z
" style="fill:#1f77b4;"/>
   </g>
   <g id="patch_128">
    <path clip-path="url(#p41fee31b32)" d="M 262.118655 273.312 
L 263.730922 273.312 
L 263.730922 67.800481 
L 262.118655 67.800481 
z
" style="fill:#1f77b4;"/>
   </g>
   <g id="patch_129">
    <path clip-path="url(#p41fee31b32)" d="M 263.730922 273.312 
L 265.343189 273.312 
L 265.343189 87.407587 
L 263.730922 87.407587 
z
" style="fill:#1f77b4;"/>
   </g>
   <g id="patch_130">
    <path clip-path="url(#p41fee31b32)" d="M 265.343189 273.312 
L 266.955456 273.312 
L 266.955456 73.609994 
L 265.343189 73.609994 
z
" style="fill:#1f77b4;"/>
   </g>
   <g id="patch_131">
    <path clip-path="url(#p41fee31b32)" d="M 266.955456 273.312 
L 268.567724 273.312 
L 268.567724 67.074292 
L 266.955456 67.074292 
z
" style="fill:#1f77b4;"/>
   </g>
   <g id="patch_132">
    <path clip-path="url(#p41fee31b32)" d="M 268.567724 273.312 
L 270.179991 273.312 
L 270.179991 65.621914 
L 268.567724 65.621914 
z
" style="fill:#1f77b4;"/>
   </g>
   <g id="patch_133">
    <path clip-path="url(#p41fee31b32)" d="M 270.179991 273.312 
L 271.792258 273.312 
L 271.792258 63.443347 
L 270.179991 63.443347 
z
" style="fill:#1f77b4;"/>
   </g>
   <g id="patch_134">
    <path clip-path="url(#p41fee31b32)" d="M 271.792258 273.312 
L 273.404525 273.312 
L 273.404525 61.990968 
L 271.792258 61.990968 
z
" style="fill:#1f77b4;"/>
   </g>
   <g id="patch_135">
    <path clip-path="url(#p41fee31b32)" d="M 273.404525 273.312 
L 275.016793 273.312 
L 275.016793 80.871885 
L 273.404525 80.871885 
z
" style="fill:#1f77b4;"/>
   </g>
   <g id="patch_136">
    <path clip-path="url(#p41fee31b32)" d="M 275.016793 273.312 
L 276.62906 273.312 
L 276.62906 69.25286 
L 275.016793 69.25286 
z
" style="fill:#1f77b4;"/>
   </g>
   <g id="patch_137">
    <path clip-path="url(#p41fee31b32)" d="M 276.62906 273.312 
L 278.241327 273.312 
L 278.241327 80.145696 
L 276.62906 80.145696 
z
" style="fill:#1f77b4;"/>
   </g>
   <g id="patch_138">
    <path clip-path="url(#p41fee31b32)" d="M 278.241327 273.312 
L 279.853594 273.312 
L 279.853594 83.776642 
L 278.241327 83.776642 
z
" style="fill:#1f77b4;"/>
   </g>
   <g id="patch_139">
    <path clip-path="url(#p41fee31b32)" d="M 279.853594 273.312 
L 281.465862 273.312 
L 281.465862 80.871885 
L 279.853594 80.871885 
z
" style="fill:#1f77b4;"/>
   </g>
   <g id="patch_140">
    <path clip-path="url(#p41fee31b32)" d="M 281.465862 273.312 
L 283.078129 273.312 
L 283.078129 82.324264 
L 281.465862 82.324264 
z
" style="fill:#1f77b4;"/>
   </g>
   <g id="patch_141">
    <path clip-path="url(#p41fee31b32)" d="M 283.078129 273.312 
L 284.690396 273.312 
L 284.690396 71.431427 
L 283.078129 71.431427 
z
" style="fill:#1f77b4;"/>
   </g>
   <g id="patch_142">
    <path clip-path="url(#p41fee31b32)" d="M 284.690396 273.312 
L 286.302663 273.312 
L 286.302663 83.776642 
L 284.690396 83.776642 
z
" style="fill:#1f77b4;"/>
   </g>
   <g id="patch_143">
    <path clip-path="url(#p41fee31b32)" d="M 286.302663 273.312 
L 287.91493 273.312 
L 287.91493 86.681398 
L 286.302663 86.681398 
z
" style="fill:#1f77b4;"/>
   </g>
   <g id="patch_144">
    <path clip-path="url(#p41fee31b32)" d="M 287.91493 273.312 
L 289.527198 273.312 
L 289.527198 112.098017 
L 287.91493 112.098017 
z
" style="fill:#1f77b4;"/>
   </g>
   <g id="patch_145">
    <path clip-path="url(#p41fee31b32)" d="M 289.527198 273.312 
L 291.139465 273.312 
L 291.139465 108.467072 
L 289.527198 108.467072 
z
" style="fill:#1f77b4;"/>
   </g>
   <g id="patch_146">
    <path clip-path="url(#p41fee31b32)" d="M 291.139465 273.312 
L 292.751732 273.312 
L 292.751732 98.300424 
L 291.139465 98.300424 
z
" style="fill:#1f77b4;"/>
   </g>
   <g id="patch_147">
    <path clip-path="url(#p41fee31b32)" d="M 292.751732 273.312 
L 294.363999 273.312 
L 294.363999 101.205181 
L 292.751732 101.205181 
z
" style="fill:#1f77b4;"/>
   </g>
   <g id="patch_148">
    <path clip-path="url(#p41fee31b32)" d="M 294.363999 273.312 
L 295.976267 273.312 
L 295.976267 84.502831 
L 294.363999 84.502831 
z
" style="fill:#1f77b4;"/>
   </g>
   <g id="patch_149">
    <path clip-path="url(#p41fee31b32)" d="M 295.976267 273.312 
L 297.588534 273.312 
L 297.588534 95.395668 
L 295.976267 95.395668 
z
" style="fill:#1f77b4;"/>
   </g>
   <g id="patch_150">
    <path clip-path="url(#p41fee31b32)" d="M 297.588534 273.312 
L 299.200801 273.312 
L 299.200801 125.89561 
L 297.588534 125.89561 
z
" style="fill:#1f77b4;"/>
   </g>
   <g id="patch_151">
    <path clip-path="url(#p41fee31b32)" d="M 299.200801 273.312 
L 300.813068 273.312 
L 300.813068 106.288504 
L 299.200801 106.288504 
z
" style="fill:#1f77b4;"/>
   </g>
   <g id="patch_152">
    <path clip-path="url(#p41fee31b32)" d="M 300.813068 273.312 
L 302.425336 273.312 
L 302.425336 123.717043 
L 300.813068 123.717043 
z
" style="fill:#1f77b4;"/>
   </g>
   <g id="patch_153">
    <path clip-path="url(#p41fee31b32)" d="M 302.425336 273.312 
L 304.037603 273.312 
L 304.037603 113.550395 
L 302.425336 113.550395 
z
" style="fill:#1f77b4;"/>
   </g>
   <g id="patch_154">
    <path clip-path="url(#p41fee31b32)" d="M 304.037603 273.312 
L 305.64987 273.312 
L 305.64987 109.91945 
L 304.037603 109.91945 
z
" style="fill:#1f77b4;"/>
   </g>
   <g id="patch_155">
    <path clip-path="url(#p41fee31b32)" d="M 305.64987 273.312 
L 307.262137 273.312 
L 307.262137 125.89561 
L 305.64987 125.89561 
z
" style="fill:#1f77b4;"/>
   </g>
   <g id="patch_156">
    <path clip-path="url(#p41fee31b32)" d="M 307.262137 273.312 
L 308.874405 273.312 
L 308.874405 126.621799 
L 307.262137 126.621799 
z
" style="fill:#1f77b4;"/>
   </g>
   <g id="patch_157">
    <path clip-path="url(#p41fee31b32)" d="M 308.874405 273.312 
L 310.486672 273.312 
L 310.486672 131.705123 
L 308.874405 131.705123 
z
" style="fill:#1f77b4;"/>
   </g>
   <g id="patch_158">
    <path clip-path="url(#p41fee31b32)" d="M 310.486672 273.312 
L 312.098939 273.312 
L 312.098939 137.514636 
L 310.486672 137.514636 
z
" style="fill:#1f77b4;"/>
   </g>
   <g id="patch_159">
    <path clip-path="url(#p41fee31b32)" d="M 312.098939 273.312 
L 313.711206 273.312 
L 313.711206 124.443232 
L 312.098939 124.443232 
z
" style="fill:#1f77b4;"/>
   </g>
   <g id="patch_160">
    <path clip-path="url(#p41fee31b32)" d="M 313.711206 273.312 
L 315.323474 273.312 
L 315.323474 138.240825 
L 313.711206 138.240825 
z
" style="fill:#1f77b4;"/>
   </g>
   <g id="patch_161">
    <path clip-path="url(#p41fee31b32)" d="M 315.323474 273.312 
L 316.935741 273.312 
L 316.935741 140.419393 
L 315.323474 140.419393 
z
" style="fill:#1f77b4;"/>
   </g>
   <g id="patch_162">
    <path clip-path="url(#p41fee31b32)" d="M 316.935741 273.312 
L 318.548008 273.312 
L 318.548008 136.062258 
L 316.935741 136.062258 
z
" style="fill:#1f77b4;"/>
   </g>
   <g id="patch_163">
    <path clip-path="url(#p41fee31b32)" d="M 318.548008 273.312 
L 320.160275 273.312 
L 320.160275 136.788447 
L 318.548008 136.788447 
z
" style="fill:#1f77b4;"/>
   </g>
   <g id="patch_164">
    <path clip-path="url(#p41fee31b32)" d="M 320.160275 273.312 
L 321.772543 273.312 
L 321.772543 137.514636 
L 320.160275 137.514636 
z
" style="fill:#1f77b4;"/>
   </g>
   <g id="patch_165">
    <path clip-path="url(#p41fee31b32)" d="M 321.772543 273.312 
L 323.38481 273.312 
L 323.38481 154.216986 
L 321.772543 154.216986 
z
" style="fill:#1f77b4;"/>
   </g>
   <g id="patch_166">
    <path clip-path="url(#p41fee31b32)" d="M 323.38481 273.312 
L 324.997077 273.312 
L 324.997077 154.216986 
L 323.38481 154.216986 
z
" style="fill:#1f77b4;"/>
   </g>
   <g id="patch_167">
    <path clip-path="url(#p41fee31b32)" d="M 324.997077 273.312 
L 326.609344 273.312 
L 326.609344 141.871771 
L 324.997077 141.871771 
z
" style="fill:#1f77b4;"/>
   </g>
   <g id="patch_168">
    <path clip-path="url(#p41fee31b32)" d="M 326.609344 273.312 
L 328.221611 273.312 
L 328.221611 142.59796 
L 326.609344 142.59796 
z
" style="fill:#1f77b4;"/>
   </g>
   <g id="patch_169">
    <path clip-path="url(#p41fee31b32)" d="M 328.221611 273.312 
L 329.833879 273.312 
L 329.833879 161.478877 
L 328.221611 161.478877 
z
" style="fill:#1f77b4;"/>
   </g>
   <g id="patch_170">
    <path clip-path="url(#p41fee31b32)" d="M 329.833879 273.312 
L 331.446146 273.312 
L 331.446146 170.919335 
L 329.833879 170.919335 
z
" style="fill:#1f77b4;"/>
   </g>
   <g id="patch_171">
    <path clip-path="url(#p41fee31b32)" d="M 331.446146 273.312 
L 333.058413 273.312 
L 333.058413 177.455037 
L 331.446146 177.455037 
z
" style="fill:#1f77b4;"/>
   </g>
   <g id="patch_172">
    <path clip-path="url(#p41fee31b32)" d="M 333.058413 273.312 
L 334.67068 273.312 
L 334.67068 165.109822 
L 333.058413 165.109822 
z
" style="fill:#1f77b4;"/>
   </g>
   <g id="patch_173">
    <path clip-path="url(#p41fee31b32)" d="M 334.67068 273.312 
L 336.282948 273.312 
L 336.282948 152.764607 
L 334.67068 152.764607 
z
" style="fill:#1f77b4;"/>
   </g>
   <g id="patch_174">
    <path clip-path="url(#p41fee31b32)" d="M 336.282948 273.312 
L 337.895215 273.312 
L 337.895215 187.621685 
L 336.282948 187.621685 
z
" style="fill:#1f77b4;"/>
   </g>
   <g id="patch_175">
    <path clip-path="url(#p41fee31b32)" d="M 337.895215 273.312 
L 339.507482 273.312 
L 339.507482 184.716928 
L 337.895215 184.716928 
z
" style="fill:#1f77b4;"/>
   </g>
   <g id="patch_176">
    <path clip-path="url(#p41fee31b32)" d="M 339.507482 273.312 
L 341.119749 273.312 
L 341.119749 179.633605 
L 339.507482 179.633605 
z
" style="fill:#1f77b4;"/>
   </g>
   <g id="patch_177">
    <path clip-path="url(#p41fee31b32)" d="M 341.119749 273.312 
L 342.732017 273.312 
L 342.732017 170.919335 
L 341.119749 170.919335 
z
" style="fill:#1f77b4;"/>
   </g>
   <g id="patch_178">
    <path clip-path="url(#p41fee31b32)" d="M 342.732017 273.312 
L 344.344284 273.312 
L 344.344284 181.812172 
L 342.732017 181.812172 
z
" style="fill:#1f77b4;"/>
   </g>
   <g id="patch_179">
    <path clip-path="url(#p41fee31b32)" d="M 344.344284 273.312 
L 345.956551 273.312 
L 345.956551 198.514521 
L 344.344284 198.514521 
z
" style="fill:#1f77b4;"/>
   </g>
   <g id="patch_180">
    <path clip-path="url(#p41fee31b32)" d="M 345.956551 273.312 
L 347.568818 273.312 
L 347.568818 182.538361 
L 345.956551 182.538361 
z
" style="fill:#1f77b4;"/>
   </g>
   <g id="patch_181">
    <path clip-path="url(#p41fee31b32)" d="M 347.568818 273.312 
L 349.181086 273.312 
L 349.181086 204.324034 
L 347.568818 204.324034 
z
" style="fill:#1f77b4;"/>
   </g>
   <g id="patch_182">
    <path clip-path="url(#p41fee31b32)" d="M 349.181086 273.312 
L 350.793353 273.312 
L 350.793353 188.347874 
L 349.181086 188.347874 
z
" style="fill:#1f77b4;"/>
   </g>
   <g id="patch_183">
    <path clip-path="url(#p41fee31b32)" d="M 350.793353 273.312 
L 352.40562 273.312 
L 352.40562 211.585926 
L 350.793353 211.585926 
z
" style="fill:#1f77b4;"/>
   </g>
   <g id="patch_184">
    <path clip-path="url(#p41fee31b32)" d="M 352.40562 273.312 
L 354.017887 273.312 
L 354.017887 202.871656 
L 352.40562 202.871656 
z
" style="fill:#1f77b4;"/>
   </g>
   <g id="patch_185">
    <path clip-path="url(#p41fee31b32)" d="M 354.017887 273.312 
L 355.630155 273.312 
L 355.630155 194.883576 
L 354.017887 194.883576 
z
" style="fill:#1f77b4;"/>
   </g>
   <g id="patch_186">
    <path clip-path="url(#p41fee31b32)" d="M 355.630155 273.312 
L 357.242422 273.312 
L 357.242422 198.514521 
L 355.630155 198.514521 
z
" style="fill:#1f77b4;"/>
   </g>
   <g id="patch_187">
    <path clip-path="url(#p41fee31b32)" d="M 357.242422 273.312 
L 358.854689 273.312 
L 358.854689 215.94306 
L 357.242422 215.94306 
z
" style="fill:#1f77b4;"/>
   </g>
   <g id="patch_188">
    <path clip-path="url(#p41fee31b32)" d="M 358.854689 273.312 
L 360.466956 273.312 
L 360.466956 218.121628 
L 358.854689 218.121628 
z
" style="fill:#1f77b4;"/>
   </g>
   <g id="patch_189">
    <path clip-path="url(#p41fee31b32)" d="M 360.466956 273.312 
L 362.079224 273.312 
L 362.079224 221.752573 
L 360.466956 221.752573 
z
" style="fill:#1f77b4;"/>
   </g>
   <g id="patch_190">
    <path clip-path="url(#p41fee31b32)" d="M 362.079224 273.312 
L 363.691491 273.312 
L 363.691491 234.823977 
L 362.079224 234.823977 
z
" style="fill:#1f77b4;"/>
   </g>
   <g id="patch_191">
    <path clip-path="url(#p41fee31b32)" d="M 363.691491 273.312 
L 365.303758 273.312 
L 365.303758 224.65733 
L 363.691491 224.65733 
z
" style="fill:#1f77b4;"/>
   </g>
   <g id="patch_192">
    <path clip-path="url(#p41fee31b32)" d="M 365.303758 273.312 
L 366.916025 273.312 
L 366.916025 241.359679 
L 365.303758 241.359679 
z
" style="fill:#1f77b4;"/>
   </g>
   <g id="patch_193">
    <path clip-path="url(#p41fee31b32)" d="M 366.916025 273.312 
L 368.528292 273.312 
L 368.528292 231.919221 
L 366.916025 231.919221 
z
" style="fill:#1f77b4;"/>
   </g>
   <g id="patch_194">
    <path clip-path="url(#p41fee31b32)" d="M 368.528292 273.312 
L 370.14056 273.312 
L 370.14056 242.812057 
L 368.528292 242.812057 
z
" style="fill:#1f77b4;"/>
   </g>
   <g id="patch_195">
    <path clip-path="url(#p41fee31b32)" d="M 370.14056 273.312 
L 371.752827 273.312 
L 371.752827 242.085868 
L 370.14056 242.085868 
z
" style="fill:#1f77b4;"/>
   </g>
   <g id="patch_196">
    <path clip-path="url(#p41fee31b32)" d="M 371.752827 273.312 
L 373.365094 273.312 
L 373.365094 245.716814 
L 371.752827 245.716814 
z
" style="fill:#1f77b4;"/>
   </g>
   <g id="patch_197">
    <path clip-path="url(#p41fee31b32)" d="M 373.365094 273.312 
L 374.977361 273.312 
L 374.977361 237.728734 
L 373.365094 237.728734 
z
" style="fill:#1f77b4;"/>
   </g>
   <g id="patch_198">
    <path clip-path="url(#p41fee31b32)" d="M 374.977361 273.312 
L 376.589629 273.312 
L 376.589629 251.526327 
L 374.977361 251.526327 
z
" style="fill:#1f77b4;"/>
   </g>
   <g id="patch_199">
    <path clip-path="url(#p41fee31b32)" d="M 376.589629 273.312 
L 378.201896 273.312 
L 378.201896 258.788218 
L 376.589629 258.788218 
z
" style="fill:#1f77b4;"/>
   </g>
   <g id="patch_200">
    <path clip-path="url(#p41fee31b32)" d="M 378.201896 273.312 
L 379.814163 273.312 
L 379.814163 261.692974 
L 378.201896 261.692974 
z
" style="fill:#1f77b4;"/>
   </g>
   <g id="patch_201">
    <path clip-path="url(#p41fee31b32)" d="M 379.814163 273.312 
L 381.42643 273.312 
L 381.42643 266.050109 
L 379.814163 266.050109 
z
" style="fill:#1f77b4;"/>
   </g>
   <g id="patch_202">
    <path clip-path="url(#p41fee31b32)" d="M 381.42643 273.312 
L 383.038698 273.312 
L 383.038698 266.050109 
L 381.42643 266.050109 
z
" style="fill:#1f77b4;"/>
   </g>
   <g id="matplotlib.axis_1">
    <g id="xtick_1">
     <g id="line2d_1">
      <defs>
       <path d="M 0 0 
L 0 3.5 
" id="m0e33050a01" style="stroke:#000000;stroke-width:0.8;"/>
      </defs>
      <g>
       <use style="stroke:#000000;stroke-width:0.8;" x="60.013977" xlink:href="#m0e33050a01" y="273.312"/>
      </g>
     </g>
     <g id="text_1">
      <!-- 0.0 -->
      <g transform="translate(52.062415 287.910437)scale(0.1 -0.1)">
       <defs>
        <path d="M 2034 4250 
Q 1547 4250 1301 3770 
Q 1056 3291 1056 2328 
Q 1056 1369 1301 889 
Q 1547 409 2034 409 
Q 2525 409 2770 889 
Q 3016 1369 3016 2328 
Q 3016 3291 2770 3770 
Q 2525 4250 2034 4250 
z
M 2034 4750 
Q 2819 4750 3233 4129 
Q 3647 3509 3647 2328 
Q 3647 1150 3233 529 
Q 2819 -91 2034 -91 
Q 1250 -91 836 529 
Q 422 1150 422 2328 
Q 422 3509 836 4129 
Q 1250 4750 2034 4750 
z
" id="DejaVuSans-30" transform="scale(0.015625)"/>
        <path d="M 684 794 
L 1344 794 
L 1344 0 
L 684 0 
L 684 794 
z
" id="DejaVuSans-2e" transform="scale(0.015625)"/>
       </defs>
       <use xlink:href="#DejaVuSans-30"/>
       <use x="63.623047" xlink:href="#DejaVuSans-2e"/>
       <use x="95.410156" xlink:href="#DejaVuSans-30"/>
      </g>
     </g>
    </g>
    <g id="xtick_2">
     <g id="line2d_2">
      <g>
       <use style="stroke:#000000;stroke-width:0.8;" x="101.350278" xlink:href="#m0e33050a01" y="273.312"/>
      </g>
     </g>
     <g id="text_2">
      <!-- 0.2 -->
      <g transform="translate(93.398715 287.910437)scale(0.1 -0.1)">
       <defs>
        <path d="M 1228 531 
L 3431 531 
L 3431 0 
L 469 0 
L 469 531 
Q 828 903 1448 1529 
Q 2069 2156 2228 2338 
Q 2531 2678 2651 2914 
Q 2772 3150 2772 3378 
Q 2772 3750 2511 3984 
Q 2250 4219 1831 4219 
Q 1534 4219 1204 4116 
Q 875 4013 500 3803 
L 500 4441 
Q 881 4594 1212 4672 
Q 1544 4750 1819 4750 
Q 2544 4750 2975 4387 
Q 3406 4025 3406 3419 
Q 3406 3131 3298 2873 
Q 3191 2616 2906 2266 
Q 2828 2175 2409 1742 
Q 1991 1309 1228 531 
z
" id="DejaVuSans-32" transform="scale(0.015625)"/>
       </defs>
       <use xlink:href="#DejaVuSans-30"/>
       <use x="63.623047" xlink:href="#DejaVuSans-2e"/>
       <use x="95.410156" xlink:href="#DejaVuSans-32"/>
      </g>
     </g>
    </g>
    <g id="xtick_3">
     <g id="line2d_3">
      <g>
       <use style="stroke:#000000;stroke-width:0.8;" x="142.686578" xlink:href="#m0e33050a01" y="273.312"/>
      </g>
     </g>
     <g id="text_3">
      <!-- 0.4 -->
      <g transform="translate(134.735016 287.910437)scale(0.1 -0.1)">
       <defs>
        <path d="M 2419 4116 
L 825 1625 
L 2419 1625 
L 2419 4116 
z
M 2253 4666 
L 3047 4666 
L 3047 1625 
L 3713 1625 
L 3713 1100 
L 3047 1100 
L 3047 0 
L 2419 0 
L 2419 1100 
L 313 1100 
L 313 1709 
L 2253 4666 
z
" id="DejaVuSans-34" transform="scale(0.015625)"/>
       </defs>
       <use xlink:href="#DejaVuSans-30"/>
       <use x="63.623047" xlink:href="#DejaVuSans-2e"/>
       <use x="95.410156" xlink:href="#DejaVuSans-34"/>
      </g>
     </g>
    </g>
    <g id="xtick_4">
     <g id="line2d_4">
      <g>
       <use style="stroke:#000000;stroke-width:0.8;" x="184.022879" xlink:href="#m0e33050a01" y="273.312"/>
      </g>
     </g>
     <g id="text_4">
      <!-- 0.6 -->
      <g transform="translate(176.071316 287.910437)scale(0.1 -0.1)">
       <defs>
        <path d="M 2113 2584 
Q 1688 2584 1439 2293 
Q 1191 2003 1191 1497 
Q 1191 994 1439 701 
Q 1688 409 2113 409 
Q 2538 409 2786 701 
Q 3034 994 3034 1497 
Q 3034 2003 2786 2293 
Q 2538 2584 2113 2584 
z
M 3366 4563 
L 3366 3988 
Q 3128 4100 2886 4159 
Q 2644 4219 2406 4219 
Q 1781 4219 1451 3797 
Q 1122 3375 1075 2522 
Q 1259 2794 1537 2939 
Q 1816 3084 2150 3084 
Q 2853 3084 3261 2657 
Q 3669 2231 3669 1497 
Q 3669 778 3244 343 
Q 2819 -91 2113 -91 
Q 1303 -91 875 529 
Q 447 1150 447 2328 
Q 447 3434 972 4092 
Q 1497 4750 2381 4750 
Q 2619 4750 2861 4703 
Q 3103 4656 3366 4563 
z
" id="DejaVuSans-36" transform="scale(0.015625)"/>
       </defs>
       <use xlink:href="#DejaVuSans-30"/>
       <use x="63.623047" xlink:href="#DejaVuSans-2e"/>
       <use x="95.410156" xlink:href="#DejaVuSans-36"/>
      </g>
     </g>
    </g>
    <g id="xtick_5">
     <g id="line2d_5">
      <g>
       <use style="stroke:#000000;stroke-width:0.8;" x="225.35918" xlink:href="#m0e33050a01" y="273.312"/>
      </g>
     </g>
     <g id="text_5">
      <!-- 0.8 -->
      <g transform="translate(217.407617 287.910437)scale(0.1 -0.1)">
       <defs>
        <path d="M 2034 2216 
Q 1584 2216 1326 1975 
Q 1069 1734 1069 1313 
Q 1069 891 1326 650 
Q 1584 409 2034 409 
Q 2484 409 2743 651 
Q 3003 894 3003 1313 
Q 3003 1734 2745 1975 
Q 2488 2216 2034 2216 
z
M 1403 2484 
Q 997 2584 770 2862 
Q 544 3141 544 3541 
Q 544 4100 942 4425 
Q 1341 4750 2034 4750 
Q 2731 4750 3128 4425 
Q 3525 4100 3525 3541 
Q 3525 3141 3298 2862 
Q 3072 2584 2669 2484 
Q 3125 2378 3379 2068 
Q 3634 1759 3634 1313 
Q 3634 634 3220 271 
Q 2806 -91 2034 -91 
Q 1263 -91 848 271 
Q 434 634 434 1313 
Q 434 1759 690 2068 
Q 947 2378 1403 2484 
z
M 1172 3481 
Q 1172 3119 1398 2916 
Q 1625 2713 2034 2713 
Q 2441 2713 2670 2916 
Q 2900 3119 2900 3481 
Q 2900 3844 2670 4047 
Q 2441 4250 2034 4250 
Q 1625 4250 1398 4047 
Q 1172 3844 1172 3481 
z
" id="DejaVuSans-38" transform="scale(0.015625)"/>
       </defs>
       <use xlink:href="#DejaVuSans-30"/>
       <use x="63.623047" xlink:href="#DejaVuSans-2e"/>
       <use x="95.410156" xlink:href="#DejaVuSans-38"/>
      </g>
     </g>
    </g>
    <g id="xtick_6">
     <g id="line2d_6">
      <g>
       <use style="stroke:#000000;stroke-width:0.8;" x="266.69548" xlink:href="#m0e33050a01" y="273.312"/>
      </g>
     </g>
     <g id="text_6">
      <!-- 1.0 -->
      <g transform="translate(258.743918 287.910437)scale(0.1 -0.1)">
       <defs>
        <path d="M 794 531 
L 1825 531 
L 1825 4091 
L 703 3866 
L 703 4441 
L 1819 4666 
L 2450 4666 
L 2450 531 
L 3481 531 
L 3481 0 
L 794 0 
L 794 531 
z
" id="DejaVuSans-31" transform="scale(0.015625)"/>
       </defs>
       <use xlink:href="#DejaVuSans-31"/>
       <use x="63.623047" xlink:href="#DejaVuSans-2e"/>
       <use x="95.410156" xlink:href="#DejaVuSans-30"/>
      </g>
     </g>
    </g>
    <g id="xtick_7">
     <g id="line2d_7">
      <g>
       <use style="stroke:#000000;stroke-width:0.8;" x="308.031781" xlink:href="#m0e33050a01" y="273.312"/>
      </g>
     </g>
     <g id="text_7">
      <!-- 1.2 -->
      <g transform="translate(300.080218 287.910437)scale(0.1 -0.1)">
       <use xlink:href="#DejaVuSans-31"/>
       <use x="63.623047" xlink:href="#DejaVuSans-2e"/>
       <use x="95.410156" xlink:href="#DejaVuSans-32"/>
      </g>
     </g>
    </g>
    <g id="xtick_8">
     <g id="line2d_8">
      <g>
       <use style="stroke:#000000;stroke-width:0.8;" x="349.368081" xlink:href="#m0e33050a01" y="273.312"/>
      </g>
     </g>
     <g id="text_8">
      <!-- 1.4 -->
      <g transform="translate(341.416519 287.910437)scale(0.1 -0.1)">
       <use xlink:href="#DejaVuSans-31"/>
       <use x="63.623047" xlink:href="#DejaVuSans-2e"/>
       <use x="95.410156" xlink:href="#DejaVuSans-34"/>
      </g>
     </g>
    </g>
    <g id="xtick_9">
     <g id="line2d_9">
      <g>
       <use style="stroke:#000000;stroke-width:0.8;" x="390.704382" xlink:href="#m0e33050a01" y="273.312"/>
      </g>
     </g>
     <g id="text_9">
      <!-- 1.6 -->
      <g transform="translate(382.752819 287.910437)scale(0.1 -0.1)">
       <use xlink:href="#DejaVuSans-31"/>
       <use x="63.623047" xlink:href="#DejaVuSans-2e"/>
       <use x="95.410156" xlink:href="#DejaVuSans-36"/>
      </g>
     </g>
    </g>
    <g id="text_10">
     <!-- Angle with normal (rad) -->
     <g transform="translate(163.023281 301.588562)scale(0.1 -0.1)">
      <defs>
       <path d="M 2188 4044 
L 1331 1722 
L 3047 1722 
L 2188 4044 
z
M 1831 4666 
L 2547 4666 
L 4325 0 
L 3669 0 
L 3244 1197 
L 1141 1197 
L 716 0 
L 50 0 
L 1831 4666 
z
" id="DejaVuSans-41" transform="scale(0.015625)"/>
       <path d="M 3513 2113 
L 3513 0 
L 2938 0 
L 2938 2094 
Q 2938 2591 2744 2837 
Q 2550 3084 2163 3084 
Q 1697 3084 1428 2787 
Q 1159 2491 1159 1978 
L 1159 0 
L 581 0 
L 581 3500 
L 1159 3500 
L 1159 2956 
Q 1366 3272 1645 3428 
Q 1925 3584 2291 3584 
Q 2894 3584 3203 3211 
Q 3513 2838 3513 2113 
z
" id="DejaVuSans-6e" transform="scale(0.015625)"/>
       <path d="M 2906 1791 
Q 2906 2416 2648 2759 
Q 2391 3103 1925 3103 
Q 1463 3103 1205 2759 
Q 947 2416 947 1791 
Q 947 1169 1205 825 
Q 1463 481 1925 481 
Q 2391 481 2648 825 
Q 2906 1169 2906 1791 
z
M 3481 434 
Q 3481 -459 3084 -895 
Q 2688 -1331 1869 -1331 
Q 1566 -1331 1297 -1286 
Q 1028 -1241 775 -1147 
L 775 -588 
Q 1028 -725 1275 -790 
Q 1522 -856 1778 -856 
Q 2344 -856 2625 -561 
Q 2906 -266 2906 331 
L 2906 616 
Q 2728 306 2450 153 
Q 2172 0 1784 0 
Q 1141 0 747 490 
Q 353 981 353 1791 
Q 353 2603 747 3093 
Q 1141 3584 1784 3584 
Q 2172 3584 2450 3431 
Q 2728 3278 2906 2969 
L 2906 3500 
L 3481 3500 
L 3481 434 
z
" id="DejaVuSans-67" transform="scale(0.015625)"/>
       <path d="M 603 4863 
L 1178 4863 
L 1178 0 
L 603 0 
L 603 4863 
z
" id="DejaVuSans-6c" transform="scale(0.015625)"/>
       <path d="M 3597 1894 
L 3597 1613 
L 953 1613 
Q 991 1019 1311 708 
Q 1631 397 2203 397 
Q 2534 397 2845 478 
Q 3156 559 3463 722 
L 3463 178 
Q 3153 47 2828 -22 
Q 2503 -91 2169 -91 
Q 1331 -91 842 396 
Q 353 884 353 1716 
Q 353 2575 817 3079 
Q 1281 3584 2069 3584 
Q 2775 3584 3186 3129 
Q 3597 2675 3597 1894 
z
M 3022 2063 
Q 3016 2534 2758 2815 
Q 2500 3097 2075 3097 
Q 1594 3097 1305 2825 
Q 1016 2553 972 2059 
L 3022 2063 
z
" id="DejaVuSans-65" transform="scale(0.015625)"/>
       <path id="DejaVuSans-20" transform="scale(0.015625)"/>
       <path d="M 269 3500 
L 844 3500 
L 1563 769 
L 2278 3500 
L 2956 3500 
L 3675 769 
L 4391 3500 
L 4966 3500 
L 4050 0 
L 3372 0 
L 2619 2869 
L 1863 0 
L 1184 0 
L 269 3500 
z
" id="DejaVuSans-77" transform="scale(0.015625)"/>
       <path d="M 603 3500 
L 1178 3500 
L 1178 0 
L 603 0 
L 603 3500 
z
M 603 4863 
L 1178 4863 
L 1178 4134 
L 603 4134 
L 603 4863 
z
" id="DejaVuSans-69" transform="scale(0.015625)"/>
       <path d="M 1172 4494 
L 1172 3500 
L 2356 3500 
L 2356 3053 
L 1172 3053 
L 1172 1153 
Q 1172 725 1289 603 
Q 1406 481 1766 481 
L 2356 481 
L 2356 0 
L 1766 0 
Q 1100 0 847 248 
Q 594 497 594 1153 
L 594 3053 
L 172 3053 
L 172 3500 
L 594 3500 
L 594 4494 
L 1172 4494 
z
" id="DejaVuSans-74" transform="scale(0.015625)"/>
       <path d="M 3513 2113 
L 3513 0 
L 2938 0 
L 2938 2094 
Q 2938 2591 2744 2837 
Q 2550 3084 2163 3084 
Q 1697 3084 1428 2787 
Q 1159 2491 1159 1978 
L 1159 0 
L 581 0 
L 581 4863 
L 1159 4863 
L 1159 2956 
Q 1366 3272 1645 3428 
Q 1925 3584 2291 3584 
Q 2894 3584 3203 3211 
Q 3513 2838 3513 2113 
z
" id="DejaVuSans-68" transform="scale(0.015625)"/>
       <path d="M 1959 3097 
Q 1497 3097 1228 2736 
Q 959 2375 959 1747 
Q 959 1119 1226 758 
Q 1494 397 1959 397 
Q 2419 397 2687 759 
Q 2956 1122 2956 1747 
Q 2956 2369 2687 2733 
Q 2419 3097 1959 3097 
z
M 1959 3584 
Q 2709 3584 3137 3096 
Q 3566 2609 3566 1747 
Q 3566 888 3137 398 
Q 2709 -91 1959 -91 
Q 1206 -91 779 398 
Q 353 888 353 1747 
Q 353 2609 779 3096 
Q 1206 3584 1959 3584 
z
" id="DejaVuSans-6f" transform="scale(0.015625)"/>
       <path d="M 2631 2963 
Q 2534 3019 2420 3045 
Q 2306 3072 2169 3072 
Q 1681 3072 1420 2755 
Q 1159 2438 1159 1844 
L 1159 0 
L 581 0 
L 581 3500 
L 1159 3500 
L 1159 2956 
Q 1341 3275 1631 3429 
Q 1922 3584 2338 3584 
Q 2397 3584 2469 3576 
Q 2541 3569 2628 3553 
L 2631 2963 
z
" id="DejaVuSans-72" transform="scale(0.015625)"/>
       <path d="M 3328 2828 
Q 3544 3216 3844 3400 
Q 4144 3584 4550 3584 
Q 5097 3584 5394 3201 
Q 5691 2819 5691 2113 
L 5691 0 
L 5113 0 
L 5113 2094 
Q 5113 2597 4934 2840 
Q 4756 3084 4391 3084 
Q 3944 3084 3684 2787 
Q 3425 2491 3425 1978 
L 3425 0 
L 2847 0 
L 2847 2094 
Q 2847 2600 2669 2842 
Q 2491 3084 2119 3084 
Q 1678 3084 1418 2786 
Q 1159 2488 1159 1978 
L 1159 0 
L 581 0 
L 581 3500 
L 1159 3500 
L 1159 2956 
Q 1356 3278 1631 3431 
Q 1906 3584 2284 3584 
Q 2666 3584 2933 3390 
Q 3200 3197 3328 2828 
z
" id="DejaVuSans-6d" transform="scale(0.015625)"/>
       <path d="M 2194 1759 
Q 1497 1759 1228 1600 
Q 959 1441 959 1056 
Q 959 750 1161 570 
Q 1363 391 1709 391 
Q 2188 391 2477 730 
Q 2766 1069 2766 1631 
L 2766 1759 
L 2194 1759 
z
M 3341 1997 
L 3341 0 
L 2766 0 
L 2766 531 
Q 2569 213 2275 61 
Q 1981 -91 1556 -91 
Q 1019 -91 701 211 
Q 384 513 384 1019 
Q 384 1609 779 1909 
Q 1175 2209 1959 2209 
L 2766 2209 
L 2766 2266 
Q 2766 2663 2505 2880 
Q 2244 3097 1772 3097 
Q 1472 3097 1187 3025 
Q 903 2953 641 2809 
L 641 3341 
Q 956 3463 1253 3523 
Q 1550 3584 1831 3584 
Q 2591 3584 2966 3190 
Q 3341 2797 3341 1997 
z
" id="DejaVuSans-61" transform="scale(0.015625)"/>
       <path d="M 1984 4856 
Q 1566 4138 1362 3434 
Q 1159 2731 1159 2009 
Q 1159 1288 1364 580 
Q 1569 -128 1984 -844 
L 1484 -844 
Q 1016 -109 783 600 
Q 550 1309 550 2009 
Q 550 2706 781 3412 
Q 1013 4119 1484 4856 
L 1984 4856 
z
" id="DejaVuSans-28" transform="scale(0.015625)"/>
       <path d="M 2906 2969 
L 2906 4863 
L 3481 4863 
L 3481 0 
L 2906 0 
L 2906 525 
Q 2725 213 2448 61 
Q 2172 -91 1784 -91 
Q 1150 -91 751 415 
Q 353 922 353 1747 
Q 353 2572 751 3078 
Q 1150 3584 1784 3584 
Q 2172 3584 2448 3432 
Q 2725 3281 2906 2969 
z
M 947 1747 
Q 947 1113 1208 752 
Q 1469 391 1925 391 
Q 2381 391 2643 752 
Q 2906 1113 2906 1747 
Q 2906 2381 2643 2742 
Q 2381 3103 1925 3103 
Q 1469 3103 1208 2742 
Q 947 2381 947 1747 
z
" id="DejaVuSans-64" transform="scale(0.015625)"/>
       <path d="M 513 4856 
L 1013 4856 
Q 1481 4119 1714 3412 
Q 1947 2706 1947 2009 
Q 1947 1309 1714 600 
Q 1481 -109 1013 -844 
L 513 -844 
Q 928 -128 1133 580 
Q 1338 1288 1338 2009 
Q 1338 2731 1133 3434 
Q 928 4138 513 4856 
z
" id="DejaVuSans-29" transform="scale(0.015625)"/>
      </defs>
      <use xlink:href="#DejaVuSans-41"/>
      <use x="68.408203" xlink:href="#DejaVuSans-6e"/>
      <use x="131.787109" xlink:href="#DejaVuSans-67"/>
      <use x="195.263672" xlink:href="#DejaVuSans-6c"/>
      <use x="223.046875" xlink:href="#DejaVuSans-65"/>
      <use x="284.570312" xlink:href="#DejaVuSans-20"/>
      <use x="316.357422" xlink:href="#DejaVuSans-77"/>
      <use x="398.144531" xlink:href="#DejaVuSans-69"/>
      <use x="425.927734" xlink:href="#DejaVuSans-74"/>
      <use x="465.136719" xlink:href="#DejaVuSans-68"/>
      <use x="528.515625" xlink:href="#DejaVuSans-20"/>
      <use x="560.302734" xlink:href="#DejaVuSans-6e"/>
      <use x="623.681641" xlink:href="#DejaVuSans-6f"/>
      <use x="684.863281" xlink:href="#DejaVuSans-72"/>
      <use x="724.226562" xlink:href="#DejaVuSans-6d"/>
      <use x="821.638672" xlink:href="#DejaVuSans-61"/>
      <use x="882.917969" xlink:href="#DejaVuSans-6c"/>
      <use x="910.701172" xlink:href="#DejaVuSans-20"/>
      <use x="942.488281" xlink:href="#DejaVuSans-28"/>
      <use x="981.501953" xlink:href="#DejaVuSans-72"/>
      <use x="1022.615234" xlink:href="#DejaVuSans-61"/>
      <use x="1083.894531" xlink:href="#DejaVuSans-64"/>
      <use x="1147.371094" xlink:href="#DejaVuSans-29"/>
     </g>
    </g>
   </g>
   <g id="matplotlib.axis_2">
    <g id="ytick_1">
     <g id="line2d_10">
      <defs>
       <path d="M 0 0 
L -3.5 0 
" id="m76ca493216" style="stroke:#000000;stroke-width:0.8;"/>
      </defs>
      <g>
       <use style="stroke:#000000;stroke-width:0.8;" x="43.78125" xlink:href="#m76ca493216" y="273.312"/>
      </g>
     </g>
     <g id="text_11">
      <!-- 0.0 -->
      <g transform="translate(20.878125 277.111219)scale(0.1 -0.1)">
       <use xlink:href="#DejaVuSans-30"/>
       <use x="63.623047" xlink:href="#DejaVuSans-2e"/>
       <use x="95.410156" xlink:href="#DejaVuSans-30"/>
      </g>
     </g>
    </g>
    <g id="ytick_2">
     <g id="line2d_11">
      <g>
       <use style="stroke:#000000;stroke-width:0.8;" x="43.78125" xlink:href="#m76ca493216" y="227.99354"/>
      </g>
     </g>
     <g id="text_12">
      <!-- 0.2 -->
      <g transform="translate(20.878125 231.792759)scale(0.1 -0.1)">
       <use xlink:href="#DejaVuSans-30"/>
       <use x="63.623047" xlink:href="#DejaVuSans-2e"/>
       <use x="95.410156" xlink:href="#DejaVuSans-32"/>
      </g>
     </g>
    </g>
    <g id="ytick_3">
     <g id="line2d_12">
      <g>
       <use style="stroke:#000000;stroke-width:0.8;" x="43.78125" xlink:href="#m76ca493216" y="182.675081"/>
      </g>
     </g>
     <g id="text_13">
      <!-- 0.4 -->
      <g transform="translate(20.878125 186.4743)scale(0.1 -0.1)">
       <use xlink:href="#DejaVuSans-30"/>
       <use x="63.623047" xlink:href="#DejaVuSans-2e"/>
       <use x="95.410156" xlink:href="#DejaVuSans-34"/>
      </g>
     </g>
    </g>
    <g id="ytick_4">
     <g id="line2d_13">
      <g>
       <use style="stroke:#000000;stroke-width:0.8;" x="43.78125" xlink:href="#m76ca493216" y="137.356621"/>
      </g>
     </g>
     <g id="text_14">
      <!-- 0.6 -->
      <g transform="translate(20.878125 141.15584)scale(0.1 -0.1)">
       <use xlink:href="#DejaVuSans-30"/>
       <use x="63.623047" xlink:href="#DejaVuSans-2e"/>
       <use x="95.410156" xlink:href="#DejaVuSans-36"/>
      </g>
     </g>
    </g>
    <g id="ytick_5">
     <g id="line2d_14">
      <g>
       <use style="stroke:#000000;stroke-width:0.8;" x="43.78125" xlink:href="#m76ca493216" y="92.038162"/>
      </g>
     </g>
     <g id="text_15">
      <!-- 0.8 -->
      <g transform="translate(20.878125 95.837381)scale(0.1 -0.1)">
       <use xlink:href="#DejaVuSans-30"/>
       <use x="63.623047" xlink:href="#DejaVuSans-2e"/>
       <use x="95.410156" xlink:href="#DejaVuSans-38"/>
      </g>
     </g>
    </g>
    <g id="ytick_6">
     <g id="line2d_15">
      <g>
       <use style="stroke:#000000;stroke-width:0.8;" x="43.78125" xlink:href="#m76ca493216" y="46.719702"/>
      </g>
     </g>
     <g id="text_16">
      <!-- 1.0 -->
      <g transform="translate(20.878125 50.518921)scale(0.1 -0.1)">
       <use xlink:href="#DejaVuSans-31"/>
       <use x="63.623047" xlink:href="#DejaVuSans-2e"/>
       <use x="95.410156" xlink:href="#DejaVuSans-30"/>
      </g>
     </g>
    </g>
    <g id="text_17">
     <!-- Probability density -->
     <g transform="translate(14.798438 186.606781)rotate(-90)scale(0.1 -0.1)">
      <defs>
       <path d="M 1259 4147 
L 1259 2394 
L 2053 2394 
Q 2494 2394 2734 2622 
Q 2975 2850 2975 3272 
Q 2975 3691 2734 3919 
Q 2494 4147 2053 4147 
L 1259 4147 
z
M 628 4666 
L 2053 4666 
Q 2838 4666 3239 4311 
Q 3641 3956 3641 3272 
Q 3641 2581 3239 2228 
Q 2838 1875 2053 1875 
L 1259 1875 
L 1259 0 
L 628 0 
L 628 4666 
z
" id="DejaVuSans-50" transform="scale(0.015625)"/>
       <path d="M 3116 1747 
Q 3116 2381 2855 2742 
Q 2594 3103 2138 3103 
Q 1681 3103 1420 2742 
Q 1159 2381 1159 1747 
Q 1159 1113 1420 752 
Q 1681 391 2138 391 
Q 2594 391 2855 752 
Q 3116 1113 3116 1747 
z
M 1159 2969 
Q 1341 3281 1617 3432 
Q 1894 3584 2278 3584 
Q 2916 3584 3314 3078 
Q 3713 2572 3713 1747 
Q 3713 922 3314 415 
Q 2916 -91 2278 -91 
Q 1894 -91 1617 61 
Q 1341 213 1159 525 
L 1159 0 
L 581 0 
L 581 4863 
L 1159 4863 
L 1159 2969 
z
" id="DejaVuSans-62" transform="scale(0.015625)"/>
       <path d="M 2059 -325 
Q 1816 -950 1584 -1140 
Q 1353 -1331 966 -1331 
L 506 -1331 
L 506 -850 
L 844 -850 
Q 1081 -850 1212 -737 
Q 1344 -625 1503 -206 
L 1606 56 
L 191 3500 
L 800 3500 
L 1894 763 
L 2988 3500 
L 3597 3500 
L 2059 -325 
z
" id="DejaVuSans-79" transform="scale(0.015625)"/>
       <path d="M 2834 3397 
L 2834 2853 
Q 2591 2978 2328 3040 
Q 2066 3103 1784 3103 
Q 1356 3103 1142 2972 
Q 928 2841 928 2578 
Q 928 2378 1081 2264 
Q 1234 2150 1697 2047 
L 1894 2003 
Q 2506 1872 2764 1633 
Q 3022 1394 3022 966 
Q 3022 478 2636 193 
Q 2250 -91 1575 -91 
Q 1294 -91 989 -36 
Q 684 19 347 128 
L 347 722 
Q 666 556 975 473 
Q 1284 391 1588 391 
Q 1994 391 2212 530 
Q 2431 669 2431 922 
Q 2431 1156 2273 1281 
Q 2116 1406 1581 1522 
L 1381 1569 
Q 847 1681 609 1914 
Q 372 2147 372 2553 
Q 372 3047 722 3315 
Q 1072 3584 1716 3584 
Q 2034 3584 2315 3537 
Q 2597 3491 2834 3397 
z
" id="DejaVuSans-73" transform="scale(0.015625)"/>
      </defs>
      <use xlink:href="#DejaVuSans-50"/>
      <use x="58.552734" xlink:href="#DejaVuSans-72"/>
      <use x="97.416016" xlink:href="#DejaVuSans-6f"/>
      <use x="158.597656" xlink:href="#DejaVuSans-62"/>
      <use x="222.074219" xlink:href="#DejaVuSans-61"/>
      <use x="283.353516" xlink:href="#DejaVuSans-62"/>
      <use x="346.830078" xlink:href="#DejaVuSans-69"/>
      <use x="374.613281" xlink:href="#DejaVuSans-6c"/>
      <use x="402.396484" xlink:href="#DejaVuSans-69"/>
      <use x="430.179688" xlink:href="#DejaVuSans-74"/>
      <use x="469.388672" xlink:href="#DejaVuSans-79"/>
      <use x="528.568359" xlink:href="#DejaVuSans-20"/>
      <use x="560.355469" xlink:href="#DejaVuSans-64"/>
      <use x="623.832031" xlink:href="#DejaVuSans-65"/>
      <use x="685.355469" xlink:href="#DejaVuSans-6e"/>
      <use x="748.734375" xlink:href="#DejaVuSans-73"/>
      <use x="800.833984" xlink:href="#DejaVuSans-69"/>
      <use x="828.617188" xlink:href="#DejaVuSans-74"/>
      <use x="867.826172" xlink:href="#DejaVuSans-79"/>
     </g>
    </g>
   </g>
   <g id="line2d_16">
    <path clip-path="url(#p41fee31b32)" d="M 60.013977 273.312 
L 79.837728 230.111126 
L 90.237073 207.983358 
L 99.01152 189.818314 
L 106.811029 174.172656 
L 113.960578 160.324544 
L 120.460169 148.202769 
L 126.63478 137.144614 
L 132.484411 127.116137 
L 138.009063 118.074276 
L 143.208736 109.969041 
L 148.408408 102.27725 
L 153.283101 95.459016 
L 158.157794 89.036452 
L 162.707507 83.411658 
L 167.257221 78.154891 
L 171.481954 73.612059 
L 175.706688 69.40294 
L 179.606442 65.819886 
L 183.506197 62.53228 
L 187.405951 59.544804 
L 190.980726 57.073581 
L 194.555501 54.861085 
L 198.130275 52.909965 
L 201.70505 51.222555 
L 204.954845 49.91909 
L 208.204641 48.836528 
L 211.454436 47.97594 
L 214.704231 47.338177 
L 217.954026 46.92387 
L 221.203822 46.733428 
L 224.453617 46.767039 
L 227.703412 47.02467 
L 230.953207 47.506068 
L 234.203003 48.210754 
L 237.452798 49.138034 
L 240.702593 50.286989 
L 243.952388 51.656484 
L 247.527163 53.416028 
L 251.101938 55.438677 
L 254.676713 57.72201 
L 258.251488 60.263296 
L 262.151242 63.32622 
L 266.050996 66.688143 
L 269.95075 70.344278 
L 274.175484 74.631053 
L 278.400218 79.249837 
L 282.624952 84.192914 
L 287.174665 89.86941 
L 291.724379 95.901419 
L 296.599071 102.7455 
L 301.473764 109.969041 
L 306.673437 118.074276 
L 312.198089 127.116137 
L 318.04772 137.144614 
L 324.222331 148.202769 
L 330.721922 160.324544 
L 337.546492 173.532396 
L 345.021021 188.495104 
L 353.145509 205.259336 
L 362.569915 225.225469 
L 374.594157 251.257201 
L 384.668523 273.312 
L 384.668523 273.312 
" style="fill:none;stroke:#ff7f0e;stroke-linecap:square;stroke-width:1.5;"/>
   </g>
   <g id="patch_203">
    <path d="M 43.78125 273.312 
L 43.78125 7.2 
" style="fill:none;stroke:#000000;stroke-linecap:square;stroke-linejoin:miter;stroke-width:0.8;"/>
   </g>
   <g id="patch_204">
    <path d="M 400.90125 273.312 
L 400.90125 7.2 
" style="fill:none;stroke:#000000;stroke-linecap:square;stroke-linejoin:miter;stroke-width:0.8;"/>
   </g>
   <g id="patch_205">
    <path d="M 43.78125 273.312 
L 400.90125 273.312 
" style="fill:none;stroke:#000000;stroke-linecap:square;stroke-linejoin:miter;stroke-width:0.8;"/>
   </g>
   <g id="patch_206">
    <path d="M 43.78125 7.2 
L 400.90125 7.2 
" style="fill:none;stroke:#000000;stroke-linecap:square;stroke-linejoin:miter;stroke-width:0.8;"/>
   </g>
  </g>
 </g>
 <defs>
  <clipPath id="p41fee31b32">
   <rect height="266.112" width="357.12" x="43.78125" y="7.2"/>
  </clipPath>
 </defs>
</svg>
