<?xml version="1.0" encoding="utf-8" standalone="no"?>
<!DOCTYPE svg PUBLIC "-//W3C//DTD SVG 1.1//EN"
  "http://www.w3.org/Graphics/SVG/1.1/DTD/svg11.dtd">
<svg height="310.86825pt" version="1.1" viewBox="0 0 408.10125 310.86825" width="408.10125pt" xmlns="http://www.w3.org/2000/svg" xmlns:xlink="http://www.w3.org/1999/xlink">
 <metadata>
  <rdf:RDF xmlns:cc="http://creativecommons.org/ns#" xmlns:dc="http://purl.org/dc/elements/1.1/" xmlns:rdf="http://www.w3.org/1999/02/22-rdf-syntax-ns#">
   <cc:Work>
    <dc:type rdf:resource="http://purl.org/dc/dcmitype/StillImage"/>
    <dc:date>2021-07-13T18:04:41.205422</dc:date>
    <dc:format>image/svg+xml</dc:format>
    <dc:creator>
     <cc:Agent>
      <dc:title>Matplotlib v3.4.2, https://matplotlib.org/</dc:title>
     </cc:Agent>
    </dc:creator>
   </cc:Work>
  </rdf:RDF>
 </metadata>
 <defs>
  <style type="text/css">*{stroke-linecap:butt;stroke-linejoin:round;}</style>
 </defs>
 <g id="figure_1">
  <g id="patch_1">
   <path d="M 0 310.86825 
L 408.10125 310.86825 
L 408.10125 0 
L 0 0 
z
" style="fill:#ffffff;"/>
  </g>
  <g id="axes_1">
   <g id="patch_2">
    <path d="M 43.78125 273.312 
L 400.90125 273.312 
L 400.90125 7.2 
L 43.78125 7.2 
z
" style="fill:#ffffff;"/>
   </g>
   <g id="patch_3">
    <path clip-path="url(#pda45f9bdca)" d="M 61.050129 273.312 
L 62.662162 273.312 
L 62.662162 266.776298 
L 61.050129 266.776298 
z
" style="fill:#1f77b4;"/>
   </g>
   <g id="patch_4">
    <path clip-path="url(#pda45f9bdca)" d="M 62.662162 273.312 
L 64.274194 273.312 
L 64.274194 268.954865 
L 62.662162 268.954865 
z
" style="fill:#1f77b4;"/>
   </g>
   <g id="patch_5">
    <path clip-path="url(#pda45f9bdca)" d="M 64.274194 273.312 
L 65.886227 273.312 
L 65.886227 260.966785 
L 64.274194 260.966785 
z
" style="fill:#1f77b4;"/>
   </g>
   <g id="patch_6">
    <path clip-path="url(#pda45f9bdca)" d="M 65.886227 273.312 
L 67.498259 273.312 
L 67.498259 263.145352 
L 65.886227 263.145352 
z
" style="fill:#1f77b4;"/>
   </g>
   <g id="patch_7">
    <path clip-path="url(#pda45f9bdca)" d="M 67.498259 273.312 
L 69.110292 273.312 
L 69.110292 252.252516 
L 67.498259 252.252516 
z
" style="fill:#1f77b4;"/>
   </g>
   <g id="patch_8">
    <path clip-path="url(#pda45f9bdca)" d="M 69.110292 273.312 
L 70.722324 273.312 
L 70.722324 250.073948 
L 69.110292 250.073948 
z
" style="fill:#1f77b4;"/>
   </g>
   <g id="patch_9">
    <path clip-path="url(#pda45f9bdca)" d="M 70.722324 273.312 
L 72.334356 273.312 
L 72.334356 244.264436 
L 70.722324 244.264436 
z
" style="fill:#1f77b4;"/>
   </g>
   <g id="patch_10">
    <path clip-path="url(#pda45f9bdca)" d="M 72.334356 273.312 
L 73.946389 273.312 
L 73.946389 242.085868 
L 72.334356 242.085868 
z
" style="fill:#1f77b4;"/>
   </g>
   <g id="patch_11">
    <path clip-path="url(#pda45f9bdca)" d="M 73.946389 273.312 
L 75.558421 273.312 
L 75.558421 244.264436 
L 73.946389 244.264436 
z
" style="fill:#1f77b4;"/>
   </g>
   <g id="patch_12">
    <path clip-path="url(#pda45f9bdca)" d="M 75.558421 273.312 
L 77.170454 273.312 
L 77.170454 240.63349 
L 75.558421 240.63349 
z
" style="fill:#1f77b4;"/>
   </g>
   <g id="patch_13">
    <path clip-path="url(#pda45f9bdca)" d="M 77.170454 273.312 
L 78.782486 273.312 
L 78.782486 232.64541 
L 77.170454 232.64541 
z
" style="fill:#1f77b4;"/>
   </g>
   <g id="patch_14">
    <path clip-path="url(#pda45f9bdca)" d="M 78.782486 273.312 
L 80.394519 273.312 
L 80.394519 232.64541 
L 78.782486 232.64541 
z
" style="fill:#1f77b4;"/>
   </g>
   <g id="patch_15">
    <path clip-path="url(#pda45f9bdca)" d="M 80.394519 273.312 
L 82.006551 273.312 
L 82.006551 229.740653 
L 80.394519 229.740653 
z
" style="fill:#1f77b4;"/>
   </g>
   <g id="patch_16">
    <path clip-path="url(#pda45f9bdca)" d="M 82.006551 273.312 
L 83.618584 273.312 
L 83.618584 219.574006 
L 82.006551 219.574006 
z
" style="fill:#1f77b4;"/>
   </g>
   <g id="patch_17">
    <path clip-path="url(#pda45f9bdca)" d="M 83.618584 273.312 
L 85.230616 273.312 
L 85.230616 215.216871 
L 83.618584 215.216871 
z
" style="fill:#1f77b4;"/>
   </g>
   <g id="patch_18">
    <path clip-path="url(#pda45f9bdca)" d="M 85.230616 273.312 
L 86.842648 273.312 
L 86.842648 216.669249 
L 85.230616 216.669249 
z
" style="fill:#1f77b4;"/>
   </g>
   <g id="patch_19">
    <path clip-path="url(#pda45f9bdca)" d="M 86.842648 273.312 
L 88.454681 273.312 
L 88.454681 208.681169 
L 86.842648 208.681169 
z
" style="fill:#1f77b4;"/>
   </g>
   <g id="patch_20">
    <path clip-path="url(#pda45f9bdca)" d="M 88.454681 273.312 
L 90.066713 273.312 
L 90.066713 211.585926 
L 88.454681 211.585926 
z
" style="fill:#1f77b4;"/>
   </g>
   <g id="patch_21">
    <path clip-path="url(#pda45f9bdca)" d="M 90.066713 273.312 
L 91.678746 273.312 
L 91.678746 205.050223 
L 90.066713 205.050223 
z
" style="fill:#1f77b4;"/>
   </g>
   <g id="patch_22">
    <path clip-path="url(#pda45f9bdca)" d="M 91.678746 273.312 
L 93.290778 273.312 
L 93.290778 207.95498 
L 91.678746 207.95498 
z
" style="fill:#1f77b4;"/>
   </g>
   <g id="patch_23">
    <path clip-path="url(#pda45f9bdca)" d="M 93.290778 273.312 
L 94.902811 273.312 
L 94.902811 207.228791 
L 93.290778 207.228791 
z
" style="fill:#1f77b4;"/>
   </g>
   <g id="patch_24">
    <path clip-path="url(#pda45f9bdca)" d="M 94.902811 273.312 
L 96.514843 273.312 
L 96.514843 203.597845 
L 94.902811 203.597845 
z
" style="fill:#1f77b4;"/>
   </g>
   <g id="patch_25">
    <path clip-path="url(#pda45f9bdca)" d="M 96.514843 273.312 
L 98.126876 273.312 
L 98.126876 189.074063 
L 96.514843 189.074063 
z
" style="fill:#1f77b4;"/>
   </g>
   <g id="patch_26">
    <path clip-path="url(#pda45f9bdca)" d="M 98.126876 273.312 
L 99.738908 273.312 
L 99.738908 181.085983 
L 98.126876 181.085983 
z
" style="fill:#1f77b4;"/>
   </g>
   <g id="patch_27">
    <path clip-path="url(#pda45f9bdca)" d="M 99.738908 273.312 
L 101.35094 273.312 
L 101.35094 192.705009 
L 99.738908 192.705009 
z
" style="fill:#1f77b4;"/>
   </g>
   <g id="patch_28">
    <path clip-path="url(#pda45f9bdca)" d="M 101.35094 273.312 
L 102.962973 273.312 
L 102.962973 187.621685 
L 101.35094 187.621685 
z
" style="fill:#1f77b4;"/>
   </g>
   <g id="patch_29">
    <path clip-path="url(#pda45f9bdca)" d="M 102.962973 273.312 
L 104.575005 273.312 
L 104.575005 178.907415 
L 102.962973 178.907415 
z
" style="fill:#1f77b4;"/>
   </g>
   <g id="patch_30">
    <path clip-path="url(#pda45f9bdca)" d="M 104.575005 273.312 
L 106.187038 273.312 
L 106.187038 187.621685 
L 104.575005 187.621685 
z
" style="fill:#1f77b4;"/>
   </g>
   <g id="patch_31">
    <path clip-path="url(#pda45f9bdca)" d="M 106.187038 273.312 
L 107.79907 273.312 
L 107.79907 167.28839 
L 106.187038 167.28839 
z
" style="fill:#1f77b4;"/>
   </g>
   <g id="patch_32">
    <path clip-path="url(#pda45f9bdca)" d="M 107.79907 273.312 
L 109.411103 273.312 
L 109.411103 180.359794 
L 107.79907 180.359794 
z
" style="fill:#1f77b4;"/>
   </g>
   <g id="patch_33">
    <path clip-path="url(#pda45f9bdca)" d="M 109.411103 273.312 
L 111.023135 273.312 
L 111.023135 174.550281 
L 109.411103 174.550281 
z
" style="fill:#1f77b4;"/>
   </g>
   <g id="patch_34">
    <path clip-path="url(#pda45f9bdca)" d="M 111.023135 273.312 
L 112.635167 273.312 
L 112.635167 171.645524 
L 111.023135 171.645524 
z
" style="fill:#1f77b4;"/>
   </g>
   <g id="patch_35">
    <path clip-path="url(#pda45f9bdca)" d="M 112.635167 273.312 
L 114.2472 273.312 
L 114.2472 149.133662 
L 112.635167 149.133662 
z
" style="fill:#1f77b4;"/>
   </g>
   <g id="patch_36">
    <path clip-path="url(#pda45f9bdca)" d="M 114.2472 273.312 
L 115.859232 273.312 
L 115.859232 141.871771 
L 114.2472 141.871771 
z
" style="fill:#1f77b4;"/>
   </g>
   <g id="patch_37">
    <path clip-path="url(#pda45f9bdca)" d="M 115.859232 273.312 
L 117.471265 273.312 
L 117.471265 145.502716 
L 115.859232 145.502716 
z
" style="fill:#1f77b4;"/>
   </g>
   <g id="patch_38">
    <path clip-path="url(#pda45f9bdca)" d="M 117.471265 273.312 
L 119.083297 273.312 
L 119.083297 150.58604 
L 117.471265 150.58604 
z
" style="fill:#1f77b4;"/>
   </g>
   <g id="patch_39">
    <path clip-path="url(#pda45f9bdca)" d="M 119.083297 273.312 
L 120.69533 273.312 
L 120.69533 160.026499 
L 119.083297 160.026499 
z
" style="fill:#1f77b4;"/>
   </g>
   <g id="patch_40">
    <path clip-path="url(#pda45f9bdca)" d="M 120.69533 273.312 
L 122.307362 273.312 
L 122.307362 130.978934 
L 120.69533 130.978934 
z
" style="fill:#1f77b4;"/>
   </g>
   <g id="patch_41">
    <path clip-path="url(#pda45f9bdca)" d="M 122.307362 273.312 
L 123.919395 273.312 
L 123.919395 138.967014 
L 122.307362 138.967014 
z
" style="fill:#1f77b4;"/>
   </g>
   <g id="patch_42">
    <path clip-path="url(#pda45f9bdca)" d="M 123.919395 273.312 
L 125.531427 273.312 
L 125.531427 149.133662 
L 123.919395 149.133662 
z
" style="fill:#1f77b4;"/>
   </g>
   <g id="patch_43">
    <path clip-path="url(#pda45f9bdca)" d="M 125.531427 273.312 
L 127.143459 273.312 
L 127.143459 134.60988 
L 125.531427 134.60988 
z
" style="fill:#1f77b4;"/>
   </g>
   <g id="patch_44">
    <path clip-path="url(#pda45f9bdca)" d="M 127.143459 273.312 
L 128.755492 273.312 
L 128.755492 140.419393 
L 127.143459 140.419393 
z
" style="fill:#1f77b4;"/>
   </g>
   <g id="patch_45">
    <path clip-path="url(#pda45f9bdca)" d="M 128.755492 273.312 
L 130.367524 273.312 
L 130.367524 128.800367 
L 128.755492 128.800367 
z
" style="fill:#1f77b4;"/>
   </g>
   <g id="patch_46">
    <path clip-path="url(#pda45f9bdca)" d="M 130.367524 273.312 
L 131.979557 273.312 
L 131.979557 136.788447 
L 130.367524 136.788447 
z
" style="fill:#1f77b4;"/>
   </g>
   <g id="patch_47">
    <path clip-path="url(#pda45f9bdca)" d="M 131.979557 273.312 
L 133.591589 273.312 
L 133.591589 117.181341 
L 131.979557 117.181341 
z
" style="fill:#1f77b4;"/>
   </g>
   <g id="patch_48">
    <path clip-path="url(#pda45f9bdca)" d="M 133.591589 273.312 
L 135.203622 273.312 
L 135.203622 113.550395 
L 133.591589 113.550395 
z
" style="fill:#1f77b4;"/>
   </g>
   <g id="patch_49">
    <path clip-path="url(#pda45f9bdca)" d="M 135.203622 273.312 
L 136.815654 273.312 
L 136.815654 122.990854 
L 135.203622 122.990854 
z
" style="fill:#1f77b4;"/>
   </g>
   <g id="patch_50">
    <path clip-path="url(#pda45f9bdca)" d="M 136.815654 273.312 
L 138.427687 273.312 
L 138.427687 128.074178 
L 136.815654 128.074178 
z
" style="fill:#1f77b4;"/>
   </g>
   <g id="patch_51">
    <path clip-path="url(#pda45f9bdca)" d="M 138.427687 273.312 
L 140.039719 273.312 
L 140.039719 115.728963 
L 138.427687 115.728963 
z
" style="fill:#1f77b4;"/>
   </g>
   <g id="patch_52">
    <path clip-path="url(#pda45f9bdca)" d="M 140.039719 273.312 
L 141.651751 273.312 
L 141.651751 134.60988 
L 140.039719 134.60988 
z
" style="fill:#1f77b4;"/>
   </g>
   <g id="patch_53">
    <path clip-path="url(#pda45f9bdca)" d="M 141.651751 273.312 
L 143.263784 273.312 
L 143.263784 126.621799 
L 141.651751 126.621799 
z
" style="fill:#1f77b4;"/>
   </g>
   <g id="patch_54">
    <path clip-path="url(#pda45f9bdca)" d="M 143.263784 273.312 
L 144.875816 273.312 
L 144.875816 113.550395 
L 143.263784 113.550395 
z
" style="fill:#1f77b4;"/>
   </g>
   <g id="patch_55">
    <path clip-path="url(#pda45f9bdca)" d="M 144.875816 273.312 
L 146.487849 273.312 
L 146.487849 111.371828 
L 144.875816 111.371828 
z
" style="fill:#1f77b4;"/>
   </g>
   <g id="patch_56">
    <path clip-path="url(#pda45f9bdca)" d="M 146.487849 273.312 
L 148.099881 273.312 
L 148.099881 77.24094 
L 146.487849 77.24094 
z
" style="fill:#1f77b4;"/>
   </g>
   <g id="patch_57">
    <path clip-path="url(#pda45f9bdca)" d="M 148.099881 273.312 
L 149.711914 273.312 
L 149.711914 94.669479 
L 148.099881 94.669479 
z
" style="fill:#1f77b4;"/>
   </g>
   <g id="patch_58">
    <path clip-path="url(#pda45f9bdca)" d="M 149.711914 273.312 
L 151.323946 273.312 
L 151.323946 95.395668 
L 149.711914 95.395668 
z
" style="fill:#1f77b4;"/>
   </g>
   <g id="patch_59">
    <path clip-path="url(#pda45f9bdca)" d="M 151.323946 273.312 
L 152.935978 273.312 
L 152.935978 91.764722 
L 151.323946 91.764722 
z
" style="fill:#1f77b4;"/>
   </g>
   <g id="patch_60">
    <path clip-path="url(#pda45f9bdca)" d="M 152.935978 273.312 
L 154.548011 273.312 
L 154.548011 99.752802 
L 152.935978 99.752802 
z
" style="fill:#1f77b4;"/>
   </g>
   <g id="patch_61">
    <path clip-path="url(#pda45f9bdca)" d="M 154.548011 273.312 
L 156.160043 273.312 
L 156.160043 74.336183 
L 154.548011 74.336183 
z
" style="fill:#1f77b4;"/>
   </g>
   <g id="patch_62">
    <path clip-path="url(#pda45f9bdca)" d="M 156.160043 273.312 
L 157.772076 273.312 
L 157.772076 83.050453 
L 156.160043 83.050453 
z
" style="fill:#1f77b4;"/>
   </g>
   <g id="patch_63">
    <path clip-path="url(#pda45f9bdca)" d="M 157.772076 273.312 
L 159.384108 273.312 
L 159.384108 83.776642 
L 157.772076 83.776642 
z
" style="fill:#1f77b4;"/>
   </g>
   <g id="patch_64">
    <path clip-path="url(#pda45f9bdca)" d="M 159.384108 273.312 
L 160.996141 273.312 
L 160.996141 101.205181 
L 159.384108 101.205181 
z
" style="fill:#1f77b4;"/>
   </g>
   <g id="patch_65">
    <path clip-path="url(#pda45f9bdca)" d="M 160.996141 273.312 
L 162.608173 273.312 
L 162.608173 59.086212 
L 160.996141 59.086212 
z
" style="fill:#1f77b4;"/>
   </g>
   <g id="patch_66">
    <path clip-path="url(#pda45f9bdca)" d="M 162.608173 273.312 
L 164.220206 273.312 
L 164.220206 64.895725 
L 162.608173 64.895725 
z
" style="fill:#1f77b4;"/>
   </g>
   <g id="patch_67">
    <path clip-path="url(#pda45f9bdca)" d="M 164.220206 273.312 
L 165.832238 273.312 
L 165.832238 85.22902 
L 164.220206 85.22902 
z
" style="fill:#1f77b4;"/>
   </g>
   <g id="patch_68">
    <path clip-path="url(#pda45f9bdca)" d="M 165.832238 273.312 
L 167.44427 273.312 
L 167.44427 80.145696 
L 165.832238 80.145696 
z
" style="fill:#1f77b4;"/>
   </g>
   <g id="patch_69">
    <path clip-path="url(#pda45f9bdca)" d="M 167.44427 273.312 
L 169.056303 273.312 
L 169.056303 101.205181 
L 167.44427 101.205181 
z
" style="fill:#1f77b4;"/>
   </g>
   <g id="patch_70">
    <path clip-path="url(#pda45f9bdca)" d="M 169.056303 273.312 
L 170.668335 273.312 
L 170.668335 83.776642 
L 169.056303 83.776642 
z
" style="fill:#1f77b4;"/>
   </g>
   <g id="patch_71">
    <path clip-path="url(#pda45f9bdca)" d="M 170.668335 273.312 
L 172.280368 273.312 
L 172.280368 83.050453 
L 170.668335 83.050453 
z
" style="fill:#1f77b4;"/>
   </g>
   <g id="patch_72">
    <path clip-path="url(#pda45f9bdca)" d="M 172.280368 273.312 
L 173.8924 273.312 
L 173.8924 51.098132 
L 172.280368 51.098132 
z
" style="fill:#1f77b4;"/>
   </g>
   <g id="patch_73">
    <path clip-path="url(#pda45f9bdca)" d="M 173.8924 273.312 
L 175.504433 273.312 
L 175.504433 73.609994 
L 173.8924 73.609994 
z
" style="fill:#1f77b4;"/>
   </g>
   <g id="patch_74">
    <path clip-path="url(#pda45f9bdca)" d="M 175.504433 273.312 
L 177.116465 273.312 
L 177.116465 48.919564 
L 175.504433 48.919564 
z
" style="fill:#1f77b4;"/>
   </g>
   <g id="patch_75">
    <path clip-path="url(#pda45f9bdca)" d="M 177.116465 273.312 
L 178.728498 273.312 
L 178.728498 71.431427 
L 177.116465 71.431427 
z
" style="fill:#1f77b4;"/>
   </g>
   <g id="patch_76">
    <path clip-path="url(#pda45f9bdca)" d="M 178.728498 273.312 
L 180.34053 273.312 
L 180.34053 75.062372 
L 178.728498 75.062372 
z
" style="fill:#1f77b4;"/>
   </g>
   <g id="patch_77">
    <path clip-path="url(#pda45f9bdca)" d="M 180.34053 273.312 
L 181.952562 273.312 
L 181.952562 43.110052 
L 180.34053 43.110052 
z
" style="fill:#1f77b4;"/>
   </g>
   <g id="patch_78">
    <path clip-path="url(#pda45f9bdca)" d="M 181.952562 273.312 
L 183.564595 273.312 
L 183.564595 74.336183 
L 181.952562 74.336183 
z
" style="fill:#1f77b4;"/>
   </g>
   <g id="patch_79">
    <path clip-path="url(#pda45f9bdca)" d="M 183.564595 273.312 
L 185.176627 273.312 
L 185.176627 56.907645 
L 183.564595 56.907645 
z
" style="fill:#1f77b4;"/>
   </g>
   <g id="patch_80">
    <path clip-path="url(#pda45f9bdca)" d="M 185.176627 273.312 
L 186.78866 273.312 
L 186.78866 72.157616 
L 185.176627 72.157616 
z
" style="fill:#1f77b4;"/>
   </g>
   <g id="patch_81">
    <path clip-path="url(#pda45f9bdca)" d="M 186.78866 273.312 
L 188.400692 273.312 
L 188.400692 35.84816 
L 186.78866 35.84816 
z
" style="fill:#1f77b4;"/>
   </g>
   <g id="patch_82">
    <path clip-path="url(#pda45f9bdca)" d="M 188.400692 273.312 
L 190.012725 273.312 
L 190.012725 69.979049 
L 188.400692 69.979049 
z
" style="fill:#1f77b4;"/>
   </g>
   <g id="patch_83">
    <path clip-path="url(#pda45f9bdca)" d="M 190.012725 273.312 
L 191.624757 273.312 
L 191.624757 59.812401 
L 190.012725 59.812401 
z
" style="fill:#1f77b4;"/>
   </g>
   <g id="patch_84">
    <path clip-path="url(#pda45f9bdca)" d="M 191.624757 273.312 
L 193.23679 273.312 
L 193.23679 68.52667 
L 191.624757 68.52667 
z
" style="fill:#1f77b4;"/>
   </g>
   <g id="patch_85">
    <path clip-path="url(#pda45f9bdca)" d="M 193.23679 273.312 
L 194.848822 273.312 
L 194.848822 40.931484 
L 193.23679 40.931484 
z
" style="fill:#1f77b4;"/>
   </g>
   <g id="patch_86">
    <path clip-path="url(#pda45f9bdca)" d="M 194.848822 273.312 
L 196.460854 273.312 
L 196.460854 33.669593 
L 194.848822 33.669593 
z
" style="fill:#1f77b4;"/>
   </g>
   <g id="patch_87">
    <path clip-path="url(#pda45f9bdca)" d="M 196.460854 273.312 
L 198.072887 273.312 
L 198.072887 53.276699 
L 196.460854 53.276699 
z
" style="fill:#1f77b4;"/>
   </g>
   <g id="patch_88">
    <path clip-path="url(#pda45f9bdca)" d="M 198.072887 273.312 
L 199.684919 273.312 
L 199.684919 40.931484 
L 198.072887 40.931484 
z
" style="fill:#1f77b4;"/>
   </g>
   <g id="patch_89">
    <path clip-path="url(#pda45f9bdca)" d="M 199.684919 273.312 
L 201.296952 273.312 
L 201.296952 64.895725 
L 199.684919 64.895725 
z
" style="fill:#1f77b4;"/>
   </g>
   <g id="patch_90">
    <path clip-path="url(#pda45f9bdca)" d="M 201.296952 273.312 
L 202.908984 273.312 
L 202.908984 73.609994 
L 201.296952 73.609994 
z
" style="fill:#1f77b4;"/>
   </g>
   <g id="patch_91">
    <path clip-path="url(#pda45f9bdca)" d="M 202.908984 273.312 
L 204.521017 273.312 
L 204.521017 66.348103 
L 202.908984 66.348103 
z
" style="fill:#1f77b4;"/>
   </g>
   <g id="patch_92">
    <path clip-path="url(#pda45f9bdca)" d="M 204.521017 273.312 
L 206.133049 273.312 
L 206.133049 59.086212 
L 204.521017 59.086212 
z
" style="fill:#1f77b4;"/>
   </g>
   <g id="patch_93">
    <path clip-path="url(#pda45f9bdca)" d="M 206.133049 273.312 
L 207.745081 273.312 
L 207.745081 27.86008 
L 206.133049 27.86008 
z
" style="fill:#1f77b4;"/>
   </g>
   <g id="patch_94">
    <path clip-path="url(#pda45f9bdca)" d="M 207.745081 273.312 
L 209.357114 273.312 
L 209.357114 56.907645 
L 207.745081 56.907645 
z
" style="fill:#1f77b4;"/>
   </g>
   <g id="patch_95">
    <path clip-path="url(#pda45f9bdca)" d="M 209.357114 273.312 
L 210.969146 273.312 
L 210.969146 56.907645 
L 209.357114 56.907645 
z
" style="fill:#1f77b4;"/>
   </g>
   <g id="patch_96">
    <path clip-path="url(#pda45f9bdca)" d="M 210.969146 273.312 
L 212.581179 273.312 
L 212.581179 51.098132 
L 210.969146 51.098132 
z
" style="fill:#1f77b4;"/>
   </g>
   <g id="patch_97">
    <path clip-path="url(#pda45f9bdca)" d="M 212.581179 273.312 
L 214.193211 273.312 
L 214.193211 43.836241 
L 212.581179 43.836241 
z
" style="fill:#1f77b4;"/>
   </g>
   <g id="patch_98">
    <path clip-path="url(#pda45f9bdca)" d="M 214.193211 273.312 
L 215.805244 273.312 
L 215.805244 42.383862 
L 214.193211 42.383862 
z
" style="fill:#1f77b4;"/>
   </g>
   <g id="patch_99">
    <path clip-path="url(#pda45f9bdca)" d="M 215.805244 273.312 
L 217.417276 273.312 
L 217.417276 51.824321 
L 215.805244 51.824321 
z
" style="fill:#1f77b4;"/>
   </g>
   <g id="patch_100">
    <path clip-path="url(#pda45f9bdca)" d="M 217.417276 273.312 
L 219.029309 273.312 
L 219.029309 50.371943 
L 217.417276 50.371943 
z
" style="fill:#1f77b4;"/>
   </g>
   <g id="patch_101">
    <path clip-path="url(#pda45f9bdca)" d="M 219.029309 273.312 
L 220.641341 273.312 
L 220.641341 43.836241 
L 219.029309 43.836241 
z
" style="fill:#1f77b4;"/>
   </g>
   <g id="patch_102">
    <path clip-path="url(#pda45f9bdca)" d="M 220.641341 273.312 
L 222.253373 273.312 
L 222.253373 51.098132 
L 220.641341 51.098132 
z
" style="fill:#1f77b4;"/>
   </g>
   <g id="patch_103">
    <path clip-path="url(#pda45f9bdca)" d="M 222.253373 273.312 
L 223.865406 273.312 
L 223.865406 45.288619 
L 222.253373 45.288619 
z
" style="fill:#1f77b4;"/>
   </g>
   <g id="patch_104">
    <path clip-path="url(#pda45f9bdca)" d="M 223.865406 273.312 
L 225.477438 273.312 
L 225.477438 47.467186 
L 223.865406 47.467186 
z
" style="fill:#1f77b4;"/>
   </g>
   <g id="patch_105">
    <path clip-path="url(#pda45f9bdca)" d="M 225.477438 273.312 
L 227.089471 273.312 
L 227.089471 19.872 
L 225.477438 19.872 
z
" style="fill:#1f77b4;"/>
   </g>
   <g id="patch_106">
    <path clip-path="url(#pda45f9bdca)" d="M 227.089471 273.312 
L 228.701503 273.312 
L 228.701503 44.56243 
L 227.089471 44.56243 
z
" style="fill:#1f77b4;"/>
   </g>
   <g id="patch_107">
    <path clip-path="url(#pda45f9bdca)" d="M 228.701503 273.312 
L 230.313536 273.312 
L 230.313536 70.705238 
L 228.701503 70.705238 
z
" style="fill:#1f77b4;"/>
   </g>
   <g id="patch_108">
    <path clip-path="url(#pda45f9bdca)" d="M 230.313536 273.312 
L 231.925568 273.312 
L 231.925568 50.371943 
L 230.313536 50.371943 
z
" style="fill:#1f77b4;"/>
   </g>
   <g id="patch_109">
    <path clip-path="url(#pda45f9bdca)" d="M 231.925568 273.312 
L 233.537601 273.312 
L 233.537601 62.717158 
L 231.925568 62.717158 
z
" style="fill:#1f77b4;"/>
   </g>
   <g id="patch_110">
    <path clip-path="url(#pda45f9bdca)" d="M 233.537601 273.312 
L 235.149633 273.312 
L 235.149633 61.990968 
L 233.537601 61.990968 
z
" style="fill:#1f77b4;"/>
   </g>
   <g id="patch_111">
    <path clip-path="url(#pda45f9bdca)" d="M 235.149633 273.312 
L 236.761665 273.312 
L 236.761665 44.56243 
L 235.149633 44.56243 
z
" style="fill:#1f77b4;"/>
   </g>
   <g id="patch_112">
    <path clip-path="url(#pda45f9bdca)" d="M 236.761665 273.312 
L 238.373698 273.312 
L 238.373698 33.669593 
L 236.761665 33.669593 
z
" style="fill:#1f77b4;"/>
   </g>
   <g id="patch_113">
    <path clip-path="url(#pda45f9bdca)" d="M 238.373698 273.312 
L 239.98573 273.312 
L 239.98573 34.395782 
L 238.373698 34.395782 
z
" style="fill:#1f77b4;"/>
   </g>
   <g id="patch_114">
    <path clip-path="url(#pda45f9bdca)" d="M 239.98573 273.312 
L 241.597763 273.312 
L 241.597763 64.169536 
L 239.98573 64.169536 
z
" style="fill:#1f77b4;"/>
   </g>
   <g id="patch_115">
    <path clip-path="url(#pda45f9bdca)" d="M 241.597763 273.312 
L 243.209795 273.312 
L 243.209795 59.812401 
L 241.597763 59.812401 
z
" style="fill:#1f77b4;"/>
   </g>
   <g id="patch_116">
    <path clip-path="url(#pda45f9bdca)" d="M 243.209795 273.312 
L 244.821828 273.312 
L 244.821828 33.669593 
L 243.209795 33.669593 
z
" style="fill:#1f77b4;"/>
   </g>
   <g id="patch_117">
    <path clip-path="url(#pda45f9bdca)" d="M 244.821828 273.312 
L 246.43386 273.312 
L 246.43386 68.52667 
L 244.821828 68.52667 
z
" style="fill:#1f77b4;"/>
   </g>
   <g id="patch_118">
    <path clip-path="url(#pda45f9bdca)" d="M 246.43386 273.312 
L 248.045892 273.312 
L 248.045892 42.383862 
L 246.43386 42.383862 
z
" style="fill:#1f77b4;"/>
   </g>
   <g id="patch_119">
    <path clip-path="url(#pda45f9bdca)" d="M 248.045892 273.312 
L 249.657925 273.312 
L 249.657925 45.288619 
L 248.045892 45.288619 
z
" style="fill:#1f77b4;"/>
   </g>
   <g id="patch_120">
    <path clip-path="url(#pda45f9bdca)" d="M 249.657925 273.312 
L 251.269957 273.312 
L 251.269957 56.907645 
L 249.657925 56.907645 
z
" style="fill:#1f77b4;"/>
   </g>
   <g id="patch_121">
    <path clip-path="url(#pda45f9bdca)" d="M 251.269957 273.312 
L 252.88199 273.312 
L 252.88199 74.336183 
L 251.269957 74.336183 
z
" style="fill:#1f77b4;"/>
   </g>
   <g id="patch_122">
    <path clip-path="url(#pda45f9bdca)" d="M 252.88199 273.312 
L 254.494022 273.312 
L 254.494022 77.24094 
L 252.88199 77.24094 
z
" style="fill:#1f77b4;"/>
   </g>
   <g id="patch_123">
    <path clip-path="url(#pda45f9bdca)" d="M 254.494022 273.312 
L 256.106055 273.312 
L 256.106055 49.645754 
L 254.494022 49.645754 
z
" style="fill:#1f77b4;"/>
   </g>
   <g id="patch_124">
    <path clip-path="url(#pda45f9bdca)" d="M 256.106055 273.312 
L 257.718087 273.312 
L 257.718087 47.467186 
L 256.106055 47.467186 
z
" style="fill:#1f77b4;"/>
   </g>
   <g id="patch_125">
    <path clip-path="url(#pda45f9bdca)" d="M 257.718087 273.312 
L 259.33012 273.312 
L 259.33012 62.717158 
L 257.718087 62.717158 
z
" style="fill:#1f77b4;"/>
   </g>
   <g id="patch_126">
    <path clip-path="url(#pda45f9bdca)" d="M 259.33012 273.312 
L 260.942152 273.312 
L 260.942152 59.812401 
L 259.33012 59.812401 
z
" style="fill:#1f77b4;"/>
   </g>
   <g id="patch_127">
    <path clip-path="url(#pda45f9bdca)" d="M 260.942152 273.312 
L 262.554184 273.312 
L 262.554184 61.990968 
L 260.942152 61.990968 
z
" style="fill:#1f77b4;"/>
   </g>
   <g id="patch_128">
    <path clip-path="url(#pda45f9bdca)" d="M 262.554184 273.312 
L 264.166217 273.312 
L 264.166217 77.24094 
L 262.554184 77.24094 
z
" style="fill:#1f77b4;"/>
   </g>
   <g id="patch_129">
    <path clip-path="url(#pda45f9bdca)" d="M 264.166217 273.312 
L 265.778249 273.312 
L 265.778249 67.074292 
L 264.166217 67.074292 
z
" style="fill:#1f77b4;"/>
   </g>
   <g id="patch_130">
    <path clip-path="url(#pda45f9bdca)" d="M 265.778249 273.312 
L 267.390282 273.312 
L 267.390282 67.800481 
L 265.778249 67.800481 
z
" style="fill:#1f77b4;"/>
   </g>
   <g id="patch_131">
    <path clip-path="url(#pda45f9bdca)" d="M 267.390282 273.312 
L 269.002314 273.312 
L 269.002314 59.086212 
L 267.390282 59.086212 
z
" style="fill:#1f77b4;"/>
   </g>
   <g id="patch_132">
    <path clip-path="url(#pda45f9bdca)" d="M 269.002314 273.312 
L 270.614347 273.312 
L 270.614347 88.859966 
L 269.002314 88.859966 
z
" style="fill:#1f77b4;"/>
   </g>
   <g id="patch_133">
    <path clip-path="url(#pda45f9bdca)" d="M 270.614347 273.312 
L 272.226379 273.312 
L 272.226379 83.050453 
L 270.614347 83.050453 
z
" style="fill:#1f77b4;"/>
   </g>
   <g id="patch_134">
    <path clip-path="url(#pda45f9bdca)" d="M 272.226379 273.312 
L 273.838412 273.312 
L 273.838412 75.788562 
L 272.226379 75.788562 
z
" style="fill:#1f77b4;"/>
   </g>
   <g id="patch_135">
    <path clip-path="url(#pda45f9bdca)" d="M 273.838412 273.312 
L 275.450444 273.312 
L 275.450444 87.407587 
L 273.838412 87.407587 
z
" style="fill:#1f77b4;"/>
   </g>
   <g id="patch_136">
    <path clip-path="url(#pda45f9bdca)" d="M 275.450444 273.312 
L 277.062476 273.312 
L 277.062476 78.693318 
L 275.450444 78.693318 
z
" style="fill:#1f77b4;"/>
   </g>
   <g id="patch_137">
    <path clip-path="url(#pda45f9bdca)" d="M 277.062476 273.312 
L 278.674509 273.312 
L 278.674509 62.717158 
L 277.062476 62.717158 
z
" style="fill:#1f77b4;"/>
   </g>
   <g id="patch_138">
    <path clip-path="url(#pda45f9bdca)" d="M 278.674509 273.312 
L 280.286541 273.312 
L 280.286541 79.419507 
L 278.674509 79.419507 
z
" style="fill:#1f77b4;"/>
   </g>
   <g id="patch_139">
    <path clip-path="url(#pda45f9bdca)" d="M 280.286541 273.312 
L 281.898574 273.312 
L 281.898574 60.53859 
L 280.286541 60.53859 
z
" style="fill:#1f77b4;"/>
   </g>
   <g id="patch_140">
    <path clip-path="url(#pda45f9bdca)" d="M 281.898574 273.312 
L 283.510606 273.312 
L 283.510606 77.24094 
L 281.898574 77.24094 
z
" style="fill:#1f77b4;"/>
   </g>
   <g id="patch_141">
    <path clip-path="url(#pda45f9bdca)" d="M 283.510606 273.312 
L 285.122639 273.312 
L 285.122639 93.2171 
L 283.510606 93.2171 
z
" style="fill:#1f77b4;"/>
   </g>
   <g id="patch_142">
    <path clip-path="url(#pda45f9bdca)" d="M 285.122639 273.312 
L 286.734671 273.312 
L 286.734671 96.121857 
L 285.122639 96.121857 
z
" style="fill:#1f77b4;"/>
   </g>
   <g id="patch_143">
    <path clip-path="url(#pda45f9bdca)" d="M 286.734671 273.312 
L 288.346704 273.312 
L 288.346704 83.776642 
L 286.734671 83.776642 
z
" style="fill:#1f77b4;"/>
   </g>
   <g id="patch_144">
    <path clip-path="url(#pda45f9bdca)" d="M 288.346704 273.312 
L 289.958736 273.312 
L 289.958736 97.574235 
L 288.346704 97.574235 
z
" style="fill:#1f77b4;"/>
   </g>
   <g id="patch_145">
    <path clip-path="url(#pda45f9bdca)" d="M 289.958736 273.312 
L 291.570768 273.312 
L 291.570768 92.490911 
L 289.958736 92.490911 
z
" style="fill:#1f77b4;"/>
   </g>
   <g id="patch_146">
    <path clip-path="url(#pda45f9bdca)" d="M 291.570768 273.312 
L 293.182801 273.312 
L 293.182801 93.2171 
L 291.570768 93.2171 
z
" style="fill:#1f77b4;"/>
   </g>
   <g id="patch_147">
    <path clip-path="url(#pda45f9bdca)" d="M 293.182801 273.312 
L 294.794833 273.312 
L 294.794833 107.014693 
L 293.182801 107.014693 
z
" style="fill:#1f77b4;"/>
   </g>
   <g id="patch_148">
    <path clip-path="url(#pda45f9bdca)" d="M 294.794833 273.312 
L 296.406866 273.312 
L 296.406866 104.109937 
L 294.794833 104.109937 
z
" style="fill:#1f77b4;"/>
   </g>
   <g id="patch_149">
    <path clip-path="url(#pda45f9bdca)" d="M 296.406866 273.312 
L 298.018898 273.312 
L 298.018898 104.836126 
L 296.406866 104.836126 
z
" style="fill:#1f77b4;"/>
   </g>
   <g id="patch_150">
    <path clip-path="url(#pda45f9bdca)" d="M 298.018898 273.312 
L 299.630931 273.312 
L 299.630931 117.181341 
L 298.018898 117.181341 
z
" style="fill:#1f77b4;"/>
   </g>
   <g id="patch_151">
    <path clip-path="url(#pda45f9bdca)" d="M 299.630931 273.312 
L 301.242963 273.312 
L 301.242963 98.300424 
L 299.630931 98.300424 
z
" style="fill:#1f77b4;"/>
   </g>
   <g id="patch_152">
    <path clip-path="url(#pda45f9bdca)" d="M 301.242963 273.312 
L 302.854995 273.312 
L 302.854995 98.300424 
L 301.242963 98.300424 
z
" style="fill:#1f77b4;"/>
   </g>
   <g id="patch_153">
    <path clip-path="url(#pda45f9bdca)" d="M 302.854995 273.312 
L 304.467028 273.312 
L 304.467028 105.562315 
L 302.854995 105.562315 
z
" style="fill:#1f77b4;"/>
   </g>
   <g id="patch_154">
    <path clip-path="url(#pda45f9bdca)" d="M 304.467028 273.312 
L 306.07906 273.312 
L 306.07906 110.645639 
L 304.467028 110.645639 
z
" style="fill:#1f77b4;"/>
   </g>
   <g id="patch_155">
    <path clip-path="url(#pda45f9bdca)" d="M 306.07906 273.312 
L 307.691093 273.312 
L 307.691093 101.93137 
L 306.07906 101.93137 
z
" style="fill:#1f77b4;"/>
   </g>
   <g id="patch_156">
    <path clip-path="url(#pda45f9bdca)" d="M 307.691093 273.312 
L 309.303125 273.312 
L 309.303125 124.443232 
L 307.691093 124.443232 
z
" style="fill:#1f77b4;"/>
   </g>
   <g id="patch_157">
    <path clip-path="url(#pda45f9bdca)" d="M 309.303125 273.312 
L 310.915158 273.312 
L 310.915158 119.359908 
L 309.303125 119.359908 
z
" style="fill:#1f77b4;"/>
   </g>
   <g id="patch_158">
    <path clip-path="url(#pda45f9bdca)" d="M 310.915158 273.312 
L 312.52719 273.312 
L 312.52719 119.359908 
L 310.915158 119.359908 
z
" style="fill:#1f77b4;"/>
   </g>
   <g id="patch_159">
    <path clip-path="url(#pda45f9bdca)" d="M 312.52719 273.312 
L 314.139223 273.312 
L 314.139223 109.91945 
L 312.52719 109.91945 
z
" style="fill:#1f77b4;"/>
   </g>
   <g id="patch_160">
    <path clip-path="url(#pda45f9bdca)" d="M 314.139223 273.312 
L 315.751255 273.312 
L 315.751255 137.514636 
L 314.139223 137.514636 
z
" style="fill:#1f77b4;"/>
   </g>
   <g id="patch_161">
    <path clip-path="url(#pda45f9bdca)" d="M 315.751255 273.312 
L 317.363287 273.312 
L 317.363287 119.359908 
L 315.751255 119.359908 
z
" style="fill:#1f77b4;"/>
   </g>
   <g id="patch_162">
    <path clip-path="url(#pda45f9bdca)" d="M 317.363287 273.312 
L 318.97532 273.312 
L 318.97532 154.943175 
L 317.363287 154.943175 
z
" style="fill:#1f77b4;"/>
   </g>
   <g id="patch_163">
    <path clip-path="url(#pda45f9bdca)" d="M 318.97532 273.312 
L 320.587352 273.312 
L 320.587352 125.89561 
L 318.97532 125.89561 
z
" style="fill:#1f77b4;"/>
   </g>
   <g id="patch_164">
    <path clip-path="url(#pda45f9bdca)" d="M 320.587352 273.312 
L 322.199385 273.312 
L 322.199385 147.681284 
L 320.587352 147.681284 
z
" style="fill:#1f77b4;"/>
   </g>
   <g id="patch_165">
    <path clip-path="url(#pda45f9bdca)" d="M 322.199385 273.312 
L 323.811417 273.312 
L 323.811417 170.919335 
L 322.199385 170.919335 
z
" style="fill:#1f77b4;"/>
   </g>
   <g id="patch_166">
    <path clip-path="url(#pda45f9bdca)" d="M 323.811417 273.312 
L 325.42345 273.312 
L 325.42345 150.58604 
L 323.811417 150.58604 
z
" style="fill:#1f77b4;"/>
   </g>
   <g id="patch_167">
    <path clip-path="url(#pda45f9bdca)" d="M 325.42345 273.312 
L 327.035482 273.312 
L 327.035482 146.955095 
L 325.42345 146.955095 
z
" style="fill:#1f77b4;"/>
   </g>
   <g id="patch_168">
    <path clip-path="url(#pda45f9bdca)" d="M 327.035482 273.312 
L 328.647515 273.312 
L 328.647515 154.943175 
L 327.035482 154.943175 
z
" style="fill:#1f77b4;"/>
   </g>
   <g id="patch_169">
    <path clip-path="url(#pda45f9bdca)" d="M 328.647515 273.312 
L 330.259547 273.312 
L 330.259547 173.097903 
L 328.647515 173.097903 
z
" style="fill:#1f77b4;"/>
   </g>
   <g id="patch_170">
    <path clip-path="url(#pda45f9bdca)" d="M 330.259547 273.312 
L 331.871579 273.312 
L 331.871579 176.002659 
L 330.259547 176.002659 
z
" style="fill:#1f77b4;"/>
   </g>
   <g id="patch_171">
    <path clip-path="url(#pda45f9bdca)" d="M 331.871579 273.312 
L 333.483612 273.312 
L 333.483612 185.443117 
L 331.871579 185.443117 
z
" style="fill:#1f77b4;"/>
   </g>
   <g id="patch_172">
    <path clip-path="url(#pda45f9bdca)" d="M 333.483612 273.312 
L 335.095644 273.312 
L 335.095644 163.657444 
L 333.483612 163.657444 
z
" style="fill:#1f77b4;"/>
   </g>
   <g id="patch_173">
    <path clip-path="url(#pda45f9bdca)" d="M 335.095644 273.312 
L 336.707677 273.312 
L 336.707677 181.812172 
L 335.095644 181.812172 
z
" style="fill:#1f77b4;"/>
   </g>
   <g id="patch_174">
    <path clip-path="url(#pda45f9bdca)" d="M 336.707677 273.312 
L 338.319709 273.312 
L 338.319709 163.657444 
L 336.707677 163.657444 
z
" style="fill:#1f77b4;"/>
   </g>
   <g id="patch_175">
    <path clip-path="url(#pda45f9bdca)" d="M 338.319709 273.312 
L 339.931742 273.312 
L 339.931742 168.014579 
L 338.319709 168.014579 
z
" style="fill:#1f77b4;"/>
   </g>
   <g id="patch_176">
    <path clip-path="url(#pda45f9bdca)" d="M 339.931742 273.312 
L 341.543774 273.312 
L 341.543774 186.895496 
L 339.931742 186.895496 
z
" style="fill:#1f77b4;"/>
   </g>
   <g id="patch_177">
    <path clip-path="url(#pda45f9bdca)" d="M 341.543774 273.312 
L 343.155806 273.312 
L 343.155806 179.633605 
L 341.543774 179.633605 
z
" style="fill:#1f77b4;"/>
   </g>
   <g id="patch_178">
    <path clip-path="url(#pda45f9bdca)" d="M 343.155806 273.312 
L 344.767839 273.312 
L 344.767839 177.455037 
L 343.155806 177.455037 
z
" style="fill:#1f77b4;"/>
   </g>
   <g id="patch_179">
    <path clip-path="url(#pda45f9bdca)" d="M 344.767839 273.312 
L 346.379871 273.312 
L 346.379871 197.788332 
L 344.767839 197.788332 
z
" style="fill:#1f77b4;"/>
   </g>
   <g id="patch_180">
    <path clip-path="url(#pda45f9bdca)" d="M 346.379871 273.312 
L 347.991904 273.312 
L 347.991904 196.335954 
L 346.379871 196.335954 
z
" style="fill:#1f77b4;"/>
   </g>
   <g id="patch_181">
    <path clip-path="url(#pda45f9bdca)" d="M 347.991904 273.312 
L 349.603936 273.312 
L 349.603936 207.228791 
L 347.991904 207.228791 
z
" style="fill:#1f77b4;"/>
   </g>
   <g id="patch_182">
    <path clip-path="url(#pda45f9bdca)" d="M 349.603936 273.312 
L 351.215969 273.312 
L 351.215969 182.538361 
L 349.603936 182.538361 
z
" style="fill:#1f77b4;"/>
   </g>
   <g id="patch_183">
    <path clip-path="url(#pda45f9bdca)" d="M 351.215969 273.312 
L 352.828001 273.312 
L 352.828001 199.240711 
L 351.215969 199.240711 
z
" style="fill:#1f77b4;"/>
   </g>
   <g id="patch_184">
    <path clip-path="url(#pda45f9bdca)" d="M 352.828001 273.312 
L 354.440034 273.312 
L 354.440034 220.300195 
L 352.828001 220.300195 
z
" style="fill:#1f77b4;"/>
   </g>
   <g id="patch_185">
    <path clip-path="url(#pda45f9bdca)" d="M 354.440034 273.312 
L 356.052066 273.312 
L 356.052066 201.419278 
L 354.440034 201.419278 
z
" style="fill:#1f77b4;"/>
   </g>
   <g id="patch_186">
    <path clip-path="url(#pda45f9bdca)" d="M 356.052066 273.312 
L 357.664098 273.312 
L 357.664098 217.395438 
L 356.052066 217.395438 
z
" style="fill:#1f77b4;"/>
   </g>
   <g id="patch_187">
    <path clip-path="url(#pda45f9bdca)" d="M 357.664098 273.312 
L 359.276131 273.312 
L 359.276131 218.847817 
L 357.664098 218.847817 
z
" style="fill:#1f77b4;"/>
   </g>
   <g id="patch_188">
    <path clip-path="url(#pda45f9bdca)" d="M 359.276131 273.312 
L 360.888163 273.312 
L 360.888163 227.562086 
L 359.276131 227.562086 
z
" style="fill:#1f77b4;"/>
   </g>
   <g id="patch_189">
    <path clip-path="url(#pda45f9bdca)" d="M 360.888163 273.312 
L 362.500196 273.312 
L 362.500196 221.752573 
L 360.888163 221.752573 
z
" style="fill:#1f77b4;"/>
   </g>
   <g id="patch_190">
    <path clip-path="url(#pda45f9bdca)" d="M 362.500196 273.312 
L 364.112228 273.312 
L 364.112228 226.109708 
L 362.500196 226.109708 
z
" style="fill:#1f77b4;"/>
   </g>
   <g id="patch_191">
    <path clip-path="url(#pda45f9bdca)" d="M 364.112228 273.312 
L 365.724261 273.312 
L 365.724261 234.097788 
L 364.112228 234.097788 
z
" style="fill:#1f77b4;"/>
   </g>
   <g id="patch_192">
    <path clip-path="url(#pda45f9bdca)" d="M 365.724261 273.312 
L 367.336293 273.312 
L 367.336293 239.907301 
L 365.724261 239.907301 
z
" style="fill:#1f77b4;"/>
   </g>
   <g id="patch_193">
    <path clip-path="url(#pda45f9bdca)" d="M 367.336293 273.312 
L 368.948326 273.312 
L 368.948326 235.550166 
L 367.336293 235.550166 
z
" style="fill:#1f77b4;"/>
   </g>
   <g id="patch_194">
    <path clip-path="url(#pda45f9bdca)" d="M 368.948326 273.312 
L 370.560358 273.312 
L 370.560358 233.371599 
L 368.948326 233.371599 
z
" style="fill:#1f77b4;"/>
   </g>
   <g id="patch_195">
    <path clip-path="url(#pda45f9bdca)" d="M 370.560358 273.312 
L 372.17239 273.312 
L 372.17239 247.895381 
L 370.560358 247.895381 
z
" style="fill:#1f77b4;"/>
   </g>
   <g id="patch_196">
    <path clip-path="url(#pda45f9bdca)" d="M 372.17239 273.312 
L 373.784423 273.312 
L 373.784423 250.800138 
L 372.17239 250.800138 
z
" style="fill:#1f77b4;"/>
   </g>
   <g id="patch_197">
    <path clip-path="url(#pda45f9bdca)" d="M 373.784423 273.312 
L 375.396455 273.312 
L 375.396455 244.990625 
L 373.784423 244.990625 
z
" style="fill:#1f77b4;"/>
   </g>
   <g id="patch_198">
    <path clip-path="url(#pda45f9bdca)" d="M 375.396455 273.312 
L 377.008488 273.312 
L 377.008488 246.443003 
L 375.396455 246.443003 
z
" style="fill:#1f77b4;"/>
   </g>
   <g id="patch_199">
    <path clip-path="url(#pda45f9bdca)" d="M 377.008488 273.312 
L 378.62052 273.312 
L 378.62052 255.883461 
L 377.008488 255.883461 
z
" style="fill:#1f77b4;"/>
   </g>
   <g id="patch_200">
    <path clip-path="url(#pda45f9bdca)" d="M 378.62052 273.312 
L 380.232553 273.312 
L 380.232553 257.33584 
L 378.62052 257.33584 
z
" style="fill:#1f77b4;"/>
   </g>
   <g id="patch_201">
    <path clip-path="url(#pda45f9bdca)" d="M 380.232553 273.312 
L 381.844585 273.312 
L 381.844585 263.871542 
L 380.232553 263.871542 
z
" style="fill:#1f77b4;"/>
   </g>
   <g id="patch_202">
    <path clip-path="url(#pda45f9bdca)" d="M 381.844585 273.312 
L 383.456617 273.312 
L 383.456617 268.228676 
L 381.844585 268.228676 
z
" style="fill:#1f77b4;"/>
   </g>
   <g id="matplotlib.axis_1">
    <g id="xtick_1">
     <g id="line2d_1">
      <defs>
       <path d="M 0 0 
L 0 3.5 
" id="m0a83617153" style="stroke:#000000;stroke-width:0.8;"/>
      </defs>
      <g>
       <use style="stroke:#000000;stroke-width:0.8;" x="60.013977" xlink:href="#m0a83617153" y="273.312"/>
      </g>
     </g>
     <g id="text_1">
      <!-- 0.0 -->
      <g transform="translate(52.062415 287.910437)scale(0.1 -0.1)">
       <defs>
        <path d="M 2034 4250 
Q 1547 4250 1301 3770 
Q 1056 3291 1056 2328 
Q 1056 1369 1301 889 
Q 1547 409 2034 409 
Q 2525 409 2770 889 
Q 3016 1369 3016 2328 
Q 3016 3291 2770 3770 
Q 2525 4250 2034 4250 
z
M 2034 4750 
Q 2819 4750 3233 4129 
Q 3647 3509 3647 2328 
Q 3647 1150 3233 529 
Q 2819 -91 2034 -91 
Q 1250 -91 836 529 
Q 422 1150 422 2328 
Q 422 3509 836 4129 
Q 1250 4750 2034 4750 
z
" id="DejaVuSans-30" transform="scale(0.015625)"/>
        <path d="M 684 794 
L 1344 794 
L 1344 0 
L 684 0 
L 684 794 
z
" id="DejaVuSans-2e" transform="scale(0.015625)"/>
       </defs>
       <use xlink:href="#DejaVuSans-30"/>
       <use x="63.623047" xlink:href="#DejaVuSans-2e"/>
       <use x="95.410156" xlink:href="#DejaVuSans-30"/>
      </g>
     </g>
    </g>
    <g id="xtick_2">
     <g id="line2d_2">
      <g>
       <use style="stroke:#000000;stroke-width:0.8;" x="101.350278" xlink:href="#m0a83617153" y="273.312"/>
      </g>
     </g>
     <g id="text_2">
      <!-- 0.2 -->
      <g transform="translate(93.398715 287.910437)scale(0.1 -0.1)">
       <defs>
        <path d="M 1228 531 
L 3431 531 
L 3431 0 
L 469 0 
L 469 531 
Q 828 903 1448 1529 
Q 2069 2156 2228 2338 
Q 2531 2678 2651 2914 
Q 2772 3150 2772 3378 
Q 2772 3750 2511 3984 
Q 2250 4219 1831 4219 
Q 1534 4219 1204 4116 
Q 875 4013 500 3803 
L 500 4441 
Q 881 4594 1212 4672 
Q 1544 4750 1819 4750 
Q 2544 4750 2975 4387 
Q 3406 4025 3406 3419 
Q 3406 3131 3298 2873 
Q 3191 2616 2906 2266 
Q 2828 2175 2409 1742 
Q 1991 1309 1228 531 
z
" id="DejaVuSans-32" transform="scale(0.015625)"/>
       </defs>
       <use xlink:href="#DejaVuSans-30"/>
       <use x="63.623047" xlink:href="#DejaVuSans-2e"/>
       <use x="95.410156" xlink:href="#DejaVuSans-32"/>
      </g>
     </g>
    </g>
    <g id="xtick_3">
     <g id="line2d_3">
      <g>
       <use style="stroke:#000000;stroke-width:0.8;" x="142.686578" xlink:href="#m0a83617153" y="273.312"/>
      </g>
     </g>
     <g id="text_3">
      <!-- 0.4 -->
      <g transform="translate(134.735016 287.910437)scale(0.1 -0.1)">
       <defs>
        <path d="M 2419 4116 
L 825 1625 
L 2419 1625 
L 2419 4116 
z
M 2253 4666 
L 3047 4666 
L 3047 1625 
L 3713 1625 
L 3713 1100 
L 3047 1100 
L 3047 0 
L 2419 0 
L 2419 1100 
L 313 1100 
L 313 1709 
L 2253 4666 
z
" id="DejaVuSans-34" transform="scale(0.015625)"/>
       </defs>
       <use xlink:href="#DejaVuSans-30"/>
       <use x="63.623047" xlink:href="#DejaVuSans-2e"/>
       <use x="95.410156" xlink:href="#DejaVuSans-34"/>
      </g>
     </g>
    </g>
    <g id="xtick_4">
     <g id="line2d_4">
      <g>
       <use style="stroke:#000000;stroke-width:0.8;" x="184.022879" xlink:href="#m0a83617153" y="273.312"/>
      </g>
     </g>
     <g id="text_4">
      <!-- 0.6 -->
      <g transform="translate(176.071316 287.910437)scale(0.1 -0.1)">
       <defs>
        <path d="M 2113 2584 
Q 1688 2584 1439 2293 
Q 1191 2003 1191 1497 
Q 1191 994 1439 701 
Q 1688 409 2113 409 
Q 2538 409 2786 701 
Q 3034 994 3034 1497 
Q 3034 2003 2786 2293 
Q 2538 2584 2113 2584 
z
M 3366 4563 
L 3366 3988 
Q 3128 4100 2886 4159 
Q 2644 4219 2406 4219 
Q 1781 4219 1451 3797 
Q 1122 3375 1075 2522 
Q 1259 2794 1537 2939 
Q 1816 3084 2150 3084 
Q 2853 3084 3261 2657 
Q 3669 2231 3669 1497 
Q 3669 778 3244 343 
Q 2819 -91 2113 -91 
Q 1303 -91 875 529 
Q 447 1150 447 2328 
Q 447 3434 972 4092 
Q 1497 4750 2381 4750 
Q 2619 4750 2861 4703 
Q 3103 4656 3366 4563 
z
" id="DejaVuSans-36" transform="scale(0.015625)"/>
       </defs>
       <use xlink:href="#DejaVuSans-30"/>
       <use x="63.623047" xlink:href="#DejaVuSans-2e"/>
       <use x="95.410156" xlink:href="#DejaVuSans-36"/>
      </g>
     </g>
    </g>
    <g id="xtick_5">
     <g id="line2d_5">
      <g>
       <use style="stroke:#000000;stroke-width:0.8;" x="225.35918" xlink:href="#m0a83617153" y="273.312"/>
      </g>
     </g>
     <g id="text_5">
      <!-- 0.8 -->
      <g transform="translate(217.407617 287.910437)scale(0.1 -0.1)">
       <defs>
        <path d="M 2034 2216 
Q 1584 2216 1326 1975 
Q 1069 1734 1069 1313 
Q 1069 891 1326 650 
Q 1584 409 2034 409 
Q 2484 409 2743 651 
Q 3003 894 3003 1313 
Q 3003 1734 2745 1975 
Q 2488 2216 2034 2216 
z
M 1403 2484 
Q 997 2584 770 2862 
Q 544 3141 544 3541 
Q 544 4100 942 4425 
Q 1341 4750 2034 4750 
Q 2731 4750 3128 4425 
Q 3525 4100 3525 3541 
Q 3525 3141 3298 2862 
Q 3072 2584 2669 2484 
Q 3125 2378 3379 2068 
Q 3634 1759 3634 1313 
Q 3634 634 3220 271 
Q 2806 -91 2034 -91 
Q 1263 -91 848 271 
Q 434 634 434 1313 
Q 434 1759 690 2068 
Q 947 2378 1403 2484 
z
M 1172 3481 
Q 1172 3119 1398 2916 
Q 1625 2713 2034 2713 
Q 2441 2713 2670 2916 
Q 2900 3119 2900 3481 
Q 2900 3844 2670 4047 
Q 2441 4250 2034 4250 
Q 1625 4250 1398 4047 
Q 1172 3844 1172 3481 
z
" id="DejaVuSans-38" transform="scale(0.015625)"/>
       </defs>
       <use xlink:href="#DejaVuSans-30"/>
       <use x="63.623047" xlink:href="#DejaVuSans-2e"/>
       <use x="95.410156" xlink:href="#DejaVuSans-38"/>
      </g>
     </g>
    </g>
    <g id="xtick_6">
     <g id="line2d_6">
      <g>
       <use style="stroke:#000000;stroke-width:0.8;" x="266.69548" xlink:href="#m0a83617153" y="273.312"/>
      </g>
     </g>
     <g id="text_6">
      <!-- 1.0 -->
      <g transform="translate(258.743918 287.910437)scale(0.1 -0.1)">
       <defs>
        <path d="M 794 531 
L 1825 531 
L 1825 4091 
L 703 3866 
L 703 4441 
L 1819 4666 
L 2450 4666 
L 2450 531 
L 3481 531 
L 3481 0 
L 794 0 
L 794 531 
z
" id="DejaVuSans-31" transform="scale(0.015625)"/>
       </defs>
       <use xlink:href="#DejaVuSans-31"/>
       <use x="63.623047" xlink:href="#DejaVuSans-2e"/>
       <use x="95.410156" xlink:href="#DejaVuSans-30"/>
      </g>
     </g>
    </g>
    <g id="xtick_7">
     <g id="line2d_7">
      <g>
       <use style="stroke:#000000;stroke-width:0.8;" x="308.031781" xlink:href="#m0a83617153" y="273.312"/>
      </g>
     </g>
     <g id="text_7">
      <!-- 1.2 -->
      <g transform="translate(300.080218 287.910437)scale(0.1 -0.1)">
       <use xlink:href="#DejaVuSans-31"/>
       <use x="63.623047" xlink:href="#DejaVuSans-2e"/>
       <use x="95.410156" xlink:href="#DejaVuSans-32"/>
      </g>
     </g>
    </g>
    <g id="xtick_8">
     <g id="line2d_8">
      <g>
       <use style="stroke:#000000;stroke-width:0.8;" x="349.368081" xlink:href="#m0a83617153" y="273.312"/>
      </g>
     </g>
     <g id="text_8">
      <!-- 1.4 -->
      <g transform="translate(341.416519 287.910437)scale(0.1 -0.1)">
       <use xlink:href="#DejaVuSans-31"/>
       <use x="63.623047" xlink:href="#DejaVuSans-2e"/>
       <use x="95.410156" xlink:href="#DejaVuSans-34"/>
      </g>
     </g>
    </g>
    <g id="xtick_9">
     <g id="line2d_9">
      <g>
       <use style="stroke:#000000;stroke-width:0.8;" x="390.704382" xlink:href="#m0a83617153" y="273.312"/>
      </g>
     </g>
     <g id="text_9">
      <!-- 1.6 -->
      <g transform="translate(382.752819 287.910437)scale(0.1 -0.1)">
       <use xlink:href="#DejaVuSans-31"/>
       <use x="63.623047" xlink:href="#DejaVuSans-2e"/>
       <use x="95.410156" xlink:href="#DejaVuSans-36"/>
      </g>
     </g>
    </g>
    <g id="text_10">
     <!-- Angle with normal (rad) -->
     <g transform="translate(163.023281 301.588562)scale(0.1 -0.1)">
      <defs>
       <path d="M 2188 4044 
L 1331 1722 
L 3047 1722 
L 2188 4044 
z
M 1831 4666 
L 2547 4666 
L 4325 0 
L 3669 0 
L 3244 1197 
L 1141 1197 
L 716 0 
L 50 0 
L 1831 4666 
z
" id="DejaVuSans-41" transform="scale(0.015625)"/>
       <path d="M 3513 2113 
L 3513 0 
L 2938 0 
L 2938 2094 
Q 2938 2591 2744 2837 
Q 2550 3084 2163 3084 
Q 1697 3084 1428 2787 
Q 1159 2491 1159 1978 
L 1159 0 
L 581 0 
L 581 3500 
L 1159 3500 
L 1159 2956 
Q 1366 3272 1645 3428 
Q 1925 3584 2291 3584 
Q 2894 3584 3203 3211 
Q 3513 2838 3513 2113 
z
" id="DejaVuSans-6e" transform="scale(0.015625)"/>
       <path d="M 2906 1791 
Q 2906 2416 2648 2759 
Q 2391 3103 1925 3103 
Q 1463 3103 1205 2759 
Q 947 2416 947 1791 
Q 947 1169 1205 825 
Q 1463 481 1925 481 
Q 2391 481 2648 825 
Q 2906 1169 2906 1791 
z
M 3481 434 
Q 3481 -459 3084 -895 
Q 2688 -1331 1869 -1331 
Q 1566 -1331 1297 -1286 
Q 1028 -1241 775 -1147 
L 775 -588 
Q 1028 -725 1275 -790 
Q 1522 -856 1778 -856 
Q 2344 -856 2625 -561 
Q 2906 -266 2906 331 
L 2906 616 
Q 2728 306 2450 153 
Q 2172 0 1784 0 
Q 1141 0 747 490 
Q 353 981 353 1791 
Q 353 2603 747 3093 
Q 1141 3584 1784 3584 
Q 2172 3584 2450 3431 
Q 2728 3278 2906 2969 
L 2906 3500 
L 3481 3500 
L 3481 434 
z
" id="DejaVuSans-67" transform="scale(0.015625)"/>
       <path d="M 603 4863 
L 1178 4863 
L 1178 0 
L 603 0 
L 603 4863 
z
" id="DejaVuSans-6c" transform="scale(0.015625)"/>
       <path d="M 3597 1894 
L 3597 1613 
L 953 1613 
Q 991 1019 1311 708 
Q 1631 397 2203 397 
Q 2534 397 2845 478 
Q 3156 559 3463 722 
L 3463 178 
Q 3153 47 2828 -22 
Q 2503 -91 2169 -91 
Q 1331 -91 842 396 
Q 353 884 353 1716 
Q 353 2575 817 3079 
Q 1281 3584 2069 3584 
Q 2775 3584 3186 3129 
Q 3597 2675 3597 1894 
z
M 3022 2063 
Q 3016 2534 2758 2815 
Q 2500 3097 2075 3097 
Q 1594 3097 1305 2825 
Q 1016 2553 972 2059 
L 3022 2063 
z
" id="DejaVuSans-65" transform="scale(0.015625)"/>
       <path id="DejaVuSans-20" transform="scale(0.015625)"/>
       <path d="M 269 3500 
L 844 3500 
L 1563 769 
L 2278 3500 
L 2956 3500 
L 3675 769 
L 4391 3500 
L 4966 3500 
L 4050 0 
L 3372 0 
L 2619 2869 
L 1863 0 
L 1184 0 
L 269 3500 
z
" id="DejaVuSans-77" transform="scale(0.015625)"/>
       <path d="M 603 3500 
L 1178 3500 
L 1178 0 
L 603 0 
L 603 3500 
z
M 603 4863 
L 1178 4863 
L 1178 4134 
L 603 4134 
L 603 4863 
z
" id="DejaVuSans-69" transform="scale(0.015625)"/>
       <path d="M 1172 4494 
L 1172 3500 
L 2356 3500 
L 2356 3053 
L 1172 3053 
L 1172 1153 
Q 1172 725 1289 603 
Q 1406 481 1766 481 
L 2356 481 
L 2356 0 
L 1766 0 
Q 1100 0 847 248 
Q 594 497 594 1153 
L 594 3053 
L 172 3053 
L 172 3500 
L 594 3500 
L 594 4494 
L 1172 4494 
z
" id="DejaVuSans-74" transform="scale(0.015625)"/>
       <path d="M 3513 2113 
L 3513 0 
L 2938 0 
L 2938 2094 
Q 2938 2591 2744 2837 
Q 2550 3084 2163 3084 
Q 1697 3084 1428 2787 
Q 1159 2491 1159 1978 
L 1159 0 
L 581 0 
L 581 4863 
L 1159 4863 
L 1159 2956 
Q 1366 3272 1645 3428 
Q 1925 3584 2291 3584 
Q 2894 3584 3203 3211 
Q 3513 2838 3513 2113 
z
" id="DejaVuSans-68" transform="scale(0.015625)"/>
       <path d="M 1959 3097 
Q 1497 3097 1228 2736 
Q 959 2375 959 1747 
Q 959 1119 1226 758 
Q 1494 397 1959 397 
Q 2419 397 2687 759 
Q 2956 1122 2956 1747 
Q 2956 2369 2687 2733 
Q 2419 3097 1959 3097 
z
M 1959 3584 
Q 2709 3584 3137 3096 
Q 3566 2609 3566 1747 
Q 3566 888 3137 398 
Q 2709 -91 1959 -91 
Q 1206 -91 779 398 
Q 353 888 353 1747 
Q 353 2609 779 3096 
Q 1206 3584 1959 3584 
z
" id="DejaVuSans-6f" transform="scale(0.015625)"/>
       <path d="M 2631 2963 
Q 2534 3019 2420 3045 
Q 2306 3072 2169 3072 
Q 1681 3072 1420 2755 
Q 1159 2438 1159 1844 
L 1159 0 
L 581 0 
L 581 3500 
L 1159 3500 
L 1159 2956 
Q 1341 3275 1631 3429 
Q 1922 3584 2338 3584 
Q 2397 3584 2469 3576 
Q 2541 3569 2628 3553 
L 2631 2963 
z
" id="DejaVuSans-72" transform="scale(0.015625)"/>
       <path d="M 3328 2828 
Q 3544 3216 3844 3400 
Q 4144 3584 4550 3584 
Q 5097 3584 5394 3201 
Q 5691 2819 5691 2113 
L 5691 0 
L 5113 0 
L 5113 2094 
Q 5113 2597 4934 2840 
Q 4756 3084 4391 3084 
Q 3944 3084 3684 2787 
Q 3425 2491 3425 1978 
L 3425 0 
L 2847 0 
L 2847 2094 
Q 2847 2600 2669 2842 
Q 2491 3084 2119 3084 
Q 1678 3084 1418 2786 
Q 1159 2488 1159 1978 
L 1159 0 
L 581 0 
L 581 3500 
L 1159 3500 
L 1159 2956 
Q 1356 3278 1631 3431 
Q 1906 3584 2284 3584 
Q 2666 3584 2933 3390 
Q 3200 3197 3328 2828 
z
" id="DejaVuSans-6d" transform="scale(0.015625)"/>
       <path d="M 2194 1759 
Q 1497 1759 1228 1600 
Q 959 1441 959 1056 
Q 959 750 1161 570 
Q 1363 391 1709 391 
Q 2188 391 2477 730 
Q 2766 1069 2766 1631 
L 2766 1759 
L 2194 1759 
z
M 3341 1997 
L 3341 0 
L 2766 0 
L 2766 531 
Q 2569 213 2275 61 
Q 1981 -91 1556 -91 
Q 1019 -91 701 211 
Q 384 513 384 1019 
Q 384 1609 779 1909 
Q 1175 2209 1959 2209 
L 2766 2209 
L 2766 2266 
Q 2766 2663 2505 2880 
Q 2244 3097 1772 3097 
Q 1472 3097 1187 3025 
Q 903 2953 641 2809 
L 641 3341 
Q 956 3463 1253 3523 
Q 1550 3584 1831 3584 
Q 2591 3584 2966 3190 
Q 3341 2797 3341 1997 
z
" id="DejaVuSans-61" transform="scale(0.015625)"/>
       <path d="M 1984 4856 
Q 1566 4138 1362 3434 
Q 1159 2731 1159 2009 
Q 1159 1288 1364 580 
Q 1569 -128 1984 -844 
L 1484 -844 
Q 1016 -109 783 600 
Q 550 1309 550 2009 
Q 550 2706 781 3412 
Q 1013 4119 1484 4856 
L 1984 4856 
z
" id="DejaVuSans-28" transform="scale(0.015625)"/>
       <path d="M 2906 2969 
L 2906 4863 
L 3481 4863 
L 3481 0 
L 2906 0 
L 2906 525 
Q 2725 213 2448 61 
Q 2172 -91 1784 -91 
Q 1150 -91 751 415 
Q 353 922 353 1747 
Q 353 2572 751 3078 
Q 1150 3584 1784 3584 
Q 2172 3584 2448 3432 
Q 2725 3281 2906 2969 
z
M 947 1747 
Q 947 1113 1208 752 
Q 1469 391 1925 391 
Q 2381 391 2643 752 
Q 2906 1113 2906 1747 
Q 2906 2381 2643 2742 
Q 2381 3103 1925 3103 
Q 1469 3103 1208 2742 
Q 947 2381 947 1747 
z
" id="DejaVuSans-64" transform="scale(0.015625)"/>
       <path d="M 513 4856 
L 1013 4856 
Q 1481 4119 1714 3412 
Q 1947 2706 1947 2009 
Q 1947 1309 1714 600 
Q 1481 -109 1013 -844 
L 513 -844 
Q 928 -128 1133 580 
Q 1338 1288 1338 2009 
Q 1338 2731 1133 3434 
Q 928 4138 513 4856 
z
" id="DejaVuSans-29" transform="scale(0.015625)"/>
      </defs>
      <use xlink:href="#DejaVuSans-41"/>
      <use x="68.408203" xlink:href="#DejaVuSans-6e"/>
      <use x="131.787109" xlink:href="#DejaVuSans-67"/>
      <use x="195.263672" xlink:href="#DejaVuSans-6c"/>
      <use x="223.046875" xlink:href="#DejaVuSans-65"/>
      <use x="284.570312" xlink:href="#DejaVuSans-20"/>
      <use x="316.357422" xlink:href="#DejaVuSans-77"/>
      <use x="398.144531" xlink:href="#DejaVuSans-69"/>
      <use x="425.927734" xlink:href="#DejaVuSans-74"/>
      <use x="465.136719" xlink:href="#DejaVuSans-68"/>
      <use x="528.515625" xlink:href="#DejaVuSans-20"/>
      <use x="560.302734" xlink:href="#DejaVuSans-6e"/>
      <use x="623.681641" xlink:href="#DejaVuSans-6f"/>
      <use x="684.863281" xlink:href="#DejaVuSans-72"/>
      <use x="724.226562" xlink:href="#DejaVuSans-6d"/>
      <use x="821.638672" xlink:href="#DejaVuSans-61"/>
      <use x="882.917969" xlink:href="#DejaVuSans-6c"/>
      <use x="910.701172" xlink:href="#DejaVuSans-20"/>
      <use x="942.488281" xlink:href="#DejaVuSans-28"/>
      <use x="981.501953" xlink:href="#DejaVuSans-72"/>
      <use x="1022.615234" xlink:href="#DejaVuSans-61"/>
      <use x="1083.894531" xlink:href="#DejaVuSans-64"/>
      <use x="1147.371094" xlink:href="#DejaVuSans-29"/>
     </g>
    </g>
   </g>
   <g id="matplotlib.axis_2">
    <g id="ytick_1">
     <g id="line2d_10">
      <defs>
       <path d="M 0 0 
L -3.5 0 
" id="m80bebdd119" style="stroke:#000000;stroke-width:0.8;"/>
      </defs>
      <g>
       <use style="stroke:#000000;stroke-width:0.8;" x="43.78125" xlink:href="#m80bebdd119" y="273.312"/>
      </g>
     </g>
     <g id="text_11">
      <!-- 0.0 -->
      <g transform="translate(20.878125 277.111219)scale(0.1 -0.1)">
       <use xlink:href="#DejaVuSans-30"/>
       <use x="63.623047" xlink:href="#DejaVuSans-2e"/>
       <use x="95.410156" xlink:href="#DejaVuSans-30"/>
      </g>
     </g>
    </g>
    <g id="ytick_2">
     <g id="line2d_11">
      <g>
       <use style="stroke:#000000;stroke-width:0.8;" x="43.78125" xlink:href="#m80bebdd119" y="228.00014"/>
      </g>
     </g>
     <g id="text_12">
      <!-- 0.2 -->
      <g transform="translate(20.878125 231.799359)scale(0.1 -0.1)">
       <use xlink:href="#DejaVuSans-30"/>
       <use x="63.623047" xlink:href="#DejaVuSans-2e"/>
       <use x="95.410156" xlink:href="#DejaVuSans-32"/>
      </g>
     </g>
    </g>
    <g id="ytick_3">
     <g id="line2d_12">
      <g>
       <use style="stroke:#000000;stroke-width:0.8;" x="43.78125" xlink:href="#m80bebdd119" y="182.688281"/>
      </g>
     </g>
     <g id="text_13">
      <!-- 0.4 -->
      <g transform="translate(20.878125 186.487499)scale(0.1 -0.1)">
       <use xlink:href="#DejaVuSans-30"/>
       <use x="63.623047" xlink:href="#DejaVuSans-2e"/>
       <use x="95.410156" xlink:href="#DejaVuSans-34"/>
      </g>
     </g>
    </g>
    <g id="ytick_4">
     <g id="line2d_13">
      <g>
       <use style="stroke:#000000;stroke-width:0.8;" x="43.78125" xlink:href="#m80bebdd119" y="137.376421"/>
      </g>
     </g>
     <g id="text_14">
      <!-- 0.6 -->
      <g transform="translate(20.878125 141.17564)scale(0.1 -0.1)">
       <use xlink:href="#DejaVuSans-30"/>
       <use x="63.623047" xlink:href="#DejaVuSans-2e"/>
       <use x="95.410156" xlink:href="#DejaVuSans-36"/>
      </g>
     </g>
    </g>
    <g id="ytick_5">
     <g id="line2d_14">
      <g>
       <use style="stroke:#000000;stroke-width:0.8;" x="43.78125" xlink:href="#m80bebdd119" y="92.064561"/>
      </g>
     </g>
     <g id="text_15">
      <!-- 0.8 -->
      <g transform="translate(20.878125 95.86378)scale(0.1 -0.1)">
       <use xlink:href="#DejaVuSans-30"/>
       <use x="63.623047" xlink:href="#DejaVuSans-2e"/>
       <use x="95.410156" xlink:href="#DejaVuSans-38"/>
      </g>
     </g>
    </g>
    <g id="ytick_6">
     <g id="line2d_15">
      <g>
       <use style="stroke:#000000;stroke-width:0.8;" x="43.78125" xlink:href="#m80bebdd119" y="46.752702"/>
      </g>
     </g>
     <g id="text_16">
      <!-- 1.0 -->
      <g transform="translate(20.878125 50.55192)scale(0.1 -0.1)">
       <use xlink:href="#DejaVuSans-31"/>
       <use x="63.623047" xlink:href="#DejaVuSans-2e"/>
       <use x="95.410156" xlink:href="#DejaVuSans-30"/>
      </g>
     </g>
    </g>
    <g id="text_17">
     <!-- Probability density -->
     <g transform="translate(14.798438 186.606781)rotate(-90)scale(0.1 -0.1)">
      <defs>
       <path d="M 1259 4147 
L 1259 2394 
L 2053 2394 
Q 2494 2394 2734 2622 
Q 2975 2850 2975 3272 
Q 2975 3691 2734 3919 
Q 2494 4147 2053 4147 
L 1259 4147 
z
M 628 4666 
L 2053 4666 
Q 2838 4666 3239 4311 
Q 3641 3956 3641 3272 
Q 3641 2581 3239 2228 
Q 2838 1875 2053 1875 
L 1259 1875 
L 1259 0 
L 628 0 
L 628 4666 
z
" id="DejaVuSans-50" transform="scale(0.015625)"/>
       <path d="M 3116 1747 
Q 3116 2381 2855 2742 
Q 2594 3103 2138 3103 
Q 1681 3103 1420 2742 
Q 1159 2381 1159 1747 
Q 1159 1113 1420 752 
Q 1681 391 2138 391 
Q 2594 391 2855 752 
Q 3116 1113 3116 1747 
z
M 1159 2969 
Q 1341 3281 1617 3432 
Q 1894 3584 2278 3584 
Q 2916 3584 3314 3078 
Q 3713 2572 3713 1747 
Q 3713 922 3314 415 
Q 2916 -91 2278 -91 
Q 1894 -91 1617 61 
Q 1341 213 1159 525 
L 1159 0 
L 581 0 
L 581 4863 
L 1159 4863 
L 1159 2969 
z
" id="DejaVuSans-62" transform="scale(0.015625)"/>
       <path d="M 2059 -325 
Q 1816 -950 1584 -1140 
Q 1353 -1331 966 -1331 
L 506 -1331 
L 506 -850 
L 844 -850 
Q 1081 -850 1212 -737 
Q 1344 -625 1503 -206 
L 1606 56 
L 191 3500 
L 800 3500 
L 1894 763 
L 2988 3500 
L 3597 3500 
L 2059 -325 
z
" id="DejaVuSans-79" transform="scale(0.015625)"/>
       <path d="M 2834 3397 
L 2834 2853 
Q 2591 2978 2328 3040 
Q 2066 3103 1784 3103 
Q 1356 3103 1142 2972 
Q 928 2841 928 2578 
Q 928 2378 1081 2264 
Q 1234 2150 1697 2047 
L 1894 2003 
Q 2506 1872 2764 1633 
Q 3022 1394 3022 966 
Q 3022 478 2636 193 
Q 2250 -91 1575 -91 
Q 1294 -91 989 -36 
Q 684 19 347 128 
L 347 722 
Q 666 556 975 473 
Q 1284 391 1588 391 
Q 1994 391 2212 530 
Q 2431 669 2431 922 
Q 2431 1156 2273 1281 
Q 2116 1406 1581 1522 
L 1381 1569 
Q 847 1681 609 1914 
Q 372 2147 372 2553 
Q 372 3047 722 3315 
Q 1072 3584 1716 3584 
Q 2034 3584 2315 3537 
Q 2597 3491 2834 3397 
z
" id="DejaVuSans-73" transform="scale(0.015625)"/>
      </defs>
      <use xlink:href="#DejaVuSans-50"/>
      <use x="58.552734" xlink:href="#DejaVuSans-72"/>
      <use x="97.416016" xlink:href="#DejaVuSans-6f"/>
      <use x="158.597656" xlink:href="#DejaVuSans-62"/>
      <use x="222.074219" xlink:href="#DejaVuSans-61"/>
      <use x="283.353516" xlink:href="#DejaVuSans-62"/>
      <use x="346.830078" xlink:href="#DejaVuSans-69"/>
      <use x="374.613281" xlink:href="#DejaVuSans-6c"/>
      <use x="402.396484" xlink:href="#DejaVuSans-69"/>
      <use x="430.179688" xlink:href="#DejaVuSans-74"/>
      <use x="469.388672" xlink:href="#DejaVuSans-79"/>
      <use x="528.568359" xlink:href="#DejaVuSans-20"/>
      <use x="560.355469" xlink:href="#DejaVuSans-64"/>
      <use x="623.832031" xlink:href="#DejaVuSans-65"/>
      <use x="685.355469" xlink:href="#DejaVuSans-6e"/>
      <use x="748.734375" xlink:href="#DejaVuSans-73"/>
      <use x="800.833984" xlink:href="#DejaVuSans-69"/>
      <use x="828.617188" xlink:href="#DejaVuSans-74"/>
      <use x="867.826172" xlink:href="#DejaVuSans-79"/>
     </g>
    </g>
   </g>
   <g id="line2d_16">
    <path clip-path="url(#pda45f9bdca)" d="M 60.013977 273.312 
L 79.837728 230.117417 
L 90.237073 207.992872 
L 99.01152 189.830473 
L 106.811029 174.187094 
L 113.960578 160.340999 
L 120.460169 148.220989 
L 126.63478 137.164444 
L 132.484411 127.137428 
L 138.009063 118.096884 
L 143.208736 109.992829 
L 148.408408 102.302158 
L 153.283101 95.484918 
L 158.157794 89.063288 
L 162.707507 83.439313 
L 167.257221 78.183312 
L 171.481954 73.641142 
L 175.706688 69.432635 
L 179.606442 65.850104 
L 183.506197 62.562977 
L 187.405951 59.575936 
L 190.980726 57.105072 
L 194.555501 54.892899 
L 198.130275 52.942063 
L 201.70505 51.254898 
L 204.954845 49.951623 
L 208.204641 48.869219 
L 211.454436 48.008756 
L 214.704231 47.371086 
L 217.954026 46.956839 
L 221.203822 46.766425 
L 224.453617 46.800031 
L 227.703412 47.057625 
L 230.953207 47.538952 
L 234.203003 48.243537 
L 237.452798 49.170681 
L 240.702593 50.319469 
L 243.952388 51.688764 
L 247.527163 53.448052 
L 251.101938 55.470407 
L 254.676713 57.753407 
L 258.251488 60.294323 
L 262.151242 63.356801 
L 266.050996 66.718234 
L 269.95075 70.373837 
L 274.175484 74.659987 
L 278.400218 79.278099 
L 282.624952 84.220456 
L 287.174665 89.896125 
L 291.724379 95.927256 
L 296.599071 102.77034 
L 301.473764 109.992829 
L 306.673437 118.096884 
L 312.198089 127.137428 
L 318.04772 137.164444 
L 324.222331 148.220989 
L 330.721922 160.340999 
L 337.546492 173.546927 
L 345.021021 188.507456 
L 353.145509 205.269247 
L 362.569915 225.232472 
L 374.594157 251.260413 
L 384.668523 273.312 
L 384.668523 273.312 
" style="fill:none;stroke:#ff7f0e;stroke-linecap:square;stroke-width:1.5;"/>
   </g>
   <g id="patch_203">
    <path d="M 43.78125 273.312 
L 43.78125 7.2 
" style="fill:none;stroke:#000000;stroke-linecap:square;stroke-linejoin:miter;stroke-width:0.8;"/>
   </g>
   <g id="patch_204">
    <path d="M 400.90125 273.312 
L 400.90125 7.2 
" style="fill:none;stroke:#000000;stroke-linecap:square;stroke-linejoin:miter;stroke-width:0.8;"/>
   </g>
   <g id="patch_205">
    <path d="M 43.78125 273.312 
L 400.90125 273.312 
" style="fill:none;stroke:#000000;stroke-linecap:square;stroke-linejoin:miter;stroke-width:0.8;"/>
   </g>
   <g id="patch_206">
    <path d="M 43.78125 7.2 
L 400.90125 7.2 
" style="fill:none;stroke:#000000;stroke-linecap:square;stroke-linejoin:miter;stroke-width:0.8;"/>
   </g>
  </g>
 </g>
 <defs>
  <clipPath id="pda45f9bdca">
   <rect height="266.112" width="357.12" x="43.78125" y="7.2"/>
  </clipPath>
 </defs>
</svg>
