<?xml version="1.0" encoding="utf-8" standalone="no"?>
<!DOCTYPE svg PUBLIC "-//W3C//DTD SVG 1.1//EN"
  "http://www.w3.org/Graphics/SVG/1.1/DTD/svg11.dtd">
<svg height="310.86825pt" version="1.1" viewBox="0 0 414.46375 310.86825" width="414.46375pt" xmlns="http://www.w3.org/2000/svg" xmlns:xlink="http://www.w3.org/1999/xlink">
 <metadata>
  <rdf:RDF xmlns:cc="http://creativecommons.org/ns#" xmlns:dc="http://purl.org/dc/elements/1.1/" xmlns:rdf="http://www.w3.org/1999/02/22-rdf-syntax-ns#">
   <cc:Work>
    <dc:type rdf:resource="http://purl.org/dc/dcmitype/StillImage"/>
    <dc:date>2021-07-06T19:44:04.561940</dc:date>
    <dc:format>image/svg+xml</dc:format>
    <dc:creator>
     <cc:Agent>
      <dc:title>Matplotlib v3.4.2, https://matplotlib.org/</dc:title>
     </cc:Agent>
    </dc:creator>
   </cc:Work>
  </rdf:RDF>
 </metadata>
 <defs>
  <style type="text/css">*{stroke-linecap:butt;stroke-linejoin:round;}</style>
 </defs>
 <g id="figure_1">
  <g id="patch_1">
   <path d="M 0 310.86825 
L 414.46375 310.86825 
L 414.46375 0 
L 0 0 
z
" style="fill:#ffffff;"/>
  </g>
  <g id="axes_1">
   <g id="patch_2">
    <path d="M 50.14375 273.312 
L 407.26375 273.312 
L 407.26375 7.2 
L 50.14375 7.2 
z
" style="fill:#ffffff;"/>
   </g>
   <g id="patch_3">
    <path clip-path="url(#pede04f6178)" d="M 67.97641 273.312 
L 69.591667 273.312 
L 69.591667 271.420657 
L 67.97641 271.420657 
z
" style="fill:#1f77b4;"/>
   </g>
   <g id="patch_4">
    <path clip-path="url(#pede04f6178)" d="M 69.591667 273.312 
L 71.206925 273.312 
L 71.206925 270.159761 
L 69.591667 270.159761 
z
" style="fill:#1f77b4;"/>
   </g>
   <g id="patch_5">
    <path clip-path="url(#pede04f6178)" d="M 71.206925 273.312 
L 72.822182 273.312 
L 72.822182 266.377075 
L 71.206925 266.377075 
z
" style="fill:#1f77b4;"/>
   </g>
   <g id="patch_6">
    <path clip-path="url(#pede04f6178)" d="M 72.822182 273.312 
L 74.43744 273.312 
L 74.43744 267.63797 
L 72.822182 267.63797 
z
" style="fill:#1f77b4;"/>
   </g>
   <g id="patch_7">
    <path clip-path="url(#pede04f6178)" d="M 74.43744 273.312 
L 76.052698 273.312 
L 76.052698 265.746627 
L 74.43744 265.746627 
z
" style="fill:#1f77b4;"/>
   </g>
   <g id="patch_8">
    <path clip-path="url(#pede04f6178)" d="M 76.052698 273.312 
L 77.667955 273.312 
L 77.667955 268.268418 
L 76.052698 268.268418 
z
" style="fill:#1f77b4;"/>
   </g>
   <g id="patch_9">
    <path clip-path="url(#pede04f6178)" d="M 77.667955 273.312 
L 79.283213 273.312 
L 79.283213 267.63797 
L 77.667955 267.63797 
z
" style="fill:#1f77b4;"/>
   </g>
   <g id="patch_10">
    <path clip-path="url(#pede04f6178)" d="M 79.283213 273.312 
L 80.89847 273.312 
L 80.89847 267.007522 
L 79.283213 267.007522 
z
" style="fill:#1f77b4;"/>
   </g>
   <g id="patch_11">
    <path clip-path="url(#pede04f6178)" d="M 80.89847 273.312 
L 82.513728 273.312 
L 82.513728 260.072597 
L 80.89847 260.072597 
z
" style="fill:#1f77b4;"/>
   </g>
   <g id="patch_12">
    <path clip-path="url(#pede04f6178)" d="M 82.513728 273.312 
L 84.128986 273.312 
L 84.128986 263.224836 
L 82.513728 263.224836 
z
" style="fill:#1f77b4;"/>
   </g>
   <g id="patch_13">
    <path clip-path="url(#pede04f6178)" d="M 84.128986 273.312 
L 85.744243 273.312 
L 85.744243 263.855284 
L 84.128986 263.855284 
z
" style="fill:#1f77b4;"/>
   </g>
   <g id="patch_14">
    <path clip-path="url(#pede04f6178)" d="M 85.744243 273.312 
L 87.359501 273.312 
L 87.359501 260.072597 
L 85.744243 260.072597 
z
" style="fill:#1f77b4;"/>
   </g>
   <g id="patch_15">
    <path clip-path="url(#pede04f6178)" d="M 87.359501 273.312 
L 88.974758 273.312 
L 88.974758 257.550806 
L 87.359501 257.550806 
z
" style="fill:#1f77b4;"/>
   </g>
   <g id="patch_16">
    <path clip-path="url(#pede04f6178)" d="M 88.974758 273.312 
L 90.590016 273.312 
L 90.590016 257.550806 
L 88.974758 257.550806 
z
" style="fill:#1f77b4;"/>
   </g>
   <g id="patch_17">
    <path clip-path="url(#pede04f6178)" d="M 90.590016 273.312 
L 92.205274 273.312 
L 92.205274 255.029015 
L 90.590016 255.029015 
z
" style="fill:#1f77b4;"/>
   </g>
   <g id="patch_18">
    <path clip-path="url(#pede04f6178)" d="M 92.205274 273.312 
L 93.820531 273.312 
L 93.820531 256.28991 
L 92.205274 256.28991 
z
" style="fill:#1f77b4;"/>
   </g>
   <g id="patch_19">
    <path clip-path="url(#pede04f6178)" d="M 93.820531 273.312 
L 95.435789 273.312 
L 95.435789 248.724537 
L 93.820531 248.724537 
z
" style="fill:#1f77b4;"/>
   </g>
   <g id="patch_20">
    <path clip-path="url(#pede04f6178)" d="M 95.435789 273.312 
L 97.051046 273.312 
L 97.051046 253.768119 
L 95.435789 253.768119 
z
" style="fill:#1f77b4;"/>
   </g>
   <g id="patch_21">
    <path clip-path="url(#pede04f6178)" d="M 97.051046 273.312 
L 98.666304 273.312 
L 98.666304 253.137672 
L 97.051046 253.137672 
z
" style="fill:#1f77b4;"/>
   </g>
   <g id="patch_22">
    <path clip-path="url(#pede04f6178)" d="M 98.666304 273.312 
L 100.281562 273.312 
L 100.281562 242.42006 
L 98.666304 242.42006 
z
" style="fill:#1f77b4;"/>
   </g>
   <g id="patch_23">
    <path clip-path="url(#pede04f6178)" d="M 100.281562 273.312 
L 101.896819 273.312 
L 101.896819 246.833194 
L 100.281562 246.833194 
z
" style="fill:#1f77b4;"/>
   </g>
   <g id="patch_24">
    <path clip-path="url(#pede04f6178)" d="M 101.896819 273.312 
L 103.512077 273.312 
L 103.512077 241.159164 
L 101.896819 241.159164 
z
" style="fill:#1f77b4;"/>
   </g>
   <g id="patch_25">
    <path clip-path="url(#pede04f6178)" d="M 103.512077 273.312 
L 105.127334 273.312 
L 105.127334 247.463642 
L 103.512077 247.463642 
z
" style="fill:#1f77b4;"/>
   </g>
   <g id="patch_26">
    <path clip-path="url(#pede04f6178)" d="M 105.127334 273.312 
L 106.742592 273.312 
L 106.742592 249.354985 
L 105.127334 249.354985 
z
" style="fill:#1f77b4;"/>
   </g>
   <g id="patch_27">
    <path clip-path="url(#pede04f6178)" d="M 106.742592 273.312 
L 108.35785 273.312 
L 108.35785 243.680955 
L 106.742592 243.680955 
z
" style="fill:#1f77b4;"/>
   </g>
   <g id="patch_28">
    <path clip-path="url(#pede04f6178)" d="M 108.35785 273.312 
L 109.973107 273.312 
L 109.973107 243.050507 
L 108.35785 243.050507 
z
" style="fill:#1f77b4;"/>
   </g>
   <g id="patch_29">
    <path clip-path="url(#pede04f6178)" d="M 109.973107 273.312 
L 111.588365 273.312 
L 111.588365 241.159164 
L 109.973107 241.159164 
z
" style="fill:#1f77b4;"/>
   </g>
   <g id="patch_30">
    <path clip-path="url(#pede04f6178)" d="M 111.588365 273.312 
L 113.203622 273.312 
L 113.203622 239.267821 
L 111.588365 239.267821 
z
" style="fill:#1f77b4;"/>
   </g>
   <g id="patch_31">
    <path clip-path="url(#pede04f6178)" d="M 113.203622 273.312 
L 114.81888 273.312 
L 114.81888 234.224239 
L 113.203622 234.224239 
z
" style="fill:#1f77b4;"/>
   </g>
   <g id="patch_32">
    <path clip-path="url(#pede04f6178)" d="M 114.81888 273.312 
L 116.434138 273.312 
L 116.434138 239.898269 
L 114.81888 239.898269 
z
" style="fill:#1f77b4;"/>
   </g>
   <g id="patch_33">
    <path clip-path="url(#pede04f6178)" d="M 116.434138 273.312 
L 118.049395 273.312 
L 118.049395 218.463045 
L 116.434138 218.463045 
z
" style="fill:#1f77b4;"/>
   </g>
   <g id="patch_34">
    <path clip-path="url(#pede04f6178)" d="M 118.049395 273.312 
L 119.664653 273.312 
L 119.664653 227.919761 
L 118.049395 227.919761 
z
" style="fill:#1f77b4;"/>
   </g>
   <g id="patch_35">
    <path clip-path="url(#pede04f6178)" d="M 119.664653 273.312 
L 121.27991 273.312 
L 121.27991 232.963343 
L 119.664653 232.963343 
z
" style="fill:#1f77b4;"/>
   </g>
   <g id="patch_36">
    <path clip-path="url(#pede04f6178)" d="M 121.27991 273.312 
L 122.895168 273.312 
L 122.895168 228.550209 
L 121.27991 228.550209 
z
" style="fill:#1f77b4;"/>
   </g>
   <g id="patch_37">
    <path clip-path="url(#pede04f6178)" d="M 122.895168 273.312 
L 124.510426 273.312 
L 124.510426 220.984836 
L 122.895168 220.984836 
z
" style="fill:#1f77b4;"/>
   </g>
   <g id="patch_38">
    <path clip-path="url(#pede04f6178)" d="M 124.510426 273.312 
L 126.125683 273.312 
L 126.125683 231.072 
L 124.510426 231.072 
z
" style="fill:#1f77b4;"/>
   </g>
   <g id="patch_39">
    <path clip-path="url(#pede04f6178)" d="M 126.125683 273.312 
L 127.740941 273.312 
L 127.740941 224.137075 
L 126.125683 224.137075 
z
" style="fill:#1f77b4;"/>
   </g>
   <g id="patch_40">
    <path clip-path="url(#pede04f6178)" d="M 127.740941 273.312 
L 129.356198 273.312 
L 129.356198 219.093493 
L 127.740941 219.093493 
z
" style="fill:#1f77b4;"/>
   </g>
   <g id="patch_41">
    <path clip-path="url(#pede04f6178)" d="M 129.356198 273.312 
L 130.971456 273.312 
L 130.971456 217.202149 
L 129.356198 217.202149 
z
" style="fill:#1f77b4;"/>
   </g>
   <g id="patch_42">
    <path clip-path="url(#pede04f6178)" d="M 130.971456 273.312 
L 132.586714 273.312 
L 132.586714 226.658866 
L 130.971456 226.658866 
z
" style="fill:#1f77b4;"/>
   </g>
   <g id="patch_43">
    <path clip-path="url(#pede04f6178)" d="M 132.586714 273.312 
L 134.201971 273.312 
L 134.201971 222.876179 
L 132.586714 222.876179 
z
" style="fill:#1f77b4;"/>
   </g>
   <g id="patch_44">
    <path clip-path="url(#pede04f6178)" d="M 134.201971 273.312 
L 135.817229 273.312 
L 135.817229 227.289313 
L 134.201971 227.289313 
z
" style="fill:#1f77b4;"/>
   </g>
   <g id="patch_45">
    <path clip-path="url(#pede04f6178)" d="M 135.817229 273.312 
L 137.432487 273.312 
L 137.432487 224.767522 
L 135.817229 224.767522 
z
" style="fill:#1f77b4;"/>
   </g>
   <g id="patch_46">
    <path clip-path="url(#pede04f6178)" d="M 137.432487 273.312 
L 139.047744 273.312 
L 139.047744 209.636776 
L 137.432487 209.636776 
z
" style="fill:#1f77b4;"/>
   </g>
   <g id="patch_47">
    <path clip-path="url(#pede04f6178)" d="M 139.047744 273.312 
L 140.663002 273.312 
L 140.663002 217.202149 
L 139.047744 217.202149 
z
" style="fill:#1f77b4;"/>
   </g>
   <g id="patch_48">
    <path clip-path="url(#pede04f6178)" d="M 140.663002 273.312 
L 142.278259 273.312 
L 142.278259 229.811104 
L 140.663002 229.811104 
z
" style="fill:#1f77b4;"/>
   </g>
   <g id="patch_49">
    <path clip-path="url(#pede04f6178)" d="M 142.278259 273.312 
L 143.893517 273.312 
L 143.893517 214.04991 
L 142.278259 214.04991 
z
" style="fill:#1f77b4;"/>
   </g>
   <g id="patch_50">
    <path clip-path="url(#pede04f6178)" d="M 143.893517 273.312 
L 145.508775 273.312 
L 145.508775 209.636776 
L 143.893517 209.636776 
z
" style="fill:#1f77b4;"/>
   </g>
   <g id="patch_51">
    <path clip-path="url(#pede04f6178)" d="M 145.508775 273.312 
L 147.124032 273.312 
L 147.124032 208.375881 
L 145.508775 208.375881 
z
" style="fill:#1f77b4;"/>
   </g>
   <g id="patch_52">
    <path clip-path="url(#pede04f6178)" d="M 147.124032 273.312 
L 148.73929 273.312 
L 148.73929 214.680358 
L 147.124032 214.680358 
z
" style="fill:#1f77b4;"/>
   </g>
   <g id="patch_53">
    <path clip-path="url(#pede04f6178)" d="M 148.73929 273.312 
L 150.354547 273.312 
L 150.354547 213.419463 
L 148.73929 213.419463 
z
" style="fill:#1f77b4;"/>
   </g>
   <g id="patch_54">
    <path clip-path="url(#pede04f6178)" d="M 150.354547 273.312 
L 151.969805 273.312 
L 151.969805 215.310806 
L 150.354547 215.310806 
z
" style="fill:#1f77b4;"/>
   </g>
   <g id="patch_55">
    <path clip-path="url(#pede04f6178)" d="M 151.969805 273.312 
L 153.585063 273.312 
L 153.585063 208.375881 
L 151.969805 208.375881 
z
" style="fill:#1f77b4;"/>
   </g>
   <g id="patch_56">
    <path clip-path="url(#pede04f6178)" d="M 153.585063 273.312 
L 155.20032 273.312 
L 155.20032 200.810507 
L 153.585063 200.810507 
z
" style="fill:#1f77b4;"/>
   </g>
   <g id="patch_57">
    <path clip-path="url(#pede04f6178)" d="M 155.20032 273.312 
L 156.815578 273.312 
L 156.815578 191.353791 
L 155.20032 191.353791 
z
" style="fill:#1f77b4;"/>
   </g>
   <g id="patch_58">
    <path clip-path="url(#pede04f6178)" d="M 156.815578 273.312 
L 158.430835 273.312 
L 158.430835 210.897672 
L 156.815578 210.897672 
z
" style="fill:#1f77b4;"/>
   </g>
   <g id="patch_59">
    <path clip-path="url(#pede04f6178)" d="M 158.430835 273.312 
L 160.046093 273.312 
L 160.046093 206.484537 
L 158.430835 206.484537 
z
" style="fill:#1f77b4;"/>
   </g>
   <g id="patch_60">
    <path clip-path="url(#pede04f6178)" d="M 160.046093 273.312 
L 161.661351 273.312 
L 161.661351 202.071403 
L 160.046093 202.071403 
z
" style="fill:#1f77b4;"/>
   </g>
   <g id="patch_61">
    <path clip-path="url(#pede04f6178)" d="M 161.661351 273.312 
L 163.276608 273.312 
L 163.276608 194.50603 
L 161.661351 194.50603 
z
" style="fill:#1f77b4;"/>
   </g>
   <g id="patch_62">
    <path clip-path="url(#pede04f6178)" d="M 163.276608 273.312 
L 164.891866 273.312 
L 164.891866 194.50603 
L 163.276608 194.50603 
z
" style="fill:#1f77b4;"/>
   </g>
   <g id="patch_63">
    <path clip-path="url(#pede04f6178)" d="M 164.891866 273.312 
L 166.507123 273.312 
L 166.507123 202.701851 
L 164.891866 202.701851 
z
" style="fill:#1f77b4;"/>
   </g>
   <g id="patch_64">
    <path clip-path="url(#pede04f6178)" d="M 166.507123 273.312 
L 168.122381 273.312 
L 168.122381 197.027821 
L 166.507123 197.027821 
z
" style="fill:#1f77b4;"/>
   </g>
   <g id="patch_65">
    <path clip-path="url(#pede04f6178)" d="M 168.122381 273.312 
L 169.737639 273.312 
L 169.737639 203.962746 
L 168.122381 203.962746 
z
" style="fill:#1f77b4;"/>
   </g>
   <g id="patch_66">
    <path clip-path="url(#pede04f6178)" d="M 169.737639 273.312 
L 171.352896 273.312 
L 171.352896 193.875582 
L 169.737639 193.875582 
z
" style="fill:#1f77b4;"/>
   </g>
   <g id="patch_67">
    <path clip-path="url(#pede04f6178)" d="M 171.352896 273.312 
L 172.968154 273.312 
L 172.968154 179.375284 
L 171.352896 179.375284 
z
" style="fill:#1f77b4;"/>
   </g>
   <g id="patch_68">
    <path clip-path="url(#pede04f6178)" d="M 172.968154 273.312 
L 174.583411 273.312 
L 174.583411 185.679761 
L 172.968154 185.679761 
z
" style="fill:#1f77b4;"/>
   </g>
   <g id="patch_69">
    <path clip-path="url(#pede04f6178)" d="M 174.583411 273.312 
L 176.198669 273.312 
L 176.198669 195.136478 
L 174.583411 195.136478 
z
" style="fill:#1f77b4;"/>
   </g>
   <g id="patch_70">
    <path clip-path="url(#pede04f6178)" d="M 176.198669 273.312 
L 177.813927 273.312 
L 177.813927 195.136478 
L 176.198669 195.136478 
z
" style="fill:#1f77b4;"/>
   </g>
   <g id="patch_71">
    <path clip-path="url(#pede04f6178)" d="M 177.813927 273.312 
L 179.429184 273.312 
L 179.429184 185.049313 
L 177.813927 185.049313 
z
" style="fill:#1f77b4;"/>
   </g>
   <g id="patch_72">
    <path clip-path="url(#pede04f6178)" d="M 179.429184 273.312 
L 181.044442 273.312 
L 181.044442 170.549015 
L 179.429184 170.549015 
z
" style="fill:#1f77b4;"/>
   </g>
   <g id="patch_73">
    <path clip-path="url(#pede04f6178)" d="M 181.044442 273.312 
L 182.659699 273.312 
L 182.659699 183.15797 
L 181.044442 183.15797 
z
" style="fill:#1f77b4;"/>
   </g>
   <g id="patch_74">
    <path clip-path="url(#pede04f6178)" d="M 182.659699 273.312 
L 184.274957 273.312 
L 184.274957 174.962149 
L 182.659699 174.962149 
z
" style="fill:#1f77b4;"/>
   </g>
   <g id="patch_75">
    <path clip-path="url(#pede04f6178)" d="M 184.274957 273.312 
L 185.890215 273.312 
L 185.890215 180.636179 
L 184.274957 180.636179 
z
" style="fill:#1f77b4;"/>
   </g>
   <g id="patch_76">
    <path clip-path="url(#pede04f6178)" d="M 185.890215 273.312 
L 187.505472 273.312 
L 187.505472 188.832 
L 185.890215 188.832 
z
" style="fill:#1f77b4;"/>
   </g>
   <g id="patch_77">
    <path clip-path="url(#pede04f6178)" d="M 187.505472 273.312 
L 189.12073 273.312 
L 189.12073 198.919164 
L 187.505472 198.919164 
z
" style="fill:#1f77b4;"/>
   </g>
   <g id="patch_78">
    <path clip-path="url(#pede04f6178)" d="M 189.12073 273.312 
L 190.735987 273.312 
L 190.735987 168.027224 
L 189.12073 168.027224 
z
" style="fill:#1f77b4;"/>
   </g>
   <g id="patch_79">
    <path clip-path="url(#pede04f6178)" d="M 190.735987 273.312 
L 192.351245 273.312 
L 192.351245 178.744836 
L 190.735987 178.744836 
z
" style="fill:#1f77b4;"/>
   </g>
   <g id="patch_80">
    <path clip-path="url(#pede04f6178)" d="M 192.351245 273.312 
L 193.966503 273.312 
L 193.966503 176.223045 
L 192.351245 176.223045 
z
" style="fill:#1f77b4;"/>
   </g>
   <g id="patch_81">
    <path clip-path="url(#pede04f6178)" d="M 193.966503 273.312 
L 195.58176 273.312 
L 195.58176 144.700657 
L 193.966503 144.700657 
z
" style="fill:#1f77b4;"/>
   </g>
   <g id="patch_82">
    <path clip-path="url(#pede04f6178)" d="M 195.58176 273.312 
L 197.197018 273.312 
L 197.197018 159.831403 
L 195.58176 159.831403 
z
" style="fill:#1f77b4;"/>
   </g>
   <g id="patch_83">
    <path clip-path="url(#pede04f6178)" d="M 197.197018 273.312 
L 198.812275 273.312 
L 198.812275 172.440358 
L 197.197018 172.440358 
z
" style="fill:#1f77b4;"/>
   </g>
   <g id="patch_84">
    <path clip-path="url(#pede04f6178)" d="M 198.812275 273.312 
L 200.427533 273.312 
L 200.427533 175.592597 
L 198.812275 175.592597 
z
" style="fill:#1f77b4;"/>
   </g>
   <g id="patch_85">
    <path clip-path="url(#pede04f6178)" d="M 200.427533 273.312 
L 202.042791 273.312 
L 202.042791 162.353194 
L 200.427533 162.353194 
z
" style="fill:#1f77b4;"/>
   </g>
   <g id="patch_86">
    <path clip-path="url(#pede04f6178)" d="M 202.042791 273.312 
L 203.658048 273.312 
L 203.658048 168.657672 
L 202.042791 168.657672 
z
" style="fill:#1f77b4;"/>
   </g>
   <g id="patch_87">
    <path clip-path="url(#pede04f6178)" d="M 203.658048 273.312 
L 205.273306 273.312 
L 205.273306 164.244537 
L 203.658048 164.244537 
z
" style="fill:#1f77b4;"/>
   </g>
   <g id="patch_88">
    <path clip-path="url(#pede04f6178)" d="M 205.273306 273.312 
L 206.888563 273.312 
L 206.888563 168.027224 
L 205.273306 168.027224 
z
" style="fill:#1f77b4;"/>
   </g>
   <g id="patch_89">
    <path clip-path="url(#pede04f6178)" d="M 206.888563 273.312 
L 208.503821 273.312 
L 208.503821 167.396776 
L 206.888563 167.396776 
z
" style="fill:#1f77b4;"/>
   </g>
   <g id="patch_90">
    <path clip-path="url(#pede04f6178)" d="M 208.503821 273.312 
L 210.119079 273.312 
L 210.119079 166.766328 
L 208.503821 166.766328 
z
" style="fill:#1f77b4;"/>
   </g>
   <g id="patch_91">
    <path clip-path="url(#pede04f6178)" d="M 210.119079 273.312 
L 211.734336 273.312 
L 211.734336 164.874985 
L 210.119079 164.874985 
z
" style="fill:#1f77b4;"/>
   </g>
   <g id="patch_92">
    <path clip-path="url(#pede04f6178)" d="M 211.734336 273.312 
L 213.349594 273.312 
L 213.349594 163.61409 
L 211.734336 163.61409 
z
" style="fill:#1f77b4;"/>
   </g>
   <g id="patch_93">
    <path clip-path="url(#pede04f6178)" d="M 213.349594 273.312 
L 214.964851 273.312 
L 214.964851 166.135881 
L 213.349594 166.135881 
z
" style="fill:#1f77b4;"/>
   </g>
   <g id="patch_94">
    <path clip-path="url(#pede04f6178)" d="M 214.964851 273.312 
L 216.580109 273.312 
L 216.580109 172.440358 
L 214.964851 172.440358 
z
" style="fill:#1f77b4;"/>
   </g>
   <g id="patch_95">
    <path clip-path="url(#pede04f6178)" d="M 216.580109 273.312 
L 218.195367 273.312 
L 218.195367 161.722746 
L 216.580109 161.722746 
z
" style="fill:#1f77b4;"/>
   </g>
   <g id="patch_96">
    <path clip-path="url(#pede04f6178)" d="M 218.195367 273.312 
L 219.810624 273.312 
L 219.810624 160.461851 
L 218.195367 160.461851 
z
" style="fill:#1f77b4;"/>
   </g>
   <g id="patch_97">
    <path clip-path="url(#pede04f6178)" d="M 219.810624 273.312 
L 221.425882 273.312 
L 221.425882 147.222448 
L 219.810624 147.222448 
z
" style="fill:#1f77b4;"/>
   </g>
   <g id="patch_98">
    <path clip-path="url(#pede04f6178)" d="M 221.425882 273.312 
L 223.041139 273.312 
L 223.041139 163.61409 
L 221.425882 163.61409 
z
" style="fill:#1f77b4;"/>
   </g>
   <g id="patch_99">
    <path clip-path="url(#pede04f6178)" d="M 223.041139 273.312 
L 224.656397 273.312 
L 224.656397 149.744239 
L 223.041139 149.744239 
z
" style="fill:#1f77b4;"/>
   </g>
   <g id="patch_100">
    <path clip-path="url(#pede04f6178)" d="M 224.656397 273.312 
L 226.271655 273.312 
L 226.271655 151.635582 
L 224.656397 151.635582 
z
" style="fill:#1f77b4;"/>
   </g>
   <g id="patch_101">
    <path clip-path="url(#pede04f6178)" d="M 226.271655 273.312 
L 227.886912 273.312 
L 227.886912 154.157373 
L 226.271655 154.157373 
z
" style="fill:#1f77b4;"/>
   </g>
   <g id="patch_102">
    <path clip-path="url(#pede04f6178)" d="M 227.886912 273.312 
L 229.50217 273.312 
L 229.50217 144.700657 
L 227.886912 144.700657 
z
" style="fill:#1f77b4;"/>
   </g>
   <g id="patch_103">
    <path clip-path="url(#pede04f6178)" d="M 229.50217 273.312 
L 231.117427 273.312 
L 231.117427 151.635582 
L 229.50217 151.635582 
z
" style="fill:#1f77b4;"/>
   </g>
   <g id="patch_104">
    <path clip-path="url(#pede04f6178)" d="M 231.117427 273.312 
L 232.732685 273.312 
L 232.732685 145.331104 
L 231.117427 145.331104 
z
" style="fill:#1f77b4;"/>
   </g>
   <g id="patch_105">
    <path clip-path="url(#pede04f6178)" d="M 232.732685 273.312 
L 234.347943 273.312 
L 234.347943 142.809313 
L 232.732685 142.809313 
z
" style="fill:#1f77b4;"/>
   </g>
   <g id="patch_106">
    <path clip-path="url(#pede04f6178)" d="M 234.347943 273.312 
L 235.9632 273.312 
L 235.9632 156.679164 
L 234.347943 156.679164 
z
" style="fill:#1f77b4;"/>
   </g>
   <g id="patch_107">
    <path clip-path="url(#pede04f6178)" d="M 235.9632 273.312 
L 237.578458 273.312 
L 237.578458 125.156776 
L 235.9632 125.156776 
z
" style="fill:#1f77b4;"/>
   </g>
   <g id="patch_108">
    <path clip-path="url(#pede04f6178)" d="M 237.578458 273.312 
L 239.193715 273.312 
L 239.193715 139.026627 
L 237.578458 139.026627 
z
" style="fill:#1f77b4;"/>
   </g>
   <g id="patch_109">
    <path clip-path="url(#pede04f6178)" d="M 239.193715 273.312 
L 240.808973 273.312 
L 240.808973 133.352597 
L 239.193715 133.352597 
z
" style="fill:#1f77b4;"/>
   </g>
   <g id="patch_110">
    <path clip-path="url(#pede04f6178)" d="M 240.808973 273.312 
L 242.424231 273.312 
L 242.424231 118.221851 
L 240.808973 118.221851 
z
" style="fill:#1f77b4;"/>
   </g>
   <g id="patch_111">
    <path clip-path="url(#pede04f6178)" d="M 242.424231 273.312 
L 244.039488 273.312 
L 244.039488 132.722149 
L 242.424231 132.722149 
z
" style="fill:#1f77b4;"/>
   </g>
   <g id="patch_112">
    <path clip-path="url(#pede04f6178)" d="M 244.039488 273.312 
L 245.654746 273.312 
L 245.654746 144.070209 
L 244.039488 144.070209 
z
" style="fill:#1f77b4;"/>
   </g>
   <g id="patch_113">
    <path clip-path="url(#pede04f6178)" d="M 245.654746 273.312 
L 247.270003 273.312 
L 247.270003 132.091701 
L 245.654746 132.091701 
z
" style="fill:#1f77b4;"/>
   </g>
   <g id="patch_114">
    <path clip-path="url(#pede04f6178)" d="M 247.270003 273.312 
L 248.885261 273.312 
L 248.885261 125.156776 
L 247.270003 125.156776 
z
" style="fill:#1f77b4;"/>
   </g>
   <g id="patch_115">
    <path clip-path="url(#pede04f6178)" d="M 248.885261 273.312 
L 250.500519 273.312 
L 250.500519 120.743642 
L 248.885261 120.743642 
z
" style="fill:#1f77b4;"/>
   </g>
   <g id="patch_116">
    <path clip-path="url(#pede04f6178)" d="M 250.500519 273.312 
L 252.115776 273.312 
L 252.115776 144.070209 
L 250.500519 144.070209 
z
" style="fill:#1f77b4;"/>
   </g>
   <g id="patch_117">
    <path clip-path="url(#pede04f6178)" d="M 252.115776 273.312 
L 253.731034 273.312 
L 253.731034 124.526328 
L 252.115776 124.526328 
z
" style="fill:#1f77b4;"/>
   </g>
   <g id="patch_118">
    <path clip-path="url(#pede04f6178)" d="M 253.731034 273.312 
L 255.346291 273.312 
L 255.346291 117.591403 
L 253.731034 117.591403 
z
" style="fill:#1f77b4;"/>
   </g>
   <g id="patch_119">
    <path clip-path="url(#pede04f6178)" d="M 255.346291 273.312 
L 256.961549 273.312 
L 256.961549 134.613493 
L 255.346291 134.613493 
z
" style="fill:#1f77b4;"/>
   </g>
   <g id="patch_120">
    <path clip-path="url(#pede04f6178)" d="M 256.961549 273.312 
L 258.576807 273.312 
L 258.576807 116.330507 
L 256.961549 116.330507 
z
" style="fill:#1f77b4;"/>
   </g>
   <g id="patch_121">
    <path clip-path="url(#pede04f6178)" d="M 258.576807 273.312 
L 260.192064 273.312 
L 260.192064 140.91797 
L 258.576807 140.91797 
z
" style="fill:#1f77b4;"/>
   </g>
   <g id="patch_122">
    <path clip-path="url(#pede04f6178)" d="M 260.192064 273.312 
L 261.807322 273.312 
L 261.807322 113.178269 
L 260.192064 113.178269 
z
" style="fill:#1f77b4;"/>
   </g>
   <g id="patch_123">
    <path clip-path="url(#pede04f6178)" d="M 261.807322 273.312 
L 263.422579 273.312 
L 263.422579 121.37409 
L 261.807322 121.37409 
z
" style="fill:#1f77b4;"/>
   </g>
   <g id="patch_124">
    <path clip-path="url(#pede04f6178)" d="M 263.422579 273.312 
L 265.037837 273.312 
L 265.037837 111.917373 
L 263.422579 111.917373 
z
" style="fill:#1f77b4;"/>
   </g>
   <g id="patch_125">
    <path clip-path="url(#pede04f6178)" d="M 265.037837 273.312 
L 266.653095 273.312 
L 266.653095 115.70006 
L 265.037837 115.70006 
z
" style="fill:#1f77b4;"/>
   </g>
   <g id="patch_126">
    <path clip-path="url(#pede04f6178)" d="M 266.653095 273.312 
L 268.268352 273.312 
L 268.268352 111.917373 
L 266.653095 111.917373 
z
" style="fill:#1f77b4;"/>
   </g>
   <g id="patch_127">
    <path clip-path="url(#pede04f6178)" d="M 268.268352 273.312 
L 269.88361 273.312 
L 269.88361 113.808716 
L 268.268352 113.808716 
z
" style="fill:#1f77b4;"/>
   </g>
   <g id="patch_128">
    <path clip-path="url(#pede04f6178)" d="M 269.88361 273.312 
L 271.498868 273.312 
L 271.498868 119.482746 
L 269.88361 119.482746 
z
" style="fill:#1f77b4;"/>
   </g>
   <g id="patch_129">
    <path clip-path="url(#pede04f6178)" d="M 271.498868 273.312 
L 273.114125 273.312 
L 273.114125 104.982448 
L 271.498868 104.982448 
z
" style="fill:#1f77b4;"/>
   </g>
   <g id="patch_130">
    <path clip-path="url(#pede04f6178)" d="M 273.114125 273.312 
L 274.729383 273.312 
L 274.729383 107.504239 
L 273.114125 107.504239 
z
" style="fill:#1f77b4;"/>
   </g>
   <g id="patch_131">
    <path clip-path="url(#pede04f6178)" d="M 274.729383 273.312 
L 276.34464 273.312 
L 276.34464 117.591403 
L 274.729383 117.591403 
z
" style="fill:#1f77b4;"/>
   </g>
   <g id="patch_132">
    <path clip-path="url(#pede04f6178)" d="M 276.34464 273.312 
L 277.959898 273.312 
L 277.959898 108.765134 
L 276.34464 108.765134 
z
" style="fill:#1f77b4;"/>
   </g>
   <g id="patch_133">
    <path clip-path="url(#pede04f6178)" d="M 277.959898 273.312 
L 279.575156 273.312 
L 279.575156 109.395582 
L 277.959898 109.395582 
z
" style="fill:#1f77b4;"/>
   </g>
   <g id="patch_134">
    <path clip-path="url(#pede04f6178)" d="M 279.575156 273.312 
L 281.190413 273.312 
L 281.190413 108.765134 
L 279.575156 108.765134 
z
" style="fill:#1f77b4;"/>
   </g>
   <g id="patch_135">
    <path clip-path="url(#pede04f6178)" d="M 281.190413 273.312 
L 282.805671 273.312 
L 282.805671 93.00394 
L 281.190413 93.00394 
z
" style="fill:#1f77b4;"/>
   </g>
   <g id="patch_136">
    <path clip-path="url(#pede04f6178)" d="M 282.805671 273.312 
L 284.420928 273.312 
L 284.420928 101.199761 
L 282.805671 101.199761 
z
" style="fill:#1f77b4;"/>
   </g>
   <g id="patch_137">
    <path clip-path="url(#pede04f6178)" d="M 284.420928 273.312 
L 286.036186 273.312 
L 286.036186 107.504239 
L 284.420928 107.504239 
z
" style="fill:#1f77b4;"/>
   </g>
   <g id="patch_138">
    <path clip-path="url(#pede04f6178)" d="M 286.036186 273.312 
L 287.651444 273.312 
L 287.651444 112.547821 
L 286.036186 112.547821 
z
" style="fill:#1f77b4;"/>
   </g>
   <g id="patch_139">
    <path clip-path="url(#pede04f6178)" d="M 287.651444 273.312 
L 289.266701 273.312 
L 289.266701 127.678567 
L 287.651444 127.678567 
z
" style="fill:#1f77b4;"/>
   </g>
   <g id="patch_140">
    <path clip-path="url(#pede04f6178)" d="M 289.266701 273.312 
L 290.881959 273.312 
L 290.881959 104.982448 
L 289.266701 104.982448 
z
" style="fill:#1f77b4;"/>
   </g>
   <g id="patch_141">
    <path clip-path="url(#pede04f6178)" d="M 290.881959 273.312 
L 292.497216 273.312 
L 292.497216 88.590806 
L 290.881959 88.590806 
z
" style="fill:#1f77b4;"/>
   </g>
   <g id="patch_142">
    <path clip-path="url(#pede04f6178)" d="M 292.497216 273.312 
L 294.112474 273.312 
L 294.112474 93.00394 
L 292.497216 93.00394 
z
" style="fill:#1f77b4;"/>
   </g>
   <g id="patch_143">
    <path clip-path="url(#pede04f6178)" d="M 294.112474 273.312 
L 295.727732 273.312 
L 295.727732 81.655881 
L 294.112474 81.655881 
z
" style="fill:#1f77b4;"/>
   </g>
   <g id="patch_144">
    <path clip-path="url(#pede04f6178)" d="M 295.727732 273.312 
L 297.342989 273.312 
L 297.342989 79.764537 
L 295.727732 79.764537 
z
" style="fill:#1f77b4;"/>
   </g>
   <g id="patch_145">
    <path clip-path="url(#pede04f6178)" d="M 297.342989 273.312 
L 298.958247 273.312 
L 298.958247 107.504239 
L 297.342989 107.504239 
z
" style="fill:#1f77b4;"/>
   </g>
   <g id="patch_146">
    <path clip-path="url(#pede04f6178)" d="M 298.958247 273.312 
L 300.573504 273.312 
L 300.573504 93.634388 
L 298.958247 93.634388 
z
" style="fill:#1f77b4;"/>
   </g>
   <g id="patch_147">
    <path clip-path="url(#pede04f6178)" d="M 300.573504 273.312 
L 302.188762 273.312 
L 302.188762 109.395582 
L 300.573504 109.395582 
z
" style="fill:#1f77b4;"/>
   </g>
   <g id="patch_148">
    <path clip-path="url(#pede04f6178)" d="M 302.188762 273.312 
L 303.80402 273.312 
L 303.80402 81.025433 
L 302.188762 81.025433 
z
" style="fill:#1f77b4;"/>
   </g>
   <g id="patch_149">
    <path clip-path="url(#pede04f6178)" d="M 303.80402 273.312 
L 305.419277 273.312 
L 305.419277 82.916776 
L 303.80402 82.916776 
z
" style="fill:#1f77b4;"/>
   </g>
   <g id="patch_150">
    <path clip-path="url(#pede04f6178)" d="M 305.419277 273.312 
L 307.034535 273.312 
L 307.034535 101.199761 
L 305.419277 101.199761 
z
" style="fill:#1f77b4;"/>
   </g>
   <g id="patch_151">
    <path clip-path="url(#pede04f6178)" d="M 307.034535 273.312 
L 308.649792 273.312 
L 308.649792 68.416478 
L 307.034535 68.416478 
z
" style="fill:#1f77b4;"/>
   </g>
   <g id="patch_152">
    <path clip-path="url(#pede04f6178)" d="M 308.649792 273.312 
L 310.26505 273.312 
L 310.26505 86.069015 
L 308.649792 86.069015 
z
" style="fill:#1f77b4;"/>
   </g>
   <g id="patch_153">
    <path clip-path="url(#pede04f6178)" d="M 310.26505 273.312 
L 311.880308 273.312 
L 311.880308 89.851701 
L 310.26505 89.851701 
z
" style="fill:#1f77b4;"/>
   </g>
   <g id="patch_154">
    <path clip-path="url(#pede04f6178)" d="M 311.880308 273.312 
L 313.495565 273.312 
L 313.495565 79.764537 
L 311.880308 79.764537 
z
" style="fill:#1f77b4;"/>
   </g>
   <g id="patch_155">
    <path clip-path="url(#pede04f6178)" d="M 313.495565 273.312 
L 315.110823 273.312 
L 315.110823 79.13409 
L 313.495565 79.13409 
z
" style="fill:#1f77b4;"/>
   </g>
   <g id="patch_156">
    <path clip-path="url(#pede04f6178)" d="M 315.110823 273.312 
L 316.72608 273.312 
L 316.72608 82.916776 
L 315.110823 82.916776 
z
" style="fill:#1f77b4;"/>
   </g>
   <g id="patch_157">
    <path clip-path="url(#pede04f6178)" d="M 316.72608 273.312 
L 318.341338 273.312 
L 318.341338 88.590806 
L 316.72608 88.590806 
z
" style="fill:#1f77b4;"/>
   </g>
   <g id="patch_158">
    <path clip-path="url(#pede04f6178)" d="M 318.341338 273.312 
L 319.956596 273.312 
L 319.956596 81.655881 
L 318.341338 81.655881 
z
" style="fill:#1f77b4;"/>
   </g>
   <g id="patch_159">
    <path clip-path="url(#pede04f6178)" d="M 319.956596 273.312 
L 321.571853 273.312 
L 321.571853 64.633791 
L 319.956596 64.633791 
z
" style="fill:#1f77b4;"/>
   </g>
   <g id="patch_160">
    <path clip-path="url(#pede04f6178)" d="M 321.571853 273.312 
L 323.187111 273.312 
L 323.187111 49.503045 
L 321.571853 49.503045 
z
" style="fill:#1f77b4;"/>
   </g>
   <g id="patch_161">
    <path clip-path="url(#pede04f6178)" d="M 323.187111 273.312 
L 324.802368 273.312 
L 324.802368 81.655881 
L 323.187111 81.655881 
z
" style="fill:#1f77b4;"/>
   </g>
   <g id="patch_162">
    <path clip-path="url(#pede04f6178)" d="M 324.802368 273.312 
L 326.417626 273.312 
L 326.417626 61.481552 
L 324.802368 61.481552 
z
" style="fill:#1f77b4;"/>
   </g>
   <g id="patch_163">
    <path clip-path="url(#pede04f6178)" d="M 326.417626 273.312 
L 328.032884 273.312 
L 328.032884 86.069015 
L 326.417626 86.069015 
z
" style="fill:#1f77b4;"/>
   </g>
   <g id="patch_164">
    <path clip-path="url(#pede04f6178)" d="M 328.032884 273.312 
L 329.648141 273.312 
L 329.648141 83.547224 
L 328.032884 83.547224 
z
" style="fill:#1f77b4;"/>
   </g>
   <g id="patch_165">
    <path clip-path="url(#pede04f6178)" d="M 329.648141 273.312 
L 331.263399 273.312 
L 331.263399 41.937672 
L 329.648141 41.937672 
z
" style="fill:#1f77b4;"/>
   </g>
   <g id="patch_166">
    <path clip-path="url(#pede04f6178)" d="M 331.263399 273.312 
L 332.878656 273.312 
L 332.878656 57.698866 
L 331.263399 57.698866 
z
" style="fill:#1f77b4;"/>
   </g>
   <g id="patch_167">
    <path clip-path="url(#pede04f6178)" d="M 332.878656 273.312 
L 334.493914 273.312 
L 334.493914 70.307821 
L 332.878656 70.307821 
z
" style="fill:#1f77b4;"/>
   </g>
   <g id="patch_168">
    <path clip-path="url(#pede04f6178)" d="M 334.493914 273.312 
L 336.109172 273.312 
L 336.109172 64.633791 
L 334.493914 64.633791 
z
" style="fill:#1f77b4;"/>
   </g>
   <g id="patch_169">
    <path clip-path="url(#pede04f6178)" d="M 336.109172 273.312 
L 337.724429 273.312 
L 337.724429 58.329313 
L 336.109172 58.329313 
z
" style="fill:#1f77b4;"/>
   </g>
   <g id="patch_170">
    <path clip-path="url(#pede04f6178)" d="M 337.724429 273.312 
L 339.339687 273.312 
L 339.339687 64.003343 
L 337.724429 64.003343 
z
" style="fill:#1f77b4;"/>
   </g>
   <g id="patch_171">
    <path clip-path="url(#pede04f6178)" d="M 339.339687 273.312 
L 340.954944 273.312 
L 340.954944 60.220657 
L 339.339687 60.220657 
z
" style="fill:#1f77b4;"/>
   </g>
   <g id="patch_172">
    <path clip-path="url(#pede04f6178)" d="M 340.954944 273.312 
L 342.570202 273.312 
L 342.570202 52.024836 
L 340.954944 52.024836 
z
" style="fill:#1f77b4;"/>
   </g>
   <g id="patch_173">
    <path clip-path="url(#pede04f6178)" d="M 342.570202 273.312 
L 344.18546 273.312 
L 344.18546 48.242149 
L 342.570202 48.242149 
z
" style="fill:#1f77b4;"/>
   </g>
   <g id="patch_174">
    <path clip-path="url(#pede04f6178)" d="M 344.18546 273.312 
L 345.800717 273.312 
L 345.800717 62.112 
L 344.18546 62.112 
z
" style="fill:#1f77b4;"/>
   </g>
   <g id="patch_175">
    <path clip-path="url(#pede04f6178)" d="M 345.800717 273.312 
L 347.415975 273.312 
L 347.415975 73.46006 
L 345.800717 73.46006 
z
" style="fill:#1f77b4;"/>
   </g>
   <g id="patch_176">
    <path clip-path="url(#pede04f6178)" d="M 347.415975 273.312 
L 349.031232 273.312 
L 349.031232 59.590209 
L 347.415975 59.590209 
z
" style="fill:#1f77b4;"/>
   </g>
   <g id="patch_177">
    <path clip-path="url(#pede04f6178)" d="M 349.031232 273.312 
L 350.64649 273.312 
L 350.64649 33.111403 
L 349.031232 33.111403 
z
" style="fill:#1f77b4;"/>
   </g>
   <g id="patch_178">
    <path clip-path="url(#pede04f6178)" d="M 350.64649 273.312 
L 352.261748 273.312 
L 352.261748 45.720358 
L 350.64649 45.720358 
z
" style="fill:#1f77b4;"/>
   </g>
   <g id="patch_179">
    <path clip-path="url(#pede04f6178)" d="M 352.261748 273.312 
L 353.877005 273.312 
L 353.877005 37.524537 
L 352.261748 37.524537 
z
" style="fill:#1f77b4;"/>
   </g>
   <g id="patch_180">
    <path clip-path="url(#pede04f6178)" d="M 353.877005 273.312 
L 355.492263 273.312 
L 355.492263 40.046328 
L 353.877005 40.046328 
z
" style="fill:#1f77b4;"/>
   </g>
   <g id="patch_181">
    <path clip-path="url(#pede04f6178)" d="M 355.492263 273.312 
L 357.10752 273.312 
L 357.10752 52.024836 
L 355.492263 52.024836 
z
" style="fill:#1f77b4;"/>
   </g>
   <g id="patch_182">
    <path clip-path="url(#pede04f6178)" d="M 357.10752 273.312 
L 358.722778 273.312 
L 358.722778 59.590209 
L 357.10752 59.590209 
z
" style="fill:#1f77b4;"/>
   </g>
   <g id="patch_183">
    <path clip-path="url(#pede04f6178)" d="M 358.722778 273.312 
L 360.338036 273.312 
L 360.338036 39.415881 
L 358.722778 39.415881 
z
" style="fill:#1f77b4;"/>
   </g>
   <g id="patch_184">
    <path clip-path="url(#pede04f6178)" d="M 360.338036 273.312 
L 361.953293 273.312 
L 361.953293 29.959164 
L 360.338036 29.959164 
z
" style="fill:#1f77b4;"/>
   </g>
   <g id="patch_185">
    <path clip-path="url(#pede04f6178)" d="M 361.953293 273.312 
L 363.568551 273.312 
L 363.568551 54.546627 
L 361.953293 54.546627 
z
" style="fill:#1f77b4;"/>
   </g>
   <g id="patch_186">
    <path clip-path="url(#pede04f6178)" d="M 363.568551 273.312 
L 365.183808 273.312 
L 365.183808 46.981254 
L 363.568551 46.981254 
z
" style="fill:#1f77b4;"/>
   </g>
   <g id="patch_187">
    <path clip-path="url(#pede04f6178)" d="M 365.183808 273.312 
L 366.799066 273.312 
L 366.799066 65.264239 
L 365.183808 65.264239 
z
" style="fill:#1f77b4;"/>
   </g>
   <g id="patch_188">
    <path clip-path="url(#pede04f6178)" d="M 366.799066 273.312 
L 368.414324 273.312 
L 368.414324 52.655284 
L 366.799066 52.655284 
z
" style="fill:#1f77b4;"/>
   </g>
   <g id="patch_189">
    <path clip-path="url(#pede04f6178)" d="M 368.414324 273.312 
L 370.029581 273.312 
L 370.029581 48.872597 
L 368.414324 48.872597 
z
" style="fill:#1f77b4;"/>
   </g>
   <g id="patch_190">
    <path clip-path="url(#pede04f6178)" d="M 370.029581 273.312 
L 371.644839 273.312 
L 371.644839 43.829015 
L 370.029581 43.829015 
z
" style="fill:#1f77b4;"/>
   </g>
   <g id="patch_191">
    <path clip-path="url(#pede04f6178)" d="M 371.644839 273.312 
L 373.260096 273.312 
L 373.260096 32.480955 
L 371.644839 32.480955 
z
" style="fill:#1f77b4;"/>
   </g>
   <g id="patch_192">
    <path clip-path="url(#pede04f6178)" d="M 373.260096 273.312 
L 374.875354 273.312 
L 374.875354 35.002746 
L 373.260096 35.002746 
z
" style="fill:#1f77b4;"/>
   </g>
   <g id="patch_193">
    <path clip-path="url(#pede04f6178)" d="M 374.875354 273.312 
L 376.490612 273.312 
L 376.490612 31.22006 
L 374.875354 31.22006 
z
" style="fill:#1f77b4;"/>
   </g>
   <g id="patch_194">
    <path clip-path="url(#pede04f6178)" d="M 376.490612 273.312 
L 378.105869 273.312 
L 378.105869 31.22006 
L 376.490612 31.22006 
z
" style="fill:#1f77b4;"/>
   </g>
   <g id="patch_195">
    <path clip-path="url(#pede04f6178)" d="M 378.105869 273.312 
L 379.721127 273.312 
L 379.721127 37.524537 
L 378.105869 37.524537 
z
" style="fill:#1f77b4;"/>
   </g>
   <g id="patch_196">
    <path clip-path="url(#pede04f6178)" d="M 379.721127 273.312 
L 381.336384 273.312 
L 381.336384 47.611701 
L 379.721127 47.611701 
z
" style="fill:#1f77b4;"/>
   </g>
   <g id="patch_197">
    <path clip-path="url(#pede04f6178)" d="M 381.336384 273.312 
L 382.951642 273.312 
L 382.951642 36.263642 
L 381.336384 36.263642 
z
" style="fill:#1f77b4;"/>
   </g>
   <g id="patch_198">
    <path clip-path="url(#pede04f6178)" d="M 382.951642 273.312 
L 384.5669 273.312 
L 384.5669 29.959164 
L 382.951642 29.959164 
z
" style="fill:#1f77b4;"/>
   </g>
   <g id="patch_199">
    <path clip-path="url(#pede04f6178)" d="M 384.5669 273.312 
L 386.182157 273.312 
L 386.182157 19.872 
L 384.5669 19.872 
z
" style="fill:#1f77b4;"/>
   </g>
   <g id="patch_200">
    <path clip-path="url(#pede04f6178)" d="M 386.182157 273.312 
L 387.797415 273.312 
L 387.797415 32.480955 
L 386.182157 32.480955 
z
" style="fill:#1f77b4;"/>
   </g>
   <g id="patch_201">
    <path clip-path="url(#pede04f6178)" d="M 387.797415 273.312 
L 389.412672 273.312 
L 389.412672 30.589612 
L 387.797415 30.589612 
z
" style="fill:#1f77b4;"/>
   </g>
   <g id="patch_202">
    <path clip-path="url(#pede04f6178)" d="M 389.412672 273.312 
L 391.02793 273.312 
L 391.02793 46.350806 
L 389.412672 46.350806 
z
" style="fill:#1f77b4;"/>
   </g>
   <g id="matplotlib.axis_1">
    <g id="xtick_1">
     <g id="line2d_1">
      <defs>
       <path d="M 0 0 
L 0 3.5 
" id="m221552c0f8" style="stroke:#000000;stroke-width:0.8;"/>
      </defs>
      <g>
       <use style="stroke:#000000;stroke-width:0.8;" x="66.376477" xlink:href="#m221552c0f8" y="273.312"/>
      </g>
     </g>
     <g id="text_1">
      <!-- 0.0 -->
      <g transform="translate(58.424915 287.910437)scale(0.1 -0.1)">
       <defs>
        <path d="M 2034 4250 
Q 1547 4250 1301 3770 
Q 1056 3291 1056 2328 
Q 1056 1369 1301 889 
Q 1547 409 2034 409 
Q 2525 409 2770 889 
Q 3016 1369 3016 2328 
Q 3016 3291 2770 3770 
Q 2525 4250 2034 4250 
z
M 2034 4750 
Q 2819 4750 3233 4129 
Q 3647 3509 3647 2328 
Q 3647 1150 3233 529 
Q 2819 -91 2034 -91 
Q 1250 -91 836 529 
Q 422 1150 422 2328 
Q 422 3509 836 4129 
Q 1250 4750 2034 4750 
z
" id="DejaVuSans-30" transform="scale(0.015625)"/>
        <path d="M 684 794 
L 1344 794 
L 1344 0 
L 684 0 
L 684 794 
z
" id="DejaVuSans-2e" transform="scale(0.015625)"/>
       </defs>
       <use xlink:href="#DejaVuSans-30"/>
       <use x="63.623047" xlink:href="#DejaVuSans-2e"/>
       <use x="95.410156" xlink:href="#DejaVuSans-30"/>
      </g>
     </g>
    </g>
    <g id="xtick_2">
     <g id="line2d_2">
      <g>
       <use style="stroke:#000000;stroke-width:0.8;" x="131.307386" xlink:href="#m221552c0f8" y="273.312"/>
      </g>
     </g>
     <g id="text_2">
      <!-- 0.2 -->
      <g transform="translate(123.355824 287.910437)scale(0.1 -0.1)">
       <defs>
        <path d="M 1228 531 
L 3431 531 
L 3431 0 
L 469 0 
L 469 531 
Q 828 903 1448 1529 
Q 2069 2156 2228 2338 
Q 2531 2678 2651 2914 
Q 2772 3150 2772 3378 
Q 2772 3750 2511 3984 
Q 2250 4219 1831 4219 
Q 1534 4219 1204 4116 
Q 875 4013 500 3803 
L 500 4441 
Q 881 4594 1212 4672 
Q 1544 4750 1819 4750 
Q 2544 4750 2975 4387 
Q 3406 4025 3406 3419 
Q 3406 3131 3298 2873 
Q 3191 2616 2906 2266 
Q 2828 2175 2409 1742 
Q 1991 1309 1228 531 
z
" id="DejaVuSans-32" transform="scale(0.015625)"/>
       </defs>
       <use xlink:href="#DejaVuSans-30"/>
       <use x="63.623047" xlink:href="#DejaVuSans-2e"/>
       <use x="95.410156" xlink:href="#DejaVuSans-32"/>
      </g>
     </g>
    </g>
    <g id="xtick_3">
     <g id="line2d_3">
      <g>
       <use style="stroke:#000000;stroke-width:0.8;" x="196.238295" xlink:href="#m221552c0f8" y="273.312"/>
      </g>
     </g>
     <g id="text_3">
      <!-- 0.4 -->
      <g transform="translate(188.286733 287.910437)scale(0.1 -0.1)">
       <defs>
        <path d="M 2419 4116 
L 825 1625 
L 2419 1625 
L 2419 4116 
z
M 2253 4666 
L 3047 4666 
L 3047 1625 
L 3713 1625 
L 3713 1100 
L 3047 1100 
L 3047 0 
L 2419 0 
L 2419 1100 
L 313 1100 
L 313 1709 
L 2253 4666 
z
" id="DejaVuSans-34" transform="scale(0.015625)"/>
       </defs>
       <use xlink:href="#DejaVuSans-30"/>
       <use x="63.623047" xlink:href="#DejaVuSans-2e"/>
       <use x="95.410156" xlink:href="#DejaVuSans-34"/>
      </g>
     </g>
    </g>
    <g id="xtick_4">
     <g id="line2d_4">
      <g>
       <use style="stroke:#000000;stroke-width:0.8;" x="261.169205" xlink:href="#m221552c0f8" y="273.312"/>
      </g>
     </g>
     <g id="text_4">
      <!-- 0.6 -->
      <g transform="translate(253.217642 287.910437)scale(0.1 -0.1)">
       <defs>
        <path d="M 2113 2584 
Q 1688 2584 1439 2293 
Q 1191 2003 1191 1497 
Q 1191 994 1439 701 
Q 1688 409 2113 409 
Q 2538 409 2786 701 
Q 3034 994 3034 1497 
Q 3034 2003 2786 2293 
Q 2538 2584 2113 2584 
z
M 3366 4563 
L 3366 3988 
Q 3128 4100 2886 4159 
Q 2644 4219 2406 4219 
Q 1781 4219 1451 3797 
Q 1122 3375 1075 2522 
Q 1259 2794 1537 2939 
Q 1816 3084 2150 3084 
Q 2853 3084 3261 2657 
Q 3669 2231 3669 1497 
Q 3669 778 3244 343 
Q 2819 -91 2113 -91 
Q 1303 -91 875 529 
Q 447 1150 447 2328 
Q 447 3434 972 4092 
Q 1497 4750 2381 4750 
Q 2619 4750 2861 4703 
Q 3103 4656 3366 4563 
z
" id="DejaVuSans-36" transform="scale(0.015625)"/>
       </defs>
       <use xlink:href="#DejaVuSans-30"/>
       <use x="63.623047" xlink:href="#DejaVuSans-2e"/>
       <use x="95.410156" xlink:href="#DejaVuSans-36"/>
      </g>
     </g>
    </g>
    <g id="xtick_5">
     <g id="line2d_5">
      <g>
       <use style="stroke:#000000;stroke-width:0.8;" x="326.100114" xlink:href="#m221552c0f8" y="273.312"/>
      </g>
     </g>
     <g id="text_5">
      <!-- 0.8 -->
      <g transform="translate(318.148551 287.910437)scale(0.1 -0.1)">
       <defs>
        <path d="M 2034 2216 
Q 1584 2216 1326 1975 
Q 1069 1734 1069 1313 
Q 1069 891 1326 650 
Q 1584 409 2034 409 
Q 2484 409 2743 651 
Q 3003 894 3003 1313 
Q 3003 1734 2745 1975 
Q 2488 2216 2034 2216 
z
M 1403 2484 
Q 997 2584 770 2862 
Q 544 3141 544 3541 
Q 544 4100 942 4425 
Q 1341 4750 2034 4750 
Q 2731 4750 3128 4425 
Q 3525 4100 3525 3541 
Q 3525 3141 3298 2862 
Q 3072 2584 2669 2484 
Q 3125 2378 3379 2068 
Q 3634 1759 3634 1313 
Q 3634 634 3220 271 
Q 2806 -91 2034 -91 
Q 1263 -91 848 271 
Q 434 634 434 1313 
Q 434 1759 690 2068 
Q 947 2378 1403 2484 
z
M 1172 3481 
Q 1172 3119 1398 2916 
Q 1625 2713 2034 2713 
Q 2441 2713 2670 2916 
Q 2900 3119 2900 3481 
Q 2900 3844 2670 4047 
Q 2441 4250 2034 4250 
Q 1625 4250 1398 4047 
Q 1172 3844 1172 3481 
z
" id="DejaVuSans-38" transform="scale(0.015625)"/>
       </defs>
       <use xlink:href="#DejaVuSans-30"/>
       <use x="63.623047" xlink:href="#DejaVuSans-2e"/>
       <use x="95.410156" xlink:href="#DejaVuSans-38"/>
      </g>
     </g>
    </g>
    <g id="xtick_6">
     <g id="line2d_6">
      <g>
       <use style="stroke:#000000;stroke-width:0.8;" x="391.031023" xlink:href="#m221552c0f8" y="273.312"/>
      </g>
     </g>
     <g id="text_6">
      <!-- 1.0 -->
      <g transform="translate(383.07946 287.910437)scale(0.1 -0.1)">
       <defs>
        <path d="M 794 531 
L 1825 531 
L 1825 4091 
L 703 3866 
L 703 4441 
L 1819 4666 
L 2450 4666 
L 2450 531 
L 3481 531 
L 3481 0 
L 794 0 
L 794 531 
z
" id="DejaVuSans-31" transform="scale(0.015625)"/>
       </defs>
       <use xlink:href="#DejaVuSans-31"/>
       <use x="63.623047" xlink:href="#DejaVuSans-2e"/>
       <use x="95.410156" xlink:href="#DejaVuSans-30"/>
      </g>
     </g>
    </g>
    <g id="text_7">
     <!-- Propagation direction -->
     <g transform="translate(175.221719 301.588562)scale(0.1 -0.1)">
      <defs>
       <path d="M 1259 4147 
L 1259 2394 
L 2053 2394 
Q 2494 2394 2734 2622 
Q 2975 2850 2975 3272 
Q 2975 3691 2734 3919 
Q 2494 4147 2053 4147 
L 1259 4147 
z
M 628 4666 
L 2053 4666 
Q 2838 4666 3239 4311 
Q 3641 3956 3641 3272 
Q 3641 2581 3239 2228 
Q 2838 1875 2053 1875 
L 1259 1875 
L 1259 0 
L 628 0 
L 628 4666 
z
" id="DejaVuSans-50" transform="scale(0.015625)"/>
       <path d="M 2631 2963 
Q 2534 3019 2420 3045 
Q 2306 3072 2169 3072 
Q 1681 3072 1420 2755 
Q 1159 2438 1159 1844 
L 1159 0 
L 581 0 
L 581 3500 
L 1159 3500 
L 1159 2956 
Q 1341 3275 1631 3429 
Q 1922 3584 2338 3584 
Q 2397 3584 2469 3576 
Q 2541 3569 2628 3553 
L 2631 2963 
z
" id="DejaVuSans-72" transform="scale(0.015625)"/>
       <path d="M 1959 3097 
Q 1497 3097 1228 2736 
Q 959 2375 959 1747 
Q 959 1119 1226 758 
Q 1494 397 1959 397 
Q 2419 397 2687 759 
Q 2956 1122 2956 1747 
Q 2956 2369 2687 2733 
Q 2419 3097 1959 3097 
z
M 1959 3584 
Q 2709 3584 3137 3096 
Q 3566 2609 3566 1747 
Q 3566 888 3137 398 
Q 2709 -91 1959 -91 
Q 1206 -91 779 398 
Q 353 888 353 1747 
Q 353 2609 779 3096 
Q 1206 3584 1959 3584 
z
" id="DejaVuSans-6f" transform="scale(0.015625)"/>
       <path d="M 1159 525 
L 1159 -1331 
L 581 -1331 
L 581 3500 
L 1159 3500 
L 1159 2969 
Q 1341 3281 1617 3432 
Q 1894 3584 2278 3584 
Q 2916 3584 3314 3078 
Q 3713 2572 3713 1747 
Q 3713 922 3314 415 
Q 2916 -91 2278 -91 
Q 1894 -91 1617 61 
Q 1341 213 1159 525 
z
M 3116 1747 
Q 3116 2381 2855 2742 
Q 2594 3103 2138 3103 
Q 1681 3103 1420 2742 
Q 1159 2381 1159 1747 
Q 1159 1113 1420 752 
Q 1681 391 2138 391 
Q 2594 391 2855 752 
Q 3116 1113 3116 1747 
z
" id="DejaVuSans-70" transform="scale(0.015625)"/>
       <path d="M 2194 1759 
Q 1497 1759 1228 1600 
Q 959 1441 959 1056 
Q 959 750 1161 570 
Q 1363 391 1709 391 
Q 2188 391 2477 730 
Q 2766 1069 2766 1631 
L 2766 1759 
L 2194 1759 
z
M 3341 1997 
L 3341 0 
L 2766 0 
L 2766 531 
Q 2569 213 2275 61 
Q 1981 -91 1556 -91 
Q 1019 -91 701 211 
Q 384 513 384 1019 
Q 384 1609 779 1909 
Q 1175 2209 1959 2209 
L 2766 2209 
L 2766 2266 
Q 2766 2663 2505 2880 
Q 2244 3097 1772 3097 
Q 1472 3097 1187 3025 
Q 903 2953 641 2809 
L 641 3341 
Q 956 3463 1253 3523 
Q 1550 3584 1831 3584 
Q 2591 3584 2966 3190 
Q 3341 2797 3341 1997 
z
" id="DejaVuSans-61" transform="scale(0.015625)"/>
       <path d="M 2906 1791 
Q 2906 2416 2648 2759 
Q 2391 3103 1925 3103 
Q 1463 3103 1205 2759 
Q 947 2416 947 1791 
Q 947 1169 1205 825 
Q 1463 481 1925 481 
Q 2391 481 2648 825 
Q 2906 1169 2906 1791 
z
M 3481 434 
Q 3481 -459 3084 -895 
Q 2688 -1331 1869 -1331 
Q 1566 -1331 1297 -1286 
Q 1028 -1241 775 -1147 
L 775 -588 
Q 1028 -725 1275 -790 
Q 1522 -856 1778 -856 
Q 2344 -856 2625 -561 
Q 2906 -266 2906 331 
L 2906 616 
Q 2728 306 2450 153 
Q 2172 0 1784 0 
Q 1141 0 747 490 
Q 353 981 353 1791 
Q 353 2603 747 3093 
Q 1141 3584 1784 3584 
Q 2172 3584 2450 3431 
Q 2728 3278 2906 2969 
L 2906 3500 
L 3481 3500 
L 3481 434 
z
" id="DejaVuSans-67" transform="scale(0.015625)"/>
       <path d="M 1172 4494 
L 1172 3500 
L 2356 3500 
L 2356 3053 
L 1172 3053 
L 1172 1153 
Q 1172 725 1289 603 
Q 1406 481 1766 481 
L 2356 481 
L 2356 0 
L 1766 0 
Q 1100 0 847 248 
Q 594 497 594 1153 
L 594 3053 
L 172 3053 
L 172 3500 
L 594 3500 
L 594 4494 
L 1172 4494 
z
" id="DejaVuSans-74" transform="scale(0.015625)"/>
       <path d="M 603 3500 
L 1178 3500 
L 1178 0 
L 603 0 
L 603 3500 
z
M 603 4863 
L 1178 4863 
L 1178 4134 
L 603 4134 
L 603 4863 
z
" id="DejaVuSans-69" transform="scale(0.015625)"/>
       <path d="M 3513 2113 
L 3513 0 
L 2938 0 
L 2938 2094 
Q 2938 2591 2744 2837 
Q 2550 3084 2163 3084 
Q 1697 3084 1428 2787 
Q 1159 2491 1159 1978 
L 1159 0 
L 581 0 
L 581 3500 
L 1159 3500 
L 1159 2956 
Q 1366 3272 1645 3428 
Q 1925 3584 2291 3584 
Q 2894 3584 3203 3211 
Q 3513 2838 3513 2113 
z
" id="DejaVuSans-6e" transform="scale(0.015625)"/>
       <path id="DejaVuSans-20" transform="scale(0.015625)"/>
       <path d="M 2906 2969 
L 2906 4863 
L 3481 4863 
L 3481 0 
L 2906 0 
L 2906 525 
Q 2725 213 2448 61 
Q 2172 -91 1784 -91 
Q 1150 -91 751 415 
Q 353 922 353 1747 
Q 353 2572 751 3078 
Q 1150 3584 1784 3584 
Q 2172 3584 2448 3432 
Q 2725 3281 2906 2969 
z
M 947 1747 
Q 947 1113 1208 752 
Q 1469 391 1925 391 
Q 2381 391 2643 752 
Q 2906 1113 2906 1747 
Q 2906 2381 2643 2742 
Q 2381 3103 1925 3103 
Q 1469 3103 1208 2742 
Q 947 2381 947 1747 
z
" id="DejaVuSans-64" transform="scale(0.015625)"/>
       <path d="M 3597 1894 
L 3597 1613 
L 953 1613 
Q 991 1019 1311 708 
Q 1631 397 2203 397 
Q 2534 397 2845 478 
Q 3156 559 3463 722 
L 3463 178 
Q 3153 47 2828 -22 
Q 2503 -91 2169 -91 
Q 1331 -91 842 396 
Q 353 884 353 1716 
Q 353 2575 817 3079 
Q 1281 3584 2069 3584 
Q 2775 3584 3186 3129 
Q 3597 2675 3597 1894 
z
M 3022 2063 
Q 3016 2534 2758 2815 
Q 2500 3097 2075 3097 
Q 1594 3097 1305 2825 
Q 1016 2553 972 2059 
L 3022 2063 
z
" id="DejaVuSans-65" transform="scale(0.015625)"/>
       <path d="M 3122 3366 
L 3122 2828 
Q 2878 2963 2633 3030 
Q 2388 3097 2138 3097 
Q 1578 3097 1268 2742 
Q 959 2388 959 1747 
Q 959 1106 1268 751 
Q 1578 397 2138 397 
Q 2388 397 2633 464 
Q 2878 531 3122 666 
L 3122 134 
Q 2881 22 2623 -34 
Q 2366 -91 2075 -91 
Q 1284 -91 818 406 
Q 353 903 353 1747 
Q 353 2603 823 3093 
Q 1294 3584 2113 3584 
Q 2378 3584 2631 3529 
Q 2884 3475 3122 3366 
z
" id="DejaVuSans-63" transform="scale(0.015625)"/>
      </defs>
      <use xlink:href="#DejaVuSans-50"/>
      <use x="58.552734" xlink:href="#DejaVuSans-72"/>
      <use x="97.416016" xlink:href="#DejaVuSans-6f"/>
      <use x="158.597656" xlink:href="#DejaVuSans-70"/>
      <use x="222.074219" xlink:href="#DejaVuSans-61"/>
      <use x="283.353516" xlink:href="#DejaVuSans-67"/>
      <use x="346.830078" xlink:href="#DejaVuSans-61"/>
      <use x="408.109375" xlink:href="#DejaVuSans-74"/>
      <use x="447.318359" xlink:href="#DejaVuSans-69"/>
      <use x="475.101562" xlink:href="#DejaVuSans-6f"/>
      <use x="536.283203" xlink:href="#DejaVuSans-6e"/>
      <use x="599.662109" xlink:href="#DejaVuSans-20"/>
      <use x="631.449219" xlink:href="#DejaVuSans-64"/>
      <use x="694.925781" xlink:href="#DejaVuSans-69"/>
      <use x="722.708984" xlink:href="#DejaVuSans-72"/>
      <use x="761.572266" xlink:href="#DejaVuSans-65"/>
      <use x="823.095703" xlink:href="#DejaVuSans-63"/>
      <use x="878.076172" xlink:href="#DejaVuSans-74"/>
      <use x="917.285156" xlink:href="#DejaVuSans-69"/>
      <use x="945.068359" xlink:href="#DejaVuSans-6f"/>
      <use x="1006.25" xlink:href="#DejaVuSans-6e"/>
     </g>
    </g>
   </g>
   <g id="matplotlib.axis_2">
    <g id="ytick_1">
     <g id="line2d_7">
      <defs>
       <path d="M 0 0 
L -3.5 0 
" id="mba258d050c" style="stroke:#000000;stroke-width:0.8;"/>
      </defs>
      <g>
       <use style="stroke:#000000;stroke-width:0.8;" x="50.14375" xlink:href="#mba258d050c" y="273.312"/>
      </g>
     </g>
     <g id="text_8">
      <!-- 0.00 -->
      <g transform="translate(20.878125 277.111219)scale(0.1 -0.1)">
       <use xlink:href="#DejaVuSans-30"/>
       <use x="63.623047" xlink:href="#DejaVuSans-2e"/>
       <use x="95.410156" xlink:href="#DejaVuSans-30"/>
       <use x="159.033203" xlink:href="#DejaVuSans-30"/>
      </g>
     </g>
    </g>
    <g id="ytick_2">
     <g id="line2d_8">
      <g>
       <use style="stroke:#000000;stroke-width:0.8;" x="50.14375" xlink:href="#mba258d050c" y="241.945258"/>
      </g>
     </g>
     <g id="text_9">
      <!-- 0.25 -->
      <g transform="translate(20.878125 245.744477)scale(0.1 -0.1)">
       <defs>
        <path d="M 691 4666 
L 3169 4666 
L 3169 4134 
L 1269 4134 
L 1269 2991 
Q 1406 3038 1543 3061 
Q 1681 3084 1819 3084 
Q 2600 3084 3056 2656 
Q 3513 2228 3513 1497 
Q 3513 744 3044 326 
Q 2575 -91 1722 -91 
Q 1428 -91 1123 -41 
Q 819 9 494 109 
L 494 744 
Q 775 591 1075 516 
Q 1375 441 1709 441 
Q 2250 441 2565 725 
Q 2881 1009 2881 1497 
Q 2881 1984 2565 2268 
Q 2250 2553 1709 2553 
Q 1456 2553 1204 2497 
Q 953 2441 691 2322 
L 691 4666 
z
" id="DejaVuSans-35" transform="scale(0.015625)"/>
       </defs>
       <use xlink:href="#DejaVuSans-30"/>
       <use x="63.623047" xlink:href="#DejaVuSans-2e"/>
       <use x="95.410156" xlink:href="#DejaVuSans-32"/>
       <use x="159.033203" xlink:href="#DejaVuSans-35"/>
      </g>
     </g>
    </g>
    <g id="ytick_3">
     <g id="line2d_9">
      <g>
       <use style="stroke:#000000;stroke-width:0.8;" x="50.14375" xlink:href="#mba258d050c" y="210.578516"/>
      </g>
     </g>
     <g id="text_10">
      <!-- 0.50 -->
      <g transform="translate(20.878125 214.377735)scale(0.1 -0.1)">
       <use xlink:href="#DejaVuSans-30"/>
       <use x="63.623047" xlink:href="#DejaVuSans-2e"/>
       <use x="95.410156" xlink:href="#DejaVuSans-35"/>
       <use x="159.033203" xlink:href="#DejaVuSans-30"/>
      </g>
     </g>
    </g>
    <g id="ytick_4">
     <g id="line2d_10">
      <g>
       <use style="stroke:#000000;stroke-width:0.8;" x="50.14375" xlink:href="#mba258d050c" y="179.211774"/>
      </g>
     </g>
     <g id="text_11">
      <!-- 0.75 -->
      <g transform="translate(20.878125 183.010993)scale(0.1 -0.1)">
       <defs>
        <path d="M 525 4666 
L 3525 4666 
L 3525 4397 
L 1831 0 
L 1172 0 
L 2766 4134 
L 525 4134 
L 525 4666 
z
" id="DejaVuSans-37" transform="scale(0.015625)"/>
       </defs>
       <use xlink:href="#DejaVuSans-30"/>
       <use x="63.623047" xlink:href="#DejaVuSans-2e"/>
       <use x="95.410156" xlink:href="#DejaVuSans-37"/>
       <use x="159.033203" xlink:href="#DejaVuSans-35"/>
      </g>
     </g>
    </g>
    <g id="ytick_5">
     <g id="line2d_11">
      <g>
       <use style="stroke:#000000;stroke-width:0.8;" x="50.14375" xlink:href="#mba258d050c" y="147.845032"/>
      </g>
     </g>
     <g id="text_12">
      <!-- 1.00 -->
      <g transform="translate(20.878125 151.64425)scale(0.1 -0.1)">
       <use xlink:href="#DejaVuSans-31"/>
       <use x="63.623047" xlink:href="#DejaVuSans-2e"/>
       <use x="95.410156" xlink:href="#DejaVuSans-30"/>
       <use x="159.033203" xlink:href="#DejaVuSans-30"/>
      </g>
     </g>
    </g>
    <g id="ytick_6">
     <g id="line2d_12">
      <g>
       <use style="stroke:#000000;stroke-width:0.8;" x="50.14375" xlink:href="#mba258d050c" y="116.47829"/>
      </g>
     </g>
     <g id="text_13">
      <!-- 1.25 -->
      <g transform="translate(20.878125 120.277508)scale(0.1 -0.1)">
       <use xlink:href="#DejaVuSans-31"/>
       <use x="63.623047" xlink:href="#DejaVuSans-2e"/>
       <use x="95.410156" xlink:href="#DejaVuSans-32"/>
       <use x="159.033203" xlink:href="#DejaVuSans-35"/>
      </g>
     </g>
    </g>
    <g id="ytick_7">
     <g id="line2d_13">
      <g>
       <use style="stroke:#000000;stroke-width:0.8;" x="50.14375" xlink:href="#mba258d050c" y="85.111548"/>
      </g>
     </g>
     <g id="text_14">
      <!-- 1.50 -->
      <g transform="translate(20.878125 88.910766)scale(0.1 -0.1)">
       <use xlink:href="#DejaVuSans-31"/>
       <use x="63.623047" xlink:href="#DejaVuSans-2e"/>
       <use x="95.410156" xlink:href="#DejaVuSans-35"/>
       <use x="159.033203" xlink:href="#DejaVuSans-30"/>
      </g>
     </g>
    </g>
    <g id="ytick_8">
     <g id="line2d_14">
      <g>
       <use style="stroke:#000000;stroke-width:0.8;" x="50.14375" xlink:href="#mba258d050c" y="53.744805"/>
      </g>
     </g>
     <g id="text_15">
      <!-- 1.75 -->
      <g transform="translate(20.878125 57.544024)scale(0.1 -0.1)">
       <use xlink:href="#DejaVuSans-31"/>
       <use x="63.623047" xlink:href="#DejaVuSans-2e"/>
       <use x="95.410156" xlink:href="#DejaVuSans-37"/>
       <use x="159.033203" xlink:href="#DejaVuSans-35"/>
      </g>
     </g>
    </g>
    <g id="ytick_9">
     <g id="line2d_15">
      <g>
       <use style="stroke:#000000;stroke-width:0.8;" x="50.14375" xlink:href="#mba258d050c" y="22.378063"/>
      </g>
     </g>
     <g id="text_16">
      <!-- 2.00 -->
      <g transform="translate(20.878125 26.177282)scale(0.1 -0.1)">
       <use xlink:href="#DejaVuSans-32"/>
       <use x="63.623047" xlink:href="#DejaVuSans-2e"/>
       <use x="95.410156" xlink:href="#DejaVuSans-30"/>
       <use x="159.033203" xlink:href="#DejaVuSans-30"/>
      </g>
     </g>
    </g>
    <g id="text_17">
     <!-- Probability density -->
     <g transform="translate(14.798438 186.606781)rotate(-90)scale(0.1 -0.1)">
      <defs>
       <path d="M 3116 1747 
Q 3116 2381 2855 2742 
Q 2594 3103 2138 3103 
Q 1681 3103 1420 2742 
Q 1159 2381 1159 1747 
Q 1159 1113 1420 752 
Q 1681 391 2138 391 
Q 2594 391 2855 752 
Q 3116 1113 3116 1747 
z
M 1159 2969 
Q 1341 3281 1617 3432 
Q 1894 3584 2278 3584 
Q 2916 3584 3314 3078 
Q 3713 2572 3713 1747 
Q 3713 922 3314 415 
Q 2916 -91 2278 -91 
Q 1894 -91 1617 61 
Q 1341 213 1159 525 
L 1159 0 
L 581 0 
L 581 4863 
L 1159 4863 
L 1159 2969 
z
" id="DejaVuSans-62" transform="scale(0.015625)"/>
       <path d="M 603 4863 
L 1178 4863 
L 1178 0 
L 603 0 
L 603 4863 
z
" id="DejaVuSans-6c" transform="scale(0.015625)"/>
       <path d="M 2059 -325 
Q 1816 -950 1584 -1140 
Q 1353 -1331 966 -1331 
L 506 -1331 
L 506 -850 
L 844 -850 
Q 1081 -850 1212 -737 
Q 1344 -625 1503 -206 
L 1606 56 
L 191 3500 
L 800 3500 
L 1894 763 
L 2988 3500 
L 3597 3500 
L 2059 -325 
z
" id="DejaVuSans-79" transform="scale(0.015625)"/>
       <path d="M 2834 3397 
L 2834 2853 
Q 2591 2978 2328 3040 
Q 2066 3103 1784 3103 
Q 1356 3103 1142 2972 
Q 928 2841 928 2578 
Q 928 2378 1081 2264 
Q 1234 2150 1697 2047 
L 1894 2003 
Q 2506 1872 2764 1633 
Q 3022 1394 3022 966 
Q 3022 478 2636 193 
Q 2250 -91 1575 -91 
Q 1294 -91 989 -36 
Q 684 19 347 128 
L 347 722 
Q 666 556 975 473 
Q 1284 391 1588 391 
Q 1994 391 2212 530 
Q 2431 669 2431 922 
Q 2431 1156 2273 1281 
Q 2116 1406 1581 1522 
L 1381 1569 
Q 847 1681 609 1914 
Q 372 2147 372 2553 
Q 372 3047 722 3315 
Q 1072 3584 1716 3584 
Q 2034 3584 2315 3537 
Q 2597 3491 2834 3397 
z
" id="DejaVuSans-73" transform="scale(0.015625)"/>
      </defs>
      <use xlink:href="#DejaVuSans-50"/>
      <use x="58.552734" xlink:href="#DejaVuSans-72"/>
      <use x="97.416016" xlink:href="#DejaVuSans-6f"/>
      <use x="158.597656" xlink:href="#DejaVuSans-62"/>
      <use x="222.074219" xlink:href="#DejaVuSans-61"/>
      <use x="283.353516" xlink:href="#DejaVuSans-62"/>
      <use x="346.830078" xlink:href="#DejaVuSans-69"/>
      <use x="374.613281" xlink:href="#DejaVuSans-6c"/>
      <use x="402.396484" xlink:href="#DejaVuSans-69"/>
      <use x="430.179688" xlink:href="#DejaVuSans-74"/>
      <use x="469.388672" xlink:href="#DejaVuSans-79"/>
      <use x="528.568359" xlink:href="#DejaVuSans-20"/>
      <use x="560.355469" xlink:href="#DejaVuSans-64"/>
      <use x="623.832031" xlink:href="#DejaVuSans-65"/>
      <use x="685.355469" xlink:href="#DejaVuSans-6e"/>
      <use x="748.734375" xlink:href="#DejaVuSans-73"/>
      <use x="800.833984" xlink:href="#DejaVuSans-69"/>
      <use x="828.617188" xlink:href="#DejaVuSans-74"/>
      <use x="867.826172" xlink:href="#DejaVuSans-79"/>
     </g>
    </g>
   </g>
   <g id="line2d_16">
    <path clip-path="url(#pede04f6178)" d="M 66.376477 273.312 
L 391.031023 22.378063 
L 391.031023 22.378063 
" style="fill:none;stroke:#ff7f0e;stroke-linecap:square;stroke-width:1.5;"/>
   </g>
   <g id="patch_203">
    <path d="M 50.14375 273.312 
L 50.14375 7.2 
" style="fill:none;stroke:#000000;stroke-linecap:square;stroke-linejoin:miter;stroke-width:0.8;"/>
   </g>
   <g id="patch_204">
    <path d="M 407.26375 273.312 
L 407.26375 7.2 
" style="fill:none;stroke:#000000;stroke-linecap:square;stroke-linejoin:miter;stroke-width:0.8;"/>
   </g>
   <g id="patch_205">
    <path d="M 50.14375 273.312 
L 407.26375 273.312 
" style="fill:none;stroke:#000000;stroke-linecap:square;stroke-linejoin:miter;stroke-width:0.8;"/>
   </g>
   <g id="patch_206">
    <path d="M 50.14375 7.2 
L 407.26375 7.2 
" style="fill:none;stroke:#000000;stroke-linecap:square;stroke-linejoin:miter;stroke-width:0.8;"/>
   </g>
  </g>
 </g>
 <defs>
  <clipPath id="pede04f6178">
   <rect height="266.112" width="357.12" x="50.14375" y="7.2"/>
  </clipPath>
 </defs>
</svg>
