<?xml version="1.0" encoding="utf-8" standalone="no"?>
<!DOCTYPE svg PUBLIC "-//W3C//DTD SVG 1.1//EN"
  "http://www.w3.org/Graphics/SVG/1.1/DTD/svg11.dtd">
<svg height="313.116763pt" version="1.1" viewBox="0 0 408.10125 313.116763" width="408.10125pt" xmlns="http://www.w3.org/2000/svg" xmlns:xlink="http://www.w3.org/1999/xlink">
 <metadata>
  <rdf:RDF xmlns:cc="http://creativecommons.org/ns#" xmlns:dc="http://purl.org/dc/elements/1.1/" xmlns:rdf="http://www.w3.org/1999/02/22-rdf-syntax-ns#">
   <cc:Work>
    <dc:type rdf:resource="http://purl.org/dc/dcmitype/StillImage"/>
    <dc:date>2021-07-12T18:04:49.461441</dc:date>
    <dc:format>image/svg+xml</dc:format>
    <dc:creator>
     <cc:Agent>
      <dc:title>Matplotlib v3.4.2, https://matplotlib.org/</dc:title>
     </cc:Agent>
    </dc:creator>
   </cc:Work>
  </rdf:RDF>
 </metadata>
 <defs>
  <style type="text/css">*{stroke-linecap:butt;stroke-linejoin:round;}</style>
 </defs>
 <g id="figure_1">
  <g id="patch_1">
   <path d="M 0 313.116763 
L 408.10125 313.116763 
L 408.10125 0 
L 0 0 
z
" style="fill:#ffffff;"/>
  </g>
  <g id="axes_1">
   <g id="patch_2">
    <path d="M 43.78125 275.560513 
L 400.90125 275.560513 
L 400.90125 9.448513 
L 43.78125 9.448513 
z
" style="fill:#ffffff;"/>
   </g>
   <g id="patch_3">
    <path clip-path="url(#pb25d17524c)" d="M 60.949 275.560513 
L 62.567132 275.560513 
L 62.567132 270.632513 
L 60.949 270.632513 
z
" style="fill:#1f77b4;"/>
   </g>
   <g id="patch_4">
    <path clip-path="url(#pb25d17524c)" d="M 62.567132 275.560513 
L 64.185265 275.560513 
L 64.185265 268.520513 
L 62.567132 268.520513 
z
" style="fill:#1f77b4;"/>
   </g>
   <g id="patch_5">
    <path clip-path="url(#pb25d17524c)" d="M 64.185265 275.560513 
L 65.803397 275.560513 
L 65.803397 262.184513 
L 64.185265 262.184513 
z
" style="fill:#1f77b4;"/>
   </g>
   <g id="patch_6">
    <path clip-path="url(#pb25d17524c)" d="M 65.803397 275.560513 
L 67.421529 275.560513 
L 67.421529 257.960513 
L 65.803397 257.960513 
z
" style="fill:#1f77b4;"/>
   </g>
   <g id="patch_7">
    <path clip-path="url(#pb25d17524c)" d="M 67.421529 275.560513 
L 69.039661 275.560513 
L 69.039661 263.592513 
L 67.421529 263.592513 
z
" style="fill:#1f77b4;"/>
   </g>
   <g id="patch_8">
    <path clip-path="url(#pb25d17524c)" d="M 69.039661 275.560513 
L 70.657794 275.560513 
L 70.657794 260.776513 
L 69.039661 260.776513 
z
" style="fill:#1f77b4;"/>
   </g>
   <g id="patch_9">
    <path clip-path="url(#pb25d17524c)" d="M 70.657794 275.560513 
L 72.275926 275.560513 
L 72.275926 257.960513 
L 70.657794 257.960513 
z
" style="fill:#1f77b4;"/>
   </g>
   <g id="patch_10">
    <path clip-path="url(#pb25d17524c)" d="M 72.275926 275.560513 
L 73.894058 275.560513 
L 73.894058 238.952513 
L 72.275926 238.952513 
z
" style="fill:#1f77b4;"/>
   </g>
   <g id="patch_11">
    <path clip-path="url(#pb25d17524c)" d="M 73.894058 275.560513 
L 75.512191 275.560513 
L 75.512191 247.400513 
L 73.894058 247.400513 
z
" style="fill:#1f77b4;"/>
   </g>
   <g id="patch_12">
    <path clip-path="url(#pb25d17524c)" d="M 75.512191 275.560513 
L 77.130323 275.560513 
L 77.130323 246.696513 
L 75.512191 246.696513 
z
" style="fill:#1f77b4;"/>
   </g>
   <g id="patch_13">
    <path clip-path="url(#pb25d17524c)" d="M 77.130323 275.560513 
L 78.748455 275.560513 
L 78.748455 238.248513 
L 77.130323 238.248513 
z
" style="fill:#1f77b4;"/>
   </g>
   <g id="patch_14">
    <path clip-path="url(#pb25d17524c)" d="M 78.748455 275.560513 
L 80.366587 275.560513 
L 80.366587 233.320513 
L 78.748455 233.320513 
z
" style="fill:#1f77b4;"/>
   </g>
   <g id="patch_15">
    <path clip-path="url(#pb25d17524c)" d="M 80.366587 275.560513 
L 81.98472 275.560513 
L 81.98472 229.800513 
L 80.366587 229.800513 
z
" style="fill:#1f77b4;"/>
   </g>
   <g id="patch_16">
    <path clip-path="url(#pb25d17524c)" d="M 81.98472 275.560513 
L 83.602852 275.560513 
L 83.602852 226.984513 
L 81.98472 226.984513 
z
" style="fill:#1f77b4;"/>
   </g>
   <g id="patch_17">
    <path clip-path="url(#pb25d17524c)" d="M 83.602852 275.560513 
L 85.220984 275.560513 
L 85.220984 225.576513 
L 83.602852 225.576513 
z
" style="fill:#1f77b4;"/>
   </g>
   <g id="patch_18">
    <path clip-path="url(#pb25d17524c)" d="M 85.220984 275.560513 
L 86.839116 275.560513 
L 86.839116 223.464513 
L 85.220984 223.464513 
z
" style="fill:#1f77b4;"/>
   </g>
   <g id="patch_19">
    <path clip-path="url(#pb25d17524c)" d="M 86.839116 275.560513 
L 88.457249 275.560513 
L 88.457249 221.352513 
L 86.839116 221.352513 
z
" style="fill:#1f77b4;"/>
   </g>
   <g id="patch_20">
    <path clip-path="url(#pb25d17524c)" d="M 88.457249 275.560513 
L 90.075381 275.560513 
L 90.075381 212.200513 
L 88.457249 212.200513 
z
" style="fill:#1f77b4;"/>
   </g>
   <g id="patch_21">
    <path clip-path="url(#pb25d17524c)" d="M 90.075381 275.560513 
L 91.693513 275.560513 
L 91.693513 217.832513 
L 90.075381 217.832513 
z
" style="fill:#1f77b4;"/>
   </g>
   <g id="patch_22">
    <path clip-path="url(#pb25d17524c)" d="M 91.693513 275.560513 
L 93.311646 275.560513 
L 93.311646 207.976513 
L 91.693513 207.976513 
z
" style="fill:#1f77b4;"/>
   </g>
   <g id="patch_23">
    <path clip-path="url(#pb25d17524c)" d="M 93.311646 275.560513 
L 94.929778 275.560513 
L 94.929778 208.680513 
L 93.311646 208.680513 
z
" style="fill:#1f77b4;"/>
   </g>
   <g id="patch_24">
    <path clip-path="url(#pb25d17524c)" d="M 94.929778 275.560513 
L 96.54791 275.560513 
L 96.54791 203.048513 
L 94.929778 203.048513 
z
" style="fill:#1f77b4;"/>
   </g>
   <g id="patch_25">
    <path clip-path="url(#pb25d17524c)" d="M 96.54791 275.560513 
L 98.166042 275.560513 
L 98.166042 206.568513 
L 96.54791 206.568513 
z
" style="fill:#1f77b4;"/>
   </g>
   <g id="patch_26">
    <path clip-path="url(#pb25d17524c)" d="M 98.166042 275.560513 
L 99.784175 275.560513 
L 99.784175 198.120513 
L 98.166042 198.120513 
z
" style="fill:#1f77b4;"/>
   </g>
   <g id="patch_27">
    <path clip-path="url(#pb25d17524c)" d="M 99.784175 275.560513 
L 101.402307 275.560513 
L 101.402307 188.968513 
L 99.784175 188.968513 
z
" style="fill:#1f77b4;"/>
   </g>
   <g id="patch_28">
    <path clip-path="url(#pb25d17524c)" d="M 101.402307 275.560513 
L 103.020439 275.560513 
L 103.020439 182.632513 
L 101.402307 182.632513 
z
" style="fill:#1f77b4;"/>
   </g>
   <g id="patch_29">
    <path clip-path="url(#pb25d17524c)" d="M 103.020439 275.560513 
L 104.638571 275.560513 
L 104.638571 188.264513 
L 103.020439 188.264513 
z
" style="fill:#1f77b4;"/>
   </g>
   <g id="patch_30">
    <path clip-path="url(#pb25d17524c)" d="M 104.638571 275.560513 
L 106.256704 275.560513 
L 106.256704 177.704513 
L 104.638571 177.704513 
z
" style="fill:#1f77b4;"/>
   </g>
   <g id="patch_31">
    <path clip-path="url(#pb25d17524c)" d="M 106.256704 275.560513 
L 107.874836 275.560513 
L 107.874836 176.296513 
L 106.256704 176.296513 
z
" style="fill:#1f77b4;"/>
   </g>
   <g id="patch_32">
    <path clip-path="url(#pb25d17524c)" d="M 107.874836 275.560513 
L 109.492968 275.560513 
L 109.492968 192.488513 
L 107.874836 192.488513 
z
" style="fill:#1f77b4;"/>
   </g>
   <g id="patch_33">
    <path clip-path="url(#pb25d17524c)" d="M 109.492968 275.560513 
L 111.111101 275.560513 
L 111.111101 178.408513 
L 109.492968 178.408513 
z
" style="fill:#1f77b4;"/>
   </g>
   <g id="patch_34">
    <path clip-path="url(#pb25d17524c)" d="M 111.111101 275.560513 
L 112.729233 275.560513 
L 112.729233 155.880513 
L 111.111101 155.880513 
z
" style="fill:#1f77b4;"/>
   </g>
   <g id="patch_35">
    <path clip-path="url(#pb25d17524c)" d="M 112.729233 275.560513 
L 114.347365 275.560513 
L 114.347365 150.248513 
L 112.729233 150.248513 
z
" style="fill:#1f77b4;"/>
   </g>
   <g id="patch_36">
    <path clip-path="url(#pb25d17524c)" d="M 114.347365 275.560513 
L 115.965497 275.560513 
L 115.965497 153.768513 
L 114.347365 153.768513 
z
" style="fill:#1f77b4;"/>
   </g>
   <g id="patch_37">
    <path clip-path="url(#pb25d17524c)" d="M 115.965497 275.560513 
L 117.58363 275.560513 
L 117.58363 149.544513 
L 115.965497 149.544513 
z
" style="fill:#1f77b4;"/>
   </g>
   <g id="patch_38">
    <path clip-path="url(#pb25d17524c)" d="M 117.58363 275.560513 
L 119.201762 275.560513 
L 119.201762 150.952513 
L 117.58363 150.952513 
z
" style="fill:#1f77b4;"/>
   </g>
   <g id="patch_39">
    <path clip-path="url(#pb25d17524c)" d="M 119.201762 275.560513 
L 120.819894 275.560513 
L 120.819894 153.064513 
L 119.201762 153.064513 
z
" style="fill:#1f77b4;"/>
   </g>
   <g id="patch_40">
    <path clip-path="url(#pb25d17524c)" d="M 120.819894 275.560513 
L 122.438026 275.560513 
L 122.438026 148.840513 
L 120.819894 148.840513 
z
" style="fill:#1f77b4;"/>
   </g>
   <g id="patch_41">
    <path clip-path="url(#pb25d17524c)" d="M 122.438026 275.560513 
L 124.056159 275.560513 
L 124.056159 178.408513 
L 122.438026 178.408513 
z
" style="fill:#1f77b4;"/>
   </g>
   <g id="patch_42">
    <path clip-path="url(#pb25d17524c)" d="M 124.056159 275.560513 
L 125.674291 275.560513 
L 125.674291 147.432513 
L 124.056159 147.432513 
z
" style="fill:#1f77b4;"/>
   </g>
   <g id="patch_43">
    <path clip-path="url(#pb25d17524c)" d="M 125.674291 275.560513 
L 127.292423 275.560513 
L 127.292423 146.728513 
L 125.674291 146.728513 
z
" style="fill:#1f77b4;"/>
   </g>
   <g id="patch_44">
    <path clip-path="url(#pb25d17524c)" d="M 127.292423 275.560513 
L 128.910556 275.560513 
L 128.910556 159.400513 
L 127.292423 159.400513 
z
" style="fill:#1f77b4;"/>
   </g>
   <g id="patch_45">
    <path clip-path="url(#pb25d17524c)" d="M 128.910556 275.560513 
L 130.528688 275.560513 
L 130.528688 142.504513 
L 128.910556 142.504513 
z
" style="fill:#1f77b4;"/>
   </g>
   <g id="patch_46">
    <path clip-path="url(#pb25d17524c)" d="M 130.528688 275.560513 
L 132.14682 275.560513 
L 132.14682 136.872513 
L 130.528688 136.872513 
z
" style="fill:#1f77b4;"/>
   </g>
   <g id="patch_47">
    <path clip-path="url(#pb25d17524c)" d="M 132.14682 275.560513 
L 133.764952 275.560513 
L 133.764952 127.016513 
L 132.14682 127.016513 
z
" style="fill:#1f77b4;"/>
   </g>
   <g id="patch_48">
    <path clip-path="url(#pb25d17524c)" d="M 133.764952 275.560513 
L 135.383085 275.560513 
L 135.383085 146.024513 
L 133.764952 146.024513 
z
" style="fill:#1f77b4;"/>
   </g>
   <g id="patch_49">
    <path clip-path="url(#pb25d17524c)" d="M 135.383085 275.560513 
L 137.001217 275.560513 
L 137.001217 117.160513 
L 135.383085 117.160513 
z
" style="fill:#1f77b4;"/>
   </g>
   <g id="patch_50">
    <path clip-path="url(#pb25d17524c)" d="M 137.001217 275.560513 
L 138.619349 275.560513 
L 138.619349 129.128513 
L 137.001217 129.128513 
z
" style="fill:#1f77b4;"/>
   </g>
   <g id="patch_51">
    <path clip-path="url(#pb25d17524c)" d="M 138.619349 275.560513 
L 140.237482 275.560513 
L 140.237482 112.232513 
L 138.619349 112.232513 
z
" style="fill:#1f77b4;"/>
   </g>
   <g id="patch_52">
    <path clip-path="url(#pb25d17524c)" d="M 140.237482 275.560513 
L 141.855614 275.560513 
L 141.855614 125.608513 
L 140.237482 125.608513 
z
" style="fill:#1f77b4;"/>
   </g>
   <g id="patch_53">
    <path clip-path="url(#pb25d17524c)" d="M 141.855614 275.560513 
L 143.473746 275.560513 
L 143.473746 116.456513 
L 141.855614 116.456513 
z
" style="fill:#1f77b4;"/>
   </g>
   <g id="patch_54">
    <path clip-path="url(#pb25d17524c)" d="M 143.473746 275.560513 
L 145.091878 275.560513 
L 145.091878 124.200513 
L 143.473746 124.200513 
z
" style="fill:#1f77b4;"/>
   </g>
   <g id="patch_55">
    <path clip-path="url(#pb25d17524c)" d="M 145.091878 275.560513 
L 146.710011 275.560513 
L 146.710011 119.272513 
L 145.091878 119.272513 
z
" style="fill:#1f77b4;"/>
   </g>
   <g id="patch_56">
    <path clip-path="url(#pb25d17524c)" d="M 146.710011 275.560513 
L 148.328143 275.560513 
L 148.328143 96.040513 
L 146.710011 96.040513 
z
" style="fill:#1f77b4;"/>
   </g>
   <g id="patch_57">
    <path clip-path="url(#pb25d17524c)" d="M 148.328143 275.560513 
L 149.946275 275.560513 
L 149.946275 90.408513 
L 148.328143 90.408513 
z
" style="fill:#1f77b4;"/>
   </g>
   <g id="patch_58">
    <path clip-path="url(#pb25d17524c)" d="M 149.946275 275.560513 
L 151.564407 275.560513 
L 151.564407 102.376513 
L 149.946275 102.376513 
z
" style="fill:#1f77b4;"/>
   </g>
   <g id="patch_59">
    <path clip-path="url(#pb25d17524c)" d="M 151.564407 275.560513 
L 153.18254 275.560513 
L 153.18254 86.184513 
L 151.564407 86.184513 
z
" style="fill:#1f77b4;"/>
   </g>
   <g id="patch_60">
    <path clip-path="url(#pb25d17524c)" d="M 153.18254 275.560513 
L 154.800672 275.560513 
L 154.800672 101.672513 
L 153.18254 101.672513 
z
" style="fill:#1f77b4;"/>
   </g>
   <g id="patch_61">
    <path clip-path="url(#pb25d17524c)" d="M 154.800672 275.560513 
L 156.418804 275.560513 
L 156.418804 103.784513 
L 154.800672 103.784513 
z
" style="fill:#1f77b4;"/>
   </g>
   <g id="patch_62">
    <path clip-path="url(#pb25d17524c)" d="M 156.418804 275.560513 
L 158.036937 275.560513 
L 158.036937 98.152513 
L 156.418804 98.152513 
z
" style="fill:#1f77b4;"/>
   </g>
   <g id="patch_63">
    <path clip-path="url(#pb25d17524c)" d="M 158.036937 275.560513 
L 159.655069 275.560513 
L 159.655069 95.336513 
L 158.036937 95.336513 
z
" style="fill:#1f77b4;"/>
   </g>
   <g id="patch_64">
    <path clip-path="url(#pb25d17524c)" d="M 159.655069 275.560513 
L 161.273201 275.560513 
L 161.273201 75.624513 
L 159.655069 75.624513 
z
" style="fill:#1f77b4;"/>
   </g>
   <g id="patch_65">
    <path clip-path="url(#pb25d17524c)" d="M 161.273201 275.560513 
L 162.891333 275.560513 
L 162.891333 103.784513 
L 161.273201 103.784513 
z
" style="fill:#1f77b4;"/>
   </g>
   <g id="patch_66">
    <path clip-path="url(#pb25d17524c)" d="M 162.891333 275.560513 
L 164.509466 275.560513 
L 164.509466 107.304513 
L 162.891333 107.304513 
z
" style="fill:#1f77b4;"/>
   </g>
   <g id="patch_67">
    <path clip-path="url(#pb25d17524c)" d="M 164.509466 275.560513 
L 166.127598 275.560513 
L 166.127598 83.368513 
L 164.509466 83.368513 
z
" style="fill:#1f77b4;"/>
   </g>
   <g id="patch_68">
    <path clip-path="url(#pb25d17524c)" d="M 166.127598 275.560513 
L 167.74573 275.560513 
L 167.74573 77.736513 
L 166.127598 77.736513 
z
" style="fill:#1f77b4;"/>
   </g>
   <g id="patch_69">
    <path clip-path="url(#pb25d17524c)" d="M 167.74573 275.560513 
L 169.363862 275.560513 
L 169.363862 74.216513 
L 167.74573 74.216513 
z
" style="fill:#1f77b4;"/>
   </g>
   <g id="patch_70">
    <path clip-path="url(#pb25d17524c)" d="M 169.363862 275.560513 
L 170.981995 275.560513 
L 170.981995 77.736513 
L 169.363862 77.736513 
z
" style="fill:#1f77b4;"/>
   </g>
   <g id="patch_71">
    <path clip-path="url(#pb25d17524c)" d="M 170.981995 275.560513 
L 172.600127 275.560513 
L 172.600127 84.776513 
L 170.981995 84.776513 
z
" style="fill:#1f77b4;"/>
   </g>
   <g id="patch_72">
    <path clip-path="url(#pb25d17524c)" d="M 172.600127 275.560513 
L 174.218259 275.560513 
L 174.218259 73.512513 
L 172.600127 73.512513 
z
" style="fill:#1f77b4;"/>
   </g>
   <g id="patch_73">
    <path clip-path="url(#pb25d17524c)" d="M 174.218259 275.560513 
L 175.836392 275.560513 
L 175.836392 80.552513 
L 174.218259 80.552513 
z
" style="fill:#1f77b4;"/>
   </g>
   <g id="patch_74">
    <path clip-path="url(#pb25d17524c)" d="M 175.836392 275.560513 
L 177.454524 275.560513 
L 177.454524 78.440513 
L 175.836392 78.440513 
z
" style="fill:#1f77b4;"/>
   </g>
   <g id="patch_75">
    <path clip-path="url(#pb25d17524c)" d="M 177.454524 275.560513 
L 179.072656 275.560513 
L 179.072656 88.296513 
L 177.454524 88.296513 
z
" style="fill:#1f77b4;"/>
   </g>
   <g id="patch_76">
    <path clip-path="url(#pb25d17524c)" d="M 179.072656 275.560513 
L 180.690788 275.560513 
L 180.690788 82.664513 
L 179.072656 82.664513 
z
" style="fill:#1f77b4;"/>
   </g>
   <g id="patch_77">
    <path clip-path="url(#pb25d17524c)" d="M 180.690788 275.560513 
L 182.308921 275.560513 
L 182.308921 66.472513 
L 180.690788 66.472513 
z
" style="fill:#1f77b4;"/>
   </g>
   <g id="patch_78">
    <path clip-path="url(#pb25d17524c)" d="M 182.308921 275.560513 
L 183.927053 275.560513 
L 183.927053 74.216513 
L 182.308921 74.216513 
z
" style="fill:#1f77b4;"/>
   </g>
   <g id="patch_79">
    <path clip-path="url(#pb25d17524c)" d="M 183.927053 275.560513 
L 185.545185 275.560513 
L 185.545185 69.992513 
L 183.927053 69.992513 
z
" style="fill:#1f77b4;"/>
   </g>
   <g id="patch_80">
    <path clip-path="url(#pb25d17524c)" d="M 185.545185 275.560513 
L 187.163317 275.560513 
L 187.163317 73.512513 
L 185.545185 73.512513 
z
" style="fill:#1f77b4;"/>
   </g>
   <g id="patch_81">
    <path clip-path="url(#pb25d17524c)" d="M 187.163317 275.560513 
L 188.78145 275.560513 
L 188.78145 78.440513 
L 187.163317 78.440513 
z
" style="fill:#1f77b4;"/>
   </g>
   <g id="patch_82">
    <path clip-path="url(#pb25d17524c)" d="M 188.78145 275.560513 
L 190.399582 275.560513 
L 190.399582 49.576513 
L 188.78145 49.576513 
z
" style="fill:#1f77b4;"/>
   </g>
   <g id="patch_83">
    <path clip-path="url(#pb25d17524c)" d="M 190.399582 275.560513 
L 192.017714 275.560513 
L 192.017714 77.736513 
L 190.399582 77.736513 
z
" style="fill:#1f77b4;"/>
   </g>
   <g id="patch_84">
    <path clip-path="url(#pb25d17524c)" d="M 192.017714 275.560513 
L 193.635847 275.560513 
L 193.635847 69.992513 
L 192.017714 69.992513 
z
" style="fill:#1f77b4;"/>
   </g>
   <g id="patch_85">
    <path clip-path="url(#pb25d17524c)" d="M 193.635847 275.560513 
L 195.253979 275.560513 
L 195.253979 40.424513 
L 193.635847 40.424513 
z
" style="fill:#1f77b4;"/>
   </g>
   <g id="patch_86">
    <path clip-path="url(#pb25d17524c)" d="M 195.253979 275.560513 
L 196.872111 275.560513 
L 196.872111 64.360513 
L 195.253979 64.360513 
z
" style="fill:#1f77b4;"/>
   </g>
   <g id="patch_87">
    <path clip-path="url(#pb25d17524c)" d="M 196.872111 275.560513 
L 198.490243 275.560513 
L 198.490243 78.440513 
L 196.872111 78.440513 
z
" style="fill:#1f77b4;"/>
   </g>
   <g id="patch_88">
    <path clip-path="url(#pb25d17524c)" d="M 198.490243 275.560513 
L 200.108376 275.560513 
L 200.108376 44.648513 
L 198.490243 44.648513 
z
" style="fill:#1f77b4;"/>
   </g>
   <g id="patch_89">
    <path clip-path="url(#pb25d17524c)" d="M 200.108376 275.560513 
L 201.726508 275.560513 
L 201.726508 67.880513 
L 200.108376 67.880513 
z
" style="fill:#1f77b4;"/>
   </g>
   <g id="patch_90">
    <path clip-path="url(#pb25d17524c)" d="M 201.726508 275.560513 
L 203.34464 275.560513 
L 203.34464 46.056513 
L 201.726508 46.056513 
z
" style="fill:#1f77b4;"/>
   </g>
   <g id="patch_91">
    <path clip-path="url(#pb25d17524c)" d="M 203.34464 275.560513 
L 204.962773 275.560513 
L 204.962773 58.024513 
L 203.34464 58.024513 
z
" style="fill:#1f77b4;"/>
   </g>
   <g id="patch_92">
    <path clip-path="url(#pb25d17524c)" d="M 204.962773 275.560513 
L 206.580905 275.560513 
L 206.580905 60.136513 
L 204.962773 60.136513 
z
" style="fill:#1f77b4;"/>
   </g>
   <g id="patch_93">
    <path clip-path="url(#pb25d17524c)" d="M 206.580905 275.560513 
L 208.199037 275.560513 
L 208.199037 59.432513 
L 206.580905 59.432513 
z
" style="fill:#1f77b4;"/>
   </g>
   <g id="patch_94">
    <path clip-path="url(#pb25d17524c)" d="M 208.199037 275.560513 
L 209.817169 275.560513 
L 209.817169 55.912513 
L 208.199037 55.912513 
z
" style="fill:#1f77b4;"/>
   </g>
   <g id="patch_95">
    <path clip-path="url(#pb25d17524c)" d="M 209.817169 275.560513 
L 211.435302 275.560513 
L 211.435302 47.464513 
L 209.817169 47.464513 
z
" style="fill:#1f77b4;"/>
   </g>
   <g id="patch_96">
    <path clip-path="url(#pb25d17524c)" d="M 211.435302 275.560513 
L 213.053434 275.560513 
L 213.053434 75.624513 
L 211.435302 75.624513 
z
" style="fill:#1f77b4;"/>
   </g>
   <g id="patch_97">
    <path clip-path="url(#pb25d17524c)" d="M 213.053434 275.560513 
L 214.671566 275.560513 
L 214.671566 77.032513 
L 213.053434 77.032513 
z
" style="fill:#1f77b4;"/>
   </g>
   <g id="patch_98">
    <path clip-path="url(#pb25d17524c)" d="M 214.671566 275.560513 
L 216.289698 275.560513 
L 216.289698 49.576513 
L 214.671566 49.576513 
z
" style="fill:#1f77b4;"/>
   </g>
   <g id="patch_99">
    <path clip-path="url(#pb25d17524c)" d="M 216.289698 275.560513 
L 217.907831 275.560513 
L 217.907831 41.832513 
L 216.289698 41.832513 
z
" style="fill:#1f77b4;"/>
   </g>
   <g id="patch_100">
    <path clip-path="url(#pb25d17524c)" d="M 217.907831 275.560513 
L 219.525963 275.560513 
L 219.525963 58.728513 
L 217.907831 58.728513 
z
" style="fill:#1f77b4;"/>
   </g>
   <g id="patch_101">
    <path clip-path="url(#pb25d17524c)" d="M 219.525963 275.560513 
L 221.144095 275.560513 
L 221.144095 60.840513 
L 219.525963 60.840513 
z
" style="fill:#1f77b4;"/>
   </g>
   <g id="patch_102">
    <path clip-path="url(#pb25d17524c)" d="M 221.144095 275.560513 
L 222.762228 275.560513 
L 222.762228 63.656513 
L 221.144095 63.656513 
z
" style="fill:#1f77b4;"/>
   </g>
   <g id="patch_103">
    <path clip-path="url(#pb25d17524c)" d="M 222.762228 275.560513 
L 224.38036 275.560513 
L 224.38036 43.240513 
L 222.762228 43.240513 
z
" style="fill:#1f77b4;"/>
   </g>
   <g id="patch_104">
    <path clip-path="url(#pb25d17524c)" d="M 224.38036 275.560513 
L 225.998492 275.560513 
L 225.998492 22.120513 
L 224.38036 22.120513 
z
" style="fill:#1f77b4;"/>
   </g>
   <g id="patch_105">
    <path clip-path="url(#pb25d17524c)" d="M 225.998492 275.560513 
L 227.616624 275.560513 
L 227.616624 52.392513 
L 225.998492 52.392513 
z
" style="fill:#1f77b4;"/>
   </g>
   <g id="patch_106">
    <path clip-path="url(#pb25d17524c)" d="M 227.616624 275.560513 
L 229.234757 275.560513 
L 229.234757 40.424513 
L 227.616624 40.424513 
z
" style="fill:#1f77b4;"/>
   </g>
   <g id="patch_107">
    <path clip-path="url(#pb25d17524c)" d="M 229.234757 275.560513 
L 230.852889 275.560513 
L 230.852889 54.504513 
L 229.234757 54.504513 
z
" style="fill:#1f77b4;"/>
   </g>
   <g id="patch_108">
    <path clip-path="url(#pb25d17524c)" d="M 230.852889 275.560513 
L 232.471021 275.560513 
L 232.471021 49.576513 
L 230.852889 49.576513 
z
" style="fill:#1f77b4;"/>
   </g>
   <g id="patch_109">
    <path clip-path="url(#pb25d17524c)" d="M 232.471021 275.560513 
L 234.089153 275.560513 
L 234.089153 67.880513 
L 232.471021 67.880513 
z
" style="fill:#1f77b4;"/>
   </g>
   <g id="patch_110">
    <path clip-path="url(#pb25d17524c)" d="M 234.089153 275.560513 
L 235.707286 275.560513 
L 235.707286 49.576513 
L 234.089153 49.576513 
z
" style="fill:#1f77b4;"/>
   </g>
   <g id="patch_111">
    <path clip-path="url(#pb25d17524c)" d="M 235.707286 275.560513 
L 237.325418 275.560513 
L 237.325418 66.472513 
L 235.707286 66.472513 
z
" style="fill:#1f77b4;"/>
   </g>
   <g id="patch_112">
    <path clip-path="url(#pb25d17524c)" d="M 237.325418 275.560513 
L 238.94355 275.560513 
L 238.94355 57.320513 
L 237.325418 57.320513 
z
" style="fill:#1f77b4;"/>
   </g>
   <g id="patch_113">
    <path clip-path="url(#pb25d17524c)" d="M 238.94355 275.560513 
L 240.561683 275.560513 
L 240.561683 41.128513 
L 238.94355 41.128513 
z
" style="fill:#1f77b4;"/>
   </g>
   <g id="patch_114">
    <path clip-path="url(#pb25d17524c)" d="M 240.561683 275.560513 
L 242.179815 275.560513 
L 242.179815 55.208513 
L 240.561683 55.208513 
z
" style="fill:#1f77b4;"/>
   </g>
   <g id="patch_115">
    <path clip-path="url(#pb25d17524c)" d="M 242.179815 275.560513 
L 243.797947 275.560513 
L 243.797947 50.280513 
L 242.179815 50.280513 
z
" style="fill:#1f77b4;"/>
   </g>
   <g id="patch_116">
    <path clip-path="url(#pb25d17524c)" d="M 243.797947 275.560513 
L 245.416079 275.560513 
L 245.416079 67.176513 
L 243.797947 67.176513 
z
" style="fill:#1f77b4;"/>
   </g>
   <g id="patch_117">
    <path clip-path="url(#pb25d17524c)" d="M 245.416079 275.560513 
L 247.034212 275.560513 
L 247.034212 65.064513 
L 245.416079 65.064513 
z
" style="fill:#1f77b4;"/>
   </g>
   <g id="patch_118">
    <path clip-path="url(#pb25d17524c)" d="M 247.034212 275.560513 
L 248.652344 275.560513 
L 248.652344 77.032513 
L 247.034212 77.032513 
z
" style="fill:#1f77b4;"/>
   </g>
   <g id="patch_119">
    <path clip-path="url(#pb25d17524c)" d="M 248.652344 275.560513 
L 250.270476 275.560513 
L 250.270476 85.480513 
L 248.652344 85.480513 
z
" style="fill:#1f77b4;"/>
   </g>
   <g id="patch_120">
    <path clip-path="url(#pb25d17524c)" d="M 250.270476 275.560513 
L 251.888608 275.560513 
L 251.888608 58.024513 
L 250.270476 58.024513 
z
" style="fill:#1f77b4;"/>
   </g>
   <g id="patch_121">
    <path clip-path="url(#pb25d17524c)" d="M 251.888608 275.560513 
L 253.506741 275.560513 
L 253.506741 75.624513 
L 251.888608 75.624513 
z
" style="fill:#1f77b4;"/>
   </g>
   <g id="patch_122">
    <path clip-path="url(#pb25d17524c)" d="M 253.506741 275.560513 
L 255.124873 275.560513 
L 255.124873 62.248513 
L 253.506741 62.248513 
z
" style="fill:#1f77b4;"/>
   </g>
   <g id="patch_123">
    <path clip-path="url(#pb25d17524c)" d="M 255.124873 275.560513 
L 256.743005 275.560513 
L 256.743005 55.208513 
L 255.124873 55.208513 
z
" style="fill:#1f77b4;"/>
   </g>
   <g id="patch_124">
    <path clip-path="url(#pb25d17524c)" d="M 256.743005 275.560513 
L 258.361138 275.560513 
L 258.361138 75.624513 
L 256.743005 75.624513 
z
" style="fill:#1f77b4;"/>
   </g>
   <g id="patch_125">
    <path clip-path="url(#pb25d17524c)" d="M 258.361138 275.560513 
L 259.97927 275.560513 
L 259.97927 64.360513 
L 258.361138 64.360513 
z
" style="fill:#1f77b4;"/>
   </g>
   <g id="patch_126">
    <path clip-path="url(#pb25d17524c)" d="M 259.97927 275.560513 
L 261.597402 275.560513 
L 261.597402 57.320513 
L 259.97927 57.320513 
z
" style="fill:#1f77b4;"/>
   </g>
   <g id="patch_127">
    <path clip-path="url(#pb25d17524c)" d="M 261.597402 275.560513 
L 263.215534 275.560513 
L 263.215534 71.400513 
L 261.597402 71.400513 
z
" style="fill:#1f77b4;"/>
   </g>
   <g id="patch_128">
    <path clip-path="url(#pb25d17524c)" d="M 263.215534 275.560513 
L 264.833667 275.560513 
L 264.833667 77.736513 
L 263.215534 77.736513 
z
" style="fill:#1f77b4;"/>
   </g>
   <g id="patch_129">
    <path clip-path="url(#pb25d17524c)" d="M 264.833667 275.560513 
L 266.451799 275.560513 
L 266.451799 63.656513 
L 264.833667 63.656513 
z
" style="fill:#1f77b4;"/>
   </g>
   <g id="patch_130">
    <path clip-path="url(#pb25d17524c)" d="M 266.451799 275.560513 
L 268.069931 275.560513 
L 268.069931 69.992513 
L 266.451799 69.992513 
z
" style="fill:#1f77b4;"/>
   </g>
   <g id="patch_131">
    <path clip-path="url(#pb25d17524c)" d="M 268.069931 275.560513 
L 269.688063 275.560513 
L 269.688063 94.632513 
L 268.069931 94.632513 
z
" style="fill:#1f77b4;"/>
   </g>
   <g id="patch_132">
    <path clip-path="url(#pb25d17524c)" d="M 269.688063 275.560513 
L 271.306196 275.560513 
L 271.306196 98.856513 
L 269.688063 98.856513 
z
" style="fill:#1f77b4;"/>
   </g>
   <g id="patch_133">
    <path clip-path="url(#pb25d17524c)" d="M 271.306196 275.560513 
L 272.924328 275.560513 
L 272.924328 81.256513 
L 271.306196 81.256513 
z
" style="fill:#1f77b4;"/>
   </g>
   <g id="patch_134">
    <path clip-path="url(#pb25d17524c)" d="M 272.924328 275.560513 
L 274.54246 275.560513 
L 274.54246 92.520513 
L 272.924328 92.520513 
z
" style="fill:#1f77b4;"/>
   </g>
   <g id="patch_135">
    <path clip-path="url(#pb25d17524c)" d="M 274.54246 275.560513 
L 276.160593 275.560513 
L 276.160593 74.216513 
L 274.54246 74.216513 
z
" style="fill:#1f77b4;"/>
   </g>
   <g id="patch_136">
    <path clip-path="url(#pb25d17524c)" d="M 276.160593 275.560513 
L 277.778725 275.560513 
L 277.778725 82.664513 
L 276.160593 82.664513 
z
" style="fill:#1f77b4;"/>
   </g>
   <g id="patch_137">
    <path clip-path="url(#pb25d17524c)" d="M 277.778725 275.560513 
L 279.396857 275.560513 
L 279.396857 78.440513 
L 277.778725 78.440513 
z
" style="fill:#1f77b4;"/>
   </g>
   <g id="patch_138">
    <path clip-path="url(#pb25d17524c)" d="M 279.396857 275.560513 
L 281.014989 275.560513 
L 281.014989 65.768513 
L 279.396857 65.768513 
z
" style="fill:#1f77b4;"/>
   </g>
   <g id="patch_139">
    <path clip-path="url(#pb25d17524c)" d="M 281.014989 275.560513 
L 282.633122 275.560513 
L 282.633122 94.632513 
L 281.014989 94.632513 
z
" style="fill:#1f77b4;"/>
   </g>
   <g id="patch_140">
    <path clip-path="url(#pb25d17524c)" d="M 282.633122 275.560513 
L 284.251254 275.560513 
L 284.251254 90.408513 
L 282.633122 90.408513 
z
" style="fill:#1f77b4;"/>
   </g>
   <g id="patch_141">
    <path clip-path="url(#pb25d17524c)" d="M 284.251254 275.560513 
L 285.869386 275.560513 
L 285.869386 97.448513 
L 284.251254 97.448513 
z
" style="fill:#1f77b4;"/>
   </g>
   <g id="patch_142">
    <path clip-path="url(#pb25d17524c)" d="M 285.869386 275.560513 
L 287.487519 275.560513 
L 287.487519 81.960513 
L 285.869386 81.960513 
z
" style="fill:#1f77b4;"/>
   </g>
   <g id="patch_143">
    <path clip-path="url(#pb25d17524c)" d="M 287.487519 275.560513 
L 289.105651 275.560513 
L 289.105651 91.816513 
L 287.487519 91.816513 
z
" style="fill:#1f77b4;"/>
   </g>
   <g id="patch_144">
    <path clip-path="url(#pb25d17524c)" d="M 289.105651 275.560513 
L 290.723783 275.560513 
L 290.723783 115.048513 
L 289.105651 115.048513 
z
" style="fill:#1f77b4;"/>
   </g>
   <g id="patch_145">
    <path clip-path="url(#pb25d17524c)" d="M 290.723783 275.560513 
L 292.341915 275.560513 
L 292.341915 85.480513 
L 290.723783 85.480513 
z
" style="fill:#1f77b4;"/>
   </g>
   <g id="patch_146">
    <path clip-path="url(#pb25d17524c)" d="M 292.341915 275.560513 
L 293.960048 275.560513 
L 293.960048 97.448513 
L 292.341915 97.448513 
z
" style="fill:#1f77b4;"/>
   </g>
   <g id="patch_147">
    <path clip-path="url(#pb25d17524c)" d="M 293.960048 275.560513 
L 295.57818 275.560513 
L 295.57818 100.968513 
L 293.960048 100.968513 
z
" style="fill:#1f77b4;"/>
   </g>
   <g id="patch_148">
    <path clip-path="url(#pb25d17524c)" d="M 295.57818 275.560513 
L 297.196312 275.560513 
L 297.196312 96.040513 
L 295.57818 96.040513 
z
" style="fill:#1f77b4;"/>
   </g>
   <g id="patch_149">
    <path clip-path="url(#pb25d17524c)" d="M 297.196312 275.560513 
L 298.814444 275.560513 
L 298.814444 123.496513 
L 297.196312 123.496513 
z
" style="fill:#1f77b4;"/>
   </g>
   <g id="patch_150">
    <path clip-path="url(#pb25d17524c)" d="M 298.814444 275.560513 
L 300.432577 275.560513 
L 300.432577 124.904513 
L 298.814444 124.904513 
z
" style="fill:#1f77b4;"/>
   </g>
   <g id="patch_151">
    <path clip-path="url(#pb25d17524c)" d="M 300.432577 275.560513 
L 302.050709 275.560513 
L 302.050709 122.088513 
L 300.432577 122.088513 
z
" style="fill:#1f77b4;"/>
   </g>
   <g id="patch_152">
    <path clip-path="url(#pb25d17524c)" d="M 302.050709 275.560513 
L 303.668841 275.560513 
L 303.668841 98.856513 
L 302.050709 98.856513 
z
" style="fill:#1f77b4;"/>
   </g>
   <g id="patch_153">
    <path clip-path="url(#pb25d17524c)" d="M 303.668841 275.560513 
L 305.286974 275.560513 
L 305.286974 124.200513 
L 303.668841 124.200513 
z
" style="fill:#1f77b4;"/>
   </g>
   <g id="patch_154">
    <path clip-path="url(#pb25d17524c)" d="M 305.286974 275.560513 
L 306.905106 275.560513 
L 306.905106 126.312513 
L 305.286974 126.312513 
z
" style="fill:#1f77b4;"/>
   </g>
   <g id="patch_155">
    <path clip-path="url(#pb25d17524c)" d="M 306.905106 275.560513 
L 308.523238 275.560513 
L 308.523238 127.720513 
L 306.905106 127.720513 
z
" style="fill:#1f77b4;"/>
   </g>
   <g id="patch_156">
    <path clip-path="url(#pb25d17524c)" d="M 308.523238 275.560513 
L 310.14137 275.560513 
L 310.14137 129.832513 
L 308.523238 129.832513 
z
" style="fill:#1f77b4;"/>
   </g>
   <g id="patch_157">
    <path clip-path="url(#pb25d17524c)" d="M 310.14137 275.560513 
L 311.759503 275.560513 
L 311.759503 132.648513 
L 310.14137 132.648513 
z
" style="fill:#1f77b4;"/>
   </g>
   <g id="patch_158">
    <path clip-path="url(#pb25d17524c)" d="M 311.759503 275.560513 
L 313.377635 275.560513 
L 313.377635 137.576513 
L 311.759503 137.576513 
z
" style="fill:#1f77b4;"/>
   </g>
   <g id="patch_159">
    <path clip-path="url(#pb25d17524c)" d="M 313.377635 275.560513 
L 314.995767 275.560513 
L 314.995767 129.832513 
L 313.377635 129.832513 
z
" style="fill:#1f77b4;"/>
   </g>
   <g id="patch_160">
    <path clip-path="url(#pb25d17524c)" d="M 314.995767 275.560513 
L 316.613899 275.560513 
L 316.613899 134.760513 
L 314.995767 134.760513 
z
" style="fill:#1f77b4;"/>
   </g>
   <g id="patch_161">
    <path clip-path="url(#pb25d17524c)" d="M 316.613899 275.560513 
L 318.232032 275.560513 
L 318.232032 150.248513 
L 316.613899 150.248513 
z
" style="fill:#1f77b4;"/>
   </g>
   <g id="patch_162">
    <path clip-path="url(#pb25d17524c)" d="M 318.232032 275.560513 
L 319.850164 275.560513 
L 319.850164 136.872513 
L 318.232032 136.872513 
z
" style="fill:#1f77b4;"/>
   </g>
   <g id="patch_163">
    <path clip-path="url(#pb25d17524c)" d="M 319.850164 275.560513 
L 321.468296 275.560513 
L 321.468296 152.360513 
L 319.850164 152.360513 
z
" style="fill:#1f77b4;"/>
   </g>
   <g id="patch_164">
    <path clip-path="url(#pb25d17524c)" d="M 321.468296 275.560513 
L 323.086429 275.560513 
L 323.086429 152.360513 
L 321.468296 152.360513 
z
" style="fill:#1f77b4;"/>
   </g>
   <g id="patch_165">
    <path clip-path="url(#pb25d17524c)" d="M 323.086429 275.560513 
L 324.704561 275.560513 
L 324.704561 169.256513 
L 323.086429 169.256513 
z
" style="fill:#1f77b4;"/>
   </g>
   <g id="patch_166">
    <path clip-path="url(#pb25d17524c)" d="M 324.704561 275.560513 
L 326.322693 275.560513 
L 326.322693 134.056513 
L 324.704561 134.056513 
z
" style="fill:#1f77b4;"/>
   </g>
   <g id="patch_167">
    <path clip-path="url(#pb25d17524c)" d="M 326.322693 275.560513 
L 327.940825 275.560513 
L 327.940825 160.104513 
L 326.322693 160.104513 
z
" style="fill:#1f77b4;"/>
   </g>
   <g id="patch_168">
    <path clip-path="url(#pb25d17524c)" d="M 327.940825 275.560513 
L 329.558958 275.560513 
L 329.558958 155.880513 
L 327.940825 155.880513 
z
" style="fill:#1f77b4;"/>
   </g>
   <g id="patch_169">
    <path clip-path="url(#pb25d17524c)" d="M 329.558958 275.560513 
L 331.17709 275.560513 
L 331.17709 167.144513 
L 329.558958 167.144513 
z
" style="fill:#1f77b4;"/>
   </g>
   <g id="patch_170">
    <path clip-path="url(#pb25d17524c)" d="M 331.17709 275.560513 
L 332.795222 275.560513 
L 332.795222 170.664513 
L 331.17709 170.664513 
z
" style="fill:#1f77b4;"/>
   </g>
   <g id="patch_171">
    <path clip-path="url(#pb25d17524c)" d="M 332.795222 275.560513 
L 334.413354 275.560513 
L 334.413354 173.480513 
L 332.795222 173.480513 
z
" style="fill:#1f77b4;"/>
   </g>
   <g id="patch_172">
    <path clip-path="url(#pb25d17524c)" d="M 334.413354 275.560513 
L 336.031487 275.560513 
L 336.031487 177.000513 
L 334.413354 177.000513 
z
" style="fill:#1f77b4;"/>
   </g>
   <g id="patch_173">
    <path clip-path="url(#pb25d17524c)" d="M 336.031487 275.560513 
L 337.649619 275.560513 
L 337.649619 200.936513 
L 336.031487 200.936513 
z
" style="fill:#1f77b4;"/>
   </g>
   <g id="patch_174">
    <path clip-path="url(#pb25d17524c)" d="M 337.649619 275.560513 
L 339.267751 275.560513 
L 339.267751 172.072513 
L 337.649619 172.072513 
z
" style="fill:#1f77b4;"/>
   </g>
   <g id="patch_175">
    <path clip-path="url(#pb25d17524c)" d="M 339.267751 275.560513 
L 340.885884 275.560513 
L 340.885884 178.408513 
L 339.267751 178.408513 
z
" style="fill:#1f77b4;"/>
   </g>
   <g id="patch_176">
    <path clip-path="url(#pb25d17524c)" d="M 340.885884 275.560513 
L 342.504016 275.560513 
L 342.504016 191.784513 
L 340.885884 191.784513 
z
" style="fill:#1f77b4;"/>
   </g>
   <g id="patch_177">
    <path clip-path="url(#pb25d17524c)" d="M 342.504016 275.560513 
L 344.122148 275.560513 
L 344.122148 172.776513 
L 342.504016 172.776513 
z
" style="fill:#1f77b4;"/>
   </g>
   <g id="patch_178">
    <path clip-path="url(#pb25d17524c)" d="M 344.122148 275.560513 
L 345.74028 275.560513 
L 345.74028 203.752513 
L 344.122148 203.752513 
z
" style="fill:#1f77b4;"/>
   </g>
   <g id="patch_179">
    <path clip-path="url(#pb25d17524c)" d="M 345.74028 275.560513 
L 347.358413 275.560513 
L 347.358413 189.672513 
L 345.74028 189.672513 
z
" style="fill:#1f77b4;"/>
   </g>
   <g id="patch_180">
    <path clip-path="url(#pb25d17524c)" d="M 347.358413 275.560513 
L 348.976545 275.560513 
L 348.976545 205.160513 
L 347.358413 205.160513 
z
" style="fill:#1f77b4;"/>
   </g>
   <g id="patch_181">
    <path clip-path="url(#pb25d17524c)" d="M 348.976545 275.560513 
L 350.594677 275.560513 
L 350.594677 199.528513 
L 348.976545 199.528513 
z
" style="fill:#1f77b4;"/>
   </g>
   <g id="patch_182">
    <path clip-path="url(#pb25d17524c)" d="M 350.594677 275.560513 
L 352.21281 275.560513 
L 352.21281 215.016513 
L 350.594677 215.016513 
z
" style="fill:#1f77b4;"/>
   </g>
   <g id="patch_183">
    <path clip-path="url(#pb25d17524c)" d="M 352.21281 275.560513 
L 353.830942 275.560513 
L 353.830942 212.200513 
L 352.21281 212.200513 
z
" style="fill:#1f77b4;"/>
   </g>
   <g id="patch_184">
    <path clip-path="url(#pb25d17524c)" d="M 353.830942 275.560513 
L 355.449074 275.560513 
L 355.449074 216.424513 
L 353.830942 216.424513 
z
" style="fill:#1f77b4;"/>
   </g>
   <g id="patch_185">
    <path clip-path="url(#pb25d17524c)" d="M 355.449074 275.560513 
L 357.067206 275.560513 
L 357.067206 214.312513 
L 355.449074 214.312513 
z
" style="fill:#1f77b4;"/>
   </g>
   <g id="patch_186">
    <path clip-path="url(#pb25d17524c)" d="M 357.067206 275.560513 
L 358.685339 275.560513 
L 358.685339 222.760513 
L 357.067206 222.760513 
z
" style="fill:#1f77b4;"/>
   </g>
   <g id="patch_187">
    <path clip-path="url(#pb25d17524c)" d="M 358.685339 275.560513 
L 360.303471 275.560513 
L 360.303471 222.056513 
L 358.685339 222.056513 
z
" style="fill:#1f77b4;"/>
   </g>
   <g id="patch_188">
    <path clip-path="url(#pb25d17524c)" d="M 360.303471 275.560513 
L 361.921603 275.560513 
L 361.921603 231.208513 
L 360.303471 231.208513 
z
" style="fill:#1f77b4;"/>
   </g>
   <g id="patch_189">
    <path clip-path="url(#pb25d17524c)" d="M 361.921603 275.560513 
L 363.539735 275.560513 
L 363.539735 238.952513 
L 361.921603 238.952513 
z
" style="fill:#1f77b4;"/>
   </g>
   <g id="patch_190">
    <path clip-path="url(#pb25d17524c)" d="M 363.539735 275.560513 
L 365.157868 275.560513 
L 365.157868 234.024513 
L 363.539735 234.024513 
z
" style="fill:#1f77b4;"/>
   </g>
   <g id="patch_191">
    <path clip-path="url(#pb25d17524c)" d="M 365.157868 275.560513 
L 366.776 275.560513 
L 366.776 232.616513 
L 365.157868 232.616513 
z
" style="fill:#1f77b4;"/>
   </g>
   <g id="patch_192">
    <path clip-path="url(#pb25d17524c)" d="M 366.776 275.560513 
L 368.394132 275.560513 
L 368.394132 235.432513 
L 366.776 235.432513 
z
" style="fill:#1f77b4;"/>
   </g>
   <g id="patch_193">
    <path clip-path="url(#pb25d17524c)" d="M 368.394132 275.560513 
L 370.012265 275.560513 
L 370.012265 243.176513 
L 368.394132 243.176513 
z
" style="fill:#1f77b4;"/>
   </g>
   <g id="patch_194">
    <path clip-path="url(#pb25d17524c)" d="M 370.012265 275.560513 
L 371.630397 275.560513 
L 371.630397 246.696513 
L 370.012265 246.696513 
z
" style="fill:#1f77b4;"/>
   </g>
   <g id="patch_195">
    <path clip-path="url(#pb25d17524c)" d="M 371.630397 275.560513 
L 373.248529 275.560513 
L 373.248529 252.328513 
L 371.630397 252.328513 
z
" style="fill:#1f77b4;"/>
   </g>
   <g id="patch_196">
    <path clip-path="url(#pb25d17524c)" d="M 373.248529 275.560513 
L 374.866661 275.560513 
L 374.866661 252.328513 
L 373.248529 252.328513 
z
" style="fill:#1f77b4;"/>
   </g>
   <g id="patch_197">
    <path clip-path="url(#pb25d17524c)" d="M 374.866661 275.560513 
L 376.484794 275.560513 
L 376.484794 255.848513 
L 374.866661 255.848513 
z
" style="fill:#1f77b4;"/>
   </g>
   <g id="patch_198">
    <path clip-path="url(#pb25d17524c)" d="M 376.484794 275.560513 
L 378.102926 275.560513 
L 378.102926 259.368513 
L 376.484794 259.368513 
z
" style="fill:#1f77b4;"/>
   </g>
   <g id="patch_199">
    <path clip-path="url(#pb25d17524c)" d="M 378.102926 275.560513 
L 379.721058 275.560513 
L 379.721058 262.888513 
L 378.102926 262.888513 
z
" style="fill:#1f77b4;"/>
   </g>
   <g id="patch_200">
    <path clip-path="url(#pb25d17524c)" d="M 379.721058 275.560513 
L 381.33919 275.560513 
L 381.33919 267.112513 
L 379.721058 267.112513 
z
" style="fill:#1f77b4;"/>
   </g>
   <g id="patch_201">
    <path clip-path="url(#pb25d17524c)" d="M 381.33919 275.560513 
L 382.957323 275.560513 
L 382.957323 268.520513 
L 381.33919 268.520513 
z
" style="fill:#1f77b4;"/>
   </g>
   <g id="patch_202">
    <path clip-path="url(#pb25d17524c)" d="M 382.957323 275.560513 
L 384.575455 275.560513 
L 384.575455 272.040513 
L 382.957323 272.040513 
z
" style="fill:#1f77b4;"/>
   </g>
   <g id="matplotlib.axis_1">
    <g id="xtick_1">
     <g id="line2d_1">
      <defs>
       <path d="M 0 0 
L 0 3.5 
" id="m9087f2548f" style="stroke:#000000;stroke-width:0.8;"/>
      </defs>
      <g>
       <use style="stroke:#000000;stroke-width:0.8;" x="60.013977" xlink:href="#m9087f2548f" y="275.560513"/>
      </g>
     </g>
     <g id="text_1">
      <!-- 0.0 -->
      <g transform="translate(52.062415 290.15895)scale(0.1 -0.1)">
       <defs>
        <path d="M 2034 4250 
Q 1547 4250 1301 3770 
Q 1056 3291 1056 2328 
Q 1056 1369 1301 889 
Q 1547 409 2034 409 
Q 2525 409 2770 889 
Q 3016 1369 3016 2328 
Q 3016 3291 2770 3770 
Q 2525 4250 2034 4250 
z
M 2034 4750 
Q 2819 4750 3233 4129 
Q 3647 3509 3647 2328 
Q 3647 1150 3233 529 
Q 2819 -91 2034 -91 
Q 1250 -91 836 529 
Q 422 1150 422 2328 
Q 422 3509 836 4129 
Q 1250 4750 2034 4750 
z
" id="DejaVuSans-30" transform="scale(0.015625)"/>
        <path d="M 684 794 
L 1344 794 
L 1344 0 
L 684 0 
L 684 794 
z
" id="DejaVuSans-2e" transform="scale(0.015625)"/>
       </defs>
       <use xlink:href="#DejaVuSans-30"/>
       <use x="63.623047" xlink:href="#DejaVuSans-2e"/>
       <use x="95.410156" xlink:href="#DejaVuSans-30"/>
      </g>
     </g>
    </g>
    <g id="xtick_2">
     <g id="line2d_2">
      <g>
       <use style="stroke:#000000;stroke-width:0.8;" x="101.350278" xlink:href="#m9087f2548f" y="275.560513"/>
      </g>
     </g>
     <g id="text_2">
      <!-- 0.2 -->
      <g transform="translate(93.398715 290.15895)scale(0.1 -0.1)">
       <defs>
        <path d="M 1228 531 
L 3431 531 
L 3431 0 
L 469 0 
L 469 531 
Q 828 903 1448 1529 
Q 2069 2156 2228 2338 
Q 2531 2678 2651 2914 
Q 2772 3150 2772 3378 
Q 2772 3750 2511 3984 
Q 2250 4219 1831 4219 
Q 1534 4219 1204 4116 
Q 875 4013 500 3803 
L 500 4441 
Q 881 4594 1212 4672 
Q 1544 4750 1819 4750 
Q 2544 4750 2975 4387 
Q 3406 4025 3406 3419 
Q 3406 3131 3298 2873 
Q 3191 2616 2906 2266 
Q 2828 2175 2409 1742 
Q 1991 1309 1228 531 
z
" id="DejaVuSans-32" transform="scale(0.015625)"/>
       </defs>
       <use xlink:href="#DejaVuSans-30"/>
       <use x="63.623047" xlink:href="#DejaVuSans-2e"/>
       <use x="95.410156" xlink:href="#DejaVuSans-32"/>
      </g>
     </g>
    </g>
    <g id="xtick_3">
     <g id="line2d_3">
      <g>
       <use style="stroke:#000000;stroke-width:0.8;" x="142.686578" xlink:href="#m9087f2548f" y="275.560513"/>
      </g>
     </g>
     <g id="text_3">
      <!-- 0.4 -->
      <g transform="translate(134.735016 290.15895)scale(0.1 -0.1)">
       <defs>
        <path d="M 2419 4116 
L 825 1625 
L 2419 1625 
L 2419 4116 
z
M 2253 4666 
L 3047 4666 
L 3047 1625 
L 3713 1625 
L 3713 1100 
L 3047 1100 
L 3047 0 
L 2419 0 
L 2419 1100 
L 313 1100 
L 313 1709 
L 2253 4666 
z
" id="DejaVuSans-34" transform="scale(0.015625)"/>
       </defs>
       <use xlink:href="#DejaVuSans-30"/>
       <use x="63.623047" xlink:href="#DejaVuSans-2e"/>
       <use x="95.410156" xlink:href="#DejaVuSans-34"/>
      </g>
     </g>
    </g>
    <g id="xtick_4">
     <g id="line2d_4">
      <g>
       <use style="stroke:#000000;stroke-width:0.8;" x="184.022879" xlink:href="#m9087f2548f" y="275.560513"/>
      </g>
     </g>
     <g id="text_4">
      <!-- 0.6 -->
      <g transform="translate(176.071316 290.15895)scale(0.1 -0.1)">
       <defs>
        <path d="M 2113 2584 
Q 1688 2584 1439 2293 
Q 1191 2003 1191 1497 
Q 1191 994 1439 701 
Q 1688 409 2113 409 
Q 2538 409 2786 701 
Q 3034 994 3034 1497 
Q 3034 2003 2786 2293 
Q 2538 2584 2113 2584 
z
M 3366 4563 
L 3366 3988 
Q 3128 4100 2886 4159 
Q 2644 4219 2406 4219 
Q 1781 4219 1451 3797 
Q 1122 3375 1075 2522 
Q 1259 2794 1537 2939 
Q 1816 3084 2150 3084 
Q 2853 3084 3261 2657 
Q 3669 2231 3669 1497 
Q 3669 778 3244 343 
Q 2819 -91 2113 -91 
Q 1303 -91 875 529 
Q 447 1150 447 2328 
Q 447 3434 972 4092 
Q 1497 4750 2381 4750 
Q 2619 4750 2861 4703 
Q 3103 4656 3366 4563 
z
" id="DejaVuSans-36" transform="scale(0.015625)"/>
       </defs>
       <use xlink:href="#DejaVuSans-30"/>
       <use x="63.623047" xlink:href="#DejaVuSans-2e"/>
       <use x="95.410156" xlink:href="#DejaVuSans-36"/>
      </g>
     </g>
    </g>
    <g id="xtick_5">
     <g id="line2d_5">
      <g>
       <use style="stroke:#000000;stroke-width:0.8;" x="225.35918" xlink:href="#m9087f2548f" y="275.560513"/>
      </g>
     </g>
     <g id="text_5">
      <!-- 0.8 -->
      <g transform="translate(217.407617 290.15895)scale(0.1 -0.1)">
       <defs>
        <path d="M 2034 2216 
Q 1584 2216 1326 1975 
Q 1069 1734 1069 1313 
Q 1069 891 1326 650 
Q 1584 409 2034 409 
Q 2484 409 2743 651 
Q 3003 894 3003 1313 
Q 3003 1734 2745 1975 
Q 2488 2216 2034 2216 
z
M 1403 2484 
Q 997 2584 770 2862 
Q 544 3141 544 3541 
Q 544 4100 942 4425 
Q 1341 4750 2034 4750 
Q 2731 4750 3128 4425 
Q 3525 4100 3525 3541 
Q 3525 3141 3298 2862 
Q 3072 2584 2669 2484 
Q 3125 2378 3379 2068 
Q 3634 1759 3634 1313 
Q 3634 634 3220 271 
Q 2806 -91 2034 -91 
Q 1263 -91 848 271 
Q 434 634 434 1313 
Q 434 1759 690 2068 
Q 947 2378 1403 2484 
z
M 1172 3481 
Q 1172 3119 1398 2916 
Q 1625 2713 2034 2713 
Q 2441 2713 2670 2916 
Q 2900 3119 2900 3481 
Q 2900 3844 2670 4047 
Q 2441 4250 2034 4250 
Q 1625 4250 1398 4047 
Q 1172 3844 1172 3481 
z
" id="DejaVuSans-38" transform="scale(0.015625)"/>
       </defs>
       <use xlink:href="#DejaVuSans-30"/>
       <use x="63.623047" xlink:href="#DejaVuSans-2e"/>
       <use x="95.410156" xlink:href="#DejaVuSans-38"/>
      </g>
     </g>
    </g>
    <g id="xtick_6">
     <g id="line2d_6">
      <g>
       <use style="stroke:#000000;stroke-width:0.8;" x="266.69548" xlink:href="#m9087f2548f" y="275.560513"/>
      </g>
     </g>
     <g id="text_6">
      <!-- 1.0 -->
      <g transform="translate(258.743918 290.15895)scale(0.1 -0.1)">
       <defs>
        <path d="M 794 531 
L 1825 531 
L 1825 4091 
L 703 3866 
L 703 4441 
L 1819 4666 
L 2450 4666 
L 2450 531 
L 3481 531 
L 3481 0 
L 794 0 
L 794 531 
z
" id="DejaVuSans-31" transform="scale(0.015625)"/>
       </defs>
       <use xlink:href="#DejaVuSans-31"/>
       <use x="63.623047" xlink:href="#DejaVuSans-2e"/>
       <use x="95.410156" xlink:href="#DejaVuSans-30"/>
      </g>
     </g>
    </g>
    <g id="xtick_7">
     <g id="line2d_7">
      <g>
       <use style="stroke:#000000;stroke-width:0.8;" x="308.031781" xlink:href="#m9087f2548f" y="275.560513"/>
      </g>
     </g>
     <g id="text_7">
      <!-- 1.2 -->
      <g transform="translate(300.080218 290.15895)scale(0.1 -0.1)">
       <use xlink:href="#DejaVuSans-31"/>
       <use x="63.623047" xlink:href="#DejaVuSans-2e"/>
       <use x="95.410156" xlink:href="#DejaVuSans-32"/>
      </g>
     </g>
    </g>
    <g id="xtick_8">
     <g id="line2d_8">
      <g>
       <use style="stroke:#000000;stroke-width:0.8;" x="349.368081" xlink:href="#m9087f2548f" y="275.560513"/>
      </g>
     </g>
     <g id="text_8">
      <!-- 1.4 -->
      <g transform="translate(341.416519 290.15895)scale(0.1 -0.1)">
       <use xlink:href="#DejaVuSans-31"/>
       <use x="63.623047" xlink:href="#DejaVuSans-2e"/>
       <use x="95.410156" xlink:href="#DejaVuSans-34"/>
      </g>
     </g>
    </g>
    <g id="xtick_9">
     <g id="line2d_9">
      <g>
       <use style="stroke:#000000;stroke-width:0.8;" x="390.704382" xlink:href="#m9087f2548f" y="275.560513"/>
      </g>
     </g>
     <g id="text_9">
      <!-- 1.6 -->
      <g transform="translate(382.752819 290.15895)scale(0.1 -0.1)">
       <use xlink:href="#DejaVuSans-31"/>
       <use x="63.623047" xlink:href="#DejaVuSans-2e"/>
       <use x="95.410156" xlink:href="#DejaVuSans-36"/>
      </g>
     </g>
    </g>
    <g id="text_10">
     <!-- Angle with normal (rad) -->
     <g transform="translate(163.023281 303.837075)scale(0.1 -0.1)">
      <defs>
       <path d="M 2188 4044 
L 1331 1722 
L 3047 1722 
L 2188 4044 
z
M 1831 4666 
L 2547 4666 
L 4325 0 
L 3669 0 
L 3244 1197 
L 1141 1197 
L 716 0 
L 50 0 
L 1831 4666 
z
" id="DejaVuSans-41" transform="scale(0.015625)"/>
       <path d="M 3513 2113 
L 3513 0 
L 2938 0 
L 2938 2094 
Q 2938 2591 2744 2837 
Q 2550 3084 2163 3084 
Q 1697 3084 1428 2787 
Q 1159 2491 1159 1978 
L 1159 0 
L 581 0 
L 581 3500 
L 1159 3500 
L 1159 2956 
Q 1366 3272 1645 3428 
Q 1925 3584 2291 3584 
Q 2894 3584 3203 3211 
Q 3513 2838 3513 2113 
z
" id="DejaVuSans-6e" transform="scale(0.015625)"/>
       <path d="M 2906 1791 
Q 2906 2416 2648 2759 
Q 2391 3103 1925 3103 
Q 1463 3103 1205 2759 
Q 947 2416 947 1791 
Q 947 1169 1205 825 
Q 1463 481 1925 481 
Q 2391 481 2648 825 
Q 2906 1169 2906 1791 
z
M 3481 434 
Q 3481 -459 3084 -895 
Q 2688 -1331 1869 -1331 
Q 1566 -1331 1297 -1286 
Q 1028 -1241 775 -1147 
L 775 -588 
Q 1028 -725 1275 -790 
Q 1522 -856 1778 -856 
Q 2344 -856 2625 -561 
Q 2906 -266 2906 331 
L 2906 616 
Q 2728 306 2450 153 
Q 2172 0 1784 0 
Q 1141 0 747 490 
Q 353 981 353 1791 
Q 353 2603 747 3093 
Q 1141 3584 1784 3584 
Q 2172 3584 2450 3431 
Q 2728 3278 2906 2969 
L 2906 3500 
L 3481 3500 
L 3481 434 
z
" id="DejaVuSans-67" transform="scale(0.015625)"/>
       <path d="M 603 4863 
L 1178 4863 
L 1178 0 
L 603 0 
L 603 4863 
z
" id="DejaVuSans-6c" transform="scale(0.015625)"/>
       <path d="M 3597 1894 
L 3597 1613 
L 953 1613 
Q 991 1019 1311 708 
Q 1631 397 2203 397 
Q 2534 397 2845 478 
Q 3156 559 3463 722 
L 3463 178 
Q 3153 47 2828 -22 
Q 2503 -91 2169 -91 
Q 1331 -91 842 396 
Q 353 884 353 1716 
Q 353 2575 817 3079 
Q 1281 3584 2069 3584 
Q 2775 3584 3186 3129 
Q 3597 2675 3597 1894 
z
M 3022 2063 
Q 3016 2534 2758 2815 
Q 2500 3097 2075 3097 
Q 1594 3097 1305 2825 
Q 1016 2553 972 2059 
L 3022 2063 
z
" id="DejaVuSans-65" transform="scale(0.015625)"/>
       <path id="DejaVuSans-20" transform="scale(0.015625)"/>
       <path d="M 269 3500 
L 844 3500 
L 1563 769 
L 2278 3500 
L 2956 3500 
L 3675 769 
L 4391 3500 
L 4966 3500 
L 4050 0 
L 3372 0 
L 2619 2869 
L 1863 0 
L 1184 0 
L 269 3500 
z
" id="DejaVuSans-77" transform="scale(0.015625)"/>
       <path d="M 603 3500 
L 1178 3500 
L 1178 0 
L 603 0 
L 603 3500 
z
M 603 4863 
L 1178 4863 
L 1178 4134 
L 603 4134 
L 603 4863 
z
" id="DejaVuSans-69" transform="scale(0.015625)"/>
       <path d="M 1172 4494 
L 1172 3500 
L 2356 3500 
L 2356 3053 
L 1172 3053 
L 1172 1153 
Q 1172 725 1289 603 
Q 1406 481 1766 481 
L 2356 481 
L 2356 0 
L 1766 0 
Q 1100 0 847 248 
Q 594 497 594 1153 
L 594 3053 
L 172 3053 
L 172 3500 
L 594 3500 
L 594 4494 
L 1172 4494 
z
" id="DejaVuSans-74" transform="scale(0.015625)"/>
       <path d="M 3513 2113 
L 3513 0 
L 2938 0 
L 2938 2094 
Q 2938 2591 2744 2837 
Q 2550 3084 2163 3084 
Q 1697 3084 1428 2787 
Q 1159 2491 1159 1978 
L 1159 0 
L 581 0 
L 581 4863 
L 1159 4863 
L 1159 2956 
Q 1366 3272 1645 3428 
Q 1925 3584 2291 3584 
Q 2894 3584 3203 3211 
Q 3513 2838 3513 2113 
z
" id="DejaVuSans-68" transform="scale(0.015625)"/>
       <path d="M 1959 3097 
Q 1497 3097 1228 2736 
Q 959 2375 959 1747 
Q 959 1119 1226 758 
Q 1494 397 1959 397 
Q 2419 397 2687 759 
Q 2956 1122 2956 1747 
Q 2956 2369 2687 2733 
Q 2419 3097 1959 3097 
z
M 1959 3584 
Q 2709 3584 3137 3096 
Q 3566 2609 3566 1747 
Q 3566 888 3137 398 
Q 2709 -91 1959 -91 
Q 1206 -91 779 398 
Q 353 888 353 1747 
Q 353 2609 779 3096 
Q 1206 3584 1959 3584 
z
" id="DejaVuSans-6f" transform="scale(0.015625)"/>
       <path d="M 2631 2963 
Q 2534 3019 2420 3045 
Q 2306 3072 2169 3072 
Q 1681 3072 1420 2755 
Q 1159 2438 1159 1844 
L 1159 0 
L 581 0 
L 581 3500 
L 1159 3500 
L 1159 2956 
Q 1341 3275 1631 3429 
Q 1922 3584 2338 3584 
Q 2397 3584 2469 3576 
Q 2541 3569 2628 3553 
L 2631 2963 
z
" id="DejaVuSans-72" transform="scale(0.015625)"/>
       <path d="M 3328 2828 
Q 3544 3216 3844 3400 
Q 4144 3584 4550 3584 
Q 5097 3584 5394 3201 
Q 5691 2819 5691 2113 
L 5691 0 
L 5113 0 
L 5113 2094 
Q 5113 2597 4934 2840 
Q 4756 3084 4391 3084 
Q 3944 3084 3684 2787 
Q 3425 2491 3425 1978 
L 3425 0 
L 2847 0 
L 2847 2094 
Q 2847 2600 2669 2842 
Q 2491 3084 2119 3084 
Q 1678 3084 1418 2786 
Q 1159 2488 1159 1978 
L 1159 0 
L 581 0 
L 581 3500 
L 1159 3500 
L 1159 2956 
Q 1356 3278 1631 3431 
Q 1906 3584 2284 3584 
Q 2666 3584 2933 3390 
Q 3200 3197 3328 2828 
z
" id="DejaVuSans-6d" transform="scale(0.015625)"/>
       <path d="M 2194 1759 
Q 1497 1759 1228 1600 
Q 959 1441 959 1056 
Q 959 750 1161 570 
Q 1363 391 1709 391 
Q 2188 391 2477 730 
Q 2766 1069 2766 1631 
L 2766 1759 
L 2194 1759 
z
M 3341 1997 
L 3341 0 
L 2766 0 
L 2766 531 
Q 2569 213 2275 61 
Q 1981 -91 1556 -91 
Q 1019 -91 701 211 
Q 384 513 384 1019 
Q 384 1609 779 1909 
Q 1175 2209 1959 2209 
L 2766 2209 
L 2766 2266 
Q 2766 2663 2505 2880 
Q 2244 3097 1772 3097 
Q 1472 3097 1187 3025 
Q 903 2953 641 2809 
L 641 3341 
Q 956 3463 1253 3523 
Q 1550 3584 1831 3584 
Q 2591 3584 2966 3190 
Q 3341 2797 3341 1997 
z
" id="DejaVuSans-61" transform="scale(0.015625)"/>
       <path d="M 1984 4856 
Q 1566 4138 1362 3434 
Q 1159 2731 1159 2009 
Q 1159 1288 1364 580 
Q 1569 -128 1984 -844 
L 1484 -844 
Q 1016 -109 783 600 
Q 550 1309 550 2009 
Q 550 2706 781 3412 
Q 1013 4119 1484 4856 
L 1984 4856 
z
" id="DejaVuSans-28" transform="scale(0.015625)"/>
       <path d="M 2906 2969 
L 2906 4863 
L 3481 4863 
L 3481 0 
L 2906 0 
L 2906 525 
Q 2725 213 2448 61 
Q 2172 -91 1784 -91 
Q 1150 -91 751 415 
Q 353 922 353 1747 
Q 353 2572 751 3078 
Q 1150 3584 1784 3584 
Q 2172 3584 2448 3432 
Q 2725 3281 2906 2969 
z
M 947 1747 
Q 947 1113 1208 752 
Q 1469 391 1925 391 
Q 2381 391 2643 752 
Q 2906 1113 2906 1747 
Q 2906 2381 2643 2742 
Q 2381 3103 1925 3103 
Q 1469 3103 1208 2742 
Q 947 2381 947 1747 
z
" id="DejaVuSans-64" transform="scale(0.015625)"/>
       <path d="M 513 4856 
L 1013 4856 
Q 1481 4119 1714 3412 
Q 1947 2706 1947 2009 
Q 1947 1309 1714 600 
Q 1481 -109 1013 -844 
L 513 -844 
Q 928 -128 1133 580 
Q 1338 1288 1338 2009 
Q 1338 2731 1133 3434 
Q 928 4138 513 4856 
z
" id="DejaVuSans-29" transform="scale(0.015625)"/>
      </defs>
      <use xlink:href="#DejaVuSans-41"/>
      <use x="68.408203" xlink:href="#DejaVuSans-6e"/>
      <use x="131.787109" xlink:href="#DejaVuSans-67"/>
      <use x="195.263672" xlink:href="#DejaVuSans-6c"/>
      <use x="223.046875" xlink:href="#DejaVuSans-65"/>
      <use x="284.570312" xlink:href="#DejaVuSans-20"/>
      <use x="316.357422" xlink:href="#DejaVuSans-77"/>
      <use x="398.144531" xlink:href="#DejaVuSans-69"/>
      <use x="425.927734" xlink:href="#DejaVuSans-74"/>
      <use x="465.136719" xlink:href="#DejaVuSans-68"/>
      <use x="528.515625" xlink:href="#DejaVuSans-20"/>
      <use x="560.302734" xlink:href="#DejaVuSans-6e"/>
      <use x="623.681641" xlink:href="#DejaVuSans-6f"/>
      <use x="684.863281" xlink:href="#DejaVuSans-72"/>
      <use x="724.226562" xlink:href="#DejaVuSans-6d"/>
      <use x="821.638672" xlink:href="#DejaVuSans-61"/>
      <use x="882.917969" xlink:href="#DejaVuSans-6c"/>
      <use x="910.701172" xlink:href="#DejaVuSans-20"/>
      <use x="942.488281" xlink:href="#DejaVuSans-28"/>
      <use x="981.501953" xlink:href="#DejaVuSans-72"/>
      <use x="1022.615234" xlink:href="#DejaVuSans-61"/>
      <use x="1083.894531" xlink:href="#DejaVuSans-64"/>
      <use x="1147.371094" xlink:href="#DejaVuSans-29"/>
     </g>
    </g>
   </g>
   <g id="matplotlib.axis_2">
    <g id="ytick_1">
     <g id="line2d_10">
      <defs>
       <path d="M 0 0 
L -3.5 0 
" id="m80eb117c75" style="stroke:#000000;stroke-width:0.8;"/>
      </defs>
      <g>
       <use style="stroke:#000000;stroke-width:0.8;" x="43.78125" xlink:href="#m80eb117c75" y="275.560513"/>
      </g>
     </g>
     <g id="text_11">
      <!-- 0.0 -->
      <g transform="translate(20.878125 279.359731)scale(0.1 -0.1)">
       <use xlink:href="#DejaVuSans-30"/>
       <use x="63.623047" xlink:href="#DejaVuSans-2e"/>
       <use x="95.410156" xlink:href="#DejaVuSans-30"/>
      </g>
     </g>
    </g>
    <g id="ytick_2">
     <g id="line2d_11">
      <g>
       <use style="stroke:#000000;stroke-width:0.8;" x="43.78125" xlink:href="#m80eb117c75" y="231.466964"/>
      </g>
     </g>
     <g id="text_12">
      <!-- 0.2 -->
      <g transform="translate(20.878125 235.266182)scale(0.1 -0.1)">
       <use xlink:href="#DejaVuSans-30"/>
       <use x="63.623047" xlink:href="#DejaVuSans-2e"/>
       <use x="95.410156" xlink:href="#DejaVuSans-32"/>
      </g>
     </g>
    </g>
    <g id="ytick_3">
     <g id="line2d_12">
      <g>
       <use style="stroke:#000000;stroke-width:0.8;" x="43.78125" xlink:href="#m80eb117c75" y="187.373415"/>
      </g>
     </g>
     <g id="text_13">
      <!-- 0.4 -->
      <g transform="translate(20.878125 191.172633)scale(0.1 -0.1)">
       <use xlink:href="#DejaVuSans-30"/>
       <use x="63.623047" xlink:href="#DejaVuSans-2e"/>
       <use x="95.410156" xlink:href="#DejaVuSans-34"/>
      </g>
     </g>
    </g>
    <g id="ytick_4">
     <g id="line2d_13">
      <g>
       <use style="stroke:#000000;stroke-width:0.8;" x="43.78125" xlink:href="#m80eb117c75" y="143.279866"/>
      </g>
     </g>
     <g id="text_14">
      <!-- 0.6 -->
      <g transform="translate(20.878125 147.079084)scale(0.1 -0.1)">
       <use xlink:href="#DejaVuSans-30"/>
       <use x="63.623047" xlink:href="#DejaVuSans-2e"/>
       <use x="95.410156" xlink:href="#DejaVuSans-36"/>
      </g>
     </g>
    </g>
    <g id="ytick_5">
     <g id="line2d_14">
      <g>
       <use style="stroke:#000000;stroke-width:0.8;" x="43.78125" xlink:href="#m80eb117c75" y="99.186317"/>
      </g>
     </g>
     <g id="text_15">
      <!-- 0.8 -->
      <g transform="translate(20.878125 102.985535)scale(0.1 -0.1)">
       <use xlink:href="#DejaVuSans-30"/>
       <use x="63.623047" xlink:href="#DejaVuSans-2e"/>
       <use x="95.410156" xlink:href="#DejaVuSans-38"/>
      </g>
     </g>
    </g>
    <g id="ytick_6">
     <g id="line2d_15">
      <g>
       <use style="stroke:#000000;stroke-width:0.8;" x="43.78125" xlink:href="#m80eb117c75" y="55.092768"/>
      </g>
     </g>
     <g id="text_16">
      <!-- 1.0 -->
      <g transform="translate(20.878125 58.891986)scale(0.1 -0.1)">
       <use xlink:href="#DejaVuSans-31"/>
       <use x="63.623047" xlink:href="#DejaVuSans-2e"/>
       <use x="95.410156" xlink:href="#DejaVuSans-30"/>
      </g>
     </g>
    </g>
    <g id="ytick_7">
     <g id="line2d_16">
      <g>
       <use style="stroke:#000000;stroke-width:0.8;" x="43.78125" xlink:href="#m80eb117c75" y="10.999219"/>
      </g>
     </g>
     <g id="text_17">
      <!-- 1.2 -->
      <g transform="translate(20.878125 14.798438)scale(0.1 -0.1)">
       <use xlink:href="#DejaVuSans-31"/>
       <use x="63.623047" xlink:href="#DejaVuSans-2e"/>
       <use x="95.410156" xlink:href="#DejaVuSans-32"/>
      </g>
     </g>
    </g>
    <g id="text_18">
     <!-- Probability density -->
     <g transform="translate(14.798438 188.855294)rotate(-90)scale(0.1 -0.1)">
      <defs>
       <path d="M 1259 4147 
L 1259 2394 
L 2053 2394 
Q 2494 2394 2734 2622 
Q 2975 2850 2975 3272 
Q 2975 3691 2734 3919 
Q 2494 4147 2053 4147 
L 1259 4147 
z
M 628 4666 
L 2053 4666 
Q 2838 4666 3239 4311 
Q 3641 3956 3641 3272 
Q 3641 2581 3239 2228 
Q 2838 1875 2053 1875 
L 1259 1875 
L 1259 0 
L 628 0 
L 628 4666 
z
" id="DejaVuSans-50" transform="scale(0.015625)"/>
       <path d="M 3116 1747 
Q 3116 2381 2855 2742 
Q 2594 3103 2138 3103 
Q 1681 3103 1420 2742 
Q 1159 2381 1159 1747 
Q 1159 1113 1420 752 
Q 1681 391 2138 391 
Q 2594 391 2855 752 
Q 3116 1113 3116 1747 
z
M 1159 2969 
Q 1341 3281 1617 3432 
Q 1894 3584 2278 3584 
Q 2916 3584 3314 3078 
Q 3713 2572 3713 1747 
Q 3713 922 3314 415 
Q 2916 -91 2278 -91 
Q 1894 -91 1617 61 
Q 1341 213 1159 525 
L 1159 0 
L 581 0 
L 581 4863 
L 1159 4863 
L 1159 2969 
z
" id="DejaVuSans-62" transform="scale(0.015625)"/>
       <path d="M 2059 -325 
Q 1816 -950 1584 -1140 
Q 1353 -1331 966 -1331 
L 506 -1331 
L 506 -850 
L 844 -850 
Q 1081 -850 1212 -737 
Q 1344 -625 1503 -206 
L 1606 56 
L 191 3500 
L 800 3500 
L 1894 763 
L 2988 3500 
L 3597 3500 
L 2059 -325 
z
" id="DejaVuSans-79" transform="scale(0.015625)"/>
       <path d="M 2834 3397 
L 2834 2853 
Q 2591 2978 2328 3040 
Q 2066 3103 1784 3103 
Q 1356 3103 1142 2972 
Q 928 2841 928 2578 
Q 928 2378 1081 2264 
Q 1234 2150 1697 2047 
L 1894 2003 
Q 2506 1872 2764 1633 
Q 3022 1394 3022 966 
Q 3022 478 2636 193 
Q 2250 -91 1575 -91 
Q 1294 -91 989 -36 
Q 684 19 347 128 
L 347 722 
Q 666 556 975 473 
Q 1284 391 1588 391 
Q 1994 391 2212 530 
Q 2431 669 2431 922 
Q 2431 1156 2273 1281 
Q 2116 1406 1581 1522 
L 1381 1569 
Q 847 1681 609 1914 
Q 372 2147 372 2553 
Q 372 3047 722 3315 
Q 1072 3584 1716 3584 
Q 2034 3584 2315 3537 
Q 2597 3491 2834 3397 
z
" id="DejaVuSans-73" transform="scale(0.015625)"/>
      </defs>
      <use xlink:href="#DejaVuSans-50"/>
      <use x="58.552734" xlink:href="#DejaVuSans-72"/>
      <use x="97.416016" xlink:href="#DejaVuSans-6f"/>
      <use x="158.597656" xlink:href="#DejaVuSans-62"/>
      <use x="222.074219" xlink:href="#DejaVuSans-61"/>
      <use x="283.353516" xlink:href="#DejaVuSans-62"/>
      <use x="346.830078" xlink:href="#DejaVuSans-69"/>
      <use x="374.613281" xlink:href="#DejaVuSans-6c"/>
      <use x="402.396484" xlink:href="#DejaVuSans-69"/>
      <use x="430.179688" xlink:href="#DejaVuSans-74"/>
      <use x="469.388672" xlink:href="#DejaVuSans-79"/>
      <use x="528.568359" xlink:href="#DejaVuSans-20"/>
      <use x="560.355469" xlink:href="#DejaVuSans-64"/>
      <use x="623.832031" xlink:href="#DejaVuSans-65"/>
      <use x="685.355469" xlink:href="#DejaVuSans-6e"/>
      <use x="748.734375" xlink:href="#DejaVuSans-73"/>
      <use x="800.833984" xlink:href="#DejaVuSans-69"/>
      <use x="828.617188" xlink:href="#DejaVuSans-74"/>
      <use x="867.826172" xlink:href="#DejaVuSans-79"/>
     </g>
    </g>
   </g>
   <g id="line2d_17">
    <path clip-path="url(#pb25d17524c)" d="M 60.013977 275.560513 
L 79.837728 233.527313 
L 90.237073 211.997636 
L 99.01152 194.323573 
L 106.811029 179.100801 
L 113.960578 165.62699 
L 120.460169 153.832853 
L 126.63478 143.073589 
L 132.484411 133.316171 
L 138.009063 124.518702 
L 143.208736 116.632543 
L 148.408408 109.148653 
L 153.283101 102.514709 
L 158.157794 96.26574 
L 162.707507 90.792978 
L 167.257221 85.678296 
L 171.481954 81.258252 
L 175.706688 77.162901 
L 179.606442 73.676693 
L 183.506197 70.477948 
L 187.405951 67.57122 
L 190.980726 65.166791 
L 194.555501 63.014097 
L 198.130275 61.115714 
L 201.70505 59.473913 
L 205.279825 58.090658 
L 208.52962 57.058911 
L 211.779415 56.24323 
L 215.029211 55.644423 
L 218.279006 55.263081 
L 221.528801 55.099581 
L 224.778596 55.154085 
L 228.028392 55.42654 
L 231.278187 55.916675 
L 234.527982 56.624007 
L 237.777777 57.547835 
L 241.027573 58.687246 
L 244.602347 60.188246 
L 248.177122 61.946937 
L 251.751897 63.961216 
L 255.326672 66.228673 
L 258.901447 68.746594 
L 262.801201 71.775522 
L 266.700955 75.094621 
L 270.600709 78.699162 
L 274.825443 82.920235 
L 279.050177 87.463224 
L 283.274911 92.320536 
L 287.824624 97.893689 
L 292.374338 103.81116 
L 297.249031 110.520354 
L 302.123723 117.596713 
L 307.323396 125.531773 
L 312.848048 134.378386 
L 318.697679 144.184529 
L 324.87229 154.99136 
L 331.371881 166.831098 
L 338.196451 179.724709 
L 345.67098 194.323573 
L 354.120447 211.334078 
L 363.869833 231.487426 
L 376.544035 258.245533 
L 384.668523 275.560513 
L 384.668523 275.560513 
" style="fill:none;stroke:#ff7f0e;stroke-linecap:square;stroke-width:1.5;"/>
   </g>
   <g id="patch_203">
    <path d="M 43.78125 275.560513 
L 43.78125 9.448513 
" style="fill:none;stroke:#000000;stroke-linecap:square;stroke-linejoin:miter;stroke-width:0.8;"/>
   </g>
   <g id="patch_204">
    <path d="M 400.90125 275.560513 
L 400.90125 9.448513 
" style="fill:none;stroke:#000000;stroke-linecap:square;stroke-linejoin:miter;stroke-width:0.8;"/>
   </g>
   <g id="patch_205">
    <path d="M 43.78125 275.560513 
L 400.90125 275.560513 
" style="fill:none;stroke:#000000;stroke-linecap:square;stroke-linejoin:miter;stroke-width:0.8;"/>
   </g>
   <g id="patch_206">
    <path d="M 43.78125 9.448513 
L 400.90125 9.448513 
" style="fill:none;stroke:#000000;stroke-linecap:square;stroke-linejoin:miter;stroke-width:0.8;"/>
   </g>
  </g>
 </g>
 <defs>
  <clipPath id="pb25d17524c">
   <rect height="266.112" width="357.12" x="43.78125" y="9.448513"/>
  </clipPath>
 </defs>
</svg>
