<?xml version="1.0" encoding="utf-8" standalone="no"?>
<!DOCTYPE svg PUBLIC "-//W3C//DTD SVG 1.1//EN"
  "http://www.w3.org/Graphics/SVG/1.1/DTD/svg11.dtd">
<svg xmlns:xlink="http://www.w3.org/1999/xlink" width="475.2pt" height="360pt" viewBox="0 0 475.2 360" xmlns="http://www.w3.org/2000/svg" version="1.1">
 <metadata>
  <rdf:RDF xmlns:dc="http://purl.org/dc/elements/1.1/" xmlns:cc="http://creativecommons.org/ns#" xmlns:rdf="http://www.w3.org/1999/02/22-rdf-syntax-ns#">
   <cc:Work>
    <dc:type rdf:resource="http://purl.org/dc/dcmitype/StillImage"/>
    <dc:date>2024-11-20T07:45:39.639300</dc:date>
    <dc:format>image/svg+xml</dc:format>
    <dc:creator>
     <cc:Agent>
      <dc:title>Matplotlib v3.8.4, https://matplotlib.org/</dc:title>
     </cc:Agent>
    </dc:creator>
   </cc:Work>
  </rdf:RDF>
 </metadata>
 <defs>
  <style type="text/css">*{stroke-linejoin: round; stroke-linecap: butt}</style>
 </defs>
 <g id="figure_1">
  <g id="patch_1">
   <path d="M 0 360 
L 475.2 360 
L 475.2 0 
L 0 0 
z
" style="fill: #ffffff"/>
  </g>
  <g id="axes_1">
   <g id="patch_2">
    <path d="M 300.902908 236.773082 
Q 249.953795 242.025997 200.116821 247.164249 
" clip-path="url(#pf8e84843ff)" style="fill: none; stroke: #000000; stroke-linecap: round"/>
    <path d="M 204.300844 248.743473 
L 200.116821 247.164249 
L 203.890614 244.764565 
z
" clip-path="url(#pf8e84843ff)" style="stroke: #000000; stroke-linecap: round"/>
   </g>
   <g id="patch_3">
    <path d="M 318.132956 235.006903 
Q 368.765802 229.846878 418.286375 224.800205 
" clip-path="url(#pf8e84843ff)" style="fill: none; stroke: #000000; stroke-linecap: round"/>
    <path d="M 414.104215 223.216053 
L 418.286375 224.800205 
L 414.509757 227.195442 
z
" clip-path="url(#pf8e84843ff)" style="stroke: #000000; stroke-linecap: round"/>
   </g>
   <g id="patch_4">
    <path d="M 151.665028 155.366421 
Q 155.007728 150.582994 157.710011 146.716009 
" clip-path="url(#pf8e84843ff)" style="fill: none; stroke: #000000; stroke-linecap: round"/>
    <path d="M 153.779403 148.849157 
L 157.710011 146.716009 
L 157.058164 151.140384 
z
" clip-path="url(#pf8e84843ff)" style="stroke: #000000; stroke-linecap: round"/>
   </g>
   <g id="patch_5">
    <path d="M 140.539118 168.55084 
Q 133.236027 175.759442 126.728637 182.182638 
" clip-path="url(#pf8e84843ff)" style="fill: none; stroke: #000000; stroke-linecap: round"/>
    <path d="M 130.980396 180.796078 
L 126.728637 182.182638 
L 128.170445 177.949295 
z
" clip-path="url(#pf8e84843ff)" style="stroke: #000000; stroke-linecap: round"/>
   </g>
   <g id="patch_6">
    <path d="M 88.025222 220.332712 
Q 87.289985 219.049438 87.110552 218.736257 
" clip-path="url(#pf8e84843ff)" style="fill: none; stroke: #000000; stroke-linecap: round"/>
    <path d="M 87.363701 223.201223 
L 87.110552 218.736257 
L 90.834413 221.212717 
z
" clip-path="url(#pf8e84843ff)" style="stroke: #000000; stroke-linecap: round"/>
   </g>
   <g id="patch_7">
    <path d="M 136.245316 155.002826 
Q 123.849384 173.356906 112.079201 190.784466 
" clip-path="url(#pf8e84843ff)" style="fill: none; stroke: #000000; stroke-linecap: round"/>
    <path d="M 115.975359 188.589028 
L 112.079201 190.784466 
L 112.660545 186.350277 
z
" clip-path="url(#pf8e84843ff)" style="stroke: #000000; stroke-linecap: round"/>
   </g>
   <g id="patch_8">
    <path d="M 137.670595 155.782454 
Q 127.234294 180.048383 117.239716 203.287239 
" clip-path="url(#pf8e84843ff)" style="fill: none; stroke: #000000; stroke-linecap: round"/>
    <path d="M 120.657361 200.40285 
L 117.239716 203.287239 
L 116.982792 198.82249 
z
" clip-path="url(#pf8e84843ff)" style="stroke: #000000; stroke-linecap: round"/>
   </g>
   <g id="patch_9">
    <path d="M 148.419604 152.442112 
Q 160.560954 160.092331 171.756387 167.14653 
" clip-path="url(#pf8e84843ff)" style="fill: none; stroke: #000000; stroke-linecap: round"/>
    <path d="M 169.438359 163.322037 
L 171.756387 167.14653 
L 167.305976 166.706256 
z
" clip-path="url(#pf8e84843ff)" style="stroke: #000000; stroke-linecap: round"/>
   </g>
   <g id="patch_10">
    <path d="M 133.976997 152.761886 
Q 94.140318 180.397819 55.222265 207.396472 
" clip-path="url(#pf8e84843ff)" style="fill: none; stroke: #000000; stroke-linecap: round"/>
    <path d="M 59.648844 206.759761 
L 55.222265 207.396472 
L 57.368843 203.473182 
z
" clip-path="url(#pf8e84843ff)" style="stroke: #000000; stroke-linecap: round"/>
   </g>
   <g id="patch_11">
    <path d="M 146.513014 141.076207 
Q 185.517715 92.507986 223.822345 44.811486 
" clip-path="url(#pf8e84843ff)" style="fill: none; stroke: #000000; stroke-linecap: round"/>
    <path d="M 219.758307 46.677926 
L 223.822345 44.811486 
L 222.877074 49.18258 
z
" clip-path="url(#pf8e84843ff)" style="stroke: #000000; stroke-linecap: round"/>
   </g>
   <g id="patch_12">
    <path d="M 66.019748 203.091523 
Q 60.436756 206.020253 55.84384 208.429609 
" clip-path="url(#pf8e84843ff)" style="fill: none; stroke: #000000; stroke-linecap: round"/>
    <path d="M 60.315128 208.342539 
L 55.84384 208.429609 
L 58.456956 204.800336 
z
" clip-path="url(#pf8e84843ff)" style="stroke: #000000; stroke-linecap: round"/>
   </g>
   <g id="patch_13">
    <path d="M 225.243516 304.6869 
Q 227.249749 309.724267 228.842303 313.722947 
" clip-path="url(#pf8e84843ff)" style="fill: none; stroke: #000000; stroke-linecap: round"/>
    <path d="M 229.220344 309.266818 
L 228.842303 313.722947 
L 225.504224 310.746837 
z
" clip-path="url(#pf8e84843ff)" style="stroke: #000000; stroke-linecap: round"/>
   </g>
   <g id="patch_14">
    <path d="M 186.058257 240.668603 
Q 168.688758 210.582849 151.878262 181.465348 
" clip-path="url(#pf8e84843ff)" style="fill: none; stroke: #000000; stroke-linecap: round"/>
    <path d="M 152.146154 185.929453 
L 151.878262 181.465348 
L 155.610281 183.929498 
z
" clip-path="url(#pf8e84843ff)" style="stroke: #000000; stroke-linecap: round"/>
   </g>
   <g id="patch_15">
    <path d="M 194.638828 255.709512 
Q 211.422813 285.485726 227.657802 314.287977 
" clip-path="url(#pf8e84843ff)" style="fill: none; stroke: #000000; stroke-linecap: round"/>
    <path d="M 227.435938 309.821348 
L 227.657802 314.287977 
L 223.95138 311.785492 
z
" clip-path="url(#pf8e84843ff)" style="stroke: #000000; stroke-linecap: round"/>
   </g>
   <g id="patch_16">
    <path d="M 155.652398 173.149182 
Q 168.063623 173.361596 179.356978 173.554879 
" clip-path="url(#pf8e84843ff)" style="fill: none; stroke: #000000; stroke-linecap: round"/>
    <path d="M 175.391788 171.486723 
L 179.356978 173.554879 
L 175.323339 175.486137 
z
" clip-path="url(#pf8e84843ff)" style="stroke: #000000; stroke-linecap: round"/>
   </g>
   <g id="patch_17">
    <path d="M 138.334072 173.174037 
Q 123.763466 173.46534 110.310671 173.734295 
" clip-path="url(#pf8e84843ff)" style="fill: none; stroke: #000000; stroke-linecap: round"/>
    <path d="M 114.349849 175.653942 
L 110.310671 173.734295 
L 114.269895 171.654741 
z
" clip-path="url(#pf8e84843ff)" style="stroke: #000000; stroke-linecap: round"/>
   </g>
   <g id="patch_18">
    <path d="M 153.01231 179.22722 
Q 154.149441 180.403153 154.509375 180.775368 
" clip-path="url(#pf8e84843ff)" style="fill: none; stroke: #000000; stroke-linecap: round"/>
    <path d="M 153.16652 176.509604 
L 154.509375 180.775368 
L 150.291051 179.290193 
z
" clip-path="url(#pf8e84843ff)" style="stroke: #000000; stroke-linecap: round"/>
   </g>
   <g id="patch_19">
    <path d="M 103.218668 206.859943 
Q 103.136253 207.053869 103.491133 206.218827 
" clip-path="url(#pf8e84843ff)" style="fill: none; stroke: #000000; stroke-linecap: round"/>
    <path d="M 106.896319 203.319739 
L 103.491133 206.218827 
L 103.214974 201.755226 
z
" clip-path="url(#pf8e84843ff)" style="stroke: #000000; stroke-linecap: round"/>
   </g>
   <g id="patch_20">
    <path d="M 113.734805 203.800752 
Q 116.902928 205.985057 119.150587 207.534736 
" clip-path="url(#pf8e84843ff)" style="fill: none; stroke: #000000; stroke-linecap: round"/>
    <path d="M 116.992693 203.617659 
L 119.150587 207.534736 
L 114.722189 206.910805 
z
" clip-path="url(#pf8e84843ff)" style="stroke: #000000; stroke-linecap: round"/>
   </g>
   <g id="patch_21">
    <path d="M 99.785416 204.218027 
Q 95.973265 207.197348 93.042032 209.488203 
" clip-path="url(#pf8e84843ff)" style="fill: none; stroke: #000000; stroke-linecap: round"/>
    <path d="M 97.425262 208.600906 
L 93.042032 209.488203 
L 94.962132 205.449241 
z
" clip-path="url(#pf8e84843ff)" style="stroke: #000000; stroke-linecap: round"/>
   </g>
   <g id="patch_22">
    <path d="M 104.557925 190.469136 
Q 103.568461 186.404968 102.843468 183.427104 
" clip-path="url(#pf8e84843ff)" style="fill: none; stroke: #000000; stroke-linecap: round"/>
    <path d="M 101.846434 187.786682 
L 102.843468 183.427104 
L 105.73291 186.840478 
z
" clip-path="url(#pf8e84843ff)" style="stroke: #000000; stroke-linecap: round"/>
   </g>
   <g id="patch_23">
    <path d="M 98.226527 201.069372 
Q 96.838738 201.430832 96.532887 201.510493 
" clip-path="url(#pf8e84843ff)" style="fill: none; stroke: #000000; stroke-linecap: round"/>
    <path d="M 100.907842 202.437728 
L 96.532887 201.510493 
L 99.899648 198.566869 
z
" clip-path="url(#pf8e84843ff)" style="stroke: #000000; stroke-linecap: round"/>
   </g>
   <g id="patch_24">
    <path d="M 105.586816 208.47954 
Q 104.320327 207.863667 104.059293 207.736731 
" clip-path="url(#pf8e84843ff)" style="fill: none; stroke: #000000; stroke-linecap: round"/>
    <path d="M 106.781884 211.284617 
L 104.059293 207.736731 
L 108.531157 207.68739 
z
" clip-path="url(#pf8e84843ff)" style="stroke: #000000; stroke-linecap: round"/>
   </g>
   <g id="patch_25">
    <path d="M 122.021752 212.779794 
Q 124.612388 212.933195 126.086945 213.020509 
" clip-path="url(#pf8e84843ff)" style="fill: none; stroke: #000000; stroke-linecap: round"/>
    <path d="M 122.212159 210.787566 
L 126.086945 213.020509 
L 121.975719 214.780571 
z
" clip-path="url(#pf8e84843ff)" style="stroke: #000000; stroke-linecap: round"/>
   </g>
   <g id="patch_26">
    <path d="M 104.733069 211.708508 
Q 97.812919 211.260667 92.008469 210.885028 
" clip-path="url(#pf8e84843ff)" style="fill: none; stroke: #000000; stroke-linecap: round"/>
    <path d="M 95.870958 213.139175 
L 92.008469 210.885028 
L 96.12928 209.147525 
z
" clip-path="url(#pf8e84843ff)" style="stroke: #000000; stroke-linecap: round"/>
   </g>
   <g id="patch_27">
    <path d="M 104.774714 213.263131 
Q 99.356897 213.889902 95.049706 214.388187 
" clip-path="url(#pf8e84843ff)" style="fill: none; stroke: #000000; stroke-linecap: round"/>
    <path d="M 99.253046 215.915255 
L 95.049706 214.388187 
L 98.793364 211.941756 
z
" clip-path="url(#pf8e84843ff)" style="stroke: #000000; stroke-linecap: round"/>
   </g>
   <g id="patch_28">
    <path d="M 136.105095 188.899666 
Q 141.650912 186.783114 146.152182 185.065212 
" clip-path="url(#pf8e84843ff)" style="fill: none; stroke: #000000; stroke-linecap: round"/>
    <path d="M 141.70197 184.622922 
L 146.152182 185.065212 
L 143.128223 188.360007 
z
" clip-path="url(#pf8e84843ff)" style="stroke: #000000; stroke-linecap: round"/>
   </g>
   <g id="patch_29">
    <path d="M 119.697293 194.422791 
Q 107.539626 197.982221 96.454953 201.227509 
" clip-path="url(#pf8e84843ff)" style="fill: none; stroke: #000000; stroke-linecap: round"/>
    <path d="M 100.855765 202.023026 
L 96.454953 201.227509 
L 99.731854 198.184169 
z
" clip-path="url(#pf8e84843ff)" style="stroke: #000000; stroke-linecap: round"/>
   </g>
   <g id="patch_30">
    <path d="M 119.853996 189.081863 
Q 119.811742 189.066805 120.822646 189.427061 
" clip-path="url(#pf8e84843ff)" style="fill: none; stroke: #000000; stroke-linecap: round"/>
    <path d="M 123.919153 192.653769 
L 120.822646 189.427061 
L 125.261916 188.88588 
z
" clip-path="url(#pf8e84843ff)" style="stroke: #000000; stroke-linecap: round"/>
   </g>
   <g id="patch_31">
    <path d="M 180.702517 175.67974 
Q 172.212438 177.650389 164.811439 179.36825 
" clip-path="url(#pf8e84843ff)" style="fill: none; stroke: #000000; stroke-linecap: round"/>
    <path d="M 169.160057 180.412053 
L 164.811439 179.36825 
L 168.255652 176.515637 
z
" clip-path="url(#pf8e84843ff)" style="stroke: #000000; stroke-linecap: round"/>
   </g>
   <g id="patch_32">
    <path d="M 171.914047 175.383665 
Q 167.657722 176.969577 164.449069 178.165126 
" clip-path="url(#pf8e84843ff)" style="fill: none; stroke: #000000; stroke-linecap: round"/>
    <path d="M 168.895638 178.64265 
L 164.449069 178.165126 
L 167.499029 174.894386 
z
" clip-path="url(#pf8e84843ff)" style="stroke: #000000; stroke-linecap: round"/>
   </g>
   <g id="patch_33">
    <path d="M 94.483115 208.486121 
Q 92.653893 208.750413 91.931214 208.854828 
" clip-path="url(#pf8e84843ff)" style="fill: none; stroke: #000000; stroke-linecap: round"/>
    <path d="M 96.176103 210.26228 
L 91.931214 208.854828 
L 95.604109 206.303388 
z
" clip-path="url(#pf8e84843ff)" style="stroke: #000000; stroke-linecap: round"/>
   </g>
   <g id="patch_34">
    <path d="M 95.201984 210.909855 
Q 94.191352 211.381208 94.19397 211.379987 
" clip-path="url(#pf8e84843ff)" style="fill: none; stroke: #000000; stroke-linecap: round"/>
    <path d="M 98.664446 211.501811 
L 94.19397 211.379987 
L 96.973715 207.8767 
z
" clip-path="url(#pf8e84843ff)" style="stroke: #000000; stroke-linecap: round"/>
   </g>
   <g id="patch_35">
    <path d="M 118.557862 213.587428 
Q 106.267287 214.299448 95.092874 214.946805 
" clip-path="url(#pf8e84843ff)" style="fill: none; stroke: #000000; stroke-linecap: round"/>
    <path d="M 99.201849 216.712117 
L 95.092874 214.946805 
L 98.970508 212.718812 
z
" clip-path="url(#pf8e84843ff)" style="stroke: #000000; stroke-linecap: round"/>
   </g>
   <g id="patch_36">
    <path d="M 90.898544 210.673607 
Q 93.322302 210.791339 94.629343 210.854828 
" clip-path="url(#pf8e84843ff)" style="fill: none; stroke: #000000; stroke-linecap: round"/>
    <path d="M 90.731088 208.663115 
L 94.629343 210.854828 
L 90.53702 212.658404 
z
" clip-path="url(#pf8e84843ff)" style="stroke: #000000; stroke-linecap: round"/>
   </g>
   <g id="patch_37">
    <path d="M 73.617235 210.922602 
Q 64.720508 211.61209 56.938472 212.215191 
" clip-path="url(#pf8e84843ff)" style="fill: none; stroke: #000000; stroke-linecap: round"/>
    <path d="M 61.081049 213.900142 
L 56.938472 212.215191 
L 60.771979 209.9121 
z
" clip-path="url(#pf8e84843ff)" style="stroke: #000000; stroke-linecap: round"/>
   </g>
   <g id="patch_38">
    <path d="M 85.334172 215.512147 
Q 83.792322 212.882841 82.816028 211.217974 
" clip-path="url(#pf8e84843ff)" style="fill: none; stroke: #000000; stroke-linecap: round"/>
    <path d="M 83.114183 215.68016 
L 82.816028 211.217974 
L 86.56467 213.656762 
z
" clip-path="url(#pf8e84843ff)" style="stroke: #000000; stroke-linecap: round"/>
   </g>
   <g id="patch_39">
    <path d="M 76.696059 214.936715 
Q 66.262266 214.241662 56.944034 213.620923 
" clip-path="url(#pf8e84843ff)" style="fill: none; stroke: #000000; stroke-linecap: round"/>
    <path d="M 60.802252 215.882373 
L 56.944034 213.620923 
L 61.068124 211.891219 
z
" clip-path="url(#pf8e84843ff)" style="stroke: #000000; stroke-linecap: round"/>
   </g>
   <g id="patch_40">
    <path d="M 157.375203 145.000711 
Q 134.961256 168.791192 113.313986 191.767911 
" clip-path="url(#pf8e84843ff)" style="fill: none; stroke: #000000; stroke-linecap: round"/>
    <path d="M 117.512631 190.227983 
L 113.313986 191.767911 
L 114.601231 187.485038 
z
" clip-path="url(#pf8e84843ff)" style="stroke: #000000; stroke-linecap: round"/>
   </g>
   <g id="patch_41">
    <path d="M 158.449805 145.862981 
Q 138.344067 175.484595 118.866221 204.181142 
" clip-path="url(#pf8e84843ff)" style="fill: none; stroke: #000000; stroke-linecap: round"/>
    <path d="M 122.767449 201.994724 
L 118.866221 204.181142 
L 119.457824 199.748309 
z
" clip-path="url(#pf8e84843ff)" style="stroke: #000000; stroke-linecap: round"/>
   </g>
   <g id="patch_42">
    <path d="M 167.163372 146.452386 
Q 171.670285 155.527209 175.679893 163.600689 
" clip-path="url(#pf8e84843ff)" style="fill: none; stroke: #000000; stroke-linecap: round"/>
    <path d="M 175.691933 159.128569 
L 175.679893 163.600689 
L 172.109421 160.907786 
z
" clip-path="url(#pf8e84843ff)" style="stroke: #000000; stroke-linecap: round"/>
   </g>
   <g id="patch_43">
    <path d="M 168.064637 131.45914 
Q 196.627307 87.945144 224.57646 45.365813 
" clip-path="url(#pf8e84843ff)" style="fill: none; stroke: #000000; stroke-linecap: round"/>
    <path d="M 220.7095 47.612281 
L 224.57646 45.365813 
L 224.053459 49.807262 
z
" clip-path="url(#pf8e84843ff)" style="stroke: #000000; stroke-linecap: round"/>
   </g>
   <g id="patch_44">
    <path d="M 104.565194 181.590929 
Q 105.013662 182.442644 104.941231 182.305085 
" clip-path="url(#pf8e84843ff)" style="fill: none; stroke: #000000; stroke-linecap: round"/>
    <path d="M 104.847271 177.833936 
L 104.941231 182.305085 
L 101.307936 179.697564 
z
" clip-path="url(#pf8e84843ff)" style="stroke: #000000; stroke-linecap: round"/>
   </g>
   <g id="patch_45">
    <path d="M 146.810511 183.362417 
Q 137.526713 185.315694 129.336995 187.03878 
" clip-path="url(#pf8e84843ff)" style="fill: none; stroke: #000000; stroke-linecap: round"/>
    <path d="M 133.663074 188.172376 
L 129.336995 187.03878 
L 132.83952 184.258074 
z
" clip-path="url(#pf8e84843ff)" style="stroke: #000000; stroke-linecap: round"/>
   </g>
   <g id="patch_46">
    <path d="M 118.143545 191.438541 
Q 118.753033 191.472527 118.246221 191.444266 
" clip-path="url(#pf8e84843ff)" style="fill: none; stroke: #000000; stroke-linecap: round"/>
    <path d="M 114.363777 189.224666 
L 118.246221 191.444266 
L 114.141074 193.218461 
z
" clip-path="url(#pf8e84843ff)" style="stroke: #000000; stroke-linecap: round"/>
   </g>
   <g id="patch_47">
    <path d="M 102.009077 195.302877 
Q 98.283361 197.465675 95.524567 199.067169 
" clip-path="url(#pf8e84843ff)" style="fill: none; stroke: #000000; stroke-linecap: round"/>
    <path d="M 99.988023 198.788672 
L 95.524567 199.067169 
L 97.979843 195.329306 
z
" clip-path="url(#pf8e84843ff)" style="stroke: #000000; stroke-linecap: round"/>
   </g>
   <g id="patch_48">
    <path d="M 95.74028 211.577654 
Q 75.791677 212.150096 56.960649 212.690469 
" clip-path="url(#pf8e84843ff)" style="fill: none; stroke: #000000; stroke-linecap: round"/>
    <path d="M 61.016371 214.574909 
L 56.960649 212.690469 
L 60.901635 210.576555 
z
" clip-path="url(#pf8e84843ff)" style="stroke: #000000; stroke-linecap: round"/>
   </g>
   <g id="patch_49">
    <path d="M 87.06974 203.975241 
Q 84.660106 207.114387 82.931244 209.366658 
" clip-path="url(#pf8e84843ff)" style="fill: none; stroke: #000000; stroke-linecap: round"/>
    <path d="M 86.953343 207.411479 
L 82.931244 209.366658 
L 83.78036 204.975872 
z
" clip-path="url(#pf8e84843ff)" style="stroke: #000000; stroke-linecap: round"/>
   </g>
   <g id="patch_50">
    <path d="M 85.781199 212.540605 
Q 85.557686 214.026376 85.500493 214.406554 
" clip-path="url(#pf8e84843ff)" style="fill: none; stroke: #000000; stroke-linecap: round"/>
    <path d="M 88.073288 210.748586 
L 85.500493 214.406554 
L 84.117796 210.153537 
z
" clip-path="url(#pf8e84843ff)" style="stroke: #000000; stroke-linecap: round"/>
   </g>
   <g id="patch_51">
    <path d="M 111.893927 192.645992 
Q 103.419703 196.513454 95.962596 199.916724 
" clip-path="url(#pf8e84843ff)" style="fill: none; stroke: #000000; stroke-linecap: round"/>
    <path d="M 100.431915 200.075457 
L 95.962596 199.916724 
L 98.771174 196.436509 
z
" clip-path="url(#pf8e84843ff)" style="stroke: #000000; stroke-linecap: round"/>
   </g>
   <g id="PathCollection_1">
    <defs>
     <path id="mfe7b7edab0" d="M 0 8.660254 
C 2.296726 8.660254 4.499694 7.747755 6.123724 6.123724 
C 7.747755 4.499694 8.660254 2.296726 8.660254 0 
C 8.660254 -2.296726 7.747755 -4.499694 6.123724 -6.123724 
C 4.499694 -7.747755 2.296726 -8.660254 0 -8.660254 
C -2.296726 -8.660254 -4.499694 -7.747755 -6.123724 -6.123724 
C -7.747755 -4.499694 -8.660254 -2.296726 -8.660254 0 
C -8.660254 2.296726 -7.747755 4.499694 -6.123724 6.123724 
C -4.499694 7.747755 -2.296726 8.660254 0 8.660254 
z
" style="stroke: #1f78b4"/>
    </defs>
    <g clip-path="url(#pf8e84843ff)">
     <use xlink:href="#mfe7b7edab0" x="309.515392" y="235.885124" style="fill: #1f78b4; stroke: #1f78b4"/>
     <use xlink:href="#mfe7b7edab0" x="146.70392" y="162.465799" style="fill: #1f78b4; stroke: #1f78b4"/>
     <use xlink:href="#mfe7b7edab0" x="92.328605" y="227.843783" style="fill: #1f78b4; stroke: #1f78b4"/>
     <use xlink:href="#mfe7b7edab0" x="141.092734" y="147.82548" style="fill: #1f78b4; stroke: #1f78b4"/>
     <use xlink:href="#mfe7b7edab0" x="73.690762" y="199.067456" style="fill: #1f78b4; stroke: #1f78b4"/>
     <use xlink:href="#mfe7b7edab0" x="222.038549" y="296.63968" style="fill: #1f78b4; stroke: #1f78b4"/>
     <use xlink:href="#mfe7b7edab0" x="307.461826" y="49.009289" style="fill: #1f78b4; stroke: #1f78b4"/>
     <use xlink:href="#mfe7b7edab0" x="143.737579" y="304.10019" style="fill: #1f78b4; stroke: #1f78b4"/>
     <use xlink:href="#mfe7b7edab0" x="372.096179" y="84.7611" style="fill: #1f78b4; stroke: #1f78b4"/>
     <use xlink:href="#mfe7b7edab0" x="403.796259" y="289.198658" style="fill: #1f78b4; stroke: #1f78b4"/>
     <use xlink:href="#mfe7b7edab0" x="190.387532" y="248.167351" style="fill: #1f78b4; stroke: #1f78b4"/>
     <use xlink:href="#mfe7b7edab0" x="428.013223" y="223.808936" style="fill: #1f78b4; stroke: #1f78b4"/>
     <use xlink:href="#mfe7b7edab0" x="146.991488" y="173.000954" style="fill: #1f78b4; stroke: #1f78b4"/>
     <use xlink:href="#mfe7b7edab0" x="106.607234" y="198.886553" style="fill: #1f78b4; stroke: #1f78b4"/>
     <use xlink:href="#mfe7b7edab0" x="113.377299" y="212.267925" style="fill: #1f78b4; stroke: #1f78b4"/>
     <use xlink:href="#mfe7b7edab0" x="128.010985" y="191.988771" style="fill: #1f78b4; stroke: #1f78b4"/>
     <use xlink:href="#mfe7b7edab0" x="189.135933" y="173.722242" style="fill: #1f78b4; stroke: #1f78b4"/>
     <use xlink:href="#mfe7b7edab0" x="180.029946" y="172.359669" style="fill: #1f78b4; stroke: #1f78b4"/>
     <use xlink:href="#mfe7b7edab0" x="103.053838" y="207.247794" style="fill: #1f78b4; stroke: #1f78b4"/>
     <use xlink:href="#mfe7b7edab0" x="127.203024" y="213.086596" style="fill: #1f78b4; stroke: #1f78b4"/>
     <use xlink:href="#mfe7b7edab0" x="82.250471" y="210.253534" style="fill: #1f78b4; stroke: #1f78b4"/>
     <use xlink:href="#mfe7b7edab0" x="85.334172" y="215.512147" style="fill: #1f78b4; stroke: #1f78b4"/>
     <use xlink:href="#mfe7b7edab0" x="163.312582" y="138.698692" style="fill: #1f78b4; stroke: #1f78b4"/>
     <use xlink:href="#mfe7b7edab0" x="232.461372" y="322.809917" style="fill: #1f78b4; stroke: #1f78b4"/>
     <use xlink:href="#mfe7b7edab0" x="100.531252" y="173.929811" style="fill: #1f78b4; stroke: #1f78b4"/>
     <use xlink:href="#mfe7b7edab0" x="155.286573" y="181.579086" style="fill: #1f78b4; stroke: #1f78b4"/>
     <use xlink:href="#mfe7b7edab0" x="109.49654" y="190.956365" style="fill: #1f78b4; stroke: #1f78b4"/>
     <use xlink:href="#mfe7b7edab0" x="104.396457" y="211.329257" style="fill: #1f78b4; stroke: #1f78b4"/>
     <use xlink:href="#mfe7b7edab0" x="47.186777" y="212.970938" style="fill: #1f78b4; stroke: #1f78b4"/>
     <use xlink:href="#mfe7b7edab0" x="229.943025" y="37.190083" style="fill: #1f78b4; stroke: #1f78b4"/>
     <use xlink:href="#mfe7b7edab0" x="87.06974" y="203.975241" style="fill: #1f78b4; stroke: #1f78b4"/>
     <use xlink:href="#mfe7b7edab0" x="119.769489" y="189.051747" style="fill: #1f78b4; stroke: #1f78b4"/>
    </g>
   </g>
  </g>
 </g>
 <defs>
  <clipPath id="pf8e84843ff">
   <rect x="7.2" y="7.2" width="460.8" height="345.6"/>
  </clipPath>
 </defs>
</svg>
