<?xml version="1.0" encoding="utf-8" standalone="no"?>
<!DOCTYPE svg PUBLIC "-//W3C//DTD SVG 1.1//EN"
  "http://www.w3.org/Graphics/SVG/1.1/DTD/svg11.dtd">
<svg height="310.86825pt" version="1.1" viewBox="0 0 408.10125 310.86825" width="408.10125pt" xmlns="http://www.w3.org/2000/svg" xmlns:xlink="http://www.w3.org/1999/xlink">
 <metadata>
  <rdf:RDF xmlns:cc="http://creativecommons.org/ns#" xmlns:dc="http://purl.org/dc/elements/1.1/" xmlns:rdf="http://www.w3.org/1999/02/22-rdf-syntax-ns#">
   <cc:Work>
    <dc:type rdf:resource="http://purl.org/dc/dcmitype/StillImage"/>
    <dc:date>2021-10-14T16:55:20.610282</dc:date>
    <dc:format>image/svg+xml</dc:format>
    <dc:creator>
     <cc:Agent>
      <dc:title>Matplotlib v3.4.3, https://matplotlib.org/</dc:title>
     </cc:Agent>
    </dc:creator>
   </cc:Work>
  </rdf:RDF>
 </metadata>
 <defs>
  <style type="text/css">*{stroke-linecap:butt;stroke-linejoin:round;}</style>
 </defs>
 <g id="figure_1">
  <g id="patch_1">
   <path d="M 0 310.86825 
L 408.10125 310.86825 
L 408.10125 0 
L 0 0 
z
" style="fill:#ffffff;"/>
  </g>
  <g id="axes_1">
   <g id="patch_2">
    <path d="M 43.78125 273.312 
L 400.90125 273.312 
L 400.90125 7.2 
L 43.78125 7.2 
z
" style="fill:#ffffff;"/>
   </g>
   <g id="patch_3">
    <path clip-path="url(#pc3d63828e9)" d="M 62.876775 273.312 
L 64.48572 273.312 
L 64.48572 268.56371 
L 62.876775 268.56371 
z
" style="fill:#1f77b4;"/>
   </g>
   <g id="patch_4">
    <path clip-path="url(#pc3d63828e9)" d="M 64.48572 273.312 
L 66.094665 273.312 
L 66.094665 267.376637 
L 64.48572 267.376637 
z
" style="fill:#1f77b4;"/>
   </g>
   <g id="patch_5">
    <path clip-path="url(#pc3d63828e9)" d="M 66.094665 273.312 
L 67.70361 273.312 
L 67.70361 266.783101 
L 66.094665 266.783101 
z
" style="fill:#1f77b4;"/>
   </g>
   <g id="patch_6">
    <path clip-path="url(#pc3d63828e9)" d="M 67.70361 273.312 
L 69.312555 273.312 
L 69.312555 267.970173 
L 67.70361 267.970173 
z
" style="fill:#1f77b4;"/>
   </g>
   <g id="patch_7">
    <path clip-path="url(#pc3d63828e9)" d="M 69.312555 273.312 
L 70.921501 273.312 
L 70.921501 268.56371 
L 69.312555 268.56371 
z
" style="fill:#1f77b4;"/>
   </g>
   <g id="patch_8">
    <path clip-path="url(#pc3d63828e9)" d="M 70.921501 273.312 
L 72.530446 273.312 
L 72.530446 265.596028 
L 70.921501 265.596028 
z
" style="fill:#1f77b4;"/>
   </g>
   <g id="patch_9">
    <path clip-path="url(#pc3d63828e9)" d="M 72.530446 273.312 
L 74.139391 273.312 
L 74.139391 266.189564 
L 72.530446 266.189564 
z
" style="fill:#1f77b4;"/>
   </g>
   <g id="patch_10">
    <path clip-path="url(#pc3d63828e9)" d="M 74.139391 273.312 
L 75.748336 273.312 
L 75.748336 262.628347 
L 74.139391 262.628347 
z
" style="fill:#1f77b4;"/>
   </g>
   <g id="patch_11">
    <path clip-path="url(#pc3d63828e9)" d="M 75.748336 273.312 
L 77.357281 273.312 
L 77.357281 259.067129 
L 75.748336 259.067129 
z
" style="fill:#1f77b4;"/>
   </g>
   <g id="patch_12">
    <path clip-path="url(#pc3d63828e9)" d="M 77.357281 273.312 
L 78.966226 273.312 
L 78.966226 253.725302 
L 77.357281 253.725302 
z
" style="fill:#1f77b4;"/>
   </g>
   <g id="patch_13">
    <path clip-path="url(#pc3d63828e9)" d="M 78.966226 273.312 
L 80.575172 273.312 
L 80.575172 260.847738 
L 78.966226 260.847738 
z
" style="fill:#1f77b4;"/>
   </g>
   <g id="patch_14">
    <path clip-path="url(#pc3d63828e9)" d="M 80.575172 273.312 
L 82.184117 273.312 
L 82.184117 254.318838 
L 80.575172 254.318838 
z
" style="fill:#1f77b4;"/>
   </g>
   <g id="patch_15">
    <path clip-path="url(#pc3d63828e9)" d="M 82.184117 273.312 
L 83.793062 273.312 
L 83.793062 257.880056 
L 82.184117 257.880056 
z
" style="fill:#1f77b4;"/>
   </g>
   <g id="patch_16">
    <path clip-path="url(#pc3d63828e9)" d="M 83.793062 273.312 
L 85.402007 273.312 
L 85.402007 251.351157 
L 83.793062 251.351157 
z
" style="fill:#1f77b4;"/>
   </g>
   <g id="patch_17">
    <path clip-path="url(#pc3d63828e9)" d="M 85.402007 273.312 
L 87.010952 273.312 
L 87.010952 253.725302 
L 85.402007 253.725302 
z
" style="fill:#1f77b4;"/>
   </g>
   <g id="patch_18">
    <path clip-path="url(#pc3d63828e9)" d="M 87.010952 273.312 
L 88.619897 273.312 
L 88.619897 253.131766 
L 87.010952 253.131766 
z
" style="fill:#1f77b4;"/>
   </g>
   <g id="patch_19">
    <path clip-path="url(#pc3d63828e9)" d="M 88.619897 273.312 
L 90.228842 273.312 
L 90.228842 251.351157 
L 88.619897 251.351157 
z
" style="fill:#1f77b4;"/>
   </g>
   <g id="patch_20">
    <path clip-path="url(#pc3d63828e9)" d="M 90.228842 273.312 
L 91.837788 273.312 
L 91.837788 251.944693 
L 90.228842 251.944693 
z
" style="fill:#1f77b4;"/>
   </g>
   <g id="patch_21">
    <path clip-path="url(#pc3d63828e9)" d="M 91.837788 273.312 
L 93.446733 273.312 
L 93.446733 245.415794 
L 91.837788 245.415794 
z
" style="fill:#1f77b4;"/>
   </g>
   <g id="patch_22">
    <path clip-path="url(#pc3d63828e9)" d="M 93.446733 273.312 
L 95.055678 273.312 
L 95.055678 250.757621 
L 93.446733 250.757621 
z
" style="fill:#1f77b4;"/>
   </g>
   <g id="patch_23">
    <path clip-path="url(#pc3d63828e9)" d="M 95.055678 273.312 
L 96.664623 273.312 
L 96.664623 250.164084 
L 95.055678 250.164084 
z
" style="fill:#1f77b4;"/>
   </g>
   <g id="patch_24">
    <path clip-path="url(#pc3d63828e9)" d="M 96.664623 273.312 
L 98.273568 273.312 
L 98.273568 250.757621 
L 96.664623 250.757621 
z
" style="fill:#1f77b4;"/>
   </g>
   <g id="patch_25">
    <path clip-path="url(#pc3d63828e9)" d="M 98.273568 273.312 
L 99.882513 273.312 
L 99.882513 242.448112 
L 98.273568 242.448112 
z
" style="fill:#1f77b4;"/>
   </g>
   <g id="patch_26">
    <path clip-path="url(#pc3d63828e9)" d="M 99.882513 273.312 
L 101.491458 273.312 
L 101.491458 244.822258 
L 99.882513 244.822258 
z
" style="fill:#1f77b4;"/>
   </g>
   <g id="patch_27">
    <path clip-path="url(#pc3d63828e9)" d="M 101.491458 273.312 
L 103.100404 273.312 
L 103.100404 236.512749 
L 101.491458 236.512749 
z
" style="fill:#1f77b4;"/>
   </g>
   <g id="patch_28">
    <path clip-path="url(#pc3d63828e9)" d="M 103.100404 273.312 
L 104.709349 273.312 
L 104.709349 241.26104 
L 103.100404 241.26104 
z
" style="fill:#1f77b4;"/>
   </g>
   <g id="patch_29">
    <path clip-path="url(#pc3d63828e9)" d="M 104.709349 273.312 
L 106.318294 273.312 
L 106.318294 240.073967 
L 104.709349 240.073967 
z
" style="fill:#1f77b4;"/>
   </g>
   <g id="patch_30">
    <path clip-path="url(#pc3d63828e9)" d="M 106.318294 273.312 
L 107.927239 273.312 
L 107.927239 237.699822 
L 106.318294 237.699822 
z
" style="fill:#1f77b4;"/>
   </g>
   <g id="patch_31">
    <path clip-path="url(#pc3d63828e9)" d="M 107.927239 273.312 
L 109.536184 273.312 
L 109.536184 236.512749 
L 107.927239 236.512749 
z
" style="fill:#1f77b4;"/>
   </g>
   <g id="patch_32">
    <path clip-path="url(#pc3d63828e9)" d="M 109.536184 273.312 
L 111.145129 273.312 
L 111.145129 235.919213 
L 109.536184 235.919213 
z
" style="fill:#1f77b4;"/>
   </g>
   <g id="patch_33">
    <path clip-path="url(#pc3d63828e9)" d="M 111.145129 273.312 
L 112.754075 273.312 
L 112.754075 233.545068 
L 111.145129 233.545068 
z
" style="fill:#1f77b4;"/>
   </g>
   <g id="patch_34">
    <path clip-path="url(#pc3d63828e9)" d="M 112.754075 273.312 
L 114.36302 273.312 
L 114.36302 232.357995 
L 112.754075 232.357995 
z
" style="fill:#1f77b4;"/>
   </g>
   <g id="patch_35">
    <path clip-path="url(#pc3d63828e9)" d="M 114.36302 273.312 
L 115.971965 273.312 
L 115.971965 234.138604 
L 114.36302 234.138604 
z
" style="fill:#1f77b4;"/>
   </g>
   <g id="patch_36">
    <path clip-path="url(#pc3d63828e9)" d="M 115.971965 273.312 
L 117.58091 273.312 
L 117.58091 225.829096 
L 115.971965 225.829096 
z
" style="fill:#1f77b4;"/>
   </g>
   <g id="patch_37">
    <path clip-path="url(#pc3d63828e9)" d="M 117.58091 273.312 
L 119.189855 273.312 
L 119.189855 235.325677 
L 117.58091 235.325677 
z
" style="fill:#1f77b4;"/>
   </g>
   <g id="patch_38">
    <path clip-path="url(#pc3d63828e9)" d="M 119.189855 273.312 
L 120.7988 273.312 
L 120.7988 237.106286 
L 119.189855 237.106286 
z
" style="fill:#1f77b4;"/>
   </g>
   <g id="patch_39">
    <path clip-path="url(#pc3d63828e9)" d="M 120.7988 273.312 
L 122.407745 273.312 
L 122.407745 227.016169 
L 120.7988 227.016169 
z
" style="fill:#1f77b4;"/>
   </g>
   <g id="patch_40">
    <path clip-path="url(#pc3d63828e9)" d="M 122.407745 273.312 
L 124.016691 273.312 
L 124.016691 226.422632 
L 122.407745 226.422632 
z
" style="fill:#1f77b4;"/>
   </g>
   <g id="patch_41">
    <path clip-path="url(#pc3d63828e9)" d="M 124.016691 273.312 
L 125.625636 273.312 
L 125.625636 221.080806 
L 124.016691 221.080806 
z
" style="fill:#1f77b4;"/>
   </g>
   <g id="patch_42">
    <path clip-path="url(#pc3d63828e9)" d="M 125.625636 273.312 
L 127.234581 273.312 
L 127.234581 223.454951 
L 125.625636 223.454951 
z
" style="fill:#1f77b4;"/>
   </g>
   <g id="patch_43">
    <path clip-path="url(#pc3d63828e9)" d="M 127.234581 273.312 
L 128.843526 273.312 
L 128.843526 221.080806 
L 127.234581 221.080806 
z
" style="fill:#1f77b4;"/>
   </g>
   <g id="patch_44">
    <path clip-path="url(#pc3d63828e9)" d="M 128.843526 273.312 
L 130.452471 273.312 
L 130.452471 223.454951 
L 128.843526 223.454951 
z
" style="fill:#1f77b4;"/>
   </g>
   <g id="patch_45">
    <path clip-path="url(#pc3d63828e9)" d="M 130.452471 273.312 
L 132.061416 273.312 
L 132.061416 231.764459 
L 130.452471 231.764459 
z
" style="fill:#1f77b4;"/>
   </g>
   <g id="patch_46">
    <path clip-path="url(#pc3d63828e9)" d="M 132.061416 273.312 
L 133.670361 273.312 
L 133.670361 221.080806 
L 132.061416 221.080806 
z
" style="fill:#1f77b4;"/>
   </g>
   <g id="patch_47">
    <path clip-path="url(#pc3d63828e9)" d="M 133.670361 273.312 
L 135.279307 273.312 
L 135.279307 216.332515 
L 133.670361 216.332515 
z
" style="fill:#1f77b4;"/>
   </g>
   <g id="patch_48">
    <path clip-path="url(#pc3d63828e9)" d="M 135.279307 273.312 
L 136.888252 273.312 
L 136.888252 224.642023 
L 135.279307 224.642023 
z
" style="fill:#1f77b4;"/>
   </g>
   <g id="patch_49">
    <path clip-path="url(#pc3d63828e9)" d="M 136.888252 273.312 
L 138.497197 273.312 
L 138.497197 209.803616 
L 136.888252 209.803616 
z
" style="fill:#1f77b4;"/>
   </g>
   <g id="patch_50">
    <path clip-path="url(#pc3d63828e9)" d="M 138.497197 273.312 
L 140.106142 273.312 
L 140.106142 224.642023 
L 138.497197 224.642023 
z
" style="fill:#1f77b4;"/>
   </g>
   <g id="patch_51">
    <path clip-path="url(#pc3d63828e9)" d="M 140.106142 273.312 
L 141.715087 273.312 
L 141.715087 213.364834 
L 140.106142 213.364834 
z
" style="fill:#1f77b4;"/>
   </g>
   <g id="patch_52">
    <path clip-path="url(#pc3d63828e9)" d="M 141.715087 273.312 
L 143.324032 273.312 
L 143.324032 213.95837 
L 141.715087 213.95837 
z
" style="fill:#1f77b4;"/>
   </g>
   <g id="patch_53">
    <path clip-path="url(#pc3d63828e9)" d="M 143.324032 273.312 
L 144.932978 273.312 
L 144.932978 201.494108 
L 143.324032 201.494108 
z
" style="fill:#1f77b4;"/>
   </g>
   <g id="patch_54">
    <path clip-path="url(#pc3d63828e9)" d="M 144.932978 273.312 
L 146.541923 273.312 
L 146.541923 205.055326 
L 144.932978 205.055326 
z
" style="fill:#1f77b4;"/>
   </g>
   <g id="patch_55">
    <path clip-path="url(#pc3d63828e9)" d="M 146.541923 273.312 
L 148.150868 273.312 
L 148.150868 209.803616 
L 146.541923 209.803616 
z
" style="fill:#1f77b4;"/>
   </g>
   <g id="patch_56">
    <path clip-path="url(#pc3d63828e9)" d="M 148.150868 273.312 
L 149.759813 273.312 
L 149.759813 206.242398 
L 148.150868 206.242398 
z
" style="fill:#1f77b4;"/>
   </g>
   <g id="patch_57">
    <path clip-path="url(#pc3d63828e9)" d="M 149.759813 273.312 
L 151.368758 273.312 
L 151.368758 214.551906 
L 149.759813 214.551906 
z
" style="fill:#1f77b4;"/>
   </g>
   <g id="patch_58">
    <path clip-path="url(#pc3d63828e9)" d="M 151.368758 273.312 
L 152.977703 273.312 
L 152.977703 212.771297 
L 151.368758 212.771297 
z
" style="fill:#1f77b4;"/>
   </g>
   <g id="patch_59">
    <path clip-path="url(#pc3d63828e9)" d="M 152.977703 273.312 
L 154.586648 273.312 
L 154.586648 196.152281 
L 152.977703 196.152281 
z
" style="fill:#1f77b4;"/>
   </g>
   <g id="patch_60">
    <path clip-path="url(#pc3d63828e9)" d="M 154.586648 273.312 
L 156.195594 273.312 
L 156.195594 206.242398 
L 154.586648 206.242398 
z
" style="fill:#1f77b4;"/>
   </g>
   <g id="patch_61">
    <path clip-path="url(#pc3d63828e9)" d="M 156.195594 273.312 
L 157.804539 273.312 
L 157.804539 203.868253 
L 156.195594 203.868253 
z
" style="fill:#1f77b4;"/>
   </g>
   <g id="patch_62">
    <path clip-path="url(#pc3d63828e9)" d="M 157.804539 273.312 
L 159.413484 273.312 
L 159.413484 209.803616 
L 157.804539 209.803616 
z
" style="fill:#1f77b4;"/>
   </g>
   <g id="patch_63">
    <path clip-path="url(#pc3d63828e9)" d="M 159.413484 273.312 
L 161.022429 273.312 
L 161.022429 194.371672 
L 159.413484 194.371672 
z
" style="fill:#1f77b4;"/>
   </g>
   <g id="patch_64">
    <path clip-path="url(#pc3d63828e9)" d="M 161.022429 273.312 
L 162.631374 273.312 
L 162.631374 199.713499 
L 161.022429 199.713499 
z
" style="fill:#1f77b4;"/>
   </g>
   <g id="patch_65">
    <path clip-path="url(#pc3d63828e9)" d="M 162.631374 273.312 
L 164.240319 273.312 
L 164.240319 191.403991 
L 162.631374 191.403991 
z
" style="fill:#1f77b4;"/>
   </g>
   <g id="patch_66">
    <path clip-path="url(#pc3d63828e9)" d="M 164.240319 273.312 
L 165.849264 273.312 
L 165.849264 213.364834 
L 164.240319 213.364834 
z
" style="fill:#1f77b4;"/>
   </g>
   <g id="patch_67">
    <path clip-path="url(#pc3d63828e9)" d="M 165.849264 273.312 
L 167.45821 273.312 
L 167.45821 200.900571 
L 165.849264 200.900571 
z
" style="fill:#1f77b4;"/>
   </g>
   <g id="patch_68">
    <path clip-path="url(#pc3d63828e9)" d="M 167.45821 273.312 
L 169.067155 273.312 
L 169.067155 190.216918 
L 167.45821 190.216918 
z
" style="fill:#1f77b4;"/>
   </g>
   <g id="patch_69">
    <path clip-path="url(#pc3d63828e9)" d="M 169.067155 273.312 
L 170.6761 273.312 
L 170.6761 180.720337 
L 169.067155 180.720337 
z
" style="fill:#1f77b4;"/>
   </g>
   <g id="patch_70">
    <path clip-path="url(#pc3d63828e9)" d="M 170.6761 273.312 
L 172.285045 273.312 
L 172.285045 197.339354 
L 170.6761 197.339354 
z
" style="fill:#1f77b4;"/>
   </g>
   <g id="patch_71">
    <path clip-path="url(#pc3d63828e9)" d="M 172.285045 273.312 
L 173.89399 273.312 
L 173.89399 200.307035 
L 172.285045 200.307035 
z
" style="fill:#1f77b4;"/>
   </g>
   <g id="patch_72">
    <path clip-path="url(#pc3d63828e9)" d="M 173.89399 273.312 
L 175.502935 273.312 
L 175.502935 190.216918 
L 173.89399 190.216918 
z
" style="fill:#1f77b4;"/>
   </g>
   <g id="patch_73">
    <path clip-path="url(#pc3d63828e9)" d="M 175.502935 273.312 
L 177.111881 273.312 
L 177.111881 197.93289 
L 175.502935 197.93289 
z
" style="fill:#1f77b4;"/>
   </g>
   <g id="patch_74">
    <path clip-path="url(#pc3d63828e9)" d="M 177.111881 273.312 
L 178.720826 273.312 
L 178.720826 194.371672 
L 177.111881 194.371672 
z
" style="fill:#1f77b4;"/>
   </g>
   <g id="patch_75">
    <path clip-path="url(#pc3d63828e9)" d="M 178.720826 273.312 
L 180.329771 273.312 
L 180.329771 173.004365 
L 178.720826 173.004365 
z
" style="fill:#1f77b4;"/>
   </g>
   <g id="patch_76">
    <path clip-path="url(#pc3d63828e9)" d="M 180.329771 273.312 
L 181.938716 273.312 
L 181.938716 184.281555 
L 180.329771 184.281555 
z
" style="fill:#1f77b4;"/>
   </g>
   <g id="patch_77">
    <path clip-path="url(#pc3d63828e9)" d="M 181.938716 273.312 
L 183.547661 273.312 
L 183.547661 178.346192 
L 181.938716 178.346192 
z
" style="fill:#1f77b4;"/>
   </g>
   <g id="patch_78">
    <path clip-path="url(#pc3d63828e9)" d="M 183.547661 273.312 
L 185.156606 273.312 
L 185.156606 178.346192 
L 183.547661 178.346192 
z
" style="fill:#1f77b4;"/>
   </g>
   <g id="patch_79">
    <path clip-path="url(#pc3d63828e9)" d="M 185.156606 273.312 
L 186.765551 273.312 
L 186.765551 189.029845 
L 185.156606 189.029845 
z
" style="fill:#1f77b4;"/>
   </g>
   <g id="patch_80">
    <path clip-path="url(#pc3d63828e9)" d="M 186.765551 273.312 
L 188.374497 273.312 
L 188.374497 172.410829 
L 186.765551 172.410829 
z
" style="fill:#1f77b4;"/>
   </g>
   <g id="patch_81">
    <path clip-path="url(#pc3d63828e9)" d="M 188.374497 273.312 
L 189.983442 273.312 
L 189.983442 176.565583 
L 188.374497 176.565583 
z
" style="fill:#1f77b4;"/>
   </g>
   <g id="patch_82">
    <path clip-path="url(#pc3d63828e9)" d="M 189.983442 273.312 
L 191.592387 273.312 
L 191.592387 196.152281 
L 189.983442 196.152281 
z
" style="fill:#1f77b4;"/>
   </g>
   <g id="patch_83">
    <path clip-path="url(#pc3d63828e9)" d="M 191.592387 273.312 
L 193.201332 273.312 
L 193.201332 177.159119 
L 191.592387 177.159119 
z
" style="fill:#1f77b4;"/>
   </g>
   <g id="patch_84">
    <path clip-path="url(#pc3d63828e9)" d="M 193.201332 273.312 
L 194.810277 273.312 
L 194.810277 178.346192 
L 193.201332 178.346192 
z
" style="fill:#1f77b4;"/>
   </g>
   <g id="patch_85">
    <path clip-path="url(#pc3d63828e9)" d="M 194.810277 273.312 
L 196.419222 273.312 
L 196.419222 197.339354 
L 194.810277 197.339354 
z
" style="fill:#1f77b4;"/>
   </g>
   <g id="patch_86">
    <path clip-path="url(#pc3d63828e9)" d="M 196.419222 273.312 
L 198.028167 273.312 
L 198.028167 177.159119 
L 196.419222 177.159119 
z
" style="fill:#1f77b4;"/>
   </g>
   <g id="patch_87">
    <path clip-path="url(#pc3d63828e9)" d="M 198.028167 273.312 
L 199.637113 273.312 
L 199.637113 170.63022 
L 198.028167 170.63022 
z
" style="fill:#1f77b4;"/>
   </g>
   <g id="patch_88">
    <path clip-path="url(#pc3d63828e9)" d="M 199.637113 273.312 
L 201.246058 273.312 
L 201.246058 174.784974 
L 199.637113 174.784974 
z
" style="fill:#1f77b4;"/>
   </g>
   <g id="patch_89">
    <path clip-path="url(#pc3d63828e9)" d="M 201.246058 273.312 
L 202.855003 273.312 
L 202.855003 164.694857 
L 201.246058 164.694857 
z
" style="fill:#1f77b4;"/>
   </g>
   <g id="patch_90">
    <path clip-path="url(#pc3d63828e9)" d="M 202.855003 273.312 
L 204.463948 273.312 
L 204.463948 173.597902 
L 202.855003 173.597902 
z
" style="fill:#1f77b4;"/>
   </g>
   <g id="patch_91">
    <path clip-path="url(#pc3d63828e9)" d="M 204.463948 273.312 
L 206.072893 273.312 
L 206.072893 171.817293 
L 204.463948 171.817293 
z
" style="fill:#1f77b4;"/>
   </g>
   <g id="patch_92">
    <path clip-path="url(#pc3d63828e9)" d="M 206.072893 273.312 
L 207.681838 273.312 
L 207.681838 164.101321 
L 206.072893 164.101321 
z
" style="fill:#1f77b4;"/>
   </g>
   <g id="patch_93">
    <path clip-path="url(#pc3d63828e9)" d="M 207.681838 273.312 
L 209.290784 273.312 
L 209.290784 170.036684 
L 207.681838 170.036684 
z
" style="fill:#1f77b4;"/>
   </g>
   <g id="patch_94">
    <path clip-path="url(#pc3d63828e9)" d="M 209.290784 273.312 
L 210.899729 273.312 
L 210.899729 174.191438 
L 209.290784 174.191438 
z
" style="fill:#1f77b4;"/>
   </g>
   <g id="patch_95">
    <path clip-path="url(#pc3d63828e9)" d="M 210.899729 273.312 
L 212.508674 273.312 
L 212.508674 162.914248 
L 210.899729 162.914248 
z
" style="fill:#1f77b4;"/>
   </g>
   <g id="patch_96">
    <path clip-path="url(#pc3d63828e9)" d="M 212.508674 273.312 
L 214.117619 273.312 
L 214.117619 160.540103 
L 212.508674 160.540103 
z
" style="fill:#1f77b4;"/>
   </g>
   <g id="patch_97">
    <path clip-path="url(#pc3d63828e9)" d="M 214.117619 273.312 
L 215.726564 273.312 
L 215.726564 168.256075 
L 214.117619 168.256075 
z
" style="fill:#1f77b4;"/>
   </g>
   <g id="patch_98">
    <path clip-path="url(#pc3d63828e9)" d="M 215.726564 273.312 
L 217.335509 273.312 
L 217.335509 165.288393 
L 215.726564 165.288393 
z
" style="fill:#1f77b4;"/>
   </g>
   <g id="patch_99">
    <path clip-path="url(#pc3d63828e9)" d="M 217.335509 273.312 
L 218.944454 273.312 
L 218.944454 151.637059 
L 217.335509 151.637059 
z
" style="fill:#1f77b4;"/>
   </g>
   <g id="patch_100">
    <path clip-path="url(#pc3d63828e9)" d="M 218.944454 273.312 
L 220.5534 273.312 
L 220.5534 164.694857 
L 218.944454 164.694857 
z
" style="fill:#1f77b4;"/>
   </g>
   <g id="patch_101">
    <path clip-path="url(#pc3d63828e9)" d="M 220.5534 273.312 
L 222.162345 273.312 
L 222.162345 161.727176 
L 220.5534 161.727176 
z
" style="fill:#1f77b4;"/>
   </g>
   <g id="patch_102">
    <path clip-path="url(#pc3d63828e9)" d="M 222.162345 273.312 
L 223.77129 273.312 
L 223.77129 164.694857 
L 222.162345 164.694857 
z
" style="fill:#1f77b4;"/>
   </g>
   <g id="patch_103">
    <path clip-path="url(#pc3d63828e9)" d="M 223.77129 273.312 
L 225.380235 273.312 
L 225.380235 149.262913 
L 223.77129 149.262913 
z
" style="fill:#1f77b4;"/>
   </g>
   <g id="patch_104">
    <path clip-path="url(#pc3d63828e9)" d="M 225.380235 273.312 
L 226.98918 273.312 
L 226.98918 151.637059 
L 225.380235 151.637059 
z
" style="fill:#1f77b4;"/>
   </g>
   <g id="patch_105">
    <path clip-path="url(#pc3d63828e9)" d="M 226.98918 273.312 
L 228.598125 273.312 
L 228.598125 148.075841 
L 226.98918 148.075841 
z
" style="fill:#1f77b4;"/>
   </g>
   <g id="patch_106">
    <path clip-path="url(#pc3d63828e9)" d="M 228.598125 273.312 
L 230.20707 273.312 
L 230.20707 150.449986 
L 228.598125 150.449986 
z
" style="fill:#1f77b4;"/>
   </g>
   <g id="patch_107">
    <path clip-path="url(#pc3d63828e9)" d="M 230.20707 273.312 
L 231.816016 273.312 
L 231.816016 150.449986 
L 230.20707 150.449986 
z
" style="fill:#1f77b4;"/>
   </g>
   <g id="patch_108">
    <path clip-path="url(#pc3d63828e9)" d="M 231.816016 273.312 
L 233.424961 273.312 
L 233.424961 155.791813 
L 231.816016 155.791813 
z
" style="fill:#1f77b4;"/>
   </g>
   <g id="patch_109">
    <path clip-path="url(#pc3d63828e9)" d="M 233.424961 273.312 
L 235.033906 273.312 
L 235.033906 155.198276 
L 233.424961 155.198276 
z
" style="fill:#1f77b4;"/>
   </g>
   <g id="patch_110">
    <path clip-path="url(#pc3d63828e9)" d="M 235.033906 273.312 
L 236.642851 273.312 
L 236.642851 141.546941 
L 235.033906 141.546941 
z
" style="fill:#1f77b4;"/>
   </g>
   <g id="patch_111">
    <path clip-path="url(#pc3d63828e9)" d="M 236.642851 273.312 
L 238.251796 273.312 
L 238.251796 155.791813 
L 236.642851 155.791813 
z
" style="fill:#1f77b4;"/>
   </g>
   <g id="patch_112">
    <path clip-path="url(#pc3d63828e9)" d="M 238.251796 273.312 
L 239.860741 273.312 
L 239.860741 145.701696 
L 238.251796 145.701696 
z
" style="fill:#1f77b4;"/>
   </g>
   <g id="patch_113">
    <path clip-path="url(#pc3d63828e9)" d="M 239.860741 273.312 
L 241.469687 273.312 
L 241.469687 140.359869 
L 239.860741 140.359869 
z
" style="fill:#1f77b4;"/>
   </g>
   <g id="patch_114">
    <path clip-path="url(#pc3d63828e9)" d="M 241.469687 273.312 
L 243.078632 273.312 
L 243.078632 144.514623 
L 241.469687 144.514623 
z
" style="fill:#1f77b4;"/>
   </g>
   <g id="patch_115">
    <path clip-path="url(#pc3d63828e9)" d="M 243.078632 273.312 
L 244.687577 273.312 
L 244.687577 148.669377 
L 243.078632 148.669377 
z
" style="fill:#1f77b4;"/>
   </g>
   <g id="patch_116">
    <path clip-path="url(#pc3d63828e9)" d="M 244.687577 273.312 
L 246.296522 273.312 
L 246.296522 130.269752 
L 244.687577 130.269752 
z
" style="fill:#1f77b4;"/>
   </g>
   <g id="patch_117">
    <path clip-path="url(#pc3d63828e9)" d="M 246.296522 273.312 
L 247.905467 273.312 
L 247.905467 113.650735 
L 246.296522 113.650735 
z
" style="fill:#1f77b4;"/>
   </g>
   <g id="patch_118">
    <path clip-path="url(#pc3d63828e9)" d="M 247.905467 273.312 
L 249.514412 273.312 
L 249.514412 146.888768 
L 247.905467 146.888768 
z
" style="fill:#1f77b4;"/>
   </g>
   <g id="patch_119">
    <path clip-path="url(#pc3d63828e9)" d="M 249.514412 273.312 
L 251.123357 273.312 
L 251.123357 146.888768 
L 249.514412 146.888768 
z
" style="fill:#1f77b4;"/>
   </g>
   <g id="patch_120">
    <path clip-path="url(#pc3d63828e9)" d="M 251.123357 273.312 
L 252.732303 273.312 
L 252.732303 124.334389 
L 251.123357 124.334389 
z
" style="fill:#1f77b4;"/>
   </g>
   <g id="patch_121">
    <path clip-path="url(#pc3d63828e9)" d="M 252.732303 273.312 
L 254.341248 273.312 
L 254.341248 139.172796 
L 252.732303 139.172796 
z
" style="fill:#1f77b4;"/>
   </g>
   <g id="patch_122">
    <path clip-path="url(#pc3d63828e9)" d="M 254.341248 273.312 
L 255.950193 273.312 
L 255.950193 136.205115 
L 254.341248 136.205115 
z
" style="fill:#1f77b4;"/>
   </g>
   <g id="patch_123">
    <path clip-path="url(#pc3d63828e9)" d="M 255.950193 273.312 
L 257.559138 273.312 
L 257.559138 131.456824 
L 255.950193 131.456824 
z
" style="fill:#1f77b4;"/>
   </g>
   <g id="patch_124">
    <path clip-path="url(#pc3d63828e9)" d="M 257.559138 273.312 
L 259.168083 273.312 
L 259.168083 133.83097 
L 257.559138 133.83097 
z
" style="fill:#1f77b4;"/>
   </g>
   <g id="patch_125">
    <path clip-path="url(#pc3d63828e9)" d="M 259.168083 273.312 
L 260.777028 273.312 
L 260.777028 137.392187 
L 259.168083 137.392187 
z
" style="fill:#1f77b4;"/>
   </g>
   <g id="patch_126">
    <path clip-path="url(#pc3d63828e9)" d="M 260.777028 273.312 
L 262.385973 273.312 
L 262.385973 121.960244 
L 260.777028 121.960244 
z
" style="fill:#1f77b4;"/>
   </g>
   <g id="patch_127">
    <path clip-path="url(#pc3d63828e9)" d="M 262.385973 273.312 
L 263.994919 273.312 
L 263.994919 134.424506 
L 262.385973 134.424506 
z
" style="fill:#1f77b4;"/>
   </g>
   <g id="patch_128">
    <path clip-path="url(#pc3d63828e9)" d="M 263.994919 273.312 
L 265.603864 273.312 
L 265.603864 136.798651 
L 263.994919 136.798651 
z
" style="fill:#1f77b4;"/>
   </g>
   <g id="patch_129">
    <path clip-path="url(#pc3d63828e9)" d="M 265.603864 273.312 
L 267.212809 273.312 
L 267.212809 118.992562 
L 265.603864 118.992562 
z
" style="fill:#1f77b4;"/>
   </g>
   <g id="patch_130">
    <path clip-path="url(#pc3d63828e9)" d="M 267.212809 273.312 
L 268.821754 273.312 
L 268.821754 125.521461 
L 267.212809 125.521461 
z
" style="fill:#1f77b4;"/>
   </g>
   <g id="patch_131">
    <path clip-path="url(#pc3d63828e9)" d="M 268.821754 273.312 
L 270.430699 273.312 
L 270.430699 118.992562 
L 268.821754 118.992562 
z
" style="fill:#1f77b4;"/>
   </g>
   <g id="patch_132">
    <path clip-path="url(#pc3d63828e9)" d="M 270.430699 273.312 
L 272.039644 273.312 
L 272.039644 120.773171 
L 270.430699 120.773171 
z
" style="fill:#1f77b4;"/>
   </g>
   <g id="patch_133">
    <path clip-path="url(#pc3d63828e9)" d="M 272.039644 273.312 
L 273.64859 273.312 
L 273.64859 101.780009 
L 272.039644 101.780009 
z
" style="fill:#1f77b4;"/>
   </g>
   <g id="patch_134">
    <path clip-path="url(#pc3d63828e9)" d="M 273.64859 273.312 
L 275.257535 273.312 
L 275.257535 112.463663 
L 273.64859 112.463663 
z
" style="fill:#1f77b4;"/>
   </g>
   <g id="patch_135">
    <path clip-path="url(#pc3d63828e9)" d="M 275.257535 273.312 
L 276.86648 273.312 
L 276.86648 118.399026 
L 275.257535 118.399026 
z
" style="fill:#1f77b4;"/>
   </g>
   <g id="patch_136">
    <path clip-path="url(#pc3d63828e9)" d="M 276.86648 273.312 
L 278.475425 273.312 
L 278.475425 108.902445 
L 276.86648 108.902445 
z
" style="fill:#1f77b4;"/>
   </g>
   <g id="patch_137">
    <path clip-path="url(#pc3d63828e9)" d="M 278.475425 273.312 
L 280.08437 273.312 
L 280.08437 120.179635 
L 278.475425 120.179635 
z
" style="fill:#1f77b4;"/>
   </g>
   <g id="patch_138">
    <path clip-path="url(#pc3d63828e9)" d="M 280.08437 273.312 
L 281.693315 273.312 
L 281.693315 134.424506 
L 280.08437 134.424506 
z
" style="fill:#1f77b4;"/>
   </g>
   <g id="patch_139">
    <path clip-path="url(#pc3d63828e9)" d="M 281.693315 273.312 
L 283.30226 273.312 
L 283.30226 124.927925 
L 281.693315 124.927925 
z
" style="fill:#1f77b4;"/>
   </g>
   <g id="patch_140">
    <path clip-path="url(#pc3d63828e9)" d="M 283.30226 273.312 
L 284.911206 273.312 
L 284.911206 113.650735 
L 283.30226 113.650735 
z
" style="fill:#1f77b4;"/>
   </g>
   <g id="patch_141">
    <path clip-path="url(#pc3d63828e9)" d="M 284.911206 273.312 
L 286.520151 273.312 
L 286.520151 101.186473 
L 284.911206 101.186473 
z
" style="fill:#1f77b4;"/>
   </g>
   <g id="patch_142">
    <path clip-path="url(#pc3d63828e9)" d="M 286.520151 273.312 
L 288.129096 273.312 
L 288.129096 119.586098 
L 286.520151 119.586098 
z
" style="fill:#1f77b4;"/>
   </g>
   <g id="patch_143">
    <path clip-path="url(#pc3d63828e9)" d="M 288.129096 273.312 
L 289.738041 273.312 
L 289.738041 127.30207 
L 288.129096 127.30207 
z
" style="fill:#1f77b4;"/>
   </g>
   <g id="patch_144">
    <path clip-path="url(#pc3d63828e9)" d="M 289.738041 273.312 
L 291.346986 273.312 
L 291.346986 86.348066 
L 289.738041 86.348066 
z
" style="fill:#1f77b4;"/>
   </g>
   <g id="patch_145">
    <path clip-path="url(#pc3d63828e9)" d="M 291.346986 273.312 
L 292.955931 273.312 
L 292.955931 95.25111 
L 291.346986 95.25111 
z
" style="fill:#1f77b4;"/>
   </g>
   <g id="patch_146">
    <path clip-path="url(#pc3d63828e9)" d="M 292.955931 273.312 
L 294.564876 273.312 
L 294.564876 105.341227 
L 292.955931 105.341227 
z
" style="fill:#1f77b4;"/>
   </g>
   <g id="patch_147">
    <path clip-path="url(#pc3d63828e9)" d="M 294.564876 273.312 
L 296.173822 273.312 
L 296.173822 104.747691 
L 294.564876 104.747691 
z
" style="fill:#1f77b4;"/>
   </g>
   <g id="patch_148">
    <path clip-path="url(#pc3d63828e9)" d="M 296.173822 273.312 
L 297.782767 273.312 
L 297.782767 100.592937 
L 296.173822 100.592937 
z
" style="fill:#1f77b4;"/>
   </g>
   <g id="patch_149">
    <path clip-path="url(#pc3d63828e9)" d="M 297.782767 273.312 
L 299.391712 273.312 
L 299.391712 102.373546 
L 297.782767 102.373546 
z
" style="fill:#1f77b4;"/>
   </g>
   <g id="patch_150">
    <path clip-path="url(#pc3d63828e9)" d="M 299.391712 273.312 
L 301.000657 273.312 
L 301.000657 97.031719 
L 299.391712 97.031719 
z
" style="fill:#1f77b4;"/>
   </g>
   <g id="patch_151">
    <path clip-path="url(#pc3d63828e9)" d="M 301.000657 273.312 
L 302.609602 273.312 
L 302.609602 81.599775 
L 301.000657 81.599775 
z
" style="fill:#1f77b4;"/>
   </g>
   <g id="patch_152">
    <path clip-path="url(#pc3d63828e9)" d="M 302.609602 273.312 
L 304.218547 273.312 
L 304.218547 59.638932 
L 302.609602 59.638932 
z
" style="fill:#1f77b4;"/>
   </g>
   <g id="patch_153">
    <path clip-path="url(#pc3d63828e9)" d="M 304.218547 273.312 
L 305.827493 273.312 
L 305.827493 95.844646 
L 304.218547 95.844646 
z
" style="fill:#1f77b4;"/>
   </g>
   <g id="patch_154">
    <path clip-path="url(#pc3d63828e9)" d="M 305.827493 273.312 
L 307.436438 273.312 
L 307.436438 71.509658 
L 305.827493 71.509658 
z
" style="fill:#1f77b4;"/>
   </g>
   <g id="patch_155">
    <path clip-path="url(#pc3d63828e9)" d="M 307.436438 273.312 
L 309.045383 273.312 
L 309.045383 94.064037 
L 307.436438 94.064037 
z
" style="fill:#1f77b4;"/>
   </g>
   <g id="patch_156">
    <path clip-path="url(#pc3d63828e9)" d="M 309.045383 273.312 
L 310.654328 273.312 
L 310.654328 94.064037 
L 309.045383 94.064037 
z
" style="fill:#1f77b4;"/>
   </g>
   <g id="patch_157">
    <path clip-path="url(#pc3d63828e9)" d="M 310.654328 273.312 
L 312.263273 273.312 
L 312.263273 91.689892 
L 310.654328 91.689892 
z
" style="fill:#1f77b4;"/>
   </g>
   <g id="patch_158">
    <path clip-path="url(#pc3d63828e9)" d="M 312.263273 273.312 
L 313.872218 273.312 
L 313.872218 97.031719 
L 312.263273 97.031719 
z
" style="fill:#1f77b4;"/>
   </g>
   <g id="patch_159">
    <path clip-path="url(#pc3d63828e9)" d="M 313.872218 273.312 
L 315.481163 273.312 
L 315.481163 93.470501 
L 313.872218 93.470501 
z
" style="fill:#1f77b4;"/>
   </g>
   <g id="patch_160">
    <path clip-path="url(#pc3d63828e9)" d="M 315.481163 273.312 
L 317.090109 273.312 
L 317.090109 76.851485 
L 315.481163 76.851485 
z
" style="fill:#1f77b4;"/>
   </g>
   <g id="patch_161">
    <path clip-path="url(#pc3d63828e9)" d="M 317.090109 273.312 
L 318.699054 273.312 
L 318.699054 81.006239 
L 317.090109 81.006239 
z
" style="fill:#1f77b4;"/>
   </g>
   <g id="patch_162">
    <path clip-path="url(#pc3d63828e9)" d="M 318.699054 273.312 
L 320.307999 273.312 
L 320.307999 97.031719 
L 318.699054 97.031719 
z
" style="fill:#1f77b4;"/>
   </g>
   <g id="patch_163">
    <path clip-path="url(#pc3d63828e9)" d="M 320.307999 273.312 
L 321.916944 273.312 
L 321.916944 57.858323 
L 320.307999 57.858323 
z
" style="fill:#1f77b4;"/>
   </g>
   <g id="patch_164">
    <path clip-path="url(#pc3d63828e9)" d="M 321.916944 273.312 
L 323.525889 273.312 
L 323.525889 72.696731 
L 321.916944 72.696731 
z
" style="fill:#1f77b4;"/>
   </g>
   <g id="patch_165">
    <path clip-path="url(#pc3d63828e9)" d="M 323.525889 273.312 
L 325.134834 273.312 
L 325.134834 69.135513 
L 323.525889 69.135513 
z
" style="fill:#1f77b4;"/>
   </g>
   <g id="patch_166">
    <path clip-path="url(#pc3d63828e9)" d="M 325.134834 273.312 
L 326.743779 273.312 
L 326.743779 84.567457 
L 325.134834 84.567457 
z
" style="fill:#1f77b4;"/>
   </g>
   <g id="patch_167">
    <path clip-path="url(#pc3d63828e9)" d="M 326.743779 273.312 
L 328.352725 273.312 
L 328.352725 72.696731 
L 326.743779 72.696731 
z
" style="fill:#1f77b4;"/>
   </g>
   <g id="patch_168">
    <path clip-path="url(#pc3d63828e9)" d="M 328.352725 273.312 
L 329.96167 273.312 
L 329.96167 69.729049 
L 328.352725 69.729049 
z
" style="fill:#1f77b4;"/>
   </g>
   <g id="patch_169">
    <path clip-path="url(#pc3d63828e9)" d="M 329.96167 273.312 
L 331.570615 273.312 
L 331.570615 80.412703 
L 329.96167 80.412703 
z
" style="fill:#1f77b4;"/>
   </g>
   <g id="patch_170">
    <path clip-path="url(#pc3d63828e9)" d="M 331.570615 273.312 
L 333.17956 273.312 
L 333.17956 78.038557 
L 331.570615 78.038557 
z
" style="fill:#1f77b4;"/>
   </g>
   <g id="patch_171">
    <path clip-path="url(#pc3d63828e9)" d="M 333.17956 273.312 
L 334.788505 273.312 
L 334.788505 54.890642 
L 333.17956 54.890642 
z
" style="fill:#1f77b4;"/>
   </g>
   <g id="patch_172">
    <path clip-path="url(#pc3d63828e9)" d="M 334.788505 273.312 
L 336.39745 273.312 
L 336.39745 91.096356 
L 334.788505 91.096356 
z
" style="fill:#1f77b4;"/>
   </g>
   <g id="patch_173">
    <path clip-path="url(#pc3d63828e9)" d="M 336.39745 273.312 
L 338.006396 273.312 
L 338.006396 67.354904 
L 336.39745 67.354904 
z
" style="fill:#1f77b4;"/>
   </g>
   <g id="patch_174">
    <path clip-path="url(#pc3d63828e9)" d="M 338.006396 273.312 
L 339.615341 273.312 
L 339.615341 76.851485 
L 338.006396 76.851485 
z
" style="fill:#1f77b4;"/>
   </g>
   <g id="patch_175">
    <path clip-path="url(#pc3d63828e9)" d="M 339.615341 273.312 
L 341.224286 273.312 
L 341.224286 67.94844 
L 339.615341 67.94844 
z
" style="fill:#1f77b4;"/>
   </g>
   <g id="patch_176">
    <path clip-path="url(#pc3d63828e9)" d="M 341.224286 273.312 
L 342.833231 273.312 
L 342.833231 70.916122 
L 341.224286 70.916122 
z
" style="fill:#1f77b4;"/>
   </g>
   <g id="patch_177">
    <path clip-path="url(#pc3d63828e9)" d="M 342.833231 273.312 
L 344.442176 273.312 
L 344.442176 60.232468 
L 342.833231 60.232468 
z
" style="fill:#1f77b4;"/>
   </g>
   <g id="patch_178">
    <path clip-path="url(#pc3d63828e9)" d="M 344.442176 273.312 
L 346.051121 273.312 
L 346.051121 68.541977 
L 344.442176 68.541977 
z
" style="fill:#1f77b4;"/>
   </g>
   <g id="patch_179">
    <path clip-path="url(#pc3d63828e9)" d="M 346.051121 273.312 
L 347.660066 273.312 
L 347.660066 44.206988 
L 346.051121 44.206988 
z
" style="fill:#1f77b4;"/>
   </g>
   <g id="patch_180">
    <path clip-path="url(#pc3d63828e9)" d="M 347.660066 273.312 
L 349.269012 273.312 
L 349.269012 51.92296 
L 347.660066 51.92296 
z
" style="fill:#1f77b4;"/>
   </g>
   <g id="patch_181">
    <path clip-path="url(#pc3d63828e9)" d="M 349.269012 273.312 
L 350.877957 273.312 
L 350.877957 78.632094 
L 349.269012 78.632094 
z
" style="fill:#1f77b4;"/>
   </g>
   <g id="patch_182">
    <path clip-path="url(#pc3d63828e9)" d="M 350.877957 273.312 
L 352.486902 273.312 
L 352.486902 50.735888 
L 350.877957 50.735888 
z
" style="fill:#1f77b4;"/>
   </g>
   <g id="patch_183">
    <path clip-path="url(#pc3d63828e9)" d="M 352.486902 273.312 
L 354.095847 273.312 
L 354.095847 46.581133 
L 352.486902 46.581133 
z
" style="fill:#1f77b4;"/>
   </g>
   <g id="patch_184">
    <path clip-path="url(#pc3d63828e9)" d="M 354.095847 273.312 
L 355.704792 273.312 
L 355.704792 73.883803 
L 354.095847 73.883803 
z
" style="fill:#1f77b4;"/>
   </g>
   <g id="patch_185">
    <path clip-path="url(#pc3d63828e9)" d="M 355.704792 273.312 
L 357.313737 273.312 
L 357.313737 54.297105 
L 355.704792 54.297105 
z
" style="fill:#1f77b4;"/>
   </g>
   <g id="patch_186">
    <path clip-path="url(#pc3d63828e9)" d="M 357.313737 273.312 
L 358.922682 273.312 
L 358.922682 54.297105 
L 357.313737 54.297105 
z
" style="fill:#1f77b4;"/>
   </g>
   <g id="patch_187">
    <path clip-path="url(#pc3d63828e9)" d="M 358.922682 273.312 
L 360.531628 273.312 
L 360.531628 57.858323 
L 358.922682 57.858323 
z
" style="fill:#1f77b4;"/>
   </g>
   <g id="patch_188">
    <path clip-path="url(#pc3d63828e9)" d="M 360.531628 273.312 
L 362.140573 273.312 
L 362.140573 32.929799 
L 360.531628 32.929799 
z
" style="fill:#1f77b4;"/>
   </g>
   <g id="patch_189">
    <path clip-path="url(#pc3d63828e9)" d="M 362.140573 273.312 
L 363.749518 273.312 
L 363.749518 80.412703 
L 362.140573 80.412703 
z
" style="fill:#1f77b4;"/>
   </g>
   <g id="patch_190">
    <path clip-path="url(#pc3d63828e9)" d="M 363.749518 273.312 
L 365.358463 273.312 
L 365.358463 60.232468 
L 363.749518 60.232468 
z
" style="fill:#1f77b4;"/>
   </g>
   <g id="patch_191">
    <path clip-path="url(#pc3d63828e9)" d="M 365.358463 273.312 
L 366.967408 273.312 
L 366.967408 56.077714 
L 365.358463 56.077714 
z
" style="fill:#1f77b4;"/>
   </g>
   <g id="patch_192">
    <path clip-path="url(#pc3d63828e9)" d="M 366.967408 273.312 
L 368.576353 273.312 
L 368.576353 44.800525 
L 366.967408 44.800525 
z
" style="fill:#1f77b4;"/>
   </g>
   <g id="patch_193">
    <path clip-path="url(#pc3d63828e9)" d="M 368.576353 273.312 
L 370.185299 273.312 
L 370.185299 48.955279 
L 368.576353 48.955279 
z
" style="fill:#1f77b4;"/>
   </g>
   <g id="patch_194">
    <path clip-path="url(#pc3d63828e9)" d="M 370.185299 273.312 
L 371.794244 273.312 
L 371.794244 51.329424 
L 370.185299 51.329424 
z
" style="fill:#1f77b4;"/>
   </g>
   <g id="patch_195">
    <path clip-path="url(#pc3d63828e9)" d="M 371.794244 273.312 
L 373.403189 273.312 
L 373.403189 50.142351 
L 371.794244 50.142351 
z
" style="fill:#1f77b4;"/>
   </g>
   <g id="patch_196">
    <path clip-path="url(#pc3d63828e9)" d="M 373.403189 273.312 
L 375.012134 273.312 
L 375.012134 59.045396 
L 373.403189 59.045396 
z
" style="fill:#1f77b4;"/>
   </g>
   <g id="patch_197">
    <path clip-path="url(#pc3d63828e9)" d="M 375.012134 273.312 
L 376.621079 273.312 
L 376.621079 43.019916 
L 375.012134 43.019916 
z
" style="fill:#1f77b4;"/>
   </g>
   <g id="patch_198">
    <path clip-path="url(#pc3d63828e9)" d="M 376.621079 273.312 
L 378.230024 273.312 
L 378.230024 45.394061 
L 376.621079 45.394061 
z
" style="fill:#1f77b4;"/>
   </g>
   <g id="patch_199">
    <path clip-path="url(#pc3d63828e9)" d="M 378.230024 273.312 
L 379.838969 273.312 
L 379.838969 58.451859 
L 378.230024 58.451859 
z
" style="fill:#1f77b4;"/>
   </g>
   <g id="patch_200">
    <path clip-path="url(#pc3d63828e9)" d="M 379.838969 273.312 
L 381.447915 273.312 
L 381.447915 19.872 
L 379.838969 19.872 
z
" style="fill:#1f77b4;"/>
   </g>
   <g id="patch_201">
    <path clip-path="url(#pc3d63828e9)" d="M 381.447915 273.312 
L 383.05686 273.312 
L 383.05686 59.045396 
L 381.447915 59.045396 
z
" style="fill:#1f77b4;"/>
   </g>
   <g id="patch_202">
    <path clip-path="url(#pc3d63828e9)" d="M 383.05686 273.312 
L 384.665805 273.312 
L 384.665805 44.206988 
L 383.05686 44.206988 
z
" style="fill:#1f77b4;"/>
   </g>
   <g id="matplotlib.axis_1">
    <g id="xtick_1">
     <g id="line2d_1">
      <defs>
       <path d="M 0 0 
L 0 3.5 
" id="madd17575de" style="stroke:#000000;stroke-width:0.8;"/>
      </defs>
      <g>
       <use style="stroke:#000000;stroke-width:0.8;" x="60.013977" xlink:href="#madd17575de" y="273.312"/>
      </g>
     </g>
     <g id="text_1">
      <!-- 0.0 -->
      <g transform="translate(52.062415 287.910437)scale(0.1 -0.1)">
       <defs>
        <path d="M 2034 4250 
Q 1547 4250 1301 3770 
Q 1056 3291 1056 2328 
Q 1056 1369 1301 889 
Q 1547 409 2034 409 
Q 2525 409 2770 889 
Q 3016 1369 3016 2328 
Q 3016 3291 2770 3770 
Q 2525 4250 2034 4250 
z
M 2034 4750 
Q 2819 4750 3233 4129 
Q 3647 3509 3647 2328 
Q 3647 1150 3233 529 
Q 2819 -91 2034 -91 
Q 1250 -91 836 529 
Q 422 1150 422 2328 
Q 422 3509 836 4129 
Q 1250 4750 2034 4750 
z
" id="DejaVuSans-30" transform="scale(0.015625)"/>
        <path d="M 684 794 
L 1344 794 
L 1344 0 
L 684 0 
L 684 794 
z
" id="DejaVuSans-2e" transform="scale(0.015625)"/>
       </defs>
       <use xlink:href="#DejaVuSans-30"/>
       <use x="63.623047" xlink:href="#DejaVuSans-2e"/>
       <use x="95.410156" xlink:href="#DejaVuSans-30"/>
      </g>
     </g>
    </g>
    <g id="xtick_2">
     <g id="line2d_2">
      <g>
       <use style="stroke:#000000;stroke-width:0.8;" x="124.944886" xlink:href="#madd17575de" y="273.312"/>
      </g>
     </g>
     <g id="text_2">
      <!-- 0.2 -->
      <g transform="translate(116.993324 287.910437)scale(0.1 -0.1)">
       <defs>
        <path d="M 1228 531 
L 3431 531 
L 3431 0 
L 469 0 
L 469 531 
Q 828 903 1448 1529 
Q 2069 2156 2228 2338 
Q 2531 2678 2651 2914 
Q 2772 3150 2772 3378 
Q 2772 3750 2511 3984 
Q 2250 4219 1831 4219 
Q 1534 4219 1204 4116 
Q 875 4013 500 3803 
L 500 4441 
Q 881 4594 1212 4672 
Q 1544 4750 1819 4750 
Q 2544 4750 2975 4387 
Q 3406 4025 3406 3419 
Q 3406 3131 3298 2873 
Q 3191 2616 2906 2266 
Q 2828 2175 2409 1742 
Q 1991 1309 1228 531 
z
" id="DejaVuSans-32" transform="scale(0.015625)"/>
       </defs>
       <use xlink:href="#DejaVuSans-30"/>
       <use x="63.623047" xlink:href="#DejaVuSans-2e"/>
       <use x="95.410156" xlink:href="#DejaVuSans-32"/>
      </g>
     </g>
    </g>
    <g id="xtick_3">
     <g id="line2d_3">
      <g>
       <use style="stroke:#000000;stroke-width:0.8;" x="189.875795" xlink:href="#madd17575de" y="273.312"/>
      </g>
     </g>
     <g id="text_3">
      <!-- 0.4 -->
      <g transform="translate(181.924233 287.910437)scale(0.1 -0.1)">
       <defs>
        <path d="M 2419 4116 
L 825 1625 
L 2419 1625 
L 2419 4116 
z
M 2253 4666 
L 3047 4666 
L 3047 1625 
L 3713 1625 
L 3713 1100 
L 3047 1100 
L 3047 0 
L 2419 0 
L 2419 1100 
L 313 1100 
L 313 1709 
L 2253 4666 
z
" id="DejaVuSans-34" transform="scale(0.015625)"/>
       </defs>
       <use xlink:href="#DejaVuSans-30"/>
       <use x="63.623047" xlink:href="#DejaVuSans-2e"/>
       <use x="95.410156" xlink:href="#DejaVuSans-34"/>
      </g>
     </g>
    </g>
    <g id="xtick_4">
     <g id="line2d_4">
      <g>
       <use style="stroke:#000000;stroke-width:0.8;" x="254.806705" xlink:href="#madd17575de" y="273.312"/>
      </g>
     </g>
     <g id="text_4">
      <!-- 0.6 -->
      <g transform="translate(246.855142 287.910437)scale(0.1 -0.1)">
       <defs>
        <path d="M 2113 2584 
Q 1688 2584 1439 2293 
Q 1191 2003 1191 1497 
Q 1191 994 1439 701 
Q 1688 409 2113 409 
Q 2538 409 2786 701 
Q 3034 994 3034 1497 
Q 3034 2003 2786 2293 
Q 2538 2584 2113 2584 
z
M 3366 4563 
L 3366 3988 
Q 3128 4100 2886 4159 
Q 2644 4219 2406 4219 
Q 1781 4219 1451 3797 
Q 1122 3375 1075 2522 
Q 1259 2794 1537 2939 
Q 1816 3084 2150 3084 
Q 2853 3084 3261 2657 
Q 3669 2231 3669 1497 
Q 3669 778 3244 343 
Q 2819 -91 2113 -91 
Q 1303 -91 875 529 
Q 447 1150 447 2328 
Q 447 3434 972 4092 
Q 1497 4750 2381 4750 
Q 2619 4750 2861 4703 
Q 3103 4656 3366 4563 
z
" id="DejaVuSans-36" transform="scale(0.015625)"/>
       </defs>
       <use xlink:href="#DejaVuSans-30"/>
       <use x="63.623047" xlink:href="#DejaVuSans-2e"/>
       <use x="95.410156" xlink:href="#DejaVuSans-36"/>
      </g>
     </g>
    </g>
    <g id="xtick_5">
     <g id="line2d_5">
      <g>
       <use style="stroke:#000000;stroke-width:0.8;" x="319.737614" xlink:href="#madd17575de" y="273.312"/>
      </g>
     </g>
     <g id="text_5">
      <!-- 0.8 -->
      <g transform="translate(311.786051 287.910437)scale(0.1 -0.1)">
       <defs>
        <path d="M 2034 2216 
Q 1584 2216 1326 1975 
Q 1069 1734 1069 1313 
Q 1069 891 1326 650 
Q 1584 409 2034 409 
Q 2484 409 2743 651 
Q 3003 894 3003 1313 
Q 3003 1734 2745 1975 
Q 2488 2216 2034 2216 
z
M 1403 2484 
Q 997 2584 770 2862 
Q 544 3141 544 3541 
Q 544 4100 942 4425 
Q 1341 4750 2034 4750 
Q 2731 4750 3128 4425 
Q 3525 4100 3525 3541 
Q 3525 3141 3298 2862 
Q 3072 2584 2669 2484 
Q 3125 2378 3379 2068 
Q 3634 1759 3634 1313 
Q 3634 634 3220 271 
Q 2806 -91 2034 -91 
Q 1263 -91 848 271 
Q 434 634 434 1313 
Q 434 1759 690 2068 
Q 947 2378 1403 2484 
z
M 1172 3481 
Q 1172 3119 1398 2916 
Q 1625 2713 2034 2713 
Q 2441 2713 2670 2916 
Q 2900 3119 2900 3481 
Q 2900 3844 2670 4047 
Q 2441 4250 2034 4250 
Q 1625 4250 1398 4047 
Q 1172 3844 1172 3481 
z
" id="DejaVuSans-38" transform="scale(0.015625)"/>
       </defs>
       <use xlink:href="#DejaVuSans-30"/>
       <use x="63.623047" xlink:href="#DejaVuSans-2e"/>
       <use x="95.410156" xlink:href="#DejaVuSans-38"/>
      </g>
     </g>
    </g>
    <g id="xtick_6">
     <g id="line2d_6">
      <g>
       <use style="stroke:#000000;stroke-width:0.8;" x="384.668523" xlink:href="#madd17575de" y="273.312"/>
      </g>
     </g>
     <g id="text_6">
      <!-- 1.0 -->
      <g transform="translate(376.71696 287.910437)scale(0.1 -0.1)">
       <defs>
        <path d="M 794 531 
L 1825 531 
L 1825 4091 
L 703 3866 
L 703 4441 
L 1819 4666 
L 2450 4666 
L 2450 531 
L 3481 531 
L 3481 0 
L 794 0 
L 794 531 
z
" id="DejaVuSans-31" transform="scale(0.015625)"/>
       </defs>
       <use xlink:href="#DejaVuSans-31"/>
       <use x="63.623047" xlink:href="#DejaVuSans-2e"/>
       <use x="95.410156" xlink:href="#DejaVuSans-30"/>
      </g>
     </g>
    </g>
    <g id="text_7">
     <!-- Propagation direction -->
     <g transform="translate(168.859219 301.588562)scale(0.1 -0.1)">
      <defs>
       <path d="M 1259 4147 
L 1259 2394 
L 2053 2394 
Q 2494 2394 2734 2622 
Q 2975 2850 2975 3272 
Q 2975 3691 2734 3919 
Q 2494 4147 2053 4147 
L 1259 4147 
z
M 628 4666 
L 2053 4666 
Q 2838 4666 3239 4311 
Q 3641 3956 3641 3272 
Q 3641 2581 3239 2228 
Q 2838 1875 2053 1875 
L 1259 1875 
L 1259 0 
L 628 0 
L 628 4666 
z
" id="DejaVuSans-50" transform="scale(0.015625)"/>
       <path d="M 2631 2963 
Q 2534 3019 2420 3045 
Q 2306 3072 2169 3072 
Q 1681 3072 1420 2755 
Q 1159 2438 1159 1844 
L 1159 0 
L 581 0 
L 581 3500 
L 1159 3500 
L 1159 2956 
Q 1341 3275 1631 3429 
Q 1922 3584 2338 3584 
Q 2397 3584 2469 3576 
Q 2541 3569 2628 3553 
L 2631 2963 
z
" id="DejaVuSans-72" transform="scale(0.015625)"/>
       <path d="M 1959 3097 
Q 1497 3097 1228 2736 
Q 959 2375 959 1747 
Q 959 1119 1226 758 
Q 1494 397 1959 397 
Q 2419 397 2687 759 
Q 2956 1122 2956 1747 
Q 2956 2369 2687 2733 
Q 2419 3097 1959 3097 
z
M 1959 3584 
Q 2709 3584 3137 3096 
Q 3566 2609 3566 1747 
Q 3566 888 3137 398 
Q 2709 -91 1959 -91 
Q 1206 -91 779 398 
Q 353 888 353 1747 
Q 353 2609 779 3096 
Q 1206 3584 1959 3584 
z
" id="DejaVuSans-6f" transform="scale(0.015625)"/>
       <path d="M 1159 525 
L 1159 -1331 
L 581 -1331 
L 581 3500 
L 1159 3500 
L 1159 2969 
Q 1341 3281 1617 3432 
Q 1894 3584 2278 3584 
Q 2916 3584 3314 3078 
Q 3713 2572 3713 1747 
Q 3713 922 3314 415 
Q 2916 -91 2278 -91 
Q 1894 -91 1617 61 
Q 1341 213 1159 525 
z
M 3116 1747 
Q 3116 2381 2855 2742 
Q 2594 3103 2138 3103 
Q 1681 3103 1420 2742 
Q 1159 2381 1159 1747 
Q 1159 1113 1420 752 
Q 1681 391 2138 391 
Q 2594 391 2855 752 
Q 3116 1113 3116 1747 
z
" id="DejaVuSans-70" transform="scale(0.015625)"/>
       <path d="M 2194 1759 
Q 1497 1759 1228 1600 
Q 959 1441 959 1056 
Q 959 750 1161 570 
Q 1363 391 1709 391 
Q 2188 391 2477 730 
Q 2766 1069 2766 1631 
L 2766 1759 
L 2194 1759 
z
M 3341 1997 
L 3341 0 
L 2766 0 
L 2766 531 
Q 2569 213 2275 61 
Q 1981 -91 1556 -91 
Q 1019 -91 701 211 
Q 384 513 384 1019 
Q 384 1609 779 1909 
Q 1175 2209 1959 2209 
L 2766 2209 
L 2766 2266 
Q 2766 2663 2505 2880 
Q 2244 3097 1772 3097 
Q 1472 3097 1187 3025 
Q 903 2953 641 2809 
L 641 3341 
Q 956 3463 1253 3523 
Q 1550 3584 1831 3584 
Q 2591 3584 2966 3190 
Q 3341 2797 3341 1997 
z
" id="DejaVuSans-61" transform="scale(0.015625)"/>
       <path d="M 2906 1791 
Q 2906 2416 2648 2759 
Q 2391 3103 1925 3103 
Q 1463 3103 1205 2759 
Q 947 2416 947 1791 
Q 947 1169 1205 825 
Q 1463 481 1925 481 
Q 2391 481 2648 825 
Q 2906 1169 2906 1791 
z
M 3481 434 
Q 3481 -459 3084 -895 
Q 2688 -1331 1869 -1331 
Q 1566 -1331 1297 -1286 
Q 1028 -1241 775 -1147 
L 775 -588 
Q 1028 -725 1275 -790 
Q 1522 -856 1778 -856 
Q 2344 -856 2625 -561 
Q 2906 -266 2906 331 
L 2906 616 
Q 2728 306 2450 153 
Q 2172 0 1784 0 
Q 1141 0 747 490 
Q 353 981 353 1791 
Q 353 2603 747 3093 
Q 1141 3584 1784 3584 
Q 2172 3584 2450 3431 
Q 2728 3278 2906 2969 
L 2906 3500 
L 3481 3500 
L 3481 434 
z
" id="DejaVuSans-67" transform="scale(0.015625)"/>
       <path d="M 1172 4494 
L 1172 3500 
L 2356 3500 
L 2356 3053 
L 1172 3053 
L 1172 1153 
Q 1172 725 1289 603 
Q 1406 481 1766 481 
L 2356 481 
L 2356 0 
L 1766 0 
Q 1100 0 847 248 
Q 594 497 594 1153 
L 594 3053 
L 172 3053 
L 172 3500 
L 594 3500 
L 594 4494 
L 1172 4494 
z
" id="DejaVuSans-74" transform="scale(0.015625)"/>
       <path d="M 603 3500 
L 1178 3500 
L 1178 0 
L 603 0 
L 603 3500 
z
M 603 4863 
L 1178 4863 
L 1178 4134 
L 603 4134 
L 603 4863 
z
" id="DejaVuSans-69" transform="scale(0.015625)"/>
       <path d="M 3513 2113 
L 3513 0 
L 2938 0 
L 2938 2094 
Q 2938 2591 2744 2837 
Q 2550 3084 2163 3084 
Q 1697 3084 1428 2787 
Q 1159 2491 1159 1978 
L 1159 0 
L 581 0 
L 581 3500 
L 1159 3500 
L 1159 2956 
Q 1366 3272 1645 3428 
Q 1925 3584 2291 3584 
Q 2894 3584 3203 3211 
Q 3513 2838 3513 2113 
z
" id="DejaVuSans-6e" transform="scale(0.015625)"/>
       <path id="DejaVuSans-20" transform="scale(0.015625)"/>
       <path d="M 2906 2969 
L 2906 4863 
L 3481 4863 
L 3481 0 
L 2906 0 
L 2906 525 
Q 2725 213 2448 61 
Q 2172 -91 1784 -91 
Q 1150 -91 751 415 
Q 353 922 353 1747 
Q 353 2572 751 3078 
Q 1150 3584 1784 3584 
Q 2172 3584 2448 3432 
Q 2725 3281 2906 2969 
z
M 947 1747 
Q 947 1113 1208 752 
Q 1469 391 1925 391 
Q 2381 391 2643 752 
Q 2906 1113 2906 1747 
Q 2906 2381 2643 2742 
Q 2381 3103 1925 3103 
Q 1469 3103 1208 2742 
Q 947 2381 947 1747 
z
" id="DejaVuSans-64" transform="scale(0.015625)"/>
       <path d="M 3597 1894 
L 3597 1613 
L 953 1613 
Q 991 1019 1311 708 
Q 1631 397 2203 397 
Q 2534 397 2845 478 
Q 3156 559 3463 722 
L 3463 178 
Q 3153 47 2828 -22 
Q 2503 -91 2169 -91 
Q 1331 -91 842 396 
Q 353 884 353 1716 
Q 353 2575 817 3079 
Q 1281 3584 2069 3584 
Q 2775 3584 3186 3129 
Q 3597 2675 3597 1894 
z
M 3022 2063 
Q 3016 2534 2758 2815 
Q 2500 3097 2075 3097 
Q 1594 3097 1305 2825 
Q 1016 2553 972 2059 
L 3022 2063 
z
" id="DejaVuSans-65" transform="scale(0.015625)"/>
       <path d="M 3122 3366 
L 3122 2828 
Q 2878 2963 2633 3030 
Q 2388 3097 2138 3097 
Q 1578 3097 1268 2742 
Q 959 2388 959 1747 
Q 959 1106 1268 751 
Q 1578 397 2138 397 
Q 2388 397 2633 464 
Q 2878 531 3122 666 
L 3122 134 
Q 2881 22 2623 -34 
Q 2366 -91 2075 -91 
Q 1284 -91 818 406 
Q 353 903 353 1747 
Q 353 2603 823 3093 
Q 1294 3584 2113 3584 
Q 2378 3584 2631 3529 
Q 2884 3475 3122 3366 
z
" id="DejaVuSans-63" transform="scale(0.015625)"/>
      </defs>
      <use xlink:href="#DejaVuSans-50"/>
      <use x="58.552734" xlink:href="#DejaVuSans-72"/>
      <use x="97.416016" xlink:href="#DejaVuSans-6f"/>
      <use x="158.597656" xlink:href="#DejaVuSans-70"/>
      <use x="222.074219" xlink:href="#DejaVuSans-61"/>
      <use x="283.353516" xlink:href="#DejaVuSans-67"/>
      <use x="346.830078" xlink:href="#DejaVuSans-61"/>
      <use x="408.109375" xlink:href="#DejaVuSans-74"/>
      <use x="447.318359" xlink:href="#DejaVuSans-69"/>
      <use x="475.101562" xlink:href="#DejaVuSans-6f"/>
      <use x="536.283203" xlink:href="#DejaVuSans-6e"/>
      <use x="599.662109" xlink:href="#DejaVuSans-20"/>
      <use x="631.449219" xlink:href="#DejaVuSans-64"/>
      <use x="694.925781" xlink:href="#DejaVuSans-69"/>
      <use x="722.708984" xlink:href="#DejaVuSans-72"/>
      <use x="761.572266" xlink:href="#DejaVuSans-65"/>
      <use x="823.095703" xlink:href="#DejaVuSans-63"/>
      <use x="878.076172" xlink:href="#DejaVuSans-74"/>
      <use x="917.285156" xlink:href="#DejaVuSans-69"/>
      <use x="945.068359" xlink:href="#DejaVuSans-6f"/>
      <use x="1006.25" xlink:href="#DejaVuSans-6e"/>
     </g>
    </g>
   </g>
   <g id="matplotlib.axis_2">
    <g id="ytick_1">
     <g id="line2d_7">
      <defs>
       <path d="M 0 0 
L -3.5 0 
" id="mce96e0229d" style="stroke:#000000;stroke-width:0.8;"/>
      </defs>
      <g>
       <use style="stroke:#000000;stroke-width:0.8;" x="43.78125" xlink:href="#mce96e0229d" y="273.312"/>
      </g>
     </g>
     <g id="text_8">
      <!-- 0.0 -->
      <g transform="translate(20.878125 277.111219)scale(0.1 -0.1)">
       <use xlink:href="#DejaVuSans-30"/>
       <use x="63.623047" xlink:href="#DejaVuSans-2e"/>
       <use x="95.410156" xlink:href="#DejaVuSans-30"/>
      </g>
     </g>
    </g>
    <g id="ytick_2">
     <g id="line2d_8">
      <g>
       <use style="stroke:#000000;stroke-width:0.8;" x="43.78125" xlink:href="#mce96e0229d" y="214.482246"/>
      </g>
     </g>
     <g id="text_9">
      <!-- 0.5 -->
      <g transform="translate(20.878125 218.281465)scale(0.1 -0.1)">
       <defs>
        <path d="M 691 4666 
L 3169 4666 
L 3169 4134 
L 1269 4134 
L 1269 2991 
Q 1406 3038 1543 3061 
Q 1681 3084 1819 3084 
Q 2600 3084 3056 2656 
Q 3513 2228 3513 1497 
Q 3513 744 3044 326 
Q 2575 -91 1722 -91 
Q 1428 -91 1123 -41 
Q 819 9 494 109 
L 494 744 
Q 775 591 1075 516 
Q 1375 441 1709 441 
Q 2250 441 2565 725 
Q 2881 1009 2881 1497 
Q 2881 1984 2565 2268 
Q 2250 2553 1709 2553 
Q 1456 2553 1204 2497 
Q 953 2441 691 2322 
L 691 4666 
z
" id="DejaVuSans-35" transform="scale(0.015625)"/>
       </defs>
       <use xlink:href="#DejaVuSans-30"/>
       <use x="63.623047" xlink:href="#DejaVuSans-2e"/>
       <use x="95.410156" xlink:href="#DejaVuSans-35"/>
      </g>
     </g>
    </g>
    <g id="ytick_3">
     <g id="line2d_9">
      <g>
       <use style="stroke:#000000;stroke-width:0.8;" x="43.78125" xlink:href="#mce96e0229d" y="155.652492"/>
      </g>
     </g>
     <g id="text_10">
      <!-- 1.0 -->
      <g transform="translate(20.878125 159.451711)scale(0.1 -0.1)">
       <use xlink:href="#DejaVuSans-31"/>
       <use x="63.623047" xlink:href="#DejaVuSans-2e"/>
       <use x="95.410156" xlink:href="#DejaVuSans-30"/>
      </g>
     </g>
    </g>
    <g id="ytick_4">
     <g id="line2d_10">
      <g>
       <use style="stroke:#000000;stroke-width:0.8;" x="43.78125" xlink:href="#mce96e0229d" y="96.822738"/>
      </g>
     </g>
     <g id="text_11">
      <!-- 1.5 -->
      <g transform="translate(20.878125 100.621957)scale(0.1 -0.1)">
       <use xlink:href="#DejaVuSans-31"/>
       <use x="63.623047" xlink:href="#DejaVuSans-2e"/>
       <use x="95.410156" xlink:href="#DejaVuSans-35"/>
      </g>
     </g>
    </g>
    <g id="ytick_5">
     <g id="line2d_11">
      <g>
       <use style="stroke:#000000;stroke-width:0.8;" x="43.78125" xlink:href="#mce96e0229d" y="37.992984"/>
      </g>
     </g>
     <g id="text_12">
      <!-- 2.0 -->
      <g transform="translate(20.878125 41.792203)scale(0.1 -0.1)">
       <use xlink:href="#DejaVuSans-32"/>
       <use x="63.623047" xlink:href="#DejaVuSans-2e"/>
       <use x="95.410156" xlink:href="#DejaVuSans-30"/>
      </g>
     </g>
    </g>
    <g id="text_13">
     <!-- Probability density -->
     <g transform="translate(14.798438 186.606781)rotate(-90)scale(0.1 -0.1)">
      <defs>
       <path d="M 3116 1747 
Q 3116 2381 2855 2742 
Q 2594 3103 2138 3103 
Q 1681 3103 1420 2742 
Q 1159 2381 1159 1747 
Q 1159 1113 1420 752 
Q 1681 391 2138 391 
Q 2594 391 2855 752 
Q 3116 1113 3116 1747 
z
M 1159 2969 
Q 1341 3281 1617 3432 
Q 1894 3584 2278 3584 
Q 2916 3584 3314 3078 
Q 3713 2572 3713 1747 
Q 3713 922 3314 415 
Q 2916 -91 2278 -91 
Q 1894 -91 1617 61 
Q 1341 213 1159 525 
L 1159 0 
L 581 0 
L 581 4863 
L 1159 4863 
L 1159 2969 
z
" id="DejaVuSans-62" transform="scale(0.015625)"/>
       <path d="M 603 4863 
L 1178 4863 
L 1178 0 
L 603 0 
L 603 4863 
z
" id="DejaVuSans-6c" transform="scale(0.015625)"/>
       <path d="M 2059 -325 
Q 1816 -950 1584 -1140 
Q 1353 -1331 966 -1331 
L 506 -1331 
L 506 -850 
L 844 -850 
Q 1081 -850 1212 -737 
Q 1344 -625 1503 -206 
L 1606 56 
L 191 3500 
L 800 3500 
L 1894 763 
L 2988 3500 
L 3597 3500 
L 2059 -325 
z
" id="DejaVuSans-79" transform="scale(0.015625)"/>
       <path d="M 2834 3397 
L 2834 2853 
Q 2591 2978 2328 3040 
Q 2066 3103 1784 3103 
Q 1356 3103 1142 2972 
Q 928 2841 928 2578 
Q 928 2378 1081 2264 
Q 1234 2150 1697 2047 
L 1894 2003 
Q 2506 1872 2764 1633 
Q 3022 1394 3022 966 
Q 3022 478 2636 193 
Q 2250 -91 1575 -91 
Q 1294 -91 989 -36 
Q 684 19 347 128 
L 347 722 
Q 666 556 975 473 
Q 1284 391 1588 391 
Q 1994 391 2212 530 
Q 2431 669 2431 922 
Q 2431 1156 2273 1281 
Q 2116 1406 1581 1522 
L 1381 1569 
Q 847 1681 609 1914 
Q 372 2147 372 2553 
Q 372 3047 722 3315 
Q 1072 3584 1716 3584 
Q 2034 3584 2315 3537 
Q 2597 3491 2834 3397 
z
" id="DejaVuSans-73" transform="scale(0.015625)"/>
      </defs>
      <use xlink:href="#DejaVuSans-50"/>
      <use x="58.552734" xlink:href="#DejaVuSans-72"/>
      <use x="97.416016" xlink:href="#DejaVuSans-6f"/>
      <use x="158.597656" xlink:href="#DejaVuSans-62"/>
      <use x="222.074219" xlink:href="#DejaVuSans-61"/>
      <use x="283.353516" xlink:href="#DejaVuSans-62"/>
      <use x="346.830078" xlink:href="#DejaVuSans-69"/>
      <use x="374.613281" xlink:href="#DejaVuSans-6c"/>
      <use x="402.396484" xlink:href="#DejaVuSans-69"/>
      <use x="430.179688" xlink:href="#DejaVuSans-74"/>
      <use x="469.388672" xlink:href="#DejaVuSans-79"/>
      <use x="528.568359" xlink:href="#DejaVuSans-20"/>
      <use x="560.355469" xlink:href="#DejaVuSans-64"/>
      <use x="623.832031" xlink:href="#DejaVuSans-65"/>
      <use x="685.355469" xlink:href="#DejaVuSans-6e"/>
      <use x="748.734375" xlink:href="#DejaVuSans-73"/>
      <use x="800.833984" xlink:href="#DejaVuSans-69"/>
      <use x="828.617188" xlink:href="#DejaVuSans-74"/>
      <use x="867.826172" xlink:href="#DejaVuSans-79"/>
     </g>
    </g>
   </g>
   <g id="line2d_12">
    <path clip-path="url(#pc3d63828e9)" d="M 60.013977 273.312 
L 384.668523 37.992984 
L 384.668523 37.992984 
" style="fill:none;stroke:#ff7f0e;stroke-linecap:square;stroke-width:1.5;"/>
   </g>
   <g id="patch_203">
    <path d="M 43.78125 273.312 
L 43.78125 7.2 
" style="fill:none;stroke:#000000;stroke-linecap:square;stroke-linejoin:miter;stroke-width:0.8;"/>
   </g>
   <g id="patch_204">
    <path d="M 400.90125 273.312 
L 400.90125 7.2 
" style="fill:none;stroke:#000000;stroke-linecap:square;stroke-linejoin:miter;stroke-width:0.8;"/>
   </g>
   <g id="patch_205">
    <path d="M 43.78125 273.312 
L 400.90125 273.312 
" style="fill:none;stroke:#000000;stroke-linecap:square;stroke-linejoin:miter;stroke-width:0.8;"/>
   </g>
   <g id="patch_206">
    <path d="M 43.78125 7.2 
L 400.90125 7.2 
" style="fill:none;stroke:#000000;stroke-linecap:square;stroke-linejoin:miter;stroke-width:0.8;"/>
   </g>
  </g>
 </g>
 <defs>
  <clipPath id="pc3d63828e9">
   <rect height="266.112" width="357.12" x="43.78125" y="7.2"/>
  </clipPath>
 </defs>
</svg>
