<?xml version="1.0" encoding="utf-8" standalone="no"?>
<!DOCTYPE svg PUBLIC "-//W3C//DTD SVG 1.1//EN"
  "http://www.w3.org/Graphics/SVG/1.1/DTD/svg11.dtd">
<svg height="310.86825pt" version="1.1" viewBox="0 0 408.10125 310.86825" width="408.10125pt" xmlns="http://www.w3.org/2000/svg" xmlns:xlink="http://www.w3.org/1999/xlink">
 <metadata>
  <rdf:RDF xmlns:cc="http://creativecommons.org/ns#" xmlns:dc="http://purl.org/dc/elements/1.1/" xmlns:rdf="http://www.w3.org/1999/02/22-rdf-syntax-ns#">
   <cc:Work>
    <dc:type rdf:resource="http://purl.org/dc/dcmitype/StillImage"/>
    <dc:date>2021-10-14T16:55:22.048105</dc:date>
    <dc:format>image/svg+xml</dc:format>
    <dc:creator>
     <cc:Agent>
      <dc:title>Matplotlib v3.4.3, https://matplotlib.org/</dc:title>
     </cc:Agent>
    </dc:creator>
   </cc:Work>
  </rdf:RDF>
 </metadata>
 <defs>
  <style type="text/css">*{stroke-linecap:butt;stroke-linejoin:round;}</style>
 </defs>
 <g id="figure_1">
  <g id="patch_1">
   <path d="M 0 310.86825 
L 408.10125 310.86825 
L 408.10125 0 
L 0 0 
z
" style="fill:#ffffff;"/>
  </g>
  <g id="axes_1">
   <g id="patch_2">
    <path d="M 43.78125 273.312 
L 400.90125 273.312 
L 400.90125 7.2 
L 43.78125 7.2 
z
" style="fill:#ffffff;"/>
   </g>
   <g id="patch_3">
    <path clip-path="url(#pd933757b67)" d="M 60.859683 273.312 
L 62.469614 273.312 
L 62.469614 269.959619 
L 60.859683 269.959619 
z
" style="fill:#1f77b4;"/>
   </g>
   <g id="patch_4">
    <path clip-path="url(#pd933757b67)" d="M 62.469614 273.312 
L 64.079546 273.312 
L 64.079546 262.584381 
L 62.469614 262.584381 
z
" style="fill:#1f77b4;"/>
   </g>
   <g id="patch_5">
    <path clip-path="url(#pd933757b67)" d="M 64.079546 273.312 
L 65.689477 273.312 
L 65.689477 261.913905 
L 64.079546 261.913905 
z
" style="fill:#1f77b4;"/>
   </g>
   <g id="patch_6">
    <path clip-path="url(#pd933757b67)" d="M 65.689477 273.312 
L 67.299409 273.312 
L 67.299409 265.936762 
L 65.689477 265.936762 
z
" style="fill:#1f77b4;"/>
   </g>
   <g id="patch_7">
    <path clip-path="url(#pd933757b67)" d="M 67.299409 273.312 
L 68.90934 273.312 
L 68.90934 255.209143 
L 67.299409 255.209143 
z
" style="fill:#1f77b4;"/>
   </g>
   <g id="patch_8">
    <path clip-path="url(#pd933757b67)" d="M 68.90934 273.312 
L 70.519272 273.312 
L 70.519272 253.86819 
L 68.90934 253.86819 
z
" style="fill:#1f77b4;"/>
   </g>
   <g id="patch_9">
    <path clip-path="url(#pd933757b67)" d="M 70.519272 273.312 
L 72.129203 273.312 
L 72.129203 249.845333 
L 70.519272 249.845333 
z
" style="fill:#1f77b4;"/>
   </g>
   <g id="patch_10">
    <path clip-path="url(#pd933757b67)" d="M 72.129203 273.312 
L 73.739135 273.312 
L 73.739135 245.152 
L 72.129203 245.152 
z
" style="fill:#1f77b4;"/>
   </g>
   <g id="patch_11">
    <path clip-path="url(#pd933757b67)" d="M 73.739135 273.312 
L 75.349066 273.312 
L 75.349066 248.504381 
L 73.739135 248.504381 
z
" style="fill:#1f77b4;"/>
   </g>
   <g id="patch_12">
    <path clip-path="url(#pd933757b67)" d="M 75.349066 273.312 
L 76.958998 273.312 
L 76.958998 241.799619 
L 75.349066 241.799619 
z
" style="fill:#1f77b4;"/>
   </g>
   <g id="patch_13">
    <path clip-path="url(#pd933757b67)" d="M 76.958998 273.312 
L 78.568929 273.312 
L 78.568929 237.106286 
L 76.958998 237.106286 
z
" style="fill:#1f77b4;"/>
   </g>
   <g id="patch_14">
    <path clip-path="url(#pd933757b67)" d="M 78.568929 273.312 
L 80.178861 273.312 
L 80.178861 237.776762 
L 78.568929 237.776762 
z
" style="fill:#1f77b4;"/>
   </g>
   <g id="patch_15">
    <path clip-path="url(#pd933757b67)" d="M 80.178861 273.312 
L 81.788792 273.312 
L 81.788792 238.447238 
L 80.178861 238.447238 
z
" style="fill:#1f77b4;"/>
   </g>
   <g id="patch_16">
    <path clip-path="url(#pd933757b67)" d="M 81.788792 273.312 
L 83.398724 273.312 
L 83.398724 227.719619 
L 81.788792 227.719619 
z
" style="fill:#1f77b4;"/>
   </g>
   <g id="patch_17">
    <path clip-path="url(#pd933757b67)" d="M 83.398724 273.312 
L 85.008655 273.312 
L 85.008655 233.753905 
L 83.398724 233.753905 
z
" style="fill:#1f77b4;"/>
   </g>
   <g id="patch_18">
    <path clip-path="url(#pd933757b67)" d="M 85.008655 273.312 
L 86.618587 273.312 
L 86.618587 220.344381 
L 85.008655 220.344381 
z
" style="fill:#1f77b4;"/>
   </g>
   <g id="patch_19">
    <path clip-path="url(#pd933757b67)" d="M 86.618587 273.312 
L 88.228518 273.312 
L 88.228518 225.037714 
L 86.618587 225.037714 
z
" style="fill:#1f77b4;"/>
   </g>
   <g id="patch_20">
    <path clip-path="url(#pd933757b67)" d="M 88.228518 273.312 
L 89.83845 273.312 
L 89.83845 212.969143 
L 88.228518 212.969143 
z
" style="fill:#1f77b4;"/>
   </g>
   <g id="patch_21">
    <path clip-path="url(#pd933757b67)" d="M 89.83845 273.312 
L 91.448381 273.312 
L 91.448381 218.332952 
L 89.83845 218.332952 
z
" style="fill:#1f77b4;"/>
   </g>
   <g id="patch_22">
    <path clip-path="url(#pd933757b67)" d="M 91.448381 273.312 
L 93.058313 273.312 
L 93.058313 195.536762 
L 91.448381 195.536762 
z
" style="fill:#1f77b4;"/>
   </g>
   <g id="patch_23">
    <path clip-path="url(#pd933757b67)" d="M 93.058313 273.312 
L 94.668245 273.312 
L 94.668245 196.877714 
L 93.058313 196.877714 
z
" style="fill:#1f77b4;"/>
   </g>
   <g id="patch_24">
    <path clip-path="url(#pd933757b67)" d="M 94.668245 273.312 
L 96.278176 273.312 
L 96.278176 204.923429 
L 94.668245 204.923429 
z
" style="fill:#1f77b4;"/>
   </g>
   <g id="patch_25">
    <path clip-path="url(#pd933757b67)" d="M 96.278176 273.312 
L 97.888108 273.312 
L 97.888108 196.877714 
L 96.278176 196.877714 
z
" style="fill:#1f77b4;"/>
   </g>
   <g id="patch_26">
    <path clip-path="url(#pd933757b67)" d="M 97.888108 273.312 
L 99.498039 273.312 
L 99.498039 219.003429 
L 97.888108 219.003429 
z
" style="fill:#1f77b4;"/>
   </g>
   <g id="patch_27">
    <path clip-path="url(#pd933757b67)" d="M 99.498039 273.312 
L 101.107971 273.312 
L 101.107971 191.513905 
L 99.498039 191.513905 
z
" style="fill:#1f77b4;"/>
   </g>
   <g id="patch_28">
    <path clip-path="url(#pd933757b67)" d="M 101.107971 273.312 
L 102.717902 273.312 
L 102.717902 194.19581 
L 101.107971 194.19581 
z
" style="fill:#1f77b4;"/>
   </g>
   <g id="patch_29">
    <path clip-path="url(#pd933757b67)" d="M 102.717902 273.312 
L 104.327834 273.312 
L 104.327834 188.161524 
L 102.717902 188.161524 
z
" style="fill:#1f77b4;"/>
   </g>
   <g id="patch_30">
    <path clip-path="url(#pd933757b67)" d="M 104.327834 273.312 
L 105.937765 273.312 
L 105.937765 182.127238 
L 104.327834 182.127238 
z
" style="fill:#1f77b4;"/>
   </g>
   <g id="patch_31">
    <path clip-path="url(#pd933757b67)" d="M 105.937765 273.312 
L 107.547697 273.312 
L 107.547697 176.763429 
L 105.937765 176.763429 
z
" style="fill:#1f77b4;"/>
   </g>
   <g id="patch_32">
    <path clip-path="url(#pd933757b67)" d="M 107.547697 273.312 
L 109.157628 273.312 
L 109.157628 174.081524 
L 107.547697 174.081524 
z
" style="fill:#1f77b4;"/>
   </g>
   <g id="patch_33">
    <path clip-path="url(#pd933757b67)" d="M 109.157628 273.312 
L 110.76756 273.312 
L 110.76756 184.809143 
L 109.157628 184.809143 
z
" style="fill:#1f77b4;"/>
   </g>
   <g id="patch_34">
    <path clip-path="url(#pd933757b67)" d="M 110.76756 273.312 
L 112.377491 273.312 
L 112.377491 176.092952 
L 110.76756 176.092952 
z
" style="fill:#1f77b4;"/>
   </g>
   <g id="patch_35">
    <path clip-path="url(#pd933757b67)" d="M 112.377491 273.312 
L 113.987423 273.312 
L 113.987423 176.763429 
L 112.377491 176.763429 
z
" style="fill:#1f77b4;"/>
   </g>
   <g id="patch_36">
    <path clip-path="url(#pd933757b67)" d="M 113.987423 273.312 
L 115.597354 273.312 
L 115.597354 172.740571 
L 113.987423 172.740571 
z
" style="fill:#1f77b4;"/>
   </g>
   <g id="patch_37">
    <path clip-path="url(#pd933757b67)" d="M 115.597354 273.312 
L 117.207286 273.312 
L 117.207286 166.03581 
L 115.597354 166.03581 
z
" style="fill:#1f77b4;"/>
   </g>
   <g id="patch_38">
    <path clip-path="url(#pd933757b67)" d="M 117.207286 273.312 
L 118.817217 273.312 
L 118.817217 163.353905 
L 117.207286 163.353905 
z
" style="fill:#1f77b4;"/>
   </g>
   <g id="patch_39">
    <path clip-path="url(#pd933757b67)" d="M 118.817217 273.312 
L 120.427149 273.312 
L 120.427149 145.251048 
L 118.817217 145.251048 
z
" style="fill:#1f77b4;"/>
   </g>
   <g id="patch_40">
    <path clip-path="url(#pd933757b67)" d="M 120.427149 273.312 
L 122.03708 273.312 
L 122.03708 178.104381 
L 120.427149 178.104381 
z
" style="fill:#1f77b4;"/>
   </g>
   <g id="patch_41">
    <path clip-path="url(#pd933757b67)" d="M 122.03708 273.312 
L 123.647012 273.312 
L 123.647012 160.672 
L 122.03708 160.672 
z
" style="fill:#1f77b4;"/>
   </g>
   <g id="patch_42">
    <path clip-path="url(#pd933757b67)" d="M 123.647012 273.312 
L 125.256943 273.312 
L 125.256943 143.910095 
L 123.647012 143.910095 
z
" style="fill:#1f77b4;"/>
   </g>
   <g id="patch_43">
    <path clip-path="url(#pd933757b67)" d="M 125.256943 273.312 
L 126.866875 273.312 
L 126.866875 151.95581 
L 125.256943 151.95581 
z
" style="fill:#1f77b4;"/>
   </g>
   <g id="patch_44">
    <path clip-path="url(#pd933757b67)" d="M 126.866875 273.312 
L 128.476806 273.312 
L 128.476806 134.523429 
L 126.866875 134.523429 
z
" style="fill:#1f77b4;"/>
   </g>
   <g id="patch_45">
    <path clip-path="url(#pd933757b67)" d="M 128.476806 273.312 
L 130.086738 273.312 
L 130.086738 139.887238 
L 128.476806 139.887238 
z
" style="fill:#1f77b4;"/>
   </g>
   <g id="patch_46">
    <path clip-path="url(#pd933757b67)" d="M 130.086738 273.312 
L 131.696669 273.312 
L 131.696669 152.626286 
L 130.086738 152.626286 
z
" style="fill:#1f77b4;"/>
   </g>
   <g id="patch_47">
    <path clip-path="url(#pd933757b67)" d="M 131.696669 273.312 
L 133.306601 273.312 
L 133.306601 129.830095 
L 131.696669 129.830095 
z
" style="fill:#1f77b4;"/>
   </g>
   <g id="patch_48">
    <path clip-path="url(#pd933757b67)" d="M 133.306601 273.312 
L 134.916532 273.312 
L 134.916532 154.637714 
L 133.306601 154.637714 
z
" style="fill:#1f77b4;"/>
   </g>
   <g id="patch_49">
    <path clip-path="url(#pd933757b67)" d="M 134.916532 273.312 
L 136.526464 273.312 
L 136.526464 168.717714 
L 134.916532 168.717714 
z
" style="fill:#1f77b4;"/>
   </g>
   <g id="patch_50">
    <path clip-path="url(#pd933757b67)" d="M 136.526464 273.312 
L 138.136395 273.312 
L 138.136395 115.079619 
L 136.526464 115.079619 
z
" style="fill:#1f77b4;"/>
   </g>
   <g id="patch_51">
    <path clip-path="url(#pd933757b67)" d="M 138.136395 273.312 
L 139.746327 273.312 
L 139.746327 123.79581 
L 138.136395 123.79581 
z
" style="fill:#1f77b4;"/>
   </g>
   <g id="patch_52">
    <path clip-path="url(#pd933757b67)" d="M 139.746327 273.312 
L 141.356258 273.312 
L 141.356258 127.14819 
L 139.746327 127.14819 
z
" style="fill:#1f77b4;"/>
   </g>
   <g id="patch_53">
    <path clip-path="url(#pd933757b67)" d="M 141.356258 273.312 
L 142.96619 273.312 
L 142.96619 110.386286 
L 141.356258 110.386286 
z
" style="fill:#1f77b4;"/>
   </g>
   <g id="patch_54">
    <path clip-path="url(#pd933757b67)" d="M 142.96619 273.312 
L 144.576121 273.312 
L 144.576121 124.466286 
L 142.96619 124.466286 
z
" style="fill:#1f77b4;"/>
   </g>
   <g id="patch_55">
    <path clip-path="url(#pd933757b67)" d="M 144.576121 273.312 
L 146.186053 273.312 
L 146.186053 121.113905 
L 144.576121 121.113905 
z
" style="fill:#1f77b4;"/>
   </g>
   <g id="patch_56">
    <path clip-path="url(#pd933757b67)" d="M 146.186053 273.312 
L 147.795984 273.312 
L 147.795984 113.738667 
L 146.186053 113.738667 
z
" style="fill:#1f77b4;"/>
   </g>
   <g id="patch_57">
    <path clip-path="url(#pd933757b67)" d="M 147.795984 273.312 
L 149.405916 273.312 
L 149.405916 121.784381 
L 147.795984 121.784381 
z
" style="fill:#1f77b4;"/>
   </g>
   <g id="patch_58">
    <path clip-path="url(#pd933757b67)" d="M 149.405916 273.312 
L 151.015848 273.312 
L 151.015848 117.761524 
L 149.405916 117.761524 
z
" style="fill:#1f77b4;"/>
   </g>
   <g id="patch_59">
    <path clip-path="url(#pd933757b67)" d="M 151.015848 273.312 
L 152.625779 273.312 
L 152.625779 103.681524 
L 151.015848 103.681524 
z
" style="fill:#1f77b4;"/>
   </g>
   <g id="patch_60">
    <path clip-path="url(#pd933757b67)" d="M 152.625779 273.312 
L 154.235711 273.312 
L 154.235711 100.999619 
L 152.625779 100.999619 
z
" style="fill:#1f77b4;"/>
   </g>
   <g id="patch_61">
    <path clip-path="url(#pd933757b67)" d="M 154.235711 273.312 
L 155.845642 273.312 
L 155.845642 86.249143 
L 154.235711 86.249143 
z
" style="fill:#1f77b4;"/>
   </g>
   <g id="patch_62">
    <path clip-path="url(#pd933757b67)" d="M 155.845642 273.312 
L 157.455574 273.312 
L 157.455574 134.523429 
L 155.845642 134.523429 
z
" style="fill:#1f77b4;"/>
   </g>
   <g id="patch_63">
    <path clip-path="url(#pd933757b67)" d="M 157.455574 273.312 
L 159.065505 273.312 
L 159.065505 88.260571 
L 157.455574 88.260571 
z
" style="fill:#1f77b4;"/>
   </g>
   <g id="patch_64">
    <path clip-path="url(#pd933757b67)" d="M 159.065505 273.312 
L 160.675437 273.312 
L 160.675437 83.567238 
L 159.065505 83.567238 
z
" style="fill:#1f77b4;"/>
   </g>
   <g id="patch_65">
    <path clip-path="url(#pd933757b67)" d="M 160.675437 273.312 
L 162.285368 273.312 
L 162.285368 97.647238 
L 160.675437 97.647238 
z
" style="fill:#1f77b4;"/>
   </g>
   <g id="patch_66">
    <path clip-path="url(#pd933757b67)" d="M 162.285368 273.312 
L 163.8953 273.312 
L 163.8953 94.965333 
L 162.285368 94.965333 
z
" style="fill:#1f77b4;"/>
   </g>
   <g id="patch_67">
    <path clip-path="url(#pd933757b67)" d="M 163.8953 273.312 
L 165.505231 273.312 
L 165.505231 88.931048 
L 163.8953 88.931048 
z
" style="fill:#1f77b4;"/>
   </g>
   <g id="patch_68">
    <path clip-path="url(#pd933757b67)" d="M 165.505231 273.312 
L 167.115163 273.312 
L 167.115163 89.601524 
L 165.505231 89.601524 
z
" style="fill:#1f77b4;"/>
   </g>
   <g id="patch_69">
    <path clip-path="url(#pd933757b67)" d="M 167.115163 273.312 
L 168.725094 273.312 
L 168.725094 100.999619 
L 167.115163 100.999619 
z
" style="fill:#1f77b4;"/>
   </g>
   <g id="patch_70">
    <path clip-path="url(#pd933757b67)" d="M 168.725094 273.312 
L 170.335026 273.312 
L 170.335026 86.919619 
L 168.725094 86.919619 
z
" style="fill:#1f77b4;"/>
   </g>
   <g id="patch_71">
    <path clip-path="url(#pd933757b67)" d="M 170.335026 273.312 
L 171.944957 273.312 
L 171.944957 97.647238 
L 170.335026 97.647238 
z
" style="fill:#1f77b4;"/>
   </g>
   <g id="patch_72">
    <path clip-path="url(#pd933757b67)" d="M 171.944957 273.312 
L 173.554889 273.312 
L 173.554889 74.851048 
L 171.944957 74.851048 
z
" style="fill:#1f77b4;"/>
   </g>
   <g id="patch_73">
    <path clip-path="url(#pd933757b67)" d="M 173.554889 273.312 
L 175.16482 273.312 
L 175.16482 100.329143 
L 173.554889 100.329143 
z
" style="fill:#1f77b4;"/>
   </g>
   <g id="patch_74">
    <path clip-path="url(#pd933757b67)" d="M 175.16482 273.312 
L 176.774752 273.312 
L 176.774752 90.942476 
L 175.16482 90.942476 
z
" style="fill:#1f77b4;"/>
   </g>
   <g id="patch_75">
    <path clip-path="url(#pd933757b67)" d="M 176.774752 273.312 
L 178.384683 273.312 
L 178.384683 76.862476 
L 176.774752 76.862476 
z
" style="fill:#1f77b4;"/>
   </g>
   <g id="patch_76">
    <path clip-path="url(#pd933757b67)" d="M 178.384683 273.312 
L 179.994615 273.312 
L 179.994615 75.521524 
L 178.384683 75.521524 
z
" style="fill:#1f77b4;"/>
   </g>
   <g id="patch_77">
    <path clip-path="url(#pd933757b67)" d="M 179.994615 273.312 
L 181.604546 273.312 
L 181.604546 82.226286 
L 179.994615 82.226286 
z
" style="fill:#1f77b4;"/>
   </g>
   <g id="patch_78">
    <path clip-path="url(#pd933757b67)" d="M 181.604546 273.312 
L 183.214478 273.312 
L 183.214478 68.816762 
L 181.604546 68.816762 
z
" style="fill:#1f77b4;"/>
   </g>
   <g id="patch_79">
    <path clip-path="url(#pd933757b67)" d="M 183.214478 273.312 
L 184.824409 273.312 
L 184.824409 66.134857 
L 183.214478 66.134857 
z
" style="fill:#1f77b4;"/>
   </g>
   <g id="patch_80">
    <path clip-path="url(#pd933757b67)" d="M 184.824409 273.312 
L 186.434341 273.312 
L 186.434341 89.601524 
L 184.824409 89.601524 
z
" style="fill:#1f77b4;"/>
   </g>
   <g id="patch_81">
    <path clip-path="url(#pd933757b67)" d="M 186.434341 273.312 
L 188.044272 273.312 
L 188.044272 72.839619 
L 186.434341 72.839619 
z
" style="fill:#1f77b4;"/>
   </g>
   <g id="patch_82">
    <path clip-path="url(#pd933757b67)" d="M 188.044272 273.312 
L 189.654204 273.312 
L 189.654204 70.157714 
L 188.044272 70.157714 
z
" style="fill:#1f77b4;"/>
   </g>
   <g id="patch_83">
    <path clip-path="url(#pd933757b67)" d="M 189.654204 273.312 
L 191.264135 273.312 
L 191.264135 50.713905 
L 189.654204 50.713905 
z
" style="fill:#1f77b4;"/>
   </g>
   <g id="patch_84">
    <path clip-path="url(#pd933757b67)" d="M 191.264135 273.312 
L 192.874067 273.312 
L 192.874067 54.736762 
L 191.264135 54.736762 
z
" style="fill:#1f77b4;"/>
   </g>
   <g id="patch_85">
    <path clip-path="url(#pd933757b67)" d="M 192.874067 273.312 
L 194.483998 273.312 
L 194.483998 70.157714 
L 192.874067 70.157714 
z
" style="fill:#1f77b4;"/>
   </g>
   <g id="patch_86">
    <path clip-path="url(#pd933757b67)" d="M 194.483998 273.312 
L 196.09393 273.312 
L 196.09393 70.157714 
L 194.483998 70.157714 
z
" style="fill:#1f77b4;"/>
   </g>
   <g id="patch_87">
    <path clip-path="url(#pd933757b67)" d="M 196.09393 273.312 
L 197.703861 273.312 
L 197.703861 64.793905 
L 196.09393 64.793905 
z
" style="fill:#1f77b4;"/>
   </g>
   <g id="patch_88">
    <path clip-path="url(#pd933757b67)" d="M 197.703861 273.312 
L 199.313793 273.312 
L 199.313793 76.192 
L 197.703861 76.192 
z
" style="fill:#1f77b4;"/>
   </g>
   <g id="patch_89">
    <path clip-path="url(#pd933757b67)" d="M 199.313793 273.312 
L 200.923724 273.312 
L 200.923724 82.896762 
L 199.313793 82.896762 
z
" style="fill:#1f77b4;"/>
   </g>
   <g id="patch_90">
    <path clip-path="url(#pd933757b67)" d="M 200.923724 273.312 
L 202.533656 273.312 
L 202.533656 64.793905 
L 200.923724 64.793905 
z
" style="fill:#1f77b4;"/>
   </g>
   <g id="patch_91">
    <path clip-path="url(#pd933757b67)" d="M 202.533656 273.312 
L 204.143587 273.312 
L 204.143587 66.134857 
L 202.533656 66.134857 
z
" style="fill:#1f77b4;"/>
   </g>
   <g id="patch_92">
    <path clip-path="url(#pd933757b67)" d="M 204.143587 273.312 
L 205.753519 273.312 
L 205.753519 66.805333 
L 204.143587 66.805333 
z
" style="fill:#1f77b4;"/>
   </g>
   <g id="patch_93">
    <path clip-path="url(#pd933757b67)" d="M 205.753519 273.312 
L 207.363451 273.312 
L 207.363451 46.020571 
L 205.753519 46.020571 
z
" style="fill:#1f77b4;"/>
   </g>
   <g id="patch_94">
    <path clip-path="url(#pd933757b67)" d="M 207.363451 273.312 
L 208.973382 273.312 
L 208.973382 66.805333 
L 207.363451 66.805333 
z
" style="fill:#1f77b4;"/>
   </g>
   <g id="patch_95">
    <path clip-path="url(#pd933757b67)" d="M 208.973382 273.312 
L 210.583314 273.312 
L 210.583314 19.872 
L 208.973382 19.872 
z
" style="fill:#1f77b4;"/>
   </g>
   <g id="patch_96">
    <path clip-path="url(#pd933757b67)" d="M 210.583314 273.312 
L 212.193245 273.312 
L 212.193245 53.39581 
L 210.583314 53.39581 
z
" style="fill:#1f77b4;"/>
   </g>
   <g id="patch_97">
    <path clip-path="url(#pd933757b67)" d="M 212.193245 273.312 
L 213.803177 273.312 
L 213.803177 65.464381 
L 212.193245 65.464381 
z
" style="fill:#1f77b4;"/>
   </g>
   <g id="patch_98">
    <path clip-path="url(#pd933757b67)" d="M 213.803177 273.312 
L 215.413108 273.312 
L 215.413108 61.441524 
L 213.803177 61.441524 
z
" style="fill:#1f77b4;"/>
   </g>
   <g id="patch_99">
    <path clip-path="url(#pd933757b67)" d="M 215.413108 273.312 
L 217.02304 273.312 
L 217.02304 70.82819 
L 215.413108 70.82819 
z
" style="fill:#1f77b4;"/>
   </g>
   <g id="patch_100">
    <path clip-path="url(#pd933757b67)" d="M 217.02304 273.312 
L 218.632971 273.312 
L 218.632971 53.39581 
L 217.02304 53.39581 
z
" style="fill:#1f77b4;"/>
   </g>
   <g id="patch_101">
    <path clip-path="url(#pd933757b67)" d="M 218.632971 273.312 
L 220.242903 273.312 
L 220.242903 60.100571 
L 218.632971 60.100571 
z
" style="fill:#1f77b4;"/>
   </g>
   <g id="patch_102">
    <path clip-path="url(#pd933757b67)" d="M 220.242903 273.312 
L 221.852834 273.312 
L 221.852834 44.009143 
L 220.242903 44.009143 
z
" style="fill:#1f77b4;"/>
   </g>
   <g id="patch_103">
    <path clip-path="url(#pd933757b67)" d="M 221.852834 273.312 
L 223.462766 273.312 
L 223.462766 85.578667 
L 221.852834 85.578667 
z
" style="fill:#1f77b4;"/>
   </g>
   <g id="patch_104">
    <path clip-path="url(#pd933757b67)" d="M 223.462766 273.312 
L 225.072697 273.312 
L 225.072697 77.532952 
L 223.462766 77.532952 
z
" style="fill:#1f77b4;"/>
   </g>
   <g id="patch_105">
    <path clip-path="url(#pd933757b67)" d="M 225.072697 273.312 
L 226.682629 273.312 
L 226.682629 54.736762 
L 225.072697 54.736762 
z
" style="fill:#1f77b4;"/>
   </g>
   <g id="patch_106">
    <path clip-path="url(#pd933757b67)" d="M 226.682629 273.312 
L 228.29256 273.312 
L 228.29256 70.82819 
L 226.682629 70.82819 
z
" style="fill:#1f77b4;"/>
   </g>
   <g id="patch_107">
    <path clip-path="url(#pd933757b67)" d="M 228.29256 273.312 
L 229.902492 273.312 
L 229.902492 82.226286 
L 228.29256 82.226286 
z
" style="fill:#1f77b4;"/>
   </g>
   <g id="patch_108">
    <path clip-path="url(#pd933757b67)" d="M 229.902492 273.312 
L 231.512423 273.312 
L 231.512423 86.919619 
L 229.902492 86.919619 
z
" style="fill:#1f77b4;"/>
   </g>
   <g id="patch_109">
    <path clip-path="url(#pd933757b67)" d="M 231.512423 273.312 
L 233.122355 273.312 
L 233.122355 62.782476 
L 231.512423 62.782476 
z
" style="fill:#1f77b4;"/>
   </g>
   <g id="patch_110">
    <path clip-path="url(#pd933757b67)" d="M 233.122355 273.312 
L 234.732286 273.312 
L 234.732286 64.793905 
L 233.122355 64.793905 
z
" style="fill:#1f77b4;"/>
   </g>
   <g id="patch_111">
    <path clip-path="url(#pd933757b67)" d="M 234.732286 273.312 
L 236.342218 273.312 
L 236.342218 53.39581 
L 234.732286 53.39581 
z
" style="fill:#1f77b4;"/>
   </g>
   <g id="patch_112">
    <path clip-path="url(#pd933757b67)" d="M 236.342218 273.312 
L 237.952149 273.312 
L 237.952149 47.361524 
L 236.342218 47.361524 
z
" style="fill:#1f77b4;"/>
   </g>
   <g id="patch_113">
    <path clip-path="url(#pd933757b67)" d="M 237.952149 273.312 
L 239.562081 273.312 
L 239.562081 70.82819 
L 237.952149 70.82819 
z
" style="fill:#1f77b4;"/>
   </g>
   <g id="patch_114">
    <path clip-path="url(#pd933757b67)" d="M 239.562081 273.312 
L 241.172012 273.312 
L 241.172012 66.805333 
L 239.562081 66.805333 
z
" style="fill:#1f77b4;"/>
   </g>
   <g id="patch_115">
    <path clip-path="url(#pd933757b67)" d="M 241.172012 273.312 
L 242.781944 273.312 
L 242.781944 70.157714 
L 241.172012 70.157714 
z
" style="fill:#1f77b4;"/>
   </g>
   <g id="patch_116">
    <path clip-path="url(#pd933757b67)" d="M 242.781944 273.312 
L 244.391875 273.312 
L 244.391875 80.214857 
L 242.781944 80.214857 
z
" style="fill:#1f77b4;"/>
   </g>
   <g id="patch_117">
    <path clip-path="url(#pd933757b67)" d="M 244.391875 273.312 
L 246.001807 273.312 
L 246.001807 78.873905 
L 244.391875 78.873905 
z
" style="fill:#1f77b4;"/>
   </g>
   <g id="patch_118">
    <path clip-path="url(#pd933757b67)" d="M 246.001807 273.312 
L 247.611738 273.312 
L 247.611738 74.180571 
L 246.001807 74.180571 
z
" style="fill:#1f77b4;"/>
   </g>
   <g id="patch_119">
    <path clip-path="url(#pd933757b67)" d="M 247.611738 273.312 
L 249.22167 273.312 
L 249.22167 75.521524 
L 247.611738 75.521524 
z
" style="fill:#1f77b4;"/>
   </g>
   <g id="patch_120">
    <path clip-path="url(#pd933757b67)" d="M 249.22167 273.312 
L 250.831601 273.312 
L 250.831601 71.498667 
L 249.22167 71.498667 
z
" style="fill:#1f77b4;"/>
   </g>
   <g id="patch_121">
    <path clip-path="url(#pd933757b67)" d="M 250.831601 273.312 
L 252.441533 273.312 
L 252.441533 84.237714 
L 250.831601 84.237714 
z
" style="fill:#1f77b4;"/>
   </g>
   <g id="patch_122">
    <path clip-path="url(#pd933757b67)" d="M 252.441533 273.312 
L 254.051464 273.312 
L 254.051464 64.793905 
L 252.441533 64.793905 
z
" style="fill:#1f77b4;"/>
   </g>
   <g id="patch_123">
    <path clip-path="url(#pd933757b67)" d="M 254.051464 273.312 
L 255.661396 273.312 
L 255.661396 86.919619 
L 254.051464 86.919619 
z
" style="fill:#1f77b4;"/>
   </g>
   <g id="patch_124">
    <path clip-path="url(#pd933757b67)" d="M 255.661396 273.312 
L 257.271327 273.312 
L 257.271327 88.260571 
L 255.661396 88.260571 
z
" style="fill:#1f77b4;"/>
   </g>
   <g id="patch_125">
    <path clip-path="url(#pd933757b67)" d="M 257.271327 273.312 
L 258.881259 273.312 
L 258.881259 48.032 
L 257.271327 48.032 
z
" style="fill:#1f77b4;"/>
   </g>
   <g id="patch_126">
    <path clip-path="url(#pd933757b67)" d="M 258.881259 273.312 
L 260.49119 273.312 
L 260.49119 78.203429 
L 258.881259 78.203429 
z
" style="fill:#1f77b4;"/>
   </g>
   <g id="patch_127">
    <path clip-path="url(#pd933757b67)" d="M 260.49119 273.312 
L 262.101122 273.312 
L 262.101122 84.90819 
L 260.49119 84.90819 
z
" style="fill:#1f77b4;"/>
   </g>
   <g id="patch_128">
    <path clip-path="url(#pd933757b67)" d="M 262.101122 273.312 
L 263.711054 273.312 
L 263.711054 76.862476 
L 262.101122 76.862476 
z
" style="fill:#1f77b4;"/>
   </g>
   <g id="patch_129">
    <path clip-path="url(#pd933757b67)" d="M 263.711054 273.312 
L 265.320985 273.312 
L 265.320985 96.306286 
L 263.711054 96.306286 
z
" style="fill:#1f77b4;"/>
   </g>
   <g id="patch_130">
    <path clip-path="url(#pd933757b67)" d="M 265.320985 273.312 
L 266.930917 273.312 
L 266.930917 76.192 
L 265.320985 76.192 
z
" style="fill:#1f77b4;"/>
   </g>
   <g id="patch_131">
    <path clip-path="url(#pd933757b67)" d="M 266.930917 273.312 
L 268.540848 273.312 
L 268.540848 101.670095 
L 266.930917 101.670095 
z
" style="fill:#1f77b4;"/>
   </g>
   <g id="patch_132">
    <path clip-path="url(#pd933757b67)" d="M 268.540848 273.312 
L 270.15078 273.312 
L 270.15078 90.942476 
L 268.540848 90.942476 
z
" style="fill:#1f77b4;"/>
   </g>
   <g id="patch_133">
    <path clip-path="url(#pd933757b67)" d="M 270.15078 273.312 
L 271.760711 273.312 
L 271.760711 84.90819 
L 270.15078 84.90819 
z
" style="fill:#1f77b4;"/>
   </g>
   <g id="patch_134">
    <path clip-path="url(#pd933757b67)" d="M 271.760711 273.312 
L 273.370643 273.312 
L 273.370643 79.544381 
L 271.760711 79.544381 
z
" style="fill:#1f77b4;"/>
   </g>
   <g id="patch_135">
    <path clip-path="url(#pd933757b67)" d="M 273.370643 273.312 
L 274.980574 273.312 
L 274.980574 88.931048 
L 273.370643 88.931048 
z
" style="fill:#1f77b4;"/>
   </g>
   <g id="patch_136">
    <path clip-path="url(#pd933757b67)" d="M 274.980574 273.312 
L 276.590506 273.312 
L 276.590506 102.340571 
L 274.980574 102.340571 
z
" style="fill:#1f77b4;"/>
   </g>
   <g id="patch_137">
    <path clip-path="url(#pd933757b67)" d="M 276.590506 273.312 
L 278.200437 273.312 
L 278.200437 100.329143 
L 276.590506 100.329143 
z
" style="fill:#1f77b4;"/>
   </g>
   <g id="patch_138">
    <path clip-path="url(#pd933757b67)" d="M 278.200437 273.312 
L 279.810369 273.312 
L 279.810369 98.98819 
L 278.200437 98.98819 
z
" style="fill:#1f77b4;"/>
   </g>
   <g id="patch_139">
    <path clip-path="url(#pd933757b67)" d="M 279.810369 273.312 
L 281.4203 273.312 
L 281.4203 101.670095 
L 279.810369 101.670095 
z
" style="fill:#1f77b4;"/>
   </g>
   <g id="patch_140">
    <path clip-path="url(#pd933757b67)" d="M 281.4203 273.312 
L 283.030232 273.312 
L 283.030232 100.999619 
L 281.4203 100.999619 
z
" style="fill:#1f77b4;"/>
   </g>
   <g id="patch_141">
    <path clip-path="url(#pd933757b67)" d="M 283.030232 273.312 
L 284.640163 273.312 
L 284.640163 99.658667 
L 283.030232 99.658667 
z
" style="fill:#1f77b4;"/>
   </g>
   <g id="patch_142">
    <path clip-path="url(#pd933757b67)" d="M 284.640163 273.312 
L 286.250095 273.312 
L 286.250095 105.692952 
L 284.640163 105.692952 
z
" style="fill:#1f77b4;"/>
   </g>
   <g id="patch_143">
    <path clip-path="url(#pd933757b67)" d="M 286.250095 273.312 
L 287.860026 273.312 
L 287.860026 109.71581 
L 286.250095 109.71581 
z
" style="fill:#1f77b4;"/>
   </g>
   <g id="patch_144">
    <path clip-path="url(#pd933757b67)" d="M 287.860026 273.312 
L 289.469958 273.312 
L 289.469958 115.079619 
L 287.860026 115.079619 
z
" style="fill:#1f77b4;"/>
   </g>
   <g id="patch_145">
    <path clip-path="url(#pd933757b67)" d="M 289.469958 273.312 
L 291.079889 273.312 
L 291.079889 107.704381 
L 289.469958 107.704381 
z
" style="fill:#1f77b4;"/>
   </g>
   <g id="patch_146">
    <path clip-path="url(#pd933757b67)" d="M 291.079889 273.312 
L 292.689821 273.312 
L 292.689821 111.056762 
L 291.079889 111.056762 
z
" style="fill:#1f77b4;"/>
   </g>
   <g id="patch_147">
    <path clip-path="url(#pd933757b67)" d="M 292.689821 273.312 
L 294.299752 273.312 
L 294.299752 116.420571 
L 292.689821 116.420571 
z
" style="fill:#1f77b4;"/>
   </g>
   <g id="patch_148">
    <path clip-path="url(#pd933757b67)" d="M 294.299752 273.312 
L 295.909684 273.312 
L 295.909684 128.489143 
L 294.299752 128.489143 
z
" style="fill:#1f77b4;"/>
   </g>
   <g id="patch_149">
    <path clip-path="url(#pd933757b67)" d="M 295.909684 273.312 
L 297.519615 273.312 
L 297.519615 127.14819 
L 295.909684 127.14819 
z
" style="fill:#1f77b4;"/>
   </g>
   <g id="patch_150">
    <path clip-path="url(#pd933757b67)" d="M 297.519615 273.312 
L 299.129547 273.312 
L 299.129547 128.489143 
L 297.519615 128.489143 
z
" style="fill:#1f77b4;"/>
   </g>
   <g id="patch_151">
    <path clip-path="url(#pd933757b67)" d="M 299.129547 273.312 
L 300.739478 273.312 
L 300.739478 119.102476 
L 299.129547 119.102476 
z
" style="fill:#1f77b4;"/>
   </g>
   <g id="patch_152">
    <path clip-path="url(#pd933757b67)" d="M 300.739478 273.312 
L 302.34941 273.312 
L 302.34941 120.443429 
L 300.739478 120.443429 
z
" style="fill:#1f77b4;"/>
   </g>
   <g id="patch_153">
    <path clip-path="url(#pd933757b67)" d="M 302.34941 273.312 
L 303.959341 273.312 
L 303.959341 125.136762 
L 302.34941 125.136762 
z
" style="fill:#1f77b4;"/>
   </g>
   <g id="patch_154">
    <path clip-path="url(#pd933757b67)" d="M 303.959341 273.312 
L 305.569273 273.312 
L 305.569273 125.807238 
L 303.959341 125.807238 
z
" style="fill:#1f77b4;"/>
   </g>
   <g id="patch_155">
    <path clip-path="url(#pd933757b67)" d="M 305.569273 273.312 
L 307.179204 273.312 
L 307.179204 112.397714 
L 305.569273 112.397714 
z
" style="fill:#1f77b4;"/>
   </g>
   <g id="patch_156">
    <path clip-path="url(#pd933757b67)" d="M 307.179204 273.312 
L 308.789136 273.312 
L 308.789136 135.193905 
L 307.179204 135.193905 
z
" style="fill:#1f77b4;"/>
   </g>
   <g id="patch_157">
    <path clip-path="url(#pd933757b67)" d="M 308.789136 273.312 
L 310.399067 273.312 
L 310.399067 147.932952 
L 308.789136 147.932952 
z
" style="fill:#1f77b4;"/>
   </g>
   <g id="patch_158">
    <path clip-path="url(#pd933757b67)" d="M 310.399067 273.312 
L 312.008999 273.312 
L 312.008999 145.251048 
L 310.399067 145.251048 
z
" style="fill:#1f77b4;"/>
   </g>
   <g id="patch_159">
    <path clip-path="url(#pd933757b67)" d="M 312.008999 273.312 
L 313.61893 273.312 
L 313.61893 139.216762 
L 312.008999 139.216762 
z
" style="fill:#1f77b4;"/>
   </g>
   <g id="patch_160">
    <path clip-path="url(#pd933757b67)" d="M 313.61893 273.312 
L 315.228862 273.312 
L 315.228862 129.159619 
L 313.61893 129.159619 
z
" style="fill:#1f77b4;"/>
   </g>
   <g id="patch_161">
    <path clip-path="url(#pd933757b67)" d="M 315.228862 273.312 
L 316.838793 273.312 
L 316.838793 162.683429 
L 315.228862 162.683429 
z
" style="fill:#1f77b4;"/>
   </g>
   <g id="patch_162">
    <path clip-path="url(#pd933757b67)" d="M 316.838793 273.312 
L 318.448725 273.312 
L 318.448725 143.239619 
L 316.838793 143.239619 
z
" style="fill:#1f77b4;"/>
   </g>
   <g id="patch_163">
    <path clip-path="url(#pd933757b67)" d="M 318.448725 273.312 
L 320.058656 273.312 
L 320.058656 145.921524 
L 318.448725 145.921524 
z
" style="fill:#1f77b4;"/>
   </g>
   <g id="patch_164">
    <path clip-path="url(#pd933757b67)" d="M 320.058656 273.312 
L 321.668588 273.312 
L 321.668588 160.672 
L 320.058656 160.672 
z
" style="fill:#1f77b4;"/>
   </g>
   <g id="patch_165">
    <path clip-path="url(#pd933757b67)" d="M 321.668588 273.312 
L 323.27852 273.312 
L 323.27852 157.990095 
L 321.668588 157.990095 
z
" style="fill:#1f77b4;"/>
   </g>
   <g id="patch_166">
    <path clip-path="url(#pd933757b67)" d="M 323.27852 273.312 
L 324.888451 273.312 
L 324.888451 149.273905 
L 323.27852 149.273905 
z
" style="fill:#1f77b4;"/>
   </g>
   <g id="patch_167">
    <path clip-path="url(#pd933757b67)" d="M 324.888451 273.312 
L 326.498383 273.312 
L 326.498383 175.422476 
L 324.888451 175.422476 
z
" style="fill:#1f77b4;"/>
   </g>
   <g id="patch_168">
    <path clip-path="url(#pd933757b67)" d="M 326.498383 273.312 
L 328.108314 273.312 
L 328.108314 156.649143 
L 326.498383 156.649143 
z
" style="fill:#1f77b4;"/>
   </g>
   <g id="patch_169">
    <path clip-path="url(#pd933757b67)" d="M 328.108314 273.312 
L 329.718246 273.312 
L 329.718246 160.672 
L 328.108314 160.672 
z
" style="fill:#1f77b4;"/>
   </g>
   <g id="patch_170">
    <path clip-path="url(#pd933757b67)" d="M 329.718246 273.312 
L 331.328177 273.312 
L 331.328177 160.001524 
L 329.718246 160.001524 
z
" style="fill:#1f77b4;"/>
   </g>
   <g id="patch_171">
    <path clip-path="url(#pd933757b67)" d="M 331.328177 273.312 
L 332.938109 273.312 
L 332.938109 164.694857 
L 331.328177 164.694857 
z
" style="fill:#1f77b4;"/>
   </g>
   <g id="patch_172">
    <path clip-path="url(#pd933757b67)" d="M 332.938109 273.312 
L 334.54804 273.312 
L 334.54804 182.127238 
L 332.938109 182.127238 
z
" style="fill:#1f77b4;"/>
   </g>
   <g id="patch_173">
    <path clip-path="url(#pd933757b67)" d="M 334.54804 273.312 
L 336.157972 273.312 
L 336.157972 178.104381 
L 334.54804 178.104381 
z
" style="fill:#1f77b4;"/>
   </g>
   <g id="patch_174">
    <path clip-path="url(#pd933757b67)" d="M 336.157972 273.312 
L 337.767903 273.312 
L 337.767903 178.774857 
L 336.157972 178.774857 
z
" style="fill:#1f77b4;"/>
   </g>
   <g id="patch_175">
    <path clip-path="url(#pd933757b67)" d="M 337.767903 273.312 
L 339.377835 273.312 
L 339.377835 193.525333 
L 337.767903 193.525333 
z
" style="fill:#1f77b4;"/>
   </g>
   <g id="patch_176">
    <path clip-path="url(#pd933757b67)" d="M 339.377835 273.312 
L 340.987766 273.312 
L 340.987766 188.161524 
L 339.377835 188.161524 
z
" style="fill:#1f77b4;"/>
   </g>
   <g id="patch_177">
    <path clip-path="url(#pd933757b67)" d="M 340.987766 273.312 
L 342.597698 273.312 
L 342.597698 184.138667 
L 340.987766 184.138667 
z
" style="fill:#1f77b4;"/>
   </g>
   <g id="patch_178">
    <path clip-path="url(#pd933757b67)" d="M 342.597698 273.312 
L 344.207629 273.312 
L 344.207629 187.491048 
L 342.597698 187.491048 
z
" style="fill:#1f77b4;"/>
   </g>
   <g id="patch_179">
    <path clip-path="url(#pd933757b67)" d="M 344.207629 273.312 
L 345.817561 273.312 
L 345.817561 190.843429 
L 344.207629 190.843429 
z
" style="fill:#1f77b4;"/>
   </g>
   <g id="patch_180">
    <path clip-path="url(#pd933757b67)" d="M 345.817561 273.312 
L 347.427492 273.312 
L 347.427492 210.957714 
L 345.817561 210.957714 
z
" style="fill:#1f77b4;"/>
   </g>
   <g id="patch_181">
    <path clip-path="url(#pd933757b67)" d="M 347.427492 273.312 
L 349.037424 273.312 
L 349.037424 198.218667 
L 347.427492 198.218667 
z
" style="fill:#1f77b4;"/>
   </g>
   <g id="patch_182">
    <path clip-path="url(#pd933757b67)" d="M 349.037424 273.312 
L 350.647355 273.312 
L 350.647355 200.230095 
L 349.037424 200.230095 
z
" style="fill:#1f77b4;"/>
   </g>
   <g id="patch_183">
    <path clip-path="url(#pd933757b67)" d="M 350.647355 273.312 
L 352.257287 273.312 
L 352.257287 206.934857 
L 350.647355 206.934857 
z
" style="fill:#1f77b4;"/>
   </g>
   <g id="patch_184">
    <path clip-path="url(#pd933757b67)" d="M 352.257287 273.312 
L 353.867218 273.312 
L 353.867218 208.27581 
L 352.257287 208.27581 
z
" style="fill:#1f77b4;"/>
   </g>
   <g id="patch_185">
    <path clip-path="url(#pd933757b67)" d="M 353.867218 273.312 
L 355.47715 273.312 
L 355.47715 210.957714 
L 353.867218 210.957714 
z
" style="fill:#1f77b4;"/>
   </g>
   <g id="patch_186">
    <path clip-path="url(#pd933757b67)" d="M 355.47715 273.312 
L 357.087081 273.312 
L 357.087081 212.969143 
L 355.47715 212.969143 
z
" style="fill:#1f77b4;"/>
   </g>
   <g id="patch_187">
    <path clip-path="url(#pd933757b67)" d="M 357.087081 273.312 
L 358.697013 273.312 
L 358.697013 215.651048 
L 357.087081 215.651048 
z
" style="fill:#1f77b4;"/>
   </g>
   <g id="patch_188">
    <path clip-path="url(#pd933757b67)" d="M 358.697013 273.312 
L 360.306944 273.312 
L 360.306944 219.003429 
L 358.697013 219.003429 
z
" style="fill:#1f77b4;"/>
   </g>
   <g id="patch_189">
    <path clip-path="url(#pd933757b67)" d="M 360.306944 273.312 
L 361.916876 273.312 
L 361.916876 233.753905 
L 360.306944 233.753905 
z
" style="fill:#1f77b4;"/>
   </g>
   <g id="patch_190">
    <path clip-path="url(#pd933757b67)" d="M 361.916876 273.312 
L 363.526807 273.312 
L 363.526807 229.060571 
L 361.916876 229.060571 
z
" style="fill:#1f77b4;"/>
   </g>
   <g id="patch_191">
    <path clip-path="url(#pd933757b67)" d="M 363.526807 273.312 
L 365.136739 273.312 
L 365.136739 230.401524 
L 363.526807 230.401524 
z
" style="fill:#1f77b4;"/>
   </g>
   <g id="patch_192">
    <path clip-path="url(#pd933757b67)" d="M 365.136739 273.312 
L 366.74667 273.312 
L 366.74667 233.083429 
L 365.136739 233.083429 
z
" style="fill:#1f77b4;"/>
   </g>
   <g id="patch_193">
    <path clip-path="url(#pd933757b67)" d="M 366.74667 273.312 
L 368.356602 273.312 
L 368.356602 240.458667 
L 366.74667 240.458667 
z
" style="fill:#1f77b4;"/>
   </g>
   <g id="patch_194">
    <path clip-path="url(#pd933757b67)" d="M 368.356602 273.312 
L 369.966533 273.312 
L 369.966533 237.776762 
L 368.356602 237.776762 
z
" style="fill:#1f77b4;"/>
   </g>
   <g id="patch_195">
    <path clip-path="url(#pd933757b67)" d="M 369.966533 273.312 
L 371.576465 273.312 
L 371.576465 243.140571 
L 369.966533 243.140571 
z
" style="fill:#1f77b4;"/>
   </g>
   <g id="patch_196">
    <path clip-path="url(#pd933757b67)" d="M 371.576465 273.312 
L 373.186396 273.312 
L 373.186396 245.152 
L 371.576465 245.152 
z
" style="fill:#1f77b4;"/>
   </g>
   <g id="patch_197">
    <path clip-path="url(#pd933757b67)" d="M 373.186396 273.312 
L 374.796328 273.312 
L 374.796328 245.822476 
L 373.186396 245.822476 
z
" style="fill:#1f77b4;"/>
   </g>
   <g id="patch_198">
    <path clip-path="url(#pd933757b67)" d="M 374.796328 273.312 
L 376.406259 273.312 
L 376.406259 259.902476 
L 374.796328 259.902476 
z
" style="fill:#1f77b4;"/>
   </g>
   <g id="patch_199">
    <path clip-path="url(#pd933757b67)" d="M 376.406259 273.312 
L 378.016191 273.312 
L 378.016191 258.561524 
L 376.406259 258.561524 
z
" style="fill:#1f77b4;"/>
   </g>
   <g id="patch_200">
    <path clip-path="url(#pd933757b67)" d="M 378.016191 273.312 
L 379.626123 273.312 
L 379.626123 265.266286 
L 378.016191 265.266286 
z
" style="fill:#1f77b4;"/>
   </g>
   <g id="patch_201">
    <path clip-path="url(#pd933757b67)" d="M 379.626123 273.312 
L 381.236054 273.312 
L 381.236054 263.254857 
L 379.626123 263.254857 
z
" style="fill:#1f77b4;"/>
   </g>
   <g id="patch_202">
    <path clip-path="url(#pd933757b67)" d="M 381.236054 273.312 
L 382.845986 273.312 
L 382.845986 263.254857 
L 381.236054 263.254857 
z
" style="fill:#1f77b4;"/>
   </g>
   <g id="matplotlib.axis_1">
    <g id="xtick_1">
     <g id="line2d_1">
      <defs>
       <path d="M 0 0 
L 0 3.5 
" id="m966d7f8d9e" style="stroke:#000000;stroke-width:0.8;"/>
      </defs>
      <g>
       <use style="stroke:#000000;stroke-width:0.8;" x="60.013977" xlink:href="#m966d7f8d9e" y="273.312"/>
      </g>
     </g>
     <g id="text_1">
      <!-- 0.0 -->
      <g transform="translate(52.062415 287.910437)scale(0.1 -0.1)">
       <defs>
        <path d="M 2034 4250 
Q 1547 4250 1301 3770 
Q 1056 3291 1056 2328 
Q 1056 1369 1301 889 
Q 1547 409 2034 409 
Q 2525 409 2770 889 
Q 3016 1369 3016 2328 
Q 3016 3291 2770 3770 
Q 2525 4250 2034 4250 
z
M 2034 4750 
Q 2819 4750 3233 4129 
Q 3647 3509 3647 2328 
Q 3647 1150 3233 529 
Q 2819 -91 2034 -91 
Q 1250 -91 836 529 
Q 422 1150 422 2328 
Q 422 3509 836 4129 
Q 1250 4750 2034 4750 
z
" id="DejaVuSans-30" transform="scale(0.015625)"/>
        <path d="M 684 794 
L 1344 794 
L 1344 0 
L 684 0 
L 684 794 
z
" id="DejaVuSans-2e" transform="scale(0.015625)"/>
       </defs>
       <use xlink:href="#DejaVuSans-30"/>
       <use x="63.623047" xlink:href="#DejaVuSans-2e"/>
       <use x="95.410156" xlink:href="#DejaVuSans-30"/>
      </g>
     </g>
    </g>
    <g id="xtick_2">
     <g id="line2d_2">
      <g>
       <use style="stroke:#000000;stroke-width:0.8;" x="101.350278" xlink:href="#m966d7f8d9e" y="273.312"/>
      </g>
     </g>
     <g id="text_2">
      <!-- 0.2 -->
      <g transform="translate(93.398715 287.910437)scale(0.1 -0.1)">
       <defs>
        <path d="M 1228 531 
L 3431 531 
L 3431 0 
L 469 0 
L 469 531 
Q 828 903 1448 1529 
Q 2069 2156 2228 2338 
Q 2531 2678 2651 2914 
Q 2772 3150 2772 3378 
Q 2772 3750 2511 3984 
Q 2250 4219 1831 4219 
Q 1534 4219 1204 4116 
Q 875 4013 500 3803 
L 500 4441 
Q 881 4594 1212 4672 
Q 1544 4750 1819 4750 
Q 2544 4750 2975 4387 
Q 3406 4025 3406 3419 
Q 3406 3131 3298 2873 
Q 3191 2616 2906 2266 
Q 2828 2175 2409 1742 
Q 1991 1309 1228 531 
z
" id="DejaVuSans-32" transform="scale(0.015625)"/>
       </defs>
       <use xlink:href="#DejaVuSans-30"/>
       <use x="63.623047" xlink:href="#DejaVuSans-2e"/>
       <use x="95.410156" xlink:href="#DejaVuSans-32"/>
      </g>
     </g>
    </g>
    <g id="xtick_3">
     <g id="line2d_3">
      <g>
       <use style="stroke:#000000;stroke-width:0.8;" x="142.686578" xlink:href="#m966d7f8d9e" y="273.312"/>
      </g>
     </g>
     <g id="text_3">
      <!-- 0.4 -->
      <g transform="translate(134.735016 287.910437)scale(0.1 -0.1)">
       <defs>
        <path d="M 2419 4116 
L 825 1625 
L 2419 1625 
L 2419 4116 
z
M 2253 4666 
L 3047 4666 
L 3047 1625 
L 3713 1625 
L 3713 1100 
L 3047 1100 
L 3047 0 
L 2419 0 
L 2419 1100 
L 313 1100 
L 313 1709 
L 2253 4666 
z
" id="DejaVuSans-34" transform="scale(0.015625)"/>
       </defs>
       <use xlink:href="#DejaVuSans-30"/>
       <use x="63.623047" xlink:href="#DejaVuSans-2e"/>
       <use x="95.410156" xlink:href="#DejaVuSans-34"/>
      </g>
     </g>
    </g>
    <g id="xtick_4">
     <g id="line2d_4">
      <g>
       <use style="stroke:#000000;stroke-width:0.8;" x="184.022879" xlink:href="#m966d7f8d9e" y="273.312"/>
      </g>
     </g>
     <g id="text_4">
      <!-- 0.6 -->
      <g transform="translate(176.071316 287.910437)scale(0.1 -0.1)">
       <defs>
        <path d="M 2113 2584 
Q 1688 2584 1439 2293 
Q 1191 2003 1191 1497 
Q 1191 994 1439 701 
Q 1688 409 2113 409 
Q 2538 409 2786 701 
Q 3034 994 3034 1497 
Q 3034 2003 2786 2293 
Q 2538 2584 2113 2584 
z
M 3366 4563 
L 3366 3988 
Q 3128 4100 2886 4159 
Q 2644 4219 2406 4219 
Q 1781 4219 1451 3797 
Q 1122 3375 1075 2522 
Q 1259 2794 1537 2939 
Q 1816 3084 2150 3084 
Q 2853 3084 3261 2657 
Q 3669 2231 3669 1497 
Q 3669 778 3244 343 
Q 2819 -91 2113 -91 
Q 1303 -91 875 529 
Q 447 1150 447 2328 
Q 447 3434 972 4092 
Q 1497 4750 2381 4750 
Q 2619 4750 2861 4703 
Q 3103 4656 3366 4563 
z
" id="DejaVuSans-36" transform="scale(0.015625)"/>
       </defs>
       <use xlink:href="#DejaVuSans-30"/>
       <use x="63.623047" xlink:href="#DejaVuSans-2e"/>
       <use x="95.410156" xlink:href="#DejaVuSans-36"/>
      </g>
     </g>
    </g>
    <g id="xtick_5">
     <g id="line2d_5">
      <g>
       <use style="stroke:#000000;stroke-width:0.8;" x="225.35918" xlink:href="#m966d7f8d9e" y="273.312"/>
      </g>
     </g>
     <g id="text_5">
      <!-- 0.8 -->
      <g transform="translate(217.407617 287.910437)scale(0.1 -0.1)">
       <defs>
        <path d="M 2034 2216 
Q 1584 2216 1326 1975 
Q 1069 1734 1069 1313 
Q 1069 891 1326 650 
Q 1584 409 2034 409 
Q 2484 409 2743 651 
Q 3003 894 3003 1313 
Q 3003 1734 2745 1975 
Q 2488 2216 2034 2216 
z
M 1403 2484 
Q 997 2584 770 2862 
Q 544 3141 544 3541 
Q 544 4100 942 4425 
Q 1341 4750 2034 4750 
Q 2731 4750 3128 4425 
Q 3525 4100 3525 3541 
Q 3525 3141 3298 2862 
Q 3072 2584 2669 2484 
Q 3125 2378 3379 2068 
Q 3634 1759 3634 1313 
Q 3634 634 3220 271 
Q 2806 -91 2034 -91 
Q 1263 -91 848 271 
Q 434 634 434 1313 
Q 434 1759 690 2068 
Q 947 2378 1403 2484 
z
M 1172 3481 
Q 1172 3119 1398 2916 
Q 1625 2713 2034 2713 
Q 2441 2713 2670 2916 
Q 2900 3119 2900 3481 
Q 2900 3844 2670 4047 
Q 2441 4250 2034 4250 
Q 1625 4250 1398 4047 
Q 1172 3844 1172 3481 
z
" id="DejaVuSans-38" transform="scale(0.015625)"/>
       </defs>
       <use xlink:href="#DejaVuSans-30"/>
       <use x="63.623047" xlink:href="#DejaVuSans-2e"/>
       <use x="95.410156" xlink:href="#DejaVuSans-38"/>
      </g>
     </g>
    </g>
    <g id="xtick_6">
     <g id="line2d_6">
      <g>
       <use style="stroke:#000000;stroke-width:0.8;" x="266.69548" xlink:href="#m966d7f8d9e" y="273.312"/>
      </g>
     </g>
     <g id="text_6">
      <!-- 1.0 -->
      <g transform="translate(258.743918 287.910437)scale(0.1 -0.1)">
       <defs>
        <path d="M 794 531 
L 1825 531 
L 1825 4091 
L 703 3866 
L 703 4441 
L 1819 4666 
L 2450 4666 
L 2450 531 
L 3481 531 
L 3481 0 
L 794 0 
L 794 531 
z
" id="DejaVuSans-31" transform="scale(0.015625)"/>
       </defs>
       <use xlink:href="#DejaVuSans-31"/>
       <use x="63.623047" xlink:href="#DejaVuSans-2e"/>
       <use x="95.410156" xlink:href="#DejaVuSans-30"/>
      </g>
     </g>
    </g>
    <g id="xtick_7">
     <g id="line2d_7">
      <g>
       <use style="stroke:#000000;stroke-width:0.8;" x="308.031781" xlink:href="#m966d7f8d9e" y="273.312"/>
      </g>
     </g>
     <g id="text_7">
      <!-- 1.2 -->
      <g transform="translate(300.080218 287.910437)scale(0.1 -0.1)">
       <use xlink:href="#DejaVuSans-31"/>
       <use x="63.623047" xlink:href="#DejaVuSans-2e"/>
       <use x="95.410156" xlink:href="#DejaVuSans-32"/>
      </g>
     </g>
    </g>
    <g id="xtick_8">
     <g id="line2d_8">
      <g>
       <use style="stroke:#000000;stroke-width:0.8;" x="349.368081" xlink:href="#m966d7f8d9e" y="273.312"/>
      </g>
     </g>
     <g id="text_8">
      <!-- 1.4 -->
      <g transform="translate(341.416519 287.910437)scale(0.1 -0.1)">
       <use xlink:href="#DejaVuSans-31"/>
       <use x="63.623047" xlink:href="#DejaVuSans-2e"/>
       <use x="95.410156" xlink:href="#DejaVuSans-34"/>
      </g>
     </g>
    </g>
    <g id="xtick_9">
     <g id="line2d_9">
      <g>
       <use style="stroke:#000000;stroke-width:0.8;" x="390.704382" xlink:href="#m966d7f8d9e" y="273.312"/>
      </g>
     </g>
     <g id="text_9">
      <!-- 1.6 -->
      <g transform="translate(382.752819 287.910437)scale(0.1 -0.1)">
       <use xlink:href="#DejaVuSans-31"/>
       <use x="63.623047" xlink:href="#DejaVuSans-2e"/>
       <use x="95.410156" xlink:href="#DejaVuSans-36"/>
      </g>
     </g>
    </g>
    <g id="text_10">
     <!-- Angle with normal (rad) -->
     <g transform="translate(163.023281 301.588562)scale(0.1 -0.1)">
      <defs>
       <path d="M 2188 4044 
L 1331 1722 
L 3047 1722 
L 2188 4044 
z
M 1831 4666 
L 2547 4666 
L 4325 0 
L 3669 0 
L 3244 1197 
L 1141 1197 
L 716 0 
L 50 0 
L 1831 4666 
z
" id="DejaVuSans-41" transform="scale(0.015625)"/>
       <path d="M 3513 2113 
L 3513 0 
L 2938 0 
L 2938 2094 
Q 2938 2591 2744 2837 
Q 2550 3084 2163 3084 
Q 1697 3084 1428 2787 
Q 1159 2491 1159 1978 
L 1159 0 
L 581 0 
L 581 3500 
L 1159 3500 
L 1159 2956 
Q 1366 3272 1645 3428 
Q 1925 3584 2291 3584 
Q 2894 3584 3203 3211 
Q 3513 2838 3513 2113 
z
" id="DejaVuSans-6e" transform="scale(0.015625)"/>
       <path d="M 2906 1791 
Q 2906 2416 2648 2759 
Q 2391 3103 1925 3103 
Q 1463 3103 1205 2759 
Q 947 2416 947 1791 
Q 947 1169 1205 825 
Q 1463 481 1925 481 
Q 2391 481 2648 825 
Q 2906 1169 2906 1791 
z
M 3481 434 
Q 3481 -459 3084 -895 
Q 2688 -1331 1869 -1331 
Q 1566 -1331 1297 -1286 
Q 1028 -1241 775 -1147 
L 775 -588 
Q 1028 -725 1275 -790 
Q 1522 -856 1778 -856 
Q 2344 -856 2625 -561 
Q 2906 -266 2906 331 
L 2906 616 
Q 2728 306 2450 153 
Q 2172 0 1784 0 
Q 1141 0 747 490 
Q 353 981 353 1791 
Q 353 2603 747 3093 
Q 1141 3584 1784 3584 
Q 2172 3584 2450 3431 
Q 2728 3278 2906 2969 
L 2906 3500 
L 3481 3500 
L 3481 434 
z
" id="DejaVuSans-67" transform="scale(0.015625)"/>
       <path d="M 603 4863 
L 1178 4863 
L 1178 0 
L 603 0 
L 603 4863 
z
" id="DejaVuSans-6c" transform="scale(0.015625)"/>
       <path d="M 3597 1894 
L 3597 1613 
L 953 1613 
Q 991 1019 1311 708 
Q 1631 397 2203 397 
Q 2534 397 2845 478 
Q 3156 559 3463 722 
L 3463 178 
Q 3153 47 2828 -22 
Q 2503 -91 2169 -91 
Q 1331 -91 842 396 
Q 353 884 353 1716 
Q 353 2575 817 3079 
Q 1281 3584 2069 3584 
Q 2775 3584 3186 3129 
Q 3597 2675 3597 1894 
z
M 3022 2063 
Q 3016 2534 2758 2815 
Q 2500 3097 2075 3097 
Q 1594 3097 1305 2825 
Q 1016 2553 972 2059 
L 3022 2063 
z
" id="DejaVuSans-65" transform="scale(0.015625)"/>
       <path id="DejaVuSans-20" transform="scale(0.015625)"/>
       <path d="M 269 3500 
L 844 3500 
L 1563 769 
L 2278 3500 
L 2956 3500 
L 3675 769 
L 4391 3500 
L 4966 3500 
L 4050 0 
L 3372 0 
L 2619 2869 
L 1863 0 
L 1184 0 
L 269 3500 
z
" id="DejaVuSans-77" transform="scale(0.015625)"/>
       <path d="M 603 3500 
L 1178 3500 
L 1178 0 
L 603 0 
L 603 3500 
z
M 603 4863 
L 1178 4863 
L 1178 4134 
L 603 4134 
L 603 4863 
z
" id="DejaVuSans-69" transform="scale(0.015625)"/>
       <path d="M 1172 4494 
L 1172 3500 
L 2356 3500 
L 2356 3053 
L 1172 3053 
L 1172 1153 
Q 1172 725 1289 603 
Q 1406 481 1766 481 
L 2356 481 
L 2356 0 
L 1766 0 
Q 1100 0 847 248 
Q 594 497 594 1153 
L 594 3053 
L 172 3053 
L 172 3500 
L 594 3500 
L 594 4494 
L 1172 4494 
z
" id="DejaVuSans-74" transform="scale(0.015625)"/>
       <path d="M 3513 2113 
L 3513 0 
L 2938 0 
L 2938 2094 
Q 2938 2591 2744 2837 
Q 2550 3084 2163 3084 
Q 1697 3084 1428 2787 
Q 1159 2491 1159 1978 
L 1159 0 
L 581 0 
L 581 4863 
L 1159 4863 
L 1159 2956 
Q 1366 3272 1645 3428 
Q 1925 3584 2291 3584 
Q 2894 3584 3203 3211 
Q 3513 2838 3513 2113 
z
" id="DejaVuSans-68" transform="scale(0.015625)"/>
       <path d="M 1959 3097 
Q 1497 3097 1228 2736 
Q 959 2375 959 1747 
Q 959 1119 1226 758 
Q 1494 397 1959 397 
Q 2419 397 2687 759 
Q 2956 1122 2956 1747 
Q 2956 2369 2687 2733 
Q 2419 3097 1959 3097 
z
M 1959 3584 
Q 2709 3584 3137 3096 
Q 3566 2609 3566 1747 
Q 3566 888 3137 398 
Q 2709 -91 1959 -91 
Q 1206 -91 779 398 
Q 353 888 353 1747 
Q 353 2609 779 3096 
Q 1206 3584 1959 3584 
z
" id="DejaVuSans-6f" transform="scale(0.015625)"/>
       <path d="M 2631 2963 
Q 2534 3019 2420 3045 
Q 2306 3072 2169 3072 
Q 1681 3072 1420 2755 
Q 1159 2438 1159 1844 
L 1159 0 
L 581 0 
L 581 3500 
L 1159 3500 
L 1159 2956 
Q 1341 3275 1631 3429 
Q 1922 3584 2338 3584 
Q 2397 3584 2469 3576 
Q 2541 3569 2628 3553 
L 2631 2963 
z
" id="DejaVuSans-72" transform="scale(0.015625)"/>
       <path d="M 3328 2828 
Q 3544 3216 3844 3400 
Q 4144 3584 4550 3584 
Q 5097 3584 5394 3201 
Q 5691 2819 5691 2113 
L 5691 0 
L 5113 0 
L 5113 2094 
Q 5113 2597 4934 2840 
Q 4756 3084 4391 3084 
Q 3944 3084 3684 2787 
Q 3425 2491 3425 1978 
L 3425 0 
L 2847 0 
L 2847 2094 
Q 2847 2600 2669 2842 
Q 2491 3084 2119 3084 
Q 1678 3084 1418 2786 
Q 1159 2488 1159 1978 
L 1159 0 
L 581 0 
L 581 3500 
L 1159 3500 
L 1159 2956 
Q 1356 3278 1631 3431 
Q 1906 3584 2284 3584 
Q 2666 3584 2933 3390 
Q 3200 3197 3328 2828 
z
" id="DejaVuSans-6d" transform="scale(0.015625)"/>
       <path d="M 2194 1759 
Q 1497 1759 1228 1600 
Q 959 1441 959 1056 
Q 959 750 1161 570 
Q 1363 391 1709 391 
Q 2188 391 2477 730 
Q 2766 1069 2766 1631 
L 2766 1759 
L 2194 1759 
z
M 3341 1997 
L 3341 0 
L 2766 0 
L 2766 531 
Q 2569 213 2275 61 
Q 1981 -91 1556 -91 
Q 1019 -91 701 211 
Q 384 513 384 1019 
Q 384 1609 779 1909 
Q 1175 2209 1959 2209 
L 2766 2209 
L 2766 2266 
Q 2766 2663 2505 2880 
Q 2244 3097 1772 3097 
Q 1472 3097 1187 3025 
Q 903 2953 641 2809 
L 641 3341 
Q 956 3463 1253 3523 
Q 1550 3584 1831 3584 
Q 2591 3584 2966 3190 
Q 3341 2797 3341 1997 
z
" id="DejaVuSans-61" transform="scale(0.015625)"/>
       <path d="M 1984 4856 
Q 1566 4138 1362 3434 
Q 1159 2731 1159 2009 
Q 1159 1288 1364 580 
Q 1569 -128 1984 -844 
L 1484 -844 
Q 1016 -109 783 600 
Q 550 1309 550 2009 
Q 550 2706 781 3412 
Q 1013 4119 1484 4856 
L 1984 4856 
z
" id="DejaVuSans-28" transform="scale(0.015625)"/>
       <path d="M 2906 2969 
L 2906 4863 
L 3481 4863 
L 3481 0 
L 2906 0 
L 2906 525 
Q 2725 213 2448 61 
Q 2172 -91 1784 -91 
Q 1150 -91 751 415 
Q 353 922 353 1747 
Q 353 2572 751 3078 
Q 1150 3584 1784 3584 
Q 2172 3584 2448 3432 
Q 2725 3281 2906 2969 
z
M 947 1747 
Q 947 1113 1208 752 
Q 1469 391 1925 391 
Q 2381 391 2643 752 
Q 2906 1113 2906 1747 
Q 2906 2381 2643 2742 
Q 2381 3103 1925 3103 
Q 1469 3103 1208 2742 
Q 947 2381 947 1747 
z
" id="DejaVuSans-64" transform="scale(0.015625)"/>
       <path d="M 513 4856 
L 1013 4856 
Q 1481 4119 1714 3412 
Q 1947 2706 1947 2009 
Q 1947 1309 1714 600 
Q 1481 -109 1013 -844 
L 513 -844 
Q 928 -128 1133 580 
Q 1338 1288 1338 2009 
Q 1338 2731 1133 3434 
Q 928 4138 513 4856 
z
" id="DejaVuSans-29" transform="scale(0.015625)"/>
      </defs>
      <use xlink:href="#DejaVuSans-41"/>
      <use x="68.408203" xlink:href="#DejaVuSans-6e"/>
      <use x="131.787109" xlink:href="#DejaVuSans-67"/>
      <use x="195.263672" xlink:href="#DejaVuSans-6c"/>
      <use x="223.046875" xlink:href="#DejaVuSans-65"/>
      <use x="284.570312" xlink:href="#DejaVuSans-20"/>
      <use x="316.357422" xlink:href="#DejaVuSans-77"/>
      <use x="398.144531" xlink:href="#DejaVuSans-69"/>
      <use x="425.927734" xlink:href="#DejaVuSans-74"/>
      <use x="465.136719" xlink:href="#DejaVuSans-68"/>
      <use x="528.515625" xlink:href="#DejaVuSans-20"/>
      <use x="560.302734" xlink:href="#DejaVuSans-6e"/>
      <use x="623.681641" xlink:href="#DejaVuSans-6f"/>
      <use x="684.863281" xlink:href="#DejaVuSans-72"/>
      <use x="724.226562" xlink:href="#DejaVuSans-6d"/>
      <use x="821.638672" xlink:href="#DejaVuSans-61"/>
      <use x="882.917969" xlink:href="#DejaVuSans-6c"/>
      <use x="910.701172" xlink:href="#DejaVuSans-20"/>
      <use x="942.488281" xlink:href="#DejaVuSans-28"/>
      <use x="981.501953" xlink:href="#DejaVuSans-72"/>
      <use x="1022.615234" xlink:href="#DejaVuSans-61"/>
      <use x="1083.894531" xlink:href="#DejaVuSans-64"/>
      <use x="1147.371094" xlink:href="#DejaVuSans-29"/>
     </g>
    </g>
   </g>
   <g id="matplotlib.axis_2">
    <g id="ytick_1">
     <g id="line2d_10">
      <defs>
       <path d="M 0 0 
L -3.5 0 
" id="m4217fcdb50" style="stroke:#000000;stroke-width:0.8;"/>
      </defs>
      <g>
       <use style="stroke:#000000;stroke-width:0.8;" x="43.78125" xlink:href="#m4217fcdb50" y="273.312"/>
      </g>
     </g>
     <g id="text_11">
      <!-- 0.0 -->
      <g transform="translate(20.878125 277.111219)scale(0.1 -0.1)">
       <use xlink:href="#DejaVuSans-30"/>
       <use x="63.623047" xlink:href="#DejaVuSans-2e"/>
       <use x="95.410156" xlink:href="#DejaVuSans-30"/>
      </g>
     </g>
    </g>
    <g id="ytick_2">
     <g id="line2d_11">
      <g>
       <use style="stroke:#000000;stroke-width:0.8;" x="43.78125" xlink:href="#m4217fcdb50" y="231.53097"/>
      </g>
     </g>
     <g id="text_12">
      <!-- 0.2 -->
      <g transform="translate(20.878125 235.330189)scale(0.1 -0.1)">
       <use xlink:href="#DejaVuSans-30"/>
       <use x="63.623047" xlink:href="#DejaVuSans-2e"/>
       <use x="95.410156" xlink:href="#DejaVuSans-32"/>
      </g>
     </g>
    </g>
    <g id="ytick_3">
     <g id="line2d_12">
      <g>
       <use style="stroke:#000000;stroke-width:0.8;" x="43.78125" xlink:href="#m4217fcdb50" y="189.749941"/>
      </g>
     </g>
     <g id="text_13">
      <!-- 0.4 -->
      <g transform="translate(20.878125 193.54916)scale(0.1 -0.1)">
       <use xlink:href="#DejaVuSans-30"/>
       <use x="63.623047" xlink:href="#DejaVuSans-2e"/>
       <use x="95.410156" xlink:href="#DejaVuSans-34"/>
      </g>
     </g>
    </g>
    <g id="ytick_4">
     <g id="line2d_13">
      <g>
       <use style="stroke:#000000;stroke-width:0.8;" x="43.78125" xlink:href="#m4217fcdb50" y="147.968911"/>
      </g>
     </g>
     <g id="text_14">
      <!-- 0.6 -->
      <g transform="translate(20.878125 151.76813)scale(0.1 -0.1)">
       <use xlink:href="#DejaVuSans-30"/>
       <use x="63.623047" xlink:href="#DejaVuSans-2e"/>
       <use x="95.410156" xlink:href="#DejaVuSans-36"/>
      </g>
     </g>
    </g>
    <g id="ytick_5">
     <g id="line2d_14">
      <g>
       <use style="stroke:#000000;stroke-width:0.8;" x="43.78125" xlink:href="#m4217fcdb50" y="106.187882"/>
      </g>
     </g>
     <g id="text_15">
      <!-- 0.8 -->
      <g transform="translate(20.878125 109.9871)scale(0.1 -0.1)">
       <use xlink:href="#DejaVuSans-30"/>
       <use x="63.623047" xlink:href="#DejaVuSans-2e"/>
       <use x="95.410156" xlink:href="#DejaVuSans-38"/>
      </g>
     </g>
    </g>
    <g id="ytick_6">
     <g id="line2d_15">
      <g>
       <use style="stroke:#000000;stroke-width:0.8;" x="43.78125" xlink:href="#m4217fcdb50" y="64.406852"/>
      </g>
     </g>
     <g id="text_16">
      <!-- 1.0 -->
      <g transform="translate(20.878125 68.206071)scale(0.1 -0.1)">
       <use xlink:href="#DejaVuSans-31"/>
       <use x="63.623047" xlink:href="#DejaVuSans-2e"/>
       <use x="95.410156" xlink:href="#DejaVuSans-30"/>
      </g>
     </g>
    </g>
    <g id="ytick_7">
     <g id="line2d_16">
      <g>
       <use style="stroke:#000000;stroke-width:0.8;" x="43.78125" xlink:href="#m4217fcdb50" y="22.625822"/>
      </g>
     </g>
     <g id="text_17">
      <!-- 1.2 -->
      <g transform="translate(20.878125 26.425041)scale(0.1 -0.1)">
       <use xlink:href="#DejaVuSans-31"/>
       <use x="63.623047" xlink:href="#DejaVuSans-2e"/>
       <use x="95.410156" xlink:href="#DejaVuSans-32"/>
      </g>
     </g>
    </g>
    <g id="text_18">
     <!-- Probability density -->
     <g transform="translate(14.798438 186.606781)rotate(-90)scale(0.1 -0.1)">
      <defs>
       <path d="M 1259 4147 
L 1259 2394 
L 2053 2394 
Q 2494 2394 2734 2622 
Q 2975 2850 2975 3272 
Q 2975 3691 2734 3919 
Q 2494 4147 2053 4147 
L 1259 4147 
z
M 628 4666 
L 2053 4666 
Q 2838 4666 3239 4311 
Q 3641 3956 3641 3272 
Q 3641 2581 3239 2228 
Q 2838 1875 2053 1875 
L 1259 1875 
L 1259 0 
L 628 0 
L 628 4666 
z
" id="DejaVuSans-50" transform="scale(0.015625)"/>
       <path d="M 3116 1747 
Q 3116 2381 2855 2742 
Q 2594 3103 2138 3103 
Q 1681 3103 1420 2742 
Q 1159 2381 1159 1747 
Q 1159 1113 1420 752 
Q 1681 391 2138 391 
Q 2594 391 2855 752 
Q 3116 1113 3116 1747 
z
M 1159 2969 
Q 1341 3281 1617 3432 
Q 1894 3584 2278 3584 
Q 2916 3584 3314 3078 
Q 3713 2572 3713 1747 
Q 3713 922 3314 415 
Q 2916 -91 2278 -91 
Q 1894 -91 1617 61 
Q 1341 213 1159 525 
L 1159 0 
L 581 0 
L 581 4863 
L 1159 4863 
L 1159 2969 
z
" id="DejaVuSans-62" transform="scale(0.015625)"/>
       <path d="M 2059 -325 
Q 1816 -950 1584 -1140 
Q 1353 -1331 966 -1331 
L 506 -1331 
L 506 -850 
L 844 -850 
Q 1081 -850 1212 -737 
Q 1344 -625 1503 -206 
L 1606 56 
L 191 3500 
L 800 3500 
L 1894 763 
L 2988 3500 
L 3597 3500 
L 2059 -325 
z
" id="DejaVuSans-79" transform="scale(0.015625)"/>
       <path d="M 2834 3397 
L 2834 2853 
Q 2591 2978 2328 3040 
Q 2066 3103 1784 3103 
Q 1356 3103 1142 2972 
Q 928 2841 928 2578 
Q 928 2378 1081 2264 
Q 1234 2150 1697 2047 
L 1894 2003 
Q 2506 1872 2764 1633 
Q 3022 1394 3022 966 
Q 3022 478 2636 193 
Q 2250 -91 1575 -91 
Q 1294 -91 989 -36 
Q 684 19 347 128 
L 347 722 
Q 666 556 975 473 
Q 1284 391 1588 391 
Q 1994 391 2212 530 
Q 2431 669 2431 922 
Q 2431 1156 2273 1281 
Q 2116 1406 1581 1522 
L 1381 1569 
Q 847 1681 609 1914 
Q 372 2147 372 2553 
Q 372 3047 722 3315 
Q 1072 3584 1716 3584 
Q 2034 3584 2315 3537 
Q 2597 3491 2834 3397 
z
" id="DejaVuSans-73" transform="scale(0.015625)"/>
      </defs>
      <use xlink:href="#DejaVuSans-50"/>
      <use x="58.552734" xlink:href="#DejaVuSans-72"/>
      <use x="97.416016" xlink:href="#DejaVuSans-6f"/>
      <use x="158.597656" xlink:href="#DejaVuSans-62"/>
      <use x="222.074219" xlink:href="#DejaVuSans-61"/>
      <use x="283.353516" xlink:href="#DejaVuSans-62"/>
      <use x="346.830078" xlink:href="#DejaVuSans-69"/>
      <use x="374.613281" xlink:href="#DejaVuSans-6c"/>
      <use x="402.396484" xlink:href="#DejaVuSans-69"/>
      <use x="430.179688" xlink:href="#DejaVuSans-74"/>
      <use x="469.388672" xlink:href="#DejaVuSans-79"/>
      <use x="528.568359" xlink:href="#DejaVuSans-20"/>
      <use x="560.355469" xlink:href="#DejaVuSans-64"/>
      <use x="623.832031" xlink:href="#DejaVuSans-65"/>
      <use x="685.355469" xlink:href="#DejaVuSans-6e"/>
      <use x="748.734375" xlink:href="#DejaVuSans-73"/>
      <use x="800.833984" xlink:href="#DejaVuSans-69"/>
      <use x="828.617188" xlink:href="#DejaVuSans-74"/>
      <use x="867.826172" xlink:href="#DejaVuSans-79"/>
     </g>
    </g>
   </g>
   <g id="line2d_17">
    <path clip-path="url(#pd933757b67)" d="M 60.013977 273.312 
L 79.837728 233.483263 
L 90.562053 212.453969 
L 99.3365 195.725248 
L 107.136008 181.320908 
L 114.285558 168.575087 
L 120.785148 157.421273 
L 126.959759 147.248974 
L 132.809391 138.026513 
L 138.334043 129.713842 
L 143.858695 121.81148 
L 149.058367 114.769017 
L 153.93306 108.530843 
L 158.807753 102.659257 
L 163.357466 97.521389 
L 167.90718 92.724205 
L 172.131913 88.582863 
L 176.356647 84.750218 
L 180.581381 81.232672 
L 184.481135 78.270474 
L 188.38089 75.585995 
L 192.280644 73.183059 
L 195.855419 71.230624 
L 199.430193 69.519978 
L 203.004968 68.053169 
L 206.579743 66.83195 
L 210.154518 65.857784 
L 213.729293 65.131836 
L 216.979088 64.688015 
L 220.228883 64.450493 
L 223.478678 64.419506 
L 226.728474 64.595083 
L 229.978269 64.97705 
L 233.228064 65.565031 
L 236.802839 66.449056 
L 240.377614 67.580591 
L 243.952388 68.958282 
L 247.527163 70.580482 
L 251.101938 72.445248 
L 254.676713 74.550351 
L 258.576467 77.117962 
L 262.476221 79.964934 
L 266.375976 83.087212 
L 270.27573 86.480352 
L 274.500464 90.4563 
L 278.725198 94.737813 
L 283.274911 99.682182 
L 287.824624 104.963046 
L 292.699317 110.982882 
L 297.57401 117.36385 
L 302.773682 124.552256 
L 307.973355 132.117194 
L 313.498007 140.546076 
L 319.347638 149.883728 
L 325.522249 160.168456 
L 332.02184 171.430016 
L 339.171389 184.281303 
L 346.970898 198.784527 
L 355.420365 214.972546 
L 365.494731 234.773845 
L 378.818891 261.493181 
L 384.668523 273.312 
L 384.668523 273.312 
" style="fill:none;stroke:#ff7f0e;stroke-linecap:square;stroke-width:1.5;"/>
   </g>
   <g id="patch_203">
    <path d="M 43.78125 273.312 
L 43.78125 7.2 
" style="fill:none;stroke:#000000;stroke-linecap:square;stroke-linejoin:miter;stroke-width:0.8;"/>
   </g>
   <g id="patch_204">
    <path d="M 400.90125 273.312 
L 400.90125 7.2 
" style="fill:none;stroke:#000000;stroke-linecap:square;stroke-linejoin:miter;stroke-width:0.8;"/>
   </g>
   <g id="patch_205">
    <path d="M 43.78125 273.312 
L 400.90125 273.312 
" style="fill:none;stroke:#000000;stroke-linecap:square;stroke-linejoin:miter;stroke-width:0.8;"/>
   </g>
   <g id="patch_206">
    <path d="M 43.78125 7.2 
L 400.90125 7.2 
" style="fill:none;stroke:#000000;stroke-linecap:square;stroke-linejoin:miter;stroke-width:0.8;"/>
   </g>
  </g>
 </g>
 <defs>
  <clipPath id="pd933757b67">
   <rect height="266.112" width="357.12" x="43.78125" y="7.2"/>
  </clipPath>
 </defs>
</svg>
