<?xml version="1.0" encoding="utf-8" standalone="no"?>
<!DOCTYPE svg PUBLIC "-//W3C//DTD SVG 1.1//EN"
  "http://www.w3.org/Graphics/SVG/1.1/DTD/svg11.dtd">
<svg height="310.86825pt" version="1.1" viewBox="0 0 414.46375 310.86825" width="414.46375pt" xmlns="http://www.w3.org/2000/svg" xmlns:xlink="http://www.w3.org/1999/xlink">
 <metadata>
  <rdf:RDF xmlns:cc="http://creativecommons.org/ns#" xmlns:dc="http://purl.org/dc/elements/1.1/" xmlns:rdf="http://www.w3.org/1999/02/22-rdf-syntax-ns#">
   <cc:Work>
    <dc:type rdf:resource="http://purl.org/dc/dcmitype/StillImage"/>
    <dc:date>2021-07-04T01:28:02.797406</dc:date>
    <dc:format>image/svg+xml</dc:format>
    <dc:creator>
     <cc:Agent>
      <dc:title>Matplotlib v3.4.2, https://matplotlib.org/</dc:title>
     </cc:Agent>
    </dc:creator>
   </cc:Work>
  </rdf:RDF>
 </metadata>
 <defs>
  <style type="text/css">*{stroke-linecap:butt;stroke-linejoin:round;}</style>
 </defs>
 <g id="figure_1">
  <g id="patch_1">
   <path d="M 0 310.86825 
L 414.46375 310.86825 
L 414.46375 0 
L 0 0 
z
" style="fill:#ffffff;"/>
  </g>
  <g id="axes_1">
   <g id="patch_2">
    <path d="M 50.14375 273.312 
L 407.26375 273.312 
L 407.26375 7.2 
L 50.14375 7.2 
z
" style="fill:#ffffff;"/>
   </g>
   <g id="patch_3">
    <path clip-path="url(#pde461a40cc)" d="M 68.523999 273.312 
L 70.136522 273.312 
L 70.136522 271.493053 
L 68.523999 271.493053 
z
" style="fill:#1f77b4;"/>
   </g>
   <g id="patch_4">
    <path clip-path="url(#pde461a40cc)" d="M 70.136522 273.312 
L 71.749046 273.312 
L 71.749046 271.493053 
L 70.136522 271.493053 
z
" style="fill:#1f77b4;"/>
   </g>
   <g id="patch_5">
    <path clip-path="url(#pde461a40cc)" d="M 71.749046 273.312 
L 73.361569 273.312 
L 73.361569 268.461474 
L 71.749046 268.461474 
z
" style="fill:#1f77b4;"/>
   </g>
   <g id="patch_6">
    <path clip-path="url(#pde461a40cc)" d="M 73.361569 273.312 
L 74.974093 273.312 
L 74.974093 267.248842 
L 73.361569 267.248842 
z
" style="fill:#1f77b4;"/>
   </g>
   <g id="patch_7">
    <path clip-path="url(#pde461a40cc)" d="M 74.974093 273.312 
L 76.586616 273.312 
L 76.586616 266.642526 
L 74.974093 266.642526 
z
" style="fill:#1f77b4;"/>
   </g>
   <g id="patch_8">
    <path clip-path="url(#pde461a40cc)" d="M 76.586616 273.312 
L 78.199139 273.312 
L 78.199139 266.036211 
L 76.586616 266.036211 
z
" style="fill:#1f77b4;"/>
   </g>
   <g id="patch_9">
    <path clip-path="url(#pde461a40cc)" d="M 78.199139 273.312 
L 79.811663 273.312 
L 79.811663 265.429895 
L 78.199139 265.429895 
z
" style="fill:#1f77b4;"/>
   </g>
   <g id="patch_10">
    <path clip-path="url(#pde461a40cc)" d="M 79.811663 273.312 
L 81.424186 273.312 
L 81.424186 262.398316 
L 79.811663 262.398316 
z
" style="fill:#1f77b4;"/>
   </g>
   <g id="patch_11">
    <path clip-path="url(#pde461a40cc)" d="M 81.424186 273.312 
L 83.03671 273.312 
L 83.03671 257.547789 
L 81.424186 257.547789 
z
" style="fill:#1f77b4;"/>
   </g>
   <g id="patch_12">
    <path clip-path="url(#pde461a40cc)" d="M 83.03671 273.312 
L 84.649233 273.312 
L 84.649233 258.760421 
L 83.03671 258.760421 
z
" style="fill:#1f77b4;"/>
   </g>
   <g id="patch_13">
    <path clip-path="url(#pde461a40cc)" d="M 84.649233 273.312 
L 86.261757 273.312 
L 86.261757 261.185684 
L 84.649233 261.185684 
z
" style="fill:#1f77b4;"/>
   </g>
   <g id="patch_14">
    <path clip-path="url(#pde461a40cc)" d="M 86.261757 273.312 
L 87.87428 273.312 
L 87.87428 258.154105 
L 86.261757 258.154105 
z
" style="fill:#1f77b4;"/>
   </g>
   <g id="patch_15">
    <path clip-path="url(#pde461a40cc)" d="M 87.87428 273.312 
L 89.486803 273.312 
L 89.486803 260.579368 
L 87.87428 260.579368 
z
" style="fill:#1f77b4;"/>
   </g>
   <g id="patch_16">
    <path clip-path="url(#pde461a40cc)" d="M 89.486803 273.312 
L 91.099327 273.312 
L 91.099327 261.792 
L 89.486803 261.792 
z
" style="fill:#1f77b4;"/>
   </g>
   <g id="patch_17">
    <path clip-path="url(#pde461a40cc)" d="M 91.099327 273.312 
L 92.71185 273.312 
L 92.71185 255.728842 
L 91.099327 255.728842 
z
" style="fill:#1f77b4;"/>
   </g>
   <g id="patch_18">
    <path clip-path="url(#pde461a40cc)" d="M 92.71185 273.312 
L 94.324374 273.312 
L 94.324374 252.697263 
L 92.71185 252.697263 
z
" style="fill:#1f77b4;"/>
   </g>
   <g id="patch_19">
    <path clip-path="url(#pde461a40cc)" d="M 94.324374 273.312 
L 95.936897 273.312 
L 95.936897 251.484632 
L 94.324374 251.484632 
z
" style="fill:#1f77b4;"/>
   </g>
   <g id="patch_20">
    <path clip-path="url(#pde461a40cc)" d="M 95.936897 273.312 
L 97.549421 273.312 
L 97.549421 246.634105 
L 95.936897 246.634105 
z
" style="fill:#1f77b4;"/>
   </g>
   <g id="patch_21">
    <path clip-path="url(#pde461a40cc)" d="M 97.549421 273.312 
L 99.161944 273.312 
L 99.161944 249.665684 
L 97.549421 249.665684 
z
" style="fill:#1f77b4;"/>
   </g>
   <g id="patch_22">
    <path clip-path="url(#pde461a40cc)" d="M 99.161944 273.312 
L 100.774467 273.312 
L 100.774467 250.272 
L 99.161944 250.272 
z
" style="fill:#1f77b4;"/>
   </g>
   <g id="patch_23">
    <path clip-path="url(#pde461a40cc)" d="M 100.774467 273.312 
L 102.386991 273.312 
L 102.386991 242.996211 
L 100.774467 242.996211 
z
" style="fill:#1f77b4;"/>
   </g>
   <g id="patch_24">
    <path clip-path="url(#pde461a40cc)" d="M 102.386991 273.312 
L 103.999514 273.312 
L 103.999514 246.027789 
L 102.386991 246.027789 
z
" style="fill:#1f77b4;"/>
   </g>
   <g id="patch_25">
    <path clip-path="url(#pde461a40cc)" d="M 103.999514 273.312 
L 105.612038 273.312 
L 105.612038 242.996211 
L 103.999514 242.996211 
z
" style="fill:#1f77b4;"/>
   </g>
   <g id="patch_26">
    <path clip-path="url(#pde461a40cc)" d="M 105.612038 273.312 
L 107.224561 273.312 
L 107.224561 242.996211 
L 105.612038 242.996211 
z
" style="fill:#1f77b4;"/>
   </g>
   <g id="patch_27">
    <path clip-path="url(#pde461a40cc)" d="M 107.224561 273.312 
L 108.837085 273.312 
L 108.837085 244.208842 
L 107.224561 244.208842 
z
" style="fill:#1f77b4;"/>
   </g>
   <g id="patch_28">
    <path clip-path="url(#pde461a40cc)" d="M 108.837085 273.312 
L 110.449608 273.312 
L 110.449608 237.539368 
L 108.837085 237.539368 
z
" style="fill:#1f77b4;"/>
   </g>
   <g id="patch_29">
    <path clip-path="url(#pde461a40cc)" d="M 110.449608 273.312 
L 112.062131 273.312 
L 112.062131 238.752 
L 110.449608 238.752 
z
" style="fill:#1f77b4;"/>
   </g>
   <g id="patch_30">
    <path clip-path="url(#pde461a40cc)" d="M 112.062131 273.312 
L 113.674655 273.312 
L 113.674655 241.177263 
L 112.062131 241.177263 
z
" style="fill:#1f77b4;"/>
   </g>
   <g id="patch_31">
    <path clip-path="url(#pde461a40cc)" d="M 113.674655 273.312 
L 115.287178 273.312 
L 115.287178 239.358316 
L 113.674655 239.358316 
z
" style="fill:#1f77b4;"/>
   </g>
   <g id="patch_32">
    <path clip-path="url(#pde461a40cc)" d="M 115.287178 273.312 
L 116.899702 273.312 
L 116.899702 237.539368 
L 115.287178 237.539368 
z
" style="fill:#1f77b4;"/>
   </g>
   <g id="patch_33">
    <path clip-path="url(#pde461a40cc)" d="M 116.899702 273.312 
L 118.512225 273.312 
L 118.512225 242.389895 
L 116.899702 242.389895 
z
" style="fill:#1f77b4;"/>
   </g>
   <g id="patch_34">
    <path clip-path="url(#pde461a40cc)" d="M 118.512225 273.312 
L 120.124748 273.312 
L 120.124748 236.933053 
L 118.512225 236.933053 
z
" style="fill:#1f77b4;"/>
   </g>
   <g id="patch_35">
    <path clip-path="url(#pde461a40cc)" d="M 120.124748 273.312 
L 121.737272 273.312 
L 121.737272 233.901474 
L 120.124748 233.901474 
z
" style="fill:#1f77b4;"/>
   </g>
   <g id="patch_36">
    <path clip-path="url(#pde461a40cc)" d="M 121.737272 273.312 
L 123.349795 273.312 
L 123.349795 227.232 
L 121.737272 227.232 
z
" style="fill:#1f77b4;"/>
   </g>
   <g id="patch_37">
    <path clip-path="url(#pde461a40cc)" d="M 123.349795 273.312 
L 124.962319 273.312 
L 124.962319 232.082526 
L 123.349795 232.082526 
z
" style="fill:#1f77b4;"/>
   </g>
   <g id="patch_38">
    <path clip-path="url(#pde461a40cc)" d="M 124.962319 273.312 
L 126.574842 273.312 
L 126.574842 224.200421 
L 124.962319 224.200421 
z
" style="fill:#1f77b4;"/>
   </g>
   <g id="patch_39">
    <path clip-path="url(#pde461a40cc)" d="M 126.574842 273.312 
L 128.187366 273.312 
L 128.187366 222.381474 
L 126.574842 222.381474 
z
" style="fill:#1f77b4;"/>
   </g>
   <g id="patch_40">
    <path clip-path="url(#pde461a40cc)" d="M 128.187366 273.312 
L 129.799889 273.312 
L 129.799889 227.232 
L 128.187366 227.232 
z
" style="fill:#1f77b4;"/>
   </g>
   <g id="patch_41">
    <path clip-path="url(#pde461a40cc)" d="M 129.799889 273.312 
L 131.412412 273.312 
L 131.412412 229.050947 
L 129.799889 229.050947 
z
" style="fill:#1f77b4;"/>
   </g>
   <g id="patch_42">
    <path clip-path="url(#pde461a40cc)" d="M 131.412412 273.312 
L 133.024936 273.312 
L 133.024936 218.137263 
L 131.412412 218.137263 
z
" style="fill:#1f77b4;"/>
   </g>
   <g id="patch_43">
    <path clip-path="url(#pde461a40cc)" d="M 133.024936 273.312 
L 134.637459 273.312 
L 134.637459 228.444632 
L 133.024936 228.444632 
z
" style="fill:#1f77b4;"/>
   </g>
   <g id="patch_44">
    <path clip-path="url(#pde461a40cc)" d="M 134.637459 273.312 
L 136.249983 273.312 
L 136.249983 223.594105 
L 134.637459 223.594105 
z
" style="fill:#1f77b4;"/>
   </g>
   <g id="patch_45">
    <path clip-path="url(#pde461a40cc)" d="M 136.249983 273.312 
L 137.862506 273.312 
L 137.862506 215.105684 
L 136.249983 215.105684 
z
" style="fill:#1f77b4;"/>
   </g>
   <g id="patch_46">
    <path clip-path="url(#pde461a40cc)" d="M 137.862506 273.312 
L 139.47503 273.312 
L 139.47503 226.625684 
L 137.862506 226.625684 
z
" style="fill:#1f77b4;"/>
   </g>
   <g id="patch_47">
    <path clip-path="url(#pde461a40cc)" d="M 139.47503 273.312 
L 141.087553 273.312 
L 141.087553 213.893053 
L 139.47503 213.893053 
z
" style="fill:#1f77b4;"/>
   </g>
   <g id="patch_48">
    <path clip-path="url(#pde461a40cc)" d="M 141.087553 273.312 
L 142.700076 273.312 
L 142.700076 220.562526 
L 141.087553 220.562526 
z
" style="fill:#1f77b4;"/>
   </g>
   <g id="patch_49">
    <path clip-path="url(#pde461a40cc)" d="M 142.700076 273.312 
L 144.3126 273.312 
L 144.3126 213.286737 
L 142.700076 213.286737 
z
" style="fill:#1f77b4;"/>
   </g>
   <g id="patch_50">
    <path clip-path="url(#pde461a40cc)" d="M 144.3126 273.312 
L 145.925123 273.312 
L 145.925123 200.554105 
L 144.3126 200.554105 
z
" style="fill:#1f77b4;"/>
   </g>
   <g id="patch_51">
    <path clip-path="url(#pde461a40cc)" d="M 145.925123 273.312 
L 147.537647 273.312 
L 147.537647 220.562526 
L 145.925123 220.562526 
z
" style="fill:#1f77b4;"/>
   </g>
   <g id="patch_52">
    <path clip-path="url(#pde461a40cc)" d="M 147.537647 273.312 
L 149.15017 273.312 
L 149.15017 199.341474 
L 147.537647 199.341474 
z
" style="fill:#1f77b4;"/>
   </g>
   <g id="patch_53">
    <path clip-path="url(#pde461a40cc)" d="M 149.15017 273.312 
L 150.762694 273.312 
L 150.762694 205.404632 
L 149.15017 205.404632 
z
" style="fill:#1f77b4;"/>
   </g>
   <g id="patch_54">
    <path clip-path="url(#pde461a40cc)" d="M 150.762694 273.312 
L 152.375217 273.312 
L 152.375217 215.105684 
L 150.762694 215.105684 
z
" style="fill:#1f77b4;"/>
   </g>
   <g id="patch_55">
    <path clip-path="url(#pde461a40cc)" d="M 152.375217 273.312 
L 153.98774 273.312 
L 153.98774 205.404632 
L 152.375217 205.404632 
z
" style="fill:#1f77b4;"/>
   </g>
   <g id="patch_56">
    <path clip-path="url(#pde461a40cc)" d="M 153.98774 273.312 
L 155.600264 273.312 
L 155.600264 197.522526 
L 153.98774 197.522526 
z
" style="fill:#1f77b4;"/>
   </g>
   <g id="patch_57">
    <path clip-path="url(#pde461a40cc)" d="M 155.600264 273.312 
L 157.212787 273.312 
L 157.212787 210.861474 
L 155.600264 210.861474 
z
" style="fill:#1f77b4;"/>
   </g>
   <g id="patch_58">
    <path clip-path="url(#pde461a40cc)" d="M 157.212787 273.312 
L 158.825311 273.312 
L 158.825311 200.554105 
L 157.212787 200.554105 
z
" style="fill:#1f77b4;"/>
   </g>
   <g id="patch_59">
    <path clip-path="url(#pde461a40cc)" d="M 158.825311 273.312 
L 160.437834 273.312 
L 160.437834 204.798316 
L 158.825311 204.798316 
z
" style="fill:#1f77b4;"/>
   </g>
   <g id="patch_60">
    <path clip-path="url(#pde461a40cc)" d="M 160.437834 273.312 
L 162.050358 273.312 
L 162.050358 207.223579 
L 160.437834 207.223579 
z
" style="fill:#1f77b4;"/>
   </g>
   <g id="patch_61">
    <path clip-path="url(#pde461a40cc)" d="M 162.050358 273.312 
L 163.662881 273.312 
L 163.662881 202.373053 
L 162.050358 202.373053 
z
" style="fill:#1f77b4;"/>
   </g>
   <g id="patch_62">
    <path clip-path="url(#pde461a40cc)" d="M 163.662881 273.312 
L 165.275404 273.312 
L 165.275404 190.853053 
L 163.662881 190.853053 
z
" style="fill:#1f77b4;"/>
   </g>
   <g id="patch_63">
    <path clip-path="url(#pde461a40cc)" d="M 165.275404 273.312 
L 166.887928 273.312 
L 166.887928 194.490947 
L 165.275404 194.490947 
z
" style="fill:#1f77b4;"/>
   </g>
   <g id="patch_64">
    <path clip-path="url(#pde461a40cc)" d="M 166.887928 273.312 
L 168.500451 273.312 
L 168.500451 182.364632 
L 166.887928 182.364632 
z
" style="fill:#1f77b4;"/>
   </g>
   <g id="patch_65">
    <path clip-path="url(#pde461a40cc)" d="M 168.500451 273.312 
L 170.112975 273.312 
L 170.112975 205.404632 
L 168.500451 205.404632 
z
" style="fill:#1f77b4;"/>
   </g>
   <g id="patch_66">
    <path clip-path="url(#pde461a40cc)" d="M 170.112975 273.312 
L 171.725498 273.312 
L 171.725498 186.002526 
L 170.112975 186.002526 
z
" style="fill:#1f77b4;"/>
   </g>
   <g id="patch_67">
    <path clip-path="url(#pde461a40cc)" d="M 171.725498 273.312 
L 173.338022 273.312 
L 173.338022 184.789895 
L 171.725498 184.789895 
z
" style="fill:#1f77b4;"/>
   </g>
   <g id="patch_68">
    <path clip-path="url(#pde461a40cc)" d="M 173.338022 273.312 
L 174.950545 273.312 
L 174.950545 199.341474 
L 173.338022 199.341474 
z
" style="fill:#1f77b4;"/>
   </g>
   <g id="patch_69">
    <path clip-path="url(#pde461a40cc)" d="M 174.950545 273.312 
L 176.563068 273.312 
L 176.563068 200.554105 
L 174.950545 200.554105 
z
" style="fill:#1f77b4;"/>
   </g>
   <g id="patch_70">
    <path clip-path="url(#pde461a40cc)" d="M 176.563068 273.312 
L 178.175592 273.312 
L 178.175592 191.459368 
L 176.563068 191.459368 
z
" style="fill:#1f77b4;"/>
   </g>
   <g id="patch_71">
    <path clip-path="url(#pde461a40cc)" d="M 178.175592 273.312 
L 179.788115 273.312 
L 179.788115 170.844632 
L 178.175592 170.844632 
z
" style="fill:#1f77b4;"/>
   </g>
   <g id="patch_72">
    <path clip-path="url(#pde461a40cc)" d="M 179.788115 273.312 
L 181.400639 273.312 
L 181.400639 192.672 
L 179.788115 192.672 
z
" style="fill:#1f77b4;"/>
   </g>
   <g id="patch_73">
    <path clip-path="url(#pde461a40cc)" d="M 181.400639 273.312 
L 183.013162 273.312 
L 183.013162 189.640421 
L 181.400639 189.640421 
z
" style="fill:#1f77b4;"/>
   </g>
   <g id="patch_74">
    <path clip-path="url(#pde461a40cc)" d="M 183.013162 273.312 
L 184.625686 273.312 
L 184.625686 185.396211 
L 183.013162 185.396211 
z
" style="fill:#1f77b4;"/>
   </g>
   <g id="patch_75">
    <path clip-path="url(#pde461a40cc)" d="M 184.625686 273.312 
L 186.238209 273.312 
L 186.238209 177.514105 
L 184.625686 177.514105 
z
" style="fill:#1f77b4;"/>
   </g>
   <g id="patch_76">
    <path clip-path="url(#pde461a40cc)" d="M 186.238209 273.312 
L 187.850732 273.312 
L 187.850732 182.970947 
L 186.238209 182.970947 
z
" style="fill:#1f77b4;"/>
   </g>
   <g id="patch_77">
    <path clip-path="url(#pde461a40cc)" d="M 187.850732 273.312 
L 189.463256 273.312 
L 189.463256 176.301474 
L 187.850732 176.301474 
z
" style="fill:#1f77b4;"/>
   </g>
   <g id="patch_78">
    <path clip-path="url(#pde461a40cc)" d="M 189.463256 273.312 
L 191.075779 273.312 
L 191.075779 173.876211 
L 189.463256 173.876211 
z
" style="fill:#1f77b4;"/>
   </g>
   <g id="patch_79">
    <path clip-path="url(#pde461a40cc)" d="M 191.075779 273.312 
L 192.688303 273.312 
L 192.688303 169.632 
L 191.075779 169.632 
z
" style="fill:#1f77b4;"/>
   </g>
   <g id="patch_80">
    <path clip-path="url(#pde461a40cc)" d="M 192.688303 273.312 
L 194.300826 273.312 
L 194.300826 161.143579 
L 192.688303 161.143579 
z
" style="fill:#1f77b4;"/>
   </g>
   <g id="patch_81">
    <path clip-path="url(#pde461a40cc)" d="M 194.300826 273.312 
L 195.91335 273.312 
L 195.91335 175.088842 
L 194.300826 175.088842 
z
" style="fill:#1f77b4;"/>
   </g>
   <g id="patch_82">
    <path clip-path="url(#pde461a40cc)" d="M 195.91335 273.312 
L 197.525873 273.312 
L 197.525873 183.577263 
L 195.91335 183.577263 
z
" style="fill:#1f77b4;"/>
   </g>
   <g id="patch_83">
    <path clip-path="url(#pde461a40cc)" d="M 197.525873 273.312 
L 199.138396 273.312 
L 199.138396 163.568842 
L 197.525873 163.568842 
z
" style="fill:#1f77b4;"/>
   </g>
   <g id="patch_84">
    <path clip-path="url(#pde461a40cc)" d="M 199.138396 273.312 
L 200.75092 273.312 
L 200.75092 161.143579 
L 199.138396 161.143579 
z
" style="fill:#1f77b4;"/>
   </g>
   <g id="patch_85">
    <path clip-path="url(#pde461a40cc)" d="M 200.75092 273.312 
L 202.363443 273.312 
L 202.363443 178.120421 
L 200.75092 178.120421 
z
" style="fill:#1f77b4;"/>
   </g>
   <g id="patch_86">
    <path clip-path="url(#pde461a40cc)" d="M 202.363443 273.312 
L 203.975967 273.312 
L 203.975967 170.238316 
L 202.363443 170.238316 
z
" style="fill:#1f77b4;"/>
   </g>
   <g id="patch_87">
    <path clip-path="url(#pde461a40cc)" d="M 203.975967 273.312 
L 205.58849 273.312 
L 205.58849 161.749895 
L 203.975967 161.749895 
z
" style="fill:#1f77b4;"/>
   </g>
   <g id="patch_88">
    <path clip-path="url(#pde461a40cc)" d="M 205.58849 273.312 
L 207.201014 273.312 
L 207.201014 164.175158 
L 205.58849 164.175158 
z
" style="fill:#1f77b4;"/>
   </g>
   <g id="patch_89">
    <path clip-path="url(#pde461a40cc)" d="M 207.201014 273.312 
L 208.813537 273.312 
L 208.813537 164.781474 
L 207.201014 164.781474 
z
" style="fill:#1f77b4;"/>
   </g>
   <g id="patch_90">
    <path clip-path="url(#pde461a40cc)" d="M 208.813537 273.312 
L 210.42606 273.312 
L 210.42606 164.781474 
L 208.813537 164.781474 
z
" style="fill:#1f77b4;"/>
   </g>
   <g id="patch_91">
    <path clip-path="url(#pde461a40cc)" d="M 210.42606 273.312 
L 212.038584 273.312 
L 212.038584 163.568842 
L 210.42606 163.568842 
z
" style="fill:#1f77b4;"/>
   </g>
   <g id="patch_92">
    <path clip-path="url(#pde461a40cc)" d="M 212.038584 273.312 
L 213.651107 273.312 
L 213.651107 141.741474 
L 212.038584 141.741474 
z
" style="fill:#1f77b4;"/>
   </g>
   <g id="patch_93">
    <path clip-path="url(#pde461a40cc)" d="M 213.651107 273.312 
L 215.263631 273.312 
L 215.263631 166.600421 
L 213.651107 166.600421 
z
" style="fill:#1f77b4;"/>
   </g>
   <g id="patch_94">
    <path clip-path="url(#pde461a40cc)" d="M 215.263631 273.312 
L 216.876154 273.312 
L 216.876154 169.632 
L 215.263631 169.632 
z
" style="fill:#1f77b4;"/>
   </g>
   <g id="patch_95">
    <path clip-path="url(#pde461a40cc)" d="M 216.876154 273.312 
L 218.488678 273.312 
L 218.488678 153.261474 
L 216.876154 153.261474 
z
" style="fill:#1f77b4;"/>
   </g>
   <g id="patch_96">
    <path clip-path="url(#pde461a40cc)" d="M 218.488678 273.312 
L 220.101201 273.312 
L 220.101201 165.994105 
L 218.488678 165.994105 
z
" style="fill:#1f77b4;"/>
   </g>
   <g id="patch_97">
    <path clip-path="url(#pde461a40cc)" d="M 220.101201 273.312 
L 221.713724 273.312 
L 221.713724 151.442526 
L 220.101201 151.442526 
z
" style="fill:#1f77b4;"/>
   </g>
   <g id="patch_98">
    <path clip-path="url(#pde461a40cc)" d="M 221.713724 273.312 
L 223.326248 273.312 
L 223.326248 159.324632 
L 221.713724 159.324632 
z
" style="fill:#1f77b4;"/>
   </g>
   <g id="patch_99">
    <path clip-path="url(#pde461a40cc)" d="M 223.326248 273.312 
L 224.938771 273.312 
L 224.938771 154.474105 
L 223.326248 154.474105 
z
" style="fill:#1f77b4;"/>
   </g>
   <g id="patch_100">
    <path clip-path="url(#pde461a40cc)" d="M 224.938771 273.312 
L 226.551295 273.312 
L 226.551295 133.859368 
L 224.938771 133.859368 
z
" style="fill:#1f77b4;"/>
   </g>
   <g id="patch_101">
    <path clip-path="url(#pde461a40cc)" d="M 226.551295 273.312 
L 228.163818 273.312 
L 228.163818 142.347789 
L 226.551295 142.347789 
z
" style="fill:#1f77b4;"/>
   </g>
   <g id="patch_102">
    <path clip-path="url(#pde461a40cc)" d="M 228.163818 273.312 
L 229.776342 273.312 
L 229.776342 147.198316 
L 228.163818 147.198316 
z
" style="fill:#1f77b4;"/>
   </g>
   <g id="patch_103">
    <path clip-path="url(#pde461a40cc)" d="M 229.776342 273.312 
L 231.388865 273.312 
L 231.388865 145.985684 
L 229.776342 145.985684 
z
" style="fill:#1f77b4;"/>
   </g>
   <g id="patch_104">
    <path clip-path="url(#pde461a40cc)" d="M 231.388865 273.312 
L 233.001388 273.312 
L 233.001388 164.781474 
L 231.388865 164.781474 
z
" style="fill:#1f77b4;"/>
   </g>
   <g id="patch_105">
    <path clip-path="url(#pde461a40cc)" d="M 233.001388 273.312 
L 234.613912 273.312 
L 234.613912 150.229895 
L 233.001388 150.229895 
z
" style="fill:#1f77b4;"/>
   </g>
   <g id="patch_106">
    <path clip-path="url(#pde461a40cc)" d="M 234.613912 273.312 
L 236.226435 273.312 
L 236.226435 132.646737 
L 234.613912 132.646737 
z
" style="fill:#1f77b4;"/>
   </g>
   <g id="patch_107">
    <path clip-path="url(#pde461a40cc)" d="M 236.226435 273.312 
L 237.838959 273.312 
L 237.838959 135.072 
L 236.226435 135.072 
z
" style="fill:#1f77b4;"/>
   </g>
   <g id="patch_108">
    <path clip-path="url(#pde461a40cc)" d="M 237.838959 273.312 
L 239.451482 273.312 
L 239.451482 162.962526 
L 237.838959 162.962526 
z
" style="fill:#1f77b4;"/>
   </g>
   <g id="patch_109">
    <path clip-path="url(#pde461a40cc)" d="M 239.451482 273.312 
L 241.064005 273.312 
L 241.064005 139.922526 
L 239.451482 139.922526 
z
" style="fill:#1f77b4;"/>
   </g>
   <g id="patch_110">
    <path clip-path="url(#pde461a40cc)" d="M 241.064005 273.312 
L 242.676529 273.312 
L 242.676529 139.316211 
L 241.064005 139.316211 
z
" style="fill:#1f77b4;"/>
   </g>
   <g id="patch_111">
    <path clip-path="url(#pde461a40cc)" d="M 242.676529 273.312 
L 244.289052 273.312 
L 244.289052 156.293053 
L 242.676529 156.293053 
z
" style="fill:#1f77b4;"/>
   </g>
   <g id="patch_112">
    <path clip-path="url(#pde461a40cc)" d="M 244.289052 273.312 
L 245.901576 273.312 
L 245.901576 156.899368 
L 244.289052 156.899368 
z
" style="fill:#1f77b4;"/>
   </g>
   <g id="patch_113">
    <path clip-path="url(#pde461a40cc)" d="M 245.901576 273.312 
L 247.514099 273.312 
L 247.514099 133.859368 
L 245.901576 133.859368 
z
" style="fill:#1f77b4;"/>
   </g>
   <g id="patch_114">
    <path clip-path="url(#pde461a40cc)" d="M 247.514099 273.312 
L 249.126623 273.312 
L 249.126623 145.379368 
L 247.514099 145.379368 
z
" style="fill:#1f77b4;"/>
   </g>
   <g id="patch_115">
    <path clip-path="url(#pde461a40cc)" d="M 249.126623 273.312 
L 250.739146 273.312 
L 250.739146 141.135158 
L 249.126623 141.135158 
z
" style="fill:#1f77b4;"/>
   </g>
   <g id="patch_116">
    <path clip-path="url(#pde461a40cc)" d="M 250.739146 273.312 
L 252.351669 273.312 
L 252.351669 136.284632 
L 250.739146 136.284632 
z
" style="fill:#1f77b4;"/>
   </g>
   <g id="patch_117">
    <path clip-path="url(#pde461a40cc)" d="M 252.351669 273.312 
L 253.964193 273.312 
L 253.964193 145.379368 
L 252.351669 145.379368 
z
" style="fill:#1f77b4;"/>
   </g>
   <g id="patch_118">
    <path clip-path="url(#pde461a40cc)" d="M 253.964193 273.312 
L 255.576716 273.312 
L 255.576716 149.623579 
L 253.964193 149.623579 
z
" style="fill:#1f77b4;"/>
   </g>
   <g id="patch_119">
    <path clip-path="url(#pde461a40cc)" d="M 255.576716 273.312 
L 257.18924 273.312 
L 257.18924 135.678316 
L 255.576716 135.678316 
z
" style="fill:#1f77b4;"/>
   </g>
   <g id="patch_120">
    <path clip-path="url(#pde461a40cc)" d="M 257.18924 273.312 
L 258.801763 273.312 
L 258.801763 135.072 
L 257.18924 135.072 
z
" style="fill:#1f77b4;"/>
   </g>
   <g id="patch_121">
    <path clip-path="url(#pde461a40cc)" d="M 258.801763 273.312 
L 260.414287 273.312 
L 260.414287 146.592 
L 258.801763 146.592 
z
" style="fill:#1f77b4;"/>
   </g>
   <g id="patch_122">
    <path clip-path="url(#pde461a40cc)" d="M 260.414287 273.312 
L 262.02681 273.312 
L 262.02681 130.827789 
L 260.414287 130.827789 
z
" style="fill:#1f77b4;"/>
   </g>
   <g id="patch_123">
    <path clip-path="url(#pde461a40cc)" d="M 262.02681 273.312 
L 263.639333 273.312 
L 263.639333 115.669895 
L 262.02681 115.669895 
z
" style="fill:#1f77b4;"/>
   </g>
   <g id="patch_124">
    <path clip-path="url(#pde461a40cc)" d="M 263.639333 273.312 
L 265.251857 273.312 
L 265.251857 123.552 
L 263.639333 123.552 
z
" style="fill:#1f77b4;"/>
   </g>
   <g id="patch_125">
    <path clip-path="url(#pde461a40cc)" d="M 265.251857 273.312 
L 266.86438 273.312 
L 266.86438 136.890947 
L 265.251857 136.890947 
z
" style="fill:#1f77b4;"/>
   </g>
   <g id="patch_126">
    <path clip-path="url(#pde461a40cc)" d="M 266.86438 273.312 
L 268.476904 273.312 
L 268.476904 133.859368 
L 266.86438 133.859368 
z
" style="fill:#1f77b4;"/>
   </g>
   <g id="patch_127">
    <path clip-path="url(#pde461a40cc)" d="M 268.476904 273.312 
L 270.089427 273.312 
L 270.089427 121.733053 
L 268.476904 121.733053 
z
" style="fill:#1f77b4;"/>
   </g>
   <g id="patch_128">
    <path clip-path="url(#pde461a40cc)" d="M 270.089427 273.312 
L 271.701951 273.312 
L 271.701951 124.764632 
L 270.089427 124.764632 
z
" style="fill:#1f77b4;"/>
   </g>
   <g id="patch_129">
    <path clip-path="url(#pde461a40cc)" d="M 271.701951 273.312 
L 273.314474 273.312 
L 273.314474 116.276211 
L 271.701951 116.276211 
z
" style="fill:#1f77b4;"/>
   </g>
   <g id="patch_130">
    <path clip-path="url(#pde461a40cc)" d="M 273.314474 273.312 
L 274.926997 273.312 
L 274.926997 122.339368 
L 273.314474 122.339368 
z
" style="fill:#1f77b4;"/>
   </g>
   <g id="patch_131">
    <path clip-path="url(#pde461a40cc)" d="M 274.926997 273.312 
L 276.539521 273.312 
L 276.539521 117.488842 
L 274.926997 117.488842 
z
" style="fill:#1f77b4;"/>
   </g>
   <g id="patch_132">
    <path clip-path="url(#pde461a40cc)" d="M 276.539521 273.312 
L 278.152044 273.312 
L 278.152044 108.394105 
L 276.539521 108.394105 
z
" style="fill:#1f77b4;"/>
   </g>
   <g id="patch_133">
    <path clip-path="url(#pde461a40cc)" d="M 278.152044 273.312 
L 279.764568 273.312 
L 279.764568 106.575158 
L 278.152044 106.575158 
z
" style="fill:#1f77b4;"/>
   </g>
   <g id="patch_134">
    <path clip-path="url(#pde461a40cc)" d="M 279.764568 273.312 
L 281.377091 273.312 
L 281.377091 130.827789 
L 279.764568 130.827789 
z
" style="fill:#1f77b4;"/>
   </g>
   <g id="patch_135">
    <path clip-path="url(#pde461a40cc)" d="M 281.377091 273.312 
L 282.989615 273.312 
L 282.989615 109.606737 
L 281.377091 109.606737 
z
" style="fill:#1f77b4;"/>
   </g>
   <g id="patch_136">
    <path clip-path="url(#pde461a40cc)" d="M 282.989615 273.312 
L 284.602138 273.312 
L 284.602138 122.945684 
L 282.989615 122.945684 
z
" style="fill:#1f77b4;"/>
   </g>
   <g id="patch_137">
    <path clip-path="url(#pde461a40cc)" d="M 284.602138 273.312 
L 286.214661 273.312 
L 286.214661 119.307789 
L 284.602138 119.307789 
z
" style="fill:#1f77b4;"/>
   </g>
   <g id="patch_138">
    <path clip-path="url(#pde461a40cc)" d="M 286.214661 273.312 
L 287.827185 273.312 
L 287.827185 125.370947 
L 286.214661 125.370947 
z
" style="fill:#1f77b4;"/>
   </g>
   <g id="patch_139">
    <path clip-path="url(#pde461a40cc)" d="M 287.827185 273.312 
L 289.439708 273.312 
L 289.439708 102.330947 
L 287.827185 102.330947 
z
" style="fill:#1f77b4;"/>
   </g>
   <g id="patch_140">
    <path clip-path="url(#pde461a40cc)" d="M 289.439708 273.312 
L 291.052232 273.312 
L 291.052232 119.307789 
L 289.439708 119.307789 
z
" style="fill:#1f77b4;"/>
   </g>
   <g id="patch_141">
    <path clip-path="url(#pde461a40cc)" d="M 291.052232 273.312 
L 292.664755 273.312 
L 292.664755 106.575158 
L 291.052232 106.575158 
z
" style="fill:#1f77b4;"/>
   </g>
   <g id="patch_142">
    <path clip-path="url(#pde461a40cc)" d="M 292.664755 273.312 
L 294.277279 273.312 
L 294.277279 102.330947 
L 292.664755 102.330947 
z
" style="fill:#1f77b4;"/>
   </g>
   <g id="patch_143">
    <path clip-path="url(#pde461a40cc)" d="M 294.277279 273.312 
L 295.889802 273.312 
L 295.889802 99.905684 
L 294.277279 99.905684 
z
" style="fill:#1f77b4;"/>
   </g>
   <g id="patch_144">
    <path clip-path="url(#pde461a40cc)" d="M 295.889802 273.312 
L 297.502325 273.312 
L 297.502325 106.575158 
L 295.889802 106.575158 
z
" style="fill:#1f77b4;"/>
   </g>
   <g id="patch_145">
    <path clip-path="url(#pde461a40cc)" d="M 297.502325 273.312 
L 299.114849 273.312 
L 299.114849 113.244632 
L 297.502325 113.244632 
z
" style="fill:#1f77b4;"/>
   </g>
   <g id="patch_146">
    <path clip-path="url(#pde461a40cc)" d="M 299.114849 273.312 
L 300.727372 273.312 
L 300.727372 115.669895 
L 299.114849 115.669895 
z
" style="fill:#1f77b4;"/>
   </g>
   <g id="patch_147">
    <path clip-path="url(#pde461a40cc)" d="M 300.727372 273.312 
L 302.339896 273.312 
L 302.339896 119.307789 
L 300.727372 119.307789 
z
" style="fill:#1f77b4;"/>
   </g>
   <g id="patch_148">
    <path clip-path="url(#pde461a40cc)" d="M 302.339896 273.312 
L 303.952419 273.312 
L 303.952419 92.023579 
L 302.339896 92.023579 
z
" style="fill:#1f77b4;"/>
   </g>
   <g id="patch_149">
    <path clip-path="url(#pde461a40cc)" d="M 303.952419 273.312 
L 305.564943 273.312 
L 305.564943 87.173053 
L 303.952419 87.173053 
z
" style="fill:#1f77b4;"/>
   </g>
   <g id="patch_150">
    <path clip-path="url(#pde461a40cc)" d="M 305.564943 273.312 
L 307.177466 273.312 
L 307.177466 97.480421 
L 305.564943 97.480421 
z
" style="fill:#1f77b4;"/>
   </g>
   <g id="patch_151">
    <path clip-path="url(#pde461a40cc)" d="M 307.177466 273.312 
L 308.789989 273.312 
L 308.789989 85.960421 
L 307.177466 85.960421 
z
" style="fill:#1f77b4;"/>
   </g>
   <g id="patch_152">
    <path clip-path="url(#pde461a40cc)" d="M 308.789989 273.312 
L 310.402513 273.312 
L 310.402513 106.575158 
L 308.789989 106.575158 
z
" style="fill:#1f77b4;"/>
   </g>
   <g id="patch_153">
    <path clip-path="url(#pde461a40cc)" d="M 310.402513 273.312 
L 312.015036 273.312 
L 312.015036 101.118316 
L 310.402513 101.118316 
z
" style="fill:#1f77b4;"/>
   </g>
   <g id="patch_154">
    <path clip-path="url(#pde461a40cc)" d="M 312.015036 273.312 
L 313.62756 273.312 
L 313.62756 84.747789 
L 312.015036 84.747789 
z
" style="fill:#1f77b4;"/>
   </g>
   <g id="patch_155">
    <path clip-path="url(#pde461a40cc)" d="M 313.62756 273.312 
L 315.240083 273.312 
L 315.240083 91.417263 
L 313.62756 91.417263 
z
" style="fill:#1f77b4;"/>
   </g>
   <g id="patch_156">
    <path clip-path="url(#pde461a40cc)" d="M 315.240083 273.312 
L 316.852607 273.312 
L 316.852607 75.046737 
L 315.240083 75.046737 
z
" style="fill:#1f77b4;"/>
   </g>
   <g id="patch_157">
    <path clip-path="url(#pde461a40cc)" d="M 316.852607 273.312 
L 318.46513 273.312 
L 318.46513 75.653053 
L 316.852607 75.653053 
z
" style="fill:#1f77b4;"/>
   </g>
   <g id="patch_158">
    <path clip-path="url(#pde461a40cc)" d="M 318.46513 273.312 
L 320.077653 273.312 
L 320.077653 85.960421 
L 318.46513 85.960421 
z
" style="fill:#1f77b4;"/>
   </g>
   <g id="patch_159">
    <path clip-path="url(#pde461a40cc)" d="M 320.077653 273.312 
L 321.690177 273.312 
L 321.690177 79.290947 
L 320.077653 79.290947 
z
" style="fill:#1f77b4;"/>
   </g>
   <g id="patch_160">
    <path clip-path="url(#pde461a40cc)" d="M 321.690177 273.312 
L 323.3027 273.312 
L 323.3027 71.408842 
L 321.690177 71.408842 
z
" style="fill:#1f77b4;"/>
   </g>
   <g id="patch_161">
    <path clip-path="url(#pde461a40cc)" d="M 323.3027 273.312 
L 324.915224 273.312 
L 324.915224 79.897263 
L 323.3027 79.897263 
z
" style="fill:#1f77b4;"/>
   </g>
   <g id="patch_162">
    <path clip-path="url(#pde461a40cc)" d="M 324.915224 273.312 
L 326.527747 273.312 
L 326.527747 93.236211 
L 324.915224 93.236211 
z
" style="fill:#1f77b4;"/>
   </g>
   <g id="patch_163">
    <path clip-path="url(#pde461a40cc)" d="M 326.527747 273.312 
L 328.140271 273.312 
L 328.140271 85.354105 
L 326.527747 85.354105 
z
" style="fill:#1f77b4;"/>
   </g>
   <g id="patch_164">
    <path clip-path="url(#pde461a40cc)" d="M 328.140271 273.312 
L 329.752794 273.312 
L 329.752794 78.078316 
L 328.140271 78.078316 
z
" style="fill:#1f77b4;"/>
   </g>
   <g id="patch_165">
    <path clip-path="url(#pde461a40cc)" d="M 329.752794 273.312 
L 331.365317 273.312 
L 331.365317 79.290947 
L 329.752794 79.290947 
z
" style="fill:#1f77b4;"/>
   </g>
   <g id="patch_166">
    <path clip-path="url(#pde461a40cc)" d="M 331.365317 273.312 
L 332.977841 273.312 
L 332.977841 70.802526 
L 331.365317 70.802526 
z
" style="fill:#1f77b4;"/>
   </g>
   <g id="patch_167">
    <path clip-path="url(#pde461a40cc)" d="M 332.977841 273.312 
L 334.590364 273.312 
L 334.590364 89.598316 
L 332.977841 89.598316 
z
" style="fill:#1f77b4;"/>
   </g>
   <g id="patch_168">
    <path clip-path="url(#pde461a40cc)" d="M 334.590364 273.312 
L 336.202888 273.312 
L 336.202888 71.408842 
L 334.590364 71.408842 
z
" style="fill:#1f77b4;"/>
   </g>
   <g id="patch_169">
    <path clip-path="url(#pde461a40cc)" d="M 336.202888 273.312 
L 337.815411 273.312 
L 337.815411 75.046737 
L 336.202888 75.046737 
z
" style="fill:#1f77b4;"/>
   </g>
   <g id="patch_170">
    <path clip-path="url(#pde461a40cc)" d="M 337.815411 273.312 
L 339.427935 273.312 
L 339.427935 62.314105 
L 337.815411 62.314105 
z
" style="fill:#1f77b4;"/>
   </g>
   <g id="patch_171">
    <path clip-path="url(#pde461a40cc)" d="M 339.427935 273.312 
L 341.040458 273.312 
L 341.040458 75.046737 
L 339.427935 75.046737 
z
" style="fill:#1f77b4;"/>
   </g>
   <g id="patch_172">
    <path clip-path="url(#pde461a40cc)" d="M 341.040458 273.312 
L 342.652981 273.312 
L 342.652981 80.503579 
L 341.040458 80.503579 
z
" style="fill:#1f77b4;"/>
   </g>
   <g id="patch_173">
    <path clip-path="url(#pde461a40cc)" d="M 342.652981 273.312 
L 344.265505 273.312 
L 344.265505 65.952 
L 342.652981 65.952 
z
" style="fill:#1f77b4;"/>
   </g>
   <g id="patch_174">
    <path clip-path="url(#pde461a40cc)" d="M 344.265505 273.312 
L 345.878028 273.312 
L 345.878028 65.345684 
L 344.265505 65.345684 
z
" style="fill:#1f77b4;"/>
   </g>
   <g id="patch_175">
    <path clip-path="url(#pde461a40cc)" d="M 345.878028 273.312 
L 347.490552 273.312 
L 347.490552 62.314105 
L 345.878028 62.314105 
z
" style="fill:#1f77b4;"/>
   </g>
   <g id="patch_176">
    <path clip-path="url(#pde461a40cc)" d="M 347.490552 273.312 
L 349.103075 273.312 
L 349.103075 65.952 
L 347.490552 65.952 
z
" style="fill:#1f77b4;"/>
   </g>
   <g id="patch_177">
    <path clip-path="url(#pde461a40cc)" d="M 349.103075 273.312 
L 350.715599 273.312 
L 350.715599 52.006737 
L 349.103075 52.006737 
z
" style="fill:#1f77b4;"/>
   </g>
   <g id="patch_178">
    <path clip-path="url(#pde461a40cc)" d="M 350.715599 273.312 
L 352.328122 273.312 
L 352.328122 57.463579 
L 350.715599 57.463579 
z
" style="fill:#1f77b4;"/>
   </g>
   <g id="patch_179">
    <path clip-path="url(#pde461a40cc)" d="M 352.328122 273.312 
L 353.940645 273.312 
L 353.940645 82.322526 
L 352.328122 82.322526 
z
" style="fill:#1f77b4;"/>
   </g>
   <g id="patch_180">
    <path clip-path="url(#pde461a40cc)" d="M 353.940645 273.312 
L 355.553169 273.312 
L 355.553169 58.676211 
L 353.940645 58.676211 
z
" style="fill:#1f77b4;"/>
   </g>
   <g id="patch_181">
    <path clip-path="url(#pde461a40cc)" d="M 355.553169 273.312 
L 357.165692 273.312 
L 357.165692 55.644632 
L 355.553169 55.644632 
z
" style="fill:#1f77b4;"/>
   </g>
   <g id="patch_182">
    <path clip-path="url(#pde461a40cc)" d="M 357.165692 273.312 
L 358.778216 273.312 
L 358.778216 61.707789 
L 357.165692 61.707789 
z
" style="fill:#1f77b4;"/>
   </g>
   <g id="patch_183">
    <path clip-path="url(#pde461a40cc)" d="M 358.778216 273.312 
L 360.390739 273.312 
L 360.390739 67.770947 
L 358.778216 67.770947 
z
" style="fill:#1f77b4;"/>
   </g>
   <g id="patch_184">
    <path clip-path="url(#pde461a40cc)" d="M 360.390739 273.312 
L 362.003262 273.312 
L 362.003262 71.408842 
L 360.390739 71.408842 
z
" style="fill:#1f77b4;"/>
   </g>
   <g id="patch_185">
    <path clip-path="url(#pde461a40cc)" d="M 362.003262 273.312 
L 363.615786 273.312 
L 363.615786 45.943579 
L 362.003262 45.943579 
z
" style="fill:#1f77b4;"/>
   </g>
   <g id="patch_186">
    <path clip-path="url(#pde461a40cc)" d="M 363.615786 273.312 
L 365.228309 273.312 
L 365.228309 44.730947 
L 363.615786 44.730947 
z
" style="fill:#1f77b4;"/>
   </g>
   <g id="patch_187">
    <path clip-path="url(#pde461a40cc)" d="M 365.228309 273.312 
L 366.840833 273.312 
L 366.840833 67.164632 
L 365.228309 67.164632 
z
" style="fill:#1f77b4;"/>
   </g>
   <g id="patch_188">
    <path clip-path="url(#pde461a40cc)" d="M 366.840833 273.312 
L 368.453356 273.312 
L 368.453356 38.061474 
L 366.840833 38.061474 
z
" style="fill:#1f77b4;"/>
   </g>
   <g id="patch_189">
    <path clip-path="url(#pde461a40cc)" d="M 368.453356 273.312 
L 370.06588 273.312 
L 370.06588 44.124632 
L 368.453356 44.124632 
z
" style="fill:#1f77b4;"/>
   </g>
   <g id="patch_190">
    <path clip-path="url(#pde461a40cc)" d="M 370.06588 273.312 
L 371.678403 273.312 
L 371.678403 51.400421 
L 370.06588 51.400421 
z
" style="fill:#1f77b4;"/>
   </g>
   <g id="patch_191">
    <path clip-path="url(#pde461a40cc)" d="M 371.678403 273.312 
L 373.290926 273.312 
L 373.290926 39.274105 
L 371.678403 39.274105 
z
" style="fill:#1f77b4;"/>
   </g>
   <g id="patch_192">
    <path clip-path="url(#pde461a40cc)" d="M 373.290926 273.312 
L 374.90345 273.312 
L 374.90345 59.888842 
L 373.290926 59.888842 
z
" style="fill:#1f77b4;"/>
   </g>
   <g id="patch_193">
    <path clip-path="url(#pde461a40cc)" d="M 374.90345 273.312 
L 376.515973 273.312 
L 376.515973 55.644632 
L 374.90345 55.644632 
z
" style="fill:#1f77b4;"/>
   </g>
   <g id="patch_194">
    <path clip-path="url(#pde461a40cc)" d="M 376.515973 273.312 
L 378.128497 273.312 
L 378.128497 42.305684 
L 376.515973 42.305684 
z
" style="fill:#1f77b4;"/>
   </g>
   <g id="patch_195">
    <path clip-path="url(#pde461a40cc)" d="M 378.128497 273.312 
L 379.74102 273.312 
L 379.74102 25.935158 
L 378.128497 25.935158 
z
" style="fill:#1f77b4;"/>
   </g>
   <g id="patch_196">
    <path clip-path="url(#pde461a40cc)" d="M 379.74102 273.312 
L 381.353544 273.312 
L 381.353544 32.604632 
L 379.74102 32.604632 
z
" style="fill:#1f77b4;"/>
   </g>
   <g id="patch_197">
    <path clip-path="url(#pde461a40cc)" d="M 381.353544 273.312 
L 382.966067 273.312 
L 382.966067 41.699368 
L 381.353544 41.699368 
z
" style="fill:#1f77b4;"/>
   </g>
   <g id="patch_198">
    <path clip-path="url(#pde461a40cc)" d="M 382.966067 273.312 
L 384.57859 273.312 
L 384.57859 19.872 
L 382.966067 19.872 
z
" style="fill:#1f77b4;"/>
   </g>
   <g id="patch_199">
    <path clip-path="url(#pde461a40cc)" d="M 384.57859 273.312 
L 386.191114 273.312 
L 386.191114 41.699368 
L 384.57859 41.699368 
z
" style="fill:#1f77b4;"/>
   </g>
   <g id="patch_200">
    <path clip-path="url(#pde461a40cc)" d="M 386.191114 273.312 
L 387.803637 273.312 
L 387.803637 53.219368 
L 386.191114 53.219368 
z
" style="fill:#1f77b4;"/>
   </g>
   <g id="patch_201">
    <path clip-path="url(#pde461a40cc)" d="M 387.803637 273.312 
L 389.416161 273.312 
L 389.416161 42.912 
L 387.803637 42.912 
z
" style="fill:#1f77b4;"/>
   </g>
   <g id="patch_202">
    <path clip-path="url(#pde461a40cc)" d="M 389.416161 273.312 
L 391.028684 273.312 
L 391.028684 43.518316 
L 389.416161 43.518316 
z
" style="fill:#1f77b4;"/>
   </g>
   <g id="matplotlib.axis_1">
    <g id="xtick_1">
     <g id="line2d_1">
      <defs>
       <path d="M 0 0 
L 0 3.5 
" id="m09276e1e4a" style="stroke:#000000;stroke-width:0.8;"/>
      </defs>
      <g>
       <use style="stroke:#000000;stroke-width:0.8;" x="66.376477" xlink:href="#m09276e1e4a" y="273.312"/>
      </g>
     </g>
     <g id="text_1">
      <!-- 0.0 -->
      <g transform="translate(58.424915 287.910437)scale(0.1 -0.1)">
       <defs>
        <path d="M 2034 4250 
Q 1547 4250 1301 3770 
Q 1056 3291 1056 2328 
Q 1056 1369 1301 889 
Q 1547 409 2034 409 
Q 2525 409 2770 889 
Q 3016 1369 3016 2328 
Q 3016 3291 2770 3770 
Q 2525 4250 2034 4250 
z
M 2034 4750 
Q 2819 4750 3233 4129 
Q 3647 3509 3647 2328 
Q 3647 1150 3233 529 
Q 2819 -91 2034 -91 
Q 1250 -91 836 529 
Q 422 1150 422 2328 
Q 422 3509 836 4129 
Q 1250 4750 2034 4750 
z
" id="DejaVuSans-30" transform="scale(0.015625)"/>
        <path d="M 684 794 
L 1344 794 
L 1344 0 
L 684 0 
L 684 794 
z
" id="DejaVuSans-2e" transform="scale(0.015625)"/>
       </defs>
       <use xlink:href="#DejaVuSans-30"/>
       <use x="63.623047" xlink:href="#DejaVuSans-2e"/>
       <use x="95.410156" xlink:href="#DejaVuSans-30"/>
      </g>
     </g>
    </g>
    <g id="xtick_2">
     <g id="line2d_2">
      <g>
       <use style="stroke:#000000;stroke-width:0.8;" x="131.307386" xlink:href="#m09276e1e4a" y="273.312"/>
      </g>
     </g>
     <g id="text_2">
      <!-- 0.2 -->
      <g transform="translate(123.355824 287.910437)scale(0.1 -0.1)">
       <defs>
        <path d="M 1228 531 
L 3431 531 
L 3431 0 
L 469 0 
L 469 531 
Q 828 903 1448 1529 
Q 2069 2156 2228 2338 
Q 2531 2678 2651 2914 
Q 2772 3150 2772 3378 
Q 2772 3750 2511 3984 
Q 2250 4219 1831 4219 
Q 1534 4219 1204 4116 
Q 875 4013 500 3803 
L 500 4441 
Q 881 4594 1212 4672 
Q 1544 4750 1819 4750 
Q 2544 4750 2975 4387 
Q 3406 4025 3406 3419 
Q 3406 3131 3298 2873 
Q 3191 2616 2906 2266 
Q 2828 2175 2409 1742 
Q 1991 1309 1228 531 
z
" id="DejaVuSans-32" transform="scale(0.015625)"/>
       </defs>
       <use xlink:href="#DejaVuSans-30"/>
       <use x="63.623047" xlink:href="#DejaVuSans-2e"/>
       <use x="95.410156" xlink:href="#DejaVuSans-32"/>
      </g>
     </g>
    </g>
    <g id="xtick_3">
     <g id="line2d_3">
      <g>
       <use style="stroke:#000000;stroke-width:0.8;" x="196.238295" xlink:href="#m09276e1e4a" y="273.312"/>
      </g>
     </g>
     <g id="text_3">
      <!-- 0.4 -->
      <g transform="translate(188.286733 287.910437)scale(0.1 -0.1)">
       <defs>
        <path d="M 2419 4116 
L 825 1625 
L 2419 1625 
L 2419 4116 
z
M 2253 4666 
L 3047 4666 
L 3047 1625 
L 3713 1625 
L 3713 1100 
L 3047 1100 
L 3047 0 
L 2419 0 
L 2419 1100 
L 313 1100 
L 313 1709 
L 2253 4666 
z
" id="DejaVuSans-34" transform="scale(0.015625)"/>
       </defs>
       <use xlink:href="#DejaVuSans-30"/>
       <use x="63.623047" xlink:href="#DejaVuSans-2e"/>
       <use x="95.410156" xlink:href="#DejaVuSans-34"/>
      </g>
     </g>
    </g>
    <g id="xtick_4">
     <g id="line2d_4">
      <g>
       <use style="stroke:#000000;stroke-width:0.8;" x="261.169205" xlink:href="#m09276e1e4a" y="273.312"/>
      </g>
     </g>
     <g id="text_4">
      <!-- 0.6 -->
      <g transform="translate(253.217642 287.910437)scale(0.1 -0.1)">
       <defs>
        <path d="M 2113 2584 
Q 1688 2584 1439 2293 
Q 1191 2003 1191 1497 
Q 1191 994 1439 701 
Q 1688 409 2113 409 
Q 2538 409 2786 701 
Q 3034 994 3034 1497 
Q 3034 2003 2786 2293 
Q 2538 2584 2113 2584 
z
M 3366 4563 
L 3366 3988 
Q 3128 4100 2886 4159 
Q 2644 4219 2406 4219 
Q 1781 4219 1451 3797 
Q 1122 3375 1075 2522 
Q 1259 2794 1537 2939 
Q 1816 3084 2150 3084 
Q 2853 3084 3261 2657 
Q 3669 2231 3669 1497 
Q 3669 778 3244 343 
Q 2819 -91 2113 -91 
Q 1303 -91 875 529 
Q 447 1150 447 2328 
Q 447 3434 972 4092 
Q 1497 4750 2381 4750 
Q 2619 4750 2861 4703 
Q 3103 4656 3366 4563 
z
" id="DejaVuSans-36" transform="scale(0.015625)"/>
       </defs>
       <use xlink:href="#DejaVuSans-30"/>
       <use x="63.623047" xlink:href="#DejaVuSans-2e"/>
       <use x="95.410156" xlink:href="#DejaVuSans-36"/>
      </g>
     </g>
    </g>
    <g id="xtick_5">
     <g id="line2d_5">
      <g>
       <use style="stroke:#000000;stroke-width:0.8;" x="326.100114" xlink:href="#m09276e1e4a" y="273.312"/>
      </g>
     </g>
     <g id="text_5">
      <!-- 0.8 -->
      <g transform="translate(318.148551 287.910437)scale(0.1 -0.1)">
       <defs>
        <path d="M 2034 2216 
Q 1584 2216 1326 1975 
Q 1069 1734 1069 1313 
Q 1069 891 1326 650 
Q 1584 409 2034 409 
Q 2484 409 2743 651 
Q 3003 894 3003 1313 
Q 3003 1734 2745 1975 
Q 2488 2216 2034 2216 
z
M 1403 2484 
Q 997 2584 770 2862 
Q 544 3141 544 3541 
Q 544 4100 942 4425 
Q 1341 4750 2034 4750 
Q 2731 4750 3128 4425 
Q 3525 4100 3525 3541 
Q 3525 3141 3298 2862 
Q 3072 2584 2669 2484 
Q 3125 2378 3379 2068 
Q 3634 1759 3634 1313 
Q 3634 634 3220 271 
Q 2806 -91 2034 -91 
Q 1263 -91 848 271 
Q 434 634 434 1313 
Q 434 1759 690 2068 
Q 947 2378 1403 2484 
z
M 1172 3481 
Q 1172 3119 1398 2916 
Q 1625 2713 2034 2713 
Q 2441 2713 2670 2916 
Q 2900 3119 2900 3481 
Q 2900 3844 2670 4047 
Q 2441 4250 2034 4250 
Q 1625 4250 1398 4047 
Q 1172 3844 1172 3481 
z
" id="DejaVuSans-38" transform="scale(0.015625)"/>
       </defs>
       <use xlink:href="#DejaVuSans-30"/>
       <use x="63.623047" xlink:href="#DejaVuSans-2e"/>
       <use x="95.410156" xlink:href="#DejaVuSans-38"/>
      </g>
     </g>
    </g>
    <g id="xtick_6">
     <g id="line2d_6">
      <g>
       <use style="stroke:#000000;stroke-width:0.8;" x="391.031023" xlink:href="#m09276e1e4a" y="273.312"/>
      </g>
     </g>
     <g id="text_6">
      <!-- 1.0 -->
      <g transform="translate(383.07946 287.910437)scale(0.1 -0.1)">
       <defs>
        <path d="M 794 531 
L 1825 531 
L 1825 4091 
L 703 3866 
L 703 4441 
L 1819 4666 
L 2450 4666 
L 2450 531 
L 3481 531 
L 3481 0 
L 794 0 
L 794 531 
z
" id="DejaVuSans-31" transform="scale(0.015625)"/>
       </defs>
       <use xlink:href="#DejaVuSans-31"/>
       <use x="63.623047" xlink:href="#DejaVuSans-2e"/>
       <use x="95.410156" xlink:href="#DejaVuSans-30"/>
      </g>
     </g>
    </g>
    <g id="text_7">
     <!-- Propagation direction -->
     <g transform="translate(175.221719 301.588562)scale(0.1 -0.1)">
      <defs>
       <path d="M 1259 4147 
L 1259 2394 
L 2053 2394 
Q 2494 2394 2734 2622 
Q 2975 2850 2975 3272 
Q 2975 3691 2734 3919 
Q 2494 4147 2053 4147 
L 1259 4147 
z
M 628 4666 
L 2053 4666 
Q 2838 4666 3239 4311 
Q 3641 3956 3641 3272 
Q 3641 2581 3239 2228 
Q 2838 1875 2053 1875 
L 1259 1875 
L 1259 0 
L 628 0 
L 628 4666 
z
" id="DejaVuSans-50" transform="scale(0.015625)"/>
       <path d="M 2631 2963 
Q 2534 3019 2420 3045 
Q 2306 3072 2169 3072 
Q 1681 3072 1420 2755 
Q 1159 2438 1159 1844 
L 1159 0 
L 581 0 
L 581 3500 
L 1159 3500 
L 1159 2956 
Q 1341 3275 1631 3429 
Q 1922 3584 2338 3584 
Q 2397 3584 2469 3576 
Q 2541 3569 2628 3553 
L 2631 2963 
z
" id="DejaVuSans-72" transform="scale(0.015625)"/>
       <path d="M 1959 3097 
Q 1497 3097 1228 2736 
Q 959 2375 959 1747 
Q 959 1119 1226 758 
Q 1494 397 1959 397 
Q 2419 397 2687 759 
Q 2956 1122 2956 1747 
Q 2956 2369 2687 2733 
Q 2419 3097 1959 3097 
z
M 1959 3584 
Q 2709 3584 3137 3096 
Q 3566 2609 3566 1747 
Q 3566 888 3137 398 
Q 2709 -91 1959 -91 
Q 1206 -91 779 398 
Q 353 888 353 1747 
Q 353 2609 779 3096 
Q 1206 3584 1959 3584 
z
" id="DejaVuSans-6f" transform="scale(0.015625)"/>
       <path d="M 1159 525 
L 1159 -1331 
L 581 -1331 
L 581 3500 
L 1159 3500 
L 1159 2969 
Q 1341 3281 1617 3432 
Q 1894 3584 2278 3584 
Q 2916 3584 3314 3078 
Q 3713 2572 3713 1747 
Q 3713 922 3314 415 
Q 2916 -91 2278 -91 
Q 1894 -91 1617 61 
Q 1341 213 1159 525 
z
M 3116 1747 
Q 3116 2381 2855 2742 
Q 2594 3103 2138 3103 
Q 1681 3103 1420 2742 
Q 1159 2381 1159 1747 
Q 1159 1113 1420 752 
Q 1681 391 2138 391 
Q 2594 391 2855 752 
Q 3116 1113 3116 1747 
z
" id="DejaVuSans-70" transform="scale(0.015625)"/>
       <path d="M 2194 1759 
Q 1497 1759 1228 1600 
Q 959 1441 959 1056 
Q 959 750 1161 570 
Q 1363 391 1709 391 
Q 2188 391 2477 730 
Q 2766 1069 2766 1631 
L 2766 1759 
L 2194 1759 
z
M 3341 1997 
L 3341 0 
L 2766 0 
L 2766 531 
Q 2569 213 2275 61 
Q 1981 -91 1556 -91 
Q 1019 -91 701 211 
Q 384 513 384 1019 
Q 384 1609 779 1909 
Q 1175 2209 1959 2209 
L 2766 2209 
L 2766 2266 
Q 2766 2663 2505 2880 
Q 2244 3097 1772 3097 
Q 1472 3097 1187 3025 
Q 903 2953 641 2809 
L 641 3341 
Q 956 3463 1253 3523 
Q 1550 3584 1831 3584 
Q 2591 3584 2966 3190 
Q 3341 2797 3341 1997 
z
" id="DejaVuSans-61" transform="scale(0.015625)"/>
       <path d="M 2906 1791 
Q 2906 2416 2648 2759 
Q 2391 3103 1925 3103 
Q 1463 3103 1205 2759 
Q 947 2416 947 1791 
Q 947 1169 1205 825 
Q 1463 481 1925 481 
Q 2391 481 2648 825 
Q 2906 1169 2906 1791 
z
M 3481 434 
Q 3481 -459 3084 -895 
Q 2688 -1331 1869 -1331 
Q 1566 -1331 1297 -1286 
Q 1028 -1241 775 -1147 
L 775 -588 
Q 1028 -725 1275 -790 
Q 1522 -856 1778 -856 
Q 2344 -856 2625 -561 
Q 2906 -266 2906 331 
L 2906 616 
Q 2728 306 2450 153 
Q 2172 0 1784 0 
Q 1141 0 747 490 
Q 353 981 353 1791 
Q 353 2603 747 3093 
Q 1141 3584 1784 3584 
Q 2172 3584 2450 3431 
Q 2728 3278 2906 2969 
L 2906 3500 
L 3481 3500 
L 3481 434 
z
" id="DejaVuSans-67" transform="scale(0.015625)"/>
       <path d="M 1172 4494 
L 1172 3500 
L 2356 3500 
L 2356 3053 
L 1172 3053 
L 1172 1153 
Q 1172 725 1289 603 
Q 1406 481 1766 481 
L 2356 481 
L 2356 0 
L 1766 0 
Q 1100 0 847 248 
Q 594 497 594 1153 
L 594 3053 
L 172 3053 
L 172 3500 
L 594 3500 
L 594 4494 
L 1172 4494 
z
" id="DejaVuSans-74" transform="scale(0.015625)"/>
       <path d="M 603 3500 
L 1178 3500 
L 1178 0 
L 603 0 
L 603 3500 
z
M 603 4863 
L 1178 4863 
L 1178 4134 
L 603 4134 
L 603 4863 
z
" id="DejaVuSans-69" transform="scale(0.015625)"/>
       <path d="M 3513 2113 
L 3513 0 
L 2938 0 
L 2938 2094 
Q 2938 2591 2744 2837 
Q 2550 3084 2163 3084 
Q 1697 3084 1428 2787 
Q 1159 2491 1159 1978 
L 1159 0 
L 581 0 
L 581 3500 
L 1159 3500 
L 1159 2956 
Q 1366 3272 1645 3428 
Q 1925 3584 2291 3584 
Q 2894 3584 3203 3211 
Q 3513 2838 3513 2113 
z
" id="DejaVuSans-6e" transform="scale(0.015625)"/>
       <path id="DejaVuSans-20" transform="scale(0.015625)"/>
       <path d="M 2906 2969 
L 2906 4863 
L 3481 4863 
L 3481 0 
L 2906 0 
L 2906 525 
Q 2725 213 2448 61 
Q 2172 -91 1784 -91 
Q 1150 -91 751 415 
Q 353 922 353 1747 
Q 353 2572 751 3078 
Q 1150 3584 1784 3584 
Q 2172 3584 2448 3432 
Q 2725 3281 2906 2969 
z
M 947 1747 
Q 947 1113 1208 752 
Q 1469 391 1925 391 
Q 2381 391 2643 752 
Q 2906 1113 2906 1747 
Q 2906 2381 2643 2742 
Q 2381 3103 1925 3103 
Q 1469 3103 1208 2742 
Q 947 2381 947 1747 
z
" id="DejaVuSans-64" transform="scale(0.015625)"/>
       <path d="M 3597 1894 
L 3597 1613 
L 953 1613 
Q 991 1019 1311 708 
Q 1631 397 2203 397 
Q 2534 397 2845 478 
Q 3156 559 3463 722 
L 3463 178 
Q 3153 47 2828 -22 
Q 2503 -91 2169 -91 
Q 1331 -91 842 396 
Q 353 884 353 1716 
Q 353 2575 817 3079 
Q 1281 3584 2069 3584 
Q 2775 3584 3186 3129 
Q 3597 2675 3597 1894 
z
M 3022 2063 
Q 3016 2534 2758 2815 
Q 2500 3097 2075 3097 
Q 1594 3097 1305 2825 
Q 1016 2553 972 2059 
L 3022 2063 
z
" id="DejaVuSans-65" transform="scale(0.015625)"/>
       <path d="M 3122 3366 
L 3122 2828 
Q 2878 2963 2633 3030 
Q 2388 3097 2138 3097 
Q 1578 3097 1268 2742 
Q 959 2388 959 1747 
Q 959 1106 1268 751 
Q 1578 397 2138 397 
Q 2388 397 2633 464 
Q 2878 531 3122 666 
L 3122 134 
Q 2881 22 2623 -34 
Q 2366 -91 2075 -91 
Q 1284 -91 818 406 
Q 353 903 353 1747 
Q 353 2603 823 3093 
Q 1294 3584 2113 3584 
Q 2378 3584 2631 3529 
Q 2884 3475 3122 3366 
z
" id="DejaVuSans-63" transform="scale(0.015625)"/>
      </defs>
      <use xlink:href="#DejaVuSans-50"/>
      <use x="58.552734" xlink:href="#DejaVuSans-72"/>
      <use x="97.416016" xlink:href="#DejaVuSans-6f"/>
      <use x="158.597656" xlink:href="#DejaVuSans-70"/>
      <use x="222.074219" xlink:href="#DejaVuSans-61"/>
      <use x="283.353516" xlink:href="#DejaVuSans-67"/>
      <use x="346.830078" xlink:href="#DejaVuSans-61"/>
      <use x="408.109375" xlink:href="#DejaVuSans-74"/>
      <use x="447.318359" xlink:href="#DejaVuSans-69"/>
      <use x="475.101562" xlink:href="#DejaVuSans-6f"/>
      <use x="536.283203" xlink:href="#DejaVuSans-6e"/>
      <use x="599.662109" xlink:href="#DejaVuSans-20"/>
      <use x="631.449219" xlink:href="#DejaVuSans-64"/>
      <use x="694.925781" xlink:href="#DejaVuSans-69"/>
      <use x="722.708984" xlink:href="#DejaVuSans-72"/>
      <use x="761.572266" xlink:href="#DejaVuSans-65"/>
      <use x="823.095703" xlink:href="#DejaVuSans-63"/>
      <use x="878.076172" xlink:href="#DejaVuSans-74"/>
      <use x="917.285156" xlink:href="#DejaVuSans-69"/>
      <use x="945.068359" xlink:href="#DejaVuSans-6f"/>
      <use x="1006.25" xlink:href="#DejaVuSans-6e"/>
     </g>
    </g>
   </g>
   <g id="matplotlib.axis_2">
    <g id="ytick_1">
     <g id="line2d_7">
      <defs>
       <path d="M 0 0 
L -3.5 0 
" id="m400ff53e22" style="stroke:#000000;stroke-width:0.8;"/>
      </defs>
      <g>
       <use style="stroke:#000000;stroke-width:0.8;" x="50.14375" xlink:href="#m400ff53e22" y="273.312"/>
      </g>
     </g>
     <g id="text_8">
      <!-- 0.00 -->
      <g transform="translate(20.878125 277.111219)scale(0.1 -0.1)">
       <use xlink:href="#DejaVuSans-30"/>
       <use x="63.623047" xlink:href="#DejaVuSans-2e"/>
       <use x="95.410156" xlink:href="#DejaVuSans-30"/>
       <use x="159.033203" xlink:href="#DejaVuSans-30"/>
      </g>
     </g>
    </g>
    <g id="ytick_2">
     <g id="line2d_8">
      <g>
       <use style="stroke:#000000;stroke-width:0.8;" x="50.14375" xlink:href="#m400ff53e22" y="243.196961"/>
      </g>
     </g>
     <g id="text_9">
      <!-- 0.25 -->
      <g transform="translate(20.878125 246.99618)scale(0.1 -0.1)">
       <defs>
        <path d="M 691 4666 
L 3169 4666 
L 3169 4134 
L 1269 4134 
L 1269 2991 
Q 1406 3038 1543 3061 
Q 1681 3084 1819 3084 
Q 2600 3084 3056 2656 
Q 3513 2228 3513 1497 
Q 3513 744 3044 326 
Q 2575 -91 1722 -91 
Q 1428 -91 1123 -41 
Q 819 9 494 109 
L 494 744 
Q 775 591 1075 516 
Q 1375 441 1709 441 
Q 2250 441 2565 725 
Q 2881 1009 2881 1497 
Q 2881 1984 2565 2268 
Q 2250 2553 1709 2553 
Q 1456 2553 1204 2497 
Q 953 2441 691 2322 
L 691 4666 
z
" id="DejaVuSans-35" transform="scale(0.015625)"/>
       </defs>
       <use xlink:href="#DejaVuSans-30"/>
       <use x="63.623047" xlink:href="#DejaVuSans-2e"/>
       <use x="95.410156" xlink:href="#DejaVuSans-32"/>
       <use x="159.033203" xlink:href="#DejaVuSans-35"/>
      </g>
     </g>
    </g>
    <g id="ytick_3">
     <g id="line2d_9">
      <g>
       <use style="stroke:#000000;stroke-width:0.8;" x="50.14375" xlink:href="#m400ff53e22" y="213.081923"/>
      </g>
     </g>
     <g id="text_10">
      <!-- 0.50 -->
      <g transform="translate(20.878125 216.881142)scale(0.1 -0.1)">
       <use xlink:href="#DejaVuSans-30"/>
       <use x="63.623047" xlink:href="#DejaVuSans-2e"/>
       <use x="95.410156" xlink:href="#DejaVuSans-35"/>
       <use x="159.033203" xlink:href="#DejaVuSans-30"/>
      </g>
     </g>
    </g>
    <g id="ytick_4">
     <g id="line2d_10">
      <g>
       <use style="stroke:#000000;stroke-width:0.8;" x="50.14375" xlink:href="#m400ff53e22" y="182.966884"/>
      </g>
     </g>
     <g id="text_11">
      <!-- 0.75 -->
      <g transform="translate(20.878125 186.766103)scale(0.1 -0.1)">
       <defs>
        <path d="M 525 4666 
L 3525 4666 
L 3525 4397 
L 1831 0 
L 1172 0 
L 2766 4134 
L 525 4134 
L 525 4666 
z
" id="DejaVuSans-37" transform="scale(0.015625)"/>
       </defs>
       <use xlink:href="#DejaVuSans-30"/>
       <use x="63.623047" xlink:href="#DejaVuSans-2e"/>
       <use x="95.410156" xlink:href="#DejaVuSans-37"/>
       <use x="159.033203" xlink:href="#DejaVuSans-35"/>
      </g>
     </g>
    </g>
    <g id="ytick_5">
     <g id="line2d_11">
      <g>
       <use style="stroke:#000000;stroke-width:0.8;" x="50.14375" xlink:href="#m400ff53e22" y="152.851846"/>
      </g>
     </g>
     <g id="text_12">
      <!-- 1.00 -->
      <g transform="translate(20.878125 156.651065)scale(0.1 -0.1)">
       <use xlink:href="#DejaVuSans-31"/>
       <use x="63.623047" xlink:href="#DejaVuSans-2e"/>
       <use x="95.410156" xlink:href="#DejaVuSans-30"/>
       <use x="159.033203" xlink:href="#DejaVuSans-30"/>
      </g>
     </g>
    </g>
    <g id="ytick_6">
     <g id="line2d_12">
      <g>
       <use style="stroke:#000000;stroke-width:0.8;" x="50.14375" xlink:href="#m400ff53e22" y="122.736807"/>
      </g>
     </g>
     <g id="text_13">
      <!-- 1.25 -->
      <g transform="translate(20.878125 126.536026)scale(0.1 -0.1)">
       <use xlink:href="#DejaVuSans-31"/>
       <use x="63.623047" xlink:href="#DejaVuSans-2e"/>
       <use x="95.410156" xlink:href="#DejaVuSans-32"/>
       <use x="159.033203" xlink:href="#DejaVuSans-35"/>
      </g>
     </g>
    </g>
    <g id="ytick_7">
     <g id="line2d_13">
      <g>
       <use style="stroke:#000000;stroke-width:0.8;" x="50.14375" xlink:href="#m400ff53e22" y="92.621769"/>
      </g>
     </g>
     <g id="text_14">
      <!-- 1.50 -->
      <g transform="translate(20.878125 96.420988)scale(0.1 -0.1)">
       <use xlink:href="#DejaVuSans-31"/>
       <use x="63.623047" xlink:href="#DejaVuSans-2e"/>
       <use x="95.410156" xlink:href="#DejaVuSans-35"/>
       <use x="159.033203" xlink:href="#DejaVuSans-30"/>
      </g>
     </g>
    </g>
    <g id="ytick_8">
     <g id="line2d_14">
      <g>
       <use style="stroke:#000000;stroke-width:0.8;" x="50.14375" xlink:href="#m400ff53e22" y="62.50673"/>
      </g>
     </g>
     <g id="text_15">
      <!-- 1.75 -->
      <g transform="translate(20.878125 66.305949)scale(0.1 -0.1)">
       <use xlink:href="#DejaVuSans-31"/>
       <use x="63.623047" xlink:href="#DejaVuSans-2e"/>
       <use x="95.410156" xlink:href="#DejaVuSans-37"/>
       <use x="159.033203" xlink:href="#DejaVuSans-35"/>
      </g>
     </g>
    </g>
    <g id="ytick_9">
     <g id="line2d_15">
      <g>
       <use style="stroke:#000000;stroke-width:0.8;" x="50.14375" xlink:href="#m400ff53e22" y="32.391692"/>
      </g>
     </g>
     <g id="text_16">
      <!-- 2.00 -->
      <g transform="translate(20.878125 36.190911)scale(0.1 -0.1)">
       <use xlink:href="#DejaVuSans-32"/>
       <use x="63.623047" xlink:href="#DejaVuSans-2e"/>
       <use x="95.410156" xlink:href="#DejaVuSans-30"/>
       <use x="159.033203" xlink:href="#DejaVuSans-30"/>
      </g>
     </g>
    </g>
    <g id="text_17">
     <!-- Probability density -->
     <g transform="translate(14.798438 186.606781)rotate(-90)scale(0.1 -0.1)">
      <defs>
       <path d="M 3116 1747 
Q 3116 2381 2855 2742 
Q 2594 3103 2138 3103 
Q 1681 3103 1420 2742 
Q 1159 2381 1159 1747 
Q 1159 1113 1420 752 
Q 1681 391 2138 391 
Q 2594 391 2855 752 
Q 3116 1113 3116 1747 
z
M 1159 2969 
Q 1341 3281 1617 3432 
Q 1894 3584 2278 3584 
Q 2916 3584 3314 3078 
Q 3713 2572 3713 1747 
Q 3713 922 3314 415 
Q 2916 -91 2278 -91 
Q 1894 -91 1617 61 
Q 1341 213 1159 525 
L 1159 0 
L 581 0 
L 581 4863 
L 1159 4863 
L 1159 2969 
z
" id="DejaVuSans-62" transform="scale(0.015625)"/>
       <path d="M 603 4863 
L 1178 4863 
L 1178 0 
L 603 0 
L 603 4863 
z
" id="DejaVuSans-6c" transform="scale(0.015625)"/>
       <path d="M 2059 -325 
Q 1816 -950 1584 -1140 
Q 1353 -1331 966 -1331 
L 506 -1331 
L 506 -850 
L 844 -850 
Q 1081 -850 1212 -737 
Q 1344 -625 1503 -206 
L 1606 56 
L 191 3500 
L 800 3500 
L 1894 763 
L 2988 3500 
L 3597 3500 
L 2059 -325 
z
" id="DejaVuSans-79" transform="scale(0.015625)"/>
       <path d="M 2834 3397 
L 2834 2853 
Q 2591 2978 2328 3040 
Q 2066 3103 1784 3103 
Q 1356 3103 1142 2972 
Q 928 2841 928 2578 
Q 928 2378 1081 2264 
Q 1234 2150 1697 2047 
L 1894 2003 
Q 2506 1872 2764 1633 
Q 3022 1394 3022 966 
Q 3022 478 2636 193 
Q 2250 -91 1575 -91 
Q 1294 -91 989 -36 
Q 684 19 347 128 
L 347 722 
Q 666 556 975 473 
Q 1284 391 1588 391 
Q 1994 391 2212 530 
Q 2431 669 2431 922 
Q 2431 1156 2273 1281 
Q 2116 1406 1581 1522 
L 1381 1569 
Q 847 1681 609 1914 
Q 372 2147 372 2553 
Q 372 3047 722 3315 
Q 1072 3584 1716 3584 
Q 2034 3584 2315 3537 
Q 2597 3491 2834 3397 
z
" id="DejaVuSans-73" transform="scale(0.015625)"/>
      </defs>
      <use xlink:href="#DejaVuSans-50"/>
      <use x="58.552734" xlink:href="#DejaVuSans-72"/>
      <use x="97.416016" xlink:href="#DejaVuSans-6f"/>
      <use x="158.597656" xlink:href="#DejaVuSans-62"/>
      <use x="222.074219" xlink:href="#DejaVuSans-61"/>
      <use x="283.353516" xlink:href="#DejaVuSans-62"/>
      <use x="346.830078" xlink:href="#DejaVuSans-69"/>
      <use x="374.613281" xlink:href="#DejaVuSans-6c"/>
      <use x="402.396484" xlink:href="#DejaVuSans-69"/>
      <use x="430.179688" xlink:href="#DejaVuSans-74"/>
      <use x="469.388672" xlink:href="#DejaVuSans-79"/>
      <use x="528.568359" xlink:href="#DejaVuSans-20"/>
      <use x="560.355469" xlink:href="#DejaVuSans-64"/>
      <use x="623.832031" xlink:href="#DejaVuSans-65"/>
      <use x="685.355469" xlink:href="#DejaVuSans-6e"/>
      <use x="748.734375" xlink:href="#DejaVuSans-73"/>
      <use x="800.833984" xlink:href="#DejaVuSans-69"/>
      <use x="828.617188" xlink:href="#DejaVuSans-74"/>
      <use x="867.826172" xlink:href="#DejaVuSans-79"/>
     </g>
    </g>
   </g>
   <g id="line2d_16">
    <path clip-path="url(#pde461a40cc)" d="M 66.376477 273.312 
L 391.031023 32.391692 
L 391.031023 32.391692 
" style="fill:none;stroke:#ff7f0e;stroke-linecap:square;stroke-width:1.5;"/>
   </g>
   <g id="patch_203">
    <path d="M 50.14375 273.312 
L 50.14375 7.2 
" style="fill:none;stroke:#000000;stroke-linecap:square;stroke-linejoin:miter;stroke-width:0.8;"/>
   </g>
   <g id="patch_204">
    <path d="M 407.26375 273.312 
L 407.26375 7.2 
" style="fill:none;stroke:#000000;stroke-linecap:square;stroke-linejoin:miter;stroke-width:0.8;"/>
   </g>
   <g id="patch_205">
    <path d="M 50.14375 273.312 
L 407.26375 273.312 
" style="fill:none;stroke:#000000;stroke-linecap:square;stroke-linejoin:miter;stroke-width:0.8;"/>
   </g>
   <g id="patch_206">
    <path d="M 50.14375 7.2 
L 407.26375 7.2 
" style="fill:none;stroke:#000000;stroke-linecap:square;stroke-linejoin:miter;stroke-width:0.8;"/>
   </g>
  </g>
 </g>
 <defs>
  <clipPath id="pde461a40cc">
   <rect height="266.112" width="357.12" x="50.14375" y="7.2"/>
  </clipPath>
 </defs>
</svg>
