<?xml version="1.0" encoding="utf-8" standalone="no"?>
<!DOCTYPE svg PUBLIC "-//W3C//DTD SVG 1.1//EN"
  "http://www.w3.org/Graphics/SVG/1.1/DTD/svg11.dtd">
<svg height="310.86825pt" version="1.1" viewBox="0 0 408.10125 310.86825" width="408.10125pt" xmlns="http://www.w3.org/2000/svg" xmlns:xlink="http://www.w3.org/1999/xlink">
 <metadata>
  <rdf:RDF xmlns:cc="http://creativecommons.org/ns#" xmlns:dc="http://purl.org/dc/elements/1.1/" xmlns:rdf="http://www.w3.org/1999/02/22-rdf-syntax-ns#">
   <cc:Work>
    <dc:type rdf:resource="http://purl.org/dc/dcmitype/StillImage"/>
    <dc:date>2021-07-07T05:45:19.716074</dc:date>
    <dc:format>image/svg+xml</dc:format>
    <dc:creator>
     <cc:Agent>
      <dc:title>Matplotlib v3.4.2, https://matplotlib.org/</dc:title>
     </cc:Agent>
    </dc:creator>
   </cc:Work>
  </rdf:RDF>
 </metadata>
 <defs>
  <style type="text/css">*{stroke-linecap:butt;stroke-linejoin:round;}</style>
 </defs>
 <g id="figure_1">
  <g id="patch_1">
   <path d="M 0 310.86825 
L 408.10125 310.86825 
L 408.10125 0 
L 0 0 
z
" style="fill:#ffffff;"/>
  </g>
  <g id="axes_1">
   <g id="patch_2">
    <path d="M 43.78125 273.312 
L 400.90125 273.312 
L 400.90125 7.2 
L 43.78125 7.2 
z
" style="fill:#ffffff;"/>
   </g>
   <g id="patch_3">
    <path clip-path="url(#p70aa6826b2)" d="M 61.17387 273.312 
L 62.787992 273.312 
L 62.787992 268.286278 
L 61.17387 268.286278 
z
" style="fill:#1f77b4;"/>
   </g>
   <g id="patch_4">
    <path clip-path="url(#p70aa6826b2)" d="M 62.787992 273.312 
L 64.402113 273.312 
L 64.402113 266.132397 
L 62.787992 266.132397 
z
" style="fill:#1f77b4;"/>
   </g>
   <g id="patch_5">
    <path clip-path="url(#p70aa6826b2)" d="M 64.402113 273.312 
L 66.016234 273.312 
L 66.016234 262.542595 
L 64.402113 262.542595 
z
" style="fill:#1f77b4;"/>
   </g>
   <g id="patch_6">
    <path clip-path="url(#p70aa6826b2)" d="M 66.016234 273.312 
L 67.630355 273.312 
L 67.630355 259.670754 
L 66.016234 259.670754 
z
" style="fill:#1f77b4;"/>
   </g>
   <g id="patch_7">
    <path clip-path="url(#p70aa6826b2)" d="M 67.630355 273.312 
L 69.244477 273.312 
L 69.244477 249.619309 
L 67.630355 249.619309 
z
" style="fill:#1f77b4;"/>
   </g>
   <g id="patch_8">
    <path clip-path="url(#p70aa6826b2)" d="M 69.244477 273.312 
L 70.858598 273.312 
L 70.858598 253.20911 
L 69.244477 253.20911 
z
" style="fill:#1f77b4;"/>
   </g>
   <g id="patch_9">
    <path clip-path="url(#p70aa6826b2)" d="M 70.858598 273.312 
L 72.472719 273.312 
L 72.472719 249.619309 
L 70.858598 249.619309 
z
" style="fill:#1f77b4;"/>
   </g>
   <g id="patch_10">
    <path clip-path="url(#p70aa6826b2)" d="M 72.472719 273.312 
L 74.086841 273.312 
L 74.086841 248.183388 
L 72.472719 248.183388 
z
" style="fill:#1f77b4;"/>
   </g>
   <g id="patch_11">
    <path clip-path="url(#p70aa6826b2)" d="M 74.086841 273.312 
L 75.700962 273.312 
L 75.700962 239.567864 
L 74.086841 239.567864 
z
" style="fill:#1f77b4;"/>
   </g>
   <g id="patch_12">
    <path clip-path="url(#p70aa6826b2)" d="M 75.700962 273.312 
L 77.315083 273.312 
L 77.315083 241.721745 
L 75.700962 241.721745 
z
" style="fill:#1f77b4;"/>
   </g>
   <g id="patch_13">
    <path clip-path="url(#p70aa6826b2)" d="M 77.315083 273.312 
L 78.929204 273.312 
L 78.929204 231.6703 
L 77.315083 231.6703 
z
" style="fill:#1f77b4;"/>
   </g>
   <g id="patch_14">
    <path clip-path="url(#p70aa6826b2)" d="M 78.929204 273.312 
L 80.543326 273.312 
L 80.543326 220.900895 
L 78.929204 220.900895 
z
" style="fill:#1f77b4;"/>
   </g>
   <g id="patch_15">
    <path clip-path="url(#p70aa6826b2)" d="M 80.543326 273.312 
L 82.157447 273.312 
L 82.157447 230.95234 
L 80.543326 230.95234 
z
" style="fill:#1f77b4;"/>
   </g>
   <g id="patch_16">
    <path clip-path="url(#p70aa6826b2)" d="M 82.157447 273.312 
L 83.771568 273.312 
L 83.771568 231.6703 
L 82.157447 231.6703 
z
" style="fill:#1f77b4;"/>
   </g>
   <g id="patch_17">
    <path clip-path="url(#p70aa6826b2)" d="M 83.771568 273.312 
L 85.38569 273.312 
L 85.38569 223.054776 
L 83.771568 223.054776 
z
" style="fill:#1f77b4;"/>
   </g>
   <g id="patch_18">
    <path clip-path="url(#p70aa6826b2)" d="M 85.38569 273.312 
L 86.999811 273.312 
L 86.999811 207.977609 
L 85.38569 207.977609 
z
" style="fill:#1f77b4;"/>
   </g>
   <g id="patch_19">
    <path clip-path="url(#p70aa6826b2)" d="M 86.999811 273.312 
L 88.613932 273.312 
L 88.613932 206.541688 
L 86.999811 206.541688 
z
" style="fill:#1f77b4;"/>
   </g>
   <g id="patch_20">
    <path clip-path="url(#p70aa6826b2)" d="M 88.613932 273.312 
L 90.228053 273.312 
L 90.228053 218.747014 
L 88.613932 218.747014 
z
" style="fill:#1f77b4;"/>
   </g>
   <g id="patch_21">
    <path clip-path="url(#p70aa6826b2)" d="M 90.228053 273.312 
L 91.842175 273.312 
L 91.842175 202.951887 
L 90.228053 202.951887 
z
" style="fill:#1f77b4;"/>
   </g>
   <g id="patch_22">
    <path clip-path="url(#p70aa6826b2)" d="M 91.842175 273.312 
L 93.456296 273.312 
L 93.456296 207.259649 
L 91.842175 207.259649 
z
" style="fill:#1f77b4;"/>
   </g>
   <g id="patch_23">
    <path clip-path="url(#p70aa6826b2)" d="M 93.456296 273.312 
L 95.070417 273.312 
L 95.070417 201.515966 
L 93.456296 201.515966 
z
" style="fill:#1f77b4;"/>
   </g>
   <g id="patch_24">
    <path clip-path="url(#p70aa6826b2)" d="M 95.070417 273.312 
L 96.684539 273.312 
L 96.684539 198.644125 
L 95.070417 198.644125 
z
" style="fill:#1f77b4;"/>
   </g>
   <g id="patch_25">
    <path clip-path="url(#p70aa6826b2)" d="M 96.684539 273.312 
L 98.29866 273.312 
L 98.29866 180.695116 
L 96.684539 180.695116 
z
" style="fill:#1f77b4;"/>
   </g>
   <g id="patch_26">
    <path clip-path="url(#p70aa6826b2)" d="M 98.29866 273.312 
L 99.912781 273.312 
L 99.912781 179.977156 
L 98.29866 179.977156 
z
" style="fill:#1f77b4;"/>
   </g>
   <g id="patch_27">
    <path clip-path="url(#p70aa6826b2)" d="M 99.912781 273.312 
L 101.526902 273.312 
L 101.526902 172.079592 
L 99.912781 172.079592 
z
" style="fill:#1f77b4;"/>
   </g>
   <g id="patch_28">
    <path clip-path="url(#p70aa6826b2)" d="M 101.526902 273.312 
L 103.141024 273.312 
L 103.141024 181.413076 
L 101.526902 181.413076 
z
" style="fill:#1f77b4;"/>
   </g>
   <g id="patch_29">
    <path clip-path="url(#p70aa6826b2)" d="M 103.141024 273.312 
L 104.755145 273.312 
L 104.755145 174.951433 
L 103.141024 174.951433 
z
" style="fill:#1f77b4;"/>
   </g>
   <g id="patch_30">
    <path clip-path="url(#p70aa6826b2)" d="M 104.755145 273.312 
L 106.369266 273.312 
L 106.369266 175.669394 
L 104.755145 175.669394 
z
" style="fill:#1f77b4;"/>
   </g>
   <g id="patch_31">
    <path clip-path="url(#p70aa6826b2)" d="M 106.369266 273.312 
L 107.983388 273.312 
L 107.983388 173.515513 
L 106.369266 173.515513 
z
" style="fill:#1f77b4;"/>
   </g>
   <g id="patch_32">
    <path clip-path="url(#p70aa6826b2)" d="M 107.983388 273.312 
L 109.597509 273.312 
L 109.597509 166.335909 
L 107.983388 166.335909 
z
" style="fill:#1f77b4;"/>
   </g>
   <g id="patch_33">
    <path clip-path="url(#p70aa6826b2)" d="M 109.597509 273.312 
L 111.21163 273.312 
L 111.21163 170.643671 
L 109.597509 170.643671 
z
" style="fill:#1f77b4;"/>
   </g>
   <g id="patch_34">
    <path clip-path="url(#p70aa6826b2)" d="M 111.21163 273.312 
L 112.825751 273.312 
L 112.825751 164.899989 
L 111.21163 164.899989 
z
" style="fill:#1f77b4;"/>
   </g>
   <g id="patch_35">
    <path clip-path="url(#p70aa6826b2)" d="M 112.825751 273.312 
L 114.439873 273.312 
L 114.439873 157.002425 
L 112.825751 157.002425 
z
" style="fill:#1f77b4;"/>
   </g>
   <g id="patch_36">
    <path clip-path="url(#p70aa6826b2)" d="M 114.439873 273.312 
L 116.053994 273.312 
L 116.053994 146.23302 
L 114.439873 146.23302 
z
" style="fill:#1f77b4;"/>
   </g>
   <g id="patch_37">
    <path clip-path="url(#p70aa6826b2)" d="M 116.053994 273.312 
L 117.668115 273.312 
L 117.668115 146.23302 
L 116.053994 146.23302 
z
" style="fill:#1f77b4;"/>
   </g>
   <g id="patch_38">
    <path clip-path="url(#p70aa6826b2)" d="M 117.668115 273.312 
L 119.282237 273.312 
L 119.282237 146.95098 
L 117.668115 146.95098 
z
" style="fill:#1f77b4;"/>
   </g>
   <g id="patch_39">
    <path clip-path="url(#p70aa6826b2)" d="M 119.282237 273.312 
L 120.896358 273.312 
L 120.896358 157.002425 
L 119.282237 157.002425 
z
" style="fill:#1f77b4;"/>
   </g>
   <g id="patch_40">
    <path clip-path="url(#p70aa6826b2)" d="M 120.896358 273.312 
L 122.510479 273.312 
L 122.510479 160.592227 
L 120.896358 160.592227 
z
" style="fill:#1f77b4;"/>
   </g>
   <g id="patch_41">
    <path clip-path="url(#p70aa6826b2)" d="M 122.510479 273.312 
L 124.1246 273.312 
L 124.1246 158.438346 
L 122.510479 158.438346 
z
" style="fill:#1f77b4;"/>
   </g>
   <g id="patch_42">
    <path clip-path="url(#p70aa6826b2)" d="M 124.1246 273.312 
L 125.738722 273.312 
L 125.738722 144.079139 
L 124.1246 144.079139 
z
" style="fill:#1f77b4;"/>
   </g>
   <g id="patch_43">
    <path clip-path="url(#p70aa6826b2)" d="M 125.738722 273.312 
L 127.352843 273.312 
L 127.352843 139.771377 
L 125.738722 139.771377 
z
" style="fill:#1f77b4;"/>
   </g>
   <g id="patch_44">
    <path clip-path="url(#p70aa6826b2)" d="M 127.352843 273.312 
L 128.966964 273.312 
L 128.966964 130.437892 
L 127.352843 130.437892 
z
" style="fill:#1f77b4;"/>
   </g>
   <g id="patch_45">
    <path clip-path="url(#p70aa6826b2)" d="M 128.966964 273.312 
L 130.581086 273.312 
L 130.581086 153.412623 
L 128.966964 153.412623 
z
" style="fill:#1f77b4;"/>
   </g>
   <g id="patch_46">
    <path clip-path="url(#p70aa6826b2)" d="M 130.581086 273.312 
L 132.195207 273.312 
L 132.195207 130.437892 
L 130.581086 130.437892 
z
" style="fill:#1f77b4;"/>
   </g>
   <g id="patch_47">
    <path clip-path="url(#p70aa6826b2)" d="M 132.195207 273.312 
L 133.809328 273.312 
L 133.809328 136.899535 
L 132.195207 136.899535 
z
" style="fill:#1f77b4;"/>
   </g>
   <g id="patch_48">
    <path clip-path="url(#p70aa6826b2)" d="M 133.809328 273.312 
L 135.423449 273.312 
L 135.423449 126.13013 
L 133.809328 126.13013 
z
" style="fill:#1f77b4;"/>
   </g>
   <g id="patch_49">
    <path clip-path="url(#p70aa6826b2)" d="M 135.423449 273.312 
L 137.037571 273.312 
L 137.037571 111.770924 
L 135.423449 111.770924 
z
" style="fill:#1f77b4;"/>
   </g>
   <g id="patch_50">
    <path clip-path="url(#p70aa6826b2)" d="M 137.037571 273.312 
L 138.651692 273.312 
L 138.651692 121.822368 
L 137.037571 121.822368 
z
" style="fill:#1f77b4;"/>
   </g>
   <g id="patch_51">
    <path clip-path="url(#p70aa6826b2)" d="M 138.651692 273.312 
L 140.265813 273.312 
L 140.265813 123.258289 
L 138.651692 123.258289 
z
" style="fill:#1f77b4;"/>
   </g>
   <g id="patch_52">
    <path clip-path="url(#p70aa6826b2)" d="M 140.265813 273.312 
L 141.879935 273.312 
L 141.879935 124.69421 
L 140.265813 124.69421 
z
" style="fill:#1f77b4;"/>
   </g>
   <g id="patch_53">
    <path clip-path="url(#p70aa6826b2)" d="M 141.879935 273.312 
L 143.494056 273.312 
L 143.494056 117.514606 
L 141.879935 117.514606 
z
" style="fill:#1f77b4;"/>
   </g>
   <g id="patch_54">
    <path clip-path="url(#p70aa6826b2)" d="M 143.494056 273.312 
L 145.108177 273.312 
L 145.108177 108.181122 
L 143.494056 108.181122 
z
" style="fill:#1f77b4;"/>
   </g>
   <g id="patch_55">
    <path clip-path="url(#p70aa6826b2)" d="M 145.108177 273.312 
L 146.722298 273.312 
L 146.722298 106.745201 
L 145.108177 106.745201 
z
" style="fill:#1f77b4;"/>
   </g>
   <g id="patch_56">
    <path clip-path="url(#p70aa6826b2)" d="M 146.722298 273.312 
L 148.33642 273.312 
L 148.33642 124.69421 
L 146.722298 124.69421 
z
" style="fill:#1f77b4;"/>
   </g>
   <g id="patch_57">
    <path clip-path="url(#p70aa6826b2)" d="M 148.33642 273.312 
L 149.950541 273.312 
L 149.950541 94.539875 
L 148.33642 94.539875 
z
" style="fill:#1f77b4;"/>
   </g>
   <g id="patch_58">
    <path clip-path="url(#p70aa6826b2)" d="M 149.950541 273.312 
L 151.564662 273.312 
L 151.564662 93.103955 
L 149.950541 93.103955 
z
" style="fill:#1f77b4;"/>
   </g>
   <g id="patch_59">
    <path clip-path="url(#p70aa6826b2)" d="M 151.564662 273.312 
L 153.178784 273.312 
L 153.178784 70.129224 
L 151.564662 70.129224 
z
" style="fill:#1f77b4;"/>
   </g>
   <g id="patch_60">
    <path clip-path="url(#p70aa6826b2)" d="M 153.178784 273.312 
L 154.792905 273.312 
L 154.792905 114.642765 
L 153.178784 114.642765 
z
" style="fill:#1f77b4;"/>
   </g>
   <g id="patch_61">
    <path clip-path="url(#p70aa6826b2)" d="M 154.792905 273.312 
L 156.407026 273.312 
L 156.407026 82.33455 
L 154.792905 82.33455 
z
" style="fill:#1f77b4;"/>
   </g>
   <g id="patch_62">
    <path clip-path="url(#p70aa6826b2)" d="M 156.407026 273.312 
L 158.021147 273.312 
L 158.021147 99.565598 
L 156.407026 99.565598 
z
" style="fill:#1f77b4;"/>
   </g>
   <g id="patch_63">
    <path clip-path="url(#p70aa6826b2)" d="M 158.021147 273.312 
L 159.635269 273.312 
L 159.635269 84.488431 
L 158.021147 84.488431 
z
" style="fill:#1f77b4;"/>
   </g>
   <g id="patch_64">
    <path clip-path="url(#p70aa6826b2)" d="M 159.635269 273.312 
L 161.24939 273.312 
L 161.24939 90.950074 
L 159.635269 90.950074 
z
" style="fill:#1f77b4;"/>
   </g>
   <g id="patch_65">
    <path clip-path="url(#p70aa6826b2)" d="M 161.24939 273.312 
L 162.863511 273.312 
L 162.863511 87.360272 
L 161.24939 87.360272 
z
" style="fill:#1f77b4;"/>
   </g>
   <g id="patch_66">
    <path clip-path="url(#p70aa6826b2)" d="M 162.863511 273.312 
L 164.477633 273.312 
L 164.477633 93.103955 
L 162.863511 93.103955 
z
" style="fill:#1f77b4;"/>
   </g>
   <g id="patch_67">
    <path clip-path="url(#p70aa6826b2)" d="M 164.477633 273.312 
L 166.091754 273.312 
L 166.091754 94.539875 
L 164.477633 94.539875 
z
" style="fill:#1f77b4;"/>
   </g>
   <g id="patch_68">
    <path clip-path="url(#p70aa6826b2)" d="M 166.091754 273.312 
L 167.705875 273.312 
L 167.705875 88.796193 
L 166.091754 88.796193 
z
" style="fill:#1f77b4;"/>
   </g>
   <g id="patch_69">
    <path clip-path="url(#p70aa6826b2)" d="M 167.705875 273.312 
L 169.319996 273.312 
L 169.319996 72.283105 
L 167.705875 72.283105 
z
" style="fill:#1f77b4;"/>
   </g>
   <g id="patch_70">
    <path clip-path="url(#p70aa6826b2)" d="M 169.319996 273.312 
L 170.934118 273.312 
L 170.934118 106.745201 
L 169.319996 106.745201 
z
" style="fill:#1f77b4;"/>
   </g>
   <g id="patch_71">
    <path clip-path="url(#p70aa6826b2)" d="M 170.934118 273.312 
L 172.548239 273.312 
L 172.548239 85.206391 
L 170.934118 85.206391 
z
" style="fill:#1f77b4;"/>
   </g>
   <g id="patch_72">
    <path clip-path="url(#p70aa6826b2)" d="M 172.548239 273.312 
L 174.16236 273.312 
L 174.16236 88.796193 
L 172.548239 88.796193 
z
" style="fill:#1f77b4;"/>
   </g>
   <g id="patch_73">
    <path clip-path="url(#p70aa6826b2)" d="M 174.16236 273.312 
L 175.776482 273.312 
L 175.776482 60.795739 
L 174.16236 60.795739 
z
" style="fill:#1f77b4;"/>
   </g>
   <g id="patch_74">
    <path clip-path="url(#p70aa6826b2)" d="M 175.776482 273.312 
L 177.390603 273.312 
L 177.390603 65.821462 
L 175.776482 65.821462 
z
" style="fill:#1f77b4;"/>
   </g>
   <g id="patch_75">
    <path clip-path="url(#p70aa6826b2)" d="M 177.390603 273.312 
L 179.004724 273.312 
L 179.004724 56.487977 
L 177.390603 56.487977 
z
" style="fill:#1f77b4;"/>
   </g>
   <g id="patch_76">
    <path clip-path="url(#p70aa6826b2)" d="M 179.004724 273.312 
L 180.618845 273.312 
L 180.618845 45.718572 
L 179.004724 45.718572 
z
" style="fill:#1f77b4;"/>
   </g>
   <g id="patch_77">
    <path clip-path="url(#p70aa6826b2)" d="M 180.618845 273.312 
L 182.232967 273.312 
L 182.232967 67.257382 
L 180.618845 67.257382 
z
" style="fill:#1f77b4;"/>
   </g>
   <g id="patch_78">
    <path clip-path="url(#p70aa6826b2)" d="M 182.232967 273.312 
L 183.847088 273.312 
L 183.847088 57.923898 
L 182.232967 57.923898 
z
" style="fill:#1f77b4;"/>
   </g>
   <g id="patch_79">
    <path clip-path="url(#p70aa6826b2)" d="M 183.847088 273.312 
L 185.461209 273.312 
L 185.461209 40.69285 
L 183.847088 40.69285 
z
" style="fill:#1f77b4;"/>
   </g>
   <g id="patch_80">
    <path clip-path="url(#p70aa6826b2)" d="M 185.461209 273.312 
L 187.075331 273.312 
L 187.075331 81.616589 
L 185.461209 81.616589 
z
" style="fill:#1f77b4;"/>
   </g>
   <g id="patch_81">
    <path clip-path="url(#p70aa6826b2)" d="M 187.075331 273.312 
L 188.689452 273.312 
L 188.689452 60.795739 
L 187.075331 60.795739 
z
" style="fill:#1f77b4;"/>
   </g>
   <g id="patch_82">
    <path clip-path="url(#p70aa6826b2)" d="M 188.689452 273.312 
L 190.303573 273.312 
L 190.303573 65.103501 
L 188.689452 65.103501 
z
" style="fill:#1f77b4;"/>
   </g>
   <g id="patch_83">
    <path clip-path="url(#p70aa6826b2)" d="M 190.303573 273.312 
L 191.917694 273.312 
L 191.917694 71.565144 
L 190.303573 71.565144 
z
" style="fill:#1f77b4;"/>
   </g>
   <g id="patch_84">
    <path clip-path="url(#p70aa6826b2)" d="M 191.917694 273.312 
L 193.531816 273.312 
L 193.531816 61.5137 
L 191.917694 61.5137 
z
" style="fill:#1f77b4;"/>
   </g>
   <g id="patch_85">
    <path clip-path="url(#p70aa6826b2)" d="M 193.531816 273.312 
L 195.145937 273.312 
L 195.145937 50.026334 
L 193.531816 50.026334 
z
" style="fill:#1f77b4;"/>
   </g>
   <g id="patch_86">
    <path clip-path="url(#p70aa6826b2)" d="M 195.145937 273.312 
L 196.760058 273.312 
L 196.760058 39.256929 
L 195.145937 39.256929 
z
" style="fill:#1f77b4;"/>
   </g>
   <g id="patch_87">
    <path clip-path="url(#p70aa6826b2)" d="M 196.760058 273.312 
L 198.37418 273.312 
L 198.37418 73.001065 
L 196.760058 73.001065 
z
" style="fill:#1f77b4;"/>
   </g>
   <g id="patch_88">
    <path clip-path="url(#p70aa6826b2)" d="M 198.37418 273.312 
L 199.988301 273.312 
L 199.988301 37.103048 
L 198.37418 37.103048 
z
" style="fill:#1f77b4;"/>
   </g>
   <g id="patch_89">
    <path clip-path="url(#p70aa6826b2)" d="M 199.988301 273.312 
L 201.602422 273.312 
L 201.602422 49.308374 
L 199.988301 49.308374 
z
" style="fill:#1f77b4;"/>
   </g>
   <g id="patch_90">
    <path clip-path="url(#p70aa6826b2)" d="M 201.602422 273.312 
L 203.216543 273.312 
L 203.216543 49.308374 
L 201.602422 49.308374 
z
" style="fill:#1f77b4;"/>
   </g>
   <g id="patch_91">
    <path clip-path="url(#p70aa6826b2)" d="M 203.216543 273.312 
L 204.830665 273.312 
L 204.830665 45.000612 
L 203.216543 45.000612 
z
" style="fill:#1f77b4;"/>
   </g>
   <g id="patch_92">
    <path clip-path="url(#p70aa6826b2)" d="M 204.830665 273.312 
L 206.444786 273.312 
L 206.444786 53.616136 
L 204.830665 53.616136 
z
" style="fill:#1f77b4;"/>
   </g>
   <g id="patch_93">
    <path clip-path="url(#p70aa6826b2)" d="M 206.444786 273.312 
L 208.058907 273.312 
L 208.058907 55.770017 
L 206.444786 55.770017 
z
" style="fill:#1f77b4;"/>
   </g>
   <g id="patch_94">
    <path clip-path="url(#p70aa6826b2)" d="M 208.058907 273.312 
L 209.673029 273.312 
L 209.673029 39.256929 
L 208.058907 39.256929 
z
" style="fill:#1f77b4;"/>
   </g>
   <g id="patch_95">
    <path clip-path="url(#p70aa6826b2)" d="M 209.673029 273.312 
L 211.28715 273.312 
L 211.28715 19.872 
L 209.673029 19.872 
z
" style="fill:#1f77b4;"/>
   </g>
   <g id="patch_96">
    <path clip-path="url(#p70aa6826b2)" d="M 211.28715 273.312 
L 212.901271 273.312 
L 212.901271 27.051603 
L 211.28715 27.051603 
z
" style="fill:#1f77b4;"/>
   </g>
   <g id="patch_97">
    <path clip-path="url(#p70aa6826b2)" d="M 212.901271 273.312 
L 214.515392 273.312 
L 214.515392 64.385541 
L 212.901271 64.385541 
z
" style="fill:#1f77b4;"/>
   </g>
   <g id="patch_98">
    <path clip-path="url(#p70aa6826b2)" d="M 214.515392 273.312 
L 216.129514 273.312 
L 216.129514 68.693303 
L 214.515392 68.693303 
z
" style="fill:#1f77b4;"/>
   </g>
   <g id="patch_99">
    <path clip-path="url(#p70aa6826b2)" d="M 216.129514 273.312 
L 217.743635 273.312 
L 217.743635 56.487977 
L 216.129514 56.487977 
z
" style="fill:#1f77b4;"/>
   </g>
   <g id="patch_100">
    <path clip-path="url(#p70aa6826b2)" d="M 217.743635 273.312 
L 219.357756 273.312 
L 219.357756 49.308374 
L 217.743635 49.308374 
z
" style="fill:#1f77b4;"/>
   </g>
   <g id="patch_101">
    <path clip-path="url(#p70aa6826b2)" d="M 219.357756 273.312 
L 220.971878 273.312 
L 220.971878 45.000612 
L 219.357756 45.000612 
z
" style="fill:#1f77b4;"/>
   </g>
   <g id="patch_102">
    <path clip-path="url(#p70aa6826b2)" d="M 220.971878 273.312 
L 222.585999 273.312 
L 222.585999 50.026334 
L 220.971878 50.026334 
z
" style="fill:#1f77b4;"/>
   </g>
   <g id="patch_103">
    <path clip-path="url(#p70aa6826b2)" d="M 222.585999 273.312 
L 224.20012 273.312 
L 224.20012 63.667581 
L 222.585999 63.667581 
z
" style="fill:#1f77b4;"/>
   </g>
   <g id="patch_104">
    <path clip-path="url(#p70aa6826b2)" d="M 224.20012 273.312 
L 225.814241 273.312 
L 225.814241 49.308374 
L 224.20012 49.308374 
z
" style="fill:#1f77b4;"/>
   </g>
   <g id="patch_105">
    <path clip-path="url(#p70aa6826b2)" d="M 225.814241 273.312 
L 227.428363 273.312 
L 227.428363 58.641858 
L 225.814241 58.641858 
z
" style="fill:#1f77b4;"/>
   </g>
   <g id="patch_106">
    <path clip-path="url(#p70aa6826b2)" d="M 227.428363 273.312 
L 229.042484 273.312 
L 229.042484 45.718572 
L 227.428363 45.718572 
z
" style="fill:#1f77b4;"/>
   </g>
   <g id="patch_107">
    <path clip-path="url(#p70aa6826b2)" d="M 229.042484 273.312 
L 230.656605 273.312 
L 230.656605 51.462255 
L 229.042484 51.462255 
z
" style="fill:#1f77b4;"/>
   </g>
   <g id="patch_108">
    <path clip-path="url(#p70aa6826b2)" d="M 230.656605 273.312 
L 232.270726 273.312 
L 232.270726 56.487977 
L 230.656605 56.487977 
z
" style="fill:#1f77b4;"/>
   </g>
   <g id="patch_109">
    <path clip-path="url(#p70aa6826b2)" d="M 232.270726 273.312 
L 233.884848 273.312 
L 233.884848 58.641858 
L 232.270726 58.641858 
z
" style="fill:#1f77b4;"/>
   </g>
   <g id="patch_110">
    <path clip-path="url(#p70aa6826b2)" d="M 233.884848 273.312 
L 235.498969 273.312 
L 235.498969 28.487524 
L 233.884848 28.487524 
z
" style="fill:#1f77b4;"/>
   </g>
   <g id="patch_111">
    <path clip-path="url(#p70aa6826b2)" d="M 235.498969 273.312 
L 237.11309 273.312 
L 237.11309 65.103501 
L 235.498969 65.103501 
z
" style="fill:#1f77b4;"/>
   </g>
   <g id="patch_112">
    <path clip-path="url(#p70aa6826b2)" d="M 237.11309 273.312 
L 238.727212 273.312 
L 238.727212 57.923898 
L 237.11309 57.923898 
z
" style="fill:#1f77b4;"/>
   </g>
   <g id="patch_113">
    <path clip-path="url(#p70aa6826b2)" d="M 238.727212 273.312 
L 240.341333 273.312 
L 240.341333 54.334096 
L 238.727212 54.334096 
z
" style="fill:#1f77b4;"/>
   </g>
   <g id="patch_114">
    <path clip-path="url(#p70aa6826b2)" d="M 240.341333 273.312 
L 241.955454 273.312 
L 241.955454 64.385541 
L 240.341333 64.385541 
z
" style="fill:#1f77b4;"/>
   </g>
   <g id="patch_115">
    <path clip-path="url(#p70aa6826b2)" d="M 241.955454 273.312 
L 243.569575 273.312 
L 243.569575 39.97489 
L 241.955454 39.97489 
z
" style="fill:#1f77b4;"/>
   </g>
   <g id="patch_116">
    <path clip-path="url(#p70aa6826b2)" d="M 243.569575 273.312 
L 245.183697 273.312 
L 245.183697 42.846731 
L 243.569575 42.846731 
z
" style="fill:#1f77b4;"/>
   </g>
   <g id="patch_117">
    <path clip-path="url(#p70aa6826b2)" d="M 245.183697 273.312 
L 246.797818 273.312 
L 246.797818 47.154493 
L 245.183697 47.154493 
z
" style="fill:#1f77b4;"/>
   </g>
   <g id="patch_118">
    <path clip-path="url(#p70aa6826b2)" d="M 246.797818 273.312 
L 248.411939 273.312 
L 248.411939 48.590414 
L 246.797818 48.590414 
z
" style="fill:#1f77b4;"/>
   </g>
   <g id="patch_119">
    <path clip-path="url(#p70aa6826b2)" d="M 248.411939 273.312 
L 250.026061 273.312 
L 250.026061 54.334096 
L 248.411939 54.334096 
z
" style="fill:#1f77b4;"/>
   </g>
   <g id="patch_120">
    <path clip-path="url(#p70aa6826b2)" d="M 250.026061 273.312 
L 251.640182 273.312 
L 251.640182 57.205938 
L 250.026061 57.205938 
z
" style="fill:#1f77b4;"/>
   </g>
   <g id="patch_121">
    <path clip-path="url(#p70aa6826b2)" d="M 251.640182 273.312 
L 253.254303 273.312 
L 253.254303 74.436986 
L 251.640182 74.436986 
z
" style="fill:#1f77b4;"/>
   </g>
   <g id="patch_122">
    <path clip-path="url(#p70aa6826b2)" d="M 253.254303 273.312 
L 254.868424 273.312 
L 254.868424 57.923898 
L 253.254303 57.923898 
z
" style="fill:#1f77b4;"/>
   </g>
   <g id="patch_123">
    <path clip-path="url(#p70aa6826b2)" d="M 254.868424 273.312 
L 256.482546 273.312 
L 256.482546 57.923898 
L 254.868424 57.923898 
z
" style="fill:#1f77b4;"/>
   </g>
   <g id="patch_124">
    <path clip-path="url(#p70aa6826b2)" d="M 256.482546 273.312 
L 258.096667 273.312 
L 258.096667 53.616136 
L 256.482546 53.616136 
z
" style="fill:#1f77b4;"/>
   </g>
   <g id="patch_125">
    <path clip-path="url(#p70aa6826b2)" d="M 258.096667 273.312 
L 259.710788 273.312 
L 259.710788 62.23166 
L 258.096667 62.23166 
z
" style="fill:#1f77b4;"/>
   </g>
   <g id="patch_126">
    <path clip-path="url(#p70aa6826b2)" d="M 259.710788 273.312 
L 261.32491 273.312 
L 261.32491 72.283105 
L 259.710788 72.283105 
z
" style="fill:#1f77b4;"/>
   </g>
   <g id="patch_127">
    <path clip-path="url(#p70aa6826b2)" d="M 261.32491 273.312 
L 262.939031 273.312 
L 262.939031 66.539422 
L 261.32491 66.539422 
z
" style="fill:#1f77b4;"/>
   </g>
   <g id="patch_128">
    <path clip-path="url(#p70aa6826b2)" d="M 262.939031 273.312 
L 264.553152 273.312 
L 264.553152 58.641858 
L 262.939031 58.641858 
z
" style="fill:#1f77b4;"/>
   </g>
   <g id="patch_129">
    <path clip-path="url(#p70aa6826b2)" d="M 264.553152 273.312 
L 266.167273 273.312 
L 266.167273 65.103501 
L 264.553152 65.103501 
z
" style="fill:#1f77b4;"/>
   </g>
   <g id="patch_130">
    <path clip-path="url(#p70aa6826b2)" d="M 266.167273 273.312 
L 267.781395 273.312 
L 267.781395 75.154946 
L 266.167273 75.154946 
z
" style="fill:#1f77b4;"/>
   </g>
   <g id="patch_131">
    <path clip-path="url(#p70aa6826b2)" d="M 267.781395 273.312 
L 269.395516 273.312 
L 269.395516 78.026788 
L 267.781395 78.026788 
z
" style="fill:#1f77b4;"/>
   </g>
   <g id="patch_132">
    <path clip-path="url(#p70aa6826b2)" d="M 269.395516 273.312 
L 271.009637 273.312 
L 271.009637 73.001065 
L 269.395516 73.001065 
z
" style="fill:#1f77b4;"/>
   </g>
   <g id="patch_133">
    <path clip-path="url(#p70aa6826b2)" d="M 271.009637 273.312 
L 272.623759 273.312 
L 272.623759 72.283105 
L 271.009637 72.283105 
z
" style="fill:#1f77b4;"/>
   </g>
   <g id="patch_134">
    <path clip-path="url(#p70aa6826b2)" d="M 272.623759 273.312 
L 274.23788 273.312 
L 274.23788 67.975343 
L 272.623759 67.975343 
z
" style="fill:#1f77b4;"/>
   </g>
   <g id="patch_135">
    <path clip-path="url(#p70aa6826b2)" d="M 274.23788 273.312 
L 275.852001 273.312 
L 275.852001 85.206391 
L 274.23788 85.206391 
z
" style="fill:#1f77b4;"/>
   </g>
   <g id="patch_136">
    <path clip-path="url(#p70aa6826b2)" d="M 275.852001 273.312 
L 277.466122 273.312 
L 277.466122 95.975796 
L 275.852001 95.975796 
z
" style="fill:#1f77b4;"/>
   </g>
   <g id="patch_137">
    <path clip-path="url(#p70aa6826b2)" d="M 277.466122 273.312 
L 279.080244 273.312 
L 279.080244 67.257382 
L 277.466122 67.257382 
z
" style="fill:#1f77b4;"/>
   </g>
   <g id="patch_138">
    <path clip-path="url(#p70aa6826b2)" d="M 279.080244 273.312 
L 280.694365 273.312 
L 280.694365 114.642765 
L 279.080244 114.642765 
z
" style="fill:#1f77b4;"/>
   </g>
   <g id="patch_139">
    <path clip-path="url(#p70aa6826b2)" d="M 280.694365 273.312 
L 282.308486 273.312 
L 282.308486 65.103501 
L 280.694365 65.103501 
z
" style="fill:#1f77b4;"/>
   </g>
   <g id="patch_140">
    <path clip-path="url(#p70aa6826b2)" d="M 282.308486 273.312 
L 283.922608 273.312 
L 283.922608 80.180669 
L 282.308486 80.180669 
z
" style="fill:#1f77b4;"/>
   </g>
   <g id="patch_141">
    <path clip-path="url(#p70aa6826b2)" d="M 283.922608 273.312 
L 285.536729 273.312 
L 285.536729 84.488431 
L 283.922608 84.488431 
z
" style="fill:#1f77b4;"/>
   </g>
   <g id="patch_142">
    <path clip-path="url(#p70aa6826b2)" d="M 285.536729 273.312 
L 287.15085 273.312 
L 287.15085 80.180669 
L 285.536729 80.180669 
z
" style="fill:#1f77b4;"/>
   </g>
   <g id="patch_143">
    <path clip-path="url(#p70aa6826b2)" d="M 287.15085 273.312 
L 288.764971 273.312 
L 288.764971 95.975796 
L 287.15085 95.975796 
z
" style="fill:#1f77b4;"/>
   </g>
   <g id="patch_144">
    <path clip-path="url(#p70aa6826b2)" d="M 288.764971 273.312 
L 290.379093 273.312 
L 290.379093 112.488884 
L 288.764971 112.488884 
z
" style="fill:#1f77b4;"/>
   </g>
   <g id="patch_145">
    <path clip-path="url(#p70aa6826b2)" d="M 290.379093 273.312 
L 291.993214 273.312 
L 291.993214 102.437439 
L 290.379093 102.437439 
z
" style="fill:#1f77b4;"/>
   </g>
   <g id="patch_146">
    <path clip-path="url(#p70aa6826b2)" d="M 291.993214 273.312 
L 293.607335 273.312 
L 293.607335 77.308827 
L 291.993214 77.308827 
z
" style="fill:#1f77b4;"/>
   </g>
   <g id="patch_147">
    <path clip-path="url(#p70aa6826b2)" d="M 293.607335 273.312 
L 295.221457 273.312 
L 295.221457 116.796646 
L 293.607335 116.796646 
z
" style="fill:#1f77b4;"/>
   </g>
   <g id="patch_148">
    <path clip-path="url(#p70aa6826b2)" d="M 295.221457 273.312 
L 296.835578 273.312 
L 296.835578 108.899082 
L 295.221457 108.899082 
z
" style="fill:#1f77b4;"/>
   </g>
   <g id="patch_149">
    <path clip-path="url(#p70aa6826b2)" d="M 296.835578 273.312 
L 298.449699 273.312 
L 298.449699 108.181122 
L 296.835578 108.181122 
z
" style="fill:#1f77b4;"/>
   </g>
   <g id="patch_150">
    <path clip-path="url(#p70aa6826b2)" d="M 298.449699 273.312 
L 300.06382 273.312 
L 300.06382 116.078686 
L 298.449699 116.078686 
z
" style="fill:#1f77b4;"/>
   </g>
   <g id="patch_151">
    <path clip-path="url(#p70aa6826b2)" d="M 300.06382 273.312 
L 301.677942 273.312 
L 301.677942 116.078686 
L 300.06382 116.078686 
z
" style="fill:#1f77b4;"/>
   </g>
   <g id="patch_152">
    <path clip-path="url(#p70aa6826b2)" d="M 301.677942 273.312 
L 303.292063 273.312 
L 303.292063 95.975796 
L 301.677942 95.975796 
z
" style="fill:#1f77b4;"/>
   </g>
   <g id="patch_153">
    <path clip-path="url(#p70aa6826b2)" d="M 303.292063 273.312 
L 304.906184 273.312 
L 304.906184 125.41217 
L 303.292063 125.41217 
z
" style="fill:#1f77b4;"/>
   </g>
   <g id="patch_154">
    <path clip-path="url(#p70aa6826b2)" d="M 304.906184 273.312 
L 306.520306 273.312 
L 306.520306 114.642765 
L 304.906184 114.642765 
z
" style="fill:#1f77b4;"/>
   </g>
   <g id="patch_155">
    <path clip-path="url(#p70aa6826b2)" d="M 306.520306 273.312 
L 308.134427 273.312 
L 308.134427 117.514606 
L 306.520306 117.514606 
z
" style="fill:#1f77b4;"/>
   </g>
   <g id="patch_156">
    <path clip-path="url(#p70aa6826b2)" d="M 308.134427 273.312 
L 309.748548 273.312 
L 309.748548 136.181575 
L 308.134427 136.181575 
z
" style="fill:#1f77b4;"/>
   </g>
   <g id="patch_157">
    <path clip-path="url(#p70aa6826b2)" d="M 309.748548 273.312 
L 311.362669 273.312 
L 311.362669 124.69421 
L 309.748548 124.69421 
z
" style="fill:#1f77b4;"/>
   </g>
   <g id="patch_158">
    <path clip-path="url(#p70aa6826b2)" d="M 311.362669 273.312 
L 312.976791 273.312 
L 312.976791 110.335003 
L 311.362669 110.335003 
z
" style="fill:#1f77b4;"/>
   </g>
   <g id="patch_159">
    <path clip-path="url(#p70aa6826b2)" d="M 312.976791 273.312 
L 314.590912 273.312 
L 314.590912 122.540329 
L 312.976791 122.540329 
z
" style="fill:#1f77b4;"/>
   </g>
   <g id="patch_160">
    <path clip-path="url(#p70aa6826b2)" d="M 314.590912 273.312 
L 316.205033 273.312 
L 316.205033 149.822822 
L 314.590912 149.822822 
z
" style="fill:#1f77b4;"/>
   </g>
   <g id="patch_161">
    <path clip-path="url(#p70aa6826b2)" d="M 316.205033 273.312 
L 317.819155 273.312 
L 317.819155 133.309734 
L 316.205033 133.309734 
z
" style="fill:#1f77b4;"/>
   </g>
   <g id="patch_162">
    <path clip-path="url(#p70aa6826b2)" d="M 317.819155 273.312 
L 319.433276 273.312 
L 319.433276 135.463615 
L 317.819155 135.463615 
z
" style="fill:#1f77b4;"/>
   </g>
   <g id="patch_163">
    <path clip-path="url(#p70aa6826b2)" d="M 319.433276 273.312 
L 321.047397 273.312 
L 321.047397 142.643218 
L 319.433276 142.643218 
z
" style="fill:#1f77b4;"/>
   </g>
   <g id="patch_164">
    <path clip-path="url(#p70aa6826b2)" d="M 321.047397 273.312 
L 322.661518 273.312 
L 322.661518 131.155853 
L 321.047397 131.155853 
z
" style="fill:#1f77b4;"/>
   </g>
   <g id="patch_165">
    <path clip-path="url(#p70aa6826b2)" d="M 322.661518 273.312 
L 324.27564 273.312 
L 324.27564 142.643218 
L 322.661518 142.643218 
z
" style="fill:#1f77b4;"/>
   </g>
   <g id="patch_166">
    <path clip-path="url(#p70aa6826b2)" d="M 324.27564 273.312 
L 325.889761 273.312 
L 325.889761 135.463615 
L 324.27564 135.463615 
z
" style="fill:#1f77b4;"/>
   </g>
   <g id="patch_167">
    <path clip-path="url(#p70aa6826b2)" d="M 325.889761 273.312 
L 327.503882 273.312 
L 327.503882 159.156306 
L 325.889761 159.156306 
z
" style="fill:#1f77b4;"/>
   </g>
   <g id="patch_168">
    <path clip-path="url(#p70aa6826b2)" d="M 327.503882 273.312 
L 329.118004 273.312 
L 329.118004 169.207751 
L 327.503882 169.207751 
z
" style="fill:#1f77b4;"/>
   </g>
   <g id="patch_169">
    <path clip-path="url(#p70aa6826b2)" d="M 329.118004 273.312 
L 330.732125 273.312 
L 330.732125 152.694663 
L 329.118004 152.694663 
z
" style="fill:#1f77b4;"/>
   </g>
   <g id="patch_170">
    <path clip-path="url(#p70aa6826b2)" d="M 330.732125 273.312 
L 332.346246 273.312 
L 332.346246 157.002425 
L 330.732125 157.002425 
z
" style="fill:#1f77b4;"/>
   </g>
   <g id="patch_171">
    <path clip-path="url(#p70aa6826b2)" d="M 332.346246 273.312 
L 333.960367 273.312 
L 333.960367 157.002425 
L 332.346246 157.002425 
z
" style="fill:#1f77b4;"/>
   </g>
   <g id="patch_172">
    <path clip-path="url(#p70aa6826b2)" d="M 333.960367 273.312 
L 335.574489 273.312 
L 335.574489 178.541235 
L 333.960367 178.541235 
z
" style="fill:#1f77b4;"/>
   </g>
   <g id="patch_173">
    <path clip-path="url(#p70aa6826b2)" d="M 335.574489 273.312 
L 337.18861 273.312 
L 337.18861 177.823275 
L 335.574489 177.823275 
z
" style="fill:#1f77b4;"/>
   </g>
   <g id="patch_174">
    <path clip-path="url(#p70aa6826b2)" d="M 337.18861 273.312 
L 338.802731 273.312 
L 338.802731 175.669394 
L 337.18861 175.669394 
z
" style="fill:#1f77b4;"/>
   </g>
   <g id="patch_175">
    <path clip-path="url(#p70aa6826b2)" d="M 338.802731 273.312 
L 340.416853 273.312 
L 340.416853 174.233473 
L 338.802731 174.233473 
z
" style="fill:#1f77b4;"/>
   </g>
   <g id="patch_176">
    <path clip-path="url(#p70aa6826b2)" d="M 340.416853 273.312 
L 342.030974 273.312 
L 342.030974 187.156759 
L 340.416853 187.156759 
z
" style="fill:#1f77b4;"/>
   </g>
   <g id="patch_177">
    <path clip-path="url(#p70aa6826b2)" d="M 342.030974 273.312 
L 343.645095 273.312 
L 343.645095 196.490244 
L 342.030974 196.490244 
z
" style="fill:#1f77b4;"/>
   </g>
   <g id="patch_178">
    <path clip-path="url(#p70aa6826b2)" d="M 343.645095 273.312 
L 345.259216 273.312 
L 345.259216 180.695116 
L 343.645095 180.695116 
z
" style="fill:#1f77b4;"/>
   </g>
   <g id="patch_179">
    <path clip-path="url(#p70aa6826b2)" d="M 345.259216 273.312 
L 346.873338 273.312 
L 346.873338 194.336363 
L 345.259216 194.336363 
z
" style="fill:#1f77b4;"/>
   </g>
   <g id="patch_180">
    <path clip-path="url(#p70aa6826b2)" d="M 346.873338 273.312 
L 348.487459 273.312 
L 348.487459 203.669847 
L 346.873338 203.669847 
z
" style="fill:#1f77b4;"/>
   </g>
   <g id="patch_181">
    <path clip-path="url(#p70aa6826b2)" d="M 348.487459 273.312 
L 350.10158 273.312 
L 350.10158 200.798006 
L 348.487459 200.798006 
z
" style="fill:#1f77b4;"/>
   </g>
   <g id="patch_182">
    <path clip-path="url(#p70aa6826b2)" d="M 350.10158 273.312 
L 351.715702 273.312 
L 351.715702 198.644125 
L 350.10158 198.644125 
z
" style="fill:#1f77b4;"/>
   </g>
   <g id="patch_183">
    <path clip-path="url(#p70aa6826b2)" d="M 351.715702 273.312 
L 353.329823 273.312 
L 353.329823 204.387807 
L 351.715702 204.387807 
z
" style="fill:#1f77b4;"/>
   </g>
   <g id="patch_184">
    <path clip-path="url(#p70aa6826b2)" d="M 353.329823 273.312 
L 354.943944 273.312 
L 354.943944 218.029054 
L 353.329823 218.029054 
z
" style="fill:#1f77b4;"/>
   </g>
   <g id="patch_185">
    <path clip-path="url(#p70aa6826b2)" d="M 354.943944 273.312 
L 356.558065 273.312 
L 356.558065 208.695569 
L 354.943944 208.695569 
z
" style="fill:#1f77b4;"/>
   </g>
   <g id="patch_186">
    <path clip-path="url(#p70aa6826b2)" d="M 356.558065 273.312 
L 358.172187 273.312 
L 358.172187 212.285371 
L 356.558065 212.285371 
z
" style="fill:#1f77b4;"/>
   </g>
   <g id="patch_187">
    <path clip-path="url(#p70aa6826b2)" d="M 358.172187 273.312 
L 359.786308 273.312 
L 359.786308 223.054776 
L 358.172187 223.054776 
z
" style="fill:#1f77b4;"/>
   </g>
   <g id="patch_188">
    <path clip-path="url(#p70aa6826b2)" d="M 359.786308 273.312 
L 361.400429 273.312 
L 361.400429 232.388261 
L 359.786308 232.388261 
z
" style="fill:#1f77b4;"/>
   </g>
   <g id="patch_189">
    <path clip-path="url(#p70aa6826b2)" d="M 361.400429 273.312 
L 363.014551 273.312 
L 363.014551 227.362538 
L 361.400429 227.362538 
z
" style="fill:#1f77b4;"/>
   </g>
   <g id="patch_190">
    <path clip-path="url(#p70aa6826b2)" d="M 363.014551 273.312 
L 364.628672 273.312 
L 364.628672 226.644578 
L 363.014551 226.644578 
z
" style="fill:#1f77b4;"/>
   </g>
   <g id="patch_191">
    <path clip-path="url(#p70aa6826b2)" d="M 364.628672 273.312 
L 366.242793 273.312 
L 366.242793 239.567864 
L 364.628672 239.567864 
z
" style="fill:#1f77b4;"/>
   </g>
   <g id="patch_192">
    <path clip-path="url(#p70aa6826b2)" d="M 366.242793 273.312 
L 367.856914 273.312 
L 367.856914 238.131943 
L 366.242793 238.131943 
z
" style="fill:#1f77b4;"/>
   </g>
   <g id="patch_193">
    <path clip-path="url(#p70aa6826b2)" d="M 367.856914 273.312 
L 369.471036 273.312 
L 369.471036 233.824181 
L 367.856914 233.824181 
z
" style="fill:#1f77b4;"/>
   </g>
   <g id="patch_194">
    <path clip-path="url(#p70aa6826b2)" d="M 369.471036 273.312 
L 371.085157 273.312 
L 371.085157 240.285824 
L 369.471036 240.285824 
z
" style="fill:#1f77b4;"/>
   </g>
   <g id="patch_195">
    <path clip-path="url(#p70aa6826b2)" d="M 371.085157 273.312 
L 372.699278 273.312 
L 372.699278 251.77319 
L 371.085157 251.77319 
z
" style="fill:#1f77b4;"/>
   </g>
   <g id="patch_196">
    <path clip-path="url(#p70aa6826b2)" d="M 372.699278 273.312 
L 374.3134 273.312 
L 374.3134 249.619309 
L 372.699278 249.619309 
z
" style="fill:#1f77b4;"/>
   </g>
   <g id="patch_197">
    <path clip-path="url(#p70aa6826b2)" d="M 374.3134 273.312 
L 375.927521 273.312 
L 375.927521 248.183388 
L 374.3134 248.183388 
z
" style="fill:#1f77b4;"/>
   </g>
   <g id="patch_198">
    <path clip-path="url(#p70aa6826b2)" d="M 375.927521 273.312 
L 377.541642 273.312 
L 377.541642 254.645031 
L 375.927521 254.645031 
z
" style="fill:#1f77b4;"/>
   </g>
   <g id="patch_199">
    <path clip-path="url(#p70aa6826b2)" d="M 377.541642 273.312 
L 379.155763 273.312 
L 379.155763 261.106674 
L 377.541642 261.106674 
z
" style="fill:#1f77b4;"/>
   </g>
   <g id="patch_200">
    <path clip-path="url(#p70aa6826b2)" d="M 379.155763 273.312 
L 380.769885 273.312 
L 380.769885 263.978516 
L 379.155763 263.978516 
z
" style="fill:#1f77b4;"/>
   </g>
   <g id="patch_201">
    <path clip-path="url(#p70aa6826b2)" d="M 380.769885 273.312 
L 382.384006 273.312 
L 382.384006 265.414436 
L 380.769885 265.414436 
z
" style="fill:#1f77b4;"/>
   </g>
   <g id="patch_202">
    <path clip-path="url(#p70aa6826b2)" d="M 382.384006 273.312 
L 383.998127 273.312 
L 383.998127 269.722198 
L 382.384006 269.722198 
z
" style="fill:#1f77b4;"/>
   </g>
   <g id="matplotlib.axis_1">
    <g id="xtick_1">
     <g id="line2d_1">
      <defs>
       <path d="M 0 0 
L 0 3.5 
" id="m99f21db6ca" style="stroke:#000000;stroke-width:0.8;"/>
      </defs>
      <g>
       <use style="stroke:#000000;stroke-width:0.8;" x="60.013977" xlink:href="#m99f21db6ca" y="273.312"/>
      </g>
     </g>
     <g id="text_1">
      <!-- 0.0 -->
      <g transform="translate(52.062415 287.910437)scale(0.1 -0.1)">
       <defs>
        <path d="M 2034 4250 
Q 1547 4250 1301 3770 
Q 1056 3291 1056 2328 
Q 1056 1369 1301 889 
Q 1547 409 2034 409 
Q 2525 409 2770 889 
Q 3016 1369 3016 2328 
Q 3016 3291 2770 3770 
Q 2525 4250 2034 4250 
z
M 2034 4750 
Q 2819 4750 3233 4129 
Q 3647 3509 3647 2328 
Q 3647 1150 3233 529 
Q 2819 -91 2034 -91 
Q 1250 -91 836 529 
Q 422 1150 422 2328 
Q 422 3509 836 4129 
Q 1250 4750 2034 4750 
z
" id="DejaVuSans-30" transform="scale(0.015625)"/>
        <path d="M 684 794 
L 1344 794 
L 1344 0 
L 684 0 
L 684 794 
z
" id="DejaVuSans-2e" transform="scale(0.015625)"/>
       </defs>
       <use xlink:href="#DejaVuSans-30"/>
       <use x="63.623047" xlink:href="#DejaVuSans-2e"/>
       <use x="95.410156" xlink:href="#DejaVuSans-30"/>
      </g>
     </g>
    </g>
    <g id="xtick_2">
     <g id="line2d_2">
      <g>
       <use style="stroke:#000000;stroke-width:0.8;" x="101.350278" xlink:href="#m99f21db6ca" y="273.312"/>
      </g>
     </g>
     <g id="text_2">
      <!-- 0.2 -->
      <g transform="translate(93.398715 287.910437)scale(0.1 -0.1)">
       <defs>
        <path d="M 1228 531 
L 3431 531 
L 3431 0 
L 469 0 
L 469 531 
Q 828 903 1448 1529 
Q 2069 2156 2228 2338 
Q 2531 2678 2651 2914 
Q 2772 3150 2772 3378 
Q 2772 3750 2511 3984 
Q 2250 4219 1831 4219 
Q 1534 4219 1204 4116 
Q 875 4013 500 3803 
L 500 4441 
Q 881 4594 1212 4672 
Q 1544 4750 1819 4750 
Q 2544 4750 2975 4387 
Q 3406 4025 3406 3419 
Q 3406 3131 3298 2873 
Q 3191 2616 2906 2266 
Q 2828 2175 2409 1742 
Q 1991 1309 1228 531 
z
" id="DejaVuSans-32" transform="scale(0.015625)"/>
       </defs>
       <use xlink:href="#DejaVuSans-30"/>
       <use x="63.623047" xlink:href="#DejaVuSans-2e"/>
       <use x="95.410156" xlink:href="#DejaVuSans-32"/>
      </g>
     </g>
    </g>
    <g id="xtick_3">
     <g id="line2d_3">
      <g>
       <use style="stroke:#000000;stroke-width:0.8;" x="142.686578" xlink:href="#m99f21db6ca" y="273.312"/>
      </g>
     </g>
     <g id="text_3">
      <!-- 0.4 -->
      <g transform="translate(134.735016 287.910437)scale(0.1 -0.1)">
       <defs>
        <path d="M 2419 4116 
L 825 1625 
L 2419 1625 
L 2419 4116 
z
M 2253 4666 
L 3047 4666 
L 3047 1625 
L 3713 1625 
L 3713 1100 
L 3047 1100 
L 3047 0 
L 2419 0 
L 2419 1100 
L 313 1100 
L 313 1709 
L 2253 4666 
z
" id="DejaVuSans-34" transform="scale(0.015625)"/>
       </defs>
       <use xlink:href="#DejaVuSans-30"/>
       <use x="63.623047" xlink:href="#DejaVuSans-2e"/>
       <use x="95.410156" xlink:href="#DejaVuSans-34"/>
      </g>
     </g>
    </g>
    <g id="xtick_4">
     <g id="line2d_4">
      <g>
       <use style="stroke:#000000;stroke-width:0.8;" x="184.022879" xlink:href="#m99f21db6ca" y="273.312"/>
      </g>
     </g>
     <g id="text_4">
      <!-- 0.6 -->
      <g transform="translate(176.071316 287.910437)scale(0.1 -0.1)">
       <defs>
        <path d="M 2113 2584 
Q 1688 2584 1439 2293 
Q 1191 2003 1191 1497 
Q 1191 994 1439 701 
Q 1688 409 2113 409 
Q 2538 409 2786 701 
Q 3034 994 3034 1497 
Q 3034 2003 2786 2293 
Q 2538 2584 2113 2584 
z
M 3366 4563 
L 3366 3988 
Q 3128 4100 2886 4159 
Q 2644 4219 2406 4219 
Q 1781 4219 1451 3797 
Q 1122 3375 1075 2522 
Q 1259 2794 1537 2939 
Q 1816 3084 2150 3084 
Q 2853 3084 3261 2657 
Q 3669 2231 3669 1497 
Q 3669 778 3244 343 
Q 2819 -91 2113 -91 
Q 1303 -91 875 529 
Q 447 1150 447 2328 
Q 447 3434 972 4092 
Q 1497 4750 2381 4750 
Q 2619 4750 2861 4703 
Q 3103 4656 3366 4563 
z
" id="DejaVuSans-36" transform="scale(0.015625)"/>
       </defs>
       <use xlink:href="#DejaVuSans-30"/>
       <use x="63.623047" xlink:href="#DejaVuSans-2e"/>
       <use x="95.410156" xlink:href="#DejaVuSans-36"/>
      </g>
     </g>
    </g>
    <g id="xtick_5">
     <g id="line2d_5">
      <g>
       <use style="stroke:#000000;stroke-width:0.8;" x="225.35918" xlink:href="#m99f21db6ca" y="273.312"/>
      </g>
     </g>
     <g id="text_5">
      <!-- 0.8 -->
      <g transform="translate(217.407617 287.910437)scale(0.1 -0.1)">
       <defs>
        <path d="M 2034 2216 
Q 1584 2216 1326 1975 
Q 1069 1734 1069 1313 
Q 1069 891 1326 650 
Q 1584 409 2034 409 
Q 2484 409 2743 651 
Q 3003 894 3003 1313 
Q 3003 1734 2745 1975 
Q 2488 2216 2034 2216 
z
M 1403 2484 
Q 997 2584 770 2862 
Q 544 3141 544 3541 
Q 544 4100 942 4425 
Q 1341 4750 2034 4750 
Q 2731 4750 3128 4425 
Q 3525 4100 3525 3541 
Q 3525 3141 3298 2862 
Q 3072 2584 2669 2484 
Q 3125 2378 3379 2068 
Q 3634 1759 3634 1313 
Q 3634 634 3220 271 
Q 2806 -91 2034 -91 
Q 1263 -91 848 271 
Q 434 634 434 1313 
Q 434 1759 690 2068 
Q 947 2378 1403 2484 
z
M 1172 3481 
Q 1172 3119 1398 2916 
Q 1625 2713 2034 2713 
Q 2441 2713 2670 2916 
Q 2900 3119 2900 3481 
Q 2900 3844 2670 4047 
Q 2441 4250 2034 4250 
Q 1625 4250 1398 4047 
Q 1172 3844 1172 3481 
z
" id="DejaVuSans-38" transform="scale(0.015625)"/>
       </defs>
       <use xlink:href="#DejaVuSans-30"/>
       <use x="63.623047" xlink:href="#DejaVuSans-2e"/>
       <use x="95.410156" xlink:href="#DejaVuSans-38"/>
      </g>
     </g>
    </g>
    <g id="xtick_6">
     <g id="line2d_6">
      <g>
       <use style="stroke:#000000;stroke-width:0.8;" x="266.69548" xlink:href="#m99f21db6ca" y="273.312"/>
      </g>
     </g>
     <g id="text_6">
      <!-- 1.0 -->
      <g transform="translate(258.743918 287.910437)scale(0.1 -0.1)">
       <defs>
        <path d="M 794 531 
L 1825 531 
L 1825 4091 
L 703 3866 
L 703 4441 
L 1819 4666 
L 2450 4666 
L 2450 531 
L 3481 531 
L 3481 0 
L 794 0 
L 794 531 
z
" id="DejaVuSans-31" transform="scale(0.015625)"/>
       </defs>
       <use xlink:href="#DejaVuSans-31"/>
       <use x="63.623047" xlink:href="#DejaVuSans-2e"/>
       <use x="95.410156" xlink:href="#DejaVuSans-30"/>
      </g>
     </g>
    </g>
    <g id="xtick_7">
     <g id="line2d_7">
      <g>
       <use style="stroke:#000000;stroke-width:0.8;" x="308.031781" xlink:href="#m99f21db6ca" y="273.312"/>
      </g>
     </g>
     <g id="text_7">
      <!-- 1.2 -->
      <g transform="translate(300.080218 287.910437)scale(0.1 -0.1)">
       <use xlink:href="#DejaVuSans-31"/>
       <use x="63.623047" xlink:href="#DejaVuSans-2e"/>
       <use x="95.410156" xlink:href="#DejaVuSans-32"/>
      </g>
     </g>
    </g>
    <g id="xtick_8">
     <g id="line2d_8">
      <g>
       <use style="stroke:#000000;stroke-width:0.8;" x="349.368081" xlink:href="#m99f21db6ca" y="273.312"/>
      </g>
     </g>
     <g id="text_8">
      <!-- 1.4 -->
      <g transform="translate(341.416519 287.910437)scale(0.1 -0.1)">
       <use xlink:href="#DejaVuSans-31"/>
       <use x="63.623047" xlink:href="#DejaVuSans-2e"/>
       <use x="95.410156" xlink:href="#DejaVuSans-34"/>
      </g>
     </g>
    </g>
    <g id="xtick_9">
     <g id="line2d_9">
      <g>
       <use style="stroke:#000000;stroke-width:0.8;" x="390.704382" xlink:href="#m99f21db6ca" y="273.312"/>
      </g>
     </g>
     <g id="text_9">
      <!-- 1.6 -->
      <g transform="translate(382.752819 287.910437)scale(0.1 -0.1)">
       <use xlink:href="#DejaVuSans-31"/>
       <use x="63.623047" xlink:href="#DejaVuSans-2e"/>
       <use x="95.410156" xlink:href="#DejaVuSans-36"/>
      </g>
     </g>
    </g>
    <g id="text_10">
     <!-- Angle with normal (rad) -->
     <g transform="translate(163.023281 301.588562)scale(0.1 -0.1)">
      <defs>
       <path d="M 2188 4044 
L 1331 1722 
L 3047 1722 
L 2188 4044 
z
M 1831 4666 
L 2547 4666 
L 4325 0 
L 3669 0 
L 3244 1197 
L 1141 1197 
L 716 0 
L 50 0 
L 1831 4666 
z
" id="DejaVuSans-41" transform="scale(0.015625)"/>
       <path d="M 3513 2113 
L 3513 0 
L 2938 0 
L 2938 2094 
Q 2938 2591 2744 2837 
Q 2550 3084 2163 3084 
Q 1697 3084 1428 2787 
Q 1159 2491 1159 1978 
L 1159 0 
L 581 0 
L 581 3500 
L 1159 3500 
L 1159 2956 
Q 1366 3272 1645 3428 
Q 1925 3584 2291 3584 
Q 2894 3584 3203 3211 
Q 3513 2838 3513 2113 
z
" id="DejaVuSans-6e" transform="scale(0.015625)"/>
       <path d="M 2906 1791 
Q 2906 2416 2648 2759 
Q 2391 3103 1925 3103 
Q 1463 3103 1205 2759 
Q 947 2416 947 1791 
Q 947 1169 1205 825 
Q 1463 481 1925 481 
Q 2391 481 2648 825 
Q 2906 1169 2906 1791 
z
M 3481 434 
Q 3481 -459 3084 -895 
Q 2688 -1331 1869 -1331 
Q 1566 -1331 1297 -1286 
Q 1028 -1241 775 -1147 
L 775 -588 
Q 1028 -725 1275 -790 
Q 1522 -856 1778 -856 
Q 2344 -856 2625 -561 
Q 2906 -266 2906 331 
L 2906 616 
Q 2728 306 2450 153 
Q 2172 0 1784 0 
Q 1141 0 747 490 
Q 353 981 353 1791 
Q 353 2603 747 3093 
Q 1141 3584 1784 3584 
Q 2172 3584 2450 3431 
Q 2728 3278 2906 2969 
L 2906 3500 
L 3481 3500 
L 3481 434 
z
" id="DejaVuSans-67" transform="scale(0.015625)"/>
       <path d="M 603 4863 
L 1178 4863 
L 1178 0 
L 603 0 
L 603 4863 
z
" id="DejaVuSans-6c" transform="scale(0.015625)"/>
       <path d="M 3597 1894 
L 3597 1613 
L 953 1613 
Q 991 1019 1311 708 
Q 1631 397 2203 397 
Q 2534 397 2845 478 
Q 3156 559 3463 722 
L 3463 178 
Q 3153 47 2828 -22 
Q 2503 -91 2169 -91 
Q 1331 -91 842 396 
Q 353 884 353 1716 
Q 353 2575 817 3079 
Q 1281 3584 2069 3584 
Q 2775 3584 3186 3129 
Q 3597 2675 3597 1894 
z
M 3022 2063 
Q 3016 2534 2758 2815 
Q 2500 3097 2075 3097 
Q 1594 3097 1305 2825 
Q 1016 2553 972 2059 
L 3022 2063 
z
" id="DejaVuSans-65" transform="scale(0.015625)"/>
       <path id="DejaVuSans-20" transform="scale(0.015625)"/>
       <path d="M 269 3500 
L 844 3500 
L 1563 769 
L 2278 3500 
L 2956 3500 
L 3675 769 
L 4391 3500 
L 4966 3500 
L 4050 0 
L 3372 0 
L 2619 2869 
L 1863 0 
L 1184 0 
L 269 3500 
z
" id="DejaVuSans-77" transform="scale(0.015625)"/>
       <path d="M 603 3500 
L 1178 3500 
L 1178 0 
L 603 0 
L 603 3500 
z
M 603 4863 
L 1178 4863 
L 1178 4134 
L 603 4134 
L 603 4863 
z
" id="DejaVuSans-69" transform="scale(0.015625)"/>
       <path d="M 1172 4494 
L 1172 3500 
L 2356 3500 
L 2356 3053 
L 1172 3053 
L 1172 1153 
Q 1172 725 1289 603 
Q 1406 481 1766 481 
L 2356 481 
L 2356 0 
L 1766 0 
Q 1100 0 847 248 
Q 594 497 594 1153 
L 594 3053 
L 172 3053 
L 172 3500 
L 594 3500 
L 594 4494 
L 1172 4494 
z
" id="DejaVuSans-74" transform="scale(0.015625)"/>
       <path d="M 3513 2113 
L 3513 0 
L 2938 0 
L 2938 2094 
Q 2938 2591 2744 2837 
Q 2550 3084 2163 3084 
Q 1697 3084 1428 2787 
Q 1159 2491 1159 1978 
L 1159 0 
L 581 0 
L 581 4863 
L 1159 4863 
L 1159 2956 
Q 1366 3272 1645 3428 
Q 1925 3584 2291 3584 
Q 2894 3584 3203 3211 
Q 3513 2838 3513 2113 
z
" id="DejaVuSans-68" transform="scale(0.015625)"/>
       <path d="M 1959 3097 
Q 1497 3097 1228 2736 
Q 959 2375 959 1747 
Q 959 1119 1226 758 
Q 1494 397 1959 397 
Q 2419 397 2687 759 
Q 2956 1122 2956 1747 
Q 2956 2369 2687 2733 
Q 2419 3097 1959 3097 
z
M 1959 3584 
Q 2709 3584 3137 3096 
Q 3566 2609 3566 1747 
Q 3566 888 3137 398 
Q 2709 -91 1959 -91 
Q 1206 -91 779 398 
Q 353 888 353 1747 
Q 353 2609 779 3096 
Q 1206 3584 1959 3584 
z
" id="DejaVuSans-6f" transform="scale(0.015625)"/>
       <path d="M 2631 2963 
Q 2534 3019 2420 3045 
Q 2306 3072 2169 3072 
Q 1681 3072 1420 2755 
Q 1159 2438 1159 1844 
L 1159 0 
L 581 0 
L 581 3500 
L 1159 3500 
L 1159 2956 
Q 1341 3275 1631 3429 
Q 1922 3584 2338 3584 
Q 2397 3584 2469 3576 
Q 2541 3569 2628 3553 
L 2631 2963 
z
" id="DejaVuSans-72" transform="scale(0.015625)"/>
       <path d="M 3328 2828 
Q 3544 3216 3844 3400 
Q 4144 3584 4550 3584 
Q 5097 3584 5394 3201 
Q 5691 2819 5691 2113 
L 5691 0 
L 5113 0 
L 5113 2094 
Q 5113 2597 4934 2840 
Q 4756 3084 4391 3084 
Q 3944 3084 3684 2787 
Q 3425 2491 3425 1978 
L 3425 0 
L 2847 0 
L 2847 2094 
Q 2847 2600 2669 2842 
Q 2491 3084 2119 3084 
Q 1678 3084 1418 2786 
Q 1159 2488 1159 1978 
L 1159 0 
L 581 0 
L 581 3500 
L 1159 3500 
L 1159 2956 
Q 1356 3278 1631 3431 
Q 1906 3584 2284 3584 
Q 2666 3584 2933 3390 
Q 3200 3197 3328 2828 
z
" id="DejaVuSans-6d" transform="scale(0.015625)"/>
       <path d="M 2194 1759 
Q 1497 1759 1228 1600 
Q 959 1441 959 1056 
Q 959 750 1161 570 
Q 1363 391 1709 391 
Q 2188 391 2477 730 
Q 2766 1069 2766 1631 
L 2766 1759 
L 2194 1759 
z
M 3341 1997 
L 3341 0 
L 2766 0 
L 2766 531 
Q 2569 213 2275 61 
Q 1981 -91 1556 -91 
Q 1019 -91 701 211 
Q 384 513 384 1019 
Q 384 1609 779 1909 
Q 1175 2209 1959 2209 
L 2766 2209 
L 2766 2266 
Q 2766 2663 2505 2880 
Q 2244 3097 1772 3097 
Q 1472 3097 1187 3025 
Q 903 2953 641 2809 
L 641 3341 
Q 956 3463 1253 3523 
Q 1550 3584 1831 3584 
Q 2591 3584 2966 3190 
Q 3341 2797 3341 1997 
z
" id="DejaVuSans-61" transform="scale(0.015625)"/>
       <path d="M 1984 4856 
Q 1566 4138 1362 3434 
Q 1159 2731 1159 2009 
Q 1159 1288 1364 580 
Q 1569 -128 1984 -844 
L 1484 -844 
Q 1016 -109 783 600 
Q 550 1309 550 2009 
Q 550 2706 781 3412 
Q 1013 4119 1484 4856 
L 1984 4856 
z
" id="DejaVuSans-28" transform="scale(0.015625)"/>
       <path d="M 2906 2969 
L 2906 4863 
L 3481 4863 
L 3481 0 
L 2906 0 
L 2906 525 
Q 2725 213 2448 61 
Q 2172 -91 1784 -91 
Q 1150 -91 751 415 
Q 353 922 353 1747 
Q 353 2572 751 3078 
Q 1150 3584 1784 3584 
Q 2172 3584 2448 3432 
Q 2725 3281 2906 2969 
z
M 947 1747 
Q 947 1113 1208 752 
Q 1469 391 1925 391 
Q 2381 391 2643 752 
Q 2906 1113 2906 1747 
Q 2906 2381 2643 2742 
Q 2381 3103 1925 3103 
Q 1469 3103 1208 2742 
Q 947 2381 947 1747 
z
" id="DejaVuSans-64" transform="scale(0.015625)"/>
       <path d="M 513 4856 
L 1013 4856 
Q 1481 4119 1714 3412 
Q 1947 2706 1947 2009 
Q 1947 1309 1714 600 
Q 1481 -109 1013 -844 
L 513 -844 
Q 928 -128 1133 580 
Q 1338 1288 1338 2009 
Q 1338 2731 1133 3434 
Q 928 4138 513 4856 
z
" id="DejaVuSans-29" transform="scale(0.015625)"/>
      </defs>
      <use xlink:href="#DejaVuSans-41"/>
      <use x="68.408203" xlink:href="#DejaVuSans-6e"/>
      <use x="131.787109" xlink:href="#DejaVuSans-67"/>
      <use x="195.263672" xlink:href="#DejaVuSans-6c"/>
      <use x="223.046875" xlink:href="#DejaVuSans-65"/>
      <use x="284.570312" xlink:href="#DejaVuSans-20"/>
      <use x="316.357422" xlink:href="#DejaVuSans-77"/>
      <use x="398.144531" xlink:href="#DejaVuSans-69"/>
      <use x="425.927734" xlink:href="#DejaVuSans-74"/>
      <use x="465.136719" xlink:href="#DejaVuSans-68"/>
      <use x="528.515625" xlink:href="#DejaVuSans-20"/>
      <use x="560.302734" xlink:href="#DejaVuSans-6e"/>
      <use x="623.681641" xlink:href="#DejaVuSans-6f"/>
      <use x="684.863281" xlink:href="#DejaVuSans-72"/>
      <use x="724.226562" xlink:href="#DejaVuSans-6d"/>
      <use x="821.638672" xlink:href="#DejaVuSans-61"/>
      <use x="882.917969" xlink:href="#DejaVuSans-6c"/>
      <use x="910.701172" xlink:href="#DejaVuSans-20"/>
      <use x="942.488281" xlink:href="#DejaVuSans-28"/>
      <use x="981.501953" xlink:href="#DejaVuSans-72"/>
      <use x="1022.615234" xlink:href="#DejaVuSans-61"/>
      <use x="1083.894531" xlink:href="#DejaVuSans-64"/>
      <use x="1147.371094" xlink:href="#DejaVuSans-29"/>
     </g>
    </g>
   </g>
   <g id="matplotlib.axis_2">
    <g id="ytick_1">
     <g id="line2d_10">
      <defs>
       <path d="M 0 0 
L -3.5 0 
" id="md6b70e4f7e" style="stroke:#000000;stroke-width:0.8;"/>
      </defs>
      <g>
       <use style="stroke:#000000;stroke-width:0.8;" x="43.78125" xlink:href="#md6b70e4f7e" y="273.312"/>
      </g>
     </g>
     <g id="text_11">
      <!-- 0.0 -->
      <g transform="translate(20.878125 277.111219)scale(0.1 -0.1)">
       <use xlink:href="#DejaVuSans-30"/>
       <use x="63.623047" xlink:href="#DejaVuSans-2e"/>
       <use x="95.410156" xlink:href="#DejaVuSans-30"/>
      </g>
     </g>
    </g>
    <g id="ytick_2">
     <g id="line2d_11">
      <g>
       <use style="stroke:#000000;stroke-width:0.8;" x="43.78125" xlink:href="#md6b70e4f7e" y="228.45554"/>
      </g>
     </g>
     <g id="text_12">
      <!-- 0.2 -->
      <g transform="translate(20.878125 232.254759)scale(0.1 -0.1)">
       <use xlink:href="#DejaVuSans-30"/>
       <use x="63.623047" xlink:href="#DejaVuSans-2e"/>
       <use x="95.410156" xlink:href="#DejaVuSans-32"/>
      </g>
     </g>
    </g>
    <g id="ytick_3">
     <g id="line2d_12">
      <g>
       <use style="stroke:#000000;stroke-width:0.8;" x="43.78125" xlink:href="#md6b70e4f7e" y="183.59908"/>
      </g>
     </g>
     <g id="text_13">
      <!-- 0.4 -->
      <g transform="translate(20.878125 187.398299)scale(0.1 -0.1)">
       <use xlink:href="#DejaVuSans-30"/>
       <use x="63.623047" xlink:href="#DejaVuSans-2e"/>
       <use x="95.410156" xlink:href="#DejaVuSans-34"/>
      </g>
     </g>
    </g>
    <g id="ytick_4">
     <g id="line2d_13">
      <g>
       <use style="stroke:#000000;stroke-width:0.8;" x="43.78125" xlink:href="#md6b70e4f7e" y="138.74262"/>
      </g>
     </g>
     <g id="text_14">
      <!-- 0.6 -->
      <g transform="translate(20.878125 142.541839)scale(0.1 -0.1)">
       <use xlink:href="#DejaVuSans-30"/>
       <use x="63.623047" xlink:href="#DejaVuSans-2e"/>
       <use x="95.410156" xlink:href="#DejaVuSans-36"/>
      </g>
     </g>
    </g>
    <g id="ytick_5">
     <g id="line2d_14">
      <g>
       <use style="stroke:#000000;stroke-width:0.8;" x="43.78125" xlink:href="#md6b70e4f7e" y="93.886161"/>
      </g>
     </g>
     <g id="text_15">
      <!-- 0.8 -->
      <g transform="translate(20.878125 97.685379)scale(0.1 -0.1)">
       <use xlink:href="#DejaVuSans-30"/>
       <use x="63.623047" xlink:href="#DejaVuSans-2e"/>
       <use x="95.410156" xlink:href="#DejaVuSans-38"/>
      </g>
     </g>
    </g>
    <g id="ytick_6">
     <g id="line2d_15">
      <g>
       <use style="stroke:#000000;stroke-width:0.8;" x="43.78125" xlink:href="#md6b70e4f7e" y="49.029701"/>
      </g>
     </g>
     <g id="text_16">
      <!-- 1.0 -->
      <g transform="translate(20.878125 52.82892)scale(0.1 -0.1)">
       <use xlink:href="#DejaVuSans-31"/>
       <use x="63.623047" xlink:href="#DejaVuSans-2e"/>
       <use x="95.410156" xlink:href="#DejaVuSans-30"/>
      </g>
     </g>
    </g>
    <g id="text_17">
     <!-- Probability density -->
     <g transform="translate(14.798438 186.606781)rotate(-90)scale(0.1 -0.1)">
      <defs>
       <path d="M 1259 4147 
L 1259 2394 
L 2053 2394 
Q 2494 2394 2734 2622 
Q 2975 2850 2975 3272 
Q 2975 3691 2734 3919 
Q 2494 4147 2053 4147 
L 1259 4147 
z
M 628 4666 
L 2053 4666 
Q 2838 4666 3239 4311 
Q 3641 3956 3641 3272 
Q 3641 2581 3239 2228 
Q 2838 1875 2053 1875 
L 1259 1875 
L 1259 0 
L 628 0 
L 628 4666 
z
" id="DejaVuSans-50" transform="scale(0.015625)"/>
       <path d="M 3116 1747 
Q 3116 2381 2855 2742 
Q 2594 3103 2138 3103 
Q 1681 3103 1420 2742 
Q 1159 2381 1159 1747 
Q 1159 1113 1420 752 
Q 1681 391 2138 391 
Q 2594 391 2855 752 
Q 3116 1113 3116 1747 
z
M 1159 2969 
Q 1341 3281 1617 3432 
Q 1894 3584 2278 3584 
Q 2916 3584 3314 3078 
Q 3713 2572 3713 1747 
Q 3713 922 3314 415 
Q 2916 -91 2278 -91 
Q 1894 -91 1617 61 
Q 1341 213 1159 525 
L 1159 0 
L 581 0 
L 581 4863 
L 1159 4863 
L 1159 2969 
z
" id="DejaVuSans-62" transform="scale(0.015625)"/>
       <path d="M 2059 -325 
Q 1816 -950 1584 -1140 
Q 1353 -1331 966 -1331 
L 506 -1331 
L 506 -850 
L 844 -850 
Q 1081 -850 1212 -737 
Q 1344 -625 1503 -206 
L 1606 56 
L 191 3500 
L 800 3500 
L 1894 763 
L 2988 3500 
L 3597 3500 
L 2059 -325 
z
" id="DejaVuSans-79" transform="scale(0.015625)"/>
       <path d="M 2834 3397 
L 2834 2853 
Q 2591 2978 2328 3040 
Q 2066 3103 1784 3103 
Q 1356 3103 1142 2972 
Q 928 2841 928 2578 
Q 928 2378 1081 2264 
Q 1234 2150 1697 2047 
L 1894 2003 
Q 2506 1872 2764 1633 
Q 3022 1394 3022 966 
Q 3022 478 2636 193 
Q 2250 -91 1575 -91 
Q 1294 -91 989 -36 
Q 684 19 347 128 
L 347 722 
Q 666 556 975 473 
Q 1284 391 1588 391 
Q 1994 391 2212 530 
Q 2431 669 2431 922 
Q 2431 1156 2273 1281 
Q 2116 1406 1581 1522 
L 1381 1569 
Q 847 1681 609 1914 
Q 372 2147 372 2553 
Q 372 3047 722 3315 
Q 1072 3584 1716 3584 
Q 2034 3584 2315 3537 
Q 2597 3491 2834 3397 
z
" id="DejaVuSans-73" transform="scale(0.015625)"/>
      </defs>
      <use xlink:href="#DejaVuSans-50"/>
      <use x="58.552734" xlink:href="#DejaVuSans-72"/>
      <use x="97.416016" xlink:href="#DejaVuSans-6f"/>
      <use x="158.597656" xlink:href="#DejaVuSans-62"/>
      <use x="222.074219" xlink:href="#DejaVuSans-61"/>
      <use x="283.353516" xlink:href="#DejaVuSans-62"/>
      <use x="346.830078" xlink:href="#DejaVuSans-69"/>
      <use x="374.613281" xlink:href="#DejaVuSans-6c"/>
      <use x="402.396484" xlink:href="#DejaVuSans-69"/>
      <use x="430.179688" xlink:href="#DejaVuSans-74"/>
      <use x="469.388672" xlink:href="#DejaVuSans-79"/>
      <use x="528.568359" xlink:href="#DejaVuSans-20"/>
      <use x="560.355469" xlink:href="#DejaVuSans-64"/>
      <use x="623.832031" xlink:href="#DejaVuSans-65"/>
      <use x="685.355469" xlink:href="#DejaVuSans-6e"/>
      <use x="748.734375" xlink:href="#DejaVuSans-73"/>
      <use x="800.833984" xlink:href="#DejaVuSans-69"/>
      <use x="828.617188" xlink:href="#DejaVuSans-74"/>
      <use x="867.826172" xlink:href="#DejaVuSans-79"/>
     </g>
    </g>
   </g>
   <g id="line2d_16">
    <path clip-path="url(#p70aa6826b2)" d="M 60.013977 273.312 
L 79.837728 230.551538 
L 90.237073 208.649352 
L 99.01152 190.669491 
L 106.811029 175.183333 
L 113.960578 161.476397 
L 120.460169 149.478196 
L 126.63478 138.532774 
L 132.484411 128.606533 
L 138.009063 119.656849 
L 143.208736 111.634243 
L 148.408408 104.020866 
L 153.283101 97.272141 
L 158.157794 90.915051 
L 162.707507 85.347599 
L 167.257221 80.144423 
L 171.481954 75.647903 
L 175.706688 71.481693 
L 179.606442 67.935167 
L 183.506197 64.681077 
L 187.405951 61.724057 
L 190.980726 59.278026 
L 194.555501 57.088086 
L 198.130275 55.156857 
L 201.70505 53.486649 
L 205.279825 52.079461 
L 208.52962 51.029862 
L 211.779415 50.200069 
L 215.029211 49.590901 
L 218.279006 49.202961 
L 221.528801 49.036632 
L 224.778596 49.092079 
L 228.028392 49.369248 
L 231.278187 49.867864 
L 234.527982 50.587434 
L 237.777777 51.527246 
L 241.027573 52.686371 
L 244.277368 54.063663 
L 247.852143 55.829036 
L 251.426917 57.854626 
L 255.001692 60.138009 
L 258.576467 62.676454 
L 262.476221 65.732986 
L 266.375976 69.08509 
L 270.27573 72.727994 
L 274.500464 76.996604 
L 278.725198 81.593272 
L 282.949931 86.510316 
L 287.499645 92.154447 
L 292.049358 98.149662 
L 296.924051 104.949489 
L 301.798744 112.123872 
L 306.998416 120.171392 
L 312.523068 129.146117 
L 318.3727 139.097191 
L 324.547311 150.066863 
L 331.046901 162.088318 
L 337.871471 175.183333 
L 345.346 190.014219 
L 353.795468 207.29992 
L 363.544854 227.785508 
L 375.894076 254.291532 
L 384.668523 273.312 
L 384.668523 273.312 
" style="fill:none;stroke:#ff7f0e;stroke-linecap:square;stroke-width:1.5;"/>
   </g>
   <g id="patch_203">
    <path d="M 43.78125 273.312 
L 43.78125 7.2 
" style="fill:none;stroke:#000000;stroke-linecap:square;stroke-linejoin:miter;stroke-width:0.8;"/>
   </g>
   <g id="patch_204">
    <path d="M 400.90125 273.312 
L 400.90125 7.2 
" style="fill:none;stroke:#000000;stroke-linecap:square;stroke-linejoin:miter;stroke-width:0.8;"/>
   </g>
   <g id="patch_205">
    <path d="M 43.78125 273.312 
L 400.90125 273.312 
" style="fill:none;stroke:#000000;stroke-linecap:square;stroke-linejoin:miter;stroke-width:0.8;"/>
   </g>
   <g id="patch_206">
    <path d="M 43.78125 7.2 
L 400.90125 7.2 
" style="fill:none;stroke:#000000;stroke-linecap:square;stroke-linejoin:miter;stroke-width:0.8;"/>
   </g>
  </g>
 </g>
 <defs>
  <clipPath id="p70aa6826b2">
   <rect height="266.112" width="357.12" x="43.78125" y="7.2"/>
  </clipPath>
 </defs>
</svg>
