<?xml version="1.0" encoding="utf-8" standalone="no"?>
<!DOCTYPE svg PUBLIC "-//W3C//DTD SVG 1.1//EN"
  "http://www.w3.org/Graphics/SVG/1.1/DTD/svg11.dtd">
<svg height="310.86825pt" version="1.1" viewBox="0 0 408.10125 310.86825" width="408.10125pt" xmlns="http://www.w3.org/2000/svg" xmlns:xlink="http://www.w3.org/1999/xlink">
 <metadata>
  <rdf:RDF xmlns:cc="http://creativecommons.org/ns#" xmlns:dc="http://purl.org/dc/elements/1.1/" xmlns:rdf="http://www.w3.org/1999/02/22-rdf-syntax-ns#">
   <cc:Work>
    <dc:type rdf:resource="http://purl.org/dc/dcmitype/StillImage"/>
    <dc:date>2021-07-08T07:55:27.541579</dc:date>
    <dc:format>image/svg+xml</dc:format>
    <dc:creator>
     <cc:Agent>
      <dc:title>Matplotlib v3.4.2, https://matplotlib.org/</dc:title>
     </cc:Agent>
    </dc:creator>
   </cc:Work>
  </rdf:RDF>
 </metadata>
 <defs>
  <style type="text/css">*{stroke-linecap:butt;stroke-linejoin:round;}</style>
 </defs>
 <g id="figure_1">
  <g id="patch_1">
   <path d="M 0 310.86825 
L 408.10125 310.86825 
L 408.10125 0 
L 0 0 
z
" style="fill:#ffffff;"/>
  </g>
  <g id="axes_1">
   <g id="patch_2">
    <path d="M 43.78125 273.312 
L 400.90125 273.312 
L 400.90125 7.2 
L 43.78125 7.2 
z
" style="fill:#ffffff;"/>
   </g>
   <g id="patch_3">
    <path clip-path="url(#p9b631a44ed)" d="M 60.454688 273.312 
L 62.073414 273.312 
L 62.073414 268.078726 
L 60.454688 268.078726 
z
" style="fill:#1f77b4;"/>
   </g>
   <g id="patch_4">
    <path clip-path="url(#p9b631a44ed)" d="M 62.073414 273.312 
L 63.69214 273.312 
L 63.69214 265.835894 
L 62.073414 265.835894 
z
" style="fill:#1f77b4;"/>
   </g>
   <g id="patch_5">
    <path clip-path="url(#p9b631a44ed)" d="M 63.69214 273.312 
L 65.310867 273.312 
L 65.310867 262.845451 
L 63.69214 262.845451 
z
" style="fill:#1f77b4;"/>
   </g>
   <g id="patch_6">
    <path clip-path="url(#p9b631a44ed)" d="M 65.310867 273.312 
L 66.929593 273.312 
L 66.929593 259.107398 
L 65.310867 259.107398 
z
" style="fill:#1f77b4;"/>
   </g>
   <g id="patch_7">
    <path clip-path="url(#p9b631a44ed)" d="M 66.929593 273.312 
L 68.548319 273.312 
L 68.548319 260.602619 
L 66.929593 260.602619 
z
" style="fill:#1f77b4;"/>
   </g>
   <g id="patch_8">
    <path clip-path="url(#p9b631a44ed)" d="M 68.548319 273.312 
L 70.167045 273.312 
L 70.167045 251.631292 
L 68.548319 251.631292 
z
" style="fill:#1f77b4;"/>
   </g>
   <g id="patch_9">
    <path clip-path="url(#p9b631a44ed)" d="M 70.167045 273.312 
L 71.785772 273.312 
L 71.785772 244.155186 
L 70.167045 244.155186 
z
" style="fill:#1f77b4;"/>
   </g>
   <g id="patch_10">
    <path clip-path="url(#p9b631a44ed)" d="M 71.785772 273.312 
L 73.404498 273.312 
L 73.404498 247.893239 
L 71.785772 247.893239 
z
" style="fill:#1f77b4;"/>
   </g>
   <g id="patch_11">
    <path clip-path="url(#p9b631a44ed)" d="M 73.404498 273.312 
L 75.023224 273.312 
L 75.023224 238.921912 
L 73.404498 238.921912 
z
" style="fill:#1f77b4;"/>
   </g>
   <g id="patch_12">
    <path clip-path="url(#p9b631a44ed)" d="M 75.023224 273.312 
L 76.641951 273.312 
L 76.641951 237.42669 
L 75.023224 237.42669 
z
" style="fill:#1f77b4;"/>
   </g>
   <g id="patch_13">
    <path clip-path="url(#p9b631a44ed)" d="M 76.641951 273.312 
L 78.260677 273.312 
L 78.260677 240.417133 
L 76.641951 240.417133 
z
" style="fill:#1f77b4;"/>
   </g>
   <g id="patch_14">
    <path clip-path="url(#p9b631a44ed)" d="M 78.260677 273.312 
L 79.879403 273.312 
L 79.879403 238.174301 
L 78.260677 238.174301 
z
" style="fill:#1f77b4;"/>
   </g>
   <g id="patch_15">
    <path clip-path="url(#p9b631a44ed)" d="M 79.879403 273.312 
L 81.49813 273.312 
L 81.49813 220.979257 
L 79.879403 220.979257 
z
" style="fill:#1f77b4;"/>
   </g>
   <g id="patch_16">
    <path clip-path="url(#p9b631a44ed)" d="M 81.49813 273.312 
L 83.116856 273.312 
L 83.116856 217.241204 
L 81.49813 217.241204 
z
" style="fill:#1f77b4;"/>
   </g>
   <g id="patch_17">
    <path clip-path="url(#p9b631a44ed)" d="M 83.116856 273.312 
L 84.735582 273.312 
L 84.735582 222.474478 
L 83.116856 222.474478 
z
" style="fill:#1f77b4;"/>
   </g>
   <g id="patch_18">
    <path clip-path="url(#p9b631a44ed)" d="M 84.735582 273.312 
L 86.354309 273.312 
L 86.354309 231.445805 
L 84.735582 231.445805 
z
" style="fill:#1f77b4;"/>
   </g>
   <g id="patch_19">
    <path clip-path="url(#p9b631a44ed)" d="M 86.354309 273.312 
L 87.973035 273.312 
L 87.973035 214.998372 
L 86.354309 214.998372 
z
" style="fill:#1f77b4;"/>
   </g>
   <g id="patch_20">
    <path clip-path="url(#p9b631a44ed)" d="M 87.973035 273.312 
L 89.591761 273.312 
L 89.591761 200.79377 
L 87.973035 200.79377 
z
" style="fill:#1f77b4;"/>
   </g>
   <g id="patch_21">
    <path clip-path="url(#p9b631a44ed)" d="M 89.591761 273.312 
L 91.210488 273.312 
L 91.210488 217.241204 
L 89.591761 217.241204 
z
" style="fill:#1f77b4;"/>
   </g>
   <g id="patch_22">
    <path clip-path="url(#p9b631a44ed)" d="M 91.210488 273.312 
L 92.829214 273.312 
L 92.829214 210.512708 
L 91.210488 210.512708 
z
" style="fill:#1f77b4;"/>
   </g>
   <g id="patch_23">
    <path clip-path="url(#p9b631a44ed)" d="M 92.829214 273.312 
L 94.44794 273.312 
L 94.44794 201.541381 
L 92.829214 201.541381 
z
" style="fill:#1f77b4;"/>
   </g>
   <g id="patch_24">
    <path clip-path="url(#p9b631a44ed)" d="M 94.44794 273.312 
L 96.066667 273.312 
L 96.066667 189.579611 
L 94.44794 189.579611 
z
" style="fill:#1f77b4;"/>
   </g>
   <g id="patch_25">
    <path clip-path="url(#p9b631a44ed)" d="M 96.066667 273.312 
L 97.685393 273.312 
L 97.685393 200.79377 
L 96.066667 200.79377 
z
" style="fill:#1f77b4;"/>
   </g>
   <g id="patch_26">
    <path clip-path="url(#p9b631a44ed)" d="M 97.685393 273.312 
L 99.304119 273.312 
L 99.304119 193.317664 
L 97.685393 193.317664 
z
" style="fill:#1f77b4;"/>
   </g>
   <g id="patch_27">
    <path clip-path="url(#p9b631a44ed)" d="M 99.304119 273.312 
L 100.922845 273.312 
L 100.922845 196.308106 
L 99.304119 196.308106 
z
" style="fill:#1f77b4;"/>
   </g>
   <g id="patch_28">
    <path clip-path="url(#p9b631a44ed)" d="M 100.922845 273.312 
L 102.541572 273.312 
L 102.541572 182.103504 
L 100.922845 182.103504 
z
" style="fill:#1f77b4;"/>
   </g>
   <g id="patch_29">
    <path clip-path="url(#p9b631a44ed)" d="M 102.541572 273.312 
L 104.160298 273.312 
L 104.160298 177.617841 
L 102.541572 177.617841 
z
" style="fill:#1f77b4;"/>
   </g>
   <g id="patch_30">
    <path clip-path="url(#p9b631a44ed)" d="M 104.160298 273.312 
L 105.779024 273.312 
L 105.779024 178.365451 
L 104.160298 178.365451 
z
" style="fill:#1f77b4;"/>
   </g>
   <g id="patch_31">
    <path clip-path="url(#p9b631a44ed)" d="M 105.779024 273.312 
L 107.397751 273.312 
L 107.397751 170.141735 
L 105.779024 170.141735 
z
" style="fill:#1f77b4;"/>
   </g>
   <g id="patch_32">
    <path clip-path="url(#p9b631a44ed)" d="M 107.397751 273.312 
L 109.016477 273.312 
L 109.016477 161.918018 
L 107.397751 161.918018 
z
" style="fill:#1f77b4;"/>
   </g>
   <g id="patch_33">
    <path clip-path="url(#p9b631a44ed)" d="M 109.016477 273.312 
L 110.635203 273.312 
L 110.635203 165.656071 
L 109.016477 165.656071 
z
" style="fill:#1f77b4;"/>
   </g>
   <g id="patch_34">
    <path clip-path="url(#p9b631a44ed)" d="M 110.635203 273.312 
L 112.25393 273.312 
L 112.25393 151.451469 
L 110.635203 151.451469 
z
" style="fill:#1f77b4;"/>
   </g>
   <g id="patch_35">
    <path clip-path="url(#p9b631a44ed)" d="M 112.25393 273.312 
L 113.872656 273.312 
L 113.872656 148.461027 
L 112.25393 148.461027 
z
" style="fill:#1f77b4;"/>
   </g>
   <g id="patch_36">
    <path clip-path="url(#p9b631a44ed)" d="M 113.872656 273.312 
L 115.491382 273.312 
L 115.491382 168.646513 
L 113.872656 168.646513 
z
" style="fill:#1f77b4;"/>
   </g>
   <g id="patch_37">
    <path clip-path="url(#p9b631a44ed)" d="M 115.491382 273.312 
L 117.110109 273.312 
L 117.110109 134.256425 
L 115.491382 134.256425 
z
" style="fill:#1f77b4;"/>
   </g>
   <g id="patch_38">
    <path clip-path="url(#p9b631a44ed)" d="M 117.110109 273.312 
L 118.728835 273.312 
L 118.728835 150.703858 
L 117.110109 150.703858 
z
" style="fill:#1f77b4;"/>
   </g>
   <g id="patch_39">
    <path clip-path="url(#p9b631a44ed)" d="M 118.728835 273.312 
L 120.347561 273.312 
L 120.347561 129.02315 
L 118.728835 129.02315 
z
" style="fill:#1f77b4;"/>
   </g>
   <g id="patch_40">
    <path clip-path="url(#p9b631a44ed)" d="M 120.347561 273.312 
L 121.966288 273.312 
L 121.966288 135.004035 
L 120.347561 135.004035 
z
" style="fill:#1f77b4;"/>
   </g>
   <g id="patch_41">
    <path clip-path="url(#p9b631a44ed)" d="M 121.966288 273.312 
L 123.585014 273.312 
L 123.585014 129.02315 
L 121.966288 129.02315 
z
" style="fill:#1f77b4;"/>
   </g>
   <g id="patch_42">
    <path clip-path="url(#p9b631a44ed)" d="M 123.585014 273.312 
L 125.20374 273.312 
L 125.20374 123.789876 
L 123.585014 123.789876 
z
" style="fill:#1f77b4;"/>
   </g>
   <g id="patch_43">
    <path clip-path="url(#p9b631a44ed)" d="M 125.20374 273.312 
L 126.822467 273.312 
L 126.822467 120.799434 
L 125.20374 120.799434 
z
" style="fill:#1f77b4;"/>
   </g>
   <g id="patch_44">
    <path clip-path="url(#p9b631a44ed)" d="M 126.822467 273.312 
L 128.441193 273.312 
L 128.441193 141.732531 
L 126.822467 141.732531 
z
" style="fill:#1f77b4;"/>
   </g>
   <g id="patch_45">
    <path clip-path="url(#p9b631a44ed)" d="M 128.441193 273.312 
L 130.059919 273.312 
L 130.059919 123.789876 
L 128.441193 123.789876 
z
" style="fill:#1f77b4;"/>
   </g>
   <g id="patch_46">
    <path clip-path="url(#p9b631a44ed)" d="M 130.059919 273.312 
L 131.678645 273.312 
L 131.678645 126.780319 
L 130.059919 126.780319 
z
" style="fill:#1f77b4;"/>
   </g>
   <g id="patch_47">
    <path clip-path="url(#p9b631a44ed)" d="M 131.678645 273.312 
L 133.297372 273.312 
L 133.297372 120.799434 
L 131.678645 120.799434 
z
" style="fill:#1f77b4;"/>
   </g>
   <g id="patch_48">
    <path clip-path="url(#p9b631a44ed)" d="M 133.297372 273.312 
L 134.916098 273.312 
L 134.916098 111.828106 
L 133.297372 111.828106 
z
" style="fill:#1f77b4;"/>
   </g>
   <g id="patch_49">
    <path clip-path="url(#p9b631a44ed)" d="M 134.916098 273.312 
L 136.534824 273.312 
L 136.534824 119.304212 
L 134.916098 119.304212 
z
" style="fill:#1f77b4;"/>
   </g>
   <g id="patch_50">
    <path clip-path="url(#p9b631a44ed)" d="M 136.534824 273.312 
L 138.153551 273.312 
L 138.153551 102.856779 
L 136.534824 102.856779 
z
" style="fill:#1f77b4;"/>
   </g>
   <g id="patch_51">
    <path clip-path="url(#p9b631a44ed)" d="M 138.153551 273.312 
L 139.772277 273.312 
L 139.772277 116.31377 
L 138.153551 116.31377 
z
" style="fill:#1f77b4;"/>
   </g>
   <g id="patch_52">
    <path clip-path="url(#p9b631a44ed)" d="M 139.772277 273.312 
L 141.391003 273.312 
L 141.391003 112.575717 
L 139.772277 112.575717 
z
" style="fill:#1f77b4;"/>
   </g>
   <g id="patch_53">
    <path clip-path="url(#p9b631a44ed)" d="M 141.391003 273.312 
L 143.00973 273.312 
L 143.00973 93.885451 
L 141.391003 93.885451 
z
" style="fill:#1f77b4;"/>
   </g>
   <g id="patch_54">
    <path clip-path="url(#p9b631a44ed)" d="M 143.00973 273.312 
L 144.628456 273.312 
L 144.628456 105.847221 
L 143.00973 105.847221 
z
" style="fill:#1f77b4;"/>
   </g>
   <g id="patch_55">
    <path clip-path="url(#p9b631a44ed)" d="M 144.628456 273.312 
L 146.247182 273.312 
L 146.247182 105.847221 
L 144.628456 105.847221 
z
" style="fill:#1f77b4;"/>
   </g>
   <g id="patch_56">
    <path clip-path="url(#p9b631a44ed)" d="M 146.247182 273.312 
L 147.865909 273.312 
L 147.865909 109.585274 
L 146.247182 109.585274 
z
" style="fill:#1f77b4;"/>
   </g>
   <g id="patch_57">
    <path clip-path="url(#p9b631a44ed)" d="M 147.865909 273.312 
L 149.484635 273.312 
L 149.484635 105.099611 
L 147.865909 105.099611 
z
" style="fill:#1f77b4;"/>
   </g>
   <g id="patch_58">
    <path clip-path="url(#p9b631a44ed)" d="M 149.484635 273.312 
L 151.103361 273.312 
L 151.103361 85.661735 
L 149.484635 85.661735 
z
" style="fill:#1f77b4;"/>
   </g>
   <g id="patch_59">
    <path clip-path="url(#p9b631a44ed)" d="M 151.103361 273.312 
L 152.722088 273.312 
L 152.722088 96.128283 
L 151.103361 96.128283 
z
" style="fill:#1f77b4;"/>
   </g>
   <g id="patch_60">
    <path clip-path="url(#p9b631a44ed)" d="M 152.722088 273.312 
L 154.340814 273.312 
L 154.340814 99.118726 
L 152.722088 99.118726 
z
" style="fill:#1f77b4;"/>
   </g>
   <g id="patch_61">
    <path clip-path="url(#p9b631a44ed)" d="M 154.340814 273.312 
L 155.95954 273.312 
L 155.95954 92.39023 
L 154.340814 92.39023 
z
" style="fill:#1f77b4;"/>
   </g>
   <g id="patch_62">
    <path clip-path="url(#p9b631a44ed)" d="M 155.95954 273.312 
L 157.578267 273.312 
L 157.578267 78.933239 
L 155.95954 78.933239 
z
" style="fill:#1f77b4;"/>
   </g>
   <g id="patch_63">
    <path clip-path="url(#p9b631a44ed)" d="M 157.578267 273.312 
L 159.196993 273.312 
L 159.196993 81.923681 
L 157.578267 81.923681 
z
" style="fill:#1f77b4;"/>
   </g>
   <g id="patch_64">
    <path clip-path="url(#p9b631a44ed)" d="M 159.196993 273.312 
L 160.815719 273.312 
L 160.815719 58.747752 
L 159.196993 58.747752 
z
" style="fill:#1f77b4;"/>
   </g>
   <g id="patch_65">
    <path clip-path="url(#p9b631a44ed)" d="M 160.815719 273.312 
L 162.434446 273.312 
L 162.434446 82.671292 
L 160.815719 82.671292 
z
" style="fill:#1f77b4;"/>
   </g>
   <g id="patch_66">
    <path clip-path="url(#p9b631a44ed)" d="M 162.434446 273.312 
L 164.053172 273.312 
L 164.053172 72.952354 
L 162.434446 72.952354 
z
" style="fill:#1f77b4;"/>
   </g>
   <g id="patch_67">
    <path clip-path="url(#p9b631a44ed)" d="M 164.053172 273.312 
L 165.671898 273.312 
L 165.671898 79.68085 
L 164.053172 79.68085 
z
" style="fill:#1f77b4;"/>
   </g>
   <g id="patch_68">
    <path clip-path="url(#p9b631a44ed)" d="M 165.671898 273.312 
L 167.290624 273.312 
L 167.290624 75.195186 
L 165.671898 75.195186 
z
" style="fill:#1f77b4;"/>
   </g>
   <g id="patch_69">
    <path clip-path="url(#p9b631a44ed)" d="M 167.290624 273.312 
L 168.909351 273.312 
L 168.909351 76.690407 
L 167.290624 76.690407 
z
" style="fill:#1f77b4;"/>
   </g>
   <g id="patch_70">
    <path clip-path="url(#p9b631a44ed)" d="M 168.909351 273.312 
L 170.528077 273.312 
L 170.528077 73.699965 
L 168.909351 73.699965 
z
" style="fill:#1f77b4;"/>
   </g>
   <g id="patch_71">
    <path clip-path="url(#p9b631a44ed)" d="M 170.528077 273.312 
L 172.146803 273.312 
L 172.146803 71.457133 
L 170.528077 71.457133 
z
" style="fill:#1f77b4;"/>
   </g>
   <g id="patch_72">
    <path clip-path="url(#p9b631a44ed)" d="M 172.146803 273.312 
L 173.76553 273.312 
L 173.76553 79.68085 
L 172.146803 79.68085 
z
" style="fill:#1f77b4;"/>
   </g>
   <g id="patch_73">
    <path clip-path="url(#p9b631a44ed)" d="M 173.76553 273.312 
L 175.384256 273.312 
L 175.384256 60.990584 
L 173.76553 60.990584 
z
" style="fill:#1f77b4;"/>
   </g>
   <g id="patch_74">
    <path clip-path="url(#p9b631a44ed)" d="M 175.384256 273.312 
L 177.002982 273.312 
L 177.002982 102.856779 
L 175.384256 102.856779 
z
" style="fill:#1f77b4;"/>
   </g>
   <g id="patch_75">
    <path clip-path="url(#p9b631a44ed)" d="M 177.002982 273.312 
L 178.621709 273.312 
L 178.621709 46.785982 
L 177.002982 46.785982 
z
" style="fill:#1f77b4;"/>
   </g>
   <g id="patch_76">
    <path clip-path="url(#p9b631a44ed)" d="M 178.621709 273.312 
L 180.240435 273.312 
L 180.240435 62.485805 
L 178.621709 62.485805 
z
" style="fill:#1f77b4;"/>
   </g>
   <g id="patch_77">
    <path clip-path="url(#p9b631a44ed)" d="M 180.240435 273.312 
L 181.859161 273.312 
L 181.859161 79.68085 
L 180.240435 79.68085 
z
" style="fill:#1f77b4;"/>
   </g>
   <g id="patch_78">
    <path clip-path="url(#p9b631a44ed)" d="M 181.859161 273.312 
L 183.477888 273.312 
L 183.477888 50.524035 
L 181.859161 50.524035 
z
" style="fill:#1f77b4;"/>
   </g>
   <g id="patch_79">
    <path clip-path="url(#p9b631a44ed)" d="M 183.477888 273.312 
L 185.096614 273.312 
L 185.096614 40.057487 
L 183.477888 40.057487 
z
" style="fill:#1f77b4;"/>
   </g>
   <g id="patch_80">
    <path clip-path="url(#p9b631a44ed)" d="M 185.096614 273.312 
L 186.71534 273.312 
L 186.71534 56.50492 
L 185.096614 56.50492 
z
" style="fill:#1f77b4;"/>
   </g>
   <g id="patch_81">
    <path clip-path="url(#p9b631a44ed)" d="M 186.71534 273.312 
L 188.334067 273.312 
L 188.334067 46.038372 
L 186.71534 46.038372 
z
" style="fill:#1f77b4;"/>
   </g>
   <g id="patch_82">
    <path clip-path="url(#p9b631a44ed)" d="M 188.334067 273.312 
L 189.952793 273.312 
L 189.952793 42.300319 
L 188.334067 42.300319 
z
" style="fill:#1f77b4;"/>
   </g>
   <g id="patch_83">
    <path clip-path="url(#p9b631a44ed)" d="M 189.952793 273.312 
L 191.571519 273.312 
L 191.571519 34.824212 
L 189.952793 34.824212 
z
" style="fill:#1f77b4;"/>
   </g>
   <g id="patch_84">
    <path clip-path="url(#p9b631a44ed)" d="M 191.571519 273.312 
L 193.190246 273.312 
L 193.190246 75.195186 
L 191.571519 75.195186 
z
" style="fill:#1f77b4;"/>
   </g>
   <g id="patch_85">
    <path clip-path="url(#p9b631a44ed)" d="M 193.190246 273.312 
L 194.808972 273.312 
L 194.808972 74.447575 
L 193.190246 74.447575 
z
" style="fill:#1f77b4;"/>
   </g>
   <g id="patch_86">
    <path clip-path="url(#p9b631a44ed)" d="M 194.808972 273.312 
L 196.427698 273.312 
L 196.427698 47.533593 
L 194.808972 47.533593 
z
" style="fill:#1f77b4;"/>
   </g>
   <g id="patch_87">
    <path clip-path="url(#p9b631a44ed)" d="M 196.427698 273.312 
L 198.046424 273.312 
L 198.046424 54.262088 
L 196.427698 54.262088 
z
" style="fill:#1f77b4;"/>
   </g>
   <g id="patch_88">
    <path clip-path="url(#p9b631a44ed)" d="M 198.046424 273.312 
L 199.665151 273.312 
L 199.665151 23.610053 
L 198.046424 23.610053 
z
" style="fill:#1f77b4;"/>
   </g>
   <g id="patch_89">
    <path clip-path="url(#p9b631a44ed)" d="M 199.665151 273.312 
L 201.283877 273.312 
L 201.283877 40.057487 
L 199.665151 40.057487 
z
" style="fill:#1f77b4;"/>
   </g>
   <g id="patch_90">
    <path clip-path="url(#p9b631a44ed)" d="M 201.283877 273.312 
L 202.902603 273.312 
L 202.902603 47.533593 
L 201.283877 47.533593 
z
" style="fill:#1f77b4;"/>
   </g>
   <g id="patch_91">
    <path clip-path="url(#p9b631a44ed)" d="M 202.902603 273.312 
L 204.52133 273.312 
L 204.52133 46.038372 
L 202.902603 46.038372 
z
" style="fill:#1f77b4;"/>
   </g>
   <g id="patch_92">
    <path clip-path="url(#p9b631a44ed)" d="M 204.52133 273.312 
L 206.140056 273.312 
L 206.140056 38.562265 
L 204.52133 38.562265 
z
" style="fill:#1f77b4;"/>
   </g>
   <g id="patch_93">
    <path clip-path="url(#p9b631a44ed)" d="M 206.140056 273.312 
L 207.758782 273.312 
L 207.758782 34.076602 
L 206.140056 34.076602 
z
" style="fill:#1f77b4;"/>
   </g>
   <g id="patch_94">
    <path clip-path="url(#p9b631a44ed)" d="M 207.758782 273.312 
L 209.377509 273.312 
L 209.377509 60.242973 
L 207.758782 60.242973 
z
" style="fill:#1f77b4;"/>
   </g>
   <g id="patch_95">
    <path clip-path="url(#p9b631a44ed)" d="M 209.377509 273.312 
L 210.996235 273.312 
L 210.996235 61.738195 
L 209.377509 61.738195 
z
" style="fill:#1f77b4;"/>
   </g>
   <g id="patch_96">
    <path clip-path="url(#p9b631a44ed)" d="M 210.996235 273.312 
L 212.614961 273.312 
L 212.614961 42.300319 
L 210.996235 42.300319 
z
" style="fill:#1f77b4;"/>
   </g>
   <g id="patch_97">
    <path clip-path="url(#p9b631a44ed)" d="M 212.614961 273.312 
L 214.233688 273.312 
L 214.233688 61.738195 
L 212.614961 61.738195 
z
" style="fill:#1f77b4;"/>
   </g>
   <g id="patch_98">
    <path clip-path="url(#p9b631a44ed)" d="M 214.233688 273.312 
L 215.852414 273.312 
L 215.852414 50.524035 
L 214.233688 50.524035 
z
" style="fill:#1f77b4;"/>
   </g>
   <g id="patch_99">
    <path clip-path="url(#p9b631a44ed)" d="M 215.852414 273.312 
L 217.47114 273.312 
L 217.47114 54.262088 
L 215.852414 54.262088 
z
" style="fill:#1f77b4;"/>
   </g>
   <g id="patch_100">
    <path clip-path="url(#p9b631a44ed)" d="M 217.47114 273.312 
L 219.089867 273.312 
L 219.089867 27.348106 
L 217.47114 27.348106 
z
" style="fill:#1f77b4;"/>
   </g>
   <g id="patch_101">
    <path clip-path="url(#p9b631a44ed)" d="M 219.089867 273.312 
L 220.708593 273.312 
L 220.708593 47.533593 
L 219.089867 47.533593 
z
" style="fill:#1f77b4;"/>
   </g>
   <g id="patch_102">
    <path clip-path="url(#p9b631a44ed)" d="M 220.708593 273.312 
L 222.327319 273.312 
L 222.327319 54.262088 
L 220.708593 54.262088 
z
" style="fill:#1f77b4;"/>
   </g>
   <g id="patch_103">
    <path clip-path="url(#p9b631a44ed)" d="M 222.327319 273.312 
L 223.946046 273.312 
L 223.946046 42.300319 
L 222.327319 42.300319 
z
" style="fill:#1f77b4;"/>
   </g>
   <g id="patch_104">
    <path clip-path="url(#p9b631a44ed)" d="M 223.946046 273.312 
L 225.564772 273.312 
L 225.564772 49.028814 
L 223.946046 49.028814 
z
" style="fill:#1f77b4;"/>
   </g>
   <g id="patch_105">
    <path clip-path="url(#p9b631a44ed)" d="M 225.564772 273.312 
L 227.183498 273.312 
L 227.183498 29.590938 
L 225.564772 29.590938 
z
" style="fill:#1f77b4;"/>
   </g>
   <g id="patch_106">
    <path clip-path="url(#p9b631a44ed)" d="M 227.183498 273.312 
L 228.802224 273.312 
L 228.802224 49.776425 
L 227.183498 49.776425 
z
" style="fill:#1f77b4;"/>
   </g>
   <g id="patch_107">
    <path clip-path="url(#p9b631a44ed)" d="M 228.802224 273.312 
L 230.420951 273.312 
L 230.420951 54.262088 
L 228.802224 54.262088 
z
" style="fill:#1f77b4;"/>
   </g>
   <g id="patch_108">
    <path clip-path="url(#p9b631a44ed)" d="M 230.420951 273.312 
L 232.039677 273.312 
L 232.039677 39.309876 
L 230.420951 39.309876 
z
" style="fill:#1f77b4;"/>
   </g>
   <g id="patch_109">
    <path clip-path="url(#p9b631a44ed)" d="M 232.039677 273.312 
L 233.658403 273.312 
L 233.658403 47.533593 
L 232.039677 47.533593 
z
" style="fill:#1f77b4;"/>
   </g>
   <g id="patch_110">
    <path clip-path="url(#p9b631a44ed)" d="M 233.658403 273.312 
L 235.27713 273.312 
L 235.27713 43.047929 
L 233.658403 43.047929 
z
" style="fill:#1f77b4;"/>
   </g>
   <g id="patch_111">
    <path clip-path="url(#p9b631a44ed)" d="M 235.27713 273.312 
L 236.895856 273.312 
L 236.895856 37.814655 
L 235.27713 37.814655 
z
" style="fill:#1f77b4;"/>
   </g>
   <g id="patch_112">
    <path clip-path="url(#p9b631a44ed)" d="M 236.895856 273.312 
L 238.514582 273.312 
L 238.514582 42.300319 
L 236.895856 42.300319 
z
" style="fill:#1f77b4;"/>
   </g>
   <g id="patch_113">
    <path clip-path="url(#p9b631a44ed)" d="M 238.514582 273.312 
L 240.133309 273.312 
L 240.133309 43.79554 
L 238.514582 43.79554 
z
" style="fill:#1f77b4;"/>
   </g>
   <g id="patch_114">
    <path clip-path="url(#p9b631a44ed)" d="M 240.133309 273.312 
L 241.752035 273.312 
L 241.752035 26.600496 
L 240.133309 26.600496 
z
" style="fill:#1f77b4;"/>
   </g>
   <g id="patch_115">
    <path clip-path="url(#p9b631a44ed)" d="M 241.752035 273.312 
L 243.370761 273.312 
L 243.370761 34.076602 
L 241.752035 34.076602 
z
" style="fill:#1f77b4;"/>
   </g>
   <g id="patch_116">
    <path clip-path="url(#p9b631a44ed)" d="M 243.370761 273.312 
L 244.989488 273.312 
L 244.989488 34.076602 
L 243.370761 34.076602 
z
" style="fill:#1f77b4;"/>
   </g>
   <g id="patch_117">
    <path clip-path="url(#p9b631a44ed)" d="M 244.989488 273.312 
L 246.608214 273.312 
L 246.608214 55.75731 
L 244.989488 55.75731 
z
" style="fill:#1f77b4;"/>
   </g>
   <g id="patch_118">
    <path clip-path="url(#p9b631a44ed)" d="M 246.608214 273.312 
L 248.22694 273.312 
L 248.22694 46.038372 
L 246.608214 46.038372 
z
" style="fill:#1f77b4;"/>
   </g>
   <g id="patch_119">
    <path clip-path="url(#p9b631a44ed)" d="M 248.22694 273.312 
L 249.845667 273.312 
L 249.845667 32.581381 
L 248.22694 32.581381 
z
" style="fill:#1f77b4;"/>
   </g>
   <g id="patch_120">
    <path clip-path="url(#p9b631a44ed)" d="M 249.845667 273.312 
L 251.464393 273.312 
L 251.464393 19.872 
L 249.845667 19.872 
z
" style="fill:#1f77b4;"/>
   </g>
   <g id="patch_121">
    <path clip-path="url(#p9b631a44ed)" d="M 251.464393 273.312 
L 253.083119 273.312 
L 253.083119 49.776425 
L 251.464393 49.776425 
z
" style="fill:#1f77b4;"/>
   </g>
   <g id="patch_122">
    <path clip-path="url(#p9b631a44ed)" d="M 253.083119 273.312 
L 254.701846 273.312 
L 254.701846 25.852885 
L 253.083119 25.852885 
z
" style="fill:#1f77b4;"/>
   </g>
   <g id="patch_123">
    <path clip-path="url(#p9b631a44ed)" d="M 254.701846 273.312 
L 256.320572 273.312 
L 256.320572 37.814655 
L 254.701846 37.814655 
z
" style="fill:#1f77b4;"/>
   </g>
   <g id="patch_124">
    <path clip-path="url(#p9b631a44ed)" d="M 256.320572 273.312 
L 257.939298 273.312 
L 257.939298 24.357664 
L 256.320572 24.357664 
z
" style="fill:#1f77b4;"/>
   </g>
   <g id="patch_125">
    <path clip-path="url(#p9b631a44ed)" d="M 257.939298 273.312 
L 259.558025 273.312 
L 259.558025 54.262088 
L 257.939298 54.262088 
z
" style="fill:#1f77b4;"/>
   </g>
   <g id="patch_126">
    <path clip-path="url(#p9b631a44ed)" d="M 259.558025 273.312 
L 261.176751 273.312 
L 261.176751 41.552708 
L 259.558025 41.552708 
z
" style="fill:#1f77b4;"/>
   </g>
   <g id="patch_127">
    <path clip-path="url(#p9b631a44ed)" d="M 261.176751 273.312 
L 262.795477 273.312 
L 262.795477 53.514478 
L 261.176751 53.514478 
z
" style="fill:#1f77b4;"/>
   </g>
   <g id="patch_128">
    <path clip-path="url(#p9b631a44ed)" d="M 262.795477 273.312 
L 264.414203 273.312 
L 264.414203 43.047929 
L 262.795477 43.047929 
z
" style="fill:#1f77b4;"/>
   </g>
   <g id="patch_129">
    <path clip-path="url(#p9b631a44ed)" d="M 264.414203 273.312 
L 266.03293 273.312 
L 266.03293 50.524035 
L 264.414203 50.524035 
z
" style="fill:#1f77b4;"/>
   </g>
   <g id="patch_130">
    <path clip-path="url(#p9b631a44ed)" d="M 266.03293 273.312 
L 267.651656 273.312 
L 267.651656 46.038372 
L 266.03293 46.038372 
z
" style="fill:#1f77b4;"/>
   </g>
   <g id="patch_131">
    <path clip-path="url(#p9b631a44ed)" d="M 267.651656 273.312 
L 269.270382 273.312 
L 269.270382 79.68085 
L 267.651656 79.68085 
z
" style="fill:#1f77b4;"/>
   </g>
   <g id="patch_132">
    <path clip-path="url(#p9b631a44ed)" d="M 269.270382 273.312 
L 270.889109 273.312 
L 270.889109 71.457133 
L 269.270382 71.457133 
z
" style="fill:#1f77b4;"/>
   </g>
   <g id="patch_133">
    <path clip-path="url(#p9b631a44ed)" d="M 270.889109 273.312 
L 272.507835 273.312 
L 272.507835 75.195186 
L 270.889109 75.195186 
z
" style="fill:#1f77b4;"/>
   </g>
   <g id="patch_134">
    <path clip-path="url(#p9b631a44ed)" d="M 272.507835 273.312 
L 274.126561 273.312 
L 274.126561 81.176071 
L 272.507835 81.176071 
z
" style="fill:#1f77b4;"/>
   </g>
   <g id="patch_135">
    <path clip-path="url(#p9b631a44ed)" d="M 274.126561 273.312 
L 275.745288 273.312 
L 275.745288 77.438018 
L 274.126561 77.438018 
z
" style="fill:#1f77b4;"/>
   </g>
   <g id="patch_136">
    <path clip-path="url(#p9b631a44ed)" d="M 275.745288 273.312 
L 277.364014 273.312 
L 277.364014 66.223858 
L 275.745288 66.223858 
z
" style="fill:#1f77b4;"/>
   </g>
   <g id="patch_137">
    <path clip-path="url(#p9b631a44ed)" d="M 277.364014 273.312 
L 278.98274 273.312 
L 278.98274 83.418903 
L 277.364014 83.418903 
z
" style="fill:#1f77b4;"/>
   </g>
   <g id="patch_138">
    <path clip-path="url(#p9b631a44ed)" d="M 278.98274 273.312 
L 280.601467 273.312 
L 280.601467 75.942796 
L 278.98274 75.942796 
z
" style="fill:#1f77b4;"/>
   </g>
   <g id="patch_139">
    <path clip-path="url(#p9b631a44ed)" d="M 280.601467 273.312 
L 282.220193 273.312 
L 282.220193 77.438018 
L 280.601467 77.438018 
z
" style="fill:#1f77b4;"/>
   </g>
   <g id="patch_140">
    <path clip-path="url(#p9b631a44ed)" d="M 282.220193 273.312 
L 283.838919 273.312 
L 283.838919 58.000142 
L 282.220193 58.000142 
z
" style="fill:#1f77b4;"/>
   </g>
   <g id="patch_141">
    <path clip-path="url(#p9b631a44ed)" d="M 283.838919 273.312 
L 285.457646 273.312 
L 285.457646 107.342442 
L 283.838919 107.342442 
z
" style="fill:#1f77b4;"/>
   </g>
   <g id="patch_142">
    <path clip-path="url(#p9b631a44ed)" d="M 285.457646 273.312 
L 287.076372 273.312 
L 287.076372 80.42846 
L 285.457646 80.42846 
z
" style="fill:#1f77b4;"/>
   </g>
   <g id="patch_143">
    <path clip-path="url(#p9b631a44ed)" d="M 287.076372 273.312 
L 288.695098 273.312 
L 288.695098 79.68085 
L 287.076372 79.68085 
z
" style="fill:#1f77b4;"/>
   </g>
   <g id="patch_144">
    <path clip-path="url(#p9b631a44ed)" d="M 288.695098 273.312 
L 290.313825 273.312 
L 290.313825 92.39023 
L 288.695098 92.39023 
z
" style="fill:#1f77b4;"/>
   </g>
   <g id="patch_145">
    <path clip-path="url(#p9b631a44ed)" d="M 290.313825 273.312 
L 291.932551 273.312 
L 291.932551 95.380673 
L 290.313825 95.380673 
z
" style="fill:#1f77b4;"/>
   </g>
   <g id="patch_146">
    <path clip-path="url(#p9b631a44ed)" d="M 291.932551 273.312 
L 293.551277 273.312 
L 293.551277 76.690407 
L 291.932551 76.690407 
z
" style="fill:#1f77b4;"/>
   </g>
   <g id="patch_147">
    <path clip-path="url(#p9b631a44ed)" d="M 293.551277 273.312 
L 295.170003 273.312 
L 295.170003 99.866336 
L 293.551277 99.866336 
z
" style="fill:#1f77b4;"/>
   </g>
   <g id="patch_148">
    <path clip-path="url(#p9b631a44ed)" d="M 295.170003 273.312 
L 296.78873 273.312 
L 296.78873 93.137841 
L 295.170003 93.137841 
z
" style="fill:#1f77b4;"/>
   </g>
   <g id="patch_149">
    <path clip-path="url(#p9b631a44ed)" d="M 296.78873 273.312 
L 298.407456 273.312 
L 298.407456 96.128283 
L 296.78873 96.128283 
z
" style="fill:#1f77b4;"/>
   </g>
   <g id="patch_150">
    <path clip-path="url(#p9b631a44ed)" d="M 298.407456 273.312 
L 300.026182 273.312 
L 300.026182 88.652177 
L 298.407456 88.652177 
z
" style="fill:#1f77b4;"/>
   </g>
   <g id="patch_151">
    <path clip-path="url(#p9b631a44ed)" d="M 300.026182 273.312 
L 301.644909 273.312 
L 301.644909 100.613947 
L 300.026182 100.613947 
z
" style="fill:#1f77b4;"/>
   </g>
   <g id="patch_152">
    <path clip-path="url(#p9b631a44ed)" d="M 301.644909 273.312 
L 303.263635 273.312 
L 303.263635 99.866336 
L 301.644909 99.866336 
z
" style="fill:#1f77b4;"/>
   </g>
   <g id="patch_153">
    <path clip-path="url(#p9b631a44ed)" d="M 303.263635 273.312 
L 304.882361 273.312 
L 304.882361 120.799434 
L 303.263635 120.799434 
z
" style="fill:#1f77b4;"/>
   </g>
   <g id="patch_154">
    <path clip-path="url(#p9b631a44ed)" d="M 304.882361 273.312 
L 306.501088 273.312 
L 306.501088 98.371115 
L 304.882361 98.371115 
z
" style="fill:#1f77b4;"/>
   </g>
   <g id="patch_155">
    <path clip-path="url(#p9b631a44ed)" d="M 306.501088 273.312 
L 308.119814 273.312 
L 308.119814 118.556602 
L 306.501088 118.556602 
z
" style="fill:#1f77b4;"/>
   </g>
   <g id="patch_156">
    <path clip-path="url(#p9b631a44ed)" d="M 308.119814 273.312 
L 309.73854 273.312 
L 309.73854 117.061381 
L 308.119814 117.061381 
z
" style="fill:#1f77b4;"/>
   </g>
   <g id="patch_157">
    <path clip-path="url(#p9b631a44ed)" d="M 309.73854 273.312 
L 311.357267 273.312 
L 311.357267 136.499257 
L 309.73854 136.499257 
z
" style="fill:#1f77b4;"/>
   </g>
   <g id="patch_158">
    <path clip-path="url(#p9b631a44ed)" d="M 311.357267 273.312 
L 312.975993 273.312 
L 312.975993 118.556602 
L 311.357267 118.556602 
z
" style="fill:#1f77b4;"/>
   </g>
   <g id="patch_159">
    <path clip-path="url(#p9b631a44ed)" d="M 312.975993 273.312 
L 314.594719 273.312 
L 314.594719 131.265982 
L 312.975993 131.265982 
z
" style="fill:#1f77b4;"/>
   </g>
   <g id="patch_160">
    <path clip-path="url(#p9b631a44ed)" d="M 314.594719 273.312 
L 316.213446 273.312 
L 316.213446 134.256425 
L 314.594719 134.256425 
z
" style="fill:#1f77b4;"/>
   </g>
   <g id="patch_161">
    <path clip-path="url(#p9b631a44ed)" d="M 316.213446 273.312 
L 317.832172 273.312 
L 317.832172 106.594832 
L 316.213446 106.594832 
z
" style="fill:#1f77b4;"/>
   </g>
   <g id="patch_162">
    <path clip-path="url(#p9b631a44ed)" d="M 317.832172 273.312 
L 319.450898 273.312 
L 319.450898 137.994478 
L 317.832172 137.994478 
z
" style="fill:#1f77b4;"/>
   </g>
   <g id="patch_163">
    <path clip-path="url(#p9b631a44ed)" d="M 319.450898 273.312 
L 321.069625 273.312 
L 321.069625 141.732531 
L 319.450898 141.732531 
z
" style="fill:#1f77b4;"/>
   </g>
   <g id="patch_164">
    <path clip-path="url(#p9b631a44ed)" d="M 321.069625 273.312 
L 322.688351 273.312 
L 322.688351 141.732531 
L 321.069625 141.732531 
z
" style="fill:#1f77b4;"/>
   </g>
   <g id="patch_165">
    <path clip-path="url(#p9b631a44ed)" d="M 322.688351 273.312 
L 324.307077 273.312 
L 324.307077 129.02315 
L 322.688351 129.02315 
z
" style="fill:#1f77b4;"/>
   </g>
   <g id="patch_166">
    <path clip-path="url(#p9b631a44ed)" d="M 324.307077 273.312 
L 325.925804 273.312 
L 325.925804 132.761204 
L 324.307077 132.761204 
z
" style="fill:#1f77b4;"/>
   </g>
   <g id="patch_167">
    <path clip-path="url(#p9b631a44ed)" d="M 325.925804 273.312 
L 327.54453 273.312 
L 327.54453 149.956248 
L 325.925804 149.956248 
z
" style="fill:#1f77b4;"/>
   </g>
   <g id="patch_168">
    <path clip-path="url(#p9b631a44ed)" d="M 327.54453 273.312 
L 329.163256 273.312 
L 329.163256 148.461027 
L 327.54453 148.461027 
z
" style="fill:#1f77b4;"/>
   </g>
   <g id="patch_169">
    <path clip-path="url(#p9b631a44ed)" d="M 329.163256 273.312 
L 330.781982 273.312 
L 330.781982 153.694301 
L 329.163256 153.694301 
z
" style="fill:#1f77b4;"/>
   </g>
   <g id="patch_170">
    <path clip-path="url(#p9b631a44ed)" d="M 330.781982 273.312 
L 332.400709 273.312 
L 332.400709 133.508814 
L 330.781982 133.508814 
z
" style="fill:#1f77b4;"/>
   </g>
   <g id="patch_171">
    <path clip-path="url(#p9b631a44ed)" d="M 332.400709 273.312 
L 334.019435 273.312 
L 334.019435 154.441912 
L 332.400709 154.441912 
z
" style="fill:#1f77b4;"/>
   </g>
   <g id="patch_172">
    <path clip-path="url(#p9b631a44ed)" d="M 334.019435 273.312 
L 335.638161 273.312 
L 335.638161 170.889345 
L 334.019435 170.889345 
z
" style="fill:#1f77b4;"/>
   </g>
   <g id="patch_173">
    <path clip-path="url(#p9b631a44ed)" d="M 335.638161 273.312 
L 337.256888 273.312 
L 337.256888 167.151292 
L 335.638161 167.151292 
z
" style="fill:#1f77b4;"/>
   </g>
   <g id="patch_174">
    <path clip-path="url(#p9b631a44ed)" d="M 337.256888 273.312 
L 338.875614 273.312 
L 338.875614 170.141735 
L 337.256888 170.141735 
z
" style="fill:#1f77b4;"/>
   </g>
   <g id="patch_175">
    <path clip-path="url(#p9b631a44ed)" d="M 338.875614 273.312 
L 340.49434 273.312 
L 340.49434 179.113062 
L 338.875614 179.113062 
z
" style="fill:#1f77b4;"/>
   </g>
   <g id="patch_176">
    <path clip-path="url(#p9b631a44ed)" d="M 340.49434 273.312 
L 342.113067 273.312 
L 342.113067 188.084389 
L 340.49434 188.084389 
z
" style="fill:#1f77b4;"/>
   </g>
   <g id="patch_177">
    <path clip-path="url(#p9b631a44ed)" d="M 342.113067 273.312 
L 343.731793 273.312 
L 343.731793 179.860673 
L 342.113067 179.860673 
z
" style="fill:#1f77b4;"/>
   </g>
   <g id="patch_178">
    <path clip-path="url(#p9b631a44ed)" d="M 343.731793 273.312 
L 345.350519 273.312 
L 345.350519 178.365451 
L 343.731793 178.365451 
z
" style="fill:#1f77b4;"/>
   </g>
   <g id="patch_179">
    <path clip-path="url(#p9b631a44ed)" d="M 345.350519 273.312 
L 346.969246 273.312 
L 346.969246 197.055717 
L 345.350519 197.055717 
z
" style="fill:#1f77b4;"/>
   </g>
   <g id="patch_180">
    <path clip-path="url(#p9b631a44ed)" d="M 346.969246 273.312 
L 348.587972 273.312 
L 348.587972 184.346336 
L 346.969246 184.346336 
z
" style="fill:#1f77b4;"/>
   </g>
   <g id="patch_181">
    <path clip-path="url(#p9b631a44ed)" d="M 348.587972 273.312 
L 350.206698 273.312 
L 350.206698 186.589168 
L 348.587972 186.589168 
z
" style="fill:#1f77b4;"/>
   </g>
   <g id="patch_182">
    <path clip-path="url(#p9b631a44ed)" d="M 350.206698 273.312 
L 351.825425 273.312 
L 351.825425 188.084389 
L 350.206698 188.084389 
z
" style="fill:#1f77b4;"/>
   </g>
   <g id="patch_183">
    <path clip-path="url(#p9b631a44ed)" d="M 351.825425 273.312 
L 353.444151 273.312 
L 353.444151 207.522265 
L 351.825425 207.522265 
z
" style="fill:#1f77b4;"/>
   </g>
   <g id="patch_184">
    <path clip-path="url(#p9b631a44ed)" d="M 353.444151 273.312 
L 355.062877 273.312 
L 355.062877 201.541381 
L 353.444151 201.541381 
z
" style="fill:#1f77b4;"/>
   </g>
   <g id="patch_185">
    <path clip-path="url(#p9b631a44ed)" d="M 355.062877 273.312 
L 356.681604 273.312 
L 356.681604 201.541381 
L 355.062877 201.541381 
z
" style="fill:#1f77b4;"/>
   </g>
   <g id="patch_186">
    <path clip-path="url(#p9b631a44ed)" d="M 356.681604 273.312 
L 358.30033 273.312 
L 358.30033 202.288991 
L 356.681604 202.288991 
z
" style="fill:#1f77b4;"/>
   </g>
   <g id="patch_187">
    <path clip-path="url(#p9b631a44ed)" d="M 358.30033 273.312 
L 359.919056 273.312 
L 359.919056 212.007929 
L 358.30033 212.007929 
z
" style="fill:#1f77b4;"/>
   </g>
   <g id="patch_188">
    <path clip-path="url(#p9b631a44ed)" d="M 359.919056 273.312 
L 361.537782 273.312 
L 361.537782 232.941027 
L 359.919056 232.941027 
z
" style="fill:#1f77b4;"/>
   </g>
   <g id="patch_189">
    <path clip-path="url(#p9b631a44ed)" d="M 361.537782 273.312 
L 363.156509 273.312 
L 363.156509 214.250761 
L 361.537782 214.250761 
z
" style="fill:#1f77b4;"/>
   </g>
   <g id="patch_190">
    <path clip-path="url(#p9b631a44ed)" d="M 363.156509 273.312 
L 364.775235 273.312 
L 364.775235 226.212531 
L 363.156509 226.212531 
z
" style="fill:#1f77b4;"/>
   </g>
   <g id="patch_191">
    <path clip-path="url(#p9b631a44ed)" d="M 364.775235 273.312 
L 366.393961 273.312 
L 366.393961 229.950584 
L 364.775235 229.950584 
z
" style="fill:#1f77b4;"/>
   </g>
   <g id="patch_192">
    <path clip-path="url(#p9b631a44ed)" d="M 366.393961 273.312 
L 368.012688 273.312 
L 368.012688 227.707752 
L 366.393961 227.707752 
z
" style="fill:#1f77b4;"/>
   </g>
   <g id="patch_193">
    <path clip-path="url(#p9b631a44ed)" d="M 368.012688 273.312 
L 369.631414 273.312 
L 369.631414 244.902796 
L 368.012688 244.902796 
z
" style="fill:#1f77b4;"/>
   </g>
   <g id="patch_194">
    <path clip-path="url(#p9b631a44ed)" d="M 369.631414 273.312 
L 371.25014 273.312 
L 371.25014 236.67908 
L 369.631414 236.67908 
z
" style="fill:#1f77b4;"/>
   </g>
   <g id="patch_195">
    <path clip-path="url(#p9b631a44ed)" d="M 371.25014 273.312 
L 372.868867 273.312 
L 372.868867 246.398018 
L 371.25014 246.398018 
z
" style="fill:#1f77b4;"/>
   </g>
   <g id="patch_196">
    <path clip-path="url(#p9b631a44ed)" d="M 372.868867 273.312 
L 374.487593 273.312 
L 374.487593 254.621735 
L 372.868867 254.621735 
z
" style="fill:#1f77b4;"/>
   </g>
   <g id="patch_197">
    <path clip-path="url(#p9b631a44ed)" d="M 374.487593 273.312 
L 376.106319 273.312 
L 376.106319 253.874124 
L 374.487593 253.874124 
z
" style="fill:#1f77b4;"/>
   </g>
   <g id="patch_198">
    <path clip-path="url(#p9b631a44ed)" d="M 376.106319 273.312 
L 377.725046 273.312 
L 377.725046 259.855009 
L 376.106319 259.855009 
z
" style="fill:#1f77b4;"/>
   </g>
   <g id="patch_199">
    <path clip-path="url(#p9b631a44ed)" d="M 377.725046 273.312 
L 379.343772 273.312 
L 379.343772 265.088283 
L 377.725046 265.088283 
z
" style="fill:#1f77b4;"/>
   </g>
   <g id="patch_200">
    <path clip-path="url(#p9b631a44ed)" d="M 379.343772 273.312 
L 380.962498 273.312 
L 380.962498 269.573947 
L 379.343772 269.573947 
z
" style="fill:#1f77b4;"/>
   </g>
   <g id="patch_201">
    <path clip-path="url(#p9b631a44ed)" d="M 380.962498 273.312 
L 382.581225 273.312 
L 382.581225 268.826336 
L 380.962498 268.826336 
z
" style="fill:#1f77b4;"/>
   </g>
   <g id="patch_202">
    <path clip-path="url(#p9b631a44ed)" d="M 382.581225 273.312 
L 384.199951 273.312 
L 384.199951 271.816779 
L 382.581225 271.816779 
z
" style="fill:#1f77b4;"/>
   </g>
   <g id="matplotlib.axis_1">
    <g id="xtick_1">
     <g id="line2d_1">
      <defs>
       <path d="M 0 0 
L 0 3.5 
" id="mfa2dabf813" style="stroke:#000000;stroke-width:0.8;"/>
      </defs>
      <g>
       <use style="stroke:#000000;stroke-width:0.8;" x="60.013977" xlink:href="#mfa2dabf813" y="273.312"/>
      </g>
     </g>
     <g id="text_1">
      <!-- 0.0 -->
      <g transform="translate(52.062415 287.910437)scale(0.1 -0.1)">
       <defs>
        <path d="M 2034 4250 
Q 1547 4250 1301 3770 
Q 1056 3291 1056 2328 
Q 1056 1369 1301 889 
Q 1547 409 2034 409 
Q 2525 409 2770 889 
Q 3016 1369 3016 2328 
Q 3016 3291 2770 3770 
Q 2525 4250 2034 4250 
z
M 2034 4750 
Q 2819 4750 3233 4129 
Q 3647 3509 3647 2328 
Q 3647 1150 3233 529 
Q 2819 -91 2034 -91 
Q 1250 -91 836 529 
Q 422 1150 422 2328 
Q 422 3509 836 4129 
Q 1250 4750 2034 4750 
z
" id="DejaVuSans-30" transform="scale(0.015625)"/>
        <path d="M 684 794 
L 1344 794 
L 1344 0 
L 684 0 
L 684 794 
z
" id="DejaVuSans-2e" transform="scale(0.015625)"/>
       </defs>
       <use xlink:href="#DejaVuSans-30"/>
       <use x="63.623047" xlink:href="#DejaVuSans-2e"/>
       <use x="95.410156" xlink:href="#DejaVuSans-30"/>
      </g>
     </g>
    </g>
    <g id="xtick_2">
     <g id="line2d_2">
      <g>
       <use style="stroke:#000000;stroke-width:0.8;" x="101.350278" xlink:href="#mfa2dabf813" y="273.312"/>
      </g>
     </g>
     <g id="text_2">
      <!-- 0.2 -->
      <g transform="translate(93.398715 287.910437)scale(0.1 -0.1)">
       <defs>
        <path d="M 1228 531 
L 3431 531 
L 3431 0 
L 469 0 
L 469 531 
Q 828 903 1448 1529 
Q 2069 2156 2228 2338 
Q 2531 2678 2651 2914 
Q 2772 3150 2772 3378 
Q 2772 3750 2511 3984 
Q 2250 4219 1831 4219 
Q 1534 4219 1204 4116 
Q 875 4013 500 3803 
L 500 4441 
Q 881 4594 1212 4672 
Q 1544 4750 1819 4750 
Q 2544 4750 2975 4387 
Q 3406 4025 3406 3419 
Q 3406 3131 3298 2873 
Q 3191 2616 2906 2266 
Q 2828 2175 2409 1742 
Q 1991 1309 1228 531 
z
" id="DejaVuSans-32" transform="scale(0.015625)"/>
       </defs>
       <use xlink:href="#DejaVuSans-30"/>
       <use x="63.623047" xlink:href="#DejaVuSans-2e"/>
       <use x="95.410156" xlink:href="#DejaVuSans-32"/>
      </g>
     </g>
    </g>
    <g id="xtick_3">
     <g id="line2d_3">
      <g>
       <use style="stroke:#000000;stroke-width:0.8;" x="142.686578" xlink:href="#mfa2dabf813" y="273.312"/>
      </g>
     </g>
     <g id="text_3">
      <!-- 0.4 -->
      <g transform="translate(134.735016 287.910437)scale(0.1 -0.1)">
       <defs>
        <path d="M 2419 4116 
L 825 1625 
L 2419 1625 
L 2419 4116 
z
M 2253 4666 
L 3047 4666 
L 3047 1625 
L 3713 1625 
L 3713 1100 
L 3047 1100 
L 3047 0 
L 2419 0 
L 2419 1100 
L 313 1100 
L 313 1709 
L 2253 4666 
z
" id="DejaVuSans-34" transform="scale(0.015625)"/>
       </defs>
       <use xlink:href="#DejaVuSans-30"/>
       <use x="63.623047" xlink:href="#DejaVuSans-2e"/>
       <use x="95.410156" xlink:href="#DejaVuSans-34"/>
      </g>
     </g>
    </g>
    <g id="xtick_4">
     <g id="line2d_4">
      <g>
       <use style="stroke:#000000;stroke-width:0.8;" x="184.022879" xlink:href="#mfa2dabf813" y="273.312"/>
      </g>
     </g>
     <g id="text_4">
      <!-- 0.6 -->
      <g transform="translate(176.071316 287.910437)scale(0.1 -0.1)">
       <defs>
        <path d="M 2113 2584 
Q 1688 2584 1439 2293 
Q 1191 2003 1191 1497 
Q 1191 994 1439 701 
Q 1688 409 2113 409 
Q 2538 409 2786 701 
Q 3034 994 3034 1497 
Q 3034 2003 2786 2293 
Q 2538 2584 2113 2584 
z
M 3366 4563 
L 3366 3988 
Q 3128 4100 2886 4159 
Q 2644 4219 2406 4219 
Q 1781 4219 1451 3797 
Q 1122 3375 1075 2522 
Q 1259 2794 1537 2939 
Q 1816 3084 2150 3084 
Q 2853 3084 3261 2657 
Q 3669 2231 3669 1497 
Q 3669 778 3244 343 
Q 2819 -91 2113 -91 
Q 1303 -91 875 529 
Q 447 1150 447 2328 
Q 447 3434 972 4092 
Q 1497 4750 2381 4750 
Q 2619 4750 2861 4703 
Q 3103 4656 3366 4563 
z
" id="DejaVuSans-36" transform="scale(0.015625)"/>
       </defs>
       <use xlink:href="#DejaVuSans-30"/>
       <use x="63.623047" xlink:href="#DejaVuSans-2e"/>
       <use x="95.410156" xlink:href="#DejaVuSans-36"/>
      </g>
     </g>
    </g>
    <g id="xtick_5">
     <g id="line2d_5">
      <g>
       <use style="stroke:#000000;stroke-width:0.8;" x="225.35918" xlink:href="#mfa2dabf813" y="273.312"/>
      </g>
     </g>
     <g id="text_5">
      <!-- 0.8 -->
      <g transform="translate(217.407617 287.910437)scale(0.1 -0.1)">
       <defs>
        <path d="M 2034 2216 
Q 1584 2216 1326 1975 
Q 1069 1734 1069 1313 
Q 1069 891 1326 650 
Q 1584 409 2034 409 
Q 2484 409 2743 651 
Q 3003 894 3003 1313 
Q 3003 1734 2745 1975 
Q 2488 2216 2034 2216 
z
M 1403 2484 
Q 997 2584 770 2862 
Q 544 3141 544 3541 
Q 544 4100 942 4425 
Q 1341 4750 2034 4750 
Q 2731 4750 3128 4425 
Q 3525 4100 3525 3541 
Q 3525 3141 3298 2862 
Q 3072 2584 2669 2484 
Q 3125 2378 3379 2068 
Q 3634 1759 3634 1313 
Q 3634 634 3220 271 
Q 2806 -91 2034 -91 
Q 1263 -91 848 271 
Q 434 634 434 1313 
Q 434 1759 690 2068 
Q 947 2378 1403 2484 
z
M 1172 3481 
Q 1172 3119 1398 2916 
Q 1625 2713 2034 2713 
Q 2441 2713 2670 2916 
Q 2900 3119 2900 3481 
Q 2900 3844 2670 4047 
Q 2441 4250 2034 4250 
Q 1625 4250 1398 4047 
Q 1172 3844 1172 3481 
z
" id="DejaVuSans-38" transform="scale(0.015625)"/>
       </defs>
       <use xlink:href="#DejaVuSans-30"/>
       <use x="63.623047" xlink:href="#DejaVuSans-2e"/>
       <use x="95.410156" xlink:href="#DejaVuSans-38"/>
      </g>
     </g>
    </g>
    <g id="xtick_6">
     <g id="line2d_6">
      <g>
       <use style="stroke:#000000;stroke-width:0.8;" x="266.69548" xlink:href="#mfa2dabf813" y="273.312"/>
      </g>
     </g>
     <g id="text_6">
      <!-- 1.0 -->
      <g transform="translate(258.743918 287.910437)scale(0.1 -0.1)">
       <defs>
        <path d="M 794 531 
L 1825 531 
L 1825 4091 
L 703 3866 
L 703 4441 
L 1819 4666 
L 2450 4666 
L 2450 531 
L 3481 531 
L 3481 0 
L 794 0 
L 794 531 
z
" id="DejaVuSans-31" transform="scale(0.015625)"/>
       </defs>
       <use xlink:href="#DejaVuSans-31"/>
       <use x="63.623047" xlink:href="#DejaVuSans-2e"/>
       <use x="95.410156" xlink:href="#DejaVuSans-30"/>
      </g>
     </g>
    </g>
    <g id="xtick_7">
     <g id="line2d_7">
      <g>
       <use style="stroke:#000000;stroke-width:0.8;" x="308.031781" xlink:href="#mfa2dabf813" y="273.312"/>
      </g>
     </g>
     <g id="text_7">
      <!-- 1.2 -->
      <g transform="translate(300.080218 287.910437)scale(0.1 -0.1)">
       <use xlink:href="#DejaVuSans-31"/>
       <use x="63.623047" xlink:href="#DejaVuSans-2e"/>
       <use x="95.410156" xlink:href="#DejaVuSans-32"/>
      </g>
     </g>
    </g>
    <g id="xtick_8">
     <g id="line2d_8">
      <g>
       <use style="stroke:#000000;stroke-width:0.8;" x="349.368081" xlink:href="#mfa2dabf813" y="273.312"/>
      </g>
     </g>
     <g id="text_8">
      <!-- 1.4 -->
      <g transform="translate(341.416519 287.910437)scale(0.1 -0.1)">
       <use xlink:href="#DejaVuSans-31"/>
       <use x="63.623047" xlink:href="#DejaVuSans-2e"/>
       <use x="95.410156" xlink:href="#DejaVuSans-34"/>
      </g>
     </g>
    </g>
    <g id="xtick_9">
     <g id="line2d_9">
      <g>
       <use style="stroke:#000000;stroke-width:0.8;" x="390.704382" xlink:href="#mfa2dabf813" y="273.312"/>
      </g>
     </g>
     <g id="text_9">
      <!-- 1.6 -->
      <g transform="translate(382.752819 287.910437)scale(0.1 -0.1)">
       <use xlink:href="#DejaVuSans-31"/>
       <use x="63.623047" xlink:href="#DejaVuSans-2e"/>
       <use x="95.410156" xlink:href="#DejaVuSans-36"/>
      </g>
     </g>
    </g>
    <g id="text_10">
     <!-- Angle with normal (rad) -->
     <g transform="translate(163.023281 301.588562)scale(0.1 -0.1)">
      <defs>
       <path d="M 2188 4044 
L 1331 1722 
L 3047 1722 
L 2188 4044 
z
M 1831 4666 
L 2547 4666 
L 4325 0 
L 3669 0 
L 3244 1197 
L 1141 1197 
L 716 0 
L 50 0 
L 1831 4666 
z
" id="DejaVuSans-41" transform="scale(0.015625)"/>
       <path d="M 3513 2113 
L 3513 0 
L 2938 0 
L 2938 2094 
Q 2938 2591 2744 2837 
Q 2550 3084 2163 3084 
Q 1697 3084 1428 2787 
Q 1159 2491 1159 1978 
L 1159 0 
L 581 0 
L 581 3500 
L 1159 3500 
L 1159 2956 
Q 1366 3272 1645 3428 
Q 1925 3584 2291 3584 
Q 2894 3584 3203 3211 
Q 3513 2838 3513 2113 
z
" id="DejaVuSans-6e" transform="scale(0.015625)"/>
       <path d="M 2906 1791 
Q 2906 2416 2648 2759 
Q 2391 3103 1925 3103 
Q 1463 3103 1205 2759 
Q 947 2416 947 1791 
Q 947 1169 1205 825 
Q 1463 481 1925 481 
Q 2391 481 2648 825 
Q 2906 1169 2906 1791 
z
M 3481 434 
Q 3481 -459 3084 -895 
Q 2688 -1331 1869 -1331 
Q 1566 -1331 1297 -1286 
Q 1028 -1241 775 -1147 
L 775 -588 
Q 1028 -725 1275 -790 
Q 1522 -856 1778 -856 
Q 2344 -856 2625 -561 
Q 2906 -266 2906 331 
L 2906 616 
Q 2728 306 2450 153 
Q 2172 0 1784 0 
Q 1141 0 747 490 
Q 353 981 353 1791 
Q 353 2603 747 3093 
Q 1141 3584 1784 3584 
Q 2172 3584 2450 3431 
Q 2728 3278 2906 2969 
L 2906 3500 
L 3481 3500 
L 3481 434 
z
" id="DejaVuSans-67" transform="scale(0.015625)"/>
       <path d="M 603 4863 
L 1178 4863 
L 1178 0 
L 603 0 
L 603 4863 
z
" id="DejaVuSans-6c" transform="scale(0.015625)"/>
       <path d="M 3597 1894 
L 3597 1613 
L 953 1613 
Q 991 1019 1311 708 
Q 1631 397 2203 397 
Q 2534 397 2845 478 
Q 3156 559 3463 722 
L 3463 178 
Q 3153 47 2828 -22 
Q 2503 -91 2169 -91 
Q 1331 -91 842 396 
Q 353 884 353 1716 
Q 353 2575 817 3079 
Q 1281 3584 2069 3584 
Q 2775 3584 3186 3129 
Q 3597 2675 3597 1894 
z
M 3022 2063 
Q 3016 2534 2758 2815 
Q 2500 3097 2075 3097 
Q 1594 3097 1305 2825 
Q 1016 2553 972 2059 
L 3022 2063 
z
" id="DejaVuSans-65" transform="scale(0.015625)"/>
       <path id="DejaVuSans-20" transform="scale(0.015625)"/>
       <path d="M 269 3500 
L 844 3500 
L 1563 769 
L 2278 3500 
L 2956 3500 
L 3675 769 
L 4391 3500 
L 4966 3500 
L 4050 0 
L 3372 0 
L 2619 2869 
L 1863 0 
L 1184 0 
L 269 3500 
z
" id="DejaVuSans-77" transform="scale(0.015625)"/>
       <path d="M 603 3500 
L 1178 3500 
L 1178 0 
L 603 0 
L 603 3500 
z
M 603 4863 
L 1178 4863 
L 1178 4134 
L 603 4134 
L 603 4863 
z
" id="DejaVuSans-69" transform="scale(0.015625)"/>
       <path d="M 1172 4494 
L 1172 3500 
L 2356 3500 
L 2356 3053 
L 1172 3053 
L 1172 1153 
Q 1172 725 1289 603 
Q 1406 481 1766 481 
L 2356 481 
L 2356 0 
L 1766 0 
Q 1100 0 847 248 
Q 594 497 594 1153 
L 594 3053 
L 172 3053 
L 172 3500 
L 594 3500 
L 594 4494 
L 1172 4494 
z
" id="DejaVuSans-74" transform="scale(0.015625)"/>
       <path d="M 3513 2113 
L 3513 0 
L 2938 0 
L 2938 2094 
Q 2938 2591 2744 2837 
Q 2550 3084 2163 3084 
Q 1697 3084 1428 2787 
Q 1159 2491 1159 1978 
L 1159 0 
L 581 0 
L 581 4863 
L 1159 4863 
L 1159 2956 
Q 1366 3272 1645 3428 
Q 1925 3584 2291 3584 
Q 2894 3584 3203 3211 
Q 3513 2838 3513 2113 
z
" id="DejaVuSans-68" transform="scale(0.015625)"/>
       <path d="M 1959 3097 
Q 1497 3097 1228 2736 
Q 959 2375 959 1747 
Q 959 1119 1226 758 
Q 1494 397 1959 397 
Q 2419 397 2687 759 
Q 2956 1122 2956 1747 
Q 2956 2369 2687 2733 
Q 2419 3097 1959 3097 
z
M 1959 3584 
Q 2709 3584 3137 3096 
Q 3566 2609 3566 1747 
Q 3566 888 3137 398 
Q 2709 -91 1959 -91 
Q 1206 -91 779 398 
Q 353 888 353 1747 
Q 353 2609 779 3096 
Q 1206 3584 1959 3584 
z
" id="DejaVuSans-6f" transform="scale(0.015625)"/>
       <path d="M 2631 2963 
Q 2534 3019 2420 3045 
Q 2306 3072 2169 3072 
Q 1681 3072 1420 2755 
Q 1159 2438 1159 1844 
L 1159 0 
L 581 0 
L 581 3500 
L 1159 3500 
L 1159 2956 
Q 1341 3275 1631 3429 
Q 1922 3584 2338 3584 
Q 2397 3584 2469 3576 
Q 2541 3569 2628 3553 
L 2631 2963 
z
" id="DejaVuSans-72" transform="scale(0.015625)"/>
       <path d="M 3328 2828 
Q 3544 3216 3844 3400 
Q 4144 3584 4550 3584 
Q 5097 3584 5394 3201 
Q 5691 2819 5691 2113 
L 5691 0 
L 5113 0 
L 5113 2094 
Q 5113 2597 4934 2840 
Q 4756 3084 4391 3084 
Q 3944 3084 3684 2787 
Q 3425 2491 3425 1978 
L 3425 0 
L 2847 0 
L 2847 2094 
Q 2847 2600 2669 2842 
Q 2491 3084 2119 3084 
Q 1678 3084 1418 2786 
Q 1159 2488 1159 1978 
L 1159 0 
L 581 0 
L 581 3500 
L 1159 3500 
L 1159 2956 
Q 1356 3278 1631 3431 
Q 1906 3584 2284 3584 
Q 2666 3584 2933 3390 
Q 3200 3197 3328 2828 
z
" id="DejaVuSans-6d" transform="scale(0.015625)"/>
       <path d="M 2194 1759 
Q 1497 1759 1228 1600 
Q 959 1441 959 1056 
Q 959 750 1161 570 
Q 1363 391 1709 391 
Q 2188 391 2477 730 
Q 2766 1069 2766 1631 
L 2766 1759 
L 2194 1759 
z
M 3341 1997 
L 3341 0 
L 2766 0 
L 2766 531 
Q 2569 213 2275 61 
Q 1981 -91 1556 -91 
Q 1019 -91 701 211 
Q 384 513 384 1019 
Q 384 1609 779 1909 
Q 1175 2209 1959 2209 
L 2766 2209 
L 2766 2266 
Q 2766 2663 2505 2880 
Q 2244 3097 1772 3097 
Q 1472 3097 1187 3025 
Q 903 2953 641 2809 
L 641 3341 
Q 956 3463 1253 3523 
Q 1550 3584 1831 3584 
Q 2591 3584 2966 3190 
Q 3341 2797 3341 1997 
z
" id="DejaVuSans-61" transform="scale(0.015625)"/>
       <path d="M 1984 4856 
Q 1566 4138 1362 3434 
Q 1159 2731 1159 2009 
Q 1159 1288 1364 580 
Q 1569 -128 1984 -844 
L 1484 -844 
Q 1016 -109 783 600 
Q 550 1309 550 2009 
Q 550 2706 781 3412 
Q 1013 4119 1484 4856 
L 1984 4856 
z
" id="DejaVuSans-28" transform="scale(0.015625)"/>
       <path d="M 2906 2969 
L 2906 4863 
L 3481 4863 
L 3481 0 
L 2906 0 
L 2906 525 
Q 2725 213 2448 61 
Q 2172 -91 1784 -91 
Q 1150 -91 751 415 
Q 353 922 353 1747 
Q 353 2572 751 3078 
Q 1150 3584 1784 3584 
Q 2172 3584 2448 3432 
Q 2725 3281 2906 2969 
z
M 947 1747 
Q 947 1113 1208 752 
Q 1469 391 1925 391 
Q 2381 391 2643 752 
Q 2906 1113 2906 1747 
Q 2906 2381 2643 2742 
Q 2381 3103 1925 3103 
Q 1469 3103 1208 2742 
Q 947 2381 947 1747 
z
" id="DejaVuSans-64" transform="scale(0.015625)"/>
       <path d="M 513 4856 
L 1013 4856 
Q 1481 4119 1714 3412 
Q 1947 2706 1947 2009 
Q 1947 1309 1714 600 
Q 1481 -109 1013 -844 
L 513 -844 
Q 928 -128 1133 580 
Q 1338 1288 1338 2009 
Q 1338 2731 1133 3434 
Q 928 4138 513 4856 
z
" id="DejaVuSans-29" transform="scale(0.015625)"/>
      </defs>
      <use xlink:href="#DejaVuSans-41"/>
      <use x="68.408203" xlink:href="#DejaVuSans-6e"/>
      <use x="131.787109" xlink:href="#DejaVuSans-67"/>
      <use x="195.263672" xlink:href="#DejaVuSans-6c"/>
      <use x="223.046875" xlink:href="#DejaVuSans-65"/>
      <use x="284.570312" xlink:href="#DejaVuSans-20"/>
      <use x="316.357422" xlink:href="#DejaVuSans-77"/>
      <use x="398.144531" xlink:href="#DejaVuSans-69"/>
      <use x="425.927734" xlink:href="#DejaVuSans-74"/>
      <use x="465.136719" xlink:href="#DejaVuSans-68"/>
      <use x="528.515625" xlink:href="#DejaVuSans-20"/>
      <use x="560.302734" xlink:href="#DejaVuSans-6e"/>
      <use x="623.681641" xlink:href="#DejaVuSans-6f"/>
      <use x="684.863281" xlink:href="#DejaVuSans-72"/>
      <use x="724.226562" xlink:href="#DejaVuSans-6d"/>
      <use x="821.638672" xlink:href="#DejaVuSans-61"/>
      <use x="882.917969" xlink:href="#DejaVuSans-6c"/>
      <use x="910.701172" xlink:href="#DejaVuSans-20"/>
      <use x="942.488281" xlink:href="#DejaVuSans-28"/>
      <use x="981.501953" xlink:href="#DejaVuSans-72"/>
      <use x="1022.615234" xlink:href="#DejaVuSans-61"/>
      <use x="1083.894531" xlink:href="#DejaVuSans-64"/>
      <use x="1147.371094" xlink:href="#DejaVuSans-29"/>
     </g>
    </g>
   </g>
   <g id="matplotlib.axis_2">
    <g id="ytick_1">
     <g id="line2d_10">
      <defs>
       <path d="M 0 0 
L -3.5 0 
" id="m84169b9b27" style="stroke:#000000;stroke-width:0.8;"/>
      </defs>
      <g>
       <use style="stroke:#000000;stroke-width:0.8;" x="43.78125" xlink:href="#m84169b9b27" y="273.312"/>
      </g>
     </g>
     <g id="text_11">
      <!-- 0.0 -->
      <g transform="translate(20.878125 277.111219)scale(0.1 -0.1)">
       <use xlink:href="#DejaVuSans-30"/>
       <use x="63.623047" xlink:href="#DejaVuSans-2e"/>
       <use x="95.410156" xlink:href="#DejaVuSans-30"/>
      </g>
     </g>
    </g>
    <g id="ytick_2">
     <g id="line2d_11">
      <g>
       <use style="stroke:#000000;stroke-width:0.8;" x="43.78125" xlink:href="#m84169b9b27" y="226.469802"/>
      </g>
     </g>
     <g id="text_12">
      <!-- 0.2 -->
      <g transform="translate(20.878125 230.269021)scale(0.1 -0.1)">
       <use xlink:href="#DejaVuSans-30"/>
       <use x="63.623047" xlink:href="#DejaVuSans-2e"/>
       <use x="95.410156" xlink:href="#DejaVuSans-32"/>
      </g>
     </g>
    </g>
    <g id="ytick_3">
     <g id="line2d_12">
      <g>
       <use style="stroke:#000000;stroke-width:0.8;" x="43.78125" xlink:href="#m84169b9b27" y="179.627604"/>
      </g>
     </g>
     <g id="text_13">
      <!-- 0.4 -->
      <g transform="translate(20.878125 183.426823)scale(0.1 -0.1)">
       <use xlink:href="#DejaVuSans-30"/>
       <use x="63.623047" xlink:href="#DejaVuSans-2e"/>
       <use x="95.410156" xlink:href="#DejaVuSans-34"/>
      </g>
     </g>
    </g>
    <g id="ytick_4">
     <g id="line2d_13">
      <g>
       <use style="stroke:#000000;stroke-width:0.8;" x="43.78125" xlink:href="#m84169b9b27" y="132.785406"/>
      </g>
     </g>
     <g id="text_14">
      <!-- 0.6 -->
      <g transform="translate(20.878125 136.584625)scale(0.1 -0.1)">
       <use xlink:href="#DejaVuSans-30"/>
       <use x="63.623047" xlink:href="#DejaVuSans-2e"/>
       <use x="95.410156" xlink:href="#DejaVuSans-36"/>
      </g>
     </g>
    </g>
    <g id="ytick_5">
     <g id="line2d_14">
      <g>
       <use style="stroke:#000000;stroke-width:0.8;" x="43.78125" xlink:href="#m84169b9b27" y="85.943208"/>
      </g>
     </g>
     <g id="text_15">
      <!-- 0.8 -->
      <g transform="translate(20.878125 89.742427)scale(0.1 -0.1)">
       <use xlink:href="#DejaVuSans-30"/>
       <use x="63.623047" xlink:href="#DejaVuSans-2e"/>
       <use x="95.410156" xlink:href="#DejaVuSans-38"/>
      </g>
     </g>
    </g>
    <g id="ytick_6">
     <g id="line2d_15">
      <g>
       <use style="stroke:#000000;stroke-width:0.8;" x="43.78125" xlink:href="#m84169b9b27" y="39.10101"/>
      </g>
     </g>
     <g id="text_16">
      <!-- 1.0 -->
      <g transform="translate(20.878125 42.900229)scale(0.1 -0.1)">
       <use xlink:href="#DejaVuSans-31"/>
       <use x="63.623047" xlink:href="#DejaVuSans-2e"/>
       <use x="95.410156" xlink:href="#DejaVuSans-30"/>
      </g>
     </g>
    </g>
    <g id="text_17">
     <!-- Probability density -->
     <g transform="translate(14.798438 186.606781)rotate(-90)scale(0.1 -0.1)">
      <defs>
       <path d="M 1259 4147 
L 1259 2394 
L 2053 2394 
Q 2494 2394 2734 2622 
Q 2975 2850 2975 3272 
Q 2975 3691 2734 3919 
Q 2494 4147 2053 4147 
L 1259 4147 
z
M 628 4666 
L 2053 4666 
Q 2838 4666 3239 4311 
Q 3641 3956 3641 3272 
Q 3641 2581 3239 2228 
Q 2838 1875 2053 1875 
L 1259 1875 
L 1259 0 
L 628 0 
L 628 4666 
z
" id="DejaVuSans-50" transform="scale(0.015625)"/>
       <path d="M 3116 1747 
Q 3116 2381 2855 2742 
Q 2594 3103 2138 3103 
Q 1681 3103 1420 2742 
Q 1159 2381 1159 1747 
Q 1159 1113 1420 752 
Q 1681 391 2138 391 
Q 2594 391 2855 752 
Q 3116 1113 3116 1747 
z
M 1159 2969 
Q 1341 3281 1617 3432 
Q 1894 3584 2278 3584 
Q 2916 3584 3314 3078 
Q 3713 2572 3713 1747 
Q 3713 922 3314 415 
Q 2916 -91 2278 -91 
Q 1894 -91 1617 61 
Q 1341 213 1159 525 
L 1159 0 
L 581 0 
L 581 4863 
L 1159 4863 
L 1159 2969 
z
" id="DejaVuSans-62" transform="scale(0.015625)"/>
       <path d="M 2059 -325 
Q 1816 -950 1584 -1140 
Q 1353 -1331 966 -1331 
L 506 -1331 
L 506 -850 
L 844 -850 
Q 1081 -850 1212 -737 
Q 1344 -625 1503 -206 
L 1606 56 
L 191 3500 
L 800 3500 
L 1894 763 
L 2988 3500 
L 3597 3500 
L 2059 -325 
z
" id="DejaVuSans-79" transform="scale(0.015625)"/>
       <path d="M 2834 3397 
L 2834 2853 
Q 2591 2978 2328 3040 
Q 2066 3103 1784 3103 
Q 1356 3103 1142 2972 
Q 928 2841 928 2578 
Q 928 2378 1081 2264 
Q 1234 2150 1697 2047 
L 1894 2003 
Q 2506 1872 2764 1633 
Q 3022 1394 3022 966 
Q 3022 478 2636 193 
Q 2250 -91 1575 -91 
Q 1294 -91 989 -36 
Q 684 19 347 128 
L 347 722 
Q 666 556 975 473 
Q 1284 391 1588 391 
Q 1994 391 2212 530 
Q 2431 669 2431 922 
Q 2431 1156 2273 1281 
Q 2116 1406 1581 1522 
L 1381 1569 
Q 847 1681 609 1914 
Q 372 2147 372 2553 
Q 372 3047 722 3315 
Q 1072 3584 1716 3584 
Q 2034 3584 2315 3537 
Q 2597 3491 2834 3397 
z
" id="DejaVuSans-73" transform="scale(0.015625)"/>
      </defs>
      <use xlink:href="#DejaVuSans-50"/>
      <use x="58.552734" xlink:href="#DejaVuSans-72"/>
      <use x="97.416016" xlink:href="#DejaVuSans-6f"/>
      <use x="158.597656" xlink:href="#DejaVuSans-62"/>
      <use x="222.074219" xlink:href="#DejaVuSans-61"/>
      <use x="283.353516" xlink:href="#DejaVuSans-62"/>
      <use x="346.830078" xlink:href="#DejaVuSans-69"/>
      <use x="374.613281" xlink:href="#DejaVuSans-6c"/>
      <use x="402.396484" xlink:href="#DejaVuSans-69"/>
      <use x="430.179688" xlink:href="#DejaVuSans-74"/>
      <use x="469.388672" xlink:href="#DejaVuSans-79"/>
      <use x="528.568359" xlink:href="#DejaVuSans-20"/>
      <use x="560.355469" xlink:href="#DejaVuSans-64"/>
      <use x="623.832031" xlink:href="#DejaVuSans-65"/>
      <use x="685.355469" xlink:href="#DejaVuSans-6e"/>
      <use x="748.734375" xlink:href="#DejaVuSans-73"/>
      <use x="800.833984" xlink:href="#DejaVuSans-69"/>
      <use x="828.617188" xlink:href="#DejaVuSans-74"/>
      <use x="867.826172" xlink:href="#DejaVuSans-79"/>
     </g>
    </g>
   </g>
   <g id="line2d_16">
    <path clip-path="url(#p9b631a44ed)" d="M 60.013977 273.312 
L 79.837728 228.658587 
L 90.237073 205.786819 
L 99.01152 187.011013 
L 106.811029 170.839303 
L 113.960578 156.525577 
L 120.460169 143.996232 
L 126.63478 132.56627 
L 132.484411 122.200607 
L 138.009063 112.854732 
L 143.208736 104.476975 
L 148.408408 96.526564 
L 153.283101 89.479082 
L 157.832814 83.270114 
L 162.382528 77.429449 
L 166.607261 72.34566 
L 170.831995 67.5977 
L 175.056729 63.193504 
L 178.956483 59.439582 
L 182.856238 55.990192 
L 186.755992 52.850248 
L 190.330767 50.24763 
L 193.905542 47.911908 
L 197.480316 45.845876 
L 201.055091 44.052006 
L 204.304886 42.659201 
L 207.554682 41.494479 
L 210.804477 40.55899 
L 214.054272 39.853661 
L 217.304067 39.379188 
L 220.553863 39.136042 
L 223.803658 39.124461 
L 227.053453 39.344458 
L 230.303248 39.795816 
L 233.553044 40.478087 
L 236.802839 41.390597 
L 240.052634 42.532445 
L 243.302429 43.902499 
L 246.552225 45.499407 
L 250.126999 47.51613 
L 253.701774 49.803016 
L 257.276549 52.357329 
L 260.851324 55.176014 
L 264.751078 58.548485 
L 268.650832 62.226758 
L 272.550587 66.205596 
L 276.77532 70.848601 
L 281.000054 75.829937 
L 285.224788 81.14128 
L 289.774501 87.220055 
L 294.324215 93.659478 
L 299.198908 100.944875 
L 304.39858 109.138215 
L 309.598252 117.747102 
L 315.122904 127.324972 
L 320.972536 137.920304 
L 327.147147 149.574074 
L 333.646737 162.317486 
L 340.796287 176.840201 
L 348.595795 193.207124 
L 357.370243 212.160328 
L 367.769587 235.182799 
L 382.393666 268.156692 
L 384.668523 273.312 
L 384.668523 273.312 
" style="fill:none;stroke:#ff7f0e;stroke-linecap:square;stroke-width:1.5;"/>
   </g>
   <g id="patch_203">
    <path d="M 43.78125 273.312 
L 43.78125 7.2 
" style="fill:none;stroke:#000000;stroke-linecap:square;stroke-linejoin:miter;stroke-width:0.8;"/>
   </g>
   <g id="patch_204">
    <path d="M 400.90125 273.312 
L 400.90125 7.2 
" style="fill:none;stroke:#000000;stroke-linecap:square;stroke-linejoin:miter;stroke-width:0.8;"/>
   </g>
   <g id="patch_205">
    <path d="M 43.78125 273.312 
L 400.90125 273.312 
" style="fill:none;stroke:#000000;stroke-linecap:square;stroke-linejoin:miter;stroke-width:0.8;"/>
   </g>
   <g id="patch_206">
    <path d="M 43.78125 7.2 
L 400.90125 7.2 
" style="fill:none;stroke:#000000;stroke-linecap:square;stroke-linejoin:miter;stroke-width:0.8;"/>
   </g>
  </g>
 </g>
 <defs>
  <clipPath id="p9b631a44ed">
   <rect height="266.112" width="357.12" x="43.78125" y="7.2"/>
  </clipPath>
 </defs>
</svg>
