<?xml version="1.0" encoding="utf-8" standalone="no"?>
<!DOCTYPE svg PUBLIC "-//W3C//DTD SVG 1.1//EN"
  "http://www.w3.org/Graphics/SVG/1.1/DTD/svg11.dtd">
<svg height="310.86825pt" version="1.1" viewBox="0 0 408.10125 310.86825" width="408.10125pt" xmlns="http://www.w3.org/2000/svg" xmlns:xlink="http://www.w3.org/1999/xlink">
 <metadata>
  <rdf:RDF xmlns:cc="http://creativecommons.org/ns#" xmlns:dc="http://purl.org/dc/elements/1.1/" xmlns:rdf="http://www.w3.org/1999/02/22-rdf-syntax-ns#">
   <cc:Work>
    <dc:type rdf:resource="http://purl.org/dc/dcmitype/StillImage"/>
    <dc:date>2021-07-04T01:28:04.210931</dc:date>
    <dc:format>image/svg+xml</dc:format>
    <dc:creator>
     <cc:Agent>
      <dc:title>Matplotlib v3.4.2, https://matplotlib.org/</dc:title>
     </cc:Agent>
    </dc:creator>
   </cc:Work>
  </rdf:RDF>
 </metadata>
 <defs>
  <style type="text/css">*{stroke-linecap:butt;stroke-linejoin:round;}</style>
 </defs>
 <g id="figure_1">
  <g id="patch_1">
   <path d="M 0 310.86825 
L 408.10125 310.86825 
L 408.10125 0 
L 0 0 
z
" style="fill:#ffffff;"/>
  </g>
  <g id="axes_1">
   <g id="patch_2">
    <path d="M 43.78125 273.312 
L 400.90125 273.312 
L 400.90125 7.2 
L 43.78125 7.2 
z
" style="fill:#ffffff;"/>
   </g>
   <g id="patch_3">
    <path clip-path="url(#p4da5f53c39)" d="M 60.798452 273.312 
L 62.410967 273.312 
L 62.410967 269.595871 
L 60.798452 269.595871 
z
" style="fill:#1f77b4;"/>
   </g>
   <g id="patch_4">
    <path clip-path="url(#p4da5f53c39)" d="M 62.410967 273.312 
L 64.023481 273.312 
L 64.023481 265.136516 
L 62.410967 265.136516 
z
" style="fill:#1f77b4;"/>
   </g>
   <g id="patch_5">
    <path clip-path="url(#p4da5f53c39)" d="M 64.023481 273.312 
L 65.635996 273.312 
L 65.635996 262.163613 
L 64.023481 262.163613 
z
" style="fill:#1f77b4;"/>
   </g>
   <g id="patch_6">
    <path clip-path="url(#p4da5f53c39)" d="M 65.635996 273.312 
L 67.24851 273.312 
L 67.24851 262.906839 
L 65.635996 262.906839 
z
" style="fill:#1f77b4;"/>
   </g>
   <g id="patch_7">
    <path clip-path="url(#p4da5f53c39)" d="M 67.24851 273.312 
L 68.861025 273.312 
L 68.861025 256.217806 
L 67.24851 256.217806 
z
" style="fill:#1f77b4;"/>
   </g>
   <g id="patch_8">
    <path clip-path="url(#p4da5f53c39)" d="M 68.861025 273.312 
L 70.473539 273.312 
L 70.473539 251.758452 
L 68.861025 251.758452 
z
" style="fill:#1f77b4;"/>
   </g>
   <g id="patch_9">
    <path clip-path="url(#p4da5f53c39)" d="M 70.473539 273.312 
L 72.086054 273.312 
L 72.086054 248.785548 
L 70.473539 248.785548 
z
" style="fill:#1f77b4;"/>
   </g>
   <g id="patch_10">
    <path clip-path="url(#p4da5f53c39)" d="M 72.086054 273.312 
L 73.698568 273.312 
L 73.698568 244.326194 
L 72.086054 244.326194 
z
" style="fill:#1f77b4;"/>
   </g>
   <g id="patch_11">
    <path clip-path="url(#p4da5f53c39)" d="M 73.698568 273.312 
L 75.311083 273.312 
L 75.311083 244.326194 
L 73.698568 244.326194 
z
" style="fill:#1f77b4;"/>
   </g>
   <g id="patch_12">
    <path clip-path="url(#p4da5f53c39)" d="M 75.311083 273.312 
L 76.923598 273.312 
L 76.923598 248.785548 
L 75.311083 248.785548 
z
" style="fill:#1f77b4;"/>
   </g>
   <g id="patch_13">
    <path clip-path="url(#p4da5f53c39)" d="M 76.923598 273.312 
L 78.536112 273.312 
L 78.536112 231.691355 
L 76.923598 231.691355 
z
" style="fill:#1f77b4;"/>
   </g>
   <g id="patch_14">
    <path clip-path="url(#p4da5f53c39)" d="M 78.536112 273.312 
L 80.148627 273.312 
L 80.148627 226.488774 
L 78.536112 226.488774 
z
" style="fill:#1f77b4;"/>
   </g>
   <g id="patch_15">
    <path clip-path="url(#p4da5f53c39)" d="M 80.148627 273.312 
L 81.761141 273.312 
L 81.761141 218.31329 
L 80.148627 218.31329 
z
" style="fill:#1f77b4;"/>
   </g>
   <g id="patch_16">
    <path clip-path="url(#p4da5f53c39)" d="M 81.761141 273.312 
L 83.373656 273.312 
L 83.373656 225.745548 
L 81.761141 225.745548 
z
" style="fill:#1f77b4;"/>
   </g>
   <g id="patch_17">
    <path clip-path="url(#p4da5f53c39)" d="M 83.373656 273.312 
L 84.98617 273.312 
L 84.98617 228.718452 
L 83.373656 228.718452 
z
" style="fill:#1f77b4;"/>
   </g>
   <g id="patch_18">
    <path clip-path="url(#p4da5f53c39)" d="M 84.98617 273.312 
L 86.598685 273.312 
L 86.598685 222.029419 
L 84.98617 222.029419 
z
" style="fill:#1f77b4;"/>
   </g>
   <g id="patch_19">
    <path clip-path="url(#p4da5f53c39)" d="M 86.598685 273.312 
L 88.211199 273.312 
L 88.211199 219.056516 
L 86.598685 219.056516 
z
" style="fill:#1f77b4;"/>
   </g>
   <g id="patch_20">
    <path clip-path="url(#p4da5f53c39)" d="M 88.211199 273.312 
L 89.823714 273.312 
L 89.823714 207.908129 
L 88.211199 207.908129 
z
" style="fill:#1f77b4;"/>
   </g>
   <g id="patch_21">
    <path clip-path="url(#p4da5f53c39)" d="M 89.823714 273.312 
L 91.436228 273.312 
L 91.436228 209.394581 
L 89.823714 209.394581 
z
" style="fill:#1f77b4;"/>
   </g>
   <g id="patch_22">
    <path clip-path="url(#p4da5f53c39)" d="M 91.436228 273.312 
L 93.048743 273.312 
L 93.048743 207.164903 
L 91.436228 207.164903 
z
" style="fill:#1f77b4;"/>
   </g>
   <g id="patch_23">
    <path clip-path="url(#p4da5f53c39)" d="M 93.048743 273.312 
L 94.661257 273.312 
L 94.661257 198.989419 
L 93.048743 198.989419 
z
" style="fill:#1f77b4;"/>
   </g>
   <g id="patch_24">
    <path clip-path="url(#p4da5f53c39)" d="M 94.661257 273.312 
L 96.273772 273.312 
L 96.273772 198.246194 
L 94.661257 198.246194 
z
" style="fill:#1f77b4;"/>
   </g>
   <g id="patch_25">
    <path clip-path="url(#p4da5f53c39)" d="M 96.273772 273.312 
L 97.886286 273.312 
L 97.886286 195.27329 
L 96.273772 195.27329 
z
" style="fill:#1f77b4;"/>
   </g>
   <g id="patch_26">
    <path clip-path="url(#p4da5f53c39)" d="M 97.886286 273.312 
L 99.498801 273.312 
L 99.498801 190.813935 
L 97.886286 190.813935 
z
" style="fill:#1f77b4;"/>
   </g>
   <g id="patch_27">
    <path clip-path="url(#p4da5f53c39)" d="M 99.498801 273.312 
L 101.111315 273.312 
L 101.111315 190.813935 
L 99.498801 190.813935 
z
" style="fill:#1f77b4;"/>
   </g>
   <g id="patch_28">
    <path clip-path="url(#p4da5f53c39)" d="M 101.111315 273.312 
L 102.72383 273.312 
L 102.72383 171.490065 
L 101.111315 171.490065 
z
" style="fill:#1f77b4;"/>
   </g>
   <g id="patch_29">
    <path clip-path="url(#p4da5f53c39)" d="M 102.72383 273.312 
L 104.336345 273.312 
L 104.336345 169.260387 
L 102.72383 169.260387 
z
" style="fill:#1f77b4;"/>
   </g>
   <g id="patch_30">
    <path clip-path="url(#p4da5f53c39)" d="M 104.336345 273.312 
L 105.948859 273.312 
L 105.948859 169.260387 
L 104.336345 169.260387 
z
" style="fill:#1f77b4;"/>
   </g>
   <g id="patch_31">
    <path clip-path="url(#p4da5f53c39)" d="M 105.948859 273.312 
L 107.561374 273.312 
L 107.561374 169.260387 
L 105.948859 169.260387 
z
" style="fill:#1f77b4;"/>
   </g>
   <g id="patch_32">
    <path clip-path="url(#p4da5f53c39)" d="M 107.561374 273.312 
L 109.173888 273.312 
L 109.173888 172.23329 
L 107.561374 172.23329 
z
" style="fill:#1f77b4;"/>
   </g>
   <g id="patch_33">
    <path clip-path="url(#p4da5f53c39)" d="M 109.173888 273.312 
L 110.786403 273.312 
L 110.786403 164.801032 
L 109.173888 164.801032 
z
" style="fill:#1f77b4;"/>
   </g>
   <g id="patch_34">
    <path clip-path="url(#p4da5f53c39)" d="M 110.786403 273.312 
L 112.398917 273.312 
L 112.398917 163.314581 
L 110.786403 163.314581 
z
" style="fill:#1f77b4;"/>
   </g>
   <g id="patch_35">
    <path clip-path="url(#p4da5f53c39)" d="M 112.398917 273.312 
L 114.011432 273.312 
L 114.011432 161.828129 
L 112.398917 161.828129 
z
" style="fill:#1f77b4;"/>
   </g>
   <g id="patch_36">
    <path clip-path="url(#p4da5f53c39)" d="M 114.011432 273.312 
L 115.623946 273.312 
L 115.623946 142.504258 
L 114.011432 142.504258 
z
" style="fill:#1f77b4;"/>
   </g>
   <g id="patch_37">
    <path clip-path="url(#p4da5f53c39)" d="M 115.623946 273.312 
L 117.236461 273.312 
L 117.236461 143.247484 
L 115.623946 143.247484 
z
" style="fill:#1f77b4;"/>
   </g>
   <g id="patch_38">
    <path clip-path="url(#p4da5f53c39)" d="M 117.236461 273.312 
L 118.848975 273.312 
L 118.848975 149.936516 
L 117.236461 149.936516 
z
" style="fill:#1f77b4;"/>
   </g>
   <g id="patch_39">
    <path clip-path="url(#p4da5f53c39)" d="M 118.848975 273.312 
L 120.46149 273.312 
L 120.46149 135.815226 
L 118.848975 135.815226 
z
" style="fill:#1f77b4;"/>
   </g>
   <g id="patch_40">
    <path clip-path="url(#p4da5f53c39)" d="M 120.46149 273.312 
L 122.074004 273.312 
L 122.074004 154.395871 
L 120.46149 154.395871 
z
" style="fill:#1f77b4;"/>
   </g>
   <g id="patch_41">
    <path clip-path="url(#p4da5f53c39)" d="M 122.074004 273.312 
L 123.686519 273.312 
L 123.686519 150.679742 
L 122.074004 150.679742 
z
" style="fill:#1f77b4;"/>
   </g>
   <g id="patch_42">
    <path clip-path="url(#p4da5f53c39)" d="M 123.686519 273.312 
L 125.299033 273.312 
L 125.299033 138.044903 
L 123.686519 138.044903 
z
" style="fill:#1f77b4;"/>
   </g>
   <g id="patch_43">
    <path clip-path="url(#p4da5f53c39)" d="M 125.299033 273.312 
L 126.911548 273.312 
L 126.911548 144.733935 
L 125.299033 144.733935 
z
" style="fill:#1f77b4;"/>
   </g>
   <g id="patch_44">
    <path clip-path="url(#p4da5f53c39)" d="M 126.911548 273.312 
L 128.524062 273.312 
L 128.524062 138.044903 
L 126.911548 138.044903 
z
" style="fill:#1f77b4;"/>
   </g>
   <g id="patch_45">
    <path clip-path="url(#p4da5f53c39)" d="M 128.524062 273.312 
L 130.136577 273.312 
L 130.136577 126.15329 
L 128.524062 126.15329 
z
" style="fill:#1f77b4;"/>
   </g>
   <g id="patch_46">
    <path clip-path="url(#p4da5f53c39)" d="M 130.136577 273.312 
L 131.749092 273.312 
L 131.749092 126.15329 
L 130.136577 126.15329 
z
" style="fill:#1f77b4;"/>
   </g>
   <g id="patch_47">
    <path clip-path="url(#p4da5f53c39)" d="M 131.749092 273.312 
L 133.361606 273.312 
L 133.361606 120.95071 
L 131.749092 120.95071 
z
" style="fill:#1f77b4;"/>
   </g>
   <g id="patch_48">
    <path clip-path="url(#p4da5f53c39)" d="M 133.361606 273.312 
L 134.974121 273.312 
L 134.974121 126.15329 
L 133.361606 126.15329 
z
" style="fill:#1f77b4;"/>
   </g>
   <g id="patch_49">
    <path clip-path="url(#p4da5f53c39)" d="M 134.974121 273.312 
L 136.586635 273.312 
L 136.586635 128.382968 
L 134.974121 128.382968 
z
" style="fill:#1f77b4;"/>
   </g>
   <g id="patch_50">
    <path clip-path="url(#p4da5f53c39)" d="M 136.586635 273.312 
L 138.19915 273.312 
L 138.19915 97.91071 
L 136.586635 97.91071 
z
" style="fill:#1f77b4;"/>
   </g>
   <g id="patch_51">
    <path clip-path="url(#p4da5f53c39)" d="M 138.19915 273.312 
L 139.811664 273.312 
L 139.811664 100.140387 
L 138.19915 100.140387 
z
" style="fill:#1f77b4;"/>
   </g>
   <g id="patch_52">
    <path clip-path="url(#p4da5f53c39)" d="M 139.811664 273.312 
L 141.424179 273.312 
L 141.424179 132.842323 
L 139.811664 132.842323 
z
" style="fill:#1f77b4;"/>
   </g>
   <g id="patch_53">
    <path clip-path="url(#p4da5f53c39)" d="M 141.424179 273.312 
L 143.036693 273.312 
L 143.036693 105.342968 
L 141.424179 105.342968 
z
" style="fill:#1f77b4;"/>
   </g>
   <g id="patch_54">
    <path clip-path="url(#p4da5f53c39)" d="M 143.036693 273.312 
L 144.649208 273.312 
L 144.649208 97.91071 
L 143.036693 97.91071 
z
" style="fill:#1f77b4;"/>
   </g>
   <g id="patch_55">
    <path clip-path="url(#p4da5f53c39)" d="M 144.649208 273.312 
L 146.261722 273.312 
L 146.261722 91.221677 
L 144.649208 91.221677 
z
" style="fill:#1f77b4;"/>
   </g>
   <g id="patch_56">
    <path clip-path="url(#p4da5f53c39)" d="M 146.261722 273.312 
L 147.874237 273.312 
L 147.874237 104.599742 
L 146.261722 104.599742 
z
" style="fill:#1f77b4;"/>
   </g>
   <g id="patch_57">
    <path clip-path="url(#p4da5f53c39)" d="M 147.874237 273.312 
L 149.486751 273.312 
L 149.486751 104.599742 
L 147.874237 104.599742 
z
" style="fill:#1f77b4;"/>
   </g>
   <g id="patch_58">
    <path clip-path="url(#p4da5f53c39)" d="M 149.486751 273.312 
L 151.099266 273.312 
L 151.099266 120.207484 
L 149.486751 120.207484 
z
" style="fill:#1f77b4;"/>
   </g>
   <g id="patch_59">
    <path clip-path="url(#p4da5f53c39)" d="M 151.099266 273.312 
L 152.71178 273.312 
L 152.71178 94.194581 
L 151.099266 94.194581 
z
" style="fill:#1f77b4;"/>
   </g>
   <g id="patch_60">
    <path clip-path="url(#p4da5f53c39)" d="M 152.71178 273.312 
L 154.324295 273.312 
L 154.324295 104.599742 
L 152.71178 104.599742 
z
" style="fill:#1f77b4;"/>
   </g>
   <g id="patch_61">
    <path clip-path="url(#p4da5f53c39)" d="M 154.324295 273.312 
L 155.936809 273.312 
L 155.936809 81.559742 
L 154.324295 81.559742 
z
" style="fill:#1f77b4;"/>
   </g>
   <g id="patch_62">
    <path clip-path="url(#p4da5f53c39)" d="M 155.936809 273.312 
L 157.549324 273.312 
L 157.549324 84.532645 
L 155.936809 84.532645 
z
" style="fill:#1f77b4;"/>
   </g>
   <g id="patch_63">
    <path clip-path="url(#p4da5f53c39)" d="M 157.549324 273.312 
L 159.161839 273.312 
L 159.161839 88.248774 
L 157.549324 88.248774 
z
" style="fill:#1f77b4;"/>
   </g>
   <g id="patch_64">
    <path clip-path="url(#p4da5f53c39)" d="M 159.161839 273.312 
L 160.774353 273.312 
L 160.774353 85.275871 
L 159.161839 85.275871 
z
" style="fill:#1f77b4;"/>
   </g>
   <g id="patch_65">
    <path clip-path="url(#p4da5f53c39)" d="M 160.774353 273.312 
L 162.386868 273.312 
L 162.386868 97.91071 
L 160.774353 97.91071 
z
" style="fill:#1f77b4;"/>
   </g>
   <g id="patch_66">
    <path clip-path="url(#p4da5f53c39)" d="M 162.386868 273.312 
L 163.999382 273.312 
L 163.999382 84.532645 
L 162.386868 84.532645 
z
" style="fill:#1f77b4;"/>
   </g>
   <g id="patch_67">
    <path clip-path="url(#p4da5f53c39)" d="M 163.999382 273.312 
L 165.611897 273.312 
L 165.611897 45.141677 
L 163.999382 45.141677 
z
" style="fill:#1f77b4;"/>
   </g>
   <g id="patch_68">
    <path clip-path="url(#p4da5f53c39)" d="M 165.611897 273.312 
L 167.224411 273.312 
L 167.224411 93.451355 
L 165.611897 93.451355 
z
" style="fill:#1f77b4;"/>
   </g>
   <g id="patch_69">
    <path clip-path="url(#p4da5f53c39)" d="M 167.224411 273.312 
L 168.836926 273.312 
L 168.836926 73.384258 
L 167.224411 73.384258 
z
" style="fill:#1f77b4;"/>
   </g>
   <g id="patch_70">
    <path clip-path="url(#p4da5f53c39)" d="M 168.836926 273.312 
L 170.44944 273.312 
L 170.44944 57.03329 
L 168.836926 57.03329 
z
" style="fill:#1f77b4;"/>
   </g>
   <g id="patch_71">
    <path clip-path="url(#p4da5f53c39)" d="M 170.44944 273.312 
L 172.061955 273.312 
L 172.061955 58.519742 
L 170.44944 58.519742 
z
" style="fill:#1f77b4;"/>
   </g>
   <g id="patch_72">
    <path clip-path="url(#p4da5f53c39)" d="M 172.061955 273.312 
L 173.674469 273.312 
L 173.674469 71.897806 
L 172.061955 71.897806 
z
" style="fill:#1f77b4;"/>
   </g>
   <g id="patch_73">
    <path clip-path="url(#p4da5f53c39)" d="M 173.674469 273.312 
L 175.286984 273.312 
L 175.286984 66.695226 
L 173.674469 66.695226 
z
" style="fill:#1f77b4;"/>
   </g>
   <g id="patch_74">
    <path clip-path="url(#p4da5f53c39)" d="M 175.286984 273.312 
L 176.899498 273.312 
L 176.899498 86.762323 
L 175.286984 86.762323 
z
" style="fill:#1f77b4;"/>
   </g>
   <g id="patch_75">
    <path clip-path="url(#p4da5f53c39)" d="M 176.899498 273.312 
L 178.512013 273.312 
L 178.512013 56.290065 
L 176.899498 56.290065 
z
" style="fill:#1f77b4;"/>
   </g>
   <g id="patch_76">
    <path clip-path="url(#p4da5f53c39)" d="M 178.512013 273.312 
L 180.124527 273.312 
L 180.124527 55.546839 
L 178.512013 55.546839 
z
" style="fill:#1f77b4;"/>
   </g>
   <g id="patch_77">
    <path clip-path="url(#p4da5f53c39)" d="M 180.124527 273.312 
L 181.737042 273.312 
L 181.737042 69.668129 
L 180.124527 69.668129 
z
" style="fill:#1f77b4;"/>
   </g>
   <g id="patch_78">
    <path clip-path="url(#p4da5f53c39)" d="M 181.737042 273.312 
L 183.349556 273.312 
L 183.349556 45.141677 
L 181.737042 45.141677 
z
" style="fill:#1f77b4;"/>
   </g>
   <g id="patch_79">
    <path clip-path="url(#p4da5f53c39)" d="M 183.349556 273.312 
L 184.962071 273.312 
L 184.962071 79.330065 
L 183.349556 79.330065 
z
" style="fill:#1f77b4;"/>
   </g>
   <g id="patch_80">
    <path clip-path="url(#p4da5f53c39)" d="M 184.962071 273.312 
L 186.574586 273.312 
L 186.574586 56.290065 
L 184.962071 56.290065 
z
" style="fill:#1f77b4;"/>
   </g>
   <g id="patch_81">
    <path clip-path="url(#p4da5f53c39)" d="M 186.574586 273.312 
L 188.1871 273.312 
L 188.1871 54.060387 
L 186.574586 54.060387 
z
" style="fill:#1f77b4;"/>
   </g>
   <g id="patch_82">
    <path clip-path="url(#p4da5f53c39)" d="M 188.1871 273.312 
L 189.799615 273.312 
L 189.799615 46.628129 
L 188.1871 46.628129 
z
" style="fill:#1f77b4;"/>
   </g>
   <g id="patch_83">
    <path clip-path="url(#p4da5f53c39)" d="M 189.799615 273.312 
L 191.412129 273.312 
L 191.412129 51.087484 
L 189.799615 51.087484 
z
" style="fill:#1f77b4;"/>
   </g>
   <g id="patch_84">
    <path clip-path="url(#p4da5f53c39)" d="M 191.412129 273.312 
L 193.024644 273.312 
L 193.024644 76.357161 
L 191.412129 76.357161 
z
" style="fill:#1f77b4;"/>
   </g>
   <g id="patch_85">
    <path clip-path="url(#p4da5f53c39)" d="M 193.024644 273.312 
L 194.637158 273.312 
L 194.637158 46.628129 
L 193.024644 46.628129 
z
" style="fill:#1f77b4;"/>
   </g>
   <g id="patch_86">
    <path clip-path="url(#p4da5f53c39)" d="M 194.637158 273.312 
L 196.249673 273.312 
L 196.249673 48.114581 
L 194.637158 48.114581 
z
" style="fill:#1f77b4;"/>
   </g>
   <g id="patch_87">
    <path clip-path="url(#p4da5f53c39)" d="M 196.249673 273.312 
L 197.862187 273.312 
L 197.862187 39.195871 
L 196.249673 39.195871 
z
" style="fill:#1f77b4;"/>
   </g>
   <g id="patch_88">
    <path clip-path="url(#p4da5f53c39)" d="M 197.862187 273.312 
L 199.474702 273.312 
L 199.474702 36.222968 
L 197.862187 36.222968 
z
" style="fill:#1f77b4;"/>
   </g>
   <g id="patch_89">
    <path clip-path="url(#p4da5f53c39)" d="M 199.474702 273.312 
L 201.087216 273.312 
L 201.087216 42.912 
L 199.474702 42.912 
z
" style="fill:#1f77b4;"/>
   </g>
   <g id="patch_90">
    <path clip-path="url(#p4da5f53c39)" d="M 201.087216 273.312 
L 202.699731 273.312 
L 202.699731 34.736516 
L 201.087216 34.736516 
z
" style="fill:#1f77b4;"/>
   </g>
   <g id="patch_91">
    <path clip-path="url(#p4da5f53c39)" d="M 202.699731 273.312 
L 204.312245 273.312 
L 204.312245 33.99329 
L 202.699731 33.99329 
z
" style="fill:#1f77b4;"/>
   </g>
   <g id="patch_92">
    <path clip-path="url(#p4da5f53c39)" d="M 204.312245 273.312 
L 205.92476 273.312 
L 205.92476 44.398452 
L 204.312245 44.398452 
z
" style="fill:#1f77b4;"/>
   </g>
   <g id="patch_93">
    <path clip-path="url(#p4da5f53c39)" d="M 205.92476 273.312 
L 207.537274 273.312 
L 207.537274 45.884903 
L 205.92476 45.884903 
z
" style="fill:#1f77b4;"/>
   </g>
   <g id="patch_94">
    <path clip-path="url(#p4da5f53c39)" d="M 207.537274 273.312 
L 209.149789 273.312 
L 209.149789 57.776516 
L 207.537274 57.776516 
z
" style="fill:#1f77b4;"/>
   </g>
   <g id="patch_95">
    <path clip-path="url(#p4da5f53c39)" d="M 209.149789 273.312 
L 210.762303 273.312 
L 210.762303 48.857806 
L 209.149789 48.857806 
z
" style="fill:#1f77b4;"/>
   </g>
   <g id="patch_96">
    <path clip-path="url(#p4da5f53c39)" d="M 210.762303 273.312 
L 212.374818 273.312 
L 212.374818 27.304258 
L 210.762303 27.304258 
z
" style="fill:#1f77b4;"/>
   </g>
   <g id="patch_97">
    <path clip-path="url(#p4da5f53c39)" d="M 212.374818 273.312 
L 213.987333 273.312 
L 213.987333 48.114581 
L 212.374818 48.114581 
z
" style="fill:#1f77b4;"/>
   </g>
   <g id="patch_98">
    <path clip-path="url(#p4da5f53c39)" d="M 213.987333 273.312 
L 215.599847 273.312 
L 215.599847 19.872 
L 213.987333 19.872 
z
" style="fill:#1f77b4;"/>
   </g>
   <g id="patch_99">
    <path clip-path="url(#p4da5f53c39)" d="M 215.599847 273.312 
L 217.212362 273.312 
L 217.212362 55.546839 
L 215.599847 55.546839 
z
" style="fill:#1f77b4;"/>
   </g>
   <g id="patch_100">
    <path clip-path="url(#p4da5f53c39)" d="M 217.212362 273.312 
L 218.824876 273.312 
L 218.824876 71.154581 
L 217.212362 71.154581 
z
" style="fill:#1f77b4;"/>
   </g>
   <g id="patch_101">
    <path clip-path="url(#p4da5f53c39)" d="M 218.824876 273.312 
L 220.437391 273.312 
L 220.437391 62.979097 
L 218.824876 62.979097 
z
" style="fill:#1f77b4;"/>
   </g>
   <g id="patch_102">
    <path clip-path="url(#p4da5f53c39)" d="M 220.437391 273.312 
L 222.049905 273.312 
L 222.049905 61.492645 
L 220.437391 61.492645 
z
" style="fill:#1f77b4;"/>
   </g>
   <g id="patch_103">
    <path clip-path="url(#p4da5f53c39)" d="M 222.049905 273.312 
L 223.66242 273.312 
L 223.66242 30.277161 
L 222.049905 30.277161 
z
" style="fill:#1f77b4;"/>
   </g>
   <g id="patch_104">
    <path clip-path="url(#p4da5f53c39)" d="M 223.66242 273.312 
L 225.274934 273.312 
L 225.274934 30.277161 
L 223.66242 30.277161 
z
" style="fill:#1f77b4;"/>
   </g>
   <g id="patch_105">
    <path clip-path="url(#p4da5f53c39)" d="M 225.274934 273.312 
L 226.887449 273.312 
L 226.887449 51.83071 
L 225.274934 51.83071 
z
" style="fill:#1f77b4;"/>
   </g>
   <g id="patch_106">
    <path clip-path="url(#p4da5f53c39)" d="M 226.887449 273.312 
L 228.499963 273.312 
L 228.499963 40.682323 
L 226.887449 40.682323 
z
" style="fill:#1f77b4;"/>
   </g>
   <g id="patch_107">
    <path clip-path="url(#p4da5f53c39)" d="M 228.499963 273.312 
L 230.112478 273.312 
L 230.112478 58.519742 
L 228.499963 58.519742 
z
" style="fill:#1f77b4;"/>
   </g>
   <g id="patch_108">
    <path clip-path="url(#p4da5f53c39)" d="M 230.112478 273.312 
L 231.724992 273.312 
L 231.724992 44.398452 
L 230.112478 44.398452 
z
" style="fill:#1f77b4;"/>
   </g>
   <g id="patch_109">
    <path clip-path="url(#p4da5f53c39)" d="M 231.724992 273.312 
L 233.337507 273.312 
L 233.337507 65.952 
L 231.724992 65.952 
z
" style="fill:#1f77b4;"/>
   </g>
   <g id="patch_110">
    <path clip-path="url(#p4da5f53c39)" d="M 233.337507 273.312 
L 234.950021 273.312 
L 234.950021 36.966194 
L 233.337507 36.966194 
z
" style="fill:#1f77b4;"/>
   </g>
   <g id="patch_111">
    <path clip-path="url(#p4da5f53c39)" d="M 234.950021 273.312 
L 236.562536 273.312 
L 236.562536 66.695226 
L 234.950021 66.695226 
z
" style="fill:#1f77b4;"/>
   </g>
   <g id="patch_112">
    <path clip-path="url(#p4da5f53c39)" d="M 236.562536 273.312 
L 238.17505 273.312 
L 238.17505 33.250065 
L 236.562536 33.250065 
z
" style="fill:#1f77b4;"/>
   </g>
   <g id="patch_113">
    <path clip-path="url(#p4da5f53c39)" d="M 238.17505 273.312 
L 239.787565 273.312 
L 239.787565 39.195871 
L 238.17505 39.195871 
z
" style="fill:#1f77b4;"/>
   </g>
   <g id="patch_114">
    <path clip-path="url(#p4da5f53c39)" d="M 239.787565 273.312 
L 241.40008 273.312 
L 241.40008 42.168774 
L 239.787565 42.168774 
z
" style="fill:#1f77b4;"/>
   </g>
   <g id="patch_115">
    <path clip-path="url(#p4da5f53c39)" d="M 241.40008 273.312 
L 243.012594 273.312 
L 243.012594 43.655226 
L 241.40008 43.655226 
z
" style="fill:#1f77b4;"/>
   </g>
   <g id="patch_116">
    <path clip-path="url(#p4da5f53c39)" d="M 243.012594 273.312 
L 244.625109 273.312 
L 244.625109 52.573935 
L 243.012594 52.573935 
z
" style="fill:#1f77b4;"/>
   </g>
   <g id="patch_117">
    <path clip-path="url(#p4da5f53c39)" d="M 244.625109 273.312 
L 246.237623 273.312 
L 246.237623 44.398452 
L 244.625109 44.398452 
z
" style="fill:#1f77b4;"/>
   </g>
   <g id="patch_118">
    <path clip-path="url(#p4da5f53c39)" d="M 246.237623 273.312 
L 247.850138 273.312 
L 247.850138 62.235871 
L 246.237623 62.235871 
z
" style="fill:#1f77b4;"/>
   </g>
   <g id="patch_119">
    <path clip-path="url(#p4da5f53c39)" d="M 247.850138 273.312 
L 249.462652 273.312 
L 249.462652 56.290065 
L 247.850138 56.290065 
z
" style="fill:#1f77b4;"/>
   </g>
   <g id="patch_120">
    <path clip-path="url(#p4da5f53c39)" d="M 249.462652 273.312 
L 251.075167 273.312 
L 251.075167 36.966194 
L 249.462652 36.966194 
z
" style="fill:#1f77b4;"/>
   </g>
   <g id="patch_121">
    <path clip-path="url(#p4da5f53c39)" d="M 251.075167 273.312 
L 252.687681 273.312 
L 252.687681 49.601032 
L 251.075167 49.601032 
z
" style="fill:#1f77b4;"/>
   </g>
   <g id="patch_122">
    <path clip-path="url(#p4da5f53c39)" d="M 252.687681 273.312 
L 254.300196 273.312 
L 254.300196 67.438452 
L 252.687681 67.438452 
z
" style="fill:#1f77b4;"/>
   </g>
   <g id="patch_123">
    <path clip-path="url(#p4da5f53c39)" d="M 254.300196 273.312 
L 255.91271 273.312 
L 255.91271 71.154581 
L 254.300196 71.154581 
z
" style="fill:#1f77b4;"/>
   </g>
   <g id="patch_124">
    <path clip-path="url(#p4da5f53c39)" d="M 255.91271 273.312 
L 257.525225 273.312 
L 257.525225 69.668129 
L 255.91271 69.668129 
z
" style="fill:#1f77b4;"/>
   </g>
   <g id="patch_125">
    <path clip-path="url(#p4da5f53c39)" d="M 257.525225 273.312 
L 259.137739 273.312 
L 259.137739 63.722323 
L 257.525225 63.722323 
z
" style="fill:#1f77b4;"/>
   </g>
   <g id="patch_126">
    <path clip-path="url(#p4da5f53c39)" d="M 259.137739 273.312 
L 260.750254 273.312 
L 260.750254 72.641032 
L 259.137739 72.641032 
z
" style="fill:#1f77b4;"/>
   </g>
   <g id="patch_127">
    <path clip-path="url(#p4da5f53c39)" d="M 260.750254 273.312 
L 262.362768 273.312 
L 262.362768 58.519742 
L 260.750254 58.519742 
z
" style="fill:#1f77b4;"/>
   </g>
   <g id="patch_128">
    <path clip-path="url(#p4da5f53c39)" d="M 262.362768 273.312 
L 263.975283 273.312 
L 263.975283 61.492645 
L 262.362768 61.492645 
z
" style="fill:#1f77b4;"/>
   </g>
   <g id="patch_129">
    <path clip-path="url(#p4da5f53c39)" d="M 263.975283 273.312 
L 265.587797 273.312 
L 265.587797 76.357161 
L 263.975283 76.357161 
z
" style="fill:#1f77b4;"/>
   </g>
   <g id="patch_130">
    <path clip-path="url(#p4da5f53c39)" d="M 265.587797 273.312 
L 267.200312 273.312 
L 267.200312 72.641032 
L 265.587797 72.641032 
z
" style="fill:#1f77b4;"/>
   </g>
   <g id="patch_131">
    <path clip-path="url(#p4da5f53c39)" d="M 267.200312 273.312 
L 268.812827 273.312 
L 268.812827 68.924903 
L 267.200312 68.924903 
z
" style="fill:#1f77b4;"/>
   </g>
   <g id="patch_132">
    <path clip-path="url(#p4da5f53c39)" d="M 268.812827 273.312 
L 270.425341 273.312 
L 270.425341 64.465548 
L 268.812827 64.465548 
z
" style="fill:#1f77b4;"/>
   </g>
   <g id="patch_133">
    <path clip-path="url(#p4da5f53c39)" d="M 270.425341 273.312 
L 272.037856 273.312 
L 272.037856 45.141677 
L 270.425341 45.141677 
z
" style="fill:#1f77b4;"/>
   </g>
   <g id="patch_134">
    <path clip-path="url(#p4da5f53c39)" d="M 272.037856 273.312 
L 273.65037 273.312 
L 273.65037 71.154581 
L 272.037856 71.154581 
z
" style="fill:#1f77b4;"/>
   </g>
   <g id="patch_135">
    <path clip-path="url(#p4da5f53c39)" d="M 273.65037 273.312 
L 275.262885 273.312 
L 275.262885 84.532645 
L 273.65037 84.532645 
z
" style="fill:#1f77b4;"/>
   </g>
   <g id="patch_136">
    <path clip-path="url(#p4da5f53c39)" d="M 275.262885 273.312 
L 276.875399 273.312 
L 276.875399 60.006194 
L 275.262885 60.006194 
z
" style="fill:#1f77b4;"/>
   </g>
   <g id="patch_137">
    <path clip-path="url(#p4da5f53c39)" d="M 276.875399 273.312 
L 278.487914 273.312 
L 278.487914 43.655226 
L 276.875399 43.655226 
z
" style="fill:#1f77b4;"/>
   </g>
   <g id="patch_138">
    <path clip-path="url(#p4da5f53c39)" d="M 278.487914 273.312 
L 280.100428 273.312 
L 280.100428 61.492645 
L 278.487914 61.492645 
z
" style="fill:#1f77b4;"/>
   </g>
   <g id="patch_139">
    <path clip-path="url(#p4da5f53c39)" d="M 280.100428 273.312 
L 281.712943 273.312 
L 281.712943 83.789419 
L 280.100428 83.789419 
z
" style="fill:#1f77b4;"/>
   </g>
   <g id="patch_140">
    <path clip-path="url(#p4da5f53c39)" d="M 281.712943 273.312 
L 283.325457 273.312 
L 283.325457 74.127484 
L 281.712943 74.127484 
z
" style="fill:#1f77b4;"/>
   </g>
   <g id="patch_141">
    <path clip-path="url(#p4da5f53c39)" d="M 283.325457 273.312 
L 284.937972 273.312 
L 284.937972 74.87071 
L 283.325457 74.87071 
z
" style="fill:#1f77b4;"/>
   </g>
   <g id="patch_142">
    <path clip-path="url(#p4da5f53c39)" d="M 284.937972 273.312 
L 286.550486 273.312 
L 286.550486 84.532645 
L 284.937972 84.532645 
z
" style="fill:#1f77b4;"/>
   </g>
   <g id="patch_143">
    <path clip-path="url(#p4da5f53c39)" d="M 286.550486 273.312 
L 288.163001 273.312 
L 288.163001 84.532645 
L 286.550486 84.532645 
z
" style="fill:#1f77b4;"/>
   </g>
   <g id="patch_144">
    <path clip-path="url(#p4da5f53c39)" d="M 288.163001 273.312 
L 289.775515 273.312 
L 289.775515 71.897806 
L 288.163001 71.897806 
z
" style="fill:#1f77b4;"/>
   </g>
   <g id="patch_145">
    <path clip-path="url(#p4da5f53c39)" d="M 289.775515 273.312 
L 291.38803 273.312 
L 291.38803 86.019097 
L 289.775515 86.019097 
z
" style="fill:#1f77b4;"/>
   </g>
   <g id="patch_146">
    <path clip-path="url(#p4da5f53c39)" d="M 291.38803 273.312 
L 293.000544 273.312 
L 293.000544 83.789419 
L 291.38803 83.789419 
z
" style="fill:#1f77b4;"/>
   </g>
   <g id="patch_147">
    <path clip-path="url(#p4da5f53c39)" d="M 293.000544 273.312 
L 294.613059 273.312 
L 294.613059 86.019097 
L 293.000544 86.019097 
z
" style="fill:#1f77b4;"/>
   </g>
   <g id="patch_148">
    <path clip-path="url(#p4da5f53c39)" d="M 294.613059 273.312 
L 296.225573 273.312 
L 296.225573 103.856516 
L 294.613059 103.856516 
z
" style="fill:#1f77b4;"/>
   </g>
   <g id="patch_149">
    <path clip-path="url(#p4da5f53c39)" d="M 296.225573 273.312 
L 297.838088 273.312 
L 297.838088 78.586839 
L 296.225573 78.586839 
z
" style="fill:#1f77b4;"/>
   </g>
   <g id="patch_150">
    <path clip-path="url(#p4da5f53c39)" d="M 297.838088 273.312 
L 299.450603 273.312 
L 299.450603 89.735226 
L 297.838088 89.735226 
z
" style="fill:#1f77b4;"/>
   </g>
   <g id="patch_151">
    <path clip-path="url(#p4da5f53c39)" d="M 299.450603 273.312 
L 301.063117 273.312 
L 301.063117 99.397161 
L 299.450603 99.397161 
z
" style="fill:#1f77b4;"/>
   </g>
   <g id="patch_152">
    <path clip-path="url(#p4da5f53c39)" d="M 301.063117 273.312 
L 302.675632 273.312 
L 302.675632 78.586839 
L 301.063117 78.586839 
z
" style="fill:#1f77b4;"/>
   </g>
   <g id="patch_153">
    <path clip-path="url(#p4da5f53c39)" d="M 302.675632 273.312 
L 304.288146 273.312 
L 304.288146 98.653935 
L 302.675632 98.653935 
z
" style="fill:#1f77b4;"/>
   </g>
   <g id="patch_154">
    <path clip-path="url(#p4da5f53c39)" d="M 304.288146 273.312 
L 305.900661 273.312 
L 305.900661 100.883613 
L 304.288146 100.883613 
z
" style="fill:#1f77b4;"/>
   </g>
   <g id="patch_155">
    <path clip-path="url(#p4da5f53c39)" d="M 305.900661 273.312 
L 307.513175 273.312 
L 307.513175 104.599742 
L 305.900661 104.599742 
z
" style="fill:#1f77b4;"/>
   </g>
   <g id="patch_156">
    <path clip-path="url(#p4da5f53c39)" d="M 307.513175 273.312 
L 309.12569 273.312 
L 309.12569 120.207484 
L 307.513175 120.207484 
z
" style="fill:#1f77b4;"/>
   </g>
   <g id="patch_157">
    <path clip-path="url(#p4da5f53c39)" d="M 309.12569 273.312 
L 310.738204 273.312 
L 310.738204 126.15329 
L 309.12569 126.15329 
z
" style="fill:#1f77b4;"/>
   </g>
   <g id="patch_158">
    <path clip-path="url(#p4da5f53c39)" d="M 310.738204 273.312 
L 312.350719 273.312 
L 312.350719 103.856516 
L 310.738204 103.856516 
z
" style="fill:#1f77b4;"/>
   </g>
   <g id="patch_159">
    <path clip-path="url(#p4da5f53c39)" d="M 312.350719 273.312 
L 313.963233 273.312 
L 313.963233 131.355871 
L 312.350719 131.355871 
z
" style="fill:#1f77b4;"/>
   </g>
   <g id="patch_160">
    <path clip-path="url(#p4da5f53c39)" d="M 313.963233 273.312 
L 315.575748 273.312 
L 315.575748 132.842323 
L 313.963233 132.842323 
z
" style="fill:#1f77b4;"/>
   </g>
   <g id="patch_161">
    <path clip-path="url(#p4da5f53c39)" d="M 315.575748 273.312 
L 317.188262 273.312 
L 317.188262 106.086194 
L 315.575748 106.086194 
z
" style="fill:#1f77b4;"/>
   </g>
   <g id="patch_162">
    <path clip-path="url(#p4da5f53c39)" d="M 317.188262 273.312 
L 318.800777 273.312 
L 318.800777 144.733935 
L 317.188262 144.733935 
z
" style="fill:#1f77b4;"/>
   </g>
   <g id="patch_163">
    <path clip-path="url(#p4da5f53c39)" d="M 318.800777 273.312 
L 320.413291 273.312 
L 320.413291 117.234581 
L 318.800777 117.234581 
z
" style="fill:#1f77b4;"/>
   </g>
   <g id="patch_164">
    <path clip-path="url(#p4da5f53c39)" d="M 320.413291 273.312 
L 322.025806 273.312 
L 322.025806 123.180387 
L 320.413291 123.180387 
z
" style="fill:#1f77b4;"/>
   </g>
   <g id="patch_165">
    <path clip-path="url(#p4da5f53c39)" d="M 322.025806 273.312 
L 323.63832 273.312 
L 323.63832 156.625548 
L 322.025806 156.625548 
z
" style="fill:#1f77b4;"/>
   </g>
   <g id="patch_166">
    <path clip-path="url(#p4da5f53c39)" d="M 323.63832 273.312 
L 325.250835 273.312 
L 325.250835 143.247484 
L 323.63832 143.247484 
z
" style="fill:#1f77b4;"/>
   </g>
   <g id="patch_167">
    <path clip-path="url(#p4da5f53c39)" d="M 325.250835 273.312 
L 326.86335 273.312 
L 326.86335 146.963613 
L 325.250835 146.963613 
z
" style="fill:#1f77b4;"/>
   </g>
   <g id="patch_168">
    <path clip-path="url(#p4da5f53c39)" d="M 326.86335 273.312 
L 328.475864 273.312 
L 328.475864 135.072 
L 326.86335 135.072 
z
" style="fill:#1f77b4;"/>
   </g>
   <g id="patch_169">
    <path clip-path="url(#p4da5f53c39)" d="M 328.475864 273.312 
L 330.088379 273.312 
L 330.088379 163.314581 
L 328.475864 163.314581 
z
" style="fill:#1f77b4;"/>
   </g>
   <g id="patch_170">
    <path clip-path="url(#p4da5f53c39)" d="M 330.088379 273.312 
L 331.700893 273.312 
L 331.700893 151.422968 
L 330.088379 151.422968 
z
" style="fill:#1f77b4;"/>
   </g>
   <g id="patch_171">
    <path clip-path="url(#p4da5f53c39)" d="M 331.700893 273.312 
L 333.313408 273.312 
L 333.313408 149.936516 
L 331.700893 149.936516 
z
" style="fill:#1f77b4;"/>
   </g>
   <g id="patch_172">
    <path clip-path="url(#p4da5f53c39)" d="M 333.313408 273.312 
L 334.925922 273.312 
L 334.925922 151.422968 
L 333.313408 151.422968 
z
" style="fill:#1f77b4;"/>
   </g>
   <g id="patch_173">
    <path clip-path="url(#p4da5f53c39)" d="M 334.925922 273.312 
L 336.538437 273.312 
L 336.538437 162.571355 
L 334.925922 162.571355 
z
" style="fill:#1f77b4;"/>
   </g>
   <g id="patch_174">
    <path clip-path="url(#p4da5f53c39)" d="M 336.538437 273.312 
L 338.150951 273.312 
L 338.150951 173.719742 
L 336.538437 173.719742 
z
" style="fill:#1f77b4;"/>
   </g>
   <g id="patch_175">
    <path clip-path="url(#p4da5f53c39)" d="M 338.150951 273.312 
L 339.763466 273.312 
L 339.763466 168.517161 
L 338.150951 168.517161 
z
" style="fill:#1f77b4;"/>
   </g>
   <g id="patch_176">
    <path clip-path="url(#p4da5f53c39)" d="M 339.763466 273.312 
L 341.37598 273.312 
L 341.37598 181.152 
L 339.763466 181.152 
z
" style="fill:#1f77b4;"/>
   </g>
   <g id="patch_177">
    <path clip-path="url(#p4da5f53c39)" d="M 341.37598 273.312 
L 342.988495 273.312 
L 342.988495 177.435871 
L 341.37598 177.435871 
z
" style="fill:#1f77b4;"/>
   </g>
   <g id="patch_178">
    <path clip-path="url(#p4da5f53c39)" d="M 342.988495 273.312 
L 344.601009 273.312 
L 344.601009 193.043613 
L 342.988495 193.043613 
z
" style="fill:#1f77b4;"/>
   </g>
   <g id="patch_179">
    <path clip-path="url(#p4da5f53c39)" d="M 344.601009 273.312 
L 346.213524 273.312 
L 346.213524 176.692645 
L 344.601009 176.692645 
z
" style="fill:#1f77b4;"/>
   </g>
   <g id="patch_180">
    <path clip-path="url(#p4da5f53c39)" d="M 346.213524 273.312 
L 347.826038 273.312 
L 347.826038 184.124903 
L 346.213524 184.124903 
z
" style="fill:#1f77b4;"/>
   </g>
   <g id="patch_181">
    <path clip-path="url(#p4da5f53c39)" d="M 347.826038 273.312 
L 349.438553 273.312 
L 349.438553 192.300387 
L 347.826038 192.300387 
z
" style="fill:#1f77b4;"/>
   </g>
   <g id="patch_182">
    <path clip-path="url(#p4da5f53c39)" d="M 349.438553 273.312 
L 351.051067 273.312 
L 351.051067 194.530065 
L 349.438553 194.530065 
z
" style="fill:#1f77b4;"/>
   </g>
   <g id="patch_183">
    <path clip-path="url(#p4da5f53c39)" d="M 351.051067 273.312 
L 352.663582 273.312 
L 352.663582 215.340387 
L 351.051067 215.340387 
z
" style="fill:#1f77b4;"/>
   </g>
   <g id="patch_184">
    <path clip-path="url(#p4da5f53c39)" d="M 352.663582 273.312 
L 354.276097 273.312 
L 354.276097 203.448774 
L 352.663582 203.448774 
z
" style="fill:#1f77b4;"/>
   </g>
   <g id="patch_185">
    <path clip-path="url(#p4da5f53c39)" d="M 354.276097 273.312 
L 355.888611 273.312 
L 355.888611 216.083613 
L 354.276097 216.083613 
z
" style="fill:#1f77b4;"/>
   </g>
   <g id="patch_186">
    <path clip-path="url(#p4da5f53c39)" d="M 355.888611 273.312 
L 357.501126 273.312 
L 357.501126 203.448774 
L 355.888611 203.448774 
z
" style="fill:#1f77b4;"/>
   </g>
   <g id="patch_187">
    <path clip-path="url(#p4da5f53c39)" d="M 357.501126 273.312 
L 359.11364 273.312 
L 359.11364 216.083613 
L 357.501126 216.083613 
z
" style="fill:#1f77b4;"/>
   </g>
   <g id="patch_188">
    <path clip-path="url(#p4da5f53c39)" d="M 359.11364 273.312 
L 360.726155 273.312 
L 360.726155 216.826839 
L 359.11364 216.826839 
z
" style="fill:#1f77b4;"/>
   </g>
   <g id="patch_189">
    <path clip-path="url(#p4da5f53c39)" d="M 360.726155 273.312 
L 362.338669 273.312 
L 362.338669 218.31329 
L 360.726155 218.31329 
z
" style="fill:#1f77b4;"/>
   </g>
   <g id="patch_190">
    <path clip-path="url(#p4da5f53c39)" d="M 362.338669 273.312 
L 363.951184 273.312 
L 363.951184 225.745548 
L 362.338669 225.745548 
z
" style="fill:#1f77b4;"/>
   </g>
   <g id="patch_191">
    <path clip-path="url(#p4da5f53c39)" d="M 363.951184 273.312 
L 365.563698 273.312 
L 365.563698 227.975226 
L 363.951184 227.975226 
z
" style="fill:#1f77b4;"/>
   </g>
   <g id="patch_192">
    <path clip-path="url(#p4da5f53c39)" d="M 365.563698 273.312 
L 367.176213 273.312 
L 367.176213 227.232 
L 365.563698 227.232 
z
" style="fill:#1f77b4;"/>
   </g>
   <g id="patch_193">
    <path clip-path="url(#p4da5f53c39)" d="M 367.176213 273.312 
L 368.788727 273.312 
L 368.788727 237.637161 
L 367.176213 237.637161 
z
" style="fill:#1f77b4;"/>
   </g>
   <g id="patch_194">
    <path clip-path="url(#p4da5f53c39)" d="M 368.788727 273.312 
L 370.401242 273.312 
L 370.401242 249.528774 
L 368.788727 249.528774 
z
" style="fill:#1f77b4;"/>
   </g>
   <g id="patch_195">
    <path clip-path="url(#p4da5f53c39)" d="M 370.401242 273.312 
L 372.013756 273.312 
L 372.013756 246.555871 
L 370.401242 246.555871 
z
" style="fill:#1f77b4;"/>
   </g>
   <g id="patch_196">
    <path clip-path="url(#p4da5f53c39)" d="M 372.013756 273.312 
L 373.626271 273.312 
L 373.626271 243.582968 
L 372.013756 243.582968 
z
" style="fill:#1f77b4;"/>
   </g>
   <g id="patch_197">
    <path clip-path="url(#p4da5f53c39)" d="M 373.626271 273.312 
L 375.238785 273.312 
L 375.238785 248.042323 
L 373.626271 248.042323 
z
" style="fill:#1f77b4;"/>
   </g>
   <g id="patch_198">
    <path clip-path="url(#p4da5f53c39)" d="M 375.238785 273.312 
L 376.8513 273.312 
L 376.8513 255.474581 
L 375.238785 255.474581 
z
" style="fill:#1f77b4;"/>
   </g>
   <g id="patch_199">
    <path clip-path="url(#p4da5f53c39)" d="M 376.8513 273.312 
L 378.463814 273.312 
L 378.463814 257.704258 
L 376.8513 257.704258 
z
" style="fill:#1f77b4;"/>
   </g>
   <g id="patch_200">
    <path clip-path="url(#p4da5f53c39)" d="M 378.463814 273.312 
L 380.076329 273.312 
L 380.076329 262.163613 
L 378.463814 262.163613 
z
" style="fill:#1f77b4;"/>
   </g>
   <g id="patch_201">
    <path clip-path="url(#p4da5f53c39)" d="M 380.076329 273.312 
L 381.688844 273.312 
L 381.688844 267.366194 
L 380.076329 267.366194 
z
" style="fill:#1f77b4;"/>
   </g>
   <g id="patch_202">
    <path clip-path="url(#p4da5f53c39)" d="M 381.688844 273.312 
L 383.301358 273.312 
L 383.301358 268.852645 
L 381.688844 268.852645 
z
" style="fill:#1f77b4;"/>
   </g>
   <g id="matplotlib.axis_1">
    <g id="xtick_1">
     <g id="line2d_1">
      <defs>
       <path d="M 0 0 
L 0 3.5 
" id="m8d7f79691f" style="stroke:#000000;stroke-width:0.8;"/>
      </defs>
      <g>
       <use style="stroke:#000000;stroke-width:0.8;" x="60.013977" xlink:href="#m8d7f79691f" y="273.312"/>
      </g>
     </g>
     <g id="text_1">
      <!-- 0.0 -->
      <g transform="translate(52.062415 287.910437)scale(0.1 -0.1)">
       <defs>
        <path d="M 2034 4250 
Q 1547 4250 1301 3770 
Q 1056 3291 1056 2328 
Q 1056 1369 1301 889 
Q 1547 409 2034 409 
Q 2525 409 2770 889 
Q 3016 1369 3016 2328 
Q 3016 3291 2770 3770 
Q 2525 4250 2034 4250 
z
M 2034 4750 
Q 2819 4750 3233 4129 
Q 3647 3509 3647 2328 
Q 3647 1150 3233 529 
Q 2819 -91 2034 -91 
Q 1250 -91 836 529 
Q 422 1150 422 2328 
Q 422 3509 836 4129 
Q 1250 4750 2034 4750 
z
" id="DejaVuSans-30" transform="scale(0.015625)"/>
        <path d="M 684 794 
L 1344 794 
L 1344 0 
L 684 0 
L 684 794 
z
" id="DejaVuSans-2e" transform="scale(0.015625)"/>
       </defs>
       <use xlink:href="#DejaVuSans-30"/>
       <use x="63.623047" xlink:href="#DejaVuSans-2e"/>
       <use x="95.410156" xlink:href="#DejaVuSans-30"/>
      </g>
     </g>
    </g>
    <g id="xtick_2">
     <g id="line2d_2">
      <g>
       <use style="stroke:#000000;stroke-width:0.8;" x="101.350278" xlink:href="#m8d7f79691f" y="273.312"/>
      </g>
     </g>
     <g id="text_2">
      <!-- 0.2 -->
      <g transform="translate(93.398715 287.910437)scale(0.1 -0.1)">
       <defs>
        <path d="M 1228 531 
L 3431 531 
L 3431 0 
L 469 0 
L 469 531 
Q 828 903 1448 1529 
Q 2069 2156 2228 2338 
Q 2531 2678 2651 2914 
Q 2772 3150 2772 3378 
Q 2772 3750 2511 3984 
Q 2250 4219 1831 4219 
Q 1534 4219 1204 4116 
Q 875 4013 500 3803 
L 500 4441 
Q 881 4594 1212 4672 
Q 1544 4750 1819 4750 
Q 2544 4750 2975 4387 
Q 3406 4025 3406 3419 
Q 3406 3131 3298 2873 
Q 3191 2616 2906 2266 
Q 2828 2175 2409 1742 
Q 1991 1309 1228 531 
z
" id="DejaVuSans-32" transform="scale(0.015625)"/>
       </defs>
       <use xlink:href="#DejaVuSans-30"/>
       <use x="63.623047" xlink:href="#DejaVuSans-2e"/>
       <use x="95.410156" xlink:href="#DejaVuSans-32"/>
      </g>
     </g>
    </g>
    <g id="xtick_3">
     <g id="line2d_3">
      <g>
       <use style="stroke:#000000;stroke-width:0.8;" x="142.686578" xlink:href="#m8d7f79691f" y="273.312"/>
      </g>
     </g>
     <g id="text_3">
      <!-- 0.4 -->
      <g transform="translate(134.735016 287.910437)scale(0.1 -0.1)">
       <defs>
        <path d="M 2419 4116 
L 825 1625 
L 2419 1625 
L 2419 4116 
z
M 2253 4666 
L 3047 4666 
L 3047 1625 
L 3713 1625 
L 3713 1100 
L 3047 1100 
L 3047 0 
L 2419 0 
L 2419 1100 
L 313 1100 
L 313 1709 
L 2253 4666 
z
" id="DejaVuSans-34" transform="scale(0.015625)"/>
       </defs>
       <use xlink:href="#DejaVuSans-30"/>
       <use x="63.623047" xlink:href="#DejaVuSans-2e"/>
       <use x="95.410156" xlink:href="#DejaVuSans-34"/>
      </g>
     </g>
    </g>
    <g id="xtick_4">
     <g id="line2d_4">
      <g>
       <use style="stroke:#000000;stroke-width:0.8;" x="184.022879" xlink:href="#m8d7f79691f" y="273.312"/>
      </g>
     </g>
     <g id="text_4">
      <!-- 0.6 -->
      <g transform="translate(176.071316 287.910437)scale(0.1 -0.1)">
       <defs>
        <path d="M 2113 2584 
Q 1688 2584 1439 2293 
Q 1191 2003 1191 1497 
Q 1191 994 1439 701 
Q 1688 409 2113 409 
Q 2538 409 2786 701 
Q 3034 994 3034 1497 
Q 3034 2003 2786 2293 
Q 2538 2584 2113 2584 
z
M 3366 4563 
L 3366 3988 
Q 3128 4100 2886 4159 
Q 2644 4219 2406 4219 
Q 1781 4219 1451 3797 
Q 1122 3375 1075 2522 
Q 1259 2794 1537 2939 
Q 1816 3084 2150 3084 
Q 2853 3084 3261 2657 
Q 3669 2231 3669 1497 
Q 3669 778 3244 343 
Q 2819 -91 2113 -91 
Q 1303 -91 875 529 
Q 447 1150 447 2328 
Q 447 3434 972 4092 
Q 1497 4750 2381 4750 
Q 2619 4750 2861 4703 
Q 3103 4656 3366 4563 
z
" id="DejaVuSans-36" transform="scale(0.015625)"/>
       </defs>
       <use xlink:href="#DejaVuSans-30"/>
       <use x="63.623047" xlink:href="#DejaVuSans-2e"/>
       <use x="95.410156" xlink:href="#DejaVuSans-36"/>
      </g>
     </g>
    </g>
    <g id="xtick_5">
     <g id="line2d_5">
      <g>
       <use style="stroke:#000000;stroke-width:0.8;" x="225.35918" xlink:href="#m8d7f79691f" y="273.312"/>
      </g>
     </g>
     <g id="text_5">
      <!-- 0.8 -->
      <g transform="translate(217.407617 287.910437)scale(0.1 -0.1)">
       <defs>
        <path d="M 2034 2216 
Q 1584 2216 1326 1975 
Q 1069 1734 1069 1313 
Q 1069 891 1326 650 
Q 1584 409 2034 409 
Q 2484 409 2743 651 
Q 3003 894 3003 1313 
Q 3003 1734 2745 1975 
Q 2488 2216 2034 2216 
z
M 1403 2484 
Q 997 2584 770 2862 
Q 544 3141 544 3541 
Q 544 4100 942 4425 
Q 1341 4750 2034 4750 
Q 2731 4750 3128 4425 
Q 3525 4100 3525 3541 
Q 3525 3141 3298 2862 
Q 3072 2584 2669 2484 
Q 3125 2378 3379 2068 
Q 3634 1759 3634 1313 
Q 3634 634 3220 271 
Q 2806 -91 2034 -91 
Q 1263 -91 848 271 
Q 434 634 434 1313 
Q 434 1759 690 2068 
Q 947 2378 1403 2484 
z
M 1172 3481 
Q 1172 3119 1398 2916 
Q 1625 2713 2034 2713 
Q 2441 2713 2670 2916 
Q 2900 3119 2900 3481 
Q 2900 3844 2670 4047 
Q 2441 4250 2034 4250 
Q 1625 4250 1398 4047 
Q 1172 3844 1172 3481 
z
" id="DejaVuSans-38" transform="scale(0.015625)"/>
       </defs>
       <use xlink:href="#DejaVuSans-30"/>
       <use x="63.623047" xlink:href="#DejaVuSans-2e"/>
       <use x="95.410156" xlink:href="#DejaVuSans-38"/>
      </g>
     </g>
    </g>
    <g id="xtick_6">
     <g id="line2d_6">
      <g>
       <use style="stroke:#000000;stroke-width:0.8;" x="266.69548" xlink:href="#m8d7f79691f" y="273.312"/>
      </g>
     </g>
     <g id="text_6">
      <!-- 1.0 -->
      <g transform="translate(258.743918 287.910437)scale(0.1 -0.1)">
       <defs>
        <path d="M 794 531 
L 1825 531 
L 1825 4091 
L 703 3866 
L 703 4441 
L 1819 4666 
L 2450 4666 
L 2450 531 
L 3481 531 
L 3481 0 
L 794 0 
L 794 531 
z
" id="DejaVuSans-31" transform="scale(0.015625)"/>
       </defs>
       <use xlink:href="#DejaVuSans-31"/>
       <use x="63.623047" xlink:href="#DejaVuSans-2e"/>
       <use x="95.410156" xlink:href="#DejaVuSans-30"/>
      </g>
     </g>
    </g>
    <g id="xtick_7">
     <g id="line2d_7">
      <g>
       <use style="stroke:#000000;stroke-width:0.8;" x="308.031781" xlink:href="#m8d7f79691f" y="273.312"/>
      </g>
     </g>
     <g id="text_7">
      <!-- 1.2 -->
      <g transform="translate(300.080218 287.910437)scale(0.1 -0.1)">
       <use xlink:href="#DejaVuSans-31"/>
       <use x="63.623047" xlink:href="#DejaVuSans-2e"/>
       <use x="95.410156" xlink:href="#DejaVuSans-32"/>
      </g>
     </g>
    </g>
    <g id="xtick_8">
     <g id="line2d_8">
      <g>
       <use style="stroke:#000000;stroke-width:0.8;" x="349.368081" xlink:href="#m8d7f79691f" y="273.312"/>
      </g>
     </g>
     <g id="text_8">
      <!-- 1.4 -->
      <g transform="translate(341.416519 287.910437)scale(0.1 -0.1)">
       <use xlink:href="#DejaVuSans-31"/>
       <use x="63.623047" xlink:href="#DejaVuSans-2e"/>
       <use x="95.410156" xlink:href="#DejaVuSans-34"/>
      </g>
     </g>
    </g>
    <g id="xtick_9">
     <g id="line2d_9">
      <g>
       <use style="stroke:#000000;stroke-width:0.8;" x="390.704382" xlink:href="#m8d7f79691f" y="273.312"/>
      </g>
     </g>
     <g id="text_9">
      <!-- 1.6 -->
      <g transform="translate(382.752819 287.910437)scale(0.1 -0.1)">
       <use xlink:href="#DejaVuSans-31"/>
       <use x="63.623047" xlink:href="#DejaVuSans-2e"/>
       <use x="95.410156" xlink:href="#DejaVuSans-36"/>
      </g>
     </g>
    </g>
    <g id="text_10">
     <!-- Angle with normal (rad) -->
     <g transform="translate(163.023281 301.588562)scale(0.1 -0.1)">
      <defs>
       <path d="M 2188 4044 
L 1331 1722 
L 3047 1722 
L 2188 4044 
z
M 1831 4666 
L 2547 4666 
L 4325 0 
L 3669 0 
L 3244 1197 
L 1141 1197 
L 716 0 
L 50 0 
L 1831 4666 
z
" id="DejaVuSans-41" transform="scale(0.015625)"/>
       <path d="M 3513 2113 
L 3513 0 
L 2938 0 
L 2938 2094 
Q 2938 2591 2744 2837 
Q 2550 3084 2163 3084 
Q 1697 3084 1428 2787 
Q 1159 2491 1159 1978 
L 1159 0 
L 581 0 
L 581 3500 
L 1159 3500 
L 1159 2956 
Q 1366 3272 1645 3428 
Q 1925 3584 2291 3584 
Q 2894 3584 3203 3211 
Q 3513 2838 3513 2113 
z
" id="DejaVuSans-6e" transform="scale(0.015625)"/>
       <path d="M 2906 1791 
Q 2906 2416 2648 2759 
Q 2391 3103 1925 3103 
Q 1463 3103 1205 2759 
Q 947 2416 947 1791 
Q 947 1169 1205 825 
Q 1463 481 1925 481 
Q 2391 481 2648 825 
Q 2906 1169 2906 1791 
z
M 3481 434 
Q 3481 -459 3084 -895 
Q 2688 -1331 1869 -1331 
Q 1566 -1331 1297 -1286 
Q 1028 -1241 775 -1147 
L 775 -588 
Q 1028 -725 1275 -790 
Q 1522 -856 1778 -856 
Q 2344 -856 2625 -561 
Q 2906 -266 2906 331 
L 2906 616 
Q 2728 306 2450 153 
Q 2172 0 1784 0 
Q 1141 0 747 490 
Q 353 981 353 1791 
Q 353 2603 747 3093 
Q 1141 3584 1784 3584 
Q 2172 3584 2450 3431 
Q 2728 3278 2906 2969 
L 2906 3500 
L 3481 3500 
L 3481 434 
z
" id="DejaVuSans-67" transform="scale(0.015625)"/>
       <path d="M 603 4863 
L 1178 4863 
L 1178 0 
L 603 0 
L 603 4863 
z
" id="DejaVuSans-6c" transform="scale(0.015625)"/>
       <path d="M 3597 1894 
L 3597 1613 
L 953 1613 
Q 991 1019 1311 708 
Q 1631 397 2203 397 
Q 2534 397 2845 478 
Q 3156 559 3463 722 
L 3463 178 
Q 3153 47 2828 -22 
Q 2503 -91 2169 -91 
Q 1331 -91 842 396 
Q 353 884 353 1716 
Q 353 2575 817 3079 
Q 1281 3584 2069 3584 
Q 2775 3584 3186 3129 
Q 3597 2675 3597 1894 
z
M 3022 2063 
Q 3016 2534 2758 2815 
Q 2500 3097 2075 3097 
Q 1594 3097 1305 2825 
Q 1016 2553 972 2059 
L 3022 2063 
z
" id="DejaVuSans-65" transform="scale(0.015625)"/>
       <path id="DejaVuSans-20" transform="scale(0.015625)"/>
       <path d="M 269 3500 
L 844 3500 
L 1563 769 
L 2278 3500 
L 2956 3500 
L 3675 769 
L 4391 3500 
L 4966 3500 
L 4050 0 
L 3372 0 
L 2619 2869 
L 1863 0 
L 1184 0 
L 269 3500 
z
" id="DejaVuSans-77" transform="scale(0.015625)"/>
       <path d="M 603 3500 
L 1178 3500 
L 1178 0 
L 603 0 
L 603 3500 
z
M 603 4863 
L 1178 4863 
L 1178 4134 
L 603 4134 
L 603 4863 
z
" id="DejaVuSans-69" transform="scale(0.015625)"/>
       <path d="M 1172 4494 
L 1172 3500 
L 2356 3500 
L 2356 3053 
L 1172 3053 
L 1172 1153 
Q 1172 725 1289 603 
Q 1406 481 1766 481 
L 2356 481 
L 2356 0 
L 1766 0 
Q 1100 0 847 248 
Q 594 497 594 1153 
L 594 3053 
L 172 3053 
L 172 3500 
L 594 3500 
L 594 4494 
L 1172 4494 
z
" id="DejaVuSans-74" transform="scale(0.015625)"/>
       <path d="M 3513 2113 
L 3513 0 
L 2938 0 
L 2938 2094 
Q 2938 2591 2744 2837 
Q 2550 3084 2163 3084 
Q 1697 3084 1428 2787 
Q 1159 2491 1159 1978 
L 1159 0 
L 581 0 
L 581 4863 
L 1159 4863 
L 1159 2956 
Q 1366 3272 1645 3428 
Q 1925 3584 2291 3584 
Q 2894 3584 3203 3211 
Q 3513 2838 3513 2113 
z
" id="DejaVuSans-68" transform="scale(0.015625)"/>
       <path d="M 1959 3097 
Q 1497 3097 1228 2736 
Q 959 2375 959 1747 
Q 959 1119 1226 758 
Q 1494 397 1959 397 
Q 2419 397 2687 759 
Q 2956 1122 2956 1747 
Q 2956 2369 2687 2733 
Q 2419 3097 1959 3097 
z
M 1959 3584 
Q 2709 3584 3137 3096 
Q 3566 2609 3566 1747 
Q 3566 888 3137 398 
Q 2709 -91 1959 -91 
Q 1206 -91 779 398 
Q 353 888 353 1747 
Q 353 2609 779 3096 
Q 1206 3584 1959 3584 
z
" id="DejaVuSans-6f" transform="scale(0.015625)"/>
       <path d="M 2631 2963 
Q 2534 3019 2420 3045 
Q 2306 3072 2169 3072 
Q 1681 3072 1420 2755 
Q 1159 2438 1159 1844 
L 1159 0 
L 581 0 
L 581 3500 
L 1159 3500 
L 1159 2956 
Q 1341 3275 1631 3429 
Q 1922 3584 2338 3584 
Q 2397 3584 2469 3576 
Q 2541 3569 2628 3553 
L 2631 2963 
z
" id="DejaVuSans-72" transform="scale(0.015625)"/>
       <path d="M 3328 2828 
Q 3544 3216 3844 3400 
Q 4144 3584 4550 3584 
Q 5097 3584 5394 3201 
Q 5691 2819 5691 2113 
L 5691 0 
L 5113 0 
L 5113 2094 
Q 5113 2597 4934 2840 
Q 4756 3084 4391 3084 
Q 3944 3084 3684 2787 
Q 3425 2491 3425 1978 
L 3425 0 
L 2847 0 
L 2847 2094 
Q 2847 2600 2669 2842 
Q 2491 3084 2119 3084 
Q 1678 3084 1418 2786 
Q 1159 2488 1159 1978 
L 1159 0 
L 581 0 
L 581 3500 
L 1159 3500 
L 1159 2956 
Q 1356 3278 1631 3431 
Q 1906 3584 2284 3584 
Q 2666 3584 2933 3390 
Q 3200 3197 3328 2828 
z
" id="DejaVuSans-6d" transform="scale(0.015625)"/>
       <path d="M 2194 1759 
Q 1497 1759 1228 1600 
Q 959 1441 959 1056 
Q 959 750 1161 570 
Q 1363 391 1709 391 
Q 2188 391 2477 730 
Q 2766 1069 2766 1631 
L 2766 1759 
L 2194 1759 
z
M 3341 1997 
L 3341 0 
L 2766 0 
L 2766 531 
Q 2569 213 2275 61 
Q 1981 -91 1556 -91 
Q 1019 -91 701 211 
Q 384 513 384 1019 
Q 384 1609 779 1909 
Q 1175 2209 1959 2209 
L 2766 2209 
L 2766 2266 
Q 2766 2663 2505 2880 
Q 2244 3097 1772 3097 
Q 1472 3097 1187 3025 
Q 903 2953 641 2809 
L 641 3341 
Q 956 3463 1253 3523 
Q 1550 3584 1831 3584 
Q 2591 3584 2966 3190 
Q 3341 2797 3341 1997 
z
" id="DejaVuSans-61" transform="scale(0.015625)"/>
       <path d="M 1984 4856 
Q 1566 4138 1362 3434 
Q 1159 2731 1159 2009 
Q 1159 1288 1364 580 
Q 1569 -128 1984 -844 
L 1484 -844 
Q 1016 -109 783 600 
Q 550 1309 550 2009 
Q 550 2706 781 3412 
Q 1013 4119 1484 4856 
L 1984 4856 
z
" id="DejaVuSans-28" transform="scale(0.015625)"/>
       <path d="M 2906 2969 
L 2906 4863 
L 3481 4863 
L 3481 0 
L 2906 0 
L 2906 525 
Q 2725 213 2448 61 
Q 2172 -91 1784 -91 
Q 1150 -91 751 415 
Q 353 922 353 1747 
Q 353 2572 751 3078 
Q 1150 3584 1784 3584 
Q 2172 3584 2448 3432 
Q 2725 3281 2906 2969 
z
M 947 1747 
Q 947 1113 1208 752 
Q 1469 391 1925 391 
Q 2381 391 2643 752 
Q 2906 1113 2906 1747 
Q 2906 2381 2643 2742 
Q 2381 3103 1925 3103 
Q 1469 3103 1208 2742 
Q 947 2381 947 1747 
z
" id="DejaVuSans-64" transform="scale(0.015625)"/>
       <path d="M 513 4856 
L 1013 4856 
Q 1481 4119 1714 3412 
Q 1947 2706 1947 2009 
Q 1947 1309 1714 600 
Q 1481 -109 1013 -844 
L 513 -844 
Q 928 -128 1133 580 
Q 1338 1288 1338 2009 
Q 1338 2731 1133 3434 
Q 928 4138 513 4856 
z
" id="DejaVuSans-29" transform="scale(0.015625)"/>
      </defs>
      <use xlink:href="#DejaVuSans-41"/>
      <use x="68.408203" xlink:href="#DejaVuSans-6e"/>
      <use x="131.787109" xlink:href="#DejaVuSans-67"/>
      <use x="195.263672" xlink:href="#DejaVuSans-6c"/>
      <use x="223.046875" xlink:href="#DejaVuSans-65"/>
      <use x="284.570312" xlink:href="#DejaVuSans-20"/>
      <use x="316.357422" xlink:href="#DejaVuSans-77"/>
      <use x="398.144531" xlink:href="#DejaVuSans-69"/>
      <use x="425.927734" xlink:href="#DejaVuSans-74"/>
      <use x="465.136719" xlink:href="#DejaVuSans-68"/>
      <use x="528.515625" xlink:href="#DejaVuSans-20"/>
      <use x="560.302734" xlink:href="#DejaVuSans-6e"/>
      <use x="623.681641" xlink:href="#DejaVuSans-6f"/>
      <use x="684.863281" xlink:href="#DejaVuSans-72"/>
      <use x="724.226562" xlink:href="#DejaVuSans-6d"/>
      <use x="821.638672" xlink:href="#DejaVuSans-61"/>
      <use x="882.917969" xlink:href="#DejaVuSans-6c"/>
      <use x="910.701172" xlink:href="#DejaVuSans-20"/>
      <use x="942.488281" xlink:href="#DejaVuSans-28"/>
      <use x="981.501953" xlink:href="#DejaVuSans-72"/>
      <use x="1022.615234" xlink:href="#DejaVuSans-61"/>
      <use x="1083.894531" xlink:href="#DejaVuSans-64"/>
      <use x="1147.371094" xlink:href="#DejaVuSans-29"/>
     </g>
    </g>
   </g>
   <g id="matplotlib.axis_2">
    <g id="ytick_1">
     <g id="line2d_10">
      <defs>
       <path d="M 0 0 
L -3.5 0 
" id="m08c18de7b2" style="stroke:#000000;stroke-width:0.8;"/>
      </defs>
      <g>
       <use style="stroke:#000000;stroke-width:0.8;" x="43.78125" xlink:href="#m08c18de7b2" y="273.312"/>
      </g>
     </g>
     <g id="text_11">
      <!-- 0.0 -->
      <g transform="translate(20.878125 277.111219)scale(0.1 -0.1)">
       <use xlink:href="#DejaVuSans-30"/>
       <use x="63.623047" xlink:href="#DejaVuSans-2e"/>
       <use x="95.410156" xlink:href="#DejaVuSans-30"/>
      </g>
     </g>
    </g>
    <g id="ytick_2">
     <g id="line2d_11">
      <g>
       <use style="stroke:#000000;stroke-width:0.8;" x="43.78125" xlink:href="#m08c18de7b2" y="226.923237"/>
      </g>
     </g>
     <g id="text_12">
      <!-- 0.2 -->
      <g transform="translate(20.878125 230.722456)scale(0.1 -0.1)">
       <use xlink:href="#DejaVuSans-30"/>
       <use x="63.623047" xlink:href="#DejaVuSans-2e"/>
       <use x="95.410156" xlink:href="#DejaVuSans-32"/>
      </g>
     </g>
    </g>
    <g id="ytick_3">
     <g id="line2d_12">
      <g>
       <use style="stroke:#000000;stroke-width:0.8;" x="43.78125" xlink:href="#m08c18de7b2" y="180.534474"/>
      </g>
     </g>
     <g id="text_13">
      <!-- 0.4 -->
      <g transform="translate(20.878125 184.333692)scale(0.1 -0.1)">
       <use xlink:href="#DejaVuSans-30"/>
       <use x="63.623047" xlink:href="#DejaVuSans-2e"/>
       <use x="95.410156" xlink:href="#DejaVuSans-34"/>
      </g>
     </g>
    </g>
    <g id="ytick_4">
     <g id="line2d_13">
      <g>
       <use style="stroke:#000000;stroke-width:0.8;" x="43.78125" xlink:href="#m08c18de7b2" y="134.14571"/>
      </g>
     </g>
     <g id="text_14">
      <!-- 0.6 -->
      <g transform="translate(20.878125 137.944929)scale(0.1 -0.1)">
       <use xlink:href="#DejaVuSans-30"/>
       <use x="63.623047" xlink:href="#DejaVuSans-2e"/>
       <use x="95.410156" xlink:href="#DejaVuSans-36"/>
      </g>
     </g>
    </g>
    <g id="ytick_5">
     <g id="line2d_14">
      <g>
       <use style="stroke:#000000;stroke-width:0.8;" x="43.78125" xlink:href="#m08c18de7b2" y="87.756947"/>
      </g>
     </g>
     <g id="text_15">
      <!-- 0.8 -->
      <g transform="translate(20.878125 91.556166)scale(0.1 -0.1)">
       <use xlink:href="#DejaVuSans-30"/>
       <use x="63.623047" xlink:href="#DejaVuSans-2e"/>
       <use x="95.410156" xlink:href="#DejaVuSans-38"/>
      </g>
     </g>
    </g>
    <g id="ytick_6">
     <g id="line2d_15">
      <g>
       <use style="stroke:#000000;stroke-width:0.8;" x="43.78125" xlink:href="#m08c18de7b2" y="41.368184"/>
      </g>
     </g>
     <g id="text_16">
      <!-- 1.0 -->
      <g transform="translate(20.878125 45.167403)scale(0.1 -0.1)">
       <use xlink:href="#DejaVuSans-31"/>
       <use x="63.623047" xlink:href="#DejaVuSans-2e"/>
       <use x="95.410156" xlink:href="#DejaVuSans-30"/>
      </g>
     </g>
    </g>
    <g id="text_17">
     <!-- Probability density -->
     <g transform="translate(14.798438 186.606781)rotate(-90)scale(0.1 -0.1)">
      <defs>
       <path d="M 1259 4147 
L 1259 2394 
L 2053 2394 
Q 2494 2394 2734 2622 
Q 2975 2850 2975 3272 
Q 2975 3691 2734 3919 
Q 2494 4147 2053 4147 
L 1259 4147 
z
M 628 4666 
L 2053 4666 
Q 2838 4666 3239 4311 
Q 3641 3956 3641 3272 
Q 3641 2581 3239 2228 
Q 2838 1875 2053 1875 
L 1259 1875 
L 1259 0 
L 628 0 
L 628 4666 
z
" id="DejaVuSans-50" transform="scale(0.015625)"/>
       <path d="M 3116 1747 
Q 3116 2381 2855 2742 
Q 2594 3103 2138 3103 
Q 1681 3103 1420 2742 
Q 1159 2381 1159 1747 
Q 1159 1113 1420 752 
Q 1681 391 2138 391 
Q 2594 391 2855 752 
Q 3116 1113 3116 1747 
z
M 1159 2969 
Q 1341 3281 1617 3432 
Q 1894 3584 2278 3584 
Q 2916 3584 3314 3078 
Q 3713 2572 3713 1747 
Q 3713 922 3314 415 
Q 2916 -91 2278 -91 
Q 1894 -91 1617 61 
Q 1341 213 1159 525 
L 1159 0 
L 581 0 
L 581 4863 
L 1159 4863 
L 1159 2969 
z
" id="DejaVuSans-62" transform="scale(0.015625)"/>
       <path d="M 2059 -325 
Q 1816 -950 1584 -1140 
Q 1353 -1331 966 -1331 
L 506 -1331 
L 506 -850 
L 844 -850 
Q 1081 -850 1212 -737 
Q 1344 -625 1503 -206 
L 1606 56 
L 191 3500 
L 800 3500 
L 1894 763 
L 2988 3500 
L 3597 3500 
L 2059 -325 
z
" id="DejaVuSans-79" transform="scale(0.015625)"/>
       <path d="M 2834 3397 
L 2834 2853 
Q 2591 2978 2328 3040 
Q 2066 3103 1784 3103 
Q 1356 3103 1142 2972 
Q 928 2841 928 2578 
Q 928 2378 1081 2264 
Q 1234 2150 1697 2047 
L 1894 2003 
Q 2506 1872 2764 1633 
Q 3022 1394 3022 966 
Q 3022 478 2636 193 
Q 2250 -91 1575 -91 
Q 1294 -91 989 -36 
Q 684 19 347 128 
L 347 722 
Q 666 556 975 473 
Q 1284 391 1588 391 
Q 1994 391 2212 530 
Q 2431 669 2431 922 
Q 2431 1156 2273 1281 
Q 2116 1406 1581 1522 
L 1381 1569 
Q 847 1681 609 1914 
Q 372 2147 372 2553 
Q 372 3047 722 3315 
Q 1072 3584 1716 3584 
Q 2034 3584 2315 3537 
Q 2597 3491 2834 3397 
z
" id="DejaVuSans-73" transform="scale(0.015625)"/>
      </defs>
      <use xlink:href="#DejaVuSans-50"/>
      <use x="58.552734" xlink:href="#DejaVuSans-72"/>
      <use x="97.416016" xlink:href="#DejaVuSans-6f"/>
      <use x="158.597656" xlink:href="#DejaVuSans-62"/>
      <use x="222.074219" xlink:href="#DejaVuSans-61"/>
      <use x="283.353516" xlink:href="#DejaVuSans-62"/>
      <use x="346.830078" xlink:href="#DejaVuSans-69"/>
      <use x="374.613281" xlink:href="#DejaVuSans-6c"/>
      <use x="402.396484" xlink:href="#DejaVuSans-69"/>
      <use x="430.179688" xlink:href="#DejaVuSans-74"/>
      <use x="469.388672" xlink:href="#DejaVuSans-79"/>
      <use x="528.568359" xlink:href="#DejaVuSans-20"/>
      <use x="560.355469" xlink:href="#DejaVuSans-64"/>
      <use x="623.832031" xlink:href="#DejaVuSans-65"/>
      <use x="685.355469" xlink:href="#DejaVuSans-6e"/>
      <use x="748.734375" xlink:href="#DejaVuSans-73"/>
      <use x="800.833984" xlink:href="#DejaVuSans-69"/>
      <use x="828.617188" xlink:href="#DejaVuSans-74"/>
      <use x="867.826172" xlink:href="#DejaVuSans-79"/>
     </g>
    </g>
   </g>
   <g id="line2d_16">
    <path clip-path="url(#p4da5f53c39)" d="M 60.013977 273.312 
L 79.837728 229.090834 
L 90.237073 206.440466 
L 99.01152 187.846411 
L 106.811029 171.831243 
L 113.960578 157.656076 
L 120.460169 145.248015 
L 126.63478 133.928696 
L 132.484411 123.663372 
L 138.009063 114.407967 
L 143.208736 106.111306 
L 148.408408 98.237856 
L 153.283101 91.258593 
L 157.832814 85.109729 
L 162.382528 79.325602 
L 166.607261 74.291024 
L 170.831995 69.589025 
L 175.056729 65.227461 
L 178.956483 61.509877 
L 182.856238 58.093878 
L 186.755992 54.984329 
L 190.330767 52.406904 
L 193.905542 50.093792 
L 197.480316 48.04776 
L 201.055091 46.271254 
L 204.304886 44.891932 
L 207.554682 43.738484 
L 210.804477 42.812051 
L 214.054272 42.113549 
L 217.304067 41.64367 
L 220.553863 41.402877 
L 223.803658 41.391408 
L 227.053453 41.609276 
L 230.303248 42.056264 
L 233.553044 42.731931 
L 236.802839 43.635608 
L 240.052634 44.766402 
L 243.302429 46.123195 
L 246.552225 47.704644 
L 250.126999 49.701845 
L 253.701774 51.966594 
L 257.276549 54.496181 
L 260.851324 57.287581 
L 264.751078 60.627406 
L 268.650832 64.270074 
L 272.550587 68.210396 
L 276.77532 72.808457 
L 281.000054 77.741573 
L 285.549768 83.4194 
L 290.099481 89.465239 
L 294.974174 96.337979 
L 299.848867 103.604433 
L 305.048539 111.771047 
L 310.248212 120.346544 
L 315.772863 129.881729 
L 321.622495 140.423907 
L 327.797106 152.012872 
L 334.296696 164.67867 
L 341.446246 179.105238 
L 349.245755 195.354931 
L 358.020202 214.16167 
L 368.419546 236.991973 
L 383.693584 271.123825 
L 384.668523 273.312 
L 384.668523 273.312 
" style="fill:none;stroke:#ff7f0e;stroke-linecap:square;stroke-width:1.5;"/>
   </g>
   <g id="patch_203">
    <path d="M 43.78125 273.312 
L 43.78125 7.2 
" style="fill:none;stroke:#000000;stroke-linecap:square;stroke-linejoin:miter;stroke-width:0.8;"/>
   </g>
   <g id="patch_204">
    <path d="M 400.90125 273.312 
L 400.90125 7.2 
" style="fill:none;stroke:#000000;stroke-linecap:square;stroke-linejoin:miter;stroke-width:0.8;"/>
   </g>
   <g id="patch_205">
    <path d="M 43.78125 273.312 
L 400.90125 273.312 
" style="fill:none;stroke:#000000;stroke-linecap:square;stroke-linejoin:miter;stroke-width:0.8;"/>
   </g>
   <g id="patch_206">
    <path d="M 43.78125 7.2 
L 400.90125 7.2 
" style="fill:none;stroke:#000000;stroke-linecap:square;stroke-linejoin:miter;stroke-width:0.8;"/>
   </g>
  </g>
 </g>
 <defs>
  <clipPath id="p4da5f53c39">
   <rect height="266.112" width="357.12" x="43.78125" y="7.2"/>
  </clipPath>
 </defs>
</svg>
