<?xml version="1.0" encoding="utf-8" standalone="no"?>
<!DOCTYPE svg PUBLIC "-//W3C//DTD SVG 1.1//EN"
  "http://www.w3.org/Graphics/SVG/1.1/DTD/svg11.dtd">
<svg height="310.86825pt" version="1.1" viewBox="0 0 408.10125 310.86825" width="408.10125pt" xmlns="http://www.w3.org/2000/svg" xmlns:xlink="http://www.w3.org/1999/xlink">
 <metadata>
  <rdf:RDF xmlns:cc="http://creativecommons.org/ns#" xmlns:dc="http://purl.org/dc/elements/1.1/" xmlns:rdf="http://www.w3.org/1999/02/22-rdf-syntax-ns#">
   <cc:Work>
    <dc:type rdf:resource="http://purl.org/dc/dcmitype/StillImage"/>
    <dc:date>2021-07-12T18:04:48.519264</dc:date>
    <dc:format>image/svg+xml</dc:format>
    <dc:creator>
     <cc:Agent>
      <dc:title>Matplotlib v3.4.2, https://matplotlib.org/</dc:title>
     </cc:Agent>
    </dc:creator>
   </cc:Work>
  </rdf:RDF>
 </metadata>
 <defs>
  <style type="text/css">*{stroke-linecap:butt;stroke-linejoin:round;}</style>
 </defs>
 <g id="figure_1">
  <g id="patch_1">
   <path d="M 0 310.86825 
L 408.10125 310.86825 
L 408.10125 0 
L 0 0 
z
" style="fill:#ffffff;"/>
  </g>
  <g id="axes_1">
   <g id="patch_2">
    <path d="M 43.78125 273.312 
L 400.90125 273.312 
L 400.90125 7.2 
L 43.78125 7.2 
z
" style="fill:#ffffff;"/>
   </g>
   <g id="patch_3">
    <path clip-path="url(#p4ad93ed859)" d="M 60.160168 273.312 
L 61.782693 273.312 
L 61.782693 271.580064 
L 60.160168 271.580064 
z
" style="fill:#1f77b4;"/>
   </g>
   <g id="patch_4">
    <path clip-path="url(#p4ad93ed859)" d="M 61.782693 273.312 
L 63.405218 273.312 
L 63.405218 271.002752 
L 61.782693 271.002752 
z
" style="fill:#1f77b4;"/>
   </g>
   <g id="patch_5">
    <path clip-path="url(#p4ad93ed859)" d="M 63.405218 273.312 
L 65.027743 273.312 
L 65.027743 268.693503 
L 63.405218 268.693503 
z
" style="fill:#1f77b4;"/>
   </g>
   <g id="patch_6">
    <path clip-path="url(#p4ad93ed859)" d="M 65.027743 273.312 
L 66.650268 273.312 
L 66.650268 268.693503 
L 65.027743 268.693503 
z
" style="fill:#1f77b4;"/>
   </g>
   <g id="patch_7">
    <path clip-path="url(#p4ad93ed859)" d="M 66.650268 273.312 
L 68.272794 273.312 
L 68.272794 269.270815 
L 66.650268 269.270815 
z
" style="fill:#1f77b4;"/>
   </g>
   <g id="patch_8">
    <path clip-path="url(#p4ad93ed859)" d="M 68.272794 273.312 
L 69.895319 273.312 
L 69.895319 266.384255 
L 68.272794 266.384255 
z
" style="fill:#1f77b4;"/>
   </g>
   <g id="patch_9">
    <path clip-path="url(#p4ad93ed859)" d="M 69.895319 273.312 
L 71.517844 273.312 
L 71.517844 269.270815 
L 69.895319 269.270815 
z
" style="fill:#1f77b4;"/>
   </g>
   <g id="patch_10">
    <path clip-path="url(#p4ad93ed859)" d="M 71.517844 273.312 
L 73.140369 273.312 
L 73.140369 261.188446 
L 71.517844 261.188446 
z
" style="fill:#1f77b4;"/>
   </g>
   <g id="patch_11">
    <path clip-path="url(#p4ad93ed859)" d="M 73.140369 273.312 
L 74.762894 273.312 
L 74.762894 262.920383 
L 73.140369 262.920383 
z
" style="fill:#1f77b4;"/>
   </g>
   <g id="patch_12">
    <path clip-path="url(#p4ad93ed859)" d="M 74.762894 273.312 
L 76.385419 273.312 
L 76.385419 259.45651 
L 74.762894 259.45651 
z
" style="fill:#1f77b4;"/>
   </g>
   <g id="patch_13">
    <path clip-path="url(#p4ad93ed859)" d="M 76.385419 273.312 
L 78.007945 273.312 
L 78.007945 262.343071 
L 76.385419 262.343071 
z
" style="fill:#1f77b4;"/>
   </g>
   <g id="patch_14">
    <path clip-path="url(#p4ad93ed859)" d="M 78.007945 273.312 
L 79.63047 273.312 
L 79.63047 260.611134 
L 78.007945 260.611134 
z
" style="fill:#1f77b4;"/>
   </g>
   <g id="patch_15">
    <path clip-path="url(#p4ad93ed859)" d="M 79.63047 273.312 
L 81.252995 273.312 
L 81.252995 261.765759 
L 79.63047 261.765759 
z
" style="fill:#1f77b4;"/>
   </g>
   <g id="patch_16">
    <path clip-path="url(#p4ad93ed859)" d="M 81.252995 273.312 
L 82.87552 273.312 
L 82.87552 257.724574 
L 81.252995 257.724574 
z
" style="fill:#1f77b4;"/>
   </g>
   <g id="patch_17">
    <path clip-path="url(#p4ad93ed859)" d="M 82.87552 273.312 
L 84.498045 273.312 
L 84.498045 257.147262 
L 82.87552 257.147262 
z
" style="fill:#1f77b4;"/>
   </g>
   <g id="patch_18">
    <path clip-path="url(#p4ad93ed859)" d="M 84.498045 273.312 
L 86.12057 273.312 
L 86.12057 254.838014 
L 84.498045 254.838014 
z
" style="fill:#1f77b4;"/>
   </g>
   <g id="patch_19">
    <path clip-path="url(#p4ad93ed859)" d="M 86.12057 273.312 
L 87.743095 273.312 
L 87.743095 253.106077 
L 86.12057 253.106077 
z
" style="fill:#1f77b4;"/>
   </g>
   <g id="patch_20">
    <path clip-path="url(#p4ad93ed859)" d="M 87.743095 273.312 
L 89.365621 273.312 
L 89.365621 248.487581 
L 87.743095 248.487581 
z
" style="fill:#1f77b4;"/>
   </g>
   <g id="patch_21">
    <path clip-path="url(#p4ad93ed859)" d="M 89.365621 273.312 
L 90.988146 273.312 
L 90.988146 250.796829 
L 89.365621 250.796829 
z
" style="fill:#1f77b4;"/>
   </g>
   <g id="patch_22">
    <path clip-path="url(#p4ad93ed859)" d="M 90.988146 273.312 
L 92.610671 273.312 
L 92.610671 251.374141 
L 90.988146 251.374141 
z
" style="fill:#1f77b4;"/>
   </g>
   <g id="patch_23">
    <path clip-path="url(#p4ad93ed859)" d="M 92.610671 273.312 
L 94.233196 273.312 
L 94.233196 255.415326 
L 92.610671 255.415326 
z
" style="fill:#1f77b4;"/>
   </g>
   <g id="patch_24">
    <path clip-path="url(#p4ad93ed859)" d="M 94.233196 273.312 
L 95.855721 273.312 
L 95.855721 251.374141 
L 94.233196 251.374141 
z
" style="fill:#1f77b4;"/>
   </g>
   <g id="patch_25">
    <path clip-path="url(#p4ad93ed859)" d="M 95.855721 273.312 
L 97.478246 273.312 
L 97.478246 252.528765 
L 95.855721 252.528765 
z
" style="fill:#1f77b4;"/>
   </g>
   <g id="patch_26">
    <path clip-path="url(#p4ad93ed859)" d="M 97.478246 273.312 
L 99.100772 273.312 
L 99.100772 245.023708 
L 97.478246 245.023708 
z
" style="fill:#1f77b4;"/>
   </g>
   <g id="patch_27">
    <path clip-path="url(#p4ad93ed859)" d="M 99.100772 273.312 
L 100.723297 273.312 
L 100.723297 245.601021 
L 99.100772 245.601021 
z
" style="fill:#1f77b4;"/>
   </g>
   <g id="patch_28">
    <path clip-path="url(#p4ad93ed859)" d="M 100.723297 273.312 
L 102.345822 273.312 
L 102.345822 245.601021 
L 100.723297 245.601021 
z
" style="fill:#1f77b4;"/>
   </g>
   <g id="patch_29">
    <path clip-path="url(#p4ad93ed859)" d="M 102.345822 273.312 
L 103.968347 273.312 
L 103.968347 243.291772 
L 102.345822 243.291772 
z
" style="fill:#1f77b4;"/>
   </g>
   <g id="patch_30">
    <path clip-path="url(#p4ad93ed859)" d="M 103.968347 273.312 
L 105.590872 273.312 
L 105.590872 240.982524 
L 103.968347 240.982524 
z
" style="fill:#1f77b4;"/>
   </g>
   <g id="patch_31">
    <path clip-path="url(#p4ad93ed859)" d="M 105.590872 273.312 
L 107.213397 273.312 
L 107.213397 244.446396 
L 105.590872 244.446396 
z
" style="fill:#1f77b4;"/>
   </g>
   <g id="patch_32">
    <path clip-path="url(#p4ad93ed859)" d="M 107.213397 273.312 
L 108.835923 273.312 
L 108.835923 239.250588 
L 107.213397 239.250588 
z
" style="fill:#1f77b4;"/>
   </g>
   <g id="patch_33">
    <path clip-path="url(#p4ad93ed859)" d="M 108.835923 273.312 
L 110.458448 273.312 
L 110.458448 238.673276 
L 108.835923 238.673276 
z
" style="fill:#1f77b4;"/>
   </g>
   <g id="patch_34">
    <path clip-path="url(#p4ad93ed859)" d="M 110.458448 273.312 
L 112.080973 273.312 
L 112.080973 240.405212 
L 110.458448 240.405212 
z
" style="fill:#1f77b4;"/>
   </g>
   <g id="patch_35">
    <path clip-path="url(#p4ad93ed859)" d="M 112.080973 273.312 
L 113.703498 273.312 
L 113.703498 242.137148 
L 112.080973 242.137148 
z
" style="fill:#1f77b4;"/>
   </g>
   <g id="patch_36">
    <path clip-path="url(#p4ad93ed859)" d="M 113.703498 273.312 
L 115.326023 273.312 
L 115.326023 230.590907 
L 113.703498 230.590907 
z
" style="fill:#1f77b4;"/>
   </g>
   <g id="patch_37">
    <path clip-path="url(#p4ad93ed859)" d="M 115.326023 273.312 
L 116.948548 273.312 
L 116.948548 239.8279 
L 115.326023 239.8279 
z
" style="fill:#1f77b4;"/>
   </g>
   <g id="patch_38">
    <path clip-path="url(#p4ad93ed859)" d="M 116.948548 273.312 
L 118.571074 273.312 
L 118.571074 224.817786 
L 116.948548 224.817786 
z
" style="fill:#1f77b4;"/>
   </g>
   <g id="patch_39">
    <path clip-path="url(#p4ad93ed859)" d="M 118.571074 273.312 
L 120.193599 273.312 
L 120.193599 230.013595 
L 118.571074 230.013595 
z
" style="fill:#1f77b4;"/>
   </g>
   <g id="patch_40">
    <path clip-path="url(#p4ad93ed859)" d="M 120.193599 273.312 
L 121.816124 273.312 
L 121.816124 232.900155 
L 120.193599 232.900155 
z
" style="fill:#1f77b4;"/>
   </g>
   <g id="patch_41">
    <path clip-path="url(#p4ad93ed859)" d="M 121.816124 273.312 
L 123.438649 273.312 
L 123.438649 235.209403 
L 121.816124 235.209403 
z
" style="fill:#1f77b4;"/>
   </g>
   <g id="patch_42">
    <path clip-path="url(#p4ad93ed859)" d="M 123.438649 273.312 
L 125.061174 273.312 
L 125.061174 219.621977 
L 123.438649 219.621977 
z
" style="fill:#1f77b4;"/>
   </g>
   <g id="patch_43">
    <path clip-path="url(#p4ad93ed859)" d="M 125.061174 273.312 
L 126.683699 273.312 
L 126.683699 224.240474 
L 125.061174 224.240474 
z
" style="fill:#1f77b4;"/>
   </g>
   <g id="patch_44">
    <path clip-path="url(#p4ad93ed859)" d="M 126.683699 273.312 
L 128.306225 273.312 
L 128.306225 227.704346 
L 126.683699 227.704346 
z
" style="fill:#1f77b4;"/>
   </g>
   <g id="patch_45">
    <path clip-path="url(#p4ad93ed859)" d="M 128.306225 273.312 
L 129.92875 273.312 
L 129.92875 225.395098 
L 128.306225 225.395098 
z
" style="fill:#1f77b4;"/>
   </g>
   <g id="patch_46">
    <path clip-path="url(#p4ad93ed859)" d="M 129.92875 273.312 
L 131.551275 273.312 
L 131.551275 215.580793 
L 129.92875 215.580793 
z
" style="fill:#1f77b4;"/>
   </g>
   <g id="patch_47">
    <path clip-path="url(#p4ad93ed859)" d="M 131.551275 273.312 
L 133.1738 273.312 
L 133.1738 216.158105 
L 131.551275 216.158105 
z
" style="fill:#1f77b4;"/>
   </g>
   <g id="patch_48">
    <path clip-path="url(#p4ad93ed859)" d="M 133.1738 273.312 
L 134.796325 273.312 
L 134.796325 235.209403 
L 133.1738 235.209403 
z
" style="fill:#1f77b4;"/>
   </g>
   <g id="patch_49">
    <path clip-path="url(#p4ad93ed859)" d="M 134.796325 273.312 
L 136.41885 273.312 
L 136.41885 226.549722 
L 134.796325 226.549722 
z
" style="fill:#1f77b4;"/>
   </g>
   <g id="patch_50">
    <path clip-path="url(#p4ad93ed859)" d="M 136.41885 273.312 
L 138.041376 273.312 
L 138.041376 216.735417 
L 136.41885 216.735417 
z
" style="fill:#1f77b4;"/>
   </g>
   <g id="patch_51">
    <path clip-path="url(#p4ad93ed859)" d="M 138.041376 273.312 
L 139.663901 273.312 
L 139.663901 217.890041 
L 138.041376 217.890041 
z
" style="fill:#1f77b4;"/>
   </g>
   <g id="patch_52">
    <path clip-path="url(#p4ad93ed859)" d="M 139.663901 273.312 
L 141.286426 273.312 
L 141.286426 219.621977 
L 139.663901 219.621977 
z
" style="fill:#1f77b4;"/>
   </g>
   <g id="patch_53">
    <path clip-path="url(#p4ad93ed859)" d="M 141.286426 273.312 
L 142.908951 273.312 
L 142.908951 217.312729 
L 141.286426 217.312729 
z
" style="fill:#1f77b4;"/>
   </g>
   <g id="patch_54">
    <path clip-path="url(#p4ad93ed859)" d="M 142.908951 273.312 
L 144.531476 273.312 
L 144.531476 213.271544 
L 142.908951 213.271544 
z
" style="fill:#1f77b4;"/>
   </g>
   <g id="patch_55">
    <path clip-path="url(#p4ad93ed859)" d="M 144.531476 273.312 
L 146.154001 273.312 
L 146.154001 216.158105 
L 144.531476 216.158105 
z
" style="fill:#1f77b4;"/>
   </g>
   <g id="patch_56">
    <path clip-path="url(#p4ad93ed859)" d="M 146.154001 273.312 
L 147.776527 273.312 
L 147.776527 208.075736 
L 146.154001 208.075736 
z
" style="fill:#1f77b4;"/>
   </g>
   <g id="patch_57">
    <path clip-path="url(#p4ad93ed859)" d="M 147.776527 273.312 
L 149.399052 273.312 
L 149.399052 208.075736 
L 147.776527 208.075736 
z
" style="fill:#1f77b4;"/>
   </g>
   <g id="patch_58">
    <path clip-path="url(#p4ad93ed859)" d="M 149.399052 273.312 
L 151.021577 273.312 
L 151.021577 208.653048 
L 149.399052 208.653048 
z
" style="fill:#1f77b4;"/>
   </g>
   <g id="patch_59">
    <path clip-path="url(#p4ad93ed859)" d="M 151.021577 273.312 
L 152.644102 273.312 
L 152.644102 191.910998 
L 151.021577 191.910998 
z
" style="fill:#1f77b4;"/>
   </g>
   <g id="patch_60">
    <path clip-path="url(#p4ad93ed859)" d="M 152.644102 273.312 
L 154.266627 273.312 
L 154.266627 208.653048 
L 152.644102 208.653048 
z
" style="fill:#1f77b4;"/>
   </g>
   <g id="patch_61">
    <path clip-path="url(#p4ad93ed859)" d="M 154.266627 273.312 
L 155.889152 273.312 
L 155.889152 215.003481 
L 154.266627 215.003481 
z
" style="fill:#1f77b4;"/>
   </g>
   <g id="patch_62">
    <path clip-path="url(#p4ad93ed859)" d="M 155.889152 273.312 
L 157.511678 273.312 
L 157.511678 206.921112 
L 155.889152 206.921112 
z
" style="fill:#1f77b4;"/>
   </g>
   <g id="patch_63">
    <path clip-path="url(#p4ad93ed859)" d="M 157.511678 273.312 
L 159.134203 273.312 
L 159.134203 204.034551 
L 157.511678 204.034551 
z
" style="fill:#1f77b4;"/>
   </g>
   <g id="patch_64">
    <path clip-path="url(#p4ad93ed859)" d="M 159.134203 273.312 
L 160.756728 273.312 
L 160.756728 202.879927 
L 159.134203 202.879927 
z
" style="fill:#1f77b4;"/>
   </g>
   <g id="patch_65">
    <path clip-path="url(#p4ad93ed859)" d="M 160.756728 273.312 
L 162.379253 273.312 
L 162.379253 201.147991 
L 160.756728 201.147991 
z
" style="fill:#1f77b4;"/>
   </g>
   <g id="patch_66">
    <path clip-path="url(#p4ad93ed859)" d="M 162.379253 273.312 
L 164.001778 273.312 
L 164.001778 202.879927 
L 162.379253 202.879927 
z
" style="fill:#1f77b4;"/>
   </g>
   <g id="patch_67">
    <path clip-path="url(#p4ad93ed859)" d="M 164.001778 273.312 
L 165.624303 273.312 
L 165.624303 195.37487 
L 164.001778 195.37487 
z
" style="fill:#1f77b4;"/>
   </g>
   <g id="patch_68">
    <path clip-path="url(#p4ad93ed859)" d="M 165.624303 273.312 
L 167.246829 273.312 
L 167.246829 199.416055 
L 165.624303 199.416055 
z
" style="fill:#1f77b4;"/>
   </g>
   <g id="patch_69">
    <path clip-path="url(#p4ad93ed859)" d="M 167.246829 273.312 
L 168.869354 273.312 
L 168.869354 185.560565 
L 167.246829 185.560565 
z
" style="fill:#1f77b4;"/>
   </g>
   <g id="patch_70">
    <path clip-path="url(#p4ad93ed859)" d="M 168.869354 273.312 
L 170.491879 273.312 
L 170.491879 205.766487 
L 168.869354 205.766487 
z
" style="fill:#1f77b4;"/>
   </g>
   <g id="patch_71">
    <path clip-path="url(#p4ad93ed859)" d="M 170.491879 273.312 
L 172.114404 273.312 
L 172.114404 191.910998 
L 170.491879 191.910998 
z
" style="fill:#1f77b4;"/>
   </g>
   <g id="patch_72">
    <path clip-path="url(#p4ad93ed859)" d="M 172.114404 273.312 
L 173.736929 273.312 
L 173.736929 188.447125 
L 172.114404 188.447125 
z
" style="fill:#1f77b4;"/>
   </g>
   <g id="patch_73">
    <path clip-path="url(#p4ad93ed859)" d="M 173.736929 273.312 
L 175.359454 273.312 
L 175.359454 198.838743 
L 173.736929 198.838743 
z
" style="fill:#1f77b4;"/>
   </g>
   <g id="patch_74">
    <path clip-path="url(#p4ad93ed859)" d="M 175.359454 273.312 
L 176.98198 273.312 
L 176.98198 190.179062 
L 175.359454 190.179062 
z
" style="fill:#1f77b4;"/>
   </g>
   <g id="patch_75">
    <path clip-path="url(#p4ad93ed859)" d="M 176.98198 273.312 
L 178.604505 273.312 
L 178.604505 192.48831 
L 176.98198 192.48831 
z
" style="fill:#1f77b4;"/>
   </g>
   <g id="patch_76">
    <path clip-path="url(#p4ad93ed859)" d="M 178.604505 273.312 
L 180.22703 273.312 
L 180.22703 181.51938 
L 178.604505 181.51938 
z
" style="fill:#1f77b4;"/>
   </g>
   <g id="patch_77">
    <path clip-path="url(#p4ad93ed859)" d="M 180.22703 273.312 
L 181.849555 273.312 
L 181.849555 193.065622 
L 180.22703 193.065622 
z
" style="fill:#1f77b4;"/>
   </g>
   <g id="patch_78">
    <path clip-path="url(#p4ad93ed859)" d="M 181.849555 273.312 
L 183.47208 273.312 
L 183.47208 188.447125 
L 181.849555 188.447125 
z
" style="fill:#1f77b4;"/>
   </g>
   <g id="patch_79">
    <path clip-path="url(#p4ad93ed859)" d="M 183.47208 273.312 
L 185.094605 273.312 
L 185.094605 179.210132 
L 183.47208 179.210132 
z
" style="fill:#1f77b4;"/>
   </g>
   <g id="patch_80">
    <path clip-path="url(#p4ad93ed859)" d="M 185.094605 273.312 
L 186.71713 273.312 
L 186.71713 176.900884 
L 185.094605 176.900884 
z
" style="fill:#1f77b4;"/>
   </g>
   <g id="patch_81">
    <path clip-path="url(#p4ad93ed859)" d="M 186.71713 273.312 
L 188.339656 273.312 
L 188.339656 182.674005 
L 186.71713 182.674005 
z
" style="fill:#1f77b4;"/>
   </g>
   <g id="patch_82">
    <path clip-path="url(#p4ad93ed859)" d="M 188.339656 273.312 
L 189.962181 273.312 
L 189.962181 187.292501 
L 188.339656 187.292501 
z
" style="fill:#1f77b4;"/>
   </g>
   <g id="patch_83">
    <path clip-path="url(#p4ad93ed859)" d="M 189.962181 273.312 
L 191.584706 273.312 
L 191.584706 192.48831 
L 189.962181 192.48831 
z
" style="fill:#1f77b4;"/>
   </g>
   <g id="patch_84">
    <path clip-path="url(#p4ad93ed859)" d="M 191.584706 273.312 
L 193.207231 273.312 
L 193.207231 183.251317 
L 191.584706 183.251317 
z
" style="fill:#1f77b4;"/>
   </g>
   <g id="patch_85">
    <path clip-path="url(#p4ad93ed859)" d="M 193.207231 273.312 
L 194.829756 273.312 
L 194.829756 169.973139 
L 193.207231 169.973139 
z
" style="fill:#1f77b4;"/>
   </g>
   <g id="patch_86">
    <path clip-path="url(#p4ad93ed859)" d="M 194.829756 273.312 
L 196.452281 273.312 
L 196.452281 174.014323 
L 194.829756 174.014323 
z
" style="fill:#1f77b4;"/>
   </g>
   <g id="patch_87">
    <path clip-path="url(#p4ad93ed859)" d="M 196.452281 273.312 
L 198.074807 273.312 
L 198.074807 169.973139 
L 196.452281 169.973139 
z
" style="fill:#1f77b4;"/>
   </g>
   <g id="patch_88">
    <path clip-path="url(#p4ad93ed859)" d="M 198.074807 273.312 
L 199.697332 273.312 
L 199.697332 168.241203 
L 198.074807 168.241203 
z
" style="fill:#1f77b4;"/>
   </g>
   <g id="patch_89">
    <path clip-path="url(#p4ad93ed859)" d="M 199.697332 273.312 
L 201.319857 273.312 
L 201.319857 174.591636 
L 199.697332 174.591636 
z
" style="fill:#1f77b4;"/>
   </g>
   <g id="patch_90">
    <path clip-path="url(#p4ad93ed859)" d="M 201.319857 273.312 
L 202.942382 273.312 
L 202.942382 163.622706 
L 201.319857 163.622706 
z
" style="fill:#1f77b4;"/>
   </g>
   <g id="patch_91">
    <path clip-path="url(#p4ad93ed859)" d="M 202.942382 273.312 
L 204.564907 273.312 
L 204.564907 175.168948 
L 202.942382 175.168948 
z
" style="fill:#1f77b4;"/>
   </g>
   <g id="patch_92">
    <path clip-path="url(#p4ad93ed859)" d="M 204.564907 273.312 
L 206.187432 273.312 
L 206.187432 169.395827 
L 204.564907 169.395827 
z
" style="fill:#1f77b4;"/>
   </g>
   <g id="patch_93">
    <path clip-path="url(#p4ad93ed859)" d="M 206.187432 273.312 
L 207.809958 273.312 
L 207.809958 167.086579 
L 206.187432 167.086579 
z
" style="fill:#1f77b4;"/>
   </g>
   <g id="patch_94">
    <path clip-path="url(#p4ad93ed859)" d="M 207.809958 273.312 
L 209.432483 273.312 
L 209.432483 151.499153 
L 207.809958 151.499153 
z
" style="fill:#1f77b4;"/>
   </g>
   <g id="patch_95">
    <path clip-path="url(#p4ad93ed859)" d="M 209.432483 273.312 
L 211.055008 273.312 
L 211.055008 173.437011 
L 209.432483 173.437011 
z
" style="fill:#1f77b4;"/>
   </g>
   <g id="patch_96">
    <path clip-path="url(#p4ad93ed859)" d="M 211.055008 273.312 
L 212.677533 273.312 
L 212.677533 161.89077 
L 211.055008 161.89077 
z
" style="fill:#1f77b4;"/>
   </g>
   <g id="patch_97">
    <path clip-path="url(#p4ad93ed859)" d="M 212.677533 273.312 
L 214.300058 273.312 
L 214.300058 165.354642 
L 212.677533 165.354642 
z
" style="fill:#1f77b4;"/>
   </g>
   <g id="patch_98">
    <path clip-path="url(#p4ad93ed859)" d="M 214.300058 273.312 
L 215.922583 273.312 
L 215.922583 164.77733 
L 214.300058 164.77733 
z
" style="fill:#1f77b4;"/>
   </g>
   <g id="patch_99">
    <path clip-path="url(#p4ad93ed859)" d="M 215.922583 273.312 
L 217.545109 273.312 
L 217.545109 140.530223 
L 215.922583 140.530223 
z
" style="fill:#1f77b4;"/>
   </g>
   <g id="patch_100">
    <path clip-path="url(#p4ad93ed859)" d="M 217.545109 273.312 
L 219.167634 273.312 
L 219.167634 163.045394 
L 217.545109 163.045394 
z
" style="fill:#1f77b4;"/>
   </g>
   <g id="patch_101">
    <path clip-path="url(#p4ad93ed859)" d="M 219.167634 273.312 
L 220.790159 273.312 
L 220.790159 154.385713 
L 219.167634 154.385713 
z
" style="fill:#1f77b4;"/>
   </g>
   <g id="patch_102">
    <path clip-path="url(#p4ad93ed859)" d="M 220.790159 273.312 
L 222.412684 273.312 
L 222.412684 159.00421 
L 220.790159 159.00421 
z
" style="fill:#1f77b4;"/>
   </g>
   <g id="patch_103">
    <path clip-path="url(#p4ad93ed859)" d="M 222.412684 273.312 
L 224.035209 273.312 
L 224.035209 154.963025 
L 222.412684 154.963025 
z
" style="fill:#1f77b4;"/>
   </g>
   <g id="patch_104">
    <path clip-path="url(#p4ad93ed859)" d="M 224.035209 273.312 
L 225.657734 273.312 
L 225.657734 148.03528 
L 224.035209 148.03528 
z
" style="fill:#1f77b4;"/>
   </g>
   <g id="patch_105">
    <path clip-path="url(#p4ad93ed859)" d="M 225.657734 273.312 
L 227.28026 273.312 
L 227.28026 164.200018 
L 225.657734 164.200018 
z
" style="fill:#1f77b4;"/>
   </g>
   <g id="patch_106">
    <path clip-path="url(#p4ad93ed859)" d="M 227.28026 273.312 
L 228.902785 273.312 
L 228.902785 151.499153 
L 227.28026 151.499153 
z
" style="fill:#1f77b4;"/>
   </g>
   <g id="patch_107">
    <path clip-path="url(#p4ad93ed859)" d="M 228.902785 273.312 
L 230.52531 273.312 
L 230.52531 159.581522 
L 228.902785 159.581522 
z
" style="fill:#1f77b4;"/>
   </g>
   <g id="patch_108">
    <path clip-path="url(#p4ad93ed859)" d="M 230.52531 273.312 
L 232.147835 273.312 
L 232.147835 159.581522 
L 230.52531 159.581522 
z
" style="fill:#1f77b4;"/>
   </g>
   <g id="patch_109">
    <path clip-path="url(#p4ad93ed859)" d="M 232.147835 273.312 
L 233.77036 273.312 
L 233.77036 168.241203 
L 232.147835 168.241203 
z
" style="fill:#1f77b4;"/>
   </g>
   <g id="patch_110">
    <path clip-path="url(#p4ad93ed859)" d="M 233.77036 273.312 
L 235.392885 273.312 
L 235.392885 143.994096 
L 233.77036 143.994096 
z
" style="fill:#1f77b4;"/>
   </g>
   <g id="patch_111">
    <path clip-path="url(#p4ad93ed859)" d="M 235.392885 273.312 
L 237.015411 273.312 
L 237.015411 142.262159 
L 235.392885 142.262159 
z
" style="fill:#1f77b4;"/>
   </g>
   <g id="patch_112">
    <path clip-path="url(#p4ad93ed859)" d="M 237.015411 273.312 
L 238.637936 273.312 
L 238.637936 141.684847 
L 237.015411 141.684847 
z
" style="fill:#1f77b4;"/>
   </g>
   <g id="patch_113">
    <path clip-path="url(#p4ad93ed859)" d="M 238.637936 273.312 
L 240.260461 273.312 
L 240.260461 153.231089 
L 238.637936 153.231089 
z
" style="fill:#1f77b4;"/>
   </g>
   <g id="patch_114">
    <path clip-path="url(#p4ad93ed859)" d="M 240.260461 273.312 
L 241.882986 273.312 
L 241.882986 143.994096 
L 240.260461 143.994096 
z
" style="fill:#1f77b4;"/>
   </g>
   <g id="patch_115">
    <path clip-path="url(#p4ad93ed859)" d="M 241.882986 273.312 
L 243.505511 273.312 
L 243.505511 138.220975 
L 241.882986 138.220975 
z
" style="fill:#1f77b4;"/>
   </g>
   <g id="patch_116">
    <path clip-path="url(#p4ad93ed859)" d="M 243.505511 273.312 
L 245.128036 273.312 
L 245.128036 132.447854 
L 243.505511 132.447854 
z
" style="fill:#1f77b4;"/>
   </g>
   <g id="patch_117">
    <path clip-path="url(#p4ad93ed859)" d="M 245.128036 273.312 
L 246.750562 273.312 
L 246.750562 137.643663 
L 245.128036 137.643663 
z
" style="fill:#1f77b4;"/>
   </g>
   <g id="patch_118">
    <path clip-path="url(#p4ad93ed859)" d="M 246.750562 273.312 
L 248.373087 273.312 
L 248.373087 150.344528 
L 246.750562 150.344528 
z
" style="fill:#1f77b4;"/>
   </g>
   <g id="patch_119">
    <path clip-path="url(#p4ad93ed859)" d="M 248.373087 273.312 
L 249.995612 273.312 
L 249.995612 128.983982 
L 248.373087 128.983982 
z
" style="fill:#1f77b4;"/>
   </g>
   <g id="patch_120">
    <path clip-path="url(#p4ad93ed859)" d="M 249.995612 273.312 
L 251.618137 273.312 
L 251.618137 137.643663 
L 249.995612 137.643663 
z
" style="fill:#1f77b4;"/>
   </g>
   <g id="patch_121">
    <path clip-path="url(#p4ad93ed859)" d="M 251.618137 273.312 
L 253.240662 273.312 
L 253.240662 138.798287 
L 251.618137 138.798287 
z
" style="fill:#1f77b4;"/>
   </g>
   <g id="patch_122">
    <path clip-path="url(#p4ad93ed859)" d="M 253.240662 273.312 
L 254.863187 273.312 
L 254.863187 136.489039 
L 253.240662 136.489039 
z
" style="fill:#1f77b4;"/>
   </g>
   <g id="patch_123">
    <path clip-path="url(#p4ad93ed859)" d="M 254.863187 273.312 
L 256.485713 273.312 
L 256.485713 133.025166 
L 254.863187 133.025166 
z
" style="fill:#1f77b4;"/>
   </g>
   <g id="patch_124">
    <path clip-path="url(#p4ad93ed859)" d="M 256.485713 273.312 
L 258.108238 273.312 
L 258.108238 141.107535 
L 256.485713 141.107535 
z
" style="fill:#1f77b4;"/>
   </g>
   <g id="patch_125">
    <path clip-path="url(#p4ad93ed859)" d="M 258.108238 273.312 
L 259.730763 273.312 
L 259.730763 142.262159 
L 258.108238 142.262159 
z
" style="fill:#1f77b4;"/>
   </g>
   <g id="patch_126">
    <path clip-path="url(#p4ad93ed859)" d="M 259.730763 273.312 
L 261.353288 273.312 
L 261.353288 148.03528 
L 259.730763 148.03528 
z
" style="fill:#1f77b4;"/>
   </g>
   <g id="patch_127">
    <path clip-path="url(#p4ad93ed859)" d="M 261.353288 273.312 
L 262.975813 273.312 
L 262.975813 130.138606 
L 261.353288 130.138606 
z
" style="fill:#1f77b4;"/>
   </g>
   <g id="patch_128">
    <path clip-path="url(#p4ad93ed859)" d="M 262.975813 273.312 
L 264.598338 273.312 
L 264.598338 133.602478 
L 262.975813 133.602478 
z
" style="fill:#1f77b4;"/>
   </g>
   <g id="patch_129">
    <path clip-path="url(#p4ad93ed859)" d="M 264.598338 273.312 
L 266.220864 273.312 
L 266.220864 119.746989 
L 264.598338 119.746989 
z
" style="fill:#1f77b4;"/>
   </g>
   <g id="patch_130">
    <path clip-path="url(#p4ad93ed859)" d="M 266.220864 273.312 
L 267.843389 273.312 
L 267.843389 120.901613 
L 266.220864 120.901613 
z
" style="fill:#1f77b4;"/>
   </g>
   <g id="patch_131">
    <path clip-path="url(#p4ad93ed859)" d="M 267.843389 273.312 
L 269.465914 273.312 
L 269.465914 121.478925 
L 267.843389 121.478925 
z
" style="fill:#1f77b4;"/>
   </g>
   <g id="patch_132">
    <path clip-path="url(#p4ad93ed859)" d="M 269.465914 273.312 
L 271.088439 273.312 
L 271.088439 105.891499 
L 269.465914 105.891499 
z
" style="fill:#1f77b4;"/>
   </g>
   <g id="patch_133">
    <path clip-path="url(#p4ad93ed859)" d="M 271.088439 273.312 
L 272.710964 273.312 
L 272.710964 132.447854 
L 271.088439 132.447854 
z
" style="fill:#1f77b4;"/>
   </g>
   <g id="patch_134">
    <path clip-path="url(#p4ad93ed859)" d="M 272.710964 273.312 
L 274.333489 273.312 
L 274.333489 124.942797 
L 272.710964 124.942797 
z
" style="fill:#1f77b4;"/>
   </g>
   <g id="patch_135">
    <path clip-path="url(#p4ad93ed859)" d="M 274.333489 273.312 
L 275.956014 273.312 
L 275.956014 118.015052 
L 274.333489 118.015052 
z
" style="fill:#1f77b4;"/>
   </g>
   <g id="patch_136">
    <path clip-path="url(#p4ad93ed859)" d="M 275.956014 273.312 
L 277.57854 273.312 
L 277.57854 126.674733 
L 275.956014 126.674733 
z
" style="fill:#1f77b4;"/>
   </g>
   <g id="patch_137">
    <path clip-path="url(#p4ad93ed859)" d="M 277.57854 273.312 
L 279.201065 273.312 
L 279.201065 115.128492 
L 277.57854 115.128492 
z
" style="fill:#1f77b4;"/>
   </g>
   <g id="patch_138">
    <path clip-path="url(#p4ad93ed859)" d="M 279.201065 273.312 
L 280.82359 273.312 
L 280.82359 109.932683 
L 279.201065 109.932683 
z
" style="fill:#1f77b4;"/>
   </g>
   <g id="patch_139">
    <path clip-path="url(#p4ad93ed859)" d="M 280.82359 273.312 
L 282.446115 273.312 
L 282.446115 113.973868 
L 280.82359 113.973868 
z
" style="fill:#1f77b4;"/>
   </g>
   <g id="patch_140">
    <path clip-path="url(#p4ad93ed859)" d="M 282.446115 273.312 
L 284.06864 273.312 
L 284.06864 107.623435 
L 282.446115 107.623435 
z
" style="fill:#1f77b4;"/>
   </g>
   <g id="patch_141">
    <path clip-path="url(#p4ad93ed859)" d="M 284.06864 273.312 
L 285.691165 273.312 
L 285.691165 106.468811 
L 284.06864 106.468811 
z
" style="fill:#1f77b4;"/>
   </g>
   <g id="patch_142">
    <path clip-path="url(#p4ad93ed859)" d="M 285.691165 273.312 
L 287.313691 273.312 
L 287.313691 92.036009 
L 285.691165 92.036009 
z
" style="fill:#1f77b4;"/>
   </g>
   <g id="patch_143">
    <path clip-path="url(#p4ad93ed859)" d="M 287.313691 273.312 
L 288.936216 273.312 
L 288.936216 98.963754 
L 287.313691 98.963754 
z
" style="fill:#1f77b4;"/>
   </g>
   <g id="patch_144">
    <path clip-path="url(#p4ad93ed859)" d="M 288.936216 273.312 
L 290.558741 273.312 
L 290.558741 124.365485 
L 288.936216 124.365485 
z
" style="fill:#1f77b4;"/>
   </g>
   <g id="patch_145">
    <path clip-path="url(#p4ad93ed859)" d="M 290.558741 273.312 
L 292.181266 273.312 
L 292.181266 105.314187 
L 290.558741 105.314187 
z
" style="fill:#1f77b4;"/>
   </g>
   <g id="patch_146">
    <path clip-path="url(#p4ad93ed859)" d="M 292.181266 273.312 
L 293.803791 273.312 
L 293.803791 123.210861 
L 292.181266 123.210861 
z
" style="fill:#1f77b4;"/>
   </g>
   <g id="patch_147">
    <path clip-path="url(#p4ad93ed859)" d="M 293.803791 273.312 
L 295.426316 273.312 
L 295.426316 82.799016 
L 293.803791 82.799016 
z
" style="fill:#1f77b4;"/>
   </g>
   <g id="patch_148">
    <path clip-path="url(#p4ad93ed859)" d="M 295.426316 273.312 
L 297.048842 273.312 
L 297.048842 100.69569 
L 295.426316 100.69569 
z
" style="fill:#1f77b4;"/>
   </g>
   <g id="patch_149">
    <path clip-path="url(#p4ad93ed859)" d="M 297.048842 273.312 
L 298.671367 273.312 
L 298.671367 109.355371 
L 297.048842 109.355371 
z
" style="fill:#1f77b4;"/>
   </g>
   <g id="patch_150">
    <path clip-path="url(#p4ad93ed859)" d="M 298.671367 273.312 
L 300.293892 273.312 
L 300.293892 123.788173 
L 298.671367 123.788173 
z
" style="fill:#1f77b4;"/>
   </g>
   <g id="patch_151">
    <path clip-path="url(#p4ad93ed859)" d="M 300.293892 273.312 
L 301.916417 273.312 
L 301.916417 103.004938 
L 300.293892 103.004938 
z
" style="fill:#1f77b4;"/>
   </g>
   <g id="patch_152">
    <path clip-path="url(#p4ad93ed859)" d="M 301.916417 273.312 
L 303.538942 273.312 
L 303.538942 92.613321 
L 301.916417 92.613321 
z
" style="fill:#1f77b4;"/>
   </g>
   <g id="patch_153">
    <path clip-path="url(#p4ad93ed859)" d="M 303.538942 273.312 
L 305.161467 273.312 
L 305.161467 107.046123 
L 303.538942 107.046123 
z
" style="fill:#1f77b4;"/>
   </g>
   <g id="patch_154">
    <path clip-path="url(#p4ad93ed859)" d="M 305.161467 273.312 
L 306.783993 273.312 
L 306.783993 101.273002 
L 305.161467 101.273002 
z
" style="fill:#1f77b4;"/>
   </g>
   <g id="patch_155">
    <path clip-path="url(#p4ad93ed859)" d="M 306.783993 273.312 
L 308.406518 273.312 
L 308.406518 97.231818 
L 306.783993 97.231818 
z
" style="fill:#1f77b4;"/>
   </g>
   <g id="patch_156">
    <path clip-path="url(#p4ad93ed859)" d="M 308.406518 273.312 
L 310.029043 273.312 
L 310.029043 100.69569 
L 308.406518 100.69569 
z
" style="fill:#1f77b4;"/>
   </g>
   <g id="patch_157">
    <path clip-path="url(#p4ad93ed859)" d="M 310.029043 273.312 
L 311.651568 273.312 
L 311.651568 89.149449 
L 310.029043 89.149449 
z
" style="fill:#1f77b4;"/>
   </g>
   <g id="patch_158">
    <path clip-path="url(#p4ad93ed859)" d="M 311.651568 273.312 
L 313.274093 273.312 
L 313.274093 89.149449 
L 311.651568 89.149449 
z
" style="fill:#1f77b4;"/>
   </g>
   <g id="patch_159">
    <path clip-path="url(#p4ad93ed859)" d="M 313.274093 273.312 
L 314.896618 273.312 
L 314.896618 81.06708 
L 313.274093 81.06708 
z
" style="fill:#1f77b4;"/>
   </g>
   <g id="patch_160">
    <path clip-path="url(#p4ad93ed859)" d="M 314.896618 273.312 
L 316.519144 273.312 
L 316.519144 105.314187 
L 314.896618 105.314187 
z
" style="fill:#1f77b4;"/>
   </g>
   <g id="patch_161">
    <path clip-path="url(#p4ad93ed859)" d="M 316.519144 273.312 
L 318.141669 273.312 
L 318.141669 82.799016 
L 316.519144 82.799016 
z
" style="fill:#1f77b4;"/>
   </g>
   <g id="patch_162">
    <path clip-path="url(#p4ad93ed859)" d="M 318.141669 273.312 
L 319.764194 273.312 
L 319.764194 67.21159 
L 318.141669 67.21159 
z
" style="fill:#1f77b4;"/>
   </g>
   <g id="patch_163">
    <path clip-path="url(#p4ad93ed859)" d="M 319.764194 273.312 
L 321.386719 273.312 
L 321.386719 112.241932 
L 319.764194 112.241932 
z
" style="fill:#1f77b4;"/>
   </g>
   <g id="patch_164">
    <path clip-path="url(#p4ad93ed859)" d="M 321.386719 273.312 
L 323.009244 273.312 
L 323.009244 80.489768 
L 321.386719 80.489768 
z
" style="fill:#1f77b4;"/>
   </g>
   <g id="patch_165">
    <path clip-path="url(#p4ad93ed859)" d="M 323.009244 273.312 
L 324.631769 273.312 
L 324.631769 88.572137 
L 323.009244 88.572137 
z
" style="fill:#1f77b4;"/>
   </g>
   <g id="patch_166">
    <path clip-path="url(#p4ad93ed859)" d="M 324.631769 273.312 
L 326.254295 273.312 
L 326.254295 87.994825 
L 324.631769 87.994825 
z
" style="fill:#1f77b4;"/>
   </g>
   <g id="patch_167">
    <path clip-path="url(#p4ad93ed859)" d="M 326.254295 273.312 
L 327.87682 273.312 
L 327.87682 86.262888 
L 326.254295 86.262888 
z
" style="fill:#1f77b4;"/>
   </g>
   <g id="patch_168">
    <path clip-path="url(#p4ad93ed859)" d="M 327.87682 273.312 
L 329.499345 273.312 
L 329.499345 89.149449 
L 327.87682 89.149449 
z
" style="fill:#1f77b4;"/>
   </g>
   <g id="patch_169">
    <path clip-path="url(#p4ad93ed859)" d="M 329.499345 273.312 
L 331.12187 273.312 
L 331.12187 66.634278 
L 329.499345 66.634278 
z
" style="fill:#1f77b4;"/>
   </g>
   <g id="patch_170">
    <path clip-path="url(#p4ad93ed859)" d="M 331.12187 273.312 
L 332.744395 273.312 
L 332.744395 97.80913 
L 331.12187 97.80913 
z
" style="fill:#1f77b4;"/>
   </g>
   <g id="patch_171">
    <path clip-path="url(#p4ad93ed859)" d="M 332.744395 273.312 
L 334.36692 273.312 
L 334.36692 87.417513 
L 332.744395 87.417513 
z
" style="fill:#1f77b4;"/>
   </g>
   <g id="patch_172">
    <path clip-path="url(#p4ad93ed859)" d="M 334.36692 273.312 
L 335.989446 273.312 
L 335.989446 86.8402 
L 334.36692 86.8402 
z
" style="fill:#1f77b4;"/>
   </g>
   <g id="patch_173">
    <path clip-path="url(#p4ad93ed859)" d="M 335.989446 273.312 
L 337.611971 273.312 
L 337.611971 70.675462 
L 335.989446 70.675462 
z
" style="fill:#1f77b4;"/>
   </g>
   <g id="patch_174">
    <path clip-path="url(#p4ad93ed859)" d="M 337.611971 273.312 
L 339.234496 273.312 
L 339.234496 77.603207 
L 337.611971 77.603207 
z
" style="fill:#1f77b4;"/>
   </g>
   <g id="patch_175">
    <path clip-path="url(#p4ad93ed859)" d="M 339.234496 273.312 
L 340.857021 273.312 
L 340.857021 69.520838 
L 339.234496 69.520838 
z
" style="fill:#1f77b4;"/>
   </g>
   <g id="patch_176">
    <path clip-path="url(#p4ad93ed859)" d="M 340.857021 273.312 
L 342.479546 273.312 
L 342.479546 50.46954 
L 340.857021 50.46954 
z
" style="fill:#1f77b4;"/>
   </g>
   <g id="patch_177">
    <path clip-path="url(#p4ad93ed859)" d="M 342.479546 273.312 
L 344.102071 273.312 
L 344.102071 74.716647 
L 342.479546 74.716647 
z
" style="fill:#1f77b4;"/>
   </g>
   <g id="patch_178">
    <path clip-path="url(#p4ad93ed859)" d="M 344.102071 273.312 
L 345.724597 273.312 
L 345.724597 98.963754 
L 344.102071 98.963754 
z
" style="fill:#1f77b4;"/>
   </g>
   <g id="patch_179">
    <path clip-path="url(#p4ad93ed859)" d="M 345.724597 273.312 
L 347.347122 273.312 
L 347.347122 59.706533 
L 345.724597 59.706533 
z
" style="fill:#1f77b4;"/>
   </g>
   <g id="patch_180">
    <path clip-path="url(#p4ad93ed859)" d="M 347.347122 273.312 
L 348.969647 273.312 
L 348.969647 57.974597 
L 347.347122 57.974597 
z
" style="fill:#1f77b4;"/>
   </g>
   <g id="patch_181">
    <path clip-path="url(#p4ad93ed859)" d="M 348.969647 273.312 
L 350.592172 273.312 
L 350.592172 72.984711 
L 348.969647 72.984711 
z
" style="fill:#1f77b4;"/>
   </g>
   <g id="patch_182">
    <path clip-path="url(#p4ad93ed859)" d="M 350.592172 273.312 
L 352.214697 273.312 
L 352.214697 66.056966 
L 350.592172 66.056966 
z
" style="fill:#1f77b4;"/>
   </g>
   <g id="patch_183">
    <path clip-path="url(#p4ad93ed859)" d="M 352.214697 273.312 
L 353.837222 273.312 
L 353.837222 39.50061 
L 352.214697 39.50061 
z
" style="fill:#1f77b4;"/>
   </g>
   <g id="patch_184">
    <path clip-path="url(#p4ad93ed859)" d="M 353.837222 273.312 
L 355.459748 273.312 
L 355.459748 58.551909 
L 353.837222 58.551909 
z
" style="fill:#1f77b4;"/>
   </g>
   <g id="patch_185">
    <path clip-path="url(#p4ad93ed859)" d="M 355.459748 273.312 
L 357.082273 273.312 
L 357.082273 51.046852 
L 355.459748 51.046852 
z
" style="fill:#1f77b4;"/>
   </g>
   <g id="patch_186">
    <path clip-path="url(#p4ad93ed859)" d="M 357.082273 273.312 
L 358.704798 273.312 
L 358.704798 67.21159 
L 357.082273 67.21159 
z
" style="fill:#1f77b4;"/>
   </g>
   <g id="patch_187">
    <path clip-path="url(#p4ad93ed859)" d="M 358.704798 273.312 
L 360.327323 273.312 
L 360.327323 66.056966 
L 358.704798 66.056966 
z
" style="fill:#1f77b4;"/>
   </g>
   <g id="patch_188">
    <path clip-path="url(#p4ad93ed859)" d="M 360.327323 273.312 
L 361.949848 273.312 
L 361.949848 56.242661 
L 360.327323 56.242661 
z
" style="fill:#1f77b4;"/>
   </g>
   <g id="patch_189">
    <path clip-path="url(#p4ad93ed859)" d="M 361.949848 273.312 
L 363.572373 273.312 
L 363.572373 52.778788 
L 361.949848 52.778788 
z
" style="fill:#1f77b4;"/>
   </g>
   <g id="patch_190">
    <path clip-path="url(#p4ad93ed859)" d="M 363.572373 273.312 
L 365.194899 273.312 
L 365.194899 67.788902 
L 363.572373 67.788902 
z
" style="fill:#1f77b4;"/>
   </g>
   <g id="patch_191">
    <path clip-path="url(#p4ad93ed859)" d="M 365.194899 273.312 
L 366.817424 273.312 
L 366.817424 57.974597 
L 365.194899 57.974597 
z
" style="fill:#1f77b4;"/>
   </g>
   <g id="patch_192">
    <path clip-path="url(#p4ad93ed859)" d="M 366.817424 273.312 
L 368.439949 273.312 
L 368.439949 74.139335 
L 366.817424 74.139335 
z
" style="fill:#1f77b4;"/>
   </g>
   <g id="patch_193">
    <path clip-path="url(#p4ad93ed859)" d="M 368.439949 273.312 
L 370.062474 273.312 
L 370.062474 78.180519 
L 368.439949 78.180519 
z
" style="fill:#1f77b4;"/>
   </g>
   <g id="patch_194">
    <path clip-path="url(#p4ad93ed859)" d="M 370.062474 273.312 
L 371.684999 273.312 
L 371.684999 44.119107 
L 370.062474 44.119107 
z
" style="fill:#1f77b4;"/>
   </g>
   <g id="patch_195">
    <path clip-path="url(#p4ad93ed859)" d="M 371.684999 273.312 
L 373.307524 273.312 
L 373.307524 36.036738 
L 371.684999 36.036738 
z
" style="fill:#1f77b4;"/>
   </g>
   <g id="patch_196">
    <path clip-path="url(#p4ad93ed859)" d="M 373.307524 273.312 
L 374.930049 273.312 
L 374.930049 19.872 
L 373.307524 19.872 
z
" style="fill:#1f77b4;"/>
   </g>
   <g id="patch_197">
    <path clip-path="url(#p4ad93ed859)" d="M 374.930049 273.312 
L 376.552575 273.312 
L 376.552575 66.634278 
L 374.930049 66.634278 
z
" style="fill:#1f77b4;"/>
   </g>
   <g id="patch_198">
    <path clip-path="url(#p4ad93ed859)" d="M 376.552575 273.312 
L 378.1751 273.312 
L 378.1751 44.696419 
L 376.552575 44.696419 
z
" style="fill:#1f77b4;"/>
   </g>
   <g id="patch_199">
    <path clip-path="url(#p4ad93ed859)" d="M 378.1751 273.312 
L 379.797625 273.312 
L 379.797625 60.283845 
L 378.1751 60.283845 
z
" style="fill:#1f77b4;"/>
   </g>
   <g id="patch_200">
    <path clip-path="url(#p4ad93ed859)" d="M 379.797625 273.312 
L 381.42015 273.312 
L 381.42015 52.778788 
L 379.797625 52.778788 
z
" style="fill:#1f77b4;"/>
   </g>
   <g id="patch_201">
    <path clip-path="url(#p4ad93ed859)" d="M 381.42015 273.312 
L 383.042675 273.312 
L 383.042675 45.851043 
L 381.42015 45.851043 
z
" style="fill:#1f77b4;"/>
   </g>
   <g id="patch_202">
    <path clip-path="url(#p4ad93ed859)" d="M 383.042675 273.312 
L 384.6652 273.312 
L 384.6652 54.510724 
L 383.042675 54.510724 
z
" style="fill:#1f77b4;"/>
   </g>
   <g id="matplotlib.axis_1">
    <g id="xtick_1">
     <g id="line2d_1">
      <defs>
       <path d="M 0 0 
L 0 3.5 
" id="mcf1fe48bc7" style="stroke:#000000;stroke-width:0.8;"/>
      </defs>
      <g>
       <use style="stroke:#000000;stroke-width:0.8;" x="60.013977" xlink:href="#mcf1fe48bc7" y="273.312"/>
      </g>
     </g>
     <g id="text_1">
      <!-- 0.0 -->
      <g transform="translate(52.062415 287.910437)scale(0.1 -0.1)">
       <defs>
        <path d="M 2034 4250 
Q 1547 4250 1301 3770 
Q 1056 3291 1056 2328 
Q 1056 1369 1301 889 
Q 1547 409 2034 409 
Q 2525 409 2770 889 
Q 3016 1369 3016 2328 
Q 3016 3291 2770 3770 
Q 2525 4250 2034 4250 
z
M 2034 4750 
Q 2819 4750 3233 4129 
Q 3647 3509 3647 2328 
Q 3647 1150 3233 529 
Q 2819 -91 2034 -91 
Q 1250 -91 836 529 
Q 422 1150 422 2328 
Q 422 3509 836 4129 
Q 1250 4750 2034 4750 
z
" id="DejaVuSans-30" transform="scale(0.015625)"/>
        <path d="M 684 794 
L 1344 794 
L 1344 0 
L 684 0 
L 684 794 
z
" id="DejaVuSans-2e" transform="scale(0.015625)"/>
       </defs>
       <use xlink:href="#DejaVuSans-30"/>
       <use x="63.623047" xlink:href="#DejaVuSans-2e"/>
       <use x="95.410156" xlink:href="#DejaVuSans-30"/>
      </g>
     </g>
    </g>
    <g id="xtick_2">
     <g id="line2d_2">
      <g>
       <use style="stroke:#000000;stroke-width:0.8;" x="124.944886" xlink:href="#mcf1fe48bc7" y="273.312"/>
      </g>
     </g>
     <g id="text_2">
      <!-- 0.2 -->
      <g transform="translate(116.993324 287.910437)scale(0.1 -0.1)">
       <defs>
        <path d="M 1228 531 
L 3431 531 
L 3431 0 
L 469 0 
L 469 531 
Q 828 903 1448 1529 
Q 2069 2156 2228 2338 
Q 2531 2678 2651 2914 
Q 2772 3150 2772 3378 
Q 2772 3750 2511 3984 
Q 2250 4219 1831 4219 
Q 1534 4219 1204 4116 
Q 875 4013 500 3803 
L 500 4441 
Q 881 4594 1212 4672 
Q 1544 4750 1819 4750 
Q 2544 4750 2975 4387 
Q 3406 4025 3406 3419 
Q 3406 3131 3298 2873 
Q 3191 2616 2906 2266 
Q 2828 2175 2409 1742 
Q 1991 1309 1228 531 
z
" id="DejaVuSans-32" transform="scale(0.015625)"/>
       </defs>
       <use xlink:href="#DejaVuSans-30"/>
       <use x="63.623047" xlink:href="#DejaVuSans-2e"/>
       <use x="95.410156" xlink:href="#DejaVuSans-32"/>
      </g>
     </g>
    </g>
    <g id="xtick_3">
     <g id="line2d_3">
      <g>
       <use style="stroke:#000000;stroke-width:0.8;" x="189.875795" xlink:href="#mcf1fe48bc7" y="273.312"/>
      </g>
     </g>
     <g id="text_3">
      <!-- 0.4 -->
      <g transform="translate(181.924233 287.910437)scale(0.1 -0.1)">
       <defs>
        <path d="M 2419 4116 
L 825 1625 
L 2419 1625 
L 2419 4116 
z
M 2253 4666 
L 3047 4666 
L 3047 1625 
L 3713 1625 
L 3713 1100 
L 3047 1100 
L 3047 0 
L 2419 0 
L 2419 1100 
L 313 1100 
L 313 1709 
L 2253 4666 
z
" id="DejaVuSans-34" transform="scale(0.015625)"/>
       </defs>
       <use xlink:href="#DejaVuSans-30"/>
       <use x="63.623047" xlink:href="#DejaVuSans-2e"/>
       <use x="95.410156" xlink:href="#DejaVuSans-34"/>
      </g>
     </g>
    </g>
    <g id="xtick_4">
     <g id="line2d_4">
      <g>
       <use style="stroke:#000000;stroke-width:0.8;" x="254.806705" xlink:href="#mcf1fe48bc7" y="273.312"/>
      </g>
     </g>
     <g id="text_4">
      <!-- 0.6 -->
      <g transform="translate(246.855142 287.910437)scale(0.1 -0.1)">
       <defs>
        <path d="M 2113 2584 
Q 1688 2584 1439 2293 
Q 1191 2003 1191 1497 
Q 1191 994 1439 701 
Q 1688 409 2113 409 
Q 2538 409 2786 701 
Q 3034 994 3034 1497 
Q 3034 2003 2786 2293 
Q 2538 2584 2113 2584 
z
M 3366 4563 
L 3366 3988 
Q 3128 4100 2886 4159 
Q 2644 4219 2406 4219 
Q 1781 4219 1451 3797 
Q 1122 3375 1075 2522 
Q 1259 2794 1537 2939 
Q 1816 3084 2150 3084 
Q 2853 3084 3261 2657 
Q 3669 2231 3669 1497 
Q 3669 778 3244 343 
Q 2819 -91 2113 -91 
Q 1303 -91 875 529 
Q 447 1150 447 2328 
Q 447 3434 972 4092 
Q 1497 4750 2381 4750 
Q 2619 4750 2861 4703 
Q 3103 4656 3366 4563 
z
" id="DejaVuSans-36" transform="scale(0.015625)"/>
       </defs>
       <use xlink:href="#DejaVuSans-30"/>
       <use x="63.623047" xlink:href="#DejaVuSans-2e"/>
       <use x="95.410156" xlink:href="#DejaVuSans-36"/>
      </g>
     </g>
    </g>
    <g id="xtick_5">
     <g id="line2d_5">
      <g>
       <use style="stroke:#000000;stroke-width:0.8;" x="319.737614" xlink:href="#mcf1fe48bc7" y="273.312"/>
      </g>
     </g>
     <g id="text_5">
      <!-- 0.8 -->
      <g transform="translate(311.786051 287.910437)scale(0.1 -0.1)">
       <defs>
        <path d="M 2034 2216 
Q 1584 2216 1326 1975 
Q 1069 1734 1069 1313 
Q 1069 891 1326 650 
Q 1584 409 2034 409 
Q 2484 409 2743 651 
Q 3003 894 3003 1313 
Q 3003 1734 2745 1975 
Q 2488 2216 2034 2216 
z
M 1403 2484 
Q 997 2584 770 2862 
Q 544 3141 544 3541 
Q 544 4100 942 4425 
Q 1341 4750 2034 4750 
Q 2731 4750 3128 4425 
Q 3525 4100 3525 3541 
Q 3525 3141 3298 2862 
Q 3072 2584 2669 2484 
Q 3125 2378 3379 2068 
Q 3634 1759 3634 1313 
Q 3634 634 3220 271 
Q 2806 -91 2034 -91 
Q 1263 -91 848 271 
Q 434 634 434 1313 
Q 434 1759 690 2068 
Q 947 2378 1403 2484 
z
M 1172 3481 
Q 1172 3119 1398 2916 
Q 1625 2713 2034 2713 
Q 2441 2713 2670 2916 
Q 2900 3119 2900 3481 
Q 2900 3844 2670 4047 
Q 2441 4250 2034 4250 
Q 1625 4250 1398 4047 
Q 1172 3844 1172 3481 
z
" id="DejaVuSans-38" transform="scale(0.015625)"/>
       </defs>
       <use xlink:href="#DejaVuSans-30"/>
       <use x="63.623047" xlink:href="#DejaVuSans-2e"/>
       <use x="95.410156" xlink:href="#DejaVuSans-38"/>
      </g>
     </g>
    </g>
    <g id="xtick_6">
     <g id="line2d_6">
      <g>
       <use style="stroke:#000000;stroke-width:0.8;" x="384.668523" xlink:href="#mcf1fe48bc7" y="273.312"/>
      </g>
     </g>
     <g id="text_6">
      <!-- 1.0 -->
      <g transform="translate(376.71696 287.910437)scale(0.1 -0.1)">
       <defs>
        <path d="M 794 531 
L 1825 531 
L 1825 4091 
L 703 3866 
L 703 4441 
L 1819 4666 
L 2450 4666 
L 2450 531 
L 3481 531 
L 3481 0 
L 794 0 
L 794 531 
z
" id="DejaVuSans-31" transform="scale(0.015625)"/>
       </defs>
       <use xlink:href="#DejaVuSans-31"/>
       <use x="63.623047" xlink:href="#DejaVuSans-2e"/>
       <use x="95.410156" xlink:href="#DejaVuSans-30"/>
      </g>
     </g>
    </g>
    <g id="text_7">
     <!-- Propagation direction -->
     <g transform="translate(168.859219 301.588562)scale(0.1 -0.1)">
      <defs>
       <path d="M 1259 4147 
L 1259 2394 
L 2053 2394 
Q 2494 2394 2734 2622 
Q 2975 2850 2975 3272 
Q 2975 3691 2734 3919 
Q 2494 4147 2053 4147 
L 1259 4147 
z
M 628 4666 
L 2053 4666 
Q 2838 4666 3239 4311 
Q 3641 3956 3641 3272 
Q 3641 2581 3239 2228 
Q 2838 1875 2053 1875 
L 1259 1875 
L 1259 0 
L 628 0 
L 628 4666 
z
" id="DejaVuSans-50" transform="scale(0.015625)"/>
       <path d="M 2631 2963 
Q 2534 3019 2420 3045 
Q 2306 3072 2169 3072 
Q 1681 3072 1420 2755 
Q 1159 2438 1159 1844 
L 1159 0 
L 581 0 
L 581 3500 
L 1159 3500 
L 1159 2956 
Q 1341 3275 1631 3429 
Q 1922 3584 2338 3584 
Q 2397 3584 2469 3576 
Q 2541 3569 2628 3553 
L 2631 2963 
z
" id="DejaVuSans-72" transform="scale(0.015625)"/>
       <path d="M 1959 3097 
Q 1497 3097 1228 2736 
Q 959 2375 959 1747 
Q 959 1119 1226 758 
Q 1494 397 1959 397 
Q 2419 397 2687 759 
Q 2956 1122 2956 1747 
Q 2956 2369 2687 2733 
Q 2419 3097 1959 3097 
z
M 1959 3584 
Q 2709 3584 3137 3096 
Q 3566 2609 3566 1747 
Q 3566 888 3137 398 
Q 2709 -91 1959 -91 
Q 1206 -91 779 398 
Q 353 888 353 1747 
Q 353 2609 779 3096 
Q 1206 3584 1959 3584 
z
" id="DejaVuSans-6f" transform="scale(0.015625)"/>
       <path d="M 1159 525 
L 1159 -1331 
L 581 -1331 
L 581 3500 
L 1159 3500 
L 1159 2969 
Q 1341 3281 1617 3432 
Q 1894 3584 2278 3584 
Q 2916 3584 3314 3078 
Q 3713 2572 3713 1747 
Q 3713 922 3314 415 
Q 2916 -91 2278 -91 
Q 1894 -91 1617 61 
Q 1341 213 1159 525 
z
M 3116 1747 
Q 3116 2381 2855 2742 
Q 2594 3103 2138 3103 
Q 1681 3103 1420 2742 
Q 1159 2381 1159 1747 
Q 1159 1113 1420 752 
Q 1681 391 2138 391 
Q 2594 391 2855 752 
Q 3116 1113 3116 1747 
z
" id="DejaVuSans-70" transform="scale(0.015625)"/>
       <path d="M 2194 1759 
Q 1497 1759 1228 1600 
Q 959 1441 959 1056 
Q 959 750 1161 570 
Q 1363 391 1709 391 
Q 2188 391 2477 730 
Q 2766 1069 2766 1631 
L 2766 1759 
L 2194 1759 
z
M 3341 1997 
L 3341 0 
L 2766 0 
L 2766 531 
Q 2569 213 2275 61 
Q 1981 -91 1556 -91 
Q 1019 -91 701 211 
Q 384 513 384 1019 
Q 384 1609 779 1909 
Q 1175 2209 1959 2209 
L 2766 2209 
L 2766 2266 
Q 2766 2663 2505 2880 
Q 2244 3097 1772 3097 
Q 1472 3097 1187 3025 
Q 903 2953 641 2809 
L 641 3341 
Q 956 3463 1253 3523 
Q 1550 3584 1831 3584 
Q 2591 3584 2966 3190 
Q 3341 2797 3341 1997 
z
" id="DejaVuSans-61" transform="scale(0.015625)"/>
       <path d="M 2906 1791 
Q 2906 2416 2648 2759 
Q 2391 3103 1925 3103 
Q 1463 3103 1205 2759 
Q 947 2416 947 1791 
Q 947 1169 1205 825 
Q 1463 481 1925 481 
Q 2391 481 2648 825 
Q 2906 1169 2906 1791 
z
M 3481 434 
Q 3481 -459 3084 -895 
Q 2688 -1331 1869 -1331 
Q 1566 -1331 1297 -1286 
Q 1028 -1241 775 -1147 
L 775 -588 
Q 1028 -725 1275 -790 
Q 1522 -856 1778 -856 
Q 2344 -856 2625 -561 
Q 2906 -266 2906 331 
L 2906 616 
Q 2728 306 2450 153 
Q 2172 0 1784 0 
Q 1141 0 747 490 
Q 353 981 353 1791 
Q 353 2603 747 3093 
Q 1141 3584 1784 3584 
Q 2172 3584 2450 3431 
Q 2728 3278 2906 2969 
L 2906 3500 
L 3481 3500 
L 3481 434 
z
" id="DejaVuSans-67" transform="scale(0.015625)"/>
       <path d="M 1172 4494 
L 1172 3500 
L 2356 3500 
L 2356 3053 
L 1172 3053 
L 1172 1153 
Q 1172 725 1289 603 
Q 1406 481 1766 481 
L 2356 481 
L 2356 0 
L 1766 0 
Q 1100 0 847 248 
Q 594 497 594 1153 
L 594 3053 
L 172 3053 
L 172 3500 
L 594 3500 
L 594 4494 
L 1172 4494 
z
" id="DejaVuSans-74" transform="scale(0.015625)"/>
       <path d="M 603 3500 
L 1178 3500 
L 1178 0 
L 603 0 
L 603 3500 
z
M 603 4863 
L 1178 4863 
L 1178 4134 
L 603 4134 
L 603 4863 
z
" id="DejaVuSans-69" transform="scale(0.015625)"/>
       <path d="M 3513 2113 
L 3513 0 
L 2938 0 
L 2938 2094 
Q 2938 2591 2744 2837 
Q 2550 3084 2163 3084 
Q 1697 3084 1428 2787 
Q 1159 2491 1159 1978 
L 1159 0 
L 581 0 
L 581 3500 
L 1159 3500 
L 1159 2956 
Q 1366 3272 1645 3428 
Q 1925 3584 2291 3584 
Q 2894 3584 3203 3211 
Q 3513 2838 3513 2113 
z
" id="DejaVuSans-6e" transform="scale(0.015625)"/>
       <path id="DejaVuSans-20" transform="scale(0.015625)"/>
       <path d="M 2906 2969 
L 2906 4863 
L 3481 4863 
L 3481 0 
L 2906 0 
L 2906 525 
Q 2725 213 2448 61 
Q 2172 -91 1784 -91 
Q 1150 -91 751 415 
Q 353 922 353 1747 
Q 353 2572 751 3078 
Q 1150 3584 1784 3584 
Q 2172 3584 2448 3432 
Q 2725 3281 2906 2969 
z
M 947 1747 
Q 947 1113 1208 752 
Q 1469 391 1925 391 
Q 2381 391 2643 752 
Q 2906 1113 2906 1747 
Q 2906 2381 2643 2742 
Q 2381 3103 1925 3103 
Q 1469 3103 1208 2742 
Q 947 2381 947 1747 
z
" id="DejaVuSans-64" transform="scale(0.015625)"/>
       <path d="M 3597 1894 
L 3597 1613 
L 953 1613 
Q 991 1019 1311 708 
Q 1631 397 2203 397 
Q 2534 397 2845 478 
Q 3156 559 3463 722 
L 3463 178 
Q 3153 47 2828 -22 
Q 2503 -91 2169 -91 
Q 1331 -91 842 396 
Q 353 884 353 1716 
Q 353 2575 817 3079 
Q 1281 3584 2069 3584 
Q 2775 3584 3186 3129 
Q 3597 2675 3597 1894 
z
M 3022 2063 
Q 3016 2534 2758 2815 
Q 2500 3097 2075 3097 
Q 1594 3097 1305 2825 
Q 1016 2553 972 2059 
L 3022 2063 
z
" id="DejaVuSans-65" transform="scale(0.015625)"/>
       <path d="M 3122 3366 
L 3122 2828 
Q 2878 2963 2633 3030 
Q 2388 3097 2138 3097 
Q 1578 3097 1268 2742 
Q 959 2388 959 1747 
Q 959 1106 1268 751 
Q 1578 397 2138 397 
Q 2388 397 2633 464 
Q 2878 531 3122 666 
L 3122 134 
Q 2881 22 2623 -34 
Q 2366 -91 2075 -91 
Q 1284 -91 818 406 
Q 353 903 353 1747 
Q 353 2603 823 3093 
Q 1294 3584 2113 3584 
Q 2378 3584 2631 3529 
Q 2884 3475 3122 3366 
z
" id="DejaVuSans-63" transform="scale(0.015625)"/>
      </defs>
      <use xlink:href="#DejaVuSans-50"/>
      <use x="58.552734" xlink:href="#DejaVuSans-72"/>
      <use x="97.416016" xlink:href="#DejaVuSans-6f"/>
      <use x="158.597656" xlink:href="#DejaVuSans-70"/>
      <use x="222.074219" xlink:href="#DejaVuSans-61"/>
      <use x="283.353516" xlink:href="#DejaVuSans-67"/>
      <use x="346.830078" xlink:href="#DejaVuSans-61"/>
      <use x="408.109375" xlink:href="#DejaVuSans-74"/>
      <use x="447.318359" xlink:href="#DejaVuSans-69"/>
      <use x="475.101562" xlink:href="#DejaVuSans-6f"/>
      <use x="536.283203" xlink:href="#DejaVuSans-6e"/>
      <use x="599.662109" xlink:href="#DejaVuSans-20"/>
      <use x="631.449219" xlink:href="#DejaVuSans-64"/>
      <use x="694.925781" xlink:href="#DejaVuSans-69"/>
      <use x="722.708984" xlink:href="#DejaVuSans-72"/>
      <use x="761.572266" xlink:href="#DejaVuSans-65"/>
      <use x="823.095703" xlink:href="#DejaVuSans-63"/>
      <use x="878.076172" xlink:href="#DejaVuSans-74"/>
      <use x="917.285156" xlink:href="#DejaVuSans-69"/>
      <use x="945.068359" xlink:href="#DejaVuSans-6f"/>
      <use x="1006.25" xlink:href="#DejaVuSans-6e"/>
     </g>
    </g>
   </g>
   <g id="matplotlib.axis_2">
    <g id="ytick_1">
     <g id="line2d_7">
      <defs>
       <path d="M 0 0 
L -3.5 0 
" id="m08358f2b2f" style="stroke:#000000;stroke-width:0.8;"/>
      </defs>
      <g>
       <use style="stroke:#000000;stroke-width:0.8;" x="43.78125" xlink:href="#m08358f2b2f" y="273.312"/>
      </g>
     </g>
     <g id="text_8">
      <!-- 0.0 -->
      <g transform="translate(20.878125 277.111219)scale(0.1 -0.1)">
       <use xlink:href="#DejaVuSans-30"/>
       <use x="63.623047" xlink:href="#DejaVuSans-2e"/>
       <use x="95.410156" xlink:href="#DejaVuSans-30"/>
      </g>
     </g>
    </g>
    <g id="ytick_2">
     <g id="line2d_8">
      <g>
       <use style="stroke:#000000;stroke-width:0.8;" x="43.78125" xlink:href="#m08358f2b2f" y="215.60738"/>
      </g>
     </g>
     <g id="text_9">
      <!-- 0.5 -->
      <g transform="translate(20.878125 219.406598)scale(0.1 -0.1)">
       <defs>
        <path d="M 691 4666 
L 3169 4666 
L 3169 4134 
L 1269 4134 
L 1269 2991 
Q 1406 3038 1543 3061 
Q 1681 3084 1819 3084 
Q 2600 3084 3056 2656 
Q 3513 2228 3513 1497 
Q 3513 744 3044 326 
Q 2575 -91 1722 -91 
Q 1428 -91 1123 -41 
Q 819 9 494 109 
L 494 744 
Q 775 591 1075 516 
Q 1375 441 1709 441 
Q 2250 441 2565 725 
Q 2881 1009 2881 1497 
Q 2881 1984 2565 2268 
Q 2250 2553 1709 2553 
Q 1456 2553 1204 2497 
Q 953 2441 691 2322 
L 691 4666 
z
" id="DejaVuSans-35" transform="scale(0.015625)"/>
       </defs>
       <use xlink:href="#DejaVuSans-30"/>
       <use x="63.623047" xlink:href="#DejaVuSans-2e"/>
       <use x="95.410156" xlink:href="#DejaVuSans-35"/>
      </g>
     </g>
    </g>
    <g id="ytick_3">
     <g id="line2d_9">
      <g>
       <use style="stroke:#000000;stroke-width:0.8;" x="43.78125" xlink:href="#m08358f2b2f" y="157.902759"/>
      </g>
     </g>
     <g id="text_10">
      <!-- 1.0 -->
      <g transform="translate(20.878125 161.701978)scale(0.1 -0.1)">
       <use xlink:href="#DejaVuSans-31"/>
       <use x="63.623047" xlink:href="#DejaVuSans-2e"/>
       <use x="95.410156" xlink:href="#DejaVuSans-30"/>
      </g>
     </g>
    </g>
    <g id="ytick_4">
     <g id="line2d_10">
      <g>
       <use style="stroke:#000000;stroke-width:0.8;" x="43.78125" xlink:href="#m08358f2b2f" y="100.198139"/>
      </g>
     </g>
     <g id="text_11">
      <!-- 1.5 -->
      <g transform="translate(20.878125 103.997357)scale(0.1 -0.1)">
       <use xlink:href="#DejaVuSans-31"/>
       <use x="63.623047" xlink:href="#DejaVuSans-2e"/>
       <use x="95.410156" xlink:href="#DejaVuSans-35"/>
      </g>
     </g>
    </g>
    <g id="ytick_5">
     <g id="line2d_11">
      <g>
       <use style="stroke:#000000;stroke-width:0.8;" x="43.78125" xlink:href="#m08358f2b2f" y="42.493518"/>
      </g>
     </g>
     <g id="text_12">
      <!-- 2.0 -->
      <g transform="translate(20.878125 46.292737)scale(0.1 -0.1)">
       <use xlink:href="#DejaVuSans-32"/>
       <use x="63.623047" xlink:href="#DejaVuSans-2e"/>
       <use x="95.410156" xlink:href="#DejaVuSans-30"/>
      </g>
     </g>
    </g>
    <g id="text_13">
     <!-- Probability density -->
     <g transform="translate(14.798438 186.606781)rotate(-90)scale(0.1 -0.1)">
      <defs>
       <path d="M 3116 1747 
Q 3116 2381 2855 2742 
Q 2594 3103 2138 3103 
Q 1681 3103 1420 2742 
Q 1159 2381 1159 1747 
Q 1159 1113 1420 752 
Q 1681 391 2138 391 
Q 2594 391 2855 752 
Q 3116 1113 3116 1747 
z
M 1159 2969 
Q 1341 3281 1617 3432 
Q 1894 3584 2278 3584 
Q 2916 3584 3314 3078 
Q 3713 2572 3713 1747 
Q 3713 922 3314 415 
Q 2916 -91 2278 -91 
Q 1894 -91 1617 61 
Q 1341 213 1159 525 
L 1159 0 
L 581 0 
L 581 4863 
L 1159 4863 
L 1159 2969 
z
" id="DejaVuSans-62" transform="scale(0.015625)"/>
       <path d="M 603 4863 
L 1178 4863 
L 1178 0 
L 603 0 
L 603 4863 
z
" id="DejaVuSans-6c" transform="scale(0.015625)"/>
       <path d="M 2059 -325 
Q 1816 -950 1584 -1140 
Q 1353 -1331 966 -1331 
L 506 -1331 
L 506 -850 
L 844 -850 
Q 1081 -850 1212 -737 
Q 1344 -625 1503 -206 
L 1606 56 
L 191 3500 
L 800 3500 
L 1894 763 
L 2988 3500 
L 3597 3500 
L 2059 -325 
z
" id="DejaVuSans-79" transform="scale(0.015625)"/>
       <path d="M 2834 3397 
L 2834 2853 
Q 2591 2978 2328 3040 
Q 2066 3103 1784 3103 
Q 1356 3103 1142 2972 
Q 928 2841 928 2578 
Q 928 2378 1081 2264 
Q 1234 2150 1697 2047 
L 1894 2003 
Q 2506 1872 2764 1633 
Q 3022 1394 3022 966 
Q 3022 478 2636 193 
Q 2250 -91 1575 -91 
Q 1294 -91 989 -36 
Q 684 19 347 128 
L 347 722 
Q 666 556 975 473 
Q 1284 391 1588 391 
Q 1994 391 2212 530 
Q 2431 669 2431 922 
Q 2431 1156 2273 1281 
Q 2116 1406 1581 1522 
L 1381 1569 
Q 847 1681 609 1914 
Q 372 2147 372 2553 
Q 372 3047 722 3315 
Q 1072 3584 1716 3584 
Q 2034 3584 2315 3537 
Q 2597 3491 2834 3397 
z
" id="DejaVuSans-73" transform="scale(0.015625)"/>
      </defs>
      <use xlink:href="#DejaVuSans-50"/>
      <use x="58.552734" xlink:href="#DejaVuSans-72"/>
      <use x="97.416016" xlink:href="#DejaVuSans-6f"/>
      <use x="158.597656" xlink:href="#DejaVuSans-62"/>
      <use x="222.074219" xlink:href="#DejaVuSans-61"/>
      <use x="283.353516" xlink:href="#DejaVuSans-62"/>
      <use x="346.830078" xlink:href="#DejaVuSans-69"/>
      <use x="374.613281" xlink:href="#DejaVuSans-6c"/>
      <use x="402.396484" xlink:href="#DejaVuSans-69"/>
      <use x="430.179688" xlink:href="#DejaVuSans-74"/>
      <use x="469.388672" xlink:href="#DejaVuSans-79"/>
      <use x="528.568359" xlink:href="#DejaVuSans-20"/>
      <use x="560.355469" xlink:href="#DejaVuSans-64"/>
      <use x="623.832031" xlink:href="#DejaVuSans-65"/>
      <use x="685.355469" xlink:href="#DejaVuSans-6e"/>
      <use x="748.734375" xlink:href="#DejaVuSans-73"/>
      <use x="800.833984" xlink:href="#DejaVuSans-69"/>
      <use x="828.617188" xlink:href="#DejaVuSans-74"/>
      <use x="867.826172" xlink:href="#DejaVuSans-79"/>
     </g>
    </g>
   </g>
   <g id="line2d_12">
    <path clip-path="url(#p4ad93ed859)" d="M 60.013977 273.312 
L 384.668523 42.493518 
L 384.668523 42.493518 
" style="fill:none;stroke:#ff7f0e;stroke-linecap:square;stroke-width:1.5;"/>
   </g>
   <g id="patch_203">
    <path d="M 43.78125 273.312 
L 43.78125 7.2 
" style="fill:none;stroke:#000000;stroke-linecap:square;stroke-linejoin:miter;stroke-width:0.8;"/>
   </g>
   <g id="patch_204">
    <path d="M 400.90125 273.312 
L 400.90125 7.2 
" style="fill:none;stroke:#000000;stroke-linecap:square;stroke-linejoin:miter;stroke-width:0.8;"/>
   </g>
   <g id="patch_205">
    <path d="M 43.78125 273.312 
L 400.90125 273.312 
" style="fill:none;stroke:#000000;stroke-linecap:square;stroke-linejoin:miter;stroke-width:0.8;"/>
   </g>
   <g id="patch_206">
    <path d="M 43.78125 7.2 
L 400.90125 7.2 
" style="fill:none;stroke:#000000;stroke-linecap:square;stroke-linejoin:miter;stroke-width:0.8;"/>
   </g>
  </g>
 </g>
 <defs>
  <clipPath id="p4ad93ed859">
   <rect height="266.112" width="357.12" x="43.78125" y="7.2"/>
  </clipPath>
 </defs>
</svg>
