<?xml version="1.0" encoding="utf-8" standalone="no"?>
<!DOCTYPE svg PUBLIC "-//W3C//DTD SVG 1.1//EN"
  "http://www.w3.org/Graphics/SVG/1.1/DTD/svg11.dtd">
<svg height="310.86825pt" version="1.1" viewBox="0 0 408.10125 310.86825" width="408.10125pt" xmlns="http://www.w3.org/2000/svg" xmlns:xlink="http://www.w3.org/1999/xlink">
 <metadata>
  <rdf:RDF xmlns:cc="http://creativecommons.org/ns#" xmlns:dc="http://purl.org/dc/elements/1.1/" xmlns:rdf="http://www.w3.org/1999/02/22-rdf-syntax-ns#">
   <cc:Work>
    <dc:type rdf:resource="http://purl.org/dc/dcmitype/StillImage"/>
    <dc:date>2021-07-05T05:58:30.599061</dc:date>
    <dc:format>image/svg+xml</dc:format>
    <dc:creator>
     <cc:Agent>
      <dc:title>Matplotlib v3.4.2, https://matplotlib.org/</dc:title>
     </cc:Agent>
    </dc:creator>
   </cc:Work>
  </rdf:RDF>
 </metadata>
 <defs>
  <style type="text/css">*{stroke-linecap:butt;stroke-linejoin:round;}</style>
 </defs>
 <g id="figure_1">
  <g id="patch_1">
   <path d="M 0 310.86825 
L 408.10125 310.86825 
L 408.10125 0 
L 0 0 
z
" style="fill:#ffffff;"/>
  </g>
  <g id="axes_1">
   <g id="patch_2">
    <path d="M 43.78125 273.312 
L 400.90125 273.312 
L 400.90125 7.2 
L 43.78125 7.2 
z
" style="fill:#ffffff;"/>
   </g>
   <g id="patch_3">
    <path clip-path="url(#peda5e44d31)" d="M 60.81193 273.312 
L 62.431207 273.312 
L 62.431207 271.539692 
L 60.81193 271.539692 
z
" style="fill:#1f77b4;"/>
   </g>
   <g id="patch_4">
    <path clip-path="url(#peda5e44d31)" d="M 62.431207 273.312 
L 64.050485 273.312 
L 64.050485 271.539692 
L 62.431207 271.539692 
z
" style="fill:#1f77b4;"/>
   </g>
   <g id="patch_5">
    <path clip-path="url(#peda5e44d31)" d="M 64.050485 273.312 
L 65.669762 273.312 
L 65.669762 267.404308 
L 64.050485 267.404308 
z
" style="fill:#1f77b4;"/>
   </g>
   <g id="patch_6">
    <path clip-path="url(#peda5e44d31)" d="M 65.669762 273.312 
L 67.28904 273.312 
L 67.28904 265.632 
L 65.669762 265.632 
z
" style="fill:#1f77b4;"/>
   </g>
   <g id="patch_7">
    <path clip-path="url(#peda5e44d31)" d="M 67.28904 273.312 
L 68.908317 273.312 
L 68.908317 268.585846 
L 67.28904 268.585846 
z
" style="fill:#1f77b4;"/>
   </g>
   <g id="patch_8">
    <path clip-path="url(#peda5e44d31)" d="M 68.908317 273.312 
L 70.527595 273.312 
L 70.527595 266.813538 
L 68.908317 266.813538 
z
" style="fill:#1f77b4;"/>
   </g>
   <g id="patch_9">
    <path clip-path="url(#peda5e44d31)" d="M 70.527595 273.312 
L 72.146872 273.312 
L 72.146872 262.678154 
L 70.527595 262.678154 
z
" style="fill:#1f77b4;"/>
   </g>
   <g id="patch_10">
    <path clip-path="url(#peda5e44d31)" d="M 72.146872 273.312 
L 73.76615 273.312 
L 73.76615 262.678154 
L 72.146872 262.678154 
z
" style="fill:#1f77b4;"/>
   </g>
   <g id="patch_11">
    <path clip-path="url(#peda5e44d31)" d="M 73.76615 273.312 
L 75.385427 273.312 
L 75.385427 259.724308 
L 73.76615 259.724308 
z
" style="fill:#1f77b4;"/>
   </g>
   <g id="patch_12">
    <path clip-path="url(#peda5e44d31)" d="M 75.385427 273.312 
L 77.004705 273.312 
L 77.004705 260.905846 
L 75.385427 260.905846 
z
" style="fill:#1f77b4;"/>
   </g>
   <g id="patch_13">
    <path clip-path="url(#peda5e44d31)" d="M 77.004705 273.312 
L 78.623982 273.312 
L 78.623982 259.133538 
L 77.004705 259.133538 
z
" style="fill:#1f77b4;"/>
   </g>
   <g id="patch_14">
    <path clip-path="url(#peda5e44d31)" d="M 78.623982 273.312 
L 80.24326 273.312 
L 80.24326 258.542769 
L 78.623982 258.542769 
z
" style="fill:#1f77b4;"/>
   </g>
   <g id="patch_15">
    <path clip-path="url(#peda5e44d31)" d="M 80.24326 273.312 
L 81.862537 273.312 
L 81.862537 254.407385 
L 80.24326 254.407385 
z
" style="fill:#1f77b4;"/>
   </g>
   <g id="patch_16">
    <path clip-path="url(#peda5e44d31)" d="M 81.862537 273.312 
L 83.481815 273.312 
L 83.481815 260.905846 
L 81.862537 260.905846 
z
" style="fill:#1f77b4;"/>
   </g>
   <g id="patch_17">
    <path clip-path="url(#peda5e44d31)" d="M 83.481815 273.312 
L 85.101093 273.312 
L 85.101093 253.225846 
L 83.481815 253.225846 
z
" style="fill:#1f77b4;"/>
   </g>
   <g id="patch_18">
    <path clip-path="url(#peda5e44d31)" d="M 85.101093 273.312 
L 86.72037 273.312 
L 86.72037 253.816615 
L 85.101093 253.816615 
z
" style="fill:#1f77b4;"/>
   </g>
   <g id="patch_19">
    <path clip-path="url(#peda5e44d31)" d="M 86.72037 273.312 
L 88.339648 273.312 
L 88.339648 260.315077 
L 86.72037 260.315077 
z
" style="fill:#1f77b4;"/>
   </g>
   <g id="patch_20">
    <path clip-path="url(#peda5e44d31)" d="M 88.339648 273.312 
L 89.958925 273.312 
L 89.958925 251.453538 
L 88.339648 251.453538 
z
" style="fill:#1f77b4;"/>
   </g>
   <g id="patch_21">
    <path clip-path="url(#peda5e44d31)" d="M 89.958925 273.312 
L 91.578203 273.312 
L 91.578203 249.681231 
L 89.958925 249.681231 
z
" style="fill:#1f77b4;"/>
   </g>
   <g id="patch_22">
    <path clip-path="url(#peda5e44d31)" d="M 91.578203 273.312 
L 93.19748 273.312 
L 93.19748 251.453538 
L 91.578203 251.453538 
z
" style="fill:#1f77b4;"/>
   </g>
   <g id="patch_23">
    <path clip-path="url(#peda5e44d31)" d="M 93.19748 273.312 
L 94.816758 273.312 
L 94.816758 257.361231 
L 93.19748 257.361231 
z
" style="fill:#1f77b4;"/>
   </g>
   <g id="patch_24">
    <path clip-path="url(#peda5e44d31)" d="M 94.816758 273.312 
L 96.436035 273.312 
L 96.436035 249.090462 
L 94.816758 249.090462 
z
" style="fill:#1f77b4;"/>
   </g>
   <g id="patch_25">
    <path clip-path="url(#peda5e44d31)" d="M 96.436035 273.312 
L 98.055313 273.312 
L 98.055313 249.090462 
L 96.436035 249.090462 
z
" style="fill:#1f77b4;"/>
   </g>
   <g id="patch_26">
    <path clip-path="url(#peda5e44d31)" d="M 98.055313 273.312 
L 99.67459 273.312 
L 99.67459 243.773538 
L 98.055313 243.773538 
z
" style="fill:#1f77b4;"/>
   </g>
   <g id="patch_27">
    <path clip-path="url(#peda5e44d31)" d="M 99.67459 273.312 
L 101.293868 273.312 
L 101.293868 242.592 
L 99.67459 242.592 
z
" style="fill:#1f77b4;"/>
   </g>
   <g id="patch_28">
    <path clip-path="url(#peda5e44d31)" d="M 101.293868 273.312 
L 102.913145 273.312 
L 102.913145 243.182769 
L 101.293868 243.182769 
z
" style="fill:#1f77b4;"/>
   </g>
   <g id="patch_29">
    <path clip-path="url(#peda5e44d31)" d="M 102.913145 273.312 
L 104.532423 273.312 
L 104.532423 243.773538 
L 102.913145 243.773538 
z
" style="fill:#1f77b4;"/>
   </g>
   <g id="patch_30">
    <path clip-path="url(#peda5e44d31)" d="M 104.532423 273.312 
L 106.1517 273.312 
L 106.1517 237.865846 
L 104.532423 237.865846 
z
" style="fill:#1f77b4;"/>
   </g>
   <g id="patch_31">
    <path clip-path="url(#peda5e44d31)" d="M 106.1517 273.312 
L 107.770978 273.312 
L 107.770978 246.136615 
L 106.1517 246.136615 
z
" style="fill:#1f77b4;"/>
   </g>
   <g id="patch_32">
    <path clip-path="url(#peda5e44d31)" d="M 107.770978 273.312 
L 109.390255 273.312 
L 109.390255 237.865846 
L 107.770978 237.865846 
z
" style="fill:#1f77b4;"/>
   </g>
   <g id="patch_33">
    <path clip-path="url(#peda5e44d31)" d="M 109.390255 273.312 
L 111.009533 273.312 
L 111.009533 238.456615 
L 109.390255 238.456615 
z
" style="fill:#1f77b4;"/>
   </g>
   <g id="patch_34">
    <path clip-path="url(#peda5e44d31)" d="M 111.009533 273.312 
L 112.62881 273.312 
L 112.62881 234.321231 
L 111.009533 234.321231 
z
" style="fill:#1f77b4;"/>
   </g>
   <g id="patch_35">
    <path clip-path="url(#peda5e44d31)" d="M 112.62881 273.312 
L 114.248088 273.312 
L 114.248088 240.819692 
L 112.62881 240.819692 
z
" style="fill:#1f77b4;"/>
   </g>
   <g id="patch_36">
    <path clip-path="url(#peda5e44d31)" d="M 114.248088 273.312 
L 115.867365 273.312 
L 115.867365 227.232 
L 114.248088 227.232 
z
" style="fill:#1f77b4;"/>
   </g>
   <g id="patch_37">
    <path clip-path="url(#peda5e44d31)" d="M 115.867365 273.312 
L 117.486643 273.312 
L 117.486643 237.865846 
L 115.867365 237.865846 
z
" style="fill:#1f77b4;"/>
   </g>
   <g id="patch_38">
    <path clip-path="url(#peda5e44d31)" d="M 117.486643 273.312 
L 119.105921 273.312 
L 119.105921 234.321231 
L 117.486643 234.321231 
z
" style="fill:#1f77b4;"/>
   </g>
   <g id="patch_39">
    <path clip-path="url(#peda5e44d31)" d="M 119.105921 273.312 
L 120.725198 273.312 
L 120.725198 232.548923 
L 119.105921 232.548923 
z
" style="fill:#1f77b4;"/>
   </g>
   <g id="patch_40">
    <path clip-path="url(#peda5e44d31)" d="M 120.725198 273.312 
L 122.344476 273.312 
L 122.344476 211.281231 
L 120.725198 211.281231 
z
" style="fill:#1f77b4;"/>
   </g>
   <g id="patch_41">
    <path clip-path="url(#peda5e44d31)" d="M 122.344476 273.312 
L 123.963753 273.312 
L 123.963753 231.958154 
L 122.344476 231.958154 
z
" style="fill:#1f77b4;"/>
   </g>
   <g id="patch_42">
    <path clip-path="url(#peda5e44d31)" d="M 123.963753 273.312 
L 125.583031 273.312 
L 125.583031 228.413538 
L 123.963753 228.413538 
z
" style="fill:#1f77b4;"/>
   </g>
   <g id="patch_43">
    <path clip-path="url(#peda5e44d31)" d="M 125.583031 273.312 
L 127.202308 273.312 
L 127.202308 222.505846 
L 125.583031 222.505846 
z
" style="fill:#1f77b4;"/>
   </g>
   <g id="patch_44">
    <path clip-path="url(#peda5e44d31)" d="M 127.202308 273.312 
L 128.821586 273.312 
L 128.821586 217.779692 
L 127.202308 217.779692 
z
" style="fill:#1f77b4;"/>
   </g>
   <g id="patch_45">
    <path clip-path="url(#peda5e44d31)" d="M 128.821586 273.312 
L 130.440863 273.312 
L 130.440863 211.872 
L 128.821586 211.872 
z
" style="fill:#1f77b4;"/>
   </g>
   <g id="patch_46">
    <path clip-path="url(#peda5e44d31)" d="M 130.440863 273.312 
L 132.060141 273.312 
L 132.060141 224.868923 
L 130.440863 224.868923 
z
" style="fill:#1f77b4;"/>
   </g>
   <g id="patch_47">
    <path clip-path="url(#peda5e44d31)" d="M 132.060141 273.312 
L 133.679418 273.312 
L 133.679418 220.733538 
L 132.060141 220.733538 
z
" style="fill:#1f77b4;"/>
   </g>
   <g id="patch_48">
    <path clip-path="url(#peda5e44d31)" d="M 133.679418 273.312 
L 135.298696 273.312 
L 135.298696 210.690462 
L 133.679418 210.690462 
z
" style="fill:#1f77b4;"/>
   </g>
   <g id="patch_49">
    <path clip-path="url(#peda5e44d31)" d="M 135.298696 273.312 
L 136.917973 273.312 
L 136.917973 221.324308 
L 135.298696 221.324308 
z
" style="fill:#1f77b4;"/>
   </g>
   <g id="patch_50">
    <path clip-path="url(#peda5e44d31)" d="M 136.917973 273.312 
L 138.537251 273.312 
L 138.537251 215.416615 
L 136.917973 215.416615 
z
" style="fill:#1f77b4;"/>
   </g>
   <g id="patch_51">
    <path clip-path="url(#peda5e44d31)" d="M 138.537251 273.312 
L 140.156528 273.312 
L 140.156528 211.281231 
L 138.537251 211.281231 
z
" style="fill:#1f77b4;"/>
   </g>
   <g id="patch_52">
    <path clip-path="url(#peda5e44d31)" d="M 140.156528 273.312 
L 141.775806 273.312 
L 141.775806 210.690462 
L 140.156528 210.690462 
z
" style="fill:#1f77b4;"/>
   </g>
   <g id="patch_53">
    <path clip-path="url(#peda5e44d31)" d="M 141.775806 273.312 
L 143.395083 273.312 
L 143.395083 201.828923 
L 141.775806 201.828923 
z
" style="fill:#1f77b4;"/>
   </g>
   <g id="patch_54">
    <path clip-path="url(#peda5e44d31)" d="M 143.395083 273.312 
L 145.014361 273.312 
L 145.014361 212.462769 
L 143.395083 212.462769 
z
" style="fill:#1f77b4;"/>
   </g>
   <g id="patch_55">
    <path clip-path="url(#peda5e44d31)" d="M 145.014361 273.312 
L 146.633638 273.312 
L 146.633638 197.102769 
L 145.014361 197.102769 
z
" style="fill:#1f77b4;"/>
   </g>
   <g id="patch_56">
    <path clip-path="url(#peda5e44d31)" d="M 146.633638 273.312 
L 148.252916 273.312 
L 148.252916 218.370462 
L 146.633638 218.370462 
z
" style="fill:#1f77b4;"/>
   </g>
   <g id="patch_57">
    <path clip-path="url(#peda5e44d31)" d="M 148.252916 273.312 
L 149.872193 273.312 
L 149.872193 213.644308 
L 148.252916 213.644308 
z
" style="fill:#1f77b4;"/>
   </g>
   <g id="patch_58">
    <path clip-path="url(#peda5e44d31)" d="M 149.872193 273.312 
L 151.491471 273.312 
L 151.491471 210.099692 
L 149.872193 210.099692 
z
" style="fill:#1f77b4;"/>
   </g>
   <g id="patch_59">
    <path clip-path="url(#peda5e44d31)" d="M 151.491471 273.312 
L 153.110748 273.312 
L 153.110748 210.690462 
L 151.491471 210.690462 
z
" style="fill:#1f77b4;"/>
   </g>
   <g id="patch_60">
    <path clip-path="url(#peda5e44d31)" d="M 153.110748 273.312 
L 154.730026 273.312 
L 154.730026 203.601231 
L 153.110748 203.601231 
z
" style="fill:#1f77b4;"/>
   </g>
   <g id="patch_61">
    <path clip-path="url(#peda5e44d31)" d="M 154.730026 273.312 
L 156.349304 273.312 
L 156.349304 220.733538 
L 154.730026 220.733538 
z
" style="fill:#1f77b4;"/>
   </g>
   <g id="patch_62">
    <path clip-path="url(#peda5e44d31)" d="M 156.349304 273.312 
L 157.968581 273.312 
L 157.968581 204.192 
L 156.349304 204.192 
z
" style="fill:#1f77b4;"/>
   </g>
   <g id="patch_63">
    <path clip-path="url(#peda5e44d31)" d="M 157.968581 273.312 
L 159.587859 273.312 
L 159.587859 200.647385 
L 157.968581 200.647385 
z
" style="fill:#1f77b4;"/>
   </g>
   <g id="patch_64">
    <path clip-path="url(#peda5e44d31)" d="M 159.587859 273.312 
L 161.207136 273.312 
L 161.207136 195.921231 
L 159.587859 195.921231 
z
" style="fill:#1f77b4;"/>
   </g>
   <g id="patch_65">
    <path clip-path="url(#peda5e44d31)" d="M 161.207136 273.312 
L 162.826414 273.312 
L 162.826414 203.601231 
L 161.207136 203.601231 
z
" style="fill:#1f77b4;"/>
   </g>
   <g id="patch_66">
    <path clip-path="url(#peda5e44d31)" d="M 162.826414 273.312 
L 164.445691 273.312 
L 164.445691 204.192 
L 162.826414 204.192 
z
" style="fill:#1f77b4;"/>
   </g>
   <g id="patch_67">
    <path clip-path="url(#peda5e44d31)" d="M 164.445691 273.312 
L 166.064969 273.312 
L 166.064969 205.964308 
L 164.445691 205.964308 
z
" style="fill:#1f77b4;"/>
   </g>
   <g id="patch_68">
    <path clip-path="url(#peda5e44d31)" d="M 166.064969 273.312 
L 167.684246 273.312 
L 167.684246 188.241231 
L 166.064969 188.241231 
z
" style="fill:#1f77b4;"/>
   </g>
   <g id="patch_69">
    <path clip-path="url(#peda5e44d31)" d="M 167.684246 273.312 
L 169.303524 273.312 
L 169.303524 193.558154 
L 167.684246 193.558154 
z
" style="fill:#1f77b4;"/>
   </g>
   <g id="patch_70">
    <path clip-path="url(#peda5e44d31)" d="M 169.303524 273.312 
L 170.922801 273.312 
L 170.922801 179.970462 
L 169.303524 179.970462 
z
" style="fill:#1f77b4;"/>
   </g>
   <g id="patch_71">
    <path clip-path="url(#peda5e44d31)" d="M 170.922801 273.312 
L 172.542079 273.312 
L 172.542079 193.558154 
L 170.922801 193.558154 
z
" style="fill:#1f77b4;"/>
   </g>
   <g id="patch_72">
    <path clip-path="url(#peda5e44d31)" d="M 172.542079 273.312 
L 174.161356 273.312 
L 174.161356 186.468923 
L 172.542079 186.468923 
z
" style="fill:#1f77b4;"/>
   </g>
   <g id="patch_73">
    <path clip-path="url(#peda5e44d31)" d="M 174.161356 273.312 
L 175.780634 273.312 
L 175.780634 172.881231 
L 174.161356 172.881231 
z
" style="fill:#1f77b4;"/>
   </g>
   <g id="patch_74">
    <path clip-path="url(#peda5e44d31)" d="M 175.780634 273.312 
L 177.399911 273.312 
L 177.399911 186.468923 
L 175.780634 186.468923 
z
" style="fill:#1f77b4;"/>
   </g>
   <g id="patch_75">
    <path clip-path="url(#peda5e44d31)" d="M 177.399911 273.312 
L 179.019189 273.312 
L 179.019189 177.016615 
L 177.399911 177.016615 
z
" style="fill:#1f77b4;"/>
   </g>
   <g id="patch_76">
    <path clip-path="url(#peda5e44d31)" d="M 179.019189 273.312 
L 180.638466 273.312 
L 180.638466 194.739692 
L 179.019189 194.739692 
z
" style="fill:#1f77b4;"/>
   </g>
   <g id="patch_77">
    <path clip-path="url(#peda5e44d31)" d="M 180.638466 273.312 
L 182.257744 273.312 
L 182.257744 188.241231 
L 180.638466 188.241231 
z
" style="fill:#1f77b4;"/>
   </g>
   <g id="patch_78">
    <path clip-path="url(#peda5e44d31)" d="M 182.257744 273.312 
L 183.877021 273.312 
L 183.877021 183.515077 
L 182.257744 183.515077 
z
" style="fill:#1f77b4;"/>
   </g>
   <g id="patch_79">
    <path clip-path="url(#peda5e44d31)" d="M 183.877021 273.312 
L 185.496299 273.312 
L 185.496299 174.653538 
L 183.877021 174.653538 
z
" style="fill:#1f77b4;"/>
   </g>
   <g id="patch_80">
    <path clip-path="url(#peda5e44d31)" d="M 185.496299 273.312 
L 187.115576 273.312 
L 187.115576 181.152 
L 185.496299 181.152 
z
" style="fill:#1f77b4;"/>
   </g>
   <g id="patch_81">
    <path clip-path="url(#peda5e44d31)" d="M 187.115576 273.312 
L 188.734854 273.312 
L 188.734854 184.105846 
L 187.115576 184.105846 
z
" style="fill:#1f77b4;"/>
   </g>
   <g id="patch_82">
    <path clip-path="url(#peda5e44d31)" d="M 188.734854 273.312 
L 190.354132 273.312 
L 190.354132 188.241231 
L 188.734854 188.241231 
z
" style="fill:#1f77b4;"/>
   </g>
   <g id="patch_83">
    <path clip-path="url(#peda5e44d31)" d="M 190.354132 273.312 
L 191.973409 273.312 
L 191.973409 177.607385 
L 190.354132 177.607385 
z
" style="fill:#1f77b4;"/>
   </g>
   <g id="patch_84">
    <path clip-path="url(#peda5e44d31)" d="M 191.973409 273.312 
L 193.592687 273.312 
L 193.592687 183.515077 
L 191.973409 183.515077 
z
" style="fill:#1f77b4;"/>
   </g>
   <g id="patch_85">
    <path clip-path="url(#peda5e44d31)" d="M 193.592687 273.312 
L 195.211964 273.312 
L 195.211964 177.016615 
L 193.592687 177.016615 
z
" style="fill:#1f77b4;"/>
   </g>
   <g id="patch_86">
    <path clip-path="url(#peda5e44d31)" d="M 195.211964 273.312 
L 196.831242 273.312 
L 196.831242 166.382769 
L 195.211964 166.382769 
z
" style="fill:#1f77b4;"/>
   </g>
   <g id="patch_87">
    <path clip-path="url(#peda5e44d31)" d="M 196.831242 273.312 
L 198.450519 273.312 
L 198.450519 173.472 
L 196.831242 173.472 
z
" style="fill:#1f77b4;"/>
   </g>
   <g id="patch_88">
    <path clip-path="url(#peda5e44d31)" d="M 198.450519 273.312 
L 200.069797 273.312 
L 200.069797 172.290462 
L 198.450519 172.290462 
z
" style="fill:#1f77b4;"/>
   </g>
   <g id="patch_89">
    <path clip-path="url(#peda5e44d31)" d="M 200.069797 273.312 
L 201.689074 273.312 
L 201.689074 181.742769 
L 200.069797 181.742769 
z
" style="fill:#1f77b4;"/>
   </g>
   <g id="patch_90">
    <path clip-path="url(#peda5e44d31)" d="M 201.689074 273.312 
L 203.308352 273.312 
L 203.308352 171.699692 
L 201.689074 171.699692 
z
" style="fill:#1f77b4;"/>
   </g>
   <g id="patch_91">
    <path clip-path="url(#peda5e44d31)" d="M 203.308352 273.312 
L 204.927629 273.312 
L 204.927629 157.521231 
L 203.308352 157.521231 
z
" style="fill:#1f77b4;"/>
   </g>
   <g id="patch_92">
    <path clip-path="url(#peda5e44d31)" d="M 204.927629 273.312 
L 206.546907 273.312 
L 206.546907 174.062769 
L 204.927629 174.062769 
z
" style="fill:#1f77b4;"/>
   </g>
   <g id="patch_93">
    <path clip-path="url(#peda5e44d31)" d="M 206.546907 273.312 
L 208.166184 273.312 
L 208.166184 164.610462 
L 206.546907 164.610462 
z
" style="fill:#1f77b4;"/>
   </g>
   <g id="patch_94">
    <path clip-path="url(#peda5e44d31)" d="M 208.166184 273.312 
L 209.785462 273.312 
L 209.785462 170.518154 
L 208.166184 170.518154 
z
" style="fill:#1f77b4;"/>
   </g>
   <g id="patch_95">
    <path clip-path="url(#peda5e44d31)" d="M 209.785462 273.312 
L 211.404739 273.312 
L 211.404739 172.290462 
L 209.785462 172.290462 
z
" style="fill:#1f77b4;"/>
   </g>
   <g id="patch_96">
    <path clip-path="url(#peda5e44d31)" d="M 211.404739 273.312 
L 213.024017 273.312 
L 213.024017 161.065846 
L 211.404739 161.065846 
z
" style="fill:#1f77b4;"/>
   </g>
   <g id="patch_97">
    <path clip-path="url(#peda5e44d31)" d="M 213.024017 273.312 
L 214.643294 273.312 
L 214.643294 170.518154 
L 213.024017 170.518154 
z
" style="fill:#1f77b4;"/>
   </g>
   <g id="patch_98">
    <path clip-path="url(#peda5e44d31)" d="M 214.643294 273.312 
L 216.262572 273.312 
L 216.262572 143.342769 
L 214.643294 143.342769 
z
" style="fill:#1f77b4;"/>
   </g>
   <g id="patch_99">
    <path clip-path="url(#peda5e44d31)" d="M 216.262572 273.312 
L 217.881849 273.312 
L 217.881849 161.656615 
L 216.262572 161.656615 
z
" style="fill:#1f77b4;"/>
   </g>
   <g id="patch_100">
    <path clip-path="url(#peda5e44d31)" d="M 217.881849 273.312 
L 219.501127 273.312 
L 219.501127 162.247385 
L 217.881849 162.247385 
z
" style="fill:#1f77b4;"/>
   </g>
   <g id="patch_101">
    <path clip-path="url(#peda5e44d31)" d="M 219.501127 273.312 
L 221.120404 273.312 
L 221.120404 147.478154 
L 219.501127 147.478154 
z
" style="fill:#1f77b4;"/>
   </g>
   <g id="patch_102">
    <path clip-path="url(#peda5e44d31)" d="M 221.120404 273.312 
L 222.739682 273.312 
L 222.739682 156.930462 
L 221.120404 156.930462 
z
" style="fill:#1f77b4;"/>
   </g>
   <g id="patch_103">
    <path clip-path="url(#peda5e44d31)" d="M 222.739682 273.312 
L 224.35896 273.312 
L 224.35896 143.933538 
L 222.739682 143.933538 
z
" style="fill:#1f77b4;"/>
   </g>
   <g id="patch_104">
    <path clip-path="url(#peda5e44d31)" d="M 224.35896 273.312 
L 225.978237 273.312 
L 225.978237 162.838154 
L 224.35896 162.838154 
z
" style="fill:#1f77b4;"/>
   </g>
   <g id="patch_105">
    <path clip-path="url(#peda5e44d31)" d="M 225.978237 273.312 
L 227.597515 273.312 
L 227.597515 163.428923 
L 225.978237 163.428923 
z
" style="fill:#1f77b4;"/>
   </g>
   <g id="patch_106">
    <path clip-path="url(#peda5e44d31)" d="M 227.597515 273.312 
L 229.216792 273.312 
L 229.216792 149.841231 
L 227.597515 149.841231 
z
" style="fill:#1f77b4;"/>
   </g>
   <g id="patch_107">
    <path clip-path="url(#peda5e44d31)" d="M 229.216792 273.312 
L 230.83607 273.312 
L 230.83607 152.204308 
L 229.216792 152.204308 
z
" style="fill:#1f77b4;"/>
   </g>
   <g id="patch_108">
    <path clip-path="url(#peda5e44d31)" d="M 230.83607 273.312 
L 232.455347 273.312 
L 232.455347 141.570462 
L 230.83607 141.570462 
z
" style="fill:#1f77b4;"/>
   </g>
   <g id="patch_109">
    <path clip-path="url(#peda5e44d31)" d="M 232.455347 273.312 
L 234.074625 273.312 
L 234.074625 146.296615 
L 232.455347 146.296615 
z
" style="fill:#1f77b4;"/>
   </g>
   <g id="patch_110">
    <path clip-path="url(#peda5e44d31)" d="M 234.074625 273.312 
L 235.693902 273.312 
L 235.693902 157.521231 
L 234.074625 157.521231 
z
" style="fill:#1f77b4;"/>
   </g>
   <g id="patch_111">
    <path clip-path="url(#peda5e44d31)" d="M 235.693902 273.312 
L 237.31318 273.312 
L 237.31318 143.342769 
L 235.693902 143.342769 
z
" style="fill:#1f77b4;"/>
   </g>
   <g id="patch_112">
    <path clip-path="url(#peda5e44d31)" d="M 237.31318 273.312 
L 238.932457 273.312 
L 238.932457 139.798154 
L 237.31318 139.798154 
z
" style="fill:#1f77b4;"/>
   </g>
   <g id="patch_113">
    <path clip-path="url(#peda5e44d31)" d="M 238.932457 273.312 
L 240.551735 273.312 
L 240.551735 120.302769 
L 238.932457 120.302769 
z
" style="fill:#1f77b4;"/>
   </g>
   <g id="patch_114">
    <path clip-path="url(#peda5e44d31)" d="M 240.551735 273.312 
L 242.171012 273.312 
L 242.171012 138.616615 
L 240.551735 138.616615 
z
" style="fill:#1f77b4;"/>
   </g>
   <g id="patch_115">
    <path clip-path="url(#peda5e44d31)" d="M 242.171012 273.312 
L 243.79029 273.312 
L 243.79029 132.708923 
L 242.171012 132.708923 
z
" style="fill:#1f77b4;"/>
   </g>
   <g id="patch_116">
    <path clip-path="url(#peda5e44d31)" d="M 243.79029 273.312 
L 245.409567 273.312 
L 245.409567 157.521231 
L 243.79029 157.521231 
z
" style="fill:#1f77b4;"/>
   </g>
   <g id="patch_117">
    <path clip-path="url(#peda5e44d31)" d="M 245.409567 273.312 
L 247.028845 273.312 
L 247.028845 139.207385 
L 245.409567 139.207385 
z
" style="fill:#1f77b4;"/>
   </g>
   <g id="patch_118">
    <path clip-path="url(#peda5e44d31)" d="M 247.028845 273.312 
L 248.648122 273.312 
L 248.648122 142.161231 
L 247.028845 142.161231 
z
" style="fill:#1f77b4;"/>
   </g>
   <g id="patch_119">
    <path clip-path="url(#peda5e44d31)" d="M 248.648122 273.312 
L 250.2674 273.312 
L 250.2674 138.616615 
L 248.648122 138.616615 
z
" style="fill:#1f77b4;"/>
   </g>
   <g id="patch_120">
    <path clip-path="url(#peda5e44d31)" d="M 250.2674 273.312 
L 251.886677 273.312 
L 251.886677 132.118154 
L 250.2674 132.118154 
z
" style="fill:#1f77b4;"/>
   </g>
   <g id="patch_121">
    <path clip-path="url(#peda5e44d31)" d="M 251.886677 273.312 
L 253.505955 273.312 
L 253.505955 138.616615 
L 251.886677 138.616615 
z
" style="fill:#1f77b4;"/>
   </g>
   <g id="patch_122">
    <path clip-path="url(#peda5e44d31)" d="M 253.505955 273.312 
L 255.125232 273.312 
L 255.125232 130.936615 
L 253.505955 130.936615 
z
" style="fill:#1f77b4;"/>
   </g>
   <g id="patch_123">
    <path clip-path="url(#peda5e44d31)" d="M 255.125232 273.312 
L 256.74451 273.312 
L 256.74451 134.481231 
L 255.125232 134.481231 
z
" style="fill:#1f77b4;"/>
   </g>
   <g id="patch_124">
    <path clip-path="url(#peda5e44d31)" d="M 256.74451 273.312 
L 258.363787 273.312 
L 258.363787 132.118154 
L 256.74451 132.118154 
z
" style="fill:#1f77b4;"/>
   </g>
   <g id="patch_125">
    <path clip-path="url(#peda5e44d31)" d="M 258.363787 273.312 
L 259.983065 273.312 
L 259.983065 122.075077 
L 258.363787 122.075077 
z
" style="fill:#1f77b4;"/>
   </g>
   <g id="patch_126">
    <path clip-path="url(#peda5e44d31)" d="M 259.983065 273.312 
L 261.602343 273.312 
L 261.602343 131.527385 
L 259.983065 131.527385 
z
" style="fill:#1f77b4;"/>
   </g>
   <g id="patch_127">
    <path clip-path="url(#peda5e44d31)" d="M 261.602343 273.312 
L 263.22162 273.312 
L 263.22162 109.668923 
L 261.602343 109.668923 
z
" style="fill:#1f77b4;"/>
   </g>
   <g id="patch_128">
    <path clip-path="url(#peda5e44d31)" d="M 263.22162 273.312 
L 264.840898 273.312 
L 264.840898 115.576615 
L 263.22162 115.576615 
z
" style="fill:#1f77b4;"/>
   </g>
   <g id="patch_129">
    <path clip-path="url(#peda5e44d31)" d="M 264.840898 273.312 
L 266.460175 273.312 
L 266.460175 117.348923 
L 264.840898 117.348923 
z
" style="fill:#1f77b4;"/>
   </g>
   <g id="patch_130">
    <path clip-path="url(#peda5e44d31)" d="M 266.460175 273.312 
L 268.079453 273.312 
L 268.079453 131.527385 
L 266.460175 131.527385 
z
" style="fill:#1f77b4;"/>
   </g>
   <g id="patch_131">
    <path clip-path="url(#peda5e44d31)" d="M 268.079453 273.312 
L 269.69873 273.312 
L 269.69873 120.893538 
L 268.079453 120.893538 
z
" style="fill:#1f77b4;"/>
   </g>
   <g id="patch_132">
    <path clip-path="url(#peda5e44d31)" d="M 269.69873 273.312 
L 271.318008 273.312 
L 271.318008 116.167385 
L 269.69873 116.167385 
z
" style="fill:#1f77b4;"/>
   </g>
   <g id="patch_133">
    <path clip-path="url(#peda5e44d31)" d="M 271.318008 273.312 
L 272.937285 273.312 
L 272.937285 119.121231 
L 271.318008 119.121231 
z
" style="fill:#1f77b4;"/>
   </g>
   <g id="patch_134">
    <path clip-path="url(#peda5e44d31)" d="M 272.937285 273.312 
L 274.556563 273.312 
L 274.556563 112.622769 
L 272.937285 112.622769 
z
" style="fill:#1f77b4;"/>
   </g>
   <g id="patch_135">
    <path clip-path="url(#peda5e44d31)" d="M 274.556563 273.312 
L 276.17584 273.312 
L 276.17584 122.075077 
L 274.556563 122.075077 
z
" style="fill:#1f77b4;"/>
   </g>
   <g id="patch_136">
    <path clip-path="url(#peda5e44d31)" d="M 276.17584 273.312 
L 277.795118 273.312 
L 277.795118 118.530462 
L 276.17584 118.530462 
z
" style="fill:#1f77b4;"/>
   </g>
   <g id="patch_137">
    <path clip-path="url(#peda5e44d31)" d="M 277.795118 273.312 
L 279.414395 273.312 
L 279.414395 115.576615 
L 277.795118 115.576615 
z
" style="fill:#1f77b4;"/>
   </g>
   <g id="patch_138">
    <path clip-path="url(#peda5e44d31)" d="M 279.414395 273.312 
L 281.033673 273.312 
L 281.033673 116.758154 
L 279.414395 116.758154 
z
" style="fill:#1f77b4;"/>
   </g>
   <g id="patch_139">
    <path clip-path="url(#peda5e44d31)" d="M 281.033673 273.312 
L 282.65295 273.312 
L 282.65295 112.032 
L 281.033673 112.032 
z
" style="fill:#1f77b4;"/>
   </g>
   <g id="patch_140">
    <path clip-path="url(#peda5e44d31)" d="M 282.65295 273.312 
L 284.272228 273.312 
L 284.272228 112.622769 
L 282.65295 112.622769 
z
" style="fill:#1f77b4;"/>
   </g>
   <g id="patch_141">
    <path clip-path="url(#peda5e44d31)" d="M 284.272228 273.312 
L 285.891505 273.312 
L 285.891505 89.582769 
L 284.272228 89.582769 
z
" style="fill:#1f77b4;"/>
   </g>
   <g id="patch_142">
    <path clip-path="url(#peda5e44d31)" d="M 285.891505 273.312 
L 287.510783 273.312 
L 287.510783 104.942769 
L 285.891505 104.942769 
z
" style="fill:#1f77b4;"/>
   </g>
   <g id="patch_143">
    <path clip-path="url(#peda5e44d31)" d="M 287.510783 273.312 
L 289.13006 273.312 
L 289.13006 124.438154 
L 287.510783 124.438154 
z
" style="fill:#1f77b4;"/>
   </g>
   <g id="patch_144">
    <path clip-path="url(#peda5e44d31)" d="M 289.13006 273.312 
L 290.749338 273.312 
L 290.749338 124.438154 
L 289.13006 124.438154 
z
" style="fill:#1f77b4;"/>
   </g>
   <g id="patch_145">
    <path clip-path="url(#peda5e44d31)" d="M 290.749338 273.312 
L 292.368615 273.312 
L 292.368615 101.988923 
L 290.749338 101.988923 
z
" style="fill:#1f77b4;"/>
   </g>
   <g id="patch_146">
    <path clip-path="url(#peda5e44d31)" d="M 292.368615 273.312 
L 293.987893 273.312 
L 293.987893 94.899692 
L 292.368615 94.899692 
z
" style="fill:#1f77b4;"/>
   </g>
   <g id="patch_147">
    <path clip-path="url(#peda5e44d31)" d="M 293.987893 273.312 
L 295.607171 273.312 
L 295.607171 113.804308 
L 293.987893 113.804308 
z
" style="fill:#1f77b4;"/>
   </g>
   <g id="patch_148">
    <path clip-path="url(#peda5e44d31)" d="M 295.607171 273.312 
L 297.226448 273.312 
L 297.226448 100.216615 
L 295.607171 100.216615 
z
" style="fill:#1f77b4;"/>
   </g>
   <g id="patch_149">
    <path clip-path="url(#peda5e44d31)" d="M 297.226448 273.312 
L 298.845726 273.312 
L 298.845726 89.582769 
L 297.226448 89.582769 
z
" style="fill:#1f77b4;"/>
   </g>
   <g id="patch_150">
    <path clip-path="url(#peda5e44d31)" d="M 298.845726 273.312 
L 300.465003 273.312 
L 300.465003 107.305846 
L 298.845726 107.305846 
z
" style="fill:#1f77b4;"/>
   </g>
   <g id="patch_151">
    <path clip-path="url(#peda5e44d31)" d="M 300.465003 273.312 
L 302.084281 273.312 
L 302.084281 76.585846 
L 300.465003 76.585846 
z
" style="fill:#1f77b4;"/>
   </g>
   <g id="patch_152">
    <path clip-path="url(#peda5e44d31)" d="M 302.084281 273.312 
L 303.703558 273.312 
L 303.703558 89.582769 
L 302.084281 89.582769 
z
" style="fill:#1f77b4;"/>
   </g>
   <g id="patch_153">
    <path clip-path="url(#peda5e44d31)" d="M 303.703558 273.312 
L 305.322836 273.312 
L 305.322836 100.807385 
L 303.703558 100.807385 
z
" style="fill:#1f77b4;"/>
   </g>
   <g id="patch_154">
    <path clip-path="url(#peda5e44d31)" d="M 305.322836 273.312 
L 306.942113 273.312 
L 306.942113 106.124308 
L 305.322836 106.124308 
z
" style="fill:#1f77b4;"/>
   </g>
   <g id="patch_155">
    <path clip-path="url(#peda5e44d31)" d="M 306.942113 273.312 
L 308.561391 273.312 
L 308.561391 110.259692 
L 306.942113 110.259692 
z
" style="fill:#1f77b4;"/>
   </g>
   <g id="patch_156">
    <path clip-path="url(#peda5e44d31)" d="M 308.561391 273.312 
L 310.180668 273.312 
L 310.180668 101.398154 
L 308.561391 101.398154 
z
" style="fill:#1f77b4;"/>
   </g>
   <g id="patch_157">
    <path clip-path="url(#peda5e44d31)" d="M 310.180668 273.312 
L 311.799946 273.312 
L 311.799946 87.219692 
L 310.180668 87.219692 
z
" style="fill:#1f77b4;"/>
   </g>
   <g id="patch_158">
    <path clip-path="url(#peda5e44d31)" d="M 311.799946 273.312 
L 313.419223 273.312 
L 313.419223 105.533538 
L 311.799946 105.533538 
z
" style="fill:#1f77b4;"/>
   </g>
   <g id="patch_159">
    <path clip-path="url(#peda5e44d31)" d="M 313.419223 273.312 
L 315.038501 273.312 
L 315.038501 75.404308 
L 313.419223 75.404308 
z
" style="fill:#1f77b4;"/>
   </g>
   <g id="patch_160">
    <path clip-path="url(#peda5e44d31)" d="M 315.038501 273.312 
L 316.657778 273.312 
L 316.657778 86.628923 
L 315.038501 86.628923 
z
" style="fill:#1f77b4;"/>
   </g>
   <g id="patch_161">
    <path clip-path="url(#peda5e44d31)" d="M 316.657778 273.312 
L 318.277056 273.312 
L 318.277056 96.672 
L 316.657778 96.672 
z
" style="fill:#1f77b4;"/>
   </g>
   <g id="patch_162">
    <path clip-path="url(#peda5e44d31)" d="M 318.277056 273.312 
L 319.896333 273.312 
L 319.896333 82.493538 
L 318.277056 82.493538 
z
" style="fill:#1f77b4;"/>
   </g>
   <g id="patch_163">
    <path clip-path="url(#peda5e44d31)" d="M 319.896333 273.312 
L 321.515611 273.312 
L 321.515611 62.998154 
L 319.896333 62.998154 
z
" style="fill:#1f77b4;"/>
   </g>
   <g id="patch_164">
    <path clip-path="url(#peda5e44d31)" d="M 321.515611 273.312 
L 323.134888 273.312 
L 323.134888 100.216615 
L 321.515611 100.216615 
z
" style="fill:#1f77b4;"/>
   </g>
   <g id="patch_165">
    <path clip-path="url(#peda5e44d31)" d="M 323.134888 273.312 
L 324.754166 273.312 
L 324.754166 62.998154 
L 323.134888 62.998154 
z
" style="fill:#1f77b4;"/>
   </g>
   <g id="patch_166">
    <path clip-path="url(#peda5e44d31)" d="M 324.754166 273.312 
L 326.373443 273.312 
L 326.373443 76.585846 
L 324.754166 76.585846 
z
" style="fill:#1f77b4;"/>
   </g>
   <g id="patch_167">
    <path clip-path="url(#peda5e44d31)" d="M 326.373443 273.312 
L 327.992721 273.312 
L 327.992721 67.724308 
L 326.373443 67.724308 
z
" style="fill:#1f77b4;"/>
   </g>
   <g id="patch_168">
    <path clip-path="url(#peda5e44d31)" d="M 327.992721 273.312 
L 329.611999 273.312 
L 329.611999 68.315077 
L 327.992721 68.315077 
z
" style="fill:#1f77b4;"/>
   </g>
   <g id="patch_169">
    <path clip-path="url(#peda5e44d31)" d="M 329.611999 273.312 
L 331.231276 273.312 
L 331.231276 84.265846 
L 329.611999 84.265846 
z
" style="fill:#1f77b4;"/>
   </g>
   <g id="patch_170">
    <path clip-path="url(#peda5e44d31)" d="M 331.231276 273.312 
L 332.850554 273.312 
L 332.850554 73.041231 
L 331.231276 73.041231 
z
" style="fill:#1f77b4;"/>
   </g>
   <g id="patch_171">
    <path clip-path="url(#peda5e44d31)" d="M 332.850554 273.312 
L 334.469831 273.312 
L 334.469831 85.447385 
L 332.850554 85.447385 
z
" style="fill:#1f77b4;"/>
   </g>
   <g id="patch_172">
    <path clip-path="url(#peda5e44d31)" d="M 334.469831 273.312 
L 336.089109 273.312 
L 336.089109 59.453538 
L 334.469831 59.453538 
z
" style="fill:#1f77b4;"/>
   </g>
   <g id="patch_173">
    <path clip-path="url(#peda5e44d31)" d="M 336.089109 273.312 
L 337.708386 273.312 
L 337.708386 68.315077 
L 336.089109 68.315077 
z
" style="fill:#1f77b4;"/>
   </g>
   <g id="patch_174">
    <path clip-path="url(#peda5e44d31)" d="M 337.708386 273.312 
L 339.327664 273.312 
L 339.327664 78.948923 
L 337.708386 78.948923 
z
" style="fill:#1f77b4;"/>
   </g>
   <g id="patch_175">
    <path clip-path="url(#peda5e44d31)" d="M 339.327664 273.312 
L 340.946941 273.312 
L 340.946941 95.490462 
L 339.327664 95.490462 
z
" style="fill:#1f77b4;"/>
   </g>
   <g id="patch_176">
    <path clip-path="url(#peda5e44d31)" d="M 340.946941 273.312 
L 342.566219 273.312 
L 342.566219 57.681231 
L 340.946941 57.681231 
z
" style="fill:#1f77b4;"/>
   </g>
   <g id="patch_177">
    <path clip-path="url(#peda5e44d31)" d="M 342.566219 273.312 
L 344.185496 273.312 
L 344.185496 68.315077 
L 342.566219 68.315077 
z
" style="fill:#1f77b4;"/>
   </g>
   <g id="patch_178">
    <path clip-path="url(#peda5e44d31)" d="M 344.185496 273.312 
L 345.804774 273.312 
L 345.804774 60.044308 
L 344.185496 60.044308 
z
" style="fill:#1f77b4;"/>
   </g>
   <g id="patch_179">
    <path clip-path="url(#peda5e44d31)" d="M 345.804774 273.312 
L 347.424051 273.312 
L 347.424051 74.222769 
L 345.804774 74.222769 
z
" style="fill:#1f77b4;"/>
   </g>
   <g id="patch_180">
    <path clip-path="url(#peda5e44d31)" d="M 347.424051 273.312 
L 349.043329 273.312 
L 349.043329 62.998154 
L 347.424051 62.998154 
z
" style="fill:#1f77b4;"/>
   </g>
   <g id="patch_181">
    <path clip-path="url(#peda5e44d31)" d="M 349.043329 273.312 
L 350.662606 273.312 
L 350.662606 70.678154 
L 349.043329 70.678154 
z
" style="fill:#1f77b4;"/>
   </g>
   <g id="patch_182">
    <path clip-path="url(#peda5e44d31)" d="M 350.662606 273.312 
L 352.281884 273.312 
L 352.281884 77.767385 
L 350.662606 77.767385 
z
" style="fill:#1f77b4;"/>
   </g>
   <g id="patch_183">
    <path clip-path="url(#peda5e44d31)" d="M 352.281884 273.312 
L 353.901161 273.312 
L 353.901161 58.862769 
L 352.281884 58.862769 
z
" style="fill:#1f77b4;"/>
   </g>
   <g id="patch_184">
    <path clip-path="url(#peda5e44d31)" d="M 353.901161 273.312 
L 355.520439 273.312 
L 355.520439 54.136615 
L 353.901161 54.136615 
z
" style="fill:#1f77b4;"/>
   </g>
   <g id="patch_185">
    <path clip-path="url(#peda5e44d31)" d="M 355.520439 273.312 
L 357.139716 273.312 
L 357.139716 54.136615 
L 355.520439 54.136615 
z
" style="fill:#1f77b4;"/>
   </g>
   <g id="patch_186">
    <path clip-path="url(#peda5e44d31)" d="M 357.139716 273.312 
L 358.758994 273.312 
L 358.758994 48.228923 
L 357.139716 48.228923 
z
" style="fill:#1f77b4;"/>
   </g>
   <g id="patch_187">
    <path clip-path="url(#peda5e44d31)" d="M 358.758994 273.312 
L 360.378271 273.312 
L 360.378271 35.232 
L 358.758994 35.232 
z
" style="fill:#1f77b4;"/>
   </g>
   <g id="patch_188">
    <path clip-path="url(#peda5e44d31)" d="M 360.378271 273.312 
L 361.997549 273.312 
L 361.997549 67.724308 
L 360.378271 67.724308 
z
" style="fill:#1f77b4;"/>
   </g>
   <g id="patch_189">
    <path clip-path="url(#peda5e44d31)" d="M 361.997549 273.312 
L 363.616826 273.312 
L 363.616826 47.638154 
L 361.997549 47.638154 
z
" style="fill:#1f77b4;"/>
   </g>
   <g id="patch_190">
    <path clip-path="url(#peda5e44d31)" d="M 363.616826 273.312 
L 365.236104 273.312 
L 365.236104 66.542769 
L 363.616826 66.542769 
z
" style="fill:#1f77b4;"/>
   </g>
   <g id="patch_191">
    <path clip-path="url(#peda5e44d31)" d="M 365.236104 273.312 
L 366.855382 273.312 
L 366.855382 70.087385 
L 365.236104 70.087385 
z
" style="fill:#1f77b4;"/>
   </g>
   <g id="patch_192">
    <path clip-path="url(#peda5e44d31)" d="M 366.855382 273.312 
L 368.474659 273.312 
L 368.474659 71.268923 
L 366.855382 71.268923 
z
" style="fill:#1f77b4;"/>
   </g>
   <g id="patch_193">
    <path clip-path="url(#peda5e44d31)" d="M 368.474659 273.312 
L 370.093937 273.312 
L 370.093937 52.364308 
L 368.474659 52.364308 
z
" style="fill:#1f77b4;"/>
   </g>
   <g id="patch_194">
    <path clip-path="url(#peda5e44d31)" d="M 370.093937 273.312 
L 371.713214 273.312 
L 371.713214 42.321231 
L 370.093937 42.321231 
z
" style="fill:#1f77b4;"/>
   </g>
   <g id="patch_195">
    <path clip-path="url(#peda5e44d31)" d="M 371.713214 273.312 
L 373.332492 273.312 
L 373.332492 39.958154 
L 371.713214 39.958154 
z
" style="fill:#1f77b4;"/>
   </g>
   <g id="patch_196">
    <path clip-path="url(#peda5e44d31)" d="M 373.332492 273.312 
L 374.951769 273.312 
L 374.951769 65.361231 
L 373.332492 65.361231 
z
" style="fill:#1f77b4;"/>
   </g>
   <g id="patch_197">
    <path clip-path="url(#peda5e44d31)" d="M 374.951769 273.312 
L 376.571047 273.312 
L 376.571047 33.459692 
L 374.951769 33.459692 
z
" style="fill:#1f77b4;"/>
   </g>
   <g id="patch_198">
    <path clip-path="url(#peda5e44d31)" d="M 376.571047 273.312 
L 378.190324 273.312 
L 378.190324 38.185846 
L 376.571047 38.185846 
z
" style="fill:#1f77b4;"/>
   </g>
   <g id="patch_199">
    <path clip-path="url(#peda5e44d31)" d="M 378.190324 273.312 
L 379.809602 273.312 
L 379.809602 19.872 
L 378.190324 19.872 
z
" style="fill:#1f77b4;"/>
   </g>
   <g id="patch_200">
    <path clip-path="url(#peda5e44d31)" d="M 379.809602 273.312 
L 381.428879 273.312 
L 381.428879 29.915077 
L 379.809602 29.915077 
z
" style="fill:#1f77b4;"/>
   </g>
   <g id="patch_201">
    <path clip-path="url(#peda5e44d31)" d="M 381.428879 273.312 
L 383.048157 273.312 
L 383.048157 45.275077 
L 381.428879 45.275077 
z
" style="fill:#1f77b4;"/>
   </g>
   <g id="patch_202">
    <path clip-path="url(#peda5e44d31)" d="M 383.048157 273.312 
L 384.667434 273.312 
L 384.667434 65.952 
L 383.048157 65.952 
z
" style="fill:#1f77b4;"/>
   </g>
   <g id="matplotlib.axis_1">
    <g id="xtick_1">
     <g id="line2d_1">
      <defs>
       <path d="M 0 0 
L 0 3.5 
" id="m5b983dc625" style="stroke:#000000;stroke-width:0.8;"/>
      </defs>
      <g>
       <use style="stroke:#000000;stroke-width:0.8;" x="60.013977" xlink:href="#m5b983dc625" y="273.312"/>
      </g>
     </g>
     <g id="text_1">
      <!-- 0.0 -->
      <g transform="translate(52.062415 287.910437)scale(0.1 -0.1)">
       <defs>
        <path d="M 2034 4250 
Q 1547 4250 1301 3770 
Q 1056 3291 1056 2328 
Q 1056 1369 1301 889 
Q 1547 409 2034 409 
Q 2525 409 2770 889 
Q 3016 1369 3016 2328 
Q 3016 3291 2770 3770 
Q 2525 4250 2034 4250 
z
M 2034 4750 
Q 2819 4750 3233 4129 
Q 3647 3509 3647 2328 
Q 3647 1150 3233 529 
Q 2819 -91 2034 -91 
Q 1250 -91 836 529 
Q 422 1150 422 2328 
Q 422 3509 836 4129 
Q 1250 4750 2034 4750 
z
" id="DejaVuSans-30" transform="scale(0.015625)"/>
        <path d="M 684 794 
L 1344 794 
L 1344 0 
L 684 0 
L 684 794 
z
" id="DejaVuSans-2e" transform="scale(0.015625)"/>
       </defs>
       <use xlink:href="#DejaVuSans-30"/>
       <use x="63.623047" xlink:href="#DejaVuSans-2e"/>
       <use x="95.410156" xlink:href="#DejaVuSans-30"/>
      </g>
     </g>
    </g>
    <g id="xtick_2">
     <g id="line2d_2">
      <g>
       <use style="stroke:#000000;stroke-width:0.8;" x="124.944886" xlink:href="#m5b983dc625" y="273.312"/>
      </g>
     </g>
     <g id="text_2">
      <!-- 0.2 -->
      <g transform="translate(116.993324 287.910437)scale(0.1 -0.1)">
       <defs>
        <path d="M 1228 531 
L 3431 531 
L 3431 0 
L 469 0 
L 469 531 
Q 828 903 1448 1529 
Q 2069 2156 2228 2338 
Q 2531 2678 2651 2914 
Q 2772 3150 2772 3378 
Q 2772 3750 2511 3984 
Q 2250 4219 1831 4219 
Q 1534 4219 1204 4116 
Q 875 4013 500 3803 
L 500 4441 
Q 881 4594 1212 4672 
Q 1544 4750 1819 4750 
Q 2544 4750 2975 4387 
Q 3406 4025 3406 3419 
Q 3406 3131 3298 2873 
Q 3191 2616 2906 2266 
Q 2828 2175 2409 1742 
Q 1991 1309 1228 531 
z
" id="DejaVuSans-32" transform="scale(0.015625)"/>
       </defs>
       <use xlink:href="#DejaVuSans-30"/>
       <use x="63.623047" xlink:href="#DejaVuSans-2e"/>
       <use x="95.410156" xlink:href="#DejaVuSans-32"/>
      </g>
     </g>
    </g>
    <g id="xtick_3">
     <g id="line2d_3">
      <g>
       <use style="stroke:#000000;stroke-width:0.8;" x="189.875795" xlink:href="#m5b983dc625" y="273.312"/>
      </g>
     </g>
     <g id="text_3">
      <!-- 0.4 -->
      <g transform="translate(181.924233 287.910437)scale(0.1 -0.1)">
       <defs>
        <path d="M 2419 4116 
L 825 1625 
L 2419 1625 
L 2419 4116 
z
M 2253 4666 
L 3047 4666 
L 3047 1625 
L 3713 1625 
L 3713 1100 
L 3047 1100 
L 3047 0 
L 2419 0 
L 2419 1100 
L 313 1100 
L 313 1709 
L 2253 4666 
z
" id="DejaVuSans-34" transform="scale(0.015625)"/>
       </defs>
       <use xlink:href="#DejaVuSans-30"/>
       <use x="63.623047" xlink:href="#DejaVuSans-2e"/>
       <use x="95.410156" xlink:href="#DejaVuSans-34"/>
      </g>
     </g>
    </g>
    <g id="xtick_4">
     <g id="line2d_4">
      <g>
       <use style="stroke:#000000;stroke-width:0.8;" x="254.806705" xlink:href="#m5b983dc625" y="273.312"/>
      </g>
     </g>
     <g id="text_4">
      <!-- 0.6 -->
      <g transform="translate(246.855142 287.910437)scale(0.1 -0.1)">
       <defs>
        <path d="M 2113 2584 
Q 1688 2584 1439 2293 
Q 1191 2003 1191 1497 
Q 1191 994 1439 701 
Q 1688 409 2113 409 
Q 2538 409 2786 701 
Q 3034 994 3034 1497 
Q 3034 2003 2786 2293 
Q 2538 2584 2113 2584 
z
M 3366 4563 
L 3366 3988 
Q 3128 4100 2886 4159 
Q 2644 4219 2406 4219 
Q 1781 4219 1451 3797 
Q 1122 3375 1075 2522 
Q 1259 2794 1537 2939 
Q 1816 3084 2150 3084 
Q 2853 3084 3261 2657 
Q 3669 2231 3669 1497 
Q 3669 778 3244 343 
Q 2819 -91 2113 -91 
Q 1303 -91 875 529 
Q 447 1150 447 2328 
Q 447 3434 972 4092 
Q 1497 4750 2381 4750 
Q 2619 4750 2861 4703 
Q 3103 4656 3366 4563 
z
" id="DejaVuSans-36" transform="scale(0.015625)"/>
       </defs>
       <use xlink:href="#DejaVuSans-30"/>
       <use x="63.623047" xlink:href="#DejaVuSans-2e"/>
       <use x="95.410156" xlink:href="#DejaVuSans-36"/>
      </g>
     </g>
    </g>
    <g id="xtick_5">
     <g id="line2d_5">
      <g>
       <use style="stroke:#000000;stroke-width:0.8;" x="319.737614" xlink:href="#m5b983dc625" y="273.312"/>
      </g>
     </g>
     <g id="text_5">
      <!-- 0.8 -->
      <g transform="translate(311.786051 287.910437)scale(0.1 -0.1)">
       <defs>
        <path d="M 2034 2216 
Q 1584 2216 1326 1975 
Q 1069 1734 1069 1313 
Q 1069 891 1326 650 
Q 1584 409 2034 409 
Q 2484 409 2743 651 
Q 3003 894 3003 1313 
Q 3003 1734 2745 1975 
Q 2488 2216 2034 2216 
z
M 1403 2484 
Q 997 2584 770 2862 
Q 544 3141 544 3541 
Q 544 4100 942 4425 
Q 1341 4750 2034 4750 
Q 2731 4750 3128 4425 
Q 3525 4100 3525 3541 
Q 3525 3141 3298 2862 
Q 3072 2584 2669 2484 
Q 3125 2378 3379 2068 
Q 3634 1759 3634 1313 
Q 3634 634 3220 271 
Q 2806 -91 2034 -91 
Q 1263 -91 848 271 
Q 434 634 434 1313 
Q 434 1759 690 2068 
Q 947 2378 1403 2484 
z
M 1172 3481 
Q 1172 3119 1398 2916 
Q 1625 2713 2034 2713 
Q 2441 2713 2670 2916 
Q 2900 3119 2900 3481 
Q 2900 3844 2670 4047 
Q 2441 4250 2034 4250 
Q 1625 4250 1398 4047 
Q 1172 3844 1172 3481 
z
" id="DejaVuSans-38" transform="scale(0.015625)"/>
       </defs>
       <use xlink:href="#DejaVuSans-30"/>
       <use x="63.623047" xlink:href="#DejaVuSans-2e"/>
       <use x="95.410156" xlink:href="#DejaVuSans-38"/>
      </g>
     </g>
    </g>
    <g id="xtick_6">
     <g id="line2d_6">
      <g>
       <use style="stroke:#000000;stroke-width:0.8;" x="384.668523" xlink:href="#m5b983dc625" y="273.312"/>
      </g>
     </g>
     <g id="text_6">
      <!-- 1.0 -->
      <g transform="translate(376.71696 287.910437)scale(0.1 -0.1)">
       <defs>
        <path d="M 794 531 
L 1825 531 
L 1825 4091 
L 703 3866 
L 703 4441 
L 1819 4666 
L 2450 4666 
L 2450 531 
L 3481 531 
L 3481 0 
L 794 0 
L 794 531 
z
" id="DejaVuSans-31" transform="scale(0.015625)"/>
       </defs>
       <use xlink:href="#DejaVuSans-31"/>
       <use x="63.623047" xlink:href="#DejaVuSans-2e"/>
       <use x="95.410156" xlink:href="#DejaVuSans-30"/>
      </g>
     </g>
    </g>
    <g id="text_7">
     <!-- Propagation direction -->
     <g transform="translate(168.859219 301.588562)scale(0.1 -0.1)">
      <defs>
       <path d="M 1259 4147 
L 1259 2394 
L 2053 2394 
Q 2494 2394 2734 2622 
Q 2975 2850 2975 3272 
Q 2975 3691 2734 3919 
Q 2494 4147 2053 4147 
L 1259 4147 
z
M 628 4666 
L 2053 4666 
Q 2838 4666 3239 4311 
Q 3641 3956 3641 3272 
Q 3641 2581 3239 2228 
Q 2838 1875 2053 1875 
L 1259 1875 
L 1259 0 
L 628 0 
L 628 4666 
z
" id="DejaVuSans-50" transform="scale(0.015625)"/>
       <path d="M 2631 2963 
Q 2534 3019 2420 3045 
Q 2306 3072 2169 3072 
Q 1681 3072 1420 2755 
Q 1159 2438 1159 1844 
L 1159 0 
L 581 0 
L 581 3500 
L 1159 3500 
L 1159 2956 
Q 1341 3275 1631 3429 
Q 1922 3584 2338 3584 
Q 2397 3584 2469 3576 
Q 2541 3569 2628 3553 
L 2631 2963 
z
" id="DejaVuSans-72" transform="scale(0.015625)"/>
       <path d="M 1959 3097 
Q 1497 3097 1228 2736 
Q 959 2375 959 1747 
Q 959 1119 1226 758 
Q 1494 397 1959 397 
Q 2419 397 2687 759 
Q 2956 1122 2956 1747 
Q 2956 2369 2687 2733 
Q 2419 3097 1959 3097 
z
M 1959 3584 
Q 2709 3584 3137 3096 
Q 3566 2609 3566 1747 
Q 3566 888 3137 398 
Q 2709 -91 1959 -91 
Q 1206 -91 779 398 
Q 353 888 353 1747 
Q 353 2609 779 3096 
Q 1206 3584 1959 3584 
z
" id="DejaVuSans-6f" transform="scale(0.015625)"/>
       <path d="M 1159 525 
L 1159 -1331 
L 581 -1331 
L 581 3500 
L 1159 3500 
L 1159 2969 
Q 1341 3281 1617 3432 
Q 1894 3584 2278 3584 
Q 2916 3584 3314 3078 
Q 3713 2572 3713 1747 
Q 3713 922 3314 415 
Q 2916 -91 2278 -91 
Q 1894 -91 1617 61 
Q 1341 213 1159 525 
z
M 3116 1747 
Q 3116 2381 2855 2742 
Q 2594 3103 2138 3103 
Q 1681 3103 1420 2742 
Q 1159 2381 1159 1747 
Q 1159 1113 1420 752 
Q 1681 391 2138 391 
Q 2594 391 2855 752 
Q 3116 1113 3116 1747 
z
" id="DejaVuSans-70" transform="scale(0.015625)"/>
       <path d="M 2194 1759 
Q 1497 1759 1228 1600 
Q 959 1441 959 1056 
Q 959 750 1161 570 
Q 1363 391 1709 391 
Q 2188 391 2477 730 
Q 2766 1069 2766 1631 
L 2766 1759 
L 2194 1759 
z
M 3341 1997 
L 3341 0 
L 2766 0 
L 2766 531 
Q 2569 213 2275 61 
Q 1981 -91 1556 -91 
Q 1019 -91 701 211 
Q 384 513 384 1019 
Q 384 1609 779 1909 
Q 1175 2209 1959 2209 
L 2766 2209 
L 2766 2266 
Q 2766 2663 2505 2880 
Q 2244 3097 1772 3097 
Q 1472 3097 1187 3025 
Q 903 2953 641 2809 
L 641 3341 
Q 956 3463 1253 3523 
Q 1550 3584 1831 3584 
Q 2591 3584 2966 3190 
Q 3341 2797 3341 1997 
z
" id="DejaVuSans-61" transform="scale(0.015625)"/>
       <path d="M 2906 1791 
Q 2906 2416 2648 2759 
Q 2391 3103 1925 3103 
Q 1463 3103 1205 2759 
Q 947 2416 947 1791 
Q 947 1169 1205 825 
Q 1463 481 1925 481 
Q 2391 481 2648 825 
Q 2906 1169 2906 1791 
z
M 3481 434 
Q 3481 -459 3084 -895 
Q 2688 -1331 1869 -1331 
Q 1566 -1331 1297 -1286 
Q 1028 -1241 775 -1147 
L 775 -588 
Q 1028 -725 1275 -790 
Q 1522 -856 1778 -856 
Q 2344 -856 2625 -561 
Q 2906 -266 2906 331 
L 2906 616 
Q 2728 306 2450 153 
Q 2172 0 1784 0 
Q 1141 0 747 490 
Q 353 981 353 1791 
Q 353 2603 747 3093 
Q 1141 3584 1784 3584 
Q 2172 3584 2450 3431 
Q 2728 3278 2906 2969 
L 2906 3500 
L 3481 3500 
L 3481 434 
z
" id="DejaVuSans-67" transform="scale(0.015625)"/>
       <path d="M 1172 4494 
L 1172 3500 
L 2356 3500 
L 2356 3053 
L 1172 3053 
L 1172 1153 
Q 1172 725 1289 603 
Q 1406 481 1766 481 
L 2356 481 
L 2356 0 
L 1766 0 
Q 1100 0 847 248 
Q 594 497 594 1153 
L 594 3053 
L 172 3053 
L 172 3500 
L 594 3500 
L 594 4494 
L 1172 4494 
z
" id="DejaVuSans-74" transform="scale(0.015625)"/>
       <path d="M 603 3500 
L 1178 3500 
L 1178 0 
L 603 0 
L 603 3500 
z
M 603 4863 
L 1178 4863 
L 1178 4134 
L 603 4134 
L 603 4863 
z
" id="DejaVuSans-69" transform="scale(0.015625)"/>
       <path d="M 3513 2113 
L 3513 0 
L 2938 0 
L 2938 2094 
Q 2938 2591 2744 2837 
Q 2550 3084 2163 3084 
Q 1697 3084 1428 2787 
Q 1159 2491 1159 1978 
L 1159 0 
L 581 0 
L 581 3500 
L 1159 3500 
L 1159 2956 
Q 1366 3272 1645 3428 
Q 1925 3584 2291 3584 
Q 2894 3584 3203 3211 
Q 3513 2838 3513 2113 
z
" id="DejaVuSans-6e" transform="scale(0.015625)"/>
       <path id="DejaVuSans-20" transform="scale(0.015625)"/>
       <path d="M 2906 2969 
L 2906 4863 
L 3481 4863 
L 3481 0 
L 2906 0 
L 2906 525 
Q 2725 213 2448 61 
Q 2172 -91 1784 -91 
Q 1150 -91 751 415 
Q 353 922 353 1747 
Q 353 2572 751 3078 
Q 1150 3584 1784 3584 
Q 2172 3584 2448 3432 
Q 2725 3281 2906 2969 
z
M 947 1747 
Q 947 1113 1208 752 
Q 1469 391 1925 391 
Q 2381 391 2643 752 
Q 2906 1113 2906 1747 
Q 2906 2381 2643 2742 
Q 2381 3103 1925 3103 
Q 1469 3103 1208 2742 
Q 947 2381 947 1747 
z
" id="DejaVuSans-64" transform="scale(0.015625)"/>
       <path d="M 3597 1894 
L 3597 1613 
L 953 1613 
Q 991 1019 1311 708 
Q 1631 397 2203 397 
Q 2534 397 2845 478 
Q 3156 559 3463 722 
L 3463 178 
Q 3153 47 2828 -22 
Q 2503 -91 2169 -91 
Q 1331 -91 842 396 
Q 353 884 353 1716 
Q 353 2575 817 3079 
Q 1281 3584 2069 3584 
Q 2775 3584 3186 3129 
Q 3597 2675 3597 1894 
z
M 3022 2063 
Q 3016 2534 2758 2815 
Q 2500 3097 2075 3097 
Q 1594 3097 1305 2825 
Q 1016 2553 972 2059 
L 3022 2063 
z
" id="DejaVuSans-65" transform="scale(0.015625)"/>
       <path d="M 3122 3366 
L 3122 2828 
Q 2878 2963 2633 3030 
Q 2388 3097 2138 3097 
Q 1578 3097 1268 2742 
Q 959 2388 959 1747 
Q 959 1106 1268 751 
Q 1578 397 2138 397 
Q 2388 397 2633 464 
Q 2878 531 3122 666 
L 3122 134 
Q 2881 22 2623 -34 
Q 2366 -91 2075 -91 
Q 1284 -91 818 406 
Q 353 903 353 1747 
Q 353 2603 823 3093 
Q 1294 3584 2113 3584 
Q 2378 3584 2631 3529 
Q 2884 3475 3122 3366 
z
" id="DejaVuSans-63" transform="scale(0.015625)"/>
      </defs>
      <use xlink:href="#DejaVuSans-50"/>
      <use x="58.552734" xlink:href="#DejaVuSans-72"/>
      <use x="97.416016" xlink:href="#DejaVuSans-6f"/>
      <use x="158.597656" xlink:href="#DejaVuSans-70"/>
      <use x="222.074219" xlink:href="#DejaVuSans-61"/>
      <use x="283.353516" xlink:href="#DejaVuSans-67"/>
      <use x="346.830078" xlink:href="#DejaVuSans-61"/>
      <use x="408.109375" xlink:href="#DejaVuSans-74"/>
      <use x="447.318359" xlink:href="#DejaVuSans-69"/>
      <use x="475.101562" xlink:href="#DejaVuSans-6f"/>
      <use x="536.283203" xlink:href="#DejaVuSans-6e"/>
      <use x="599.662109" xlink:href="#DejaVuSans-20"/>
      <use x="631.449219" xlink:href="#DejaVuSans-64"/>
      <use x="694.925781" xlink:href="#DejaVuSans-69"/>
      <use x="722.708984" xlink:href="#DejaVuSans-72"/>
      <use x="761.572266" xlink:href="#DejaVuSans-65"/>
      <use x="823.095703" xlink:href="#DejaVuSans-63"/>
      <use x="878.076172" xlink:href="#DejaVuSans-74"/>
      <use x="917.285156" xlink:href="#DejaVuSans-69"/>
      <use x="945.068359" xlink:href="#DejaVuSans-6f"/>
      <use x="1006.25" xlink:href="#DejaVuSans-6e"/>
     </g>
    </g>
   </g>
   <g id="matplotlib.axis_2">
    <g id="ytick_1">
     <g id="line2d_7">
      <defs>
       <path d="M 0 0 
L -3.5 0 
" id="md53832ad75" style="stroke:#000000;stroke-width:0.8;"/>
      </defs>
      <g>
       <use style="stroke:#000000;stroke-width:0.8;" x="43.78125" xlink:href="#md53832ad75" y="273.312"/>
      </g>
     </g>
     <g id="text_8">
      <!-- 0.0 -->
      <g transform="translate(20.878125 277.111219)scale(0.1 -0.1)">
       <use xlink:href="#DejaVuSans-30"/>
       <use x="63.623047" xlink:href="#DejaVuSans-2e"/>
       <use x="95.410156" xlink:href="#DejaVuSans-30"/>
      </g>
     </g>
    </g>
    <g id="ytick_2">
     <g id="line2d_8">
      <g>
       <use style="stroke:#000000;stroke-width:0.8;" x="43.78125" xlink:href="#md53832ad75" y="214.380477"/>
      </g>
     </g>
     <g id="text_9">
      <!-- 0.5 -->
      <g transform="translate(20.878125 218.179696)scale(0.1 -0.1)">
       <defs>
        <path d="M 691 4666 
L 3169 4666 
L 3169 4134 
L 1269 4134 
L 1269 2991 
Q 1406 3038 1543 3061 
Q 1681 3084 1819 3084 
Q 2600 3084 3056 2656 
Q 3513 2228 3513 1497 
Q 3513 744 3044 326 
Q 2575 -91 1722 -91 
Q 1428 -91 1123 -41 
Q 819 9 494 109 
L 494 744 
Q 775 591 1075 516 
Q 1375 441 1709 441 
Q 2250 441 2565 725 
Q 2881 1009 2881 1497 
Q 2881 1984 2565 2268 
Q 2250 2553 1709 2553 
Q 1456 2553 1204 2497 
Q 953 2441 691 2322 
L 691 4666 
z
" id="DejaVuSans-35" transform="scale(0.015625)"/>
       </defs>
       <use xlink:href="#DejaVuSans-30"/>
       <use x="63.623047" xlink:href="#DejaVuSans-2e"/>
       <use x="95.410156" xlink:href="#DejaVuSans-35"/>
      </g>
     </g>
    </g>
    <g id="ytick_3">
     <g id="line2d_9">
      <g>
       <use style="stroke:#000000;stroke-width:0.8;" x="43.78125" xlink:href="#md53832ad75" y="155.448954"/>
      </g>
     </g>
     <g id="text_10">
      <!-- 1.0 -->
      <g transform="translate(20.878125 159.248173)scale(0.1 -0.1)">
       <use xlink:href="#DejaVuSans-31"/>
       <use x="63.623047" xlink:href="#DejaVuSans-2e"/>
       <use x="95.410156" xlink:href="#DejaVuSans-30"/>
      </g>
     </g>
    </g>
    <g id="ytick_4">
     <g id="line2d_10">
      <g>
       <use style="stroke:#000000;stroke-width:0.8;" x="43.78125" xlink:href="#md53832ad75" y="96.517432"/>
      </g>
     </g>
     <g id="text_11">
      <!-- 1.5 -->
      <g transform="translate(20.878125 100.31665)scale(0.1 -0.1)">
       <use xlink:href="#DejaVuSans-31"/>
       <use x="63.623047" xlink:href="#DejaVuSans-2e"/>
       <use x="95.410156" xlink:href="#DejaVuSans-35"/>
      </g>
     </g>
    </g>
    <g id="ytick_5">
     <g id="line2d_11">
      <g>
       <use style="stroke:#000000;stroke-width:0.8;" x="43.78125" xlink:href="#md53832ad75" y="37.585909"/>
      </g>
     </g>
     <g id="text_12">
      <!-- 2.0 -->
      <g transform="translate(20.878125 41.385128)scale(0.1 -0.1)">
       <use xlink:href="#DejaVuSans-32"/>
       <use x="63.623047" xlink:href="#DejaVuSans-2e"/>
       <use x="95.410156" xlink:href="#DejaVuSans-30"/>
      </g>
     </g>
    </g>
    <g id="text_13">
     <!-- Probability density -->
     <g transform="translate(14.798438 186.606781)rotate(-90)scale(0.1 -0.1)">
      <defs>
       <path d="M 3116 1747 
Q 3116 2381 2855 2742 
Q 2594 3103 2138 3103 
Q 1681 3103 1420 2742 
Q 1159 2381 1159 1747 
Q 1159 1113 1420 752 
Q 1681 391 2138 391 
Q 2594 391 2855 752 
Q 3116 1113 3116 1747 
z
M 1159 2969 
Q 1341 3281 1617 3432 
Q 1894 3584 2278 3584 
Q 2916 3584 3314 3078 
Q 3713 2572 3713 1747 
Q 3713 922 3314 415 
Q 2916 -91 2278 -91 
Q 1894 -91 1617 61 
Q 1341 213 1159 525 
L 1159 0 
L 581 0 
L 581 4863 
L 1159 4863 
L 1159 2969 
z
" id="DejaVuSans-62" transform="scale(0.015625)"/>
       <path d="M 603 4863 
L 1178 4863 
L 1178 0 
L 603 0 
L 603 4863 
z
" id="DejaVuSans-6c" transform="scale(0.015625)"/>
       <path d="M 2059 -325 
Q 1816 -950 1584 -1140 
Q 1353 -1331 966 -1331 
L 506 -1331 
L 506 -850 
L 844 -850 
Q 1081 -850 1212 -737 
Q 1344 -625 1503 -206 
L 1606 56 
L 191 3500 
L 800 3500 
L 1894 763 
L 2988 3500 
L 3597 3500 
L 2059 -325 
z
" id="DejaVuSans-79" transform="scale(0.015625)"/>
       <path d="M 2834 3397 
L 2834 2853 
Q 2591 2978 2328 3040 
Q 2066 3103 1784 3103 
Q 1356 3103 1142 2972 
Q 928 2841 928 2578 
Q 928 2378 1081 2264 
Q 1234 2150 1697 2047 
L 1894 2003 
Q 2506 1872 2764 1633 
Q 3022 1394 3022 966 
Q 3022 478 2636 193 
Q 2250 -91 1575 -91 
Q 1294 -91 989 -36 
Q 684 19 347 128 
L 347 722 
Q 666 556 975 473 
Q 1284 391 1588 391 
Q 1994 391 2212 530 
Q 2431 669 2431 922 
Q 2431 1156 2273 1281 
Q 2116 1406 1581 1522 
L 1381 1569 
Q 847 1681 609 1914 
Q 372 2147 372 2553 
Q 372 3047 722 3315 
Q 1072 3584 1716 3584 
Q 2034 3584 2315 3537 
Q 2597 3491 2834 3397 
z
" id="DejaVuSans-73" transform="scale(0.015625)"/>
      </defs>
      <use xlink:href="#DejaVuSans-50"/>
      <use x="58.552734" xlink:href="#DejaVuSans-72"/>
      <use x="97.416016" xlink:href="#DejaVuSans-6f"/>
      <use x="158.597656" xlink:href="#DejaVuSans-62"/>
      <use x="222.074219" xlink:href="#DejaVuSans-61"/>
      <use x="283.353516" xlink:href="#DejaVuSans-62"/>
      <use x="346.830078" xlink:href="#DejaVuSans-69"/>
      <use x="374.613281" xlink:href="#DejaVuSans-6c"/>
      <use x="402.396484" xlink:href="#DejaVuSans-69"/>
      <use x="430.179688" xlink:href="#DejaVuSans-74"/>
      <use x="469.388672" xlink:href="#DejaVuSans-79"/>
      <use x="528.568359" xlink:href="#DejaVuSans-20"/>
      <use x="560.355469" xlink:href="#DejaVuSans-64"/>
      <use x="623.832031" xlink:href="#DejaVuSans-65"/>
      <use x="685.355469" xlink:href="#DejaVuSans-6e"/>
      <use x="748.734375" xlink:href="#DejaVuSans-73"/>
      <use x="800.833984" xlink:href="#DejaVuSans-69"/>
      <use x="828.617188" xlink:href="#DejaVuSans-74"/>
      <use x="867.826172" xlink:href="#DejaVuSans-79"/>
     </g>
    </g>
   </g>
   <g id="line2d_12">
    <path clip-path="url(#peda5e44d31)" d="M 60.013977 273.312 
L 384.668523 37.585909 
L 384.668523 37.585909 
" style="fill:none;stroke:#ff7f0e;stroke-linecap:square;stroke-width:1.5;"/>
   </g>
   <g id="patch_203">
    <path d="M 43.78125 273.312 
L 43.78125 7.2 
" style="fill:none;stroke:#000000;stroke-linecap:square;stroke-linejoin:miter;stroke-width:0.8;"/>
   </g>
   <g id="patch_204">
    <path d="M 400.90125 273.312 
L 400.90125 7.2 
" style="fill:none;stroke:#000000;stroke-linecap:square;stroke-linejoin:miter;stroke-width:0.8;"/>
   </g>
   <g id="patch_205">
    <path d="M 43.78125 273.312 
L 400.90125 273.312 
" style="fill:none;stroke:#000000;stroke-linecap:square;stroke-linejoin:miter;stroke-width:0.8;"/>
   </g>
   <g id="patch_206">
    <path d="M 43.78125 7.2 
L 400.90125 7.2 
" style="fill:none;stroke:#000000;stroke-linecap:square;stroke-linejoin:miter;stroke-width:0.8;"/>
   </g>
  </g>
 </g>
 <defs>
  <clipPath id="peda5e44d31">
   <rect height="266.112" width="357.12" x="43.78125" y="7.2"/>
  </clipPath>
 </defs>
</svg>
