<?xml version="1.0" encoding="utf-8" standalone="no"?>
<!DOCTYPE svg PUBLIC "-//W3C//DTD SVG 1.1//EN"
  "http://www.w3.org/Graphics/SVG/1.1/DTD/svg11.dtd">
<svg height="321.466687pt" version="1.1" viewBox="0 0 398.560625 321.466687" width="398.560625pt" xmlns="http://www.w3.org/2000/svg" xmlns:xlink="http://www.w3.org/1999/xlink">
 <metadata>
  <rdf:RDF xmlns:cc="http://creativecommons.org/ns#" xmlns:dc="http://purl.org/dc/elements/1.1/" xmlns:rdf="http://www.w3.org/1999/02/22-rdf-syntax-ns#">
   <cc:Work>
    <dc:type rdf:resource="http://purl.org/dc/dcmitype/StillImage"/>
    <dc:date>2021-07-06T17:40:03.097662</dc:date>
    <dc:format>image/svg+xml</dc:format>
    <dc:creator>
     <cc:Agent>
      <dc:title>Matplotlib v3.4.2, https://matplotlib.org/</dc:title>
     </cc:Agent>
    </dc:creator>
   </cc:Work>
  </rdf:RDF>
 </metadata>
 <defs>
  <style type="text/css">*{stroke-linecap:butt;stroke-linejoin:round;}</style>
 </defs>
 <g id="figure_1">
  <g id="patch_1">
   <path d="M 0 321.466687 
L 398.560625 321.466687 
L 398.560625 0 
L 0 0 
z
" style="fill:#ffffff;"/>
  </g>
  <g id="axes_1">
   <g id="patch_2">
    <path d="M 34.240625 283.910437 
L 391.360625 283.910437 
L 391.360625 17.798437 
L 34.240625 17.798437 
z
" style="fill:#ffffff;"/>
   </g>
   <g id="patch_3">
    <path clip-path="url(#pbbe6e9dc76)" d="M 50.473352 283.910437 
L 52.096625 283.910437 
L 52.096625 282.488614 
L 50.473352 282.488614 
z
" style="fill:#1f77b4;"/>
   </g>
   <g id="patch_4">
    <path clip-path="url(#pbbe6e9dc76)" d="M 52.096625 283.910437 
L 53.719898 283.910437 
L 53.719898 279.289512 
L 52.096625 279.289512 
z
" style="fill:#1f77b4;"/>
   </g>
   <g id="patch_5">
    <path clip-path="url(#pbbe6e9dc76)" d="M 53.719898 283.910437 
L 55.34317 283.910437 
L 55.34317 276.090409 
L 53.719898 276.090409 
z
" style="fill:#1f77b4;"/>
   </g>
   <g id="patch_6">
    <path clip-path="url(#pbbe6e9dc76)" d="M 55.34317 283.910437 
L 56.966443 283.910437 
L 56.966443 269.336749 
L 55.34317 269.336749 
z
" style="fill:#1f77b4;"/>
   </g>
   <g id="patch_7">
    <path clip-path="url(#pbbe6e9dc76)" d="M 56.966443 283.910437 
L 58.589716 283.910437 
L 58.589716 258.317618 
L 56.966443 258.317618 
z
" style="fill:#1f77b4;"/>
   </g>
   <g id="patch_8">
    <path clip-path="url(#pbbe6e9dc76)" d="M 58.589716 283.910437 
L 60.212989 283.910437 
L 60.212989 252.274869 
L 58.589716 252.274869 
z
" style="fill:#1f77b4;"/>
   </g>
   <g id="patch_9">
    <path clip-path="url(#pbbe6e9dc76)" d="M 60.212989 283.910437 
L 61.836261 283.910437 
L 61.836261 241.966651 
L 60.212989 241.966651 
z
" style="fill:#1f77b4;"/>
   </g>
   <g id="patch_10">
    <path clip-path="url(#pbbe6e9dc76)" d="M 61.836261 283.910437 
L 63.459534 283.910437 
L 63.459534 228.45933 
L 61.836261 228.45933 
z
" style="fill:#1f77b4;"/>
   </g>
   <g id="patch_11">
    <path clip-path="url(#pbbe6e9dc76)" d="M 63.459534 283.910437 
L 65.082807 283.910437 
L 65.082807 220.283846 
L 63.459534 220.283846 
z
" style="fill:#1f77b4;"/>
   </g>
   <g id="patch_12">
    <path clip-path="url(#pbbe6e9dc76)" d="M 65.082807 283.910437 
L 66.70608 283.910437 
L 66.70608 202.511055 
L 65.082807 202.511055 
z
" style="fill:#1f77b4;"/>
   </g>
   <g id="patch_13">
    <path clip-path="url(#pbbe6e9dc76)" d="M 66.70608 283.910437 
L 68.329352 283.910437 
L 68.329352 200.733776 
L 66.70608 200.733776 
z
" style="fill:#1f77b4;"/>
   </g>
   <g id="patch_14">
    <path clip-path="url(#pbbe6e9dc76)" d="M 68.329352 283.910437 
L 69.952625 283.910437 
L 69.952625 192.202836 
L 68.329352 192.202836 
z
" style="fill:#1f77b4;"/>
   </g>
   <g id="patch_15">
    <path clip-path="url(#pbbe6e9dc76)" d="M 69.952625 283.910437 
L 71.575898 283.910437 
L 71.575898 166.965473 
L 69.952625 166.965473 
z
" style="fill:#1f77b4;"/>
   </g>
   <g id="patch_16">
    <path clip-path="url(#pbbe6e9dc76)" d="M 71.575898 283.910437 
L 73.19917 283.910437 
L 73.19917 163.76637 
L 71.575898 163.76637 
z
" style="fill:#1f77b4;"/>
   </g>
   <g id="patch_17">
    <path clip-path="url(#pbbe6e9dc76)" d="M 73.19917 283.910437 
L 74.822443 283.910437 
L 74.822443 149.548137 
L 73.19917 149.548137 
z
" style="fill:#1f77b4;"/>
   </g>
   <g id="patch_18">
    <path clip-path="url(#pbbe6e9dc76)" d="M 74.822443 283.910437 
L 76.445716 283.910437 
L 76.445716 147.415402 
L 74.822443 147.415402 
z
" style="fill:#1f77b4;"/>
   </g>
   <g id="patch_19">
    <path clip-path="url(#pbbe6e9dc76)" d="M 76.445716 283.910437 
L 78.068989 283.910437 
L 78.068989 133.552625 
L 76.445716 133.552625 
z
" style="fill:#1f77b4;"/>
   </g>
   <g id="patch_20">
    <path clip-path="url(#pbbe6e9dc76)" d="M 78.068989 283.910437 
L 79.692261 283.910437 
L 79.692261 122.178039 
L 78.068989 122.178039 
z
" style="fill:#1f77b4;"/>
   </g>
   <g id="patch_21">
    <path clip-path="url(#pbbe6e9dc76)" d="M 79.692261 283.910437 
L 81.315534 283.910437 
L 81.315534 112.225276 
L 79.692261 112.225276 
z
" style="fill:#1f77b4;"/>
   </g>
   <g id="patch_22">
    <path clip-path="url(#pbbe6e9dc76)" d="M 81.315534 283.910437 
L 82.938807 283.910437 
L 82.938807 99.784322 
L 81.315534 99.784322 
z
" style="fill:#1f77b4;"/>
   </g>
   <g id="patch_23">
    <path clip-path="url(#pbbe6e9dc76)" d="M 82.938807 283.910437 
L 84.56208 283.910437 
L 84.56208 85.56609 
L 82.938807 85.56609 
z
" style="fill:#1f77b4;"/>
   </g>
   <g id="patch_24">
    <path clip-path="url(#pbbe6e9dc76)" d="M 84.56208 283.910437 
L 86.185352 283.910437 
L 86.185352 79.878797 
L 84.56208 79.878797 
z
" style="fill:#1f77b4;"/>
   </g>
   <g id="patch_25">
    <path clip-path="url(#pbbe6e9dc76)" d="M 86.185352 283.910437 
L 87.808625 283.910437 
L 87.808625 93.030662 
L 86.185352 93.030662 
z
" style="fill:#1f77b4;"/>
   </g>
   <g id="patch_26">
    <path clip-path="url(#pbbe6e9dc76)" d="M 87.808625 283.910437 
L 89.431898 283.910437 
L 89.431898 75.613327 
L 87.808625 75.613327 
z
" style="fill:#1f77b4;"/>
   </g>
   <g id="patch_27">
    <path clip-path="url(#pbbe6e9dc76)" d="M 89.431898 283.910437 
L 91.05517 283.910437 
L 91.05517 65.660564 
L 89.431898 65.660564 
z
" style="fill:#1f77b4;"/>
   </g>
   <g id="patch_28">
    <path clip-path="url(#pbbe6e9dc76)" d="M 91.05517 283.910437 
L 92.678443 283.910437 
L 92.678443 69.926034 
L 91.05517 69.926034 
z
" style="fill:#1f77b4;"/>
   </g>
   <g id="patch_29">
    <path clip-path="url(#pbbe6e9dc76)" d="M 92.678443 283.910437 
L 94.301716 283.910437 
L 94.301716 38.645921 
L 92.678443 38.645921 
z
" style="fill:#1f77b4;"/>
   </g>
   <g id="patch_30">
    <path clip-path="url(#pbbe6e9dc76)" d="M 94.301716 283.910437 
L 95.924989 283.910437 
L 95.924989 42.911391 
L 94.301716 42.911391 
z
" style="fill:#1f77b4;"/>
   </g>
   <g id="patch_31">
    <path clip-path="url(#pbbe6e9dc76)" d="M 95.924989 283.910437 
L 97.548261 283.910437 
L 97.548261 34.735907 
L 95.924989 34.735907 
z
" style="fill:#1f77b4;"/>
   </g>
   <g id="patch_32">
    <path clip-path="url(#pbbe6e9dc76)" d="M 97.548261 283.910437 
L 99.171534 283.910437 
L 99.171534 61.75055 
L 97.548261 61.75055 
z
" style="fill:#1f77b4;"/>
   </g>
   <g id="patch_33">
    <path clip-path="url(#pbbe6e9dc76)" d="M 99.171534 283.910437 
L 100.794807 283.910437 
L 100.794807 45.044126 
L 99.171534 45.044126 
z
" style="fill:#1f77b4;"/>
   </g>
   <g id="patch_34">
    <path clip-path="url(#pbbe6e9dc76)" d="M 100.794807 283.910437 
L 102.41808 283.910437 
L 102.41808 38.290466 
L 100.794807 38.290466 
z
" style="fill:#1f77b4;"/>
   </g>
   <g id="patch_35">
    <path clip-path="url(#pbbe6e9dc76)" d="M 102.41808 283.910437 
L 104.041352 283.910437 
L 104.041352 43.977759 
L 102.41808 43.977759 
z
" style="fill:#1f77b4;"/>
   </g>
   <g id="patch_36">
    <path clip-path="url(#pbbe6e9dc76)" d="M 104.041352 283.910437 
L 105.664625 283.910437 
L 105.664625 30.470437 
L 104.041352 30.470437 
z
" style="fill:#1f77b4;"/>
   </g>
   <g id="patch_37">
    <path clip-path="url(#pbbe6e9dc76)" d="M 105.664625 283.910437 
L 107.287898 283.910437 
L 107.287898 47.176861 
L 105.664625 47.176861 
z
" style="fill:#1f77b4;"/>
   </g>
   <g id="patch_38">
    <path clip-path="url(#pbbe6e9dc76)" d="M 107.287898 283.910437 
L 108.91117 283.910437 
L 108.91117 41.134112 
L 107.287898 41.134112 
z
" style="fill:#1f77b4;"/>
   </g>
   <g id="patch_39">
    <path clip-path="url(#pbbe6e9dc76)" d="M 108.91117 283.910437 
L 110.534443 283.910437 
L 110.534443 44.68867 
L 108.91117 44.68867 
z
" style="fill:#1f77b4;"/>
   </g>
   <g id="patch_40">
    <path clip-path="url(#pbbe6e9dc76)" d="M 110.534443 283.910437 
L 112.157716 283.910437 
L 112.157716 36.157731 
L 110.534443 36.157731 
z
" style="fill:#1f77b4;"/>
   </g>
   <g id="patch_41">
    <path clip-path="url(#pbbe6e9dc76)" d="M 112.157716 283.910437 
L 113.780989 283.910437 
L 113.780989 43.266847 
L 112.157716 43.266847 
z
" style="fill:#1f77b4;"/>
   </g>
   <g id="patch_42">
    <path clip-path="url(#pbbe6e9dc76)" d="M 113.780989 283.910437 
L 115.404261 283.910437 
L 115.404261 35.446819 
L 113.780989 35.446819 
z
" style="fill:#1f77b4;"/>
   </g>
   <g id="patch_43">
    <path clip-path="url(#pbbe6e9dc76)" d="M 115.404261 283.910437 
L 117.027534 283.910437 
L 117.027534 40.4232 
L 115.404261 40.4232 
z
" style="fill:#1f77b4;"/>
   </g>
   <g id="patch_44">
    <path clip-path="url(#pbbe6e9dc76)" d="M 117.027534 283.910437 
L 118.650807 283.910437 
L 118.650807 42.20048 
L 117.027534 42.20048 
z
" style="fill:#1f77b4;"/>
   </g>
   <g id="patch_45">
    <path clip-path="url(#pbbe6e9dc76)" d="M 118.650807 283.910437 
L 120.27408 283.910437 
L 120.27408 66.726931 
L 118.650807 66.726931 
z
" style="fill:#1f77b4;"/>
   </g>
   <g id="patch_46">
    <path clip-path="url(#pbbe6e9dc76)" d="M 120.27408 283.910437 
L 121.897352 283.910437 
L 121.897352 50.731419 
L 120.27408 50.731419 
z
" style="fill:#1f77b4;"/>
   </g>
   <g id="patch_47">
    <path clip-path="url(#pbbe6e9dc76)" d="M 121.897352 283.910437 
L 123.520625 283.910437 
L 123.520625 49.309596 
L 121.897352 49.309596 
z
" style="fill:#1f77b4;"/>
   </g>
   <g id="patch_48">
    <path clip-path="url(#pbbe6e9dc76)" d="M 123.520625 283.910437 
L 125.143898 283.910437 
L 125.143898 46.465949 
L 123.520625 46.465949 
z
" style="fill:#1f77b4;"/>
   </g>
   <g id="patch_49">
    <path clip-path="url(#pbbe6e9dc76)" d="M 125.143898 283.910437 
L 126.76717 283.910437 
L 126.76717 59.617815 
L 125.143898 59.617815 
z
" style="fill:#1f77b4;"/>
   </g>
   <g id="patch_50">
    <path clip-path="url(#pbbe6e9dc76)" d="M 126.76717 283.910437 
L 128.390443 283.910437 
L 128.390443 73.480592 
L 126.76717 73.480592 
z
" style="fill:#1f77b4;"/>
   </g>
   <g id="patch_51">
    <path clip-path="url(#pbbe6e9dc76)" d="M 128.390443 283.910437 
L 130.013716 283.910437 
L 130.013716 73.836048 
L 128.390443 73.836048 
z
" style="fill:#1f77b4;"/>
   </g>
   <g id="patch_52">
    <path clip-path="url(#pbbe6e9dc76)" d="M 130.013716 283.910437 
L 131.636989 283.910437 
L 131.636989 77.746062 
L 130.013716 77.746062 
z
" style="fill:#1f77b4;"/>
   </g>
   <g id="patch_53">
    <path clip-path="url(#pbbe6e9dc76)" d="M 131.636989 283.910437 
L 133.260261 283.910437 
L 133.260261 93.741574 
L 131.636989 93.741574 
z
" style="fill:#1f77b4;"/>
   </g>
   <g id="patch_54">
    <path clip-path="url(#pbbe6e9dc76)" d="M 133.260261 283.910437 
L 134.883534 283.910437 
L 134.883534 79.878797 
L 133.260261 79.878797 
z
" style="fill:#1f77b4;"/>
   </g>
   <g id="patch_55">
    <path clip-path="url(#pbbe6e9dc76)" d="M 134.883534 283.910437 
L 136.506807 283.910437 
L 136.506807 70.636945 
L 134.883534 70.636945 
z
" style="fill:#1f77b4;"/>
   </g>
   <g id="patch_56">
    <path clip-path="url(#pbbe6e9dc76)" d="M 136.506807 283.910437 
L 138.13008 283.910437 
L 138.13008 93.386118 
L 136.506807 93.386118 
z
" style="fill:#1f77b4;"/>
   </g>
   <g id="patch_57">
    <path clip-path="url(#pbbe6e9dc76)" d="M 138.13008 283.910437 
L 139.753352 283.910437 
L 139.753352 103.694337 
L 138.13008 103.694337 
z
" style="fill:#1f77b4;"/>
   </g>
   <g id="patch_58">
    <path clip-path="url(#pbbe6e9dc76)" d="M 139.753352 283.910437 
L 141.376625 283.910437 
L 141.376625 102.272513 
L 139.753352 102.272513 
z
" style="fill:#1f77b4;"/>
   </g>
   <g id="patch_59">
    <path clip-path="url(#pbbe6e9dc76)" d="M 141.376625 283.910437 
L 142.999898 283.910437 
L 142.999898 119.334393 
L 141.376625 119.334393 
z
" style="fill:#1f77b4;"/>
   </g>
   <g id="patch_60">
    <path clip-path="url(#pbbe6e9dc76)" d="M 142.999898 283.910437 
L 144.62317 283.910437 
L 144.62317 102.627969 
L 142.999898 102.627969 
z
" style="fill:#1f77b4;"/>
   </g>
   <g id="patch_61">
    <path clip-path="url(#pbbe6e9dc76)" d="M 144.62317 283.910437 
L 146.246443 283.910437 
L 146.246443 107.248895 
L 144.62317 107.248895 
z
" style="fill:#1f77b4;"/>
   </g>
   <g id="patch_62">
    <path clip-path="url(#pbbe6e9dc76)" d="M 146.246443 283.910437 
L 147.869716 283.910437 
L 147.869716 121.467128 
L 146.246443 121.467128 
z
" style="fill:#1f77b4;"/>
   </g>
   <g id="patch_63">
    <path clip-path="url(#pbbe6e9dc76)" d="M 147.869716 283.910437 
L 149.492989 283.910437 
L 149.492989 141.017198 
L 147.869716 141.017198 
z
" style="fill:#1f77b4;"/>
   </g>
   <g id="patch_64">
    <path clip-path="url(#pbbe6e9dc76)" d="M 149.492989 283.910437 
L 151.116261 283.910437 
L 151.116261 127.154421 
L 149.492989 127.154421 
z
" style="fill:#1f77b4;"/>
   </g>
   <g id="patch_65">
    <path clip-path="url(#pbbe6e9dc76)" d="M 151.116261 283.910437 
L 152.739534 283.910437 
L 152.739534 131.775346 
L 151.116261 131.775346 
z
" style="fill:#1f77b4;"/>
   </g>
   <g id="patch_66">
    <path clip-path="url(#pbbe6e9dc76)" d="M 152.739534 283.910437 
L 154.362807 283.910437 
L 154.362807 143.860844 
L 152.739534 143.860844 
z
" style="fill:#1f77b4;"/>
   </g>
   <g id="patch_67">
    <path clip-path="url(#pbbe6e9dc76)" d="M 154.362807 283.910437 
L 155.98608 283.910437 
L 155.98608 145.638123 
L 154.362807 145.638123 
z
" style="fill:#1f77b4;"/>
   </g>
   <g id="patch_68">
    <path clip-path="url(#pbbe6e9dc76)" d="M 155.98608 283.910437 
L 157.609352 283.910437 
L 157.609352 155.590886 
L 155.98608 155.590886 
z
" style="fill:#1f77b4;"/>
   </g>
   <g id="patch_69">
    <path clip-path="url(#pbbe6e9dc76)" d="M 157.609352 283.910437 
L 159.232625 283.910437 
L 159.232625 150.614505 
L 157.609352 150.614505 
z
" style="fill:#1f77b4;"/>
   </g>
   <g id="patch_70">
    <path clip-path="url(#pbbe6e9dc76)" d="M 159.232625 283.910437 
L 160.855898 283.910437 
L 160.855898 176.56278 
L 159.232625 176.56278 
z
" style="fill:#1f77b4;"/>
   </g>
   <g id="patch_71">
    <path clip-path="url(#pbbe6e9dc76)" d="M 160.855898 283.910437 
L 162.47917 283.910437 
L 162.47917 162.344547 
L 160.855898 162.344547 
z
" style="fill:#1f77b4;"/>
   </g>
   <g id="patch_72">
    <path clip-path="url(#pbbe6e9dc76)" d="M 162.47917 283.910437 
L 164.102443 283.910437 
L 164.102443 165.899105 
L 162.47917 165.899105 
z
" style="fill:#1f77b4;"/>
   </g>
   <g id="patch_73">
    <path clip-path="url(#pbbe6e9dc76)" d="M 164.102443 283.910437 
L 165.725716 283.910437 
L 165.725716 176.56278 
L 164.102443 176.56278 
z
" style="fill:#1f77b4;"/>
   </g>
   <g id="patch_74">
    <path clip-path="url(#pbbe6e9dc76)" d="M 165.725716 283.910437 
L 167.348989 283.910437 
L 167.348989 180.82825 
L 165.725716 180.82825 
z
" style="fill:#1f77b4;"/>
   </g>
   <g id="patch_75">
    <path clip-path="url(#pbbe6e9dc76)" d="M 167.348989 283.910437 
L 168.972261 283.910437 
L 168.972261 191.491924 
L 167.348989 191.491924 
z
" style="fill:#1f77b4;"/>
   </g>
   <g id="patch_76">
    <path clip-path="url(#pbbe6e9dc76)" d="M 168.972261 283.910437 
L 170.595534 283.910437 
L 170.595534 182.250073 
L 168.972261 182.250073 
z
" style="fill:#1f77b4;"/>
   </g>
   <g id="patch_77">
    <path clip-path="url(#pbbe6e9dc76)" d="M 170.595534 283.910437 
L 172.218807 283.910437 
L 172.218807 194.335571 
L 170.595534 194.335571 
z
" style="fill:#1f77b4;"/>
   </g>
   <g id="patch_78">
    <path clip-path="url(#pbbe6e9dc76)" d="M 172.218807 283.910437 
L 173.84208 283.910437 
L 173.84208 184.382808 
L 172.218807 184.382808 
z
" style="fill:#1f77b4;"/>
   </g>
   <g id="patch_79">
    <path clip-path="url(#pbbe6e9dc76)" d="M 173.84208 283.910437 
L 175.465352 283.910437 
L 175.465352 192.202836 
L 173.84208 192.202836 
z
" style="fill:#1f77b4;"/>
   </g>
   <g id="patch_80">
    <path clip-path="url(#pbbe6e9dc76)" d="M 175.465352 283.910437 
L 177.088625 283.910437 
L 177.088625 199.667408 
L 175.465352 199.667408 
z
" style="fill:#1f77b4;"/>
   </g>
   <g id="patch_81">
    <path clip-path="url(#pbbe6e9dc76)" d="M 177.088625 283.910437 
L 178.711898 283.910437 
L 178.711898 202.511055 
L 177.088625 202.511055 
z
" style="fill:#1f77b4;"/>
   </g>
   <g id="patch_82">
    <path clip-path="url(#pbbe6e9dc76)" d="M 178.711898 283.910437 
L 180.33517 283.910437 
L 180.33517 207.487436 
L 178.711898 207.487436 
z
" style="fill:#1f77b4;"/>
   </g>
   <g id="patch_83">
    <path clip-path="url(#pbbe6e9dc76)" d="M 180.33517 283.910437 
L 181.958443 283.910437 
L 181.958443 212.108362 
L 180.33517 212.108362 
z
" style="fill:#1f77b4;"/>
   </g>
   <g id="patch_84">
    <path clip-path="url(#pbbe6e9dc76)" d="M 181.958443 283.910437 
L 183.581716 283.910437 
L 183.581716 210.331083 
L 181.958443 210.331083 
z
" style="fill:#1f77b4;"/>
   </g>
   <g id="patch_85">
    <path clip-path="url(#pbbe6e9dc76)" d="M 183.581716 283.910437 
L 185.204989 283.910437 
L 185.204989 215.307464 
L 183.581716 215.307464 
z
" style="fill:#1f77b4;"/>
   </g>
   <g id="patch_86">
    <path clip-path="url(#pbbe6e9dc76)" d="M 185.204989 283.910437 
L 186.828261 283.910437 
L 186.828261 208.198348 
L 185.204989 208.198348 
z
" style="fill:#1f77b4;"/>
   </g>
   <g id="patch_87">
    <path clip-path="url(#pbbe6e9dc76)" d="M 186.828261 283.910437 
L 188.451534 283.910437 
L 188.451534 224.904771 
L 186.828261 224.904771 
z
" style="fill:#1f77b4;"/>
   </g>
   <g id="patch_88">
    <path clip-path="url(#pbbe6e9dc76)" d="M 188.451534 283.910437 
L 190.074807 283.910437 
L 190.074807 227.748418 
L 188.451534 227.748418 
z
" style="fill:#1f77b4;"/>
   </g>
   <g id="patch_89">
    <path clip-path="url(#pbbe6e9dc76)" d="M 190.074807 283.910437 
L 191.69808 283.910437 
L 191.69808 228.103874 
L 190.074807 228.103874 
z
" style="fill:#1f77b4;"/>
   </g>
   <g id="patch_90">
    <path clip-path="url(#pbbe6e9dc76)" d="M 191.69808 283.910437 
L 193.321352 283.910437 
L 193.321352 233.435711 
L 191.69808 233.435711 
z
" style="fill:#1f77b4;"/>
   </g>
   <g id="patch_91">
    <path clip-path="url(#pbbe6e9dc76)" d="M 193.321352 283.910437 
L 194.944625 283.910437 
L 194.944625 228.103874 
L 193.321352 228.103874 
z
" style="fill:#1f77b4;"/>
   </g>
   <g id="patch_92">
    <path clip-path="url(#pbbe6e9dc76)" d="M 194.944625 283.910437 
L 196.567898 283.910437 
L 196.567898 234.502078 
L 194.944625 234.502078 
z
" style="fill:#1f77b4;"/>
   </g>
   <g id="patch_93">
    <path clip-path="url(#pbbe6e9dc76)" d="M 196.567898 283.910437 
L 198.19117 283.910437 
L 198.19117 244.454841 
L 196.567898 244.454841 
z
" style="fill:#1f77b4;"/>
   </g>
   <g id="patch_94">
    <path clip-path="url(#pbbe6e9dc76)" d="M 198.19117 283.910437 
L 199.814443 283.910437 
L 199.814443 233.791167 
L 198.19117 233.791167 
z
" style="fill:#1f77b4;"/>
   </g>
   <g id="patch_95">
    <path clip-path="url(#pbbe6e9dc76)" d="M 199.814443 283.910437 
L 201.437716 283.910437 
L 201.437716 241.611195 
L 199.814443 241.611195 
z
" style="fill:#1f77b4;"/>
   </g>
   <g id="patch_96">
    <path clip-path="url(#pbbe6e9dc76)" d="M 201.437716 283.910437 
L 203.060989 283.910437 
L 203.060989 246.232121 
L 201.437716 246.232121 
z
" style="fill:#1f77b4;"/>
   </g>
   <g id="patch_97">
    <path clip-path="url(#pbbe6e9dc76)" d="M 203.060989 283.910437 
L 204.684261 283.910437 
L 204.684261 237.345725 
L 203.060989 237.345725 
z
" style="fill:#1f77b4;"/>
   </g>
   <g id="patch_98">
    <path clip-path="url(#pbbe6e9dc76)" d="M 204.684261 283.910437 
L 206.307534 283.910437 
L 206.307534 247.653944 
L 204.684261 247.653944 
z
" style="fill:#1f77b4;"/>
   </g>
   <g id="patch_99">
    <path clip-path="url(#pbbe6e9dc76)" d="M 206.307534 283.910437 
L 207.930807 283.910437 
L 207.930807 246.232121 
L 206.307534 246.232121 
z
" style="fill:#1f77b4;"/>
   </g>
   <g id="patch_100">
    <path clip-path="url(#pbbe6e9dc76)" d="M 207.930807 283.910437 
L 209.55408 283.910437 
L 209.55408 249.431223 
L 207.930807 249.431223 
z
" style="fill:#1f77b4;"/>
   </g>
   <g id="patch_101">
    <path clip-path="url(#pbbe6e9dc76)" d="M 209.55408 283.910437 
L 211.177352 283.910437 
L 211.177352 248.0094 
L 209.55408 248.0094 
z
" style="fill:#1f77b4;"/>
   </g>
   <g id="patch_102">
    <path clip-path="url(#pbbe6e9dc76)" d="M 211.177352 283.910437 
L 212.800625 283.910437 
L 212.800625 252.274869 
L 211.177352 252.274869 
z
" style="fill:#1f77b4;"/>
   </g>
   <g id="patch_103">
    <path clip-path="url(#pbbe6e9dc76)" d="M 212.800625 283.910437 
L 214.423898 283.910437 
L 214.423898 261.872177 
L 212.800625 261.872177 
z
" style="fill:#1f77b4;"/>
   </g>
   <g id="patch_104">
    <path clip-path="url(#pbbe6e9dc76)" d="M 214.423898 283.910437 
L 216.04717 283.910437 
L 216.04717 260.805809 
L 214.423898 260.805809 
z
" style="fill:#1f77b4;"/>
   </g>
   <g id="patch_105">
    <path clip-path="url(#pbbe6e9dc76)" d="M 216.04717 283.910437 
L 217.670443 283.910437 
L 217.670443 261.161265 
L 216.04717 261.161265 
z
" style="fill:#1f77b4;"/>
   </g>
   <g id="patch_106">
    <path clip-path="url(#pbbe6e9dc76)" d="M 217.670443 283.910437 
L 219.293716 283.910437 
L 219.293716 257.251251 
L 217.670443 257.251251 
z
" style="fill:#1f77b4;"/>
   </g>
   <g id="patch_107">
    <path clip-path="url(#pbbe6e9dc76)" d="M 219.293716 283.910437 
L 220.916989 283.910437 
L 220.916989 260.450353 
L 219.293716 260.450353 
z
" style="fill:#1f77b4;"/>
   </g>
   <g id="patch_108">
    <path clip-path="url(#pbbe6e9dc76)" d="M 220.916989 283.910437 
L 222.540261 283.910437 
L 222.540261 260.094898 
L 220.916989 260.094898 
z
" style="fill:#1f77b4;"/>
   </g>
   <g id="patch_109">
    <path clip-path="url(#pbbe6e9dc76)" d="M 222.540261 283.910437 
L 224.163534 283.910437 
L 224.163534 259.02853 
L 222.540261 259.02853 
z
" style="fill:#1f77b4;"/>
   </g>
   <g id="patch_110">
    <path clip-path="url(#pbbe6e9dc76)" d="M 224.163534 283.910437 
L 225.786807 283.910437 
L 225.786807 267.55947 
L 224.163534 267.55947 
z
" style="fill:#1f77b4;"/>
   </g>
   <g id="patch_111">
    <path clip-path="url(#pbbe6e9dc76)" d="M 225.786807 283.910437 
L 227.41008 283.910437 
L 227.41008 267.204014 
L 225.786807 267.204014 
z
" style="fill:#1f77b4;"/>
   </g>
   <g id="patch_112">
    <path clip-path="url(#pbbe6e9dc76)" d="M 227.41008 283.910437 
L 229.033352 283.910437 
L 229.033352 262.938544 
L 227.41008 262.938544 
z
" style="fill:#1f77b4;"/>
   </g>
   <g id="patch_113">
    <path clip-path="url(#pbbe6e9dc76)" d="M 229.033352 283.910437 
L 230.656625 283.910437 
L 230.656625 267.914926 
L 229.033352 267.914926 
z
" style="fill:#1f77b4;"/>
   </g>
   <g id="patch_114">
    <path clip-path="url(#pbbe6e9dc76)" d="M 230.656625 283.910437 
L 232.279898 283.910437 
L 232.279898 267.204014 
L 230.656625 267.204014 
z
" style="fill:#1f77b4;"/>
   </g>
   <g id="patch_115">
    <path clip-path="url(#pbbe6e9dc76)" d="M 232.279898 283.910437 
L 233.90317 283.910437 
L 233.90317 270.758572 
L 232.279898 270.758572 
z
" style="fill:#1f77b4;"/>
   </g>
   <g id="patch_116">
    <path clip-path="url(#pbbe6e9dc76)" d="M 233.90317 283.910437 
L 235.526443 283.910437 
L 235.526443 268.270381 
L 233.90317 268.270381 
z
" style="fill:#1f77b4;"/>
   </g>
   <g id="patch_117">
    <path clip-path="url(#pbbe6e9dc76)" d="M 235.526443 283.910437 
L 237.149716 283.910437 
L 237.149716 270.758572 
L 235.526443 270.758572 
z
" style="fill:#1f77b4;"/>
   </g>
   <g id="patch_118">
    <path clip-path="url(#pbbe6e9dc76)" d="M 237.149716 283.910437 
L 238.772989 283.910437 
L 238.772989 273.602219 
L 237.149716 273.602219 
z
" style="fill:#1f77b4;"/>
   </g>
   <g id="patch_119">
    <path clip-path="url(#pbbe6e9dc76)" d="M 238.772989 283.910437 
L 240.396261 283.910437 
L 240.396261 272.180395 
L 238.772989 272.180395 
z
" style="fill:#1f77b4;"/>
   </g>
   <g id="patch_120">
    <path clip-path="url(#pbbe6e9dc76)" d="M 240.396261 283.910437 
L 242.019534 283.910437 
L 242.019534 270.758572 
L 240.396261 270.758572 
z
" style="fill:#1f77b4;"/>
   </g>
   <g id="patch_121">
    <path clip-path="url(#pbbe6e9dc76)" d="M 242.019534 283.910437 
L 243.642807 283.910437 
L 243.642807 272.535851 
L 242.019534 272.535851 
z
" style="fill:#1f77b4;"/>
   </g>
   <g id="patch_122">
    <path clip-path="url(#pbbe6e9dc76)" d="M 243.642807 283.910437 
L 245.26608 283.910437 
L 245.26608 273.957675 
L 243.642807 273.957675 
z
" style="fill:#1f77b4;"/>
   </g>
   <g id="patch_123">
    <path clip-path="url(#pbbe6e9dc76)" d="M 245.26608 283.910437 
L 246.889352 283.910437 
L 246.889352 274.31313 
L 245.26608 274.31313 
z
" style="fill:#1f77b4;"/>
   </g>
   <g id="patch_124">
    <path clip-path="url(#pbbe6e9dc76)" d="M 246.889352 283.910437 
L 248.512625 283.910437 
L 248.512625 272.891307 
L 246.889352 272.891307 
z
" style="fill:#1f77b4;"/>
   </g>
   <g id="patch_125">
    <path clip-path="url(#pbbe6e9dc76)" d="M 248.512625 283.910437 
L 250.135898 283.910437 
L 250.135898 277.156777 
L 248.512625 277.156777 
z
" style="fill:#1f77b4;"/>
   </g>
   <g id="patch_126">
    <path clip-path="url(#pbbe6e9dc76)" d="M 250.135898 283.910437 
L 251.75917 283.910437 
L 251.75917 274.31313 
L 250.135898 274.31313 
z
" style="fill:#1f77b4;"/>
   </g>
   <g id="patch_127">
    <path clip-path="url(#pbbe6e9dc76)" d="M 251.75917 283.910437 
L 253.382443 283.910437 
L 253.382443 275.379498 
L 251.75917 275.379498 
z
" style="fill:#1f77b4;"/>
   </g>
   <g id="patch_128">
    <path clip-path="url(#pbbe6e9dc76)" d="M 253.382443 283.910437 
L 255.005716 283.910437 
L 255.005716 272.891307 
L 253.382443 272.891307 
z
" style="fill:#1f77b4;"/>
   </g>
   <g id="patch_129">
    <path clip-path="url(#pbbe6e9dc76)" d="M 255.005716 283.910437 
L 256.628989 283.910437 
L 256.628989 274.668586 
L 255.005716 274.668586 
z
" style="fill:#1f77b4;"/>
   </g>
   <g id="patch_130">
    <path clip-path="url(#pbbe6e9dc76)" d="M 256.628989 283.910437 
L 258.252261 283.910437 
L 258.252261 273.957675 
L 256.628989 273.957675 
z
" style="fill:#1f77b4;"/>
   </g>
   <g id="patch_131">
    <path clip-path="url(#pbbe6e9dc76)" d="M 258.252261 283.910437 
L 259.875534 283.910437 
L 259.875534 275.734954 
L 258.252261 275.734954 
z
" style="fill:#1f77b4;"/>
   </g>
   <g id="patch_132">
    <path clip-path="url(#pbbe6e9dc76)" d="M 259.875534 283.910437 
L 261.498807 283.910437 
L 261.498807 278.223144 
L 259.875534 278.223144 
z
" style="fill:#1f77b4;"/>
   </g>
   <g id="patch_133">
    <path clip-path="url(#pbbe6e9dc76)" d="M 261.498807 283.910437 
L 263.12208 283.910437 
L 263.12208 278.223144 
L 261.498807 278.223144 
z
" style="fill:#1f77b4;"/>
   </g>
   <g id="patch_134">
    <path clip-path="url(#pbbe6e9dc76)" d="M 263.12208 283.910437 
L 264.745352 283.910437 
L 264.745352 278.223144 
L 263.12208 278.223144 
z
" style="fill:#1f77b4;"/>
   </g>
   <g id="patch_135">
    <path clip-path="url(#pbbe6e9dc76)" d="M 264.745352 283.910437 
L 266.368625 283.910437 
L 266.368625 280.355879 
L 264.745352 280.355879 
z
" style="fill:#1f77b4;"/>
   </g>
   <g id="patch_136">
    <path clip-path="url(#pbbe6e9dc76)" d="M 266.368625 283.910437 
L 267.991898 283.910437 
L 267.991898 280.000423 
L 266.368625 280.000423 
z
" style="fill:#1f77b4;"/>
   </g>
   <g id="patch_137">
    <path clip-path="url(#pbbe6e9dc76)" d="M 267.991898 283.910437 
L 269.61517 283.910437 
L 269.61517 280.000423 
L 267.991898 280.000423 
z
" style="fill:#1f77b4;"/>
   </g>
   <g id="patch_138">
    <path clip-path="url(#pbbe6e9dc76)" d="M 269.61517 283.910437 
L 271.238443 283.910437 
L 271.238443 279.644968 
L 269.61517 279.644968 
z
" style="fill:#1f77b4;"/>
   </g>
   <g id="patch_139">
    <path clip-path="url(#pbbe6e9dc76)" d="M 271.238443 283.910437 
L 272.861716 283.910437 
L 272.861716 279.289512 
L 271.238443 279.289512 
z
" style="fill:#1f77b4;"/>
   </g>
   <g id="patch_140">
    <path clip-path="url(#pbbe6e9dc76)" d="M 272.861716 283.910437 
L 274.484989 283.910437 
L 274.484989 279.644968 
L 272.861716 279.644968 
z
" style="fill:#1f77b4;"/>
   </g>
   <g id="patch_141">
    <path clip-path="url(#pbbe6e9dc76)" d="M 274.484989 283.910437 
L 276.108261 283.910437 
L 276.108261 280.355879 
L 274.484989 280.355879 
z
" style="fill:#1f77b4;"/>
   </g>
   <g id="patch_142">
    <path clip-path="url(#pbbe6e9dc76)" d="M 276.108261 283.910437 
L 277.731534 283.910437 
L 277.731534 280.355879 
L 276.108261 280.355879 
z
" style="fill:#1f77b4;"/>
   </g>
   <g id="patch_143">
    <path clip-path="url(#pbbe6e9dc76)" d="M 277.731534 283.910437 
L 279.354807 283.910437 
L 279.354807 281.777703 
L 277.731534 281.777703 
z
" style="fill:#1f77b4;"/>
   </g>
   <g id="patch_144">
    <path clip-path="url(#pbbe6e9dc76)" d="M 279.354807 283.910437 
L 280.97808 283.910437 
L 280.97808 280.355879 
L 279.354807 280.355879 
z
" style="fill:#1f77b4;"/>
   </g>
   <g id="patch_145">
    <path clip-path="url(#pbbe6e9dc76)" d="M 280.97808 283.910437 
L 282.601352 283.910437 
L 282.601352 281.777703 
L 280.97808 281.777703 
z
" style="fill:#1f77b4;"/>
   </g>
   <g id="patch_146">
    <path clip-path="url(#pbbe6e9dc76)" d="M 282.601352 283.910437 
L 284.224625 283.910437 
L 284.224625 282.133158 
L 282.601352 282.133158 
z
" style="fill:#1f77b4;"/>
   </g>
   <g id="patch_147">
    <path clip-path="url(#pbbe6e9dc76)" d="M 284.224625 283.910437 
L 285.847898 283.910437 
L 285.847898 283.199526 
L 284.224625 283.199526 
z
" style="fill:#1f77b4;"/>
   </g>
   <g id="patch_148">
    <path clip-path="url(#pbbe6e9dc76)" d="M 285.847898 283.910437 
L 287.47117 283.910437 
L 287.47117 281.777703 
L 285.847898 281.777703 
z
" style="fill:#1f77b4;"/>
   </g>
   <g id="patch_149">
    <path clip-path="url(#pbbe6e9dc76)" d="M 287.47117 283.910437 
L 289.094443 283.910437 
L 289.094443 280.000423 
L 287.47117 280.000423 
z
" style="fill:#1f77b4;"/>
   </g>
   <g id="patch_150">
    <path clip-path="url(#pbbe6e9dc76)" d="M 289.094443 283.910437 
L 290.717716 283.910437 
L 290.717716 282.133158 
L 289.094443 282.133158 
z
" style="fill:#1f77b4;"/>
   </g>
   <g id="patch_151">
    <path clip-path="url(#pbbe6e9dc76)" d="M 290.717716 283.910437 
L 292.340989 283.910437 
L 292.340989 281.422247 
L 290.717716 281.422247 
z
" style="fill:#1f77b4;"/>
   </g>
   <g id="patch_152">
    <path clip-path="url(#pbbe6e9dc76)" d="M 292.340989 283.910437 
L 293.964261 283.910437 
L 293.964261 281.777703 
L 292.340989 281.777703 
z
" style="fill:#1f77b4;"/>
   </g>
   <g id="patch_153">
    <path clip-path="url(#pbbe6e9dc76)" d="M 293.964261 283.910437 
L 295.587534 283.910437 
L 295.587534 281.777703 
L 293.964261 281.777703 
z
" style="fill:#1f77b4;"/>
   </g>
   <g id="patch_154">
    <path clip-path="url(#pbbe6e9dc76)" d="M 295.587534 283.910437 
L 297.210807 283.910437 
L 297.210807 282.133158 
L 295.587534 282.133158 
z
" style="fill:#1f77b4;"/>
   </g>
   <g id="patch_155">
    <path clip-path="url(#pbbe6e9dc76)" d="M 297.210807 283.910437 
L 298.83408 283.910437 
L 298.83408 282.84407 
L 297.210807 282.84407 
z
" style="fill:#1f77b4;"/>
   </g>
   <g id="patch_156">
    <path clip-path="url(#pbbe6e9dc76)" d="M 298.83408 283.910437 
L 300.457352 283.910437 
L 300.457352 281.066791 
L 298.83408 281.066791 
z
" style="fill:#1f77b4;"/>
   </g>
   <g id="patch_157">
    <path clip-path="url(#pbbe6e9dc76)" d="M 300.457352 283.910437 
L 302.080625 283.910437 
L 302.080625 282.488614 
L 300.457352 282.488614 
z
" style="fill:#1f77b4;"/>
   </g>
   <g id="patch_158">
    <path clip-path="url(#pbbe6e9dc76)" d="M 302.080625 283.910437 
L 303.703898 283.910437 
L 303.703898 282.84407 
L 302.080625 282.84407 
z
" style="fill:#1f77b4;"/>
   </g>
   <g id="patch_159">
    <path clip-path="url(#pbbe6e9dc76)" d="M 303.703898 283.910437 
L 305.32717 283.910437 
L 305.32717 282.488614 
L 303.703898 282.488614 
z
" style="fill:#1f77b4;"/>
   </g>
   <g id="patch_160">
    <path clip-path="url(#pbbe6e9dc76)" d="M 305.32717 283.910437 
L 306.950443 283.910437 
L 306.950443 282.133158 
L 305.32717 282.133158 
z
" style="fill:#1f77b4;"/>
   </g>
   <g id="patch_161">
    <path clip-path="url(#pbbe6e9dc76)" d="M 306.950443 283.910437 
L 308.573716 283.910437 
L 308.573716 282.488614 
L 306.950443 282.488614 
z
" style="fill:#1f77b4;"/>
   </g>
   <g id="patch_162">
    <path clip-path="url(#pbbe6e9dc76)" d="M 308.573716 283.910437 
L 310.196989 283.910437 
L 310.196989 283.554982 
L 308.573716 283.554982 
z
" style="fill:#1f77b4;"/>
   </g>
   <g id="patch_163">
    <path clip-path="url(#pbbe6e9dc76)" d="M 310.196989 283.910437 
L 311.820261 283.910437 
L 311.820261 283.554982 
L 310.196989 283.554982 
z
" style="fill:#1f77b4;"/>
   </g>
   <g id="patch_164">
    <path clip-path="url(#pbbe6e9dc76)" d="M 311.820261 283.910437 
L 313.443534 283.910437 
L 313.443534 283.910437 
L 311.820261 283.910437 
z
" style="fill:#1f77b4;"/>
   </g>
   <g id="patch_165">
    <path clip-path="url(#pbbe6e9dc76)" d="M 313.443534 283.910437 
L 315.066807 283.910437 
L 315.066807 283.554982 
L 313.443534 283.554982 
z
" style="fill:#1f77b4;"/>
   </g>
   <g id="patch_166">
    <path clip-path="url(#pbbe6e9dc76)" d="M 315.066807 283.910437 
L 316.69008 283.910437 
L 316.69008 283.554982 
L 315.066807 283.554982 
z
" style="fill:#1f77b4;"/>
   </g>
   <g id="patch_167">
    <path clip-path="url(#pbbe6e9dc76)" d="M 316.69008 283.910437 
L 318.313352 283.910437 
L 318.313352 282.84407 
L 316.69008 282.84407 
z
" style="fill:#1f77b4;"/>
   </g>
   <g id="patch_168">
    <path clip-path="url(#pbbe6e9dc76)" d="M 318.313352 283.910437 
L 319.936625 283.910437 
L 319.936625 283.910437 
L 318.313352 283.910437 
z
" style="fill:#1f77b4;"/>
   </g>
   <g id="patch_169">
    <path clip-path="url(#pbbe6e9dc76)" d="M 319.936625 283.910437 
L 321.559898 283.910437 
L 321.559898 282.84407 
L 319.936625 282.84407 
z
" style="fill:#1f77b4;"/>
   </g>
   <g id="patch_170">
    <path clip-path="url(#pbbe6e9dc76)" d="M 321.559898 283.910437 
L 323.18317 283.910437 
L 323.18317 283.910437 
L 321.559898 283.910437 
z
" style="fill:#1f77b4;"/>
   </g>
   <g id="patch_171">
    <path clip-path="url(#pbbe6e9dc76)" d="M 323.18317 283.910437 
L 324.806443 283.910437 
L 324.806443 283.199526 
L 323.18317 283.199526 
z
" style="fill:#1f77b4;"/>
   </g>
   <g id="patch_172">
    <path clip-path="url(#pbbe6e9dc76)" d="M 324.806443 283.910437 
L 326.429716 283.910437 
L 326.429716 283.554982 
L 324.806443 283.554982 
z
" style="fill:#1f77b4;"/>
   </g>
   <g id="patch_173">
    <path clip-path="url(#pbbe6e9dc76)" d="M 326.429716 283.910437 
L 328.052989 283.910437 
L 328.052989 283.199526 
L 326.429716 283.199526 
z
" style="fill:#1f77b4;"/>
   </g>
   <g id="patch_174">
    <path clip-path="url(#pbbe6e9dc76)" d="M 328.052989 283.910437 
L 329.676261 283.910437 
L 329.676261 283.199526 
L 328.052989 283.199526 
z
" style="fill:#1f77b4;"/>
   </g>
   <g id="patch_175">
    <path clip-path="url(#pbbe6e9dc76)" d="M 329.676261 283.910437 
L 331.299534 283.910437 
L 331.299534 283.910437 
L 329.676261 283.910437 
z
" style="fill:#1f77b4;"/>
   </g>
   <g id="patch_176">
    <path clip-path="url(#pbbe6e9dc76)" d="M 331.299534 283.910437 
L 332.922807 283.910437 
L 332.922807 282.84407 
L 331.299534 282.84407 
z
" style="fill:#1f77b4;"/>
   </g>
   <g id="patch_177">
    <path clip-path="url(#pbbe6e9dc76)" d="M 332.922807 283.910437 
L 334.54608 283.910437 
L 334.54608 283.554982 
L 332.922807 283.554982 
z
" style="fill:#1f77b4;"/>
   </g>
   <g id="patch_178">
    <path clip-path="url(#pbbe6e9dc76)" d="M 334.54608 283.910437 
L 336.169352 283.910437 
L 336.169352 283.199526 
L 334.54608 283.199526 
z
" style="fill:#1f77b4;"/>
   </g>
   <g id="patch_179">
    <path clip-path="url(#pbbe6e9dc76)" d="M 336.169352 283.910437 
L 337.792625 283.910437 
L 337.792625 283.199526 
L 336.169352 283.199526 
z
" style="fill:#1f77b4;"/>
   </g>
   <g id="patch_180">
    <path clip-path="url(#pbbe6e9dc76)" d="M 337.792625 283.910437 
L 339.415898 283.910437 
L 339.415898 283.199526 
L 337.792625 283.199526 
z
" style="fill:#1f77b4;"/>
   </g>
   <g id="patch_181">
    <path clip-path="url(#pbbe6e9dc76)" d="M 339.415898 283.910437 
L 341.03917 283.910437 
L 341.03917 283.554982 
L 339.415898 283.554982 
z
" style="fill:#1f77b4;"/>
   </g>
   <g id="patch_182">
    <path clip-path="url(#pbbe6e9dc76)" d="M 341.03917 283.910437 
L 342.662443 283.910437 
L 342.662443 283.554982 
L 341.03917 283.554982 
z
" style="fill:#1f77b4;"/>
   </g>
   <g id="patch_183">
    <path clip-path="url(#pbbe6e9dc76)" d="M 342.662443 283.910437 
L 344.285716 283.910437 
L 344.285716 283.554982 
L 342.662443 283.554982 
z
" style="fill:#1f77b4;"/>
   </g>
   <g id="patch_184">
    <path clip-path="url(#pbbe6e9dc76)" d="M 344.285716 283.910437 
L 345.908989 283.910437 
L 345.908989 283.910437 
L 344.285716 283.910437 
z
" style="fill:#1f77b4;"/>
   </g>
   <g id="patch_185">
    <path clip-path="url(#pbbe6e9dc76)" d="M 345.908989 283.910437 
L 347.532261 283.910437 
L 347.532261 283.910437 
L 345.908989 283.910437 
z
" style="fill:#1f77b4;"/>
   </g>
   <g id="patch_186">
    <path clip-path="url(#pbbe6e9dc76)" d="M 347.532261 283.910437 
L 349.155534 283.910437 
L 349.155534 283.554982 
L 347.532261 283.554982 
z
" style="fill:#1f77b4;"/>
   </g>
   <g id="patch_187">
    <path clip-path="url(#pbbe6e9dc76)" d="M 349.155534 283.910437 
L 350.778807 283.910437 
L 350.778807 283.910437 
L 349.155534 283.910437 
z
" style="fill:#1f77b4;"/>
   </g>
   <g id="patch_188">
    <path clip-path="url(#pbbe6e9dc76)" d="M 350.778807 283.910437 
L 352.40208 283.910437 
L 352.40208 283.910437 
L 350.778807 283.910437 
z
" style="fill:#1f77b4;"/>
   </g>
   <g id="patch_189">
    <path clip-path="url(#pbbe6e9dc76)" d="M 352.40208 283.910437 
L 354.025352 283.910437 
L 354.025352 283.554982 
L 352.40208 283.554982 
z
" style="fill:#1f77b4;"/>
   </g>
   <g id="patch_190">
    <path clip-path="url(#pbbe6e9dc76)" d="M 354.025352 283.910437 
L 355.648625 283.910437 
L 355.648625 283.910437 
L 354.025352 283.910437 
z
" style="fill:#1f77b4;"/>
   </g>
   <g id="patch_191">
    <path clip-path="url(#pbbe6e9dc76)" d="M 355.648625 283.910437 
L 357.271898 283.910437 
L 357.271898 283.199526 
L 355.648625 283.199526 
z
" style="fill:#1f77b4;"/>
   </g>
   <g id="patch_192">
    <path clip-path="url(#pbbe6e9dc76)" d="M 357.271898 283.910437 
L 358.89517 283.910437 
L 358.89517 283.554982 
L 357.271898 283.554982 
z
" style="fill:#1f77b4;"/>
   </g>
   <g id="patch_193">
    <path clip-path="url(#pbbe6e9dc76)" d="M 358.89517 283.910437 
L 360.518443 283.910437 
L 360.518443 283.554982 
L 358.89517 283.554982 
z
" style="fill:#1f77b4;"/>
   </g>
   <g id="patch_194">
    <path clip-path="url(#pbbe6e9dc76)" d="M 360.518443 283.910437 
L 362.141716 283.910437 
L 362.141716 283.910437 
L 360.518443 283.910437 
z
" style="fill:#1f77b4;"/>
   </g>
   <g id="patch_195">
    <path clip-path="url(#pbbe6e9dc76)" d="M 362.141716 283.910437 
L 363.764989 283.910437 
L 363.764989 283.554982 
L 362.141716 283.554982 
z
" style="fill:#1f77b4;"/>
   </g>
   <g id="patch_196">
    <path clip-path="url(#pbbe6e9dc76)" d="M 363.764989 283.910437 
L 365.388261 283.910437 
L 365.388261 283.910437 
L 363.764989 283.910437 
z
" style="fill:#1f77b4;"/>
   </g>
   <g id="patch_197">
    <path clip-path="url(#pbbe6e9dc76)" d="M 365.388261 283.910437 
L 367.011534 283.910437 
L 367.011534 283.910437 
L 365.388261 283.910437 
z
" style="fill:#1f77b4;"/>
   </g>
   <g id="patch_198">
    <path clip-path="url(#pbbe6e9dc76)" d="M 367.011534 283.910437 
L 368.634807 283.910437 
L 368.634807 283.910437 
L 367.011534 283.910437 
z
" style="fill:#1f77b4;"/>
   </g>
   <g id="patch_199">
    <path clip-path="url(#pbbe6e9dc76)" d="M 368.634807 283.910437 
L 370.25808 283.910437 
L 370.25808 283.554982 
L 368.634807 283.554982 
z
" style="fill:#1f77b4;"/>
   </g>
   <g id="patch_200">
    <path clip-path="url(#pbbe6e9dc76)" d="M 370.25808 283.910437 
L 371.881352 283.910437 
L 371.881352 283.199526 
L 370.25808 283.199526 
z
" style="fill:#1f77b4;"/>
   </g>
   <g id="patch_201">
    <path clip-path="url(#pbbe6e9dc76)" d="M 371.881352 283.910437 
L 373.504625 283.910437 
L 373.504625 283.910437 
L 371.881352 283.910437 
z
" style="fill:#1f77b4;"/>
   </g>
   <g id="patch_202">
    <path clip-path="url(#pbbe6e9dc76)" d="M 373.504625 283.910437 
L 375.127898 283.910437 
L 375.127898 283.554982 
L 373.504625 283.554982 
z
" style="fill:#1f77b4;"/>
   </g>
   <g id="matplotlib.axis_1">
    <g id="xtick_1">
     <g id="line2d_1">
      <defs>
       <path d="M 0 0 
L 0 3.5 
" id="mcb702c888e" style="stroke:#000000;stroke-width:0.8;"/>
      </defs>
      <g>
       <use style="stroke:#000000;stroke-width:0.8;" x="49.38721" xlink:href="#mcb702c888e" y="283.910437"/>
      </g>
     </g>
     <g id="text_1">
      <!-- 0.0 -->
      <g transform="translate(41.435648 298.508875)scale(0.1 -0.1)">
       <defs>
        <path d="M 2034 4250 
Q 1547 4250 1301 3770 
Q 1056 3291 1056 2328 
Q 1056 1369 1301 889 
Q 1547 409 2034 409 
Q 2525 409 2770 889 
Q 3016 1369 3016 2328 
Q 3016 3291 2770 3770 
Q 2525 4250 2034 4250 
z
M 2034 4750 
Q 2819 4750 3233 4129 
Q 3647 3509 3647 2328 
Q 3647 1150 3233 529 
Q 2819 -91 2034 -91 
Q 1250 -91 836 529 
Q 422 1150 422 2328 
Q 422 3509 836 4129 
Q 1250 4750 2034 4750 
z
" id="DejaVuSans-30" transform="scale(0.015625)"/>
        <path d="M 684 794 
L 1344 794 
L 1344 0 
L 684 0 
L 684 794 
z
" id="DejaVuSans-2e" transform="scale(0.015625)"/>
       </defs>
       <use xlink:href="#DejaVuSans-30"/>
       <use x="63.623047" xlink:href="#DejaVuSans-2e"/>
       <use x="95.410156" xlink:href="#DejaVuSans-30"/>
      </g>
     </g>
    </g>
    <g id="xtick_2">
     <g id="line2d_2">
      <g>
       <use style="stroke:#000000;stroke-width:0.8;" x="98.366987" xlink:href="#mcb702c888e" y="283.910437"/>
      </g>
     </g>
     <g id="text_2">
      <!-- 0.5 -->
      <g transform="translate(90.415424 298.508875)scale(0.1 -0.1)">
       <defs>
        <path d="M 691 4666 
L 3169 4666 
L 3169 4134 
L 1269 4134 
L 1269 2991 
Q 1406 3038 1543 3061 
Q 1681 3084 1819 3084 
Q 2600 3084 3056 2656 
Q 3513 2228 3513 1497 
Q 3513 744 3044 326 
Q 2575 -91 1722 -91 
Q 1428 -91 1123 -41 
Q 819 9 494 109 
L 494 744 
Q 775 591 1075 516 
Q 1375 441 1709 441 
Q 2250 441 2565 725 
Q 2881 1009 2881 1497 
Q 2881 1984 2565 2268 
Q 2250 2553 1709 2553 
Q 1456 2553 1204 2497 
Q 953 2441 691 2322 
L 691 4666 
z
" id="DejaVuSans-35" transform="scale(0.015625)"/>
       </defs>
       <use xlink:href="#DejaVuSans-30"/>
       <use x="63.623047" xlink:href="#DejaVuSans-2e"/>
       <use x="95.410156" xlink:href="#DejaVuSans-35"/>
      </g>
     </g>
    </g>
    <g id="xtick_3">
     <g id="line2d_3">
      <g>
       <use style="stroke:#000000;stroke-width:0.8;" x="147.346763" xlink:href="#mcb702c888e" y="283.910437"/>
      </g>
     </g>
     <g id="text_3">
      <!-- 1.0 -->
      <g transform="translate(139.3952 298.508875)scale(0.1 -0.1)">
       <defs>
        <path d="M 794 531 
L 1825 531 
L 1825 4091 
L 703 3866 
L 703 4441 
L 1819 4666 
L 2450 4666 
L 2450 531 
L 3481 531 
L 3481 0 
L 794 0 
L 794 531 
z
" id="DejaVuSans-31" transform="scale(0.015625)"/>
       </defs>
       <use xlink:href="#DejaVuSans-31"/>
       <use x="63.623047" xlink:href="#DejaVuSans-2e"/>
       <use x="95.410156" xlink:href="#DejaVuSans-30"/>
      </g>
     </g>
    </g>
    <g id="xtick_4">
     <g id="line2d_4">
      <g>
       <use style="stroke:#000000;stroke-width:0.8;" x="196.326539" xlink:href="#mcb702c888e" y="283.910437"/>
      </g>
     </g>
     <g id="text_4">
      <!-- 1.5 -->
      <g transform="translate(188.374976 298.508875)scale(0.1 -0.1)">
       <use xlink:href="#DejaVuSans-31"/>
       <use x="63.623047" xlink:href="#DejaVuSans-2e"/>
       <use x="95.410156" xlink:href="#DejaVuSans-35"/>
      </g>
     </g>
    </g>
    <g id="xtick_5">
     <g id="line2d_5">
      <g>
       <use style="stroke:#000000;stroke-width:0.8;" x="245.306315" xlink:href="#mcb702c888e" y="283.910437"/>
      </g>
     </g>
     <g id="text_5">
      <!-- 2.0 -->
      <g transform="translate(237.354752 298.508875)scale(0.1 -0.1)">
       <defs>
        <path d="M 1228 531 
L 3431 531 
L 3431 0 
L 469 0 
L 469 531 
Q 828 903 1448 1529 
Q 2069 2156 2228 2338 
Q 2531 2678 2651 2914 
Q 2772 3150 2772 3378 
Q 2772 3750 2511 3984 
Q 2250 4219 1831 4219 
Q 1534 4219 1204 4116 
Q 875 4013 500 3803 
L 500 4441 
Q 881 4594 1212 4672 
Q 1544 4750 1819 4750 
Q 2544 4750 2975 4387 
Q 3406 4025 3406 3419 
Q 3406 3131 3298 2873 
Q 3191 2616 2906 2266 
Q 2828 2175 2409 1742 
Q 1991 1309 1228 531 
z
" id="DejaVuSans-32" transform="scale(0.015625)"/>
       </defs>
       <use xlink:href="#DejaVuSans-32"/>
       <use x="63.623047" xlink:href="#DejaVuSans-2e"/>
       <use x="95.410156" xlink:href="#DejaVuSans-30"/>
      </g>
     </g>
    </g>
    <g id="xtick_6">
     <g id="line2d_6">
      <g>
       <use style="stroke:#000000;stroke-width:0.8;" x="294.286091" xlink:href="#mcb702c888e" y="283.910437"/>
      </g>
     </g>
     <g id="text_6">
      <!-- 2.5 -->
      <g transform="translate(286.334529 298.508875)scale(0.1 -0.1)">
       <use xlink:href="#DejaVuSans-32"/>
       <use x="63.623047" xlink:href="#DejaVuSans-2e"/>
       <use x="95.410156" xlink:href="#DejaVuSans-35"/>
      </g>
     </g>
    </g>
    <g id="xtick_7">
     <g id="line2d_7">
      <g>
       <use style="stroke:#000000;stroke-width:0.8;" x="343.265867" xlink:href="#mcb702c888e" y="283.910437"/>
      </g>
     </g>
     <g id="text_7">
      <!-- 3.0 -->
      <g transform="translate(335.314305 298.508875)scale(0.1 -0.1)">
       <defs>
        <path d="M 2597 2516 
Q 3050 2419 3304 2112 
Q 3559 1806 3559 1356 
Q 3559 666 3084 287 
Q 2609 -91 1734 -91 
Q 1441 -91 1130 -33 
Q 819 25 488 141 
L 488 750 
Q 750 597 1062 519 
Q 1375 441 1716 441 
Q 2309 441 2620 675 
Q 2931 909 2931 1356 
Q 2931 1769 2642 2001 
Q 2353 2234 1838 2234 
L 1294 2234 
L 1294 2753 
L 1863 2753 
Q 2328 2753 2575 2939 
Q 2822 3125 2822 3475 
Q 2822 3834 2567 4026 
Q 2313 4219 1838 4219 
Q 1578 4219 1281 4162 
Q 984 4106 628 3988 
L 628 4550 
Q 988 4650 1302 4700 
Q 1616 4750 1894 4750 
Q 2613 4750 3031 4423 
Q 3450 4097 3450 3541 
Q 3450 3153 3228 2886 
Q 3006 2619 2597 2516 
z
" id="DejaVuSans-33" transform="scale(0.015625)"/>
       </defs>
       <use xlink:href="#DejaVuSans-33"/>
       <use x="63.623047" xlink:href="#DejaVuSans-2e"/>
       <use x="95.410156" xlink:href="#DejaVuSans-30"/>
      </g>
     </g>
    </g>
    <g id="text_8">
     <!-- Frequency (Hz) -->
     <g transform="translate(175.095938 312.187)scale(0.1 -0.1)">
      <defs>
       <path d="M 628 4666 
L 3309 4666 
L 3309 4134 
L 1259 4134 
L 1259 2759 
L 3109 2759 
L 3109 2228 
L 1259 2228 
L 1259 0 
L 628 0 
L 628 4666 
z
" id="DejaVuSans-46" transform="scale(0.015625)"/>
       <path d="M 2631 2963 
Q 2534 3019 2420 3045 
Q 2306 3072 2169 3072 
Q 1681 3072 1420 2755 
Q 1159 2438 1159 1844 
L 1159 0 
L 581 0 
L 581 3500 
L 1159 3500 
L 1159 2956 
Q 1341 3275 1631 3429 
Q 1922 3584 2338 3584 
Q 2397 3584 2469 3576 
Q 2541 3569 2628 3553 
L 2631 2963 
z
" id="DejaVuSans-72" transform="scale(0.015625)"/>
       <path d="M 3597 1894 
L 3597 1613 
L 953 1613 
Q 991 1019 1311 708 
Q 1631 397 2203 397 
Q 2534 397 2845 478 
Q 3156 559 3463 722 
L 3463 178 
Q 3153 47 2828 -22 
Q 2503 -91 2169 -91 
Q 1331 -91 842 396 
Q 353 884 353 1716 
Q 353 2575 817 3079 
Q 1281 3584 2069 3584 
Q 2775 3584 3186 3129 
Q 3597 2675 3597 1894 
z
M 3022 2063 
Q 3016 2534 2758 2815 
Q 2500 3097 2075 3097 
Q 1594 3097 1305 2825 
Q 1016 2553 972 2059 
L 3022 2063 
z
" id="DejaVuSans-65" transform="scale(0.015625)"/>
       <path d="M 947 1747 
Q 947 1113 1208 752 
Q 1469 391 1925 391 
Q 2381 391 2643 752 
Q 2906 1113 2906 1747 
Q 2906 2381 2643 2742 
Q 2381 3103 1925 3103 
Q 1469 3103 1208 2742 
Q 947 2381 947 1747 
z
M 2906 525 
Q 2725 213 2448 61 
Q 2172 -91 1784 -91 
Q 1150 -91 751 415 
Q 353 922 353 1747 
Q 353 2572 751 3078 
Q 1150 3584 1784 3584 
Q 2172 3584 2448 3432 
Q 2725 3281 2906 2969 
L 2906 3500 
L 3481 3500 
L 3481 -1331 
L 2906 -1331 
L 2906 525 
z
" id="DejaVuSans-71" transform="scale(0.015625)"/>
       <path d="M 544 1381 
L 544 3500 
L 1119 3500 
L 1119 1403 
Q 1119 906 1312 657 
Q 1506 409 1894 409 
Q 2359 409 2629 706 
Q 2900 1003 2900 1516 
L 2900 3500 
L 3475 3500 
L 3475 0 
L 2900 0 
L 2900 538 
Q 2691 219 2414 64 
Q 2138 -91 1772 -91 
Q 1169 -91 856 284 
Q 544 659 544 1381 
z
M 1991 3584 
L 1991 3584 
z
" id="DejaVuSans-75" transform="scale(0.015625)"/>
       <path d="M 3513 2113 
L 3513 0 
L 2938 0 
L 2938 2094 
Q 2938 2591 2744 2837 
Q 2550 3084 2163 3084 
Q 1697 3084 1428 2787 
Q 1159 2491 1159 1978 
L 1159 0 
L 581 0 
L 581 3500 
L 1159 3500 
L 1159 2956 
Q 1366 3272 1645 3428 
Q 1925 3584 2291 3584 
Q 2894 3584 3203 3211 
Q 3513 2838 3513 2113 
z
" id="DejaVuSans-6e" transform="scale(0.015625)"/>
       <path d="M 3122 3366 
L 3122 2828 
Q 2878 2963 2633 3030 
Q 2388 3097 2138 3097 
Q 1578 3097 1268 2742 
Q 959 2388 959 1747 
Q 959 1106 1268 751 
Q 1578 397 2138 397 
Q 2388 397 2633 464 
Q 2878 531 3122 666 
L 3122 134 
Q 2881 22 2623 -34 
Q 2366 -91 2075 -91 
Q 1284 -91 818 406 
Q 353 903 353 1747 
Q 353 2603 823 3093 
Q 1294 3584 2113 3584 
Q 2378 3584 2631 3529 
Q 2884 3475 3122 3366 
z
" id="DejaVuSans-63" transform="scale(0.015625)"/>
       <path d="M 2059 -325 
Q 1816 -950 1584 -1140 
Q 1353 -1331 966 -1331 
L 506 -1331 
L 506 -850 
L 844 -850 
Q 1081 -850 1212 -737 
Q 1344 -625 1503 -206 
L 1606 56 
L 191 3500 
L 800 3500 
L 1894 763 
L 2988 3500 
L 3597 3500 
L 2059 -325 
z
" id="DejaVuSans-79" transform="scale(0.015625)"/>
       <path id="DejaVuSans-20" transform="scale(0.015625)"/>
       <path d="M 1984 4856 
Q 1566 4138 1362 3434 
Q 1159 2731 1159 2009 
Q 1159 1288 1364 580 
Q 1569 -128 1984 -844 
L 1484 -844 
Q 1016 -109 783 600 
Q 550 1309 550 2009 
Q 550 2706 781 3412 
Q 1013 4119 1484 4856 
L 1984 4856 
z
" id="DejaVuSans-28" transform="scale(0.015625)"/>
       <path d="M 628 4666 
L 1259 4666 
L 1259 2753 
L 3553 2753 
L 3553 4666 
L 4184 4666 
L 4184 0 
L 3553 0 
L 3553 2222 
L 1259 2222 
L 1259 0 
L 628 0 
L 628 4666 
z
" id="DejaVuSans-48" transform="scale(0.015625)"/>
       <path d="M 353 3500 
L 3084 3500 
L 3084 2975 
L 922 459 
L 3084 459 
L 3084 0 
L 275 0 
L 275 525 
L 2438 3041 
L 353 3041 
L 353 3500 
z
" id="DejaVuSans-7a" transform="scale(0.015625)"/>
       <path d="M 513 4856 
L 1013 4856 
Q 1481 4119 1714 3412 
Q 1947 2706 1947 2009 
Q 1947 1309 1714 600 
Q 1481 -109 1013 -844 
L 513 -844 
Q 928 -128 1133 580 
Q 1338 1288 1338 2009 
Q 1338 2731 1133 3434 
Q 928 4138 513 4856 
z
" id="DejaVuSans-29" transform="scale(0.015625)"/>
      </defs>
      <use xlink:href="#DejaVuSans-46"/>
      <use x="50.269531" xlink:href="#DejaVuSans-72"/>
      <use x="89.132812" xlink:href="#DejaVuSans-65"/>
      <use x="150.65625" xlink:href="#DejaVuSans-71"/>
      <use x="214.132812" xlink:href="#DejaVuSans-75"/>
      <use x="277.511719" xlink:href="#DejaVuSans-65"/>
      <use x="339.035156" xlink:href="#DejaVuSans-6e"/>
      <use x="402.414062" xlink:href="#DejaVuSans-63"/>
      <use x="457.394531" xlink:href="#DejaVuSans-79"/>
      <use x="516.574219" xlink:href="#DejaVuSans-20"/>
      <use x="548.361328" xlink:href="#DejaVuSans-28"/>
      <use x="587.375" xlink:href="#DejaVuSans-48"/>
      <use x="662.570312" xlink:href="#DejaVuSans-7a"/>
      <use x="715.060547" xlink:href="#DejaVuSans-29"/>
     </g>
    </g>
    <g id="text_9">
     <!-- 1e15 -->
     <g transform="translate(366.12 311.187)scale(0.1 -0.1)">
      <use xlink:href="#DejaVuSans-31"/>
      <use x="63.623047" xlink:href="#DejaVuSans-65"/>
      <use x="125.146484" xlink:href="#DejaVuSans-31"/>
      <use x="188.769531" xlink:href="#DejaVuSans-35"/>
     </g>
    </g>
   </g>
   <g id="matplotlib.axis_2">
    <g id="ytick_1">
     <g id="line2d_8">
      <defs>
       <path d="M 0 0 
L -3.5 0 
" id="m141a73e6b1" style="stroke:#000000;stroke-width:0.8;"/>
      </defs>
      <g>
       <use style="stroke:#000000;stroke-width:0.8;" x="34.240625" xlink:href="#m141a73e6b1" y="283.910437"/>
      </g>
     </g>
     <g id="text_10">
      <!-- 0 -->
      <g transform="translate(20.878125 287.709656)scale(0.1 -0.1)">
       <use xlink:href="#DejaVuSans-30"/>
      </g>
     </g>
    </g>
    <g id="ytick_2">
     <g id="line2d_9">
      <g>
       <use style="stroke:#000000;stroke-width:0.8;" x="34.240625" xlink:href="#m141a73e6b1" y="250.082992"/>
      </g>
     </g>
     <g id="text_11">
      <!-- 1 -->
      <g transform="translate(20.878125 253.882211)scale(0.1 -0.1)">
       <use xlink:href="#DejaVuSans-31"/>
      </g>
     </g>
    </g>
    <g id="ytick_3">
     <g id="line2d_10">
      <g>
       <use style="stroke:#000000;stroke-width:0.8;" x="34.240625" xlink:href="#m141a73e6b1" y="216.255547"/>
      </g>
     </g>
     <g id="text_12">
      <!-- 2 -->
      <g transform="translate(20.878125 220.054766)scale(0.1 -0.1)">
       <use xlink:href="#DejaVuSans-32"/>
      </g>
     </g>
    </g>
    <g id="ytick_4">
     <g id="line2d_11">
      <g>
       <use style="stroke:#000000;stroke-width:0.8;" x="34.240625" xlink:href="#m141a73e6b1" y="182.428101"/>
      </g>
     </g>
     <g id="text_13">
      <!-- 3 -->
      <g transform="translate(20.878125 186.22732)scale(0.1 -0.1)">
       <use xlink:href="#DejaVuSans-33"/>
      </g>
     </g>
    </g>
    <g id="ytick_5">
     <g id="line2d_12">
      <g>
       <use style="stroke:#000000;stroke-width:0.8;" x="34.240625" xlink:href="#m141a73e6b1" y="148.600656"/>
      </g>
     </g>
     <g id="text_14">
      <!-- 4 -->
      <g transform="translate(20.878125 152.399875)scale(0.1 -0.1)">
       <defs>
        <path d="M 2419 4116 
L 825 1625 
L 2419 1625 
L 2419 4116 
z
M 2253 4666 
L 3047 4666 
L 3047 1625 
L 3713 1625 
L 3713 1100 
L 3047 1100 
L 3047 0 
L 2419 0 
L 2419 1100 
L 313 1100 
L 313 1709 
L 2253 4666 
z
" id="DejaVuSans-34" transform="scale(0.015625)"/>
       </defs>
       <use xlink:href="#DejaVuSans-34"/>
      </g>
     </g>
    </g>
    <g id="ytick_6">
     <g id="line2d_13">
      <g>
       <use style="stroke:#000000;stroke-width:0.8;" x="34.240625" xlink:href="#m141a73e6b1" y="114.773211"/>
      </g>
     </g>
     <g id="text_15">
      <!-- 5 -->
      <g transform="translate(20.878125 118.572429)scale(0.1 -0.1)">
       <use xlink:href="#DejaVuSans-35"/>
      </g>
     </g>
    </g>
    <g id="ytick_7">
     <g id="line2d_14">
      <g>
       <use style="stroke:#000000;stroke-width:0.8;" x="34.240625" xlink:href="#m141a73e6b1" y="80.945765"/>
      </g>
     </g>
     <g id="text_16">
      <!-- 6 -->
      <g transform="translate(20.878125 84.744984)scale(0.1 -0.1)">
       <defs>
        <path d="M 2113 2584 
Q 1688 2584 1439 2293 
Q 1191 2003 1191 1497 
Q 1191 994 1439 701 
Q 1688 409 2113 409 
Q 2538 409 2786 701 
Q 3034 994 3034 1497 
Q 3034 2003 2786 2293 
Q 2538 2584 2113 2584 
z
M 3366 4563 
L 3366 3988 
Q 3128 4100 2886 4159 
Q 2644 4219 2406 4219 
Q 1781 4219 1451 3797 
Q 1122 3375 1075 2522 
Q 1259 2794 1537 2939 
Q 1816 3084 2150 3084 
Q 2853 3084 3261 2657 
Q 3669 2231 3669 1497 
Q 3669 778 3244 343 
Q 2819 -91 2113 -91 
Q 1303 -91 875 529 
Q 447 1150 447 2328 
Q 447 3434 972 4092 
Q 1497 4750 2381 4750 
Q 2619 4750 2861 4703 
Q 3103 4656 3366 4563 
z
" id="DejaVuSans-36" transform="scale(0.015625)"/>
       </defs>
       <use xlink:href="#DejaVuSans-36"/>
      </g>
     </g>
    </g>
    <g id="ytick_8">
     <g id="line2d_15">
      <g>
       <use style="stroke:#000000;stroke-width:0.8;" x="34.240625" xlink:href="#m141a73e6b1" y="47.11832"/>
      </g>
     </g>
     <g id="text_17">
      <!-- 7 -->
      <g transform="translate(20.878125 50.917539)scale(0.1 -0.1)">
       <defs>
        <path d="M 525 4666 
L 3525 4666 
L 3525 4397 
L 1831 0 
L 1172 0 
L 2766 4134 
L 525 4134 
L 525 4666 
z
" id="DejaVuSans-37" transform="scale(0.015625)"/>
       </defs>
       <use xlink:href="#DejaVuSans-37"/>
      </g>
     </g>
    </g>
    <g id="text_18">
     <!-- Luminosity density w.r.t. frequency (erg/s/Hz) -->
     <g transform="translate(14.798438 264.325531)rotate(-90)scale(0.1 -0.1)">
      <defs>
       <path d="M 628 4666 
L 1259 4666 
L 1259 531 
L 3531 531 
L 3531 0 
L 628 0 
L 628 4666 
z
" id="DejaVuSans-4c" transform="scale(0.015625)"/>
       <path d="M 3328 2828 
Q 3544 3216 3844 3400 
Q 4144 3584 4550 3584 
Q 5097 3584 5394 3201 
Q 5691 2819 5691 2113 
L 5691 0 
L 5113 0 
L 5113 2094 
Q 5113 2597 4934 2840 
Q 4756 3084 4391 3084 
Q 3944 3084 3684 2787 
Q 3425 2491 3425 1978 
L 3425 0 
L 2847 0 
L 2847 2094 
Q 2847 2600 2669 2842 
Q 2491 3084 2119 3084 
Q 1678 3084 1418 2786 
Q 1159 2488 1159 1978 
L 1159 0 
L 581 0 
L 581 3500 
L 1159 3500 
L 1159 2956 
Q 1356 3278 1631 3431 
Q 1906 3584 2284 3584 
Q 2666 3584 2933 3390 
Q 3200 3197 3328 2828 
z
" id="DejaVuSans-6d" transform="scale(0.015625)"/>
       <path d="M 603 3500 
L 1178 3500 
L 1178 0 
L 603 0 
L 603 3500 
z
M 603 4863 
L 1178 4863 
L 1178 4134 
L 603 4134 
L 603 4863 
z
" id="DejaVuSans-69" transform="scale(0.015625)"/>
       <path d="M 1959 3097 
Q 1497 3097 1228 2736 
Q 959 2375 959 1747 
Q 959 1119 1226 758 
Q 1494 397 1959 397 
Q 2419 397 2687 759 
Q 2956 1122 2956 1747 
Q 2956 2369 2687 2733 
Q 2419 3097 1959 3097 
z
M 1959 3584 
Q 2709 3584 3137 3096 
Q 3566 2609 3566 1747 
Q 3566 888 3137 398 
Q 2709 -91 1959 -91 
Q 1206 -91 779 398 
Q 353 888 353 1747 
Q 353 2609 779 3096 
Q 1206 3584 1959 3584 
z
" id="DejaVuSans-6f" transform="scale(0.015625)"/>
       <path d="M 2834 3397 
L 2834 2853 
Q 2591 2978 2328 3040 
Q 2066 3103 1784 3103 
Q 1356 3103 1142 2972 
Q 928 2841 928 2578 
Q 928 2378 1081 2264 
Q 1234 2150 1697 2047 
L 1894 2003 
Q 2506 1872 2764 1633 
Q 3022 1394 3022 966 
Q 3022 478 2636 193 
Q 2250 -91 1575 -91 
Q 1294 -91 989 -36 
Q 684 19 347 128 
L 347 722 
Q 666 556 975 473 
Q 1284 391 1588 391 
Q 1994 391 2212 530 
Q 2431 669 2431 922 
Q 2431 1156 2273 1281 
Q 2116 1406 1581 1522 
L 1381 1569 
Q 847 1681 609 1914 
Q 372 2147 372 2553 
Q 372 3047 722 3315 
Q 1072 3584 1716 3584 
Q 2034 3584 2315 3537 
Q 2597 3491 2834 3397 
z
" id="DejaVuSans-73" transform="scale(0.015625)"/>
       <path d="M 1172 4494 
L 1172 3500 
L 2356 3500 
L 2356 3053 
L 1172 3053 
L 1172 1153 
Q 1172 725 1289 603 
Q 1406 481 1766 481 
L 2356 481 
L 2356 0 
L 1766 0 
Q 1100 0 847 248 
Q 594 497 594 1153 
L 594 3053 
L 172 3053 
L 172 3500 
L 594 3500 
L 594 4494 
L 1172 4494 
z
" id="DejaVuSans-74" transform="scale(0.015625)"/>
       <path d="M 2906 2969 
L 2906 4863 
L 3481 4863 
L 3481 0 
L 2906 0 
L 2906 525 
Q 2725 213 2448 61 
Q 2172 -91 1784 -91 
Q 1150 -91 751 415 
Q 353 922 353 1747 
Q 353 2572 751 3078 
Q 1150 3584 1784 3584 
Q 2172 3584 2448 3432 
Q 2725 3281 2906 2969 
z
M 947 1747 
Q 947 1113 1208 752 
Q 1469 391 1925 391 
Q 2381 391 2643 752 
Q 2906 1113 2906 1747 
Q 2906 2381 2643 2742 
Q 2381 3103 1925 3103 
Q 1469 3103 1208 2742 
Q 947 2381 947 1747 
z
" id="DejaVuSans-64" transform="scale(0.015625)"/>
       <path d="M 269 3500 
L 844 3500 
L 1563 769 
L 2278 3500 
L 2956 3500 
L 3675 769 
L 4391 3500 
L 4966 3500 
L 4050 0 
L 3372 0 
L 2619 2869 
L 1863 0 
L 1184 0 
L 269 3500 
z
" id="DejaVuSans-77" transform="scale(0.015625)"/>
       <path d="M 2375 4863 
L 2375 4384 
L 1825 4384 
Q 1516 4384 1395 4259 
Q 1275 4134 1275 3809 
L 1275 3500 
L 2222 3500 
L 2222 3053 
L 1275 3053 
L 1275 0 
L 697 0 
L 697 3053 
L 147 3053 
L 147 3500 
L 697 3500 
L 697 3744 
Q 697 4328 969 4595 
Q 1241 4863 1831 4863 
L 2375 4863 
z
" id="DejaVuSans-66" transform="scale(0.015625)"/>
       <path d="M 2906 1791 
Q 2906 2416 2648 2759 
Q 2391 3103 1925 3103 
Q 1463 3103 1205 2759 
Q 947 2416 947 1791 
Q 947 1169 1205 825 
Q 1463 481 1925 481 
Q 2391 481 2648 825 
Q 2906 1169 2906 1791 
z
M 3481 434 
Q 3481 -459 3084 -895 
Q 2688 -1331 1869 -1331 
Q 1566 -1331 1297 -1286 
Q 1028 -1241 775 -1147 
L 775 -588 
Q 1028 -725 1275 -790 
Q 1522 -856 1778 -856 
Q 2344 -856 2625 -561 
Q 2906 -266 2906 331 
L 2906 616 
Q 2728 306 2450 153 
Q 2172 0 1784 0 
Q 1141 0 747 490 
Q 353 981 353 1791 
Q 353 2603 747 3093 
Q 1141 3584 1784 3584 
Q 2172 3584 2450 3431 
Q 2728 3278 2906 2969 
L 2906 3500 
L 3481 3500 
L 3481 434 
z
" id="DejaVuSans-67" transform="scale(0.015625)"/>
       <path d="M 1625 4666 
L 2156 4666 
L 531 -594 
L 0 -594 
L 1625 4666 
z
" id="DejaVuSans-2f" transform="scale(0.015625)"/>
      </defs>
      <use xlink:href="#DejaVuSans-4c"/>
      <use x="53.962891" xlink:href="#DejaVuSans-75"/>
      <use x="117.341797" xlink:href="#DejaVuSans-6d"/>
      <use x="214.753906" xlink:href="#DejaVuSans-69"/>
      <use x="242.537109" xlink:href="#DejaVuSans-6e"/>
      <use x="305.916016" xlink:href="#DejaVuSans-6f"/>
      <use x="367.097656" xlink:href="#DejaVuSans-73"/>
      <use x="419.197266" xlink:href="#DejaVuSans-69"/>
      <use x="446.980469" xlink:href="#DejaVuSans-74"/>
      <use x="486.189453" xlink:href="#DejaVuSans-79"/>
      <use x="545.369141" xlink:href="#DejaVuSans-20"/>
      <use x="577.15625" xlink:href="#DejaVuSans-64"/>
      <use x="640.632812" xlink:href="#DejaVuSans-65"/>
      <use x="702.15625" xlink:href="#DejaVuSans-6e"/>
      <use x="765.535156" xlink:href="#DejaVuSans-73"/>
      <use x="817.634766" xlink:href="#DejaVuSans-69"/>
      <use x="845.417969" xlink:href="#DejaVuSans-74"/>
      <use x="884.626953" xlink:href="#DejaVuSans-79"/>
      <use x="943.806641" xlink:href="#DejaVuSans-20"/>
      <use x="975.59375" xlink:href="#DejaVuSans-77"/>
      <use x="1048.255859" xlink:href="#DejaVuSans-2e"/>
      <use x="1080.042969" xlink:href="#DejaVuSans-72"/>
      <use x="1112.03125" xlink:href="#DejaVuSans-2e"/>
      <use x="1143.818359" xlink:href="#DejaVuSans-74"/>
      <use x="1183.027344" xlink:href="#DejaVuSans-2e"/>
      <use x="1214.814453" xlink:href="#DejaVuSans-20"/>
      <use x="1246.601562" xlink:href="#DejaVuSans-66"/>
      <use x="1281.806641" xlink:href="#DejaVuSans-72"/>
      <use x="1320.669922" xlink:href="#DejaVuSans-65"/>
      <use x="1382.193359" xlink:href="#DejaVuSans-71"/>
      <use x="1445.669922" xlink:href="#DejaVuSans-75"/>
      <use x="1509.048828" xlink:href="#DejaVuSans-65"/>
      <use x="1570.572266" xlink:href="#DejaVuSans-6e"/>
      <use x="1633.951172" xlink:href="#DejaVuSans-63"/>
      <use x="1688.931641" xlink:href="#DejaVuSans-79"/>
      <use x="1748.111328" xlink:href="#DejaVuSans-20"/>
      <use x="1779.898438" xlink:href="#DejaVuSans-28"/>
      <use x="1818.912109" xlink:href="#DejaVuSans-65"/>
      <use x="1880.435547" xlink:href="#DejaVuSans-72"/>
      <use x="1919.798828" xlink:href="#DejaVuSans-67"/>
      <use x="1983.275391" xlink:href="#DejaVuSans-2f"/>
      <use x="2016.966797" xlink:href="#DejaVuSans-73"/>
      <use x="2069.066406" xlink:href="#DejaVuSans-2f"/>
      <use x="2102.757812" xlink:href="#DejaVuSans-48"/>
      <use x="2177.953125" xlink:href="#DejaVuSans-7a"/>
      <use x="2230.443359" xlink:href="#DejaVuSans-29"/>
     </g>
    </g>
    <g id="text_19">
     <!-- 1e27 -->
     <g transform="translate(34.240625 14.798437)scale(0.1 -0.1)">
      <use xlink:href="#DejaVuSans-31"/>
      <use x="63.623047" xlink:href="#DejaVuSans-65"/>
      <use x="125.146484" xlink:href="#DejaVuSans-32"/>
      <use x="188.769531" xlink:href="#DejaVuSans-37"/>
     </g>
    </g>
   </g>
   <g id="line2d_16">
    <path clip-path="url(#pbbe6e9dc76)" d="M 50.473352 283.42157 
L 52.104782 280.97228 
L 53.736212 276.69016 
L 55.367642 270.816542 
L 56.999072 263.578331 
L 58.630502 255.188147 
L 60.261932 245.844514 
L 63.524791 225.021987 
L 68.419081 190.819301 
L 74.9448 144.993701 
L 78.20766 123.697426 
L 81.47052 104.193092 
L 84.73338 86.838616 
L 86.36481 79.045639 
L 87.996239 71.870049 
L 89.627669 65.325071 
L 91.259099 59.418389 
L 92.890529 54.152638 
L 94.521959 49.525882 
L 96.153389 45.532072 
L 97.784819 42.161493 
L 99.416249 39.401183 
L 101.047678 37.235339 
L 102.679108 35.645696 
L 104.310538 34.611891 
L 105.941968 34.111796 
L 107.573398 34.121837 
L 109.204828 34.61729 
L 110.836258 35.572548 
L 112.467688 36.961374 
L 114.099117 38.757128 
L 115.730547 40.932978 
L 117.361977 43.462086 
L 118.993407 46.317777 
L 120.624837 49.47369 
L 123.887697 56.583083 
L 127.150556 64.590292 
L 130.413416 73.307212 
L 135.307706 87.336595 
L 141.833425 107.031888 
L 151.622005 136.735561 
L 156.516294 151.003054 
L 161.410584 164.601317 
L 166.304874 177.395175 
L 169.567733 185.433254 
L 172.830593 193.059554 
L 176.093453 200.265811 
L 179.356313 207.049668 
L 182.619172 213.413737 
L 185.882032 219.364756 
L 189.144892 224.912819 
L 192.407752 230.070691 
L 195.670611 234.853197 
L 198.933471 239.2767 
L 202.196331 243.358634 
L 205.459191 247.117114 
L 208.72205 250.5706 
L 211.98491 253.737618 
L 215.24777 256.636534 
L 218.51063 259.285361 
L 221.773489 261.701613 
L 225.036349 263.902191 
L 228.299209 265.903294 
L 231.562069 267.720362 
L 236.456358 270.132685 
L 241.350648 272.209564 
L 246.244937 273.992691 
L 251.139227 275.519631 
L 256.033517 276.823989 
L 260.927806 277.935635 
L 267.453526 279.163231 
L 273.979245 280.148718 
L 282.136395 281.108021 
L 290.293544 281.830366 
L 300.082123 282.462435 
L 311.502133 282.966939 
L 326.185001 283.370984 
L 345.76216 283.657746 
L 375.127898 283.831354 
L 375.127898 283.831354 
" style="fill:none;stroke:#ff7f0e;stroke-linecap:square;stroke-width:1.5;"/>
   </g>
   <g id="patch_203">
    <path d="M 34.240625 283.910437 
L 34.240625 17.798437 
" style="fill:none;stroke:#000000;stroke-linecap:square;stroke-linejoin:miter;stroke-width:0.8;"/>
   </g>
   <g id="patch_204">
    <path d="M 391.360625 283.910437 
L 391.360625 17.798437 
" style="fill:none;stroke:#000000;stroke-linecap:square;stroke-linejoin:miter;stroke-width:0.8;"/>
   </g>
   <g id="patch_205">
    <path d="M 34.240625 283.910437 
L 391.360625 283.910437 
" style="fill:none;stroke:#000000;stroke-linecap:square;stroke-linejoin:miter;stroke-width:0.8;"/>
   </g>
   <g id="patch_206">
    <path d="M 34.240625 17.798437 
L 391.360625 17.798437 
" style="fill:none;stroke:#000000;stroke-linecap:square;stroke-linejoin:miter;stroke-width:0.8;"/>
   </g>
  </g>
 </g>
 <defs>
  <clipPath id="pbbe6e9dc76">
   <rect height="266.112" width="357.12" x="34.240625" y="17.798438"/>
  </clipPath>
 </defs>
</svg>
