<?xml version="1.0" encoding="utf-8" standalone="no"?>
<!DOCTYPE svg PUBLIC "-//W3C//DTD SVG 1.1//EN"
  "http://www.w3.org/Graphics/SVG/1.1/DTD/svg11.dtd">
<svg height="310.86825pt" version="1.1" viewBox="0 0 414.46375 310.86825" width="414.46375pt" xmlns="http://www.w3.org/2000/svg" xmlns:xlink="http://www.w3.org/1999/xlink">
 <metadata>
  <rdf:RDF xmlns:cc="http://creativecommons.org/ns#" xmlns:dc="http://purl.org/dc/elements/1.1/" xmlns:rdf="http://www.w3.org/1999/02/22-rdf-syntax-ns#">
   <cc:Work>
    <dc:type rdf:resource="http://purl.org/dc/dcmitype/StillImage"/>
    <dc:date>2021-07-06T17:40:04.240629</dc:date>
    <dc:format>image/svg+xml</dc:format>
    <dc:creator>
     <cc:Agent>
      <dc:title>Matplotlib v3.4.2, https://matplotlib.org/</dc:title>
     </cc:Agent>
    </dc:creator>
   </cc:Work>
  </rdf:RDF>
 </metadata>
 <defs>
  <style type="text/css">*{stroke-linecap:butt;stroke-linejoin:round;}</style>
 </defs>
 <g id="figure_1">
  <g id="patch_1">
   <path d="M 0 310.86825 
L 414.46375 310.86825 
L 414.46375 0 
L 0 0 
z
" style="fill:#ffffff;"/>
  </g>
  <g id="axes_1">
   <g id="patch_2">
    <path d="M 50.14375 273.312 
L 407.26375 273.312 
L 407.26375 7.2 
L 50.14375 7.2 
z
" style="fill:#ffffff;"/>
   </g>
   <g id="patch_3">
    <path clip-path="url(#p4c26558f7e)" d="M 67.012497 273.312 
L 68.632587 273.312 
L 68.632587 270.175366 
L 67.012497 270.175366 
z
" style="fill:#1f77b4;"/>
   </g>
   <g id="patch_4">
    <path clip-path="url(#p4c26558f7e)" d="M 68.632587 273.312 
L 70.252677 273.312 
L 70.252677 271.43002 
L 68.632587 271.43002 
z
" style="fill:#1f77b4;"/>
   </g>
   <g id="patch_5">
    <path clip-path="url(#p4c26558f7e)" d="M 70.252677 273.312 
L 71.872766 273.312 
L 71.872766 267.038733 
L 70.252677 267.038733 
z
" style="fill:#1f77b4;"/>
   </g>
   <g id="patch_6">
    <path clip-path="url(#p4c26558f7e)" d="M 71.872766 273.312 
L 73.492856 273.312 
L 73.492856 268.293386 
L 71.872766 268.293386 
z
" style="fill:#1f77b4;"/>
   </g>
   <g id="patch_7">
    <path clip-path="url(#p4c26558f7e)" d="M 73.492856 273.312 
L 75.112946 273.312 
L 75.112946 267.666059 
L 73.492856 267.666059 
z
" style="fill:#1f77b4;"/>
   </g>
   <g id="patch_8">
    <path clip-path="url(#p4c26558f7e)" d="M 75.112946 273.312 
L 76.733035 273.312 
L 76.733035 261.392792 
L 75.112946 261.392792 
z
" style="fill:#1f77b4;"/>
   </g>
   <g id="patch_9">
    <path clip-path="url(#p4c26558f7e)" d="M 76.733035 273.312 
L 78.353125 273.312 
L 78.353125 263.274772 
L 76.733035 263.274772 
z
" style="fill:#1f77b4;"/>
   </g>
   <g id="patch_10">
    <path clip-path="url(#p4c26558f7e)" d="M 78.353125 273.312 
L 79.973215 273.312 
L 79.973215 263.274772 
L 78.353125 263.274772 
z
" style="fill:#1f77b4;"/>
   </g>
   <g id="patch_11">
    <path clip-path="url(#p4c26558f7e)" d="M 79.973215 273.312 
L 81.593304 273.312 
L 81.593304 263.274772 
L 79.973215 263.274772 
z
" style="fill:#1f77b4;"/>
   </g>
   <g id="patch_12">
    <path clip-path="url(#p4c26558f7e)" d="M 81.593304 273.312 
L 83.213394 273.312 
L 83.213394 263.902099 
L 81.593304 263.902099 
z
" style="fill:#1f77b4;"/>
   </g>
   <g id="patch_13">
    <path clip-path="url(#p4c26558f7e)" d="M 83.213394 273.312 
L 84.833484 273.312 
L 84.833484 259.510812 
L 83.213394 259.510812 
z
" style="fill:#1f77b4;"/>
   </g>
   <g id="patch_14">
    <path clip-path="url(#p4c26558f7e)" d="M 84.833484 273.312 
L 86.453573 273.312 
L 86.453573 262.020119 
L 84.833484 262.020119 
z
" style="fill:#1f77b4;"/>
   </g>
   <g id="patch_15">
    <path clip-path="url(#p4c26558f7e)" d="M 86.453573 273.312 
L 88.073663 273.312 
L 88.073663 258.883485 
L 86.453573 258.883485 
z
" style="fill:#1f77b4;"/>
   </g>
   <g id="patch_16">
    <path clip-path="url(#p4c26558f7e)" d="M 88.073663 273.312 
L 89.693753 273.312 
L 89.693753 258.883485 
L 88.073663 258.883485 
z
" style="fill:#1f77b4;"/>
   </g>
   <g id="patch_17">
    <path clip-path="url(#p4c26558f7e)" d="M 89.693753 273.312 
L 91.313842 273.312 
L 91.313842 255.746851 
L 89.693753 255.746851 
z
" style="fill:#1f77b4;"/>
   </g>
   <g id="patch_18">
    <path clip-path="url(#p4c26558f7e)" d="M 91.313842 273.312 
L 92.933932 273.312 
L 92.933932 250.728238 
L 91.313842 250.728238 
z
" style="fill:#1f77b4;"/>
   </g>
   <g id="patch_19">
    <path clip-path="url(#p4c26558f7e)" d="M 92.933932 273.312 
L 94.554022 273.312 
L 94.554022 248.218931 
L 92.933932 248.218931 
z
" style="fill:#1f77b4;"/>
   </g>
   <g id="patch_20">
    <path clip-path="url(#p4c26558f7e)" d="M 94.554022 273.312 
L 96.174111 273.312 
L 96.174111 253.864871 
L 94.554022 253.864871 
z
" style="fill:#1f77b4;"/>
   </g>
   <g id="patch_21">
    <path clip-path="url(#p4c26558f7e)" d="M 96.174111 273.312 
L 97.794201 273.312 
L 97.794201 247.591604 
L 96.174111 247.591604 
z
" style="fill:#1f77b4;"/>
   </g>
   <g id="patch_22">
    <path clip-path="url(#p4c26558f7e)" d="M 97.794201 273.312 
L 99.414291 273.312 
L 99.414291 250.728238 
L 97.794201 250.728238 
z
" style="fill:#1f77b4;"/>
   </g>
   <g id="patch_23">
    <path clip-path="url(#p4c26558f7e)" d="M 99.414291 273.312 
L 101.03438 273.312 
L 101.03438 245.082297 
L 99.414291 245.082297 
z
" style="fill:#1f77b4;"/>
   </g>
   <g id="patch_24">
    <path clip-path="url(#p4c26558f7e)" d="M 101.03438 273.312 
L 102.65447 273.312 
L 102.65447 245.082297 
L 101.03438 245.082297 
z
" style="fill:#1f77b4;"/>
   </g>
   <g id="patch_25">
    <path clip-path="url(#p4c26558f7e)" d="M 102.65447 273.312 
L 104.27456 273.312 
L 104.27456 246.964277 
L 102.65447 246.964277 
z
" style="fill:#1f77b4;"/>
   </g>
   <g id="patch_26">
    <path clip-path="url(#p4c26558f7e)" d="M 104.27456 273.312 
L 105.894649 273.312 
L 105.894649 242.57299 
L 104.27456 242.57299 
z
" style="fill:#1f77b4;"/>
   </g>
   <g id="patch_27">
    <path clip-path="url(#p4c26558f7e)" d="M 105.894649 273.312 
L 107.514739 273.312 
L 107.514739 245.082297 
L 105.894649 245.082297 
z
" style="fill:#1f77b4;"/>
   </g>
   <g id="patch_28">
    <path clip-path="url(#p4c26558f7e)" d="M 107.514739 273.312 
L 109.134829 273.312 
L 109.134829 242.57299 
L 107.514739 242.57299 
z
" style="fill:#1f77b4;"/>
   </g>
   <g id="patch_29">
    <path clip-path="url(#p4c26558f7e)" d="M 109.134829 273.312 
L 110.754918 273.312 
L 110.754918 244.45497 
L 109.134829 244.45497 
z
" style="fill:#1f77b4;"/>
   </g>
   <g id="patch_30">
    <path clip-path="url(#p4c26558f7e)" d="M 110.754918 273.312 
L 112.375008 273.312 
L 112.375008 236.299723 
L 110.754918 236.299723 
z
" style="fill:#1f77b4;"/>
   </g>
   <g id="patch_31">
    <path clip-path="url(#p4c26558f7e)" d="M 112.375008 273.312 
L 113.995098 273.312 
L 113.995098 233.790416 
L 112.375008 233.790416 
z
" style="fill:#1f77b4;"/>
   </g>
   <g id="patch_32">
    <path clip-path="url(#p4c26558f7e)" d="M 113.995098 273.312 
L 115.615187 273.312 
L 115.615187 235.672396 
L 113.995098 235.672396 
z
" style="fill:#1f77b4;"/>
   </g>
   <g id="patch_33">
    <path clip-path="url(#p4c26558f7e)" d="M 115.615187 273.312 
L 117.235277 273.312 
L 117.235277 232.535762 
L 115.615187 232.535762 
z
" style="fill:#1f77b4;"/>
   </g>
   <g id="patch_34">
    <path clip-path="url(#p4c26558f7e)" d="M 117.235277 273.312 
L 118.855367 273.312 
L 118.855367 223.125861 
L 117.235277 223.125861 
z
" style="fill:#1f77b4;"/>
   </g>
   <g id="patch_35">
    <path clip-path="url(#p4c26558f7e)" d="M 118.855367 273.312 
L 120.475456 273.312 
L 120.475456 236.92705 
L 118.855367 236.92705 
z
" style="fill:#1f77b4;"/>
   </g>
   <g id="patch_36">
    <path clip-path="url(#p4c26558f7e)" d="M 120.475456 273.312 
L 122.095546 273.312 
L 122.095546 228.771802 
L 120.475456 228.771802 
z
" style="fill:#1f77b4;"/>
   </g>
   <g id="patch_37">
    <path clip-path="url(#p4c26558f7e)" d="M 122.095546 273.312 
L 123.715636 273.312 
L 123.715636 233.790416 
L 122.095546 233.790416 
z
" style="fill:#1f77b4;"/>
   </g>
   <g id="patch_38">
    <path clip-path="url(#p4c26558f7e)" d="M 123.715636 273.312 
L 125.335725 273.312 
L 125.335725 230.653782 
L 123.715636 230.653782 
z
" style="fill:#1f77b4;"/>
   </g>
   <g id="patch_39">
    <path clip-path="url(#p4c26558f7e)" d="M 125.335725 273.312 
L 126.955815 273.312 
L 126.955815 234.417743 
L 125.335725 234.417743 
z
" style="fill:#1f77b4;"/>
   </g>
   <g id="patch_40">
    <path clip-path="url(#p4c26558f7e)" d="M 126.955815 273.312 
L 128.575905 273.312 
L 128.575905 230.653782 
L 126.955815 230.653782 
z
" style="fill:#1f77b4;"/>
   </g>
   <g id="patch_41">
    <path clip-path="url(#p4c26558f7e)" d="M 128.575905 273.312 
L 130.195994 273.312 
L 130.195994 221.243881 
L 128.575905 221.243881 
z
" style="fill:#1f77b4;"/>
   </g>
   <g id="patch_42">
    <path clip-path="url(#p4c26558f7e)" d="M 130.195994 273.312 
L 131.816084 273.312 
L 131.816084 223.125861 
L 130.195994 223.125861 
z
" style="fill:#1f77b4;"/>
   </g>
   <g id="patch_43">
    <path clip-path="url(#p4c26558f7e)" d="M 131.816084 273.312 
L 133.436174 273.312 
L 133.436174 219.361901 
L 131.816084 219.361901 
z
" style="fill:#1f77b4;"/>
   </g>
   <g id="patch_44">
    <path clip-path="url(#p4c26558f7e)" d="M 133.436174 273.312 
L 135.056263 273.312 
L 135.056263 226.889822 
L 133.436174 226.889822 
z
" style="fill:#1f77b4;"/>
   </g>
   <g id="patch_45">
    <path clip-path="url(#p4c26558f7e)" d="M 135.056263 273.312 
L 136.676353 273.312 
L 136.676353 216.225267 
L 135.056263 216.225267 
z
" style="fill:#1f77b4;"/>
   </g>
   <g id="patch_46">
    <path clip-path="url(#p4c26558f7e)" d="M 136.676353 273.312 
L 138.296443 273.312 
L 138.296443 223.753188 
L 136.676353 223.753188 
z
" style="fill:#1f77b4;"/>
   </g>
   <g id="patch_47">
    <path clip-path="url(#p4c26558f7e)" d="M 138.296443 273.312 
L 139.916532 273.312 
L 139.916532 213.088634 
L 138.296443 213.088634 
z
" style="fill:#1f77b4;"/>
   </g>
   <g id="patch_48">
    <path clip-path="url(#p4c26558f7e)" d="M 139.916532 273.312 
L 141.536622 273.312 
L 141.536622 219.361901 
L 139.916532 219.361901 
z
" style="fill:#1f77b4;"/>
   </g>
   <g id="patch_49">
    <path clip-path="url(#p4c26558f7e)" d="M 141.536622 273.312 
L 143.156712 273.312 
L 143.156712 208.697347 
L 141.536622 208.697347 
z
" style="fill:#1f77b4;"/>
   </g>
   <g id="patch_50">
    <path clip-path="url(#p4c26558f7e)" d="M 143.156712 273.312 
L 144.776801 273.312 
L 144.776801 215.597941 
L 143.156712 215.597941 
z
" style="fill:#1f77b4;"/>
   </g>
   <g id="patch_51">
    <path clip-path="url(#p4c26558f7e)" d="M 144.776801 273.312 
L 146.396891 273.312 
L 146.396891 215.597941 
L 144.776801 215.597941 
z
" style="fill:#1f77b4;"/>
   </g>
   <g id="patch_52">
    <path clip-path="url(#p4c26558f7e)" d="M 146.396891 273.312 
L 148.016981 273.312 
L 148.016981 225.007842 
L 146.396891 225.007842 
z
" style="fill:#1f77b4;"/>
   </g>
   <g id="patch_53">
    <path clip-path="url(#p4c26558f7e)" d="M 148.016981 273.312 
L 149.63707 273.312 
L 149.63707 204.933386 
L 148.016981 204.933386 
z
" style="fill:#1f77b4;"/>
   </g>
   <g id="patch_54">
    <path clip-path="url(#p4c26558f7e)" d="M 149.63707 273.312 
L 151.25716 273.312 
L 151.25716 204.306059 
L 149.63707 204.306059 
z
" style="fill:#1f77b4;"/>
   </g>
   <g id="patch_55">
    <path clip-path="url(#p4c26558f7e)" d="M 151.25716 273.312 
L 152.87725 273.312 
L 152.87725 222.498535 
L 151.25716 222.498535 
z
" style="fill:#1f77b4;"/>
   </g>
   <g id="patch_56">
    <path clip-path="url(#p4c26558f7e)" d="M 152.87725 273.312 
L 154.497339 273.312 
L 154.497339 212.461307 
L 152.87725 212.461307 
z
" style="fill:#1f77b4;"/>
   </g>
   <g id="patch_57">
    <path clip-path="url(#p4c26558f7e)" d="M 154.497339 273.312 
L 156.117429 273.312 
L 156.117429 201.169426 
L 154.497339 201.169426 
z
" style="fill:#1f77b4;"/>
   </g>
   <g id="patch_58">
    <path clip-path="url(#p4c26558f7e)" d="M 156.117429 273.312 
L 157.737519 273.312 
L 157.737519 203.051406 
L 156.117429 203.051406 
z
" style="fill:#1f77b4;"/>
   </g>
   <g id="patch_59">
    <path clip-path="url(#p4c26558f7e)" d="M 157.737519 273.312 
L 159.357608 273.312 
L 159.357608 201.796752 
L 157.737519 201.796752 
z
" style="fill:#1f77b4;"/>
   </g>
   <g id="patch_60">
    <path clip-path="url(#p4c26558f7e)" d="M 159.357608 273.312 
L 160.977698 273.312 
L 160.977698 199.287446 
L 159.357608 199.287446 
z
" style="fill:#1f77b4;"/>
   </g>
   <g id="patch_61">
    <path clip-path="url(#p4c26558f7e)" d="M 160.977698 273.312 
L 162.597788 273.312 
L 162.597788 181.09497 
L 160.977698 181.09497 
z
" style="fill:#1f77b4;"/>
   </g>
   <g id="patch_62">
    <path clip-path="url(#p4c26558f7e)" d="M 162.597788 273.312 
L 164.217877 273.312 
L 164.217877 187.368238 
L 162.597788 187.368238 
z
" style="fill:#1f77b4;"/>
   </g>
   <g id="patch_63">
    <path clip-path="url(#p4c26558f7e)" d="M 164.217877 273.312 
L 165.837967 273.312 
L 165.837967 191.759525 
L 164.217877 191.759525 
z
" style="fill:#1f77b4;"/>
   </g>
   <g id="patch_64">
    <path clip-path="url(#p4c26558f7e)" d="M 165.837967 273.312 
L 167.458057 273.312 
L 167.458057 189.250218 
L 165.837967 189.250218 
z
" style="fill:#1f77b4;"/>
   </g>
   <g id="patch_65">
    <path clip-path="url(#p4c26558f7e)" d="M 167.458057 273.312 
L 169.078146 273.312 
L 169.078146 191.132198 
L 167.458057 191.132198 
z
" style="fill:#1f77b4;"/>
   </g>
   <g id="patch_66">
    <path clip-path="url(#p4c26558f7e)" d="M 169.078146 273.312 
L 170.698236 273.312 
L 170.698236 195.523485 
L 169.078146 195.523485 
z
" style="fill:#1f77b4;"/>
   </g>
   <g id="patch_67">
    <path clip-path="url(#p4c26558f7e)" d="M 170.698236 273.312 
L 172.318326 273.312 
L 172.318326 188.622891 
L 170.698236 188.622891 
z
" style="fill:#1f77b4;"/>
   </g>
   <g id="patch_68">
    <path clip-path="url(#p4c26558f7e)" d="M 172.318326 273.312 
L 173.938415 273.312 
L 173.938415 187.368238 
L 172.318326 187.368238 
z
" style="fill:#1f77b4;"/>
   </g>
   <g id="patch_69">
    <path clip-path="url(#p4c26558f7e)" d="M 173.938415 273.312 
L 175.558505 273.312 
L 175.558505 182.97695 
L 173.938415 182.97695 
z
" style="fill:#1f77b4;"/>
   </g>
   <g id="patch_70">
    <path clip-path="url(#p4c26558f7e)" d="M 175.558505 273.312 
L 177.178595 273.312 
L 177.178595 194.896158 
L 175.558505 194.896158 
z
" style="fill:#1f77b4;"/>
   </g>
   <g id="patch_71">
    <path clip-path="url(#p4c26558f7e)" d="M 177.178595 273.312 
L 178.798684 273.312 
L 178.798684 174.821703 
L 177.178595 174.821703 
z
" style="fill:#1f77b4;"/>
   </g>
   <g id="patch_72">
    <path clip-path="url(#p4c26558f7e)" d="M 178.798684 273.312 
L 180.418774 273.312 
L 180.418774 193.641505 
L 178.798684 193.641505 
z
" style="fill:#1f77b4;"/>
   </g>
   <g id="patch_73">
    <path clip-path="url(#p4c26558f7e)" d="M 180.418774 273.312 
L 182.038864 273.312 
L 182.038864 187.995564 
L 180.418774 187.995564 
z
" style="fill:#1f77b4;"/>
   </g>
   <g id="patch_74">
    <path clip-path="url(#p4c26558f7e)" d="M 182.038864 273.312 
L 183.658953 273.312 
L 183.658953 186.740911 
L 182.038864 186.740911 
z
" style="fill:#1f77b4;"/>
   </g>
   <g id="patch_75">
    <path clip-path="url(#p4c26558f7e)" d="M 183.658953 273.312 
L 185.279043 273.312 
L 185.279043 176.703683 
L 183.658953 176.703683 
z
" style="fill:#1f77b4;"/>
   </g>
   <g id="patch_76">
    <path clip-path="url(#p4c26558f7e)" d="M 185.279043 273.312 
L 186.899133 273.312 
L 186.899133 169.803089 
L 185.279043 169.803089 
z
" style="fill:#1f77b4;"/>
   </g>
   <g id="patch_77">
    <path clip-path="url(#p4c26558f7e)" d="M 186.899133 273.312 
L 188.519222 273.312 
L 188.519222 179.840317 
L 186.899133 179.840317 
z
" style="fill:#1f77b4;"/>
   </g>
   <g id="patch_78">
    <path clip-path="url(#p4c26558f7e)" d="M 188.519222 273.312 
L 190.139312 273.312 
L 190.139312 184.231604 
L 188.519222 184.231604 
z
" style="fill:#1f77b4;"/>
   </g>
   <g id="patch_79">
    <path clip-path="url(#p4c26558f7e)" d="M 190.139312 273.312 
L 191.759402 273.312 
L 191.759402 176.076356 
L 190.139312 176.076356 
z
" style="fill:#1f77b4;"/>
   </g>
   <g id="patch_80">
    <path clip-path="url(#p4c26558f7e)" d="M 191.759402 273.312 
L 193.379491 273.312 
L 193.379491 165.411802 
L 191.759402 165.411802 
z
" style="fill:#1f77b4;"/>
   </g>
   <g id="patch_81">
    <path clip-path="url(#p4c26558f7e)" d="M 193.379491 273.312 
L 194.999581 273.312 
L 194.999581 177.958337 
L 193.379491 177.958337 
z
" style="fill:#1f77b4;"/>
   </g>
   <g id="patch_82">
    <path clip-path="url(#p4c26558f7e)" d="M 194.999581 273.312 
L 196.619671 273.312 
L 196.619671 176.076356 
L 194.999581 176.076356 
z
" style="fill:#1f77b4;"/>
   </g>
   <g id="patch_83">
    <path clip-path="url(#p4c26558f7e)" d="M 196.619671 273.312 
L 198.23976 273.312 
L 198.23976 179.21299 
L 196.619671 179.21299 
z
" style="fill:#1f77b4;"/>
   </g>
   <g id="patch_84">
    <path clip-path="url(#p4c26558f7e)" d="M 198.23976 273.312 
L 199.85985 273.312 
L 199.85985 177.958337 
L 198.23976 177.958337 
z
" style="fill:#1f77b4;"/>
   </g>
   <g id="patch_85">
    <path clip-path="url(#p4c26558f7e)" d="M 199.85985 273.312 
L 201.47994 273.312 
L 201.47994 150.983287 
L 199.85985 150.983287 
z
" style="fill:#1f77b4;"/>
   </g>
   <g id="patch_86">
    <path clip-path="url(#p4c26558f7e)" d="M 201.47994 273.312 
L 203.100029 273.312 
L 203.100029 172.939723 
L 201.47994 172.939723 
z
" style="fill:#1f77b4;"/>
   </g>
   <g id="patch_87">
    <path clip-path="url(#p4c26558f7e)" d="M 203.100029 273.312 
L 204.720119 273.312 
L 204.720119 174.821703 
L 203.100029 174.821703 
z
" style="fill:#1f77b4;"/>
   </g>
   <g id="patch_88">
    <path clip-path="url(#p4c26558f7e)" d="M 204.720119 273.312 
L 206.340209 273.312 
L 206.340209 177.33101 
L 204.720119 177.33101 
z
" style="fill:#1f77b4;"/>
   </g>
   <g id="patch_89">
    <path clip-path="url(#p4c26558f7e)" d="M 206.340209 273.312 
L 207.960298 273.312 
L 207.960298 156.629228 
L 206.340209 156.629228 
z
" style="fill:#1f77b4;"/>
   </g>
   <g id="patch_90">
    <path clip-path="url(#p4c26558f7e)" d="M 207.960298 273.312 
L 209.580388 273.312 
L 209.580388 161.020515 
L 207.960298 161.020515 
z
" style="fill:#1f77b4;"/>
   </g>
   <g id="patch_91">
    <path clip-path="url(#p4c26558f7e)" d="M 209.580388 273.312 
L 211.200478 273.312 
L 211.200478 147.219327 
L 209.580388 147.219327 
z
" style="fill:#1f77b4;"/>
   </g>
   <g id="patch_92">
    <path clip-path="url(#p4c26558f7e)" d="M 211.200478 273.312 
L 212.820567 273.312 
L 212.820567 172.312396 
L 211.200478 172.312396 
z
" style="fill:#1f77b4;"/>
   </g>
   <g id="patch_93">
    <path clip-path="url(#p4c26558f7e)" d="M 212.820567 273.312 
L 214.440657 273.312 
L 214.440657 161.020515 
L 212.820567 161.020515 
z
" style="fill:#1f77b4;"/>
   </g>
   <g id="patch_94">
    <path clip-path="url(#p4c26558f7e)" d="M 214.440657 273.312 
L 216.060747 273.312 
L 216.060747 152.865267 
L 214.440657 152.865267 
z
" style="fill:#1f77b4;"/>
   </g>
   <g id="patch_95">
    <path clip-path="url(#p4c26558f7e)" d="M 216.060747 273.312 
L 217.680836 273.312 
L 217.680836 150.35596 
L 216.060747 150.35596 
z
" style="fill:#1f77b4;"/>
   </g>
   <g id="patch_96">
    <path clip-path="url(#p4c26558f7e)" d="M 217.680836 273.312 
L 219.300926 273.312 
L 219.300926 162.275168 
L 217.680836 162.275168 
z
" style="fill:#1f77b4;"/>
   </g>
   <g id="patch_97">
    <path clip-path="url(#p4c26558f7e)" d="M 219.300926 273.312 
L 220.921016 273.312 
L 220.921016 166.039129 
L 219.300926 166.039129 
z
" style="fill:#1f77b4;"/>
   </g>
   <g id="patch_98">
    <path clip-path="url(#p4c26558f7e)" d="M 220.921016 273.312 
L 222.541105 273.312 
L 222.541105 149.101307 
L 220.921016 149.101307 
z
" style="fill:#1f77b4;"/>
   </g>
   <g id="patch_99">
    <path clip-path="url(#p4c26558f7e)" d="M 222.541105 273.312 
L 224.161195 273.312 
L 224.161195 148.47398 
L 222.541105 148.47398 
z
" style="fill:#1f77b4;"/>
   </g>
   <g id="patch_100">
    <path clip-path="url(#p4c26558f7e)" d="M 224.161195 273.312 
L 225.781285 273.312 
L 225.781285 145.964673 
L 224.161195 145.964673 
z
" style="fill:#1f77b4;"/>
   </g>
   <g id="patch_101">
    <path clip-path="url(#p4c26558f7e)" d="M 225.781285 273.312 
L 227.401374 273.312 
L 227.401374 143.455366 
L 225.781285 143.455366 
z
" style="fill:#1f77b4;"/>
   </g>
   <g id="patch_102">
    <path clip-path="url(#p4c26558f7e)" d="M 227.401374 273.312 
L 229.021464 273.312 
L 229.021464 150.983287 
L 227.401374 150.983287 
z
" style="fill:#1f77b4;"/>
   </g>
   <g id="patch_103">
    <path clip-path="url(#p4c26558f7e)" d="M 229.021464 273.312 
L 230.641554 273.312 
L 230.641554 152.865267 
L 229.021464 152.865267 
z
" style="fill:#1f77b4;"/>
   </g>
   <g id="patch_104">
    <path clip-path="url(#p4c26558f7e)" d="M 230.641554 273.312 
L 232.261643 273.312 
L 232.261643 143.455366 
L 230.641554 143.455366 
z
" style="fill:#1f77b4;"/>
   </g>
   <g id="patch_105">
    <path clip-path="url(#p4c26558f7e)" d="M 232.261643 273.312 
L 233.881733 273.312 
L 233.881733 134.672792 
L 232.261643 134.672792 
z
" style="fill:#1f77b4;"/>
   </g>
   <g id="patch_106">
    <path clip-path="url(#p4c26558f7e)" d="M 233.881733 273.312 
L 235.501823 273.312 
L 235.501823 157.883881 
L 233.881733 157.883881 
z
" style="fill:#1f77b4;"/>
   </g>
   <g id="patch_107">
    <path clip-path="url(#p4c26558f7e)" d="M 235.501823 273.312 
L 237.121912 273.312 
L 237.121912 141.573386 
L 235.501823 141.573386 
z
" style="fill:#1f77b4;"/>
   </g>
   <g id="patch_108">
    <path clip-path="url(#p4c26558f7e)" d="M 237.121912 273.312 
L 238.742002 273.312 
L 238.742002 136.554772 
L 237.121912 136.554772 
z
" style="fill:#1f77b4;"/>
   </g>
   <g id="patch_109">
    <path clip-path="url(#p4c26558f7e)" d="M 238.742002 273.312 
L 240.362092 273.312 
L 240.362092 129.026851 
L 238.742002 129.026851 
z
" style="fill:#1f77b4;"/>
   </g>
   <g id="patch_110">
    <path clip-path="url(#p4c26558f7e)" d="M 240.362092 273.312 
L 241.982181 273.312 
L 241.982181 152.237941 
L 240.362092 152.237941 
z
" style="fill:#1f77b4;"/>
   </g>
   <g id="patch_111">
    <path clip-path="url(#p4c26558f7e)" d="M 241.982181 273.312 
L 243.602271 273.312 
L 243.602271 124.635564 
L 241.982181 124.635564 
z
" style="fill:#1f77b4;"/>
   </g>
   <g id="patch_112">
    <path clip-path="url(#p4c26558f7e)" d="M 243.602271 273.312 
L 245.222361 273.312 
L 245.222361 126.517545 
L 243.602271 126.517545 
z
" style="fill:#1f77b4;"/>
   </g>
   <g id="patch_113">
    <path clip-path="url(#p4c26558f7e)" d="M 245.222361 273.312 
L 246.84245 273.312 
L 246.84245 127.144871 
L 245.222361 127.144871 
z
" style="fill:#1f77b4;"/>
   </g>
   <g id="patch_114">
    <path clip-path="url(#p4c26558f7e)" d="M 246.84245 273.312 
L 248.46254 273.312 
L 248.46254 137.809426 
L 246.84245 137.809426 
z
" style="fill:#1f77b4;"/>
   </g>
   <g id="patch_115">
    <path clip-path="url(#p4c26558f7e)" d="M 248.46254 273.312 
L 250.08263 273.312 
L 250.08263 124.635564 
L 248.46254 124.635564 
z
" style="fill:#1f77b4;"/>
   </g>
   <g id="patch_116">
    <path clip-path="url(#p4c26558f7e)" d="M 250.08263 273.312 
L 251.702719 273.312 
L 251.702719 123.380911 
L 250.08263 123.380911 
z
" style="fill:#1f77b4;"/>
   </g>
   <g id="patch_117">
    <path clip-path="url(#p4c26558f7e)" d="M 251.702719 273.312 
L 253.322809 273.312 
L 253.322809 135.300119 
L 251.702719 135.300119 
z
" style="fill:#1f77b4;"/>
   </g>
   <g id="patch_118">
    <path clip-path="url(#p4c26558f7e)" d="M 253.322809 273.312 
L 254.942899 273.312 
L 254.942899 130.908832 
L 253.322809 130.908832 
z
" style="fill:#1f77b4;"/>
   </g>
   <g id="patch_119">
    <path clip-path="url(#p4c26558f7e)" d="M 254.942899 273.312 
L 256.562988 273.312 
L 256.562988 121.498931 
L 254.942899 121.498931 
z
" style="fill:#1f77b4;"/>
   </g>
   <g id="patch_120">
    <path clip-path="url(#p4c26558f7e)" d="M 256.562988 273.312 
L 258.183078 273.312 
L 258.183078 132.163485 
L 256.562988 132.163485 
z
" style="fill:#1f77b4;"/>
   </g>
   <g id="patch_121">
    <path clip-path="url(#p4c26558f7e)" d="M 258.183078 273.312 
L 259.803168 273.312 
L 259.803168 142.82804 
L 258.183078 142.82804 
z
" style="fill:#1f77b4;"/>
   </g>
   <g id="patch_122">
    <path clip-path="url(#p4c26558f7e)" d="M 259.803168 273.312 
L 261.423257 273.312 
L 261.423257 99.542495 
L 259.803168 99.542495 
z
" style="fill:#1f77b4;"/>
   </g>
   <g id="patch_123">
    <path clip-path="url(#p4c26558f7e)" d="M 261.423257 273.312 
L 263.043347 273.312 
L 263.043347 122.126257 
L 261.423257 122.126257 
z
" style="fill:#1f77b4;"/>
   </g>
   <g id="patch_124">
    <path clip-path="url(#p4c26558f7e)" d="M 263.043347 273.312 
L 264.663437 273.312 
L 264.663437 125.262891 
L 263.043347 125.262891 
z
" style="fill:#1f77b4;"/>
   </g>
   <g id="patch_125">
    <path clip-path="url(#p4c26558f7e)" d="M 264.663437 273.312 
L 266.283526 273.312 
L 266.283526 132.790812 
L 264.663437 132.790812 
z
" style="fill:#1f77b4;"/>
   </g>
   <g id="patch_126">
    <path clip-path="url(#p4c26558f7e)" d="M 266.283526 273.312 
L 267.903616 273.312 
L 267.903616 110.20705 
L 266.283526 110.20705 
z
" style="fill:#1f77b4;"/>
   </g>
   <g id="patch_127">
    <path clip-path="url(#p4c26558f7e)" d="M 267.903616 273.312 
L 269.523706 273.312 
L 269.523706 111.461703 
L 267.903616 111.461703 
z
" style="fill:#1f77b4;"/>
   </g>
   <g id="patch_128">
    <path clip-path="url(#p4c26558f7e)" d="M 269.523706 273.312 
L 271.143795 273.312 
L 271.143795 129.654178 
L 269.523706 129.654178 
z
" style="fill:#1f77b4;"/>
   </g>
   <g id="patch_129">
    <path clip-path="url(#p4c26558f7e)" d="M 271.143795 273.312 
L 272.763885 273.312 
L 272.763885 110.834376 
L 271.143795 110.834376 
z
" style="fill:#1f77b4;"/>
   </g>
   <g id="patch_130">
    <path clip-path="url(#p4c26558f7e)" d="M 272.763885 273.312 
L 274.383975 273.312 
L 274.383975 111.461703 
L 272.763885 111.461703 
z
" style="fill:#1f77b4;"/>
   </g>
   <g id="patch_131">
    <path clip-path="url(#p4c26558f7e)" d="M 274.383975 273.312 
L 276.004064 273.312 
L 276.004064 118.989624 
L 274.383975 118.989624 
z
" style="fill:#1f77b4;"/>
   </g>
   <g id="patch_132">
    <path clip-path="url(#p4c26558f7e)" d="M 276.004064 273.312 
L 277.624154 273.312 
L 277.624154 104.561109 
L 276.004064 104.561109 
z
" style="fill:#1f77b4;"/>
   </g>
   <g id="patch_133">
    <path clip-path="url(#p4c26558f7e)" d="M 277.624154 273.312 
L 279.244244 273.312 
L 279.244244 105.815762 
L 277.624154 105.815762 
z
" style="fill:#1f77b4;"/>
   </g>
   <g id="patch_134">
    <path clip-path="url(#p4c26558f7e)" d="M 279.244244 273.312 
L 280.864333 273.312 
L 280.864333 125.890218 
L 279.244244 125.890218 
z
" style="fill:#1f77b4;"/>
   </g>
   <g id="patch_135">
    <path clip-path="url(#p4c26558f7e)" d="M 280.864333 273.312 
L 282.484423 273.312 
L 282.484423 124.635564 
L 280.864333 124.635564 
z
" style="fill:#1f77b4;"/>
   </g>
   <g id="patch_136">
    <path clip-path="url(#p4c26558f7e)" d="M 282.484423 273.312 
L 284.104513 273.312 
L 284.104513 88.250614 
L 282.484423 88.250614 
z
" style="fill:#1f77b4;"/>
   </g>
   <g id="patch_137">
    <path clip-path="url(#p4c26558f7e)" d="M 284.104513 273.312 
L 285.724602 273.312 
L 285.724602 105.188436 
L 284.104513 105.188436 
z
" style="fill:#1f77b4;"/>
   </g>
   <g id="patch_138">
    <path clip-path="url(#p4c26558f7e)" d="M 285.724602 273.312 
L 287.344692 273.312 
L 287.344692 120.244277 
L 285.724602 120.244277 
z
" style="fill:#1f77b4;"/>
   </g>
   <g id="patch_139">
    <path clip-path="url(#p4c26558f7e)" d="M 287.344692 273.312 
L 288.964782 273.312 
L 288.964782 101.424475 
L 287.344692 101.424475 
z
" style="fill:#1f77b4;"/>
   </g>
   <g id="patch_140">
    <path clip-path="url(#p4c26558f7e)" d="M 288.964782 273.312 
L 290.584871 273.312 
L 290.584871 92.641901 
L 288.964782 92.641901 
z
" style="fill:#1f77b4;"/>
   </g>
   <g id="patch_141">
    <path clip-path="url(#p4c26558f7e)" d="M 290.584871 273.312 
L 292.204961 273.312 
L 292.204961 103.306455 
L 290.584871 103.306455 
z
" style="fill:#1f77b4;"/>
   </g>
   <g id="patch_142">
    <path clip-path="url(#p4c26558f7e)" d="M 292.204961 273.312 
L 293.825051 273.312 
L 293.825051 101.424475 
L 292.204961 101.424475 
z
" style="fill:#1f77b4;"/>
   </g>
   <g id="patch_143">
    <path clip-path="url(#p4c26558f7e)" d="M 293.825051 273.312 
L 295.44514 273.312 
L 295.44514 98.287842 
L 293.825051 98.287842 
z
" style="fill:#1f77b4;"/>
   </g>
   <g id="patch_144">
    <path clip-path="url(#p4c26558f7e)" d="M 295.44514 273.312 
L 297.06523 273.312 
L 297.06523 90.759921 
L 295.44514 90.759921 
z
" style="fill:#1f77b4;"/>
   </g>
   <g id="patch_145">
    <path clip-path="url(#p4c26558f7e)" d="M 297.06523 273.312 
L 298.68532 273.312 
L 298.68532 105.188436 
L 297.06523 105.188436 
z
" style="fill:#1f77b4;"/>
   </g>
   <g id="patch_146">
    <path clip-path="url(#p4c26558f7e)" d="M 298.68532 273.312 
L 300.305409 273.312 
L 300.305409 92.641901 
L 298.68532 92.641901 
z
" style="fill:#1f77b4;"/>
   </g>
   <g id="patch_147">
    <path clip-path="url(#p4c26558f7e)" d="M 300.305409 273.312 
L 301.925499 273.312 
L 301.925499 82.604673 
L 300.305409 82.604673 
z
" style="fill:#1f77b4;"/>
   </g>
   <g id="patch_148">
    <path clip-path="url(#p4c26558f7e)" d="M 301.925499 273.312 
L 303.545589 273.312 
L 303.545589 99.542495 
L 301.925499 99.542495 
z
" style="fill:#1f77b4;"/>
   </g>
   <g id="patch_149">
    <path clip-path="url(#p4c26558f7e)" d="M 303.545589 273.312 
L 305.165678 273.312 
L 305.165678 103.306455 
L 303.545589 103.306455 
z
" style="fill:#1f77b4;"/>
   </g>
   <g id="patch_150">
    <path clip-path="url(#p4c26558f7e)" d="M 305.165678 273.312 
L 306.785768 273.312 
L 306.785768 85.741307 
L 305.165678 85.741307 
z
" style="fill:#1f77b4;"/>
   </g>
   <g id="patch_151">
    <path clip-path="url(#p4c26558f7e)" d="M 306.785768 273.312 
L 308.405858 273.312 
L 308.405858 78.840713 
L 306.785768 78.840713 
z
" style="fill:#1f77b4;"/>
   </g>
   <g id="patch_152">
    <path clip-path="url(#p4c26558f7e)" d="M 308.405858 273.312 
L 310.025947 273.312 
L 310.025947 78.840713 
L 308.405858 78.840713 
z
" style="fill:#1f77b4;"/>
   </g>
   <g id="patch_153">
    <path clip-path="url(#p4c26558f7e)" d="M 310.025947 273.312 
L 311.646037 273.312 
L 311.646037 72.567446 
L 310.025947 72.567446 
z
" style="fill:#1f77b4;"/>
   </g>
   <g id="patch_154">
    <path clip-path="url(#p4c26558f7e)" d="M 311.646037 273.312 
L 313.266127 273.312 
L 313.266127 81.977347 
L 311.646037 81.977347 
z
" style="fill:#1f77b4;"/>
   </g>
   <g id="patch_155">
    <path clip-path="url(#p4c26558f7e)" d="M 313.266127 273.312 
L 314.886216 273.312 
L 314.886216 100.797149 
L 313.266127 100.797149 
z
" style="fill:#1f77b4;"/>
   </g>
   <g id="patch_156">
    <path clip-path="url(#p4c26558f7e)" d="M 314.886216 273.312 
L 316.506306 273.312 
L 316.506306 79.46804 
L 314.886216 79.46804 
z
" style="fill:#1f77b4;"/>
   </g>
   <g id="patch_157">
    <path clip-path="url(#p4c26558f7e)" d="M 316.506306 273.312 
L 318.126396 273.312 
L 318.126396 84.486653 
L 316.506306 84.486653 
z
" style="fill:#1f77b4;"/>
   </g>
   <g id="patch_158">
    <path clip-path="url(#p4c26558f7e)" d="M 318.126396 273.312 
L 319.746485 273.312 
L 319.746485 94.523881 
L 318.126396 94.523881 
z
" style="fill:#1f77b4;"/>
   </g>
   <g id="patch_159">
    <path clip-path="url(#p4c26558f7e)" d="M 319.746485 273.312 
L 321.366575 273.312 
L 321.366575 60.020911 
L 319.746485 60.020911 
z
" style="fill:#1f77b4;"/>
   </g>
   <g id="patch_160">
    <path clip-path="url(#p4c26558f7e)" d="M 321.366575 273.312 
L 322.986665 273.312 
L 322.986665 73.194772 
L 321.366575 73.194772 
z
" style="fill:#1f77b4;"/>
   </g>
   <g id="patch_161">
    <path clip-path="url(#p4c26558f7e)" d="M 322.986665 273.312 
L 324.606754 273.312 
L 324.606754 85.741307 
L 322.986665 85.741307 
z
" style="fill:#1f77b4;"/>
   </g>
   <g id="patch_162">
    <path clip-path="url(#p4c26558f7e)" d="M 324.606754 273.312 
L 326.226844 273.312 
L 326.226844 76.958733 
L 324.606754 76.958733 
z
" style="fill:#1f77b4;"/>
   </g>
   <g id="patch_163">
    <path clip-path="url(#p4c26558f7e)" d="M 326.226844 273.312 
L 327.846934 273.312 
L 327.846934 85.741307 
L 326.226844 85.741307 
z
" style="fill:#1f77b4;"/>
   </g>
   <g id="patch_164">
    <path clip-path="url(#p4c26558f7e)" d="M 327.846934 273.312 
L 329.467024 273.312 
L 329.467024 70.685465 
L 327.846934 70.685465 
z
" style="fill:#1f77b4;"/>
   </g>
   <g id="patch_165">
    <path clip-path="url(#p4c26558f7e)" d="M 329.467024 273.312 
L 331.087113 273.312 
L 331.087113 60.648238 
L 329.467024 60.648238 
z
" style="fill:#1f77b4;"/>
   </g>
   <g id="patch_166">
    <path clip-path="url(#p4c26558f7e)" d="M 331.087113 273.312 
L 332.707203 273.312 
L 332.707203 55.002297 
L 331.087113 55.002297 
z
" style="fill:#1f77b4;"/>
   </g>
   <g id="patch_167">
    <path clip-path="url(#p4c26558f7e)" d="M 332.707203 273.312 
L 334.327293 273.312 
L 334.327293 67.548832 
L 332.707203 67.548832 
z
" style="fill:#1f77b4;"/>
   </g>
   <g id="patch_168">
    <path clip-path="url(#p4c26558f7e)" d="M 334.327293 273.312 
L 335.947382 273.312 
L 335.947382 63.157545 
L 334.327293 63.157545 
z
" style="fill:#1f77b4;"/>
   </g>
   <g id="patch_169">
    <path clip-path="url(#p4c26558f7e)" d="M 335.947382 273.312 
L 337.567472 273.312 
L 337.567472 66.294178 
L 335.947382 66.294178 
z
" style="fill:#1f77b4;"/>
   </g>
   <g id="patch_170">
    <path clip-path="url(#p4c26558f7e)" d="M 337.567472 273.312 
L 339.187562 273.312 
L 339.187562 63.784871 
L 337.567472 63.784871 
z
" style="fill:#1f77b4;"/>
   </g>
   <g id="patch_171">
    <path clip-path="url(#p4c26558f7e)" d="M 339.187562 273.312 
L 340.807651 273.312 
L 340.807651 72.567446 
L 339.187562 72.567446 
z
" style="fill:#1f77b4;"/>
   </g>
   <g id="patch_172">
    <path clip-path="url(#p4c26558f7e)" d="M 340.807651 273.312 
L 342.427741 273.312 
L 342.427741 60.648238 
L 340.807651 60.648238 
z
" style="fill:#1f77b4;"/>
   </g>
   <g id="patch_173">
    <path clip-path="url(#p4c26558f7e)" d="M 342.427741 273.312 
L 344.047831 273.312 
L 344.047831 29.281901 
L 342.427741 29.281901 
z
" style="fill:#1f77b4;"/>
   </g>
   <g id="patch_174">
    <path clip-path="url(#p4c26558f7e)" d="M 344.047831 273.312 
L 345.66792 273.312 
L 345.66792 83.232 
L 344.047831 83.232 
z
" style="fill:#1f77b4;"/>
   </g>
   <g id="patch_175">
    <path clip-path="url(#p4c26558f7e)" d="M 345.66792 273.312 
L 347.28801 273.312 
L 347.28801 49.983683 
L 345.66792 49.983683 
z
" style="fill:#1f77b4;"/>
   </g>
   <g id="patch_176">
    <path clip-path="url(#p4c26558f7e)" d="M 347.28801 273.312 
L 348.9081 273.312 
L 348.9081 33.045861 
L 347.28801 33.045861 
z
" style="fill:#1f77b4;"/>
   </g>
   <g id="patch_177">
    <path clip-path="url(#p4c26558f7e)" d="M 348.9081 273.312 
L 350.528189 273.312 
L 350.528189 65.039525 
L 348.9081 65.039525 
z
" style="fill:#1f77b4;"/>
   </g>
   <g id="patch_178">
    <path clip-path="url(#p4c26558f7e)" d="M 350.528189 273.312 
L 352.148279 273.312 
L 352.148279 48.101703 
L 350.528189 48.101703 
z
" style="fill:#1f77b4;"/>
   </g>
   <g id="patch_179">
    <path clip-path="url(#p4c26558f7e)" d="M 352.148279 273.312 
L 353.768369 273.312 
L 353.768369 51.865663 
L 352.148279 51.865663 
z
" style="fill:#1f77b4;"/>
   </g>
   <g id="patch_180">
    <path clip-path="url(#p4c26558f7e)" d="M 353.768369 273.312 
L 355.388458 273.312 
L 355.388458 60.020911 
L 353.768369 60.020911 
z
" style="fill:#1f77b4;"/>
   </g>
   <g id="patch_181">
    <path clip-path="url(#p4c26558f7e)" d="M 355.388458 273.312 
L 357.008548 273.312 
L 357.008548 55.629624 
L 355.388458 55.629624 
z
" style="fill:#1f77b4;"/>
   </g>
   <g id="patch_182">
    <path clip-path="url(#p4c26558f7e)" d="M 357.008548 273.312 
L 358.628638 273.312 
L 358.628638 36.809822 
L 357.008548 36.809822 
z
" style="fill:#1f77b4;"/>
   </g>
   <g id="patch_183">
    <path clip-path="url(#p4c26558f7e)" d="M 358.628638 273.312 
L 360.248727 273.312 
L 360.248727 50.61101 
L 358.628638 50.61101 
z
" style="fill:#1f77b4;"/>
   </g>
   <g id="patch_184">
    <path clip-path="url(#p4c26558f7e)" d="M 360.248727 273.312 
L 361.868817 273.312 
L 361.868817 60.020911 
L 360.248727 60.020911 
z
" style="fill:#1f77b4;"/>
   </g>
   <g id="patch_185">
    <path clip-path="url(#p4c26558f7e)" d="M 361.868817 273.312 
L 363.488907 273.312 
L 363.488907 53.120317 
L 361.868817 53.120317 
z
" style="fill:#1f77b4;"/>
   </g>
   <g id="patch_186">
    <path clip-path="url(#p4c26558f7e)" d="M 363.488907 273.312 
L 365.108996 273.312 
L 365.108996 38.691802 
L 363.488907 38.691802 
z
" style="fill:#1f77b4;"/>
   </g>
   <g id="patch_187">
    <path clip-path="url(#p4c26558f7e)" d="M 365.108996 273.312 
L 366.729086 273.312 
L 366.729086 52.49299 
L 365.108996 52.49299 
z
" style="fill:#1f77b4;"/>
   </g>
   <g id="patch_188">
    <path clip-path="url(#p4c26558f7e)" d="M 366.729086 273.312 
L 368.349176 273.312 
L 368.349176 34.300515 
L 366.729086 34.300515 
z
" style="fill:#1f77b4;"/>
   </g>
   <g id="patch_189">
    <path clip-path="url(#p4c26558f7e)" d="M 368.349176 273.312 
L 369.969265 273.312 
L 369.969265 34.300515 
L 368.349176 34.300515 
z
" style="fill:#1f77b4;"/>
   </g>
   <g id="patch_190">
    <path clip-path="url(#p4c26558f7e)" d="M 369.969265 273.312 
L 371.589355 273.312 
L 371.589355 19.872 
L 369.969265 19.872 
z
" style="fill:#1f77b4;"/>
   </g>
   <g id="patch_191">
    <path clip-path="url(#p4c26558f7e)" d="M 371.589355 273.312 
L 373.209445 273.312 
L 373.209445 35.555168 
L 371.589355 35.555168 
z
" style="fill:#1f77b4;"/>
   </g>
   <g id="patch_192">
    <path clip-path="url(#p4c26558f7e)" d="M 373.209445 273.312 
L 374.829534 273.312 
L 374.829534 40.573782 
L 373.209445 40.573782 
z
" style="fill:#1f77b4;"/>
   </g>
   <g id="patch_193">
    <path clip-path="url(#p4c26558f7e)" d="M 374.829534 273.312 
L 376.449624 273.312 
L 376.449624 42.455762 
L 374.829534 42.455762 
z
" style="fill:#1f77b4;"/>
   </g>
   <g id="patch_194">
    <path clip-path="url(#p4c26558f7e)" d="M 376.449624 273.312 
L 378.069714 273.312 
L 378.069714 33.045861 
L 376.449624 33.045861 
z
" style="fill:#1f77b4;"/>
   </g>
   <g id="patch_195">
    <path clip-path="url(#p4c26558f7e)" d="M 378.069714 273.312 
L 379.689803 273.312 
L 379.689803 29.281901 
L 378.069714 29.281901 
z
" style="fill:#1f77b4;"/>
   </g>
   <g id="patch_196">
    <path clip-path="url(#p4c26558f7e)" d="M 379.689803 273.312 
L 381.309893 273.312 
L 381.309893 46.84705 
L 379.689803 46.84705 
z
" style="fill:#1f77b4;"/>
   </g>
   <g id="patch_197">
    <path clip-path="url(#p4c26558f7e)" d="M 381.309893 273.312 
L 382.929983 273.312 
L 382.929983 41.828436 
L 381.309893 41.828436 
z
" style="fill:#1f77b4;"/>
   </g>
   <g id="patch_198">
    <path clip-path="url(#p4c26558f7e)" d="M 382.929983 273.312 
L 384.550072 273.312 
L 384.550072 25.517941 
L 382.929983 25.517941 
z
" style="fill:#1f77b4;"/>
   </g>
   <g id="patch_199">
    <path clip-path="url(#p4c26558f7e)" d="M 384.550072 273.312 
L 386.170162 273.312 
L 386.170162 36.809822 
L 384.550072 36.809822 
z
" style="fill:#1f77b4;"/>
   </g>
   <g id="patch_200">
    <path clip-path="url(#p4c26558f7e)" d="M 386.170162 273.312 
L 387.790252 273.312 
L 387.790252 21.75398 
L 386.170162 21.75398 
z
" style="fill:#1f77b4;"/>
   </g>
   <g id="patch_201">
    <path clip-path="url(#p4c26558f7e)" d="M 387.790252 273.312 
L 389.410341 273.312 
L 389.410341 31.791208 
L 387.790252 31.791208 
z
" style="fill:#1f77b4;"/>
   </g>
   <g id="patch_202">
    <path clip-path="url(#p4c26558f7e)" d="M 389.410341 273.312 
L 391.030431 273.312 
L 391.030431 23.008634 
L 389.410341 23.008634 
z
" style="fill:#1f77b4;"/>
   </g>
   <g id="matplotlib.axis_1">
    <g id="xtick_1">
     <g id="line2d_1">
      <defs>
       <path d="M 0 0 
L 0 3.5 
" id="me2355c497a" style="stroke:#000000;stroke-width:0.8;"/>
      </defs>
      <g>
       <use style="stroke:#000000;stroke-width:0.8;" x="66.376477" xlink:href="#me2355c497a" y="273.312"/>
      </g>
     </g>
     <g id="text_1">
      <!-- 0.0 -->
      <g transform="translate(58.424915 287.910437)scale(0.1 -0.1)">
       <defs>
        <path d="M 2034 4250 
Q 1547 4250 1301 3770 
Q 1056 3291 1056 2328 
Q 1056 1369 1301 889 
Q 1547 409 2034 409 
Q 2525 409 2770 889 
Q 3016 1369 3016 2328 
Q 3016 3291 2770 3770 
Q 2525 4250 2034 4250 
z
M 2034 4750 
Q 2819 4750 3233 4129 
Q 3647 3509 3647 2328 
Q 3647 1150 3233 529 
Q 2819 -91 2034 -91 
Q 1250 -91 836 529 
Q 422 1150 422 2328 
Q 422 3509 836 4129 
Q 1250 4750 2034 4750 
z
" id="DejaVuSans-30" transform="scale(0.015625)"/>
        <path d="M 684 794 
L 1344 794 
L 1344 0 
L 684 0 
L 684 794 
z
" id="DejaVuSans-2e" transform="scale(0.015625)"/>
       </defs>
       <use xlink:href="#DejaVuSans-30"/>
       <use x="63.623047" xlink:href="#DejaVuSans-2e"/>
       <use x="95.410156" xlink:href="#DejaVuSans-30"/>
      </g>
     </g>
    </g>
    <g id="xtick_2">
     <g id="line2d_2">
      <g>
       <use style="stroke:#000000;stroke-width:0.8;" x="131.307386" xlink:href="#me2355c497a" y="273.312"/>
      </g>
     </g>
     <g id="text_2">
      <!-- 0.2 -->
      <g transform="translate(123.355824 287.910437)scale(0.1 -0.1)">
       <defs>
        <path d="M 1228 531 
L 3431 531 
L 3431 0 
L 469 0 
L 469 531 
Q 828 903 1448 1529 
Q 2069 2156 2228 2338 
Q 2531 2678 2651 2914 
Q 2772 3150 2772 3378 
Q 2772 3750 2511 3984 
Q 2250 4219 1831 4219 
Q 1534 4219 1204 4116 
Q 875 4013 500 3803 
L 500 4441 
Q 881 4594 1212 4672 
Q 1544 4750 1819 4750 
Q 2544 4750 2975 4387 
Q 3406 4025 3406 3419 
Q 3406 3131 3298 2873 
Q 3191 2616 2906 2266 
Q 2828 2175 2409 1742 
Q 1991 1309 1228 531 
z
" id="DejaVuSans-32" transform="scale(0.015625)"/>
       </defs>
       <use xlink:href="#DejaVuSans-30"/>
       <use x="63.623047" xlink:href="#DejaVuSans-2e"/>
       <use x="95.410156" xlink:href="#DejaVuSans-32"/>
      </g>
     </g>
    </g>
    <g id="xtick_3">
     <g id="line2d_3">
      <g>
       <use style="stroke:#000000;stroke-width:0.8;" x="196.238295" xlink:href="#me2355c497a" y="273.312"/>
      </g>
     </g>
     <g id="text_3">
      <!-- 0.4 -->
      <g transform="translate(188.286733 287.910437)scale(0.1 -0.1)">
       <defs>
        <path d="M 2419 4116 
L 825 1625 
L 2419 1625 
L 2419 4116 
z
M 2253 4666 
L 3047 4666 
L 3047 1625 
L 3713 1625 
L 3713 1100 
L 3047 1100 
L 3047 0 
L 2419 0 
L 2419 1100 
L 313 1100 
L 313 1709 
L 2253 4666 
z
" id="DejaVuSans-34" transform="scale(0.015625)"/>
       </defs>
       <use xlink:href="#DejaVuSans-30"/>
       <use x="63.623047" xlink:href="#DejaVuSans-2e"/>
       <use x="95.410156" xlink:href="#DejaVuSans-34"/>
      </g>
     </g>
    </g>
    <g id="xtick_4">
     <g id="line2d_4">
      <g>
       <use style="stroke:#000000;stroke-width:0.8;" x="261.169205" xlink:href="#me2355c497a" y="273.312"/>
      </g>
     </g>
     <g id="text_4">
      <!-- 0.6 -->
      <g transform="translate(253.217642 287.910437)scale(0.1 -0.1)">
       <defs>
        <path d="M 2113 2584 
Q 1688 2584 1439 2293 
Q 1191 2003 1191 1497 
Q 1191 994 1439 701 
Q 1688 409 2113 409 
Q 2538 409 2786 701 
Q 3034 994 3034 1497 
Q 3034 2003 2786 2293 
Q 2538 2584 2113 2584 
z
M 3366 4563 
L 3366 3988 
Q 3128 4100 2886 4159 
Q 2644 4219 2406 4219 
Q 1781 4219 1451 3797 
Q 1122 3375 1075 2522 
Q 1259 2794 1537 2939 
Q 1816 3084 2150 3084 
Q 2853 3084 3261 2657 
Q 3669 2231 3669 1497 
Q 3669 778 3244 343 
Q 2819 -91 2113 -91 
Q 1303 -91 875 529 
Q 447 1150 447 2328 
Q 447 3434 972 4092 
Q 1497 4750 2381 4750 
Q 2619 4750 2861 4703 
Q 3103 4656 3366 4563 
z
" id="DejaVuSans-36" transform="scale(0.015625)"/>
       </defs>
       <use xlink:href="#DejaVuSans-30"/>
       <use x="63.623047" xlink:href="#DejaVuSans-2e"/>
       <use x="95.410156" xlink:href="#DejaVuSans-36"/>
      </g>
     </g>
    </g>
    <g id="xtick_5">
     <g id="line2d_5">
      <g>
       <use style="stroke:#000000;stroke-width:0.8;" x="326.100114" xlink:href="#me2355c497a" y="273.312"/>
      </g>
     </g>
     <g id="text_5">
      <!-- 0.8 -->
      <g transform="translate(318.148551 287.910437)scale(0.1 -0.1)">
       <defs>
        <path d="M 2034 2216 
Q 1584 2216 1326 1975 
Q 1069 1734 1069 1313 
Q 1069 891 1326 650 
Q 1584 409 2034 409 
Q 2484 409 2743 651 
Q 3003 894 3003 1313 
Q 3003 1734 2745 1975 
Q 2488 2216 2034 2216 
z
M 1403 2484 
Q 997 2584 770 2862 
Q 544 3141 544 3541 
Q 544 4100 942 4425 
Q 1341 4750 2034 4750 
Q 2731 4750 3128 4425 
Q 3525 4100 3525 3541 
Q 3525 3141 3298 2862 
Q 3072 2584 2669 2484 
Q 3125 2378 3379 2068 
Q 3634 1759 3634 1313 
Q 3634 634 3220 271 
Q 2806 -91 2034 -91 
Q 1263 -91 848 271 
Q 434 634 434 1313 
Q 434 1759 690 2068 
Q 947 2378 1403 2484 
z
M 1172 3481 
Q 1172 3119 1398 2916 
Q 1625 2713 2034 2713 
Q 2441 2713 2670 2916 
Q 2900 3119 2900 3481 
Q 2900 3844 2670 4047 
Q 2441 4250 2034 4250 
Q 1625 4250 1398 4047 
Q 1172 3844 1172 3481 
z
" id="DejaVuSans-38" transform="scale(0.015625)"/>
       </defs>
       <use xlink:href="#DejaVuSans-30"/>
       <use x="63.623047" xlink:href="#DejaVuSans-2e"/>
       <use x="95.410156" xlink:href="#DejaVuSans-38"/>
      </g>
     </g>
    </g>
    <g id="xtick_6">
     <g id="line2d_6">
      <g>
       <use style="stroke:#000000;stroke-width:0.8;" x="391.031023" xlink:href="#me2355c497a" y="273.312"/>
      </g>
     </g>
     <g id="text_6">
      <!-- 1.0 -->
      <g transform="translate(383.07946 287.910437)scale(0.1 -0.1)">
       <defs>
        <path d="M 794 531 
L 1825 531 
L 1825 4091 
L 703 3866 
L 703 4441 
L 1819 4666 
L 2450 4666 
L 2450 531 
L 3481 531 
L 3481 0 
L 794 0 
L 794 531 
z
" id="DejaVuSans-31" transform="scale(0.015625)"/>
       </defs>
       <use xlink:href="#DejaVuSans-31"/>
       <use x="63.623047" xlink:href="#DejaVuSans-2e"/>
       <use x="95.410156" xlink:href="#DejaVuSans-30"/>
      </g>
     </g>
    </g>
    <g id="text_7">
     <!-- Propagation direction -->
     <g transform="translate(175.221719 301.588562)scale(0.1 -0.1)">
      <defs>
       <path d="M 1259 4147 
L 1259 2394 
L 2053 2394 
Q 2494 2394 2734 2622 
Q 2975 2850 2975 3272 
Q 2975 3691 2734 3919 
Q 2494 4147 2053 4147 
L 1259 4147 
z
M 628 4666 
L 2053 4666 
Q 2838 4666 3239 4311 
Q 3641 3956 3641 3272 
Q 3641 2581 3239 2228 
Q 2838 1875 2053 1875 
L 1259 1875 
L 1259 0 
L 628 0 
L 628 4666 
z
" id="DejaVuSans-50" transform="scale(0.015625)"/>
       <path d="M 2631 2963 
Q 2534 3019 2420 3045 
Q 2306 3072 2169 3072 
Q 1681 3072 1420 2755 
Q 1159 2438 1159 1844 
L 1159 0 
L 581 0 
L 581 3500 
L 1159 3500 
L 1159 2956 
Q 1341 3275 1631 3429 
Q 1922 3584 2338 3584 
Q 2397 3584 2469 3576 
Q 2541 3569 2628 3553 
L 2631 2963 
z
" id="DejaVuSans-72" transform="scale(0.015625)"/>
       <path d="M 1959 3097 
Q 1497 3097 1228 2736 
Q 959 2375 959 1747 
Q 959 1119 1226 758 
Q 1494 397 1959 397 
Q 2419 397 2687 759 
Q 2956 1122 2956 1747 
Q 2956 2369 2687 2733 
Q 2419 3097 1959 3097 
z
M 1959 3584 
Q 2709 3584 3137 3096 
Q 3566 2609 3566 1747 
Q 3566 888 3137 398 
Q 2709 -91 1959 -91 
Q 1206 -91 779 398 
Q 353 888 353 1747 
Q 353 2609 779 3096 
Q 1206 3584 1959 3584 
z
" id="DejaVuSans-6f" transform="scale(0.015625)"/>
       <path d="M 1159 525 
L 1159 -1331 
L 581 -1331 
L 581 3500 
L 1159 3500 
L 1159 2969 
Q 1341 3281 1617 3432 
Q 1894 3584 2278 3584 
Q 2916 3584 3314 3078 
Q 3713 2572 3713 1747 
Q 3713 922 3314 415 
Q 2916 -91 2278 -91 
Q 1894 -91 1617 61 
Q 1341 213 1159 525 
z
M 3116 1747 
Q 3116 2381 2855 2742 
Q 2594 3103 2138 3103 
Q 1681 3103 1420 2742 
Q 1159 2381 1159 1747 
Q 1159 1113 1420 752 
Q 1681 391 2138 391 
Q 2594 391 2855 752 
Q 3116 1113 3116 1747 
z
" id="DejaVuSans-70" transform="scale(0.015625)"/>
       <path d="M 2194 1759 
Q 1497 1759 1228 1600 
Q 959 1441 959 1056 
Q 959 750 1161 570 
Q 1363 391 1709 391 
Q 2188 391 2477 730 
Q 2766 1069 2766 1631 
L 2766 1759 
L 2194 1759 
z
M 3341 1997 
L 3341 0 
L 2766 0 
L 2766 531 
Q 2569 213 2275 61 
Q 1981 -91 1556 -91 
Q 1019 -91 701 211 
Q 384 513 384 1019 
Q 384 1609 779 1909 
Q 1175 2209 1959 2209 
L 2766 2209 
L 2766 2266 
Q 2766 2663 2505 2880 
Q 2244 3097 1772 3097 
Q 1472 3097 1187 3025 
Q 903 2953 641 2809 
L 641 3341 
Q 956 3463 1253 3523 
Q 1550 3584 1831 3584 
Q 2591 3584 2966 3190 
Q 3341 2797 3341 1997 
z
" id="DejaVuSans-61" transform="scale(0.015625)"/>
       <path d="M 2906 1791 
Q 2906 2416 2648 2759 
Q 2391 3103 1925 3103 
Q 1463 3103 1205 2759 
Q 947 2416 947 1791 
Q 947 1169 1205 825 
Q 1463 481 1925 481 
Q 2391 481 2648 825 
Q 2906 1169 2906 1791 
z
M 3481 434 
Q 3481 -459 3084 -895 
Q 2688 -1331 1869 -1331 
Q 1566 -1331 1297 -1286 
Q 1028 -1241 775 -1147 
L 775 -588 
Q 1028 -725 1275 -790 
Q 1522 -856 1778 -856 
Q 2344 -856 2625 -561 
Q 2906 -266 2906 331 
L 2906 616 
Q 2728 306 2450 153 
Q 2172 0 1784 0 
Q 1141 0 747 490 
Q 353 981 353 1791 
Q 353 2603 747 3093 
Q 1141 3584 1784 3584 
Q 2172 3584 2450 3431 
Q 2728 3278 2906 2969 
L 2906 3500 
L 3481 3500 
L 3481 434 
z
" id="DejaVuSans-67" transform="scale(0.015625)"/>
       <path d="M 1172 4494 
L 1172 3500 
L 2356 3500 
L 2356 3053 
L 1172 3053 
L 1172 1153 
Q 1172 725 1289 603 
Q 1406 481 1766 481 
L 2356 481 
L 2356 0 
L 1766 0 
Q 1100 0 847 248 
Q 594 497 594 1153 
L 594 3053 
L 172 3053 
L 172 3500 
L 594 3500 
L 594 4494 
L 1172 4494 
z
" id="DejaVuSans-74" transform="scale(0.015625)"/>
       <path d="M 603 3500 
L 1178 3500 
L 1178 0 
L 603 0 
L 603 3500 
z
M 603 4863 
L 1178 4863 
L 1178 4134 
L 603 4134 
L 603 4863 
z
" id="DejaVuSans-69" transform="scale(0.015625)"/>
       <path d="M 3513 2113 
L 3513 0 
L 2938 0 
L 2938 2094 
Q 2938 2591 2744 2837 
Q 2550 3084 2163 3084 
Q 1697 3084 1428 2787 
Q 1159 2491 1159 1978 
L 1159 0 
L 581 0 
L 581 3500 
L 1159 3500 
L 1159 2956 
Q 1366 3272 1645 3428 
Q 1925 3584 2291 3584 
Q 2894 3584 3203 3211 
Q 3513 2838 3513 2113 
z
" id="DejaVuSans-6e" transform="scale(0.015625)"/>
       <path id="DejaVuSans-20" transform="scale(0.015625)"/>
       <path d="M 2906 2969 
L 2906 4863 
L 3481 4863 
L 3481 0 
L 2906 0 
L 2906 525 
Q 2725 213 2448 61 
Q 2172 -91 1784 -91 
Q 1150 -91 751 415 
Q 353 922 353 1747 
Q 353 2572 751 3078 
Q 1150 3584 1784 3584 
Q 2172 3584 2448 3432 
Q 2725 3281 2906 2969 
z
M 947 1747 
Q 947 1113 1208 752 
Q 1469 391 1925 391 
Q 2381 391 2643 752 
Q 2906 1113 2906 1747 
Q 2906 2381 2643 2742 
Q 2381 3103 1925 3103 
Q 1469 3103 1208 2742 
Q 947 2381 947 1747 
z
" id="DejaVuSans-64" transform="scale(0.015625)"/>
       <path d="M 3597 1894 
L 3597 1613 
L 953 1613 
Q 991 1019 1311 708 
Q 1631 397 2203 397 
Q 2534 397 2845 478 
Q 3156 559 3463 722 
L 3463 178 
Q 3153 47 2828 -22 
Q 2503 -91 2169 -91 
Q 1331 -91 842 396 
Q 353 884 353 1716 
Q 353 2575 817 3079 
Q 1281 3584 2069 3584 
Q 2775 3584 3186 3129 
Q 3597 2675 3597 1894 
z
M 3022 2063 
Q 3016 2534 2758 2815 
Q 2500 3097 2075 3097 
Q 1594 3097 1305 2825 
Q 1016 2553 972 2059 
L 3022 2063 
z
" id="DejaVuSans-65" transform="scale(0.015625)"/>
       <path d="M 3122 3366 
L 3122 2828 
Q 2878 2963 2633 3030 
Q 2388 3097 2138 3097 
Q 1578 3097 1268 2742 
Q 959 2388 959 1747 
Q 959 1106 1268 751 
Q 1578 397 2138 397 
Q 2388 397 2633 464 
Q 2878 531 3122 666 
L 3122 134 
Q 2881 22 2623 -34 
Q 2366 -91 2075 -91 
Q 1284 -91 818 406 
Q 353 903 353 1747 
Q 353 2603 823 3093 
Q 1294 3584 2113 3584 
Q 2378 3584 2631 3529 
Q 2884 3475 3122 3366 
z
" id="DejaVuSans-63" transform="scale(0.015625)"/>
      </defs>
      <use xlink:href="#DejaVuSans-50"/>
      <use x="58.552734" xlink:href="#DejaVuSans-72"/>
      <use x="97.416016" xlink:href="#DejaVuSans-6f"/>
      <use x="158.597656" xlink:href="#DejaVuSans-70"/>
      <use x="222.074219" xlink:href="#DejaVuSans-61"/>
      <use x="283.353516" xlink:href="#DejaVuSans-67"/>
      <use x="346.830078" xlink:href="#DejaVuSans-61"/>
      <use x="408.109375" xlink:href="#DejaVuSans-74"/>
      <use x="447.318359" xlink:href="#DejaVuSans-69"/>
      <use x="475.101562" xlink:href="#DejaVuSans-6f"/>
      <use x="536.283203" xlink:href="#DejaVuSans-6e"/>
      <use x="599.662109" xlink:href="#DejaVuSans-20"/>
      <use x="631.449219" xlink:href="#DejaVuSans-64"/>
      <use x="694.925781" xlink:href="#DejaVuSans-69"/>
      <use x="722.708984" xlink:href="#DejaVuSans-72"/>
      <use x="761.572266" xlink:href="#DejaVuSans-65"/>
      <use x="823.095703" xlink:href="#DejaVuSans-63"/>
      <use x="878.076172" xlink:href="#DejaVuSans-74"/>
      <use x="917.285156" xlink:href="#DejaVuSans-69"/>
      <use x="945.068359" xlink:href="#DejaVuSans-6f"/>
      <use x="1006.25" xlink:href="#DejaVuSans-6e"/>
     </g>
    </g>
   </g>
   <g id="matplotlib.axis_2">
    <g id="ytick_1">
     <g id="line2d_7">
      <defs>
       <path d="M 0 0 
L -3.5 0 
" id="m07e1335c4a" style="stroke:#000000;stroke-width:0.8;"/>
      </defs>
      <g>
       <use style="stroke:#000000;stroke-width:0.8;" x="50.14375" xlink:href="#m07e1335c4a" y="273.312"/>
      </g>
     </g>
     <g id="text_8">
      <!-- 0.00 -->
      <g transform="translate(20.878125 277.111219)scale(0.1 -0.1)">
       <use xlink:href="#DejaVuSans-30"/>
       <use x="63.623047" xlink:href="#DejaVuSans-2e"/>
       <use x="95.410156" xlink:href="#DejaVuSans-30"/>
       <use x="159.033203" xlink:href="#DejaVuSans-30"/>
      </g>
     </g>
    </g>
    <g id="ytick_2">
     <g id="line2d_8">
      <g>
       <use style="stroke:#000000;stroke-width:0.8;" x="50.14375" xlink:href="#m07e1335c4a" y="242.007169"/>
      </g>
     </g>
     <g id="text_9">
      <!-- 0.25 -->
      <g transform="translate(20.878125 245.806388)scale(0.1 -0.1)">
       <defs>
        <path d="M 691 4666 
L 3169 4666 
L 3169 4134 
L 1269 4134 
L 1269 2991 
Q 1406 3038 1543 3061 
Q 1681 3084 1819 3084 
Q 2600 3084 3056 2656 
Q 3513 2228 3513 1497 
Q 3513 744 3044 326 
Q 2575 -91 1722 -91 
Q 1428 -91 1123 -41 
Q 819 9 494 109 
L 494 744 
Q 775 591 1075 516 
Q 1375 441 1709 441 
Q 2250 441 2565 725 
Q 2881 1009 2881 1497 
Q 2881 1984 2565 2268 
Q 2250 2553 1709 2553 
Q 1456 2553 1204 2497 
Q 953 2441 691 2322 
L 691 4666 
z
" id="DejaVuSans-35" transform="scale(0.015625)"/>
       </defs>
       <use xlink:href="#DejaVuSans-30"/>
       <use x="63.623047" xlink:href="#DejaVuSans-2e"/>
       <use x="95.410156" xlink:href="#DejaVuSans-32"/>
       <use x="159.033203" xlink:href="#DejaVuSans-35"/>
      </g>
     </g>
    </g>
    <g id="ytick_3">
     <g id="line2d_9">
      <g>
       <use style="stroke:#000000;stroke-width:0.8;" x="50.14375" xlink:href="#m07e1335c4a" y="210.702339"/>
      </g>
     </g>
     <g id="text_10">
      <!-- 0.50 -->
      <g transform="translate(20.878125 214.501557)scale(0.1 -0.1)">
       <use xlink:href="#DejaVuSans-30"/>
       <use x="63.623047" xlink:href="#DejaVuSans-2e"/>
       <use x="95.410156" xlink:href="#DejaVuSans-35"/>
       <use x="159.033203" xlink:href="#DejaVuSans-30"/>
      </g>
     </g>
    </g>
    <g id="ytick_4">
     <g id="line2d_10">
      <g>
       <use style="stroke:#000000;stroke-width:0.8;" x="50.14375" xlink:href="#m07e1335c4a" y="179.397508"/>
      </g>
     </g>
     <g id="text_11">
      <!-- 0.75 -->
      <g transform="translate(20.878125 183.196727)scale(0.1 -0.1)">
       <defs>
        <path d="M 525 4666 
L 3525 4666 
L 3525 4397 
L 1831 0 
L 1172 0 
L 2766 4134 
L 525 4134 
L 525 4666 
z
" id="DejaVuSans-37" transform="scale(0.015625)"/>
       </defs>
       <use xlink:href="#DejaVuSans-30"/>
       <use x="63.623047" xlink:href="#DejaVuSans-2e"/>
       <use x="95.410156" xlink:href="#DejaVuSans-37"/>
       <use x="159.033203" xlink:href="#DejaVuSans-35"/>
      </g>
     </g>
    </g>
    <g id="ytick_5">
     <g id="line2d_11">
      <g>
       <use style="stroke:#000000;stroke-width:0.8;" x="50.14375" xlink:href="#m07e1335c4a" y="148.092677"/>
      </g>
     </g>
     <g id="text_12">
      <!-- 1.00 -->
      <g transform="translate(20.878125 151.891896)scale(0.1 -0.1)">
       <use xlink:href="#DejaVuSans-31"/>
       <use x="63.623047" xlink:href="#DejaVuSans-2e"/>
       <use x="95.410156" xlink:href="#DejaVuSans-30"/>
       <use x="159.033203" xlink:href="#DejaVuSans-30"/>
      </g>
     </g>
    </g>
    <g id="ytick_6">
     <g id="line2d_12">
      <g>
       <use style="stroke:#000000;stroke-width:0.8;" x="50.14375" xlink:href="#m07e1335c4a" y="116.787847"/>
      </g>
     </g>
     <g id="text_13">
      <!-- 1.25 -->
      <g transform="translate(20.878125 120.587065)scale(0.1 -0.1)">
       <use xlink:href="#DejaVuSans-31"/>
       <use x="63.623047" xlink:href="#DejaVuSans-2e"/>
       <use x="95.410156" xlink:href="#DejaVuSans-32"/>
       <use x="159.033203" xlink:href="#DejaVuSans-35"/>
      </g>
     </g>
    </g>
    <g id="ytick_7">
     <g id="line2d_13">
      <g>
       <use style="stroke:#000000;stroke-width:0.8;" x="50.14375" xlink:href="#m07e1335c4a" y="85.483016"/>
      </g>
     </g>
     <g id="text_14">
      <!-- 1.50 -->
      <g transform="translate(20.878125 89.282235)scale(0.1 -0.1)">
       <use xlink:href="#DejaVuSans-31"/>
       <use x="63.623047" xlink:href="#DejaVuSans-2e"/>
       <use x="95.410156" xlink:href="#DejaVuSans-35"/>
       <use x="159.033203" xlink:href="#DejaVuSans-30"/>
      </g>
     </g>
    </g>
    <g id="ytick_8">
     <g id="line2d_14">
      <g>
       <use style="stroke:#000000;stroke-width:0.8;" x="50.14375" xlink:href="#m07e1335c4a" y="54.178185"/>
      </g>
     </g>
     <g id="text_15">
      <!-- 1.75 -->
      <g transform="translate(20.878125 57.977404)scale(0.1 -0.1)">
       <use xlink:href="#DejaVuSans-31"/>
       <use x="63.623047" xlink:href="#DejaVuSans-2e"/>
       <use x="95.410156" xlink:href="#DejaVuSans-37"/>
       <use x="159.033203" xlink:href="#DejaVuSans-35"/>
      </g>
     </g>
    </g>
    <g id="ytick_9">
     <g id="line2d_15">
      <g>
       <use style="stroke:#000000;stroke-width:0.8;" x="50.14375" xlink:href="#m07e1335c4a" y="22.873354"/>
      </g>
     </g>
     <g id="text_16">
      <!-- 2.00 -->
      <g transform="translate(20.878125 26.672573)scale(0.1 -0.1)">
       <use xlink:href="#DejaVuSans-32"/>
       <use x="63.623047" xlink:href="#DejaVuSans-2e"/>
       <use x="95.410156" xlink:href="#DejaVuSans-30"/>
       <use x="159.033203" xlink:href="#DejaVuSans-30"/>
      </g>
     </g>
    </g>
    <g id="text_17">
     <!-- Probability density -->
     <g transform="translate(14.798438 186.606781)rotate(-90)scale(0.1 -0.1)">
      <defs>
       <path d="M 3116 1747 
Q 3116 2381 2855 2742 
Q 2594 3103 2138 3103 
Q 1681 3103 1420 2742 
Q 1159 2381 1159 1747 
Q 1159 1113 1420 752 
Q 1681 391 2138 391 
Q 2594 391 2855 752 
Q 3116 1113 3116 1747 
z
M 1159 2969 
Q 1341 3281 1617 3432 
Q 1894 3584 2278 3584 
Q 2916 3584 3314 3078 
Q 3713 2572 3713 1747 
Q 3713 922 3314 415 
Q 2916 -91 2278 -91 
Q 1894 -91 1617 61 
Q 1341 213 1159 525 
L 1159 0 
L 581 0 
L 581 4863 
L 1159 4863 
L 1159 2969 
z
" id="DejaVuSans-62" transform="scale(0.015625)"/>
       <path d="M 603 4863 
L 1178 4863 
L 1178 0 
L 603 0 
L 603 4863 
z
" id="DejaVuSans-6c" transform="scale(0.015625)"/>
       <path d="M 2059 -325 
Q 1816 -950 1584 -1140 
Q 1353 -1331 966 -1331 
L 506 -1331 
L 506 -850 
L 844 -850 
Q 1081 -850 1212 -737 
Q 1344 -625 1503 -206 
L 1606 56 
L 191 3500 
L 800 3500 
L 1894 763 
L 2988 3500 
L 3597 3500 
L 2059 -325 
z
" id="DejaVuSans-79" transform="scale(0.015625)"/>
       <path d="M 2834 3397 
L 2834 2853 
Q 2591 2978 2328 3040 
Q 2066 3103 1784 3103 
Q 1356 3103 1142 2972 
Q 928 2841 928 2578 
Q 928 2378 1081 2264 
Q 1234 2150 1697 2047 
L 1894 2003 
Q 2506 1872 2764 1633 
Q 3022 1394 3022 966 
Q 3022 478 2636 193 
Q 2250 -91 1575 -91 
Q 1294 -91 989 -36 
Q 684 19 347 128 
L 347 722 
Q 666 556 975 473 
Q 1284 391 1588 391 
Q 1994 391 2212 530 
Q 2431 669 2431 922 
Q 2431 1156 2273 1281 
Q 2116 1406 1581 1522 
L 1381 1569 
Q 847 1681 609 1914 
Q 372 2147 372 2553 
Q 372 3047 722 3315 
Q 1072 3584 1716 3584 
Q 2034 3584 2315 3537 
Q 2597 3491 2834 3397 
z
" id="DejaVuSans-73" transform="scale(0.015625)"/>
      </defs>
      <use xlink:href="#DejaVuSans-50"/>
      <use x="58.552734" xlink:href="#DejaVuSans-72"/>
      <use x="97.416016" xlink:href="#DejaVuSans-6f"/>
      <use x="158.597656" xlink:href="#DejaVuSans-62"/>
      <use x="222.074219" xlink:href="#DejaVuSans-61"/>
      <use x="283.353516" xlink:href="#DejaVuSans-62"/>
      <use x="346.830078" xlink:href="#DejaVuSans-69"/>
      <use x="374.613281" xlink:href="#DejaVuSans-6c"/>
      <use x="402.396484" xlink:href="#DejaVuSans-69"/>
      <use x="430.179688" xlink:href="#DejaVuSans-74"/>
      <use x="469.388672" xlink:href="#DejaVuSans-79"/>
      <use x="528.568359" xlink:href="#DejaVuSans-20"/>
      <use x="560.355469" xlink:href="#DejaVuSans-64"/>
      <use x="623.832031" xlink:href="#DejaVuSans-65"/>
      <use x="685.355469" xlink:href="#DejaVuSans-6e"/>
      <use x="748.734375" xlink:href="#DejaVuSans-73"/>
      <use x="800.833984" xlink:href="#DejaVuSans-69"/>
      <use x="828.617188" xlink:href="#DejaVuSans-74"/>
      <use x="867.826172" xlink:href="#DejaVuSans-79"/>
     </g>
    </g>
   </g>
   <g id="line2d_16">
    <path clip-path="url(#p4c26558f7e)" d="M 66.376477 273.312 
L 391.031023 22.873354 
L 391.031023 22.873354 
" style="fill:none;stroke:#ff7f0e;stroke-linecap:square;stroke-width:1.5;"/>
   </g>
   <g id="patch_203">
    <path d="M 50.14375 273.312 
L 50.14375 7.2 
" style="fill:none;stroke:#000000;stroke-linecap:square;stroke-linejoin:miter;stroke-width:0.8;"/>
   </g>
   <g id="patch_204">
    <path d="M 407.26375 273.312 
L 407.26375 7.2 
" style="fill:none;stroke:#000000;stroke-linecap:square;stroke-linejoin:miter;stroke-width:0.8;"/>
   </g>
   <g id="patch_205">
    <path d="M 50.14375 273.312 
L 407.26375 273.312 
" style="fill:none;stroke:#000000;stroke-linecap:square;stroke-linejoin:miter;stroke-width:0.8;"/>
   </g>
   <g id="patch_206">
    <path d="M 50.14375 7.2 
L 407.26375 7.2 
" style="fill:none;stroke:#000000;stroke-linecap:square;stroke-linejoin:miter;stroke-width:0.8;"/>
   </g>
  </g>
 </g>
 <defs>
  <clipPath id="p4c26558f7e">
   <rect height="266.112" width="357.12" x="50.14375" y="7.2"/>
  </clipPath>
 </defs>
</svg>
