<?xml version="1.0" encoding="utf-8" standalone="no"?>
<!DOCTYPE svg PUBLIC "-//W3C//DTD SVG 1.1//EN"
  "http://www.w3.org/Graphics/SVG/1.1/DTD/svg11.dtd">
<svg height="321.466687pt" version="1.1" viewBox="0 0 398.560625 321.466687" width="398.560625pt" xmlns="http://www.w3.org/2000/svg" xmlns:xlink="http://www.w3.org/1999/xlink">
 <metadata>
  <rdf:RDF xmlns:cc="http://creativecommons.org/ns#" xmlns:dc="http://purl.org/dc/elements/1.1/" xmlns:rdf="http://www.w3.org/1999/02/22-rdf-syntax-ns#">
   <cc:Work>
    <dc:type rdf:resource="http://purl.org/dc/dcmitype/StillImage"/>
    <dc:date>2021-07-08T08:25:38.480410</dc:date>
    <dc:format>image/svg+xml</dc:format>
    <dc:creator>
     <cc:Agent>
      <dc:title>Matplotlib v3.4.2, https://matplotlib.org/</dc:title>
     </cc:Agent>
    </dc:creator>
   </cc:Work>
  </rdf:RDF>
 </metadata>
 <defs>
  <style type="text/css">*{stroke-linecap:butt;stroke-linejoin:round;}</style>
 </defs>
 <g id="figure_1">
  <g id="patch_1">
   <path d="M 0 321.466687 
L 398.560625 321.466687 
L 398.560625 0 
L 0 0 
z
" style="fill:#ffffff;"/>
  </g>
  <g id="axes_1">
   <g id="patch_2">
    <path d="M 34.240625 283.910437 
L 391.360625 283.910437 
L 391.360625 17.798437 
L 34.240625 17.798437 
z
" style="fill:#ffffff;"/>
   </g>
   <g id="patch_3">
    <path clip-path="url(#p0a66066c1a)" d="M 50.473352 283.910437 
L 52.096625 283.910437 
L 52.096625 282.525519 
L 50.473352 282.525519 
z
" style="fill:#1f77b4;"/>
   </g>
   <g id="patch_4">
    <path clip-path="url(#p0a66066c1a)" d="M 52.096625 283.910437 
L 53.719898 283.910437 
L 53.719898 281.140601 
L 52.096625 281.140601 
z
" style="fill:#1f77b4;"/>
   </g>
   <g id="patch_5">
    <path clip-path="url(#p0a66066c1a)" d="M 53.719898 283.910437 
L 55.34317 283.910437 
L 55.34317 278.024536 
L 53.719898 278.024536 
z
" style="fill:#1f77b4;"/>
   </g>
   <g id="patch_6">
    <path clip-path="url(#p0a66066c1a)" d="M 55.34317 283.910437 
L 56.966443 283.910437 
L 56.966443 271.792405 
L 55.34317 271.792405 
z
" style="fill:#1f77b4;"/>
   </g>
   <g id="patch_7">
    <path clip-path="url(#p0a66066c1a)" d="M 56.966443 283.910437 
L 58.589716 283.910437 
L 58.589716 265.560274 
L 56.966443 265.560274 
z
" style="fill:#1f77b4;"/>
   </g>
   <g id="patch_8">
    <path clip-path="url(#p0a66066c1a)" d="M 58.589716 283.910437 
L 60.212989 283.910437 
L 60.212989 255.865847 
L 58.589716 255.865847 
z
" style="fill:#1f77b4;"/>
   </g>
   <g id="patch_9">
    <path clip-path="url(#p0a66066c1a)" d="M 60.212989 283.910437 
L 61.836261 283.910437 
L 61.836261 242.362897 
L 60.212989 242.362897 
z
" style="fill:#1f77b4;"/>
   </g>
   <g id="patch_10">
    <path clip-path="url(#p0a66066c1a)" d="M 61.836261 283.910437 
L 63.459534 283.910437 
L 63.459534 233.360929 
L 61.836261 233.360929 
z
" style="fill:#1f77b4;"/>
   </g>
   <g id="patch_11">
    <path clip-path="url(#p0a66066c1a)" d="M 63.459534 283.910437 
L 65.082807 283.910437 
L 65.082807 224.358962 
L 63.459534 224.358962 
z
" style="fill:#1f77b4;"/>
   </g>
   <g id="patch_12">
    <path clip-path="url(#p0a66066c1a)" d="M 65.082807 283.910437 
L 66.70608 283.910437 
L 66.70608 215.010765 
L 65.082807 215.010765 
z
" style="fill:#1f77b4;"/>
   </g>
   <g id="patch_13">
    <path clip-path="url(#p0a66066c1a)" d="M 66.70608 283.910437 
L 68.329352 283.910437 
L 68.329352 202.546503 
L 66.70608 202.546503 
z
" style="fill:#1f77b4;"/>
   </g>
   <g id="patch_14">
    <path clip-path="url(#p0a66066c1a)" d="M 68.329352 283.910437 
L 69.952625 283.910437 
L 69.952625 192.159618 
L 68.329352 192.159618 
z
" style="fill:#1f77b4;"/>
   </g>
   <g id="patch_15">
    <path clip-path="url(#p0a66066c1a)" d="M 69.952625 283.910437 
L 71.575898 283.910437 
L 71.575898 186.273716 
L 69.952625 186.273716 
z
" style="fill:#1f77b4;"/>
   </g>
   <g id="patch_16">
    <path clip-path="url(#p0a66066c1a)" d="M 71.575898 283.910437 
L 73.19917 283.910437 
L 73.19917 175.540601 
L 71.575898 175.540601 
z
" style="fill:#1f77b4;"/>
   </g>
   <g id="patch_17">
    <path clip-path="url(#p0a66066c1a)" d="M 73.19917 283.910437 
L 74.822443 283.910437 
L 74.822443 166.884864 
L 73.19917 166.884864 
z
" style="fill:#1f77b4;"/>
   </g>
   <g id="patch_18">
    <path clip-path="url(#p0a66066c1a)" d="M 74.822443 283.910437 
L 76.445716 283.910437 
L 76.445716 143.687487 
L 74.822443 143.687487 
z
" style="fill:#1f77b4;"/>
   </g>
   <g id="patch_19">
    <path clip-path="url(#p0a66066c1a)" d="M 76.445716 283.910437 
L 78.068989 283.910437 
L 78.068989 138.494044 
L 76.445716 138.494044 
z
" style="fill:#1f77b4;"/>
   </g>
   <g id="patch_20">
    <path clip-path="url(#p0a66066c1a)" d="M 78.068989 283.910437 
L 79.692261 283.910437 
L 79.692261 133.99306 
L 78.068989 133.99306 
z
" style="fill:#1f77b4;"/>
   </g>
   <g id="patch_21">
    <path clip-path="url(#p0a66066c1a)" d="M 79.692261 283.910437 
L 81.315534 283.910437 
L 81.315534 120.14388 
L 79.692261 120.14388 
z
" style="fill:#1f77b4;"/>
   </g>
   <g id="patch_22">
    <path clip-path="url(#p0a66066c1a)" d="M 81.315534 283.910437 
L 82.938807 283.910437 
L 82.938807 119.797651 
L 81.315534 119.797651 
z
" style="fill:#1f77b4;"/>
   </g>
   <g id="patch_23">
    <path clip-path="url(#p0a66066c1a)" d="M 82.938807 283.910437 
L 84.56208 283.910437 
L 84.56208 97.985192 
L 82.938807 97.985192 
z
" style="fill:#1f77b4;"/>
   </g>
   <g id="patch_24">
    <path clip-path="url(#p0a66066c1a)" d="M 84.56208 283.910437 
L 86.185352 283.910437 
L 86.185352 88.290765 
L 84.56208 88.290765 
z
" style="fill:#1f77b4;"/>
   </g>
   <g id="patch_25">
    <path clip-path="url(#p0a66066c1a)" d="M 86.185352 283.910437 
L 87.808625 283.910437 
L 87.808625 91.060601 
L 86.185352 91.060601 
z
" style="fill:#1f77b4;"/>
   </g>
   <g id="patch_26">
    <path clip-path="url(#p0a66066c1a)" d="M 87.808625 283.910437 
L 89.431898 283.910437 
L 89.431898 90.714372 
L 87.808625 90.714372 
z
" style="fill:#1f77b4;"/>
   </g>
   <g id="patch_27">
    <path clip-path="url(#p0a66066c1a)" d="M 89.431898 283.910437 
L 91.05517 283.910437 
L 91.05517 78.596339 
L 89.431898 78.596339 
z
" style="fill:#1f77b4;"/>
   </g>
   <g id="patch_28">
    <path clip-path="url(#p0a66066c1a)" d="M 91.05517 283.910437 
L 92.678443 283.910437 
L 92.678443 63.362241 
L 91.05517 63.362241 
z
" style="fill:#1f77b4;"/>
   </g>
   <g id="patch_29">
    <path clip-path="url(#p0a66066c1a)" d="M 92.678443 283.910437 
L 94.301716 283.910437 
L 94.301716 64.747159 
L 92.678443 64.747159 
z
" style="fill:#1f77b4;"/>
   </g>
   <g id="patch_30">
    <path clip-path="url(#p0a66066c1a)" d="M 94.301716 283.910437 
L 95.924989 283.910437 
L 95.924989 60.246175 
L 94.301716 60.246175 
z
" style="fill:#1f77b4;"/>
   </g>
   <g id="patch_31">
    <path clip-path="url(#p0a66066c1a)" d="M 95.924989 283.910437 
L 97.548261 283.910437 
L 97.548261 52.629126 
L 95.924989 52.629126 
z
" style="fill:#1f77b4;"/>
   </g>
   <g id="patch_32">
    <path clip-path="url(#p0a66066c1a)" d="M 97.548261 283.910437 
L 99.171534 283.910437 
L 99.171534 59.899946 
L 97.548261 59.899946 
z
" style="fill:#1f77b4;"/>
   </g>
   <g id="patch_33">
    <path clip-path="url(#p0a66066c1a)" d="M 99.171534 283.910437 
L 100.794807 283.910437 
L 100.794807 68.209454 
L 99.171534 68.209454 
z
" style="fill:#1f77b4;"/>
   </g>
   <g id="patch_34">
    <path clip-path="url(#p0a66066c1a)" d="M 100.794807 283.910437 
L 102.41808 283.910437 
L 102.41808 57.13011 
L 100.794807 57.13011 
z
" style="fill:#1f77b4;"/>
   </g>
   <g id="patch_35">
    <path clip-path="url(#p0a66066c1a)" d="M 102.41808 283.910437 
L 104.041352 283.910437 
L 104.041352 30.470437 
L 102.41808 30.470437 
z
" style="fill:#1f77b4;"/>
   </g>
   <g id="patch_36">
    <path clip-path="url(#p0a66066c1a)" d="M 104.041352 283.910437 
L 105.664625 283.910437 
L 105.664625 51.244208 
L 104.041352 51.244208 
z
" style="fill:#1f77b4;"/>
   </g>
   <g id="patch_37">
    <path clip-path="url(#p0a66066c1a)" d="M 105.664625 283.910437 
L 107.287898 283.910437 
L 107.287898 42.58847 
L 105.664625 42.58847 
z
" style="fill:#1f77b4;"/>
   </g>
   <g id="patch_38">
    <path clip-path="url(#p0a66066c1a)" d="M 107.287898 283.910437 
L 108.91117 283.910437 
L 108.91117 46.396995 
L 107.287898 46.396995 
z
" style="fill:#1f77b4;"/>
   </g>
   <g id="patch_39">
    <path clip-path="url(#p0a66066c1a)" d="M 108.91117 283.910437 
L 110.534443 283.910437 
L 110.534443 49.51306 
L 108.91117 49.51306 
z
" style="fill:#1f77b4;"/>
   </g>
   <g id="patch_40">
    <path clip-path="url(#p0a66066c1a)" d="M 110.534443 283.910437 
L 112.157716 283.910437 
L 112.157716 47.089454 
L 110.534443 47.089454 
z
" style="fill:#1f77b4;"/>
   </g>
   <g id="patch_41">
    <path clip-path="url(#p0a66066c1a)" d="M 112.157716 283.910437 
L 113.780989 283.910437 
L 113.780989 46.396995 
L 112.157716 46.396995 
z
" style="fill:#1f77b4;"/>
   </g>
   <g id="patch_42">
    <path clip-path="url(#p0a66066c1a)" d="M 113.780989 283.910437 
L 115.404261 283.910437 
L 115.404261 41.896011 
L 113.780989 41.896011 
z
" style="fill:#1f77b4;"/>
   </g>
   <g id="patch_43">
    <path clip-path="url(#p0a66066c1a)" d="M 115.404261 283.910437 
L 117.027534 283.910437 
L 117.027534 51.936667 
L 115.404261 51.936667 
z
" style="fill:#1f77b4;"/>
   </g>
   <g id="patch_44">
    <path clip-path="url(#p0a66066c1a)" d="M 117.027534 283.910437 
L 118.650807 283.910437 
L 118.650807 66.824536 
L 117.027534 66.824536 
z
" style="fill:#1f77b4;"/>
   </g>
   <g id="patch_45">
    <path clip-path="url(#p0a66066c1a)" d="M 118.650807 283.910437 
L 120.27408 283.910437 
L 120.27408 65.093388 
L 118.650807 65.093388 
z
" style="fill:#1f77b4;"/>
   </g>
   <g id="patch_46">
    <path clip-path="url(#p0a66066c1a)" d="M 120.27408 283.910437 
L 121.897352 283.910437 
L 121.897352 55.052733 
L 120.27408 55.052733 
z
" style="fill:#1f77b4;"/>
   </g>
   <g id="patch_47">
    <path clip-path="url(#p0a66066c1a)" d="M 121.897352 283.910437 
L 123.520625 283.910437 
L 123.520625 52.975356 
L 121.897352 52.975356 
z
" style="fill:#1f77b4;"/>
   </g>
   <g id="patch_48">
    <path clip-path="url(#p0a66066c1a)" d="M 123.520625 283.910437 
L 125.143898 283.910437 
L 125.143898 77.211421 
L 123.520625 77.211421 
z
" style="fill:#1f77b4;"/>
   </g>
   <g id="patch_49">
    <path clip-path="url(#p0a66066c1a)" d="M 125.143898 283.910437 
L 126.76717 283.910437 
L 126.76717 65.093388 
L 125.143898 65.093388 
z
" style="fill:#1f77b4;"/>
   </g>
   <g id="patch_50">
    <path clip-path="url(#p0a66066c1a)" d="M 126.76717 283.910437 
L 128.390443 283.910437 
L 128.390443 56.437651 
L 126.76717 56.437651 
z
" style="fill:#1f77b4;"/>
   </g>
   <g id="patch_51">
    <path clip-path="url(#p0a66066c1a)" d="M 128.390443 283.910437 
L 130.013716 283.910437 
L 130.013716 92.791749 
L 128.390443 92.791749 
z
" style="fill:#1f77b4;"/>
   </g>
   <g id="patch_52">
    <path clip-path="url(#p0a66066c1a)" d="M 130.013716 283.910437 
L 131.636989 283.910437 
L 131.636989 78.942569 
L 130.013716 78.942569 
z
" style="fill:#1f77b4;"/>
   </g>
   <g id="patch_53">
    <path clip-path="url(#p0a66066c1a)" d="M 131.636989 283.910437 
L 133.260261 283.910437 
L 133.260261 70.286831 
L 131.636989 70.286831 
z
" style="fill:#1f77b4;"/>
   </g>
   <g id="patch_54">
    <path clip-path="url(#p0a66066c1a)" d="M 133.260261 283.910437 
L 134.883534 283.910437 
L 134.883534 101.793716 
L 133.260261 101.793716 
z
" style="fill:#1f77b4;"/>
   </g>
   <g id="patch_55">
    <path clip-path="url(#p0a66066c1a)" d="M 134.883534 283.910437 
L 136.506807 283.910437 
L 136.506807 103.871093 
L 134.883534 103.871093 
z
" style="fill:#1f77b4;"/>
   </g>
   <g id="patch_56">
    <path clip-path="url(#p0a66066c1a)" d="M 136.506807 283.910437 
L 138.13008 283.910437 
L 138.13008 90.021913 
L 136.506807 90.021913 
z
" style="fill:#1f77b4;"/>
   </g>
   <g id="patch_57">
    <path clip-path="url(#p0a66066c1a)" d="M 138.13008 283.910437 
L 139.753352 283.910437 
L 139.753352 93.484208 
L 138.13008 93.484208 
z
" style="fill:#1f77b4;"/>
   </g>
   <g id="patch_58">
    <path clip-path="url(#p0a66066c1a)" d="M 139.753352 283.910437 
L 141.376625 283.910437 
L 141.376625 93.137978 
L 139.753352 93.137978 
z
" style="fill:#1f77b4;"/>
   </g>
   <g id="patch_59">
    <path clip-path="url(#p0a66066c1a)" d="M 141.376625 283.910437 
L 142.999898 283.910437 
L 142.999898 109.064536 
L 141.376625 109.064536 
z
" style="fill:#1f77b4;"/>
   </g>
   <g id="patch_60">
    <path clip-path="url(#p0a66066c1a)" d="M 142.999898 283.910437 
L 144.62317 283.910437 
L 144.62317 117.720274 
L 142.999898 117.720274 
z
" style="fill:#1f77b4;"/>
   </g>
   <g id="patch_61">
    <path clip-path="url(#p0a66066c1a)" d="M 144.62317 283.910437 
L 146.246443 283.910437 
L 146.246443 117.720274 
L 144.62317 117.720274 
z
" style="fill:#1f77b4;"/>
   </g>
   <g id="patch_62">
    <path clip-path="url(#p0a66066c1a)" d="M 146.246443 283.910437 
L 147.869716 283.910437 
L 147.869716 120.14388 
L 146.246443 120.14388 
z
" style="fill:#1f77b4;"/>
   </g>
   <g id="patch_63">
    <path clip-path="url(#p0a66066c1a)" d="M 147.869716 283.910437 
L 149.492989 283.910437 
L 149.492989 127.4147 
L 147.869716 127.4147 
z
" style="fill:#1f77b4;"/>
   </g>
   <g id="patch_64">
    <path clip-path="url(#p0a66066c1a)" d="M 149.492989 283.910437 
L 151.116261 283.910437 
L 151.116261 144.726175 
L 149.492989 144.726175 
z
" style="fill:#1f77b4;"/>
   </g>
   <g id="patch_65">
    <path clip-path="url(#p0a66066c1a)" d="M 151.116261 283.910437 
L 152.739534 283.910437 
L 152.739534 142.302569 
L 151.116261 142.302569 
z
" style="fill:#1f77b4;"/>
   </g>
   <g id="patch_66">
    <path clip-path="url(#p0a66066c1a)" d="M 152.739534 283.910437 
L 154.362807 283.910437 
L 154.362807 156.844208 
L 152.739534 156.844208 
z
" style="fill:#1f77b4;"/>
   </g>
   <g id="patch_67">
    <path clip-path="url(#p0a66066c1a)" d="M 154.362807 283.910437 
L 155.98608 283.910437 
L 155.98608 146.803552 
L 154.362807 146.803552 
z
" style="fill:#1f77b4;"/>
   </g>
   <g id="patch_68">
    <path clip-path="url(#p0a66066c1a)" d="M 155.98608 283.910437 
L 157.609352 283.910437 
L 157.609352 144.033716 
L 155.98608 144.033716 
z
" style="fill:#1f77b4;"/>
   </g>
   <g id="patch_69">
    <path clip-path="url(#p0a66066c1a)" d="M 157.609352 283.910437 
L 159.232625 283.910437 
L 159.232625 163.422569 
L 157.609352 163.422569 
z
" style="fill:#1f77b4;"/>
   </g>
   <g id="patch_70">
    <path clip-path="url(#p0a66066c1a)" d="M 159.232625 283.910437 
L 160.855898 283.910437 
L 160.855898 149.227159 
L 159.232625 149.227159 
z
" style="fill:#1f77b4;"/>
   </g>
   <g id="patch_71">
    <path clip-path="url(#p0a66066c1a)" d="M 160.855898 283.910437 
L 162.47917 283.910437 
L 162.47917 172.078306 
L 160.855898 172.078306 
z
" style="fill:#1f77b4;"/>
   </g>
   <g id="patch_72">
    <path clip-path="url(#p0a66066c1a)" d="M 162.47917 283.910437 
L 164.102443 283.910437 
L 164.102443 172.424536 
L 162.47917 172.424536 
z
" style="fill:#1f77b4;"/>
   </g>
   <g id="patch_73">
    <path clip-path="url(#p0a66066c1a)" d="M 164.102443 283.910437 
L 165.725716 283.910437 
L 165.725716 168.269782 
L 164.102443 168.269782 
z
" style="fill:#1f77b4;"/>
   </g>
   <g id="patch_74">
    <path clip-path="url(#p0a66066c1a)" d="M 165.725716 283.910437 
L 167.348989 283.910437 
L 167.348989 174.155683 
L 165.725716 174.155683 
z
" style="fill:#1f77b4;"/>
   </g>
   <g id="patch_75">
    <path clip-path="url(#p0a66066c1a)" d="M 167.348989 283.910437 
L 168.972261 283.910437 
L 168.972261 193.890765 
L 167.348989 193.890765 
z
" style="fill:#1f77b4;"/>
   </g>
   <g id="patch_76">
    <path clip-path="url(#p0a66066c1a)" d="M 168.972261 283.910437 
L 170.595534 283.910437 
L 170.595534 182.465192 
L 168.972261 182.465192 
z
" style="fill:#1f77b4;"/>
   </g>
   <g id="patch_77">
    <path clip-path="url(#p0a66066c1a)" d="M 170.595534 283.910437 
L 172.218807 283.910437 
L 172.218807 193.890765 
L 170.595534 193.890765 
z
" style="fill:#1f77b4;"/>
   </g>
   <g id="patch_78">
    <path clip-path="url(#p0a66066c1a)" d="M 172.218807 283.910437 
L 173.84208 283.910437 
L 173.84208 191.467159 
L 172.218807 191.467159 
z
" style="fill:#1f77b4;"/>
   </g>
   <g id="patch_79">
    <path clip-path="url(#p0a66066c1a)" d="M 173.84208 283.910437 
L 175.465352 283.910437 
L 175.465352 203.238962 
L 173.84208 203.238962 
z
" style="fill:#1f77b4;"/>
   </g>
   <g id="patch_80">
    <path clip-path="url(#p0a66066c1a)" d="M 175.465352 283.910437 
L 177.088625 283.910437 
L 177.088625 196.660601 
L 175.465352 196.660601 
z
" style="fill:#1f77b4;"/>
   </g>
   <g id="patch_81">
    <path clip-path="url(#p0a66066c1a)" d="M 177.088625 283.910437 
L 178.711898 283.910437 
L 178.711898 203.931421 
L 177.088625 203.931421 
z
" style="fill:#1f77b4;"/>
   </g>
   <g id="patch_82">
    <path clip-path="url(#p0a66066c1a)" d="M 178.711898 283.910437 
L 180.33517 283.910437 
L 180.33517 203.238962 
L 178.711898 203.238962 
z
" style="fill:#1f77b4;"/>
   </g>
   <g id="patch_83">
    <path clip-path="url(#p0a66066c1a)" d="M 180.33517 283.910437 
L 181.958443 283.910437 
L 181.958443 216.395683 
L 180.33517 216.395683 
z
" style="fill:#1f77b4;"/>
   </g>
   <g id="patch_84">
    <path clip-path="url(#p0a66066c1a)" d="M 181.958443 283.910437 
L 183.581716 283.910437 
L 183.581716 215.356995 
L 181.958443 215.356995 
z
" style="fill:#1f77b4;"/>
   </g>
   <g id="patch_85">
    <path clip-path="url(#p0a66066c1a)" d="M 183.581716 283.910437 
L 185.204989 283.910437 
L 185.204989 215.703224 
L 183.581716 215.703224 
z
" style="fill:#1f77b4;"/>
   </g>
   <g id="patch_86">
    <path clip-path="url(#p0a66066c1a)" d="M 185.204989 283.910437 
L 186.828261 283.910437 
L 186.828261 204.97011 
L 185.204989 204.97011 
z
" style="fill:#1f77b4;"/>
   </g>
   <g id="patch_87">
    <path clip-path="url(#p0a66066c1a)" d="M 186.828261 283.910437 
L 188.451534 283.910437 
L 188.451534 225.051421 
L 186.828261 225.051421 
z
" style="fill:#1f77b4;"/>
   </g>
   <g id="patch_88">
    <path clip-path="url(#p0a66066c1a)" d="M 188.451534 283.910437 
L 190.074807 283.910437 
L 190.074807 221.935356 
L 188.451534 221.935356 
z
" style="fill:#1f77b4;"/>
   </g>
   <g id="patch_89">
    <path clip-path="url(#p0a66066c1a)" d="M 190.074807 283.910437 
L 191.69808 283.910437 
L 191.69808 221.935356 
L 190.074807 221.935356 
z
" style="fill:#1f77b4;"/>
   </g>
   <g id="patch_90">
    <path clip-path="url(#p0a66066c1a)" d="M 191.69808 283.910437 
L 193.321352 283.910437 
L 193.321352 235.438306 
L 191.69808 235.438306 
z
" style="fill:#1f77b4;"/>
   </g>
   <g id="patch_91">
    <path clip-path="url(#p0a66066c1a)" d="M 193.321352 283.910437 
L 194.944625 283.910437 
L 194.944625 238.208142 
L 193.321352 238.208142 
z
" style="fill:#1f77b4;"/>
   </g>
   <g id="patch_92">
    <path clip-path="url(#p0a66066c1a)" d="M 194.944625 283.910437 
L 196.567898 283.910437 
L 196.567898 238.208142 
L 194.944625 238.208142 
z
" style="fill:#1f77b4;"/>
   </g>
   <g id="patch_93">
    <path clip-path="url(#p0a66066c1a)" d="M 196.567898 283.910437 
L 198.19117 283.910437 
L 198.19117 231.976011 
L 196.567898 231.976011 
z
" style="fill:#1f77b4;"/>
   </g>
   <g id="patch_94">
    <path clip-path="url(#p0a66066c1a)" d="M 198.19117 283.910437 
L 199.814443 283.910437 
L 199.814443 244.094044 
L 198.19117 244.094044 
z
" style="fill:#1f77b4;"/>
   </g>
   <g id="patch_95">
    <path clip-path="url(#p0a66066c1a)" d="M 199.814443 283.910437 
L 201.437716 283.910437 
L 201.437716 237.861913 
L 199.814443 237.861913 
z
" style="fill:#1f77b4;"/>
   </g>
   <g id="patch_96">
    <path clip-path="url(#p0a66066c1a)" d="M 201.437716 283.910437 
L 203.060989 283.910437 
L 203.060989 240.285519 
L 201.437716 240.285519 
z
" style="fill:#1f77b4;"/>
   </g>
   <g id="patch_97">
    <path clip-path="url(#p0a66066c1a)" d="M 203.060989 283.910437 
L 204.684261 283.910437 
L 204.684261 242.362897 
L 203.060989 242.362897 
z
" style="fill:#1f77b4;"/>
   </g>
   <g id="patch_98">
    <path clip-path="url(#p0a66066c1a)" d="M 204.684261 283.910437 
L 206.307534 283.910437 
L 206.307534 240.631749 
L 204.684261 240.631749 
z
" style="fill:#1f77b4;"/>
   </g>
   <g id="patch_99">
    <path clip-path="url(#p0a66066c1a)" d="M 206.307534 283.910437 
L 207.930807 283.910437 
L 207.930807 248.248798 
L 206.307534 248.248798 
z
" style="fill:#1f77b4;"/>
   </g>
   <g id="patch_100">
    <path clip-path="url(#p0a66066c1a)" d="M 207.930807 283.910437 
L 209.55408 283.910437 
L 209.55408 247.556339 
L 207.930807 247.556339 
z
" style="fill:#1f77b4;"/>
   </g>
   <g id="patch_101">
    <path clip-path="url(#p0a66066c1a)" d="M 209.55408 283.910437 
L 211.177352 283.910437 
L 211.177352 243.055356 
L 209.55408 243.055356 
z
" style="fill:#1f77b4;"/>
   </g>
   <g id="patch_102">
    <path clip-path="url(#p0a66066c1a)" d="M 211.177352 283.910437 
L 212.800625 283.910437 
L 212.800625 250.326175 
L 211.177352 250.326175 
z
" style="fill:#1f77b4;"/>
   </g>
   <g id="patch_103">
    <path clip-path="url(#p0a66066c1a)" d="M 212.800625 283.910437 
L 214.423898 283.910437 
L 214.423898 253.096011 
L 212.800625 253.096011 
z
" style="fill:#1f77b4;"/>
   </g>
   <g id="patch_104">
    <path clip-path="url(#p0a66066c1a)" d="M 214.423898 283.910437 
L 216.04717 283.910437 
L 216.04717 254.480929 
L 214.423898 254.480929 
z
" style="fill:#1f77b4;"/>
   </g>
   <g id="patch_105">
    <path clip-path="url(#p0a66066c1a)" d="M 216.04717 283.910437 
L 217.670443 283.910437 
L 217.670443 255.173388 
L 216.04717 255.173388 
z
" style="fill:#1f77b4;"/>
   </g>
   <g id="patch_106">
    <path clip-path="url(#p0a66066c1a)" d="M 217.670443 283.910437 
L 219.293716 283.910437 
L 219.293716 256.212077 
L 217.670443 256.212077 
z
" style="fill:#1f77b4;"/>
   </g>
   <g id="patch_107">
    <path clip-path="url(#p0a66066c1a)" d="M 219.293716 283.910437 
L 220.916989 283.910437 
L 220.916989 256.904536 
L 219.293716 256.904536 
z
" style="fill:#1f77b4;"/>
   </g>
   <g id="patch_108">
    <path clip-path="url(#p0a66066c1a)" d="M 220.916989 283.910437 
L 222.540261 283.910437 
L 222.540261 260.71306 
L 220.916989 260.71306 
z
" style="fill:#1f77b4;"/>
   </g>
   <g id="patch_109">
    <path clip-path="url(#p0a66066c1a)" d="M 222.540261 283.910437 
L 224.163534 283.910437 
L 224.163534 261.05929 
L 222.540261 261.05929 
z
" style="fill:#1f77b4;"/>
   </g>
   <g id="patch_110">
    <path clip-path="url(#p0a66066c1a)" d="M 224.163534 283.910437 
L 225.786807 283.910437 
L 225.786807 268.676339 
L 224.163534 268.676339 
z
" style="fill:#1f77b4;"/>
   </g>
   <g id="patch_111">
    <path clip-path="url(#p0a66066c1a)" d="M 225.786807 283.910437 
L 227.41008 283.910437 
L 227.41008 261.405519 
L 225.786807 261.405519 
z
" style="fill:#1f77b4;"/>
   </g>
   <g id="patch_112">
    <path clip-path="url(#p0a66066c1a)" d="M 227.41008 283.910437 
L 229.033352 283.910437 
L 229.033352 261.05929 
L 227.41008 261.05929 
z
" style="fill:#1f77b4;"/>
   </g>
   <g id="patch_113">
    <path clip-path="url(#p0a66066c1a)" d="M 229.033352 283.910437 
L 230.656625 283.910437 
L 230.656625 268.33011 
L 229.033352 268.33011 
z
" style="fill:#1f77b4;"/>
   </g>
   <g id="patch_114">
    <path clip-path="url(#p0a66066c1a)" d="M 230.656625 283.910437 
L 232.279898 283.910437 
L 232.279898 267.291421 
L 230.656625 267.291421 
z
" style="fill:#1f77b4;"/>
   </g>
   <g id="patch_115">
    <path clip-path="url(#p0a66066c1a)" d="M 232.279898 283.910437 
L 233.90317 283.910437 
L 233.90317 267.98388 
L 232.279898 267.98388 
z
" style="fill:#1f77b4;"/>
   </g>
   <g id="patch_116">
    <path clip-path="url(#p0a66066c1a)" d="M 233.90317 283.910437 
L 235.526443 283.910437 
L 235.526443 265.906503 
L 233.90317 265.906503 
z
" style="fill:#1f77b4;"/>
   </g>
   <g id="patch_117">
    <path clip-path="url(#p0a66066c1a)" d="M 235.526443 283.910437 
L 237.149716 283.910437 
L 237.149716 272.484864 
L 235.526443 272.484864 
z
" style="fill:#1f77b4;"/>
   </g>
   <g id="patch_118">
    <path clip-path="url(#p0a66066c1a)" d="M 237.149716 283.910437 
L 238.772989 283.910437 
L 238.772989 273.523552 
L 237.149716 273.523552 
z
" style="fill:#1f77b4;"/>
   </g>
   <g id="patch_119">
    <path clip-path="url(#p0a66066c1a)" d="M 238.772989 283.910437 
L 240.396261 283.910437 
L 240.396261 268.676339 
L 238.772989 268.676339 
z
" style="fill:#1f77b4;"/>
   </g>
   <g id="patch_120">
    <path clip-path="url(#p0a66066c1a)" d="M 240.396261 283.910437 
L 242.019534 283.910437 
L 242.019534 273.869782 
L 240.396261 273.869782 
z
" style="fill:#1f77b4;"/>
   </g>
   <g id="patch_121">
    <path clip-path="url(#p0a66066c1a)" d="M 242.019534 283.910437 
L 243.642807 283.910437 
L 243.642807 273.177323 
L 242.019534 273.177323 
z
" style="fill:#1f77b4;"/>
   </g>
   <g id="patch_122">
    <path clip-path="url(#p0a66066c1a)" d="M 243.642807 283.910437 
L 245.26608 283.910437 
L 245.26608 272.484864 
L 243.642807 272.484864 
z
" style="fill:#1f77b4;"/>
   </g>
   <g id="patch_123">
    <path clip-path="url(#p0a66066c1a)" d="M 245.26608 283.910437 
L 246.889352 283.910437 
L 246.889352 275.2547 
L 245.26608 275.2547 
z
" style="fill:#1f77b4;"/>
   </g>
   <g id="patch_124">
    <path clip-path="url(#p0a66066c1a)" d="M 246.889352 283.910437 
L 248.512625 283.910437 
L 248.512625 272.831093 
L 246.889352 272.831093 
z
" style="fill:#1f77b4;"/>
   </g>
   <g id="patch_125">
    <path clip-path="url(#p0a66066c1a)" d="M 248.512625 283.910437 
L 250.135898 283.910437 
L 250.135898 274.90847 
L 248.512625 274.90847 
z
" style="fill:#1f77b4;"/>
   </g>
   <g id="patch_126">
    <path clip-path="url(#p0a66066c1a)" d="M 250.135898 283.910437 
L 251.75917 283.910437 
L 251.75917 272.138634 
L 250.135898 272.138634 
z
" style="fill:#1f77b4;"/>
   </g>
   <g id="patch_127">
    <path clip-path="url(#p0a66066c1a)" d="M 251.75917 283.910437 
L 253.382443 283.910437 
L 253.382443 275.600929 
L 251.75917 275.600929 
z
" style="fill:#1f77b4;"/>
   </g>
   <g id="patch_128">
    <path clip-path="url(#p0a66066c1a)" d="M 253.382443 283.910437 
L 255.005716 283.910437 
L 255.005716 276.639618 
L 253.382443 276.639618 
z
" style="fill:#1f77b4;"/>
   </g>
   <g id="patch_129">
    <path clip-path="url(#p0a66066c1a)" d="M 255.005716 283.910437 
L 256.628989 283.910437 
L 256.628989 275.600929 
L 255.005716 275.600929 
z
" style="fill:#1f77b4;"/>
   </g>
   <g id="patch_130">
    <path clip-path="url(#p0a66066c1a)" d="M 256.628989 283.910437 
L 258.252261 283.910437 
L 258.252261 275.600929 
L 256.628989 275.600929 
z
" style="fill:#1f77b4;"/>
   </g>
   <g id="patch_131">
    <path clip-path="url(#p0a66066c1a)" d="M 258.252261 283.910437 
L 259.875534 283.910437 
L 259.875534 274.90847 
L 258.252261 274.90847 
z
" style="fill:#1f77b4;"/>
   </g>
   <g id="patch_132">
    <path clip-path="url(#p0a66066c1a)" d="M 259.875534 283.910437 
L 261.498807 283.910437 
L 261.498807 276.639618 
L 259.875534 276.639618 
z
" style="fill:#1f77b4;"/>
   </g>
   <g id="patch_133">
    <path clip-path="url(#p0a66066c1a)" d="M 261.498807 283.910437 
L 263.12208 283.910437 
L 263.12208 278.024536 
L 261.498807 278.024536 
z
" style="fill:#1f77b4;"/>
   </g>
   <g id="patch_134">
    <path clip-path="url(#p0a66066c1a)" d="M 263.12208 283.910437 
L 264.745352 283.910437 
L 264.745352 280.101913 
L 263.12208 280.101913 
z
" style="fill:#1f77b4;"/>
   </g>
   <g id="patch_135">
    <path clip-path="url(#p0a66066c1a)" d="M 264.745352 283.910437 
L 266.368625 283.910437 
L 266.368625 278.024536 
L 264.745352 278.024536 
z
" style="fill:#1f77b4;"/>
   </g>
   <g id="patch_136">
    <path clip-path="url(#p0a66066c1a)" d="M 266.368625 283.910437 
L 267.991898 283.910437 
L 267.991898 278.024536 
L 266.368625 278.024536 
z
" style="fill:#1f77b4;"/>
   </g>
   <g id="patch_137">
    <path clip-path="url(#p0a66066c1a)" d="M 267.991898 283.910437 
L 269.61517 283.910437 
L 269.61517 280.101913 
L 267.991898 280.101913 
z
" style="fill:#1f77b4;"/>
   </g>
   <g id="patch_138">
    <path clip-path="url(#p0a66066c1a)" d="M 269.61517 283.910437 
L 271.238443 283.910437 
L 271.238443 278.716995 
L 269.61517 278.716995 
z
" style="fill:#1f77b4;"/>
   </g>
   <g id="patch_139">
    <path clip-path="url(#p0a66066c1a)" d="M 271.238443 283.910437 
L 272.861716 283.910437 
L 272.861716 278.024536 
L 271.238443 278.024536 
z
" style="fill:#1f77b4;"/>
   </g>
   <g id="patch_140">
    <path clip-path="url(#p0a66066c1a)" d="M 272.861716 283.910437 
L 274.484989 283.910437 
L 274.484989 281.486831 
L 272.861716 281.486831 
z
" style="fill:#1f77b4;"/>
   </g>
   <g id="patch_141">
    <path clip-path="url(#p0a66066c1a)" d="M 274.484989 283.910437 
L 276.108261 283.910437 
L 276.108261 280.101913 
L 274.484989 280.101913 
z
" style="fill:#1f77b4;"/>
   </g>
   <g id="patch_142">
    <path clip-path="url(#p0a66066c1a)" d="M 276.108261 283.910437 
L 277.731534 283.910437 
L 277.731534 280.448142 
L 276.108261 280.448142 
z
" style="fill:#1f77b4;"/>
   </g>
   <g id="patch_143">
    <path clip-path="url(#p0a66066c1a)" d="M 277.731534 283.910437 
L 279.354807 283.910437 
L 279.354807 277.678306 
L 277.731534 277.678306 
z
" style="fill:#1f77b4;"/>
   </g>
   <g id="patch_144">
    <path clip-path="url(#p0a66066c1a)" d="M 279.354807 283.910437 
L 280.97808 283.910437 
L 280.97808 277.678306 
L 279.354807 277.678306 
z
" style="fill:#1f77b4;"/>
   </g>
   <g id="patch_145">
    <path clip-path="url(#p0a66066c1a)" d="M 280.97808 283.910437 
L 282.601352 283.910437 
L 282.601352 278.716995 
L 280.97808 278.716995 
z
" style="fill:#1f77b4;"/>
   </g>
   <g id="patch_146">
    <path clip-path="url(#p0a66066c1a)" d="M 282.601352 283.910437 
L 284.224625 283.910437 
L 284.224625 280.794372 
L 282.601352 280.794372 
z
" style="fill:#1f77b4;"/>
   </g>
   <g id="patch_147">
    <path clip-path="url(#p0a66066c1a)" d="M 284.224625 283.910437 
L 285.847898 283.910437 
L 285.847898 279.755683 
L 284.224625 279.755683 
z
" style="fill:#1f77b4;"/>
   </g>
   <g id="patch_148">
    <path clip-path="url(#p0a66066c1a)" d="M 285.847898 283.910437 
L 287.47117 283.910437 
L 287.47117 282.17929 
L 285.847898 282.17929 
z
" style="fill:#1f77b4;"/>
   </g>
   <g id="patch_149">
    <path clip-path="url(#p0a66066c1a)" d="M 287.47117 283.910437 
L 289.094443 283.910437 
L 289.094443 282.525519 
L 287.47117 282.525519 
z
" style="fill:#1f77b4;"/>
   </g>
   <g id="patch_150">
    <path clip-path="url(#p0a66066c1a)" d="M 289.094443 283.910437 
L 290.717716 283.910437 
L 290.717716 282.871749 
L 289.094443 282.871749 
z
" style="fill:#1f77b4;"/>
   </g>
   <g id="patch_151">
    <path clip-path="url(#p0a66066c1a)" d="M 290.717716 283.910437 
L 292.340989 283.910437 
L 292.340989 282.871749 
L 290.717716 282.871749 
z
" style="fill:#1f77b4;"/>
   </g>
   <g id="patch_152">
    <path clip-path="url(#p0a66066c1a)" d="M 292.340989 283.910437 
L 293.964261 283.910437 
L 293.964261 279.063224 
L 292.340989 279.063224 
z
" style="fill:#1f77b4;"/>
   </g>
   <g id="patch_153">
    <path clip-path="url(#p0a66066c1a)" d="M 293.964261 283.910437 
L 295.587534 283.910437 
L 295.587534 282.17929 
L 293.964261 282.17929 
z
" style="fill:#1f77b4;"/>
   </g>
   <g id="patch_154">
    <path clip-path="url(#p0a66066c1a)" d="M 295.587534 283.910437 
L 297.210807 283.910437 
L 297.210807 281.83306 
L 295.587534 281.83306 
z
" style="fill:#1f77b4;"/>
   </g>
   <g id="patch_155">
    <path clip-path="url(#p0a66066c1a)" d="M 297.210807 283.910437 
L 298.83408 283.910437 
L 298.83408 281.83306 
L 297.210807 281.83306 
z
" style="fill:#1f77b4;"/>
   </g>
   <g id="patch_156">
    <path clip-path="url(#p0a66066c1a)" d="M 298.83408 283.910437 
L 300.457352 283.910437 
L 300.457352 281.83306 
L 298.83408 281.83306 
z
" style="fill:#1f77b4;"/>
   </g>
   <g id="patch_157">
    <path clip-path="url(#p0a66066c1a)" d="M 300.457352 283.910437 
L 302.080625 283.910437 
L 302.080625 282.17929 
L 300.457352 282.17929 
z
" style="fill:#1f77b4;"/>
   </g>
   <g id="patch_158">
    <path clip-path="url(#p0a66066c1a)" d="M 302.080625 283.910437 
L 303.703898 283.910437 
L 303.703898 283.217978 
L 302.080625 283.217978 
z
" style="fill:#1f77b4;"/>
   </g>
   <g id="patch_159">
    <path clip-path="url(#p0a66066c1a)" d="M 303.703898 283.910437 
L 305.32717 283.910437 
L 305.32717 282.871749 
L 303.703898 282.871749 
z
" style="fill:#1f77b4;"/>
   </g>
   <g id="patch_160">
    <path clip-path="url(#p0a66066c1a)" d="M 305.32717 283.910437 
L 306.950443 283.910437 
L 306.950443 283.910437 
L 305.32717 283.910437 
z
" style="fill:#1f77b4;"/>
   </g>
   <g id="patch_161">
    <path clip-path="url(#p0a66066c1a)" d="M 306.950443 283.910437 
L 308.573716 283.910437 
L 308.573716 283.217978 
L 306.950443 283.217978 
z
" style="fill:#1f77b4;"/>
   </g>
   <g id="patch_162">
    <path clip-path="url(#p0a66066c1a)" d="M 308.573716 283.910437 
L 310.196989 283.910437 
L 310.196989 281.486831 
L 308.573716 281.486831 
z
" style="fill:#1f77b4;"/>
   </g>
   <g id="patch_163">
    <path clip-path="url(#p0a66066c1a)" d="M 310.196989 283.910437 
L 311.820261 283.910437 
L 311.820261 282.525519 
L 310.196989 282.525519 
z
" style="fill:#1f77b4;"/>
   </g>
   <g id="patch_164">
    <path clip-path="url(#p0a66066c1a)" d="M 311.820261 283.910437 
L 313.443534 283.910437 
L 313.443534 283.564208 
L 311.820261 283.564208 
z
" style="fill:#1f77b4;"/>
   </g>
   <g id="patch_165">
    <path clip-path="url(#p0a66066c1a)" d="M 313.443534 283.910437 
L 315.066807 283.910437 
L 315.066807 282.871749 
L 313.443534 282.871749 
z
" style="fill:#1f77b4;"/>
   </g>
   <g id="patch_166">
    <path clip-path="url(#p0a66066c1a)" d="M 315.066807 283.910437 
L 316.69008 283.910437 
L 316.69008 283.217978 
L 315.066807 283.217978 
z
" style="fill:#1f77b4;"/>
   </g>
   <g id="patch_167">
    <path clip-path="url(#p0a66066c1a)" d="M 316.69008 283.910437 
L 318.313352 283.910437 
L 318.313352 283.564208 
L 316.69008 283.564208 
z
" style="fill:#1f77b4;"/>
   </g>
   <g id="patch_168">
    <path clip-path="url(#p0a66066c1a)" d="M 318.313352 283.910437 
L 319.936625 283.910437 
L 319.936625 282.871749 
L 318.313352 282.871749 
z
" style="fill:#1f77b4;"/>
   </g>
   <g id="patch_169">
    <path clip-path="url(#p0a66066c1a)" d="M 319.936625 283.910437 
L 321.559898 283.910437 
L 321.559898 283.910437 
L 319.936625 283.910437 
z
" style="fill:#1f77b4;"/>
   </g>
   <g id="patch_170">
    <path clip-path="url(#p0a66066c1a)" d="M 321.559898 283.910437 
L 323.18317 283.910437 
L 323.18317 283.217978 
L 321.559898 283.217978 
z
" style="fill:#1f77b4;"/>
   </g>
   <g id="patch_171">
    <path clip-path="url(#p0a66066c1a)" d="M 323.18317 283.910437 
L 324.806443 283.910437 
L 324.806443 283.217978 
L 323.18317 283.217978 
z
" style="fill:#1f77b4;"/>
   </g>
   <g id="patch_172">
    <path clip-path="url(#p0a66066c1a)" d="M 324.806443 283.910437 
L 326.429716 283.910437 
L 326.429716 283.910437 
L 324.806443 283.910437 
z
" style="fill:#1f77b4;"/>
   </g>
   <g id="patch_173">
    <path clip-path="url(#p0a66066c1a)" d="M 326.429716 283.910437 
L 328.052989 283.910437 
L 328.052989 282.871749 
L 326.429716 282.871749 
z
" style="fill:#1f77b4;"/>
   </g>
   <g id="patch_174">
    <path clip-path="url(#p0a66066c1a)" d="M 328.052989 283.910437 
L 329.676261 283.910437 
L 329.676261 282.871749 
L 328.052989 282.871749 
z
" style="fill:#1f77b4;"/>
   </g>
   <g id="patch_175">
    <path clip-path="url(#p0a66066c1a)" d="M 329.676261 283.910437 
L 331.299534 283.910437 
L 331.299534 283.217978 
L 329.676261 283.217978 
z
" style="fill:#1f77b4;"/>
   </g>
   <g id="patch_176">
    <path clip-path="url(#p0a66066c1a)" d="M 331.299534 283.910437 
L 332.922807 283.910437 
L 332.922807 283.564208 
L 331.299534 283.564208 
z
" style="fill:#1f77b4;"/>
   </g>
   <g id="patch_177">
    <path clip-path="url(#p0a66066c1a)" d="M 332.922807 283.910437 
L 334.54608 283.910437 
L 334.54608 283.910437 
L 332.922807 283.910437 
z
" style="fill:#1f77b4;"/>
   </g>
   <g id="patch_178">
    <path clip-path="url(#p0a66066c1a)" d="M 334.54608 283.910437 
L 336.169352 283.910437 
L 336.169352 283.910437 
L 334.54608 283.910437 
z
" style="fill:#1f77b4;"/>
   </g>
   <g id="patch_179">
    <path clip-path="url(#p0a66066c1a)" d="M 336.169352 283.910437 
L 337.792625 283.910437 
L 337.792625 282.871749 
L 336.169352 282.871749 
z
" style="fill:#1f77b4;"/>
   </g>
   <g id="patch_180">
    <path clip-path="url(#p0a66066c1a)" d="M 337.792625 283.910437 
L 339.415898 283.910437 
L 339.415898 283.217978 
L 337.792625 283.217978 
z
" style="fill:#1f77b4;"/>
   </g>
   <g id="patch_181">
    <path clip-path="url(#p0a66066c1a)" d="M 339.415898 283.910437 
L 341.03917 283.910437 
L 341.03917 283.910437 
L 339.415898 283.910437 
z
" style="fill:#1f77b4;"/>
   </g>
   <g id="patch_182">
    <path clip-path="url(#p0a66066c1a)" d="M 341.03917 283.910437 
L 342.662443 283.910437 
L 342.662443 283.910437 
L 341.03917 283.910437 
z
" style="fill:#1f77b4;"/>
   </g>
   <g id="patch_183">
    <path clip-path="url(#p0a66066c1a)" d="M 342.662443 283.910437 
L 344.285716 283.910437 
L 344.285716 283.910437 
L 342.662443 283.910437 
z
" style="fill:#1f77b4;"/>
   </g>
   <g id="patch_184">
    <path clip-path="url(#p0a66066c1a)" d="M 344.285716 283.910437 
L 345.908989 283.910437 
L 345.908989 283.564208 
L 344.285716 283.564208 
z
" style="fill:#1f77b4;"/>
   </g>
   <g id="patch_185">
    <path clip-path="url(#p0a66066c1a)" d="M 345.908989 283.910437 
L 347.532261 283.910437 
L 347.532261 283.564208 
L 345.908989 283.564208 
z
" style="fill:#1f77b4;"/>
   </g>
   <g id="patch_186">
    <path clip-path="url(#p0a66066c1a)" d="M 347.532261 283.910437 
L 349.155534 283.910437 
L 349.155534 283.910437 
L 347.532261 283.910437 
z
" style="fill:#1f77b4;"/>
   </g>
   <g id="patch_187">
    <path clip-path="url(#p0a66066c1a)" d="M 349.155534 283.910437 
L 350.778807 283.910437 
L 350.778807 283.564208 
L 349.155534 283.564208 
z
" style="fill:#1f77b4;"/>
   </g>
   <g id="patch_188">
    <path clip-path="url(#p0a66066c1a)" d="M 350.778807 283.910437 
L 352.40208 283.910437 
L 352.40208 283.564208 
L 350.778807 283.564208 
z
" style="fill:#1f77b4;"/>
   </g>
   <g id="patch_189">
    <path clip-path="url(#p0a66066c1a)" d="M 352.40208 283.910437 
L 354.025352 283.910437 
L 354.025352 283.910437 
L 352.40208 283.910437 
z
" style="fill:#1f77b4;"/>
   </g>
   <g id="patch_190">
    <path clip-path="url(#p0a66066c1a)" d="M 354.025352 283.910437 
L 355.648625 283.910437 
L 355.648625 283.564208 
L 354.025352 283.564208 
z
" style="fill:#1f77b4;"/>
   </g>
   <g id="patch_191">
    <path clip-path="url(#p0a66066c1a)" d="M 355.648625 283.910437 
L 357.271898 283.910437 
L 357.271898 283.564208 
L 355.648625 283.564208 
z
" style="fill:#1f77b4;"/>
   </g>
   <g id="patch_192">
    <path clip-path="url(#p0a66066c1a)" d="M 357.271898 283.910437 
L 358.89517 283.910437 
L 358.89517 283.910437 
L 357.271898 283.910437 
z
" style="fill:#1f77b4;"/>
   </g>
   <g id="patch_193">
    <path clip-path="url(#p0a66066c1a)" d="M 358.89517 283.910437 
L 360.518443 283.910437 
L 360.518443 283.564208 
L 358.89517 283.564208 
z
" style="fill:#1f77b4;"/>
   </g>
   <g id="patch_194">
    <path clip-path="url(#p0a66066c1a)" d="M 360.518443 283.910437 
L 362.141716 283.910437 
L 362.141716 283.910437 
L 360.518443 283.910437 
z
" style="fill:#1f77b4;"/>
   </g>
   <g id="patch_195">
    <path clip-path="url(#p0a66066c1a)" d="M 362.141716 283.910437 
L 363.764989 283.910437 
L 363.764989 283.564208 
L 362.141716 283.564208 
z
" style="fill:#1f77b4;"/>
   </g>
   <g id="patch_196">
    <path clip-path="url(#p0a66066c1a)" d="M 363.764989 283.910437 
L 365.388261 283.910437 
L 365.388261 283.910437 
L 363.764989 283.910437 
z
" style="fill:#1f77b4;"/>
   </g>
   <g id="patch_197">
    <path clip-path="url(#p0a66066c1a)" d="M 365.388261 283.910437 
L 367.011534 283.910437 
L 367.011534 283.910437 
L 365.388261 283.910437 
z
" style="fill:#1f77b4;"/>
   </g>
   <g id="patch_198">
    <path clip-path="url(#p0a66066c1a)" d="M 367.011534 283.910437 
L 368.634807 283.910437 
L 368.634807 283.217978 
L 367.011534 283.217978 
z
" style="fill:#1f77b4;"/>
   </g>
   <g id="patch_199">
    <path clip-path="url(#p0a66066c1a)" d="M 368.634807 283.910437 
L 370.25808 283.910437 
L 370.25808 283.564208 
L 368.634807 283.564208 
z
" style="fill:#1f77b4;"/>
   </g>
   <g id="patch_200">
    <path clip-path="url(#p0a66066c1a)" d="M 370.25808 283.910437 
L 371.881352 283.910437 
L 371.881352 283.910437 
L 370.25808 283.910437 
z
" style="fill:#1f77b4;"/>
   </g>
   <g id="patch_201">
    <path clip-path="url(#p0a66066c1a)" d="M 371.881352 283.910437 
L 373.504625 283.910437 
L 373.504625 283.564208 
L 371.881352 283.564208 
z
" style="fill:#1f77b4;"/>
   </g>
   <g id="patch_202">
    <path clip-path="url(#p0a66066c1a)" d="M 373.504625 283.910437 
L 375.127898 283.910437 
L 375.127898 283.564208 
L 373.504625 283.564208 
z
" style="fill:#1f77b4;"/>
   </g>
   <g id="matplotlib.axis_1">
    <g id="xtick_1">
     <g id="line2d_1">
      <defs>
       <path d="M 0 0 
L 0 3.5 
" id="m892114cbe2" style="stroke:#000000;stroke-width:0.8;"/>
      </defs>
      <g>
       <use style="stroke:#000000;stroke-width:0.8;" x="49.591506" xlink:href="#m892114cbe2" y="283.910437"/>
      </g>
     </g>
     <g id="text_1">
      <!-- 0.0 -->
      <g transform="translate(41.639944 298.508875)scale(0.1 -0.1)">
       <defs>
        <path d="M 2034 4250 
Q 1547 4250 1301 3770 
Q 1056 3291 1056 2328 
Q 1056 1369 1301 889 
Q 1547 409 2034 409 
Q 2525 409 2770 889 
Q 3016 1369 3016 2328 
Q 3016 3291 2770 3770 
Q 2525 4250 2034 4250 
z
M 2034 4750 
Q 2819 4750 3233 4129 
Q 3647 3509 3647 2328 
Q 3647 1150 3233 529 
Q 2819 -91 2034 -91 
Q 1250 -91 836 529 
Q 422 1150 422 2328 
Q 422 3509 836 4129 
Q 1250 4750 2034 4750 
z
" id="DejaVuSans-30" transform="scale(0.015625)"/>
        <path d="M 684 794 
L 1344 794 
L 1344 0 
L 684 0 
L 684 794 
z
" id="DejaVuSans-2e" transform="scale(0.015625)"/>
       </defs>
       <use xlink:href="#DejaVuSans-30"/>
       <use x="63.623047" xlink:href="#DejaVuSans-2e"/>
       <use x="95.410156" xlink:href="#DejaVuSans-30"/>
      </g>
     </g>
    </g>
    <g id="xtick_2">
     <g id="line2d_2">
      <g>
       <use style="stroke:#000000;stroke-width:0.8;" x="99.127021" xlink:href="#m892114cbe2" y="283.910437"/>
      </g>
     </g>
     <g id="text_2">
      <!-- 0.5 -->
      <g transform="translate(91.175458 298.508875)scale(0.1 -0.1)">
       <defs>
        <path d="M 691 4666 
L 3169 4666 
L 3169 4134 
L 1269 4134 
L 1269 2991 
Q 1406 3038 1543 3061 
Q 1681 3084 1819 3084 
Q 2600 3084 3056 2656 
Q 3513 2228 3513 1497 
Q 3513 744 3044 326 
Q 2575 -91 1722 -91 
Q 1428 -91 1123 -41 
Q 819 9 494 109 
L 494 744 
Q 775 591 1075 516 
Q 1375 441 1709 441 
Q 2250 441 2565 725 
Q 2881 1009 2881 1497 
Q 2881 1984 2565 2268 
Q 2250 2553 1709 2553 
Q 1456 2553 1204 2497 
Q 953 2441 691 2322 
L 691 4666 
z
" id="DejaVuSans-35" transform="scale(0.015625)"/>
       </defs>
       <use xlink:href="#DejaVuSans-30"/>
       <use x="63.623047" xlink:href="#DejaVuSans-2e"/>
       <use x="95.410156" xlink:href="#DejaVuSans-35"/>
      </g>
     </g>
    </g>
    <g id="xtick_3">
     <g id="line2d_3">
      <g>
       <use style="stroke:#000000;stroke-width:0.8;" x="148.662535" xlink:href="#m892114cbe2" y="283.910437"/>
      </g>
     </g>
     <g id="text_3">
      <!-- 1.0 -->
      <g transform="translate(140.710973 298.508875)scale(0.1 -0.1)">
       <defs>
        <path d="M 794 531 
L 1825 531 
L 1825 4091 
L 703 3866 
L 703 4441 
L 1819 4666 
L 2450 4666 
L 2450 531 
L 3481 531 
L 3481 0 
L 794 0 
L 794 531 
z
" id="DejaVuSans-31" transform="scale(0.015625)"/>
       </defs>
       <use xlink:href="#DejaVuSans-31"/>
       <use x="63.623047" xlink:href="#DejaVuSans-2e"/>
       <use x="95.410156" xlink:href="#DejaVuSans-30"/>
      </g>
     </g>
    </g>
    <g id="xtick_4">
     <g id="line2d_4">
      <g>
       <use style="stroke:#000000;stroke-width:0.8;" x="198.19805" xlink:href="#m892114cbe2" y="283.910437"/>
      </g>
     </g>
     <g id="text_4">
      <!-- 1.5 -->
      <g transform="translate(190.246488 298.508875)scale(0.1 -0.1)">
       <use xlink:href="#DejaVuSans-31"/>
       <use x="63.623047" xlink:href="#DejaVuSans-2e"/>
       <use x="95.410156" xlink:href="#DejaVuSans-35"/>
      </g>
     </g>
    </g>
    <g id="xtick_5">
     <g id="line2d_5">
      <g>
       <use style="stroke:#000000;stroke-width:0.8;" x="247.733565" xlink:href="#m892114cbe2" y="283.910437"/>
      </g>
     </g>
     <g id="text_5">
      <!-- 2.0 -->
      <g transform="translate(239.782002 298.508875)scale(0.1 -0.1)">
       <defs>
        <path d="M 1228 531 
L 3431 531 
L 3431 0 
L 469 0 
L 469 531 
Q 828 903 1448 1529 
Q 2069 2156 2228 2338 
Q 2531 2678 2651 2914 
Q 2772 3150 2772 3378 
Q 2772 3750 2511 3984 
Q 2250 4219 1831 4219 
Q 1534 4219 1204 4116 
Q 875 4013 500 3803 
L 500 4441 
Q 881 4594 1212 4672 
Q 1544 4750 1819 4750 
Q 2544 4750 2975 4387 
Q 3406 4025 3406 3419 
Q 3406 3131 3298 2873 
Q 3191 2616 2906 2266 
Q 2828 2175 2409 1742 
Q 1991 1309 1228 531 
z
" id="DejaVuSans-32" transform="scale(0.015625)"/>
       </defs>
       <use xlink:href="#DejaVuSans-32"/>
       <use x="63.623047" xlink:href="#DejaVuSans-2e"/>
       <use x="95.410156" xlink:href="#DejaVuSans-30"/>
      </g>
     </g>
    </g>
    <g id="xtick_6">
     <g id="line2d_6">
      <g>
       <use style="stroke:#000000;stroke-width:0.8;" x="297.269079" xlink:href="#m892114cbe2" y="283.910437"/>
      </g>
     </g>
     <g id="text_6">
      <!-- 2.5 -->
      <g transform="translate(289.317517 298.508875)scale(0.1 -0.1)">
       <use xlink:href="#DejaVuSans-32"/>
       <use x="63.623047" xlink:href="#DejaVuSans-2e"/>
       <use x="95.410156" xlink:href="#DejaVuSans-35"/>
      </g>
     </g>
    </g>
    <g id="xtick_7">
     <g id="line2d_7">
      <g>
       <use style="stroke:#000000;stroke-width:0.8;" x="346.804594" xlink:href="#m892114cbe2" y="283.910437"/>
      </g>
     </g>
     <g id="text_7">
      <!-- 3.0 -->
      <g transform="translate(338.853032 298.508875)scale(0.1 -0.1)">
       <defs>
        <path d="M 2597 2516 
Q 3050 2419 3304 2112 
Q 3559 1806 3559 1356 
Q 3559 666 3084 287 
Q 2609 -91 1734 -91 
Q 1441 -91 1130 -33 
Q 819 25 488 141 
L 488 750 
Q 750 597 1062 519 
Q 1375 441 1716 441 
Q 2309 441 2620 675 
Q 2931 909 2931 1356 
Q 2931 1769 2642 2001 
Q 2353 2234 1838 2234 
L 1294 2234 
L 1294 2753 
L 1863 2753 
Q 2328 2753 2575 2939 
Q 2822 3125 2822 3475 
Q 2822 3834 2567 4026 
Q 2313 4219 1838 4219 
Q 1578 4219 1281 4162 
Q 984 4106 628 3988 
L 628 4550 
Q 988 4650 1302 4700 
Q 1616 4750 1894 4750 
Q 2613 4750 3031 4423 
Q 3450 4097 3450 3541 
Q 3450 3153 3228 2886 
Q 3006 2619 2597 2516 
z
" id="DejaVuSans-33" transform="scale(0.015625)"/>
       </defs>
       <use xlink:href="#DejaVuSans-33"/>
       <use x="63.623047" xlink:href="#DejaVuSans-2e"/>
       <use x="95.410156" xlink:href="#DejaVuSans-30"/>
      </g>
     </g>
    </g>
    <g id="text_8">
     <!-- Frequency (Hz) -->
     <g transform="translate(175.095938 312.187)scale(0.1 -0.1)">
      <defs>
       <path d="M 628 4666 
L 3309 4666 
L 3309 4134 
L 1259 4134 
L 1259 2759 
L 3109 2759 
L 3109 2228 
L 1259 2228 
L 1259 0 
L 628 0 
L 628 4666 
z
" id="DejaVuSans-46" transform="scale(0.015625)"/>
       <path d="M 2631 2963 
Q 2534 3019 2420 3045 
Q 2306 3072 2169 3072 
Q 1681 3072 1420 2755 
Q 1159 2438 1159 1844 
L 1159 0 
L 581 0 
L 581 3500 
L 1159 3500 
L 1159 2956 
Q 1341 3275 1631 3429 
Q 1922 3584 2338 3584 
Q 2397 3584 2469 3576 
Q 2541 3569 2628 3553 
L 2631 2963 
z
" id="DejaVuSans-72" transform="scale(0.015625)"/>
       <path d="M 3597 1894 
L 3597 1613 
L 953 1613 
Q 991 1019 1311 708 
Q 1631 397 2203 397 
Q 2534 397 2845 478 
Q 3156 559 3463 722 
L 3463 178 
Q 3153 47 2828 -22 
Q 2503 -91 2169 -91 
Q 1331 -91 842 396 
Q 353 884 353 1716 
Q 353 2575 817 3079 
Q 1281 3584 2069 3584 
Q 2775 3584 3186 3129 
Q 3597 2675 3597 1894 
z
M 3022 2063 
Q 3016 2534 2758 2815 
Q 2500 3097 2075 3097 
Q 1594 3097 1305 2825 
Q 1016 2553 972 2059 
L 3022 2063 
z
" id="DejaVuSans-65" transform="scale(0.015625)"/>
       <path d="M 947 1747 
Q 947 1113 1208 752 
Q 1469 391 1925 391 
Q 2381 391 2643 752 
Q 2906 1113 2906 1747 
Q 2906 2381 2643 2742 
Q 2381 3103 1925 3103 
Q 1469 3103 1208 2742 
Q 947 2381 947 1747 
z
M 2906 525 
Q 2725 213 2448 61 
Q 2172 -91 1784 -91 
Q 1150 -91 751 415 
Q 353 922 353 1747 
Q 353 2572 751 3078 
Q 1150 3584 1784 3584 
Q 2172 3584 2448 3432 
Q 2725 3281 2906 2969 
L 2906 3500 
L 3481 3500 
L 3481 -1331 
L 2906 -1331 
L 2906 525 
z
" id="DejaVuSans-71" transform="scale(0.015625)"/>
       <path d="M 544 1381 
L 544 3500 
L 1119 3500 
L 1119 1403 
Q 1119 906 1312 657 
Q 1506 409 1894 409 
Q 2359 409 2629 706 
Q 2900 1003 2900 1516 
L 2900 3500 
L 3475 3500 
L 3475 0 
L 2900 0 
L 2900 538 
Q 2691 219 2414 64 
Q 2138 -91 1772 -91 
Q 1169 -91 856 284 
Q 544 659 544 1381 
z
M 1991 3584 
L 1991 3584 
z
" id="DejaVuSans-75" transform="scale(0.015625)"/>
       <path d="M 3513 2113 
L 3513 0 
L 2938 0 
L 2938 2094 
Q 2938 2591 2744 2837 
Q 2550 3084 2163 3084 
Q 1697 3084 1428 2787 
Q 1159 2491 1159 1978 
L 1159 0 
L 581 0 
L 581 3500 
L 1159 3500 
L 1159 2956 
Q 1366 3272 1645 3428 
Q 1925 3584 2291 3584 
Q 2894 3584 3203 3211 
Q 3513 2838 3513 2113 
z
" id="DejaVuSans-6e" transform="scale(0.015625)"/>
       <path d="M 3122 3366 
L 3122 2828 
Q 2878 2963 2633 3030 
Q 2388 3097 2138 3097 
Q 1578 3097 1268 2742 
Q 959 2388 959 1747 
Q 959 1106 1268 751 
Q 1578 397 2138 397 
Q 2388 397 2633 464 
Q 2878 531 3122 666 
L 3122 134 
Q 2881 22 2623 -34 
Q 2366 -91 2075 -91 
Q 1284 -91 818 406 
Q 353 903 353 1747 
Q 353 2603 823 3093 
Q 1294 3584 2113 3584 
Q 2378 3584 2631 3529 
Q 2884 3475 3122 3366 
z
" id="DejaVuSans-63" transform="scale(0.015625)"/>
       <path d="M 2059 -325 
Q 1816 -950 1584 -1140 
Q 1353 -1331 966 -1331 
L 506 -1331 
L 506 -850 
L 844 -850 
Q 1081 -850 1212 -737 
Q 1344 -625 1503 -206 
L 1606 56 
L 191 3500 
L 800 3500 
L 1894 763 
L 2988 3500 
L 3597 3500 
L 2059 -325 
z
" id="DejaVuSans-79" transform="scale(0.015625)"/>
       <path id="DejaVuSans-20" transform="scale(0.015625)"/>
       <path d="M 1984 4856 
Q 1566 4138 1362 3434 
Q 1159 2731 1159 2009 
Q 1159 1288 1364 580 
Q 1569 -128 1984 -844 
L 1484 -844 
Q 1016 -109 783 600 
Q 550 1309 550 2009 
Q 550 2706 781 3412 
Q 1013 4119 1484 4856 
L 1984 4856 
z
" id="DejaVuSans-28" transform="scale(0.015625)"/>
       <path d="M 628 4666 
L 1259 4666 
L 1259 2753 
L 3553 2753 
L 3553 4666 
L 4184 4666 
L 4184 0 
L 3553 0 
L 3553 2222 
L 1259 2222 
L 1259 0 
L 628 0 
L 628 4666 
z
" id="DejaVuSans-48" transform="scale(0.015625)"/>
       <path d="M 353 3500 
L 3084 3500 
L 3084 2975 
L 922 459 
L 3084 459 
L 3084 0 
L 275 0 
L 275 525 
L 2438 3041 
L 353 3041 
L 353 3500 
z
" id="DejaVuSans-7a" transform="scale(0.015625)"/>
       <path d="M 513 4856 
L 1013 4856 
Q 1481 4119 1714 3412 
Q 1947 2706 1947 2009 
Q 1947 1309 1714 600 
Q 1481 -109 1013 -844 
L 513 -844 
Q 928 -128 1133 580 
Q 1338 1288 1338 2009 
Q 1338 2731 1133 3434 
Q 928 4138 513 4856 
z
" id="DejaVuSans-29" transform="scale(0.015625)"/>
      </defs>
      <use xlink:href="#DejaVuSans-46"/>
      <use x="50.269531" xlink:href="#DejaVuSans-72"/>
      <use x="89.132812" xlink:href="#DejaVuSans-65"/>
      <use x="150.65625" xlink:href="#DejaVuSans-71"/>
      <use x="214.132812" xlink:href="#DejaVuSans-75"/>
      <use x="277.511719" xlink:href="#DejaVuSans-65"/>
      <use x="339.035156" xlink:href="#DejaVuSans-6e"/>
      <use x="402.414062" xlink:href="#DejaVuSans-63"/>
      <use x="457.394531" xlink:href="#DejaVuSans-79"/>
      <use x="516.574219" xlink:href="#DejaVuSans-20"/>
      <use x="548.361328" xlink:href="#DejaVuSans-28"/>
      <use x="587.375" xlink:href="#DejaVuSans-48"/>
      <use x="662.570312" xlink:href="#DejaVuSans-7a"/>
      <use x="715.060547" xlink:href="#DejaVuSans-29"/>
     </g>
    </g>
    <g id="text_9">
     <!-- 1e15 -->
     <g transform="translate(366.12 311.187)scale(0.1 -0.1)">
      <use xlink:href="#DejaVuSans-31"/>
      <use x="63.623047" xlink:href="#DejaVuSans-65"/>
      <use x="125.146484" xlink:href="#DejaVuSans-31"/>
      <use x="188.769531" xlink:href="#DejaVuSans-35"/>
     </g>
    </g>
   </g>
   <g id="matplotlib.axis_2">
    <g id="ytick_1">
     <g id="line2d_8">
      <defs>
       <path d="M 0 0 
L -3.5 0 
" id="m0cf34fa64b" style="stroke:#000000;stroke-width:0.8;"/>
      </defs>
      <g>
       <use style="stroke:#000000;stroke-width:0.8;" x="34.240625" xlink:href="#m0cf34fa64b" y="283.910437"/>
      </g>
     </g>
     <g id="text_10">
      <!-- 0 -->
      <g transform="translate(20.878125 287.709656)scale(0.1 -0.1)">
       <use xlink:href="#DejaVuSans-30"/>
      </g>
     </g>
    </g>
    <g id="ytick_2">
     <g id="line2d_9">
      <g>
       <use style="stroke:#000000;stroke-width:0.8;" x="34.240625" xlink:href="#m0cf34fa64b" y="251.330686"/>
      </g>
     </g>
     <g id="text_11">
      <!-- 1 -->
      <g transform="translate(20.878125 255.129905)scale(0.1 -0.1)">
       <use xlink:href="#DejaVuSans-31"/>
      </g>
     </g>
    </g>
    <g id="ytick_3">
     <g id="line2d_10">
      <g>
       <use style="stroke:#000000;stroke-width:0.8;" x="34.240625" xlink:href="#m0cf34fa64b" y="218.750935"/>
      </g>
     </g>
     <g id="text_12">
      <!-- 2 -->
      <g transform="translate(20.878125 222.550153)scale(0.1 -0.1)">
       <use xlink:href="#DejaVuSans-32"/>
      </g>
     </g>
    </g>
    <g id="ytick_4">
     <g id="line2d_11">
      <g>
       <use style="stroke:#000000;stroke-width:0.8;" x="34.240625" xlink:href="#m0cf34fa64b" y="186.171183"/>
      </g>
     </g>
     <g id="text_13">
      <!-- 3 -->
      <g transform="translate(20.878125 189.970402)scale(0.1 -0.1)">
       <use xlink:href="#DejaVuSans-33"/>
      </g>
     </g>
    </g>
    <g id="ytick_5">
     <g id="line2d_12">
      <g>
       <use style="stroke:#000000;stroke-width:0.8;" x="34.240625" xlink:href="#m0cf34fa64b" y="153.591432"/>
      </g>
     </g>
     <g id="text_14">
      <!-- 4 -->
      <g transform="translate(20.878125 157.390651)scale(0.1 -0.1)">
       <defs>
        <path d="M 2419 4116 
L 825 1625 
L 2419 1625 
L 2419 4116 
z
M 2253 4666 
L 3047 4666 
L 3047 1625 
L 3713 1625 
L 3713 1100 
L 3047 1100 
L 3047 0 
L 2419 0 
L 2419 1100 
L 313 1100 
L 313 1709 
L 2253 4666 
z
" id="DejaVuSans-34" transform="scale(0.015625)"/>
       </defs>
       <use xlink:href="#DejaVuSans-34"/>
      </g>
     </g>
    </g>
    <g id="ytick_6">
     <g id="line2d_13">
      <g>
       <use style="stroke:#000000;stroke-width:0.8;" x="34.240625" xlink:href="#m0cf34fa64b" y="121.01168"/>
      </g>
     </g>
     <g id="text_15">
      <!-- 5 -->
      <g transform="translate(20.878125 124.810899)scale(0.1 -0.1)">
       <use xlink:href="#DejaVuSans-35"/>
      </g>
     </g>
    </g>
    <g id="ytick_7">
     <g id="line2d_14">
      <g>
       <use style="stroke:#000000;stroke-width:0.8;" x="34.240625" xlink:href="#m0cf34fa64b" y="88.431929"/>
      </g>
     </g>
     <g id="text_16">
      <!-- 6 -->
      <g transform="translate(20.878125 92.231148)scale(0.1 -0.1)">
       <defs>
        <path d="M 2113 2584 
Q 1688 2584 1439 2293 
Q 1191 2003 1191 1497 
Q 1191 994 1439 701 
Q 1688 409 2113 409 
Q 2538 409 2786 701 
Q 3034 994 3034 1497 
Q 3034 2003 2786 2293 
Q 2538 2584 2113 2584 
z
M 3366 4563 
L 3366 3988 
Q 3128 4100 2886 4159 
Q 2644 4219 2406 4219 
Q 1781 4219 1451 3797 
Q 1122 3375 1075 2522 
Q 1259 2794 1537 2939 
Q 1816 3084 2150 3084 
Q 2853 3084 3261 2657 
Q 3669 2231 3669 1497 
Q 3669 778 3244 343 
Q 2819 -91 2113 -91 
Q 1303 -91 875 529 
Q 447 1150 447 2328 
Q 447 3434 972 4092 
Q 1497 4750 2381 4750 
Q 2619 4750 2861 4703 
Q 3103 4656 3366 4563 
z
" id="DejaVuSans-36" transform="scale(0.015625)"/>
       </defs>
       <use xlink:href="#DejaVuSans-36"/>
      </g>
     </g>
    </g>
    <g id="ytick_8">
     <g id="line2d_15">
      <g>
       <use style="stroke:#000000;stroke-width:0.8;" x="34.240625" xlink:href="#m0cf34fa64b" y="55.852178"/>
      </g>
     </g>
     <g id="text_17">
      <!-- 7 -->
      <g transform="translate(20.878125 59.651396)scale(0.1 -0.1)">
       <defs>
        <path d="M 525 4666 
L 3525 4666 
L 3525 4397 
L 1831 0 
L 1172 0 
L 2766 4134 
L 525 4134 
L 525 4666 
z
" id="DejaVuSans-37" transform="scale(0.015625)"/>
       </defs>
       <use xlink:href="#DejaVuSans-37"/>
      </g>
     </g>
    </g>
    <g id="ytick_9">
     <g id="line2d_16">
      <g>
       <use style="stroke:#000000;stroke-width:0.8;" x="34.240625" xlink:href="#m0cf34fa64b" y="23.272426"/>
      </g>
     </g>
     <g id="text_18">
      <!-- 8 -->
      <g transform="translate(20.878125 27.071645)scale(0.1 -0.1)">
       <defs>
        <path d="M 2034 2216 
Q 1584 2216 1326 1975 
Q 1069 1734 1069 1313 
Q 1069 891 1326 650 
Q 1584 409 2034 409 
Q 2484 409 2743 651 
Q 3003 894 3003 1313 
Q 3003 1734 2745 1975 
Q 2488 2216 2034 2216 
z
M 1403 2484 
Q 997 2584 770 2862 
Q 544 3141 544 3541 
Q 544 4100 942 4425 
Q 1341 4750 2034 4750 
Q 2731 4750 3128 4425 
Q 3525 4100 3525 3541 
Q 3525 3141 3298 2862 
Q 3072 2584 2669 2484 
Q 3125 2378 3379 2068 
Q 3634 1759 3634 1313 
Q 3634 634 3220 271 
Q 2806 -91 2034 -91 
Q 1263 -91 848 271 
Q 434 634 434 1313 
Q 434 1759 690 2068 
Q 947 2378 1403 2484 
z
M 1172 3481 
Q 1172 3119 1398 2916 
Q 1625 2713 2034 2713 
Q 2441 2713 2670 2916 
Q 2900 3119 2900 3481 
Q 2900 3844 2670 4047 
Q 2441 4250 2034 4250 
Q 1625 4250 1398 4047 
Q 1172 3844 1172 3481 
z
" id="DejaVuSans-38" transform="scale(0.015625)"/>
       </defs>
       <use xlink:href="#DejaVuSans-38"/>
      </g>
     </g>
    </g>
    <g id="text_19">
     <!-- Luminosity density w.r.t. frequency (erg/s/Hz) -->
     <g transform="translate(14.798438 264.325531)rotate(-90)scale(0.1 -0.1)">
      <defs>
       <path d="M 628 4666 
L 1259 4666 
L 1259 531 
L 3531 531 
L 3531 0 
L 628 0 
L 628 4666 
z
" id="DejaVuSans-4c" transform="scale(0.015625)"/>
       <path d="M 3328 2828 
Q 3544 3216 3844 3400 
Q 4144 3584 4550 3584 
Q 5097 3584 5394 3201 
Q 5691 2819 5691 2113 
L 5691 0 
L 5113 0 
L 5113 2094 
Q 5113 2597 4934 2840 
Q 4756 3084 4391 3084 
Q 3944 3084 3684 2787 
Q 3425 2491 3425 1978 
L 3425 0 
L 2847 0 
L 2847 2094 
Q 2847 2600 2669 2842 
Q 2491 3084 2119 3084 
Q 1678 3084 1418 2786 
Q 1159 2488 1159 1978 
L 1159 0 
L 581 0 
L 581 3500 
L 1159 3500 
L 1159 2956 
Q 1356 3278 1631 3431 
Q 1906 3584 2284 3584 
Q 2666 3584 2933 3390 
Q 3200 3197 3328 2828 
z
" id="DejaVuSans-6d" transform="scale(0.015625)"/>
       <path d="M 603 3500 
L 1178 3500 
L 1178 0 
L 603 0 
L 603 3500 
z
M 603 4863 
L 1178 4863 
L 1178 4134 
L 603 4134 
L 603 4863 
z
" id="DejaVuSans-69" transform="scale(0.015625)"/>
       <path d="M 1959 3097 
Q 1497 3097 1228 2736 
Q 959 2375 959 1747 
Q 959 1119 1226 758 
Q 1494 397 1959 397 
Q 2419 397 2687 759 
Q 2956 1122 2956 1747 
Q 2956 2369 2687 2733 
Q 2419 3097 1959 3097 
z
M 1959 3584 
Q 2709 3584 3137 3096 
Q 3566 2609 3566 1747 
Q 3566 888 3137 398 
Q 2709 -91 1959 -91 
Q 1206 -91 779 398 
Q 353 888 353 1747 
Q 353 2609 779 3096 
Q 1206 3584 1959 3584 
z
" id="DejaVuSans-6f" transform="scale(0.015625)"/>
       <path d="M 2834 3397 
L 2834 2853 
Q 2591 2978 2328 3040 
Q 2066 3103 1784 3103 
Q 1356 3103 1142 2972 
Q 928 2841 928 2578 
Q 928 2378 1081 2264 
Q 1234 2150 1697 2047 
L 1894 2003 
Q 2506 1872 2764 1633 
Q 3022 1394 3022 966 
Q 3022 478 2636 193 
Q 2250 -91 1575 -91 
Q 1294 -91 989 -36 
Q 684 19 347 128 
L 347 722 
Q 666 556 975 473 
Q 1284 391 1588 391 
Q 1994 391 2212 530 
Q 2431 669 2431 922 
Q 2431 1156 2273 1281 
Q 2116 1406 1581 1522 
L 1381 1569 
Q 847 1681 609 1914 
Q 372 2147 372 2553 
Q 372 3047 722 3315 
Q 1072 3584 1716 3584 
Q 2034 3584 2315 3537 
Q 2597 3491 2834 3397 
z
" id="DejaVuSans-73" transform="scale(0.015625)"/>
       <path d="M 1172 4494 
L 1172 3500 
L 2356 3500 
L 2356 3053 
L 1172 3053 
L 1172 1153 
Q 1172 725 1289 603 
Q 1406 481 1766 481 
L 2356 481 
L 2356 0 
L 1766 0 
Q 1100 0 847 248 
Q 594 497 594 1153 
L 594 3053 
L 172 3053 
L 172 3500 
L 594 3500 
L 594 4494 
L 1172 4494 
z
" id="DejaVuSans-74" transform="scale(0.015625)"/>
       <path d="M 2906 2969 
L 2906 4863 
L 3481 4863 
L 3481 0 
L 2906 0 
L 2906 525 
Q 2725 213 2448 61 
Q 2172 -91 1784 -91 
Q 1150 -91 751 415 
Q 353 922 353 1747 
Q 353 2572 751 3078 
Q 1150 3584 1784 3584 
Q 2172 3584 2448 3432 
Q 2725 3281 2906 2969 
z
M 947 1747 
Q 947 1113 1208 752 
Q 1469 391 1925 391 
Q 2381 391 2643 752 
Q 2906 1113 2906 1747 
Q 2906 2381 2643 2742 
Q 2381 3103 1925 3103 
Q 1469 3103 1208 2742 
Q 947 2381 947 1747 
z
" id="DejaVuSans-64" transform="scale(0.015625)"/>
       <path d="M 269 3500 
L 844 3500 
L 1563 769 
L 2278 3500 
L 2956 3500 
L 3675 769 
L 4391 3500 
L 4966 3500 
L 4050 0 
L 3372 0 
L 2619 2869 
L 1863 0 
L 1184 0 
L 269 3500 
z
" id="DejaVuSans-77" transform="scale(0.015625)"/>
       <path d="M 2375 4863 
L 2375 4384 
L 1825 4384 
Q 1516 4384 1395 4259 
Q 1275 4134 1275 3809 
L 1275 3500 
L 2222 3500 
L 2222 3053 
L 1275 3053 
L 1275 0 
L 697 0 
L 697 3053 
L 147 3053 
L 147 3500 
L 697 3500 
L 697 3744 
Q 697 4328 969 4595 
Q 1241 4863 1831 4863 
L 2375 4863 
z
" id="DejaVuSans-66" transform="scale(0.015625)"/>
       <path d="M 2906 1791 
Q 2906 2416 2648 2759 
Q 2391 3103 1925 3103 
Q 1463 3103 1205 2759 
Q 947 2416 947 1791 
Q 947 1169 1205 825 
Q 1463 481 1925 481 
Q 2391 481 2648 825 
Q 2906 1169 2906 1791 
z
M 3481 434 
Q 3481 -459 3084 -895 
Q 2688 -1331 1869 -1331 
Q 1566 -1331 1297 -1286 
Q 1028 -1241 775 -1147 
L 775 -588 
Q 1028 -725 1275 -790 
Q 1522 -856 1778 -856 
Q 2344 -856 2625 -561 
Q 2906 -266 2906 331 
L 2906 616 
Q 2728 306 2450 153 
Q 2172 0 1784 0 
Q 1141 0 747 490 
Q 353 981 353 1791 
Q 353 2603 747 3093 
Q 1141 3584 1784 3584 
Q 2172 3584 2450 3431 
Q 2728 3278 2906 2969 
L 2906 3500 
L 3481 3500 
L 3481 434 
z
" id="DejaVuSans-67" transform="scale(0.015625)"/>
       <path d="M 1625 4666 
L 2156 4666 
L 531 -594 
L 0 -594 
L 1625 4666 
z
" id="DejaVuSans-2f" transform="scale(0.015625)"/>
      </defs>
      <use xlink:href="#DejaVuSans-4c"/>
      <use x="53.962891" xlink:href="#DejaVuSans-75"/>
      <use x="117.341797" xlink:href="#DejaVuSans-6d"/>
      <use x="214.753906" xlink:href="#DejaVuSans-69"/>
      <use x="242.537109" xlink:href="#DejaVuSans-6e"/>
      <use x="305.916016" xlink:href="#DejaVuSans-6f"/>
      <use x="367.097656" xlink:href="#DejaVuSans-73"/>
      <use x="419.197266" xlink:href="#DejaVuSans-69"/>
      <use x="446.980469" xlink:href="#DejaVuSans-74"/>
      <use x="486.189453" xlink:href="#DejaVuSans-79"/>
      <use x="545.369141" xlink:href="#DejaVuSans-20"/>
      <use x="577.15625" xlink:href="#DejaVuSans-64"/>
      <use x="640.632812" xlink:href="#DejaVuSans-65"/>
      <use x="702.15625" xlink:href="#DejaVuSans-6e"/>
      <use x="765.535156" xlink:href="#DejaVuSans-73"/>
      <use x="817.634766" xlink:href="#DejaVuSans-69"/>
      <use x="845.417969" xlink:href="#DejaVuSans-74"/>
      <use x="884.626953" xlink:href="#DejaVuSans-79"/>
      <use x="943.806641" xlink:href="#DejaVuSans-20"/>
      <use x="975.59375" xlink:href="#DejaVuSans-77"/>
      <use x="1048.255859" xlink:href="#DejaVuSans-2e"/>
      <use x="1080.042969" xlink:href="#DejaVuSans-72"/>
      <use x="1112.03125" xlink:href="#DejaVuSans-2e"/>
      <use x="1143.818359" xlink:href="#DejaVuSans-74"/>
      <use x="1183.027344" xlink:href="#DejaVuSans-2e"/>
      <use x="1214.814453" xlink:href="#DejaVuSans-20"/>
      <use x="1246.601562" xlink:href="#DejaVuSans-66"/>
      <use x="1281.806641" xlink:href="#DejaVuSans-72"/>
      <use x="1320.669922" xlink:href="#DejaVuSans-65"/>
      <use x="1382.193359" xlink:href="#DejaVuSans-71"/>
      <use x="1445.669922" xlink:href="#DejaVuSans-75"/>
      <use x="1509.048828" xlink:href="#DejaVuSans-65"/>
      <use x="1570.572266" xlink:href="#DejaVuSans-6e"/>
      <use x="1633.951172" xlink:href="#DejaVuSans-63"/>
      <use x="1688.931641" xlink:href="#DejaVuSans-79"/>
      <use x="1748.111328" xlink:href="#DejaVuSans-20"/>
      <use x="1779.898438" xlink:href="#DejaVuSans-28"/>
      <use x="1818.912109" xlink:href="#DejaVuSans-65"/>
      <use x="1880.435547" xlink:href="#DejaVuSans-72"/>
      <use x="1919.798828" xlink:href="#DejaVuSans-67"/>
      <use x="1983.275391" xlink:href="#DejaVuSans-2f"/>
      <use x="2016.966797" xlink:href="#DejaVuSans-73"/>
      <use x="2069.066406" xlink:href="#DejaVuSans-2f"/>
      <use x="2102.757812" xlink:href="#DejaVuSans-48"/>
      <use x="2177.953125" xlink:href="#DejaVuSans-7a"/>
      <use x="2230.443359" xlink:href="#DejaVuSans-29"/>
     </g>
    </g>
    <g id="text_20">
     <!-- 1e27 -->
     <g transform="translate(34.240625 14.798437)scale(0.1 -0.1)">
      <use xlink:href="#DejaVuSans-31"/>
      <use x="63.623047" xlink:href="#DejaVuSans-65"/>
      <use x="125.146484" xlink:href="#DejaVuSans-32"/>
      <use x="188.769531" xlink:href="#DejaVuSans-37"/>
     </g>
    </g>
   </g>
   <g id="line2d_17">
    <path clip-path="url(#p0a66066c1a)" d="M 50.473352 283.605374 
L 52.104782 281.530259 
L 53.736212 277.695829 
L 55.367642 272.328782 
L 56.999072 265.64251 
L 58.630502 257.837233 
L 60.261932 249.10016 
L 63.524791 229.515694 
L 66.787651 208.135349 
L 74.9448 153.310745 
L 78.20766 132.803342 
L 81.47052 113.917459 
L 84.73338 97.00674 
L 86.36481 89.370745 
L 87.996239 82.309943 
L 89.627669 75.838751 
L 91.259099 69.966303 
L 92.890529 64.696906 
L 94.521959 60.030479 
L 96.153389 55.962979 
L 97.784819 52.486812 
L 99.416249 49.591224 
L 101.047678 47.262677 
L 102.679108 45.485208 
L 104.310538 44.240761 
L 105.941968 43.509511 
L 107.573398 43.270155 
L 109.204828 43.500195 
L 110.836258 44.176194 
L 112.467688 45.274011 
L 114.099117 46.769026 
L 115.730547 48.636333 
L 117.361977 50.850927 
L 118.993407 53.387865 
L 120.624837 56.22241 
L 122.256267 59.330169 
L 125.519127 66.270118 
L 128.781986 74.023343 
L 132.044846 82.416807 
L 136.939136 95.861542 
L 143.464855 114.657359 
L 153.253435 142.919245 
L 158.147724 156.479433 
L 163.042014 169.402856 
L 167.936303 181.565526 
L 171.199163 189.210685 
L 174.462023 196.467881 
L 177.724883 203.329505 
L 180.987742 209.793375 
L 184.250602 215.86189 
L 187.513462 221.541255 
L 190.776322 226.840784 
L 194.039181 231.772266 
L 197.302041 236.349421 
L 200.564901 240.587402 
L 203.827761 244.502381 
L 207.09062 248.111183 
L 210.35348 251.430976 
L 213.61634 254.479016 
L 216.8792 257.27243 
L 220.142059 259.828041 
L 223.404919 262.162232 
L 226.667779 264.290831 
L 229.930639 266.229036 
L 234.824928 268.810877 
L 239.719218 271.042616 
L 244.613508 272.966226 
L 249.507797 274.619812 
L 254.402087 276.0377 
L 259.296376 277.250601 
L 265.822096 278.595682 
L 272.347815 279.680665 
L 278.873535 280.552806 
L 287.030684 281.403169 
L 296.819264 282.152589 
L 308.239273 282.755691 
L 321.290712 283.201151 
L 337.605011 283.528458 
L 360.445029 283.752381 
L 375.127898 283.821586 
L 375.127898 283.821586 
" style="fill:none;stroke:#ff7f0e;stroke-linecap:square;stroke-width:1.5;"/>
   </g>
   <g id="patch_203">
    <path d="M 34.240625 283.910437 
L 34.240625 17.798437 
" style="fill:none;stroke:#000000;stroke-linecap:square;stroke-linejoin:miter;stroke-width:0.8;"/>
   </g>
   <g id="patch_204">
    <path d="M 391.360625 283.910437 
L 391.360625 17.798437 
" style="fill:none;stroke:#000000;stroke-linecap:square;stroke-linejoin:miter;stroke-width:0.8;"/>
   </g>
   <g id="patch_205">
    <path d="M 34.240625 283.910437 
L 391.360625 283.910437 
" style="fill:none;stroke:#000000;stroke-linecap:square;stroke-linejoin:miter;stroke-width:0.8;"/>
   </g>
   <g id="patch_206">
    <path d="M 34.240625 17.798437 
L 391.360625 17.798437 
" style="fill:none;stroke:#000000;stroke-linecap:square;stroke-linejoin:miter;stroke-width:0.8;"/>
   </g>
  </g>
 </g>
 <defs>
  <clipPath id="p0a66066c1a">
   <rect height="266.112" width="357.12" x="34.240625" y="17.798438"/>
  </clipPath>
 </defs>
</svg>
