<?xml version="1.0" encoding="utf-8" standalone="no"?>
<!DOCTYPE svg PUBLIC "-//W3C//DTD SVG 1.1//EN"
  "http://www.w3.org/Graphics/SVG/1.1/DTD/svg11.dtd">
<svg height="310.86825pt" version="1.1" viewBox="0 0 408.10125 310.86825" width="408.10125pt" xmlns="http://www.w3.org/2000/svg" xmlns:xlink="http://www.w3.org/1999/xlink">
 <metadata>
  <rdf:RDF xmlns:cc="http://creativecommons.org/ns#" xmlns:dc="http://purl.org/dc/elements/1.1/" xmlns:rdf="http://www.w3.org/1999/02/22-rdf-syntax-ns#">
   <cc:Work>
    <dc:type rdf:resource="http://purl.org/dc/dcmitype/StillImage"/>
    <dc:date>2021-07-06T19:44:06.113781</dc:date>
    <dc:format>image/svg+xml</dc:format>
    <dc:creator>
     <cc:Agent>
      <dc:title>Matplotlib v3.4.2, https://matplotlib.org/</dc:title>
     </cc:Agent>
    </dc:creator>
   </cc:Work>
  </rdf:RDF>
 </metadata>
 <defs>
  <style type="text/css">*{stroke-linecap:butt;stroke-linejoin:round;}</style>
 </defs>
 <g id="figure_1">
  <g id="patch_1">
   <path d="M 0 310.86825 
L 408.10125 310.86825 
L 408.10125 0 
L 0 0 
z
" style="fill:#ffffff;"/>
  </g>
  <g id="axes_1">
   <g id="patch_2">
    <path d="M 43.78125 273.312 
L 400.90125 273.312 
L 400.90125 7.2 
L 43.78125 7.2 
z
" style="fill:#ffffff;"/>
   </g>
   <g id="patch_3">
    <path clip-path="url(#pd2c8871d4f)" d="M 60.916113 273.312 
L 62.529782 273.312 
L 62.529782 268.813065 
L 60.916113 268.813065 
z
" style="fill:#1f77b4;"/>
   </g>
   <g id="patch_4">
    <path clip-path="url(#pd2c8871d4f)" d="M 62.529782 273.312 
L 64.143451 273.312 
L 64.143451 270.31271 
L 62.529782 270.31271 
z
" style="fill:#1f77b4;"/>
   </g>
   <g id="patch_5">
    <path clip-path="url(#pd2c8871d4f)" d="M 64.143451 273.312 
L 65.757121 273.312 
L 65.757121 262.814485 
L 64.143451 262.814485 
z
" style="fill:#1f77b4;"/>
   </g>
   <g id="patch_6">
    <path clip-path="url(#pd2c8871d4f)" d="M 65.757121 273.312 
L 67.37079 273.312 
L 67.37079 262.064663 
L 65.757121 262.064663 
z
" style="fill:#1f77b4;"/>
   </g>
   <g id="patch_7">
    <path clip-path="url(#pd2c8871d4f)" d="M 67.37079 273.312 
L 68.984459 273.312 
L 68.984459 257.565728 
L 67.37079 257.565728 
z
" style="fill:#1f77b4;"/>
   </g>
   <g id="patch_8">
    <path clip-path="url(#pd2c8871d4f)" d="M 68.984459 273.312 
L 70.598128 273.312 
L 70.598128 252.31697 
L 68.984459 252.31697 
z
" style="fill:#1f77b4;"/>
   </g>
   <g id="patch_9">
    <path clip-path="url(#pd2c8871d4f)" d="M 70.598128 273.312 
L 72.211798 273.312 
L 72.211798 242.569278 
L 70.598128 242.569278 
z
" style="fill:#1f77b4;"/>
   </g>
   <g id="patch_10">
    <path clip-path="url(#pd2c8871d4f)" d="M 72.211798 273.312 
L 73.825467 273.312 
L 73.825467 247.068213 
L 72.211798 247.068213 
z
" style="fill:#1f77b4;"/>
   </g>
   <g id="patch_11">
    <path clip-path="url(#pd2c8871d4f)" d="M 73.825467 273.312 
L 75.439136 273.312 
L 75.439136 245.568568 
L 73.825467 245.568568 
z
" style="fill:#1f77b4;"/>
   </g>
   <g id="patch_12">
    <path clip-path="url(#pd2c8871d4f)" d="M 75.439136 273.312 
L 77.052806 273.312 
L 77.052806 236.570698 
L 75.439136 236.570698 
z
" style="fill:#1f77b4;"/>
   </g>
   <g id="patch_13">
    <path clip-path="url(#pd2c8871d4f)" d="M 77.052806 273.312 
L 78.666475 273.312 
L 78.666475 241.819456 
L 77.052806 241.819456 
z
" style="fill:#1f77b4;"/>
   </g>
   <g id="patch_14">
    <path clip-path="url(#pd2c8871d4f)" d="M 78.666475 273.312 
L 80.280144 273.312 
L 80.280144 229.822296 
L 78.666475 229.822296 
z
" style="fill:#1f77b4;"/>
   </g>
   <g id="patch_15">
    <path clip-path="url(#pd2c8871d4f)" d="M 80.280144 273.312 
L 81.893813 273.312 
L 81.893813 229.072473 
L 80.280144 229.072473 
z
" style="fill:#1f77b4;"/>
   </g>
   <g id="patch_16">
    <path clip-path="url(#pd2c8871d4f)" d="M 81.893813 273.312 
L 83.507483 273.312 
L 83.507483 222.324071 
L 81.893813 222.324071 
z
" style="fill:#1f77b4;"/>
   </g>
   <g id="patch_17">
    <path clip-path="url(#pd2c8871d4f)" d="M 83.507483 273.312 
L 85.121152 273.312 
L 85.121152 219.324781 
L 83.507483 219.324781 
z
" style="fill:#1f77b4;"/>
   </g>
   <g id="patch_18">
    <path clip-path="url(#pd2c8871d4f)" d="M 85.121152 273.312 
L 86.734821 273.312 
L 86.734821 211.076734 
L 85.121152 211.076734 
z
" style="fill:#1f77b4;"/>
   </g>
   <g id="patch_19">
    <path clip-path="url(#pd2c8871d4f)" d="M 86.734821 273.312 
L 88.348491 273.312 
L 88.348491 220.074604 
L 86.734821 220.074604 
z
" style="fill:#1f77b4;"/>
   </g>
   <g id="patch_20">
    <path clip-path="url(#pd2c8871d4f)" d="M 88.348491 273.312 
L 89.96216 273.312 
L 89.96216 216.325491 
L 88.348491 216.325491 
z
" style="fill:#1f77b4;"/>
   </g>
   <g id="patch_21">
    <path clip-path="url(#pd2c8871d4f)" d="M 89.96216 273.312 
L 91.575829 273.312 
L 91.575829 196.830107 
L 89.96216 196.830107 
z
" style="fill:#1f77b4;"/>
   </g>
   <g id="patch_22">
    <path clip-path="url(#pd2c8871d4f)" d="M 91.575829 273.312 
L 93.189498 273.312 
L 93.189498 201.329041 
L 91.575829 201.329041 
z
" style="fill:#1f77b4;"/>
   </g>
   <g id="patch_23">
    <path clip-path="url(#pd2c8871d4f)" d="M 93.189498 273.312 
L 94.803168 273.312 
L 94.803168 206.577799 
L 93.189498 206.577799 
z
" style="fill:#1f77b4;"/>
   </g>
   <g id="patch_24">
    <path clip-path="url(#pd2c8871d4f)" d="M 94.803168 273.312 
L 96.416837 273.312 
L 96.416837 194.580639 
L 94.803168 194.580639 
z
" style="fill:#1f77b4;"/>
   </g>
   <g id="patch_25">
    <path clip-path="url(#pd2c8871d4f)" d="M 96.416837 273.312 
L 98.030506 273.312 
L 98.030506 178.084544 
L 96.416837 178.084544 
z
" style="fill:#1f77b4;"/>
   </g>
   <g id="patch_26">
    <path clip-path="url(#pd2c8871d4f)" d="M 98.030506 273.312 
L 99.644176 273.312 
L 99.644176 191.581349 
L 98.030506 191.581349 
z
" style="fill:#1f77b4;"/>
   </g>
   <g id="patch_27">
    <path clip-path="url(#pd2c8871d4f)" d="M 99.644176 273.312 
L 101.257845 273.312 
L 101.257845 187.082414 
L 99.644176 187.082414 
z
" style="fill:#1f77b4;"/>
   </g>
   <g id="patch_28">
    <path clip-path="url(#pd2c8871d4f)" d="M 101.257845 273.312 
L 102.871514 273.312 
L 102.871514 169.836497 
L 101.257845 169.836497 
z
" style="fill:#1f77b4;"/>
   </g>
   <g id="patch_29">
    <path clip-path="url(#pd2c8871d4f)" d="M 102.871514 273.312 
L 104.485183 273.312 
L 104.485183 181.083834 
L 102.871514 181.083834 
z
" style="fill:#1f77b4;"/>
   </g>
   <g id="patch_30">
    <path clip-path="url(#pd2c8871d4f)" d="M 104.485183 273.312 
L 106.098853 273.312 
L 106.098853 181.083834 
L 104.485183 181.083834 
z
" style="fill:#1f77b4;"/>
   </g>
   <g id="patch_31">
    <path clip-path="url(#pd2c8871d4f)" d="M 106.098853 273.312 
L 107.712522 273.312 
L 107.712522 175.085254 
L 106.098853 175.085254 
z
" style="fill:#1f77b4;"/>
   </g>
   <g id="patch_32">
    <path clip-path="url(#pd2c8871d4f)" d="M 107.712522 273.312 
L 109.326191 273.312 
L 109.326191 164.58774 
L 107.712522 164.58774 
z
" style="fill:#1f77b4;"/>
   </g>
   <g id="patch_33">
    <path clip-path="url(#pd2c8871d4f)" d="M 109.326191 273.312 
L 110.939861 273.312 
L 110.939861 170.58632 
L 109.326191 170.58632 
z
" style="fill:#1f77b4;"/>
   </g>
   <g id="patch_34">
    <path clip-path="url(#pd2c8871d4f)" d="M 110.939861 273.312 
L 112.55353 273.312 
L 112.55353 166.837207 
L 110.939861 166.837207 
z
" style="fill:#1f77b4;"/>
   </g>
   <g id="patch_35">
    <path clip-path="url(#pd2c8871d4f)" d="M 112.55353 273.312 
L 114.167199 273.312 
L 114.167199 163.088095 
L 112.55353 163.088095 
z
" style="fill:#1f77b4;"/>
   </g>
   <g id="patch_36">
    <path clip-path="url(#pd2c8871d4f)" d="M 114.167199 273.312 
L 115.780868 273.312 
L 115.780868 164.58774 
L 114.167199 164.58774 
z
" style="fill:#1f77b4;"/>
   </g>
   <g id="patch_37">
    <path clip-path="url(#pd2c8871d4f)" d="M 115.780868 273.312 
L 117.394538 273.312 
L 117.394538 151.840757 
L 115.780868 151.840757 
z
" style="fill:#1f77b4;"/>
   </g>
   <g id="patch_38">
    <path clip-path="url(#pd2c8871d4f)" d="M 117.394538 273.312 
L 119.008207 273.312 
L 119.008207 146.592 
L 117.394538 146.592 
z
" style="fill:#1f77b4;"/>
   </g>
   <g id="patch_39">
    <path clip-path="url(#pd2c8871d4f)" d="M 119.008207 273.312 
L 120.621876 273.312 
L 120.621876 145.842178 
L 119.008207 145.842178 
z
" style="fill:#1f77b4;"/>
   </g>
   <g id="patch_40">
    <path clip-path="url(#pd2c8871d4f)" d="M 120.621876 273.312 
L 122.235546 273.312 
L 122.235546 145.092355 
L 120.621876 145.092355 
z
" style="fill:#1f77b4;"/>
   </g>
   <g id="patch_41">
    <path clip-path="url(#pd2c8871d4f)" d="M 122.235546 273.312 
L 123.849215 273.312 
L 123.849215 139.843598 
L 122.235546 139.843598 
z
" style="fill:#1f77b4;"/>
   </g>
   <g id="patch_42">
    <path clip-path="url(#pd2c8871d4f)" d="M 123.849215 273.312 
L 125.462884 273.312 
L 125.462884 132.345373 
L 123.849215 132.345373 
z
" style="fill:#1f77b4;"/>
   </g>
   <g id="patch_43">
    <path clip-path="url(#pd2c8871d4f)" d="M 125.462884 273.312 
L 127.076554 273.312 
L 127.076554 126.346793 
L 125.462884 126.346793 
z
" style="fill:#1f77b4;"/>
   </g>
   <g id="patch_44">
    <path clip-path="url(#pd2c8871d4f)" d="M 127.076554 273.312 
L 128.690223 273.312 
L 128.690223 139.093775 
L 127.076554 139.093775 
z
" style="fill:#1f77b4;"/>
   </g>
   <g id="patch_45">
    <path clip-path="url(#pd2c8871d4f)" d="M 128.690223 273.312 
L 130.303892 273.312 
L 130.303892 117.348923 
L 128.690223 117.348923 
z
" style="fill:#1f77b4;"/>
   </g>
   <g id="patch_46">
    <path clip-path="url(#pd2c8871d4f)" d="M 130.303892 273.312 
L 131.917561 273.312 
L 131.917561 127.846438 
L 130.303892 127.846438 
z
" style="fill:#1f77b4;"/>
   </g>
   <g id="patch_47">
    <path clip-path="url(#pd2c8871d4f)" d="M 131.917561 273.312 
L 133.531231 273.312 
L 133.531231 130.845728 
L 131.917561 130.845728 
z
" style="fill:#1f77b4;"/>
   </g>
   <g id="patch_48">
    <path clip-path="url(#pd2c8871d4f)" d="M 133.531231 273.312 
L 135.1449 273.312 
L 135.1449 124.097325 
L 133.531231 124.097325 
z
" style="fill:#1f77b4;"/>
   </g>
   <g id="patch_49">
    <path clip-path="url(#pd2c8871d4f)" d="M 135.1449 273.312 
L 136.758569 273.312 
L 136.758569 125.59697 
L 135.1449 125.59697 
z
" style="fill:#1f77b4;"/>
   </g>
   <g id="patch_50">
    <path clip-path="url(#pd2c8871d4f)" d="M 136.758569 273.312 
L 138.372239 273.312 
L 138.372239 106.101586 
L 136.758569 106.101586 
z
" style="fill:#1f77b4;"/>
   </g>
   <g id="patch_51">
    <path clip-path="url(#pd2c8871d4f)" d="M 138.372239 273.312 
L 139.985908 273.312 
L 139.985908 121.098036 
L 138.372239 121.098036 
z
" style="fill:#1f77b4;"/>
   </g>
   <g id="patch_52">
    <path clip-path="url(#pd2c8871d4f)" d="M 139.985908 273.312 
L 141.599577 273.312 
L 141.599577 121.098036 
L 139.985908 121.098036 
z
" style="fill:#1f77b4;"/>
   </g>
   <g id="patch_53">
    <path clip-path="url(#pd2c8871d4f)" d="M 141.599577 273.312 
L 143.213246 273.312 
L 143.213246 133.095195 
L 141.599577 133.095195 
z
" style="fill:#1f77b4;"/>
   </g>
   <g id="patch_54">
    <path clip-path="url(#pd2c8871d4f)" d="M 143.213246 273.312 
L 144.826916 273.312 
L 144.826916 106.851408 
L 143.213246 106.851408 
z
" style="fill:#1f77b4;"/>
   </g>
   <g id="patch_55">
    <path clip-path="url(#pd2c8871d4f)" d="M 144.826916 273.312 
L 146.440585 273.312 
L 146.440585 84.356734 
L 144.826916 84.356734 
z
" style="fill:#1f77b4;"/>
   </g>
   <g id="patch_56">
    <path clip-path="url(#pd2c8871d4f)" d="M 146.440585 273.312 
L 148.054254 273.312 
L 148.054254 123.347503 
L 146.440585 123.347503 
z
" style="fill:#1f77b4;"/>
   </g>
   <g id="patch_57">
    <path clip-path="url(#pd2c8871d4f)" d="M 148.054254 273.312 
L 149.667924 273.312 
L 149.667924 97.103716 
L 148.054254 97.103716 
z
" style="fill:#1f77b4;"/>
   </g>
   <g id="patch_58">
    <path clip-path="url(#pd2c8871d4f)" d="M 149.667924 273.312 
L 151.281593 273.312 
L 151.281593 76.858509 
L 149.667924 76.858509 
z
" style="fill:#1f77b4;"/>
   </g>
   <g id="patch_59">
    <path clip-path="url(#pd2c8871d4f)" d="M 151.281593 273.312 
L 152.895262 273.312 
L 152.895262 78.358154 
L 151.281593 78.358154 
z
" style="fill:#1f77b4;"/>
   </g>
   <g id="patch_60">
    <path clip-path="url(#pd2c8871d4f)" d="M 152.895262 273.312 
L 154.508931 273.312 
L 154.508931 103.852118 
L 152.895262 103.852118 
z
" style="fill:#1f77b4;"/>
   </g>
   <g id="patch_61">
    <path clip-path="url(#pd2c8871d4f)" d="M 154.508931 273.312 
L 156.122601 273.312 
L 156.122601 91.105136 
L 154.508931 91.105136 
z
" style="fill:#1f77b4;"/>
   </g>
   <g id="patch_62">
    <path clip-path="url(#pd2c8871d4f)" d="M 156.122601 273.312 
L 157.73627 273.312 
L 157.73627 85.856379 
L 156.122601 85.856379 
z
" style="fill:#1f77b4;"/>
   </g>
   <g id="patch_63">
    <path clip-path="url(#pd2c8871d4f)" d="M 157.73627 273.312 
L 159.349939 273.312 
L 159.349939 72.359574 
L 157.73627 72.359574 
z
" style="fill:#1f77b4;"/>
   </g>
   <g id="patch_64">
    <path clip-path="url(#pd2c8871d4f)" d="M 159.349939 273.312 
L 160.963609 273.312 
L 160.963609 61.862059 
L 159.349939 61.862059 
z
" style="fill:#1f77b4;"/>
   </g>
   <g id="patch_65">
    <path clip-path="url(#pd2c8871d4f)" d="M 160.963609 273.312 
L 162.577278 273.312 
L 162.577278 67.110817 
L 160.963609 67.110817 
z
" style="fill:#1f77b4;"/>
   </g>
   <g id="patch_66">
    <path clip-path="url(#pd2c8871d4f)" d="M 162.577278 273.312 
L 164.190947 273.312 
L 164.190947 76.108686 
L 162.577278 76.108686 
z
" style="fill:#1f77b4;"/>
   </g>
   <g id="patch_67">
    <path clip-path="url(#pd2c8871d4f)" d="M 164.190947 273.312 
L 165.804616 273.312 
L 165.804616 66.360994 
L 164.190947 66.360994 
z
" style="fill:#1f77b4;"/>
   </g>
   <g id="patch_68">
    <path clip-path="url(#pd2c8871d4f)" d="M 165.804616 273.312 
L 167.418286 273.312 
L 167.418286 58.862769 
L 165.804616 58.862769 
z
" style="fill:#1f77b4;"/>
   </g>
   <g id="patch_69">
    <path clip-path="url(#pd2c8871d4f)" d="M 167.418286 273.312 
L 169.031955 273.312 
L 169.031955 65.611172 
L 167.418286 65.611172 
z
" style="fill:#1f77b4;"/>
   </g>
   <g id="patch_70">
    <path clip-path="url(#pd2c8871d4f)" d="M 169.031955 273.312 
L 170.645624 273.312 
L 170.645624 95.604071 
L 169.031955 95.604071 
z
" style="fill:#1f77b4;"/>
   </g>
   <g id="patch_71">
    <path clip-path="url(#pd2c8871d4f)" d="M 170.645624 273.312 
L 172.259294 273.312 
L 172.259294 68.610462 
L 170.645624 68.610462 
z
" style="fill:#1f77b4;"/>
   </g>
   <g id="patch_72">
    <path clip-path="url(#pd2c8871d4f)" d="M 172.259294 273.312 
L 173.872963 273.312 
L 173.872963 64.861349 
L 172.259294 64.861349 
z
" style="fill:#1f77b4;"/>
   </g>
   <g id="patch_73">
    <path clip-path="url(#pd2c8871d4f)" d="M 173.872963 273.312 
L 175.486632 273.312 
L 175.486632 45.365964 
L 173.872963 45.365964 
z
" style="fill:#1f77b4;"/>
   </g>
   <g id="patch_74">
    <path clip-path="url(#pd2c8871d4f)" d="M 175.486632 273.312 
L 177.100301 273.312 
L 177.100301 69.360284 
L 175.486632 69.360284 
z
" style="fill:#1f77b4;"/>
   </g>
   <g id="patch_75">
    <path clip-path="url(#pd2c8871d4f)" d="M 177.100301 273.312 
L 178.713971 273.312 
L 178.713971 52.114367 
L 177.100301 52.114367 
z
" style="fill:#1f77b4;"/>
   </g>
   <g id="patch_76">
    <path clip-path="url(#pd2c8871d4f)" d="M 178.713971 273.312 
L 180.32764 273.312 
L 180.32764 58.112947 
L 178.713971 58.112947 
z
" style="fill:#1f77b4;"/>
   </g>
   <g id="patch_77">
    <path clip-path="url(#pd2c8871d4f)" d="M 180.32764 273.312 
L 181.941309 273.312 
L 181.941309 52.114367 
L 180.32764 52.114367 
z
" style="fill:#1f77b4;"/>
   </g>
   <g id="patch_78">
    <path clip-path="url(#pd2c8871d4f)" d="M 181.941309 273.312 
L 183.554979 273.312 
L 183.554979 51.364544 
L 181.941309 51.364544 
z
" style="fill:#1f77b4;"/>
   </g>
   <g id="patch_79">
    <path clip-path="url(#pd2c8871d4f)" d="M 183.554979 273.312 
L 185.168648 273.312 
L 185.168648 56.613302 
L 183.554979 56.613302 
z
" style="fill:#1f77b4;"/>
   </g>
   <g id="patch_80">
    <path clip-path="url(#pd2c8871d4f)" d="M 185.168648 273.312 
L 186.782317 273.312 
L 186.782317 48.365254 
L 185.168648 48.365254 
z
" style="fill:#1f77b4;"/>
   </g>
   <g id="patch_81">
    <path clip-path="url(#pd2c8871d4f)" d="M 186.782317 273.312 
L 188.395986 273.312 
L 188.395986 40.86703 
L 186.782317 40.86703 
z
" style="fill:#1f77b4;"/>
   </g>
   <g id="patch_82">
    <path clip-path="url(#pd2c8871d4f)" d="M 188.395986 273.312 
L 190.009656 273.312 
L 190.009656 40.86703 
L 188.395986 40.86703 
z
" style="fill:#1f77b4;"/>
   </g>
   <g id="patch_83">
    <path clip-path="url(#pd2c8871d4f)" d="M 190.009656 273.312 
L 191.623325 273.312 
L 191.623325 65.611172 
L 190.009656 65.611172 
z
" style="fill:#1f77b4;"/>
   </g>
   <g id="patch_84">
    <path clip-path="url(#pd2c8871d4f)" d="M 191.623325 273.312 
L 193.236994 273.312 
L 193.236994 53.614012 
L 191.623325 53.614012 
z
" style="fill:#1f77b4;"/>
   </g>
   <g id="patch_85">
    <path clip-path="url(#pd2c8871d4f)" d="M 193.236994 273.312 
L 194.850664 273.312 
L 194.850664 40.86703 
L 193.236994 40.86703 
z
" style="fill:#1f77b4;"/>
   </g>
   <g id="patch_86">
    <path clip-path="url(#pd2c8871d4f)" d="M 194.850664 273.312 
L 196.464333 273.312 
L 196.464333 32.618982 
L 194.850664 32.618982 
z
" style="fill:#1f77b4;"/>
   </g>
   <g id="patch_87">
    <path clip-path="url(#pd2c8871d4f)" d="M 196.464333 273.312 
L 198.078002 273.312 
L 198.078002 19.872 
L 196.464333 19.872 
z
" style="fill:#1f77b4;"/>
   </g>
   <g id="patch_88">
    <path clip-path="url(#pd2c8871d4f)" d="M 198.078002 273.312 
L 199.691671 273.312 
L 199.691671 39.367385 
L 198.078002 39.367385 
z
" style="fill:#1f77b4;"/>
   </g>
   <g id="patch_89">
    <path clip-path="url(#pd2c8871d4f)" d="M 199.691671 273.312 
L 201.305341 273.312 
L 201.305341 55.113657 
L 199.691671 55.113657 
z
" style="fill:#1f77b4;"/>
   </g>
   <g id="patch_90">
    <path clip-path="url(#pd2c8871d4f)" d="M 201.305341 273.312 
L 202.91901 273.312 
L 202.91901 55.113657 
L 201.305341 55.113657 
z
" style="fill:#1f77b4;"/>
   </g>
   <g id="patch_91">
    <path clip-path="url(#pd2c8871d4f)" d="M 202.91901 273.312 
L 204.532679 273.312 
L 204.532679 46.865609 
L 202.91901 46.865609 
z
" style="fill:#1f77b4;"/>
   </g>
   <g id="patch_92">
    <path clip-path="url(#pd2c8871d4f)" d="M 204.532679 273.312 
L 206.146349 273.312 
L 206.146349 27.370225 
L 204.532679 27.370225 
z
" style="fill:#1f77b4;"/>
   </g>
   <g id="patch_93">
    <path clip-path="url(#pd2c8871d4f)" d="M 206.146349 273.312 
L 207.760018 273.312 
L 207.760018 46.865609 
L 206.146349 46.865609 
z
" style="fill:#1f77b4;"/>
   </g>
   <g id="patch_94">
    <path clip-path="url(#pd2c8871d4f)" d="M 207.760018 273.312 
L 209.373687 273.312 
L 209.373687 50.614722 
L 207.760018 50.614722 
z
" style="fill:#1f77b4;"/>
   </g>
   <g id="patch_95">
    <path clip-path="url(#pd2c8871d4f)" d="M 209.373687 273.312 
L 210.987356 273.312 
L 210.987356 35.618272 
L 209.373687 35.618272 
z
" style="fill:#1f77b4;"/>
   </g>
   <g id="patch_96">
    <path clip-path="url(#pd2c8871d4f)" d="M 210.987356 273.312 
L 212.601026 273.312 
L 212.601026 25.87058 
L 210.987356 25.87058 
z
" style="fill:#1f77b4;"/>
   </g>
   <g id="patch_97">
    <path clip-path="url(#pd2c8871d4f)" d="M 212.601026 273.312 
L 214.214695 273.312 
L 214.214695 54.363834 
L 212.601026 54.363834 
z
" style="fill:#1f77b4;"/>
   </g>
   <g id="patch_98">
    <path clip-path="url(#pd2c8871d4f)" d="M 214.214695 273.312 
L 215.828364 273.312 
L 215.828364 26.620402 
L 214.214695 26.620402 
z
" style="fill:#1f77b4;"/>
   </g>
   <g id="patch_99">
    <path clip-path="url(#pd2c8871d4f)" d="M 215.828364 273.312 
L 217.442034 273.312 
L 217.442034 34.118627 
L 215.828364 34.118627 
z
" style="fill:#1f77b4;"/>
   </g>
   <g id="patch_100">
    <path clip-path="url(#pd2c8871d4f)" d="M 217.442034 273.312 
L 219.055703 273.312 
L 219.055703 56.613302 
L 217.442034 56.613302 
z
" style="fill:#1f77b4;"/>
   </g>
   <g id="patch_101">
    <path clip-path="url(#pd2c8871d4f)" d="M 219.055703 273.312 
L 220.669372 273.312 
L 220.669372 35.618272 
L 219.055703 35.618272 
z
" style="fill:#1f77b4;"/>
   </g>
   <g id="patch_102">
    <path clip-path="url(#pd2c8871d4f)" d="M 220.669372 273.312 
L 222.283041 273.312 
L 222.283041 40.117207 
L 220.669372 40.117207 
z
" style="fill:#1f77b4;"/>
   </g>
   <g id="patch_103">
    <path clip-path="url(#pd2c8871d4f)" d="M 222.283041 273.312 
L 223.896711 273.312 
L 223.896711 19.872 
L 222.283041 19.872 
z
" style="fill:#1f77b4;"/>
   </g>
   <g id="patch_104">
    <path clip-path="url(#pd2c8871d4f)" d="M 223.896711 273.312 
L 225.51038 273.312 
L 225.51038 37.117917 
L 223.896711 37.117917 
z
" style="fill:#1f77b4;"/>
   </g>
   <g id="patch_105">
    <path clip-path="url(#pd2c8871d4f)" d="M 225.51038 273.312 
L 227.124049 273.312 
L 227.124049 32.618982 
L 225.51038 32.618982 
z
" style="fill:#1f77b4;"/>
   </g>
   <g id="patch_106">
    <path clip-path="url(#pd2c8871d4f)" d="M 227.124049 273.312 
L 228.737719 273.312 
L 228.737719 44.616142 
L 227.124049 44.616142 
z
" style="fill:#1f77b4;"/>
   </g>
   <g id="patch_107">
    <path clip-path="url(#pd2c8871d4f)" d="M 228.737719 273.312 
L 230.351388 273.312 
L 230.351388 58.862769 
L 228.737719 58.862769 
z
" style="fill:#1f77b4;"/>
   </g>
   <g id="patch_108">
    <path clip-path="url(#pd2c8871d4f)" d="M 230.351388 273.312 
L 231.965057 273.312 
L 231.965057 64.861349 
L 230.351388 64.861349 
z
" style="fill:#1f77b4;"/>
   </g>
   <g id="patch_109">
    <path clip-path="url(#pd2c8871d4f)" d="M 231.965057 273.312 
L 233.578726 273.312 
L 233.578726 31.86916 
L 231.965057 31.86916 
z
" style="fill:#1f77b4;"/>
   </g>
   <g id="patch_110">
    <path clip-path="url(#pd2c8871d4f)" d="M 233.578726 273.312 
L 235.192396 273.312 
L 235.192396 23.621112 
L 233.578726 23.621112 
z
" style="fill:#1f77b4;"/>
   </g>
   <g id="patch_111">
    <path clip-path="url(#pd2c8871d4f)" d="M 235.192396 273.312 
L 236.806065 273.312 
L 236.806065 43.86632 
L 235.192396 43.86632 
z
" style="fill:#1f77b4;"/>
   </g>
   <g id="patch_112">
    <path clip-path="url(#pd2c8871d4f)" d="M 236.806065 273.312 
L 238.419734 273.312 
L 238.419734 40.117207 
L 236.806065 40.117207 
z
" style="fill:#1f77b4;"/>
   </g>
   <g id="patch_113">
    <path clip-path="url(#pd2c8871d4f)" d="M 238.419734 273.312 
L 240.033404 273.312 
L 240.033404 43.86632 
L 238.419734 43.86632 
z
" style="fill:#1f77b4;"/>
   </g>
   <g id="patch_114">
    <path clip-path="url(#pd2c8871d4f)" d="M 240.033404 273.312 
L 241.647073 273.312 
L 241.647073 36.368095 
L 240.033404 36.368095 
z
" style="fill:#1f77b4;"/>
   </g>
   <g id="patch_115">
    <path clip-path="url(#pd2c8871d4f)" d="M 241.647073 273.312 
L 243.260742 273.312 
L 243.260742 32.618982 
L 241.647073 32.618982 
z
" style="fill:#1f77b4;"/>
   </g>
   <g id="patch_116">
    <path clip-path="url(#pd2c8871d4f)" d="M 243.260742 273.312 
L 244.874411 273.312 
L 244.874411 46.115787 
L 243.260742 46.115787 
z
" style="fill:#1f77b4;"/>
   </g>
   <g id="patch_117">
    <path clip-path="url(#pd2c8871d4f)" d="M 244.874411 273.312 
L 246.488081 273.312 
L 246.488081 40.117207 
L 244.874411 40.117207 
z
" style="fill:#1f77b4;"/>
   </g>
   <g id="patch_118">
    <path clip-path="url(#pd2c8871d4f)" d="M 246.488081 273.312 
L 248.10175 273.312 
L 248.10175 45.365964 
L 246.488081 45.365964 
z
" style="fill:#1f77b4;"/>
   </g>
   <g id="patch_119">
    <path clip-path="url(#pd2c8871d4f)" d="M 248.10175 273.312 
L 249.715419 273.312 
L 249.715419 33.368805 
L 248.10175 33.368805 
z
" style="fill:#1f77b4;"/>
   </g>
   <g id="patch_120">
    <path clip-path="url(#pd2c8871d4f)" d="M 249.715419 273.312 
L 251.329089 273.312 
L 251.329089 48.365254 
L 249.715419 48.365254 
z
" style="fill:#1f77b4;"/>
   </g>
   <g id="patch_121">
    <path clip-path="url(#pd2c8871d4f)" d="M 251.329089 273.312 
L 252.942758 273.312 
L 252.942758 46.115787 
L 251.329089 46.115787 
z
" style="fill:#1f77b4;"/>
   </g>
   <g id="patch_122">
    <path clip-path="url(#pd2c8871d4f)" d="M 252.942758 273.312 
L 254.556427 273.312 
L 254.556427 46.115787 
L 252.942758 46.115787 
z
" style="fill:#1f77b4;"/>
   </g>
   <g id="patch_123">
    <path clip-path="url(#pd2c8871d4f)" d="M 254.556427 273.312 
L 256.170096 273.312 
L 256.170096 60.362414 
L 254.556427 60.362414 
z
" style="fill:#1f77b4;"/>
   </g>
   <g id="patch_124">
    <path clip-path="url(#pd2c8871d4f)" d="M 256.170096 273.312 
L 257.783766 273.312 
L 257.783766 39.367385 
L 256.170096 39.367385 
z
" style="fill:#1f77b4;"/>
   </g>
   <g id="patch_125">
    <path clip-path="url(#pd2c8871d4f)" d="M 257.783766 273.312 
L 259.397435 273.312 
L 259.397435 64.111527 
L 257.783766 64.111527 
z
" style="fill:#1f77b4;"/>
   </g>
   <g id="patch_126">
    <path clip-path="url(#pd2c8871d4f)" d="M 259.397435 273.312 
L 261.011104 273.312 
L 261.011104 45.365964 
L 259.397435 45.365964 
z
" style="fill:#1f77b4;"/>
   </g>
   <g id="patch_127">
    <path clip-path="url(#pd2c8871d4f)" d="M 261.011104 273.312 
L 262.624774 273.312 
L 262.624774 47.615432 
L 261.011104 47.615432 
z
" style="fill:#1f77b4;"/>
   </g>
   <g id="patch_128">
    <path clip-path="url(#pd2c8871d4f)" d="M 262.624774 273.312 
L 264.238443 273.312 
L 264.238443 57.363124 
L 262.624774 57.363124 
z
" style="fill:#1f77b4;"/>
   </g>
   <g id="patch_129">
    <path clip-path="url(#pd2c8871d4f)" d="M 264.238443 273.312 
L 265.852112 273.312 
L 265.852112 61.862059 
L 264.238443 61.862059 
z
" style="fill:#1f77b4;"/>
   </g>
   <g id="patch_130">
    <path clip-path="url(#pd2c8871d4f)" d="M 265.852112 273.312 
L 267.465781 273.312 
L 267.465781 37.117917 
L 265.852112 37.117917 
z
" style="fill:#1f77b4;"/>
   </g>
   <g id="patch_131">
    <path clip-path="url(#pd2c8871d4f)" d="M 267.465781 273.312 
L 269.079451 273.312 
L 269.079451 55.113657 
L 267.465781 55.113657 
z
" style="fill:#1f77b4;"/>
   </g>
   <g id="patch_132">
    <path clip-path="url(#pd2c8871d4f)" d="M 269.079451 273.312 
L 270.69312 273.312 
L 270.69312 40.86703 
L 269.079451 40.86703 
z
" style="fill:#1f77b4;"/>
   </g>
   <g id="patch_133">
    <path clip-path="url(#pd2c8871d4f)" d="M 270.69312 273.312 
L 272.306789 273.312 
L 272.306789 82.857089 
L 270.69312 82.857089 
z
" style="fill:#1f77b4;"/>
   </g>
   <g id="patch_134">
    <path clip-path="url(#pd2c8871d4f)" d="M 272.306789 273.312 
L 273.920459 273.312 
L 273.920459 66.360994 
L 272.306789 66.360994 
z
" style="fill:#1f77b4;"/>
   </g>
   <g id="patch_135">
    <path clip-path="url(#pd2c8871d4f)" d="M 273.920459 273.312 
L 275.534128 273.312 
L 275.534128 76.108686 
L 273.920459 76.108686 
z
" style="fill:#1f77b4;"/>
   </g>
   <g id="patch_136">
    <path clip-path="url(#pd2c8871d4f)" d="M 275.534128 273.312 
L 277.147797 273.312 
L 277.147797 67.110817 
L 275.534128 67.110817 
z
" style="fill:#1f77b4;"/>
   </g>
   <g id="patch_137">
    <path clip-path="url(#pd2c8871d4f)" d="M 277.147797 273.312 
L 278.761466 273.312 
L 278.761466 75.358864 
L 277.147797 75.358864 
z
" style="fill:#1f77b4;"/>
   </g>
   <g id="patch_138">
    <path clip-path="url(#pd2c8871d4f)" d="M 278.761466 273.312 
L 280.375136 273.312 
L 280.375136 74.609041 
L 278.761466 74.609041 
z
" style="fill:#1f77b4;"/>
   </g>
   <g id="patch_139">
    <path clip-path="url(#pd2c8871d4f)" d="M 280.375136 273.312 
L 281.988805 273.312 
L 281.988805 85.106556 
L 280.375136 85.106556 
z
" style="fill:#1f77b4;"/>
   </g>
   <g id="patch_140">
    <path clip-path="url(#pd2c8871d4f)" d="M 281.988805 273.312 
L 283.602474 273.312 
L 283.602474 78.358154 
L 281.988805 78.358154 
z
" style="fill:#1f77b4;"/>
   </g>
   <g id="patch_141">
    <path clip-path="url(#pd2c8871d4f)" d="M 283.602474 273.312 
L 285.216144 273.312 
L 285.216144 88.855669 
L 283.602474 88.855669 
z
" style="fill:#1f77b4;"/>
   </g>
   <g id="patch_142">
    <path clip-path="url(#pd2c8871d4f)" d="M 285.216144 273.312 
L 286.829813 273.312 
L 286.829813 104.601941 
L 285.216144 104.601941 
z
" style="fill:#1f77b4;"/>
   </g>
   <g id="patch_143">
    <path clip-path="url(#pd2c8871d4f)" d="M 286.829813 273.312 
L 288.443482 273.312 
L 288.443482 79.107976 
L 286.829813 79.107976 
z
" style="fill:#1f77b4;"/>
   </g>
   <g id="patch_144">
    <path clip-path="url(#pd2c8871d4f)" d="M 288.443482 273.312 
L 290.057151 273.312 
L 290.057151 101.602651 
L 288.443482 101.602651 
z
" style="fill:#1f77b4;"/>
   </g>
   <g id="patch_145">
    <path clip-path="url(#pd2c8871d4f)" d="M 290.057151 273.312 
L 291.670821 273.312 
L 291.670821 105.351763 
L 290.057151 105.351763 
z
" style="fill:#1f77b4;"/>
   </g>
   <g id="patch_146">
    <path clip-path="url(#pd2c8871d4f)" d="M 291.670821 273.312 
L 293.28449 273.312 
L 293.28449 84.356734 
L 291.670821 84.356734 
z
" style="fill:#1f77b4;"/>
   </g>
   <g id="patch_147">
    <path clip-path="url(#pd2c8871d4f)" d="M 293.28449 273.312 
L 294.898159 273.312 
L 294.898159 94.104426 
L 293.28449 94.104426 
z
" style="fill:#1f77b4;"/>
   </g>
   <g id="patch_148">
    <path clip-path="url(#pd2c8871d4f)" d="M 294.898159 273.312 
L 296.511829 273.312 
L 296.511829 95.604071 
L 294.898159 95.604071 
z
" style="fill:#1f77b4;"/>
   </g>
   <g id="patch_149">
    <path clip-path="url(#pd2c8871d4f)" d="M 296.511829 273.312 
L 298.125498 273.312 
L 298.125498 95.604071 
L 296.511829 95.604071 
z
" style="fill:#1f77b4;"/>
   </g>
   <g id="patch_150">
    <path clip-path="url(#pd2c8871d4f)" d="M 298.125498 273.312 
L 299.739167 273.312 
L 299.739167 100.103006 
L 298.125498 100.103006 
z
" style="fill:#1f77b4;"/>
   </g>
   <g id="patch_151">
    <path clip-path="url(#pd2c8871d4f)" d="M 299.739167 273.312 
L 301.352836 273.312 
L 301.352836 52.114367 
L 299.739167 52.114367 
z
" style="fill:#1f77b4;"/>
   </g>
   <g id="patch_152">
    <path clip-path="url(#pd2c8871d4f)" d="M 301.352836 273.312 
L 302.966506 273.312 
L 302.966506 115.849278 
L 301.352836 115.849278 
z
" style="fill:#1f77b4;"/>
   </g>
   <g id="patch_153">
    <path clip-path="url(#pd2c8871d4f)" d="M 302.966506 273.312 
L 304.580175 273.312 
L 304.580175 92.604781 
L 302.966506 92.604781 
z
" style="fill:#1f77b4;"/>
   </g>
   <g id="patch_154">
    <path clip-path="url(#pd2c8871d4f)" d="M 304.580175 273.312 
L 306.193844 273.312 
L 306.193844 137.59413 
L 304.580175 137.59413 
z
" style="fill:#1f77b4;"/>
   </g>
   <g id="patch_155">
    <path clip-path="url(#pd2c8871d4f)" d="M 306.193844 273.312 
L 307.807514 273.312 
L 307.807514 117.348923 
L 306.193844 117.348923 
z
" style="fill:#1f77b4;"/>
   </g>
   <g id="patch_156">
    <path clip-path="url(#pd2c8871d4f)" d="M 307.807514 273.312 
L 309.421183 273.312 
L 309.421183 106.851408 
L 307.807514 106.851408 
z
" style="fill:#1f77b4;"/>
   </g>
   <g id="patch_157">
    <path clip-path="url(#pd2c8871d4f)" d="M 309.421183 273.312 
L 311.034852 273.312 
L 311.034852 100.852828 
L 309.421183 100.852828 
z
" style="fill:#1f77b4;"/>
   </g>
   <g id="patch_158">
    <path clip-path="url(#pd2c8871d4f)" d="M 311.034852 273.312 
L 312.648521 273.312 
L 312.648521 126.346793 
L 311.034852 126.346793 
z
" style="fill:#1f77b4;"/>
   </g>
   <g id="patch_159">
    <path clip-path="url(#pd2c8871d4f)" d="M 312.648521 273.312 
L 314.262191 273.312 
L 314.262191 133.845018 
L 312.648521 133.845018 
z
" style="fill:#1f77b4;"/>
   </g>
   <g id="patch_160">
    <path clip-path="url(#pd2c8871d4f)" d="M 314.262191 273.312 
L 315.87586 273.312 
L 315.87586 121.847858 
L 314.262191 121.847858 
z
" style="fill:#1f77b4;"/>
   </g>
   <g id="patch_161">
    <path clip-path="url(#pd2c8871d4f)" d="M 315.87586 273.312 
L 317.489529 273.312 
L 317.489529 115.849278 
L 315.87586 115.849278 
z
" style="fill:#1f77b4;"/>
   </g>
   <g id="patch_162">
    <path clip-path="url(#pd2c8871d4f)" d="M 317.489529 273.312 
L 319.103199 273.312 
L 319.103199 151.090935 
L 317.489529 151.090935 
z
" style="fill:#1f77b4;"/>
   </g>
   <g id="patch_163">
    <path clip-path="url(#pd2c8871d4f)" d="M 319.103199 273.312 
L 320.716868 273.312 
L 320.716868 137.59413 
L 319.103199 137.59413 
z
" style="fill:#1f77b4;"/>
   </g>
   <g id="patch_164">
    <path clip-path="url(#pd2c8871d4f)" d="M 320.716868 273.312 
L 322.330537 273.312 
L 322.330537 133.845018 
L 320.716868 133.845018 
z
" style="fill:#1f77b4;"/>
   </g>
   <g id="patch_165">
    <path clip-path="url(#pd2c8871d4f)" d="M 322.330537 273.312 
L 323.944206 273.312 
L 323.944206 139.843598 
L 322.330537 139.843598 
z
" style="fill:#1f77b4;"/>
   </g>
   <g id="patch_166">
    <path clip-path="url(#pd2c8871d4f)" d="M 323.944206 273.312 
L 325.557876 273.312 
L 325.557876 160.838627 
L 323.944206 160.838627 
z
" style="fill:#1f77b4;"/>
   </g>
   <g id="patch_167">
    <path clip-path="url(#pd2c8871d4f)" d="M 325.557876 273.312 
L 327.171545 273.312 
L 327.171545 136.094485 
L 325.557876 136.094485 
z
" style="fill:#1f77b4;"/>
   </g>
   <g id="patch_168">
    <path clip-path="url(#pd2c8871d4f)" d="M 327.171545 273.312 
L 328.785214 273.312 
L 328.785214 150.341112 
L 327.171545 150.341112 
z
" style="fill:#1f77b4;"/>
   </g>
   <g id="patch_169">
    <path clip-path="url(#pd2c8871d4f)" d="M 328.785214 273.312 
L 330.398884 273.312 
L 330.398884 163.088095 
L 328.785214 163.088095 
z
" style="fill:#1f77b4;"/>
   </g>
   <g id="patch_170">
    <path clip-path="url(#pd2c8871d4f)" d="M 330.398884 273.312 
L 332.012553 273.312 
L 332.012553 159.338982 
L 330.398884 159.338982 
z
" style="fill:#1f77b4;"/>
   </g>
   <g id="patch_171">
    <path clip-path="url(#pd2c8871d4f)" d="M 332.012553 273.312 
L 333.626222 273.312 
L 333.626222 161.58845 
L 332.012553 161.58845 
z
" style="fill:#1f77b4;"/>
   </g>
   <g id="patch_172">
    <path clip-path="url(#pd2c8871d4f)" d="M 333.626222 273.312 
L 335.239891 273.312 
L 335.239891 162.338272 
L 333.626222 162.338272 
z
" style="fill:#1f77b4;"/>
   </g>
   <g id="patch_173">
    <path clip-path="url(#pd2c8871d4f)" d="M 335.239891 273.312 
L 336.853561 273.312 
L 336.853561 183.333302 
L 335.239891 183.333302 
z
" style="fill:#1f77b4;"/>
   </g>
   <g id="patch_174">
    <path clip-path="url(#pd2c8871d4f)" d="M 336.853561 273.312 
L 338.46723 273.312 
L 338.46723 167.58703 
L 336.853561 167.58703 
z
" style="fill:#1f77b4;"/>
   </g>
   <g id="patch_175">
    <path clip-path="url(#pd2c8871d4f)" d="M 338.46723 273.312 
L 340.080899 273.312 
L 340.080899 175.085254 
L 338.46723 175.085254 
z
" style="fill:#1f77b4;"/>
   </g>
   <g id="patch_176">
    <path clip-path="url(#pd2c8871d4f)" d="M 340.080899 273.312 
L 341.694569 273.312 
L 341.694569 182.583479 
L 340.080899 182.583479 
z
" style="fill:#1f77b4;"/>
   </g>
   <g id="patch_177">
    <path clip-path="url(#pd2c8871d4f)" d="M 341.694569 273.312 
L 343.308238 273.312 
L 343.308238 190.081704 
L 341.694569 190.081704 
z
" style="fill:#1f77b4;"/>
   </g>
   <g id="patch_178">
    <path clip-path="url(#pd2c8871d4f)" d="M 343.308238 273.312 
L 344.921907 273.312 
L 344.921907 172.835787 
L 343.308238 172.835787 
z
" style="fill:#1f77b4;"/>
   </g>
   <g id="patch_179">
    <path clip-path="url(#pd2c8871d4f)" d="M 344.921907 273.312 
L 346.535576 273.312 
L 346.535576 178.084544 
L 344.921907 178.084544 
z
" style="fill:#1f77b4;"/>
   </g>
   <g id="patch_180">
    <path clip-path="url(#pd2c8871d4f)" d="M 346.535576 273.312 
L 348.149246 273.312 
L 348.149246 187.832237 
L 346.535576 187.832237 
z
" style="fill:#1f77b4;"/>
   </g>
   <g id="patch_181">
    <path clip-path="url(#pd2c8871d4f)" d="M 348.149246 273.312 
L 349.762915 273.312 
L 349.762915 189.331882 
L 348.149246 189.331882 
z
" style="fill:#1f77b4;"/>
   </g>
   <g id="patch_182">
    <path clip-path="url(#pd2c8871d4f)" d="M 349.762915 273.312 
L 351.376584 273.312 
L 351.376584 192.331172 
L 349.762915 192.331172 
z
" style="fill:#1f77b4;"/>
   </g>
   <g id="patch_183">
    <path clip-path="url(#pd2c8871d4f)" d="M 351.376584 273.312 
L 352.990254 273.312 
L 352.990254 186.332592 
L 351.376584 186.332592 
z
" style="fill:#1f77b4;"/>
   </g>
   <g id="patch_184">
    <path clip-path="url(#pd2c8871d4f)" d="M 352.990254 273.312 
L 354.603923 273.312 
L 354.603923 206.577799 
L 352.990254 206.577799 
z
" style="fill:#1f77b4;"/>
   </g>
   <g id="patch_185">
    <path clip-path="url(#pd2c8871d4f)" d="M 354.603923 273.312 
L 356.217592 273.312 
L 356.217592 205.078154 
L 354.603923 205.078154 
z
" style="fill:#1f77b4;"/>
   </g>
   <g id="patch_186">
    <path clip-path="url(#pd2c8871d4f)" d="M 356.217592 273.312 
L 357.831261 273.312 
L 357.831261 219.324781 
L 356.217592 219.324781 
z
" style="fill:#1f77b4;"/>
   </g>
   <g id="patch_187">
    <path clip-path="url(#pd2c8871d4f)" d="M 357.831261 273.312 
L 359.444931 273.312 
L 359.444931 226.823006 
L 357.831261 226.823006 
z
" style="fill:#1f77b4;"/>
   </g>
   <g id="patch_188">
    <path clip-path="url(#pd2c8871d4f)" d="M 359.444931 273.312 
L 361.0586 273.312 
L 361.0586 222.324071 
L 359.444931 222.324071 
z
" style="fill:#1f77b4;"/>
   </g>
   <g id="patch_189">
    <path clip-path="url(#pd2c8871d4f)" d="M 361.0586 273.312 
L 362.672269 273.312 
L 362.672269 215.575669 
L 361.0586 215.575669 
z
" style="fill:#1f77b4;"/>
   </g>
   <g id="patch_190">
    <path clip-path="url(#pd2c8871d4f)" d="M 362.672269 273.312 
L 364.285939 273.312 
L 364.285939 223.073893 
L 362.672269 223.073893 
z
" style="fill:#1f77b4;"/>
   </g>
   <g id="patch_191">
    <path clip-path="url(#pd2c8871d4f)" d="M 364.285939 273.312 
L 365.899608 273.312 
L 365.899608 235.071053 
L 364.285939 235.071053 
z
" style="fill:#1f77b4;"/>
   </g>
   <g id="patch_192">
    <path clip-path="url(#pd2c8871d4f)" d="M 365.899608 273.312 
L 367.513277 273.312 
L 367.513277 235.071053 
L 365.899608 235.071053 
z
" style="fill:#1f77b4;"/>
   </g>
   <g id="patch_193">
    <path clip-path="url(#pd2c8871d4f)" d="M 367.513277 273.312 
L 369.126946 273.312 
L 369.126946 238.070343 
L 367.513277 238.070343 
z
" style="fill:#1f77b4;"/>
   </g>
   <g id="patch_194">
    <path clip-path="url(#pd2c8871d4f)" d="M 369.126946 273.312 
L 370.740616 273.312 
L 370.740616 242.569278 
L 369.126946 242.569278 
z
" style="fill:#1f77b4;"/>
   </g>
   <g id="patch_195">
    <path clip-path="url(#pd2c8871d4f)" d="M 370.740616 273.312 
L 372.354285 273.312 
L 372.354285 247.818036 
L 370.740616 247.818036 
z
" style="fill:#1f77b4;"/>
   </g>
   <g id="patch_196">
    <path clip-path="url(#pd2c8871d4f)" d="M 372.354285 273.312 
L 373.967954 273.312 
L 373.967954 253.066793 
L 372.354285 253.066793 
z
" style="fill:#1f77b4;"/>
   </g>
   <g id="patch_197">
    <path clip-path="url(#pd2c8871d4f)" d="M 373.967954 273.312 
L 375.581624 273.312 
L 375.581624 254.566438 
L 373.967954 254.566438 
z
" style="fill:#1f77b4;"/>
   </g>
   <g id="patch_198">
    <path clip-path="url(#pd2c8871d4f)" d="M 375.581624 273.312 
L 377.195293 273.312 
L 377.195293 260.565018 
L 375.581624 260.565018 
z
" style="fill:#1f77b4;"/>
   </g>
   <g id="patch_199">
    <path clip-path="url(#pd2c8871d4f)" d="M 377.195293 273.312 
L 378.808962 273.312 
L 378.808962 262.064663 
L 377.195293 262.064663 
z
" style="fill:#1f77b4;"/>
   </g>
   <g id="patch_200">
    <path clip-path="url(#pd2c8871d4f)" d="M 378.808962 273.312 
L 380.422631 273.312 
L 380.422631 262.064663 
L 378.808962 262.064663 
z
" style="fill:#1f77b4;"/>
   </g>
   <g id="patch_201">
    <path clip-path="url(#pd2c8871d4f)" d="M 380.422631 273.312 
L 382.036301 273.312 
L 382.036301 263.564308 
L 380.422631 263.564308 
z
" style="fill:#1f77b4;"/>
   </g>
   <g id="patch_202">
    <path clip-path="url(#pd2c8871d4f)" d="M 382.036301 273.312 
L 383.64997 273.312 
L 383.64997 268.063243 
L 382.036301 268.063243 
z
" style="fill:#1f77b4;"/>
   </g>
   <g id="matplotlib.axis_1">
    <g id="xtick_1">
     <g id="line2d_1">
      <defs>
       <path d="M 0 0 
L 0 3.5 
" id="m22e4330dee" style="stroke:#000000;stroke-width:0.8;"/>
      </defs>
      <g>
       <use style="stroke:#000000;stroke-width:0.8;" x="60.013977" xlink:href="#m22e4330dee" y="273.312"/>
      </g>
     </g>
     <g id="text_1">
      <!-- 0.0 -->
      <g transform="translate(52.062415 287.910437)scale(0.1 -0.1)">
       <defs>
        <path d="M 2034 4250 
Q 1547 4250 1301 3770 
Q 1056 3291 1056 2328 
Q 1056 1369 1301 889 
Q 1547 409 2034 409 
Q 2525 409 2770 889 
Q 3016 1369 3016 2328 
Q 3016 3291 2770 3770 
Q 2525 4250 2034 4250 
z
M 2034 4750 
Q 2819 4750 3233 4129 
Q 3647 3509 3647 2328 
Q 3647 1150 3233 529 
Q 2819 -91 2034 -91 
Q 1250 -91 836 529 
Q 422 1150 422 2328 
Q 422 3509 836 4129 
Q 1250 4750 2034 4750 
z
" id="DejaVuSans-30" transform="scale(0.015625)"/>
        <path d="M 684 794 
L 1344 794 
L 1344 0 
L 684 0 
L 684 794 
z
" id="DejaVuSans-2e" transform="scale(0.015625)"/>
       </defs>
       <use xlink:href="#DejaVuSans-30"/>
       <use x="63.623047" xlink:href="#DejaVuSans-2e"/>
       <use x="95.410156" xlink:href="#DejaVuSans-30"/>
      </g>
     </g>
    </g>
    <g id="xtick_2">
     <g id="line2d_2">
      <g>
       <use style="stroke:#000000;stroke-width:0.8;" x="101.350278" xlink:href="#m22e4330dee" y="273.312"/>
      </g>
     </g>
     <g id="text_2">
      <!-- 0.2 -->
      <g transform="translate(93.398715 287.910437)scale(0.1 -0.1)">
       <defs>
        <path d="M 1228 531 
L 3431 531 
L 3431 0 
L 469 0 
L 469 531 
Q 828 903 1448 1529 
Q 2069 2156 2228 2338 
Q 2531 2678 2651 2914 
Q 2772 3150 2772 3378 
Q 2772 3750 2511 3984 
Q 2250 4219 1831 4219 
Q 1534 4219 1204 4116 
Q 875 4013 500 3803 
L 500 4441 
Q 881 4594 1212 4672 
Q 1544 4750 1819 4750 
Q 2544 4750 2975 4387 
Q 3406 4025 3406 3419 
Q 3406 3131 3298 2873 
Q 3191 2616 2906 2266 
Q 2828 2175 2409 1742 
Q 1991 1309 1228 531 
z
" id="DejaVuSans-32" transform="scale(0.015625)"/>
       </defs>
       <use xlink:href="#DejaVuSans-30"/>
       <use x="63.623047" xlink:href="#DejaVuSans-2e"/>
       <use x="95.410156" xlink:href="#DejaVuSans-32"/>
      </g>
     </g>
    </g>
    <g id="xtick_3">
     <g id="line2d_3">
      <g>
       <use style="stroke:#000000;stroke-width:0.8;" x="142.686578" xlink:href="#m22e4330dee" y="273.312"/>
      </g>
     </g>
     <g id="text_3">
      <!-- 0.4 -->
      <g transform="translate(134.735016 287.910437)scale(0.1 -0.1)">
       <defs>
        <path d="M 2419 4116 
L 825 1625 
L 2419 1625 
L 2419 4116 
z
M 2253 4666 
L 3047 4666 
L 3047 1625 
L 3713 1625 
L 3713 1100 
L 3047 1100 
L 3047 0 
L 2419 0 
L 2419 1100 
L 313 1100 
L 313 1709 
L 2253 4666 
z
" id="DejaVuSans-34" transform="scale(0.015625)"/>
       </defs>
       <use xlink:href="#DejaVuSans-30"/>
       <use x="63.623047" xlink:href="#DejaVuSans-2e"/>
       <use x="95.410156" xlink:href="#DejaVuSans-34"/>
      </g>
     </g>
    </g>
    <g id="xtick_4">
     <g id="line2d_4">
      <g>
       <use style="stroke:#000000;stroke-width:0.8;" x="184.022879" xlink:href="#m22e4330dee" y="273.312"/>
      </g>
     </g>
     <g id="text_4">
      <!-- 0.6 -->
      <g transform="translate(176.071316 287.910437)scale(0.1 -0.1)">
       <defs>
        <path d="M 2113 2584 
Q 1688 2584 1439 2293 
Q 1191 2003 1191 1497 
Q 1191 994 1439 701 
Q 1688 409 2113 409 
Q 2538 409 2786 701 
Q 3034 994 3034 1497 
Q 3034 2003 2786 2293 
Q 2538 2584 2113 2584 
z
M 3366 4563 
L 3366 3988 
Q 3128 4100 2886 4159 
Q 2644 4219 2406 4219 
Q 1781 4219 1451 3797 
Q 1122 3375 1075 2522 
Q 1259 2794 1537 2939 
Q 1816 3084 2150 3084 
Q 2853 3084 3261 2657 
Q 3669 2231 3669 1497 
Q 3669 778 3244 343 
Q 2819 -91 2113 -91 
Q 1303 -91 875 529 
Q 447 1150 447 2328 
Q 447 3434 972 4092 
Q 1497 4750 2381 4750 
Q 2619 4750 2861 4703 
Q 3103 4656 3366 4563 
z
" id="DejaVuSans-36" transform="scale(0.015625)"/>
       </defs>
       <use xlink:href="#DejaVuSans-30"/>
       <use x="63.623047" xlink:href="#DejaVuSans-2e"/>
       <use x="95.410156" xlink:href="#DejaVuSans-36"/>
      </g>
     </g>
    </g>
    <g id="xtick_5">
     <g id="line2d_5">
      <g>
       <use style="stroke:#000000;stroke-width:0.8;" x="225.35918" xlink:href="#m22e4330dee" y="273.312"/>
      </g>
     </g>
     <g id="text_5">
      <!-- 0.8 -->
      <g transform="translate(217.407617 287.910437)scale(0.1 -0.1)">
       <defs>
        <path d="M 2034 2216 
Q 1584 2216 1326 1975 
Q 1069 1734 1069 1313 
Q 1069 891 1326 650 
Q 1584 409 2034 409 
Q 2484 409 2743 651 
Q 3003 894 3003 1313 
Q 3003 1734 2745 1975 
Q 2488 2216 2034 2216 
z
M 1403 2484 
Q 997 2584 770 2862 
Q 544 3141 544 3541 
Q 544 4100 942 4425 
Q 1341 4750 2034 4750 
Q 2731 4750 3128 4425 
Q 3525 4100 3525 3541 
Q 3525 3141 3298 2862 
Q 3072 2584 2669 2484 
Q 3125 2378 3379 2068 
Q 3634 1759 3634 1313 
Q 3634 634 3220 271 
Q 2806 -91 2034 -91 
Q 1263 -91 848 271 
Q 434 634 434 1313 
Q 434 1759 690 2068 
Q 947 2378 1403 2484 
z
M 1172 3481 
Q 1172 3119 1398 2916 
Q 1625 2713 2034 2713 
Q 2441 2713 2670 2916 
Q 2900 3119 2900 3481 
Q 2900 3844 2670 4047 
Q 2441 4250 2034 4250 
Q 1625 4250 1398 4047 
Q 1172 3844 1172 3481 
z
" id="DejaVuSans-38" transform="scale(0.015625)"/>
       </defs>
       <use xlink:href="#DejaVuSans-30"/>
       <use x="63.623047" xlink:href="#DejaVuSans-2e"/>
       <use x="95.410156" xlink:href="#DejaVuSans-38"/>
      </g>
     </g>
    </g>
    <g id="xtick_6">
     <g id="line2d_6">
      <g>
       <use style="stroke:#000000;stroke-width:0.8;" x="266.69548" xlink:href="#m22e4330dee" y="273.312"/>
      </g>
     </g>
     <g id="text_6">
      <!-- 1.0 -->
      <g transform="translate(258.743918 287.910437)scale(0.1 -0.1)">
       <defs>
        <path d="M 794 531 
L 1825 531 
L 1825 4091 
L 703 3866 
L 703 4441 
L 1819 4666 
L 2450 4666 
L 2450 531 
L 3481 531 
L 3481 0 
L 794 0 
L 794 531 
z
" id="DejaVuSans-31" transform="scale(0.015625)"/>
       </defs>
       <use xlink:href="#DejaVuSans-31"/>
       <use x="63.623047" xlink:href="#DejaVuSans-2e"/>
       <use x="95.410156" xlink:href="#DejaVuSans-30"/>
      </g>
     </g>
    </g>
    <g id="xtick_7">
     <g id="line2d_7">
      <g>
       <use style="stroke:#000000;stroke-width:0.8;" x="308.031781" xlink:href="#m22e4330dee" y="273.312"/>
      </g>
     </g>
     <g id="text_7">
      <!-- 1.2 -->
      <g transform="translate(300.080218 287.910437)scale(0.1 -0.1)">
       <use xlink:href="#DejaVuSans-31"/>
       <use x="63.623047" xlink:href="#DejaVuSans-2e"/>
       <use x="95.410156" xlink:href="#DejaVuSans-32"/>
      </g>
     </g>
    </g>
    <g id="xtick_8">
     <g id="line2d_8">
      <g>
       <use style="stroke:#000000;stroke-width:0.8;" x="349.368081" xlink:href="#m22e4330dee" y="273.312"/>
      </g>
     </g>
     <g id="text_8">
      <!-- 1.4 -->
      <g transform="translate(341.416519 287.910437)scale(0.1 -0.1)">
       <use xlink:href="#DejaVuSans-31"/>
       <use x="63.623047" xlink:href="#DejaVuSans-2e"/>
       <use x="95.410156" xlink:href="#DejaVuSans-34"/>
      </g>
     </g>
    </g>
    <g id="xtick_9">
     <g id="line2d_9">
      <g>
       <use style="stroke:#000000;stroke-width:0.8;" x="390.704382" xlink:href="#m22e4330dee" y="273.312"/>
      </g>
     </g>
     <g id="text_9">
      <!-- 1.6 -->
      <g transform="translate(382.752819 287.910437)scale(0.1 -0.1)">
       <use xlink:href="#DejaVuSans-31"/>
       <use x="63.623047" xlink:href="#DejaVuSans-2e"/>
       <use x="95.410156" xlink:href="#DejaVuSans-36"/>
      </g>
     </g>
    </g>
    <g id="text_10">
     <!-- Angle with normal (rad) -->
     <g transform="translate(163.023281 301.588562)scale(0.1 -0.1)">
      <defs>
       <path d="M 2188 4044 
L 1331 1722 
L 3047 1722 
L 2188 4044 
z
M 1831 4666 
L 2547 4666 
L 4325 0 
L 3669 0 
L 3244 1197 
L 1141 1197 
L 716 0 
L 50 0 
L 1831 4666 
z
" id="DejaVuSans-41" transform="scale(0.015625)"/>
       <path d="M 3513 2113 
L 3513 0 
L 2938 0 
L 2938 2094 
Q 2938 2591 2744 2837 
Q 2550 3084 2163 3084 
Q 1697 3084 1428 2787 
Q 1159 2491 1159 1978 
L 1159 0 
L 581 0 
L 581 3500 
L 1159 3500 
L 1159 2956 
Q 1366 3272 1645 3428 
Q 1925 3584 2291 3584 
Q 2894 3584 3203 3211 
Q 3513 2838 3513 2113 
z
" id="DejaVuSans-6e" transform="scale(0.015625)"/>
       <path d="M 2906 1791 
Q 2906 2416 2648 2759 
Q 2391 3103 1925 3103 
Q 1463 3103 1205 2759 
Q 947 2416 947 1791 
Q 947 1169 1205 825 
Q 1463 481 1925 481 
Q 2391 481 2648 825 
Q 2906 1169 2906 1791 
z
M 3481 434 
Q 3481 -459 3084 -895 
Q 2688 -1331 1869 -1331 
Q 1566 -1331 1297 -1286 
Q 1028 -1241 775 -1147 
L 775 -588 
Q 1028 -725 1275 -790 
Q 1522 -856 1778 -856 
Q 2344 -856 2625 -561 
Q 2906 -266 2906 331 
L 2906 616 
Q 2728 306 2450 153 
Q 2172 0 1784 0 
Q 1141 0 747 490 
Q 353 981 353 1791 
Q 353 2603 747 3093 
Q 1141 3584 1784 3584 
Q 2172 3584 2450 3431 
Q 2728 3278 2906 2969 
L 2906 3500 
L 3481 3500 
L 3481 434 
z
" id="DejaVuSans-67" transform="scale(0.015625)"/>
       <path d="M 603 4863 
L 1178 4863 
L 1178 0 
L 603 0 
L 603 4863 
z
" id="DejaVuSans-6c" transform="scale(0.015625)"/>
       <path d="M 3597 1894 
L 3597 1613 
L 953 1613 
Q 991 1019 1311 708 
Q 1631 397 2203 397 
Q 2534 397 2845 478 
Q 3156 559 3463 722 
L 3463 178 
Q 3153 47 2828 -22 
Q 2503 -91 2169 -91 
Q 1331 -91 842 396 
Q 353 884 353 1716 
Q 353 2575 817 3079 
Q 1281 3584 2069 3584 
Q 2775 3584 3186 3129 
Q 3597 2675 3597 1894 
z
M 3022 2063 
Q 3016 2534 2758 2815 
Q 2500 3097 2075 3097 
Q 1594 3097 1305 2825 
Q 1016 2553 972 2059 
L 3022 2063 
z
" id="DejaVuSans-65" transform="scale(0.015625)"/>
       <path id="DejaVuSans-20" transform="scale(0.015625)"/>
       <path d="M 269 3500 
L 844 3500 
L 1563 769 
L 2278 3500 
L 2956 3500 
L 3675 769 
L 4391 3500 
L 4966 3500 
L 4050 0 
L 3372 0 
L 2619 2869 
L 1863 0 
L 1184 0 
L 269 3500 
z
" id="DejaVuSans-77" transform="scale(0.015625)"/>
       <path d="M 603 3500 
L 1178 3500 
L 1178 0 
L 603 0 
L 603 3500 
z
M 603 4863 
L 1178 4863 
L 1178 4134 
L 603 4134 
L 603 4863 
z
" id="DejaVuSans-69" transform="scale(0.015625)"/>
       <path d="M 1172 4494 
L 1172 3500 
L 2356 3500 
L 2356 3053 
L 1172 3053 
L 1172 1153 
Q 1172 725 1289 603 
Q 1406 481 1766 481 
L 2356 481 
L 2356 0 
L 1766 0 
Q 1100 0 847 248 
Q 594 497 594 1153 
L 594 3053 
L 172 3053 
L 172 3500 
L 594 3500 
L 594 4494 
L 1172 4494 
z
" id="DejaVuSans-74" transform="scale(0.015625)"/>
       <path d="M 3513 2113 
L 3513 0 
L 2938 0 
L 2938 2094 
Q 2938 2591 2744 2837 
Q 2550 3084 2163 3084 
Q 1697 3084 1428 2787 
Q 1159 2491 1159 1978 
L 1159 0 
L 581 0 
L 581 4863 
L 1159 4863 
L 1159 2956 
Q 1366 3272 1645 3428 
Q 1925 3584 2291 3584 
Q 2894 3584 3203 3211 
Q 3513 2838 3513 2113 
z
" id="DejaVuSans-68" transform="scale(0.015625)"/>
       <path d="M 1959 3097 
Q 1497 3097 1228 2736 
Q 959 2375 959 1747 
Q 959 1119 1226 758 
Q 1494 397 1959 397 
Q 2419 397 2687 759 
Q 2956 1122 2956 1747 
Q 2956 2369 2687 2733 
Q 2419 3097 1959 3097 
z
M 1959 3584 
Q 2709 3584 3137 3096 
Q 3566 2609 3566 1747 
Q 3566 888 3137 398 
Q 2709 -91 1959 -91 
Q 1206 -91 779 398 
Q 353 888 353 1747 
Q 353 2609 779 3096 
Q 1206 3584 1959 3584 
z
" id="DejaVuSans-6f" transform="scale(0.015625)"/>
       <path d="M 2631 2963 
Q 2534 3019 2420 3045 
Q 2306 3072 2169 3072 
Q 1681 3072 1420 2755 
Q 1159 2438 1159 1844 
L 1159 0 
L 581 0 
L 581 3500 
L 1159 3500 
L 1159 2956 
Q 1341 3275 1631 3429 
Q 1922 3584 2338 3584 
Q 2397 3584 2469 3576 
Q 2541 3569 2628 3553 
L 2631 2963 
z
" id="DejaVuSans-72" transform="scale(0.015625)"/>
       <path d="M 3328 2828 
Q 3544 3216 3844 3400 
Q 4144 3584 4550 3584 
Q 5097 3584 5394 3201 
Q 5691 2819 5691 2113 
L 5691 0 
L 5113 0 
L 5113 2094 
Q 5113 2597 4934 2840 
Q 4756 3084 4391 3084 
Q 3944 3084 3684 2787 
Q 3425 2491 3425 1978 
L 3425 0 
L 2847 0 
L 2847 2094 
Q 2847 2600 2669 2842 
Q 2491 3084 2119 3084 
Q 1678 3084 1418 2786 
Q 1159 2488 1159 1978 
L 1159 0 
L 581 0 
L 581 3500 
L 1159 3500 
L 1159 2956 
Q 1356 3278 1631 3431 
Q 1906 3584 2284 3584 
Q 2666 3584 2933 3390 
Q 3200 3197 3328 2828 
z
" id="DejaVuSans-6d" transform="scale(0.015625)"/>
       <path d="M 2194 1759 
Q 1497 1759 1228 1600 
Q 959 1441 959 1056 
Q 959 750 1161 570 
Q 1363 391 1709 391 
Q 2188 391 2477 730 
Q 2766 1069 2766 1631 
L 2766 1759 
L 2194 1759 
z
M 3341 1997 
L 3341 0 
L 2766 0 
L 2766 531 
Q 2569 213 2275 61 
Q 1981 -91 1556 -91 
Q 1019 -91 701 211 
Q 384 513 384 1019 
Q 384 1609 779 1909 
Q 1175 2209 1959 2209 
L 2766 2209 
L 2766 2266 
Q 2766 2663 2505 2880 
Q 2244 3097 1772 3097 
Q 1472 3097 1187 3025 
Q 903 2953 641 2809 
L 641 3341 
Q 956 3463 1253 3523 
Q 1550 3584 1831 3584 
Q 2591 3584 2966 3190 
Q 3341 2797 3341 1997 
z
" id="DejaVuSans-61" transform="scale(0.015625)"/>
       <path d="M 1984 4856 
Q 1566 4138 1362 3434 
Q 1159 2731 1159 2009 
Q 1159 1288 1364 580 
Q 1569 -128 1984 -844 
L 1484 -844 
Q 1016 -109 783 600 
Q 550 1309 550 2009 
Q 550 2706 781 3412 
Q 1013 4119 1484 4856 
L 1984 4856 
z
" id="DejaVuSans-28" transform="scale(0.015625)"/>
       <path d="M 2906 2969 
L 2906 4863 
L 3481 4863 
L 3481 0 
L 2906 0 
L 2906 525 
Q 2725 213 2448 61 
Q 2172 -91 1784 -91 
Q 1150 -91 751 415 
Q 353 922 353 1747 
Q 353 2572 751 3078 
Q 1150 3584 1784 3584 
Q 2172 3584 2448 3432 
Q 2725 3281 2906 2969 
z
M 947 1747 
Q 947 1113 1208 752 
Q 1469 391 1925 391 
Q 2381 391 2643 752 
Q 2906 1113 2906 1747 
Q 2906 2381 2643 2742 
Q 2381 3103 1925 3103 
Q 1469 3103 1208 2742 
Q 947 2381 947 1747 
z
" id="DejaVuSans-64" transform="scale(0.015625)"/>
       <path d="M 513 4856 
L 1013 4856 
Q 1481 4119 1714 3412 
Q 1947 2706 1947 2009 
Q 1947 1309 1714 600 
Q 1481 -109 1013 -844 
L 513 -844 
Q 928 -128 1133 580 
Q 1338 1288 1338 2009 
Q 1338 2731 1133 3434 
Q 928 4138 513 4856 
z
" id="DejaVuSans-29" transform="scale(0.015625)"/>
      </defs>
      <use xlink:href="#DejaVuSans-41"/>
      <use x="68.408203" xlink:href="#DejaVuSans-6e"/>
      <use x="131.787109" xlink:href="#DejaVuSans-67"/>
      <use x="195.263672" xlink:href="#DejaVuSans-6c"/>
      <use x="223.046875" xlink:href="#DejaVuSans-65"/>
      <use x="284.570312" xlink:href="#DejaVuSans-20"/>
      <use x="316.357422" xlink:href="#DejaVuSans-77"/>
      <use x="398.144531" xlink:href="#DejaVuSans-69"/>
      <use x="425.927734" xlink:href="#DejaVuSans-74"/>
      <use x="465.136719" xlink:href="#DejaVuSans-68"/>
      <use x="528.515625" xlink:href="#DejaVuSans-20"/>
      <use x="560.302734" xlink:href="#DejaVuSans-6e"/>
      <use x="623.681641" xlink:href="#DejaVuSans-6f"/>
      <use x="684.863281" xlink:href="#DejaVuSans-72"/>
      <use x="724.226562" xlink:href="#DejaVuSans-6d"/>
      <use x="821.638672" xlink:href="#DejaVuSans-61"/>
      <use x="882.917969" xlink:href="#DejaVuSans-6c"/>
      <use x="910.701172" xlink:href="#DejaVuSans-20"/>
      <use x="942.488281" xlink:href="#DejaVuSans-28"/>
      <use x="981.501953" xlink:href="#DejaVuSans-72"/>
      <use x="1022.615234" xlink:href="#DejaVuSans-61"/>
      <use x="1083.894531" xlink:href="#DejaVuSans-64"/>
      <use x="1147.371094" xlink:href="#DejaVuSans-29"/>
     </g>
    </g>
   </g>
   <g id="matplotlib.axis_2">
    <g id="ytick_1">
     <g id="line2d_10">
      <defs>
       <path d="M 0 0 
L -3.5 0 
" id="m41395f729a" style="stroke:#000000;stroke-width:0.8;"/>
      </defs>
      <g>
       <use style="stroke:#000000;stroke-width:0.8;" x="43.78125" xlink:href="#m41395f729a" y="273.312"/>
      </g>
     </g>
     <g id="text_11">
      <!-- 0.0 -->
      <g transform="translate(20.878125 277.111219)scale(0.1 -0.1)">
       <use xlink:href="#DejaVuSans-30"/>
       <use x="63.623047" xlink:href="#DejaVuSans-2e"/>
       <use x="95.410156" xlink:href="#DejaVuSans-30"/>
      </g>
     </g>
    </g>
    <g id="ytick_2">
     <g id="line2d_11">
      <g>
       <use style="stroke:#000000;stroke-width:0.8;" x="43.78125" xlink:href="#m41395f729a" y="226.477987"/>
      </g>
     </g>
     <g id="text_12">
      <!-- 0.2 -->
      <g transform="translate(20.878125 230.277206)scale(0.1 -0.1)">
       <use xlink:href="#DejaVuSans-30"/>
       <use x="63.623047" xlink:href="#DejaVuSans-2e"/>
       <use x="95.410156" xlink:href="#DejaVuSans-32"/>
      </g>
     </g>
    </g>
    <g id="ytick_3">
     <g id="line2d_12">
      <g>
       <use style="stroke:#000000;stroke-width:0.8;" x="43.78125" xlink:href="#m41395f729a" y="179.643975"/>
      </g>
     </g>
     <g id="text_13">
      <!-- 0.4 -->
      <g transform="translate(20.878125 183.443193)scale(0.1 -0.1)">
       <use xlink:href="#DejaVuSans-30"/>
       <use x="63.623047" xlink:href="#DejaVuSans-2e"/>
       <use x="95.410156" xlink:href="#DejaVuSans-34"/>
      </g>
     </g>
    </g>
    <g id="ytick_4">
     <g id="line2d_13">
      <g>
       <use style="stroke:#000000;stroke-width:0.8;" x="43.78125" xlink:href="#m41395f729a" y="132.809962"/>
      </g>
     </g>
     <g id="text_14">
      <!-- 0.6 -->
      <g transform="translate(20.878125 136.609181)scale(0.1 -0.1)">
       <use xlink:href="#DejaVuSans-30"/>
       <use x="63.623047" xlink:href="#DejaVuSans-2e"/>
       <use x="95.410156" xlink:href="#DejaVuSans-36"/>
      </g>
     </g>
    </g>
    <g id="ytick_5">
     <g id="line2d_14">
      <g>
       <use style="stroke:#000000;stroke-width:0.8;" x="43.78125" xlink:href="#m41395f729a" y="85.975949"/>
      </g>
     </g>
     <g id="text_15">
      <!-- 0.8 -->
      <g transform="translate(20.878125 89.775168)scale(0.1 -0.1)">
       <use xlink:href="#DejaVuSans-30"/>
       <use x="63.623047" xlink:href="#DejaVuSans-2e"/>
       <use x="95.410156" xlink:href="#DejaVuSans-38"/>
      </g>
     </g>
    </g>
    <g id="ytick_6">
     <g id="line2d_15">
      <g>
       <use style="stroke:#000000;stroke-width:0.8;" x="43.78125" xlink:href="#m41395f729a" y="39.141937"/>
      </g>
     </g>
     <g id="text_16">
      <!-- 1.0 -->
      <g transform="translate(20.878125 42.941156)scale(0.1 -0.1)">
       <use xlink:href="#DejaVuSans-31"/>
       <use x="63.623047" xlink:href="#DejaVuSans-2e"/>
       <use x="95.410156" xlink:href="#DejaVuSans-30"/>
      </g>
     </g>
    </g>
    <g id="text_17">
     <!-- Probability density -->
     <g transform="translate(14.798438 186.606781)rotate(-90)scale(0.1 -0.1)">
      <defs>
       <path d="M 1259 4147 
L 1259 2394 
L 2053 2394 
Q 2494 2394 2734 2622 
Q 2975 2850 2975 3272 
Q 2975 3691 2734 3919 
Q 2494 4147 2053 4147 
L 1259 4147 
z
M 628 4666 
L 2053 4666 
Q 2838 4666 3239 4311 
Q 3641 3956 3641 3272 
Q 3641 2581 3239 2228 
Q 2838 1875 2053 1875 
L 1259 1875 
L 1259 0 
L 628 0 
L 628 4666 
z
" id="DejaVuSans-50" transform="scale(0.015625)"/>
       <path d="M 3116 1747 
Q 3116 2381 2855 2742 
Q 2594 3103 2138 3103 
Q 1681 3103 1420 2742 
Q 1159 2381 1159 1747 
Q 1159 1113 1420 752 
Q 1681 391 2138 391 
Q 2594 391 2855 752 
Q 3116 1113 3116 1747 
z
M 1159 2969 
Q 1341 3281 1617 3432 
Q 1894 3584 2278 3584 
Q 2916 3584 3314 3078 
Q 3713 2572 3713 1747 
Q 3713 922 3314 415 
Q 2916 -91 2278 -91 
Q 1894 -91 1617 61 
Q 1341 213 1159 525 
L 1159 0 
L 581 0 
L 581 4863 
L 1159 4863 
L 1159 2969 
z
" id="DejaVuSans-62" transform="scale(0.015625)"/>
       <path d="M 2059 -325 
Q 1816 -950 1584 -1140 
Q 1353 -1331 966 -1331 
L 506 -1331 
L 506 -850 
L 844 -850 
Q 1081 -850 1212 -737 
Q 1344 -625 1503 -206 
L 1606 56 
L 191 3500 
L 800 3500 
L 1894 763 
L 2988 3500 
L 3597 3500 
L 2059 -325 
z
" id="DejaVuSans-79" transform="scale(0.015625)"/>
       <path d="M 2834 3397 
L 2834 2853 
Q 2591 2978 2328 3040 
Q 2066 3103 1784 3103 
Q 1356 3103 1142 2972 
Q 928 2841 928 2578 
Q 928 2378 1081 2264 
Q 1234 2150 1697 2047 
L 1894 2003 
Q 2506 1872 2764 1633 
Q 3022 1394 3022 966 
Q 3022 478 2636 193 
Q 2250 -91 1575 -91 
Q 1294 -91 989 -36 
Q 684 19 347 128 
L 347 722 
Q 666 556 975 473 
Q 1284 391 1588 391 
Q 1994 391 2212 530 
Q 2431 669 2431 922 
Q 2431 1156 2273 1281 
Q 2116 1406 1581 1522 
L 1381 1569 
Q 847 1681 609 1914 
Q 372 2147 372 2553 
Q 372 3047 722 3315 
Q 1072 3584 1716 3584 
Q 2034 3584 2315 3537 
Q 2597 3491 2834 3397 
z
" id="DejaVuSans-73" transform="scale(0.015625)"/>
      </defs>
      <use xlink:href="#DejaVuSans-50"/>
      <use x="58.552734" xlink:href="#DejaVuSans-72"/>
      <use x="97.416016" xlink:href="#DejaVuSans-6f"/>
      <use x="158.597656" xlink:href="#DejaVuSans-62"/>
      <use x="222.074219" xlink:href="#DejaVuSans-61"/>
      <use x="283.353516" xlink:href="#DejaVuSans-62"/>
      <use x="346.830078" xlink:href="#DejaVuSans-69"/>
      <use x="374.613281" xlink:href="#DejaVuSans-6c"/>
      <use x="402.396484" xlink:href="#DejaVuSans-69"/>
      <use x="430.179688" xlink:href="#DejaVuSans-74"/>
      <use x="469.388672" xlink:href="#DejaVuSans-79"/>
      <use x="528.568359" xlink:href="#DejaVuSans-20"/>
      <use x="560.355469" xlink:href="#DejaVuSans-64"/>
      <use x="623.832031" xlink:href="#DejaVuSans-65"/>
      <use x="685.355469" xlink:href="#DejaVuSans-6e"/>
      <use x="748.734375" xlink:href="#DejaVuSans-73"/>
      <use x="800.833984" xlink:href="#DejaVuSans-69"/>
      <use x="828.617188" xlink:href="#DejaVuSans-74"/>
      <use x="867.826172" xlink:href="#DejaVuSans-79"/>
     </g>
    </g>
   </g>
   <g id="line2d_16">
    <path clip-path="url(#pd2c8871d4f)" d="M 60.013977 273.312 
L 79.837728 228.66639 
L 90.237073 205.798619 
L 99.01152 187.026093 
L 106.811029 170.857209 
L 113.960578 156.545985 
L 120.460169 144.018829 
L 126.63478 132.590865 
L 132.484411 122.227012 
L 138.009063 112.882771 
L 143.208736 104.506478 
L 148.408408 96.557456 
L 153.283101 89.511205 
L 157.832814 83.303323 
L 162.382528 77.463678 
L 166.607261 72.380778 
L 170.831995 67.633648 
L 175.056729 63.230221 
L 178.956483 59.476954 
L 182.856238 56.028168 
L 186.755992 52.888772 
L 190.330767 50.286609 
L 193.905542 47.951295 
L 197.480316 45.885624 
L 201.055091 44.092068 
L 204.304886 42.699506 
L 207.554682 41.534987 
L 210.804477 40.599662 
L 214.054272 39.894456 
L 217.304067 39.420067 
L 220.553863 39.176962 
L 223.803658 39.165384 
L 227.053453 39.385343 
L 230.303248 39.836621 
L 233.553044 40.518773 
L 236.802839 41.431124 
L 240.052634 42.572772 
L 243.302429 43.942587 
L 246.552225 45.539216 
L 250.126999 47.555586 
L 253.701774 49.842072 
L 257.276549 52.395939 
L 260.851324 55.214131 
L 264.751078 58.586013 
L 268.650832 62.263644 
L 272.550587 66.241786 
L 276.77532 70.88398 
L 281.000054 75.864446 
L 285.224788 81.17486 
L 289.774501 87.252573 
L 294.324215 93.690871 
L 299.198908 100.974994 
L 304.39858 109.166903 
L 309.598252 117.774286 
L 315.122904 127.350482 
L 320.972536 137.943963 
L 327.147147 149.595696 
L 333.646737 162.336882 
L 340.796287 176.857059 
L 348.595795 193.221121 
L 357.370243 212.171014 
L 367.769587 235.189462 
L 382.393666 268.157593 
L 384.668523 273.312 
L 384.668523 273.312 
" style="fill:none;stroke:#ff7f0e;stroke-linecap:square;stroke-width:1.5;"/>
   </g>
   <g id="patch_203">
    <path d="M 43.78125 273.312 
L 43.78125 7.2 
" style="fill:none;stroke:#000000;stroke-linecap:square;stroke-linejoin:miter;stroke-width:0.8;"/>
   </g>
   <g id="patch_204">
    <path d="M 400.90125 273.312 
L 400.90125 7.2 
" style="fill:none;stroke:#000000;stroke-linecap:square;stroke-linejoin:miter;stroke-width:0.8;"/>
   </g>
   <g id="patch_205">
    <path d="M 43.78125 273.312 
L 400.90125 273.312 
" style="fill:none;stroke:#000000;stroke-linecap:square;stroke-linejoin:miter;stroke-width:0.8;"/>
   </g>
   <g id="patch_206">
    <path d="M 43.78125 7.2 
L 400.90125 7.2 
" style="fill:none;stroke:#000000;stroke-linecap:square;stroke-linejoin:miter;stroke-width:0.8;"/>
   </g>
  </g>
 </g>
 <defs>
  <clipPath id="pd2c8871d4f">
   <rect height="266.112" width="357.12" x="43.78125" y="7.2"/>
  </clipPath>
 </defs>
</svg>
