<?xml version="1.0" encoding="utf-8" standalone="no"?>
<!DOCTYPE svg PUBLIC "-//W3C//DTD SVG 1.1//EN"
  "http://www.w3.org/Graphics/SVG/1.1/DTD/svg11.dtd">
<svg height="310.86825pt" version="1.1" viewBox="0 0 414.46375 310.86825" width="414.46375pt" xmlns="http://www.w3.org/2000/svg" xmlns:xlink="http://www.w3.org/1999/xlink">
 <metadata>
  <rdf:RDF xmlns:cc="http://creativecommons.org/ns#" xmlns:dc="http://purl.org/dc/elements/1.1/" xmlns:rdf="http://www.w3.org/1999/02/22-rdf-syntax-ns#">
   <cc:Work>
    <dc:type rdf:resource="http://purl.org/dc/dcmitype/StillImage"/>
    <dc:date>2021-07-13T10:00:41.475847</dc:date>
    <dc:format>image/svg+xml</dc:format>
    <dc:creator>
     <cc:Agent>
      <dc:title>Matplotlib v3.4.2, https://matplotlib.org/</dc:title>
     </cc:Agent>
    </dc:creator>
   </cc:Work>
  </rdf:RDF>
 </metadata>
 <defs>
  <style type="text/css">*{stroke-linecap:butt;stroke-linejoin:round;}</style>
 </defs>
 <g id="figure_1">
  <g id="patch_1">
   <path d="M 0 310.86825 
L 414.46375 310.86825 
L 414.46375 0 
L 0 0 
z
" style="fill:#ffffff;"/>
  </g>
  <g id="axes_1">
   <g id="patch_2">
    <path d="M 50.14375 273.312 
L 407.26375 273.312 
L 407.26375 7.2 
L 50.14375 7.2 
z
" style="fill:#ffffff;"/>
   </g>
   <g id="patch_3">
    <path clip-path="url(#p7d31b8a8eb)" d="M 68.17829 273.312 
L 69.792546 273.312 
L 69.792546 270.25113 
L 68.17829 270.25113 
z
" style="fill:#1f77b4;"/>
   </g>
   <g id="patch_4">
    <path clip-path="url(#p7d31b8a8eb)" d="M 69.792546 273.312 
L 71.406801 273.312 
L 71.406801 265.965913 
L 69.792546 265.965913 
z
" style="fill:#1f77b4;"/>
   </g>
   <g id="patch_5">
    <path clip-path="url(#p7d31b8a8eb)" d="M 71.406801 273.312 
L 73.021057 273.312 
L 73.021057 271.475478 
L 71.406801 271.475478 
z
" style="fill:#1f77b4;"/>
   </g>
   <g id="patch_6">
    <path clip-path="url(#p7d31b8a8eb)" d="M 73.021057 273.312 
L 74.635313 273.312 
L 74.635313 267.802435 
L 73.021057 267.802435 
z
" style="fill:#1f77b4;"/>
   </g>
   <g id="patch_7">
    <path clip-path="url(#p7d31b8a8eb)" d="M 74.635313 273.312 
L 76.249569 273.312 
L 76.249569 266.578087 
L 74.635313 266.578087 
z
" style="fill:#1f77b4;"/>
   </g>
   <g id="patch_8">
    <path clip-path="url(#p7d31b8a8eb)" d="M 76.249569 273.312 
L 77.863825 273.312 
L 77.863825 264.129391 
L 76.249569 264.129391 
z
" style="fill:#1f77b4;"/>
   </g>
   <g id="patch_9">
    <path clip-path="url(#p7d31b8a8eb)" d="M 77.863825 273.312 
L 79.478081 273.312 
L 79.478081 264.129391 
L 77.863825 264.129391 
z
" style="fill:#1f77b4;"/>
   </g>
   <g id="patch_10">
    <path clip-path="url(#p7d31b8a8eb)" d="M 79.478081 273.312 
L 81.092337 273.312 
L 81.092337 265.353739 
L 79.478081 265.353739 
z
" style="fill:#1f77b4;"/>
   </g>
   <g id="patch_11">
    <path clip-path="url(#p7d31b8a8eb)" d="M 81.092337 273.312 
L 82.706593 273.312 
L 82.706593 265.353739 
L 81.092337 265.353739 
z
" style="fill:#1f77b4;"/>
   </g>
   <g id="patch_12">
    <path clip-path="url(#p7d31b8a8eb)" d="M 82.706593 273.312 
L 84.320849 273.312 
L 84.320849 261.680696 
L 82.706593 261.680696 
z
" style="fill:#1f77b4;"/>
   </g>
   <g id="patch_13">
    <path clip-path="url(#p7d31b8a8eb)" d="M 84.320849 273.312 
L 85.935104 273.312 
L 85.935104 265.965913 
L 84.320849 265.965913 
z
" style="fill:#1f77b4;"/>
   </g>
   <g id="patch_14">
    <path clip-path="url(#p7d31b8a8eb)" d="M 85.935104 273.312 
L 87.54936 273.312 
L 87.54936 258.007652 
L 85.935104 258.007652 
z
" style="fill:#1f77b4;"/>
   </g>
   <g id="patch_15">
    <path clip-path="url(#p7d31b8a8eb)" d="M 87.54936 273.312 
L 89.163616 273.312 
L 89.163616 261.068522 
L 87.54936 261.068522 
z
" style="fill:#1f77b4;"/>
   </g>
   <g id="patch_16">
    <path clip-path="url(#p7d31b8a8eb)" d="M 89.163616 273.312 
L 90.777872 273.312 
L 90.777872 253.110261 
L 89.163616 253.110261 
z
" style="fill:#1f77b4;"/>
   </g>
   <g id="patch_17">
    <path clip-path="url(#p7d31b8a8eb)" d="M 90.777872 273.312 
L 92.392128 273.312 
L 92.392128 258.619826 
L 90.777872 258.619826 
z
" style="fill:#1f77b4;"/>
   </g>
   <g id="patch_18">
    <path clip-path="url(#p7d31b8a8eb)" d="M 92.392128 273.312 
L 94.006384 273.312 
L 94.006384 255.558957 
L 92.392128 255.558957 
z
" style="fill:#1f77b4;"/>
   </g>
   <g id="patch_19">
    <path clip-path="url(#p7d31b8a8eb)" d="M 94.006384 273.312 
L 95.62064 273.312 
L 95.62064 251.273739 
L 94.006384 251.273739 
z
" style="fill:#1f77b4;"/>
   </g>
   <g id="patch_20">
    <path clip-path="url(#p7d31b8a8eb)" d="M 95.62064 273.312 
L 97.234896 273.312 
L 97.234896 251.885913 
L 95.62064 251.885913 
z
" style="fill:#1f77b4;"/>
   </g>
   <g id="patch_21">
    <path clip-path="url(#p7d31b8a8eb)" d="M 97.234896 273.312 
L 98.849152 273.312 
L 98.849152 252.498087 
L 97.234896 252.498087 
z
" style="fill:#1f77b4;"/>
   </g>
   <g id="patch_22">
    <path clip-path="url(#p7d31b8a8eb)" d="M 98.849152 273.312 
L 100.463407 273.312 
L 100.463407 246.376348 
L 98.849152 246.376348 
z
" style="fill:#1f77b4;"/>
   </g>
   <g id="patch_23">
    <path clip-path="url(#p7d31b8a8eb)" d="M 100.463407 273.312 
L 102.077663 273.312 
L 102.077663 250.661565 
L 100.463407 250.661565 
z
" style="fill:#1f77b4;"/>
   </g>
   <g id="patch_24">
    <path clip-path="url(#p7d31b8a8eb)" d="M 102.077663 273.312 
L 103.691919 273.312 
L 103.691919 246.988522 
L 102.077663 246.988522 
z
" style="fill:#1f77b4;"/>
   </g>
   <g id="patch_25">
    <path clip-path="url(#p7d31b8a8eb)" d="M 103.691919 273.312 
L 105.306175 273.312 
L 105.306175 244.539826 
L 103.691919 244.539826 
z
" style="fill:#1f77b4;"/>
   </g>
   <g id="patch_26">
    <path clip-path="url(#p7d31b8a8eb)" d="M 105.306175 273.312 
L 106.920431 273.312 
L 106.920431 247.600696 
L 105.306175 247.600696 
z
" style="fill:#1f77b4;"/>
   </g>
   <g id="patch_27">
    <path clip-path="url(#p7d31b8a8eb)" d="M 106.920431 273.312 
L 108.534687 273.312 
L 108.534687 236.581565 
L 106.920431 236.581565 
z
" style="fill:#1f77b4;"/>
   </g>
   <g id="patch_28">
    <path clip-path="url(#p7d31b8a8eb)" d="M 108.534687 273.312 
L 110.148943 273.312 
L 110.148943 242.09113 
L 108.534687 242.09113 
z
" style="fill:#1f77b4;"/>
   </g>
   <g id="patch_29">
    <path clip-path="url(#p7d31b8a8eb)" d="M 110.148943 273.312 
L 111.763199 273.312 
L 111.763199 238.418087 
L 110.148943 238.418087 
z
" style="fill:#1f77b4;"/>
   </g>
   <g id="patch_30">
    <path clip-path="url(#p7d31b8a8eb)" d="M 111.763199 273.312 
L 113.377454 273.312 
L 113.377454 235.357217 
L 111.763199 235.357217 
z
" style="fill:#1f77b4;"/>
   </g>
   <g id="patch_31">
    <path clip-path="url(#p7d31b8a8eb)" d="M 113.377454 273.312 
L 114.99171 273.312 
L 114.99171 239.642435 
L 113.377454 239.642435 
z
" style="fill:#1f77b4;"/>
   </g>
   <g id="patch_32">
    <path clip-path="url(#p7d31b8a8eb)" d="M 114.99171 273.312 
L 116.605966 273.312 
L 116.605966 230.459826 
L 114.99171 230.459826 
z
" style="fill:#1f77b4;"/>
   </g>
   <g id="patch_33">
    <path clip-path="url(#p7d31b8a8eb)" d="M 116.605966 273.312 
L 118.220222 273.312 
L 118.220222 231.684174 
L 116.605966 231.684174 
z
" style="fill:#1f77b4;"/>
   </g>
   <g id="patch_34">
    <path clip-path="url(#p7d31b8a8eb)" d="M 118.220222 273.312 
L 119.834478 273.312 
L 119.834478 239.642435 
L 118.220222 239.642435 
z
" style="fill:#1f77b4;"/>
   </g>
   <g id="patch_35">
    <path clip-path="url(#p7d31b8a8eb)" d="M 119.834478 273.312 
L 121.448734 273.312 
L 121.448734 229.847652 
L 119.834478 229.847652 
z
" style="fill:#1f77b4;"/>
   </g>
   <g id="patch_36">
    <path clip-path="url(#p7d31b8a8eb)" d="M 121.448734 273.312 
L 123.06299 273.312 
L 123.06299 231.072 
L 121.448734 231.072 
z
" style="fill:#1f77b4;"/>
   </g>
   <g id="patch_37">
    <path clip-path="url(#p7d31b8a8eb)" d="M 123.06299 273.312 
L 124.677246 273.312 
L 124.677246 234.13287 
L 123.06299 234.13287 
z
" style="fill:#1f77b4;"/>
   </g>
   <g id="patch_38">
    <path clip-path="url(#p7d31b8a8eb)" d="M 124.677246 273.312 
L 126.291502 273.312 
L 126.291502 227.398957 
L 124.677246 227.398957 
z
" style="fill:#1f77b4;"/>
   </g>
   <g id="patch_39">
    <path clip-path="url(#p7d31b8a8eb)" d="M 126.291502 273.312 
L 127.905757 273.312 
L 127.905757 234.13287 
L 126.291502 234.13287 
z
" style="fill:#1f77b4;"/>
   </g>
   <g id="patch_40">
    <path clip-path="url(#p7d31b8a8eb)" d="M 127.905757 273.312 
L 129.520013 273.312 
L 129.520013 226.174609 
L 127.905757 226.174609 
z
" style="fill:#1f77b4;"/>
   </g>
   <g id="patch_41">
    <path clip-path="url(#p7d31b8a8eb)" d="M 129.520013 273.312 
L 131.134269 273.312 
L 131.134269 223.113739 
L 129.520013 223.113739 
z
" style="fill:#1f77b4;"/>
   </g>
   <g id="patch_42">
    <path clip-path="url(#p7d31b8a8eb)" d="M 131.134269 273.312 
L 132.748525 273.312 
L 132.748525 214.543304 
L 131.134269 214.543304 
z
" style="fill:#1f77b4;"/>
   </g>
   <g id="patch_43">
    <path clip-path="url(#p7d31b8a8eb)" d="M 132.748525 273.312 
L 134.362781 273.312 
L 134.362781 208.421565 
L 132.748525 208.421565 
z
" style="fill:#1f77b4;"/>
   </g>
   <g id="patch_44">
    <path clip-path="url(#p7d31b8a8eb)" d="M 134.362781 273.312 
L 135.977037 273.312 
L 135.977037 224.338087 
L 134.362781 224.338087 
z
" style="fill:#1f77b4;"/>
   </g>
   <g id="patch_45">
    <path clip-path="url(#p7d31b8a8eb)" d="M 135.977037 273.312 
L 137.591293 273.312 
L 137.591293 206.585043 
L 135.977037 206.585043 
z
" style="fill:#1f77b4;"/>
   </g>
   <g id="patch_46">
    <path clip-path="url(#p7d31b8a8eb)" d="M 137.591293 273.312 
L 139.205549 273.312 
L 139.205549 226.174609 
L 137.591293 226.174609 
z
" style="fill:#1f77b4;"/>
   </g>
   <g id="patch_47">
    <path clip-path="url(#p7d31b8a8eb)" d="M 139.205549 273.312 
L 140.819805 273.312 
L 140.819805 209.645913 
L 139.205549 209.645913 
z
" style="fill:#1f77b4;"/>
   </g>
   <g id="patch_48">
    <path clip-path="url(#p7d31b8a8eb)" d="M 140.819805 273.312 
L 142.43406 273.312 
L 142.43406 217.604174 
L 140.819805 217.604174 
z
" style="fill:#1f77b4;"/>
   </g>
   <g id="patch_49">
    <path clip-path="url(#p7d31b8a8eb)" d="M 142.43406 273.312 
L 144.048316 273.312 
L 144.048316 215.155478 
L 142.43406 215.155478 
z
" style="fill:#1f77b4;"/>
   </g>
   <g id="patch_50">
    <path clip-path="url(#p7d31b8a8eb)" d="M 144.048316 273.312 
L 145.662572 273.312 
L 145.662572 215.155478 
L 144.048316 215.155478 
z
" style="fill:#1f77b4;"/>
   </g>
   <g id="patch_51">
    <path clip-path="url(#p7d31b8a8eb)" d="M 145.662572 273.312 
L 147.276828 273.312 
L 147.276828 212.094609 
L 145.662572 212.094609 
z
" style="fill:#1f77b4;"/>
   </g>
   <g id="patch_52">
    <path clip-path="url(#p7d31b8a8eb)" d="M 147.276828 273.312 
L 148.891084 273.312 
L 148.891084 207.809391 
L 147.276828 207.809391 
z
" style="fill:#1f77b4;"/>
   </g>
   <g id="patch_53">
    <path clip-path="url(#p7d31b8a8eb)" d="M 148.891084 273.312 
L 150.50534 273.312 
L 150.50534 208.421565 
L 148.891084 208.421565 
z
" style="fill:#1f77b4;"/>
   </g>
   <g id="patch_54">
    <path clip-path="url(#p7d31b8a8eb)" d="M 150.50534 273.312 
L 152.119596 273.312 
L 152.119596 209.645913 
L 150.50534 209.645913 
z
" style="fill:#1f77b4;"/>
   </g>
   <g id="patch_55">
    <path clip-path="url(#p7d31b8a8eb)" d="M 152.119596 273.312 
L 153.733852 273.312 
L 153.733852 220.05287 
L 152.119596 220.05287 
z
" style="fill:#1f77b4;"/>
   </g>
   <g id="patch_56">
    <path clip-path="url(#p7d31b8a8eb)" d="M 153.733852 273.312 
L 155.348108 273.312 
L 155.348108 215.767652 
L 153.733852 215.767652 
z
" style="fill:#1f77b4;"/>
   </g>
   <g id="patch_57">
    <path clip-path="url(#p7d31b8a8eb)" d="M 155.348108 273.312 
L 156.962363 273.312 
L 156.962363 209.645913 
L 155.348108 209.645913 
z
" style="fill:#1f77b4;"/>
   </g>
   <g id="patch_58">
    <path clip-path="url(#p7d31b8a8eb)" d="M 156.962363 273.312 
L 158.576619 273.312 
L 158.576619 203.524174 
L 156.962363 203.524174 
z
" style="fill:#1f77b4;"/>
   </g>
   <g id="patch_59">
    <path clip-path="url(#p7d31b8a8eb)" d="M 158.576619 273.312 
L 160.190875 273.312 
L 160.190875 206.585043 
L 158.576619 206.585043 
z
" style="fill:#1f77b4;"/>
   </g>
   <g id="patch_60">
    <path clip-path="url(#p7d31b8a8eb)" d="M 160.190875 273.312 
L 161.805131 273.312 
L 161.805131 205.97287 
L 160.190875 205.97287 
z
" style="fill:#1f77b4;"/>
   </g>
   <g id="patch_61">
    <path clip-path="url(#p7d31b8a8eb)" d="M 161.805131 273.312 
L 163.419387 273.312 
L 163.419387 191.280696 
L 161.805131 191.280696 
z
" style="fill:#1f77b4;"/>
   </g>
   <g id="patch_62">
    <path clip-path="url(#p7d31b8a8eb)" d="M 163.419387 273.312 
L 165.033643 273.312 
L 165.033643 200.463304 
L 163.419387 200.463304 
z
" style="fill:#1f77b4;"/>
   </g>
   <g id="patch_63">
    <path clip-path="url(#p7d31b8a8eb)" d="M 165.033643 273.312 
L 166.647899 273.312 
L 166.647899 189.444174 
L 165.033643 189.444174 
z
" style="fill:#1f77b4;"/>
   </g>
   <g id="patch_64">
    <path clip-path="url(#p7d31b8a8eb)" d="M 166.647899 273.312 
L 168.262155 273.312 
L 168.262155 193.729391 
L 166.647899 193.729391 
z
" style="fill:#1f77b4;"/>
   </g>
   <g id="patch_65">
    <path clip-path="url(#p7d31b8a8eb)" d="M 168.262155 273.312 
L 169.876411 273.312 
L 169.876411 204.748522 
L 168.262155 204.748522 
z
" style="fill:#1f77b4;"/>
   </g>
   <g id="patch_66">
    <path clip-path="url(#p7d31b8a8eb)" d="M 169.876411 273.312 
L 171.490666 273.312 
L 171.490666 197.402435 
L 169.876411 197.402435 
z
" style="fill:#1f77b4;"/>
   </g>
   <g id="patch_67">
    <path clip-path="url(#p7d31b8a8eb)" d="M 171.490666 273.312 
L 173.104922 273.312 
L 173.104922 206.585043 
L 171.490666 206.585043 
z
" style="fill:#1f77b4;"/>
   </g>
   <g id="patch_68">
    <path clip-path="url(#p7d31b8a8eb)" d="M 173.104922 273.312 
L 174.719178 273.312 
L 174.719178 194.341565 
L 173.104922 194.341565 
z
" style="fill:#1f77b4;"/>
   </g>
   <g id="patch_69">
    <path clip-path="url(#p7d31b8a8eb)" d="M 174.719178 273.312 
L 176.333434 273.312 
L 176.333434 191.280696 
L 174.719178 191.280696 
z
" style="fill:#1f77b4;"/>
   </g>
   <g id="patch_70">
    <path clip-path="url(#p7d31b8a8eb)" d="M 176.333434 273.312 
L 177.94769 273.312 
L 177.94769 190.056348 
L 176.333434 190.056348 
z
" style="fill:#1f77b4;"/>
   </g>
   <g id="patch_71">
    <path clip-path="url(#p7d31b8a8eb)" d="M 177.94769 273.312 
L 179.561946 273.312 
L 179.561946 186.995478 
L 177.94769 186.995478 
z
" style="fill:#1f77b4;"/>
   </g>
   <g id="patch_72">
    <path clip-path="url(#p7d31b8a8eb)" d="M 179.561946 273.312 
L 181.176202 273.312 
L 181.176202 191.89287 
L 179.561946 191.89287 
z
" style="fill:#1f77b4;"/>
   </g>
   <g id="patch_73">
    <path clip-path="url(#p7d31b8a8eb)" d="M 181.176202 273.312 
L 182.790458 273.312 
L 182.790458 185.158957 
L 181.176202 185.158957 
z
" style="fill:#1f77b4;"/>
   </g>
   <g id="patch_74">
    <path clip-path="url(#p7d31b8a8eb)" d="M 182.790458 273.312 
L 184.404713 273.312 
L 184.404713 193.729391 
L 182.790458 193.729391 
z
" style="fill:#1f77b4;"/>
   </g>
   <g id="patch_75">
    <path clip-path="url(#p7d31b8a8eb)" d="M 184.404713 273.312 
L 186.018969 273.312 
L 186.018969 188.219826 
L 184.404713 188.219826 
z
" style="fill:#1f77b4;"/>
   </g>
   <g id="patch_76">
    <path clip-path="url(#p7d31b8a8eb)" d="M 186.018969 273.312 
L 187.633225 273.312 
L 187.633225 186.995478 
L 186.018969 186.995478 
z
" style="fill:#1f77b4;"/>
   </g>
   <g id="patch_77">
    <path clip-path="url(#p7d31b8a8eb)" d="M 187.633225 273.312 
L 189.247481 273.312 
L 189.247481 182.098087 
L 187.633225 182.098087 
z
" style="fill:#1f77b4;"/>
   </g>
   <g id="patch_78">
    <path clip-path="url(#p7d31b8a8eb)" d="M 189.247481 273.312 
L 190.861737 273.312 
L 190.861737 185.77113 
L 189.247481 185.77113 
z
" style="fill:#1f77b4;"/>
   </g>
   <g id="patch_79">
    <path clip-path="url(#p7d31b8a8eb)" d="M 190.861737 273.312 
L 192.475993 273.312 
L 192.475993 177.81287 
L 190.861737 177.81287 
z
" style="fill:#1f77b4;"/>
   </g>
   <g id="patch_80">
    <path clip-path="url(#p7d31b8a8eb)" d="M 192.475993 273.312 
L 194.090249 273.312 
L 194.090249 174.752 
L 192.475993 174.752 
z
" style="fill:#1f77b4;"/>
   </g>
   <g id="patch_81">
    <path clip-path="url(#p7d31b8a8eb)" d="M 194.090249 273.312 
L 195.704505 273.312 
L 195.704505 171.69113 
L 194.090249 171.69113 
z
" style="fill:#1f77b4;"/>
   </g>
   <g id="patch_82">
    <path clip-path="url(#p7d31b8a8eb)" d="M 195.704505 273.312 
L 197.318761 273.312 
L 197.318761 178.425043 
L 195.704505 178.425043 
z
" style="fill:#1f77b4;"/>
   </g>
   <g id="patch_83">
    <path clip-path="url(#p7d31b8a8eb)" d="M 197.318761 273.312 
L 198.933016 273.312 
L 198.933016 177.81287 
L 197.318761 177.81287 
z
" style="fill:#1f77b4;"/>
   </g>
   <g id="patch_84">
    <path clip-path="url(#p7d31b8a8eb)" d="M 198.933016 273.312 
L 200.547272 273.312 
L 200.547272 177.81287 
L 198.933016 177.81287 
z
" style="fill:#1f77b4;"/>
   </g>
   <g id="patch_85">
    <path clip-path="url(#p7d31b8a8eb)" d="M 200.547272 273.312 
L 202.161528 273.312 
L 202.161528 164.957217 
L 200.547272 164.957217 
z
" style="fill:#1f77b4;"/>
   </g>
   <g id="patch_86">
    <path clip-path="url(#p7d31b8a8eb)" d="M 202.161528 273.312 
L 203.775784 273.312 
L 203.775784 175.364174 
L 202.161528 175.364174 
z
" style="fill:#1f77b4;"/>
   </g>
   <g id="patch_87">
    <path clip-path="url(#p7d31b8a8eb)" d="M 203.775784 273.312 
L 205.39004 273.312 
L 205.39004 162.508522 
L 203.775784 162.508522 
z
" style="fill:#1f77b4;"/>
   </g>
   <g id="patch_88">
    <path clip-path="url(#p7d31b8a8eb)" d="M 205.39004 273.312 
L 207.004296 273.312 
L 207.004296 161.896348 
L 205.39004 161.896348 
z
" style="fill:#1f77b4;"/>
   </g>
   <g id="patch_89">
    <path clip-path="url(#p7d31b8a8eb)" d="M 207.004296 273.312 
L 208.618552 273.312 
L 208.618552 162.508522 
L 207.004296 162.508522 
z
" style="fill:#1f77b4;"/>
   </g>
   <g id="patch_90">
    <path clip-path="url(#p7d31b8a8eb)" d="M 208.618552 273.312 
L 210.232808 273.312 
L 210.232808 164.957217 
L 208.618552 164.957217 
z
" style="fill:#1f77b4;"/>
   </g>
   <g id="patch_91">
    <path clip-path="url(#p7d31b8a8eb)" d="M 210.232808 273.312 
L 211.847064 273.312 
L 211.847064 158.835478 
L 210.232808 158.835478 
z
" style="fill:#1f77b4;"/>
   </g>
   <g id="patch_92">
    <path clip-path="url(#p7d31b8a8eb)" d="M 211.847064 273.312 
L 213.461319 273.312 
L 213.461319 166.181565 
L 211.847064 166.181565 
z
" style="fill:#1f77b4;"/>
   </g>
   <g id="patch_93">
    <path clip-path="url(#p7d31b8a8eb)" d="M 213.461319 273.312 
L 215.075575 273.312 
L 215.075575 168.630261 
L 213.461319 168.630261 
z
" style="fill:#1f77b4;"/>
   </g>
   <g id="patch_94">
    <path clip-path="url(#p7d31b8a8eb)" d="M 215.075575 273.312 
L 216.689831 273.312 
L 216.689831 160.672 
L 215.075575 160.672 
z
" style="fill:#1f77b4;"/>
   </g>
   <g id="patch_95">
    <path clip-path="url(#p7d31b8a8eb)" d="M 216.689831 273.312 
L 218.304087 273.312 
L 218.304087 163.73287 
L 216.689831 163.73287 
z
" style="fill:#1f77b4;"/>
   </g>
   <g id="patch_96">
    <path clip-path="url(#p7d31b8a8eb)" d="M 218.304087 273.312 
L 219.918343 273.312 
L 219.918343 150.265043 
L 218.304087 150.265043 
z
" style="fill:#1f77b4;"/>
   </g>
   <g id="patch_97">
    <path clip-path="url(#p7d31b8a8eb)" d="M 219.918343 273.312 
L 221.532599 273.312 
L 221.532599 156.998957 
L 219.918343 156.998957 
z
" style="fill:#1f77b4;"/>
   </g>
   <g id="patch_98">
    <path clip-path="url(#p7d31b8a8eb)" d="M 221.532599 273.312 
L 223.146855 273.312 
L 223.146855 163.120696 
L 221.532599 163.120696 
z
" style="fill:#1f77b4;"/>
   </g>
   <g id="patch_99">
    <path clip-path="url(#p7d31b8a8eb)" d="M 223.146855 273.312 
L 224.761111 273.312 
L 224.761111 129.45113 
L 223.146855 129.45113 
z
" style="fill:#1f77b4;"/>
   </g>
   <g id="patch_100">
    <path clip-path="url(#p7d31b8a8eb)" d="M 224.761111 273.312 
L 226.375367 273.312 
L 226.375367 169.854609 
L 224.761111 169.854609 
z
" style="fill:#1f77b4;"/>
   </g>
   <g id="patch_101">
    <path clip-path="url(#p7d31b8a8eb)" d="M 226.375367 273.312 
L 227.989622 273.312 
L 227.989622 149.040696 
L 226.375367 149.040696 
z
" style="fill:#1f77b4;"/>
   </g>
   <g id="patch_102">
    <path clip-path="url(#p7d31b8a8eb)" d="M 227.989622 273.312 
L 229.603878 273.312 
L 229.603878 138.633739 
L 227.989622 138.633739 
z
" style="fill:#1f77b4;"/>
   </g>
   <g id="patch_103">
    <path clip-path="url(#p7d31b8a8eb)" d="M 229.603878 273.312 
L 231.218134 273.312 
L 231.218134 155.162435 
L 229.603878 155.162435 
z
" style="fill:#1f77b4;"/>
   </g>
   <g id="patch_104">
    <path clip-path="url(#p7d31b8a8eb)" d="M 231.218134 273.312 
L 232.83239 273.312 
L 232.83239 141.082435 
L 231.218134 141.082435 
z
" style="fill:#1f77b4;"/>
   </g>
   <g id="patch_105">
    <path clip-path="url(#p7d31b8a8eb)" d="M 232.83239 273.312 
L 234.446646 273.312 
L 234.446646 150.265043 
L 232.83239 150.265043 
z
" style="fill:#1f77b4;"/>
   </g>
   <g id="patch_106">
    <path clip-path="url(#p7d31b8a8eb)" d="M 234.446646 273.312 
L 236.060902 273.312 
L 236.060902 134.960696 
L 234.446646 134.960696 
z
" style="fill:#1f77b4;"/>
   </g>
   <g id="patch_107">
    <path clip-path="url(#p7d31b8a8eb)" d="M 236.060902 273.312 
L 237.675158 273.312 
L 237.675158 158.835478 
L 236.060902 158.835478 
z
" style="fill:#1f77b4;"/>
   </g>
   <g id="patch_108">
    <path clip-path="url(#p7d31b8a8eb)" d="M 237.675158 273.312 
L 239.289414 273.312 
L 239.289414 142.306783 
L 237.675158 142.306783 
z
" style="fill:#1f77b4;"/>
   </g>
   <g id="patch_109">
    <path clip-path="url(#p7d31b8a8eb)" d="M 239.289414 273.312 
L 240.90367 273.312 
L 240.90367 145.367652 
L 239.289414 145.367652 
z
" style="fill:#1f77b4;"/>
   </g>
   <g id="patch_110">
    <path clip-path="url(#p7d31b8a8eb)" d="M 240.90367 273.312 
L 242.517925 273.312 
L 242.517925 145.367652 
L 240.90367 145.367652 
z
" style="fill:#1f77b4;"/>
   </g>
   <g id="patch_111">
    <path clip-path="url(#p7d31b8a8eb)" d="M 242.517925 273.312 
L 244.132181 273.312 
L 244.132181 144.755478 
L 242.517925 144.755478 
z
" style="fill:#1f77b4;"/>
   </g>
   <g id="patch_112">
    <path clip-path="url(#p7d31b8a8eb)" d="M 244.132181 273.312 
L 245.746437 273.312 
L 245.746437 131.287652 
L 244.132181 131.287652 
z
" style="fill:#1f77b4;"/>
   </g>
   <g id="patch_113">
    <path clip-path="url(#p7d31b8a8eb)" d="M 245.746437 273.312 
L 247.360693 273.312 
L 247.360693 144.755478 
L 245.746437 144.755478 
z
" style="fill:#1f77b4;"/>
   </g>
   <g id="patch_114">
    <path clip-path="url(#p7d31b8a8eb)" d="M 247.360693 273.312 
L 248.974949 273.312 
L 248.974949 136.185043 
L 247.360693 136.185043 
z
" style="fill:#1f77b4;"/>
   </g>
   <g id="patch_115">
    <path clip-path="url(#p7d31b8a8eb)" d="M 248.974949 273.312 
L 250.589205 273.312 
L 250.589205 134.348522 
L 248.974949 134.348522 
z
" style="fill:#1f77b4;"/>
   </g>
   <g id="patch_116">
    <path clip-path="url(#p7d31b8a8eb)" d="M 250.589205 273.312 
L 252.203461 273.312 
L 252.203461 139.245913 
L 250.589205 139.245913 
z
" style="fill:#1f77b4;"/>
   </g>
   <g id="patch_117">
    <path clip-path="url(#p7d31b8a8eb)" d="M 252.203461 273.312 
L 253.817717 273.312 
L 253.817717 134.960696 
L 252.203461 134.960696 
z
" style="fill:#1f77b4;"/>
   </g>
   <g id="patch_118">
    <path clip-path="url(#p7d31b8a8eb)" d="M 253.817717 273.312 
L 255.431972 273.312 
L 255.431972 146.592 
L 253.817717 146.592 
z
" style="fill:#1f77b4;"/>
   </g>
   <g id="patch_119">
    <path clip-path="url(#p7d31b8a8eb)" d="M 255.431972 273.312 
L 257.046228 273.312 
L 257.046228 125.165913 
L 255.431972 125.165913 
z
" style="fill:#1f77b4;"/>
   </g>
   <g id="patch_120">
    <path clip-path="url(#p7d31b8a8eb)" d="M 257.046228 273.312 
L 258.660484 273.312 
L 258.660484 147.204174 
L 257.046228 147.204174 
z
" style="fill:#1f77b4;"/>
   </g>
   <g id="patch_121">
    <path clip-path="url(#p7d31b8a8eb)" d="M 258.660484 273.312 
L 260.27474 273.312 
L 260.27474 134.348522 
L 258.660484 134.348522 
z
" style="fill:#1f77b4;"/>
   </g>
   <g id="patch_122">
    <path clip-path="url(#p7d31b8a8eb)" d="M 260.27474 273.312 
L 261.888996 273.312 
L 261.888996 111.698087 
L 260.27474 111.698087 
z
" style="fill:#1f77b4;"/>
   </g>
   <g id="patch_123">
    <path clip-path="url(#p7d31b8a8eb)" d="M 261.888996 273.312 
L 263.503252 273.312 
L 263.503252 123.941565 
L 261.888996 123.941565 
z
" style="fill:#1f77b4;"/>
   </g>
   <g id="patch_124">
    <path clip-path="url(#p7d31b8a8eb)" d="M 263.503252 273.312 
L 265.117508 273.312 
L 265.117508 122.105043 
L 263.503252 122.105043 
z
" style="fill:#1f77b4;"/>
   </g>
   <g id="patch_125">
    <path clip-path="url(#p7d31b8a8eb)" d="M 265.117508 273.312 
L 266.731764 273.312 
L 266.731764 129.45113 
L 265.117508 129.45113 
z
" style="fill:#1f77b4;"/>
   </g>
   <g id="patch_126">
    <path clip-path="url(#p7d31b8a8eb)" d="M 266.731764 273.312 
L 268.34602 273.312 
L 268.34602 123.941565 
L 266.731764 123.941565 
z
" style="fill:#1f77b4;"/>
   </g>
   <g id="patch_127">
    <path clip-path="url(#p7d31b8a8eb)" d="M 268.34602 273.312 
L 269.960275 273.312 
L 269.960275 107.41287 
L 268.34602 107.41287 
z
" style="fill:#1f77b4;"/>
   </g>
   <g id="patch_128">
    <path clip-path="url(#p7d31b8a8eb)" d="M 269.960275 273.312 
L 271.574531 273.312 
L 271.574531 130.063304 
L 269.960275 130.063304 
z
" style="fill:#1f77b4;"/>
   </g>
   <g id="patch_129">
    <path clip-path="url(#p7d31b8a8eb)" d="M 271.574531 273.312 
L 273.188787 273.312 
L 273.188787 115.37113 
L 271.574531 115.37113 
z
" style="fill:#1f77b4;"/>
   </g>
   <g id="patch_130">
    <path clip-path="url(#p7d31b8a8eb)" d="M 273.188787 273.312 
L 274.803043 273.312 
L 274.803043 104.964174 
L 273.188787 104.964174 
z
" style="fill:#1f77b4;"/>
   </g>
   <g id="patch_131">
    <path clip-path="url(#p7d31b8a8eb)" d="M 274.803043 273.312 
L 276.417299 273.312 
L 276.417299 128.226783 
L 274.803043 128.226783 
z
" style="fill:#1f77b4;"/>
   </g>
   <g id="patch_132">
    <path clip-path="url(#p7d31b8a8eb)" d="M 276.417299 273.312 
L 278.031555 273.312 
L 278.031555 117.819826 
L 276.417299 117.819826 
z
" style="fill:#1f77b4;"/>
   </g>
   <g id="patch_133">
    <path clip-path="url(#p7d31b8a8eb)" d="M 278.031555 273.312 
L 279.645811 273.312 
L 279.645811 119.656348 
L 278.031555 119.656348 
z
" style="fill:#1f77b4;"/>
   </g>
   <g id="patch_134">
    <path clip-path="url(#p7d31b8a8eb)" d="M 279.645811 273.312 
L 281.260067 273.312 
L 281.260067 108.637217 
L 279.645811 108.637217 
z
" style="fill:#1f77b4;"/>
   </g>
   <g id="patch_135">
    <path clip-path="url(#p7d31b8a8eb)" d="M 281.260067 273.312 
L 282.874323 273.312 
L 282.874323 97.618087 
L 281.260067 97.618087 
z
" style="fill:#1f77b4;"/>
   </g>
   <g id="patch_136">
    <path clip-path="url(#p7d31b8a8eb)" d="M 282.874323 273.312 
L 284.488578 273.312 
L 284.488578 115.983304 
L 282.874323 115.983304 
z
" style="fill:#1f77b4;"/>
   </g>
   <g id="patch_137">
    <path clip-path="url(#p7d31b8a8eb)" d="M 284.488578 273.312 
L 286.102834 273.312 
L 286.102834 104.964174 
L 284.488578 104.964174 
z
" style="fill:#1f77b4;"/>
   </g>
   <g id="patch_138">
    <path clip-path="url(#p7d31b8a8eb)" d="M 286.102834 273.312 
L 287.71709 273.312 
L 287.71709 92.720696 
L 286.102834 92.720696 
z
" style="fill:#1f77b4;"/>
   </g>
   <g id="patch_139">
    <path clip-path="url(#p7d31b8a8eb)" d="M 287.71709 273.312 
L 289.331346 273.312 
L 289.331346 104.964174 
L 287.71709 104.964174 
z
" style="fill:#1f77b4;"/>
   </g>
   <g id="patch_140">
    <path clip-path="url(#p7d31b8a8eb)" d="M 289.331346 273.312 
L 290.945602 273.312 
L 290.945602 98.230261 
L 289.331346 98.230261 
z
" style="fill:#1f77b4;"/>
   </g>
   <g id="patch_141">
    <path clip-path="url(#p7d31b8a8eb)" d="M 290.945602 273.312 
L 292.559858 273.312 
L 292.559858 112.310261 
L 290.945602 112.310261 
z
" style="fill:#1f77b4;"/>
   </g>
   <g id="patch_142">
    <path clip-path="url(#p7d31b8a8eb)" d="M 292.559858 273.312 
L 294.174114 273.312 
L 294.174114 98.842435 
L 292.559858 98.842435 
z
" style="fill:#1f77b4;"/>
   </g>
   <g id="patch_143">
    <path clip-path="url(#p7d31b8a8eb)" d="M 294.174114 273.312 
L 295.78837 273.312 
L 295.78837 87.823304 
L 294.174114 87.823304 
z
" style="fill:#1f77b4;"/>
   </g>
   <g id="patch_144">
    <path clip-path="url(#p7d31b8a8eb)" d="M 295.78837 273.312 
L 297.402626 273.312 
L 297.402626 93.945043 
L 295.78837 93.945043 
z
" style="fill:#1f77b4;"/>
   </g>
   <g id="patch_145">
    <path clip-path="url(#p7d31b8a8eb)" d="M 297.402626 273.312 
L 299.016881 273.312 
L 299.016881 89.659826 
L 297.402626 89.659826 
z
" style="fill:#1f77b4;"/>
   </g>
   <g id="patch_146">
    <path clip-path="url(#p7d31b8a8eb)" d="M 299.016881 273.312 
L 300.631137 273.312 
L 300.631137 93.33287 
L 299.016881 93.33287 
z
" style="fill:#1f77b4;"/>
   </g>
   <g id="patch_147">
    <path clip-path="url(#p7d31b8a8eb)" d="M 300.631137 273.312 
L 302.245393 273.312 
L 302.245393 88.435478 
L 300.631137 88.435478 
z
" style="fill:#1f77b4;"/>
   </g>
   <g id="patch_148">
    <path clip-path="url(#p7d31b8a8eb)" d="M 302.245393 273.312 
L 303.859649 273.312 
L 303.859649 99.454609 
L 302.245393 99.454609 
z
" style="fill:#1f77b4;"/>
   </g>
   <g id="patch_149">
    <path clip-path="url(#p7d31b8a8eb)" d="M 303.859649 273.312 
L 305.473905 273.312 
L 305.473905 81.701565 
L 303.859649 81.701565 
z
" style="fill:#1f77b4;"/>
   </g>
   <g id="patch_150">
    <path clip-path="url(#p7d31b8a8eb)" d="M 305.473905 273.312 
L 307.088161 273.312 
L 307.088161 98.230261 
L 305.473905 98.230261 
z
" style="fill:#1f77b4;"/>
   </g>
   <g id="patch_151">
    <path clip-path="url(#p7d31b8a8eb)" d="M 307.088161 273.312 
L 308.702417 273.312 
L 308.702417 101.903304 
L 307.088161 101.903304 
z
" style="fill:#1f77b4;"/>
   </g>
   <g id="patch_152">
    <path clip-path="url(#p7d31b8a8eb)" d="M 308.702417 273.312 
L 310.316673 273.312 
L 310.316673 100.678957 
L 308.702417 100.678957 
z
" style="fill:#1f77b4;"/>
   </g>
   <g id="patch_153">
    <path clip-path="url(#p7d31b8a8eb)" d="M 310.316673 273.312 
L 311.930928 273.312 
L 311.930928 86.598957 
L 310.316673 86.598957 
z
" style="fill:#1f77b4;"/>
   </g>
   <g id="patch_154">
    <path clip-path="url(#p7d31b8a8eb)" d="M 311.930928 273.312 
L 313.545184 273.312 
L 313.545184 92.108522 
L 311.930928 92.108522 
z
" style="fill:#1f77b4;"/>
   </g>
   <g id="patch_155">
    <path clip-path="url(#p7d31b8a8eb)" d="M 313.545184 273.312 
L 315.15944 273.312 
L 315.15944 76.804174 
L 313.545184 76.804174 
z
" style="fill:#1f77b4;"/>
   </g>
   <g id="patch_156">
    <path clip-path="url(#p7d31b8a8eb)" d="M 315.15944 273.312 
L 316.773696 273.312 
L 316.773696 87.21113 
L 315.15944 87.21113 
z
" style="fill:#1f77b4;"/>
   </g>
   <g id="patch_157">
    <path clip-path="url(#p7d31b8a8eb)" d="M 316.773696 273.312 
L 318.387952 273.312 
L 318.387952 79.25287 
L 316.773696 79.25287 
z
" style="fill:#1f77b4;"/>
   </g>
   <g id="patch_158">
    <path clip-path="url(#p7d31b8a8eb)" d="M 318.387952 273.312 
L 320.002208 273.312 
L 320.002208 87.21113 
L 318.387952 87.21113 
z
" style="fill:#1f77b4;"/>
   </g>
   <g id="patch_159">
    <path clip-path="url(#p7d31b8a8eb)" d="M 320.002208 273.312 
L 321.616464 273.312 
L 321.616464 82.925913 
L 320.002208 82.925913 
z
" style="fill:#1f77b4;"/>
   </g>
   <g id="patch_160">
    <path clip-path="url(#p7d31b8a8eb)" d="M 321.616464 273.312 
L 323.23072 273.312 
L 323.23072 79.25287 
L 321.616464 79.25287 
z
" style="fill:#1f77b4;"/>
   </g>
   <g id="patch_161">
    <path clip-path="url(#p7d31b8a8eb)" d="M 323.23072 273.312 
L 324.844976 273.312 
L 324.844976 81.701565 
L 323.23072 81.701565 
z
" style="fill:#1f77b4;"/>
   </g>
   <g id="patch_162">
    <path clip-path="url(#p7d31b8a8eb)" d="M 324.844976 273.312 
L 326.459231 273.312 
L 326.459231 81.701565 
L 324.844976 81.701565 
z
" style="fill:#1f77b4;"/>
   </g>
   <g id="patch_163">
    <path clip-path="url(#p7d31b8a8eb)" d="M 326.459231 273.312 
L 328.073487 273.312 
L 328.073487 84.762435 
L 326.459231 84.762435 
z
" style="fill:#1f77b4;"/>
   </g>
   <g id="patch_164">
    <path clip-path="url(#p7d31b8a8eb)" d="M 328.073487 273.312 
L 329.687743 273.312 
L 329.687743 61.499826 
L 328.073487 61.499826 
z
" style="fill:#1f77b4;"/>
   </g>
   <g id="patch_165">
    <path clip-path="url(#p7d31b8a8eb)" d="M 329.687743 273.312 
L 331.301999 273.312 
L 331.301999 49.868522 
L 329.687743 49.868522 
z
" style="fill:#1f77b4;"/>
   </g>
   <g id="patch_166">
    <path clip-path="url(#p7d31b8a8eb)" d="M 331.301999 273.312 
L 332.916255 273.312 
L 332.916255 77.416348 
L 331.301999 77.416348 
z
" style="fill:#1f77b4;"/>
   </g>
   <g id="patch_167">
    <path clip-path="url(#p7d31b8a8eb)" d="M 332.916255 273.312 
L 334.530511 273.312 
L 334.530511 66.397217 
L 332.916255 66.397217 
z
" style="fill:#1f77b4;"/>
   </g>
   <g id="patch_168">
    <path clip-path="url(#p7d31b8a8eb)" d="M 334.530511 273.312 
L 336.144767 273.312 
L 336.144767 79.25287 
L 334.530511 79.25287 
z
" style="fill:#1f77b4;"/>
   </g>
   <g id="patch_169">
    <path clip-path="url(#p7d31b8a8eb)" d="M 336.144767 273.312 
L 337.759023 273.312 
L 337.759023 59.05113 
L 336.144767 59.05113 
z
" style="fill:#1f77b4;"/>
   </g>
   <g id="patch_170">
    <path clip-path="url(#p7d31b8a8eb)" d="M 337.759023 273.312 
L 339.373279 273.312 
L 339.373279 67.009391 
L 337.759023 67.009391 
z
" style="fill:#1f77b4;"/>
   </g>
   <g id="patch_171">
    <path clip-path="url(#p7d31b8a8eb)" d="M 339.373279 273.312 
L 340.987534 273.312 
L 340.987534 59.663304 
L 339.373279 59.663304 
z
" style="fill:#1f77b4;"/>
   </g>
   <g id="patch_172">
    <path clip-path="url(#p7d31b8a8eb)" d="M 340.987534 273.312 
L 342.60179 273.312 
L 342.60179 74.967652 
L 340.987534 74.967652 
z
" style="fill:#1f77b4;"/>
   </g>
   <g id="patch_173">
    <path clip-path="url(#p7d31b8a8eb)" d="M 342.60179 273.312 
L 344.216046 273.312 
L 344.216046 66.397217 
L 342.60179 66.397217 
z
" style="fill:#1f77b4;"/>
   </g>
   <g id="patch_174">
    <path clip-path="url(#p7d31b8a8eb)" d="M 344.216046 273.312 
L 345.830302 273.312 
L 345.830302 57.214609 
L 344.216046 57.214609 
z
" style="fill:#1f77b4;"/>
   </g>
   <g id="patch_175">
    <path clip-path="url(#p7d31b8a8eb)" d="M 345.830302 273.312 
L 347.444558 273.312 
L 347.444558 87.21113 
L 345.830302 87.21113 
z
" style="fill:#1f77b4;"/>
   </g>
   <g id="patch_176">
    <path clip-path="url(#p7d31b8a8eb)" d="M 347.444558 273.312 
L 349.058814 273.312 
L 349.058814 72.518957 
L 347.444558 72.518957 
z
" style="fill:#1f77b4;"/>
   </g>
   <g id="patch_177">
    <path clip-path="url(#p7d31b8a8eb)" d="M 349.058814 273.312 
L 350.67307 273.312 
L 350.67307 57.214609 
L 349.058814 57.214609 
z
" style="fill:#1f77b4;"/>
   </g>
   <g id="patch_178">
    <path clip-path="url(#p7d31b8a8eb)" d="M 350.67307 273.312 
L 352.287326 273.312 
L 352.287326 76.804174 
L 350.67307 76.804174 
z
" style="fill:#1f77b4;"/>
   </g>
   <g id="patch_179">
    <path clip-path="url(#p7d31b8a8eb)" d="M 352.287326 273.312 
L 353.901582 273.312 
L 353.901582 59.663304 
L 352.287326 59.663304 
z
" style="fill:#1f77b4;"/>
   </g>
   <g id="patch_180">
    <path clip-path="url(#p7d31b8a8eb)" d="M 353.901582 273.312 
L 355.515837 273.312 
L 355.515837 70.682435 
L 353.901582 70.682435 
z
" style="fill:#1f77b4;"/>
   </g>
   <g id="patch_181">
    <path clip-path="url(#p7d31b8a8eb)" d="M 355.515837 273.312 
L 357.130093 273.312 
L 357.130093 45.583304 
L 355.515837 45.583304 
z
" style="fill:#1f77b4;"/>
   </g>
   <g id="patch_182">
    <path clip-path="url(#p7d31b8a8eb)" d="M 357.130093 273.312 
L 358.744349 273.312 
L 358.744349 65.785043 
L 357.130093 65.785043 
z
" style="fill:#1f77b4;"/>
   </g>
   <g id="patch_183">
    <path clip-path="url(#p7d31b8a8eb)" d="M 358.744349 273.312 
L 360.358605 273.312 
L 360.358605 60.887652 
L 358.744349 60.887652 
z
" style="fill:#1f77b4;"/>
   </g>
   <g id="patch_184">
    <path clip-path="url(#p7d31b8a8eb)" d="M 360.358605 273.312 
L 361.972861 273.312 
L 361.972861 43.746783 
L 360.358605 43.746783 
z
" style="fill:#1f77b4;"/>
   </g>
   <g id="patch_185">
    <path clip-path="url(#p7d31b8a8eb)" d="M 361.972861 273.312 
L 363.587117 273.312 
L 363.587117 43.746783 
L 361.972861 43.746783 
z
" style="fill:#1f77b4;"/>
   </g>
   <g id="patch_186">
    <path clip-path="url(#p7d31b8a8eb)" d="M 363.587117 273.312 
L 365.201373 273.312 
L 365.201373 67.009391 
L 363.587117 67.009391 
z
" style="fill:#1f77b4;"/>
   </g>
   <g id="patch_187">
    <path clip-path="url(#p7d31b8a8eb)" d="M 365.201373 273.312 
L 366.815629 273.312 
L 366.815629 63.336348 
L 365.201373 63.336348 
z
" style="fill:#1f77b4;"/>
   </g>
   <g id="patch_188">
    <path clip-path="url(#p7d31b8a8eb)" d="M 366.815629 273.312 
L 368.429885 273.312 
L 368.429885 39.461565 
L 366.815629 39.461565 
z
" style="fill:#1f77b4;"/>
   </g>
   <g id="patch_189">
    <path clip-path="url(#p7d31b8a8eb)" d="M 368.429885 273.312 
L 370.04414 273.312 
L 370.04414 45.583304 
L 368.429885 45.583304 
z
" style="fill:#1f77b4;"/>
   </g>
   <g id="patch_190">
    <path clip-path="url(#p7d31b8a8eb)" d="M 370.04414 273.312 
L 371.658396 273.312 
L 371.658396 39.461565 
L 370.04414 39.461565 
z
" style="fill:#1f77b4;"/>
   </g>
   <g id="patch_191">
    <path clip-path="url(#p7d31b8a8eb)" d="M 371.658396 273.312 
L 373.272652 273.312 
L 373.272652 37.01287 
L 371.658396 37.01287 
z
" style="fill:#1f77b4;"/>
   </g>
   <g id="patch_192">
    <path clip-path="url(#p7d31b8a8eb)" d="M 373.272652 273.312 
L 374.886908 273.312 
L 374.886908 21.096348 
L 373.272652 21.096348 
z
" style="fill:#1f77b4;"/>
   </g>
   <g id="patch_193">
    <path clip-path="url(#p7d31b8a8eb)" d="M 374.886908 273.312 
L 376.501164 273.312 
L 376.501164 29.054609 
L 374.886908 29.054609 
z
" style="fill:#1f77b4;"/>
   </g>
   <g id="patch_194">
    <path clip-path="url(#p7d31b8a8eb)" d="M 376.501164 273.312 
L 378.11542 273.312 
L 378.11542 73.13113 
L 376.501164 73.13113 
z
" style="fill:#1f77b4;"/>
   </g>
   <g id="patch_195">
    <path clip-path="url(#p7d31b8a8eb)" d="M 378.11542 273.312 
L 379.729676 273.312 
L 379.729676 31.503304 
L 378.11542 31.503304 
z
" style="fill:#1f77b4;"/>
   </g>
   <g id="patch_196">
    <path clip-path="url(#p7d31b8a8eb)" d="M 379.729676 273.312 
L 381.343932 273.312 
L 381.343932 74.967652 
L 379.729676 74.967652 
z
" style="fill:#1f77b4;"/>
   </g>
   <g id="patch_197">
    <path clip-path="url(#p7d31b8a8eb)" d="M 381.343932 273.312 
L 382.958187 273.312 
L 382.958187 33.339826 
L 381.343932 33.339826 
z
" style="fill:#1f77b4;"/>
   </g>
   <g id="patch_198">
    <path clip-path="url(#p7d31b8a8eb)" d="M 382.958187 273.312 
L 384.572443 273.312 
L 384.572443 34.564174 
L 382.958187 34.564174 
z
" style="fill:#1f77b4;"/>
   </g>
   <g id="patch_199">
    <path clip-path="url(#p7d31b8a8eb)" d="M 384.572443 273.312 
L 386.186699 273.312 
L 386.186699 53.541565 
L 384.572443 53.541565 
z
" style="fill:#1f77b4;"/>
   </g>
   <g id="patch_200">
    <path clip-path="url(#p7d31b8a8eb)" d="M 386.186699 273.312 
L 387.800955 273.312 
L 387.800955 19.872 
L 386.186699 19.872 
z
" style="fill:#1f77b4;"/>
   </g>
   <g id="patch_201">
    <path clip-path="url(#p7d31b8a8eb)" d="M 387.800955 273.312 
L 389.415211 273.312 
L 389.415211 25.993739 
L 387.800955 25.993739 
z
" style="fill:#1f77b4;"/>
   </g>
   <g id="patch_202">
    <path clip-path="url(#p7d31b8a8eb)" d="M 389.415211 273.312 
L 391.029467 273.312 
L 391.029467 38.237217 
L 389.415211 38.237217 
z
" style="fill:#1f77b4;"/>
   </g>
   <g id="matplotlib.axis_1">
    <g id="xtick_1">
     <g id="line2d_1">
      <defs>
       <path d="M 0 0 
L 0 3.5 
" id="m90b066f32a" style="stroke:#000000;stroke-width:0.8;"/>
      </defs>
      <g>
       <use style="stroke:#000000;stroke-width:0.8;" x="66.376477" xlink:href="#m90b066f32a" y="273.312"/>
      </g>
     </g>
     <g id="text_1">
      <!-- 0.0 -->
      <g transform="translate(58.424915 287.910437)scale(0.1 -0.1)">
       <defs>
        <path d="M 2034 4250 
Q 1547 4250 1301 3770 
Q 1056 3291 1056 2328 
Q 1056 1369 1301 889 
Q 1547 409 2034 409 
Q 2525 409 2770 889 
Q 3016 1369 3016 2328 
Q 3016 3291 2770 3770 
Q 2525 4250 2034 4250 
z
M 2034 4750 
Q 2819 4750 3233 4129 
Q 3647 3509 3647 2328 
Q 3647 1150 3233 529 
Q 2819 -91 2034 -91 
Q 1250 -91 836 529 
Q 422 1150 422 2328 
Q 422 3509 836 4129 
Q 1250 4750 2034 4750 
z
" id="DejaVuSans-30" transform="scale(0.015625)"/>
        <path d="M 684 794 
L 1344 794 
L 1344 0 
L 684 0 
L 684 794 
z
" id="DejaVuSans-2e" transform="scale(0.015625)"/>
       </defs>
       <use xlink:href="#DejaVuSans-30"/>
       <use x="63.623047" xlink:href="#DejaVuSans-2e"/>
       <use x="95.410156" xlink:href="#DejaVuSans-30"/>
      </g>
     </g>
    </g>
    <g id="xtick_2">
     <g id="line2d_2">
      <g>
       <use style="stroke:#000000;stroke-width:0.8;" x="131.307386" xlink:href="#m90b066f32a" y="273.312"/>
      </g>
     </g>
     <g id="text_2">
      <!-- 0.2 -->
      <g transform="translate(123.355824 287.910437)scale(0.1 -0.1)">
       <defs>
        <path d="M 1228 531 
L 3431 531 
L 3431 0 
L 469 0 
L 469 531 
Q 828 903 1448 1529 
Q 2069 2156 2228 2338 
Q 2531 2678 2651 2914 
Q 2772 3150 2772 3378 
Q 2772 3750 2511 3984 
Q 2250 4219 1831 4219 
Q 1534 4219 1204 4116 
Q 875 4013 500 3803 
L 500 4441 
Q 881 4594 1212 4672 
Q 1544 4750 1819 4750 
Q 2544 4750 2975 4387 
Q 3406 4025 3406 3419 
Q 3406 3131 3298 2873 
Q 3191 2616 2906 2266 
Q 2828 2175 2409 1742 
Q 1991 1309 1228 531 
z
" id="DejaVuSans-32" transform="scale(0.015625)"/>
       </defs>
       <use xlink:href="#DejaVuSans-30"/>
       <use x="63.623047" xlink:href="#DejaVuSans-2e"/>
       <use x="95.410156" xlink:href="#DejaVuSans-32"/>
      </g>
     </g>
    </g>
    <g id="xtick_3">
     <g id="line2d_3">
      <g>
       <use style="stroke:#000000;stroke-width:0.8;" x="196.238295" xlink:href="#m90b066f32a" y="273.312"/>
      </g>
     </g>
     <g id="text_3">
      <!-- 0.4 -->
      <g transform="translate(188.286733 287.910437)scale(0.1 -0.1)">
       <defs>
        <path d="M 2419 4116 
L 825 1625 
L 2419 1625 
L 2419 4116 
z
M 2253 4666 
L 3047 4666 
L 3047 1625 
L 3713 1625 
L 3713 1100 
L 3047 1100 
L 3047 0 
L 2419 0 
L 2419 1100 
L 313 1100 
L 313 1709 
L 2253 4666 
z
" id="DejaVuSans-34" transform="scale(0.015625)"/>
       </defs>
       <use xlink:href="#DejaVuSans-30"/>
       <use x="63.623047" xlink:href="#DejaVuSans-2e"/>
       <use x="95.410156" xlink:href="#DejaVuSans-34"/>
      </g>
     </g>
    </g>
    <g id="xtick_4">
     <g id="line2d_4">
      <g>
       <use style="stroke:#000000;stroke-width:0.8;" x="261.169205" xlink:href="#m90b066f32a" y="273.312"/>
      </g>
     </g>
     <g id="text_4">
      <!-- 0.6 -->
      <g transform="translate(253.217642 287.910437)scale(0.1 -0.1)">
       <defs>
        <path d="M 2113 2584 
Q 1688 2584 1439 2293 
Q 1191 2003 1191 1497 
Q 1191 994 1439 701 
Q 1688 409 2113 409 
Q 2538 409 2786 701 
Q 3034 994 3034 1497 
Q 3034 2003 2786 2293 
Q 2538 2584 2113 2584 
z
M 3366 4563 
L 3366 3988 
Q 3128 4100 2886 4159 
Q 2644 4219 2406 4219 
Q 1781 4219 1451 3797 
Q 1122 3375 1075 2522 
Q 1259 2794 1537 2939 
Q 1816 3084 2150 3084 
Q 2853 3084 3261 2657 
Q 3669 2231 3669 1497 
Q 3669 778 3244 343 
Q 2819 -91 2113 -91 
Q 1303 -91 875 529 
Q 447 1150 447 2328 
Q 447 3434 972 4092 
Q 1497 4750 2381 4750 
Q 2619 4750 2861 4703 
Q 3103 4656 3366 4563 
z
" id="DejaVuSans-36" transform="scale(0.015625)"/>
       </defs>
       <use xlink:href="#DejaVuSans-30"/>
       <use x="63.623047" xlink:href="#DejaVuSans-2e"/>
       <use x="95.410156" xlink:href="#DejaVuSans-36"/>
      </g>
     </g>
    </g>
    <g id="xtick_5">
     <g id="line2d_5">
      <g>
       <use style="stroke:#000000;stroke-width:0.8;" x="326.100114" xlink:href="#m90b066f32a" y="273.312"/>
      </g>
     </g>
     <g id="text_5">
      <!-- 0.8 -->
      <g transform="translate(318.148551 287.910437)scale(0.1 -0.1)">
       <defs>
        <path d="M 2034 2216 
Q 1584 2216 1326 1975 
Q 1069 1734 1069 1313 
Q 1069 891 1326 650 
Q 1584 409 2034 409 
Q 2484 409 2743 651 
Q 3003 894 3003 1313 
Q 3003 1734 2745 1975 
Q 2488 2216 2034 2216 
z
M 1403 2484 
Q 997 2584 770 2862 
Q 544 3141 544 3541 
Q 544 4100 942 4425 
Q 1341 4750 2034 4750 
Q 2731 4750 3128 4425 
Q 3525 4100 3525 3541 
Q 3525 3141 3298 2862 
Q 3072 2584 2669 2484 
Q 3125 2378 3379 2068 
Q 3634 1759 3634 1313 
Q 3634 634 3220 271 
Q 2806 -91 2034 -91 
Q 1263 -91 848 271 
Q 434 634 434 1313 
Q 434 1759 690 2068 
Q 947 2378 1403 2484 
z
M 1172 3481 
Q 1172 3119 1398 2916 
Q 1625 2713 2034 2713 
Q 2441 2713 2670 2916 
Q 2900 3119 2900 3481 
Q 2900 3844 2670 4047 
Q 2441 4250 2034 4250 
Q 1625 4250 1398 4047 
Q 1172 3844 1172 3481 
z
" id="DejaVuSans-38" transform="scale(0.015625)"/>
       </defs>
       <use xlink:href="#DejaVuSans-30"/>
       <use x="63.623047" xlink:href="#DejaVuSans-2e"/>
       <use x="95.410156" xlink:href="#DejaVuSans-38"/>
      </g>
     </g>
    </g>
    <g id="xtick_6">
     <g id="line2d_6">
      <g>
       <use style="stroke:#000000;stroke-width:0.8;" x="391.031023" xlink:href="#m90b066f32a" y="273.312"/>
      </g>
     </g>
     <g id="text_6">
      <!-- 1.0 -->
      <g transform="translate(383.07946 287.910437)scale(0.1 -0.1)">
       <defs>
        <path d="M 794 531 
L 1825 531 
L 1825 4091 
L 703 3866 
L 703 4441 
L 1819 4666 
L 2450 4666 
L 2450 531 
L 3481 531 
L 3481 0 
L 794 0 
L 794 531 
z
" id="DejaVuSans-31" transform="scale(0.015625)"/>
       </defs>
       <use xlink:href="#DejaVuSans-31"/>
       <use x="63.623047" xlink:href="#DejaVuSans-2e"/>
       <use x="95.410156" xlink:href="#DejaVuSans-30"/>
      </g>
     </g>
    </g>
    <g id="text_7">
     <!-- Propagation direction -->
     <g transform="translate(175.221719 301.588562)scale(0.1 -0.1)">
      <defs>
       <path d="M 1259 4147 
L 1259 2394 
L 2053 2394 
Q 2494 2394 2734 2622 
Q 2975 2850 2975 3272 
Q 2975 3691 2734 3919 
Q 2494 4147 2053 4147 
L 1259 4147 
z
M 628 4666 
L 2053 4666 
Q 2838 4666 3239 4311 
Q 3641 3956 3641 3272 
Q 3641 2581 3239 2228 
Q 2838 1875 2053 1875 
L 1259 1875 
L 1259 0 
L 628 0 
L 628 4666 
z
" id="DejaVuSans-50" transform="scale(0.015625)"/>
       <path d="M 2631 2963 
Q 2534 3019 2420 3045 
Q 2306 3072 2169 3072 
Q 1681 3072 1420 2755 
Q 1159 2438 1159 1844 
L 1159 0 
L 581 0 
L 581 3500 
L 1159 3500 
L 1159 2956 
Q 1341 3275 1631 3429 
Q 1922 3584 2338 3584 
Q 2397 3584 2469 3576 
Q 2541 3569 2628 3553 
L 2631 2963 
z
" id="DejaVuSans-72" transform="scale(0.015625)"/>
       <path d="M 1959 3097 
Q 1497 3097 1228 2736 
Q 959 2375 959 1747 
Q 959 1119 1226 758 
Q 1494 397 1959 397 
Q 2419 397 2687 759 
Q 2956 1122 2956 1747 
Q 2956 2369 2687 2733 
Q 2419 3097 1959 3097 
z
M 1959 3584 
Q 2709 3584 3137 3096 
Q 3566 2609 3566 1747 
Q 3566 888 3137 398 
Q 2709 -91 1959 -91 
Q 1206 -91 779 398 
Q 353 888 353 1747 
Q 353 2609 779 3096 
Q 1206 3584 1959 3584 
z
" id="DejaVuSans-6f" transform="scale(0.015625)"/>
       <path d="M 1159 525 
L 1159 -1331 
L 581 -1331 
L 581 3500 
L 1159 3500 
L 1159 2969 
Q 1341 3281 1617 3432 
Q 1894 3584 2278 3584 
Q 2916 3584 3314 3078 
Q 3713 2572 3713 1747 
Q 3713 922 3314 415 
Q 2916 -91 2278 -91 
Q 1894 -91 1617 61 
Q 1341 213 1159 525 
z
M 3116 1747 
Q 3116 2381 2855 2742 
Q 2594 3103 2138 3103 
Q 1681 3103 1420 2742 
Q 1159 2381 1159 1747 
Q 1159 1113 1420 752 
Q 1681 391 2138 391 
Q 2594 391 2855 752 
Q 3116 1113 3116 1747 
z
" id="DejaVuSans-70" transform="scale(0.015625)"/>
       <path d="M 2194 1759 
Q 1497 1759 1228 1600 
Q 959 1441 959 1056 
Q 959 750 1161 570 
Q 1363 391 1709 391 
Q 2188 391 2477 730 
Q 2766 1069 2766 1631 
L 2766 1759 
L 2194 1759 
z
M 3341 1997 
L 3341 0 
L 2766 0 
L 2766 531 
Q 2569 213 2275 61 
Q 1981 -91 1556 -91 
Q 1019 -91 701 211 
Q 384 513 384 1019 
Q 384 1609 779 1909 
Q 1175 2209 1959 2209 
L 2766 2209 
L 2766 2266 
Q 2766 2663 2505 2880 
Q 2244 3097 1772 3097 
Q 1472 3097 1187 3025 
Q 903 2953 641 2809 
L 641 3341 
Q 956 3463 1253 3523 
Q 1550 3584 1831 3584 
Q 2591 3584 2966 3190 
Q 3341 2797 3341 1997 
z
" id="DejaVuSans-61" transform="scale(0.015625)"/>
       <path d="M 2906 1791 
Q 2906 2416 2648 2759 
Q 2391 3103 1925 3103 
Q 1463 3103 1205 2759 
Q 947 2416 947 1791 
Q 947 1169 1205 825 
Q 1463 481 1925 481 
Q 2391 481 2648 825 
Q 2906 1169 2906 1791 
z
M 3481 434 
Q 3481 -459 3084 -895 
Q 2688 -1331 1869 -1331 
Q 1566 -1331 1297 -1286 
Q 1028 -1241 775 -1147 
L 775 -588 
Q 1028 -725 1275 -790 
Q 1522 -856 1778 -856 
Q 2344 -856 2625 -561 
Q 2906 -266 2906 331 
L 2906 616 
Q 2728 306 2450 153 
Q 2172 0 1784 0 
Q 1141 0 747 490 
Q 353 981 353 1791 
Q 353 2603 747 3093 
Q 1141 3584 1784 3584 
Q 2172 3584 2450 3431 
Q 2728 3278 2906 2969 
L 2906 3500 
L 3481 3500 
L 3481 434 
z
" id="DejaVuSans-67" transform="scale(0.015625)"/>
       <path d="M 1172 4494 
L 1172 3500 
L 2356 3500 
L 2356 3053 
L 1172 3053 
L 1172 1153 
Q 1172 725 1289 603 
Q 1406 481 1766 481 
L 2356 481 
L 2356 0 
L 1766 0 
Q 1100 0 847 248 
Q 594 497 594 1153 
L 594 3053 
L 172 3053 
L 172 3500 
L 594 3500 
L 594 4494 
L 1172 4494 
z
" id="DejaVuSans-74" transform="scale(0.015625)"/>
       <path d="M 603 3500 
L 1178 3500 
L 1178 0 
L 603 0 
L 603 3500 
z
M 603 4863 
L 1178 4863 
L 1178 4134 
L 603 4134 
L 603 4863 
z
" id="DejaVuSans-69" transform="scale(0.015625)"/>
       <path d="M 3513 2113 
L 3513 0 
L 2938 0 
L 2938 2094 
Q 2938 2591 2744 2837 
Q 2550 3084 2163 3084 
Q 1697 3084 1428 2787 
Q 1159 2491 1159 1978 
L 1159 0 
L 581 0 
L 581 3500 
L 1159 3500 
L 1159 2956 
Q 1366 3272 1645 3428 
Q 1925 3584 2291 3584 
Q 2894 3584 3203 3211 
Q 3513 2838 3513 2113 
z
" id="DejaVuSans-6e" transform="scale(0.015625)"/>
       <path id="DejaVuSans-20" transform="scale(0.015625)"/>
       <path d="M 2906 2969 
L 2906 4863 
L 3481 4863 
L 3481 0 
L 2906 0 
L 2906 525 
Q 2725 213 2448 61 
Q 2172 -91 1784 -91 
Q 1150 -91 751 415 
Q 353 922 353 1747 
Q 353 2572 751 3078 
Q 1150 3584 1784 3584 
Q 2172 3584 2448 3432 
Q 2725 3281 2906 2969 
z
M 947 1747 
Q 947 1113 1208 752 
Q 1469 391 1925 391 
Q 2381 391 2643 752 
Q 2906 1113 2906 1747 
Q 2906 2381 2643 2742 
Q 2381 3103 1925 3103 
Q 1469 3103 1208 2742 
Q 947 2381 947 1747 
z
" id="DejaVuSans-64" transform="scale(0.015625)"/>
       <path d="M 3597 1894 
L 3597 1613 
L 953 1613 
Q 991 1019 1311 708 
Q 1631 397 2203 397 
Q 2534 397 2845 478 
Q 3156 559 3463 722 
L 3463 178 
Q 3153 47 2828 -22 
Q 2503 -91 2169 -91 
Q 1331 -91 842 396 
Q 353 884 353 1716 
Q 353 2575 817 3079 
Q 1281 3584 2069 3584 
Q 2775 3584 3186 3129 
Q 3597 2675 3597 1894 
z
M 3022 2063 
Q 3016 2534 2758 2815 
Q 2500 3097 2075 3097 
Q 1594 3097 1305 2825 
Q 1016 2553 972 2059 
L 3022 2063 
z
" id="DejaVuSans-65" transform="scale(0.015625)"/>
       <path d="M 3122 3366 
L 3122 2828 
Q 2878 2963 2633 3030 
Q 2388 3097 2138 3097 
Q 1578 3097 1268 2742 
Q 959 2388 959 1747 
Q 959 1106 1268 751 
Q 1578 397 2138 397 
Q 2388 397 2633 464 
Q 2878 531 3122 666 
L 3122 134 
Q 2881 22 2623 -34 
Q 2366 -91 2075 -91 
Q 1284 -91 818 406 
Q 353 903 353 1747 
Q 353 2603 823 3093 
Q 1294 3584 2113 3584 
Q 2378 3584 2631 3529 
Q 2884 3475 3122 3366 
z
" id="DejaVuSans-63" transform="scale(0.015625)"/>
      </defs>
      <use xlink:href="#DejaVuSans-50"/>
      <use x="58.552734" xlink:href="#DejaVuSans-72"/>
      <use x="97.416016" xlink:href="#DejaVuSans-6f"/>
      <use x="158.597656" xlink:href="#DejaVuSans-70"/>
      <use x="222.074219" xlink:href="#DejaVuSans-61"/>
      <use x="283.353516" xlink:href="#DejaVuSans-67"/>
      <use x="346.830078" xlink:href="#DejaVuSans-61"/>
      <use x="408.109375" xlink:href="#DejaVuSans-74"/>
      <use x="447.318359" xlink:href="#DejaVuSans-69"/>
      <use x="475.101562" xlink:href="#DejaVuSans-6f"/>
      <use x="536.283203" xlink:href="#DejaVuSans-6e"/>
      <use x="599.662109" xlink:href="#DejaVuSans-20"/>
      <use x="631.449219" xlink:href="#DejaVuSans-64"/>
      <use x="694.925781" xlink:href="#DejaVuSans-69"/>
      <use x="722.708984" xlink:href="#DejaVuSans-72"/>
      <use x="761.572266" xlink:href="#DejaVuSans-65"/>
      <use x="823.095703" xlink:href="#DejaVuSans-63"/>
      <use x="878.076172" xlink:href="#DejaVuSans-74"/>
      <use x="917.285156" xlink:href="#DejaVuSans-69"/>
      <use x="945.068359" xlink:href="#DejaVuSans-6f"/>
      <use x="1006.25" xlink:href="#DejaVuSans-6e"/>
     </g>
    </g>
   </g>
   <g id="matplotlib.axis_2">
    <g id="ytick_1">
     <g id="line2d_7">
      <defs>
       <path d="M 0 0 
L -3.5 0 
" id="m3e3ec17bf4" style="stroke:#000000;stroke-width:0.8;"/>
      </defs>
      <g>
       <use style="stroke:#000000;stroke-width:0.8;" x="50.14375" xlink:href="#m3e3ec17bf4" y="273.312"/>
      </g>
     </g>
     <g id="text_8">
      <!-- 0.00 -->
      <g transform="translate(20.878125 277.111219)scale(0.1 -0.1)">
       <use xlink:href="#DejaVuSans-30"/>
       <use x="63.623047" xlink:href="#DejaVuSans-2e"/>
       <use x="95.410156" xlink:href="#DejaVuSans-30"/>
       <use x="159.033203" xlink:href="#DejaVuSans-30"/>
      </g>
     </g>
    </g>
    <g id="ytick_2">
     <g id="line2d_8">
      <g>
       <use style="stroke:#000000;stroke-width:0.8;" x="50.14375" xlink:href="#m3e3ec17bf4" y="242.873327"/>
      </g>
     </g>
     <g id="text_9">
      <!-- 0.25 -->
      <g transform="translate(20.878125 246.672546)scale(0.1 -0.1)">
       <defs>
        <path d="M 691 4666 
L 3169 4666 
L 3169 4134 
L 1269 4134 
L 1269 2991 
Q 1406 3038 1543 3061 
Q 1681 3084 1819 3084 
Q 2600 3084 3056 2656 
Q 3513 2228 3513 1497 
Q 3513 744 3044 326 
Q 2575 -91 1722 -91 
Q 1428 -91 1123 -41 
Q 819 9 494 109 
L 494 744 
Q 775 591 1075 516 
Q 1375 441 1709 441 
Q 2250 441 2565 725 
Q 2881 1009 2881 1497 
Q 2881 1984 2565 2268 
Q 2250 2553 1709 2553 
Q 1456 2553 1204 2497 
Q 953 2441 691 2322 
L 691 4666 
z
" id="DejaVuSans-35" transform="scale(0.015625)"/>
       </defs>
       <use xlink:href="#DejaVuSans-30"/>
       <use x="63.623047" xlink:href="#DejaVuSans-2e"/>
       <use x="95.410156" xlink:href="#DejaVuSans-32"/>
       <use x="159.033203" xlink:href="#DejaVuSans-35"/>
      </g>
     </g>
    </g>
    <g id="ytick_3">
     <g id="line2d_9">
      <g>
       <use style="stroke:#000000;stroke-width:0.8;" x="50.14375" xlink:href="#m3e3ec17bf4" y="212.434655"/>
      </g>
     </g>
     <g id="text_10">
      <!-- 0.50 -->
      <g transform="translate(20.878125 216.233874)scale(0.1 -0.1)">
       <use xlink:href="#DejaVuSans-30"/>
       <use x="63.623047" xlink:href="#DejaVuSans-2e"/>
       <use x="95.410156" xlink:href="#DejaVuSans-35"/>
       <use x="159.033203" xlink:href="#DejaVuSans-30"/>
      </g>
     </g>
    </g>
    <g id="ytick_4">
     <g id="line2d_10">
      <g>
       <use style="stroke:#000000;stroke-width:0.8;" x="50.14375" xlink:href="#m3e3ec17bf4" y="181.995982"/>
      </g>
     </g>
     <g id="text_11">
      <!-- 0.75 -->
      <g transform="translate(20.878125 185.795201)scale(0.1 -0.1)">
       <defs>
        <path d="M 525 4666 
L 3525 4666 
L 3525 4397 
L 1831 0 
L 1172 0 
L 2766 4134 
L 525 4134 
L 525 4666 
z
" id="DejaVuSans-37" transform="scale(0.015625)"/>
       </defs>
       <use xlink:href="#DejaVuSans-30"/>
       <use x="63.623047" xlink:href="#DejaVuSans-2e"/>
       <use x="95.410156" xlink:href="#DejaVuSans-37"/>
       <use x="159.033203" xlink:href="#DejaVuSans-35"/>
      </g>
     </g>
    </g>
    <g id="ytick_5">
     <g id="line2d_11">
      <g>
       <use style="stroke:#000000;stroke-width:0.8;" x="50.14375" xlink:href="#m3e3ec17bf4" y="151.55731"/>
      </g>
     </g>
     <g id="text_12">
      <!-- 1.00 -->
      <g transform="translate(20.878125 155.356528)scale(0.1 -0.1)">
       <use xlink:href="#DejaVuSans-31"/>
       <use x="63.623047" xlink:href="#DejaVuSans-2e"/>
       <use x="95.410156" xlink:href="#DejaVuSans-30"/>
       <use x="159.033203" xlink:href="#DejaVuSans-30"/>
      </g>
     </g>
    </g>
    <g id="ytick_6">
     <g id="line2d_12">
      <g>
       <use style="stroke:#000000;stroke-width:0.8;" x="50.14375" xlink:href="#m3e3ec17bf4" y="121.118637"/>
      </g>
     </g>
     <g id="text_13">
      <!-- 1.25 -->
      <g transform="translate(20.878125 124.917856)scale(0.1 -0.1)">
       <use xlink:href="#DejaVuSans-31"/>
       <use x="63.623047" xlink:href="#DejaVuSans-2e"/>
       <use x="95.410156" xlink:href="#DejaVuSans-32"/>
       <use x="159.033203" xlink:href="#DejaVuSans-35"/>
      </g>
     </g>
    </g>
    <g id="ytick_7">
     <g id="line2d_13">
      <g>
       <use style="stroke:#000000;stroke-width:0.8;" x="50.14375" xlink:href="#m3e3ec17bf4" y="90.679964"/>
      </g>
     </g>
     <g id="text_14">
      <!-- 1.50 -->
      <g transform="translate(20.878125 94.479183)scale(0.1 -0.1)">
       <use xlink:href="#DejaVuSans-31"/>
       <use x="63.623047" xlink:href="#DejaVuSans-2e"/>
       <use x="95.410156" xlink:href="#DejaVuSans-35"/>
       <use x="159.033203" xlink:href="#DejaVuSans-30"/>
      </g>
     </g>
    </g>
    <g id="ytick_8">
     <g id="line2d_14">
      <g>
       <use style="stroke:#000000;stroke-width:0.8;" x="50.14375" xlink:href="#m3e3ec17bf4" y="60.241292"/>
      </g>
     </g>
     <g id="text_15">
      <!-- 1.75 -->
      <g transform="translate(20.878125 64.04051)scale(0.1 -0.1)">
       <use xlink:href="#DejaVuSans-31"/>
       <use x="63.623047" xlink:href="#DejaVuSans-2e"/>
       <use x="95.410156" xlink:href="#DejaVuSans-37"/>
       <use x="159.033203" xlink:href="#DejaVuSans-35"/>
      </g>
     </g>
    </g>
    <g id="ytick_9">
     <g id="line2d_15">
      <g>
       <use style="stroke:#000000;stroke-width:0.8;" x="50.14375" xlink:href="#m3e3ec17bf4" y="29.802619"/>
      </g>
     </g>
     <g id="text_16">
      <!-- 2.00 -->
      <g transform="translate(20.878125 33.601838)scale(0.1 -0.1)">
       <use xlink:href="#DejaVuSans-32"/>
       <use x="63.623047" xlink:href="#DejaVuSans-2e"/>
       <use x="95.410156" xlink:href="#DejaVuSans-30"/>
       <use x="159.033203" xlink:href="#DejaVuSans-30"/>
      </g>
     </g>
    </g>
    <g id="text_17">
     <!-- Probability density -->
     <g transform="translate(14.798438 186.606781)rotate(-90)scale(0.1 -0.1)">
      <defs>
       <path d="M 3116 1747 
Q 3116 2381 2855 2742 
Q 2594 3103 2138 3103 
Q 1681 3103 1420 2742 
Q 1159 2381 1159 1747 
Q 1159 1113 1420 752 
Q 1681 391 2138 391 
Q 2594 391 2855 752 
Q 3116 1113 3116 1747 
z
M 1159 2969 
Q 1341 3281 1617 3432 
Q 1894 3584 2278 3584 
Q 2916 3584 3314 3078 
Q 3713 2572 3713 1747 
Q 3713 922 3314 415 
Q 2916 -91 2278 -91 
Q 1894 -91 1617 61 
Q 1341 213 1159 525 
L 1159 0 
L 581 0 
L 581 4863 
L 1159 4863 
L 1159 2969 
z
" id="DejaVuSans-62" transform="scale(0.015625)"/>
       <path d="M 603 4863 
L 1178 4863 
L 1178 0 
L 603 0 
L 603 4863 
z
" id="DejaVuSans-6c" transform="scale(0.015625)"/>
       <path d="M 2059 -325 
Q 1816 -950 1584 -1140 
Q 1353 -1331 966 -1331 
L 506 -1331 
L 506 -850 
L 844 -850 
Q 1081 -850 1212 -737 
Q 1344 -625 1503 -206 
L 1606 56 
L 191 3500 
L 800 3500 
L 1894 763 
L 2988 3500 
L 3597 3500 
L 2059 -325 
z
" id="DejaVuSans-79" transform="scale(0.015625)"/>
       <path d="M 2834 3397 
L 2834 2853 
Q 2591 2978 2328 3040 
Q 2066 3103 1784 3103 
Q 1356 3103 1142 2972 
Q 928 2841 928 2578 
Q 928 2378 1081 2264 
Q 1234 2150 1697 2047 
L 1894 2003 
Q 2506 1872 2764 1633 
Q 3022 1394 3022 966 
Q 3022 478 2636 193 
Q 2250 -91 1575 -91 
Q 1294 -91 989 -36 
Q 684 19 347 128 
L 347 722 
Q 666 556 975 473 
Q 1284 391 1588 391 
Q 1994 391 2212 530 
Q 2431 669 2431 922 
Q 2431 1156 2273 1281 
Q 2116 1406 1581 1522 
L 1381 1569 
Q 847 1681 609 1914 
Q 372 2147 372 2553 
Q 372 3047 722 3315 
Q 1072 3584 1716 3584 
Q 2034 3584 2315 3537 
Q 2597 3491 2834 3397 
z
" id="DejaVuSans-73" transform="scale(0.015625)"/>
      </defs>
      <use xlink:href="#DejaVuSans-50"/>
      <use x="58.552734" xlink:href="#DejaVuSans-72"/>
      <use x="97.416016" xlink:href="#DejaVuSans-6f"/>
      <use x="158.597656" xlink:href="#DejaVuSans-62"/>
      <use x="222.074219" xlink:href="#DejaVuSans-61"/>
      <use x="283.353516" xlink:href="#DejaVuSans-62"/>
      <use x="346.830078" xlink:href="#DejaVuSans-69"/>
      <use x="374.613281" xlink:href="#DejaVuSans-6c"/>
      <use x="402.396484" xlink:href="#DejaVuSans-69"/>
      <use x="430.179688" xlink:href="#DejaVuSans-74"/>
      <use x="469.388672" xlink:href="#DejaVuSans-79"/>
      <use x="528.568359" xlink:href="#DejaVuSans-20"/>
      <use x="560.355469" xlink:href="#DejaVuSans-64"/>
      <use x="623.832031" xlink:href="#DejaVuSans-65"/>
      <use x="685.355469" xlink:href="#DejaVuSans-6e"/>
      <use x="748.734375" xlink:href="#DejaVuSans-73"/>
      <use x="800.833984" xlink:href="#DejaVuSans-69"/>
      <use x="828.617188" xlink:href="#DejaVuSans-74"/>
      <use x="867.826172" xlink:href="#DejaVuSans-79"/>
     </g>
    </g>
   </g>
   <g id="line2d_16">
    <path clip-path="url(#p7d31b8a8eb)" d="M 66.376477 273.312 
L 391.031023 29.802619 
L 391.031023 29.802619 
" style="fill:none;stroke:#ff7f0e;stroke-linecap:square;stroke-width:1.5;"/>
   </g>
   <g id="patch_203">
    <path d="M 50.14375 273.312 
L 50.14375 7.2 
" style="fill:none;stroke:#000000;stroke-linecap:square;stroke-linejoin:miter;stroke-width:0.8;"/>
   </g>
   <g id="patch_204">
    <path d="M 407.26375 273.312 
L 407.26375 7.2 
" style="fill:none;stroke:#000000;stroke-linecap:square;stroke-linejoin:miter;stroke-width:0.8;"/>
   </g>
   <g id="patch_205">
    <path d="M 50.14375 273.312 
L 407.26375 273.312 
" style="fill:none;stroke:#000000;stroke-linecap:square;stroke-linejoin:miter;stroke-width:0.8;"/>
   </g>
   <g id="patch_206">
    <path d="M 50.14375 7.2 
L 407.26375 7.2 
" style="fill:none;stroke:#000000;stroke-linecap:square;stroke-linejoin:miter;stroke-width:0.8;"/>
   </g>
  </g>
 </g>
 <defs>
  <clipPath id="p7d31b8a8eb">
   <rect height="266.112" width="357.12" x="50.14375" y="7.2"/>
  </clipPath>
 </defs>
</svg>
