<?xml version="1.0" encoding="utf-8" standalone="no"?>
<!DOCTYPE svg PUBLIC "-//W3C//DTD SVG 1.1//EN"
  "http://www.w3.org/Graphics/SVG/1.1/DTD/svg11.dtd">
<svg height="310.86825pt" version="1.1" viewBox="0 0 408.10125 310.86825" width="408.10125pt" xmlns="http://www.w3.org/2000/svg" xmlns:xlink="http://www.w3.org/1999/xlink">
 <metadata>
  <rdf:RDF xmlns:cc="http://creativecommons.org/ns#" xmlns:dc="http://purl.org/dc/elements/1.1/" xmlns:rdf="http://www.w3.org/1999/02/22-rdf-syntax-ns#">
   <cc:Work>
    <dc:type rdf:resource="http://purl.org/dc/dcmitype/StillImage"/>
    <dc:date>2021-07-05T05:58:31.555026</dc:date>
    <dc:format>image/svg+xml</dc:format>
    <dc:creator>
     <cc:Agent>
      <dc:title>Matplotlib v3.4.2, https://matplotlib.org/</dc:title>
     </cc:Agent>
    </dc:creator>
   </cc:Work>
  </rdf:RDF>
 </metadata>
 <defs>
  <style type="text/css">*{stroke-linecap:butt;stroke-linejoin:round;}</style>
 </defs>
 <g id="figure_1">
  <g id="patch_1">
   <path d="M 0 310.86825 
L 408.10125 310.86825 
L 408.10125 0 
L 0 0 
z
" style="fill:#ffffff;"/>
  </g>
  <g id="axes_1">
   <g id="patch_2">
    <path d="M 43.78125 273.312 
L 400.90125 273.312 
L 400.90125 7.2 
L 43.78125 7.2 
z
" style="fill:#ffffff;"/>
   </g>
   <g id="patch_3">
    <path clip-path="url(#p05e8facff4)" d="M 60.549165 273.312 
L 62.167222 273.312 
L 62.167222 268.154791 
L 60.549165 268.154791 
z
" style="fill:#1f77b4;"/>
   </g>
   <g id="patch_4">
    <path clip-path="url(#p05e8facff4)" d="M 62.167222 273.312 
L 63.785279 273.312 
L 63.785279 271.101767 
L 62.167222 271.101767 
z
" style="fill:#1f77b4;"/>
   </g>
   <g id="patch_5">
    <path clip-path="url(#p05e8facff4)" d="M 63.785279 273.312 
L 65.403336 273.312 
L 65.403336 263.734326 
L 63.785279 263.734326 
z
" style="fill:#1f77b4;"/>
   </g>
   <g id="patch_6">
    <path clip-path="url(#p05e8facff4)" d="M 65.403336 273.312 
L 67.021393 273.312 
L 67.021393 259.31386 
L 65.403336 259.31386 
z
" style="fill:#1f77b4;"/>
   </g>
   <g id="patch_7">
    <path clip-path="url(#p05e8facff4)" d="M 67.021393 273.312 
L 68.63945 273.312 
L 68.63945 258.577116 
L 67.021393 258.577116 
z
" style="fill:#1f77b4;"/>
   </g>
   <g id="patch_8">
    <path clip-path="url(#p05e8facff4)" d="M 68.63945 273.312 
L 70.257506 273.312 
L 70.257506 254.156651 
L 68.63945 254.156651 
z
" style="fill:#1f77b4;"/>
   </g>
   <g id="patch_9">
    <path clip-path="url(#p05e8facff4)" d="M 70.257506 273.312 
L 71.875563 273.312 
L 71.875563 251.946419 
L 70.257506 251.946419 
z
" style="fill:#1f77b4;"/>
   </g>
   <g id="patch_10">
    <path clip-path="url(#p05e8facff4)" d="M 71.875563 273.312 
L 73.49362 273.312 
L 73.49362 252.683163 
L 71.875563 252.683163 
z
" style="fill:#1f77b4;"/>
   </g>
   <g id="patch_11">
    <path clip-path="url(#p05e8facff4)" d="M 73.49362 273.312 
L 75.111677 273.312 
L 75.111677 242.368744 
L 73.49362 242.368744 
z
" style="fill:#1f77b4;"/>
   </g>
   <g id="patch_12">
    <path clip-path="url(#p05e8facff4)" d="M 75.111677 273.312 
L 76.729734 273.312 
L 76.729734 247.525953 
L 75.111677 247.525953 
z
" style="fill:#1f77b4;"/>
   </g>
   <g id="patch_13">
    <path clip-path="url(#p05e8facff4)" d="M 76.729734 273.312 
L 78.347791 273.312 
L 78.347791 237.948279 
L 76.729734 237.948279 
z
" style="fill:#1f77b4;"/>
   </g>
   <g id="patch_14">
    <path clip-path="url(#p05e8facff4)" d="M 78.347791 273.312 
L 79.965847 273.312 
L 79.965847 227.63386 
L 78.347791 227.63386 
z
" style="fill:#1f77b4;"/>
   </g>
   <g id="patch_15">
    <path clip-path="url(#p05e8facff4)" d="M 79.965847 273.312 
L 81.583904 273.312 
L 81.583904 236.474791 
L 79.965847 236.474791 
z
" style="fill:#1f77b4;"/>
   </g>
   <g id="patch_16">
    <path clip-path="url(#p05e8facff4)" d="M 81.583904 273.312 
L 83.201961 273.312 
L 83.201961 225.423628 
L 81.583904 225.423628 
z
" style="fill:#1f77b4;"/>
   </g>
   <g id="patch_17">
    <path clip-path="url(#p05e8facff4)" d="M 83.201961 273.312 
L 84.820018 273.312 
L 84.820018 226.160372 
L 83.201961 226.160372 
z
" style="fill:#1f77b4;"/>
   </g>
   <g id="patch_18">
    <path clip-path="url(#p05e8facff4)" d="M 84.820018 273.312 
L 86.438075 273.312 
L 86.438075 215.845953 
L 84.820018 215.845953 
z
" style="fill:#1f77b4;"/>
   </g>
   <g id="patch_19">
    <path clip-path="url(#p05e8facff4)" d="M 86.438075 273.312 
L 88.056131 273.312 
L 88.056131 200.374326 
L 86.438075 200.374326 
z
" style="fill:#1f77b4;"/>
   </g>
   <g id="patch_20">
    <path clip-path="url(#p05e8facff4)" d="M 88.056131 273.312 
L 89.674188 273.312 
L 89.674188 221.003163 
L 88.056131 221.003163 
z
" style="fill:#1f77b4;"/>
   </g>
   <g id="patch_21">
    <path clip-path="url(#p05e8facff4)" d="M 89.674188 273.312 
L 91.292245 273.312 
L 91.292245 198.164093 
L 89.674188 198.164093 
z
" style="fill:#1f77b4;"/>
   </g>
   <g id="patch_22">
    <path clip-path="url(#p05e8facff4)" d="M 91.292245 273.312 
L 92.910302 273.312 
L 92.910302 193.743628 
L 91.292245 193.743628 
z
" style="fill:#1f77b4;"/>
   </g>
   <g id="patch_23">
    <path clip-path="url(#p05e8facff4)" d="M 92.910302 273.312 
L 94.528359 273.312 
L 94.528359 197.427349 
L 92.910302 197.427349 
z
" style="fill:#1f77b4;"/>
   </g>
   <g id="patch_24">
    <path clip-path="url(#p05e8facff4)" d="M 94.528359 273.312 
L 96.146416 273.312 
L 96.146416 200.374326 
L 94.528359 200.374326 
z
" style="fill:#1f77b4;"/>
   </g>
   <g id="patch_25">
    <path clip-path="url(#p05e8facff4)" d="M 96.146416 273.312 
L 97.764472 273.312 
L 97.764472 177.535256 
L 96.146416 177.535256 
z
" style="fill:#1f77b4;"/>
   </g>
   <g id="patch_26">
    <path clip-path="url(#p05e8facff4)" d="M 97.764472 273.312 
L 99.382529 273.312 
L 99.382529 180.482233 
L 97.764472 180.482233 
z
" style="fill:#1f77b4;"/>
   </g>
   <g id="patch_27">
    <path clip-path="url(#p05e8facff4)" d="M 99.382529 273.312 
L 101.000586 273.312 
L 101.000586 184.165953 
L 99.382529 184.165953 
z
" style="fill:#1f77b4;"/>
   </g>
   <g id="patch_28">
    <path clip-path="url(#p05e8facff4)" d="M 101.000586 273.312 
L 102.618643 273.312 
L 102.618643 176.798512 
L 101.000586 176.798512 
z
" style="fill:#1f77b4;"/>
   </g>
   <g id="patch_29">
    <path clip-path="url(#p05e8facff4)" d="M 102.618643 273.312 
L 104.2367 273.312 
L 104.2367 195.95386 
L 102.618643 195.95386 
z
" style="fill:#1f77b4;"/>
   </g>
   <g id="patch_30">
    <path clip-path="url(#p05e8facff4)" d="M 104.2367 273.312 
L 105.854757 273.312 
L 105.854757 156.906419 
L 104.2367 156.906419 
z
" style="fill:#1f77b4;"/>
   </g>
   <g id="patch_31">
    <path clip-path="url(#p05e8facff4)" d="M 105.854757 273.312 
L 107.472813 273.312 
L 107.472813 157.643163 
L 105.854757 157.643163 
z
" style="fill:#1f77b4;"/>
   </g>
   <g id="patch_32">
    <path clip-path="url(#p05e8facff4)" d="M 107.472813 273.312 
L 109.09087 273.312 
L 109.09087 161.326884 
L 107.472813 161.326884 
z
" style="fill:#1f77b4;"/>
   </g>
   <g id="patch_33">
    <path clip-path="url(#p05e8facff4)" d="M 109.09087 273.312 
L 110.708927 273.312 
L 110.708927 176.798512 
L 109.09087 176.798512 
z
" style="fill:#1f77b4;"/>
   </g>
   <g id="patch_34">
    <path clip-path="url(#p05e8facff4)" d="M 110.708927 273.312 
L 112.326984 273.312 
L 112.326984 166.484093 
L 110.708927 166.484093 
z
" style="fill:#1f77b4;"/>
   </g>
   <g id="patch_35">
    <path clip-path="url(#p05e8facff4)" d="M 112.326984 273.312 
L 113.945041 273.312 
L 113.945041 170.904558 
L 112.326984 170.904558 
z
" style="fill:#1f77b4;"/>
   </g>
   <g id="patch_36">
    <path clip-path="url(#p05e8facff4)" d="M 113.945041 273.312 
L 115.563097 273.312 
L 115.563097 162.800372 
L 113.945041 162.800372 
z
" style="fill:#1f77b4;"/>
   </g>
   <g id="patch_37">
    <path clip-path="url(#p05e8facff4)" d="M 115.563097 273.312 
L 117.181154 273.312 
L 117.181154 157.643163 
L 115.563097 157.643163 
z
" style="fill:#1f77b4;"/>
   </g>
   <g id="patch_38">
    <path clip-path="url(#p05e8facff4)" d="M 117.181154 273.312 
L 118.799211 273.312 
L 118.799211 144.381767 
L 117.181154 144.381767 
z
" style="fill:#1f77b4;"/>
   </g>
   <g id="patch_39">
    <path clip-path="url(#p05e8facff4)" d="M 118.799211 273.312 
L 120.417268 273.312 
L 120.417268 145.855256 
L 118.799211 145.855256 
z
" style="fill:#1f77b4;"/>
   </g>
   <g id="patch_40">
    <path clip-path="url(#p05e8facff4)" d="M 120.417268 273.312 
L 122.035325 273.312 
L 122.035325 137.75107 
L 120.417268 137.75107 
z
" style="fill:#1f77b4;"/>
   </g>
   <g id="patch_41">
    <path clip-path="url(#p05e8facff4)" d="M 122.035325 273.312 
L 123.653382 273.312 
L 123.653382 145.118512 
L 122.035325 145.118512 
z
" style="fill:#1f77b4;"/>
   </g>
   <g id="patch_42">
    <path clip-path="url(#p05e8facff4)" d="M 123.653382 273.312 
L 125.271438 273.312 
L 125.271438 137.75107 
L 123.653382 137.75107 
z
" style="fill:#1f77b4;"/>
   </g>
   <g id="patch_43">
    <path clip-path="url(#p05e8facff4)" d="M 125.271438 273.312 
L 126.889495 273.312 
L 126.889495 142.171535 
L 125.271438 142.171535 
z
" style="fill:#1f77b4;"/>
   </g>
   <g id="patch_44">
    <path clip-path="url(#p05e8facff4)" d="M 126.889495 273.312 
L 128.507552 273.312 
L 128.507552 157.643163 
L 126.889495 157.643163 
z
" style="fill:#1f77b4;"/>
   </g>
   <g id="patch_45">
    <path clip-path="url(#p05e8facff4)" d="M 128.507552 273.312 
L 130.125609 273.312 
L 130.125609 134.804093 
L 128.507552 134.804093 
z
" style="fill:#1f77b4;"/>
   </g>
   <g id="patch_46">
    <path clip-path="url(#p05e8facff4)" d="M 130.125609 273.312 
L 131.743666 273.312 
L 131.743666 139.224558 
L 130.125609 139.224558 
z
" style="fill:#1f77b4;"/>
   </g>
   <g id="patch_47">
    <path clip-path="url(#p05e8facff4)" d="M 131.743666 273.312 
L 133.361722 273.312 
L 133.361722 134.804093 
L 131.743666 134.804093 
z
" style="fill:#1f77b4;"/>
   </g>
   <g id="patch_48">
    <path clip-path="url(#p05e8facff4)" d="M 133.361722 273.312 
L 134.979779 273.312 
L 134.979779 139.961302 
L 133.361722 139.961302 
z
" style="fill:#1f77b4;"/>
   </g>
   <g id="patch_49">
    <path clip-path="url(#p05e8facff4)" d="M 134.979779 273.312 
L 136.597836 273.312 
L 136.597836 114.175256 
L 134.979779 114.175256 
z
" style="fill:#1f77b4;"/>
   </g>
   <g id="patch_50">
    <path clip-path="url(#p05e8facff4)" d="M 136.597836 273.312 
L 138.215893 273.312 
L 138.215893 108.281302 
L 136.597836 108.281302 
z
" style="fill:#1f77b4;"/>
   </g>
   <g id="patch_51">
    <path clip-path="url(#p05e8facff4)" d="M 138.215893 273.312 
L 139.83395 273.312 
L 139.83395 131.120372 
L 138.215893 131.120372 
z
" style="fill:#1f77b4;"/>
   </g>
   <g id="patch_52">
    <path clip-path="url(#p05e8facff4)" d="M 139.83395 273.312 
L 141.452007 273.312 
L 141.452007 85.442233 
L 139.83395 85.442233 
z
" style="fill:#1f77b4;"/>
   </g>
   <g id="patch_53">
    <path clip-path="url(#p05e8facff4)" d="M 141.452007 273.312 
L 143.070063 273.312 
L 143.070063 103.860837 
L 141.452007 103.860837 
z
" style="fill:#1f77b4;"/>
   </g>
   <g id="patch_54">
    <path clip-path="url(#p05e8facff4)" d="M 143.070063 273.312 
L 144.68812 273.312 
L 144.68812 93.546419 
L 143.070063 93.546419 
z
" style="fill:#1f77b4;"/>
   </g>
   <g id="patch_55">
    <path clip-path="url(#p05e8facff4)" d="M 144.68812 273.312 
L 146.306177 273.312 
L 146.306177 111.965023 
L 144.68812 111.965023 
z
" style="fill:#1f77b4;"/>
   </g>
   <g id="patch_56">
    <path clip-path="url(#p05e8facff4)" d="M 146.306177 273.312 
L 147.924234 273.312 
L 147.924234 99.440372 
L 146.306177 99.440372 
z
" style="fill:#1f77b4;"/>
   </g>
   <g id="patch_57">
    <path clip-path="url(#p05e8facff4)" d="M 147.924234 273.312 
L 149.542291 273.312 
L 149.542291 86.178977 
L 147.924234 86.178977 
z
" style="fill:#1f77b4;"/>
   </g>
   <g id="patch_58">
    <path clip-path="url(#p05e8facff4)" d="M 149.542291 273.312 
L 151.160348 273.312 
L 151.160348 92.07293 
L 149.542291 92.07293 
z
" style="fill:#1f77b4;"/>
   </g>
   <g id="patch_59">
    <path clip-path="url(#p05e8facff4)" d="M 151.160348 273.312 
L 152.778404 273.312 
L 152.778404 94.283163 
L 151.160348 94.283163 
z
" style="fill:#1f77b4;"/>
   </g>
   <g id="patch_60">
    <path clip-path="url(#p05e8facff4)" d="M 152.778404 273.312 
L 154.396461 273.312 
L 154.396461 103.860837 
L 152.778404 103.860837 
z
" style="fill:#1f77b4;"/>
   </g>
   <g id="patch_61">
    <path clip-path="url(#p05e8facff4)" d="M 154.396461 273.312 
L 156.014518 273.312 
L 156.014518 104.597581 
L 154.396461 104.597581 
z
" style="fill:#1f77b4;"/>
   </g>
   <g id="patch_62">
    <path clip-path="url(#p05e8facff4)" d="M 156.014518 273.312 
L 157.632575 273.312 
L 157.632575 87.652465 
L 156.014518 87.652465 
z
" style="fill:#1f77b4;"/>
   </g>
   <g id="patch_63">
    <path clip-path="url(#p05e8facff4)" d="M 157.632575 273.312 
L 159.250632 273.312 
L 159.250632 73.654326 
L 157.632575 73.654326 
z
" style="fill:#1f77b4;"/>
   </g>
   <g id="patch_64">
    <path clip-path="url(#p05e8facff4)" d="M 159.250632 273.312 
L 160.868688 273.312 
L 160.868688 98.703628 
L 159.250632 98.703628 
z
" style="fill:#1f77b4;"/>
   </g>
   <g id="patch_65">
    <path clip-path="url(#p05e8facff4)" d="M 160.868688 273.312 
L 162.486745 273.312 
L 162.486745 91.336186 
L 160.868688 91.336186 
z
" style="fill:#1f77b4;"/>
   </g>
   <g id="patch_66">
    <path clip-path="url(#p05e8facff4)" d="M 162.486745 273.312 
L 164.104802 273.312 
L 164.104802 75.127814 
L 162.486745 75.127814 
z
" style="fill:#1f77b4;"/>
   </g>
   <g id="patch_67">
    <path clip-path="url(#p05e8facff4)" d="M 164.104802 273.312 
L 165.722859 273.312 
L 165.722859 69.970605 
L 164.104802 69.970605 
z
" style="fill:#1f77b4;"/>
   </g>
   <g id="patch_68">
    <path clip-path="url(#p05e8facff4)" d="M 165.722859 273.312 
L 167.340916 273.312 
L 167.340916 75.864558 
L 165.722859 75.864558 
z
" style="fill:#1f77b4;"/>
   </g>
   <g id="patch_69">
    <path clip-path="url(#p05e8facff4)" d="M 167.340916 273.312 
L 168.958973 273.312 
L 168.958973 72.917581 
L 167.340916 72.917581 
z
" style="fill:#1f77b4;"/>
   </g>
   <g id="patch_70">
    <path clip-path="url(#p05e8facff4)" d="M 168.958973 273.312 
L 170.577029 273.312 
L 170.577029 94.283163 
L 168.958973 94.283163 
z
" style="fill:#1f77b4;"/>
   </g>
   <g id="patch_71">
    <path clip-path="url(#p05e8facff4)" d="M 170.577029 273.312 
L 172.195086 273.312 
L 172.195086 75.864558 
L 170.577029 75.864558 
z
" style="fill:#1f77b4;"/>
   </g>
   <g id="patch_72">
    <path clip-path="url(#p05e8facff4)" d="M 172.195086 273.312 
L 173.813143 273.312 
L 173.813143 72.917581 
L 172.195086 72.917581 
z
" style="fill:#1f77b4;"/>
   </g>
   <g id="patch_73">
    <path clip-path="url(#p05e8facff4)" d="M 173.813143 273.312 
L 175.4312 273.312 
L 175.4312 52.288744 
L 173.813143 52.288744 
z
" style="fill:#1f77b4;"/>
   </g>
   <g id="patch_74">
    <path clip-path="url(#p05e8facff4)" d="M 175.4312 273.312 
L 177.049257 273.312 
L 177.049257 58.919442 
L 175.4312 58.919442 
z
" style="fill:#1f77b4;"/>
   </g>
   <g id="patch_75">
    <path clip-path="url(#p05e8facff4)" d="M 177.049257 273.312 
L 178.667314 273.312 
L 178.667314 67.760372 
L 177.049257 67.760372 
z
" style="fill:#1f77b4;"/>
   </g>
   <g id="patch_76">
    <path clip-path="url(#p05e8facff4)" d="M 178.667314 273.312 
L 180.28537 273.312 
L 180.28537 64.076651 
L 178.667314 64.076651 
z
" style="fill:#1f77b4;"/>
   </g>
   <g id="patch_77">
    <path clip-path="url(#p05e8facff4)" d="M 180.28537 273.312 
L 181.903427 273.312 
L 181.903427 75.127814 
L 180.28537 75.127814 
z
" style="fill:#1f77b4;"/>
   </g>
   <g id="patch_78">
    <path clip-path="url(#p05e8facff4)" d="M 181.903427 273.312 
L 183.521484 273.312 
L 183.521484 39.764093 
L 181.903427 39.764093 
z
" style="fill:#1f77b4;"/>
   </g>
   <g id="patch_79">
    <path clip-path="url(#p05e8facff4)" d="M 183.521484 273.312 
L 185.139541 273.312 
L 185.139541 57.445953 
L 183.521484 57.445953 
z
" style="fill:#1f77b4;"/>
   </g>
   <g id="patch_80">
    <path clip-path="url(#p05e8facff4)" d="M 185.139541 273.312 
L 186.757598 273.312 
L 186.757598 39.027349 
L 185.139541 39.027349 
z
" style="fill:#1f77b4;"/>
   </g>
   <g id="patch_81">
    <path clip-path="url(#p05e8facff4)" d="M 186.757598 273.312 
L 188.375654 273.312 
L 188.375654 52.288744 
L 186.757598 52.288744 
z
" style="fill:#1f77b4;"/>
   </g>
   <g id="patch_82">
    <path clip-path="url(#p05e8facff4)" d="M 188.375654 273.312 
L 189.993711 273.312 
L 189.993711 36.817116 
L 188.375654 36.817116 
z
" style="fill:#1f77b4;"/>
   </g>
   <g id="patch_83">
    <path clip-path="url(#p05e8facff4)" d="M 189.993711 273.312 
L 191.611768 273.312 
L 191.611768 64.076651 
L 189.993711 64.076651 
z
" style="fill:#1f77b4;"/>
   </g>
   <g id="patch_84">
    <path clip-path="url(#p05e8facff4)" d="M 191.611768 273.312 
L 193.229825 273.312 
L 193.229825 39.027349 
L 191.611768 39.027349 
z
" style="fill:#1f77b4;"/>
   </g>
   <g id="patch_85">
    <path clip-path="url(#p05e8facff4)" d="M 193.229825 273.312 
L 194.847882 273.312 
L 194.847882 44.921302 
L 193.229825 44.921302 
z
" style="fill:#1f77b4;"/>
   </g>
   <g id="patch_86">
    <path clip-path="url(#p05e8facff4)" d="M 194.847882 273.312 
L 196.465939 273.312 
L 196.465939 59.656186 
L 194.847882 59.656186 
z
" style="fill:#1f77b4;"/>
   </g>
   <g id="patch_87">
    <path clip-path="url(#p05e8facff4)" d="M 196.465939 273.312 
L 198.083995 273.312 
L 198.083995 53.762233 
L 196.465939 53.762233 
z
" style="fill:#1f77b4;"/>
   </g>
   <g id="patch_88">
    <path clip-path="url(#p05e8facff4)" d="M 198.083995 273.312 
L 199.702052 273.312 
L 199.702052 27.239442 
L 198.083995 27.239442 
z
" style="fill:#1f77b4;"/>
   </g>
   <g id="patch_89">
    <path clip-path="url(#p05e8facff4)" d="M 199.702052 273.312 
L 201.320109 273.312 
L 201.320109 72.917581 
L 199.702052 72.917581 
z
" style="fill:#1f77b4;"/>
   </g>
   <g id="patch_90">
    <path clip-path="url(#p05e8facff4)" d="M 201.320109 273.312 
L 202.938166 273.312 
L 202.938166 39.764093 
L 201.320109 39.764093 
z
" style="fill:#1f77b4;"/>
   </g>
   <g id="patch_91">
    <path clip-path="url(#p05e8facff4)" d="M 202.938166 273.312 
L 204.556223 273.312 
L 204.556223 58.182698 
L 202.938166 58.182698 
z
" style="fill:#1f77b4;"/>
   </g>
   <g id="patch_92">
    <path clip-path="url(#p05e8facff4)" d="M 204.556223 273.312 
L 206.174279 273.312 
L 206.174279 65.55014 
L 204.556223 65.55014 
z
" style="fill:#1f77b4;"/>
   </g>
   <g id="patch_93">
    <path clip-path="url(#p05e8facff4)" d="M 206.174279 273.312 
L 207.792336 273.312 
L 207.792336 55.972465 
L 206.174279 55.972465 
z
" style="fill:#1f77b4;"/>
   </g>
   <g id="patch_94">
    <path clip-path="url(#p05e8facff4)" d="M 207.792336 273.312 
L 209.410393 273.312 
L 209.410393 53.762233 
L 207.792336 53.762233 
z
" style="fill:#1f77b4;"/>
   </g>
   <g id="patch_95">
    <path clip-path="url(#p05e8facff4)" d="M 209.410393 273.312 
L 211.02845 273.312 
L 211.02845 32.396651 
L 209.410393 32.396651 
z
" style="fill:#1f77b4;"/>
   </g>
   <g id="patch_96">
    <path clip-path="url(#p05e8facff4)" d="M 211.02845 273.312 
L 212.646507 273.312 
L 212.646507 19.872 
L 211.02845 19.872 
z
" style="fill:#1f77b4;"/>
   </g>
   <g id="patch_97">
    <path clip-path="url(#p05e8facff4)" d="M 212.646507 273.312 
L 214.264564 273.312 
L 214.264564 60.39293 
L 212.646507 60.39293 
z
" style="fill:#1f77b4;"/>
   </g>
   <g id="patch_98">
    <path clip-path="url(#p05e8facff4)" d="M 214.264564 273.312 
L 215.88262 273.312 
L 215.88262 25.029209 
L 214.264564 25.029209 
z
" style="fill:#1f77b4;"/>
   </g>
   <g id="patch_99">
    <path clip-path="url(#p05e8facff4)" d="M 215.88262 273.312 
L 217.500677 273.312 
L 217.500677 37.55386 
L 215.88262 37.55386 
z
" style="fill:#1f77b4;"/>
   </g>
   <g id="patch_100">
    <path clip-path="url(#p05e8facff4)" d="M 217.500677 273.312 
L 219.118734 273.312 
L 219.118734 51.552 
L 217.500677 51.552 
z
" style="fill:#1f77b4;"/>
   </g>
   <g id="patch_101">
    <path clip-path="url(#p05e8facff4)" d="M 219.118734 273.312 
L 220.736791 273.312 
L 220.736791 37.55386 
L 219.118734 37.55386 
z
" style="fill:#1f77b4;"/>
   </g>
   <g id="patch_102">
    <path clip-path="url(#p05e8facff4)" d="M 220.736791 273.312 
L 222.354848 273.312 
L 222.354848 58.182698 
L 220.736791 58.182698 
z
" style="fill:#1f77b4;"/>
   </g>
   <g id="patch_103">
    <path clip-path="url(#p05e8facff4)" d="M 222.354848 273.312 
L 223.972905 273.312 
L 223.972905 68.497116 
L 222.354848 68.497116 
z
" style="fill:#1f77b4;"/>
   </g>
   <g id="patch_104">
    <path clip-path="url(#p05e8facff4)" d="M 223.972905 273.312 
L 225.590961 273.312 
L 225.590961 33.87014 
L 223.972905 33.87014 
z
" style="fill:#1f77b4;"/>
   </g>
   <g id="patch_105">
    <path clip-path="url(#p05e8facff4)" d="M 225.590961 273.312 
L 227.209018 273.312 
L 227.209018 19.872 
L 225.590961 19.872 
z
" style="fill:#1f77b4;"/>
   </g>
   <g id="patch_106">
    <path clip-path="url(#p05e8facff4)" d="M 227.209018 273.312 
L 228.827075 273.312 
L 228.827075 36.817116 
L 227.209018 36.817116 
z
" style="fill:#1f77b4;"/>
   </g>
   <g id="patch_107">
    <path clip-path="url(#p05e8facff4)" d="M 228.827075 273.312 
L 230.445132 273.312 
L 230.445132 53.762233 
L 228.827075 53.762233 
z
" style="fill:#1f77b4;"/>
   </g>
   <g id="patch_108">
    <path clip-path="url(#p05e8facff4)" d="M 230.445132 273.312 
L 232.063189 273.312 
L 232.063189 36.080372 
L 230.445132 36.080372 
z
" style="fill:#1f77b4;"/>
   </g>
   <g id="patch_109">
    <path clip-path="url(#p05e8facff4)" d="M 232.063189 273.312 
L 233.681245 273.312 
L 233.681245 37.55386 
L 232.063189 37.55386 
z
" style="fill:#1f77b4;"/>
   </g>
   <g id="patch_110">
    <path clip-path="url(#p05e8facff4)" d="M 233.681245 273.312 
L 235.299302 273.312 
L 235.299302 69.23386 
L 233.681245 69.23386 
z
" style="fill:#1f77b4;"/>
   </g>
   <g id="patch_111">
    <path clip-path="url(#p05e8facff4)" d="M 235.299302 273.312 
L 236.917359 273.312 
L 236.917359 36.080372 
L 235.299302 36.080372 
z
" style="fill:#1f77b4;"/>
   </g>
   <g id="patch_112">
    <path clip-path="url(#p05e8facff4)" d="M 236.917359 273.312 
L 238.535416 273.312 
L 238.535416 44.184558 
L 236.917359 44.184558 
z
" style="fill:#1f77b4;"/>
   </g>
   <g id="patch_113">
    <path clip-path="url(#p05e8facff4)" d="M 238.535416 273.312 
L 240.153473 273.312 
L 240.153473 51.552 
L 238.535416 51.552 
z
" style="fill:#1f77b4;"/>
   </g>
   <g id="patch_114">
    <path clip-path="url(#p05e8facff4)" d="M 240.153473 273.312 
L 241.77153 273.312 
L 241.77153 41.237581 
L 240.153473 41.237581 
z
" style="fill:#1f77b4;"/>
   </g>
   <g id="patch_115">
    <path clip-path="url(#p05e8facff4)" d="M 241.77153 273.312 
L 243.389586 273.312 
L 243.389586 44.921302 
L 241.77153 44.921302 
z
" style="fill:#1f77b4;"/>
   </g>
   <g id="patch_116">
    <path clip-path="url(#p05e8facff4)" d="M 243.389586 273.312 
L 245.007643 273.312 
L 245.007643 27.239442 
L 243.389586 27.239442 
z
" style="fill:#1f77b4;"/>
   </g>
   <g id="patch_117">
    <path clip-path="url(#p05e8facff4)" d="M 245.007643 273.312 
L 246.6257 273.312 
L 246.6257 42.71107 
L 245.007643 42.71107 
z
" style="fill:#1f77b4;"/>
   </g>
   <g id="patch_118">
    <path clip-path="url(#p05e8facff4)" d="M 246.6257 273.312 
L 248.243757 273.312 
L 248.243757 50.815256 
L 246.6257 50.815256 
z
" style="fill:#1f77b4;"/>
   </g>
   <g id="patch_119">
    <path clip-path="url(#p05e8facff4)" d="M 248.243757 273.312 
L 249.861814 273.312 
L 249.861814 42.71107 
L 248.243757 42.71107 
z
" style="fill:#1f77b4;"/>
   </g>
   <g id="patch_120">
    <path clip-path="url(#p05e8facff4)" d="M 249.861814 273.312 
L 251.479871 273.312 
L 251.479871 58.919442 
L 249.861814 58.919442 
z
" style="fill:#1f77b4;"/>
   </g>
   <g id="patch_121">
    <path clip-path="url(#p05e8facff4)" d="M 251.479871 273.312 
L 253.097927 273.312 
L 253.097927 53.025488 
L 251.479871 53.025488 
z
" style="fill:#1f77b4;"/>
   </g>
   <g id="patch_122">
    <path clip-path="url(#p05e8facff4)" d="M 253.097927 273.312 
L 254.715984 273.312 
L 254.715984 47.131535 
L 253.097927 47.131535 
z
" style="fill:#1f77b4;"/>
   </g>
   <g id="patch_123">
    <path clip-path="url(#p05e8facff4)" d="M 254.715984 273.312 
L 256.334041 273.312 
L 256.334041 64.076651 
L 254.715984 64.076651 
z
" style="fill:#1f77b4;"/>
   </g>
   <g id="patch_124">
    <path clip-path="url(#p05e8facff4)" d="M 256.334041 273.312 
L 257.952098 273.312 
L 257.952098 53.762233 
L 256.334041 53.762233 
z
" style="fill:#1f77b4;"/>
   </g>
   <g id="patch_125">
    <path clip-path="url(#p05e8facff4)" d="M 257.952098 273.312 
L 259.570155 273.312 
L 259.570155 76.601302 
L 257.952098 76.601302 
z
" style="fill:#1f77b4;"/>
   </g>
   <g id="patch_126">
    <path clip-path="url(#p05e8facff4)" d="M 259.570155 273.312 
L 261.188211 273.312 
L 261.188211 57.445953 
L 259.570155 57.445953 
z
" style="fill:#1f77b4;"/>
   </g>
   <g id="patch_127">
    <path clip-path="url(#p05e8facff4)" d="M 261.188211 273.312 
L 262.806268 273.312 
L 262.806268 57.445953 
L 261.188211 57.445953 
z
" style="fill:#1f77b4;"/>
   </g>
   <g id="patch_128">
    <path clip-path="url(#p05e8facff4)" d="M 262.806268 273.312 
L 264.424325 273.312 
L 264.424325 22.818977 
L 262.806268 22.818977 
z
" style="fill:#1f77b4;"/>
   </g>
   <g id="patch_129">
    <path clip-path="url(#p05e8facff4)" d="M 264.424325 273.312 
L 266.042382 273.312 
L 266.042382 64.076651 
L 264.424325 64.076651 
z
" style="fill:#1f77b4;"/>
   </g>
   <g id="patch_130">
    <path clip-path="url(#p05e8facff4)" d="M 266.042382 273.312 
L 267.660439 273.312 
L 267.660439 78.811535 
L 266.042382 78.811535 
z
" style="fill:#1f77b4;"/>
   </g>
   <g id="patch_131">
    <path clip-path="url(#p05e8facff4)" d="M 267.660439 273.312 
L 269.278496 273.312 
L 269.278496 63.339907 
L 267.660439 63.339907 
z
" style="fill:#1f77b4;"/>
   </g>
   <g id="patch_132">
    <path clip-path="url(#p05e8facff4)" d="M 269.278496 273.312 
L 270.896552 273.312 
L 270.896552 56.709209 
L 269.278496 56.709209 
z
" style="fill:#1f77b4;"/>
   </g>
   <g id="patch_133">
    <path clip-path="url(#p05e8facff4)" d="M 270.896552 273.312 
L 272.514609 273.312 
L 272.514609 71.444093 
L 270.896552 71.444093 
z
" style="fill:#1f77b4;"/>
   </g>
   <g id="patch_134">
    <path clip-path="url(#p05e8facff4)" d="M 272.514609 273.312 
L 274.132666 273.312 
L 274.132666 87.652465 
L 272.514609 87.652465 
z
" style="fill:#1f77b4;"/>
   </g>
   <g id="patch_135">
    <path clip-path="url(#p05e8facff4)" d="M 274.132666 273.312 
L 275.750723 273.312 
L 275.750723 61.129674 
L 274.132666 61.129674 
z
" style="fill:#1f77b4;"/>
   </g>
   <g id="patch_136">
    <path clip-path="url(#p05e8facff4)" d="M 275.750723 273.312 
L 277.36878 273.312 
L 277.36878 76.601302 
L 275.750723 76.601302 
z
" style="fill:#1f77b4;"/>
   </g>
   <g id="patch_137">
    <path clip-path="url(#p05e8facff4)" d="M 277.36878 273.312 
L 278.986836 273.312 
L 278.986836 68.497116 
L 277.36878 68.497116 
z
" style="fill:#1f77b4;"/>
   </g>
   <g id="patch_138">
    <path clip-path="url(#p05e8facff4)" d="M 278.986836 273.312 
L 280.604893 273.312 
L 280.604893 92.809674 
L 278.986836 92.809674 
z
" style="fill:#1f77b4;"/>
   </g>
   <g id="patch_139">
    <path clip-path="url(#p05e8facff4)" d="M 280.604893 273.312 
L 282.22295 273.312 
L 282.22295 44.184558 
L 280.604893 44.184558 
z
" style="fill:#1f77b4;"/>
   </g>
   <g id="patch_140">
    <path clip-path="url(#p05e8facff4)" d="M 282.22295 273.312 
L 283.841007 273.312 
L 283.841007 94.283163 
L 282.22295 94.283163 
z
" style="fill:#1f77b4;"/>
   </g>
   <g id="patch_141">
    <path clip-path="url(#p05e8facff4)" d="M 283.841007 273.312 
L 285.459064 273.312 
L 285.459064 98.703628 
L 283.841007 98.703628 
z
" style="fill:#1f77b4;"/>
   </g>
   <g id="patch_142">
    <path clip-path="url(#p05e8facff4)" d="M 285.459064 273.312 
L 287.077121 273.312 
L 287.077121 83.232 
L 285.459064 83.232 
z
" style="fill:#1f77b4;"/>
   </g>
   <g id="patch_143">
    <path clip-path="url(#p05e8facff4)" d="M 287.077121 273.312 
L 288.695177 273.312 
L 288.695177 100.91386 
L 287.077121 100.91386 
z
" style="fill:#1f77b4;"/>
   </g>
   <g id="patch_144">
    <path clip-path="url(#p05e8facff4)" d="M 288.695177 273.312 
L 290.313234 273.312 
L 290.313234 73.654326 
L 288.695177 73.654326 
z
" style="fill:#1f77b4;"/>
   </g>
   <g id="patch_145">
    <path clip-path="url(#p05e8facff4)" d="M 290.313234 273.312 
L 291.931291 273.312 
L 291.931291 107.544558 
L 290.313234 107.544558 
z
" style="fill:#1f77b4;"/>
   </g>
   <g id="patch_146">
    <path clip-path="url(#p05e8facff4)" d="M 291.931291 273.312 
L 293.549348 273.312 
L 293.549348 92.809674 
L 291.931291 92.809674 
z
" style="fill:#1f77b4;"/>
   </g>
   <g id="patch_147">
    <path clip-path="url(#p05e8facff4)" d="M 293.549348 273.312 
L 295.167405 273.312 
L 295.167405 94.283163 
L 293.549348 94.283163 
z
" style="fill:#1f77b4;"/>
   </g>
   <g id="patch_148">
    <path clip-path="url(#p05e8facff4)" d="M 295.167405 273.312 
L 296.785462 273.312 
L 296.785462 96.493395 
L 295.167405 96.493395 
z
" style="fill:#1f77b4;"/>
   </g>
   <g id="patch_149">
    <path clip-path="url(#p05e8facff4)" d="M 296.785462 273.312 
L 298.403518 273.312 
L 298.403518 101.650605 
L 296.785462 101.650605 
z
" style="fill:#1f77b4;"/>
   </g>
   <g id="patch_150">
    <path clip-path="url(#p05e8facff4)" d="M 298.403518 273.312 
L 300.021575 273.312 
L 300.021575 105.334326 
L 298.403518 105.334326 
z
" style="fill:#1f77b4;"/>
   </g>
   <g id="patch_151">
    <path clip-path="url(#p05e8facff4)" d="M 300.021575 273.312 
L 301.639632 273.312 
L 301.639632 125.226419 
L 300.021575 125.226419 
z
" style="fill:#1f77b4;"/>
   </g>
   <g id="patch_152">
    <path clip-path="url(#p05e8facff4)" d="M 301.639632 273.312 
L 303.257689 273.312 
L 303.257689 102.387349 
L 301.639632 102.387349 
z
" style="fill:#1f77b4;"/>
   </g>
   <g id="patch_153">
    <path clip-path="url(#p05e8facff4)" d="M 303.257689 273.312 
L 304.875746 273.312 
L 304.875746 104.597581 
L 303.257689 104.597581 
z
" style="fill:#1f77b4;"/>
   </g>
   <g id="patch_154">
    <path clip-path="url(#p05e8facff4)" d="M 304.875746 273.312 
L 306.493802 273.312 
L 306.493802 124.489674 
L 304.875746 124.489674 
z
" style="fill:#1f77b4;"/>
   </g>
   <g id="patch_155">
    <path clip-path="url(#p05e8facff4)" d="M 306.493802 273.312 
L 308.111859 273.312 
L 308.111859 104.597581 
L 306.493802 104.597581 
z
" style="fill:#1f77b4;"/>
   </g>
   <g id="patch_156">
    <path clip-path="url(#p05e8facff4)" d="M 308.111859 273.312 
L 309.729916 273.312 
L 309.729916 109.018047 
L 308.111859 109.018047 
z
" style="fill:#1f77b4;"/>
   </g>
   <g id="patch_157">
    <path clip-path="url(#p05e8facff4)" d="M 309.729916 273.312 
L 311.347973 273.312 
L 311.347973 106.07107 
L 309.729916 106.07107 
z
" style="fill:#1f77b4;"/>
   </g>
   <g id="patch_158">
    <path clip-path="url(#p05e8facff4)" d="M 311.347973 273.312 
L 312.96603 273.312 
L 312.96603 105.334326 
L 311.347973 105.334326 
z
" style="fill:#1f77b4;"/>
   </g>
   <g id="patch_159">
    <path clip-path="url(#p05e8facff4)" d="M 312.96603 273.312 
L 314.584087 273.312 
L 314.584087 124.489674 
L 312.96603 124.489674 
z
" style="fill:#1f77b4;"/>
   </g>
   <g id="patch_160">
    <path clip-path="url(#p05e8facff4)" d="M 314.584087 273.312 
L 316.202143 273.312 
L 316.202143 125.963163 
L 314.584087 125.963163 
z
" style="fill:#1f77b4;"/>
   </g>
   <g id="patch_161">
    <path clip-path="url(#p05e8facff4)" d="M 316.202143 273.312 
L 317.8202 273.312 
L 317.8202 148.802233 
L 316.202143 148.802233 
z
" style="fill:#1f77b4;"/>
   </g>
   <g id="patch_162">
    <path clip-path="url(#p05e8facff4)" d="M 317.8202 273.312 
L 319.438257 273.312 
L 319.438257 139.961302 
L 317.8202 139.961302 
z
" style="fill:#1f77b4;"/>
   </g>
   <g id="patch_163">
    <path clip-path="url(#p05e8facff4)" d="M 319.438257 273.312 
L 321.056314 273.312 
L 321.056314 131.857116 
L 319.438257 131.857116 
z
" style="fill:#1f77b4;"/>
   </g>
   <g id="patch_164">
    <path clip-path="url(#p05e8facff4)" d="M 321.056314 273.312 
L 322.674371 273.312 
L 322.674371 151.749209 
L 321.056314 151.749209 
z
" style="fill:#1f77b4;"/>
   </g>
   <g id="patch_165">
    <path clip-path="url(#p05e8facff4)" d="M 322.674371 273.312 
L 324.292428 273.312 
L 324.292428 156.169674 
L 322.674371 156.169674 
z
" style="fill:#1f77b4;"/>
   </g>
   <g id="patch_166">
    <path clip-path="url(#p05e8facff4)" d="M 324.292428 273.312 
L 325.910484 273.312 
L 325.910484 152.485953 
L 324.292428 152.485953 
z
" style="fill:#1f77b4;"/>
   </g>
   <g id="patch_167">
    <path clip-path="url(#p05e8facff4)" d="M 325.910484 273.312 
L 327.528541 273.312 
L 327.528541 157.643163 
L 325.910484 157.643163 
z
" style="fill:#1f77b4;"/>
   </g>
   <g id="patch_168">
    <path clip-path="url(#p05e8facff4)" d="M 327.528541 273.312 
L 329.146598 273.312 
L 329.146598 164.27386 
L 327.528541 164.27386 
z
" style="fill:#1f77b4;"/>
   </g>
   <g id="patch_169">
    <path clip-path="url(#p05e8facff4)" d="M 329.146598 273.312 
L 330.764655 273.312 
L 330.764655 141.434791 
L 329.146598 141.434791 
z
" style="fill:#1f77b4;"/>
   </g>
   <g id="patch_170">
    <path clip-path="url(#p05e8facff4)" d="M 330.764655 273.312 
L 332.382712 273.312 
L 332.382712 149.538977 
L 330.764655 149.538977 
z
" style="fill:#1f77b4;"/>
   </g>
   <g id="patch_171">
    <path clip-path="url(#p05e8facff4)" d="M 332.382712 273.312 
L 334.000768 273.312 
L 334.000768 151.749209 
L 332.382712 151.749209 
z
" style="fill:#1f77b4;"/>
   </g>
   <g id="patch_172">
    <path clip-path="url(#p05e8facff4)" d="M 334.000768 273.312 
L 335.618825 273.312 
L 335.618825 165.010605 
L 334.000768 165.010605 
z
" style="fill:#1f77b4;"/>
   </g>
   <g id="patch_173">
    <path clip-path="url(#p05e8facff4)" d="M 335.618825 273.312 
L 337.236882 273.312 
L 337.236882 162.063628 
L 335.618825 162.063628 
z
" style="fill:#1f77b4;"/>
   </g>
   <g id="patch_174">
    <path clip-path="url(#p05e8facff4)" d="M 337.236882 273.312 
L 338.854939 273.312 
L 338.854939 168.694326 
L 337.236882 168.694326 
z
" style="fill:#1f77b4;"/>
   </g>
   <g id="patch_175">
    <path clip-path="url(#p05e8facff4)" d="M 338.854939 273.312 
L 340.472996 273.312 
L 340.472996 170.904558 
L 338.854939 170.904558 
z
" style="fill:#1f77b4;"/>
   </g>
   <g id="patch_176">
    <path clip-path="url(#p05e8facff4)" d="M 340.472996 273.312 
L 342.091053 273.312 
L 342.091053 162.800372 
L 340.472996 162.800372 
z
" style="fill:#1f77b4;"/>
   </g>
   <g id="patch_177">
    <path clip-path="url(#p05e8facff4)" d="M 342.091053 273.312 
L 343.709109 273.312 
L 343.709109 189.323163 
L 342.091053 189.323163 
z
" style="fill:#1f77b4;"/>
   </g>
   <g id="patch_178">
    <path clip-path="url(#p05e8facff4)" d="M 343.709109 273.312 
L 345.327166 273.312 
L 345.327166 173.851535 
L 343.709109 173.851535 
z
" style="fill:#1f77b4;"/>
   </g>
   <g id="patch_179">
    <path clip-path="url(#p05e8facff4)" d="M 345.327166 273.312 
L 346.945223 273.312 
L 346.945223 187.849674 
L 345.327166 187.849674 
z
" style="fill:#1f77b4;"/>
   </g>
   <g id="patch_180">
    <path clip-path="url(#p05e8facff4)" d="M 346.945223 273.312 
L 348.56328 273.312 
L 348.56328 207.005023 
L 346.945223 207.005023 
z
" style="fill:#1f77b4;"/>
   </g>
   <g id="patch_181">
    <path clip-path="url(#p05e8facff4)" d="M 348.56328 273.312 
L 350.181337 273.312 
L 350.181337 184.902698 
L 348.56328 184.902698 
z
" style="fill:#1f77b4;"/>
   </g>
   <g id="patch_182">
    <path clip-path="url(#p05e8facff4)" d="M 350.181337 273.312 
L 351.799393 273.312 
L 351.799393 209.952 
L 350.181337 209.952 
z
" style="fill:#1f77b4;"/>
   </g>
   <g id="patch_183">
    <path clip-path="url(#p05e8facff4)" d="M 351.799393 273.312 
L 353.41745 273.312 
L 353.41745 198.164093 
L 351.799393 198.164093 
z
" style="fill:#1f77b4;"/>
   </g>
   <g id="patch_184">
    <path clip-path="url(#p05e8facff4)" d="M 353.41745 273.312 
L 355.035507 273.312 
L 355.035507 217.319442 
L 353.41745 217.319442 
z
" style="fill:#1f77b4;"/>
   </g>
   <g id="patch_185">
    <path clip-path="url(#p05e8facff4)" d="M 355.035507 273.312 
L 356.653564 273.312 
L 356.653564 212.162233 
L 355.035507 212.162233 
z
" style="fill:#1f77b4;"/>
   </g>
   <g id="patch_186">
    <path clip-path="url(#p05e8facff4)" d="M 356.653564 273.312 
L 358.271621 273.312 
L 358.271621 214.372465 
L 356.653564 214.372465 
z
" style="fill:#1f77b4;"/>
   </g>
   <g id="patch_187">
    <path clip-path="url(#p05e8facff4)" d="M 358.271621 273.312 
L 359.889678 273.312 
L 359.889678 210.688744 
L 358.271621 210.688744 
z
" style="fill:#1f77b4;"/>
   </g>
   <g id="patch_188">
    <path clip-path="url(#p05e8facff4)" d="M 359.889678 273.312 
L 361.507734 273.312 
L 361.507734 224.686884 
L 359.889678 224.686884 
z
" style="fill:#1f77b4;"/>
   </g>
   <g id="patch_189">
    <path clip-path="url(#p05e8facff4)" d="M 361.507734 273.312 
L 363.125791 273.312 
L 363.125791 232.79107 
L 361.507734 232.79107 
z
" style="fill:#1f77b4;"/>
   </g>
   <g id="patch_190">
    <path clip-path="url(#p05e8facff4)" d="M 363.125791 273.312 
L 364.743848 273.312 
L 364.743848 232.054326 
L 363.125791 232.054326 
z
" style="fill:#1f77b4;"/>
   </g>
   <g id="patch_191">
    <path clip-path="url(#p05e8facff4)" d="M 364.743848 273.312 
L 366.361905 273.312 
L 366.361905 229.844093 
L 364.743848 229.844093 
z
" style="fill:#1f77b4;"/>
   </g>
   <g id="patch_192">
    <path clip-path="url(#p05e8facff4)" d="M 366.361905 273.312 
L 367.979962 273.312 
L 367.979962 243.842233 
L 366.361905 243.842233 
z
" style="fill:#1f77b4;"/>
   </g>
   <g id="patch_193">
    <path clip-path="url(#p05e8facff4)" d="M 367.979962 273.312 
L 369.598019 273.312 
L 369.598019 234.264558 
L 367.979962 234.264558 
z
" style="fill:#1f77b4;"/>
   </g>
   <g id="patch_194">
    <path clip-path="url(#p05e8facff4)" d="M 369.598019 273.312 
L 371.216075 273.312 
L 371.216075 242.368744 
L 369.598019 242.368744 
z
" style="fill:#1f77b4;"/>
   </g>
   <g id="patch_195">
    <path clip-path="url(#p05e8facff4)" d="M 371.216075 273.312 
L 372.834132 273.312 
L 372.834132 242.368744 
L 371.216075 242.368744 
z
" style="fill:#1f77b4;"/>
   </g>
   <g id="patch_196">
    <path clip-path="url(#p05e8facff4)" d="M 372.834132 273.312 
L 374.452189 273.312 
L 374.452189 251.209674 
L 372.834132 251.209674 
z
" style="fill:#1f77b4;"/>
   </g>
   <g id="patch_197">
    <path clip-path="url(#p05e8facff4)" d="M 374.452189 273.312 
L 376.070246 273.312 
L 376.070246 244.578977 
L 374.452189 244.578977 
z
" style="fill:#1f77b4;"/>
   </g>
   <g id="patch_198">
    <path clip-path="url(#p05e8facff4)" d="M 376.070246 273.312 
L 377.688303 273.312 
L 377.688303 251.946419 
L 376.070246 251.946419 
z
" style="fill:#1f77b4;"/>
   </g>
   <g id="patch_199">
    <path clip-path="url(#p05e8facff4)" d="M 377.688303 273.312 
L 379.306359 273.312 
L 379.306359 257.840372 
L 377.688303 257.840372 
z
" style="fill:#1f77b4;"/>
   </g>
   <g id="patch_200">
    <path clip-path="url(#p05e8facff4)" d="M 379.306359 273.312 
L 380.924416 273.312 
L 380.924416 262.260837 
L 379.306359 262.260837 
z
" style="fill:#1f77b4;"/>
   </g>
   <g id="patch_201">
    <path clip-path="url(#p05e8facff4)" d="M 380.924416 273.312 
L 382.542473 273.312 
L 382.542473 263.734326 
L 380.924416 263.734326 
z
" style="fill:#1f77b4;"/>
   </g>
   <g id="patch_202">
    <path clip-path="url(#p05e8facff4)" d="M 382.542473 273.312 
L 384.16053 273.312 
L 384.16053 270.365023 
L 382.542473 270.365023 
z
" style="fill:#1f77b4;"/>
   </g>
   <g id="matplotlib.axis_1">
    <g id="xtick_1">
     <g id="line2d_1">
      <defs>
       <path d="M 0 0 
L 0 3.5 
" id="mb913e9c55f" style="stroke:#000000;stroke-width:0.8;"/>
      </defs>
      <g>
       <use style="stroke:#000000;stroke-width:0.8;" x="60.013977" xlink:href="#mb913e9c55f" y="273.312"/>
      </g>
     </g>
     <g id="text_1">
      <!-- 0.0 -->
      <g transform="translate(52.062415 287.910437)scale(0.1 -0.1)">
       <defs>
        <path d="M 2034 4250 
Q 1547 4250 1301 3770 
Q 1056 3291 1056 2328 
Q 1056 1369 1301 889 
Q 1547 409 2034 409 
Q 2525 409 2770 889 
Q 3016 1369 3016 2328 
Q 3016 3291 2770 3770 
Q 2525 4250 2034 4250 
z
M 2034 4750 
Q 2819 4750 3233 4129 
Q 3647 3509 3647 2328 
Q 3647 1150 3233 529 
Q 2819 -91 2034 -91 
Q 1250 -91 836 529 
Q 422 1150 422 2328 
Q 422 3509 836 4129 
Q 1250 4750 2034 4750 
z
" id="DejaVuSans-30" transform="scale(0.015625)"/>
        <path d="M 684 794 
L 1344 794 
L 1344 0 
L 684 0 
L 684 794 
z
" id="DejaVuSans-2e" transform="scale(0.015625)"/>
       </defs>
       <use xlink:href="#DejaVuSans-30"/>
       <use x="63.623047" xlink:href="#DejaVuSans-2e"/>
       <use x="95.410156" xlink:href="#DejaVuSans-30"/>
      </g>
     </g>
    </g>
    <g id="xtick_2">
     <g id="line2d_2">
      <g>
       <use style="stroke:#000000;stroke-width:0.8;" x="101.350278" xlink:href="#mb913e9c55f" y="273.312"/>
      </g>
     </g>
     <g id="text_2">
      <!-- 0.2 -->
      <g transform="translate(93.398715 287.910437)scale(0.1 -0.1)">
       <defs>
        <path d="M 1228 531 
L 3431 531 
L 3431 0 
L 469 0 
L 469 531 
Q 828 903 1448 1529 
Q 2069 2156 2228 2338 
Q 2531 2678 2651 2914 
Q 2772 3150 2772 3378 
Q 2772 3750 2511 3984 
Q 2250 4219 1831 4219 
Q 1534 4219 1204 4116 
Q 875 4013 500 3803 
L 500 4441 
Q 881 4594 1212 4672 
Q 1544 4750 1819 4750 
Q 2544 4750 2975 4387 
Q 3406 4025 3406 3419 
Q 3406 3131 3298 2873 
Q 3191 2616 2906 2266 
Q 2828 2175 2409 1742 
Q 1991 1309 1228 531 
z
" id="DejaVuSans-32" transform="scale(0.015625)"/>
       </defs>
       <use xlink:href="#DejaVuSans-30"/>
       <use x="63.623047" xlink:href="#DejaVuSans-2e"/>
       <use x="95.410156" xlink:href="#DejaVuSans-32"/>
      </g>
     </g>
    </g>
    <g id="xtick_3">
     <g id="line2d_3">
      <g>
       <use style="stroke:#000000;stroke-width:0.8;" x="142.686578" xlink:href="#mb913e9c55f" y="273.312"/>
      </g>
     </g>
     <g id="text_3">
      <!-- 0.4 -->
      <g transform="translate(134.735016 287.910437)scale(0.1 -0.1)">
       <defs>
        <path d="M 2419 4116 
L 825 1625 
L 2419 1625 
L 2419 4116 
z
M 2253 4666 
L 3047 4666 
L 3047 1625 
L 3713 1625 
L 3713 1100 
L 3047 1100 
L 3047 0 
L 2419 0 
L 2419 1100 
L 313 1100 
L 313 1709 
L 2253 4666 
z
" id="DejaVuSans-34" transform="scale(0.015625)"/>
       </defs>
       <use xlink:href="#DejaVuSans-30"/>
       <use x="63.623047" xlink:href="#DejaVuSans-2e"/>
       <use x="95.410156" xlink:href="#DejaVuSans-34"/>
      </g>
     </g>
    </g>
    <g id="xtick_4">
     <g id="line2d_4">
      <g>
       <use style="stroke:#000000;stroke-width:0.8;" x="184.022879" xlink:href="#mb913e9c55f" y="273.312"/>
      </g>
     </g>
     <g id="text_4">
      <!-- 0.6 -->
      <g transform="translate(176.071316 287.910437)scale(0.1 -0.1)">
       <defs>
        <path d="M 2113 2584 
Q 1688 2584 1439 2293 
Q 1191 2003 1191 1497 
Q 1191 994 1439 701 
Q 1688 409 2113 409 
Q 2538 409 2786 701 
Q 3034 994 3034 1497 
Q 3034 2003 2786 2293 
Q 2538 2584 2113 2584 
z
M 3366 4563 
L 3366 3988 
Q 3128 4100 2886 4159 
Q 2644 4219 2406 4219 
Q 1781 4219 1451 3797 
Q 1122 3375 1075 2522 
Q 1259 2794 1537 2939 
Q 1816 3084 2150 3084 
Q 2853 3084 3261 2657 
Q 3669 2231 3669 1497 
Q 3669 778 3244 343 
Q 2819 -91 2113 -91 
Q 1303 -91 875 529 
Q 447 1150 447 2328 
Q 447 3434 972 4092 
Q 1497 4750 2381 4750 
Q 2619 4750 2861 4703 
Q 3103 4656 3366 4563 
z
" id="DejaVuSans-36" transform="scale(0.015625)"/>
       </defs>
       <use xlink:href="#DejaVuSans-30"/>
       <use x="63.623047" xlink:href="#DejaVuSans-2e"/>
       <use x="95.410156" xlink:href="#DejaVuSans-36"/>
      </g>
     </g>
    </g>
    <g id="xtick_5">
     <g id="line2d_5">
      <g>
       <use style="stroke:#000000;stroke-width:0.8;" x="225.35918" xlink:href="#mb913e9c55f" y="273.312"/>
      </g>
     </g>
     <g id="text_5">
      <!-- 0.8 -->
      <g transform="translate(217.407617 287.910437)scale(0.1 -0.1)">
       <defs>
        <path d="M 2034 2216 
Q 1584 2216 1326 1975 
Q 1069 1734 1069 1313 
Q 1069 891 1326 650 
Q 1584 409 2034 409 
Q 2484 409 2743 651 
Q 3003 894 3003 1313 
Q 3003 1734 2745 1975 
Q 2488 2216 2034 2216 
z
M 1403 2484 
Q 997 2584 770 2862 
Q 544 3141 544 3541 
Q 544 4100 942 4425 
Q 1341 4750 2034 4750 
Q 2731 4750 3128 4425 
Q 3525 4100 3525 3541 
Q 3525 3141 3298 2862 
Q 3072 2584 2669 2484 
Q 3125 2378 3379 2068 
Q 3634 1759 3634 1313 
Q 3634 634 3220 271 
Q 2806 -91 2034 -91 
Q 1263 -91 848 271 
Q 434 634 434 1313 
Q 434 1759 690 2068 
Q 947 2378 1403 2484 
z
M 1172 3481 
Q 1172 3119 1398 2916 
Q 1625 2713 2034 2713 
Q 2441 2713 2670 2916 
Q 2900 3119 2900 3481 
Q 2900 3844 2670 4047 
Q 2441 4250 2034 4250 
Q 1625 4250 1398 4047 
Q 1172 3844 1172 3481 
z
" id="DejaVuSans-38" transform="scale(0.015625)"/>
       </defs>
       <use xlink:href="#DejaVuSans-30"/>
       <use x="63.623047" xlink:href="#DejaVuSans-2e"/>
       <use x="95.410156" xlink:href="#DejaVuSans-38"/>
      </g>
     </g>
    </g>
    <g id="xtick_6">
     <g id="line2d_6">
      <g>
       <use style="stroke:#000000;stroke-width:0.8;" x="266.69548" xlink:href="#mb913e9c55f" y="273.312"/>
      </g>
     </g>
     <g id="text_6">
      <!-- 1.0 -->
      <g transform="translate(258.743918 287.910437)scale(0.1 -0.1)">
       <defs>
        <path d="M 794 531 
L 1825 531 
L 1825 4091 
L 703 3866 
L 703 4441 
L 1819 4666 
L 2450 4666 
L 2450 531 
L 3481 531 
L 3481 0 
L 794 0 
L 794 531 
z
" id="DejaVuSans-31" transform="scale(0.015625)"/>
       </defs>
       <use xlink:href="#DejaVuSans-31"/>
       <use x="63.623047" xlink:href="#DejaVuSans-2e"/>
       <use x="95.410156" xlink:href="#DejaVuSans-30"/>
      </g>
     </g>
    </g>
    <g id="xtick_7">
     <g id="line2d_7">
      <g>
       <use style="stroke:#000000;stroke-width:0.8;" x="308.031781" xlink:href="#mb913e9c55f" y="273.312"/>
      </g>
     </g>
     <g id="text_7">
      <!-- 1.2 -->
      <g transform="translate(300.080218 287.910437)scale(0.1 -0.1)">
       <use xlink:href="#DejaVuSans-31"/>
       <use x="63.623047" xlink:href="#DejaVuSans-2e"/>
       <use x="95.410156" xlink:href="#DejaVuSans-32"/>
      </g>
     </g>
    </g>
    <g id="xtick_8">
     <g id="line2d_8">
      <g>
       <use style="stroke:#000000;stroke-width:0.8;" x="349.368081" xlink:href="#mb913e9c55f" y="273.312"/>
      </g>
     </g>
     <g id="text_8">
      <!-- 1.4 -->
      <g transform="translate(341.416519 287.910437)scale(0.1 -0.1)">
       <use xlink:href="#DejaVuSans-31"/>
       <use x="63.623047" xlink:href="#DejaVuSans-2e"/>
       <use x="95.410156" xlink:href="#DejaVuSans-34"/>
      </g>
     </g>
    </g>
    <g id="xtick_9">
     <g id="line2d_9">
      <g>
       <use style="stroke:#000000;stroke-width:0.8;" x="390.704382" xlink:href="#mb913e9c55f" y="273.312"/>
      </g>
     </g>
     <g id="text_9">
      <!-- 1.6 -->
      <g transform="translate(382.752819 287.910437)scale(0.1 -0.1)">
       <use xlink:href="#DejaVuSans-31"/>
       <use x="63.623047" xlink:href="#DejaVuSans-2e"/>
       <use x="95.410156" xlink:href="#DejaVuSans-36"/>
      </g>
     </g>
    </g>
    <g id="text_10">
     <!-- Angle with normal (rad) -->
     <g transform="translate(163.023281 301.588562)scale(0.1 -0.1)">
      <defs>
       <path d="M 2188 4044 
L 1331 1722 
L 3047 1722 
L 2188 4044 
z
M 1831 4666 
L 2547 4666 
L 4325 0 
L 3669 0 
L 3244 1197 
L 1141 1197 
L 716 0 
L 50 0 
L 1831 4666 
z
" id="DejaVuSans-41" transform="scale(0.015625)"/>
       <path d="M 3513 2113 
L 3513 0 
L 2938 0 
L 2938 2094 
Q 2938 2591 2744 2837 
Q 2550 3084 2163 3084 
Q 1697 3084 1428 2787 
Q 1159 2491 1159 1978 
L 1159 0 
L 581 0 
L 581 3500 
L 1159 3500 
L 1159 2956 
Q 1366 3272 1645 3428 
Q 1925 3584 2291 3584 
Q 2894 3584 3203 3211 
Q 3513 2838 3513 2113 
z
" id="DejaVuSans-6e" transform="scale(0.015625)"/>
       <path d="M 2906 1791 
Q 2906 2416 2648 2759 
Q 2391 3103 1925 3103 
Q 1463 3103 1205 2759 
Q 947 2416 947 1791 
Q 947 1169 1205 825 
Q 1463 481 1925 481 
Q 2391 481 2648 825 
Q 2906 1169 2906 1791 
z
M 3481 434 
Q 3481 -459 3084 -895 
Q 2688 -1331 1869 -1331 
Q 1566 -1331 1297 -1286 
Q 1028 -1241 775 -1147 
L 775 -588 
Q 1028 -725 1275 -790 
Q 1522 -856 1778 -856 
Q 2344 -856 2625 -561 
Q 2906 -266 2906 331 
L 2906 616 
Q 2728 306 2450 153 
Q 2172 0 1784 0 
Q 1141 0 747 490 
Q 353 981 353 1791 
Q 353 2603 747 3093 
Q 1141 3584 1784 3584 
Q 2172 3584 2450 3431 
Q 2728 3278 2906 2969 
L 2906 3500 
L 3481 3500 
L 3481 434 
z
" id="DejaVuSans-67" transform="scale(0.015625)"/>
       <path d="M 603 4863 
L 1178 4863 
L 1178 0 
L 603 0 
L 603 4863 
z
" id="DejaVuSans-6c" transform="scale(0.015625)"/>
       <path d="M 3597 1894 
L 3597 1613 
L 953 1613 
Q 991 1019 1311 708 
Q 1631 397 2203 397 
Q 2534 397 2845 478 
Q 3156 559 3463 722 
L 3463 178 
Q 3153 47 2828 -22 
Q 2503 -91 2169 -91 
Q 1331 -91 842 396 
Q 353 884 353 1716 
Q 353 2575 817 3079 
Q 1281 3584 2069 3584 
Q 2775 3584 3186 3129 
Q 3597 2675 3597 1894 
z
M 3022 2063 
Q 3016 2534 2758 2815 
Q 2500 3097 2075 3097 
Q 1594 3097 1305 2825 
Q 1016 2553 972 2059 
L 3022 2063 
z
" id="DejaVuSans-65" transform="scale(0.015625)"/>
       <path id="DejaVuSans-20" transform="scale(0.015625)"/>
       <path d="M 269 3500 
L 844 3500 
L 1563 769 
L 2278 3500 
L 2956 3500 
L 3675 769 
L 4391 3500 
L 4966 3500 
L 4050 0 
L 3372 0 
L 2619 2869 
L 1863 0 
L 1184 0 
L 269 3500 
z
" id="DejaVuSans-77" transform="scale(0.015625)"/>
       <path d="M 603 3500 
L 1178 3500 
L 1178 0 
L 603 0 
L 603 3500 
z
M 603 4863 
L 1178 4863 
L 1178 4134 
L 603 4134 
L 603 4863 
z
" id="DejaVuSans-69" transform="scale(0.015625)"/>
       <path d="M 1172 4494 
L 1172 3500 
L 2356 3500 
L 2356 3053 
L 1172 3053 
L 1172 1153 
Q 1172 725 1289 603 
Q 1406 481 1766 481 
L 2356 481 
L 2356 0 
L 1766 0 
Q 1100 0 847 248 
Q 594 497 594 1153 
L 594 3053 
L 172 3053 
L 172 3500 
L 594 3500 
L 594 4494 
L 1172 4494 
z
" id="DejaVuSans-74" transform="scale(0.015625)"/>
       <path d="M 3513 2113 
L 3513 0 
L 2938 0 
L 2938 2094 
Q 2938 2591 2744 2837 
Q 2550 3084 2163 3084 
Q 1697 3084 1428 2787 
Q 1159 2491 1159 1978 
L 1159 0 
L 581 0 
L 581 4863 
L 1159 4863 
L 1159 2956 
Q 1366 3272 1645 3428 
Q 1925 3584 2291 3584 
Q 2894 3584 3203 3211 
Q 3513 2838 3513 2113 
z
" id="DejaVuSans-68" transform="scale(0.015625)"/>
       <path d="M 1959 3097 
Q 1497 3097 1228 2736 
Q 959 2375 959 1747 
Q 959 1119 1226 758 
Q 1494 397 1959 397 
Q 2419 397 2687 759 
Q 2956 1122 2956 1747 
Q 2956 2369 2687 2733 
Q 2419 3097 1959 3097 
z
M 1959 3584 
Q 2709 3584 3137 3096 
Q 3566 2609 3566 1747 
Q 3566 888 3137 398 
Q 2709 -91 1959 -91 
Q 1206 -91 779 398 
Q 353 888 353 1747 
Q 353 2609 779 3096 
Q 1206 3584 1959 3584 
z
" id="DejaVuSans-6f" transform="scale(0.015625)"/>
       <path d="M 2631 2963 
Q 2534 3019 2420 3045 
Q 2306 3072 2169 3072 
Q 1681 3072 1420 2755 
Q 1159 2438 1159 1844 
L 1159 0 
L 581 0 
L 581 3500 
L 1159 3500 
L 1159 2956 
Q 1341 3275 1631 3429 
Q 1922 3584 2338 3584 
Q 2397 3584 2469 3576 
Q 2541 3569 2628 3553 
L 2631 2963 
z
" id="DejaVuSans-72" transform="scale(0.015625)"/>
       <path d="M 3328 2828 
Q 3544 3216 3844 3400 
Q 4144 3584 4550 3584 
Q 5097 3584 5394 3201 
Q 5691 2819 5691 2113 
L 5691 0 
L 5113 0 
L 5113 2094 
Q 5113 2597 4934 2840 
Q 4756 3084 4391 3084 
Q 3944 3084 3684 2787 
Q 3425 2491 3425 1978 
L 3425 0 
L 2847 0 
L 2847 2094 
Q 2847 2600 2669 2842 
Q 2491 3084 2119 3084 
Q 1678 3084 1418 2786 
Q 1159 2488 1159 1978 
L 1159 0 
L 581 0 
L 581 3500 
L 1159 3500 
L 1159 2956 
Q 1356 3278 1631 3431 
Q 1906 3584 2284 3584 
Q 2666 3584 2933 3390 
Q 3200 3197 3328 2828 
z
" id="DejaVuSans-6d" transform="scale(0.015625)"/>
       <path d="M 2194 1759 
Q 1497 1759 1228 1600 
Q 959 1441 959 1056 
Q 959 750 1161 570 
Q 1363 391 1709 391 
Q 2188 391 2477 730 
Q 2766 1069 2766 1631 
L 2766 1759 
L 2194 1759 
z
M 3341 1997 
L 3341 0 
L 2766 0 
L 2766 531 
Q 2569 213 2275 61 
Q 1981 -91 1556 -91 
Q 1019 -91 701 211 
Q 384 513 384 1019 
Q 384 1609 779 1909 
Q 1175 2209 1959 2209 
L 2766 2209 
L 2766 2266 
Q 2766 2663 2505 2880 
Q 2244 3097 1772 3097 
Q 1472 3097 1187 3025 
Q 903 2953 641 2809 
L 641 3341 
Q 956 3463 1253 3523 
Q 1550 3584 1831 3584 
Q 2591 3584 2966 3190 
Q 3341 2797 3341 1997 
z
" id="DejaVuSans-61" transform="scale(0.015625)"/>
       <path d="M 1984 4856 
Q 1566 4138 1362 3434 
Q 1159 2731 1159 2009 
Q 1159 1288 1364 580 
Q 1569 -128 1984 -844 
L 1484 -844 
Q 1016 -109 783 600 
Q 550 1309 550 2009 
Q 550 2706 781 3412 
Q 1013 4119 1484 4856 
L 1984 4856 
z
" id="DejaVuSans-28" transform="scale(0.015625)"/>
       <path d="M 2906 2969 
L 2906 4863 
L 3481 4863 
L 3481 0 
L 2906 0 
L 2906 525 
Q 2725 213 2448 61 
Q 2172 -91 1784 -91 
Q 1150 -91 751 415 
Q 353 922 353 1747 
Q 353 2572 751 3078 
Q 1150 3584 1784 3584 
Q 2172 3584 2448 3432 
Q 2725 3281 2906 2969 
z
M 947 1747 
Q 947 1113 1208 752 
Q 1469 391 1925 391 
Q 2381 391 2643 752 
Q 2906 1113 2906 1747 
Q 2906 2381 2643 2742 
Q 2381 3103 1925 3103 
Q 1469 3103 1208 2742 
Q 947 2381 947 1747 
z
" id="DejaVuSans-64" transform="scale(0.015625)"/>
       <path d="M 513 4856 
L 1013 4856 
Q 1481 4119 1714 3412 
Q 1947 2706 1947 2009 
Q 1947 1309 1714 600 
Q 1481 -109 1013 -844 
L 513 -844 
Q 928 -128 1133 580 
Q 1338 1288 1338 2009 
Q 1338 2731 1133 3434 
Q 928 4138 513 4856 
z
" id="DejaVuSans-29" transform="scale(0.015625)"/>
      </defs>
      <use xlink:href="#DejaVuSans-41"/>
      <use x="68.408203" xlink:href="#DejaVuSans-6e"/>
      <use x="131.787109" xlink:href="#DejaVuSans-67"/>
      <use x="195.263672" xlink:href="#DejaVuSans-6c"/>
      <use x="223.046875" xlink:href="#DejaVuSans-65"/>
      <use x="284.570312" xlink:href="#DejaVuSans-20"/>
      <use x="316.357422" xlink:href="#DejaVuSans-77"/>
      <use x="398.144531" xlink:href="#DejaVuSans-69"/>
      <use x="425.927734" xlink:href="#DejaVuSans-74"/>
      <use x="465.136719" xlink:href="#DejaVuSans-68"/>
      <use x="528.515625" xlink:href="#DejaVuSans-20"/>
      <use x="560.302734" xlink:href="#DejaVuSans-6e"/>
      <use x="623.681641" xlink:href="#DejaVuSans-6f"/>
      <use x="684.863281" xlink:href="#DejaVuSans-72"/>
      <use x="724.226562" xlink:href="#DejaVuSans-6d"/>
      <use x="821.638672" xlink:href="#DejaVuSans-61"/>
      <use x="882.917969" xlink:href="#DejaVuSans-6c"/>
      <use x="910.701172" xlink:href="#DejaVuSans-20"/>
      <use x="942.488281" xlink:href="#DejaVuSans-28"/>
      <use x="981.501953" xlink:href="#DejaVuSans-72"/>
      <use x="1022.615234" xlink:href="#DejaVuSans-61"/>
      <use x="1083.894531" xlink:href="#DejaVuSans-64"/>
      <use x="1147.371094" xlink:href="#DejaVuSans-29"/>
     </g>
    </g>
   </g>
   <g id="matplotlib.axis_2">
    <g id="ytick_1">
     <g id="line2d_10">
      <defs>
       <path d="M 0 0 
L -3.5 0 
" id="m3fd31aa332" style="stroke:#000000;stroke-width:0.8;"/>
      </defs>
      <g>
       <use style="stroke:#000000;stroke-width:0.8;" x="43.78125" xlink:href="#m3fd31aa332" y="273.312"/>
      </g>
     </g>
     <g id="text_11">
      <!-- 0.0 -->
      <g transform="translate(20.878125 277.111219)scale(0.1 -0.1)">
       <use xlink:href="#DejaVuSans-30"/>
       <use x="63.623047" xlink:href="#DejaVuSans-2e"/>
       <use x="95.410156" xlink:href="#DejaVuSans-30"/>
      </g>
     </g>
    </g>
    <g id="ytick_2">
     <g id="line2d_11">
      <g>
       <use style="stroke:#000000;stroke-width:0.8;" x="43.78125" xlink:href="#m3fd31aa332" y="227.16974"/>
      </g>
     </g>
     <g id="text_12">
      <!-- 0.2 -->
      <g transform="translate(20.878125 230.968959)scale(0.1 -0.1)">
       <use xlink:href="#DejaVuSans-30"/>
       <use x="63.623047" xlink:href="#DejaVuSans-2e"/>
       <use x="95.410156" xlink:href="#DejaVuSans-32"/>
      </g>
     </g>
    </g>
    <g id="ytick_3">
     <g id="line2d_12">
      <g>
       <use style="stroke:#000000;stroke-width:0.8;" x="43.78125" xlink:href="#m3fd31aa332" y="181.02748"/>
      </g>
     </g>
     <g id="text_13">
      <!-- 0.4 -->
      <g transform="translate(20.878125 184.826699)scale(0.1 -0.1)">
       <use xlink:href="#DejaVuSans-30"/>
       <use x="63.623047" xlink:href="#DejaVuSans-2e"/>
       <use x="95.410156" xlink:href="#DejaVuSans-34"/>
      </g>
     </g>
    </g>
    <g id="ytick_4">
     <g id="line2d_13">
      <g>
       <use style="stroke:#000000;stroke-width:0.8;" x="43.78125" xlink:href="#m3fd31aa332" y="134.88522"/>
      </g>
     </g>
     <g id="text_14">
      <!-- 0.6 -->
      <g transform="translate(20.878125 138.684439)scale(0.1 -0.1)">
       <use xlink:href="#DejaVuSans-30"/>
       <use x="63.623047" xlink:href="#DejaVuSans-2e"/>
       <use x="95.410156" xlink:href="#DejaVuSans-36"/>
      </g>
     </g>
    </g>
    <g id="ytick_5">
     <g id="line2d_14">
      <g>
       <use style="stroke:#000000;stroke-width:0.8;" x="43.78125" xlink:href="#m3fd31aa332" y="88.74296"/>
      </g>
     </g>
     <g id="text_15">
      <!-- 0.8 -->
      <g transform="translate(20.878125 92.542179)scale(0.1 -0.1)">
       <use xlink:href="#DejaVuSans-30"/>
       <use x="63.623047" xlink:href="#DejaVuSans-2e"/>
       <use x="95.410156" xlink:href="#DejaVuSans-38"/>
      </g>
     </g>
    </g>
    <g id="ytick_6">
     <g id="line2d_15">
      <g>
       <use style="stroke:#000000;stroke-width:0.8;" x="43.78125" xlink:href="#m3fd31aa332" y="42.6007"/>
      </g>
     </g>
     <g id="text_16">
      <!-- 1.0 -->
      <g transform="translate(20.878125 46.399918)scale(0.1 -0.1)">
       <use xlink:href="#DejaVuSans-31"/>
       <use x="63.623047" xlink:href="#DejaVuSans-2e"/>
       <use x="95.410156" xlink:href="#DejaVuSans-30"/>
      </g>
     </g>
    </g>
    <g id="text_17">
     <!-- Probability density -->
     <g transform="translate(14.798438 186.606781)rotate(-90)scale(0.1 -0.1)">
      <defs>
       <path d="M 1259 4147 
L 1259 2394 
L 2053 2394 
Q 2494 2394 2734 2622 
Q 2975 2850 2975 3272 
Q 2975 3691 2734 3919 
Q 2494 4147 2053 4147 
L 1259 4147 
z
M 628 4666 
L 2053 4666 
Q 2838 4666 3239 4311 
Q 3641 3956 3641 3272 
Q 3641 2581 3239 2228 
Q 2838 1875 2053 1875 
L 1259 1875 
L 1259 0 
L 628 0 
L 628 4666 
z
" id="DejaVuSans-50" transform="scale(0.015625)"/>
       <path d="M 3116 1747 
Q 3116 2381 2855 2742 
Q 2594 3103 2138 3103 
Q 1681 3103 1420 2742 
Q 1159 2381 1159 1747 
Q 1159 1113 1420 752 
Q 1681 391 2138 391 
Q 2594 391 2855 752 
Q 3116 1113 3116 1747 
z
M 1159 2969 
Q 1341 3281 1617 3432 
Q 1894 3584 2278 3584 
Q 2916 3584 3314 3078 
Q 3713 2572 3713 1747 
Q 3713 922 3314 415 
Q 2916 -91 2278 -91 
Q 1894 -91 1617 61 
Q 1341 213 1159 525 
L 1159 0 
L 581 0 
L 581 4863 
L 1159 4863 
L 1159 2969 
z
" id="DejaVuSans-62" transform="scale(0.015625)"/>
       <path d="M 2059 -325 
Q 1816 -950 1584 -1140 
Q 1353 -1331 966 -1331 
L 506 -1331 
L 506 -850 
L 844 -850 
Q 1081 -850 1212 -737 
Q 1344 -625 1503 -206 
L 1606 56 
L 191 3500 
L 800 3500 
L 1894 763 
L 2988 3500 
L 3597 3500 
L 2059 -325 
z
" id="DejaVuSans-79" transform="scale(0.015625)"/>
       <path d="M 2834 3397 
L 2834 2853 
Q 2591 2978 2328 3040 
Q 2066 3103 1784 3103 
Q 1356 3103 1142 2972 
Q 928 2841 928 2578 
Q 928 2378 1081 2264 
Q 1234 2150 1697 2047 
L 1894 2003 
Q 2506 1872 2764 1633 
Q 3022 1394 3022 966 
Q 3022 478 2636 193 
Q 2250 -91 1575 -91 
Q 1294 -91 989 -36 
Q 684 19 347 128 
L 347 722 
Q 666 556 975 473 
Q 1284 391 1588 391 
Q 1994 391 2212 530 
Q 2431 669 2431 922 
Q 2431 1156 2273 1281 
Q 2116 1406 1581 1522 
L 1381 1569 
Q 847 1681 609 1914 
Q 372 2147 372 2553 
Q 372 3047 722 3315 
Q 1072 3584 1716 3584 
Q 2034 3584 2315 3537 
Q 2597 3491 2834 3397 
z
" id="DejaVuSans-73" transform="scale(0.015625)"/>
      </defs>
      <use xlink:href="#DejaVuSans-50"/>
      <use x="58.552734" xlink:href="#DejaVuSans-72"/>
      <use x="97.416016" xlink:href="#DejaVuSans-6f"/>
      <use x="158.597656" xlink:href="#DejaVuSans-62"/>
      <use x="222.074219" xlink:href="#DejaVuSans-61"/>
      <use x="283.353516" xlink:href="#DejaVuSans-62"/>
      <use x="346.830078" xlink:href="#DejaVuSans-69"/>
      <use x="374.613281" xlink:href="#DejaVuSans-6c"/>
      <use x="402.396484" xlink:href="#DejaVuSans-69"/>
      <use x="430.179688" xlink:href="#DejaVuSans-74"/>
      <use x="469.388672" xlink:href="#DejaVuSans-79"/>
      <use x="528.568359" xlink:href="#DejaVuSans-20"/>
      <use x="560.355469" xlink:href="#DejaVuSans-64"/>
      <use x="623.832031" xlink:href="#DejaVuSans-65"/>
      <use x="685.355469" xlink:href="#DejaVuSans-6e"/>
      <use x="748.734375" xlink:href="#DejaVuSans-73"/>
      <use x="800.833984" xlink:href="#DejaVuSans-69"/>
      <use x="828.617188" xlink:href="#DejaVuSans-74"/>
      <use x="867.826172" xlink:href="#DejaVuSans-79"/>
     </g>
    </g>
   </g>
   <g id="line2d_16">
    <path clip-path="url(#p05e8facff4)" d="M 60.013977 273.312 
L 79.837728 229.325819 
L 90.237073 206.795812 
L 99.01152 188.300563 
L 106.811029 172.370497 
L 113.960578 158.270654 
L 120.460169 145.928529 
L 126.63478 134.669358 
L 132.484411 124.458583 
L 138.009063 115.252359 
L 143.208736 106.999787 
L 148.408408 99.168174 
L 153.283101 92.225999 
L 157.832814 86.109809 
L 162.382528 80.356417 
L 166.607261 75.348593 
L 170.831995 70.671579 
L 175.056729 66.333192 
L 178.956483 62.635363 
L 182.856238 59.237516 
L 186.755992 56.14449 
L 190.330767 53.580762 
L 193.905542 51.279941 
L 197.480316 49.244781 
L 201.055091 47.477716 
L 204.304886 46.105723 
L 207.554682 44.958404 
L 210.804477 44.036894 
L 214.054272 43.342104 
L 217.304067 42.874721 
L 220.553863 42.635208 
L 223.803658 42.6238 
L 227.053453 42.84051 
L 230.303248 43.285123 
L 233.553044 43.9572 
L 236.802839 44.856075 
L 240.052634 45.98086 
L 243.302429 47.330443 
L 246.552225 48.903489 
L 250.126999 50.890077 
L 253.701774 53.142791 
L 257.276549 55.658937 
L 260.851324 58.435503 
L 264.751078 61.757581 
L 268.650832 65.380892 
L 272.550587 69.300276 
L 276.77532 73.873904 
L 281.000054 78.780806 
L 285.549768 84.428461 
L 290.099481 90.442174 
L 294.974174 97.278393 
L 299.848867 104.506234 
L 305.048539 112.629452 
L 310.248212 121.15938 
L 315.772863 130.643897 
L 321.622495 141.130055 
L 327.797106 152.657438 
L 334.296696 165.255932 
L 341.446246 179.605839 
L 349.245755 195.769183 
L 358.020202 214.475987 
L 368.419546 237.184972 
L 383.693584 271.135453 
L 384.668523 273.312 
L 384.668523 273.312 
" style="fill:none;stroke:#ff7f0e;stroke-linecap:square;stroke-width:1.5;"/>
   </g>
   <g id="patch_203">
    <path d="M 43.78125 273.312 
L 43.78125 7.2 
" style="fill:none;stroke:#000000;stroke-linecap:square;stroke-linejoin:miter;stroke-width:0.8;"/>
   </g>
   <g id="patch_204">
    <path d="M 400.90125 273.312 
L 400.90125 7.2 
" style="fill:none;stroke:#000000;stroke-linecap:square;stroke-linejoin:miter;stroke-width:0.8;"/>
   </g>
   <g id="patch_205">
    <path d="M 43.78125 273.312 
L 400.90125 273.312 
" style="fill:none;stroke:#000000;stroke-linecap:square;stroke-linejoin:miter;stroke-width:0.8;"/>
   </g>
   <g id="patch_206">
    <path d="M 43.78125 7.2 
L 400.90125 7.2 
" style="fill:none;stroke:#000000;stroke-linecap:square;stroke-linejoin:miter;stroke-width:0.8;"/>
   </g>
  </g>
 </g>
 <defs>
  <clipPath id="p05e8facff4">
   <rect height="266.112" width="357.12" x="43.78125" y="7.2"/>
  </clipPath>
 </defs>
</svg>
